<?xml version="1.0" encoding="UTF-8" standalone="no"?>
<svg width="2977.23px" height="4208.47px" viewBox="0 0 2977.23 4208.47"
 xmlns="http://www.w3.org/2000/svg" xmlns:xlink="http://www.w3.org/1999/xlink" version="1.2" baseProfile="tiny">
<title>exercises_scores (6)</title>
<desc>Generated by MuseScore 3.6.0</desc>
<polyline class="StaffLines" fill="none" stroke="#000000" stroke-width="2.75" stroke-linejoin="bevel" points="247.099,656.536 2764.63,656.536"/>
<polyline class="StaffLines" fill="none" stroke="#000000" stroke-width="2.75" stroke-linejoin="bevel" points="247.099,681.538 2764.63,681.538"/>
<polyline class="StaffLines" fill="none" stroke="#000000" stroke-width="2.75" stroke-linejoin="bevel" points="247.099,706.539 2764.63,706.539"/>
<polyline class="StaffLines" fill="none" stroke="#000000" stroke-width="2.75" stroke-linejoin="bevel" points="247.099,731.541 2764.63,731.541"/>
<polyline class="StaffLines" fill="none" stroke="#000000" stroke-width="2.75" stroke-linejoin="bevel" points="247.099,756.542 2764.63,756.542"/>
<polyline class="StaffLines" fill="none" stroke="#000000" stroke-width="2.75" stroke-linejoin="bevel" points="247.099,919.053 2764.63,919.053"/>
<polyline class="StaffLines" fill="none" stroke="#000000" stroke-width="2.75" stroke-linejoin="bevel" points="247.099,944.054 2764.63,944.054"/>
<polyline class="StaffLines" fill="none" stroke="#000000" stroke-width="2.75" stroke-linejoin="bevel" points="247.099,969.056 2764.63,969.056"/>
<polyline class="StaffLines" fill="none" stroke="#000000" stroke-width="2.75" stroke-linejoin="bevel" points="247.099,994.057 2764.63,994.057"/>
<polyline class="StaffLines" fill="none" stroke="#000000" stroke-width="2.75" stroke-linejoin="bevel" points="247.099,1019.06 2764.63,1019.06"/>
<path class="Text" d="M242.312,213.137 L240.092,213.137 L237.692,216.737 C234.812,214.037 231.032,212.597 226.772,212.597 C218.852,212.597 213.632,217.577 213.632,225.137 C213.632,231.677 216.872,234.917 225.692,237.197 L231.392,238.637 C235.832,239.777 236.252,239.897 237.512,240.857 C239.312,242.237 240.272,244.217 240.272,246.557 C240.272,248.957 239.372,250.937 237.572,252.617 C235.592,254.297 233.612,254.957 230.312,254.957 C225.872,254.957 222.692,253.577 219.872,250.457 C217.352,247.697 216.092,244.817 215.192,240.197 L212.612,240.197 L212.852,257.297 L215.192,257.297 L217.892,253.217 C221.912,256.517 225.212,257.717 230.492,257.717 C239.312,257.717 244.952,252.557 244.952,244.517 C244.952,240.737 243.752,237.617 241.352,235.337 C239.732,233.777 237.392,232.757 232.592,231.557 L226.172,229.937 C220.832,228.557 218.312,226.217 218.312,222.557 C218.312,218.357 221.732,215.477 226.832,215.477 C231.032,215.477 234.452,217.277 236.852,220.697 C238.592,223.157 239.732,225.677 240.452,228.737 L243.032,228.737 L242.312,213.137 M271.162,247.997 C269.242,252.317 267.202,254.057 264.082,254.057 C259.282,254.057 256.282,249.677 256.282,242.657 C256.282,235.337 259.222,230.537 263.662,230.537 C265.462,230.537 267.022,231.377 267.022,232.337 C267.022,232.517 266.962,232.697 266.662,233.057 C265.702,234.197 265.462,234.797 265.462,235.817 C265.462,237.797 266.962,239.177 269.062,239.177 C271.222,239.177 272.722,237.497 272.722,235.097 C272.722,231.017 268.702,227.957 263.362,227.957 C255.562,227.957 249.982,234.317 249.982,243.317 C249.982,251.837 255.082,257.717 262.522,257.717 C267.862,257.717 270.922,255.257 273.502,248.897 L271.162,247.997 M301.75,237.497 C301.75,233.717 301.09,231.797 299.35,230.357 C297.37,228.737 294.43,227.957 290.59,227.957 C283.81,227.957 278.89,231.137 278.89,235.517 C278.89,237.737 280.27,239.177 282.37,239.177 C284.29,239.177 285.61,237.917 285.61,236.117 C285.61,235.337 285.31,234.497 284.71,233.657 C284.35,233.237 284.29,233.117 284.29,232.817 C284.29,231.617 286.69,230.537 289.57,230.537 C291.49,230.537 293.59,231.137 294.55,232.037 C295.69,232.997 296.11,234.437 296.11,237.137 L296.11,239.477 C289.87,240.557 287.89,241.037 284.95,242.177 C279.73,244.097 277.27,246.857 277.27,250.697 C277.27,255.017 280.63,257.717 285.97,257.717 C290.11,257.717 293.83,256.037 296.41,252.977 C297.37,256.037 298.87,257.237 301.69,257.237 C304.39,257.237 307.21,255.497 307.21,253.757 C307.21,253.337 306.97,253.037 306.61,253.037 C306.37,253.037 306.13,253.097 305.71,253.277 C304.87,253.637 304.51,253.697 304.03,253.697 C302.35,253.697 301.75,252.617 301.75,249.557 L301.75,237.497 M296.11,244.817 C296.11,248.417 295.93,249.257 294.91,250.817 C293.41,253.037 290.71,254.537 288.07,254.537 C285.31,254.537 283.33,252.557 283.33,249.857 C283.33,247.337 284.59,245.537 287.23,244.277 C289.09,243.437 291.43,242.837 296.11,242.057 L296.11,244.817 M320.229,212.597 L309.129,213.257 L309.129,215.837 L312.069,215.837 C314.289,215.897 314.589,216.257 314.589,218.837 L314.589,249.437 L314.589,252.257 C314.529,253.157 314.469,253.517 314.229,253.817 C313.809,254.357 312.669,254.597 310.089,254.657 L309.669,254.657 L309.669,256.817 L325.209,256.817 L325.209,254.657 L324.789,254.657 C320.769,254.537 320.229,254.237 320.229,252.077 L320.229,249.437 L320.229,212.597 M354.78,243.317 C354.84,234.317 349.74,227.957 342.42,227.957 C334.74,227.957 328.98,234.617 328.98,243.617 C328.98,252.077 334.44,257.717 342.54,257.717 C348.3,257.717 352.32,254.897 354.78,249.197 L352.68,248.057 C350.22,252.677 347.7,254.477 343.68,254.477 C340.62,254.477 338.4,253.217 336.84,250.517 C335.76,248.717 335.28,246.617 335.34,243.317 L354.78,243.317 M335.4,240.737 C335.4,238.877 335.64,237.557 336.24,235.877 C337.5,232.277 339.42,230.537 342.36,230.537 C345.96,230.537 348.36,233.717 348.36,238.577 C348.36,240.257 347.82,240.737 345.9,240.737 L335.4,240.737 M366.601,250.157 C364.501,250.157 362.821,251.837 362.821,253.877 C362.821,255.977 364.501,257.657 366.541,257.657 C368.641,257.657 370.321,255.977 370.321,253.877 C370.321,251.837 368.641,250.157 366.601,250.157 M366.601,228.437 C364.501,228.437 362.821,230.117 362.821,232.217 C362.821,234.257 364.501,235.937 366.541,235.937 C368.641,235.937 370.321,234.257 370.321,232.157 C370.321,230.117 368.641,228.437 366.601,228.437 M392.805,213.497 L392.805,216.317 L393.885,216.317 C397.305,216.377 398.445,216.557 398.925,217.157 C399.285,217.697 399.285,217.817 399.285,220.877 L399.285,249.437 C399.285,252.497 399.285,252.617 398.925,253.157 C398.445,253.757 397.305,253.997 393.885,253.997 L392.805,253.997 L392.805,256.817 L414.585,256.817 C424.965,256.817 431.205,252.437 431.205,245.057 C431.205,239.057 427.425,235.637 419.205,234.197 C422.085,233.597 423.405,233.057 424.965,231.917 C427.425,230.057 428.925,227.117 428.925,224.117 C428.925,220.217 426.525,216.437 423.045,214.937 C420.885,213.977 417.885,213.497 414.345,213.497 L392.805,213.497 M406.005,232.997 L406.005,219.317 C406.005,216.977 406.785,216.377 409.965,216.317 L412.365,216.317 C415.125,216.317 417.405,216.797 418.665,217.577 C420.825,218.897 421.965,221.417 421.965,224.777 C421.965,230.717 419.085,232.997 411.345,232.997 L406.005,232.997 M406.005,235.817 L411.285,235.817 C420.465,235.817 423.825,238.277 423.825,244.877 C423.825,248.717 422.505,251.477 420.165,252.617 C418.305,253.577 415.785,253.997 412.005,253.997 L409.485,253.997 C406.485,253.997 405.885,253.397 406.005,250.217 L406.005,235.817 M463.049,228.857 L452.369,229.517 L452.369,232.097 L454.829,232.097 C457.109,232.157 457.409,232.517 457.409,235.097 L457.409,249.437 L457.409,251.777 L457.409,252.257 C457.349,253.157 457.289,253.517 457.049,253.817 C456.629,254.357 455.489,254.597 452.909,254.657 L452.669,254.657 L452.669,256.817 L467.789,256.817 L467.789,254.657 L467.549,254.657 C463.589,254.537 463.049,254.237 463.049,252.017 L463.049,249.437 L463.049,240.917 C463.049,235.577 465.989,231.617 469.889,231.617 C473.309,231.617 475.049,234.077 475.049,238.937 L475.049,249.437 L475.049,252.317 C474.989,253.097 474.929,253.517 474.629,253.817 C474.269,254.357 473.069,254.597 470.489,254.657 L470.249,254.657 L470.249,256.817 L485.429,256.817 L485.429,254.657 L485.189,254.657 C481.229,254.537 480.689,254.237 480.689,252.077 L480.689,249.437 L480.689,241.457 C480.689,235.457 483.389,231.617 487.589,231.617 C491.009,231.617 492.689,234.197 492.689,239.597 L492.689,249.437 L492.689,252.257 C492.629,253.097 492.569,253.517 492.269,253.817 C491.909,254.357 490.709,254.597 488.129,254.657 L487.889,254.657 L487.889,256.817 L503.069,256.817 L503.069,254.657 L502.829,254.657 C498.869,254.537 498.329,254.237 498.329,252.017 L498.329,249.437 L498.329,238.397 C498.329,234.677 497.969,233.417 496.409,231.377 C494.669,229.157 492.209,227.957 489.329,227.957 C485.429,227.957 482.549,229.817 479.969,233.957 C478.949,230.357 475.709,227.957 471.689,227.957 C468.029,227.957 465.389,229.697 463.049,233.477 L463.049,228.857 M531.437,237.497 C531.437,233.717 530.777,231.797 529.037,230.357 C527.057,228.737 524.117,227.957 520.277,227.957 C513.497,227.957 508.577,231.137 508.577,235.517 C508.577,237.737 509.957,239.177 512.057,239.177 C513.977,239.177 515.297,237.917 515.297,236.117 C515.297,235.337 514.997,234.497 514.397,233.657 C514.037,233.237 513.977,233.117 513.977,232.817 C513.977,231.617 516.377,230.537 519.257,230.537 C521.177,230.537 523.277,231.137 524.237,232.037 C525.377,232.997 525.797,234.437 525.797,237.137 L525.797,239.477 C519.557,240.557 517.577,241.037 514.637,242.177 C509.417,244.097 506.957,246.857 506.957,250.697 C506.957,255.017 510.317,257.717 515.657,257.717 C519.797,257.717 523.517,256.037 526.097,252.977 C527.057,256.037 528.557,257.237 531.377,257.237 C534.077,257.237 536.897,255.497 536.897,253.757 C536.897,253.337 536.657,253.037 536.297,253.037 C536.057,253.037 535.817,253.097 535.397,253.277 C534.557,253.637 534.197,253.697 533.717,253.697 C532.037,253.697 531.437,252.617 531.437,249.557 L531.437,237.497 M525.797,244.817 C525.797,248.417 525.617,249.257 524.597,250.817 C523.097,253.037 520.397,254.537 517.757,254.537 C514.997,254.537 513.017,252.557 513.017,249.857 C513.017,247.337 514.277,245.537 516.917,244.277 C518.777,243.437 521.117,242.837 525.797,242.057 L525.797,244.817 M548.362,228.857 L536.662,229.517 L536.662,232.097 L540.142,232.097 C542.422,232.157 542.722,232.517 542.722,235.097 L542.722,255.437 C542.722,260.297 542.422,262.577 541.582,264.317 C540.982,265.517 539.602,266.417 538.282,266.417 C537.442,266.417 536.782,266.057 536.782,265.637 C536.782,265.397 536.842,265.277 537.082,264.677 C537.382,264.077 537.502,263.657 537.502,263.237 C537.502,261.737 536.062,260.417 534.382,260.417 C532.462,260.417 531.022,261.917 531.022,264.017 C531.022,266.957 533.722,268.937 537.742,268.937 C541.102,268.937 544.162,267.497 545.902,265.037 C547.762,262.397 548.362,259.337 548.362,252.557 L548.362,228.857 M545.542,213.917 C543.622,213.917 542.062,215.477 542.062,217.397 C542.062,219.317 543.622,220.877 545.482,220.877 C547.462,220.877 549.022,219.317 549.022,217.397 C549.022,215.477 547.462,213.917 545.542,213.917 M568.812,227.957 C561.432,227.957 555.732,234.497 555.732,242.897 C555.732,251.117 561.492,257.717 568.692,257.717 C575.892,257.717 581.652,251.117 581.652,242.837 C581.652,234.617 575.892,227.957 568.812,227.957 M568.812,230.537 C573.012,230.537 575.352,234.917 575.352,242.837 C575.352,250.817 573.012,255.137 568.692,255.137 C564.372,255.137 562.032,250.817 562.032,242.897 C562.032,234.737 564.312,230.537 568.812,230.537 M595.572,228.857 L584.952,229.517 L584.952,232.097 L587.412,232.097 C589.692,232.157 589.992,232.517 589.992,235.097 L589.992,249.437 L589.992,252.257 C589.932,253.157 589.872,253.517 589.632,253.817 C589.212,254.357 588.012,254.597 585.432,254.657 L585.192,254.657 L585.192,256.817 L601.212,256.817 L601.212,254.657 L600.132,254.657 C596.112,254.537 595.572,254.237 595.572,252.077 L595.572,249.437 L595.572,248.837 C595.632,238.757 599.232,231.077 603.912,230.837 C603.072,231.797 602.832,232.397 602.832,233.537 C602.832,235.457 604.212,236.837 606.132,236.837 C608.352,236.837 609.792,235.217 609.792,232.817 C609.792,229.877 607.752,227.957 604.572,227.957 C600.792,227.957 597.552,230.957 595.572,236.297 L595.572,228.857 "/>
<polyline class="BarLine" fill="none" stroke="#000000" stroke-width="4.50" stroke-linejoin="bevel" points="249.349,917.677 249.349,1020.43"/>
<polyline class="BarLine" fill="none" stroke="#000000" stroke-width="4.50" stroke-linejoin="bevel" points="1018.11,917.677 1018.11,1020.43"/>
<polyline class="BarLine" fill="none" stroke="#000000" stroke-width="4.50" stroke-linejoin="bevel" points="1608.83,917.677 1608.83,1020.43"/>
<polyline class="BarLine" fill="none" stroke="#000000" stroke-width="4.50" stroke-linejoin="bevel" points="2199.54,917.677 2199.54,1020.43"/>
<polyline class="BarLine" fill="none" stroke="#000000" stroke-width="4.50" stroke-linejoin="bevel" points="2734.88,917.677 2734.88,1020.43"/>
<polyline class="BarLine" fill="none" stroke="#000000" stroke-width="13.75" stroke-linejoin="bevel" points="2757.76,917.677 2757.76,1020.43"/>
<polyline class="BarLine" fill="none" stroke="#000000" stroke-width="4.50" stroke-linejoin="bevel" points="249.349,655.161 249.349,919.053"/>
<polyline class="BarLine" fill="none" stroke="#000000" stroke-width="4.50" stroke-linejoin="bevel" points="1018.11,655.161 1018.11,919.053"/>
<polyline class="BarLine" fill="none" stroke="#000000" stroke-width="4.50" stroke-linejoin="bevel" points="1608.83,655.161 1608.83,919.053"/>
<polyline class="BarLine" fill="none" stroke="#000000" stroke-width="4.50" stroke-linejoin="bevel" points="2199.54,655.161 2199.54,919.053"/>
<polyline class="BarLine" fill="none" stroke="#000000" stroke-width="4.50" stroke-linejoin="bevel" points="2734.88,655.161 2734.88,919.053"/>
<polyline class="BarLine" fill="none" stroke="#000000" stroke-width="13.75" stroke-linejoin="bevel" points="2757.76,655.161 2757.76,919.053"/>
<path class="Accidental" d="M594.43,970.956 C595.03,970.856 595.53,970.156 595.53,969.556 L595.53,963.656 C595.53,962.856 594.93,962.256 594.13,962.256 L593.93,962.256 L590.63,962.956 L590.63,948.056 L587.83,948.056 L587.83,963.556 L578.93,965.356 L578.93,951.256 L576.13,951.256 L576.13,965.956 L572.23,966.756 C571.63,966.856 571.13,967.556 571.13,968.156 L571.13,968.356 L571.13,974.156 L571.13,973.956 C571.13,974.756 571.73,975.356 572.53,975.356 L572.83,975.356 L576.13,974.656 L576.13,991.156 L572.23,991.956 C571.63,992.056 571.13,992.756 571.13,993.356 L571.13,999.156 C571.13,999.956 571.73,1000.56 572.53,1000.56 L572.83,1000.56 L576.13,999.856 L576.13,1014.76 L578.93,1014.76 L578.93,999.256 L587.83,997.456 L587.83,1011.56 L590.63,1011.56 L590.63,996.856 L594.43,996.156 C595.03,996.056 595.53,995.356 595.53,994.756 L595.53,988.856 C595.53,988.056 594.93,987.456 594.13,987.456 L593.93,987.456 L590.63,988.156 L590.63,971.656 L594.43,970.956 M578.93,990.656 L578.93,974.056 L587.83,972.256 L587.83,988.756 L578.93,990.656 "/>
<path class="Accidental" d="M732.458,958.456 C733.058,958.356 733.558,957.656 733.558,957.056 L733.558,951.156 C733.558,950.356 732.958,949.756 732.158,949.756 L731.958,949.756 L728.658,950.456 L728.658,935.556 L725.858,935.556 L725.858,951.056 L716.958,952.856 L716.958,938.756 L714.158,938.756 L714.158,953.456 L710.258,954.256 C709.658,954.356 709.158,955.056 709.158,955.656 L709.158,955.856 L709.158,961.656 L709.158,961.456 C709.158,962.256 709.758,962.856 710.558,962.856 L710.858,962.856 L714.158,962.156 L714.158,978.656 L710.258,979.456 C709.658,979.556 709.158,980.256 709.158,980.856 L709.158,986.656 C709.158,987.456 709.758,988.056 710.558,988.056 L710.858,988.056 L714.158,987.356 L714.158,1002.26 L716.958,1002.26 L716.958,986.756 L725.858,984.956 L725.858,999.056 L728.658,999.056 L728.658,984.356 L732.458,983.656 C733.058,983.556 733.558,982.856 733.558,982.256 L733.558,976.356 C733.558,975.556 732.958,974.956 732.158,974.956 L731.958,974.956 L728.658,975.656 L728.658,959.156 L732.458,958.456 M716.958,978.156 L716.958,961.556 L725.858,959.756 L725.858,976.256 L716.958,978.156 "/>
<path class="Accidental" d="M1065.42,933.454 C1066.02,933.354 1066.52,932.654 1066.52,932.054 L1066.52,926.154 C1066.52,925.354 1065.92,924.754 1065.12,924.754 L1064.92,924.754 L1061.62,925.454 L1061.62,910.554 L1058.82,910.554 L1058.82,926.054 L1049.92,927.854 L1049.92,913.754 L1047.12,913.754 L1047.12,928.454 L1043.22,929.254 C1042.62,929.354 1042.12,930.054 1042.12,930.654 L1042.12,930.854 L1042.12,936.654 L1042.12,936.454 C1042.12,937.254 1042.72,937.854 1043.52,937.854 L1043.82,937.854 L1047.12,937.154 L1047.12,953.654 L1043.22,954.454 C1042.62,954.554 1042.12,955.254 1042.12,955.854 L1042.12,961.654 C1042.12,962.454 1042.72,963.054 1043.52,963.054 L1043.82,963.054 L1047.12,962.354 L1047.12,977.254 L1049.92,977.254 L1049.92,961.754 L1058.82,959.954 L1058.82,974.054 L1061.62,974.054 L1061.62,959.354 L1065.42,958.654 C1066.02,958.554 1066.52,957.854 1066.52,957.254 L1066.52,951.354 C1066.52,950.554 1065.92,949.954 1065.12,949.954 L1064.92,949.954 L1061.62,950.654 L1061.62,934.154 L1065.42,933.454 M1049.92,953.154 L1049.92,936.554 L1058.82,934.754 L1058.82,951.254 L1049.92,953.154 "/>
<path class="Accidental" d="M1198.87,920.953 C1199.47,920.853 1199.97,920.153 1199.97,919.553 L1199.97,913.653 C1199.97,912.853 1199.37,912.253 1198.57,912.253 L1198.37,912.253 L1195.07,912.953 L1195.07,898.053 L1192.27,898.053 L1192.27,913.553 L1183.37,915.353 L1183.37,901.253 L1180.57,901.253 L1180.57,915.953 L1176.67,916.753 C1176.07,916.853 1175.57,917.553 1175.57,918.153 L1175.57,918.353 L1175.57,924.153 L1175.57,923.953 C1175.57,924.753 1176.17,925.353 1176.97,925.353 L1177.27,925.353 L1180.57,924.653 L1180.57,941.153 L1176.67,941.953 C1176.07,942.053 1175.57,942.753 1175.57,943.353 L1175.57,949.153 C1175.57,949.953 1176.17,950.553 1176.97,950.553 L1177.27,950.553 L1180.57,949.853 L1180.57,964.753 L1183.37,964.753 L1183.37,949.253 L1192.27,947.453 L1192.27,961.553 L1195.07,961.553 L1195.07,946.853 L1198.87,946.153 C1199.47,946.053 1199.97,945.353 1199.97,944.753 L1199.97,938.853 C1199.97,938.053 1199.37,937.453 1198.57,937.453 L1198.37,937.453 L1195.07,938.153 L1195.07,921.653 L1198.87,920.953 M1183.37,940.653 L1183.37,924.053 L1192.27,922.253 L1192.27,938.753 L1183.37,940.653 "/>
<path class="Accidental" d="M1332.32,908.453 C1332.92,908.353 1333.42,907.653 1333.42,907.053 L1333.42,901.153 C1333.42,900.353 1332.82,899.753 1332.02,899.753 L1331.82,899.753 L1328.52,900.453 L1328.52,885.553 L1325.72,885.553 L1325.72,901.053 L1316.82,902.853 L1316.82,888.753 L1314.02,888.753 L1314.02,903.453 L1310.12,904.253 C1309.52,904.353 1309.02,905.053 1309.02,905.653 L1309.02,905.853 L1309.02,911.653 L1309.02,911.453 C1309.02,912.253 1309.62,912.853 1310.42,912.853 L1310.72,912.853 L1314.02,912.153 L1314.02,928.653 L1310.12,929.453 C1309.52,929.553 1309.02,930.253 1309.02,930.853 L1309.02,936.653 C1309.02,937.453 1309.62,938.053 1310.42,938.053 L1310.72,938.053 L1314.02,937.353 L1314.02,952.253 L1316.82,952.253 L1316.82,936.753 L1325.72,934.953 L1325.72,949.053 L1328.52,949.053 L1328.52,934.353 L1332.32,933.653 C1332.92,933.553 1333.42,932.853 1333.42,932.253 L1333.42,926.353 C1333.42,925.553 1332.82,924.953 1332.02,924.953 L1331.82,924.953 L1328.52,925.653 L1328.52,909.153 L1332.32,908.453 M1316.82,928.153 L1316.82,911.553 L1325.72,909.753 L1325.72,926.253 L1316.82,928.153 "/>
<path class="Accidental" d="M1656.13,908.453 C1656.73,908.353 1657.23,907.653 1657.23,907.053 L1657.23,901.153 C1657.23,900.353 1656.63,899.753 1655.83,899.753 L1655.63,899.753 L1652.33,900.453 L1652.33,885.553 L1649.53,885.553 L1649.53,901.053 L1640.63,902.853 L1640.63,888.753 L1637.83,888.753 L1637.83,903.453 L1633.93,904.253 C1633.33,904.353 1632.83,905.053 1632.83,905.653 L1632.83,905.853 L1632.83,911.653 L1632.83,911.453 C1632.83,912.253 1633.43,912.853 1634.23,912.853 L1634.53,912.853 L1637.83,912.153 L1637.83,928.653 L1633.93,929.453 C1633.33,929.553 1632.83,930.253 1632.83,930.853 L1632.83,936.653 C1632.83,937.453 1633.43,938.053 1634.23,938.053 L1634.53,938.053 L1637.83,937.353 L1637.83,952.253 L1640.63,952.253 L1640.63,936.753 L1649.53,934.953 L1649.53,949.053 L1652.33,949.053 L1652.33,934.353 L1656.13,933.653 C1656.73,933.553 1657.23,932.853 1657.23,932.253 L1657.23,926.353 C1657.23,925.553 1656.63,924.953 1655.83,924.953 L1655.63,924.953 L1652.33,925.653 L1652.33,909.153 L1656.13,908.453 M1640.63,928.153 L1640.63,911.553 L1649.53,909.753 L1649.53,926.253 L1640.63,928.153 "/>
<path class="Accidental" d="M1789.58,920.953 C1790.18,920.853 1790.68,920.153 1790.68,919.553 L1790.68,913.653 C1790.68,912.853 1790.08,912.253 1789.28,912.253 L1789.08,912.253 L1785.78,912.953 L1785.78,898.053 L1782.98,898.053 L1782.98,913.553 L1774.08,915.353 L1774.08,901.253 L1771.28,901.253 L1771.28,915.953 L1767.38,916.753 C1766.78,916.853 1766.28,917.553 1766.28,918.153 L1766.28,918.353 L1766.28,924.153 L1766.28,923.953 C1766.28,924.753 1766.88,925.353 1767.68,925.353 L1767.98,925.353 L1771.28,924.653 L1771.28,941.153 L1767.38,941.953 C1766.78,942.053 1766.28,942.753 1766.28,943.353 L1766.28,949.153 C1766.28,949.953 1766.88,950.553 1767.68,950.553 L1767.98,950.553 L1771.28,949.853 L1771.28,964.753 L1774.08,964.753 L1774.08,949.253 L1782.98,947.453 L1782.98,961.553 L1785.78,961.553 L1785.78,946.853 L1789.58,946.153 C1790.18,946.053 1790.68,945.353 1790.68,944.753 L1790.68,938.853 C1790.68,938.053 1790.08,937.453 1789.28,937.453 L1789.08,937.453 L1785.78,938.153 L1785.78,921.653 L1789.58,920.953 M1774.08,940.653 L1774.08,924.053 L1782.98,922.253 L1782.98,938.753 L1774.08,940.653 "/>
<path class="Accidental" d="M1923.03,933.454 C1923.63,933.354 1924.13,932.654 1924.13,932.054 L1924.13,926.154 C1924.13,925.354 1923.53,924.754 1922.73,924.754 L1922.53,924.754 L1919.23,925.454 L1919.23,910.554 L1916.43,910.554 L1916.43,926.054 L1907.53,927.854 L1907.53,913.754 L1904.73,913.754 L1904.73,928.454 L1900.83,929.254 C1900.23,929.354 1899.73,930.054 1899.73,930.654 L1899.73,930.854 L1899.73,936.654 L1899.73,936.454 C1899.73,937.254 1900.33,937.854 1901.13,937.854 L1901.43,937.854 L1904.73,937.154 L1904.73,953.654 L1900.83,954.454 C1900.23,954.554 1899.73,955.254 1899.73,955.854 L1899.73,961.654 C1899.73,962.454 1900.33,963.054 1901.13,963.054 L1901.43,963.054 L1904.73,962.354 L1904.73,977.254 L1907.53,977.254 L1907.53,961.754 L1916.43,959.954 L1916.43,974.054 L1919.23,974.054 L1919.23,959.354 L1923.03,958.654 C1923.63,958.554 1924.13,957.854 1924.13,957.254 L1924.13,951.354 C1924.13,950.554 1923.53,949.954 1922.73,949.954 L1922.53,949.954 L1919.23,950.654 L1919.23,934.154 L1923.03,933.454 M1907.53,953.154 L1907.53,936.554 L1916.43,934.754 L1916.43,951.254 L1907.53,953.154 "/>
<path class="Accidental" d="M2246.84,958.456 C2247.44,958.356 2247.94,957.656 2247.94,957.056 L2247.94,951.156 C2247.94,950.356 2247.34,949.756 2246.54,949.756 L2246.34,949.756 L2243.04,950.456 L2243.04,935.556 L2240.24,935.556 L2240.24,951.056 L2231.34,952.856 L2231.34,938.756 L2228.54,938.756 L2228.54,953.456 L2224.64,954.256 C2224.04,954.356 2223.54,955.056 2223.54,955.656 L2223.54,955.856 L2223.54,961.656 L2223.54,961.456 C2223.54,962.256 2224.14,962.856 2224.94,962.856 L2225.24,962.856 L2228.54,962.156 L2228.54,978.656 L2224.64,979.456 C2224.04,979.556 2223.54,980.256 2223.54,980.856 L2223.54,986.656 C2223.54,987.456 2224.14,988.056 2224.94,988.056 L2225.24,988.056 L2228.54,987.356 L2228.54,1002.26 L2231.34,1002.26 L2231.34,986.756 L2240.24,984.956 L2240.24,999.056 L2243.04,999.056 L2243.04,984.356 L2246.84,983.656 C2247.44,983.556 2247.94,982.856 2247.94,982.256 L2247.94,976.356 C2247.94,975.556 2247.34,974.956 2246.54,974.956 L2246.34,974.956 L2243.04,975.656 L2243.04,959.156 L2246.84,958.456 M2231.34,978.156 L2231.34,961.556 L2240.24,959.756 L2240.24,976.256 L2231.34,978.156 "/>
<path class="Accidental" d="M2379.74,970.956 C2380.34,970.856 2380.84,970.156 2380.84,969.556 L2380.84,963.656 C2380.84,962.856 2380.24,962.256 2379.44,962.256 L2379.24,962.256 L2375.94,962.956 L2375.94,948.056 L2373.14,948.056 L2373.14,963.556 L2364.24,965.356 L2364.24,951.256 L2361.44,951.256 L2361.44,965.956 L2357.54,966.756 C2356.94,966.856 2356.44,967.556 2356.44,968.156 L2356.44,968.356 L2356.44,974.156 L2356.44,973.956 C2356.44,974.756 2357.04,975.356 2357.84,975.356 L2358.14,975.356 L2361.44,974.656 L2361.44,991.156 L2357.54,991.956 C2356.94,992.056 2356.44,992.756 2356.44,993.356 L2356.44,999.156 C2356.44,999.956 2357.04,1000.56 2357.84,1000.56 L2358.14,1000.56 L2361.44,999.856 L2361.44,1014.76 L2364.24,1014.76 L2364.24,999.256 L2373.14,997.456 L2373.14,1011.56 L2375.94,1011.56 L2375.94,996.856 L2379.74,996.156 C2380.34,996.056 2380.84,995.356 2380.84,994.756 L2380.84,988.856 C2380.84,988.056 2380.24,987.456 2379.44,987.456 L2379.24,987.456 L2375.94,988.156 L2375.94,971.656 L2379.74,970.956 M2364.24,990.656 L2364.24,974.056 L2373.14,972.256 L2373.14,988.756 L2364.24,990.656 "/>
<path class="Accidental" d="M585.68,770.944 C586.28,770.844 586.78,770.144 586.78,769.544 L586.78,763.644 C586.78,762.844 586.18,762.244 585.38,762.244 L585.18,762.244 L581.88,762.944 L581.88,748.044 L579.08,748.044 L579.08,763.544 L570.18,765.344 L570.18,751.244 L567.38,751.244 L567.38,765.944 L563.48,766.744 C562.88,766.844 562.38,767.544 562.38,768.144 L562.38,768.344 L562.38,774.144 L562.38,773.944 C562.38,774.744 562.98,775.344 563.78,775.344 L564.08,775.344 L567.38,774.644 L567.38,791.144 L563.48,791.944 C562.88,792.044 562.38,792.744 562.38,793.344 L562.38,799.144 C562.38,799.944 562.98,800.544 563.78,800.544 L564.08,800.544 L567.38,799.844 L567.38,814.744 L570.18,814.744 L570.18,799.244 L579.08,797.444 L579.08,811.544 L581.88,811.544 L581.88,796.844 L585.68,796.144 C586.28,796.044 586.78,795.344 586.78,794.744 L586.78,788.844 C586.78,788.044 586.18,787.444 585.38,787.444 L585.18,787.444 L581.88,788.144 L581.88,771.644 L585.68,770.944 M570.18,790.644 L570.18,774.044 L579.08,772.244 L579.08,788.744 L570.18,790.644 "/>
<path class="Accidental" d="M732.458,758.443 C733.058,758.343 733.558,757.643 733.558,757.043 L733.558,751.143 C733.558,750.343 732.958,749.743 732.158,749.743 L731.958,749.743 L728.658,750.443 L728.658,735.543 L725.858,735.543 L725.858,751.043 L716.958,752.843 L716.958,738.743 L714.158,738.743 L714.158,753.443 L710.258,754.243 C709.658,754.343 709.158,755.043 709.158,755.643 L709.158,755.843 L709.158,761.643 L709.158,761.443 C709.158,762.243 709.758,762.843 710.558,762.843 L710.858,762.843 L714.158,762.143 L714.158,778.643 L710.258,779.443 C709.658,779.543 709.158,780.243 709.158,780.843 L709.158,786.643 C709.158,787.443 709.758,788.043 710.558,788.043 L710.858,788.043 L714.158,787.343 L714.158,802.243 L716.958,802.243 L716.958,786.743 L725.858,784.943 L725.858,799.043 L728.658,799.043 L728.658,784.343 L732.458,783.643 C733.058,783.543 733.558,782.843 733.558,782.243 L733.558,776.343 C733.558,775.543 732.958,774.943 732.158,774.943 L731.958,774.943 L728.658,775.643 L728.658,759.143 L732.458,758.443 M716.958,778.143 L716.958,761.543 L725.858,759.743 L725.858,776.243 L716.958,778.143 "/>
<path class="Accidental" d="M1065.42,733.442 C1066.02,733.342 1066.52,732.642 1066.52,732.042 L1066.52,726.142 C1066.52,725.342 1065.92,724.742 1065.12,724.742 L1064.92,724.742 L1061.62,725.442 L1061.62,710.542 L1058.82,710.542 L1058.82,726.042 L1049.92,727.842 L1049.92,713.742 L1047.12,713.742 L1047.12,728.442 L1043.22,729.242 C1042.62,729.342 1042.12,730.042 1042.12,730.642 L1042.12,730.842 L1042.12,736.642 L1042.12,736.442 C1042.12,737.242 1042.72,737.842 1043.52,737.842 L1043.82,737.842 L1047.12,737.142 L1047.12,753.642 L1043.22,754.442 C1042.62,754.542 1042.12,755.242 1042.12,755.842 L1042.12,761.642 C1042.12,762.442 1042.72,763.042 1043.52,763.042 L1043.82,763.042 L1047.12,762.342 L1047.12,777.242 L1049.92,777.242 L1049.92,761.742 L1058.82,759.942 L1058.82,774.042 L1061.62,774.042 L1061.62,759.342 L1065.42,758.642 C1066.02,758.542 1066.52,757.842 1066.52,757.242 L1066.52,751.342 C1066.52,750.542 1065.92,749.942 1065.12,749.942 L1064.92,749.942 L1061.62,750.642 L1061.62,734.142 L1065.42,733.442 M1049.92,753.142 L1049.92,736.542 L1058.82,734.742 L1058.82,751.242 L1049.92,753.142 "/>
<path class="Accidental" d="M1198.87,720.941 C1199.47,720.841 1199.97,720.141 1199.97,719.541 L1199.97,713.641 C1199.97,712.841 1199.37,712.241 1198.57,712.241 L1198.37,712.241 L1195.07,712.941 L1195.07,698.041 L1192.27,698.041 L1192.27,713.541 L1183.37,715.341 L1183.37,701.241 L1180.57,701.241 L1180.57,715.941 L1176.67,716.741 C1176.07,716.841 1175.57,717.541 1175.57,718.141 L1175.57,718.341 L1175.57,724.141 L1175.57,723.941 C1175.57,724.741 1176.17,725.341 1176.97,725.341 L1177.27,725.341 L1180.57,724.641 L1180.57,741.141 L1176.67,741.941 C1176.07,742.041 1175.57,742.741 1175.57,743.341 L1175.57,749.141 C1175.57,749.941 1176.17,750.541 1176.97,750.541 L1177.27,750.541 L1180.57,749.841 L1180.57,764.741 L1183.37,764.741 L1183.37,749.241 L1192.27,747.441 L1192.27,761.541 L1195.07,761.541 L1195.07,746.841 L1198.87,746.141 C1199.47,746.041 1199.97,745.341 1199.97,744.741 L1199.97,738.841 C1199.97,738.041 1199.37,737.441 1198.57,737.441 L1198.37,737.441 L1195.07,738.141 L1195.07,721.641 L1198.87,720.941 M1183.37,740.641 L1183.37,724.041 L1192.27,722.241 L1192.27,738.741 L1183.37,740.641 "/>
<path class="Accidental" d="M1332.32,708.44 C1332.92,708.34 1333.42,707.64 1333.42,707.04 L1333.42,701.14 C1333.42,700.34 1332.82,699.74 1332.02,699.74 L1331.82,699.74 L1328.52,700.44 L1328.52,685.54 L1325.72,685.54 L1325.72,701.04 L1316.82,702.84 L1316.82,688.74 L1314.02,688.74 L1314.02,703.44 L1310.12,704.24 C1309.52,704.34 1309.02,705.04 1309.02,705.64 L1309.02,705.84 L1309.02,711.64 L1309.02,711.44 C1309.02,712.24 1309.62,712.84 1310.42,712.84 L1310.72,712.84 L1314.02,712.14 L1314.02,728.64 L1310.12,729.44 C1309.52,729.54 1309.02,730.24 1309.02,730.84 L1309.02,736.64 C1309.02,737.44 1309.62,738.04 1310.42,738.04 L1310.72,738.04 L1314.02,737.34 L1314.02,752.24 L1316.82,752.24 L1316.82,736.74 L1325.72,734.94 L1325.72,749.04 L1328.52,749.04 L1328.52,734.34 L1332.32,733.64 C1332.92,733.54 1333.42,732.84 1333.42,732.24 L1333.42,726.34 C1333.42,725.54 1332.82,724.94 1332.02,724.94 L1331.82,724.94 L1328.52,725.64 L1328.52,709.14 L1332.32,708.44 M1316.82,728.14 L1316.82,711.54 L1325.72,709.74 L1325.72,726.24 L1316.82,728.14 "/>
<path class="Accidental" d="M1656.13,708.44 C1656.73,708.34 1657.23,707.64 1657.23,707.04 L1657.23,701.14 C1657.23,700.34 1656.63,699.74 1655.83,699.74 L1655.63,699.74 L1652.33,700.44 L1652.33,685.54 L1649.53,685.54 L1649.53,701.04 L1640.63,702.84 L1640.63,688.74 L1637.83,688.74 L1637.83,703.44 L1633.93,704.24 C1633.33,704.34 1632.83,705.04 1632.83,705.64 L1632.83,705.84 L1632.83,711.64 L1632.83,711.44 C1632.83,712.24 1633.43,712.84 1634.23,712.84 L1634.53,712.84 L1637.83,712.14 L1637.83,728.64 L1633.93,729.44 C1633.33,729.54 1632.83,730.24 1632.83,730.84 L1632.83,736.64 C1632.83,737.44 1633.43,738.04 1634.23,738.04 L1634.53,738.04 L1637.83,737.34 L1637.83,752.24 L1640.63,752.24 L1640.63,736.74 L1649.53,734.94 L1649.53,749.04 L1652.33,749.04 L1652.33,734.34 L1656.13,733.64 C1656.73,733.54 1657.23,732.84 1657.23,732.24 L1657.23,726.34 C1657.23,725.54 1656.63,724.94 1655.83,724.94 L1655.63,724.94 L1652.33,725.64 L1652.33,709.14 L1656.13,708.44 M1640.63,728.14 L1640.63,711.54 L1649.53,709.74 L1649.53,726.24 L1640.63,728.14 "/>
<path class="Accidental" d="M1789.58,720.941 C1790.18,720.841 1790.68,720.141 1790.68,719.541 L1790.68,713.641 C1790.68,712.841 1790.08,712.241 1789.28,712.241 L1789.08,712.241 L1785.78,712.941 L1785.78,698.041 L1782.98,698.041 L1782.98,713.541 L1774.08,715.341 L1774.08,701.241 L1771.28,701.241 L1771.28,715.941 L1767.38,716.741 C1766.78,716.841 1766.28,717.541 1766.28,718.141 L1766.28,718.341 L1766.28,724.141 L1766.28,723.941 C1766.28,724.741 1766.88,725.341 1767.68,725.341 L1767.98,725.341 L1771.28,724.641 L1771.28,741.141 L1767.38,741.941 C1766.78,742.041 1766.28,742.741 1766.28,743.341 L1766.28,749.141 C1766.28,749.941 1766.88,750.541 1767.68,750.541 L1767.98,750.541 L1771.28,749.841 L1771.28,764.741 L1774.08,764.741 L1774.08,749.241 L1782.98,747.441 L1782.98,761.541 L1785.78,761.541 L1785.78,746.841 L1789.58,746.141 C1790.18,746.041 1790.68,745.341 1790.68,744.741 L1790.68,738.841 C1790.68,738.041 1790.08,737.441 1789.28,737.441 L1789.08,737.441 L1785.78,738.141 L1785.78,721.641 L1789.58,720.941 M1774.08,740.641 L1774.08,724.041 L1782.98,722.241 L1782.98,738.741 L1774.08,740.641 "/>
<path class="Accidental" d="M1923.03,733.442 C1923.63,733.342 1924.13,732.642 1924.13,732.042 L1924.13,726.142 C1924.13,725.342 1923.53,724.742 1922.73,724.742 L1922.53,724.742 L1919.23,725.442 L1919.23,710.542 L1916.43,710.542 L1916.43,726.042 L1907.53,727.842 L1907.53,713.742 L1904.73,713.742 L1904.73,728.442 L1900.83,729.242 C1900.23,729.342 1899.73,730.042 1899.73,730.642 L1899.73,730.842 L1899.73,736.642 L1899.73,736.442 C1899.73,737.242 1900.33,737.842 1901.13,737.842 L1901.43,737.842 L1904.73,737.142 L1904.73,753.642 L1900.83,754.442 C1900.23,754.542 1899.73,755.242 1899.73,755.842 L1899.73,761.642 C1899.73,762.442 1900.33,763.042 1901.13,763.042 L1901.43,763.042 L1904.73,762.342 L1904.73,777.242 L1907.53,777.242 L1907.53,761.742 L1916.43,759.942 L1916.43,774.042 L1919.23,774.042 L1919.23,759.342 L1923.03,758.642 C1923.63,758.542 1924.13,757.842 1924.13,757.242 L1924.13,751.342 C1924.13,750.542 1923.53,749.942 1922.73,749.942 L1922.53,749.942 L1919.23,750.642 L1919.23,734.142 L1923.03,733.442 M1907.53,753.142 L1907.53,736.542 L1916.43,734.742 L1916.43,751.242 L1907.53,753.142 "/>
<path class="Accidental" d="M2246.84,758.443 C2247.44,758.343 2247.94,757.643 2247.94,757.043 L2247.94,751.143 C2247.94,750.343 2247.34,749.743 2246.54,749.743 L2246.34,749.743 L2243.04,750.443 L2243.04,735.543 L2240.24,735.543 L2240.24,751.043 L2231.34,752.843 L2231.34,738.743 L2228.54,738.743 L2228.54,753.443 L2224.64,754.243 C2224.04,754.343 2223.54,755.043 2223.54,755.643 L2223.54,755.843 L2223.54,761.643 L2223.54,761.443 C2223.54,762.243 2224.14,762.843 2224.94,762.843 L2225.24,762.843 L2228.54,762.143 L2228.54,778.643 L2224.64,779.443 C2224.04,779.543 2223.54,780.243 2223.54,780.843 L2223.54,786.643 C2223.54,787.443 2224.14,788.043 2224.94,788.043 L2225.24,788.043 L2228.54,787.343 L2228.54,802.243 L2231.34,802.243 L2231.34,786.743 L2240.24,784.943 L2240.24,799.043 L2243.04,799.043 L2243.04,784.343 L2246.84,783.643 C2247.44,783.543 2247.94,782.843 2247.94,782.243 L2247.94,776.343 C2247.94,775.543 2247.34,774.943 2246.54,774.943 L2246.34,774.943 L2243.04,775.643 L2243.04,759.143 L2246.84,758.443 M2231.34,778.143 L2231.34,761.543 L2240.24,759.743 L2240.24,776.243 L2231.34,778.143 "/>
<path class="Accidental" d="M2370.99,770.944 C2371.59,770.844 2372.09,770.144 2372.09,769.544 L2372.09,763.644 C2372.09,762.844 2371.49,762.244 2370.69,762.244 L2370.49,762.244 L2367.19,762.944 L2367.19,748.044 L2364.39,748.044 L2364.39,763.544 L2355.49,765.344 L2355.49,751.244 L2352.69,751.244 L2352.69,765.944 L2348.79,766.744 C2348.19,766.844 2347.69,767.544 2347.69,768.144 L2347.69,768.344 L2347.69,774.144 L2347.69,773.944 C2347.69,774.744 2348.29,775.344 2349.09,775.344 L2349.39,775.344 L2352.69,774.644 L2352.69,791.144 L2348.79,791.944 C2348.19,792.044 2347.69,792.744 2347.69,793.344 L2347.69,799.144 C2347.69,799.944 2348.29,800.544 2349.09,800.544 L2349.39,800.544 L2352.69,799.844 L2352.69,814.744 L2355.49,814.744 L2355.49,799.244 L2364.39,797.444 L2364.39,811.544 L2367.19,811.544 L2367.19,796.844 L2370.99,796.144 C2371.59,796.044 2372.09,795.344 2372.09,794.744 L2372.09,788.844 C2372.09,788.044 2371.49,787.444 2370.69,787.444 L2370.49,787.444 L2367.19,788.144 L2367.19,771.644 L2370.99,770.944 M2355.49,790.644 L2355.49,774.044 L2364.39,772.244 L2364.39,788.744 L2355.49,790.644 "/>
<polyline class="LedgerLine" fill="none" stroke="#000000" stroke-width="4.00" stroke-linejoin="bevel" points="455.002,781.544 504.998,781.544"/>
<polyline class="LedgerLine" fill="none" stroke="#000000" stroke-width="4.00" stroke-linejoin="bevel" points="593.03,781.544 643.026,781.544"/>
<polyline class="LedgerLine" fill="none" stroke="#000000" stroke-width="4.00" stroke-linejoin="bevel" points="2378.34,781.544 2428.34,781.544"/>
<polyline class="LedgerLine" fill="none" stroke="#000000" stroke-width="4.00" stroke-linejoin="bevel" points="2511.24,781.544 2561.23,781.544"/>
<polyline class="Stem" fill="none" stroke="#000000" stroke-width="2.75" stroke-linejoin="bevel" points="494.872,990.697 494.872,909.677"/>
<polyline class="Stem" fill="none" stroke="#000000" stroke-width="2.75" stroke-linejoin="bevel" points="632.9,978.196 632.9,900.301"/>
<polyline class="Stem" fill="none" stroke="#000000" stroke-width="2.75" stroke-linejoin="bevel" points="741.184,972.576 741.184,1047.19"/>
<polyline class="Stem" fill="none" stroke="#000000" stroke-width="2.75" stroke-linejoin="bevel" points="879.212,960.075 879.212,1037.81"/>
<polyline class="Stem" fill="none" stroke="#000000" stroke-width="2.75" stroke-linejoin="bevel" points="1074.14,947.574 1074.14,1028.43"/>
<polyline class="Stem" fill="none" stroke="#000000" stroke-width="2.75" stroke-linejoin="bevel" points="1207.59,935.074 1207.59,1019.06"/>
<polyline class="Stem" fill="none" stroke="#000000" stroke-width="2.75" stroke-linejoin="bevel" points="1341.05,922.573 1341.05,1006.56"/>
<polyline class="Stem" fill="none" stroke="#000000" stroke-width="2.75" stroke-linejoin="bevel" points="1474.5,910.072 1474.5,994.057"/>
<polyline class="Stem" fill="none" stroke="#000000" stroke-width="2.75" stroke-linejoin="bevel" points="1664.85,922.573 1664.85,1006.56"/>
<polyline class="Stem" fill="none" stroke="#000000" stroke-width="2.75" stroke-linejoin="bevel" points="1798.31,935.074 1798.31,1019.06"/>
<polyline class="Stem" fill="none" stroke="#000000" stroke-width="2.75" stroke-linejoin="bevel" points="1931.76,947.574 1931.76,1028.43"/>
<polyline class="Stem" fill="none" stroke="#000000" stroke-width="2.75" stroke-linejoin="bevel" points="2065.21,960.075 2065.21,1037.81"/>
<polyline class="Stem" fill="none" stroke="#000000" stroke-width="2.75" stroke-linejoin="bevel" points="2255.57,972.576 2255.57,1047.19"/>
<polyline class="Stem" fill="none" stroke="#000000" stroke-width="2.75" stroke-linejoin="bevel" points="2418.21,978.196 2418.21,900.301"/>
<polyline class="Stem" fill="none" stroke="#000000" stroke-width="2.75" stroke-linejoin="bevel" points="2551.11,990.617 2551.11,909.677"/>
<polyline class="Stem" fill="none" stroke="#000000" stroke-width="2.75" stroke-linejoin="bevel" points="494.872,790.684 494.872,706.539"/>
<polyline class="Stem" fill="none" stroke="#000000" stroke-width="2.75" stroke-linejoin="bevel" points="632.9,778.184 632.9,694.038"/>
<polyline class="Stem" fill="none" stroke="#000000" stroke-width="2.75" stroke-linejoin="bevel" points="770.928,765.683 770.928,681.538"/>
<polyline class="Stem" fill="none" stroke="#000000" stroke-width="2.75" stroke-linejoin="bevel" points="908.956,753.182 908.956,669.037"/>
<polyline class="Stem" fill="none" stroke="#000000" stroke-width="2.75" stroke-linejoin="bevel" points="1103.89,740.681 1103.89,656.536"/>
<polyline class="Stem" fill="none" stroke="#000000" stroke-width="2.75" stroke-linejoin="bevel" points="1237.34,728.181 1237.34,647.16"/>
<polyline class="Stem" fill="none" stroke="#000000" stroke-width="2.75" stroke-linejoin="bevel" points="1370.79,715.68 1370.79,637.785"/>
<polyline class="Stem" fill="none" stroke="#000000" stroke-width="2.75" stroke-linejoin="bevel" points="1474.5,710.059 1474.5,784.669"/>
<polyline class="Stem" fill="none" stroke="#000000" stroke-width="2.75" stroke-linejoin="bevel" points="1694.6,715.68 1694.6,637.785"/>
<polyline class="Stem" fill="none" stroke="#000000" stroke-width="2.75" stroke-linejoin="bevel" points="1828.05,728.181 1828.05,647.16"/>
<polyline class="Stem" fill="none" stroke="#000000" stroke-width="2.75" stroke-linejoin="bevel" points="1961.5,740.681 1961.5,656.536"/>
<polyline class="Stem" fill="none" stroke="#000000" stroke-width="2.75" stroke-linejoin="bevel" points="2094.96,753.182 2094.96,669.037"/>
<polyline class="Stem" fill="none" stroke="#000000" stroke-width="2.75" stroke-linejoin="bevel" points="2285.31,765.683 2285.31,681.538"/>
<polyline class="Stem" fill="none" stroke="#000000" stroke-width="2.75" stroke-linejoin="bevel" points="2418.21,778.184 2418.21,694.038"/>
<polyline class="Stem" fill="none" stroke="#000000" stroke-width="2.75" stroke-linejoin="bevel" points="2551.11,790.604 2551.11,706.539"/>
<path class="Note" d="M495.253,985.857 C493.753,983.157 490.853,981.457 486.953,981.057 C486.353,980.957 485.853,980.957 485.253,980.957 C481.753,980.957 477.953,981.957 474.453,983.857 C467.853,987.457 463.753,993.357 463.753,998.457 C463.753,999.857 463.953,1001.16 464.653,1002.36 C466.153,1005.06 469.153,1006.76 473.053,1007.16 C473.653,1007.26 474.153,1007.26 474.753,1007.26 C478.253,1007.26 481.953,1006.26 485.453,1004.36 C492.053,1000.76 496.253,994.957 496.253,989.857 C496.253,988.457 495.953,987.057 495.253,985.857"/>
<path class="Note" d="M633.281,973.356 C631.781,970.656 628.881,968.956 624.981,968.556 C624.381,968.456 623.881,968.456 623.281,968.456 C619.781,968.456 615.981,969.456 612.481,971.356 C605.881,974.956 601.781,980.856 601.781,985.956 C601.781,987.356 601.981,988.656 602.681,989.856 C604.181,992.556 607.181,994.256 611.081,994.656 C611.681,994.756 612.181,994.756 612.781,994.756 C616.281,994.756 619.981,993.756 623.481,991.856 C630.081,988.256 634.281,982.456 634.281,977.356 C634.281,975.956 633.981,974.556 633.281,973.356"/>
<path class="Note" d="M771.309,960.856 C769.809,958.156 766.909,956.456 763.009,956.056 C762.409,955.956 761.909,955.956 761.309,955.956 C757.809,955.956 754.009,956.956 750.509,958.856 C743.909,962.456 739.809,968.356 739.809,973.456 C739.809,974.856 740.009,976.156 740.709,977.356 C742.209,980.056 745.209,981.756 749.109,982.156 C749.709,982.256 750.209,982.256 750.809,982.256 C754.309,982.256 758.009,981.256 761.509,979.356 C768.109,975.756 772.309,969.956 772.309,964.856 C772.309,963.456 772.009,962.056 771.309,960.856"/>
<path class="Note" d="M909.336,948.355 C907.836,945.655 904.936,943.955 901.036,943.555 C900.436,943.455 899.936,943.455 899.336,943.455 C895.836,943.455 892.036,944.455 888.536,946.355 C881.936,949.955 877.836,955.855 877.836,960.955 C877.836,962.355 878.036,963.655 878.736,964.855 C880.236,967.555 883.236,969.255 887.136,969.655 C887.736,969.755 888.236,969.755 888.836,969.755 C892.336,969.755 896.036,968.755 899.536,966.855 C906.136,963.255 910.336,957.455 910.336,952.355 C910.336,950.955 910.036,949.555 909.336,948.355"/>
<path class="Note" d="M1104.27,935.854 C1102.77,933.154 1099.87,931.454 1095.97,931.054 C1095.37,930.954 1094.87,930.954 1094.27,930.954 C1090.77,930.954 1086.97,931.954 1083.47,933.854 C1076.87,937.454 1072.77,943.354 1072.77,948.454 C1072.77,949.854 1072.97,951.154 1073.67,952.354 C1075.17,955.054 1078.17,956.754 1082.07,957.154 C1082.67,957.254 1083.17,957.254 1083.77,957.254 C1087.27,957.254 1090.97,956.254 1094.47,954.354 C1101.07,950.754 1105.27,944.954 1105.27,939.854 C1105.27,938.454 1104.97,937.054 1104.27,935.854"/>
<path class="Note" d="M1237.72,923.353 C1236.22,920.653 1233.32,918.953 1229.42,918.553 C1228.82,918.453 1228.32,918.453 1227.72,918.453 C1224.22,918.453 1220.42,919.453 1216.92,921.353 C1210.32,924.953 1206.22,930.853 1206.22,935.953 C1206.22,937.353 1206.42,938.653 1207.12,939.853 C1208.62,942.553 1211.62,944.253 1215.52,944.653 C1216.12,944.753 1216.62,944.753 1217.22,944.753 C1220.72,944.753 1224.42,943.753 1227.92,941.853 C1234.52,938.253 1238.72,932.453 1238.72,927.353 C1238.72,925.953 1238.42,924.553 1237.72,923.353"/>
<path class="Note" d="M1371.17,910.853 C1369.67,908.153 1366.77,906.453 1362.87,906.053 C1362.27,905.953 1361.77,905.953 1361.17,905.953 C1357.67,905.953 1353.87,906.953 1350.37,908.853 C1343.77,912.453 1339.67,918.353 1339.67,923.453 C1339.67,924.853 1339.87,926.153 1340.57,927.353 C1342.07,930.053 1345.07,931.753 1348.97,932.153 C1349.57,932.253 1350.07,932.253 1350.67,932.253 C1354.17,932.253 1357.87,931.253 1361.37,929.353 C1367.97,925.753 1372.17,919.953 1372.17,914.853 C1372.17,913.453 1371.87,912.053 1371.17,910.853"/>
<path class="Note" d="M1504.62,898.352 C1503.12,895.652 1500.22,893.952 1496.32,893.552 C1495.72,893.452 1495.22,893.452 1494.62,893.452 C1491.12,893.452 1487.32,894.452 1483.82,896.352 C1477.22,899.952 1473.12,905.852 1473.12,910.952 C1473.12,912.352 1473.32,913.652 1474.02,914.852 C1475.52,917.552 1478.52,919.252 1482.42,919.652 C1483.02,919.752 1483.52,919.752 1484.12,919.752 C1487.62,919.752 1491.32,918.752 1494.82,916.852 C1501.42,913.252 1505.62,907.452 1505.62,902.352 C1505.62,900.952 1505.32,899.552 1504.62,898.352"/>
<path class="Note" d="M1694.98,910.853 C1693.48,908.153 1690.58,906.453 1686.68,906.053 C1686.08,905.953 1685.58,905.953 1684.98,905.953 C1681.48,905.953 1677.68,906.953 1674.18,908.853 C1667.58,912.453 1663.48,918.353 1663.48,923.453 C1663.48,924.853 1663.68,926.153 1664.38,927.353 C1665.88,930.053 1668.88,931.753 1672.78,932.153 C1673.38,932.253 1673.88,932.253 1674.48,932.253 C1677.98,932.253 1681.68,931.253 1685.18,929.353 C1691.78,925.753 1695.98,919.953 1695.98,914.853 C1695.98,913.453 1695.68,912.053 1694.98,910.853"/>
<path class="Note" d="M1828.43,923.353 C1826.93,920.653 1824.03,918.953 1820.13,918.553 C1819.53,918.453 1819.03,918.453 1818.43,918.453 C1814.93,918.453 1811.13,919.453 1807.63,921.353 C1801.03,924.953 1796.93,930.853 1796.93,935.953 C1796.93,937.353 1797.13,938.653 1797.83,939.853 C1799.33,942.553 1802.33,944.253 1806.23,944.653 C1806.83,944.753 1807.33,944.753 1807.93,944.753 C1811.43,944.753 1815.13,943.753 1818.63,941.853 C1825.23,938.253 1829.43,932.453 1829.43,927.353 C1829.43,925.953 1829.13,924.553 1828.43,923.353"/>
<path class="Note" d="M1961.88,935.854 C1960.38,933.154 1957.48,931.454 1953.58,931.054 C1952.98,930.954 1952.48,930.954 1951.88,930.954 C1948.38,930.954 1944.58,931.954 1941.08,933.854 C1934.48,937.454 1930.38,943.354 1930.38,948.454 C1930.38,949.854 1930.58,951.154 1931.28,952.354 C1932.78,955.054 1935.78,956.754 1939.68,957.154 C1940.28,957.254 1940.78,957.254 1941.38,957.254 C1944.88,957.254 1948.58,956.254 1952.08,954.354 C1958.68,950.754 1962.88,944.954 1962.88,939.854 C1962.88,938.454 1962.58,937.054 1961.88,935.854"/>
<path class="Note" d="M2095.34,948.355 C2093.84,945.655 2090.94,943.955 2087.04,943.555 C2086.44,943.455 2085.94,943.455 2085.34,943.455 C2081.84,943.455 2078.04,944.455 2074.54,946.355 C2067.94,949.955 2063.84,955.855 2063.84,960.955 C2063.84,962.355 2064.04,963.655 2064.74,964.855 C2066.24,967.555 2069.24,969.255 2073.14,969.655 C2073.74,969.755 2074.24,969.755 2074.84,969.755 C2078.34,969.755 2082.04,968.755 2085.54,966.855 C2092.14,963.255 2096.34,957.455 2096.34,952.355 C2096.34,950.955 2096.04,949.555 2095.34,948.355"/>
<path class="Note" d="M2285.69,960.856 C2284.19,958.156 2281.29,956.456 2277.39,956.056 C2276.79,955.956 2276.29,955.956 2275.69,955.956 C2272.19,955.956 2268.39,956.956 2264.89,958.856 C2258.29,962.456 2254.19,968.356 2254.19,973.456 C2254.19,974.856 2254.39,976.156 2255.09,977.356 C2256.59,980.056 2259.59,981.756 2263.49,982.156 C2264.09,982.256 2264.59,982.256 2265.19,982.256 C2268.69,982.256 2272.39,981.256 2275.89,979.356 C2282.49,975.756 2286.69,969.956 2286.69,964.856 C2286.69,963.456 2286.39,962.056 2285.69,960.856"/>
<path class="Note" d="M2418.59,973.356 C2417.09,970.656 2414.19,968.956 2410.29,968.556 C2409.69,968.456 2409.19,968.456 2408.59,968.456 C2405.09,968.456 2401.29,969.456 2397.79,971.356 C2391.19,974.956 2387.09,980.856 2387.09,985.956 C2387.09,987.356 2387.29,988.656 2387.99,989.856 C2389.49,992.556 2392.49,994.256 2396.39,994.656 C2396.99,994.756 2397.49,994.756 2398.09,994.756 C2401.59,994.756 2405.29,993.756 2408.79,991.856 C2415.39,988.256 2419.59,982.456 2419.59,977.356 C2419.59,975.956 2419.29,974.556 2418.59,973.356"/>
<path class="Note" d="M2551.49,985.857 C2549.99,983.157 2547.09,981.457 2543.19,981.057 C2542.59,980.957 2542.09,980.957 2541.49,980.957 C2537.99,980.957 2534.19,981.957 2530.69,983.857 C2524.09,987.457 2519.99,993.257 2519.99,998.357 C2519.99,999.757 2520.39,1001.16 2521.09,1002.36 C2522.59,1005.16 2525.39,1006.76 2529.29,1007.16 C2529.89,1007.26 2530.39,1007.26 2530.99,1007.26 C2534.49,1007.26 2538.29,1006.26 2541.79,1004.36 C2548.39,1000.76 2552.49,994.857 2552.49,989.757 C2552.49,988.357 2552.19,987.057 2551.49,985.857 M2547.29,992.157 C2545.59,993.957 2542.39,996.257 2538.79,998.357 C2535.19,1000.46 2531.49,1002.16 2529.19,1002.86 C2528.69,1002.96 2528.09,1003.06 2527.59,1003.06 C2526.09,1003.06 2524.79,1002.36 2524.09,1001.26 C2523.79,1000.66 2523.59,1000.06 2523.59,999.457 C2523.59,998.357 2524.09,997.257 2525.19,996.057 C2526.89,994.257 2530.09,991.857 2533.69,989.757 C2537.29,987.657 2540.99,985.957 2543.39,985.357 L2543.59,985.357 C2544.19,985.157 2544.69,985.057 2545.19,985.057 C2546.59,985.057 2547.69,985.657 2548.39,986.957 C2548.69,987.557 2548.89,988.057 2548.89,988.657 C2548.89,989.957 2548.19,991.257 2547.29,992.157"/>
<path class="Note" d="M495.253,785.845 C493.753,783.145 490.853,781.445 486.953,781.045 C486.353,780.945 485.853,780.945 485.253,780.945 C481.753,780.945 477.953,781.945 474.453,783.845 C467.853,787.445 463.753,793.345 463.753,798.445 C463.753,799.845 463.953,801.145 464.653,802.345 C466.153,805.045 469.153,806.745 473.053,807.145 C473.653,807.245 474.153,807.245 474.753,807.245 C478.253,807.245 481.953,806.245 485.453,804.345 C492.053,800.745 496.253,794.945 496.253,789.845 C496.253,788.445 495.953,787.045 495.253,785.845"/>
<path class="Note" d="M633.281,773.344 C631.781,770.644 628.881,768.944 624.981,768.544 C624.381,768.444 623.881,768.444 623.281,768.444 C619.781,768.444 615.981,769.444 612.481,771.344 C605.881,774.944 601.781,780.844 601.781,785.944 C601.781,787.344 601.981,788.644 602.681,789.844 C604.181,792.544 607.181,794.244 611.081,794.644 C611.681,794.744 612.181,794.744 612.781,794.744 C616.281,794.744 619.981,793.744 623.481,791.844 C630.081,788.244 634.281,782.444 634.281,777.344 C634.281,775.944 633.981,774.544 633.281,773.344"/>
<path class="Note" d="M771.309,760.843 C769.809,758.143 766.909,756.443 763.009,756.043 C762.409,755.943 761.909,755.943 761.309,755.943 C757.809,755.943 754.009,756.943 750.509,758.843 C743.909,762.443 739.809,768.343 739.809,773.443 C739.809,774.843 740.009,776.143 740.709,777.343 C742.209,780.043 745.209,781.743 749.109,782.143 C749.709,782.243 750.209,782.243 750.809,782.243 C754.309,782.243 758.009,781.243 761.509,779.343 C768.109,775.743 772.309,769.943 772.309,764.843 C772.309,763.443 772.009,762.043 771.309,760.843"/>
<path class="Note" d="M909.336,748.342 C907.836,745.642 904.936,743.942 901.036,743.542 C900.436,743.442 899.936,743.442 899.336,743.442 C895.836,743.442 892.036,744.442 888.536,746.342 C881.936,749.942 877.836,755.842 877.836,760.942 C877.836,762.342 878.036,763.642 878.736,764.842 C880.236,767.542 883.236,769.242 887.136,769.642 C887.736,769.742 888.236,769.742 888.836,769.742 C892.336,769.742 896.036,768.742 899.536,766.842 C906.136,763.242 910.336,757.442 910.336,752.342 C910.336,750.942 910.036,749.542 909.336,748.342"/>
<path class="Note" d="M1104.27,735.842 C1102.77,733.142 1099.87,731.442 1095.97,731.042 C1095.37,730.942 1094.87,730.942 1094.27,730.942 C1090.77,730.942 1086.97,731.942 1083.47,733.842 C1076.87,737.442 1072.77,743.342 1072.77,748.442 C1072.77,749.842 1072.97,751.142 1073.67,752.342 C1075.17,755.042 1078.17,756.742 1082.07,757.142 C1082.67,757.242 1083.17,757.242 1083.77,757.242 C1087.27,757.242 1090.97,756.242 1094.47,754.342 C1101.07,750.742 1105.27,744.942 1105.27,739.842 C1105.27,738.442 1104.97,737.042 1104.27,735.842"/>
<path class="Note" d="M1237.72,723.341 C1236.22,720.641 1233.32,718.941 1229.42,718.541 C1228.82,718.441 1228.32,718.441 1227.72,718.441 C1224.22,718.441 1220.42,719.441 1216.92,721.341 C1210.32,724.941 1206.22,730.841 1206.22,735.941 C1206.22,737.341 1206.42,738.641 1207.12,739.841 C1208.62,742.541 1211.62,744.241 1215.52,744.641 C1216.12,744.741 1216.62,744.741 1217.22,744.741 C1220.72,744.741 1224.42,743.741 1227.92,741.841 C1234.52,738.241 1238.72,732.441 1238.72,727.341 C1238.72,725.941 1238.42,724.541 1237.72,723.341"/>
<path class="Note" d="M1371.17,710.84 C1369.67,708.14 1366.77,706.44 1362.87,706.04 C1362.27,705.94 1361.77,705.94 1361.17,705.94 C1357.67,705.94 1353.87,706.94 1350.37,708.84 C1343.77,712.44 1339.67,718.34 1339.67,723.44 C1339.67,724.84 1339.87,726.14 1340.57,727.34 C1342.07,730.04 1345.07,731.74 1348.97,732.14 C1349.57,732.24 1350.07,732.24 1350.67,732.24 C1354.17,732.24 1357.87,731.24 1361.37,729.34 C1367.97,725.74 1372.17,719.94 1372.17,714.84 C1372.17,713.44 1371.87,712.04 1371.17,710.84"/>
<path class="Note" d="M1504.62,698.339 C1503.12,695.639 1500.22,693.939 1496.32,693.539 C1495.72,693.439 1495.22,693.439 1494.62,693.439 C1491.12,693.439 1487.32,694.439 1483.82,696.339 C1477.22,699.939 1473.12,705.839 1473.12,710.939 C1473.12,712.339 1473.32,713.639 1474.02,714.839 C1475.52,717.539 1478.52,719.239 1482.42,719.639 C1483.02,719.739 1483.52,719.739 1484.12,719.739 C1487.62,719.739 1491.32,718.739 1494.82,716.839 C1501.42,713.239 1505.62,707.439 1505.62,702.339 C1505.62,700.939 1505.32,699.539 1504.62,698.339"/>
<path class="Note" d="M1694.98,710.84 C1693.48,708.14 1690.58,706.44 1686.68,706.04 C1686.08,705.94 1685.58,705.94 1684.98,705.94 C1681.48,705.94 1677.68,706.94 1674.18,708.84 C1667.58,712.44 1663.48,718.34 1663.48,723.44 C1663.48,724.84 1663.68,726.14 1664.38,727.34 C1665.88,730.04 1668.88,731.74 1672.78,732.14 C1673.38,732.24 1673.88,732.24 1674.48,732.24 C1677.98,732.24 1681.68,731.24 1685.18,729.34 C1691.78,725.74 1695.98,719.94 1695.98,714.84 C1695.98,713.44 1695.68,712.04 1694.98,710.84"/>
<path class="Note" d="M1828.43,723.341 C1826.93,720.641 1824.03,718.941 1820.13,718.541 C1819.53,718.441 1819.03,718.441 1818.43,718.441 C1814.93,718.441 1811.13,719.441 1807.63,721.341 C1801.03,724.941 1796.93,730.841 1796.93,735.941 C1796.93,737.341 1797.13,738.641 1797.83,739.841 C1799.33,742.541 1802.33,744.241 1806.23,744.641 C1806.83,744.741 1807.33,744.741 1807.93,744.741 C1811.43,744.741 1815.13,743.741 1818.63,741.841 C1825.23,738.241 1829.43,732.441 1829.43,727.341 C1829.43,725.941 1829.13,724.541 1828.43,723.341"/>
<path class="Note" d="M1961.88,735.842 C1960.38,733.142 1957.48,731.442 1953.58,731.042 C1952.98,730.942 1952.48,730.942 1951.88,730.942 C1948.38,730.942 1944.58,731.942 1941.08,733.842 C1934.48,737.442 1930.38,743.342 1930.38,748.442 C1930.38,749.842 1930.58,751.142 1931.28,752.342 C1932.78,755.042 1935.78,756.742 1939.68,757.142 C1940.28,757.242 1940.78,757.242 1941.38,757.242 C1944.88,757.242 1948.58,756.242 1952.08,754.342 C1958.68,750.742 1962.88,744.942 1962.88,739.842 C1962.88,738.442 1962.58,737.042 1961.88,735.842"/>
<path class="Note" d="M2095.34,748.342 C2093.84,745.642 2090.94,743.942 2087.04,743.542 C2086.44,743.442 2085.94,743.442 2085.34,743.442 C2081.84,743.442 2078.04,744.442 2074.54,746.342 C2067.94,749.942 2063.84,755.842 2063.84,760.942 C2063.84,762.342 2064.04,763.642 2064.74,764.842 C2066.24,767.542 2069.24,769.242 2073.14,769.642 C2073.74,769.742 2074.24,769.742 2074.84,769.742 C2078.34,769.742 2082.04,768.742 2085.54,766.842 C2092.14,763.242 2096.34,757.442 2096.34,752.342 C2096.34,750.942 2096.04,749.542 2095.34,748.342"/>
<path class="Note" d="M2285.69,760.843 C2284.19,758.143 2281.29,756.443 2277.39,756.043 C2276.79,755.943 2276.29,755.943 2275.69,755.943 C2272.19,755.943 2268.39,756.943 2264.89,758.843 C2258.29,762.443 2254.19,768.343 2254.19,773.443 C2254.19,774.843 2254.39,776.143 2255.09,777.343 C2256.59,780.043 2259.59,781.743 2263.49,782.143 C2264.09,782.243 2264.59,782.243 2265.19,782.243 C2268.69,782.243 2272.39,781.243 2275.89,779.343 C2282.49,775.743 2286.69,769.943 2286.69,764.843 C2286.69,763.443 2286.39,762.043 2285.69,760.843"/>
<path class="Note" d="M2418.59,773.344 C2417.09,770.644 2414.19,768.944 2410.29,768.544 C2409.69,768.444 2409.19,768.444 2408.59,768.444 C2405.09,768.444 2401.29,769.444 2397.79,771.344 C2391.19,774.944 2387.09,780.844 2387.09,785.944 C2387.09,787.344 2387.29,788.644 2387.99,789.844 C2389.49,792.544 2392.49,794.244 2396.39,794.644 C2396.99,794.744 2397.49,794.744 2398.09,794.744 C2401.59,794.744 2405.29,793.744 2408.79,791.844 C2415.39,788.244 2419.59,782.444 2419.59,777.344 C2419.59,775.944 2419.29,774.544 2418.59,773.344"/>
<path class="Note" d="M2551.49,785.845 C2549.99,783.145 2547.09,781.445 2543.19,781.045 C2542.59,780.945 2542.09,780.945 2541.49,780.945 C2537.99,780.945 2534.19,781.945 2530.69,783.845 C2524.09,787.445 2519.99,793.245 2519.99,798.345 C2519.99,799.745 2520.39,801.145 2521.09,802.345 C2522.59,805.145 2525.39,806.745 2529.29,807.145 C2529.89,807.245 2530.39,807.245 2530.99,807.245 C2534.49,807.245 2538.29,806.245 2541.79,804.345 C2548.39,800.745 2552.49,794.845 2552.49,789.745 C2552.49,788.345 2552.19,787.045 2551.49,785.845 M2547.29,792.145 C2545.59,793.945 2542.39,796.245 2538.79,798.345 C2535.19,800.445 2531.49,802.145 2529.19,802.845 C2528.69,802.945 2528.09,803.045 2527.59,803.045 C2526.09,803.045 2524.79,802.345 2524.09,801.245 C2523.79,800.645 2523.59,800.045 2523.59,799.445 C2523.59,798.345 2524.09,797.245 2525.19,796.045 C2526.89,794.245 2530.09,791.845 2533.69,789.745 C2537.29,787.645 2540.99,785.945 2543.39,785.345 L2543.59,785.345 C2544.19,785.145 2544.69,785.045 2545.19,785.045 C2546.59,785.045 2547.69,785.645 2548.39,786.945 C2548.69,787.545 2548.89,788.045 2548.89,788.645 C2548.89,789.945 2548.19,791.245 2547.29,792.145"/>
<path class="Clef" d="M297,918.954 C289.4,918.954 283.3,923.354 283.2,923.354 C277.4,927.654 275.1,932.754 274.2,936.254 C273.7,938.054 273.5,939.854 273.5,941.554 C273.5,943.954 273.9,946.154 274.8,948.054 C276,950.754 278.3,952.654 281.3,953.654 C282.5,954.054 283.8,954.254 285.1,954.254 C287.3,954.254 289.6,953.654 291.5,952.554 C294.6,950.854 296.5,947.254 296.5,943.354 C296.5,939.854 294.7,936.654 291.7,934.754 C289.6,933.354 287.6,932.954 285.9,932.954 C284.7,932.954 283.6,933.154 282.7,933.454 C281.7,933.854 280,934.854 279.2,935.554 C279.5,933.654 280.7,930.754 281.8,929.154 C282.9,927.554 285.1,925.554 286.8,924.654 C289.3,923.254 292.5,922.654 296,922.654 C306.2,922.654 311.2,930.854 311.2,947.654 C311.2,956.954 307.7,965.854 304.7,971.754 C301.4,978.354 297,984.654 293.1,988.154 C282.7,997.654 272.9,1002.15 272.8,1002.15 C272.8,1002.15 271.3,1003.05 271.7,1004.55 C272,1005.55 272.9,1005.75 273.5,1005.75 C273.6,1005.75 273.9,1005.65 274,1005.65 C274.1,1005.65 285.5,1000.95 294.6,993.854 C299.7,990.154 304.3,986.154 308.3,981.854 C311.9,977.954 315,973.754 317.5,969.554 C321.9,962.054 324.4,954.254 324.4,947.554 C324.4,939.254 322.2,932.354 318.1,927.454 C313.4,921.854 306.3,918.954 297,918.954 M328.4,931.654 C328.4,934.454 330.6,936.654 333.2,936.654 C335.8,936.654 338,934.454 338,931.654 C338,928.854 335.8,926.554 333.2,926.554 C330.6,926.554 328.4,928.854 328.4,931.654 M328.4,956.354 C328.4,959.154 330.6,961.454 333.2,961.454 C335.8,961.454 338,959.154 338,956.354 C338,953.554 335.8,951.254 333.2,951.254 C330.6,951.254 328.4,953.554 328.4,956.354"/>
<path class="Clef" d="M335,725.641 C333.8,720.241 331.1,716.341 330.3,715.341 C327.1,711.041 323.1,708.241 318.4,706.841 C316.1,706.141 314,705.941 312,705.941 C311.3,705.941 310.6,705.941 309.9,706.041 C308.9,700.041 307.8,694.141 306.9,688.741 C312.5,682.541 316.2,676.641 318.6,672.241 C322.2,665.541 323.6,660.841 323.7,660.641 C324.9,657.641 325.6,653.841 325.6,649.341 C325.6,646.641 325.3,643.741 324.9,640.741 C323.8,633.641 321.6,626.941 319.1,623.241 C317.8,621.341 316.6,620.241 315.4,620.241 C314.2,620.241 311.7,621.441 308.8,624.241 C306.5,626.441 303.2,630.341 300.6,636.341 C298.3,641.741 297.6,648.641 297.6,654.541 C297.6,656.341 297.7,658.041 297.8,659.641 C298,663.241 298.7,669.041 299.3,672.641 C299.3,672.741 299.6,674.241 300,676.841 L299.3,677.541 C298.3,678.541 297.1,679.641 295.7,681.041 C294.8,681.941 293.9,682.741 292.9,683.741 C284.4,691.941 271.6,704.341 271.6,723.441 C271.6,728.141 272.5,732.541 274.3,736.541 C275.9,740.141 278.2,743.441 281.1,746.341 C288.6,753.741 298.8,756.941 305.9,756.941 L306.5,756.941 C309.4,756.841 312.1,756.541 314.5,756.141 C316.3,765.741 317.5,772.841 317.5,778.141 C317.5,784.641 315.9,788.541 312,791.341 C309.6,793.041 306.7,794.141 303.6,794.241 L302.8,794.241 C301.3,794.241 298.8,793.841 297.3,793.441 C297.3,793.441 297,793.341 297,793.141 C297,792.941 297.4,792.941 297.4,792.941 C299.3,792.541 302.9,791.241 305.3,787.941 C306.4,786.441 307.1,784.141 307.1,781.641 C307.1,780.041 306.8,778.341 306.1,776.841 C305,774.441 302.4,771.441 296.8,771.041 L295.7,771.041 C293.6,771.041 291.8,771.541 290.1,772.541 C288.3,773.641 286.7,775.341 285.7,777.341 C284.6,779.341 284.1,781.541 284.1,783.741 C284.1,786.641 285,789.341 286.8,791.541 C289.8,795.141 294.5,797.441 299.9,798.041 C300.6,798.141 301.7,798.241 302.4,798.241 C306.8,798.241 311.2,797.041 314.8,794.841 C318.5,792.241 320.6,788.241 321.3,782.641 C321.5,781.341 321.5,779.941 321.5,778.441 C321.5,774.541 321,769.841 320,764.041 C319.6,761.941 319.2,758.941 318.5,755.141 C324.3,753.241 328.4,749.541 332.2,743.741 C334.5,739.741 335.6,735.641 335.6,731.341 C335.6,729.441 335.4,727.541 335,725.641 M304.8,647.741 C306.6,642.041 309.3,638.641 311.3,636.941 C313.1,635.441 314.7,634.741 315.6,634.741 C315.7,634.741 315.9,634.841 316,634.841 C316.3,634.941 316.7,635.441 317.1,636.141 C318,637.941 318.9,641.241 318.9,644.941 C318.9,646.841 318.7,648.841 318.1,650.641 C315.9,657.441 311.3,664.741 304.3,672.441 C304.1,671.341 303.9,670.341 303.8,669.341 C303.3,666.141 303,662.941 303,660.041 C303,655.541 303.6,651.441 304.8,647.741 M300.8,751.841 C296.2,750.641 291.7,748.141 287.9,744.641 C286.6,743.441 284.8,741.241 283.3,737.841 C282,734.841 281.3,731.741 281.3,728.341 L281.3,727.641 C281.4,722.941 282.7,718.141 285.2,713.341 C288.1,707.741 292.6,702.241 298.7,696.941 C300.2,695.641 301.6,694.341 302.9,693.041 C303.7,697.341 304.4,702.041 305.3,706.941 C301.4,708.241 296.7,711.241 293.6,716.941 C291.2,721.441 290.5,725.341 290.5,728.541 C290.5,730.041 290.7,731.441 290.9,732.541 C291.8,737.041 294.4,740.741 297.9,742.841 C298.7,743.341 302,745.041 304,745.041 C304.3,745.041 304.6,745.041 304.8,744.941 C305.1,744.841 305.4,744.641 305.5,744.341 C305.6,744.141 305.6,743.941 305.6,743.741 C305.6,742.941 304.8,742.341 303.5,741.541 C302.9,741.141 302.2,740.741 301.5,740.241 C298.9,738.241 297.4,735.141 297.4,731.741 C297.4,730.741 297.6,729.841 297.8,728.841 C298.3,726.841 300,724.041 301.5,722.641 C303.2,721.141 305.2,719.941 307.6,719.341 C309.6,730.541 311.7,741.641 313.3,750.041 C313.4,750.741 313.6,751.441 313.7,752.141 C311.7,752.541 309.7,752.741 307.8,752.741 C305.4,752.741 303.1,752.441 300.8,751.841 M326.5,741.641 C325.3,744.841 322.8,748.841 317.7,750.941 C317.6,750.541 317.6,750.041 317.5,749.641 C316,740.841 314.1,729.941 312.1,718.641 L313.1,718.641 C322.8,718.641 326.7,725.841 327.6,730.441 C327.8,731.341 327.9,732.541 327.9,733.841 C327.9,736.141 327.5,738.941 326.5,741.641"/>
<path class="TimeSig" d="M365.2,957.453 L382,957.453 L382,964.753 L373.9,964.753 C373.1,964.753 372.5,965.353 372.5,966.153 L372.5,968.053 C372.5,968.853 373.1,969.353 373.9,969.353 L403.6,969.353 C404.4,969.353 405,968.853 405,968.053 L405,966.153 C405,965.353 404.4,964.753 403.6,964.753 L394.8,964.753 L394.8,957.453 L403.6,957.453 C404.4,957.453 405,956.853 405,956.053 L405,954.253 C405,953.453 404.4,952.853 403.6,952.853 L394.8,952.853 L394.8,937.153 C394.8,936.653 394.4,936.153 394,935.953 L392.9,935.353 C392.7,935.253 392.4,935.253 392.2,935.253 C391.9,935.253 391.5,935.353 391.3,935.553 L382.4,943.753 C382.2,943.953 382,944.453 382,944.753 L382,952.853 L370.7,952.853 C370.7,952.853 381.6,941.053 393.2,925.553 C394,924.453 393.6,923.453 393.4,923.253 L391.3,921.053 C391.1,920.853 390.6,920.653 390.3,920.653 L375.7,920.653 C375,920.653 374.5,921.253 374.4,921.853 C374.4,921.853 373.9,929.053 371.3,937.053 C368.7,945.053 365.9,949.853 363.3,953.453 C363.3,953.453 362.8,954.453 363.1,955.153 C363.4,955.853 364.1,956.953 364.1,956.953 C364.1,956.953 364.4,957.453 365.2,957.453"/>
<path class="TimeSig" d="M365.2,1006.06 L382,1006.06 L382,1013.36 L373.9,1013.36 C373.1,1013.36 372.5,1013.96 372.5,1014.76 L372.5,1016.66 C372.5,1017.46 373.1,1017.96 373.9,1017.96 L403.6,1017.96 C404.4,1017.96 405,1017.46 405,1016.66 L405,1014.76 C405,1013.96 404.4,1013.36 403.6,1013.36 L394.8,1013.36 L394.8,1006.06 L403.6,1006.06 C404.4,1006.06 405,1005.46 405,1004.66 L405,1002.86 C405,1002.06 404.4,1001.46 403.6,1001.46 L394.8,1001.46 L394.8,985.758 C394.8,985.258 394.4,984.758 394,984.558 L392.9,983.958 C392.7,983.858 392.4,983.858 392.2,983.858 C391.9,983.858 391.5,983.958 391.3,984.158 L382.4,992.358 C382.2,992.558 382,993.058 382,993.358 L382,1001.46 L370.7,1001.46 C370.7,1001.46 381.6,989.658 393.2,974.158 C394,973.058 393.6,972.058 393.4,971.858 L391.3,969.658 C391.1,969.458 390.6,969.258 390.3,969.258 L375.7,969.258 C375,969.258 374.5,969.858 374.4,970.458 C374.4,970.458 373.9,977.658 371.3,985.658 C368.7,993.658 365.9,998.458 363.3,1002.06 C363.3,1002.06 362.8,1003.06 363.1,1003.76 C363.4,1004.46 364.1,1005.56 364.1,1005.56 C364.1,1005.56 364.4,1006.06 365.2,1006.06"/>
<path class="TimeSig" d="M365.2,694.937 L382,694.937 L382,702.237 L373.9,702.237 C373.1,702.237 372.5,702.837 372.5,703.637 L372.5,705.537 C372.5,706.337 373.1,706.837 373.9,706.837 L403.6,706.837 C404.4,706.837 405,706.337 405,705.537 L405,703.637 C405,702.837 404.4,702.237 403.6,702.237 L394.8,702.237 L394.8,694.937 L403.6,694.937 C404.4,694.937 405,694.337 405,693.537 L405,691.737 C405,690.937 404.4,690.337 403.6,690.337 L394.8,690.337 L394.8,674.637 C394.8,674.137 394.4,673.637 394,673.437 L392.9,672.837 C392.7,672.737 392.4,672.737 392.2,672.737 C391.9,672.737 391.5,672.837 391.3,673.037 L382.4,681.237 C382.2,681.437 382,681.937 382,682.237 L382,690.337 L370.7,690.337 C370.7,690.337 381.6,678.537 393.2,663.037 C394,661.937 393.6,660.937 393.4,660.737 L391.3,658.537 C391.1,658.337 390.6,658.137 390.3,658.137 L375.7,658.137 C375,658.137 374.5,658.737 374.4,659.337 C374.4,659.337 373.9,666.537 371.3,674.537 C368.7,682.537 365.9,687.337 363.3,690.937 C363.3,690.937 362.8,691.937 363.1,692.637 C363.4,693.337 364.1,694.437 364.1,694.437 C364.1,694.437 364.4,694.937 365.2,694.937"/>
<path class="TimeSig" d="M365.2,743.541 L382,743.541 L382,750.841 L373.9,750.841 C373.1,750.841 372.5,751.441 372.5,752.241 L372.5,754.141 C372.5,754.941 373.1,755.441 373.9,755.441 L403.6,755.441 C404.4,755.441 405,754.941 405,754.141 L405,752.241 C405,751.441 404.4,750.841 403.6,750.841 L394.8,750.841 L394.8,743.541 L403.6,743.541 C404.4,743.541 405,742.941 405,742.141 L405,740.341 C405,739.541 404.4,738.941 403.6,738.941 L394.8,738.941 L394.8,723.241 C394.8,722.741 394.4,722.241 394,722.041 L392.9,721.441 C392.7,721.341 392.4,721.341 392.2,721.341 C391.9,721.341 391.5,721.441 391.3,721.641 L382.4,729.841 C382.2,730.041 382,730.541 382,730.841 L382,738.941 L370.7,738.941 C370.7,738.941 381.6,727.141 393.2,711.641 C394,710.541 393.6,709.541 393.4,709.341 L391.3,707.141 C391.1,706.941 390.6,706.741 390.3,706.741 L375.7,706.741 C375,706.741 374.5,707.341 374.4,707.941 C374.4,707.941 373.9,715.141 371.3,723.141 C368.7,731.141 365.9,735.941 363.3,739.541 C363.3,739.541 362.8,740.541 363.1,741.241 C363.4,741.941 364.1,743.041 364.1,743.041 C364.1,743.041 364.4,743.541 365.2,743.541"/>
<path class="Page" d="M217.604,4050.77 C218.054,4045.14 218.279,4043.66 219.269,4041.36 C220.574,4038.17 222.959,4036.32 225.794,4036.32 C227.369,4036.32 228.314,4036.82 228.314,4037.63 C228.314,4037.81 228.269,4037.94 228.089,4038.26 C227.639,4039.11 227.414,4039.79 227.414,4040.42 C227.414,4041.9 228.584,4043.03 230.159,4043.03 C231.914,4043.03 233.129,4041.68 233.129,4039.79 C233.129,4036.68 230.024,4034.39 225.749,4034.39 C222.059,4034.39 218.594,4036.14 216.434,4039.16 C213.959,4042.62 212.609,4047.3 212.609,4052.21 C212.609,4061.03 216.929,4066.74 223.589,4066.74 C226.514,4066.74 228.944,4065.75 230.834,4063.77 C232.769,4061.79 233.939,4058.87 233.939,4055.99 C233.939,4050.68 230.159,4046.72 225.029,4046.72 C221.969,4046.72 219.719,4047.93 217.604,4050.77 M223.769,4049.46 C227.054,4049.46 229.034,4052.03 229.034,4056.3 C229.034,4061.52 226.964,4064.81 223.679,4064.81 C221.609,4064.81 220.034,4063.73 218.954,4061.52 C218.234,4060.13 217.874,4058.6 217.874,4056.93 C217.874,4052.3 220.124,4049.46 223.769,4049.46"/>
<path class="Bracket" transform="matrix(3.62523,0,0,3.62523,214.469,1019.06)" d="M0.92002,-50 C2.69004,-51.88 6.2,-55.8 6.2,-63 C6.2,-72.1 2.25996,-81.32 2.25996,-86.97 C2.25996,-93.06 5.84004,-98.84 5.95,-99 C6.05996,-99.16 6.05,-99.39 5.94004,-99.46 C5.82998,-99.53 5.62002,-99.47 5.49004,-99.32 C5.35996,-99.17 0,-93.75 0,-85.6 C0,-76.75 3.5,-70.58 3.5,-59.07 C3.5,-56.89 2.55996,-53.36 0.1,-50.33 C-0.0799805,-50.17 -0.1,-49.89 0.0599609,-49.7 L0.0700195,-49.69 L0.1,-49.66 C2.55996,-46.63 3.5,-43.1 3.5,-40.92 C3.5,-29.4 0,-23.24 0,-14.39 C0,-6.25 5.35996,-0.8 5.49004,-0.659961 C5.62002,-0.52002 5.8,-0.42998 5.94004,-0.52002 C6.07998,-0.609961 6.07998,-0.77998 5.95,-0.97998 C5.82002,-1.17998 2.25996,-6.92002 2.25996,-13.01 C2.25996,-18.66 6.2,-27.9 6.2,-37 C6.2,-44.3 2.69004,-48.12 0.92002,-50"/>
</svg>
