<?xml version="1.0" encoding="UTF-8" standalone="no"?>
<svg width="2977.23px" height="4208.47px" viewBox="0 0 2977.23 4208.47"
 xmlns="http://www.w3.org/2000/svg" xmlns:xlink="http://www.w3.org/1999/xlink" version="1.2" baseProfile="tiny">
<title>exercises_scores (42)</title>
<desc>Generated by MuseScore 3.6.0</desc>
<polyline class="StaffLines" fill="none" stroke="#000000" stroke-width="2.75" stroke-linejoin="bevel" points="247.099,656.536 2764.63,656.536"/>
<polyline class="StaffLines" fill="none" stroke="#000000" stroke-width="2.75" stroke-linejoin="bevel" points="247.099,681.538 2764.63,681.538"/>
<polyline class="StaffLines" fill="none" stroke="#000000" stroke-width="2.75" stroke-linejoin="bevel" points="247.099,706.539 2764.63,706.539"/>
<polyline class="StaffLines" fill="none" stroke="#000000" stroke-width="2.75" stroke-linejoin="bevel" points="247.099,731.541 2764.63,731.541"/>
<polyline class="StaffLines" fill="none" stroke="#000000" stroke-width="2.75" stroke-linejoin="bevel" points="247.099,756.542 2764.63,756.542"/>
<polyline class="StaffLines" fill="none" stroke="#000000" stroke-width="2.75" stroke-linejoin="bevel" points="247.099,919.053 2764.63,919.053"/>
<polyline class="StaffLines" fill="none" stroke="#000000" stroke-width="2.75" stroke-linejoin="bevel" points="247.099,944.054 2764.63,944.054"/>
<polyline class="StaffLines" fill="none" stroke="#000000" stroke-width="2.75" stroke-linejoin="bevel" points="247.099,969.056 2764.63,969.056"/>
<polyline class="StaffLines" fill="none" stroke="#000000" stroke-width="2.75" stroke-linejoin="bevel" points="247.099,994.057 2764.63,994.057"/>
<polyline class="StaffLines" fill="none" stroke="#000000" stroke-width="2.75" stroke-linejoin="bevel" points="247.099,1019.06 2764.63,1019.06"/>
<polyline class="StaffLines" fill="none" stroke="#000000" stroke-width="2.75" stroke-linejoin="bevel" points="247.099,1269.07 2764.63,1269.07"/>
<polyline class="StaffLines" fill="none" stroke="#000000" stroke-width="2.75" stroke-linejoin="bevel" points="247.099,1294.08 2764.63,1294.08"/>
<polyline class="StaffLines" fill="none" stroke="#000000" stroke-width="2.75" stroke-linejoin="bevel" points="247.099,1319.08 2764.63,1319.08"/>
<polyline class="StaffLines" fill="none" stroke="#000000" stroke-width="2.75" stroke-linejoin="bevel" points="247.099,1344.08 2764.63,1344.08"/>
<polyline class="StaffLines" fill="none" stroke="#000000" stroke-width="2.75" stroke-linejoin="bevel" points="247.099,1369.08 2764.63,1369.08"/>
<polyline class="StaffLines" fill="none" stroke="#000000" stroke-width="2.75" stroke-linejoin="bevel" points="247.099,1531.59 2764.63,1531.59"/>
<polyline class="StaffLines" fill="none" stroke="#000000" stroke-width="2.75" stroke-linejoin="bevel" points="247.099,1556.59 2764.63,1556.59"/>
<polyline class="StaffLines" fill="none" stroke="#000000" stroke-width="2.75" stroke-linejoin="bevel" points="247.099,1581.59 2764.63,1581.59"/>
<polyline class="StaffLines" fill="none" stroke="#000000" stroke-width="2.75" stroke-linejoin="bevel" points="247.099,1606.6 2764.63,1606.6"/>
<polyline class="StaffLines" fill="none" stroke="#000000" stroke-width="2.75" stroke-linejoin="bevel" points="247.099,1631.6 2764.63,1631.6"/>
<path class="Text" d="M212.602,213.497 L212.602,216.317 L213.682,216.317 C217.102,216.377 218.242,216.557 218.722,217.157 C219.082,217.697 219.082,217.817 219.082,220.877 L219.082,249.437 C219.082,252.497 219.082,252.617 218.722,253.157 C218.242,253.757 217.102,253.997 213.682,253.997 L212.602,253.997 L212.602,256.817 L234.382,256.817 C244.762,256.817 251.002,252.437 251.002,245.057 C251.002,239.057 247.222,235.637 239.002,234.197 C241.882,233.597 243.202,233.057 244.762,231.917 C247.222,230.057 248.722,227.117 248.722,224.117 C248.722,220.217 246.322,216.437 242.842,214.937 C240.682,213.977 237.682,213.497 234.142,213.497 L212.602,213.497 M225.802,232.997 L225.802,219.317 C225.802,216.977 226.582,216.377 229.762,216.317 L232.162,216.317 C234.922,216.317 237.202,216.797 238.462,217.577 C240.622,218.897 241.762,221.417 241.762,224.777 C241.762,230.717 238.882,232.997 231.142,232.997 L225.802,232.997 M225.802,235.817 L231.082,235.817 C240.262,235.817 243.622,238.277 243.622,244.877 C243.622,248.717 242.302,251.477 239.962,252.617 C238.102,253.577 235.582,253.997 231.802,253.997 L229.282,253.997 C226.282,253.997 225.682,253.397 225.802,250.217 L225.802,235.817 M265.994,228.857 L255.374,229.517 L255.374,232.097 L257.834,232.097 C260.114,232.157 260.414,232.517 260.414,235.097 L260.414,249.437 L260.414,252.257 C260.354,253.157 260.294,253.517 260.054,253.817 C259.634,254.357 258.434,254.597 255.854,254.657 L255.614,254.657 L255.614,256.817 L271.634,256.817 L271.634,254.657 L270.554,254.657 C266.534,254.537 265.994,254.237 265.994,252.077 L265.994,249.437 L265.994,248.837 C266.054,238.757 269.654,231.077 274.334,230.837 C273.494,231.797 273.254,232.397 273.254,233.537 C273.254,235.457 274.634,236.837 276.554,236.837 C278.774,236.837 280.214,235.217 280.214,232.817 C280.214,229.877 278.174,227.957 274.994,227.957 C271.214,227.957 267.974,230.957 265.994,236.297 L265.994,228.857 M295.562,227.957 C288.182,227.957 282.482,234.497 282.482,242.897 C282.482,251.117 288.242,257.717 295.442,257.717 C302.642,257.717 308.402,251.117 308.402,242.837 C308.402,234.617 302.642,227.957 295.562,227.957 M295.562,230.537 C299.762,230.537 302.102,234.917 302.102,242.837 C302.102,250.817 299.762,255.137 295.442,255.137 C291.122,255.137 288.782,250.817 288.782,242.897 C288.782,234.737 291.062,230.537 295.562,230.537 M322.382,242.297 L322.382,212.597 L311.282,213.257 L311.282,215.837 L314.162,215.837 C316.442,215.897 316.742,216.257 316.742,218.837 L316.742,249.437 L316.742,252.317 C316.682,253.157 316.622,253.517 316.382,253.817 C315.962,254.357 314.822,254.597 312.242,254.657 L312.002,254.657 L312.002,256.817 L327.182,256.817 L327.182,254.657 L326.942,254.657 C322.922,254.537 322.382,254.237 322.382,252.077 L322.382,249.437 L322.382,246.017 L326.042,242.537 L333.182,252.557 C333.482,253.037 333.602,253.337 333.602,253.577 C333.602,254.417 332.942,254.657 330.962,254.657 L329.822,254.657 L329.822,256.817 L345.662,256.817 L345.662,254.657 C342.302,254.357 341.102,253.637 338.642,250.517 L330.122,238.877 L332.822,236.237 C336.362,232.817 338.882,231.497 342.962,231.017 L342.962,228.857 L327.182,228.857 L327.182,231.017 L329.042,231.017 C330.962,231.017 331.862,231.377 331.862,232.157 C331.862,232.817 331.442,233.537 330.482,234.497 L322.382,242.297 M372.842,243.317 C372.902,234.317 367.802,227.957 360.482,227.957 C352.802,227.957 347.042,234.617 347.042,243.617 C347.042,252.077 352.502,257.717 360.602,257.717 C366.362,257.717 370.382,254.897 372.842,249.197 L370.742,248.057 C368.282,252.677 365.762,254.477 361.742,254.477 C358.682,254.477 356.462,253.217 354.902,250.517 C353.822,248.717 353.342,246.617 353.402,243.317 L372.842,243.317 M353.462,240.737 C353.462,238.877 353.702,237.557 354.302,235.877 C355.562,232.277 357.482,230.537 360.422,230.537 C364.022,230.537 366.422,233.717 366.422,238.577 C366.422,240.257 365.882,240.737 363.962,240.737 L353.462,240.737 M386.942,228.857 L376.562,229.517 L376.562,232.097 L378.722,232.097 C381.002,232.157 381.302,232.517 381.302,235.097 L381.302,249.437 L381.302,250.877 L381.302,252.257 C381.242,253.157 381.182,253.517 380.942,253.817 C380.522,254.357 379.382,254.597 376.802,254.657 L376.562,254.657 L376.562,256.817 L391.742,256.817 L391.742,254.657 L391.502,254.657 C387.482,254.537 386.942,254.237 386.942,252.077 L386.942,249.437 L386.942,243.197 C386.942,240.257 387.362,237.557 388.022,236.177 C389.282,233.477 391.982,231.617 394.562,231.617 C396.122,231.617 397.922,232.457 398.822,233.717 C399.722,235.037 400.142,236.837 400.142,239.717 L400.142,249.437 L400.142,252.257 C400.082,253.157 400.022,253.517 399.782,253.817 C399.362,254.357 398.162,254.597 395.582,254.657 L395.342,254.657 L395.342,256.817 L410.522,256.817 L410.522,254.657 L410.282,254.657 C406.322,254.537 405.782,254.237 405.782,252.077 L405.782,249.437 L405.782,240.017 C405.782,235.697 405.602,234.617 404.522,232.577 C403.022,229.697 400.022,227.957 396.422,227.957 C392.522,227.957 389.582,229.757 386.942,233.717 L386.942,228.857 M466.61,213.077 L464.33,213.077 L461.93,216.617 C457.55,213.437 455.33,212.597 451.19,212.597 C445.49,212.597 440.63,214.997 436.61,219.797 C432.77,224.357 430.97,229.397 430.97,235.577 C430.97,248.537 439.43,257.717 451.25,257.717 C460.85,257.717 466.97,252.077 468.35,241.997 L465.53,241.517 C463.91,250.457 459.35,254.897 451.97,254.897 C443.09,254.897 438.89,248.777 438.89,235.817 C438.89,228.977 439.79,224.477 441.83,220.877 C443.69,217.517 447.35,215.417 451.25,215.417 C455.45,215.417 459.17,217.637 461.45,221.477 C462.59,223.457 463.43,225.677 464.87,230.417 L467.51,230.417 L466.61,213.077 M483.583,212.597 L472.483,213.257 L472.483,215.837 L475.363,215.837 C477.643,215.897 477.943,216.257 477.943,218.837 L477.943,249.437 L477.943,250.877 L477.943,252.317 C477.883,253.157 477.823,253.517 477.583,253.817 C477.163,254.357 476.023,254.597 473.443,254.657 L473.203,254.657 L473.203,256.817 L488.383,256.817 L488.383,254.657 L488.143,254.657 C484.123,254.537 483.583,254.237 483.583,252.077 L483.583,249.437 L483.583,243.197 C483.583,240.257 484.003,237.557 484.663,236.177 C485.983,233.477 488.623,231.617 491.203,231.617 C492.763,231.617 494.563,232.517 495.403,233.717 C496.363,235.037 496.783,236.837 496.783,239.777 L496.783,249.437 L496.783,252.317 C496.723,253.157 496.663,253.517 496.423,253.817 C496.003,254.357 494.803,254.597 492.223,254.657 L491.983,254.657 L491.983,256.817 L507.163,256.817 L507.163,254.657 L506.923,254.657 C502.963,254.537 502.423,254.237 502.423,252.077 L502.423,249.437 L502.423,240.017 C502.423,235.697 502.243,234.617 501.163,232.577 C499.663,229.637 496.663,227.957 493.063,227.957 C489.163,227.957 486.283,229.697 483.583,233.717 L483.583,212.597 M523.359,227.957 C515.979,227.957 510.279,234.497 510.279,242.897 C510.279,251.117 516.039,257.717 523.239,257.717 C530.439,257.717 536.199,251.117 536.199,242.837 C536.199,234.617 530.439,227.957 523.359,227.957 M523.359,230.537 C527.559,230.537 529.899,234.917 529.899,242.837 C529.899,250.817 527.559,255.137 523.239,255.137 C518.919,255.137 516.579,250.817 516.579,242.897 C516.579,234.737 518.859,230.537 523.359,230.537 M550.119,228.857 L539.499,229.517 L539.499,232.097 L541.959,232.097 C544.239,232.157 544.539,232.517 544.539,235.097 L544.539,249.437 L544.539,252.257 C544.479,253.157 544.419,253.517 544.179,253.817 C543.759,254.357 542.559,254.597 539.979,254.657 L539.739,254.657 L539.739,256.817 L555.759,256.817 L555.759,254.657 L554.679,254.657 C550.659,254.537 550.119,254.237 550.119,252.077 L550.119,249.437 L550.119,248.837 C550.179,238.757 553.779,231.077 558.459,230.837 C557.619,231.797 557.379,232.397 557.379,233.537 C557.379,235.457 558.759,236.837 560.679,236.837 C562.899,236.837 564.339,235.217 564.339,232.817 C564.339,229.877 562.299,227.957 559.119,227.957 C555.339,227.957 552.099,230.957 550.119,236.297 L550.119,228.857 M587.18,257.237 L597.62,256.817 L597.62,254.237 L596.54,254.237 C593.12,254.057 592.82,253.697 592.82,249.857 L592.82,212.597 L581.06,213.257 L581.06,215.837 L584.6,215.837 C586.88,215.897 587.18,216.257 587.18,218.837 L587.18,232.397 C584.96,229.337 582.38,227.957 578.9,227.957 C572.12,227.957 566.96,234.497 566.96,243.137 C566.96,251.657 571.94,257.717 578.9,257.717 C582.68,257.717 585.26,256.097 587.18,252.497 L587.18,257.237 M580.1,231.197 C582.56,231.197 584.9,232.997 585.98,235.757 C586.76,237.557 587.12,240.017 587.12,242.957 C587.12,249.977 584.36,254.477 580.04,254.477 C575.78,254.477 573.26,250.517 573.26,243.857 C573.26,240.257 573.62,237.557 574.4,235.577 C575.42,232.877 577.64,231.197 580.1,231.197 M607.757,250.157 C605.657,250.157 603.977,251.837 603.977,253.877 C603.977,255.977 605.657,257.657 607.697,257.657 C609.797,257.657 611.477,255.977 611.477,253.877 C611.477,251.837 609.797,250.157 607.757,250.157 M607.757,228.437 C605.657,228.437 603.977,230.117 603.977,232.217 C603.977,234.257 605.657,235.937 607.697,235.937 C609.797,235.937 611.477,234.257 611.477,232.157 C611.477,230.117 609.797,228.437 607.757,228.437 M670.501,213.077 L668.221,213.077 L665.821,216.617 C661.441,213.437 659.221,212.597 655.081,212.597 C649.381,212.597 644.521,214.997 640.501,219.797 C636.661,224.357 634.861,229.397 634.861,235.577 C634.861,248.537 643.321,257.717 655.141,257.717 C664.741,257.717 670.861,252.077 672.241,241.997 L669.421,241.517 C667.801,250.457 663.241,254.897 655.861,254.897 C646.981,254.897 642.781,248.777 642.781,235.817 C642.781,228.977 643.681,224.477 645.721,220.877 C647.581,217.517 651.241,215.417 655.141,215.417 C659.341,215.417 663.061,217.637 665.341,221.477 C666.481,223.457 667.321,225.677 668.761,230.417 L671.401,230.417 L670.501,213.077 M704.205,228.857 L693.525,229.517 L693.525,232.097 L695.985,232.097 C698.265,232.157 698.565,232.517 698.565,235.097 L698.565,249.437 L698.565,251.777 L698.565,252.257 C698.505,253.157 698.445,253.517 698.205,253.817 C697.785,254.357 696.645,254.597 694.065,254.657 L693.825,254.657 L693.825,256.817 L708.945,256.817 L708.945,254.657 L708.705,254.657 C704.745,254.537 704.205,254.237 704.205,252.017 L704.205,249.437 L704.205,240.917 C704.205,235.577 707.145,231.617 711.045,231.617 C714.465,231.617 716.205,234.077 716.205,238.937 L716.205,249.437 L716.205,252.317 C716.145,253.097 716.085,253.517 715.785,253.817 C715.425,254.357 714.225,254.597 711.645,254.657 L711.405,254.657 L711.405,256.817 L726.585,256.817 L726.585,254.657 L726.345,254.657 C722.385,254.537 721.845,254.237 721.845,252.077 L721.845,249.437 L721.845,241.457 C721.845,235.457 724.545,231.617 728.745,231.617 C732.165,231.617 733.845,234.197 733.845,239.597 L733.845,249.437 L733.845,252.257 C733.785,253.097 733.725,253.517 733.425,253.817 C733.065,254.357 731.865,254.597 729.285,254.657 L729.045,254.657 L729.045,256.817 L744.225,256.817 L744.225,254.657 L743.985,254.657 C740.025,254.537 739.485,254.237 739.485,252.017 L739.485,249.437 L739.485,238.397 C739.485,234.677 739.125,233.417 737.565,231.377 C735.825,229.157 733.365,227.957 730.485,227.957 C726.585,227.957 723.705,229.817 721.125,233.957 C720.105,230.357 716.865,227.957 712.845,227.957 C709.185,227.957 706.545,229.697 704.205,233.477 L704.205,228.857 M772.593,237.497 C772.593,233.717 771.933,231.797 770.193,230.357 C768.213,228.737 765.273,227.957 761.433,227.957 C754.653,227.957 749.733,231.137 749.733,235.517 C749.733,237.737 751.113,239.177 753.213,239.177 C755.133,239.177 756.453,237.917 756.453,236.117 C756.453,235.337 756.153,234.497 755.553,233.657 C755.193,233.237 755.133,233.117 755.133,232.817 C755.133,231.617 757.533,230.537 760.413,230.537 C762.333,230.537 764.433,231.137 765.393,232.037 C766.533,232.997 766.953,234.437 766.953,237.137 L766.953,239.477 C760.713,240.557 758.733,241.037 755.793,242.177 C750.573,244.097 748.113,246.857 748.113,250.697 C748.113,255.017 751.473,257.717 756.813,257.717 C760.953,257.717 764.673,256.037 767.253,252.977 C768.213,256.037 769.713,257.237 772.533,257.237 C775.233,257.237 778.053,255.497 778.053,253.757 C778.053,253.337 777.813,253.037 777.453,253.037 C777.213,253.037 776.973,253.097 776.553,253.277 C775.713,253.637 775.353,253.697 774.873,253.697 C773.193,253.697 772.593,252.617 772.593,249.557 L772.593,237.497 M766.953,244.817 C766.953,248.417 766.773,249.257 765.753,250.817 C764.253,253.037 761.553,254.537 758.913,254.537 C756.153,254.537 754.173,252.557 754.173,249.857 C754.173,247.337 755.433,245.537 758.073,244.277 C759.933,243.437 762.273,242.837 766.953,242.057 L766.953,244.817 M789.518,228.857 L777.818,229.517 L777.818,232.097 L781.298,232.097 C783.578,232.157 783.878,232.517 783.878,235.097 L783.878,255.437 C783.878,260.297 783.578,262.577 782.738,264.317 C782.138,265.517 780.758,266.417 779.438,266.417 C778.598,266.417 777.938,266.057 777.938,265.637 C777.938,265.397 777.998,265.277 778.238,264.677 C778.538,264.077 778.658,263.657 778.658,263.237 C778.658,261.737 777.218,260.417 775.538,260.417 C773.618,260.417 772.178,261.917 772.178,264.017 C772.178,266.957 774.878,268.937 778.898,268.937 C782.258,268.937 785.318,267.497 787.058,265.037 C788.918,262.397 789.518,259.337 789.518,252.557 L789.518,228.857 M786.698,213.917 C784.778,213.917 783.218,215.477 783.218,217.397 C783.218,219.317 784.778,220.877 786.638,220.877 C788.618,220.877 790.178,219.317 790.178,217.397 C790.178,215.477 788.618,213.917 786.698,213.917 M809.968,227.957 C802.588,227.957 796.888,234.497 796.888,242.897 C796.888,251.117 802.648,257.717 809.848,257.717 C817.048,257.717 822.808,251.117 822.808,242.837 C822.808,234.617 817.048,227.957 809.968,227.957 M809.968,230.537 C814.168,230.537 816.508,234.917 816.508,242.837 C816.508,250.817 814.168,255.137 809.848,255.137 C805.528,255.137 803.188,250.817 803.188,242.897 C803.188,234.737 805.468,230.537 809.968,230.537 M836.728,228.857 L826.108,229.517 L826.108,232.097 L828.568,232.097 C830.848,232.157 831.148,232.517 831.148,235.097 L831.148,249.437 L831.148,252.257 C831.088,253.157 831.028,253.517 830.788,253.817 C830.368,254.357 829.168,254.597 826.588,254.657 L826.348,254.657 L826.348,256.817 L842.368,256.817 L842.368,254.657 L841.288,254.657 C837.268,254.537 836.728,254.237 836.728,252.077 L836.728,249.437 L836.728,248.837 C836.788,238.757 840.388,231.077 845.068,230.837 C844.228,231.797 843.988,232.397 843.988,233.537 C843.988,235.457 845.368,236.837 847.288,236.837 C849.508,236.837 850.948,235.217 850.948,232.817 C850.948,229.877 848.908,227.957 845.728,227.957 C841.948,227.957 838.708,230.957 836.728,236.297 L836.728,228.857 "/>
<path class="TieSegment" stroke="#000000" stroke-width="1.75" stroke-linecap="round" stroke-linejoin="round" fill-rule="evenodd" d="M2608.54,1012.81 C2639.76,1033.03 2733.41,1033.03 2764.63,1012.81 C2733.41,1040.03 2639.76,1040.03 2608.54,1012.81"/>
<path class="TieSegment" stroke="#000000" stroke-width="1.75" stroke-linecap="round" stroke-linejoin="round" fill-rule="evenodd" d="M335.596,1633.05 C350.372,1640.78 394.698,1640.78 409.473,1633.05 C394.698,1647.78 350.372,1647.78 335.596,1633.05"/>
<path class="TieSegment" stroke="#000000" stroke-width="1.75" stroke-linecap="round" stroke-linejoin="round" fill-rule="evenodd" d="M2608.54,625.284 C2639.76,598.059 2733.41,598.059 2764.63,625.284 C2733.41,605.059 2639.76,605.059 2608.54,625.284"/>
<path class="TieSegment" stroke="#000000" stroke-width="1.75" stroke-linecap="round" stroke-linejoin="round" fill-rule="evenodd" d="M335.596,1237.82 C350.372,1223.09 394.698,1223.09 409.473,1237.82 C394.698,1230.09 350.372,1230.09 335.596,1237.82"/>
<polyline class="BarLine" stroke="#000000" stroke-width="4.50" stroke-linejoin="bevel" points="249.349,917.677 249.349,1020.43"/>
<polyline class="BarLine" stroke="#000000" stroke-width="4.50" stroke-linejoin="bevel" points="984.127,917.677 984.127,1020.43"/>
<polyline class="BarLine" stroke="#000000" stroke-width="4.50" stroke-linejoin="bevel" points="1539.25,917.677 1539.25,1020.43"/>
<polyline class="BarLine" stroke="#000000" stroke-width="4.50" stroke-linejoin="bevel" points="2114.51,917.677 2114.51,1020.43"/>
<polyline class="BarLine" stroke="#000000" stroke-width="4.50" stroke-linejoin="bevel" points="2762.38,917.677 2762.38,1020.43"/>
<polyline class="BarLine" stroke="#000000" stroke-width="4.50" stroke-linejoin="bevel" points="249.349,1530.22 249.349,1632.97"/>
<polyline class="BarLine" stroke="#000000" stroke-width="4.50" stroke-linejoin="bevel" points="934.63,1530.22 934.63,1632.97"/>
<polyline class="BarLine" stroke="#000000" stroke-width="4.50" stroke-linejoin="bevel" points="1526.04,1530.22 1526.04,1632.97"/>
<polyline class="BarLine" stroke="#000000" stroke-width="4.50" stroke-linejoin="bevel" points="2173.66,1530.22 2173.66,1632.97"/>
<polyline class="BarLine" stroke="#000000" stroke-width="4.50" stroke-linejoin="bevel" points="2734.88,1530.22 2734.88,1632.97"/>
<polyline class="BarLine" stroke="#000000" stroke-width="13.75" stroke-linejoin="bevel" points="2757.76,1530.22 2757.76,1632.97"/>
<polyline class="BarLine" stroke="#000000" stroke-width="4.50" stroke-linejoin="bevel" points="249.349,655.161 249.349,919.053"/>
<polyline class="BarLine" stroke="#000000" stroke-width="4.50" stroke-linejoin="bevel" points="984.127,655.161 984.127,919.053"/>
<polyline class="BarLine" stroke="#000000" stroke-width="4.50" stroke-linejoin="bevel" points="1539.25,655.161 1539.25,919.053"/>
<polyline class="BarLine" stroke="#000000" stroke-width="4.50" stroke-linejoin="bevel" points="2114.51,655.161 2114.51,919.053"/>
<polyline class="BarLine" stroke="#000000" stroke-width="4.50" stroke-linejoin="bevel" points="2762.38,655.161 2762.38,919.053"/>
<polyline class="BarLine" stroke="#000000" stroke-width="4.50" stroke-linejoin="bevel" points="249.349,1267.7 249.349,1531.59"/>
<polyline class="BarLine" stroke="#000000" stroke-width="4.50" stroke-linejoin="bevel" points="934.63,1267.7 934.63,1531.59"/>
<polyline class="BarLine" stroke="#000000" stroke-width="4.50" stroke-linejoin="bevel" points="1526.04,1267.7 1526.04,1531.59"/>
<polyline class="BarLine" stroke="#000000" stroke-width="4.50" stroke-linejoin="bevel" points="2173.66,1267.7 2173.66,1531.59"/>
<polyline class="BarLine" stroke="#000000" stroke-width="4.50" stroke-linejoin="bevel" points="2734.88,1267.7 2734.88,1531.59"/>
<polyline class="BarLine" stroke="#000000" stroke-width="13.75" stroke-linejoin="bevel" points="2757.76,1267.7 2757.76,1531.59"/>
<polyline class="LedgerLine" stroke="#000000" stroke-width="4.00" stroke-linejoin="bevel" points="1355.54,894.051 1405.54,894.051"/>
<polyline class="LedgerLine" stroke="#000000" stroke-width="4.00" stroke-linejoin="bevel" points="1744.67,894.051 1794.67,894.051"/>
<polyline class="LedgerLine" stroke="#000000" stroke-width="4.00" stroke-linejoin="bevel" points="1924.09,894.051 1974.08,894.051"/>
<polyline class="LedgerLine" stroke="#000000" stroke-width="4.00" stroke-linejoin="bevel" points="1924.09,869.049 1974.08,869.049"/>
<polyline class="LedgerLine" stroke="#000000" stroke-width="4.00" stroke-linejoin="bevel" points="2233.26,1044.06 2283.25,1044.06"/>
<polyline class="LedgerLine" stroke="#000000" stroke-width="4.00" stroke-linejoin="bevel" points="745.536,1656.6 795.531,1656.6"/>
<polyline class="LedgerLine" stroke="#000000" stroke-width="4.00" stroke-linejoin="bevel" points="1145.43,1656.6 1195.43,1656.6"/>
<polyline class="LedgerLine" stroke="#000000" stroke-width="4.00" stroke-linejoin="bevel" points="1330.24,1681.6 1380.23,1681.6"/>
<polyline class="LedgerLine" stroke="#000000" stroke-width="4.00" stroke-linejoin="bevel" points="1330.24,1656.6 1380.23,1656.6"/>
<polyline class="LedgerLine" stroke="#000000" stroke-width="4.00" stroke-linejoin="bevel" points="1638.44,1506.59 1688.44,1506.59"/>
<polyline class="LedgerLine" stroke="#000000" stroke-width="4.00" stroke-linejoin="bevel" points="455.002,781.544 504.998,781.544"/>
<polyline class="LedgerLine" stroke="#000000" stroke-width="4.00" stroke-linejoin="bevel" points="2549.14,1394.08 2599.14,1394.08"/>
<polyline class="Stem" stroke="#000000" stroke-width="2.75" stroke-linejoin="bevel" points="494.872,978.196 494.872,900.301"/>
<polyline class="Stem" stroke="#000000" stroke-width="2.75" stroke-linejoin="bevel" points="637.836,960.075 637.836,1037.81"/>
<polyline class="Stem" stroke="#000000" stroke-width="2.75" stroke-linejoin="bevel" points="810.544,935.074 810.544,1019.06"/>
<polyline class="Stem" stroke="#000000" stroke-width="2.75" stroke-linejoin="bevel" points="1020.25,960.075 1020.25,1037.81"/>
<polyline class="Stem" stroke="#000000" stroke-width="2.75" stroke-linejoin="bevel" points="1192.96,935.074 1192.96,1019.06"/>
<polyline class="Stem" stroke="#000000" stroke-width="2.75" stroke-linejoin="bevel" points="1365.67,897.571 1365.67,981.556"/>
<polyline class="Stem" stroke="#000000" stroke-width="2.75" stroke-linejoin="bevel" points="1575.38,935.074 1575.38,1019.06"/>
<polyline class="Stem" stroke="#000000" stroke-width="2.75" stroke-linejoin="bevel" points="1754.8,897.571 1754.8,981.556"/>
<polyline class="Stem" stroke="#000000" stroke-width="2.75" stroke-linejoin="bevel" points="1934.21,872.57 1934.21,969.056"/>
<polyline class="Stem" stroke="#000000" stroke-width="2.75" stroke-linejoin="bevel" points="2273.13,1040.7 2273.13,956.555"/>
<polyline class="Stem" stroke="#000000" stroke-width="2.75" stroke-linejoin="bevel" points="2445.83,1015.7 2445.83,931.553"/>
<polyline class="Stem" stroke="#000000" stroke-width="2.75" stroke-linejoin="bevel" points="2618.54,990.697 2618.54,909.677"/>
<polyline class="Stem" stroke="#000000" stroke-width="2.75" stroke-linejoin="bevel" points="429.219,1603.24 429.219,1522.22"/>
<polyline class="Stem" stroke="#000000" stroke-width="2.75" stroke-linejoin="bevel" points="607.313,1640.74 607.313,1556.59"/>
<polyline class="Stem" stroke="#000000" stroke-width="2.75" stroke-linejoin="bevel" points="785.406,1665.74 785.406,1581.59"/>
<polyline class="Stem" stroke="#000000" stroke-width="2.75" stroke-linejoin="bevel" points="1000.5,1640.74 1000.5,1556.59"/>
<polyline class="Stem" stroke="#000000" stroke-width="2.75" stroke-linejoin="bevel" points="1185.3,1665.74 1185.3,1581.59"/>
<polyline class="Stem" stroke="#000000" stroke-width="2.75" stroke-linejoin="bevel" points="1370.11,1690.74 1370.11,1581.59"/>
<polyline class="Stem" stroke="#000000" stroke-width="2.75" stroke-linejoin="bevel" points="1648.57,1510.11 1648.57,1594.1"/>
<polyline class="Stem" stroke="#000000" stroke-width="2.75" stroke-linejoin="bevel" points="1823.31,1547.61 1823.31,1631.6"/>
<polyline class="Stem" stroke="#000000" stroke-width="2.75" stroke-linejoin="bevel" points="1998.05,1572.61 1998.05,1650.35"/>
<polyline class="Stem" stroke="#000000" stroke-width="2.75" stroke-linejoin="bevel" points="2209.79,1547.61 2209.79,1631.6"/>
<polyline class="Stem" stroke="#000000" stroke-width="2.75" stroke-linejoin="bevel" points="2384.53,1572.61 2384.53,1650.35"/>
<polyline class="Stem" stroke="#000000" stroke-width="2.75" stroke-linejoin="bevel" points="2589.01,1590.73 2589.01,1512.84"/>
<polyline class="Stem" stroke="#000000" stroke-width="2.75" stroke-linejoin="bevel" points="494.872,778.184 494.872,694.038"/>
<polyline class="Stem" stroke="#000000" stroke-width="2.75" stroke-linejoin="bevel" points="667.58,753.182 667.58,669.037"/>
<polyline class="Stem" stroke="#000000" stroke-width="2.75" stroke-linejoin="bevel" points="840.288,728.181 840.288,647.16"/>
<polyline class="Stem" stroke="#000000" stroke-width="2.75" stroke-linejoin="bevel" points="1050,753.182 1050,669.037"/>
<polyline class="Stem" stroke="#000000" stroke-width="2.75" stroke-linejoin="bevel" points="1222.71,728.181 1222.71,647.16"/>
<polyline class="Stem" stroke="#000000" stroke-width="2.75" stroke-linejoin="bevel" points="1365.67,697.559 1365.67,775.293"/>
<polyline class="Stem" stroke="#000000" stroke-width="2.75" stroke-linejoin="bevel" points="1605.13,728.181 1605.13,647.16"/>
<polyline class="Stem" stroke="#000000" stroke-width="2.75" stroke-linejoin="bevel" points="1754.8,697.559 1754.8,775.293"/>
<polyline class="Stem" stroke="#000000" stroke-width="2.75" stroke-linejoin="bevel" points="1934.21,672.557 1934.21,756.542"/>
<polyline class="Stem" stroke="#000000" stroke-width="2.75" stroke-linejoin="bevel" points="2243.38,697.559 2243.38,775.293"/>
<polyline class="Stem" stroke="#000000" stroke-width="2.75" stroke-linejoin="bevel" points="2416.09,672.557 2416.09,756.542"/>
<polyline class="Stem" stroke="#000000" stroke-width="2.75" stroke-linejoin="bevel" points="2588.8,647.555 2588.8,731.541"/>
<polyline class="Stem" stroke="#000000" stroke-width="2.75" stroke-linejoin="bevel" points="399.475,1260.09 399.475,1344.08"/>
<polyline class="Stem" stroke="#000000" stroke-width="2.75" stroke-linejoin="bevel" points="577.569,1297.6 577.569,1378.46"/>
<polyline class="Stem" stroke="#000000" stroke-width="2.75" stroke-linejoin="bevel" points="755.662,1322.6 755.662,1397.21"/>
<polyline class="Stem" stroke="#000000" stroke-width="2.75" stroke-linejoin="bevel" points="970.757,1297.6 970.757,1378.46"/>
<polyline class="Stem" stroke="#000000" stroke-width="2.75" stroke-linejoin="bevel" points="1155.56,1322.6 1155.56,1397.21"/>
<polyline class="Stem" stroke="#000000" stroke-width="2.75" stroke-linejoin="bevel" points="1370.11,1340.72 1370.11,1259.7"/>
<polyline class="Stem" stroke="#000000" stroke-width="2.75" stroke-linejoin="bevel" points="1648.57,1310.1 1648.57,1387.83"/>
<polyline class="Stem" stroke="#000000" stroke-width="2.75" stroke-linejoin="bevel" points="1853.05,1340.72 1853.05,1259.7"/>
<polyline class="Stem" stroke="#000000" stroke-width="2.75" stroke-linejoin="bevel" points="2027.79,1365.72 2027.79,1281.58"/>
<polyline class="Stem" stroke="#000000" stroke-width="2.75" stroke-linejoin="bevel" points="2239.53,1340.72 2239.53,1259.7"/>
<polyline class="Stem" stroke="#000000" stroke-width="2.75" stroke-linejoin="bevel" points="2414.27,1365.72 2414.27,1281.58"/>
<polyline class="Stem" stroke="#000000" stroke-width="2.75" stroke-linejoin="bevel" points="2589.01,1390.72 2589.01,1306.58"/>
<path class="Note" d="M495.253,973.356 C493.753,970.656 490.853,968.956 486.953,968.556 C486.353,968.456 485.853,968.456 485.253,968.456 C481.753,968.456 477.953,969.456 474.453,971.356 C467.853,974.956 463.753,980.856 463.753,985.956 C463.753,987.356 463.953,988.656 464.653,989.856 C466.153,992.556 469.153,994.256 473.053,994.656 C473.653,994.756 474.153,994.756 474.753,994.756 C478.253,994.756 481.953,993.756 485.453,991.856 C492.053,988.256 496.253,982.456 496.253,977.356 C496.253,975.956 495.953,974.556 495.253,973.356"/>
<path class="Note" d="M667.961,948.355 C666.461,945.655 663.561,943.955 659.661,943.555 C659.061,943.455 658.561,943.455 657.961,943.455 C654.461,943.455 650.661,944.455 647.161,946.355 C640.561,949.955 636.461,955.855 636.461,960.955 C636.461,962.355 636.661,963.655 637.361,964.855 C638.861,967.555 641.861,969.255 645.761,969.655 C646.361,969.755 646.861,969.755 647.461,969.755 C650.961,969.755 654.661,968.755 658.161,966.855 C664.761,963.255 668.961,957.455 668.961,952.355 C668.961,950.955 668.661,949.555 667.961,948.355"/>
<path class="Note" d="M840.669,923.353 C839.169,920.653 836.269,918.953 832.369,918.553 C831.769,918.453 831.269,918.453 830.669,918.453 C827.169,918.453 823.369,919.453 819.869,921.353 C813.269,924.953 809.169,930.853 809.169,935.953 C809.169,937.353 809.369,938.653 810.069,939.853 C811.569,942.553 814.569,944.253 818.469,944.653 C819.069,944.753 819.569,944.753 820.169,944.753 C823.669,944.753 827.369,943.753 830.869,941.853 C837.469,938.253 841.669,932.453 841.669,927.353 C841.669,925.953 841.369,924.553 840.669,923.353"/>
<path class="Note" d="M1050.38,948.355 C1048.88,945.655 1045.98,943.955 1042.08,943.555 C1041.48,943.455 1040.98,943.455 1040.38,943.455 C1036.88,943.455 1033.08,944.455 1029.58,946.355 C1022.98,949.955 1018.88,955.855 1018.88,960.955 C1018.88,962.355 1019.08,963.655 1019.78,964.855 C1021.28,967.555 1024.28,969.255 1028.18,969.655 C1028.78,969.755 1029.28,969.755 1029.88,969.755 C1033.38,969.755 1037.08,968.755 1040.58,966.855 C1047.18,963.255 1051.38,957.455 1051.38,952.355 C1051.38,950.955 1051.08,949.555 1050.38,948.355"/>
<path class="Note" d="M1223.09,923.353 C1221.59,920.653 1218.69,918.953 1214.79,918.553 C1214.19,918.453 1213.69,918.453 1213.09,918.453 C1209.59,918.453 1205.79,919.453 1202.29,921.353 C1195.69,924.953 1191.59,930.853 1191.59,935.953 C1191.59,937.353 1191.79,938.653 1192.49,939.853 C1193.99,942.553 1196.99,944.253 1200.89,944.653 C1201.49,944.753 1201.99,944.753 1202.59,944.753 C1206.09,944.753 1209.79,943.753 1213.29,941.853 C1219.89,938.253 1224.09,932.453 1224.09,927.353 C1224.09,925.953 1223.79,924.553 1223.09,923.353"/>
<path class="Note" d="M1395.8,885.851 C1394.3,883.151 1391.4,881.451 1387.5,881.051 C1386.9,880.951 1386.4,880.951 1385.8,880.951 C1382.3,880.951 1378.5,881.951 1375,883.851 C1368.4,887.451 1364.3,893.351 1364.3,898.451 C1364.3,899.851 1364.5,901.151 1365.2,902.351 C1366.7,905.051 1369.7,906.751 1373.6,907.151 C1374.2,907.251 1374.7,907.251 1375.3,907.251 C1378.8,907.251 1382.5,906.251 1386,904.351 C1392.6,900.751 1396.8,894.951 1396.8,889.851 C1396.8,888.451 1396.5,887.051 1395.8,885.851"/>
<path class="Note" d="M1605.51,923.353 C1604.01,920.653 1601.11,918.953 1597.21,918.553 C1596.61,918.453 1596.11,918.453 1595.51,918.453 C1592.01,918.453 1588.21,919.453 1584.71,921.353 C1578.11,924.953 1574.01,930.853 1574.01,935.953 C1574.01,937.353 1574.21,938.653 1574.91,939.853 C1576.41,942.553 1579.41,944.253 1583.31,944.653 C1583.91,944.753 1584.41,944.753 1585.01,944.753 C1588.51,944.753 1592.21,943.753 1595.71,941.853 C1602.31,938.253 1606.51,932.453 1606.51,927.353 C1606.51,925.953 1606.21,924.553 1605.51,923.353"/>
<path class="Note" d="M1784.92,885.851 C1783.42,883.151 1780.52,881.451 1776.62,881.051 C1776.02,880.951 1775.52,880.951 1774.92,880.951 C1771.42,880.951 1767.62,881.951 1764.12,883.851 C1757.52,887.451 1753.42,893.351 1753.42,898.451 C1753.42,899.851 1753.62,901.151 1754.32,902.351 C1755.82,905.051 1758.82,906.751 1762.72,907.151 C1763.32,907.251 1763.82,907.251 1764.42,907.251 C1767.92,907.251 1771.62,906.251 1775.12,904.351 C1781.72,900.751 1785.92,894.951 1785.92,889.851 C1785.92,888.451 1785.62,887.051 1784.92,885.851"/>
<path class="Note" d="M1964.34,860.849 C1962.84,858.149 1959.94,856.449 1956.04,856.049 C1955.44,855.949 1954.94,855.949 1954.34,855.949 C1950.84,855.949 1947.04,856.949 1943.54,858.849 C1936.94,862.449 1932.84,868.349 1932.84,873.449 C1932.84,874.849 1933.04,876.149 1933.74,877.349 C1935.24,880.049 1938.24,881.749 1942.14,882.149 C1942.74,882.249 1943.24,882.249 1943.84,882.249 C1947.34,882.249 1951.04,881.249 1954.54,879.349 C1961.14,875.749 1965.34,869.949 1965.34,864.849 C1965.34,863.449 1965.04,862.049 1964.34,860.849"/>
<path class="Note" d="M2273.51,1035.86 C2272.01,1033.16 2269.11,1031.46 2265.21,1031.06 C2264.61,1030.96 2264.11,1030.96 2263.51,1030.96 C2260.01,1030.96 2256.21,1031.96 2252.71,1033.86 C2246.11,1037.46 2242.01,1043.36 2242.01,1048.46 C2242.01,1049.86 2242.21,1051.16 2242.91,1052.36 C2244.41,1055.06 2247.41,1056.76 2251.31,1057.16 C2251.91,1057.26 2252.41,1057.26 2253.01,1057.26 C2256.51,1057.26 2260.21,1056.26 2263.71,1054.36 C2270.31,1050.76 2274.51,1044.96 2274.51,1039.86 C2274.51,1038.46 2274.21,1037.06 2273.51,1035.86"/>
<path class="Note" d="M2446.21,1010.86 C2444.71,1008.16 2441.81,1006.46 2437.91,1006.06 C2437.31,1005.96 2436.81,1005.96 2436.21,1005.96 C2432.71,1005.96 2428.91,1006.96 2425.41,1008.86 C2418.81,1012.46 2414.71,1018.36 2414.71,1023.46 C2414.71,1024.86 2414.91,1026.16 2415.61,1027.36 C2417.11,1030.06 2420.11,1031.76 2424.01,1032.16 C2424.61,1032.26 2425.11,1032.26 2425.71,1032.26 C2429.21,1032.26 2432.91,1031.26 2436.41,1029.36 C2443.01,1025.76 2447.21,1019.96 2447.21,1014.86 C2447.21,1013.46 2446.91,1012.06 2446.21,1010.86"/>
<path class="Note" d="M2618.92,985.857 C2617.42,983.157 2614.52,981.457 2610.62,981.057 C2610.02,980.957 2609.52,980.957 2608.92,980.957 C2605.42,980.957 2601.62,981.957 2598.12,983.857 C2591.52,987.457 2587.42,993.357 2587.42,998.457 C2587.42,999.857 2587.62,1001.16 2588.32,1002.36 C2589.82,1005.06 2592.82,1006.76 2596.72,1007.16 C2597.32,1007.26 2597.82,1007.26 2598.42,1007.26 C2601.92,1007.26 2605.62,1006.26 2609.12,1004.36 C2615.72,1000.76 2619.92,994.957 2619.92,989.857 C2619.92,988.457 2619.62,987.057 2618.92,985.857"/>
<path class="Note" d="M429.6,1598.4 C428.1,1595.7 425.2,1594 421.3,1593.6 C420.7,1593.5 420.2,1593.5 419.6,1593.5 C416.1,1593.5 412.3,1594.5 408.8,1596.4 C402.2,1600 398.1,1605.9 398.1,1611 C398.1,1612.4 398.3,1613.7 399,1614.9 C400.5,1617.6 403.5,1619.3 407.4,1619.7 C408,1619.8 408.5,1619.8 409.1,1619.8 C412.6,1619.8 416.3,1618.8 419.8,1616.9 C426.4,1613.3 430.6,1607.5 430.6,1602.4 C430.6,1601 430.3,1599.6 429.6,1598.4"/>
<path class="Note" d="M607.693,1635.9 C606.193,1633.2 603.293,1631.5 599.393,1631.1 C598.793,1631 598.293,1631 597.693,1631 C594.193,1631 590.393,1632 586.893,1633.9 C580.293,1637.5 576.193,1643.4 576.193,1648.5 C576.193,1649.9 576.393,1651.2 577.093,1652.4 C578.593,1655.1 581.593,1656.8 585.493,1657.2 C586.093,1657.3 586.593,1657.3 587.193,1657.3 C590.693,1657.3 594.393,1656.3 597.893,1654.4 C604.493,1650.8 608.693,1645 608.693,1639.9 C608.693,1638.5 608.393,1637.1 607.693,1635.9"/>
<path class="Note" d="M785.787,1660.9 C784.287,1658.2 781.387,1656.5 777.487,1656.1 C776.887,1656 776.387,1656 775.787,1656 C772.287,1656 768.487,1657 764.987,1658.9 C758.387,1662.5 754.287,1668.4 754.287,1673.5 C754.287,1674.9 754.487,1676.2 755.187,1677.4 C756.687,1680.1 759.687,1681.8 763.587,1682.2 C764.187,1682.3 764.687,1682.3 765.287,1682.3 C768.787,1682.3 772.487,1681.3 775.987,1679.4 C782.587,1675.8 786.787,1670 786.787,1664.9 C786.787,1663.5 786.487,1662.1 785.787,1660.9"/>
<path class="Note" d="M1000.88,1635.9 C999.382,1633.2 996.482,1631.5 992.582,1631.1 C991.982,1631 991.482,1631 990.882,1631 C987.382,1631 983.582,1632 980.082,1633.9 C973.482,1637.5 969.382,1643.4 969.382,1648.5 C969.382,1649.9 969.582,1651.2 970.282,1652.4 C971.782,1655.1 974.782,1656.8 978.682,1657.2 C979.282,1657.3 979.782,1657.3 980.382,1657.3 C983.882,1657.3 987.582,1656.3 991.082,1654.4 C997.682,1650.8 1001.88,1645 1001.88,1639.9 C1001.88,1638.5 1001.58,1637.1 1000.88,1635.9"/>
<path class="Note" d="M1185.68,1660.9 C1184.18,1658.2 1181.28,1656.5 1177.38,1656.1 C1176.78,1656 1176.28,1656 1175.68,1656 C1172.18,1656 1168.38,1657 1164.88,1658.9 C1158.28,1662.5 1154.18,1668.4 1154.18,1673.5 C1154.18,1674.9 1154.38,1676.2 1155.08,1677.4 C1156.58,1680.1 1159.58,1681.8 1163.48,1682.2 C1164.08,1682.3 1164.58,1682.3 1165.18,1682.3 C1168.68,1682.3 1172.38,1681.3 1175.88,1679.4 C1182.48,1675.8 1186.68,1670 1186.68,1664.9 C1186.68,1663.5 1186.38,1662.1 1185.68,1660.9"/>
<path class="Note" d="M1370.49,1685.9 C1368.99,1683.2 1366.09,1681.5 1362.19,1681.1 C1361.59,1681 1361.09,1681 1360.49,1681 C1356.99,1681 1353.19,1682 1349.69,1683.9 C1343.09,1687.5 1338.99,1693.4 1338.99,1698.5 C1338.99,1699.9 1339.19,1701.2 1339.89,1702.4 C1341.39,1705.1 1344.39,1706.8 1348.29,1707.2 C1348.89,1707.3 1349.39,1707.3 1349.99,1707.3 C1353.49,1707.3 1357.19,1706.3 1360.69,1704.4 C1367.29,1700.8 1371.49,1695 1371.49,1689.9 C1371.49,1688.5 1371.19,1687.1 1370.49,1685.9"/>
<path class="Note" d="M1678.69,1498.39 C1677.19,1495.69 1674.29,1493.99 1670.39,1493.59 C1669.79,1493.49 1669.29,1493.49 1668.69,1493.49 C1665.19,1493.49 1661.39,1494.49 1657.89,1496.39 C1651.29,1499.99 1647.19,1505.89 1647.19,1510.99 C1647.19,1512.39 1647.39,1513.69 1648.09,1514.89 C1649.59,1517.59 1652.59,1519.29 1656.49,1519.69 C1657.09,1519.79 1657.59,1519.79 1658.19,1519.79 C1661.69,1519.79 1665.39,1518.79 1668.89,1516.89 C1675.49,1513.29 1679.69,1507.49 1679.69,1502.39 C1679.69,1500.99 1679.39,1499.59 1678.69,1498.39"/>
<path class="Note" d="M1853.43,1535.89 C1851.93,1533.19 1849.03,1531.49 1845.13,1531.09 C1844.53,1530.99 1844.03,1530.99 1843.43,1530.99 C1839.93,1530.99 1836.13,1531.99 1832.63,1533.89 C1826.03,1537.49 1821.93,1543.39 1821.93,1548.49 C1821.93,1549.89 1822.13,1551.19 1822.83,1552.39 C1824.33,1555.09 1827.33,1556.79 1831.23,1557.19 C1831.83,1557.29 1832.33,1557.29 1832.93,1557.29 C1836.43,1557.29 1840.13,1556.29 1843.63,1554.39 C1850.23,1550.79 1854.43,1544.99 1854.43,1539.89 C1854.43,1538.49 1854.13,1537.09 1853.43,1535.89"/>
<path class="Note" d="M2028.17,1560.89 C2026.67,1558.19 2023.77,1556.49 2019.87,1556.09 C2019.27,1555.99 2018.77,1555.99 2018.17,1555.99 C2014.67,1555.99 2010.87,1556.99 2007.37,1558.89 C2000.77,1562.49 1996.67,1568.39 1996.67,1573.49 C1996.67,1574.89 1996.87,1576.19 1997.57,1577.39 C1999.07,1580.09 2002.07,1581.79 2005.97,1582.19 C2006.57,1582.29 2007.07,1582.29 2007.67,1582.29 C2011.17,1582.29 2014.87,1581.29 2018.37,1579.39 C2024.97,1575.79 2029.17,1569.99 2029.17,1564.89 C2029.17,1563.49 2028.87,1562.09 2028.17,1560.89"/>
<path class="Note" d="M2239.91,1535.89 C2238.41,1533.19 2235.51,1531.49 2231.61,1531.09 C2231.01,1530.99 2230.51,1530.99 2229.91,1530.99 C2226.41,1530.99 2222.61,1531.99 2219.11,1533.89 C2212.51,1537.49 2208.41,1543.39 2208.41,1548.49 C2208.41,1549.89 2208.61,1551.19 2209.31,1552.39 C2210.81,1555.09 2213.81,1556.79 2217.71,1557.19 C2218.31,1557.29 2218.81,1557.29 2219.41,1557.29 C2222.91,1557.29 2226.61,1556.29 2230.11,1554.39 C2236.71,1550.79 2240.91,1544.99 2240.91,1539.89 C2240.91,1538.49 2240.61,1537.09 2239.91,1535.89"/>
<path class="Note" d="M2414.65,1560.89 C2413.15,1558.19 2410.25,1556.49 2406.35,1556.09 C2405.75,1555.99 2405.25,1555.99 2404.65,1555.99 C2401.15,1555.99 2397.35,1556.99 2393.85,1558.89 C2387.25,1562.49 2383.15,1568.39 2383.15,1573.49 C2383.15,1574.89 2383.35,1576.19 2384.05,1577.39 C2385.55,1580.09 2388.55,1581.79 2392.45,1582.19 C2393.05,1582.29 2393.55,1582.29 2394.15,1582.29 C2397.65,1582.29 2401.35,1581.29 2404.85,1579.39 C2411.45,1575.79 2415.65,1569.99 2415.65,1564.89 C2415.65,1563.49 2415.35,1562.09 2414.65,1560.89"/>
<path class="Note" d="M2589.39,1585.9 C2587.89,1583.2 2584.99,1581.5 2581.09,1581.1 C2580.49,1581 2579.99,1581 2579.39,1581 C2575.89,1581 2572.09,1582 2568.59,1583.9 C2561.99,1587.5 2557.89,1593.4 2557.89,1598.5 C2557.89,1599.9 2558.09,1601.2 2558.79,1602.4 C2560.29,1605.1 2563.29,1606.8 2567.19,1607.2 C2567.79,1607.3 2568.29,1607.3 2568.89,1607.3 C2572.39,1607.3 2576.09,1606.3 2579.59,1604.4 C2586.19,1600.8 2590.39,1595 2590.39,1589.9 C2590.39,1588.5 2590.09,1587.1 2589.39,1585.9"/>
<path class="Note" d="M495.253,773.344 C493.753,770.644 490.853,768.944 486.953,768.544 C486.353,768.444 485.853,768.444 485.253,768.444 C481.753,768.444 477.953,769.444 474.453,771.344 C467.853,774.944 463.753,780.844 463.753,785.944 C463.753,787.344 463.953,788.644 464.653,789.844 C466.153,792.544 469.153,794.244 473.053,794.644 C473.653,794.744 474.153,794.744 474.753,794.744 C478.253,794.744 481.953,793.744 485.453,791.844 C492.053,788.244 496.253,782.444 496.253,777.344 C496.253,775.944 495.953,774.544 495.253,773.344"/>
<path class="Note" d="M667.961,748.342 C666.461,745.642 663.561,743.942 659.661,743.542 C659.061,743.442 658.561,743.442 657.961,743.442 C654.461,743.442 650.661,744.442 647.161,746.342 C640.561,749.942 636.461,755.842 636.461,760.942 C636.461,762.342 636.661,763.642 637.361,764.842 C638.861,767.542 641.861,769.242 645.761,769.642 C646.361,769.742 646.861,769.742 647.461,769.742 C650.961,769.742 654.661,768.742 658.161,766.842 C664.761,763.242 668.961,757.442 668.961,752.342 C668.961,750.942 668.661,749.542 667.961,748.342"/>
<path class="Note" d="M840.669,723.341 C839.169,720.641 836.269,718.941 832.369,718.541 C831.769,718.441 831.269,718.441 830.669,718.441 C827.169,718.441 823.369,719.441 819.869,721.341 C813.269,724.941 809.169,730.841 809.169,735.941 C809.169,737.341 809.369,738.641 810.069,739.841 C811.569,742.541 814.569,744.241 818.469,744.641 C819.069,744.741 819.569,744.741 820.169,744.741 C823.669,744.741 827.369,743.741 830.869,741.841 C837.469,738.241 841.669,732.441 841.669,727.341 C841.669,725.941 841.369,724.541 840.669,723.341"/>
<path class="Note" d="M1050.38,748.342 C1048.88,745.642 1045.98,743.942 1042.08,743.542 C1041.48,743.442 1040.98,743.442 1040.38,743.442 C1036.88,743.442 1033.08,744.442 1029.58,746.342 C1022.98,749.942 1018.88,755.842 1018.88,760.942 C1018.88,762.342 1019.08,763.642 1019.78,764.842 C1021.28,767.542 1024.28,769.242 1028.18,769.642 C1028.78,769.742 1029.28,769.742 1029.88,769.742 C1033.38,769.742 1037.08,768.742 1040.58,766.842 C1047.18,763.242 1051.38,757.442 1051.38,752.342 C1051.38,750.942 1051.08,749.542 1050.38,748.342"/>
<path class="Note" d="M1223.09,723.341 C1221.59,720.641 1218.69,718.941 1214.79,718.541 C1214.19,718.441 1213.69,718.441 1213.09,718.441 C1209.59,718.441 1205.79,719.441 1202.29,721.341 C1195.69,724.941 1191.59,730.841 1191.59,735.941 C1191.59,737.341 1191.79,738.641 1192.49,739.841 C1193.99,742.541 1196.99,744.241 1200.89,744.641 C1201.49,744.741 1201.99,744.741 1202.59,744.741 C1206.09,744.741 1209.79,743.741 1213.29,741.841 C1219.89,738.241 1224.09,732.441 1224.09,727.341 C1224.09,725.941 1223.79,724.541 1223.09,723.341"/>
<path class="Note" d="M1395.8,685.838 C1394.3,683.138 1391.4,681.438 1387.5,681.038 C1386.9,680.938 1386.4,680.938 1385.8,680.938 C1382.3,680.938 1378.5,681.938 1375,683.838 C1368.4,687.438 1364.3,693.338 1364.3,698.438 C1364.3,699.838 1364.5,701.138 1365.2,702.338 C1366.7,705.038 1369.7,706.738 1373.6,707.138 C1374.2,707.238 1374.7,707.238 1375.3,707.238 C1378.8,707.238 1382.5,706.238 1386,704.338 C1392.6,700.738 1396.8,694.938 1396.8,689.838 C1396.8,688.438 1396.5,687.038 1395.8,685.838"/>
<path class="Note" d="M1605.51,723.341 C1604.01,720.641 1601.11,718.941 1597.21,718.541 C1596.61,718.441 1596.11,718.441 1595.51,718.441 C1592.01,718.441 1588.21,719.441 1584.71,721.341 C1578.11,724.941 1574.01,730.841 1574.01,735.941 C1574.01,737.341 1574.21,738.641 1574.91,739.841 C1576.41,742.541 1579.41,744.241 1583.31,744.641 C1583.91,744.741 1584.41,744.741 1585.01,744.741 C1588.51,744.741 1592.21,743.741 1595.71,741.841 C1602.31,738.241 1606.51,732.441 1606.51,727.341 C1606.51,725.941 1606.21,724.541 1605.51,723.341"/>
<path class="Note" d="M1784.92,685.838 C1783.42,683.138 1780.52,681.438 1776.62,681.038 C1776.02,680.938 1775.52,680.938 1774.92,680.938 C1771.42,680.938 1767.62,681.938 1764.12,683.838 C1757.52,687.438 1753.42,693.338 1753.42,698.438 C1753.42,699.838 1753.62,701.138 1754.32,702.338 C1755.82,705.038 1758.82,706.738 1762.72,707.138 C1763.32,707.238 1763.82,707.238 1764.42,707.238 C1767.92,707.238 1771.62,706.238 1775.12,704.338 C1781.72,700.738 1785.92,694.938 1785.92,689.838 C1785.92,688.438 1785.62,687.038 1784.92,685.838"/>
<path class="Note" d="M1964.34,660.837 C1962.84,658.137 1959.94,656.437 1956.04,656.037 C1955.44,655.937 1954.94,655.937 1954.34,655.937 C1950.84,655.937 1947.04,656.937 1943.54,658.837 C1936.94,662.437 1932.84,668.337 1932.84,673.437 C1932.84,674.837 1933.04,676.137 1933.74,677.337 C1935.24,680.037 1938.24,681.737 1942.14,682.137 C1942.74,682.237 1943.24,682.237 1943.84,682.237 C1947.34,682.237 1951.04,681.237 1954.54,679.337 C1961.14,675.737 1965.34,669.937 1965.34,664.837 C1965.34,663.437 1965.04,662.037 1964.34,660.837"/>
<path class="Note" d="M2273.51,685.838 C2272.01,683.138 2269.11,681.438 2265.21,681.038 C2264.61,680.938 2264.11,680.938 2263.51,680.938 C2260.01,680.938 2256.21,681.938 2252.71,683.838 C2246.11,687.438 2242.01,693.338 2242.01,698.438 C2242.01,699.838 2242.21,701.138 2242.91,702.338 C2244.41,705.038 2247.41,706.738 2251.31,707.138 C2251.91,707.238 2252.41,707.238 2253.01,707.238 C2256.51,707.238 2260.21,706.238 2263.71,704.338 C2270.31,700.738 2274.51,694.938 2274.51,689.838 C2274.51,688.438 2274.21,687.038 2273.51,685.838"/>
<path class="Note" d="M2446.21,660.837 C2444.71,658.137 2441.81,656.437 2437.91,656.037 C2437.31,655.937 2436.81,655.937 2436.21,655.937 C2432.71,655.937 2428.91,656.937 2425.41,658.837 C2418.81,662.437 2414.71,668.337 2414.71,673.437 C2414.71,674.837 2414.91,676.137 2415.61,677.337 C2417.11,680.037 2420.11,681.737 2424.01,682.137 C2424.61,682.237 2425.11,682.237 2425.71,682.237 C2429.21,682.237 2432.91,681.237 2436.41,679.337 C2443.01,675.737 2447.21,669.937 2447.21,664.837 C2447.21,663.437 2446.91,662.037 2446.21,660.837"/>
<path class="Note" d="M2618.92,635.835 C2617.42,633.135 2614.52,631.435 2610.62,631.035 C2610.02,630.935 2609.52,630.935 2608.92,630.935 C2605.42,630.935 2601.62,631.935 2598.12,633.835 C2591.52,637.435 2587.42,643.335 2587.42,648.435 C2587.42,649.835 2587.62,651.135 2588.32,652.335 C2589.82,655.035 2592.82,656.735 2596.72,657.135 C2597.32,657.235 2597.82,657.235 2598.42,657.235 C2601.92,657.235 2605.62,656.235 2609.12,654.335 C2615.72,650.735 2619.92,644.935 2619.92,639.835 C2619.92,638.435 2619.62,637.035 2618.92,635.835"/>
<path class="Note" d="M429.6,1248.37 C428.1,1245.67 425.2,1243.97 421.3,1243.57 C420.7,1243.47 420.2,1243.47 419.6,1243.47 C416.1,1243.47 412.3,1244.47 408.8,1246.37 C402.2,1249.97 398.1,1255.87 398.1,1260.97 C398.1,1262.37 398.3,1263.67 399,1264.87 C400.5,1267.57 403.5,1269.27 407.4,1269.67 C408,1269.77 408.5,1269.77 409.1,1269.77 C412.6,1269.77 416.3,1268.77 419.8,1266.87 C426.4,1263.27 430.6,1257.47 430.6,1252.37 C430.6,1250.97 430.3,1249.57 429.6,1248.37"/>
<path class="Note" d="M607.693,1285.88 C606.193,1283.18 603.293,1281.48 599.393,1281.08 C598.793,1280.98 598.293,1280.98 597.693,1280.98 C594.193,1280.98 590.393,1281.98 586.893,1283.88 C580.293,1287.48 576.193,1293.38 576.193,1298.48 C576.193,1299.88 576.393,1301.18 577.093,1302.38 C578.593,1305.08 581.593,1306.78 585.493,1307.18 C586.093,1307.28 586.593,1307.28 587.193,1307.28 C590.693,1307.28 594.393,1306.28 597.893,1304.38 C604.493,1300.78 608.693,1294.98 608.693,1289.88 C608.693,1288.48 608.393,1287.08 607.693,1285.88"/>
<path class="Note" d="M785.787,1310.88 C784.287,1308.18 781.387,1306.48 777.487,1306.08 C776.887,1305.98 776.387,1305.98 775.787,1305.98 C772.287,1305.98 768.487,1306.98 764.987,1308.88 C758.387,1312.48 754.287,1318.38 754.287,1323.48 C754.287,1324.88 754.487,1326.18 755.187,1327.38 C756.687,1330.08 759.687,1331.78 763.587,1332.18 C764.187,1332.28 764.687,1332.28 765.287,1332.28 C768.787,1332.28 772.487,1331.28 775.987,1329.38 C782.587,1325.78 786.787,1319.98 786.787,1314.88 C786.787,1313.48 786.487,1312.08 785.787,1310.88"/>
<path class="Note" d="M1000.88,1285.88 C999.382,1283.18 996.482,1281.48 992.582,1281.08 C991.982,1280.98 991.482,1280.98 990.882,1280.98 C987.382,1280.98 983.582,1281.98 980.082,1283.88 C973.482,1287.48 969.382,1293.38 969.382,1298.48 C969.382,1299.88 969.582,1301.18 970.282,1302.38 C971.782,1305.08 974.782,1306.78 978.682,1307.18 C979.282,1307.28 979.782,1307.28 980.382,1307.28 C983.882,1307.28 987.582,1306.28 991.082,1304.38 C997.682,1300.78 1001.88,1294.98 1001.88,1289.88 C1001.88,1288.48 1001.58,1287.08 1000.88,1285.88"/>
<path class="Note" d="M1185.68,1310.88 C1184.18,1308.18 1181.28,1306.48 1177.38,1306.08 C1176.78,1305.98 1176.28,1305.98 1175.68,1305.98 C1172.18,1305.98 1168.38,1306.98 1164.88,1308.88 C1158.28,1312.48 1154.18,1318.38 1154.18,1323.48 C1154.18,1324.88 1154.38,1326.18 1155.08,1327.38 C1156.58,1330.08 1159.58,1331.78 1163.48,1332.18 C1164.08,1332.28 1164.58,1332.28 1165.18,1332.28 C1168.68,1332.28 1172.38,1331.28 1175.88,1329.38 C1182.48,1325.78 1186.68,1319.98 1186.68,1314.88 C1186.68,1313.48 1186.38,1312.08 1185.68,1310.88"/>
<path class="Note" d="M1370.49,1335.88 C1368.99,1333.18 1366.09,1331.48 1362.19,1331.08 C1361.59,1330.98 1361.09,1330.98 1360.49,1330.98 C1356.99,1330.98 1353.19,1331.98 1349.69,1333.88 C1343.09,1337.48 1338.99,1343.38 1338.99,1348.48 C1338.99,1349.88 1339.19,1351.18 1339.89,1352.38 C1341.39,1355.08 1344.39,1356.78 1348.29,1357.18 C1348.89,1357.28 1349.39,1357.28 1349.99,1357.28 C1353.49,1357.28 1357.19,1356.28 1360.69,1354.38 C1367.29,1350.78 1371.49,1344.98 1371.49,1339.88 C1371.49,1338.48 1371.19,1337.08 1370.49,1335.88"/>
<path class="Note" d="M1678.69,1298.38 C1677.19,1295.68 1674.29,1293.98 1670.39,1293.58 C1669.79,1293.48 1669.29,1293.48 1668.69,1293.48 C1665.19,1293.48 1661.39,1294.48 1657.89,1296.38 C1651.29,1299.98 1647.19,1305.88 1647.19,1310.98 C1647.19,1312.38 1647.39,1313.68 1648.09,1314.88 C1649.59,1317.58 1652.59,1319.28 1656.49,1319.68 C1657.09,1319.78 1657.59,1319.78 1658.19,1319.78 C1661.69,1319.78 1665.39,1318.78 1668.89,1316.88 C1675.49,1313.28 1679.69,1307.48 1679.69,1302.38 C1679.69,1300.98 1679.39,1299.58 1678.69,1298.38"/>
<path class="Note" d="M1853.43,1335.88 C1851.93,1333.18 1849.03,1331.48 1845.13,1331.08 C1844.53,1330.98 1844.03,1330.98 1843.43,1330.98 C1839.93,1330.98 1836.13,1331.98 1832.63,1333.88 C1826.03,1337.48 1821.93,1343.38 1821.93,1348.48 C1821.93,1349.88 1822.13,1351.18 1822.83,1352.38 C1824.33,1355.08 1827.33,1356.78 1831.23,1357.18 C1831.83,1357.28 1832.33,1357.28 1832.93,1357.28 C1836.43,1357.28 1840.13,1356.28 1843.63,1354.38 C1850.23,1350.78 1854.43,1344.98 1854.43,1339.88 C1854.43,1338.48 1854.13,1337.08 1853.43,1335.88"/>
<path class="Note" d="M2028.17,1360.88 C2026.67,1358.18 2023.77,1356.48 2019.87,1356.08 C2019.27,1355.98 2018.77,1355.98 2018.17,1355.98 C2014.67,1355.98 2010.87,1356.98 2007.37,1358.88 C2000.77,1362.48 1996.67,1368.38 1996.67,1373.48 C1996.67,1374.88 1996.87,1376.18 1997.57,1377.38 C1999.07,1380.08 2002.07,1381.78 2005.97,1382.18 C2006.57,1382.28 2007.07,1382.28 2007.67,1382.28 C2011.17,1382.28 2014.87,1381.28 2018.37,1379.38 C2024.97,1375.78 2029.17,1369.98 2029.17,1364.88 C2029.17,1363.48 2028.87,1362.08 2028.17,1360.88"/>
<path class="Note" d="M2239.91,1335.88 C2238.41,1333.18 2235.51,1331.48 2231.61,1331.08 C2231.01,1330.98 2230.51,1330.98 2229.91,1330.98 C2226.41,1330.98 2222.61,1331.98 2219.11,1333.88 C2212.51,1337.48 2208.41,1343.38 2208.41,1348.48 C2208.41,1349.88 2208.61,1351.18 2209.31,1352.38 C2210.81,1355.08 2213.81,1356.78 2217.71,1357.18 C2218.31,1357.28 2218.81,1357.28 2219.41,1357.28 C2222.91,1357.28 2226.61,1356.28 2230.11,1354.38 C2236.71,1350.78 2240.91,1344.98 2240.91,1339.88 C2240.91,1338.48 2240.61,1337.08 2239.91,1335.88"/>
<path class="Note" d="M2414.65,1360.88 C2413.15,1358.18 2410.25,1356.48 2406.35,1356.08 C2405.75,1355.98 2405.25,1355.98 2404.65,1355.98 C2401.15,1355.98 2397.35,1356.98 2393.85,1358.88 C2387.25,1362.48 2383.15,1368.38 2383.15,1373.48 C2383.15,1374.88 2383.35,1376.18 2384.05,1377.38 C2385.55,1380.08 2388.55,1381.78 2392.45,1382.18 C2393.05,1382.28 2393.55,1382.28 2394.15,1382.28 C2397.65,1382.28 2401.35,1381.28 2404.85,1379.38 C2411.45,1375.78 2415.65,1369.98 2415.65,1364.88 C2415.65,1363.48 2415.35,1362.08 2414.65,1360.88"/>
<path class="Note" d="M2589.39,1385.88 C2587.89,1383.18 2584.99,1381.48 2581.09,1381.08 C2580.49,1380.98 2579.99,1380.98 2579.39,1380.98 C2575.89,1380.98 2572.09,1381.98 2568.59,1383.88 C2561.99,1387.48 2557.89,1393.38 2557.89,1398.48 C2557.89,1399.88 2558.09,1401.18 2558.79,1402.38 C2560.29,1405.08 2563.29,1406.78 2567.19,1407.18 C2567.79,1407.28 2568.29,1407.28 2568.89,1407.28 C2572.39,1407.28 2576.09,1406.28 2579.59,1404.38 C2586.19,1400.78 2590.39,1394.98 2590.39,1389.88 C2590.39,1388.48 2590.09,1387.08 2589.39,1385.88"/>
<path class="Clef" d="M297,918.954 C289.4,918.954 283.3,923.354 283.2,923.354 C277.4,927.654 275.1,932.754 274.2,936.254 C273.7,938.054 273.5,939.854 273.5,941.554 C273.5,943.954 273.9,946.154 274.8,948.054 C276,950.754 278.3,952.654 281.3,953.654 C282.5,954.054 283.8,954.254 285.1,954.254 C287.3,954.254 289.6,953.654 291.5,952.554 C294.6,950.854 296.5,947.254 296.5,943.354 C296.5,939.854 294.7,936.654 291.7,934.754 C289.6,933.354 287.6,932.954 285.9,932.954 C284.7,932.954 283.6,933.154 282.7,933.454 C281.7,933.854 280,934.854 279.2,935.554 C279.5,933.654 280.7,930.754 281.8,929.154 C282.9,927.554 285.1,925.554 286.8,924.654 C289.3,923.254 292.5,922.654 296,922.654 C306.2,922.654 311.2,930.854 311.2,947.654 C311.2,956.954 307.7,965.854 304.7,971.754 C301.4,978.354 297,984.654 293.1,988.154 C282.7,997.654 272.9,1002.15 272.8,1002.15 C272.8,1002.15 271.3,1003.05 271.7,1004.55 C272,1005.55 272.9,1005.75 273.5,1005.75 C273.6,1005.75 273.9,1005.65 274,1005.65 C274.1,1005.65 285.5,1000.95 294.6,993.854 C299.7,990.154 304.3,986.154 308.3,981.854 C311.9,977.954 315,973.754 317.5,969.554 C321.9,962.054 324.4,954.254 324.4,947.554 C324.4,939.254 322.2,932.354 318.1,927.454 C313.4,921.854 306.3,918.954 297,918.954 M328.4,931.654 C328.4,934.454 330.6,936.654 333.2,936.654 C335.8,936.654 338,934.454 338,931.654 C338,928.854 335.8,926.554 333.2,926.554 C330.6,926.554 328.4,928.854 328.4,931.654 M328.4,956.354 C328.4,959.154 330.6,961.454 333.2,961.454 C335.8,961.454 338,959.154 338,956.354 C338,953.554 335.8,951.254 333.2,951.254 C330.6,951.254 328.4,953.554 328.4,956.354"/>
<path class="Clef" d="M2200.16,988.157 C2198.96,982.757 2196.26,978.857 2195.46,977.857 C2192.26,973.557 2188.26,970.757 2183.56,969.357 C2181.26,968.657 2179.16,968.457 2177.16,968.457 C2176.46,968.457 2175.76,968.457 2175.06,968.557 C2174.06,962.557 2172.96,956.657 2172.06,951.257 C2177.66,945.057 2181.36,939.157 2183.76,934.757 C2187.36,928.057 2188.76,923.357 2188.86,923.157 C2190.06,920.157 2190.76,916.357 2190.76,911.857 C2190.76,909.157 2190.46,906.257 2190.06,903.257 C2188.96,896.157 2186.76,889.457 2184.26,885.757 C2182.96,883.857 2181.76,882.757 2180.56,882.757 C2179.36,882.757 2176.86,883.957 2173.96,886.757 C2171.66,888.957 2168.36,892.857 2165.76,898.857 C2163.46,904.257 2162.76,911.157 2162.76,917.057 C2162.76,918.857 2162.86,920.557 2162.96,922.157 C2163.16,925.757 2163.86,931.557 2164.46,935.157 C2164.46,935.257 2164.76,936.757 2165.16,939.357 L2164.46,940.057 C2163.46,941.057 2162.26,942.157 2160.86,943.557 C2159.96,944.457 2159.06,945.257 2158.06,946.257 C2149.56,954.457 2136.76,966.857 2136.76,985.957 C2136.76,990.657 2137.66,995.057 2139.46,999.057 C2141.06,1002.66 2143.36,1005.96 2146.26,1008.86 C2153.76,1016.26 2163.96,1019.46 2171.06,1019.46 L2171.66,1019.46 C2174.56,1019.36 2177.26,1019.06 2179.66,1018.66 C2181.46,1028.26 2182.66,1035.36 2182.66,1040.66 C2182.66,1047.16 2181.06,1051.06 2177.16,1053.86 C2174.76,1055.56 2171.86,1056.66 2168.76,1056.76 L2167.96,1056.76 C2166.46,1056.76 2163.96,1056.36 2162.46,1055.96 C2162.46,1055.96 2162.16,1055.86 2162.16,1055.66 C2162.16,1055.46 2162.56,1055.46 2162.56,1055.46 C2164.46,1055.06 2168.06,1053.76 2170.46,1050.46 C2171.56,1048.96 2172.26,1046.66 2172.26,1044.16 C2172.26,1042.56 2171.96,1040.86 2171.26,1039.36 C2170.16,1036.96 2167.56,1033.96 2161.96,1033.56 L2160.86,1033.56 C2158.76,1033.56 2156.96,1034.06 2155.26,1035.06 C2153.46,1036.16 2151.86,1037.86 2150.86,1039.86 C2149.76,1041.86 2149.26,1044.06 2149.26,1046.26 C2149.26,1049.16 2150.16,1051.86 2151.96,1054.06 C2154.96,1057.66 2159.66,1059.96 2165.06,1060.56 C2165.76,1060.66 2166.86,1060.76 2167.56,1060.76 C2171.96,1060.76 2176.36,1059.56 2179.96,1057.36 C2183.66,1054.76 2185.76,1050.76 2186.46,1045.16 C2186.66,1043.86 2186.66,1042.46 2186.66,1040.96 C2186.66,1037.06 2186.16,1032.36 2185.16,1026.56 C2184.76,1024.46 2184.36,1021.46 2183.66,1017.66 C2189.46,1015.76 2193.56,1012.06 2197.36,1006.26 C2199.66,1002.26 2200.76,998.157 2200.76,993.857 C2200.76,991.957 2200.56,990.057 2200.16,988.157 M2169.96,910.257 C2171.76,904.557 2174.46,901.157 2176.46,899.457 C2178.26,897.957 2179.86,897.257 2180.76,897.257 C2180.86,897.257 2181.06,897.357 2181.16,897.357 C2181.46,897.457 2181.86,897.957 2182.26,898.657 C2183.16,900.457 2184.06,903.757 2184.06,907.457 C2184.06,909.357 2183.86,911.357 2183.26,913.157 C2181.06,919.957 2176.46,927.257 2169.46,934.957 C2169.26,933.857 2169.06,932.857 2168.96,931.857 C2168.46,928.657 2168.16,925.457 2168.16,922.557 C2168.16,918.057 2168.76,913.957 2169.96,910.257 M2165.96,1014.36 C2161.36,1013.16 2156.86,1010.66 2153.06,1007.16 C2151.76,1005.96 2149.96,1003.76 2148.46,1000.36 C2147.16,997.357 2146.46,994.257 2146.46,990.857 L2146.46,990.157 C2146.56,985.457 2147.86,980.657 2150.36,975.857 C2153.26,970.257 2157.76,964.757 2163.86,959.457 C2165.36,958.157 2166.76,956.857 2168.06,955.557 C2168.86,959.857 2169.56,964.557 2170.46,969.457 C2166.56,970.757 2161.86,973.757 2158.76,979.457 C2156.36,983.957 2155.66,987.857 2155.66,991.057 C2155.66,992.557 2155.86,993.957 2156.06,995.057 C2156.96,999.557 2159.56,1003.26 2163.06,1005.36 C2163.86,1005.86 2167.16,1007.56 2169.16,1007.56 C2169.46,1007.56 2169.76,1007.56 2169.96,1007.46 C2170.26,1007.36 2170.56,1007.16 2170.66,1006.86 C2170.76,1006.66 2170.76,1006.46 2170.76,1006.26 C2170.76,1005.46 2169.96,1004.86 2168.66,1004.06 C2168.06,1003.66 2167.36,1003.26 2166.66,1002.76 C2164.06,1000.76 2162.56,997.657 2162.56,994.257 C2162.56,993.257 2162.76,992.357 2162.96,991.357 C2163.46,989.357 2165.16,986.557 2166.66,985.157 C2168.36,983.657 2170.36,982.457 2172.76,981.857 C2174.76,993.057 2176.86,1004.16 2178.46,1012.56 C2178.56,1013.26 2178.76,1013.96 2178.86,1014.66 C2176.86,1015.06 2174.86,1015.26 2172.96,1015.26 C2170.56,1015.26 2168.26,1014.96 2165.96,1014.36 M2191.66,1004.16 C2190.46,1007.36 2187.96,1011.36 2182.86,1013.46 C2182.76,1013.06 2182.76,1012.56 2182.66,1012.16 C2181.16,1003.36 2179.26,992.457 2177.26,981.157 L2178.26,981.157 C2187.96,981.157 2191.86,988.357 2192.76,992.957 C2192.96,993.857 2193.06,995.057 2193.06,996.357 C2193.06,998.657 2192.66,1001.46 2191.66,1004.16"/>
<path class="Clef" d="M335,1600.7 C333.8,1595.3 331.1,1591.4 330.3,1590.4 C327.1,1586.1 323.1,1583.3 318.4,1581.9 C316.1,1581.2 314,1581 312,1581 C311.3,1581 310.6,1581 309.9,1581.1 C308.9,1575.1 307.8,1569.2 306.9,1563.8 C312.5,1557.6 316.2,1551.7 318.6,1547.3 C322.2,1540.6 323.6,1535.9 323.7,1535.7 C324.9,1532.7 325.6,1528.9 325.6,1524.4 C325.6,1521.7 325.3,1518.8 324.9,1515.8 C323.8,1508.7 321.6,1502 319.1,1498.3 C317.8,1496.4 316.6,1495.3 315.4,1495.3 C314.2,1495.3 311.7,1496.5 308.8,1499.3 C306.5,1501.5 303.2,1505.4 300.6,1511.4 C298.3,1516.8 297.6,1523.7 297.6,1529.6 C297.6,1531.4 297.7,1533.1 297.8,1534.7 C298,1538.3 298.7,1544.1 299.3,1547.7 C299.3,1547.8 299.6,1549.3 300,1551.9 L299.3,1552.6 C298.3,1553.6 297.1,1554.7 295.7,1556.1 C294.8,1557 293.9,1557.8 292.9,1558.8 C284.4,1567 271.6,1579.4 271.6,1598.5 C271.6,1603.2 272.5,1607.6 274.3,1611.6 C275.9,1615.2 278.2,1618.5 281.1,1621.4 C288.6,1628.8 298.8,1632 305.9,1632 L306.5,1632 C309.4,1631.9 312.1,1631.6 314.5,1631.2 C316.3,1640.8 317.5,1647.9 317.5,1653.2 C317.5,1659.7 315.9,1663.6 312,1666.4 C309.6,1668.1 306.7,1669.2 303.6,1669.3 L302.8,1669.3 C301.3,1669.3 298.8,1668.9 297.3,1668.5 C297.3,1668.5 297,1668.4 297,1668.2 C297,1668 297.4,1668 297.4,1668 C299.3,1667.6 302.9,1666.3 305.3,1663 C306.4,1661.5 307.1,1659.2 307.1,1656.7 C307.1,1655.1 306.8,1653.4 306.1,1651.9 C305,1649.5 302.4,1646.5 296.8,1646.1 L295.7,1646.1 C293.6,1646.1 291.8,1646.6 290.1,1647.6 C288.3,1648.7 286.7,1650.4 285.7,1652.4 C284.6,1654.4 284.1,1656.6 284.1,1658.8 C284.1,1661.7 285,1664.4 286.8,1666.6 C289.8,1670.2 294.5,1672.5 299.9,1673.1 C300.6,1673.2 301.7,1673.3 302.4,1673.3 C306.8,1673.3 311.2,1672.1 314.8,1669.9 C318.5,1667.3 320.6,1663.3 321.3,1657.7 C321.5,1656.4 321.5,1655 321.5,1653.5 C321.5,1649.6 321,1644.9 320,1639.1 C319.6,1637 319.2,1634 318.5,1630.2 C324.3,1628.3 328.4,1624.6 332.2,1618.8 C334.5,1614.8 335.6,1610.7 335.6,1606.4 C335.6,1604.5 335.4,1602.6 335,1600.7 M304.8,1522.8 C306.6,1517.1 309.3,1513.7 311.3,1512 C313.1,1510.5 314.7,1509.8 315.6,1509.8 C315.7,1509.8 315.9,1509.9 316,1509.9 C316.3,1510 316.7,1510.5 317.1,1511.2 C318,1513 318.9,1516.3 318.9,1520 C318.9,1521.9 318.7,1523.9 318.1,1525.7 C315.9,1532.5 311.3,1539.8 304.3,1547.5 C304.1,1546.4 303.9,1545.4 303.8,1544.4 C303.3,1541.2 303,1538 303,1535.1 C303,1530.6 303.6,1526.5 304.8,1522.8 M300.8,1626.9 C296.2,1625.7 291.7,1623.2 287.9,1619.7 C286.6,1618.5 284.8,1616.3 283.3,1612.9 C282,1609.9 281.3,1606.8 281.3,1603.4 L281.3,1602.7 C281.4,1598 282.7,1593.2 285.2,1588.4 C288.1,1582.8 292.6,1577.3 298.7,1572 C300.2,1570.7 301.6,1569.4 302.9,1568.1 C303.7,1572.4 304.4,1577.1 305.3,1582 C301.4,1583.3 296.7,1586.3 293.6,1592 C291.2,1596.5 290.5,1600.4 290.5,1603.6 C290.5,1605.1 290.7,1606.5 290.9,1607.6 C291.8,1612.1 294.4,1615.8 297.9,1617.9 C298.7,1618.4 302,1620.1 304,1620.1 C304.3,1620.1 304.6,1620.1 304.8,1620 C305.1,1619.9 305.4,1619.7 305.5,1619.4 C305.6,1619.2 305.6,1619 305.6,1618.8 C305.6,1618 304.8,1617.4 303.5,1616.6 C302.9,1616.2 302.2,1615.8 301.5,1615.3 C298.9,1613.3 297.4,1610.2 297.4,1606.8 C297.4,1605.8 297.6,1604.9 297.8,1603.9 C298.3,1601.9 300,1599.1 301.5,1597.7 C303.2,1596.2 305.2,1595 307.6,1594.4 C309.6,1605.6 311.7,1616.7 313.3,1625.1 C313.4,1625.8 313.6,1626.5 313.7,1627.2 C311.7,1627.6 309.7,1627.8 307.8,1627.8 C305.4,1627.8 303.1,1627.5 300.8,1626.9 M326.5,1616.7 C325.3,1619.9 322.8,1623.9 317.7,1626 C317.6,1625.6 317.6,1625.1 317.5,1624.7 C316,1615.9 314.1,1605 312.1,1593.7 L313.1,1593.7 C322.8,1593.7 326.7,1600.9 327.6,1605.5 C327.8,1606.4 327.9,1607.6 327.9,1608.9 C327.9,1611.2 327.5,1614 326.5,1616.7"/>
<path class="Clef" d="M1573.69,1531.49 C1566.09,1531.49 1559.99,1535.89 1559.89,1535.89 C1554.09,1540.19 1551.79,1545.29 1550.89,1548.79 C1550.39,1550.59 1550.19,1552.39 1550.19,1554.09 C1550.19,1556.49 1550.59,1558.69 1551.49,1560.59 C1552.69,1563.29 1554.99,1565.19 1557.99,1566.19 C1559.19,1566.59 1560.49,1566.79 1561.79,1566.79 C1563.99,1566.79 1566.29,1566.19 1568.19,1565.09 C1571.29,1563.39 1573.19,1559.79 1573.19,1555.89 C1573.19,1552.39 1571.39,1549.19 1568.39,1547.29 C1566.29,1545.89 1564.29,1545.49 1562.59,1545.49 C1561.39,1545.49 1560.29,1545.69 1559.39,1545.99 C1558.39,1546.39 1556.69,1547.39 1555.89,1548.09 C1556.19,1546.19 1557.39,1543.29 1558.49,1541.69 C1559.59,1540.09 1561.79,1538.09 1563.49,1537.19 C1565.99,1535.79 1569.19,1535.19 1572.69,1535.19 C1582.89,1535.19 1587.89,1543.39 1587.89,1560.19 C1587.89,1569.49 1584.39,1578.39 1581.39,1584.29 C1578.09,1590.89 1573.69,1597.19 1569.79,1600.69 C1559.39,1610.19 1549.59,1614.69 1549.49,1614.69 C1549.49,1614.69 1547.99,1615.59 1548.39,1617.09 C1548.69,1618.09 1549.59,1618.29 1550.19,1618.29 C1550.29,1618.29 1550.59,1618.19 1550.69,1618.19 C1550.79,1618.19 1562.19,1613.49 1571.29,1606.39 C1576.39,1602.69 1580.99,1598.69 1584.99,1594.39 C1588.59,1590.49 1591.69,1586.29 1594.19,1582.09 C1598.59,1574.59 1601.09,1566.79 1601.09,1560.09 C1601.09,1551.79 1598.89,1544.89 1594.79,1539.99 C1590.09,1534.39 1582.99,1531.49 1573.69,1531.49 M1605.09,1544.19 C1605.09,1546.99 1607.29,1549.19 1609.89,1549.19 C1612.49,1549.19 1614.69,1546.99 1614.69,1544.19 C1614.69,1541.39 1612.49,1539.09 1609.89,1539.09 C1607.29,1539.09 1605.09,1541.39 1605.09,1544.19 M1605.09,1568.89 C1605.09,1571.69 1607.29,1573.99 1609.89,1573.99 C1612.49,1573.99 1614.69,1571.69 1614.69,1568.89 C1614.69,1566.09 1612.49,1563.79 1609.89,1563.79 C1607.29,1563.79 1605.09,1566.09 1605.09,1568.89"/>
<path class="Clef" d="M335,725.641 C333.8,720.241 331.1,716.341 330.3,715.341 C327.1,711.041 323.1,708.241 318.4,706.841 C316.1,706.141 314,705.941 312,705.941 C311.3,705.941 310.6,705.941 309.9,706.041 C308.9,700.041 307.8,694.141 306.9,688.741 C312.5,682.541 316.2,676.641 318.6,672.241 C322.2,665.541 323.6,660.841 323.7,660.641 C324.9,657.641 325.6,653.841 325.6,649.341 C325.6,646.641 325.3,643.741 324.9,640.741 C323.8,633.641 321.6,626.941 319.1,623.241 C317.8,621.341 316.6,620.241 315.4,620.241 C314.2,620.241 311.7,621.441 308.8,624.241 C306.5,626.441 303.2,630.341 300.6,636.341 C298.3,641.741 297.6,648.641 297.6,654.541 C297.6,656.341 297.7,658.041 297.8,659.641 C298,663.241 298.7,669.041 299.3,672.641 C299.3,672.741 299.6,674.241 300,676.841 L299.3,677.541 C298.3,678.541 297.1,679.641 295.7,681.041 C294.8,681.941 293.9,682.741 292.9,683.741 C284.4,691.941 271.6,704.341 271.6,723.441 C271.6,728.141 272.5,732.541 274.3,736.541 C275.9,740.141 278.2,743.441 281.1,746.341 C288.6,753.741 298.8,756.941 305.9,756.941 L306.5,756.941 C309.4,756.841 312.1,756.541 314.5,756.141 C316.3,765.741 317.5,772.841 317.5,778.141 C317.5,784.641 315.9,788.541 312,791.341 C309.6,793.041 306.7,794.141 303.6,794.241 L302.8,794.241 C301.3,794.241 298.8,793.841 297.3,793.441 C297.3,793.441 297,793.341 297,793.141 C297,792.941 297.4,792.941 297.4,792.941 C299.3,792.541 302.9,791.241 305.3,787.941 C306.4,786.441 307.1,784.141 307.1,781.641 C307.1,780.041 306.8,778.341 306.1,776.841 C305,774.441 302.4,771.441 296.8,771.041 L295.7,771.041 C293.6,771.041 291.8,771.541 290.1,772.541 C288.3,773.641 286.7,775.341 285.7,777.341 C284.6,779.341 284.1,781.541 284.1,783.741 C284.1,786.641 285,789.341 286.8,791.541 C289.8,795.141 294.5,797.441 299.9,798.041 C300.6,798.141 301.7,798.241 302.4,798.241 C306.8,798.241 311.2,797.041 314.8,794.841 C318.5,792.241 320.6,788.241 321.3,782.641 C321.5,781.341 321.5,779.941 321.5,778.441 C321.5,774.541 321,769.841 320,764.041 C319.6,761.941 319.2,758.941 318.5,755.141 C324.3,753.241 328.4,749.541 332.2,743.741 C334.5,739.741 335.6,735.641 335.6,731.341 C335.6,729.441 335.4,727.541 335,725.641 M304.8,647.741 C306.6,642.041 309.3,638.641 311.3,636.941 C313.1,635.441 314.7,634.741 315.6,634.741 C315.7,634.741 315.9,634.841 316,634.841 C316.3,634.941 316.7,635.441 317.1,636.141 C318,637.941 318.9,641.241 318.9,644.941 C318.9,646.841 318.7,648.841 318.1,650.641 C315.9,657.441 311.3,664.741 304.3,672.441 C304.1,671.341 303.9,670.341 303.8,669.341 C303.3,666.141 303,662.941 303,660.041 C303,655.541 303.6,651.441 304.8,647.741 M300.8,751.841 C296.2,750.641 291.7,748.141 287.9,744.641 C286.6,743.441 284.8,741.241 283.3,737.841 C282,734.841 281.3,731.741 281.3,728.341 L281.3,727.641 C281.4,722.941 282.7,718.141 285.2,713.341 C288.1,707.741 292.6,702.241 298.7,696.941 C300.2,695.641 301.6,694.341 302.9,693.041 C303.7,697.341 304.4,702.041 305.3,706.941 C301.4,708.241 296.7,711.241 293.6,716.941 C291.2,721.441 290.5,725.341 290.5,728.541 C290.5,730.041 290.7,731.441 290.9,732.541 C291.8,737.041 294.4,740.741 297.9,742.841 C298.7,743.341 302,745.041 304,745.041 C304.3,745.041 304.6,745.041 304.8,744.941 C305.1,744.841 305.4,744.641 305.5,744.341 C305.6,744.141 305.6,743.941 305.6,743.741 C305.6,742.941 304.8,742.341 303.5,741.541 C302.9,741.141 302.2,740.741 301.5,740.241 C298.9,738.241 297.4,735.141 297.4,731.741 C297.4,730.741 297.6,729.841 297.8,728.841 C298.3,726.841 300,724.041 301.5,722.641 C303.2,721.141 305.2,719.941 307.6,719.341 C309.6,730.541 311.7,741.641 313.3,750.041 C313.4,750.741 313.6,751.441 313.7,752.141 C311.7,752.541 309.7,752.741 307.8,752.741 C305.4,752.741 303.1,752.441 300.8,751.841 M326.5,741.641 C325.3,744.841 322.8,748.841 317.7,750.941 C317.6,750.541 317.6,750.041 317.5,749.641 C316,740.841 314.1,729.941 312.1,718.641 L313.1,718.641 C322.8,718.641 326.7,725.841 327.6,730.441 C327.8,731.341 327.9,732.541 327.9,733.841 C327.9,736.141 327.5,738.941 326.5,741.641"/>
<path class="Clef" d="M335,1338.18 C333.8,1332.78 331.1,1328.88 330.3,1327.88 C327.1,1323.58 323.1,1320.78 318.4,1319.38 C316.1,1318.68 314,1318.48 312,1318.48 C311.3,1318.48 310.6,1318.48 309.9,1318.58 C308.9,1312.58 307.8,1306.68 306.9,1301.28 C312.5,1295.08 316.2,1289.18 318.6,1284.78 C322.2,1278.08 323.6,1273.38 323.7,1273.18 C324.9,1270.18 325.6,1266.38 325.6,1261.88 C325.6,1259.18 325.3,1256.28 324.9,1253.28 C323.8,1246.18 321.6,1239.48 319.1,1235.78 C317.8,1233.88 316.6,1232.78 315.4,1232.78 C314.2,1232.78 311.7,1233.98 308.8,1236.78 C306.5,1238.98 303.2,1242.88 300.6,1248.88 C298.3,1254.28 297.6,1261.18 297.6,1267.08 C297.6,1268.88 297.7,1270.58 297.8,1272.18 C298,1275.78 298.7,1281.58 299.3,1285.18 C299.3,1285.28 299.6,1286.78 300,1289.38 L299.3,1290.08 C298.3,1291.08 297.1,1292.18 295.7,1293.58 C294.8,1294.48 293.9,1295.28 292.9,1296.28 C284.4,1304.48 271.6,1316.88 271.6,1335.98 C271.6,1340.68 272.5,1345.08 274.3,1349.08 C275.9,1352.68 278.2,1355.98 281.1,1358.88 C288.6,1366.28 298.8,1369.48 305.9,1369.48 L306.5,1369.48 C309.4,1369.38 312.1,1369.08 314.5,1368.68 C316.3,1378.28 317.5,1385.38 317.5,1390.68 C317.5,1397.18 315.9,1401.08 312,1403.88 C309.6,1405.58 306.7,1406.68 303.6,1406.78 L302.8,1406.78 C301.3,1406.78 298.8,1406.38 297.3,1405.98 C297.3,1405.98 297,1405.88 297,1405.68 C297,1405.48 297.4,1405.48 297.4,1405.48 C299.3,1405.08 302.9,1403.78 305.3,1400.48 C306.4,1398.98 307.1,1396.68 307.1,1394.18 C307.1,1392.58 306.8,1390.88 306.1,1389.38 C305,1386.98 302.4,1383.98 296.8,1383.58 L295.7,1383.58 C293.6,1383.58 291.8,1384.08 290.1,1385.08 C288.3,1386.18 286.7,1387.88 285.7,1389.88 C284.6,1391.88 284.1,1394.08 284.1,1396.28 C284.1,1399.18 285,1401.88 286.8,1404.08 C289.8,1407.68 294.5,1409.98 299.9,1410.58 C300.6,1410.68 301.7,1410.78 302.4,1410.78 C306.8,1410.78 311.2,1409.58 314.8,1407.38 C318.5,1404.78 320.6,1400.78 321.3,1395.18 C321.5,1393.88 321.5,1392.48 321.5,1390.98 C321.5,1387.08 321,1382.38 320,1376.58 C319.6,1374.48 319.2,1371.48 318.5,1367.68 C324.3,1365.78 328.4,1362.08 332.2,1356.28 C334.5,1352.28 335.6,1348.18 335.6,1343.88 C335.6,1341.98 335.4,1340.08 335,1338.18 M304.8,1260.28 C306.6,1254.58 309.3,1251.18 311.3,1249.48 C313.1,1247.98 314.7,1247.28 315.6,1247.28 C315.7,1247.28 315.9,1247.38 316,1247.38 C316.3,1247.48 316.7,1247.98 317.1,1248.68 C318,1250.48 318.9,1253.78 318.9,1257.48 C318.9,1259.38 318.7,1261.38 318.1,1263.18 C315.9,1269.98 311.3,1277.28 304.3,1284.98 C304.1,1283.88 303.9,1282.88 303.8,1281.88 C303.3,1278.68 303,1275.48 303,1272.58 C303,1268.08 303.6,1263.98 304.8,1260.28 M300.8,1364.38 C296.2,1363.18 291.7,1360.68 287.9,1357.18 C286.6,1355.98 284.8,1353.78 283.3,1350.38 C282,1347.38 281.3,1344.28 281.3,1340.88 L281.3,1340.18 C281.4,1335.48 282.7,1330.68 285.2,1325.88 C288.1,1320.28 292.6,1314.78 298.7,1309.48 C300.2,1308.18 301.6,1306.88 302.9,1305.58 C303.7,1309.88 304.4,1314.58 305.3,1319.48 C301.4,1320.78 296.7,1323.78 293.6,1329.48 C291.2,1333.98 290.5,1337.88 290.5,1341.08 C290.5,1342.58 290.7,1343.98 290.9,1345.08 C291.8,1349.58 294.4,1353.28 297.9,1355.38 C298.7,1355.88 302,1357.58 304,1357.58 C304.3,1357.58 304.6,1357.58 304.8,1357.48 C305.1,1357.38 305.4,1357.18 305.5,1356.88 C305.6,1356.68 305.6,1356.48 305.6,1356.28 C305.6,1355.48 304.8,1354.88 303.5,1354.08 C302.9,1353.68 302.2,1353.28 301.5,1352.78 C298.9,1350.78 297.4,1347.68 297.4,1344.28 C297.4,1343.28 297.6,1342.38 297.8,1341.38 C298.3,1339.38 300,1336.58 301.5,1335.18 C303.2,1333.68 305.2,1332.48 307.6,1331.88 C309.6,1343.08 311.7,1354.18 313.3,1362.58 C313.4,1363.28 313.6,1363.98 313.7,1364.68 C311.7,1365.08 309.7,1365.28 307.8,1365.28 C305.4,1365.28 303.1,1364.98 300.8,1364.38 M326.5,1354.18 C325.3,1357.38 322.8,1361.38 317.7,1363.48 C317.6,1363.08 317.6,1362.58 317.5,1362.18 C316,1353.38 314.1,1342.48 312.1,1331.18 L313.1,1331.18 C322.8,1331.18 326.7,1338.38 327.6,1342.98 C327.8,1343.88 327.9,1345.08 327.9,1346.38 C327.9,1348.68 327.5,1351.48 326.5,1354.18"/>
<path class="TimeSig" d="M392.053,942.954 L392.253,942.954 C400.253,939.854 400.753,934.654 400.753,932.854 L400.753,932.354 C400.753,931.454 400.453,920.154 383.253,920.154 C366.053,920.154 366.553,932.354 366.553,932.354 L366.653,932.354 L366.553,932.554 C366.553,936.154 369.453,938.954 373.053,938.954 C376.653,938.954 379.453,936.154 379.453,932.554 C379.453,929.654 377.253,926.854 374.453,926.254 L374.753,925.954 C376.153,924.954 378.053,924.454 379.953,924.454 C384.153,924.454 388.653,926.954 388.653,932.354 C388.653,938.654 383.953,939.554 382.753,939.754 C381.553,939.954 375.953,940.354 374.753,940.354 C373.553,940.354 373.453,941.754 373.453,941.754 L373.453,943.754 C373.453,943.754 373.653,944.854 374.753,944.954 C376.453,945.054 378.753,945.054 381.953,945.554 C386.353,946.154 388.653,949.154 388.653,956.154 C388.653,962.854 384.153,964.654 379.953,964.654 C377.153,964.654 374.553,963.854 373.453,963.054 C376.753,962.854 379.453,959.954 379.453,956.654 C379.453,953.054 376.653,950.154 373.053,950.154 C369.453,950.154 366.553,953.054 366.553,956.654 C366.553,956.654 366.053,961.154 370.453,965.254 C374.353,968.854 379.253,968.954 381.453,968.954 C391.053,968.954 401.453,965.654 401.453,954.754 C401.453,947.454 396.453,944.354 392.053,942.954"/>
<path class="TimeSig" d="M365.2,1006.06 L382,1006.06 L382,1013.36 L373.9,1013.36 C373.1,1013.36 372.5,1013.96 372.5,1014.76 L372.5,1016.66 C372.5,1017.46 373.1,1017.96 373.9,1017.96 L403.6,1017.96 C404.4,1017.96 405,1017.46 405,1016.66 L405,1014.76 C405,1013.96 404.4,1013.36 403.6,1013.36 L394.8,1013.36 L394.8,1006.06 L403.6,1006.06 C404.4,1006.06 405,1005.46 405,1004.66 L405,1002.86 C405,1002.06 404.4,1001.46 403.6,1001.46 L394.8,1001.46 L394.8,985.758 C394.8,985.258 394.4,984.758 394,984.558 L392.9,983.958 C392.7,983.858 392.4,983.858 392.2,983.858 C391.9,983.858 391.5,983.958 391.3,984.158 L382.4,992.358 C382.2,992.558 382,993.058 382,993.358 L382,1001.46 L370.7,1001.46 C370.7,1001.46 381.6,989.658 393.2,974.158 C394,973.058 393.6,972.058 393.4,971.858 L391.3,969.658 C391.1,969.458 390.6,969.258 390.3,969.258 L375.7,969.258 C375,969.258 374.5,969.858 374.4,970.458 C374.4,970.458 373.9,977.658 371.3,985.658 C368.7,993.658 365.9,998.458 363.3,1002.06 C363.3,1002.06 362.8,1003.06 363.1,1003.76 C363.4,1004.46 364.1,1005.56 364.1,1005.56 C364.1,1005.56 364.4,1006.06 365.2,1006.06"/>
<path class="TimeSig" d="M392.053,680.438 L392.253,680.438 C400.253,677.338 400.753,672.138 400.753,670.338 L400.753,669.838 C400.753,668.938 400.453,657.638 383.253,657.638 C366.053,657.638 366.553,669.838 366.553,669.838 L366.653,669.838 L366.553,670.038 C366.553,673.638 369.453,676.438 373.053,676.438 C376.653,676.438 379.453,673.638 379.453,670.038 C379.453,667.138 377.253,664.338 374.453,663.738 L374.753,663.438 C376.153,662.438 378.053,661.938 379.953,661.938 C384.153,661.938 388.653,664.438 388.653,669.838 C388.653,676.138 383.953,677.038 382.753,677.238 C381.553,677.438 375.953,677.838 374.753,677.838 C373.553,677.838 373.453,679.238 373.453,679.238 L373.453,681.238 C373.453,681.238 373.653,682.338 374.753,682.438 C376.453,682.538 378.753,682.538 381.953,683.038 C386.353,683.638 388.653,686.638 388.653,693.638 C388.653,700.338 384.153,702.138 379.953,702.138 C377.153,702.138 374.553,701.338 373.453,700.538 C376.753,700.338 379.453,697.438 379.453,694.138 C379.453,690.538 376.653,687.638 373.053,687.638 C369.453,687.638 366.553,690.538 366.553,694.138 C366.553,694.138 366.053,698.638 370.453,702.738 C374.353,706.338 379.253,706.438 381.453,706.438 C391.053,706.438 401.453,703.138 401.453,692.238 C401.453,684.938 396.453,681.838 392.053,680.438"/>
<path class="TimeSig" d="M365.2,743.541 L382,743.541 L382,750.841 L373.9,750.841 C373.1,750.841 372.5,751.441 372.5,752.241 L372.5,754.141 C372.5,754.941 373.1,755.441 373.9,755.441 L403.6,755.441 C404.4,755.441 405,754.941 405,754.141 L405,752.241 C405,751.441 404.4,750.841 403.6,750.841 L394.8,750.841 L394.8,743.541 L403.6,743.541 C404.4,743.541 405,742.941 405,742.141 L405,740.341 C405,739.541 404.4,738.941 403.6,738.941 L394.8,738.941 L394.8,723.241 C394.8,722.741 394.4,722.241 394,722.041 L392.9,721.441 C392.7,721.341 392.4,721.341 392.2,721.341 C391.9,721.341 391.5,721.441 391.3,721.641 L382.4,729.841 C382.2,730.041 382,730.541 382,730.841 L382,738.941 L370.7,738.941 C370.7,738.941 381.6,727.141 393.2,711.641 C394,710.541 393.6,709.541 393.4,709.341 L391.3,707.141 C391.1,706.941 390.6,706.741 390.3,706.741 L375.7,706.741 C375,706.741 374.5,707.341 374.4,707.941 C374.4,707.941 373.9,715.141 371.3,723.141 C368.7,731.141 365.9,735.941 363.3,739.541 C363.3,739.541 362.8,740.541 363.1,741.241 C363.4,741.941 364.1,743.041 364.1,743.041 C364.1,743.041 364.4,743.541 365.2,743.541"/>
<path class="Page" d="M227.904,4035.06 L212.604,4056.34 L212.604,4058.86 L225.249,4058.86 L225.249,4061.2 C225.249,4063.5 225.249,4063.59 224.979,4063.99 C224.619,4064.49 223.764,4064.62 221.199,4064.62 L220.704,4064.62 L220.704,4066.74 L233.844,4066.74 L233.844,4064.62 L233.664,4064.62 C231.099,4064.62 230.244,4064.49 229.884,4063.99 C229.614,4063.59 229.614,4063.54 229.614,4061.2 L229.614,4058.86 L235.059,4058.86 L235.059,4056.34 L229.614,4056.34 L229.614,4044.06 C229.614,4038.43 229.614,4038.3 229.839,4035.06 L227.904,4035.06 M225.249,4056.34 L215.349,4056.34 L225.249,4042.71 L225.249,4056.34 M259.084,4057.02 L257.104,4057.02 L256.654,4059.31 C256.069,4062.24 255.709,4062.51 252.919,4062.51 L242.839,4062.51 C245.944,4059.27 246.979,4058.32 249.859,4056.07 C253.954,4052.92 255.709,4051.35 256.744,4050 C258.184,4048.02 258.904,4046.04 258.904,4043.83 C258.904,4038.7 254.674,4035.06 248.779,4035.06 C243.064,4035.06 238.699,4038.7 238.699,4043.52 C238.699,4046.35 240.139,4048.29 242.254,4048.29 C243.919,4048.29 245.044,4047.16 245.044,4045.54 C245.044,4044.42 244.414,4043.38 243.469,4042.98 C241.804,4042.3 241.714,4042.21 241.714,4041.63 C241.714,4040.95 242.164,4039.92 242.794,4039.15 C243.919,4037.76 245.764,4036.99 247.879,4036.99 C251.614,4036.99 253.819,4039.29 253.819,4043.07 C253.819,4046.4 252.244,4049.41 248.509,4053.37 C245.179,4056.88 243.109,4059.09 242.344,4059.94 C240.724,4061.83 239.914,4062.87 237.934,4065.48 L237.934,4066.74 L258.229,4066.74 L259.084,4057.02 "/>
<path class="Bracket" transform="matrix(3.62523,0,0,3.62523,214.469,1019.06)" d="M0.92002,-50 C2.69004,-51.88 6.2,-55.8 6.2,-63 C6.2,-72.1 2.25996,-81.32 2.25996,-86.97 C2.25996,-93.06 5.84004,-98.84 5.95,-99 C6.05996,-99.16 6.05,-99.39 5.94004,-99.46 C5.82998,-99.53 5.62002,-99.47 5.49004,-99.32 C5.35996,-99.17 0,-93.75 0,-85.6 C0,-76.75 3.5,-70.58 3.5,-59.07 C3.5,-56.89 2.55996,-53.36 0.1,-50.33 C-0.0799805,-50.17 -0.1,-49.89 0.0599609,-49.7 L0.0700195,-49.69 L0.1,-49.66 C2.55996,-46.63 3.5,-43.1 3.5,-40.92 C3.5,-29.4 0,-23.24 0,-14.39 C0,-6.25 5.35996,-0.8 5.49004,-0.659961 C5.62002,-0.52002 5.8,-0.42998 5.94004,-0.52002 C6.07998,-0.609961 6.07998,-0.77998 5.95,-0.97998 C5.82002,-1.17998 2.25996,-6.92002 2.25996,-13.01 C2.25996,-18.66 6.2,-27.9 6.2,-37 C6.2,-44.3 2.69004,-48.12 0.92002,-50"/>
<path class="Bracket" transform="matrix(3.62523,0,0,3.62523,214.469,1631.6)" d="M0.92002,-50 C2.69004,-51.88 6.2,-55.8 6.2,-63 C6.2,-72.1 2.25996,-81.32 2.25996,-86.97 C2.25996,-93.06 5.84004,-98.84 5.95,-99 C6.05996,-99.16 6.05,-99.39 5.94004,-99.46 C5.82998,-99.53 5.62002,-99.47 5.49004,-99.32 C5.35996,-99.17 0,-93.75 0,-85.6 C0,-76.75 3.5,-70.58 3.5,-59.07 C3.5,-56.89 2.55996,-53.36 0.1,-50.33 C-0.0799805,-50.17 -0.1,-49.89 0.0599609,-49.7 L0.0700195,-49.69 L0.1,-49.66 C2.55996,-46.63 3.5,-43.1 3.5,-40.92 C3.5,-29.4 0,-23.24 0,-14.39 C0,-6.25 5.35996,-0.8 5.49004,-0.659961 C5.62002,-0.52002 5.8,-0.42998 5.94004,-0.52002 C6.07998,-0.609961 6.07998,-0.77998 5.95,-0.97998 C5.82002,-1.17998 2.25996,-6.92002 2.25996,-13.01 C2.25996,-18.66 6.2,-27.9 6.2,-37 C6.2,-44.3 2.69004,-48.12 0.92002,-50"/>
</svg>
