<?xml version="1.0" encoding="UTF-8" standalone="no"?>
<svg width="2977.23px" height="4208.47px" viewBox="0 0 2977.23 4208.47"
 xmlns="http://www.w3.org/2000/svg" xmlns:xlink="http://www.w3.org/1999/xlink" version="1.2" baseProfile="tiny">
<title>exercises_scores (15)</title>
<desc>Generated by MuseScore 3.6.0</desc>
<polyline class="StaffLines" fill="none" stroke="#000000" stroke-width="2.75" stroke-linejoin="bevel" points="247.099,656.536 2764.63,656.536"/>
<polyline class="StaffLines" fill="none" stroke="#000000" stroke-width="2.75" stroke-linejoin="bevel" points="247.099,681.538 2764.63,681.538"/>
<polyline class="StaffLines" fill="none" stroke="#000000" stroke-width="2.75" stroke-linejoin="bevel" points="247.099,706.539 2764.63,706.539"/>
<polyline class="StaffLines" fill="none" stroke="#000000" stroke-width="2.75" stroke-linejoin="bevel" points="247.099,731.541 2764.63,731.541"/>
<polyline class="StaffLines" fill="none" stroke="#000000" stroke-width="2.75" stroke-linejoin="bevel" points="247.099,756.542 2764.63,756.542"/>
<polyline class="StaffLines" fill="none" stroke="#000000" stroke-width="2.75" stroke-linejoin="bevel" points="247.099,919.053 2764.63,919.053"/>
<polyline class="StaffLines" fill="none" stroke="#000000" stroke-width="2.75" stroke-linejoin="bevel" points="247.099,944.054 2764.63,944.054"/>
<polyline class="StaffLines" fill="none" stroke="#000000" stroke-width="2.75" stroke-linejoin="bevel" points="247.099,969.056 2764.63,969.056"/>
<polyline class="StaffLines" fill="none" stroke="#000000" stroke-width="2.75" stroke-linejoin="bevel" points="247.099,994.057 2764.63,994.057"/>
<polyline class="StaffLines" fill="none" stroke="#000000" stroke-width="2.75" stroke-linejoin="bevel" points="247.099,1019.06 2764.63,1019.06"/>
<polyline class="StaffLines" fill="none" stroke="#000000" stroke-width="2.75" stroke-linejoin="bevel" points="247.099,1269.07 2764.63,1269.07"/>
<polyline class="StaffLines" fill="none" stroke="#000000" stroke-width="2.75" stroke-linejoin="bevel" points="247.099,1294.08 2764.63,1294.08"/>
<polyline class="StaffLines" fill="none" stroke="#000000" stroke-width="2.75" stroke-linejoin="bevel" points="247.099,1319.08 2764.63,1319.08"/>
<polyline class="StaffLines" fill="none" stroke="#000000" stroke-width="2.75" stroke-linejoin="bevel" points="247.099,1344.08 2764.63,1344.08"/>
<polyline class="StaffLines" fill="none" stroke="#000000" stroke-width="2.75" stroke-linejoin="bevel" points="247.099,1369.08 2764.63,1369.08"/>
<polyline class="StaffLines" fill="none" stroke="#000000" stroke-width="2.75" stroke-linejoin="bevel" points="247.099,1531.59 2764.63,1531.59"/>
<polyline class="StaffLines" fill="none" stroke="#000000" stroke-width="2.75" stroke-linejoin="bevel" points="247.099,1556.59 2764.63,1556.59"/>
<polyline class="StaffLines" fill="none" stroke="#000000" stroke-width="2.75" stroke-linejoin="bevel" points="247.099,1581.59 2764.63,1581.59"/>
<polyline class="StaffLines" fill="none" stroke="#000000" stroke-width="2.75" stroke-linejoin="bevel" points="247.099,1606.6 2764.63,1606.6"/>
<polyline class="StaffLines" fill="none" stroke="#000000" stroke-width="2.75" stroke-linejoin="bevel" points="247.099,1631.6 2764.63,1631.6"/>
<path class="Text" d="M242.312,213.137 L240.092,213.137 L237.692,216.737 C234.812,214.037 231.032,212.597 226.772,212.597 C218.852,212.597 213.632,217.577 213.632,225.137 C213.632,231.677 216.872,234.917 225.692,237.197 L231.392,238.637 C235.832,239.777 236.252,239.897 237.512,240.857 C239.312,242.237 240.272,244.217 240.272,246.557 C240.272,248.957 239.372,250.937 237.572,252.617 C235.592,254.297 233.612,254.957 230.312,254.957 C225.872,254.957 222.692,253.577 219.872,250.457 C217.352,247.697 216.092,244.817 215.192,240.197 L212.612,240.197 L212.852,257.297 L215.192,257.297 L217.892,253.217 C221.912,256.517 225.212,257.717 230.492,257.717 C239.312,257.717 244.952,252.557 244.952,244.517 C244.952,240.737 243.752,237.617 241.352,235.337 C239.732,233.777 237.392,232.757 232.592,231.557 L226.172,229.937 C220.832,228.557 218.312,226.217 218.312,222.557 C218.312,218.357 221.732,215.477 226.832,215.477 C231.032,215.477 234.452,217.277 236.852,220.697 C238.592,223.157 239.732,225.677 240.452,228.737 L243.032,228.737 L242.312,213.137 M271.162,247.997 C269.242,252.317 267.202,254.057 264.082,254.057 C259.282,254.057 256.282,249.677 256.282,242.657 C256.282,235.337 259.222,230.537 263.662,230.537 C265.462,230.537 267.022,231.377 267.022,232.337 C267.022,232.517 266.962,232.697 266.662,233.057 C265.702,234.197 265.462,234.797 265.462,235.817 C265.462,237.797 266.962,239.177 269.062,239.177 C271.222,239.177 272.722,237.497 272.722,235.097 C272.722,231.017 268.702,227.957 263.362,227.957 C255.562,227.957 249.982,234.317 249.982,243.317 C249.982,251.837 255.082,257.717 262.522,257.717 C267.862,257.717 270.922,255.257 273.502,248.897 L271.162,247.997 M301.75,237.497 C301.75,233.717 301.09,231.797 299.35,230.357 C297.37,228.737 294.43,227.957 290.59,227.957 C283.81,227.957 278.89,231.137 278.89,235.517 C278.89,237.737 280.27,239.177 282.37,239.177 C284.29,239.177 285.61,237.917 285.61,236.117 C285.61,235.337 285.31,234.497 284.71,233.657 C284.35,233.237 284.29,233.117 284.29,232.817 C284.29,231.617 286.69,230.537 289.57,230.537 C291.49,230.537 293.59,231.137 294.55,232.037 C295.69,232.997 296.11,234.437 296.11,237.137 L296.11,239.477 C289.87,240.557 287.89,241.037 284.95,242.177 C279.73,244.097 277.27,246.857 277.27,250.697 C277.27,255.017 280.63,257.717 285.97,257.717 C290.11,257.717 293.83,256.037 296.41,252.977 C297.37,256.037 298.87,257.237 301.69,257.237 C304.39,257.237 307.21,255.497 307.21,253.757 C307.21,253.337 306.97,253.037 306.61,253.037 C306.37,253.037 306.13,253.097 305.71,253.277 C304.87,253.637 304.51,253.697 304.03,253.697 C302.35,253.697 301.75,252.617 301.75,249.557 L301.75,237.497 M296.11,244.817 C296.11,248.417 295.93,249.257 294.91,250.817 C293.41,253.037 290.71,254.537 288.07,254.537 C285.31,254.537 283.33,252.557 283.33,249.857 C283.33,247.337 284.59,245.537 287.23,244.277 C289.09,243.437 291.43,242.837 296.11,242.057 L296.11,244.817 M320.229,212.597 L309.129,213.257 L309.129,215.837 L312.069,215.837 C314.289,215.897 314.589,216.257 314.589,218.837 L314.589,249.437 L314.589,252.257 C314.529,253.157 314.469,253.517 314.229,253.817 C313.809,254.357 312.669,254.597 310.089,254.657 L309.669,254.657 L309.669,256.817 L325.209,256.817 L325.209,254.657 L324.789,254.657 C320.769,254.537 320.229,254.237 320.229,252.077 L320.229,249.437 L320.229,212.597 M354.78,243.317 C354.84,234.317 349.74,227.957 342.42,227.957 C334.74,227.957 328.98,234.617 328.98,243.617 C328.98,252.077 334.44,257.717 342.54,257.717 C348.3,257.717 352.32,254.897 354.78,249.197 L352.68,248.057 C350.22,252.677 347.7,254.477 343.68,254.477 C340.62,254.477 338.4,253.217 336.84,250.517 C335.76,248.717 335.28,246.617 335.34,243.317 L354.78,243.317 M335.4,240.737 C335.4,238.877 335.64,237.557 336.24,235.877 C337.5,232.277 339.42,230.537 342.36,230.537 C345.96,230.537 348.36,233.717 348.36,238.577 C348.36,240.257 347.82,240.737 345.9,240.737 L335.4,240.737 M366.601,250.157 C364.501,250.157 362.821,251.837 362.821,253.877 C362.821,255.977 364.501,257.657 366.541,257.657 C368.641,257.657 370.321,255.977 370.321,253.877 C370.321,251.837 368.641,250.157 366.601,250.157 M366.601,228.437 C364.501,228.437 362.821,230.117 362.821,232.217 C362.821,234.257 364.501,235.937 366.541,235.937 C368.641,235.937 370.321,234.257 370.321,232.157 C370.321,230.117 368.641,228.437 366.601,228.437 M428.445,213.497 L392.745,213.497 L392.745,216.317 L393.825,216.317 C397.245,216.377 398.385,216.557 398.865,217.157 C399.225,217.697 399.225,217.817 399.225,220.877 L399.225,249.437 C399.225,252.497 399.225,252.617 398.865,253.157 C398.385,253.757 397.245,253.997 393.825,253.997 L392.745,253.997 L392.745,256.817 L413.325,256.817 L413.325,253.997 L411.345,253.997 C407.925,253.997 406.785,253.757 406.305,253.157 C405.945,252.617 405.945,252.437 405.945,249.437 L405.945,235.817 L407.145,235.817 C413.325,235.577 415.545,237.797 415.785,244.457 L418.605,244.457 L418.605,224.777 L415.785,224.777 C415.425,230.657 413.085,232.937 407.385,232.997 L405.945,232.997 L405.945,219.317 C405.885,216.797 406.485,216.377 409.725,216.317 L412.485,216.317 C422.325,216.257 424.785,218.477 426.645,228.797 L429.285,228.797 L428.445,213.497 M459.752,228.857 L449.072,229.517 L449.072,232.097 L451.532,232.097 C453.812,232.157 454.112,232.517 454.112,235.097 L454.112,249.437 L454.112,251.777 L454.112,252.257 C454.052,253.157 453.992,253.517 453.752,253.817 C453.332,254.357 452.192,254.597 449.612,254.657 L449.372,254.657 L449.372,256.817 L464.492,256.817 L464.492,254.657 L464.252,254.657 C460.292,254.537 459.752,254.237 459.752,252.017 L459.752,249.437 L459.752,240.917 C459.752,235.577 462.692,231.617 466.592,231.617 C470.012,231.617 471.752,234.077 471.752,238.937 L471.752,249.437 L471.752,252.317 C471.692,253.097 471.632,253.517 471.332,253.817 C470.972,254.357 469.772,254.597 467.192,254.657 L466.952,254.657 L466.952,256.817 L482.132,256.817 L482.132,254.657 L481.892,254.657 C477.932,254.537 477.392,254.237 477.392,252.077 L477.392,249.437 L477.392,241.457 C477.392,235.457 480.092,231.617 484.292,231.617 C487.712,231.617 489.392,234.197 489.392,239.597 L489.392,249.437 L489.392,252.257 C489.332,253.097 489.272,253.517 488.972,253.817 C488.612,254.357 487.412,254.597 484.832,254.657 L484.592,254.657 L484.592,256.817 L499.772,256.817 L499.772,254.657 L499.532,254.657 C495.572,254.537 495.032,254.237 495.032,252.017 L495.032,249.437 L495.032,238.397 C495.032,234.677 494.672,233.417 493.112,231.377 C491.372,229.157 488.912,227.957 486.032,227.957 C482.132,227.957 479.252,229.817 476.672,233.957 C475.652,230.357 472.412,227.957 468.392,227.957 C464.732,227.957 462.092,229.697 459.752,233.477 L459.752,228.857 M528.14,237.497 C528.14,233.717 527.48,231.797 525.74,230.357 C523.76,228.737 520.82,227.957 516.98,227.957 C510.2,227.957 505.28,231.137 505.28,235.517 C505.28,237.737 506.66,239.177 508.76,239.177 C510.68,239.177 512,237.917 512,236.117 C512,235.337 511.7,234.497 511.1,233.657 C510.74,233.237 510.68,233.117 510.68,232.817 C510.68,231.617 513.08,230.537 515.96,230.537 C517.88,230.537 519.98,231.137 520.94,232.037 C522.08,232.997 522.5,234.437 522.5,237.137 L522.5,239.477 C516.26,240.557 514.28,241.037 511.34,242.177 C506.12,244.097 503.66,246.857 503.66,250.697 C503.66,255.017 507.02,257.717 512.36,257.717 C516.5,257.717 520.22,256.037 522.8,252.977 C523.76,256.037 525.26,257.237 528.08,257.237 C530.78,257.237 533.6,255.497 533.6,253.757 C533.6,253.337 533.36,253.037 533,253.037 C532.76,253.037 532.52,253.097 532.1,253.277 C531.26,253.637 530.9,253.697 530.42,253.697 C528.74,253.697 528.14,252.617 528.14,249.557 L528.14,237.497 M522.5,244.817 C522.5,248.417 522.32,249.257 521.3,250.817 C519.8,253.037 517.1,254.537 514.46,254.537 C511.7,254.537 509.72,252.557 509.72,249.857 C509.72,247.337 510.98,245.537 513.62,244.277 C515.48,243.437 517.82,242.837 522.5,242.057 L522.5,244.817 M545.065,228.857 L533.365,229.517 L533.365,232.097 L536.845,232.097 C539.125,232.157 539.425,232.517 539.425,235.097 L539.425,255.437 C539.425,260.297 539.125,262.577 538.285,264.317 C537.685,265.517 536.305,266.417 534.985,266.417 C534.145,266.417 533.485,266.057 533.485,265.637 C533.485,265.397 533.545,265.277 533.785,264.677 C534.085,264.077 534.205,263.657 534.205,263.237 C534.205,261.737 532.765,260.417 531.085,260.417 C529.165,260.417 527.725,261.917 527.725,264.017 C527.725,266.957 530.425,268.937 534.445,268.937 C537.805,268.937 540.865,267.497 542.605,265.037 C544.465,262.397 545.065,259.337 545.065,252.557 L545.065,228.857 M542.245,213.917 C540.325,213.917 538.765,215.477 538.765,217.397 C538.765,219.317 540.325,220.877 542.185,220.877 C544.165,220.877 545.725,219.317 545.725,217.397 C545.725,215.477 544.165,213.917 542.245,213.917 M565.515,227.957 C558.135,227.957 552.435,234.497 552.435,242.897 C552.435,251.117 558.195,257.717 565.395,257.717 C572.595,257.717 578.355,251.117 578.355,242.837 C578.355,234.617 572.595,227.957 565.515,227.957 M565.515,230.537 C569.715,230.537 572.055,234.917 572.055,242.837 C572.055,250.817 569.715,255.137 565.395,255.137 C561.075,255.137 558.735,250.817 558.735,242.897 C558.735,234.737 561.015,230.537 565.515,230.537 M592.275,228.857 L581.655,229.517 L581.655,232.097 L584.115,232.097 C586.395,232.157 586.695,232.517 586.695,235.097 L586.695,249.437 L586.695,252.257 C586.635,253.157 586.575,253.517 586.335,253.817 C585.915,254.357 584.715,254.597 582.135,254.657 L581.895,254.657 L581.895,256.817 L597.915,256.817 L597.915,254.657 L596.835,254.657 C592.815,254.537 592.275,254.237 592.275,252.077 L592.275,249.437 L592.275,248.837 C592.335,238.757 595.935,231.077 600.615,230.837 C599.775,231.797 599.535,232.397 599.535,233.537 C599.535,235.457 600.915,236.837 602.835,236.837 C605.055,236.837 606.495,235.217 606.495,232.817 C606.495,229.877 604.455,227.957 601.275,227.957 C597.495,227.957 594.255,230.957 592.275,236.297 L592.275,228.857 "/>
<polyline class="BarLine" fill="none" stroke="#000000" stroke-width="4.50" stroke-linejoin="bevel" points="249.349,917.677 249.349,1020.43"/>
<polyline class="BarLine" fill="none" stroke="#000000" stroke-width="4.50" stroke-linejoin="bevel" points="977.858,917.677 977.858,1020.43"/>
<polyline class="BarLine" fill="none" stroke="#000000" stroke-width="4.50" stroke-linejoin="bevel" points="1568.76,917.677 1568.76,1020.43"/>
<polyline class="BarLine" fill="none" stroke="#000000" stroke-width="4.50" stroke-linejoin="bevel" points="2235.97,917.677 2235.97,1020.43"/>
<polyline class="BarLine" fill="none" stroke="#000000" stroke-width="4.50" stroke-linejoin="bevel" points="2762.38,917.677 2762.38,1020.43"/>
<polyline class="BarLine" fill="none" stroke="#000000" stroke-width="4.50" stroke-linejoin="bevel" points="249.349,1530.22 249.349,1632.97"/>
<polyline class="BarLine" fill="none" stroke="#000000" stroke-width="4.50" stroke-linejoin="bevel" points="1012.06,1530.22 1012.06,1632.97"/>
<polyline class="BarLine" fill="none" stroke="#000000" stroke-width="4.50" stroke-linejoin="bevel" points="1576.41,1530.22 1576.41,1632.97"/>
<polyline class="BarLine" fill="none" stroke="#000000" stroke-width="4.50" stroke-linejoin="bevel" points="2250.49,1530.22 2250.49,1632.97"/>
<polyline class="BarLine" fill="none" stroke="#000000" stroke-width="4.50" stroke-linejoin="bevel" points="2734.88,1530.22 2734.88,1632.97"/>
<polyline class="BarLine" fill="none" stroke="#000000" stroke-width="13.75" stroke-linejoin="bevel" points="2757.76,1530.22 2757.76,1632.97"/>
<polyline class="BarLine" fill="none" stroke="#000000" stroke-width="4.50" stroke-linejoin="bevel" points="249.349,655.161 249.349,919.053"/>
<polyline class="BarLine" fill="none" stroke="#000000" stroke-width="4.50" stroke-linejoin="bevel" points="977.858,655.161 977.858,919.053"/>
<polyline class="BarLine" fill="none" stroke="#000000" stroke-width="4.50" stroke-linejoin="bevel" points="1568.76,655.161 1568.76,919.053"/>
<polyline class="BarLine" fill="none" stroke="#000000" stroke-width="4.50" stroke-linejoin="bevel" points="2235.97,655.161 2235.97,919.053"/>
<polyline class="BarLine" fill="none" stroke="#000000" stroke-width="4.50" stroke-linejoin="bevel" points="2762.38,655.161 2762.38,919.053"/>
<polyline class="BarLine" fill="none" stroke="#000000" stroke-width="4.50" stroke-linejoin="bevel" points="249.349,1267.7 249.349,1531.59"/>
<polyline class="BarLine" fill="none" stroke="#000000" stroke-width="4.50" stroke-linejoin="bevel" points="1012.06,1267.7 1012.06,1531.59"/>
<polyline class="BarLine" fill="none" stroke="#000000" stroke-width="4.50" stroke-linejoin="bevel" points="1576.41,1267.7 1576.41,1531.59"/>
<polyline class="BarLine" fill="none" stroke="#000000" stroke-width="4.50" stroke-linejoin="bevel" points="2250.49,1267.7 2250.49,1531.59"/>
<polyline class="BarLine" fill="none" stroke="#000000" stroke-width="4.50" stroke-linejoin="bevel" points="2734.88,1267.7 2734.88,1531.59"/>
<polyline class="BarLine" fill="none" stroke="#000000" stroke-width="13.75" stroke-linejoin="bevel" points="2757.76,1267.7 2757.76,1531.59"/>
<path class="Accidental" d="M839.008,898.652 C838.408,894.752 836.008,891.052 830.908,891.052 C825.908,891.052 823.008,894.152 822.508,894.752 L822.908,862.652 C822.908,861.852 822.308,861.252 821.508,861.252 L820.308,861.252 C819.508,861.252 818.908,861.852 818.908,862.652 L819.408,922.752 C819.408,923.552 820.008,924.152 820.808,924.152 C821.008,924.152 821.408,924.052 821.608,923.952 C822.008,923.752 828.508,920.552 833.908,914.452 C837.708,910.152 839.208,905.252 839.208,901.152 C839.208,900.252 839.108,899.452 839.008,898.652 M832.108,902.552 C832.108,904.052 831.708,908.652 829.208,912.452 C827.508,915.052 824.108,917.752 822.208,919.252 L822.508,899.752 C822.708,898.852 824.208,895.952 828.208,895.952 C831.808,895.952 832.108,899.352 832.108,901.452 L832.108,902.552 "/>
<path class="Accidental" d="M1944.02,961.156 C1943.42,957.256 1941.02,953.556 1935.92,953.556 C1930.92,953.556 1928.02,956.656 1927.52,957.256 L1927.92,925.156 C1927.92,924.356 1927.32,923.756 1926.52,923.756 L1925.32,923.756 C1924.52,923.756 1923.92,924.356 1923.92,925.156 L1924.42,985.256 C1924.42,986.056 1925.02,986.656 1925.82,986.656 C1926.02,986.656 1926.42,986.556 1926.62,986.456 C1927.02,986.256 1933.52,983.056 1938.92,976.956 C1942.72,972.656 1944.22,967.756 1944.22,963.656 C1944.22,962.756 1944.12,961.956 1944.02,961.156 M1937.12,965.056 C1937.12,966.556 1936.72,971.156 1934.22,974.956 C1932.52,977.556 1929.12,980.256 1927.22,981.756 L1927.52,962.256 C1927.72,961.356 1929.22,958.456 1933.22,958.456 C1936.82,958.456 1937.12,961.856 1937.12,963.956 L1937.12,965.056 "/>
<path class="Accidental" d="M852.621,1573.69 C852.021,1569.79 849.621,1566.09 844.521,1566.09 C839.521,1566.09 836.621,1569.19 836.121,1569.79 L836.521,1537.69 C836.521,1536.89 835.921,1536.29 835.121,1536.29 L833.921,1536.29 C833.121,1536.29 832.521,1536.89 832.521,1537.69 L833.021,1597.79 C833.021,1598.59 833.621,1599.19 834.421,1599.19 C834.621,1599.19 835.021,1599.09 835.221,1598.99 C835.621,1598.79 842.121,1595.59 847.521,1589.49 C851.321,1585.19 852.821,1580.29 852.821,1576.19 C852.821,1575.29 852.721,1574.49 852.621,1573.69 M845.721,1577.59 C845.721,1579.09 845.321,1583.69 842.821,1587.49 C841.121,1590.09 837.721,1592.79 835.821,1594.29 L836.121,1574.79 C836.321,1573.89 837.821,1570.99 841.821,1570.99 C845.421,1570.99 845.721,1574.39 845.721,1576.49 L845.721,1577.59 "/>
<path class="Accidental" d="M1956.06,1511.19 C1955.46,1507.29 1953.06,1503.59 1947.96,1503.59 C1942.96,1503.59 1940.06,1506.69 1939.56,1507.29 L1939.96,1475.19 C1939.96,1474.39 1939.36,1473.79 1938.56,1473.79 L1937.36,1473.79 C1936.56,1473.79 1935.96,1474.39 1935.96,1475.19 L1936.46,1535.29 C1936.46,1536.09 1937.06,1536.69 1937.86,1536.69 C1938.06,1536.69 1938.46,1536.59 1938.66,1536.49 C1939.06,1536.29 1945.56,1533.09 1950.96,1526.99 C1954.76,1522.69 1956.26,1517.79 1956.26,1513.69 C1956.26,1512.79 1956.16,1511.99 1956.06,1511.19 M1949.16,1515.09 C1949.16,1516.59 1948.76,1521.19 1946.26,1524.99 C1944.56,1527.59 1941.16,1530.29 1939.26,1531.79 L1939.56,1512.29 C1939.76,1511.39 1941.26,1508.49 1945.26,1508.49 C1948.86,1508.49 1949.16,1511.89 1949.16,1513.99 L1949.16,1515.09 "/>
<path class="Accidental" d="M839.008,698.639 C838.408,694.739 836.008,691.039 830.908,691.039 C825.908,691.039 823.008,694.139 822.508,694.739 L822.908,662.639 C822.908,661.839 822.308,661.239 821.508,661.239 L820.308,661.239 C819.508,661.239 818.908,661.839 818.908,662.639 L819.408,722.739 C819.408,723.539 820.008,724.139 820.808,724.139 C821.008,724.139 821.408,724.039 821.608,723.939 C822.008,723.739 828.508,720.539 833.908,714.439 C837.708,710.139 839.208,705.239 839.208,701.139 C839.208,700.239 839.108,699.439 839.008,698.639 M832.108,702.539 C832.108,704.039 831.708,708.639 829.208,712.439 C827.508,715.039 824.108,717.739 822.208,719.239 L822.508,699.739 C822.708,698.839 824.208,695.939 828.208,695.939 C831.808,695.939 832.108,699.339 832.108,701.439 L832.108,702.539 "/>
<path class="Accidental" d="M1935.27,611.134 C1934.67,607.234 1932.27,603.534 1927.17,603.534 C1922.17,603.534 1919.27,606.634 1918.77,607.234 L1919.17,575.134 C1919.17,574.334 1918.57,573.734 1917.77,573.734 L1916.57,573.734 C1915.77,573.734 1915.17,574.334 1915.17,575.134 L1915.67,635.234 C1915.67,636.034 1916.27,636.634 1917.07,636.634 C1917.27,636.634 1917.67,636.534 1917.87,636.434 C1918.27,636.234 1924.77,633.034 1930.17,626.934 C1933.97,622.634 1935.47,617.734 1935.47,613.634 C1935.47,612.734 1935.37,611.934 1935.27,611.134 M1928.37,615.034 C1928.37,616.534 1927.97,621.134 1925.47,624.934 C1923.77,627.534 1920.37,630.234 1918.47,631.734 L1918.77,612.234 C1918.97,611.334 1920.47,608.434 1924.47,608.434 C1928.07,608.434 1928.37,611.834 1928.37,613.934 L1928.37,615.034 "/>
<path class="Accidental" d="M843.87,1223.67 C843.27,1219.77 840.87,1216.07 835.77,1216.07 C830.77,1216.07 827.87,1219.17 827.37,1219.77 L827.77,1187.67 C827.77,1186.87 827.17,1186.27 826.37,1186.27 L825.17,1186.27 C824.37,1186.27 823.77,1186.87 823.77,1187.67 L824.27,1247.77 C824.27,1248.57 824.87,1249.17 825.67,1249.17 C825.87,1249.17 826.27,1249.07 826.47,1248.97 C826.87,1248.77 833.37,1245.57 838.77,1239.47 C842.57,1235.17 844.07,1230.27 844.07,1226.17 C844.07,1225.27 843.97,1224.47 843.87,1223.67 M836.97,1227.57 C836.97,1229.07 836.57,1233.67 834.07,1237.47 C832.37,1240.07 828.97,1242.77 827.07,1244.27 L827.37,1224.77 C827.57,1223.87 829.07,1220.97 833.07,1220.97 C836.67,1220.97 836.97,1224.37 836.97,1226.47 L836.97,1227.57 "/>
<path class="Accidental" d="M1956.06,1311.18 C1955.46,1307.28 1953.06,1303.58 1947.96,1303.58 C1942.96,1303.58 1940.06,1306.68 1939.56,1307.28 L1939.96,1275.18 C1939.96,1274.38 1939.36,1273.78 1938.56,1273.78 L1937.36,1273.78 C1936.56,1273.78 1935.96,1274.38 1935.96,1275.18 L1936.46,1335.28 C1936.46,1336.08 1937.06,1336.68 1937.86,1336.68 C1938.06,1336.68 1938.46,1336.58 1938.66,1336.48 C1939.06,1336.28 1945.56,1333.08 1950.96,1326.98 C1954.76,1322.68 1956.26,1317.78 1956.26,1313.68 C1956.26,1312.78 1956.16,1311.98 1956.06,1311.18 M1949.16,1315.08 C1949.16,1316.58 1948.76,1321.18 1946.26,1324.98 C1944.56,1327.58 1941.16,1330.28 1939.26,1331.78 L1939.56,1312.28 C1939.76,1311.38 1941.26,1308.48 1945.26,1308.48 C1948.86,1308.48 1949.16,1311.88 1949.16,1313.98 L1949.16,1315.08 "/>
<polyline class="LedgerLine" fill="none" stroke="#000000" stroke-width="4.00" stroke-linejoin="bevel" points="1012.61,894.051 1062.61,894.051"/>
<polyline class="LedgerLine" fill="none" stroke="#000000" stroke-width="4.00" stroke-linejoin="bevel" points="1148.9,894.051 1198.89,894.051"/>
<polyline class="LedgerLine" fill="none" stroke="#000000" stroke-width="4.00" stroke-linejoin="bevel" points="1285.19,894.051 1335.18,894.051"/>
<polyline class="LedgerLine" fill="none" stroke="#000000" stroke-width="4.00" stroke-linejoin="bevel" points="1285.19,869.049 1335.18,869.049"/>
<polyline class="LedgerLine" fill="none" stroke="#000000" stroke-width="4.00" stroke-linejoin="bevel" points="1421.47,894.051 1471.47,894.051"/>
<polyline class="LedgerLine" fill="none" stroke="#000000" stroke-width="4.00" stroke-linejoin="bevel" points="1421.47,869.049 1471.47,869.049"/>
<polyline class="LedgerLine" fill="none" stroke="#000000" stroke-width="4.00" stroke-linejoin="bevel" points="1668.03,1506.59 1718.03,1506.59"/>
<polyline class="LedgerLine" fill="none" stroke="#000000" stroke-width="4.00" stroke-linejoin="bevel" points="1810.9,1506.59 1860.89,1506.59"/>
<polyline class="LedgerLine" fill="none" stroke="#000000" stroke-width="4.00" stroke-linejoin="bevel" points="1800.09,631.534 1850.08,631.534"/>
<polyline class="LedgerLine" fill="none" stroke="#000000" stroke-width="4.00" stroke-linejoin="bevel" points="1941.72,631.534 1991.71,631.534"/>
<polyline class="LedgerLine" fill="none" stroke="#000000" stroke-width="4.00" stroke-linejoin="bevel" points="2083.34,631.534 2133.34,631.534"/>
<polyline class="LedgerLine" fill="none" stroke="#000000" stroke-width="4.00" stroke-linejoin="bevel" points="2083.34,606.533 2133.34,606.533"/>
<polyline class="LedgerLine" fill="none" stroke="#000000" stroke-width="4.00" stroke-linejoin="bevel" points="2270.72,631.534 2320.72,631.534"/>
<polyline class="LedgerLine" fill="none" stroke="#000000" stroke-width="4.00" stroke-linejoin="bevel" points="2270.72,606.533 2320.72,606.533"/>
<polyline class="LedgerLine" fill="none" stroke="#000000" stroke-width="4.00" stroke-linejoin="bevel" points="2404.24,631.534 2454.23,631.534"/>
<polyline class="LedgerLine" fill="none" stroke="#000000" stroke-width="4.00" stroke-linejoin="bevel" points="2404.24,606.533 2454.23,606.533"/>
<polyline class="LedgerLine" fill="none" stroke="#000000" stroke-width="4.00" stroke-linejoin="bevel" points="2404.24,581.531 2454.23,581.531"/>
<polyline class="LedgerLine" fill="none" stroke="#000000" stroke-width="4.00" stroke-linejoin="bevel" points="2537.76,631.534 2587.75,631.534"/>
<polyline class="LedgerLine" fill="none" stroke="#000000" stroke-width="4.00" stroke-linejoin="bevel" points="2537.76,606.533 2587.75,606.533"/>
<polyline class="LedgerLine" fill="none" stroke="#000000" stroke-width="4.00" stroke-linejoin="bevel" points="2537.76,581.531 2587.75,581.531"/>
<polyline class="LedgerLine" fill="none" stroke="#000000" stroke-width="4.00" stroke-linejoin="bevel" points="398.1,1244.07 448.096,1244.07"/>
<polyline class="LedgerLine" fill="none" stroke="#000000" stroke-width="4.00" stroke-linejoin="bevel" points="398.1,1219.07 448.096,1219.07"/>
<polyline class="LedgerLine" fill="none" stroke="#000000" stroke-width="4.00" stroke-linejoin="bevel" points="398.1,1194.07 448.096,1194.07"/>
<polyline class="LedgerLine" fill="none" stroke="#000000" stroke-width="4.00" stroke-linejoin="bevel" points="548.84,1244.07 598.835,1244.07"/>
<polyline class="LedgerLine" fill="none" stroke="#000000" stroke-width="4.00" stroke-linejoin="bevel" points="548.84,1219.07 598.835,1219.07"/>
<polyline class="LedgerLine" fill="none" stroke="#000000" stroke-width="4.00" stroke-linejoin="bevel" points="699.579,1244.07 749.574,1244.07"/>
<polyline class="LedgerLine" fill="none" stroke="#000000" stroke-width="4.00" stroke-linejoin="bevel" points="699.579,1219.07 749.574,1219.07"/>
<polyline class="LedgerLine" fill="none" stroke="#000000" stroke-width="4.00" stroke-linejoin="bevel" points="850.319,1244.07 900.314,1244.07"/>
<polyline class="LedgerLine" fill="none" stroke="#000000" stroke-width="4.00" stroke-linejoin="bevel" points="1046.81,1244.07 1096.81,1244.07"/>
<polyline class="Stem" fill="none" stroke="#000000" stroke-width="2.75" stroke-linejoin="bevel" points="456.377,947.574 456.377,1028.43"/>
<polyline class="Stem" fill="none" stroke="#000000" stroke-width="2.75" stroke-linejoin="bevel" points="586.529,935.074 586.529,1019.06"/>
<polyline class="Stem" fill="none" stroke="#000000" stroke-width="2.75" stroke-linejoin="bevel" points="716.68,922.573 716.68,1006.56"/>
<polyline class="Stem" fill="none" stroke="#000000" stroke-width="2.75" stroke-linejoin="bevel" points="846.832,910.072 846.832,994.057"/>
<polyline class="Stem" fill="none" stroke="#000000" stroke-width="2.75" stroke-linejoin="bevel" points="1022.74,897.571 1022.74,981.556"/>
<polyline class="Stem" fill="none" stroke="#000000" stroke-width="2.75" stroke-linejoin="bevel" points="1159.02,885.07 1159.02,969.056"/>
<polyline class="Stem" fill="none" stroke="#000000" stroke-width="2.75" stroke-linejoin="bevel" points="1295.31,860.069 1295.31,969.056"/>
<polyline class="Stem" fill="none" stroke="#000000" stroke-width="2.75" stroke-linejoin="bevel" points="1431.6,860.069 1431.6,969.056"/>
<polyline class="Stem" fill="none" stroke="#000000" stroke-width="2.75" stroke-linejoin="bevel" points="1698.33,990.697 1698.33,909.677"/>
<polyline class="Stem" fill="none" stroke="#000000" stroke-width="2.75" stroke-linejoin="bevel" points="1839.96,978.196 1839.96,900.301"/>
<polyline class="Stem" fill="none" stroke="#000000" stroke-width="2.75" stroke-linejoin="bevel" points="1951.84,972.576 1951.84,1047.19"/>
<polyline class="Stem" fill="none" stroke="#000000" stroke-width="2.75" stroke-linejoin="bevel" points="2093.47,960.075 2093.47,1037.81"/>
<polyline class="Stem" fill="none" stroke="#000000" stroke-width="2.75" stroke-linejoin="bevel" points="2280.85,947.574 2280.85,1028.43"/>
<polyline class="Stem" fill="none" stroke="#000000" stroke-width="2.75" stroke-linejoin="bevel" points="2414.37,922.573 2414.37,1006.56"/>
<polyline class="Stem" fill="none" stroke="#000000" stroke-width="2.75" stroke-linejoin="bevel" points="2547.88,922.493 2547.88,1006.56"/>
<polyline class="Stem" fill="none" stroke="#000000" stroke-width="2.75" stroke-linejoin="bevel" points="408.226,1535.11 408.226,1619.1"/>
<polyline class="Stem" fill="none" stroke="#000000" stroke-width="2.75" stroke-linejoin="bevel" points="558.965,1560.11 558.965,1640.97"/>
<polyline class="Stem" fill="none" stroke="#000000" stroke-width="2.75" stroke-linejoin="bevel" points="709.705,1572.61 709.705,1650.35"/>
<polyline class="Stem" fill="none" stroke="#000000" stroke-width="2.75" stroke-linejoin="bevel" points="860.444,1585.11 860.444,1659.72"/>
<polyline class="Stem" fill="none" stroke="#000000" stroke-width="2.75" stroke-linejoin="bevel" points="1086.68,1590.73 1086.68,1512.84"/>
<polyline class="Stem" fill="none" stroke="#000000" stroke-width="2.75" stroke-linejoin="bevel" points="1216.33,1603.24 1216.33,1522.22"/>
<polyline class="Stem" fill="none" stroke="#000000" stroke-width="2.75" stroke-linejoin="bevel" points="1345.98,1615.74 1345.98,1531.59"/>
<polyline class="Stem" fill="none" stroke="#000000" stroke-width="2.75" stroke-linejoin="bevel" points="1475.63,1615.74 1475.63,1531.59"/>
<polyline class="Stem" fill="none" stroke="#000000" stroke-width="2.75" stroke-linejoin="bevel" points="1678.16,1497.61 1678.16,1581.59"/>
<polyline class="Stem" fill="none" stroke="#000000" stroke-width="2.75" stroke-linejoin="bevel" points="1821.02,1510.11 1821.02,1594.1"/>
<polyline class="Stem" fill="none" stroke="#000000" stroke-width="2.75" stroke-linejoin="bevel" points="1963.89,1522.61 1963.89,1606.6"/>
<polyline class="Stem" fill="none" stroke="#000000" stroke-width="2.75" stroke-linejoin="bevel" points="2106.75,1535.11 2106.75,1619.1"/>
<polyline class="Stem" fill="none" stroke="#000000" stroke-width="2.75" stroke-linejoin="bevel" points="2286.62,1547.61 2286.62,1631.6"/>
<polyline class="Stem" fill="none" stroke="#000000" stroke-width="2.75" stroke-linejoin="bevel" points="2438.22,1560.03 2438.22,1640.97"/>
<polyline class="Stem" fill="none" stroke="#000000" stroke-width="2.75" stroke-linejoin="bevel" points="486.121,740.681 486.121,656.536"/>
<polyline class="Stem" fill="none" stroke="#000000" stroke-width="2.75" stroke-linejoin="bevel" points="616.273,728.181 616.273,647.16"/>
<polyline class="Stem" fill="none" stroke="#000000" stroke-width="2.75" stroke-linejoin="bevel" points="746.424,715.68 746.424,637.785"/>
<polyline class="Stem" fill="none" stroke="#000000" stroke-width="2.75" stroke-linejoin="bevel" points="846.832,710.059 846.832,784.669"/>
<polyline class="Stem" fill="none" stroke="#000000" stroke-width="2.75" stroke-linejoin="bevel" points="1022.74,697.559 1022.74,775.293"/>
<polyline class="Stem" fill="none" stroke="#000000" stroke-width="2.75" stroke-linejoin="bevel" points="1159.02,685.058 1159.02,765.918"/>
<polyline class="Stem" fill="none" stroke="#000000" stroke-width="2.75" stroke-linejoin="bevel" points="1295.31,660.056 1295.31,744.042"/>
<polyline class="Stem" fill="none" stroke="#000000" stroke-width="2.75" stroke-linejoin="bevel" points="1431.6,660.056 1431.6,744.042"/>
<polyline class="Stem" fill="none" stroke="#000000" stroke-width="2.75" stroke-linejoin="bevel" points="1668.59,647.555 1668.59,731.541"/>
<polyline class="Stem" fill="none" stroke="#000000" stroke-width="2.75" stroke-linejoin="bevel" points="1810.21,635.055 1810.21,719.04"/>
<polyline class="Stem" fill="none" stroke="#000000" stroke-width="2.75" stroke-linejoin="bevel" points="1951.84,622.554 1951.84,706.539"/>
<polyline class="Stem" fill="none" stroke="#000000" stroke-width="2.75" stroke-linejoin="bevel" points="2093.47,610.053 2093.47,706.539"/>
<polyline class="Stem" fill="none" stroke="#000000" stroke-width="2.75" stroke-linejoin="bevel" points="2280.85,597.552 2280.85,706.539"/>
<polyline class="Stem" fill="none" stroke="#000000" stroke-width="2.75" stroke-linejoin="bevel" points="2414.37,572.551 2414.37,706.539"/>
<polyline class="Stem" fill="none" stroke="#000000" stroke-width="2.75" stroke-linejoin="bevel" points="2547.88,572.471 2547.88,706.539"/>
<polyline class="Stem" fill="none" stroke="#000000" stroke-width="2.75" stroke-linejoin="bevel" points="408.226,1185.09 408.226,1319.08"/>
<polyline class="Stem" fill="none" stroke="#000000" stroke-width="2.75" stroke-linejoin="bevel" points="558.965,1210.09 558.965,1319.08"/>
<polyline class="Stem" fill="none" stroke="#000000" stroke-width="2.75" stroke-linejoin="bevel" points="709.705,1222.59 709.705,1319.08"/>
<polyline class="Stem" fill="none" stroke="#000000" stroke-width="2.75" stroke-linejoin="bevel" points="860.444,1235.09 860.444,1319.08"/>
<polyline class="Stem" fill="none" stroke="#000000" stroke-width="2.75" stroke-linejoin="bevel" points="1056.94,1247.59 1056.94,1331.58"/>
<polyline class="Stem" fill="none" stroke="#000000" stroke-width="2.75" stroke-linejoin="bevel" points="1186.59,1260.09 1186.59,1344.08"/>
<polyline class="Stem" fill="none" stroke="#000000" stroke-width="2.75" stroke-linejoin="bevel" points="1316.23,1272.59 1316.23,1356.58"/>
<polyline class="Stem" fill="none" stroke="#000000" stroke-width="2.75" stroke-linejoin="bevel" points="1445.88,1272.59 1445.88,1356.58"/>
<polyline class="Stem" fill="none" stroke="#000000" stroke-width="2.75" stroke-linejoin="bevel" points="1678.16,1297.6 1678.16,1378.46"/>
<polyline class="Stem" fill="none" stroke="#000000" stroke-width="2.75" stroke-linejoin="bevel" points="1821.02,1310.1 1821.02,1387.83"/>
<polyline class="Stem" fill="none" stroke="#000000" stroke-width="2.75" stroke-linejoin="bevel" points="1963.89,1322.6 1963.89,1397.21"/>
<polyline class="Stem" fill="none" stroke="#000000" stroke-width="2.75" stroke-linejoin="bevel" points="2136.49,1328.22 2136.49,1250.32"/>
<polyline class="Stem" fill="none" stroke="#000000" stroke-width="2.75" stroke-linejoin="bevel" points="2316.36,1340.72 2316.36,1259.7"/>
<polyline class="Stem" fill="none" stroke="#000000" stroke-width="2.75" stroke-linejoin="bevel" points="2467.97,1353.14 2467.97,1269.07"/>
<path class="Note" d="M486.502,935.854 C485.002,933.154 482.102,931.454 478.202,931.054 C477.602,930.954 477.102,930.954 476.502,930.954 C473.002,930.954 469.202,931.954 465.702,933.854 C459.102,937.454 455.002,943.354 455.002,948.454 C455.002,949.854 455.202,951.154 455.902,952.354 C457.402,955.054 460.402,956.754 464.302,957.154 C464.902,957.254 465.402,957.254 466.002,957.254 C469.502,957.254 473.202,956.254 476.702,954.354 C483.302,950.754 487.502,944.954 487.502,939.854 C487.502,938.454 487.202,937.054 486.502,935.854"/>
<path class="Note" d="M616.654,923.353 C615.154,920.653 612.254,918.953 608.354,918.553 C607.754,918.453 607.254,918.453 606.654,918.453 C603.154,918.453 599.354,919.453 595.854,921.353 C589.254,924.953 585.154,930.853 585.154,935.953 C585.154,937.353 585.354,938.653 586.054,939.853 C587.554,942.553 590.554,944.253 594.454,944.653 C595.054,944.753 595.554,944.753 596.154,944.753 C599.654,944.753 603.354,943.753 606.854,941.853 C613.454,938.253 617.654,932.453 617.654,927.353 C617.654,925.953 617.354,924.553 616.654,923.353"/>
<path class="Note" d="M746.805,910.853 C745.305,908.153 742.405,906.453 738.505,906.053 C737.905,905.953 737.405,905.953 736.805,905.953 C733.305,905.953 729.505,906.953 726.005,908.853 C719.405,912.453 715.305,918.353 715.305,923.453 C715.305,924.853 715.505,926.153 716.205,927.353 C717.705,930.053 720.705,931.753 724.605,932.153 C725.205,932.253 725.705,932.253 726.305,932.253 C729.805,932.253 733.505,931.253 737.005,929.353 C743.605,925.753 747.805,919.953 747.805,914.853 C747.805,913.453 747.505,912.053 746.805,910.853"/>
<path class="Note" d="M876.957,898.352 C875.457,895.652 872.557,893.952 868.657,893.552 C868.057,893.452 867.557,893.452 866.957,893.452 C863.457,893.452 859.657,894.452 856.157,896.352 C849.557,899.952 845.457,905.852 845.457,910.952 C845.457,912.352 845.657,913.652 846.357,914.852 C847.857,917.552 850.857,919.252 854.757,919.652 C855.357,919.752 855.857,919.752 856.457,919.752 C859.957,919.752 863.657,918.752 867.157,916.852 C873.757,913.252 877.957,907.452 877.957,902.352 C877.957,900.952 877.657,899.552 876.957,898.352"/>
<path class="Note" d="M1052.86,885.851 C1051.36,883.151 1048.46,881.451 1044.56,881.051 C1043.96,880.951 1043.46,880.951 1042.86,880.951 C1039.36,880.951 1035.56,881.951 1032.06,883.851 C1025.46,887.451 1021.36,893.351 1021.36,898.451 C1021.36,899.851 1021.56,901.151 1022.26,902.351 C1023.76,905.051 1026.76,906.751 1030.66,907.151 C1031.26,907.251 1031.76,907.251 1032.36,907.251 C1035.86,907.251 1039.56,906.251 1043.06,904.351 C1049.66,900.751 1053.86,894.951 1053.86,889.851 C1053.86,888.451 1053.56,887.051 1052.86,885.851"/>
<path class="Note" d="M1189.15,873.35 C1187.65,870.65 1184.75,868.95 1180.85,868.55 C1180.25,868.45 1179.75,868.45 1179.15,868.45 C1175.65,868.45 1171.85,869.45 1168.35,871.35 C1161.75,874.95 1157.65,880.85 1157.65,885.95 C1157.65,887.35 1157.85,888.65 1158.55,889.85 C1160.05,892.55 1163.05,894.25 1166.95,894.65 C1167.55,894.75 1168.05,894.75 1168.65,894.75 C1172.15,894.75 1175.85,893.75 1179.35,891.85 C1185.95,888.25 1190.15,882.45 1190.15,877.35 C1190.15,875.95 1189.85,874.55 1189.15,873.35"/>
<path class="Note" d="M1325.44,848.349 C1323.94,845.649 1321.04,843.949 1317.14,843.549 C1316.54,843.449 1316.04,843.449 1315.44,843.449 C1311.94,843.449 1308.14,844.449 1304.64,846.349 C1298.04,849.949 1293.94,855.849 1293.94,860.949 C1293.94,862.349 1294.14,863.649 1294.84,864.849 C1296.34,867.549 1299.34,869.249 1303.24,869.649 C1303.84,869.749 1304.34,869.749 1304.94,869.749 C1308.44,869.749 1312.14,868.749 1315.64,866.849 C1322.24,863.249 1326.44,857.449 1326.44,852.349 C1326.44,850.949 1326.14,849.549 1325.44,848.349"/>
<path class="Note" d="M1461.72,848.349 C1460.22,845.649 1457.32,843.949 1453.42,843.549 C1452.82,843.449 1452.32,843.449 1451.72,843.449 C1448.22,843.449 1444.42,844.449 1440.92,846.349 C1434.32,849.949 1430.22,855.849 1430.22,860.949 C1430.22,862.349 1430.42,863.649 1431.12,864.849 C1432.62,867.549 1435.62,869.249 1439.52,869.649 C1440.12,869.749 1440.62,869.749 1441.22,869.749 C1444.72,869.749 1448.42,868.749 1451.92,866.849 C1458.52,863.249 1462.72,857.449 1462.72,852.349 C1462.72,850.949 1462.42,849.549 1461.72,848.349"/>
<path class="Note" d="M1698.71,985.857 C1697.21,983.157 1694.31,981.457 1690.41,981.057 C1689.81,980.957 1689.31,980.957 1688.71,980.957 C1685.21,980.957 1681.41,981.957 1677.91,983.857 C1671.31,987.457 1667.21,993.357 1667.21,998.457 C1667.21,999.857 1667.41,1001.16 1668.11,1002.36 C1669.61,1005.06 1672.61,1006.76 1676.51,1007.16 C1677.11,1007.26 1677.61,1007.26 1678.21,1007.26 C1681.71,1007.26 1685.41,1006.26 1688.91,1004.36 C1695.51,1000.76 1699.71,994.957 1699.71,989.857 C1699.71,988.457 1699.41,987.057 1698.71,985.857"/>
<path class="Note" d="M1840.34,973.356 C1838.84,970.656 1835.94,968.956 1832.04,968.556 C1831.44,968.456 1830.94,968.456 1830.34,968.456 C1826.84,968.456 1823.04,969.456 1819.54,971.356 C1812.94,974.956 1808.84,980.856 1808.84,985.956 C1808.84,987.356 1809.04,988.656 1809.74,989.856 C1811.24,992.556 1814.24,994.256 1818.14,994.656 C1818.74,994.756 1819.24,994.756 1819.84,994.756 C1823.34,994.756 1827.04,993.756 1830.54,991.856 C1837.14,988.256 1841.34,982.456 1841.34,977.356 C1841.34,975.956 1841.04,974.556 1840.34,973.356"/>
<path class="Note" d="M1981.97,960.856 C1980.47,958.156 1977.57,956.456 1973.67,956.056 C1973.07,955.956 1972.57,955.956 1971.97,955.956 C1968.47,955.956 1964.67,956.956 1961.17,958.856 C1954.57,962.456 1950.47,968.356 1950.47,973.456 C1950.47,974.856 1950.67,976.156 1951.37,977.356 C1952.87,980.056 1955.87,981.756 1959.77,982.156 C1960.37,982.256 1960.87,982.256 1961.47,982.256 C1964.97,982.256 1968.67,981.256 1972.17,979.356 C1978.77,975.756 1982.97,969.956 1982.97,964.856 C1982.97,963.456 1982.67,962.056 1981.97,960.856"/>
<path class="Note" d="M2123.59,948.355 C2122.09,945.655 2119.19,943.955 2115.29,943.555 C2114.69,943.455 2114.19,943.455 2113.59,943.455 C2110.09,943.455 2106.29,944.455 2102.79,946.355 C2096.19,949.955 2092.09,955.855 2092.09,960.955 C2092.09,962.355 2092.29,963.655 2092.99,964.855 C2094.49,967.555 2097.49,969.255 2101.39,969.655 C2101.99,969.755 2102.49,969.755 2103.09,969.755 C2106.59,969.755 2110.29,968.755 2113.79,966.855 C2120.39,963.255 2124.59,957.455 2124.59,952.355 C2124.59,950.955 2124.29,949.555 2123.59,948.355"/>
<path class="Note" d="M2310.97,935.854 C2309.47,933.154 2306.57,931.454 2302.67,931.054 C2302.07,930.954 2301.57,930.954 2300.97,930.954 C2297.47,930.954 2293.67,931.954 2290.17,933.854 C2283.57,937.454 2279.47,943.354 2279.47,948.454 C2279.47,949.854 2279.67,951.154 2280.37,952.354 C2281.87,955.054 2284.87,956.754 2288.77,957.154 C2289.37,957.254 2289.87,957.254 2290.47,957.254 C2293.97,957.254 2297.67,956.254 2301.17,954.354 C2307.77,950.754 2311.97,944.954 2311.97,939.854 C2311.97,938.454 2311.67,937.054 2310.97,935.854"/>
<path class="Note" d="M2444.49,910.853 C2442.99,908.153 2440.09,906.453 2436.19,906.053 C2435.59,905.953 2435.09,905.953 2434.49,905.953 C2430.99,905.953 2427.19,906.953 2423.69,908.853 C2417.09,912.453 2412.99,918.353 2412.99,923.453 C2412.99,924.853 2413.19,926.153 2413.89,927.353 C2415.39,930.053 2418.39,931.753 2422.29,932.153 C2422.89,932.253 2423.39,932.253 2423.99,932.253 C2427.49,932.253 2431.19,931.253 2434.69,929.353 C2441.29,925.753 2445.49,919.953 2445.49,914.853 C2445.49,913.453 2445.19,912.053 2444.49,910.853"/>
<path class="Note" d="M2578.01,910.853 C2576.51,908.153 2573.61,906.453 2569.71,906.053 C2569.11,905.953 2568.61,905.953 2568.01,905.953 C2564.51,905.953 2560.71,906.953 2557.21,908.853 C2550.61,912.453 2546.51,918.253 2546.51,923.353 C2546.51,924.753 2546.91,926.153 2547.61,927.353 C2549.11,930.153 2551.91,931.753 2555.81,932.153 C2556.41,932.253 2556.91,932.253 2557.51,932.253 C2561.01,932.253 2564.81,931.253 2568.31,929.353 C2574.91,925.753 2579.01,919.853 2579.01,914.753 C2579.01,913.353 2578.71,912.053 2578.01,910.853 M2573.81,917.153 C2572.11,918.953 2568.91,921.253 2565.31,923.353 C2561.71,925.453 2558.01,927.153 2555.71,927.853 C2555.21,927.953 2554.61,928.053 2554.11,928.053 C2552.61,928.053 2551.31,927.353 2550.61,926.253 C2550.31,925.653 2550.11,925.053 2550.11,924.453 C2550.11,923.353 2550.61,922.253 2551.71,921.053 C2553.41,919.253 2556.61,916.853 2560.21,914.753 C2563.81,912.653 2567.51,910.953 2569.91,910.353 L2570.11,910.353 C2570.71,910.153 2571.21,910.053 2571.71,910.053 C2573.11,910.053 2574.21,910.653 2574.91,911.953 C2575.21,912.553 2575.41,913.053 2575.41,913.653 C2575.41,914.953 2574.71,916.253 2573.81,917.153"/>
<path class="Note" d="M438.351,1523.39 C436.851,1520.69 433.951,1518.99 430.051,1518.59 C429.451,1518.49 428.951,1518.49 428.351,1518.49 C424.851,1518.49 421.051,1519.49 417.551,1521.39 C410.951,1524.99 406.851,1530.89 406.851,1535.99 C406.851,1537.39 407.051,1538.69 407.751,1539.89 C409.251,1542.59 412.251,1544.29 416.151,1544.69 C416.751,1544.79 417.251,1544.79 417.851,1544.79 C421.351,1544.79 425.051,1543.79 428.551,1541.89 C435.151,1538.29 439.351,1532.49 439.351,1527.39 C439.351,1525.99 439.051,1524.59 438.351,1523.39"/>
<path class="Note" d="M589.09,1548.39 C587.59,1545.69 584.69,1543.99 580.79,1543.59 C580.19,1543.49 579.69,1543.49 579.09,1543.49 C575.59,1543.49 571.79,1544.49 568.29,1546.39 C561.69,1549.99 557.59,1555.89 557.59,1560.99 C557.59,1562.39 557.79,1563.69 558.49,1564.89 C559.99,1567.59 562.99,1569.29 566.89,1569.69 C567.49,1569.79 567.99,1569.79 568.59,1569.79 C572.09,1569.79 575.79,1568.79 579.29,1566.89 C585.89,1563.29 590.09,1557.49 590.09,1552.39 C590.09,1550.99 589.79,1549.59 589.09,1548.39"/>
<path class="Note" d="M739.83,1560.89 C738.33,1558.19 735.43,1556.49 731.53,1556.09 C730.93,1555.99 730.43,1555.99 729.83,1555.99 C726.33,1555.99 722.53,1556.99 719.03,1558.89 C712.43,1562.49 708.33,1568.39 708.33,1573.49 C708.33,1574.89 708.53,1576.19 709.23,1577.39 C710.73,1580.09 713.73,1581.79 717.63,1582.19 C718.23,1582.29 718.73,1582.29 719.33,1582.29 C722.83,1582.29 726.53,1581.29 730.03,1579.39 C736.63,1575.79 740.83,1569.99 740.83,1564.89 C740.83,1563.49 740.53,1562.09 739.83,1560.89"/>
<path class="Note" d="M890.569,1573.39 C889.069,1570.69 886.169,1568.99 882.269,1568.59 C881.669,1568.49 881.169,1568.49 880.569,1568.49 C877.069,1568.49 873.269,1569.49 869.769,1571.39 C863.169,1574.99 859.069,1580.89 859.069,1585.99 C859.069,1587.39 859.269,1588.69 859.969,1589.89 C861.469,1592.59 864.469,1594.29 868.369,1594.69 C868.969,1594.79 869.469,1594.79 870.069,1594.79 C873.569,1594.79 877.269,1593.79 880.769,1591.89 C887.369,1588.29 891.569,1582.49 891.569,1577.39 C891.569,1575.99 891.269,1574.59 890.569,1573.39"/>
<path class="Note" d="M1087.06,1585.9 C1085.56,1583.2 1082.66,1581.5 1078.76,1581.1 C1078.16,1581 1077.66,1581 1077.06,1581 C1073.56,1581 1069.76,1582 1066.26,1583.9 C1059.66,1587.5 1055.56,1593.4 1055.56,1598.5 C1055.56,1599.9 1055.76,1601.2 1056.46,1602.4 C1057.96,1605.1 1060.96,1606.8 1064.86,1607.2 C1065.46,1607.3 1065.96,1607.3 1066.56,1607.3 C1070.06,1607.3 1073.76,1606.3 1077.26,1604.4 C1083.86,1600.8 1088.06,1595 1088.06,1589.9 C1088.06,1588.5 1087.76,1587.1 1087.06,1585.9"/>
<path class="Note" d="M1216.71,1598.4 C1215.21,1595.7 1212.31,1594 1208.41,1593.6 C1207.81,1593.5 1207.31,1593.5 1206.71,1593.5 C1203.21,1593.5 1199.41,1594.5 1195.91,1596.4 C1189.31,1600 1185.21,1605.9 1185.21,1611 C1185.21,1612.4 1185.41,1613.7 1186.11,1614.9 C1187.61,1617.6 1190.61,1619.3 1194.51,1619.7 C1195.11,1619.8 1195.61,1619.8 1196.21,1619.8 C1199.71,1619.8 1203.41,1618.8 1206.91,1616.9 C1213.51,1613.3 1217.71,1607.5 1217.71,1602.4 C1217.71,1601 1217.41,1599.6 1216.71,1598.4"/>
<path class="Note" d="M1346.36,1610.9 C1344.86,1608.2 1341.96,1606.5 1338.06,1606.1 C1337.46,1606 1336.96,1606 1336.36,1606 C1332.86,1606 1329.06,1607 1325.56,1608.9 C1318.96,1612.5 1314.86,1618.4 1314.86,1623.5 C1314.86,1624.9 1315.06,1626.2 1315.76,1627.4 C1317.26,1630.1 1320.26,1631.8 1324.16,1632.2 C1324.76,1632.3 1325.26,1632.3 1325.86,1632.3 C1329.36,1632.3 1333.06,1631.3 1336.56,1629.4 C1343.16,1625.8 1347.36,1620 1347.36,1614.9 C1347.36,1613.5 1347.06,1612.1 1346.36,1610.9"/>
<path class="Note" d="M1476.01,1610.9 C1474.51,1608.2 1471.61,1606.5 1467.71,1606.1 C1467.11,1606 1466.61,1606 1466.01,1606 C1462.51,1606 1458.71,1607 1455.21,1608.9 C1448.61,1612.5 1444.51,1618.4 1444.51,1623.5 C1444.51,1624.9 1444.71,1626.2 1445.41,1627.4 C1446.91,1630.1 1449.91,1631.8 1453.81,1632.2 C1454.41,1632.3 1454.91,1632.3 1455.51,1632.3 C1459.01,1632.3 1462.71,1631.3 1466.21,1629.4 C1472.81,1625.8 1477.01,1620 1477.01,1614.9 C1477.01,1613.5 1476.71,1612.1 1476.01,1610.9"/>
<path class="Note" d="M1708.28,1485.89 C1706.78,1483.19 1703.88,1481.49 1699.98,1481.09 C1699.38,1480.99 1698.88,1480.99 1698.28,1480.99 C1694.78,1480.99 1690.98,1481.99 1687.48,1483.89 C1680.88,1487.49 1676.78,1493.39 1676.78,1498.49 C1676.78,1499.89 1676.98,1501.19 1677.68,1502.39 C1679.18,1505.09 1682.18,1506.79 1686.08,1507.19 C1686.68,1507.29 1687.18,1507.29 1687.78,1507.29 C1691.28,1507.29 1694.98,1506.29 1698.48,1504.39 C1705.08,1500.79 1709.28,1494.99 1709.28,1489.89 C1709.28,1488.49 1708.98,1487.09 1708.28,1485.89"/>
<path class="Note" d="M1851.15,1498.39 C1849.65,1495.69 1846.75,1493.99 1842.85,1493.59 C1842.25,1493.49 1841.75,1493.49 1841.15,1493.49 C1837.65,1493.49 1833.85,1494.49 1830.35,1496.39 C1823.75,1499.99 1819.65,1505.89 1819.65,1510.99 C1819.65,1512.39 1819.85,1513.69 1820.55,1514.89 C1822.05,1517.59 1825.05,1519.29 1828.95,1519.69 C1829.55,1519.79 1830.05,1519.79 1830.65,1519.79 C1834.15,1519.79 1837.85,1518.79 1841.35,1516.89 C1847.95,1513.29 1852.15,1507.49 1852.15,1502.39 C1852.15,1500.99 1851.85,1499.59 1851.15,1498.39"/>
<path class="Note" d="M1994.01,1510.89 C1992.51,1508.19 1989.61,1506.49 1985.71,1506.09 C1985.11,1505.99 1984.61,1505.99 1984.01,1505.99 C1980.51,1505.99 1976.71,1506.99 1973.21,1508.89 C1966.61,1512.49 1962.51,1518.39 1962.51,1523.49 C1962.51,1524.89 1962.71,1526.19 1963.41,1527.39 C1964.91,1530.09 1967.91,1531.79 1971.81,1532.19 C1972.41,1532.29 1972.91,1532.29 1973.51,1532.29 C1977.01,1532.29 1980.71,1531.29 1984.21,1529.39 C1990.81,1525.79 1995.01,1519.99 1995.01,1514.89 C1995.01,1513.49 1994.71,1512.09 1994.01,1510.89"/>
<path class="Note" d="M2136.87,1523.39 C2135.37,1520.69 2132.47,1518.99 2128.57,1518.59 C2127.97,1518.49 2127.47,1518.49 2126.87,1518.49 C2123.37,1518.49 2119.57,1519.49 2116.07,1521.39 C2109.47,1524.99 2105.37,1530.89 2105.37,1535.99 C2105.37,1537.39 2105.57,1538.69 2106.27,1539.89 C2107.77,1542.59 2110.77,1544.29 2114.67,1544.69 C2115.27,1544.79 2115.77,1544.79 2116.37,1544.79 C2119.87,1544.79 2123.57,1543.79 2127.07,1541.89 C2133.67,1538.29 2137.87,1532.49 2137.87,1527.39 C2137.87,1525.99 2137.57,1524.59 2136.87,1523.39"/>
<path class="Note" d="M2316.74,1535.89 C2315.24,1533.19 2312.34,1531.49 2308.44,1531.09 C2307.84,1530.99 2307.34,1530.99 2306.74,1530.99 C2303.24,1530.99 2299.44,1531.99 2295.94,1533.89 C2289.34,1537.49 2285.24,1543.39 2285.24,1548.49 C2285.24,1549.89 2285.44,1551.19 2286.14,1552.39 C2287.64,1555.09 2290.64,1556.79 2294.54,1557.19 C2295.14,1557.29 2295.64,1557.29 2296.24,1557.29 C2299.74,1557.29 2303.44,1556.29 2306.94,1554.39 C2313.54,1550.79 2317.74,1544.99 2317.74,1539.89 C2317.74,1538.49 2317.44,1537.09 2316.74,1535.89"/>
<path class="Note" d="M2468.35,1548.39 C2466.85,1545.69 2463.95,1543.99 2460.05,1543.59 C2459.45,1543.49 2458.95,1543.49 2458.35,1543.49 C2454.85,1543.49 2451.05,1544.49 2447.55,1546.39 C2440.95,1549.99 2436.85,1555.79 2436.85,1560.89 C2436.85,1562.29 2437.25,1563.69 2437.95,1564.89 C2439.45,1567.69 2442.25,1569.29 2446.15,1569.69 C2446.75,1569.79 2447.25,1569.79 2447.85,1569.79 C2451.35,1569.79 2455.15,1568.79 2458.65,1566.89 C2465.25,1563.29 2469.35,1557.39 2469.35,1552.29 C2469.35,1550.89 2469.05,1549.59 2468.35,1548.39 M2464.15,1554.69 C2462.45,1556.49 2459.25,1558.79 2455.65,1560.89 C2452.05,1562.99 2448.35,1564.69 2446.05,1565.39 C2445.55,1565.49 2444.95,1565.59 2444.45,1565.59 C2442.95,1565.59 2441.65,1564.89 2440.95,1563.79 C2440.65,1563.19 2440.45,1562.59 2440.45,1561.99 C2440.45,1560.89 2440.95,1559.79 2442.05,1558.59 C2443.75,1556.79 2446.95,1554.39 2450.55,1552.29 C2454.15,1550.19 2457.85,1548.49 2460.25,1547.89 L2460.45,1547.89 C2461.05,1547.69 2461.55,1547.59 2462.05,1547.59 C2463.45,1547.59 2464.55,1548.19 2465.25,1549.49 C2465.55,1550.09 2465.75,1550.59 2465.75,1551.19 C2465.75,1552.49 2465.05,1553.79 2464.15,1554.69"/>
<path class="Note" d="M486.502,735.842 C485.002,733.142 482.102,731.442 478.202,731.042 C477.602,730.942 477.102,730.942 476.502,730.942 C473.002,730.942 469.202,731.942 465.702,733.842 C459.102,737.442 455.002,743.342 455.002,748.442 C455.002,749.842 455.202,751.142 455.902,752.342 C457.402,755.042 460.402,756.742 464.302,757.142 C464.902,757.242 465.402,757.242 466.002,757.242 C469.502,757.242 473.202,756.242 476.702,754.342 C483.302,750.742 487.502,744.942 487.502,739.842 C487.502,738.442 487.202,737.042 486.502,735.842"/>
<path class="Note" d="M616.654,723.341 C615.154,720.641 612.254,718.941 608.354,718.541 C607.754,718.441 607.254,718.441 606.654,718.441 C603.154,718.441 599.354,719.441 595.854,721.341 C589.254,724.941 585.154,730.841 585.154,735.941 C585.154,737.341 585.354,738.641 586.054,739.841 C587.554,742.541 590.554,744.241 594.454,744.641 C595.054,744.741 595.554,744.741 596.154,744.741 C599.654,744.741 603.354,743.741 606.854,741.841 C613.454,738.241 617.654,732.441 617.654,727.341 C617.654,725.941 617.354,724.541 616.654,723.341"/>
<path class="Note" d="M746.805,710.84 C745.305,708.14 742.405,706.44 738.505,706.04 C737.905,705.94 737.405,705.94 736.805,705.94 C733.305,705.94 729.505,706.94 726.005,708.84 C719.405,712.44 715.305,718.34 715.305,723.44 C715.305,724.84 715.505,726.14 716.205,727.34 C717.705,730.04 720.705,731.74 724.605,732.14 C725.205,732.24 725.705,732.24 726.305,732.24 C729.805,732.24 733.505,731.24 737.005,729.34 C743.605,725.74 747.805,719.94 747.805,714.84 C747.805,713.44 747.505,712.04 746.805,710.84"/>
<path class="Note" d="M876.957,698.339 C875.457,695.639 872.557,693.939 868.657,693.539 C868.057,693.439 867.557,693.439 866.957,693.439 C863.457,693.439 859.657,694.439 856.157,696.339 C849.557,699.939 845.457,705.839 845.457,710.939 C845.457,712.339 845.657,713.639 846.357,714.839 C847.857,717.539 850.857,719.239 854.757,719.639 C855.357,719.739 855.857,719.739 856.457,719.739 C859.957,719.739 863.657,718.739 867.157,716.839 C873.757,713.239 877.957,707.439 877.957,702.339 C877.957,700.939 877.657,699.539 876.957,698.339"/>
<path class="Note" d="M1052.86,685.838 C1051.36,683.138 1048.46,681.438 1044.56,681.038 C1043.96,680.938 1043.46,680.938 1042.86,680.938 C1039.36,680.938 1035.56,681.938 1032.06,683.838 C1025.46,687.438 1021.36,693.338 1021.36,698.438 C1021.36,699.838 1021.56,701.138 1022.26,702.338 C1023.76,705.038 1026.76,706.738 1030.66,707.138 C1031.26,707.238 1031.76,707.238 1032.36,707.238 C1035.86,707.238 1039.56,706.238 1043.06,704.338 C1049.66,700.738 1053.86,694.938 1053.86,689.838 C1053.86,688.438 1053.56,687.038 1052.86,685.838"/>
<path class="Note" d="M1189.15,673.338 C1187.65,670.638 1184.75,668.938 1180.85,668.538 C1180.25,668.438 1179.75,668.438 1179.15,668.438 C1175.65,668.438 1171.85,669.438 1168.35,671.338 C1161.75,674.938 1157.65,680.838 1157.65,685.938 C1157.65,687.338 1157.85,688.638 1158.55,689.838 C1160.05,692.538 1163.05,694.238 1166.95,694.638 C1167.55,694.738 1168.05,694.738 1168.65,694.738 C1172.15,694.738 1175.85,693.738 1179.35,691.838 C1185.95,688.238 1190.15,682.438 1190.15,677.338 C1190.15,675.938 1189.85,674.538 1189.15,673.338"/>
<path class="Note" d="M1325.44,648.336 C1323.94,645.636 1321.04,643.936 1317.14,643.536 C1316.54,643.436 1316.04,643.436 1315.44,643.436 C1311.94,643.436 1308.14,644.436 1304.64,646.336 C1298.04,649.936 1293.94,655.836 1293.94,660.936 C1293.94,662.336 1294.14,663.636 1294.84,664.836 C1296.34,667.536 1299.34,669.236 1303.24,669.636 C1303.84,669.736 1304.34,669.736 1304.94,669.736 C1308.44,669.736 1312.14,668.736 1315.64,666.836 C1322.24,663.236 1326.44,657.436 1326.44,652.336 C1326.44,650.936 1326.14,649.536 1325.44,648.336"/>
<path class="Note" d="M1461.72,648.336 C1460.22,645.636 1457.32,643.936 1453.42,643.536 C1452.82,643.436 1452.32,643.436 1451.72,643.436 C1448.22,643.436 1444.42,644.436 1440.92,646.336 C1434.32,649.936 1430.22,655.836 1430.22,660.936 C1430.22,662.336 1430.42,663.636 1431.12,664.836 C1432.62,667.536 1435.62,669.236 1439.52,669.636 C1440.12,669.736 1440.62,669.736 1441.22,669.736 C1444.72,669.736 1448.42,668.736 1451.92,666.836 C1458.52,663.236 1462.72,657.436 1462.72,652.336 C1462.72,650.936 1462.42,649.536 1461.72,648.336"/>
<path class="Note" d="M1698.71,635.835 C1697.21,633.135 1694.31,631.435 1690.41,631.035 C1689.81,630.935 1689.31,630.935 1688.71,630.935 C1685.21,630.935 1681.41,631.935 1677.91,633.835 C1671.31,637.435 1667.21,643.335 1667.21,648.435 C1667.21,649.835 1667.41,651.135 1668.11,652.335 C1669.61,655.035 1672.61,656.735 1676.51,657.135 C1677.11,657.235 1677.61,657.235 1678.21,657.235 C1681.71,657.235 1685.41,656.235 1688.91,654.335 C1695.51,650.735 1699.71,644.935 1699.71,639.835 C1699.71,638.435 1699.41,637.035 1698.71,635.835"/>
<path class="Note" d="M1840.34,623.334 C1838.84,620.634 1835.94,618.934 1832.04,618.534 C1831.44,618.434 1830.94,618.434 1830.34,618.434 C1826.84,618.434 1823.04,619.434 1819.54,621.334 C1812.94,624.934 1808.84,630.834 1808.84,635.934 C1808.84,637.334 1809.04,638.634 1809.74,639.834 C1811.24,642.534 1814.24,644.234 1818.14,644.634 C1818.74,644.734 1819.24,644.734 1819.84,644.734 C1823.34,644.734 1827.04,643.734 1830.54,641.834 C1837.14,638.234 1841.34,632.434 1841.34,627.334 C1841.34,625.934 1841.04,624.534 1840.34,623.334"/>
<path class="Note" d="M1981.97,610.834 C1980.47,608.134 1977.57,606.434 1973.67,606.034 C1973.07,605.934 1972.57,605.934 1971.97,605.934 C1968.47,605.934 1964.67,606.934 1961.17,608.834 C1954.57,612.434 1950.47,618.334 1950.47,623.434 C1950.47,624.834 1950.67,626.134 1951.37,627.334 C1952.87,630.034 1955.87,631.734 1959.77,632.134 C1960.37,632.234 1960.87,632.234 1961.47,632.234 C1964.97,632.234 1968.67,631.234 1972.17,629.334 C1978.77,625.734 1982.97,619.934 1982.97,614.834 C1982.97,613.434 1982.67,612.034 1981.97,610.834"/>
<path class="Note" d="M2123.59,598.333 C2122.09,595.633 2119.19,593.933 2115.29,593.533 C2114.69,593.433 2114.19,593.433 2113.59,593.433 C2110.09,593.433 2106.29,594.433 2102.79,596.333 C2096.19,599.933 2092.09,605.833 2092.09,610.933 C2092.09,612.333 2092.29,613.633 2092.99,614.833 C2094.49,617.533 2097.49,619.233 2101.39,619.633 C2101.99,619.733 2102.49,619.733 2103.09,619.733 C2106.59,619.733 2110.29,618.733 2113.79,616.833 C2120.39,613.233 2124.59,607.433 2124.59,602.333 C2124.59,600.933 2124.29,599.533 2123.59,598.333"/>
<path class="Note" d="M2310.97,585.832 C2309.47,583.132 2306.57,581.432 2302.67,581.032 C2302.07,580.932 2301.57,580.932 2300.97,580.932 C2297.47,580.932 2293.67,581.932 2290.17,583.832 C2283.57,587.432 2279.47,593.332 2279.47,598.432 C2279.47,599.832 2279.67,601.132 2280.37,602.332 C2281.87,605.032 2284.87,606.732 2288.77,607.132 C2289.37,607.232 2289.87,607.232 2290.47,607.232 C2293.97,607.232 2297.67,606.232 2301.17,604.332 C2307.77,600.732 2311.97,594.932 2311.97,589.832 C2311.97,588.432 2311.67,587.032 2310.97,585.832"/>
<path class="Note" d="M2444.49,560.83 C2442.99,558.13 2440.09,556.43 2436.19,556.03 C2435.59,555.93 2435.09,555.93 2434.49,555.93 C2430.99,555.93 2427.19,556.93 2423.69,558.83 C2417.09,562.43 2412.99,568.33 2412.99,573.43 C2412.99,574.83 2413.19,576.13 2413.89,577.33 C2415.39,580.03 2418.39,581.73 2422.29,582.13 C2422.89,582.23 2423.39,582.23 2423.99,582.23 C2427.49,582.23 2431.19,581.23 2434.69,579.33 C2441.29,575.73 2445.49,569.93 2445.49,564.83 C2445.49,563.43 2445.19,562.03 2444.49,560.83"/>
<path class="Note" d="M2578.01,560.83 C2576.51,558.13 2573.61,556.43 2569.71,556.03 C2569.11,555.93 2568.61,555.93 2568.01,555.93 C2564.51,555.93 2560.71,556.93 2557.21,558.83 C2550.61,562.43 2546.51,568.23 2546.51,573.33 C2546.51,574.73 2546.91,576.13 2547.61,577.33 C2549.11,580.13 2551.91,581.73 2555.81,582.13 C2556.41,582.23 2556.91,582.23 2557.51,582.23 C2561.01,582.23 2564.81,581.23 2568.31,579.33 C2574.91,575.73 2579.01,569.83 2579.01,564.73 C2579.01,563.33 2578.71,562.03 2578.01,560.83 M2573.81,567.13 C2572.11,568.93 2568.91,571.23 2565.31,573.33 C2561.71,575.43 2558.01,577.13 2555.71,577.83 C2555.21,577.93 2554.61,578.03 2554.11,578.03 C2552.61,578.03 2551.31,577.33 2550.61,576.23 C2550.31,575.63 2550.11,575.03 2550.11,574.43 C2550.11,573.33 2550.61,572.23 2551.71,571.03 C2553.41,569.23 2556.61,566.83 2560.21,564.73 C2563.81,562.63 2567.51,560.93 2569.91,560.33 L2570.11,560.33 C2570.71,560.13 2571.21,560.03 2571.71,560.03 C2573.11,560.03 2574.21,560.63 2574.91,561.93 C2575.21,562.53 2575.41,563.03 2575.41,563.63 C2575.41,564.93 2574.71,566.23 2573.81,567.13"/>
<path class="Note" d="M438.351,1173.37 C436.851,1170.67 433.951,1168.97 430.051,1168.57 C429.451,1168.47 428.951,1168.47 428.351,1168.47 C424.851,1168.47 421.051,1169.47 417.551,1171.37 C410.951,1174.97 406.851,1180.87 406.851,1185.97 C406.851,1187.37 407.051,1188.67 407.751,1189.87 C409.251,1192.57 412.251,1194.27 416.151,1194.67 C416.751,1194.77 417.251,1194.77 417.851,1194.77 C421.351,1194.77 425.051,1193.77 428.551,1191.87 C435.151,1188.27 439.351,1182.47 439.351,1177.37 C439.351,1175.97 439.051,1174.57 438.351,1173.37"/>
<path class="Note" d="M589.09,1198.37 C587.59,1195.67 584.69,1193.97 580.79,1193.57 C580.19,1193.47 579.69,1193.47 579.09,1193.47 C575.59,1193.47 571.79,1194.47 568.29,1196.37 C561.69,1199.97 557.59,1205.87 557.59,1210.97 C557.59,1212.37 557.79,1213.67 558.49,1214.87 C559.99,1217.57 562.99,1219.27 566.89,1219.67 C567.49,1219.77 567.99,1219.77 568.59,1219.77 C572.09,1219.77 575.79,1218.77 579.29,1216.87 C585.89,1213.27 590.09,1207.47 590.09,1202.37 C590.09,1200.97 589.79,1199.57 589.09,1198.37"/>
<path class="Note" d="M739.83,1210.87 C738.33,1208.17 735.43,1206.47 731.53,1206.07 C730.93,1205.97 730.43,1205.97 729.83,1205.97 C726.33,1205.97 722.53,1206.97 719.03,1208.87 C712.43,1212.47 708.33,1218.37 708.33,1223.47 C708.33,1224.87 708.53,1226.17 709.23,1227.37 C710.73,1230.07 713.73,1231.77 717.63,1232.17 C718.23,1232.27 718.73,1232.27 719.33,1232.27 C722.83,1232.27 726.53,1231.27 730.03,1229.37 C736.63,1225.77 740.83,1219.97 740.83,1214.87 C740.83,1213.47 740.53,1212.07 739.83,1210.87"/>
<path class="Note" d="M890.569,1223.37 C889.069,1220.67 886.169,1218.97 882.269,1218.57 C881.669,1218.47 881.169,1218.47 880.569,1218.47 C877.069,1218.47 873.269,1219.47 869.769,1221.37 C863.169,1224.97 859.069,1230.87 859.069,1235.97 C859.069,1237.37 859.269,1238.67 859.969,1239.87 C861.469,1242.57 864.469,1244.27 868.369,1244.67 C868.969,1244.77 869.469,1244.77 870.069,1244.77 C873.569,1244.77 877.269,1243.77 880.769,1241.87 C887.369,1238.27 891.569,1232.47 891.569,1227.37 C891.569,1225.97 891.269,1224.57 890.569,1223.37"/>
<path class="Note" d="M1087.06,1235.87 C1085.56,1233.17 1082.66,1231.47 1078.76,1231.07 C1078.16,1230.97 1077.66,1230.97 1077.06,1230.97 C1073.56,1230.97 1069.76,1231.97 1066.26,1233.87 C1059.66,1237.47 1055.56,1243.37 1055.56,1248.47 C1055.56,1249.87 1055.76,1251.17 1056.46,1252.37 C1057.96,1255.07 1060.96,1256.77 1064.86,1257.17 C1065.46,1257.27 1065.96,1257.27 1066.56,1257.27 C1070.06,1257.27 1073.76,1256.27 1077.26,1254.37 C1083.86,1250.77 1088.06,1244.97 1088.06,1239.87 C1088.06,1238.47 1087.76,1237.07 1087.06,1235.87"/>
<path class="Note" d="M1216.71,1248.37 C1215.21,1245.67 1212.31,1243.97 1208.41,1243.57 C1207.81,1243.47 1207.31,1243.47 1206.71,1243.47 C1203.21,1243.47 1199.41,1244.47 1195.91,1246.37 C1189.31,1249.97 1185.21,1255.87 1185.21,1260.97 C1185.21,1262.37 1185.41,1263.67 1186.11,1264.87 C1187.61,1267.57 1190.61,1269.27 1194.51,1269.67 C1195.11,1269.77 1195.61,1269.77 1196.21,1269.77 C1199.71,1269.77 1203.41,1268.77 1206.91,1266.87 C1213.51,1263.27 1217.71,1257.47 1217.71,1252.37 C1217.71,1250.97 1217.41,1249.57 1216.71,1248.37"/>
<path class="Note" d="M1346.36,1260.87 C1344.86,1258.17 1341.96,1256.47 1338.06,1256.07 C1337.46,1255.97 1336.96,1255.97 1336.36,1255.97 C1332.86,1255.97 1329.06,1256.97 1325.56,1258.87 C1318.96,1262.47 1314.86,1268.37 1314.86,1273.47 C1314.86,1274.87 1315.06,1276.17 1315.76,1277.37 C1317.26,1280.07 1320.26,1281.77 1324.16,1282.17 C1324.76,1282.27 1325.26,1282.27 1325.86,1282.27 C1329.36,1282.27 1333.06,1281.27 1336.56,1279.37 C1343.16,1275.77 1347.36,1269.97 1347.36,1264.87 C1347.36,1263.47 1347.06,1262.07 1346.36,1260.87"/>
<path class="Note" d="M1476.01,1260.87 C1474.51,1258.17 1471.61,1256.47 1467.71,1256.07 C1467.11,1255.97 1466.61,1255.97 1466.01,1255.97 C1462.51,1255.97 1458.71,1256.97 1455.21,1258.87 C1448.61,1262.47 1444.51,1268.37 1444.51,1273.47 C1444.51,1274.87 1444.71,1276.17 1445.41,1277.37 C1446.91,1280.07 1449.91,1281.77 1453.81,1282.17 C1454.41,1282.27 1454.91,1282.27 1455.51,1282.27 C1459.01,1282.27 1462.71,1281.27 1466.21,1279.37 C1472.81,1275.77 1477.01,1269.97 1477.01,1264.87 C1477.01,1263.47 1476.71,1262.07 1476.01,1260.87"/>
<path class="Note" d="M1708.28,1285.88 C1706.78,1283.18 1703.88,1281.48 1699.98,1281.08 C1699.38,1280.98 1698.88,1280.98 1698.28,1280.98 C1694.78,1280.98 1690.98,1281.98 1687.48,1283.88 C1680.88,1287.48 1676.78,1293.38 1676.78,1298.48 C1676.78,1299.88 1676.98,1301.18 1677.68,1302.38 C1679.18,1305.08 1682.18,1306.78 1686.08,1307.18 C1686.68,1307.28 1687.18,1307.28 1687.78,1307.28 C1691.28,1307.28 1694.98,1306.28 1698.48,1304.38 C1705.08,1300.78 1709.28,1294.98 1709.28,1289.88 C1709.28,1288.48 1708.98,1287.08 1708.28,1285.88"/>
<path class="Note" d="M1851.15,1298.38 C1849.65,1295.68 1846.75,1293.98 1842.85,1293.58 C1842.25,1293.48 1841.75,1293.48 1841.15,1293.48 C1837.65,1293.48 1833.85,1294.48 1830.35,1296.38 C1823.75,1299.98 1819.65,1305.88 1819.65,1310.98 C1819.65,1312.38 1819.85,1313.68 1820.55,1314.88 C1822.05,1317.58 1825.05,1319.28 1828.95,1319.68 C1829.55,1319.78 1830.05,1319.78 1830.65,1319.78 C1834.15,1319.78 1837.85,1318.78 1841.35,1316.88 C1847.95,1313.28 1852.15,1307.48 1852.15,1302.38 C1852.15,1300.98 1851.85,1299.58 1851.15,1298.38"/>
<path class="Note" d="M1994.01,1310.88 C1992.51,1308.18 1989.61,1306.48 1985.71,1306.08 C1985.11,1305.98 1984.61,1305.98 1984.01,1305.98 C1980.51,1305.98 1976.71,1306.98 1973.21,1308.88 C1966.61,1312.48 1962.51,1318.38 1962.51,1323.48 C1962.51,1324.88 1962.71,1326.18 1963.41,1327.38 C1964.91,1330.08 1967.91,1331.78 1971.81,1332.18 C1972.41,1332.28 1972.91,1332.28 1973.51,1332.28 C1977.01,1332.28 1980.71,1331.28 1984.21,1329.38 C1990.81,1325.78 1995.01,1319.98 1995.01,1314.88 C1995.01,1313.48 1994.71,1312.08 1994.01,1310.88"/>
<path class="Note" d="M2136.87,1323.38 C2135.37,1320.68 2132.47,1318.98 2128.57,1318.58 C2127.97,1318.48 2127.47,1318.48 2126.87,1318.48 C2123.37,1318.48 2119.57,1319.48 2116.07,1321.38 C2109.47,1324.98 2105.37,1330.88 2105.37,1335.98 C2105.37,1337.38 2105.57,1338.68 2106.27,1339.88 C2107.77,1342.58 2110.77,1344.28 2114.67,1344.68 C2115.27,1344.78 2115.77,1344.78 2116.37,1344.78 C2119.87,1344.78 2123.57,1343.78 2127.07,1341.88 C2133.67,1338.28 2137.87,1332.48 2137.87,1327.38 C2137.87,1325.98 2137.57,1324.58 2136.87,1323.38"/>
<path class="Note" d="M2316.74,1335.88 C2315.24,1333.18 2312.34,1331.48 2308.44,1331.08 C2307.84,1330.98 2307.34,1330.98 2306.74,1330.98 C2303.24,1330.98 2299.44,1331.98 2295.94,1333.88 C2289.34,1337.48 2285.24,1343.38 2285.24,1348.48 C2285.24,1349.88 2285.44,1351.18 2286.14,1352.38 C2287.64,1355.08 2290.64,1356.78 2294.54,1357.18 C2295.14,1357.28 2295.64,1357.28 2296.24,1357.28 C2299.74,1357.28 2303.44,1356.28 2306.94,1354.38 C2313.54,1350.78 2317.74,1344.98 2317.74,1339.88 C2317.74,1338.48 2317.44,1337.08 2316.74,1335.88"/>
<path class="Note" d="M2468.35,1348.38 C2466.85,1345.68 2463.95,1343.98 2460.05,1343.58 C2459.45,1343.48 2458.95,1343.48 2458.35,1343.48 C2454.85,1343.48 2451.05,1344.48 2447.55,1346.38 C2440.95,1349.98 2436.85,1355.78 2436.85,1360.88 C2436.85,1362.28 2437.25,1363.68 2437.95,1364.88 C2439.45,1367.68 2442.25,1369.28 2446.15,1369.68 C2446.75,1369.78 2447.25,1369.78 2447.85,1369.78 C2451.35,1369.78 2455.15,1368.78 2458.65,1366.88 C2465.25,1363.28 2469.35,1357.38 2469.35,1352.28 C2469.35,1350.88 2469.05,1349.58 2468.35,1348.38 M2464.15,1354.68 C2462.45,1356.48 2459.25,1358.78 2455.65,1360.88 C2452.05,1362.98 2448.35,1364.68 2446.05,1365.38 C2445.55,1365.48 2444.95,1365.58 2444.45,1365.58 C2442.95,1365.58 2441.65,1364.88 2440.95,1363.78 C2440.65,1363.18 2440.45,1362.58 2440.45,1361.98 C2440.45,1360.88 2440.95,1359.78 2442.05,1358.58 C2443.75,1356.78 2446.95,1354.38 2450.55,1352.28 C2454.15,1350.18 2457.85,1348.48 2460.25,1347.88 L2460.45,1347.88 C2461.05,1347.68 2461.55,1347.58 2462.05,1347.58 C2463.45,1347.58 2464.55,1348.18 2465.25,1349.48 C2465.55,1350.08 2465.75,1350.58 2465.75,1351.18 C2465.75,1352.48 2465.05,1353.78 2464.15,1354.68"/>
<path class="Clef" d="M297,918.954 C289.4,918.954 283.3,923.354 283.2,923.354 C277.4,927.654 275.1,932.754 274.2,936.254 C273.7,938.054 273.5,939.854 273.5,941.554 C273.5,943.954 273.9,946.154 274.8,948.054 C276,950.754 278.3,952.654 281.3,953.654 C282.5,954.054 283.8,954.254 285.1,954.254 C287.3,954.254 289.6,953.654 291.5,952.554 C294.6,950.854 296.5,947.254 296.5,943.354 C296.5,939.854 294.7,936.654 291.7,934.754 C289.6,933.354 287.6,932.954 285.9,932.954 C284.7,932.954 283.6,933.154 282.7,933.454 C281.7,933.854 280,934.854 279.2,935.554 C279.5,933.654 280.7,930.754 281.8,929.154 C282.9,927.554 285.1,925.554 286.8,924.654 C289.3,923.254 292.5,922.654 296,922.654 C306.2,922.654 311.2,930.854 311.2,947.654 C311.2,956.954 307.7,965.854 304.7,971.754 C301.4,978.354 297,984.654 293.1,988.154 C282.7,997.654 272.9,1002.15 272.8,1002.15 C272.8,1002.15 271.3,1003.05 271.7,1004.55 C272,1005.55 272.9,1005.75 273.5,1005.75 C273.6,1005.75 273.9,1005.65 274,1005.65 C274.1,1005.65 285.5,1000.95 294.6,993.854 C299.7,990.154 304.3,986.154 308.3,981.854 C311.9,977.954 315,973.754 317.5,969.554 C321.9,962.054 324.4,954.254 324.4,947.554 C324.4,939.254 322.2,932.354 318.1,927.454 C313.4,921.854 306.3,918.954 297,918.954 M328.4,931.654 C328.4,934.454 330.6,936.654 333.2,936.654 C335.8,936.654 338,934.454 338,931.654 C338,928.854 335.8,926.554 333.2,926.554 C330.6,926.554 328.4,928.854 328.4,931.654 M328.4,956.354 C328.4,959.154 330.6,961.454 333.2,961.454 C335.8,961.454 338,959.154 338,956.354 C338,953.554 335.8,951.254 333.2,951.254 C330.6,951.254 328.4,953.554 328.4,956.354"/>
<path class="Clef" transform="matrix(0.80005,0,0,0.80005,1591.01,994.057)" d="M63.4,-5.9 C62.2,-11.3 59.5,-15.2 58.7,-16.2 C55.5,-20.5 51.5,-23.3 46.8,-24.7 C44.5,-25.4 42.4,-25.6 40.4,-25.6 C39.7,-25.6 39,-25.6 38.3,-25.5 C37.3,-31.5 36.2,-37.4 35.3,-42.8 C40.9,-49 44.6,-54.9 47,-59.3 C50.6,-66 52,-70.7 52.1,-70.9 C53.3,-73.9 54,-77.7 54,-82.2 C54,-84.9 53.7,-87.8 53.3,-90.8 C52.2,-97.9 50,-104.6 47.5,-108.3 C46.2,-110.2 45,-111.3 43.8,-111.3 C42.6,-111.3 40.1,-110.1 37.2,-107.3 C34.9,-105.1 31.6,-101.2 29,-95.2 C26.7,-89.8 26,-82.9 26,-77 C26,-75.2 26.1,-73.5 26.2,-71.9 C26.4,-68.3 27.1,-62.5 27.7,-58.9 C27.7,-58.8 28,-57.3 28.4,-54.7 L27.7,-54 C26.7,-53 25.5,-51.9 24.1,-50.5 C23.2,-49.6 22.3,-48.8 21.3,-47.8 C12.8,-39.6 0,-27.2 0,-8.1 C0,-3.4 0.9,1 2.7,5 C4.3,8.6 6.6,11.9 9.5,14.8 C17,22.2 27.2,25.4 34.3,25.4 L34.9,25.4 C37.8,25.3 40.5,25 42.9,24.6 C44.7,34.2 45.9,41.3 45.9,46.6 C45.9,53.1 44.3,57 40.4,59.8 C38,61.5 35.1,62.6 32,62.7 L31.2,62.7 C29.7,62.7 27.2,62.3 25.7,61.9 C25.7,61.9 25.4,61.8 25.4,61.6 C25.4,61.4 25.8,61.4 25.8,61.4 C27.7,61 31.3,59.7 33.7,56.4 C34.8,54.9 35.5,52.6 35.5,50.1 C35.5,48.5 35.2,46.8 34.5,45.3 C33.4,42.9 30.8,39.9 25.2,39.5 L24.1,39.5 C22,39.5 20.2,40 18.5,41 C16.7,42.1 15.1,43.8 14.1,45.8 C13,47.8 12.5,50 12.5,52.2 C12.5,55.1 13.4,57.8 15.2,60 C18.2,63.6 22.9,65.9 28.3,66.5 C29,66.6 30.1,66.7 30.8,66.7 C35.2,66.7 39.6,65.5 43.2,63.3 C46.9,60.7 49,56.7 49.7,51.1 C49.9,49.8 49.9,48.4 49.9,46.9 C49.9,43 49.4,38.3 48.4,32.5 C48,30.4 47.6,27.4 46.9,23.6 C52.7,21.7 56.8,18 60.6,12.2 C62.9,8.2 64,4.1 64,-0.2 C64,-2.1 63.8,-4 63.4,-5.9 M33.2,-83.8 C35,-89.5 37.7,-92.9 39.7,-94.6 C41.5,-96.1 43.1,-96.8 44,-96.8 C44.1,-96.8 44.3,-96.7 44.4,-96.7 C44.7,-96.6 45.1,-96.1 45.5,-95.4 C46.4,-93.6 47.3,-90.3 47.3,-86.6 C47.3,-84.7 47.1,-82.7 46.5,-80.9 C44.3,-74.1 39.7,-66.8 32.7,-59.1 C32.5,-60.2 32.3,-61.2 32.2,-62.2 C31.7,-65.4 31.4,-68.6 31.4,-71.5 C31.4,-76 32,-80.1 33.2,-83.8 M29.2,20.3 C24.6,19.1 20.1,16.6 16.3,13.1 C15,11.9 13.2,9.7 11.7,6.3 C10.4,3.3 9.7,0.2 9.7,-3.2 L9.7,-3.9 C9.8,-8.6 11.1,-13.4 13.6,-18.2 C16.5,-23.8 21,-29.3 27.1,-34.6 C28.6,-35.9 30,-37.2 31.3,-38.5 C32.1,-34.2 32.8,-29.5 33.7,-24.6 C29.8,-23.3 25.1,-20.3 22,-14.6 C19.6,-10.1 18.9,-6.2 18.9,-3 C18.9,-1.5 19.1,-0.1 19.3,1 C20.2,5.5 22.8,9.2 26.3,11.3 C27.1,11.8 30.4,13.5 32.4,13.5 C32.7,13.5 33,13.5 33.2,13.4 C33.5,13.3 33.8,13.1 33.9,12.8 C34,12.6 34,12.4 34,12.2 C34,11.4 33.2,10.8 31.9,10 C31.3,9.6 30.6,9.2 29.9,8.7 C27.3,6.7 25.8,3.6 25.8,0.2 C25.8,-0.8 26,-1.7 26.2,-2.7 C26.7,-4.7 28.4,-7.5 29.9,-8.9 C31.6,-10.4 33.6,-11.6 36,-12.2 C38,-1 40.1,10.1 41.7,18.5 C41.8,19.2 42,19.9 42.1,20.6 C40.1,21 38.1,21.2 36.2,21.2 C33.8,21.2 31.5,20.9 29.2,20.3 M54.9,10.1 C53.7,13.3 51.2,17.3 46.1,19.4 C46,19 46,18.5 45.9,18.1 C44.4,9.3 42.5,-1.6 40.5,-12.9 L41.5,-12.9 C51.2,-12.9 55.1,-5.7 56,-1.1 C56.2,-0.2 56.3,1 56.3,2.3 C56.3,4.6 55.9,7.4 54.9,10.1"/>
<path class="Clef" d="M335,1600.7 C333.8,1595.3 331.1,1591.4 330.3,1590.4 C327.1,1586.1 323.1,1583.3 318.4,1581.9 C316.1,1581.2 314,1581 312,1581 C311.3,1581 310.6,1581 309.9,1581.1 C308.9,1575.1 307.8,1569.2 306.9,1563.8 C312.5,1557.6 316.2,1551.7 318.6,1547.3 C322.2,1540.6 323.6,1535.9 323.7,1535.7 C324.9,1532.7 325.6,1528.9 325.6,1524.4 C325.6,1521.7 325.3,1518.8 324.9,1515.8 C323.8,1508.7 321.6,1502 319.1,1498.3 C317.8,1496.4 316.6,1495.3 315.4,1495.3 C314.2,1495.3 311.7,1496.5 308.8,1499.3 C306.5,1501.5 303.2,1505.4 300.6,1511.4 C298.3,1516.8 297.6,1523.7 297.6,1529.6 C297.6,1531.4 297.7,1533.1 297.8,1534.7 C298,1538.3 298.7,1544.1 299.3,1547.7 C299.3,1547.8 299.6,1549.3 300,1551.9 L299.3,1552.6 C298.3,1553.6 297.1,1554.7 295.7,1556.1 C294.8,1557 293.9,1557.8 292.9,1558.8 C284.4,1567 271.6,1579.4 271.6,1598.5 C271.6,1603.2 272.5,1607.6 274.3,1611.6 C275.9,1615.2 278.2,1618.5 281.1,1621.4 C288.6,1628.8 298.8,1632 305.9,1632 L306.5,1632 C309.4,1631.9 312.1,1631.6 314.5,1631.2 C316.3,1640.8 317.5,1647.9 317.5,1653.2 C317.5,1659.7 315.9,1663.6 312,1666.4 C309.6,1668.1 306.7,1669.2 303.6,1669.3 L302.8,1669.3 C301.3,1669.3 298.8,1668.9 297.3,1668.5 C297.3,1668.5 297,1668.4 297,1668.2 C297,1668 297.4,1668 297.4,1668 C299.3,1667.6 302.9,1666.3 305.3,1663 C306.4,1661.5 307.1,1659.2 307.1,1656.7 C307.1,1655.1 306.8,1653.4 306.1,1651.9 C305,1649.5 302.4,1646.5 296.8,1646.1 L295.7,1646.1 C293.6,1646.1 291.8,1646.6 290.1,1647.6 C288.3,1648.7 286.7,1650.4 285.7,1652.4 C284.6,1654.4 284.1,1656.6 284.1,1658.8 C284.1,1661.7 285,1664.4 286.8,1666.6 C289.8,1670.2 294.5,1672.5 299.9,1673.1 C300.6,1673.2 301.7,1673.3 302.4,1673.3 C306.8,1673.3 311.2,1672.1 314.8,1669.9 C318.5,1667.3 320.6,1663.3 321.3,1657.7 C321.5,1656.4 321.5,1655 321.5,1653.5 C321.5,1649.6 321,1644.9 320,1639.1 C319.6,1637 319.2,1634 318.5,1630.2 C324.3,1628.3 328.4,1624.6 332.2,1618.8 C334.5,1614.8 335.6,1610.7 335.6,1606.4 C335.6,1604.5 335.4,1602.6 335,1600.7 M304.8,1522.8 C306.6,1517.1 309.3,1513.7 311.3,1512 C313.1,1510.5 314.7,1509.8 315.6,1509.8 C315.7,1509.8 315.9,1509.9 316,1509.9 C316.3,1510 316.7,1510.5 317.1,1511.2 C318,1513 318.9,1516.3 318.9,1520 C318.9,1521.9 318.7,1523.9 318.1,1525.7 C315.9,1532.5 311.3,1539.8 304.3,1547.5 C304.1,1546.4 303.9,1545.4 303.8,1544.4 C303.3,1541.2 303,1538 303,1535.1 C303,1530.6 303.6,1526.5 304.8,1522.8 M300.8,1626.9 C296.2,1625.7 291.7,1623.2 287.9,1619.7 C286.6,1618.5 284.8,1616.3 283.3,1612.9 C282,1609.9 281.3,1606.8 281.3,1603.4 L281.3,1602.7 C281.4,1598 282.7,1593.2 285.2,1588.4 C288.1,1582.8 292.6,1577.3 298.7,1572 C300.2,1570.7 301.6,1569.4 302.9,1568.1 C303.7,1572.4 304.4,1577.1 305.3,1582 C301.4,1583.3 296.7,1586.3 293.6,1592 C291.2,1596.5 290.5,1600.4 290.5,1603.6 C290.5,1605.1 290.7,1606.5 290.9,1607.6 C291.8,1612.1 294.4,1615.8 297.9,1617.9 C298.7,1618.4 302,1620.1 304,1620.1 C304.3,1620.1 304.6,1620.1 304.8,1620 C305.1,1619.9 305.4,1619.7 305.5,1619.4 C305.6,1619.2 305.6,1619 305.6,1618.8 C305.6,1618 304.8,1617.4 303.5,1616.6 C302.9,1616.2 302.2,1615.8 301.5,1615.3 C298.9,1613.3 297.4,1610.2 297.4,1606.8 C297.4,1605.8 297.6,1604.9 297.8,1603.9 C298.3,1601.9 300,1599.1 301.5,1597.7 C303.2,1596.2 305.2,1595 307.6,1594.4 C309.6,1605.6 311.7,1616.7 313.3,1625.1 C313.4,1625.8 313.6,1626.5 313.7,1627.2 C311.7,1627.6 309.7,1627.8 307.8,1627.8 C305.4,1627.8 303.1,1627.5 300.8,1626.9 M326.5,1616.7 C325.3,1619.9 322.8,1623.9 317.7,1626 C317.6,1625.6 317.6,1625.1 317.5,1624.7 C316,1615.9 314.1,1605 312.1,1593.7 L313.1,1593.7 C322.8,1593.7 326.7,1600.9 327.6,1605.5 C327.8,1606.4 327.9,1607.6 327.9,1608.9 C327.9,1611.2 327.5,1614 326.5,1616.7"/>
<path class="Clef" transform="matrix(0.80005,0,0,0.80005,1598.66,1556.59)" d="M25.4,-25.1 C17.8,-25.1 11.7,-20.7 11.6,-20.7 C5.8,-16.4 3.5,-11.3 2.6,-7.8 C2.1,-6 1.9,-4.2 1.9,-2.5 C1.9,-0.1 2.3,2.1 3.2,4 C4.4,6.7 6.7,8.6 9.7,9.6 C10.9,10 12.2,10.2 13.5,10.2 C15.7,10.2 18,9.6 19.9,8.5 C23,6.8 24.9,3.2 24.9,-0.7 C24.9,-4.2 23.1,-7.4 20.1,-9.3 C18,-10.7 16,-11.1 14.3,-11.1 C13.1,-11.1 12,-10.9 11.1,-10.6 C10.1,-10.2 8.4,-9.2 7.6,-8.5 C7.9,-10.4 9.1,-13.3 10.2,-14.9 C11.3,-16.5 13.5,-18.5 15.2,-19.4 C17.7,-20.8 20.9,-21.4 24.4,-21.4 C34.6,-21.4 39.6,-13.2 39.6,3.6 C39.6,12.9 36.1,21.8 33.1,27.7 C29.8,34.3 25.4,40.6 21.5,44.1 C11.1,53.6 1.3,58.1 1.2,58.1 C1.2,58.1 -0.3,59 0.1,60.5 C0.4,61.5 1.3,61.7 1.9,61.7 C2,61.7 2.3,61.6 2.4,61.6 C2.5,61.6 13.9,56.9 23,49.8 C28.1,46.1 32.7,42.1 36.7,37.8 C40.3,33.9 43.4,29.7 45.9,25.5 C50.3,18 52.8,10.2 52.8,3.5 C52.8,-4.8 50.6,-11.7 46.5,-16.6 C41.8,-22.2 34.7,-25.1 25.4,-25.1 M56.8,-12.4 C56.8,-9.6 59,-7.4 61.6,-7.4 C64.2,-7.4 66.4,-9.6 66.4,-12.4 C66.4,-15.2 64.2,-17.5 61.6,-17.5 C59,-17.5 56.8,-15.2 56.8,-12.4 M56.8,12.3 C56.8,15.1 59,17.4 61.6,17.4 C64.2,17.4 66.4,15.1 66.4,12.3 C66.4,9.5 64.2,7.2 61.6,7.2 C59,7.2 56.8,9.5 56.8,12.3"/>
<path class="Clef" d="M335,725.641 C333.8,720.241 331.1,716.341 330.3,715.341 C327.1,711.041 323.1,708.241 318.4,706.841 C316.1,706.141 314,705.941 312,705.941 C311.3,705.941 310.6,705.941 309.9,706.041 C308.9,700.041 307.8,694.141 306.9,688.741 C312.5,682.541 316.2,676.641 318.6,672.241 C322.2,665.541 323.6,660.841 323.7,660.641 C324.9,657.641 325.6,653.841 325.6,649.341 C325.6,646.641 325.3,643.741 324.9,640.741 C323.8,633.641 321.6,626.941 319.1,623.241 C317.8,621.341 316.6,620.241 315.4,620.241 C314.2,620.241 311.7,621.441 308.8,624.241 C306.5,626.441 303.2,630.341 300.6,636.341 C298.3,641.741 297.6,648.641 297.6,654.541 C297.6,656.341 297.7,658.041 297.8,659.641 C298,663.241 298.7,669.041 299.3,672.641 C299.3,672.741 299.6,674.241 300,676.841 L299.3,677.541 C298.3,678.541 297.1,679.641 295.7,681.041 C294.8,681.941 293.9,682.741 292.9,683.741 C284.4,691.941 271.6,704.341 271.6,723.441 C271.6,728.141 272.5,732.541 274.3,736.541 C275.9,740.141 278.2,743.441 281.1,746.341 C288.6,753.741 298.8,756.941 305.9,756.941 L306.5,756.941 C309.4,756.841 312.1,756.541 314.5,756.141 C316.3,765.741 317.5,772.841 317.5,778.141 C317.5,784.641 315.9,788.541 312,791.341 C309.6,793.041 306.7,794.141 303.6,794.241 L302.8,794.241 C301.3,794.241 298.8,793.841 297.3,793.441 C297.3,793.441 297,793.341 297,793.141 C297,792.941 297.4,792.941 297.4,792.941 C299.3,792.541 302.9,791.241 305.3,787.941 C306.4,786.441 307.1,784.141 307.1,781.641 C307.1,780.041 306.8,778.341 306.1,776.841 C305,774.441 302.4,771.441 296.8,771.041 L295.7,771.041 C293.6,771.041 291.8,771.541 290.1,772.541 C288.3,773.641 286.7,775.341 285.7,777.341 C284.6,779.341 284.1,781.541 284.1,783.741 C284.1,786.641 285,789.341 286.8,791.541 C289.8,795.141 294.5,797.441 299.9,798.041 C300.6,798.141 301.7,798.241 302.4,798.241 C306.8,798.241 311.2,797.041 314.8,794.841 C318.5,792.241 320.6,788.241 321.3,782.641 C321.5,781.341 321.5,779.941 321.5,778.441 C321.5,774.541 321,769.841 320,764.041 C319.6,761.941 319.2,758.941 318.5,755.141 C324.3,753.241 328.4,749.541 332.2,743.741 C334.5,739.741 335.6,735.641 335.6,731.341 C335.6,729.441 335.4,727.541 335,725.641 M304.8,647.741 C306.6,642.041 309.3,638.641 311.3,636.941 C313.1,635.441 314.7,634.741 315.6,634.741 C315.7,634.741 315.9,634.841 316,634.841 C316.3,634.941 316.7,635.441 317.1,636.141 C318,637.941 318.9,641.241 318.9,644.941 C318.9,646.841 318.7,648.841 318.1,650.641 C315.9,657.441 311.3,664.741 304.3,672.441 C304.1,671.341 303.9,670.341 303.8,669.341 C303.3,666.141 303,662.941 303,660.041 C303,655.541 303.6,651.441 304.8,647.741 M300.8,751.841 C296.2,750.641 291.7,748.141 287.9,744.641 C286.6,743.441 284.8,741.241 283.3,737.841 C282,734.841 281.3,731.741 281.3,728.341 L281.3,727.641 C281.4,722.941 282.7,718.141 285.2,713.341 C288.1,707.741 292.6,702.241 298.7,696.941 C300.2,695.641 301.6,694.341 302.9,693.041 C303.7,697.341 304.4,702.041 305.3,706.941 C301.4,708.241 296.7,711.241 293.6,716.941 C291.2,721.441 290.5,725.341 290.5,728.541 C290.5,730.041 290.7,731.441 290.9,732.541 C291.8,737.041 294.4,740.741 297.9,742.841 C298.7,743.341 302,745.041 304,745.041 C304.3,745.041 304.6,745.041 304.8,744.941 C305.1,744.841 305.4,744.641 305.5,744.341 C305.6,744.141 305.6,743.941 305.6,743.741 C305.6,742.941 304.8,742.341 303.5,741.541 C302.9,741.141 302.2,740.741 301.5,740.241 C298.9,738.241 297.4,735.141 297.4,731.741 C297.4,730.741 297.6,729.841 297.8,728.841 C298.3,726.841 300,724.041 301.5,722.641 C303.2,721.141 305.2,719.941 307.6,719.341 C309.6,730.541 311.7,741.641 313.3,750.041 C313.4,750.741 313.6,751.441 313.7,752.141 C311.7,752.541 309.7,752.741 307.8,752.741 C305.4,752.741 303.1,752.441 300.8,751.841 M326.5,741.641 C325.3,744.841 322.8,748.841 317.7,750.941 C317.6,750.541 317.6,750.041 317.5,749.641 C316,740.841 314.1,729.941 312.1,718.641 L313.1,718.641 C322.8,718.641 326.7,725.841 327.6,730.441 C327.8,731.341 327.9,732.541 327.9,733.841 C327.9,736.141 327.5,738.941 326.5,741.641"/>
<path class="Clef" d="M335,1338.18 C333.8,1332.78 331.1,1328.88 330.3,1327.88 C327.1,1323.58 323.1,1320.78 318.4,1319.38 C316.1,1318.68 314,1318.48 312,1318.48 C311.3,1318.48 310.6,1318.48 309.9,1318.58 C308.9,1312.58 307.8,1306.68 306.9,1301.28 C312.5,1295.08 316.2,1289.18 318.6,1284.78 C322.2,1278.08 323.6,1273.38 323.7,1273.18 C324.9,1270.18 325.6,1266.38 325.6,1261.88 C325.6,1259.18 325.3,1256.28 324.9,1253.28 C323.8,1246.18 321.6,1239.48 319.1,1235.78 C317.8,1233.88 316.6,1232.78 315.4,1232.78 C314.2,1232.78 311.7,1233.98 308.8,1236.78 C306.5,1238.98 303.2,1242.88 300.6,1248.88 C298.3,1254.28 297.6,1261.18 297.6,1267.08 C297.6,1268.88 297.7,1270.58 297.8,1272.18 C298,1275.78 298.7,1281.58 299.3,1285.18 C299.3,1285.28 299.6,1286.78 300,1289.38 L299.3,1290.08 C298.3,1291.08 297.1,1292.18 295.7,1293.58 C294.8,1294.48 293.9,1295.28 292.9,1296.28 C284.4,1304.48 271.6,1316.88 271.6,1335.98 C271.6,1340.68 272.5,1345.08 274.3,1349.08 C275.9,1352.68 278.2,1355.98 281.1,1358.88 C288.6,1366.28 298.8,1369.48 305.9,1369.48 L306.5,1369.48 C309.4,1369.38 312.1,1369.08 314.5,1368.68 C316.3,1378.28 317.5,1385.38 317.5,1390.68 C317.5,1397.18 315.9,1401.08 312,1403.88 C309.6,1405.58 306.7,1406.68 303.6,1406.78 L302.8,1406.78 C301.3,1406.78 298.8,1406.38 297.3,1405.98 C297.3,1405.98 297,1405.88 297,1405.68 C297,1405.48 297.4,1405.48 297.4,1405.48 C299.3,1405.08 302.9,1403.78 305.3,1400.48 C306.4,1398.98 307.1,1396.68 307.1,1394.18 C307.1,1392.58 306.8,1390.88 306.1,1389.38 C305,1386.98 302.4,1383.98 296.8,1383.58 L295.7,1383.58 C293.6,1383.58 291.8,1384.08 290.1,1385.08 C288.3,1386.18 286.7,1387.88 285.7,1389.88 C284.6,1391.88 284.1,1394.08 284.1,1396.28 C284.1,1399.18 285,1401.88 286.8,1404.08 C289.8,1407.68 294.5,1409.98 299.9,1410.58 C300.6,1410.68 301.7,1410.78 302.4,1410.78 C306.8,1410.78 311.2,1409.58 314.8,1407.38 C318.5,1404.78 320.6,1400.78 321.3,1395.18 C321.5,1393.88 321.5,1392.48 321.5,1390.98 C321.5,1387.08 321,1382.38 320,1376.58 C319.6,1374.48 319.2,1371.48 318.5,1367.68 C324.3,1365.78 328.4,1362.08 332.2,1356.28 C334.5,1352.28 335.6,1348.18 335.6,1343.88 C335.6,1341.98 335.4,1340.08 335,1338.18 M304.8,1260.28 C306.6,1254.58 309.3,1251.18 311.3,1249.48 C313.1,1247.98 314.7,1247.28 315.6,1247.28 C315.7,1247.28 315.9,1247.38 316,1247.38 C316.3,1247.48 316.7,1247.98 317.1,1248.68 C318,1250.48 318.9,1253.78 318.9,1257.48 C318.9,1259.38 318.7,1261.38 318.1,1263.18 C315.9,1269.98 311.3,1277.28 304.3,1284.98 C304.1,1283.88 303.9,1282.88 303.8,1281.88 C303.3,1278.68 303,1275.48 303,1272.58 C303,1268.08 303.6,1263.98 304.8,1260.28 M300.8,1364.38 C296.2,1363.18 291.7,1360.68 287.9,1357.18 C286.6,1355.98 284.8,1353.78 283.3,1350.38 C282,1347.38 281.3,1344.28 281.3,1340.88 L281.3,1340.18 C281.4,1335.48 282.7,1330.68 285.2,1325.88 C288.1,1320.28 292.6,1314.78 298.7,1309.48 C300.2,1308.18 301.6,1306.88 302.9,1305.58 C303.7,1309.88 304.4,1314.58 305.3,1319.48 C301.4,1320.78 296.7,1323.78 293.6,1329.48 C291.2,1333.98 290.5,1337.88 290.5,1341.08 C290.5,1342.58 290.7,1343.98 290.9,1345.08 C291.8,1349.58 294.4,1353.28 297.9,1355.38 C298.7,1355.88 302,1357.58 304,1357.58 C304.3,1357.58 304.6,1357.58 304.8,1357.48 C305.1,1357.38 305.4,1357.18 305.5,1356.88 C305.6,1356.68 305.6,1356.48 305.6,1356.28 C305.6,1355.48 304.8,1354.88 303.5,1354.08 C302.9,1353.68 302.2,1353.28 301.5,1352.78 C298.9,1350.78 297.4,1347.68 297.4,1344.28 C297.4,1343.28 297.6,1342.38 297.8,1341.38 C298.3,1339.38 300,1336.58 301.5,1335.18 C303.2,1333.68 305.2,1332.48 307.6,1331.88 C309.6,1343.08 311.7,1354.18 313.3,1362.58 C313.4,1363.28 313.6,1363.98 313.7,1364.68 C311.7,1365.08 309.7,1365.28 307.8,1365.28 C305.4,1365.28 303.1,1364.98 300.8,1364.38 M326.5,1354.18 C325.3,1357.38 322.8,1361.38 317.7,1363.48 C317.6,1363.08 317.6,1362.58 317.5,1362.18 C316,1353.38 314.1,1342.48 312.1,1331.18 L313.1,1331.18 C322.8,1331.18 326.7,1338.38 327.6,1342.98 C327.8,1343.88 327.9,1345.08 327.9,1346.38 C327.9,1348.68 327.5,1351.48 326.5,1354.18"/>
<path class="TimeSig" d="M365.2,957.453 L382,957.453 L382,964.753 L373.9,964.753 C373.1,964.753 372.5,965.353 372.5,966.153 L372.5,968.053 C372.5,968.853 373.1,969.353 373.9,969.353 L403.6,969.353 C404.4,969.353 405,968.853 405,968.053 L405,966.153 C405,965.353 404.4,964.753 403.6,964.753 L394.8,964.753 L394.8,957.453 L403.6,957.453 C404.4,957.453 405,956.853 405,956.053 L405,954.253 C405,953.453 404.4,952.853 403.6,952.853 L394.8,952.853 L394.8,937.153 C394.8,936.653 394.4,936.153 394,935.953 L392.9,935.353 C392.7,935.253 392.4,935.253 392.2,935.253 C391.9,935.253 391.5,935.353 391.3,935.553 L382.4,943.753 C382.2,943.953 382,944.453 382,944.753 L382,952.853 L370.7,952.853 C370.7,952.853 381.6,941.053 393.2,925.553 C394,924.453 393.6,923.453 393.4,923.253 L391.3,921.053 C391.1,920.853 390.6,920.653 390.3,920.653 L375.7,920.653 C375,920.653 374.5,921.253 374.4,921.853 C374.4,921.853 373.9,929.053 371.3,937.053 C368.7,945.053 365.9,949.853 363.3,953.453 C363.3,953.453 362.8,954.453 363.1,955.153 C363.4,955.853 364.1,956.953 364.1,956.953 C364.1,956.953 364.4,957.453 365.2,957.453"/>
<path class="TimeSig" d="M365.2,1006.06 L382,1006.06 L382,1013.36 L373.9,1013.36 C373.1,1013.36 372.5,1013.96 372.5,1014.76 L372.5,1016.66 C372.5,1017.46 373.1,1017.96 373.9,1017.96 L403.6,1017.96 C404.4,1017.96 405,1017.46 405,1016.66 L405,1014.76 C405,1013.96 404.4,1013.36 403.6,1013.36 L394.8,1013.36 L394.8,1006.06 L403.6,1006.06 C404.4,1006.06 405,1005.46 405,1004.66 L405,1002.86 C405,1002.06 404.4,1001.46 403.6,1001.46 L394.8,1001.46 L394.8,985.758 C394.8,985.258 394.4,984.758 394,984.558 L392.9,983.958 C392.7,983.858 392.4,983.858 392.2,983.858 C391.9,983.858 391.5,983.958 391.3,984.158 L382.4,992.358 C382.2,992.558 382,993.058 382,993.358 L382,1001.46 L370.7,1001.46 C370.7,1001.46 381.6,989.658 393.2,974.158 C394,973.058 393.6,972.058 393.4,971.858 L391.3,969.658 C391.1,969.458 390.6,969.258 390.3,969.258 L375.7,969.258 C375,969.258 374.5,969.858 374.4,970.458 C374.4,970.458 373.9,977.658 371.3,985.658 C368.7,993.658 365.9,998.458 363.3,1002.06 C363.3,1002.06 362.8,1003.06 363.1,1003.76 C363.4,1004.46 364.1,1005.56 364.1,1005.56 C364.1,1005.56 364.4,1006.06 365.2,1006.06"/>
<path class="TimeSig" d="M365.2,694.937 L382,694.937 L382,702.237 L373.9,702.237 C373.1,702.237 372.5,702.837 372.5,703.637 L372.5,705.537 C372.5,706.337 373.1,706.837 373.9,706.837 L403.6,706.837 C404.4,706.837 405,706.337 405,705.537 L405,703.637 C405,702.837 404.4,702.237 403.6,702.237 L394.8,702.237 L394.8,694.937 L403.6,694.937 C404.4,694.937 405,694.337 405,693.537 L405,691.737 C405,690.937 404.4,690.337 403.6,690.337 L394.8,690.337 L394.8,674.637 C394.8,674.137 394.4,673.637 394,673.437 L392.9,672.837 C392.7,672.737 392.4,672.737 392.2,672.737 C391.9,672.737 391.5,672.837 391.3,673.037 L382.4,681.237 C382.2,681.437 382,681.937 382,682.237 L382,690.337 L370.7,690.337 C370.7,690.337 381.6,678.537 393.2,663.037 C394,661.937 393.6,660.937 393.4,660.737 L391.3,658.537 C391.1,658.337 390.6,658.137 390.3,658.137 L375.7,658.137 C375,658.137 374.5,658.737 374.4,659.337 C374.4,659.337 373.9,666.537 371.3,674.537 C368.7,682.537 365.9,687.337 363.3,690.937 C363.3,690.937 362.8,691.937 363.1,692.637 C363.4,693.337 364.1,694.437 364.1,694.437 C364.1,694.437 364.4,694.937 365.2,694.937"/>
<path class="TimeSig" d="M365.2,743.541 L382,743.541 L382,750.841 L373.9,750.841 C373.1,750.841 372.5,751.441 372.5,752.241 L372.5,754.141 C372.5,754.941 373.1,755.441 373.9,755.441 L403.6,755.441 C404.4,755.441 405,754.941 405,754.141 L405,752.241 C405,751.441 404.4,750.841 403.6,750.841 L394.8,750.841 L394.8,743.541 L403.6,743.541 C404.4,743.541 405,742.941 405,742.141 L405,740.341 C405,739.541 404.4,738.941 403.6,738.941 L394.8,738.941 L394.8,723.241 C394.8,722.741 394.4,722.241 394,722.041 L392.9,721.441 C392.7,721.341 392.4,721.341 392.2,721.341 C391.9,721.341 391.5,721.441 391.3,721.641 L382.4,729.841 C382.2,730.041 382,730.541 382,730.841 L382,738.941 L370.7,738.941 C370.7,738.941 381.6,727.141 393.2,711.641 C394,710.541 393.6,709.541 393.4,709.341 L391.3,707.141 C391.1,706.941 390.6,706.741 390.3,706.741 L375.7,706.741 C375,706.741 374.5,707.341 374.4,707.941 C374.4,707.941 373.9,715.141 371.3,723.141 C368.7,731.141 365.9,735.941 363.3,739.541 C363.3,739.541 362.8,740.541 363.1,741.241 C363.4,741.941 364.1,743.041 364.1,743.041 C364.1,743.041 364.4,743.541 365.2,743.541"/>
<path class="NoteDot" d="M2481.84,1544.09 C2481.84,1546.69 2483.95,1548.79 2486.54,1548.79 C2489.14,1548.79 2491.24,1546.69 2491.24,1544.09 C2491.24,1541.5 2489.14,1539.39 2486.54,1539.39 C2483.95,1539.39 2481.84,1541.5 2481.84,1544.09"/>
<path class="NoteDot" d="M2481.84,1356.58 C2481.84,1359.18 2483.95,1361.28 2486.54,1361.28 C2489.14,1361.28 2491.24,1359.18 2491.24,1356.58 C2491.24,1353.98 2489.14,1351.88 2486.54,1351.88 C2483.95,1351.88 2481.84,1353.98 2481.84,1356.58"/>
<path class="Page" d="M222.584,4034.39 C221.054,4036.23 216.914,4037.63 212.774,4037.72 L212.774,4039.65 L216.734,4039.65 C219.344,4039.7 219.614,4039.97 219.524,4042.49 L219.524,4060.53 C219.524,4062.83 219.524,4062.92 219.254,4063.32 C218.894,4063.77 218.039,4063.95 215.519,4063.95 L212.594,4063.95 L212.594,4066.07 L230.414,4066.07 L230.414,4063.95 L227.939,4063.95 C225.419,4063.95 224.564,4063.77 224.204,4063.32 C223.889,4062.92 223.889,4062.87 223.889,4060.53 L223.889,4041.95 C223.889,4039.43 223.979,4037.31 224.204,4034.39 L222.584,4034.39 M240.489,4039.47 C242.919,4040.06 244.134,4040.24 245.934,4040.24 C249.759,4040.24 252.549,4038.93 254.034,4036.41 C254.529,4035.6 254.709,4035.15 254.709,4034.79 C254.709,4034.52 254.619,4034.39 254.349,4034.39 C254.214,4034.39 254.034,4034.43 253.764,4034.57 C251.559,4035.51 250.389,4035.74 247.779,4035.74 C244.899,4035.74 243.099,4035.47 238.509,4034.39 C238.329,4038.17 237.924,4042.98 237.294,4048.56 C236.349,4049.55 236.034,4050.14 236.034,4050.86 C236.034,4051.8 236.619,4052.39 237.474,4052.39 C238.644,4052.39 239.319,4051.44 239.499,4049.64 C241.074,4048.52 242.559,4048.02 244.359,4048.02 C248.409,4048.02 250.794,4051.08 250.794,4056.26 C250.794,4059.27 250.029,4061.84 248.679,4063.23 C247.779,4064.18 245.934,4064.81 244.089,4064.81 C241.389,4064.81 238.599,4063.41 238.599,4062.02 C238.599,4061.7 238.869,4061.34 239.409,4061.03 C240.804,4060.17 241.209,4059.59 241.209,4058.37 C241.209,4056.8 239.994,4055.58 238.374,4055.58 C236.574,4055.58 235.134,4057.25 235.134,4059.36 C235.134,4061.61 236.439,4063.86 238.464,4065.26 C239.994,4066.25 241.794,4066.74 244.179,4066.74 C251.244,4066.74 255.699,4062.6 255.699,4055.99 C255.699,4049.87 251.649,4045.77 245.529,4045.77 C243.594,4045.77 242.199,4046.09 239.724,4047.12 L240.489,4039.47 "/>
<path class="Bracket" transform="matrix(3.62523,0,0,3.62523,214.469,1019.06)" d="M0.92002,-50 C2.69004,-51.88 6.2,-55.8 6.2,-63 C6.2,-72.1 2.25996,-81.32 2.25996,-86.97 C2.25996,-93.06 5.84004,-98.84 5.95,-99 C6.05996,-99.16 6.05,-99.39 5.94004,-99.46 C5.82998,-99.53 5.62002,-99.47 5.49004,-99.32 C5.35996,-99.17 0,-93.75 0,-85.6 C0,-76.75 3.5,-70.58 3.5,-59.07 C3.5,-56.89 2.55996,-53.36 0.1,-50.33 C-0.0799805,-50.17 -0.1,-49.89 0.0599609,-49.7 L0.0700195,-49.69 L0.1,-49.66 C2.55996,-46.63 3.5,-43.1 3.5,-40.92 C3.5,-29.4 0,-23.24 0,-14.39 C0,-6.25 5.35996,-0.8 5.49004,-0.659961 C5.62002,-0.52002 5.8,-0.42998 5.94004,-0.52002 C6.07998,-0.609961 6.07998,-0.77998 5.95,-0.97998 C5.82002,-1.17998 2.25996,-6.92002 2.25996,-13.01 C2.25996,-18.66 6.2,-27.9 6.2,-37 C6.2,-44.3 2.69004,-48.12 0.92002,-50"/>
<path class="Bracket" transform="matrix(3.62523,0,0,3.62523,214.469,1631.6)" d="M0.92002,-50 C2.69004,-51.88 6.2,-55.8 6.2,-63 C6.2,-72.1 2.25996,-81.32 2.25996,-86.97 C2.25996,-93.06 5.84004,-98.84 5.95,-99 C6.05996,-99.16 6.05,-99.39 5.94004,-99.46 C5.82998,-99.53 5.62002,-99.47 5.49004,-99.32 C5.35996,-99.17 0,-93.75 0,-85.6 C0,-76.75 3.5,-70.58 3.5,-59.07 C3.5,-56.89 2.55996,-53.36 0.1,-50.33 C-0.0799805,-50.17 -0.1,-49.89 0.0599609,-49.7 L0.0700195,-49.69 L0.1,-49.66 C2.55996,-46.63 3.5,-43.1 3.5,-40.92 C3.5,-29.4 0,-23.24 0,-14.39 C0,-6.25 5.35996,-0.8 5.49004,-0.659961 C5.62002,-0.52002 5.8,-0.42998 5.94004,-0.52002 C6.07998,-0.609961 6.07998,-0.77998 5.95,-0.97998 C5.82002,-1.17998 2.25996,-6.92002 2.25996,-13.01 C2.25996,-18.66 6.2,-27.9 6.2,-37 C6.2,-44.3 2.69004,-48.12 0.92002,-50"/>
</svg>
