<?xml version="1.0" encoding="UTF-8" standalone="no"?>
<svg width="2977.23px" height="4208.47px" viewBox="0 0 2977.23 4208.47"
 xmlns="http://www.w3.org/2000/svg" xmlns:xlink="http://www.w3.org/1999/xlink" version="1.2" baseProfile="tiny">
<title>exercises_scores (26)</title>
<desc>Generated by MuseScore 3.6.0</desc>
<polyline class="StaffLines" fill="none" stroke="#000000" stroke-width="2.75" stroke-linejoin="bevel" points="247.099,645.317 2764.63,645.317"/>
<polyline class="StaffLines" fill="none" stroke="#000000" stroke-width="2.75" stroke-linejoin="bevel" points="247.099,670.319 2764.63,670.319"/>
<polyline class="StaffLines" fill="none" stroke="#000000" stroke-width="2.75" stroke-linejoin="bevel" points="247.099,695.32 2764.63,695.32"/>
<polyline class="StaffLines" fill="none" stroke="#000000" stroke-width="2.75" stroke-linejoin="bevel" points="247.099,720.322 2764.63,720.322"/>
<polyline class="StaffLines" fill="none" stroke="#000000" stroke-width="2.75" stroke-linejoin="bevel" points="247.099,745.324 2764.63,745.324"/>
<polyline class="StaffLines" fill="none" stroke="#000000" stroke-width="2.75" stroke-linejoin="bevel" points="247.099,907.834 2764.63,907.834"/>
<polyline class="StaffLines" fill="none" stroke="#000000" stroke-width="2.75" stroke-linejoin="bevel" points="247.099,932.835 2764.63,932.835"/>
<polyline class="StaffLines" fill="none" stroke="#000000" stroke-width="2.75" stroke-linejoin="bevel" points="247.099,957.837 2764.63,957.837"/>
<polyline class="StaffLines" fill="none" stroke="#000000" stroke-width="2.75" stroke-linejoin="bevel" points="247.099,982.839 2764.63,982.839"/>
<polyline class="StaffLines" fill="none" stroke="#000000" stroke-width="2.75" stroke-linejoin="bevel" points="247.099,1007.84 2764.63,1007.84"/>
<path class="Text" d="M248.251,213.077 L245.971,213.077 L243.571,216.617 C239.191,213.437 236.971,212.597 232.831,212.597 C227.131,212.597 222.271,214.997 218.251,219.797 C214.411,224.357 212.611,229.397 212.611,235.577 C212.611,248.537 221.071,257.717 232.891,257.717 C242.491,257.717 248.611,252.077 249.991,241.997 L247.171,241.517 C245.551,250.457 240.991,254.897 233.611,254.897 C224.731,254.897 220.531,248.777 220.531,235.817 C220.531,228.977 221.431,224.477 223.471,220.877 C225.331,217.517 228.991,215.417 232.891,215.417 C237.091,215.417 240.811,217.637 243.091,221.477 C244.231,223.457 245.071,225.677 246.511,230.417 L249.151,230.417 L248.251,213.077 M281.955,228.857 L271.275,229.517 L271.275,232.097 L273.735,232.097 C276.015,232.157 276.315,232.517 276.315,235.097 L276.315,249.437 L276.315,251.777 L276.315,252.257 C276.255,253.157 276.195,253.517 275.955,253.817 C275.535,254.357 274.395,254.597 271.815,254.657 L271.575,254.657 L271.575,256.817 L286.695,256.817 L286.695,254.657 L286.455,254.657 C282.495,254.537 281.955,254.237 281.955,252.017 L281.955,249.437 L281.955,240.917 C281.955,235.577 284.895,231.617 288.795,231.617 C292.215,231.617 293.955,234.077 293.955,238.937 L293.955,249.437 L293.955,252.317 C293.895,253.097 293.835,253.517 293.535,253.817 C293.175,254.357 291.975,254.597 289.395,254.657 L289.155,254.657 L289.155,256.817 L304.335,256.817 L304.335,254.657 L304.095,254.657 C300.135,254.537 299.595,254.237 299.595,252.077 L299.595,249.437 L299.595,241.457 C299.595,235.457 302.295,231.617 306.495,231.617 C309.915,231.617 311.595,234.197 311.595,239.597 L311.595,249.437 L311.595,252.257 C311.535,253.097 311.475,253.517 311.175,253.817 C310.815,254.357 309.615,254.597 307.035,254.657 L306.795,254.657 L306.795,256.817 L321.975,256.817 L321.975,254.657 L321.735,254.657 C317.775,254.537 317.235,254.237 317.235,252.017 L317.235,249.437 L317.235,238.397 C317.235,234.677 316.875,233.417 315.315,231.377 C313.575,229.157 311.115,227.957 308.235,227.957 C304.335,227.957 301.455,229.817 298.875,233.957 C297.855,230.357 294.615,227.957 290.595,227.957 C286.935,227.957 284.295,229.697 281.955,233.477 L281.955,228.857 M335.583,228.857 L324.303,229.517 L324.303,232.097 L327.363,232.097 C329.643,232.157 329.943,232.517 329.943,235.097 L329.943,249.437 L329.943,252.257 C329.883,253.157 329.823,253.517 329.583,253.817 C329.163,254.357 328.023,254.597 325.443,254.657 L325.023,254.657 L325.023,256.817 L340.563,256.817 L340.563,254.657 L340.143,254.657 C336.123,254.537 335.583,254.237 335.583,252.077 L335.583,249.437 L335.583,228.857 M332.763,213.917 C330.843,213.917 329.283,215.477 329.283,217.397 C329.283,219.317 330.843,220.877 332.703,220.877 C334.683,220.877 336.243,219.317 336.243,217.397 C336.243,215.477 334.683,213.917 332.763,213.917 M354.114,228.857 L343.734,229.517 L343.734,232.097 L345.894,232.097 C348.174,232.157 348.474,232.517 348.474,235.097 L348.474,249.437 L348.474,250.877 L348.474,252.257 C348.414,253.157 348.354,253.517 348.114,253.817 C347.694,254.357 346.554,254.597 343.974,254.657 L343.734,254.657 L343.734,256.817 L358.914,256.817 L358.914,254.657 L358.674,254.657 C354.654,254.537 354.114,254.237 354.114,252.077 L354.114,249.437 L354.114,243.197 C354.114,240.257 354.534,237.557 355.194,236.177 C356.454,233.477 359.154,231.617 361.734,231.617 C363.294,231.617 365.094,232.457 365.994,233.717 C366.894,235.037 367.314,236.837 367.314,239.717 L367.314,249.437 L367.314,252.257 C367.254,253.157 367.194,253.517 366.954,253.817 C366.534,254.357 365.334,254.597 362.754,254.657 L362.514,254.657 L362.514,256.817 L377.694,256.817 L377.694,254.657 L377.454,254.657 C373.494,254.537 372.954,254.237 372.954,252.077 L372.954,249.437 L372.954,240.017 C372.954,235.697 372.774,234.617 371.694,232.577 C370.194,229.697 367.194,227.957 363.594,227.957 C359.694,227.957 356.754,229.757 354.114,233.717 L354.114,228.857 M393.89,227.957 C386.51,227.957 380.81,234.497 380.81,242.897 C380.81,251.117 386.57,257.717 393.77,257.717 C400.97,257.717 406.73,251.117 406.73,242.837 C406.73,234.617 400.97,227.957 393.89,227.957 M393.89,230.537 C398.09,230.537 400.43,234.917 400.43,242.837 C400.43,250.817 398.09,255.137 393.77,255.137 C389.45,255.137 387.11,250.817 387.11,242.897 C387.11,234.737 389.39,230.537 393.89,230.537 M420.65,228.857 L410.03,229.517 L410.03,232.097 L412.49,232.097 C414.77,232.157 415.07,232.517 415.07,235.097 L415.07,249.437 L415.07,252.257 C415.01,253.157 414.95,253.517 414.71,253.817 C414.29,254.357 413.09,254.597 410.51,254.657 L410.27,254.657 L410.27,256.817 L426.29,256.817 L426.29,254.657 L425.21,254.657 C421.19,254.537 420.65,254.237 420.65,252.077 L420.65,249.437 L420.65,248.837 C420.71,238.757 424.31,231.077 428.99,230.837 C428.15,231.797 427.91,232.397 427.91,233.537 C427.91,235.457 429.29,236.837 431.21,236.837 C433.43,236.837 434.87,235.217 434.87,232.817 C434.87,229.877 432.83,227.957 429.65,227.957 C425.87,227.957 422.63,230.957 420.65,236.297 L420.65,228.857 "/>
<polyline class="BarLine" fill="none" stroke="#000000" stroke-width="4.50" stroke-linejoin="bevel" points="249.349,906.459 249.349,1009.22"/>
<polyline class="BarLine" fill="none" stroke="#000000" stroke-width="4.50" stroke-linejoin="bevel" points="1011.07,906.459 1011.07,1009.22"/>
<polyline class="BarLine" fill="none" stroke="#000000" stroke-width="4.50" stroke-linejoin="bevel" points="1631.6,906.459 1631.6,1009.22"/>
<polyline class="BarLine" fill="none" stroke="#000000" stroke-width="4.50" stroke-linejoin="bevel" points="2218.96,906.459 2218.96,1009.22"/>
<polyline class="BarLine" fill="none" stroke="#000000" stroke-width="4.50" stroke-linejoin="bevel" points="2734.88,906.459 2734.88,1009.22"/>
<polyline class="BarLine" fill="none" stroke="#000000" stroke-width="13.75" stroke-linejoin="bevel" points="2757.76,906.459 2757.76,1009.22"/>
<polyline class="BarLine" fill="none" stroke="#000000" stroke-width="4.50" stroke-linejoin="bevel" points="249.349,643.942 249.349,907.834"/>
<polyline class="BarLine" fill="none" stroke="#000000" stroke-width="4.50" stroke-linejoin="bevel" points="1011.07,643.942 1011.07,907.834"/>
<polyline class="BarLine" fill="none" stroke="#000000" stroke-width="4.50" stroke-linejoin="bevel" points="1631.6,643.942 1631.6,907.834"/>
<polyline class="BarLine" fill="none" stroke="#000000" stroke-width="4.50" stroke-linejoin="bevel" points="2218.96,643.942 2218.96,907.834"/>
<polyline class="BarLine" fill="none" stroke="#000000" stroke-width="4.50" stroke-linejoin="bevel" points="2734.88,643.942 2734.88,907.834"/>
<polyline class="BarLine" fill="none" stroke="#000000" stroke-width="13.75" stroke-linejoin="bevel" points="2757.76,643.942 2757.76,907.834"/>
<path class="Accidental" d="M729.838,937.436 C729.238,933.536 726.838,929.836 721.738,929.836 C716.738,929.836 713.838,932.936 713.338,933.536 L713.738,901.436 C713.738,900.636 713.138,900.036 712.338,900.036 L711.138,900.036 C710.338,900.036 709.738,900.636 709.738,901.436 L710.238,961.536 C710.238,962.336 710.838,962.936 711.638,962.936 C711.838,962.936 712.238,962.836 712.438,962.736 C712.838,962.536 719.338,959.336 724.738,953.236 C728.538,948.936 730.038,944.036 730.038,939.936 C730.038,939.036 729.938,938.236 729.838,937.436 M722.938,941.336 C722.938,942.836 722.538,947.436 720.038,951.236 C718.338,953.836 714.938,956.536 713.038,958.036 L713.338,938.536 C713.538,937.636 715.038,934.736 719.038,934.736 C722.638,934.736 722.938,938.136 722.938,940.236 L722.938,941.336 "/>
<path class="Accidental" d="M1185.25,899.934 C1184.65,896.034 1182.25,892.334 1177.15,892.334 C1172.15,892.334 1169.25,895.434 1168.75,896.034 L1169.15,863.934 C1169.15,863.134 1168.55,862.534 1167.75,862.534 L1166.55,862.534 C1165.75,862.534 1165.15,863.134 1165.15,863.934 L1165.65,924.034 C1165.65,924.834 1166.25,925.434 1167.05,925.434 C1167.25,925.434 1167.65,925.334 1167.85,925.234 C1168.25,925.034 1174.75,921.834 1180.15,915.734 C1183.95,911.434 1185.45,906.534 1185.45,902.434 C1185.45,901.534 1185.35,900.734 1185.25,899.934 M1178.35,903.834 C1178.35,905.334 1177.95,909.934 1175.45,913.734 C1173.75,916.334 1170.35,919.034 1168.45,920.534 L1168.75,901.034 C1168.95,900.134 1170.45,897.234 1174.45,897.234 C1178.05,897.234 1178.35,900.634 1178.35,902.734 L1178.35,903.834 "/>
<path class="Accidental" d="M1331.14,887.433 C1330.54,883.533 1328.14,879.833 1323.04,879.833 C1318.04,879.833 1315.14,882.933 1314.64,883.533 L1315.04,851.433 C1315.04,850.633 1314.44,850.033 1313.64,850.033 L1312.44,850.033 C1311.64,850.033 1311.04,850.633 1311.04,851.433 L1311.54,911.533 C1311.54,912.333 1312.14,912.933 1312.94,912.933 C1313.14,912.933 1313.54,912.833 1313.74,912.733 C1314.14,912.533 1320.64,909.333 1326.04,903.233 C1329.84,898.933 1331.34,894.033 1331.34,889.933 C1331.34,889.033 1331.24,888.233 1331.14,887.433 M1324.24,891.333 C1324.24,892.833 1323.84,897.433 1321.34,901.233 C1319.64,903.833 1316.24,906.533 1314.34,908.033 L1314.64,888.533 C1314.84,887.633 1316.34,884.733 1320.34,884.733 C1323.94,884.733 1324.24,888.133 1324.24,890.233 L1324.24,891.333 "/>
<path class="Accidental" d="M1675.7,887.433 C1675.1,883.533 1672.7,879.833 1667.6,879.833 C1662.6,879.833 1659.7,882.933 1659.2,883.533 L1659.6,851.433 C1659.6,850.633 1659,850.033 1658.2,850.033 L1657,850.033 C1656.2,850.033 1655.6,850.633 1655.6,851.433 L1656.1,911.533 C1656.1,912.333 1656.7,912.933 1657.5,912.933 C1657.7,912.933 1658.1,912.833 1658.3,912.733 C1658.7,912.533 1665.2,909.333 1670.6,903.233 C1674.4,898.933 1675.9,894.033 1675.9,889.933 C1675.9,889.033 1675.8,888.233 1675.7,887.433 M1668.8,891.333 C1668.8,892.833 1668.4,897.433 1665.9,901.233 C1664.2,903.833 1660.8,906.533 1658.9,908.033 L1659.2,888.533 C1659.4,887.633 1660.9,884.733 1664.9,884.733 C1668.5,884.733 1668.8,888.133 1668.8,890.233 L1668.8,891.333 "/>
<path class="Accidental" d="M1809.34,899.934 C1808.74,896.034 1806.34,892.334 1801.24,892.334 C1796.24,892.334 1793.34,895.434 1792.84,896.034 L1793.24,863.934 C1793.24,863.134 1792.64,862.534 1791.84,862.534 L1790.64,862.534 C1789.84,862.534 1789.24,863.134 1789.24,863.934 L1789.74,924.034 C1789.74,924.834 1790.34,925.434 1791.14,925.434 C1791.34,925.434 1791.74,925.334 1791.94,925.234 C1792.34,925.034 1798.84,921.834 1804.24,915.734 C1808.04,911.434 1809.54,906.534 1809.54,902.434 C1809.54,901.534 1809.44,900.734 1809.34,899.934 M1802.44,903.834 C1802.44,905.334 1802.04,909.934 1799.54,913.734 C1797.84,916.334 1794.44,919.034 1792.54,920.534 L1792.84,901.034 C1793.04,900.134 1794.54,897.234 1798.54,897.234 C1802.14,897.234 1802.44,900.634 1802.44,902.734 L1802.44,903.834 "/>
<path class="Accidental" d="M2263.07,937.436 C2262.47,933.536 2260.07,929.836 2254.97,929.836 C2249.97,929.836 2247.07,932.936 2246.57,933.536 L2246.97,901.436 C2246.97,900.636 2246.37,900.036 2245.57,900.036 L2244.37,900.036 C2243.57,900.036 2242.97,900.636 2242.97,901.436 L2243.47,961.536 C2243.47,962.336 2244.07,962.936 2244.87,962.936 C2245.07,962.936 2245.47,962.836 2245.67,962.736 C2246.07,962.536 2252.57,959.336 2257.97,953.236 C2261.77,948.936 2263.27,944.036 2263.27,939.936 C2263.27,939.036 2263.17,938.236 2263.07,937.436 M2256.17,941.336 C2256.17,942.836 2255.77,947.436 2253.27,951.236 C2251.57,953.836 2248.17,956.536 2246.27,958.036 L2246.57,938.536 C2246.77,937.636 2248.27,934.736 2252.27,934.736 C2255.87,934.736 2256.17,938.136 2256.17,940.236 L2256.17,941.336 "/>
<path class="Accidental" d="M729.838,737.424 C729.238,733.524 726.838,729.824 721.738,729.824 C716.738,729.824 713.838,732.924 713.338,733.524 L713.738,701.424 C713.738,700.624 713.138,700.024 712.338,700.024 L711.138,700.024 C710.338,700.024 709.738,700.624 709.738,701.424 L710.238,761.524 C710.238,762.324 710.838,762.924 711.638,762.924 C711.838,762.924 712.238,762.824 712.438,762.724 C712.838,762.524 719.338,759.324 724.738,753.224 C728.538,748.924 730.038,744.024 730.038,739.924 C730.038,739.024 729.938,738.224 729.838,737.424 M722.938,741.324 C722.938,742.824 722.538,747.424 720.038,751.224 C718.338,753.824 714.938,756.524 713.038,758.024 L713.338,738.524 C713.538,737.624 715.038,734.724 719.038,734.724 C722.638,734.724 722.938,738.124 722.938,740.224 L722.938,741.324 "/>
<path class="Accidental" d="M1185.25,699.921 C1184.65,696.021 1182.25,692.321 1177.15,692.321 C1172.15,692.321 1169.25,695.421 1168.75,696.021 L1169.15,663.921 C1169.15,663.121 1168.55,662.521 1167.75,662.521 L1166.55,662.521 C1165.75,662.521 1165.15,663.121 1165.15,663.921 L1165.65,724.021 C1165.65,724.821 1166.25,725.421 1167.05,725.421 C1167.25,725.421 1167.65,725.321 1167.85,725.221 C1168.25,725.021 1174.75,721.821 1180.15,715.721 C1183.95,711.421 1185.45,706.521 1185.45,702.421 C1185.45,701.521 1185.35,700.721 1185.25,699.921 M1178.35,703.821 C1178.35,705.321 1177.95,709.921 1175.45,713.721 C1173.75,716.321 1170.35,719.021 1168.45,720.521 L1168.75,701.021 C1168.95,700.121 1170.45,697.221 1174.45,697.221 C1178.05,697.221 1178.35,700.621 1178.35,702.721 L1178.35,703.821 "/>
<path class="Accidental" d="M1331.14,687.42 C1330.54,683.52 1328.14,679.82 1323.04,679.82 C1318.04,679.82 1315.14,682.92 1314.64,683.52 L1315.04,651.42 C1315.04,650.62 1314.44,650.02 1313.64,650.02 L1312.44,650.02 C1311.64,650.02 1311.04,650.62 1311.04,651.42 L1311.54,711.52 C1311.54,712.32 1312.14,712.92 1312.94,712.92 C1313.14,712.92 1313.54,712.82 1313.74,712.72 C1314.14,712.52 1320.64,709.32 1326.04,703.22 C1329.84,698.92 1331.34,694.02 1331.34,689.92 C1331.34,689.02 1331.24,688.22 1331.14,687.42 M1324.24,691.32 C1324.24,692.82 1323.84,697.42 1321.34,701.22 C1319.64,703.82 1316.24,706.52 1314.34,708.02 L1314.64,688.52 C1314.84,687.62 1316.34,684.72 1320.34,684.72 C1323.94,684.72 1324.24,688.12 1324.24,690.22 L1324.24,691.32 "/>
<path class="Accidental" d="M1675.7,687.42 C1675.1,683.52 1672.7,679.82 1667.6,679.82 C1662.6,679.82 1659.7,682.92 1659.2,683.52 L1659.6,651.42 C1659.6,650.62 1659,650.02 1658.2,650.02 L1657,650.02 C1656.2,650.02 1655.6,650.62 1655.6,651.42 L1656.1,711.52 C1656.1,712.32 1656.7,712.92 1657.5,712.92 C1657.7,712.92 1658.1,712.82 1658.3,712.72 C1658.7,712.52 1665.2,709.32 1670.6,703.22 C1674.4,698.92 1675.9,694.02 1675.9,689.92 C1675.9,689.02 1675.8,688.22 1675.7,687.42 M1668.8,691.32 C1668.8,692.82 1668.4,697.42 1665.9,701.22 C1664.2,703.82 1660.8,706.52 1658.9,708.02 L1659.2,688.52 C1659.4,687.62 1660.9,684.72 1664.9,684.72 C1668.5,684.72 1668.8,688.12 1668.8,690.22 L1668.8,691.32 "/>
<path class="Accidental" d="M1809.34,699.921 C1808.74,696.021 1806.34,692.321 1801.24,692.321 C1796.24,692.321 1793.34,695.421 1792.84,696.021 L1793.24,663.921 C1793.24,663.121 1792.64,662.521 1791.84,662.521 L1790.64,662.521 C1789.84,662.521 1789.24,663.121 1789.24,663.921 L1789.74,724.021 C1789.74,724.821 1790.34,725.421 1791.14,725.421 C1791.34,725.421 1791.74,725.321 1791.94,725.221 C1792.34,725.021 1798.84,721.821 1804.24,715.721 C1808.04,711.421 1809.54,706.521 1809.54,702.421 C1809.54,701.521 1809.44,700.721 1809.34,699.921 M1802.44,703.821 C1802.44,705.321 1802.04,709.921 1799.54,713.721 C1797.84,716.321 1794.44,719.021 1792.54,720.521 L1792.84,701.021 C1793.04,700.121 1794.54,697.221 1798.54,697.221 C1802.14,697.221 1802.44,700.621 1802.44,702.721 L1802.44,703.821 "/>
<path class="Accidental" d="M2263.07,737.424 C2262.47,733.524 2260.07,729.824 2254.97,729.824 C2249.97,729.824 2247.07,732.924 2246.57,733.524 L2246.97,701.424 C2246.97,700.624 2246.37,700.024 2245.57,700.024 L2244.37,700.024 C2243.57,700.024 2242.97,700.624 2242.97,701.424 L2243.47,761.524 C2243.47,762.324 2244.07,762.924 2244.87,762.924 C2245.07,762.924 2245.47,762.824 2245.67,762.724 C2246.07,762.524 2252.57,759.324 2257.97,753.224 C2261.77,748.924 2263.27,744.024 2263.27,739.924 C2263.27,739.024 2263.17,738.224 2263.07,737.424 M2256.17,741.324 C2256.17,742.824 2255.77,747.424 2253.27,751.224 C2251.57,753.824 2248.17,756.524 2246.27,758.024 L2246.57,738.524 C2246.77,737.624 2248.27,734.724 2252.27,734.724 C2255.87,734.724 2256.17,738.124 2256.17,740.224 L2256.17,741.324 "/>
<polyline class="LedgerLine" fill="none" stroke="#000000" stroke-width="4.00" stroke-linejoin="bevel" points="1474.72,882.832 1524.71,882.832"/>
<polyline class="LedgerLine" fill="none" stroke="#000000" stroke-width="4.00" stroke-linejoin="bevel" points="455.002,770.325 504.998,770.325"/>
<polyline class="LedgerLine" fill="none" stroke="#000000" stroke-width="4.00" stroke-linejoin="bevel" points="2518.05,770.325 2568.05,770.325"/>
<polyline class="Stem" fill="none" stroke="#000000" stroke-width="2.75" stroke-linejoin="bevel" points="494.872,966.978 494.872,889.083"/>
<polyline class="Stem" fill="none" stroke="#000000" stroke-width="2.75" stroke-linejoin="bevel" points="601.395,961.357 601.395,1035.97"/>
<polyline class="Stem" fill="none" stroke="#000000" stroke-width="2.75" stroke-linejoin="bevel" points="737.661,948.856 737.661,1026.59"/>
<polyline class="Stem" fill="none" stroke="#000000" stroke-width="2.75" stroke-linejoin="bevel" points="873.928,936.356 873.928,1017.22"/>
<polyline class="Stem" fill="none" stroke="#000000" stroke-width="2.75" stroke-linejoin="bevel" points="1047.2,923.855 1047.2,1007.84"/>
<polyline class="Stem" fill="none" stroke="#000000" stroke-width="2.75" stroke-linejoin="bevel" points="1193.08,911.354 1193.08,995.339"/>
<polyline class="Stem" fill="none" stroke="#000000" stroke-width="2.75" stroke-linejoin="bevel" points="1338.96,898.853 1338.96,982.839"/>
<polyline class="Stem" fill="none" stroke="#000000" stroke-width="2.75" stroke-linejoin="bevel" points="1484.84,886.352 1484.84,970.338"/>
<polyline class="Stem" fill="none" stroke="#000000" stroke-width="2.75" stroke-linejoin="bevel" points="1683.52,898.853 1683.52,982.839"/>
<polyline class="Stem" fill="none" stroke="#000000" stroke-width="2.75" stroke-linejoin="bevel" points="1817.16,911.354 1817.16,995.339"/>
<polyline class="Stem" fill="none" stroke="#000000" stroke-width="2.75" stroke-linejoin="bevel" points="1950.81,923.855 1950.81,1007.84"/>
<polyline class="Stem" fill="none" stroke="#000000" stroke-width="2.75" stroke-linejoin="bevel" points="2084.45,936.356 2084.45,1017.22"/>
<polyline class="Stem" fill="none" stroke="#000000" stroke-width="2.75" stroke-linejoin="bevel" points="2270.89,948.856 2270.89,1026.59"/>
<polyline class="Stem" fill="none" stroke="#000000" stroke-width="2.75" stroke-linejoin="bevel" points="2399.53,961.357 2399.53,1035.97"/>
<polyline class="Stem" fill="none" stroke="#000000" stroke-width="2.75" stroke-linejoin="bevel" points="2557.92,966.898 2557.92,889.083"/>
<polyline class="Stem" fill="none" stroke="#000000" stroke-width="2.75" stroke-linejoin="bevel" points="494.872,766.965 494.872,682.82"/>
<polyline class="Stem" fill="none" stroke="#000000" stroke-width="2.75" stroke-linejoin="bevel" points="631.139,754.464 631.139,670.319"/>
<polyline class="Stem" fill="none" stroke="#000000" stroke-width="2.75" stroke-linejoin="bevel" points="767.405,741.963 767.405,657.818"/>
<polyline class="Stem" fill="none" stroke="#000000" stroke-width="2.75" stroke-linejoin="bevel" points="903.672,729.463 903.672,645.317"/>
<polyline class="Stem" fill="none" stroke="#000000" stroke-width="2.75" stroke-linejoin="bevel" points="1076.94,716.962 1076.94,635.942"/>
<polyline class="Stem" fill="none" stroke="#000000" stroke-width="2.75" stroke-linejoin="bevel" points="1222.82,704.461 1222.82,626.566"/>
<polyline class="Stem" fill="none" stroke="#000000" stroke-width="2.75" stroke-linejoin="bevel" points="1338.96,698.841 1338.96,773.45"/>
<polyline class="Stem" fill="none" stroke="#000000" stroke-width="2.75" stroke-linejoin="bevel" points="1484.84,686.34 1484.84,764.075"/>
<polyline class="Stem" fill="none" stroke="#000000" stroke-width="2.75" stroke-linejoin="bevel" points="1683.52,698.841 1683.52,773.45"/>
<polyline class="Stem" fill="none" stroke="#000000" stroke-width="2.75" stroke-linejoin="bevel" points="1846.91,704.461 1846.91,626.566"/>
<polyline class="Stem" fill="none" stroke="#000000" stroke-width="2.75" stroke-linejoin="bevel" points="1980.55,716.962 1980.55,635.942"/>
<polyline class="Stem" fill="none" stroke="#000000" stroke-width="2.75" stroke-linejoin="bevel" points="2114.19,729.463 2114.19,645.317"/>
<polyline class="Stem" fill="none" stroke="#000000" stroke-width="2.75" stroke-linejoin="bevel" points="2300.63,741.963 2300.63,657.818"/>
<polyline class="Stem" fill="none" stroke="#000000" stroke-width="2.75" stroke-linejoin="bevel" points="2429.28,754.464 2429.28,670.319"/>
<polyline class="Stem" fill="none" stroke="#000000" stroke-width="2.75" stroke-linejoin="bevel" points="2557.92,766.885 2557.92,682.82"/>
<path class="Note" d="M495.253,962.138 C493.753,959.438 490.853,957.738 486.953,957.338 C486.353,957.238 485.853,957.238 485.253,957.238 C481.753,957.238 477.953,958.238 474.453,960.138 C467.853,963.738 463.753,969.638 463.753,974.738 C463.753,976.138 463.953,977.438 464.653,978.638 C466.153,981.338 469.153,983.038 473.053,983.438 C473.653,983.538 474.153,983.538 474.753,983.538 C478.253,983.538 481.953,982.538 485.453,980.638 C492.053,977.038 496.253,971.238 496.253,966.138 C496.253,964.738 495.953,963.338 495.253,962.138"/>
<path class="Note" d="M631.52,949.637 C630.02,946.937 627.12,945.237 623.22,944.837 C622.62,944.737 622.12,944.737 621.52,944.737 C618.02,944.737 614.22,945.737 610.72,947.637 C604.12,951.237 600.02,957.137 600.02,962.237 C600.02,963.637 600.22,964.937 600.92,966.137 C602.42,968.837 605.42,970.537 609.32,970.937 C609.92,971.037 610.42,971.037 611.02,971.037 C614.52,971.037 618.22,970.037 621.72,968.137 C628.32,964.537 632.52,958.737 632.52,953.637 C632.52,952.237 632.22,950.837 631.52,949.637"/>
<path class="Note" d="M767.786,937.136 C766.286,934.436 763.386,932.736 759.486,932.336 C758.886,932.236 758.386,932.236 757.786,932.236 C754.286,932.236 750.486,933.236 746.986,935.136 C740.386,938.736 736.286,944.636 736.286,949.736 C736.286,951.136 736.486,952.436 737.186,953.636 C738.686,956.336 741.686,958.036 745.586,958.436 C746.186,958.536 746.686,958.536 747.286,958.536 C750.786,958.536 754.486,957.536 757.986,955.636 C764.586,952.036 768.786,946.236 768.786,941.136 C768.786,939.736 768.486,938.336 767.786,937.136"/>
<path class="Note" d="M904.053,924.635 C902.553,921.935 899.653,920.235 895.753,919.835 C895.153,919.735 894.653,919.735 894.053,919.735 C890.553,919.735 886.753,920.735 883.253,922.635 C876.653,926.235 872.553,932.135 872.553,937.235 C872.553,938.635 872.753,939.935 873.453,941.135 C874.953,943.835 877.953,945.535 881.853,945.935 C882.453,946.035 882.953,946.035 883.553,946.035 C887.053,946.035 890.753,945.035 894.253,943.135 C900.853,939.535 905.053,933.735 905.053,928.635 C905.053,927.235 904.753,925.835 904.053,924.635"/>
<path class="Note" d="M1077.32,912.135 C1075.82,909.435 1072.92,907.735 1069.02,907.335 C1068.42,907.235 1067.92,907.235 1067.32,907.235 C1063.82,907.235 1060.02,908.235 1056.52,910.135 C1049.92,913.735 1045.82,919.635 1045.82,924.735 C1045.82,926.135 1046.02,927.435 1046.72,928.635 C1048.22,931.335 1051.22,933.035 1055.12,933.435 C1055.72,933.535 1056.22,933.535 1056.82,933.535 C1060.32,933.535 1064.02,932.535 1067.52,930.635 C1074.12,927.035 1078.32,921.235 1078.32,916.135 C1078.32,914.735 1078.02,913.335 1077.32,912.135"/>
<path class="Note" d="M1223.2,899.634 C1221.7,896.934 1218.8,895.234 1214.9,894.834 C1214.3,894.734 1213.8,894.734 1213.2,894.734 C1209.7,894.734 1205.9,895.734 1202.4,897.634 C1195.8,901.234 1191.7,907.134 1191.7,912.234 C1191.7,913.634 1191.9,914.934 1192.6,916.134 C1194.1,918.834 1197.1,920.534 1201,920.934 C1201.6,921.034 1202.1,921.034 1202.7,921.034 C1206.2,921.034 1209.9,920.034 1213.4,918.134 C1220,914.534 1224.2,908.734 1224.2,903.634 C1224.2,902.234 1223.9,900.834 1223.2,899.634"/>
<path class="Note" d="M1369.08,887.133 C1367.58,884.433 1364.68,882.733 1360.78,882.333 C1360.18,882.233 1359.68,882.233 1359.08,882.233 C1355.58,882.233 1351.78,883.233 1348.28,885.133 C1341.68,888.733 1337.58,894.633 1337.58,899.733 C1337.58,901.133 1337.78,902.433 1338.48,903.633 C1339.98,906.333 1342.98,908.033 1346.88,908.433 C1347.48,908.533 1347.98,908.533 1348.58,908.533 C1352.08,908.533 1355.78,907.533 1359.28,905.633 C1365.88,902.033 1370.08,896.233 1370.08,891.133 C1370.08,889.733 1369.78,888.333 1369.08,887.133"/>
<path class="Note" d="M1514.97,874.632 C1513.47,871.932 1510.57,870.232 1506.67,869.832 C1506.07,869.732 1505.57,869.732 1504.97,869.732 C1501.47,869.732 1497.67,870.732 1494.17,872.632 C1487.57,876.232 1483.47,882.132 1483.47,887.232 C1483.47,888.632 1483.67,889.932 1484.37,891.132 C1485.87,893.832 1488.87,895.532 1492.77,895.932 C1493.37,896.032 1493.87,896.032 1494.47,896.032 C1497.97,896.032 1501.67,895.032 1505.17,893.132 C1511.77,889.532 1515.97,883.732 1515.97,878.632 C1515.97,877.232 1515.67,875.832 1514.97,874.632"/>
<path class="Note" d="M1713.65,887.133 C1712.15,884.433 1709.25,882.733 1705.35,882.333 C1704.75,882.233 1704.25,882.233 1703.65,882.233 C1700.15,882.233 1696.35,883.233 1692.85,885.133 C1686.25,888.733 1682.15,894.633 1682.15,899.733 C1682.15,901.133 1682.35,902.433 1683.05,903.633 C1684.55,906.333 1687.55,908.033 1691.45,908.433 C1692.05,908.533 1692.55,908.533 1693.15,908.533 C1696.65,908.533 1700.35,907.533 1703.85,905.633 C1710.45,902.033 1714.65,896.233 1714.65,891.133 C1714.65,889.733 1714.35,888.333 1713.65,887.133"/>
<path class="Note" d="M1847.29,899.634 C1845.79,896.934 1842.89,895.234 1838.99,894.834 C1838.39,894.734 1837.89,894.734 1837.29,894.734 C1833.79,894.734 1829.99,895.734 1826.49,897.634 C1819.89,901.234 1815.79,907.134 1815.79,912.234 C1815.79,913.634 1815.99,914.934 1816.69,916.134 C1818.19,918.834 1821.19,920.534 1825.09,920.934 C1825.69,921.034 1826.19,921.034 1826.79,921.034 C1830.29,921.034 1833.99,920.034 1837.49,918.134 C1844.09,914.534 1848.29,908.734 1848.29,903.634 C1848.29,902.234 1847.99,900.834 1847.29,899.634"/>
<path class="Note" d="M1980.93,912.135 C1979.43,909.435 1976.53,907.735 1972.63,907.335 C1972.03,907.235 1971.53,907.235 1970.93,907.235 C1967.43,907.235 1963.63,908.235 1960.13,910.135 C1953.53,913.735 1949.43,919.635 1949.43,924.735 C1949.43,926.135 1949.63,927.435 1950.33,928.635 C1951.83,931.335 1954.83,933.035 1958.73,933.435 C1959.33,933.535 1959.83,933.535 1960.43,933.535 C1963.93,933.535 1967.63,932.535 1971.13,930.635 C1977.73,927.035 1981.93,921.235 1981.93,916.135 C1981.93,914.735 1981.63,913.335 1980.93,912.135"/>
<path class="Note" d="M2114.57,924.635 C2113.07,921.935 2110.17,920.235 2106.27,919.835 C2105.67,919.735 2105.17,919.735 2104.57,919.735 C2101.07,919.735 2097.27,920.735 2093.77,922.635 C2087.17,926.235 2083.07,932.135 2083.07,937.235 C2083.07,938.635 2083.27,939.935 2083.97,941.135 C2085.47,943.835 2088.47,945.535 2092.37,945.935 C2092.97,946.035 2093.47,946.035 2094.07,946.035 C2097.57,946.035 2101.27,945.035 2104.77,943.135 C2111.37,939.535 2115.57,933.735 2115.57,928.635 C2115.57,927.235 2115.27,925.835 2114.57,924.635"/>
<path class="Note" d="M2301.01,937.136 C2299.51,934.436 2296.61,932.736 2292.71,932.336 C2292.11,932.236 2291.61,932.236 2291.01,932.236 C2287.51,932.236 2283.71,933.236 2280.21,935.136 C2273.61,938.736 2269.51,944.636 2269.51,949.736 C2269.51,951.136 2269.71,952.436 2270.41,953.636 C2271.91,956.336 2274.91,958.036 2278.81,958.436 C2279.41,958.536 2279.91,958.536 2280.51,958.536 C2284.01,958.536 2287.71,957.536 2291.21,955.636 C2297.81,952.036 2302.01,946.236 2302.01,941.136 C2302.01,939.736 2301.71,938.336 2301.01,937.136"/>
<path class="Note" d="M2429.66,949.637 C2428.16,946.937 2425.26,945.237 2421.36,944.837 C2420.76,944.737 2420.26,944.737 2419.66,944.737 C2416.16,944.737 2412.36,945.737 2408.86,947.637 C2402.26,951.237 2398.16,957.137 2398.16,962.237 C2398.16,963.637 2398.36,964.937 2399.06,966.137 C2400.56,968.837 2403.56,970.537 2407.46,970.937 C2408.06,971.037 2408.56,971.037 2409.16,971.037 C2412.66,971.037 2416.36,970.037 2419.86,968.137 C2426.46,964.537 2430.66,958.737 2430.66,953.637 C2430.66,952.237 2430.36,950.837 2429.66,949.637"/>
<path class="Note" d="M2558.3,962.138 C2556.8,959.438 2553.9,957.738 2550,957.338 C2549.4,957.238 2548.9,957.238 2548.3,957.238 C2544.8,957.238 2541,958.238 2537.5,960.138 C2530.9,963.738 2526.8,969.538 2526.8,974.638 C2526.8,976.038 2527.2,977.438 2527.9,978.638 C2529.4,981.438 2532.2,983.038 2536.1,983.438 C2536.7,983.538 2537.2,983.538 2537.8,983.538 C2541.3,983.538 2545.1,982.538 2548.6,980.638 C2555.2,977.038 2559.3,971.138 2559.3,966.038 C2559.3,964.638 2559,963.338 2558.3,962.138 M2554.1,968.438 C2552.4,970.238 2549.2,972.538 2545.6,974.638 C2542,976.738 2538.3,978.438 2536,979.138 C2535.5,979.238 2534.9,979.338 2534.4,979.338 C2532.9,979.338 2531.6,978.638 2530.9,977.538 C2530.6,976.938 2530.4,976.338 2530.4,975.738 C2530.4,974.638 2530.9,973.538 2532,972.338 C2533.7,970.538 2536.9,968.138 2540.5,966.038 C2544.1,963.938 2547.8,962.238 2550.2,961.638 L2550.4,961.638 C2551,961.438 2551.5,961.338 2552,961.338 C2553.4,961.338 2554.5,961.938 2555.2,963.238 C2555.5,963.838 2555.7,964.338 2555.7,964.938 C2555.7,966.238 2555,967.538 2554.1,968.438"/>
<path class="Note" d="M495.253,762.125 C493.753,759.425 490.853,757.725 486.953,757.325 C486.353,757.225 485.853,757.225 485.253,757.225 C481.753,757.225 477.953,758.225 474.453,760.125 C467.853,763.725 463.753,769.625 463.753,774.725 C463.753,776.125 463.953,777.425 464.653,778.625 C466.153,781.325 469.153,783.025 473.053,783.425 C473.653,783.525 474.153,783.525 474.753,783.525 C478.253,783.525 481.953,782.525 485.453,780.625 C492.053,777.025 496.253,771.225 496.253,766.125 C496.253,764.725 495.953,763.325 495.253,762.125"/>
<path class="Note" d="M631.52,749.624 C630.02,746.924 627.12,745.224 623.22,744.824 C622.62,744.724 622.12,744.724 621.52,744.724 C618.02,744.724 614.22,745.724 610.72,747.624 C604.12,751.224 600.02,757.124 600.02,762.224 C600.02,763.624 600.22,764.924 600.92,766.124 C602.42,768.824 605.42,770.524 609.32,770.924 C609.92,771.024 610.42,771.024 611.02,771.024 C614.52,771.024 618.22,770.024 621.72,768.124 C628.32,764.524 632.52,758.724 632.52,753.624 C632.52,752.224 632.22,750.824 631.52,749.624"/>
<path class="Note" d="M767.786,737.124 C766.286,734.424 763.386,732.724 759.486,732.324 C758.886,732.224 758.386,732.224 757.786,732.224 C754.286,732.224 750.486,733.224 746.986,735.124 C740.386,738.724 736.286,744.624 736.286,749.724 C736.286,751.124 736.486,752.424 737.186,753.624 C738.686,756.324 741.686,758.024 745.586,758.424 C746.186,758.524 746.686,758.524 747.286,758.524 C750.786,758.524 754.486,757.524 757.986,755.624 C764.586,752.024 768.786,746.224 768.786,741.124 C768.786,739.724 768.486,738.324 767.786,737.124"/>
<path class="Note" d="M904.053,724.623 C902.553,721.923 899.653,720.223 895.753,719.823 C895.153,719.723 894.653,719.723 894.053,719.723 C890.553,719.723 886.753,720.723 883.253,722.623 C876.653,726.223 872.553,732.123 872.553,737.223 C872.553,738.623 872.753,739.923 873.453,741.123 C874.953,743.823 877.953,745.523 881.853,745.923 C882.453,746.023 882.953,746.023 883.553,746.023 C887.053,746.023 890.753,745.023 894.253,743.123 C900.853,739.523 905.053,733.723 905.053,728.623 C905.053,727.223 904.753,725.823 904.053,724.623"/>
<path class="Note" d="M1077.32,712.122 C1075.82,709.422 1072.92,707.722 1069.02,707.322 C1068.42,707.222 1067.92,707.222 1067.32,707.222 C1063.82,707.222 1060.02,708.222 1056.52,710.122 C1049.92,713.722 1045.82,719.622 1045.82,724.722 C1045.82,726.122 1046.02,727.422 1046.72,728.622 C1048.22,731.322 1051.22,733.022 1055.12,733.422 C1055.72,733.522 1056.22,733.522 1056.82,733.522 C1060.32,733.522 1064.02,732.522 1067.52,730.622 C1074.12,727.022 1078.32,721.222 1078.32,716.122 C1078.32,714.722 1078.02,713.322 1077.32,712.122"/>
<path class="Note" d="M1223.2,699.621 C1221.7,696.921 1218.8,695.221 1214.9,694.821 C1214.3,694.721 1213.8,694.721 1213.2,694.721 C1209.7,694.721 1205.9,695.721 1202.4,697.621 C1195.8,701.221 1191.7,707.121 1191.7,712.221 C1191.7,713.621 1191.9,714.921 1192.6,716.121 C1194.1,718.821 1197.1,720.521 1201,720.921 C1201.6,721.021 1202.1,721.021 1202.7,721.021 C1206.2,721.021 1209.9,720.021 1213.4,718.121 C1220,714.521 1224.2,708.721 1224.2,703.621 C1224.2,702.221 1223.9,700.821 1223.2,699.621"/>
<path class="Note" d="M1369.08,687.12 C1367.58,684.42 1364.68,682.72 1360.78,682.32 C1360.18,682.22 1359.68,682.22 1359.08,682.22 C1355.58,682.22 1351.78,683.22 1348.28,685.12 C1341.68,688.72 1337.58,694.62 1337.58,699.72 C1337.58,701.12 1337.78,702.42 1338.48,703.62 C1339.98,706.32 1342.98,708.02 1346.88,708.42 C1347.48,708.52 1347.98,708.52 1348.58,708.52 C1352.08,708.52 1355.78,707.52 1359.28,705.62 C1365.88,702.02 1370.08,696.22 1370.08,691.12 C1370.08,689.72 1369.78,688.32 1369.08,687.12"/>
<path class="Note" d="M1514.97,674.62 C1513.47,671.92 1510.57,670.22 1506.67,669.82 C1506.07,669.72 1505.57,669.72 1504.97,669.72 C1501.47,669.72 1497.67,670.72 1494.17,672.62 C1487.57,676.22 1483.47,682.12 1483.47,687.22 C1483.47,688.62 1483.67,689.92 1484.37,691.12 C1485.87,693.82 1488.87,695.52 1492.77,695.92 C1493.37,696.02 1493.87,696.02 1494.47,696.02 C1497.97,696.02 1501.67,695.02 1505.17,693.12 C1511.77,689.52 1515.97,683.72 1515.97,678.62 C1515.97,677.22 1515.67,675.82 1514.97,674.62"/>
<path class="Note" d="M1713.65,687.12 C1712.15,684.42 1709.25,682.72 1705.35,682.32 C1704.75,682.22 1704.25,682.22 1703.65,682.22 C1700.15,682.22 1696.35,683.22 1692.85,685.12 C1686.25,688.72 1682.15,694.62 1682.15,699.72 C1682.15,701.12 1682.35,702.42 1683.05,703.62 C1684.55,706.32 1687.55,708.02 1691.45,708.42 C1692.05,708.52 1692.55,708.52 1693.15,708.52 C1696.65,708.52 1700.35,707.52 1703.85,705.62 C1710.45,702.02 1714.65,696.22 1714.65,691.12 C1714.65,689.72 1714.35,688.32 1713.65,687.12"/>
<path class="Note" d="M1847.29,699.621 C1845.79,696.921 1842.89,695.221 1838.99,694.821 C1838.39,694.721 1837.89,694.721 1837.29,694.721 C1833.79,694.721 1829.99,695.721 1826.49,697.621 C1819.89,701.221 1815.79,707.121 1815.79,712.221 C1815.79,713.621 1815.99,714.921 1816.69,716.121 C1818.19,718.821 1821.19,720.521 1825.09,720.921 C1825.69,721.021 1826.19,721.021 1826.79,721.021 C1830.29,721.021 1833.99,720.021 1837.49,718.121 C1844.09,714.521 1848.29,708.721 1848.29,703.621 C1848.29,702.221 1847.99,700.821 1847.29,699.621"/>
<path class="Note" d="M1980.93,712.122 C1979.43,709.422 1976.53,707.722 1972.63,707.322 C1972.03,707.222 1971.53,707.222 1970.93,707.222 C1967.43,707.222 1963.63,708.222 1960.13,710.122 C1953.53,713.722 1949.43,719.622 1949.43,724.722 C1949.43,726.122 1949.63,727.422 1950.33,728.622 C1951.83,731.322 1954.83,733.022 1958.73,733.422 C1959.33,733.522 1959.83,733.522 1960.43,733.522 C1963.93,733.522 1967.63,732.522 1971.13,730.622 C1977.73,727.022 1981.93,721.222 1981.93,716.122 C1981.93,714.722 1981.63,713.322 1980.93,712.122"/>
<path class="Note" d="M2114.57,724.623 C2113.07,721.923 2110.17,720.223 2106.27,719.823 C2105.67,719.723 2105.17,719.723 2104.57,719.723 C2101.07,719.723 2097.27,720.723 2093.77,722.623 C2087.17,726.223 2083.07,732.123 2083.07,737.223 C2083.07,738.623 2083.27,739.923 2083.97,741.123 C2085.47,743.823 2088.47,745.523 2092.37,745.923 C2092.97,746.023 2093.47,746.023 2094.07,746.023 C2097.57,746.023 2101.27,745.023 2104.77,743.123 C2111.37,739.523 2115.57,733.723 2115.57,728.623 C2115.57,727.223 2115.27,725.823 2114.57,724.623"/>
<path class="Note" d="M2301.01,737.124 C2299.51,734.424 2296.61,732.724 2292.71,732.324 C2292.11,732.224 2291.61,732.224 2291.01,732.224 C2287.51,732.224 2283.71,733.224 2280.21,735.124 C2273.61,738.724 2269.51,744.624 2269.51,749.724 C2269.51,751.124 2269.71,752.424 2270.41,753.624 C2271.91,756.324 2274.91,758.024 2278.81,758.424 C2279.41,758.524 2279.91,758.524 2280.51,758.524 C2284.01,758.524 2287.71,757.524 2291.21,755.624 C2297.81,752.024 2302.01,746.224 2302.01,741.124 C2302.01,739.724 2301.71,738.324 2301.01,737.124"/>
<path class="Note" d="M2429.66,749.624 C2428.16,746.924 2425.26,745.224 2421.36,744.824 C2420.76,744.724 2420.26,744.724 2419.66,744.724 C2416.16,744.724 2412.36,745.724 2408.86,747.624 C2402.26,751.224 2398.16,757.124 2398.16,762.224 C2398.16,763.624 2398.36,764.924 2399.06,766.124 C2400.56,768.824 2403.56,770.524 2407.46,770.924 C2408.06,771.024 2408.56,771.024 2409.16,771.024 C2412.66,771.024 2416.36,770.024 2419.86,768.124 C2426.46,764.524 2430.66,758.724 2430.66,753.624 C2430.66,752.224 2430.36,750.824 2429.66,749.624"/>
<path class="Note" d="M2558.3,762.125 C2556.8,759.425 2553.9,757.725 2550,757.325 C2549.4,757.225 2548.9,757.225 2548.3,757.225 C2544.8,757.225 2541,758.225 2537.5,760.125 C2530.9,763.725 2526.8,769.525 2526.8,774.625 C2526.8,776.025 2527.2,777.425 2527.9,778.625 C2529.4,781.425 2532.2,783.025 2536.1,783.425 C2536.7,783.525 2537.2,783.525 2537.8,783.525 C2541.3,783.525 2545.1,782.525 2548.6,780.625 C2555.2,777.025 2559.3,771.125 2559.3,766.025 C2559.3,764.625 2559,763.325 2558.3,762.125 M2554.1,768.425 C2552.4,770.225 2549.2,772.525 2545.6,774.625 C2542,776.725 2538.3,778.425 2536,779.125 C2535.5,779.225 2534.9,779.325 2534.4,779.325 C2532.9,779.325 2531.6,778.625 2530.9,777.525 C2530.6,776.925 2530.4,776.325 2530.4,775.725 C2530.4,774.625 2530.9,773.525 2532,772.325 C2533.7,770.525 2536.9,768.125 2540.5,766.025 C2544.1,763.925 2547.8,762.225 2550.2,761.625 L2550.4,761.625 C2551,761.425 2551.5,761.325 2552,761.325 C2553.4,761.325 2554.5,761.925 2555.2,763.225 C2555.5,763.825 2555.7,764.325 2555.7,764.925 C2555.7,766.225 2555,767.525 2554.1,768.425"/>
<path class="Clef" d="M297,907.735 C289.4,907.735 283.3,912.135 283.2,912.135 C277.4,916.435 275.1,921.535 274.2,925.035 C273.7,926.835 273.5,928.635 273.5,930.335 C273.5,932.735 273.9,934.935 274.8,936.835 C276,939.535 278.3,941.435 281.3,942.435 C282.5,942.835 283.8,943.035 285.1,943.035 C287.3,943.035 289.6,942.435 291.5,941.335 C294.6,939.635 296.5,936.035 296.5,932.135 C296.5,928.635 294.7,925.435 291.7,923.535 C289.6,922.135 287.6,921.735 285.9,921.735 C284.7,921.735 283.6,921.935 282.7,922.235 C281.7,922.635 280,923.635 279.2,924.335 C279.5,922.435 280.7,919.535 281.8,917.935 C282.9,916.335 285.1,914.335 286.8,913.435 C289.3,912.035 292.5,911.435 296,911.435 C306.2,911.435 311.2,919.635 311.2,936.435 C311.2,945.735 307.7,954.635 304.7,960.535 C301.4,967.135 297,973.435 293.1,976.935 C282.7,986.435 272.9,990.935 272.8,990.935 C272.8,990.935 271.3,991.835 271.7,993.335 C272,994.335 272.9,994.535 273.5,994.535 C273.6,994.535 273.9,994.435 274,994.435 C274.1,994.435 285.5,989.735 294.6,982.635 C299.7,978.935 304.3,974.935 308.3,970.635 C311.9,966.735 315,962.535 317.5,958.335 C321.9,950.835 324.4,943.035 324.4,936.335 C324.4,928.035 322.2,921.135 318.1,916.235 C313.4,910.635 306.3,907.735 297,907.735 M328.4,920.435 C328.4,923.235 330.6,925.435 333.2,925.435 C335.8,925.435 338,923.235 338,920.435 C338,917.635 335.8,915.335 333.2,915.335 C330.6,915.335 328.4,917.635 328.4,920.435 M328.4,945.135 C328.4,947.935 330.6,950.235 333.2,950.235 C335.8,950.235 338,947.935 338,945.135 C338,942.335 335.8,940.035 333.2,940.035 C330.6,940.035 328.4,942.335 328.4,945.135"/>
<path class="Clef" d="M335,714.422 C333.8,709.022 331.1,705.122 330.3,704.122 C327.1,699.822 323.1,697.022 318.4,695.622 C316.1,694.922 314,694.722 312,694.722 C311.3,694.722 310.6,694.722 309.9,694.822 C308.9,688.822 307.8,682.922 306.9,677.522 C312.5,671.322 316.2,665.422 318.6,661.022 C322.2,654.322 323.6,649.622 323.7,649.422 C324.9,646.422 325.6,642.622 325.6,638.122 C325.6,635.422 325.3,632.522 324.9,629.522 C323.8,622.422 321.6,615.722 319.1,612.022 C317.8,610.122 316.6,609.022 315.4,609.022 C314.2,609.022 311.7,610.222 308.8,613.022 C306.5,615.222 303.2,619.122 300.6,625.122 C298.3,630.522 297.6,637.422 297.6,643.322 C297.6,645.122 297.7,646.822 297.8,648.422 C298,652.022 298.7,657.822 299.3,661.422 C299.3,661.522 299.6,663.022 300,665.622 L299.3,666.322 C298.3,667.322 297.1,668.422 295.7,669.822 C294.8,670.722 293.9,671.522 292.9,672.522 C284.4,680.722 271.6,693.122 271.6,712.222 C271.6,716.922 272.5,721.322 274.3,725.322 C275.9,728.922 278.2,732.222 281.1,735.122 C288.6,742.522 298.8,745.722 305.9,745.722 L306.5,745.722 C309.4,745.622 312.1,745.322 314.5,744.922 C316.3,754.522 317.5,761.622 317.5,766.922 C317.5,773.422 315.9,777.322 312,780.122 C309.6,781.822 306.7,782.922 303.6,783.022 L302.8,783.022 C301.3,783.022 298.8,782.622 297.3,782.222 C297.3,782.222 297,782.122 297,781.922 C297,781.722 297.4,781.722 297.4,781.722 C299.3,781.322 302.9,780.022 305.3,776.722 C306.4,775.222 307.1,772.922 307.1,770.422 C307.1,768.822 306.8,767.122 306.1,765.622 C305,763.222 302.4,760.222 296.8,759.822 L295.7,759.822 C293.6,759.822 291.8,760.322 290.1,761.322 C288.3,762.422 286.7,764.122 285.7,766.122 C284.6,768.122 284.1,770.322 284.1,772.522 C284.1,775.422 285,778.122 286.8,780.322 C289.8,783.922 294.5,786.222 299.9,786.822 C300.6,786.922 301.7,787.022 302.4,787.022 C306.8,787.022 311.2,785.822 314.8,783.622 C318.5,781.022 320.6,777.022 321.3,771.422 C321.5,770.122 321.5,768.722 321.5,767.222 C321.5,763.322 321,758.622 320,752.822 C319.6,750.722 319.2,747.722 318.5,743.922 C324.3,742.022 328.4,738.322 332.2,732.522 C334.5,728.522 335.6,724.422 335.6,720.122 C335.6,718.222 335.4,716.322 335,714.422 M304.8,636.522 C306.6,630.822 309.3,627.422 311.3,625.722 C313.1,624.222 314.7,623.522 315.6,623.522 C315.7,623.522 315.9,623.622 316,623.622 C316.3,623.722 316.7,624.222 317.1,624.922 C318,626.722 318.9,630.022 318.9,633.722 C318.9,635.622 318.7,637.622 318.1,639.422 C315.9,646.222 311.3,653.522 304.3,661.222 C304.1,660.122 303.9,659.122 303.8,658.122 C303.3,654.922 303,651.722 303,648.822 C303,644.322 303.6,640.222 304.8,636.522 M300.8,740.622 C296.2,739.422 291.7,736.922 287.9,733.422 C286.6,732.222 284.8,730.022 283.3,726.622 C282,723.622 281.3,720.522 281.3,717.122 L281.3,716.422 C281.4,711.722 282.7,706.922 285.2,702.122 C288.1,696.522 292.6,691.022 298.7,685.722 C300.2,684.422 301.6,683.122 302.9,681.822 C303.7,686.122 304.4,690.822 305.3,695.722 C301.4,697.022 296.7,700.022 293.6,705.722 C291.2,710.222 290.5,714.122 290.5,717.322 C290.5,718.822 290.7,720.222 290.9,721.322 C291.8,725.822 294.4,729.522 297.9,731.622 C298.7,732.122 302,733.822 304,733.822 C304.3,733.822 304.6,733.822 304.8,733.722 C305.1,733.622 305.4,733.422 305.5,733.122 C305.6,732.922 305.6,732.722 305.6,732.522 C305.6,731.722 304.8,731.122 303.5,730.322 C302.9,729.922 302.2,729.522 301.5,729.022 C298.9,727.022 297.4,723.922 297.4,720.522 C297.4,719.522 297.6,718.622 297.8,717.622 C298.3,715.622 300,712.822 301.5,711.422 C303.2,709.922 305.2,708.722 307.6,708.122 C309.6,719.322 311.7,730.422 313.3,738.822 C313.4,739.522 313.6,740.222 313.7,740.922 C311.7,741.322 309.7,741.522 307.8,741.522 C305.4,741.522 303.1,741.222 300.8,740.622 M326.5,730.422 C325.3,733.622 322.8,737.622 317.7,739.722 C317.6,739.322 317.6,738.822 317.5,738.422 C316,729.622 314.1,718.722 312.1,707.422 L313.1,707.422 C322.8,707.422 326.7,714.622 327.6,719.222 C327.8,720.122 327.9,721.322 327.9,722.622 C327.9,724.922 327.5,727.722 326.5,730.422"/>
<path class="TimeSig" d="M365.2,946.235 L382,946.235 L382,953.535 L373.9,953.535 C373.1,953.535 372.5,954.135 372.5,954.935 L372.5,956.835 C372.5,957.635 373.1,958.135 373.9,958.135 L403.6,958.135 C404.4,958.135 405,957.635 405,956.835 L405,954.935 C405,954.135 404.4,953.535 403.6,953.535 L394.8,953.535 L394.8,946.235 L403.6,946.235 C404.4,946.235 405,945.635 405,944.835 L405,943.035 C405,942.235 404.4,941.635 403.6,941.635 L394.8,941.635 L394.8,925.935 C394.8,925.435 394.4,924.935 394,924.735 L392.9,924.135 C392.7,924.035 392.4,924.035 392.2,924.035 C391.9,924.035 391.5,924.135 391.3,924.335 L382.4,932.535 C382.2,932.735 382,933.235 382,933.535 L382,941.635 L370.7,941.635 C370.7,941.635 381.6,929.835 393.2,914.335 C394,913.235 393.6,912.235 393.4,912.035 L391.3,909.835 C391.1,909.635 390.6,909.435 390.3,909.435 L375.7,909.435 C375,909.435 374.5,910.035 374.4,910.635 C374.4,910.635 373.9,917.835 371.3,925.835 C368.7,933.835 365.9,938.635 363.3,942.235 C363.3,942.235 362.8,943.235 363.1,943.935 C363.4,944.635 364.1,945.735 364.1,945.735 C364.1,945.735 364.4,946.235 365.2,946.235"/>
<path class="TimeSig" d="M365.2,994.839 L382,994.839 L382,1002.14 L373.9,1002.14 C373.1,1002.14 372.5,1002.74 372.5,1003.54 L372.5,1005.44 C372.5,1006.24 373.1,1006.74 373.9,1006.74 L403.6,1006.74 C404.4,1006.74 405,1006.24 405,1005.44 L405,1003.54 C405,1002.74 404.4,1002.14 403.6,1002.14 L394.8,1002.14 L394.8,994.839 L403.6,994.839 C404.4,994.839 405,994.239 405,993.439 L405,991.639 C405,990.839 404.4,990.239 403.6,990.239 L394.8,990.239 L394.8,974.539 C394.8,974.039 394.4,973.539 394,973.339 L392.9,972.739 C392.7,972.639 392.4,972.639 392.2,972.639 C391.9,972.639 391.5,972.739 391.3,972.939 L382.4,981.139 C382.2,981.339 382,981.839 382,982.139 L382,990.239 L370.7,990.239 C370.7,990.239 381.6,978.439 393.2,962.939 C394,961.839 393.6,960.839 393.4,960.639 L391.3,958.439 C391.1,958.239 390.6,958.039 390.3,958.039 L375.7,958.039 C375,958.039 374.5,958.639 374.4,959.239 C374.4,959.239 373.9,966.439 371.3,974.439 C368.7,982.439 365.9,987.239 363.3,990.839 C363.3,990.839 362.8,991.839 363.1,992.539 C363.4,993.239 364.1,994.339 364.1,994.339 C364.1,994.339 364.4,994.839 365.2,994.839"/>
<path class="TimeSig" d="M365.2,683.718 L382,683.718 L382,691.018 L373.9,691.018 C373.1,691.018 372.5,691.618 372.5,692.418 L372.5,694.318 C372.5,695.118 373.1,695.618 373.9,695.618 L403.6,695.618 C404.4,695.618 405,695.118 405,694.318 L405,692.418 C405,691.618 404.4,691.018 403.6,691.018 L394.8,691.018 L394.8,683.718 L403.6,683.718 C404.4,683.718 405,683.118 405,682.318 L405,680.518 C405,679.718 404.4,679.118 403.6,679.118 L394.8,679.118 L394.8,663.418 C394.8,662.918 394.4,662.418 394,662.218 L392.9,661.618 C392.7,661.518 392.4,661.518 392.2,661.518 C391.9,661.518 391.5,661.618 391.3,661.818 L382.4,670.018 C382.2,670.218 382,670.718 382,671.018 L382,679.118 L370.7,679.118 C370.7,679.118 381.6,667.318 393.2,651.818 C394,650.718 393.6,649.718 393.4,649.518 L391.3,647.318 C391.1,647.118 390.6,646.918 390.3,646.918 L375.7,646.918 C375,646.918 374.5,647.518 374.4,648.118 C374.4,648.118 373.9,655.318 371.3,663.318 C368.7,671.318 365.9,676.118 363.3,679.718 C363.3,679.718 362.8,680.718 363.1,681.418 C363.4,682.118 364.1,683.218 364.1,683.218 C364.1,683.218 364.4,683.718 365.2,683.718"/>
<path class="TimeSig" d="M365.2,732.323 L382,732.323 L382,739.623 L373.9,739.623 C373.1,739.623 372.5,740.223 372.5,741.023 L372.5,742.923 C372.5,743.723 373.1,744.223 373.9,744.223 L403.6,744.223 C404.4,744.223 405,743.723 405,742.923 L405,741.023 C405,740.223 404.4,739.623 403.6,739.623 L394.8,739.623 L394.8,732.323 L403.6,732.323 C404.4,732.323 405,731.723 405,730.923 L405,729.123 C405,728.323 404.4,727.723 403.6,727.723 L394.8,727.723 L394.8,712.023 C394.8,711.523 394.4,711.023 394,710.823 L392.9,710.223 C392.7,710.123 392.4,710.123 392.2,710.123 C391.9,710.123 391.5,710.223 391.3,710.423 L382.4,718.623 C382.2,718.823 382,719.323 382,719.623 L382,727.723 L370.7,727.723 C370.7,727.723 381.6,715.923 393.2,700.423 C394,699.323 393.6,698.323 393.4,698.123 L391.3,695.923 C391.1,695.723 390.6,695.523 390.3,695.523 L375.7,695.523 C375,695.523 374.5,696.123 374.4,696.723 C374.4,696.723 373.9,703.923 371.3,711.923 C368.7,719.923 365.9,724.723 363.3,728.323 C363.3,728.323 362.8,729.323 363.1,730.023 C363.4,730.723 364.1,731.823 364.1,731.823 C364.1,731.823 364.4,732.323 365.2,732.323"/>
<path class="Page" d="M233.756,4056.35 L231.776,4056.35 L231.326,4058.64 C230.741,4061.57 230.381,4061.84 227.591,4061.84 L217.511,4061.84 C220.616,4058.6 221.651,4057.65 224.531,4055.4 C228.626,4052.25 230.381,4050.68 231.416,4049.33 C232.856,4047.35 233.576,4045.37 233.576,4043.16 C233.576,4038.03 229.346,4034.39 223.451,4034.39 C217.736,4034.39 213.371,4038.03 213.371,4042.85 C213.371,4045.68 214.811,4047.62 216.926,4047.62 C218.591,4047.62 219.716,4046.49 219.716,4044.87 C219.716,4043.75 219.086,4042.71 218.141,4042.31 C216.476,4041.63 216.386,4041.54 216.386,4040.96 C216.386,4040.28 216.836,4039.25 217.466,4038.48 C218.591,4037.09 220.436,4036.32 222.551,4036.32 C226.286,4036.32 228.491,4038.62 228.491,4042.4 C228.491,4045.73 226.916,4048.74 223.181,4052.7 C219.851,4056.21 217.781,4058.42 217.016,4059.27 C215.396,4061.16 214.586,4062.2 212.606,4064.81 L212.606,4066.07 L232.901,4066.07 L233.756,4056.35 M242.932,4050.77 C243.382,4045.14 243.607,4043.66 244.597,4041.36 C245.902,4038.17 248.287,4036.32 251.122,4036.32 C252.697,4036.32 253.642,4036.82 253.642,4037.63 C253.642,4037.81 253.597,4037.94 253.417,4038.26 C252.967,4039.11 252.742,4039.79 252.742,4040.42 C252.742,4041.9 253.912,4043.03 255.487,4043.03 C257.242,4043.03 258.457,4041.68 258.457,4039.79 C258.457,4036.68 255.352,4034.39 251.077,4034.39 C247.387,4034.39 243.922,4036.14 241.762,4039.16 C239.287,4042.62 237.937,4047.3 237.937,4052.21 C237.937,4061.03 242.257,4066.74 248.917,4066.74 C251.842,4066.74 254.272,4065.75 256.162,4063.77 C258.097,4061.79 259.267,4058.87 259.267,4055.99 C259.267,4050.68 255.487,4046.72 250.357,4046.72 C247.297,4046.72 245.047,4047.93 242.932,4050.77 M249.097,4049.46 C252.382,4049.46 254.362,4052.03 254.362,4056.3 C254.362,4061.52 252.292,4064.81 249.007,4064.81 C246.937,4064.81 245.362,4063.73 244.282,4061.52 C243.562,4060.13 243.202,4058.6 243.202,4056.93 C243.202,4052.3 245.452,4049.46 249.097,4049.46"/>
<path class="Bracket" transform="matrix(3.62523,0,0,3.62523,214.469,1007.84)" d="M0.92002,-50 C2.69004,-51.88 6.2,-55.8 6.2,-63 C6.2,-72.1 2.25996,-81.32 2.25996,-86.97 C2.25996,-93.06 5.84004,-98.84 5.95,-99 C6.05996,-99.16 6.05,-99.39 5.94004,-99.46 C5.82998,-99.53 5.62002,-99.47 5.49004,-99.32 C5.35996,-99.17 0,-93.75 0,-85.6 C0,-76.75 3.5,-70.58 3.5,-59.07 C3.5,-56.89 2.55996,-53.36 0.1,-50.33 C-0.0799805,-50.17 -0.1,-49.89 0.0599609,-49.7 L0.0700195,-49.69 L0.1,-49.66 C2.55996,-46.63 3.5,-43.1 3.5,-40.92 C3.5,-29.4 0,-23.24 0,-14.39 C0,-6.25 5.35996,-0.8 5.49004,-0.659961 C5.62002,-0.52002 5.8,-0.42998 5.94004,-0.52002 C6.07998,-0.609961 6.07998,-0.77998 5.95,-0.97998 C5.82002,-1.17998 2.25996,-6.92002 2.25996,-13.01 C2.25996,-18.66 6.2,-27.9 6.2,-37 C6.2,-44.3 2.69004,-48.12 0.92002,-50"/>
</svg>
