<?xml version="1.0" encoding="UTF-8" standalone="no"?>
<svg width="2977.23px" height="4208.47px" viewBox="0 0 2977.23 4208.47"
 xmlns="http://www.w3.org/2000/svg" xmlns:xlink="http://www.w3.org/1999/xlink" version="1.2" baseProfile="tiny">
<title>exercises_scores (3)</title>
<desc>Generated by MuseScore 3.6.0</desc>
<polyline class="StaffLines" fill="none" stroke="#000000" stroke-width="2.75" stroke-linejoin="bevel" points="247.099,656.536 2764.63,656.536"/>
<polyline class="StaffLines" fill="none" stroke="#000000" stroke-width="2.75" stroke-linejoin="bevel" points="247.099,681.538 2764.63,681.538"/>
<polyline class="StaffLines" fill="none" stroke="#000000" stroke-width="2.75" stroke-linejoin="bevel" points="247.099,706.539 2764.63,706.539"/>
<polyline class="StaffLines" fill="none" stroke="#000000" stroke-width="2.75" stroke-linejoin="bevel" points="247.099,731.541 2764.63,731.541"/>
<polyline class="StaffLines" fill="none" stroke="#000000" stroke-width="2.75" stroke-linejoin="bevel" points="247.099,756.542 2764.63,756.542"/>
<polyline class="StaffLines" fill="none" stroke="#000000" stroke-width="2.75" stroke-linejoin="bevel" points="247.099,919.053 2764.63,919.053"/>
<polyline class="StaffLines" fill="none" stroke="#000000" stroke-width="2.75" stroke-linejoin="bevel" points="247.099,944.054 2764.63,944.054"/>
<polyline class="StaffLines" fill="none" stroke="#000000" stroke-width="2.75" stroke-linejoin="bevel" points="247.099,969.056 2764.63,969.056"/>
<polyline class="StaffLines" fill="none" stroke="#000000" stroke-width="2.75" stroke-linejoin="bevel" points="247.099,994.057 2764.63,994.057"/>
<polyline class="StaffLines" fill="none" stroke="#000000" stroke-width="2.75" stroke-linejoin="bevel" points="247.099,1019.06 2764.63,1019.06"/>
<polyline class="StaffLines" fill="none" stroke="#000000" stroke-width="2.75" stroke-linejoin="bevel" points="247.099,1269.07 2764.63,1269.07"/>
<polyline class="StaffLines" fill="none" stroke="#000000" stroke-width="2.75" stroke-linejoin="bevel" points="247.099,1294.08 2764.63,1294.08"/>
<polyline class="StaffLines" fill="none" stroke="#000000" stroke-width="2.75" stroke-linejoin="bevel" points="247.099,1319.08 2764.63,1319.08"/>
<polyline class="StaffLines" fill="none" stroke="#000000" stroke-width="2.75" stroke-linejoin="bevel" points="247.099,1344.08 2764.63,1344.08"/>
<polyline class="StaffLines" fill="none" stroke="#000000" stroke-width="2.75" stroke-linejoin="bevel" points="247.099,1369.08 2764.63,1369.08"/>
<polyline class="StaffLines" fill="none" stroke="#000000" stroke-width="2.75" stroke-linejoin="bevel" points="247.099,1531.59 2764.63,1531.59"/>
<polyline class="StaffLines" fill="none" stroke="#000000" stroke-width="2.75" stroke-linejoin="bevel" points="247.099,1556.59 2764.63,1556.59"/>
<polyline class="StaffLines" fill="none" stroke="#000000" stroke-width="2.75" stroke-linejoin="bevel" points="247.099,1581.59 2764.63,1581.59"/>
<polyline class="StaffLines" fill="none" stroke="#000000" stroke-width="2.75" stroke-linejoin="bevel" points="247.099,1606.6 2764.63,1606.6"/>
<polyline class="StaffLines" fill="none" stroke="#000000" stroke-width="2.75" stroke-linejoin="bevel" points="247.099,1631.6 2764.63,1631.6"/>
<path class="Text" d="M242.312,213.137 L240.092,213.137 L237.692,216.737 C234.812,214.037 231.032,212.597 226.772,212.597 C218.852,212.597 213.632,217.577 213.632,225.137 C213.632,231.677 216.872,234.917 225.692,237.197 L231.392,238.637 C235.832,239.777 236.252,239.897 237.512,240.857 C239.312,242.237 240.272,244.217 240.272,246.557 C240.272,248.957 239.372,250.937 237.572,252.617 C235.592,254.297 233.612,254.957 230.312,254.957 C225.872,254.957 222.692,253.577 219.872,250.457 C217.352,247.697 216.092,244.817 215.192,240.197 L212.612,240.197 L212.852,257.297 L215.192,257.297 L217.892,253.217 C221.912,256.517 225.212,257.717 230.492,257.717 C239.312,257.717 244.952,252.557 244.952,244.517 C244.952,240.737 243.752,237.617 241.352,235.337 C239.732,233.777 237.392,232.757 232.592,231.557 L226.172,229.937 C220.832,228.557 218.312,226.217 218.312,222.557 C218.312,218.357 221.732,215.477 226.832,215.477 C231.032,215.477 234.452,217.277 236.852,220.697 C238.592,223.157 239.732,225.677 240.452,228.737 L243.032,228.737 L242.312,213.137 M271.162,247.997 C269.242,252.317 267.202,254.057 264.082,254.057 C259.282,254.057 256.282,249.677 256.282,242.657 C256.282,235.337 259.222,230.537 263.662,230.537 C265.462,230.537 267.022,231.377 267.022,232.337 C267.022,232.517 266.962,232.697 266.662,233.057 C265.702,234.197 265.462,234.797 265.462,235.817 C265.462,237.797 266.962,239.177 269.062,239.177 C271.222,239.177 272.722,237.497 272.722,235.097 C272.722,231.017 268.702,227.957 263.362,227.957 C255.562,227.957 249.982,234.317 249.982,243.317 C249.982,251.837 255.082,257.717 262.522,257.717 C267.862,257.717 270.922,255.257 273.502,248.897 L271.162,247.997 M301.75,237.497 C301.75,233.717 301.09,231.797 299.35,230.357 C297.37,228.737 294.43,227.957 290.59,227.957 C283.81,227.957 278.89,231.137 278.89,235.517 C278.89,237.737 280.27,239.177 282.37,239.177 C284.29,239.177 285.61,237.917 285.61,236.117 C285.61,235.337 285.31,234.497 284.71,233.657 C284.35,233.237 284.29,233.117 284.29,232.817 C284.29,231.617 286.69,230.537 289.57,230.537 C291.49,230.537 293.59,231.137 294.55,232.037 C295.69,232.997 296.11,234.437 296.11,237.137 L296.11,239.477 C289.87,240.557 287.89,241.037 284.95,242.177 C279.73,244.097 277.27,246.857 277.27,250.697 C277.27,255.017 280.63,257.717 285.97,257.717 C290.11,257.717 293.83,256.037 296.41,252.977 C297.37,256.037 298.87,257.237 301.69,257.237 C304.39,257.237 307.21,255.497 307.21,253.757 C307.21,253.337 306.97,253.037 306.61,253.037 C306.37,253.037 306.13,253.097 305.71,253.277 C304.87,253.637 304.51,253.697 304.03,253.697 C302.35,253.697 301.75,252.617 301.75,249.557 L301.75,237.497 M296.11,244.817 C296.11,248.417 295.93,249.257 294.91,250.817 C293.41,253.037 290.71,254.537 288.07,254.537 C285.31,254.537 283.33,252.557 283.33,249.857 C283.33,247.337 284.59,245.537 287.23,244.277 C289.09,243.437 291.43,242.837 296.11,242.057 L296.11,244.817 M320.229,212.597 L309.129,213.257 L309.129,215.837 L312.069,215.837 C314.289,215.897 314.589,216.257 314.589,218.837 L314.589,249.437 L314.589,252.257 C314.529,253.157 314.469,253.517 314.229,253.817 C313.809,254.357 312.669,254.597 310.089,254.657 L309.669,254.657 L309.669,256.817 L325.209,256.817 L325.209,254.657 L324.789,254.657 C320.769,254.537 320.229,254.237 320.229,252.077 L320.229,249.437 L320.229,212.597 M354.78,243.317 C354.84,234.317 349.74,227.957 342.42,227.957 C334.74,227.957 328.98,234.617 328.98,243.617 C328.98,252.077 334.44,257.717 342.54,257.717 C348.3,257.717 352.32,254.897 354.78,249.197 L352.68,248.057 C350.22,252.677 347.7,254.477 343.68,254.477 C340.62,254.477 338.4,253.217 336.84,250.517 C335.76,248.717 335.28,246.617 335.34,243.317 L354.78,243.317 M335.4,240.737 C335.4,238.877 335.64,237.557 336.24,235.877 C337.5,232.277 339.42,230.537 342.36,230.537 C345.96,230.537 348.36,233.717 348.36,238.577 C348.36,240.257 347.82,240.737 345.9,240.737 L335.4,240.737 M366.601,250.157 C364.501,250.157 362.821,251.837 362.821,253.877 C362.821,255.977 364.501,257.657 366.541,257.657 C368.641,257.657 370.321,255.977 370.321,253.877 C370.321,251.837 368.641,250.157 366.601,250.157 M366.601,228.437 C364.501,228.437 362.821,230.117 362.821,232.217 C362.821,234.257 364.501,235.937 366.541,235.937 C368.641,235.937 370.321,234.257 370.321,232.157 C370.321,230.117 368.641,228.437 366.601,228.437 M392.745,256.817 L412.905,256.817 C418.245,256.817 422.325,255.977 425.505,254.177 C431.565,250.757 434.925,243.917 434.925,234.917 C434.925,226.637 431.925,220.157 426.405,216.557 C423.105,214.457 418.665,213.497 411.825,213.497 L392.745,213.497 L392.745,216.317 L393.885,216.317 C397.245,216.377 398.385,216.557 398.865,217.157 C399.225,217.697 399.225,217.817 399.225,220.877 L399.225,249.437 C399.225,252.497 399.225,252.617 398.865,253.157 C398.385,253.757 397.245,253.937 393.885,253.997 L392.745,253.997 L392.745,256.817 M409.365,253.997 C406.305,253.997 405.945,253.637 405.945,250.697 L405.945,219.677 C405.945,216.737 406.365,216.317 409.365,216.317 L412.485,216.317 C422.745,216.317 427.005,221.897 427.005,235.157 C427.005,248.597 423.165,253.997 413.445,253.997 L409.365,253.997 M466.408,228.857 L455.728,229.517 L455.728,232.097 L458.188,232.097 C460.468,232.157 460.768,232.517 460.768,235.097 L460.768,249.437 L460.768,251.777 L460.768,252.257 C460.708,253.157 460.648,253.517 460.408,253.817 C459.988,254.357 458.848,254.597 456.268,254.657 L456.028,254.657 L456.028,256.817 L471.148,256.817 L471.148,254.657 L470.908,254.657 C466.948,254.537 466.408,254.237 466.408,252.017 L466.408,249.437 L466.408,240.917 C466.408,235.577 469.348,231.617 473.248,231.617 C476.668,231.617 478.408,234.077 478.408,238.937 L478.408,249.437 L478.408,252.317 C478.348,253.097 478.288,253.517 477.988,253.817 C477.628,254.357 476.428,254.597 473.848,254.657 L473.608,254.657 L473.608,256.817 L488.788,256.817 L488.788,254.657 L488.548,254.657 C484.588,254.537 484.048,254.237 484.048,252.077 L484.048,249.437 L484.048,241.457 C484.048,235.457 486.748,231.617 490.948,231.617 C494.368,231.617 496.048,234.197 496.048,239.597 L496.048,249.437 L496.048,252.257 C495.988,253.097 495.928,253.517 495.628,253.817 C495.268,254.357 494.068,254.597 491.488,254.657 L491.248,254.657 L491.248,256.817 L506.428,256.817 L506.428,254.657 L506.188,254.657 C502.228,254.537 501.688,254.237 501.688,252.017 L501.688,249.437 L501.688,238.397 C501.688,234.677 501.328,233.417 499.768,231.377 C498.028,229.157 495.568,227.957 492.688,227.957 C488.788,227.957 485.908,229.817 483.328,233.957 C482.308,230.357 479.068,227.957 475.048,227.957 C471.388,227.957 468.748,229.697 466.408,233.477 L466.408,228.857 M534.797,237.497 C534.797,233.717 534.137,231.797 532.397,230.357 C530.417,228.737 527.477,227.957 523.637,227.957 C516.857,227.957 511.937,231.137 511.937,235.517 C511.937,237.737 513.317,239.177 515.417,239.177 C517.337,239.177 518.657,237.917 518.657,236.117 C518.657,235.337 518.357,234.497 517.757,233.657 C517.397,233.237 517.337,233.117 517.337,232.817 C517.337,231.617 519.737,230.537 522.617,230.537 C524.537,230.537 526.637,231.137 527.597,232.037 C528.737,232.997 529.157,234.437 529.157,237.137 L529.157,239.477 C522.917,240.557 520.937,241.037 517.997,242.177 C512.777,244.097 510.317,246.857 510.317,250.697 C510.317,255.017 513.677,257.717 519.017,257.717 C523.157,257.717 526.877,256.037 529.457,252.977 C530.417,256.037 531.917,257.237 534.737,257.237 C537.437,257.237 540.257,255.497 540.257,253.757 C540.257,253.337 540.017,253.037 539.657,253.037 C539.417,253.037 539.177,253.097 538.757,253.277 C537.917,253.637 537.557,253.697 537.077,253.697 C535.397,253.697 534.797,252.617 534.797,249.557 L534.797,237.497 M529.157,244.817 C529.157,248.417 528.977,249.257 527.957,250.817 C526.457,253.037 523.757,254.537 521.117,254.537 C518.357,254.537 516.377,252.557 516.377,249.857 C516.377,247.337 517.637,245.537 520.277,244.277 C522.137,243.437 524.477,242.837 529.157,242.057 L529.157,244.817 M551.722,228.857 L540.022,229.517 L540.022,232.097 L543.502,232.097 C545.782,232.157 546.082,232.517 546.082,235.097 L546.082,255.437 C546.082,260.297 545.782,262.577 544.942,264.317 C544.342,265.517 542.962,266.417 541.642,266.417 C540.802,266.417 540.142,266.057 540.142,265.637 C540.142,265.397 540.202,265.277 540.442,264.677 C540.742,264.077 540.862,263.657 540.862,263.237 C540.862,261.737 539.422,260.417 537.742,260.417 C535.822,260.417 534.382,261.917 534.382,264.017 C534.382,266.957 537.082,268.937 541.102,268.937 C544.462,268.937 547.522,267.497 549.262,265.037 C551.122,262.397 551.722,259.337 551.722,252.557 L551.722,228.857 M548.902,213.917 C546.982,213.917 545.422,215.477 545.422,217.397 C545.422,219.317 546.982,220.877 548.842,220.877 C550.822,220.877 552.382,219.317 552.382,217.397 C552.382,215.477 550.822,213.917 548.902,213.917 M572.172,227.957 C564.792,227.957 559.092,234.497 559.092,242.897 C559.092,251.117 564.852,257.717 572.052,257.717 C579.252,257.717 585.012,251.117 585.012,242.837 C585.012,234.617 579.252,227.957 572.172,227.957 M572.172,230.537 C576.372,230.537 578.712,234.917 578.712,242.837 C578.712,250.817 576.372,255.137 572.052,255.137 C567.732,255.137 565.392,250.817 565.392,242.897 C565.392,234.737 567.672,230.537 572.172,230.537 M598.932,228.857 L588.312,229.517 L588.312,232.097 L590.772,232.097 C593.052,232.157 593.352,232.517 593.352,235.097 L593.352,249.437 L593.352,252.257 C593.292,253.157 593.232,253.517 592.992,253.817 C592.572,254.357 591.372,254.597 588.792,254.657 L588.552,254.657 L588.552,256.817 L604.572,256.817 L604.572,254.657 L603.492,254.657 C599.472,254.537 598.932,254.237 598.932,252.077 L598.932,249.437 L598.932,248.837 C598.992,238.757 602.592,231.077 607.272,230.837 C606.432,231.797 606.192,232.397 606.192,233.537 C606.192,235.457 607.572,236.837 609.492,236.837 C611.712,236.837 613.152,235.217 613.152,232.817 C613.152,229.877 611.112,227.957 607.932,227.957 C604.152,227.957 600.912,230.957 598.932,236.297 L598.932,228.857 "/>
<polyline class="BarLine" fill="none" stroke="#000000" stroke-width="4.50" stroke-linejoin="bevel" points="249.349,917.677 249.349,1020.43"/>
<polyline class="BarLine" fill="none" stroke="#000000" stroke-width="4.50" stroke-linejoin="bevel" points="1028.27,917.677 1028.27,1020.43"/>
<polyline class="BarLine" fill="none" stroke="#000000" stroke-width="4.50" stroke-linejoin="bevel" points="1593.39,917.677 1593.39,1020.43"/>
<polyline class="BarLine" fill="none" stroke="#000000" stroke-width="4.50" stroke-linejoin="bevel" points="2221.5,917.677 2221.5,1020.43"/>
<polyline class="BarLine" fill="none" stroke="#000000" stroke-width="4.50" stroke-linejoin="bevel" points="2762.38,917.677 2762.38,1020.43"/>
<polyline class="BarLine" fill="none" stroke="#000000" stroke-width="4.50" stroke-linejoin="bevel" points="249.349,1530.22 249.349,1632.97"/>
<polyline class="BarLine" fill="none" stroke="#000000" stroke-width="4.50" stroke-linejoin="bevel" points="1048.92,1530.22 1048.92,1632.97"/>
<polyline class="BarLine" fill="none" stroke="#000000" stroke-width="4.50" stroke-linejoin="bevel" points="1609.34,1530.22 1609.34,1632.97"/>
<polyline class="BarLine" fill="none" stroke="#000000" stroke-width="4.50" stroke-linejoin="bevel" points="2245.67,1530.22 2245.67,1632.97"/>
<polyline class="BarLine" fill="none" stroke="#000000" stroke-width="4.50" stroke-linejoin="bevel" points="2734.88,1530.22 2734.88,1632.97"/>
<polyline class="BarLine" fill="none" stroke="#000000" stroke-width="13.75" stroke-linejoin="bevel" points="2757.76,1530.22 2757.76,1632.97"/>
<polyline class="BarLine" fill="none" stroke="#000000" stroke-width="4.50" stroke-linejoin="bevel" points="249.349,655.161 249.349,919.053"/>
<polyline class="BarLine" fill="none" stroke="#000000" stroke-width="4.50" stroke-linejoin="bevel" points="1028.27,655.161 1028.27,919.053"/>
<polyline class="BarLine" fill="none" stroke="#000000" stroke-width="4.50" stroke-linejoin="bevel" points="1593.39,655.161 1593.39,919.053"/>
<polyline class="BarLine" fill="none" stroke="#000000" stroke-width="4.50" stroke-linejoin="bevel" points="2221.5,655.161 2221.5,919.053"/>
<polyline class="BarLine" fill="none" stroke="#000000" stroke-width="4.50" stroke-linejoin="bevel" points="2762.38,655.161 2762.38,919.053"/>
<polyline class="BarLine" fill="none" stroke="#000000" stroke-width="4.50" stroke-linejoin="bevel" points="249.349,1267.7 249.349,1531.59"/>
<polyline class="BarLine" fill="none" stroke="#000000" stroke-width="4.50" stroke-linejoin="bevel" points="1048.92,1267.7 1048.92,1531.59"/>
<polyline class="BarLine" fill="none" stroke="#000000" stroke-width="4.50" stroke-linejoin="bevel" points="1609.34,1267.7 1609.34,1531.59"/>
<polyline class="BarLine" fill="none" stroke="#000000" stroke-width="4.50" stroke-linejoin="bevel" points="2245.67,1267.7 2245.67,1531.59"/>
<polyline class="BarLine" fill="none" stroke="#000000" stroke-width="4.50" stroke-linejoin="bevel" points="2734.88,1267.7 2734.88,1531.59"/>
<polyline class="BarLine" fill="none" stroke="#000000" stroke-width="13.75" stroke-linejoin="bevel" points="2757.76,1267.7 2757.76,1531.59"/>
<polyline class="LedgerLine" fill="none" stroke="#000000" stroke-width="4.00" stroke-linejoin="bevel" points="1318.33,894.051 1368.33,894.051"/>
<polyline class="LedgerLine" fill="none" stroke="#000000" stroke-width="4.00" stroke-linejoin="bevel" points="1450.36,894.051 1500.35,894.051"/>
<polyline class="LedgerLine" fill="none" stroke="#000000" stroke-width="4.00" stroke-linejoin="bevel" points="1467.49,1656.6 1517.48,1656.6"/>
<polyline class="LedgerLine" fill="none" stroke="#000000" stroke-width="4.00" stroke-linejoin="bevel" points="2083.72,631.534 2133.72,631.534"/>
<polyline class="LedgerLine" fill="none" stroke="#000000" stroke-width="4.00" stroke-linejoin="bevel" points="2256.26,631.534 2306.25,631.534"/>
<polyline class="LedgerLine" fill="none" stroke="#000000" stroke-width="4.00" stroke-linejoin="bevel" points="2393.79,631.534 2443.79,631.534"/>
<polyline class="LedgerLine" fill="none" stroke="#000000" stroke-width="4.00" stroke-linejoin="bevel" points="2393.79,606.533 2443.79,606.533"/>
<polyline class="LedgerLine" fill="none" stroke="#000000" stroke-width="4.00" stroke-linejoin="bevel" points="2531.33,631.534 2581.32,631.534"/>
<polyline class="LedgerLine" fill="none" stroke="#000000" stroke-width="4.00" stroke-linejoin="bevel" points="2531.33,606.533 2581.32,606.533"/>
<polyline class="LedgerLine" fill="none" stroke="#000000" stroke-width="4.00" stroke-linejoin="bevel" points="472.503,1244.07 522.499,1244.07"/>
<polyline class="LedgerLine" fill="none" stroke="#000000" stroke-width="4.00" stroke-linejoin="bevel" points="472.503,1219.07 522.499,1219.07"/>
<polyline class="LedgerLine" fill="none" stroke="#000000" stroke-width="4.00" stroke-linejoin="bevel" points="613.858,1244.07 663.854,1244.07"/>
<polyline class="LedgerLine" fill="none" stroke="#000000" stroke-width="4.00" stroke-linejoin="bevel" points="755.213,1244.07 805.209,1244.07"/>
<polyline class="Stem" fill="none" stroke="#000000" stroke-width="2.75" stroke-linejoin="bevel" points="530.781,972.576 530.781,1047.19"/>
<polyline class="Stem" fill="none" stroke="#000000" stroke-width="2.75" stroke-linejoin="bevel" points="654.934,960.075 654.934,1037.81"/>
<polyline class="Stem" fill="none" stroke="#000000" stroke-width="2.75" stroke-linejoin="bevel" points="779.088,947.574 779.088,1028.43"/>
<polyline class="Stem" fill="none" stroke="#000000" stroke-width="2.75" stroke-linejoin="bevel" points="903.241,935.074 903.241,1019.06"/>
<polyline class="Stem" fill="none" stroke="#000000" stroke-width="2.75" stroke-linejoin="bevel" points="1064.4,922.573 1064.4,1006.56"/>
<polyline class="Stem" fill="none" stroke="#000000" stroke-width="2.75" stroke-linejoin="bevel" points="1196.43,910.072 1196.43,994.057"/>
<polyline class="Stem" fill="none" stroke="#000000" stroke-width="2.75" stroke-linejoin="bevel" points="1328.46,897.571 1328.46,981.556"/>
<polyline class="Stem" fill="none" stroke="#000000" stroke-width="2.75" stroke-linejoin="bevel" points="1460.48,885.07 1460.48,969.056"/>
<polyline class="Stem" fill="none" stroke="#000000" stroke-width="2.75" stroke-linejoin="bevel" points="1743.26,1015.7 1743.26,931.553"/>
<polyline class="Stem" fill="none" stroke="#000000" stroke-width="2.75" stroke-linejoin="bevel" points="1870.04,1003.2 1870.04,919.053"/>
<polyline class="Stem" fill="none" stroke="#000000" stroke-width="2.75" stroke-linejoin="bevel" points="1996.82,990.697 1996.82,909.677"/>
<polyline class="Stem" fill="none" stroke="#000000" stroke-width="2.75" stroke-linejoin="bevel" points="2123.59,978.196 2123.59,900.301"/>
<polyline class="Stem" fill="none" stroke="#000000" stroke-width="2.75" stroke-linejoin="bevel" points="2266.38,972.576 2266.38,1047.19"/>
<polyline class="Stem" fill="none" stroke="#000000" stroke-width="2.75" stroke-linejoin="bevel" points="2403.92,960.075 2403.92,1037.81"/>
<polyline class="Stem" fill="none" stroke="#000000" stroke-width="2.75" stroke-linejoin="bevel" points="2541.45,947.494 2541.45,1028.43"/>
<polyline class="Stem" fill="none" stroke="#000000" stroke-width="2.75" stroke-linejoin="bevel" points="482.629,1572.61 482.629,1650.35"/>
<polyline class="Stem" fill="none" stroke="#000000" stroke-width="2.75" stroke-linejoin="bevel" points="623.984,1585.11 623.984,1659.72"/>
<polyline class="Stem" fill="none" stroke="#000000" stroke-width="2.75" stroke-linejoin="bevel" points="795.083,1590.73 795.083,1512.84"/>
<polyline class="Stem" fill="none" stroke="#000000" stroke-width="2.75" stroke-linejoin="bevel" points="936.438,1603.24 936.438,1522.22"/>
<polyline class="Stem" fill="none" stroke="#000000" stroke-width="2.75" stroke-linejoin="bevel" points="1114.8,1615.74 1114.8,1531.59"/>
<polyline class="Stem" fill="none" stroke="#000000" stroke-width="2.75" stroke-linejoin="bevel" points="1245.65,1628.24 1245.65,1544.09"/>
<polyline class="Stem" fill="none" stroke="#000000" stroke-width="2.75" stroke-linejoin="bevel" points="1376.5,1640.74 1376.5,1556.59"/>
<polyline class="Stem" fill="none" stroke="#000000" stroke-width="2.75" stroke-linejoin="bevel" points="1507.36,1653.24 1507.36,1569.09"/>
<polyline class="Stem" fill="none" stroke="#000000" stroke-width="2.75" stroke-linejoin="bevel" points="1731.88,1522.61 1731.88,1606.6"/>
<polyline class="Stem" fill="none" stroke="#000000" stroke-width="2.75" stroke-linejoin="bevel" points="1860.1,1535.11 1860.1,1619.1"/>
<polyline class="Stem" fill="none" stroke="#000000" stroke-width="2.75" stroke-linejoin="bevel" points="1988.33,1547.61 1988.33,1631.6"/>
<polyline class="Stem" fill="none" stroke="#000000" stroke-width="2.75" stroke-linejoin="bevel" points="2116.56,1560.11 2116.56,1640.97"/>
<polyline class="Stem" fill="none" stroke="#000000" stroke-width="2.75" stroke-linejoin="bevel" points="2281.79,1572.61 2281.79,1650.35"/>
<polyline class="Stem" fill="none" stroke="#000000" stroke-width="2.75" stroke-linejoin="bevel" points="2435.04,1585.03 2435.04,1659.72"/>
<polyline class="Stem" fill="none" stroke="#000000" stroke-width="2.75" stroke-linejoin="bevel" points="560.525,765.683 560.525,681.538"/>
<polyline class="Stem" fill="none" stroke="#000000" stroke-width="2.75" stroke-linejoin="bevel" points="684.678,753.182 684.678,669.037"/>
<polyline class="Stem" fill="none" stroke="#000000" stroke-width="2.75" stroke-linejoin="bevel" points="808.832,740.681 808.832,656.536"/>
<polyline class="Stem" fill="none" stroke="#000000" stroke-width="2.75" stroke-linejoin="bevel" points="932.986,728.181 932.986,647.16"/>
<polyline class="Stem" fill="none" stroke="#000000" stroke-width="2.75" stroke-linejoin="bevel" points="1094.14,715.68 1094.14,637.785"/>
<polyline class="Stem" fill="none" stroke="#000000" stroke-width="2.75" stroke-linejoin="bevel" points="1196.43,710.059 1196.43,784.669"/>
<polyline class="Stem" fill="none" stroke="#000000" stroke-width="2.75" stroke-linejoin="bevel" points="1328.46,697.559 1328.46,775.293"/>
<polyline class="Stem" fill="none" stroke="#000000" stroke-width="2.75" stroke-linejoin="bevel" points="1460.48,685.058 1460.48,765.918"/>
<polyline class="Stem" fill="none" stroke="#000000" stroke-width="2.75" stroke-linejoin="bevel" points="1713.51,672.557 1713.51,756.542"/>
<polyline class="Stem" fill="none" stroke="#000000" stroke-width="2.75" stroke-linejoin="bevel" points="1840.29,660.056 1840.29,744.042"/>
<polyline class="Stem" fill="none" stroke="#000000" stroke-width="2.75" stroke-linejoin="bevel" points="1967.07,647.555 1967.07,731.541"/>
<polyline class="Stem" fill="none" stroke="#000000" stroke-width="2.75" stroke-linejoin="bevel" points="2093.85,635.055 2093.85,719.04"/>
<polyline class="Stem" fill="none" stroke="#000000" stroke-width="2.75" stroke-linejoin="bevel" points="2266.38,622.554 2266.38,706.539"/>
<polyline class="Stem" fill="none" stroke="#000000" stroke-width="2.75" stroke-linejoin="bevel" points="2403.92,610.053 2403.92,706.539"/>
<polyline class="Stem" fill="none" stroke="#000000" stroke-width="2.75" stroke-linejoin="bevel" points="2541.45,597.472 2541.45,706.539"/>
<polyline class="Stem" fill="none" stroke="#000000" stroke-width="2.75" stroke-linejoin="bevel" points="482.629,1222.59 482.629,1319.08"/>
<polyline class="Stem" fill="none" stroke="#000000" stroke-width="2.75" stroke-linejoin="bevel" points="623.984,1235.09 623.984,1319.08"/>
<polyline class="Stem" fill="none" stroke="#000000" stroke-width="2.75" stroke-linejoin="bevel" points="765.339,1247.59 765.339,1331.58"/>
<polyline class="Stem" fill="none" stroke="#000000" stroke-width="2.75" stroke-linejoin="bevel" points="906.694,1260.09 906.694,1344.08"/>
<polyline class="Stem" fill="none" stroke="#000000" stroke-width="2.75" stroke-linejoin="bevel" points="1085.05,1272.59 1085.05,1356.58"/>
<polyline class="Stem" fill="none" stroke="#000000" stroke-width="2.75" stroke-linejoin="bevel" points="1215.91,1285.1 1215.91,1369.08"/>
<polyline class="Stem" fill="none" stroke="#000000" stroke-width="2.75" stroke-linejoin="bevel" points="1346.76,1297.6 1346.76,1378.46"/>
<polyline class="Stem" fill="none" stroke="#000000" stroke-width="2.75" stroke-linejoin="bevel" points="1477.61,1310.1 1477.61,1387.83"/>
<polyline class="Stem" fill="none" stroke="#000000" stroke-width="2.75" stroke-linejoin="bevel" points="1731.88,1322.6 1731.88,1397.21"/>
<polyline class="Stem" fill="none" stroke="#000000" stroke-width="2.75" stroke-linejoin="bevel" points="1889.85,1328.22 1889.85,1250.32"/>
<polyline class="Stem" fill="none" stroke="#000000" stroke-width="2.75" stroke-linejoin="bevel" points="2018.08,1340.72 2018.08,1259.7"/>
<polyline class="Stem" fill="none" stroke="#000000" stroke-width="2.75" stroke-linejoin="bevel" points="2146.31,1353.22 2146.31,1269.07"/>
<polyline class="Stem" fill="none" stroke="#000000" stroke-width="2.75" stroke-linejoin="bevel" points="2311.54,1365.72 2311.54,1281.58"/>
<polyline class="Stem" fill="none" stroke="#000000" stroke-width="2.75" stroke-linejoin="bevel" points="2464.78,1378.14 2464.78,1294.08"/>
<path class="Note" d="M560.905,960.856 C559.405,958.156 556.505,956.456 552.605,956.056 C552.005,955.956 551.505,955.956 550.905,955.956 C547.405,955.956 543.605,956.956 540.105,958.856 C533.505,962.456 529.405,968.356 529.405,973.456 C529.405,974.856 529.605,976.156 530.305,977.356 C531.805,980.056 534.805,981.756 538.705,982.156 C539.305,982.256 539.805,982.256 540.405,982.256 C543.905,982.256 547.605,981.256 551.105,979.356 C557.705,975.756 561.905,969.956 561.905,964.856 C561.905,963.456 561.605,962.056 560.905,960.856"/>
<path class="Note" d="M685.059,948.355 C683.559,945.655 680.659,943.955 676.759,943.555 C676.159,943.455 675.659,943.455 675.059,943.455 C671.559,943.455 667.759,944.455 664.259,946.355 C657.659,949.955 653.559,955.855 653.559,960.955 C653.559,962.355 653.759,963.655 654.459,964.855 C655.959,967.555 658.959,969.255 662.859,969.655 C663.459,969.755 663.959,969.755 664.559,969.755 C668.059,969.755 671.759,968.755 675.259,966.855 C681.859,963.255 686.059,957.455 686.059,952.355 C686.059,950.955 685.759,949.555 685.059,948.355"/>
<path class="Note" d="M809.213,935.854 C807.713,933.154 804.813,931.454 800.913,931.054 C800.313,930.954 799.813,930.954 799.213,930.954 C795.713,930.954 791.913,931.954 788.413,933.854 C781.813,937.454 777.713,943.354 777.713,948.454 C777.713,949.854 777.913,951.154 778.613,952.354 C780.113,955.054 783.113,956.754 787.013,957.154 C787.613,957.254 788.113,957.254 788.713,957.254 C792.213,957.254 795.913,956.254 799.413,954.354 C806.013,950.754 810.213,944.954 810.213,939.854 C810.213,938.454 809.913,937.054 809.213,935.854"/>
<path class="Note" d="M933.366,923.353 C931.866,920.653 928.966,918.953 925.066,918.553 C924.466,918.453 923.966,918.453 923.366,918.453 C919.866,918.453 916.066,919.453 912.566,921.353 C905.966,924.953 901.866,930.853 901.866,935.953 C901.866,937.353 902.066,938.653 902.766,939.853 C904.266,942.553 907.266,944.253 911.166,944.653 C911.766,944.753 912.266,944.753 912.866,944.753 C916.366,944.753 920.066,943.753 923.566,941.853 C930.166,938.253 934.366,932.453 934.366,927.353 C934.366,925.953 934.066,924.553 933.366,923.353"/>
<path class="Note" d="M1094.52,910.853 C1093.02,908.153 1090.12,906.453 1086.22,906.053 C1085.62,905.953 1085.12,905.953 1084.52,905.953 C1081.02,905.953 1077.22,906.953 1073.72,908.853 C1067.12,912.453 1063.02,918.353 1063.02,923.453 C1063.02,924.853 1063.22,926.153 1063.92,927.353 C1065.42,930.053 1068.42,931.753 1072.32,932.153 C1072.92,932.253 1073.42,932.253 1074.02,932.253 C1077.52,932.253 1081.22,931.253 1084.72,929.353 C1091.32,925.753 1095.52,919.953 1095.52,914.853 C1095.52,913.453 1095.22,912.053 1094.52,910.853"/>
<path class="Note" d="M1226.55,898.352 C1225.05,895.652 1222.15,893.952 1218.25,893.552 C1217.65,893.452 1217.15,893.452 1216.55,893.452 C1213.05,893.452 1209.25,894.452 1205.75,896.352 C1199.15,899.952 1195.05,905.852 1195.05,910.952 C1195.05,912.352 1195.25,913.652 1195.95,914.852 C1197.45,917.552 1200.45,919.252 1204.35,919.652 C1204.95,919.752 1205.45,919.752 1206.05,919.752 C1209.55,919.752 1213.25,918.752 1216.75,916.852 C1223.35,913.252 1227.55,907.452 1227.55,902.352 C1227.55,900.952 1227.25,899.552 1226.55,898.352"/>
<path class="Note" d="M1358.58,885.851 C1357.08,883.151 1354.18,881.451 1350.28,881.051 C1349.68,880.951 1349.18,880.951 1348.58,880.951 C1345.08,880.951 1341.28,881.951 1337.78,883.851 C1331.18,887.451 1327.08,893.351 1327.08,898.451 C1327.08,899.851 1327.28,901.151 1327.98,902.351 C1329.48,905.051 1332.48,906.751 1336.38,907.151 C1336.98,907.251 1337.48,907.251 1338.08,907.251 C1341.58,907.251 1345.28,906.251 1348.78,904.351 C1355.38,900.751 1359.58,894.951 1359.58,889.851 C1359.58,888.451 1359.28,887.051 1358.58,885.851"/>
<path class="Note" d="M1490.61,873.35 C1489.11,870.65 1486.21,868.95 1482.31,868.55 C1481.71,868.45 1481.21,868.45 1480.61,868.45 C1477.11,868.45 1473.31,869.45 1469.81,871.35 C1463.21,874.95 1459.11,880.85 1459.11,885.95 C1459.11,887.35 1459.31,888.65 1460.01,889.85 C1461.51,892.55 1464.51,894.25 1468.41,894.65 C1469.01,894.75 1469.51,894.75 1470.11,894.75 C1473.61,894.75 1477.31,893.75 1480.81,891.85 C1487.41,888.25 1491.61,882.45 1491.61,877.35 C1491.61,875.95 1491.31,874.55 1490.61,873.35"/>
<path class="Note" d="M1743.64,1010.86 C1742.14,1008.16 1739.24,1006.46 1735.34,1006.06 C1734.74,1005.96 1734.24,1005.96 1733.64,1005.96 C1730.14,1005.96 1726.34,1006.96 1722.84,1008.86 C1716.24,1012.46 1712.14,1018.36 1712.14,1023.46 C1712.14,1024.86 1712.34,1026.16 1713.04,1027.36 C1714.54,1030.06 1717.54,1031.76 1721.44,1032.16 C1722.04,1032.26 1722.54,1032.26 1723.14,1032.26 C1726.64,1032.26 1730.34,1031.26 1733.84,1029.36 C1740.44,1025.76 1744.64,1019.96 1744.64,1014.86 C1744.64,1013.46 1744.34,1012.06 1743.64,1010.86"/>
<path class="Note" d="M1870.42,998.358 C1868.92,995.658 1866.02,993.958 1862.12,993.558 C1861.52,993.458 1861.02,993.458 1860.42,993.458 C1856.92,993.458 1853.12,994.458 1849.62,996.358 C1843.02,999.958 1838.92,1005.86 1838.92,1010.96 C1838.92,1012.36 1839.12,1013.66 1839.82,1014.86 C1841.32,1017.56 1844.32,1019.26 1848.22,1019.66 C1848.82,1019.76 1849.32,1019.76 1849.92,1019.76 C1853.42,1019.76 1857.12,1018.76 1860.62,1016.86 C1867.22,1013.26 1871.42,1007.46 1871.42,1002.36 C1871.42,1000.96 1871.12,999.558 1870.42,998.358"/>
<path class="Note" d="M1997.2,985.857 C1995.7,983.157 1992.8,981.457 1988.9,981.057 C1988.3,980.957 1987.8,980.957 1987.2,980.957 C1983.7,980.957 1979.9,981.957 1976.4,983.857 C1969.8,987.457 1965.7,993.357 1965.7,998.457 C1965.7,999.857 1965.9,1001.16 1966.6,1002.36 C1968.1,1005.06 1971.1,1006.76 1975,1007.16 C1975.6,1007.26 1976.1,1007.26 1976.7,1007.26 C1980.2,1007.26 1983.9,1006.26 1987.4,1004.36 C1994,1000.76 1998.2,994.957 1998.2,989.857 C1998.2,988.457 1997.9,987.057 1997.2,985.857"/>
<path class="Note" d="M2123.98,973.356 C2122.48,970.656 2119.58,968.956 2115.68,968.556 C2115.08,968.456 2114.58,968.456 2113.98,968.456 C2110.48,968.456 2106.68,969.456 2103.18,971.356 C2096.58,974.956 2092.48,980.856 2092.48,985.956 C2092.48,987.356 2092.68,988.656 2093.38,989.856 C2094.88,992.556 2097.88,994.256 2101.78,994.656 C2102.38,994.756 2102.88,994.756 2103.48,994.756 C2106.98,994.756 2110.68,993.756 2114.18,991.856 C2120.78,988.256 2124.98,982.456 2124.98,977.356 C2124.98,975.956 2124.68,974.556 2123.98,973.356"/>
<path class="Note" d="M2296.51,960.856 C2295.01,958.156 2292.11,956.456 2288.21,956.056 C2287.61,955.956 2287.11,955.956 2286.51,955.956 C2283.01,955.956 2279.21,956.956 2275.71,958.856 C2269.11,962.456 2265.01,968.356 2265.01,973.456 C2265.01,974.856 2265.21,976.156 2265.91,977.356 C2267.41,980.056 2270.41,981.756 2274.31,982.156 C2274.91,982.256 2275.41,982.256 2276.01,982.256 C2279.51,982.256 2283.21,981.256 2286.71,979.356 C2293.31,975.756 2297.51,969.956 2297.51,964.856 C2297.51,963.456 2297.21,962.056 2296.51,960.856"/>
<path class="Note" d="M2434.04,948.355 C2432.54,945.655 2429.64,943.955 2425.74,943.555 C2425.14,943.455 2424.64,943.455 2424.04,943.455 C2420.54,943.455 2416.74,944.455 2413.24,946.355 C2406.64,949.955 2402.54,955.855 2402.54,960.955 C2402.54,962.355 2402.74,963.655 2403.44,964.855 C2404.94,967.555 2407.94,969.255 2411.84,969.655 C2412.44,969.755 2412.94,969.755 2413.54,969.755 C2417.04,969.755 2420.74,968.755 2424.24,966.855 C2430.84,963.255 2435.04,957.455 2435.04,952.355 C2435.04,950.955 2434.74,949.555 2434.04,948.355"/>
<path class="Note" d="M2571.58,935.854 C2570.08,933.154 2567.18,931.454 2563.28,931.054 C2562.68,930.954 2562.18,930.954 2561.58,930.954 C2558.08,930.954 2554.28,931.954 2550.78,933.854 C2544.18,937.454 2540.08,943.254 2540.08,948.354 C2540.08,949.754 2540.48,951.154 2541.18,952.354 C2542.68,955.154 2545.48,956.754 2549.38,957.154 C2549.98,957.254 2550.48,957.254 2551.08,957.254 C2554.58,957.254 2558.38,956.254 2561.88,954.354 C2568.48,950.754 2572.58,944.854 2572.58,939.754 C2572.58,938.354 2572.28,937.054 2571.58,935.854 M2567.38,942.154 C2565.68,943.954 2562.48,946.254 2558.88,948.354 C2555.28,950.454 2551.58,952.154 2549.28,952.854 C2548.78,952.954 2548.18,953.054 2547.68,953.054 C2546.18,953.054 2544.88,952.354 2544.18,951.254 C2543.88,950.654 2543.68,950.054 2543.68,949.454 C2543.68,948.354 2544.18,947.254 2545.28,946.054 C2546.98,944.254 2550.18,941.854 2553.78,939.754 C2557.38,937.654 2561.08,935.954 2563.48,935.354 L2563.68,935.354 C2564.28,935.154 2564.78,935.054 2565.28,935.054 C2566.68,935.054 2567.78,935.654 2568.48,936.954 C2568.78,937.554 2568.98,938.054 2568.98,938.654 C2568.98,939.954 2568.28,941.254 2567.38,942.154"/>
<path class="Note" d="M512.754,1560.89 C511.254,1558.19 508.354,1556.49 504.454,1556.09 C503.854,1555.99 503.354,1555.99 502.754,1555.99 C499.254,1555.99 495.454,1556.99 491.954,1558.89 C485.354,1562.49 481.254,1568.39 481.254,1573.49 C481.254,1574.89 481.454,1576.19 482.154,1577.39 C483.654,1580.09 486.654,1581.79 490.554,1582.19 C491.154,1582.29 491.654,1582.29 492.254,1582.29 C495.754,1582.29 499.454,1581.29 502.954,1579.39 C509.554,1575.79 513.754,1569.99 513.754,1564.89 C513.754,1563.49 513.454,1562.09 512.754,1560.89"/>
<path class="Note" d="M654.109,1573.39 C652.609,1570.69 649.709,1568.99 645.809,1568.59 C645.209,1568.49 644.709,1568.49 644.109,1568.49 C640.609,1568.49 636.809,1569.49 633.309,1571.39 C626.709,1574.99 622.609,1580.89 622.609,1585.99 C622.609,1587.39 622.809,1588.69 623.509,1589.89 C625.009,1592.59 628.009,1594.29 631.909,1594.69 C632.509,1594.79 633.009,1594.79 633.609,1594.79 C637.109,1594.79 640.809,1593.79 644.309,1591.89 C650.909,1588.29 655.109,1582.49 655.109,1577.39 C655.109,1575.99 654.809,1574.59 654.109,1573.39"/>
<path class="Note" d="M795.464,1585.9 C793.964,1583.2 791.064,1581.5 787.164,1581.1 C786.564,1581 786.064,1581 785.464,1581 C781.964,1581 778.164,1582 774.664,1583.9 C768.064,1587.5 763.964,1593.4 763.964,1598.5 C763.964,1599.9 764.164,1601.2 764.864,1602.4 C766.364,1605.1 769.364,1606.8 773.264,1607.2 C773.864,1607.3 774.364,1607.3 774.964,1607.3 C778.464,1607.3 782.164,1606.3 785.664,1604.4 C792.264,1600.8 796.464,1595 796.464,1589.9 C796.464,1588.5 796.164,1587.1 795.464,1585.9"/>
<path class="Note" d="M936.819,1598.4 C935.319,1595.7 932.419,1594 928.519,1593.6 C927.919,1593.5 927.419,1593.5 926.819,1593.5 C923.319,1593.5 919.519,1594.5 916.019,1596.4 C909.419,1600 905.319,1605.9 905.319,1611 C905.319,1612.4 905.519,1613.7 906.219,1614.9 C907.719,1617.6 910.719,1619.3 914.619,1619.7 C915.219,1619.8 915.719,1619.8 916.319,1619.8 C919.819,1619.8 923.519,1618.8 927.019,1616.9 C933.619,1613.3 937.819,1607.5 937.819,1602.4 C937.819,1601 937.519,1599.6 936.819,1598.4"/>
<path class="Note" d="M1115.18,1610.9 C1113.68,1608.2 1110.78,1606.5 1106.88,1606.1 C1106.28,1606 1105.78,1606 1105.18,1606 C1101.68,1606 1097.88,1607 1094.38,1608.9 C1087.78,1612.5 1083.68,1618.4 1083.68,1623.5 C1083.68,1624.9 1083.88,1626.2 1084.58,1627.4 C1086.08,1630.1 1089.08,1631.8 1092.98,1632.2 C1093.58,1632.3 1094.08,1632.3 1094.68,1632.3 C1098.18,1632.3 1101.88,1631.3 1105.38,1629.4 C1111.98,1625.8 1116.18,1620 1116.18,1614.9 C1116.18,1613.5 1115.88,1612.1 1115.18,1610.9"/>
<path class="Note" d="M1246.03,1623.4 C1244.53,1620.7 1241.63,1619 1237.73,1618.6 C1237.13,1618.5 1236.63,1618.5 1236.03,1618.5 C1232.53,1618.5 1228.73,1619.5 1225.23,1621.4 C1218.63,1625 1214.53,1630.9 1214.53,1636 C1214.53,1637.4 1214.73,1638.7 1215.43,1639.9 C1216.93,1642.6 1219.93,1644.3 1223.83,1644.7 C1224.43,1644.8 1224.93,1644.8 1225.53,1644.8 C1229.03,1644.8 1232.73,1643.8 1236.23,1641.9 C1242.83,1638.3 1247.03,1632.5 1247.03,1627.4 C1247.03,1626 1246.73,1624.6 1246.03,1623.4"/>
<path class="Note" d="M1376.89,1635.9 C1375.39,1633.2 1372.49,1631.5 1368.59,1631.1 C1367.99,1631 1367.49,1631 1366.89,1631 C1363.39,1631 1359.59,1632 1356.09,1633.9 C1349.49,1637.5 1345.39,1643.4 1345.39,1648.5 C1345.39,1649.9 1345.59,1651.2 1346.29,1652.4 C1347.79,1655.1 1350.79,1656.8 1354.69,1657.2 C1355.29,1657.3 1355.79,1657.3 1356.39,1657.3 C1359.89,1657.3 1363.59,1656.3 1367.09,1654.4 C1373.69,1650.8 1377.89,1645 1377.89,1639.9 C1377.89,1638.5 1377.59,1637.1 1376.89,1635.9"/>
<path class="Note" d="M1507.74,1648.4 C1506.24,1645.7 1503.34,1644 1499.44,1643.6 C1498.84,1643.5 1498.34,1643.5 1497.74,1643.5 C1494.24,1643.5 1490.44,1644.5 1486.94,1646.4 C1480.34,1650 1476.24,1655.9 1476.24,1661 C1476.24,1662.4 1476.44,1663.7 1477.14,1664.9 C1478.64,1667.6 1481.64,1669.3 1485.54,1669.7 C1486.14,1669.8 1486.64,1669.8 1487.24,1669.8 C1490.74,1669.8 1494.44,1668.8 1497.94,1666.9 C1504.54,1663.3 1508.74,1657.5 1508.74,1652.4 C1508.74,1651 1508.44,1649.6 1507.74,1648.4"/>
<path class="Note" d="M1762,1510.89 C1760.5,1508.19 1757.6,1506.49 1753.7,1506.09 C1753.1,1505.99 1752.6,1505.99 1752,1505.99 C1748.5,1505.99 1744.7,1506.99 1741.2,1508.89 C1734.6,1512.49 1730.5,1518.39 1730.5,1523.49 C1730.5,1524.89 1730.7,1526.19 1731.4,1527.39 C1732.9,1530.09 1735.9,1531.79 1739.8,1532.19 C1740.4,1532.29 1740.9,1532.29 1741.5,1532.29 C1745,1532.29 1748.7,1531.29 1752.2,1529.39 C1758.8,1525.79 1763,1519.99 1763,1514.89 C1763,1513.49 1762.7,1512.09 1762,1510.89"/>
<path class="Note" d="M1890.23,1523.39 C1888.73,1520.69 1885.83,1518.99 1881.93,1518.59 C1881.33,1518.49 1880.83,1518.49 1880.23,1518.49 C1876.73,1518.49 1872.93,1519.49 1869.43,1521.39 C1862.83,1524.99 1858.73,1530.89 1858.73,1535.99 C1858.73,1537.39 1858.93,1538.69 1859.63,1539.89 C1861.13,1542.59 1864.13,1544.29 1868.03,1544.69 C1868.63,1544.79 1869.13,1544.79 1869.73,1544.79 C1873.23,1544.79 1876.93,1543.79 1880.43,1541.89 C1887.03,1538.29 1891.23,1532.49 1891.23,1527.39 C1891.23,1525.99 1890.93,1524.59 1890.23,1523.39"/>
<path class="Note" d="M2018.46,1535.89 C2016.96,1533.19 2014.06,1531.49 2010.16,1531.09 C2009.56,1530.99 2009.06,1530.99 2008.46,1530.99 C2004.96,1530.99 2001.16,1531.99 1997.66,1533.89 C1991.06,1537.49 1986.96,1543.39 1986.96,1548.49 C1986.96,1549.89 1987.16,1551.19 1987.86,1552.39 C1989.36,1555.09 1992.36,1556.79 1996.26,1557.19 C1996.86,1557.29 1997.36,1557.29 1997.96,1557.29 C2001.46,1557.29 2005.16,1556.29 2008.66,1554.39 C2015.26,1550.79 2019.46,1544.99 2019.46,1539.89 C2019.46,1538.49 2019.16,1537.09 2018.46,1535.89"/>
<path class="Note" d="M2146.69,1548.39 C2145.19,1545.69 2142.29,1543.99 2138.39,1543.59 C2137.79,1543.49 2137.29,1543.49 2136.69,1543.49 C2133.19,1543.49 2129.39,1544.49 2125.89,1546.39 C2119.29,1549.99 2115.19,1555.89 2115.19,1560.99 C2115.19,1562.39 2115.39,1563.69 2116.09,1564.89 C2117.59,1567.59 2120.59,1569.29 2124.49,1569.69 C2125.09,1569.79 2125.59,1569.79 2126.19,1569.79 C2129.69,1569.79 2133.39,1568.79 2136.89,1566.89 C2143.49,1563.29 2147.69,1557.49 2147.69,1552.39 C2147.69,1550.99 2147.39,1549.59 2146.69,1548.39"/>
<path class="Note" d="M2311.92,1560.89 C2310.42,1558.19 2307.52,1556.49 2303.62,1556.09 C2303.02,1555.99 2302.52,1555.99 2301.92,1555.99 C2298.42,1555.99 2294.62,1556.99 2291.12,1558.89 C2284.52,1562.49 2280.42,1568.39 2280.42,1573.49 C2280.42,1574.89 2280.62,1576.19 2281.32,1577.39 C2282.82,1580.09 2285.82,1581.79 2289.72,1582.19 C2290.32,1582.29 2290.82,1582.29 2291.42,1582.29 C2294.92,1582.29 2298.62,1581.29 2302.12,1579.39 C2308.72,1575.79 2312.92,1569.99 2312.92,1564.89 C2312.92,1563.49 2312.62,1562.09 2311.92,1560.89"/>
<path class="Note" d="M2465.16,1573.39 C2463.66,1570.69 2460.76,1568.99 2456.86,1568.59 C2456.26,1568.49 2455.76,1568.49 2455.16,1568.49 C2451.66,1568.49 2447.86,1569.49 2444.36,1571.39 C2437.76,1574.99 2433.66,1580.79 2433.66,1585.89 C2433.66,1587.29 2434.06,1588.69 2434.76,1589.89 C2436.26,1592.69 2439.06,1594.29 2442.96,1594.69 C2443.56,1594.79 2444.06,1594.79 2444.66,1594.79 C2448.16,1594.79 2451.96,1593.79 2455.46,1591.89 C2462.06,1588.29 2466.16,1582.39 2466.16,1577.29 C2466.16,1575.89 2465.86,1574.59 2465.16,1573.39 M2460.96,1579.69 C2459.26,1581.49 2456.06,1583.79 2452.46,1585.89 C2448.86,1587.99 2445.16,1589.69 2442.86,1590.39 C2442.36,1590.49 2441.76,1590.59 2441.26,1590.59 C2439.76,1590.59 2438.46,1589.89 2437.76,1588.79 C2437.46,1588.19 2437.26,1587.59 2437.26,1586.99 C2437.26,1585.89 2437.76,1584.79 2438.86,1583.59 C2440.56,1581.79 2443.76,1579.39 2447.36,1577.29 C2450.96,1575.19 2454.66,1573.49 2457.06,1572.89 L2457.26,1572.89 C2457.86,1572.69 2458.36,1572.59 2458.86,1572.59 C2460.26,1572.59 2461.36,1573.19 2462.06,1574.49 C2462.36,1575.09 2462.56,1575.59 2462.56,1576.19 C2462.56,1577.49 2461.86,1578.79 2460.96,1579.69"/>
<path class="Note" d="M560.905,760.843 C559.405,758.143 556.505,756.443 552.605,756.043 C552.005,755.943 551.505,755.943 550.905,755.943 C547.405,755.943 543.605,756.943 540.105,758.843 C533.505,762.443 529.405,768.343 529.405,773.443 C529.405,774.843 529.605,776.143 530.305,777.343 C531.805,780.043 534.805,781.743 538.705,782.143 C539.305,782.243 539.805,782.243 540.405,782.243 C543.905,782.243 547.605,781.243 551.105,779.343 C557.705,775.743 561.905,769.943 561.905,764.843 C561.905,763.443 561.605,762.043 560.905,760.843"/>
<path class="Note" d="M685.059,748.342 C683.559,745.642 680.659,743.942 676.759,743.542 C676.159,743.442 675.659,743.442 675.059,743.442 C671.559,743.442 667.759,744.442 664.259,746.342 C657.659,749.942 653.559,755.842 653.559,760.942 C653.559,762.342 653.759,763.642 654.459,764.842 C655.959,767.542 658.959,769.242 662.859,769.642 C663.459,769.742 663.959,769.742 664.559,769.742 C668.059,769.742 671.759,768.742 675.259,766.842 C681.859,763.242 686.059,757.442 686.059,752.342 C686.059,750.942 685.759,749.542 685.059,748.342"/>
<path class="Note" d="M809.213,735.842 C807.713,733.142 804.813,731.442 800.913,731.042 C800.313,730.942 799.813,730.942 799.213,730.942 C795.713,730.942 791.913,731.942 788.413,733.842 C781.813,737.442 777.713,743.342 777.713,748.442 C777.713,749.842 777.913,751.142 778.613,752.342 C780.113,755.042 783.113,756.742 787.013,757.142 C787.613,757.242 788.113,757.242 788.713,757.242 C792.213,757.242 795.913,756.242 799.413,754.342 C806.013,750.742 810.213,744.942 810.213,739.842 C810.213,738.442 809.913,737.042 809.213,735.842"/>
<path class="Note" d="M933.366,723.341 C931.866,720.641 928.966,718.941 925.066,718.541 C924.466,718.441 923.966,718.441 923.366,718.441 C919.866,718.441 916.066,719.441 912.566,721.341 C905.966,724.941 901.866,730.841 901.866,735.941 C901.866,737.341 902.066,738.641 902.766,739.841 C904.266,742.541 907.266,744.241 911.166,744.641 C911.766,744.741 912.266,744.741 912.866,744.741 C916.366,744.741 920.066,743.741 923.566,741.841 C930.166,738.241 934.366,732.441 934.366,727.341 C934.366,725.941 934.066,724.541 933.366,723.341"/>
<path class="Note" d="M1094.52,710.84 C1093.02,708.14 1090.12,706.44 1086.22,706.04 C1085.62,705.94 1085.12,705.94 1084.52,705.94 C1081.02,705.94 1077.22,706.94 1073.72,708.84 C1067.12,712.44 1063.02,718.34 1063.02,723.44 C1063.02,724.84 1063.22,726.14 1063.92,727.34 C1065.42,730.04 1068.42,731.74 1072.32,732.14 C1072.92,732.24 1073.42,732.24 1074.02,732.24 C1077.52,732.24 1081.22,731.24 1084.72,729.34 C1091.32,725.74 1095.52,719.94 1095.52,714.84 C1095.52,713.44 1095.22,712.04 1094.52,710.84"/>
<path class="Note" d="M1226.55,698.339 C1225.05,695.639 1222.15,693.939 1218.25,693.539 C1217.65,693.439 1217.15,693.439 1216.55,693.439 C1213.05,693.439 1209.25,694.439 1205.75,696.339 C1199.15,699.939 1195.05,705.839 1195.05,710.939 C1195.05,712.339 1195.25,713.639 1195.95,714.839 C1197.45,717.539 1200.45,719.239 1204.35,719.639 C1204.95,719.739 1205.45,719.739 1206.05,719.739 C1209.55,719.739 1213.25,718.739 1216.75,716.839 C1223.35,713.239 1227.55,707.439 1227.55,702.339 C1227.55,700.939 1227.25,699.539 1226.55,698.339"/>
<path class="Note" d="M1358.58,685.838 C1357.08,683.138 1354.18,681.438 1350.28,681.038 C1349.68,680.938 1349.18,680.938 1348.58,680.938 C1345.08,680.938 1341.28,681.938 1337.78,683.838 C1331.18,687.438 1327.08,693.338 1327.08,698.438 C1327.08,699.838 1327.28,701.138 1327.98,702.338 C1329.48,705.038 1332.48,706.738 1336.38,707.138 C1336.98,707.238 1337.48,707.238 1338.08,707.238 C1341.58,707.238 1345.28,706.238 1348.78,704.338 C1355.38,700.738 1359.58,694.938 1359.58,689.838 C1359.58,688.438 1359.28,687.038 1358.58,685.838"/>
<path class="Note" d="M1490.61,673.338 C1489.11,670.638 1486.21,668.938 1482.31,668.538 C1481.71,668.438 1481.21,668.438 1480.61,668.438 C1477.11,668.438 1473.31,669.438 1469.81,671.338 C1463.21,674.938 1459.11,680.838 1459.11,685.938 C1459.11,687.338 1459.31,688.638 1460.01,689.838 C1461.51,692.538 1464.51,694.238 1468.41,694.638 C1469.01,694.738 1469.51,694.738 1470.11,694.738 C1473.61,694.738 1477.31,693.738 1480.81,691.838 C1487.41,688.238 1491.61,682.438 1491.61,677.338 C1491.61,675.938 1491.31,674.538 1490.61,673.338"/>
<path class="Note" d="M1743.64,660.837 C1742.14,658.137 1739.24,656.437 1735.34,656.037 C1734.74,655.937 1734.24,655.937 1733.64,655.937 C1730.14,655.937 1726.34,656.937 1722.84,658.837 C1716.24,662.437 1712.14,668.337 1712.14,673.437 C1712.14,674.837 1712.34,676.137 1713.04,677.337 C1714.54,680.037 1717.54,681.737 1721.44,682.137 C1722.04,682.237 1722.54,682.237 1723.14,682.237 C1726.64,682.237 1730.34,681.237 1733.84,679.337 C1740.44,675.737 1744.64,669.937 1744.64,664.837 C1744.64,663.437 1744.34,662.037 1743.64,660.837"/>
<path class="Note" d="M1870.42,648.336 C1868.92,645.636 1866.02,643.936 1862.12,643.536 C1861.52,643.436 1861.02,643.436 1860.42,643.436 C1856.92,643.436 1853.12,644.436 1849.62,646.336 C1843.02,649.936 1838.92,655.836 1838.92,660.936 C1838.92,662.336 1839.12,663.636 1839.82,664.836 C1841.32,667.536 1844.32,669.236 1848.22,669.636 C1848.82,669.736 1849.32,669.736 1849.92,669.736 C1853.42,669.736 1857.12,668.736 1860.62,666.836 C1867.22,663.236 1871.42,657.436 1871.42,652.336 C1871.42,650.936 1871.12,649.536 1870.42,648.336"/>
<path class="Note" d="M1997.2,635.835 C1995.7,633.135 1992.8,631.435 1988.9,631.035 C1988.3,630.935 1987.8,630.935 1987.2,630.935 C1983.7,630.935 1979.9,631.935 1976.4,633.835 C1969.8,637.435 1965.7,643.335 1965.7,648.435 C1965.7,649.835 1965.9,651.135 1966.6,652.335 C1968.1,655.035 1971.1,656.735 1975,657.135 C1975.6,657.235 1976.1,657.235 1976.7,657.235 C1980.2,657.235 1983.9,656.235 1987.4,654.335 C1994,650.735 1998.2,644.935 1998.2,639.835 C1998.2,638.435 1997.9,637.035 1997.2,635.835"/>
<path class="Note" d="M2123.98,623.334 C2122.48,620.634 2119.58,618.934 2115.68,618.534 C2115.08,618.434 2114.58,618.434 2113.98,618.434 C2110.48,618.434 2106.68,619.434 2103.18,621.334 C2096.58,624.934 2092.48,630.834 2092.48,635.934 C2092.48,637.334 2092.68,638.634 2093.38,639.834 C2094.88,642.534 2097.88,644.234 2101.78,644.634 C2102.38,644.734 2102.88,644.734 2103.48,644.734 C2106.98,644.734 2110.68,643.734 2114.18,641.834 C2120.78,638.234 2124.98,632.434 2124.98,627.334 C2124.98,625.934 2124.68,624.534 2123.98,623.334"/>
<path class="Note" d="M2296.51,610.834 C2295.01,608.134 2292.11,606.434 2288.21,606.034 C2287.61,605.934 2287.11,605.934 2286.51,605.934 C2283.01,605.934 2279.21,606.934 2275.71,608.834 C2269.11,612.434 2265.01,618.334 2265.01,623.434 C2265.01,624.834 2265.21,626.134 2265.91,627.334 C2267.41,630.034 2270.41,631.734 2274.31,632.134 C2274.91,632.234 2275.41,632.234 2276.01,632.234 C2279.51,632.234 2283.21,631.234 2286.71,629.334 C2293.31,625.734 2297.51,619.934 2297.51,614.834 C2297.51,613.434 2297.21,612.034 2296.51,610.834"/>
<path class="Note" d="M2434.04,598.333 C2432.54,595.633 2429.64,593.933 2425.74,593.533 C2425.14,593.433 2424.64,593.433 2424.04,593.433 C2420.54,593.433 2416.74,594.433 2413.24,596.333 C2406.64,599.933 2402.54,605.833 2402.54,610.933 C2402.54,612.333 2402.74,613.633 2403.44,614.833 C2404.94,617.533 2407.94,619.233 2411.84,619.633 C2412.44,619.733 2412.94,619.733 2413.54,619.733 C2417.04,619.733 2420.74,618.733 2424.24,616.833 C2430.84,613.233 2435.04,607.433 2435.04,602.333 C2435.04,600.933 2434.74,599.533 2434.04,598.333"/>
<path class="Note" d="M2571.58,585.832 C2570.08,583.132 2567.18,581.432 2563.28,581.032 C2562.68,580.932 2562.18,580.932 2561.58,580.932 C2558.08,580.932 2554.28,581.932 2550.78,583.832 C2544.18,587.432 2540.08,593.232 2540.08,598.332 C2540.08,599.732 2540.48,601.132 2541.18,602.332 C2542.68,605.132 2545.48,606.732 2549.38,607.132 C2549.98,607.232 2550.48,607.232 2551.08,607.232 C2554.58,607.232 2558.38,606.232 2561.88,604.332 C2568.48,600.732 2572.58,594.832 2572.58,589.732 C2572.58,588.332 2572.28,587.032 2571.58,585.832 M2567.38,592.132 C2565.68,593.932 2562.48,596.232 2558.88,598.332 C2555.28,600.432 2551.58,602.132 2549.28,602.832 C2548.78,602.932 2548.18,603.032 2547.68,603.032 C2546.18,603.032 2544.88,602.332 2544.18,601.232 C2543.88,600.632 2543.68,600.032 2543.68,599.432 C2543.68,598.332 2544.18,597.232 2545.28,596.032 C2546.98,594.232 2550.18,591.832 2553.78,589.732 C2557.38,587.632 2561.08,585.932 2563.48,585.332 L2563.68,585.332 C2564.28,585.132 2564.78,585.032 2565.28,585.032 C2566.68,585.032 2567.78,585.632 2568.48,586.932 C2568.78,587.532 2568.98,588.032 2568.98,588.632 C2568.98,589.932 2568.28,591.232 2567.38,592.132"/>
<path class="Note" d="M512.754,1210.87 C511.254,1208.17 508.354,1206.47 504.454,1206.07 C503.854,1205.97 503.354,1205.97 502.754,1205.97 C499.254,1205.97 495.454,1206.97 491.954,1208.87 C485.354,1212.47 481.254,1218.37 481.254,1223.47 C481.254,1224.87 481.454,1226.17 482.154,1227.37 C483.654,1230.07 486.654,1231.77 490.554,1232.17 C491.154,1232.27 491.654,1232.27 492.254,1232.27 C495.754,1232.27 499.454,1231.27 502.954,1229.37 C509.554,1225.77 513.754,1219.97 513.754,1214.87 C513.754,1213.47 513.454,1212.07 512.754,1210.87"/>
<path class="Note" d="M654.109,1223.37 C652.609,1220.67 649.709,1218.97 645.809,1218.57 C645.209,1218.47 644.709,1218.47 644.109,1218.47 C640.609,1218.47 636.809,1219.47 633.309,1221.37 C626.709,1224.97 622.609,1230.87 622.609,1235.97 C622.609,1237.37 622.809,1238.67 623.509,1239.87 C625.009,1242.57 628.009,1244.27 631.909,1244.67 C632.509,1244.77 633.009,1244.77 633.609,1244.77 C637.109,1244.77 640.809,1243.77 644.309,1241.87 C650.909,1238.27 655.109,1232.47 655.109,1227.37 C655.109,1225.97 654.809,1224.57 654.109,1223.37"/>
<path class="Note" d="M795.464,1235.87 C793.964,1233.17 791.064,1231.47 787.164,1231.07 C786.564,1230.97 786.064,1230.97 785.464,1230.97 C781.964,1230.97 778.164,1231.97 774.664,1233.87 C768.064,1237.47 763.964,1243.37 763.964,1248.47 C763.964,1249.87 764.164,1251.17 764.864,1252.37 C766.364,1255.07 769.364,1256.77 773.264,1257.17 C773.864,1257.27 774.364,1257.27 774.964,1257.27 C778.464,1257.27 782.164,1256.27 785.664,1254.37 C792.264,1250.77 796.464,1244.97 796.464,1239.87 C796.464,1238.47 796.164,1237.07 795.464,1235.87"/>
<path class="Note" d="M936.819,1248.37 C935.319,1245.67 932.419,1243.97 928.519,1243.57 C927.919,1243.47 927.419,1243.47 926.819,1243.47 C923.319,1243.47 919.519,1244.47 916.019,1246.37 C909.419,1249.97 905.319,1255.87 905.319,1260.97 C905.319,1262.37 905.519,1263.67 906.219,1264.87 C907.719,1267.57 910.719,1269.27 914.619,1269.67 C915.219,1269.77 915.719,1269.77 916.319,1269.77 C919.819,1269.77 923.519,1268.77 927.019,1266.87 C933.619,1263.27 937.819,1257.47 937.819,1252.37 C937.819,1250.97 937.519,1249.57 936.819,1248.37"/>
<path class="Note" d="M1115.18,1260.87 C1113.68,1258.17 1110.78,1256.47 1106.88,1256.07 C1106.28,1255.97 1105.78,1255.97 1105.18,1255.97 C1101.68,1255.97 1097.88,1256.97 1094.38,1258.87 C1087.78,1262.47 1083.68,1268.37 1083.68,1273.47 C1083.68,1274.87 1083.88,1276.17 1084.58,1277.37 C1086.08,1280.07 1089.08,1281.77 1092.98,1282.17 C1093.58,1282.27 1094.08,1282.27 1094.68,1282.27 C1098.18,1282.27 1101.88,1281.27 1105.38,1279.37 C1111.98,1275.77 1116.18,1269.97 1116.18,1264.87 C1116.18,1263.47 1115.88,1262.07 1115.18,1260.87"/>
<path class="Note" d="M1246.03,1273.38 C1244.53,1270.68 1241.63,1268.98 1237.73,1268.58 C1237.13,1268.48 1236.63,1268.48 1236.03,1268.48 C1232.53,1268.48 1228.73,1269.48 1225.23,1271.38 C1218.63,1274.98 1214.53,1280.88 1214.53,1285.98 C1214.53,1287.38 1214.73,1288.68 1215.43,1289.88 C1216.93,1292.58 1219.93,1294.28 1223.83,1294.68 C1224.43,1294.78 1224.93,1294.78 1225.53,1294.78 C1229.03,1294.78 1232.73,1293.78 1236.23,1291.88 C1242.83,1288.28 1247.03,1282.48 1247.03,1277.38 C1247.03,1275.98 1246.73,1274.58 1246.03,1273.38"/>
<path class="Note" d="M1376.89,1285.88 C1375.39,1283.18 1372.49,1281.48 1368.59,1281.08 C1367.99,1280.98 1367.49,1280.98 1366.89,1280.98 C1363.39,1280.98 1359.59,1281.98 1356.09,1283.88 C1349.49,1287.48 1345.39,1293.38 1345.39,1298.48 C1345.39,1299.88 1345.59,1301.18 1346.29,1302.38 C1347.79,1305.08 1350.79,1306.78 1354.69,1307.18 C1355.29,1307.28 1355.79,1307.28 1356.39,1307.28 C1359.89,1307.28 1363.59,1306.28 1367.09,1304.38 C1373.69,1300.78 1377.89,1294.98 1377.89,1289.88 C1377.89,1288.48 1377.59,1287.08 1376.89,1285.88"/>
<path class="Note" d="M1507.74,1298.38 C1506.24,1295.68 1503.34,1293.98 1499.44,1293.58 C1498.84,1293.48 1498.34,1293.48 1497.74,1293.48 C1494.24,1293.48 1490.44,1294.48 1486.94,1296.38 C1480.34,1299.98 1476.24,1305.88 1476.24,1310.98 C1476.24,1312.38 1476.44,1313.68 1477.14,1314.88 C1478.64,1317.58 1481.64,1319.28 1485.54,1319.68 C1486.14,1319.78 1486.64,1319.78 1487.24,1319.78 C1490.74,1319.78 1494.44,1318.78 1497.94,1316.88 C1504.54,1313.28 1508.74,1307.48 1508.74,1302.38 C1508.74,1300.98 1508.44,1299.58 1507.74,1298.38"/>
<path class="Note" d="M1762,1310.88 C1760.5,1308.18 1757.6,1306.48 1753.7,1306.08 C1753.1,1305.98 1752.6,1305.98 1752,1305.98 C1748.5,1305.98 1744.7,1306.98 1741.2,1308.88 C1734.6,1312.48 1730.5,1318.38 1730.5,1323.48 C1730.5,1324.88 1730.7,1326.18 1731.4,1327.38 C1732.9,1330.08 1735.9,1331.78 1739.8,1332.18 C1740.4,1332.28 1740.9,1332.28 1741.5,1332.28 C1745,1332.28 1748.7,1331.28 1752.2,1329.38 C1758.8,1325.78 1763,1319.98 1763,1314.88 C1763,1313.48 1762.7,1312.08 1762,1310.88"/>
<path class="Note" d="M1890.23,1323.38 C1888.73,1320.68 1885.83,1318.98 1881.93,1318.58 C1881.33,1318.48 1880.83,1318.48 1880.23,1318.48 C1876.73,1318.48 1872.93,1319.48 1869.43,1321.38 C1862.83,1324.98 1858.73,1330.88 1858.73,1335.98 C1858.73,1337.38 1858.93,1338.68 1859.63,1339.88 C1861.13,1342.58 1864.13,1344.28 1868.03,1344.68 C1868.63,1344.78 1869.13,1344.78 1869.73,1344.78 C1873.23,1344.78 1876.93,1343.78 1880.43,1341.88 C1887.03,1338.28 1891.23,1332.48 1891.23,1327.38 C1891.23,1325.98 1890.93,1324.58 1890.23,1323.38"/>
<path class="Note" d="M2018.46,1335.88 C2016.96,1333.18 2014.06,1331.48 2010.16,1331.08 C2009.56,1330.98 2009.06,1330.98 2008.46,1330.98 C2004.96,1330.98 2001.16,1331.98 1997.66,1333.88 C1991.06,1337.48 1986.96,1343.38 1986.96,1348.48 C1986.96,1349.88 1987.16,1351.18 1987.86,1352.38 C1989.36,1355.08 1992.36,1356.78 1996.26,1357.18 C1996.86,1357.28 1997.36,1357.28 1997.96,1357.28 C2001.46,1357.28 2005.16,1356.28 2008.66,1354.38 C2015.26,1350.78 2019.46,1344.98 2019.46,1339.88 C2019.46,1338.48 2019.16,1337.08 2018.46,1335.88"/>
<path class="Note" d="M2146.69,1348.38 C2145.19,1345.68 2142.29,1343.98 2138.39,1343.58 C2137.79,1343.48 2137.29,1343.48 2136.69,1343.48 C2133.19,1343.48 2129.39,1344.48 2125.89,1346.38 C2119.29,1349.98 2115.19,1355.88 2115.19,1360.98 C2115.19,1362.38 2115.39,1363.68 2116.09,1364.88 C2117.59,1367.58 2120.59,1369.28 2124.49,1369.68 C2125.09,1369.78 2125.59,1369.78 2126.19,1369.78 C2129.69,1369.78 2133.39,1368.78 2136.89,1366.88 C2143.49,1363.28 2147.69,1357.48 2147.69,1352.38 C2147.69,1350.98 2147.39,1349.58 2146.69,1348.38"/>
<path class="Note" d="M2311.92,1360.88 C2310.42,1358.18 2307.52,1356.48 2303.62,1356.08 C2303.02,1355.98 2302.52,1355.98 2301.92,1355.98 C2298.42,1355.98 2294.62,1356.98 2291.12,1358.88 C2284.52,1362.48 2280.42,1368.38 2280.42,1373.48 C2280.42,1374.88 2280.62,1376.18 2281.32,1377.38 C2282.82,1380.08 2285.82,1381.78 2289.72,1382.18 C2290.32,1382.28 2290.82,1382.28 2291.42,1382.28 C2294.92,1382.28 2298.62,1381.28 2302.12,1379.38 C2308.72,1375.78 2312.92,1369.98 2312.92,1364.88 C2312.92,1363.48 2312.62,1362.08 2311.92,1360.88"/>
<path class="Note" d="M2465.16,1373.38 C2463.66,1370.68 2460.76,1368.98 2456.86,1368.58 C2456.26,1368.48 2455.76,1368.48 2455.16,1368.48 C2451.66,1368.48 2447.86,1369.48 2444.36,1371.38 C2437.76,1374.98 2433.66,1380.78 2433.66,1385.88 C2433.66,1387.28 2434.06,1388.68 2434.76,1389.88 C2436.26,1392.68 2439.06,1394.28 2442.96,1394.68 C2443.56,1394.78 2444.06,1394.78 2444.66,1394.78 C2448.16,1394.78 2451.96,1393.78 2455.46,1391.88 C2462.06,1388.28 2466.16,1382.38 2466.16,1377.28 C2466.16,1375.88 2465.86,1374.58 2465.16,1373.38 M2460.96,1379.68 C2459.26,1381.48 2456.06,1383.78 2452.46,1385.88 C2448.86,1387.98 2445.16,1389.68 2442.86,1390.38 C2442.36,1390.48 2441.76,1390.58 2441.26,1390.58 C2439.76,1390.58 2438.46,1389.88 2437.76,1388.78 C2437.46,1388.18 2437.26,1387.58 2437.26,1386.98 C2437.26,1385.88 2437.76,1384.78 2438.86,1383.58 C2440.56,1381.78 2443.76,1379.38 2447.36,1377.28 C2450.96,1375.18 2454.66,1373.48 2457.06,1372.88 L2457.26,1372.88 C2457.86,1372.68 2458.36,1372.58 2458.86,1372.58 C2460.26,1372.58 2461.36,1373.18 2462.06,1374.48 C2462.36,1375.08 2462.56,1375.58 2462.56,1376.18 C2462.56,1377.48 2461.86,1378.78 2460.96,1379.68"/>
<path class="Clef" d="M297,918.954 C289.4,918.954 283.3,923.354 283.2,923.354 C277.4,927.654 275.1,932.754 274.2,936.254 C273.7,938.054 273.5,939.854 273.5,941.554 C273.5,943.954 273.9,946.154 274.8,948.054 C276,950.754 278.3,952.654 281.3,953.654 C282.5,954.054 283.8,954.254 285.1,954.254 C287.3,954.254 289.6,953.654 291.5,952.554 C294.6,950.854 296.5,947.254 296.5,943.354 C296.5,939.854 294.7,936.654 291.7,934.754 C289.6,933.354 287.6,932.954 285.9,932.954 C284.7,932.954 283.6,933.154 282.7,933.454 C281.7,933.854 280,934.854 279.2,935.554 C279.5,933.654 280.7,930.754 281.8,929.154 C282.9,927.554 285.1,925.554 286.8,924.654 C289.3,923.254 292.5,922.654 296,922.654 C306.2,922.654 311.2,930.854 311.2,947.654 C311.2,956.954 307.7,965.854 304.7,971.754 C301.4,978.354 297,984.654 293.1,988.154 C282.7,997.654 272.9,1002.15 272.8,1002.15 C272.8,1002.15 271.3,1003.05 271.7,1004.55 C272,1005.55 272.9,1005.75 273.5,1005.75 C273.6,1005.75 273.9,1005.65 274,1005.65 C274.1,1005.65 285.5,1000.95 294.6,993.854 C299.7,990.154 304.3,986.154 308.3,981.854 C311.9,977.954 315,973.754 317.5,969.554 C321.9,962.054 324.4,954.254 324.4,947.554 C324.4,939.254 322.2,932.354 318.1,927.454 C313.4,921.854 306.3,918.954 297,918.954 M328.4,931.654 C328.4,934.454 330.6,936.654 333.2,936.654 C335.8,936.654 338,934.454 338,931.654 C338,928.854 335.8,926.554 333.2,926.554 C330.6,926.554 328.4,928.854 328.4,931.654 M328.4,956.354 C328.4,959.154 330.6,961.454 333.2,961.454 C335.8,961.454 338,959.154 338,956.354 C338,953.554 335.8,951.254 333.2,951.254 C330.6,951.254 328.4,953.554 328.4,956.354"/>
<path class="Clef" d="M1679.04,988.157 C1677.84,982.757 1675.14,978.857 1674.34,977.857 C1671.14,973.557 1667.14,970.757 1662.44,969.357 C1660.14,968.657 1658.04,968.457 1656.04,968.457 C1655.34,968.457 1654.64,968.457 1653.94,968.557 C1652.94,962.557 1651.84,956.657 1650.94,951.257 C1656.54,945.057 1660.24,939.157 1662.64,934.757 C1666.24,928.057 1667.64,923.357 1667.74,923.157 C1668.94,920.157 1669.64,916.357 1669.64,911.857 C1669.64,909.157 1669.34,906.257 1668.94,903.257 C1667.84,896.157 1665.64,889.457 1663.14,885.757 C1661.84,883.857 1660.64,882.757 1659.44,882.757 C1658.24,882.757 1655.74,883.957 1652.84,886.757 C1650.54,888.957 1647.24,892.857 1644.64,898.857 C1642.34,904.257 1641.64,911.157 1641.64,917.057 C1641.64,918.857 1641.74,920.557 1641.84,922.157 C1642.04,925.757 1642.74,931.557 1643.34,935.157 C1643.34,935.257 1643.64,936.757 1644.04,939.357 L1643.34,940.057 C1642.34,941.057 1641.14,942.157 1639.74,943.557 C1638.84,944.457 1637.94,945.257 1636.94,946.257 C1628.44,954.457 1615.64,966.857 1615.64,985.957 C1615.64,990.657 1616.54,995.057 1618.34,999.057 C1619.94,1002.66 1622.24,1005.96 1625.14,1008.86 C1632.64,1016.26 1642.84,1019.46 1649.94,1019.46 L1650.54,1019.46 C1653.44,1019.36 1656.14,1019.06 1658.54,1018.66 C1660.34,1028.26 1661.54,1035.36 1661.54,1040.66 C1661.54,1047.16 1659.94,1051.06 1656.04,1053.86 C1653.64,1055.56 1650.74,1056.66 1647.64,1056.76 L1646.84,1056.76 C1645.34,1056.76 1642.84,1056.36 1641.34,1055.96 C1641.34,1055.96 1641.04,1055.86 1641.04,1055.66 C1641.04,1055.46 1641.44,1055.46 1641.44,1055.46 C1643.34,1055.06 1646.94,1053.76 1649.34,1050.46 C1650.44,1048.96 1651.14,1046.66 1651.14,1044.16 C1651.14,1042.56 1650.84,1040.86 1650.14,1039.36 C1649.04,1036.96 1646.44,1033.96 1640.84,1033.56 L1639.74,1033.56 C1637.64,1033.56 1635.84,1034.06 1634.14,1035.06 C1632.34,1036.16 1630.74,1037.86 1629.74,1039.86 C1628.64,1041.86 1628.14,1044.06 1628.14,1046.26 C1628.14,1049.16 1629.04,1051.86 1630.84,1054.06 C1633.84,1057.66 1638.54,1059.96 1643.94,1060.56 C1644.64,1060.66 1645.74,1060.76 1646.44,1060.76 C1650.84,1060.76 1655.24,1059.56 1658.84,1057.36 C1662.54,1054.76 1664.64,1050.76 1665.34,1045.16 C1665.54,1043.86 1665.54,1042.46 1665.54,1040.96 C1665.54,1037.06 1665.04,1032.36 1664.04,1026.56 C1663.64,1024.46 1663.24,1021.46 1662.54,1017.66 C1668.34,1015.76 1672.44,1012.06 1676.24,1006.26 C1678.54,1002.26 1679.64,998.157 1679.64,993.857 C1679.64,991.957 1679.44,990.057 1679.04,988.157 M1648.84,910.257 C1650.64,904.557 1653.34,901.157 1655.34,899.457 C1657.14,897.957 1658.74,897.257 1659.64,897.257 C1659.74,897.257 1659.94,897.357 1660.04,897.357 C1660.34,897.457 1660.74,897.957 1661.14,898.657 C1662.04,900.457 1662.94,903.757 1662.94,907.457 C1662.94,909.357 1662.74,911.357 1662.14,913.157 C1659.94,919.957 1655.34,927.257 1648.34,934.957 C1648.14,933.857 1647.94,932.857 1647.84,931.857 C1647.34,928.657 1647.04,925.457 1647.04,922.557 C1647.04,918.057 1647.64,913.957 1648.84,910.257 M1644.84,1014.36 C1640.24,1013.16 1635.74,1010.66 1631.94,1007.16 C1630.64,1005.96 1628.84,1003.76 1627.34,1000.36 C1626.04,997.357 1625.34,994.257 1625.34,990.857 L1625.34,990.157 C1625.44,985.457 1626.74,980.657 1629.24,975.857 C1632.14,970.257 1636.64,964.757 1642.74,959.457 C1644.24,958.157 1645.64,956.857 1646.94,955.557 C1647.74,959.857 1648.44,964.557 1649.34,969.457 C1645.44,970.757 1640.74,973.757 1637.64,979.457 C1635.24,983.957 1634.54,987.857 1634.54,991.057 C1634.54,992.557 1634.74,993.957 1634.94,995.057 C1635.84,999.557 1638.44,1003.26 1641.94,1005.36 C1642.74,1005.86 1646.04,1007.56 1648.04,1007.56 C1648.34,1007.56 1648.64,1007.56 1648.84,1007.46 C1649.14,1007.36 1649.44,1007.16 1649.54,1006.86 C1649.64,1006.66 1649.64,1006.46 1649.64,1006.26 C1649.64,1005.46 1648.84,1004.86 1647.54,1004.06 C1646.94,1003.66 1646.24,1003.26 1645.54,1002.76 C1642.94,1000.76 1641.44,997.657 1641.44,994.257 C1641.44,993.257 1641.64,992.357 1641.84,991.357 C1642.34,989.357 1644.04,986.557 1645.54,985.157 C1647.24,983.657 1649.24,982.457 1651.64,981.857 C1653.64,993.057 1655.74,1004.16 1657.34,1012.56 C1657.44,1013.26 1657.64,1013.96 1657.74,1014.66 C1655.74,1015.06 1653.74,1015.26 1651.84,1015.26 C1649.44,1015.26 1647.14,1014.96 1644.84,1014.36 M1670.54,1004.16 C1669.34,1007.36 1666.84,1011.36 1661.74,1013.46 C1661.64,1013.06 1661.64,1012.56 1661.54,1012.16 C1660.04,1003.36 1658.14,992.457 1656.14,981.157 L1657.14,981.157 C1666.84,981.157 1670.74,988.357 1671.64,992.957 C1671.84,993.857 1671.94,995.057 1671.94,996.357 C1671.94,998.657 1671.54,1001.46 1670.54,1004.16"/>
<path class="Clef" d="M335,1600.7 C333.8,1595.3 331.1,1591.4 330.3,1590.4 C327.1,1586.1 323.1,1583.3 318.4,1581.9 C316.1,1581.2 314,1581 312,1581 C311.3,1581 310.6,1581 309.9,1581.1 C308.9,1575.1 307.8,1569.2 306.9,1563.8 C312.5,1557.6 316.2,1551.7 318.6,1547.3 C322.2,1540.6 323.6,1535.9 323.7,1535.7 C324.9,1532.7 325.6,1528.9 325.6,1524.4 C325.6,1521.7 325.3,1518.8 324.9,1515.8 C323.8,1508.7 321.6,1502 319.1,1498.3 C317.8,1496.4 316.6,1495.3 315.4,1495.3 C314.2,1495.3 311.7,1496.5 308.8,1499.3 C306.5,1501.5 303.2,1505.4 300.6,1511.4 C298.3,1516.8 297.6,1523.7 297.6,1529.6 C297.6,1531.4 297.7,1533.1 297.8,1534.7 C298,1538.3 298.7,1544.1 299.3,1547.7 C299.3,1547.8 299.6,1549.3 300,1551.9 L299.3,1552.6 C298.3,1553.6 297.1,1554.7 295.7,1556.1 C294.8,1557 293.9,1557.8 292.9,1558.8 C284.4,1567 271.6,1579.4 271.6,1598.5 C271.6,1603.2 272.5,1607.6 274.3,1611.6 C275.9,1615.2 278.2,1618.5 281.1,1621.4 C288.6,1628.8 298.8,1632 305.9,1632 L306.5,1632 C309.4,1631.9 312.1,1631.6 314.5,1631.2 C316.3,1640.8 317.5,1647.9 317.5,1653.2 C317.5,1659.7 315.9,1663.6 312,1666.4 C309.6,1668.1 306.7,1669.2 303.6,1669.3 L302.8,1669.3 C301.3,1669.3 298.8,1668.9 297.3,1668.5 C297.3,1668.5 297,1668.4 297,1668.2 C297,1668 297.4,1668 297.4,1668 C299.3,1667.6 302.9,1666.3 305.3,1663 C306.4,1661.5 307.1,1659.2 307.1,1656.7 C307.1,1655.1 306.8,1653.4 306.1,1651.9 C305,1649.5 302.4,1646.5 296.8,1646.1 L295.7,1646.1 C293.6,1646.1 291.8,1646.6 290.1,1647.6 C288.3,1648.7 286.7,1650.4 285.7,1652.4 C284.6,1654.4 284.1,1656.6 284.1,1658.8 C284.1,1661.7 285,1664.4 286.8,1666.6 C289.8,1670.2 294.5,1672.5 299.9,1673.1 C300.6,1673.2 301.7,1673.3 302.4,1673.3 C306.8,1673.3 311.2,1672.1 314.8,1669.9 C318.5,1667.3 320.6,1663.3 321.3,1657.7 C321.5,1656.4 321.5,1655 321.5,1653.5 C321.5,1649.6 321,1644.9 320,1639.1 C319.6,1637 319.2,1634 318.5,1630.2 C324.3,1628.3 328.4,1624.6 332.2,1618.8 C334.5,1614.8 335.6,1610.7 335.6,1606.4 C335.6,1604.5 335.4,1602.6 335,1600.7 M304.8,1522.8 C306.6,1517.1 309.3,1513.7 311.3,1512 C313.1,1510.5 314.7,1509.8 315.6,1509.8 C315.7,1509.8 315.9,1509.9 316,1509.9 C316.3,1510 316.7,1510.5 317.1,1511.2 C318,1513 318.9,1516.3 318.9,1520 C318.9,1521.9 318.7,1523.9 318.1,1525.7 C315.9,1532.5 311.3,1539.8 304.3,1547.5 C304.1,1546.4 303.9,1545.4 303.8,1544.4 C303.3,1541.2 303,1538 303,1535.1 C303,1530.6 303.6,1526.5 304.8,1522.8 M300.8,1626.9 C296.2,1625.7 291.7,1623.2 287.9,1619.7 C286.6,1618.5 284.8,1616.3 283.3,1612.9 C282,1609.9 281.3,1606.8 281.3,1603.4 L281.3,1602.7 C281.4,1598 282.7,1593.2 285.2,1588.4 C288.1,1582.8 292.6,1577.3 298.7,1572 C300.2,1570.7 301.6,1569.4 302.9,1568.1 C303.7,1572.4 304.4,1577.1 305.3,1582 C301.4,1583.3 296.7,1586.3 293.6,1592 C291.2,1596.5 290.5,1600.4 290.5,1603.6 C290.5,1605.1 290.7,1606.5 290.9,1607.6 C291.8,1612.1 294.4,1615.8 297.9,1617.9 C298.7,1618.4 302,1620.1 304,1620.1 C304.3,1620.1 304.6,1620.1 304.8,1620 C305.1,1619.9 305.4,1619.7 305.5,1619.4 C305.6,1619.2 305.6,1619 305.6,1618.8 C305.6,1618 304.8,1617.4 303.5,1616.6 C302.9,1616.2 302.2,1615.8 301.5,1615.3 C298.9,1613.3 297.4,1610.2 297.4,1606.8 C297.4,1605.8 297.6,1604.9 297.8,1603.9 C298.3,1601.9 300,1599.1 301.5,1597.7 C303.2,1596.2 305.2,1595 307.6,1594.4 C309.6,1605.6 311.7,1616.7 313.3,1625.1 C313.4,1625.8 313.6,1626.5 313.7,1627.2 C311.7,1627.6 309.7,1627.8 307.8,1627.8 C305.4,1627.8 303.1,1627.5 300.8,1626.9 M326.5,1616.7 C325.3,1619.9 322.8,1623.9 317.7,1626 C317.6,1625.6 317.6,1625.1 317.5,1624.7 C316,1615.9 314.1,1605 312.1,1593.7 L313.1,1593.7 C322.8,1593.7 326.7,1600.9 327.6,1605.5 C327.8,1606.4 327.9,1607.6 327.9,1608.9 C327.9,1611.2 327.5,1614 326.5,1616.7"/>
<path class="Clef" d="M1657,1531.49 C1649.4,1531.49 1643.3,1535.89 1643.2,1535.89 C1637.4,1540.19 1635.1,1545.29 1634.2,1548.79 C1633.7,1550.59 1633.5,1552.39 1633.5,1554.09 C1633.5,1556.49 1633.9,1558.69 1634.8,1560.59 C1636,1563.29 1638.3,1565.19 1641.3,1566.19 C1642.5,1566.59 1643.8,1566.79 1645.1,1566.79 C1647.3,1566.79 1649.6,1566.19 1651.5,1565.09 C1654.6,1563.39 1656.5,1559.79 1656.5,1555.89 C1656.5,1552.39 1654.7,1549.19 1651.7,1547.29 C1649.6,1545.89 1647.6,1545.49 1645.9,1545.49 C1644.7,1545.49 1643.6,1545.69 1642.7,1545.99 C1641.7,1546.39 1640,1547.39 1639.2,1548.09 C1639.5,1546.19 1640.7,1543.29 1641.8,1541.69 C1642.9,1540.09 1645.1,1538.09 1646.8,1537.19 C1649.3,1535.79 1652.5,1535.19 1656,1535.19 C1666.2,1535.19 1671.2,1543.39 1671.2,1560.19 C1671.2,1569.49 1667.7,1578.39 1664.7,1584.29 C1661.4,1590.89 1657,1597.19 1653.1,1600.69 C1642.7,1610.19 1632.9,1614.69 1632.8,1614.69 C1632.8,1614.69 1631.3,1615.59 1631.7,1617.09 C1632,1618.09 1632.9,1618.29 1633.5,1618.29 C1633.6,1618.29 1633.9,1618.19 1634,1618.19 C1634.1,1618.19 1645.5,1613.49 1654.6,1606.39 C1659.7,1602.69 1664.3,1598.69 1668.3,1594.39 C1671.9,1590.49 1675,1586.29 1677.5,1582.09 C1681.9,1574.59 1684.4,1566.79 1684.4,1560.09 C1684.4,1551.79 1682.2,1544.89 1678.1,1539.99 C1673.4,1534.39 1666.3,1531.49 1657,1531.49 M1688.4,1544.19 C1688.4,1546.99 1690.6,1549.19 1693.2,1549.19 C1695.8,1549.19 1698,1546.99 1698,1544.19 C1698,1541.39 1695.8,1539.09 1693.2,1539.09 C1690.6,1539.09 1688.4,1541.39 1688.4,1544.19 M1688.4,1568.89 C1688.4,1571.69 1690.6,1573.99 1693.2,1573.99 C1695.8,1573.99 1698,1571.69 1698,1568.89 C1698,1566.09 1695.8,1563.79 1693.2,1563.79 C1690.6,1563.79 1688.4,1566.09 1688.4,1568.89"/>
<path class="Clef" d="M335,725.641 C333.8,720.241 331.1,716.341 330.3,715.341 C327.1,711.041 323.1,708.241 318.4,706.841 C316.1,706.141 314,705.941 312,705.941 C311.3,705.941 310.6,705.941 309.9,706.041 C308.9,700.041 307.8,694.141 306.9,688.741 C312.5,682.541 316.2,676.641 318.6,672.241 C322.2,665.541 323.6,660.841 323.7,660.641 C324.9,657.641 325.6,653.841 325.6,649.341 C325.6,646.641 325.3,643.741 324.9,640.741 C323.8,633.641 321.6,626.941 319.1,623.241 C317.8,621.341 316.6,620.241 315.4,620.241 C314.2,620.241 311.7,621.441 308.8,624.241 C306.5,626.441 303.2,630.341 300.6,636.341 C298.3,641.741 297.6,648.641 297.6,654.541 C297.6,656.341 297.7,658.041 297.8,659.641 C298,663.241 298.7,669.041 299.3,672.641 C299.3,672.741 299.6,674.241 300,676.841 L299.3,677.541 C298.3,678.541 297.1,679.641 295.7,681.041 C294.8,681.941 293.9,682.741 292.9,683.741 C284.4,691.941 271.6,704.341 271.6,723.441 C271.6,728.141 272.5,732.541 274.3,736.541 C275.9,740.141 278.2,743.441 281.1,746.341 C288.6,753.741 298.8,756.941 305.9,756.941 L306.5,756.941 C309.4,756.841 312.1,756.541 314.5,756.141 C316.3,765.741 317.5,772.841 317.5,778.141 C317.5,784.641 315.9,788.541 312,791.341 C309.6,793.041 306.7,794.141 303.6,794.241 L302.8,794.241 C301.3,794.241 298.8,793.841 297.3,793.441 C297.3,793.441 297,793.341 297,793.141 C297,792.941 297.4,792.941 297.4,792.941 C299.3,792.541 302.9,791.241 305.3,787.941 C306.4,786.441 307.1,784.141 307.1,781.641 C307.1,780.041 306.8,778.341 306.1,776.841 C305,774.441 302.4,771.441 296.8,771.041 L295.7,771.041 C293.6,771.041 291.8,771.541 290.1,772.541 C288.3,773.641 286.7,775.341 285.7,777.341 C284.6,779.341 284.1,781.541 284.1,783.741 C284.1,786.641 285,789.341 286.8,791.541 C289.8,795.141 294.5,797.441 299.9,798.041 C300.6,798.141 301.7,798.241 302.4,798.241 C306.8,798.241 311.2,797.041 314.8,794.841 C318.5,792.241 320.6,788.241 321.3,782.641 C321.5,781.341 321.5,779.941 321.5,778.441 C321.5,774.541 321,769.841 320,764.041 C319.6,761.941 319.2,758.941 318.5,755.141 C324.3,753.241 328.4,749.541 332.2,743.741 C334.5,739.741 335.6,735.641 335.6,731.341 C335.6,729.441 335.4,727.541 335,725.641 M304.8,647.741 C306.6,642.041 309.3,638.641 311.3,636.941 C313.1,635.441 314.7,634.741 315.6,634.741 C315.7,634.741 315.9,634.841 316,634.841 C316.3,634.941 316.7,635.441 317.1,636.141 C318,637.941 318.9,641.241 318.9,644.941 C318.9,646.841 318.7,648.841 318.1,650.641 C315.9,657.441 311.3,664.741 304.3,672.441 C304.1,671.341 303.9,670.341 303.8,669.341 C303.3,666.141 303,662.941 303,660.041 C303,655.541 303.6,651.441 304.8,647.741 M300.8,751.841 C296.2,750.641 291.7,748.141 287.9,744.641 C286.6,743.441 284.8,741.241 283.3,737.841 C282,734.841 281.3,731.741 281.3,728.341 L281.3,727.641 C281.4,722.941 282.7,718.141 285.2,713.341 C288.1,707.741 292.6,702.241 298.7,696.941 C300.2,695.641 301.6,694.341 302.9,693.041 C303.7,697.341 304.4,702.041 305.3,706.941 C301.4,708.241 296.7,711.241 293.6,716.941 C291.2,721.441 290.5,725.341 290.5,728.541 C290.5,730.041 290.7,731.441 290.9,732.541 C291.8,737.041 294.4,740.741 297.9,742.841 C298.7,743.341 302,745.041 304,745.041 C304.3,745.041 304.6,745.041 304.8,744.941 C305.1,744.841 305.4,744.641 305.5,744.341 C305.6,744.141 305.6,743.941 305.6,743.741 C305.6,742.941 304.8,742.341 303.5,741.541 C302.9,741.141 302.2,740.741 301.5,740.241 C298.9,738.241 297.4,735.141 297.4,731.741 C297.4,730.741 297.6,729.841 297.8,728.841 C298.3,726.841 300,724.041 301.5,722.641 C303.2,721.141 305.2,719.941 307.6,719.341 C309.6,730.541 311.7,741.641 313.3,750.041 C313.4,750.741 313.6,751.441 313.7,752.141 C311.7,752.541 309.7,752.741 307.8,752.741 C305.4,752.741 303.1,752.441 300.8,751.841 M326.5,741.641 C325.3,744.841 322.8,748.841 317.7,750.941 C317.6,750.541 317.6,750.041 317.5,749.641 C316,740.841 314.1,729.941 312.1,718.641 L313.1,718.641 C322.8,718.641 326.7,725.841 327.6,730.441 C327.8,731.341 327.9,732.541 327.9,733.841 C327.9,736.141 327.5,738.941 326.5,741.641"/>
<path class="Clef" d="M335,1338.18 C333.8,1332.78 331.1,1328.88 330.3,1327.88 C327.1,1323.58 323.1,1320.78 318.4,1319.38 C316.1,1318.68 314,1318.48 312,1318.48 C311.3,1318.48 310.6,1318.48 309.9,1318.58 C308.9,1312.58 307.8,1306.68 306.9,1301.28 C312.5,1295.08 316.2,1289.18 318.6,1284.78 C322.2,1278.08 323.6,1273.38 323.7,1273.18 C324.9,1270.18 325.6,1266.38 325.6,1261.88 C325.6,1259.18 325.3,1256.28 324.9,1253.28 C323.8,1246.18 321.6,1239.48 319.1,1235.78 C317.8,1233.88 316.6,1232.78 315.4,1232.78 C314.2,1232.78 311.7,1233.98 308.8,1236.78 C306.5,1238.98 303.2,1242.88 300.6,1248.88 C298.3,1254.28 297.6,1261.18 297.6,1267.08 C297.6,1268.88 297.7,1270.58 297.8,1272.18 C298,1275.78 298.7,1281.58 299.3,1285.18 C299.3,1285.28 299.6,1286.78 300,1289.38 L299.3,1290.08 C298.3,1291.08 297.1,1292.18 295.7,1293.58 C294.8,1294.48 293.9,1295.28 292.9,1296.28 C284.4,1304.48 271.6,1316.88 271.6,1335.98 C271.6,1340.68 272.5,1345.08 274.3,1349.08 C275.9,1352.68 278.2,1355.98 281.1,1358.88 C288.6,1366.28 298.8,1369.48 305.9,1369.48 L306.5,1369.48 C309.4,1369.38 312.1,1369.08 314.5,1368.68 C316.3,1378.28 317.5,1385.38 317.5,1390.68 C317.5,1397.18 315.9,1401.08 312,1403.88 C309.6,1405.58 306.7,1406.68 303.6,1406.78 L302.8,1406.78 C301.3,1406.78 298.8,1406.38 297.3,1405.98 C297.3,1405.98 297,1405.88 297,1405.68 C297,1405.48 297.4,1405.48 297.4,1405.48 C299.3,1405.08 302.9,1403.78 305.3,1400.48 C306.4,1398.98 307.1,1396.68 307.1,1394.18 C307.1,1392.58 306.8,1390.88 306.1,1389.38 C305,1386.98 302.4,1383.98 296.8,1383.58 L295.7,1383.58 C293.6,1383.58 291.8,1384.08 290.1,1385.08 C288.3,1386.18 286.7,1387.88 285.7,1389.88 C284.6,1391.88 284.1,1394.08 284.1,1396.28 C284.1,1399.18 285,1401.88 286.8,1404.08 C289.8,1407.68 294.5,1409.98 299.9,1410.58 C300.6,1410.68 301.7,1410.78 302.4,1410.78 C306.8,1410.78 311.2,1409.58 314.8,1407.38 C318.5,1404.78 320.6,1400.78 321.3,1395.18 C321.5,1393.88 321.5,1392.48 321.5,1390.98 C321.5,1387.08 321,1382.38 320,1376.58 C319.6,1374.48 319.2,1371.48 318.5,1367.68 C324.3,1365.78 328.4,1362.08 332.2,1356.28 C334.5,1352.28 335.6,1348.18 335.6,1343.88 C335.6,1341.98 335.4,1340.08 335,1338.18 M304.8,1260.28 C306.6,1254.58 309.3,1251.18 311.3,1249.48 C313.1,1247.98 314.7,1247.28 315.6,1247.28 C315.7,1247.28 315.9,1247.38 316,1247.38 C316.3,1247.48 316.7,1247.98 317.1,1248.68 C318,1250.48 318.9,1253.78 318.9,1257.48 C318.9,1259.38 318.7,1261.38 318.1,1263.18 C315.9,1269.98 311.3,1277.28 304.3,1284.98 C304.1,1283.88 303.9,1282.88 303.8,1281.88 C303.3,1278.68 303,1275.48 303,1272.58 C303,1268.08 303.6,1263.98 304.8,1260.28 M300.8,1364.38 C296.2,1363.18 291.7,1360.68 287.9,1357.18 C286.6,1355.98 284.8,1353.78 283.3,1350.38 C282,1347.38 281.3,1344.28 281.3,1340.88 L281.3,1340.18 C281.4,1335.48 282.7,1330.68 285.2,1325.88 C288.1,1320.28 292.6,1314.78 298.7,1309.48 C300.2,1308.18 301.6,1306.88 302.9,1305.58 C303.7,1309.88 304.4,1314.58 305.3,1319.48 C301.4,1320.78 296.7,1323.78 293.6,1329.48 C291.2,1333.98 290.5,1337.88 290.5,1341.08 C290.5,1342.58 290.7,1343.98 290.9,1345.08 C291.8,1349.58 294.4,1353.28 297.9,1355.38 C298.7,1355.88 302,1357.58 304,1357.58 C304.3,1357.58 304.6,1357.58 304.8,1357.48 C305.1,1357.38 305.4,1357.18 305.5,1356.88 C305.6,1356.68 305.6,1356.48 305.6,1356.28 C305.6,1355.48 304.8,1354.88 303.5,1354.08 C302.9,1353.68 302.2,1353.28 301.5,1352.78 C298.9,1350.78 297.4,1347.68 297.4,1344.28 C297.4,1343.28 297.6,1342.38 297.8,1341.38 C298.3,1339.38 300,1336.58 301.5,1335.18 C303.2,1333.68 305.2,1332.48 307.6,1331.88 C309.6,1343.08 311.7,1354.18 313.3,1362.58 C313.4,1363.28 313.6,1363.98 313.7,1364.68 C311.7,1365.08 309.7,1365.28 307.8,1365.28 C305.4,1365.28 303.1,1364.98 300.8,1364.38 M326.5,1354.18 C325.3,1357.38 322.8,1361.38 317.7,1363.48 C317.6,1363.08 317.6,1362.58 317.5,1362.18 C316,1353.38 314.1,1342.48 312.1,1331.18 L313.1,1331.18 C322.8,1331.18 326.7,1338.38 327.6,1342.98 C327.8,1343.88 327.9,1345.08 327.9,1346.38 C327.9,1348.68 327.5,1351.48 326.5,1354.18"/>
<path class="KeySig" d="M411.306,970.956 C411.906,970.856 412.406,970.156 412.406,969.556 L412.406,963.656 C412.406,962.856 411.806,962.256 411.006,962.256 L410.806,962.256 L407.506,962.956 L407.506,948.056 L404.706,948.056 L404.706,963.556 L395.806,965.356 L395.806,951.256 L393.006,951.256 L393.006,965.956 L389.106,966.756 C388.506,966.856 388.006,967.556 388.006,968.156 L388.006,968.356 L388.006,974.156 L388.006,973.956 C388.006,974.756 388.606,975.356 389.406,975.356 L389.706,975.356 L393.006,974.656 L393.006,991.156 L389.106,991.956 C388.506,992.056 388.006,992.756 388.006,993.356 L388.006,999.156 C388.006,999.956 388.606,1000.56 389.406,1000.56 L389.706,1000.56 L393.006,999.856 L393.006,1014.76 L395.806,1014.76 L395.806,999.256 L404.706,997.456 L404.706,1011.56 L407.506,1011.56 L407.506,996.856 L411.306,996.156 C411.906,996.056 412.406,995.356 412.406,994.756 L412.406,988.856 C412.406,988.056 411.806,987.456 411.006,987.456 L410.806,987.456 L407.506,988.156 L407.506,971.656 L411.306,970.956 M395.806,990.656 L395.806,974.056 L404.706,972.256 L404.706,988.756 L395.806,990.656 "/>
<path class="KeySig" d="M386.304,933.454 C386.904,933.354 387.404,932.654 387.404,932.054 L387.404,926.154 C387.404,925.354 386.804,924.754 386.004,924.754 L385.804,924.754 L382.504,925.454 L382.504,910.554 L379.704,910.554 L379.704,926.054 L370.804,927.854 L370.804,913.754 L368.004,913.754 L368.004,928.454 L364.104,929.254 C363.504,929.354 363.004,930.054 363.004,930.654 L363.004,930.854 L363.004,936.654 L363.004,936.454 C363.004,937.254 363.604,937.854 364.404,937.854 L364.704,937.854 L368.004,937.154 L368.004,953.654 L364.104,954.454 C363.504,954.554 363.004,955.254 363.004,955.854 L363.004,961.654 C363.004,962.454 363.604,963.054 364.404,963.054 L364.704,963.054 L368.004,962.354 L368.004,977.254 L370.804,977.254 L370.804,961.754 L379.704,959.954 L379.704,974.054 L382.504,974.054 L382.504,959.354 L386.304,958.654 C386.904,958.554 387.404,957.854 387.404,957.254 L387.404,951.354 C387.404,950.554 386.804,949.954 386.004,949.954 L385.804,949.954 L382.504,950.654 L382.504,934.154 L386.304,933.454 M370.804,953.154 L370.804,936.554 L379.704,934.754 L379.704,951.254 L370.804,953.154 "/>
<path class="KeySig" d="M408.899,1558.49 C409.499,1558.39 409.999,1557.69 409.999,1557.09 L409.999,1551.19 C409.999,1550.39 409.399,1549.79 408.599,1549.79 L408.399,1549.79 L405.099,1550.49 L405.099,1535.59 L402.299,1535.59 L402.299,1551.09 L393.399,1552.89 L393.399,1538.79 L390.599,1538.79 L390.599,1553.49 L386.699,1554.29 C386.099,1554.39 385.599,1555.09 385.599,1555.69 L385.599,1555.89 L385.599,1561.69 L385.599,1561.49 C385.599,1562.29 386.199,1562.89 386.999,1562.89 L387.299,1562.89 L390.599,1562.19 L390.599,1578.69 L386.699,1579.49 C386.099,1579.59 385.599,1580.29 385.599,1580.89 L385.599,1586.69 C385.599,1587.49 386.199,1588.09 386.999,1588.09 L387.299,1588.09 L390.599,1587.39 L390.599,1602.29 L393.399,1602.29 L393.399,1586.79 L402.299,1584.99 L402.299,1599.09 L405.099,1599.09 L405.099,1584.39 L408.899,1583.69 C409.499,1583.59 409.999,1582.89 409.999,1582.29 L409.999,1576.39 C409.999,1575.59 409.399,1574.99 408.599,1574.99 L408.399,1574.99 L405.099,1575.69 L405.099,1559.19 L408.899,1558.49 M393.399,1578.19 L393.399,1561.59 L402.299,1559.79 L402.299,1576.29 L393.399,1578.19 "/>
<path class="KeySig" d="M383.898,1520.99 C384.498,1520.89 384.998,1520.19 384.998,1519.59 L384.998,1513.69 C384.998,1512.89 384.398,1512.29 383.598,1512.29 L383.398,1512.29 L380.098,1512.99 L380.098,1498.09 L377.298,1498.09 L377.298,1513.59 L368.398,1515.39 L368.398,1501.29 L365.598,1501.29 L365.598,1515.99 L361.698,1516.79 C361.098,1516.89 360.598,1517.59 360.598,1518.19 L360.598,1518.39 L360.598,1524.19 L360.598,1523.99 C360.598,1524.79 361.198,1525.39 361.998,1525.39 L362.298,1525.39 L365.598,1524.69 L365.598,1541.19 L361.698,1541.99 C361.098,1542.09 360.598,1542.79 360.598,1543.39 L360.598,1549.19 C360.598,1549.99 361.198,1550.59 361.998,1550.59 L362.298,1550.59 L365.598,1549.89 L365.598,1564.79 L368.398,1564.79 L368.398,1549.29 L377.298,1547.49 L377.298,1561.59 L380.098,1561.59 L380.098,1546.89 L383.898,1546.19 C384.498,1546.09 384.998,1545.39 384.998,1544.79 L384.998,1538.89 C384.998,1538.09 384.398,1537.49 383.598,1537.49 L383.398,1537.49 L380.098,1538.19 L380.098,1521.69 L383.898,1520.99 M368.398,1540.69 L368.398,1524.09 L377.298,1522.29 L377.298,1538.79 L368.398,1540.69 "/>
<path class="KeySig" d="M411.306,683.438 C411.906,683.338 412.406,682.638 412.406,682.038 L412.406,676.138 C412.406,675.338 411.806,674.738 411.006,674.738 L410.806,674.738 L407.506,675.438 L407.506,660.538 L404.706,660.538 L404.706,676.038 L395.806,677.838 L395.806,663.738 L393.006,663.738 L393.006,678.438 L389.106,679.238 C388.506,679.338 388.006,680.038 388.006,680.638 L388.006,680.838 L388.006,686.638 L388.006,686.438 C388.006,687.238 388.606,687.838 389.406,687.838 L389.706,687.838 L393.006,687.138 L393.006,703.638 L389.106,704.438 C388.506,704.538 388.006,705.238 388.006,705.838 L388.006,711.638 C388.006,712.438 388.606,713.038 389.406,713.038 L389.706,713.038 L393.006,712.338 L393.006,727.238 L395.806,727.238 L395.806,711.738 L404.706,709.938 L404.706,724.038 L407.506,724.038 L407.506,709.338 L411.306,708.638 C411.906,708.538 412.406,707.838 412.406,707.238 L412.406,701.338 C412.406,700.538 411.806,699.938 411.006,699.938 L410.806,699.938 L407.506,700.638 L407.506,684.138 L411.306,683.438 M395.806,703.138 L395.806,686.538 L404.706,684.738 L404.706,701.238 L395.806,703.138 "/>
<path class="KeySig" d="M386.304,645.936 C386.904,645.836 387.404,645.136 387.404,644.536 L387.404,638.636 C387.404,637.836 386.804,637.236 386.004,637.236 L385.804,637.236 L382.504,637.936 L382.504,623.036 L379.704,623.036 L379.704,638.536 L370.804,640.336 L370.804,626.236 L368.004,626.236 L368.004,640.936 L364.104,641.736 C363.504,641.836 363.004,642.536 363.004,643.136 L363.004,643.336 L363.004,649.136 L363.004,648.936 C363.004,649.736 363.604,650.336 364.404,650.336 L364.704,650.336 L368.004,649.636 L368.004,666.136 L364.104,666.936 C363.504,667.036 363.004,667.736 363.004,668.336 L363.004,674.136 C363.004,674.936 363.604,675.536 364.404,675.536 L364.704,675.536 L368.004,674.836 L368.004,689.736 L370.804,689.736 L370.804,674.236 L379.704,672.436 L379.704,686.536 L382.504,686.536 L382.504,671.836 L386.304,671.136 C386.904,671.036 387.404,670.336 387.404,669.736 L387.404,663.836 C387.404,663.036 386.804,662.436 386.004,662.436 L385.804,662.436 L382.504,663.136 L382.504,646.636 L386.304,645.936 M370.804,665.636 L370.804,649.036 L379.704,647.236 L379.704,663.736 L370.804,665.636 "/>
<path class="KeySig" d="M408.899,1295.98 C409.499,1295.88 409.999,1295.18 409.999,1294.58 L409.999,1288.68 C409.999,1287.88 409.399,1287.28 408.599,1287.28 L408.399,1287.28 L405.099,1287.98 L405.099,1273.08 L402.299,1273.08 L402.299,1288.58 L393.399,1290.38 L393.399,1276.28 L390.599,1276.28 L390.599,1290.98 L386.699,1291.78 C386.099,1291.88 385.599,1292.58 385.599,1293.18 L385.599,1293.38 L385.599,1299.18 L385.599,1298.98 C385.599,1299.78 386.199,1300.38 386.999,1300.38 L387.299,1300.38 L390.599,1299.68 L390.599,1316.18 L386.699,1316.98 C386.099,1317.08 385.599,1317.78 385.599,1318.38 L385.599,1324.18 C385.599,1324.98 386.199,1325.58 386.999,1325.58 L387.299,1325.58 L390.599,1324.88 L390.599,1339.78 L393.399,1339.78 L393.399,1324.28 L402.299,1322.48 L402.299,1336.58 L405.099,1336.58 L405.099,1321.88 L408.899,1321.18 C409.499,1321.08 409.999,1320.38 409.999,1319.78 L409.999,1313.88 C409.999,1313.08 409.399,1312.48 408.599,1312.48 L408.399,1312.48 L405.099,1313.18 L405.099,1296.68 L408.899,1295.98 M393.399,1315.68 L393.399,1299.08 L402.299,1297.28 L402.299,1313.78 L393.399,1315.68 "/>
<path class="KeySig" d="M383.898,1258.47 C384.498,1258.37 384.998,1257.67 384.998,1257.07 L384.998,1251.17 C384.998,1250.37 384.398,1249.77 383.598,1249.77 L383.398,1249.77 L380.098,1250.47 L380.098,1235.57 L377.298,1235.57 L377.298,1251.07 L368.398,1252.87 L368.398,1238.77 L365.598,1238.77 L365.598,1253.47 L361.698,1254.27 C361.098,1254.37 360.598,1255.07 360.598,1255.67 L360.598,1255.87 L360.598,1261.67 L360.598,1261.47 C360.598,1262.27 361.198,1262.87 361.998,1262.87 L362.298,1262.87 L365.598,1262.17 L365.598,1278.67 L361.698,1279.47 C361.098,1279.57 360.598,1280.27 360.598,1280.87 L360.598,1286.67 C360.598,1287.47 361.198,1288.07 361.998,1288.07 L362.298,1288.07 L365.598,1287.37 L365.598,1302.27 L368.398,1302.27 L368.398,1286.77 L377.298,1284.97 L377.298,1299.07 L380.098,1299.07 L380.098,1284.37 L383.898,1283.67 C384.498,1283.57 384.998,1282.87 384.998,1282.27 L384.998,1276.37 C384.998,1275.57 384.398,1274.97 383.598,1274.97 L383.398,1274.97 L380.098,1275.67 L380.098,1259.17 L383.898,1258.47 M368.398,1278.17 L368.398,1261.57 L377.298,1259.77 L377.298,1276.27 L368.398,1278.17 "/>
<path class="TimeSig" d="M439.603,957.453 L456.403,957.453 L456.403,964.753 L448.303,964.753 C447.503,964.753 446.903,965.353 446.903,966.153 L446.903,968.053 C446.903,968.853 447.503,969.353 448.303,969.353 L478.003,969.353 C478.803,969.353 479.403,968.853 479.403,968.053 L479.403,966.153 C479.403,965.353 478.803,964.753 478.003,964.753 L469.203,964.753 L469.203,957.453 L478.003,957.453 C478.803,957.453 479.403,956.853 479.403,956.053 L479.403,954.253 C479.403,953.453 478.803,952.853 478.003,952.853 L469.203,952.853 L469.203,937.153 C469.203,936.653 468.803,936.153 468.403,935.953 L467.303,935.353 C467.103,935.253 466.803,935.253 466.603,935.253 C466.303,935.253 465.903,935.353 465.703,935.553 L456.803,943.753 C456.603,943.953 456.403,944.453 456.403,944.753 L456.403,952.853 L445.103,952.853 C445.103,952.853 456.003,941.053 467.603,925.553 C468.403,924.453 468.003,923.453 467.803,923.253 L465.703,921.053 C465.503,920.853 465.003,920.653 464.703,920.653 L450.103,920.653 C449.403,920.653 448.903,921.253 448.803,921.853 C448.803,921.853 448.303,929.053 445.703,937.053 C443.103,945.053 440.303,949.853 437.703,953.453 C437.703,953.453 437.203,954.453 437.503,955.153 C437.803,955.853 438.503,956.953 438.503,956.953 C438.503,956.953 438.803,957.453 439.603,957.453"/>
<path class="TimeSig" d="M439.603,1006.06 L456.403,1006.06 L456.403,1013.36 L448.303,1013.36 C447.503,1013.36 446.903,1013.96 446.903,1014.76 L446.903,1016.66 C446.903,1017.46 447.503,1017.96 448.303,1017.96 L478.003,1017.96 C478.803,1017.96 479.403,1017.46 479.403,1016.66 L479.403,1014.76 C479.403,1013.96 478.803,1013.36 478.003,1013.36 L469.203,1013.36 L469.203,1006.06 L478.003,1006.06 C478.803,1006.06 479.403,1005.46 479.403,1004.66 L479.403,1002.86 C479.403,1002.06 478.803,1001.46 478.003,1001.46 L469.203,1001.46 L469.203,985.758 C469.203,985.258 468.803,984.758 468.403,984.558 L467.303,983.958 C467.103,983.858 466.803,983.858 466.603,983.858 C466.303,983.858 465.903,983.958 465.703,984.158 L456.803,992.358 C456.603,992.558 456.403,993.058 456.403,993.358 L456.403,1001.46 L445.103,1001.46 C445.103,1001.46 456.003,989.658 467.603,974.158 C468.403,973.058 468.003,972.058 467.803,971.858 L465.703,969.658 C465.503,969.458 465.003,969.258 464.703,969.258 L450.103,969.258 C449.403,969.258 448.903,969.858 448.803,970.458 C448.803,970.458 448.303,977.658 445.703,985.658 C443.103,993.658 440.303,998.458 437.703,1002.06 C437.703,1002.06 437.203,1003.06 437.503,1003.76 C437.803,1004.46 438.503,1005.56 438.503,1005.56 C438.503,1005.56 438.803,1006.06 439.603,1006.06"/>
<path class="TimeSig" d="M439.603,694.937 L456.403,694.937 L456.403,702.237 L448.303,702.237 C447.503,702.237 446.903,702.837 446.903,703.637 L446.903,705.537 C446.903,706.337 447.503,706.837 448.303,706.837 L478.003,706.837 C478.803,706.837 479.403,706.337 479.403,705.537 L479.403,703.637 C479.403,702.837 478.803,702.237 478.003,702.237 L469.203,702.237 L469.203,694.937 L478.003,694.937 C478.803,694.937 479.403,694.337 479.403,693.537 L479.403,691.737 C479.403,690.937 478.803,690.337 478.003,690.337 L469.203,690.337 L469.203,674.637 C469.203,674.137 468.803,673.637 468.403,673.437 L467.303,672.837 C467.103,672.737 466.803,672.737 466.603,672.737 C466.303,672.737 465.903,672.837 465.703,673.037 L456.803,681.237 C456.603,681.437 456.403,681.937 456.403,682.237 L456.403,690.337 L445.103,690.337 C445.103,690.337 456.003,678.537 467.603,663.037 C468.403,661.937 468.003,660.937 467.803,660.737 L465.703,658.537 C465.503,658.337 465.003,658.137 464.703,658.137 L450.103,658.137 C449.403,658.137 448.903,658.737 448.803,659.337 C448.803,659.337 448.303,666.537 445.703,674.537 C443.103,682.537 440.303,687.337 437.703,690.937 C437.703,690.937 437.203,691.937 437.503,692.637 C437.803,693.337 438.503,694.437 438.503,694.437 C438.503,694.437 438.803,694.937 439.603,694.937"/>
<path class="TimeSig" d="M439.603,743.541 L456.403,743.541 L456.403,750.841 L448.303,750.841 C447.503,750.841 446.903,751.441 446.903,752.241 L446.903,754.141 C446.903,754.941 447.503,755.441 448.303,755.441 L478.003,755.441 C478.803,755.441 479.403,754.941 479.403,754.141 L479.403,752.241 C479.403,751.441 478.803,750.841 478.003,750.841 L469.203,750.841 L469.203,743.541 L478.003,743.541 C478.803,743.541 479.403,742.941 479.403,742.141 L479.403,740.341 C479.403,739.541 478.803,738.941 478.003,738.941 L469.203,738.941 L469.203,723.241 C469.203,722.741 468.803,722.241 468.403,722.041 L467.303,721.441 C467.103,721.341 466.803,721.341 466.603,721.341 C466.303,721.341 465.903,721.441 465.703,721.641 L456.803,729.841 C456.603,730.041 456.403,730.541 456.403,730.841 L456.403,738.941 L445.103,738.941 C445.103,738.941 456.003,727.141 467.603,711.641 C468.403,710.541 468.003,709.541 467.803,709.341 L465.703,707.141 C465.503,706.941 465.003,706.741 464.703,706.741 L450.103,706.741 C449.403,706.741 448.903,707.341 448.803,707.941 C448.803,707.941 448.303,715.141 445.703,723.141 C443.103,731.141 440.303,735.941 437.703,739.541 C437.703,739.541 437.203,740.541 437.503,741.241 C437.803,741.941 438.503,743.041 438.503,743.041 C438.503,743.041 438.803,743.541 439.603,743.541"/>
<path class="NoteDot" d="M2478.66,1569.09 C2478.66,1571.69 2480.76,1573.79 2483.36,1573.79 C2485.95,1573.79 2488.06,1571.69 2488.06,1569.09 C2488.06,1566.5 2485.95,1564.39 2483.36,1564.39 C2480.76,1564.39 2478.66,1566.5 2478.66,1569.09"/>
<path class="NoteDot" d="M2478.66,1381.58 C2478.66,1384.18 2480.76,1386.28 2483.36,1386.28 C2485.95,1386.28 2488.06,1384.18 2488.06,1381.58 C2488.06,1378.99 2485.95,1376.88 2483.36,1376.88 C2480.76,1376.88 2478.66,1378.99 2478.66,1381.58"/>
<path class="Page" d="M226.289,4049.51 C230.384,4048.02 232.274,4045.73 232.274,4042.13 C232.274,4037.4 228.674,4034.39 223.094,4034.39 C217.829,4034.39 213.824,4037.49 213.824,4041.59 C213.824,4043.43 215.039,4044.74 216.794,4044.74 C218.369,4044.74 219.449,4043.66 219.449,4042.04 C219.449,4041.05 219.089,4040.46 218.054,4039.74 C217.604,4039.43 217.469,4039.25 217.469,4038.93 C217.469,4037.67 220.079,4036.32 222.644,4036.32 C225.884,4036.32 227.594,4038.35 227.594,4042.17 C227.594,4046.36 225.884,4048.56 222.689,4048.56 C222.284,4048.56 221.519,4048.52 220.844,4048.47 C220.484,4048.43 220.124,4048.43 219.854,4048.43 C218.909,4048.43 218.414,4048.83 218.414,4049.64 C218.414,4050.41 218.864,4050.77 219.854,4050.77 C220.124,4050.77 220.484,4050.77 220.889,4050.72 C221.789,4050.68 222.509,4050.68 223.004,4050.68 C226.334,4050.68 228.134,4053.06 228.134,4057.52 C228.134,4062.2 225.884,4064.81 221.834,4064.81 C218.999,4064.81 215.939,4063.28 215.939,4061.88 C215.939,4061.48 216.029,4061.39 216.884,4060.89 C218.144,4060.13 218.639,4059.36 218.639,4058.24 C218.639,4056.62 217.424,4055.4 215.804,4055.4 C213.869,4055.4 212.609,4056.98 212.609,4059.36 C212.609,4063.73 216.614,4066.74 222.374,4066.74 C228.899,4066.74 233.129,4063.14 233.129,4057.61 C233.129,4053.38 230.969,4050.81 226.289,4049.51"/>
<path class="Bracket" transform="matrix(3.62523,0,0,3.62523,214.469,1019.06)" d="M0.92002,-50 C2.69004,-51.88 6.2,-55.8 6.2,-63 C6.2,-72.1 2.25996,-81.32 2.25996,-86.97 C2.25996,-93.06 5.84004,-98.84 5.95,-99 C6.05996,-99.16 6.05,-99.39 5.94004,-99.46 C5.82998,-99.53 5.62002,-99.47 5.49004,-99.32 C5.35996,-99.17 0,-93.75 0,-85.6 C0,-76.75 3.5,-70.58 3.5,-59.07 C3.5,-56.89 2.55996,-53.36 0.1,-50.33 C-0.0799805,-50.17 -0.1,-49.89 0.0599609,-49.7 L0.0700195,-49.69 L0.1,-49.66 C2.55996,-46.63 3.5,-43.1 3.5,-40.92 C3.5,-29.4 0,-23.24 0,-14.39 C0,-6.25 5.35996,-0.8 5.49004,-0.659961 C5.62002,-0.52002 5.8,-0.42998 5.94004,-0.52002 C6.07998,-0.609961 6.07998,-0.77998 5.95,-0.97998 C5.82002,-1.17998 2.25996,-6.92002 2.25996,-13.01 C2.25996,-18.66 6.2,-27.9 6.2,-37 C6.2,-44.3 2.69004,-48.12 0.92002,-50"/>
<path class="Bracket" transform="matrix(3.62523,0,0,3.62523,214.469,1631.6)" d="M0.92002,-50 C2.69004,-51.88 6.2,-55.8 6.2,-63 C6.2,-72.1 2.25996,-81.32 2.25996,-86.97 C2.25996,-93.06 5.84004,-98.84 5.95,-99 C6.05996,-99.16 6.05,-99.39 5.94004,-99.46 C5.82998,-99.53 5.62002,-99.47 5.49004,-99.32 C5.35996,-99.17 0,-93.75 0,-85.6 C0,-76.75 3.5,-70.58 3.5,-59.07 C3.5,-56.89 2.55996,-53.36 0.1,-50.33 C-0.0799805,-50.17 -0.1,-49.89 0.0599609,-49.7 L0.0700195,-49.69 L0.1,-49.66 C2.55996,-46.63 3.5,-43.1 3.5,-40.92 C3.5,-29.4 0,-23.24 0,-14.39 C0,-6.25 5.35996,-0.8 5.49004,-0.659961 C5.62002,-0.52002 5.8,-0.42998 5.94004,-0.52002 C6.07998,-0.609961 6.07998,-0.77998 5.95,-0.97998 C5.82002,-1.17998 2.25996,-6.92002 2.25996,-13.01 C2.25996,-18.66 6.2,-27.9 6.2,-37 C6.2,-44.3 2.69004,-48.12 0.92002,-50"/>
</svg>
