<?xml version="1.0" encoding="UTF-8" standalone="no"?>
<svg width="2977.23px" height="4208.47px" viewBox="0 0 2977.23 4208.47"
 xmlns="http://www.w3.org/2000/svg" xmlns:xlink="http://www.w3.org/1999/xlink" version="1.2" baseProfile="tiny">
<title>exercises_scores (34)</title>
<desc>Generated by MuseScore 3.6.0</desc>
<polyline class="StaffLines" fill="none" stroke="#000000" stroke-width="2.75" stroke-linejoin="bevel" points="247.099,653.005 2764.63,653.005"/>
<polyline class="StaffLines" fill="none" stroke="#000000" stroke-width="2.75" stroke-linejoin="bevel" points="247.099,678.006 2764.63,678.006"/>
<polyline class="StaffLines" fill="none" stroke="#000000" stroke-width="2.75" stroke-linejoin="bevel" points="247.099,703.008 2764.63,703.008"/>
<polyline class="StaffLines" fill="none" stroke="#000000" stroke-width="2.75" stroke-linejoin="bevel" points="247.099,728.009 2764.63,728.009"/>
<polyline class="StaffLines" fill="none" stroke="#000000" stroke-width="2.75" stroke-linejoin="bevel" points="247.099,753.011 2764.63,753.011"/>
<polyline class="StaffLines" fill="none" stroke="#000000" stroke-width="2.75" stroke-linejoin="bevel" points="247.099,915.521 2764.63,915.521"/>
<polyline class="StaffLines" fill="none" stroke="#000000" stroke-width="2.75" stroke-linejoin="bevel" points="247.099,940.523 2764.63,940.523"/>
<polyline class="StaffLines" fill="none" stroke="#000000" stroke-width="2.75" stroke-linejoin="bevel" points="247.099,965.524 2764.63,965.524"/>
<polyline class="StaffLines" fill="none" stroke="#000000" stroke-width="2.75" stroke-linejoin="bevel" points="247.099,990.526 2764.63,990.526"/>
<polyline class="StaffLines" fill="none" stroke="#000000" stroke-width="2.75" stroke-linejoin="bevel" points="247.099,1015.53 2764.63,1015.53"/>
<path class="Text" d="M249.083,217.046 L246.803,217.046 L244.463,220.646 C240.563,217.586 237.923,216.566 233.543,216.566 C228.803,216.566 225.083,217.886 221.303,220.946 C215.363,225.746 212.603,231.806 212.603,239.906 C212.603,246.026 214.343,251.126 217.883,255.026 C221.603,259.226 227.123,261.686 232.883,261.686 C237.923,261.686 241.463,260.126 245.363,256.226 L247.583,261.626 L250.103,261.626 L250.103,248.426 C250.103,245.366 250.103,245.246 250.463,244.706 C251.003,244.046 252.083,243.866 255.503,243.866 L256.403,243.866 L256.403,241.046 L237.323,241.046 L237.323,243.866 L238.463,243.866 C243.503,243.866 243.923,244.166 243.923,247.526 C243.923,250.106 243.503,252.446 242.723,253.886 C241.223,256.826 237.383,258.866 233.483,258.866 C229.583,258.866 225.743,256.886 223.703,253.886 C221.483,250.526 220.523,246.326 220.523,239.906 C220.523,226.526 224.963,219.386 233.303,219.386 C240.143,219.386 244.883,224.306 247.343,233.906 L249.923,233.906 L249.083,217.046 M279.273,230.708 C279.76,230.613 280.155,230.132 280.155,229.636 L280.155,229.634 L280.155,224.954 C280.154,224.665 279.971,224.283 279.747,224.102 C279.581,223.966 279.273,223.857 279.059,223.857 C278.996,223.857 278.896,223.867 278.835,223.88 L276.249,224.414 L276.249,212.606 L274.053,212.606 L274.053,224.87 L266.955,226.34 L266.955,215.102 L264.759,215.102 L264.759,226.796 L261.651,227.438 C261.167,227.54 260.775,228.024 260.775,228.518 L260.775,233.114 C260.775,233.401 260.955,233.783 261.177,233.966 C261.344,234.102 261.654,234.212 261.869,234.212 L261.873,234.212 C261.934,234.212 262.034,234.204 262.095,234.194 L264.759,233.654 L264.759,246.764 L261.651,247.406 C261.168,247.506 260.775,247.987 260.775,248.48 L260.775,253.082 C260.775,253.369 260.955,253.751 261.177,253.934 C261.344,254.07 261.654,254.18 261.869,254.18 L261.873,254.18 C261.876,254.18 261.881,254.18 261.884,254.18 C261.943,254.18 262.037,254.169 262.095,254.156 L264.759,253.616 L264.759,265.406 L266.955,265.406 L266.955,253.172 L274.053,251.732 L274.053,262.91 L276.249,262.91 L276.249,251.288 L279.273,250.676 C279.76,250.581 280.155,250.1 280.155,249.604 L280.155,249.602 L280.155,244.922 C280.154,244.633 279.971,244.251 279.747,244.07 C279.583,243.933 279.278,243.823 279.065,243.823 C279.001,243.823 278.898,243.834 278.835,243.848 L276.249,244.382 L276.249,231.326 L279.273,230.708 M266.955,246.308 L266.955,233.204 L274.053,231.77 L274.053,244.838 L266.955,246.308 M312.895,216.566 L301.795,217.226 L301.795,219.806 L304.675,219.806 C306.955,219.866 307.255,220.226 307.255,222.806 L307.255,253.406 L307.255,254.846 L307.255,256.286 C307.195,257.126 307.135,257.486 306.895,257.786 C306.475,258.326 305.335,258.566 302.755,258.626 L302.515,258.626 L302.515,260.786 L317.695,260.786 L317.695,258.626 L317.455,258.626 C313.435,258.506 312.895,258.206 312.895,256.046 L312.895,253.406 L312.895,247.166 C312.895,244.226 313.315,241.526 313.975,240.146 C315.295,237.446 317.935,235.586 320.515,235.586 C322.075,235.586 323.875,236.486 324.715,237.686 C325.675,239.006 326.095,240.806 326.095,243.746 L326.095,253.406 L326.095,256.286 C326.035,257.126 325.975,257.486 325.735,257.786 C325.315,258.326 324.115,258.566 321.535,258.626 L321.295,258.626 L321.295,260.786 L336.475,260.786 L336.475,258.626 L336.235,258.626 C332.275,258.506 331.735,258.206 331.735,256.046 L331.735,253.406 L331.735,243.986 C331.735,239.666 331.555,238.586 330.475,236.546 C328.975,233.606 325.975,231.926 322.375,231.926 C318.475,231.926 315.595,233.666 312.895,237.686 L312.895,216.566 M364.672,241.466 C364.672,237.686 364.012,235.766 362.272,234.326 C360.292,232.706 357.352,231.926 353.512,231.926 C346.732,231.926 341.812,235.106 341.812,239.486 C341.812,241.706 343.192,243.146 345.292,243.146 C347.212,243.146 348.532,241.886 348.532,240.086 C348.532,239.306 348.232,238.466 347.632,237.626 C347.272,237.206 347.212,237.086 347.212,236.786 C347.212,235.586 349.612,234.506 352.492,234.506 C354.412,234.506 356.512,235.106 357.472,236.006 C358.612,236.966 359.032,238.406 359.032,241.106 L359.032,243.446 C352.792,244.526 350.812,245.006 347.872,246.146 C342.652,248.066 340.192,250.826 340.192,254.666 C340.192,258.986 343.552,261.686 348.892,261.686 C353.032,261.686 356.752,260.006 359.332,256.946 C360.292,260.006 361.792,261.206 364.612,261.206 C367.312,261.206 370.132,259.466 370.132,257.726 C370.132,257.306 369.892,257.006 369.532,257.006 C369.292,257.006 369.052,257.066 368.632,257.246 C367.792,257.606 367.432,257.666 366.952,257.666 C365.272,257.666 364.672,256.586 364.672,253.526 L364.672,241.466 M359.032,248.786 C359.032,252.386 358.852,253.226 357.832,254.786 C356.332,257.006 353.632,258.506 350.992,258.506 C348.232,258.506 346.252,256.526 346.252,253.826 C346.252,251.306 347.512,249.506 350.152,248.246 C352.012,247.406 354.352,246.806 359.032,246.026 L359.032,248.786 M382.791,232.826 L372.171,233.486 L372.171,236.066 L374.631,236.066 C376.911,236.126 377.211,236.486 377.211,239.066 L377.211,253.406 L377.211,256.226 C377.151,257.126 377.091,257.486 376.851,257.786 C376.431,258.326 375.231,258.566 372.651,258.626 L372.411,258.626 L372.411,260.786 L388.431,260.786 L388.431,258.626 L387.351,258.626 C383.331,258.506 382.791,258.206 382.791,256.046 L382.791,253.406 L382.791,252.806 C382.851,242.726 386.451,235.046 391.131,234.806 C390.291,235.766 390.051,236.366 390.051,237.506 C390.051,239.426 391.431,240.806 393.351,240.806 C395.571,240.806 397.011,239.186 397.011,236.786 C397.011,233.846 394.971,231.926 391.791,231.926 C388.011,231.926 384.771,234.926 382.791,240.266 L382.791,232.826 M410.612,232.826 L399.932,233.486 L399.932,236.066 L402.392,236.066 C404.672,236.126 404.972,236.486 404.972,239.066 L404.972,253.406 L404.972,255.746 L404.972,256.226 C404.912,257.126 404.852,257.486 404.612,257.786 C404.192,258.326 403.052,258.566 400.472,258.626 L400.232,258.626 L400.232,260.786 L415.352,260.786 L415.352,258.626 L415.112,258.626 C411.152,258.506 410.612,258.206 410.612,255.986 L410.612,253.406 L410.612,244.886 C410.612,239.546 413.552,235.586 417.452,235.586 C420.872,235.586 422.612,238.046 422.612,242.906 L422.612,253.406 L422.612,256.286 C422.552,257.066 422.492,257.486 422.192,257.786 C421.832,258.326 420.632,258.566 418.052,258.626 L417.812,258.626 L417.812,260.786 L432.992,260.786 L432.992,258.626 L432.752,258.626 C428.792,258.506 428.252,258.206 428.252,256.046 L428.252,253.406 L428.252,245.426 C428.252,239.426 430.952,235.586 435.152,235.586 C438.572,235.586 440.252,238.166 440.252,243.566 L440.252,253.406 L440.252,256.226 C440.192,257.066 440.132,257.486 439.832,257.786 C439.472,258.326 438.272,258.566 435.692,258.626 L435.452,258.626 L435.452,260.786 L450.632,260.786 L450.632,258.626 L450.392,258.626 C446.432,258.506 445.892,258.206 445.892,255.986 L445.892,253.406 L445.892,242.366 C445.892,238.646 445.532,237.386 443.972,235.346 C442.232,233.126 439.772,231.926 436.892,231.926 C432.992,231.926 430.112,233.786 427.532,237.926 C426.512,234.326 423.272,231.926 419.252,231.926 C415.592,231.926 412.952,233.666 410.612,237.446 L410.612,232.826 M467,231.926 C459.62,231.926 453.92,238.466 453.92,246.866 C453.92,255.086 459.68,261.686 466.88,261.686 C474.08,261.686 479.84,255.086 479.84,246.806 C479.84,238.586 474.08,231.926 467,231.926 M467,234.506 C471.2,234.506 473.54,238.886 473.54,246.806 C473.54,254.786 471.2,259.106 466.88,259.106 C462.56,259.106 460.22,254.786 460.22,246.866 C460.22,238.706 462.5,234.506 467,234.506 M493.88,232.826 L483.5,233.486 L483.5,236.066 L485.66,236.066 C487.94,236.126 488.24,236.486 488.24,239.066 L488.24,253.406 L488.24,254.846 L488.24,256.226 C488.18,257.126 488.12,257.486 487.88,257.786 C487.46,258.326 486.32,258.566 483.74,258.626 L483.5,258.626 L483.5,260.786 L498.68,260.786 L498.68,258.626 L498.44,258.626 C494.42,258.506 493.88,258.206 493.88,256.046 L493.88,253.406 L493.88,247.166 C493.88,244.226 494.3,241.526 494.96,240.146 C496.22,237.446 498.92,235.586 501.5,235.586 C503.06,235.586 504.86,236.426 505.76,237.686 C506.66,239.006 507.08,240.806 507.08,243.686 L507.08,253.406 L507.08,256.226 C507.02,257.126 506.96,257.486 506.72,257.786 C506.3,258.326 505.1,258.566 502.52,258.626 L502.28,258.626 L502.28,260.786 L517.46,260.786 L517.46,258.626 L517.22,258.626 C513.26,258.506 512.72,258.206 512.72,256.046 L512.72,253.406 L512.72,243.986 C512.72,239.666 512.54,238.586 511.46,236.546 C509.96,233.666 506.96,231.926 503.36,231.926 C499.46,231.926 496.52,233.726 493.88,237.686 L493.88,232.826 M530.896,232.826 L519.616,233.486 L519.616,236.066 L522.676,236.066 C524.956,236.126 525.256,236.486 525.256,239.066 L525.256,253.406 L525.256,256.226 C525.196,257.126 525.136,257.486 524.896,257.786 C524.476,258.326 523.336,258.566 520.756,258.626 L520.336,258.626 L520.336,260.786 L535.876,260.786 L535.876,258.626 L535.456,258.626 C531.436,258.506 530.896,258.206 530.896,256.046 L530.896,253.406 L530.896,232.826 M528.076,217.886 C526.156,217.886 524.596,219.446 524.596,221.366 C524.596,223.286 526.156,224.846 528.016,224.846 C529.996,224.846 531.556,223.286 531.556,221.366 C531.556,219.446 529.996,217.886 528.076,217.886 M560.647,251.966 C558.727,256.286 556.687,258.026 553.567,258.026 C548.767,258.026 545.767,253.646 545.767,246.626 C545.767,239.306 548.707,234.506 553.147,234.506 C554.947,234.506 556.507,235.346 556.507,236.306 C556.507,236.486 556.447,236.666 556.147,237.026 C555.187,238.166 554.947,238.766 554.947,239.786 C554.947,241.766 556.447,243.146 558.547,243.146 C560.707,243.146 562.207,241.466 562.207,239.066 C562.207,234.986 558.187,231.926 552.847,231.926 C545.047,231.926 539.467,238.286 539.467,247.286 C539.467,255.806 544.567,261.686 552.007,261.686 C557.347,261.686 560.407,259.226 562.987,252.866 L560.647,251.966 M592.783,232.826 L582.103,233.486 L582.103,236.066 L584.563,236.066 C586.843,236.126 587.143,236.486 587.143,239.066 L587.143,253.406 L587.143,255.746 L587.143,256.226 C587.083,257.126 587.023,257.486 586.783,257.786 C586.363,258.326 585.223,258.566 582.643,258.626 L582.403,258.626 L582.403,260.786 L597.523,260.786 L597.523,258.626 L597.283,258.626 C593.323,258.506 592.783,258.206 592.783,255.986 L592.783,253.406 L592.783,244.886 C592.783,239.546 595.723,235.586 599.623,235.586 C603.043,235.586 604.783,238.046 604.783,242.906 L604.783,253.406 L604.783,256.286 C604.723,257.066 604.663,257.486 604.363,257.786 C604.003,258.326 602.803,258.566 600.223,258.626 L599.983,258.626 L599.983,260.786 L615.163,260.786 L615.163,258.626 L614.923,258.626 C610.963,258.506 610.423,258.206 610.423,256.046 L610.423,253.406 L610.423,245.426 C610.423,239.426 613.123,235.586 617.323,235.586 C620.743,235.586 622.423,238.166 622.423,243.566 L622.423,253.406 L622.423,256.226 C622.363,257.066 622.303,257.486 622.003,257.786 C621.643,258.326 620.443,258.566 617.863,258.626 L617.623,258.626 L617.623,260.786 L632.803,260.786 L632.803,258.626 L632.563,258.626 C628.603,258.506 628.063,258.206 628.063,255.986 L628.063,253.406 L628.063,242.366 C628.063,238.646 627.703,237.386 626.143,235.346 C624.403,233.126 621.943,231.926 619.063,231.926 C615.163,231.926 612.283,233.786 609.703,237.926 C608.683,234.326 605.443,231.926 601.423,231.926 C597.763,231.926 595.123,233.666 592.783,237.446 L592.783,232.826 M646.412,232.826 L635.132,233.486 L635.132,236.066 L638.192,236.066 C640.472,236.126 640.772,236.486 640.772,239.066 L640.772,253.406 L640.772,256.226 C640.712,257.126 640.652,257.486 640.412,257.786 C639.992,258.326 638.852,258.566 636.272,258.626 L635.852,258.626 L635.852,260.786 L651.392,260.786 L651.392,258.626 L650.972,258.626 C646.952,258.506 646.412,258.206 646.412,256.046 L646.412,253.406 L646.412,232.826 M643.592,217.886 C641.672,217.886 640.112,219.446 640.112,221.366 C640.112,223.286 641.672,224.846 643.532,224.846 C645.512,224.846 647.072,223.286 647.072,221.366 C647.072,219.446 645.512,217.886 643.592,217.886 M664.942,232.826 L654.562,233.486 L654.562,236.066 L656.722,236.066 C659.002,236.126 659.302,236.486 659.302,239.066 L659.302,253.406 L659.302,254.846 L659.302,256.226 C659.242,257.126 659.182,257.486 658.942,257.786 C658.522,258.326 657.382,258.566 654.802,258.626 L654.562,258.626 L654.562,260.786 L669.742,260.786 L669.742,258.626 L669.502,258.626 C665.482,258.506 664.942,258.206 664.942,256.046 L664.942,253.406 L664.942,247.166 C664.942,244.226 665.362,241.526 666.022,240.146 C667.282,237.446 669.982,235.586 672.562,235.586 C674.122,235.586 675.922,236.426 676.822,237.686 C677.722,239.006 678.142,240.806 678.142,243.686 L678.142,253.406 L678.142,256.226 C678.082,257.126 678.022,257.486 677.782,257.786 C677.362,258.326 676.162,258.566 673.582,258.626 L673.342,258.626 L673.342,260.786 L688.522,260.786 L688.522,258.626 L688.282,258.626 C684.322,258.506 683.782,258.206 683.782,256.046 L683.782,253.406 L683.782,243.986 C683.782,239.666 683.602,238.586 682.522,236.546 C681.022,233.666 678.022,231.926 674.422,231.926 C670.522,231.926 667.582,233.726 664.942,237.686 L664.942,232.826 M704.718,231.926 C697.338,231.926 691.638,238.466 691.638,246.866 C691.638,255.086 697.398,261.686 704.598,261.686 C711.798,261.686 717.558,255.086 717.558,246.806 C717.558,238.586 711.798,231.926 704.718,231.926 M704.718,234.506 C708.918,234.506 711.258,238.886 711.258,246.806 C711.258,254.786 708.918,259.106 704.598,259.106 C700.278,259.106 697.938,254.786 697.938,246.866 C697.938,238.706 700.218,234.506 704.718,234.506 M731.478,232.826 L720.858,233.486 L720.858,236.066 L723.318,236.066 C725.598,236.126 725.898,236.486 725.898,239.066 L725.898,253.406 L725.898,256.226 C725.838,257.126 725.778,257.486 725.538,257.786 C725.118,258.326 723.918,258.566 721.338,258.626 L721.098,258.626 L721.098,260.786 L737.118,260.786 L737.118,258.626 L736.038,258.626 C732.018,258.506 731.478,258.206 731.478,256.046 L731.478,253.406 L731.478,252.806 C731.538,242.726 735.138,235.046 739.818,234.806 C738.978,235.766 738.738,236.366 738.738,237.506 C738.738,239.426 740.118,240.806 742.038,240.806 C744.258,240.806 745.698,239.186 745.698,236.786 C745.698,233.846 743.658,231.926 740.478,231.926 C736.698,231.926 733.458,234.926 731.478,240.266 L731.478,232.826 "/>
<polyline class="BarLine" fill="none" stroke="#000000" stroke-width="4.50" stroke-linejoin="bevel" points="249.349,914.146 249.349,1016.9"/>
<polyline class="BarLine" fill="none" stroke="#000000" stroke-width="4.50" stroke-linejoin="bevel" points="1015.59,914.146 1015.59,1016.9"/>
<polyline class="BarLine" fill="none" stroke="#000000" stroke-width="4.50" stroke-linejoin="bevel" points="1611.45,914.146 1611.45,1016.9"/>
<polyline class="BarLine" fill="none" stroke="#000000" stroke-width="4.50" stroke-linejoin="bevel" points="2224.19,914.146 2224.19,1016.9"/>
<polyline class="BarLine" fill="none" stroke="#000000" stroke-width="4.50" stroke-linejoin="bevel" points="2734.88,914.146 2734.88,1016.9"/>
<polyline class="BarLine" fill="none" stroke="#000000" stroke-width="13.75" stroke-linejoin="bevel" points="2757.76,914.146 2757.76,1016.9"/>
<polyline class="BarLine" fill="none" stroke="#000000" stroke-width="4.50" stroke-linejoin="bevel" points="249.349,651.63 249.349,915.521"/>
<polyline class="BarLine" fill="none" stroke="#000000" stroke-width="4.50" stroke-linejoin="bevel" points="1015.59,651.63 1015.59,915.521"/>
<polyline class="BarLine" fill="none" stroke="#000000" stroke-width="4.50" stroke-linejoin="bevel" points="1611.45,651.63 1611.45,915.521"/>
<polyline class="BarLine" fill="none" stroke="#000000" stroke-width="4.50" stroke-linejoin="bevel" points="2224.19,651.63 2224.19,915.521"/>
<polyline class="BarLine" fill="none" stroke="#000000" stroke-width="4.50" stroke-linejoin="bevel" points="2734.88,651.63 2734.88,915.521"/>
<polyline class="BarLine" fill="none" stroke="#000000" stroke-width="13.75" stroke-linejoin="bevel" points="2757.76,651.63 2757.76,915.521"/>
<path class="Accidental" d="M478.302,917.422 C478.902,917.322 479.402,916.622 479.402,916.022 L479.402,910.122 C479.402,909.322 478.802,908.722 478.002,908.722 L477.802,908.722 L474.502,909.422 L474.502,894.522 L471.702,894.522 L471.702,910.022 L462.802,911.822 L462.802,897.722 L460.002,897.722 L460.002,912.422 L456.102,913.222 C455.502,913.322 455.002,914.022 455.002,914.622 L455.002,914.822 L455.002,920.622 L455.002,920.422 C455.002,921.222 455.602,921.822 456.402,921.822 L456.702,921.822 L460.002,921.122 L460.002,937.622 L456.102,938.422 C455.502,938.522 455.002,939.222 455.002,939.822 L455.002,945.622 C455.002,946.422 455.602,947.022 456.402,947.022 L456.702,947.022 L460.002,946.322 L460.002,961.222 L462.802,961.222 L462.802,945.722 L471.702,943.922 L471.702,958.022 L474.502,958.022 L474.502,943.322 L478.302,942.622 C478.902,942.522 479.402,941.822 479.402,941.222 L479.402,935.322 C479.402,934.522 478.802,933.922 478.002,933.922 L477.802,933.922 L474.502,934.622 L474.502,918.122 L478.302,917.422 M462.802,937.122 L462.802,920.522 L471.702,918.722 L471.702,935.222 L462.802,937.122 "/>
<path class="Accidental" d="M610.223,904.921 C610.823,904.821 611.323,904.121 611.323,903.521 L611.323,897.621 C611.323,896.821 610.723,896.221 609.923,896.221 L609.723,896.221 L606.423,896.921 L606.423,882.021 L603.623,882.021 L603.623,897.521 L594.723,899.321 L594.723,885.221 L591.923,885.221 L591.923,899.921 L588.023,900.721 C587.423,900.821 586.923,901.521 586.923,902.121 L586.923,902.321 L586.923,908.121 L586.923,907.921 C586.923,908.721 587.523,909.321 588.323,909.321 L588.623,909.321 L591.923,908.621 L591.923,925.121 L588.023,925.921 C587.423,926.021 586.923,926.721 586.923,927.321 L586.923,933.121 C586.923,933.921 587.523,934.521 588.323,934.521 L588.623,934.521 L591.923,933.821 L591.923,948.721 L594.723,948.721 L594.723,933.221 L603.623,931.421 L603.623,945.521 L606.423,945.521 L606.423,930.821 L610.223,930.121 C610.823,930.021 611.323,929.321 611.323,928.721 L611.323,922.821 C611.323,922.021 610.723,921.421 609.923,921.421 L609.723,921.421 L606.423,922.121 L606.423,905.621 L610.223,904.921 M594.723,924.621 L594.723,908.021 L603.623,906.221 L603.623,922.721 L594.723,924.621 "/>
<path class="Accidental" d="M865.315,879.92 C865.915,879.82 866.415,879.12 866.415,878.52 L866.415,872.62 C866.415,871.82 865.815,871.22 865.015,871.22 L864.815,871.22 L861.515,871.92 L861.515,857.02 L858.715,857.02 L858.715,872.52 L849.815,874.32 L849.815,860.22 L847.015,860.22 L847.015,874.92 L843.115,875.72 C842.515,875.82 842.015,876.52 842.015,877.12 L842.015,877.32 L842.015,883.12 L842.015,882.92 C842.015,883.72 842.615,884.32 843.415,884.32 L843.715,884.32 L847.015,883.62 L847.015,900.12 L843.115,900.92 C842.515,901.02 842.015,901.72 842.015,902.32 L842.015,908.12 C842.015,908.92 842.615,909.52 843.415,909.52 L843.715,909.52 L847.015,908.82 L847.015,923.72 L849.815,923.72 L849.815,908.22 L858.715,906.42 L858.715,920.52 L861.515,920.52 L861.515,905.82 L865.315,905.12 C865.915,905.02 866.415,904.32 866.415,903.72 L866.415,897.82 C866.415,897.02 865.815,896.42 865.015,896.42 L864.815,896.42 L861.515,897.12 L861.515,880.62 L865.315,879.92 M849.815,899.62 L849.815,883.02 L858.715,881.22 L858.715,897.72 L849.815,899.62 "/>
<path class="Accidental" d="M1062.89,867.419 C1063.49,867.319 1063.99,866.619 1063.99,866.019 L1063.99,860.119 C1063.99,859.319 1063.39,858.719 1062.59,858.719 L1062.39,858.719 L1059.09,859.419 L1059.09,844.519 L1056.29,844.519 L1056.29,860.019 L1047.39,861.819 L1047.39,847.719 L1044.59,847.719 L1044.59,862.419 L1040.69,863.219 C1040.09,863.319 1039.59,864.019 1039.59,864.619 L1039.59,864.819 L1039.59,870.619 L1039.59,870.419 C1039.59,871.219 1040.19,871.819 1040.99,871.819 L1041.29,871.819 L1044.59,871.119 L1044.59,887.619 L1040.69,888.419 C1040.09,888.519 1039.59,889.219 1039.59,889.819 L1039.59,895.619 C1039.59,896.419 1040.19,897.019 1040.99,897.019 L1041.29,897.019 L1044.59,896.319 L1044.59,911.219 L1047.39,911.219 L1047.39,895.719 L1056.29,893.919 L1056.29,908.019 L1059.09,908.019 L1059.09,893.319 L1062.89,892.619 C1063.49,892.519 1063.99,891.819 1063.99,891.219 L1063.99,885.319 C1063.99,884.519 1063.39,883.919 1062.59,883.919 L1062.39,883.919 L1059.09,884.619 L1059.09,868.119 L1062.89,867.419 M1047.39,887.119 L1047.39,870.519 L1056.29,868.719 L1056.29,885.219 L1047.39,887.119 "/>
<path class="Accidental" d="M1460.54,829.917 C1461.14,829.817 1461.64,829.117 1461.64,828.517 L1461.64,822.617 C1461.64,821.817 1461.04,821.217 1460.24,821.217 L1460.04,821.217 L1456.74,821.917 L1456.74,807.017 L1453.94,807.017 L1453.94,822.517 L1445.04,824.317 L1445.04,810.217 L1442.24,810.217 L1442.24,824.917 L1438.34,825.717 C1437.74,825.817 1437.24,826.517 1437.24,827.117 L1437.24,827.317 L1437.24,833.117 L1437.24,832.917 C1437.24,833.717 1437.84,834.317 1438.64,834.317 L1438.94,834.317 L1442.24,833.617 L1442.24,850.117 L1438.34,850.917 C1437.74,851.017 1437.24,851.717 1437.24,852.317 L1437.24,858.117 C1437.24,858.917 1437.84,859.517 1438.64,859.517 L1438.94,859.517 L1442.24,858.817 L1442.24,873.717 L1445.04,873.717 L1445.04,858.217 L1453.94,856.417 L1453.94,870.517 L1456.74,870.517 L1456.74,855.817 L1460.54,855.117 C1461.14,855.017 1461.64,854.317 1461.64,853.717 L1461.64,847.817 C1461.64,847.017 1461.04,846.417 1460.24,846.417 L1460.04,846.417 L1456.74,847.117 L1456.74,830.617 L1460.54,829.917 M1445.04,849.617 L1445.04,833.017 L1453.94,831.217 L1453.94,847.717 L1445.04,849.617 "/>
<path class="Accidental" d="M1922.34,867.419 C1922.94,867.319 1923.44,866.619 1923.44,866.019 L1923.44,860.119 C1923.44,859.319 1922.84,858.719 1922.04,858.719 L1921.84,858.719 L1918.54,859.419 L1918.54,844.519 L1915.74,844.519 L1915.74,860.019 L1906.84,861.819 L1906.84,847.719 L1904.04,847.719 L1904.04,862.419 L1900.14,863.219 C1899.54,863.319 1899.04,864.019 1899.04,864.619 L1899.04,864.819 L1899.04,870.619 L1899.04,870.419 C1899.04,871.219 1899.64,871.819 1900.44,871.819 L1900.74,871.819 L1904.04,871.119 L1904.04,887.619 L1900.14,888.419 C1899.54,888.519 1899.04,889.219 1899.04,889.819 L1899.04,895.619 C1899.04,896.419 1899.64,897.019 1900.44,897.019 L1900.74,897.019 L1904.04,896.319 L1904.04,911.219 L1906.84,911.219 L1906.84,895.719 L1915.74,893.919 L1915.74,908.019 L1918.54,908.019 L1918.54,893.319 L1922.34,892.619 C1922.94,892.519 1923.44,891.819 1923.44,891.219 L1923.44,885.319 C1923.44,884.519 1922.84,883.919 1922.04,883.919 L1921.84,883.919 L1918.54,884.619 L1918.54,868.119 L1922.34,867.419 M1906.84,887.119 L1906.84,870.519 L1915.74,868.719 L1915.74,885.219 L1906.84,887.119 "/>
<path class="Accidental" d="M2064.09,879.92 C2064.69,879.82 2065.19,879.12 2065.19,878.52 L2065.19,872.62 C2065.19,871.82 2064.59,871.22 2063.79,871.22 L2063.59,871.22 L2060.29,871.92 L2060.29,857.02 L2057.49,857.02 L2057.49,872.52 L2048.59,874.32 L2048.59,860.22 L2045.79,860.22 L2045.79,874.92 L2041.89,875.72 C2041.29,875.82 2040.79,876.52 2040.79,877.12 L2040.79,877.32 L2040.79,883.12 L2040.79,882.92 C2040.79,883.72 2041.39,884.32 2042.19,884.32 L2042.49,884.32 L2045.79,883.62 L2045.79,900.12 L2041.89,900.92 C2041.29,901.02 2040.79,901.72 2040.79,902.32 L2040.79,908.12 C2040.79,908.92 2041.39,909.52 2042.19,909.52 L2042.49,909.52 L2045.79,908.82 L2045.79,923.72 L2048.59,923.72 L2048.59,908.22 L2057.49,906.42 L2057.49,920.52 L2060.29,920.52 L2060.29,905.82 L2064.09,905.12 C2064.69,905.02 2065.19,904.32 2065.19,903.72 L2065.19,897.82 C2065.19,897.02 2064.59,896.42 2063.79,896.42 L2063.59,896.42 L2060.29,897.12 L2060.29,880.62 L2064.09,879.92 M2048.59,899.62 L2048.59,883.02 L2057.49,881.22 L2057.49,897.72 L2048.59,899.62 "/>
<path class="Accidental" d="M2383.17,904.921 C2383.77,904.821 2384.27,904.121 2384.27,903.521 L2384.27,897.621 C2384.27,896.821 2383.67,896.221 2382.87,896.221 L2382.67,896.221 L2379.37,896.921 L2379.37,882.021 L2376.57,882.021 L2376.57,897.521 L2367.67,899.321 L2367.67,885.221 L2364.87,885.221 L2364.87,899.921 L2360.97,900.721 C2360.37,900.821 2359.87,901.521 2359.87,902.121 L2359.87,902.321 L2359.87,908.121 L2359.87,907.921 C2359.87,908.721 2360.47,909.321 2361.27,909.321 L2361.57,909.321 L2364.87,908.621 L2364.87,925.121 L2360.97,925.921 C2360.37,926.021 2359.87,926.721 2359.87,927.321 L2359.87,933.121 C2359.87,933.921 2360.47,934.521 2361.27,934.521 L2361.57,934.521 L2364.87,933.821 L2364.87,948.721 L2367.67,948.721 L2367.67,933.221 L2376.57,931.421 L2376.57,945.521 L2379.37,945.521 L2379.37,930.821 L2383.17,930.121 C2383.77,930.021 2384.27,929.321 2384.27,928.721 L2384.27,922.821 C2384.27,922.021 2383.67,921.421 2382.87,921.421 L2382.67,921.421 L2379.37,922.121 L2379.37,905.621 L2383.17,904.921 M2367.67,924.621 L2367.67,908.021 L2376.57,906.221 L2376.57,922.721 L2367.67,924.621 "/>
<path class="Accidental" d="M2514.75,917.422 C2515.35,917.322 2515.85,916.622 2515.85,916.022 L2515.85,910.122 C2515.85,909.322 2515.25,908.722 2514.45,908.722 L2514.25,908.722 L2510.95,909.422 L2510.95,894.522 L2508.15,894.522 L2508.15,910.022 L2499.25,911.822 L2499.25,897.722 L2496.45,897.722 L2496.45,912.422 L2492.55,913.222 C2491.95,913.322 2491.45,914.022 2491.45,914.622 L2491.45,914.822 L2491.45,920.622 L2491.45,920.422 C2491.45,921.222 2492.05,921.822 2492.85,921.822 L2493.15,921.822 L2496.45,921.122 L2496.45,937.622 L2492.55,938.422 C2491.95,938.522 2491.45,939.222 2491.45,939.822 L2491.45,945.622 C2491.45,946.422 2492.05,947.022 2492.85,947.022 L2493.15,947.022 L2496.45,946.322 L2496.45,961.222 L2499.25,961.222 L2499.25,945.722 L2508.15,943.922 L2508.15,958.022 L2510.95,958.022 L2510.95,943.322 L2514.75,942.622 C2515.35,942.522 2515.85,941.822 2515.85,941.222 L2515.85,935.322 C2515.85,934.522 2515.25,933.922 2514.45,933.922 L2514.25,933.922 L2510.95,934.622 L2510.95,918.122 L2514.75,917.422 M2499.25,937.122 L2499.25,920.522 L2508.15,918.722 L2508.15,935.222 L2499.25,937.122 "/>
<path class="Accidental" d="M478.302,717.409 C478.902,717.309 479.402,716.609 479.402,716.009 L479.402,710.109 C479.402,709.309 478.802,708.709 478.002,708.709 L477.802,708.709 L474.502,709.409 L474.502,694.509 L471.702,694.509 L471.702,710.009 L462.802,711.809 L462.802,697.709 L460.002,697.709 L460.002,712.409 L456.102,713.209 C455.502,713.309 455.002,714.009 455.002,714.609 L455.002,714.809 L455.002,720.609 L455.002,720.409 C455.002,721.209 455.602,721.809 456.402,721.809 L456.702,721.809 L460.002,721.109 L460.002,737.609 L456.102,738.409 C455.502,738.509 455.002,739.209 455.002,739.809 L455.002,745.609 C455.002,746.409 455.602,747.009 456.402,747.009 L456.702,747.009 L460.002,746.309 L460.002,761.209 L462.802,761.209 L462.802,745.709 L471.702,743.909 L471.702,758.009 L474.502,758.009 L474.502,743.309 L478.302,742.609 C478.902,742.509 479.402,741.809 479.402,741.209 L479.402,735.309 C479.402,734.509 478.802,733.909 478.002,733.909 L477.802,733.909 L474.502,734.609 L474.502,718.109 L478.302,717.409 M462.802,737.109 L462.802,720.509 L471.702,718.709 L471.702,735.209 L462.802,737.109 "/>
<path class="Accidental" d="M610.223,704.909 C610.823,704.809 611.323,704.109 611.323,703.509 L611.323,697.609 C611.323,696.809 610.723,696.209 609.923,696.209 L609.723,696.209 L606.423,696.909 L606.423,682.009 L603.623,682.009 L603.623,697.509 L594.723,699.309 L594.723,685.209 L591.923,685.209 L591.923,699.909 L588.023,700.709 C587.423,700.809 586.923,701.509 586.923,702.109 L586.923,702.309 L586.923,708.109 L586.923,707.909 C586.923,708.709 587.523,709.309 588.323,709.309 L588.623,709.309 L591.923,708.609 L591.923,725.109 L588.023,725.909 C587.423,726.009 586.923,726.709 586.923,727.309 L586.923,733.109 C586.923,733.909 587.523,734.509 588.323,734.509 L588.623,734.509 L591.923,733.809 L591.923,748.709 L594.723,748.709 L594.723,733.209 L603.623,731.409 L603.623,745.509 L606.423,745.509 L606.423,730.809 L610.223,730.109 C610.823,730.009 611.323,729.309 611.323,728.709 L611.323,722.809 C611.323,722.009 610.723,721.409 609.923,721.409 L609.723,721.409 L606.423,722.109 L606.423,705.609 L610.223,704.909 M594.723,724.609 L594.723,708.009 L603.623,706.209 L603.623,722.709 L594.723,724.609 "/>
<path class="Accidental" d="M874.066,679.907 C874.666,679.807 875.166,679.107 875.166,678.507 L875.166,672.607 C875.166,671.807 874.566,671.207 873.766,671.207 L873.566,671.207 L870.266,671.907 L870.266,657.007 L867.466,657.007 L867.466,672.507 L858.566,674.307 L858.566,660.207 L855.766,660.207 L855.766,674.907 L851.866,675.707 C851.266,675.807 850.766,676.507 850.766,677.107 L850.766,677.307 L850.766,683.107 L850.766,682.907 C850.766,683.707 851.366,684.307 852.166,684.307 L852.466,684.307 L855.766,683.607 L855.766,700.107 L851.866,700.907 C851.266,701.007 850.766,701.707 850.766,702.307 L850.766,708.107 C850.766,708.907 851.366,709.507 852.166,709.507 L852.466,709.507 L855.766,708.807 L855.766,723.707 L858.566,723.707 L858.566,708.207 L867.466,706.407 L867.466,720.507 L870.266,720.507 L870.266,705.807 L874.066,705.107 C874.666,705.007 875.166,704.307 875.166,703.707 L875.166,697.807 C875.166,697.007 874.566,696.407 873.766,696.407 L873.566,696.407 L870.266,697.107 L870.266,680.607 L874.066,679.907 M858.566,699.607 L858.566,683.007 L867.466,681.207 L867.466,697.707 L858.566,699.607 "/>
<path class="Accidental" d="M1071.64,667.406 C1072.24,667.306 1072.74,666.606 1072.74,666.006 L1072.74,660.106 C1072.74,659.306 1072.14,658.706 1071.34,658.706 L1071.14,658.706 L1067.84,659.406 L1067.84,644.506 L1065.04,644.506 L1065.04,660.006 L1056.14,661.806 L1056.14,647.706 L1053.34,647.706 L1053.34,662.406 L1049.44,663.206 C1048.84,663.306 1048.34,664.006 1048.34,664.606 L1048.34,664.806 L1048.34,670.606 L1048.34,670.406 C1048.34,671.206 1048.94,671.806 1049.74,671.806 L1050.04,671.806 L1053.34,671.106 L1053.34,687.606 L1049.44,688.406 C1048.84,688.506 1048.34,689.206 1048.34,689.806 L1048.34,695.606 C1048.34,696.406 1048.94,697.006 1049.74,697.006 L1050.04,697.006 L1053.34,696.306 L1053.34,711.206 L1056.14,711.206 L1056.14,695.706 L1065.04,693.906 L1065.04,708.006 L1067.84,708.006 L1067.84,693.306 L1071.64,692.606 C1072.24,692.506 1072.74,691.806 1072.74,691.206 L1072.74,685.306 C1072.74,684.506 1072.14,683.906 1071.34,683.906 L1071.14,683.906 L1067.84,684.606 L1067.84,668.106 L1071.64,667.406 M1056.14,687.106 L1056.14,670.506 L1065.04,668.706 L1065.04,685.206 L1056.14,687.106 "/>
<path class="Accidental" d="M1469.29,629.904 C1469.89,629.804 1470.39,629.104 1470.39,628.504 L1470.39,622.604 C1470.39,621.804 1469.79,621.204 1468.99,621.204 L1468.79,621.204 L1465.49,621.904 L1465.49,607.004 L1462.69,607.004 L1462.69,622.504 L1453.79,624.304 L1453.79,610.204 L1450.99,610.204 L1450.99,624.904 L1447.09,625.704 C1446.49,625.804 1445.99,626.504 1445.99,627.104 L1445.99,627.304 L1445.99,633.104 L1445.99,632.904 C1445.99,633.704 1446.59,634.304 1447.39,634.304 L1447.69,634.304 L1450.99,633.604 L1450.99,650.104 L1447.09,650.904 C1446.49,651.004 1445.99,651.704 1445.99,652.304 L1445.99,658.104 C1445.99,658.904 1446.59,659.504 1447.39,659.504 L1447.69,659.504 L1450.99,658.804 L1450.99,673.704 L1453.79,673.704 L1453.79,658.204 L1462.69,656.404 L1462.69,670.504 L1465.49,670.504 L1465.49,655.804 L1469.29,655.104 C1469.89,655.004 1470.39,654.304 1470.39,653.704 L1470.39,647.804 C1470.39,647.004 1469.79,646.404 1468.99,646.404 L1468.79,646.404 L1465.49,647.104 L1465.49,630.604 L1469.29,629.904 M1453.79,649.604 L1453.79,633.004 L1462.69,631.204 L1462.69,647.704 L1453.79,649.604 "/>
<path class="Accidental" d="M1931.09,667.406 C1931.69,667.306 1932.19,666.606 1932.19,666.006 L1932.19,660.106 C1932.19,659.306 1931.59,658.706 1930.79,658.706 L1930.59,658.706 L1927.29,659.406 L1927.29,644.506 L1924.49,644.506 L1924.49,660.006 L1915.59,661.806 L1915.59,647.706 L1912.79,647.706 L1912.79,662.406 L1908.89,663.206 C1908.29,663.306 1907.79,664.006 1907.79,664.606 L1907.79,664.806 L1907.79,670.606 L1907.79,670.406 C1907.79,671.206 1908.39,671.806 1909.19,671.806 L1909.49,671.806 L1912.79,671.106 L1912.79,687.606 L1908.89,688.406 C1908.29,688.506 1907.79,689.206 1907.79,689.806 L1907.79,695.606 C1907.79,696.406 1908.39,697.006 1909.19,697.006 L1909.49,697.006 L1912.79,696.306 L1912.79,711.206 L1915.59,711.206 L1915.59,695.706 L1924.49,693.906 L1924.49,708.006 L1927.29,708.006 L1927.29,693.306 L1931.09,692.606 C1931.69,692.506 1932.19,691.806 1932.19,691.206 L1932.19,685.306 C1932.19,684.506 1931.59,683.906 1930.79,683.906 L1930.59,683.906 L1927.29,684.606 L1927.29,668.106 L1931.09,667.406 M1915.59,687.106 L1915.59,670.506 L1924.49,668.706 L1924.49,685.206 L1915.59,687.106 "/>
<path class="Accidental" d="M2072.84,679.907 C2073.44,679.807 2073.94,679.107 2073.94,678.507 L2073.94,672.607 C2073.94,671.807 2073.34,671.207 2072.54,671.207 L2072.34,671.207 L2069.04,671.907 L2069.04,657.007 L2066.24,657.007 L2066.24,672.507 L2057.34,674.307 L2057.34,660.207 L2054.54,660.207 L2054.54,674.907 L2050.64,675.707 C2050.04,675.807 2049.54,676.507 2049.54,677.107 L2049.54,677.307 L2049.54,683.107 L2049.54,682.907 C2049.54,683.707 2050.14,684.307 2050.94,684.307 L2051.24,684.307 L2054.54,683.607 L2054.54,700.107 L2050.64,700.907 C2050.04,701.007 2049.54,701.707 2049.54,702.307 L2049.54,708.107 C2049.54,708.907 2050.14,709.507 2050.94,709.507 L2051.24,709.507 L2054.54,708.807 L2054.54,723.707 L2057.34,723.707 L2057.34,708.207 L2066.24,706.407 L2066.24,720.507 L2069.04,720.507 L2069.04,705.807 L2072.84,705.107 C2073.44,705.007 2073.94,704.307 2073.94,703.707 L2073.94,697.807 C2073.94,697.007 2073.34,696.407 2072.54,696.407 L2072.34,696.407 L2069.04,697.107 L2069.04,680.607 L2072.84,679.907 M2057.34,699.607 L2057.34,683.007 L2066.24,681.207 L2066.24,697.707 L2057.34,699.607 "/>
<path class="Accidental" d="M2383.17,704.909 C2383.77,704.809 2384.27,704.109 2384.27,703.509 L2384.27,697.609 C2384.27,696.809 2383.67,696.209 2382.87,696.209 L2382.67,696.209 L2379.37,696.909 L2379.37,682.009 L2376.57,682.009 L2376.57,697.509 L2367.67,699.309 L2367.67,685.209 L2364.87,685.209 L2364.87,699.909 L2360.97,700.709 C2360.37,700.809 2359.87,701.509 2359.87,702.109 L2359.87,702.309 L2359.87,708.109 L2359.87,707.909 C2359.87,708.709 2360.47,709.309 2361.27,709.309 L2361.57,709.309 L2364.87,708.609 L2364.87,725.109 L2360.97,725.909 C2360.37,726.009 2359.87,726.709 2359.87,727.309 L2359.87,733.109 C2359.87,733.909 2360.47,734.509 2361.27,734.509 L2361.57,734.509 L2364.87,733.809 L2364.87,748.709 L2367.67,748.709 L2367.67,733.209 L2376.57,731.409 L2376.57,745.509 L2379.37,745.509 L2379.37,730.809 L2383.17,730.109 C2383.77,730.009 2384.27,729.309 2384.27,728.709 L2384.27,722.809 C2384.27,722.009 2383.67,721.409 2382.87,721.409 L2382.67,721.409 L2379.37,722.109 L2379.37,705.609 L2383.17,704.909 M2367.67,724.609 L2367.67,708.009 L2376.57,706.209 L2376.57,722.709 L2367.67,724.609 "/>
<path class="Accidental" d="M2514.75,717.409 C2515.35,717.309 2515.85,716.609 2515.85,716.009 L2515.85,710.109 C2515.85,709.309 2515.25,708.709 2514.45,708.709 L2514.25,708.709 L2510.95,709.409 L2510.95,694.509 L2508.15,694.509 L2508.15,710.009 L2499.25,711.809 L2499.25,697.709 L2496.45,697.709 L2496.45,712.409 L2492.55,713.209 C2491.95,713.309 2491.45,714.009 2491.45,714.609 L2491.45,714.809 L2491.45,720.609 L2491.45,720.409 C2491.45,721.209 2492.05,721.809 2492.85,721.809 L2493.15,721.809 L2496.45,721.109 L2496.45,737.609 L2492.55,738.409 C2491.95,738.509 2491.45,739.209 2491.45,739.809 L2491.45,745.609 C2491.45,746.409 2492.05,747.009 2492.85,747.009 L2493.15,747.009 L2496.45,746.309 L2496.45,761.209 L2499.25,761.209 L2499.25,745.709 L2508.15,743.909 L2508.15,758.009 L2510.95,758.009 L2510.95,743.309 L2514.75,742.609 C2515.35,742.509 2515.85,741.809 2515.85,741.209 L2515.85,735.309 C2515.85,734.509 2515.25,733.909 2514.45,733.909 L2514.25,733.909 L2510.95,734.609 L2510.95,718.109 L2514.75,717.409 M2499.25,737.109 L2499.25,720.509 L2508.15,718.709 L2508.15,735.209 L2499.25,737.109 "/>
<polyline class="LedgerLine" fill="none" stroke="#000000" stroke-width="4.00" stroke-linejoin="bevel" points="872.666,890.52 922.661,890.52"/>
<polyline class="LedgerLine" fill="none" stroke="#000000" stroke-width="4.00" stroke-linejoin="bevel" points="1070.24,890.52 1120.23,890.52"/>
<polyline class="LedgerLine" fill="none" stroke="#000000" stroke-width="4.00" stroke-linejoin="bevel" points="1202.79,890.52 1252.79,890.52"/>
<polyline class="LedgerLine" fill="none" stroke="#000000" stroke-width="4.00" stroke-linejoin="bevel" points="1202.79,865.518 1252.79,865.518"/>
<polyline class="LedgerLine" fill="none" stroke="#000000" stroke-width="4.00" stroke-linejoin="bevel" points="1335.34,890.52 1385.34,890.52"/>
<polyline class="LedgerLine" fill="none" stroke="#000000" stroke-width="4.00" stroke-linejoin="bevel" points="1335.34,865.518 1385.34,865.518"/>
<polyline class="LedgerLine" fill="none" stroke="#000000" stroke-width="4.00" stroke-linejoin="bevel" points="1335.34,840.517 1385.34,840.517"/>
<polyline class="LedgerLine" fill="none" stroke="#000000" stroke-width="4.00" stroke-linejoin="bevel" points="1467.89,890.52 1517.89,890.52"/>
<polyline class="LedgerLine" fill="none" stroke="#000000" stroke-width="4.00" stroke-linejoin="bevel" points="1467.89,865.518 1517.89,865.518"/>
<polyline class="LedgerLine" fill="none" stroke="#000000" stroke-width="4.00" stroke-linejoin="bevel" points="1467.89,840.517 1517.89,840.517"/>
<polyline class="LedgerLine" fill="none" stroke="#000000" stroke-width="4.00" stroke-linejoin="bevel" points="1646.2,890.52 1696.19,890.52"/>
<polyline class="LedgerLine" fill="none" stroke="#000000" stroke-width="4.00" stroke-linejoin="bevel" points="1646.2,865.518 1696.19,865.518"/>
<polyline class="LedgerLine" fill="none" stroke="#000000" stroke-width="4.00" stroke-linejoin="bevel" points="1646.2,840.517 1696.19,840.517"/>
<polyline class="LedgerLine" fill="none" stroke="#000000" stroke-width="4.00" stroke-linejoin="bevel" points="1787.95,890.52 1837.94,890.52"/>
<polyline class="LedgerLine" fill="none" stroke="#000000" stroke-width="4.00" stroke-linejoin="bevel" points="1787.95,865.518 1837.94,865.518"/>
<polyline class="LedgerLine" fill="none" stroke="#000000" stroke-width="4.00" stroke-linejoin="bevel" points="1929.69,890.52 1979.69,890.52"/>
<polyline class="LedgerLine" fill="none" stroke="#000000" stroke-width="4.00" stroke-linejoin="bevel" points="2071.44,890.52 2121.43,890.52"/>
<polyline class="Stem" fill="none" stroke="#000000" stroke-width="2.75" stroke-linejoin="bevel" points="487.028,931.542 487.028,1015.53"/>
<polyline class="Stem" fill="none" stroke="#000000" stroke-width="2.75" stroke-linejoin="bevel" points="618.949,919.042 618.949,1003.03"/>
<polyline class="Stem" fill="none" stroke="#000000" stroke-width="2.75" stroke-linejoin="bevel" points="750.87,906.541 750.87,990.526"/>
<polyline class="Stem" fill="none" stroke="#000000" stroke-width="2.75" stroke-linejoin="bevel" points="882.791,894.04 882.791,978.025"/>
<polyline class="Stem" fill="none" stroke="#000000" stroke-width="2.75" stroke-linejoin="bevel" points="1080.36,881.539 1080.36,965.524"/>
<polyline class="Stem" fill="none" stroke="#000000" stroke-width="2.75" stroke-linejoin="bevel" points="1212.92,869.038 1212.92,965.524"/>
<polyline class="Stem" fill="none" stroke="#000000" stroke-width="2.75" stroke-linejoin="bevel" points="1345.47,844.037 1345.47,965.524"/>
<polyline class="Stem" fill="none" stroke="#000000" stroke-width="2.75" stroke-linejoin="bevel" points="1478.02,844.037 1478.02,965.524"/>
<polyline class="Stem" fill="none" stroke="#000000" stroke-width="2.75" stroke-linejoin="bevel" points="1656.32,844.037 1656.32,965.524"/>
<polyline class="Stem" fill="none" stroke="#000000" stroke-width="2.75" stroke-linejoin="bevel" points="1798.07,869.038 1798.07,965.524"/>
<polyline class="Stem" fill="none" stroke="#000000" stroke-width="2.75" stroke-linejoin="bevel" points="1939.82,881.539 1939.82,965.524"/>
<polyline class="Stem" fill="none" stroke="#000000" stroke-width="2.75" stroke-linejoin="bevel" points="2081.56,894.04 2081.56,978.025"/>
<polyline class="Stem" fill="none" stroke="#000000" stroke-width="2.75" stroke-linejoin="bevel" points="2260.31,906.541 2260.31,990.526"/>
<polyline class="Stem" fill="none" stroke="#000000" stroke-width="2.75" stroke-linejoin="bevel" points="2391.89,919.042 2391.89,1003.03"/>
<polyline class="Stem" fill="none" stroke="#000000" stroke-width="2.75" stroke-linejoin="bevel" points="2523.48,931.462 2523.48,1015.53"/>
<polyline class="Stem" fill="none" stroke="#000000" stroke-width="2.75" stroke-linejoin="bevel" points="516.772,724.649 516.772,643.629"/>
<polyline class="Stem" fill="none" stroke="#000000" stroke-width="2.75" stroke-linejoin="bevel" points="648.693,712.148 648.693,634.254"/>
<polyline class="Stem" fill="none" stroke="#000000" stroke-width="2.75" stroke-linejoin="bevel" points="750.87,706.528 750.87,781.138"/>
<polyline class="Stem" fill="none" stroke="#000000" stroke-width="2.75" stroke-linejoin="bevel" points="882.791,694.027 882.791,771.762"/>
<polyline class="Stem" fill="none" stroke="#000000" stroke-width="2.75" stroke-linejoin="bevel" points="1080.36,681.527 1080.36,762.387"/>
<polyline class="Stem" fill="none" stroke="#000000" stroke-width="2.75" stroke-linejoin="bevel" points="1212.92,669.026 1212.92,753.011"/>
<polyline class="Stem" fill="none" stroke="#000000" stroke-width="2.75" stroke-linejoin="bevel" points="1345.47,644.024 1345.47,728.009"/>
<polyline class="Stem" fill="none" stroke="#000000" stroke-width="2.75" stroke-linejoin="bevel" points="1478.02,644.024 1478.02,728.009"/>
<polyline class="Stem" fill="none" stroke="#000000" stroke-width="2.75" stroke-linejoin="bevel" points="1656.32,644.024 1656.32,728.009"/>
<polyline class="Stem" fill="none" stroke="#000000" stroke-width="2.75" stroke-linejoin="bevel" points="1798.07,669.026 1798.07,753.011"/>
<polyline class="Stem" fill="none" stroke="#000000" stroke-width="2.75" stroke-linejoin="bevel" points="1939.82,681.527 1939.82,762.387"/>
<polyline class="Stem" fill="none" stroke="#000000" stroke-width="2.75" stroke-linejoin="bevel" points="2081.56,694.027 2081.56,771.762"/>
<polyline class="Stem" fill="none" stroke="#000000" stroke-width="2.75" stroke-linejoin="bevel" points="2260.31,706.528 2260.31,781.138"/>
<polyline class="Stem" fill="none" stroke="#000000" stroke-width="2.75" stroke-linejoin="bevel" points="2421.64,712.148 2421.64,634.254"/>
<polyline class="Stem" fill="none" stroke="#000000" stroke-width="2.75" stroke-linejoin="bevel" points="2553.22,724.569 2553.22,643.629"/>
<path class="Note" d="M517.153,919.822 C515.653,917.122 512.753,915.422 508.853,915.022 C508.253,914.922 507.753,914.922 507.153,914.922 C503.653,914.922 499.853,915.922 496.353,917.822 C489.753,921.422 485.653,927.322 485.653,932.422 C485.653,933.822 485.853,935.122 486.553,936.322 C488.053,939.022 491.053,940.722 494.953,941.122 C495.553,941.222 496.053,941.222 496.653,941.222 C500.153,941.222 503.853,940.222 507.353,938.322 C513.953,934.722 518.153,928.922 518.153,923.822 C518.153,922.422 517.853,921.022 517.153,919.822"/>
<path class="Note" d="M649.074,907.321 C647.574,904.621 644.674,902.921 640.774,902.521 C640.174,902.421 639.674,902.421 639.074,902.421 C635.574,902.421 631.774,903.421 628.274,905.321 C621.674,908.921 617.574,914.821 617.574,919.921 C617.574,921.321 617.774,922.621 618.474,923.821 C619.974,926.521 622.974,928.221 626.874,928.621 C627.474,928.721 627.974,928.721 628.574,928.721 C632.074,928.721 635.774,927.721 639.274,925.821 C645.874,922.221 650.074,916.421 650.074,911.321 C650.074,909.921 649.774,908.521 649.074,907.321"/>
<path class="Note" d="M780.995,894.82 C779.495,892.12 776.595,890.42 772.695,890.02 C772.095,889.92 771.595,889.92 770.995,889.92 C767.495,889.92 763.695,890.92 760.195,892.82 C753.595,896.42 749.495,902.32 749.495,907.42 C749.495,908.82 749.695,910.12 750.395,911.32 C751.895,914.02 754.895,915.72 758.795,916.12 C759.395,916.22 759.895,916.22 760.495,916.22 C763.995,916.22 767.695,915.22 771.195,913.32 C777.795,909.72 781.995,903.92 781.995,898.82 C781.995,897.42 781.695,896.02 780.995,894.82"/>
<path class="Note" d="M912.916,882.32 C911.416,879.62 908.516,877.92 904.616,877.52 C904.016,877.42 903.516,877.42 902.916,877.42 C899.416,877.42 895.616,878.42 892.116,880.32 C885.516,883.92 881.416,889.82 881.416,894.92 C881.416,896.32 881.616,897.62 882.316,898.82 C883.816,901.52 886.816,903.22 890.716,903.62 C891.316,903.72 891.816,903.72 892.416,903.72 C895.916,903.72 899.616,902.72 903.116,900.82 C909.716,897.22 913.916,891.42 913.916,886.32 C913.916,884.92 913.616,883.52 912.916,882.32"/>
<path class="Note" d="M1110.49,869.819 C1108.99,867.119 1106.09,865.419 1102.19,865.019 C1101.59,864.919 1101.09,864.919 1100.49,864.919 C1096.99,864.919 1093.19,865.919 1089.69,867.819 C1083.09,871.419 1078.99,877.319 1078.99,882.419 C1078.99,883.819 1079.19,885.119 1079.89,886.319 C1081.39,889.019 1084.39,890.719 1088.29,891.119 C1088.89,891.219 1089.39,891.219 1089.99,891.219 C1093.49,891.219 1097.19,890.219 1100.69,888.319 C1107.29,884.719 1111.49,878.919 1111.49,873.819 C1111.49,872.419 1111.19,871.019 1110.49,869.819"/>
<path class="Note" d="M1243.04,857.318 C1241.54,854.618 1238.64,852.918 1234.74,852.518 C1234.14,852.418 1233.64,852.418 1233.04,852.418 C1229.54,852.418 1225.74,853.418 1222.24,855.318 C1215.64,858.918 1211.54,864.818 1211.54,869.918 C1211.54,871.318 1211.74,872.618 1212.44,873.818 C1213.94,876.518 1216.94,878.218 1220.84,878.618 C1221.44,878.718 1221.94,878.718 1222.54,878.718 C1226.04,878.718 1229.74,877.718 1233.24,875.818 C1239.84,872.218 1244.04,866.418 1244.04,861.318 C1244.04,859.918 1243.74,858.518 1243.04,857.318"/>
<path class="Note" d="M1375.59,832.317 C1374.09,829.617 1371.19,827.917 1367.29,827.517 C1366.69,827.417 1366.19,827.417 1365.59,827.417 C1362.09,827.417 1358.29,828.417 1354.79,830.317 C1348.19,833.917 1344.09,839.817 1344.09,844.917 C1344.09,846.317 1344.29,847.617 1344.99,848.817 C1346.49,851.517 1349.49,853.217 1353.39,853.617 C1353.99,853.717 1354.49,853.717 1355.09,853.717 C1358.59,853.717 1362.29,852.717 1365.79,850.817 C1372.39,847.217 1376.59,841.417 1376.59,836.317 C1376.59,834.917 1376.29,833.517 1375.59,832.317"/>
<path class="Note" d="M1508.14,832.317 C1506.64,829.617 1503.74,827.917 1499.84,827.517 C1499.24,827.417 1498.74,827.417 1498.14,827.417 C1494.64,827.417 1490.84,828.417 1487.34,830.317 C1480.74,833.917 1476.64,839.817 1476.64,844.917 C1476.64,846.317 1476.84,847.617 1477.54,848.817 C1479.04,851.517 1482.04,853.217 1485.94,853.617 C1486.54,853.717 1487.04,853.717 1487.64,853.717 C1491.14,853.717 1494.84,852.717 1498.34,850.817 C1504.94,847.217 1509.14,841.417 1509.14,836.317 C1509.14,834.917 1508.84,833.517 1508.14,832.317"/>
<path class="Note" d="M1686.45,832.317 C1684.95,829.617 1682.05,827.917 1678.15,827.517 C1677.55,827.417 1677.05,827.417 1676.45,827.417 C1672.95,827.417 1669.15,828.417 1665.65,830.317 C1659.05,833.917 1654.95,839.817 1654.95,844.917 C1654.95,846.317 1655.15,847.617 1655.85,848.817 C1657.35,851.517 1660.35,853.217 1664.25,853.617 C1664.85,853.717 1665.35,853.717 1665.95,853.717 C1669.45,853.717 1673.15,852.717 1676.65,850.817 C1683.25,847.217 1687.45,841.417 1687.45,836.317 C1687.45,834.917 1687.15,833.517 1686.45,832.317"/>
<path class="Note" d="M1828.2,857.318 C1826.7,854.618 1823.8,852.918 1819.9,852.518 C1819.3,852.418 1818.8,852.418 1818.2,852.418 C1814.7,852.418 1810.9,853.418 1807.4,855.318 C1800.8,858.918 1796.7,864.818 1796.7,869.918 C1796.7,871.318 1796.9,872.618 1797.6,873.818 C1799.1,876.518 1802.1,878.218 1806,878.618 C1806.6,878.718 1807.1,878.718 1807.7,878.718 C1811.2,878.718 1814.9,877.718 1818.4,875.818 C1825,872.218 1829.2,866.418 1829.2,861.318 C1829.2,859.918 1828.9,858.518 1828.2,857.318"/>
<path class="Note" d="M1969.94,869.819 C1968.44,867.119 1965.54,865.419 1961.64,865.019 C1961.04,864.919 1960.54,864.919 1959.94,864.919 C1956.44,864.919 1952.64,865.919 1949.14,867.819 C1942.54,871.419 1938.44,877.319 1938.44,882.419 C1938.44,883.819 1938.64,885.119 1939.34,886.319 C1940.84,889.019 1943.84,890.719 1947.74,891.119 C1948.34,891.219 1948.84,891.219 1949.44,891.219 C1952.94,891.219 1956.64,890.219 1960.14,888.319 C1966.74,884.719 1970.94,878.919 1970.94,873.819 C1970.94,872.419 1970.64,871.019 1969.94,869.819"/>
<path class="Note" d="M2111.69,882.32 C2110.19,879.62 2107.29,877.92 2103.39,877.52 C2102.79,877.42 2102.29,877.42 2101.69,877.42 C2098.19,877.42 2094.39,878.42 2090.89,880.32 C2084.29,883.92 2080.19,889.82 2080.19,894.92 C2080.19,896.32 2080.39,897.62 2081.09,898.82 C2082.59,901.52 2085.59,903.22 2089.49,903.62 C2090.09,903.72 2090.59,903.72 2091.19,903.72 C2094.69,903.72 2098.39,902.72 2101.89,900.82 C2108.49,897.22 2112.69,891.42 2112.69,886.32 C2112.69,884.92 2112.39,883.52 2111.69,882.32"/>
<path class="Note" d="M2290.44,894.82 C2288.94,892.12 2286.04,890.42 2282.14,890.02 C2281.54,889.92 2281.04,889.92 2280.44,889.92 C2276.94,889.92 2273.14,890.92 2269.64,892.82 C2263.04,896.42 2258.94,902.32 2258.94,907.42 C2258.94,908.82 2259.14,910.12 2259.84,911.32 C2261.34,914.02 2264.34,915.72 2268.24,916.12 C2268.84,916.22 2269.34,916.22 2269.94,916.22 C2273.44,916.22 2277.14,915.22 2280.64,913.32 C2287.24,909.72 2291.44,903.92 2291.44,898.82 C2291.44,897.42 2291.14,896.02 2290.44,894.82"/>
<path class="Note" d="M2422.02,907.321 C2420.52,904.621 2417.62,902.921 2413.72,902.521 C2413.12,902.421 2412.62,902.421 2412.02,902.421 C2408.52,902.421 2404.72,903.421 2401.22,905.321 C2394.62,908.921 2390.52,914.821 2390.52,919.921 C2390.52,921.321 2390.72,922.621 2391.42,923.821 C2392.92,926.521 2395.92,928.221 2399.82,928.621 C2400.42,928.721 2400.92,928.721 2401.52,928.721 C2405.02,928.721 2408.72,927.721 2412.22,925.821 C2418.82,922.221 2423.02,916.421 2423.02,911.321 C2423.02,909.921 2422.72,908.521 2422.02,907.321"/>
<path class="Note" d="M2553.6,919.822 C2552.1,917.122 2549.2,915.422 2545.3,915.022 C2544.7,914.922 2544.2,914.922 2543.6,914.922 C2540.1,914.922 2536.3,915.922 2532.8,917.822 C2526.2,921.422 2522.1,927.222 2522.1,932.322 C2522.1,933.722 2522.5,935.122 2523.2,936.322 C2524.7,939.122 2527.5,940.722 2531.4,941.122 C2532,941.222 2532.5,941.222 2533.1,941.222 C2536.6,941.222 2540.4,940.222 2543.9,938.322 C2550.5,934.722 2554.6,928.822 2554.6,923.722 C2554.6,922.322 2554.3,921.022 2553.6,919.822 M2549.4,926.122 C2547.7,927.922 2544.5,930.222 2540.9,932.322 C2537.3,934.422 2533.6,936.122 2531.3,936.822 C2530.8,936.922 2530.2,937.022 2529.7,937.022 C2528.2,937.022 2526.9,936.322 2526.2,935.222 C2525.9,934.622 2525.7,934.022 2525.7,933.422 C2525.7,932.322 2526.2,931.222 2527.3,930.022 C2529,928.222 2532.2,925.822 2535.8,923.722 C2539.4,921.622 2543.1,919.922 2545.5,919.322 L2545.7,919.322 C2546.3,919.122 2546.8,919.022 2547.3,919.022 C2548.7,919.022 2549.8,919.622 2550.5,920.922 C2550.8,921.522 2551,922.022 2551,922.622 C2551,923.922 2550.3,925.222 2549.4,926.122"/>
<path class="Note" d="M517.153,719.809 C515.653,717.109 512.753,715.409 508.853,715.009 C508.253,714.909 507.753,714.909 507.153,714.909 C503.653,714.909 499.853,715.909 496.353,717.809 C489.753,721.409 485.653,727.309 485.653,732.409 C485.653,733.809 485.853,735.109 486.553,736.309 C488.053,739.009 491.053,740.709 494.953,741.109 C495.553,741.209 496.053,741.209 496.653,741.209 C500.153,741.209 503.853,740.209 507.353,738.309 C513.953,734.709 518.153,728.909 518.153,723.809 C518.153,722.409 517.853,721.009 517.153,719.809"/>
<path class="Note" d="M649.074,707.309 C647.574,704.609 644.674,702.909 640.774,702.509 C640.174,702.409 639.674,702.409 639.074,702.409 C635.574,702.409 631.774,703.409 628.274,705.309 C621.674,708.909 617.574,714.809 617.574,719.909 C617.574,721.309 617.774,722.609 618.474,723.809 C619.974,726.509 622.974,728.209 626.874,728.609 C627.474,728.709 627.974,728.709 628.574,728.709 C632.074,728.709 635.774,727.709 639.274,725.809 C645.874,722.209 650.074,716.409 650.074,711.309 C650.074,709.909 649.774,708.509 649.074,707.309"/>
<path class="Note" d="M780.995,694.808 C779.495,692.108 776.595,690.408 772.695,690.008 C772.095,689.908 771.595,689.908 770.995,689.908 C767.495,689.908 763.695,690.908 760.195,692.808 C753.595,696.408 749.495,702.308 749.495,707.408 C749.495,708.808 749.695,710.108 750.395,711.308 C751.895,714.008 754.895,715.708 758.795,716.108 C759.395,716.208 759.895,716.208 760.495,716.208 C763.995,716.208 767.695,715.208 771.195,713.308 C777.795,709.708 781.995,703.908 781.995,698.808 C781.995,697.408 781.695,696.008 780.995,694.808"/>
<path class="Note" d="M912.916,682.307 C911.416,679.607 908.516,677.907 904.616,677.507 C904.016,677.407 903.516,677.407 902.916,677.407 C899.416,677.407 895.616,678.407 892.116,680.307 C885.516,683.907 881.416,689.807 881.416,694.907 C881.416,696.307 881.616,697.607 882.316,698.807 C883.816,701.507 886.816,703.207 890.716,703.607 C891.316,703.707 891.816,703.707 892.416,703.707 C895.916,703.707 899.616,702.707 903.116,700.807 C909.716,697.207 913.916,691.407 913.916,686.307 C913.916,684.907 913.616,683.507 912.916,682.307"/>
<path class="Note" d="M1110.49,669.806 C1108.99,667.106 1106.09,665.406 1102.19,665.006 C1101.59,664.906 1101.09,664.906 1100.49,664.906 C1096.99,664.906 1093.19,665.906 1089.69,667.806 C1083.09,671.406 1078.99,677.306 1078.99,682.406 C1078.99,683.806 1079.19,685.106 1079.89,686.306 C1081.39,689.006 1084.39,690.706 1088.29,691.106 C1088.89,691.206 1089.39,691.206 1089.99,691.206 C1093.49,691.206 1097.19,690.206 1100.69,688.306 C1107.29,684.706 1111.49,678.906 1111.49,673.806 C1111.49,672.406 1111.19,671.006 1110.49,669.806"/>
<path class="Note" d="M1243.04,657.306 C1241.54,654.606 1238.64,652.906 1234.74,652.506 C1234.14,652.406 1233.64,652.406 1233.04,652.406 C1229.54,652.406 1225.74,653.406 1222.24,655.306 C1215.64,658.906 1211.54,664.806 1211.54,669.906 C1211.54,671.306 1211.74,672.606 1212.44,673.806 C1213.94,676.506 1216.94,678.206 1220.84,678.606 C1221.44,678.706 1221.94,678.706 1222.54,678.706 C1226.04,678.706 1229.74,677.706 1233.24,675.806 C1239.84,672.206 1244.04,666.406 1244.04,661.306 C1244.04,659.906 1243.74,658.506 1243.04,657.306"/>
<path class="Note" d="M1375.59,632.304 C1374.09,629.604 1371.19,627.904 1367.29,627.504 C1366.69,627.404 1366.19,627.404 1365.59,627.404 C1362.09,627.404 1358.29,628.404 1354.79,630.304 C1348.19,633.904 1344.09,639.804 1344.09,644.904 C1344.09,646.304 1344.29,647.604 1344.99,648.804 C1346.49,651.504 1349.49,653.204 1353.39,653.604 C1353.99,653.704 1354.49,653.704 1355.09,653.704 C1358.59,653.704 1362.29,652.704 1365.79,650.804 C1372.39,647.204 1376.59,641.404 1376.59,636.304 C1376.59,634.904 1376.29,633.504 1375.59,632.304"/>
<path class="Note" d="M1508.14,632.304 C1506.64,629.604 1503.74,627.904 1499.84,627.504 C1499.24,627.404 1498.74,627.404 1498.14,627.404 C1494.64,627.404 1490.84,628.404 1487.34,630.304 C1480.74,633.904 1476.64,639.804 1476.64,644.904 C1476.64,646.304 1476.84,647.604 1477.54,648.804 C1479.04,651.504 1482.04,653.204 1485.94,653.604 C1486.54,653.704 1487.04,653.704 1487.64,653.704 C1491.14,653.704 1494.84,652.704 1498.34,650.804 C1504.94,647.204 1509.14,641.404 1509.14,636.304 C1509.14,634.904 1508.84,633.504 1508.14,632.304"/>
<path class="Note" d="M1686.45,632.304 C1684.95,629.604 1682.05,627.904 1678.15,627.504 C1677.55,627.404 1677.05,627.404 1676.45,627.404 C1672.95,627.404 1669.15,628.404 1665.65,630.304 C1659.05,633.904 1654.95,639.804 1654.95,644.904 C1654.95,646.304 1655.15,647.604 1655.85,648.804 C1657.35,651.504 1660.35,653.204 1664.25,653.604 C1664.85,653.704 1665.35,653.704 1665.95,653.704 C1669.45,653.704 1673.15,652.704 1676.65,650.804 C1683.25,647.204 1687.45,641.404 1687.45,636.304 C1687.45,634.904 1687.15,633.504 1686.45,632.304"/>
<path class="Note" d="M1828.2,657.306 C1826.7,654.606 1823.8,652.906 1819.9,652.506 C1819.3,652.406 1818.8,652.406 1818.2,652.406 C1814.7,652.406 1810.9,653.406 1807.4,655.306 C1800.8,658.906 1796.7,664.806 1796.7,669.906 C1796.7,671.306 1796.9,672.606 1797.6,673.806 C1799.1,676.506 1802.1,678.206 1806,678.606 C1806.6,678.706 1807.1,678.706 1807.7,678.706 C1811.2,678.706 1814.9,677.706 1818.4,675.806 C1825,672.206 1829.2,666.406 1829.2,661.306 C1829.2,659.906 1828.9,658.506 1828.2,657.306"/>
<path class="Note" d="M1969.94,669.806 C1968.44,667.106 1965.54,665.406 1961.64,665.006 C1961.04,664.906 1960.54,664.906 1959.94,664.906 C1956.44,664.906 1952.64,665.906 1949.14,667.806 C1942.54,671.406 1938.44,677.306 1938.44,682.406 C1938.44,683.806 1938.64,685.106 1939.34,686.306 C1940.84,689.006 1943.84,690.706 1947.74,691.106 C1948.34,691.206 1948.84,691.206 1949.44,691.206 C1952.94,691.206 1956.64,690.206 1960.14,688.306 C1966.74,684.706 1970.94,678.906 1970.94,673.806 C1970.94,672.406 1970.64,671.006 1969.94,669.806"/>
<path class="Note" d="M2111.69,682.307 C2110.19,679.607 2107.29,677.907 2103.39,677.507 C2102.79,677.407 2102.29,677.407 2101.69,677.407 C2098.19,677.407 2094.39,678.407 2090.89,680.307 C2084.29,683.907 2080.19,689.807 2080.19,694.907 C2080.19,696.307 2080.39,697.607 2081.09,698.807 C2082.59,701.507 2085.59,703.207 2089.49,703.607 C2090.09,703.707 2090.59,703.707 2091.19,703.707 C2094.69,703.707 2098.39,702.707 2101.89,700.807 C2108.49,697.207 2112.69,691.407 2112.69,686.307 C2112.69,684.907 2112.39,683.507 2111.69,682.307"/>
<path class="Note" d="M2290.44,694.808 C2288.94,692.108 2286.04,690.408 2282.14,690.008 C2281.54,689.908 2281.04,689.908 2280.44,689.908 C2276.94,689.908 2273.14,690.908 2269.64,692.808 C2263.04,696.408 2258.94,702.308 2258.94,707.408 C2258.94,708.808 2259.14,710.108 2259.84,711.308 C2261.34,714.008 2264.34,715.708 2268.24,716.108 C2268.84,716.208 2269.34,716.208 2269.94,716.208 C2273.44,716.208 2277.14,715.208 2280.64,713.308 C2287.24,709.708 2291.44,703.908 2291.44,698.808 C2291.44,697.408 2291.14,696.008 2290.44,694.808"/>
<path class="Note" d="M2422.02,707.309 C2420.52,704.609 2417.62,702.909 2413.72,702.509 C2413.12,702.409 2412.62,702.409 2412.02,702.409 C2408.52,702.409 2404.72,703.409 2401.22,705.309 C2394.62,708.909 2390.52,714.809 2390.52,719.909 C2390.52,721.309 2390.72,722.609 2391.42,723.809 C2392.92,726.509 2395.92,728.209 2399.82,728.609 C2400.42,728.709 2400.92,728.709 2401.52,728.709 C2405.02,728.709 2408.72,727.709 2412.22,725.809 C2418.82,722.209 2423.02,716.409 2423.02,711.309 C2423.02,709.909 2422.72,708.509 2422.02,707.309"/>
<path class="Note" d="M2553.6,719.809 C2552.1,717.109 2549.2,715.409 2545.3,715.009 C2544.7,714.909 2544.2,714.909 2543.6,714.909 C2540.1,714.909 2536.3,715.909 2532.8,717.809 C2526.2,721.409 2522.1,727.209 2522.1,732.309 C2522.1,733.709 2522.5,735.109 2523.2,736.309 C2524.7,739.109 2527.5,740.709 2531.4,741.109 C2532,741.209 2532.5,741.209 2533.1,741.209 C2536.6,741.209 2540.4,740.209 2543.9,738.309 C2550.5,734.709 2554.6,728.809 2554.6,723.709 C2554.6,722.309 2554.3,721.009 2553.6,719.809 M2549.4,726.109 C2547.7,727.909 2544.5,730.209 2540.9,732.309 C2537.3,734.409 2533.6,736.109 2531.3,736.809 C2530.8,736.909 2530.2,737.009 2529.7,737.009 C2528.2,737.009 2526.9,736.309 2526.2,735.209 C2525.9,734.609 2525.7,734.009 2525.7,733.409 C2525.7,732.309 2526.2,731.209 2527.3,730.009 C2529,728.209 2532.2,725.809 2535.8,723.709 C2539.4,721.609 2543.1,719.909 2545.5,719.309 L2545.7,719.309 C2546.3,719.109 2546.8,719.009 2547.3,719.009 C2548.7,719.009 2549.8,719.609 2550.5,720.909 C2550.8,721.509 2551,722.009 2551,722.609 C2551,723.909 2550.3,725.209 2549.4,726.109"/>
<path class="Clef" d="M297,915.423 C289.4,915.423 283.3,919.823 283.2,919.823 C277.4,924.123 275.1,929.223 274.2,932.723 C273.7,934.523 273.5,936.323 273.5,938.023 C273.5,940.423 273.9,942.623 274.8,944.523 C276,947.223 278.3,949.123 281.3,950.123 C282.5,950.523 283.8,950.723 285.1,950.723 C287.3,950.723 289.6,950.123 291.5,949.023 C294.6,947.323 296.5,943.723 296.5,939.823 C296.5,936.323 294.7,933.123 291.7,931.223 C289.6,929.823 287.6,929.423 285.9,929.423 C284.7,929.423 283.6,929.623 282.7,929.923 C281.7,930.323 280,931.323 279.2,932.023 C279.5,930.123 280.7,927.223 281.8,925.623 C282.9,924.023 285.1,922.023 286.8,921.123 C289.3,919.723 292.5,919.123 296,919.123 C306.2,919.123 311.2,927.323 311.2,944.123 C311.2,953.423 307.7,962.323 304.7,968.223 C301.4,974.823 297,981.123 293.1,984.623 C282.7,994.123 272.9,998.623 272.8,998.623 C272.8,998.623 271.3,999.523 271.7,1001.02 C272,1002.02 272.9,1002.22 273.5,1002.22 C273.6,1002.22 273.9,1002.12 274,1002.12 C274.1,1002.12 285.5,997.423 294.6,990.323 C299.7,986.623 304.3,982.623 308.3,978.323 C311.9,974.423 315,970.223 317.5,966.023 C321.9,958.523 324.4,950.723 324.4,944.023 C324.4,935.723 322.2,928.823 318.1,923.923 C313.4,918.323 306.3,915.423 297,915.423 M328.4,928.123 C328.4,930.923 330.6,933.123 333.2,933.123 C335.8,933.123 338,930.923 338,928.123 C338,925.323 335.8,923.023 333.2,923.023 C330.6,923.023 328.4,925.323 328.4,928.123 M328.4,952.823 C328.4,955.623 330.6,957.923 333.2,957.923 C335.8,957.923 338,955.623 338,952.823 C338,950.023 335.8,947.723 333.2,947.723 C330.6,947.723 328.4,950.023 328.4,952.823"/>
<path class="Clef" d="M335,722.109 C333.8,716.709 331.1,712.809 330.3,711.809 C327.1,707.509 323.1,704.709 318.4,703.309 C316.1,702.609 314,702.409 312,702.409 C311.3,702.409 310.6,702.409 309.9,702.509 C308.9,696.509 307.8,690.609 306.9,685.209 C312.5,679.009 316.2,673.109 318.6,668.709 C322.2,662.009 323.6,657.309 323.7,657.109 C324.9,654.109 325.6,650.309 325.6,645.809 C325.6,643.109 325.3,640.209 324.9,637.209 C323.8,630.109 321.6,623.409 319.1,619.709 C317.8,617.809 316.6,616.709 315.4,616.709 C314.2,616.709 311.7,617.909 308.8,620.709 C306.5,622.909 303.2,626.809 300.6,632.809 C298.3,638.209 297.6,645.109 297.6,651.009 C297.6,652.809 297.7,654.509 297.8,656.109 C298,659.709 298.7,665.509 299.3,669.109 C299.3,669.209 299.6,670.709 300,673.309 L299.3,674.009 C298.3,675.009 297.1,676.109 295.7,677.509 C294.8,678.409 293.9,679.209 292.9,680.209 C284.4,688.409 271.6,700.809 271.6,719.909 C271.6,724.609 272.5,729.009 274.3,733.009 C275.9,736.609 278.2,739.909 281.1,742.809 C288.6,750.209 298.8,753.409 305.9,753.409 L306.5,753.409 C309.4,753.309 312.1,753.009 314.5,752.609 C316.3,762.209 317.5,769.309 317.5,774.609 C317.5,781.109 315.9,785.009 312,787.809 C309.6,789.509 306.7,790.609 303.6,790.709 L302.8,790.709 C301.3,790.709 298.8,790.309 297.3,789.909 C297.3,789.909 297,789.809 297,789.609 C297,789.409 297.4,789.409 297.4,789.409 C299.3,789.009 302.9,787.709 305.3,784.409 C306.4,782.909 307.1,780.609 307.1,778.109 C307.1,776.509 306.8,774.809 306.1,773.309 C305,770.909 302.4,767.909 296.8,767.509 L295.7,767.509 C293.6,767.509 291.8,768.009 290.1,769.009 C288.3,770.109 286.7,771.809 285.7,773.809 C284.6,775.809 284.1,778.009 284.1,780.209 C284.1,783.109 285,785.809 286.8,788.009 C289.8,791.609 294.5,793.909 299.9,794.509 C300.6,794.609 301.7,794.709 302.4,794.709 C306.8,794.709 311.2,793.509 314.8,791.309 C318.5,788.709 320.6,784.709 321.3,779.109 C321.5,777.809 321.5,776.409 321.5,774.909 C321.5,771.009 321,766.309 320,760.509 C319.6,758.409 319.2,755.409 318.5,751.609 C324.3,749.709 328.4,746.009 332.2,740.209 C334.5,736.209 335.6,732.109 335.6,727.809 C335.6,725.909 335.4,724.009 335,722.109 M304.8,644.209 C306.6,638.509 309.3,635.109 311.3,633.409 C313.1,631.909 314.7,631.209 315.6,631.209 C315.7,631.209 315.9,631.309 316,631.309 C316.3,631.409 316.7,631.909 317.1,632.609 C318,634.409 318.9,637.709 318.9,641.409 C318.9,643.309 318.7,645.309 318.1,647.109 C315.9,653.909 311.3,661.209 304.3,668.909 C304.1,667.809 303.9,666.809 303.8,665.809 C303.3,662.609 303,659.409 303,656.509 C303,652.009 303.6,647.909 304.8,644.209 M300.8,748.309 C296.2,747.109 291.7,744.609 287.9,741.109 C286.6,739.909 284.8,737.709 283.3,734.309 C282,731.309 281.3,728.209 281.3,724.809 L281.3,724.109 C281.4,719.409 282.7,714.609 285.2,709.809 C288.1,704.209 292.6,698.709 298.7,693.409 C300.2,692.109 301.6,690.809 302.9,689.509 C303.7,693.809 304.4,698.509 305.3,703.409 C301.4,704.709 296.7,707.709 293.6,713.409 C291.2,717.909 290.5,721.809 290.5,725.009 C290.5,726.509 290.7,727.909 290.9,729.009 C291.8,733.509 294.4,737.209 297.9,739.309 C298.7,739.809 302,741.509 304,741.509 C304.3,741.509 304.6,741.509 304.8,741.409 C305.1,741.309 305.4,741.109 305.5,740.809 C305.6,740.609 305.6,740.409 305.6,740.209 C305.6,739.409 304.8,738.809 303.5,738.009 C302.9,737.609 302.2,737.209 301.5,736.709 C298.9,734.709 297.4,731.609 297.4,728.209 C297.4,727.209 297.6,726.309 297.8,725.309 C298.3,723.309 300,720.509 301.5,719.109 C303.2,717.609 305.2,716.409 307.6,715.809 C309.6,727.009 311.7,738.109 313.3,746.509 C313.4,747.209 313.6,747.909 313.7,748.609 C311.7,749.009 309.7,749.209 307.8,749.209 C305.4,749.209 303.1,748.909 300.8,748.309 M326.5,738.109 C325.3,741.309 322.8,745.309 317.7,747.409 C317.6,747.009 317.6,746.509 317.5,746.109 C316,737.309 314.1,726.409 312.1,715.109 L313.1,715.109 C322.8,715.109 326.7,722.309 327.6,726.909 C327.8,727.809 327.9,729.009 327.9,730.309 C327.9,732.609 327.5,735.409 326.5,738.109"/>
<path class="TimeSig" d="M365.2,953.922 L382,953.922 L382,961.222 L373.9,961.222 C373.1,961.222 372.5,961.822 372.5,962.622 L372.5,964.522 C372.5,965.322 373.1,965.822 373.9,965.822 L403.6,965.822 C404.4,965.822 405,965.322 405,964.522 L405,962.622 C405,961.822 404.4,961.222 403.6,961.222 L394.8,961.222 L394.8,953.922 L403.6,953.922 C404.4,953.922 405,953.322 405,952.522 L405,950.722 C405,949.922 404.4,949.322 403.6,949.322 L394.8,949.322 L394.8,933.622 C394.8,933.122 394.4,932.622 394,932.422 L392.9,931.822 C392.7,931.722 392.4,931.722 392.2,931.722 C391.9,931.722 391.5,931.822 391.3,932.022 L382.4,940.222 C382.2,940.422 382,940.922 382,941.222 L382,949.322 L370.7,949.322 C370.7,949.322 381.6,937.522 393.2,922.022 C394,920.922 393.6,919.922 393.4,919.722 L391.3,917.522 C391.1,917.322 390.6,917.122 390.3,917.122 L375.7,917.122 C375,917.122 374.5,917.722 374.4,918.322 C374.4,918.322 373.9,925.522 371.3,933.522 C368.7,941.522 365.9,946.322 363.3,949.922 C363.3,949.922 362.8,950.922 363.1,951.622 C363.4,952.322 364.1,953.422 364.1,953.422 C364.1,953.422 364.4,953.922 365.2,953.922"/>
<path class="TimeSig" d="M365.2,1002.53 L382,1002.53 L382,1009.83 L373.9,1009.83 C373.1,1009.83 372.5,1010.43 372.5,1011.23 L372.5,1013.13 C372.5,1013.93 373.1,1014.43 373.9,1014.43 L403.6,1014.43 C404.4,1014.43 405,1013.93 405,1013.13 L405,1011.23 C405,1010.43 404.4,1009.83 403.6,1009.83 L394.8,1009.83 L394.8,1002.53 L403.6,1002.53 C404.4,1002.53 405,1001.93 405,1001.13 L405,999.327 C405,998.527 404.4,997.927 403.6,997.927 L394.8,997.927 L394.8,982.227 C394.8,981.727 394.4,981.227 394,981.027 L392.9,980.427 C392.7,980.327 392.4,980.327 392.2,980.327 C391.9,980.327 391.5,980.427 391.3,980.627 L382.4,988.827 C382.2,989.027 382,989.527 382,989.827 L382,997.927 L370.7,997.927 C370.7,997.927 381.6,986.127 393.2,970.627 C394,969.527 393.6,968.527 393.4,968.327 L391.3,966.127 C391.1,965.927 390.6,965.727 390.3,965.727 L375.7,965.727 C375,965.727 374.5,966.327 374.4,966.927 C374.4,966.927 373.9,974.127 371.3,982.127 C368.7,990.127 365.9,994.927 363.3,998.527 C363.3,998.527 362.8,999.527 363.1,1000.23 C363.4,1000.93 364.1,1002.03 364.1,1002.03 C364.1,1002.03 364.4,1002.53 365.2,1002.53"/>
<path class="TimeSig" d="M365.2,691.406 L382,691.406 L382,698.706 L373.9,698.706 C373.1,698.706 372.5,699.306 372.5,700.106 L372.5,702.006 C372.5,702.806 373.1,703.306 373.9,703.306 L403.6,703.306 C404.4,703.306 405,702.806 405,702.006 L405,700.106 C405,699.306 404.4,698.706 403.6,698.706 L394.8,698.706 L394.8,691.406 L403.6,691.406 C404.4,691.406 405,690.806 405,690.006 L405,688.206 C405,687.406 404.4,686.806 403.6,686.806 L394.8,686.806 L394.8,671.106 C394.8,670.606 394.4,670.106 394,669.906 L392.9,669.306 C392.7,669.206 392.4,669.206 392.2,669.206 C391.9,669.206 391.5,669.306 391.3,669.506 L382.4,677.706 C382.2,677.906 382,678.406 382,678.706 L382,686.806 L370.7,686.806 C370.7,686.806 381.6,675.006 393.2,659.506 C394,658.406 393.6,657.406 393.4,657.206 L391.3,655.006 C391.1,654.806 390.6,654.606 390.3,654.606 L375.7,654.606 C375,654.606 374.5,655.206 374.4,655.806 C374.4,655.806 373.9,663.006 371.3,671.006 C368.7,679.006 365.9,683.806 363.3,687.406 C363.3,687.406 362.8,688.406 363.1,689.106 C363.4,689.806 364.1,690.906 364.1,690.906 C364.1,690.906 364.4,691.406 365.2,691.406"/>
<path class="TimeSig" d="M365.2,740.01 L382,740.01 L382,747.31 L373.9,747.31 C373.1,747.31 372.5,747.91 372.5,748.71 L372.5,750.61 C372.5,751.41 373.1,751.91 373.9,751.91 L403.6,751.91 C404.4,751.91 405,751.41 405,750.61 L405,748.71 C405,747.91 404.4,747.31 403.6,747.31 L394.8,747.31 L394.8,740.01 L403.6,740.01 C404.4,740.01 405,739.41 405,738.61 L405,736.81 C405,736.01 404.4,735.41 403.6,735.41 L394.8,735.41 L394.8,719.71 C394.8,719.21 394.4,718.71 394,718.51 L392.9,717.91 C392.7,717.81 392.4,717.81 392.2,717.81 C391.9,717.81 391.5,717.91 391.3,718.11 L382.4,726.31 C382.2,726.51 382,727.01 382,727.31 L382,735.41 L370.7,735.41 C370.7,735.41 381.6,723.61 393.2,708.11 C394,707.01 393.6,706.01 393.4,705.81 L391.3,703.61 C391.1,703.41 390.6,703.21 390.3,703.21 L375.7,703.21 C375,703.21 374.5,703.81 374.4,704.41 C374.4,704.41 373.9,711.61 371.3,719.61 C368.7,727.61 365.9,732.41 363.3,736.01 C363.3,736.01 362.8,737.01 363.1,737.71 C363.4,738.41 364.1,739.51 364.1,739.51 C364.1,739.51 364.4,740.01 365.2,740.01"/>
<path class="Page" d="M226.289,4049.51 C230.384,4048.02 232.274,4045.73 232.274,4042.13 C232.274,4037.4 228.674,4034.39 223.094,4034.39 C217.829,4034.39 213.824,4037.49 213.824,4041.59 C213.824,4043.43 215.039,4044.74 216.794,4044.74 C218.369,4044.74 219.449,4043.66 219.449,4042.04 C219.449,4041.05 219.089,4040.46 218.054,4039.74 C217.604,4039.43 217.469,4039.25 217.469,4038.93 C217.469,4037.67 220.079,4036.32 222.644,4036.32 C225.884,4036.32 227.594,4038.35 227.594,4042.17 C227.594,4046.36 225.884,4048.56 222.689,4048.56 C222.284,4048.56 221.519,4048.52 220.844,4048.47 C220.484,4048.43 220.124,4048.43 219.854,4048.43 C218.909,4048.43 218.414,4048.83 218.414,4049.64 C218.414,4050.41 218.864,4050.77 219.854,4050.77 C220.124,4050.77 220.484,4050.77 220.889,4050.72 C221.789,4050.68 222.509,4050.68 223.004,4050.68 C226.334,4050.68 228.134,4053.06 228.134,4057.52 C228.134,4062.2 225.884,4064.81 221.834,4064.81 C218.999,4064.81 215.939,4063.28 215.939,4061.88 C215.939,4061.48 216.029,4061.39 216.884,4060.89 C218.144,4060.13 218.639,4059.36 218.639,4058.24 C218.639,4056.62 217.424,4055.4 215.804,4055.4 C213.869,4055.4 212.609,4056.98 212.609,4059.36 C212.609,4063.73 216.614,4066.74 222.374,4066.74 C228.899,4066.74 233.129,4063.14 233.129,4057.61 C233.129,4053.38 230.969,4050.81 226.289,4049.51 M252.294,4034.39 L236.994,4055.67 L236.994,4058.19 L249.639,4058.19 L249.639,4060.53 C249.639,4062.83 249.639,4062.92 249.369,4063.32 C249.009,4063.82 248.154,4063.95 245.589,4063.95 L245.094,4063.95 L245.094,4066.07 L258.234,4066.07 L258.234,4063.95 L258.054,4063.95 C255.489,4063.95 254.634,4063.82 254.274,4063.32 C254.004,4062.92 254.004,4062.87 254.004,4060.53 L254.004,4058.19 L259.449,4058.19 L259.449,4055.67 L254.004,4055.67 L254.004,4043.39 C254.004,4037.76 254.004,4037.63 254.229,4034.39 L252.294,4034.39 M249.639,4055.67 L239.739,4055.67 L249.639,4042.04 L249.639,4055.67 "/>
<path class="Bracket" transform="matrix(3.62523,0,0,3.62523,214.469,1015.53)" d="M0.92002,-50 C2.69004,-51.88 6.2,-55.8 6.2,-63 C6.2,-72.1 2.25996,-81.32 2.25996,-86.97 C2.25996,-93.06 5.84004,-98.84 5.95,-99 C6.05996,-99.16 6.05,-99.39 5.94004,-99.46 C5.82998,-99.53 5.62002,-99.47 5.49004,-99.32 C5.35996,-99.17 0,-93.75 0,-85.6 C0,-76.75 3.5,-70.58 3.5,-59.07 C3.5,-56.89 2.55996,-53.36 0.1,-50.33 C-0.0799805,-50.17 -0.1,-49.89 0.0599609,-49.7 L0.0700195,-49.69 L0.1,-49.66 C2.55996,-46.63 3.5,-43.1 3.5,-40.92 C3.5,-29.4 0,-23.24 0,-14.39 C0,-6.25 5.35996,-0.8 5.49004,-0.659961 C5.62002,-0.52002 5.8,-0.42998 5.94004,-0.52002 C6.07998,-0.609961 6.07998,-0.77998 5.95,-0.97998 C5.82002,-1.17998 2.25996,-6.92002 2.25996,-13.01 C2.25996,-18.66 6.2,-27.9 6.2,-37 C6.2,-44.3 2.69004,-48.12 0.92002,-50"/>
</svg>
