<?xml version="1.0" encoding="UTF-8" standalone="no"?>
<svg width="2977.23px" height="4208.47px" viewBox="0 0 2977.23 4208.47"
 xmlns="http://www.w3.org/2000/svg" xmlns:xlink="http://www.w3.org/1999/xlink" version="1.2" baseProfile="tiny">
<title>exercises_scores (14)</title>
<desc>Generated by MuseScore 3.6.0</desc>
<polyline class="StaffLines" fill="none" stroke="#000000" stroke-width="2.75" stroke-linejoin="bevel" points="247.099,659.598 2764.63,659.598"/>
<polyline class="StaffLines" fill="none" stroke="#000000" stroke-width="2.75" stroke-linejoin="bevel" points="247.099,684.6 2764.63,684.6"/>
<polyline class="StaffLines" fill="none" stroke="#000000" stroke-width="2.75" stroke-linejoin="bevel" points="247.099,709.602 2764.63,709.602"/>
<polyline class="StaffLines" fill="none" stroke="#000000" stroke-width="2.75" stroke-linejoin="bevel" points="247.099,734.603 2764.63,734.603"/>
<polyline class="StaffLines" fill="none" stroke="#000000" stroke-width="2.75" stroke-linejoin="bevel" points="247.099,759.605 2764.63,759.605"/>
<polyline class="StaffLines" fill="none" stroke="#000000" stroke-width="2.75" stroke-linejoin="bevel" points="247.099,922.115 2764.63,922.115"/>
<polyline class="StaffLines" fill="none" stroke="#000000" stroke-width="2.75" stroke-linejoin="bevel" points="247.099,947.117 2764.63,947.117"/>
<polyline class="StaffLines" fill="none" stroke="#000000" stroke-width="2.75" stroke-linejoin="bevel" points="247.099,972.118 2764.63,972.118"/>
<polyline class="StaffLines" fill="none" stroke="#000000" stroke-width="2.75" stroke-linejoin="bevel" points="247.099,997.12 2764.63,997.12"/>
<polyline class="StaffLines" fill="none" stroke="#000000" stroke-width="2.75" stroke-linejoin="bevel" points="247.099,1022.12 2764.63,1022.12"/>
<polyline class="StaffLines" fill="none" stroke="#000000" stroke-width="2.75" stroke-linejoin="bevel" points="247.099,1272.14 2764.63,1272.14"/>
<polyline class="StaffLines" fill="none" stroke="#000000" stroke-width="2.75" stroke-linejoin="bevel" points="247.099,1297.14 2764.63,1297.14"/>
<polyline class="StaffLines" fill="none" stroke="#000000" stroke-width="2.75" stroke-linejoin="bevel" points="247.099,1322.14 2764.63,1322.14"/>
<polyline class="StaffLines" fill="none" stroke="#000000" stroke-width="2.75" stroke-linejoin="bevel" points="247.099,1347.14 2764.63,1347.14"/>
<polyline class="StaffLines" fill="none" stroke="#000000" stroke-width="2.75" stroke-linejoin="bevel" points="247.099,1372.14 2764.63,1372.14"/>
<polyline class="StaffLines" fill="none" stroke="#000000" stroke-width="2.75" stroke-linejoin="bevel" points="247.099,1534.65 2764.63,1534.65"/>
<polyline class="StaffLines" fill="none" stroke="#000000" stroke-width="2.75" stroke-linejoin="bevel" points="247.099,1559.66 2764.63,1559.66"/>
<polyline class="StaffLines" fill="none" stroke="#000000" stroke-width="2.75" stroke-linejoin="bevel" points="247.099,1584.66 2764.63,1584.66"/>
<polyline class="StaffLines" fill="none" stroke="#000000" stroke-width="2.75" stroke-linejoin="bevel" points="247.099,1609.66 2764.63,1609.66"/>
<polyline class="StaffLines" fill="none" stroke="#000000" stroke-width="2.75" stroke-linejoin="bevel" points="247.099,1634.66 2764.63,1634.66"/>
<path class="Text" d="M242.312,216.2 L240.092,216.2 L237.692,219.8 C234.812,217.1 231.032,215.66 226.772,215.66 C218.852,215.66 213.632,220.64 213.632,228.2 C213.632,234.74 216.872,237.98 225.692,240.26 L231.392,241.7 C235.832,242.84 236.252,242.96 237.512,243.92 C239.312,245.3 240.272,247.28 240.272,249.62 C240.272,252.02 239.372,254 237.572,255.68 C235.592,257.36 233.612,258.02 230.312,258.02 C225.872,258.02 222.692,256.64 219.872,253.52 C217.352,250.76 216.092,247.88 215.192,243.26 L212.612,243.26 L212.852,260.36 L215.192,260.36 L217.892,256.28 C221.912,259.58 225.212,260.78 230.492,260.78 C239.312,260.78 244.952,255.62 244.952,247.58 C244.952,243.8 243.752,240.68 241.352,238.4 C239.732,236.84 237.392,235.82 232.592,234.62 L226.172,233 C220.832,231.62 218.312,229.28 218.312,225.62 C218.312,221.42 221.732,218.54 226.832,218.54 C231.032,218.54 234.452,220.34 236.852,223.76 C238.592,226.22 239.732,228.74 240.452,231.8 L243.032,231.8 L242.312,216.2 M271.162,251.06 C269.242,255.38 267.202,257.12 264.082,257.12 C259.282,257.12 256.282,252.74 256.282,245.72 C256.282,238.4 259.222,233.6 263.662,233.6 C265.462,233.6 267.022,234.44 267.022,235.4 C267.022,235.58 266.962,235.76 266.662,236.12 C265.702,237.26 265.462,237.86 265.462,238.88 C265.462,240.86 266.962,242.24 269.062,242.24 C271.222,242.24 272.722,240.56 272.722,238.16 C272.722,234.08 268.702,231.02 263.362,231.02 C255.562,231.02 249.982,237.38 249.982,246.38 C249.982,254.9 255.082,260.78 262.522,260.78 C267.862,260.78 270.922,258.32 273.502,251.96 L271.162,251.06 M301.75,240.56 C301.75,236.78 301.09,234.86 299.35,233.42 C297.37,231.8 294.43,231.02 290.59,231.02 C283.81,231.02 278.89,234.2 278.89,238.58 C278.89,240.8 280.27,242.24 282.37,242.24 C284.29,242.24 285.61,240.98 285.61,239.18 C285.61,238.4 285.31,237.56 284.71,236.72 C284.35,236.3 284.29,236.18 284.29,235.88 C284.29,234.68 286.69,233.6 289.57,233.6 C291.49,233.6 293.59,234.2 294.55,235.1 C295.69,236.06 296.11,237.5 296.11,240.2 L296.11,242.54 C289.87,243.62 287.89,244.1 284.95,245.24 C279.73,247.16 277.27,249.92 277.27,253.76 C277.27,258.08 280.63,260.78 285.97,260.78 C290.11,260.78 293.83,259.1 296.41,256.04 C297.37,259.1 298.87,260.3 301.69,260.3 C304.39,260.3 307.21,258.56 307.21,256.82 C307.21,256.4 306.97,256.1 306.61,256.1 C306.37,256.1 306.13,256.16 305.71,256.34 C304.87,256.7 304.51,256.76 304.03,256.76 C302.35,256.76 301.75,255.68 301.75,252.62 L301.75,240.56 M296.11,247.88 C296.11,251.48 295.93,252.32 294.91,253.88 C293.41,256.1 290.71,257.6 288.07,257.6 C285.31,257.6 283.33,255.62 283.33,252.92 C283.33,250.4 284.59,248.6 287.23,247.34 C289.09,246.5 291.43,245.9 296.11,245.12 L296.11,247.88 M320.229,215.66 L309.129,216.32 L309.129,218.9 L312.069,218.9 C314.289,218.96 314.589,219.32 314.589,221.9 L314.589,252.5 L314.589,255.32 C314.529,256.22 314.469,256.58 314.229,256.88 C313.809,257.42 312.669,257.66 310.089,257.72 L309.669,257.72 L309.669,259.88 L325.209,259.88 L325.209,257.72 L324.789,257.72 C320.769,257.6 320.229,257.3 320.229,255.14 L320.229,252.5 L320.229,215.66 M354.78,246.38 C354.84,237.38 349.74,231.02 342.42,231.02 C334.74,231.02 328.98,237.68 328.98,246.68 C328.98,255.14 334.44,260.78 342.54,260.78 C348.3,260.78 352.32,257.96 354.78,252.26 L352.68,251.12 C350.22,255.74 347.7,257.54 343.68,257.54 C340.62,257.54 338.4,256.28 336.84,253.58 C335.76,251.78 335.28,249.68 335.34,246.38 L354.78,246.38 M335.4,243.8 C335.4,241.94 335.64,240.62 336.24,238.94 C337.5,235.34 339.42,233.6 342.36,233.6 C345.96,233.6 348.36,236.78 348.36,241.64 C348.36,243.32 347.82,243.8 345.9,243.8 L335.4,243.8 M366.601,253.22 C364.501,253.22 362.821,254.9 362.821,256.94 C362.821,259.04 364.501,260.72 366.541,260.72 C368.641,260.72 370.321,259.04 370.321,256.94 C370.321,254.9 368.641,253.22 366.601,253.22 M366.601,231.5 C364.501,231.5 362.821,233.18 362.821,235.28 C362.821,237.32 364.501,239 366.541,239 C368.641,239 370.321,237.32 370.321,235.22 C370.321,233.18 368.641,231.5 366.601,231.5 M392.805,216.56 L392.805,219.38 L393.885,219.38 C397.305,219.44 398.445,219.62 398.925,220.22 C399.285,220.76 399.285,220.88 399.285,223.94 L399.285,252.5 C399.285,255.56 399.285,255.68 398.925,256.22 C398.445,256.82 397.305,257.06 393.885,257.06 L392.805,257.06 L392.805,259.88 L414.585,259.88 C424.965,259.88 431.205,255.5 431.205,248.12 C431.205,242.12 427.425,238.7 419.205,237.26 C422.085,236.66 423.405,236.12 424.965,234.98 C427.425,233.12 428.925,230.18 428.925,227.18 C428.925,223.28 426.525,219.5 423.045,218 C420.885,217.04 417.885,216.56 414.345,216.56 L392.805,216.56 M406.005,236.06 L406.005,222.38 C406.005,220.04 406.785,219.44 409.965,219.38 L412.365,219.38 C415.125,219.38 417.405,219.86 418.665,220.64 C420.825,221.96 421.965,224.48 421.965,227.84 C421.965,233.78 419.085,236.06 411.345,236.06 L406.005,236.06 M406.005,238.88 L411.285,238.88 C420.465,238.88 423.825,241.34 423.825,247.94 C423.825,251.78 422.505,254.54 420.165,255.68 C418.305,256.64 415.785,257.06 412.005,257.06 L409.485,257.06 C406.485,257.06 405.885,256.46 406.005,253.28 L406.005,238.88 M454.237,242.18 C453.757,239.06 451.909,236.18 447.829,236.18 C443.749,236.18 441.595,238.622 441.199,239.096 L441.469,213.71 C441.469,213.706 441.469,213.701 441.469,213.698 C441.469,213.092 440.977,212.6 440.371,212.6 L440.371,212.6 L439.435,212.6 C439.183,212.601 438.834,212.746 438.655,212.924 C438.48,213.098 438.337,213.441 438.337,213.689 C438.337,213.695 438.337,213.704 438.337,213.71 L438.763,261.314 C438.77,261.913 439.262,262.4 439.861,262.4 L439.861,262.4 C440.055,262.399 440.34,262.308 440.497,262.196 C440.809,262.046 445.885,259.55 450.193,254.702 C453.871,250.568 454.837,245.72 454.237,242.18 M448.807,245.324 C448.801,246.482 448.513,250.166 446.509,253.166 C445.135,255.224 442.501,257.396 440.989,258.554 L441.157,243.104 C441.337,242.36 442.531,240.086 445.711,240.098 C449.185,240.11 448.807,244.166 448.807,245.324 M487.049,231.92 L476.369,232.58 L476.369,235.16 L478.829,235.16 C481.109,235.22 481.409,235.58 481.409,238.16 L481.409,252.5 L481.409,254.84 L481.409,255.32 C481.349,256.22 481.289,256.58 481.049,256.88 C480.629,257.42 479.489,257.66 476.909,257.72 L476.669,257.72 L476.669,259.88 L491.789,259.88 L491.789,257.72 L491.549,257.72 C487.589,257.6 487.049,257.3 487.049,255.08 L487.049,252.5 L487.049,243.98 C487.049,238.64 489.989,234.68 493.889,234.68 C497.309,234.68 499.049,237.14 499.049,242 L499.049,252.5 L499.049,255.38 C498.989,256.16 498.929,256.58 498.629,256.88 C498.269,257.42 497.069,257.66 494.489,257.72 L494.249,257.72 L494.249,259.88 L509.429,259.88 L509.429,257.72 L509.189,257.72 C505.229,257.6 504.689,257.3 504.689,255.14 L504.689,252.5 L504.689,244.52 C504.689,238.52 507.389,234.68 511.589,234.68 C515.009,234.68 516.689,237.26 516.689,242.66 L516.689,252.5 L516.689,255.32 C516.629,256.16 516.569,256.58 516.269,256.88 C515.909,257.42 514.709,257.66 512.129,257.72 L511.889,257.72 L511.889,259.88 L527.069,259.88 L527.069,257.72 L526.829,257.72 C522.869,257.6 522.329,257.3 522.329,255.08 L522.329,252.5 L522.329,241.46 C522.329,237.74 521.969,236.48 520.409,234.44 C518.669,232.22 516.209,231.02 513.329,231.02 C509.429,231.02 506.549,232.88 503.969,237.02 C502.949,233.42 499.709,231.02 495.689,231.02 C492.029,231.02 489.389,232.76 487.049,236.54 L487.049,231.92 M555.437,240.56 C555.437,236.78 554.777,234.86 553.037,233.42 C551.057,231.8 548.117,231.02 544.277,231.02 C537.497,231.02 532.577,234.2 532.577,238.58 C532.577,240.8 533.957,242.24 536.057,242.24 C537.977,242.24 539.297,240.98 539.297,239.18 C539.297,238.4 538.997,237.56 538.397,236.72 C538.037,236.3 537.977,236.18 537.977,235.88 C537.977,234.68 540.377,233.6 543.257,233.6 C545.177,233.6 547.277,234.2 548.237,235.1 C549.377,236.06 549.797,237.5 549.797,240.2 L549.797,242.54 C543.557,243.62 541.577,244.1 538.637,245.24 C533.417,247.16 530.957,249.92 530.957,253.76 C530.957,258.08 534.317,260.78 539.657,260.78 C543.797,260.78 547.517,259.1 550.097,256.04 C551.057,259.1 552.557,260.3 555.377,260.3 C558.077,260.3 560.897,258.56 560.897,256.82 C560.897,256.4 560.657,256.1 560.297,256.1 C560.057,256.1 559.817,256.16 559.397,256.34 C558.557,256.7 558.197,256.76 557.717,256.76 C556.037,256.76 555.437,255.68 555.437,252.62 L555.437,240.56 M549.797,247.88 C549.797,251.48 549.617,252.32 548.597,253.88 C547.097,256.1 544.397,257.6 541.757,257.6 C538.997,257.6 537.017,255.62 537.017,252.92 C537.017,250.4 538.277,248.6 540.917,247.34 C542.777,246.5 545.117,245.9 549.797,245.12 L549.797,247.88 M572.362,231.92 L560.662,232.58 L560.662,235.16 L564.142,235.16 C566.422,235.22 566.722,235.58 566.722,238.16 L566.722,258.5 C566.722,263.36 566.422,265.64 565.582,267.38 C564.982,268.58 563.602,269.48 562.282,269.48 C561.442,269.48 560.782,269.12 560.782,268.7 C560.782,268.46 560.842,268.34 561.082,267.74 C561.382,267.14 561.502,266.72 561.502,266.3 C561.502,264.8 560.062,263.48 558.382,263.48 C556.462,263.48 555.022,264.98 555.022,267.08 C555.022,270.02 557.722,272 561.742,272 C565.102,272 568.162,270.56 569.902,268.1 C571.762,265.46 572.362,262.4 572.362,255.62 L572.362,231.92 M569.542,216.98 C567.622,216.98 566.062,218.54 566.062,220.46 C566.062,222.38 567.622,223.94 569.482,223.94 C571.462,223.94 573.022,222.38 573.022,220.46 C573.022,218.54 571.462,216.98 569.542,216.98 M592.812,231.02 C585.432,231.02 579.732,237.56 579.732,245.96 C579.732,254.18 585.492,260.78 592.692,260.78 C599.892,260.78 605.652,254.18 605.652,245.9 C605.652,237.68 599.892,231.02 592.812,231.02 M592.812,233.6 C597.012,233.6 599.352,237.98 599.352,245.9 C599.352,253.88 597.012,258.2 592.692,258.2 C588.372,258.2 586.032,253.88 586.032,245.96 C586.032,237.8 588.312,233.6 592.812,233.6 M619.572,231.92 L608.952,232.58 L608.952,235.16 L611.412,235.16 C613.692,235.22 613.992,235.58 613.992,238.16 L613.992,252.5 L613.992,255.32 C613.932,256.22 613.872,256.58 613.632,256.88 C613.212,257.42 612.012,257.66 609.432,257.72 L609.192,257.72 L609.192,259.88 L625.212,259.88 L625.212,257.72 L624.132,257.72 C620.112,257.6 619.572,257.3 619.572,255.14 L619.572,252.5 L619.572,251.9 C619.632,241.82 623.232,234.14 627.912,233.9 C627.072,234.86 626.832,235.46 626.832,236.6 C626.832,238.52 628.212,239.9 630.132,239.9 C632.352,239.9 633.792,238.28 633.792,235.88 C633.792,232.94 631.752,231.02 628.572,231.02 C624.792,231.02 621.552,234.02 619.572,239.36 L619.572,231.92 "/>
<polyline class="BarLine" fill="none" stroke="#000000" stroke-width="4.50" stroke-linejoin="bevel" points="249.349,920.74 249.349,1023.5"/>
<polyline class="BarLine" fill="none" stroke="#000000" stroke-width="4.50" stroke-linejoin="bevel" points="1065.88,920.74 1065.88,1023.5"/>
<polyline class="BarLine" fill="none" stroke="#000000" stroke-width="4.50" stroke-linejoin="bevel" points="1600.96,920.74 1600.96,1023.5"/>
<polyline class="BarLine" fill="none" stroke="#000000" stroke-width="4.50" stroke-linejoin="bevel" points="2239.29,920.74 2239.29,1023.5"/>
<polyline class="BarLine" fill="none" stroke="#000000" stroke-width="4.50" stroke-linejoin="bevel" points="2762.38,920.74 2762.38,1023.5"/>
<polyline class="BarLine" fill="none" stroke="#000000" stroke-width="4.50" stroke-linejoin="bevel" points="249.349,1533.28 249.349,1636.04"/>
<polyline class="BarLine" fill="none" stroke="#000000" stroke-width="4.50" stroke-linejoin="bevel" points="996.407,1533.28 996.407,1636.04"/>
<polyline class="BarLine" fill="none" stroke="#000000" stroke-width="4.50" stroke-linejoin="bevel" points="1592.42,1533.28 1592.42,1636.04"/>
<polyline class="BarLine" fill="none" stroke="#000000" stroke-width="4.50" stroke-linejoin="bevel" points="2222.33,1533.28 2222.33,1636.04"/>
<polyline class="BarLine" fill="none" stroke="#000000" stroke-width="4.50" stroke-linejoin="bevel" points="2734.88,1533.28 2734.88,1636.04"/>
<polyline class="BarLine" fill="none" stroke="#000000" stroke-width="13.75" stroke-linejoin="bevel" points="2757.76,1533.28 2757.76,1636.04"/>
<polyline class="BarLine" fill="none" stroke="#000000" stroke-width="4.50" stroke-linejoin="bevel" points="249.349,658.223 249.349,922.115"/>
<polyline class="BarLine" fill="none" stroke="#000000" stroke-width="4.50" stroke-linejoin="bevel" points="1065.88,658.223 1065.88,922.115"/>
<polyline class="BarLine" fill="none" stroke="#000000" stroke-width="4.50" stroke-linejoin="bevel" points="1600.96,658.223 1600.96,922.115"/>
<polyline class="BarLine" fill="none" stroke="#000000" stroke-width="4.50" stroke-linejoin="bevel" points="2239.29,658.223 2239.29,922.115"/>
<polyline class="BarLine" fill="none" stroke="#000000" stroke-width="4.50" stroke-linejoin="bevel" points="2762.38,658.223 2762.38,922.115"/>
<polyline class="BarLine" fill="none" stroke="#000000" stroke-width="4.50" stroke-linejoin="bevel" points="249.349,1270.76 249.349,1534.65"/>
<polyline class="BarLine" fill="none" stroke="#000000" stroke-width="4.50" stroke-linejoin="bevel" points="996.407,1270.76 996.407,1534.65"/>
<polyline class="BarLine" fill="none" stroke="#000000" stroke-width="4.50" stroke-linejoin="bevel" points="1592.42,1270.76 1592.42,1534.65"/>
<polyline class="BarLine" fill="none" stroke="#000000" stroke-width="4.50" stroke-linejoin="bevel" points="2222.33,1270.76 2222.33,1534.65"/>
<polyline class="BarLine" fill="none" stroke="#000000" stroke-width="4.50" stroke-linejoin="bevel" points="2734.88,1270.76 2734.88,1534.65"/>
<polyline class="BarLine" fill="none" stroke="#000000" stroke-width="13.75" stroke-linejoin="bevel" points="2757.76,1270.76 2757.76,1534.65"/>
<polyline class="LedgerLine" fill="none" stroke="#000000" stroke-width="4.00" stroke-linejoin="bevel" points="1719.71,1047.12 1769.71,1047.12"/>
<polyline class="LedgerLine" fill="none" stroke="#000000" stroke-width="4.00" stroke-linejoin="bevel" points="1162.16,1659.66 1212.16,1659.66"/>
<polyline class="LedgerLine" fill="none" stroke="#000000" stroke-width="4.00" stroke-linejoin="bevel" points="1301.91,1659.66 1351.91,1659.66"/>
<polyline class="LedgerLine" fill="none" stroke="#000000" stroke-width="4.00" stroke-linejoin="bevel" points="1441.66,1684.66 1491.66,1684.66"/>
<polyline class="LedgerLine" fill="none" stroke="#000000" stroke-width="4.00" stroke-linejoin="bevel" points="1441.66,1659.66 1491.66,1659.66"/>
<polyline class="LedgerLine" fill="none" stroke="#000000" stroke-width="4.00" stroke-linejoin="bevel" points="525.304,784.606 575.299,784.606"/>
<polyline class="LedgerLine" fill="none" stroke="#000000" stroke-width="4.00" stroke-linejoin="bevel" points="657.699,784.606 707.694,784.606"/>
<polyline class="LedgerLine" fill="none" stroke="#000000" stroke-width="4.00" stroke-linejoin="bevel" points="2400.32,634.597 2450.31,634.597"/>
<polyline class="LedgerLine" fill="none" stroke="#000000" stroke-width="4.00" stroke-linejoin="bevel" points="2535.34,634.597 2585.34,634.597"/>
<polyline class="LedgerLine" fill="none" stroke="#000000" stroke-width="4.00" stroke-linejoin="bevel" points="468.402,1247.14 518.397,1247.14"/>
<polyline class="LedgerLine" fill="none" stroke="#000000" stroke-width="4.00" stroke-linejoin="bevel" points="2257.08,1397.14 2307.08,1397.14"/>
<polyline class="LedgerLine" fill="none" stroke="#000000" stroke-width="4.00" stroke-linejoin="bevel" points="2415.26,1397.14 2465.26,1397.14"/>
<polyline class="Stem" fill="none" stroke="#000000" stroke-width="2.75" stroke-linejoin="bevel" points="565.173,993.76 565.173,912.739"/>
<polyline class="Stem" fill="none" stroke="#000000" stroke-width="2.75" stroke-linejoin="bevel" points="697.568,981.259 697.568,903.364"/>
<polyline class="Stem" fill="none" stroke="#000000" stroke-width="2.75" stroke-linejoin="bevel" points="800.219,975.638 800.219,1050.25"/>
<polyline class="Stem" fill="none" stroke="#000000" stroke-width="2.75" stroke-linejoin="bevel" points="932.614,963.138 932.614,1040.87"/>
<polyline class="Stem" fill="none" stroke="#000000" stroke-width="2.75" stroke-linejoin="bevel" points="1102.01,950.637 1102.01,1031.5"/>
<polyline class="Stem" fill="none" stroke="#000000" stroke-width="2.75" stroke-linejoin="bevel" points="1226.53,938.136 1226.53,1022.12"/>
<polyline class="Stem" fill="none" stroke="#000000" stroke-width="2.75" stroke-linejoin="bevel" points="1351.05,925.635 1351.05,1009.62"/>
<polyline class="Stem" fill="none" stroke="#000000" stroke-width="2.75" stroke-linejoin="bevel" points="1475.57,913.134 1475.57,997.12"/>
<polyline class="Stem" fill="none" stroke="#000000" stroke-width="2.75" stroke-linejoin="bevel" points="1759.58,1043.76 1759.58,959.617"/>
<polyline class="Stem" fill="none" stroke="#000000" stroke-width="2.75" stroke-linejoin="bevel" points="1886.73,1031.26 1886.73,947.117"/>
<polyline class="Stem" fill="none" stroke="#000000" stroke-width="2.75" stroke-linejoin="bevel" points="2013.87,1018.76 2013.87,934.616"/>
<polyline class="Stem" fill="none" stroke="#000000" stroke-width="2.75" stroke-linejoin="bevel" points="2141.02,1006.26 2141.02,922.115"/>
<polyline class="Stem" fill="none" stroke="#000000" stroke-width="2.75" stroke-linejoin="bevel" points="2305.16,993.76 2305.16,912.739"/>
<polyline class="Stem" fill="none" stroke="#000000" stroke-width="2.75" stroke-linejoin="bevel" points="2440.19,981.259 2440.19,903.364"/>
<polyline class="Stem" fill="none" stroke="#000000" stroke-width="2.75" stroke-linejoin="bevel" points="2545.47,975.558 2545.47,1050.25"/>
<polyline class="Stem" fill="none" stroke="#000000" stroke-width="2.75" stroke-linejoin="bevel" points="508.271,1593.8 508.271,1515.9"/>
<polyline class="Stem" fill="none" stroke="#000000" stroke-width="2.75" stroke-linejoin="bevel" points="637.523,1606.3 637.523,1525.28"/>
<polyline class="Stem" fill="none" stroke="#000000" stroke-width="2.75" stroke-linejoin="bevel" points="766.774,1618.8 766.774,1534.65"/>
<polyline class="Stem" fill="none" stroke="#000000" stroke-width="2.75" stroke-linejoin="bevel" points="896.025,1631.3 896.025,1547.15"/>
<polyline class="Stem" fill="none" stroke="#000000" stroke-width="2.75" stroke-linejoin="bevel" points="1062.28,1643.8 1062.28,1559.66"/>
<polyline class="Stem" fill="none" stroke="#000000" stroke-width="2.75" stroke-linejoin="bevel" points="1202.03,1656.3 1202.03,1572.16"/>
<polyline class="Stem" fill="none" stroke="#000000" stroke-width="2.75" stroke-linejoin="bevel" points="1341.78,1668.8 1341.78,1584.66"/>
<polyline class="Stem" fill="none" stroke="#000000" stroke-width="2.75" stroke-linejoin="bevel" points="1481.53,1681.3 1481.53,1584.66"/>
<polyline class="Stem" fill="none" stroke="#000000" stroke-width="2.75" stroke-linejoin="bevel" points="1714.95,1550.67 1714.95,1634.66"/>
<polyline class="Stem" fill="none" stroke="#000000" stroke-width="2.75" stroke-linejoin="bevel" points="1841.57,1563.18 1841.57,1644.04"/>
<polyline class="Stem" fill="none" stroke="#000000" stroke-width="2.75" stroke-linejoin="bevel" points="1968.2,1575.68 1968.2,1653.41"/>
<polyline class="Stem" fill="none" stroke="#000000" stroke-width="2.75" stroke-linejoin="bevel" points="2094.83,1588.18 2094.83,1662.79"/>
<polyline class="Stem" fill="none" stroke="#000000" stroke-width="2.75" stroke-linejoin="bevel" points="2296.95,1593.8 2296.95,1515.9"/>
<polyline class="Stem" fill="none" stroke="#000000" stroke-width="2.75" stroke-linejoin="bevel" points="2455.13,1606.22 2455.13,1525.28"/>
<polyline class="Stem" fill="none" stroke="#000000" stroke-width="2.75" stroke-linejoin="bevel" points="565.173,793.747 565.173,709.602"/>
<polyline class="Stem" fill="none" stroke="#000000" stroke-width="2.75" stroke-linejoin="bevel" points="697.568,781.246 697.568,697.101"/>
<polyline class="Stem" fill="none" stroke="#000000" stroke-width="2.75" stroke-linejoin="bevel" points="829.963,768.745 829.963,684.6"/>
<polyline class="Stem" fill="none" stroke="#000000" stroke-width="2.75" stroke-linejoin="bevel" points="962.358,756.245 962.358,672.099"/>
<polyline class="Stem" fill="none" stroke="#000000" stroke-width="2.75" stroke-linejoin="bevel" points="1131.76,743.744 1131.76,659.598"/>
<polyline class="Stem" fill="none" stroke="#000000" stroke-width="2.75" stroke-linejoin="bevel" points="1256.27,731.243 1256.27,650.223"/>
<polyline class="Stem" fill="none" stroke="#000000" stroke-width="2.75" stroke-linejoin="bevel" points="1380.79,718.742 1380.79,640.847"/>
<polyline class="Stem" fill="none" stroke="#000000" stroke-width="2.75" stroke-linejoin="bevel" points="1475.57,713.122 1475.57,787.732"/>
<polyline class="Stem" fill="none" stroke="#000000" stroke-width="2.75" stroke-linejoin="bevel" points="1729.84,700.621 1729.84,778.356"/>
<polyline class="Stem" fill="none" stroke="#000000" stroke-width="2.75" stroke-linejoin="bevel" points="1856.98,688.12 1856.98,768.98"/>
<polyline class="Stem" fill="none" stroke="#000000" stroke-width="2.75" stroke-linejoin="bevel" points="1984.13,675.62 1984.13,759.605"/>
<polyline class="Stem" fill="none" stroke="#000000" stroke-width="2.75" stroke-linejoin="bevel" points="2111.27,663.119 2111.27,747.104"/>
<polyline class="Stem" fill="none" stroke="#000000" stroke-width="2.75" stroke-linejoin="bevel" points="2275.42,650.618 2275.42,734.603"/>
<polyline class="Stem" fill="none" stroke="#000000" stroke-width="2.75" stroke-linejoin="bevel" points="2410.44,638.117 2410.44,722.102"/>
<polyline class="Stem" fill="none" stroke="#000000" stroke-width="2.75" stroke-linejoin="bevel" points="2545.47,625.536 2545.47,709.602"/>
<polyline class="Stem" fill="none" stroke="#000000" stroke-width="2.75" stroke-linejoin="bevel" points="478.527,1250.66 478.527,1334.64"/>
<polyline class="Stem" fill="none" stroke="#000000" stroke-width="2.75" stroke-linejoin="bevel" points="607.778,1263.16 607.778,1347.14"/>
<polyline class="Stem" fill="none" stroke="#000000" stroke-width="2.75" stroke-linejoin="bevel" points="737.03,1275.66 737.03,1359.64"/>
<polyline class="Stem" fill="none" stroke="#000000" stroke-width="2.75" stroke-linejoin="bevel" points="866.281,1288.16 866.281,1372.14"/>
<polyline class="Stem" fill="none" stroke="#000000" stroke-width="2.75" stroke-linejoin="bevel" points="1032.53,1300.66 1032.53,1381.52"/>
<polyline class="Stem" fill="none" stroke="#000000" stroke-width="2.75" stroke-linejoin="bevel" points="1172.29,1313.16 1172.29,1390.89"/>
<polyline class="Stem" fill="none" stroke="#000000" stroke-width="2.75" stroke-linejoin="bevel" points="1312.04,1325.66 1312.04,1400.27"/>
<polyline class="Stem" fill="none" stroke="#000000" stroke-width="2.75" stroke-linejoin="bevel" points="1481.53,1331.28 1481.53,1253.39"/>
<polyline class="Stem" fill="none" stroke="#000000" stroke-width="2.75" stroke-linejoin="bevel" points="1744.69,1343.78 1744.69,1262.76"/>
<polyline class="Stem" fill="none" stroke="#000000" stroke-width="2.75" stroke-linejoin="bevel" points="1871.32,1356.28 1871.32,1272.14"/>
<polyline class="Stem" fill="none" stroke="#000000" stroke-width="2.75" stroke-linejoin="bevel" points="1997.94,1368.78 1997.94,1284.64"/>
<polyline class="Stem" fill="none" stroke="#000000" stroke-width="2.75" stroke-linejoin="bevel" points="2124.57,1381.28 2124.57,1297.14"/>
<polyline class="Stem" fill="none" stroke="#000000" stroke-width="2.75" stroke-linejoin="bevel" points="2296.95,1393.78 2296.95,1309.64"/>
<polyline class="Stem" fill="none" stroke="#000000" stroke-width="2.75" stroke-linejoin="bevel" points="2455.13,1406.21 2455.13,1322.14"/>
<path class="Note" d="M565.554,988.92 C564.054,986.22 561.154,984.52 557.254,984.12 C556.654,984.02 556.154,984.02 555.554,984.02 C552.054,984.02 548.254,985.02 544.754,986.92 C538.154,990.52 534.054,996.42 534.054,1001.52 C534.054,1002.92 534.254,1004.22 534.954,1005.42 C536.454,1008.12 539.454,1009.82 543.354,1010.22 C543.954,1010.32 544.454,1010.32 545.054,1010.32 C548.554,1010.32 552.254,1009.32 555.754,1007.42 C562.354,1003.82 566.554,998.02 566.554,992.92 C566.554,991.52 566.254,990.12 565.554,988.92"/>
<path class="Note" d="M697.949,976.419 C696.449,973.719 693.549,972.019 689.649,971.619 C689.049,971.519 688.549,971.519 687.949,971.519 C684.449,971.519 680.649,972.519 677.149,974.419 C670.549,978.019 666.449,983.919 666.449,989.019 C666.449,990.419 666.649,991.719 667.349,992.919 C668.849,995.619 671.849,997.319 675.749,997.719 C676.349,997.819 676.849,997.819 677.449,997.819 C680.949,997.819 684.649,996.819 688.149,994.919 C694.749,991.319 698.949,985.519 698.949,980.419 C698.949,979.019 698.649,977.619 697.949,976.419"/>
<path class="Note" d="M830.344,963.918 C828.844,961.218 825.944,959.518 822.044,959.118 C821.444,959.018 820.944,959.018 820.344,959.018 C816.844,959.018 813.044,960.018 809.544,961.918 C802.944,965.518 798.844,971.418 798.844,976.518 C798.844,977.918 799.044,979.218 799.744,980.418 C801.244,983.118 804.244,984.818 808.144,985.218 C808.744,985.318 809.244,985.318 809.844,985.318 C813.344,985.318 817.044,984.318 820.544,982.418 C827.144,978.818 831.344,973.018 831.344,967.918 C831.344,966.518 831.044,965.118 830.344,963.918"/>
<path class="Note" d="M962.739,951.417 C961.239,948.717 958.339,947.017 954.439,946.617 C953.839,946.517 953.339,946.517 952.739,946.517 C949.239,946.517 945.439,947.517 941.939,949.417 C935.339,953.017 931.239,958.917 931.239,964.017 C931.239,965.417 931.439,966.717 932.139,967.917 C933.639,970.617 936.639,972.317 940.539,972.717 C941.139,972.817 941.639,972.817 942.239,972.817 C945.739,972.817 949.439,971.817 952.939,969.917 C959.539,966.317 963.739,960.517 963.739,955.417 C963.739,954.017 963.439,952.617 962.739,951.417"/>
<path class="Note" d="M1132.14,938.917 C1130.64,936.217 1127.74,934.517 1123.84,934.117 C1123.24,934.017 1122.74,934.017 1122.14,934.017 C1118.64,934.017 1114.84,935.017 1111.34,936.917 C1104.74,940.517 1100.64,946.417 1100.64,951.517 C1100.64,952.917 1100.84,954.217 1101.54,955.417 C1103.04,958.117 1106.04,959.817 1109.94,960.217 C1110.54,960.317 1111.04,960.317 1111.64,960.317 C1115.14,960.317 1118.84,959.317 1122.34,957.417 C1128.94,953.817 1133.14,948.017 1133.14,942.917 C1133.14,941.517 1132.84,940.117 1132.14,938.917"/>
<path class="Note" d="M1256.66,926.416 C1255.16,923.716 1252.26,922.016 1248.36,921.616 C1247.76,921.516 1247.26,921.516 1246.66,921.516 C1243.16,921.516 1239.36,922.516 1235.86,924.416 C1229.26,928.016 1225.16,933.916 1225.16,939.016 C1225.16,940.416 1225.36,941.716 1226.06,942.916 C1227.56,945.616 1230.56,947.316 1234.46,947.716 C1235.06,947.816 1235.56,947.816 1236.16,947.816 C1239.66,947.816 1243.36,946.816 1246.86,944.916 C1253.46,941.316 1257.66,935.516 1257.66,930.416 C1257.66,929.016 1257.36,927.616 1256.66,926.416"/>
<path class="Note" d="M1381.17,913.915 C1379.67,911.215 1376.77,909.515 1372.87,909.115 C1372.27,909.015 1371.77,909.015 1371.17,909.015 C1367.67,909.015 1363.87,910.015 1360.37,911.915 C1353.77,915.515 1349.67,921.415 1349.67,926.515 C1349.67,927.915 1349.87,929.215 1350.57,930.415 C1352.07,933.115 1355.07,934.815 1358.97,935.215 C1359.57,935.315 1360.07,935.315 1360.67,935.315 C1364.17,935.315 1367.87,934.315 1371.37,932.415 C1377.97,928.815 1382.17,923.015 1382.17,917.915 C1382.17,916.515 1381.87,915.115 1381.17,913.915"/>
<path class="Note" d="M1505.69,901.414 C1504.19,898.714 1501.29,897.014 1497.39,896.614 C1496.79,896.514 1496.29,896.514 1495.69,896.514 C1492.19,896.514 1488.39,897.514 1484.89,899.414 C1478.29,903.014 1474.19,908.914 1474.19,914.014 C1474.19,915.414 1474.39,916.714 1475.09,917.914 C1476.59,920.614 1479.59,922.314 1483.49,922.714 C1484.09,922.814 1484.59,922.814 1485.19,922.814 C1488.69,922.814 1492.39,921.814 1495.89,919.914 C1502.49,916.314 1506.69,910.514 1506.69,905.414 C1506.69,904.014 1506.39,902.614 1505.69,901.414"/>
<path class="Note" d="M1759.96,1038.92 C1758.46,1036.22 1755.56,1034.52 1751.66,1034.12 C1751.06,1034.02 1750.56,1034.02 1749.96,1034.02 C1746.46,1034.02 1742.66,1035.02 1739.16,1036.92 C1732.56,1040.52 1728.46,1046.42 1728.46,1051.52 C1728.46,1052.92 1728.66,1054.22 1729.36,1055.42 C1730.86,1058.12 1733.86,1059.82 1737.76,1060.22 C1738.36,1060.32 1738.86,1060.32 1739.46,1060.32 C1742.96,1060.32 1746.66,1059.32 1750.16,1057.42 C1756.76,1053.82 1760.96,1048.02 1760.96,1042.92 C1760.96,1041.52 1760.66,1040.12 1759.96,1038.92"/>
<path class="Note" d="M1887.11,1026.42 C1885.61,1023.72 1882.71,1022.02 1878.81,1021.62 C1878.21,1021.52 1877.71,1021.52 1877.11,1021.52 C1873.61,1021.52 1869.81,1022.52 1866.31,1024.42 C1859.71,1028.02 1855.61,1033.92 1855.61,1039.02 C1855.61,1040.42 1855.81,1041.72 1856.51,1042.92 C1858.01,1045.62 1861.01,1047.32 1864.91,1047.72 C1865.51,1047.82 1866.01,1047.82 1866.61,1047.82 C1870.11,1047.82 1873.81,1046.82 1877.31,1044.92 C1883.91,1041.32 1888.11,1035.52 1888.11,1030.42 C1888.11,1029.02 1887.81,1027.62 1887.11,1026.42"/>
<path class="Note" d="M2014.25,1013.92 C2012.75,1011.22 2009.85,1009.52 2005.95,1009.12 C2005.35,1009.02 2004.85,1009.02 2004.25,1009.02 C2000.75,1009.02 1996.95,1010.02 1993.45,1011.92 C1986.85,1015.52 1982.75,1021.42 1982.75,1026.52 C1982.75,1027.92 1982.95,1029.22 1983.65,1030.42 C1985.15,1033.12 1988.15,1034.82 1992.05,1035.22 C1992.65,1035.32 1993.15,1035.32 1993.75,1035.32 C1997.25,1035.32 2000.95,1034.32 2004.45,1032.42 C2011.05,1028.82 2015.25,1023.02 2015.25,1017.92 C2015.25,1016.52 2014.95,1015.12 2014.25,1013.92"/>
<path class="Note" d="M2141.4,1001.42 C2139.9,998.721 2137,997.021 2133.1,996.621 C2132.5,996.521 2132,996.521 2131.4,996.521 C2127.9,996.521 2124.1,997.521 2120.6,999.421 C2114,1003.02 2109.9,1008.92 2109.9,1014.02 C2109.9,1015.42 2110.1,1016.72 2110.8,1017.92 C2112.3,1020.62 2115.3,1022.32 2119.2,1022.72 C2119.8,1022.82 2120.3,1022.82 2120.9,1022.82 C2124.4,1022.82 2128.1,1021.82 2131.6,1019.92 C2138.2,1016.32 2142.4,1010.52 2142.4,1005.42 C2142.4,1004.02 2142.1,1002.62 2141.4,1001.42"/>
<path class="Note" d="M2305.54,988.92 C2304.04,986.22 2301.14,984.52 2297.24,984.12 C2296.64,984.02 2296.14,984.02 2295.54,984.02 C2292.04,984.02 2288.24,985.02 2284.74,986.92 C2278.14,990.52 2274.04,996.42 2274.04,1001.52 C2274.04,1002.92 2274.24,1004.22 2274.94,1005.42 C2276.44,1008.12 2279.44,1009.82 2283.34,1010.22 C2283.94,1010.32 2284.44,1010.32 2285.04,1010.32 C2288.54,1010.32 2292.24,1009.32 2295.74,1007.42 C2302.34,1003.82 2306.54,998.02 2306.54,992.92 C2306.54,991.52 2306.24,990.12 2305.54,988.92"/>
<path class="Note" d="M2440.57,976.419 C2439.07,973.719 2436.17,972.019 2432.27,971.619 C2431.67,971.519 2431.17,971.519 2430.57,971.519 C2427.07,971.519 2423.27,972.519 2419.77,974.419 C2413.17,978.019 2409.07,983.919 2409.07,989.019 C2409.07,990.419 2409.27,991.719 2409.97,992.919 C2411.47,995.619 2414.47,997.319 2418.37,997.719 C2418.97,997.819 2419.47,997.819 2420.07,997.819 C2423.57,997.819 2427.27,996.819 2430.77,994.919 C2437.37,991.319 2441.57,985.519 2441.57,980.419 C2441.57,979.019 2441.27,977.619 2440.57,976.419"/>
<path class="Note" d="M2575.59,963.918 C2574.09,961.218 2571.19,959.518 2567.29,959.118 C2566.69,959.018 2566.19,959.018 2565.59,959.018 C2562.09,959.018 2558.29,960.018 2554.79,961.918 C2548.19,965.518 2544.09,971.318 2544.09,976.418 C2544.09,977.818 2544.49,979.218 2545.19,980.418 C2546.69,983.218 2549.49,984.818 2553.39,985.218 C2553.99,985.318 2554.49,985.318 2555.09,985.318 C2558.59,985.318 2562.39,984.318 2565.89,982.418 C2572.49,978.818 2576.59,972.918 2576.59,967.818 C2576.59,966.418 2576.29,965.118 2575.59,963.918 M2571.39,970.218 C2569.69,972.018 2566.49,974.318 2562.89,976.418 C2559.29,978.518 2555.59,980.218 2553.29,980.918 C2552.79,981.018 2552.19,981.118 2551.69,981.118 C2550.19,981.118 2548.89,980.418 2548.19,979.318 C2547.89,978.718 2547.69,978.118 2547.69,977.518 C2547.69,976.418 2548.19,975.318 2549.29,974.118 C2550.99,972.318 2554.19,969.918 2557.79,967.818 C2561.39,965.718 2565.09,964.018 2567.49,963.418 L2567.69,963.418 C2568.29,963.218 2568.79,963.118 2569.29,963.118 C2570.69,963.118 2571.79,963.718 2572.49,965.018 C2572.79,965.618 2572.99,966.118 2572.99,966.718 C2572.99,968.018 2572.29,969.318 2571.39,970.218"/>
<path class="Note" d="M508.652,1588.96 C507.152,1586.26 504.252,1584.56 500.352,1584.16 C499.752,1584.06 499.252,1584.06 498.652,1584.06 C495.152,1584.06 491.352,1585.06 487.852,1586.96 C481.252,1590.56 477.152,1596.46 477.152,1601.56 C477.152,1602.96 477.352,1604.26 478.052,1605.46 C479.552,1608.16 482.552,1609.86 486.452,1610.26 C487.052,1610.36 487.552,1610.36 488.152,1610.36 C491.652,1610.36 495.352,1609.36 498.852,1607.46 C505.452,1603.86 509.652,1598.06 509.652,1592.96 C509.652,1591.56 509.352,1590.16 508.652,1588.96"/>
<path class="Note" d="M637.903,1601.46 C636.403,1598.76 633.503,1597.06 629.603,1596.66 C629.003,1596.56 628.503,1596.56 627.903,1596.56 C624.403,1596.56 620.603,1597.56 617.103,1599.46 C610.503,1603.06 606.403,1608.96 606.403,1614.06 C606.403,1615.46 606.603,1616.76 607.303,1617.96 C608.803,1620.66 611.803,1622.36 615.703,1622.76 C616.303,1622.86 616.803,1622.86 617.403,1622.86 C620.903,1622.86 624.603,1621.86 628.103,1619.96 C634.703,1616.36 638.903,1610.56 638.903,1605.46 C638.903,1604.06 638.603,1602.66 637.903,1601.46"/>
<path class="Note" d="M767.155,1613.96 C765.655,1611.26 762.755,1609.56 758.855,1609.16 C758.255,1609.06 757.755,1609.06 757.155,1609.06 C753.655,1609.06 749.855,1610.06 746.355,1611.96 C739.755,1615.56 735.655,1621.46 735.655,1626.56 C735.655,1627.96 735.855,1629.26 736.555,1630.46 C738.055,1633.16 741.055,1634.86 744.955,1635.26 C745.555,1635.36 746.055,1635.36 746.655,1635.36 C750.155,1635.36 753.855,1634.36 757.355,1632.46 C763.955,1628.86 768.155,1623.06 768.155,1617.96 C768.155,1616.56 767.855,1615.16 767.155,1613.96"/>
<path class="Note" d="M896.406,1626.46 C894.906,1623.76 892.006,1622.06 888.106,1621.66 C887.506,1621.56 887.006,1621.56 886.406,1621.56 C882.906,1621.56 879.106,1622.56 875.606,1624.46 C869.006,1628.06 864.906,1633.96 864.906,1639.06 C864.906,1640.46 865.106,1641.76 865.806,1642.96 C867.306,1645.66 870.306,1647.36 874.206,1647.76 C874.806,1647.86 875.306,1647.86 875.906,1647.86 C879.406,1647.86 883.106,1646.86 886.606,1644.96 C893.206,1641.36 897.406,1635.56 897.406,1630.46 C897.406,1629.06 897.106,1627.66 896.406,1626.46"/>
<path class="Note" d="M1062.66,1638.96 C1061.16,1636.26 1058.26,1634.56 1054.36,1634.16 C1053.76,1634.06 1053.26,1634.06 1052.66,1634.06 C1049.16,1634.06 1045.36,1635.06 1041.86,1636.96 C1035.26,1640.56 1031.16,1646.46 1031.16,1651.56 C1031.16,1652.96 1031.36,1654.26 1032.06,1655.46 C1033.56,1658.16 1036.56,1659.86 1040.46,1660.26 C1041.06,1660.36 1041.56,1660.36 1042.16,1660.36 C1045.66,1660.36 1049.36,1659.36 1052.86,1657.46 C1059.46,1653.86 1063.66,1648.06 1063.66,1642.96 C1063.66,1641.56 1063.36,1640.16 1062.66,1638.96"/>
<path class="Note" d="M1202.41,1651.46 C1200.91,1648.76 1198.01,1647.06 1194.11,1646.66 C1193.51,1646.56 1193.01,1646.56 1192.41,1646.56 C1188.91,1646.56 1185.11,1647.56 1181.61,1649.46 C1175.01,1653.06 1170.91,1658.96 1170.91,1664.06 C1170.91,1665.46 1171.11,1666.76 1171.81,1667.96 C1173.31,1670.66 1176.31,1672.36 1180.21,1672.76 C1180.81,1672.86 1181.31,1672.86 1181.91,1672.86 C1185.41,1672.86 1189.11,1671.86 1192.61,1669.96 C1199.21,1666.36 1203.41,1660.56 1203.41,1655.46 C1203.41,1654.06 1203.11,1652.66 1202.41,1651.46"/>
<path class="Note" d="M1342.16,1663.96 C1340.66,1661.26 1337.76,1659.56 1333.86,1659.16 C1333.26,1659.06 1332.76,1659.06 1332.16,1659.06 C1328.66,1659.06 1324.86,1660.06 1321.36,1661.96 C1314.76,1665.56 1310.66,1671.46 1310.66,1676.56 C1310.66,1677.96 1310.86,1679.26 1311.56,1680.46 C1313.06,1683.16 1316.06,1684.86 1319.96,1685.26 C1320.56,1685.36 1321.06,1685.36 1321.66,1685.36 C1325.16,1685.36 1328.86,1684.36 1332.36,1682.46 C1338.96,1678.86 1343.16,1673.06 1343.16,1667.96 C1343.16,1666.56 1342.86,1665.16 1342.16,1663.96"/>
<path class="Note" d="M1481.92,1676.46 C1480.42,1673.76 1477.52,1672.06 1473.62,1671.66 C1473.02,1671.56 1472.52,1671.56 1471.92,1671.56 C1468.42,1671.56 1464.62,1672.56 1461.12,1674.46 C1454.52,1678.06 1450.42,1683.96 1450.42,1689.06 C1450.42,1690.46 1450.62,1691.76 1451.32,1692.96 C1452.82,1695.66 1455.82,1697.36 1459.72,1697.76 C1460.32,1697.86 1460.82,1697.86 1461.42,1697.86 C1464.92,1697.86 1468.62,1696.86 1472.12,1694.96 C1478.72,1691.36 1482.92,1685.56 1482.92,1680.46 C1482.92,1679.06 1482.62,1677.66 1481.92,1676.46"/>
<path class="Note" d="M1745.07,1538.95 C1743.57,1536.25 1740.67,1534.55 1736.77,1534.15 C1736.17,1534.05 1735.67,1534.05 1735.07,1534.05 C1731.57,1534.05 1727.77,1535.05 1724.27,1536.95 C1717.67,1540.55 1713.57,1546.45 1713.57,1551.55 C1713.57,1552.95 1713.77,1554.25 1714.47,1555.45 C1715.97,1558.15 1718.97,1559.85 1722.87,1560.25 C1723.47,1560.35 1723.97,1560.35 1724.57,1560.35 C1728.07,1560.35 1731.77,1559.35 1735.27,1557.45 C1741.87,1553.85 1746.07,1548.05 1746.07,1542.95 C1746.07,1541.55 1745.77,1540.15 1745.07,1538.95"/>
<path class="Note" d="M1871.7,1551.46 C1870.2,1548.76 1867.3,1547.06 1863.4,1546.66 C1862.8,1546.56 1862.3,1546.56 1861.7,1546.56 C1858.2,1546.56 1854.4,1547.56 1850.9,1549.46 C1844.3,1553.06 1840.2,1558.96 1840.2,1564.06 C1840.2,1565.46 1840.4,1566.76 1841.1,1567.96 C1842.6,1570.66 1845.6,1572.36 1849.5,1572.76 C1850.1,1572.86 1850.6,1572.86 1851.2,1572.86 C1854.7,1572.86 1858.4,1571.86 1861.9,1569.96 C1868.5,1566.36 1872.7,1560.56 1872.7,1555.46 C1872.7,1554.06 1872.4,1552.66 1871.7,1551.46"/>
<path class="Note" d="M1998.33,1563.96 C1996.83,1561.26 1993.93,1559.56 1990.03,1559.16 C1989.43,1559.06 1988.93,1559.06 1988.33,1559.06 C1984.83,1559.06 1981.03,1560.06 1977.53,1561.96 C1970.93,1565.56 1966.83,1571.46 1966.83,1576.56 C1966.83,1577.96 1967.03,1579.26 1967.73,1580.46 C1969.23,1583.16 1972.23,1584.86 1976.13,1585.26 C1976.73,1585.36 1977.23,1585.36 1977.83,1585.36 C1981.33,1585.36 1985.03,1584.36 1988.53,1582.46 C1995.13,1578.86 1999.33,1573.06 1999.33,1567.96 C1999.33,1566.56 1999.03,1565.16 1998.33,1563.96"/>
<path class="Note" d="M2124.95,1576.46 C2123.45,1573.76 2120.55,1572.06 2116.65,1571.66 C2116.05,1571.56 2115.55,1571.56 2114.95,1571.56 C2111.45,1571.56 2107.65,1572.56 2104.15,1574.46 C2097.55,1578.06 2093.45,1583.96 2093.45,1589.06 C2093.45,1590.46 2093.65,1591.76 2094.35,1592.96 C2095.85,1595.66 2098.85,1597.36 2102.75,1597.76 C2103.35,1597.86 2103.85,1597.86 2104.45,1597.86 C2107.95,1597.86 2111.65,1596.86 2115.15,1594.96 C2121.75,1591.36 2125.95,1585.56 2125.95,1580.46 C2125.95,1579.06 2125.65,1577.66 2124.95,1576.46"/>
<path class="Note" d="M2297.33,1588.96 C2295.83,1586.26 2292.93,1584.56 2289.03,1584.16 C2288.43,1584.06 2287.93,1584.06 2287.33,1584.06 C2283.83,1584.06 2280.03,1585.06 2276.53,1586.96 C2269.93,1590.56 2265.83,1596.46 2265.83,1601.56 C2265.83,1602.96 2266.03,1604.26 2266.73,1605.46 C2268.23,1608.16 2271.23,1609.86 2275.13,1610.26 C2275.73,1610.36 2276.23,1610.36 2276.83,1610.36 C2280.33,1610.36 2284.03,1609.36 2287.53,1607.46 C2294.13,1603.86 2298.33,1598.06 2298.33,1592.96 C2298.33,1591.56 2298.03,1590.16 2297.33,1588.96"/>
<path class="Note" d="M2455.51,1601.46 C2454.01,1598.76 2451.11,1597.06 2447.21,1596.66 C2446.61,1596.56 2446.11,1596.56 2445.51,1596.56 C2442.01,1596.56 2438.21,1597.56 2434.71,1599.46 C2428.11,1603.06 2424.01,1608.86 2424.01,1613.96 C2424.01,1615.36 2424.41,1616.76 2425.11,1617.96 C2426.61,1620.76 2429.41,1622.36 2433.31,1622.76 C2433.91,1622.86 2434.41,1622.86 2435.01,1622.86 C2438.51,1622.86 2442.31,1621.86 2445.81,1619.96 C2452.41,1616.36 2456.51,1610.46 2456.51,1605.36 C2456.51,1603.96 2456.21,1602.66 2455.51,1601.46 M2451.31,1607.76 C2449.61,1609.56 2446.41,1611.86 2442.81,1613.96 C2439.21,1616.06 2435.51,1617.76 2433.21,1618.46 C2432.71,1618.56 2432.11,1618.66 2431.61,1618.66 C2430.11,1618.66 2428.81,1617.96 2428.11,1616.86 C2427.81,1616.26 2427.61,1615.66 2427.61,1615.06 C2427.61,1613.96 2428.11,1612.86 2429.21,1611.66 C2430.91,1609.86 2434.11,1607.46 2437.71,1605.36 C2441.31,1603.26 2445.01,1601.56 2447.41,1600.96 L2447.61,1600.96 C2448.21,1600.76 2448.71,1600.66 2449.21,1600.66 C2450.61,1600.66 2451.71,1601.26 2452.41,1602.56 C2452.71,1603.16 2452.91,1603.66 2452.91,1604.26 C2452.91,1605.56 2452.21,1606.86 2451.31,1607.76"/>
<path class="Note" d="M565.554,788.907 C564.054,786.207 561.154,784.507 557.254,784.107 C556.654,784.007 556.154,784.007 555.554,784.007 C552.054,784.007 548.254,785.007 544.754,786.907 C538.154,790.507 534.054,796.407 534.054,801.507 C534.054,802.907 534.254,804.207 534.954,805.407 C536.454,808.107 539.454,809.807 543.354,810.207 C543.954,810.307 544.454,810.307 545.054,810.307 C548.554,810.307 552.254,809.307 555.754,807.407 C562.354,803.807 566.554,798.007 566.554,792.907 C566.554,791.507 566.254,790.107 565.554,788.907"/>
<path class="Note" d="M697.949,776.406 C696.449,773.706 693.549,772.006 689.649,771.606 C689.049,771.506 688.549,771.506 687.949,771.506 C684.449,771.506 680.649,772.506 677.149,774.406 C670.549,778.006 666.449,783.906 666.449,789.006 C666.449,790.406 666.649,791.706 667.349,792.906 C668.849,795.606 671.849,797.306 675.749,797.706 C676.349,797.806 676.849,797.806 677.449,797.806 C680.949,797.806 684.649,796.806 688.149,794.906 C694.749,791.306 698.949,785.506 698.949,780.406 C698.949,779.006 698.649,777.606 697.949,776.406"/>
<path class="Note" d="M830.344,763.906 C828.844,761.206 825.944,759.506 822.044,759.106 C821.444,759.006 820.944,759.006 820.344,759.006 C816.844,759.006 813.044,760.006 809.544,761.906 C802.944,765.506 798.844,771.406 798.844,776.506 C798.844,777.906 799.044,779.206 799.744,780.406 C801.244,783.106 804.244,784.806 808.144,785.206 C808.744,785.306 809.244,785.306 809.844,785.306 C813.344,785.306 817.044,784.306 820.544,782.406 C827.144,778.806 831.344,773.006 831.344,767.906 C831.344,766.506 831.044,765.106 830.344,763.906"/>
<path class="Note" d="M962.739,751.405 C961.239,748.705 958.339,747.005 954.439,746.605 C953.839,746.505 953.339,746.505 952.739,746.505 C949.239,746.505 945.439,747.505 941.939,749.405 C935.339,753.005 931.239,758.905 931.239,764.005 C931.239,765.405 931.439,766.705 932.139,767.905 C933.639,770.605 936.639,772.305 940.539,772.705 C941.139,772.805 941.639,772.805 942.239,772.805 C945.739,772.805 949.439,771.805 952.939,769.905 C959.539,766.305 963.739,760.505 963.739,755.405 C963.739,754.005 963.439,752.605 962.739,751.405"/>
<path class="Note" d="M1132.14,738.904 C1130.64,736.204 1127.74,734.504 1123.84,734.104 C1123.24,734.004 1122.74,734.004 1122.14,734.004 C1118.64,734.004 1114.84,735.004 1111.34,736.904 C1104.74,740.504 1100.64,746.404 1100.64,751.504 C1100.64,752.904 1100.84,754.204 1101.54,755.404 C1103.04,758.104 1106.04,759.804 1109.94,760.204 C1110.54,760.304 1111.04,760.304 1111.64,760.304 C1115.14,760.304 1118.84,759.304 1122.34,757.404 C1128.94,753.804 1133.14,748.004 1133.14,742.904 C1133.14,741.504 1132.84,740.104 1132.14,738.904"/>
<path class="Note" d="M1256.66,726.403 C1255.16,723.703 1252.26,722.003 1248.36,721.603 C1247.76,721.503 1247.26,721.503 1246.66,721.503 C1243.16,721.503 1239.36,722.503 1235.86,724.403 C1229.26,728.003 1225.16,733.903 1225.16,739.003 C1225.16,740.403 1225.36,741.703 1226.06,742.903 C1227.56,745.603 1230.56,747.303 1234.46,747.703 C1235.06,747.803 1235.56,747.803 1236.16,747.803 C1239.66,747.803 1243.36,746.803 1246.86,744.903 C1253.46,741.303 1257.66,735.503 1257.66,730.403 C1257.66,729.003 1257.36,727.603 1256.66,726.403"/>
<path class="Note" d="M1381.17,713.902 C1379.67,711.202 1376.77,709.502 1372.87,709.102 C1372.27,709.002 1371.77,709.002 1371.17,709.002 C1367.67,709.002 1363.87,710.002 1360.37,711.902 C1353.77,715.502 1349.67,721.402 1349.67,726.502 C1349.67,727.902 1349.87,729.202 1350.57,730.402 C1352.07,733.102 1355.07,734.802 1358.97,735.202 C1359.57,735.302 1360.07,735.302 1360.67,735.302 C1364.17,735.302 1367.87,734.302 1371.37,732.402 C1377.97,728.802 1382.17,723.002 1382.17,717.902 C1382.17,716.502 1381.87,715.102 1381.17,713.902"/>
<path class="Note" d="M1505.69,701.402 C1504.19,698.702 1501.29,697.002 1497.39,696.602 C1496.79,696.502 1496.29,696.502 1495.69,696.502 C1492.19,696.502 1488.39,697.502 1484.89,699.402 C1478.29,703.002 1474.19,708.902 1474.19,714.002 C1474.19,715.402 1474.39,716.702 1475.09,717.902 C1476.59,720.602 1479.59,722.302 1483.49,722.702 C1484.09,722.802 1484.59,722.802 1485.19,722.802 C1488.69,722.802 1492.39,721.802 1495.89,719.902 C1502.49,716.302 1506.69,710.502 1506.69,705.402 C1506.69,704.002 1506.39,702.602 1505.69,701.402"/>
<path class="Note" d="M1759.96,688.901 C1758.46,686.201 1755.56,684.501 1751.66,684.101 C1751.06,684.001 1750.56,684.001 1749.96,684.001 C1746.46,684.001 1742.66,685.001 1739.16,686.901 C1732.56,690.501 1728.46,696.401 1728.46,701.501 C1728.46,702.901 1728.66,704.201 1729.36,705.401 C1730.86,708.101 1733.86,709.801 1737.76,710.201 C1738.36,710.301 1738.86,710.301 1739.46,710.301 C1742.96,710.301 1746.66,709.301 1750.16,707.401 C1756.76,703.801 1760.96,698.001 1760.96,692.901 C1760.96,691.501 1760.66,690.101 1759.96,688.901"/>
<path class="Note" d="M1887.11,676.4 C1885.61,673.7 1882.71,672 1878.81,671.6 C1878.21,671.5 1877.71,671.5 1877.11,671.5 C1873.61,671.5 1869.81,672.5 1866.31,674.4 C1859.71,678 1855.61,683.9 1855.61,689 C1855.61,690.4 1855.81,691.7 1856.51,692.9 C1858.01,695.6 1861.01,697.3 1864.91,697.7 C1865.51,697.8 1866.01,697.8 1866.61,697.8 C1870.11,697.8 1873.81,696.8 1877.31,694.9 C1883.91,691.3 1888.11,685.5 1888.11,680.4 C1888.11,679 1887.81,677.6 1887.11,676.4"/>
<path class="Note" d="M2014.25,663.899 C2012.75,661.199 2009.85,659.499 2005.95,659.099 C2005.35,658.999 2004.85,658.999 2004.25,658.999 C2000.75,658.999 1996.95,659.999 1993.45,661.899 C1986.85,665.499 1982.75,671.399 1982.75,676.499 C1982.75,677.899 1982.95,679.199 1983.65,680.399 C1985.15,683.099 1988.15,684.799 1992.05,685.199 C1992.65,685.299 1993.15,685.299 1993.75,685.299 C1997.25,685.299 2000.95,684.299 2004.45,682.399 C2011.05,678.799 2015.25,672.999 2015.25,667.899 C2015.25,666.499 2014.95,665.099 2014.25,663.899"/>
<path class="Note" d="M2141.4,651.398 C2139.9,648.698 2137,646.998 2133.1,646.598 C2132.5,646.498 2132,646.498 2131.4,646.498 C2127.9,646.498 2124.1,647.498 2120.6,649.398 C2114,652.998 2109.9,658.898 2109.9,663.998 C2109.9,665.398 2110.1,666.698 2110.8,667.898 C2112.3,670.598 2115.3,672.298 2119.2,672.698 C2119.8,672.798 2120.3,672.798 2120.9,672.798 C2124.4,672.798 2128.1,671.798 2131.6,669.898 C2138.2,666.298 2142.4,660.498 2142.4,655.398 C2142.4,653.998 2142.1,652.598 2141.4,651.398"/>
<path class="Note" d="M2305.54,638.898 C2304.04,636.198 2301.14,634.498 2297.24,634.098 C2296.64,633.998 2296.14,633.998 2295.54,633.998 C2292.04,633.998 2288.24,634.998 2284.74,636.898 C2278.14,640.498 2274.04,646.398 2274.04,651.498 C2274.04,652.898 2274.24,654.198 2274.94,655.398 C2276.44,658.098 2279.44,659.798 2283.34,660.198 C2283.94,660.298 2284.44,660.298 2285.04,660.298 C2288.54,660.298 2292.24,659.298 2295.74,657.398 C2302.34,653.798 2306.54,647.998 2306.54,642.898 C2306.54,641.498 2306.24,640.098 2305.54,638.898"/>
<path class="Note" d="M2440.57,626.397 C2439.07,623.697 2436.17,621.997 2432.27,621.597 C2431.67,621.497 2431.17,621.497 2430.57,621.497 C2427.07,621.497 2423.27,622.497 2419.77,624.397 C2413.17,627.997 2409.07,633.897 2409.07,638.997 C2409.07,640.397 2409.27,641.697 2409.97,642.897 C2411.47,645.597 2414.47,647.297 2418.37,647.697 C2418.97,647.797 2419.47,647.797 2420.07,647.797 C2423.57,647.797 2427.27,646.797 2430.77,644.897 C2437.37,641.297 2441.57,635.497 2441.57,630.397 C2441.57,628.997 2441.27,627.597 2440.57,626.397"/>
<path class="Note" d="M2575.59,613.896 C2574.09,611.196 2571.19,609.496 2567.29,609.096 C2566.69,608.996 2566.19,608.996 2565.59,608.996 C2562.09,608.996 2558.29,609.996 2554.79,611.896 C2548.19,615.496 2544.09,621.296 2544.09,626.396 C2544.09,627.796 2544.49,629.196 2545.19,630.396 C2546.69,633.196 2549.49,634.796 2553.39,635.196 C2553.99,635.296 2554.49,635.296 2555.09,635.296 C2558.59,635.296 2562.39,634.296 2565.89,632.396 C2572.49,628.796 2576.59,622.896 2576.59,617.796 C2576.59,616.396 2576.29,615.096 2575.59,613.896 M2571.39,620.196 C2569.69,621.996 2566.49,624.296 2562.89,626.396 C2559.29,628.496 2555.59,630.196 2553.29,630.896 C2552.79,630.996 2552.19,631.096 2551.69,631.096 C2550.19,631.096 2548.89,630.396 2548.19,629.296 C2547.89,628.696 2547.69,628.096 2547.69,627.496 C2547.69,626.396 2548.19,625.296 2549.29,624.096 C2550.99,622.296 2554.19,619.896 2557.79,617.796 C2561.39,615.696 2565.09,613.996 2567.49,613.396 L2567.69,613.396 C2568.29,613.196 2568.79,613.096 2569.29,613.096 C2570.69,613.096 2571.79,613.696 2572.49,614.996 C2572.79,615.596 2572.99,616.096 2572.99,616.696 C2572.99,617.996 2572.29,619.296 2571.39,620.196"/>
<path class="Note" d="M508.652,1238.94 C507.152,1236.24 504.252,1234.54 500.352,1234.14 C499.752,1234.04 499.252,1234.04 498.652,1234.04 C495.152,1234.04 491.352,1235.04 487.852,1236.94 C481.252,1240.54 477.152,1246.44 477.152,1251.54 C477.152,1252.94 477.352,1254.24 478.052,1255.44 C479.552,1258.14 482.552,1259.84 486.452,1260.24 C487.052,1260.34 487.552,1260.34 488.152,1260.34 C491.652,1260.34 495.352,1259.34 498.852,1257.44 C505.452,1253.84 509.652,1248.04 509.652,1242.94 C509.652,1241.54 509.352,1240.14 508.652,1238.94"/>
<path class="Note" d="M637.903,1251.44 C636.403,1248.74 633.503,1247.04 629.603,1246.64 C629.003,1246.54 628.503,1246.54 627.903,1246.54 C624.403,1246.54 620.603,1247.54 617.103,1249.44 C610.503,1253.04 606.403,1258.94 606.403,1264.04 C606.403,1265.44 606.603,1266.74 607.303,1267.94 C608.803,1270.64 611.803,1272.34 615.703,1272.74 C616.303,1272.84 616.803,1272.84 617.403,1272.84 C620.903,1272.84 624.603,1271.84 628.103,1269.94 C634.703,1266.34 638.903,1260.54 638.903,1255.44 C638.903,1254.04 638.603,1252.64 637.903,1251.44"/>
<path class="Note" d="M767.155,1263.94 C765.655,1261.24 762.755,1259.54 758.855,1259.14 C758.255,1259.04 757.755,1259.04 757.155,1259.04 C753.655,1259.04 749.855,1260.04 746.355,1261.94 C739.755,1265.54 735.655,1271.44 735.655,1276.54 C735.655,1277.94 735.855,1279.24 736.555,1280.44 C738.055,1283.14 741.055,1284.84 744.955,1285.24 C745.555,1285.34 746.055,1285.34 746.655,1285.34 C750.155,1285.34 753.855,1284.34 757.355,1282.44 C763.955,1278.84 768.155,1273.04 768.155,1267.94 C768.155,1266.54 767.855,1265.14 767.155,1263.94"/>
<path class="Note" d="M896.406,1276.44 C894.906,1273.74 892.006,1272.04 888.106,1271.64 C887.506,1271.54 887.006,1271.54 886.406,1271.54 C882.906,1271.54 879.106,1272.54 875.606,1274.44 C869.006,1278.04 864.906,1283.94 864.906,1289.04 C864.906,1290.44 865.106,1291.74 865.806,1292.94 C867.306,1295.64 870.306,1297.34 874.206,1297.74 C874.806,1297.84 875.306,1297.84 875.906,1297.84 C879.406,1297.84 883.106,1296.84 886.606,1294.94 C893.206,1291.34 897.406,1285.54 897.406,1280.44 C897.406,1279.04 897.106,1277.64 896.406,1276.44"/>
<path class="Note" d="M1062.66,1288.94 C1061.16,1286.24 1058.26,1284.54 1054.36,1284.14 C1053.76,1284.04 1053.26,1284.04 1052.66,1284.04 C1049.16,1284.04 1045.36,1285.04 1041.86,1286.94 C1035.26,1290.54 1031.16,1296.44 1031.16,1301.54 C1031.16,1302.94 1031.36,1304.24 1032.06,1305.44 C1033.56,1308.14 1036.56,1309.84 1040.46,1310.24 C1041.06,1310.34 1041.56,1310.34 1042.16,1310.34 C1045.66,1310.34 1049.36,1309.34 1052.86,1307.44 C1059.46,1303.84 1063.66,1298.04 1063.66,1292.94 C1063.66,1291.54 1063.36,1290.14 1062.66,1288.94"/>
<path class="Note" d="M1202.41,1301.44 C1200.91,1298.74 1198.01,1297.04 1194.11,1296.64 C1193.51,1296.54 1193.01,1296.54 1192.41,1296.54 C1188.91,1296.54 1185.11,1297.54 1181.61,1299.44 C1175.01,1303.04 1170.91,1308.94 1170.91,1314.04 C1170.91,1315.44 1171.11,1316.74 1171.81,1317.94 C1173.31,1320.64 1176.31,1322.34 1180.21,1322.74 C1180.81,1322.84 1181.31,1322.84 1181.91,1322.84 C1185.41,1322.84 1189.11,1321.84 1192.61,1319.94 C1199.21,1316.34 1203.41,1310.54 1203.41,1305.44 C1203.41,1304.04 1203.11,1302.64 1202.41,1301.44"/>
<path class="Note" d="M1342.16,1313.94 C1340.66,1311.24 1337.76,1309.54 1333.86,1309.14 C1333.26,1309.04 1332.76,1309.04 1332.16,1309.04 C1328.66,1309.04 1324.86,1310.04 1321.36,1311.94 C1314.76,1315.54 1310.66,1321.44 1310.66,1326.54 C1310.66,1327.94 1310.86,1329.24 1311.56,1330.44 C1313.06,1333.14 1316.06,1334.84 1319.96,1335.24 C1320.56,1335.34 1321.06,1335.34 1321.66,1335.34 C1325.16,1335.34 1328.86,1334.34 1332.36,1332.44 C1338.96,1328.84 1343.16,1323.04 1343.16,1317.94 C1343.16,1316.54 1342.86,1315.14 1342.16,1313.94"/>
<path class="Note" d="M1481.92,1326.44 C1480.42,1323.74 1477.52,1322.04 1473.62,1321.64 C1473.02,1321.54 1472.52,1321.54 1471.92,1321.54 C1468.42,1321.54 1464.62,1322.54 1461.12,1324.44 C1454.52,1328.04 1450.42,1333.94 1450.42,1339.04 C1450.42,1340.44 1450.62,1341.74 1451.32,1342.94 C1452.82,1345.64 1455.82,1347.34 1459.72,1347.74 C1460.32,1347.84 1460.82,1347.84 1461.42,1347.84 C1464.92,1347.84 1468.62,1346.84 1472.12,1344.94 C1478.72,1341.34 1482.92,1335.54 1482.92,1330.44 C1482.92,1329.04 1482.62,1327.64 1481.92,1326.44"/>
<path class="Note" d="M1745.07,1338.94 C1743.57,1336.24 1740.67,1334.54 1736.77,1334.14 C1736.17,1334.04 1735.67,1334.04 1735.07,1334.04 C1731.57,1334.04 1727.77,1335.04 1724.27,1336.94 C1717.67,1340.54 1713.57,1346.44 1713.57,1351.54 C1713.57,1352.94 1713.77,1354.24 1714.47,1355.44 C1715.97,1358.14 1718.97,1359.84 1722.87,1360.24 C1723.47,1360.34 1723.97,1360.34 1724.57,1360.34 C1728.07,1360.34 1731.77,1359.34 1735.27,1357.44 C1741.87,1353.84 1746.07,1348.04 1746.07,1342.94 C1746.07,1341.54 1745.77,1340.14 1745.07,1338.94"/>
<path class="Note" d="M1871.7,1351.44 C1870.2,1348.74 1867.3,1347.04 1863.4,1346.64 C1862.8,1346.54 1862.3,1346.54 1861.7,1346.54 C1858.2,1346.54 1854.4,1347.54 1850.9,1349.44 C1844.3,1353.04 1840.2,1358.94 1840.2,1364.04 C1840.2,1365.44 1840.4,1366.74 1841.1,1367.94 C1842.6,1370.64 1845.6,1372.34 1849.5,1372.74 C1850.1,1372.84 1850.6,1372.84 1851.2,1372.84 C1854.7,1372.84 1858.4,1371.84 1861.9,1369.94 C1868.5,1366.34 1872.7,1360.54 1872.7,1355.44 C1872.7,1354.04 1872.4,1352.64 1871.7,1351.44"/>
<path class="Note" d="M1998.33,1363.94 C1996.83,1361.24 1993.93,1359.54 1990.03,1359.14 C1989.43,1359.04 1988.93,1359.04 1988.33,1359.04 C1984.83,1359.04 1981.03,1360.04 1977.53,1361.94 C1970.93,1365.54 1966.83,1371.44 1966.83,1376.54 C1966.83,1377.94 1967.03,1379.24 1967.73,1380.44 C1969.23,1383.14 1972.23,1384.84 1976.13,1385.24 C1976.73,1385.34 1977.23,1385.34 1977.83,1385.34 C1981.33,1385.34 1985.03,1384.34 1988.53,1382.44 C1995.13,1378.84 1999.33,1373.04 1999.33,1367.94 C1999.33,1366.54 1999.03,1365.14 1998.33,1363.94"/>
<path class="Note" d="M2124.95,1376.44 C2123.45,1373.74 2120.55,1372.04 2116.65,1371.64 C2116.05,1371.54 2115.55,1371.54 2114.95,1371.54 C2111.45,1371.54 2107.65,1372.54 2104.15,1374.44 C2097.55,1378.04 2093.45,1383.94 2093.45,1389.04 C2093.45,1390.44 2093.65,1391.74 2094.35,1392.94 C2095.85,1395.64 2098.85,1397.34 2102.75,1397.74 C2103.35,1397.84 2103.85,1397.84 2104.45,1397.84 C2107.95,1397.84 2111.65,1396.84 2115.15,1394.94 C2121.75,1391.34 2125.95,1385.54 2125.95,1380.44 C2125.95,1379.04 2125.65,1377.64 2124.95,1376.44"/>
<path class="Note" d="M2297.33,1388.94 C2295.83,1386.24 2292.93,1384.54 2289.03,1384.14 C2288.43,1384.04 2287.93,1384.04 2287.33,1384.04 C2283.83,1384.04 2280.03,1385.04 2276.53,1386.94 C2269.93,1390.54 2265.83,1396.44 2265.83,1401.54 C2265.83,1402.94 2266.03,1404.24 2266.73,1405.44 C2268.23,1408.14 2271.23,1409.84 2275.13,1410.24 C2275.73,1410.34 2276.23,1410.34 2276.83,1410.34 C2280.33,1410.34 2284.03,1409.34 2287.53,1407.44 C2294.13,1403.84 2298.33,1398.04 2298.33,1392.94 C2298.33,1391.54 2298.03,1390.14 2297.33,1388.94"/>
<path class="Note" d="M2455.51,1401.45 C2454.01,1398.75 2451.11,1397.05 2447.21,1396.65 C2446.61,1396.55 2446.11,1396.55 2445.51,1396.55 C2442.01,1396.55 2438.21,1397.55 2434.71,1399.45 C2428.11,1403.05 2424.01,1408.85 2424.01,1413.95 C2424.01,1415.35 2424.41,1416.75 2425.11,1417.95 C2426.61,1420.75 2429.41,1422.35 2433.31,1422.75 C2433.91,1422.85 2434.41,1422.85 2435.01,1422.85 C2438.51,1422.85 2442.31,1421.85 2445.81,1419.95 C2452.41,1416.35 2456.51,1410.45 2456.51,1405.35 C2456.51,1403.95 2456.21,1402.65 2455.51,1401.45 M2451.31,1407.75 C2449.61,1409.55 2446.41,1411.85 2442.81,1413.95 C2439.21,1416.05 2435.51,1417.75 2433.21,1418.45 C2432.71,1418.55 2432.11,1418.65 2431.61,1418.65 C2430.11,1418.65 2428.81,1417.95 2428.11,1416.85 C2427.81,1416.25 2427.61,1415.65 2427.61,1415.05 C2427.61,1413.95 2428.11,1412.85 2429.21,1411.65 C2430.91,1409.85 2434.11,1407.45 2437.71,1405.35 C2441.31,1403.25 2445.01,1401.55 2447.41,1400.95 L2447.61,1400.95 C2448.21,1400.75 2448.71,1400.65 2449.21,1400.65 C2450.61,1400.65 2451.71,1401.25 2452.41,1402.55 C2452.71,1403.15 2452.91,1403.65 2452.91,1404.25 C2452.91,1405.55 2452.21,1406.85 2451.31,1407.75"/>
<path class="Clef" d="M297,922.017 C289.4,922.017 283.3,926.417 283.2,926.417 C277.4,930.717 275.1,935.817 274.2,939.317 C273.7,941.117 273.5,942.917 273.5,944.617 C273.5,947.017 273.9,949.217 274.8,951.117 C276,953.817 278.3,955.717 281.3,956.717 C282.5,957.117 283.8,957.317 285.1,957.317 C287.3,957.317 289.6,956.717 291.5,955.617 C294.6,953.917 296.5,950.317 296.5,946.417 C296.5,942.917 294.7,939.717 291.7,937.817 C289.6,936.417 287.6,936.017 285.9,936.017 C284.7,936.017 283.6,936.217 282.7,936.517 C281.7,936.917 280,937.917 279.2,938.617 C279.5,936.717 280.7,933.817 281.8,932.217 C282.9,930.617 285.1,928.617 286.8,927.717 C289.3,926.317 292.5,925.717 296,925.717 C306.2,925.717 311.2,933.917 311.2,950.717 C311.2,960.017 307.7,968.917 304.7,974.817 C301.4,981.417 297,987.717 293.1,991.217 C282.7,1000.72 272.9,1005.22 272.8,1005.22 C272.8,1005.22 271.3,1006.12 271.7,1007.62 C272,1008.62 272.9,1008.82 273.5,1008.82 C273.6,1008.82 273.9,1008.72 274,1008.72 C274.1,1008.72 285.5,1004.02 294.6,996.917 C299.7,993.217 304.3,989.217 308.3,984.917 C311.9,981.017 315,976.817 317.5,972.617 C321.9,965.117 324.4,957.317 324.4,950.617 C324.4,942.317 322.2,935.417 318.1,930.517 C313.4,924.917 306.3,922.017 297,922.017 M328.4,934.717 C328.4,937.517 330.6,939.717 333.2,939.717 C335.8,939.717 338,937.517 338,934.717 C338,931.917 335.8,929.617 333.2,929.617 C330.6,929.617 328.4,931.917 328.4,934.717 M328.4,959.417 C328.4,962.217 330.6,964.517 333.2,964.517 C335.8,964.517 338,962.217 338,959.417 C338,956.617 335.8,954.317 333.2,954.317 C330.6,954.317 328.4,956.617 328.4,959.417"/>
<path class="Clef" d="M1686.62,991.22 C1685.42,985.82 1682.72,981.92 1681.92,980.92 C1678.72,976.62 1674.72,973.82 1670.02,972.42 C1667.72,971.72 1665.62,971.52 1663.62,971.52 C1662.92,971.52 1662.22,971.52 1661.52,971.62 C1660.52,965.62 1659.42,959.72 1658.52,954.32 C1664.12,948.12 1667.82,942.22 1670.22,937.82 C1673.82,931.12 1675.22,926.42 1675.32,926.22 C1676.52,923.22 1677.22,919.42 1677.22,914.92 C1677.22,912.22 1676.92,909.32 1676.52,906.32 C1675.42,899.22 1673.22,892.52 1670.72,888.82 C1669.42,886.92 1668.22,885.82 1667.02,885.82 C1665.82,885.82 1663.32,887.02 1660.42,889.82 C1658.12,892.02 1654.82,895.92 1652.22,901.92 C1649.92,907.32 1649.22,914.22 1649.22,920.12 C1649.22,921.92 1649.32,923.62 1649.42,925.22 C1649.62,928.82 1650.32,934.62 1650.92,938.22 C1650.92,938.32 1651.22,939.82 1651.62,942.42 L1650.92,943.12 C1649.92,944.12 1648.72,945.22 1647.32,946.62 C1646.42,947.52 1645.52,948.32 1644.52,949.32 C1636.02,957.52 1623.22,969.92 1623.22,989.02 C1623.22,993.72 1624.12,998.12 1625.92,1002.12 C1627.52,1005.72 1629.82,1009.02 1632.72,1011.92 C1640.22,1019.32 1650.42,1022.52 1657.52,1022.52 L1658.12,1022.52 C1661.02,1022.42 1663.72,1022.12 1666.12,1021.72 C1667.92,1031.32 1669.12,1038.42 1669.12,1043.72 C1669.12,1050.22 1667.52,1054.12 1663.62,1056.92 C1661.22,1058.62 1658.32,1059.72 1655.22,1059.82 L1654.42,1059.82 C1652.92,1059.82 1650.42,1059.42 1648.92,1059.02 C1648.92,1059.02 1648.62,1058.92 1648.62,1058.72 C1648.62,1058.52 1649.02,1058.52 1649.02,1058.52 C1650.92,1058.12 1654.52,1056.82 1656.92,1053.52 C1658.02,1052.02 1658.72,1049.72 1658.72,1047.22 C1658.72,1045.62 1658.42,1043.92 1657.72,1042.42 C1656.62,1040.02 1654.02,1037.02 1648.42,1036.62 L1647.32,1036.62 C1645.22,1036.62 1643.42,1037.12 1641.72,1038.12 C1639.92,1039.22 1638.32,1040.92 1637.32,1042.92 C1636.22,1044.92 1635.72,1047.12 1635.72,1049.32 C1635.72,1052.22 1636.62,1054.92 1638.42,1057.12 C1641.42,1060.72 1646.12,1063.02 1651.52,1063.62 C1652.22,1063.72 1653.32,1063.82 1654.02,1063.82 C1658.42,1063.82 1662.82,1062.62 1666.42,1060.42 C1670.12,1057.82 1672.22,1053.82 1672.92,1048.22 C1673.12,1046.92 1673.12,1045.52 1673.12,1044.02 C1673.12,1040.12 1672.62,1035.42 1671.62,1029.62 C1671.22,1027.52 1670.82,1024.52 1670.12,1020.72 C1675.92,1018.82 1680.02,1015.12 1683.82,1009.32 C1686.12,1005.32 1687.22,1001.22 1687.22,996.92 C1687.22,995.02 1687.02,993.12 1686.62,991.22 M1656.42,913.32 C1658.22,907.62 1660.92,904.22 1662.92,902.52 C1664.72,901.02 1666.32,900.32 1667.22,900.32 C1667.32,900.32 1667.52,900.42 1667.62,900.42 C1667.92,900.52 1668.32,901.02 1668.72,901.72 C1669.62,903.52 1670.52,906.82 1670.52,910.52 C1670.52,912.42 1670.32,914.42 1669.72,916.22 C1667.52,923.02 1662.92,930.32 1655.92,938.02 C1655.72,936.92 1655.52,935.92 1655.42,934.92 C1654.92,931.72 1654.62,928.52 1654.62,925.62 C1654.62,921.12 1655.22,917.02 1656.42,913.32 M1652.42,1017.42 C1647.82,1016.22 1643.32,1013.72 1639.52,1010.22 C1638.22,1009.02 1636.42,1006.82 1634.92,1003.42 C1633.62,1000.42 1632.92,997.32 1632.92,993.92 L1632.92,993.22 C1633.02,988.52 1634.32,983.72 1636.82,978.92 C1639.72,973.32 1644.22,967.82 1650.32,962.52 C1651.82,961.22 1653.22,959.92 1654.52,958.62 C1655.32,962.92 1656.02,967.62 1656.92,972.52 C1653.02,973.82 1648.32,976.82 1645.22,982.52 C1642.82,987.02 1642.12,990.92 1642.12,994.12 C1642.12,995.62 1642.32,997.02 1642.52,998.12 C1643.42,1002.62 1646.02,1006.32 1649.52,1008.42 C1650.32,1008.92 1653.62,1010.62 1655.62,1010.62 C1655.92,1010.62 1656.22,1010.62 1656.42,1010.52 C1656.72,1010.42 1657.02,1010.22 1657.12,1009.92 C1657.22,1009.72 1657.22,1009.52 1657.22,1009.32 C1657.22,1008.52 1656.42,1007.92 1655.12,1007.12 C1654.52,1006.72 1653.82,1006.32 1653.12,1005.82 C1650.52,1003.82 1649.02,1000.72 1649.02,997.32 C1649.02,996.32 1649.22,995.42 1649.42,994.42 C1649.92,992.42 1651.62,989.62 1653.12,988.22 C1654.82,986.72 1656.82,985.52 1659.22,984.92 C1661.22,996.12 1663.32,1007.22 1664.92,1015.62 C1665.02,1016.32 1665.22,1017.02 1665.32,1017.72 C1663.32,1018.12 1661.32,1018.32 1659.42,1018.32 C1657.02,1018.32 1654.72,1018.02 1652.42,1017.42 M1678.12,1007.22 C1676.92,1010.42 1674.42,1014.42 1669.32,1016.52 C1669.22,1016.12 1669.22,1015.62 1669.12,1015.22 C1667.62,1006.42 1665.72,995.52 1663.72,984.22 L1664.72,984.22 C1674.42,984.22 1678.32,991.42 1679.22,996.02 C1679.42,996.92 1679.52,998.12 1679.52,999.42 C1679.52,1001.72 1679.12,1004.52 1678.12,1007.22"/>
<path class="Clef" d="M335,1603.76 C333.8,1598.36 331.1,1594.46 330.3,1593.46 C327.1,1589.16 323.1,1586.36 318.4,1584.96 C316.1,1584.26 314,1584.06 312,1584.06 C311.3,1584.06 310.6,1584.06 309.9,1584.16 C308.9,1578.16 307.8,1572.26 306.9,1566.86 C312.5,1560.66 316.2,1554.76 318.6,1550.36 C322.2,1543.66 323.6,1538.96 323.7,1538.76 C324.9,1535.76 325.6,1531.96 325.6,1527.46 C325.6,1524.76 325.3,1521.86 324.9,1518.86 C323.8,1511.76 321.6,1505.06 319.1,1501.36 C317.8,1499.46 316.6,1498.36 315.4,1498.36 C314.2,1498.36 311.7,1499.56 308.8,1502.36 C306.5,1504.56 303.2,1508.46 300.6,1514.46 C298.3,1519.86 297.6,1526.76 297.6,1532.66 C297.6,1534.46 297.7,1536.16 297.8,1537.76 C298,1541.36 298.7,1547.16 299.3,1550.76 C299.3,1550.86 299.6,1552.36 300,1554.96 L299.3,1555.66 C298.3,1556.66 297.1,1557.76 295.7,1559.16 C294.8,1560.06 293.9,1560.86 292.9,1561.86 C284.4,1570.06 271.6,1582.46 271.6,1601.56 C271.6,1606.26 272.5,1610.66 274.3,1614.66 C275.9,1618.26 278.2,1621.56 281.1,1624.46 C288.6,1631.86 298.8,1635.06 305.9,1635.06 L306.5,1635.06 C309.4,1634.96 312.1,1634.66 314.5,1634.26 C316.3,1643.86 317.5,1650.96 317.5,1656.26 C317.5,1662.76 315.9,1666.66 312,1669.46 C309.6,1671.16 306.7,1672.26 303.6,1672.36 L302.8,1672.36 C301.3,1672.36 298.8,1671.96 297.3,1671.56 C297.3,1671.56 297,1671.46 297,1671.26 C297,1671.06 297.4,1671.06 297.4,1671.06 C299.3,1670.66 302.9,1669.36 305.3,1666.06 C306.4,1664.56 307.1,1662.26 307.1,1659.76 C307.1,1658.16 306.8,1656.46 306.1,1654.96 C305,1652.56 302.4,1649.56 296.8,1649.16 L295.7,1649.16 C293.6,1649.16 291.8,1649.66 290.1,1650.66 C288.3,1651.76 286.7,1653.46 285.7,1655.46 C284.6,1657.46 284.1,1659.66 284.1,1661.86 C284.1,1664.76 285,1667.46 286.8,1669.66 C289.8,1673.26 294.5,1675.56 299.9,1676.16 C300.6,1676.26 301.7,1676.36 302.4,1676.36 C306.8,1676.36 311.2,1675.16 314.8,1672.96 C318.5,1670.36 320.6,1666.36 321.3,1660.76 C321.5,1659.46 321.5,1658.06 321.5,1656.56 C321.5,1652.66 321,1647.96 320,1642.16 C319.6,1640.06 319.2,1637.06 318.5,1633.26 C324.3,1631.36 328.4,1627.66 332.2,1621.86 C334.5,1617.86 335.6,1613.76 335.6,1609.46 C335.6,1607.56 335.4,1605.66 335,1603.76 M304.8,1525.86 C306.6,1520.16 309.3,1516.76 311.3,1515.06 C313.1,1513.56 314.7,1512.86 315.6,1512.86 C315.7,1512.86 315.9,1512.96 316,1512.96 C316.3,1513.06 316.7,1513.56 317.1,1514.26 C318,1516.06 318.9,1519.36 318.9,1523.06 C318.9,1524.96 318.7,1526.96 318.1,1528.76 C315.9,1535.56 311.3,1542.86 304.3,1550.56 C304.1,1549.46 303.9,1548.46 303.8,1547.46 C303.3,1544.26 303,1541.06 303,1538.16 C303,1533.66 303.6,1529.56 304.8,1525.86 M300.8,1629.96 C296.2,1628.76 291.7,1626.26 287.9,1622.76 C286.6,1621.56 284.8,1619.36 283.3,1615.96 C282,1612.96 281.3,1609.86 281.3,1606.46 L281.3,1605.76 C281.4,1601.06 282.7,1596.26 285.2,1591.46 C288.1,1585.86 292.6,1580.36 298.7,1575.06 C300.2,1573.76 301.6,1572.46 302.9,1571.16 C303.7,1575.46 304.4,1580.16 305.3,1585.06 C301.4,1586.36 296.7,1589.36 293.6,1595.06 C291.2,1599.56 290.5,1603.46 290.5,1606.66 C290.5,1608.16 290.7,1609.56 290.9,1610.66 C291.8,1615.16 294.4,1618.86 297.9,1620.96 C298.7,1621.46 302,1623.16 304,1623.16 C304.3,1623.16 304.6,1623.16 304.8,1623.06 C305.1,1622.96 305.4,1622.76 305.5,1622.46 C305.6,1622.26 305.6,1622.06 305.6,1621.86 C305.6,1621.06 304.8,1620.46 303.5,1619.66 C302.9,1619.26 302.2,1618.86 301.5,1618.36 C298.9,1616.36 297.4,1613.26 297.4,1609.86 C297.4,1608.86 297.6,1607.96 297.8,1606.96 C298.3,1604.96 300,1602.16 301.5,1600.76 C303.2,1599.26 305.2,1598.06 307.6,1597.46 C309.6,1608.66 311.7,1619.76 313.3,1628.16 C313.4,1628.86 313.6,1629.56 313.7,1630.26 C311.7,1630.66 309.7,1630.86 307.8,1630.86 C305.4,1630.86 303.1,1630.56 300.8,1629.96 M326.5,1619.76 C325.3,1622.96 322.8,1626.96 317.7,1629.06 C317.6,1628.66 317.6,1628.16 317.5,1627.76 C316,1618.96 314.1,1608.06 312.1,1596.76 L313.1,1596.76 C322.8,1596.76 326.7,1603.96 327.6,1608.56 C327.8,1609.46 327.9,1610.66 327.9,1611.96 C327.9,1614.26 327.5,1617.06 326.5,1619.76"/>
<path class="Clef" d="M1640.07,1534.56 C1632.47,1534.56 1626.37,1538.96 1626.27,1538.96 C1620.47,1543.26 1618.17,1548.36 1617.27,1551.86 C1616.77,1553.66 1616.57,1555.46 1616.57,1557.16 C1616.57,1559.56 1616.97,1561.76 1617.87,1563.66 C1619.07,1566.36 1621.37,1568.26 1624.37,1569.26 C1625.57,1569.66 1626.87,1569.86 1628.17,1569.86 C1630.37,1569.86 1632.67,1569.26 1634.57,1568.16 C1637.67,1566.46 1639.57,1562.86 1639.57,1558.96 C1639.57,1555.46 1637.77,1552.26 1634.77,1550.36 C1632.67,1548.96 1630.67,1548.56 1628.97,1548.56 C1627.77,1548.56 1626.67,1548.76 1625.77,1549.06 C1624.77,1549.46 1623.07,1550.46 1622.27,1551.16 C1622.57,1549.26 1623.77,1546.36 1624.87,1544.76 C1625.97,1543.16 1628.17,1541.16 1629.87,1540.26 C1632.37,1538.86 1635.57,1538.26 1639.07,1538.26 C1649.27,1538.26 1654.27,1546.46 1654.27,1563.26 C1654.27,1572.56 1650.77,1581.46 1647.77,1587.36 C1644.47,1593.96 1640.07,1600.26 1636.17,1603.76 C1625.77,1613.26 1615.97,1617.76 1615.87,1617.76 C1615.87,1617.76 1614.37,1618.66 1614.77,1620.16 C1615.07,1621.16 1615.97,1621.36 1616.57,1621.36 C1616.67,1621.36 1616.97,1621.26 1617.07,1621.26 C1617.17,1621.26 1628.57,1616.56 1637.67,1609.46 C1642.77,1605.76 1647.37,1601.76 1651.37,1597.46 C1654.97,1593.56 1658.07,1589.36 1660.57,1585.16 C1664.97,1577.66 1667.47,1569.86 1667.47,1563.16 C1667.47,1554.86 1665.27,1547.96 1661.17,1543.06 C1656.47,1537.46 1649.37,1534.56 1640.07,1534.56 M1671.47,1547.26 C1671.47,1550.06 1673.67,1552.26 1676.27,1552.26 C1678.87,1552.26 1681.07,1550.06 1681.07,1547.26 C1681.07,1544.46 1678.87,1542.16 1676.27,1542.16 C1673.67,1542.16 1671.47,1544.46 1671.47,1547.26 M1671.47,1571.96 C1671.47,1574.76 1673.67,1577.06 1676.27,1577.06 C1678.87,1577.06 1681.07,1574.76 1681.07,1571.96 C1681.07,1569.16 1678.87,1566.86 1676.27,1566.86 C1673.67,1566.86 1671.47,1569.16 1671.47,1571.96"/>
<path class="Clef" d="M335,728.703 C333.8,723.303 331.1,719.403 330.3,718.403 C327.1,714.103 323.1,711.303 318.4,709.903 C316.1,709.203 314,709.003 312,709.003 C311.3,709.003 310.6,709.003 309.9,709.103 C308.9,703.103 307.8,697.203 306.9,691.803 C312.5,685.603 316.2,679.703 318.6,675.303 C322.2,668.603 323.6,663.903 323.7,663.703 C324.9,660.703 325.6,656.903 325.6,652.403 C325.6,649.703 325.3,646.803 324.9,643.803 C323.8,636.703 321.6,630.003 319.1,626.303 C317.8,624.403 316.6,623.303 315.4,623.303 C314.2,623.303 311.7,624.503 308.8,627.303 C306.5,629.503 303.2,633.403 300.6,639.403 C298.3,644.803 297.6,651.703 297.6,657.603 C297.6,659.403 297.7,661.103 297.8,662.703 C298,666.303 298.7,672.103 299.3,675.703 C299.3,675.803 299.6,677.303 300,679.903 L299.3,680.603 C298.3,681.603 297.1,682.703 295.7,684.103 C294.8,685.003 293.9,685.803 292.9,686.803 C284.4,695.003 271.6,707.403 271.6,726.503 C271.6,731.203 272.5,735.603 274.3,739.603 C275.9,743.203 278.2,746.503 281.1,749.403 C288.6,756.803 298.8,760.003 305.9,760.003 L306.5,760.003 C309.4,759.903 312.1,759.603 314.5,759.203 C316.3,768.803 317.5,775.903 317.5,781.203 C317.5,787.703 315.9,791.603 312,794.403 C309.6,796.103 306.7,797.203 303.6,797.303 L302.8,797.303 C301.3,797.303 298.8,796.903 297.3,796.503 C297.3,796.503 297,796.403 297,796.203 C297,796.003 297.4,796.003 297.4,796.003 C299.3,795.603 302.9,794.303 305.3,791.003 C306.4,789.503 307.1,787.203 307.1,784.703 C307.1,783.103 306.8,781.403 306.1,779.903 C305,777.503 302.4,774.503 296.8,774.103 L295.7,774.103 C293.6,774.103 291.8,774.603 290.1,775.603 C288.3,776.703 286.7,778.403 285.7,780.403 C284.6,782.403 284.1,784.603 284.1,786.803 C284.1,789.703 285,792.403 286.8,794.603 C289.8,798.203 294.5,800.503 299.9,801.103 C300.6,801.203 301.7,801.303 302.4,801.303 C306.8,801.303 311.2,800.103 314.8,797.903 C318.5,795.303 320.6,791.303 321.3,785.703 C321.5,784.403 321.5,783.003 321.5,781.503 C321.5,777.603 321,772.903 320,767.103 C319.6,765.003 319.2,762.003 318.5,758.203 C324.3,756.303 328.4,752.603 332.2,746.803 C334.5,742.803 335.6,738.703 335.6,734.403 C335.6,732.503 335.4,730.603 335,728.703 M304.8,650.803 C306.6,645.103 309.3,641.703 311.3,640.003 C313.1,638.503 314.7,637.803 315.6,637.803 C315.7,637.803 315.9,637.903 316,637.903 C316.3,638.003 316.7,638.503 317.1,639.203 C318,641.003 318.9,644.303 318.9,648.003 C318.9,649.903 318.7,651.903 318.1,653.703 C315.9,660.503 311.3,667.803 304.3,675.503 C304.1,674.403 303.9,673.403 303.8,672.403 C303.3,669.203 303,666.003 303,663.103 C303,658.603 303.6,654.503 304.8,650.803 M300.8,754.903 C296.2,753.703 291.7,751.203 287.9,747.703 C286.6,746.503 284.8,744.303 283.3,740.903 C282,737.903 281.3,734.803 281.3,731.403 L281.3,730.703 C281.4,726.003 282.7,721.203 285.2,716.403 C288.1,710.803 292.6,705.303 298.7,700.003 C300.2,698.703 301.6,697.403 302.9,696.103 C303.7,700.403 304.4,705.103 305.3,710.003 C301.4,711.303 296.7,714.303 293.6,720.003 C291.2,724.503 290.5,728.403 290.5,731.603 C290.5,733.103 290.7,734.503 290.9,735.603 C291.8,740.103 294.4,743.803 297.9,745.903 C298.7,746.403 302,748.103 304,748.103 C304.3,748.103 304.6,748.103 304.8,748.003 C305.1,747.903 305.4,747.703 305.5,747.403 C305.6,747.203 305.6,747.003 305.6,746.803 C305.6,746.003 304.8,745.403 303.5,744.603 C302.9,744.203 302.2,743.803 301.5,743.303 C298.9,741.303 297.4,738.203 297.4,734.803 C297.4,733.803 297.6,732.903 297.8,731.903 C298.3,729.903 300,727.103 301.5,725.703 C303.2,724.203 305.2,723.003 307.6,722.403 C309.6,733.603 311.7,744.703 313.3,753.103 C313.4,753.803 313.6,754.503 313.7,755.203 C311.7,755.603 309.7,755.803 307.8,755.803 C305.4,755.803 303.1,755.503 300.8,754.903 M326.5,744.703 C325.3,747.903 322.8,751.903 317.7,754.003 C317.6,753.603 317.6,753.103 317.5,752.703 C316,743.903 314.1,733.003 312.1,721.703 L313.1,721.703 C322.8,721.703 326.7,728.903 327.6,733.503 C327.8,734.403 327.9,735.603 327.9,736.903 C327.9,739.203 327.5,742.003 326.5,744.703"/>
<path class="Clef" d="M335,1341.24 C333.8,1335.84 331.1,1331.94 330.3,1330.94 C327.1,1326.64 323.1,1323.84 318.4,1322.44 C316.1,1321.74 314,1321.54 312,1321.54 C311.3,1321.54 310.6,1321.54 309.9,1321.64 C308.9,1315.64 307.8,1309.74 306.9,1304.34 C312.5,1298.14 316.2,1292.24 318.6,1287.84 C322.2,1281.14 323.6,1276.44 323.7,1276.24 C324.9,1273.24 325.6,1269.44 325.6,1264.94 C325.6,1262.24 325.3,1259.34 324.9,1256.34 C323.8,1249.24 321.6,1242.54 319.1,1238.84 C317.8,1236.94 316.6,1235.84 315.4,1235.84 C314.2,1235.84 311.7,1237.04 308.8,1239.84 C306.5,1242.04 303.2,1245.94 300.6,1251.94 C298.3,1257.34 297.6,1264.24 297.6,1270.14 C297.6,1271.94 297.7,1273.64 297.8,1275.24 C298,1278.84 298.7,1284.64 299.3,1288.24 C299.3,1288.34 299.6,1289.84 300,1292.44 L299.3,1293.14 C298.3,1294.14 297.1,1295.24 295.7,1296.64 C294.8,1297.54 293.9,1298.34 292.9,1299.34 C284.4,1307.54 271.6,1319.94 271.6,1339.04 C271.6,1343.74 272.5,1348.14 274.3,1352.14 C275.9,1355.74 278.2,1359.04 281.1,1361.94 C288.6,1369.34 298.8,1372.54 305.9,1372.54 L306.5,1372.54 C309.4,1372.44 312.1,1372.14 314.5,1371.74 C316.3,1381.34 317.5,1388.44 317.5,1393.74 C317.5,1400.24 315.9,1404.14 312,1406.94 C309.6,1408.64 306.7,1409.74 303.6,1409.84 L302.8,1409.84 C301.3,1409.84 298.8,1409.44 297.3,1409.04 C297.3,1409.04 297,1408.94 297,1408.74 C297,1408.54 297.4,1408.54 297.4,1408.54 C299.3,1408.14 302.9,1406.84 305.3,1403.54 C306.4,1402.04 307.1,1399.74 307.1,1397.24 C307.1,1395.64 306.8,1393.94 306.1,1392.44 C305,1390.04 302.4,1387.04 296.8,1386.64 L295.7,1386.64 C293.6,1386.64 291.8,1387.14 290.1,1388.14 C288.3,1389.24 286.7,1390.94 285.7,1392.94 C284.6,1394.94 284.1,1397.14 284.1,1399.34 C284.1,1402.24 285,1404.94 286.8,1407.14 C289.8,1410.74 294.5,1413.04 299.9,1413.64 C300.6,1413.74 301.7,1413.84 302.4,1413.84 C306.8,1413.84 311.2,1412.64 314.8,1410.44 C318.5,1407.84 320.6,1403.84 321.3,1398.24 C321.5,1396.94 321.5,1395.54 321.5,1394.04 C321.5,1390.14 321,1385.44 320,1379.64 C319.6,1377.54 319.2,1374.54 318.5,1370.74 C324.3,1368.84 328.4,1365.14 332.2,1359.34 C334.5,1355.34 335.6,1351.24 335.6,1346.94 C335.6,1345.04 335.4,1343.14 335,1341.24 M304.8,1263.34 C306.6,1257.64 309.3,1254.24 311.3,1252.54 C313.1,1251.04 314.7,1250.34 315.6,1250.34 C315.7,1250.34 315.9,1250.44 316,1250.44 C316.3,1250.54 316.7,1251.04 317.1,1251.74 C318,1253.54 318.9,1256.84 318.9,1260.54 C318.9,1262.44 318.7,1264.44 318.1,1266.24 C315.9,1273.04 311.3,1280.34 304.3,1288.04 C304.1,1286.94 303.9,1285.94 303.8,1284.94 C303.3,1281.74 303,1278.54 303,1275.64 C303,1271.14 303.6,1267.04 304.8,1263.34 M300.8,1367.44 C296.2,1366.24 291.7,1363.74 287.9,1360.24 C286.6,1359.04 284.8,1356.84 283.3,1353.44 C282,1350.44 281.3,1347.34 281.3,1343.94 L281.3,1343.24 C281.4,1338.54 282.7,1333.74 285.2,1328.94 C288.1,1323.34 292.6,1317.84 298.7,1312.54 C300.2,1311.24 301.6,1309.94 302.9,1308.64 C303.7,1312.94 304.4,1317.64 305.3,1322.54 C301.4,1323.84 296.7,1326.84 293.6,1332.54 C291.2,1337.04 290.5,1340.94 290.5,1344.14 C290.5,1345.64 290.7,1347.04 290.9,1348.14 C291.8,1352.64 294.4,1356.34 297.9,1358.44 C298.7,1358.94 302,1360.64 304,1360.64 C304.3,1360.64 304.6,1360.64 304.8,1360.54 C305.1,1360.44 305.4,1360.24 305.5,1359.94 C305.6,1359.74 305.6,1359.54 305.6,1359.34 C305.6,1358.54 304.8,1357.94 303.5,1357.14 C302.9,1356.74 302.2,1356.34 301.5,1355.84 C298.9,1353.84 297.4,1350.74 297.4,1347.34 C297.4,1346.34 297.6,1345.44 297.8,1344.44 C298.3,1342.44 300,1339.64 301.5,1338.24 C303.2,1336.74 305.2,1335.54 307.6,1334.94 C309.6,1346.14 311.7,1357.24 313.3,1365.64 C313.4,1366.34 313.6,1367.04 313.7,1367.74 C311.7,1368.14 309.7,1368.34 307.8,1368.34 C305.4,1368.34 303.1,1368.04 300.8,1367.44 M326.5,1357.24 C325.3,1360.44 322.8,1364.44 317.7,1366.54 C317.6,1366.14 317.6,1365.64 317.5,1365.24 C316,1356.44 314.1,1345.54 312.1,1334.24 L313.1,1334.24 C322.8,1334.24 326.7,1341.44 327.6,1346.04 C327.8,1346.94 327.9,1348.14 327.9,1349.44 C327.9,1351.74 327.5,1354.54 326.5,1357.24"/>
<path class="KeySig" d="M408.106,951.717 C407.506,947.817 405.106,944.117 400.006,944.117 C395.006,944.117 392.106,947.217 391.606,947.817 L392.006,915.717 C392.006,914.917 391.406,914.317 390.606,914.317 L389.406,914.317 C388.606,914.317 388.006,914.917 388.006,915.717 L388.506,975.817 C388.506,976.617 389.106,977.217 389.906,977.217 C390.106,977.217 390.506,977.117 390.706,977.017 C391.106,976.817 397.606,973.617 403.006,967.517 C406.806,963.217 408.306,958.317 408.306,954.217 C408.306,953.317 408.206,952.517 408.106,951.717 M401.206,955.617 C401.206,957.117 400.806,961.717 398.306,965.517 C396.606,968.117 393.206,970.817 391.306,972.317 L391.606,952.817 C391.806,951.917 393.306,949.017 397.306,949.017 C400.906,949.017 401.206,952.417 401.206,954.517 L401.206,955.617 "/>
<path class="KeySig" d="M383.104,989.22 C382.504,985.32 380.104,981.62 375.004,981.62 C370.004,981.62 367.104,984.72 366.604,985.32 L367.004,953.22 C367.004,952.42 366.404,951.82 365.604,951.82 L364.404,951.82 C363.604,951.82 363.004,952.42 363.004,953.22 L363.504,1013.32 C363.504,1014.12 364.104,1014.72 364.904,1014.72 C365.104,1014.72 365.504,1014.62 365.704,1014.52 C366.104,1014.32 372.604,1011.12 378.004,1005.02 C381.804,1000.72 383.304,995.82 383.304,991.72 C383.304,990.82 383.204,990.02 383.104,989.22 M376.204,993.12 C376.204,994.62 375.804,999.22 373.304,1003.02 C371.604,1005.62 368.204,1008.32 366.304,1009.82 L366.604,990.32 C366.804,989.42 368.304,986.52 372.304,986.52 C375.904,986.52 376.204,989.92 376.204,992.02 L376.204,993.12 "/>
<path class="KeySig" d="M405.699,1539.25 C405.099,1535.35 402.699,1531.65 397.599,1531.65 C392.599,1531.65 389.699,1534.75 389.199,1535.35 L389.599,1503.25 C389.599,1502.45 388.999,1501.85 388.199,1501.85 L386.999,1501.85 C386.199,1501.85 385.599,1502.45 385.599,1503.25 L386.099,1563.35 C386.099,1564.15 386.699,1564.75 387.499,1564.75 C387.699,1564.75 388.099,1564.65 388.299,1564.55 C388.699,1564.35 395.199,1561.15 400.599,1555.05 C404.399,1550.75 405.899,1545.85 405.899,1541.75 C405.899,1540.85 405.799,1540.05 405.699,1539.25 M398.799,1543.15 C398.799,1544.65 398.399,1549.25 395.899,1553.05 C394.199,1555.65 390.799,1558.35 388.899,1559.85 L389.199,1540.35 C389.399,1539.45 390.899,1536.55 394.899,1536.55 C398.499,1536.55 398.799,1539.95 398.799,1542.05 L398.799,1543.15 "/>
<path class="KeySig" d="M380.698,1576.76 C380.098,1572.86 377.698,1569.16 372.598,1569.16 C367.598,1569.16 364.698,1572.26 364.198,1572.86 L364.598,1540.76 C364.598,1539.96 363.998,1539.36 363.198,1539.36 L361.998,1539.36 C361.198,1539.36 360.598,1539.96 360.598,1540.76 L361.098,1600.86 C361.098,1601.66 361.698,1602.26 362.498,1602.26 C362.698,1602.26 363.098,1602.16 363.298,1602.06 C363.698,1601.86 370.198,1598.66 375.598,1592.56 C379.398,1588.26 380.898,1583.36 380.898,1579.26 C380.898,1578.36 380.798,1577.56 380.698,1576.76 M373.798,1580.66 C373.798,1582.16 373.398,1586.76 370.898,1590.56 C369.198,1593.16 365.798,1595.86 363.898,1597.36 L364.198,1577.86 C364.398,1576.96 365.898,1574.06 369.898,1574.06 C373.498,1574.06 373.798,1577.46 373.798,1579.56 L373.798,1580.66 "/>
<path class="KeySig" d="M408.106,664.199 C407.506,660.299 405.106,656.599 400.006,656.599 C395.006,656.599 392.106,659.699 391.606,660.299 L392.006,628.199 C392.006,627.399 391.406,626.799 390.606,626.799 L389.406,626.799 C388.606,626.799 388.006,627.399 388.006,628.199 L388.506,688.299 C388.506,689.099 389.106,689.699 389.906,689.699 C390.106,689.699 390.506,689.599 390.706,689.499 C391.106,689.299 397.606,686.099 403.006,679.999 C406.806,675.699 408.306,670.799 408.306,666.699 C408.306,665.799 408.206,664.999 408.106,664.199 M401.206,668.099 C401.206,669.599 400.806,674.199 398.306,677.999 C396.606,680.599 393.206,683.299 391.306,684.799 L391.606,665.299 C391.806,664.399 393.306,661.499 397.306,661.499 C400.906,661.499 401.206,664.899 401.206,666.999 L401.206,668.099 "/>
<path class="KeySig" d="M383.104,701.702 C382.504,697.802 380.104,694.102 375.004,694.102 C370.004,694.102 367.104,697.202 366.604,697.802 L367.004,665.702 C367.004,664.902 366.404,664.302 365.604,664.302 L364.404,664.302 C363.604,664.302 363.004,664.902 363.004,665.702 L363.504,725.802 C363.504,726.602 364.104,727.202 364.904,727.202 C365.104,727.202 365.504,727.102 365.704,727.002 C366.104,726.802 372.604,723.602 378.004,717.502 C381.804,713.202 383.304,708.302 383.304,704.202 C383.304,703.302 383.204,702.502 383.104,701.702 M376.204,705.602 C376.204,707.102 375.804,711.702 373.304,715.502 C371.604,718.102 368.204,720.802 366.304,722.302 L366.604,702.802 C366.804,701.902 368.304,699.002 372.304,699.002 C375.904,699.002 376.204,702.402 376.204,704.502 L376.204,705.602 "/>
<path class="KeySig" d="M405.699,1276.74 C405.099,1272.84 402.699,1269.14 397.599,1269.14 C392.599,1269.14 389.699,1272.24 389.199,1272.84 L389.599,1240.74 C389.599,1239.94 388.999,1239.34 388.199,1239.34 L386.999,1239.34 C386.199,1239.34 385.599,1239.94 385.599,1240.74 L386.099,1300.84 C386.099,1301.64 386.699,1302.24 387.499,1302.24 C387.699,1302.24 388.099,1302.14 388.299,1302.04 C388.699,1301.84 395.199,1298.64 400.599,1292.54 C404.399,1288.24 405.899,1283.34 405.899,1279.24 C405.899,1278.34 405.799,1277.54 405.699,1276.74 M398.799,1280.64 C398.799,1282.14 398.399,1286.74 395.899,1290.54 C394.199,1293.14 390.799,1295.84 388.899,1297.34 L389.199,1277.84 C389.399,1276.94 390.899,1274.04 394.899,1274.04 C398.499,1274.04 398.799,1277.44 398.799,1279.54 L398.799,1280.64 "/>
<path class="KeySig" d="M380.698,1314.24 C380.098,1310.34 377.698,1306.64 372.598,1306.64 C367.598,1306.64 364.698,1309.74 364.198,1310.34 L364.598,1278.24 C364.598,1277.44 363.998,1276.84 363.198,1276.84 L361.998,1276.84 C361.198,1276.84 360.598,1277.44 360.598,1278.24 L361.098,1338.34 C361.098,1339.14 361.698,1339.74 362.498,1339.74 C362.698,1339.74 363.098,1339.64 363.298,1339.54 C363.698,1339.34 370.198,1336.14 375.598,1330.04 C379.398,1325.74 380.898,1320.84 380.898,1316.74 C380.898,1315.84 380.798,1315.04 380.698,1314.24 M373.798,1318.14 C373.798,1319.64 373.398,1324.24 370.898,1328.04 C369.198,1330.64 365.798,1333.34 363.898,1334.84 L364.198,1315.34 C364.398,1314.44 365.898,1311.54 369.898,1311.54 C373.498,1311.54 373.798,1314.94 373.798,1317.04 L373.798,1318.14 "/>
<path class="TimeSig" d="M435.501,960.516 L452.301,960.516 L452.301,967.816 L444.201,967.816 C443.401,967.816 442.801,968.416 442.801,969.216 L442.801,971.116 C442.801,971.916 443.401,972.416 444.201,972.416 L473.901,972.416 C474.701,972.416 475.301,971.916 475.301,971.116 L475.301,969.216 C475.301,968.416 474.701,967.816 473.901,967.816 L465.101,967.816 L465.101,960.516 L473.901,960.516 C474.701,960.516 475.301,959.916 475.301,959.116 L475.301,957.316 C475.301,956.516 474.701,955.916 473.901,955.916 L465.101,955.916 L465.101,940.216 C465.101,939.716 464.701,939.216 464.301,939.016 L463.201,938.416 C463.001,938.316 462.701,938.316 462.501,938.316 C462.201,938.316 461.801,938.416 461.601,938.616 L452.701,946.816 C452.501,947.016 452.301,947.516 452.301,947.816 L452.301,955.916 L441.001,955.916 C441.001,955.916 451.901,944.116 463.501,928.616 C464.301,927.516 463.901,926.516 463.701,926.316 L461.601,924.116 C461.401,923.916 460.901,923.716 460.601,923.716 L446.001,923.716 C445.301,923.716 444.801,924.316 444.701,924.916 C444.701,924.916 444.201,932.116 441.601,940.116 C439.001,948.116 436.201,952.916 433.601,956.516 C433.601,956.516 433.101,957.516 433.401,958.216 C433.701,958.916 434.401,960.016 434.401,960.016 C434.401,960.016 434.701,960.516 435.501,960.516"/>
<path class="TimeSig" d="M435.501,1009.12 L452.301,1009.12 L452.301,1016.42 L444.201,1016.42 C443.401,1016.42 442.801,1017.02 442.801,1017.82 L442.801,1019.72 C442.801,1020.52 443.401,1021.02 444.201,1021.02 L473.901,1021.02 C474.701,1021.02 475.301,1020.52 475.301,1019.72 L475.301,1017.82 C475.301,1017.02 474.701,1016.42 473.901,1016.42 L465.101,1016.42 L465.101,1009.12 L473.901,1009.12 C474.701,1009.12 475.301,1008.52 475.301,1007.72 L475.301,1005.92 C475.301,1005.12 474.701,1004.52 473.901,1004.52 L465.101,1004.52 L465.101,988.82 C465.101,988.32 464.701,987.82 464.301,987.62 L463.201,987.02 C463.001,986.92 462.701,986.92 462.501,986.92 C462.201,986.92 461.801,987.02 461.601,987.22 L452.701,995.42 C452.501,995.62 452.301,996.12 452.301,996.42 L452.301,1004.52 L441.001,1004.52 C441.001,1004.52 451.901,992.72 463.501,977.22 C464.301,976.12 463.901,975.12 463.701,974.92 L461.601,972.72 C461.401,972.52 460.901,972.32 460.601,972.32 L446.001,972.32 C445.301,972.32 444.801,972.92 444.701,973.52 C444.701,973.52 444.201,980.72 441.601,988.72 C439.001,996.72 436.201,1001.52 433.601,1005.12 C433.601,1005.12 433.101,1006.12 433.401,1006.82 C433.701,1007.52 434.401,1008.62 434.401,1008.62 C434.401,1008.62 434.701,1009.12 435.501,1009.12"/>
<path class="TimeSig" d="M435.501,697.999 L452.301,697.999 L452.301,705.299 L444.201,705.299 C443.401,705.299 442.801,705.899 442.801,706.699 L442.801,708.599 C442.801,709.399 443.401,709.899 444.201,709.899 L473.901,709.899 C474.701,709.899 475.301,709.399 475.301,708.599 L475.301,706.699 C475.301,705.899 474.701,705.299 473.901,705.299 L465.101,705.299 L465.101,697.999 L473.901,697.999 C474.701,697.999 475.301,697.399 475.301,696.599 L475.301,694.799 C475.301,693.999 474.701,693.399 473.901,693.399 L465.101,693.399 L465.101,677.699 C465.101,677.199 464.701,676.699 464.301,676.499 L463.201,675.899 C463.001,675.799 462.701,675.799 462.501,675.799 C462.201,675.799 461.801,675.899 461.601,676.099 L452.701,684.299 C452.501,684.499 452.301,684.999 452.301,685.299 L452.301,693.399 L441.001,693.399 C441.001,693.399 451.901,681.599 463.501,666.099 C464.301,664.999 463.901,663.999 463.701,663.799 L461.601,661.599 C461.401,661.399 460.901,661.199 460.601,661.199 L446.001,661.199 C445.301,661.199 444.801,661.799 444.701,662.399 C444.701,662.399 444.201,669.599 441.601,677.599 C439.001,685.599 436.201,690.399 433.601,693.999 C433.601,693.999 433.101,694.999 433.401,695.699 C433.701,696.399 434.401,697.499 434.401,697.499 C434.401,697.499 434.701,697.999 435.501,697.999"/>
<path class="TimeSig" d="M435.501,746.604 L452.301,746.604 L452.301,753.904 L444.201,753.904 C443.401,753.904 442.801,754.504 442.801,755.304 L442.801,757.204 C442.801,758.004 443.401,758.504 444.201,758.504 L473.901,758.504 C474.701,758.504 475.301,758.004 475.301,757.204 L475.301,755.304 C475.301,754.504 474.701,753.904 473.901,753.904 L465.101,753.904 L465.101,746.604 L473.901,746.604 C474.701,746.604 475.301,746.004 475.301,745.204 L475.301,743.404 C475.301,742.604 474.701,742.004 473.901,742.004 L465.101,742.004 L465.101,726.304 C465.101,725.804 464.701,725.304 464.301,725.104 L463.201,724.504 C463.001,724.404 462.701,724.404 462.501,724.404 C462.201,724.404 461.801,724.504 461.601,724.704 L452.701,732.904 C452.501,733.104 452.301,733.604 452.301,733.904 L452.301,742.004 L441.001,742.004 C441.001,742.004 451.901,730.204 463.501,714.704 C464.301,713.604 463.901,712.604 463.701,712.404 L461.601,710.204 C461.401,710.004 460.901,709.804 460.601,709.804 L446.001,709.804 C445.301,709.804 444.801,710.404 444.701,711.004 C444.701,711.004 444.201,718.204 441.601,726.204 C439.001,734.204 436.201,739.004 433.601,742.604 C433.601,742.604 433.101,743.604 433.401,744.304 C433.701,745.004 434.401,746.104 434.401,746.104 C434.401,746.104 434.701,746.604 435.501,746.604"/>
<path class="NoteDot" d="M2469.01,1597.16 C2469.01,1599.75 2471.11,1601.86 2473.71,1601.86 C2476.31,1601.86 2478.41,1599.75 2478.41,1597.16 C2478.41,1594.56 2476.31,1592.46 2473.71,1592.46 C2471.11,1592.46 2469.01,1594.56 2469.01,1597.16"/>
<path class="NoteDot" d="M2469.01,1409.65 C2469.01,1412.24 2471.11,1414.35 2473.71,1414.35 C2476.31,1414.35 2478.41,1412.24 2478.41,1409.65 C2478.41,1407.05 2476.31,1404.95 2473.71,1404.95 C2471.11,1404.95 2469.01,1407.05 2469.01,1409.65"/>
<path class="Page" d="M222.584,4035.06 C221.054,4036.9 216.914,4038.3 212.774,4038.39 L212.774,4040.32 L216.734,4040.32 C219.344,4040.37 219.614,4040.64 219.524,4043.16 L219.524,4061.2 C219.524,4063.5 219.524,4063.59 219.254,4063.99 C218.894,4064.44 218.039,4064.62 215.519,4064.62 L212.594,4064.62 L212.594,4066.74 L230.414,4066.74 L230.414,4064.62 L227.939,4064.62 C225.419,4064.62 224.564,4064.44 224.204,4063.99 C223.889,4063.59 223.889,4063.54 223.889,4061.2 L223.889,4042.62 C223.889,4040.1 223.979,4037.98 224.204,4035.06 L222.584,4035.06 M249.669,4035.06 L234.369,4056.34 L234.369,4058.86 L247.014,4058.86 L247.014,4061.2 C247.014,4063.5 247.014,4063.59 246.744,4063.99 C246.384,4064.49 245.529,4064.62 242.964,4064.62 L242.469,4064.62 L242.469,4066.74 L255.609,4066.74 L255.609,4064.62 L255.429,4064.62 C252.864,4064.62 252.009,4064.49 251.649,4063.99 C251.379,4063.59 251.379,4063.54 251.379,4061.2 L251.379,4058.86 L256.824,4058.86 L256.824,4056.34 L251.379,4056.34 L251.379,4044.06 C251.379,4038.43 251.379,4038.3 251.604,4035.06 L249.669,4035.06 M247.014,4056.34 L237.114,4056.34 L247.014,4042.71 L247.014,4056.34 "/>
<path class="Bracket" transform="matrix(3.62523,0,0,3.62523,214.469,1022.12)" d="M0.92002,-50 C2.69004,-51.88 6.2,-55.8 6.2,-63 C6.2,-72.1 2.25996,-81.32 2.25996,-86.97 C2.25996,-93.06 5.84004,-98.84 5.95,-99 C6.05996,-99.16 6.05,-99.39 5.94004,-99.46 C5.82998,-99.53 5.62002,-99.47 5.49004,-99.32 C5.35996,-99.17 0,-93.75 0,-85.6 C0,-76.75 3.5,-70.58 3.5,-59.07 C3.5,-56.89 2.55996,-53.36 0.1,-50.33 C-0.0799805,-50.17 -0.1,-49.89 0.0599609,-49.7 L0.0700195,-49.69 L0.1,-49.66 C2.55996,-46.63 3.5,-43.1 3.5,-40.92 C3.5,-29.4 0,-23.24 0,-14.39 C0,-6.25 5.35996,-0.8 5.49004,-0.659961 C5.62002,-0.52002 5.8,-0.42998 5.94004,-0.52002 C6.07998,-0.609961 6.07998,-0.77998 5.95,-0.97998 C5.82002,-1.17998 2.25996,-6.92002 2.25996,-13.01 C2.25996,-18.66 6.2,-27.9 6.2,-37 C6.2,-44.3 2.69004,-48.12 0.92002,-50"/>
<path class="Bracket" transform="matrix(3.62523,0,0,3.62523,214.469,1634.66)" d="M0.92002,-50 C2.69004,-51.88 6.2,-55.8 6.2,-63 C6.2,-72.1 2.25996,-81.32 2.25996,-86.97 C2.25996,-93.06 5.84004,-98.84 5.95,-99 C6.05996,-99.16 6.05,-99.39 5.94004,-99.46 C5.82998,-99.53 5.62002,-99.47 5.49004,-99.32 C5.35996,-99.17 0,-93.75 0,-85.6 C0,-76.75 3.5,-70.58 3.5,-59.07 C3.5,-56.89 2.55996,-53.36 0.1,-50.33 C-0.0799805,-50.17 -0.1,-49.89 0.0599609,-49.7 L0.0700195,-49.69 L0.1,-49.66 C2.55996,-46.63 3.5,-43.1 3.5,-40.92 C3.5,-29.4 0,-23.24 0,-14.39 C0,-6.25 5.35996,-0.8 5.49004,-0.659961 C5.62002,-0.52002 5.8,-0.42998 5.94004,-0.52002 C6.07998,-0.609961 6.07998,-0.77998 5.95,-0.97998 C5.82002,-1.17998 2.25996,-6.92002 2.25996,-13.01 C2.25996,-18.66 6.2,-27.9 6.2,-37 C6.2,-44.3 2.69004,-48.12 0.92002,-50"/>
</svg>
