<?xml version="1.0" encoding="UTF-8" standalone="no"?>
<svg width="2977.23px" height="4208.47px" viewBox="0 0 2977.23 4208.47"
 xmlns="http://www.w3.org/2000/svg" xmlns:xlink="http://www.w3.org/1999/xlink" version="1.2" baseProfile="tiny">
<title>exercises_scores (17)</title>
<desc>Generated by MuseScore 3.6.0</desc>
<polyline class="StaffLines" fill="none" stroke="#000000" stroke-width="2.75" stroke-linejoin="bevel" points="247.099,644.411 2764.63,644.411"/>
<polyline class="StaffLines" fill="none" stroke="#000000" stroke-width="2.75" stroke-linejoin="bevel" points="247.099,669.413 2764.63,669.413"/>
<polyline class="StaffLines" fill="none" stroke="#000000" stroke-width="2.75" stroke-linejoin="bevel" points="247.099,694.414 2764.63,694.414"/>
<polyline class="StaffLines" fill="none" stroke="#000000" stroke-width="2.75" stroke-linejoin="bevel" points="247.099,719.416 2764.63,719.416"/>
<polyline class="StaffLines" fill="none" stroke="#000000" stroke-width="2.75" stroke-linejoin="bevel" points="247.099,744.417 2764.63,744.417"/>
<polyline class="StaffLines" fill="none" stroke="#000000" stroke-width="2.75" stroke-linejoin="bevel" points="247.099,906.928 2764.63,906.928"/>
<polyline class="StaffLines" fill="none" stroke="#000000" stroke-width="2.75" stroke-linejoin="bevel" points="247.099,931.929 2764.63,931.929"/>
<polyline class="StaffLines" fill="none" stroke="#000000" stroke-width="2.75" stroke-linejoin="bevel" points="247.099,956.931 2764.63,956.931"/>
<polyline class="StaffLines" fill="none" stroke="#000000" stroke-width="2.75" stroke-linejoin="bevel" points="247.099,981.932 2764.63,981.932"/>
<polyline class="StaffLines" fill="none" stroke="#000000" stroke-width="2.75" stroke-linejoin="bevel" points="247.099,1006.93 2764.63,1006.93"/>
<path class="Text" d="M248.664,212.591 L212.604,212.591 L212.604,215.411 L213.684,215.411 C217.104,215.471 218.244,215.651 218.724,216.251 C219.084,216.791 219.084,216.911 219.084,219.971 L219.084,248.531 C219.084,251.591 219.084,251.711 218.724,252.251 C218.244,252.851 217.104,253.091 213.684,253.091 L212.604,253.091 L212.604,255.911 L249.444,255.911 L250.644,239.891 L248.004,239.891 C245.724,250.571 243.264,252.851 234.084,253.091 L230.124,253.091 C226.524,252.971 225.624,252.371 225.804,250.211 L225.804,234.911 L227.004,234.911 C233.184,234.671 235.404,236.891 235.644,243.551 L238.464,243.551 L238.464,223.871 L235.644,223.871 C235.284,229.751 232.944,232.091 227.244,232.091 L225.804,232.091 L225.804,218.411 C225.744,215.891 226.344,215.471 229.584,215.411 L232.704,215.411 C242.544,215.351 245.004,217.511 246.924,227.891 L249.504,227.891 L248.664,212.591 M282.908,227.951 L272.228,228.611 L272.228,231.191 L274.688,231.191 C276.968,231.251 277.268,231.611 277.268,234.191 L277.268,248.531 L277.268,250.871 L277.268,251.351 C277.208,252.251 277.148,252.611 276.908,252.911 C276.488,253.451 275.348,253.691 272.768,253.751 L272.528,253.751 L272.528,255.911 L287.648,255.911 L287.648,253.751 L287.408,253.751 C283.448,253.631 282.908,253.331 282.908,251.111 L282.908,248.531 L282.908,240.011 C282.908,234.671 285.848,230.711 289.748,230.711 C293.168,230.711 294.908,233.171 294.908,238.031 L294.908,248.531 L294.908,251.411 C294.848,252.191 294.788,252.611 294.488,252.911 C294.128,253.451 292.928,253.691 290.348,253.751 L290.108,253.751 L290.108,255.911 L305.288,255.911 L305.288,253.751 L305.048,253.751 C301.088,253.631 300.548,253.331 300.548,251.171 L300.548,248.531 L300.548,240.551 C300.548,234.551 303.248,230.711 307.448,230.711 C310.868,230.711 312.548,233.291 312.548,238.691 L312.548,248.531 L312.548,251.351 C312.488,252.191 312.428,252.611 312.128,252.911 C311.768,253.451 310.568,253.691 307.988,253.751 L307.748,253.751 L307.748,255.911 L322.928,255.911 L322.928,253.751 L322.688,253.751 C318.728,253.631 318.188,253.331 318.188,251.111 L318.188,248.531 L318.188,237.491 C318.188,233.771 317.828,232.511 316.268,230.471 C314.528,228.251 312.068,227.051 309.188,227.051 C305.288,227.051 302.408,228.911 299.828,233.051 C298.808,229.451 295.568,227.051 291.548,227.051 C287.888,227.051 285.248,228.791 282.908,232.571 L282.908,227.951 M336.537,227.951 L325.257,228.611 L325.257,231.191 L328.317,231.191 C330.597,231.251 330.897,231.611 330.897,234.191 L330.897,248.531 L330.897,251.351 C330.837,252.251 330.777,252.611 330.537,252.911 C330.117,253.451 328.977,253.691 326.397,253.751 L325.977,253.751 L325.977,255.911 L341.517,255.911 L341.517,253.751 L341.097,253.751 C337.077,253.631 336.537,253.331 336.537,251.171 L336.537,248.531 L336.537,227.951 M333.717,213.011 C331.797,213.011 330.237,214.571 330.237,216.491 C330.237,218.411 331.797,219.971 333.657,219.971 C335.637,219.971 337.197,218.411 337.197,216.491 C337.197,214.571 335.637,213.011 333.717,213.011 M355.067,227.951 L344.687,228.611 L344.687,231.191 L346.847,231.191 C349.127,231.251 349.427,231.611 349.427,234.191 L349.427,248.531 L349.427,249.971 L349.427,251.351 C349.367,252.251 349.307,252.611 349.067,252.911 C348.647,253.451 347.507,253.691 344.927,253.751 L344.687,253.751 L344.687,255.911 L359.867,255.911 L359.867,253.751 L359.627,253.751 C355.607,253.631 355.067,253.331 355.067,251.171 L355.067,248.531 L355.067,242.291 C355.067,239.351 355.487,236.651 356.147,235.271 C357.407,232.571 360.107,230.711 362.687,230.711 C364.247,230.711 366.047,231.551 366.947,232.811 C367.847,234.131 368.267,235.931 368.267,238.811 L368.267,248.531 L368.267,251.351 C368.207,252.251 368.147,252.611 367.907,252.911 C367.487,253.451 366.287,253.691 363.707,253.751 L363.467,253.751 L363.467,255.911 L378.647,255.911 L378.647,253.751 L378.407,253.751 C374.447,253.631 373.907,253.331 373.907,251.171 L373.907,248.531 L373.907,239.111 C373.907,234.791 373.727,233.711 372.647,231.671 C371.147,228.791 368.147,227.051 364.547,227.051 C360.647,227.051 357.707,228.851 355.067,232.811 L355.067,227.951 M394.843,227.051 C387.463,227.051 381.763,233.591 381.763,241.991 C381.763,250.211 387.523,256.811 394.723,256.811 C401.923,256.811 407.683,250.211 407.683,241.931 C407.683,233.711 401.923,227.051 394.843,227.051 M394.843,229.631 C399.043,229.631 401.383,234.011 401.383,241.931 C401.383,249.911 399.043,254.231 394.723,254.231 C390.403,254.231 388.063,249.911 388.063,241.991 C388.063,233.831 390.343,229.631 394.843,229.631 M421.603,227.951 L410.983,228.611 L410.983,231.191 L413.443,231.191 C415.723,231.251 416.023,231.611 416.023,234.191 L416.023,248.531 L416.023,251.351 C415.963,252.251 415.903,252.611 415.663,252.911 C415.243,253.451 414.043,253.691 411.463,253.751 L411.223,253.751 L411.223,255.911 L427.243,255.911 L427.243,253.751 L426.163,253.751 C422.143,253.631 421.603,253.331 421.603,251.171 L421.603,248.531 L421.603,247.931 C421.663,237.851 425.263,230.171 429.943,229.931 C429.103,230.891 428.863,231.491 428.863,232.631 C428.863,234.551 430.243,235.931 432.163,235.931 C434.383,235.931 435.823,234.311 435.823,231.911 C435.823,228.971 433.783,227.051 430.603,227.051 C426.823,227.051 423.583,230.051 421.603,235.391 L421.603,227.951 "/>
<polyline class="BarLine" fill="none" stroke="#000000" stroke-width="4.50" stroke-linejoin="bevel" points="249.349,905.552 249.349,1008.31"/>
<polyline class="BarLine" fill="none" stroke="#000000" stroke-width="4.50" stroke-linejoin="bevel" points="1008.28,905.552 1008.28,1008.31"/>
<polyline class="BarLine" fill="none" stroke="#000000" stroke-width="4.50" stroke-linejoin="bevel" points="1605.44,905.552 1605.44,1008.31"/>
<polyline class="BarLine" fill="none" stroke="#000000" stroke-width="4.50" stroke-linejoin="bevel" points="2190.34,905.552 2190.34,1008.31"/>
<polyline class="BarLine" fill="none" stroke="#000000" stroke-width="4.50" stroke-linejoin="bevel" points="2734.88,905.552 2734.88,1008.31"/>
<polyline class="BarLine" fill="none" stroke="#000000" stroke-width="13.75" stroke-linejoin="bevel" points="2757.76,905.552 2757.76,1008.31"/>
<polyline class="BarLine" fill="none" stroke="#000000" stroke-width="4.50" stroke-linejoin="bevel" points="249.349,643.036 249.349,906.928"/>
<polyline class="BarLine" fill="none" stroke="#000000" stroke-width="4.50" stroke-linejoin="bevel" points="1008.28,643.036 1008.28,906.928"/>
<polyline class="BarLine" fill="none" stroke="#000000" stroke-width="4.50" stroke-linejoin="bevel" points="1605.44,643.036 1605.44,906.928"/>
<polyline class="BarLine" fill="none" stroke="#000000" stroke-width="4.50" stroke-linejoin="bevel" points="2190.34,643.036 2190.34,906.928"/>
<polyline class="BarLine" fill="none" stroke="#000000" stroke-width="4.50" stroke-linejoin="bevel" points="2734.88,643.036 2734.88,906.928"/>
<polyline class="BarLine" fill="none" stroke="#000000" stroke-width="13.75" stroke-linejoin="bevel" points="2757.76,643.036 2757.76,906.928"/>
<path class="Accidental" d="M585.409,921.329 C586.009,921.229 586.509,920.529 586.509,919.929 L586.509,914.029 C586.509,913.229 585.909,912.629 585.109,912.629 L584.909,912.629 L581.609,913.329 L581.609,898.429 L578.809,898.429 L578.809,913.929 L569.909,915.729 L569.909,901.629 L567.109,901.629 L567.109,916.329 L563.209,917.129 C562.609,917.229 562.109,917.929 562.109,918.529 L562.109,918.729 L562.109,924.529 L562.109,924.329 C562.109,925.129 562.709,925.729 563.509,925.729 L563.809,925.729 L567.109,925.029 L567.109,941.529 L563.209,942.329 C562.609,942.429 562.109,943.129 562.109,943.729 L562.109,949.529 C562.109,950.329 562.709,950.929 563.509,950.929 L563.809,950.929 L567.109,950.229 L567.109,965.129 L569.909,965.129 L569.909,949.629 L578.809,947.829 L578.809,961.929 L581.609,961.929 L581.609,947.229 L585.409,946.529 C586.009,946.429 586.509,945.729 586.509,945.129 L586.509,939.229 C586.509,938.429 585.909,937.829 585.109,937.829 L584.909,937.829 L581.609,938.529 L581.609,922.029 L585.409,921.329 M569.909,941.029 L569.909,924.429 L578.809,922.629 L578.809,939.129 L569.909,941.029 "/>
<path class="Accidental" d="M2358.72,921.329 C2359.32,921.229 2359.82,920.529 2359.82,919.929 L2359.82,914.029 C2359.82,913.229 2359.22,912.629 2358.42,912.629 L2358.22,912.629 L2354.92,913.329 L2354.92,898.429 L2352.12,898.429 L2352.12,913.929 L2343.22,915.729 L2343.22,901.629 L2340.42,901.629 L2340.42,916.329 L2336.52,917.129 C2335.92,917.229 2335.42,917.929 2335.42,918.529 L2335.42,918.729 L2335.42,924.529 L2335.42,924.329 C2335.42,925.129 2336.02,925.729 2336.82,925.729 L2337.12,925.729 L2340.42,925.029 L2340.42,941.529 L2336.52,942.329 C2335.92,942.429 2335.42,943.129 2335.42,943.729 L2335.42,949.529 C2335.42,950.329 2336.02,950.929 2336.82,950.929 L2337.12,950.929 L2340.42,950.229 L2340.42,965.129 L2343.22,965.129 L2343.22,949.629 L2352.12,947.829 L2352.12,961.929 L2354.92,961.929 L2354.92,947.229 L2358.72,946.529 C2359.32,946.429 2359.82,945.729 2359.82,945.129 L2359.82,939.229 C2359.82,938.429 2359.22,937.829 2358.42,937.829 L2358.22,937.829 L2354.92,938.529 L2354.92,922.029 L2358.72,921.329 M2343.22,941.029 L2343.22,924.429 L2352.12,922.629 L2352.12,939.129 L2343.22,941.029 "/>
<path class="Accidental" d="M585.409,721.317 C586.009,721.217 586.509,720.517 586.509,719.917 L586.509,714.017 C586.509,713.217 585.909,712.617 585.109,712.617 L584.909,712.617 L581.609,713.317 L581.609,698.417 L578.809,698.417 L578.809,713.917 L569.909,715.717 L569.909,701.617 L567.109,701.617 L567.109,716.317 L563.209,717.117 C562.609,717.217 562.109,717.917 562.109,718.517 L562.109,718.717 L562.109,724.517 L562.109,724.317 C562.109,725.117 562.709,725.717 563.509,725.717 L563.809,725.717 L567.109,725.017 L567.109,741.517 L563.209,742.317 C562.609,742.417 562.109,743.117 562.109,743.717 L562.109,749.517 C562.109,750.317 562.709,750.917 563.509,750.917 L563.809,750.917 L567.109,750.217 L567.109,765.117 L569.909,765.117 L569.909,749.617 L578.809,747.817 L578.809,761.917 L581.609,761.917 L581.609,747.217 L585.409,746.517 C586.009,746.417 586.509,745.717 586.509,745.117 L586.509,739.217 C586.509,738.417 585.909,737.817 585.109,737.817 L584.909,737.817 L581.609,738.517 L581.609,722.017 L585.409,721.317 M569.909,741.017 L569.909,724.417 L578.809,722.617 L578.809,739.117 L569.909,741.017 "/>
<path class="Accidental" d="M2358.72,721.317 C2359.32,721.217 2359.82,720.517 2359.82,719.917 L2359.82,714.017 C2359.82,713.217 2359.22,712.617 2358.42,712.617 L2358.22,712.617 L2354.92,713.317 L2354.92,698.417 L2352.12,698.417 L2352.12,713.917 L2343.22,715.717 L2343.22,701.617 L2340.42,701.617 L2340.42,716.317 L2336.52,717.117 C2335.92,717.217 2335.42,717.917 2335.42,718.517 L2335.42,718.717 L2335.42,724.517 L2335.42,724.317 C2335.42,725.117 2336.02,725.717 2336.82,725.717 L2337.12,725.717 L2340.42,725.017 L2340.42,741.517 L2336.52,742.317 C2335.92,742.417 2335.42,743.117 2335.42,743.717 L2335.42,749.517 C2335.42,750.317 2336.02,750.917 2336.82,750.917 L2337.12,750.917 L2340.42,750.217 L2340.42,765.117 L2343.22,765.117 L2343.22,749.617 L2352.12,747.817 L2352.12,761.917 L2354.92,761.917 L2354.92,747.217 L2358.72,746.517 C2359.32,746.417 2359.82,745.717 2359.82,745.117 L2359.82,739.217 C2359.82,738.417 2359.22,737.817 2358.42,737.817 L2358.22,737.817 L2354.92,738.517 L2354.92,722.017 L2358.72,721.317 M2343.22,741.017 L2343.22,724.417 L2352.12,722.617 L2352.12,739.117 L2343.22,741.017 "/>
<polyline class="LedgerLine" fill="none" stroke="#000000" stroke-width="4.00" stroke-linejoin="bevel" points="1174.32,881.926 1224.32,881.926"/>
<polyline class="LedgerLine" fill="none" stroke="#000000" stroke-width="4.00" stroke-linejoin="bevel" points="1314.36,881.926 1364.36,881.926"/>
<polyline class="LedgerLine" fill="none" stroke="#000000" stroke-width="4.00" stroke-linejoin="bevel" points="1454.4,881.926 1504.39,881.926"/>
<polyline class="LedgerLine" fill="none" stroke="#000000" stroke-width="4.00" stroke-linejoin="bevel" points="1454.4,856.924 1504.39,856.924"/>
<polyline class="LedgerLine" fill="none" stroke="#000000" stroke-width="4.00" stroke-linejoin="bevel" points="1640.19,881.926 1690.18,881.926"/>
<polyline class="LedgerLine" fill="none" stroke="#000000" stroke-width="4.00" stroke-linejoin="bevel" points="1774.98,881.926 1824.97,881.926"/>
<polyline class="Stem" fill="none" stroke="#000000" stroke-width="2.75" stroke-linejoin="bevel" points="456.377,947.95 456.377,1025.69"/>
<polyline class="Stem" fill="none" stroke="#000000" stroke-width="2.75" stroke-linejoin="bevel" points="594.135,935.449 594.135,1016.31"/>
<polyline class="Stem" fill="none" stroke="#000000" stroke-width="2.75" stroke-linejoin="bevel" points="731.892,922.949 731.892,1006.93"/>
<polyline class="Stem" fill="none" stroke="#000000" stroke-width="2.75" stroke-linejoin="bevel" points="869.65,910.448 869.65,994.433"/>
<polyline class="Stem" fill="none" stroke="#000000" stroke-width="2.75" stroke-linejoin="bevel" points="1044.41,897.947 1044.41,981.932"/>
<polyline class="Stem" fill="none" stroke="#000000" stroke-width="2.75" stroke-linejoin="bevel" points="1184.45,885.446 1184.45,969.431"/>
<polyline class="Stem" fill="none" stroke="#000000" stroke-width="2.75" stroke-linejoin="bevel" points="1324.49,872.945 1324.49,956.931"/>
<polyline class="Stem" fill="none" stroke="#000000" stroke-width="2.75" stroke-linejoin="bevel" points="1464.52,860.445 1464.52,956.931"/>
<polyline class="Stem" fill="none" stroke="#000000" stroke-width="2.75" stroke-linejoin="bevel" points="1650.31,872.945 1650.31,956.931"/>
<polyline class="Stem" fill="none" stroke="#000000" stroke-width="2.75" stroke-linejoin="bevel" points="1785.1,885.446 1785.1,969.431"/>
<polyline class="Stem" fill="none" stroke="#000000" stroke-width="2.75" stroke-linejoin="bevel" points="1919.89,897.947 1919.89,981.932"/>
<polyline class="Stem" fill="none" stroke="#000000" stroke-width="2.75" stroke-linejoin="bevel" points="2054.68,910.448 2054.68,994.433"/>
<polyline class="Stem" fill="none" stroke="#000000" stroke-width="2.75" stroke-linejoin="bevel" points="2226.47,922.949 2226.47,1006.93"/>
<polyline class="Stem" fill="none" stroke="#000000" stroke-width="2.75" stroke-linejoin="bevel" points="2367.45,935.449 2367.45,1016.31"/>
<polyline class="Stem" fill="none" stroke="#000000" stroke-width="2.75" stroke-linejoin="bevel" points="2508.43,947.87 2508.43,1025.69"/>
<polyline class="Stem" fill="none" stroke="#000000" stroke-width="2.75" stroke-linejoin="bevel" points="486.121,741.057 486.121,656.912"/>
<polyline class="Stem" fill="none" stroke="#000000" stroke-width="2.75" stroke-linejoin="bevel" points="623.879,728.556 623.879,644.411"/>
<polyline class="Stem" fill="none" stroke="#000000" stroke-width="2.75" stroke-linejoin="bevel" points="761.636,716.056 761.636,635.035"/>
<polyline class="Stem" fill="none" stroke="#000000" stroke-width="2.75" stroke-linejoin="bevel" points="899.394,703.555 899.394,625.66"/>
<polyline class="Stem" fill="none" stroke="#000000" stroke-width="2.75" stroke-linejoin="bevel" points="1044.41,697.934 1044.41,772.544"/>
<polyline class="Stem" fill="none" stroke="#000000" stroke-width="2.75" stroke-linejoin="bevel" points="1184.45,685.434 1184.45,763.168"/>
<polyline class="Stem" fill="none" stroke="#000000" stroke-width="2.75" stroke-linejoin="bevel" points="1324.49,672.933 1324.49,753.793"/>
<polyline class="Stem" fill="none" stroke="#000000" stroke-width="2.75" stroke-linejoin="bevel" points="1464.52,660.432 1464.52,744.417"/>
<polyline class="Stem" fill="none" stroke="#000000" stroke-width="2.75" stroke-linejoin="bevel" points="1650.31,672.933 1650.31,753.793"/>
<polyline class="Stem" fill="none" stroke="#000000" stroke-width="2.75" stroke-linejoin="bevel" points="1785.1,685.434 1785.1,763.168"/>
<polyline class="Stem" fill="none" stroke="#000000" stroke-width="2.75" stroke-linejoin="bevel" points="1919.89,697.934 1919.89,772.544"/>
<polyline class="Stem" fill="none" stroke="#000000" stroke-width="2.75" stroke-linejoin="bevel" points="2084.42,703.555 2084.42,625.66"/>
<polyline class="Stem" fill="none" stroke="#000000" stroke-width="2.75" stroke-linejoin="bevel" points="2256.21,716.056 2256.21,635.035"/>
<polyline class="Stem" fill="none" stroke="#000000" stroke-width="2.75" stroke-linejoin="bevel" points="2397.19,728.556 2397.19,644.411"/>
<polyline class="Stem" fill="none" stroke="#000000" stroke-width="2.75" stroke-linejoin="bevel" points="2538.18,740.977 2538.18,656.912"/>
<path class="Note" d="M486.502,936.23 C485.002,933.53 482.102,931.83 478.202,931.43 C477.602,931.33 477.102,931.33 476.502,931.33 C473.002,931.33 469.202,932.33 465.702,934.23 C459.102,937.83 455.002,943.73 455.002,948.83 C455.002,950.23 455.202,951.53 455.902,952.73 C457.402,955.43 460.402,957.13 464.302,957.53 C464.902,957.63 465.402,957.63 466.002,957.63 C469.502,957.63 473.202,956.63 476.702,954.73 C483.302,951.13 487.502,945.33 487.502,940.23 C487.502,938.83 487.202,937.43 486.502,936.23"/>
<path class="Note" d="M624.26,923.729 C622.76,921.029 619.86,919.329 615.96,918.929 C615.36,918.829 614.86,918.829 614.26,918.829 C610.76,918.829 606.96,919.829 603.46,921.729 C596.86,925.329 592.76,931.229 592.76,936.329 C592.76,937.729 592.96,939.029 593.66,940.229 C595.16,942.929 598.16,944.629 602.06,945.029 C602.66,945.129 603.16,945.129 603.76,945.129 C607.26,945.129 610.96,944.129 614.46,942.229 C621.06,938.629 625.26,932.829 625.26,927.729 C625.26,926.329 624.96,924.929 624.26,923.729"/>
<path class="Note" d="M762.017,911.228 C760.517,908.528 757.617,906.828 753.717,906.428 C753.117,906.328 752.617,906.328 752.017,906.328 C748.517,906.328 744.717,907.328 741.217,909.228 C734.617,912.828 730.517,918.728 730.517,923.828 C730.517,925.228 730.717,926.528 731.417,927.728 C732.917,930.428 735.917,932.128 739.817,932.528 C740.417,932.628 740.917,932.628 741.517,932.628 C745.017,932.628 748.717,931.628 752.217,929.728 C758.817,926.128 763.017,920.328 763.017,915.228 C763.017,913.828 762.717,912.428 762.017,911.228"/>
<path class="Note" d="M899.775,898.728 C898.275,896.028 895.375,894.328 891.475,893.928 C890.875,893.828 890.375,893.828 889.775,893.828 C886.275,893.828 882.475,894.828 878.975,896.728 C872.375,900.328 868.275,906.228 868.275,911.328 C868.275,912.728 868.475,914.028 869.175,915.228 C870.675,917.928 873.675,919.628 877.575,920.028 C878.175,920.128 878.675,920.128 879.275,920.128 C882.775,920.128 886.475,919.128 889.975,917.228 C896.575,913.628 900.775,907.828 900.775,902.728 C900.775,901.328 900.475,899.928 899.775,898.728"/>
<path class="Note" d="M1074.53,886.227 C1073.03,883.527 1070.13,881.827 1066.23,881.427 C1065.63,881.327 1065.13,881.327 1064.53,881.327 C1061.03,881.327 1057.23,882.327 1053.73,884.227 C1047.13,887.827 1043.03,893.727 1043.03,898.827 C1043.03,900.227 1043.23,901.527 1043.93,902.727 C1045.43,905.427 1048.43,907.127 1052.33,907.527 C1052.93,907.627 1053.43,907.627 1054.03,907.627 C1057.53,907.627 1061.23,906.627 1064.73,904.727 C1071.33,901.127 1075.53,895.327 1075.53,890.227 C1075.53,888.827 1075.23,887.427 1074.53,886.227"/>
<path class="Note" d="M1214.57,873.726 C1213.07,871.026 1210.17,869.326 1206.27,868.926 C1205.67,868.826 1205.17,868.826 1204.57,868.826 C1201.07,868.826 1197.27,869.826 1193.77,871.726 C1187.17,875.326 1183.07,881.226 1183.07,886.326 C1183.07,887.726 1183.27,889.026 1183.97,890.226 C1185.47,892.926 1188.47,894.626 1192.37,895.026 C1192.97,895.126 1193.47,895.126 1194.07,895.126 C1197.57,895.126 1201.27,894.126 1204.77,892.226 C1211.37,888.626 1215.57,882.826 1215.57,877.726 C1215.57,876.326 1215.27,874.926 1214.57,873.726"/>
<path class="Note" d="M1354.61,861.225 C1353.11,858.525 1350.21,856.825 1346.31,856.425 C1345.71,856.325 1345.21,856.325 1344.61,856.325 C1341.11,856.325 1337.31,857.325 1333.81,859.225 C1327.21,862.825 1323.11,868.725 1323.11,873.825 C1323.11,875.225 1323.31,876.525 1324.01,877.725 C1325.51,880.425 1328.51,882.125 1332.41,882.525 C1333.01,882.625 1333.51,882.625 1334.11,882.625 C1337.61,882.625 1341.31,881.625 1344.81,879.725 C1351.41,876.125 1355.61,870.325 1355.61,865.225 C1355.61,863.825 1355.31,862.425 1354.61,861.225"/>
<path class="Note" d="M1494.65,848.724 C1493.15,846.024 1490.25,844.324 1486.35,843.924 C1485.75,843.824 1485.25,843.824 1484.65,843.824 C1481.15,843.824 1477.35,844.824 1473.85,846.724 C1467.25,850.324 1463.15,856.224 1463.15,861.324 C1463.15,862.724 1463.35,864.024 1464.05,865.224 C1465.55,867.924 1468.55,869.624 1472.45,870.024 C1473.05,870.124 1473.55,870.124 1474.15,870.124 C1477.65,870.124 1481.35,869.124 1484.85,867.224 C1491.45,863.624 1495.65,857.824 1495.65,852.724 C1495.65,851.324 1495.35,849.924 1494.65,848.724"/>
<path class="Note" d="M1680.44,861.225 C1678.94,858.525 1676.04,856.825 1672.14,856.425 C1671.54,856.325 1671.04,856.325 1670.44,856.325 C1666.94,856.325 1663.14,857.325 1659.64,859.225 C1653.04,862.825 1648.94,868.725 1648.94,873.825 C1648.94,875.225 1649.14,876.525 1649.84,877.725 C1651.34,880.425 1654.34,882.125 1658.24,882.525 C1658.84,882.625 1659.34,882.625 1659.94,882.625 C1663.44,882.625 1667.14,881.625 1670.64,879.725 C1677.24,876.125 1681.44,870.325 1681.44,865.225 C1681.44,863.825 1681.14,862.425 1680.44,861.225"/>
<path class="Note" d="M1815.23,873.726 C1813.73,871.026 1810.83,869.326 1806.93,868.926 C1806.33,868.826 1805.83,868.826 1805.23,868.826 C1801.73,868.826 1797.93,869.826 1794.43,871.726 C1787.83,875.326 1783.73,881.226 1783.73,886.326 C1783.73,887.726 1783.93,889.026 1784.63,890.226 C1786.13,892.926 1789.13,894.626 1793.03,895.026 C1793.63,895.126 1794.13,895.126 1794.73,895.126 C1798.23,895.126 1801.93,894.126 1805.43,892.226 C1812.03,888.626 1816.23,882.826 1816.23,877.726 C1816.23,876.326 1815.93,874.926 1815.23,873.726"/>
<path class="Note" d="M1950.01,886.227 C1948.51,883.527 1945.61,881.827 1941.71,881.427 C1941.11,881.327 1940.61,881.327 1940.01,881.327 C1936.51,881.327 1932.71,882.327 1929.21,884.227 C1922.61,887.827 1918.51,893.727 1918.51,898.827 C1918.51,900.227 1918.71,901.527 1919.41,902.727 C1920.91,905.427 1923.91,907.127 1927.81,907.527 C1928.41,907.627 1928.91,907.627 1929.51,907.627 C1933.01,907.627 1936.71,906.627 1940.21,904.727 C1946.81,901.127 1951.01,895.327 1951.01,890.227 C1951.01,888.827 1950.71,887.427 1950.01,886.227"/>
<path class="Note" d="M2084.8,898.728 C2083.3,896.028 2080.4,894.328 2076.5,893.928 C2075.9,893.828 2075.4,893.828 2074.8,893.828 C2071.3,893.828 2067.5,894.828 2064,896.728 C2057.4,900.328 2053.3,906.228 2053.3,911.328 C2053.3,912.728 2053.5,914.028 2054.2,915.228 C2055.7,917.928 2058.7,919.628 2062.6,920.028 C2063.2,920.128 2063.7,920.128 2064.3,920.128 C2067.8,920.128 2071.5,919.128 2075,917.228 C2081.6,913.628 2085.8,907.828 2085.8,902.728 C2085.8,901.328 2085.5,899.928 2084.8,898.728"/>
<path class="Note" d="M2256.59,911.228 C2255.09,908.528 2252.19,906.828 2248.29,906.428 C2247.69,906.328 2247.19,906.328 2246.59,906.328 C2243.09,906.328 2239.29,907.328 2235.79,909.228 C2229.19,912.828 2225.09,918.728 2225.09,923.828 C2225.09,925.228 2225.29,926.528 2225.99,927.728 C2227.49,930.428 2230.49,932.128 2234.39,932.528 C2234.99,932.628 2235.49,932.628 2236.09,932.628 C2239.59,932.628 2243.29,931.628 2246.79,929.728 C2253.39,926.128 2257.59,920.328 2257.59,915.228 C2257.59,913.828 2257.29,912.428 2256.59,911.228"/>
<path class="Note" d="M2397.58,923.729 C2396.08,921.029 2393.18,919.329 2389.28,918.929 C2388.68,918.829 2388.18,918.829 2387.58,918.829 C2384.08,918.829 2380.28,919.829 2376.78,921.729 C2370.18,925.329 2366.08,931.229 2366.08,936.329 C2366.08,937.729 2366.28,939.029 2366.98,940.229 C2368.48,942.929 2371.48,944.629 2375.38,945.029 C2375.98,945.129 2376.48,945.129 2377.08,945.129 C2380.58,945.129 2384.28,944.129 2387.78,942.229 C2394.38,938.629 2398.58,932.829 2398.58,927.729 C2398.58,926.329 2398.28,924.929 2397.58,923.729"/>
<path class="Note" d="M2538.56,936.23 C2537.06,933.53 2534.16,931.83 2530.26,931.43 C2529.66,931.33 2529.16,931.33 2528.56,931.33 C2525.06,931.33 2521.26,932.33 2517.76,934.23 C2511.16,937.83 2507.06,943.63 2507.06,948.73 C2507.06,950.13 2507.46,951.53 2508.16,952.73 C2509.66,955.53 2512.46,957.13 2516.36,957.53 C2516.96,957.63 2517.46,957.63 2518.06,957.63 C2521.56,957.63 2525.36,956.63 2528.86,954.73 C2535.46,951.13 2539.56,945.23 2539.56,940.13 C2539.56,938.73 2539.26,937.43 2538.56,936.23 M2534.36,942.53 C2532.66,944.33 2529.46,946.63 2525.86,948.73 C2522.26,950.83 2518.56,952.53 2516.26,953.23 C2515.76,953.33 2515.16,953.43 2514.66,953.43 C2513.16,953.43 2511.86,952.73 2511.16,951.63 C2510.86,951.03 2510.66,950.43 2510.66,949.83 C2510.66,948.73 2511.16,947.63 2512.26,946.43 C2513.96,944.63 2517.16,942.23 2520.76,940.13 C2524.36,938.03 2528.06,936.33 2530.46,935.73 L2530.66,935.73 C2531.26,935.53 2531.76,935.43 2532.26,935.43 C2533.66,935.43 2534.76,936.03 2535.46,937.33 C2535.76,937.93 2535.96,938.43 2535.96,939.03 C2535.96,940.33 2535.26,941.63 2534.36,942.53"/>
<path class="Note" d="M486.502,736.217 C485.002,733.517 482.102,731.817 478.202,731.417 C477.602,731.317 477.102,731.317 476.502,731.317 C473.002,731.317 469.202,732.317 465.702,734.217 C459.102,737.817 455.002,743.717 455.002,748.817 C455.002,750.217 455.202,751.517 455.902,752.717 C457.402,755.417 460.402,757.117 464.302,757.517 C464.902,757.617 465.402,757.617 466.002,757.617 C469.502,757.617 473.202,756.617 476.702,754.717 C483.302,751.117 487.502,745.317 487.502,740.217 C487.502,738.817 487.202,737.417 486.502,736.217"/>
<path class="Note" d="M624.26,723.717 C622.76,721.017 619.86,719.317 615.96,718.917 C615.36,718.817 614.86,718.817 614.26,718.817 C610.76,718.817 606.96,719.817 603.46,721.717 C596.86,725.317 592.76,731.217 592.76,736.317 C592.76,737.717 592.96,739.017 593.66,740.217 C595.16,742.917 598.16,744.617 602.06,745.017 C602.66,745.117 603.16,745.117 603.76,745.117 C607.26,745.117 610.96,744.117 614.46,742.217 C621.06,738.617 625.26,732.817 625.26,727.717 C625.26,726.317 624.96,724.917 624.26,723.717"/>
<path class="Note" d="M762.017,711.216 C760.517,708.516 757.617,706.816 753.717,706.416 C753.117,706.316 752.617,706.316 752.017,706.316 C748.517,706.316 744.717,707.316 741.217,709.216 C734.617,712.816 730.517,718.716 730.517,723.816 C730.517,725.216 730.717,726.516 731.417,727.716 C732.917,730.416 735.917,732.116 739.817,732.516 C740.417,732.616 740.917,732.616 741.517,732.616 C745.017,732.616 748.717,731.616 752.217,729.716 C758.817,726.116 763.017,720.316 763.017,715.216 C763.017,713.816 762.717,712.416 762.017,711.216"/>
<path class="Note" d="M899.775,698.715 C898.275,696.015 895.375,694.315 891.475,693.915 C890.875,693.815 890.375,693.815 889.775,693.815 C886.275,693.815 882.475,694.815 878.975,696.715 C872.375,700.315 868.275,706.215 868.275,711.315 C868.275,712.715 868.475,714.015 869.175,715.215 C870.675,717.915 873.675,719.615 877.575,720.015 C878.175,720.115 878.675,720.115 879.275,720.115 C882.775,720.115 886.475,719.115 889.975,717.215 C896.575,713.615 900.775,707.815 900.775,702.715 C900.775,701.315 900.475,699.915 899.775,698.715"/>
<path class="Note" d="M1074.53,686.214 C1073.03,683.514 1070.13,681.814 1066.23,681.414 C1065.63,681.314 1065.13,681.314 1064.53,681.314 C1061.03,681.314 1057.23,682.314 1053.73,684.214 C1047.13,687.814 1043.03,693.714 1043.03,698.814 C1043.03,700.214 1043.23,701.514 1043.93,702.714 C1045.43,705.414 1048.43,707.114 1052.33,707.514 C1052.93,707.614 1053.43,707.614 1054.03,707.614 C1057.53,707.614 1061.23,706.614 1064.73,704.714 C1071.33,701.114 1075.53,695.314 1075.53,690.214 C1075.53,688.814 1075.23,687.414 1074.53,686.214"/>
<path class="Note" d="M1214.57,673.713 C1213.07,671.013 1210.17,669.313 1206.27,668.913 C1205.67,668.813 1205.17,668.813 1204.57,668.813 C1201.07,668.813 1197.27,669.813 1193.77,671.713 C1187.17,675.313 1183.07,681.213 1183.07,686.313 C1183.07,687.713 1183.27,689.013 1183.97,690.213 C1185.47,692.913 1188.47,694.613 1192.37,695.013 C1192.97,695.113 1193.47,695.113 1194.07,695.113 C1197.57,695.113 1201.27,694.113 1204.77,692.213 C1211.37,688.613 1215.57,682.813 1215.57,677.713 C1215.57,676.313 1215.27,674.913 1214.57,673.713"/>
<path class="Note" d="M1354.61,661.213 C1353.11,658.513 1350.21,656.813 1346.31,656.413 C1345.71,656.313 1345.21,656.313 1344.61,656.313 C1341.11,656.313 1337.31,657.313 1333.81,659.213 C1327.21,662.813 1323.11,668.713 1323.11,673.813 C1323.11,675.213 1323.31,676.513 1324.01,677.713 C1325.51,680.413 1328.51,682.113 1332.41,682.513 C1333.01,682.613 1333.51,682.613 1334.11,682.613 C1337.61,682.613 1341.31,681.613 1344.81,679.713 C1351.41,676.113 1355.61,670.313 1355.61,665.213 C1355.61,663.813 1355.31,662.413 1354.61,661.213"/>
<path class="Note" d="M1494.65,648.712 C1493.15,646.012 1490.25,644.312 1486.35,643.912 C1485.75,643.812 1485.25,643.812 1484.65,643.812 C1481.15,643.812 1477.35,644.812 1473.85,646.712 C1467.25,650.312 1463.15,656.212 1463.15,661.312 C1463.15,662.712 1463.35,664.012 1464.05,665.212 C1465.55,667.912 1468.55,669.612 1472.45,670.012 C1473.05,670.112 1473.55,670.112 1474.15,670.112 C1477.65,670.112 1481.35,669.112 1484.85,667.212 C1491.45,663.612 1495.65,657.812 1495.65,652.712 C1495.65,651.312 1495.35,649.912 1494.65,648.712"/>
<path class="Note" d="M1680.44,661.213 C1678.94,658.513 1676.04,656.813 1672.14,656.413 C1671.54,656.313 1671.04,656.313 1670.44,656.313 C1666.94,656.313 1663.14,657.313 1659.64,659.213 C1653.04,662.813 1648.94,668.713 1648.94,673.813 C1648.94,675.213 1649.14,676.513 1649.84,677.713 C1651.34,680.413 1654.34,682.113 1658.24,682.513 C1658.84,682.613 1659.34,682.613 1659.94,682.613 C1663.44,682.613 1667.14,681.613 1670.64,679.713 C1677.24,676.113 1681.44,670.313 1681.44,665.213 C1681.44,663.813 1681.14,662.413 1680.44,661.213"/>
<path class="Note" d="M1815.23,673.713 C1813.73,671.013 1810.83,669.313 1806.93,668.913 C1806.33,668.813 1805.83,668.813 1805.23,668.813 C1801.73,668.813 1797.93,669.813 1794.43,671.713 C1787.83,675.313 1783.73,681.213 1783.73,686.313 C1783.73,687.713 1783.93,689.013 1784.63,690.213 C1786.13,692.913 1789.13,694.613 1793.03,695.013 C1793.63,695.113 1794.13,695.113 1794.73,695.113 C1798.23,695.113 1801.93,694.113 1805.43,692.213 C1812.03,688.613 1816.23,682.813 1816.23,677.713 C1816.23,676.313 1815.93,674.913 1815.23,673.713"/>
<path class="Note" d="M1950.01,686.214 C1948.51,683.514 1945.61,681.814 1941.71,681.414 C1941.11,681.314 1940.61,681.314 1940.01,681.314 C1936.51,681.314 1932.71,682.314 1929.21,684.214 C1922.61,687.814 1918.51,693.714 1918.51,698.814 C1918.51,700.214 1918.71,701.514 1919.41,702.714 C1920.91,705.414 1923.91,707.114 1927.81,707.514 C1928.41,707.614 1928.91,707.614 1929.51,707.614 C1933.01,707.614 1936.71,706.614 1940.21,704.714 C1946.81,701.114 1951.01,695.314 1951.01,690.214 C1951.01,688.814 1950.71,687.414 1950.01,686.214"/>
<path class="Note" d="M2084.8,698.715 C2083.3,696.015 2080.4,694.315 2076.5,693.915 C2075.9,693.815 2075.4,693.815 2074.8,693.815 C2071.3,693.815 2067.5,694.815 2064,696.715 C2057.4,700.315 2053.3,706.215 2053.3,711.315 C2053.3,712.715 2053.5,714.015 2054.2,715.215 C2055.7,717.915 2058.7,719.615 2062.6,720.015 C2063.2,720.115 2063.7,720.115 2064.3,720.115 C2067.8,720.115 2071.5,719.115 2075,717.215 C2081.6,713.615 2085.8,707.815 2085.8,702.715 C2085.8,701.315 2085.5,699.915 2084.8,698.715"/>
<path class="Note" d="M2256.59,711.216 C2255.09,708.516 2252.19,706.816 2248.29,706.416 C2247.69,706.316 2247.19,706.316 2246.59,706.316 C2243.09,706.316 2239.29,707.316 2235.79,709.216 C2229.19,712.816 2225.09,718.716 2225.09,723.816 C2225.09,725.216 2225.29,726.516 2225.99,727.716 C2227.49,730.416 2230.49,732.116 2234.39,732.516 C2234.99,732.616 2235.49,732.616 2236.09,732.616 C2239.59,732.616 2243.29,731.616 2246.79,729.716 C2253.39,726.116 2257.59,720.316 2257.59,715.216 C2257.59,713.816 2257.29,712.416 2256.59,711.216"/>
<path class="Note" d="M2397.58,723.717 C2396.08,721.017 2393.18,719.317 2389.28,718.917 C2388.68,718.817 2388.18,718.817 2387.58,718.817 C2384.08,718.817 2380.28,719.817 2376.78,721.717 C2370.18,725.317 2366.08,731.217 2366.08,736.317 C2366.08,737.717 2366.28,739.017 2366.98,740.217 C2368.48,742.917 2371.48,744.617 2375.38,745.017 C2375.98,745.117 2376.48,745.117 2377.08,745.117 C2380.58,745.117 2384.28,744.117 2387.78,742.217 C2394.38,738.617 2398.58,732.817 2398.58,727.717 C2398.58,726.317 2398.28,724.917 2397.58,723.717"/>
<path class="Note" d="M2538.56,736.217 C2537.06,733.517 2534.16,731.817 2530.26,731.417 C2529.66,731.317 2529.16,731.317 2528.56,731.317 C2525.06,731.317 2521.26,732.317 2517.76,734.217 C2511.16,737.817 2507.06,743.617 2507.06,748.717 C2507.06,750.117 2507.46,751.517 2508.16,752.717 C2509.66,755.517 2512.46,757.117 2516.36,757.517 C2516.96,757.617 2517.46,757.617 2518.06,757.617 C2521.56,757.617 2525.36,756.617 2528.86,754.717 C2535.46,751.117 2539.56,745.217 2539.56,740.117 C2539.56,738.717 2539.26,737.417 2538.56,736.217 M2534.36,742.517 C2532.66,744.317 2529.46,746.617 2525.86,748.717 C2522.26,750.817 2518.56,752.517 2516.26,753.217 C2515.76,753.317 2515.16,753.417 2514.66,753.417 C2513.16,753.417 2511.86,752.717 2511.16,751.617 C2510.86,751.017 2510.66,750.417 2510.66,749.817 C2510.66,748.717 2511.16,747.617 2512.26,746.417 C2513.96,744.617 2517.16,742.217 2520.76,740.117 C2524.36,738.017 2528.06,736.317 2530.46,735.717 L2530.66,735.717 C2531.26,735.517 2531.76,735.417 2532.26,735.417 C2533.66,735.417 2534.76,736.017 2535.46,737.317 C2535.76,737.917 2535.96,738.417 2535.96,739.017 C2535.96,740.317 2535.26,741.617 2534.36,742.517"/>
<path class="Clef" d="M297,906.829 C289.4,906.829 283.3,911.229 283.2,911.229 C277.4,915.529 275.1,920.629 274.2,924.129 C273.7,925.929 273.5,927.729 273.5,929.429 C273.5,931.829 273.9,934.029 274.8,935.929 C276,938.629 278.3,940.529 281.3,941.529 C282.5,941.929 283.8,942.129 285.1,942.129 C287.3,942.129 289.6,941.529 291.5,940.429 C294.6,938.729 296.5,935.129 296.5,931.229 C296.5,927.729 294.7,924.529 291.7,922.629 C289.6,921.229 287.6,920.829 285.9,920.829 C284.7,920.829 283.6,921.029 282.7,921.329 C281.7,921.729 280,922.729 279.2,923.429 C279.5,921.529 280.7,918.629 281.8,917.029 C282.9,915.429 285.1,913.429 286.8,912.529 C289.3,911.129 292.5,910.529 296,910.529 C306.2,910.529 311.2,918.729 311.2,935.529 C311.2,944.829 307.7,953.729 304.7,959.629 C301.4,966.229 297,972.529 293.1,976.029 C282.7,985.529 272.9,990.029 272.8,990.029 C272.8,990.029 271.3,990.929 271.7,992.429 C272,993.429 272.9,993.629 273.5,993.629 C273.6,993.629 273.9,993.529 274,993.529 C274.1,993.529 285.5,988.829 294.6,981.729 C299.7,978.029 304.3,974.029 308.3,969.729 C311.9,965.829 315,961.629 317.5,957.429 C321.9,949.929 324.4,942.129 324.4,935.429 C324.4,927.129 322.2,920.229 318.1,915.329 C313.4,909.729 306.3,906.829 297,906.829 M328.4,919.529 C328.4,922.329 330.6,924.529 333.2,924.529 C335.8,924.529 338,922.329 338,919.529 C338,916.729 335.8,914.429 333.2,914.429 C330.6,914.429 328.4,916.729 328.4,919.529 M328.4,944.229 C328.4,947.029 330.6,949.329 333.2,949.329 C335.8,949.329 338,947.029 338,944.229 C338,941.429 335.8,939.129 333.2,939.129 C330.6,939.129 328.4,941.429 328.4,944.229"/>
<path class="Clef" d="M335,713.516 C333.8,708.116 331.1,704.216 330.3,703.216 C327.1,698.916 323.1,696.116 318.4,694.716 C316.1,694.016 314,693.816 312,693.816 C311.3,693.816 310.6,693.816 309.9,693.916 C308.9,687.916 307.8,682.016 306.9,676.616 C312.5,670.416 316.2,664.516 318.6,660.116 C322.2,653.416 323.6,648.716 323.7,648.516 C324.9,645.516 325.6,641.716 325.6,637.216 C325.6,634.516 325.3,631.616 324.9,628.616 C323.8,621.516 321.6,614.816 319.1,611.116 C317.8,609.216 316.6,608.116 315.4,608.116 C314.2,608.116 311.7,609.316 308.8,612.116 C306.5,614.316 303.2,618.216 300.6,624.216 C298.3,629.616 297.6,636.516 297.6,642.416 C297.6,644.216 297.7,645.916 297.8,647.516 C298,651.116 298.7,656.916 299.3,660.516 C299.3,660.616 299.6,662.116 300,664.716 L299.3,665.416 C298.3,666.416 297.1,667.516 295.7,668.916 C294.8,669.816 293.9,670.616 292.9,671.616 C284.4,679.816 271.6,692.216 271.6,711.316 C271.6,716.016 272.5,720.416 274.3,724.416 C275.9,728.016 278.2,731.316 281.1,734.216 C288.6,741.616 298.8,744.816 305.9,744.816 L306.5,744.816 C309.4,744.716 312.1,744.416 314.5,744.016 C316.3,753.616 317.5,760.716 317.5,766.016 C317.5,772.516 315.9,776.416 312,779.216 C309.6,780.916 306.7,782.016 303.6,782.116 L302.8,782.116 C301.3,782.116 298.8,781.716 297.3,781.316 C297.3,781.316 297,781.216 297,781.016 C297,780.816 297.4,780.816 297.4,780.816 C299.3,780.416 302.9,779.116 305.3,775.816 C306.4,774.316 307.1,772.016 307.1,769.516 C307.1,767.916 306.8,766.216 306.1,764.716 C305,762.316 302.4,759.316 296.8,758.916 L295.7,758.916 C293.6,758.916 291.8,759.416 290.1,760.416 C288.3,761.516 286.7,763.216 285.7,765.216 C284.6,767.216 284.1,769.416 284.1,771.616 C284.1,774.516 285,777.216 286.8,779.416 C289.8,783.016 294.5,785.316 299.9,785.916 C300.6,786.016 301.7,786.116 302.4,786.116 C306.8,786.116 311.2,784.916 314.8,782.716 C318.5,780.116 320.6,776.116 321.3,770.516 C321.5,769.216 321.5,767.816 321.5,766.316 C321.5,762.416 321,757.716 320,751.916 C319.6,749.816 319.2,746.816 318.5,743.016 C324.3,741.116 328.4,737.416 332.2,731.616 C334.5,727.616 335.6,723.516 335.6,719.216 C335.6,717.316 335.4,715.416 335,713.516 M304.8,635.616 C306.6,629.916 309.3,626.516 311.3,624.816 C313.1,623.316 314.7,622.616 315.6,622.616 C315.7,622.616 315.9,622.716 316,622.716 C316.3,622.816 316.7,623.316 317.1,624.016 C318,625.816 318.9,629.116 318.9,632.816 C318.9,634.716 318.7,636.716 318.1,638.516 C315.9,645.316 311.3,652.616 304.3,660.316 C304.1,659.216 303.9,658.216 303.8,657.216 C303.3,654.016 303,650.816 303,647.916 C303,643.416 303.6,639.316 304.8,635.616 M300.8,739.716 C296.2,738.516 291.7,736.016 287.9,732.516 C286.6,731.316 284.8,729.116 283.3,725.716 C282,722.716 281.3,719.616 281.3,716.216 L281.3,715.516 C281.4,710.816 282.7,706.016 285.2,701.216 C288.1,695.616 292.6,690.116 298.7,684.816 C300.2,683.516 301.6,682.216 302.9,680.916 C303.7,685.216 304.4,689.916 305.3,694.816 C301.4,696.116 296.7,699.116 293.6,704.816 C291.2,709.316 290.5,713.216 290.5,716.416 C290.5,717.916 290.7,719.316 290.9,720.416 C291.8,724.916 294.4,728.616 297.9,730.716 C298.7,731.216 302,732.916 304,732.916 C304.3,732.916 304.6,732.916 304.8,732.816 C305.1,732.716 305.4,732.516 305.5,732.216 C305.6,732.016 305.6,731.816 305.6,731.616 C305.6,730.816 304.8,730.216 303.5,729.416 C302.9,729.016 302.2,728.616 301.5,728.116 C298.9,726.116 297.4,723.016 297.4,719.616 C297.4,718.616 297.6,717.716 297.8,716.716 C298.3,714.716 300,711.916 301.5,710.516 C303.2,709.016 305.2,707.816 307.6,707.216 C309.6,718.416 311.7,729.516 313.3,737.916 C313.4,738.616 313.6,739.316 313.7,740.016 C311.7,740.416 309.7,740.616 307.8,740.616 C305.4,740.616 303.1,740.316 300.8,739.716 M326.5,729.516 C325.3,732.716 322.8,736.716 317.7,738.816 C317.6,738.416 317.6,737.916 317.5,737.516 C316,728.716 314.1,717.816 312.1,706.516 L313.1,706.516 C322.8,706.516 326.7,713.716 327.6,718.316 C327.8,719.216 327.9,720.416 327.9,721.716 C327.9,724.016 327.5,726.816 326.5,729.516"/>
<path class="TimeSig" d="M365.2,945.328 L382,945.328 L382,952.628 L373.9,952.628 C373.1,952.628 372.5,953.228 372.5,954.028 L372.5,955.928 C372.5,956.728 373.1,957.228 373.9,957.228 L403.6,957.228 C404.4,957.228 405,956.728 405,955.928 L405,954.028 C405,953.228 404.4,952.628 403.6,952.628 L394.8,952.628 L394.8,945.328 L403.6,945.328 C404.4,945.328 405,944.728 405,943.928 L405,942.128 C405,941.328 404.4,940.728 403.6,940.728 L394.8,940.728 L394.8,925.028 C394.8,924.528 394.4,924.028 394,923.828 L392.9,923.228 C392.7,923.128 392.4,923.128 392.2,923.128 C391.9,923.128 391.5,923.228 391.3,923.428 L382.4,931.628 C382.2,931.828 382,932.328 382,932.628 L382,940.728 L370.7,940.728 C370.7,940.728 381.6,928.928 393.2,913.428 C394,912.328 393.6,911.328 393.4,911.128 L391.3,908.928 C391.1,908.728 390.6,908.528 390.3,908.528 L375.7,908.528 C375,908.528 374.5,909.128 374.4,909.728 C374.4,909.728 373.9,916.928 371.3,924.928 C368.7,932.928 365.9,937.728 363.3,941.328 C363.3,941.328 362.8,942.328 363.1,943.028 C363.4,943.728 364.1,944.828 364.1,944.828 C364.1,944.828 364.4,945.328 365.2,945.328"/>
<path class="TimeSig" d="M365.2,993.933 L382,993.933 L382,1001.23 L373.9,1001.23 C373.1,1001.23 372.5,1001.83 372.5,1002.63 L372.5,1004.53 C372.5,1005.33 373.1,1005.83 373.9,1005.83 L403.6,1005.83 C404.4,1005.83 405,1005.33 405,1004.53 L405,1002.63 C405,1001.83 404.4,1001.23 403.6,1001.23 L394.8,1001.23 L394.8,993.933 L403.6,993.933 C404.4,993.933 405,993.333 405,992.533 L405,990.733 C405,989.933 404.4,989.333 403.6,989.333 L394.8,989.333 L394.8,973.633 C394.8,973.133 394.4,972.633 394,972.433 L392.9,971.833 C392.7,971.733 392.4,971.733 392.2,971.733 C391.9,971.733 391.5,971.833 391.3,972.033 L382.4,980.233 C382.2,980.433 382,980.933 382,981.233 L382,989.333 L370.7,989.333 C370.7,989.333 381.6,977.533 393.2,962.033 C394,960.933 393.6,959.933 393.4,959.733 L391.3,957.533 C391.1,957.333 390.6,957.133 390.3,957.133 L375.7,957.133 C375,957.133 374.5,957.733 374.4,958.333 C374.4,958.333 373.9,965.533 371.3,973.533 C368.7,981.533 365.9,986.333 363.3,989.933 C363.3,989.933 362.8,990.933 363.1,991.633 C363.4,992.333 364.1,993.433 364.1,993.433 C364.1,993.433 364.4,993.933 365.2,993.933"/>
<path class="TimeSig" d="M365.2,682.812 L382,682.812 L382,690.112 L373.9,690.112 C373.1,690.112 372.5,690.712 372.5,691.512 L372.5,693.412 C372.5,694.212 373.1,694.712 373.9,694.712 L403.6,694.712 C404.4,694.712 405,694.212 405,693.412 L405,691.512 C405,690.712 404.4,690.112 403.6,690.112 L394.8,690.112 L394.8,682.812 L403.6,682.812 C404.4,682.812 405,682.212 405,681.412 L405,679.612 C405,678.812 404.4,678.212 403.6,678.212 L394.8,678.212 L394.8,662.512 C394.8,662.012 394.4,661.512 394,661.312 L392.9,660.712 C392.7,660.612 392.4,660.612 392.2,660.612 C391.9,660.612 391.5,660.712 391.3,660.912 L382.4,669.112 C382.2,669.312 382,669.812 382,670.112 L382,678.212 L370.7,678.212 C370.7,678.212 381.6,666.412 393.2,650.912 C394,649.812 393.6,648.812 393.4,648.612 L391.3,646.412 C391.1,646.212 390.6,646.012 390.3,646.012 L375.7,646.012 C375,646.012 374.5,646.612 374.4,647.212 C374.4,647.212 373.9,654.412 371.3,662.412 C368.7,670.412 365.9,675.212 363.3,678.812 C363.3,678.812 362.8,679.812 363.1,680.512 C363.4,681.212 364.1,682.312 364.1,682.312 C364.1,682.312 364.4,682.812 365.2,682.812"/>
<path class="TimeSig" d="M365.2,731.416 L382,731.416 L382,738.716 L373.9,738.716 C373.1,738.716 372.5,739.316 372.5,740.116 L372.5,742.016 C372.5,742.816 373.1,743.316 373.9,743.316 L403.6,743.316 C404.4,743.316 405,742.816 405,742.016 L405,740.116 C405,739.316 404.4,738.716 403.6,738.716 L394.8,738.716 L394.8,731.416 L403.6,731.416 C404.4,731.416 405,730.816 405,730.016 L405,728.216 C405,727.416 404.4,726.816 403.6,726.816 L394.8,726.816 L394.8,711.116 C394.8,710.616 394.4,710.116 394,709.916 L392.9,709.316 C392.7,709.216 392.4,709.216 392.2,709.216 C391.9,709.216 391.5,709.316 391.3,709.516 L382.4,717.716 C382.2,717.916 382,718.416 382,718.716 L382,726.816 L370.7,726.816 C370.7,726.816 381.6,715.016 393.2,699.516 C394,698.416 393.6,697.416 393.4,697.216 L391.3,695.016 C391.1,694.816 390.6,694.616 390.3,694.616 L375.7,694.616 C375,694.616 374.5,695.216 374.4,695.816 C374.4,695.816 373.9,703.016 371.3,711.016 C368.7,719.016 365.9,723.816 363.3,727.416 C363.3,727.416 362.8,728.416 363.1,729.116 C363.4,729.816 364.1,730.916 364.1,730.916 C364.1,730.916 364.4,731.416 365.2,731.416"/>
<path class="Page" d="M222.584,4034.43 C221.054,4036.28 216.914,4037.67 212.774,4037.76 L212.774,4039.7 L216.734,4039.7 C219.344,4039.74 219.614,4040.01 219.524,4042.53 L219.524,4060.58 C219.524,4062.87 219.524,4062.96 219.254,4063.37 C218.894,4063.82 218.039,4064 215.519,4064 L212.594,4064 L212.594,4066.11 L230.414,4066.11 L230.414,4064 L227.939,4064 C225.419,4064 224.564,4063.82 224.204,4063.37 C223.889,4062.96 223.889,4062.92 223.889,4060.58 L223.889,4041.99 C223.889,4039.47 223.979,4037.36 224.204,4034.43 L222.584,4034.43 M235.764,4045.32 L237.744,4045.64 L238.554,4042.08 C239.229,4039.11 239.544,4038.66 240.849,4038.66 C241.074,4038.66 241.434,4038.66 241.839,4038.71 C247.374,4038.98 247.374,4038.98 249.444,4038.98 C250.029,4038.98 251.064,4038.98 252.324,4038.93 L249.264,4045.1 C245.934,4051.71 245.529,4052.52 244.404,4055.31 C243.009,4058.69 242.289,4061.52 242.289,4063.41 C242.289,4065.48 243.369,4066.74 245.124,4066.74 C247.284,4066.74 248.139,4065.3 248.094,4061.39 C247.869,4054.91 248.679,4051.76 253.494,4041.23 C254.169,4039.79 254.844,4038.39 255.519,4037 C255.564,4036.91 255.699,4036.5 255.969,4035.92 L255.969,4034.61 C253.269,4034.84 251.829,4034.93 249.039,4034.93 C245.124,4034.93 242.019,4034.79 237.159,4034.43 L235.764,4045.32 "/>
<path class="Bracket" transform="matrix(3.62523,0,0,3.62523,214.469,1006.93)" d="M0.92002,-50 C2.69004,-51.88 6.2,-55.8 6.2,-63 C6.2,-72.1 2.25996,-81.32 2.25996,-86.97 C2.25996,-93.06 5.84004,-98.84 5.95,-99 C6.05996,-99.16 6.05,-99.39 5.94004,-99.46 C5.82998,-99.53 5.62002,-99.47 5.49004,-99.32 C5.35996,-99.17 0,-93.75 0,-85.6 C0,-76.75 3.5,-70.58 3.5,-59.07 C3.5,-56.89 2.55996,-53.36 0.1,-50.33 C-0.0799805,-50.17 -0.1,-49.89 0.0599609,-49.7 L0.0700195,-49.69 L0.1,-49.66 C2.55996,-46.63 3.5,-43.1 3.5,-40.92 C3.5,-29.4 0,-23.24 0,-14.39 C0,-6.25 5.35996,-0.8 5.49004,-0.659961 C5.62002,-0.52002 5.8,-0.42998 5.94004,-0.52002 C6.07998,-0.609961 6.07998,-0.77998 5.95,-0.97998 C5.82002,-1.17998 2.25996,-6.92002 2.25996,-13.01 C2.25996,-18.66 6.2,-27.9 6.2,-37 C6.2,-44.3 2.69004,-48.12 0.92002,-50"/>
</svg>
