<?xml version="1.0" encoding="UTF-8" standalone="no"?>
<svg width="2977.23px" height="4208.47px" viewBox="0 0 2977.23 4208.47"
 xmlns="http://www.w3.org/2000/svg" xmlns:xlink="http://www.w3.org/1999/xlink" version="1.2" baseProfile="tiny">
<title>exercises_scores (5)</title>
<desc>Generated by MuseScore 3.6.0</desc>
<polyline class="StaffLines" fill="none" stroke="#000000" stroke-width="2.75" stroke-linejoin="bevel" points="247.099,656.536 2764.63,656.536"/>
<polyline class="StaffLines" fill="none" stroke="#000000" stroke-width="2.75" stroke-linejoin="bevel" points="247.099,681.538 2764.63,681.538"/>
<polyline class="StaffLines" fill="none" stroke="#000000" stroke-width="2.75" stroke-linejoin="bevel" points="247.099,706.539 2764.63,706.539"/>
<polyline class="StaffLines" fill="none" stroke="#000000" stroke-width="2.75" stroke-linejoin="bevel" points="247.099,731.541 2764.63,731.541"/>
<polyline class="StaffLines" fill="none" stroke="#000000" stroke-width="2.75" stroke-linejoin="bevel" points="247.099,756.542 2764.63,756.542"/>
<polyline class="StaffLines" fill="none" stroke="#000000" stroke-width="2.75" stroke-linejoin="bevel" points="247.099,919.053 2764.63,919.053"/>
<polyline class="StaffLines" fill="none" stroke="#000000" stroke-width="2.75" stroke-linejoin="bevel" points="247.099,944.054 2764.63,944.054"/>
<polyline class="StaffLines" fill="none" stroke="#000000" stroke-width="2.75" stroke-linejoin="bevel" points="247.099,969.056 2764.63,969.056"/>
<polyline class="StaffLines" fill="none" stroke="#000000" stroke-width="2.75" stroke-linejoin="bevel" points="247.099,994.057 2764.63,994.057"/>
<polyline class="StaffLines" fill="none" stroke="#000000" stroke-width="2.75" stroke-linejoin="bevel" points="247.099,1019.06 2764.63,1019.06"/>
<path class="Text" d="M242.312,213.137 L240.092,213.137 L237.692,216.737 C234.812,214.037 231.032,212.597 226.772,212.597 C218.852,212.597 213.632,217.577 213.632,225.137 C213.632,231.677 216.872,234.917 225.692,237.197 L231.392,238.637 C235.832,239.777 236.252,239.897 237.512,240.857 C239.312,242.237 240.272,244.217 240.272,246.557 C240.272,248.957 239.372,250.937 237.572,252.617 C235.592,254.297 233.612,254.957 230.312,254.957 C225.872,254.957 222.692,253.577 219.872,250.457 C217.352,247.697 216.092,244.817 215.192,240.197 L212.612,240.197 L212.852,257.297 L215.192,257.297 L217.892,253.217 C221.912,256.517 225.212,257.717 230.492,257.717 C239.312,257.717 244.952,252.557 244.952,244.517 C244.952,240.737 243.752,237.617 241.352,235.337 C239.732,233.777 237.392,232.757 232.592,231.557 L226.172,229.937 C220.832,228.557 218.312,226.217 218.312,222.557 C218.312,218.357 221.732,215.477 226.832,215.477 C231.032,215.477 234.452,217.277 236.852,220.697 C238.592,223.157 239.732,225.677 240.452,228.737 L243.032,228.737 L242.312,213.137 M271.162,247.997 C269.242,252.317 267.202,254.057 264.082,254.057 C259.282,254.057 256.282,249.677 256.282,242.657 C256.282,235.337 259.222,230.537 263.662,230.537 C265.462,230.537 267.022,231.377 267.022,232.337 C267.022,232.517 266.962,232.697 266.662,233.057 C265.702,234.197 265.462,234.797 265.462,235.817 C265.462,237.797 266.962,239.177 269.062,239.177 C271.222,239.177 272.722,237.497 272.722,235.097 C272.722,231.017 268.702,227.957 263.362,227.957 C255.562,227.957 249.982,234.317 249.982,243.317 C249.982,251.837 255.082,257.717 262.522,257.717 C267.862,257.717 270.922,255.257 273.502,248.897 L271.162,247.997 M301.75,237.497 C301.75,233.717 301.09,231.797 299.35,230.357 C297.37,228.737 294.43,227.957 290.59,227.957 C283.81,227.957 278.89,231.137 278.89,235.517 C278.89,237.737 280.27,239.177 282.37,239.177 C284.29,239.177 285.61,237.917 285.61,236.117 C285.61,235.337 285.31,234.497 284.71,233.657 C284.35,233.237 284.29,233.117 284.29,232.817 C284.29,231.617 286.69,230.537 289.57,230.537 C291.49,230.537 293.59,231.137 294.55,232.037 C295.69,232.997 296.11,234.437 296.11,237.137 L296.11,239.477 C289.87,240.557 287.89,241.037 284.95,242.177 C279.73,244.097 277.27,246.857 277.27,250.697 C277.27,255.017 280.63,257.717 285.97,257.717 C290.11,257.717 293.83,256.037 296.41,252.977 C297.37,256.037 298.87,257.237 301.69,257.237 C304.39,257.237 307.21,255.497 307.21,253.757 C307.21,253.337 306.97,253.037 306.61,253.037 C306.37,253.037 306.13,253.097 305.71,253.277 C304.87,253.637 304.51,253.697 304.03,253.697 C302.35,253.697 301.75,252.617 301.75,249.557 L301.75,237.497 M296.11,244.817 C296.11,248.417 295.93,249.257 294.91,250.817 C293.41,253.037 290.71,254.537 288.07,254.537 C285.31,254.537 283.33,252.557 283.33,249.857 C283.33,247.337 284.59,245.537 287.23,244.277 C289.09,243.437 291.43,242.837 296.11,242.057 L296.11,244.817 M320.229,212.597 L309.129,213.257 L309.129,215.837 L312.069,215.837 C314.289,215.897 314.589,216.257 314.589,218.837 L314.589,249.437 L314.589,252.257 C314.529,253.157 314.469,253.517 314.229,253.817 C313.809,254.357 312.669,254.597 310.089,254.657 L309.669,254.657 L309.669,256.817 L325.209,256.817 L325.209,254.657 L324.789,254.657 C320.769,254.537 320.229,254.237 320.229,252.077 L320.229,249.437 L320.229,212.597 M354.78,243.317 C354.84,234.317 349.74,227.957 342.42,227.957 C334.74,227.957 328.98,234.617 328.98,243.617 C328.98,252.077 334.44,257.717 342.54,257.717 C348.3,257.717 352.32,254.897 354.78,249.197 L352.68,248.057 C350.22,252.677 347.7,254.477 343.68,254.477 C340.62,254.477 338.4,253.217 336.84,250.517 C335.76,248.717 335.28,246.617 335.34,243.317 L354.78,243.317 M335.4,240.737 C335.4,238.877 335.64,237.557 336.24,235.877 C337.5,232.277 339.42,230.537 342.36,230.537 C345.96,230.537 348.36,233.717 348.36,238.577 C348.36,240.257 347.82,240.737 345.9,240.737 L335.4,240.737 M366.601,250.157 C364.501,250.157 362.821,251.837 362.821,253.877 C362.821,255.977 364.501,257.657 366.541,257.657 C368.641,257.657 370.321,255.977 370.321,253.877 C370.321,251.837 368.641,250.157 366.601,250.157 M366.601,228.437 C364.501,228.437 362.821,230.117 362.821,232.217 C362.821,234.257 364.501,235.937 366.541,235.937 C368.641,235.937 370.321,234.257 370.321,232.157 C370.321,230.117 368.641,228.437 366.601,228.437 M428.805,213.497 L392.745,213.497 L392.745,216.317 L393.825,216.317 C397.245,216.377 398.385,216.557 398.865,217.157 C399.225,217.697 399.225,217.817 399.225,220.877 L399.225,249.437 C399.225,252.497 399.225,252.617 398.865,253.157 C398.385,253.757 397.245,253.997 393.825,253.997 L392.745,253.997 L392.745,256.817 L429.585,256.817 L430.785,240.797 L428.145,240.797 C425.865,251.477 423.405,253.757 414.225,253.997 L410.265,253.997 C406.665,253.877 405.765,253.277 405.945,251.117 L405.945,235.817 L407.145,235.817 C413.325,235.577 415.545,237.797 415.785,244.457 L418.605,244.457 L418.605,224.777 L415.785,224.777 C415.425,230.657 413.085,232.997 407.385,232.997 L405.945,232.997 L405.945,219.317 C405.885,216.797 406.485,216.377 409.725,216.317 L412.845,216.317 C422.685,216.257 425.145,218.417 427.065,228.797 L429.645,228.797 L428.805,213.497 M463.049,228.857 L452.369,229.517 L452.369,232.097 L454.829,232.097 C457.109,232.157 457.409,232.517 457.409,235.097 L457.409,249.437 L457.409,251.777 L457.409,252.257 C457.349,253.157 457.289,253.517 457.049,253.817 C456.629,254.357 455.489,254.597 452.909,254.657 L452.669,254.657 L452.669,256.817 L467.789,256.817 L467.789,254.657 L467.549,254.657 C463.589,254.537 463.049,254.237 463.049,252.017 L463.049,249.437 L463.049,240.917 C463.049,235.577 465.989,231.617 469.889,231.617 C473.309,231.617 475.049,234.077 475.049,238.937 L475.049,249.437 L475.049,252.317 C474.989,253.097 474.929,253.517 474.629,253.817 C474.269,254.357 473.069,254.597 470.489,254.657 L470.249,254.657 L470.249,256.817 L485.429,256.817 L485.429,254.657 L485.189,254.657 C481.229,254.537 480.689,254.237 480.689,252.077 L480.689,249.437 L480.689,241.457 C480.689,235.457 483.389,231.617 487.589,231.617 C491.009,231.617 492.689,234.197 492.689,239.597 L492.689,249.437 L492.689,252.257 C492.629,253.097 492.569,253.517 492.269,253.817 C491.909,254.357 490.709,254.597 488.129,254.657 L487.889,254.657 L487.889,256.817 L503.069,256.817 L503.069,254.657 L502.829,254.657 C498.869,254.537 498.329,254.237 498.329,252.017 L498.329,249.437 L498.329,238.397 C498.329,234.677 497.969,233.417 496.409,231.377 C494.669,229.157 492.209,227.957 489.329,227.957 C485.429,227.957 482.549,229.817 479.969,233.957 C478.949,230.357 475.709,227.957 471.689,227.957 C468.029,227.957 465.389,229.697 463.049,233.477 L463.049,228.857 M531.437,237.497 C531.437,233.717 530.777,231.797 529.037,230.357 C527.057,228.737 524.117,227.957 520.277,227.957 C513.497,227.957 508.577,231.137 508.577,235.517 C508.577,237.737 509.957,239.177 512.057,239.177 C513.977,239.177 515.297,237.917 515.297,236.117 C515.297,235.337 514.997,234.497 514.397,233.657 C514.037,233.237 513.977,233.117 513.977,232.817 C513.977,231.617 516.377,230.537 519.257,230.537 C521.177,230.537 523.277,231.137 524.237,232.037 C525.377,232.997 525.797,234.437 525.797,237.137 L525.797,239.477 C519.557,240.557 517.577,241.037 514.637,242.177 C509.417,244.097 506.957,246.857 506.957,250.697 C506.957,255.017 510.317,257.717 515.657,257.717 C519.797,257.717 523.517,256.037 526.097,252.977 C527.057,256.037 528.557,257.237 531.377,257.237 C534.077,257.237 536.897,255.497 536.897,253.757 C536.897,253.337 536.657,253.037 536.297,253.037 C536.057,253.037 535.817,253.097 535.397,253.277 C534.557,253.637 534.197,253.697 533.717,253.697 C532.037,253.697 531.437,252.617 531.437,249.557 L531.437,237.497 M525.797,244.817 C525.797,248.417 525.617,249.257 524.597,250.817 C523.097,253.037 520.397,254.537 517.757,254.537 C514.997,254.537 513.017,252.557 513.017,249.857 C513.017,247.337 514.277,245.537 516.917,244.277 C518.777,243.437 521.117,242.837 525.797,242.057 L525.797,244.817 M548.362,228.857 L536.662,229.517 L536.662,232.097 L540.142,232.097 C542.422,232.157 542.722,232.517 542.722,235.097 L542.722,255.437 C542.722,260.297 542.422,262.577 541.582,264.317 C540.982,265.517 539.602,266.417 538.282,266.417 C537.442,266.417 536.782,266.057 536.782,265.637 C536.782,265.397 536.842,265.277 537.082,264.677 C537.382,264.077 537.502,263.657 537.502,263.237 C537.502,261.737 536.062,260.417 534.382,260.417 C532.462,260.417 531.022,261.917 531.022,264.017 C531.022,266.957 533.722,268.937 537.742,268.937 C541.102,268.937 544.162,267.497 545.902,265.037 C547.762,262.397 548.362,259.337 548.362,252.557 L548.362,228.857 M545.542,213.917 C543.622,213.917 542.062,215.477 542.062,217.397 C542.062,219.317 543.622,220.877 545.482,220.877 C547.462,220.877 549.022,219.317 549.022,217.397 C549.022,215.477 547.462,213.917 545.542,213.917 M568.812,227.957 C561.432,227.957 555.732,234.497 555.732,242.897 C555.732,251.117 561.492,257.717 568.692,257.717 C575.892,257.717 581.652,251.117 581.652,242.837 C581.652,234.617 575.892,227.957 568.812,227.957 M568.812,230.537 C573.012,230.537 575.352,234.917 575.352,242.837 C575.352,250.817 573.012,255.137 568.692,255.137 C564.372,255.137 562.032,250.817 562.032,242.897 C562.032,234.737 564.312,230.537 568.812,230.537 M595.572,228.857 L584.952,229.517 L584.952,232.097 L587.412,232.097 C589.692,232.157 589.992,232.517 589.992,235.097 L589.992,249.437 L589.992,252.257 C589.932,253.157 589.872,253.517 589.632,253.817 C589.212,254.357 588.012,254.597 585.432,254.657 L585.192,254.657 L585.192,256.817 L601.212,256.817 L601.212,254.657 L600.132,254.657 C596.112,254.537 595.572,254.237 595.572,252.077 L595.572,249.437 L595.572,248.837 C595.632,238.757 599.232,231.077 603.912,230.837 C603.072,231.797 602.832,232.397 602.832,233.537 C602.832,235.457 604.212,236.837 606.132,236.837 C608.352,236.837 609.792,235.217 609.792,232.817 C609.792,229.877 607.752,227.957 604.572,227.957 C600.792,227.957 597.552,230.957 595.572,236.297 L595.572,228.857 "/>
<polyline class="BarLine" fill="none" stroke="#000000" stroke-width="4.50" stroke-linejoin="bevel" points="249.349,917.677 249.349,1020.43"/>
<polyline class="BarLine" fill="none" stroke="#000000" stroke-width="4.50" stroke-linejoin="bevel" points="1001.63,917.677 1001.63,1020.43"/>
<polyline class="BarLine" fill="none" stroke="#000000" stroke-width="4.50" stroke-linejoin="bevel" points="1628.92,917.677 1628.92,1020.43"/>
<polyline class="BarLine" fill="none" stroke="#000000" stroke-width="4.50" stroke-linejoin="bevel" points="2220.47,917.677 2220.47,1020.43"/>
<polyline class="BarLine" fill="none" stroke="#000000" stroke-width="4.50" stroke-linejoin="bevel" points="2734.88,917.677 2734.88,1020.43"/>
<polyline class="BarLine" fill="none" stroke="#000000" stroke-width="13.75" stroke-linejoin="bevel" points="2757.76,917.677 2757.76,1020.43"/>
<polyline class="BarLine" fill="none" stroke="#000000" stroke-width="4.50" stroke-linejoin="bevel" points="249.349,655.161 249.349,919.053"/>
<polyline class="BarLine" fill="none" stroke="#000000" stroke-width="4.50" stroke-linejoin="bevel" points="1001.63,655.161 1001.63,919.053"/>
<polyline class="BarLine" fill="none" stroke="#000000" stroke-width="4.50" stroke-linejoin="bevel" points="1628.92,655.161 1628.92,919.053"/>
<polyline class="BarLine" fill="none" stroke="#000000" stroke-width="4.50" stroke-linejoin="bevel" points="2220.47,655.161 2220.47,919.053"/>
<polyline class="BarLine" fill="none" stroke="#000000" stroke-width="4.50" stroke-linejoin="bevel" points="2734.88,655.161 2734.88,919.053"/>
<polyline class="BarLine" fill="none" stroke="#000000" stroke-width="13.75" stroke-linejoin="bevel" points="2757.76,655.161 2757.76,919.053"/>
<path class="Accidental" d="M583.747,933.454 C584.347,933.354 584.847,932.654 584.847,932.054 L584.847,926.154 C584.847,925.354 584.247,924.754 583.447,924.754 L583.247,924.754 L579.947,925.454 L579.947,910.554 L577.147,910.554 L577.147,926.054 L568.247,927.854 L568.247,913.754 L565.447,913.754 L565.447,928.454 L561.547,929.254 C560.947,929.354 560.447,930.054 560.447,930.654 L560.447,930.854 L560.447,936.654 L560.447,936.454 C560.447,937.254 561.047,937.854 561.847,937.854 L562.147,937.854 L565.447,937.154 L565.447,953.654 L561.547,954.454 C560.947,954.554 560.447,955.254 560.447,955.854 L560.447,961.654 C560.447,962.454 561.047,963.054 561.847,963.054 L562.147,963.054 L565.447,962.354 L565.447,977.254 L568.247,977.254 L568.247,961.754 L577.147,959.954 L577.147,974.054 L579.947,974.054 L579.947,959.354 L583.747,958.654 C584.347,958.554 584.847,957.854 584.847,957.254 L584.847,951.354 C584.847,950.554 584.247,949.954 583.447,949.954 L583.247,949.954 L579.947,950.654 L579.947,934.154 L583.747,933.454 M568.247,953.154 L568.247,936.554 L577.147,934.754 L577.147,951.254 L568.247,953.154 "/>
<path class="Accidental" d="M719.842,920.953 C720.442,920.853 720.942,920.153 720.942,919.553 L720.942,913.653 C720.942,912.853 720.342,912.253 719.542,912.253 L719.342,912.253 L716.042,912.953 L716.042,898.053 L713.242,898.053 L713.242,913.553 L704.342,915.353 L704.342,901.253 L701.542,901.253 L701.542,915.953 L697.642,916.753 C697.042,916.853 696.542,917.553 696.542,918.153 L696.542,918.353 L696.542,924.153 L696.542,923.953 C696.542,924.753 697.142,925.353 697.942,925.353 L698.242,925.353 L701.542,924.653 L701.542,941.153 L697.642,941.953 C697.042,942.053 696.542,942.753 696.542,943.353 L696.542,949.153 C696.542,949.953 697.142,950.553 697.942,950.553 L698.242,950.553 L701.542,949.853 L701.542,964.753 L704.342,964.753 L704.342,949.253 L713.242,947.453 L713.242,961.553 L716.042,961.553 L716.042,946.853 L719.842,946.153 C720.442,946.053 720.942,945.353 720.942,944.753 L720.942,938.853 C720.942,938.053 720.342,937.453 719.542,937.453 L719.342,937.453 L716.042,938.153 L716.042,921.653 L719.842,920.953 M704.342,940.653 L704.342,924.053 L713.242,922.253 L713.242,938.753 L704.342,940.653 "/>
<path class="Accidental" d="M1167.85,883.451 C1168.45,883.351 1168.95,882.651 1168.95,882.051 L1168.95,876.151 C1168.95,875.351 1168.35,874.751 1167.55,874.751 L1167.35,874.751 L1164.05,875.451 L1164.05,860.551 L1161.25,860.551 L1161.25,876.051 L1152.35,877.851 L1152.35,863.751 L1149.55,863.751 L1149.55,878.451 L1145.65,879.251 C1145.05,879.351 1144.55,880.051 1144.55,880.651 L1144.55,880.851 L1144.55,886.651 L1144.55,886.451 C1144.55,887.251 1145.15,887.851 1145.95,887.851 L1146.25,887.851 L1149.55,887.151 L1149.55,903.651 L1145.65,904.451 C1145.05,904.551 1144.55,905.251 1144.55,905.851 L1144.55,911.651 C1144.55,912.451 1145.15,913.051 1145.95,913.051 L1146.25,913.051 L1149.55,912.351 L1149.55,927.251 L1152.35,927.251 L1152.35,911.751 L1161.25,909.951 L1161.25,924.051 L1164.05,924.051 L1164.05,909.351 L1167.85,908.651 C1168.45,908.551 1168.95,907.851 1168.95,907.251 L1168.95,901.351 C1168.95,900.551 1168.35,899.951 1167.55,899.951 L1167.35,899.951 L1164.05,900.651 L1164.05,884.151 L1167.85,883.451 M1152.35,903.151 L1152.35,886.551 L1161.25,884.751 L1161.25,901.251 L1152.35,903.151 "/>
<path class="Accidental" d="M1315.43,870.95 C1316.03,870.85 1316.53,870.15 1316.53,869.55 L1316.53,863.65 C1316.53,862.85 1315.93,862.25 1315.13,862.25 L1314.93,862.25 L1311.63,862.95 L1311.63,848.05 L1308.83,848.05 L1308.83,863.55 L1299.93,865.35 L1299.93,851.25 L1297.13,851.25 L1297.13,865.95 L1293.23,866.75 C1292.63,866.85 1292.13,867.55 1292.13,868.15 L1292.13,868.35 L1292.13,874.15 L1292.13,873.95 C1292.13,874.75 1292.73,875.35 1293.53,875.35 L1293.83,875.35 L1297.13,874.65 L1297.13,891.15 L1293.23,891.95 C1292.63,892.05 1292.13,892.75 1292.13,893.35 L1292.13,899.15 C1292.13,899.95 1292.73,900.55 1293.53,900.55 L1293.83,900.55 L1297.13,899.85 L1297.13,914.75 L1299.93,914.75 L1299.93,899.25 L1308.83,897.45 L1308.83,911.55 L1311.63,911.55 L1311.63,896.85 L1315.43,896.15 C1316.03,896.05 1316.53,895.35 1316.53,894.75 L1316.53,888.85 C1316.53,888.05 1315.93,887.45 1315.13,887.45 L1314.93,887.45 L1311.63,888.15 L1311.63,871.65 L1315.43,870.95 M1299.93,890.65 L1299.93,874.05 L1308.83,872.25 L1308.83,888.75 L1299.93,890.65 "/>
<path class="Accidental" d="M1676.22,870.95 C1676.82,870.85 1677.32,870.15 1677.32,869.55 L1677.32,863.65 C1677.32,862.85 1676.72,862.25 1675.92,862.25 L1675.72,862.25 L1672.42,862.95 L1672.42,848.05 L1669.62,848.05 L1669.62,863.55 L1660.72,865.35 L1660.72,851.25 L1657.92,851.25 L1657.92,865.95 L1654.02,866.75 C1653.42,866.85 1652.92,867.55 1652.92,868.15 L1652.92,868.35 L1652.92,874.15 L1652.92,873.95 C1652.92,874.75 1653.52,875.35 1654.32,875.35 L1654.62,875.35 L1657.92,874.65 L1657.92,891.15 L1654.02,891.95 C1653.42,892.05 1652.92,892.75 1652.92,893.35 L1652.92,899.15 C1652.92,899.95 1653.52,900.55 1654.32,900.55 L1654.62,900.55 L1657.92,899.85 L1657.92,914.75 L1660.72,914.75 L1660.72,899.25 L1669.62,897.45 L1669.62,911.55 L1672.42,911.55 L1672.42,896.85 L1676.22,896.15 C1676.82,896.05 1677.32,895.35 1677.32,894.75 L1677.32,888.85 C1677.32,888.05 1676.72,887.45 1675.92,887.45 L1675.72,887.45 L1672.42,888.15 L1672.42,871.65 L1676.22,870.95 M1660.72,890.65 L1660.72,874.05 L1669.62,872.25 L1669.62,888.75 L1660.72,890.65 "/>
<path class="Accidental" d="M1807.69,883.451 C1808.29,883.351 1808.79,882.651 1808.79,882.051 L1808.79,876.151 C1808.79,875.351 1808.19,874.751 1807.39,874.751 L1807.19,874.751 L1803.89,875.451 L1803.89,860.551 L1801.09,860.551 L1801.09,876.051 L1792.19,877.851 L1792.19,863.751 L1789.39,863.751 L1789.39,878.451 L1785.49,879.251 C1784.89,879.351 1784.39,880.051 1784.39,880.651 L1784.39,880.851 L1784.39,886.651 L1784.39,886.451 C1784.39,887.251 1784.99,887.851 1785.79,887.851 L1786.09,887.851 L1789.39,887.151 L1789.39,903.651 L1785.49,904.451 C1784.89,904.551 1784.39,905.251 1784.39,905.851 L1784.39,911.651 C1784.39,912.451 1784.99,913.051 1785.79,913.051 L1786.09,913.051 L1789.39,912.351 L1789.39,927.251 L1792.19,927.251 L1792.19,911.751 L1801.09,909.951 L1801.09,924.051 L1803.89,924.051 L1803.89,909.351 L1807.69,908.651 C1808.29,908.551 1808.79,907.851 1808.79,907.251 L1808.79,901.351 C1808.79,900.551 1808.19,899.951 1807.39,899.951 L1807.19,899.951 L1803.89,900.651 L1803.89,884.151 L1807.69,883.451 M1792.19,903.151 L1792.19,886.551 L1801.09,884.751 L1801.09,901.251 L1792.19,903.151 "/>
<path class="Accidental" d="M2267.77,920.953 C2268.37,920.853 2268.87,920.153 2268.87,919.553 L2268.87,913.653 C2268.87,912.853 2268.27,912.253 2267.47,912.253 L2267.27,912.253 L2263.97,912.953 L2263.97,898.053 L2261.17,898.053 L2261.17,913.553 L2252.27,915.353 L2252.27,901.253 L2249.47,901.253 L2249.47,915.953 L2245.57,916.753 C2244.97,916.853 2244.47,917.553 2244.47,918.153 L2244.47,918.353 L2244.47,924.153 L2244.47,923.953 C2244.47,924.753 2245.07,925.353 2245.87,925.353 L2246.17,925.353 L2249.47,924.653 L2249.47,941.153 L2245.57,941.953 C2244.97,942.053 2244.47,942.753 2244.47,943.353 L2244.47,949.153 C2244.47,949.953 2245.07,950.553 2245.87,950.553 L2246.17,950.553 L2249.47,949.853 L2249.47,964.753 L2252.27,964.753 L2252.27,949.253 L2261.17,947.453 L2261.17,961.553 L2263.97,961.553 L2263.97,946.853 L2267.77,946.153 C2268.37,946.053 2268.87,945.353 2268.87,944.753 L2268.87,938.853 C2268.87,938.053 2268.27,937.453 2267.47,937.453 L2267.27,937.453 L2263.97,938.153 L2263.97,921.653 L2267.77,920.953 M2252.27,940.653 L2252.27,924.053 L2261.17,922.253 L2261.17,938.753 L2252.27,940.653 "/>
<path class="Accidental" d="M2394.86,933.454 C2395.46,933.354 2395.96,932.654 2395.96,932.054 L2395.96,926.154 C2395.96,925.354 2395.36,924.754 2394.56,924.754 L2394.36,924.754 L2391.06,925.454 L2391.06,910.554 L2388.26,910.554 L2388.26,926.054 L2379.36,927.854 L2379.36,913.754 L2376.56,913.754 L2376.56,928.454 L2372.66,929.254 C2372.06,929.354 2371.56,930.054 2371.56,930.654 L2371.56,930.854 L2371.56,936.654 L2371.56,936.454 C2371.56,937.254 2372.16,937.854 2372.96,937.854 L2373.26,937.854 L2376.56,937.154 L2376.56,953.654 L2372.66,954.454 C2372.06,954.554 2371.56,955.254 2371.56,955.854 L2371.56,961.654 C2371.56,962.454 2372.16,963.054 2372.96,963.054 L2373.26,963.054 L2376.56,962.354 L2376.56,977.254 L2379.36,977.254 L2379.36,961.754 L2388.26,959.954 L2388.26,974.054 L2391.06,974.054 L2391.06,959.354 L2394.86,958.654 C2395.46,958.554 2395.96,957.854 2395.96,957.254 L2395.96,951.354 C2395.96,950.554 2395.36,949.954 2394.56,949.954 L2394.36,949.954 L2391.06,950.654 L2391.06,934.154 L2394.86,933.454 M2379.36,953.154 L2379.36,936.554 L2388.26,934.754 L2388.26,951.254 L2379.36,953.154 "/>
<path class="Accidental" d="M583.747,733.442 C584.347,733.342 584.847,732.642 584.847,732.042 L584.847,726.142 C584.847,725.342 584.247,724.742 583.447,724.742 L583.247,724.742 L579.947,725.442 L579.947,710.542 L577.147,710.542 L577.147,726.042 L568.247,727.842 L568.247,713.742 L565.447,713.742 L565.447,728.442 L561.547,729.242 C560.947,729.342 560.447,730.042 560.447,730.642 L560.447,730.842 L560.447,736.642 L560.447,736.442 C560.447,737.242 561.047,737.842 561.847,737.842 L562.147,737.842 L565.447,737.142 L565.447,753.642 L561.547,754.442 C560.947,754.542 560.447,755.242 560.447,755.842 L560.447,761.642 C560.447,762.442 561.047,763.042 561.847,763.042 L562.147,763.042 L565.447,762.342 L565.447,777.242 L568.247,777.242 L568.247,761.742 L577.147,759.942 L577.147,774.042 L579.947,774.042 L579.947,759.342 L583.747,758.642 C584.347,758.542 584.847,757.842 584.847,757.242 L584.847,751.342 C584.847,750.542 584.247,749.942 583.447,749.942 L583.247,749.942 L579.947,750.642 L579.947,734.142 L583.747,733.442 M568.247,753.142 L568.247,736.542 L577.147,734.742 L577.147,751.242 L568.247,753.142 "/>
<path class="Accidental" d="M719.842,720.941 C720.442,720.841 720.942,720.141 720.942,719.541 L720.942,713.641 C720.942,712.841 720.342,712.241 719.542,712.241 L719.342,712.241 L716.042,712.941 L716.042,698.041 L713.242,698.041 L713.242,713.541 L704.342,715.341 L704.342,701.241 L701.542,701.241 L701.542,715.941 L697.642,716.741 C697.042,716.841 696.542,717.541 696.542,718.141 L696.542,718.341 L696.542,724.141 L696.542,723.941 C696.542,724.741 697.142,725.341 697.942,725.341 L698.242,725.341 L701.542,724.641 L701.542,741.141 L697.642,741.941 C697.042,742.041 696.542,742.741 696.542,743.341 L696.542,749.141 C696.542,749.941 697.142,750.541 697.942,750.541 L698.242,750.541 L701.542,749.841 L701.542,764.741 L704.342,764.741 L704.342,749.241 L713.242,747.441 L713.242,761.541 L716.042,761.541 L716.042,746.841 L719.842,746.141 C720.442,746.041 720.942,745.341 720.942,744.741 L720.942,738.841 C720.942,738.041 720.342,737.441 719.542,737.441 L719.342,737.441 L716.042,738.141 L716.042,721.641 L719.842,720.941 M704.342,740.641 L704.342,724.041 L713.242,722.241 L713.242,738.741 L704.342,740.641 "/>
<path class="Accidental" d="M1176.61,683.438 C1177.21,683.338 1177.71,682.638 1177.71,682.038 L1177.71,676.138 C1177.71,675.338 1177.11,674.738 1176.31,674.738 L1176.11,674.738 L1172.81,675.438 L1172.81,660.538 L1170.01,660.538 L1170.01,676.038 L1161.11,677.838 L1161.11,663.738 L1158.31,663.738 L1158.31,678.438 L1154.41,679.238 C1153.81,679.338 1153.31,680.038 1153.31,680.638 L1153.31,680.838 L1153.31,686.638 L1153.31,686.438 C1153.31,687.238 1153.91,687.838 1154.71,687.838 L1155.01,687.838 L1158.31,687.138 L1158.31,703.638 L1154.41,704.438 C1153.81,704.538 1153.31,705.238 1153.31,705.838 L1153.31,711.638 C1153.31,712.438 1153.91,713.038 1154.71,713.038 L1155.01,713.038 L1158.31,712.338 L1158.31,727.238 L1161.11,727.238 L1161.11,711.738 L1170.01,709.938 L1170.01,724.038 L1172.81,724.038 L1172.81,709.338 L1176.61,708.638 C1177.21,708.538 1177.71,707.838 1177.71,707.238 L1177.71,701.338 C1177.71,700.538 1177.11,699.938 1176.31,699.938 L1176.11,699.938 L1172.81,700.638 L1172.81,684.138 L1176.61,683.438 M1161.11,703.138 L1161.11,686.538 L1170.01,684.738 L1170.01,701.238 L1161.11,703.138 "/>
<path class="Accidental" d="M1324.18,670.938 C1324.78,670.838 1325.28,670.138 1325.28,669.538 L1325.28,663.638 C1325.28,662.838 1324.68,662.238 1323.88,662.238 L1323.68,662.238 L1320.38,662.938 L1320.38,648.038 L1317.58,648.038 L1317.58,663.538 L1308.68,665.338 L1308.68,651.238 L1305.88,651.238 L1305.88,665.938 L1301.98,666.738 C1301.38,666.838 1300.88,667.538 1300.88,668.138 L1300.88,668.338 L1300.88,674.138 L1300.88,673.938 C1300.88,674.738 1301.48,675.338 1302.28,675.338 L1302.58,675.338 L1305.88,674.638 L1305.88,691.138 L1301.98,691.938 C1301.38,692.038 1300.88,692.738 1300.88,693.338 L1300.88,699.138 C1300.88,699.938 1301.48,700.538 1302.28,700.538 L1302.58,700.538 L1305.88,699.838 L1305.88,714.738 L1308.68,714.738 L1308.68,699.238 L1317.58,697.438 L1317.58,711.538 L1320.38,711.538 L1320.38,696.838 L1324.18,696.138 C1324.78,696.038 1325.28,695.338 1325.28,694.738 L1325.28,688.838 C1325.28,688.038 1324.68,687.438 1323.88,687.438 L1323.68,687.438 L1320.38,688.138 L1320.38,671.638 L1324.18,670.938 M1308.68,690.638 L1308.68,674.038 L1317.58,672.238 L1317.58,688.738 L1308.68,690.638 "/>
<path class="Accidental" d="M1684.97,670.938 C1685.57,670.838 1686.07,670.138 1686.07,669.538 L1686.07,663.638 C1686.07,662.838 1685.47,662.238 1684.67,662.238 L1684.47,662.238 L1681.17,662.938 L1681.17,648.038 L1678.37,648.038 L1678.37,663.538 L1669.47,665.338 L1669.47,651.238 L1666.67,651.238 L1666.67,665.938 L1662.77,666.738 C1662.17,666.838 1661.67,667.538 1661.67,668.138 L1661.67,668.338 L1661.67,674.138 L1661.67,673.938 C1661.67,674.738 1662.27,675.338 1663.07,675.338 L1663.37,675.338 L1666.67,674.638 L1666.67,691.138 L1662.77,691.938 C1662.17,692.038 1661.67,692.738 1661.67,693.338 L1661.67,699.138 C1661.67,699.938 1662.27,700.538 1663.07,700.538 L1663.37,700.538 L1666.67,699.838 L1666.67,714.738 L1669.47,714.738 L1669.47,699.238 L1678.37,697.438 L1678.37,711.538 L1681.17,711.538 L1681.17,696.838 L1684.97,696.138 C1685.57,696.038 1686.07,695.338 1686.07,694.738 L1686.07,688.838 C1686.07,688.038 1685.47,687.438 1684.67,687.438 L1684.47,687.438 L1681.17,688.138 L1681.17,671.638 L1684.97,670.938 M1669.47,690.638 L1669.47,674.038 L1678.37,672.238 L1678.37,688.738 L1669.47,690.638 "/>
<path class="Accidental" d="M1816.45,683.438 C1817.05,683.338 1817.55,682.638 1817.55,682.038 L1817.55,676.138 C1817.55,675.338 1816.95,674.738 1816.15,674.738 L1815.95,674.738 L1812.65,675.438 L1812.65,660.538 L1809.85,660.538 L1809.85,676.038 L1800.95,677.838 L1800.95,663.738 L1798.15,663.738 L1798.15,678.438 L1794.25,679.238 C1793.65,679.338 1793.15,680.038 1793.15,680.638 L1793.15,680.838 L1793.15,686.638 L1793.15,686.438 C1793.15,687.238 1793.75,687.838 1794.55,687.838 L1794.85,687.838 L1798.15,687.138 L1798.15,703.638 L1794.25,704.438 C1793.65,704.538 1793.15,705.238 1793.15,705.838 L1793.15,711.638 C1793.15,712.438 1793.75,713.038 1794.55,713.038 L1794.85,713.038 L1798.15,712.338 L1798.15,727.238 L1800.95,727.238 L1800.95,711.738 L1809.85,709.938 L1809.85,724.038 L1812.65,724.038 L1812.65,709.338 L1816.45,708.638 C1817.05,708.538 1817.55,707.838 1817.55,707.238 L1817.55,701.338 C1817.55,700.538 1816.95,699.938 1816.15,699.938 L1815.95,699.938 L1812.65,700.638 L1812.65,684.138 L1816.45,683.438 M1800.95,703.138 L1800.95,686.538 L1809.85,684.738 L1809.85,701.238 L1800.95,703.138 "/>
<path class="Accidental" d="M2267.77,720.941 C2268.37,720.841 2268.87,720.141 2268.87,719.541 L2268.87,713.641 C2268.87,712.841 2268.27,712.241 2267.47,712.241 L2267.27,712.241 L2263.97,712.941 L2263.97,698.041 L2261.17,698.041 L2261.17,713.541 L2252.27,715.341 L2252.27,701.241 L2249.47,701.241 L2249.47,715.941 L2245.57,716.741 C2244.97,716.841 2244.47,717.541 2244.47,718.141 L2244.47,718.341 L2244.47,724.141 L2244.47,723.941 C2244.47,724.741 2245.07,725.341 2245.87,725.341 L2246.17,725.341 L2249.47,724.641 L2249.47,741.141 L2245.57,741.941 C2244.97,742.041 2244.47,742.741 2244.47,743.341 L2244.47,749.141 C2244.47,749.941 2245.07,750.541 2245.87,750.541 L2246.17,750.541 L2249.47,749.841 L2249.47,764.741 L2252.27,764.741 L2252.27,749.241 L2261.17,747.441 L2261.17,761.541 L2263.97,761.541 L2263.97,746.841 L2267.77,746.141 C2268.37,746.041 2268.87,745.341 2268.87,744.741 L2268.87,738.841 C2268.87,738.041 2268.27,737.441 2267.47,737.441 L2267.27,737.441 L2263.97,738.141 L2263.97,721.641 L2267.77,720.941 M2252.27,740.641 L2252.27,724.041 L2261.17,722.241 L2261.17,738.741 L2252.27,740.641 "/>
<path class="Accidental" d="M2394.86,733.442 C2395.46,733.342 2395.96,732.642 2395.96,732.042 L2395.96,726.142 C2395.96,725.342 2395.36,724.742 2394.56,724.742 L2394.36,724.742 L2391.06,725.442 L2391.06,710.542 L2388.26,710.542 L2388.26,726.042 L2379.36,727.842 L2379.36,713.742 L2376.56,713.742 L2376.56,728.442 L2372.66,729.242 C2372.06,729.342 2371.56,730.042 2371.56,730.642 L2371.56,730.842 L2371.56,736.642 L2371.56,736.442 C2371.56,737.242 2372.16,737.842 2372.96,737.842 L2373.26,737.842 L2376.56,737.142 L2376.56,753.642 L2372.66,754.442 C2372.06,754.542 2371.56,755.242 2371.56,755.842 L2371.56,761.642 C2371.56,762.442 2372.16,763.042 2372.96,763.042 L2373.26,763.042 L2376.56,762.342 L2376.56,777.242 L2379.36,777.242 L2379.36,761.742 L2388.26,759.942 L2388.26,774.042 L2391.06,774.042 L2391.06,759.342 L2394.86,758.642 C2395.46,758.542 2395.96,757.842 2395.96,757.242 L2395.96,751.342 C2395.96,750.542 2395.36,749.942 2394.56,749.942 L2394.36,749.942 L2391.06,750.642 L2391.06,734.142 L2394.86,733.442 M2379.36,753.142 L2379.36,736.542 L2388.26,734.742 L2388.26,751.242 L2379.36,753.142 "/>
<polyline class="LedgerLine" fill="none" stroke="#000000" stroke-width="4.00" stroke-linejoin="bevel" points="1175.2,894.051 1225.2,894.051"/>
<polyline class="LedgerLine" fill="none" stroke="#000000" stroke-width="4.00" stroke-linejoin="bevel" points="1322.78,894.051 1372.77,894.051"/>
<polyline class="LedgerLine" fill="none" stroke="#000000" stroke-width="4.00" stroke-linejoin="bevel" points="1470.35,894.051 1520.34,894.051"/>
<polyline class="LedgerLine" fill="none" stroke="#000000" stroke-width="4.00" stroke-linejoin="bevel" points="1470.35,869.049 1520.34,869.049"/>
<polyline class="LedgerLine" fill="none" stroke="#000000" stroke-width="4.00" stroke-linejoin="bevel" points="1683.57,894.051 1733.57,894.051"/>
<polyline class="LedgerLine" fill="none" stroke="#000000" stroke-width="4.00" stroke-linejoin="bevel" points="1815.05,894.051 1865.04,894.051"/>
<polyline class="Stem" fill="none" stroke="#000000" stroke-width="2.75" stroke-linejoin="bevel" points="456.377,960.075 456.377,1037.81"/>
<polyline class="Stem" fill="none" stroke="#000000" stroke-width="2.75" stroke-linejoin="bevel" points="592.472,947.574 592.472,1028.43"/>
<polyline class="Stem" fill="none" stroke="#000000" stroke-width="2.75" stroke-linejoin="bevel" points="728.567,935.074 728.567,1019.06"/>
<polyline class="Stem" fill="none" stroke="#000000" stroke-width="2.75" stroke-linejoin="bevel" points="864.663,922.573 864.663,1006.56"/>
<polyline class="Stem" fill="none" stroke="#000000" stroke-width="2.75" stroke-linejoin="bevel" points="1037.76,910.072 1037.76,994.057"/>
<polyline class="Stem" fill="none" stroke="#000000" stroke-width="2.75" stroke-linejoin="bevel" points="1185.33,897.571 1185.33,981.556"/>
<polyline class="Stem" fill="none" stroke="#000000" stroke-width="2.75" stroke-linejoin="bevel" points="1332.9,885.07 1332.9,969.056"/>
<polyline class="Stem" fill="none" stroke="#000000" stroke-width="2.75" stroke-linejoin="bevel" points="1480.47,872.57 1480.47,969.056"/>
<polyline class="Stem" fill="none" stroke="#000000" stroke-width="2.75" stroke-linejoin="bevel" points="1693.7,885.07 1693.7,969.056"/>
<polyline class="Stem" fill="none" stroke="#000000" stroke-width="2.75" stroke-linejoin="bevel" points="1825.17,897.571 1825.17,981.556"/>
<polyline class="Stem" fill="none" stroke="#000000" stroke-width="2.75" stroke-linejoin="bevel" points="1956.65,910.072 1956.65,994.057"/>
<polyline class="Stem" fill="none" stroke="#000000" stroke-width="2.75" stroke-linejoin="bevel" points="2088.12,922.573 2088.12,1006.56"/>
<polyline class="Stem" fill="none" stroke="#000000" stroke-width="2.75" stroke-linejoin="bevel" points="2276.5,935.074 2276.5,1019.06"/>
<polyline class="Stem" fill="none" stroke="#000000" stroke-width="2.75" stroke-linejoin="bevel" points="2403.58,947.574 2403.58,1028.43"/>
<polyline class="Stem" fill="none" stroke="#000000" stroke-width="2.75" stroke-linejoin="bevel" points="2530.67,959.995 2530.67,1037.81"/>
<polyline class="Stem" fill="none" stroke="#000000" stroke-width="2.75" stroke-linejoin="bevel" points="486.121,753.182 486.121,669.037"/>
<polyline class="Stem" fill="none" stroke="#000000" stroke-width="2.75" stroke-linejoin="bevel" points="622.216,740.681 622.216,656.536"/>
<polyline class="Stem" fill="none" stroke="#000000" stroke-width="2.75" stroke-linejoin="bevel" points="758.312,728.181 758.312,647.16"/>
<polyline class="Stem" fill="none" stroke="#000000" stroke-width="2.75" stroke-linejoin="bevel" points="894.407,715.68 894.407,637.785"/>
<polyline class="Stem" fill="none" stroke="#000000" stroke-width="2.75" stroke-linejoin="bevel" points="1037.76,710.059 1037.76,784.669"/>
<polyline class="Stem" fill="none" stroke="#000000" stroke-width="2.75" stroke-linejoin="bevel" points="1185.33,697.559 1185.33,775.293"/>
<polyline class="Stem" fill="none" stroke="#000000" stroke-width="2.75" stroke-linejoin="bevel" points="1332.9,685.058 1332.9,765.918"/>
<polyline class="Stem" fill="none" stroke="#000000" stroke-width="2.75" stroke-linejoin="bevel" points="1480.47,672.557 1480.47,756.542"/>
<polyline class="Stem" fill="none" stroke="#000000" stroke-width="2.75" stroke-linejoin="bevel" points="1693.7,685.058 1693.7,765.918"/>
<polyline class="Stem" fill="none" stroke="#000000" stroke-width="2.75" stroke-linejoin="bevel" points="1825.17,697.559 1825.17,775.293"/>
<polyline class="Stem" fill="none" stroke="#000000" stroke-width="2.75" stroke-linejoin="bevel" points="1956.65,710.059 1956.65,784.669"/>
<polyline class="Stem" fill="none" stroke="#000000" stroke-width="2.75" stroke-linejoin="bevel" points="2117.87,715.68 2117.87,637.785"/>
<polyline class="Stem" fill="none" stroke="#000000" stroke-width="2.75" stroke-linejoin="bevel" points="2306.24,728.181 2306.24,647.16"/>
<polyline class="Stem" fill="none" stroke="#000000" stroke-width="2.75" stroke-linejoin="bevel" points="2433.33,740.681 2433.33,656.536"/>
<polyline class="Stem" fill="none" stroke="#000000" stroke-width="2.75" stroke-linejoin="bevel" points="2560.41,753.102 2560.41,669.037"/>
<path class="Note" d="M486.502,948.355 C485.002,945.655 482.102,943.955 478.202,943.555 C477.602,943.455 477.102,943.455 476.502,943.455 C473.002,943.455 469.202,944.455 465.702,946.355 C459.102,949.955 455.002,955.855 455.002,960.955 C455.002,962.355 455.202,963.655 455.902,964.855 C457.402,967.555 460.402,969.255 464.302,969.655 C464.902,969.755 465.402,969.755 466.002,969.755 C469.502,969.755 473.202,968.755 476.702,966.855 C483.302,963.255 487.502,957.455 487.502,952.355 C487.502,950.955 487.202,949.555 486.502,948.355"/>
<path class="Note" d="M622.597,935.854 C621.097,933.154 618.197,931.454 614.297,931.054 C613.697,930.954 613.197,930.954 612.597,930.954 C609.097,930.954 605.297,931.954 601.797,933.854 C595.197,937.454 591.097,943.354 591.097,948.454 C591.097,949.854 591.297,951.154 591.997,952.354 C593.497,955.054 596.497,956.754 600.397,957.154 C600.997,957.254 601.497,957.254 602.097,957.254 C605.597,957.254 609.297,956.254 612.797,954.354 C619.397,950.754 623.597,944.954 623.597,939.854 C623.597,938.454 623.297,937.054 622.597,935.854"/>
<path class="Note" d="M758.692,923.353 C757.192,920.653 754.292,918.953 750.392,918.553 C749.792,918.453 749.292,918.453 748.692,918.453 C745.192,918.453 741.392,919.453 737.892,921.353 C731.292,924.953 727.192,930.853 727.192,935.953 C727.192,937.353 727.392,938.653 728.092,939.853 C729.592,942.553 732.592,944.253 736.492,944.653 C737.092,944.753 737.592,944.753 738.192,944.753 C741.692,944.753 745.392,943.753 748.892,941.853 C755.492,938.253 759.692,932.453 759.692,927.353 C759.692,925.953 759.392,924.553 758.692,923.353"/>
<path class="Note" d="M894.787,910.853 C893.287,908.153 890.387,906.453 886.487,906.053 C885.887,905.953 885.387,905.953 884.787,905.953 C881.287,905.953 877.487,906.953 873.987,908.853 C867.387,912.453 863.287,918.353 863.287,923.453 C863.287,924.853 863.487,926.153 864.187,927.353 C865.687,930.053 868.687,931.753 872.587,932.153 C873.187,932.253 873.687,932.253 874.287,932.253 C877.787,932.253 881.487,931.253 884.987,929.353 C891.587,925.753 895.787,919.953 895.787,914.853 C895.787,913.453 895.487,912.053 894.787,910.853"/>
<path class="Note" d="M1067.88,898.352 C1066.38,895.652 1063.48,893.952 1059.58,893.552 C1058.98,893.452 1058.48,893.452 1057.88,893.452 C1054.38,893.452 1050.58,894.452 1047.08,896.352 C1040.48,899.952 1036.38,905.852 1036.38,910.952 C1036.38,912.352 1036.58,913.652 1037.28,914.852 C1038.78,917.552 1041.78,919.252 1045.68,919.652 C1046.28,919.752 1046.78,919.752 1047.38,919.752 C1050.88,919.752 1054.58,918.752 1058.08,916.852 C1064.68,913.252 1068.88,907.452 1068.88,902.352 C1068.88,900.952 1068.58,899.552 1067.88,898.352"/>
<path class="Note" d="M1215.46,885.851 C1213.96,883.151 1211.06,881.451 1207.16,881.051 C1206.56,880.951 1206.06,880.951 1205.46,880.951 C1201.96,880.951 1198.16,881.951 1194.66,883.851 C1188.06,887.451 1183.96,893.351 1183.96,898.451 C1183.96,899.851 1184.16,901.151 1184.86,902.351 C1186.36,905.051 1189.36,906.751 1193.26,907.151 C1193.86,907.251 1194.36,907.251 1194.96,907.251 C1198.46,907.251 1202.16,906.251 1205.66,904.351 C1212.26,900.751 1216.46,894.951 1216.46,889.851 C1216.46,888.451 1216.16,887.051 1215.46,885.851"/>
<path class="Note" d="M1363.03,873.35 C1361.53,870.65 1358.63,868.95 1354.73,868.55 C1354.13,868.45 1353.63,868.45 1353.03,868.45 C1349.53,868.45 1345.73,869.45 1342.23,871.35 C1335.63,874.95 1331.53,880.85 1331.53,885.95 C1331.53,887.35 1331.73,888.65 1332.43,889.85 C1333.93,892.55 1336.93,894.25 1340.83,894.65 C1341.43,894.75 1341.93,894.75 1342.53,894.75 C1346.03,894.75 1349.73,893.75 1353.23,891.85 C1359.83,888.25 1364.03,882.45 1364.03,877.35 C1364.03,875.95 1363.73,874.55 1363.03,873.35"/>
<path class="Note" d="M1510.6,860.849 C1509.1,858.149 1506.2,856.449 1502.3,856.049 C1501.7,855.949 1501.2,855.949 1500.6,855.949 C1497.1,855.949 1493.3,856.949 1489.8,858.849 C1483.2,862.449 1479.1,868.349 1479.1,873.449 C1479.1,874.849 1479.3,876.149 1480,877.349 C1481.5,880.049 1484.5,881.749 1488.4,882.149 C1489,882.249 1489.5,882.249 1490.1,882.249 C1493.6,882.249 1497.3,881.249 1500.8,879.349 C1507.4,875.749 1511.6,869.949 1511.6,864.849 C1511.6,863.449 1511.3,862.049 1510.6,860.849"/>
<path class="Note" d="M1723.82,873.35 C1722.32,870.65 1719.42,868.95 1715.52,868.55 C1714.92,868.45 1714.42,868.45 1713.82,868.45 C1710.32,868.45 1706.52,869.45 1703.02,871.35 C1696.42,874.95 1692.32,880.85 1692.32,885.95 C1692.32,887.35 1692.52,888.65 1693.22,889.85 C1694.72,892.55 1697.72,894.25 1701.62,894.65 C1702.22,894.75 1702.72,894.75 1703.32,894.75 C1706.82,894.75 1710.52,893.75 1714.02,891.85 C1720.62,888.25 1724.82,882.45 1724.82,877.35 C1724.82,875.95 1724.52,874.55 1723.82,873.35"/>
<path class="Note" d="M1855.3,885.851 C1853.8,883.151 1850.9,881.451 1847,881.051 C1846.4,880.951 1845.9,880.951 1845.3,880.951 C1841.8,880.951 1838,881.951 1834.5,883.851 C1827.9,887.451 1823.8,893.351 1823.8,898.451 C1823.8,899.851 1824,901.151 1824.7,902.351 C1826.2,905.051 1829.2,906.751 1833.1,907.151 C1833.7,907.251 1834.2,907.251 1834.8,907.251 C1838.3,907.251 1842,906.251 1845.5,904.351 C1852.1,900.751 1856.3,894.951 1856.3,889.851 C1856.3,888.451 1856,887.051 1855.3,885.851"/>
<path class="Note" d="M1986.77,898.352 C1985.27,895.652 1982.37,893.952 1978.47,893.552 C1977.87,893.452 1977.37,893.452 1976.77,893.452 C1973.27,893.452 1969.47,894.452 1965.97,896.352 C1959.37,899.952 1955.27,905.852 1955.27,910.952 C1955.27,912.352 1955.47,913.652 1956.17,914.852 C1957.67,917.552 1960.67,919.252 1964.57,919.652 C1965.17,919.752 1965.67,919.752 1966.27,919.752 C1969.77,919.752 1973.47,918.752 1976.97,916.852 C1983.57,913.252 1987.77,907.452 1987.77,902.352 C1987.77,900.952 1987.47,899.552 1986.77,898.352"/>
<path class="Note" d="M2118.25,910.853 C2116.75,908.153 2113.85,906.453 2109.95,906.053 C2109.35,905.953 2108.85,905.953 2108.25,905.953 C2104.75,905.953 2100.95,906.953 2097.45,908.853 C2090.85,912.453 2086.75,918.353 2086.75,923.453 C2086.75,924.853 2086.95,926.153 2087.65,927.353 C2089.15,930.053 2092.15,931.753 2096.05,932.153 C2096.65,932.253 2097.15,932.253 2097.75,932.253 C2101.25,932.253 2104.95,931.253 2108.45,929.353 C2115.05,925.753 2119.25,919.953 2119.25,914.853 C2119.25,913.453 2118.95,912.053 2118.25,910.853"/>
<path class="Note" d="M2306.62,923.353 C2305.12,920.653 2302.22,918.953 2298.32,918.553 C2297.72,918.453 2297.22,918.453 2296.62,918.453 C2293.12,918.453 2289.32,919.453 2285.82,921.353 C2279.22,924.953 2275.12,930.853 2275.12,935.953 C2275.12,937.353 2275.32,938.653 2276.02,939.853 C2277.52,942.553 2280.52,944.253 2284.42,944.653 C2285.02,944.753 2285.52,944.753 2286.12,944.753 C2289.62,944.753 2293.32,943.753 2296.82,941.853 C2303.42,938.253 2307.62,932.453 2307.62,927.353 C2307.62,925.953 2307.32,924.553 2306.62,923.353"/>
<path class="Note" d="M2433.71,935.854 C2432.21,933.154 2429.31,931.454 2425.41,931.054 C2424.81,930.954 2424.31,930.954 2423.71,930.954 C2420.21,930.954 2416.41,931.954 2412.91,933.854 C2406.31,937.454 2402.21,943.354 2402.21,948.454 C2402.21,949.854 2402.41,951.154 2403.11,952.354 C2404.61,955.054 2407.61,956.754 2411.51,957.154 C2412.11,957.254 2412.61,957.254 2413.21,957.254 C2416.71,957.254 2420.41,956.254 2423.91,954.354 C2430.51,950.754 2434.71,944.954 2434.71,939.854 C2434.71,938.454 2434.41,937.054 2433.71,935.854"/>
<path class="Note" d="M2560.79,948.355 C2559.29,945.655 2556.39,943.955 2552.49,943.555 C2551.89,943.455 2551.39,943.455 2550.79,943.455 C2547.29,943.455 2543.49,944.455 2539.99,946.355 C2533.39,949.955 2529.29,955.755 2529.29,960.855 C2529.29,962.255 2529.69,963.655 2530.39,964.855 C2531.89,967.655 2534.69,969.255 2538.59,969.655 C2539.19,969.755 2539.69,969.755 2540.29,969.755 C2543.79,969.755 2547.59,968.755 2551.09,966.855 C2557.69,963.255 2561.79,957.355 2561.79,952.255 C2561.79,950.855 2561.49,949.555 2560.79,948.355 M2556.59,954.655 C2554.89,956.455 2551.69,958.755 2548.09,960.855 C2544.49,962.955 2540.79,964.655 2538.49,965.355 C2537.99,965.455 2537.39,965.555 2536.89,965.555 C2535.39,965.555 2534.09,964.855 2533.39,963.755 C2533.09,963.155 2532.89,962.555 2532.89,961.955 C2532.89,960.855 2533.39,959.755 2534.49,958.555 C2536.19,956.755 2539.39,954.355 2542.99,952.255 C2546.59,950.155 2550.29,948.455 2552.69,947.855 L2552.89,947.855 C2553.49,947.655 2553.99,947.555 2554.49,947.555 C2555.89,947.555 2556.99,948.155 2557.69,949.455 C2557.99,950.055 2558.19,950.555 2558.19,951.155 C2558.19,952.455 2557.49,953.755 2556.59,954.655"/>
<path class="Note" d="M486.502,748.342 C485.002,745.642 482.102,743.942 478.202,743.542 C477.602,743.442 477.102,743.442 476.502,743.442 C473.002,743.442 469.202,744.442 465.702,746.342 C459.102,749.942 455.002,755.842 455.002,760.942 C455.002,762.342 455.202,763.642 455.902,764.842 C457.402,767.542 460.402,769.242 464.302,769.642 C464.902,769.742 465.402,769.742 466.002,769.742 C469.502,769.742 473.202,768.742 476.702,766.842 C483.302,763.242 487.502,757.442 487.502,752.342 C487.502,750.942 487.202,749.542 486.502,748.342"/>
<path class="Note" d="M622.597,735.842 C621.097,733.142 618.197,731.442 614.297,731.042 C613.697,730.942 613.197,730.942 612.597,730.942 C609.097,730.942 605.297,731.942 601.797,733.842 C595.197,737.442 591.097,743.342 591.097,748.442 C591.097,749.842 591.297,751.142 591.997,752.342 C593.497,755.042 596.497,756.742 600.397,757.142 C600.997,757.242 601.497,757.242 602.097,757.242 C605.597,757.242 609.297,756.242 612.797,754.342 C619.397,750.742 623.597,744.942 623.597,739.842 C623.597,738.442 623.297,737.042 622.597,735.842"/>
<path class="Note" d="M758.692,723.341 C757.192,720.641 754.292,718.941 750.392,718.541 C749.792,718.441 749.292,718.441 748.692,718.441 C745.192,718.441 741.392,719.441 737.892,721.341 C731.292,724.941 727.192,730.841 727.192,735.941 C727.192,737.341 727.392,738.641 728.092,739.841 C729.592,742.541 732.592,744.241 736.492,744.641 C737.092,744.741 737.592,744.741 738.192,744.741 C741.692,744.741 745.392,743.741 748.892,741.841 C755.492,738.241 759.692,732.441 759.692,727.341 C759.692,725.941 759.392,724.541 758.692,723.341"/>
<path class="Note" d="M894.787,710.84 C893.287,708.14 890.387,706.44 886.487,706.04 C885.887,705.94 885.387,705.94 884.787,705.94 C881.287,705.94 877.487,706.94 873.987,708.84 C867.387,712.44 863.287,718.34 863.287,723.44 C863.287,724.84 863.487,726.14 864.187,727.34 C865.687,730.04 868.687,731.74 872.587,732.14 C873.187,732.24 873.687,732.24 874.287,732.24 C877.787,732.24 881.487,731.24 884.987,729.34 C891.587,725.74 895.787,719.94 895.787,714.84 C895.787,713.44 895.487,712.04 894.787,710.84"/>
<path class="Note" d="M1067.88,698.339 C1066.38,695.639 1063.48,693.939 1059.58,693.539 C1058.98,693.439 1058.48,693.439 1057.88,693.439 C1054.38,693.439 1050.58,694.439 1047.08,696.339 C1040.48,699.939 1036.38,705.839 1036.38,710.939 C1036.38,712.339 1036.58,713.639 1037.28,714.839 C1038.78,717.539 1041.78,719.239 1045.68,719.639 C1046.28,719.739 1046.78,719.739 1047.38,719.739 C1050.88,719.739 1054.58,718.739 1058.08,716.839 C1064.68,713.239 1068.88,707.439 1068.88,702.339 C1068.88,700.939 1068.58,699.539 1067.88,698.339"/>
<path class="Note" d="M1215.46,685.838 C1213.96,683.138 1211.06,681.438 1207.16,681.038 C1206.56,680.938 1206.06,680.938 1205.46,680.938 C1201.96,680.938 1198.16,681.938 1194.66,683.838 C1188.06,687.438 1183.96,693.338 1183.96,698.438 C1183.96,699.838 1184.16,701.138 1184.86,702.338 C1186.36,705.038 1189.36,706.738 1193.26,707.138 C1193.86,707.238 1194.36,707.238 1194.96,707.238 C1198.46,707.238 1202.16,706.238 1205.66,704.338 C1212.26,700.738 1216.46,694.938 1216.46,689.838 C1216.46,688.438 1216.16,687.038 1215.46,685.838"/>
<path class="Note" d="M1363.03,673.338 C1361.53,670.638 1358.63,668.938 1354.73,668.538 C1354.13,668.438 1353.63,668.438 1353.03,668.438 C1349.53,668.438 1345.73,669.438 1342.23,671.338 C1335.63,674.938 1331.53,680.838 1331.53,685.938 C1331.53,687.338 1331.73,688.638 1332.43,689.838 C1333.93,692.538 1336.93,694.238 1340.83,694.638 C1341.43,694.738 1341.93,694.738 1342.53,694.738 C1346.03,694.738 1349.73,693.738 1353.23,691.838 C1359.83,688.238 1364.03,682.438 1364.03,677.338 C1364.03,675.938 1363.73,674.538 1363.03,673.338"/>
<path class="Note" d="M1510.6,660.837 C1509.1,658.137 1506.2,656.437 1502.3,656.037 C1501.7,655.937 1501.2,655.937 1500.6,655.937 C1497.1,655.937 1493.3,656.937 1489.8,658.837 C1483.2,662.437 1479.1,668.337 1479.1,673.437 C1479.1,674.837 1479.3,676.137 1480,677.337 C1481.5,680.037 1484.5,681.737 1488.4,682.137 C1489,682.237 1489.5,682.237 1490.1,682.237 C1493.6,682.237 1497.3,681.237 1500.8,679.337 C1507.4,675.737 1511.6,669.937 1511.6,664.837 C1511.6,663.437 1511.3,662.037 1510.6,660.837"/>
<path class="Note" d="M1723.82,673.338 C1722.32,670.638 1719.42,668.938 1715.52,668.538 C1714.92,668.438 1714.42,668.438 1713.82,668.438 C1710.32,668.438 1706.52,669.438 1703.02,671.338 C1696.42,674.938 1692.32,680.838 1692.32,685.938 C1692.32,687.338 1692.52,688.638 1693.22,689.838 C1694.72,692.538 1697.72,694.238 1701.62,694.638 C1702.22,694.738 1702.72,694.738 1703.32,694.738 C1706.82,694.738 1710.52,693.738 1714.02,691.838 C1720.62,688.238 1724.82,682.438 1724.82,677.338 C1724.82,675.938 1724.52,674.538 1723.82,673.338"/>
<path class="Note" d="M1855.3,685.838 C1853.8,683.138 1850.9,681.438 1847,681.038 C1846.4,680.938 1845.9,680.938 1845.3,680.938 C1841.8,680.938 1838,681.938 1834.5,683.838 C1827.9,687.438 1823.8,693.338 1823.8,698.438 C1823.8,699.838 1824,701.138 1824.7,702.338 C1826.2,705.038 1829.2,706.738 1833.1,707.138 C1833.7,707.238 1834.2,707.238 1834.8,707.238 C1838.3,707.238 1842,706.238 1845.5,704.338 C1852.1,700.738 1856.3,694.938 1856.3,689.838 C1856.3,688.438 1856,687.038 1855.3,685.838"/>
<path class="Note" d="M1986.77,698.339 C1985.27,695.639 1982.37,693.939 1978.47,693.539 C1977.87,693.439 1977.37,693.439 1976.77,693.439 C1973.27,693.439 1969.47,694.439 1965.97,696.339 C1959.37,699.939 1955.27,705.839 1955.27,710.939 C1955.27,712.339 1955.47,713.639 1956.17,714.839 C1957.67,717.539 1960.67,719.239 1964.57,719.639 C1965.17,719.739 1965.67,719.739 1966.27,719.739 C1969.77,719.739 1973.47,718.739 1976.97,716.839 C1983.57,713.239 1987.77,707.439 1987.77,702.339 C1987.77,700.939 1987.47,699.539 1986.77,698.339"/>
<path class="Note" d="M2118.25,710.84 C2116.75,708.14 2113.85,706.44 2109.95,706.04 C2109.35,705.94 2108.85,705.94 2108.25,705.94 C2104.75,705.94 2100.95,706.94 2097.45,708.84 C2090.85,712.44 2086.75,718.34 2086.75,723.44 C2086.75,724.84 2086.95,726.14 2087.65,727.34 C2089.15,730.04 2092.15,731.74 2096.05,732.14 C2096.65,732.24 2097.15,732.24 2097.75,732.24 C2101.25,732.24 2104.95,731.24 2108.45,729.34 C2115.05,725.74 2119.25,719.94 2119.25,714.84 C2119.25,713.44 2118.95,712.04 2118.25,710.84"/>
<path class="Note" d="M2306.62,723.341 C2305.12,720.641 2302.22,718.941 2298.32,718.541 C2297.72,718.441 2297.22,718.441 2296.62,718.441 C2293.12,718.441 2289.32,719.441 2285.82,721.341 C2279.22,724.941 2275.12,730.841 2275.12,735.941 C2275.12,737.341 2275.32,738.641 2276.02,739.841 C2277.52,742.541 2280.52,744.241 2284.42,744.641 C2285.02,744.741 2285.52,744.741 2286.12,744.741 C2289.62,744.741 2293.32,743.741 2296.82,741.841 C2303.42,738.241 2307.62,732.441 2307.62,727.341 C2307.62,725.941 2307.32,724.541 2306.62,723.341"/>
<path class="Note" d="M2433.71,735.842 C2432.21,733.142 2429.31,731.442 2425.41,731.042 C2424.81,730.942 2424.31,730.942 2423.71,730.942 C2420.21,730.942 2416.41,731.942 2412.91,733.842 C2406.31,737.442 2402.21,743.342 2402.21,748.442 C2402.21,749.842 2402.41,751.142 2403.11,752.342 C2404.61,755.042 2407.61,756.742 2411.51,757.142 C2412.11,757.242 2412.61,757.242 2413.21,757.242 C2416.71,757.242 2420.41,756.242 2423.91,754.342 C2430.51,750.742 2434.71,744.942 2434.71,739.842 C2434.71,738.442 2434.41,737.042 2433.71,735.842"/>
<path class="Note" d="M2560.79,748.342 C2559.29,745.642 2556.39,743.942 2552.49,743.542 C2551.89,743.442 2551.39,743.442 2550.79,743.442 C2547.29,743.442 2543.49,744.442 2539.99,746.342 C2533.39,749.942 2529.29,755.742 2529.29,760.842 C2529.29,762.242 2529.69,763.642 2530.39,764.842 C2531.89,767.642 2534.69,769.242 2538.59,769.642 C2539.19,769.742 2539.69,769.742 2540.29,769.742 C2543.79,769.742 2547.59,768.742 2551.09,766.842 C2557.69,763.242 2561.79,757.342 2561.79,752.242 C2561.79,750.842 2561.49,749.542 2560.79,748.342 M2556.59,754.642 C2554.89,756.442 2551.69,758.742 2548.09,760.842 C2544.49,762.942 2540.79,764.642 2538.49,765.342 C2537.99,765.442 2537.39,765.542 2536.89,765.542 C2535.39,765.542 2534.09,764.842 2533.39,763.742 C2533.09,763.142 2532.89,762.542 2532.89,761.942 C2532.89,760.842 2533.39,759.742 2534.49,758.542 C2536.19,756.742 2539.39,754.342 2542.99,752.242 C2546.59,750.142 2550.29,748.442 2552.69,747.842 L2552.89,747.842 C2553.49,747.642 2553.99,747.542 2554.49,747.542 C2555.89,747.542 2556.99,748.142 2557.69,749.442 C2557.99,750.042 2558.19,750.542 2558.19,751.142 C2558.19,752.442 2557.49,753.742 2556.59,754.642"/>
<path class="Clef" d="M297,918.954 C289.4,918.954 283.3,923.354 283.2,923.354 C277.4,927.654 275.1,932.754 274.2,936.254 C273.7,938.054 273.5,939.854 273.5,941.554 C273.5,943.954 273.9,946.154 274.8,948.054 C276,950.754 278.3,952.654 281.3,953.654 C282.5,954.054 283.8,954.254 285.1,954.254 C287.3,954.254 289.6,953.654 291.5,952.554 C294.6,950.854 296.5,947.254 296.5,943.354 C296.5,939.854 294.7,936.654 291.7,934.754 C289.6,933.354 287.6,932.954 285.9,932.954 C284.7,932.954 283.6,933.154 282.7,933.454 C281.7,933.854 280,934.854 279.2,935.554 C279.5,933.654 280.7,930.754 281.8,929.154 C282.9,927.554 285.1,925.554 286.8,924.654 C289.3,923.254 292.5,922.654 296,922.654 C306.2,922.654 311.2,930.854 311.2,947.654 C311.2,956.954 307.7,965.854 304.7,971.754 C301.4,978.354 297,984.654 293.1,988.154 C282.7,997.654 272.9,1002.15 272.8,1002.15 C272.8,1002.15 271.3,1003.05 271.7,1004.55 C272,1005.55 272.9,1005.75 273.5,1005.75 C273.6,1005.75 273.9,1005.65 274,1005.65 C274.1,1005.65 285.5,1000.95 294.6,993.854 C299.7,990.154 304.3,986.154 308.3,981.854 C311.9,977.954 315,973.754 317.5,969.554 C321.9,962.054 324.4,954.254 324.4,947.554 C324.4,939.254 322.2,932.354 318.1,927.454 C313.4,921.854 306.3,918.954 297,918.954 M328.4,931.654 C328.4,934.454 330.6,936.654 333.2,936.654 C335.8,936.654 338,934.454 338,931.654 C338,928.854 335.8,926.554 333.2,926.554 C330.6,926.554 328.4,928.854 328.4,931.654 M328.4,956.354 C328.4,959.154 330.6,961.454 333.2,961.454 C335.8,961.454 338,959.154 338,956.354 C338,953.554 335.8,951.254 333.2,951.254 C330.6,951.254 328.4,953.554 328.4,956.354"/>
<path class="Clef" d="M335,725.641 C333.8,720.241 331.1,716.341 330.3,715.341 C327.1,711.041 323.1,708.241 318.4,706.841 C316.1,706.141 314,705.941 312,705.941 C311.3,705.941 310.6,705.941 309.9,706.041 C308.9,700.041 307.8,694.141 306.9,688.741 C312.5,682.541 316.2,676.641 318.6,672.241 C322.2,665.541 323.6,660.841 323.7,660.641 C324.9,657.641 325.6,653.841 325.6,649.341 C325.6,646.641 325.3,643.741 324.9,640.741 C323.8,633.641 321.6,626.941 319.1,623.241 C317.8,621.341 316.6,620.241 315.4,620.241 C314.2,620.241 311.7,621.441 308.8,624.241 C306.5,626.441 303.2,630.341 300.6,636.341 C298.3,641.741 297.6,648.641 297.6,654.541 C297.6,656.341 297.7,658.041 297.8,659.641 C298,663.241 298.7,669.041 299.3,672.641 C299.3,672.741 299.6,674.241 300,676.841 L299.3,677.541 C298.3,678.541 297.1,679.641 295.7,681.041 C294.8,681.941 293.9,682.741 292.9,683.741 C284.4,691.941 271.6,704.341 271.6,723.441 C271.6,728.141 272.5,732.541 274.3,736.541 C275.9,740.141 278.2,743.441 281.1,746.341 C288.6,753.741 298.8,756.941 305.9,756.941 L306.5,756.941 C309.4,756.841 312.1,756.541 314.5,756.141 C316.3,765.741 317.5,772.841 317.5,778.141 C317.5,784.641 315.9,788.541 312,791.341 C309.6,793.041 306.7,794.141 303.6,794.241 L302.8,794.241 C301.3,794.241 298.8,793.841 297.3,793.441 C297.3,793.441 297,793.341 297,793.141 C297,792.941 297.4,792.941 297.4,792.941 C299.3,792.541 302.9,791.241 305.3,787.941 C306.4,786.441 307.1,784.141 307.1,781.641 C307.1,780.041 306.8,778.341 306.1,776.841 C305,774.441 302.4,771.441 296.8,771.041 L295.7,771.041 C293.6,771.041 291.8,771.541 290.1,772.541 C288.3,773.641 286.7,775.341 285.7,777.341 C284.6,779.341 284.1,781.541 284.1,783.741 C284.1,786.641 285,789.341 286.8,791.541 C289.8,795.141 294.5,797.441 299.9,798.041 C300.6,798.141 301.7,798.241 302.4,798.241 C306.8,798.241 311.2,797.041 314.8,794.841 C318.5,792.241 320.6,788.241 321.3,782.641 C321.5,781.341 321.5,779.941 321.5,778.441 C321.5,774.541 321,769.841 320,764.041 C319.6,761.941 319.2,758.941 318.5,755.141 C324.3,753.241 328.4,749.541 332.2,743.741 C334.5,739.741 335.6,735.641 335.6,731.341 C335.6,729.441 335.4,727.541 335,725.641 M304.8,647.741 C306.6,642.041 309.3,638.641 311.3,636.941 C313.1,635.441 314.7,634.741 315.6,634.741 C315.7,634.741 315.9,634.841 316,634.841 C316.3,634.941 316.7,635.441 317.1,636.141 C318,637.941 318.9,641.241 318.9,644.941 C318.9,646.841 318.7,648.841 318.1,650.641 C315.9,657.441 311.3,664.741 304.3,672.441 C304.1,671.341 303.9,670.341 303.8,669.341 C303.3,666.141 303,662.941 303,660.041 C303,655.541 303.6,651.441 304.8,647.741 M300.8,751.841 C296.2,750.641 291.7,748.141 287.9,744.641 C286.6,743.441 284.8,741.241 283.3,737.841 C282,734.841 281.3,731.741 281.3,728.341 L281.3,727.641 C281.4,722.941 282.7,718.141 285.2,713.341 C288.1,707.741 292.6,702.241 298.7,696.941 C300.2,695.641 301.6,694.341 302.9,693.041 C303.7,697.341 304.4,702.041 305.3,706.941 C301.4,708.241 296.7,711.241 293.6,716.941 C291.2,721.441 290.5,725.341 290.5,728.541 C290.5,730.041 290.7,731.441 290.9,732.541 C291.8,737.041 294.4,740.741 297.9,742.841 C298.7,743.341 302,745.041 304,745.041 C304.3,745.041 304.6,745.041 304.8,744.941 C305.1,744.841 305.4,744.641 305.5,744.341 C305.6,744.141 305.6,743.941 305.6,743.741 C305.6,742.941 304.8,742.341 303.5,741.541 C302.9,741.141 302.2,740.741 301.5,740.241 C298.9,738.241 297.4,735.141 297.4,731.741 C297.4,730.741 297.6,729.841 297.8,728.841 C298.3,726.841 300,724.041 301.5,722.641 C303.2,721.141 305.2,719.941 307.6,719.341 C309.6,730.541 311.7,741.641 313.3,750.041 C313.4,750.741 313.6,751.441 313.7,752.141 C311.7,752.541 309.7,752.741 307.8,752.741 C305.4,752.741 303.1,752.441 300.8,751.841 M326.5,741.641 C325.3,744.841 322.8,748.841 317.7,750.941 C317.6,750.541 317.6,750.041 317.5,749.641 C316,740.841 314.1,729.941 312.1,718.641 L313.1,718.641 C322.8,718.641 326.7,725.841 327.6,730.441 C327.8,731.341 327.9,732.541 327.9,733.841 C327.9,736.141 327.5,738.941 326.5,741.641"/>
<path class="TimeSig" d="M365.2,957.453 L382,957.453 L382,964.753 L373.9,964.753 C373.1,964.753 372.5,965.353 372.5,966.153 L372.5,968.053 C372.5,968.853 373.1,969.353 373.9,969.353 L403.6,969.353 C404.4,969.353 405,968.853 405,968.053 L405,966.153 C405,965.353 404.4,964.753 403.6,964.753 L394.8,964.753 L394.8,957.453 L403.6,957.453 C404.4,957.453 405,956.853 405,956.053 L405,954.253 C405,953.453 404.4,952.853 403.6,952.853 L394.8,952.853 L394.8,937.153 C394.8,936.653 394.4,936.153 394,935.953 L392.9,935.353 C392.7,935.253 392.4,935.253 392.2,935.253 C391.9,935.253 391.5,935.353 391.3,935.553 L382.4,943.753 C382.2,943.953 382,944.453 382,944.753 L382,952.853 L370.7,952.853 C370.7,952.853 381.6,941.053 393.2,925.553 C394,924.453 393.6,923.453 393.4,923.253 L391.3,921.053 C391.1,920.853 390.6,920.653 390.3,920.653 L375.7,920.653 C375,920.653 374.5,921.253 374.4,921.853 C374.4,921.853 373.9,929.053 371.3,937.053 C368.7,945.053 365.9,949.853 363.3,953.453 C363.3,953.453 362.8,954.453 363.1,955.153 C363.4,955.853 364.1,956.953 364.1,956.953 C364.1,956.953 364.4,957.453 365.2,957.453"/>
<path class="TimeSig" d="M365.2,1006.06 L382,1006.06 L382,1013.36 L373.9,1013.36 C373.1,1013.36 372.5,1013.96 372.5,1014.76 L372.5,1016.66 C372.5,1017.46 373.1,1017.96 373.9,1017.96 L403.6,1017.96 C404.4,1017.96 405,1017.46 405,1016.66 L405,1014.76 C405,1013.96 404.4,1013.36 403.6,1013.36 L394.8,1013.36 L394.8,1006.06 L403.6,1006.06 C404.4,1006.06 405,1005.46 405,1004.66 L405,1002.86 C405,1002.06 404.4,1001.46 403.6,1001.46 L394.8,1001.46 L394.8,985.758 C394.8,985.258 394.4,984.758 394,984.558 L392.9,983.958 C392.7,983.858 392.4,983.858 392.2,983.858 C391.9,983.858 391.5,983.958 391.3,984.158 L382.4,992.358 C382.2,992.558 382,993.058 382,993.358 L382,1001.46 L370.7,1001.46 C370.7,1001.46 381.6,989.658 393.2,974.158 C394,973.058 393.6,972.058 393.4,971.858 L391.3,969.658 C391.1,969.458 390.6,969.258 390.3,969.258 L375.7,969.258 C375,969.258 374.5,969.858 374.4,970.458 C374.4,970.458 373.9,977.658 371.3,985.658 C368.7,993.658 365.9,998.458 363.3,1002.06 C363.3,1002.06 362.8,1003.06 363.1,1003.76 C363.4,1004.46 364.1,1005.56 364.1,1005.56 C364.1,1005.56 364.4,1006.06 365.2,1006.06"/>
<path class="TimeSig" d="M365.2,694.937 L382,694.937 L382,702.237 L373.9,702.237 C373.1,702.237 372.5,702.837 372.5,703.637 L372.5,705.537 C372.5,706.337 373.1,706.837 373.9,706.837 L403.6,706.837 C404.4,706.837 405,706.337 405,705.537 L405,703.637 C405,702.837 404.4,702.237 403.6,702.237 L394.8,702.237 L394.8,694.937 L403.6,694.937 C404.4,694.937 405,694.337 405,693.537 L405,691.737 C405,690.937 404.4,690.337 403.6,690.337 L394.8,690.337 L394.8,674.637 C394.8,674.137 394.4,673.637 394,673.437 L392.9,672.837 C392.7,672.737 392.4,672.737 392.2,672.737 C391.9,672.737 391.5,672.837 391.3,673.037 L382.4,681.237 C382.2,681.437 382,681.937 382,682.237 L382,690.337 L370.7,690.337 C370.7,690.337 381.6,678.537 393.2,663.037 C394,661.937 393.6,660.937 393.4,660.737 L391.3,658.537 C391.1,658.337 390.6,658.137 390.3,658.137 L375.7,658.137 C375,658.137 374.5,658.737 374.4,659.337 C374.4,659.337 373.9,666.537 371.3,674.537 C368.7,682.537 365.9,687.337 363.3,690.937 C363.3,690.937 362.8,691.937 363.1,692.637 C363.4,693.337 364.1,694.437 364.1,694.437 C364.1,694.437 364.4,694.937 365.2,694.937"/>
<path class="TimeSig" d="M365.2,743.541 L382,743.541 L382,750.841 L373.9,750.841 C373.1,750.841 372.5,751.441 372.5,752.241 L372.5,754.141 C372.5,754.941 373.1,755.441 373.9,755.441 L403.6,755.441 C404.4,755.441 405,754.941 405,754.141 L405,752.241 C405,751.441 404.4,750.841 403.6,750.841 L394.8,750.841 L394.8,743.541 L403.6,743.541 C404.4,743.541 405,742.941 405,742.141 L405,740.341 C405,739.541 404.4,738.941 403.6,738.941 L394.8,738.941 L394.8,723.241 C394.8,722.741 394.4,722.241 394,722.041 L392.9,721.441 C392.7,721.341 392.4,721.341 392.2,721.341 C391.9,721.341 391.5,721.441 391.3,721.641 L382.4,729.841 C382.2,730.041 382,730.541 382,730.841 L382,738.941 L370.7,738.941 C370.7,738.941 381.6,727.141 393.2,711.641 C394,710.541 393.6,709.541 393.4,709.341 L391.3,707.141 C391.1,706.941 390.6,706.741 390.3,706.741 L375.7,706.741 C375,706.741 374.5,707.341 374.4,707.941 C374.4,707.941 373.9,715.141 371.3,723.141 C368.7,731.141 365.9,735.941 363.3,739.541 C363.3,739.541 362.8,740.541 363.1,741.241 C363.4,741.941 364.1,743.041 364.1,743.041 C364.1,743.041 364.4,743.541 365.2,743.541"/>
<path class="Page" d="M217.958,4039.47 C220.388,4040.06 221.603,4040.24 223.403,4040.24 C227.228,4040.24 230.018,4038.93 231.503,4036.41 C231.998,4035.6 232.178,4035.15 232.178,4034.79 C232.178,4034.52 232.088,4034.39 231.818,4034.39 C231.683,4034.39 231.503,4034.43 231.233,4034.57 C229.028,4035.51 227.858,4035.74 225.248,4035.74 C222.368,4035.74 220.568,4035.47 215.978,4034.39 C215.798,4038.17 215.393,4042.98 214.763,4048.56 C213.818,4049.55 213.503,4050.14 213.503,4050.86 C213.503,4051.8 214.088,4052.39 214.943,4052.39 C216.113,4052.39 216.788,4051.44 216.968,4049.64 C218.543,4048.52 220.028,4048.02 221.828,4048.02 C225.878,4048.02 228.263,4051.08 228.263,4056.26 C228.263,4059.27 227.498,4061.84 226.148,4063.23 C225.248,4064.18 223.403,4064.81 221.558,4064.81 C218.858,4064.81 216.068,4063.41 216.068,4062.02 C216.068,4061.7 216.338,4061.34 216.878,4061.03 C218.273,4060.17 218.678,4059.59 218.678,4058.37 C218.678,4056.8 217.463,4055.58 215.843,4055.58 C214.043,4055.58 212.603,4057.25 212.603,4059.36 C212.603,4061.61 213.908,4063.86 215.933,4065.26 C217.463,4066.25 219.263,4066.74 221.648,4066.74 C228.713,4066.74 233.168,4062.6 233.168,4055.99 C233.168,4049.87 229.118,4045.77 222.998,4045.77 C221.063,4045.77 219.668,4046.09 217.193,4047.12 L217.958,4039.47 "/>
<path class="Bracket" transform="matrix(3.62523,0,0,3.62523,214.469,1019.06)" d="M0.92002,-50 C2.69004,-51.88 6.2,-55.8 6.2,-63 C6.2,-72.1 2.25996,-81.32 2.25996,-86.97 C2.25996,-93.06 5.84004,-98.84 5.95,-99 C6.05996,-99.16 6.05,-99.39 5.94004,-99.46 C5.82998,-99.53 5.62002,-99.47 5.49004,-99.32 C5.35996,-99.17 0,-93.75 0,-85.6 C0,-76.75 3.5,-70.58 3.5,-59.07 C3.5,-56.89 2.55996,-53.36 0.1,-50.33 C-0.0799805,-50.17 -0.1,-49.89 0.0599609,-49.7 L0.0700195,-49.69 L0.1,-49.66 C2.55996,-46.63 3.5,-43.1 3.5,-40.92 C3.5,-29.4 0,-23.24 0,-14.39 C0,-6.25 5.35996,-0.8 5.49004,-0.659961 C5.62002,-0.52002 5.8,-0.42998 5.94004,-0.52002 C6.07998,-0.609961 6.07998,-0.77998 5.95,-0.97998 C5.82002,-1.17998 2.25996,-6.92002 2.25996,-13.01 C2.25996,-18.66 6.2,-27.9 6.2,-37 C6.2,-44.3 2.69004,-48.12 0.92002,-50"/>
</svg>
