<?xml version="1.0" encoding="UTF-8" standalone="no"?>
<svg width="2977.23px" height="4208.47px" viewBox="0 0 2977.23 4208.47"
 xmlns="http://www.w3.org/2000/svg" xmlns:xlink="http://www.w3.org/1999/xlink" version="1.2" baseProfile="tiny">
<title>exercises_scores (63)</title>
<desc>Generated by MuseScore 3.6.0</desc>
<polyline class="StaffLines" fill="none" stroke="#000000" stroke-width="2.75" stroke-linejoin="bevel" points="247.099,653.098 2764.63,653.098"/>
<polyline class="StaffLines" fill="none" stroke="#000000" stroke-width="2.75" stroke-linejoin="bevel" points="247.099,678.1 2764.63,678.1"/>
<polyline class="StaffLines" fill="none" stroke="#000000" stroke-width="2.75" stroke-linejoin="bevel" points="247.099,703.102 2764.63,703.102"/>
<polyline class="StaffLines" fill="none" stroke="#000000" stroke-width="2.75" stroke-linejoin="bevel" points="247.099,728.103 2764.63,728.103"/>
<polyline class="StaffLines" fill="none" stroke="#000000" stroke-width="2.75" stroke-linejoin="bevel" points="247.099,753.105 2764.63,753.105"/>
<polyline class="StaffLines" fill="none" stroke="#000000" stroke-width="2.75" stroke-linejoin="bevel" points="247.099,915.615 2764.63,915.615"/>
<polyline class="StaffLines" fill="none" stroke="#000000" stroke-width="2.75" stroke-linejoin="bevel" points="247.099,940.617 2764.63,940.617"/>
<polyline class="StaffLines" fill="none" stroke="#000000" stroke-width="2.75" stroke-linejoin="bevel" points="247.099,965.618 2764.63,965.618"/>
<polyline class="StaffLines" fill="none" stroke="#000000" stroke-width="2.75" stroke-linejoin="bevel" points="247.099,990.62 2764.63,990.62"/>
<polyline class="StaffLines" fill="none" stroke="#000000" stroke-width="2.75" stroke-linejoin="bevel" points="247.099,1015.62 2764.63,1015.62"/>
<polyline class="StaffLines" fill="none" stroke="#000000" stroke-width="2.75" stroke-linejoin="bevel" points="247.099,1265.64 2764.63,1265.64"/>
<polyline class="StaffLines" fill="none" stroke="#000000" stroke-width="2.75" stroke-linejoin="bevel" points="247.099,1290.64 2764.63,1290.64"/>
<polyline class="StaffLines" fill="none" stroke="#000000" stroke-width="2.75" stroke-linejoin="bevel" points="247.099,1315.64 2764.63,1315.64"/>
<polyline class="StaffLines" fill="none" stroke="#000000" stroke-width="2.75" stroke-linejoin="bevel" points="247.099,1340.64 2764.63,1340.64"/>
<polyline class="StaffLines" fill="none" stroke="#000000" stroke-width="2.75" stroke-linejoin="bevel" points="247.099,1365.64 2764.63,1365.64"/>
<polyline class="StaffLines" fill="none" stroke="#000000" stroke-width="2.75" stroke-linejoin="bevel" points="247.099,1528.15 2764.63,1528.15"/>
<polyline class="StaffLines" fill="none" stroke="#000000" stroke-width="2.75" stroke-linejoin="bevel" points="247.099,1553.16 2764.63,1553.16"/>
<polyline class="StaffLines" fill="none" stroke="#000000" stroke-width="2.75" stroke-linejoin="bevel" points="247.099,1578.16 2764.63,1578.16"/>
<polyline class="StaffLines" fill="none" stroke="#000000" stroke-width="2.75" stroke-linejoin="bevel" points="247.099,1603.16 2764.63,1603.16"/>
<polyline class="StaffLines" fill="none" stroke="#000000" stroke-width="2.75" stroke-linejoin="bevel" points="247.099,1628.16 2764.63,1628.16"/>
<path class="Text" d="M212.602,213.497 L212.602,216.317 L213.682,216.317 C217.102,216.377 218.242,216.557 218.722,217.157 C219.082,217.697 219.082,217.817 219.082,220.877 L219.082,249.437 C219.082,252.497 219.082,252.617 218.722,253.157 C218.242,253.757 217.102,253.997 213.682,253.997 L212.602,253.997 L212.602,256.817 L234.382,256.817 C244.762,256.817 251.002,252.437 251.002,245.057 C251.002,239.057 247.222,235.637 239.002,234.197 C241.882,233.597 243.202,233.057 244.762,231.917 C247.222,230.057 248.722,227.117 248.722,224.117 C248.722,220.217 246.322,216.437 242.842,214.937 C240.682,213.977 237.682,213.497 234.142,213.497 L212.602,213.497 M225.802,232.997 L225.802,219.317 C225.802,216.977 226.582,216.377 229.762,216.317 L232.162,216.317 C234.922,216.317 237.202,216.797 238.462,217.577 C240.622,218.897 241.762,221.417 241.762,224.777 C241.762,230.717 238.882,232.997 231.142,232.997 L225.802,232.997 M225.802,235.817 L231.082,235.817 C240.262,235.817 243.622,238.277 243.622,244.877 C243.622,248.717 242.302,251.477 239.962,252.617 C238.102,253.577 235.582,253.997 231.802,253.997 L229.282,253.997 C226.282,253.997 225.682,253.397 225.802,250.217 L225.802,235.817 M265.994,228.857 L255.374,229.517 L255.374,232.097 L257.834,232.097 C260.114,232.157 260.414,232.517 260.414,235.097 L260.414,249.437 L260.414,252.257 C260.354,253.157 260.294,253.517 260.054,253.817 C259.634,254.357 258.434,254.597 255.854,254.657 L255.614,254.657 L255.614,256.817 L271.634,256.817 L271.634,254.657 L270.554,254.657 C266.534,254.537 265.994,254.237 265.994,252.077 L265.994,249.437 L265.994,248.837 C266.054,238.757 269.654,231.077 274.334,230.837 C273.494,231.797 273.254,232.397 273.254,233.537 C273.254,235.457 274.634,236.837 276.554,236.837 C278.774,236.837 280.214,235.217 280.214,232.817 C280.214,229.877 278.174,227.957 274.994,227.957 C271.214,227.957 267.974,230.957 265.994,236.297 L265.994,228.857 M295.562,227.957 C288.182,227.957 282.482,234.497 282.482,242.897 C282.482,251.117 288.242,257.717 295.442,257.717 C302.642,257.717 308.402,251.117 308.402,242.837 C308.402,234.617 302.642,227.957 295.562,227.957 M295.562,230.537 C299.762,230.537 302.102,234.917 302.102,242.837 C302.102,250.817 299.762,255.137 295.442,255.137 C291.122,255.137 288.782,250.817 288.782,242.897 C288.782,234.737 291.062,230.537 295.562,230.537 M322.382,242.297 L322.382,212.597 L311.282,213.257 L311.282,215.837 L314.162,215.837 C316.442,215.897 316.742,216.257 316.742,218.837 L316.742,249.437 L316.742,252.317 C316.682,253.157 316.622,253.517 316.382,253.817 C315.962,254.357 314.822,254.597 312.242,254.657 L312.002,254.657 L312.002,256.817 L327.182,256.817 L327.182,254.657 L326.942,254.657 C322.922,254.537 322.382,254.237 322.382,252.077 L322.382,249.437 L322.382,246.017 L326.042,242.537 L333.182,252.557 C333.482,253.037 333.602,253.337 333.602,253.577 C333.602,254.417 332.942,254.657 330.962,254.657 L329.822,254.657 L329.822,256.817 L345.662,256.817 L345.662,254.657 C342.302,254.357 341.102,253.637 338.642,250.517 L330.122,238.877 L332.822,236.237 C336.362,232.817 338.882,231.497 342.962,231.017 L342.962,228.857 L327.182,228.857 L327.182,231.017 L329.042,231.017 C330.962,231.017 331.862,231.377 331.862,232.157 C331.862,232.817 331.442,233.537 330.482,234.497 L322.382,242.297 M372.842,243.317 C372.902,234.317 367.802,227.957 360.482,227.957 C352.802,227.957 347.042,234.617 347.042,243.617 C347.042,252.077 352.502,257.717 360.602,257.717 C366.362,257.717 370.382,254.897 372.842,249.197 L370.742,248.057 C368.282,252.677 365.762,254.477 361.742,254.477 C358.682,254.477 356.462,253.217 354.902,250.517 C353.822,248.717 353.342,246.617 353.402,243.317 L372.842,243.317 M353.462,240.737 C353.462,238.877 353.702,237.557 354.302,235.877 C355.562,232.277 357.482,230.537 360.422,230.537 C364.022,230.537 366.422,233.717 366.422,238.577 C366.422,240.257 365.882,240.737 363.962,240.737 L353.462,240.737 M386.942,228.857 L376.562,229.517 L376.562,232.097 L378.722,232.097 C381.002,232.157 381.302,232.517 381.302,235.097 L381.302,249.437 L381.302,250.877 L381.302,252.257 C381.242,253.157 381.182,253.517 380.942,253.817 C380.522,254.357 379.382,254.597 376.802,254.657 L376.562,254.657 L376.562,256.817 L391.742,256.817 L391.742,254.657 L391.502,254.657 C387.482,254.537 386.942,254.237 386.942,252.077 L386.942,249.437 L386.942,243.197 C386.942,240.257 387.362,237.557 388.022,236.177 C389.282,233.477 391.982,231.617 394.562,231.617 C396.122,231.617 397.922,232.457 398.822,233.717 C399.722,235.037 400.142,236.837 400.142,239.717 L400.142,249.437 L400.142,252.257 C400.082,253.157 400.022,253.517 399.782,253.817 C399.362,254.357 398.162,254.597 395.582,254.657 L395.342,254.657 L395.342,256.817 L410.522,256.817 L410.522,254.657 L410.282,254.657 C406.322,254.537 405.782,254.237 405.782,252.077 L405.782,249.437 L405.782,240.017 C405.782,235.697 405.602,234.617 404.522,232.577 C403.022,229.697 400.022,227.957 396.422,227.957 C392.522,227.957 389.582,229.757 386.942,233.717 L386.942,228.857 M466.61,213.077 L464.33,213.077 L461.93,216.617 C457.55,213.437 455.33,212.597 451.19,212.597 C445.49,212.597 440.63,214.997 436.61,219.797 C432.77,224.357 430.97,229.397 430.97,235.577 C430.97,248.537 439.43,257.717 451.25,257.717 C460.85,257.717 466.97,252.077 468.35,241.997 L465.53,241.517 C463.91,250.457 459.35,254.897 451.97,254.897 C443.09,254.897 438.89,248.777 438.89,235.817 C438.89,228.977 439.79,224.477 441.83,220.877 C443.69,217.517 447.35,215.417 451.25,215.417 C455.45,215.417 459.17,217.637 461.45,221.477 C462.59,223.457 463.43,225.677 464.87,230.417 L467.51,230.417 L466.61,213.077 M483.583,212.597 L472.483,213.257 L472.483,215.837 L475.363,215.837 C477.643,215.897 477.943,216.257 477.943,218.837 L477.943,249.437 L477.943,250.877 L477.943,252.317 C477.883,253.157 477.823,253.517 477.583,253.817 C477.163,254.357 476.023,254.597 473.443,254.657 L473.203,254.657 L473.203,256.817 L488.383,256.817 L488.383,254.657 L488.143,254.657 C484.123,254.537 483.583,254.237 483.583,252.077 L483.583,249.437 L483.583,243.197 C483.583,240.257 484.003,237.557 484.663,236.177 C485.983,233.477 488.623,231.617 491.203,231.617 C492.763,231.617 494.563,232.517 495.403,233.717 C496.363,235.037 496.783,236.837 496.783,239.777 L496.783,249.437 L496.783,252.317 C496.723,253.157 496.663,253.517 496.423,253.817 C496.003,254.357 494.803,254.597 492.223,254.657 L491.983,254.657 L491.983,256.817 L507.163,256.817 L507.163,254.657 L506.923,254.657 C502.963,254.537 502.423,254.237 502.423,252.077 L502.423,249.437 L502.423,240.017 C502.423,235.697 502.243,234.617 501.163,232.577 C499.663,229.637 496.663,227.957 493.063,227.957 C489.163,227.957 486.283,229.697 483.583,233.717 L483.583,212.597 M523.359,227.957 C515.979,227.957 510.279,234.497 510.279,242.897 C510.279,251.117 516.039,257.717 523.239,257.717 C530.439,257.717 536.199,251.117 536.199,242.837 C536.199,234.617 530.439,227.957 523.359,227.957 M523.359,230.537 C527.559,230.537 529.899,234.917 529.899,242.837 C529.899,250.817 527.559,255.137 523.239,255.137 C518.919,255.137 516.579,250.817 516.579,242.897 C516.579,234.737 518.859,230.537 523.359,230.537 M550.119,228.857 L539.499,229.517 L539.499,232.097 L541.959,232.097 C544.239,232.157 544.539,232.517 544.539,235.097 L544.539,249.437 L544.539,252.257 C544.479,253.157 544.419,253.517 544.179,253.817 C543.759,254.357 542.559,254.597 539.979,254.657 L539.739,254.657 L539.739,256.817 L555.759,256.817 L555.759,254.657 L554.679,254.657 C550.659,254.537 550.119,254.237 550.119,252.077 L550.119,249.437 L550.119,248.837 C550.179,238.757 553.779,231.077 558.459,230.837 C557.619,231.797 557.379,232.397 557.379,233.537 C557.379,235.457 558.759,236.837 560.679,236.837 C562.899,236.837 564.339,235.217 564.339,232.817 C564.339,229.877 562.299,227.957 559.119,227.957 C555.339,227.957 552.099,230.957 550.119,236.297 L550.119,228.857 M587.18,257.237 L597.62,256.817 L597.62,254.237 L596.54,254.237 C593.12,254.057 592.82,253.697 592.82,249.857 L592.82,212.597 L581.06,213.257 L581.06,215.837 L584.6,215.837 C586.88,215.897 587.18,216.257 587.18,218.837 L587.18,232.397 C584.96,229.337 582.38,227.957 578.9,227.957 C572.12,227.957 566.96,234.497 566.96,243.137 C566.96,251.657 571.94,257.717 578.9,257.717 C582.68,257.717 585.26,256.097 587.18,252.497 L587.18,257.237 M580.1,231.197 C582.56,231.197 584.9,232.997 585.98,235.757 C586.76,237.557 587.12,240.017 587.12,242.957 C587.12,249.977 584.36,254.477 580.04,254.477 C575.78,254.477 573.26,250.517 573.26,243.857 C573.26,240.257 573.62,237.557 574.4,235.577 C575.42,232.877 577.64,231.197 580.1,231.197 M607.757,250.157 C605.657,250.157 603.977,251.837 603.977,253.877 C603.977,255.977 605.657,257.657 607.697,257.657 C609.797,257.657 611.477,255.977 611.477,253.877 C611.477,251.837 609.797,250.157 607.757,250.157 M607.757,228.437 C605.657,228.437 603.977,230.117 603.977,232.217 C603.977,234.257 605.657,235.937 607.697,235.937 C609.797,235.937 611.477,234.257 611.477,232.157 C611.477,230.117 609.797,228.437 607.757,228.437 M654.841,212.657 L652.321,212.657 L638.521,247.637 C636.901,252.317 635.341,253.757 631.921,253.997 L631.681,253.997 L631.681,256.817 L647.581,256.817 L647.581,253.997 L646.381,253.997 C643.141,253.997 641.521,252.857 641.521,250.577 C641.521,249.797 641.701,249.077 642.061,248.057 L644.041,242.777 L659.941,242.777 L663.181,250.817 C663.541,251.777 663.661,252.137 663.661,252.437 C663.661,253.397 662.161,253.997 659.941,253.997 L657.421,253.997 L657.421,256.817 L676.021,256.817 L676.021,253.997 L675.181,253.997 C672.061,253.937 671.521,253.577 670.141,250.157 L654.841,212.657 M651.901,222.497 L658.681,239.537 L645.241,239.537 L651.901,222.497 M704.205,228.857 L693.525,229.517 L693.525,232.097 L695.985,232.097 C698.265,232.157 698.565,232.517 698.565,235.097 L698.565,249.437 L698.565,251.777 L698.565,252.257 C698.505,253.157 698.445,253.517 698.205,253.817 C697.785,254.357 696.645,254.597 694.065,254.657 L693.825,254.657 L693.825,256.817 L708.945,256.817 L708.945,254.657 L708.705,254.657 C704.745,254.537 704.205,254.237 704.205,252.017 L704.205,249.437 L704.205,240.917 C704.205,235.577 707.145,231.617 711.045,231.617 C714.465,231.617 716.205,234.077 716.205,238.937 L716.205,249.437 L716.205,252.317 C716.145,253.097 716.085,253.517 715.785,253.817 C715.425,254.357 714.225,254.597 711.645,254.657 L711.405,254.657 L711.405,256.817 L726.585,256.817 L726.585,254.657 L726.345,254.657 C722.385,254.537 721.845,254.237 721.845,252.077 L721.845,249.437 L721.845,241.457 C721.845,235.457 724.545,231.617 728.745,231.617 C732.165,231.617 733.845,234.197 733.845,239.597 L733.845,249.437 L733.845,252.257 C733.785,253.097 733.725,253.517 733.425,253.817 C733.065,254.357 731.865,254.597 729.285,254.657 L729.045,254.657 L729.045,256.817 L744.225,256.817 L744.225,254.657 L743.985,254.657 C740.025,254.537 739.485,254.237 739.485,252.017 L739.485,249.437 L739.485,238.397 C739.485,234.677 739.125,233.417 737.565,231.377 C735.825,229.157 733.365,227.957 730.485,227.957 C726.585,227.957 723.705,229.817 721.125,233.957 C720.105,230.357 716.865,227.957 712.845,227.957 C709.185,227.957 706.545,229.697 704.205,233.477 L704.205,228.857 M757.833,228.857 L746.553,229.517 L746.553,232.097 L749.613,232.097 C751.893,232.157 752.193,232.517 752.193,235.097 L752.193,249.437 L752.193,252.257 C752.133,253.157 752.073,253.517 751.833,253.817 C751.413,254.357 750.273,254.597 747.693,254.657 L747.273,254.657 L747.273,256.817 L762.813,256.817 L762.813,254.657 L762.393,254.657 C758.373,254.537 757.833,254.237 757.833,252.077 L757.833,249.437 L757.833,228.857 M755.013,213.917 C753.093,213.917 751.533,215.477 751.533,217.397 C751.533,219.317 753.093,220.877 754.953,220.877 C756.933,220.877 758.493,219.317 758.493,217.397 C758.493,215.477 756.933,213.917 755.013,213.917 M776.364,228.857 L765.984,229.517 L765.984,232.097 L768.144,232.097 C770.424,232.157 770.724,232.517 770.724,235.097 L770.724,249.437 L770.724,250.877 L770.724,252.257 C770.664,253.157 770.604,253.517 770.364,253.817 C769.944,254.357 768.804,254.597 766.224,254.657 L765.984,254.657 L765.984,256.817 L781.164,256.817 L781.164,254.657 L780.924,254.657 C776.904,254.537 776.364,254.237 776.364,252.077 L776.364,249.437 L776.364,243.197 C776.364,240.257 776.784,237.557 777.444,236.177 C778.704,233.477 781.404,231.617 783.984,231.617 C785.544,231.617 787.344,232.457 788.244,233.717 C789.144,235.037 789.564,236.837 789.564,239.717 L789.564,249.437 L789.564,252.257 C789.504,253.157 789.444,253.517 789.204,253.817 C788.784,254.357 787.584,254.597 785.004,254.657 L784.764,254.657 L784.764,256.817 L799.944,256.817 L799.944,254.657 L799.704,254.657 C795.744,254.537 795.204,254.237 795.204,252.077 L795.204,249.437 L795.204,240.017 C795.204,235.697 795.024,234.617 793.944,232.577 C792.444,229.697 789.444,227.957 785.844,227.957 C781.944,227.957 779.004,229.757 776.364,233.717 L776.364,228.857 M816.14,227.957 C808.76,227.957 803.06,234.497 803.06,242.897 C803.06,251.117 808.82,257.717 816.02,257.717 C823.22,257.717 828.98,251.117 828.98,242.837 C828.98,234.617 823.22,227.957 816.14,227.957 M816.14,230.537 C820.34,230.537 822.68,234.917 822.68,242.837 C822.68,250.817 820.34,255.137 816.02,255.137 C811.7,255.137 809.36,250.817 809.36,242.897 C809.36,234.737 811.64,230.537 816.14,230.537 M842.9,228.857 L832.28,229.517 L832.28,232.097 L834.74,232.097 C837.02,232.157 837.32,232.517 837.32,235.097 L837.32,249.437 L837.32,252.257 C837.26,253.157 837.2,253.517 836.96,253.817 C836.54,254.357 835.34,254.597 832.76,254.657 L832.52,254.657 L832.52,256.817 L848.54,256.817 L848.54,254.657 L847.46,254.657 C843.44,254.537 842.9,254.237 842.9,252.077 L842.9,249.437 L842.9,248.837 C842.96,238.757 846.56,231.077 851.24,230.837 C850.4,231.797 850.16,232.397 850.16,233.537 C850.16,235.457 851.54,236.837 853.46,236.837 C855.68,236.837 857.12,235.217 857.12,232.817 C857.12,229.877 855.08,227.957 851.9,227.957 C848.12,227.957 844.88,230.957 842.9,236.297 L842.9,228.857 "/>
<path class="TieSegment" stroke="#000000" stroke-width="1.75" stroke-linecap="round" stroke-linejoin="round" fill-rule="evenodd" d="M2600.16,909.365 C2633.05,880.865 2731.74,880.865 2764.63,909.365 C2731.74,887.865 2633.05,887.865 2600.16,909.365"/>
<path class="TieSegment" stroke="#000000" stroke-width="1.75" stroke-linecap="round" stroke-linejoin="round" fill-rule="evenodd" d="M335.596,1521.9 C352.122,1505.84 401.698,1505.84 418.224,1521.9 C401.698,1512.84 352.122,1512.84 335.596,1521.9"/>
<path class="TieSegment" stroke="#000000" stroke-width="1.75" stroke-linecap="round" stroke-linejoin="round" fill-rule="evenodd" d="M2600.16,559.343 C2633.05,530.842 2731.74,530.842 2764.63,559.343 C2731.74,537.843 2633.05,537.843 2600.16,559.343"/>
<path class="TieSegment" stroke="#000000" stroke-width="1.75" stroke-linecap="round" stroke-linejoin="round" fill-rule="evenodd" d="M335.596,1171.88 C352.122,1155.82 401.698,1155.82 418.224,1171.88 C401.698,1162.82 352.122,1162.82 335.596,1171.88"/>
<polyline class="BarLine" stroke="#000000" stroke-width="4.50" stroke-linejoin="bevel" points="249.349,914.24 249.349,1017"/>
<polyline class="BarLine" stroke="#000000" stroke-width="4.50" stroke-linejoin="bevel" points="980.408,914.24 980.408,1017"/>
<polyline class="BarLine" stroke="#000000" stroke-width="4.50" stroke-linejoin="bevel" points="1613.19,914.24 1613.19,1017"/>
<polyline class="BarLine" stroke="#000000" stroke-width="4.50" stroke-linejoin="bevel" points="2173.35,914.24 2173.35,1017"/>
<polyline class="BarLine" stroke="#000000" stroke-width="4.50" stroke-linejoin="bevel" points="2762.38,914.24 2762.38,1017"/>
<polyline class="BarLine" stroke="#000000" stroke-width="4.50" stroke-linejoin="bevel" points="249.349,1526.78 249.349,1629.54"/>
<polyline class="BarLine" stroke="#000000" stroke-width="4.50" stroke-linejoin="bevel" points="956.944,1526.78 956.944,1629.54"/>
<polyline class="BarLine" stroke="#000000" stroke-width="4.50" stroke-linejoin="bevel" points="1530.41,1526.78 1530.41,1629.54"/>
<polyline class="BarLine" stroke="#000000" stroke-width="4.50" stroke-linejoin="bevel" points="2083.76,1526.78 2083.76,1629.54"/>
<polyline class="BarLine" stroke="#000000" stroke-width="4.50" stroke-linejoin="bevel" points="2734.88,1526.78 2734.88,1629.54"/>
<polyline class="BarLine" stroke="#000000" stroke-width="13.75" stroke-linejoin="bevel" points="2757.76,1526.78 2757.76,1629.54"/>
<polyline class="BarLine" stroke="#000000" stroke-width="4.50" stroke-linejoin="bevel" points="249.349,651.723 249.349,915.615"/>
<polyline class="BarLine" stroke="#000000" stroke-width="4.50" stroke-linejoin="bevel" points="980.408,651.723 980.408,915.615"/>
<polyline class="BarLine" stroke="#000000" stroke-width="4.50" stroke-linejoin="bevel" points="1613.19,651.723 1613.19,915.615"/>
<polyline class="BarLine" stroke="#000000" stroke-width="4.50" stroke-linejoin="bevel" points="2173.35,651.723 2173.35,915.615"/>
<polyline class="BarLine" stroke="#000000" stroke-width="4.50" stroke-linejoin="bevel" points="2762.38,651.723 2762.38,915.615"/>
<polyline class="BarLine" stroke="#000000" stroke-width="4.50" stroke-linejoin="bevel" points="249.349,1264.26 249.349,1528.15"/>
<polyline class="BarLine" stroke="#000000" stroke-width="4.50" stroke-linejoin="bevel" points="956.944,1264.26 956.944,1528.15"/>
<polyline class="BarLine" stroke="#000000" stroke-width="4.50" stroke-linejoin="bevel" points="1530.41,1264.26 1530.41,1528.15"/>
<polyline class="BarLine" stroke="#000000" stroke-width="4.50" stroke-linejoin="bevel" points="2083.76,1264.26 2083.76,1528.15"/>
<polyline class="BarLine" stroke="#000000" stroke-width="4.50" stroke-linejoin="bevel" points="2734.88,1264.26 2734.88,1528.15"/>
<polyline class="BarLine" stroke="#000000" stroke-width="13.75" stroke-linejoin="bevel" points="2757.76,1264.26 2757.76,1528.15"/>
<polyline class="LedgerLine" stroke="#000000" stroke-width="4.00" stroke-linejoin="bevel" points="620.637,890.613 670.632,890.613"/>
<polyline class="LedgerLine" stroke="#000000" stroke-width="4.00" stroke-linejoin="bevel" points="795.022,890.613 845.018,890.613"/>
<polyline class="LedgerLine" stroke="#000000" stroke-width="4.00" stroke-linejoin="bevel" points="795.022,865.612 845.018,865.612"/>
<polyline class="LedgerLine" stroke="#000000" stroke-width="4.00" stroke-linejoin="bevel" points="1099.16,1040.62 1149.15,1040.62"/>
<polyline class="LedgerLine" stroke="#000000" stroke-width="4.00" stroke-linejoin="bevel" points="1903.56,1653.16 1953.55,1653.16"/>
<polyline class="LedgerLine" stroke="#000000" stroke-width="4.00" stroke-linejoin="bevel" points="2196.16,1503.15 2246.16,1503.15"/>
<polyline class="LedgerLine" stroke="#000000" stroke-width="4.00" stroke-linejoin="bevel" points="2196.16,1478.15 2246.16,1478.15"/>
<polyline class="LedgerLine" stroke="#000000" stroke-width="4.00" stroke-linejoin="bevel" points="2372.07,1503.15 2422.06,1503.15"/>
<polyline class="LedgerLine" stroke="#000000" stroke-width="4.00" stroke-linejoin="bevel" points="1434.51,628.097 1484.51,628.097"/>
<polyline class="LedgerLine" stroke="#000000" stroke-width="4.00" stroke-linejoin="bevel" points="1813.57,628.097 1863.57,628.097"/>
<polyline class="LedgerLine" stroke="#000000" stroke-width="4.00" stroke-linejoin="bevel" points="1987.96,628.097 2037.96,628.097"/>
<polyline class="LedgerLine" stroke="#000000" stroke-width="4.00" stroke-linejoin="bevel" points="1987.96,603.095 2037.96,603.095"/>
<polyline class="LedgerLine" stroke="#000000" stroke-width="4.00" stroke-linejoin="bevel" points="2208.1,628.097 2258.09,628.097"/>
<polyline class="LedgerLine" stroke="#000000" stroke-width="4.00" stroke-linejoin="bevel" points="2389.19,628.097 2439.19,628.097"/>
<polyline class="LedgerLine" stroke="#000000" stroke-width="4.00" stroke-linejoin="bevel" points="2389.19,603.095 2439.19,603.095"/>
<polyline class="LedgerLine" stroke="#000000" stroke-width="4.00" stroke-linejoin="bevel" points="2570.29,628.097 2620.28,628.097"/>
<polyline class="LedgerLine" stroke="#000000" stroke-width="4.00" stroke-linejoin="bevel" points="2570.29,603.095 2620.28,603.095"/>
<polyline class="LedgerLine" stroke="#000000" stroke-width="4.00" stroke-linejoin="bevel" points="2570.29,578.094 2620.28,578.094"/>
<polyline class="LedgerLine" stroke="#000000" stroke-width="4.00" stroke-linejoin="bevel" points="398.1,1240.64 448.096,1240.64"/>
<polyline class="LedgerLine" stroke="#000000" stroke-width="4.00" stroke-linejoin="bevel" points="398.1,1215.63 448.096,1215.63"/>
<polyline class="LedgerLine" stroke="#000000" stroke-width="4.00" stroke-linejoin="bevel" points="398.1,1190.63 448.096,1190.63"/>
<polyline class="LedgerLine" stroke="#000000" stroke-width="4.00" stroke-linejoin="bevel" points="580.715,1240.64 630.71,1240.64"/>
<polyline class="LedgerLine" stroke="#000000" stroke-width="4.00" stroke-linejoin="bevel" points="580.715,1215.63 630.71,1215.63"/>
<polyline class="LedgerLine" stroke="#000000" stroke-width="4.00" stroke-linejoin="bevel" points="763.329,1240.64 813.324,1240.64"/>
<polyline class="LedgerLine" stroke="#000000" stroke-width="4.00" stroke-linejoin="bevel" points="991.696,1240.64 1041.69,1240.64"/>
<polyline class="LedgerLine" stroke="#000000" stroke-width="4.00" stroke-linejoin="bevel" points="991.696,1215.63 1041.69,1215.63"/>
<polyline class="LedgerLine" stroke="#000000" stroke-width="4.00" stroke-linejoin="bevel" points="1167.6,1240.64 1217.6,1240.64"/>
<polyline class="LedgerLine" stroke="#000000" stroke-width="4.00" stroke-linejoin="bevel" points="1565.17,1240.64 1615.16,1240.64"/>
<polyline class="Stem" stroke="#000000" stroke-width="2.75" stroke-linejoin="bevel" points="456.377,919.135 456.377,1003.12"/>
<polyline class="Stem" stroke="#000000" stroke-width="2.75" stroke-linejoin="bevel" points="630.763,894.134 630.763,978.119"/>
<polyline class="Stem" stroke="#000000" stroke-width="2.75" stroke-linejoin="bevel" points="805.148,869.132 805.148,965.618"/>
<polyline class="Stem" stroke="#000000" stroke-width="2.75" stroke-linejoin="bevel" points="1139.03,1037.26 1139.03,953.117"/>
<polyline class="Stem" stroke="#000000" stroke-width="2.75" stroke-linejoin="bevel" points="1306.7,1012.26 1306.7,928.116"/>
<polyline class="Stem" stroke="#000000" stroke-width="2.75" stroke-linejoin="bevel" points="1474.38,974.759 1474.38,896.864"/>
<polyline class="Stem" stroke="#000000" stroke-width="2.75" stroke-linejoin="bevel" points="1679.06,1012.26 1679.06,928.116"/>
<polyline class="Stem" stroke="#000000" stroke-width="2.75" stroke-linejoin="bevel" points="1853.44,974.759 1853.44,896.864"/>
<polyline class="Stem" stroke="#000000" stroke-width="2.75" stroke-linejoin="bevel" points="1998.09,956.638 1998.09,1034.37"/>
<polyline class="Stem" stroke="#000000" stroke-width="2.75" stroke-linejoin="bevel" points="2247.97,974.759 2247.97,896.864"/>
<polyline class="Stem" stroke="#000000" stroke-width="2.75" stroke-linejoin="bevel" points="2399.32,956.638 2399.32,1034.37"/>
<polyline class="Stem" stroke="#000000" stroke-width="2.75" stroke-linejoin="bevel" points="2580.41,931.636 2580.41,1015.62"/>
<polyline class="Stem" stroke="#000000" stroke-width="2.75" stroke-linejoin="bevel" points="408.226,1544.17 408.226,1628.16"/>
<polyline class="Stem" stroke="#000000" stroke-width="2.75" stroke-linejoin="bevel" points="590.84,1569.18 590.84,1646.91"/>
<polyline class="Stem" stroke="#000000" stroke-width="2.75" stroke-linejoin="bevel" points="803.199,1587.3 803.199,1509.4"/>
<polyline class="Stem" stroke="#000000" stroke-width="2.75" stroke-linejoin="bevel" points="1001.82,1569.18 1001.82,1646.91"/>
<polyline class="Stem" stroke="#000000" stroke-width="2.75" stroke-linejoin="bevel" points="1207.47,1587.3 1207.47,1509.4"/>
<polyline class="Stem" stroke="#000000" stroke-width="2.75" stroke-linejoin="bevel" points="1383.38,1624.8 1383.38,1540.65"/>
<polyline class="Stem" stroke="#000000" stroke-width="2.75" stroke-linejoin="bevel" points="1605.04,1587.3 1605.04,1509.4"/>
<polyline class="Stem" stroke="#000000" stroke-width="2.75" stroke-linejoin="bevel" points="1774.23,1624.8 1774.23,1540.65"/>
<polyline class="Stem" stroke="#000000" stroke-width="2.75" stroke-linejoin="bevel" points="1943.43,1649.8 1943.43,1565.66"/>
<polyline class="Stem" stroke="#000000" stroke-width="2.75" stroke-linejoin="bevel" points="2206.29,1481.67 2206.29,1578.16"/>
<polyline class="Stem" stroke="#000000" stroke-width="2.75" stroke-linejoin="bevel" points="2382.19,1506.67 2382.19,1590.66"/>
<polyline class="Stem" stroke="#000000" stroke-width="2.75" stroke-linejoin="bevel" points="2558.1,1531.67 2558.1,1615.66"/>
<polyline class="Stem" stroke="#000000" stroke-width="2.75" stroke-linejoin="bevel" points="486.121,712.242 486.121,634.347"/>
<polyline class="Stem" stroke="#000000" stroke-width="2.75" stroke-linejoin="bevel" points="630.763,694.121 630.763,771.856"/>
<polyline class="Stem" stroke="#000000" stroke-width="2.75" stroke-linejoin="bevel" points="805.148,669.12 805.148,753.105"/>
<polyline class="Stem" stroke="#000000" stroke-width="2.75" stroke-linejoin="bevel" points="1109.28,694.121 1109.28,771.856"/>
<polyline class="Stem" stroke="#000000" stroke-width="2.75" stroke-linejoin="bevel" points="1276.96,669.12 1276.96,753.105"/>
<polyline class="Stem" stroke="#000000" stroke-width="2.75" stroke-linejoin="bevel" points="1444.64,631.617 1444.64,715.602"/>
<polyline class="Stem" stroke="#000000" stroke-width="2.75" stroke-linejoin="bevel" points="1649.32,669.12 1649.32,753.105"/>
<polyline class="Stem" stroke="#000000" stroke-width="2.75" stroke-linejoin="bevel" points="1823.7,631.617 1823.7,715.602"/>
<polyline class="Stem" stroke="#000000" stroke-width="2.75" stroke-linejoin="bevel" points="1998.09,606.616 1998.09,703.102"/>
<polyline class="Stem" stroke="#000000" stroke-width="2.75" stroke-linejoin="bevel" points="2218.22,631.617 2218.22,715.602"/>
<polyline class="Stem" stroke="#000000" stroke-width="2.75" stroke-linejoin="bevel" points="2399.32,606.616 2399.32,703.102"/>
<polyline class="Stem" stroke="#000000" stroke-width="2.75" stroke-linejoin="bevel" points="2580.41,581.614 2580.41,703.102"/>
<polyline class="Stem" stroke="#000000" stroke-width="2.75" stroke-linejoin="bevel" points="408.226,1194.15 408.226,1315.64"/>
<polyline class="Stem" stroke="#000000" stroke-width="2.75" stroke-linejoin="bevel" points="590.84,1219.15 590.84,1315.64"/>
<polyline class="Stem" stroke="#000000" stroke-width="2.75" stroke-linejoin="bevel" points="773.454,1244.16 773.454,1328.14"/>
<polyline class="Stem" stroke="#000000" stroke-width="2.75" stroke-linejoin="bevel" points="1001.82,1219.15 1001.82,1315.64"/>
<polyline class="Stem" stroke="#000000" stroke-width="2.75" stroke-linejoin="bevel" points="1177.73,1244.16 1177.73,1328.14"/>
<polyline class="Stem" stroke="#000000" stroke-width="2.75" stroke-linejoin="bevel" points="1353.63,1281.66 1353.63,1365.64"/>
<polyline class="Stem" stroke="#000000" stroke-width="2.75" stroke-linejoin="bevel" points="1575.29,1244.16 1575.29,1328.14"/>
<polyline class="Stem" stroke="#000000" stroke-width="2.75" stroke-linejoin="bevel" points="1744.49,1281.66 1744.49,1365.64"/>
<polyline class="Stem" stroke="#000000" stroke-width="2.75" stroke-linejoin="bevel" points="1913.68,1306.66 1913.68,1384.39"/>
<polyline class="Stem" stroke="#000000" stroke-width="2.75" stroke-linejoin="bevel" points="2206.29,1281.66 2206.29,1365.64"/>
<polyline class="Stem" stroke="#000000" stroke-width="2.75" stroke-linejoin="bevel" points="2382.19,1306.66 2382.19,1384.39"/>
<polyline class="Stem" stroke="#000000" stroke-width="2.75" stroke-linejoin="bevel" points="2587.84,1324.78 2587.84,1246.89"/>
<path class="Note" d="M486.502,907.415 C485.002,904.715 482.102,903.015 478.202,902.615 C477.602,902.515 477.102,902.515 476.502,902.515 C473.002,902.515 469.202,903.515 465.702,905.415 C459.102,909.015 455.002,914.915 455.002,920.015 C455.002,921.415 455.202,922.715 455.902,923.915 C457.402,926.615 460.402,928.315 464.302,928.715 C464.902,928.815 465.402,928.815 466.002,928.815 C469.502,928.815 473.202,927.815 476.702,925.915 C483.302,922.315 487.502,916.515 487.502,911.415 C487.502,910.015 487.202,908.615 486.502,907.415"/>
<path class="Note" d="M660.888,882.413 C659.388,879.713 656.488,878.013 652.588,877.613 C651.988,877.513 651.488,877.513 650.888,877.513 C647.388,877.513 643.588,878.513 640.088,880.413 C633.488,884.013 629.388,889.913 629.388,895.013 C629.388,896.413 629.588,897.713 630.288,898.913 C631.788,901.613 634.788,903.313 638.688,903.713 C639.288,903.813 639.788,903.813 640.388,903.813 C643.888,903.813 647.588,902.813 651.088,900.913 C657.688,897.313 661.888,891.513 661.888,886.413 C661.888,885.013 661.588,883.613 660.888,882.413"/>
<path class="Note" d="M835.273,857.412 C833.773,854.712 830.873,853.012 826.973,852.612 C826.373,852.512 825.873,852.512 825.273,852.512 C821.773,852.512 817.973,853.512 814.473,855.412 C807.873,859.012 803.773,864.912 803.773,870.012 C803.773,871.412 803.973,872.712 804.673,873.912 C806.173,876.612 809.173,878.312 813.073,878.712 C813.673,878.812 814.173,878.812 814.773,878.812 C818.273,878.812 821.973,877.812 825.473,875.912 C832.073,872.312 836.273,866.512 836.273,861.412 C836.273,860.012 835.973,858.612 835.273,857.412"/>
<path class="Note" d="M1139.41,1032.42 C1137.91,1029.72 1135.01,1028.02 1131.11,1027.62 C1130.51,1027.52 1130.01,1027.52 1129.41,1027.52 C1125.91,1027.52 1122.11,1028.52 1118.61,1030.42 C1112.01,1034.02 1107.91,1039.92 1107.91,1045.02 C1107.91,1046.42 1108.11,1047.72 1108.81,1048.92 C1110.31,1051.62 1113.31,1053.32 1117.21,1053.72 C1117.81,1053.82 1118.31,1053.82 1118.91,1053.82 C1122.41,1053.82 1126.11,1052.82 1129.61,1050.92 C1136.21,1047.32 1140.41,1041.52 1140.41,1036.42 C1140.41,1035.02 1140.11,1033.62 1139.41,1032.42"/>
<path class="Note" d="M1307.08,1007.42 C1305.58,1004.72 1302.68,1003.02 1298.78,1002.62 C1298.18,1002.52 1297.68,1002.52 1297.08,1002.52 C1293.58,1002.52 1289.78,1003.52 1286.28,1005.42 C1279.68,1009.02 1275.58,1014.92 1275.58,1020.02 C1275.58,1021.42 1275.78,1022.72 1276.48,1023.92 C1277.98,1026.62 1280.98,1028.32 1284.88,1028.72 C1285.48,1028.82 1285.98,1028.82 1286.58,1028.82 C1290.08,1028.82 1293.78,1027.82 1297.28,1025.92 C1303.88,1022.32 1308.08,1016.52 1308.08,1011.42 C1308.08,1010.02 1307.78,1008.62 1307.08,1007.42"/>
<path class="Note" d="M1474.76,969.919 C1473.26,967.219 1470.36,965.519 1466.46,965.119 C1465.86,965.019 1465.36,965.019 1464.76,965.019 C1461.26,965.019 1457.46,966.019 1453.96,967.919 C1447.36,971.519 1443.26,977.419 1443.26,982.519 C1443.26,983.919 1443.46,985.219 1444.16,986.419 C1445.66,989.119 1448.66,990.819 1452.56,991.219 C1453.16,991.319 1453.66,991.319 1454.26,991.319 C1457.76,991.319 1461.46,990.319 1464.96,988.419 C1471.56,984.819 1475.76,979.019 1475.76,973.919 C1475.76,972.519 1475.46,971.119 1474.76,969.919"/>
<path class="Note" d="M1679.44,1007.42 C1677.94,1004.72 1675.04,1003.02 1671.14,1002.62 C1670.54,1002.52 1670.04,1002.52 1669.44,1002.52 C1665.94,1002.52 1662.14,1003.52 1658.64,1005.42 C1652.04,1009.02 1647.94,1014.92 1647.94,1020.02 C1647.94,1021.42 1648.14,1022.72 1648.84,1023.92 C1650.34,1026.62 1653.34,1028.32 1657.24,1028.72 C1657.84,1028.82 1658.34,1028.82 1658.94,1028.82 C1662.44,1028.82 1666.14,1027.82 1669.64,1025.92 C1676.24,1022.32 1680.44,1016.52 1680.44,1011.42 C1680.44,1010.02 1680.14,1008.62 1679.44,1007.42"/>
<path class="Note" d="M1853.83,969.919 C1852.33,967.219 1849.43,965.519 1845.53,965.119 C1844.93,965.019 1844.43,965.019 1843.83,965.019 C1840.33,965.019 1836.53,966.019 1833.03,967.919 C1826.43,971.519 1822.33,977.419 1822.33,982.519 C1822.33,983.919 1822.53,985.219 1823.23,986.419 C1824.73,989.119 1827.73,990.819 1831.63,991.219 C1832.23,991.319 1832.73,991.319 1833.33,991.319 C1836.83,991.319 1840.53,990.319 1844.03,988.419 C1850.63,984.819 1854.83,979.019 1854.83,973.919 C1854.83,972.519 1854.53,971.119 1853.83,969.919"/>
<path class="Note" d="M2028.21,944.917 C2026.71,942.217 2023.81,940.517 2019.91,940.117 C2019.31,940.017 2018.81,940.017 2018.21,940.017 C2014.71,940.017 2010.91,941.017 2007.41,942.917 C2000.81,946.517 1996.71,952.417 1996.71,957.517 C1996.71,958.917 1996.91,960.217 1997.61,961.417 C1999.11,964.117 2002.11,965.817 2006.01,966.217 C2006.61,966.317 2007.11,966.317 2007.71,966.317 C2011.21,966.317 2014.91,965.317 2018.41,963.417 C2025.01,959.817 2029.21,954.017 2029.21,948.917 C2029.21,947.517 2028.91,946.117 2028.21,944.917"/>
<path class="Note" d="M2248.35,969.919 C2246.85,967.219 2243.95,965.519 2240.05,965.119 C2239.45,965.019 2238.95,965.019 2238.35,965.019 C2234.85,965.019 2231.05,966.019 2227.55,967.919 C2220.95,971.519 2216.85,977.419 2216.85,982.519 C2216.85,983.919 2217.05,985.219 2217.75,986.419 C2219.25,989.119 2222.25,990.819 2226.15,991.219 C2226.75,991.319 2227.25,991.319 2227.85,991.319 C2231.35,991.319 2235.05,990.319 2238.55,988.419 C2245.15,984.819 2249.35,979.019 2249.35,973.919 C2249.35,972.519 2249.05,971.119 2248.35,969.919"/>
<path class="Note" d="M2429.44,944.917 C2427.94,942.217 2425.04,940.517 2421.14,940.117 C2420.54,940.017 2420.04,940.017 2419.44,940.017 C2415.94,940.017 2412.14,941.017 2408.64,942.917 C2402.04,946.517 2397.94,952.417 2397.94,957.517 C2397.94,958.917 2398.14,960.217 2398.84,961.417 C2400.34,964.117 2403.34,965.817 2407.24,966.217 C2407.84,966.317 2408.34,966.317 2408.94,966.317 C2412.44,966.317 2416.14,965.317 2419.64,963.417 C2426.24,959.817 2430.44,954.017 2430.44,948.917 C2430.44,947.517 2430.14,946.117 2429.44,944.917"/>
<path class="Note" d="M2610.54,919.916 C2609.04,917.216 2606.14,915.516 2602.24,915.116 C2601.64,915.016 2601.14,915.016 2600.54,915.016 C2597.04,915.016 2593.24,916.016 2589.74,917.916 C2583.14,921.516 2579.04,927.416 2579.04,932.516 C2579.04,933.916 2579.24,935.216 2579.94,936.416 C2581.44,939.116 2584.44,940.816 2588.34,941.216 C2588.94,941.316 2589.44,941.316 2590.04,941.316 C2593.54,941.316 2597.24,940.316 2600.74,938.416 C2607.34,934.816 2611.54,929.016 2611.54,923.916 C2611.54,922.516 2611.24,921.116 2610.54,919.916"/>
<path class="Note" d="M438.351,1532.45 C436.851,1529.75 433.951,1528.05 430.051,1527.65 C429.451,1527.55 428.951,1527.55 428.351,1527.55 C424.851,1527.55 421.051,1528.55 417.551,1530.45 C410.951,1534.05 406.851,1539.95 406.851,1545.05 C406.851,1546.45 407.051,1547.75 407.751,1548.95 C409.251,1551.65 412.251,1553.35 416.151,1553.75 C416.751,1553.85 417.251,1553.85 417.851,1553.85 C421.351,1553.85 425.051,1552.85 428.551,1550.95 C435.151,1547.35 439.351,1541.55 439.351,1536.45 C439.351,1535.05 439.051,1533.65 438.351,1532.45"/>
<path class="Note" d="M620.965,1557.46 C619.465,1554.76 616.565,1553.06 612.665,1552.66 C612.065,1552.56 611.565,1552.56 610.965,1552.56 C607.465,1552.56 603.665,1553.56 600.165,1555.46 C593.565,1559.06 589.465,1564.96 589.465,1570.06 C589.465,1571.46 589.665,1572.76 590.365,1573.96 C591.865,1576.66 594.865,1578.36 598.765,1578.76 C599.365,1578.86 599.865,1578.86 600.465,1578.86 C603.965,1578.86 607.665,1577.86 611.165,1575.96 C617.765,1572.36 621.965,1566.56 621.965,1561.46 C621.965,1560.06 621.665,1558.66 620.965,1557.46"/>
<path class="Note" d="M803.579,1582.46 C802.079,1579.76 799.179,1578.06 795.279,1577.66 C794.679,1577.56 794.179,1577.56 793.579,1577.56 C790.079,1577.56 786.279,1578.56 782.779,1580.46 C776.179,1584.06 772.079,1589.96 772.079,1595.06 C772.079,1596.46 772.279,1597.76 772.979,1598.96 C774.479,1601.66 777.479,1603.36 781.379,1603.76 C781.979,1603.86 782.479,1603.86 783.079,1603.86 C786.579,1603.86 790.279,1602.86 793.779,1600.96 C800.379,1597.36 804.579,1591.56 804.579,1586.46 C804.579,1585.06 804.279,1583.66 803.579,1582.46"/>
<path class="Note" d="M1031.95,1557.46 C1030.45,1554.76 1027.55,1553.06 1023.65,1552.66 C1023.05,1552.56 1022.55,1552.56 1021.95,1552.56 C1018.45,1552.56 1014.65,1553.56 1011.15,1555.46 C1004.55,1559.06 1000.45,1564.96 1000.45,1570.06 C1000.45,1571.46 1000.65,1572.76 1001.35,1573.96 C1002.85,1576.66 1005.85,1578.36 1009.75,1578.76 C1010.35,1578.86 1010.85,1578.86 1011.45,1578.86 C1014.95,1578.86 1018.65,1577.86 1022.15,1575.96 C1028.75,1572.36 1032.95,1566.56 1032.95,1561.46 C1032.95,1560.06 1032.65,1558.66 1031.95,1557.46"/>
<path class="Note" d="M1207.85,1582.46 C1206.35,1579.76 1203.45,1578.06 1199.55,1577.66 C1198.95,1577.56 1198.45,1577.56 1197.85,1577.56 C1194.35,1577.56 1190.55,1578.56 1187.05,1580.46 C1180.45,1584.06 1176.35,1589.96 1176.35,1595.06 C1176.35,1596.46 1176.55,1597.76 1177.25,1598.96 C1178.75,1601.66 1181.75,1603.36 1185.65,1603.76 C1186.25,1603.86 1186.75,1603.86 1187.35,1603.86 C1190.85,1603.86 1194.55,1602.86 1198.05,1600.96 C1204.65,1597.36 1208.85,1591.56 1208.85,1586.46 C1208.85,1585.06 1208.55,1583.66 1207.85,1582.46"/>
<path class="Note" d="M1383.76,1619.96 C1382.26,1617.26 1379.36,1615.56 1375.46,1615.16 C1374.86,1615.06 1374.36,1615.06 1373.76,1615.06 C1370.26,1615.06 1366.46,1616.06 1362.96,1617.96 C1356.36,1621.56 1352.26,1627.46 1352.26,1632.56 C1352.26,1633.96 1352.46,1635.26 1353.16,1636.46 C1354.66,1639.16 1357.66,1640.86 1361.56,1641.26 C1362.16,1641.36 1362.66,1641.36 1363.26,1641.36 C1366.76,1641.36 1370.46,1640.36 1373.96,1638.46 C1380.56,1634.86 1384.76,1629.06 1384.76,1623.96 C1384.76,1622.56 1384.46,1621.16 1383.76,1619.96"/>
<path class="Note" d="M1605.42,1582.46 C1603.92,1579.76 1601.02,1578.06 1597.12,1577.66 C1596.52,1577.56 1596.02,1577.56 1595.42,1577.56 C1591.92,1577.56 1588.12,1578.56 1584.62,1580.46 C1578.02,1584.06 1573.92,1589.96 1573.92,1595.06 C1573.92,1596.46 1574.12,1597.76 1574.82,1598.96 C1576.32,1601.66 1579.32,1603.36 1583.22,1603.76 C1583.82,1603.86 1584.32,1603.86 1584.92,1603.86 C1588.42,1603.86 1592.12,1602.86 1595.62,1600.96 C1602.22,1597.36 1606.42,1591.56 1606.42,1586.46 C1606.42,1585.06 1606.12,1583.66 1605.42,1582.46"/>
<path class="Note" d="M1774.61,1619.96 C1773.11,1617.26 1770.21,1615.56 1766.31,1615.16 C1765.71,1615.06 1765.21,1615.06 1764.61,1615.06 C1761.11,1615.06 1757.31,1616.06 1753.81,1617.96 C1747.21,1621.56 1743.11,1627.46 1743.11,1632.56 C1743.11,1633.96 1743.31,1635.26 1744.01,1636.46 C1745.51,1639.16 1748.51,1640.86 1752.41,1641.26 C1753.01,1641.36 1753.51,1641.36 1754.11,1641.36 C1757.61,1641.36 1761.31,1640.36 1764.81,1638.46 C1771.41,1634.86 1775.61,1629.06 1775.61,1623.96 C1775.61,1622.56 1775.31,1621.16 1774.61,1619.96"/>
<path class="Note" d="M1943.81,1644.96 C1942.31,1642.26 1939.41,1640.56 1935.51,1640.16 C1934.91,1640.06 1934.41,1640.06 1933.81,1640.06 C1930.31,1640.06 1926.51,1641.06 1923.01,1642.96 C1916.41,1646.56 1912.31,1652.46 1912.31,1657.56 C1912.31,1658.96 1912.51,1660.26 1913.21,1661.46 C1914.71,1664.16 1917.71,1665.86 1921.61,1666.26 C1922.21,1666.36 1922.71,1666.36 1923.31,1666.36 C1926.81,1666.36 1930.51,1665.36 1934.01,1663.46 C1940.61,1659.86 1944.81,1654.06 1944.81,1648.96 C1944.81,1647.56 1944.51,1646.16 1943.81,1644.96"/>
<path class="Note" d="M2236.41,1469.95 C2234.91,1467.25 2232.01,1465.55 2228.11,1465.15 C2227.51,1465.05 2227.01,1465.05 2226.41,1465.05 C2222.91,1465.05 2219.11,1466.05 2215.61,1467.95 C2209.01,1471.55 2204.91,1477.45 2204.91,1482.55 C2204.91,1483.95 2205.11,1485.25 2205.81,1486.45 C2207.31,1489.15 2210.31,1490.85 2214.21,1491.25 C2214.81,1491.35 2215.31,1491.35 2215.91,1491.35 C2219.41,1491.35 2223.11,1490.35 2226.61,1488.45 C2233.21,1484.85 2237.41,1479.05 2237.41,1473.95 C2237.41,1472.55 2237.11,1471.15 2236.41,1469.95"/>
<path class="Note" d="M2412.32,1494.95 C2410.82,1492.25 2407.92,1490.55 2404.02,1490.15 C2403.42,1490.05 2402.92,1490.05 2402.32,1490.05 C2398.82,1490.05 2395.02,1491.05 2391.52,1492.95 C2384.92,1496.55 2380.82,1502.45 2380.82,1507.55 C2380.82,1508.95 2381.02,1510.25 2381.72,1511.45 C2383.22,1514.15 2386.22,1515.85 2390.12,1516.25 C2390.72,1516.35 2391.22,1516.35 2391.82,1516.35 C2395.32,1516.35 2399.02,1515.35 2402.52,1513.45 C2409.12,1509.85 2413.32,1504.05 2413.32,1498.95 C2413.32,1497.55 2413.02,1496.15 2412.32,1494.95"/>
<path class="Note" d="M2588.22,1519.95 C2586.72,1517.25 2583.82,1515.55 2579.92,1515.15 C2579.32,1515.05 2578.82,1515.05 2578.22,1515.05 C2574.72,1515.05 2570.92,1516.05 2567.42,1517.95 C2560.82,1521.55 2556.72,1527.45 2556.72,1532.55 C2556.72,1533.95 2556.92,1535.25 2557.62,1536.45 C2559.12,1539.15 2562.12,1540.85 2566.02,1541.25 C2566.62,1541.35 2567.12,1541.35 2567.72,1541.35 C2571.22,1541.35 2574.92,1540.35 2578.42,1538.45 C2585.02,1534.85 2589.22,1529.05 2589.22,1523.95 C2589.22,1522.55 2588.92,1521.15 2588.22,1519.95"/>
<path class="Note" d="M486.502,707.402 C485.002,704.702 482.102,703.002 478.202,702.602 C477.602,702.502 477.102,702.502 476.502,702.502 C473.002,702.502 469.202,703.502 465.702,705.402 C459.102,709.002 455.002,714.902 455.002,720.002 C455.002,721.402 455.202,722.702 455.902,723.902 C457.402,726.602 460.402,728.302 464.302,728.702 C464.902,728.802 465.402,728.802 466.002,728.802 C469.502,728.802 473.202,727.802 476.702,725.902 C483.302,722.302 487.502,716.502 487.502,711.402 C487.502,710.002 487.202,708.602 486.502,707.402"/>
<path class="Note" d="M660.888,682.401 C659.388,679.701 656.488,678.001 652.588,677.601 C651.988,677.501 651.488,677.501 650.888,677.501 C647.388,677.501 643.588,678.501 640.088,680.401 C633.488,684.001 629.388,689.901 629.388,695.001 C629.388,696.401 629.588,697.701 630.288,698.901 C631.788,701.601 634.788,703.301 638.688,703.701 C639.288,703.801 639.788,703.801 640.388,703.801 C643.888,703.801 647.588,702.801 651.088,700.901 C657.688,697.301 661.888,691.501 661.888,686.401 C661.888,685.001 661.588,683.601 660.888,682.401"/>
<path class="Note" d="M835.273,657.399 C833.773,654.699 830.873,652.999 826.973,652.599 C826.373,652.499 825.873,652.499 825.273,652.499 C821.773,652.499 817.973,653.499 814.473,655.399 C807.873,658.999 803.773,664.899 803.773,669.999 C803.773,671.399 803.973,672.699 804.673,673.899 C806.173,676.599 809.173,678.299 813.073,678.699 C813.673,678.799 814.173,678.799 814.773,678.799 C818.273,678.799 821.973,677.799 825.473,675.899 C832.073,672.299 836.273,666.499 836.273,661.399 C836.273,659.999 835.973,658.599 835.273,657.399"/>
<path class="Note" d="M1139.41,682.401 C1137.91,679.701 1135.01,678.001 1131.11,677.601 C1130.51,677.501 1130.01,677.501 1129.41,677.501 C1125.91,677.501 1122.11,678.501 1118.61,680.401 C1112.01,684.001 1107.91,689.901 1107.91,695.001 C1107.91,696.401 1108.11,697.701 1108.81,698.901 C1110.31,701.601 1113.31,703.301 1117.21,703.701 C1117.81,703.801 1118.31,703.801 1118.91,703.801 C1122.41,703.801 1126.11,702.801 1129.61,700.901 C1136.21,697.301 1140.41,691.501 1140.41,686.401 C1140.41,685.001 1140.11,683.601 1139.41,682.401"/>
<path class="Note" d="M1307.08,657.399 C1305.58,654.699 1302.68,652.999 1298.78,652.599 C1298.18,652.499 1297.68,652.499 1297.08,652.499 C1293.58,652.499 1289.78,653.499 1286.28,655.399 C1279.68,658.999 1275.58,664.899 1275.58,669.999 C1275.58,671.399 1275.78,672.699 1276.48,673.899 C1277.98,676.599 1280.98,678.299 1284.88,678.699 C1285.48,678.799 1285.98,678.799 1286.58,678.799 C1290.08,678.799 1293.78,677.799 1297.28,675.899 C1303.88,672.299 1308.08,666.499 1308.08,661.399 C1308.08,659.999 1307.78,658.599 1307.08,657.399"/>
<path class="Note" d="M1474.76,619.897 C1473.26,617.197 1470.36,615.497 1466.46,615.097 C1465.86,614.997 1465.36,614.997 1464.76,614.997 C1461.26,614.997 1457.46,615.997 1453.96,617.897 C1447.36,621.497 1443.26,627.397 1443.26,632.497 C1443.26,633.897 1443.46,635.197 1444.16,636.397 C1445.66,639.097 1448.66,640.797 1452.56,641.197 C1453.16,641.297 1453.66,641.297 1454.26,641.297 C1457.76,641.297 1461.46,640.297 1464.96,638.397 C1471.56,634.797 1475.76,628.997 1475.76,623.897 C1475.76,622.497 1475.46,621.097 1474.76,619.897"/>
<path class="Note" d="M1679.44,657.399 C1677.94,654.699 1675.04,652.999 1671.14,652.599 C1670.54,652.499 1670.04,652.499 1669.44,652.499 C1665.94,652.499 1662.14,653.499 1658.64,655.399 C1652.04,658.999 1647.94,664.899 1647.94,669.999 C1647.94,671.399 1648.14,672.699 1648.84,673.899 C1650.34,676.599 1653.34,678.299 1657.24,678.699 C1657.84,678.799 1658.34,678.799 1658.94,678.799 C1662.44,678.799 1666.14,677.799 1669.64,675.899 C1676.24,672.299 1680.44,666.499 1680.44,661.399 C1680.44,659.999 1680.14,658.599 1679.44,657.399"/>
<path class="Note" d="M1853.83,619.897 C1852.33,617.197 1849.43,615.497 1845.53,615.097 C1844.93,614.997 1844.43,614.997 1843.83,614.997 C1840.33,614.997 1836.53,615.997 1833.03,617.897 C1826.43,621.497 1822.33,627.397 1822.33,632.497 C1822.33,633.897 1822.53,635.197 1823.23,636.397 C1824.73,639.097 1827.73,640.797 1831.63,641.197 C1832.23,641.297 1832.73,641.297 1833.33,641.297 C1836.83,641.297 1840.53,640.297 1844.03,638.397 C1850.63,634.797 1854.83,628.997 1854.83,623.897 C1854.83,622.497 1854.53,621.097 1853.83,619.897"/>
<path class="Note" d="M2028.21,594.895 C2026.71,592.195 2023.81,590.495 2019.91,590.095 C2019.31,589.995 2018.81,589.995 2018.21,589.995 C2014.71,589.995 2010.91,590.995 2007.41,592.895 C2000.81,596.495 1996.71,602.395 1996.71,607.495 C1996.71,608.895 1996.91,610.195 1997.61,611.395 C1999.11,614.095 2002.11,615.795 2006.01,616.195 C2006.61,616.295 2007.11,616.295 2007.71,616.295 C2011.21,616.295 2014.91,615.295 2018.41,613.395 C2025.01,609.795 2029.21,603.995 2029.21,598.895 C2029.21,597.495 2028.91,596.095 2028.21,594.895"/>
<path class="Note" d="M2248.35,619.897 C2246.85,617.197 2243.95,615.497 2240.05,615.097 C2239.45,614.997 2238.95,614.997 2238.35,614.997 C2234.85,614.997 2231.05,615.997 2227.55,617.897 C2220.95,621.497 2216.85,627.397 2216.85,632.497 C2216.85,633.897 2217.05,635.197 2217.75,636.397 C2219.25,639.097 2222.25,640.797 2226.15,641.197 C2226.75,641.297 2227.25,641.297 2227.85,641.297 C2231.35,641.297 2235.05,640.297 2238.55,638.397 C2245.15,634.797 2249.35,628.997 2249.35,623.897 C2249.35,622.497 2249.05,621.097 2248.35,619.897"/>
<path class="Note" d="M2429.44,594.895 C2427.94,592.195 2425.04,590.495 2421.14,590.095 C2420.54,589.995 2420.04,589.995 2419.44,589.995 C2415.94,589.995 2412.14,590.995 2408.64,592.895 C2402.04,596.495 2397.94,602.395 2397.94,607.495 C2397.94,608.895 2398.14,610.195 2398.84,611.395 C2400.34,614.095 2403.34,615.795 2407.24,616.195 C2407.84,616.295 2408.34,616.295 2408.94,616.295 C2412.44,616.295 2416.14,615.295 2419.64,613.395 C2426.24,609.795 2430.44,603.995 2430.44,598.895 C2430.44,597.495 2430.14,596.095 2429.44,594.895"/>
<path class="Note" d="M2610.54,569.894 C2609.04,567.194 2606.14,565.494 2602.24,565.094 C2601.64,564.994 2601.14,564.994 2600.54,564.994 C2597.04,564.994 2593.24,565.994 2589.74,567.894 C2583.14,571.494 2579.04,577.394 2579.04,582.494 C2579.04,583.894 2579.24,585.194 2579.94,586.394 C2581.44,589.094 2584.44,590.794 2588.34,591.194 C2588.94,591.294 2589.44,591.294 2590.04,591.294 C2593.54,591.294 2597.24,590.294 2600.74,588.394 C2607.34,584.794 2611.54,578.994 2611.54,573.894 C2611.54,572.494 2611.24,571.094 2610.54,569.894"/>
<path class="Note" d="M438.351,1182.43 C436.851,1179.73 433.951,1178.03 430.051,1177.63 C429.451,1177.53 428.951,1177.53 428.351,1177.53 C424.851,1177.53 421.051,1178.53 417.551,1180.43 C410.951,1184.03 406.851,1189.93 406.851,1195.03 C406.851,1196.43 407.051,1197.73 407.751,1198.93 C409.251,1201.63 412.251,1203.33 416.151,1203.73 C416.751,1203.83 417.251,1203.83 417.851,1203.83 C421.351,1203.83 425.051,1202.83 428.551,1200.93 C435.151,1197.33 439.351,1191.53 439.351,1186.43 C439.351,1185.03 439.051,1183.63 438.351,1182.43"/>
<path class="Note" d="M620.965,1207.43 C619.465,1204.73 616.565,1203.03 612.665,1202.63 C612.065,1202.53 611.565,1202.53 610.965,1202.53 C607.465,1202.53 603.665,1203.53 600.165,1205.43 C593.565,1209.03 589.465,1214.93 589.465,1220.03 C589.465,1221.43 589.665,1222.73 590.365,1223.93 C591.865,1226.63 594.865,1228.33 598.765,1228.73 C599.365,1228.83 599.865,1228.83 600.465,1228.83 C603.965,1228.83 607.665,1227.83 611.165,1225.93 C617.765,1222.33 621.965,1216.53 621.965,1211.43 C621.965,1210.03 621.665,1208.63 620.965,1207.43"/>
<path class="Note" d="M803.579,1232.44 C802.079,1229.74 799.179,1228.04 795.279,1227.64 C794.679,1227.54 794.179,1227.54 793.579,1227.54 C790.079,1227.54 786.279,1228.54 782.779,1230.44 C776.179,1234.04 772.079,1239.94 772.079,1245.04 C772.079,1246.44 772.279,1247.74 772.979,1248.94 C774.479,1251.64 777.479,1253.34 781.379,1253.74 C781.979,1253.84 782.479,1253.84 783.079,1253.84 C786.579,1253.84 790.279,1252.84 793.779,1250.94 C800.379,1247.34 804.579,1241.54 804.579,1236.44 C804.579,1235.04 804.279,1233.64 803.579,1232.44"/>
<path class="Note" d="M1031.95,1207.43 C1030.45,1204.73 1027.55,1203.03 1023.65,1202.63 C1023.05,1202.53 1022.55,1202.53 1021.95,1202.53 C1018.45,1202.53 1014.65,1203.53 1011.15,1205.43 C1004.55,1209.03 1000.45,1214.93 1000.45,1220.03 C1000.45,1221.43 1000.65,1222.73 1001.35,1223.93 C1002.85,1226.63 1005.85,1228.33 1009.75,1228.73 C1010.35,1228.83 1010.85,1228.83 1011.45,1228.83 C1014.95,1228.83 1018.65,1227.83 1022.15,1225.93 C1028.75,1222.33 1032.95,1216.53 1032.95,1211.43 C1032.95,1210.03 1032.65,1208.63 1031.95,1207.43"/>
<path class="Note" d="M1207.85,1232.44 C1206.35,1229.74 1203.45,1228.04 1199.55,1227.64 C1198.95,1227.54 1198.45,1227.54 1197.85,1227.54 C1194.35,1227.54 1190.55,1228.54 1187.05,1230.44 C1180.45,1234.04 1176.35,1239.94 1176.35,1245.04 C1176.35,1246.44 1176.55,1247.74 1177.25,1248.94 C1178.75,1251.64 1181.75,1253.34 1185.65,1253.74 C1186.25,1253.84 1186.75,1253.84 1187.35,1253.84 C1190.85,1253.84 1194.55,1252.84 1198.05,1250.94 C1204.65,1247.34 1208.85,1241.54 1208.85,1236.44 C1208.85,1235.04 1208.55,1233.64 1207.85,1232.44"/>
<path class="Note" d="M1383.76,1269.94 C1382.26,1267.24 1379.36,1265.54 1375.46,1265.14 C1374.86,1265.04 1374.36,1265.04 1373.76,1265.04 C1370.26,1265.04 1366.46,1266.04 1362.96,1267.94 C1356.36,1271.54 1352.26,1277.44 1352.26,1282.54 C1352.26,1283.94 1352.46,1285.24 1353.16,1286.44 C1354.66,1289.14 1357.66,1290.84 1361.56,1291.24 C1362.16,1291.34 1362.66,1291.34 1363.26,1291.34 C1366.76,1291.34 1370.46,1290.34 1373.96,1288.44 C1380.56,1284.84 1384.76,1279.04 1384.76,1273.94 C1384.76,1272.54 1384.46,1271.14 1383.76,1269.94"/>
<path class="Note" d="M1605.42,1232.44 C1603.92,1229.74 1601.02,1228.04 1597.12,1227.64 C1596.52,1227.54 1596.02,1227.54 1595.42,1227.54 C1591.92,1227.54 1588.12,1228.54 1584.62,1230.44 C1578.02,1234.04 1573.92,1239.94 1573.92,1245.04 C1573.92,1246.44 1574.12,1247.74 1574.82,1248.94 C1576.32,1251.64 1579.32,1253.34 1583.22,1253.74 C1583.82,1253.84 1584.32,1253.84 1584.92,1253.84 C1588.42,1253.84 1592.12,1252.84 1595.62,1250.94 C1602.22,1247.34 1606.42,1241.54 1606.42,1236.44 C1606.42,1235.04 1606.12,1233.64 1605.42,1232.44"/>
<path class="Note" d="M1774.61,1269.94 C1773.11,1267.24 1770.21,1265.54 1766.31,1265.14 C1765.71,1265.04 1765.21,1265.04 1764.61,1265.04 C1761.11,1265.04 1757.31,1266.04 1753.81,1267.94 C1747.21,1271.54 1743.11,1277.44 1743.11,1282.54 C1743.11,1283.94 1743.31,1285.24 1744.01,1286.44 C1745.51,1289.14 1748.51,1290.84 1752.41,1291.24 C1753.01,1291.34 1753.51,1291.34 1754.11,1291.34 C1757.61,1291.34 1761.31,1290.34 1764.81,1288.44 C1771.41,1284.84 1775.61,1279.04 1775.61,1273.94 C1775.61,1272.54 1775.31,1271.14 1774.61,1269.94"/>
<path class="Note" d="M1943.81,1294.94 C1942.31,1292.24 1939.41,1290.54 1935.51,1290.14 C1934.91,1290.04 1934.41,1290.04 1933.81,1290.04 C1930.31,1290.04 1926.51,1291.04 1923.01,1292.94 C1916.41,1296.54 1912.31,1302.44 1912.31,1307.54 C1912.31,1308.94 1912.51,1310.24 1913.21,1311.44 C1914.71,1314.14 1917.71,1315.84 1921.61,1316.24 C1922.21,1316.34 1922.71,1316.34 1923.31,1316.34 C1926.81,1316.34 1930.51,1315.34 1934.01,1313.44 C1940.61,1309.84 1944.81,1304.04 1944.81,1298.94 C1944.81,1297.54 1944.51,1296.14 1943.81,1294.94"/>
<path class="Note" d="M2236.41,1269.94 C2234.91,1267.24 2232.01,1265.54 2228.11,1265.14 C2227.51,1265.04 2227.01,1265.04 2226.41,1265.04 C2222.91,1265.04 2219.11,1266.04 2215.61,1267.94 C2209.01,1271.54 2204.91,1277.44 2204.91,1282.54 C2204.91,1283.94 2205.11,1285.24 2205.81,1286.44 C2207.31,1289.14 2210.31,1290.84 2214.21,1291.24 C2214.81,1291.34 2215.31,1291.34 2215.91,1291.34 C2219.41,1291.34 2223.11,1290.34 2226.61,1288.44 C2233.21,1284.84 2237.41,1279.04 2237.41,1273.94 C2237.41,1272.54 2237.11,1271.14 2236.41,1269.94"/>
<path class="Note" d="M2412.32,1294.94 C2410.82,1292.24 2407.92,1290.54 2404.02,1290.14 C2403.42,1290.04 2402.92,1290.04 2402.32,1290.04 C2398.82,1290.04 2395.02,1291.04 2391.52,1292.94 C2384.92,1296.54 2380.82,1302.44 2380.82,1307.54 C2380.82,1308.94 2381.02,1310.24 2381.72,1311.44 C2383.22,1314.14 2386.22,1315.84 2390.12,1316.24 C2390.72,1316.34 2391.22,1316.34 2391.82,1316.34 C2395.32,1316.34 2399.02,1315.34 2402.52,1313.44 C2409.12,1309.84 2413.32,1304.04 2413.32,1298.94 C2413.32,1297.54 2413.02,1296.14 2412.32,1294.94"/>
<path class="Note" d="M2588.22,1319.94 C2586.72,1317.24 2583.82,1315.54 2579.92,1315.14 C2579.32,1315.04 2578.82,1315.04 2578.22,1315.04 C2574.72,1315.04 2570.92,1316.04 2567.42,1317.94 C2560.82,1321.54 2556.72,1327.44 2556.72,1332.54 C2556.72,1333.94 2556.92,1335.24 2557.62,1336.44 C2559.12,1339.14 2562.12,1340.84 2566.02,1341.24 C2566.62,1341.34 2567.12,1341.34 2567.72,1341.34 C2571.22,1341.34 2574.92,1340.34 2578.42,1338.44 C2585.02,1334.84 2589.22,1329.04 2589.22,1323.94 C2589.22,1322.54 2588.92,1321.14 2588.22,1319.94"/>
<path class="Clef" d="M297,915.517 C289.4,915.517 283.3,919.917 283.2,919.917 C277.4,924.217 275.1,929.317 274.2,932.817 C273.7,934.617 273.5,936.417 273.5,938.117 C273.5,940.517 273.9,942.717 274.8,944.617 C276,947.317 278.3,949.217 281.3,950.217 C282.5,950.617 283.8,950.817 285.1,950.817 C287.3,950.817 289.6,950.217 291.5,949.117 C294.6,947.417 296.5,943.817 296.5,939.917 C296.5,936.417 294.7,933.217 291.7,931.317 C289.6,929.917 287.6,929.517 285.9,929.517 C284.7,929.517 283.6,929.717 282.7,930.017 C281.7,930.417 280,931.417 279.2,932.117 C279.5,930.217 280.7,927.317 281.8,925.717 C282.9,924.117 285.1,922.117 286.8,921.217 C289.3,919.817 292.5,919.217 296,919.217 C306.2,919.217 311.2,927.417 311.2,944.217 C311.2,953.517 307.7,962.417 304.7,968.317 C301.4,974.917 297,981.217 293.1,984.717 C282.7,994.217 272.9,998.717 272.8,998.717 C272.8,998.717 271.3,999.617 271.7,1001.12 C272,1002.12 272.9,1002.32 273.5,1002.32 C273.6,1002.32 273.9,1002.22 274,1002.22 C274.1,1002.22 285.5,997.517 294.6,990.417 C299.7,986.717 304.3,982.717 308.3,978.417 C311.9,974.517 315,970.317 317.5,966.117 C321.9,958.617 324.4,950.817 324.4,944.117 C324.4,935.817 322.2,928.917 318.1,924.017 C313.4,918.417 306.3,915.517 297,915.517 M328.4,928.217 C328.4,931.017 330.6,933.217 333.2,933.217 C335.8,933.217 338,931.017 338,928.217 C338,925.417 335.8,923.117 333.2,923.117 C330.6,923.117 328.4,925.417 328.4,928.217 M328.4,952.917 C328.4,955.717 330.6,958.017 333.2,958.017 C335.8,958.017 338,955.717 338,952.917 C338,950.117 335.8,947.817 333.2,947.817 C330.6,947.817 328.4,950.117 328.4,952.917"/>
<path class="Clef" d="M1066.06,984.72 C1064.86,979.32 1062.16,975.42 1061.36,974.42 C1058.16,970.12 1054.16,967.32 1049.46,965.92 C1047.16,965.22 1045.06,965.02 1043.06,965.02 C1042.36,965.02 1041.66,965.02 1040.96,965.12 C1039.96,959.12 1038.86,953.22 1037.96,947.82 C1043.56,941.62 1047.26,935.72 1049.66,931.32 C1053.26,924.62 1054.66,919.92 1054.76,919.72 C1055.96,916.72 1056.66,912.92 1056.66,908.42 C1056.66,905.72 1056.36,902.82 1055.96,899.82 C1054.86,892.72 1052.66,886.02 1050.16,882.32 C1048.86,880.42 1047.66,879.32 1046.46,879.32 C1045.26,879.32 1042.76,880.52 1039.86,883.32 C1037.56,885.52 1034.26,889.42 1031.66,895.42 C1029.36,900.82 1028.66,907.72 1028.66,913.62 C1028.66,915.42 1028.76,917.12 1028.86,918.72 C1029.06,922.32 1029.76,928.12 1030.36,931.72 C1030.36,931.82 1030.66,933.32 1031.06,935.92 L1030.36,936.62 C1029.36,937.62 1028.16,938.72 1026.76,940.12 C1025.86,941.02 1024.96,941.82 1023.96,942.82 C1015.46,951.02 1002.66,963.42 1002.66,982.52 C1002.66,987.22 1003.56,991.62 1005.36,995.62 C1006.96,999.22 1009.26,1002.52 1012.16,1005.42 C1019.66,1012.82 1029.86,1016.02 1036.96,1016.02 L1037.56,1016.02 C1040.46,1015.92 1043.16,1015.62 1045.56,1015.22 C1047.36,1024.82 1048.56,1031.92 1048.56,1037.22 C1048.56,1043.72 1046.96,1047.62 1043.06,1050.42 C1040.66,1052.12 1037.76,1053.22 1034.66,1053.32 L1033.86,1053.32 C1032.36,1053.32 1029.86,1052.92 1028.36,1052.52 C1028.36,1052.52 1028.06,1052.42 1028.06,1052.22 C1028.06,1052.02 1028.46,1052.02 1028.46,1052.02 C1030.36,1051.62 1033.96,1050.32 1036.36,1047.02 C1037.46,1045.52 1038.16,1043.22 1038.16,1040.72 C1038.16,1039.12 1037.86,1037.42 1037.16,1035.92 C1036.06,1033.52 1033.46,1030.52 1027.86,1030.12 L1026.76,1030.12 C1024.66,1030.12 1022.86,1030.62 1021.16,1031.62 C1019.36,1032.72 1017.76,1034.42 1016.76,1036.42 C1015.66,1038.42 1015.16,1040.62 1015.16,1042.82 C1015.16,1045.72 1016.06,1048.42 1017.86,1050.62 C1020.86,1054.22 1025.56,1056.52 1030.96,1057.12 C1031.66,1057.22 1032.76,1057.32 1033.46,1057.32 C1037.86,1057.32 1042.26,1056.12 1045.86,1053.92 C1049.56,1051.32 1051.66,1047.32 1052.36,1041.72 C1052.56,1040.42 1052.56,1039.02 1052.56,1037.52 C1052.56,1033.62 1052.06,1028.92 1051.06,1023.12 C1050.66,1021.02 1050.26,1018.02 1049.56,1014.22 C1055.36,1012.32 1059.46,1008.62 1063.26,1002.82 C1065.56,998.82 1066.66,994.72 1066.66,990.42 C1066.66,988.52 1066.46,986.62 1066.06,984.72 M1035.86,906.82 C1037.66,901.12 1040.36,897.72 1042.36,896.02 C1044.16,894.52 1045.76,893.82 1046.66,893.82 C1046.76,893.82 1046.96,893.92 1047.06,893.92 C1047.36,894.02 1047.76,894.52 1048.16,895.22 C1049.06,897.02 1049.96,900.32 1049.96,904.02 C1049.96,905.92 1049.76,907.92 1049.16,909.72 C1046.96,916.52 1042.36,923.82 1035.36,931.52 C1035.16,930.42 1034.96,929.42 1034.86,928.42 C1034.36,925.22 1034.06,922.02 1034.06,919.12 C1034.06,914.62 1034.66,910.52 1035.86,906.82 M1031.86,1010.92 C1027.26,1009.72 1022.76,1007.22 1018.96,1003.72 C1017.66,1002.52 1015.86,1000.32 1014.36,996.92 C1013.06,993.92 1012.36,990.82 1012.36,987.42 L1012.36,986.72 C1012.46,982.02 1013.76,977.22 1016.26,972.42 C1019.16,966.82 1023.66,961.32 1029.76,956.02 C1031.26,954.72 1032.66,953.42 1033.96,952.12 C1034.76,956.42 1035.46,961.12 1036.36,966.02 C1032.46,967.32 1027.76,970.32 1024.66,976.02 C1022.26,980.52 1021.56,984.42 1021.56,987.62 C1021.56,989.12 1021.76,990.52 1021.96,991.62 C1022.86,996.12 1025.46,999.82 1028.96,1001.92 C1029.76,1002.42 1033.06,1004.12 1035.06,1004.12 C1035.36,1004.12 1035.66,1004.12 1035.86,1004.02 C1036.16,1003.92 1036.46,1003.72 1036.56,1003.42 C1036.66,1003.22 1036.66,1003.02 1036.66,1002.82 C1036.66,1002.02 1035.86,1001.42 1034.56,1000.62 C1033.96,1000.22 1033.26,999.82 1032.56,999.32 C1029.96,997.32 1028.46,994.22 1028.46,990.82 C1028.46,989.82 1028.66,988.92 1028.86,987.92 C1029.36,985.92 1031.06,983.12 1032.56,981.72 C1034.26,980.22 1036.26,979.02 1038.66,978.42 C1040.66,989.62 1042.76,1000.72 1044.36,1009.12 C1044.46,1009.82 1044.66,1010.52 1044.76,1011.22 C1042.76,1011.62 1040.76,1011.82 1038.86,1011.82 C1036.46,1011.82 1034.16,1011.52 1031.86,1010.92 M1057.56,1000.72 C1056.36,1003.92 1053.86,1007.92 1048.76,1010.02 C1048.66,1009.62 1048.66,1009.12 1048.56,1008.72 C1047.06,999.92 1045.16,989.02 1043.16,977.72 L1044.16,977.72 C1053.86,977.72 1057.76,984.92 1058.66,989.52 C1058.86,990.42 1058.96,991.62 1058.96,992.92 C1058.96,995.22 1058.56,998.02 1057.56,1000.72"/>
<path class="Clef" d="M335,1597.26 C333.8,1591.86 331.1,1587.96 330.3,1586.96 C327.1,1582.66 323.1,1579.86 318.4,1578.46 C316.1,1577.76 314,1577.56 312,1577.56 C311.3,1577.56 310.6,1577.56 309.9,1577.66 C308.9,1571.66 307.8,1565.76 306.9,1560.36 C312.5,1554.16 316.2,1548.26 318.6,1543.86 C322.2,1537.16 323.6,1532.46 323.7,1532.26 C324.9,1529.26 325.6,1525.46 325.6,1520.96 C325.6,1518.26 325.3,1515.36 324.9,1512.36 C323.8,1505.26 321.6,1498.56 319.1,1494.86 C317.8,1492.96 316.6,1491.86 315.4,1491.86 C314.2,1491.86 311.7,1493.06 308.8,1495.86 C306.5,1498.06 303.2,1501.96 300.6,1507.96 C298.3,1513.36 297.6,1520.26 297.6,1526.16 C297.6,1527.96 297.7,1529.66 297.8,1531.26 C298,1534.86 298.7,1540.66 299.3,1544.26 C299.3,1544.36 299.6,1545.86 300,1548.46 L299.3,1549.16 C298.3,1550.16 297.1,1551.26 295.7,1552.66 C294.8,1553.56 293.9,1554.36 292.9,1555.36 C284.4,1563.56 271.6,1575.96 271.6,1595.06 C271.6,1599.76 272.5,1604.16 274.3,1608.16 C275.9,1611.76 278.2,1615.06 281.1,1617.96 C288.6,1625.36 298.8,1628.56 305.9,1628.56 L306.5,1628.56 C309.4,1628.46 312.1,1628.16 314.5,1627.76 C316.3,1637.36 317.5,1644.46 317.5,1649.76 C317.5,1656.26 315.9,1660.16 312,1662.96 C309.6,1664.66 306.7,1665.76 303.6,1665.86 L302.8,1665.86 C301.3,1665.86 298.8,1665.46 297.3,1665.06 C297.3,1665.06 297,1664.96 297,1664.76 C297,1664.56 297.4,1664.56 297.4,1664.56 C299.3,1664.16 302.9,1662.86 305.3,1659.56 C306.4,1658.06 307.1,1655.76 307.1,1653.26 C307.1,1651.66 306.8,1649.96 306.1,1648.46 C305,1646.06 302.4,1643.06 296.8,1642.66 L295.7,1642.66 C293.6,1642.66 291.8,1643.16 290.1,1644.16 C288.3,1645.26 286.7,1646.96 285.7,1648.96 C284.6,1650.96 284.1,1653.16 284.1,1655.36 C284.1,1658.26 285,1660.96 286.8,1663.16 C289.8,1666.76 294.5,1669.06 299.9,1669.66 C300.6,1669.76 301.7,1669.86 302.4,1669.86 C306.8,1669.86 311.2,1668.66 314.8,1666.46 C318.5,1663.86 320.6,1659.86 321.3,1654.26 C321.5,1652.96 321.5,1651.56 321.5,1650.06 C321.5,1646.16 321,1641.46 320,1635.66 C319.6,1633.56 319.2,1630.56 318.5,1626.76 C324.3,1624.86 328.4,1621.16 332.2,1615.36 C334.5,1611.36 335.6,1607.26 335.6,1602.96 C335.6,1601.06 335.4,1599.16 335,1597.26 M304.8,1519.36 C306.6,1513.66 309.3,1510.26 311.3,1508.56 C313.1,1507.06 314.7,1506.36 315.6,1506.36 C315.7,1506.36 315.9,1506.46 316,1506.46 C316.3,1506.56 316.7,1507.06 317.1,1507.76 C318,1509.56 318.9,1512.86 318.9,1516.56 C318.9,1518.46 318.7,1520.46 318.1,1522.26 C315.9,1529.06 311.3,1536.36 304.3,1544.06 C304.1,1542.96 303.9,1541.96 303.8,1540.96 C303.3,1537.76 303,1534.56 303,1531.66 C303,1527.16 303.6,1523.06 304.8,1519.36 M300.8,1623.46 C296.2,1622.26 291.7,1619.76 287.9,1616.26 C286.6,1615.06 284.8,1612.86 283.3,1609.46 C282,1606.46 281.3,1603.36 281.3,1599.96 L281.3,1599.26 C281.4,1594.56 282.7,1589.76 285.2,1584.96 C288.1,1579.36 292.6,1573.86 298.7,1568.56 C300.2,1567.26 301.6,1565.96 302.9,1564.66 C303.7,1568.96 304.4,1573.66 305.3,1578.56 C301.4,1579.86 296.7,1582.86 293.6,1588.56 C291.2,1593.06 290.5,1596.96 290.5,1600.16 C290.5,1601.66 290.7,1603.06 290.9,1604.16 C291.8,1608.66 294.4,1612.36 297.9,1614.46 C298.7,1614.96 302,1616.66 304,1616.66 C304.3,1616.66 304.6,1616.66 304.8,1616.56 C305.1,1616.46 305.4,1616.26 305.5,1615.96 C305.6,1615.76 305.6,1615.56 305.6,1615.36 C305.6,1614.56 304.8,1613.96 303.5,1613.16 C302.9,1612.76 302.2,1612.36 301.5,1611.86 C298.9,1609.86 297.4,1606.76 297.4,1603.36 C297.4,1602.36 297.6,1601.46 297.8,1600.46 C298.3,1598.46 300,1595.66 301.5,1594.26 C303.2,1592.76 305.2,1591.56 307.6,1590.96 C309.6,1602.16 311.7,1613.26 313.3,1621.66 C313.4,1622.36 313.6,1623.06 313.7,1623.76 C311.7,1624.16 309.7,1624.36 307.8,1624.36 C305.4,1624.36 303.1,1624.06 300.8,1623.46 M326.5,1613.26 C325.3,1616.46 322.8,1620.46 317.7,1622.56 C317.6,1622.16 317.6,1621.66 317.5,1621.26 C316,1612.46 314.1,1601.56 312.1,1590.26 L313.1,1590.26 C322.8,1590.26 326.7,1597.46 327.6,1602.06 C327.8,1602.96 327.9,1604.16 327.9,1605.46 C327.9,1607.76 327.5,1610.56 326.5,1613.26"/>
<path class="Clef" d="M2131.41,1528.06 C2123.81,1528.06 2117.71,1532.46 2117.61,1532.46 C2111.81,1536.76 2109.51,1541.86 2108.61,1545.36 C2108.11,1547.16 2107.91,1548.96 2107.91,1550.66 C2107.91,1553.06 2108.31,1555.26 2109.21,1557.16 C2110.41,1559.86 2112.71,1561.76 2115.71,1562.76 C2116.91,1563.16 2118.21,1563.36 2119.51,1563.36 C2121.71,1563.36 2124.01,1562.76 2125.91,1561.66 C2129.01,1559.96 2130.91,1556.36 2130.91,1552.46 C2130.91,1548.96 2129.11,1545.76 2126.11,1543.86 C2124.01,1542.46 2122.01,1542.06 2120.31,1542.06 C2119.11,1542.06 2118.01,1542.26 2117.11,1542.56 C2116.11,1542.96 2114.41,1543.96 2113.61,1544.66 C2113.91,1542.76 2115.11,1539.86 2116.21,1538.26 C2117.31,1536.66 2119.51,1534.66 2121.21,1533.76 C2123.71,1532.36 2126.91,1531.76 2130.41,1531.76 C2140.61,1531.76 2145.61,1539.96 2145.61,1556.76 C2145.61,1566.06 2142.11,1574.96 2139.11,1580.86 C2135.81,1587.46 2131.41,1593.76 2127.51,1597.26 C2117.11,1606.76 2107.31,1611.26 2107.21,1611.26 C2107.21,1611.26 2105.71,1612.16 2106.11,1613.66 C2106.41,1614.66 2107.31,1614.86 2107.91,1614.86 C2108.01,1614.86 2108.31,1614.76 2108.41,1614.76 C2108.51,1614.76 2119.91,1610.06 2129.01,1602.96 C2134.11,1599.26 2138.71,1595.26 2142.71,1590.96 C2146.31,1587.06 2149.41,1582.86 2151.91,1578.66 C2156.31,1571.16 2158.81,1563.36 2158.81,1556.66 C2158.81,1548.36 2156.61,1541.46 2152.51,1536.56 C2147.81,1530.96 2140.71,1528.06 2131.41,1528.06 M2162.81,1540.76 C2162.81,1543.56 2165.01,1545.76 2167.61,1545.76 C2170.21,1545.76 2172.41,1543.56 2172.41,1540.76 C2172.41,1537.96 2170.21,1535.66 2167.61,1535.66 C2165.01,1535.66 2162.81,1537.96 2162.81,1540.76 M2162.81,1565.46 C2162.81,1568.26 2165.01,1570.56 2167.61,1570.56 C2170.21,1570.56 2172.41,1568.26 2172.41,1565.46 C2172.41,1562.66 2170.21,1560.36 2167.61,1560.36 C2165.01,1560.36 2162.81,1562.66 2162.81,1565.46"/>
<path class="Clef" d="M335,722.203 C333.8,716.803 331.1,712.903 330.3,711.903 C327.1,707.603 323.1,704.803 318.4,703.403 C316.1,702.703 314,702.503 312,702.503 C311.3,702.503 310.6,702.503 309.9,702.603 C308.9,696.603 307.8,690.703 306.9,685.303 C312.5,679.103 316.2,673.203 318.6,668.803 C322.2,662.103 323.6,657.403 323.7,657.203 C324.9,654.203 325.6,650.403 325.6,645.903 C325.6,643.203 325.3,640.303 324.9,637.303 C323.8,630.203 321.6,623.503 319.1,619.803 C317.8,617.903 316.6,616.803 315.4,616.803 C314.2,616.803 311.7,618.003 308.8,620.803 C306.5,623.003 303.2,626.903 300.6,632.903 C298.3,638.303 297.6,645.203 297.6,651.103 C297.6,652.903 297.7,654.603 297.8,656.203 C298,659.803 298.7,665.603 299.3,669.203 C299.3,669.303 299.6,670.803 300,673.403 L299.3,674.103 C298.3,675.103 297.1,676.203 295.7,677.603 C294.8,678.503 293.9,679.303 292.9,680.303 C284.4,688.503 271.6,700.903 271.6,720.003 C271.6,724.703 272.5,729.103 274.3,733.103 C275.9,736.703 278.2,740.003 281.1,742.903 C288.6,750.303 298.8,753.503 305.9,753.503 L306.5,753.503 C309.4,753.403 312.1,753.103 314.5,752.703 C316.3,762.303 317.5,769.403 317.5,774.703 C317.5,781.203 315.9,785.103 312,787.903 C309.6,789.603 306.7,790.703 303.6,790.803 L302.8,790.803 C301.3,790.803 298.8,790.403 297.3,790.003 C297.3,790.003 297,789.903 297,789.703 C297,789.503 297.4,789.503 297.4,789.503 C299.3,789.103 302.9,787.803 305.3,784.503 C306.4,783.003 307.1,780.703 307.1,778.203 C307.1,776.603 306.8,774.903 306.1,773.403 C305,771.003 302.4,768.003 296.8,767.603 L295.7,767.603 C293.6,767.603 291.8,768.103 290.1,769.103 C288.3,770.203 286.7,771.903 285.7,773.903 C284.6,775.903 284.1,778.103 284.1,780.303 C284.1,783.203 285,785.903 286.8,788.103 C289.8,791.703 294.5,794.003 299.9,794.603 C300.6,794.703 301.7,794.803 302.4,794.803 C306.8,794.803 311.2,793.603 314.8,791.403 C318.5,788.803 320.6,784.803 321.3,779.203 C321.5,777.903 321.5,776.503 321.5,775.003 C321.5,771.103 321,766.403 320,760.603 C319.6,758.503 319.2,755.503 318.5,751.703 C324.3,749.803 328.4,746.103 332.2,740.303 C334.5,736.303 335.6,732.203 335.6,727.903 C335.6,726.003 335.4,724.103 335,722.203 M304.8,644.303 C306.6,638.603 309.3,635.203 311.3,633.503 C313.1,632.003 314.7,631.303 315.6,631.303 C315.7,631.303 315.9,631.403 316,631.403 C316.3,631.503 316.7,632.003 317.1,632.703 C318,634.503 318.9,637.803 318.9,641.503 C318.9,643.403 318.7,645.403 318.1,647.203 C315.9,654.003 311.3,661.303 304.3,669.003 C304.1,667.903 303.9,666.903 303.8,665.903 C303.3,662.703 303,659.503 303,656.603 C303,652.103 303.6,648.003 304.8,644.303 M300.8,748.403 C296.2,747.203 291.7,744.703 287.9,741.203 C286.6,740.003 284.8,737.803 283.3,734.403 C282,731.403 281.3,728.303 281.3,724.903 L281.3,724.203 C281.4,719.503 282.7,714.703 285.2,709.903 C288.1,704.303 292.6,698.803 298.7,693.503 C300.2,692.203 301.6,690.903 302.9,689.603 C303.7,693.903 304.4,698.603 305.3,703.503 C301.4,704.803 296.7,707.803 293.6,713.503 C291.2,718.003 290.5,721.903 290.5,725.103 C290.5,726.603 290.7,728.003 290.9,729.103 C291.8,733.603 294.4,737.303 297.9,739.403 C298.7,739.903 302,741.603 304,741.603 C304.3,741.603 304.6,741.603 304.8,741.503 C305.1,741.403 305.4,741.203 305.5,740.903 C305.6,740.703 305.6,740.503 305.6,740.303 C305.6,739.503 304.8,738.903 303.5,738.103 C302.9,737.703 302.2,737.303 301.5,736.803 C298.9,734.803 297.4,731.703 297.4,728.303 C297.4,727.303 297.6,726.403 297.8,725.403 C298.3,723.403 300,720.603 301.5,719.203 C303.2,717.703 305.2,716.503 307.6,715.903 C309.6,727.103 311.7,738.203 313.3,746.603 C313.4,747.303 313.6,748.003 313.7,748.703 C311.7,749.103 309.7,749.303 307.8,749.303 C305.4,749.303 303.1,749.003 300.8,748.403 M326.5,738.203 C325.3,741.403 322.8,745.403 317.7,747.503 C317.6,747.103 317.6,746.603 317.5,746.203 C316,737.403 314.1,726.503 312.1,715.203 L313.1,715.203 C322.8,715.203 326.7,722.403 327.6,727.003 C327.8,727.903 327.9,729.103 327.9,730.403 C327.9,732.703 327.5,735.503 326.5,738.203"/>
<path class="Clef" d="M335,1334.74 C333.8,1329.34 331.1,1325.44 330.3,1324.44 C327.1,1320.14 323.1,1317.34 318.4,1315.94 C316.1,1315.24 314,1315.04 312,1315.04 C311.3,1315.04 310.6,1315.04 309.9,1315.14 C308.9,1309.14 307.8,1303.24 306.9,1297.84 C312.5,1291.64 316.2,1285.74 318.6,1281.34 C322.2,1274.64 323.6,1269.94 323.7,1269.74 C324.9,1266.74 325.6,1262.94 325.6,1258.44 C325.6,1255.74 325.3,1252.84 324.9,1249.84 C323.8,1242.74 321.6,1236.04 319.1,1232.34 C317.8,1230.44 316.6,1229.34 315.4,1229.34 C314.2,1229.34 311.7,1230.54 308.8,1233.34 C306.5,1235.54 303.2,1239.44 300.6,1245.44 C298.3,1250.84 297.6,1257.74 297.6,1263.64 C297.6,1265.44 297.7,1267.14 297.8,1268.74 C298,1272.34 298.7,1278.14 299.3,1281.74 C299.3,1281.84 299.6,1283.34 300,1285.94 L299.3,1286.64 C298.3,1287.64 297.1,1288.74 295.7,1290.14 C294.8,1291.04 293.9,1291.84 292.9,1292.84 C284.4,1301.04 271.6,1313.44 271.6,1332.54 C271.6,1337.24 272.5,1341.64 274.3,1345.64 C275.9,1349.24 278.2,1352.54 281.1,1355.44 C288.6,1362.84 298.8,1366.04 305.9,1366.04 L306.5,1366.04 C309.4,1365.94 312.1,1365.64 314.5,1365.24 C316.3,1374.84 317.5,1381.94 317.5,1387.24 C317.5,1393.74 315.9,1397.64 312,1400.44 C309.6,1402.14 306.7,1403.24 303.6,1403.34 L302.8,1403.34 C301.3,1403.34 298.8,1402.94 297.3,1402.54 C297.3,1402.54 297,1402.44 297,1402.24 C297,1402.04 297.4,1402.04 297.4,1402.04 C299.3,1401.64 302.9,1400.34 305.3,1397.04 C306.4,1395.54 307.1,1393.24 307.1,1390.74 C307.1,1389.14 306.8,1387.44 306.1,1385.94 C305,1383.54 302.4,1380.54 296.8,1380.14 L295.7,1380.14 C293.6,1380.14 291.8,1380.64 290.1,1381.64 C288.3,1382.74 286.7,1384.44 285.7,1386.44 C284.6,1388.44 284.1,1390.64 284.1,1392.84 C284.1,1395.74 285,1398.44 286.8,1400.64 C289.8,1404.24 294.5,1406.54 299.9,1407.14 C300.6,1407.24 301.7,1407.34 302.4,1407.34 C306.8,1407.34 311.2,1406.14 314.8,1403.94 C318.5,1401.34 320.6,1397.34 321.3,1391.74 C321.5,1390.44 321.5,1389.04 321.5,1387.54 C321.5,1383.64 321,1378.94 320,1373.14 C319.6,1371.04 319.2,1368.04 318.5,1364.24 C324.3,1362.34 328.4,1358.64 332.2,1352.84 C334.5,1348.84 335.6,1344.74 335.6,1340.44 C335.6,1338.54 335.4,1336.64 335,1334.74 M304.8,1256.84 C306.6,1251.14 309.3,1247.74 311.3,1246.04 C313.1,1244.54 314.7,1243.84 315.6,1243.84 C315.7,1243.84 315.9,1243.94 316,1243.94 C316.3,1244.04 316.7,1244.54 317.1,1245.24 C318,1247.04 318.9,1250.34 318.9,1254.04 C318.9,1255.94 318.7,1257.94 318.1,1259.74 C315.9,1266.54 311.3,1273.84 304.3,1281.54 C304.1,1280.44 303.9,1279.44 303.8,1278.44 C303.3,1275.24 303,1272.04 303,1269.14 C303,1264.64 303.6,1260.54 304.8,1256.84 M300.8,1360.94 C296.2,1359.74 291.7,1357.24 287.9,1353.74 C286.6,1352.54 284.8,1350.34 283.3,1346.94 C282,1343.94 281.3,1340.84 281.3,1337.44 L281.3,1336.74 C281.4,1332.04 282.7,1327.24 285.2,1322.44 C288.1,1316.84 292.6,1311.34 298.7,1306.04 C300.2,1304.74 301.6,1303.44 302.9,1302.14 C303.7,1306.44 304.4,1311.14 305.3,1316.04 C301.4,1317.34 296.7,1320.34 293.6,1326.04 C291.2,1330.54 290.5,1334.44 290.5,1337.64 C290.5,1339.14 290.7,1340.54 290.9,1341.64 C291.8,1346.14 294.4,1349.84 297.9,1351.94 C298.7,1352.44 302,1354.14 304,1354.14 C304.3,1354.14 304.6,1354.14 304.8,1354.04 C305.1,1353.94 305.4,1353.74 305.5,1353.44 C305.6,1353.24 305.6,1353.04 305.6,1352.84 C305.6,1352.04 304.8,1351.44 303.5,1350.64 C302.9,1350.24 302.2,1349.84 301.5,1349.34 C298.9,1347.34 297.4,1344.24 297.4,1340.84 C297.4,1339.84 297.6,1338.94 297.8,1337.94 C298.3,1335.94 300,1333.14 301.5,1331.74 C303.2,1330.24 305.2,1329.04 307.6,1328.44 C309.6,1339.64 311.7,1350.74 313.3,1359.14 C313.4,1359.84 313.6,1360.54 313.7,1361.24 C311.7,1361.64 309.7,1361.84 307.8,1361.84 C305.4,1361.84 303.1,1361.54 300.8,1360.94 M326.5,1350.74 C325.3,1353.94 322.8,1357.94 317.7,1360.04 C317.6,1359.64 317.6,1359.14 317.5,1358.74 C316,1349.94 314.1,1339.04 312.1,1327.74 L313.1,1327.74 C322.8,1327.74 326.7,1334.94 327.6,1339.54 C327.8,1340.44 327.9,1341.64 327.9,1342.94 C327.9,1345.24 327.5,1348.04 326.5,1350.74"/>
<path class="TimeSig" d="M392.053,939.517 L392.253,939.517 C400.253,936.417 400.753,931.217 400.753,929.417 L400.753,928.917 C400.753,928.017 400.453,916.717 383.253,916.717 C366.053,916.717 366.553,928.917 366.553,928.917 L366.653,928.917 L366.553,929.117 C366.553,932.717 369.453,935.517 373.053,935.517 C376.653,935.517 379.453,932.717 379.453,929.117 C379.453,926.217 377.253,923.417 374.453,922.817 L374.753,922.517 C376.153,921.517 378.053,921.017 379.953,921.017 C384.153,921.017 388.653,923.517 388.653,928.917 C388.653,935.217 383.953,936.117 382.753,936.317 C381.553,936.517 375.953,936.917 374.753,936.917 C373.553,936.917 373.453,938.317 373.453,938.317 L373.453,940.317 C373.453,940.317 373.653,941.417 374.753,941.517 C376.453,941.617 378.753,941.617 381.953,942.117 C386.353,942.717 388.653,945.717 388.653,952.717 C388.653,959.417 384.153,961.217 379.953,961.217 C377.153,961.217 374.553,960.417 373.453,959.617 C376.753,959.417 379.453,956.517 379.453,953.217 C379.453,949.617 376.653,946.717 373.053,946.717 C369.453,946.717 366.553,949.617 366.553,953.217 C366.553,953.217 366.053,957.717 370.453,961.817 C374.353,965.417 379.253,965.517 381.453,965.517 C391.053,965.517 401.453,962.217 401.453,951.317 C401.453,944.017 396.453,940.917 392.053,939.517"/>
<path class="TimeSig" d="M365.2,1002.62 L382,1002.62 L382,1009.92 L373.9,1009.92 C373.1,1009.92 372.5,1010.52 372.5,1011.32 L372.5,1013.22 C372.5,1014.02 373.1,1014.52 373.9,1014.52 L403.6,1014.52 C404.4,1014.52 405,1014.02 405,1013.22 L405,1011.32 C405,1010.52 404.4,1009.92 403.6,1009.92 L394.8,1009.92 L394.8,1002.62 L403.6,1002.62 C404.4,1002.62 405,1002.02 405,1001.22 L405,999.42 C405,998.62 404.4,998.02 403.6,998.02 L394.8,998.02 L394.8,982.32 C394.8,981.82 394.4,981.32 394,981.12 L392.9,980.52 C392.7,980.42 392.4,980.42 392.2,980.42 C391.9,980.42 391.5,980.52 391.3,980.72 L382.4,988.92 C382.2,989.12 382,989.62 382,989.92 L382,998.02 L370.7,998.02 C370.7,998.02 381.6,986.22 393.2,970.72 C394,969.62 393.6,968.62 393.4,968.42 L391.3,966.22 C391.1,966.02 390.6,965.82 390.3,965.82 L375.7,965.82 C375,965.82 374.5,966.42 374.4,967.02 C374.4,967.02 373.9,974.22 371.3,982.22 C368.7,990.22 365.9,995.02 363.3,998.62 C363.3,998.62 362.8,999.62 363.1,1000.32 C363.4,1001.02 364.1,1002.12 364.1,1002.12 C364.1,1002.12 364.4,1002.62 365.2,1002.62"/>
<path class="TimeSig" d="M392.053,677 L392.253,677 C400.253,673.9 400.753,668.7 400.753,666.9 L400.753,666.4 C400.753,665.5 400.453,654.2 383.253,654.2 C366.053,654.2 366.553,666.4 366.553,666.4 L366.653,666.4 L366.553,666.6 C366.553,670.2 369.453,673 373.053,673 C376.653,673 379.453,670.2 379.453,666.6 C379.453,663.7 377.253,660.9 374.453,660.3 L374.753,660 C376.153,659 378.053,658.5 379.953,658.5 C384.153,658.5 388.653,661 388.653,666.4 C388.653,672.7 383.953,673.6 382.753,673.8 C381.553,674 375.953,674.4 374.753,674.4 C373.553,674.4 373.453,675.8 373.453,675.8 L373.453,677.8 C373.453,677.8 373.653,678.9 374.753,679 C376.453,679.1 378.753,679.1 381.953,679.6 C386.353,680.2 388.653,683.2 388.653,690.2 C388.653,696.9 384.153,698.7 379.953,698.7 C377.153,698.7 374.553,697.9 373.453,697.1 C376.753,696.9 379.453,694 379.453,690.7 C379.453,687.1 376.653,684.2 373.053,684.2 C369.453,684.2 366.553,687.1 366.553,690.7 C366.553,690.7 366.053,695.2 370.453,699.3 C374.353,702.9 379.253,703 381.453,703 C391.053,703 401.453,699.7 401.453,688.8 C401.453,681.5 396.453,678.4 392.053,677"/>
<path class="TimeSig" d="M365.2,740.104 L382,740.104 L382,747.404 L373.9,747.404 C373.1,747.404 372.5,748.004 372.5,748.804 L372.5,750.704 C372.5,751.504 373.1,752.004 373.9,752.004 L403.6,752.004 C404.4,752.004 405,751.504 405,750.704 L405,748.804 C405,748.004 404.4,747.404 403.6,747.404 L394.8,747.404 L394.8,740.104 L403.6,740.104 C404.4,740.104 405,739.504 405,738.704 L405,736.904 C405,736.104 404.4,735.504 403.6,735.504 L394.8,735.504 L394.8,719.804 C394.8,719.304 394.4,718.804 394,718.604 L392.9,718.004 C392.7,717.904 392.4,717.904 392.2,717.904 C391.9,717.904 391.5,718.004 391.3,718.204 L382.4,726.404 C382.2,726.604 382,727.104 382,727.404 L382,735.504 L370.7,735.504 C370.7,735.504 381.6,723.704 393.2,708.204 C394,707.104 393.6,706.104 393.4,705.904 L391.3,703.704 C391.1,703.504 390.6,703.304 390.3,703.304 L375.7,703.304 C375,703.304 374.5,703.904 374.4,704.504 C374.4,704.504 373.9,711.704 371.3,719.704 C368.7,727.704 365.9,732.504 363.3,736.104 C363.3,736.104 362.8,737.104 363.1,737.804 C363.4,738.504 364.1,739.604 364.1,739.604 C364.1,739.604 364.4,740.104 365.2,740.104"/>
<path class="Page" d="M217.604,4050.77 C218.054,4045.14 218.279,4043.66 219.269,4041.36 C220.574,4038.17 222.959,4036.32 225.794,4036.32 C227.369,4036.32 228.314,4036.82 228.314,4037.63 C228.314,4037.81 228.269,4037.94 228.089,4038.26 C227.639,4039.11 227.414,4039.79 227.414,4040.42 C227.414,4041.9 228.584,4043.03 230.159,4043.03 C231.914,4043.03 233.129,4041.68 233.129,4039.79 C233.129,4036.68 230.024,4034.39 225.749,4034.39 C222.059,4034.39 218.594,4036.14 216.434,4039.16 C213.959,4042.62 212.609,4047.3 212.609,4052.21 C212.609,4061.03 216.929,4066.74 223.589,4066.74 C226.514,4066.74 228.944,4065.75 230.834,4063.77 C232.769,4061.79 233.939,4058.87 233.939,4055.99 C233.939,4050.68 230.159,4046.72 225.029,4046.72 C221.969,4046.72 219.719,4047.93 217.604,4050.77 M223.769,4049.46 C227.054,4049.46 229.034,4052.03 229.034,4056.3 C229.034,4061.52 226.964,4064.81 223.679,4064.81 C221.609,4064.81 220.034,4063.73 218.954,4061.52 C218.234,4060.13 217.874,4058.6 217.874,4056.93 C217.874,4052.3 220.124,4049.46 223.769,4049.46 M251.304,4049.51 C255.399,4048.02 257.289,4045.73 257.289,4042.13 C257.289,4037.4 253.689,4034.39 248.109,4034.39 C242.844,4034.39 238.839,4037.49 238.839,4041.59 C238.839,4043.43 240.054,4044.74 241.809,4044.74 C243.384,4044.74 244.464,4043.66 244.464,4042.04 C244.464,4041.05 244.104,4040.46 243.069,4039.74 C242.619,4039.43 242.484,4039.25 242.484,4038.93 C242.484,4037.67 245.094,4036.32 247.659,4036.32 C250.899,4036.32 252.609,4038.35 252.609,4042.17 C252.609,4046.36 250.899,4048.56 247.704,4048.56 C247.299,4048.56 246.534,4048.52 245.859,4048.47 C245.499,4048.43 245.139,4048.43 244.869,4048.43 C243.924,4048.43 243.429,4048.83 243.429,4049.64 C243.429,4050.41 243.879,4050.77 244.869,4050.77 C245.139,4050.77 245.499,4050.77 245.904,4050.72 C246.804,4050.68 247.524,4050.68 248.019,4050.68 C251.349,4050.68 253.149,4053.06 253.149,4057.52 C253.149,4062.2 250.899,4064.81 246.849,4064.81 C244.014,4064.81 240.954,4063.28 240.954,4061.88 C240.954,4061.48 241.044,4061.39 241.899,4060.89 C243.159,4060.13 243.654,4059.36 243.654,4058.24 C243.654,4056.62 242.439,4055.4 240.819,4055.4 C238.884,4055.4 237.624,4056.98 237.624,4059.36 C237.624,4063.73 241.629,4066.74 247.389,4066.74 C253.914,4066.74 258.144,4063.14 258.144,4057.61 C258.144,4053.38 255.984,4050.81 251.304,4049.51"/>
<path class="Bracket" transform="matrix(3.62523,0,0,3.62523,214.469,1015.62)" d="M0.92002,-50 C2.69004,-51.88 6.2,-55.8 6.2,-63 C6.2,-72.1 2.25996,-81.32 2.25996,-86.97 C2.25996,-93.06 5.84004,-98.84 5.95,-99 C6.05996,-99.16 6.05,-99.39 5.94004,-99.46 C5.82998,-99.53 5.62002,-99.47 5.49004,-99.32 C5.35996,-99.17 0,-93.75 0,-85.6 C0,-76.75 3.5,-70.58 3.5,-59.07 C3.5,-56.89 2.55996,-53.36 0.1,-50.33 C-0.0799805,-50.17 -0.1,-49.89 0.0599609,-49.7 L0.0700195,-49.69 L0.1,-49.66 C2.55996,-46.63 3.5,-43.1 3.5,-40.92 C3.5,-29.4 0,-23.24 0,-14.39 C0,-6.25 5.35996,-0.8 5.49004,-0.659961 C5.62002,-0.52002 5.8,-0.42998 5.94004,-0.52002 C6.07998,-0.609961 6.07998,-0.77998 5.95,-0.97998 C5.82002,-1.17998 2.25996,-6.92002 2.25996,-13.01 C2.25996,-18.66 6.2,-27.9 6.2,-37 C6.2,-44.3 2.69004,-48.12 0.92002,-50"/>
<path class="Bracket" transform="matrix(3.62523,0,0,3.62523,214.469,1628.16)" d="M0.92002,-50 C2.69004,-51.88 6.2,-55.8 6.2,-63 C6.2,-72.1 2.25996,-81.32 2.25996,-86.97 C2.25996,-93.06 5.84004,-98.84 5.95,-99 C6.05996,-99.16 6.05,-99.39 5.94004,-99.46 C5.82998,-99.53 5.62002,-99.47 5.49004,-99.32 C5.35996,-99.17 0,-93.75 0,-85.6 C0,-76.75 3.5,-70.58 3.5,-59.07 C3.5,-56.89 2.55996,-53.36 0.1,-50.33 C-0.0799805,-50.17 -0.1,-49.89 0.0599609,-49.7 L0.0700195,-49.69 L0.1,-49.66 C2.55996,-46.63 3.5,-43.1 3.5,-40.92 C3.5,-29.4 0,-23.24 0,-14.39 C0,-6.25 5.35996,-0.8 5.49004,-0.659961 C5.62002,-0.52002 5.8,-0.42998 5.94004,-0.52002 C6.07998,-0.609961 6.07998,-0.77998 5.95,-0.97998 C5.82002,-1.17998 2.25996,-6.92002 2.25996,-13.01 C2.25996,-18.66 6.2,-27.9 6.2,-37 C6.2,-44.3 2.69004,-48.12 0.92002,-50"/>
</svg>
