<?xml version="1.0" encoding="UTF-8" standalone="no"?>
<svg width="2977.23px" height="4208.47px" viewBox="0 0 2977.23 4208.47"
 xmlns="http://www.w3.org/2000/svg" xmlns:xlink="http://www.w3.org/1999/xlink" version="1.2" baseProfile="tiny">
<title>exercises_scores (59)</title>
<desc>Generated by MuseScore 3.6.0</desc>
<polyline class="StaffLines" fill="none" stroke="#000000" stroke-width="2.75" stroke-linejoin="bevel" points="247.099,653.098 2764.63,653.098"/>
<polyline class="StaffLines" fill="none" stroke="#000000" stroke-width="2.75" stroke-linejoin="bevel" points="247.099,678.1 2764.63,678.1"/>
<polyline class="StaffLines" fill="none" stroke="#000000" stroke-width="2.75" stroke-linejoin="bevel" points="247.099,703.102 2764.63,703.102"/>
<polyline class="StaffLines" fill="none" stroke="#000000" stroke-width="2.75" stroke-linejoin="bevel" points="247.099,728.103 2764.63,728.103"/>
<polyline class="StaffLines" fill="none" stroke="#000000" stroke-width="2.75" stroke-linejoin="bevel" points="247.099,753.105 2764.63,753.105"/>
<polyline class="StaffLines" fill="none" stroke="#000000" stroke-width="2.75" stroke-linejoin="bevel" points="247.099,915.615 2764.63,915.615"/>
<polyline class="StaffLines" fill="none" stroke="#000000" stroke-width="2.75" stroke-linejoin="bevel" points="247.099,940.617 2764.63,940.617"/>
<polyline class="StaffLines" fill="none" stroke="#000000" stroke-width="2.75" stroke-linejoin="bevel" points="247.099,965.618 2764.63,965.618"/>
<polyline class="StaffLines" fill="none" stroke="#000000" stroke-width="2.75" stroke-linejoin="bevel" points="247.099,990.62 2764.63,990.62"/>
<polyline class="StaffLines" fill="none" stroke="#000000" stroke-width="2.75" stroke-linejoin="bevel" points="247.099,1015.62 2764.63,1015.62"/>
<polyline class="StaffLines" fill="none" stroke="#000000" stroke-width="2.75" stroke-linejoin="bevel" points="247.099,1265.64 2764.63,1265.64"/>
<polyline class="StaffLines" fill="none" stroke="#000000" stroke-width="2.75" stroke-linejoin="bevel" points="247.099,1290.64 2764.63,1290.64"/>
<polyline class="StaffLines" fill="none" stroke="#000000" stroke-width="2.75" stroke-linejoin="bevel" points="247.099,1315.64 2764.63,1315.64"/>
<polyline class="StaffLines" fill="none" stroke="#000000" stroke-width="2.75" stroke-linejoin="bevel" points="247.099,1340.64 2764.63,1340.64"/>
<polyline class="StaffLines" fill="none" stroke="#000000" stroke-width="2.75" stroke-linejoin="bevel" points="247.099,1365.64 2764.63,1365.64"/>
<polyline class="StaffLines" fill="none" stroke="#000000" stroke-width="2.75" stroke-linejoin="bevel" points="247.099,1528.15 2764.63,1528.15"/>
<polyline class="StaffLines" fill="none" stroke="#000000" stroke-width="2.75" stroke-linejoin="bevel" points="247.099,1553.16 2764.63,1553.16"/>
<polyline class="StaffLines" fill="none" stroke="#000000" stroke-width="2.75" stroke-linejoin="bevel" points="247.099,1578.16 2764.63,1578.16"/>
<polyline class="StaffLines" fill="none" stroke="#000000" stroke-width="2.75" stroke-linejoin="bevel" points="247.099,1603.16 2764.63,1603.16"/>
<polyline class="StaffLines" fill="none" stroke="#000000" stroke-width="2.75" stroke-linejoin="bevel" points="247.099,1628.16 2764.63,1628.16"/>
<path class="Text" d="M212.602,213.497 L212.602,216.317 L213.682,216.317 C217.102,216.377 218.242,216.557 218.722,217.157 C219.082,217.697 219.082,217.817 219.082,220.877 L219.082,249.437 C219.082,252.497 219.082,252.617 218.722,253.157 C218.242,253.757 217.102,253.997 213.682,253.997 L212.602,253.997 L212.602,256.817 L234.382,256.817 C244.762,256.817 251.002,252.437 251.002,245.057 C251.002,239.057 247.222,235.637 239.002,234.197 C241.882,233.597 243.202,233.057 244.762,231.917 C247.222,230.057 248.722,227.117 248.722,224.117 C248.722,220.217 246.322,216.437 242.842,214.937 C240.682,213.977 237.682,213.497 234.142,213.497 L212.602,213.497 M225.802,232.997 L225.802,219.317 C225.802,216.977 226.582,216.377 229.762,216.317 L232.162,216.317 C234.922,216.317 237.202,216.797 238.462,217.577 C240.622,218.897 241.762,221.417 241.762,224.777 C241.762,230.717 238.882,232.997 231.142,232.997 L225.802,232.997 M225.802,235.817 L231.082,235.817 C240.262,235.817 243.622,238.277 243.622,244.877 C243.622,248.717 242.302,251.477 239.962,252.617 C238.102,253.577 235.582,253.997 231.802,253.997 L229.282,253.997 C226.282,253.997 225.682,253.397 225.802,250.217 L225.802,235.817 M265.994,228.857 L255.374,229.517 L255.374,232.097 L257.834,232.097 C260.114,232.157 260.414,232.517 260.414,235.097 L260.414,249.437 L260.414,252.257 C260.354,253.157 260.294,253.517 260.054,253.817 C259.634,254.357 258.434,254.597 255.854,254.657 L255.614,254.657 L255.614,256.817 L271.634,256.817 L271.634,254.657 L270.554,254.657 C266.534,254.537 265.994,254.237 265.994,252.077 L265.994,249.437 L265.994,248.837 C266.054,238.757 269.654,231.077 274.334,230.837 C273.494,231.797 273.254,232.397 273.254,233.537 C273.254,235.457 274.634,236.837 276.554,236.837 C278.774,236.837 280.214,235.217 280.214,232.817 C280.214,229.877 278.174,227.957 274.994,227.957 C271.214,227.957 267.974,230.957 265.994,236.297 L265.994,228.857 M295.562,227.957 C288.182,227.957 282.482,234.497 282.482,242.897 C282.482,251.117 288.242,257.717 295.442,257.717 C302.642,257.717 308.402,251.117 308.402,242.837 C308.402,234.617 302.642,227.957 295.562,227.957 M295.562,230.537 C299.762,230.537 302.102,234.917 302.102,242.837 C302.102,250.817 299.762,255.137 295.442,255.137 C291.122,255.137 288.782,250.817 288.782,242.897 C288.782,234.737 291.062,230.537 295.562,230.537 M322.382,242.297 L322.382,212.597 L311.282,213.257 L311.282,215.837 L314.162,215.837 C316.442,215.897 316.742,216.257 316.742,218.837 L316.742,249.437 L316.742,252.317 C316.682,253.157 316.622,253.517 316.382,253.817 C315.962,254.357 314.822,254.597 312.242,254.657 L312.002,254.657 L312.002,256.817 L327.182,256.817 L327.182,254.657 L326.942,254.657 C322.922,254.537 322.382,254.237 322.382,252.077 L322.382,249.437 L322.382,246.017 L326.042,242.537 L333.182,252.557 C333.482,253.037 333.602,253.337 333.602,253.577 C333.602,254.417 332.942,254.657 330.962,254.657 L329.822,254.657 L329.822,256.817 L345.662,256.817 L345.662,254.657 C342.302,254.357 341.102,253.637 338.642,250.517 L330.122,238.877 L332.822,236.237 C336.362,232.817 338.882,231.497 342.962,231.017 L342.962,228.857 L327.182,228.857 L327.182,231.017 L329.042,231.017 C330.962,231.017 331.862,231.377 331.862,232.157 C331.862,232.817 331.442,233.537 330.482,234.497 L322.382,242.297 M372.842,243.317 C372.902,234.317 367.802,227.957 360.482,227.957 C352.802,227.957 347.042,234.617 347.042,243.617 C347.042,252.077 352.502,257.717 360.602,257.717 C366.362,257.717 370.382,254.897 372.842,249.197 L370.742,248.057 C368.282,252.677 365.762,254.477 361.742,254.477 C358.682,254.477 356.462,253.217 354.902,250.517 C353.822,248.717 353.342,246.617 353.402,243.317 L372.842,243.317 M353.462,240.737 C353.462,238.877 353.702,237.557 354.302,235.877 C355.562,232.277 357.482,230.537 360.422,230.537 C364.022,230.537 366.422,233.717 366.422,238.577 C366.422,240.257 365.882,240.737 363.962,240.737 L353.462,240.737 M386.942,228.857 L376.562,229.517 L376.562,232.097 L378.722,232.097 C381.002,232.157 381.302,232.517 381.302,235.097 L381.302,249.437 L381.302,250.877 L381.302,252.257 C381.242,253.157 381.182,253.517 380.942,253.817 C380.522,254.357 379.382,254.597 376.802,254.657 L376.562,254.657 L376.562,256.817 L391.742,256.817 L391.742,254.657 L391.502,254.657 C387.482,254.537 386.942,254.237 386.942,252.077 L386.942,249.437 L386.942,243.197 C386.942,240.257 387.362,237.557 388.022,236.177 C389.282,233.477 391.982,231.617 394.562,231.617 C396.122,231.617 397.922,232.457 398.822,233.717 C399.722,235.037 400.142,236.837 400.142,239.717 L400.142,249.437 L400.142,252.257 C400.082,253.157 400.022,253.517 399.782,253.817 C399.362,254.357 398.162,254.597 395.582,254.657 L395.342,254.657 L395.342,256.817 L410.522,256.817 L410.522,254.657 L410.282,254.657 C406.322,254.537 405.782,254.237 405.782,252.077 L405.782,249.437 L405.782,240.017 C405.782,235.697 405.602,234.617 404.522,232.577 C403.022,229.697 400.022,227.957 396.422,227.957 C392.522,227.957 389.582,229.757 386.942,233.717 L386.942,228.857 M466.61,213.077 L464.33,213.077 L461.93,216.617 C457.55,213.437 455.33,212.597 451.19,212.597 C445.49,212.597 440.63,214.997 436.61,219.797 C432.77,224.357 430.97,229.397 430.97,235.577 C430.97,248.537 439.43,257.717 451.25,257.717 C460.85,257.717 466.97,252.077 468.35,241.997 L465.53,241.517 C463.91,250.457 459.35,254.897 451.97,254.897 C443.09,254.897 438.89,248.777 438.89,235.817 C438.89,228.977 439.79,224.477 441.83,220.877 C443.69,217.517 447.35,215.417 451.25,215.417 C455.45,215.417 459.17,217.637 461.45,221.477 C462.59,223.457 463.43,225.677 464.87,230.417 L467.51,230.417 L466.61,213.077 M483.583,212.597 L472.483,213.257 L472.483,215.837 L475.363,215.837 C477.643,215.897 477.943,216.257 477.943,218.837 L477.943,249.437 L477.943,250.877 L477.943,252.317 C477.883,253.157 477.823,253.517 477.583,253.817 C477.163,254.357 476.023,254.597 473.443,254.657 L473.203,254.657 L473.203,256.817 L488.383,256.817 L488.383,254.657 L488.143,254.657 C484.123,254.537 483.583,254.237 483.583,252.077 L483.583,249.437 L483.583,243.197 C483.583,240.257 484.003,237.557 484.663,236.177 C485.983,233.477 488.623,231.617 491.203,231.617 C492.763,231.617 494.563,232.517 495.403,233.717 C496.363,235.037 496.783,236.837 496.783,239.777 L496.783,249.437 L496.783,252.317 C496.723,253.157 496.663,253.517 496.423,253.817 C496.003,254.357 494.803,254.597 492.223,254.657 L491.983,254.657 L491.983,256.817 L507.163,256.817 L507.163,254.657 L506.923,254.657 C502.963,254.537 502.423,254.237 502.423,252.077 L502.423,249.437 L502.423,240.017 C502.423,235.697 502.243,234.617 501.163,232.577 C499.663,229.637 496.663,227.957 493.063,227.957 C489.163,227.957 486.283,229.697 483.583,233.717 L483.583,212.597 M523.359,227.957 C515.979,227.957 510.279,234.497 510.279,242.897 C510.279,251.117 516.039,257.717 523.239,257.717 C530.439,257.717 536.199,251.117 536.199,242.837 C536.199,234.617 530.439,227.957 523.359,227.957 M523.359,230.537 C527.559,230.537 529.899,234.917 529.899,242.837 C529.899,250.817 527.559,255.137 523.239,255.137 C518.919,255.137 516.579,250.817 516.579,242.897 C516.579,234.737 518.859,230.537 523.359,230.537 M550.119,228.857 L539.499,229.517 L539.499,232.097 L541.959,232.097 C544.239,232.157 544.539,232.517 544.539,235.097 L544.539,249.437 L544.539,252.257 C544.479,253.157 544.419,253.517 544.179,253.817 C543.759,254.357 542.559,254.597 539.979,254.657 L539.739,254.657 L539.739,256.817 L555.759,256.817 L555.759,254.657 L554.679,254.657 C550.659,254.537 550.119,254.237 550.119,252.077 L550.119,249.437 L550.119,248.837 C550.179,238.757 553.779,231.077 558.459,230.837 C557.619,231.797 557.379,232.397 557.379,233.537 C557.379,235.457 558.759,236.837 560.679,236.837 C562.899,236.837 564.339,235.217 564.339,232.817 C564.339,229.877 562.299,227.957 559.119,227.957 C555.339,227.957 552.099,230.957 550.119,236.297 L550.119,228.857 M587.18,257.237 L597.62,256.817 L597.62,254.237 L596.54,254.237 C593.12,254.057 592.82,253.697 592.82,249.857 L592.82,212.597 L581.06,213.257 L581.06,215.837 L584.6,215.837 C586.88,215.897 587.18,216.257 587.18,218.837 L587.18,232.397 C584.96,229.337 582.38,227.957 578.9,227.957 C572.12,227.957 566.96,234.497 566.96,243.137 C566.96,251.657 571.94,257.717 578.9,257.717 C582.68,257.717 585.26,256.097 587.18,252.497 L587.18,257.237 M580.1,231.197 C582.56,231.197 584.9,232.997 585.98,235.757 C586.76,237.557 587.12,240.017 587.12,242.957 C587.12,249.977 584.36,254.477 580.04,254.477 C575.78,254.477 573.26,250.517 573.26,243.857 C573.26,240.257 573.62,237.557 574.4,235.577 C575.42,232.877 577.64,231.197 580.1,231.197 M607.757,250.157 C605.657,250.157 603.977,251.837 603.977,253.877 C603.977,255.977 605.657,257.657 607.697,257.657 C609.797,257.657 611.477,255.977 611.477,253.877 C611.477,251.837 609.797,250.157 607.757,250.157 M607.757,228.437 C605.657,228.437 603.977,230.117 603.977,232.217 C603.977,234.257 605.657,235.937 607.697,235.937 C609.797,235.937 611.477,234.257 611.477,232.157 C611.477,230.117 609.797,228.437 607.757,228.437 M669.601,213.497 L633.901,213.497 L633.901,216.317 L634.981,216.317 C638.401,216.377 639.541,216.557 640.021,217.157 C640.381,217.697 640.381,217.817 640.381,220.877 L640.381,249.437 C640.381,252.497 640.381,252.617 640.021,253.157 C639.541,253.757 638.401,253.997 634.981,253.997 L633.901,253.997 L633.901,256.817 L654.481,256.817 L654.481,253.997 L652.501,253.997 C649.081,253.997 647.941,253.757 647.461,253.157 C647.101,252.617 647.101,252.437 647.101,249.437 L647.101,235.817 L648.301,235.817 C654.481,235.577 656.701,237.797 656.941,244.457 L659.761,244.457 L659.761,224.777 L656.941,224.777 C656.581,230.657 654.241,232.937 648.541,232.997 L647.101,232.997 L647.101,219.317 C647.041,216.797 647.641,216.377 650.881,216.317 L653.641,216.317 C663.481,216.257 665.941,218.477 667.801,228.797 L670.441,228.797 L669.601,213.497 M700.908,228.857 L690.228,229.517 L690.228,232.097 L692.688,232.097 C694.968,232.157 695.268,232.517 695.268,235.097 L695.268,249.437 L695.268,251.777 L695.268,252.257 C695.208,253.157 695.148,253.517 694.908,253.817 C694.488,254.357 693.348,254.597 690.768,254.657 L690.528,254.657 L690.528,256.817 L705.648,256.817 L705.648,254.657 L705.408,254.657 C701.448,254.537 700.908,254.237 700.908,252.017 L700.908,249.437 L700.908,240.917 C700.908,235.577 703.848,231.617 707.748,231.617 C711.168,231.617 712.908,234.077 712.908,238.937 L712.908,249.437 L712.908,252.317 C712.848,253.097 712.788,253.517 712.488,253.817 C712.128,254.357 710.928,254.597 708.348,254.657 L708.108,254.657 L708.108,256.817 L723.288,256.817 L723.288,254.657 L723.048,254.657 C719.088,254.537 718.548,254.237 718.548,252.077 L718.548,249.437 L718.548,241.457 C718.548,235.457 721.248,231.617 725.448,231.617 C728.868,231.617 730.548,234.197 730.548,239.597 L730.548,249.437 L730.548,252.257 C730.488,253.097 730.428,253.517 730.128,253.817 C729.768,254.357 728.568,254.597 725.988,254.657 L725.748,254.657 L725.748,256.817 L740.928,256.817 L740.928,254.657 L740.688,254.657 C736.728,254.537 736.188,254.237 736.188,252.017 L736.188,249.437 L736.188,238.397 C736.188,234.677 735.828,233.417 734.268,231.377 C732.528,229.157 730.068,227.957 727.188,227.957 C723.288,227.957 720.408,229.817 717.828,233.957 C716.808,230.357 713.568,227.957 709.548,227.957 C705.888,227.957 703.248,229.697 700.908,233.477 L700.908,228.857 M754.537,228.857 L743.257,229.517 L743.257,232.097 L746.317,232.097 C748.597,232.157 748.897,232.517 748.897,235.097 L748.897,249.437 L748.897,252.257 C748.837,253.157 748.777,253.517 748.537,253.817 C748.117,254.357 746.977,254.597 744.397,254.657 L743.977,254.657 L743.977,256.817 L759.517,256.817 L759.517,254.657 L759.097,254.657 C755.077,254.537 754.537,254.237 754.537,252.077 L754.537,249.437 L754.537,228.857 M751.717,213.917 C749.797,213.917 748.237,215.477 748.237,217.397 C748.237,219.317 749.797,220.877 751.657,220.877 C753.637,220.877 755.197,219.317 755.197,217.397 C755.197,215.477 753.637,213.917 751.717,213.917 M773.067,228.857 L762.687,229.517 L762.687,232.097 L764.847,232.097 C767.127,232.157 767.427,232.517 767.427,235.097 L767.427,249.437 L767.427,250.877 L767.427,252.257 C767.367,253.157 767.307,253.517 767.067,253.817 C766.647,254.357 765.507,254.597 762.927,254.657 L762.687,254.657 L762.687,256.817 L777.867,256.817 L777.867,254.657 L777.627,254.657 C773.607,254.537 773.067,254.237 773.067,252.077 L773.067,249.437 L773.067,243.197 C773.067,240.257 773.487,237.557 774.147,236.177 C775.407,233.477 778.107,231.617 780.687,231.617 C782.247,231.617 784.047,232.457 784.947,233.717 C785.847,235.037 786.267,236.837 786.267,239.717 L786.267,249.437 L786.267,252.257 C786.207,253.157 786.147,253.517 785.907,253.817 C785.487,254.357 784.287,254.597 781.707,254.657 L781.467,254.657 L781.467,256.817 L796.647,256.817 L796.647,254.657 L796.407,254.657 C792.447,254.537 791.907,254.237 791.907,252.077 L791.907,249.437 L791.907,240.017 C791.907,235.697 791.727,234.617 790.647,232.577 C789.147,229.697 786.147,227.957 782.547,227.957 C778.647,227.957 775.707,229.757 773.067,233.717 L773.067,228.857 M812.843,227.957 C805.463,227.957 799.763,234.497 799.763,242.897 C799.763,251.117 805.523,257.717 812.723,257.717 C819.923,257.717 825.683,251.117 825.683,242.837 C825.683,234.617 819.923,227.957 812.843,227.957 M812.843,230.537 C817.043,230.537 819.383,234.917 819.383,242.837 C819.383,250.817 817.043,255.137 812.723,255.137 C808.403,255.137 806.063,250.817 806.063,242.897 C806.063,234.737 808.343,230.537 812.843,230.537 M839.603,228.857 L828.983,229.517 L828.983,232.097 L831.443,232.097 C833.723,232.157 834.023,232.517 834.023,235.097 L834.023,249.437 L834.023,252.257 C833.963,253.157 833.903,253.517 833.663,253.817 C833.243,254.357 832.043,254.597 829.463,254.657 L829.223,254.657 L829.223,256.817 L845.243,256.817 L845.243,254.657 L844.163,254.657 C840.143,254.537 839.603,254.237 839.603,252.077 L839.603,249.437 L839.603,248.837 C839.663,238.757 843.263,231.077 847.943,230.837 C847.103,231.797 846.863,232.397 846.863,233.537 C846.863,235.457 848.243,236.837 850.163,236.837 C852.383,236.837 853.823,235.217 853.823,232.817 C853.823,229.877 851.783,227.957 848.603,227.957 C844.823,227.957 841.583,230.957 839.603,236.297 L839.603,228.857 "/>
<path class="TieSegment" stroke="#000000" stroke-width="1.75" stroke-linecap="round" stroke-linejoin="round" fill-rule="evenodd" d="M2597.66,934.366 C2631.05,905.486 2731.24,905.486 2764.63,934.366 C2731.24,912.487 2631.05,912.487 2597.66,934.366"/>
<path class="TieSegment" stroke="#000000" stroke-width="1.75" stroke-linecap="round" stroke-linejoin="round" fill-rule="evenodd" d="M335.596,1546.9 C352.122,1530.85 401.698,1530.85 418.224,1546.9 C401.698,1537.85 352.122,1537.85 335.596,1546.9"/>
<path class="TieSegment" stroke="#000000" stroke-width="1.75" stroke-linecap="round" stroke-linejoin="round" fill-rule="evenodd" d="M2597.66,584.344 C2631.05,555.464 2731.24,555.464 2764.63,584.344 C2731.24,562.465 2631.05,562.465 2597.66,584.344"/>
<path class="TieSegment" stroke="#000000" stroke-width="1.75" stroke-linecap="round" stroke-linejoin="round" fill-rule="evenodd" d="M335.596,1196.88 C352.122,1180.82 401.698,1180.82 418.224,1196.88 C401.698,1187.82 352.122,1187.82 335.596,1196.88"/>
<polyline class="BarLine" stroke="#000000" stroke-width="4.50" stroke-linejoin="bevel" points="249.349,914.24 249.349,1017"/>
<polyline class="BarLine" stroke="#000000" stroke-width="4.50" stroke-linejoin="bevel" points="977.841,914.24 977.841,1017"/>
<polyline class="BarLine" stroke="#000000" stroke-width="4.50" stroke-linejoin="bevel" points="1534.5,914.24 1534.5,1017"/>
<polyline class="BarLine" stroke="#000000" stroke-width="4.50" stroke-linejoin="bevel" points="2174.6,914.24 2174.6,1017"/>
<polyline class="BarLine" stroke="#000000" stroke-width="4.50" stroke-linejoin="bevel" points="2762.38,914.24 2762.38,1017"/>
<polyline class="BarLine" stroke="#000000" stroke-width="4.50" stroke-linejoin="bevel" points="249.349,1526.78 249.349,1629.54"/>
<polyline class="BarLine" stroke="#000000" stroke-width="4.50" stroke-linejoin="bevel" points="955.431,1526.78 955.431,1629.54"/>
<polyline class="BarLine" stroke="#000000" stroke-width="4.50" stroke-linejoin="bevel" points="1512.65,1526.78 1512.65,1629.54"/>
<polyline class="BarLine" stroke="#000000" stroke-width="4.50" stroke-linejoin="bevel" points="2095.99,1526.78 2095.99,1629.54"/>
<polyline class="BarLine" stroke="#000000" stroke-width="4.50" stroke-linejoin="bevel" points="2734.88,1526.78 2734.88,1629.54"/>
<polyline class="BarLine" stroke="#000000" stroke-width="13.75" stroke-linejoin="bevel" points="2757.76,1526.78 2757.76,1629.54"/>
<polyline class="BarLine" stroke="#000000" stroke-width="4.50" stroke-linejoin="bevel" points="249.349,651.723 249.349,915.615"/>
<polyline class="BarLine" stroke="#000000" stroke-width="4.50" stroke-linejoin="bevel" points="977.841,651.723 977.841,915.615"/>
<polyline class="BarLine" stroke="#000000" stroke-width="4.50" stroke-linejoin="bevel" points="1534.5,651.723 1534.5,915.615"/>
<polyline class="BarLine" stroke="#000000" stroke-width="4.50" stroke-linejoin="bevel" points="2174.6,651.723 2174.6,915.615"/>
<polyline class="BarLine" stroke="#000000" stroke-width="4.50" stroke-linejoin="bevel" points="2762.38,651.723 2762.38,915.615"/>
<polyline class="BarLine" stroke="#000000" stroke-width="4.50" stroke-linejoin="bevel" points="249.349,1264.26 249.349,1528.15"/>
<polyline class="BarLine" stroke="#000000" stroke-width="4.50" stroke-linejoin="bevel" points="955.431,1264.26 955.431,1528.15"/>
<polyline class="BarLine" stroke="#000000" stroke-width="4.50" stroke-linejoin="bevel" points="1512.65,1264.26 1512.65,1528.15"/>
<polyline class="BarLine" stroke="#000000" stroke-width="4.50" stroke-linejoin="bevel" points="2095.99,1264.26 2095.99,1528.15"/>
<polyline class="BarLine" stroke="#000000" stroke-width="4.50" stroke-linejoin="bevel" points="2734.88,1264.26 2734.88,1528.15"/>
<polyline class="BarLine" stroke="#000000" stroke-width="13.75" stroke-linejoin="bevel" points="2757.76,1264.26 2757.76,1528.15"/>
<path class="Accidental" d="M622.083,907.715 C621.483,903.815 619.083,900.115 613.983,900.115 C608.983,900.115 606.083,903.215 605.583,903.815 L605.983,871.715 C605.983,870.915 605.383,870.315 604.583,870.315 L603.383,870.315 C602.583,870.315 601.983,870.915 601.983,871.715 L602.483,931.815 C602.483,932.615 603.083,933.215 603.883,933.215 C604.083,933.215 604.483,933.115 604.683,933.015 C605.083,932.815 611.583,929.615 616.983,923.515 C620.783,919.215 622.283,914.315 622.283,910.215 C622.283,909.315 622.183,908.515 622.083,907.715 M615.183,911.615 C615.183,913.115 614.783,917.715 612.283,921.515 C610.583,924.115 607.183,926.815 605.283,928.315 L605.583,908.815 C605.783,907.915 607.283,905.015 611.283,905.015 C614.883,905.015 615.183,908.415 615.183,910.515 L615.183,911.615 "/>
<path class="Accidental" d="M1021.94,907.715 C1021.34,903.815 1018.94,900.115 1013.84,900.115 C1008.84,900.115 1005.94,903.215 1005.44,903.815 L1005.84,871.715 C1005.84,870.915 1005.24,870.315 1004.44,870.315 L1003.24,870.315 C1002.44,870.315 1001.84,870.915 1001.84,871.715 L1002.34,931.815 C1002.34,932.615 1002.94,933.215 1003.74,933.215 C1003.94,933.215 1004.34,933.115 1004.54,933.015 C1004.94,932.815 1011.44,929.615 1016.84,923.515 C1020.64,919.215 1022.14,914.315 1022.14,910.215 C1022.14,909.315 1022.04,908.515 1021.94,907.715 M1015.04,911.615 C1015.04,913.115 1014.64,917.715 1012.14,921.515 C1010.44,924.115 1007.04,926.815 1005.14,928.315 L1005.44,908.815 C1005.64,907.915 1007.14,905.015 1011.14,905.015 C1014.74,905.015 1015.04,908.415 1015.04,910.515 L1015.04,911.615 "/>
<path class="Accidental" d="M1989.02,970.219 C1988.42,966.319 1986.02,962.619 1980.92,962.619 C1975.92,962.619 1973.02,965.719 1972.52,966.319 L1972.92,934.219 C1972.92,933.419 1972.32,932.819 1971.52,932.819 L1970.32,932.819 C1969.52,932.819 1968.92,933.419 1968.92,934.219 L1969.42,994.319 C1969.42,995.119 1970.02,995.719 1970.82,995.719 C1971.02,995.719 1971.42,995.619 1971.62,995.519 C1972.02,995.319 1978.52,992.119 1983.92,986.019 C1987.72,981.719 1989.22,976.819 1989.22,972.719 C1989.22,971.819 1989.12,971.019 1989.02,970.219 M1982.12,974.119 C1982.12,975.619 1981.72,980.219 1979.22,984.019 C1977.52,986.619 1974.12,989.319 1972.22,990.819 L1972.52,971.319 C1972.72,970.419 1974.22,967.519 1978.22,967.519 C1981.82,967.519 1982.12,970.919 1982.12,973.019 L1982.12,974.119 "/>
<path class="Accidental" d="M2386.5,970.219 C2385.9,966.319 2383.5,962.619 2378.4,962.619 C2373.4,962.619 2370.5,965.719 2370,966.319 L2370.4,934.219 C2370.4,933.419 2369.8,932.819 2369,932.819 L2367.8,932.819 C2367,932.819 2366.4,933.419 2366.4,934.219 L2366.9,994.319 C2366.9,995.119 2367.5,995.719 2368.3,995.719 C2368.5,995.719 2368.9,995.619 2369.1,995.519 C2369.5,995.319 2376,992.119 2381.4,986.019 C2385.2,981.719 2386.7,976.819 2386.7,972.719 C2386.7,971.819 2386.6,971.019 2386.5,970.219 M2379.6,974.119 C2379.6,975.619 2379.2,980.219 2376.7,984.019 C2375,986.619 2371.6,989.319 2369.7,990.819 L2370,971.319 C2370.2,970.419 2371.7,967.519 2375.7,967.519 C2379.3,967.519 2379.6,970.919 2379.6,973.019 L2379.6,974.119 "/>
<path class="Accidental" d="M582.512,1582.76 C581.912,1578.86 579.512,1575.16 574.412,1575.16 C569.412,1575.16 566.512,1578.26 566.012,1578.86 L566.412,1546.76 C566.412,1545.96 565.812,1545.36 565.012,1545.36 L563.812,1545.36 C563.012,1545.36 562.412,1545.96 562.412,1546.76 L562.912,1606.86 C562.912,1607.66 563.512,1608.26 564.312,1608.26 C564.512,1608.26 564.912,1608.16 565.112,1608.06 C565.512,1607.86 572.012,1604.66 577.412,1598.56 C581.212,1594.26 582.712,1589.36 582.712,1585.26 C582.712,1584.36 582.612,1583.56 582.512,1582.76 M575.612,1586.66 C575.612,1588.16 575.212,1592.76 572.712,1596.56 C571.012,1599.16 567.612,1601.86 565.712,1603.36 L566.012,1583.86 C566.212,1582.96 567.712,1580.06 571.712,1580.06 C575.312,1580.06 575.612,1583.46 575.612,1585.56 L575.612,1586.66 "/>
<path class="Accidental" d="M1008.28,1582.76 C1007.68,1578.86 1005.28,1575.16 1000.18,1575.16 C995.183,1575.16 992.283,1578.26 991.783,1578.86 L992.183,1546.76 C992.183,1545.96 991.583,1545.36 990.783,1545.36 L989.583,1545.36 C988.783,1545.36 988.183,1545.96 988.183,1546.76 L988.683,1606.86 C988.683,1607.66 989.283,1608.26 990.083,1608.26 C990.283,1608.26 990.683,1608.16 990.883,1608.06 C991.283,1607.86 997.783,1604.66 1003.18,1598.56 C1006.98,1594.26 1008.48,1589.36 1008.48,1585.26 C1008.48,1584.36 1008.38,1583.56 1008.28,1582.76 M1001.38,1586.66 C1001.38,1588.16 1000.98,1592.76 998.483,1596.56 C996.783,1599.16 993.383,1601.86 991.483,1603.36 L991.783,1583.86 C991.983,1582.96 993.483,1580.06 997.483,1580.06 C1001.08,1580.06 1001.38,1583.46 1001.38,1585.56 L1001.38,1586.66 "/>
<path class="Accidental" d="M1896.43,1670.26 C1895.83,1666.36 1893.43,1662.66 1888.33,1662.66 C1883.33,1662.66 1880.43,1665.76 1879.93,1666.36 L1880.33,1634.26 C1880.33,1633.46 1879.73,1632.86 1878.93,1632.86 L1877.73,1632.86 C1876.93,1632.86 1876.33,1633.46 1876.33,1634.26 L1876.83,1694.36 C1876.83,1695.16 1877.43,1695.76 1878.23,1695.76 C1878.43,1695.76 1878.83,1695.66 1879.03,1695.56 C1879.43,1695.36 1885.93,1692.16 1891.33,1686.06 C1895.13,1681.76 1896.63,1676.86 1896.63,1672.76 C1896.63,1671.86 1896.53,1671.06 1896.43,1670.26 M1889.53,1674.16 C1889.53,1675.66 1889.13,1680.26 1886.63,1684.06 C1884.93,1686.66 1881.53,1689.36 1879.63,1690.86 L1879.93,1671.36 C1880.13,1670.46 1881.63,1667.56 1885.63,1667.56 C1889.23,1667.56 1889.53,1670.96 1889.53,1673.06 L1889.53,1674.16 "/>
<path class="Accidental" d="M2368.67,1520.25 C2368.07,1516.35 2365.67,1512.65 2360.57,1512.65 C2355.57,1512.65 2352.67,1515.75 2352.17,1516.35 L2352.57,1484.25 C2352.57,1483.45 2351.97,1482.85 2351.17,1482.85 L2349.97,1482.85 C2349.17,1482.85 2348.57,1483.45 2348.57,1484.25 L2349.07,1544.35 C2349.07,1545.15 2349.67,1545.75 2350.47,1545.75 C2350.67,1545.75 2351.07,1545.65 2351.27,1545.55 C2351.67,1545.35 2358.17,1542.15 2363.57,1536.05 C2367.37,1531.75 2368.87,1526.85 2368.87,1522.75 C2368.87,1521.85 2368.77,1521.05 2368.67,1520.25 M2361.77,1524.15 C2361.77,1525.65 2361.37,1530.25 2358.87,1534.05 C2357.17,1536.65 2353.77,1539.35 2351.87,1540.85 L2352.17,1521.35 C2352.37,1520.45 2353.87,1517.55 2357.87,1517.55 C2361.47,1517.55 2361.77,1520.95 2361.77,1523.05 L2361.77,1524.15 "/>
<path class="Accidental" d="M622.083,707.702 C621.483,703.802 619.083,700.102 613.983,700.102 C608.983,700.102 606.083,703.202 605.583,703.802 L605.983,671.702 C605.983,670.902 605.383,670.302 604.583,670.302 L603.383,670.302 C602.583,670.302 601.983,670.902 601.983,671.702 L602.483,731.802 C602.483,732.602 603.083,733.202 603.883,733.202 C604.083,733.202 604.483,733.102 604.683,733.002 C605.083,732.802 611.583,729.602 616.983,723.502 C620.783,719.202 622.283,714.302 622.283,710.202 C622.283,709.302 622.183,708.502 622.083,707.702 M615.183,711.602 C615.183,713.102 614.783,717.702 612.283,721.502 C610.583,724.102 607.183,726.802 605.283,728.302 L605.583,708.802 C605.783,707.902 607.283,705.002 611.283,705.002 C614.883,705.002 615.183,708.402 615.183,710.502 L615.183,711.602 "/>
<path class="Accidental" d="M1021.94,707.702 C1021.34,703.802 1018.94,700.102 1013.84,700.102 C1008.84,700.102 1005.94,703.202 1005.44,703.802 L1005.84,671.702 C1005.84,670.902 1005.24,670.302 1004.44,670.302 L1003.24,670.302 C1002.44,670.302 1001.84,670.902 1001.84,671.702 L1002.34,731.802 C1002.34,732.602 1002.94,733.202 1003.74,733.202 C1003.94,733.202 1004.34,733.102 1004.54,733.002 C1004.94,732.802 1011.44,729.602 1016.84,723.502 C1020.64,719.202 1022.14,714.302 1022.14,710.202 C1022.14,709.302 1022.04,708.502 1021.94,707.702 M1015.04,711.602 C1015.04,713.102 1014.64,717.702 1012.14,721.502 C1010.44,724.102 1007.04,726.802 1005.14,728.302 L1005.44,708.802 C1005.64,707.902 1007.14,705.002 1011.14,705.002 C1014.74,705.002 1015.04,708.402 1015.04,710.502 L1015.04,711.602 "/>
<path class="Accidental" d="M1980.27,620.197 C1979.67,616.297 1977.27,612.597 1972.17,612.597 C1967.17,612.597 1964.27,615.697 1963.77,616.297 L1964.17,584.197 C1964.17,583.397 1963.57,582.797 1962.77,582.797 L1961.57,582.797 C1960.77,582.797 1960.17,583.397 1960.17,584.197 L1960.67,644.297 C1960.67,645.097 1961.27,645.697 1962.07,645.697 C1962.27,645.697 1962.67,645.597 1962.87,645.497 C1963.27,645.297 1969.77,642.097 1975.17,635.997 C1978.97,631.697 1980.47,626.797 1980.47,622.697 C1980.47,621.797 1980.37,620.997 1980.27,620.197 M1973.37,624.097 C1973.37,625.597 1972.97,630.197 1970.47,633.997 C1968.77,636.597 1965.37,639.297 1963.47,640.797 L1963.77,621.297 C1963.97,620.397 1965.47,617.497 1969.47,617.497 C1973.07,617.497 1973.37,620.897 1973.37,622.997 L1973.37,624.097 "/>
<path class="Accidental" d="M2377.75,620.197 C2377.15,616.297 2374.75,612.597 2369.65,612.597 C2364.65,612.597 2361.75,615.697 2361.25,616.297 L2361.65,584.197 C2361.65,583.397 2361.05,582.797 2360.25,582.797 L2359.05,582.797 C2358.25,582.797 2357.65,583.397 2357.65,584.197 L2358.15,644.297 C2358.15,645.097 2358.75,645.697 2359.55,645.697 C2359.75,645.697 2360.15,645.597 2360.35,645.497 C2360.75,645.297 2367.25,642.097 2372.65,635.997 C2376.45,631.697 2377.95,626.797 2377.95,622.697 C2377.95,621.797 2377.85,620.997 2377.75,620.197 M2370.85,624.097 C2370.85,625.597 2370.45,630.197 2367.95,633.997 C2366.25,636.597 2362.85,639.297 2360.95,640.797 L2361.25,621.297 C2361.45,620.397 2362.95,617.497 2366.95,617.497 C2370.55,617.497 2370.85,620.897 2370.85,622.997 L2370.85,624.097 "/>
<path class="Accidental" d="M573.762,1232.74 C573.162,1228.84 570.762,1225.14 565.662,1225.14 C560.662,1225.14 557.762,1228.24 557.262,1228.84 L557.662,1196.74 C557.662,1195.94 557.062,1195.34 556.262,1195.34 L555.062,1195.34 C554.262,1195.34 553.662,1195.94 553.662,1196.74 L554.162,1256.84 C554.162,1257.64 554.762,1258.24 555.562,1258.24 C555.762,1258.24 556.162,1258.14 556.362,1258.04 C556.762,1257.84 563.262,1254.64 568.662,1248.54 C572.462,1244.24 573.962,1239.34 573.962,1235.24 C573.962,1234.34 573.862,1233.54 573.762,1232.74 M566.862,1236.64 C566.862,1238.14 566.462,1242.74 563.962,1246.54 C562.262,1249.14 558.862,1251.84 556.962,1253.34 L557.262,1233.84 C557.462,1232.94 558.962,1230.04 562.962,1230.04 C566.562,1230.04 566.862,1233.44 566.862,1235.54 L566.862,1236.64 "/>
<path class="Accidental" d="M999.533,1232.74 C998.933,1228.84 996.533,1225.14 991.433,1225.14 C986.433,1225.14 983.533,1228.24 983.033,1228.84 L983.433,1196.74 C983.433,1195.94 982.833,1195.34 982.033,1195.34 L980.833,1195.34 C980.033,1195.34 979.433,1195.94 979.433,1196.74 L979.933,1256.84 C979.933,1257.64 980.533,1258.24 981.333,1258.24 C981.533,1258.24 981.933,1258.14 982.133,1258.04 C982.533,1257.84 989.033,1254.64 994.433,1248.54 C998.233,1244.24 999.733,1239.34 999.733,1235.24 C999.733,1234.34 999.633,1233.54 999.533,1232.74 M992.633,1236.64 C992.633,1238.14 992.233,1242.74 989.733,1246.54 C988.033,1249.14 984.633,1251.84 982.733,1253.34 L983.033,1233.84 C983.233,1232.94 984.733,1230.04 988.733,1230.04 C992.333,1230.04 992.633,1233.44 992.633,1235.54 L992.633,1236.64 "/>
<path class="Accidental" d="M1905.18,1320.24 C1904.58,1316.34 1902.18,1312.64 1897.08,1312.64 C1892.08,1312.64 1889.18,1315.74 1888.68,1316.34 L1889.08,1284.24 C1889.08,1283.44 1888.48,1282.84 1887.68,1282.84 L1886.48,1282.84 C1885.68,1282.84 1885.08,1283.44 1885.08,1284.24 L1885.58,1344.34 C1885.58,1345.14 1886.18,1345.74 1886.98,1345.74 C1887.18,1345.74 1887.58,1345.64 1887.78,1345.54 C1888.18,1345.34 1894.68,1342.14 1900.08,1336.04 C1903.88,1331.74 1905.38,1326.84 1905.38,1322.74 C1905.38,1321.84 1905.28,1321.04 1905.18,1320.24 M1898.28,1324.14 C1898.28,1325.64 1897.88,1330.24 1895.38,1334.04 C1893.68,1336.64 1890.28,1339.34 1888.38,1340.84 L1888.68,1321.34 C1888.88,1320.44 1890.38,1317.54 1894.38,1317.54 C1897.98,1317.54 1898.28,1320.94 1898.28,1323.04 L1898.28,1324.14 "/>
<path class="Accidental" d="M2368.67,1320.24 C2368.07,1316.34 2365.67,1312.64 2360.57,1312.64 C2355.57,1312.64 2352.67,1315.74 2352.17,1316.34 L2352.57,1284.24 C2352.57,1283.44 2351.97,1282.84 2351.17,1282.84 L2349.97,1282.84 C2349.17,1282.84 2348.57,1283.44 2348.57,1284.24 L2349.07,1344.34 C2349.07,1345.14 2349.67,1345.74 2350.47,1345.74 C2350.67,1345.74 2351.07,1345.64 2351.27,1345.54 C2351.67,1345.34 2358.17,1342.14 2363.57,1336.04 C2367.37,1331.74 2368.87,1326.84 2368.87,1322.74 C2368.87,1321.84 2368.77,1321.04 2368.67,1320.24 M2361.77,1324.14 C2361.77,1325.64 2361.37,1330.24 2358.87,1334.04 C2357.17,1336.64 2353.77,1339.34 2351.87,1340.84 L2352.17,1321.34 C2352.37,1320.44 2353.87,1317.54 2357.87,1317.54 C2361.47,1317.54 2361.77,1320.94 2361.77,1323.04 L2361.77,1324.14 "/>
<polyline class="LedgerLine" stroke="#000000" stroke-width="4.00" stroke-linejoin="bevel" points="793.311,890.613 843.306,890.613"/>
<polyline class="LedgerLine" stroke="#000000" stroke-width="4.00" stroke-linejoin="bevel" points="1187.59,890.613 1237.59,890.613"/>
<polyline class="LedgerLine" stroke="#000000" stroke-width="4.00" stroke-linejoin="bevel" points="1355.55,890.613 1405.54,890.613"/>
<polyline class="LedgerLine" stroke="#000000" stroke-width="4.00" stroke-linejoin="bevel" points="1355.55,865.612 1405.54,865.612"/>
<polyline class="LedgerLine" stroke="#000000" stroke-width="4.00" stroke-linejoin="bevel" points="1632.95,1040.62 1682.94,1040.62"/>
<polyline class="LedgerLine" stroke="#000000" stroke-width="4.00" stroke-linejoin="bevel" points="1336.43,1653.16 1386.43,1653.16"/>
<polyline class="LedgerLine" stroke="#000000" stroke-width="4.00" stroke-linejoin="bevel" points="1720.77,1653.16 1770.76,1653.16"/>
<polyline class="LedgerLine" stroke="#000000" stroke-width="4.00" stroke-linejoin="bevel" points="1902.88,1678.16 1952.87,1678.16"/>
<polyline class="LedgerLine" stroke="#000000" stroke-width="4.00" stroke-linejoin="bevel" points="1902.88,1653.16 1952.87,1653.16"/>
<polyline class="LedgerLine" stroke="#000000" stroke-width="4.00" stroke-linejoin="bevel" points="2187.61,1503.15 2237.61,1503.15"/>
<polyline class="LedgerLine" stroke="#000000" stroke-width="4.00" stroke-linejoin="bevel" points="1986.72,628.097 2036.71,628.097"/>
<polyline class="LedgerLine" stroke="#000000" stroke-width="4.00" stroke-linejoin="bevel" points="2384.2,628.097 2434.19,628.097"/>
<polyline class="LedgerLine" stroke="#000000" stroke-width="4.00" stroke-linejoin="bevel" points="2567.79,628.097 2617.78,628.097"/>
<polyline class="LedgerLine" stroke="#000000" stroke-width="4.00" stroke-linejoin="bevel" points="2567.79,603.095 2617.78,603.095"/>
<polyline class="LedgerLine" stroke="#000000" stroke-width="4.00" stroke-linejoin="bevel" points="398.1,1240.64 448.096,1240.64"/>
<polyline class="LedgerLine" stroke="#000000" stroke-width="4.00" stroke-linejoin="bevel" points="398.1,1215.63 448.096,1215.63"/>
<polyline class="LedgerLine" stroke="#000000" stroke-width="4.00" stroke-linejoin="bevel" points="580.21,1240.64 630.206,1240.64"/>
<polyline class="LedgerLine" stroke="#000000" stroke-width="4.00" stroke-linejoin="bevel" points="1005.98,1240.64 1055.98,1240.64"/>
<polyline class="Stem" stroke="#000000" stroke-width="2.75" stroke-linejoin="bevel" points="456.377,944.137 456.377,1025"/>
<polyline class="Stem" stroke="#000000" stroke-width="2.75" stroke-linejoin="bevel" points="629.907,919.135 629.907,1003.12"/>
<polyline class="Stem" stroke="#000000" stroke-width="2.75" stroke-linejoin="bevel" points="803.436,894.134 803.436,978.119"/>
<polyline class="Stem" stroke="#000000" stroke-width="2.75" stroke-linejoin="bevel" points="1029.77,919.135 1029.77,1003.12"/>
<polyline class="Stem" stroke="#000000" stroke-width="2.75" stroke-linejoin="bevel" points="1197.72,894.134 1197.72,978.119"/>
<polyline class="Stem" stroke="#000000" stroke-width="2.75" stroke-linejoin="bevel" points="1365.67,856.631 1365.67,965.618"/>
<polyline class="Stem" stroke="#000000" stroke-width="2.75" stroke-linejoin="bevel" points="1672.82,1037.26 1672.82,953.117"/>
<polyline class="Stem" stroke="#000000" stroke-width="2.75" stroke-linejoin="bevel" points="1849.7,999.76 1849.7,915.615"/>
<polyline class="Stem" stroke="#000000" stroke-width="2.75" stroke-linejoin="bevel" points="2026.59,974.759 2026.59,896.864"/>
<polyline class="Stem" stroke="#000000" stroke-width="2.75" stroke-linejoin="bevel" points="2240.47,999.76 2240.47,915.615"/>
<polyline class="Stem" stroke="#000000" stroke-width="2.75" stroke-linejoin="bevel" points="2424.07,974.759 2424.07,896.864"/>
<polyline class="Stem" stroke="#000000" stroke-width="2.75" stroke-linejoin="bevel" points="2577.91,956.638 2577.91,1034.37"/>
<polyline class="Stem" stroke="#000000" stroke-width="2.75" stroke-linejoin="bevel" points="408.226,1569.18 408.226,1646.91"/>
<polyline class="Stem" stroke="#000000" stroke-width="2.75" stroke-linejoin="bevel" points="620.08,1587.3 620.08,1509.4"/>
<polyline class="Stem" stroke="#000000" stroke-width="2.75" stroke-linejoin="bevel" points="802.19,1612.3 802.19,1528.15"/>
<polyline class="Stem" stroke="#000000" stroke-width="2.75" stroke-linejoin="bevel" points="1045.85,1587.3 1045.85,1509.4"/>
<polyline class="Stem" stroke="#000000" stroke-width="2.75" stroke-linejoin="bevel" points="1211.08,1612.3 1211.08,1528.15"/>
<polyline class="Stem" stroke="#000000" stroke-width="2.75" stroke-linejoin="bevel" points="1376.3,1649.8 1376.3,1565.66"/>
<polyline class="Stem" stroke="#000000" stroke-width="2.75" stroke-linejoin="bevel" points="1578.53,1612.3 1578.53,1528.15"/>
<polyline class="Stem" stroke="#000000" stroke-width="2.75" stroke-linejoin="bevel" points="1760.64,1649.8 1760.64,1565.66"/>
<polyline class="Stem" stroke="#000000" stroke-width="2.75" stroke-linejoin="bevel" points="1942.75,1674.8 1942.75,1578.16"/>
<polyline class="Stem" stroke="#000000" stroke-width="2.75" stroke-linejoin="bevel" points="2197.74,1506.67 2197.74,1590.66"/>
<polyline class="Stem" stroke="#000000" stroke-width="2.75" stroke-linejoin="bevel" points="2376.49,1531.67 2376.49,1615.66"/>
<polyline class="Stem" stroke="#000000" stroke-width="2.75" stroke-linejoin="bevel" points="2555.25,1556.68 2555.25,1637.54"/>
<polyline class="Stem" stroke="#000000" stroke-width="2.75" stroke-linejoin="bevel" points="486.121,737.244 486.121,653.098"/>
<polyline class="Stem" stroke="#000000" stroke-width="2.75" stroke-linejoin="bevel" points="659.651,712.242 659.651,634.347"/>
<polyline class="Stem" stroke="#000000" stroke-width="2.75" stroke-linejoin="bevel" points="803.436,694.121 803.436,771.856"/>
<polyline class="Stem" stroke="#000000" stroke-width="2.75" stroke-linejoin="bevel" points="1059.51,712.242 1059.51,634.347"/>
<polyline class="Stem" stroke="#000000" stroke-width="2.75" stroke-linejoin="bevel" points="1197.72,694.121 1197.72,771.856"/>
<polyline class="Stem" stroke="#000000" stroke-width="2.75" stroke-linejoin="bevel" points="1365.67,656.619 1365.67,740.604"/>
<polyline class="Stem" stroke="#000000" stroke-width="2.75" stroke-linejoin="bevel" points="1643.07,694.121 1643.07,771.856"/>
<polyline class="Stem" stroke="#000000" stroke-width="2.75" stroke-linejoin="bevel" points="1819.96,656.619 1819.96,740.604"/>
<polyline class="Stem" stroke="#000000" stroke-width="2.75" stroke-linejoin="bevel" points="1996.84,631.617 1996.84,715.602"/>
<polyline class="Stem" stroke="#000000" stroke-width="2.75" stroke-linejoin="bevel" points="2210.73,656.619 2210.73,740.604"/>
<polyline class="Stem" stroke="#000000" stroke-width="2.75" stroke-linejoin="bevel" points="2394.32,631.617 2394.32,715.602"/>
<polyline class="Stem" stroke="#000000" stroke-width="2.75" stroke-linejoin="bevel" points="2577.91,606.616 2577.91,703.102"/>
<polyline class="Stem" stroke="#000000" stroke-width="2.75" stroke-linejoin="bevel" points="408.226,1219.15 408.226,1315.64"/>
<polyline class="Stem" stroke="#000000" stroke-width="2.75" stroke-linejoin="bevel" points="590.336,1244.16 590.336,1328.14"/>
<polyline class="Stem" stroke="#000000" stroke-width="2.75" stroke-linejoin="bevel" points="772.446,1269.16 772.446,1353.14"/>
<polyline class="Stem" stroke="#000000" stroke-width="2.75" stroke-linejoin="bevel" points="1016.11,1244.16 1016.11,1328.14"/>
<polyline class="Stem" stroke="#000000" stroke-width="2.75" stroke-linejoin="bevel" points="1181.33,1269.16 1181.33,1353.14"/>
<polyline class="Stem" stroke="#000000" stroke-width="2.75" stroke-linejoin="bevel" points="1346.56,1306.66 1346.56,1384.39"/>
<polyline class="Stem" stroke="#000000" stroke-width="2.75" stroke-linejoin="bevel" points="1548.78,1269.16 1548.78,1353.14"/>
<polyline class="Stem" stroke="#000000" stroke-width="2.75" stroke-linejoin="bevel" points="1730.89,1306.66 1730.89,1384.39"/>
<polyline class="Stem" stroke="#000000" stroke-width="2.75" stroke-linejoin="bevel" points="1942.75,1324.78 1942.75,1246.89"/>
<polyline class="Stem" stroke="#000000" stroke-width="2.75" stroke-linejoin="bevel" points="2197.74,1306.66 2197.74,1384.39"/>
<polyline class="Stem" stroke="#000000" stroke-width="2.75" stroke-linejoin="bevel" points="2406.24,1324.78 2406.24,1246.89"/>
<polyline class="Stem" stroke="#000000" stroke-width="2.75" stroke-linejoin="bevel" points="2584.99,1349.78 2584.99,1265.64"/>
<path class="Note" d="M486.502,932.417 C485.002,929.717 482.102,928.017 478.202,927.617 C477.602,927.517 477.102,927.517 476.502,927.517 C473.002,927.517 469.202,928.517 465.702,930.417 C459.102,934.017 455.002,939.917 455.002,945.017 C455.002,946.417 455.202,947.717 455.902,948.917 C457.402,951.617 460.402,953.317 464.302,953.717 C464.902,953.817 465.402,953.817 466.002,953.817 C469.502,953.817 473.202,952.817 476.702,950.917 C483.302,947.317 487.502,941.517 487.502,936.417 C487.502,935.017 487.202,933.617 486.502,932.417"/>
<path class="Note" d="M660.032,907.415 C658.532,904.715 655.632,903.015 651.732,902.615 C651.132,902.515 650.632,902.515 650.032,902.515 C646.532,902.515 642.732,903.515 639.232,905.415 C632.632,909.015 628.532,914.915 628.532,920.015 C628.532,921.415 628.732,922.715 629.432,923.915 C630.932,926.615 633.932,928.315 637.832,928.715 C638.432,928.815 638.932,928.815 639.532,928.815 C643.032,928.815 646.732,927.815 650.232,925.915 C656.832,922.315 661.032,916.515 661.032,911.415 C661.032,910.015 660.732,908.615 660.032,907.415"/>
<path class="Note" d="M833.561,882.413 C832.061,879.713 829.161,878.013 825.261,877.613 C824.661,877.513 824.161,877.513 823.561,877.513 C820.061,877.513 816.261,878.513 812.761,880.413 C806.161,884.013 802.061,889.913 802.061,895.013 C802.061,896.413 802.261,897.713 802.961,898.913 C804.461,901.613 807.461,903.313 811.361,903.713 C811.961,903.813 812.461,903.813 813.061,903.813 C816.561,903.813 820.261,902.813 823.761,900.913 C830.361,897.313 834.561,891.513 834.561,886.413 C834.561,885.013 834.261,883.613 833.561,882.413"/>
<path class="Note" d="M1059.89,907.415 C1058.39,904.715 1055.49,903.015 1051.59,902.615 C1050.99,902.515 1050.49,902.515 1049.89,902.515 C1046.39,902.515 1042.59,903.515 1039.09,905.415 C1032.49,909.015 1028.39,914.915 1028.39,920.015 C1028.39,921.415 1028.59,922.715 1029.29,923.915 C1030.79,926.615 1033.79,928.315 1037.69,928.715 C1038.29,928.815 1038.79,928.815 1039.39,928.815 C1042.89,928.815 1046.59,927.815 1050.09,925.915 C1056.69,922.315 1060.89,916.515 1060.89,911.415 C1060.89,910.015 1060.59,908.615 1059.89,907.415"/>
<path class="Note" d="M1227.84,882.413 C1226.34,879.713 1223.44,878.013 1219.54,877.613 C1218.94,877.513 1218.44,877.513 1217.84,877.513 C1214.34,877.513 1210.54,878.513 1207.04,880.413 C1200.44,884.013 1196.34,889.913 1196.34,895.013 C1196.34,896.413 1196.54,897.713 1197.24,898.913 C1198.74,901.613 1201.74,903.313 1205.64,903.713 C1206.24,903.813 1206.74,903.813 1207.34,903.813 C1210.84,903.813 1214.54,902.813 1218.04,900.913 C1224.64,897.313 1228.84,891.513 1228.84,886.413 C1228.84,885.013 1228.54,883.613 1227.84,882.413"/>
<path class="Note" d="M1395.8,844.911 C1394.3,842.211 1391.4,840.511 1387.5,840.111 C1386.9,840.011 1386.4,840.011 1385.8,840.011 C1382.3,840.011 1378.5,841.011 1375,842.911 C1368.4,846.511 1364.3,852.411 1364.3,857.511 C1364.3,858.911 1364.5,860.211 1365.2,861.411 C1366.7,864.111 1369.7,865.811 1373.6,866.211 C1374.2,866.311 1374.7,866.311 1375.3,866.311 C1378.8,866.311 1382.5,865.311 1386,863.411 C1392.6,859.811 1396.8,854.011 1396.8,848.911 C1396.8,847.511 1396.5,846.111 1395.8,844.911"/>
<path class="Note" d="M1673.2,1032.42 C1671.7,1029.72 1668.8,1028.02 1664.9,1027.62 C1664.3,1027.52 1663.8,1027.52 1663.2,1027.52 C1659.7,1027.52 1655.9,1028.52 1652.4,1030.42 C1645.8,1034.02 1641.7,1039.92 1641.7,1045.02 C1641.7,1046.42 1641.9,1047.72 1642.6,1048.92 C1644.1,1051.62 1647.1,1053.32 1651,1053.72 C1651.6,1053.82 1652.1,1053.82 1652.7,1053.82 C1656.2,1053.82 1659.9,1052.82 1663.4,1050.92 C1670,1047.32 1674.2,1041.52 1674.2,1036.42 C1674.2,1035.02 1673.9,1033.62 1673.2,1032.42"/>
<path class="Note" d="M1850.08,994.921 C1848.58,992.221 1845.68,990.521 1841.78,990.121 C1841.18,990.021 1840.68,990.021 1840.08,990.021 C1836.58,990.021 1832.78,991.021 1829.28,992.921 C1822.68,996.521 1818.58,1002.42 1818.58,1007.52 C1818.58,1008.92 1818.78,1010.22 1819.48,1011.42 C1820.98,1014.12 1823.98,1015.82 1827.88,1016.22 C1828.48,1016.32 1828.98,1016.32 1829.58,1016.32 C1833.08,1016.32 1836.78,1015.32 1840.28,1013.42 C1846.88,1009.82 1851.08,1004.02 1851.08,998.921 C1851.08,997.521 1850.78,996.121 1850.08,994.921"/>
<path class="Note" d="M2026.97,969.919 C2025.47,967.219 2022.57,965.519 2018.67,965.119 C2018.07,965.019 2017.57,965.019 2016.97,965.019 C2013.47,965.019 2009.67,966.019 2006.17,967.919 C1999.57,971.519 1995.47,977.419 1995.47,982.519 C1995.47,983.919 1995.67,985.219 1996.37,986.419 C1997.87,989.119 2000.87,990.819 2004.77,991.219 C2005.37,991.319 2005.87,991.319 2006.47,991.319 C2009.97,991.319 2013.67,990.319 2017.17,988.419 C2023.77,984.819 2027.97,979.019 2027.97,973.919 C2027.97,972.519 2027.67,971.119 2026.97,969.919"/>
<path class="Note" d="M2240.85,994.921 C2239.35,992.221 2236.45,990.521 2232.55,990.121 C2231.95,990.021 2231.45,990.021 2230.85,990.021 C2227.35,990.021 2223.55,991.021 2220.05,992.921 C2213.45,996.521 2209.35,1002.42 2209.35,1007.52 C2209.35,1008.92 2209.55,1010.22 2210.25,1011.42 C2211.75,1014.12 2214.75,1015.82 2218.65,1016.22 C2219.25,1016.32 2219.75,1016.32 2220.35,1016.32 C2223.85,1016.32 2227.55,1015.32 2231.05,1013.42 C2237.65,1009.82 2241.85,1004.02 2241.85,998.921 C2241.85,997.521 2241.55,996.121 2240.85,994.921"/>
<path class="Note" d="M2424.45,969.919 C2422.95,967.219 2420.05,965.519 2416.15,965.119 C2415.55,965.019 2415.05,965.019 2414.45,965.019 C2410.95,965.019 2407.15,966.019 2403.65,967.919 C2397.05,971.519 2392.95,977.419 2392.95,982.519 C2392.95,983.919 2393.15,985.219 2393.85,986.419 C2395.35,989.119 2398.35,990.819 2402.25,991.219 C2402.85,991.319 2403.35,991.319 2403.95,991.319 C2407.45,991.319 2411.15,990.319 2414.65,988.419 C2421.25,984.819 2425.45,979.019 2425.45,973.919 C2425.45,972.519 2425.15,971.119 2424.45,969.919"/>
<path class="Note" d="M2608.04,944.917 C2606.54,942.217 2603.64,940.517 2599.74,940.117 C2599.14,940.017 2598.64,940.017 2598.04,940.017 C2594.54,940.017 2590.74,941.017 2587.24,942.917 C2580.64,946.517 2576.54,952.417 2576.54,957.517 C2576.54,958.917 2576.74,960.217 2577.44,961.417 C2578.94,964.117 2581.94,965.817 2585.84,966.217 C2586.44,966.317 2586.94,966.317 2587.54,966.317 C2591.04,966.317 2594.74,965.317 2598.24,963.417 C2604.84,959.817 2609.04,954.017 2609.04,948.917 C2609.04,947.517 2608.74,946.117 2608.04,944.917"/>
<path class="Note" d="M438.351,1557.46 C436.851,1554.76 433.951,1553.06 430.051,1552.66 C429.451,1552.56 428.951,1552.56 428.351,1552.56 C424.851,1552.56 421.051,1553.56 417.551,1555.46 C410.951,1559.06 406.851,1564.96 406.851,1570.06 C406.851,1571.46 407.051,1572.76 407.751,1573.96 C409.251,1576.66 412.251,1578.36 416.151,1578.76 C416.751,1578.86 417.251,1578.86 417.851,1578.86 C421.351,1578.86 425.051,1577.86 428.551,1575.96 C435.151,1572.36 439.351,1566.56 439.351,1561.46 C439.351,1560.06 439.051,1558.66 438.351,1557.46"/>
<path class="Note" d="M620.461,1582.46 C618.961,1579.76 616.061,1578.06 612.161,1577.66 C611.561,1577.56 611.061,1577.56 610.461,1577.56 C606.961,1577.56 603.161,1578.56 599.661,1580.46 C593.061,1584.06 588.961,1589.96 588.961,1595.06 C588.961,1596.46 589.161,1597.76 589.861,1598.96 C591.361,1601.66 594.361,1603.36 598.261,1603.76 C598.861,1603.86 599.361,1603.86 599.961,1603.86 C603.461,1603.86 607.161,1602.86 610.661,1600.96 C617.261,1597.36 621.461,1591.56 621.461,1586.46 C621.461,1585.06 621.161,1583.66 620.461,1582.46"/>
<path class="Note" d="M802.571,1607.46 C801.071,1604.76 798.171,1603.06 794.271,1602.66 C793.671,1602.56 793.171,1602.56 792.571,1602.56 C789.071,1602.56 785.271,1603.56 781.771,1605.46 C775.171,1609.06 771.071,1614.96 771.071,1620.06 C771.071,1621.46 771.271,1622.76 771.971,1623.96 C773.471,1626.66 776.471,1628.36 780.371,1628.76 C780.971,1628.86 781.471,1628.86 782.071,1628.86 C785.571,1628.86 789.271,1627.86 792.771,1625.96 C799.371,1622.36 803.571,1616.56 803.571,1611.46 C803.571,1610.06 803.271,1608.66 802.571,1607.46"/>
<path class="Note" d="M1046.23,1582.46 C1044.73,1579.76 1041.83,1578.06 1037.93,1577.66 C1037.33,1577.56 1036.83,1577.56 1036.23,1577.56 C1032.73,1577.56 1028.93,1578.56 1025.43,1580.46 C1018.83,1584.06 1014.73,1589.96 1014.73,1595.06 C1014.73,1596.46 1014.93,1597.76 1015.63,1598.96 C1017.13,1601.66 1020.13,1603.36 1024.03,1603.76 C1024.63,1603.86 1025.13,1603.86 1025.73,1603.86 C1029.23,1603.86 1032.93,1602.86 1036.43,1600.96 C1043.03,1597.36 1047.23,1591.56 1047.23,1586.46 C1047.23,1585.06 1046.93,1583.66 1046.23,1582.46"/>
<path class="Note" d="M1211.46,1607.46 C1209.96,1604.76 1207.06,1603.06 1203.16,1602.66 C1202.56,1602.56 1202.06,1602.56 1201.46,1602.56 C1197.96,1602.56 1194.16,1603.56 1190.66,1605.46 C1184.06,1609.06 1179.96,1614.96 1179.96,1620.06 C1179.96,1621.46 1180.16,1622.76 1180.86,1623.96 C1182.36,1626.66 1185.36,1628.36 1189.26,1628.76 C1189.86,1628.86 1190.36,1628.86 1190.96,1628.86 C1194.46,1628.86 1198.16,1627.86 1201.66,1625.96 C1208.26,1622.36 1212.46,1616.56 1212.46,1611.46 C1212.46,1610.06 1212.16,1608.66 1211.46,1607.46"/>
<path class="Note" d="M1376.68,1644.96 C1375.18,1642.26 1372.28,1640.56 1368.38,1640.16 C1367.78,1640.06 1367.28,1640.06 1366.68,1640.06 C1363.18,1640.06 1359.38,1641.06 1355.88,1642.96 C1349.28,1646.56 1345.18,1652.46 1345.18,1657.56 C1345.18,1658.96 1345.38,1660.26 1346.08,1661.46 C1347.58,1664.16 1350.58,1665.86 1354.48,1666.26 C1355.08,1666.36 1355.58,1666.36 1356.18,1666.36 C1359.68,1666.36 1363.38,1665.36 1366.88,1663.46 C1373.48,1659.86 1377.68,1654.06 1377.68,1648.96 C1377.68,1647.56 1377.38,1646.16 1376.68,1644.96"/>
<path class="Note" d="M1578.91,1607.46 C1577.41,1604.76 1574.51,1603.06 1570.61,1602.66 C1570.01,1602.56 1569.51,1602.56 1568.91,1602.56 C1565.41,1602.56 1561.61,1603.56 1558.11,1605.46 C1551.51,1609.06 1547.41,1614.96 1547.41,1620.06 C1547.41,1621.46 1547.61,1622.76 1548.31,1623.96 C1549.81,1626.66 1552.81,1628.36 1556.71,1628.76 C1557.31,1628.86 1557.81,1628.86 1558.41,1628.86 C1561.91,1628.86 1565.61,1627.86 1569.11,1625.96 C1575.71,1622.36 1579.91,1616.56 1579.91,1611.46 C1579.91,1610.06 1579.61,1608.66 1578.91,1607.46"/>
<path class="Note" d="M1761.02,1644.96 C1759.52,1642.26 1756.62,1640.56 1752.72,1640.16 C1752.12,1640.06 1751.62,1640.06 1751.02,1640.06 C1747.52,1640.06 1743.72,1641.06 1740.22,1642.96 C1733.62,1646.56 1729.52,1652.46 1729.52,1657.56 C1729.52,1658.96 1729.72,1660.26 1730.42,1661.46 C1731.92,1664.16 1734.92,1665.86 1738.82,1666.26 C1739.42,1666.36 1739.92,1666.36 1740.52,1666.36 C1744.02,1666.36 1747.72,1665.36 1751.22,1663.46 C1757.82,1659.86 1762.02,1654.06 1762.02,1648.96 C1762.02,1647.56 1761.72,1646.16 1761.02,1644.96"/>
<path class="Note" d="M1943.13,1669.96 C1941.63,1667.26 1938.73,1665.56 1934.83,1665.16 C1934.23,1665.06 1933.73,1665.06 1933.13,1665.06 C1929.63,1665.06 1925.83,1666.06 1922.33,1667.96 C1915.73,1671.56 1911.63,1677.46 1911.63,1682.56 C1911.63,1683.96 1911.83,1685.26 1912.53,1686.46 C1914.03,1689.16 1917.03,1690.86 1920.93,1691.26 C1921.53,1691.36 1922.03,1691.36 1922.63,1691.36 C1926.13,1691.36 1929.83,1690.36 1933.33,1688.46 C1939.93,1684.86 1944.13,1679.06 1944.13,1673.96 C1944.13,1672.56 1943.83,1671.16 1943.13,1669.96"/>
<path class="Note" d="M2227.86,1494.95 C2226.36,1492.25 2223.46,1490.55 2219.56,1490.15 C2218.96,1490.05 2218.46,1490.05 2217.86,1490.05 C2214.36,1490.05 2210.56,1491.05 2207.06,1492.95 C2200.46,1496.55 2196.36,1502.45 2196.36,1507.55 C2196.36,1508.95 2196.56,1510.25 2197.26,1511.45 C2198.76,1514.15 2201.76,1515.85 2205.66,1516.25 C2206.26,1516.35 2206.76,1516.35 2207.36,1516.35 C2210.86,1516.35 2214.56,1515.35 2218.06,1513.45 C2224.66,1509.85 2228.86,1504.05 2228.86,1498.95 C2228.86,1497.55 2228.56,1496.15 2227.86,1494.95"/>
<path class="Note" d="M2406.62,1519.95 C2405.12,1517.25 2402.22,1515.55 2398.32,1515.15 C2397.72,1515.05 2397.22,1515.05 2396.62,1515.05 C2393.12,1515.05 2389.32,1516.05 2385.82,1517.95 C2379.22,1521.55 2375.12,1527.45 2375.12,1532.55 C2375.12,1533.95 2375.32,1535.25 2376.02,1536.45 C2377.52,1539.15 2380.52,1540.85 2384.42,1541.25 C2385.02,1541.35 2385.52,1541.35 2386.12,1541.35 C2389.62,1541.35 2393.32,1540.35 2396.82,1538.45 C2403.42,1534.85 2407.62,1529.05 2407.62,1523.95 C2407.62,1522.55 2407.32,1521.15 2406.62,1519.95"/>
<path class="Note" d="M2585.37,1544.96 C2583.87,1542.26 2580.97,1540.56 2577.07,1540.16 C2576.47,1540.06 2575.97,1540.06 2575.37,1540.06 C2571.87,1540.06 2568.07,1541.06 2564.57,1542.96 C2557.97,1546.56 2553.87,1552.46 2553.87,1557.56 C2553.87,1558.96 2554.07,1560.26 2554.77,1561.46 C2556.27,1564.16 2559.27,1565.86 2563.17,1566.26 C2563.77,1566.36 2564.27,1566.36 2564.87,1566.36 C2568.37,1566.36 2572.07,1565.36 2575.57,1563.46 C2582.17,1559.86 2586.37,1554.06 2586.37,1548.96 C2586.37,1547.56 2586.07,1546.16 2585.37,1544.96"/>
<path class="Note" d="M486.502,732.404 C485.002,729.704 482.102,728.004 478.202,727.604 C477.602,727.504 477.102,727.504 476.502,727.504 C473.002,727.504 469.202,728.504 465.702,730.404 C459.102,734.004 455.002,739.904 455.002,745.004 C455.002,746.404 455.202,747.704 455.902,748.904 C457.402,751.604 460.402,753.304 464.302,753.704 C464.902,753.804 465.402,753.804 466.002,753.804 C469.502,753.804 473.202,752.804 476.702,750.904 C483.302,747.304 487.502,741.504 487.502,736.404 C487.502,735.004 487.202,733.604 486.502,732.404"/>
<path class="Note" d="M660.032,707.402 C658.532,704.702 655.632,703.002 651.732,702.602 C651.132,702.502 650.632,702.502 650.032,702.502 C646.532,702.502 642.732,703.502 639.232,705.402 C632.632,709.002 628.532,714.902 628.532,720.002 C628.532,721.402 628.732,722.702 629.432,723.902 C630.932,726.602 633.932,728.302 637.832,728.702 C638.432,728.802 638.932,728.802 639.532,728.802 C643.032,728.802 646.732,727.802 650.232,725.902 C656.832,722.302 661.032,716.502 661.032,711.402 C661.032,710.002 660.732,708.602 660.032,707.402"/>
<path class="Note" d="M833.561,682.401 C832.061,679.701 829.161,678.001 825.261,677.601 C824.661,677.501 824.161,677.501 823.561,677.501 C820.061,677.501 816.261,678.501 812.761,680.401 C806.161,684.001 802.061,689.901 802.061,695.001 C802.061,696.401 802.261,697.701 802.961,698.901 C804.461,701.601 807.461,703.301 811.361,703.701 C811.961,703.801 812.461,703.801 813.061,703.801 C816.561,703.801 820.261,702.801 823.761,700.901 C830.361,697.301 834.561,691.501 834.561,686.401 C834.561,685.001 834.261,683.601 833.561,682.401"/>
<path class="Note" d="M1059.89,707.402 C1058.39,704.702 1055.49,703.002 1051.59,702.602 C1050.99,702.502 1050.49,702.502 1049.89,702.502 C1046.39,702.502 1042.59,703.502 1039.09,705.402 C1032.49,709.002 1028.39,714.902 1028.39,720.002 C1028.39,721.402 1028.59,722.702 1029.29,723.902 C1030.79,726.602 1033.79,728.302 1037.69,728.702 C1038.29,728.802 1038.79,728.802 1039.39,728.802 C1042.89,728.802 1046.59,727.802 1050.09,725.902 C1056.69,722.302 1060.89,716.502 1060.89,711.402 C1060.89,710.002 1060.59,708.602 1059.89,707.402"/>
<path class="Note" d="M1227.84,682.401 C1226.34,679.701 1223.44,678.001 1219.54,677.601 C1218.94,677.501 1218.44,677.501 1217.84,677.501 C1214.34,677.501 1210.54,678.501 1207.04,680.401 C1200.44,684.001 1196.34,689.901 1196.34,695.001 C1196.34,696.401 1196.54,697.701 1197.24,698.901 C1198.74,701.601 1201.74,703.301 1205.64,703.701 C1206.24,703.801 1206.74,703.801 1207.34,703.801 C1210.84,703.801 1214.54,702.801 1218.04,700.901 C1224.64,697.301 1228.84,691.501 1228.84,686.401 C1228.84,685.001 1228.54,683.601 1227.84,682.401"/>
<path class="Note" d="M1395.8,644.898 C1394.3,642.198 1391.4,640.498 1387.5,640.098 C1386.9,639.998 1386.4,639.998 1385.8,639.998 C1382.3,639.998 1378.5,640.998 1375,642.898 C1368.4,646.498 1364.3,652.398 1364.3,657.498 C1364.3,658.898 1364.5,660.198 1365.2,661.398 C1366.7,664.098 1369.7,665.798 1373.6,666.198 C1374.2,666.298 1374.7,666.298 1375.3,666.298 C1378.8,666.298 1382.5,665.298 1386,663.398 C1392.6,659.798 1396.8,653.998 1396.8,648.898 C1396.8,647.498 1396.5,646.098 1395.8,644.898"/>
<path class="Note" d="M1673.2,682.401 C1671.7,679.701 1668.8,678.001 1664.9,677.601 C1664.3,677.501 1663.8,677.501 1663.2,677.501 C1659.7,677.501 1655.9,678.501 1652.4,680.401 C1645.8,684.001 1641.7,689.901 1641.7,695.001 C1641.7,696.401 1641.9,697.701 1642.6,698.901 C1644.1,701.601 1647.1,703.301 1651,703.701 C1651.6,703.801 1652.1,703.801 1652.7,703.801 C1656.2,703.801 1659.9,702.801 1663.4,700.901 C1670,697.301 1674.2,691.501 1674.2,686.401 C1674.2,685.001 1673.9,683.601 1673.2,682.401"/>
<path class="Note" d="M1850.08,644.898 C1848.58,642.198 1845.68,640.498 1841.78,640.098 C1841.18,639.998 1840.68,639.998 1840.08,639.998 C1836.58,639.998 1832.78,640.998 1829.28,642.898 C1822.68,646.498 1818.58,652.398 1818.58,657.498 C1818.58,658.898 1818.78,660.198 1819.48,661.398 C1820.98,664.098 1823.98,665.798 1827.88,666.198 C1828.48,666.298 1828.98,666.298 1829.58,666.298 C1833.08,666.298 1836.78,665.298 1840.28,663.398 C1846.88,659.798 1851.08,653.998 1851.08,648.898 C1851.08,647.498 1850.78,646.098 1850.08,644.898"/>
<path class="Note" d="M2026.97,619.897 C2025.47,617.197 2022.57,615.497 2018.67,615.097 C2018.07,614.997 2017.57,614.997 2016.97,614.997 C2013.47,614.997 2009.67,615.997 2006.17,617.897 C1999.57,621.497 1995.47,627.397 1995.47,632.497 C1995.47,633.897 1995.67,635.197 1996.37,636.397 C1997.87,639.097 2000.87,640.797 2004.77,641.197 C2005.37,641.297 2005.87,641.297 2006.47,641.297 C2009.97,641.297 2013.67,640.297 2017.17,638.397 C2023.77,634.797 2027.97,628.997 2027.97,623.897 C2027.97,622.497 2027.67,621.097 2026.97,619.897"/>
<path class="Note" d="M2240.85,644.898 C2239.35,642.198 2236.45,640.498 2232.55,640.098 C2231.95,639.998 2231.45,639.998 2230.85,639.998 C2227.35,639.998 2223.55,640.998 2220.05,642.898 C2213.45,646.498 2209.35,652.398 2209.35,657.498 C2209.35,658.898 2209.55,660.198 2210.25,661.398 C2211.75,664.098 2214.75,665.798 2218.65,666.198 C2219.25,666.298 2219.75,666.298 2220.35,666.298 C2223.85,666.298 2227.55,665.298 2231.05,663.398 C2237.65,659.798 2241.85,653.998 2241.85,648.898 C2241.85,647.498 2241.55,646.098 2240.85,644.898"/>
<path class="Note" d="M2424.45,619.897 C2422.95,617.197 2420.05,615.497 2416.15,615.097 C2415.55,614.997 2415.05,614.997 2414.45,614.997 C2410.95,614.997 2407.15,615.997 2403.65,617.897 C2397.05,621.497 2392.95,627.397 2392.95,632.497 C2392.95,633.897 2393.15,635.197 2393.85,636.397 C2395.35,639.097 2398.35,640.797 2402.25,641.197 C2402.85,641.297 2403.35,641.297 2403.95,641.297 C2407.45,641.297 2411.15,640.297 2414.65,638.397 C2421.25,634.797 2425.45,628.997 2425.45,623.897 C2425.45,622.497 2425.15,621.097 2424.45,619.897"/>
<path class="Note" d="M2608.04,594.895 C2606.54,592.195 2603.64,590.495 2599.74,590.095 C2599.14,589.995 2598.64,589.995 2598.04,589.995 C2594.54,589.995 2590.74,590.995 2587.24,592.895 C2580.64,596.495 2576.54,602.395 2576.54,607.495 C2576.54,608.895 2576.74,610.195 2577.44,611.395 C2578.94,614.095 2581.94,615.795 2585.84,616.195 C2586.44,616.295 2586.94,616.295 2587.54,616.295 C2591.04,616.295 2594.74,615.295 2598.24,613.395 C2604.84,609.795 2609.04,603.995 2609.04,598.895 C2609.04,597.495 2608.74,596.095 2608.04,594.895"/>
<path class="Note" d="M438.351,1207.43 C436.851,1204.73 433.951,1203.03 430.051,1202.63 C429.451,1202.53 428.951,1202.53 428.351,1202.53 C424.851,1202.53 421.051,1203.53 417.551,1205.43 C410.951,1209.03 406.851,1214.93 406.851,1220.03 C406.851,1221.43 407.051,1222.73 407.751,1223.93 C409.251,1226.63 412.251,1228.33 416.151,1228.73 C416.751,1228.83 417.251,1228.83 417.851,1228.83 C421.351,1228.83 425.051,1227.83 428.551,1225.93 C435.151,1222.33 439.351,1216.53 439.351,1211.43 C439.351,1210.03 439.051,1208.63 438.351,1207.43"/>
<path class="Note" d="M620.461,1232.44 C618.961,1229.74 616.061,1228.04 612.161,1227.64 C611.561,1227.54 611.061,1227.54 610.461,1227.54 C606.961,1227.54 603.161,1228.54 599.661,1230.44 C593.061,1234.04 588.961,1239.94 588.961,1245.04 C588.961,1246.44 589.161,1247.74 589.861,1248.94 C591.361,1251.64 594.361,1253.34 598.261,1253.74 C598.861,1253.84 599.361,1253.84 599.961,1253.84 C603.461,1253.84 607.161,1252.84 610.661,1250.94 C617.261,1247.34 621.461,1241.54 621.461,1236.44 C621.461,1235.04 621.161,1233.64 620.461,1232.44"/>
<path class="Note" d="M802.571,1257.44 C801.071,1254.74 798.171,1253.04 794.271,1252.64 C793.671,1252.54 793.171,1252.54 792.571,1252.54 C789.071,1252.54 785.271,1253.54 781.771,1255.44 C775.171,1259.04 771.071,1264.94 771.071,1270.04 C771.071,1271.44 771.271,1272.74 771.971,1273.94 C773.471,1276.64 776.471,1278.34 780.371,1278.74 C780.971,1278.84 781.471,1278.84 782.071,1278.84 C785.571,1278.84 789.271,1277.84 792.771,1275.94 C799.371,1272.34 803.571,1266.54 803.571,1261.44 C803.571,1260.04 803.271,1258.64 802.571,1257.44"/>
<path class="Note" d="M1046.23,1232.44 C1044.73,1229.74 1041.83,1228.04 1037.93,1227.64 C1037.33,1227.54 1036.83,1227.54 1036.23,1227.54 C1032.73,1227.54 1028.93,1228.54 1025.43,1230.44 C1018.83,1234.04 1014.73,1239.94 1014.73,1245.04 C1014.73,1246.44 1014.93,1247.74 1015.63,1248.94 C1017.13,1251.64 1020.13,1253.34 1024.03,1253.74 C1024.63,1253.84 1025.13,1253.84 1025.73,1253.84 C1029.23,1253.84 1032.93,1252.84 1036.43,1250.94 C1043.03,1247.34 1047.23,1241.54 1047.23,1236.44 C1047.23,1235.04 1046.93,1233.64 1046.23,1232.44"/>
<path class="Note" d="M1211.46,1257.44 C1209.96,1254.74 1207.06,1253.04 1203.16,1252.64 C1202.56,1252.54 1202.06,1252.54 1201.46,1252.54 C1197.96,1252.54 1194.16,1253.54 1190.66,1255.44 C1184.06,1259.04 1179.96,1264.94 1179.96,1270.04 C1179.96,1271.44 1180.16,1272.74 1180.86,1273.94 C1182.36,1276.64 1185.36,1278.34 1189.26,1278.74 C1189.86,1278.84 1190.36,1278.84 1190.96,1278.84 C1194.46,1278.84 1198.16,1277.84 1201.66,1275.94 C1208.26,1272.34 1212.46,1266.54 1212.46,1261.44 C1212.46,1260.04 1212.16,1258.64 1211.46,1257.44"/>
<path class="Note" d="M1376.68,1294.94 C1375.18,1292.24 1372.28,1290.54 1368.38,1290.14 C1367.78,1290.04 1367.28,1290.04 1366.68,1290.04 C1363.18,1290.04 1359.38,1291.04 1355.88,1292.94 C1349.28,1296.54 1345.18,1302.44 1345.18,1307.54 C1345.18,1308.94 1345.38,1310.24 1346.08,1311.44 C1347.58,1314.14 1350.58,1315.84 1354.48,1316.24 C1355.08,1316.34 1355.58,1316.34 1356.18,1316.34 C1359.68,1316.34 1363.38,1315.34 1366.88,1313.44 C1373.48,1309.84 1377.68,1304.04 1377.68,1298.94 C1377.68,1297.54 1377.38,1296.14 1376.68,1294.94"/>
<path class="Note" d="M1578.91,1257.44 C1577.41,1254.74 1574.51,1253.04 1570.61,1252.64 C1570.01,1252.54 1569.51,1252.54 1568.91,1252.54 C1565.41,1252.54 1561.61,1253.54 1558.11,1255.44 C1551.51,1259.04 1547.41,1264.94 1547.41,1270.04 C1547.41,1271.44 1547.61,1272.74 1548.31,1273.94 C1549.81,1276.64 1552.81,1278.34 1556.71,1278.74 C1557.31,1278.84 1557.81,1278.84 1558.41,1278.84 C1561.91,1278.84 1565.61,1277.84 1569.11,1275.94 C1575.71,1272.34 1579.91,1266.54 1579.91,1261.44 C1579.91,1260.04 1579.61,1258.64 1578.91,1257.44"/>
<path class="Note" d="M1761.02,1294.94 C1759.52,1292.24 1756.62,1290.54 1752.72,1290.14 C1752.12,1290.04 1751.62,1290.04 1751.02,1290.04 C1747.52,1290.04 1743.72,1291.04 1740.22,1292.94 C1733.62,1296.54 1729.52,1302.44 1729.52,1307.54 C1729.52,1308.94 1729.72,1310.24 1730.42,1311.44 C1731.92,1314.14 1734.92,1315.84 1738.82,1316.24 C1739.42,1316.34 1739.92,1316.34 1740.52,1316.34 C1744.02,1316.34 1747.72,1315.34 1751.22,1313.44 C1757.82,1309.84 1762.02,1304.04 1762.02,1298.94 C1762.02,1297.54 1761.72,1296.14 1761.02,1294.94"/>
<path class="Note" d="M1943.13,1319.94 C1941.63,1317.24 1938.73,1315.54 1934.83,1315.14 C1934.23,1315.04 1933.73,1315.04 1933.13,1315.04 C1929.63,1315.04 1925.83,1316.04 1922.33,1317.94 C1915.73,1321.54 1911.63,1327.44 1911.63,1332.54 C1911.63,1333.94 1911.83,1335.24 1912.53,1336.44 C1914.03,1339.14 1917.03,1340.84 1920.93,1341.24 C1921.53,1341.34 1922.03,1341.34 1922.63,1341.34 C1926.13,1341.34 1929.83,1340.34 1933.33,1338.44 C1939.93,1334.84 1944.13,1329.04 1944.13,1323.94 C1944.13,1322.54 1943.83,1321.14 1943.13,1319.94"/>
<path class="Note" d="M2227.86,1294.94 C2226.36,1292.24 2223.46,1290.54 2219.56,1290.14 C2218.96,1290.04 2218.46,1290.04 2217.86,1290.04 C2214.36,1290.04 2210.56,1291.04 2207.06,1292.94 C2200.46,1296.54 2196.36,1302.44 2196.36,1307.54 C2196.36,1308.94 2196.56,1310.24 2197.26,1311.44 C2198.76,1314.14 2201.76,1315.84 2205.66,1316.24 C2206.26,1316.34 2206.76,1316.34 2207.36,1316.34 C2210.86,1316.34 2214.56,1315.34 2218.06,1313.44 C2224.66,1309.84 2228.86,1304.04 2228.86,1298.94 C2228.86,1297.54 2228.56,1296.14 2227.86,1294.94"/>
<path class="Note" d="M2406.62,1319.94 C2405.12,1317.24 2402.22,1315.54 2398.32,1315.14 C2397.72,1315.04 2397.22,1315.04 2396.62,1315.04 C2393.12,1315.04 2389.32,1316.04 2385.82,1317.94 C2379.22,1321.54 2375.12,1327.44 2375.12,1332.54 C2375.12,1333.94 2375.32,1335.24 2376.02,1336.44 C2377.52,1339.14 2380.52,1340.84 2384.42,1341.24 C2385.02,1341.34 2385.52,1341.34 2386.12,1341.34 C2389.62,1341.34 2393.32,1340.34 2396.82,1338.44 C2403.42,1334.84 2407.62,1329.04 2407.62,1323.94 C2407.62,1322.54 2407.32,1321.14 2406.62,1319.94"/>
<path class="Note" d="M2585.37,1344.94 C2583.87,1342.24 2580.97,1340.54 2577.07,1340.14 C2576.47,1340.04 2575.97,1340.04 2575.37,1340.04 C2571.87,1340.04 2568.07,1341.04 2564.57,1342.94 C2557.97,1346.54 2553.87,1352.44 2553.87,1357.54 C2553.87,1358.94 2554.07,1360.24 2554.77,1361.44 C2556.27,1364.14 2559.27,1365.84 2563.17,1366.24 C2563.77,1366.34 2564.27,1366.34 2564.87,1366.34 C2568.37,1366.34 2572.07,1365.34 2575.57,1363.44 C2582.17,1359.84 2586.37,1354.04 2586.37,1348.94 C2586.37,1347.54 2586.07,1346.14 2585.37,1344.94"/>
<path class="Clef" d="M297,915.517 C289.4,915.517 283.3,919.917 283.2,919.917 C277.4,924.217 275.1,929.317 274.2,932.817 C273.7,934.617 273.5,936.417 273.5,938.117 C273.5,940.517 273.9,942.717 274.8,944.617 C276,947.317 278.3,949.217 281.3,950.217 C282.5,950.617 283.8,950.817 285.1,950.817 C287.3,950.817 289.6,950.217 291.5,949.117 C294.6,947.417 296.5,943.817 296.5,939.917 C296.5,936.417 294.7,933.217 291.7,931.317 C289.6,929.917 287.6,929.517 285.9,929.517 C284.7,929.517 283.6,929.717 282.7,930.017 C281.7,930.417 280,931.417 279.2,932.117 C279.5,930.217 280.7,927.317 281.8,925.717 C282.9,924.117 285.1,922.117 286.8,921.217 C289.3,919.817 292.5,919.217 296,919.217 C306.2,919.217 311.2,927.417 311.2,944.217 C311.2,953.517 307.7,962.417 304.7,968.317 C301.4,974.917 297,981.217 293.1,984.717 C282.7,994.217 272.9,998.717 272.8,998.717 C272.8,998.717 271.3,999.617 271.7,1001.12 C272,1002.12 272.9,1002.32 273.5,1002.32 C273.6,1002.32 273.9,1002.22 274,1002.22 C274.1,1002.22 285.5,997.517 294.6,990.417 C299.7,986.717 304.3,982.717 308.3,978.417 C311.9,974.517 315,970.317 317.5,966.117 C321.9,958.617 324.4,950.817 324.4,944.117 C324.4,935.817 322.2,928.917 318.1,924.017 C313.4,918.417 306.3,915.517 297,915.517 M328.4,928.217 C328.4,931.017 330.6,933.217 333.2,933.217 C335.8,933.217 338,931.017 338,928.217 C338,925.417 335.8,923.117 333.2,923.117 C330.6,923.117 328.4,925.417 328.4,928.217 M328.4,952.917 C328.4,955.717 330.6,958.017 333.2,958.017 C335.8,958.017 338,955.717 338,952.917 C338,950.117 335.8,947.817 333.2,947.817 C330.6,947.817 328.4,950.117 328.4,952.917"/>
<path class="Clef" transform="matrix(0.80005,0,0,0.80005,1556.75,990.62)" d="M63.4,-5.9 C62.2,-11.3 59.5,-15.2 58.7,-16.2 C55.5,-20.5 51.5,-23.3 46.8,-24.7 C44.5,-25.4 42.4,-25.6 40.4,-25.6 C39.7,-25.6 39,-25.6 38.3,-25.5 C37.3,-31.5 36.2,-37.4 35.3,-42.8 C40.9,-49 44.6,-54.9 47,-59.3 C50.6,-66 52,-70.7 52.1,-70.9 C53.3,-73.9 54,-77.7 54,-82.2 C54,-84.9 53.7,-87.8 53.3,-90.8 C52.2,-97.9 50,-104.6 47.5,-108.3 C46.2,-110.2 45,-111.3 43.8,-111.3 C42.6,-111.3 40.1,-110.1 37.2,-107.3 C34.9,-105.1 31.6,-101.2 29,-95.2 C26.7,-89.8 26,-82.9 26,-77 C26,-75.2 26.1,-73.5 26.2,-71.9 C26.4,-68.3 27.1,-62.5 27.7,-58.9 C27.7,-58.8 28,-57.3 28.4,-54.7 L27.7,-54 C26.7,-53 25.5,-51.9 24.1,-50.5 C23.2,-49.6 22.3,-48.8 21.3,-47.8 C12.8,-39.6 0,-27.2 0,-8.1 C0,-3.4 0.9,1 2.7,5 C4.3,8.6 6.6,11.9 9.5,14.8 C17,22.2 27.2,25.4 34.3,25.4 L34.9,25.4 C37.8,25.3 40.5,25 42.9,24.6 C44.7,34.2 45.9,41.3 45.9,46.6 C45.9,53.1 44.3,57 40.4,59.8 C38,61.5 35.1,62.6 32,62.7 L31.2,62.7 C29.7,62.7 27.2,62.3 25.7,61.9 C25.7,61.9 25.4,61.8 25.4,61.6 C25.4,61.4 25.8,61.4 25.8,61.4 C27.7,61 31.3,59.7 33.7,56.4 C34.8,54.9 35.5,52.6 35.5,50.1 C35.5,48.5 35.2,46.8 34.5,45.3 C33.4,42.9 30.8,39.9 25.2,39.5 L24.1,39.5 C22,39.5 20.2,40 18.5,41 C16.7,42.1 15.1,43.8 14.1,45.8 C13,47.8 12.5,50 12.5,52.2 C12.5,55.1 13.4,57.8 15.2,60 C18.2,63.6 22.9,65.9 28.3,66.5 C29,66.6 30.1,66.7 30.8,66.7 C35.2,66.7 39.6,65.5 43.2,63.3 C46.9,60.7 49,56.7 49.7,51.1 C49.9,49.8 49.9,48.4 49.9,46.9 C49.9,43 49.4,38.3 48.4,32.5 C48,30.4 47.6,27.4 46.9,23.6 C52.7,21.7 56.8,18 60.6,12.2 C62.9,8.2 64,4.1 64,-0.2 C64,-2.1 63.8,-4 63.4,-5.9 M33.2,-83.8 C35,-89.5 37.7,-92.9 39.7,-94.6 C41.5,-96.1 43.1,-96.8 44,-96.8 C44.1,-96.8 44.3,-96.7 44.4,-96.7 C44.7,-96.6 45.1,-96.1 45.5,-95.4 C46.4,-93.6 47.3,-90.3 47.3,-86.6 C47.3,-84.7 47.1,-82.7 46.5,-80.9 C44.3,-74.1 39.7,-66.8 32.7,-59.1 C32.5,-60.2 32.3,-61.2 32.2,-62.2 C31.7,-65.4 31.4,-68.6 31.4,-71.5 C31.4,-76 32,-80.1 33.2,-83.8 M29.2,20.3 C24.6,19.1 20.1,16.6 16.3,13.1 C15,11.9 13.2,9.7 11.7,6.3 C10.4,3.3 9.7,0.2 9.7,-3.2 L9.7,-3.9 C9.8,-8.6 11.1,-13.4 13.6,-18.2 C16.5,-23.8 21,-29.3 27.1,-34.6 C28.6,-35.9 30,-37.2 31.3,-38.5 C32.1,-34.2 32.8,-29.5 33.7,-24.6 C29.8,-23.3 25.1,-20.3 22,-14.6 C19.6,-10.1 18.9,-6.2 18.9,-3 C18.9,-1.5 19.1,-0.1 19.3,1 C20.2,5.5 22.8,9.2 26.3,11.3 C27.1,11.8 30.4,13.5 32.4,13.5 C32.7,13.5 33,13.5 33.2,13.4 C33.5,13.3 33.8,13.1 33.9,12.8 C34,12.6 34,12.4 34,12.2 C34,11.4 33.2,10.8 31.9,10 C31.3,9.6 30.6,9.2 29.9,8.7 C27.3,6.7 25.8,3.6 25.8,0.2 C25.8,-0.8 26,-1.7 26.2,-2.7 C26.7,-4.7 28.4,-7.5 29.9,-8.9 C31.6,-10.4 33.6,-11.6 36,-12.2 C38,-1 40.1,10.1 41.7,18.5 C41.8,19.2 42,19.9 42.1,20.6 C40.1,21 38.1,21.2 36.2,21.2 C33.8,21.2 31.5,20.9 29.2,20.3 M54.9,10.1 C53.7,13.3 51.2,17.3 46.1,19.4 C46,19 46,18.5 45.9,18.1 C44.4,9.3 42.5,-1.6 40.5,-12.9 L41.5,-12.9 C51.2,-12.9 55.1,-5.7 56,-1.1 C56.2,-0.2 56.3,1 56.3,2.3 C56.3,4.6 55.9,7.4 54.9,10.1"/>
<path class="Clef" d="M335,1597.26 C333.8,1591.86 331.1,1587.96 330.3,1586.96 C327.1,1582.66 323.1,1579.86 318.4,1578.46 C316.1,1577.76 314,1577.56 312,1577.56 C311.3,1577.56 310.6,1577.56 309.9,1577.66 C308.9,1571.66 307.8,1565.76 306.9,1560.36 C312.5,1554.16 316.2,1548.26 318.6,1543.86 C322.2,1537.16 323.6,1532.46 323.7,1532.26 C324.9,1529.26 325.6,1525.46 325.6,1520.96 C325.6,1518.26 325.3,1515.36 324.9,1512.36 C323.8,1505.26 321.6,1498.56 319.1,1494.86 C317.8,1492.96 316.6,1491.86 315.4,1491.86 C314.2,1491.86 311.7,1493.06 308.8,1495.86 C306.5,1498.06 303.2,1501.96 300.6,1507.96 C298.3,1513.36 297.6,1520.26 297.6,1526.16 C297.6,1527.96 297.7,1529.66 297.8,1531.26 C298,1534.86 298.7,1540.66 299.3,1544.26 C299.3,1544.36 299.6,1545.86 300,1548.46 L299.3,1549.16 C298.3,1550.16 297.1,1551.26 295.7,1552.66 C294.8,1553.56 293.9,1554.36 292.9,1555.36 C284.4,1563.56 271.6,1575.96 271.6,1595.06 C271.6,1599.76 272.5,1604.16 274.3,1608.16 C275.9,1611.76 278.2,1615.06 281.1,1617.96 C288.6,1625.36 298.8,1628.56 305.9,1628.56 L306.5,1628.56 C309.4,1628.46 312.1,1628.16 314.5,1627.76 C316.3,1637.36 317.5,1644.46 317.5,1649.76 C317.5,1656.26 315.9,1660.16 312,1662.96 C309.6,1664.66 306.7,1665.76 303.6,1665.86 L302.8,1665.86 C301.3,1665.86 298.8,1665.46 297.3,1665.06 C297.3,1665.06 297,1664.96 297,1664.76 C297,1664.56 297.4,1664.56 297.4,1664.56 C299.3,1664.16 302.9,1662.86 305.3,1659.56 C306.4,1658.06 307.1,1655.76 307.1,1653.26 C307.1,1651.66 306.8,1649.96 306.1,1648.46 C305,1646.06 302.4,1643.06 296.8,1642.66 L295.7,1642.66 C293.6,1642.66 291.8,1643.16 290.1,1644.16 C288.3,1645.26 286.7,1646.96 285.7,1648.96 C284.6,1650.96 284.1,1653.16 284.1,1655.36 C284.1,1658.26 285,1660.96 286.8,1663.16 C289.8,1666.76 294.5,1669.06 299.9,1669.66 C300.6,1669.76 301.7,1669.86 302.4,1669.86 C306.8,1669.86 311.2,1668.66 314.8,1666.46 C318.5,1663.86 320.6,1659.86 321.3,1654.26 C321.5,1652.96 321.5,1651.56 321.5,1650.06 C321.5,1646.16 321,1641.46 320,1635.66 C319.6,1633.56 319.2,1630.56 318.5,1626.76 C324.3,1624.86 328.4,1621.16 332.2,1615.36 C334.5,1611.36 335.6,1607.26 335.6,1602.96 C335.6,1601.06 335.4,1599.16 335,1597.26 M304.8,1519.36 C306.6,1513.66 309.3,1510.26 311.3,1508.56 C313.1,1507.06 314.7,1506.36 315.6,1506.36 C315.7,1506.36 315.9,1506.46 316,1506.46 C316.3,1506.56 316.7,1507.06 317.1,1507.76 C318,1509.56 318.9,1512.86 318.9,1516.56 C318.9,1518.46 318.7,1520.46 318.1,1522.26 C315.9,1529.06 311.3,1536.36 304.3,1544.06 C304.1,1542.96 303.9,1541.96 303.8,1540.96 C303.3,1537.76 303,1534.56 303,1531.66 C303,1527.16 303.6,1523.06 304.8,1519.36 M300.8,1623.46 C296.2,1622.26 291.7,1619.76 287.9,1616.26 C286.6,1615.06 284.8,1612.86 283.3,1609.46 C282,1606.46 281.3,1603.36 281.3,1599.96 L281.3,1599.26 C281.4,1594.56 282.7,1589.76 285.2,1584.96 C288.1,1579.36 292.6,1573.86 298.7,1568.56 C300.2,1567.26 301.6,1565.96 302.9,1564.66 C303.7,1568.96 304.4,1573.66 305.3,1578.56 C301.4,1579.86 296.7,1582.86 293.6,1588.56 C291.2,1593.06 290.5,1596.96 290.5,1600.16 C290.5,1601.66 290.7,1603.06 290.9,1604.16 C291.8,1608.66 294.4,1612.36 297.9,1614.46 C298.7,1614.96 302,1616.66 304,1616.66 C304.3,1616.66 304.6,1616.66 304.8,1616.56 C305.1,1616.46 305.4,1616.26 305.5,1615.96 C305.6,1615.76 305.6,1615.56 305.6,1615.36 C305.6,1614.56 304.8,1613.96 303.5,1613.16 C302.9,1612.76 302.2,1612.36 301.5,1611.86 C298.9,1609.86 297.4,1606.76 297.4,1603.36 C297.4,1602.36 297.6,1601.46 297.8,1600.46 C298.3,1598.46 300,1595.66 301.5,1594.26 C303.2,1592.76 305.2,1591.56 307.6,1590.96 C309.6,1602.16 311.7,1613.26 313.3,1621.66 C313.4,1622.36 313.6,1623.06 313.7,1623.76 C311.7,1624.16 309.7,1624.36 307.8,1624.36 C305.4,1624.36 303.1,1624.06 300.8,1623.46 M326.5,1613.26 C325.3,1616.46 322.8,1620.46 317.7,1622.56 C317.6,1622.16 317.6,1621.66 317.5,1621.26 C316,1612.46 314.1,1601.56 312.1,1590.26 L313.1,1590.26 C322.8,1590.26 326.7,1597.46 327.6,1602.06 C327.8,1602.96 327.9,1604.16 327.9,1605.46 C327.9,1607.76 327.5,1610.56 326.5,1613.26"/>
<path class="Clef" transform="matrix(0.80005,0,0,0.80005,2118.24,1553.16)" d="M25.4,-25.1 C17.8,-25.1 11.7,-20.7 11.6,-20.7 C5.8,-16.4 3.5,-11.3 2.6,-7.8 C2.1,-6 1.9,-4.2 1.9,-2.5 C1.9,-0.1 2.3,2.1 3.2,4 C4.4,6.7 6.7,8.6 9.7,9.6 C10.9,10 12.2,10.2 13.5,10.2 C15.7,10.2 18,9.6 19.9,8.5 C23,6.8 24.9,3.2 24.9,-0.7 C24.9,-4.2 23.1,-7.4 20.1,-9.3 C18,-10.7 16,-11.1 14.3,-11.1 C13.1,-11.1 12,-10.9 11.1,-10.6 C10.1,-10.2 8.4,-9.2 7.6,-8.5 C7.9,-10.4 9.1,-13.3 10.2,-14.9 C11.3,-16.5 13.5,-18.5 15.2,-19.4 C17.7,-20.8 20.9,-21.4 24.4,-21.4 C34.6,-21.4 39.6,-13.2 39.6,3.6 C39.6,12.9 36.1,21.8 33.1,27.7 C29.8,34.3 25.4,40.6 21.5,44.1 C11.1,53.6 1.3,58.1 1.2,58.1 C1.2,58.1 -0.3,59 0.1,60.5 C0.4,61.5 1.3,61.7 1.9,61.7 C2,61.7 2.3,61.6 2.4,61.6 C2.5,61.6 13.9,56.9 23,49.8 C28.1,46.1 32.7,42.1 36.7,37.8 C40.3,33.9 43.4,29.7 45.9,25.5 C50.3,18 52.8,10.2 52.8,3.5 C52.8,-4.8 50.6,-11.7 46.5,-16.6 C41.8,-22.2 34.7,-25.1 25.4,-25.1 M56.8,-12.4 C56.8,-9.6 59,-7.4 61.6,-7.4 C64.2,-7.4 66.4,-9.6 66.4,-12.4 C66.4,-15.2 64.2,-17.5 61.6,-17.5 C59,-17.5 56.8,-15.2 56.8,-12.4 M56.8,12.3 C56.8,15.1 59,17.4 61.6,17.4 C64.2,17.4 66.4,15.1 66.4,12.3 C66.4,9.5 64.2,7.2 61.6,7.2 C59,7.2 56.8,9.5 56.8,12.3"/>
<path class="Clef" d="M335,722.203 C333.8,716.803 331.1,712.903 330.3,711.903 C327.1,707.603 323.1,704.803 318.4,703.403 C316.1,702.703 314,702.503 312,702.503 C311.3,702.503 310.6,702.503 309.9,702.603 C308.9,696.603 307.8,690.703 306.9,685.303 C312.5,679.103 316.2,673.203 318.6,668.803 C322.2,662.103 323.6,657.403 323.7,657.203 C324.9,654.203 325.6,650.403 325.6,645.903 C325.6,643.203 325.3,640.303 324.9,637.303 C323.8,630.203 321.6,623.503 319.1,619.803 C317.8,617.903 316.6,616.803 315.4,616.803 C314.2,616.803 311.7,618.003 308.8,620.803 C306.5,623.003 303.2,626.903 300.6,632.903 C298.3,638.303 297.6,645.203 297.6,651.103 C297.6,652.903 297.7,654.603 297.8,656.203 C298,659.803 298.7,665.603 299.3,669.203 C299.3,669.303 299.6,670.803 300,673.403 L299.3,674.103 C298.3,675.103 297.1,676.203 295.7,677.603 C294.8,678.503 293.9,679.303 292.9,680.303 C284.4,688.503 271.6,700.903 271.6,720.003 C271.6,724.703 272.5,729.103 274.3,733.103 C275.9,736.703 278.2,740.003 281.1,742.903 C288.6,750.303 298.8,753.503 305.9,753.503 L306.5,753.503 C309.4,753.403 312.1,753.103 314.5,752.703 C316.3,762.303 317.5,769.403 317.5,774.703 C317.5,781.203 315.9,785.103 312,787.903 C309.6,789.603 306.7,790.703 303.6,790.803 L302.8,790.803 C301.3,790.803 298.8,790.403 297.3,790.003 C297.3,790.003 297,789.903 297,789.703 C297,789.503 297.4,789.503 297.4,789.503 C299.3,789.103 302.9,787.803 305.3,784.503 C306.4,783.003 307.1,780.703 307.1,778.203 C307.1,776.603 306.8,774.903 306.1,773.403 C305,771.003 302.4,768.003 296.8,767.603 L295.7,767.603 C293.6,767.603 291.8,768.103 290.1,769.103 C288.3,770.203 286.7,771.903 285.7,773.903 C284.6,775.903 284.1,778.103 284.1,780.303 C284.1,783.203 285,785.903 286.8,788.103 C289.8,791.703 294.5,794.003 299.9,794.603 C300.6,794.703 301.7,794.803 302.4,794.803 C306.8,794.803 311.2,793.603 314.8,791.403 C318.5,788.803 320.6,784.803 321.3,779.203 C321.5,777.903 321.5,776.503 321.5,775.003 C321.5,771.103 321,766.403 320,760.603 C319.6,758.503 319.2,755.503 318.5,751.703 C324.3,749.803 328.4,746.103 332.2,740.303 C334.5,736.303 335.6,732.203 335.6,727.903 C335.6,726.003 335.4,724.103 335,722.203 M304.8,644.303 C306.6,638.603 309.3,635.203 311.3,633.503 C313.1,632.003 314.7,631.303 315.6,631.303 C315.7,631.303 315.9,631.403 316,631.403 C316.3,631.503 316.7,632.003 317.1,632.703 C318,634.503 318.9,637.803 318.9,641.503 C318.9,643.403 318.7,645.403 318.1,647.203 C315.9,654.003 311.3,661.303 304.3,669.003 C304.1,667.903 303.9,666.903 303.8,665.903 C303.3,662.703 303,659.503 303,656.603 C303,652.103 303.6,648.003 304.8,644.303 M300.8,748.403 C296.2,747.203 291.7,744.703 287.9,741.203 C286.6,740.003 284.8,737.803 283.3,734.403 C282,731.403 281.3,728.303 281.3,724.903 L281.3,724.203 C281.4,719.503 282.7,714.703 285.2,709.903 C288.1,704.303 292.6,698.803 298.7,693.503 C300.2,692.203 301.6,690.903 302.9,689.603 C303.7,693.903 304.4,698.603 305.3,703.503 C301.4,704.803 296.7,707.803 293.6,713.503 C291.2,718.003 290.5,721.903 290.5,725.103 C290.5,726.603 290.7,728.003 290.9,729.103 C291.8,733.603 294.4,737.303 297.9,739.403 C298.7,739.903 302,741.603 304,741.603 C304.3,741.603 304.6,741.603 304.8,741.503 C305.1,741.403 305.4,741.203 305.5,740.903 C305.6,740.703 305.6,740.503 305.6,740.303 C305.6,739.503 304.8,738.903 303.5,738.103 C302.9,737.703 302.2,737.303 301.5,736.803 C298.9,734.803 297.4,731.703 297.4,728.303 C297.4,727.303 297.6,726.403 297.8,725.403 C298.3,723.403 300,720.603 301.5,719.203 C303.2,717.703 305.2,716.503 307.6,715.903 C309.6,727.103 311.7,738.203 313.3,746.603 C313.4,747.303 313.6,748.003 313.7,748.703 C311.7,749.103 309.7,749.303 307.8,749.303 C305.4,749.303 303.1,749.003 300.8,748.403 M326.5,738.203 C325.3,741.403 322.8,745.403 317.7,747.503 C317.6,747.103 317.6,746.603 317.5,746.203 C316,737.403 314.1,726.503 312.1,715.203 L313.1,715.203 C322.8,715.203 326.7,722.403 327.6,727.003 C327.8,727.903 327.9,729.103 327.9,730.403 C327.9,732.703 327.5,735.503 326.5,738.203"/>
<path class="Clef" d="M335,1334.74 C333.8,1329.34 331.1,1325.44 330.3,1324.44 C327.1,1320.14 323.1,1317.34 318.4,1315.94 C316.1,1315.24 314,1315.04 312,1315.04 C311.3,1315.04 310.6,1315.04 309.9,1315.14 C308.9,1309.14 307.8,1303.24 306.9,1297.84 C312.5,1291.64 316.2,1285.74 318.6,1281.34 C322.2,1274.64 323.6,1269.94 323.7,1269.74 C324.9,1266.74 325.6,1262.94 325.6,1258.44 C325.6,1255.74 325.3,1252.84 324.9,1249.84 C323.8,1242.74 321.6,1236.04 319.1,1232.34 C317.8,1230.44 316.6,1229.34 315.4,1229.34 C314.2,1229.34 311.7,1230.54 308.8,1233.34 C306.5,1235.54 303.2,1239.44 300.6,1245.44 C298.3,1250.84 297.6,1257.74 297.6,1263.64 C297.6,1265.44 297.7,1267.14 297.8,1268.74 C298,1272.34 298.7,1278.14 299.3,1281.74 C299.3,1281.84 299.6,1283.34 300,1285.94 L299.3,1286.64 C298.3,1287.64 297.1,1288.74 295.7,1290.14 C294.8,1291.04 293.9,1291.84 292.9,1292.84 C284.4,1301.04 271.6,1313.44 271.6,1332.54 C271.6,1337.24 272.5,1341.64 274.3,1345.64 C275.9,1349.24 278.2,1352.54 281.1,1355.44 C288.6,1362.84 298.8,1366.04 305.9,1366.04 L306.5,1366.04 C309.4,1365.94 312.1,1365.64 314.5,1365.24 C316.3,1374.84 317.5,1381.94 317.5,1387.24 C317.5,1393.74 315.9,1397.64 312,1400.44 C309.6,1402.14 306.7,1403.24 303.6,1403.34 L302.8,1403.34 C301.3,1403.34 298.8,1402.94 297.3,1402.54 C297.3,1402.54 297,1402.44 297,1402.24 C297,1402.04 297.4,1402.04 297.4,1402.04 C299.3,1401.64 302.9,1400.34 305.3,1397.04 C306.4,1395.54 307.1,1393.24 307.1,1390.74 C307.1,1389.14 306.8,1387.44 306.1,1385.94 C305,1383.54 302.4,1380.54 296.8,1380.14 L295.7,1380.14 C293.6,1380.14 291.8,1380.64 290.1,1381.64 C288.3,1382.74 286.7,1384.44 285.7,1386.44 C284.6,1388.44 284.1,1390.64 284.1,1392.84 C284.1,1395.74 285,1398.44 286.8,1400.64 C289.8,1404.24 294.5,1406.54 299.9,1407.14 C300.6,1407.24 301.7,1407.34 302.4,1407.34 C306.8,1407.34 311.2,1406.14 314.8,1403.94 C318.5,1401.34 320.6,1397.34 321.3,1391.74 C321.5,1390.44 321.5,1389.04 321.5,1387.54 C321.5,1383.64 321,1378.94 320,1373.14 C319.6,1371.04 319.2,1368.04 318.5,1364.24 C324.3,1362.34 328.4,1358.64 332.2,1352.84 C334.5,1348.84 335.6,1344.74 335.6,1340.44 C335.6,1338.54 335.4,1336.64 335,1334.74 M304.8,1256.84 C306.6,1251.14 309.3,1247.74 311.3,1246.04 C313.1,1244.54 314.7,1243.84 315.6,1243.84 C315.7,1243.84 315.9,1243.94 316,1243.94 C316.3,1244.04 316.7,1244.54 317.1,1245.24 C318,1247.04 318.9,1250.34 318.9,1254.04 C318.9,1255.94 318.7,1257.94 318.1,1259.74 C315.9,1266.54 311.3,1273.84 304.3,1281.54 C304.1,1280.44 303.9,1279.44 303.8,1278.44 C303.3,1275.24 303,1272.04 303,1269.14 C303,1264.64 303.6,1260.54 304.8,1256.84 M300.8,1360.94 C296.2,1359.74 291.7,1357.24 287.9,1353.74 C286.6,1352.54 284.8,1350.34 283.3,1346.94 C282,1343.94 281.3,1340.84 281.3,1337.44 L281.3,1336.74 C281.4,1332.04 282.7,1327.24 285.2,1322.44 C288.1,1316.84 292.6,1311.34 298.7,1306.04 C300.2,1304.74 301.6,1303.44 302.9,1302.14 C303.7,1306.44 304.4,1311.14 305.3,1316.04 C301.4,1317.34 296.7,1320.34 293.6,1326.04 C291.2,1330.54 290.5,1334.44 290.5,1337.64 C290.5,1339.14 290.7,1340.54 290.9,1341.64 C291.8,1346.14 294.4,1349.84 297.9,1351.94 C298.7,1352.44 302,1354.14 304,1354.14 C304.3,1354.14 304.6,1354.14 304.8,1354.04 C305.1,1353.94 305.4,1353.74 305.5,1353.44 C305.6,1353.24 305.6,1353.04 305.6,1352.84 C305.6,1352.04 304.8,1351.44 303.5,1350.64 C302.9,1350.24 302.2,1349.84 301.5,1349.34 C298.9,1347.34 297.4,1344.24 297.4,1340.84 C297.4,1339.84 297.6,1338.94 297.8,1337.94 C298.3,1335.94 300,1333.14 301.5,1331.74 C303.2,1330.24 305.2,1329.04 307.6,1328.44 C309.6,1339.64 311.7,1350.74 313.3,1359.14 C313.4,1359.84 313.6,1360.54 313.7,1361.24 C311.7,1361.64 309.7,1361.84 307.8,1361.84 C305.4,1361.84 303.1,1361.54 300.8,1360.94 M326.5,1350.74 C325.3,1353.94 322.8,1357.94 317.7,1360.04 C317.6,1359.64 317.6,1359.14 317.5,1358.74 C316,1349.94 314.1,1339.04 312.1,1327.74 L313.1,1327.74 C322.8,1327.74 326.7,1334.94 327.6,1339.54 C327.8,1340.44 327.9,1341.64 327.9,1342.94 C327.9,1345.24 327.5,1348.04 326.5,1350.74"/>
<path class="TimeSig" d="M392.053,939.517 L392.253,939.517 C400.253,936.417 400.753,931.217 400.753,929.417 L400.753,928.917 C400.753,928.017 400.453,916.717 383.253,916.717 C366.053,916.717 366.553,928.917 366.553,928.917 L366.653,928.917 L366.553,929.117 C366.553,932.717 369.453,935.517 373.053,935.517 C376.653,935.517 379.453,932.717 379.453,929.117 C379.453,926.217 377.253,923.417 374.453,922.817 L374.753,922.517 C376.153,921.517 378.053,921.017 379.953,921.017 C384.153,921.017 388.653,923.517 388.653,928.917 C388.653,935.217 383.953,936.117 382.753,936.317 C381.553,936.517 375.953,936.917 374.753,936.917 C373.553,936.917 373.453,938.317 373.453,938.317 L373.453,940.317 C373.453,940.317 373.653,941.417 374.753,941.517 C376.453,941.617 378.753,941.617 381.953,942.117 C386.353,942.717 388.653,945.717 388.653,952.717 C388.653,959.417 384.153,961.217 379.953,961.217 C377.153,961.217 374.553,960.417 373.453,959.617 C376.753,959.417 379.453,956.517 379.453,953.217 C379.453,949.617 376.653,946.717 373.053,946.717 C369.453,946.717 366.553,949.617 366.553,953.217 C366.553,953.217 366.053,957.717 370.453,961.817 C374.353,965.417 379.253,965.517 381.453,965.517 C391.053,965.517 401.453,962.217 401.453,951.317 C401.453,944.017 396.453,940.917 392.053,939.517"/>
<path class="TimeSig" d="M365.2,1002.62 L382,1002.62 L382,1009.92 L373.9,1009.92 C373.1,1009.92 372.5,1010.52 372.5,1011.32 L372.5,1013.22 C372.5,1014.02 373.1,1014.52 373.9,1014.52 L403.6,1014.52 C404.4,1014.52 405,1014.02 405,1013.22 L405,1011.32 C405,1010.52 404.4,1009.92 403.6,1009.92 L394.8,1009.92 L394.8,1002.62 L403.6,1002.62 C404.4,1002.62 405,1002.02 405,1001.22 L405,999.42 C405,998.62 404.4,998.02 403.6,998.02 L394.8,998.02 L394.8,982.32 C394.8,981.82 394.4,981.32 394,981.12 L392.9,980.52 C392.7,980.42 392.4,980.42 392.2,980.42 C391.9,980.42 391.5,980.52 391.3,980.72 L382.4,988.92 C382.2,989.12 382,989.62 382,989.92 L382,998.02 L370.7,998.02 C370.7,998.02 381.6,986.22 393.2,970.72 C394,969.62 393.6,968.62 393.4,968.42 L391.3,966.22 C391.1,966.02 390.6,965.82 390.3,965.82 L375.7,965.82 C375,965.82 374.5,966.42 374.4,967.02 C374.4,967.02 373.9,974.22 371.3,982.22 C368.7,990.22 365.9,995.02 363.3,998.62 C363.3,998.62 362.8,999.62 363.1,1000.32 C363.4,1001.02 364.1,1002.12 364.1,1002.12 C364.1,1002.12 364.4,1002.62 365.2,1002.62"/>
<path class="TimeSig" d="M392.053,677 L392.253,677 C400.253,673.9 400.753,668.7 400.753,666.9 L400.753,666.4 C400.753,665.5 400.453,654.2 383.253,654.2 C366.053,654.2 366.553,666.4 366.553,666.4 L366.653,666.4 L366.553,666.6 C366.553,670.2 369.453,673 373.053,673 C376.653,673 379.453,670.2 379.453,666.6 C379.453,663.7 377.253,660.9 374.453,660.3 L374.753,660 C376.153,659 378.053,658.5 379.953,658.5 C384.153,658.5 388.653,661 388.653,666.4 C388.653,672.7 383.953,673.6 382.753,673.8 C381.553,674 375.953,674.4 374.753,674.4 C373.553,674.4 373.453,675.8 373.453,675.8 L373.453,677.8 C373.453,677.8 373.653,678.9 374.753,679 C376.453,679.1 378.753,679.1 381.953,679.6 C386.353,680.2 388.653,683.2 388.653,690.2 C388.653,696.9 384.153,698.7 379.953,698.7 C377.153,698.7 374.553,697.9 373.453,697.1 C376.753,696.9 379.453,694 379.453,690.7 C379.453,687.1 376.653,684.2 373.053,684.2 C369.453,684.2 366.553,687.1 366.553,690.7 C366.553,690.7 366.053,695.2 370.453,699.3 C374.353,702.9 379.253,703 381.453,703 C391.053,703 401.453,699.7 401.453,688.8 C401.453,681.5 396.453,678.4 392.053,677"/>
<path class="TimeSig" d="M365.2,740.104 L382,740.104 L382,747.404 L373.9,747.404 C373.1,747.404 372.5,748.004 372.5,748.804 L372.5,750.704 C372.5,751.504 373.1,752.004 373.9,752.004 L403.6,752.004 C404.4,752.004 405,751.504 405,750.704 L405,748.804 C405,748.004 404.4,747.404 403.6,747.404 L394.8,747.404 L394.8,740.104 L403.6,740.104 C404.4,740.104 405,739.504 405,738.704 L405,736.904 C405,736.104 404.4,735.504 403.6,735.504 L394.8,735.504 L394.8,719.804 C394.8,719.304 394.4,718.804 394,718.604 L392.9,718.004 C392.7,717.904 392.4,717.904 392.2,717.904 C391.9,717.904 391.5,718.004 391.3,718.204 L382.4,726.404 C382.2,726.604 382,727.104 382,727.404 L382,735.504 L370.7,735.504 C370.7,735.504 381.6,723.704 393.2,708.204 C394,707.104 393.6,706.104 393.4,705.904 L391.3,703.704 C391.1,703.504 390.6,703.304 390.3,703.304 L375.7,703.304 C375,703.304 374.5,703.904 374.4,704.504 C374.4,704.504 373.9,711.704 371.3,719.704 C368.7,727.704 365.9,732.504 363.3,736.104 C363.3,736.104 362.8,737.104 363.1,737.804 C363.4,738.504 364.1,739.604 364.1,739.604 C364.1,739.604 364.4,740.104 365.2,740.104"/>
<path class="Page" d="M217.958,4039.47 C220.388,4040.06 221.603,4040.24 223.403,4040.24 C227.228,4040.24 230.018,4038.93 231.503,4036.41 C231.998,4035.6 232.178,4035.15 232.178,4034.79 C232.178,4034.52 232.088,4034.39 231.818,4034.39 C231.683,4034.39 231.503,4034.43 231.233,4034.57 C229.028,4035.51 227.858,4035.74 225.248,4035.74 C222.368,4035.74 220.568,4035.47 215.978,4034.39 C215.798,4038.17 215.393,4042.98 214.763,4048.56 C213.818,4049.55 213.503,4050.14 213.503,4050.86 C213.503,4051.8 214.088,4052.39 214.943,4052.39 C216.113,4052.39 216.788,4051.44 216.968,4049.64 C218.543,4048.52 220.028,4048.02 221.828,4048.02 C225.878,4048.02 228.263,4051.08 228.263,4056.26 C228.263,4059.27 227.498,4061.84 226.148,4063.23 C225.248,4064.18 223.403,4064.81 221.558,4064.81 C218.858,4064.81 216.068,4063.41 216.068,4062.02 C216.068,4061.7 216.338,4061.34 216.878,4061.03 C218.273,4060.17 218.678,4059.59 218.678,4058.37 C218.678,4056.8 217.463,4055.58 215.843,4055.58 C214.043,4055.58 212.603,4057.25 212.603,4059.36 C212.603,4061.61 213.908,4063.86 215.933,4065.26 C217.463,4066.25 219.263,4066.74 221.648,4066.74 C228.713,4066.74 233.168,4062.6 233.168,4055.99 C233.168,4049.87 229.118,4045.77 222.998,4045.77 C221.063,4045.77 219.668,4046.09 217.193,4047.12 L217.958,4039.47 M253.774,4050.45 C253.234,4055.72 252.964,4057.29 252.154,4059.54 C250.984,4062.87 248.554,4064.81 245.494,4064.81 C244.009,4064.81 243.019,4064.36 243.019,4063.68 C243.019,4063.5 243.109,4063.28 243.289,4062.92 C243.784,4061.88 243.874,4061.57 243.874,4060.94 C243.874,4059.41 242.749,4058.28 241.219,4058.28 C239.509,4058.28 238.159,4059.72 238.159,4061.52 C238.159,4064.49 241.309,4066.74 245.449,4066.74 C249.544,4066.74 253.054,4064.9 255.259,4061.57 C257.464,4058.24 258.679,4053.92 258.679,4049.24 C258.679,4040.19 254.404,4034.39 247.654,4034.39 C241.849,4034.39 237.349,4039.16 237.349,4045.23 C237.349,4050.63 241.084,4054.55 246.259,4054.55 C249.454,4054.55 251.344,4053.51 253.774,4050.45 M247.834,4036.32 C251.164,4036.32 253.369,4039.61 253.369,4044.69 C253.369,4046.54 253.009,4048.2 252.334,4049.24 C251.299,4050.86 249.544,4051.85 247.609,4051.85 C244.189,4051.85 242.254,4049.19 242.254,4044.42 C242.254,4042.26 242.749,4040.15 243.604,4038.75 C244.639,4037.04 245.854,4036.32 247.834,4036.32"/>
<path class="Bracket" transform="matrix(3.62523,0,0,3.62523,214.469,1015.62)" d="M0.92002,-50 C2.69004,-51.88 6.2,-55.8 6.2,-63 C6.2,-72.1 2.25996,-81.32 2.25996,-86.97 C2.25996,-93.06 5.84004,-98.84 5.95,-99 C6.05996,-99.16 6.05,-99.39 5.94004,-99.46 C5.82998,-99.53 5.62002,-99.47 5.49004,-99.32 C5.35996,-99.17 0,-93.75 0,-85.6 C0,-76.75 3.5,-70.58 3.5,-59.07 C3.5,-56.89 2.55996,-53.36 0.1,-50.33 C-0.0799805,-50.17 -0.1,-49.89 0.0599609,-49.7 L0.0700195,-49.69 L0.1,-49.66 C2.55996,-46.63 3.5,-43.1 3.5,-40.92 C3.5,-29.4 0,-23.24 0,-14.39 C0,-6.25 5.35996,-0.8 5.49004,-0.659961 C5.62002,-0.52002 5.8,-0.42998 5.94004,-0.52002 C6.07998,-0.609961 6.07998,-0.77998 5.95,-0.97998 C5.82002,-1.17998 2.25996,-6.92002 2.25996,-13.01 C2.25996,-18.66 6.2,-27.9 6.2,-37 C6.2,-44.3 2.69004,-48.12 0.92002,-50"/>
<path class="Bracket" transform="matrix(3.62523,0,0,3.62523,214.469,1628.16)" d="M0.92002,-50 C2.69004,-51.88 6.2,-55.8 6.2,-63 C6.2,-72.1 2.25996,-81.32 2.25996,-86.97 C2.25996,-93.06 5.84004,-98.84 5.95,-99 C6.05996,-99.16 6.05,-99.39 5.94004,-99.46 C5.82998,-99.53 5.62002,-99.47 5.49004,-99.32 C5.35996,-99.17 0,-93.75 0,-85.6 C0,-76.75 3.5,-70.58 3.5,-59.07 C3.5,-56.89 2.55996,-53.36 0.1,-50.33 C-0.0799805,-50.17 -0.1,-49.89 0.0599609,-49.7 L0.0700195,-49.69 L0.1,-49.66 C2.55996,-46.63 3.5,-43.1 3.5,-40.92 C3.5,-29.4 0,-23.24 0,-14.39 C0,-6.25 5.35996,-0.8 5.49004,-0.659961 C5.62002,-0.52002 5.8,-0.42998 5.94004,-0.52002 C6.07998,-0.609961 6.07998,-0.77998 5.95,-0.97998 C5.82002,-1.17998 2.25996,-6.92002 2.25996,-13.01 C2.25996,-18.66 6.2,-27.9 6.2,-37 C6.2,-44.3 2.69004,-48.12 0.92002,-50"/>
</svg>
