<?xml version="1.0" encoding="UTF-8" standalone="no"?>
<svg width="2977.23px" height="4208.47px" viewBox="0 0 2977.23 4208.47"
 xmlns="http://www.w3.org/2000/svg" xmlns:xlink="http://www.w3.org/1999/xlink" version="1.2" baseProfile="tiny">
<title>exercises_scores (25)</title>
<desc>Generated by MuseScore 3.6.0</desc>
<polyline class="StaffLines" fill="none" stroke="#000000" stroke-width="2.75" stroke-linejoin="bevel" points="247.099,644.411 2764.63,644.411"/>
<polyline class="StaffLines" fill="none" stroke="#000000" stroke-width="2.75" stroke-linejoin="bevel" points="247.099,669.413 2764.63,669.413"/>
<polyline class="StaffLines" fill="none" stroke="#000000" stroke-width="2.75" stroke-linejoin="bevel" points="247.099,694.414 2764.63,694.414"/>
<polyline class="StaffLines" fill="none" stroke="#000000" stroke-width="2.75" stroke-linejoin="bevel" points="247.099,719.416 2764.63,719.416"/>
<polyline class="StaffLines" fill="none" stroke="#000000" stroke-width="2.75" stroke-linejoin="bevel" points="247.099,744.417 2764.63,744.417"/>
<polyline class="StaffLines" fill="none" stroke="#000000" stroke-width="2.75" stroke-linejoin="bevel" points="247.099,906.928 2764.63,906.928"/>
<polyline class="StaffLines" fill="none" stroke="#000000" stroke-width="2.75" stroke-linejoin="bevel" points="247.099,931.929 2764.63,931.929"/>
<polyline class="StaffLines" fill="none" stroke="#000000" stroke-width="2.75" stroke-linejoin="bevel" points="247.099,956.931 2764.63,956.931"/>
<polyline class="StaffLines" fill="none" stroke="#000000" stroke-width="2.75" stroke-linejoin="bevel" points="247.099,981.932 2764.63,981.932"/>
<polyline class="StaffLines" fill="none" stroke="#000000" stroke-width="2.75" stroke-linejoin="bevel" points="247.099,1006.93 2764.63,1006.93"/>
<path class="Text" d="M248.304,212.591 L212.604,212.591 L212.604,215.411 L213.684,215.411 C217.104,215.471 218.244,215.651 218.724,216.251 C219.084,216.791 219.084,216.911 219.084,219.971 L219.084,248.531 C219.084,251.591 219.084,251.711 218.724,252.251 C218.244,252.851 217.104,253.091 213.684,253.091 L212.604,253.091 L212.604,255.911 L233.184,255.911 L233.184,253.091 L231.204,253.091 C227.784,253.091 226.644,252.851 226.164,252.251 C225.804,251.711 225.804,251.531 225.804,248.531 L225.804,234.911 L227.004,234.911 C233.184,234.671 235.404,236.891 235.644,243.551 L238.464,243.551 L238.464,223.871 L235.644,223.871 C235.284,229.751 232.944,232.031 227.244,232.091 L225.804,232.091 L225.804,218.411 C225.744,215.891 226.344,215.471 229.584,215.411 L232.344,215.411 C242.184,215.351 244.644,217.571 246.504,227.891 L249.144,227.891 L248.304,212.591 M279.612,227.951 L268.932,228.611 L268.932,231.191 L271.392,231.191 C273.672,231.251 273.972,231.611 273.972,234.191 L273.972,248.531 L273.972,250.871 L273.972,251.351 C273.912,252.251 273.852,252.611 273.612,252.911 C273.192,253.451 272.052,253.691 269.472,253.751 L269.232,253.751 L269.232,255.911 L284.352,255.911 L284.352,253.751 L284.112,253.751 C280.152,253.631 279.612,253.331 279.612,251.111 L279.612,248.531 L279.612,240.011 C279.612,234.671 282.552,230.711 286.452,230.711 C289.872,230.711 291.612,233.171 291.612,238.031 L291.612,248.531 L291.612,251.411 C291.552,252.191 291.492,252.611 291.192,252.911 C290.832,253.451 289.632,253.691 287.052,253.751 L286.812,253.751 L286.812,255.911 L301.992,255.911 L301.992,253.751 L301.752,253.751 C297.792,253.631 297.252,253.331 297.252,251.171 L297.252,248.531 L297.252,240.551 C297.252,234.551 299.952,230.711 304.152,230.711 C307.572,230.711 309.252,233.291 309.252,238.691 L309.252,248.531 L309.252,251.351 C309.192,252.191 309.132,252.611 308.832,252.911 C308.472,253.451 307.272,253.691 304.692,253.751 L304.452,253.751 L304.452,255.911 L319.632,255.911 L319.632,253.751 L319.392,253.751 C315.432,253.631 314.892,253.331 314.892,251.111 L314.892,248.531 L314.892,237.491 C314.892,233.771 314.532,232.511 312.972,230.471 C311.232,228.251 308.772,227.051 305.892,227.051 C301.992,227.051 299.112,228.911 296.532,233.051 C295.512,229.451 292.272,227.051 288.252,227.051 C284.592,227.051 281.952,228.791 279.612,232.571 L279.612,227.951 M333.24,227.951 L321.96,228.611 L321.96,231.191 L325.02,231.191 C327.3,231.251 327.6,231.611 327.6,234.191 L327.6,248.531 L327.6,251.351 C327.54,252.251 327.48,252.611 327.24,252.911 C326.82,253.451 325.68,253.691 323.1,253.751 L322.68,253.751 L322.68,255.911 L338.22,255.911 L338.22,253.751 L337.8,253.751 C333.78,253.631 333.24,253.331 333.24,251.171 L333.24,248.531 L333.24,227.951 M330.42,213.011 C328.5,213.011 326.94,214.571 326.94,216.491 C326.94,218.411 328.5,219.971 330.36,219.971 C332.34,219.971 333.9,218.411 333.9,216.491 C333.9,214.571 332.34,213.011 330.42,213.011 M351.77,227.951 L341.39,228.611 L341.39,231.191 L343.55,231.191 C345.83,231.251 346.13,231.611 346.13,234.191 L346.13,248.531 L346.13,249.971 L346.13,251.351 C346.07,252.251 346.01,252.611 345.77,252.911 C345.35,253.451 344.21,253.691 341.63,253.751 L341.39,253.751 L341.39,255.911 L356.57,255.911 L356.57,253.751 L356.33,253.751 C352.31,253.631 351.77,253.331 351.77,251.171 L351.77,248.531 L351.77,242.291 C351.77,239.351 352.19,236.651 352.85,235.271 C354.11,232.571 356.81,230.711 359.39,230.711 C360.95,230.711 362.75,231.551 363.65,232.811 C364.55,234.131 364.97,235.931 364.97,238.811 L364.97,248.531 L364.97,251.351 C364.91,252.251 364.85,252.611 364.61,252.911 C364.19,253.451 362.99,253.691 360.41,253.751 L360.17,253.751 L360.17,255.911 L375.35,255.911 L375.35,253.751 L375.11,253.751 C371.15,253.631 370.61,253.331 370.61,251.171 L370.61,248.531 L370.61,239.111 C370.61,234.791 370.43,233.711 369.35,231.671 C367.85,228.791 364.85,227.051 361.25,227.051 C357.35,227.051 354.41,228.851 351.77,232.811 L351.77,227.951 M391.547,227.051 C384.167,227.051 378.467,233.591 378.467,241.991 C378.467,250.211 384.227,256.811 391.427,256.811 C398.627,256.811 404.387,250.211 404.387,241.931 C404.387,233.711 398.627,227.051 391.547,227.051 M391.547,229.631 C395.747,229.631 398.087,234.011 398.087,241.931 C398.087,249.911 395.747,254.231 391.427,254.231 C387.107,254.231 384.767,249.911 384.767,241.991 C384.767,233.831 387.047,229.631 391.547,229.631 M418.307,227.951 L407.687,228.611 L407.687,231.191 L410.147,231.191 C412.427,231.251 412.727,231.611 412.727,234.191 L412.727,248.531 L412.727,251.351 C412.667,252.251 412.607,252.611 412.367,252.911 C411.947,253.451 410.747,253.691 408.167,253.751 L407.927,253.751 L407.927,255.911 L423.947,255.911 L423.947,253.751 L422.867,253.751 C418.847,253.631 418.307,253.331 418.307,251.171 L418.307,248.531 L418.307,247.931 C418.367,237.851 421.967,230.171 426.647,229.931 C425.807,230.891 425.567,231.491 425.567,232.631 C425.567,234.551 426.947,235.931 428.867,235.931 C431.087,235.931 432.527,234.311 432.527,231.911 C432.527,228.971 430.487,227.051 427.307,227.051 C423.527,227.051 420.287,230.051 418.307,235.391 L418.307,227.951 "/>
<polyline class="BarLine" fill="none" stroke="#000000" stroke-width="4.50" stroke-linejoin="bevel" points="249.349,905.552 249.349,1008.31"/>
<polyline class="BarLine" fill="none" stroke="#000000" stroke-width="4.50" stroke-linejoin="bevel" points="995.435,905.552 995.435,1008.31"/>
<polyline class="BarLine" fill="none" stroke="#000000" stroke-width="4.50" stroke-linejoin="bevel" points="1625.27,905.552 1625.27,1008.31"/>
<polyline class="BarLine" fill="none" stroke="#000000" stroke-width="4.50" stroke-linejoin="bevel" points="2264.31,905.552 2264.31,1008.31"/>
<polyline class="BarLine" fill="none" stroke="#000000" stroke-width="4.50" stroke-linejoin="bevel" points="2734.88,905.552 2734.88,1008.31"/>
<polyline class="BarLine" fill="none" stroke="#000000" stroke-width="13.75" stroke-linejoin="bevel" points="2757.76,905.552 2757.76,1008.31"/>
<polyline class="BarLine" fill="none" stroke="#000000" stroke-width="4.50" stroke-linejoin="bevel" points="249.349,643.036 249.349,906.928"/>
<polyline class="BarLine" fill="none" stroke="#000000" stroke-width="4.50" stroke-linejoin="bevel" points="995.435,643.036 995.435,906.928"/>
<polyline class="BarLine" fill="none" stroke="#000000" stroke-width="4.50" stroke-linejoin="bevel" points="1625.27,643.036 1625.27,906.928"/>
<polyline class="BarLine" fill="none" stroke="#000000" stroke-width="4.50" stroke-linejoin="bevel" points="2264.31,643.036 2264.31,906.928"/>
<polyline class="BarLine" fill="none" stroke="#000000" stroke-width="4.50" stroke-linejoin="bevel" points="2734.88,643.036 2734.88,906.928"/>
<polyline class="BarLine" fill="none" stroke="#000000" stroke-width="13.75" stroke-linejoin="bevel" points="2757.76,643.036 2757.76,906.928"/>
<path class="Accidental" d="M717.645,899.028 C717.045,895.128 714.645,891.428 709.545,891.428 C704.545,891.428 701.645,894.528 701.145,895.128 L701.545,863.028 C701.545,862.228 700.945,861.628 700.145,861.628 L698.945,861.628 C698.145,861.628 697.545,862.228 697.545,863.028 L698.045,923.128 C698.045,923.928 698.645,924.528 699.445,924.528 C699.645,924.528 700.045,924.428 700.245,924.328 C700.645,924.128 707.145,920.928 712.545,914.828 C716.345,910.528 717.845,905.628 717.845,901.528 C717.845,900.628 717.745,899.828 717.645,899.028 M710.745,902.928 C710.745,904.428 710.345,909.028 707.845,912.828 C706.145,915.428 702.745,918.128 700.845,919.628 L701.145,900.128 C701.345,899.228 702.845,896.328 706.845,896.328 C710.445,896.328 710.745,899.728 710.745,901.828 L710.745,902.928 "/>
<path class="Accidental" d="M852.19,886.527 C851.59,882.627 849.19,878.927 844.09,878.927 C839.09,878.927 836.19,882.027 835.69,882.627 L836.09,850.527 C836.09,849.727 835.49,849.127 834.69,849.127 L833.49,849.127 C832.69,849.127 832.09,849.727 832.09,850.527 L832.59,910.627 C832.59,911.427 833.19,912.027 833.99,912.027 C834.19,912.027 834.59,911.927 834.79,911.827 C835.19,911.627 841.69,908.427 847.09,902.327 C850.89,898.027 852.39,893.127 852.39,889.027 C852.39,888.127 852.29,887.327 852.19,886.527 M845.29,890.427 C845.29,891.927 844.89,896.527 842.39,900.327 C840.69,902.927 837.29,905.627 835.39,907.127 L835.69,887.627 C835.89,886.727 837.39,883.827 841.39,883.827 C844.99,883.827 845.29,887.227 845.29,889.327 L845.29,890.427 "/>
<path class="Accidental" d="M1169.76,861.525 C1169.16,857.625 1166.76,853.925 1161.66,853.925 C1156.66,853.925 1153.76,857.025 1153.26,857.625 L1153.66,825.525 C1153.66,824.725 1153.06,824.125 1152.26,824.125 L1151.06,824.125 C1150.26,824.125 1149.66,824.725 1149.66,825.525 L1150.16,885.625 C1150.16,886.425 1150.76,887.025 1151.56,887.025 C1151.76,887.025 1152.16,886.925 1152.36,886.825 C1152.76,886.625 1159.26,883.425 1164.66,877.325 C1168.46,873.025 1169.96,868.125 1169.96,864.025 C1169.96,863.125 1169.86,862.325 1169.76,861.525 M1162.86,865.425 C1162.86,866.925 1162.46,871.525 1159.96,875.325 C1158.26,877.925 1154.86,880.625 1152.96,882.125 L1153.26,862.625 C1153.46,861.725 1154.96,858.825 1158.96,858.825 C1162.56,858.825 1162.86,862.225 1162.86,864.325 L1162.86,865.425 "/>
<path class="Accidental" d="M1315.78,849.024 C1315.18,845.124 1312.78,841.424 1307.68,841.424 C1302.68,841.424 1299.78,844.524 1299.28,845.124 L1299.68,813.024 C1299.68,812.224 1299.08,811.624 1298.28,811.624 L1297.08,811.624 C1296.28,811.624 1295.68,812.224 1295.68,813.024 L1296.18,873.124 C1296.18,873.924 1296.78,874.524 1297.58,874.524 C1297.78,874.524 1298.18,874.424 1298.38,874.324 C1298.78,874.124 1305.28,870.924 1310.68,864.824 C1314.48,860.524 1315.98,855.624 1315.98,851.524 C1315.98,850.624 1315.88,849.824 1315.78,849.024 M1308.88,852.924 C1308.88,854.424 1308.48,859.024 1305.98,862.824 C1304.28,865.424 1300.88,868.124 1298.98,869.624 L1299.28,850.124 C1299.48,849.224 1300.98,846.324 1304.98,846.324 C1308.58,846.324 1308.88,849.724 1308.88,851.824 L1308.88,852.924 "/>
<path class="Accidental" d="M1669.37,849.024 C1668.77,845.124 1666.37,841.424 1661.27,841.424 C1656.27,841.424 1653.37,844.524 1652.87,845.124 L1653.27,813.024 C1653.27,812.224 1652.67,811.624 1651.87,811.624 L1650.67,811.624 C1649.87,811.624 1649.27,812.224 1649.27,813.024 L1649.77,873.124 C1649.77,873.924 1650.37,874.524 1651.17,874.524 C1651.37,874.524 1651.77,874.424 1651.97,874.324 C1652.37,874.124 1658.87,870.924 1664.27,864.824 C1668.07,860.524 1669.57,855.624 1669.57,851.524 C1669.57,850.624 1669.47,849.824 1669.37,849.024 M1662.47,852.924 C1662.47,854.424 1662.07,859.024 1659.57,862.824 C1657.87,865.424 1654.47,868.124 1652.57,869.624 L1652.87,850.124 C1653.07,849.224 1654.57,846.324 1658.57,846.324 C1662.17,846.324 1662.47,849.724 1662.47,851.824 L1662.47,852.924 "/>
<path class="Accidental" d="M1813.75,861.525 C1813.15,857.625 1810.75,853.925 1805.65,853.925 C1800.65,853.925 1797.75,857.025 1797.25,857.625 L1797.65,825.525 C1797.65,824.725 1797.05,824.125 1796.25,824.125 L1795.05,824.125 C1794.25,824.125 1793.65,824.725 1793.65,825.525 L1794.15,885.625 C1794.15,886.425 1794.75,887.025 1795.55,887.025 C1795.75,887.025 1796.15,886.925 1796.35,886.825 C1796.75,886.625 1803.25,883.425 1808.65,877.325 C1812.45,873.025 1813.95,868.125 1813.95,864.025 C1813.95,863.125 1813.85,862.325 1813.75,861.525 M1806.85,865.425 C1806.85,866.925 1806.45,871.525 1803.95,875.325 C1802.25,877.925 1798.85,880.625 1796.95,882.125 L1797.25,862.625 C1797.45,861.725 1798.95,858.825 1802.95,858.825 C1806.55,858.825 1806.85,862.225 1806.85,864.325 L1806.85,865.425 "/>
<path class="Accidental" d="M2111.24,886.527 C2110.64,882.627 2108.24,878.927 2103.14,878.927 C2098.14,878.927 2095.24,882.027 2094.74,882.627 L2095.14,850.527 C2095.14,849.727 2094.54,849.127 2093.74,849.127 L2092.54,849.127 C2091.74,849.127 2091.14,849.727 2091.14,850.527 L2091.64,910.627 C2091.64,911.427 2092.24,912.027 2093.04,912.027 C2093.24,912.027 2093.64,911.927 2093.84,911.827 C2094.24,911.627 2100.74,908.427 2106.14,902.327 C2109.94,898.027 2111.44,893.127 2111.44,889.027 C2111.44,888.127 2111.34,887.327 2111.24,886.527 M2104.34,890.427 C2104.34,891.927 2103.94,896.527 2101.44,900.327 C2099.74,902.927 2096.34,905.627 2094.44,907.127 L2094.74,887.627 C2094.94,886.727 2096.44,883.827 2100.44,883.827 C2104.04,883.827 2104.34,887.227 2104.34,889.327 L2104.34,890.427 "/>
<path class="Accidental" d="M2308.41,899.028 C2307.81,895.128 2305.41,891.428 2300.31,891.428 C2295.31,891.428 2292.41,894.528 2291.91,895.128 L2292.31,863.028 C2292.31,862.228 2291.71,861.628 2290.91,861.628 L2289.71,861.628 C2288.91,861.628 2288.31,862.228 2288.31,863.028 L2288.81,923.128 C2288.81,923.928 2289.41,924.528 2290.21,924.528 C2290.41,924.528 2290.81,924.428 2291.01,924.328 C2291.41,924.128 2297.91,920.928 2303.31,914.828 C2307.11,910.528 2308.61,905.628 2308.61,901.528 C2308.61,900.628 2308.51,899.828 2308.41,899.028 M2301.51,902.928 C2301.51,904.428 2301.11,909.028 2298.61,912.828 C2296.91,915.428 2293.51,918.128 2291.61,919.628 L2291.91,900.128 C2292.11,899.228 2293.61,896.328 2297.61,896.328 C2301.21,896.328 2301.51,899.728 2301.51,901.828 L2301.51,902.928 "/>
<path class="Accidental" d="M717.645,699.015 C717.045,695.115 714.645,691.415 709.545,691.415 C704.545,691.415 701.645,694.515 701.145,695.115 L701.545,663.015 C701.545,662.215 700.945,661.615 700.145,661.615 L698.945,661.615 C698.145,661.615 697.545,662.215 697.545,663.015 L698.045,723.115 C698.045,723.915 698.645,724.515 699.445,724.515 C699.645,724.515 700.045,724.415 700.245,724.315 C700.645,724.115 707.145,720.915 712.545,714.815 C716.345,710.515 717.845,705.615 717.845,701.515 C717.845,700.615 717.745,699.815 717.645,699.015 M710.745,702.915 C710.745,704.415 710.345,709.015 707.845,712.815 C706.145,715.415 702.745,718.115 700.845,719.615 L701.145,700.115 C701.345,699.215 702.845,696.315 706.845,696.315 C710.445,696.315 710.745,699.715 710.745,701.815 L710.745,702.915 "/>
<path class="Accidental" d="M852.19,686.514 C851.59,682.614 849.19,678.914 844.09,678.914 C839.09,678.914 836.19,682.014 835.69,682.614 L836.09,650.514 C836.09,649.714 835.49,649.114 834.69,649.114 L833.49,649.114 C832.69,649.114 832.09,649.714 832.09,650.514 L832.59,710.614 C832.59,711.414 833.19,712.014 833.99,712.014 C834.19,712.014 834.59,711.914 834.79,711.814 C835.19,711.614 841.69,708.414 847.09,702.314 C850.89,698.014 852.39,693.114 852.39,689.014 C852.39,688.114 852.29,687.314 852.19,686.514 M845.29,690.414 C845.29,691.914 844.89,696.514 842.39,700.314 C840.69,702.914 837.29,705.614 835.39,707.114 L835.69,687.614 C835.89,686.714 837.39,683.814 841.39,683.814 C844.99,683.814 845.29,687.214 845.29,689.314 L845.29,690.414 "/>
<path class="Accidental" d="M1178.51,661.513 C1177.91,657.613 1175.51,653.913 1170.41,653.913 C1165.41,653.913 1162.51,657.013 1162.01,657.613 L1162.41,625.513 C1162.41,624.713 1161.81,624.113 1161.01,624.113 L1159.81,624.113 C1159.01,624.113 1158.41,624.713 1158.41,625.513 L1158.91,685.613 C1158.91,686.413 1159.51,687.013 1160.31,687.013 C1160.51,687.013 1160.91,686.913 1161.11,686.813 C1161.51,686.613 1168.01,683.413 1173.41,677.313 C1177.21,673.013 1178.71,668.113 1178.71,664.013 C1178.71,663.113 1178.61,662.313 1178.51,661.513 M1171.61,665.413 C1171.61,666.913 1171.21,671.513 1168.71,675.313 C1167.01,677.913 1163.61,680.613 1161.71,682.113 L1162.01,662.613 C1162.21,661.713 1163.71,658.813 1167.71,658.813 C1171.31,658.813 1171.61,662.213 1171.61,664.313 L1171.61,665.413 "/>
<path class="Accidental" d="M1324.53,649.012 C1323.93,645.112 1321.53,641.412 1316.43,641.412 C1311.43,641.412 1308.53,644.512 1308.03,645.112 L1308.43,613.012 C1308.43,612.212 1307.83,611.612 1307.03,611.612 L1305.83,611.612 C1305.03,611.612 1304.43,612.212 1304.43,613.012 L1304.93,673.112 C1304.93,673.912 1305.53,674.512 1306.33,674.512 C1306.53,674.512 1306.93,674.412 1307.13,674.312 C1307.53,674.112 1314.03,670.912 1319.43,664.812 C1323.23,660.512 1324.73,655.612 1324.73,651.512 C1324.73,650.612 1324.63,649.812 1324.53,649.012 M1317.63,652.912 C1317.63,654.412 1317.23,659.012 1314.73,662.812 C1313.03,665.412 1309.63,668.112 1307.73,669.612 L1308.03,650.112 C1308.23,649.212 1309.73,646.312 1313.73,646.312 C1317.33,646.312 1317.63,649.712 1317.63,651.812 L1317.63,652.912 "/>
<path class="Accidental" d="M1678.12,649.012 C1677.52,645.112 1675.12,641.412 1670.02,641.412 C1665.02,641.412 1662.12,644.512 1661.62,645.112 L1662.02,613.012 C1662.02,612.212 1661.42,611.612 1660.62,611.612 L1659.42,611.612 C1658.62,611.612 1658.02,612.212 1658.02,613.012 L1658.52,673.112 C1658.52,673.912 1659.12,674.512 1659.92,674.512 C1660.12,674.512 1660.52,674.412 1660.72,674.312 C1661.12,674.112 1667.62,670.912 1673.02,664.812 C1676.82,660.512 1678.32,655.612 1678.32,651.512 C1678.32,650.612 1678.22,649.812 1678.12,649.012 M1671.22,652.912 C1671.22,654.412 1670.82,659.012 1668.32,662.812 C1666.62,665.412 1663.22,668.112 1661.32,669.612 L1661.62,650.112 C1661.82,649.212 1663.32,646.312 1667.32,646.312 C1670.92,646.312 1671.22,649.712 1671.22,651.812 L1671.22,652.912 "/>
<path class="Accidental" d="M1822.5,661.513 C1821.9,657.613 1819.5,653.913 1814.4,653.913 C1809.4,653.913 1806.5,657.013 1806,657.613 L1806.4,625.513 C1806.4,624.713 1805.8,624.113 1805,624.113 L1803.8,624.113 C1803,624.113 1802.4,624.713 1802.4,625.513 L1802.9,685.613 C1802.9,686.413 1803.5,687.013 1804.3,687.013 C1804.5,687.013 1804.9,686.913 1805.1,686.813 C1805.5,686.613 1812,683.413 1817.4,677.313 C1821.2,673.013 1822.7,668.113 1822.7,664.013 C1822.7,663.113 1822.6,662.313 1822.5,661.513 M1815.6,665.413 C1815.6,666.913 1815.2,671.513 1812.7,675.313 C1811,677.913 1807.6,680.613 1805.7,682.113 L1806,662.613 C1806.2,661.713 1807.7,658.813 1811.7,658.813 C1815.3,658.813 1815.6,662.213 1815.6,664.313 L1815.6,665.413 "/>
<path class="Accidental" d="M2111.24,686.514 C2110.64,682.614 2108.24,678.914 2103.14,678.914 C2098.14,678.914 2095.24,682.014 2094.74,682.614 L2095.14,650.514 C2095.14,649.714 2094.54,649.114 2093.74,649.114 L2092.54,649.114 C2091.74,649.114 2091.14,649.714 2091.14,650.514 L2091.64,710.614 C2091.64,711.414 2092.24,712.014 2093.04,712.014 C2093.24,712.014 2093.64,711.914 2093.84,711.814 C2094.24,711.614 2100.74,708.414 2106.14,702.314 C2109.94,698.014 2111.44,693.114 2111.44,689.014 C2111.44,688.114 2111.34,687.314 2111.24,686.514 M2104.34,690.414 C2104.34,691.914 2103.94,696.514 2101.44,700.314 C2099.74,702.914 2096.34,705.614 2094.44,707.114 L2094.74,687.614 C2094.94,686.714 2096.44,683.814 2100.44,683.814 C2104.04,683.814 2104.34,687.214 2104.34,689.314 L2104.34,690.414 "/>
<path class="Accidental" d="M2308.41,699.015 C2307.81,695.115 2305.41,691.415 2300.31,691.415 C2295.31,691.415 2292.41,694.515 2291.91,695.115 L2292.31,663.015 C2292.31,662.215 2291.71,661.615 2290.91,661.615 L2289.71,661.615 C2288.91,661.615 2288.31,662.215 2288.31,663.015 L2288.81,723.115 C2288.81,723.915 2289.41,724.515 2290.21,724.515 C2290.41,724.515 2290.81,724.415 2291.01,724.315 C2291.41,724.115 2297.91,720.915 2303.31,714.815 C2307.11,710.515 2308.61,705.615 2308.61,701.515 C2308.61,700.615 2308.51,699.815 2308.41,699.015 M2301.51,702.915 C2301.51,704.415 2301.11,709.015 2298.61,712.815 C2296.91,715.415 2293.51,718.115 2291.61,719.615 L2291.91,700.115 C2292.11,699.215 2293.61,696.315 2297.61,696.315 C2301.21,696.315 2301.51,699.715 2301.51,701.815 L2301.51,702.915 "/>
<polyline class="LedgerLine" fill="none" stroke="#000000" stroke-width="4.00" stroke-linejoin="bevel" points="1030.19,881.926 1080.18,881.926"/>
<polyline class="LedgerLine" fill="none" stroke="#000000" stroke-width="4.00" stroke-linejoin="bevel" points="1176.21,881.926 1226.2,881.926"/>
<polyline class="LedgerLine" fill="none" stroke="#000000" stroke-width="4.00" stroke-linejoin="bevel" points="1322.23,881.926 1372.22,881.926"/>
<polyline class="LedgerLine" fill="none" stroke="#000000" stroke-width="4.00" stroke-linejoin="bevel" points="1322.23,856.924 1372.22,856.924"/>
<polyline class="LedgerLine" fill="none" stroke="#000000" stroke-width="4.00" stroke-linejoin="bevel" points="1468.25,881.926 1518.25,881.926"/>
<polyline class="LedgerLine" fill="none" stroke="#000000" stroke-width="4.00" stroke-linejoin="bevel" points="1468.25,856.924 1518.25,856.924"/>
<polyline class="LedgerLine" fill="none" stroke="#000000" stroke-width="4.00" stroke-linejoin="bevel" points="1675.82,881.926 1725.82,881.926"/>
<polyline class="LedgerLine" fill="none" stroke="#000000" stroke-width="4.00" stroke-linejoin="bevel" points="1675.82,856.924 1725.82,856.924"/>
<polyline class="LedgerLine" fill="none" stroke="#000000" stroke-width="4.00" stroke-linejoin="bevel" points="1820.19,881.926 1870.19,881.926"/>
<polyline class="LedgerLine" fill="none" stroke="#000000" stroke-width="4.00" stroke-linejoin="bevel" points="1964.56,881.926 2014.56,881.926"/>
<polyline class="Stem" fill="none" stroke="#000000" stroke-width="2.75" stroke-linejoin="bevel" points="456.377,935.449 456.377,1016.31"/>
<polyline class="Stem" fill="none" stroke="#000000" stroke-width="2.75" stroke-linejoin="bevel" points="590.923,922.949 590.923,1006.93"/>
<polyline class="Stem" fill="none" stroke="#000000" stroke-width="2.75" stroke-linejoin="bevel" points="725.468,910.448 725.468,994.433"/>
<polyline class="Stem" fill="none" stroke="#000000" stroke-width="2.75" stroke-linejoin="bevel" points="860.014,897.947 860.014,981.932"/>
<polyline class="Stem" fill="none" stroke="#000000" stroke-width="2.75" stroke-linejoin="bevel" points="1040.31,885.446 1040.31,969.431"/>
<polyline class="Stem" fill="none" stroke="#000000" stroke-width="2.75" stroke-linejoin="bevel" points="1186.33,872.945 1186.33,956.931"/>
<polyline class="Stem" fill="none" stroke="#000000" stroke-width="2.75" stroke-linejoin="bevel" points="1332.35,860.445 1332.35,956.931"/>
<polyline class="Stem" fill="none" stroke="#000000" stroke-width="2.75" stroke-linejoin="bevel" points="1478.38,847.944 1478.38,956.931"/>
<polyline class="Stem" fill="none" stroke="#000000" stroke-width="2.75" stroke-linejoin="bevel" points="1685.95,860.445 1685.95,956.931"/>
<polyline class="Stem" fill="none" stroke="#000000" stroke-width="2.75" stroke-linejoin="bevel" points="1830.32,872.945 1830.32,956.931"/>
<polyline class="Stem" fill="none" stroke="#000000" stroke-width="2.75" stroke-linejoin="bevel" points="1974.69,885.446 1974.69,969.431"/>
<polyline class="Stem" fill="none" stroke="#000000" stroke-width="2.75" stroke-linejoin="bevel" points="2119.06,897.947 2119.06,981.932"/>
<polyline class="Stem" fill="none" stroke="#000000" stroke-width="2.75" stroke-linejoin="bevel" points="2316.23,910.448 2316.23,994.433"/>
<polyline class="Stem" fill="none" stroke="#000000" stroke-width="2.75" stroke-linejoin="bevel" points="2432.28,922.949 2432.28,1006.93"/>
<polyline class="Stem" fill="none" stroke="#000000" stroke-width="2.75" stroke-linejoin="bevel" points="2548.33,935.369 2548.33,1016.31"/>
<polyline class="Stem" fill="none" stroke="#000000" stroke-width="2.75" stroke-linejoin="bevel" points="486.121,728.556 486.121,644.411"/>
<polyline class="Stem" fill="none" stroke="#000000" stroke-width="2.75" stroke-linejoin="bevel" points="620.667,716.056 620.667,635.035"/>
<polyline class="Stem" fill="none" stroke="#000000" stroke-width="2.75" stroke-linejoin="bevel" points="755.213,703.555 755.213,625.66"/>
<polyline class="Stem" fill="none" stroke="#000000" stroke-width="2.75" stroke-linejoin="bevel" points="860.014,697.934 860.014,772.544"/>
<polyline class="Stem" fill="none" stroke="#000000" stroke-width="2.75" stroke-linejoin="bevel" points="1040.31,685.434 1040.31,763.168"/>
<polyline class="Stem" fill="none" stroke="#000000" stroke-width="2.75" stroke-linejoin="bevel" points="1186.33,672.933 1186.33,753.793"/>
<polyline class="Stem" fill="none" stroke="#000000" stroke-width="2.75" stroke-linejoin="bevel" points="1332.35,660.432 1332.35,744.417"/>
<polyline class="Stem" fill="none" stroke="#000000" stroke-width="2.75" stroke-linejoin="bevel" points="1478.38,647.931 1478.38,731.917"/>
<polyline class="Stem" fill="none" stroke="#000000" stroke-width="2.75" stroke-linejoin="bevel" points="1685.95,660.432 1685.95,744.417"/>
<polyline class="Stem" fill="none" stroke="#000000" stroke-width="2.75" stroke-linejoin="bevel" points="1830.32,672.933 1830.32,753.793"/>
<polyline class="Stem" fill="none" stroke="#000000" stroke-width="2.75" stroke-linejoin="bevel" points="1974.69,685.434 1974.69,763.168"/>
<polyline class="Stem" fill="none" stroke="#000000" stroke-width="2.75" stroke-linejoin="bevel" points="2119.06,697.934 2119.06,772.544"/>
<polyline class="Stem" fill="none" stroke="#000000" stroke-width="2.75" stroke-linejoin="bevel" points="2345.98,703.555 2345.98,625.66"/>
<polyline class="Stem" fill="none" stroke="#000000" stroke-width="2.75" stroke-linejoin="bevel" points="2462.02,716.056 2462.02,635.035"/>
<polyline class="Stem" fill="none" stroke="#000000" stroke-width="2.75" stroke-linejoin="bevel" points="2578.07,728.476 2578.07,644.411"/>
<path class="Note" d="M486.502,923.729 C485.002,921.029 482.102,919.329 478.202,918.929 C477.602,918.829 477.102,918.829 476.502,918.829 C473.002,918.829 469.202,919.829 465.702,921.729 C459.102,925.329 455.002,931.229 455.002,936.329 C455.002,937.729 455.202,939.029 455.902,940.229 C457.402,942.929 460.402,944.629 464.302,945.029 C464.902,945.129 465.402,945.129 466.002,945.129 C469.502,945.129 473.202,944.129 476.702,942.229 C483.302,938.629 487.502,932.829 487.502,927.729 C487.502,926.329 487.202,924.929 486.502,923.729"/>
<path class="Note" d="M621.048,911.228 C619.548,908.528 616.648,906.828 612.748,906.428 C612.148,906.328 611.648,906.328 611.048,906.328 C607.548,906.328 603.748,907.328 600.248,909.228 C593.648,912.828 589.548,918.728 589.548,923.828 C589.548,925.228 589.748,926.528 590.448,927.728 C591.948,930.428 594.948,932.128 598.848,932.528 C599.448,932.628 599.948,932.628 600.548,932.628 C604.048,932.628 607.748,931.628 611.248,929.728 C617.848,926.128 622.048,920.328 622.048,915.228 C622.048,913.828 621.748,912.428 621.048,911.228"/>
<path class="Note" d="M755.593,898.728 C754.093,896.028 751.193,894.328 747.293,893.928 C746.693,893.828 746.193,893.828 745.593,893.828 C742.093,893.828 738.293,894.828 734.793,896.728 C728.193,900.328 724.093,906.228 724.093,911.328 C724.093,912.728 724.293,914.028 724.993,915.228 C726.493,917.928 729.493,919.628 733.393,920.028 C733.993,920.128 734.493,920.128 735.093,920.128 C738.593,920.128 742.293,919.128 745.793,917.228 C752.393,913.628 756.593,907.828 756.593,902.728 C756.593,901.328 756.293,899.928 755.593,898.728"/>
<path class="Note" d="M890.139,886.227 C888.639,883.527 885.739,881.827 881.839,881.427 C881.239,881.327 880.739,881.327 880.139,881.327 C876.639,881.327 872.839,882.327 869.339,884.227 C862.739,887.827 858.639,893.727 858.639,898.827 C858.639,900.227 858.839,901.527 859.539,902.727 C861.039,905.427 864.039,907.127 867.939,907.527 C868.539,907.627 869.039,907.627 869.639,907.627 C873.139,907.627 876.839,906.627 880.339,904.727 C886.939,901.127 891.139,895.327 891.139,890.227 C891.139,888.827 890.839,887.427 890.139,886.227"/>
<path class="Note" d="M1070.44,873.726 C1068.94,871.026 1066.04,869.326 1062.14,868.926 C1061.54,868.826 1061.04,868.826 1060.44,868.826 C1056.94,868.826 1053.14,869.826 1049.64,871.726 C1043.04,875.326 1038.94,881.226 1038.94,886.326 C1038.94,887.726 1039.14,889.026 1039.84,890.226 C1041.34,892.926 1044.34,894.626 1048.24,895.026 C1048.84,895.126 1049.34,895.126 1049.94,895.126 C1053.44,895.126 1057.14,894.126 1060.64,892.226 C1067.24,888.626 1071.44,882.826 1071.44,877.726 C1071.44,876.326 1071.14,874.926 1070.44,873.726"/>
<path class="Note" d="M1216.46,861.225 C1214.96,858.525 1212.06,856.825 1208.16,856.425 C1207.56,856.325 1207.06,856.325 1206.46,856.325 C1202.96,856.325 1199.16,857.325 1195.66,859.225 C1189.06,862.825 1184.96,868.725 1184.96,873.825 C1184.96,875.225 1185.16,876.525 1185.86,877.725 C1187.36,880.425 1190.36,882.125 1194.26,882.525 C1194.86,882.625 1195.36,882.625 1195.96,882.625 C1199.46,882.625 1203.16,881.625 1206.66,879.725 C1213.26,876.125 1217.46,870.325 1217.46,865.225 C1217.46,863.825 1217.16,862.425 1216.46,861.225"/>
<path class="Note" d="M1362.48,848.724 C1360.98,846.024 1358.08,844.324 1354.18,843.924 C1353.58,843.824 1353.08,843.824 1352.48,843.824 C1348.98,843.824 1345.18,844.824 1341.68,846.724 C1335.08,850.324 1330.98,856.224 1330.98,861.324 C1330.98,862.724 1331.18,864.024 1331.88,865.224 C1333.38,867.924 1336.38,869.624 1340.28,870.024 C1340.88,870.124 1341.38,870.124 1341.98,870.124 C1345.48,870.124 1349.18,869.124 1352.68,867.224 C1359.28,863.624 1363.48,857.824 1363.48,852.724 C1363.48,851.324 1363.18,849.924 1362.48,848.724"/>
<path class="Note" d="M1508.5,836.224 C1507,833.524 1504.1,831.824 1500.2,831.424 C1499.6,831.324 1499.1,831.324 1498.5,831.324 C1495,831.324 1491.2,832.324 1487.7,834.224 C1481.1,837.824 1477,843.724 1477,848.824 C1477,850.224 1477.2,851.524 1477.9,852.724 C1479.4,855.424 1482.4,857.124 1486.3,857.524 C1486.9,857.624 1487.4,857.624 1488,857.624 C1491.5,857.624 1495.2,856.624 1498.7,854.724 C1505.3,851.124 1509.5,845.324 1509.5,840.224 C1509.5,838.824 1509.2,837.424 1508.5,836.224"/>
<path class="Note" d="M1716.07,848.724 C1714.57,846.024 1711.67,844.324 1707.77,843.924 C1707.17,843.824 1706.67,843.824 1706.07,843.824 C1702.57,843.824 1698.77,844.824 1695.27,846.724 C1688.67,850.324 1684.57,856.224 1684.57,861.324 C1684.57,862.724 1684.77,864.024 1685.47,865.224 C1686.97,867.924 1689.97,869.624 1693.87,870.024 C1694.47,870.124 1694.97,870.124 1695.57,870.124 C1699.07,870.124 1702.77,869.124 1706.27,867.224 C1712.87,863.624 1717.07,857.824 1717.07,852.724 C1717.07,851.324 1716.77,849.924 1716.07,848.724"/>
<path class="Note" d="M1860.44,861.225 C1858.94,858.525 1856.04,856.825 1852.14,856.425 C1851.54,856.325 1851.04,856.325 1850.44,856.325 C1846.94,856.325 1843.14,857.325 1839.64,859.225 C1833.04,862.825 1828.94,868.725 1828.94,873.825 C1828.94,875.225 1829.14,876.525 1829.84,877.725 C1831.34,880.425 1834.34,882.125 1838.24,882.525 C1838.84,882.625 1839.34,882.625 1839.94,882.625 C1843.44,882.625 1847.14,881.625 1850.64,879.725 C1857.24,876.125 1861.44,870.325 1861.44,865.225 C1861.44,863.825 1861.14,862.425 1860.44,861.225"/>
<path class="Note" d="M2004.82,873.726 C2003.32,871.026 2000.42,869.326 1996.52,868.926 C1995.92,868.826 1995.42,868.826 1994.82,868.826 C1991.32,868.826 1987.52,869.826 1984.02,871.726 C1977.42,875.326 1973.32,881.226 1973.32,886.326 C1973.32,887.726 1973.52,889.026 1974.22,890.226 C1975.72,892.926 1978.72,894.626 1982.62,895.026 C1983.22,895.126 1983.72,895.126 1984.32,895.126 C1987.82,895.126 1991.52,894.126 1995.02,892.226 C2001.62,888.626 2005.82,882.826 2005.82,877.726 C2005.82,876.326 2005.52,874.926 2004.82,873.726"/>
<path class="Note" d="M2149.19,886.227 C2147.69,883.527 2144.79,881.827 2140.89,881.427 C2140.29,881.327 2139.79,881.327 2139.19,881.327 C2135.69,881.327 2131.89,882.327 2128.39,884.227 C2121.79,887.827 2117.69,893.727 2117.69,898.827 C2117.69,900.227 2117.89,901.527 2118.59,902.727 C2120.09,905.427 2123.09,907.127 2126.99,907.527 C2127.59,907.627 2128.09,907.627 2128.69,907.627 C2132.19,907.627 2135.89,906.627 2139.39,904.727 C2145.99,901.127 2150.19,895.327 2150.19,890.227 C2150.19,888.827 2149.89,887.427 2149.19,886.227"/>
<path class="Note" d="M2346.36,898.728 C2344.86,896.028 2341.96,894.328 2338.06,893.928 C2337.46,893.828 2336.96,893.828 2336.36,893.828 C2332.86,893.828 2329.06,894.828 2325.56,896.728 C2318.96,900.328 2314.86,906.228 2314.86,911.328 C2314.86,912.728 2315.06,914.028 2315.76,915.228 C2317.26,917.928 2320.26,919.628 2324.16,920.028 C2324.76,920.128 2325.26,920.128 2325.86,920.128 C2329.36,920.128 2333.06,919.128 2336.56,917.228 C2343.16,913.628 2347.36,907.828 2347.36,902.728 C2347.36,901.328 2347.06,899.928 2346.36,898.728"/>
<path class="Note" d="M2462.41,911.228 C2460.91,908.528 2458.01,906.828 2454.11,906.428 C2453.51,906.328 2453.01,906.328 2452.41,906.328 C2448.91,906.328 2445.11,907.328 2441.61,909.228 C2435.01,912.828 2430.91,918.728 2430.91,923.828 C2430.91,925.228 2431.11,926.528 2431.81,927.728 C2433.31,930.428 2436.31,932.128 2440.21,932.528 C2440.81,932.628 2441.31,932.628 2441.91,932.628 C2445.41,932.628 2449.11,931.628 2452.61,929.728 C2459.21,926.128 2463.41,920.328 2463.41,915.228 C2463.41,913.828 2463.11,912.428 2462.41,911.228"/>
<path class="Note" d="M2578.45,923.729 C2576.95,921.029 2574.05,919.329 2570.15,918.929 C2569.55,918.829 2569.05,918.829 2568.45,918.829 C2564.95,918.829 2561.15,919.829 2557.65,921.729 C2551.05,925.329 2546.95,931.129 2546.95,936.229 C2546.95,937.629 2547.35,939.029 2548.05,940.229 C2549.55,943.029 2552.35,944.629 2556.25,945.029 C2556.85,945.129 2557.35,945.129 2557.95,945.129 C2561.45,945.129 2565.25,944.129 2568.75,942.229 C2575.35,938.629 2579.45,932.729 2579.45,927.629 C2579.45,926.229 2579.15,924.929 2578.45,923.729 M2574.25,930.029 C2572.55,931.829 2569.35,934.129 2565.75,936.229 C2562.15,938.329 2558.45,940.029 2556.15,940.729 C2555.65,940.829 2555.05,940.929 2554.55,940.929 C2553.05,940.929 2551.75,940.229 2551.05,939.129 C2550.75,938.529 2550.55,937.929 2550.55,937.329 C2550.55,936.229 2551.05,935.129 2552.15,933.929 C2553.85,932.129 2557.05,929.729 2560.65,927.629 C2564.25,925.529 2567.95,923.829 2570.35,923.229 L2570.55,923.229 C2571.15,923.029 2571.65,922.929 2572.15,922.929 C2573.55,922.929 2574.65,923.529 2575.35,924.829 C2575.65,925.429 2575.85,925.929 2575.85,926.529 C2575.85,927.829 2575.15,929.129 2574.25,930.029"/>
<path class="Note" d="M486.502,723.717 C485.002,721.017 482.102,719.317 478.202,718.917 C477.602,718.817 477.102,718.817 476.502,718.817 C473.002,718.817 469.202,719.817 465.702,721.717 C459.102,725.317 455.002,731.217 455.002,736.317 C455.002,737.717 455.202,739.017 455.902,740.217 C457.402,742.917 460.402,744.617 464.302,745.017 C464.902,745.117 465.402,745.117 466.002,745.117 C469.502,745.117 473.202,744.117 476.702,742.217 C483.302,738.617 487.502,732.817 487.502,727.717 C487.502,726.317 487.202,724.917 486.502,723.717"/>
<path class="Note" d="M621.048,711.216 C619.548,708.516 616.648,706.816 612.748,706.416 C612.148,706.316 611.648,706.316 611.048,706.316 C607.548,706.316 603.748,707.316 600.248,709.216 C593.648,712.816 589.548,718.716 589.548,723.816 C589.548,725.216 589.748,726.516 590.448,727.716 C591.948,730.416 594.948,732.116 598.848,732.516 C599.448,732.616 599.948,732.616 600.548,732.616 C604.048,732.616 607.748,731.616 611.248,729.716 C617.848,726.116 622.048,720.316 622.048,715.216 C622.048,713.816 621.748,712.416 621.048,711.216"/>
<path class="Note" d="M755.593,698.715 C754.093,696.015 751.193,694.315 747.293,693.915 C746.693,693.815 746.193,693.815 745.593,693.815 C742.093,693.815 738.293,694.815 734.793,696.715 C728.193,700.315 724.093,706.215 724.093,711.315 C724.093,712.715 724.293,714.015 724.993,715.215 C726.493,717.915 729.493,719.615 733.393,720.015 C733.993,720.115 734.493,720.115 735.093,720.115 C738.593,720.115 742.293,719.115 745.793,717.215 C752.393,713.615 756.593,707.815 756.593,702.715 C756.593,701.315 756.293,699.915 755.593,698.715"/>
<path class="Note" d="M890.139,686.214 C888.639,683.514 885.739,681.814 881.839,681.414 C881.239,681.314 880.739,681.314 880.139,681.314 C876.639,681.314 872.839,682.314 869.339,684.214 C862.739,687.814 858.639,693.714 858.639,698.814 C858.639,700.214 858.839,701.514 859.539,702.714 C861.039,705.414 864.039,707.114 867.939,707.514 C868.539,707.614 869.039,707.614 869.639,707.614 C873.139,707.614 876.839,706.614 880.339,704.714 C886.939,701.114 891.139,695.314 891.139,690.214 C891.139,688.814 890.839,687.414 890.139,686.214"/>
<path class="Note" d="M1070.44,673.713 C1068.94,671.013 1066.04,669.313 1062.14,668.913 C1061.54,668.813 1061.04,668.813 1060.44,668.813 C1056.94,668.813 1053.14,669.813 1049.64,671.713 C1043.04,675.313 1038.94,681.213 1038.94,686.313 C1038.94,687.713 1039.14,689.013 1039.84,690.213 C1041.34,692.913 1044.34,694.613 1048.24,695.013 C1048.84,695.113 1049.34,695.113 1049.94,695.113 C1053.44,695.113 1057.14,694.113 1060.64,692.213 C1067.24,688.613 1071.44,682.813 1071.44,677.713 C1071.44,676.313 1071.14,674.913 1070.44,673.713"/>
<path class="Note" d="M1216.46,661.213 C1214.96,658.513 1212.06,656.813 1208.16,656.413 C1207.56,656.313 1207.06,656.313 1206.46,656.313 C1202.96,656.313 1199.16,657.313 1195.66,659.213 C1189.06,662.813 1184.96,668.713 1184.96,673.813 C1184.96,675.213 1185.16,676.513 1185.86,677.713 C1187.36,680.413 1190.36,682.113 1194.26,682.513 C1194.86,682.613 1195.36,682.613 1195.96,682.613 C1199.46,682.613 1203.16,681.613 1206.66,679.713 C1213.26,676.113 1217.46,670.313 1217.46,665.213 C1217.46,663.813 1217.16,662.413 1216.46,661.213"/>
<path class="Note" d="M1362.48,648.712 C1360.98,646.012 1358.08,644.312 1354.18,643.912 C1353.58,643.812 1353.08,643.812 1352.48,643.812 C1348.98,643.812 1345.18,644.812 1341.68,646.712 C1335.08,650.312 1330.98,656.212 1330.98,661.312 C1330.98,662.712 1331.18,664.012 1331.88,665.212 C1333.38,667.912 1336.38,669.612 1340.28,670.012 C1340.88,670.112 1341.38,670.112 1341.98,670.112 C1345.48,670.112 1349.18,669.112 1352.68,667.212 C1359.28,663.612 1363.48,657.812 1363.48,652.712 C1363.48,651.312 1363.18,649.912 1362.48,648.712"/>
<path class="Note" d="M1508.5,636.211 C1507,633.511 1504.1,631.811 1500.2,631.411 C1499.6,631.311 1499.1,631.311 1498.5,631.311 C1495,631.311 1491.2,632.311 1487.7,634.211 C1481.1,637.811 1477,643.711 1477,648.811 C1477,650.211 1477.2,651.511 1477.9,652.711 C1479.4,655.411 1482.4,657.111 1486.3,657.511 C1486.9,657.611 1487.4,657.611 1488,657.611 C1491.5,657.611 1495.2,656.611 1498.7,654.711 C1505.3,651.111 1509.5,645.311 1509.5,640.211 C1509.5,638.811 1509.2,637.411 1508.5,636.211"/>
<path class="Note" d="M1716.07,648.712 C1714.57,646.012 1711.67,644.312 1707.77,643.912 C1707.17,643.812 1706.67,643.812 1706.07,643.812 C1702.57,643.812 1698.77,644.812 1695.27,646.712 C1688.67,650.312 1684.57,656.212 1684.57,661.312 C1684.57,662.712 1684.77,664.012 1685.47,665.212 C1686.97,667.912 1689.97,669.612 1693.87,670.012 C1694.47,670.112 1694.97,670.112 1695.57,670.112 C1699.07,670.112 1702.77,669.112 1706.27,667.212 C1712.87,663.612 1717.07,657.812 1717.07,652.712 C1717.07,651.312 1716.77,649.912 1716.07,648.712"/>
<path class="Note" d="M1860.44,661.213 C1858.94,658.513 1856.04,656.813 1852.14,656.413 C1851.54,656.313 1851.04,656.313 1850.44,656.313 C1846.94,656.313 1843.14,657.313 1839.64,659.213 C1833.04,662.813 1828.94,668.713 1828.94,673.813 C1828.94,675.213 1829.14,676.513 1829.84,677.713 C1831.34,680.413 1834.34,682.113 1838.24,682.513 C1838.84,682.613 1839.34,682.613 1839.94,682.613 C1843.44,682.613 1847.14,681.613 1850.64,679.713 C1857.24,676.113 1861.44,670.313 1861.44,665.213 C1861.44,663.813 1861.14,662.413 1860.44,661.213"/>
<path class="Note" d="M2004.82,673.713 C2003.32,671.013 2000.42,669.313 1996.52,668.913 C1995.92,668.813 1995.42,668.813 1994.82,668.813 C1991.32,668.813 1987.52,669.813 1984.02,671.713 C1977.42,675.313 1973.32,681.213 1973.32,686.313 C1973.32,687.713 1973.52,689.013 1974.22,690.213 C1975.72,692.913 1978.72,694.613 1982.62,695.013 C1983.22,695.113 1983.72,695.113 1984.32,695.113 C1987.82,695.113 1991.52,694.113 1995.02,692.213 C2001.62,688.613 2005.82,682.813 2005.82,677.713 C2005.82,676.313 2005.52,674.913 2004.82,673.713"/>
<path class="Note" d="M2149.19,686.214 C2147.69,683.514 2144.79,681.814 2140.89,681.414 C2140.29,681.314 2139.79,681.314 2139.19,681.314 C2135.69,681.314 2131.89,682.314 2128.39,684.214 C2121.79,687.814 2117.69,693.714 2117.69,698.814 C2117.69,700.214 2117.89,701.514 2118.59,702.714 C2120.09,705.414 2123.09,707.114 2126.99,707.514 C2127.59,707.614 2128.09,707.614 2128.69,707.614 C2132.19,707.614 2135.89,706.614 2139.39,704.714 C2145.99,701.114 2150.19,695.314 2150.19,690.214 C2150.19,688.814 2149.89,687.414 2149.19,686.214"/>
<path class="Note" d="M2346.36,698.715 C2344.86,696.015 2341.96,694.315 2338.06,693.915 C2337.46,693.815 2336.96,693.815 2336.36,693.815 C2332.86,693.815 2329.06,694.815 2325.56,696.715 C2318.96,700.315 2314.86,706.215 2314.86,711.315 C2314.86,712.715 2315.06,714.015 2315.76,715.215 C2317.26,717.915 2320.26,719.615 2324.16,720.015 C2324.76,720.115 2325.26,720.115 2325.86,720.115 C2329.36,720.115 2333.06,719.115 2336.56,717.215 C2343.16,713.615 2347.36,707.815 2347.36,702.715 C2347.36,701.315 2347.06,699.915 2346.36,698.715"/>
<path class="Note" d="M2462.41,711.216 C2460.91,708.516 2458.01,706.816 2454.11,706.416 C2453.51,706.316 2453.01,706.316 2452.41,706.316 C2448.91,706.316 2445.11,707.316 2441.61,709.216 C2435.01,712.816 2430.91,718.716 2430.91,723.816 C2430.91,725.216 2431.11,726.516 2431.81,727.716 C2433.31,730.416 2436.31,732.116 2440.21,732.516 C2440.81,732.616 2441.31,732.616 2441.91,732.616 C2445.41,732.616 2449.11,731.616 2452.61,729.716 C2459.21,726.116 2463.41,720.316 2463.41,715.216 C2463.41,713.816 2463.11,712.416 2462.41,711.216"/>
<path class="Note" d="M2578.45,723.717 C2576.95,721.017 2574.05,719.317 2570.15,718.917 C2569.55,718.817 2569.05,718.817 2568.45,718.817 C2564.95,718.817 2561.15,719.817 2557.65,721.717 C2551.05,725.317 2546.95,731.117 2546.95,736.217 C2546.95,737.617 2547.35,739.017 2548.05,740.217 C2549.55,743.017 2552.35,744.617 2556.25,745.017 C2556.85,745.117 2557.35,745.117 2557.95,745.117 C2561.45,745.117 2565.25,744.117 2568.75,742.217 C2575.35,738.617 2579.45,732.717 2579.45,727.617 C2579.45,726.217 2579.15,724.917 2578.45,723.717 M2574.25,730.017 C2572.55,731.817 2569.35,734.117 2565.75,736.217 C2562.15,738.317 2558.45,740.017 2556.15,740.717 C2555.65,740.817 2555.05,740.917 2554.55,740.917 C2553.05,740.917 2551.75,740.217 2551.05,739.117 C2550.75,738.517 2550.55,737.917 2550.55,737.317 C2550.55,736.217 2551.05,735.117 2552.15,733.917 C2553.85,732.117 2557.05,729.717 2560.65,727.617 C2564.25,725.517 2567.95,723.817 2570.35,723.217 L2570.55,723.217 C2571.15,723.017 2571.65,722.917 2572.15,722.917 C2573.55,722.917 2574.65,723.517 2575.35,724.817 C2575.65,725.417 2575.85,725.917 2575.85,726.517 C2575.85,727.817 2575.15,729.117 2574.25,730.017"/>
<path class="Clef" d="M297,906.829 C289.4,906.829 283.3,911.229 283.2,911.229 C277.4,915.529 275.1,920.629 274.2,924.129 C273.7,925.929 273.5,927.729 273.5,929.429 C273.5,931.829 273.9,934.029 274.8,935.929 C276,938.629 278.3,940.529 281.3,941.529 C282.5,941.929 283.8,942.129 285.1,942.129 C287.3,942.129 289.6,941.529 291.5,940.429 C294.6,938.729 296.5,935.129 296.5,931.229 C296.5,927.729 294.7,924.529 291.7,922.629 C289.6,921.229 287.6,920.829 285.9,920.829 C284.7,920.829 283.6,921.029 282.7,921.329 C281.7,921.729 280,922.729 279.2,923.429 C279.5,921.529 280.7,918.629 281.8,917.029 C282.9,915.429 285.1,913.429 286.8,912.529 C289.3,911.129 292.5,910.529 296,910.529 C306.2,910.529 311.2,918.729 311.2,935.529 C311.2,944.829 307.7,953.729 304.7,959.629 C301.4,966.229 297,972.529 293.1,976.029 C282.7,985.529 272.9,990.029 272.8,990.029 C272.8,990.029 271.3,990.929 271.7,992.429 C272,993.429 272.9,993.629 273.5,993.629 C273.6,993.629 273.9,993.529 274,993.529 C274.1,993.529 285.5,988.829 294.6,981.729 C299.7,978.029 304.3,974.029 308.3,969.729 C311.9,965.829 315,961.629 317.5,957.429 C321.9,949.929 324.4,942.129 324.4,935.429 C324.4,927.129 322.2,920.229 318.1,915.329 C313.4,909.729 306.3,906.829 297,906.829 M328.4,919.529 C328.4,922.329 330.6,924.529 333.2,924.529 C335.8,924.529 338,922.329 338,919.529 C338,916.729 335.8,914.429 333.2,914.429 C330.6,914.429 328.4,916.729 328.4,919.529 M328.4,944.229 C328.4,947.029 330.6,949.329 333.2,949.329 C335.8,949.329 338,947.029 338,944.229 C338,941.429 335.8,939.129 333.2,939.129 C330.6,939.129 328.4,941.429 328.4,944.229"/>
<path class="Clef" d="M335,713.516 C333.8,708.116 331.1,704.216 330.3,703.216 C327.1,698.916 323.1,696.116 318.4,694.716 C316.1,694.016 314,693.816 312,693.816 C311.3,693.816 310.6,693.816 309.9,693.916 C308.9,687.916 307.8,682.016 306.9,676.616 C312.5,670.416 316.2,664.516 318.6,660.116 C322.2,653.416 323.6,648.716 323.7,648.516 C324.9,645.516 325.6,641.716 325.6,637.216 C325.6,634.516 325.3,631.616 324.9,628.616 C323.8,621.516 321.6,614.816 319.1,611.116 C317.8,609.216 316.6,608.116 315.4,608.116 C314.2,608.116 311.7,609.316 308.8,612.116 C306.5,614.316 303.2,618.216 300.6,624.216 C298.3,629.616 297.6,636.516 297.6,642.416 C297.6,644.216 297.7,645.916 297.8,647.516 C298,651.116 298.7,656.916 299.3,660.516 C299.3,660.616 299.6,662.116 300,664.716 L299.3,665.416 C298.3,666.416 297.1,667.516 295.7,668.916 C294.8,669.816 293.9,670.616 292.9,671.616 C284.4,679.816 271.6,692.216 271.6,711.316 C271.6,716.016 272.5,720.416 274.3,724.416 C275.9,728.016 278.2,731.316 281.1,734.216 C288.6,741.616 298.8,744.816 305.9,744.816 L306.5,744.816 C309.4,744.716 312.1,744.416 314.5,744.016 C316.3,753.616 317.5,760.716 317.5,766.016 C317.5,772.516 315.9,776.416 312,779.216 C309.6,780.916 306.7,782.016 303.6,782.116 L302.8,782.116 C301.3,782.116 298.8,781.716 297.3,781.316 C297.3,781.316 297,781.216 297,781.016 C297,780.816 297.4,780.816 297.4,780.816 C299.3,780.416 302.9,779.116 305.3,775.816 C306.4,774.316 307.1,772.016 307.1,769.516 C307.1,767.916 306.8,766.216 306.1,764.716 C305,762.316 302.4,759.316 296.8,758.916 L295.7,758.916 C293.6,758.916 291.8,759.416 290.1,760.416 C288.3,761.516 286.7,763.216 285.7,765.216 C284.6,767.216 284.1,769.416 284.1,771.616 C284.1,774.516 285,777.216 286.8,779.416 C289.8,783.016 294.5,785.316 299.9,785.916 C300.6,786.016 301.7,786.116 302.4,786.116 C306.8,786.116 311.2,784.916 314.8,782.716 C318.5,780.116 320.6,776.116 321.3,770.516 C321.5,769.216 321.5,767.816 321.5,766.316 C321.5,762.416 321,757.716 320,751.916 C319.6,749.816 319.2,746.816 318.5,743.016 C324.3,741.116 328.4,737.416 332.2,731.616 C334.5,727.616 335.6,723.516 335.6,719.216 C335.6,717.316 335.4,715.416 335,713.516 M304.8,635.616 C306.6,629.916 309.3,626.516 311.3,624.816 C313.1,623.316 314.7,622.616 315.6,622.616 C315.7,622.616 315.9,622.716 316,622.716 C316.3,622.816 316.7,623.316 317.1,624.016 C318,625.816 318.9,629.116 318.9,632.816 C318.9,634.716 318.7,636.716 318.1,638.516 C315.9,645.316 311.3,652.616 304.3,660.316 C304.1,659.216 303.9,658.216 303.8,657.216 C303.3,654.016 303,650.816 303,647.916 C303,643.416 303.6,639.316 304.8,635.616 M300.8,739.716 C296.2,738.516 291.7,736.016 287.9,732.516 C286.6,731.316 284.8,729.116 283.3,725.716 C282,722.716 281.3,719.616 281.3,716.216 L281.3,715.516 C281.4,710.816 282.7,706.016 285.2,701.216 C288.1,695.616 292.6,690.116 298.7,684.816 C300.2,683.516 301.6,682.216 302.9,680.916 C303.7,685.216 304.4,689.916 305.3,694.816 C301.4,696.116 296.7,699.116 293.6,704.816 C291.2,709.316 290.5,713.216 290.5,716.416 C290.5,717.916 290.7,719.316 290.9,720.416 C291.8,724.916 294.4,728.616 297.9,730.716 C298.7,731.216 302,732.916 304,732.916 C304.3,732.916 304.6,732.916 304.8,732.816 C305.1,732.716 305.4,732.516 305.5,732.216 C305.6,732.016 305.6,731.816 305.6,731.616 C305.6,730.816 304.8,730.216 303.5,729.416 C302.9,729.016 302.2,728.616 301.5,728.116 C298.9,726.116 297.4,723.016 297.4,719.616 C297.4,718.616 297.6,717.716 297.8,716.716 C298.3,714.716 300,711.916 301.5,710.516 C303.2,709.016 305.2,707.816 307.6,707.216 C309.6,718.416 311.7,729.516 313.3,737.916 C313.4,738.616 313.6,739.316 313.7,740.016 C311.7,740.416 309.7,740.616 307.8,740.616 C305.4,740.616 303.1,740.316 300.8,739.716 M326.5,729.516 C325.3,732.716 322.8,736.716 317.7,738.816 C317.6,738.416 317.6,737.916 317.5,737.516 C316,728.716 314.1,717.816 312.1,706.516 L313.1,706.516 C322.8,706.516 326.7,713.716 327.6,718.316 C327.8,719.216 327.9,720.416 327.9,721.716 C327.9,724.016 327.5,726.816 326.5,729.516"/>
<path class="TimeSig" d="M365.2,945.328 L382,945.328 L382,952.628 L373.9,952.628 C373.1,952.628 372.5,953.228 372.5,954.028 L372.5,955.928 C372.5,956.728 373.1,957.228 373.9,957.228 L403.6,957.228 C404.4,957.228 405,956.728 405,955.928 L405,954.028 C405,953.228 404.4,952.628 403.6,952.628 L394.8,952.628 L394.8,945.328 L403.6,945.328 C404.4,945.328 405,944.728 405,943.928 L405,942.128 C405,941.328 404.4,940.728 403.6,940.728 L394.8,940.728 L394.8,925.028 C394.8,924.528 394.4,924.028 394,923.828 L392.9,923.228 C392.7,923.128 392.4,923.128 392.2,923.128 C391.9,923.128 391.5,923.228 391.3,923.428 L382.4,931.628 C382.2,931.828 382,932.328 382,932.628 L382,940.728 L370.7,940.728 C370.7,940.728 381.6,928.928 393.2,913.428 C394,912.328 393.6,911.328 393.4,911.128 L391.3,908.928 C391.1,908.728 390.6,908.528 390.3,908.528 L375.7,908.528 C375,908.528 374.5,909.128 374.4,909.728 C374.4,909.728 373.9,916.928 371.3,924.928 C368.7,932.928 365.9,937.728 363.3,941.328 C363.3,941.328 362.8,942.328 363.1,943.028 C363.4,943.728 364.1,944.828 364.1,944.828 C364.1,944.828 364.4,945.328 365.2,945.328"/>
<path class="TimeSig" d="M365.2,993.933 L382,993.933 L382,1001.23 L373.9,1001.23 C373.1,1001.23 372.5,1001.83 372.5,1002.63 L372.5,1004.53 C372.5,1005.33 373.1,1005.83 373.9,1005.83 L403.6,1005.83 C404.4,1005.83 405,1005.33 405,1004.53 L405,1002.63 C405,1001.83 404.4,1001.23 403.6,1001.23 L394.8,1001.23 L394.8,993.933 L403.6,993.933 C404.4,993.933 405,993.333 405,992.533 L405,990.733 C405,989.933 404.4,989.333 403.6,989.333 L394.8,989.333 L394.8,973.633 C394.8,973.133 394.4,972.633 394,972.433 L392.9,971.833 C392.7,971.733 392.4,971.733 392.2,971.733 C391.9,971.733 391.5,971.833 391.3,972.033 L382.4,980.233 C382.2,980.433 382,980.933 382,981.233 L382,989.333 L370.7,989.333 C370.7,989.333 381.6,977.533 393.2,962.033 C394,960.933 393.6,959.933 393.4,959.733 L391.3,957.533 C391.1,957.333 390.6,957.133 390.3,957.133 L375.7,957.133 C375,957.133 374.5,957.733 374.4,958.333 C374.4,958.333 373.9,965.533 371.3,973.533 C368.7,981.533 365.9,986.333 363.3,989.933 C363.3,989.933 362.8,990.933 363.1,991.633 C363.4,992.333 364.1,993.433 364.1,993.433 C364.1,993.433 364.4,993.933 365.2,993.933"/>
<path class="TimeSig" d="M365.2,682.812 L382,682.812 L382,690.112 L373.9,690.112 C373.1,690.112 372.5,690.712 372.5,691.512 L372.5,693.412 C372.5,694.212 373.1,694.712 373.9,694.712 L403.6,694.712 C404.4,694.712 405,694.212 405,693.412 L405,691.512 C405,690.712 404.4,690.112 403.6,690.112 L394.8,690.112 L394.8,682.812 L403.6,682.812 C404.4,682.812 405,682.212 405,681.412 L405,679.612 C405,678.812 404.4,678.212 403.6,678.212 L394.8,678.212 L394.8,662.512 C394.8,662.012 394.4,661.512 394,661.312 L392.9,660.712 C392.7,660.612 392.4,660.612 392.2,660.612 C391.9,660.612 391.5,660.712 391.3,660.912 L382.4,669.112 C382.2,669.312 382,669.812 382,670.112 L382,678.212 L370.7,678.212 C370.7,678.212 381.6,666.412 393.2,650.912 C394,649.812 393.6,648.812 393.4,648.612 L391.3,646.412 C391.1,646.212 390.6,646.012 390.3,646.012 L375.7,646.012 C375,646.012 374.5,646.612 374.4,647.212 C374.4,647.212 373.9,654.412 371.3,662.412 C368.7,670.412 365.9,675.212 363.3,678.812 C363.3,678.812 362.8,679.812 363.1,680.512 C363.4,681.212 364.1,682.312 364.1,682.312 C364.1,682.312 364.4,682.812 365.2,682.812"/>
<path class="TimeSig" d="M365.2,731.416 L382,731.416 L382,738.716 L373.9,738.716 C373.1,738.716 372.5,739.316 372.5,740.116 L372.5,742.016 C372.5,742.816 373.1,743.316 373.9,743.316 L403.6,743.316 C404.4,743.316 405,742.816 405,742.016 L405,740.116 C405,739.316 404.4,738.716 403.6,738.716 L394.8,738.716 L394.8,731.416 L403.6,731.416 C404.4,731.416 405,730.816 405,730.016 L405,728.216 C405,727.416 404.4,726.816 403.6,726.816 L394.8,726.816 L394.8,711.116 C394.8,710.616 394.4,710.116 394,709.916 L392.9,709.316 C392.7,709.216 392.4,709.216 392.2,709.216 C391.9,709.216 391.5,709.316 391.3,709.516 L382.4,717.716 C382.2,717.916 382,718.416 382,718.716 L382,726.816 L370.7,726.816 C370.7,726.816 381.6,715.016 393.2,699.516 C394,698.416 393.6,697.416 393.4,697.216 L391.3,695.016 C391.1,694.816 390.6,694.616 390.3,694.616 L375.7,694.616 C375,694.616 374.5,695.216 374.4,695.816 C374.4,695.816 373.9,703.016 371.3,711.016 C368.7,719.016 365.9,723.816 363.3,727.416 C363.3,727.416 362.8,728.416 363.1,729.116 C363.4,729.816 364.1,730.916 364.1,730.916 C364.1,730.916 364.4,731.416 365.2,731.416"/>
<path class="Page" d="M233.756,4056.35 L231.776,4056.35 L231.326,4058.64 C230.741,4061.57 230.381,4061.84 227.591,4061.84 L217.511,4061.84 C220.616,4058.6 221.651,4057.65 224.531,4055.4 C228.626,4052.25 230.381,4050.68 231.416,4049.33 C232.856,4047.35 233.576,4045.37 233.576,4043.16 C233.576,4038.03 229.346,4034.39 223.451,4034.39 C217.736,4034.39 213.371,4038.03 213.371,4042.85 C213.371,4045.68 214.811,4047.62 216.926,4047.62 C218.591,4047.62 219.716,4046.49 219.716,4044.87 C219.716,4043.75 219.086,4042.71 218.141,4042.31 C216.476,4041.63 216.386,4041.54 216.386,4040.96 C216.386,4040.28 216.836,4039.25 217.466,4038.48 C218.591,4037.09 220.436,4036.32 222.551,4036.32 C226.286,4036.32 228.491,4038.62 228.491,4042.4 C228.491,4045.73 226.916,4048.74 223.181,4052.7 C219.851,4056.21 217.781,4058.42 217.016,4059.27 C215.396,4061.16 214.586,4062.2 212.606,4064.81 L212.606,4066.07 L232.901,4066.07 L233.756,4056.35 M243.427,4039.47 C245.857,4040.06 247.072,4040.24 248.872,4040.24 C252.697,4040.24 255.487,4038.93 256.972,4036.41 C257.467,4035.6 257.647,4035.15 257.647,4034.79 C257.647,4034.52 257.557,4034.39 257.287,4034.39 C257.152,4034.39 256.972,4034.43 256.702,4034.57 C254.497,4035.51 253.327,4035.74 250.717,4035.74 C247.837,4035.74 246.037,4035.47 241.447,4034.39 C241.267,4038.17 240.862,4042.98 240.232,4048.56 C239.287,4049.55 238.972,4050.14 238.972,4050.86 C238.972,4051.8 239.557,4052.39 240.412,4052.39 C241.582,4052.39 242.257,4051.44 242.437,4049.64 C244.012,4048.52 245.497,4048.02 247.297,4048.02 C251.347,4048.02 253.732,4051.08 253.732,4056.26 C253.732,4059.27 252.967,4061.84 251.617,4063.23 C250.717,4064.18 248.872,4064.81 247.027,4064.81 C244.327,4064.81 241.537,4063.41 241.537,4062.02 C241.537,4061.7 241.807,4061.34 242.347,4061.03 C243.742,4060.17 244.147,4059.59 244.147,4058.37 C244.147,4056.8 242.932,4055.58 241.312,4055.58 C239.512,4055.58 238.072,4057.25 238.072,4059.36 C238.072,4061.61 239.377,4063.86 241.402,4065.26 C242.932,4066.25 244.732,4066.74 247.117,4066.74 C254.182,4066.74 258.637,4062.6 258.637,4055.99 C258.637,4049.87 254.587,4045.77 248.467,4045.77 C246.532,4045.77 245.137,4046.09 242.662,4047.12 L243.427,4039.47 "/>
<path class="Bracket" transform="matrix(3.62523,0,0,3.62523,214.469,1006.93)" d="M0.92002,-50 C2.69004,-51.88 6.2,-55.8 6.2,-63 C6.2,-72.1 2.25996,-81.32 2.25996,-86.97 C2.25996,-93.06 5.84004,-98.84 5.95,-99 C6.05996,-99.16 6.05,-99.39 5.94004,-99.46 C5.82998,-99.53 5.62002,-99.47 5.49004,-99.32 C5.35996,-99.17 0,-93.75 0,-85.6 C0,-76.75 3.5,-70.58 3.5,-59.07 C3.5,-56.89 2.55996,-53.36 0.1,-50.33 C-0.0799805,-50.17 -0.1,-49.89 0.0599609,-49.7 L0.0700195,-49.69 L0.1,-49.66 C2.55996,-46.63 3.5,-43.1 3.5,-40.92 C3.5,-29.4 0,-23.24 0,-14.39 C0,-6.25 5.35996,-0.8 5.49004,-0.659961 C5.62002,-0.52002 5.8,-0.42998 5.94004,-0.52002 C6.07998,-0.609961 6.07998,-0.77998 5.95,-0.97998 C5.82002,-1.17998 2.25996,-6.92002 2.25996,-13.01 C2.25996,-18.66 6.2,-27.9 6.2,-37 C6.2,-44.3 2.69004,-48.12 0.92002,-50"/>
</svg>
