<?xml version="1.0" encoding="UTF-8" standalone="no"?>
<svg width="2977.23px" height="4208.47px" viewBox="0 0 2977.23 4208.47"
 xmlns="http://www.w3.org/2000/svg" xmlns:xlink="http://www.w3.org/1999/xlink" version="1.2" baseProfile="tiny">
<title>exercises_scores (2)</title>
<desc>Generated by MuseScore 3.6.0</desc>
<polyline class="StaffLines" fill="none" stroke="#000000" stroke-width="2.75" stroke-linejoin="bevel" points="247.099,656.536 2764.63,656.536"/>
<polyline class="StaffLines" fill="none" stroke="#000000" stroke-width="2.75" stroke-linejoin="bevel" points="247.099,681.538 2764.63,681.538"/>
<polyline class="StaffLines" fill="none" stroke="#000000" stroke-width="2.75" stroke-linejoin="bevel" points="247.099,706.539 2764.63,706.539"/>
<polyline class="StaffLines" fill="none" stroke="#000000" stroke-width="2.75" stroke-linejoin="bevel" points="247.099,731.541 2764.63,731.541"/>
<polyline class="StaffLines" fill="none" stroke="#000000" stroke-width="2.75" stroke-linejoin="bevel" points="247.099,756.542 2764.63,756.542"/>
<polyline class="StaffLines" fill="none" stroke="#000000" stroke-width="2.75" stroke-linejoin="bevel" points="247.099,919.053 2764.63,919.053"/>
<polyline class="StaffLines" fill="none" stroke="#000000" stroke-width="2.75" stroke-linejoin="bevel" points="247.099,944.054 2764.63,944.054"/>
<polyline class="StaffLines" fill="none" stroke="#000000" stroke-width="2.75" stroke-linejoin="bevel" points="247.099,969.056 2764.63,969.056"/>
<polyline class="StaffLines" fill="none" stroke="#000000" stroke-width="2.75" stroke-linejoin="bevel" points="247.099,994.057 2764.63,994.057"/>
<polyline class="StaffLines" fill="none" stroke="#000000" stroke-width="2.75" stroke-linejoin="bevel" points="247.099,1019.06 2764.63,1019.06"/>
<polyline class="StaffLines" fill="none" stroke="#000000" stroke-width="2.75" stroke-linejoin="bevel" points="247.099,1269.07 2764.63,1269.07"/>
<polyline class="StaffLines" fill="none" stroke="#000000" stroke-width="2.75" stroke-linejoin="bevel" points="247.099,1294.08 2764.63,1294.08"/>
<polyline class="StaffLines" fill="none" stroke="#000000" stroke-width="2.75" stroke-linejoin="bevel" points="247.099,1319.08 2764.63,1319.08"/>
<polyline class="StaffLines" fill="none" stroke="#000000" stroke-width="2.75" stroke-linejoin="bevel" points="247.099,1344.08 2764.63,1344.08"/>
<polyline class="StaffLines" fill="none" stroke="#000000" stroke-width="2.75" stroke-linejoin="bevel" points="247.099,1369.08 2764.63,1369.08"/>
<polyline class="StaffLines" fill="none" stroke="#000000" stroke-width="2.75" stroke-linejoin="bevel" points="247.099,1531.59 2764.63,1531.59"/>
<polyline class="StaffLines" fill="none" stroke="#000000" stroke-width="2.75" stroke-linejoin="bevel" points="247.099,1556.59 2764.63,1556.59"/>
<polyline class="StaffLines" fill="none" stroke="#000000" stroke-width="2.75" stroke-linejoin="bevel" points="247.099,1581.59 2764.63,1581.59"/>
<polyline class="StaffLines" fill="none" stroke="#000000" stroke-width="2.75" stroke-linejoin="bevel" points="247.099,1606.6 2764.63,1606.6"/>
<polyline class="StaffLines" fill="none" stroke="#000000" stroke-width="2.75" stroke-linejoin="bevel" points="247.099,1631.6 2764.63,1631.6"/>
<path class="Text" d="M242.312,213.137 L240.092,213.137 L237.692,216.737 C234.812,214.037 231.032,212.597 226.772,212.597 C218.852,212.597 213.632,217.577 213.632,225.137 C213.632,231.677 216.872,234.917 225.692,237.197 L231.392,238.637 C235.832,239.777 236.252,239.897 237.512,240.857 C239.312,242.237 240.272,244.217 240.272,246.557 C240.272,248.957 239.372,250.937 237.572,252.617 C235.592,254.297 233.612,254.957 230.312,254.957 C225.872,254.957 222.692,253.577 219.872,250.457 C217.352,247.697 216.092,244.817 215.192,240.197 L212.612,240.197 L212.852,257.297 L215.192,257.297 L217.892,253.217 C221.912,256.517 225.212,257.717 230.492,257.717 C239.312,257.717 244.952,252.557 244.952,244.517 C244.952,240.737 243.752,237.617 241.352,235.337 C239.732,233.777 237.392,232.757 232.592,231.557 L226.172,229.937 C220.832,228.557 218.312,226.217 218.312,222.557 C218.312,218.357 221.732,215.477 226.832,215.477 C231.032,215.477 234.452,217.277 236.852,220.697 C238.592,223.157 239.732,225.677 240.452,228.737 L243.032,228.737 L242.312,213.137 M271.162,247.997 C269.242,252.317 267.202,254.057 264.082,254.057 C259.282,254.057 256.282,249.677 256.282,242.657 C256.282,235.337 259.222,230.537 263.662,230.537 C265.462,230.537 267.022,231.377 267.022,232.337 C267.022,232.517 266.962,232.697 266.662,233.057 C265.702,234.197 265.462,234.797 265.462,235.817 C265.462,237.797 266.962,239.177 269.062,239.177 C271.222,239.177 272.722,237.497 272.722,235.097 C272.722,231.017 268.702,227.957 263.362,227.957 C255.562,227.957 249.982,234.317 249.982,243.317 C249.982,251.837 255.082,257.717 262.522,257.717 C267.862,257.717 270.922,255.257 273.502,248.897 L271.162,247.997 M301.75,237.497 C301.75,233.717 301.09,231.797 299.35,230.357 C297.37,228.737 294.43,227.957 290.59,227.957 C283.81,227.957 278.89,231.137 278.89,235.517 C278.89,237.737 280.27,239.177 282.37,239.177 C284.29,239.177 285.61,237.917 285.61,236.117 C285.61,235.337 285.31,234.497 284.71,233.657 C284.35,233.237 284.29,233.117 284.29,232.817 C284.29,231.617 286.69,230.537 289.57,230.537 C291.49,230.537 293.59,231.137 294.55,232.037 C295.69,232.997 296.11,234.437 296.11,237.137 L296.11,239.477 C289.87,240.557 287.89,241.037 284.95,242.177 C279.73,244.097 277.27,246.857 277.27,250.697 C277.27,255.017 280.63,257.717 285.97,257.717 C290.11,257.717 293.83,256.037 296.41,252.977 C297.37,256.037 298.87,257.237 301.69,257.237 C304.39,257.237 307.21,255.497 307.21,253.757 C307.21,253.337 306.97,253.037 306.61,253.037 C306.37,253.037 306.13,253.097 305.71,253.277 C304.87,253.637 304.51,253.697 304.03,253.697 C302.35,253.697 301.75,252.617 301.75,249.557 L301.75,237.497 M296.11,244.817 C296.11,248.417 295.93,249.257 294.91,250.817 C293.41,253.037 290.71,254.537 288.07,254.537 C285.31,254.537 283.33,252.557 283.33,249.857 C283.33,247.337 284.59,245.537 287.23,244.277 C289.09,243.437 291.43,242.837 296.11,242.057 L296.11,244.817 M320.229,212.597 L309.129,213.257 L309.129,215.837 L312.069,215.837 C314.289,215.897 314.589,216.257 314.589,218.837 L314.589,249.437 L314.589,252.257 C314.529,253.157 314.469,253.517 314.229,253.817 C313.809,254.357 312.669,254.597 310.089,254.657 L309.669,254.657 L309.669,256.817 L325.209,256.817 L325.209,254.657 L324.789,254.657 C320.769,254.537 320.229,254.237 320.229,252.077 L320.229,249.437 L320.229,212.597 M354.78,243.317 C354.84,234.317 349.74,227.957 342.42,227.957 C334.74,227.957 328.98,234.617 328.98,243.617 C328.98,252.077 334.44,257.717 342.54,257.717 C348.3,257.717 352.32,254.897 354.78,249.197 L352.68,248.057 C350.22,252.677 347.7,254.477 343.68,254.477 C340.62,254.477 338.4,253.217 336.84,250.517 C335.76,248.717 335.28,246.617 335.34,243.317 L354.78,243.317 M335.4,240.737 C335.4,238.877 335.64,237.557 336.24,235.877 C337.5,232.277 339.42,230.537 342.36,230.537 C345.96,230.537 348.36,233.717 348.36,238.577 C348.36,240.257 347.82,240.737 345.9,240.737 L335.4,240.737 M366.601,250.157 C364.501,250.157 362.821,251.837 362.821,253.877 C362.821,255.977 364.501,257.657 366.541,257.657 C368.641,257.657 370.321,255.977 370.321,253.877 C370.321,251.837 368.641,250.157 366.601,250.157 M366.601,228.437 C364.501,228.437 362.821,230.117 362.821,232.217 C362.821,234.257 364.501,235.937 366.541,235.937 C368.641,235.937 370.321,234.257 370.321,232.157 C370.321,230.117 368.641,228.437 366.601,228.437 M430.005,213.077 L427.725,213.077 L425.385,216.677 C421.485,213.617 418.845,212.597 414.465,212.597 C409.725,212.597 406.005,213.917 402.225,216.977 C396.285,221.777 393.525,227.837 393.525,235.937 C393.525,242.057 395.265,247.157 398.805,251.057 C402.525,255.257 408.045,257.717 413.805,257.717 C418.845,257.717 422.385,256.157 426.285,252.257 L428.505,257.657 L431.025,257.657 L431.025,244.457 C431.025,241.397 431.025,241.277 431.385,240.737 C431.925,240.077 433.005,239.897 436.425,239.897 L437.325,239.897 L437.325,237.077 L418.245,237.077 L418.245,239.897 L419.385,239.897 C424.425,239.897 424.845,240.197 424.845,243.557 C424.845,246.137 424.425,248.477 423.645,249.917 C422.145,252.857 418.305,254.897 414.405,254.897 C410.505,254.897 406.665,252.917 404.625,249.917 C402.405,246.557 401.445,242.357 401.445,235.937 C401.445,222.557 405.885,215.417 414.225,215.417 C421.065,215.417 425.805,220.337 428.265,229.937 L430.845,229.937 L430.005,213.077 M466.408,228.857 L455.728,229.517 L455.728,232.097 L458.188,232.097 C460.468,232.157 460.768,232.517 460.768,235.097 L460.768,249.437 L460.768,251.777 L460.768,252.257 C460.708,253.157 460.648,253.517 460.408,253.817 C459.988,254.357 458.848,254.597 456.268,254.657 L456.028,254.657 L456.028,256.817 L471.148,256.817 L471.148,254.657 L470.908,254.657 C466.948,254.537 466.408,254.237 466.408,252.017 L466.408,249.437 L466.408,240.917 C466.408,235.577 469.348,231.617 473.248,231.617 C476.668,231.617 478.408,234.077 478.408,238.937 L478.408,249.437 L478.408,252.317 C478.348,253.097 478.288,253.517 477.988,253.817 C477.628,254.357 476.428,254.597 473.848,254.657 L473.608,254.657 L473.608,256.817 L488.788,256.817 L488.788,254.657 L488.548,254.657 C484.588,254.537 484.048,254.237 484.048,252.077 L484.048,249.437 L484.048,241.457 C484.048,235.457 486.748,231.617 490.948,231.617 C494.368,231.617 496.048,234.197 496.048,239.597 L496.048,249.437 L496.048,252.257 C495.988,253.097 495.928,253.517 495.628,253.817 C495.268,254.357 494.068,254.597 491.488,254.657 L491.248,254.657 L491.248,256.817 L506.428,256.817 L506.428,254.657 L506.188,254.657 C502.228,254.537 501.688,254.237 501.688,252.017 L501.688,249.437 L501.688,238.397 C501.688,234.677 501.328,233.417 499.768,231.377 C498.028,229.157 495.568,227.957 492.688,227.957 C488.788,227.957 485.908,229.817 483.328,233.957 C482.308,230.357 479.068,227.957 475.048,227.957 C471.388,227.957 468.748,229.697 466.408,233.477 L466.408,228.857 M534.797,237.497 C534.797,233.717 534.137,231.797 532.397,230.357 C530.417,228.737 527.477,227.957 523.637,227.957 C516.857,227.957 511.937,231.137 511.937,235.517 C511.937,237.737 513.317,239.177 515.417,239.177 C517.337,239.177 518.657,237.917 518.657,236.117 C518.657,235.337 518.357,234.497 517.757,233.657 C517.397,233.237 517.337,233.117 517.337,232.817 C517.337,231.617 519.737,230.537 522.617,230.537 C524.537,230.537 526.637,231.137 527.597,232.037 C528.737,232.997 529.157,234.437 529.157,237.137 L529.157,239.477 C522.917,240.557 520.937,241.037 517.997,242.177 C512.777,244.097 510.317,246.857 510.317,250.697 C510.317,255.017 513.677,257.717 519.017,257.717 C523.157,257.717 526.877,256.037 529.457,252.977 C530.417,256.037 531.917,257.237 534.737,257.237 C537.437,257.237 540.257,255.497 540.257,253.757 C540.257,253.337 540.017,253.037 539.657,253.037 C539.417,253.037 539.177,253.097 538.757,253.277 C537.917,253.637 537.557,253.697 537.077,253.697 C535.397,253.697 534.797,252.617 534.797,249.557 L534.797,237.497 M529.157,244.817 C529.157,248.417 528.977,249.257 527.957,250.817 C526.457,253.037 523.757,254.537 521.117,254.537 C518.357,254.537 516.377,252.557 516.377,249.857 C516.377,247.337 517.637,245.537 520.277,244.277 C522.137,243.437 524.477,242.837 529.157,242.057 L529.157,244.817 M551.722,228.857 L540.022,229.517 L540.022,232.097 L543.502,232.097 C545.782,232.157 546.082,232.517 546.082,235.097 L546.082,255.437 C546.082,260.297 545.782,262.577 544.942,264.317 C544.342,265.517 542.962,266.417 541.642,266.417 C540.802,266.417 540.142,266.057 540.142,265.637 C540.142,265.397 540.202,265.277 540.442,264.677 C540.742,264.077 540.862,263.657 540.862,263.237 C540.862,261.737 539.422,260.417 537.742,260.417 C535.822,260.417 534.382,261.917 534.382,264.017 C534.382,266.957 537.082,268.937 541.102,268.937 C544.462,268.937 547.522,267.497 549.262,265.037 C551.122,262.397 551.722,259.337 551.722,252.557 L551.722,228.857 M548.902,213.917 C546.982,213.917 545.422,215.477 545.422,217.397 C545.422,219.317 546.982,220.877 548.842,220.877 C550.822,220.877 552.382,219.317 552.382,217.397 C552.382,215.477 550.822,213.917 548.902,213.917 M572.172,227.957 C564.792,227.957 559.092,234.497 559.092,242.897 C559.092,251.117 564.852,257.717 572.052,257.717 C579.252,257.717 585.012,251.117 585.012,242.837 C585.012,234.617 579.252,227.957 572.172,227.957 M572.172,230.537 C576.372,230.537 578.712,234.917 578.712,242.837 C578.712,250.817 576.372,255.137 572.052,255.137 C567.732,255.137 565.392,250.817 565.392,242.897 C565.392,234.737 567.672,230.537 572.172,230.537 M598.932,228.857 L588.312,229.517 L588.312,232.097 L590.772,232.097 C593.052,232.157 593.352,232.517 593.352,235.097 L593.352,249.437 L593.352,252.257 C593.292,253.157 593.232,253.517 592.992,253.817 C592.572,254.357 591.372,254.597 588.792,254.657 L588.552,254.657 L588.552,256.817 L604.572,256.817 L604.572,254.657 L603.492,254.657 C599.472,254.537 598.932,254.237 598.932,252.077 L598.932,249.437 L598.932,248.837 C598.992,238.757 602.592,231.077 607.272,230.837 C606.432,231.797 606.192,232.397 606.192,233.537 C606.192,235.457 607.572,236.837 609.492,236.837 C611.712,236.837 613.152,235.217 613.152,232.817 C613.152,229.877 611.112,227.957 607.932,227.957 C604.152,227.957 600.912,230.957 598.932,236.297 L598.932,228.857 "/>
<polyline class="BarLine" fill="none" stroke="#000000" stroke-width="4.50" stroke-linejoin="bevel" points="249.349,917.677 249.349,1020.43"/>
<polyline class="BarLine" fill="none" stroke="#000000" stroke-width="4.50" stroke-linejoin="bevel" points="1019.91,917.677 1019.91,1020.43"/>
<polyline class="BarLine" fill="none" stroke="#000000" stroke-width="4.50" stroke-linejoin="bevel" points="1591.19,917.677 1591.19,1020.43"/>
<polyline class="BarLine" fill="none" stroke="#000000" stroke-width="4.50" stroke-linejoin="bevel" points="2150.59,917.677 2150.59,1020.43"/>
<polyline class="BarLine" fill="none" stroke="#000000" stroke-width="4.50" stroke-linejoin="bevel" points="2762.38,917.677 2762.38,1020.43"/>
<polyline class="BarLine" fill="none" stroke="#000000" stroke-width="4.50" stroke-linejoin="bevel" points="249.349,1530.22 249.349,1632.97"/>
<polyline class="BarLine" fill="none" stroke="#000000" stroke-width="4.50" stroke-linejoin="bevel" points="954.511,1530.22 954.511,1632.97"/>
<polyline class="BarLine" fill="none" stroke="#000000" stroke-width="4.50" stroke-linejoin="bevel" points="1634.31,1530.22 1634.31,1632.97"/>
<polyline class="BarLine" fill="none" stroke="#000000" stroke-width="4.50" stroke-linejoin="bevel" points="2215.82,1530.22 2215.82,1632.97"/>
<polyline class="BarLine" fill="none" stroke="#000000" stroke-width="4.50" stroke-linejoin="bevel" points="2734.88,1530.22 2734.88,1632.97"/>
<polyline class="BarLine" fill="none" stroke="#000000" stroke-width="13.75" stroke-linejoin="bevel" points="2757.76,1530.22 2757.76,1632.97"/>
<polyline class="BarLine" fill="none" stroke="#000000" stroke-width="4.50" stroke-linejoin="bevel" points="249.349,655.161 249.349,919.053"/>
<polyline class="BarLine" fill="none" stroke="#000000" stroke-width="4.50" stroke-linejoin="bevel" points="1019.91,655.161 1019.91,919.053"/>
<polyline class="BarLine" fill="none" stroke="#000000" stroke-width="4.50" stroke-linejoin="bevel" points="1591.19,655.161 1591.19,919.053"/>
<polyline class="BarLine" fill="none" stroke="#000000" stroke-width="4.50" stroke-linejoin="bevel" points="2150.59,655.161 2150.59,919.053"/>
<polyline class="BarLine" fill="none" stroke="#000000" stroke-width="4.50" stroke-linejoin="bevel" points="2762.38,655.161 2762.38,919.053"/>
<polyline class="BarLine" fill="none" stroke="#000000" stroke-width="4.50" stroke-linejoin="bevel" points="249.349,1267.7 249.349,1531.59"/>
<polyline class="BarLine" fill="none" stroke="#000000" stroke-width="4.50" stroke-linejoin="bevel" points="954.511,1267.7 954.511,1531.59"/>
<polyline class="BarLine" fill="none" stroke="#000000" stroke-width="4.50" stroke-linejoin="bevel" points="1634.31,1267.7 1634.31,1531.59"/>
<polyline class="BarLine" fill="none" stroke="#000000" stroke-width="4.50" stroke-linejoin="bevel" points="2215.82,1267.7 2215.82,1531.59"/>
<polyline class="BarLine" fill="none" stroke="#000000" stroke-width="4.50" stroke-linejoin="bevel" points="2734.88,1267.7 2734.88,1531.59"/>
<polyline class="BarLine" fill="none" stroke="#000000" stroke-width="13.75" stroke-linejoin="bevel" points="2757.76,1267.7 2757.76,1531.59"/>
<path class="Accidental" d="M1314.45,933.454 C1315.05,933.354 1315.55,932.654 1315.55,932.054 L1315.55,926.154 C1315.55,925.354 1314.95,924.754 1314.15,924.754 L1313.95,924.754 L1310.65,925.454 L1310.65,910.554 L1307.85,910.554 L1307.85,926.054 L1298.95,927.854 L1298.95,913.754 L1296.15,913.754 L1296.15,928.454 L1292.25,929.254 C1291.65,929.354 1291.15,930.054 1291.15,930.654 L1291.15,930.854 L1291.15,936.654 L1291.15,936.454 C1291.15,937.254 1291.75,937.854 1292.55,937.854 L1292.85,937.854 L1296.15,937.154 L1296.15,953.654 L1292.25,954.454 C1291.65,954.554 1291.15,955.254 1291.15,955.854 L1291.15,961.654 C1291.15,962.454 1291.75,963.054 1292.55,963.054 L1292.85,963.054 L1296.15,962.354 L1296.15,977.254 L1298.95,977.254 L1298.95,961.754 L1307.85,959.954 L1307.85,974.054 L1310.65,974.054 L1310.65,959.354 L1314.45,958.654 C1315.05,958.554 1315.55,957.854 1315.55,957.254 L1315.55,951.354 C1315.55,950.554 1314.95,949.954 1314.15,949.954 L1313.95,949.954 L1310.65,950.654 L1310.65,934.154 L1314.45,933.454 M1298.95,953.154 L1298.95,936.554 L1307.85,934.754 L1307.85,951.254 L1298.95,953.154 "/>
<path class="Accidental" d="M2398.32,995.958 C2398.92,995.858 2399.42,995.158 2399.42,994.558 L2399.42,988.658 C2399.42,987.858 2398.82,987.258 2398.02,987.258 L2397.82,987.258 L2394.52,987.958 L2394.52,973.058 L2391.72,973.058 L2391.72,988.558 L2382.82,990.358 L2382.82,976.258 L2380.02,976.258 L2380.02,990.958 L2376.12,991.758 C2375.52,991.858 2375.02,992.558 2375.02,993.158 L2375.02,993.358 L2375.02,999.158 L2375.02,998.958 C2375.02,999.758 2375.62,1000.36 2376.42,1000.36 L2376.72,1000.36 L2380.02,999.658 L2380.02,1016.16 L2376.12,1016.96 C2375.52,1017.06 2375.02,1017.76 2375.02,1018.36 L2375.02,1024.16 C2375.02,1024.96 2375.62,1025.56 2376.42,1025.56 L2376.72,1025.56 L2380.02,1024.86 L2380.02,1039.76 L2382.82,1039.76 L2382.82,1024.26 L2391.72,1022.46 L2391.72,1036.56 L2394.52,1036.56 L2394.52,1021.86 L2398.32,1021.16 C2398.92,1021.06 2399.42,1020.36 2399.42,1019.76 L2399.42,1013.86 C2399.42,1013.06 2398.82,1012.46 2398.02,1012.46 L2397.82,1012.46 L2394.52,1013.16 L2394.52,996.658 L2398.32,995.958 M2382.82,1015.66 L2382.82,999.058 L2391.72,997.258 L2391.72,1013.76 L2382.82,1015.66 "/>
<path class="Accidental" d="M421.4,1608.5 C422,1608.4 422.5,1607.7 422.5,1607.1 L422.5,1601.2 C422.5,1600.4 421.9,1599.8 421.1,1599.8 L420.9,1599.8 L417.6,1600.5 L417.6,1585.6 L414.8,1585.6 L414.8,1601.1 L405.9,1602.9 L405.9,1588.8 L403.1,1588.8 L403.1,1603.5 L399.2,1604.3 C398.6,1604.4 398.1,1605.1 398.1,1605.7 L398.1,1605.9 L398.1,1611.7 L398.1,1611.5 C398.1,1612.3 398.7,1612.9 399.5,1612.9 L399.8,1612.9 L403.1,1612.2 L403.1,1628.7 L399.2,1629.5 C398.6,1629.6 398.1,1630.3 398.1,1630.9 L398.1,1636.7 C398.1,1637.5 398.7,1638.1 399.5,1638.1 L399.8,1638.1 L403.1,1637.4 L403.1,1652.3 L405.9,1652.3 L405.9,1636.8 L414.8,1635 L414.8,1649.1 L417.6,1649.1 L417.6,1634.4 L421.4,1633.7 C422,1633.6 422.5,1632.9 422.5,1632.3 L422.5,1626.4 C422.5,1625.6 421.9,1625 421.1,1625 L420.9,1625 L417.6,1625.7 L417.6,1609.2 L421.4,1608.5 M405.9,1628.2 L405.9,1611.6 L414.8,1609.8 L414.8,1626.3 L405.9,1628.2 "/>
<path class="Accidental" d="M1485.61,1545.99 C1486.21,1545.89 1486.71,1545.19 1486.71,1544.59 L1486.71,1538.69 C1486.71,1537.89 1486.11,1537.29 1485.31,1537.29 L1485.11,1537.29 L1481.81,1537.99 L1481.81,1523.09 L1479.01,1523.09 L1479.01,1538.59 L1470.11,1540.39 L1470.11,1526.29 L1467.31,1526.29 L1467.31,1540.99 L1463.41,1541.79 C1462.81,1541.89 1462.31,1542.59 1462.31,1543.19 L1462.31,1543.39 L1462.31,1549.19 L1462.31,1548.99 C1462.31,1549.79 1462.91,1550.39 1463.71,1550.39 L1464.01,1550.39 L1467.31,1549.69 L1467.31,1566.19 L1463.41,1566.99 C1462.81,1567.09 1462.31,1567.79 1462.31,1568.39 L1462.31,1574.19 C1462.31,1574.99 1462.91,1575.59 1463.71,1575.59 L1464.01,1575.59 L1467.31,1574.89 L1467.31,1589.79 L1470.11,1589.79 L1470.11,1574.29 L1479.01,1572.49 L1479.01,1586.59 L1481.81,1586.59 L1481.81,1571.89 L1485.61,1571.19 C1486.21,1571.09 1486.71,1570.39 1486.71,1569.79 L1486.71,1563.89 C1486.71,1563.09 1486.11,1562.49 1485.31,1562.49 L1485.11,1562.49 L1481.81,1563.19 L1481.81,1546.69 L1485.61,1545.99 M1470.11,1565.69 L1470.11,1549.09 L1479.01,1547.29 L1479.01,1563.79 L1470.11,1565.69 "/>
<path class="Accidental" d="M1314.45,733.442 C1315.05,733.342 1315.55,732.642 1315.55,732.042 L1315.55,726.142 C1315.55,725.342 1314.95,724.742 1314.15,724.742 L1313.95,724.742 L1310.65,725.442 L1310.65,710.542 L1307.85,710.542 L1307.85,726.042 L1298.95,727.842 L1298.95,713.742 L1296.15,713.742 L1296.15,728.442 L1292.25,729.242 C1291.65,729.342 1291.15,730.042 1291.15,730.642 L1291.15,730.842 L1291.15,736.642 L1291.15,736.442 C1291.15,737.242 1291.75,737.842 1292.55,737.842 L1292.85,737.842 L1296.15,737.142 L1296.15,753.642 L1292.25,754.442 C1291.65,754.542 1291.15,755.242 1291.15,755.842 L1291.15,761.642 C1291.15,762.442 1291.75,763.042 1292.55,763.042 L1292.85,763.042 L1296.15,762.342 L1296.15,777.242 L1298.95,777.242 L1298.95,761.742 L1307.85,759.942 L1307.85,774.042 L1310.65,774.042 L1310.65,759.342 L1314.45,758.642 C1315.05,758.542 1315.55,757.842 1315.55,757.242 L1315.55,751.342 C1315.55,750.542 1314.95,749.942 1314.15,749.942 L1313.95,749.942 L1310.65,750.642 L1310.65,734.142 L1314.45,733.442 M1298.95,753.142 L1298.95,736.542 L1307.85,734.742 L1307.85,751.242 L1298.95,753.142 "/>
<path class="Accidental" d="M2398.32,645.936 C2398.92,645.836 2399.42,645.136 2399.42,644.536 L2399.42,638.636 C2399.42,637.836 2398.82,637.236 2398.02,637.236 L2397.82,637.236 L2394.52,637.936 L2394.52,623.036 L2391.72,623.036 L2391.72,638.536 L2382.82,640.336 L2382.82,626.236 L2380.02,626.236 L2380.02,640.936 L2376.12,641.736 C2375.52,641.836 2375.02,642.536 2375.02,643.136 L2375.02,643.336 L2375.02,649.136 L2375.02,648.936 C2375.02,649.736 2375.62,650.336 2376.42,650.336 L2376.72,650.336 L2380.02,649.636 L2380.02,666.136 L2376.12,666.936 C2375.52,667.036 2375.02,667.736 2375.02,668.336 L2375.02,674.136 C2375.02,674.936 2375.62,675.536 2376.42,675.536 L2376.72,675.536 L2380.02,674.836 L2380.02,689.736 L2382.82,689.736 L2382.82,674.236 L2391.72,672.436 L2391.72,686.536 L2394.52,686.536 L2394.52,671.836 L2398.32,671.136 C2398.92,671.036 2399.42,670.336 2399.42,669.736 L2399.42,663.836 C2399.42,663.036 2398.82,662.436 2398.02,662.436 L2397.82,662.436 L2394.52,663.136 L2394.52,646.636 L2398.32,645.936 M2382.82,665.636 L2382.82,649.036 L2391.72,647.236 L2391.72,663.736 L2382.82,665.636 "/>
<path class="Accidental" d="M421.4,1258.47 C422,1258.37 422.5,1257.67 422.5,1257.07 L422.5,1251.17 C422.5,1250.37 421.9,1249.77 421.1,1249.77 L420.9,1249.77 L417.6,1250.47 L417.6,1235.57 L414.8,1235.57 L414.8,1251.07 L405.9,1252.87 L405.9,1238.77 L403.1,1238.77 L403.1,1253.47 L399.2,1254.27 C398.6,1254.37 398.1,1255.07 398.1,1255.67 L398.1,1255.87 L398.1,1261.67 L398.1,1261.47 C398.1,1262.27 398.7,1262.87 399.5,1262.87 L399.8,1262.87 L403.1,1262.17 L403.1,1278.67 L399.2,1279.47 C398.6,1279.57 398.1,1280.27 398.1,1280.87 L398.1,1286.67 C398.1,1287.47 398.7,1288.07 399.5,1288.07 L399.8,1288.07 L403.1,1287.37 L403.1,1302.27 L405.9,1302.27 L405.9,1286.77 L414.8,1284.97 L414.8,1299.07 L417.6,1299.07 L417.6,1284.37 L421.4,1283.67 C422,1283.57 422.5,1282.87 422.5,1282.27 L422.5,1276.37 C422.5,1275.57 421.9,1274.97 421.1,1274.97 L420.9,1274.97 L417.6,1275.67 L417.6,1259.17 L421.4,1258.47 M405.9,1278.17 L405.9,1261.57 L414.8,1259.77 L414.8,1276.27 L405.9,1278.17 "/>
<path class="Accidental" d="M1485.61,1345.98 C1486.21,1345.88 1486.71,1345.18 1486.71,1344.58 L1486.71,1338.68 C1486.71,1337.88 1486.11,1337.28 1485.31,1337.28 L1485.11,1337.28 L1481.81,1337.98 L1481.81,1323.08 L1479.01,1323.08 L1479.01,1338.58 L1470.11,1340.38 L1470.11,1326.28 L1467.31,1326.28 L1467.31,1340.98 L1463.41,1341.78 C1462.81,1341.88 1462.31,1342.58 1462.31,1343.18 L1462.31,1343.38 L1462.31,1349.18 L1462.31,1348.98 C1462.31,1349.78 1462.91,1350.38 1463.71,1350.38 L1464.01,1350.38 L1467.31,1349.68 L1467.31,1366.18 L1463.41,1366.98 C1462.81,1367.08 1462.31,1367.78 1462.31,1368.38 L1462.31,1374.18 C1462.31,1374.98 1462.91,1375.58 1463.71,1375.58 L1464.01,1375.58 L1467.31,1374.88 L1467.31,1389.78 L1470.11,1389.78 L1470.11,1374.28 L1479.01,1372.48 L1479.01,1386.58 L1481.81,1386.58 L1481.81,1371.88 L1485.61,1371.18 C1486.21,1371.08 1486.71,1370.38 1486.71,1369.78 L1486.71,1363.88 C1486.71,1363.08 1486.11,1362.48 1485.31,1362.48 L1485.11,1362.48 L1481.81,1363.18 L1481.81,1346.68 L1485.61,1345.98 M1470.11,1365.68 L1470.11,1349.08 L1479.01,1347.28 L1479.01,1363.78 L1470.11,1365.68 "/>
<polyline class="LedgerLine" fill="none" stroke="#000000" stroke-width="4.00" stroke-linejoin="bevel" points="1878.39,894.051 1928.39,894.051"/>
<polyline class="LedgerLine" fill="none" stroke="#000000" stroke-width="4.00" stroke-linejoin="bevel" points="2008.99,894.051 2058.99,894.051"/>
<polyline class="LedgerLine" fill="none" stroke="#000000" stroke-width="4.00" stroke-linejoin="bevel" points="812.633,1656.6 862.628,1656.6"/>
<polyline class="LedgerLine" fill="none" stroke="#000000" stroke-width="4.00" stroke-linejoin="bevel" points="455.002,806.545 504.998,806.545"/>
<polyline class="LedgerLine" fill="none" stroke="#000000" stroke-width="4.00" stroke-linejoin="bevel" points="455.002,781.544 504.998,781.544"/>
<polyline class="LedgerLine" fill="none" stroke="#000000" stroke-width="4.00" stroke-linejoin="bevel" points="593.478,806.545 643.474,806.545"/>
<polyline class="LedgerLine" fill="none" stroke="#000000" stroke-width="4.00" stroke-linejoin="bevel" points="593.478,781.544 643.474,781.544"/>
<polyline class="LedgerLine" fill="none" stroke="#000000" stroke-width="4.00" stroke-linejoin="bevel" points="731.954,781.544 781.95,781.544"/>
<polyline class="LedgerLine" fill="none" stroke="#000000" stroke-width="4.00" stroke-linejoin="bevel" points="870.43,781.544 920.425,781.544"/>
<polyline class="LedgerLine" fill="none" stroke="#000000" stroke-width="4.00" stroke-linejoin="bevel" points="1932.57,1394.08 1982.56,1394.08"/>
<polyline class="LedgerLine" fill="none" stroke="#000000" stroke-width="4.00" stroke-linejoin="bevel" points="2068.69,1394.08 2118.69,1394.08"/>
<polyline class="LedgerLine" fill="none" stroke="#000000" stroke-width="4.00" stroke-linejoin="bevel" points="2250.57,1419.08 2300.57,1419.08"/>
<polyline class="LedgerLine" fill="none" stroke="#000000" stroke-width="4.00" stroke-linejoin="bevel" points="2250.57,1394.08 2300.57,1394.08"/>
<polyline class="LedgerLine" fill="none" stroke="#000000" stroke-width="4.00" stroke-linejoin="bevel" points="2410.96,1419.08 2460.96,1419.08"/>
<polyline class="LedgerLine" fill="none" stroke="#000000" stroke-width="4.00" stroke-linejoin="bevel" points="2410.96,1394.08 2460.96,1394.08"/>
<polyline class="Stem" fill="none" stroke="#000000" stroke-width="2.75" stroke-linejoin="bevel" points="494.872,1015.7 494.872,931.553"/>
<polyline class="Stem" fill="none" stroke="#000000" stroke-width="2.75" stroke-linejoin="bevel" points="633.348,1003.2 633.348,919.053"/>
<polyline class="Stem" fill="none" stroke="#000000" stroke-width="2.75" stroke-linejoin="bevel" points="771.824,990.697 771.824,909.677"/>
<polyline class="Stem" fill="none" stroke="#000000" stroke-width="2.75" stroke-linejoin="bevel" points="910.3,978.196 910.3,900.301"/>
<polyline class="Stem" fill="none" stroke="#000000" stroke-width="2.75" stroke-linejoin="bevel" points="1056.03,972.576 1056.03,1047.19"/>
<polyline class="Stem" fill="none" stroke="#000000" stroke-width="2.75" stroke-linejoin="bevel" points="1189.6,960.075 1189.6,1037.81"/>
<polyline class="Stem" fill="none" stroke="#000000" stroke-width="2.75" stroke-linejoin="bevel" points="1323.17,947.574 1323.17,1028.43"/>
<polyline class="Stem" fill="none" stroke="#000000" stroke-width="2.75" stroke-linejoin="bevel" points="1456.74,935.074 1456.74,1019.06"/>
<polyline class="Stem" fill="none" stroke="#000000" stroke-width="2.75" stroke-linejoin="bevel" points="1627.32,922.573 1627.32,1006.56"/>
<polyline class="Stem" fill="none" stroke="#000000" stroke-width="2.75" stroke-linejoin="bevel" points="1757.92,910.072 1757.92,994.057"/>
<polyline class="Stem" fill="none" stroke="#000000" stroke-width="2.75" stroke-linejoin="bevel" points="1888.52,897.571 1888.52,981.556"/>
<polyline class="Stem" fill="none" stroke="#000000" stroke-width="2.75" stroke-linejoin="bevel" points="2019.12,885.07 2019.12,969.056"/>
<polyline class="Stem" fill="none" stroke="#000000" stroke-width="2.75" stroke-linejoin="bevel" points="2300.46,1015.7 2300.46,931.553"/>
<polyline class="Stem" fill="none" stroke="#000000" stroke-width="2.75" stroke-linejoin="bevel" points="2436.79,1003.2 2436.79,919.053"/>
<polyline class="Stem" fill="none" stroke="#000000" stroke-width="2.75" stroke-linejoin="bevel" points="2573.12,990.617 2573.12,909.677"/>
<polyline class="Stem" fill="none" stroke="#000000" stroke-width="2.75" stroke-linejoin="bevel" points="459.87,1615.74 459.87,1531.59"/>
<polyline class="Stem" fill="none" stroke="#000000" stroke-width="2.75" stroke-linejoin="bevel" points="590.747,1628.24 590.747,1544.09"/>
<polyline class="Stem" fill="none" stroke="#000000" stroke-width="2.75" stroke-linejoin="bevel" points="721.625,1640.74 721.625,1556.59"/>
<polyline class="Stem" fill="none" stroke="#000000" stroke-width="2.75" stroke-linejoin="bevel" points="852.503,1653.24 852.503,1569.09"/>
<polyline class="Stem" fill="none" stroke="#000000" stroke-width="2.75" stroke-linejoin="bevel" points="1077.04,1522.61 1077.04,1606.6"/>
<polyline class="Stem" fill="none" stroke="#000000" stroke-width="2.75" stroke-linejoin="bevel" points="1216.14,1535.11 1216.14,1619.1"/>
<polyline class="Stem" fill="none" stroke="#000000" stroke-width="2.75" stroke-linejoin="bevel" points="1355.24,1547.61 1355.24,1631.6"/>
<polyline class="Stem" fill="none" stroke="#000000" stroke-width="2.75" stroke-linejoin="bevel" points="1494.34,1560.11 1494.34,1640.97"/>
<polyline class="Stem" fill="none" stroke="#000000" stroke-width="2.75" stroke-linejoin="bevel" points="1670.44,1572.61 1670.44,1650.35"/>
<polyline class="Stem" fill="none" stroke="#000000" stroke-width="2.75" stroke-linejoin="bevel" points="1806.56,1585.11 1806.56,1659.72"/>
<polyline class="Stem" fill="none" stroke="#000000" stroke-width="2.75" stroke-linejoin="bevel" points="1972.44,1590.73 1972.44,1512.84"/>
<polyline class="Stem" fill="none" stroke="#000000" stroke-width="2.75" stroke-linejoin="bevel" points="2108.56,1603.24 2108.56,1522.22"/>
<polyline class="Stem" fill="none" stroke="#000000" stroke-width="2.75" stroke-linejoin="bevel" points="2290.44,1615.74 2290.44,1531.59"/>
<polyline class="Stem" fill="none" stroke="#000000" stroke-width="2.75" stroke-linejoin="bevel" points="2450.83,1628.16 2450.83,1544.09"/>
<polyline class="Stem" fill="none" stroke="#000000" stroke-width="2.75" stroke-linejoin="bevel" points="494.872,815.686 494.872,706.539"/>
<polyline class="Stem" fill="none" stroke="#000000" stroke-width="2.75" stroke-linejoin="bevel" points="633.348,803.185 633.348,706.539"/>
<polyline class="Stem" fill="none" stroke="#000000" stroke-width="2.75" stroke-linejoin="bevel" points="771.824,790.684 771.824,706.539"/>
<polyline class="Stem" fill="none" stroke="#000000" stroke-width="2.75" stroke-linejoin="bevel" points="910.3,778.184 910.3,694.038"/>
<polyline class="Stem" fill="none" stroke="#000000" stroke-width="2.75" stroke-linejoin="bevel" points="1085.78,765.683 1085.78,681.538"/>
<polyline class="Stem" fill="none" stroke="#000000" stroke-width="2.75" stroke-linejoin="bevel" points="1219.35,753.182 1219.35,669.037"/>
<polyline class="Stem" fill="none" stroke="#000000" stroke-width="2.75" stroke-linejoin="bevel" points="1352.92,740.681 1352.92,656.536"/>
<polyline class="Stem" fill="none" stroke="#000000" stroke-width="2.75" stroke-linejoin="bevel" points="1486.49,728.181 1486.49,647.16"/>
<polyline class="Stem" fill="none" stroke="#000000" stroke-width="2.75" stroke-linejoin="bevel" points="1657.06,715.68 1657.06,637.785"/>
<polyline class="Stem" fill="none" stroke="#000000" stroke-width="2.75" stroke-linejoin="bevel" points="1757.92,710.059 1757.92,784.669"/>
<polyline class="Stem" fill="none" stroke="#000000" stroke-width="2.75" stroke-linejoin="bevel" points="1888.52,697.559 1888.52,775.293"/>
<polyline class="Stem" fill="none" stroke="#000000" stroke-width="2.75" stroke-linejoin="bevel" points="2019.12,685.058 2019.12,765.918"/>
<polyline class="Stem" fill="none" stroke="#000000" stroke-width="2.75" stroke-linejoin="bevel" points="2270.72,672.557 2270.72,756.542"/>
<polyline class="Stem" fill="none" stroke="#000000" stroke-width="2.75" stroke-linejoin="bevel" points="2407.05,660.056 2407.05,744.042"/>
<polyline class="Stem" fill="none" stroke="#000000" stroke-width="2.75" stroke-linejoin="bevel" points="2543.38,647.475 2543.38,731.541"/>
<polyline class="Stem" fill="none" stroke="#000000" stroke-width="2.75" stroke-linejoin="bevel" points="430.126,1272.59 430.126,1356.58"/>
<polyline class="Stem" fill="none" stroke="#000000" stroke-width="2.75" stroke-linejoin="bevel" points="561.003,1285.1 561.003,1369.08"/>
<polyline class="Stem" fill="none" stroke="#000000" stroke-width="2.75" stroke-linejoin="bevel" points="691.881,1297.6 691.881,1378.46"/>
<polyline class="Stem" fill="none" stroke="#000000" stroke-width="2.75" stroke-linejoin="bevel" points="822.759,1310.1 822.759,1387.83"/>
<polyline class="Stem" fill="none" stroke="#000000" stroke-width="2.75" stroke-linejoin="bevel" points="1077.04,1322.6 1077.04,1397.21"/>
<polyline class="Stem" fill="none" stroke="#000000" stroke-width="2.75" stroke-linejoin="bevel" points="1245.88,1328.22 1245.88,1250.32"/>
<polyline class="Stem" fill="none" stroke="#000000" stroke-width="2.75" stroke-linejoin="bevel" points="1384.98,1340.72 1384.98,1259.7"/>
<polyline class="Stem" fill="none" stroke="#000000" stroke-width="2.75" stroke-linejoin="bevel" points="1524.08,1353.22 1524.08,1269.07"/>
<polyline class="Stem" fill="none" stroke="#000000" stroke-width="2.75" stroke-linejoin="bevel" points="1700.18,1365.72 1700.18,1281.58"/>
<polyline class="Stem" fill="none" stroke="#000000" stroke-width="2.75" stroke-linejoin="bevel" points="1836.31,1378.22 1836.31,1294.08"/>
<polyline class="Stem" fill="none" stroke="#000000" stroke-width="2.75" stroke-linejoin="bevel" points="1972.44,1390.72 1972.44,1306.58"/>
<polyline class="Stem" fill="none" stroke="#000000" stroke-width="2.75" stroke-linejoin="bevel" points="2108.56,1403.22 2108.56,1319.08"/>
<polyline class="Stem" fill="none" stroke="#000000" stroke-width="2.75" stroke-linejoin="bevel" points="2290.44,1415.72 2290.44,1319.08"/>
<polyline class="Stem" fill="none" stroke="#000000" stroke-width="2.75" stroke-linejoin="bevel" points="2450.83,1428.14 2450.83,1319.08"/>
<path class="Note" d="M495.253,1010.86 C493.753,1008.16 490.853,1006.46 486.953,1006.06 C486.353,1005.96 485.853,1005.96 485.253,1005.96 C481.753,1005.96 477.953,1006.96 474.453,1008.86 C467.853,1012.46 463.753,1018.36 463.753,1023.46 C463.753,1024.86 463.953,1026.16 464.653,1027.36 C466.153,1030.06 469.153,1031.76 473.053,1032.16 C473.653,1032.26 474.153,1032.26 474.753,1032.26 C478.253,1032.26 481.953,1031.26 485.453,1029.36 C492.053,1025.76 496.253,1019.96 496.253,1014.86 C496.253,1013.46 495.953,1012.06 495.253,1010.86"/>
<path class="Note" d="M633.729,998.358 C632.229,995.658 629.329,993.958 625.429,993.558 C624.829,993.458 624.329,993.458 623.729,993.458 C620.229,993.458 616.429,994.458 612.929,996.358 C606.329,999.958 602.229,1005.86 602.229,1010.96 C602.229,1012.36 602.429,1013.66 603.129,1014.86 C604.629,1017.56 607.629,1019.26 611.529,1019.66 C612.129,1019.76 612.629,1019.76 613.229,1019.76 C616.729,1019.76 620.429,1018.76 623.929,1016.86 C630.529,1013.26 634.729,1007.46 634.729,1002.36 C634.729,1000.96 634.429,999.558 633.729,998.358"/>
<path class="Note" d="M772.205,985.857 C770.705,983.157 767.805,981.457 763.905,981.057 C763.305,980.957 762.805,980.957 762.205,980.957 C758.705,980.957 754.905,981.957 751.405,983.857 C744.805,987.457 740.705,993.357 740.705,998.457 C740.705,999.857 740.905,1001.16 741.605,1002.36 C743.105,1005.06 746.105,1006.76 750.005,1007.16 C750.605,1007.26 751.105,1007.26 751.705,1007.26 C755.205,1007.26 758.905,1006.26 762.405,1004.36 C769.005,1000.76 773.205,994.957 773.205,989.857 C773.205,988.457 772.905,987.057 772.205,985.857"/>
<path class="Note" d="M910.681,973.356 C909.181,970.656 906.281,968.956 902.381,968.556 C901.781,968.456 901.281,968.456 900.681,968.456 C897.181,968.456 893.381,969.456 889.881,971.356 C883.281,974.956 879.181,980.856 879.181,985.956 C879.181,987.356 879.381,988.656 880.081,989.856 C881.581,992.556 884.581,994.256 888.481,994.656 C889.081,994.756 889.581,994.756 890.181,994.756 C893.681,994.756 897.381,993.756 900.881,991.856 C907.481,988.256 911.681,982.456 911.681,977.356 C911.681,975.956 911.381,974.556 910.681,973.356"/>
<path class="Note" d="M1086.16,960.856 C1084.66,958.156 1081.76,956.456 1077.86,956.056 C1077.26,955.956 1076.76,955.956 1076.16,955.956 C1072.66,955.956 1068.86,956.956 1065.36,958.856 C1058.76,962.456 1054.66,968.356 1054.66,973.456 C1054.66,974.856 1054.86,976.156 1055.56,977.356 C1057.06,980.056 1060.06,981.756 1063.96,982.156 C1064.56,982.256 1065.06,982.256 1065.66,982.256 C1069.16,982.256 1072.86,981.256 1076.36,979.356 C1082.96,975.756 1087.16,969.956 1087.16,964.856 C1087.16,963.456 1086.86,962.056 1086.16,960.856"/>
<path class="Note" d="M1219.73,948.355 C1218.23,945.655 1215.33,943.955 1211.43,943.555 C1210.83,943.455 1210.33,943.455 1209.73,943.455 C1206.23,943.455 1202.43,944.455 1198.93,946.355 C1192.33,949.955 1188.23,955.855 1188.23,960.955 C1188.23,962.355 1188.43,963.655 1189.13,964.855 C1190.63,967.555 1193.63,969.255 1197.53,969.655 C1198.13,969.755 1198.63,969.755 1199.23,969.755 C1202.73,969.755 1206.43,968.755 1209.93,966.855 C1216.53,963.255 1220.73,957.455 1220.73,952.355 C1220.73,950.955 1220.43,949.555 1219.73,948.355"/>
<path class="Note" d="M1353.3,935.854 C1351.8,933.154 1348.9,931.454 1345,931.054 C1344.4,930.954 1343.9,930.954 1343.3,930.954 C1339.8,930.954 1336,931.954 1332.5,933.854 C1325.9,937.454 1321.8,943.354 1321.8,948.454 C1321.8,949.854 1322,951.154 1322.7,952.354 C1324.2,955.054 1327.2,956.754 1331.1,957.154 C1331.7,957.254 1332.2,957.254 1332.8,957.254 C1336.3,957.254 1340,956.254 1343.5,954.354 C1350.1,950.754 1354.3,944.954 1354.3,939.854 C1354.3,938.454 1354,937.054 1353.3,935.854"/>
<path class="Note" d="M1486.87,923.353 C1485.37,920.653 1482.47,918.953 1478.57,918.553 C1477.97,918.453 1477.47,918.453 1476.87,918.453 C1473.37,918.453 1469.57,919.453 1466.07,921.353 C1459.47,924.953 1455.37,930.853 1455.37,935.953 C1455.37,937.353 1455.57,938.653 1456.27,939.853 C1457.77,942.553 1460.77,944.253 1464.67,944.653 C1465.27,944.753 1465.77,944.753 1466.37,944.753 C1469.87,944.753 1473.57,943.753 1477.07,941.853 C1483.67,938.253 1487.87,932.453 1487.87,927.353 C1487.87,925.953 1487.57,924.553 1486.87,923.353"/>
<path class="Note" d="M1657.44,910.853 C1655.94,908.153 1653.04,906.453 1649.14,906.053 C1648.54,905.953 1648.04,905.953 1647.44,905.953 C1643.94,905.953 1640.14,906.953 1636.64,908.853 C1630.04,912.453 1625.94,918.353 1625.94,923.453 C1625.94,924.853 1626.14,926.153 1626.84,927.353 C1628.34,930.053 1631.34,931.753 1635.24,932.153 C1635.84,932.253 1636.34,932.253 1636.94,932.253 C1640.44,932.253 1644.14,931.253 1647.64,929.353 C1654.24,925.753 1658.44,919.953 1658.44,914.853 C1658.44,913.453 1658.14,912.053 1657.44,910.853"/>
<path class="Note" d="M1788.04,898.352 C1786.54,895.652 1783.64,893.952 1779.74,893.552 C1779.14,893.452 1778.64,893.452 1778.04,893.452 C1774.54,893.452 1770.74,894.452 1767.24,896.352 C1760.64,899.952 1756.54,905.852 1756.54,910.952 C1756.54,912.352 1756.74,913.652 1757.44,914.852 C1758.94,917.552 1761.94,919.252 1765.84,919.652 C1766.44,919.752 1766.94,919.752 1767.54,919.752 C1771.04,919.752 1774.74,918.752 1778.24,916.852 C1784.84,913.252 1789.04,907.452 1789.04,902.352 C1789.04,900.952 1788.74,899.552 1788.04,898.352"/>
<path class="Note" d="M1918.64,885.851 C1917.14,883.151 1914.24,881.451 1910.34,881.051 C1909.74,880.951 1909.24,880.951 1908.64,880.951 C1905.14,880.951 1901.34,881.951 1897.84,883.851 C1891.24,887.451 1887.14,893.351 1887.14,898.451 C1887.14,899.851 1887.34,901.151 1888.04,902.351 C1889.54,905.051 1892.54,906.751 1896.44,907.151 C1897.04,907.251 1897.54,907.251 1898.14,907.251 C1901.64,907.251 1905.34,906.251 1908.84,904.351 C1915.44,900.751 1919.64,894.951 1919.64,889.851 C1919.64,888.451 1919.34,887.051 1918.64,885.851"/>
<path class="Note" d="M2049.24,873.35 C2047.74,870.65 2044.84,868.95 2040.94,868.55 C2040.34,868.45 2039.84,868.45 2039.24,868.45 C2035.74,868.45 2031.94,869.45 2028.44,871.35 C2021.84,874.95 2017.74,880.85 2017.74,885.95 C2017.74,887.35 2017.94,888.65 2018.64,889.85 C2020.14,892.55 2023.14,894.25 2027.04,894.65 C2027.64,894.75 2028.14,894.75 2028.74,894.75 C2032.24,894.75 2035.94,893.75 2039.44,891.85 C2046.04,888.25 2050.24,882.45 2050.24,877.35 C2050.24,875.95 2049.94,874.55 2049.24,873.35"/>
<path class="Note" d="M2300.84,1010.86 C2299.34,1008.16 2296.44,1006.46 2292.54,1006.06 C2291.94,1005.96 2291.44,1005.96 2290.84,1005.96 C2287.34,1005.96 2283.54,1006.96 2280.04,1008.86 C2273.44,1012.46 2269.34,1018.36 2269.34,1023.46 C2269.34,1024.86 2269.54,1026.16 2270.24,1027.36 C2271.74,1030.06 2274.74,1031.76 2278.64,1032.16 C2279.24,1032.26 2279.74,1032.26 2280.34,1032.26 C2283.84,1032.26 2287.54,1031.26 2291.04,1029.36 C2297.64,1025.76 2301.84,1019.96 2301.84,1014.86 C2301.84,1013.46 2301.54,1012.06 2300.84,1010.86"/>
<path class="Note" d="M2437.17,998.358 C2435.67,995.658 2432.77,993.958 2428.87,993.558 C2428.27,993.458 2427.77,993.458 2427.17,993.458 C2423.67,993.458 2419.87,994.458 2416.37,996.358 C2409.77,999.958 2405.67,1005.86 2405.67,1010.96 C2405.67,1012.36 2405.87,1013.66 2406.57,1014.86 C2408.07,1017.56 2411.07,1019.26 2414.97,1019.66 C2415.57,1019.76 2416.07,1019.76 2416.67,1019.76 C2420.17,1019.76 2423.87,1018.76 2427.37,1016.86 C2433.97,1013.26 2438.17,1007.46 2438.17,1002.36 C2438.17,1000.96 2437.87,999.558 2437.17,998.358"/>
<path class="Note" d="M2573.5,985.857 C2572,983.157 2569.1,981.457 2565.2,981.057 C2564.6,980.957 2564.1,980.957 2563.5,980.957 C2560,980.957 2556.2,981.957 2552.7,983.857 C2546.1,987.457 2542,993.257 2542,998.357 C2542,999.757 2542.4,1001.16 2543.1,1002.36 C2544.6,1005.16 2547.4,1006.76 2551.3,1007.16 C2551.9,1007.26 2552.4,1007.26 2553,1007.26 C2556.5,1007.26 2560.3,1006.26 2563.8,1004.36 C2570.4,1000.76 2574.5,994.857 2574.5,989.757 C2574.5,988.357 2574.2,987.057 2573.5,985.857 M2569.3,992.157 C2567.6,993.957 2564.4,996.257 2560.8,998.357 C2557.2,1000.46 2553.5,1002.16 2551.2,1002.86 C2550.7,1002.96 2550.1,1003.06 2549.6,1003.06 C2548.1,1003.06 2546.8,1002.36 2546.1,1001.26 C2545.8,1000.66 2545.6,1000.06 2545.6,999.457 C2545.6,998.357 2546.1,997.257 2547.2,996.057 C2548.9,994.257 2552.1,991.857 2555.7,989.757 C2559.3,987.657 2563,985.957 2565.4,985.357 L2565.6,985.357 C2566.2,985.157 2566.7,985.057 2567.2,985.057 C2568.6,985.057 2569.7,985.657 2570.4,986.957 C2570.7,987.557 2570.9,988.057 2570.9,988.657 C2570.9,989.957 2570.2,991.257 2569.3,992.157"/>
<path class="Note" d="M460.251,1610.9 C458.751,1608.2 455.851,1606.5 451.951,1606.1 C451.351,1606 450.851,1606 450.251,1606 C446.751,1606 442.951,1607 439.451,1608.9 C432.851,1612.5 428.751,1618.4 428.751,1623.5 C428.751,1624.9 428.951,1626.2 429.651,1627.4 C431.151,1630.1 434.151,1631.8 438.051,1632.2 C438.651,1632.3 439.151,1632.3 439.751,1632.3 C443.251,1632.3 446.951,1631.3 450.451,1629.4 C457.051,1625.8 461.251,1620 461.251,1614.9 C461.251,1613.5 460.951,1612.1 460.251,1610.9"/>
<path class="Note" d="M591.128,1623.4 C589.628,1620.7 586.728,1619 582.828,1618.6 C582.228,1618.5 581.728,1618.5 581.128,1618.5 C577.628,1618.5 573.828,1619.5 570.328,1621.4 C563.728,1625 559.628,1630.9 559.628,1636 C559.628,1637.4 559.828,1638.7 560.528,1639.9 C562.028,1642.6 565.028,1644.3 568.928,1644.7 C569.528,1644.8 570.028,1644.8 570.628,1644.8 C574.128,1644.8 577.828,1643.8 581.328,1641.9 C587.928,1638.3 592.128,1632.5 592.128,1627.4 C592.128,1626 591.828,1624.6 591.128,1623.4"/>
<path class="Note" d="M722.006,1635.9 C720.506,1633.2 717.606,1631.5 713.706,1631.1 C713.106,1631 712.606,1631 712.006,1631 C708.506,1631 704.706,1632 701.206,1633.9 C694.606,1637.5 690.506,1643.4 690.506,1648.5 C690.506,1649.9 690.706,1651.2 691.406,1652.4 C692.906,1655.1 695.906,1656.8 699.806,1657.2 C700.406,1657.3 700.906,1657.3 701.506,1657.3 C705.006,1657.3 708.706,1656.3 712.206,1654.4 C718.806,1650.8 723.006,1645 723.006,1639.9 C723.006,1638.5 722.706,1637.1 722.006,1635.9"/>
<path class="Note" d="M852.884,1648.4 C851.384,1645.7 848.484,1644 844.584,1643.6 C843.984,1643.5 843.484,1643.5 842.884,1643.5 C839.384,1643.5 835.584,1644.5 832.084,1646.4 C825.484,1650 821.384,1655.9 821.384,1661 C821.384,1662.4 821.584,1663.7 822.284,1664.9 C823.784,1667.6 826.784,1669.3 830.684,1669.7 C831.284,1669.8 831.784,1669.8 832.384,1669.8 C835.884,1669.8 839.584,1668.8 843.084,1666.9 C849.684,1663.3 853.884,1657.5 853.884,1652.4 C853.884,1651 853.584,1649.6 852.884,1648.4"/>
<path class="Note" d="M1107.17,1510.89 C1105.67,1508.19 1102.77,1506.49 1098.87,1506.09 C1098.27,1505.99 1097.77,1505.99 1097.17,1505.99 C1093.67,1505.99 1089.87,1506.99 1086.37,1508.89 C1079.77,1512.49 1075.67,1518.39 1075.67,1523.49 C1075.67,1524.89 1075.87,1526.19 1076.57,1527.39 C1078.07,1530.09 1081.07,1531.79 1084.97,1532.19 C1085.57,1532.29 1086.07,1532.29 1086.67,1532.29 C1090.17,1532.29 1093.87,1531.29 1097.37,1529.39 C1103.97,1525.79 1108.17,1519.99 1108.17,1514.89 C1108.17,1513.49 1107.87,1512.09 1107.17,1510.89"/>
<path class="Note" d="M1246.27,1523.39 C1244.77,1520.69 1241.87,1518.99 1237.97,1518.59 C1237.37,1518.49 1236.87,1518.49 1236.27,1518.49 C1232.77,1518.49 1228.97,1519.49 1225.47,1521.39 C1218.87,1524.99 1214.77,1530.89 1214.77,1535.99 C1214.77,1537.39 1214.97,1538.69 1215.67,1539.89 C1217.17,1542.59 1220.17,1544.29 1224.07,1544.69 C1224.67,1544.79 1225.17,1544.79 1225.77,1544.79 C1229.27,1544.79 1232.97,1543.79 1236.47,1541.89 C1243.07,1538.29 1247.27,1532.49 1247.27,1527.39 C1247.27,1525.99 1246.97,1524.59 1246.27,1523.39"/>
<path class="Note" d="M1385.36,1535.89 C1383.86,1533.19 1380.96,1531.49 1377.06,1531.09 C1376.46,1530.99 1375.96,1530.99 1375.36,1530.99 C1371.86,1530.99 1368.06,1531.99 1364.56,1533.89 C1357.96,1537.49 1353.86,1543.39 1353.86,1548.49 C1353.86,1549.89 1354.06,1551.19 1354.76,1552.39 C1356.26,1555.09 1359.26,1556.79 1363.16,1557.19 C1363.76,1557.29 1364.26,1557.29 1364.86,1557.29 C1368.36,1557.29 1372.06,1556.29 1375.56,1554.39 C1382.16,1550.79 1386.36,1544.99 1386.36,1539.89 C1386.36,1538.49 1386.06,1537.09 1385.36,1535.89"/>
<path class="Note" d="M1524.46,1548.39 C1522.96,1545.69 1520.06,1543.99 1516.16,1543.59 C1515.56,1543.49 1515.06,1543.49 1514.46,1543.49 C1510.96,1543.49 1507.16,1544.49 1503.66,1546.39 C1497.06,1549.99 1492.96,1555.89 1492.96,1560.99 C1492.96,1562.39 1493.16,1563.69 1493.86,1564.89 C1495.36,1567.59 1498.36,1569.29 1502.26,1569.69 C1502.86,1569.79 1503.36,1569.79 1503.96,1569.79 C1507.46,1569.79 1511.16,1568.79 1514.66,1566.89 C1521.26,1563.29 1525.46,1557.49 1525.46,1552.39 C1525.46,1550.99 1525.16,1549.59 1524.46,1548.39"/>
<path class="Note" d="M1700.56,1560.89 C1699.06,1558.19 1696.16,1556.49 1692.26,1556.09 C1691.66,1555.99 1691.16,1555.99 1690.56,1555.99 C1687.06,1555.99 1683.26,1556.99 1679.76,1558.89 C1673.16,1562.49 1669.06,1568.39 1669.06,1573.49 C1669.06,1574.89 1669.26,1576.19 1669.96,1577.39 C1671.46,1580.09 1674.46,1581.79 1678.36,1582.19 C1678.96,1582.29 1679.46,1582.29 1680.06,1582.29 C1683.56,1582.29 1687.26,1581.29 1690.76,1579.39 C1697.36,1575.79 1701.56,1569.99 1701.56,1564.89 C1701.56,1563.49 1701.26,1562.09 1700.56,1560.89"/>
<path class="Note" d="M1836.69,1573.39 C1835.19,1570.69 1832.29,1568.99 1828.39,1568.59 C1827.79,1568.49 1827.29,1568.49 1826.69,1568.49 C1823.19,1568.49 1819.39,1569.49 1815.89,1571.39 C1809.29,1574.99 1805.19,1580.89 1805.19,1585.99 C1805.19,1587.39 1805.39,1588.69 1806.09,1589.89 C1807.59,1592.59 1810.59,1594.29 1814.49,1594.69 C1815.09,1594.79 1815.59,1594.79 1816.19,1594.79 C1819.69,1594.79 1823.39,1593.79 1826.89,1591.89 C1833.49,1588.29 1837.69,1582.49 1837.69,1577.39 C1837.69,1575.99 1837.39,1574.59 1836.69,1573.39"/>
<path class="Note" d="M1972.82,1585.9 C1971.32,1583.2 1968.42,1581.5 1964.52,1581.1 C1963.92,1581 1963.42,1581 1962.82,1581 C1959.32,1581 1955.52,1582 1952.02,1583.9 C1945.42,1587.5 1941.32,1593.4 1941.32,1598.5 C1941.32,1599.9 1941.52,1601.2 1942.22,1602.4 C1943.72,1605.1 1946.72,1606.8 1950.62,1607.2 C1951.22,1607.3 1951.72,1607.3 1952.32,1607.3 C1955.82,1607.3 1959.52,1606.3 1963.02,1604.4 C1969.62,1600.8 1973.82,1595 1973.82,1589.9 C1973.82,1588.5 1973.52,1587.1 1972.82,1585.9"/>
<path class="Note" d="M2108.94,1598.4 C2107.44,1595.7 2104.54,1594 2100.64,1593.6 C2100.04,1593.5 2099.54,1593.5 2098.94,1593.5 C2095.44,1593.5 2091.64,1594.5 2088.14,1596.4 C2081.54,1600 2077.44,1605.9 2077.44,1611 C2077.44,1612.4 2077.64,1613.7 2078.34,1614.9 C2079.84,1617.6 2082.84,1619.3 2086.74,1619.7 C2087.34,1619.8 2087.84,1619.8 2088.44,1619.8 C2091.94,1619.8 2095.64,1618.8 2099.14,1616.9 C2105.74,1613.3 2109.94,1607.5 2109.94,1602.4 C2109.94,1601 2109.64,1599.6 2108.94,1598.4"/>
<path class="Note" d="M2290.83,1610.9 C2289.33,1608.2 2286.43,1606.5 2282.53,1606.1 C2281.93,1606 2281.43,1606 2280.83,1606 C2277.33,1606 2273.53,1607 2270.03,1608.9 C2263.43,1612.5 2259.33,1618.4 2259.33,1623.5 C2259.33,1624.9 2259.53,1626.2 2260.23,1627.4 C2261.73,1630.1 2264.73,1631.8 2268.63,1632.2 C2269.23,1632.3 2269.73,1632.3 2270.33,1632.3 C2273.83,1632.3 2277.53,1631.3 2281.03,1629.4 C2287.63,1625.8 2291.83,1620 2291.83,1614.9 C2291.83,1613.5 2291.53,1612.1 2290.83,1610.9"/>
<path class="Note" d="M2451.21,1623.4 C2449.71,1620.7 2446.81,1619 2442.91,1618.6 C2442.31,1618.5 2441.81,1618.5 2441.21,1618.5 C2437.71,1618.5 2433.91,1619.5 2430.41,1621.4 C2423.81,1625 2419.71,1630.8 2419.71,1635.9 C2419.71,1637.3 2420.11,1638.7 2420.81,1639.9 C2422.31,1642.7 2425.11,1644.3 2429.01,1644.7 C2429.61,1644.8 2430.11,1644.8 2430.71,1644.8 C2434.21,1644.8 2438.01,1643.8 2441.51,1641.9 C2448.11,1638.3 2452.21,1632.4 2452.21,1627.3 C2452.21,1625.9 2451.91,1624.6 2451.21,1623.4 M2447.01,1629.7 C2445.31,1631.5 2442.11,1633.8 2438.51,1635.9 C2434.91,1638 2431.21,1639.7 2428.91,1640.4 C2428.41,1640.5 2427.81,1640.6 2427.31,1640.6 C2425.81,1640.6 2424.51,1639.9 2423.81,1638.8 C2423.51,1638.2 2423.31,1637.6 2423.31,1637 C2423.31,1635.9 2423.81,1634.8 2424.91,1633.6 C2426.61,1631.8 2429.81,1629.4 2433.41,1627.3 C2437.01,1625.2 2440.71,1623.5 2443.11,1622.9 L2443.31,1622.9 C2443.91,1622.7 2444.41,1622.6 2444.91,1622.6 C2446.31,1622.6 2447.41,1623.2 2448.11,1624.5 C2448.41,1625.1 2448.61,1625.6 2448.61,1626.2 C2448.61,1627.5 2447.91,1628.8 2447.01,1629.7"/>
<path class="Note" d="M495.253,810.846 C493.753,808.146 490.853,806.446 486.953,806.046 C486.353,805.946 485.853,805.946 485.253,805.946 C481.753,805.946 477.953,806.946 474.453,808.846 C467.853,812.446 463.753,818.346 463.753,823.446 C463.753,824.846 463.953,826.146 464.653,827.346 C466.153,830.046 469.153,831.746 473.053,832.146 C473.653,832.246 474.153,832.246 474.753,832.246 C478.253,832.246 481.953,831.246 485.453,829.346 C492.053,825.746 496.253,819.946 496.253,814.846 C496.253,813.446 495.953,812.046 495.253,810.846"/>
<path class="Note" d="M633.729,798.345 C632.229,795.645 629.329,793.945 625.429,793.545 C624.829,793.445 624.329,793.445 623.729,793.445 C620.229,793.445 616.429,794.445 612.929,796.345 C606.329,799.945 602.229,805.845 602.229,810.945 C602.229,812.345 602.429,813.645 603.129,814.845 C604.629,817.545 607.629,819.245 611.529,819.645 C612.129,819.745 612.629,819.745 613.229,819.745 C616.729,819.745 620.429,818.745 623.929,816.845 C630.529,813.245 634.729,807.445 634.729,802.345 C634.729,800.945 634.429,799.545 633.729,798.345"/>
<path class="Note" d="M772.205,785.845 C770.705,783.145 767.805,781.445 763.905,781.045 C763.305,780.945 762.805,780.945 762.205,780.945 C758.705,780.945 754.905,781.945 751.405,783.845 C744.805,787.445 740.705,793.345 740.705,798.445 C740.705,799.845 740.905,801.145 741.605,802.345 C743.105,805.045 746.105,806.745 750.005,807.145 C750.605,807.245 751.105,807.245 751.705,807.245 C755.205,807.245 758.905,806.245 762.405,804.345 C769.005,800.745 773.205,794.945 773.205,789.845 C773.205,788.445 772.905,787.045 772.205,785.845"/>
<path class="Note" d="M910.681,773.344 C909.181,770.644 906.281,768.944 902.381,768.544 C901.781,768.444 901.281,768.444 900.681,768.444 C897.181,768.444 893.381,769.444 889.881,771.344 C883.281,774.944 879.181,780.844 879.181,785.944 C879.181,787.344 879.381,788.644 880.081,789.844 C881.581,792.544 884.581,794.244 888.481,794.644 C889.081,794.744 889.581,794.744 890.181,794.744 C893.681,794.744 897.381,793.744 900.881,791.844 C907.481,788.244 911.681,782.444 911.681,777.344 C911.681,775.944 911.381,774.544 910.681,773.344"/>
<path class="Note" d="M1086.16,760.843 C1084.66,758.143 1081.76,756.443 1077.86,756.043 C1077.26,755.943 1076.76,755.943 1076.16,755.943 C1072.66,755.943 1068.86,756.943 1065.36,758.843 C1058.76,762.443 1054.66,768.343 1054.66,773.443 C1054.66,774.843 1054.86,776.143 1055.56,777.343 C1057.06,780.043 1060.06,781.743 1063.96,782.143 C1064.56,782.243 1065.06,782.243 1065.66,782.243 C1069.16,782.243 1072.86,781.243 1076.36,779.343 C1082.96,775.743 1087.16,769.943 1087.16,764.843 C1087.16,763.443 1086.86,762.043 1086.16,760.843"/>
<path class="Note" d="M1219.73,748.342 C1218.23,745.642 1215.33,743.942 1211.43,743.542 C1210.83,743.442 1210.33,743.442 1209.73,743.442 C1206.23,743.442 1202.43,744.442 1198.93,746.342 C1192.33,749.942 1188.23,755.842 1188.23,760.942 C1188.23,762.342 1188.43,763.642 1189.13,764.842 C1190.63,767.542 1193.63,769.242 1197.53,769.642 C1198.13,769.742 1198.63,769.742 1199.23,769.742 C1202.73,769.742 1206.43,768.742 1209.93,766.842 C1216.53,763.242 1220.73,757.442 1220.73,752.342 C1220.73,750.942 1220.43,749.542 1219.73,748.342"/>
<path class="Note" d="M1353.3,735.842 C1351.8,733.142 1348.9,731.442 1345,731.042 C1344.4,730.942 1343.9,730.942 1343.3,730.942 C1339.8,730.942 1336,731.942 1332.5,733.842 C1325.9,737.442 1321.8,743.342 1321.8,748.442 C1321.8,749.842 1322,751.142 1322.7,752.342 C1324.2,755.042 1327.2,756.742 1331.1,757.142 C1331.7,757.242 1332.2,757.242 1332.8,757.242 C1336.3,757.242 1340,756.242 1343.5,754.342 C1350.1,750.742 1354.3,744.942 1354.3,739.842 C1354.3,738.442 1354,737.042 1353.3,735.842"/>
<path class="Note" d="M1486.87,723.341 C1485.37,720.641 1482.47,718.941 1478.57,718.541 C1477.97,718.441 1477.47,718.441 1476.87,718.441 C1473.37,718.441 1469.57,719.441 1466.07,721.341 C1459.47,724.941 1455.37,730.841 1455.37,735.941 C1455.37,737.341 1455.57,738.641 1456.27,739.841 C1457.77,742.541 1460.77,744.241 1464.67,744.641 C1465.27,744.741 1465.77,744.741 1466.37,744.741 C1469.87,744.741 1473.57,743.741 1477.07,741.841 C1483.67,738.241 1487.87,732.441 1487.87,727.341 C1487.87,725.941 1487.57,724.541 1486.87,723.341"/>
<path class="Note" d="M1657.44,710.84 C1655.94,708.14 1653.04,706.44 1649.14,706.04 C1648.54,705.94 1648.04,705.94 1647.44,705.94 C1643.94,705.94 1640.14,706.94 1636.64,708.84 C1630.04,712.44 1625.94,718.34 1625.94,723.44 C1625.94,724.84 1626.14,726.14 1626.84,727.34 C1628.34,730.04 1631.34,731.74 1635.24,732.14 C1635.84,732.24 1636.34,732.24 1636.94,732.24 C1640.44,732.24 1644.14,731.24 1647.64,729.34 C1654.24,725.74 1658.44,719.94 1658.44,714.84 C1658.44,713.44 1658.14,712.04 1657.44,710.84"/>
<path class="Note" d="M1788.04,698.339 C1786.54,695.639 1783.64,693.939 1779.74,693.539 C1779.14,693.439 1778.64,693.439 1778.04,693.439 C1774.54,693.439 1770.74,694.439 1767.24,696.339 C1760.64,699.939 1756.54,705.839 1756.54,710.939 C1756.54,712.339 1756.74,713.639 1757.44,714.839 C1758.94,717.539 1761.94,719.239 1765.84,719.639 C1766.44,719.739 1766.94,719.739 1767.54,719.739 C1771.04,719.739 1774.74,718.739 1778.24,716.839 C1784.84,713.239 1789.04,707.439 1789.04,702.339 C1789.04,700.939 1788.74,699.539 1788.04,698.339"/>
<path class="Note" d="M1918.64,685.838 C1917.14,683.138 1914.24,681.438 1910.34,681.038 C1909.74,680.938 1909.24,680.938 1908.64,680.938 C1905.14,680.938 1901.34,681.938 1897.84,683.838 C1891.24,687.438 1887.14,693.338 1887.14,698.438 C1887.14,699.838 1887.34,701.138 1888.04,702.338 C1889.54,705.038 1892.54,706.738 1896.44,707.138 C1897.04,707.238 1897.54,707.238 1898.14,707.238 C1901.64,707.238 1905.34,706.238 1908.84,704.338 C1915.44,700.738 1919.64,694.938 1919.64,689.838 C1919.64,688.438 1919.34,687.038 1918.64,685.838"/>
<path class="Note" d="M2049.24,673.338 C2047.74,670.638 2044.84,668.938 2040.94,668.538 C2040.34,668.438 2039.84,668.438 2039.24,668.438 C2035.74,668.438 2031.94,669.438 2028.44,671.338 C2021.84,674.938 2017.74,680.838 2017.74,685.938 C2017.74,687.338 2017.94,688.638 2018.64,689.838 C2020.14,692.538 2023.14,694.238 2027.04,694.638 C2027.64,694.738 2028.14,694.738 2028.74,694.738 C2032.24,694.738 2035.94,693.738 2039.44,691.838 C2046.04,688.238 2050.24,682.438 2050.24,677.338 C2050.24,675.938 2049.94,674.538 2049.24,673.338"/>
<path class="Note" d="M2300.84,660.837 C2299.34,658.137 2296.44,656.437 2292.54,656.037 C2291.94,655.937 2291.44,655.937 2290.84,655.937 C2287.34,655.937 2283.54,656.937 2280.04,658.837 C2273.44,662.437 2269.34,668.337 2269.34,673.437 C2269.34,674.837 2269.54,676.137 2270.24,677.337 C2271.74,680.037 2274.74,681.737 2278.64,682.137 C2279.24,682.237 2279.74,682.237 2280.34,682.237 C2283.84,682.237 2287.54,681.237 2291.04,679.337 C2297.64,675.737 2301.84,669.937 2301.84,664.837 C2301.84,663.437 2301.54,662.037 2300.84,660.837"/>
<path class="Note" d="M2437.17,648.336 C2435.67,645.636 2432.77,643.936 2428.87,643.536 C2428.27,643.436 2427.77,643.436 2427.17,643.436 C2423.67,643.436 2419.87,644.436 2416.37,646.336 C2409.77,649.936 2405.67,655.836 2405.67,660.936 C2405.67,662.336 2405.87,663.636 2406.57,664.836 C2408.07,667.536 2411.07,669.236 2414.97,669.636 C2415.57,669.736 2416.07,669.736 2416.67,669.736 C2420.17,669.736 2423.87,668.736 2427.37,666.836 C2433.97,663.236 2438.17,657.436 2438.17,652.336 C2438.17,650.936 2437.87,649.536 2437.17,648.336"/>
<path class="Note" d="M2573.5,635.835 C2572,633.135 2569.1,631.435 2565.2,631.035 C2564.6,630.935 2564.1,630.935 2563.5,630.935 C2560,630.935 2556.2,631.935 2552.7,633.835 C2546.1,637.435 2542,643.235 2542,648.335 C2542,649.735 2542.4,651.135 2543.1,652.335 C2544.6,655.135 2547.4,656.735 2551.3,657.135 C2551.9,657.235 2552.4,657.235 2553,657.235 C2556.5,657.235 2560.3,656.235 2563.8,654.335 C2570.4,650.735 2574.5,644.835 2574.5,639.735 C2574.5,638.335 2574.2,637.035 2573.5,635.835 M2569.3,642.135 C2567.6,643.935 2564.4,646.235 2560.8,648.335 C2557.2,650.435 2553.5,652.135 2551.2,652.835 C2550.7,652.935 2550.1,653.035 2549.6,653.035 C2548.1,653.035 2546.8,652.335 2546.1,651.235 C2545.8,650.635 2545.6,650.035 2545.6,649.435 C2545.6,648.335 2546.1,647.235 2547.2,646.035 C2548.9,644.235 2552.1,641.835 2555.7,639.735 C2559.3,637.635 2563,635.935 2565.4,635.335 L2565.6,635.335 C2566.2,635.135 2566.7,635.035 2567.2,635.035 C2568.6,635.035 2569.7,635.635 2570.4,636.935 C2570.7,637.535 2570.9,638.035 2570.9,638.635 C2570.9,639.935 2570.2,641.235 2569.3,642.135"/>
<path class="Note" d="M460.251,1260.87 C458.751,1258.17 455.851,1256.47 451.951,1256.07 C451.351,1255.97 450.851,1255.97 450.251,1255.97 C446.751,1255.97 442.951,1256.97 439.451,1258.87 C432.851,1262.47 428.751,1268.37 428.751,1273.47 C428.751,1274.87 428.951,1276.17 429.651,1277.37 C431.151,1280.07 434.151,1281.77 438.051,1282.17 C438.651,1282.27 439.151,1282.27 439.751,1282.27 C443.251,1282.27 446.951,1281.27 450.451,1279.37 C457.051,1275.77 461.251,1269.97 461.251,1264.87 C461.251,1263.47 460.951,1262.07 460.251,1260.87"/>
<path class="Note" d="M591.128,1273.38 C589.628,1270.68 586.728,1268.98 582.828,1268.58 C582.228,1268.48 581.728,1268.48 581.128,1268.48 C577.628,1268.48 573.828,1269.48 570.328,1271.38 C563.728,1274.98 559.628,1280.88 559.628,1285.98 C559.628,1287.38 559.828,1288.68 560.528,1289.88 C562.028,1292.58 565.028,1294.28 568.928,1294.68 C569.528,1294.78 570.028,1294.78 570.628,1294.78 C574.128,1294.78 577.828,1293.78 581.328,1291.88 C587.928,1288.28 592.128,1282.48 592.128,1277.38 C592.128,1275.98 591.828,1274.58 591.128,1273.38"/>
<path class="Note" d="M722.006,1285.88 C720.506,1283.18 717.606,1281.48 713.706,1281.08 C713.106,1280.98 712.606,1280.98 712.006,1280.98 C708.506,1280.98 704.706,1281.98 701.206,1283.88 C694.606,1287.48 690.506,1293.38 690.506,1298.48 C690.506,1299.88 690.706,1301.18 691.406,1302.38 C692.906,1305.08 695.906,1306.78 699.806,1307.18 C700.406,1307.28 700.906,1307.28 701.506,1307.28 C705.006,1307.28 708.706,1306.28 712.206,1304.38 C718.806,1300.78 723.006,1294.98 723.006,1289.88 C723.006,1288.48 722.706,1287.08 722.006,1285.88"/>
<path class="Note" d="M852.884,1298.38 C851.384,1295.68 848.484,1293.98 844.584,1293.58 C843.984,1293.48 843.484,1293.48 842.884,1293.48 C839.384,1293.48 835.584,1294.48 832.084,1296.38 C825.484,1299.98 821.384,1305.88 821.384,1310.98 C821.384,1312.38 821.584,1313.68 822.284,1314.88 C823.784,1317.58 826.784,1319.28 830.684,1319.68 C831.284,1319.78 831.784,1319.78 832.384,1319.78 C835.884,1319.78 839.584,1318.78 843.084,1316.88 C849.684,1313.28 853.884,1307.48 853.884,1302.38 C853.884,1300.98 853.584,1299.58 852.884,1298.38"/>
<path class="Note" d="M1107.17,1310.88 C1105.67,1308.18 1102.77,1306.48 1098.87,1306.08 C1098.27,1305.98 1097.77,1305.98 1097.17,1305.98 C1093.67,1305.98 1089.87,1306.98 1086.37,1308.88 C1079.77,1312.48 1075.67,1318.38 1075.67,1323.48 C1075.67,1324.88 1075.87,1326.18 1076.57,1327.38 C1078.07,1330.08 1081.07,1331.78 1084.97,1332.18 C1085.57,1332.28 1086.07,1332.28 1086.67,1332.28 C1090.17,1332.28 1093.87,1331.28 1097.37,1329.38 C1103.97,1325.78 1108.17,1319.98 1108.17,1314.88 C1108.17,1313.48 1107.87,1312.08 1107.17,1310.88"/>
<path class="Note" d="M1246.27,1323.38 C1244.77,1320.68 1241.87,1318.98 1237.97,1318.58 C1237.37,1318.48 1236.87,1318.48 1236.27,1318.48 C1232.77,1318.48 1228.97,1319.48 1225.47,1321.38 C1218.87,1324.98 1214.77,1330.88 1214.77,1335.98 C1214.77,1337.38 1214.97,1338.68 1215.67,1339.88 C1217.17,1342.58 1220.17,1344.28 1224.07,1344.68 C1224.67,1344.78 1225.17,1344.78 1225.77,1344.78 C1229.27,1344.78 1232.97,1343.78 1236.47,1341.88 C1243.07,1338.28 1247.27,1332.48 1247.27,1327.38 C1247.27,1325.98 1246.97,1324.58 1246.27,1323.38"/>
<path class="Note" d="M1385.36,1335.88 C1383.86,1333.18 1380.96,1331.48 1377.06,1331.08 C1376.46,1330.98 1375.96,1330.98 1375.36,1330.98 C1371.86,1330.98 1368.06,1331.98 1364.56,1333.88 C1357.96,1337.48 1353.86,1343.38 1353.86,1348.48 C1353.86,1349.88 1354.06,1351.18 1354.76,1352.38 C1356.26,1355.08 1359.26,1356.78 1363.16,1357.18 C1363.76,1357.28 1364.26,1357.28 1364.86,1357.28 C1368.36,1357.28 1372.06,1356.28 1375.56,1354.38 C1382.16,1350.78 1386.36,1344.98 1386.36,1339.88 C1386.36,1338.48 1386.06,1337.08 1385.36,1335.88"/>
<path class="Note" d="M1524.46,1348.38 C1522.96,1345.68 1520.06,1343.98 1516.16,1343.58 C1515.56,1343.48 1515.06,1343.48 1514.46,1343.48 C1510.96,1343.48 1507.16,1344.48 1503.66,1346.38 C1497.06,1349.98 1492.96,1355.88 1492.96,1360.98 C1492.96,1362.38 1493.16,1363.68 1493.86,1364.88 C1495.36,1367.58 1498.36,1369.28 1502.26,1369.68 C1502.86,1369.78 1503.36,1369.78 1503.96,1369.78 C1507.46,1369.78 1511.16,1368.78 1514.66,1366.88 C1521.26,1363.28 1525.46,1357.48 1525.46,1352.38 C1525.46,1350.98 1525.16,1349.58 1524.46,1348.38"/>
<path class="Note" d="M1700.56,1360.88 C1699.06,1358.18 1696.16,1356.48 1692.26,1356.08 C1691.66,1355.98 1691.16,1355.98 1690.56,1355.98 C1687.06,1355.98 1683.26,1356.98 1679.76,1358.88 C1673.16,1362.48 1669.06,1368.38 1669.06,1373.48 C1669.06,1374.88 1669.26,1376.18 1669.96,1377.38 C1671.46,1380.08 1674.46,1381.78 1678.36,1382.18 C1678.96,1382.28 1679.46,1382.28 1680.06,1382.28 C1683.56,1382.28 1687.26,1381.28 1690.76,1379.38 C1697.36,1375.78 1701.56,1369.98 1701.56,1364.88 C1701.56,1363.48 1701.26,1362.08 1700.56,1360.88"/>
<path class="Note" d="M1836.69,1373.38 C1835.19,1370.68 1832.29,1368.98 1828.39,1368.58 C1827.79,1368.48 1827.29,1368.48 1826.69,1368.48 C1823.19,1368.48 1819.39,1369.48 1815.89,1371.38 C1809.29,1374.98 1805.19,1380.88 1805.19,1385.98 C1805.19,1387.38 1805.39,1388.68 1806.09,1389.88 C1807.59,1392.58 1810.59,1394.28 1814.49,1394.68 C1815.09,1394.78 1815.59,1394.78 1816.19,1394.78 C1819.69,1394.78 1823.39,1393.78 1826.89,1391.88 C1833.49,1388.28 1837.69,1382.48 1837.69,1377.38 C1837.69,1375.98 1837.39,1374.58 1836.69,1373.38"/>
<path class="Note" d="M1972.82,1385.88 C1971.32,1383.18 1968.42,1381.48 1964.52,1381.08 C1963.92,1380.98 1963.42,1380.98 1962.82,1380.98 C1959.32,1380.98 1955.52,1381.98 1952.02,1383.88 C1945.42,1387.48 1941.32,1393.38 1941.32,1398.48 C1941.32,1399.88 1941.52,1401.18 1942.22,1402.38 C1943.72,1405.08 1946.72,1406.78 1950.62,1407.18 C1951.22,1407.28 1951.72,1407.28 1952.32,1407.28 C1955.82,1407.28 1959.52,1406.28 1963.02,1404.38 C1969.62,1400.78 1973.82,1394.98 1973.82,1389.88 C1973.82,1388.48 1973.52,1387.08 1972.82,1385.88"/>
<path class="Note" d="M2108.94,1398.38 C2107.44,1395.68 2104.54,1393.98 2100.64,1393.58 C2100.04,1393.48 2099.54,1393.48 2098.94,1393.48 C2095.44,1393.48 2091.64,1394.48 2088.14,1396.38 C2081.54,1399.98 2077.44,1405.88 2077.44,1410.98 C2077.44,1412.38 2077.64,1413.68 2078.34,1414.88 C2079.84,1417.58 2082.84,1419.28 2086.74,1419.68 C2087.34,1419.78 2087.84,1419.78 2088.44,1419.78 C2091.94,1419.78 2095.64,1418.78 2099.14,1416.88 C2105.74,1413.28 2109.94,1407.48 2109.94,1402.38 C2109.94,1400.98 2109.64,1399.58 2108.94,1398.38"/>
<path class="Note" d="M2290.83,1410.88 C2289.33,1408.18 2286.43,1406.48 2282.53,1406.08 C2281.93,1405.98 2281.43,1405.98 2280.83,1405.98 C2277.33,1405.98 2273.53,1406.98 2270.03,1408.88 C2263.43,1412.48 2259.33,1418.38 2259.33,1423.48 C2259.33,1424.88 2259.53,1426.18 2260.23,1427.38 C2261.73,1430.08 2264.73,1431.78 2268.63,1432.18 C2269.23,1432.28 2269.73,1432.28 2270.33,1432.28 C2273.83,1432.28 2277.53,1431.28 2281.03,1429.38 C2287.63,1425.78 2291.83,1419.98 2291.83,1414.88 C2291.83,1413.48 2291.53,1412.08 2290.83,1410.88"/>
<path class="Note" d="M2451.21,1423.38 C2449.71,1420.68 2446.81,1418.98 2442.91,1418.58 C2442.31,1418.48 2441.81,1418.48 2441.21,1418.48 C2437.71,1418.48 2433.91,1419.48 2430.41,1421.38 C2423.81,1424.98 2419.71,1430.78 2419.71,1435.88 C2419.71,1437.28 2420.11,1438.68 2420.81,1439.88 C2422.31,1442.68 2425.11,1444.28 2429.01,1444.68 C2429.61,1444.78 2430.11,1444.78 2430.71,1444.78 C2434.21,1444.78 2438.01,1443.78 2441.51,1441.88 C2448.11,1438.28 2452.21,1432.38 2452.21,1427.28 C2452.21,1425.88 2451.91,1424.58 2451.21,1423.38 M2447.01,1429.68 C2445.31,1431.48 2442.11,1433.78 2438.51,1435.88 C2434.91,1437.98 2431.21,1439.68 2428.91,1440.38 C2428.41,1440.48 2427.81,1440.58 2427.31,1440.58 C2425.81,1440.58 2424.51,1439.88 2423.81,1438.78 C2423.51,1438.18 2423.31,1437.58 2423.31,1436.98 C2423.31,1435.88 2423.81,1434.78 2424.91,1433.58 C2426.61,1431.78 2429.81,1429.38 2433.41,1427.28 C2437.01,1425.18 2440.71,1423.48 2443.11,1422.88 L2443.31,1422.88 C2443.91,1422.68 2444.41,1422.58 2444.91,1422.58 C2446.31,1422.58 2447.41,1423.18 2448.11,1424.48 C2448.41,1425.08 2448.61,1425.58 2448.61,1426.18 C2448.61,1427.48 2447.91,1428.78 2447.01,1429.68"/>
<path class="Clef" d="M297,918.954 C289.4,918.954 283.3,923.354 283.2,923.354 C277.4,927.654 275.1,932.754 274.2,936.254 C273.7,938.054 273.5,939.854 273.5,941.554 C273.5,943.954 273.9,946.154 274.8,948.054 C276,950.754 278.3,952.654 281.3,953.654 C282.5,954.054 283.8,954.254 285.1,954.254 C287.3,954.254 289.6,953.654 291.5,952.554 C294.6,950.854 296.5,947.254 296.5,943.354 C296.5,939.854 294.7,936.654 291.7,934.754 C289.6,933.354 287.6,932.954 285.9,932.954 C284.7,932.954 283.6,933.154 282.7,933.454 C281.7,933.854 280,934.854 279.2,935.554 C279.5,933.654 280.7,930.754 281.8,929.154 C282.9,927.554 285.1,925.554 286.8,924.654 C289.3,923.254 292.5,922.654 296,922.654 C306.2,922.654 311.2,930.854 311.2,947.654 C311.2,956.954 307.7,965.854 304.7,971.754 C301.4,978.354 297,984.654 293.1,988.154 C282.7,997.654 272.9,1002.15 272.8,1002.15 C272.8,1002.15 271.3,1003.05 271.7,1004.55 C272,1005.55 272.9,1005.75 273.5,1005.75 C273.6,1005.75 273.9,1005.65 274,1005.65 C274.1,1005.65 285.5,1000.95 294.6,993.854 C299.7,990.154 304.3,986.154 308.3,981.854 C311.9,977.954 315,973.754 317.5,969.554 C321.9,962.054 324.4,954.254 324.4,947.554 C324.4,939.254 322.2,932.354 318.1,927.454 C313.4,921.854 306.3,918.954 297,918.954 M328.4,931.654 C328.4,934.454 330.6,936.654 333.2,936.654 C335.8,936.654 338,934.454 338,931.654 C338,928.854 335.8,926.554 333.2,926.554 C330.6,926.554 328.4,928.854 328.4,931.654 M328.4,956.354 C328.4,959.154 330.6,961.454 333.2,961.454 C335.8,961.454 338,959.154 338,956.354 C338,953.554 335.8,951.254 333.2,951.254 C330.6,951.254 328.4,953.554 328.4,956.354"/>
<path class="Clef" d="M2236.25,988.157 C2235.05,982.757 2232.35,978.857 2231.55,977.857 C2228.35,973.557 2224.35,970.757 2219.65,969.357 C2217.35,968.657 2215.25,968.457 2213.25,968.457 C2212.55,968.457 2211.85,968.457 2211.15,968.557 C2210.15,962.557 2209.05,956.657 2208.15,951.257 C2213.75,945.057 2217.45,939.157 2219.85,934.757 C2223.45,928.057 2224.85,923.357 2224.95,923.157 C2226.15,920.157 2226.85,916.357 2226.85,911.857 C2226.85,909.157 2226.55,906.257 2226.15,903.257 C2225.05,896.157 2222.85,889.457 2220.35,885.757 C2219.05,883.857 2217.85,882.757 2216.65,882.757 C2215.45,882.757 2212.95,883.957 2210.05,886.757 C2207.75,888.957 2204.45,892.857 2201.85,898.857 C2199.55,904.257 2198.85,911.157 2198.85,917.057 C2198.85,918.857 2198.95,920.557 2199.05,922.157 C2199.25,925.757 2199.95,931.557 2200.55,935.157 C2200.55,935.257 2200.85,936.757 2201.25,939.357 L2200.55,940.057 C2199.55,941.057 2198.35,942.157 2196.95,943.557 C2196.05,944.457 2195.15,945.257 2194.15,946.257 C2185.65,954.457 2172.85,966.857 2172.85,985.957 C2172.85,990.657 2173.75,995.057 2175.55,999.057 C2177.15,1002.66 2179.45,1005.96 2182.35,1008.86 C2189.85,1016.26 2200.05,1019.46 2207.15,1019.46 L2207.75,1019.46 C2210.65,1019.36 2213.35,1019.06 2215.75,1018.66 C2217.55,1028.26 2218.75,1035.36 2218.75,1040.66 C2218.75,1047.16 2217.15,1051.06 2213.25,1053.86 C2210.85,1055.56 2207.95,1056.66 2204.85,1056.76 L2204.05,1056.76 C2202.55,1056.76 2200.05,1056.36 2198.55,1055.96 C2198.55,1055.96 2198.25,1055.86 2198.25,1055.66 C2198.25,1055.46 2198.65,1055.46 2198.65,1055.46 C2200.55,1055.06 2204.15,1053.76 2206.55,1050.46 C2207.65,1048.96 2208.35,1046.66 2208.35,1044.16 C2208.35,1042.56 2208.05,1040.86 2207.35,1039.36 C2206.25,1036.96 2203.65,1033.96 2198.05,1033.56 L2196.95,1033.56 C2194.85,1033.56 2193.05,1034.06 2191.35,1035.06 C2189.55,1036.16 2187.95,1037.86 2186.95,1039.86 C2185.85,1041.86 2185.35,1044.06 2185.35,1046.26 C2185.35,1049.16 2186.25,1051.86 2188.05,1054.06 C2191.05,1057.66 2195.75,1059.96 2201.15,1060.56 C2201.85,1060.66 2202.95,1060.76 2203.65,1060.76 C2208.05,1060.76 2212.45,1059.56 2216.05,1057.36 C2219.75,1054.76 2221.85,1050.76 2222.55,1045.16 C2222.75,1043.86 2222.75,1042.46 2222.75,1040.96 C2222.75,1037.06 2222.25,1032.36 2221.25,1026.56 C2220.85,1024.46 2220.45,1021.46 2219.75,1017.66 C2225.55,1015.76 2229.65,1012.06 2233.45,1006.26 C2235.75,1002.26 2236.85,998.157 2236.85,993.857 C2236.85,991.957 2236.65,990.057 2236.25,988.157 M2206.05,910.257 C2207.85,904.557 2210.55,901.157 2212.55,899.457 C2214.35,897.957 2215.95,897.257 2216.85,897.257 C2216.95,897.257 2217.15,897.357 2217.25,897.357 C2217.55,897.457 2217.95,897.957 2218.35,898.657 C2219.25,900.457 2220.15,903.757 2220.15,907.457 C2220.15,909.357 2219.95,911.357 2219.35,913.157 C2217.15,919.957 2212.55,927.257 2205.55,934.957 C2205.35,933.857 2205.15,932.857 2205.05,931.857 C2204.55,928.657 2204.25,925.457 2204.25,922.557 C2204.25,918.057 2204.85,913.957 2206.05,910.257 M2202.05,1014.36 C2197.45,1013.16 2192.95,1010.66 2189.15,1007.16 C2187.85,1005.96 2186.05,1003.76 2184.55,1000.36 C2183.25,997.357 2182.55,994.257 2182.55,990.857 L2182.55,990.157 C2182.65,985.457 2183.95,980.657 2186.45,975.857 C2189.35,970.257 2193.85,964.757 2199.95,959.457 C2201.45,958.157 2202.85,956.857 2204.15,955.557 C2204.95,959.857 2205.65,964.557 2206.55,969.457 C2202.65,970.757 2197.95,973.757 2194.85,979.457 C2192.45,983.957 2191.75,987.857 2191.75,991.057 C2191.75,992.557 2191.95,993.957 2192.15,995.057 C2193.05,999.557 2195.65,1003.26 2199.15,1005.36 C2199.95,1005.86 2203.25,1007.56 2205.25,1007.56 C2205.55,1007.56 2205.85,1007.56 2206.05,1007.46 C2206.35,1007.36 2206.65,1007.16 2206.75,1006.86 C2206.85,1006.66 2206.85,1006.46 2206.85,1006.26 C2206.85,1005.46 2206.05,1004.86 2204.75,1004.06 C2204.15,1003.66 2203.45,1003.26 2202.75,1002.76 C2200.15,1000.76 2198.65,997.657 2198.65,994.257 C2198.65,993.257 2198.85,992.357 2199.05,991.357 C2199.55,989.357 2201.25,986.557 2202.75,985.157 C2204.45,983.657 2206.45,982.457 2208.85,981.857 C2210.85,993.057 2212.95,1004.16 2214.55,1012.56 C2214.65,1013.26 2214.85,1013.96 2214.95,1014.66 C2212.95,1015.06 2210.95,1015.26 2209.05,1015.26 C2206.65,1015.26 2204.35,1014.96 2202.05,1014.36 M2227.75,1004.16 C2226.55,1007.36 2224.05,1011.36 2218.95,1013.46 C2218.85,1013.06 2218.85,1012.56 2218.75,1012.16 C2217.25,1003.36 2215.35,992.457 2213.35,981.157 L2214.35,981.157 C2224.05,981.157 2227.95,988.357 2228.85,992.957 C2229.05,993.857 2229.15,995.057 2229.15,996.357 C2229.15,998.657 2228.75,1001.46 2227.75,1004.16"/>
<path class="Clef" d="M335,1600.7 C333.8,1595.3 331.1,1591.4 330.3,1590.4 C327.1,1586.1 323.1,1583.3 318.4,1581.9 C316.1,1581.2 314,1581 312,1581 C311.3,1581 310.6,1581 309.9,1581.1 C308.9,1575.1 307.8,1569.2 306.9,1563.8 C312.5,1557.6 316.2,1551.7 318.6,1547.3 C322.2,1540.6 323.6,1535.9 323.7,1535.7 C324.9,1532.7 325.6,1528.9 325.6,1524.4 C325.6,1521.7 325.3,1518.8 324.9,1515.8 C323.8,1508.7 321.6,1502 319.1,1498.3 C317.8,1496.4 316.6,1495.3 315.4,1495.3 C314.2,1495.3 311.7,1496.5 308.8,1499.3 C306.5,1501.5 303.2,1505.4 300.6,1511.4 C298.3,1516.8 297.6,1523.7 297.6,1529.6 C297.6,1531.4 297.7,1533.1 297.8,1534.7 C298,1538.3 298.7,1544.1 299.3,1547.7 C299.3,1547.8 299.6,1549.3 300,1551.9 L299.3,1552.6 C298.3,1553.6 297.1,1554.7 295.7,1556.1 C294.8,1557 293.9,1557.8 292.9,1558.8 C284.4,1567 271.6,1579.4 271.6,1598.5 C271.6,1603.2 272.5,1607.6 274.3,1611.6 C275.9,1615.2 278.2,1618.5 281.1,1621.4 C288.6,1628.8 298.8,1632 305.9,1632 L306.5,1632 C309.4,1631.9 312.1,1631.6 314.5,1631.2 C316.3,1640.8 317.5,1647.9 317.5,1653.2 C317.5,1659.7 315.9,1663.6 312,1666.4 C309.6,1668.1 306.7,1669.2 303.6,1669.3 L302.8,1669.3 C301.3,1669.3 298.8,1668.9 297.3,1668.5 C297.3,1668.5 297,1668.4 297,1668.2 C297,1668 297.4,1668 297.4,1668 C299.3,1667.6 302.9,1666.3 305.3,1663 C306.4,1661.5 307.1,1659.2 307.1,1656.7 C307.1,1655.1 306.8,1653.4 306.1,1651.9 C305,1649.5 302.4,1646.5 296.8,1646.1 L295.7,1646.1 C293.6,1646.1 291.8,1646.6 290.1,1647.6 C288.3,1648.7 286.7,1650.4 285.7,1652.4 C284.6,1654.4 284.1,1656.6 284.1,1658.8 C284.1,1661.7 285,1664.4 286.8,1666.6 C289.8,1670.2 294.5,1672.5 299.9,1673.1 C300.6,1673.2 301.7,1673.3 302.4,1673.3 C306.8,1673.3 311.2,1672.1 314.8,1669.9 C318.5,1667.3 320.6,1663.3 321.3,1657.7 C321.5,1656.4 321.5,1655 321.5,1653.5 C321.5,1649.6 321,1644.9 320,1639.1 C319.6,1637 319.2,1634 318.5,1630.2 C324.3,1628.3 328.4,1624.6 332.2,1618.8 C334.5,1614.8 335.6,1610.7 335.6,1606.4 C335.6,1604.5 335.4,1602.6 335,1600.7 M304.8,1522.8 C306.6,1517.1 309.3,1513.7 311.3,1512 C313.1,1510.5 314.7,1509.8 315.6,1509.8 C315.7,1509.8 315.9,1509.9 316,1509.9 C316.3,1510 316.7,1510.5 317.1,1511.2 C318,1513 318.9,1516.3 318.9,1520 C318.9,1521.9 318.7,1523.9 318.1,1525.7 C315.9,1532.5 311.3,1539.8 304.3,1547.5 C304.1,1546.4 303.9,1545.4 303.8,1544.4 C303.3,1541.2 303,1538 303,1535.1 C303,1530.6 303.6,1526.5 304.8,1522.8 M300.8,1626.9 C296.2,1625.7 291.7,1623.2 287.9,1619.7 C286.6,1618.5 284.8,1616.3 283.3,1612.9 C282,1609.9 281.3,1606.8 281.3,1603.4 L281.3,1602.7 C281.4,1598 282.7,1593.2 285.2,1588.4 C288.1,1582.8 292.6,1577.3 298.7,1572 C300.2,1570.7 301.6,1569.4 302.9,1568.1 C303.7,1572.4 304.4,1577.1 305.3,1582 C301.4,1583.3 296.7,1586.3 293.6,1592 C291.2,1596.5 290.5,1600.4 290.5,1603.6 C290.5,1605.1 290.7,1606.5 290.9,1607.6 C291.8,1612.1 294.4,1615.8 297.9,1617.9 C298.7,1618.4 302,1620.1 304,1620.1 C304.3,1620.1 304.6,1620.1 304.8,1620 C305.1,1619.9 305.4,1619.7 305.5,1619.4 C305.6,1619.2 305.6,1619 305.6,1618.8 C305.6,1618 304.8,1617.4 303.5,1616.6 C302.9,1616.2 302.2,1615.8 301.5,1615.3 C298.9,1613.3 297.4,1610.2 297.4,1606.8 C297.4,1605.8 297.6,1604.9 297.8,1603.9 C298.3,1601.9 300,1599.1 301.5,1597.7 C303.2,1596.2 305.2,1595 307.6,1594.4 C309.6,1605.6 311.7,1616.7 313.3,1625.1 C313.4,1625.8 313.6,1626.5 313.7,1627.2 C311.7,1627.6 309.7,1627.8 307.8,1627.8 C305.4,1627.8 303.1,1627.5 300.8,1626.9 M326.5,1616.7 C325.3,1619.9 322.8,1623.9 317.7,1626 C317.6,1625.6 317.6,1625.1 317.5,1624.7 C316,1615.9 314.1,1605 312.1,1593.7 L313.1,1593.7 C322.8,1593.7 326.7,1600.9 327.6,1605.5 C327.8,1606.4 327.9,1607.6 327.9,1608.9 C327.9,1611.2 327.5,1614 326.5,1616.7"/>
<path class="Clef" d="M1002.16,1531.49 C994.563,1531.49 988.463,1535.89 988.363,1535.89 C982.563,1540.19 980.263,1545.29 979.363,1548.79 C978.863,1550.59 978.663,1552.39 978.663,1554.09 C978.663,1556.49 979.063,1558.69 979.963,1560.59 C981.163,1563.29 983.463,1565.19 986.463,1566.19 C987.663,1566.59 988.963,1566.79 990.263,1566.79 C992.463,1566.79 994.763,1566.19 996.663,1565.09 C999.763,1563.39 1001.66,1559.79 1001.66,1555.89 C1001.66,1552.39 999.863,1549.19 996.863,1547.29 C994.763,1545.89 992.763,1545.49 991.063,1545.49 C989.863,1545.49 988.763,1545.69 987.863,1545.99 C986.863,1546.39 985.163,1547.39 984.363,1548.09 C984.663,1546.19 985.863,1543.29 986.963,1541.69 C988.063,1540.09 990.263,1538.09 991.963,1537.19 C994.463,1535.79 997.663,1535.19 1001.16,1535.19 C1011.36,1535.19 1016.36,1543.39 1016.36,1560.19 C1016.36,1569.49 1012.86,1578.39 1009.86,1584.29 C1006.56,1590.89 1002.16,1597.19 998.263,1600.69 C987.863,1610.19 978.063,1614.69 977.963,1614.69 C977.963,1614.69 976.463,1615.59 976.863,1617.09 C977.163,1618.09 978.063,1618.29 978.663,1618.29 C978.763,1618.29 979.063,1618.19 979.163,1618.19 C979.263,1618.19 990.663,1613.49 999.763,1606.39 C1004.86,1602.69 1009.46,1598.69 1013.46,1594.39 C1017.06,1590.49 1020.16,1586.29 1022.66,1582.09 C1027.06,1574.59 1029.56,1566.79 1029.56,1560.09 C1029.56,1551.79 1027.36,1544.89 1023.26,1539.99 C1018.56,1534.39 1011.46,1531.49 1002.16,1531.49 M1033.56,1544.19 C1033.56,1546.99 1035.76,1549.19 1038.36,1549.19 C1040.96,1549.19 1043.16,1546.99 1043.16,1544.19 C1043.16,1541.39 1040.96,1539.09 1038.36,1539.09 C1035.76,1539.09 1033.56,1541.39 1033.56,1544.19 M1033.56,1568.89 C1033.56,1571.69 1035.76,1573.99 1038.36,1573.99 C1040.96,1573.99 1043.16,1571.69 1043.16,1568.89 C1043.16,1566.09 1040.96,1563.79 1038.36,1563.79 C1035.76,1563.79 1033.56,1566.09 1033.56,1568.89"/>
<path class="Clef" d="M335,725.641 C333.8,720.241 331.1,716.341 330.3,715.341 C327.1,711.041 323.1,708.241 318.4,706.841 C316.1,706.141 314,705.941 312,705.941 C311.3,705.941 310.6,705.941 309.9,706.041 C308.9,700.041 307.8,694.141 306.9,688.741 C312.5,682.541 316.2,676.641 318.6,672.241 C322.2,665.541 323.6,660.841 323.7,660.641 C324.9,657.641 325.6,653.841 325.6,649.341 C325.6,646.641 325.3,643.741 324.9,640.741 C323.8,633.641 321.6,626.941 319.1,623.241 C317.8,621.341 316.6,620.241 315.4,620.241 C314.2,620.241 311.7,621.441 308.8,624.241 C306.5,626.441 303.2,630.341 300.6,636.341 C298.3,641.741 297.6,648.641 297.6,654.541 C297.6,656.341 297.7,658.041 297.8,659.641 C298,663.241 298.7,669.041 299.3,672.641 C299.3,672.741 299.6,674.241 300,676.841 L299.3,677.541 C298.3,678.541 297.1,679.641 295.7,681.041 C294.8,681.941 293.9,682.741 292.9,683.741 C284.4,691.941 271.6,704.341 271.6,723.441 C271.6,728.141 272.5,732.541 274.3,736.541 C275.9,740.141 278.2,743.441 281.1,746.341 C288.6,753.741 298.8,756.941 305.9,756.941 L306.5,756.941 C309.4,756.841 312.1,756.541 314.5,756.141 C316.3,765.741 317.5,772.841 317.5,778.141 C317.5,784.641 315.9,788.541 312,791.341 C309.6,793.041 306.7,794.141 303.6,794.241 L302.8,794.241 C301.3,794.241 298.8,793.841 297.3,793.441 C297.3,793.441 297,793.341 297,793.141 C297,792.941 297.4,792.941 297.4,792.941 C299.3,792.541 302.9,791.241 305.3,787.941 C306.4,786.441 307.1,784.141 307.1,781.641 C307.1,780.041 306.8,778.341 306.1,776.841 C305,774.441 302.4,771.441 296.8,771.041 L295.7,771.041 C293.6,771.041 291.8,771.541 290.1,772.541 C288.3,773.641 286.7,775.341 285.7,777.341 C284.6,779.341 284.1,781.541 284.1,783.741 C284.1,786.641 285,789.341 286.8,791.541 C289.8,795.141 294.5,797.441 299.9,798.041 C300.6,798.141 301.7,798.241 302.4,798.241 C306.8,798.241 311.2,797.041 314.8,794.841 C318.5,792.241 320.6,788.241 321.3,782.641 C321.5,781.341 321.5,779.941 321.5,778.441 C321.5,774.541 321,769.841 320,764.041 C319.6,761.941 319.2,758.941 318.5,755.141 C324.3,753.241 328.4,749.541 332.2,743.741 C334.5,739.741 335.6,735.641 335.6,731.341 C335.6,729.441 335.4,727.541 335,725.641 M304.8,647.741 C306.6,642.041 309.3,638.641 311.3,636.941 C313.1,635.441 314.7,634.741 315.6,634.741 C315.7,634.741 315.9,634.841 316,634.841 C316.3,634.941 316.7,635.441 317.1,636.141 C318,637.941 318.9,641.241 318.9,644.941 C318.9,646.841 318.7,648.841 318.1,650.641 C315.9,657.441 311.3,664.741 304.3,672.441 C304.1,671.341 303.9,670.341 303.8,669.341 C303.3,666.141 303,662.941 303,660.041 C303,655.541 303.6,651.441 304.8,647.741 M300.8,751.841 C296.2,750.641 291.7,748.141 287.9,744.641 C286.6,743.441 284.8,741.241 283.3,737.841 C282,734.841 281.3,731.741 281.3,728.341 L281.3,727.641 C281.4,722.941 282.7,718.141 285.2,713.341 C288.1,707.741 292.6,702.241 298.7,696.941 C300.2,695.641 301.6,694.341 302.9,693.041 C303.7,697.341 304.4,702.041 305.3,706.941 C301.4,708.241 296.7,711.241 293.6,716.941 C291.2,721.441 290.5,725.341 290.5,728.541 C290.5,730.041 290.7,731.441 290.9,732.541 C291.8,737.041 294.4,740.741 297.9,742.841 C298.7,743.341 302,745.041 304,745.041 C304.3,745.041 304.6,745.041 304.8,744.941 C305.1,744.841 305.4,744.641 305.5,744.341 C305.6,744.141 305.6,743.941 305.6,743.741 C305.6,742.941 304.8,742.341 303.5,741.541 C302.9,741.141 302.2,740.741 301.5,740.241 C298.9,738.241 297.4,735.141 297.4,731.741 C297.4,730.741 297.6,729.841 297.8,728.841 C298.3,726.841 300,724.041 301.5,722.641 C303.2,721.141 305.2,719.941 307.6,719.341 C309.6,730.541 311.7,741.641 313.3,750.041 C313.4,750.741 313.6,751.441 313.7,752.141 C311.7,752.541 309.7,752.741 307.8,752.741 C305.4,752.741 303.1,752.441 300.8,751.841 M326.5,741.641 C325.3,744.841 322.8,748.841 317.7,750.941 C317.6,750.541 317.6,750.041 317.5,749.641 C316,740.841 314.1,729.941 312.1,718.641 L313.1,718.641 C322.8,718.641 326.7,725.841 327.6,730.441 C327.8,731.341 327.9,732.541 327.9,733.841 C327.9,736.141 327.5,738.941 326.5,741.641"/>
<path class="Clef" d="M335,1338.18 C333.8,1332.78 331.1,1328.88 330.3,1327.88 C327.1,1323.58 323.1,1320.78 318.4,1319.38 C316.1,1318.68 314,1318.48 312,1318.48 C311.3,1318.48 310.6,1318.48 309.9,1318.58 C308.9,1312.58 307.8,1306.68 306.9,1301.28 C312.5,1295.08 316.2,1289.18 318.6,1284.78 C322.2,1278.08 323.6,1273.38 323.7,1273.18 C324.9,1270.18 325.6,1266.38 325.6,1261.88 C325.6,1259.18 325.3,1256.28 324.9,1253.28 C323.8,1246.18 321.6,1239.48 319.1,1235.78 C317.8,1233.88 316.6,1232.78 315.4,1232.78 C314.2,1232.78 311.7,1233.98 308.8,1236.78 C306.5,1238.98 303.2,1242.88 300.6,1248.88 C298.3,1254.28 297.6,1261.18 297.6,1267.08 C297.6,1268.88 297.7,1270.58 297.8,1272.18 C298,1275.78 298.7,1281.58 299.3,1285.18 C299.3,1285.28 299.6,1286.78 300,1289.38 L299.3,1290.08 C298.3,1291.08 297.1,1292.18 295.7,1293.58 C294.8,1294.48 293.9,1295.28 292.9,1296.28 C284.4,1304.48 271.6,1316.88 271.6,1335.98 C271.6,1340.68 272.5,1345.08 274.3,1349.08 C275.9,1352.68 278.2,1355.98 281.1,1358.88 C288.6,1366.28 298.8,1369.48 305.9,1369.48 L306.5,1369.48 C309.4,1369.38 312.1,1369.08 314.5,1368.68 C316.3,1378.28 317.5,1385.38 317.5,1390.68 C317.5,1397.18 315.9,1401.08 312,1403.88 C309.6,1405.58 306.7,1406.68 303.6,1406.78 L302.8,1406.78 C301.3,1406.78 298.8,1406.38 297.3,1405.98 C297.3,1405.98 297,1405.88 297,1405.68 C297,1405.48 297.4,1405.48 297.4,1405.48 C299.3,1405.08 302.9,1403.78 305.3,1400.48 C306.4,1398.98 307.1,1396.68 307.1,1394.18 C307.1,1392.58 306.8,1390.88 306.1,1389.38 C305,1386.98 302.4,1383.98 296.8,1383.58 L295.7,1383.58 C293.6,1383.58 291.8,1384.08 290.1,1385.08 C288.3,1386.18 286.7,1387.88 285.7,1389.88 C284.6,1391.88 284.1,1394.08 284.1,1396.28 C284.1,1399.18 285,1401.88 286.8,1404.08 C289.8,1407.68 294.5,1409.98 299.9,1410.58 C300.6,1410.68 301.7,1410.78 302.4,1410.78 C306.8,1410.78 311.2,1409.58 314.8,1407.38 C318.5,1404.78 320.6,1400.78 321.3,1395.18 C321.5,1393.88 321.5,1392.48 321.5,1390.98 C321.5,1387.08 321,1382.38 320,1376.58 C319.6,1374.48 319.2,1371.48 318.5,1367.68 C324.3,1365.78 328.4,1362.08 332.2,1356.28 C334.5,1352.28 335.6,1348.18 335.6,1343.88 C335.6,1341.98 335.4,1340.08 335,1338.18 M304.8,1260.28 C306.6,1254.58 309.3,1251.18 311.3,1249.48 C313.1,1247.98 314.7,1247.28 315.6,1247.28 C315.7,1247.28 315.9,1247.38 316,1247.38 C316.3,1247.48 316.7,1247.98 317.1,1248.68 C318,1250.48 318.9,1253.78 318.9,1257.48 C318.9,1259.38 318.7,1261.38 318.1,1263.18 C315.9,1269.98 311.3,1277.28 304.3,1284.98 C304.1,1283.88 303.9,1282.88 303.8,1281.88 C303.3,1278.68 303,1275.48 303,1272.58 C303,1268.08 303.6,1263.98 304.8,1260.28 M300.8,1364.38 C296.2,1363.18 291.7,1360.68 287.9,1357.18 C286.6,1355.98 284.8,1353.78 283.3,1350.38 C282,1347.38 281.3,1344.28 281.3,1340.88 L281.3,1340.18 C281.4,1335.48 282.7,1330.68 285.2,1325.88 C288.1,1320.28 292.6,1314.78 298.7,1309.48 C300.2,1308.18 301.6,1306.88 302.9,1305.58 C303.7,1309.88 304.4,1314.58 305.3,1319.48 C301.4,1320.78 296.7,1323.78 293.6,1329.48 C291.2,1333.98 290.5,1337.88 290.5,1341.08 C290.5,1342.58 290.7,1343.98 290.9,1345.08 C291.8,1349.58 294.4,1353.28 297.9,1355.38 C298.7,1355.88 302,1357.58 304,1357.58 C304.3,1357.58 304.6,1357.58 304.8,1357.48 C305.1,1357.38 305.4,1357.18 305.5,1356.88 C305.6,1356.68 305.6,1356.48 305.6,1356.28 C305.6,1355.48 304.8,1354.88 303.5,1354.08 C302.9,1353.68 302.2,1353.28 301.5,1352.78 C298.9,1350.78 297.4,1347.68 297.4,1344.28 C297.4,1343.28 297.6,1342.38 297.8,1341.38 C298.3,1339.38 300,1336.58 301.5,1335.18 C303.2,1333.68 305.2,1332.48 307.6,1331.88 C309.6,1343.08 311.7,1354.18 313.3,1362.58 C313.4,1363.28 313.6,1363.98 313.7,1364.68 C311.7,1365.08 309.7,1365.28 307.8,1365.28 C305.4,1365.28 303.1,1364.98 300.8,1364.38 M326.5,1354.18 C325.3,1357.38 322.8,1361.38 317.7,1363.48 C317.6,1363.08 317.6,1362.58 317.5,1362.18 C316,1353.38 314.1,1342.48 312.1,1331.18 L313.1,1331.18 C322.8,1331.18 326.7,1338.38 327.6,1342.98 C327.8,1343.88 327.9,1345.08 327.9,1346.38 C327.9,1348.68 327.5,1351.48 326.5,1354.18"/>
<path class="TimeSig" d="M365.2,957.453 L382,957.453 L382,964.753 L373.9,964.753 C373.1,964.753 372.5,965.353 372.5,966.153 L372.5,968.053 C372.5,968.853 373.1,969.353 373.9,969.353 L403.6,969.353 C404.4,969.353 405,968.853 405,968.053 L405,966.153 C405,965.353 404.4,964.753 403.6,964.753 L394.8,964.753 L394.8,957.453 L403.6,957.453 C404.4,957.453 405,956.853 405,956.053 L405,954.253 C405,953.453 404.4,952.853 403.6,952.853 L394.8,952.853 L394.8,937.153 C394.8,936.653 394.4,936.153 394,935.953 L392.9,935.353 C392.7,935.253 392.4,935.253 392.2,935.253 C391.9,935.253 391.5,935.353 391.3,935.553 L382.4,943.753 C382.2,943.953 382,944.453 382,944.753 L382,952.853 L370.7,952.853 C370.7,952.853 381.6,941.053 393.2,925.553 C394,924.453 393.6,923.453 393.4,923.253 L391.3,921.053 C391.1,920.853 390.6,920.653 390.3,920.653 L375.7,920.653 C375,920.653 374.5,921.253 374.4,921.853 C374.4,921.853 373.9,929.053 371.3,937.053 C368.7,945.053 365.9,949.853 363.3,953.453 C363.3,953.453 362.8,954.453 363.1,955.153 C363.4,955.853 364.1,956.953 364.1,956.953 C364.1,956.953 364.4,957.453 365.2,957.453"/>
<path class="TimeSig" d="M365.2,1006.06 L382,1006.06 L382,1013.36 L373.9,1013.36 C373.1,1013.36 372.5,1013.96 372.5,1014.76 L372.5,1016.66 C372.5,1017.46 373.1,1017.96 373.9,1017.96 L403.6,1017.96 C404.4,1017.96 405,1017.46 405,1016.66 L405,1014.76 C405,1013.96 404.4,1013.36 403.6,1013.36 L394.8,1013.36 L394.8,1006.06 L403.6,1006.06 C404.4,1006.06 405,1005.46 405,1004.66 L405,1002.86 C405,1002.06 404.4,1001.46 403.6,1001.46 L394.8,1001.46 L394.8,985.758 C394.8,985.258 394.4,984.758 394,984.558 L392.9,983.958 C392.7,983.858 392.4,983.858 392.2,983.858 C391.9,983.858 391.5,983.958 391.3,984.158 L382.4,992.358 C382.2,992.558 382,993.058 382,993.358 L382,1001.46 L370.7,1001.46 C370.7,1001.46 381.6,989.658 393.2,974.158 C394,973.058 393.6,972.058 393.4,971.858 L391.3,969.658 C391.1,969.458 390.6,969.258 390.3,969.258 L375.7,969.258 C375,969.258 374.5,969.858 374.4,970.458 C374.4,970.458 373.9,977.658 371.3,985.658 C368.7,993.658 365.9,998.458 363.3,1002.06 C363.3,1002.06 362.8,1003.06 363.1,1003.76 C363.4,1004.46 364.1,1005.56 364.1,1005.56 C364.1,1005.56 364.4,1006.06 365.2,1006.06"/>
<path class="TimeSig" d="M365.2,694.937 L382,694.937 L382,702.237 L373.9,702.237 C373.1,702.237 372.5,702.837 372.5,703.637 L372.5,705.537 C372.5,706.337 373.1,706.837 373.9,706.837 L403.6,706.837 C404.4,706.837 405,706.337 405,705.537 L405,703.637 C405,702.837 404.4,702.237 403.6,702.237 L394.8,702.237 L394.8,694.937 L403.6,694.937 C404.4,694.937 405,694.337 405,693.537 L405,691.737 C405,690.937 404.4,690.337 403.6,690.337 L394.8,690.337 L394.8,674.637 C394.8,674.137 394.4,673.637 394,673.437 L392.9,672.837 C392.7,672.737 392.4,672.737 392.2,672.737 C391.9,672.737 391.5,672.837 391.3,673.037 L382.4,681.237 C382.2,681.437 382,681.937 382,682.237 L382,690.337 L370.7,690.337 C370.7,690.337 381.6,678.537 393.2,663.037 C394,661.937 393.6,660.937 393.4,660.737 L391.3,658.537 C391.1,658.337 390.6,658.137 390.3,658.137 L375.7,658.137 C375,658.137 374.5,658.737 374.4,659.337 C374.4,659.337 373.9,666.537 371.3,674.537 C368.7,682.537 365.9,687.337 363.3,690.937 C363.3,690.937 362.8,691.937 363.1,692.637 C363.4,693.337 364.1,694.437 364.1,694.437 C364.1,694.437 364.4,694.937 365.2,694.937"/>
<path class="TimeSig" d="M365.2,743.541 L382,743.541 L382,750.841 L373.9,750.841 C373.1,750.841 372.5,751.441 372.5,752.241 L372.5,754.141 C372.5,754.941 373.1,755.441 373.9,755.441 L403.6,755.441 C404.4,755.441 405,754.941 405,754.141 L405,752.241 C405,751.441 404.4,750.841 403.6,750.841 L394.8,750.841 L394.8,743.541 L403.6,743.541 C404.4,743.541 405,742.941 405,742.141 L405,740.341 C405,739.541 404.4,738.941 403.6,738.941 L394.8,738.941 L394.8,723.241 C394.8,722.741 394.4,722.241 394,722.041 L392.9,721.441 C392.7,721.341 392.4,721.341 392.2,721.341 C391.9,721.341 391.5,721.441 391.3,721.641 L382.4,729.841 C382.2,730.041 382,730.541 382,730.841 L382,738.941 L370.7,738.941 C370.7,738.941 381.6,727.141 393.2,711.641 C394,710.541 393.6,709.541 393.4,709.341 L391.3,707.141 C391.1,706.941 390.6,706.741 390.3,706.741 L375.7,706.741 C375,706.741 374.5,707.341 374.4,707.941 C374.4,707.941 373.9,715.141 371.3,723.141 C368.7,731.141 365.9,735.941 363.3,739.541 C363.3,739.541 362.8,740.541 363.1,741.241 C363.4,741.941 364.1,743.041 364.1,743.041 C364.1,743.041 364.4,743.541 365.2,743.541"/>
<path class="NoteDot" d="M2464.71,1619.1 C2464.71,1621.69 2466.81,1623.8 2469.41,1623.8 C2472,1623.8 2474.11,1621.69 2474.11,1619.1 C2474.11,1616.5 2472,1614.4 2469.41,1614.4 C2466.81,1614.4 2464.71,1616.5 2464.71,1619.1"/>
<path class="NoteDot" d="M2464.71,1431.58 C2464.71,1434.18 2466.81,1436.28 2469.41,1436.28 C2472,1436.28 2474.11,1434.18 2474.11,1431.58 C2474.11,1428.99 2472,1426.88 2469.41,1426.88 C2466.81,1426.88 2464.71,1428.99 2464.71,1431.58"/>
<path class="Page" d="M233.756,4057.02 L231.776,4057.02 L231.326,4059.31 C230.741,4062.24 230.381,4062.51 227.591,4062.51 L217.511,4062.51 C220.616,4059.27 221.651,4058.32 224.531,4056.07 C228.626,4052.92 230.381,4051.35 231.416,4050 C232.856,4048.02 233.576,4046.04 233.576,4043.83 C233.576,4038.7 229.346,4035.06 223.451,4035.06 C217.736,4035.06 213.371,4038.7 213.371,4043.52 C213.371,4046.35 214.811,4048.29 216.926,4048.29 C218.591,4048.29 219.716,4047.16 219.716,4045.54 C219.716,4044.42 219.086,4043.38 218.141,4042.98 C216.476,4042.3 216.386,4042.21 216.386,4041.63 C216.386,4040.95 216.836,4039.92 217.466,4039.15 C218.591,4037.76 220.436,4036.99 222.551,4036.99 C226.286,4036.99 228.491,4039.29 228.491,4043.07 C228.491,4046.4 226.916,4049.41 223.181,4053.37 C219.851,4056.88 217.781,4059.09 217.016,4059.94 C215.396,4061.83 214.586,4062.87 212.606,4065.48 L212.606,4066.74 L232.901,4066.74 L233.756,4057.02 "/>
<path class="Bracket" transform="matrix(3.62523,0,0,3.62523,214.469,1019.06)" d="M0.92002,-50 C2.69004,-51.88 6.2,-55.8 6.2,-63 C6.2,-72.1 2.25996,-81.32 2.25996,-86.97 C2.25996,-93.06 5.84004,-98.84 5.95,-99 C6.05996,-99.16 6.05,-99.39 5.94004,-99.46 C5.82998,-99.53 5.62002,-99.47 5.49004,-99.32 C5.35996,-99.17 0,-93.75 0,-85.6 C0,-76.75 3.5,-70.58 3.5,-59.07 C3.5,-56.89 2.55996,-53.36 0.1,-50.33 C-0.0799805,-50.17 -0.1,-49.89 0.0599609,-49.7 L0.0700195,-49.69 L0.1,-49.66 C2.55996,-46.63 3.5,-43.1 3.5,-40.92 C3.5,-29.4 0,-23.24 0,-14.39 C0,-6.25 5.35996,-0.8 5.49004,-0.659961 C5.62002,-0.52002 5.8,-0.42998 5.94004,-0.52002 C6.07998,-0.609961 6.07998,-0.77998 5.95,-0.97998 C5.82002,-1.17998 2.25996,-6.92002 2.25996,-13.01 C2.25996,-18.66 6.2,-27.9 6.2,-37 C6.2,-44.3 2.69004,-48.12 0.92002,-50"/>
<path class="Bracket" transform="matrix(3.62523,0,0,3.62523,214.469,1631.6)" d="M0.92002,-50 C2.69004,-51.88 6.2,-55.8 6.2,-63 C6.2,-72.1 2.25996,-81.32 2.25996,-86.97 C2.25996,-93.06 5.84004,-98.84 5.95,-99 C6.05996,-99.16 6.05,-99.39 5.94004,-99.46 C5.82998,-99.53 5.62002,-99.47 5.49004,-99.32 C5.35996,-99.17 0,-93.75 0,-85.6 C0,-76.75 3.5,-70.58 3.5,-59.07 C3.5,-56.89 2.55996,-53.36 0.1,-50.33 C-0.0799805,-50.17 -0.1,-49.89 0.0599609,-49.7 L0.0700195,-49.69 L0.1,-49.66 C2.55996,-46.63 3.5,-43.1 3.5,-40.92 C3.5,-29.4 0,-23.24 0,-14.39 C0,-6.25 5.35996,-0.8 5.49004,-0.659961 C5.62002,-0.52002 5.8,-0.42998 5.94004,-0.52002 C6.07998,-0.609961 6.07998,-0.77998 5.95,-0.97998 C5.82002,-1.17998 2.25996,-6.92002 2.25996,-13.01 C2.25996,-18.66 6.2,-27.9 6.2,-37 C6.2,-44.3 2.69004,-48.12 0.92002,-50"/>
</svg>
