<?xml version="1.0" encoding="UTF-8" standalone="no"?>
<svg width="2977.23px" height="4208.47px" viewBox="0 0 2977.23 4208.47"
 xmlns="http://www.w3.org/2000/svg" xmlns:xlink="http://www.w3.org/1999/xlink" version="1.2" baseProfile="tiny">
<title>exercises_scores (11)</title>
<desc>Generated by MuseScore 3.6.0</desc>
<polyline class="StaffLines" fill="none" stroke="#000000" stroke-width="2.75" stroke-linejoin="bevel" points="247.099,660.505 2764.63,660.505"/>
<polyline class="StaffLines" fill="none" stroke="#000000" stroke-width="2.75" stroke-linejoin="bevel" points="247.099,685.506 2764.63,685.506"/>
<polyline class="StaffLines" fill="none" stroke="#000000" stroke-width="2.75" stroke-linejoin="bevel" points="247.099,710.508 2764.63,710.508"/>
<polyline class="StaffLines" fill="none" stroke="#000000" stroke-width="2.75" stroke-linejoin="bevel" points="247.099,735.509 2764.63,735.509"/>
<polyline class="StaffLines" fill="none" stroke="#000000" stroke-width="2.75" stroke-linejoin="bevel" points="247.099,760.511 2764.63,760.511"/>
<polyline class="StaffLines" fill="none" stroke="#000000" stroke-width="2.75" stroke-linejoin="bevel" points="247.099,923.021 2764.63,923.021"/>
<polyline class="StaffLines" fill="none" stroke="#000000" stroke-width="2.75" stroke-linejoin="bevel" points="247.099,948.023 2764.63,948.023"/>
<polyline class="StaffLines" fill="none" stroke="#000000" stroke-width="2.75" stroke-linejoin="bevel" points="247.099,973.024 2764.63,973.024"/>
<polyline class="StaffLines" fill="none" stroke="#000000" stroke-width="2.75" stroke-linejoin="bevel" points="247.099,998.026 2764.63,998.026"/>
<polyline class="StaffLines" fill="none" stroke="#000000" stroke-width="2.75" stroke-linejoin="bevel" points="247.099,1023.03 2764.63,1023.03"/>
<path class="Text" d="M242.312,217.106 L240.092,217.106 L237.692,220.706 C234.812,218.006 231.032,216.566 226.772,216.566 C218.852,216.566 213.632,221.546 213.632,229.106 C213.632,235.646 216.872,238.886 225.692,241.166 L231.392,242.606 C235.832,243.746 236.252,243.866 237.512,244.826 C239.312,246.206 240.272,248.186 240.272,250.526 C240.272,252.926 239.372,254.906 237.572,256.586 C235.592,258.266 233.612,258.926 230.312,258.926 C225.872,258.926 222.692,257.546 219.872,254.426 C217.352,251.666 216.092,248.786 215.192,244.166 L212.612,244.166 L212.852,261.266 L215.192,261.266 L217.892,257.186 C221.912,260.486 225.212,261.686 230.492,261.686 C239.312,261.686 244.952,256.526 244.952,248.486 C244.952,244.706 243.752,241.586 241.352,239.306 C239.732,237.746 237.392,236.726 232.592,235.526 L226.172,233.906 C220.832,232.526 218.312,230.186 218.312,226.526 C218.312,222.326 221.732,219.446 226.832,219.446 C231.032,219.446 234.452,221.246 236.852,224.666 C238.592,227.126 239.732,229.646 240.452,232.706 L243.032,232.706 L242.312,217.106 M271.162,251.966 C269.242,256.286 267.202,258.026 264.082,258.026 C259.282,258.026 256.282,253.646 256.282,246.626 C256.282,239.306 259.222,234.506 263.662,234.506 C265.462,234.506 267.022,235.346 267.022,236.306 C267.022,236.486 266.962,236.666 266.662,237.026 C265.702,238.166 265.462,238.766 265.462,239.786 C265.462,241.766 266.962,243.146 269.062,243.146 C271.222,243.146 272.722,241.466 272.722,239.066 C272.722,234.986 268.702,231.926 263.362,231.926 C255.562,231.926 249.982,238.286 249.982,247.286 C249.982,255.806 255.082,261.686 262.522,261.686 C267.862,261.686 270.922,259.226 273.502,252.866 L271.162,251.966 M301.75,241.466 C301.75,237.686 301.09,235.766 299.35,234.326 C297.37,232.706 294.43,231.926 290.59,231.926 C283.81,231.926 278.89,235.106 278.89,239.486 C278.89,241.706 280.27,243.146 282.37,243.146 C284.29,243.146 285.61,241.886 285.61,240.086 C285.61,239.306 285.31,238.466 284.71,237.626 C284.35,237.206 284.29,237.086 284.29,236.786 C284.29,235.586 286.69,234.506 289.57,234.506 C291.49,234.506 293.59,235.106 294.55,236.006 C295.69,236.966 296.11,238.406 296.11,241.106 L296.11,243.446 C289.87,244.526 287.89,245.006 284.95,246.146 C279.73,248.066 277.27,250.826 277.27,254.666 C277.27,258.986 280.63,261.686 285.97,261.686 C290.11,261.686 293.83,260.006 296.41,256.946 C297.37,260.006 298.87,261.206 301.69,261.206 C304.39,261.206 307.21,259.466 307.21,257.726 C307.21,257.306 306.97,257.006 306.61,257.006 C306.37,257.006 306.13,257.066 305.71,257.246 C304.87,257.606 304.51,257.666 304.03,257.666 C302.35,257.666 301.75,256.586 301.75,253.526 L301.75,241.466 M296.11,248.786 C296.11,252.386 295.93,253.226 294.91,254.786 C293.41,257.006 290.71,258.506 288.07,258.506 C285.31,258.506 283.33,256.526 283.33,253.826 C283.33,251.306 284.59,249.506 287.23,248.246 C289.09,247.406 291.43,246.806 296.11,246.026 L296.11,248.786 M320.229,216.566 L309.129,217.226 L309.129,219.806 L312.069,219.806 C314.289,219.866 314.589,220.226 314.589,222.806 L314.589,253.406 L314.589,256.226 C314.529,257.126 314.469,257.486 314.229,257.786 C313.809,258.326 312.669,258.566 310.089,258.626 L309.669,258.626 L309.669,260.786 L325.209,260.786 L325.209,258.626 L324.789,258.626 C320.769,258.506 320.229,258.206 320.229,256.046 L320.229,253.406 L320.229,216.566 M354.78,247.286 C354.84,238.286 349.74,231.926 342.42,231.926 C334.74,231.926 328.98,238.586 328.98,247.586 C328.98,256.046 334.44,261.686 342.54,261.686 C348.3,261.686 352.32,258.866 354.78,253.166 L352.68,252.026 C350.22,256.646 347.7,258.446 343.68,258.446 C340.62,258.446 338.4,257.186 336.84,254.486 C335.76,252.686 335.28,250.586 335.34,247.286 L354.78,247.286 M335.4,244.706 C335.4,242.846 335.64,241.526 336.24,239.846 C337.5,236.246 339.42,234.506 342.36,234.506 C345.96,234.506 348.36,237.686 348.36,242.546 C348.36,244.226 347.82,244.706 345.9,244.706 L335.4,244.706 M366.601,254.126 C364.501,254.126 362.821,255.806 362.821,257.846 C362.821,259.946 364.501,261.626 366.541,261.626 C368.641,261.626 370.321,259.946 370.321,257.846 C370.321,255.806 368.641,254.126 366.601,254.126 M366.601,232.406 C364.501,232.406 362.821,234.086 362.821,236.186 C362.821,238.226 364.501,239.906 366.541,239.906 C368.641,239.906 370.321,238.226 370.321,236.126 C370.321,234.086 368.641,232.406 366.601,232.406 M429.345,217.046 L427.065,217.046 L424.665,220.586 C420.285,217.406 418.065,216.566 413.925,216.566 C408.225,216.566 403.365,218.966 399.345,223.766 C395.505,228.326 393.705,233.366 393.705,239.546 C393.705,252.506 402.165,261.686 413.985,261.686 C423.585,261.686 429.705,256.046 431.085,245.966 L428.265,245.486 C426.645,254.426 422.085,258.866 414.705,258.866 C405.825,258.866 401.625,252.746 401.625,239.786 C401.625,232.946 402.525,228.446 404.565,224.846 C406.425,221.486 410.085,219.386 413.985,219.386 C418.185,219.386 421.905,221.606 424.185,225.446 C425.325,227.426 426.165,229.646 427.605,234.386 L430.245,234.386 L429.345,217.046 M456.835,230.708 C457.322,230.613 457.717,230.132 457.717,229.636 L457.717,229.634 L457.717,224.954 C457.717,224.665 457.534,224.283 457.309,224.102 C457.144,223.966 456.836,223.857 456.622,223.857 C456.559,223.857 456.458,223.867 456.397,223.88 L453.811,224.414 L453.811,212.606 L451.615,212.606 L451.615,224.87 L444.517,226.34 L444.517,215.102 L442.321,215.102 L442.321,226.796 L439.213,227.438 C438.73,227.54 438.337,228.024 438.337,228.518 L438.337,233.114 C438.338,233.401 438.518,233.783 438.739,233.966 C438.906,234.102 439.216,234.212 439.432,234.212 L439.435,234.212 C439.497,234.212 439.596,234.204 439.657,234.194 L442.321,233.654 L442.321,246.764 L439.213,247.406 C438.73,247.506 438.338,247.987 438.337,248.48 L438.337,253.082 C438.338,253.369 438.518,253.751 438.739,253.934 C438.906,254.07 439.216,254.18 439.432,254.18 L439.435,254.18 C439.438,254.18 439.444,254.18 439.447,254.18 C439.506,254.18 439.6,254.169 439.657,254.156 L442.321,253.616 L442.321,265.406 L444.517,265.406 L444.517,253.172 L451.615,251.732 L451.615,262.91 L453.811,262.91 L453.811,251.288 L456.835,250.676 C457.322,250.581 457.717,250.1 457.717,249.604 L457.717,249.602 L457.717,244.922 C457.717,244.633 457.534,244.251 457.309,244.07 C457.146,243.933 456.841,243.823 456.628,243.823 C456.563,243.823 456.46,243.834 456.397,243.848 L453.811,244.382 L453.811,231.326 L456.835,230.708 M444.517,246.308 L444.517,233.204 L451.615,231.77 L451.615,244.838 L444.517,246.308 M490.518,232.826 L479.838,233.486 L479.838,236.066 L482.298,236.066 C484.578,236.126 484.878,236.486 484.878,239.066 L484.878,253.406 L484.878,255.746 L484.878,256.226 C484.818,257.126 484.758,257.486 484.518,257.786 C484.098,258.326 482.958,258.566 480.378,258.626 L480.138,258.626 L480.138,260.786 L495.258,260.786 L495.258,258.626 L495.018,258.626 C491.058,258.506 490.518,258.206 490.518,255.986 L490.518,253.406 L490.518,244.886 C490.518,239.546 493.458,235.586 497.358,235.586 C500.778,235.586 502.518,238.046 502.518,242.906 L502.518,253.406 L502.518,256.286 C502.458,257.066 502.398,257.486 502.098,257.786 C501.738,258.326 500.538,258.566 497.958,258.626 L497.718,258.626 L497.718,260.786 L512.898,260.786 L512.898,258.626 L512.658,258.626 C508.698,258.506 508.158,258.206 508.158,256.046 L508.158,253.406 L508.158,245.426 C508.158,239.426 510.858,235.586 515.058,235.586 C518.478,235.586 520.158,238.166 520.158,243.566 L520.158,253.406 L520.158,256.226 C520.098,257.066 520.038,257.486 519.738,257.786 C519.378,258.326 518.178,258.566 515.598,258.626 L515.358,258.626 L515.358,260.786 L530.538,260.786 L530.538,258.626 L530.298,258.626 C526.338,258.506 525.798,258.206 525.798,255.986 L525.798,253.406 L525.798,242.366 C525.798,238.646 525.438,237.386 523.878,235.346 C522.138,233.126 519.678,231.926 516.798,231.926 C512.898,231.926 510.018,233.786 507.438,237.926 C506.418,234.326 503.178,231.926 499.158,231.926 C495.498,231.926 492.858,233.666 490.518,237.446 L490.518,232.826 M558.906,241.466 C558.906,237.686 558.246,235.766 556.506,234.326 C554.526,232.706 551.586,231.926 547.746,231.926 C540.966,231.926 536.046,235.106 536.046,239.486 C536.046,241.706 537.426,243.146 539.526,243.146 C541.446,243.146 542.766,241.886 542.766,240.086 C542.766,239.306 542.466,238.466 541.866,237.626 C541.506,237.206 541.446,237.086 541.446,236.786 C541.446,235.586 543.846,234.506 546.726,234.506 C548.646,234.506 550.746,235.106 551.706,236.006 C552.846,236.966 553.266,238.406 553.266,241.106 L553.266,243.446 C547.026,244.526 545.046,245.006 542.106,246.146 C536.886,248.066 534.426,250.826 534.426,254.666 C534.426,258.986 537.786,261.686 543.126,261.686 C547.266,261.686 550.986,260.006 553.566,256.946 C554.526,260.006 556.026,261.206 558.846,261.206 C561.546,261.206 564.366,259.466 564.366,257.726 C564.366,257.306 564.126,257.006 563.766,257.006 C563.526,257.006 563.286,257.066 562.866,257.246 C562.026,257.606 561.666,257.666 561.186,257.666 C559.506,257.666 558.906,256.586 558.906,253.526 L558.906,241.466 M553.266,248.786 C553.266,252.386 553.086,253.226 552.066,254.786 C550.566,257.006 547.866,258.506 545.226,258.506 C542.466,258.506 540.486,256.526 540.486,253.826 C540.486,251.306 541.746,249.506 544.386,248.246 C546.246,247.406 548.586,246.806 553.266,246.026 L553.266,248.786 M575.831,232.826 L564.131,233.486 L564.131,236.066 L567.611,236.066 C569.891,236.126 570.191,236.486 570.191,239.066 L570.191,259.406 C570.191,264.266 569.891,266.546 569.051,268.286 C568.451,269.486 567.071,270.386 565.751,270.386 C564.911,270.386 564.251,270.026 564.251,269.606 C564.251,269.366 564.311,269.246 564.551,268.646 C564.851,268.046 564.971,267.626 564.971,267.206 C564.971,265.706 563.531,264.386 561.851,264.386 C559.931,264.386 558.491,265.886 558.491,267.986 C558.491,270.926 561.191,272.906 565.211,272.906 C568.571,272.906 571.631,271.466 573.371,269.006 C575.231,266.366 575.831,263.306 575.831,256.526 L575.831,232.826 M573.011,217.886 C571.091,217.886 569.531,219.446 569.531,221.366 C569.531,223.286 571.091,224.846 572.951,224.846 C574.931,224.846 576.491,223.286 576.491,221.366 C576.491,219.446 574.931,217.886 573.011,217.886 M596.281,231.926 C588.901,231.926 583.201,238.466 583.201,246.866 C583.201,255.086 588.961,261.686 596.161,261.686 C603.361,261.686 609.121,255.086 609.121,246.806 C609.121,238.586 603.361,231.926 596.281,231.926 M596.281,234.506 C600.481,234.506 602.821,238.886 602.821,246.806 C602.821,254.786 600.481,259.106 596.161,259.106 C591.841,259.106 589.501,254.786 589.501,246.866 C589.501,238.706 591.781,234.506 596.281,234.506 M623.041,232.826 L612.421,233.486 L612.421,236.066 L614.881,236.066 C617.161,236.126 617.461,236.486 617.461,239.066 L617.461,253.406 L617.461,256.226 C617.401,257.126 617.341,257.486 617.101,257.786 C616.681,258.326 615.481,258.566 612.901,258.626 L612.661,258.626 L612.661,260.786 L628.681,260.786 L628.681,258.626 L627.601,258.626 C623.581,258.506 623.041,258.206 623.041,256.046 L623.041,253.406 L623.041,252.806 C623.101,242.726 626.701,235.046 631.381,234.806 C630.541,235.766 630.301,236.366 630.301,237.506 C630.301,239.426 631.681,240.806 633.601,240.806 C635.821,240.806 637.261,239.186 637.261,236.786 C637.261,233.846 635.221,231.926 632.041,231.926 C628.261,231.926 625.021,234.926 623.041,240.266 L623.041,232.826 "/>
<polyline class="BarLine" fill="none" stroke="#000000" stroke-width="4.50" stroke-linejoin="bevel" points="249.349,921.646 249.349,1024.4"/>
<polyline class="BarLine" fill="none" stroke="#000000" stroke-width="4.50" stroke-linejoin="bevel" points="1017.05,921.646 1017.05,1024.4"/>
<polyline class="BarLine" fill="none" stroke="#000000" stroke-width="4.50" stroke-linejoin="bevel" points="1604.85,921.646 1604.85,1024.4"/>
<polyline class="BarLine" fill="none" stroke="#000000" stroke-width="4.50" stroke-linejoin="bevel" points="2214.37,921.646 2214.37,1024.4"/>
<polyline class="BarLine" fill="none" stroke="#000000" stroke-width="4.50" stroke-linejoin="bevel" points="2734.88,921.646 2734.88,1024.4"/>
<polyline class="BarLine" fill="none" stroke="#000000" stroke-width="13.75" stroke-linejoin="bevel" points="2757.76,921.646 2757.76,1024.4"/>
<polyline class="BarLine" fill="none" stroke="#000000" stroke-width="4.50" stroke-linejoin="bevel" points="249.349,659.13 249.349,923.021"/>
<polyline class="BarLine" fill="none" stroke="#000000" stroke-width="4.50" stroke-linejoin="bevel" points="1017.05,659.13 1017.05,923.021"/>
<polyline class="BarLine" fill="none" stroke="#000000" stroke-width="4.50" stroke-linejoin="bevel" points="1604.85,659.13 1604.85,923.021"/>
<polyline class="BarLine" fill="none" stroke="#000000" stroke-width="4.50" stroke-linejoin="bevel" points="2214.37,659.13 2214.37,923.021"/>
<polyline class="BarLine" fill="none" stroke="#000000" stroke-width="4.50" stroke-linejoin="bevel" points="2734.88,659.13 2734.88,923.021"/>
<polyline class="BarLine" fill="none" stroke="#000000" stroke-width="13.75" stroke-linejoin="bevel" points="2757.76,659.13 2757.76,923.021"/>
<path class="Accidental" d="M487.053,974.925 C487.653,974.825 488.153,974.125 488.153,973.525 L488.153,967.625 C488.153,966.825 487.553,966.225 486.753,966.225 L486.553,966.225 L483.253,966.925 L483.253,952.025 L480.453,952.025 L480.453,967.525 L471.553,969.325 L471.553,955.225 L468.753,955.225 L468.753,969.925 L464.853,970.725 C464.253,970.825 463.753,971.525 463.753,972.125 L463.753,972.325 L463.753,978.125 L463.753,977.925 C463.753,978.725 464.353,979.325 465.153,979.325 L465.453,979.325 L468.753,978.625 L468.753,995.125 L464.853,995.925 C464.253,996.025 463.753,996.725 463.753,997.325 L463.753,1003.13 C463.753,1003.93 464.353,1004.53 465.153,1004.53 L465.453,1004.53 L468.753,1003.83 L468.753,1018.73 L471.553,1018.73 L471.553,1003.23 L480.453,1001.43 L480.453,1015.53 L483.253,1015.53 L483.253,1000.83 L487.053,1000.13 C487.653,1000.03 488.153,999.325 488.153,998.725 L488.153,992.825 C488.153,992.025 487.553,991.425 486.753,991.425 L486.553,991.425 L483.253,992.125 L483.253,975.625 L487.053,974.925 M471.553,994.625 L471.553,978.025 L480.453,976.225 L480.453,992.725 L471.553,994.625 "/>
<path class="Accidental" d="M617.152,962.424 C617.752,962.324 618.252,961.624 618.252,961.024 L618.252,955.124 C618.252,954.324 617.652,953.724 616.852,953.724 L616.652,953.724 L613.352,954.424 L613.352,939.524 L610.552,939.524 L610.552,955.024 L601.652,956.824 L601.652,942.724 L598.852,942.724 L598.852,957.424 L594.952,958.224 C594.352,958.324 593.852,959.024 593.852,959.624 L593.852,959.824 L593.852,965.624 L593.852,965.424 C593.852,966.224 594.452,966.824 595.252,966.824 L595.552,966.824 L598.852,966.124 L598.852,982.624 L594.952,983.424 C594.352,983.524 593.852,984.224 593.852,984.824 L593.852,990.624 C593.852,991.424 594.452,992.024 595.252,992.024 L595.552,992.024 L598.852,991.324 L598.852,1006.22 L601.652,1006.22 L601.652,990.724 L610.552,988.924 L610.552,1003.02 L613.352,1003.02 L613.352,988.324 L617.152,987.624 C617.752,987.524 618.252,986.824 618.252,986.224 L618.252,980.324 C618.252,979.524 617.652,978.924 616.852,978.924 L616.652,978.924 L613.352,979.624 L613.352,963.124 L617.152,962.424 M601.652,982.124 L601.652,965.524 L610.552,963.724 L610.552,980.224 L601.652,982.124 "/>
<path class="Accidental" d="M877.349,937.423 C877.949,937.323 878.449,936.623 878.449,936.023 L878.449,930.123 C878.449,929.323 877.849,928.723 877.049,928.723 L876.849,928.723 L873.549,929.423 L873.549,914.523 L870.749,914.523 L870.749,930.023 L861.849,931.823 L861.849,917.723 L859.049,917.723 L859.049,932.423 L855.149,933.223 C854.549,933.323 854.049,934.023 854.049,934.623 L854.049,934.823 L854.049,940.623 L854.049,940.423 C854.049,941.223 854.649,941.823 855.449,941.823 L855.749,941.823 L859.049,941.123 L859.049,957.623 L855.149,958.423 C854.549,958.523 854.049,959.223 854.049,959.823 L854.049,965.623 C854.049,966.423 854.649,967.023 855.449,967.023 L855.749,967.023 L859.049,966.323 L859.049,981.223 L861.849,981.223 L861.849,965.723 L870.749,963.923 L870.749,978.023 L873.549,978.023 L873.549,963.323 L877.349,962.623 C877.949,962.523 878.449,961.823 878.449,961.223 L878.449,955.323 C878.449,954.523 877.849,953.923 877.049,953.923 L876.849,953.923 L873.549,954.623 L873.549,938.123 L877.349,937.423 M861.849,957.123 L861.849,940.523 L870.749,938.723 L870.749,955.223 L861.849,957.123 "/>
<path class="Accidental" d="M1064.35,924.922 C1064.95,924.822 1065.45,924.122 1065.45,923.522 L1065.45,917.622 C1065.45,916.822 1064.85,916.222 1064.05,916.222 L1063.85,916.222 L1060.55,916.922 L1060.55,902.022 L1057.75,902.022 L1057.75,917.522 L1048.85,919.322 L1048.85,905.222 L1046.05,905.222 L1046.05,919.922 L1042.15,920.722 C1041.55,920.822 1041.05,921.522 1041.05,922.122 L1041.05,922.322 L1041.05,928.122 L1041.05,927.922 C1041.05,928.722 1041.65,929.322 1042.45,929.322 L1042.75,929.322 L1046.05,928.622 L1046.05,945.122 L1042.15,945.922 C1041.55,946.022 1041.05,946.722 1041.05,947.322 L1041.05,953.122 C1041.05,953.922 1041.65,954.522 1042.45,954.522 L1042.75,954.522 L1046.05,953.822 L1046.05,968.722 L1048.85,968.722 L1048.85,953.222 L1057.75,951.422 L1057.75,965.522 L1060.55,965.522 L1060.55,950.822 L1064.35,950.122 C1064.95,950.022 1065.45,949.322 1065.45,948.722 L1065.45,942.822 C1065.45,942.022 1064.85,941.422 1064.05,941.422 L1063.85,941.422 L1060.55,942.122 L1060.55,925.622 L1064.35,924.922 M1048.85,944.622 L1048.85,928.022 L1057.75,926.222 L1057.75,942.722 L1048.85,944.622 "/>
<path class="Accidental" d="M1197.07,912.421 C1197.67,912.321 1198.17,911.621 1198.17,911.021 L1198.17,905.121 C1198.17,904.321 1197.57,903.721 1196.77,903.721 L1196.57,903.721 L1193.27,904.421 L1193.27,889.521 L1190.47,889.521 L1190.47,905.021 L1181.57,906.821 L1181.57,892.721 L1178.77,892.721 L1178.77,907.421 L1174.87,908.221 C1174.27,908.321 1173.77,909.021 1173.77,909.621 L1173.77,909.821 L1173.77,915.621 L1173.77,915.421 C1173.77,916.221 1174.37,916.821 1175.17,916.821 L1175.47,916.821 L1178.77,916.121 L1178.77,932.621 L1174.87,933.421 C1174.27,933.521 1173.77,934.221 1173.77,934.821 L1173.77,940.621 C1173.77,941.421 1174.37,942.021 1175.17,942.021 L1175.47,942.021 L1178.77,941.321 L1178.77,956.221 L1181.57,956.221 L1181.57,940.721 L1190.47,938.921 L1190.47,953.021 L1193.27,953.021 L1193.27,938.321 L1197.07,937.621 C1197.67,937.521 1198.17,936.821 1198.17,936.221 L1198.17,930.321 C1198.17,929.521 1197.57,928.921 1196.77,928.921 L1196.57,928.921 L1193.27,929.621 L1193.27,913.121 L1197.07,912.421 M1181.57,932.121 L1181.57,915.521 L1190.47,913.721 L1190.47,930.221 L1181.57,932.121 "/>
<path class="Accidental" d="M1453.77,887.42 C1454.37,887.32 1454.87,886.62 1454.87,886.02 L1454.87,880.12 C1454.87,879.32 1454.27,878.72 1453.47,878.72 L1453.27,878.72 L1449.97,879.42 L1449.97,864.52 L1447.17,864.52 L1447.17,880.02 L1438.27,881.82 L1438.27,867.72 L1435.47,867.72 L1435.47,882.42 L1431.57,883.22 C1430.97,883.32 1430.47,884.02 1430.47,884.62 L1430.47,884.82 L1430.47,890.62 L1430.47,890.42 C1430.47,891.22 1431.07,891.82 1431.87,891.82 L1432.17,891.82 L1435.47,891.12 L1435.47,907.62 L1431.57,908.42 C1430.97,908.52 1430.47,909.22 1430.47,909.82 L1430.47,915.62 C1430.47,916.42 1431.07,917.02 1431.87,917.02 L1432.17,917.02 L1435.47,916.32 L1435.47,931.22 L1438.27,931.22 L1438.27,915.72 L1447.17,913.92 L1447.17,928.02 L1449.97,928.02 L1449.97,913.32 L1453.77,912.62 C1454.37,912.52 1454.87,911.82 1454.87,911.22 L1454.87,905.32 C1454.87,904.52 1454.27,903.92 1453.47,903.92 L1453.27,903.92 L1449.97,904.62 L1449.97,888.12 L1453.77,887.42 M1438.27,907.12 L1438.27,890.52 L1447.17,888.72 L1447.17,905.22 L1438.27,907.12 "/>
<path class="Accidental" d="M1781.94,912.421 C1782.54,912.321 1783.04,911.621 1783.04,911.021 L1783.04,905.121 C1783.04,904.321 1782.44,903.721 1781.64,903.721 L1781.44,903.721 L1778.14,904.421 L1778.14,889.521 L1775.34,889.521 L1775.34,905.021 L1766.44,906.821 L1766.44,892.721 L1763.64,892.721 L1763.64,907.421 L1759.74,908.221 C1759.14,908.321 1758.64,909.021 1758.64,909.621 L1758.64,909.821 L1758.64,915.621 L1758.64,915.421 C1758.64,916.221 1759.24,916.821 1760.04,916.821 L1760.34,916.821 L1763.64,916.121 L1763.64,932.621 L1759.74,933.421 C1759.14,933.521 1758.64,934.221 1758.64,934.821 L1758.64,940.621 C1758.64,941.421 1759.24,942.021 1760.04,942.021 L1760.34,942.021 L1763.64,941.321 L1763.64,956.221 L1766.44,956.221 L1766.44,940.721 L1775.34,938.921 L1775.34,953.021 L1778.14,953.021 L1778.14,938.321 L1781.94,937.621 C1782.54,937.521 1783.04,936.821 1783.04,936.221 L1783.04,930.321 C1783.04,929.521 1782.44,928.921 1781.64,928.921 L1781.44,928.921 L1778.14,929.621 L1778.14,913.121 L1781.94,912.421 M1766.44,932.121 L1766.44,915.521 L1775.34,913.721 L1775.34,930.221 L1766.44,932.121 "/>
<path class="Accidental" d="M1922.89,924.922 C1923.49,924.822 1923.99,924.122 1923.99,923.522 L1923.99,917.622 C1923.99,916.822 1923.39,916.222 1922.59,916.222 L1922.39,916.222 L1919.09,916.922 L1919.09,902.022 L1916.29,902.022 L1916.29,917.522 L1907.39,919.322 L1907.39,905.222 L1904.59,905.222 L1904.59,919.922 L1900.69,920.722 C1900.09,920.822 1899.59,921.522 1899.59,922.122 L1899.59,922.322 L1899.59,928.122 L1899.59,927.922 C1899.59,928.722 1900.19,929.322 1900.99,929.322 L1901.29,929.322 L1904.59,928.622 L1904.59,945.122 L1900.69,945.922 C1900.09,946.022 1899.59,946.722 1899.59,947.322 L1899.59,953.122 C1899.59,953.922 1900.19,954.522 1900.99,954.522 L1901.29,954.522 L1904.59,953.822 L1904.59,968.722 L1907.39,968.722 L1907.39,953.222 L1916.29,951.422 L1916.29,965.522 L1919.09,965.522 L1919.09,950.822 L1922.89,950.122 C1923.49,950.022 1923.99,949.322 1923.99,948.722 L1923.99,942.822 C1923.99,942.022 1923.39,941.422 1922.59,941.422 L1922.39,941.422 L1919.09,942.122 L1919.09,925.622 L1922.89,924.922 M1907.39,944.622 L1907.39,928.022 L1916.29,926.222 L1916.29,942.722 L1907.39,944.622 "/>
<path class="Accidental" d="M2063.83,937.423 C2064.43,937.323 2064.93,936.623 2064.93,936.023 L2064.93,930.123 C2064.93,929.323 2064.33,928.723 2063.53,928.723 L2063.33,928.723 L2060.03,929.423 L2060.03,914.523 L2057.23,914.523 L2057.23,930.023 L2048.33,931.823 L2048.33,917.723 L2045.53,917.723 L2045.53,932.423 L2041.63,933.223 C2041.03,933.323 2040.53,934.023 2040.53,934.623 L2040.53,934.823 L2040.53,940.623 L2040.53,940.423 C2040.53,941.223 2041.13,941.823 2041.93,941.823 L2042.23,941.823 L2045.53,941.123 L2045.53,957.623 L2041.63,958.423 C2041.03,958.523 2040.53,959.223 2040.53,959.823 L2040.53,965.623 C2040.53,966.423 2041.13,967.023 2041.93,967.023 L2042.23,967.023 L2045.53,966.323 L2045.53,981.223 L2048.33,981.223 L2048.33,965.723 L2057.23,963.923 L2057.23,978.023 L2060.03,978.023 L2060.03,963.323 L2063.83,962.623 C2064.43,962.523 2064.93,961.823 2064.93,961.223 L2064.93,955.323 C2064.93,954.523 2064.33,953.923 2063.53,953.923 L2063.33,953.923 L2060.03,954.623 L2060.03,938.123 L2063.83,937.423 M2048.33,957.123 L2048.33,940.523 L2057.23,938.723 L2057.23,955.223 L2048.33,957.123 "/>
<path class="Accidental" d="M2376.08,962.424 C2376.68,962.324 2377.18,961.624 2377.18,961.024 L2377.18,955.124 C2377.18,954.324 2376.58,953.724 2375.78,953.724 L2375.58,953.724 L2372.28,954.424 L2372.28,939.524 L2369.48,939.524 L2369.48,955.024 L2360.58,956.824 L2360.58,942.724 L2357.78,942.724 L2357.78,957.424 L2353.88,958.224 C2353.28,958.324 2352.78,959.024 2352.78,959.624 L2352.78,959.824 L2352.78,965.624 L2352.78,965.424 C2352.78,966.224 2353.38,966.824 2354.18,966.824 L2354.48,966.824 L2357.78,966.124 L2357.78,982.624 L2353.88,983.424 C2353.28,983.524 2352.78,984.224 2352.78,984.824 L2352.78,990.624 C2352.78,991.424 2353.38,992.024 2354.18,992.024 L2354.48,992.024 L2357.78,991.324 L2357.78,1006.22 L2360.58,1006.22 L2360.58,990.724 L2369.48,988.924 L2369.48,1003.02 L2372.28,1003.02 L2372.28,988.324 L2376.08,987.624 C2376.68,987.524 2377.18,986.824 2377.18,986.224 L2377.18,980.324 C2377.18,979.524 2376.58,978.924 2375.78,978.924 L2375.58,978.924 L2372.28,979.624 L2372.28,963.124 L2376.08,962.424 M2360.58,982.124 L2360.58,965.524 L2369.48,963.724 L2369.48,980.224 L2360.58,982.124 "/>
<path class="Accidental" d="M2510.39,974.925 C2510.99,974.825 2511.49,974.125 2511.49,973.525 L2511.49,967.625 C2511.49,966.825 2510.89,966.225 2510.09,966.225 L2509.89,966.225 L2506.59,966.925 L2506.59,952.025 L2503.79,952.025 L2503.79,967.525 L2494.89,969.325 L2494.89,955.225 L2492.09,955.225 L2492.09,969.925 L2488.19,970.725 C2487.59,970.825 2487.09,971.525 2487.09,972.125 L2487.09,972.325 L2487.09,978.125 L2487.09,977.925 C2487.09,978.725 2487.69,979.325 2488.49,979.325 L2488.79,979.325 L2492.09,978.625 L2492.09,995.125 L2488.19,995.925 C2487.59,996.025 2487.09,996.725 2487.09,997.325 L2487.09,1003.13 C2487.09,1003.93 2487.69,1004.53 2488.49,1004.53 L2488.79,1004.53 L2492.09,1003.83 L2492.09,1018.73 L2494.89,1018.73 L2494.89,1003.23 L2503.79,1001.43 L2503.79,1015.53 L2506.59,1015.53 L2506.59,1000.83 L2510.39,1000.13 C2510.99,1000.03 2511.49,999.325 2511.49,998.725 L2511.49,992.825 C2511.49,992.025 2510.89,991.425 2510.09,991.425 L2509.89,991.425 L2506.59,992.125 L2506.59,975.625 L2510.39,974.925 M2494.89,994.625 L2494.89,978.025 L2503.79,976.225 L2503.79,992.725 L2494.89,994.625 "/>
<path class="Accidental" d="M478.302,774.913 C478.902,774.813 479.402,774.113 479.402,773.513 L479.402,767.613 C479.402,766.813 478.802,766.213 478.002,766.213 L477.802,766.213 L474.502,766.913 L474.502,752.013 L471.702,752.013 L471.702,767.513 L462.802,769.313 L462.802,755.213 L460.002,755.213 L460.002,769.913 L456.102,770.713 C455.502,770.813 455.002,771.513 455.002,772.113 L455.002,772.313 L455.002,778.113 L455.002,777.913 C455.002,778.713 455.602,779.313 456.402,779.313 L456.702,779.313 L460.002,778.613 L460.002,795.113 L456.102,795.913 C455.502,796.013 455.002,796.713 455.002,797.313 L455.002,803.113 C455.002,803.913 455.602,804.513 456.402,804.513 L456.702,804.513 L460.002,803.813 L460.002,818.713 L462.802,818.713 L462.802,803.213 L471.702,801.413 L471.702,815.513 L474.502,815.513 L474.502,800.813 L478.302,800.113 C478.902,800.013 479.402,799.313 479.402,798.713 L479.402,792.813 C479.402,792.013 478.802,791.413 478.002,791.413 L477.802,791.413 L474.502,792.113 L474.502,775.613 L478.302,774.913 M462.802,794.613 L462.802,778.013 L471.702,776.213 L471.702,792.713 L462.802,794.613 "/>
<path class="Accidental" d="M617.152,762.412 C617.752,762.312 618.252,761.612 618.252,761.012 L618.252,755.112 C618.252,754.312 617.652,753.712 616.852,753.712 L616.652,753.712 L613.352,754.412 L613.352,739.512 L610.552,739.512 L610.552,755.012 L601.652,756.812 L601.652,742.712 L598.852,742.712 L598.852,757.412 L594.952,758.212 C594.352,758.312 593.852,759.012 593.852,759.612 L593.852,759.812 L593.852,765.612 L593.852,765.412 C593.852,766.212 594.452,766.812 595.252,766.812 L595.552,766.812 L598.852,766.112 L598.852,782.612 L594.952,783.412 C594.352,783.512 593.852,784.212 593.852,784.812 L593.852,790.612 C593.852,791.412 594.452,792.012 595.252,792.012 L595.552,792.012 L598.852,791.312 L598.852,806.212 L601.652,806.212 L601.652,790.712 L610.552,788.912 L610.552,803.012 L613.352,803.012 L613.352,788.312 L617.152,787.612 C617.752,787.512 618.252,786.812 618.252,786.212 L618.252,780.312 C618.252,779.512 617.652,778.912 616.852,778.912 L616.652,778.912 L613.352,779.612 L613.352,763.112 L617.152,762.412 M601.652,782.112 L601.652,765.512 L610.552,763.712 L610.552,780.212 L601.652,782.112 "/>
<path class="Accidental" d="M877.349,737.41 C877.949,737.31 878.449,736.61 878.449,736.01 L878.449,730.11 C878.449,729.31 877.849,728.71 877.049,728.71 L876.849,728.71 L873.549,729.41 L873.549,714.51 L870.749,714.51 L870.749,730.01 L861.849,731.81 L861.849,717.71 L859.049,717.71 L859.049,732.41 L855.149,733.21 C854.549,733.31 854.049,734.01 854.049,734.61 L854.049,734.81 L854.049,740.61 L854.049,740.41 C854.049,741.21 854.649,741.81 855.449,741.81 L855.749,741.81 L859.049,741.11 L859.049,757.61 L855.149,758.41 C854.549,758.51 854.049,759.21 854.049,759.81 L854.049,765.61 C854.049,766.41 854.649,767.01 855.449,767.01 L855.749,767.01 L859.049,766.31 L859.049,781.21 L861.849,781.21 L861.849,765.71 L870.749,763.91 L870.749,778.01 L873.549,778.01 L873.549,763.31 L877.349,762.61 C877.949,762.51 878.449,761.81 878.449,761.21 L878.449,755.31 C878.449,754.51 877.849,753.91 877.049,753.91 L876.849,753.91 L873.549,754.61 L873.549,738.11 L877.349,737.41 M861.849,757.11 L861.849,740.51 L870.749,738.71 L870.749,755.21 L861.849,757.11 "/>
<path class="Accidental" d="M1064.35,724.909 C1064.95,724.809 1065.45,724.109 1065.45,723.509 L1065.45,717.609 C1065.45,716.809 1064.85,716.209 1064.05,716.209 L1063.85,716.209 L1060.55,716.909 L1060.55,702.009 L1057.75,702.009 L1057.75,717.509 L1048.85,719.309 L1048.85,705.209 L1046.05,705.209 L1046.05,719.909 L1042.15,720.709 C1041.55,720.809 1041.05,721.509 1041.05,722.109 L1041.05,722.309 L1041.05,728.109 L1041.05,727.909 C1041.05,728.709 1041.65,729.309 1042.45,729.309 L1042.75,729.309 L1046.05,728.609 L1046.05,745.109 L1042.15,745.909 C1041.55,746.009 1041.05,746.709 1041.05,747.309 L1041.05,753.109 C1041.05,753.909 1041.65,754.509 1042.45,754.509 L1042.75,754.509 L1046.05,753.809 L1046.05,768.709 L1048.85,768.709 L1048.85,753.209 L1057.75,751.409 L1057.75,765.509 L1060.55,765.509 L1060.55,750.809 L1064.35,750.109 C1064.95,750.009 1065.45,749.309 1065.45,748.709 L1065.45,742.809 C1065.45,742.009 1064.85,741.409 1064.05,741.409 L1063.85,741.409 L1060.55,742.109 L1060.55,725.609 L1064.35,724.909 M1048.85,744.609 L1048.85,728.009 L1057.75,726.209 L1057.75,742.709 L1048.85,744.609 "/>
<path class="Accidental" d="M1197.07,712.409 C1197.67,712.309 1198.17,711.609 1198.17,711.009 L1198.17,705.109 C1198.17,704.309 1197.57,703.709 1196.77,703.709 L1196.57,703.709 L1193.27,704.409 L1193.27,689.509 L1190.47,689.509 L1190.47,705.009 L1181.57,706.809 L1181.57,692.709 L1178.77,692.709 L1178.77,707.409 L1174.87,708.209 C1174.27,708.309 1173.77,709.009 1173.77,709.609 L1173.77,709.809 L1173.77,715.609 L1173.77,715.409 C1173.77,716.209 1174.37,716.809 1175.17,716.809 L1175.47,716.809 L1178.77,716.109 L1178.77,732.609 L1174.87,733.409 C1174.27,733.509 1173.77,734.209 1173.77,734.809 L1173.77,740.609 C1173.77,741.409 1174.37,742.009 1175.17,742.009 L1175.47,742.009 L1178.77,741.309 L1178.77,756.209 L1181.57,756.209 L1181.57,740.709 L1190.47,738.909 L1190.47,753.009 L1193.27,753.009 L1193.27,738.309 L1197.07,737.609 C1197.67,737.509 1198.17,736.809 1198.17,736.209 L1198.17,730.309 C1198.17,729.509 1197.57,728.909 1196.77,728.909 L1196.57,728.909 L1193.27,729.609 L1193.27,713.109 L1197.07,712.409 M1181.57,732.109 L1181.57,715.509 L1190.47,713.709 L1190.47,730.209 L1181.57,732.109 "/>
<path class="Accidental" d="M1462.52,687.407 C1463.12,687.307 1463.62,686.607 1463.62,686.007 L1463.62,680.107 C1463.62,679.307 1463.02,678.707 1462.22,678.707 L1462.02,678.707 L1458.72,679.407 L1458.72,664.507 L1455.92,664.507 L1455.92,680.007 L1447.02,681.807 L1447.02,667.707 L1444.22,667.707 L1444.22,682.407 L1440.32,683.207 C1439.72,683.307 1439.22,684.007 1439.22,684.607 L1439.22,684.807 L1439.22,690.607 L1439.22,690.407 C1439.22,691.207 1439.82,691.807 1440.62,691.807 L1440.92,691.807 L1444.22,691.107 L1444.22,707.607 L1440.32,708.407 C1439.72,708.507 1439.22,709.207 1439.22,709.807 L1439.22,715.607 C1439.22,716.407 1439.82,717.007 1440.62,717.007 L1440.92,717.007 L1444.22,716.307 L1444.22,731.207 L1447.02,731.207 L1447.02,715.707 L1455.92,713.907 L1455.92,728.007 L1458.72,728.007 L1458.72,713.307 L1462.52,712.607 C1463.12,712.507 1463.62,711.807 1463.62,711.207 L1463.62,705.307 C1463.62,704.507 1463.02,703.907 1462.22,703.907 L1462.02,703.907 L1458.72,704.607 L1458.72,688.107 L1462.52,687.407 M1447.02,707.107 L1447.02,690.507 L1455.92,688.707 L1455.92,705.207 L1447.02,707.107 "/>
<path class="Accidental" d="M1781.94,712.409 C1782.54,712.309 1783.04,711.609 1783.04,711.009 L1783.04,705.109 C1783.04,704.309 1782.44,703.709 1781.64,703.709 L1781.44,703.709 L1778.14,704.409 L1778.14,689.509 L1775.34,689.509 L1775.34,705.009 L1766.44,706.809 L1766.44,692.709 L1763.64,692.709 L1763.64,707.409 L1759.74,708.209 C1759.14,708.309 1758.64,709.009 1758.64,709.609 L1758.64,709.809 L1758.64,715.609 L1758.64,715.409 C1758.64,716.209 1759.24,716.809 1760.04,716.809 L1760.34,716.809 L1763.64,716.109 L1763.64,732.609 L1759.74,733.409 C1759.14,733.509 1758.64,734.209 1758.64,734.809 L1758.64,740.609 C1758.64,741.409 1759.24,742.009 1760.04,742.009 L1760.34,742.009 L1763.64,741.309 L1763.64,756.209 L1766.44,756.209 L1766.44,740.709 L1775.34,738.909 L1775.34,753.009 L1778.14,753.009 L1778.14,738.309 L1781.94,737.609 C1782.54,737.509 1783.04,736.809 1783.04,736.209 L1783.04,730.309 C1783.04,729.509 1782.44,728.909 1781.64,728.909 L1781.44,728.909 L1778.14,729.609 L1778.14,713.109 L1781.94,712.409 M1766.44,732.109 L1766.44,715.509 L1775.34,713.709 L1775.34,730.209 L1766.44,732.109 "/>
<path class="Accidental" d="M1922.89,724.909 C1923.49,724.809 1923.99,724.109 1923.99,723.509 L1923.99,717.609 C1923.99,716.809 1923.39,716.209 1922.59,716.209 L1922.39,716.209 L1919.09,716.909 L1919.09,702.009 L1916.29,702.009 L1916.29,717.509 L1907.39,719.309 L1907.39,705.209 L1904.59,705.209 L1904.59,719.909 L1900.69,720.709 C1900.09,720.809 1899.59,721.509 1899.59,722.109 L1899.59,722.309 L1899.59,728.109 L1899.59,727.909 C1899.59,728.709 1900.19,729.309 1900.99,729.309 L1901.29,729.309 L1904.59,728.609 L1904.59,745.109 L1900.69,745.909 C1900.09,746.009 1899.59,746.709 1899.59,747.309 L1899.59,753.109 C1899.59,753.909 1900.19,754.509 1900.99,754.509 L1901.29,754.509 L1904.59,753.809 L1904.59,768.709 L1907.39,768.709 L1907.39,753.209 L1916.29,751.409 L1916.29,765.509 L1919.09,765.509 L1919.09,750.809 L1922.89,750.109 C1923.49,750.009 1923.99,749.309 1923.99,748.709 L1923.99,742.809 C1923.99,742.009 1923.39,741.409 1922.59,741.409 L1922.39,741.409 L1919.09,742.109 L1919.09,725.609 L1922.89,724.909 M1907.39,744.609 L1907.39,728.009 L1916.29,726.209 L1916.29,742.709 L1907.39,744.609 "/>
<path class="Accidental" d="M2063.83,737.41 C2064.43,737.31 2064.93,736.61 2064.93,736.01 L2064.93,730.11 C2064.93,729.31 2064.33,728.71 2063.53,728.71 L2063.33,728.71 L2060.03,729.41 L2060.03,714.51 L2057.23,714.51 L2057.23,730.01 L2048.33,731.81 L2048.33,717.71 L2045.53,717.71 L2045.53,732.41 L2041.63,733.21 C2041.03,733.31 2040.53,734.01 2040.53,734.61 L2040.53,734.81 L2040.53,740.61 L2040.53,740.41 C2040.53,741.21 2041.13,741.81 2041.93,741.81 L2042.23,741.81 L2045.53,741.11 L2045.53,757.61 L2041.63,758.41 C2041.03,758.51 2040.53,759.21 2040.53,759.81 L2040.53,765.61 C2040.53,766.41 2041.13,767.01 2041.93,767.01 L2042.23,767.01 L2045.53,766.31 L2045.53,781.21 L2048.33,781.21 L2048.33,765.71 L2057.23,763.91 L2057.23,778.01 L2060.03,778.01 L2060.03,763.31 L2063.83,762.61 C2064.43,762.51 2064.93,761.81 2064.93,761.21 L2064.93,755.31 C2064.93,754.51 2064.33,753.91 2063.53,753.91 L2063.33,753.91 L2060.03,754.61 L2060.03,738.11 L2063.83,737.41 M2048.33,757.11 L2048.33,740.51 L2057.23,738.71 L2057.23,755.21 L2048.33,757.11 "/>
<path class="Accidental" d="M2376.08,762.412 C2376.68,762.312 2377.18,761.612 2377.18,761.012 L2377.18,755.112 C2377.18,754.312 2376.58,753.712 2375.78,753.712 L2375.58,753.712 L2372.28,754.412 L2372.28,739.512 L2369.48,739.512 L2369.48,755.012 L2360.58,756.812 L2360.58,742.712 L2357.78,742.712 L2357.78,757.412 L2353.88,758.212 C2353.28,758.312 2352.78,759.012 2352.78,759.612 L2352.78,759.812 L2352.78,765.612 L2352.78,765.412 C2352.78,766.212 2353.38,766.812 2354.18,766.812 L2354.48,766.812 L2357.78,766.112 L2357.78,782.612 L2353.88,783.412 C2353.28,783.512 2352.78,784.212 2352.78,784.812 L2352.78,790.612 C2352.78,791.412 2353.38,792.012 2354.18,792.012 L2354.48,792.012 L2357.78,791.312 L2357.78,806.212 L2360.58,806.212 L2360.58,790.712 L2369.48,788.912 L2369.48,803.012 L2372.28,803.012 L2372.28,788.312 L2376.08,787.612 C2376.68,787.512 2377.18,786.812 2377.18,786.212 L2377.18,780.312 C2377.18,779.512 2376.58,778.912 2375.78,778.912 L2375.58,778.912 L2372.28,779.612 L2372.28,763.112 L2376.08,762.412 M2360.58,782.112 L2360.58,765.512 L2369.48,763.712 L2369.48,780.212 L2360.58,782.112 "/>
<path class="Accidental" d="M2501.64,774.913 C2502.24,774.813 2502.74,774.113 2502.74,773.513 L2502.74,767.613 C2502.74,766.813 2502.14,766.213 2501.34,766.213 L2501.14,766.213 L2497.84,766.913 L2497.84,752.013 L2495.04,752.013 L2495.04,767.513 L2486.14,769.313 L2486.14,755.213 L2483.34,755.213 L2483.34,769.913 L2479.44,770.713 C2478.84,770.813 2478.34,771.513 2478.34,772.113 L2478.34,772.313 L2478.34,778.113 L2478.34,777.913 C2478.34,778.713 2478.94,779.313 2479.74,779.313 L2480.04,779.313 L2483.34,778.613 L2483.34,795.113 L2479.44,795.913 C2478.84,796.013 2478.34,796.713 2478.34,797.313 L2478.34,803.113 C2478.34,803.913 2478.94,804.513 2479.74,804.513 L2480.04,804.513 L2483.34,803.813 L2483.34,818.713 L2486.14,818.713 L2486.14,803.213 L2495.04,801.413 L2495.04,815.513 L2497.84,815.513 L2497.84,800.813 L2501.64,800.113 C2502.24,800.013 2502.74,799.313 2502.74,798.713 L2502.74,792.813 C2502.74,792.013 2502.14,791.413 2501.34,791.413 L2501.14,791.413 L2497.84,792.113 L2497.84,775.613 L2501.64,774.913 M2486.14,794.613 L2486.14,778.013 L2495.04,776.213 L2495.04,792.713 L2486.14,794.613 "/>
<polyline class="LedgerLine" fill="none" stroke="#000000" stroke-width="4.00" stroke-linejoin="bevel" points="1328.4,898.02 1378.39,898.02"/>
<polyline class="LedgerLine" fill="none" stroke="#000000" stroke-width="4.00" stroke-linejoin="bevel" points="1461.12,898.02 1511.12,898.02"/>
<polyline class="LedgerLine" fill="none" stroke="#000000" stroke-width="4.00" stroke-linejoin="bevel" points="1639.6,898.02 1689.59,898.02"/>
<polyline class="LedgerLine" fill="none" stroke="#000000" stroke-width="4.00" stroke-linejoin="bevel" points="485.653,785.513 535.648,785.513"/>
<polyline class="LedgerLine" fill="none" stroke="#000000" stroke-width="4.00" stroke-linejoin="bevel" points="2508.99,785.513 2558.98,785.513"/>
<polyline class="Stem" fill="none" stroke="#000000" stroke-width="2.75" stroke-linejoin="bevel" points="525.522,982.165 525.522,904.27"/>
<polyline class="Stem" fill="none" stroke="#000000" stroke-width="2.75" stroke-linejoin="bevel" points="625.877,976.545 625.877,1051.15"/>
<polyline class="Stem" fill="none" stroke="#000000" stroke-width="2.75" stroke-linejoin="bevel" points="755.976,951.543 755.976,1032.4"/>
<polyline class="Stem" fill="none" stroke="#000000" stroke-width="2.75" stroke-linejoin="bevel" points="886.075,951.543 886.075,1032.4"/>
<polyline class="Stem" fill="none" stroke="#000000" stroke-width="2.75" stroke-linejoin="bevel" points="1073.08,939.042 1073.08,1023.03"/>
<polyline class="Stem" fill="none" stroke="#000000" stroke-width="2.75" stroke-linejoin="bevel" points="1205.8,926.542 1205.8,1010.53"/>
<polyline class="Stem" fill="none" stroke="#000000" stroke-width="2.75" stroke-linejoin="bevel" points="1338.52,901.54 1338.52,985.525"/>
<polyline class="Stem" fill="none" stroke="#000000" stroke-width="2.75" stroke-linejoin="bevel" points="1471.25,901.54 1471.25,985.525"/>
<polyline class="Stem" fill="none" stroke="#000000" stroke-width="2.75" stroke-linejoin="bevel" points="1649.72,901.54 1649.72,985.525"/>
<polyline class="Stem" fill="none" stroke="#000000" stroke-width="2.75" stroke-linejoin="bevel" points="1790.67,926.542 1790.67,1010.53"/>
<polyline class="Stem" fill="none" stroke="#000000" stroke-width="2.75" stroke-linejoin="bevel" points="1931.61,939.042 1931.61,1023.03"/>
<polyline class="Stem" fill="none" stroke="#000000" stroke-width="2.75" stroke-linejoin="bevel" points="2072.56,951.543 2072.56,1032.4"/>
<polyline class="Stem" fill="none" stroke="#000000" stroke-width="2.75" stroke-linejoin="bevel" points="2250.5,951.543 2250.5,1032.4"/>
<polyline class="Stem" fill="none" stroke="#000000" stroke-width="2.75" stroke-linejoin="bevel" points="2384.81,976.545 2384.81,1051.15"/>
<polyline class="Stem" fill="none" stroke="#000000" stroke-width="2.75" stroke-linejoin="bevel" points="2548.86,982.085 2548.86,904.27"/>
<polyline class="Stem" fill="none" stroke="#000000" stroke-width="2.75" stroke-linejoin="bevel" points="525.522,782.152 525.522,698.007"/>
<polyline class="Stem" fill="none" stroke="#000000" stroke-width="2.75" stroke-linejoin="bevel" points="655.621,769.652 655.621,685.506"/>
<polyline class="Stem" fill="none" stroke="#000000" stroke-width="2.75" stroke-linejoin="bevel" points="785.72,744.65 785.72,660.505"/>
<polyline class="Stem" fill="none" stroke="#000000" stroke-width="2.75" stroke-linejoin="bevel" points="915.819,744.65 915.819,660.505"/>
<polyline class="Stem" fill="none" stroke="#000000" stroke-width="2.75" stroke-linejoin="bevel" points="1102.82,732.149 1102.82,651.129"/>
<polyline class="Stem" fill="none" stroke="#000000" stroke-width="2.75" stroke-linejoin="bevel" points="1235.54,719.648 1235.54,641.754"/>
<polyline class="Stem" fill="none" stroke="#000000" stroke-width="2.75" stroke-linejoin="bevel" points="1338.52,701.527 1338.52,779.262"/>
<polyline class="Stem" fill="none" stroke="#000000" stroke-width="2.75" stroke-linejoin="bevel" points="1471.25,701.527 1471.25,779.262"/>
<polyline class="Stem" fill="none" stroke="#000000" stroke-width="2.75" stroke-linejoin="bevel" points="1649.72,701.527 1649.72,779.262"/>
<polyline class="Stem" fill="none" stroke="#000000" stroke-width="2.75" stroke-linejoin="bevel" points="1820.41,719.648 1820.41,641.754"/>
<polyline class="Stem" fill="none" stroke="#000000" stroke-width="2.75" stroke-linejoin="bevel" points="1961.36,732.149 1961.36,651.129"/>
<polyline class="Stem" fill="none" stroke="#000000" stroke-width="2.75" stroke-linejoin="bevel" points="2102.3,744.65 2102.3,660.505"/>
<polyline class="Stem" fill="none" stroke="#000000" stroke-width="2.75" stroke-linejoin="bevel" points="2280.25,744.65 2280.25,660.505"/>
<polyline class="Stem" fill="none" stroke="#000000" stroke-width="2.75" stroke-linejoin="bevel" points="2414.55,769.652 2414.55,685.506"/>
<polyline class="Stem" fill="none" stroke="#000000" stroke-width="2.75" stroke-linejoin="bevel" points="2548.86,782.072 2548.86,698.007"/>
<path class="Note" d="M525.903,977.325 C524.403,974.625 521.503,972.925 517.603,972.525 C517.003,972.425 516.503,972.425 515.903,972.425 C512.403,972.425 508.603,973.425 505.103,975.325 C498.503,978.925 494.403,984.825 494.403,989.925 C494.403,991.325 494.603,992.625 495.303,993.825 C496.803,996.525 499.803,998.225 503.703,998.625 C504.303,998.725 504.803,998.725 505.403,998.725 C508.903,998.725 512.603,997.725 516.103,995.825 C522.703,992.225 526.903,986.425 526.903,981.325 C526.903,979.925 526.603,978.525 525.903,977.325"/>
<path class="Note" d="M656.002,964.824 C654.502,962.124 651.602,960.424 647.702,960.024 C647.102,959.924 646.602,959.924 646.002,959.924 C642.502,959.924 638.702,960.924 635.202,962.824 C628.602,966.424 624.502,972.324 624.502,977.424 C624.502,978.824 624.702,980.124 625.402,981.324 C626.902,984.024 629.902,985.724 633.802,986.124 C634.402,986.224 634.902,986.224 635.502,986.224 C639.002,986.224 642.702,985.224 646.202,983.324 C652.802,979.724 657.002,973.924 657.002,968.824 C657.002,967.424 656.702,966.024 656.002,964.824"/>
<path class="Note" d="M786.101,939.823 C784.601,937.123 781.701,935.423 777.801,935.023 C777.201,934.923 776.701,934.923 776.101,934.923 C772.601,934.923 768.801,935.923 765.301,937.823 C758.701,941.423 754.601,947.323 754.601,952.423 C754.601,953.823 754.801,955.123 755.501,956.323 C757.001,959.023 760.001,960.723 763.901,961.123 C764.501,961.223 765.001,961.223 765.601,961.223 C769.101,961.223 772.801,960.223 776.301,958.323 C782.901,954.723 787.101,948.923 787.101,943.823 C787.101,942.423 786.801,941.023 786.101,939.823"/>
<path class="Note" d="M916.2,939.823 C914.7,937.123 911.8,935.423 907.9,935.023 C907.3,934.923 906.8,934.923 906.2,934.923 C902.7,934.923 898.9,935.923 895.4,937.823 C888.8,941.423 884.7,947.323 884.7,952.423 C884.7,953.823 884.9,955.123 885.6,956.323 C887.1,959.023 890.1,960.723 894,961.123 C894.6,961.223 895.1,961.223 895.7,961.223 C899.2,961.223 902.9,960.223 906.4,958.323 C913,954.723 917.2,948.923 917.2,943.823 C917.2,942.423 916.9,941.023 916.2,939.823"/>
<path class="Note" d="M1103.2,927.322 C1101.7,924.622 1098.8,922.922 1094.9,922.522 C1094.3,922.422 1093.8,922.422 1093.2,922.422 C1089.7,922.422 1085.9,923.422 1082.4,925.322 C1075.8,928.922 1071.7,934.822 1071.7,939.922 C1071.7,941.322 1071.9,942.622 1072.6,943.822 C1074.1,946.522 1077.1,948.222 1081,948.622 C1081.6,948.722 1082.1,948.722 1082.7,948.722 C1086.2,948.722 1089.9,947.722 1093.4,945.822 C1100,942.222 1104.2,936.422 1104.2,931.322 C1104.2,929.922 1103.9,928.522 1103.2,927.322"/>
<path class="Note" d="M1235.92,914.821 C1234.42,912.121 1231.52,910.421 1227.62,910.021 C1227.02,909.921 1226.52,909.921 1225.92,909.921 C1222.42,909.921 1218.62,910.921 1215.12,912.821 C1208.52,916.421 1204.42,922.321 1204.42,927.421 C1204.42,928.821 1204.62,930.121 1205.32,931.321 C1206.82,934.021 1209.82,935.721 1213.72,936.121 C1214.32,936.221 1214.82,936.221 1215.42,936.221 C1218.92,936.221 1222.62,935.221 1226.12,933.321 C1232.72,929.721 1236.92,923.921 1236.92,918.821 C1236.92,917.421 1236.62,916.021 1235.92,914.821"/>
<path class="Note" d="M1368.65,889.82 C1367.15,887.12 1364.25,885.42 1360.35,885.02 C1359.75,884.92 1359.25,884.92 1358.65,884.92 C1355.15,884.92 1351.35,885.92 1347.85,887.82 C1341.25,891.42 1337.15,897.32 1337.15,902.42 C1337.15,903.82 1337.35,905.12 1338.05,906.32 C1339.55,909.02 1342.55,910.72 1346.45,911.12 C1347.05,911.22 1347.55,911.22 1348.15,911.22 C1351.65,911.22 1355.35,910.22 1358.85,908.32 C1365.45,904.72 1369.65,898.92 1369.65,893.82 C1369.65,892.42 1369.35,891.02 1368.65,889.82"/>
<path class="Note" d="M1501.37,889.82 C1499.87,887.12 1496.97,885.42 1493.07,885.02 C1492.47,884.92 1491.97,884.92 1491.37,884.92 C1487.87,884.92 1484.07,885.92 1480.57,887.82 C1473.97,891.42 1469.87,897.32 1469.87,902.42 C1469.87,903.82 1470.07,905.12 1470.77,906.32 C1472.27,909.02 1475.27,910.72 1479.17,911.12 C1479.77,911.22 1480.27,911.22 1480.87,911.22 C1484.37,911.22 1488.07,910.22 1491.57,908.32 C1498.17,904.72 1502.37,898.92 1502.37,893.82 C1502.37,892.42 1502.07,891.02 1501.37,889.82"/>
<path class="Note" d="M1679.85,889.82 C1678.35,887.12 1675.45,885.42 1671.55,885.02 C1670.95,884.92 1670.45,884.92 1669.85,884.92 C1666.35,884.92 1662.55,885.92 1659.05,887.82 C1652.45,891.42 1648.35,897.32 1648.35,902.42 C1648.35,903.82 1648.55,905.12 1649.25,906.32 C1650.75,909.02 1653.75,910.72 1657.65,911.12 C1658.25,911.22 1658.75,911.22 1659.35,911.22 C1662.85,911.22 1666.55,910.22 1670.05,908.32 C1676.65,904.72 1680.85,898.92 1680.85,893.82 C1680.85,892.42 1680.55,891.02 1679.85,889.82"/>
<path class="Note" d="M1820.79,914.821 C1819.29,912.121 1816.39,910.421 1812.49,910.021 C1811.89,909.921 1811.39,909.921 1810.79,909.921 C1807.29,909.921 1803.49,910.921 1799.99,912.821 C1793.39,916.421 1789.29,922.321 1789.29,927.421 C1789.29,928.821 1789.49,930.121 1790.19,931.321 C1791.69,934.021 1794.69,935.721 1798.59,936.121 C1799.19,936.221 1799.69,936.221 1800.29,936.221 C1803.79,936.221 1807.49,935.221 1810.99,933.321 C1817.59,929.721 1821.79,923.921 1821.79,918.821 C1821.79,917.421 1821.49,916.021 1820.79,914.821"/>
<path class="Note" d="M1961.74,927.322 C1960.24,924.622 1957.34,922.922 1953.44,922.522 C1952.84,922.422 1952.34,922.422 1951.74,922.422 C1948.24,922.422 1944.44,923.422 1940.94,925.322 C1934.34,928.922 1930.24,934.822 1930.24,939.922 C1930.24,941.322 1930.44,942.622 1931.14,943.822 C1932.64,946.522 1935.64,948.222 1939.54,948.622 C1940.14,948.722 1940.64,948.722 1941.24,948.722 C1944.74,948.722 1948.44,947.722 1951.94,945.822 C1958.54,942.222 1962.74,936.422 1962.74,931.322 C1962.74,929.922 1962.44,928.522 1961.74,927.322"/>
<path class="Note" d="M2102.68,939.823 C2101.18,937.123 2098.28,935.423 2094.38,935.023 C2093.78,934.923 2093.28,934.923 2092.68,934.923 C2089.18,934.923 2085.38,935.923 2081.88,937.823 C2075.28,941.423 2071.18,947.323 2071.18,952.423 C2071.18,953.823 2071.38,955.123 2072.08,956.323 C2073.58,959.023 2076.58,960.723 2080.48,961.123 C2081.08,961.223 2081.58,961.223 2082.18,961.223 C2085.68,961.223 2089.38,960.223 2092.88,958.323 C2099.48,954.723 2103.68,948.923 2103.68,943.823 C2103.68,942.423 2103.38,941.023 2102.68,939.823"/>
<path class="Note" d="M2280.63,939.823 C2279.13,937.123 2276.23,935.423 2272.33,935.023 C2271.73,934.923 2271.23,934.923 2270.63,934.923 C2267.13,934.923 2263.33,935.923 2259.83,937.823 C2253.23,941.423 2249.13,947.323 2249.13,952.423 C2249.13,953.823 2249.33,955.123 2250.03,956.323 C2251.53,959.023 2254.53,960.723 2258.43,961.123 C2259.03,961.223 2259.53,961.223 2260.13,961.223 C2263.63,961.223 2267.33,960.223 2270.83,958.323 C2277.43,954.723 2281.63,948.923 2281.63,943.823 C2281.63,942.423 2281.33,941.023 2280.63,939.823"/>
<path class="Note" d="M2414.93,964.824 C2413.43,962.124 2410.53,960.424 2406.63,960.024 C2406.03,959.924 2405.53,959.924 2404.93,959.924 C2401.43,959.924 2397.63,960.924 2394.13,962.824 C2387.53,966.424 2383.43,972.324 2383.43,977.424 C2383.43,978.824 2383.63,980.124 2384.33,981.324 C2385.83,984.024 2388.83,985.724 2392.73,986.124 C2393.33,986.224 2393.83,986.224 2394.43,986.224 C2397.93,986.224 2401.63,985.224 2405.13,983.324 C2411.73,979.724 2415.93,973.924 2415.93,968.824 C2415.93,967.424 2415.63,966.024 2414.93,964.824"/>
<path class="Note" d="M2549.24,977.325 C2547.74,974.625 2544.84,972.925 2540.94,972.525 C2540.34,972.425 2539.84,972.425 2539.24,972.425 C2535.74,972.425 2531.94,973.425 2528.44,975.325 C2521.84,978.925 2517.74,984.725 2517.74,989.825 C2517.74,991.225 2518.14,992.625 2518.84,993.825 C2520.34,996.625 2523.14,998.225 2527.04,998.625 C2527.64,998.725 2528.14,998.725 2528.74,998.725 C2532.24,998.725 2536.04,997.725 2539.54,995.825 C2546.14,992.225 2550.24,986.325 2550.24,981.225 C2550.24,979.825 2549.94,978.525 2549.24,977.325 M2545.04,983.625 C2543.34,985.425 2540.14,987.725 2536.54,989.825 C2532.94,991.925 2529.24,993.625 2526.94,994.325 C2526.44,994.425 2525.84,994.525 2525.34,994.525 C2523.84,994.525 2522.54,993.825 2521.84,992.725 C2521.54,992.125 2521.34,991.525 2521.34,990.925 C2521.34,989.825 2521.84,988.725 2522.94,987.525 C2524.64,985.725 2527.84,983.325 2531.44,981.225 C2535.04,979.125 2538.74,977.425 2541.14,976.825 L2541.34,976.825 C2541.94,976.625 2542.44,976.525 2542.94,976.525 C2544.34,976.525 2545.44,977.125 2546.14,978.425 C2546.44,979.025 2546.64,979.525 2546.64,980.125 C2546.64,981.425 2545.94,982.725 2545.04,983.625"/>
<path class="Note" d="M525.903,777.313 C524.403,774.613 521.503,772.913 517.603,772.513 C517.003,772.413 516.503,772.413 515.903,772.413 C512.403,772.413 508.603,773.413 505.103,775.313 C498.503,778.913 494.403,784.813 494.403,789.913 C494.403,791.313 494.603,792.613 495.303,793.813 C496.803,796.513 499.803,798.213 503.703,798.613 C504.303,798.713 504.803,798.713 505.403,798.713 C508.903,798.713 512.603,797.713 516.103,795.813 C522.703,792.213 526.903,786.413 526.903,781.313 C526.903,779.913 526.603,778.513 525.903,777.313"/>
<path class="Note" d="M656.002,764.812 C654.502,762.112 651.602,760.412 647.702,760.012 C647.102,759.912 646.602,759.912 646.002,759.912 C642.502,759.912 638.702,760.912 635.202,762.812 C628.602,766.412 624.502,772.312 624.502,777.412 C624.502,778.812 624.702,780.112 625.402,781.312 C626.902,784.012 629.902,785.712 633.802,786.112 C634.402,786.212 634.902,786.212 635.502,786.212 C639.002,786.212 642.702,785.212 646.202,783.312 C652.802,779.712 657.002,773.912 657.002,768.812 C657.002,767.412 656.702,766.012 656.002,764.812"/>
<path class="Note" d="M786.101,739.81 C784.601,737.11 781.701,735.41 777.801,735.01 C777.201,734.91 776.701,734.91 776.101,734.91 C772.601,734.91 768.801,735.91 765.301,737.81 C758.701,741.41 754.601,747.31 754.601,752.41 C754.601,753.81 754.801,755.11 755.501,756.31 C757.001,759.01 760.001,760.71 763.901,761.11 C764.501,761.21 765.001,761.21 765.601,761.21 C769.101,761.21 772.801,760.21 776.301,758.31 C782.901,754.71 787.101,748.91 787.101,743.81 C787.101,742.41 786.801,741.01 786.101,739.81"/>
<path class="Note" d="M916.2,739.81 C914.7,737.11 911.8,735.41 907.9,735.01 C907.3,734.91 906.8,734.91 906.2,734.91 C902.7,734.91 898.9,735.91 895.4,737.81 C888.8,741.41 884.7,747.31 884.7,752.41 C884.7,753.81 884.9,755.11 885.6,756.31 C887.1,759.01 890.1,760.71 894,761.11 C894.6,761.21 895.1,761.21 895.7,761.21 C899.2,761.21 902.9,760.21 906.4,758.31 C913,754.71 917.2,748.91 917.2,743.81 C917.2,742.41 916.9,741.01 916.2,739.81"/>
<path class="Note" d="M1103.2,727.309 C1101.7,724.609 1098.8,722.909 1094.9,722.509 C1094.3,722.409 1093.8,722.409 1093.2,722.409 C1089.7,722.409 1085.9,723.409 1082.4,725.309 C1075.8,728.909 1071.7,734.809 1071.7,739.909 C1071.7,741.309 1071.9,742.609 1072.6,743.809 C1074.1,746.509 1077.1,748.209 1081,748.609 C1081.6,748.709 1082.1,748.709 1082.7,748.709 C1086.2,748.709 1089.9,747.709 1093.4,745.809 C1100,742.209 1104.2,736.409 1104.2,731.309 C1104.2,729.909 1103.9,728.509 1103.2,727.309"/>
<path class="Note" d="M1235.92,714.809 C1234.42,712.109 1231.52,710.409 1227.62,710.009 C1227.02,709.909 1226.52,709.909 1225.92,709.909 C1222.42,709.909 1218.62,710.909 1215.12,712.809 C1208.52,716.409 1204.42,722.309 1204.42,727.409 C1204.42,728.809 1204.62,730.109 1205.32,731.309 C1206.82,734.009 1209.82,735.709 1213.72,736.109 C1214.32,736.209 1214.82,736.209 1215.42,736.209 C1218.92,736.209 1222.62,735.209 1226.12,733.309 C1232.72,729.709 1236.92,723.909 1236.92,718.809 C1236.92,717.409 1236.62,716.009 1235.92,714.809"/>
<path class="Note" d="M1368.65,689.807 C1367.15,687.107 1364.25,685.407 1360.35,685.007 C1359.75,684.907 1359.25,684.907 1358.65,684.907 C1355.15,684.907 1351.35,685.907 1347.85,687.807 C1341.25,691.407 1337.15,697.307 1337.15,702.407 C1337.15,703.807 1337.35,705.107 1338.05,706.307 C1339.55,709.007 1342.55,710.707 1346.45,711.107 C1347.05,711.207 1347.55,711.207 1348.15,711.207 C1351.65,711.207 1355.35,710.207 1358.85,708.307 C1365.45,704.707 1369.65,698.907 1369.65,693.807 C1369.65,692.407 1369.35,691.007 1368.65,689.807"/>
<path class="Note" d="M1501.37,689.807 C1499.87,687.107 1496.97,685.407 1493.07,685.007 C1492.47,684.907 1491.97,684.907 1491.37,684.907 C1487.87,684.907 1484.07,685.907 1480.57,687.807 C1473.97,691.407 1469.87,697.307 1469.87,702.407 C1469.87,703.807 1470.07,705.107 1470.77,706.307 C1472.27,709.007 1475.27,710.707 1479.17,711.107 C1479.77,711.207 1480.27,711.207 1480.87,711.207 C1484.37,711.207 1488.07,710.207 1491.57,708.307 C1498.17,704.707 1502.37,698.907 1502.37,693.807 C1502.37,692.407 1502.07,691.007 1501.37,689.807"/>
<path class="Note" d="M1679.85,689.807 C1678.35,687.107 1675.45,685.407 1671.55,685.007 C1670.95,684.907 1670.45,684.907 1669.85,684.907 C1666.35,684.907 1662.55,685.907 1659.05,687.807 C1652.45,691.407 1648.35,697.307 1648.35,702.407 C1648.35,703.807 1648.55,705.107 1649.25,706.307 C1650.75,709.007 1653.75,710.707 1657.65,711.107 C1658.25,711.207 1658.75,711.207 1659.35,711.207 C1662.85,711.207 1666.55,710.207 1670.05,708.307 C1676.65,704.707 1680.85,698.907 1680.85,693.807 C1680.85,692.407 1680.55,691.007 1679.85,689.807"/>
<path class="Note" d="M1820.79,714.809 C1819.29,712.109 1816.39,710.409 1812.49,710.009 C1811.89,709.909 1811.39,709.909 1810.79,709.909 C1807.29,709.909 1803.49,710.909 1799.99,712.809 C1793.39,716.409 1789.29,722.309 1789.29,727.409 C1789.29,728.809 1789.49,730.109 1790.19,731.309 C1791.69,734.009 1794.69,735.709 1798.59,736.109 C1799.19,736.209 1799.69,736.209 1800.29,736.209 C1803.79,736.209 1807.49,735.209 1810.99,733.309 C1817.59,729.709 1821.79,723.909 1821.79,718.809 C1821.79,717.409 1821.49,716.009 1820.79,714.809"/>
<path class="Note" d="M1961.74,727.309 C1960.24,724.609 1957.34,722.909 1953.44,722.509 C1952.84,722.409 1952.34,722.409 1951.74,722.409 C1948.24,722.409 1944.44,723.409 1940.94,725.309 C1934.34,728.909 1930.24,734.809 1930.24,739.909 C1930.24,741.309 1930.44,742.609 1931.14,743.809 C1932.64,746.509 1935.64,748.209 1939.54,748.609 C1940.14,748.709 1940.64,748.709 1941.24,748.709 C1944.74,748.709 1948.44,747.709 1951.94,745.809 C1958.54,742.209 1962.74,736.409 1962.74,731.309 C1962.74,729.909 1962.44,728.509 1961.74,727.309"/>
<path class="Note" d="M2102.68,739.81 C2101.18,737.11 2098.28,735.41 2094.38,735.01 C2093.78,734.91 2093.28,734.91 2092.68,734.91 C2089.18,734.91 2085.38,735.91 2081.88,737.81 C2075.28,741.41 2071.18,747.31 2071.18,752.41 C2071.18,753.81 2071.38,755.11 2072.08,756.31 C2073.58,759.01 2076.58,760.71 2080.48,761.11 C2081.08,761.21 2081.58,761.21 2082.18,761.21 C2085.68,761.21 2089.38,760.21 2092.88,758.31 C2099.48,754.71 2103.68,748.91 2103.68,743.81 C2103.68,742.41 2103.38,741.01 2102.68,739.81"/>
<path class="Note" d="M2280.63,739.81 C2279.13,737.11 2276.23,735.41 2272.33,735.01 C2271.73,734.91 2271.23,734.91 2270.63,734.91 C2267.13,734.91 2263.33,735.91 2259.83,737.81 C2253.23,741.41 2249.13,747.31 2249.13,752.41 C2249.13,753.81 2249.33,755.11 2250.03,756.31 C2251.53,759.01 2254.53,760.71 2258.43,761.11 C2259.03,761.21 2259.53,761.21 2260.13,761.21 C2263.63,761.21 2267.33,760.21 2270.83,758.31 C2277.43,754.71 2281.63,748.91 2281.63,743.81 C2281.63,742.41 2281.33,741.01 2280.63,739.81"/>
<path class="Note" d="M2414.93,764.812 C2413.43,762.112 2410.53,760.412 2406.63,760.012 C2406.03,759.912 2405.53,759.912 2404.93,759.912 C2401.43,759.912 2397.63,760.912 2394.13,762.812 C2387.53,766.412 2383.43,772.312 2383.43,777.412 C2383.43,778.812 2383.63,780.112 2384.33,781.312 C2385.83,784.012 2388.83,785.712 2392.73,786.112 C2393.33,786.212 2393.83,786.212 2394.43,786.212 C2397.93,786.212 2401.63,785.212 2405.13,783.312 C2411.73,779.712 2415.93,773.912 2415.93,768.812 C2415.93,767.412 2415.63,766.012 2414.93,764.812"/>
<path class="Note" d="M2549.24,777.313 C2547.74,774.613 2544.84,772.913 2540.94,772.513 C2540.34,772.413 2539.84,772.413 2539.24,772.413 C2535.74,772.413 2531.94,773.413 2528.44,775.313 C2521.84,778.913 2517.74,784.713 2517.74,789.813 C2517.74,791.213 2518.14,792.613 2518.84,793.813 C2520.34,796.613 2523.14,798.213 2527.04,798.613 C2527.64,798.713 2528.14,798.713 2528.74,798.713 C2532.24,798.713 2536.04,797.713 2539.54,795.813 C2546.14,792.213 2550.24,786.313 2550.24,781.213 C2550.24,779.813 2549.94,778.513 2549.24,777.313 M2545.04,783.613 C2543.34,785.413 2540.14,787.713 2536.54,789.813 C2532.94,791.913 2529.24,793.613 2526.94,794.313 C2526.44,794.413 2525.84,794.513 2525.34,794.513 C2523.84,794.513 2522.54,793.813 2521.84,792.713 C2521.54,792.113 2521.34,791.513 2521.34,790.913 C2521.34,789.813 2521.84,788.713 2522.94,787.513 C2524.64,785.713 2527.84,783.313 2531.44,781.213 C2535.04,779.113 2538.74,777.413 2541.14,776.813 L2541.34,776.813 C2541.94,776.613 2542.44,776.513 2542.94,776.513 C2544.34,776.513 2545.44,777.113 2546.14,778.413 C2546.44,779.013 2546.64,779.513 2546.64,780.113 C2546.64,781.413 2545.94,782.713 2545.04,783.613"/>
<path class="Clef" d="M297,922.923 C289.4,922.923 283.3,927.323 283.2,927.323 C277.4,931.623 275.1,936.723 274.2,940.223 C273.7,942.023 273.5,943.823 273.5,945.523 C273.5,947.923 273.9,950.123 274.8,952.023 C276,954.723 278.3,956.623 281.3,957.623 C282.5,958.023 283.8,958.223 285.1,958.223 C287.3,958.223 289.6,957.623 291.5,956.523 C294.6,954.823 296.5,951.223 296.5,947.323 C296.5,943.823 294.7,940.623 291.7,938.723 C289.6,937.323 287.6,936.923 285.9,936.923 C284.7,936.923 283.6,937.123 282.7,937.423 C281.7,937.823 280,938.823 279.2,939.523 C279.5,937.623 280.7,934.723 281.8,933.123 C282.9,931.523 285.1,929.523 286.8,928.623 C289.3,927.223 292.5,926.623 296,926.623 C306.2,926.623 311.2,934.823 311.2,951.623 C311.2,960.923 307.7,969.823 304.7,975.723 C301.4,982.323 297,988.623 293.1,992.123 C282.7,1001.62 272.9,1006.12 272.8,1006.12 C272.8,1006.12 271.3,1007.02 271.7,1008.52 C272,1009.52 272.9,1009.72 273.5,1009.72 C273.6,1009.72 273.9,1009.62 274,1009.62 C274.1,1009.62 285.5,1004.92 294.6,997.823 C299.7,994.123 304.3,990.123 308.3,985.823 C311.9,981.923 315,977.723 317.5,973.523 C321.9,966.023 324.4,958.223 324.4,951.523 C324.4,943.223 322.2,936.323 318.1,931.423 C313.4,925.823 306.3,922.923 297,922.923 M328.4,935.623 C328.4,938.423 330.6,940.623 333.2,940.623 C335.8,940.623 338,938.423 338,935.623 C338,932.823 335.8,930.523 333.2,930.523 C330.6,930.523 328.4,932.823 328.4,935.623 M328.4,960.323 C328.4,963.123 330.6,965.423 333.2,965.423 C335.8,965.423 338,963.123 338,960.323 C338,957.523 335.8,955.223 333.2,955.223 C330.6,955.223 328.4,957.523 328.4,960.323"/>
<path class="Clef" d="M335,729.609 C333.8,724.209 331.1,720.309 330.3,719.309 C327.1,715.009 323.1,712.209 318.4,710.809 C316.1,710.109 314,709.909 312,709.909 C311.3,709.909 310.6,709.909 309.9,710.009 C308.9,704.009 307.8,698.109 306.9,692.709 C312.5,686.509 316.2,680.609 318.6,676.209 C322.2,669.509 323.6,664.809 323.7,664.609 C324.9,661.609 325.6,657.809 325.6,653.309 C325.6,650.609 325.3,647.709 324.9,644.709 C323.8,637.609 321.6,630.909 319.1,627.209 C317.8,625.309 316.6,624.209 315.4,624.209 C314.2,624.209 311.7,625.409 308.8,628.209 C306.5,630.409 303.2,634.309 300.6,640.309 C298.3,645.709 297.6,652.609 297.6,658.509 C297.6,660.309 297.7,662.009 297.8,663.609 C298,667.209 298.7,673.009 299.3,676.609 C299.3,676.709 299.6,678.209 300,680.809 L299.3,681.509 C298.3,682.509 297.1,683.609 295.7,685.009 C294.8,685.909 293.9,686.709 292.9,687.709 C284.4,695.909 271.6,708.309 271.6,727.409 C271.6,732.109 272.5,736.509 274.3,740.509 C275.9,744.109 278.2,747.409 281.1,750.309 C288.6,757.709 298.8,760.909 305.9,760.909 L306.5,760.909 C309.4,760.809 312.1,760.509 314.5,760.109 C316.3,769.709 317.5,776.809 317.5,782.109 C317.5,788.609 315.9,792.509 312,795.309 C309.6,797.009 306.7,798.109 303.6,798.209 L302.8,798.209 C301.3,798.209 298.8,797.809 297.3,797.409 C297.3,797.409 297,797.309 297,797.109 C297,796.909 297.4,796.909 297.4,796.909 C299.3,796.509 302.9,795.209 305.3,791.909 C306.4,790.409 307.1,788.109 307.1,785.609 C307.1,784.009 306.8,782.309 306.1,780.809 C305,778.409 302.4,775.409 296.8,775.009 L295.7,775.009 C293.6,775.009 291.8,775.509 290.1,776.509 C288.3,777.609 286.7,779.309 285.7,781.309 C284.6,783.309 284.1,785.509 284.1,787.709 C284.1,790.609 285,793.309 286.8,795.509 C289.8,799.109 294.5,801.409 299.9,802.009 C300.6,802.109 301.7,802.209 302.4,802.209 C306.8,802.209 311.2,801.009 314.8,798.809 C318.5,796.209 320.6,792.209 321.3,786.609 C321.5,785.309 321.5,783.909 321.5,782.409 C321.5,778.509 321,773.809 320,768.009 C319.6,765.909 319.2,762.909 318.5,759.109 C324.3,757.209 328.4,753.509 332.2,747.709 C334.5,743.709 335.6,739.609 335.6,735.309 C335.6,733.409 335.4,731.509 335,729.609 M304.8,651.709 C306.6,646.009 309.3,642.609 311.3,640.909 C313.1,639.409 314.7,638.709 315.6,638.709 C315.7,638.709 315.9,638.809 316,638.809 C316.3,638.909 316.7,639.409 317.1,640.109 C318,641.909 318.9,645.209 318.9,648.909 C318.9,650.809 318.7,652.809 318.1,654.609 C315.9,661.409 311.3,668.709 304.3,676.409 C304.1,675.309 303.9,674.309 303.8,673.309 C303.3,670.109 303,666.909 303,664.009 C303,659.509 303.6,655.409 304.8,651.709 M300.8,755.809 C296.2,754.609 291.7,752.109 287.9,748.609 C286.6,747.409 284.8,745.209 283.3,741.809 C282,738.809 281.3,735.709 281.3,732.309 L281.3,731.609 C281.4,726.909 282.7,722.109 285.2,717.309 C288.1,711.709 292.6,706.209 298.7,700.909 C300.2,699.609 301.6,698.309 302.9,697.009 C303.7,701.309 304.4,706.009 305.3,710.909 C301.4,712.209 296.7,715.209 293.6,720.909 C291.2,725.409 290.5,729.309 290.5,732.509 C290.5,734.009 290.7,735.409 290.9,736.509 C291.8,741.009 294.4,744.709 297.9,746.809 C298.7,747.309 302,749.009 304,749.009 C304.3,749.009 304.6,749.009 304.8,748.909 C305.1,748.809 305.4,748.609 305.5,748.309 C305.6,748.109 305.6,747.909 305.6,747.709 C305.6,746.909 304.8,746.309 303.5,745.509 C302.9,745.109 302.2,744.709 301.5,744.209 C298.9,742.209 297.4,739.109 297.4,735.709 C297.4,734.709 297.6,733.809 297.8,732.809 C298.3,730.809 300,728.009 301.5,726.609 C303.2,725.109 305.2,723.909 307.6,723.309 C309.6,734.509 311.7,745.609 313.3,754.009 C313.4,754.709 313.6,755.409 313.7,756.109 C311.7,756.509 309.7,756.709 307.8,756.709 C305.4,756.709 303.1,756.409 300.8,755.809 M326.5,745.609 C325.3,748.809 322.8,752.809 317.7,754.909 C317.6,754.509 317.6,754.009 317.5,753.609 C316,744.809 314.1,733.909 312.1,722.609 L313.1,722.609 C322.8,722.609 326.7,729.809 327.6,734.409 C327.8,735.309 327.9,736.509 327.9,737.809 C327.9,740.109 327.5,742.909 326.5,745.609"/>
<path class="TimeSig" d="M365.2,961.422 L382,961.422 L382,968.722 L373.9,968.722 C373.1,968.722 372.5,969.322 372.5,970.122 L372.5,972.022 C372.5,972.822 373.1,973.322 373.9,973.322 L403.6,973.322 C404.4,973.322 405,972.822 405,972.022 L405,970.122 C405,969.322 404.4,968.722 403.6,968.722 L394.8,968.722 L394.8,961.422 L403.6,961.422 C404.4,961.422 405,960.822 405,960.022 L405,958.222 C405,957.422 404.4,956.822 403.6,956.822 L394.8,956.822 L394.8,941.122 C394.8,940.622 394.4,940.122 394,939.922 L392.9,939.322 C392.7,939.222 392.4,939.222 392.2,939.222 C391.9,939.222 391.5,939.322 391.3,939.522 L382.4,947.722 C382.2,947.922 382,948.422 382,948.722 L382,956.822 L370.7,956.822 C370.7,956.822 381.6,945.022 393.2,929.522 C394,928.422 393.6,927.422 393.4,927.222 L391.3,925.022 C391.1,924.822 390.6,924.622 390.3,924.622 L375.7,924.622 C375,924.622 374.5,925.222 374.4,925.822 C374.4,925.822 373.9,933.022 371.3,941.022 C368.7,949.022 365.9,953.822 363.3,957.422 C363.3,957.422 362.8,958.422 363.1,959.122 C363.4,959.822 364.1,960.922 364.1,960.922 C364.1,960.922 364.4,961.422 365.2,961.422"/>
<path class="TimeSig" d="M365.2,1010.03 L382,1010.03 L382,1017.33 L373.9,1017.33 C373.1,1017.33 372.5,1017.93 372.5,1018.73 L372.5,1020.63 C372.5,1021.43 373.1,1021.93 373.9,1021.93 L403.6,1021.93 C404.4,1021.93 405,1021.43 405,1020.63 L405,1018.73 C405,1017.93 404.4,1017.33 403.6,1017.33 L394.8,1017.33 L394.8,1010.03 L403.6,1010.03 C404.4,1010.03 405,1009.43 405,1008.63 L405,1006.83 C405,1006.03 404.4,1005.43 403.6,1005.43 L394.8,1005.43 L394.8,989.727 C394.8,989.227 394.4,988.727 394,988.527 L392.9,987.927 C392.7,987.827 392.4,987.827 392.2,987.827 C391.9,987.827 391.5,987.927 391.3,988.127 L382.4,996.327 C382.2,996.527 382,997.027 382,997.327 L382,1005.43 L370.7,1005.43 C370.7,1005.43 381.6,993.627 393.2,978.127 C394,977.027 393.6,976.027 393.4,975.827 L391.3,973.627 C391.1,973.427 390.6,973.227 390.3,973.227 L375.7,973.227 C375,973.227 374.5,973.827 374.4,974.427 C374.4,974.427 373.9,981.627 371.3,989.627 C368.7,997.627 365.9,1002.43 363.3,1006.03 C363.3,1006.03 362.8,1007.03 363.1,1007.73 C363.4,1008.43 364.1,1009.53 364.1,1009.53 C364.1,1009.53 364.4,1010.03 365.2,1010.03"/>
<path class="TimeSig" d="M365.2,698.906 L382,698.906 L382,706.206 L373.9,706.206 C373.1,706.206 372.5,706.806 372.5,707.606 L372.5,709.506 C372.5,710.306 373.1,710.806 373.9,710.806 L403.6,710.806 C404.4,710.806 405,710.306 405,709.506 L405,707.606 C405,706.806 404.4,706.206 403.6,706.206 L394.8,706.206 L394.8,698.906 L403.6,698.906 C404.4,698.906 405,698.306 405,697.506 L405,695.706 C405,694.906 404.4,694.306 403.6,694.306 L394.8,694.306 L394.8,678.606 C394.8,678.106 394.4,677.606 394,677.406 L392.9,676.806 C392.7,676.706 392.4,676.706 392.2,676.706 C391.9,676.706 391.5,676.806 391.3,677.006 L382.4,685.206 C382.2,685.406 382,685.906 382,686.206 L382,694.306 L370.7,694.306 C370.7,694.306 381.6,682.506 393.2,667.006 C394,665.906 393.6,664.906 393.4,664.706 L391.3,662.506 C391.1,662.306 390.6,662.106 390.3,662.106 L375.7,662.106 C375,662.106 374.5,662.706 374.4,663.306 C374.4,663.306 373.9,670.506 371.3,678.506 C368.7,686.506 365.9,691.306 363.3,694.906 C363.3,694.906 362.8,695.906 363.1,696.606 C363.4,697.306 364.1,698.406 364.1,698.406 C364.1,698.406 364.4,698.906 365.2,698.906"/>
<path class="TimeSig" d="M365.2,747.51 L382,747.51 L382,754.81 L373.9,754.81 C373.1,754.81 372.5,755.41 372.5,756.21 L372.5,758.11 C372.5,758.91 373.1,759.41 373.9,759.41 L403.6,759.41 C404.4,759.41 405,758.91 405,758.11 L405,756.21 C405,755.41 404.4,754.81 403.6,754.81 L394.8,754.81 L394.8,747.51 L403.6,747.51 C404.4,747.51 405,746.91 405,746.11 L405,744.31 C405,743.51 404.4,742.91 403.6,742.91 L394.8,742.91 L394.8,727.21 C394.8,726.71 394.4,726.21 394,726.01 L392.9,725.41 C392.7,725.31 392.4,725.31 392.2,725.31 C391.9,725.31 391.5,725.41 391.3,725.61 L382.4,733.81 C382.2,734.01 382,734.51 382,734.81 L382,742.91 L370.7,742.91 C370.7,742.91 381.6,731.11 393.2,715.61 C394,714.51 393.6,713.51 393.4,713.31 L391.3,711.11 C391.1,710.91 390.6,710.71 390.3,710.71 L375.7,710.71 C375,710.71 374.5,711.31 374.4,711.91 C374.4,711.91 373.9,719.11 371.3,727.11 C368.7,735.11 365.9,739.91 363.3,743.51 C363.3,743.51 362.8,744.51 363.1,745.21 C363.4,745.91 364.1,747.01 364.1,747.01 C364.1,747.01 364.4,747.51 365.2,747.51"/>
<path class="Page" d="M222.584,4035.06 C221.054,4036.9 216.914,4038.3 212.774,4038.39 L212.774,4040.32 L216.734,4040.32 C219.344,4040.37 219.614,4040.64 219.524,4043.16 L219.524,4061.2 C219.524,4063.5 219.524,4063.59 219.254,4063.99 C218.894,4064.44 218.039,4064.62 215.519,4064.62 L212.594,4064.62 L212.594,4066.74 L230.414,4066.74 L230.414,4064.62 L227.939,4064.62 C225.419,4064.62 224.564,4064.44 224.204,4063.99 C223.889,4063.59 223.889,4063.54 223.889,4061.2 L223.889,4042.62 C223.889,4040.1 223.979,4037.98 224.204,4035.06 L222.584,4035.06 M247.599,4035.06 C246.069,4036.9 241.929,4038.3 237.789,4038.39 L237.789,4040.32 L241.749,4040.32 C244.359,4040.37 244.629,4040.64 244.539,4043.16 L244.539,4061.2 C244.539,4063.5 244.539,4063.59 244.269,4063.99 C243.909,4064.44 243.054,4064.62 240.534,4064.62 L237.609,4064.62 L237.609,4066.74 L255.429,4066.74 L255.429,4064.62 L252.954,4064.62 C250.434,4064.62 249.579,4064.44 249.219,4063.99 C248.904,4063.59 248.904,4063.54 248.904,4061.2 L248.904,4042.62 C248.904,4040.1 248.994,4037.98 249.219,4035.06 L247.599,4035.06 "/>
<path class="Bracket" transform="matrix(3.62523,0,0,3.62523,214.469,1023.03)" d="M0.92002,-50 C2.69004,-51.88 6.2,-55.8 6.2,-63 C6.2,-72.1 2.25996,-81.32 2.25996,-86.97 C2.25996,-93.06 5.84004,-98.84 5.95,-99 C6.05996,-99.16 6.05,-99.39 5.94004,-99.46 C5.82998,-99.53 5.62002,-99.47 5.49004,-99.32 C5.35996,-99.17 0,-93.75 0,-85.6 C0,-76.75 3.5,-70.58 3.5,-59.07 C3.5,-56.89 2.55996,-53.36 0.1,-50.33 C-0.0799805,-50.17 -0.1,-49.89 0.0599609,-49.7 L0.0700195,-49.69 L0.1,-49.66 C2.55996,-46.63 3.5,-43.1 3.5,-40.92 C3.5,-29.4 0,-23.24 0,-14.39 C0,-6.25 5.35996,-0.8 5.49004,-0.659961 C5.62002,-0.52002 5.8,-0.42998 5.94004,-0.52002 C6.07998,-0.609961 6.07998,-0.77998 5.95,-0.97998 C5.82002,-1.17998 2.25996,-6.92002 2.25996,-13.01 C2.25996,-18.66 6.2,-27.9 6.2,-37 C6.2,-44.3 2.69004,-48.12 0.92002,-50"/>
</svg>
