<?xml version="1.0" encoding="UTF-8" standalone="no"?>
<svg width="2977.23px" height="4208.47px" viewBox="0 0 2977.23 4208.47"
 xmlns="http://www.w3.org/2000/svg" xmlns:xlink="http://www.w3.org/1999/xlink" version="1.2" baseProfile="tiny">
<title>exercises_scores (26)</title>
<desc>Generated by MuseScore 3.6.0</desc>
<polyline class="StaffLines" fill="none" stroke="#000000" stroke-width="2.75" stroke-linejoin="bevel" points="247.099,645.317 2764.63,645.317"/>
<polyline class="StaffLines" fill="none" stroke="#000000" stroke-width="2.75" stroke-linejoin="bevel" points="247.099,670.319 2764.63,670.319"/>
<polyline class="StaffLines" fill="none" stroke="#000000" stroke-width="2.75" stroke-linejoin="bevel" points="247.099,695.32 2764.63,695.32"/>
<polyline class="StaffLines" fill="none" stroke="#000000" stroke-width="2.75" stroke-linejoin="bevel" points="247.099,720.322 2764.63,720.322"/>
<polyline class="StaffLines" fill="none" stroke="#000000" stroke-width="2.75" stroke-linejoin="bevel" points="247.099,745.324 2764.63,745.324"/>
<polyline class="StaffLines" fill="none" stroke="#000000" stroke-width="2.75" stroke-linejoin="bevel" points="247.099,907.834 2764.63,907.834"/>
<polyline class="StaffLines" fill="none" stroke="#000000" stroke-width="2.75" stroke-linejoin="bevel" points="247.099,932.835 2764.63,932.835"/>
<polyline class="StaffLines" fill="none" stroke="#000000" stroke-width="2.75" stroke-linejoin="bevel" points="247.099,957.837 2764.63,957.837"/>
<polyline class="StaffLines" fill="none" stroke="#000000" stroke-width="2.75" stroke-linejoin="bevel" points="247.099,982.839 2764.63,982.839"/>
<polyline class="StaffLines" fill="none" stroke="#000000" stroke-width="2.75" stroke-linejoin="bevel" points="247.099,1007.84 2764.63,1007.84"/>
<polyline class="StaffLines" fill="none" stroke="#000000" stroke-width="2.75" stroke-linejoin="bevel" points="247.099,1257.86 2764.63,1257.86"/>
<polyline class="StaffLines" fill="none" stroke="#000000" stroke-width="2.75" stroke-linejoin="bevel" points="247.099,1282.86 2764.63,1282.86"/>
<polyline class="StaffLines" fill="none" stroke="#000000" stroke-width="2.75" stroke-linejoin="bevel" points="247.099,1307.86 2764.63,1307.86"/>
<polyline class="StaffLines" fill="none" stroke="#000000" stroke-width="2.75" stroke-linejoin="bevel" points="247.099,1332.86 2764.63,1332.86"/>
<polyline class="StaffLines" fill="none" stroke="#000000" stroke-width="2.75" stroke-linejoin="bevel" points="247.099,1357.86 2764.63,1357.86"/>
<polyline class="StaffLines" fill="none" stroke="#000000" stroke-width="2.75" stroke-linejoin="bevel" points="247.099,1520.37 2764.63,1520.37"/>
<polyline class="StaffLines" fill="none" stroke="#000000" stroke-width="2.75" stroke-linejoin="bevel" points="247.099,1545.37 2764.63,1545.37"/>
<polyline class="StaffLines" fill="none" stroke="#000000" stroke-width="2.75" stroke-linejoin="bevel" points="247.099,1570.38 2764.63,1570.38"/>
<polyline class="StaffLines" fill="none" stroke="#000000" stroke-width="2.75" stroke-linejoin="bevel" points="247.099,1595.38 2764.63,1595.38"/>
<polyline class="StaffLines" fill="none" stroke="#000000" stroke-width="2.75" stroke-linejoin="bevel" points="247.099,1620.38 2764.63,1620.38"/>
<path class="Text" d="M242.312,213.137 L240.092,213.137 L237.692,216.737 C234.812,214.037 231.032,212.597 226.772,212.597 C218.852,212.597 213.632,217.577 213.632,225.137 C213.632,231.677 216.872,234.917 225.692,237.197 L231.392,238.637 C235.832,239.777 236.252,239.897 237.512,240.857 C239.312,242.237 240.272,244.217 240.272,246.557 C240.272,248.957 239.372,250.937 237.572,252.617 C235.592,254.297 233.612,254.957 230.312,254.957 C225.872,254.957 222.692,253.577 219.872,250.457 C217.352,247.697 216.092,244.817 215.192,240.197 L212.612,240.197 L212.852,257.297 L215.192,257.297 L217.892,253.217 C221.912,256.517 225.212,257.717 230.492,257.717 C239.312,257.717 244.952,252.557 244.952,244.517 C244.952,240.737 243.752,237.617 241.352,235.337 C239.732,233.777 237.392,232.757 232.592,231.557 L226.172,229.937 C220.832,228.557 218.312,226.217 218.312,222.557 C218.312,218.357 221.732,215.477 226.832,215.477 C231.032,215.477 234.452,217.277 236.852,220.697 C238.592,223.157 239.732,225.677 240.452,228.737 L243.032,228.737 L242.312,213.137 M271.162,247.997 C269.242,252.317 267.202,254.057 264.082,254.057 C259.282,254.057 256.282,249.677 256.282,242.657 C256.282,235.337 259.222,230.537 263.662,230.537 C265.462,230.537 267.022,231.377 267.022,232.337 C267.022,232.517 266.962,232.697 266.662,233.057 C265.702,234.197 265.462,234.797 265.462,235.817 C265.462,237.797 266.962,239.177 269.062,239.177 C271.222,239.177 272.722,237.497 272.722,235.097 C272.722,231.017 268.702,227.957 263.362,227.957 C255.562,227.957 249.982,234.317 249.982,243.317 C249.982,251.837 255.082,257.717 262.522,257.717 C267.862,257.717 270.922,255.257 273.502,248.897 L271.162,247.997 M301.75,237.497 C301.75,233.717 301.09,231.797 299.35,230.357 C297.37,228.737 294.43,227.957 290.59,227.957 C283.81,227.957 278.89,231.137 278.89,235.517 C278.89,237.737 280.27,239.177 282.37,239.177 C284.29,239.177 285.61,237.917 285.61,236.117 C285.61,235.337 285.31,234.497 284.71,233.657 C284.35,233.237 284.29,233.117 284.29,232.817 C284.29,231.617 286.69,230.537 289.57,230.537 C291.49,230.537 293.59,231.137 294.55,232.037 C295.69,232.997 296.11,234.437 296.11,237.137 L296.11,239.477 C289.87,240.557 287.89,241.037 284.95,242.177 C279.73,244.097 277.27,246.857 277.27,250.697 C277.27,255.017 280.63,257.717 285.97,257.717 C290.11,257.717 293.83,256.037 296.41,252.977 C297.37,256.037 298.87,257.237 301.69,257.237 C304.39,257.237 307.21,255.497 307.21,253.757 C307.21,253.337 306.97,253.037 306.61,253.037 C306.37,253.037 306.13,253.097 305.71,253.277 C304.87,253.637 304.51,253.697 304.03,253.697 C302.35,253.697 301.75,252.617 301.75,249.557 L301.75,237.497 M296.11,244.817 C296.11,248.417 295.93,249.257 294.91,250.817 C293.41,253.037 290.71,254.537 288.07,254.537 C285.31,254.537 283.33,252.557 283.33,249.857 C283.33,247.337 284.59,245.537 287.23,244.277 C289.09,243.437 291.43,242.837 296.11,242.057 L296.11,244.817 M320.229,212.597 L309.129,213.257 L309.129,215.837 L312.069,215.837 C314.289,215.897 314.589,216.257 314.589,218.837 L314.589,249.437 L314.589,252.257 C314.529,253.157 314.469,253.517 314.229,253.817 C313.809,254.357 312.669,254.597 310.089,254.657 L309.669,254.657 L309.669,256.817 L325.209,256.817 L325.209,254.657 L324.789,254.657 C320.769,254.537 320.229,254.237 320.229,252.077 L320.229,249.437 L320.229,212.597 M354.78,243.317 C354.84,234.317 349.74,227.957 342.42,227.957 C334.74,227.957 328.98,234.617 328.98,243.617 C328.98,252.077 334.44,257.717 342.54,257.717 C348.3,257.717 352.32,254.897 354.78,249.197 L352.68,248.057 C350.22,252.677 347.7,254.477 343.68,254.477 C340.62,254.477 338.4,253.217 336.84,250.517 C335.76,248.717 335.28,246.617 335.34,243.317 L354.78,243.317 M335.4,240.737 C335.4,238.877 335.64,237.557 336.24,235.877 C337.5,232.277 339.42,230.537 342.36,230.537 C345.96,230.537 348.36,233.717 348.36,238.577 C348.36,240.257 347.82,240.737 345.9,240.737 L335.4,240.737 M366.601,250.157 C364.501,250.157 362.821,251.837 362.821,253.877 C362.821,255.977 364.501,257.657 366.541,257.657 C368.641,257.657 370.321,255.977 370.321,253.877 C370.321,251.837 368.641,250.157 366.601,250.157 M366.601,228.437 C364.501,228.437 362.821,230.117 362.821,232.217 C362.821,234.257 364.501,235.937 366.541,235.937 C368.641,235.937 370.321,234.257 370.321,232.157 C370.321,230.117 368.641,228.437 366.601,228.437 M429.345,213.077 L427.065,213.077 L424.665,216.617 C420.285,213.437 418.065,212.597 413.925,212.597 C408.225,212.597 403.365,214.997 399.345,219.797 C395.505,224.357 393.705,229.397 393.705,235.577 C393.705,248.537 402.165,257.717 413.985,257.717 C423.585,257.717 429.705,252.077 431.085,241.997 L428.265,241.517 C426.645,250.457 422.085,254.897 414.705,254.897 C405.825,254.897 401.625,248.777 401.625,235.817 C401.625,228.977 402.525,224.477 404.565,220.877 C406.425,217.517 410.085,215.417 413.985,215.417 C418.185,215.417 421.905,217.637 424.185,221.477 C425.325,223.457 426.165,225.677 427.605,230.417 L430.245,230.417 L429.345,213.077 M463.049,228.857 L452.369,229.517 L452.369,232.097 L454.829,232.097 C457.109,232.157 457.409,232.517 457.409,235.097 L457.409,249.437 L457.409,251.777 L457.409,252.257 C457.349,253.157 457.289,253.517 457.049,253.817 C456.629,254.357 455.489,254.597 452.909,254.657 L452.669,254.657 L452.669,256.817 L467.789,256.817 L467.789,254.657 L467.549,254.657 C463.589,254.537 463.049,254.237 463.049,252.017 L463.049,249.437 L463.049,240.917 C463.049,235.577 465.989,231.617 469.889,231.617 C473.309,231.617 475.049,234.077 475.049,238.937 L475.049,249.437 L475.049,252.317 C474.989,253.097 474.929,253.517 474.629,253.817 C474.269,254.357 473.069,254.597 470.489,254.657 L470.249,254.657 L470.249,256.817 L485.429,256.817 L485.429,254.657 L485.189,254.657 C481.229,254.537 480.689,254.237 480.689,252.077 L480.689,249.437 L480.689,241.457 C480.689,235.457 483.389,231.617 487.589,231.617 C491.009,231.617 492.689,234.197 492.689,239.597 L492.689,249.437 L492.689,252.257 C492.629,253.097 492.569,253.517 492.269,253.817 C491.909,254.357 490.709,254.597 488.129,254.657 L487.889,254.657 L487.889,256.817 L503.069,256.817 L503.069,254.657 L502.829,254.657 C498.869,254.537 498.329,254.237 498.329,252.017 L498.329,249.437 L498.329,238.397 C498.329,234.677 497.969,233.417 496.409,231.377 C494.669,229.157 492.209,227.957 489.329,227.957 C485.429,227.957 482.549,229.817 479.969,233.957 C478.949,230.357 475.709,227.957 471.689,227.957 C468.029,227.957 465.389,229.697 463.049,233.477 L463.049,228.857 M516.677,228.857 L505.397,229.517 L505.397,232.097 L508.457,232.097 C510.737,232.157 511.037,232.517 511.037,235.097 L511.037,249.437 L511.037,252.257 C510.977,253.157 510.917,253.517 510.677,253.817 C510.257,254.357 509.117,254.597 506.537,254.657 L506.117,254.657 L506.117,256.817 L521.657,256.817 L521.657,254.657 L521.237,254.657 C517.217,254.537 516.677,254.237 516.677,252.077 L516.677,249.437 L516.677,228.857 M513.857,213.917 C511.937,213.917 510.377,215.477 510.377,217.397 C510.377,219.317 511.937,220.877 513.797,220.877 C515.777,220.877 517.337,219.317 517.337,217.397 C517.337,215.477 515.777,213.917 513.857,213.917 M535.208,228.857 L524.828,229.517 L524.828,232.097 L526.988,232.097 C529.268,232.157 529.568,232.517 529.568,235.097 L529.568,249.437 L529.568,250.877 L529.568,252.257 C529.508,253.157 529.448,253.517 529.208,253.817 C528.788,254.357 527.648,254.597 525.068,254.657 L524.828,254.657 L524.828,256.817 L540.008,256.817 L540.008,254.657 L539.768,254.657 C535.748,254.537 535.208,254.237 535.208,252.077 L535.208,249.437 L535.208,243.197 C535.208,240.257 535.628,237.557 536.288,236.177 C537.548,233.477 540.248,231.617 542.828,231.617 C544.388,231.617 546.188,232.457 547.088,233.717 C547.988,235.037 548.408,236.837 548.408,239.717 L548.408,249.437 L548.408,252.257 C548.348,253.157 548.288,253.517 548.048,253.817 C547.628,254.357 546.428,254.597 543.848,254.657 L543.608,254.657 L543.608,256.817 L558.788,256.817 L558.788,254.657 L558.548,254.657 C554.588,254.537 554.048,254.237 554.048,252.077 L554.048,249.437 L554.048,240.017 C554.048,235.697 553.868,234.617 552.788,232.577 C551.288,229.697 548.288,227.957 544.688,227.957 C540.788,227.957 537.848,229.757 535.208,233.717 L535.208,228.857 M574.984,227.957 C567.604,227.957 561.904,234.497 561.904,242.897 C561.904,251.117 567.664,257.717 574.864,257.717 C582.064,257.717 587.824,251.117 587.824,242.837 C587.824,234.617 582.064,227.957 574.984,227.957 M574.984,230.537 C579.184,230.537 581.524,234.917 581.524,242.837 C581.524,250.817 579.184,255.137 574.864,255.137 C570.544,255.137 568.204,250.817 568.204,242.897 C568.204,234.737 570.484,230.537 574.984,230.537 M601.744,228.857 L591.124,229.517 L591.124,232.097 L593.584,232.097 C595.864,232.157 596.164,232.517 596.164,235.097 L596.164,249.437 L596.164,252.257 C596.104,253.157 596.044,253.517 595.804,253.817 C595.384,254.357 594.184,254.597 591.604,254.657 L591.364,254.657 L591.364,256.817 L607.384,256.817 L607.384,254.657 L606.304,254.657 C602.284,254.537 601.744,254.237 601.744,252.077 L601.744,249.437 L601.744,248.837 C601.804,238.757 605.404,231.077 610.084,230.837 C609.244,231.797 609.004,232.397 609.004,233.537 C609.004,235.457 610.384,236.837 612.304,236.837 C614.524,236.837 615.964,235.217 615.964,232.817 C615.964,229.877 613.924,227.957 610.744,227.957 C606.964,227.957 603.724,230.957 601.744,236.297 L601.744,228.857 "/>
<polyline class="BarLine" fill="none" stroke="#000000" stroke-width="4.50" stroke-linejoin="bevel" points="249.349,906.459 249.349,1009.22"/>
<polyline class="BarLine" fill="none" stroke="#000000" stroke-width="4.50" stroke-linejoin="bevel" points="1066.26,906.459 1066.26,1009.22"/>
<polyline class="BarLine" fill="none" stroke="#000000" stroke-width="4.50" stroke-linejoin="bevel" points="1608.21,906.459 1608.21,1009.22"/>
<polyline class="BarLine" fill="none" stroke="#000000" stroke-width="4.50" stroke-linejoin="bevel" points="2223.67,906.459 2223.67,1009.22"/>
<polyline class="BarLine" fill="none" stroke="#000000" stroke-width="4.50" stroke-linejoin="bevel" points="2762.38,906.459 2762.38,1009.22"/>
<polyline class="BarLine" fill="none" stroke="#000000" stroke-width="4.50" stroke-linejoin="bevel" points="249.349,1519 249.349,1621.75"/>
<polyline class="BarLine" fill="none" stroke="#000000" stroke-width="4.50" stroke-linejoin="bevel" points="1040.97,1519 1040.97,1621.75"/>
<polyline class="BarLine" fill="none" stroke="#000000" stroke-width="4.50" stroke-linejoin="bevel" points="1614.54,1519 1614.54,1621.75"/>
<polyline class="BarLine" fill="none" stroke="#000000" stroke-width="4.50" stroke-linejoin="bevel" points="2243.02,1519 2243.02,1621.75"/>
<polyline class="BarLine" fill="none" stroke="#000000" stroke-width="4.50" stroke-linejoin="bevel" points="2734.88,1519 2734.88,1621.75"/>
<polyline class="BarLine" fill="none" stroke="#000000" stroke-width="13.75" stroke-linejoin="bevel" points="2757.76,1519 2757.76,1621.75"/>
<polyline class="BarLine" fill="none" stroke="#000000" stroke-width="4.50" stroke-linejoin="bevel" points="249.349,643.942 249.349,907.834"/>
<polyline class="BarLine" fill="none" stroke="#000000" stroke-width="4.50" stroke-linejoin="bevel" points="1066.26,643.942 1066.26,907.834"/>
<polyline class="BarLine" fill="none" stroke="#000000" stroke-width="4.50" stroke-linejoin="bevel" points="1608.21,643.942 1608.21,907.834"/>
<polyline class="BarLine" fill="none" stroke="#000000" stroke-width="4.50" stroke-linejoin="bevel" points="2223.67,643.942 2223.67,907.834"/>
<polyline class="BarLine" fill="none" stroke="#000000" stroke-width="4.50" stroke-linejoin="bevel" points="2762.38,643.942 2762.38,907.834"/>
<polyline class="BarLine" fill="none" stroke="#000000" stroke-width="4.50" stroke-linejoin="bevel" points="249.349,1256.48 249.349,1520.37"/>
<polyline class="BarLine" fill="none" stroke="#000000" stroke-width="4.50" stroke-linejoin="bevel" points="1040.97,1256.48 1040.97,1520.37"/>
<polyline class="BarLine" fill="none" stroke="#000000" stroke-width="4.50" stroke-linejoin="bevel" points="1614.54,1256.48 1614.54,1520.37"/>
<polyline class="BarLine" fill="none" stroke="#000000" stroke-width="4.50" stroke-linejoin="bevel" points="2243.02,1256.48 2243.02,1520.37"/>
<polyline class="BarLine" fill="none" stroke="#000000" stroke-width="4.50" stroke-linejoin="bevel" points="2734.88,1256.48 2734.88,1520.37"/>
<polyline class="BarLine" fill="none" stroke="#000000" stroke-width="13.75" stroke-linejoin="bevel" points="2757.76,1256.48 2757.76,1520.37"/>
<polyline class="LedgerLine" fill="none" stroke="#000000" stroke-width="4.00" stroke-linejoin="bevel" points="1470.98,882.832 1520.97,882.832"/>
<polyline class="LedgerLine" fill="none" stroke="#000000" stroke-width="4.00" stroke-linejoin="bevel" points="1335.26,1645.38 1385.25,1645.38"/>
<polyline class="LedgerLine" fill="none" stroke="#000000" stroke-width="4.00" stroke-linejoin="bevel" points="1469.4,1645.38 1519.4,1645.38"/>
<polyline class="LedgerLine" fill="none" stroke="#000000" stroke-width="4.00" stroke-linejoin="bevel" points="550.305,770.325 600.301,770.325"/>
<polyline class="LedgerLine" fill="none" stroke="#000000" stroke-width="4.00" stroke-linejoin="bevel" points="2258.42,620.316 2308.41,620.316"/>
<polyline class="LedgerLine" fill="none" stroke="#000000" stroke-width="4.00" stroke-linejoin="bevel" points="2395.35,620.316 2445.35,620.316"/>
<polyline class="LedgerLine" fill="none" stroke="#000000" stroke-width="4.00" stroke-linejoin="bevel" points="2532.29,620.316 2582.28,620.316"/>
<polyline class="LedgerLine" fill="none" stroke="#000000" stroke-width="4.00" stroke-linejoin="bevel" points="2532.29,595.314 2582.28,595.314"/>
<polyline class="LedgerLine" fill="none" stroke="#000000" stroke-width="4.00" stroke-linejoin="bevel" points="493.403,1232.85 543.398,1232.85"/>
<polyline class="LedgerLine" fill="none" stroke="#000000" stroke-width="4.00" stroke-linejoin="bevel" points="627.545,1232.85 677.541,1232.85"/>
<polyline class="LedgerLine" fill="none" stroke="#000000" stroke-width="4.00" stroke-linejoin="bevel" points="2423.16,1382.86 2473.15,1382.86"/>
<polyline class="Stem" fill="none" stroke="#000000" stroke-width="2.75" stroke-linejoin="bevel" points="590.175,966.978 590.175,889.083"/>
<polyline class="Stem" fill="none" stroke="#000000" stroke-width="2.75" stroke-linejoin="bevel" points="686.669,961.357 686.669,1035.97"/>
<polyline class="Stem" fill="none" stroke="#000000" stroke-width="2.75" stroke-linejoin="bevel" points="812.907,948.856 812.907,1026.59"/>
<polyline class="Stem" fill="none" stroke="#000000" stroke-width="2.75" stroke-linejoin="bevel" points="939.146,936.356 939.146,1017.22"/>
<polyline class="Stem" fill="none" stroke="#000000" stroke-width="2.75" stroke-linejoin="bevel" points="1102.39,923.855 1102.39,1007.84"/>
<polyline class="Stem" fill="none" stroke="#000000" stroke-width="2.75" stroke-linejoin="bevel" points="1228.62,911.354 1228.62,995.339"/>
<polyline class="Stem" fill="none" stroke="#000000" stroke-width="2.75" stroke-linejoin="bevel" points="1354.86,898.853 1354.86,982.839"/>
<polyline class="Stem" fill="none" stroke="#000000" stroke-width="2.75" stroke-linejoin="bevel" points="1481.1,886.352 1481.1,970.338"/>
<polyline class="Stem" fill="none" stroke="#000000" stroke-width="2.75" stroke-linejoin="bevel" points="1758.08,1016.98 1758.08,932.835"/>
<polyline class="Stem" fill="none" stroke="#000000" stroke-width="2.75" stroke-linejoin="bevel" points="1881.7,1004.48 1881.7,920.335"/>
<polyline class="Stem" fill="none" stroke="#000000" stroke-width="2.75" stroke-linejoin="bevel" points="2005.31,991.979 2005.31,907.834"/>
<polyline class="Stem" fill="none" stroke="#000000" stroke-width="2.75" stroke-linejoin="bevel" points="2128.92,979.478 2128.92,898.458"/>
<polyline class="Stem" fill="none" stroke="#000000" stroke-width="2.75" stroke-linejoin="bevel" points="2298.29,966.978 2298.29,889.083"/>
<polyline class="Stem" fill="none" stroke="#000000" stroke-width="2.75" stroke-linejoin="bevel" points="2405.48,961.357 2405.48,1035.97"/>
<polyline class="Stem" fill="none" stroke="#000000" stroke-width="2.75" stroke-linejoin="bevel" points="2542.41,948.776 2542.41,1026.59"/>
<polyline class="Stem" fill="none" stroke="#000000" stroke-width="2.75" stroke-linejoin="bevel" points="503.529,1573.9 503.529,1648.51"/>
<polyline class="Stem" fill="none" stroke="#000000" stroke-width="2.75" stroke-linejoin="bevel" points="667.415,1579.52 667.415,1501.62"/>
<polyline class="Stem" fill="none" stroke="#000000" stroke-width="2.75" stroke-linejoin="bevel" points="801.557,1592.02 801.557,1511"/>
<polyline class="Stem" fill="none" stroke="#000000" stroke-width="2.75" stroke-linejoin="bevel" points="935.699,1604.52 935.699,1520.37"/>
<polyline class="Stem" fill="none" stroke="#000000" stroke-width="2.75" stroke-linejoin="bevel" points="1106.84,1617.02 1106.84,1532.87"/>
<polyline class="Stem" fill="none" stroke="#000000" stroke-width="2.75" stroke-linejoin="bevel" points="1240.99,1629.52 1240.99,1545.37"/>
<polyline class="Stem" fill="none" stroke="#000000" stroke-width="2.75" stroke-linejoin="bevel" points="1375.13,1642.02 1375.13,1557.87"/>
<polyline class="Stem" fill="none" stroke="#000000" stroke-width="2.75" stroke-linejoin="bevel" points="1509.27,1654.52 1509.27,1570.38"/>
<polyline class="Stem" fill="none" stroke="#000000" stroke-width="2.75" stroke-linejoin="bevel" points="1737.07,1523.89 1737.07,1607.88"/>
<polyline class="Stem" fill="none" stroke="#000000" stroke-width="2.75" stroke-linejoin="bevel" points="1863.34,1536.39 1863.34,1620.38"/>
<polyline class="Stem" fill="none" stroke="#000000" stroke-width="2.75" stroke-linejoin="bevel" points="1989.61,1548.89 1989.61,1629.75"/>
<polyline class="Stem" fill="none" stroke="#000000" stroke-width="2.75" stroke-linejoin="bevel" points="2115.87,1561.39 2115.87,1639.13"/>
<polyline class="Stem" fill="none" stroke="#000000" stroke-width="2.75" stroke-linejoin="bevel" points="2279.14,1573.9 2279.14,1648.51"/>
<polyline class="Stem" fill="none" stroke="#000000" stroke-width="2.75" stroke-linejoin="bevel" points="2463.03,1579.44 2463.03,1501.62"/>
<polyline class="Stem" fill="none" stroke="#000000" stroke-width="2.75" stroke-linejoin="bevel" points="590.175,766.965 590.175,682.82"/>
<polyline class="Stem" fill="none" stroke="#000000" stroke-width="2.75" stroke-linejoin="bevel" points="716.413,754.464 716.413,670.319"/>
<polyline class="Stem" fill="none" stroke="#000000" stroke-width="2.75" stroke-linejoin="bevel" points="842.651,741.963 842.651,657.818"/>
<polyline class="Stem" fill="none" stroke="#000000" stroke-width="2.75" stroke-linejoin="bevel" points="968.89,729.463 968.89,645.317"/>
<polyline class="Stem" fill="none" stroke="#000000" stroke-width="2.75" stroke-linejoin="bevel" points="1132.13,716.962 1132.13,635.942"/>
<polyline class="Stem" fill="none" stroke="#000000" stroke-width="2.75" stroke-linejoin="bevel" points="1258.37,704.461 1258.37,626.566"/>
<polyline class="Stem" fill="none" stroke="#000000" stroke-width="2.75" stroke-linejoin="bevel" points="1354.86,698.841 1354.86,773.45"/>
<polyline class="Stem" fill="none" stroke="#000000" stroke-width="2.75" stroke-linejoin="bevel" points="1481.1,686.34 1481.1,764.075"/>
<polyline class="Stem" fill="none" stroke="#000000" stroke-width="2.75" stroke-linejoin="bevel" points="1728.34,673.839 1728.34,754.699"/>
<polyline class="Stem" fill="none" stroke="#000000" stroke-width="2.75" stroke-linejoin="bevel" points="1851.95,661.338 1851.95,745.324"/>
<polyline class="Stem" fill="none" stroke="#000000" stroke-width="2.75" stroke-linejoin="bevel" points="1975.57,648.837 1975.57,732.823"/>
<polyline class="Stem" fill="none" stroke="#000000" stroke-width="2.75" stroke-linejoin="bevel" points="2099.18,636.337 2099.18,720.322"/>
<polyline class="Stem" fill="none" stroke="#000000" stroke-width="2.75" stroke-linejoin="bevel" points="2268.54,623.836 2268.54,707.821"/>
<polyline class="Stem" fill="none" stroke="#000000" stroke-width="2.75" stroke-linejoin="bevel" points="2405.48,611.335 2405.48,695.32"/>
<polyline class="Stem" fill="none" stroke="#000000" stroke-width="2.75" stroke-linejoin="bevel" points="2542.41,598.754 2542.41,695.32"/>
<polyline class="Stem" fill="none" stroke="#000000" stroke-width="2.75" stroke-linejoin="bevel" points="503.529,1223.87 503.529,1307.86"/>
<polyline class="Stem" fill="none" stroke="#000000" stroke-width="2.75" stroke-linejoin="bevel" points="637.671,1236.37 637.671,1320.36"/>
<polyline class="Stem" fill="none" stroke="#000000" stroke-width="2.75" stroke-linejoin="bevel" points="771.813,1248.88 771.813,1332.86"/>
<polyline class="Stem" fill="none" stroke="#000000" stroke-width="2.75" stroke-linejoin="bevel" points="905.955,1261.38 905.955,1345.36"/>
<polyline class="Stem" fill="none" stroke="#000000" stroke-width="2.75" stroke-linejoin="bevel" points="1077.1,1273.88 1077.1,1357.86"/>
<polyline class="Stem" fill="none" stroke="#000000" stroke-width="2.75" stroke-linejoin="bevel" points="1211.24,1286.38 1211.24,1367.24"/>
<polyline class="Stem" fill="none" stroke="#000000" stroke-width="2.75" stroke-linejoin="bevel" points="1345.38,1298.88 1345.38,1376.61"/>
<polyline class="Stem" fill="none" stroke="#000000" stroke-width="2.75" stroke-linejoin="bevel" points="1479.53,1311.38 1479.53,1385.99"/>
<polyline class="Stem" fill="none" stroke="#000000" stroke-width="2.75" stroke-linejoin="bevel" points="1766.82,1317 1766.82,1239.1"/>
<polyline class="Stem" fill="none" stroke="#000000" stroke-width="2.75" stroke-linejoin="bevel" points="1893.09,1329.5 1893.09,1248.48"/>
<polyline class="Stem" fill="none" stroke="#000000" stroke-width="2.75" stroke-linejoin="bevel" points="2019.35,1342 2019.35,1257.86"/>
<polyline class="Stem" fill="none" stroke="#000000" stroke-width="2.75" stroke-linejoin="bevel" points="2145.62,1354.5 2145.62,1270.36"/>
<polyline class="Stem" fill="none" stroke="#000000" stroke-width="2.75" stroke-linejoin="bevel" points="2308.89,1367 2308.89,1282.86"/>
<polyline class="Stem" fill="none" stroke="#000000" stroke-width="2.75" stroke-linejoin="bevel" points="2463.03,1379.42 2463.03,1295.36"/>
<path class="Note" d="M590.556,962.138 C589.056,959.438 586.156,957.738 582.256,957.338 C581.656,957.238 581.156,957.238 580.556,957.238 C577.056,957.238 573.256,958.238 569.756,960.138 C563.156,963.738 559.056,969.638 559.056,974.738 C559.056,976.138 559.256,977.438 559.956,978.638 C561.456,981.338 564.456,983.038 568.356,983.438 C568.956,983.538 569.456,983.538 570.056,983.538 C573.556,983.538 577.256,982.538 580.756,980.638 C587.356,977.038 591.556,971.238 591.556,966.138 C591.556,964.738 591.256,963.338 590.556,962.138"/>
<path class="Note" d="M716.794,949.637 C715.294,946.937 712.394,945.237 708.494,944.837 C707.894,944.737 707.394,944.737 706.794,944.737 C703.294,944.737 699.494,945.737 695.994,947.637 C689.394,951.237 685.294,957.137 685.294,962.237 C685.294,963.637 685.494,964.937 686.194,966.137 C687.694,968.837 690.694,970.537 694.594,970.937 C695.194,971.037 695.694,971.037 696.294,971.037 C699.794,971.037 703.494,970.037 706.994,968.137 C713.594,964.537 717.794,958.737 717.794,953.637 C717.794,952.237 717.494,950.837 716.794,949.637"/>
<path class="Note" d="M843.032,937.136 C841.532,934.436 838.632,932.736 834.732,932.336 C834.132,932.236 833.632,932.236 833.032,932.236 C829.532,932.236 825.732,933.236 822.232,935.136 C815.632,938.736 811.532,944.636 811.532,949.736 C811.532,951.136 811.732,952.436 812.432,953.636 C813.932,956.336 816.932,958.036 820.832,958.436 C821.432,958.536 821.932,958.536 822.532,958.536 C826.032,958.536 829.732,957.536 833.232,955.636 C839.832,952.036 844.032,946.236 844.032,941.136 C844.032,939.736 843.732,938.336 843.032,937.136"/>
<path class="Note" d="M969.271,924.635 C967.771,921.935 964.871,920.235 960.971,919.835 C960.371,919.735 959.871,919.735 959.271,919.735 C955.771,919.735 951.971,920.735 948.471,922.635 C941.871,926.235 937.771,932.135 937.771,937.235 C937.771,938.635 937.971,939.935 938.671,941.135 C940.171,943.835 943.171,945.535 947.071,945.935 C947.671,946.035 948.171,946.035 948.771,946.035 C952.271,946.035 955.971,945.035 959.471,943.135 C966.071,939.535 970.271,933.735 970.271,928.635 C970.271,927.235 969.971,925.835 969.271,924.635"/>
<path class="Note" d="M1132.51,912.135 C1131.01,909.435 1128.11,907.735 1124.21,907.335 C1123.61,907.235 1123.11,907.235 1122.51,907.235 C1119.01,907.235 1115.21,908.235 1111.71,910.135 C1105.11,913.735 1101.01,919.635 1101.01,924.735 C1101.01,926.135 1101.21,927.435 1101.91,928.635 C1103.41,931.335 1106.41,933.035 1110.31,933.435 C1110.91,933.535 1111.41,933.535 1112.01,933.535 C1115.51,933.535 1119.21,932.535 1122.71,930.635 C1129.31,927.035 1133.51,921.235 1133.51,916.135 C1133.51,914.735 1133.21,913.335 1132.51,912.135"/>
<path class="Note" d="M1258.75,899.634 C1257.25,896.934 1254.35,895.234 1250.45,894.834 C1249.85,894.734 1249.35,894.734 1248.75,894.734 C1245.25,894.734 1241.45,895.734 1237.95,897.634 C1231.35,901.234 1227.25,907.134 1227.25,912.234 C1227.25,913.634 1227.45,914.934 1228.15,916.134 C1229.65,918.834 1232.65,920.534 1236.55,920.934 C1237.15,921.034 1237.65,921.034 1238.25,921.034 C1241.75,921.034 1245.45,920.034 1248.95,918.134 C1255.55,914.534 1259.75,908.734 1259.75,903.634 C1259.75,902.234 1259.45,900.834 1258.75,899.634"/>
<path class="Note" d="M1384.99,887.133 C1383.49,884.433 1380.59,882.733 1376.69,882.333 C1376.09,882.233 1375.59,882.233 1374.99,882.233 C1371.49,882.233 1367.69,883.233 1364.19,885.133 C1357.59,888.733 1353.49,894.633 1353.49,899.733 C1353.49,901.133 1353.69,902.433 1354.39,903.633 C1355.89,906.333 1358.89,908.033 1362.79,908.433 C1363.39,908.533 1363.89,908.533 1364.49,908.533 C1367.99,908.533 1371.69,907.533 1375.19,905.633 C1381.79,902.033 1385.99,896.233 1385.99,891.133 C1385.99,889.733 1385.69,888.333 1384.99,887.133"/>
<path class="Note" d="M1511.23,874.632 C1509.73,871.932 1506.83,870.232 1502.93,869.832 C1502.33,869.732 1501.83,869.732 1501.23,869.732 C1497.73,869.732 1493.93,870.732 1490.43,872.632 C1483.83,876.232 1479.73,882.132 1479.73,887.232 C1479.73,888.632 1479.93,889.932 1480.63,891.132 C1482.13,893.832 1485.13,895.532 1489.03,895.932 C1489.63,896.032 1490.13,896.032 1490.73,896.032 C1494.23,896.032 1497.93,895.032 1501.43,893.132 C1508.03,889.532 1512.23,883.732 1512.23,878.632 C1512.23,877.232 1511.93,875.832 1511.23,874.632"/>
<path class="Note" d="M1758.46,1012.14 C1756.96,1009.44 1754.06,1007.74 1750.16,1007.34 C1749.56,1007.24 1749.06,1007.24 1748.46,1007.24 C1744.96,1007.24 1741.16,1008.24 1737.66,1010.14 C1731.06,1013.74 1726.96,1019.64 1726.96,1024.74 C1726.96,1026.14 1727.16,1027.44 1727.86,1028.64 C1729.36,1031.34 1732.36,1033.04 1736.26,1033.44 C1736.86,1033.54 1737.36,1033.54 1737.96,1033.54 C1741.46,1033.54 1745.16,1032.54 1748.66,1030.64 C1755.26,1027.04 1759.46,1021.24 1759.46,1016.14 C1759.46,1014.74 1759.16,1013.34 1758.46,1012.14"/>
<path class="Note" d="M1882.08,999.64 C1880.58,996.94 1877.68,995.24 1873.78,994.84 C1873.18,994.74 1872.68,994.74 1872.08,994.74 C1868.58,994.74 1864.78,995.74 1861.28,997.64 C1854.68,1001.24 1850.58,1007.14 1850.58,1012.24 C1850.58,1013.64 1850.78,1014.94 1851.48,1016.14 C1852.98,1018.84 1855.98,1020.54 1859.88,1020.94 C1860.48,1021.04 1860.98,1021.04 1861.58,1021.04 C1865.08,1021.04 1868.78,1020.04 1872.28,1018.14 C1878.88,1014.54 1883.08,1008.74 1883.08,1003.64 C1883.08,1002.24 1882.78,1000.84 1882.08,999.64"/>
<path class="Note" d="M2005.69,987.139 C2004.19,984.439 2001.29,982.739 1997.39,982.339 C1996.79,982.239 1996.29,982.239 1995.69,982.239 C1992.19,982.239 1988.39,983.239 1984.89,985.139 C1978.29,988.739 1974.19,994.639 1974.19,999.739 C1974.19,1001.14 1974.39,1002.44 1975.09,1003.64 C1976.59,1006.34 1979.59,1008.04 1983.49,1008.44 C1984.09,1008.54 1984.59,1008.54 1985.19,1008.54 C1988.69,1008.54 1992.39,1007.54 1995.89,1005.64 C2002.49,1002.04 2006.69,996.239 2006.69,991.139 C2006.69,989.739 2006.39,988.339 2005.69,987.139"/>
<path class="Note" d="M2129.3,974.639 C2127.8,971.939 2124.9,970.239 2121,969.839 C2120.4,969.739 2119.9,969.739 2119.3,969.739 C2115.8,969.739 2112,970.739 2108.5,972.639 C2101.9,976.239 2097.8,982.139 2097.8,987.239 C2097.8,988.639 2098,989.939 2098.7,991.139 C2100.2,993.839 2103.2,995.539 2107.1,995.939 C2107.7,996.039 2108.2,996.039 2108.8,996.039 C2112.3,996.039 2116,995.039 2119.5,993.139 C2126.1,989.539 2130.3,983.739 2130.3,978.639 C2130.3,977.239 2130,975.839 2129.3,974.639"/>
<path class="Note" d="M2298.67,962.138 C2297.17,959.438 2294.27,957.738 2290.37,957.338 C2289.77,957.238 2289.27,957.238 2288.67,957.238 C2285.17,957.238 2281.37,958.238 2277.87,960.138 C2271.27,963.738 2267.17,969.638 2267.17,974.738 C2267.17,976.138 2267.37,977.438 2268.07,978.638 C2269.57,981.338 2272.57,983.038 2276.47,983.438 C2277.07,983.538 2277.57,983.538 2278.17,983.538 C2281.67,983.538 2285.37,982.538 2288.87,980.638 C2295.47,977.038 2299.67,971.238 2299.67,966.138 C2299.67,964.738 2299.37,963.338 2298.67,962.138"/>
<path class="Note" d="M2435.6,949.637 C2434.1,946.937 2431.2,945.237 2427.3,944.837 C2426.7,944.737 2426.2,944.737 2425.6,944.737 C2422.1,944.737 2418.3,945.737 2414.8,947.637 C2408.2,951.237 2404.1,957.137 2404.1,962.237 C2404.1,963.637 2404.3,964.937 2405,966.137 C2406.5,968.837 2409.5,970.537 2413.4,970.937 C2414,971.037 2414.5,971.037 2415.1,971.037 C2418.6,971.037 2422.3,970.037 2425.8,968.137 C2432.4,964.537 2436.6,958.737 2436.6,953.637 C2436.6,952.237 2436.3,950.837 2435.6,949.637"/>
<path class="Note" d="M2572.54,937.136 C2571.04,934.436 2568.14,932.736 2564.24,932.336 C2563.64,932.236 2563.14,932.236 2562.54,932.236 C2559.04,932.236 2555.24,933.236 2551.74,935.136 C2545.14,938.736 2541.04,944.536 2541.04,949.636 C2541.04,951.036 2541.44,952.436 2542.14,953.636 C2543.64,956.436 2546.44,958.036 2550.34,958.436 C2550.94,958.536 2551.44,958.536 2552.04,958.536 C2555.54,958.536 2559.34,957.536 2562.84,955.636 C2569.44,952.036 2573.54,946.136 2573.54,941.036 C2573.54,939.636 2573.24,938.336 2572.54,937.136 M2568.34,943.436 C2566.64,945.236 2563.44,947.536 2559.84,949.636 C2556.24,951.736 2552.54,953.436 2550.24,954.136 C2549.74,954.236 2549.14,954.336 2548.64,954.336 C2547.14,954.336 2545.84,953.636 2545.14,952.536 C2544.84,951.936 2544.64,951.336 2544.64,950.736 C2544.64,949.636 2545.14,948.536 2546.24,947.336 C2547.94,945.536 2551.14,943.136 2554.74,941.036 C2558.34,938.936 2562.04,937.236 2564.44,936.636 L2564.64,936.636 C2565.24,936.436 2565.74,936.336 2566.24,936.336 C2567.64,936.336 2568.74,936.936 2569.44,938.236 C2569.74,938.836 2569.94,939.336 2569.94,939.936 C2569.94,941.236 2569.24,942.536 2568.34,943.436"/>
<path class="Note" d="M533.654,1562.18 C532.154,1559.48 529.254,1557.78 525.354,1557.38 C524.754,1557.28 524.254,1557.28 523.654,1557.28 C520.154,1557.28 516.354,1558.28 512.854,1560.18 C506.254,1563.78 502.154,1569.68 502.154,1574.78 C502.154,1576.18 502.354,1577.48 503.054,1578.68 C504.554,1581.38 507.554,1583.08 511.454,1583.48 C512.054,1583.58 512.554,1583.58 513.154,1583.58 C516.654,1583.58 520.354,1582.58 523.854,1580.68 C530.454,1577.08 534.654,1571.28 534.654,1566.18 C534.654,1564.78 534.354,1563.38 533.654,1562.18"/>
<path class="Note" d="M667.796,1574.68 C666.296,1571.98 663.396,1570.28 659.496,1569.88 C658.896,1569.78 658.396,1569.78 657.796,1569.78 C654.296,1569.78 650.496,1570.78 646.996,1572.68 C640.396,1576.28 636.296,1582.18 636.296,1587.28 C636.296,1588.68 636.496,1589.98 637.196,1591.18 C638.696,1593.88 641.696,1595.58 645.596,1595.98 C646.196,1596.08 646.696,1596.08 647.296,1596.08 C650.796,1596.08 654.496,1595.08 657.996,1593.18 C664.596,1589.58 668.796,1583.78 668.796,1578.68 C668.796,1577.28 668.496,1575.88 667.796,1574.68"/>
<path class="Note" d="M801.938,1587.18 C800.438,1584.48 797.538,1582.78 793.638,1582.38 C793.038,1582.28 792.538,1582.28 791.938,1582.28 C788.438,1582.28 784.638,1583.28 781.138,1585.18 C774.538,1588.78 770.438,1594.68 770.438,1599.78 C770.438,1601.18 770.638,1602.48 771.338,1603.68 C772.838,1606.38 775.838,1608.08 779.738,1608.48 C780.338,1608.58 780.838,1608.58 781.438,1608.58 C784.938,1608.58 788.638,1607.58 792.138,1605.68 C798.738,1602.08 802.938,1596.28 802.938,1591.18 C802.938,1589.78 802.638,1588.38 801.938,1587.18"/>
<path class="Note" d="M936.08,1599.68 C934.58,1596.98 931.68,1595.28 927.78,1594.88 C927.18,1594.78 926.68,1594.78 926.08,1594.78 C922.58,1594.78 918.78,1595.78 915.28,1597.68 C908.68,1601.28 904.58,1607.18 904.58,1612.28 C904.58,1613.68 904.78,1614.98 905.48,1616.18 C906.98,1618.88 909.98,1620.58 913.88,1620.98 C914.48,1621.08 914.98,1621.08 915.58,1621.08 C919.08,1621.08 922.78,1620.08 926.28,1618.18 C932.88,1614.58 937.08,1608.78 937.08,1603.68 C937.08,1602.28 936.78,1600.88 936.08,1599.68"/>
<path class="Note" d="M1107.22,1612.18 C1105.72,1609.48 1102.82,1607.78 1098.92,1607.38 C1098.32,1607.28 1097.82,1607.28 1097.22,1607.28 C1093.72,1607.28 1089.92,1608.28 1086.42,1610.18 C1079.82,1613.78 1075.72,1619.68 1075.72,1624.78 C1075.72,1626.18 1075.92,1627.48 1076.62,1628.68 C1078.12,1631.38 1081.12,1633.08 1085.02,1633.48 C1085.62,1633.58 1086.12,1633.58 1086.72,1633.58 C1090.22,1633.58 1093.92,1632.58 1097.42,1630.68 C1104.02,1627.08 1108.22,1621.28 1108.22,1616.18 C1108.22,1614.78 1107.92,1613.38 1107.22,1612.18"/>
<path class="Note" d="M1241.37,1624.68 C1239.87,1621.98 1236.97,1620.28 1233.07,1619.88 C1232.47,1619.78 1231.97,1619.78 1231.37,1619.78 C1227.87,1619.78 1224.07,1620.78 1220.57,1622.68 C1213.97,1626.28 1209.87,1632.18 1209.87,1637.28 C1209.87,1638.68 1210.07,1639.98 1210.77,1641.18 C1212.27,1643.88 1215.27,1645.58 1219.17,1645.98 C1219.77,1646.08 1220.27,1646.08 1220.87,1646.08 C1224.37,1646.08 1228.07,1645.08 1231.57,1643.18 C1238.17,1639.58 1242.37,1633.78 1242.37,1628.68 C1242.37,1627.28 1242.07,1625.88 1241.37,1624.68"/>
<path class="Note" d="M1375.51,1637.18 C1374.01,1634.48 1371.11,1632.78 1367.21,1632.38 C1366.61,1632.28 1366.11,1632.28 1365.51,1632.28 C1362.01,1632.28 1358.21,1633.28 1354.71,1635.18 C1348.11,1638.78 1344.01,1644.68 1344.01,1649.78 C1344.01,1651.18 1344.21,1652.48 1344.91,1653.68 C1346.41,1656.38 1349.41,1658.08 1353.31,1658.48 C1353.91,1658.58 1354.41,1658.58 1355.01,1658.58 C1358.51,1658.58 1362.21,1657.58 1365.71,1655.68 C1372.31,1652.08 1376.51,1646.28 1376.51,1641.18 C1376.51,1639.78 1376.21,1638.38 1375.51,1637.18"/>
<path class="Note" d="M1509.65,1649.68 C1508.15,1646.98 1505.25,1645.28 1501.35,1644.88 C1500.75,1644.78 1500.25,1644.78 1499.65,1644.78 C1496.15,1644.78 1492.35,1645.78 1488.85,1647.68 C1482.25,1651.28 1478.15,1657.18 1478.15,1662.28 C1478.15,1663.68 1478.35,1664.98 1479.05,1666.18 C1480.55,1668.88 1483.55,1670.58 1487.45,1670.98 C1488.05,1671.08 1488.55,1671.08 1489.15,1671.08 C1492.65,1671.08 1496.35,1670.08 1499.85,1668.18 C1506.45,1664.58 1510.65,1658.78 1510.65,1653.68 C1510.65,1652.28 1510.35,1650.88 1509.65,1649.68"/>
<path class="Note" d="M1767.2,1512.17 C1765.7,1509.47 1762.8,1507.77 1758.9,1507.37 C1758.3,1507.27 1757.8,1507.27 1757.2,1507.27 C1753.7,1507.27 1749.9,1508.27 1746.4,1510.17 C1739.8,1513.77 1735.7,1519.67 1735.7,1524.77 C1735.7,1526.17 1735.9,1527.47 1736.6,1528.67 C1738.1,1531.37 1741.1,1533.07 1745,1533.47 C1745.6,1533.57 1746.1,1533.57 1746.7,1533.57 C1750.2,1533.57 1753.9,1532.57 1757.4,1530.67 C1764,1527.07 1768.2,1521.27 1768.2,1516.17 C1768.2,1514.77 1767.9,1513.37 1767.2,1512.17"/>
<path class="Note" d="M1893.47,1524.67 C1891.97,1521.97 1889.07,1520.27 1885.17,1519.87 C1884.57,1519.77 1884.07,1519.77 1883.47,1519.77 C1879.97,1519.77 1876.17,1520.77 1872.67,1522.67 C1866.07,1526.27 1861.97,1532.17 1861.97,1537.27 C1861.97,1538.67 1862.17,1539.97 1862.87,1541.17 C1864.37,1543.87 1867.37,1545.57 1871.27,1545.97 C1871.87,1546.07 1872.37,1546.07 1872.97,1546.07 C1876.47,1546.07 1880.17,1545.07 1883.67,1543.17 C1890.27,1539.57 1894.47,1533.77 1894.47,1528.67 C1894.47,1527.27 1894.17,1525.87 1893.47,1524.67"/>
<path class="Note" d="M2019.73,1537.17 C2018.23,1534.47 2015.33,1532.77 2011.43,1532.37 C2010.83,1532.27 2010.33,1532.27 2009.73,1532.27 C2006.23,1532.27 2002.43,1533.27 1998.93,1535.17 C1992.33,1538.77 1988.23,1544.67 1988.23,1549.77 C1988.23,1551.17 1988.43,1552.47 1989.13,1553.67 C1990.63,1556.37 1993.63,1558.07 1997.53,1558.47 C1998.13,1558.57 1998.63,1558.57 1999.23,1558.57 C2002.73,1558.57 2006.43,1557.57 2009.93,1555.67 C2016.53,1552.07 2020.73,1546.27 2020.73,1541.17 C2020.73,1539.77 2020.43,1538.37 2019.73,1537.17"/>
<path class="Note" d="M2146,1549.67 C2144.5,1546.97 2141.6,1545.27 2137.7,1544.87 C2137.1,1544.77 2136.6,1544.77 2136,1544.77 C2132.5,1544.77 2128.7,1545.77 2125.2,1547.67 C2118.6,1551.27 2114.5,1557.17 2114.5,1562.27 C2114.5,1563.67 2114.7,1564.97 2115.4,1566.17 C2116.9,1568.87 2119.9,1570.57 2123.8,1570.97 C2124.4,1571.07 2124.9,1571.07 2125.5,1571.07 C2129,1571.07 2132.7,1570.07 2136.2,1568.17 C2142.8,1564.57 2147,1558.77 2147,1553.67 C2147,1552.27 2146.7,1550.87 2146,1549.67"/>
<path class="Note" d="M2309.27,1562.18 C2307.77,1559.48 2304.87,1557.78 2300.97,1557.38 C2300.37,1557.28 2299.87,1557.28 2299.27,1557.28 C2295.77,1557.28 2291.97,1558.28 2288.47,1560.18 C2281.87,1563.78 2277.77,1569.68 2277.77,1574.78 C2277.77,1576.18 2277.97,1577.48 2278.67,1578.68 C2280.17,1581.38 2283.17,1583.08 2287.07,1583.48 C2287.67,1583.58 2288.17,1583.58 2288.77,1583.58 C2292.27,1583.58 2295.97,1582.58 2299.47,1580.68 C2306.07,1577.08 2310.27,1571.28 2310.27,1566.18 C2310.27,1564.78 2309.97,1563.38 2309.27,1562.18"/>
<path class="Note" d="M2463.41,1574.68 C2461.91,1571.98 2459.01,1570.28 2455.11,1569.88 C2454.51,1569.78 2454.01,1569.78 2453.41,1569.78 C2449.91,1569.78 2446.11,1570.78 2442.61,1572.68 C2436.01,1576.28 2431.91,1582.08 2431.91,1587.18 C2431.91,1588.58 2432.31,1589.98 2433.01,1591.18 C2434.51,1593.98 2437.31,1595.58 2441.21,1595.98 C2441.81,1596.08 2442.31,1596.08 2442.91,1596.08 C2446.41,1596.08 2450.21,1595.08 2453.71,1593.18 C2460.31,1589.58 2464.41,1583.68 2464.41,1578.58 C2464.41,1577.18 2464.11,1575.88 2463.41,1574.68 M2459.21,1580.98 C2457.51,1582.78 2454.31,1585.08 2450.71,1587.18 C2447.11,1589.28 2443.41,1590.98 2441.11,1591.68 C2440.61,1591.78 2440.01,1591.88 2439.51,1591.88 C2438.01,1591.88 2436.71,1591.18 2436.01,1590.08 C2435.71,1589.48 2435.51,1588.88 2435.51,1588.28 C2435.51,1587.18 2436.01,1586.08 2437.11,1584.88 C2438.81,1583.08 2442.01,1580.68 2445.61,1578.58 C2449.21,1576.48 2452.91,1574.78 2455.31,1574.18 L2455.51,1574.18 C2456.11,1573.98 2456.61,1573.88 2457.11,1573.88 C2458.51,1573.88 2459.61,1574.48 2460.31,1575.78 C2460.61,1576.38 2460.81,1576.88 2460.81,1577.48 C2460.81,1578.78 2460.11,1580.08 2459.21,1580.98"/>
<path class="Note" d="M590.556,762.125 C589.056,759.425 586.156,757.725 582.256,757.325 C581.656,757.225 581.156,757.225 580.556,757.225 C577.056,757.225 573.256,758.225 569.756,760.125 C563.156,763.725 559.056,769.625 559.056,774.725 C559.056,776.125 559.256,777.425 559.956,778.625 C561.456,781.325 564.456,783.025 568.356,783.425 C568.956,783.525 569.456,783.525 570.056,783.525 C573.556,783.525 577.256,782.525 580.756,780.625 C587.356,777.025 591.556,771.225 591.556,766.125 C591.556,764.725 591.256,763.325 590.556,762.125"/>
<path class="Note" d="M716.794,749.624 C715.294,746.924 712.394,745.224 708.494,744.824 C707.894,744.724 707.394,744.724 706.794,744.724 C703.294,744.724 699.494,745.724 695.994,747.624 C689.394,751.224 685.294,757.124 685.294,762.224 C685.294,763.624 685.494,764.924 686.194,766.124 C687.694,768.824 690.694,770.524 694.594,770.924 C695.194,771.024 695.694,771.024 696.294,771.024 C699.794,771.024 703.494,770.024 706.994,768.124 C713.594,764.524 717.794,758.724 717.794,753.624 C717.794,752.224 717.494,750.824 716.794,749.624"/>
<path class="Note" d="M843.032,737.124 C841.532,734.424 838.632,732.724 834.732,732.324 C834.132,732.224 833.632,732.224 833.032,732.224 C829.532,732.224 825.732,733.224 822.232,735.124 C815.632,738.724 811.532,744.624 811.532,749.724 C811.532,751.124 811.732,752.424 812.432,753.624 C813.932,756.324 816.932,758.024 820.832,758.424 C821.432,758.524 821.932,758.524 822.532,758.524 C826.032,758.524 829.732,757.524 833.232,755.624 C839.832,752.024 844.032,746.224 844.032,741.124 C844.032,739.724 843.732,738.324 843.032,737.124"/>
<path class="Note" d="M969.271,724.623 C967.771,721.923 964.871,720.223 960.971,719.823 C960.371,719.723 959.871,719.723 959.271,719.723 C955.771,719.723 951.971,720.723 948.471,722.623 C941.871,726.223 937.771,732.123 937.771,737.223 C937.771,738.623 937.971,739.923 938.671,741.123 C940.171,743.823 943.171,745.523 947.071,745.923 C947.671,746.023 948.171,746.023 948.771,746.023 C952.271,746.023 955.971,745.023 959.471,743.123 C966.071,739.523 970.271,733.723 970.271,728.623 C970.271,727.223 969.971,725.823 969.271,724.623"/>
<path class="Note" d="M1132.51,712.122 C1131.01,709.422 1128.11,707.722 1124.21,707.322 C1123.61,707.222 1123.11,707.222 1122.51,707.222 C1119.01,707.222 1115.21,708.222 1111.71,710.122 C1105.11,713.722 1101.01,719.622 1101.01,724.722 C1101.01,726.122 1101.21,727.422 1101.91,728.622 C1103.41,731.322 1106.41,733.022 1110.31,733.422 C1110.91,733.522 1111.41,733.522 1112.01,733.522 C1115.51,733.522 1119.21,732.522 1122.71,730.622 C1129.31,727.022 1133.51,721.222 1133.51,716.122 C1133.51,714.722 1133.21,713.322 1132.51,712.122"/>
<path class="Note" d="M1258.75,699.621 C1257.25,696.921 1254.35,695.221 1250.45,694.821 C1249.85,694.721 1249.35,694.721 1248.75,694.721 C1245.25,694.721 1241.45,695.721 1237.95,697.621 C1231.35,701.221 1227.25,707.121 1227.25,712.221 C1227.25,713.621 1227.45,714.921 1228.15,716.121 C1229.65,718.821 1232.65,720.521 1236.55,720.921 C1237.15,721.021 1237.65,721.021 1238.25,721.021 C1241.75,721.021 1245.45,720.021 1248.95,718.121 C1255.55,714.521 1259.75,708.721 1259.75,703.621 C1259.75,702.221 1259.45,700.821 1258.75,699.621"/>
<path class="Note" d="M1384.99,687.12 C1383.49,684.42 1380.59,682.72 1376.69,682.32 C1376.09,682.22 1375.59,682.22 1374.99,682.22 C1371.49,682.22 1367.69,683.22 1364.19,685.12 C1357.59,688.72 1353.49,694.62 1353.49,699.72 C1353.49,701.12 1353.69,702.42 1354.39,703.62 C1355.89,706.32 1358.89,708.02 1362.79,708.42 C1363.39,708.52 1363.89,708.52 1364.49,708.52 C1367.99,708.52 1371.69,707.52 1375.19,705.62 C1381.79,702.02 1385.99,696.22 1385.99,691.12 C1385.99,689.72 1385.69,688.32 1384.99,687.12"/>
<path class="Note" d="M1511.23,674.62 C1509.73,671.92 1506.83,670.22 1502.93,669.82 C1502.33,669.72 1501.83,669.72 1501.23,669.72 C1497.73,669.72 1493.93,670.72 1490.43,672.62 C1483.83,676.22 1479.73,682.12 1479.73,687.22 C1479.73,688.62 1479.93,689.92 1480.63,691.12 C1482.13,693.82 1485.13,695.52 1489.03,695.92 C1489.63,696.02 1490.13,696.02 1490.73,696.02 C1494.23,696.02 1497.93,695.02 1501.43,693.12 C1508.03,689.52 1512.23,683.72 1512.23,678.62 C1512.23,677.22 1511.93,675.82 1511.23,674.62"/>
<path class="Note" d="M1758.46,662.119 C1756.96,659.419 1754.06,657.719 1750.16,657.319 C1749.56,657.219 1749.06,657.219 1748.46,657.219 C1744.96,657.219 1741.16,658.219 1737.66,660.119 C1731.06,663.719 1726.96,669.619 1726.96,674.719 C1726.96,676.119 1727.16,677.419 1727.86,678.619 C1729.36,681.319 1732.36,683.019 1736.26,683.419 C1736.86,683.519 1737.36,683.519 1737.96,683.519 C1741.46,683.519 1745.16,682.519 1748.66,680.619 C1755.26,677.019 1759.46,671.219 1759.46,666.119 C1759.46,664.719 1759.16,663.319 1758.46,662.119"/>
<path class="Note" d="M1882.08,649.618 C1880.58,646.918 1877.68,645.218 1873.78,644.818 C1873.18,644.718 1872.68,644.718 1872.08,644.718 C1868.58,644.718 1864.78,645.718 1861.28,647.618 C1854.68,651.218 1850.58,657.118 1850.58,662.218 C1850.58,663.618 1850.78,664.918 1851.48,666.118 C1852.98,668.818 1855.98,670.518 1859.88,670.918 C1860.48,671.018 1860.98,671.018 1861.58,671.018 C1865.08,671.018 1868.78,670.018 1872.28,668.118 C1878.88,664.518 1883.08,658.718 1883.08,653.618 C1883.08,652.218 1882.78,650.818 1882.08,649.618"/>
<path class="Note" d="M2005.69,637.117 C2004.19,634.417 2001.29,632.717 1997.39,632.317 C1996.79,632.217 1996.29,632.217 1995.69,632.217 C1992.19,632.217 1988.39,633.217 1984.89,635.117 C1978.29,638.717 1974.19,644.617 1974.19,649.717 C1974.19,651.117 1974.39,652.417 1975.09,653.617 C1976.59,656.317 1979.59,658.017 1983.49,658.417 C1984.09,658.517 1984.59,658.517 1985.19,658.517 C1988.69,658.517 1992.39,657.517 1995.89,655.617 C2002.49,652.017 2006.69,646.217 2006.69,641.117 C2006.69,639.717 2006.39,638.317 2005.69,637.117"/>
<path class="Note" d="M2129.3,624.616 C2127.8,621.916 2124.9,620.216 2121,619.816 C2120.4,619.716 2119.9,619.716 2119.3,619.716 C2115.8,619.716 2112,620.716 2108.5,622.616 C2101.9,626.216 2097.8,632.116 2097.8,637.216 C2097.8,638.616 2098,639.916 2098.7,641.116 C2100.2,643.816 2103.2,645.516 2107.1,645.916 C2107.7,646.016 2108.2,646.016 2108.8,646.016 C2112.3,646.016 2116,645.016 2119.5,643.116 C2126.1,639.516 2130.3,633.716 2130.3,628.616 C2130.3,627.216 2130,625.816 2129.3,624.616"/>
<path class="Note" d="M2298.67,612.116 C2297.17,609.416 2294.27,607.716 2290.37,607.316 C2289.77,607.216 2289.27,607.216 2288.67,607.216 C2285.17,607.216 2281.37,608.216 2277.87,610.116 C2271.27,613.716 2267.17,619.616 2267.17,624.716 C2267.17,626.116 2267.37,627.416 2268.07,628.616 C2269.57,631.316 2272.57,633.016 2276.47,633.416 C2277.07,633.516 2277.57,633.516 2278.17,633.516 C2281.67,633.516 2285.37,632.516 2288.87,630.616 C2295.47,627.016 2299.67,621.216 2299.67,616.116 C2299.67,614.716 2299.37,613.316 2298.67,612.116"/>
<path class="Note" d="M2435.6,599.615 C2434.1,596.915 2431.2,595.215 2427.3,594.815 C2426.7,594.715 2426.2,594.715 2425.6,594.715 C2422.1,594.715 2418.3,595.715 2414.8,597.615 C2408.2,601.215 2404.1,607.115 2404.1,612.215 C2404.1,613.615 2404.3,614.915 2405,616.115 C2406.5,618.815 2409.5,620.515 2413.4,620.915 C2414,621.015 2414.5,621.015 2415.1,621.015 C2418.6,621.015 2422.3,620.015 2425.8,618.115 C2432.4,614.515 2436.6,608.715 2436.6,603.615 C2436.6,602.215 2436.3,600.815 2435.6,599.615"/>
<path class="Note" d="M2572.54,587.114 C2571.04,584.414 2568.14,582.714 2564.24,582.314 C2563.64,582.214 2563.14,582.214 2562.54,582.214 C2559.04,582.214 2555.24,583.214 2551.74,585.114 C2545.14,588.714 2541.04,594.514 2541.04,599.614 C2541.04,601.014 2541.44,602.414 2542.14,603.614 C2543.64,606.414 2546.44,608.014 2550.34,608.414 C2550.94,608.514 2551.44,608.514 2552.04,608.514 C2555.54,608.514 2559.34,607.514 2562.84,605.614 C2569.44,602.014 2573.54,596.114 2573.54,591.014 C2573.54,589.614 2573.24,588.314 2572.54,587.114 M2568.34,593.414 C2566.64,595.214 2563.44,597.514 2559.84,599.614 C2556.24,601.714 2552.54,603.414 2550.24,604.114 C2549.74,604.214 2549.14,604.314 2548.64,604.314 C2547.14,604.314 2545.84,603.614 2545.14,602.514 C2544.84,601.914 2544.64,601.314 2544.64,600.714 C2544.64,599.614 2545.14,598.514 2546.24,597.314 C2547.94,595.514 2551.14,593.114 2554.74,591.014 C2558.34,588.914 2562.04,587.214 2564.44,586.614 L2564.64,586.614 C2565.24,586.414 2565.74,586.314 2566.24,586.314 C2567.64,586.314 2568.74,586.914 2569.44,588.214 C2569.74,588.814 2569.94,589.314 2569.94,589.914 C2569.94,591.214 2569.24,592.514 2568.34,593.414"/>
<path class="Note" d="M533.654,1212.15 C532.154,1209.45 529.254,1207.75 525.354,1207.35 C524.754,1207.25 524.254,1207.25 523.654,1207.25 C520.154,1207.25 516.354,1208.25 512.854,1210.15 C506.254,1213.75 502.154,1219.65 502.154,1224.75 C502.154,1226.15 502.354,1227.45 503.054,1228.65 C504.554,1231.35 507.554,1233.05 511.454,1233.45 C512.054,1233.55 512.554,1233.55 513.154,1233.55 C516.654,1233.55 520.354,1232.55 523.854,1230.65 C530.454,1227.05 534.654,1221.25 534.654,1216.15 C534.654,1214.75 534.354,1213.35 533.654,1212.15"/>
<path class="Note" d="M667.796,1224.65 C666.296,1221.95 663.396,1220.25 659.496,1219.85 C658.896,1219.75 658.396,1219.75 657.796,1219.75 C654.296,1219.75 650.496,1220.75 646.996,1222.65 C640.396,1226.25 636.296,1232.15 636.296,1237.25 C636.296,1238.65 636.496,1239.95 637.196,1241.15 C638.696,1243.85 641.696,1245.55 645.596,1245.95 C646.196,1246.05 646.696,1246.05 647.296,1246.05 C650.796,1246.05 654.496,1245.05 657.996,1243.15 C664.596,1239.55 668.796,1233.75 668.796,1228.65 C668.796,1227.25 668.496,1225.85 667.796,1224.65"/>
<path class="Note" d="M801.938,1237.16 C800.438,1234.46 797.538,1232.76 793.638,1232.36 C793.038,1232.26 792.538,1232.26 791.938,1232.26 C788.438,1232.26 784.638,1233.26 781.138,1235.16 C774.538,1238.76 770.438,1244.66 770.438,1249.76 C770.438,1251.16 770.638,1252.46 771.338,1253.66 C772.838,1256.36 775.838,1258.06 779.738,1258.46 C780.338,1258.56 780.838,1258.56 781.438,1258.56 C784.938,1258.56 788.638,1257.56 792.138,1255.66 C798.738,1252.06 802.938,1246.26 802.938,1241.16 C802.938,1239.76 802.638,1238.36 801.938,1237.16"/>
<path class="Note" d="M936.08,1249.66 C934.58,1246.96 931.68,1245.26 927.78,1244.86 C927.18,1244.76 926.68,1244.76 926.08,1244.76 C922.58,1244.76 918.78,1245.76 915.28,1247.66 C908.68,1251.26 904.58,1257.16 904.58,1262.26 C904.58,1263.66 904.78,1264.96 905.48,1266.16 C906.98,1268.86 909.98,1270.56 913.88,1270.96 C914.48,1271.06 914.98,1271.06 915.58,1271.06 C919.08,1271.06 922.78,1270.06 926.28,1268.16 C932.88,1264.56 937.08,1258.76 937.08,1253.66 C937.08,1252.26 936.78,1250.86 936.08,1249.66"/>
<path class="Note" d="M1107.22,1262.16 C1105.72,1259.46 1102.82,1257.76 1098.92,1257.36 C1098.32,1257.26 1097.82,1257.26 1097.22,1257.26 C1093.72,1257.26 1089.92,1258.26 1086.42,1260.16 C1079.82,1263.76 1075.72,1269.66 1075.72,1274.76 C1075.72,1276.16 1075.92,1277.46 1076.62,1278.66 C1078.12,1281.36 1081.12,1283.06 1085.02,1283.46 C1085.62,1283.56 1086.12,1283.56 1086.72,1283.56 C1090.22,1283.56 1093.92,1282.56 1097.42,1280.66 C1104.02,1277.06 1108.22,1271.26 1108.22,1266.16 C1108.22,1264.76 1107.92,1263.36 1107.22,1262.16"/>
<path class="Note" d="M1241.37,1274.66 C1239.87,1271.96 1236.97,1270.26 1233.07,1269.86 C1232.47,1269.76 1231.97,1269.76 1231.37,1269.76 C1227.87,1269.76 1224.07,1270.76 1220.57,1272.66 C1213.97,1276.26 1209.87,1282.16 1209.87,1287.26 C1209.87,1288.66 1210.07,1289.96 1210.77,1291.16 C1212.27,1293.86 1215.27,1295.56 1219.17,1295.96 C1219.77,1296.06 1220.27,1296.06 1220.87,1296.06 C1224.37,1296.06 1228.07,1295.06 1231.57,1293.16 C1238.17,1289.56 1242.37,1283.76 1242.37,1278.66 C1242.37,1277.26 1242.07,1275.86 1241.37,1274.66"/>
<path class="Note" d="M1375.51,1287.16 C1374.01,1284.46 1371.11,1282.76 1367.21,1282.36 C1366.61,1282.26 1366.11,1282.26 1365.51,1282.26 C1362.01,1282.26 1358.21,1283.26 1354.71,1285.16 C1348.11,1288.76 1344.01,1294.66 1344.01,1299.76 C1344.01,1301.16 1344.21,1302.46 1344.91,1303.66 C1346.41,1306.36 1349.41,1308.06 1353.31,1308.46 C1353.91,1308.56 1354.41,1308.56 1355.01,1308.56 C1358.51,1308.56 1362.21,1307.56 1365.71,1305.66 C1372.31,1302.06 1376.51,1296.26 1376.51,1291.16 C1376.51,1289.76 1376.21,1288.36 1375.51,1287.16"/>
<path class="Note" d="M1509.65,1299.66 C1508.15,1296.96 1505.25,1295.26 1501.35,1294.86 C1500.75,1294.76 1500.25,1294.76 1499.65,1294.76 C1496.15,1294.76 1492.35,1295.76 1488.85,1297.66 C1482.25,1301.26 1478.15,1307.16 1478.15,1312.26 C1478.15,1313.66 1478.35,1314.96 1479.05,1316.16 C1480.55,1318.86 1483.55,1320.56 1487.45,1320.96 C1488.05,1321.06 1488.55,1321.06 1489.15,1321.06 C1492.65,1321.06 1496.35,1320.06 1499.85,1318.16 C1506.45,1314.56 1510.65,1308.76 1510.65,1303.66 C1510.65,1302.26 1510.35,1300.86 1509.65,1299.66"/>
<path class="Note" d="M1767.2,1312.16 C1765.7,1309.46 1762.8,1307.76 1758.9,1307.36 C1758.3,1307.26 1757.8,1307.26 1757.2,1307.26 C1753.7,1307.26 1749.9,1308.26 1746.4,1310.16 C1739.8,1313.76 1735.7,1319.66 1735.7,1324.76 C1735.7,1326.16 1735.9,1327.46 1736.6,1328.66 C1738.1,1331.36 1741.1,1333.06 1745,1333.46 C1745.6,1333.56 1746.1,1333.56 1746.7,1333.56 C1750.2,1333.56 1753.9,1332.56 1757.4,1330.66 C1764,1327.06 1768.2,1321.26 1768.2,1316.16 C1768.2,1314.76 1767.9,1313.36 1767.2,1312.16"/>
<path class="Note" d="M1893.47,1324.66 C1891.97,1321.96 1889.07,1320.26 1885.17,1319.86 C1884.57,1319.76 1884.07,1319.76 1883.47,1319.76 C1879.97,1319.76 1876.17,1320.76 1872.67,1322.66 C1866.07,1326.26 1861.97,1332.16 1861.97,1337.26 C1861.97,1338.66 1862.17,1339.96 1862.87,1341.16 C1864.37,1343.86 1867.37,1345.56 1871.27,1345.96 C1871.87,1346.06 1872.37,1346.06 1872.97,1346.06 C1876.47,1346.06 1880.17,1345.06 1883.67,1343.16 C1890.27,1339.56 1894.47,1333.76 1894.47,1328.66 C1894.47,1327.26 1894.17,1325.86 1893.47,1324.66"/>
<path class="Note" d="M2019.73,1337.16 C2018.23,1334.46 2015.33,1332.76 2011.43,1332.36 C2010.83,1332.26 2010.33,1332.26 2009.73,1332.26 C2006.23,1332.26 2002.43,1333.26 1998.93,1335.16 C1992.33,1338.76 1988.23,1344.66 1988.23,1349.76 C1988.23,1351.16 1988.43,1352.46 1989.13,1353.66 C1990.63,1356.36 1993.63,1358.06 1997.53,1358.46 C1998.13,1358.56 1998.63,1358.56 1999.23,1358.56 C2002.73,1358.56 2006.43,1357.56 2009.93,1355.66 C2016.53,1352.06 2020.73,1346.26 2020.73,1341.16 C2020.73,1339.76 2020.43,1338.36 2019.73,1337.16"/>
<path class="Note" d="M2146,1349.66 C2144.5,1346.96 2141.6,1345.26 2137.7,1344.86 C2137.1,1344.76 2136.6,1344.76 2136,1344.76 C2132.5,1344.76 2128.7,1345.76 2125.2,1347.66 C2118.6,1351.26 2114.5,1357.16 2114.5,1362.26 C2114.5,1363.66 2114.7,1364.96 2115.4,1366.16 C2116.9,1368.86 2119.9,1370.56 2123.8,1370.96 C2124.4,1371.06 2124.9,1371.06 2125.5,1371.06 C2129,1371.06 2132.7,1370.06 2136.2,1368.16 C2142.8,1364.56 2147,1358.76 2147,1353.66 C2147,1352.26 2146.7,1350.86 2146,1349.66"/>
<path class="Note" d="M2309.27,1362.16 C2307.77,1359.46 2304.87,1357.76 2300.97,1357.36 C2300.37,1357.26 2299.87,1357.26 2299.27,1357.26 C2295.77,1357.26 2291.97,1358.26 2288.47,1360.16 C2281.87,1363.76 2277.77,1369.66 2277.77,1374.76 C2277.77,1376.16 2277.97,1377.46 2278.67,1378.66 C2280.17,1381.36 2283.17,1383.06 2287.07,1383.46 C2287.67,1383.56 2288.17,1383.56 2288.77,1383.56 C2292.27,1383.56 2295.97,1382.56 2299.47,1380.66 C2306.07,1377.06 2310.27,1371.26 2310.27,1366.16 C2310.27,1364.76 2309.97,1363.36 2309.27,1362.16"/>
<path class="Note" d="M2463.41,1374.66 C2461.91,1371.96 2459.01,1370.26 2455.11,1369.86 C2454.51,1369.76 2454.01,1369.76 2453.41,1369.76 C2449.91,1369.76 2446.11,1370.76 2442.61,1372.66 C2436.01,1376.26 2431.91,1382.06 2431.91,1387.16 C2431.91,1388.56 2432.31,1389.96 2433.01,1391.16 C2434.51,1393.96 2437.31,1395.56 2441.21,1395.96 C2441.81,1396.06 2442.31,1396.06 2442.91,1396.06 C2446.41,1396.06 2450.21,1395.06 2453.71,1393.16 C2460.31,1389.56 2464.41,1383.66 2464.41,1378.56 C2464.41,1377.16 2464.11,1375.86 2463.41,1374.66 M2459.21,1380.96 C2457.51,1382.76 2454.31,1385.06 2450.71,1387.16 C2447.11,1389.26 2443.41,1390.96 2441.11,1391.66 C2440.61,1391.76 2440.01,1391.86 2439.51,1391.86 C2438.01,1391.86 2436.71,1391.16 2436.01,1390.06 C2435.71,1389.46 2435.51,1388.86 2435.51,1388.26 C2435.51,1387.16 2436.01,1386.06 2437.11,1384.86 C2438.81,1383.06 2442.01,1380.66 2445.61,1378.56 C2449.21,1376.46 2452.91,1374.76 2455.31,1374.16 L2455.51,1374.16 C2456.11,1373.96 2456.61,1373.86 2457.11,1373.86 C2458.51,1373.86 2459.61,1374.46 2460.31,1375.76 C2460.61,1376.36 2460.81,1376.86 2460.81,1377.46 C2460.81,1378.76 2460.11,1380.06 2459.21,1380.96"/>
<path class="Clef" d="M297,907.735 C289.4,907.735 283.3,912.135 283.2,912.135 C277.4,916.435 275.1,921.535 274.2,925.035 C273.7,926.835 273.5,928.635 273.5,930.335 C273.5,932.735 273.9,934.935 274.8,936.835 C276,939.535 278.3,941.435 281.3,942.435 C282.5,942.835 283.8,943.035 285.1,943.035 C287.3,943.035 289.6,942.435 291.5,941.335 C294.6,939.635 296.5,936.035 296.5,932.135 C296.5,928.635 294.7,925.435 291.7,923.535 C289.6,922.135 287.6,921.735 285.9,921.735 C284.7,921.735 283.6,921.935 282.7,922.235 C281.7,922.635 280,923.635 279.2,924.335 C279.5,922.435 280.7,919.535 281.8,917.935 C282.9,916.335 285.1,914.335 286.8,913.435 C289.3,912.035 292.5,911.435 296,911.435 C306.2,911.435 311.2,919.635 311.2,936.435 C311.2,945.735 307.7,954.635 304.7,960.535 C301.4,967.135 297,973.435 293.1,976.935 C282.7,986.435 272.9,990.935 272.8,990.935 C272.8,990.935 271.3,991.835 271.7,993.335 C272,994.335 272.9,994.535 273.5,994.535 C273.6,994.535 273.9,994.435 274,994.435 C274.1,994.435 285.5,989.735 294.6,982.635 C299.7,978.935 304.3,974.935 308.3,970.635 C311.9,966.735 315,962.535 317.5,958.335 C321.9,950.835 324.4,943.035 324.4,936.335 C324.4,928.035 322.2,921.135 318.1,916.235 C313.4,910.635 306.3,907.735 297,907.735 M328.4,920.435 C328.4,923.235 330.6,925.435 333.2,925.435 C335.8,925.435 338,923.235 338,920.435 C338,917.635 335.8,915.335 333.2,915.335 C330.6,915.335 328.4,917.635 328.4,920.435 M328.4,945.135 C328.4,947.935 330.6,950.235 333.2,950.235 C335.8,950.235 338,947.935 338,945.135 C338,942.335 335.8,940.035 333.2,940.035 C330.6,940.035 328.4,942.335 328.4,945.135"/>
<path class="Clef" d="M1693.87,976.939 C1692.67,971.539 1689.97,967.639 1689.17,966.639 C1685.97,962.339 1681.97,959.539 1677.27,958.139 C1674.97,957.439 1672.87,957.239 1670.87,957.239 C1670.17,957.239 1669.47,957.239 1668.77,957.339 C1667.77,951.339 1666.67,945.439 1665.77,940.039 C1671.37,933.839 1675.07,927.939 1677.47,923.539 C1681.07,916.839 1682.47,912.139 1682.57,911.939 C1683.77,908.939 1684.47,905.139 1684.47,900.639 C1684.47,897.939 1684.17,895.039 1683.77,892.039 C1682.67,884.939 1680.47,878.239 1677.97,874.539 C1676.67,872.639 1675.47,871.539 1674.27,871.539 C1673.07,871.539 1670.57,872.739 1667.67,875.539 C1665.37,877.739 1662.07,881.639 1659.47,887.639 C1657.17,893.039 1656.47,899.939 1656.47,905.839 C1656.47,907.639 1656.57,909.339 1656.67,910.939 C1656.87,914.539 1657.57,920.339 1658.17,923.939 C1658.17,924.039 1658.47,925.539 1658.87,928.139 L1658.17,928.839 C1657.17,929.839 1655.97,930.939 1654.57,932.339 C1653.67,933.239 1652.77,934.039 1651.77,935.039 C1643.27,943.239 1630.47,955.639 1630.47,974.739 C1630.47,979.439 1631.37,983.839 1633.17,987.839 C1634.77,991.439 1637.07,994.739 1639.97,997.639 C1647.47,1005.04 1657.67,1008.24 1664.77,1008.24 L1665.37,1008.24 C1668.27,1008.14 1670.97,1007.84 1673.37,1007.44 C1675.17,1017.04 1676.37,1024.14 1676.37,1029.44 C1676.37,1035.94 1674.77,1039.84 1670.87,1042.64 C1668.47,1044.34 1665.57,1045.44 1662.47,1045.54 L1661.67,1045.54 C1660.17,1045.54 1657.67,1045.14 1656.17,1044.74 C1656.17,1044.74 1655.87,1044.64 1655.87,1044.44 C1655.87,1044.24 1656.27,1044.24 1656.27,1044.24 C1658.17,1043.84 1661.77,1042.54 1664.17,1039.24 C1665.27,1037.74 1665.97,1035.44 1665.97,1032.94 C1665.97,1031.34 1665.67,1029.64 1664.97,1028.14 C1663.87,1025.74 1661.27,1022.74 1655.67,1022.34 L1654.57,1022.34 C1652.47,1022.34 1650.67,1022.84 1648.97,1023.84 C1647.17,1024.94 1645.57,1026.64 1644.57,1028.64 C1643.47,1030.64 1642.97,1032.84 1642.97,1035.04 C1642.97,1037.94 1643.87,1040.64 1645.67,1042.84 C1648.67,1046.44 1653.37,1048.74 1658.77,1049.34 C1659.47,1049.44 1660.57,1049.54 1661.27,1049.54 C1665.67,1049.54 1670.07,1048.34 1673.67,1046.14 C1677.37,1043.54 1679.47,1039.54 1680.17,1033.94 C1680.37,1032.64 1680.37,1031.24 1680.37,1029.74 C1680.37,1025.84 1679.87,1021.14 1678.87,1015.34 C1678.47,1013.24 1678.07,1010.24 1677.37,1006.44 C1683.17,1004.54 1687.27,1000.84 1691.07,995.039 C1693.37,991.039 1694.47,986.939 1694.47,982.639 C1694.47,980.739 1694.27,978.839 1693.87,976.939 M1663.67,899.039 C1665.47,893.339 1668.17,889.939 1670.17,888.239 C1671.97,886.739 1673.57,886.039 1674.47,886.039 C1674.57,886.039 1674.77,886.139 1674.87,886.139 C1675.17,886.239 1675.57,886.739 1675.97,887.439 C1676.87,889.239 1677.77,892.539 1677.77,896.239 C1677.77,898.139 1677.57,900.139 1676.97,901.939 C1674.77,908.739 1670.17,916.039 1663.17,923.739 C1662.97,922.639 1662.77,921.639 1662.67,920.639 C1662.17,917.439 1661.87,914.239 1661.87,911.339 C1661.87,906.839 1662.47,902.739 1663.67,899.039 M1659.67,1003.14 C1655.07,1001.94 1650.57,999.439 1646.77,995.939 C1645.47,994.739 1643.67,992.539 1642.17,989.139 C1640.87,986.139 1640.17,983.039 1640.17,979.639 L1640.17,978.939 C1640.27,974.239 1641.57,969.439 1644.07,964.639 C1646.97,959.039 1651.47,953.539 1657.57,948.239 C1659.07,946.939 1660.47,945.639 1661.77,944.339 C1662.57,948.639 1663.27,953.339 1664.17,958.239 C1660.27,959.539 1655.57,962.539 1652.47,968.239 C1650.07,972.739 1649.37,976.639 1649.37,979.839 C1649.37,981.339 1649.57,982.739 1649.77,983.839 C1650.67,988.339 1653.27,992.039 1656.77,994.139 C1657.57,994.639 1660.87,996.339 1662.87,996.339 C1663.17,996.339 1663.47,996.339 1663.67,996.239 C1663.97,996.139 1664.27,995.939 1664.37,995.639 C1664.47,995.439 1664.47,995.239 1664.47,995.039 C1664.47,994.239 1663.67,993.639 1662.37,992.839 C1661.77,992.439 1661.07,992.039 1660.37,991.539 C1657.77,989.539 1656.27,986.439 1656.27,983.039 C1656.27,982.039 1656.47,981.139 1656.67,980.139 C1657.17,978.139 1658.87,975.339 1660.37,973.939 C1662.07,972.439 1664.07,971.239 1666.47,970.639 C1668.47,981.839 1670.57,992.939 1672.17,1001.34 C1672.27,1002.04 1672.47,1002.74 1672.57,1003.44 C1670.57,1003.84 1668.57,1004.04 1666.67,1004.04 C1664.27,1004.04 1661.97,1003.74 1659.67,1003.14 M1685.37,992.939 C1684.17,996.139 1681.67,1000.14 1676.57,1002.24 C1676.47,1001.84 1676.47,1001.34 1676.37,1000.94 C1674.87,992.139 1672.97,981.239 1670.97,969.939 L1671.97,969.939 C1681.67,969.939 1685.57,977.139 1686.47,981.739 C1686.67,982.639 1686.77,983.839 1686.77,985.139 C1686.77,987.439 1686.37,990.239 1685.37,992.939"/>
<path class="Clef" d="M335,1589.48 C333.8,1584.08 331.1,1580.18 330.3,1579.18 C327.1,1574.88 323.1,1572.08 318.4,1570.68 C316.1,1569.98 314,1569.78 312,1569.78 C311.3,1569.78 310.6,1569.78 309.9,1569.88 C308.9,1563.88 307.8,1557.98 306.9,1552.58 C312.5,1546.38 316.2,1540.48 318.6,1536.08 C322.2,1529.38 323.6,1524.68 323.7,1524.48 C324.9,1521.48 325.6,1517.68 325.6,1513.18 C325.6,1510.48 325.3,1507.58 324.9,1504.58 C323.8,1497.48 321.6,1490.78 319.1,1487.08 C317.8,1485.18 316.6,1484.08 315.4,1484.08 C314.2,1484.08 311.7,1485.28 308.8,1488.08 C306.5,1490.28 303.2,1494.18 300.6,1500.18 C298.3,1505.58 297.6,1512.48 297.6,1518.38 C297.6,1520.18 297.7,1521.88 297.8,1523.48 C298,1527.08 298.7,1532.88 299.3,1536.48 C299.3,1536.58 299.6,1538.08 300,1540.68 L299.3,1541.38 C298.3,1542.38 297.1,1543.48 295.7,1544.88 C294.8,1545.78 293.9,1546.58 292.9,1547.58 C284.4,1555.78 271.6,1568.18 271.6,1587.28 C271.6,1591.98 272.5,1596.38 274.3,1600.38 C275.9,1603.98 278.2,1607.28 281.1,1610.18 C288.6,1617.58 298.8,1620.78 305.9,1620.78 L306.5,1620.78 C309.4,1620.68 312.1,1620.38 314.5,1619.98 C316.3,1629.58 317.5,1636.68 317.5,1641.98 C317.5,1648.48 315.9,1652.38 312,1655.18 C309.6,1656.88 306.7,1657.98 303.6,1658.08 L302.8,1658.08 C301.3,1658.08 298.8,1657.68 297.3,1657.28 C297.3,1657.28 297,1657.18 297,1656.98 C297,1656.78 297.4,1656.78 297.4,1656.78 C299.3,1656.38 302.9,1655.08 305.3,1651.78 C306.4,1650.28 307.1,1647.98 307.1,1645.48 C307.1,1643.88 306.8,1642.18 306.1,1640.68 C305,1638.28 302.4,1635.28 296.8,1634.88 L295.7,1634.88 C293.6,1634.88 291.8,1635.38 290.1,1636.38 C288.3,1637.48 286.7,1639.18 285.7,1641.18 C284.6,1643.18 284.1,1645.38 284.1,1647.58 C284.1,1650.48 285,1653.18 286.8,1655.38 C289.8,1658.98 294.5,1661.28 299.9,1661.88 C300.6,1661.98 301.7,1662.08 302.4,1662.08 C306.8,1662.08 311.2,1660.88 314.8,1658.68 C318.5,1656.08 320.6,1652.08 321.3,1646.48 C321.5,1645.18 321.5,1643.78 321.5,1642.28 C321.5,1638.38 321,1633.68 320,1627.88 C319.6,1625.78 319.2,1622.78 318.5,1618.98 C324.3,1617.08 328.4,1613.38 332.2,1607.58 C334.5,1603.58 335.6,1599.48 335.6,1595.18 C335.6,1593.28 335.4,1591.38 335,1589.48 M304.8,1511.58 C306.6,1505.88 309.3,1502.48 311.3,1500.78 C313.1,1499.28 314.7,1498.58 315.6,1498.58 C315.7,1498.58 315.9,1498.68 316,1498.68 C316.3,1498.78 316.7,1499.28 317.1,1499.98 C318,1501.78 318.9,1505.08 318.9,1508.78 C318.9,1510.68 318.7,1512.68 318.1,1514.48 C315.9,1521.28 311.3,1528.58 304.3,1536.28 C304.1,1535.18 303.9,1534.18 303.8,1533.18 C303.3,1529.98 303,1526.78 303,1523.88 C303,1519.38 303.6,1515.28 304.8,1511.58 M300.8,1615.68 C296.2,1614.48 291.7,1611.98 287.9,1608.48 C286.6,1607.28 284.8,1605.08 283.3,1601.68 C282,1598.68 281.3,1595.58 281.3,1592.18 L281.3,1591.48 C281.4,1586.78 282.7,1581.98 285.2,1577.18 C288.1,1571.58 292.6,1566.08 298.7,1560.78 C300.2,1559.48 301.6,1558.18 302.9,1556.88 C303.7,1561.18 304.4,1565.88 305.3,1570.78 C301.4,1572.08 296.7,1575.08 293.6,1580.78 C291.2,1585.28 290.5,1589.18 290.5,1592.38 C290.5,1593.88 290.7,1595.28 290.9,1596.38 C291.8,1600.88 294.4,1604.58 297.9,1606.68 C298.7,1607.18 302,1608.88 304,1608.88 C304.3,1608.88 304.6,1608.88 304.8,1608.78 C305.1,1608.68 305.4,1608.48 305.5,1608.18 C305.6,1607.98 305.6,1607.78 305.6,1607.58 C305.6,1606.78 304.8,1606.18 303.5,1605.38 C302.9,1604.98 302.2,1604.58 301.5,1604.08 C298.9,1602.08 297.4,1598.98 297.4,1595.58 C297.4,1594.58 297.6,1593.68 297.8,1592.68 C298.3,1590.68 300,1587.88 301.5,1586.48 C303.2,1584.98 305.2,1583.78 307.6,1583.18 C309.6,1594.38 311.7,1605.48 313.3,1613.88 C313.4,1614.58 313.6,1615.28 313.7,1615.98 C311.7,1616.38 309.7,1616.58 307.8,1616.58 C305.4,1616.58 303.1,1616.28 300.8,1615.68 M326.5,1605.48 C325.3,1608.68 322.8,1612.68 317.7,1614.78 C317.6,1614.38 317.6,1613.88 317.5,1613.48 C316,1604.68 314.1,1593.78 312.1,1582.48 L313.1,1582.48 C322.8,1582.48 326.7,1589.68 327.6,1594.28 C327.8,1595.18 327.9,1596.38 327.9,1597.68 C327.9,1599.98 327.5,1602.78 326.5,1605.48"/>
<path class="Clef" d="M1662.2,1520.27 C1654.6,1520.27 1648.5,1524.67 1648.4,1524.67 C1642.6,1528.97 1640.3,1534.07 1639.4,1537.57 C1638.9,1539.37 1638.7,1541.17 1638.7,1542.87 C1638.7,1545.27 1639.1,1547.47 1640,1549.37 C1641.2,1552.07 1643.5,1553.97 1646.5,1554.97 C1647.7,1555.37 1649,1555.57 1650.3,1555.57 C1652.5,1555.57 1654.8,1554.97 1656.7,1553.87 C1659.8,1552.17 1661.7,1548.57 1661.7,1544.67 C1661.7,1541.17 1659.9,1537.97 1656.9,1536.07 C1654.8,1534.67 1652.8,1534.27 1651.1,1534.27 C1649.9,1534.27 1648.8,1534.47 1647.9,1534.77 C1646.9,1535.17 1645.2,1536.17 1644.4,1536.87 C1644.7,1534.97 1645.9,1532.07 1647,1530.47 C1648.1,1528.87 1650.3,1526.87 1652,1525.97 C1654.5,1524.57 1657.7,1523.97 1661.2,1523.97 C1671.4,1523.97 1676.4,1532.17 1676.4,1548.97 C1676.4,1558.27 1672.9,1567.17 1669.9,1573.07 C1666.6,1579.67 1662.2,1585.97 1658.3,1589.47 C1647.9,1598.97 1638.1,1603.47 1638,1603.47 C1638,1603.47 1636.5,1604.37 1636.9,1605.87 C1637.2,1606.87 1638.1,1607.07 1638.7,1607.07 C1638.8,1607.07 1639.1,1606.97 1639.2,1606.97 C1639.3,1606.97 1650.7,1602.27 1659.8,1595.17 C1664.9,1591.47 1669.5,1587.47 1673.5,1583.17 C1677.1,1579.27 1680.2,1575.07 1682.7,1570.87 C1687.1,1563.37 1689.6,1555.57 1689.6,1548.87 C1689.6,1540.57 1687.4,1533.67 1683.3,1528.77 C1678.6,1523.17 1671.5,1520.27 1662.2,1520.27 M1693.6,1532.97 C1693.6,1535.77 1695.8,1537.97 1698.4,1537.97 C1701,1537.97 1703.2,1535.77 1703.2,1532.97 C1703.2,1530.17 1701,1527.87 1698.4,1527.87 C1695.8,1527.87 1693.6,1530.17 1693.6,1532.97 M1693.6,1557.67 C1693.6,1560.47 1695.8,1562.77 1698.4,1562.77 C1701,1562.77 1703.2,1560.47 1703.2,1557.67 C1703.2,1554.87 1701,1552.57 1698.4,1552.57 C1695.8,1552.57 1693.6,1554.87 1693.6,1557.67"/>
<path class="Clef" d="M335,714.422 C333.8,709.022 331.1,705.122 330.3,704.122 C327.1,699.822 323.1,697.022 318.4,695.622 C316.1,694.922 314,694.722 312,694.722 C311.3,694.722 310.6,694.722 309.9,694.822 C308.9,688.822 307.8,682.922 306.9,677.522 C312.5,671.322 316.2,665.422 318.6,661.022 C322.2,654.322 323.6,649.622 323.7,649.422 C324.9,646.422 325.6,642.622 325.6,638.122 C325.6,635.422 325.3,632.522 324.9,629.522 C323.8,622.422 321.6,615.722 319.1,612.022 C317.8,610.122 316.6,609.022 315.4,609.022 C314.2,609.022 311.7,610.222 308.8,613.022 C306.5,615.222 303.2,619.122 300.6,625.122 C298.3,630.522 297.6,637.422 297.6,643.322 C297.6,645.122 297.7,646.822 297.8,648.422 C298,652.022 298.7,657.822 299.3,661.422 C299.3,661.522 299.6,663.022 300,665.622 L299.3,666.322 C298.3,667.322 297.1,668.422 295.7,669.822 C294.8,670.722 293.9,671.522 292.9,672.522 C284.4,680.722 271.6,693.122 271.6,712.222 C271.6,716.922 272.5,721.322 274.3,725.322 C275.9,728.922 278.2,732.222 281.1,735.122 C288.6,742.522 298.8,745.722 305.9,745.722 L306.5,745.722 C309.4,745.622 312.1,745.322 314.5,744.922 C316.3,754.522 317.5,761.622 317.5,766.922 C317.5,773.422 315.9,777.322 312,780.122 C309.6,781.822 306.7,782.922 303.6,783.022 L302.8,783.022 C301.3,783.022 298.8,782.622 297.3,782.222 C297.3,782.222 297,782.122 297,781.922 C297,781.722 297.4,781.722 297.4,781.722 C299.3,781.322 302.9,780.022 305.3,776.722 C306.4,775.222 307.1,772.922 307.1,770.422 C307.1,768.822 306.8,767.122 306.1,765.622 C305,763.222 302.4,760.222 296.8,759.822 L295.7,759.822 C293.6,759.822 291.8,760.322 290.1,761.322 C288.3,762.422 286.7,764.122 285.7,766.122 C284.6,768.122 284.1,770.322 284.1,772.522 C284.1,775.422 285,778.122 286.8,780.322 C289.8,783.922 294.5,786.222 299.9,786.822 C300.6,786.922 301.7,787.022 302.4,787.022 C306.8,787.022 311.2,785.822 314.8,783.622 C318.5,781.022 320.6,777.022 321.3,771.422 C321.5,770.122 321.5,768.722 321.5,767.222 C321.5,763.322 321,758.622 320,752.822 C319.6,750.722 319.2,747.722 318.5,743.922 C324.3,742.022 328.4,738.322 332.2,732.522 C334.5,728.522 335.6,724.422 335.6,720.122 C335.6,718.222 335.4,716.322 335,714.422 M304.8,636.522 C306.6,630.822 309.3,627.422 311.3,625.722 C313.1,624.222 314.7,623.522 315.6,623.522 C315.7,623.522 315.9,623.622 316,623.622 C316.3,623.722 316.7,624.222 317.1,624.922 C318,626.722 318.9,630.022 318.9,633.722 C318.9,635.622 318.7,637.622 318.1,639.422 C315.9,646.222 311.3,653.522 304.3,661.222 C304.1,660.122 303.9,659.122 303.8,658.122 C303.3,654.922 303,651.722 303,648.822 C303,644.322 303.6,640.222 304.8,636.522 M300.8,740.622 C296.2,739.422 291.7,736.922 287.9,733.422 C286.6,732.222 284.8,730.022 283.3,726.622 C282,723.622 281.3,720.522 281.3,717.122 L281.3,716.422 C281.4,711.722 282.7,706.922 285.2,702.122 C288.1,696.522 292.6,691.022 298.7,685.722 C300.2,684.422 301.6,683.122 302.9,681.822 C303.7,686.122 304.4,690.822 305.3,695.722 C301.4,697.022 296.7,700.022 293.6,705.722 C291.2,710.222 290.5,714.122 290.5,717.322 C290.5,718.822 290.7,720.222 290.9,721.322 C291.8,725.822 294.4,729.522 297.9,731.622 C298.7,732.122 302,733.822 304,733.822 C304.3,733.822 304.6,733.822 304.8,733.722 C305.1,733.622 305.4,733.422 305.5,733.122 C305.6,732.922 305.6,732.722 305.6,732.522 C305.6,731.722 304.8,731.122 303.5,730.322 C302.9,729.922 302.2,729.522 301.5,729.022 C298.9,727.022 297.4,723.922 297.4,720.522 C297.4,719.522 297.6,718.622 297.8,717.622 C298.3,715.622 300,712.822 301.5,711.422 C303.2,709.922 305.2,708.722 307.6,708.122 C309.6,719.322 311.7,730.422 313.3,738.822 C313.4,739.522 313.6,740.222 313.7,740.922 C311.7,741.322 309.7,741.522 307.8,741.522 C305.4,741.522 303.1,741.222 300.8,740.622 M326.5,730.422 C325.3,733.622 322.8,737.622 317.7,739.722 C317.6,739.322 317.6,738.822 317.5,738.422 C316,729.622 314.1,718.722 312.1,707.422 L313.1,707.422 C322.8,707.422 326.7,714.622 327.6,719.222 C327.8,720.122 327.9,721.322 327.9,722.622 C327.9,724.922 327.5,727.722 326.5,730.422"/>
<path class="Clef" d="M335,1326.96 C333.8,1321.56 331.1,1317.66 330.3,1316.66 C327.1,1312.36 323.1,1309.56 318.4,1308.16 C316.1,1307.46 314,1307.26 312,1307.26 C311.3,1307.26 310.6,1307.26 309.9,1307.36 C308.9,1301.36 307.8,1295.46 306.9,1290.06 C312.5,1283.86 316.2,1277.96 318.6,1273.56 C322.2,1266.86 323.6,1262.16 323.7,1261.96 C324.9,1258.96 325.6,1255.16 325.6,1250.66 C325.6,1247.96 325.3,1245.06 324.9,1242.06 C323.8,1234.96 321.6,1228.26 319.1,1224.56 C317.8,1222.66 316.6,1221.56 315.4,1221.56 C314.2,1221.56 311.7,1222.76 308.8,1225.56 C306.5,1227.76 303.2,1231.66 300.6,1237.66 C298.3,1243.06 297.6,1249.96 297.6,1255.86 C297.6,1257.66 297.7,1259.36 297.8,1260.96 C298,1264.56 298.7,1270.36 299.3,1273.96 C299.3,1274.06 299.6,1275.56 300,1278.16 L299.3,1278.86 C298.3,1279.86 297.1,1280.96 295.7,1282.36 C294.8,1283.26 293.9,1284.06 292.9,1285.06 C284.4,1293.26 271.6,1305.66 271.6,1324.76 C271.6,1329.46 272.5,1333.86 274.3,1337.86 C275.9,1341.46 278.2,1344.76 281.1,1347.66 C288.6,1355.06 298.8,1358.26 305.9,1358.26 L306.5,1358.26 C309.4,1358.16 312.1,1357.86 314.5,1357.46 C316.3,1367.06 317.5,1374.16 317.5,1379.46 C317.5,1385.96 315.9,1389.86 312,1392.66 C309.6,1394.36 306.7,1395.46 303.6,1395.56 L302.8,1395.56 C301.3,1395.56 298.8,1395.16 297.3,1394.76 C297.3,1394.76 297,1394.66 297,1394.46 C297,1394.26 297.4,1394.26 297.4,1394.26 C299.3,1393.86 302.9,1392.56 305.3,1389.26 C306.4,1387.76 307.1,1385.46 307.1,1382.96 C307.1,1381.36 306.8,1379.66 306.1,1378.16 C305,1375.76 302.4,1372.76 296.8,1372.36 L295.7,1372.36 C293.6,1372.36 291.8,1372.86 290.1,1373.86 C288.3,1374.96 286.7,1376.66 285.7,1378.66 C284.6,1380.66 284.1,1382.86 284.1,1385.06 C284.1,1387.96 285,1390.66 286.8,1392.86 C289.8,1396.46 294.5,1398.76 299.9,1399.36 C300.6,1399.46 301.7,1399.56 302.4,1399.56 C306.8,1399.56 311.2,1398.36 314.8,1396.16 C318.5,1393.56 320.6,1389.56 321.3,1383.96 C321.5,1382.66 321.5,1381.26 321.5,1379.76 C321.5,1375.86 321,1371.16 320,1365.36 C319.6,1363.26 319.2,1360.26 318.5,1356.46 C324.3,1354.56 328.4,1350.86 332.2,1345.06 C334.5,1341.06 335.6,1336.96 335.6,1332.66 C335.6,1330.76 335.4,1328.86 335,1326.96 M304.8,1249.06 C306.6,1243.36 309.3,1239.96 311.3,1238.26 C313.1,1236.76 314.7,1236.06 315.6,1236.06 C315.7,1236.06 315.9,1236.16 316,1236.16 C316.3,1236.26 316.7,1236.76 317.1,1237.46 C318,1239.26 318.9,1242.56 318.9,1246.26 C318.9,1248.16 318.7,1250.16 318.1,1251.96 C315.9,1258.76 311.3,1266.06 304.3,1273.76 C304.1,1272.66 303.9,1271.66 303.8,1270.66 C303.3,1267.46 303,1264.26 303,1261.36 C303,1256.86 303.6,1252.76 304.8,1249.06 M300.8,1353.16 C296.2,1351.96 291.7,1349.46 287.9,1345.96 C286.6,1344.76 284.8,1342.56 283.3,1339.16 C282,1336.16 281.3,1333.06 281.3,1329.66 L281.3,1328.96 C281.4,1324.26 282.7,1319.46 285.2,1314.66 C288.1,1309.06 292.6,1303.56 298.7,1298.26 C300.2,1296.96 301.6,1295.66 302.9,1294.36 C303.7,1298.66 304.4,1303.36 305.3,1308.26 C301.4,1309.56 296.7,1312.56 293.6,1318.26 C291.2,1322.76 290.5,1326.66 290.5,1329.86 C290.5,1331.36 290.7,1332.76 290.9,1333.86 C291.8,1338.36 294.4,1342.06 297.9,1344.16 C298.7,1344.66 302,1346.36 304,1346.36 C304.3,1346.36 304.6,1346.36 304.8,1346.26 C305.1,1346.16 305.4,1345.96 305.5,1345.66 C305.6,1345.46 305.6,1345.26 305.6,1345.06 C305.6,1344.26 304.8,1343.66 303.5,1342.86 C302.9,1342.46 302.2,1342.06 301.5,1341.56 C298.9,1339.56 297.4,1336.46 297.4,1333.06 C297.4,1332.06 297.6,1331.16 297.8,1330.16 C298.3,1328.16 300,1325.36 301.5,1323.96 C303.2,1322.46 305.2,1321.26 307.6,1320.66 C309.6,1331.86 311.7,1342.96 313.3,1351.36 C313.4,1352.06 313.6,1352.76 313.7,1353.46 C311.7,1353.86 309.7,1354.06 307.8,1354.06 C305.4,1354.06 303.1,1353.76 300.8,1353.16 M326.5,1342.96 C325.3,1346.16 322.8,1350.16 317.7,1352.26 C317.6,1351.86 317.6,1351.36 317.5,1350.96 C316,1342.16 314.1,1331.26 312.1,1319.96 L313.1,1319.96 C322.8,1319.96 326.7,1327.16 327.6,1331.76 C327.8,1332.66 327.9,1333.86 327.9,1335.16 C327.9,1337.46 327.5,1340.26 326.5,1342.96"/>
<path class="KeySig" d="M433.107,987.439 C432.507,983.539 430.107,979.839 425.007,979.839 C420.007,979.839 417.107,982.939 416.607,983.539 L417.007,951.439 C417.007,950.639 416.407,950.039 415.607,950.039 L414.407,950.039 C413.607,950.039 413.007,950.639 413.007,951.439 L413.507,1011.54 C413.507,1012.34 414.107,1012.94 414.907,1012.94 C415.107,1012.94 415.507,1012.84 415.707,1012.74 C416.107,1012.54 422.607,1009.34 428.007,1003.24 C431.807,998.939 433.307,994.039 433.307,989.939 C433.307,989.039 433.207,988.239 433.107,987.439 M426.207,991.339 C426.207,992.839 425.807,997.439 423.307,1001.24 C421.607,1003.84 418.207,1006.54 416.307,1008.04 L416.607,988.539 C416.807,987.639 418.307,984.739 422.307,984.739 C425.907,984.739 426.207,988.139 426.207,990.239 L426.207,991.339 "/>
<path class="KeySig" d="M408.106,937.436 C407.506,933.536 405.106,929.836 400.006,929.836 C395.006,929.836 392.106,932.936 391.606,933.536 L392.006,901.436 C392.006,900.636 391.406,900.036 390.606,900.036 L389.406,900.036 C388.606,900.036 388.006,900.636 388.006,901.436 L388.506,961.536 C388.506,962.336 389.106,962.936 389.906,962.936 C390.106,962.936 390.506,962.836 390.706,962.736 C391.106,962.536 397.606,959.336 403.006,953.236 C406.806,948.936 408.306,944.036 408.306,939.936 C408.306,939.036 408.206,938.236 408.106,937.436 M401.206,941.336 C401.206,942.836 400.806,947.436 398.306,951.236 C396.606,953.836 393.206,956.536 391.306,958.036 L391.606,938.536 C391.806,937.636 393.306,934.736 397.306,934.736 C400.906,934.736 401.206,938.136 401.206,940.236 L401.206,941.336 "/>
<path class="KeySig" d="M383.104,974.939 C382.504,971.039 380.104,967.339 375.004,967.339 C370.004,967.339 367.104,970.439 366.604,971.039 L367.004,938.939 C367.004,938.139 366.404,937.539 365.604,937.539 L364.404,937.539 C363.604,937.539 363.004,938.139 363.004,938.939 L363.504,999.039 C363.504,999.839 364.104,1000.44 364.904,1000.44 C365.104,1000.44 365.504,1000.34 365.704,1000.24 C366.104,1000.04 372.604,996.839 378.004,990.739 C381.804,986.439 383.304,981.539 383.304,977.439 C383.304,976.539 383.204,975.739 383.104,974.939 M376.204,978.839 C376.204,980.339 375.804,984.939 373.304,988.739 C371.604,991.339 368.204,994.039 366.304,995.539 L366.604,976.039 C366.804,975.139 368.304,972.239 372.304,972.239 C375.904,972.239 376.204,975.639 376.204,977.739 L376.204,978.839 "/>
<path class="KeySig" d="M430.701,1574.98 C430.101,1571.08 427.701,1567.38 422.601,1567.38 C417.601,1567.38 414.701,1570.48 414.201,1571.08 L414.601,1538.98 C414.601,1538.18 414.001,1537.58 413.201,1537.58 L412.001,1537.58 C411.201,1537.58 410.601,1538.18 410.601,1538.98 L411.101,1599.08 C411.101,1599.88 411.701,1600.48 412.501,1600.48 C412.701,1600.48 413.101,1600.38 413.301,1600.28 C413.701,1600.08 420.201,1596.88 425.601,1590.78 C429.401,1586.48 430.901,1581.58 430.901,1577.48 C430.901,1576.58 430.801,1575.78 430.701,1574.98 M423.801,1578.88 C423.801,1580.38 423.401,1584.98 420.901,1588.78 C419.201,1591.38 415.801,1594.08 413.901,1595.58 L414.201,1576.08 C414.401,1575.18 415.901,1572.28 419.901,1572.28 C423.501,1572.28 423.801,1575.68 423.801,1577.78 L423.801,1578.88 "/>
<path class="KeySig" d="M405.699,1524.97 C405.099,1521.07 402.699,1517.37 397.599,1517.37 C392.599,1517.37 389.699,1520.47 389.199,1521.07 L389.599,1488.97 C389.599,1488.17 388.999,1487.57 388.199,1487.57 L386.999,1487.57 C386.199,1487.57 385.599,1488.17 385.599,1488.97 L386.099,1549.07 C386.099,1549.87 386.699,1550.47 387.499,1550.47 C387.699,1550.47 388.099,1550.37 388.299,1550.27 C388.699,1550.07 395.199,1546.87 400.599,1540.77 C404.399,1536.47 405.899,1531.57 405.899,1527.47 C405.899,1526.57 405.799,1525.77 405.699,1524.97 M398.799,1528.87 C398.799,1530.37 398.399,1534.97 395.899,1538.77 C394.199,1541.37 390.799,1544.07 388.899,1545.57 L389.199,1526.07 C389.399,1525.17 390.899,1522.27 394.899,1522.27 C398.499,1522.27 398.799,1525.67 398.799,1527.77 L398.799,1528.87 "/>
<path class="KeySig" d="M380.698,1562.48 C380.098,1558.58 377.698,1554.88 372.598,1554.88 C367.598,1554.88 364.698,1557.98 364.198,1558.58 L364.598,1526.48 C364.598,1525.68 363.998,1525.08 363.198,1525.08 L361.998,1525.08 C361.198,1525.08 360.598,1525.68 360.598,1526.48 L361.098,1586.58 C361.098,1587.38 361.698,1587.98 362.498,1587.98 C362.698,1587.98 363.098,1587.88 363.298,1587.78 C363.698,1587.58 370.198,1584.38 375.598,1578.28 C379.398,1573.98 380.898,1569.08 380.898,1564.98 C380.898,1564.08 380.798,1563.28 380.698,1562.48 M373.798,1566.38 C373.798,1567.88 373.398,1572.48 370.898,1576.28 C369.198,1578.88 365.798,1581.58 363.898,1583.08 L364.198,1563.58 C364.398,1562.68 365.898,1559.78 369.898,1559.78 C373.498,1559.78 373.798,1563.18 373.798,1565.28 L373.798,1566.38 "/>
<path class="KeySig" d="M433.107,699.921 C432.507,696.021 430.107,692.321 425.007,692.321 C420.007,692.321 417.107,695.421 416.607,696.021 L417.007,663.921 C417.007,663.121 416.407,662.521 415.607,662.521 L414.407,662.521 C413.607,662.521 413.007,663.121 413.007,663.921 L413.507,724.021 C413.507,724.821 414.107,725.421 414.907,725.421 C415.107,725.421 415.507,725.321 415.707,725.221 C416.107,725.021 422.607,721.821 428.007,715.721 C431.807,711.421 433.307,706.521 433.307,702.421 C433.307,701.521 433.207,700.721 433.107,699.921 M426.207,703.821 C426.207,705.321 425.807,709.921 423.307,713.721 C421.607,716.321 418.207,719.021 416.307,720.521 L416.607,701.021 C416.807,700.121 418.307,697.221 422.307,697.221 C425.907,697.221 426.207,700.621 426.207,702.721 L426.207,703.821 "/>
<path class="KeySig" d="M408.106,649.918 C407.506,646.018 405.106,642.318 400.006,642.318 C395.006,642.318 392.106,645.418 391.606,646.018 L392.006,613.918 C392.006,613.118 391.406,612.518 390.606,612.518 L389.406,612.518 C388.606,612.518 388.006,613.118 388.006,613.918 L388.506,674.018 C388.506,674.818 389.106,675.418 389.906,675.418 C390.106,675.418 390.506,675.318 390.706,675.218 C391.106,675.018 397.606,671.818 403.006,665.718 C406.806,661.418 408.306,656.518 408.306,652.418 C408.306,651.518 408.206,650.718 408.106,649.918 M401.206,653.818 C401.206,655.318 400.806,659.918 398.306,663.718 C396.606,666.318 393.206,669.018 391.306,670.518 L391.606,651.018 C391.806,650.118 393.306,647.218 397.306,647.218 C400.906,647.218 401.206,650.618 401.206,652.718 L401.206,653.818 "/>
<path class="KeySig" d="M383.104,687.42 C382.504,683.52 380.104,679.82 375.004,679.82 C370.004,679.82 367.104,682.92 366.604,683.52 L367.004,651.42 C367.004,650.62 366.404,650.02 365.604,650.02 L364.404,650.02 C363.604,650.02 363.004,650.62 363.004,651.42 L363.504,711.52 C363.504,712.32 364.104,712.92 364.904,712.92 C365.104,712.92 365.504,712.82 365.704,712.72 C366.104,712.52 372.604,709.32 378.004,703.22 C381.804,698.92 383.304,694.02 383.304,689.92 C383.304,689.02 383.204,688.22 383.104,687.42 M376.204,691.32 C376.204,692.82 375.804,697.42 373.304,701.22 C371.604,703.82 368.204,706.52 366.304,708.02 L366.604,688.52 C366.804,687.62 368.304,684.72 372.304,684.72 C375.904,684.72 376.204,688.12 376.204,690.22 L376.204,691.32 "/>
<path class="KeySig" d="M430.701,1312.46 C430.101,1308.56 427.701,1304.86 422.601,1304.86 C417.601,1304.86 414.701,1307.96 414.201,1308.56 L414.601,1276.46 C414.601,1275.66 414.001,1275.06 413.201,1275.06 L412.001,1275.06 C411.201,1275.06 410.601,1275.66 410.601,1276.46 L411.101,1336.56 C411.101,1337.36 411.701,1337.96 412.501,1337.96 C412.701,1337.96 413.101,1337.86 413.301,1337.76 C413.701,1337.56 420.201,1334.36 425.601,1328.26 C429.401,1323.96 430.901,1319.06 430.901,1314.96 C430.901,1314.06 430.801,1313.26 430.701,1312.46 M423.801,1316.36 C423.801,1317.86 423.401,1322.46 420.901,1326.26 C419.201,1328.86 415.801,1331.56 413.901,1333.06 L414.201,1313.56 C414.401,1312.66 415.901,1309.76 419.901,1309.76 C423.501,1309.76 423.801,1313.16 423.801,1315.26 L423.801,1316.36 "/>
<path class="KeySig" d="M405.699,1262.46 C405.099,1258.56 402.699,1254.86 397.599,1254.86 C392.599,1254.86 389.699,1257.96 389.199,1258.56 L389.599,1226.46 C389.599,1225.66 388.999,1225.06 388.199,1225.06 L386.999,1225.06 C386.199,1225.06 385.599,1225.66 385.599,1226.46 L386.099,1286.56 C386.099,1287.36 386.699,1287.96 387.499,1287.96 C387.699,1287.96 388.099,1287.86 388.299,1287.76 C388.699,1287.56 395.199,1284.36 400.599,1278.26 C404.399,1273.96 405.899,1269.06 405.899,1264.96 C405.899,1264.06 405.799,1263.26 405.699,1262.46 M398.799,1266.36 C398.799,1267.86 398.399,1272.46 395.899,1276.26 C394.199,1278.86 390.799,1281.56 388.899,1283.06 L389.199,1263.56 C389.399,1262.66 390.899,1259.76 394.899,1259.76 C398.499,1259.76 398.799,1263.16 398.799,1265.26 L398.799,1266.36 "/>
<path class="KeySig" d="M380.698,1299.96 C380.098,1296.06 377.698,1292.36 372.598,1292.36 C367.598,1292.36 364.698,1295.46 364.198,1296.06 L364.598,1263.96 C364.598,1263.16 363.998,1262.56 363.198,1262.56 L361.998,1262.56 C361.198,1262.56 360.598,1263.16 360.598,1263.96 L361.098,1324.06 C361.098,1324.86 361.698,1325.46 362.498,1325.46 C362.698,1325.46 363.098,1325.36 363.298,1325.26 C363.698,1325.06 370.198,1321.86 375.598,1315.76 C379.398,1311.46 380.898,1306.56 380.898,1302.46 C380.898,1301.56 380.798,1300.76 380.698,1299.96 M373.798,1303.86 C373.798,1305.36 373.398,1309.96 370.898,1313.76 C369.198,1316.36 365.798,1319.06 363.898,1320.56 L364.198,1301.06 C364.398,1300.16 365.898,1297.26 369.898,1297.26 C373.498,1297.26 373.798,1300.66 373.798,1302.76 L373.798,1303.86 "/>
<path class="TimeSig" d="M460.503,946.235 L477.303,946.235 L477.303,953.535 L469.203,953.535 C468.403,953.535 467.803,954.135 467.803,954.935 L467.803,956.835 C467.803,957.635 468.403,958.135 469.203,958.135 L498.903,958.135 C499.703,958.135 500.303,957.635 500.303,956.835 L500.303,954.935 C500.303,954.135 499.703,953.535 498.903,953.535 L490.103,953.535 L490.103,946.235 L498.903,946.235 C499.703,946.235 500.303,945.635 500.303,944.835 L500.303,943.035 C500.303,942.235 499.703,941.635 498.903,941.635 L490.103,941.635 L490.103,925.935 C490.103,925.435 489.703,924.935 489.303,924.735 L488.203,924.135 C488.003,924.035 487.703,924.035 487.503,924.035 C487.203,924.035 486.803,924.135 486.603,924.335 L477.703,932.535 C477.503,932.735 477.303,933.235 477.303,933.535 L477.303,941.635 L466.003,941.635 C466.003,941.635 476.903,929.835 488.503,914.335 C489.303,913.235 488.903,912.235 488.703,912.035 L486.603,909.835 C486.403,909.635 485.903,909.435 485.603,909.435 L471.003,909.435 C470.303,909.435 469.803,910.035 469.703,910.635 C469.703,910.635 469.203,917.835 466.603,925.835 C464.003,933.835 461.203,938.635 458.603,942.235 C458.603,942.235 458.103,943.235 458.403,943.935 C458.703,944.635 459.403,945.735 459.403,945.735 C459.403,945.735 459.703,946.235 460.503,946.235"/>
<path class="TimeSig" d="M460.503,994.839 L477.303,994.839 L477.303,1002.14 L469.203,1002.14 C468.403,1002.14 467.803,1002.74 467.803,1003.54 L467.803,1005.44 C467.803,1006.24 468.403,1006.74 469.203,1006.74 L498.903,1006.74 C499.703,1006.74 500.303,1006.24 500.303,1005.44 L500.303,1003.54 C500.303,1002.74 499.703,1002.14 498.903,1002.14 L490.103,1002.14 L490.103,994.839 L498.903,994.839 C499.703,994.839 500.303,994.239 500.303,993.439 L500.303,991.639 C500.303,990.839 499.703,990.239 498.903,990.239 L490.103,990.239 L490.103,974.539 C490.103,974.039 489.703,973.539 489.303,973.339 L488.203,972.739 C488.003,972.639 487.703,972.639 487.503,972.639 C487.203,972.639 486.803,972.739 486.603,972.939 L477.703,981.139 C477.503,981.339 477.303,981.839 477.303,982.139 L477.303,990.239 L466.003,990.239 C466.003,990.239 476.903,978.439 488.503,962.939 C489.303,961.839 488.903,960.839 488.703,960.639 L486.603,958.439 C486.403,958.239 485.903,958.039 485.603,958.039 L471.003,958.039 C470.303,958.039 469.803,958.639 469.703,959.239 C469.703,959.239 469.203,966.439 466.603,974.439 C464.003,982.439 461.203,987.239 458.603,990.839 C458.603,990.839 458.103,991.839 458.403,992.539 C458.703,993.239 459.403,994.339 459.403,994.339 C459.403,994.339 459.703,994.839 460.503,994.839"/>
<path class="TimeSig" d="M460.503,683.718 L477.303,683.718 L477.303,691.018 L469.203,691.018 C468.403,691.018 467.803,691.618 467.803,692.418 L467.803,694.318 C467.803,695.118 468.403,695.618 469.203,695.618 L498.903,695.618 C499.703,695.618 500.303,695.118 500.303,694.318 L500.303,692.418 C500.303,691.618 499.703,691.018 498.903,691.018 L490.103,691.018 L490.103,683.718 L498.903,683.718 C499.703,683.718 500.303,683.118 500.303,682.318 L500.303,680.518 C500.303,679.718 499.703,679.118 498.903,679.118 L490.103,679.118 L490.103,663.418 C490.103,662.918 489.703,662.418 489.303,662.218 L488.203,661.618 C488.003,661.518 487.703,661.518 487.503,661.518 C487.203,661.518 486.803,661.618 486.603,661.818 L477.703,670.018 C477.503,670.218 477.303,670.718 477.303,671.018 L477.303,679.118 L466.003,679.118 C466.003,679.118 476.903,667.318 488.503,651.818 C489.303,650.718 488.903,649.718 488.703,649.518 L486.603,647.318 C486.403,647.118 485.903,646.918 485.603,646.918 L471.003,646.918 C470.303,646.918 469.803,647.518 469.703,648.118 C469.703,648.118 469.203,655.318 466.603,663.318 C464.003,671.318 461.203,676.118 458.603,679.718 C458.603,679.718 458.103,680.718 458.403,681.418 C458.703,682.118 459.403,683.218 459.403,683.218 C459.403,683.218 459.703,683.718 460.503,683.718"/>
<path class="TimeSig" d="M460.503,732.323 L477.303,732.323 L477.303,739.623 L469.203,739.623 C468.403,739.623 467.803,740.223 467.803,741.023 L467.803,742.923 C467.803,743.723 468.403,744.223 469.203,744.223 L498.903,744.223 C499.703,744.223 500.303,743.723 500.303,742.923 L500.303,741.023 C500.303,740.223 499.703,739.623 498.903,739.623 L490.103,739.623 L490.103,732.323 L498.903,732.323 C499.703,732.323 500.303,731.723 500.303,730.923 L500.303,729.123 C500.303,728.323 499.703,727.723 498.903,727.723 L490.103,727.723 L490.103,712.023 C490.103,711.523 489.703,711.023 489.303,710.823 L488.203,710.223 C488.003,710.123 487.703,710.123 487.503,710.123 C487.203,710.123 486.803,710.223 486.603,710.423 L477.703,718.623 C477.503,718.823 477.303,719.323 477.303,719.623 L477.303,727.723 L466.003,727.723 C466.003,727.723 476.903,715.923 488.503,700.423 C489.303,699.323 488.903,698.323 488.703,698.123 L486.603,695.923 C486.403,695.723 485.903,695.523 485.603,695.523 L471.003,695.523 C470.303,695.523 469.803,696.123 469.703,696.723 C469.703,696.723 469.203,703.923 466.603,711.923 C464.003,719.923 461.203,724.723 458.603,728.323 C458.603,728.323 458.103,729.323 458.403,730.023 C458.703,730.723 459.403,731.823 459.403,731.823 C459.403,731.823 459.703,732.323 460.503,732.323"/>
<path class="NoteDot" d="M2476.9,1582.88 C2476.9,1585.47 2479.01,1587.58 2481.6,1587.58 C2484.2,1587.58 2486.3,1585.47 2486.3,1582.88 C2486.3,1580.28 2484.2,1578.18 2481.6,1578.18 C2479.01,1578.18 2476.9,1580.28 2476.9,1582.88"/>
<path class="NoteDot" d="M2476.9,1370.36 C2476.9,1372.96 2479.01,1375.06 2481.6,1375.06 C2484.2,1375.06 2486.3,1372.96 2486.3,1370.36 C2486.3,1367.77 2484.2,1365.66 2481.6,1365.66 C2479.01,1365.66 2476.9,1367.77 2476.9,1370.36"/>
<path class="Page" d="M233.756,4056.35 L231.776,4056.35 L231.326,4058.64 C230.741,4061.57 230.381,4061.84 227.591,4061.84 L217.511,4061.84 C220.616,4058.6 221.651,4057.65 224.531,4055.4 C228.626,4052.25 230.381,4050.68 231.416,4049.33 C232.856,4047.35 233.576,4045.37 233.576,4043.16 C233.576,4038.03 229.346,4034.39 223.451,4034.39 C217.736,4034.39 213.371,4038.03 213.371,4042.85 C213.371,4045.68 214.811,4047.62 216.926,4047.62 C218.591,4047.62 219.716,4046.49 219.716,4044.87 C219.716,4043.75 219.086,4042.71 218.141,4042.31 C216.476,4041.63 216.386,4041.54 216.386,4040.96 C216.386,4040.28 216.836,4039.25 217.466,4038.48 C218.591,4037.09 220.436,4036.32 222.551,4036.32 C226.286,4036.32 228.491,4038.62 228.491,4042.4 C228.491,4045.73 226.916,4048.74 223.181,4052.7 C219.851,4056.21 217.781,4058.42 217.016,4059.27 C215.396,4061.16 214.586,4062.2 212.606,4064.81 L212.606,4066.07 L232.901,4066.07 L233.756,4056.35 M242.932,4050.77 C243.382,4045.14 243.607,4043.66 244.597,4041.36 C245.902,4038.17 248.287,4036.32 251.122,4036.32 C252.697,4036.32 253.642,4036.82 253.642,4037.63 C253.642,4037.81 253.597,4037.94 253.417,4038.26 C252.967,4039.11 252.742,4039.79 252.742,4040.42 C252.742,4041.9 253.912,4043.03 255.487,4043.03 C257.242,4043.03 258.457,4041.68 258.457,4039.79 C258.457,4036.68 255.352,4034.39 251.077,4034.39 C247.387,4034.39 243.922,4036.14 241.762,4039.16 C239.287,4042.62 237.937,4047.3 237.937,4052.21 C237.937,4061.03 242.257,4066.74 248.917,4066.74 C251.842,4066.74 254.272,4065.75 256.162,4063.77 C258.097,4061.79 259.267,4058.87 259.267,4055.99 C259.267,4050.68 255.487,4046.72 250.357,4046.72 C247.297,4046.72 245.047,4047.93 242.932,4050.77 M249.097,4049.46 C252.382,4049.46 254.362,4052.03 254.362,4056.3 C254.362,4061.52 252.292,4064.81 249.007,4064.81 C246.937,4064.81 245.362,4063.73 244.282,4061.52 C243.562,4060.13 243.202,4058.6 243.202,4056.93 C243.202,4052.3 245.452,4049.46 249.097,4049.46"/>
<path class="Bracket" transform="matrix(3.62523,0,0,3.62523,214.469,1007.84)" d="M0.92002,-50 C2.69004,-51.88 6.2,-55.8 6.2,-63 C6.2,-72.1 2.25996,-81.32 2.25996,-86.97 C2.25996,-93.06 5.84004,-98.84 5.95,-99 C6.05996,-99.16 6.05,-99.39 5.94004,-99.46 C5.82998,-99.53 5.62002,-99.47 5.49004,-99.32 C5.35996,-99.17 0,-93.75 0,-85.6 C0,-76.75 3.5,-70.58 3.5,-59.07 C3.5,-56.89 2.55996,-53.36 0.1,-50.33 C-0.0799805,-50.17 -0.1,-49.89 0.0599609,-49.7 L0.0700195,-49.69 L0.1,-49.66 C2.55996,-46.63 3.5,-43.1 3.5,-40.92 C3.5,-29.4 0,-23.24 0,-14.39 C0,-6.25 5.35996,-0.8 5.49004,-0.659961 C5.62002,-0.52002 5.8,-0.42998 5.94004,-0.52002 C6.07998,-0.609961 6.07998,-0.77998 5.95,-0.97998 C5.82002,-1.17998 2.25996,-6.92002 2.25996,-13.01 C2.25996,-18.66 6.2,-27.9 6.2,-37 C6.2,-44.3 2.69004,-48.12 0.92002,-50"/>
<path class="Bracket" transform="matrix(3.62523,0,0,3.62523,214.469,1620.38)" d="M0.92002,-50 C2.69004,-51.88 6.2,-55.8 6.2,-63 C6.2,-72.1 2.25996,-81.32 2.25996,-86.97 C2.25996,-93.06 5.84004,-98.84 5.95,-99 C6.05996,-99.16 6.05,-99.39 5.94004,-99.46 C5.82998,-99.53 5.62002,-99.47 5.49004,-99.32 C5.35996,-99.17 0,-93.75 0,-85.6 C0,-76.75 3.5,-70.58 3.5,-59.07 C3.5,-56.89 2.55996,-53.36 0.1,-50.33 C-0.0799805,-50.17 -0.1,-49.89 0.0599609,-49.7 L0.0700195,-49.69 L0.1,-49.66 C2.55996,-46.63 3.5,-43.1 3.5,-40.92 C3.5,-29.4 0,-23.24 0,-14.39 C0,-6.25 5.35996,-0.8 5.49004,-0.659961 C5.62002,-0.52002 5.8,-0.42998 5.94004,-0.52002 C6.07998,-0.609961 6.07998,-0.77998 5.95,-0.97998 C5.82002,-1.17998 2.25996,-6.92002 2.25996,-13.01 C2.25996,-18.66 6.2,-27.9 6.2,-37 C6.2,-44.3 2.69004,-48.12 0.92002,-50"/>
</svg>
