<?xml version="1.0" encoding="UTF-8" standalone="no"?>
<svg width="2977.23px" height="4208.47px" viewBox="0 0 2977.23 4208.47"
 xmlns="http://www.w3.org/2000/svg" xmlns:xlink="http://www.w3.org/1999/xlink" version="1.2" baseProfile="tiny">
<title>exercises_scores (35)</title>
<desc>Generated by MuseScore 3.6.0</desc>
<polyline class="StaffLines" fill="none" stroke="#000000" stroke-width="2.75" stroke-linejoin="bevel" points="247.099,653.005 2764.63,653.005"/>
<polyline class="StaffLines" fill="none" stroke="#000000" stroke-width="2.75" stroke-linejoin="bevel" points="247.099,678.006 2764.63,678.006"/>
<polyline class="StaffLines" fill="none" stroke="#000000" stroke-width="2.75" stroke-linejoin="bevel" points="247.099,703.008 2764.63,703.008"/>
<polyline class="StaffLines" fill="none" stroke="#000000" stroke-width="2.75" stroke-linejoin="bevel" points="247.099,728.009 2764.63,728.009"/>
<polyline class="StaffLines" fill="none" stroke="#000000" stroke-width="2.75" stroke-linejoin="bevel" points="247.099,753.011 2764.63,753.011"/>
<polyline class="StaffLines" fill="none" stroke="#000000" stroke-width="2.75" stroke-linejoin="bevel" points="247.099,915.521 2764.63,915.521"/>
<polyline class="StaffLines" fill="none" stroke="#000000" stroke-width="2.75" stroke-linejoin="bevel" points="247.099,940.523 2764.63,940.523"/>
<polyline class="StaffLines" fill="none" stroke="#000000" stroke-width="2.75" stroke-linejoin="bevel" points="247.099,965.524 2764.63,965.524"/>
<polyline class="StaffLines" fill="none" stroke="#000000" stroke-width="2.75" stroke-linejoin="bevel" points="247.099,990.526 2764.63,990.526"/>
<polyline class="StaffLines" fill="none" stroke="#000000" stroke-width="2.75" stroke-linejoin="bevel" points="247.099,1015.53 2764.63,1015.53"/>
<path class="Text" d="M212.604,260.786 L232.764,260.786 C238.104,260.786 242.184,259.946 245.364,258.146 C251.424,254.726 254.784,247.886 254.784,238.886 C254.784,230.606 251.784,224.126 246.264,220.526 C242.964,218.426 238.524,217.466 231.684,217.466 L212.604,217.466 L212.604,220.286 L213.744,220.286 C217.104,220.346 218.244,220.526 218.724,221.126 C219.084,221.666 219.084,221.786 219.084,224.846 L219.084,253.406 C219.084,256.466 219.084,256.586 218.724,257.126 C218.244,257.726 217.104,257.906 213.744,257.966 L212.604,257.966 L212.604,260.786 M229.224,257.966 C226.164,257.966 225.804,257.606 225.804,254.666 L225.804,223.646 C225.804,220.706 226.224,220.286 229.224,220.286 L232.344,220.286 C242.604,220.286 246.864,225.866 246.864,239.126 C246.864,252.566 243.024,257.966 233.304,257.966 L229.224,257.966 M280.054,230.708 C280.541,230.613 280.936,230.132 280.936,229.636 L280.936,229.634 L280.936,224.954 C280.935,224.665 280.753,224.283 280.528,224.102 C280.362,223.966 280.054,223.857 279.84,223.857 C279.778,223.857 279.677,223.867 279.616,223.88 L277.03,224.414 L277.03,212.606 L274.834,212.606 L274.834,224.87 L267.736,226.34 L267.736,215.102 L265.54,215.102 L265.54,226.796 L262.432,227.438 C261.948,227.54 261.556,228.024 261.556,228.518 L261.556,233.114 C261.557,233.401 261.737,233.783 261.958,233.966 C262.125,234.102 262.435,234.212 262.651,234.212 L262.654,234.212 C262.716,234.212 262.815,234.204 262.876,234.194 L265.54,233.654 L265.54,246.764 L262.432,247.406 C261.949,247.506 261.557,247.987 261.556,248.48 L261.556,253.082 C261.557,253.369 261.737,253.751 261.958,253.934 C262.125,254.07 262.435,254.18 262.651,254.18 L262.654,254.18 C262.657,254.18 262.662,254.18 262.666,254.18 C262.724,254.18 262.819,254.169 262.876,254.156 L265.54,253.616 L265.54,265.406 L267.736,265.406 L267.736,253.172 L274.834,251.732 L274.834,262.91 L277.03,262.91 L277.03,251.288 L280.054,250.676 C280.541,250.581 280.936,250.1 280.936,249.604 L280.936,249.602 L280.936,244.922 C280.935,244.633 280.753,244.251 280.528,244.07 C280.365,243.933 280.059,243.823 279.847,243.823 C279.782,243.823 279.679,243.834 279.616,243.848 L277.03,244.382 L277.03,231.326 L280.054,230.708 M267.736,246.308 L267.736,233.204 L274.834,231.77 L274.834,244.838 L267.736,246.308 M313.677,216.566 L302.577,217.226 L302.577,219.806 L305.457,219.806 C307.737,219.866 308.037,220.226 308.037,222.806 L308.037,253.406 L308.037,254.846 L308.037,256.286 C307.977,257.126 307.917,257.486 307.677,257.786 C307.257,258.326 306.117,258.566 303.537,258.626 L303.297,258.626 L303.297,260.786 L318.477,260.786 L318.477,258.626 L318.237,258.626 C314.217,258.506 313.677,258.206 313.677,256.046 L313.677,253.406 L313.677,247.166 C313.677,244.226 314.097,241.526 314.757,240.146 C316.077,237.446 318.717,235.586 321.297,235.586 C322.857,235.586 324.657,236.486 325.497,237.686 C326.457,239.006 326.877,240.806 326.877,243.746 L326.877,253.406 L326.877,256.286 C326.817,257.126 326.757,257.486 326.517,257.786 C326.097,258.326 324.897,258.566 322.317,258.626 L322.077,258.626 L322.077,260.786 L337.257,260.786 L337.257,258.626 L337.017,258.626 C333.057,258.506 332.517,258.206 332.517,256.046 L332.517,253.406 L332.517,243.986 C332.517,239.666 332.337,238.586 331.257,236.546 C329.757,233.606 326.757,231.926 323.157,231.926 C319.257,231.926 316.377,233.666 313.677,237.686 L313.677,216.566 M365.453,241.466 C365.453,237.686 364.793,235.766 363.053,234.326 C361.073,232.706 358.133,231.926 354.293,231.926 C347.513,231.926 342.593,235.106 342.593,239.486 C342.593,241.706 343.973,243.146 346.073,243.146 C347.993,243.146 349.313,241.886 349.313,240.086 C349.313,239.306 349.013,238.466 348.413,237.626 C348.053,237.206 347.993,237.086 347.993,236.786 C347.993,235.586 350.393,234.506 353.273,234.506 C355.193,234.506 357.293,235.106 358.253,236.006 C359.393,236.966 359.813,238.406 359.813,241.106 L359.813,243.446 C353.573,244.526 351.593,245.006 348.653,246.146 C343.433,248.066 340.973,250.826 340.973,254.666 C340.973,258.986 344.333,261.686 349.673,261.686 C353.813,261.686 357.533,260.006 360.113,256.946 C361.073,260.006 362.573,261.206 365.393,261.206 C368.093,261.206 370.913,259.466 370.913,257.726 C370.913,257.306 370.673,257.006 370.313,257.006 C370.073,257.006 369.833,257.066 369.413,257.246 C368.573,257.606 368.213,257.666 367.733,257.666 C366.053,257.666 365.453,256.586 365.453,253.526 L365.453,241.466 M359.813,248.786 C359.813,252.386 359.633,253.226 358.613,254.786 C357.113,257.006 354.413,258.506 351.773,258.506 C349.013,258.506 347.033,256.526 347.033,253.826 C347.033,251.306 348.293,249.506 350.933,248.246 C352.793,247.406 355.133,246.806 359.813,246.026 L359.813,248.786 M383.572,232.826 L372.952,233.486 L372.952,236.066 L375.412,236.066 C377.692,236.126 377.992,236.486 377.992,239.066 L377.992,253.406 L377.992,256.226 C377.932,257.126 377.872,257.486 377.632,257.786 C377.212,258.326 376.012,258.566 373.432,258.626 L373.192,258.626 L373.192,260.786 L389.212,260.786 L389.212,258.626 L388.132,258.626 C384.112,258.506 383.572,258.206 383.572,256.046 L383.572,253.406 L383.572,252.806 C383.632,242.726 387.232,235.046 391.912,234.806 C391.072,235.766 390.832,236.366 390.832,237.506 C390.832,239.426 392.212,240.806 394.132,240.806 C396.352,240.806 397.792,239.186 397.792,236.786 C397.792,233.846 395.752,231.926 392.572,231.926 C388.792,231.926 385.552,234.926 383.572,240.266 L383.572,232.826 M411.393,232.826 L400.713,233.486 L400.713,236.066 L403.173,236.066 C405.453,236.126 405.753,236.486 405.753,239.066 L405.753,253.406 L405.753,255.746 L405.753,256.226 C405.693,257.126 405.633,257.486 405.393,257.786 C404.973,258.326 403.833,258.566 401.253,258.626 L401.013,258.626 L401.013,260.786 L416.133,260.786 L416.133,258.626 L415.893,258.626 C411.933,258.506 411.393,258.206 411.393,255.986 L411.393,253.406 L411.393,244.886 C411.393,239.546 414.333,235.586 418.233,235.586 C421.653,235.586 423.393,238.046 423.393,242.906 L423.393,253.406 L423.393,256.286 C423.333,257.066 423.273,257.486 422.973,257.786 C422.613,258.326 421.413,258.566 418.833,258.626 L418.593,258.626 L418.593,260.786 L433.773,260.786 L433.773,258.626 L433.533,258.626 C429.573,258.506 429.033,258.206 429.033,256.046 L429.033,253.406 L429.033,245.426 C429.033,239.426 431.733,235.586 435.933,235.586 C439.353,235.586 441.033,238.166 441.033,243.566 L441.033,253.406 L441.033,256.226 C440.973,257.066 440.913,257.486 440.613,257.786 C440.253,258.326 439.053,258.566 436.473,258.626 L436.233,258.626 L436.233,260.786 L451.413,260.786 L451.413,258.626 L451.173,258.626 C447.213,258.506 446.673,258.206 446.673,255.986 L446.673,253.406 L446.673,242.366 C446.673,238.646 446.313,237.386 444.753,235.346 C443.013,233.126 440.553,231.926 437.673,231.926 C433.773,231.926 430.893,233.786 428.313,237.926 C427.293,234.326 424.053,231.926 420.033,231.926 C416.373,231.926 413.733,233.666 411.393,237.446 L411.393,232.826 M467.781,231.926 C460.401,231.926 454.701,238.466 454.701,246.866 C454.701,255.086 460.461,261.686 467.661,261.686 C474.861,261.686 480.621,255.086 480.621,246.806 C480.621,238.586 474.861,231.926 467.781,231.926 M467.781,234.506 C471.981,234.506 474.321,238.886 474.321,246.806 C474.321,254.786 471.981,259.106 467.661,259.106 C463.341,259.106 461.001,254.786 461.001,246.866 C461.001,238.706 463.281,234.506 467.781,234.506 M494.661,232.826 L484.281,233.486 L484.281,236.066 L486.441,236.066 C488.721,236.126 489.021,236.486 489.021,239.066 L489.021,253.406 L489.021,254.846 L489.021,256.226 C488.961,257.126 488.901,257.486 488.661,257.786 C488.241,258.326 487.101,258.566 484.521,258.626 L484.281,258.626 L484.281,260.786 L499.461,260.786 L499.461,258.626 L499.221,258.626 C495.201,258.506 494.661,258.206 494.661,256.046 L494.661,253.406 L494.661,247.166 C494.661,244.226 495.081,241.526 495.741,240.146 C497.001,237.446 499.701,235.586 502.281,235.586 C503.841,235.586 505.641,236.426 506.541,237.686 C507.441,239.006 507.861,240.806 507.861,243.686 L507.861,253.406 L507.861,256.226 C507.801,257.126 507.741,257.486 507.501,257.786 C507.081,258.326 505.881,258.566 503.301,258.626 L503.061,258.626 L503.061,260.786 L518.241,260.786 L518.241,258.626 L518.001,258.626 C514.041,258.506 513.501,258.206 513.501,256.046 L513.501,253.406 L513.501,243.986 C513.501,239.666 513.321,238.586 512.241,236.546 C510.741,233.666 507.741,231.926 504.141,231.926 C500.241,231.926 497.301,233.726 494.661,237.686 L494.661,232.826 M531.677,232.826 L520.397,233.486 L520.397,236.066 L523.457,236.066 C525.737,236.126 526.037,236.486 526.037,239.066 L526.037,253.406 L526.037,256.226 C525.977,257.126 525.917,257.486 525.677,257.786 C525.257,258.326 524.117,258.566 521.537,258.626 L521.117,258.626 L521.117,260.786 L536.657,260.786 L536.657,258.626 L536.237,258.626 C532.217,258.506 531.677,258.206 531.677,256.046 L531.677,253.406 L531.677,232.826 M528.857,217.886 C526.937,217.886 525.377,219.446 525.377,221.366 C525.377,223.286 526.937,224.846 528.797,224.846 C530.777,224.846 532.337,223.286 532.337,221.366 C532.337,219.446 530.777,217.886 528.857,217.886 M561.428,251.966 C559.508,256.286 557.468,258.026 554.348,258.026 C549.548,258.026 546.548,253.646 546.548,246.626 C546.548,239.306 549.488,234.506 553.928,234.506 C555.728,234.506 557.288,235.346 557.288,236.306 C557.288,236.486 557.228,236.666 556.928,237.026 C555.968,238.166 555.728,238.766 555.728,239.786 C555.728,241.766 557.228,243.146 559.328,243.146 C561.488,243.146 562.988,241.466 562.988,239.066 C562.988,234.986 558.968,231.926 553.628,231.926 C545.828,231.926 540.248,238.286 540.248,247.286 C540.248,255.806 545.348,261.686 552.788,261.686 C558.128,261.686 561.188,259.226 563.768,252.866 L561.428,251.966 M593.565,232.826 L582.885,233.486 L582.885,236.066 L585.345,236.066 C587.625,236.126 587.925,236.486 587.925,239.066 L587.925,253.406 L587.925,255.746 L587.925,256.226 C587.865,257.126 587.805,257.486 587.565,257.786 C587.145,258.326 586.005,258.566 583.425,258.626 L583.185,258.626 L583.185,260.786 L598.305,260.786 L598.305,258.626 L598.065,258.626 C594.105,258.506 593.565,258.206 593.565,255.986 L593.565,253.406 L593.565,244.886 C593.565,239.546 596.505,235.586 600.405,235.586 C603.825,235.586 605.565,238.046 605.565,242.906 L605.565,253.406 L605.565,256.286 C605.505,257.066 605.445,257.486 605.145,257.786 C604.785,258.326 603.585,258.566 601.005,258.626 L600.765,258.626 L600.765,260.786 L615.945,260.786 L615.945,258.626 L615.705,258.626 C611.745,258.506 611.205,258.206 611.205,256.046 L611.205,253.406 L611.205,245.426 C611.205,239.426 613.905,235.586 618.105,235.586 C621.525,235.586 623.205,238.166 623.205,243.566 L623.205,253.406 L623.205,256.226 C623.145,257.066 623.085,257.486 622.785,257.786 C622.425,258.326 621.225,258.566 618.645,258.626 L618.405,258.626 L618.405,260.786 L633.585,260.786 L633.585,258.626 L633.345,258.626 C629.385,258.506 628.845,258.206 628.845,255.986 L628.845,253.406 L628.845,242.366 C628.845,238.646 628.485,237.386 626.925,235.346 C625.185,233.126 622.725,231.926 619.845,231.926 C615.945,231.926 613.065,233.786 610.485,237.926 C609.465,234.326 606.225,231.926 602.205,231.926 C598.545,231.926 595.905,233.666 593.565,237.446 L593.565,232.826 M647.193,232.826 L635.913,233.486 L635.913,236.066 L638.973,236.066 C641.253,236.126 641.553,236.486 641.553,239.066 L641.553,253.406 L641.553,256.226 C641.493,257.126 641.433,257.486 641.193,257.786 C640.773,258.326 639.633,258.566 637.053,258.626 L636.633,258.626 L636.633,260.786 L652.173,260.786 L652.173,258.626 L651.753,258.626 C647.733,258.506 647.193,258.206 647.193,256.046 L647.193,253.406 L647.193,232.826 M644.373,217.886 C642.453,217.886 640.893,219.446 640.893,221.366 C640.893,223.286 642.453,224.846 644.313,224.846 C646.293,224.846 647.853,223.286 647.853,221.366 C647.853,219.446 646.293,217.886 644.373,217.886 M665.723,232.826 L655.343,233.486 L655.343,236.066 L657.503,236.066 C659.783,236.126 660.083,236.486 660.083,239.066 L660.083,253.406 L660.083,254.846 L660.083,256.226 C660.023,257.126 659.963,257.486 659.723,257.786 C659.303,258.326 658.163,258.566 655.583,258.626 L655.343,258.626 L655.343,260.786 L670.523,260.786 L670.523,258.626 L670.283,258.626 C666.263,258.506 665.723,258.206 665.723,256.046 L665.723,253.406 L665.723,247.166 C665.723,244.226 666.143,241.526 666.803,240.146 C668.063,237.446 670.763,235.586 673.343,235.586 C674.903,235.586 676.703,236.426 677.603,237.686 C678.503,239.006 678.923,240.806 678.923,243.686 L678.923,253.406 L678.923,256.226 C678.863,257.126 678.803,257.486 678.563,257.786 C678.143,258.326 676.943,258.566 674.363,258.626 L674.123,258.626 L674.123,260.786 L689.303,260.786 L689.303,258.626 L689.063,258.626 C685.103,258.506 684.563,258.206 684.563,256.046 L684.563,253.406 L684.563,243.986 C684.563,239.666 684.383,238.586 683.303,236.546 C681.803,233.666 678.803,231.926 675.203,231.926 C671.303,231.926 668.363,233.726 665.723,237.686 L665.723,232.826 M705.5,231.926 C698.12,231.926 692.42,238.466 692.42,246.866 C692.42,255.086 698.18,261.686 705.38,261.686 C712.58,261.686 718.34,255.086 718.34,246.806 C718.34,238.586 712.58,231.926 705.5,231.926 M705.5,234.506 C709.7,234.506 712.04,238.886 712.04,246.806 C712.04,254.786 709.7,259.106 705.38,259.106 C701.06,259.106 698.72,254.786 698.72,246.866 C698.72,238.706 701,234.506 705.5,234.506 M732.26,232.826 L721.64,233.486 L721.64,236.066 L724.1,236.066 C726.38,236.126 726.68,236.486 726.68,239.066 L726.68,253.406 L726.68,256.226 C726.62,257.126 726.56,257.486 726.32,257.786 C725.9,258.326 724.7,258.566 722.12,258.626 L721.88,258.626 L721.88,260.786 L737.9,260.786 L737.9,258.626 L736.82,258.626 C732.8,258.506 732.26,258.206 732.26,256.046 L732.26,253.406 L732.26,252.806 C732.32,242.726 735.92,235.046 740.6,234.806 C739.76,235.766 739.52,236.366 739.52,237.506 C739.52,239.426 740.9,240.806 742.82,240.806 C745.04,240.806 746.48,239.186 746.48,236.786 C746.48,233.846 744.44,231.926 741.26,231.926 C737.48,231.926 734.24,234.926 732.26,240.266 L732.26,232.826 "/>
<polyline class="BarLine" fill="none" stroke="#000000" stroke-width="4.50" stroke-linejoin="bevel" points="249.349,914.146 249.349,1016.9"/>
<polyline class="BarLine" fill="none" stroke="#000000" stroke-width="4.50" stroke-linejoin="bevel" points="1024.82,914.146 1024.82,1016.9"/>
<polyline class="BarLine" fill="none" stroke="#000000" stroke-width="4.50" stroke-linejoin="bevel" points="1600.15,914.146 1600.15,1016.9"/>
<polyline class="BarLine" fill="none" stroke="#000000" stroke-width="4.50" stroke-linejoin="bevel" points="2193.32,914.146 2193.32,1016.9"/>
<polyline class="BarLine" fill="none" stroke="#000000" stroke-width="4.50" stroke-linejoin="bevel" points="2734.88,914.146 2734.88,1016.9"/>
<polyline class="BarLine" fill="none" stroke="#000000" stroke-width="13.75" stroke-linejoin="bevel" points="2757.76,914.146 2757.76,1016.9"/>
<polyline class="BarLine" fill="none" stroke="#000000" stroke-width="4.50" stroke-linejoin="bevel" points="249.349,651.63 249.349,915.521"/>
<polyline class="BarLine" fill="none" stroke="#000000" stroke-width="4.50" stroke-linejoin="bevel" points="1024.82,651.63 1024.82,915.521"/>
<polyline class="BarLine" fill="none" stroke="#000000" stroke-width="4.50" stroke-linejoin="bevel" points="1600.15,651.63 1600.15,915.521"/>
<polyline class="BarLine" fill="none" stroke="#000000" stroke-width="4.50" stroke-linejoin="bevel" points="2193.32,651.63 2193.32,915.521"/>
<polyline class="BarLine" fill="none" stroke="#000000" stroke-width="4.50" stroke-linejoin="bevel" points="2734.88,651.63 2734.88,915.521"/>
<polyline class="BarLine" fill="none" stroke="#000000" stroke-width="13.75" stroke-linejoin="bevel" points="2757.76,651.63 2757.76,915.521"/>
<path class="Accidental" d="M478.302,954.924 C478.902,954.824 479.402,954.124 479.402,953.524 L479.402,947.624 C479.402,946.824 478.802,946.224 478.002,946.224 L477.802,946.224 L474.502,946.924 L474.502,932.024 L471.702,932.024 L471.702,947.524 L462.802,949.324 L462.802,935.224 L460.002,935.224 L460.002,949.924 L456.102,950.724 C455.502,950.824 455.002,951.524 455.002,952.124 L455.002,952.324 L455.002,958.124 L455.002,957.924 C455.002,958.724 455.602,959.324 456.402,959.324 L456.702,959.324 L460.002,958.624 L460.002,975.124 L456.102,975.924 C455.502,976.024 455.002,976.724 455.002,977.324 L455.002,983.124 C455.002,983.924 455.602,984.524 456.402,984.524 L456.702,984.524 L460.002,983.824 L460.002,998.724 L462.802,998.724 L462.802,983.224 L471.702,981.424 L471.702,995.524 L474.502,995.524 L474.502,980.824 L478.302,980.124 C478.902,980.024 479.402,979.324 479.402,978.724 L479.402,972.824 C479.402,972.024 478.802,971.424 478.002,971.424 L477.802,971.424 L474.502,972.124 L474.502,955.624 L478.302,954.924 M462.802,974.624 L462.802,958.024 L471.702,956.224 L471.702,972.724 L462.802,974.624 "/>
<path class="Accidental" d="M746.76,929.923 C747.36,929.823 747.86,929.123 747.86,928.523 L747.86,922.623 C747.86,921.823 747.26,921.223 746.46,921.223 L746.26,921.223 L742.96,921.923 L742.96,907.023 L740.16,907.023 L740.16,922.523 L731.26,924.323 L731.26,910.223 L728.46,910.223 L728.46,924.923 L724.56,925.723 C723.96,925.823 723.46,926.523 723.46,927.123 L723.46,927.323 L723.46,933.123 L723.46,932.923 C723.46,933.723 724.06,934.323 724.86,934.323 L725.16,934.323 L728.46,933.623 L728.46,950.123 L724.56,950.923 C723.96,951.023 723.46,951.723 723.46,952.323 L723.46,958.123 C723.46,958.923 724.06,959.523 724.86,959.523 L725.16,959.523 L728.46,958.823 L728.46,973.723 L731.26,973.723 L731.26,958.223 L740.16,956.423 L740.16,970.523 L742.96,970.523 L742.96,955.823 L746.76,955.123 C747.36,955.023 747.86,954.323 747.86,953.723 L747.86,947.823 C747.86,947.023 747.26,946.423 746.46,946.423 L746.26,946.423 L742.96,947.123 L742.96,930.623 L746.76,929.923 M731.26,949.623 L731.26,933.023 L740.16,931.223 L740.16,947.723 L731.26,949.623 "/>
<path class="Accidental" d="M880.988,917.422 C881.588,917.322 882.088,916.622 882.088,916.022 L882.088,910.122 C882.088,909.322 881.488,908.722 880.688,908.722 L880.488,908.722 L877.188,909.422 L877.188,894.522 L874.388,894.522 L874.388,910.022 L865.488,911.822 L865.488,897.722 L862.688,897.722 L862.688,912.422 L858.788,913.222 C858.188,913.322 857.688,914.022 857.688,914.622 L857.688,914.822 L857.688,920.622 L857.688,920.422 C857.688,921.222 858.288,921.822 859.088,921.822 L859.388,921.822 L862.688,921.122 L862.688,937.622 L858.788,938.422 C858.188,938.522 857.688,939.222 857.688,939.822 L857.688,945.622 C857.688,946.422 858.288,947.022 859.088,947.022 L859.388,947.022 L862.688,946.322 L862.688,961.222 L865.488,961.222 L865.488,945.722 L874.388,943.922 L874.388,958.022 L877.188,958.022 L877.188,943.322 L880.988,942.622 C881.588,942.522 882.088,941.822 882.088,941.222 L882.088,935.322 C882.088,934.522 881.488,933.922 880.688,933.922 L880.488,933.922 L877.188,934.622 L877.188,918.122 L880.988,917.422 M865.488,937.122 L865.488,920.522 L874.388,918.722 L874.388,935.222 L865.488,937.122 "/>
<path class="Accidental" d="M1072.12,904.921 C1072.72,904.821 1073.22,904.121 1073.22,903.521 L1073.22,897.621 C1073.22,896.821 1072.62,896.221 1071.82,896.221 L1071.62,896.221 L1068.32,896.921 L1068.32,882.021 L1065.52,882.021 L1065.52,897.521 L1056.62,899.321 L1056.62,885.221 L1053.82,885.221 L1053.82,899.921 L1049.92,900.721 C1049.32,900.821 1048.82,901.521 1048.82,902.121 L1048.82,902.321 L1048.82,908.121 L1048.82,907.921 C1048.82,908.721 1049.42,909.321 1050.22,909.321 L1050.52,909.321 L1053.82,908.621 L1053.82,925.121 L1049.92,925.921 C1049.32,926.021 1048.82,926.721 1048.82,927.321 L1048.82,933.121 C1048.82,933.921 1049.42,934.521 1050.22,934.521 L1050.52,934.521 L1053.82,933.821 L1053.82,948.721 L1056.62,948.721 L1056.62,933.221 L1065.52,931.421 L1065.52,945.521 L1068.32,945.521 L1068.32,930.821 L1072.12,930.121 C1072.72,930.021 1073.22,929.321 1073.22,928.721 L1073.22,922.821 C1073.22,922.021 1072.62,921.421 1071.82,921.421 L1071.62,921.421 L1068.32,922.121 L1068.32,905.621 L1072.12,904.921 M1056.62,924.621 L1056.62,908.021 L1065.52,906.221 L1065.52,922.721 L1056.62,924.621 "/>
<path class="Accidental" d="M1452.19,867.419 C1452.79,867.319 1453.29,866.619 1453.29,866.019 L1453.29,860.119 C1453.29,859.319 1452.69,858.719 1451.89,858.719 L1451.69,858.719 L1448.39,859.419 L1448.39,844.519 L1445.59,844.519 L1445.59,860.019 L1436.69,861.819 L1436.69,847.719 L1433.89,847.719 L1433.89,862.419 L1429.99,863.219 C1429.39,863.319 1428.89,864.019 1428.89,864.619 L1428.89,864.819 L1428.89,870.619 L1428.89,870.419 C1428.89,871.219 1429.49,871.819 1430.29,871.819 L1430.59,871.819 L1433.89,871.119 L1433.89,887.619 L1429.99,888.419 C1429.39,888.519 1428.89,889.219 1428.89,889.819 L1428.89,895.619 C1428.89,896.419 1429.49,897.019 1430.29,897.019 L1430.59,897.019 L1433.89,896.319 L1433.89,911.219 L1436.69,911.219 L1436.69,895.719 L1445.59,893.919 L1445.59,908.019 L1448.39,908.019 L1448.39,893.319 L1452.19,892.619 C1452.79,892.519 1453.29,891.819 1453.29,891.219 L1453.29,885.319 C1453.29,884.519 1452.69,883.919 1451.89,883.919 L1451.69,883.919 L1448.39,884.619 L1448.39,868.119 L1452.19,867.419 M1436.69,887.119 L1436.69,870.519 L1445.59,868.719 L1445.59,885.219 L1436.69,887.119 "/>
<path class="Accidental" d="M1910.01,904.921 C1910.61,904.821 1911.11,904.121 1911.11,903.521 L1911.11,897.621 C1911.11,896.821 1910.51,896.221 1909.71,896.221 L1909.51,896.221 L1906.21,896.921 L1906.21,882.021 L1903.41,882.021 L1903.41,897.521 L1894.51,899.321 L1894.51,885.221 L1891.71,885.221 L1891.71,899.921 L1887.81,900.721 C1887.21,900.821 1886.71,901.521 1886.71,902.121 L1886.71,902.321 L1886.71,908.121 L1886.71,907.921 C1886.71,908.721 1887.31,909.321 1888.11,909.321 L1888.41,909.321 L1891.71,908.621 L1891.71,925.121 L1887.81,925.921 C1887.21,926.021 1886.71,926.721 1886.71,927.321 L1886.71,933.121 C1886.71,933.921 1887.31,934.521 1888.11,934.521 L1888.41,934.521 L1891.71,933.821 L1891.71,948.721 L1894.51,948.721 L1894.51,933.221 L1903.41,931.421 L1903.41,945.521 L1906.21,945.521 L1906.21,930.821 L1910.01,930.121 C1910.61,930.021 1911.11,929.321 1911.11,928.721 L1911.11,922.821 C1911.11,922.021 1910.51,921.421 1909.71,921.421 L1909.51,921.421 L1906.21,922.121 L1906.21,905.621 L1910.01,904.921 M1894.51,924.621 L1894.51,908.021 L1903.41,906.221 L1903.41,922.721 L1894.51,924.621 "/>
<path class="Accidental" d="M2046.87,917.422 C2047.47,917.322 2047.97,916.622 2047.97,916.022 L2047.97,910.122 C2047.97,909.322 2047.37,908.722 2046.57,908.722 L2046.37,908.722 L2043.07,909.422 L2043.07,894.522 L2040.27,894.522 L2040.27,910.022 L2031.37,911.822 L2031.37,897.722 L2028.57,897.722 L2028.57,912.422 L2024.67,913.222 C2024.07,913.322 2023.57,914.022 2023.57,914.622 L2023.57,914.822 L2023.57,920.622 L2023.57,920.422 C2023.57,921.222 2024.17,921.822 2024.97,921.822 L2025.27,921.822 L2028.57,921.122 L2028.57,937.622 L2024.67,938.422 C2024.07,938.522 2023.57,939.222 2023.57,939.822 L2023.57,945.622 C2023.57,946.422 2024.17,947.022 2024.97,947.022 L2025.27,947.022 L2028.57,946.322 L2028.57,961.222 L2031.37,961.222 L2031.37,945.722 L2040.27,943.922 L2040.27,958.022 L2043.07,958.022 L2043.07,943.322 L2046.87,942.622 C2047.47,942.522 2047.97,941.822 2047.97,941.222 L2047.97,935.322 C2047.97,934.522 2047.37,933.922 2046.57,933.922 L2046.37,933.922 L2043.07,934.622 L2043.07,918.122 L2046.87,917.422 M2031.37,937.122 L2031.37,920.522 L2040.27,918.722 L2040.27,935.222 L2031.37,937.122 "/>
<path class="Accidental" d="M2240.62,929.923 C2241.22,929.823 2241.72,929.123 2241.72,928.523 L2241.72,922.623 C2241.72,921.823 2241.12,921.223 2240.32,921.223 L2240.12,921.223 L2236.82,921.923 L2236.82,907.023 L2234.02,907.023 L2234.02,922.523 L2225.12,924.323 L2225.12,910.223 L2222.32,910.223 L2222.32,924.923 L2218.42,925.723 C2217.82,925.823 2217.32,926.523 2217.32,927.123 L2217.32,927.323 L2217.32,933.123 L2217.32,932.923 C2217.32,933.723 2217.92,934.323 2218.72,934.323 L2219.02,934.323 L2222.32,933.623 L2222.32,950.123 L2218.42,950.923 C2217.82,951.023 2217.32,951.723 2217.32,952.323 L2217.32,958.123 C2217.32,958.923 2217.92,959.523 2218.72,959.523 L2219.02,959.523 L2222.32,958.823 L2222.32,973.723 L2225.12,973.723 L2225.12,958.223 L2234.02,956.423 L2234.02,970.523 L2236.82,970.523 L2236.82,955.823 L2240.62,955.123 C2241.22,955.023 2241.72,954.323 2241.72,953.723 L2241.72,947.823 C2241.72,947.023 2241.12,946.423 2240.32,946.423 L2240.12,946.423 L2236.82,947.123 L2236.82,930.623 L2240.62,929.923 M2225.12,949.623 L2225.12,933.023 L2234.02,931.223 L2234.02,947.723 L2225.12,949.623 "/>
<path class="Accidental" d="M2375.86,922.223 C2375.66,922.023 2375.36,921.923 2375.06,921.923 C2374.96,921.923 2374.76,922.023 2374.66,922.023 L2362.06,925.523 L2362.06,908.023 L2359.26,908.023 L2359.26,957.523 C2359.26,958.323 2359.86,958.823 2360.66,958.823 L2361.06,958.823 L2373.66,955.323 L2373.66,972.823 L2376.36,972.823 L2376.36,923.323 C2376.36,922.923 2376.16,922.423 2375.86,922.223 M2373.66,947.023 L2362.06,950.223 L2362.06,933.823 L2373.66,930.523 L2373.66,947.023 "/>
<path class="Accidental" d="M2509.88,954.924 C2510.48,954.824 2510.98,954.124 2510.98,953.524 L2510.98,947.624 C2510.98,946.824 2510.38,946.224 2509.58,946.224 L2509.38,946.224 L2506.08,946.924 L2506.08,932.024 L2503.28,932.024 L2503.28,947.524 L2494.38,949.324 L2494.38,935.224 L2491.58,935.224 L2491.58,949.924 L2487.68,950.724 C2487.08,950.824 2486.58,951.524 2486.58,952.124 L2486.58,952.324 L2486.58,958.124 L2486.58,957.924 C2486.58,958.724 2487.18,959.324 2487.98,959.324 L2488.28,959.324 L2491.58,958.624 L2491.58,975.124 L2487.68,975.924 C2487.08,976.024 2486.58,976.724 2486.58,977.324 L2486.58,983.124 C2486.58,983.924 2487.18,984.524 2487.98,984.524 L2488.28,984.524 L2491.58,983.824 L2491.58,998.724 L2494.38,998.724 L2494.38,983.224 L2503.28,981.424 L2503.28,995.524 L2506.08,995.524 L2506.08,980.824 L2509.88,980.124 C2510.48,980.024 2510.98,979.324 2510.98,978.724 L2510.98,972.824 C2510.98,972.024 2510.38,971.424 2509.58,971.424 L2509.38,971.424 L2506.08,972.124 L2506.08,955.624 L2509.88,954.924 M2494.38,974.624 L2494.38,958.024 L2503.28,956.224 L2503.28,972.724 L2494.38,974.624 "/>
<path class="Accidental" d="M478.302,754.912 C478.902,754.812 479.402,754.112 479.402,753.512 L479.402,747.612 C479.402,746.812 478.802,746.212 478.002,746.212 L477.802,746.212 L474.502,746.912 L474.502,732.012 L471.702,732.012 L471.702,747.512 L462.802,749.312 L462.802,735.212 L460.002,735.212 L460.002,749.912 L456.102,750.712 C455.502,750.812 455.002,751.512 455.002,752.112 L455.002,752.312 L455.002,758.112 L455.002,757.912 C455.002,758.712 455.602,759.312 456.402,759.312 L456.702,759.312 L460.002,758.612 L460.002,775.112 L456.102,775.912 C455.502,776.012 455.002,776.712 455.002,777.312 L455.002,783.112 C455.002,783.912 455.602,784.512 456.402,784.512 L456.702,784.512 L460.002,783.812 L460.002,798.712 L462.802,798.712 L462.802,783.212 L471.702,781.412 L471.702,795.512 L474.502,795.512 L474.502,780.812 L478.302,780.112 C478.902,780.012 479.402,779.312 479.402,778.712 L479.402,772.812 C479.402,772.012 478.802,771.412 478.002,771.412 L477.802,771.412 L474.502,772.112 L474.502,755.612 L478.302,754.912 M462.802,774.612 L462.802,758.012 L471.702,756.212 L471.702,772.712 L462.802,774.612 "/>
<path class="Accidental" d="M746.76,729.91 C747.36,729.81 747.86,729.11 747.86,728.51 L747.86,722.61 C747.86,721.81 747.26,721.21 746.46,721.21 L746.26,721.21 L742.96,721.91 L742.96,707.01 L740.16,707.01 L740.16,722.51 L731.26,724.31 L731.26,710.21 L728.46,710.21 L728.46,724.91 L724.56,725.71 C723.96,725.81 723.46,726.51 723.46,727.11 L723.46,727.31 L723.46,733.11 L723.46,732.91 C723.46,733.71 724.06,734.31 724.86,734.31 L725.16,734.31 L728.46,733.61 L728.46,750.11 L724.56,750.91 C723.96,751.01 723.46,751.71 723.46,752.31 L723.46,758.11 C723.46,758.91 724.06,759.51 724.86,759.51 L725.16,759.51 L728.46,758.81 L728.46,773.71 L731.26,773.71 L731.26,758.21 L740.16,756.41 L740.16,770.51 L742.96,770.51 L742.96,755.81 L746.76,755.11 C747.36,755.01 747.86,754.31 747.86,753.71 L747.86,747.81 C747.86,747.01 747.26,746.41 746.46,746.41 L746.26,746.41 L742.96,747.11 L742.96,730.61 L746.76,729.91 M731.26,749.61 L731.26,733.01 L740.16,731.21 L740.16,747.71 L731.26,749.61 "/>
<path class="Accidental" d="M880.988,717.409 C881.588,717.309 882.088,716.609 882.088,716.009 L882.088,710.109 C882.088,709.309 881.488,708.709 880.688,708.709 L880.488,708.709 L877.188,709.409 L877.188,694.509 L874.388,694.509 L874.388,710.009 L865.488,711.809 L865.488,697.709 L862.688,697.709 L862.688,712.409 L858.788,713.209 C858.188,713.309 857.688,714.009 857.688,714.609 L857.688,714.809 L857.688,720.609 L857.688,720.409 C857.688,721.209 858.288,721.809 859.088,721.809 L859.388,721.809 L862.688,721.109 L862.688,737.609 L858.788,738.409 C858.188,738.509 857.688,739.209 857.688,739.809 L857.688,745.609 C857.688,746.409 858.288,747.009 859.088,747.009 L859.388,747.009 L862.688,746.309 L862.688,761.209 L865.488,761.209 L865.488,745.709 L874.388,743.909 L874.388,758.009 L877.188,758.009 L877.188,743.309 L880.988,742.609 C881.588,742.509 882.088,741.809 882.088,741.209 L882.088,735.309 C882.088,734.509 881.488,733.909 880.688,733.909 L880.488,733.909 L877.188,734.609 L877.188,718.109 L880.988,717.409 M865.488,737.109 L865.488,720.509 L874.388,718.709 L874.388,735.209 L865.488,737.109 "/>
<path class="Accidental" d="M1072.12,704.909 C1072.72,704.809 1073.22,704.109 1073.22,703.509 L1073.22,697.609 C1073.22,696.809 1072.62,696.209 1071.82,696.209 L1071.62,696.209 L1068.32,696.909 L1068.32,682.009 L1065.52,682.009 L1065.52,697.509 L1056.62,699.309 L1056.62,685.209 L1053.82,685.209 L1053.82,699.909 L1049.92,700.709 C1049.32,700.809 1048.82,701.509 1048.82,702.109 L1048.82,702.309 L1048.82,708.109 L1048.82,707.909 C1048.82,708.709 1049.42,709.309 1050.22,709.309 L1050.52,709.309 L1053.82,708.609 L1053.82,725.109 L1049.92,725.909 C1049.32,726.009 1048.82,726.709 1048.82,727.309 L1048.82,733.109 C1048.82,733.909 1049.42,734.509 1050.22,734.509 L1050.52,734.509 L1053.82,733.809 L1053.82,748.709 L1056.62,748.709 L1056.62,733.209 L1065.52,731.409 L1065.52,745.509 L1068.32,745.509 L1068.32,730.809 L1072.12,730.109 C1072.72,730.009 1073.22,729.309 1073.22,728.709 L1073.22,722.809 C1073.22,722.009 1072.62,721.409 1071.82,721.409 L1071.62,721.409 L1068.32,722.109 L1068.32,705.609 L1072.12,704.909 M1056.62,724.609 L1056.62,708.009 L1065.52,706.209 L1065.52,722.709 L1056.62,724.609 "/>
<path class="Accidental" d="M1460.95,667.406 C1461.55,667.306 1462.05,666.606 1462.05,666.006 L1462.05,660.106 C1462.05,659.306 1461.45,658.706 1460.65,658.706 L1460.45,658.706 L1457.15,659.406 L1457.15,644.506 L1454.35,644.506 L1454.35,660.006 L1445.45,661.806 L1445.45,647.706 L1442.65,647.706 L1442.65,662.406 L1438.75,663.206 C1438.15,663.306 1437.65,664.006 1437.65,664.606 L1437.65,664.806 L1437.65,670.606 L1437.65,670.406 C1437.65,671.206 1438.25,671.806 1439.05,671.806 L1439.35,671.806 L1442.65,671.106 L1442.65,687.606 L1438.75,688.406 C1438.15,688.506 1437.65,689.206 1437.65,689.806 L1437.65,695.606 C1437.65,696.406 1438.25,697.006 1439.05,697.006 L1439.35,697.006 L1442.65,696.306 L1442.65,711.206 L1445.45,711.206 L1445.45,695.706 L1454.35,693.906 L1454.35,708.006 L1457.15,708.006 L1457.15,693.306 L1460.95,692.606 C1461.55,692.506 1462.05,691.806 1462.05,691.206 L1462.05,685.306 C1462.05,684.506 1461.45,683.906 1460.65,683.906 L1460.45,683.906 L1457.15,684.606 L1457.15,668.106 L1460.95,667.406 M1445.45,687.106 L1445.45,670.506 L1454.35,668.706 L1454.35,685.206 L1445.45,687.106 "/>
<path class="Accidental" d="M1910.01,704.909 C1910.61,704.809 1911.11,704.109 1911.11,703.509 L1911.11,697.609 C1911.11,696.809 1910.51,696.209 1909.71,696.209 L1909.51,696.209 L1906.21,696.909 L1906.21,682.009 L1903.41,682.009 L1903.41,697.509 L1894.51,699.309 L1894.51,685.209 L1891.71,685.209 L1891.71,699.909 L1887.81,700.709 C1887.21,700.809 1886.71,701.509 1886.71,702.109 L1886.71,702.309 L1886.71,708.109 L1886.71,707.909 C1886.71,708.709 1887.31,709.309 1888.11,709.309 L1888.41,709.309 L1891.71,708.609 L1891.71,725.109 L1887.81,725.909 C1887.21,726.009 1886.71,726.709 1886.71,727.309 L1886.71,733.109 C1886.71,733.909 1887.31,734.509 1888.11,734.509 L1888.41,734.509 L1891.71,733.809 L1891.71,748.709 L1894.51,748.709 L1894.51,733.209 L1903.41,731.409 L1903.41,745.509 L1906.21,745.509 L1906.21,730.809 L1910.01,730.109 C1910.61,730.009 1911.11,729.309 1911.11,728.709 L1911.11,722.809 C1911.11,722.009 1910.51,721.409 1909.71,721.409 L1909.51,721.409 L1906.21,722.109 L1906.21,705.609 L1910.01,704.909 M1894.51,724.609 L1894.51,708.009 L1903.41,706.209 L1903.41,722.709 L1894.51,724.609 "/>
<path class="Accidental" d="M2046.87,717.409 C2047.47,717.309 2047.97,716.609 2047.97,716.009 L2047.97,710.109 C2047.97,709.309 2047.37,708.709 2046.57,708.709 L2046.37,708.709 L2043.07,709.409 L2043.07,694.509 L2040.27,694.509 L2040.27,710.009 L2031.37,711.809 L2031.37,697.709 L2028.57,697.709 L2028.57,712.409 L2024.67,713.209 C2024.07,713.309 2023.57,714.009 2023.57,714.609 L2023.57,714.809 L2023.57,720.609 L2023.57,720.409 C2023.57,721.209 2024.17,721.809 2024.97,721.809 L2025.27,721.809 L2028.57,721.109 L2028.57,737.609 L2024.67,738.409 C2024.07,738.509 2023.57,739.209 2023.57,739.809 L2023.57,745.609 C2023.57,746.409 2024.17,747.009 2024.97,747.009 L2025.27,747.009 L2028.57,746.309 L2028.57,761.209 L2031.37,761.209 L2031.37,745.709 L2040.27,743.909 L2040.27,758.009 L2043.07,758.009 L2043.07,743.309 L2046.87,742.609 C2047.47,742.509 2047.97,741.809 2047.97,741.209 L2047.97,735.309 C2047.97,734.509 2047.37,733.909 2046.57,733.909 L2046.37,733.909 L2043.07,734.609 L2043.07,718.109 L2046.87,717.409 M2031.37,737.109 L2031.37,720.509 L2040.27,718.709 L2040.27,735.209 L2031.37,737.109 "/>
<path class="Accidental" d="M2240.62,729.91 C2241.22,729.81 2241.72,729.11 2241.72,728.51 L2241.72,722.61 C2241.72,721.81 2241.12,721.21 2240.32,721.21 L2240.12,721.21 L2236.82,721.91 L2236.82,707.01 L2234.02,707.01 L2234.02,722.51 L2225.12,724.31 L2225.12,710.21 L2222.32,710.21 L2222.32,724.91 L2218.42,725.71 C2217.82,725.81 2217.32,726.51 2217.32,727.11 L2217.32,727.31 L2217.32,733.11 L2217.32,732.91 C2217.32,733.71 2217.92,734.31 2218.72,734.31 L2219.02,734.31 L2222.32,733.61 L2222.32,750.11 L2218.42,750.91 C2217.82,751.01 2217.32,751.71 2217.32,752.31 L2217.32,758.11 C2217.32,758.91 2217.92,759.51 2218.72,759.51 L2219.02,759.51 L2222.32,758.81 L2222.32,773.71 L2225.12,773.71 L2225.12,758.21 L2234.02,756.41 L2234.02,770.51 L2236.82,770.51 L2236.82,755.81 L2240.62,755.11 C2241.22,755.01 2241.72,754.31 2241.72,753.71 L2241.72,747.81 C2241.72,747.01 2241.12,746.41 2240.32,746.41 L2240.12,746.41 L2236.82,747.11 L2236.82,730.61 L2240.62,729.91 M2225.12,749.61 L2225.12,733.01 L2234.02,731.21 L2234.02,747.71 L2225.12,749.61 "/>
<path class="Accidental" d="M2375.86,722.21 C2375.66,722.01 2375.36,721.91 2375.06,721.91 C2374.96,721.91 2374.76,722.01 2374.66,722.01 L2362.06,725.51 L2362.06,708.01 L2359.26,708.01 L2359.26,757.51 C2359.26,758.31 2359.86,758.81 2360.66,758.81 L2361.06,758.81 L2373.66,755.31 L2373.66,772.81 L2376.36,772.81 L2376.36,723.31 C2376.36,722.91 2376.16,722.41 2375.86,722.21 M2373.66,747.01 L2362.06,750.21 L2362.06,733.81 L2373.66,730.51 L2373.66,747.01 "/>
<path class="Accidental" d="M2509.88,754.912 C2510.48,754.812 2510.98,754.112 2510.98,753.512 L2510.98,747.612 C2510.98,746.812 2510.38,746.212 2509.58,746.212 L2509.38,746.212 L2506.08,746.912 L2506.08,732.012 L2503.28,732.012 L2503.28,747.512 L2494.38,749.312 L2494.38,735.212 L2491.58,735.212 L2491.58,749.912 L2487.68,750.712 C2487.08,750.812 2486.58,751.512 2486.58,752.112 L2486.58,752.312 L2486.58,758.112 L2486.58,757.912 C2486.58,758.712 2487.18,759.312 2487.98,759.312 L2488.28,759.312 L2491.58,758.612 L2491.58,775.112 L2487.68,775.912 C2487.08,776.012 2486.58,776.712 2486.58,777.312 L2486.58,783.112 C2486.58,783.912 2487.18,784.512 2487.98,784.512 L2488.28,784.512 L2491.58,783.812 L2491.58,798.712 L2494.38,798.712 L2494.38,783.212 L2503.28,781.412 L2503.28,795.512 L2506.08,795.512 L2506.08,780.812 L2509.88,780.112 C2510.48,780.012 2510.98,779.312 2510.98,778.712 L2510.98,772.812 C2510.98,772.012 2510.38,771.412 2509.58,771.412 L2509.38,771.412 L2506.08,772.112 L2506.08,755.612 L2509.88,754.912 M2494.38,774.612 L2494.38,758.012 L2503.28,756.212 L2503.28,772.712 L2494.38,774.612 "/>
<polyline class="LedgerLine" fill="none" stroke="#000000" stroke-width="4.00" stroke-linejoin="bevel" points="1329.94,890.52 1379.93,890.52"/>
<polyline class="LedgerLine" fill="none" stroke="#000000" stroke-width="4.00" stroke-linejoin="bevel" points="1459.54,890.52 1509.54,890.52"/>
<polyline class="LedgerLine" fill="none" stroke="#000000" stroke-width="4.00" stroke-linejoin="bevel" points="1634.91,890.52 1684.9,890.52"/>
<polyline class="Stem" fill="none" stroke="#000000" stroke-width="2.75" stroke-linejoin="bevel" points="487.028,969.045 487.028,1043.65"/>
<polyline class="Stem" fill="none" stroke="#000000" stroke-width="2.75" stroke-linejoin="bevel" points="621.256,944.043 621.256,1024.9"/>
<polyline class="Stem" fill="none" stroke="#000000" stroke-width="2.75" stroke-linejoin="bevel" points="755.485,944.043 755.485,1024.9"/>
<polyline class="Stem" fill="none" stroke="#000000" stroke-width="2.75" stroke-linejoin="bevel" points="889.714,931.542 889.714,1015.53"/>
<polyline class="Stem" fill="none" stroke="#000000" stroke-width="2.75" stroke-linejoin="bevel" points="1080.84,919.042 1080.84,1003.03"/>
<polyline class="Stem" fill="none" stroke="#000000" stroke-width="2.75" stroke-linejoin="bevel" points="1210.45,906.541 1210.45,990.526"/>
<polyline class="Stem" fill="none" stroke="#000000" stroke-width="2.75" stroke-linejoin="bevel" points="1340.06,881.539 1340.06,965.524"/>
<polyline class="Stem" fill="none" stroke="#000000" stroke-width="2.75" stroke-linejoin="bevel" points="1469.67,881.539 1469.67,965.524"/>
<polyline class="Stem" fill="none" stroke="#000000" stroke-width="2.75" stroke-linejoin="bevel" points="1645.03,881.539 1645.03,965.524"/>
<polyline class="Stem" fill="none" stroke="#000000" stroke-width="2.75" stroke-linejoin="bevel" points="1781.89,906.541 1781.89,990.526"/>
<polyline class="Stem" fill="none" stroke="#000000" stroke-width="2.75" stroke-linejoin="bevel" points="1918.74,919.042 1918.74,1003.03"/>
<polyline class="Stem" fill="none" stroke="#000000" stroke-width="2.75" stroke-linejoin="bevel" points="2055.59,931.542 2055.59,1015.53"/>
<polyline class="Stem" fill="none" stroke="#000000" stroke-width="2.75" stroke-linejoin="bevel" points="2249.35,944.043 2249.35,1024.9"/>
<polyline class="Stem" fill="none" stroke="#000000" stroke-width="2.75" stroke-linejoin="bevel" points="2383.98,944.043 2383.98,1024.9"/>
<polyline class="Stem" fill="none" stroke="#000000" stroke-width="2.75" stroke-linejoin="bevel" points="2518.6,968.965 2518.6,1043.65"/>
<polyline class="Stem" fill="none" stroke="#000000" stroke-width="2.75" stroke-linejoin="bevel" points="516.772,762.152 516.772,678.006"/>
<polyline class="Stem" fill="none" stroke="#000000" stroke-width="2.75" stroke-linejoin="bevel" points="651,737.15 651,653.005"/>
<polyline class="Stem" fill="none" stroke="#000000" stroke-width="2.75" stroke-linejoin="bevel" points="785.229,737.15 785.229,653.005"/>
<polyline class="Stem" fill="none" stroke="#000000" stroke-width="2.75" stroke-linejoin="bevel" points="919.458,724.649 919.458,643.629"/>
<polyline class="Stem" fill="none" stroke="#000000" stroke-width="2.75" stroke-linejoin="bevel" points="1110.59,712.148 1110.59,634.254"/>
<polyline class="Stem" fill="none" stroke="#000000" stroke-width="2.75" stroke-linejoin="bevel" points="1210.45,706.528 1210.45,781.138"/>
<polyline class="Stem" fill="none" stroke="#000000" stroke-width="2.75" stroke-linejoin="bevel" points="1340.06,681.527 1340.06,762.387"/>
<polyline class="Stem" fill="none" stroke="#000000" stroke-width="2.75" stroke-linejoin="bevel" points="1469.67,681.527 1469.67,762.387"/>
<polyline class="Stem" fill="none" stroke="#000000" stroke-width="2.75" stroke-linejoin="bevel" points="1645.03,681.527 1645.03,762.387"/>
<polyline class="Stem" fill="none" stroke="#000000" stroke-width="2.75" stroke-linejoin="bevel" points="1781.89,706.528 1781.89,781.138"/>
<polyline class="Stem" fill="none" stroke="#000000" stroke-width="2.75" stroke-linejoin="bevel" points="1948.48,712.148 1948.48,634.254"/>
<polyline class="Stem" fill="none" stroke="#000000" stroke-width="2.75" stroke-linejoin="bevel" points="2085.34,724.649 2085.34,643.629"/>
<polyline class="Stem" fill="none" stroke="#000000" stroke-width="2.75" stroke-linejoin="bevel" points="2279.09,737.15 2279.09,653.005"/>
<polyline class="Stem" fill="none" stroke="#000000" stroke-width="2.75" stroke-linejoin="bevel" points="2413.72,737.15 2413.72,653.005"/>
<polyline class="Stem" fill="none" stroke="#000000" stroke-width="2.75" stroke-linejoin="bevel" points="2548.35,762.072 2548.35,678.006"/>
<path class="Note" d="M517.153,957.324 C515.653,954.624 512.753,952.924 508.853,952.524 C508.253,952.424 507.753,952.424 507.153,952.424 C503.653,952.424 499.853,953.424 496.353,955.324 C489.753,958.924 485.653,964.824 485.653,969.924 C485.653,971.324 485.853,972.624 486.553,973.824 C488.053,976.524 491.053,978.224 494.953,978.624 C495.553,978.724 496.053,978.724 496.653,978.724 C500.153,978.724 503.853,977.724 507.353,975.824 C513.953,972.224 518.153,966.424 518.153,961.324 C518.153,959.924 517.853,958.524 517.153,957.324"/>
<path class="Note" d="M651.381,932.323 C649.881,929.623 646.981,927.923 643.081,927.523 C642.481,927.423 641.981,927.423 641.381,927.423 C637.881,927.423 634.081,928.423 630.581,930.323 C623.981,933.923 619.881,939.823 619.881,944.923 C619.881,946.323 620.081,947.623 620.781,948.823 C622.281,951.523 625.281,953.223 629.181,953.623 C629.781,953.723 630.281,953.723 630.881,953.723 C634.381,953.723 638.081,952.723 641.581,950.823 C648.181,947.223 652.381,941.423 652.381,936.323 C652.381,934.923 652.081,933.523 651.381,932.323"/>
<path class="Note" d="M785.61,932.323 C784.11,929.623 781.21,927.923 777.31,927.523 C776.71,927.423 776.21,927.423 775.61,927.423 C772.11,927.423 768.31,928.423 764.81,930.323 C758.21,933.923 754.11,939.823 754.11,944.923 C754.11,946.323 754.31,947.623 755.01,948.823 C756.51,951.523 759.51,953.223 763.41,953.623 C764.01,953.723 764.51,953.723 765.11,953.723 C768.61,953.723 772.31,952.723 775.81,950.823 C782.41,947.223 786.61,941.423 786.61,936.323 C786.61,934.923 786.31,933.523 785.61,932.323"/>
<path class="Note" d="M919.839,919.822 C918.339,917.122 915.439,915.422 911.539,915.022 C910.939,914.922 910.439,914.922 909.839,914.922 C906.339,914.922 902.539,915.922 899.039,917.822 C892.439,921.422 888.339,927.322 888.339,932.422 C888.339,933.822 888.539,935.122 889.239,936.322 C890.739,939.022 893.739,940.722 897.639,941.122 C898.239,941.222 898.739,941.222 899.339,941.222 C902.839,941.222 906.539,940.222 910.039,938.322 C916.639,934.722 920.839,928.922 920.839,923.822 C920.839,922.422 920.539,921.022 919.839,919.822"/>
<path class="Note" d="M1110.97,907.321 C1109.47,904.621 1106.57,902.921 1102.67,902.521 C1102.07,902.421 1101.57,902.421 1100.97,902.421 C1097.47,902.421 1093.67,903.421 1090.17,905.321 C1083.57,908.921 1079.47,914.821 1079.47,919.921 C1079.47,921.321 1079.67,922.621 1080.37,923.821 C1081.87,926.521 1084.87,928.221 1088.77,928.621 C1089.37,928.721 1089.87,928.721 1090.47,928.721 C1093.97,928.721 1097.67,927.721 1101.17,925.821 C1107.77,922.221 1111.97,916.421 1111.97,911.321 C1111.97,909.921 1111.67,908.521 1110.97,907.321"/>
<path class="Note" d="M1240.58,894.82 C1239.08,892.12 1236.18,890.42 1232.28,890.02 C1231.68,889.92 1231.18,889.92 1230.58,889.92 C1227.08,889.92 1223.28,890.92 1219.78,892.82 C1213.18,896.42 1209.08,902.32 1209.08,907.42 C1209.08,908.82 1209.28,910.12 1209.98,911.32 C1211.48,914.02 1214.48,915.72 1218.38,916.12 C1218.98,916.22 1219.48,916.22 1220.08,916.22 C1223.58,916.22 1227.28,915.22 1230.78,913.32 C1237.38,909.72 1241.58,903.92 1241.58,898.82 C1241.58,897.42 1241.28,896.02 1240.58,894.82"/>
<path class="Note" d="M1370.19,869.819 C1368.69,867.119 1365.79,865.419 1361.89,865.019 C1361.29,864.919 1360.79,864.919 1360.19,864.919 C1356.69,864.919 1352.89,865.919 1349.39,867.819 C1342.79,871.419 1338.69,877.319 1338.69,882.419 C1338.69,883.819 1338.89,885.119 1339.59,886.319 C1341.09,889.019 1344.09,890.719 1347.99,891.119 C1348.59,891.219 1349.09,891.219 1349.69,891.219 C1353.19,891.219 1356.89,890.219 1360.39,888.319 C1366.99,884.719 1371.19,878.919 1371.19,873.819 C1371.19,872.419 1370.89,871.019 1370.19,869.819"/>
<path class="Note" d="M1499.8,869.819 C1498.3,867.119 1495.4,865.419 1491.5,865.019 C1490.9,864.919 1490.4,864.919 1489.8,864.919 C1486.3,864.919 1482.5,865.919 1479,867.819 C1472.4,871.419 1468.3,877.319 1468.3,882.419 C1468.3,883.819 1468.5,885.119 1469.2,886.319 C1470.7,889.019 1473.7,890.719 1477.6,891.119 C1478.2,891.219 1478.7,891.219 1479.3,891.219 C1482.8,891.219 1486.5,890.219 1490,888.319 C1496.6,884.719 1500.8,878.919 1500.8,873.819 C1500.8,872.419 1500.5,871.019 1499.8,869.819"/>
<path class="Note" d="M1675.16,869.819 C1673.66,867.119 1670.76,865.419 1666.86,865.019 C1666.26,864.919 1665.76,864.919 1665.16,864.919 C1661.66,864.919 1657.86,865.919 1654.36,867.819 C1647.76,871.419 1643.66,877.319 1643.66,882.419 C1643.66,883.819 1643.86,885.119 1644.56,886.319 C1646.06,889.019 1649.06,890.719 1652.96,891.119 C1653.56,891.219 1654.06,891.219 1654.66,891.219 C1658.16,891.219 1661.86,890.219 1665.36,888.319 C1671.96,884.719 1676.16,878.919 1676.16,873.819 C1676.16,872.419 1675.86,871.019 1675.16,869.819"/>
<path class="Note" d="M1812.01,894.82 C1810.51,892.12 1807.61,890.42 1803.71,890.02 C1803.11,889.92 1802.61,889.92 1802.01,889.92 C1798.51,889.92 1794.71,890.92 1791.21,892.82 C1784.61,896.42 1780.51,902.32 1780.51,907.42 C1780.51,908.82 1780.71,910.12 1781.41,911.32 C1782.91,914.02 1785.91,915.72 1789.81,916.12 C1790.41,916.22 1790.91,916.22 1791.51,916.22 C1795.01,916.22 1798.71,915.22 1802.21,913.32 C1808.81,909.72 1813.01,903.92 1813.01,898.82 C1813.01,897.42 1812.71,896.02 1812.01,894.82"/>
<path class="Note" d="M1948.86,907.321 C1947.36,904.621 1944.46,902.921 1940.56,902.521 C1939.96,902.421 1939.46,902.421 1938.86,902.421 C1935.36,902.421 1931.56,903.421 1928.06,905.321 C1921.46,908.921 1917.36,914.821 1917.36,919.921 C1917.36,921.321 1917.56,922.621 1918.26,923.821 C1919.76,926.521 1922.76,928.221 1926.66,928.621 C1927.26,928.721 1927.76,928.721 1928.36,928.721 C1931.86,928.721 1935.56,927.721 1939.06,925.821 C1945.66,922.221 1949.86,916.421 1949.86,911.321 C1949.86,909.921 1949.56,908.521 1948.86,907.321"/>
<path class="Note" d="M2085.72,919.822 C2084.22,917.122 2081.32,915.422 2077.42,915.022 C2076.82,914.922 2076.32,914.922 2075.72,914.922 C2072.22,914.922 2068.42,915.922 2064.92,917.822 C2058.32,921.422 2054.22,927.322 2054.22,932.422 C2054.22,933.822 2054.42,935.122 2055.12,936.322 C2056.62,939.022 2059.62,940.722 2063.52,941.122 C2064.12,941.222 2064.62,941.222 2065.22,941.222 C2068.72,941.222 2072.42,940.222 2075.92,938.322 C2082.52,934.722 2086.72,928.922 2086.72,923.822 C2086.72,922.422 2086.42,921.022 2085.72,919.822"/>
<path class="Note" d="M2279.47,932.323 C2277.97,929.623 2275.07,927.923 2271.17,927.523 C2270.57,927.423 2270.07,927.423 2269.47,927.423 C2265.97,927.423 2262.17,928.423 2258.67,930.323 C2252.07,933.923 2247.97,939.823 2247.97,944.923 C2247.97,946.323 2248.17,947.623 2248.87,948.823 C2250.37,951.523 2253.37,953.223 2257.27,953.623 C2257.87,953.723 2258.37,953.723 2258.97,953.723 C2262.47,953.723 2266.17,952.723 2269.67,950.823 C2276.27,947.223 2280.47,941.423 2280.47,936.323 C2280.47,934.923 2280.17,933.523 2279.47,932.323"/>
<path class="Note" d="M2414.1,932.323 C2412.6,929.623 2409.7,927.923 2405.8,927.523 C2405.2,927.423 2404.7,927.423 2404.1,927.423 C2400.6,927.423 2396.8,928.423 2393.3,930.323 C2386.7,933.923 2382.6,939.823 2382.6,944.923 C2382.6,946.323 2382.8,947.623 2383.5,948.823 C2385,951.523 2388,953.223 2391.9,953.623 C2392.5,953.723 2393,953.723 2393.6,953.723 C2397.1,953.723 2400.8,952.723 2404.3,950.823 C2410.9,947.223 2415.1,941.423 2415.1,936.323 C2415.1,934.923 2414.8,933.523 2414.1,932.323"/>
<path class="Note" d="M2548.73,957.324 C2547.23,954.624 2544.33,952.924 2540.43,952.524 C2539.83,952.424 2539.33,952.424 2538.73,952.424 C2535.23,952.424 2531.43,953.424 2527.93,955.324 C2521.33,958.924 2517.23,964.724 2517.23,969.824 C2517.23,971.224 2517.63,972.624 2518.33,973.824 C2519.83,976.624 2522.63,978.224 2526.53,978.624 C2527.13,978.724 2527.63,978.724 2528.23,978.724 C2531.73,978.724 2535.53,977.724 2539.03,975.824 C2545.63,972.224 2549.73,966.324 2549.73,961.224 C2549.73,959.824 2549.43,958.524 2548.73,957.324 M2544.53,963.624 C2542.83,965.424 2539.63,967.724 2536.03,969.824 C2532.43,971.924 2528.73,973.624 2526.43,974.324 C2525.93,974.424 2525.33,974.524 2524.83,974.524 C2523.33,974.524 2522.03,973.824 2521.33,972.724 C2521.03,972.124 2520.83,971.524 2520.83,970.924 C2520.83,969.824 2521.33,968.724 2522.43,967.524 C2524.13,965.724 2527.33,963.324 2530.93,961.224 C2534.53,959.124 2538.23,957.424 2540.63,956.824 L2540.83,956.824 C2541.43,956.624 2541.93,956.524 2542.43,956.524 C2543.83,956.524 2544.93,957.124 2545.63,958.424 C2545.93,959.024 2546.13,959.524 2546.13,960.124 C2546.13,961.424 2545.43,962.724 2544.53,963.624"/>
<path class="Note" d="M517.153,757.312 C515.653,754.612 512.753,752.912 508.853,752.512 C508.253,752.412 507.753,752.412 507.153,752.412 C503.653,752.412 499.853,753.412 496.353,755.312 C489.753,758.912 485.653,764.812 485.653,769.912 C485.653,771.312 485.853,772.612 486.553,773.812 C488.053,776.512 491.053,778.212 494.953,778.612 C495.553,778.712 496.053,778.712 496.653,778.712 C500.153,778.712 503.853,777.712 507.353,775.812 C513.953,772.212 518.153,766.412 518.153,761.312 C518.153,759.912 517.853,758.512 517.153,757.312"/>
<path class="Note" d="M651.381,732.31 C649.881,729.61 646.981,727.91 643.081,727.51 C642.481,727.41 641.981,727.41 641.381,727.41 C637.881,727.41 634.081,728.41 630.581,730.31 C623.981,733.91 619.881,739.81 619.881,744.91 C619.881,746.31 620.081,747.61 620.781,748.81 C622.281,751.51 625.281,753.21 629.181,753.61 C629.781,753.71 630.281,753.71 630.881,753.71 C634.381,753.71 638.081,752.71 641.581,750.81 C648.181,747.21 652.381,741.41 652.381,736.31 C652.381,734.91 652.081,733.51 651.381,732.31"/>
<path class="Note" d="M785.61,732.31 C784.11,729.61 781.21,727.91 777.31,727.51 C776.71,727.41 776.21,727.41 775.61,727.41 C772.11,727.41 768.31,728.41 764.81,730.31 C758.21,733.91 754.11,739.81 754.11,744.91 C754.11,746.31 754.31,747.61 755.01,748.81 C756.51,751.51 759.51,753.21 763.41,753.61 C764.01,753.71 764.51,753.71 765.11,753.71 C768.61,753.71 772.31,752.71 775.81,750.81 C782.41,747.21 786.61,741.41 786.61,736.31 C786.61,734.91 786.31,733.51 785.61,732.31"/>
<path class="Note" d="M919.839,719.809 C918.339,717.109 915.439,715.409 911.539,715.009 C910.939,714.909 910.439,714.909 909.839,714.909 C906.339,714.909 902.539,715.909 899.039,717.809 C892.439,721.409 888.339,727.309 888.339,732.409 C888.339,733.809 888.539,735.109 889.239,736.309 C890.739,739.009 893.739,740.709 897.639,741.109 C898.239,741.209 898.739,741.209 899.339,741.209 C902.839,741.209 906.539,740.209 910.039,738.309 C916.639,734.709 920.839,728.909 920.839,723.809 C920.839,722.409 920.539,721.009 919.839,719.809"/>
<path class="Note" d="M1110.97,707.309 C1109.47,704.609 1106.57,702.909 1102.67,702.509 C1102.07,702.409 1101.57,702.409 1100.97,702.409 C1097.47,702.409 1093.67,703.409 1090.17,705.309 C1083.57,708.909 1079.47,714.809 1079.47,719.909 C1079.47,721.309 1079.67,722.609 1080.37,723.809 C1081.87,726.509 1084.87,728.209 1088.77,728.609 C1089.37,728.709 1089.87,728.709 1090.47,728.709 C1093.97,728.709 1097.67,727.709 1101.17,725.809 C1107.77,722.209 1111.97,716.409 1111.97,711.309 C1111.97,709.909 1111.67,708.509 1110.97,707.309"/>
<path class="Note" d="M1240.58,694.808 C1239.08,692.108 1236.18,690.408 1232.28,690.008 C1231.68,689.908 1231.18,689.908 1230.58,689.908 C1227.08,689.908 1223.28,690.908 1219.78,692.808 C1213.18,696.408 1209.08,702.308 1209.08,707.408 C1209.08,708.808 1209.28,710.108 1209.98,711.308 C1211.48,714.008 1214.48,715.708 1218.38,716.108 C1218.98,716.208 1219.48,716.208 1220.08,716.208 C1223.58,716.208 1227.28,715.208 1230.78,713.308 C1237.38,709.708 1241.58,703.908 1241.58,698.808 C1241.58,697.408 1241.28,696.008 1240.58,694.808"/>
<path class="Note" d="M1370.19,669.806 C1368.69,667.106 1365.79,665.406 1361.89,665.006 C1361.29,664.906 1360.79,664.906 1360.19,664.906 C1356.69,664.906 1352.89,665.906 1349.39,667.806 C1342.79,671.406 1338.69,677.306 1338.69,682.406 C1338.69,683.806 1338.89,685.106 1339.59,686.306 C1341.09,689.006 1344.09,690.706 1347.99,691.106 C1348.59,691.206 1349.09,691.206 1349.69,691.206 C1353.19,691.206 1356.89,690.206 1360.39,688.306 C1366.99,684.706 1371.19,678.906 1371.19,673.806 C1371.19,672.406 1370.89,671.006 1370.19,669.806"/>
<path class="Note" d="M1499.8,669.806 C1498.3,667.106 1495.4,665.406 1491.5,665.006 C1490.9,664.906 1490.4,664.906 1489.8,664.906 C1486.3,664.906 1482.5,665.906 1479,667.806 C1472.4,671.406 1468.3,677.306 1468.3,682.406 C1468.3,683.806 1468.5,685.106 1469.2,686.306 C1470.7,689.006 1473.7,690.706 1477.6,691.106 C1478.2,691.206 1478.7,691.206 1479.3,691.206 C1482.8,691.206 1486.5,690.206 1490,688.306 C1496.6,684.706 1500.8,678.906 1500.8,673.806 C1500.8,672.406 1500.5,671.006 1499.8,669.806"/>
<path class="Note" d="M1675.16,669.806 C1673.66,667.106 1670.76,665.406 1666.86,665.006 C1666.26,664.906 1665.76,664.906 1665.16,664.906 C1661.66,664.906 1657.86,665.906 1654.36,667.806 C1647.76,671.406 1643.66,677.306 1643.66,682.406 C1643.66,683.806 1643.86,685.106 1644.56,686.306 C1646.06,689.006 1649.06,690.706 1652.96,691.106 C1653.56,691.206 1654.06,691.206 1654.66,691.206 C1658.16,691.206 1661.86,690.206 1665.36,688.306 C1671.96,684.706 1676.16,678.906 1676.16,673.806 C1676.16,672.406 1675.86,671.006 1675.16,669.806"/>
<path class="Note" d="M1812.01,694.808 C1810.51,692.108 1807.61,690.408 1803.71,690.008 C1803.11,689.908 1802.61,689.908 1802.01,689.908 C1798.51,689.908 1794.71,690.908 1791.21,692.808 C1784.61,696.408 1780.51,702.308 1780.51,707.408 C1780.51,708.808 1780.71,710.108 1781.41,711.308 C1782.91,714.008 1785.91,715.708 1789.81,716.108 C1790.41,716.208 1790.91,716.208 1791.51,716.208 C1795.01,716.208 1798.71,715.208 1802.21,713.308 C1808.81,709.708 1813.01,703.908 1813.01,698.808 C1813.01,697.408 1812.71,696.008 1812.01,694.808"/>
<path class="Note" d="M1948.86,707.309 C1947.36,704.609 1944.46,702.909 1940.56,702.509 C1939.96,702.409 1939.46,702.409 1938.86,702.409 C1935.36,702.409 1931.56,703.409 1928.06,705.309 C1921.46,708.909 1917.36,714.809 1917.36,719.909 C1917.36,721.309 1917.56,722.609 1918.26,723.809 C1919.76,726.509 1922.76,728.209 1926.66,728.609 C1927.26,728.709 1927.76,728.709 1928.36,728.709 C1931.86,728.709 1935.56,727.709 1939.06,725.809 C1945.66,722.209 1949.86,716.409 1949.86,711.309 C1949.86,709.909 1949.56,708.509 1948.86,707.309"/>
<path class="Note" d="M2085.72,719.809 C2084.22,717.109 2081.32,715.409 2077.42,715.009 C2076.82,714.909 2076.32,714.909 2075.72,714.909 C2072.22,714.909 2068.42,715.909 2064.92,717.809 C2058.32,721.409 2054.22,727.309 2054.22,732.409 C2054.22,733.809 2054.42,735.109 2055.12,736.309 C2056.62,739.009 2059.62,740.709 2063.52,741.109 C2064.12,741.209 2064.62,741.209 2065.22,741.209 C2068.72,741.209 2072.42,740.209 2075.92,738.309 C2082.52,734.709 2086.72,728.909 2086.72,723.809 C2086.72,722.409 2086.42,721.009 2085.72,719.809"/>
<path class="Note" d="M2279.47,732.31 C2277.97,729.61 2275.07,727.91 2271.17,727.51 C2270.57,727.41 2270.07,727.41 2269.47,727.41 C2265.97,727.41 2262.17,728.41 2258.67,730.31 C2252.07,733.91 2247.97,739.81 2247.97,744.91 C2247.97,746.31 2248.17,747.61 2248.87,748.81 C2250.37,751.51 2253.37,753.21 2257.27,753.61 C2257.87,753.71 2258.37,753.71 2258.97,753.71 C2262.47,753.71 2266.17,752.71 2269.67,750.81 C2276.27,747.21 2280.47,741.41 2280.47,736.31 C2280.47,734.91 2280.17,733.51 2279.47,732.31"/>
<path class="Note" d="M2414.1,732.31 C2412.6,729.61 2409.7,727.91 2405.8,727.51 C2405.2,727.41 2404.7,727.41 2404.1,727.41 C2400.6,727.41 2396.8,728.41 2393.3,730.31 C2386.7,733.91 2382.6,739.81 2382.6,744.91 C2382.6,746.31 2382.8,747.61 2383.5,748.81 C2385,751.51 2388,753.21 2391.9,753.61 C2392.5,753.71 2393,753.71 2393.6,753.71 C2397.1,753.71 2400.8,752.71 2404.3,750.81 C2410.9,747.21 2415.1,741.41 2415.1,736.31 C2415.1,734.91 2414.8,733.51 2414.1,732.31"/>
<path class="Note" d="M2548.73,757.312 C2547.23,754.612 2544.33,752.912 2540.43,752.512 C2539.83,752.412 2539.33,752.412 2538.73,752.412 C2535.23,752.412 2531.43,753.412 2527.93,755.312 C2521.33,758.912 2517.23,764.712 2517.23,769.812 C2517.23,771.212 2517.63,772.612 2518.33,773.812 C2519.83,776.612 2522.63,778.212 2526.53,778.612 C2527.13,778.712 2527.63,778.712 2528.23,778.712 C2531.73,778.712 2535.53,777.712 2539.03,775.812 C2545.63,772.212 2549.73,766.312 2549.73,761.212 C2549.73,759.812 2549.43,758.512 2548.73,757.312 M2544.53,763.612 C2542.83,765.412 2539.63,767.712 2536.03,769.812 C2532.43,771.912 2528.73,773.612 2526.43,774.312 C2525.93,774.412 2525.33,774.512 2524.83,774.512 C2523.33,774.512 2522.03,773.812 2521.33,772.712 C2521.03,772.112 2520.83,771.512 2520.83,770.912 C2520.83,769.812 2521.33,768.712 2522.43,767.512 C2524.13,765.712 2527.33,763.312 2530.93,761.212 C2534.53,759.112 2538.23,757.412 2540.63,756.812 L2540.83,756.812 C2541.43,756.612 2541.93,756.512 2542.43,756.512 C2543.83,756.512 2544.93,757.112 2545.63,758.412 C2545.93,759.012 2546.13,759.512 2546.13,760.112 C2546.13,761.412 2545.43,762.712 2544.53,763.612"/>
<path class="Clef" d="M297,915.423 C289.4,915.423 283.3,919.823 283.2,919.823 C277.4,924.123 275.1,929.223 274.2,932.723 C273.7,934.523 273.5,936.323 273.5,938.023 C273.5,940.423 273.9,942.623 274.8,944.523 C276,947.223 278.3,949.123 281.3,950.123 C282.5,950.523 283.8,950.723 285.1,950.723 C287.3,950.723 289.6,950.123 291.5,949.023 C294.6,947.323 296.5,943.723 296.5,939.823 C296.5,936.323 294.7,933.123 291.7,931.223 C289.6,929.823 287.6,929.423 285.9,929.423 C284.7,929.423 283.6,929.623 282.7,929.923 C281.7,930.323 280,931.323 279.2,932.023 C279.5,930.123 280.7,927.223 281.8,925.623 C282.9,924.023 285.1,922.023 286.8,921.123 C289.3,919.723 292.5,919.123 296,919.123 C306.2,919.123 311.2,927.323 311.2,944.123 C311.2,953.423 307.7,962.323 304.7,968.223 C301.4,974.823 297,981.123 293.1,984.623 C282.7,994.123 272.9,998.623 272.8,998.623 C272.8,998.623 271.3,999.523 271.7,1001.02 C272,1002.02 272.9,1002.22 273.5,1002.22 C273.6,1002.22 273.9,1002.12 274,1002.12 C274.1,1002.12 285.5,997.423 294.6,990.323 C299.7,986.623 304.3,982.623 308.3,978.323 C311.9,974.423 315,970.223 317.5,966.023 C321.9,958.523 324.4,950.723 324.4,944.023 C324.4,935.723 322.2,928.823 318.1,923.923 C313.4,918.323 306.3,915.423 297,915.423 M328.4,928.123 C328.4,930.923 330.6,933.123 333.2,933.123 C335.8,933.123 338,930.923 338,928.123 C338,925.323 335.8,923.023 333.2,923.023 C330.6,923.023 328.4,925.323 328.4,928.123 M328.4,952.823 C328.4,955.623 330.6,957.923 333.2,957.923 C335.8,957.923 338,955.623 338,952.823 C338,950.023 335.8,947.723 333.2,947.723 C330.6,947.723 328.4,950.023 328.4,952.823"/>
<path class="Clef" d="M335,722.109 C333.8,716.709 331.1,712.809 330.3,711.809 C327.1,707.509 323.1,704.709 318.4,703.309 C316.1,702.609 314,702.409 312,702.409 C311.3,702.409 310.6,702.409 309.9,702.509 C308.9,696.509 307.8,690.609 306.9,685.209 C312.5,679.009 316.2,673.109 318.6,668.709 C322.2,662.009 323.6,657.309 323.7,657.109 C324.9,654.109 325.6,650.309 325.6,645.809 C325.6,643.109 325.3,640.209 324.9,637.209 C323.8,630.109 321.6,623.409 319.1,619.709 C317.8,617.809 316.6,616.709 315.4,616.709 C314.2,616.709 311.7,617.909 308.8,620.709 C306.5,622.909 303.2,626.809 300.6,632.809 C298.3,638.209 297.6,645.109 297.6,651.009 C297.6,652.809 297.7,654.509 297.8,656.109 C298,659.709 298.7,665.509 299.3,669.109 C299.3,669.209 299.6,670.709 300,673.309 L299.3,674.009 C298.3,675.009 297.1,676.109 295.7,677.509 C294.8,678.409 293.9,679.209 292.9,680.209 C284.4,688.409 271.6,700.809 271.6,719.909 C271.6,724.609 272.5,729.009 274.3,733.009 C275.9,736.609 278.2,739.909 281.1,742.809 C288.6,750.209 298.8,753.409 305.9,753.409 L306.5,753.409 C309.4,753.309 312.1,753.009 314.5,752.609 C316.3,762.209 317.5,769.309 317.5,774.609 C317.5,781.109 315.9,785.009 312,787.809 C309.6,789.509 306.7,790.609 303.6,790.709 L302.8,790.709 C301.3,790.709 298.8,790.309 297.3,789.909 C297.3,789.909 297,789.809 297,789.609 C297,789.409 297.4,789.409 297.4,789.409 C299.3,789.009 302.9,787.709 305.3,784.409 C306.4,782.909 307.1,780.609 307.1,778.109 C307.1,776.509 306.8,774.809 306.1,773.309 C305,770.909 302.4,767.909 296.8,767.509 L295.7,767.509 C293.6,767.509 291.8,768.009 290.1,769.009 C288.3,770.109 286.7,771.809 285.7,773.809 C284.6,775.809 284.1,778.009 284.1,780.209 C284.1,783.109 285,785.809 286.8,788.009 C289.8,791.609 294.5,793.909 299.9,794.509 C300.6,794.609 301.7,794.709 302.4,794.709 C306.8,794.709 311.2,793.509 314.8,791.309 C318.5,788.709 320.6,784.709 321.3,779.109 C321.5,777.809 321.5,776.409 321.5,774.909 C321.5,771.009 321,766.309 320,760.509 C319.6,758.409 319.2,755.409 318.5,751.609 C324.3,749.709 328.4,746.009 332.2,740.209 C334.5,736.209 335.6,732.109 335.6,727.809 C335.6,725.909 335.4,724.009 335,722.109 M304.8,644.209 C306.6,638.509 309.3,635.109 311.3,633.409 C313.1,631.909 314.7,631.209 315.6,631.209 C315.7,631.209 315.9,631.309 316,631.309 C316.3,631.409 316.7,631.909 317.1,632.609 C318,634.409 318.9,637.709 318.9,641.409 C318.9,643.309 318.7,645.309 318.1,647.109 C315.9,653.909 311.3,661.209 304.3,668.909 C304.1,667.809 303.9,666.809 303.8,665.809 C303.3,662.609 303,659.409 303,656.509 C303,652.009 303.6,647.909 304.8,644.209 M300.8,748.309 C296.2,747.109 291.7,744.609 287.9,741.109 C286.6,739.909 284.8,737.709 283.3,734.309 C282,731.309 281.3,728.209 281.3,724.809 L281.3,724.109 C281.4,719.409 282.7,714.609 285.2,709.809 C288.1,704.209 292.6,698.709 298.7,693.409 C300.2,692.109 301.6,690.809 302.9,689.509 C303.7,693.809 304.4,698.509 305.3,703.409 C301.4,704.709 296.7,707.709 293.6,713.409 C291.2,717.909 290.5,721.809 290.5,725.009 C290.5,726.509 290.7,727.909 290.9,729.009 C291.8,733.509 294.4,737.209 297.9,739.309 C298.7,739.809 302,741.509 304,741.509 C304.3,741.509 304.6,741.509 304.8,741.409 C305.1,741.309 305.4,741.109 305.5,740.809 C305.6,740.609 305.6,740.409 305.6,740.209 C305.6,739.409 304.8,738.809 303.5,738.009 C302.9,737.609 302.2,737.209 301.5,736.709 C298.9,734.709 297.4,731.609 297.4,728.209 C297.4,727.209 297.6,726.309 297.8,725.309 C298.3,723.309 300,720.509 301.5,719.109 C303.2,717.609 305.2,716.409 307.6,715.809 C309.6,727.009 311.7,738.109 313.3,746.509 C313.4,747.209 313.6,747.909 313.7,748.609 C311.7,749.009 309.7,749.209 307.8,749.209 C305.4,749.209 303.1,748.909 300.8,748.309 M326.5,738.109 C325.3,741.309 322.8,745.309 317.7,747.409 C317.6,747.009 317.6,746.509 317.5,746.109 C316,737.309 314.1,726.409 312.1,715.109 L313.1,715.109 C322.8,715.109 326.7,722.309 327.6,726.909 C327.8,727.809 327.9,729.009 327.9,730.309 C327.9,732.609 327.5,735.409 326.5,738.109"/>
<path class="TimeSig" d="M365.2,953.922 L382,953.922 L382,961.222 L373.9,961.222 C373.1,961.222 372.5,961.822 372.5,962.622 L372.5,964.522 C372.5,965.322 373.1,965.822 373.9,965.822 L403.6,965.822 C404.4,965.822 405,965.322 405,964.522 L405,962.622 C405,961.822 404.4,961.222 403.6,961.222 L394.8,961.222 L394.8,953.922 L403.6,953.922 C404.4,953.922 405,953.322 405,952.522 L405,950.722 C405,949.922 404.4,949.322 403.6,949.322 L394.8,949.322 L394.8,933.622 C394.8,933.122 394.4,932.622 394,932.422 L392.9,931.822 C392.7,931.722 392.4,931.722 392.2,931.722 C391.9,931.722 391.5,931.822 391.3,932.022 L382.4,940.222 C382.2,940.422 382,940.922 382,941.222 L382,949.322 L370.7,949.322 C370.7,949.322 381.6,937.522 393.2,922.022 C394,920.922 393.6,919.922 393.4,919.722 L391.3,917.522 C391.1,917.322 390.6,917.122 390.3,917.122 L375.7,917.122 C375,917.122 374.5,917.722 374.4,918.322 C374.4,918.322 373.9,925.522 371.3,933.522 C368.7,941.522 365.9,946.322 363.3,949.922 C363.3,949.922 362.8,950.922 363.1,951.622 C363.4,952.322 364.1,953.422 364.1,953.422 C364.1,953.422 364.4,953.922 365.2,953.922"/>
<path class="TimeSig" d="M365.2,1002.53 L382,1002.53 L382,1009.83 L373.9,1009.83 C373.1,1009.83 372.5,1010.43 372.5,1011.23 L372.5,1013.13 C372.5,1013.93 373.1,1014.43 373.9,1014.43 L403.6,1014.43 C404.4,1014.43 405,1013.93 405,1013.13 L405,1011.23 C405,1010.43 404.4,1009.83 403.6,1009.83 L394.8,1009.83 L394.8,1002.53 L403.6,1002.53 C404.4,1002.53 405,1001.93 405,1001.13 L405,999.327 C405,998.527 404.4,997.927 403.6,997.927 L394.8,997.927 L394.8,982.227 C394.8,981.727 394.4,981.227 394,981.027 L392.9,980.427 C392.7,980.327 392.4,980.327 392.2,980.327 C391.9,980.327 391.5,980.427 391.3,980.627 L382.4,988.827 C382.2,989.027 382,989.527 382,989.827 L382,997.927 L370.7,997.927 C370.7,997.927 381.6,986.127 393.2,970.627 C394,969.527 393.6,968.527 393.4,968.327 L391.3,966.127 C391.1,965.927 390.6,965.727 390.3,965.727 L375.7,965.727 C375,965.727 374.5,966.327 374.4,966.927 C374.4,966.927 373.9,974.127 371.3,982.127 C368.7,990.127 365.9,994.927 363.3,998.527 C363.3,998.527 362.8,999.527 363.1,1000.23 C363.4,1000.93 364.1,1002.03 364.1,1002.03 C364.1,1002.03 364.4,1002.53 365.2,1002.53"/>
<path class="TimeSig" d="M365.2,691.406 L382,691.406 L382,698.706 L373.9,698.706 C373.1,698.706 372.5,699.306 372.5,700.106 L372.5,702.006 C372.5,702.806 373.1,703.306 373.9,703.306 L403.6,703.306 C404.4,703.306 405,702.806 405,702.006 L405,700.106 C405,699.306 404.4,698.706 403.6,698.706 L394.8,698.706 L394.8,691.406 L403.6,691.406 C404.4,691.406 405,690.806 405,690.006 L405,688.206 C405,687.406 404.4,686.806 403.6,686.806 L394.8,686.806 L394.8,671.106 C394.8,670.606 394.4,670.106 394,669.906 L392.9,669.306 C392.7,669.206 392.4,669.206 392.2,669.206 C391.9,669.206 391.5,669.306 391.3,669.506 L382.4,677.706 C382.2,677.906 382,678.406 382,678.706 L382,686.806 L370.7,686.806 C370.7,686.806 381.6,675.006 393.2,659.506 C394,658.406 393.6,657.406 393.4,657.206 L391.3,655.006 C391.1,654.806 390.6,654.606 390.3,654.606 L375.7,654.606 C375,654.606 374.5,655.206 374.4,655.806 C374.4,655.806 373.9,663.006 371.3,671.006 C368.7,679.006 365.9,683.806 363.3,687.406 C363.3,687.406 362.8,688.406 363.1,689.106 C363.4,689.806 364.1,690.906 364.1,690.906 C364.1,690.906 364.4,691.406 365.2,691.406"/>
<path class="TimeSig" d="M365.2,740.01 L382,740.01 L382,747.31 L373.9,747.31 C373.1,747.31 372.5,747.91 372.5,748.71 L372.5,750.61 C372.5,751.41 373.1,751.91 373.9,751.91 L403.6,751.91 C404.4,751.91 405,751.41 405,750.61 L405,748.71 C405,747.91 404.4,747.31 403.6,747.31 L394.8,747.31 L394.8,740.01 L403.6,740.01 C404.4,740.01 405,739.41 405,738.61 L405,736.81 C405,736.01 404.4,735.41 403.6,735.41 L394.8,735.41 L394.8,719.71 C394.8,719.21 394.4,718.71 394,718.51 L392.9,717.91 C392.7,717.81 392.4,717.81 392.2,717.81 C391.9,717.81 391.5,717.91 391.3,718.11 L382.4,726.31 C382.2,726.51 382,727.01 382,727.31 L382,735.41 L370.7,735.41 C370.7,735.41 381.6,723.61 393.2,708.11 C394,707.01 393.6,706.01 393.4,705.81 L391.3,703.61 C391.1,703.41 390.6,703.21 390.3,703.21 L375.7,703.21 C375,703.21 374.5,703.81 374.4,704.41 C374.4,704.41 373.9,711.61 371.3,719.61 C368.7,727.61 365.9,732.41 363.3,736.01 C363.3,736.01 362.8,737.01 363.1,737.71 C363.4,738.41 364.1,739.51 364.1,739.51 C364.1,739.51 364.4,740.01 365.2,740.01"/>
<path class="Page" d="M226.289,4049.51 C230.384,4048.02 232.274,4045.73 232.274,4042.13 C232.274,4037.4 228.674,4034.39 223.094,4034.39 C217.829,4034.39 213.824,4037.49 213.824,4041.59 C213.824,4043.43 215.039,4044.74 216.794,4044.74 C218.369,4044.74 219.449,4043.66 219.449,4042.04 C219.449,4041.05 219.089,4040.46 218.054,4039.74 C217.604,4039.43 217.469,4039.25 217.469,4038.93 C217.469,4037.67 220.079,4036.32 222.644,4036.32 C225.884,4036.32 227.594,4038.35 227.594,4042.17 C227.594,4046.36 225.884,4048.56 222.689,4048.56 C222.284,4048.56 221.519,4048.52 220.844,4048.47 C220.484,4048.43 220.124,4048.43 219.854,4048.43 C218.909,4048.43 218.414,4048.83 218.414,4049.64 C218.414,4050.41 218.864,4050.77 219.854,4050.77 C220.124,4050.77 220.484,4050.77 220.889,4050.72 C221.789,4050.68 222.509,4050.68 223.004,4050.68 C226.334,4050.68 228.134,4053.06 228.134,4057.52 C228.134,4062.2 225.884,4064.81 221.834,4064.81 C218.999,4064.81 215.939,4063.28 215.939,4061.88 C215.939,4061.48 216.029,4061.39 216.884,4060.89 C218.144,4060.13 218.639,4059.36 218.639,4058.24 C218.639,4056.62 217.424,4055.4 215.804,4055.4 C213.869,4055.4 212.609,4056.98 212.609,4059.36 C212.609,4063.73 216.614,4066.74 222.374,4066.74 C228.899,4066.74 233.129,4063.14 233.129,4057.61 C233.129,4053.38 230.969,4050.81 226.289,4049.51 M243.114,4039.47 C245.544,4040.06 246.759,4040.24 248.559,4040.24 C252.384,4040.24 255.174,4038.93 256.659,4036.41 C257.154,4035.6 257.334,4035.15 257.334,4034.79 C257.334,4034.52 257.244,4034.39 256.974,4034.39 C256.839,4034.39 256.659,4034.43 256.389,4034.57 C254.184,4035.51 253.014,4035.74 250.404,4035.74 C247.524,4035.74 245.724,4035.47 241.134,4034.39 C240.954,4038.17 240.549,4042.98 239.919,4048.56 C238.974,4049.55 238.659,4050.14 238.659,4050.86 C238.659,4051.8 239.244,4052.39 240.099,4052.39 C241.269,4052.39 241.944,4051.44 242.124,4049.64 C243.699,4048.52 245.184,4048.02 246.984,4048.02 C251.034,4048.02 253.419,4051.08 253.419,4056.26 C253.419,4059.27 252.654,4061.84 251.304,4063.23 C250.404,4064.18 248.559,4064.81 246.714,4064.81 C244.014,4064.81 241.224,4063.41 241.224,4062.02 C241.224,4061.7 241.494,4061.34 242.034,4061.03 C243.429,4060.17 243.834,4059.59 243.834,4058.37 C243.834,4056.8 242.619,4055.58 240.999,4055.58 C239.199,4055.58 237.759,4057.25 237.759,4059.36 C237.759,4061.61 239.064,4063.86 241.089,4065.26 C242.619,4066.25 244.419,4066.74 246.804,4066.74 C253.869,4066.74 258.324,4062.6 258.324,4055.99 C258.324,4049.87 254.274,4045.77 248.154,4045.77 C246.219,4045.77 244.824,4046.09 242.349,4047.12 L243.114,4039.47 "/>
<path class="Bracket" transform="matrix(3.62523,0,0,3.62523,214.469,1015.53)" d="M0.92002,-50 C2.69004,-51.88 6.2,-55.8 6.2,-63 C6.2,-72.1 2.25996,-81.32 2.25996,-86.97 C2.25996,-93.06 5.84004,-98.84 5.95,-99 C6.05996,-99.16 6.05,-99.39 5.94004,-99.46 C5.82998,-99.53 5.62002,-99.47 5.49004,-99.32 C5.35996,-99.17 0,-93.75 0,-85.6 C0,-76.75 3.5,-70.58 3.5,-59.07 C3.5,-56.89 2.55996,-53.36 0.1,-50.33 C-0.0799805,-50.17 -0.1,-49.89 0.0599609,-49.7 L0.0700195,-49.69 L0.1,-49.66 C2.55996,-46.63 3.5,-43.1 3.5,-40.92 C3.5,-29.4 0,-23.24 0,-14.39 C0,-6.25 5.35996,-0.8 5.49004,-0.659961 C5.62002,-0.52002 5.8,-0.42998 5.94004,-0.52002 C6.07998,-0.609961 6.07998,-0.77998 5.95,-0.97998 C5.82002,-1.17998 2.25996,-6.92002 2.25996,-13.01 C2.25996,-18.66 6.2,-27.9 6.2,-37 C6.2,-44.3 2.69004,-48.12 0.92002,-50"/>
</svg>
