<?xml version="1.0" encoding="UTF-8" standalone="no"?>
<svg width="2977.23px" height="4208.47px" viewBox="0 0 2977.23 4208.47"
 xmlns="http://www.w3.org/2000/svg" xmlns:xlink="http://www.w3.org/1999/xlink" version="1.2" baseProfile="tiny">
<title>exercises_scores (14)</title>
<desc>Generated by MuseScore 3.6.0</desc>
<polyline class="StaffLines" fill="none" stroke="#000000" stroke-width="2.75" stroke-linejoin="bevel" points="247.099,659.598 2764.63,659.598"/>
<polyline class="StaffLines" fill="none" stroke="#000000" stroke-width="2.75" stroke-linejoin="bevel" points="247.099,684.6 2764.63,684.6"/>
<polyline class="StaffLines" fill="none" stroke="#000000" stroke-width="2.75" stroke-linejoin="bevel" points="247.099,709.602 2764.63,709.602"/>
<polyline class="StaffLines" fill="none" stroke="#000000" stroke-width="2.75" stroke-linejoin="bevel" points="247.099,734.603 2764.63,734.603"/>
<polyline class="StaffLines" fill="none" stroke="#000000" stroke-width="2.75" stroke-linejoin="bevel" points="247.099,759.605 2764.63,759.605"/>
<polyline class="StaffLines" fill="none" stroke="#000000" stroke-width="2.75" stroke-linejoin="bevel" points="247.099,922.115 2764.63,922.115"/>
<polyline class="StaffLines" fill="none" stroke="#000000" stroke-width="2.75" stroke-linejoin="bevel" points="247.099,947.117 2764.63,947.117"/>
<polyline class="StaffLines" fill="none" stroke="#000000" stroke-width="2.75" stroke-linejoin="bevel" points="247.099,972.118 2764.63,972.118"/>
<polyline class="StaffLines" fill="none" stroke="#000000" stroke-width="2.75" stroke-linejoin="bevel" points="247.099,997.12 2764.63,997.12"/>
<polyline class="StaffLines" fill="none" stroke="#000000" stroke-width="2.75" stroke-linejoin="bevel" points="247.099,1022.12 2764.63,1022.12"/>
<polyline class="StaffLines" fill="none" stroke="#000000" stroke-width="2.75" stroke-linejoin="bevel" points="247.099,1272.14 2764.63,1272.14"/>
<polyline class="StaffLines" fill="none" stroke="#000000" stroke-width="2.75" stroke-linejoin="bevel" points="247.099,1297.14 2764.63,1297.14"/>
<polyline class="StaffLines" fill="none" stroke="#000000" stroke-width="2.75" stroke-linejoin="bevel" points="247.099,1322.14 2764.63,1322.14"/>
<polyline class="StaffLines" fill="none" stroke="#000000" stroke-width="2.75" stroke-linejoin="bevel" points="247.099,1347.14 2764.63,1347.14"/>
<polyline class="StaffLines" fill="none" stroke="#000000" stroke-width="2.75" stroke-linejoin="bevel" points="247.099,1372.14 2764.63,1372.14"/>
<polyline class="StaffLines" fill="none" stroke="#000000" stroke-width="2.75" stroke-linejoin="bevel" points="247.099,1534.65 2764.63,1534.65"/>
<polyline class="StaffLines" fill="none" stroke="#000000" stroke-width="2.75" stroke-linejoin="bevel" points="247.099,1559.66 2764.63,1559.66"/>
<polyline class="StaffLines" fill="none" stroke="#000000" stroke-width="2.75" stroke-linejoin="bevel" points="247.099,1584.66 2764.63,1584.66"/>
<polyline class="StaffLines" fill="none" stroke="#000000" stroke-width="2.75" stroke-linejoin="bevel" points="247.099,1609.66 2764.63,1609.66"/>
<polyline class="StaffLines" fill="none" stroke="#000000" stroke-width="2.75" stroke-linejoin="bevel" points="247.099,1634.66 2764.63,1634.66"/>
<path class="Text" d="M242.312,216.2 L240.092,216.2 L237.692,219.8 C234.812,217.1 231.032,215.66 226.772,215.66 C218.852,215.66 213.632,220.64 213.632,228.2 C213.632,234.74 216.872,237.98 225.692,240.26 L231.392,241.7 C235.832,242.84 236.252,242.96 237.512,243.92 C239.312,245.3 240.272,247.28 240.272,249.62 C240.272,252.02 239.372,254 237.572,255.68 C235.592,257.36 233.612,258.02 230.312,258.02 C225.872,258.02 222.692,256.64 219.872,253.52 C217.352,250.76 216.092,247.88 215.192,243.26 L212.612,243.26 L212.852,260.36 L215.192,260.36 L217.892,256.28 C221.912,259.58 225.212,260.78 230.492,260.78 C239.312,260.78 244.952,255.62 244.952,247.58 C244.952,243.8 243.752,240.68 241.352,238.4 C239.732,236.84 237.392,235.82 232.592,234.62 L226.172,233 C220.832,231.62 218.312,229.28 218.312,225.62 C218.312,221.42 221.732,218.54 226.832,218.54 C231.032,218.54 234.452,220.34 236.852,223.76 C238.592,226.22 239.732,228.74 240.452,231.8 L243.032,231.8 L242.312,216.2 M271.162,251.06 C269.242,255.38 267.202,257.12 264.082,257.12 C259.282,257.12 256.282,252.74 256.282,245.72 C256.282,238.4 259.222,233.6 263.662,233.6 C265.462,233.6 267.022,234.44 267.022,235.4 C267.022,235.58 266.962,235.76 266.662,236.12 C265.702,237.26 265.462,237.86 265.462,238.88 C265.462,240.86 266.962,242.24 269.062,242.24 C271.222,242.24 272.722,240.56 272.722,238.16 C272.722,234.08 268.702,231.02 263.362,231.02 C255.562,231.02 249.982,237.38 249.982,246.38 C249.982,254.9 255.082,260.78 262.522,260.78 C267.862,260.78 270.922,258.32 273.502,251.96 L271.162,251.06 M301.75,240.56 C301.75,236.78 301.09,234.86 299.35,233.42 C297.37,231.8 294.43,231.02 290.59,231.02 C283.81,231.02 278.89,234.2 278.89,238.58 C278.89,240.8 280.27,242.24 282.37,242.24 C284.29,242.24 285.61,240.98 285.61,239.18 C285.61,238.4 285.31,237.56 284.71,236.72 C284.35,236.3 284.29,236.18 284.29,235.88 C284.29,234.68 286.69,233.6 289.57,233.6 C291.49,233.6 293.59,234.2 294.55,235.1 C295.69,236.06 296.11,237.5 296.11,240.2 L296.11,242.54 C289.87,243.62 287.89,244.1 284.95,245.24 C279.73,247.16 277.27,249.92 277.27,253.76 C277.27,258.08 280.63,260.78 285.97,260.78 C290.11,260.78 293.83,259.1 296.41,256.04 C297.37,259.1 298.87,260.3 301.69,260.3 C304.39,260.3 307.21,258.56 307.21,256.82 C307.21,256.4 306.97,256.1 306.61,256.1 C306.37,256.1 306.13,256.16 305.71,256.34 C304.87,256.7 304.51,256.76 304.03,256.76 C302.35,256.76 301.75,255.68 301.75,252.62 L301.75,240.56 M296.11,247.88 C296.11,251.48 295.93,252.32 294.91,253.88 C293.41,256.1 290.71,257.6 288.07,257.6 C285.31,257.6 283.33,255.62 283.33,252.92 C283.33,250.4 284.59,248.6 287.23,247.34 C289.09,246.5 291.43,245.9 296.11,245.12 L296.11,247.88 M320.229,215.66 L309.129,216.32 L309.129,218.9 L312.069,218.9 C314.289,218.96 314.589,219.32 314.589,221.9 L314.589,252.5 L314.589,255.32 C314.529,256.22 314.469,256.58 314.229,256.88 C313.809,257.42 312.669,257.66 310.089,257.72 L309.669,257.72 L309.669,259.88 L325.209,259.88 L325.209,257.72 L324.789,257.72 C320.769,257.6 320.229,257.3 320.229,255.14 L320.229,252.5 L320.229,215.66 M354.78,246.38 C354.84,237.38 349.74,231.02 342.42,231.02 C334.74,231.02 328.98,237.68 328.98,246.68 C328.98,255.14 334.44,260.78 342.54,260.78 C348.3,260.78 352.32,257.96 354.78,252.26 L352.68,251.12 C350.22,255.74 347.7,257.54 343.68,257.54 C340.62,257.54 338.4,256.28 336.84,253.58 C335.76,251.78 335.28,249.68 335.34,246.38 L354.78,246.38 M335.4,243.8 C335.4,241.94 335.64,240.62 336.24,238.94 C337.5,235.34 339.42,233.6 342.36,233.6 C345.96,233.6 348.36,236.78 348.36,241.64 C348.36,243.32 347.82,243.8 345.9,243.8 L335.4,243.8 M366.601,253.22 C364.501,253.22 362.821,254.9 362.821,256.94 C362.821,259.04 364.501,260.72 366.541,260.72 C368.641,260.72 370.321,259.04 370.321,256.94 C370.321,254.9 368.641,253.22 366.601,253.22 M366.601,231.5 C364.501,231.5 362.821,233.18 362.821,235.28 C362.821,237.32 364.501,239 366.541,239 C368.641,239 370.321,237.32 370.321,235.22 C370.321,233.18 368.641,231.5 366.601,231.5 M392.805,216.56 L392.805,219.38 L393.885,219.38 C397.305,219.44 398.445,219.62 398.925,220.22 C399.285,220.76 399.285,220.88 399.285,223.94 L399.285,252.5 C399.285,255.56 399.285,255.68 398.925,256.22 C398.445,256.82 397.305,257.06 393.885,257.06 L392.805,257.06 L392.805,259.88 L414.585,259.88 C424.965,259.88 431.205,255.5 431.205,248.12 C431.205,242.12 427.425,238.7 419.205,237.26 C422.085,236.66 423.405,236.12 424.965,234.98 C427.425,233.12 428.925,230.18 428.925,227.18 C428.925,223.28 426.525,219.5 423.045,218 C420.885,217.04 417.885,216.56 414.345,216.56 L392.805,216.56 M406.005,236.06 L406.005,222.38 C406.005,220.04 406.785,219.44 409.965,219.38 L412.365,219.38 C415.125,219.38 417.405,219.86 418.665,220.64 C420.825,221.96 421.965,224.48 421.965,227.84 C421.965,233.78 419.085,236.06 411.345,236.06 L406.005,236.06 M406.005,238.88 L411.285,238.88 C420.465,238.88 423.825,241.34 423.825,247.94 C423.825,251.78 422.505,254.54 420.165,255.68 C418.305,256.64 415.785,257.06 412.005,257.06 L409.485,257.06 C406.485,257.06 405.885,256.46 406.005,253.28 L406.005,238.88 M454.237,242.18 C453.757,239.06 451.909,236.18 447.829,236.18 C443.749,236.18 441.595,238.622 441.199,239.096 L441.469,213.71 C441.469,213.706 441.469,213.701 441.469,213.698 C441.469,213.092 440.977,212.6 440.371,212.6 L440.371,212.6 L439.435,212.6 C439.183,212.601 438.834,212.746 438.655,212.924 C438.48,213.098 438.337,213.441 438.337,213.689 C438.337,213.695 438.337,213.704 438.337,213.71 L438.763,261.314 C438.77,261.913 439.262,262.4 439.861,262.4 L439.861,262.4 C440.055,262.399 440.34,262.308 440.497,262.196 C440.809,262.046 445.885,259.55 450.193,254.702 C453.871,250.568 454.837,245.72 454.237,242.18 M448.807,245.324 C448.801,246.482 448.513,250.166 446.509,253.166 C445.135,255.224 442.501,257.396 440.989,258.554 L441.157,243.104 C441.337,242.36 442.531,240.086 445.711,240.098 C449.185,240.11 448.807,244.166 448.807,245.324 M487.049,231.92 L476.369,232.58 L476.369,235.16 L478.829,235.16 C481.109,235.22 481.409,235.58 481.409,238.16 L481.409,252.5 L481.409,254.84 L481.409,255.32 C481.349,256.22 481.289,256.58 481.049,256.88 C480.629,257.42 479.489,257.66 476.909,257.72 L476.669,257.72 L476.669,259.88 L491.789,259.88 L491.789,257.72 L491.549,257.72 C487.589,257.6 487.049,257.3 487.049,255.08 L487.049,252.5 L487.049,243.98 C487.049,238.64 489.989,234.68 493.889,234.68 C497.309,234.68 499.049,237.14 499.049,242 L499.049,252.5 L499.049,255.38 C498.989,256.16 498.929,256.58 498.629,256.88 C498.269,257.42 497.069,257.66 494.489,257.72 L494.249,257.72 L494.249,259.88 L509.429,259.88 L509.429,257.72 L509.189,257.72 C505.229,257.6 504.689,257.3 504.689,255.14 L504.689,252.5 L504.689,244.52 C504.689,238.52 507.389,234.68 511.589,234.68 C515.009,234.68 516.689,237.26 516.689,242.66 L516.689,252.5 L516.689,255.32 C516.629,256.16 516.569,256.58 516.269,256.88 C515.909,257.42 514.709,257.66 512.129,257.72 L511.889,257.72 L511.889,259.88 L527.069,259.88 L527.069,257.72 L526.829,257.72 C522.869,257.6 522.329,257.3 522.329,255.08 L522.329,252.5 L522.329,241.46 C522.329,237.74 521.969,236.48 520.409,234.44 C518.669,232.22 516.209,231.02 513.329,231.02 C509.429,231.02 506.549,232.88 503.969,237.02 C502.949,233.42 499.709,231.02 495.689,231.02 C492.029,231.02 489.389,232.76 487.049,236.54 L487.049,231.92 M555.437,240.56 C555.437,236.78 554.777,234.86 553.037,233.42 C551.057,231.8 548.117,231.02 544.277,231.02 C537.497,231.02 532.577,234.2 532.577,238.58 C532.577,240.8 533.957,242.24 536.057,242.24 C537.977,242.24 539.297,240.98 539.297,239.18 C539.297,238.4 538.997,237.56 538.397,236.72 C538.037,236.3 537.977,236.18 537.977,235.88 C537.977,234.68 540.377,233.6 543.257,233.6 C545.177,233.6 547.277,234.2 548.237,235.1 C549.377,236.06 549.797,237.5 549.797,240.2 L549.797,242.54 C543.557,243.62 541.577,244.1 538.637,245.24 C533.417,247.16 530.957,249.92 530.957,253.76 C530.957,258.08 534.317,260.78 539.657,260.78 C543.797,260.78 547.517,259.1 550.097,256.04 C551.057,259.1 552.557,260.3 555.377,260.3 C558.077,260.3 560.897,258.56 560.897,256.82 C560.897,256.4 560.657,256.1 560.297,256.1 C560.057,256.1 559.817,256.16 559.397,256.34 C558.557,256.7 558.197,256.76 557.717,256.76 C556.037,256.76 555.437,255.68 555.437,252.62 L555.437,240.56 M549.797,247.88 C549.797,251.48 549.617,252.32 548.597,253.88 C547.097,256.1 544.397,257.6 541.757,257.6 C538.997,257.6 537.017,255.62 537.017,252.92 C537.017,250.4 538.277,248.6 540.917,247.34 C542.777,246.5 545.117,245.9 549.797,245.12 L549.797,247.88 M572.362,231.92 L560.662,232.58 L560.662,235.16 L564.142,235.16 C566.422,235.22 566.722,235.58 566.722,238.16 L566.722,258.5 C566.722,263.36 566.422,265.64 565.582,267.38 C564.982,268.58 563.602,269.48 562.282,269.48 C561.442,269.48 560.782,269.12 560.782,268.7 C560.782,268.46 560.842,268.34 561.082,267.74 C561.382,267.14 561.502,266.72 561.502,266.3 C561.502,264.8 560.062,263.48 558.382,263.48 C556.462,263.48 555.022,264.98 555.022,267.08 C555.022,270.02 557.722,272 561.742,272 C565.102,272 568.162,270.56 569.902,268.1 C571.762,265.46 572.362,262.4 572.362,255.62 L572.362,231.92 M569.542,216.98 C567.622,216.98 566.062,218.54 566.062,220.46 C566.062,222.38 567.622,223.94 569.482,223.94 C571.462,223.94 573.022,222.38 573.022,220.46 C573.022,218.54 571.462,216.98 569.542,216.98 M592.812,231.02 C585.432,231.02 579.732,237.56 579.732,245.96 C579.732,254.18 585.492,260.78 592.692,260.78 C599.892,260.78 605.652,254.18 605.652,245.9 C605.652,237.68 599.892,231.02 592.812,231.02 M592.812,233.6 C597.012,233.6 599.352,237.98 599.352,245.9 C599.352,253.88 597.012,258.2 592.692,258.2 C588.372,258.2 586.032,253.88 586.032,245.96 C586.032,237.8 588.312,233.6 592.812,233.6 M619.572,231.92 L608.952,232.58 L608.952,235.16 L611.412,235.16 C613.692,235.22 613.992,235.58 613.992,238.16 L613.992,252.5 L613.992,255.32 C613.932,256.22 613.872,256.58 613.632,256.88 C613.212,257.42 612.012,257.66 609.432,257.72 L609.192,257.72 L609.192,259.88 L625.212,259.88 L625.212,257.72 L624.132,257.72 C620.112,257.6 619.572,257.3 619.572,255.14 L619.572,252.5 L619.572,251.9 C619.632,241.82 623.232,234.14 627.912,233.9 C627.072,234.86 626.832,235.46 626.832,236.6 C626.832,238.52 628.212,239.9 630.132,239.9 C632.352,239.9 633.792,238.28 633.792,235.88 C633.792,232.94 631.752,231.02 628.572,231.02 C624.792,231.02 621.552,234.02 619.572,239.36 L619.572,231.92 "/>
<polyline class="BarLine" fill="none" stroke="#000000" stroke-width="4.50" stroke-linejoin="bevel" points="249.349,920.74 249.349,1023.5"/>
<polyline class="BarLine" fill="none" stroke="#000000" stroke-width="4.50" stroke-linejoin="bevel" points="1039.79,920.74 1039.79,1023.5"/>
<polyline class="BarLine" fill="none" stroke="#000000" stroke-width="4.50" stroke-linejoin="bevel" points="1592.54,920.74 1592.54,1023.5"/>
<polyline class="BarLine" fill="none" stroke="#000000" stroke-width="4.50" stroke-linejoin="bevel" points="2228.23,920.74 2228.23,1023.5"/>
<polyline class="BarLine" fill="none" stroke="#000000" stroke-width="4.50" stroke-linejoin="bevel" points="2762.38,920.74 2762.38,1023.5"/>
<polyline class="BarLine" fill="none" stroke="#000000" stroke-width="4.50" stroke-linejoin="bevel" points="249.349,1533.28 249.349,1636.04"/>
<polyline class="BarLine" fill="none" stroke="#000000" stroke-width="4.50" stroke-linejoin="bevel" points="952.177,1533.28 952.177,1636.04"/>
<polyline class="BarLine" fill="none" stroke="#000000" stroke-width="4.50" stroke-linejoin="bevel" points="1567.66,1533.28 1567.66,1636.04"/>
<polyline class="BarLine" fill="none" stroke="#000000" stroke-width="4.50" stroke-linejoin="bevel" points="2202.86,1533.28 2202.86,1636.04"/>
<polyline class="BarLine" fill="none" stroke="#000000" stroke-width="4.50" stroke-linejoin="bevel" points="2734.88,1533.28 2734.88,1636.04"/>
<polyline class="BarLine" fill="none" stroke="#000000" stroke-width="13.75" stroke-linejoin="bevel" points="2757.76,1533.28 2757.76,1636.04"/>
<polyline class="BarLine" fill="none" stroke="#000000" stroke-width="4.50" stroke-linejoin="bevel" points="249.349,658.223 249.349,922.115"/>
<polyline class="BarLine" fill="none" stroke="#000000" stroke-width="4.50" stroke-linejoin="bevel" points="1039.79,658.223 1039.79,922.115"/>
<polyline class="BarLine" fill="none" stroke="#000000" stroke-width="4.50" stroke-linejoin="bevel" points="1592.54,658.223 1592.54,922.115"/>
<polyline class="BarLine" fill="none" stroke="#000000" stroke-width="4.50" stroke-linejoin="bevel" points="2228.23,658.223 2228.23,922.115"/>
<polyline class="BarLine" fill="none" stroke="#000000" stroke-width="4.50" stroke-linejoin="bevel" points="2762.38,658.223 2762.38,922.115"/>
<polyline class="BarLine" fill="none" stroke="#000000" stroke-width="4.50" stroke-linejoin="bevel" points="249.349,1270.76 249.349,1534.65"/>
<polyline class="BarLine" fill="none" stroke="#000000" stroke-width="4.50" stroke-linejoin="bevel" points="952.177,1270.76 952.177,1534.65"/>
<polyline class="BarLine" fill="none" stroke="#000000" stroke-width="4.50" stroke-linejoin="bevel" points="1567.66,1270.76 1567.66,1534.65"/>
<polyline class="BarLine" fill="none" stroke="#000000" stroke-width="4.50" stroke-linejoin="bevel" points="2202.86,1270.76 2202.86,1534.65"/>
<polyline class="BarLine" fill="none" stroke="#000000" stroke-width="4.50" stroke-linejoin="bevel" points="2734.88,1270.76 2734.88,1534.65"/>
<polyline class="BarLine" fill="none" stroke="#000000" stroke-width="13.75" stroke-linejoin="bevel" points="2757.76,1270.76 2757.76,1534.65"/>
<path class="Accidental" d="M483.853,989.22 C483.253,985.32 480.853,981.62 475.753,981.62 C470.753,981.62 467.853,984.72 467.353,985.32 L467.753,953.22 C467.753,952.42 467.153,951.82 466.353,951.82 L465.153,951.82 C464.353,951.82 463.753,952.42 463.753,953.22 L464.253,1013.32 C464.253,1014.12 464.853,1014.72 465.653,1014.72 C465.853,1014.72 466.253,1014.62 466.453,1014.52 C466.853,1014.32 473.353,1011.12 478.753,1005.02 C482.553,1000.72 484.053,995.82 484.053,991.72 C484.053,990.82 483.953,990.02 483.853,989.22 M476.953,993.12 C476.953,994.62 476.553,999.22 474.053,1003.02 C472.353,1005.62 468.953,1008.32 467.053,1009.82 L467.353,990.32 C467.553,989.42 469.053,986.52 473.053,986.52 C476.653,986.52 476.953,989.92 476.953,992.02 L476.953,993.12 "/>
<path class="Accidental" d="M894.285,951.717 C893.685,947.817 891.285,944.117 886.185,944.117 C881.185,944.117 878.285,947.217 877.785,947.817 L878.185,915.717 C878.185,914.917 877.585,914.317 876.785,914.317 L875.585,914.317 C874.785,914.317 874.185,914.917 874.185,915.717 L874.685,975.817 C874.685,976.617 875.285,977.217 876.085,977.217 C876.285,977.217 876.685,977.117 876.885,977.017 C877.285,976.817 883.785,973.617 889.185,967.517 C892.985,963.217 894.485,958.317 894.485,954.217 C894.485,953.317 894.385,952.517 894.285,951.717 M887.385,955.617 C887.385,957.117 886.985,961.717 884.485,965.517 C882.785,968.117 879.385,970.817 877.485,972.317 L877.785,952.817 C877.985,951.917 879.485,949.017 883.485,949.017 C887.085,949.017 887.385,952.417 887.385,954.517 L887.385,955.617 "/>
<path class="Accidental" d="M1454.9,901.714 C1454.3,897.814 1451.9,894.114 1446.8,894.114 C1441.8,894.114 1438.9,897.214 1438.4,897.814 L1438.8,865.714 C1438.8,864.914 1438.2,864.314 1437.4,864.314 L1436.2,864.314 C1435.4,864.314 1434.8,864.914 1434.8,865.714 L1435.3,925.814 C1435.3,926.614 1435.9,927.214 1436.7,927.214 C1436.9,927.214 1437.3,927.114 1437.5,927.014 C1437.9,926.814 1444.4,923.614 1449.8,917.514 C1453.6,913.214 1455.1,908.314 1455.1,904.214 C1455.1,903.314 1455,902.514 1454.9,901.714 M1448,905.614 C1448,907.114 1447.6,911.714 1445.1,915.514 C1443.4,918.114 1440,920.814 1438.1,922.314 L1438.4,902.814 C1438.6,901.914 1440.1,899.014 1444.1,899.014 C1447.7,899.014 1448,902.414 1448,904.514 L1448,905.614 "/>
<path class="Accidental" d="M1956.41,1014.22 C1955.81,1010.32 1953.41,1006.62 1948.31,1006.62 C1943.31,1006.62 1940.41,1009.72 1939.91,1010.32 L1940.31,978.221 C1940.31,977.421 1939.71,976.821 1938.91,976.821 L1937.71,976.821 C1936.91,976.821 1936.31,977.421 1936.31,978.221 L1936.81,1038.32 C1936.81,1039.12 1937.41,1039.72 1938.21,1039.72 C1938.41,1039.72 1938.81,1039.62 1939.01,1039.52 C1939.41,1039.32 1945.91,1036.12 1951.31,1030.02 C1955.11,1025.72 1956.61,1020.82 1956.61,1016.72 C1956.61,1015.82 1956.51,1015.02 1956.41,1014.22 M1949.51,1018.12 C1949.51,1019.62 1949.11,1024.22 1946.61,1028.02 C1944.91,1030.62 1941.51,1033.32 1939.61,1034.82 L1939.91,1015.32 C1940.11,1014.42 1941.61,1011.52 1945.61,1011.52 C1949.21,1011.52 1949.51,1014.92 1949.51,1017.02 L1949.51,1018.12 "/>
<path class="Accidental" d="M2532.73,964.218 C2532.13,960.318 2529.73,956.618 2524.63,956.618 C2519.63,956.618 2516.73,959.718 2516.23,960.318 L2516.63,928.218 C2516.63,927.418 2516.03,926.818 2515.23,926.818 L2514.03,926.818 C2513.23,926.818 2512.63,927.418 2512.63,928.218 L2513.13,988.318 C2513.13,989.118 2513.73,989.718 2514.53,989.718 C2514.73,989.718 2515.13,989.618 2515.33,989.518 C2515.73,989.318 2522.23,986.118 2527.63,980.018 C2531.43,975.718 2532.93,970.818 2532.93,966.718 C2532.93,965.818 2532.83,965.018 2532.73,964.218 M2525.83,968.118 C2525.83,969.618 2525.43,974.218 2522.93,978.018 C2521.23,980.618 2517.83,983.318 2515.93,984.818 L2516.23,965.318 C2516.43,964.418 2517.93,961.518 2521.93,961.518 C2525.53,961.518 2525.83,964.918 2525.83,967.018 L2525.83,968.118 "/>
<path class="Accidental" d="M807.709,1626.76 C807.109,1622.86 804.709,1619.16 799.609,1619.16 C794.609,1619.16 791.709,1622.26 791.209,1622.86 L791.609,1590.76 C791.609,1589.96 791.009,1589.36 790.209,1589.36 L789.009,1589.36 C788.209,1589.36 787.609,1589.96 787.609,1590.76 L788.109,1650.86 C788.109,1651.66 788.709,1652.26 789.509,1652.26 C789.709,1652.26 790.109,1652.16 790.309,1652.06 C790.709,1651.86 797.209,1648.66 802.609,1642.56 C806.409,1638.26 807.909,1633.36 807.909,1629.26 C807.909,1628.36 807.809,1627.56 807.709,1626.76 M800.809,1630.66 C800.809,1632.16 800.409,1636.76 797.909,1640.56 C796.209,1643.16 792.809,1645.86 790.909,1647.36 L791.209,1627.86 C791.409,1626.96 792.909,1624.06 796.909,1624.06 C800.509,1624.06 800.809,1627.46 800.809,1629.56 L800.809,1630.66 "/>
<path class="Accidental" d="M1260.97,1664.26 C1260.37,1660.36 1257.97,1656.66 1252.87,1656.66 C1247.87,1656.66 1244.97,1659.76 1244.47,1660.36 L1244.87,1628.26 C1244.87,1627.46 1244.27,1626.86 1243.47,1626.86 L1242.27,1626.86 C1241.47,1626.86 1240.87,1627.46 1240.87,1628.26 L1241.37,1688.36 C1241.37,1689.16 1241.97,1689.76 1242.77,1689.76 C1242.97,1689.76 1243.37,1689.66 1243.57,1689.56 C1243.97,1689.36 1250.47,1686.16 1255.87,1680.06 C1259.67,1675.76 1261.17,1670.86 1261.17,1666.76 C1261.17,1665.86 1261.07,1665.06 1260.97,1664.26 M1254.07,1668.16 C1254.07,1669.66 1253.67,1674.26 1251.17,1678.06 C1249.47,1680.66 1246.07,1683.36 1244.17,1684.86 L1244.47,1665.36 C1244.67,1664.46 1246.17,1661.56 1250.17,1661.56 C1253.77,1661.56 1254.07,1664.96 1254.07,1667.06 L1254.07,1668.16 "/>
<path class="Accidental" d="M1927.87,1564.26 C1927.27,1560.36 1924.87,1556.66 1919.77,1556.66 C1914.77,1556.66 1911.87,1559.76 1911.37,1560.36 L1911.77,1528.26 C1911.77,1527.46 1911.17,1526.86 1910.37,1526.86 L1909.17,1526.86 C1908.37,1526.86 1907.77,1527.46 1907.77,1528.26 L1908.27,1588.36 C1908.27,1589.16 1908.87,1589.76 1909.67,1589.76 C1909.87,1589.76 1910.27,1589.66 1910.47,1589.56 C1910.87,1589.36 1917.37,1586.16 1922.77,1580.06 C1926.57,1575.76 1928.07,1570.86 1928.07,1566.76 C1928.07,1565.86 1927.97,1565.06 1927.87,1564.26 M1920.97,1568.16 C1920.97,1569.66 1920.57,1574.26 1918.07,1578.06 C1916.37,1580.66 1912.97,1583.36 1911.07,1584.86 L1911.37,1565.36 C1911.57,1564.46 1913.07,1561.56 1917.07,1561.56 C1920.67,1561.56 1920.97,1564.96 1920.97,1567.06 L1920.97,1568.16 "/>
<path class="Accidental" d="M2404.69,1601.76 C2404.09,1597.86 2401.69,1594.16 2396.59,1594.16 C2391.59,1594.16 2388.69,1597.26 2388.19,1597.86 L2388.59,1565.76 C2388.59,1564.96 2387.99,1564.36 2387.19,1564.36 L2385.99,1564.36 C2385.19,1564.36 2384.59,1564.96 2384.59,1565.76 L2385.09,1625.86 C2385.09,1626.66 2385.69,1627.26 2386.49,1627.26 C2386.69,1627.26 2387.09,1627.16 2387.29,1627.06 C2387.69,1626.86 2394.19,1623.66 2399.59,1617.56 C2403.39,1613.26 2404.89,1608.36 2404.89,1604.26 C2404.89,1603.36 2404.79,1602.56 2404.69,1601.76 M2397.79,1605.66 C2397.79,1607.16 2397.39,1611.76 2394.89,1615.56 C2393.19,1618.16 2389.79,1620.86 2387.89,1622.36 L2388.19,1602.86 C2388.39,1601.96 2389.89,1599.06 2393.89,1599.06 C2397.49,1599.06 2397.79,1602.46 2397.79,1604.56 L2397.79,1605.66 "/>
<path class="Accidental" d="M475.102,789.207 C474.502,785.307 472.102,781.607 467.002,781.607 C462.002,781.607 459.102,784.707 458.602,785.307 L459.002,753.207 C459.002,752.407 458.402,751.807 457.602,751.807 L456.402,751.807 C455.602,751.807 455.002,752.407 455.002,753.207 L455.502,813.307 C455.502,814.107 456.102,814.707 456.902,814.707 C457.102,814.707 457.502,814.607 457.702,814.507 C458.102,814.307 464.602,811.107 470.002,805.007 C473.802,800.707 475.302,795.807 475.302,791.707 C475.302,790.807 475.202,790.007 475.102,789.207 M468.202,793.107 C468.202,794.607 467.802,799.207 465.302,803.007 C463.602,805.607 460.202,808.307 458.302,809.807 L458.602,790.307 C458.802,789.407 460.302,786.507 464.302,786.507 C467.902,786.507 468.202,789.907 468.202,792.007 L468.202,793.107 "/>
<path class="Accidental" d="M894.285,751.705 C893.685,747.805 891.285,744.105 886.185,744.105 C881.185,744.105 878.285,747.205 877.785,747.805 L878.185,715.705 C878.185,714.905 877.585,714.305 876.785,714.305 L875.585,714.305 C874.785,714.305 874.185,714.905 874.185,715.705 L874.685,775.805 C874.685,776.605 875.285,777.205 876.085,777.205 C876.285,777.205 876.685,777.105 876.885,777.005 C877.285,776.805 883.785,773.605 889.185,767.505 C892.985,763.205 894.485,758.305 894.485,754.205 C894.485,753.305 894.385,752.505 894.285,751.705 M887.385,755.605 C887.385,757.105 886.985,761.705 884.485,765.505 C882.785,768.105 879.385,770.805 877.485,772.305 L877.785,752.805 C877.985,751.905 879.485,749.005 883.485,749.005 C887.085,749.005 887.385,752.405 887.385,754.505 L887.385,755.605 "/>
<path class="Accidental" d="M1454.9,701.702 C1454.3,697.802 1451.9,694.102 1446.8,694.102 C1441.8,694.102 1438.9,697.202 1438.4,697.802 L1438.8,665.702 C1438.8,664.902 1438.2,664.302 1437.4,664.302 L1436.2,664.302 C1435.4,664.302 1434.8,664.902 1434.8,665.702 L1435.3,725.802 C1435.3,726.602 1435.9,727.202 1436.7,727.202 C1436.9,727.202 1437.3,727.102 1437.5,727.002 C1437.9,726.802 1444.4,723.602 1449.8,717.502 C1453.6,713.202 1455.1,708.302 1455.1,704.202 C1455.1,703.302 1455,702.502 1454.9,701.702 M1448,705.602 C1448,707.102 1447.6,711.702 1445.1,715.502 C1443.4,718.102 1440,720.802 1438.1,722.302 L1438.4,702.802 C1438.6,701.902 1440.1,699.002 1444.1,699.002 C1447.7,699.002 1448,702.402 1448,704.502 L1448,705.602 "/>
<path class="Accidental" d="M1956.41,664.199 C1955.81,660.299 1953.41,656.599 1948.31,656.599 C1943.31,656.599 1940.41,659.699 1939.91,660.299 L1940.31,628.199 C1940.31,627.399 1939.71,626.799 1938.91,626.799 L1937.71,626.799 C1936.91,626.799 1936.31,627.399 1936.31,628.199 L1936.81,688.299 C1936.81,689.099 1937.41,689.699 1938.21,689.699 C1938.41,689.699 1938.81,689.599 1939.01,689.499 C1939.41,689.299 1945.91,686.099 1951.31,679.999 C1955.11,675.699 1956.61,670.799 1956.61,666.699 C1956.61,665.799 1956.51,664.999 1956.41,664.199 M1949.51,668.099 C1949.51,669.599 1949.11,674.199 1946.61,677.999 C1944.91,680.599 1941.51,683.299 1939.61,684.799 L1939.91,665.299 C1940.11,664.399 1941.61,661.499 1945.61,661.499 C1949.21,661.499 1949.51,664.899 1949.51,666.999 L1949.51,668.099 "/>
<path class="Accidental" d="M2523.98,614.196 C2523.38,610.296 2520.98,606.596 2515.88,606.596 C2510.88,606.596 2507.98,609.696 2507.48,610.296 L2507.88,578.196 C2507.88,577.396 2507.28,576.796 2506.48,576.796 L2505.28,576.796 C2504.48,576.796 2503.88,577.396 2503.88,578.196 L2504.38,638.296 C2504.38,639.096 2504.98,639.696 2505.78,639.696 C2505.98,639.696 2506.38,639.596 2506.58,639.496 C2506.98,639.296 2513.48,636.096 2518.88,629.996 C2522.68,625.696 2524.18,620.796 2524.18,616.696 C2524.18,615.796 2524.08,614.996 2523.98,614.196 M2517.08,618.096 C2517.08,619.596 2516.68,624.196 2514.18,627.996 C2512.48,630.596 2509.08,633.296 2507.18,634.796 L2507.48,615.296 C2507.68,614.396 2509.18,611.496 2513.18,611.496 C2516.78,611.496 2517.08,614.896 2517.08,616.996 L2517.08,618.096 "/>
<path class="Accidental" d="M807.709,1276.74 C807.109,1272.84 804.709,1269.14 799.609,1269.14 C794.609,1269.14 791.709,1272.24 791.209,1272.84 L791.609,1240.74 C791.609,1239.94 791.009,1239.34 790.209,1239.34 L789.009,1239.34 C788.209,1239.34 787.609,1239.94 787.609,1240.74 L788.109,1300.84 C788.109,1301.64 788.709,1302.24 789.509,1302.24 C789.709,1302.24 790.109,1302.14 790.309,1302.04 C790.709,1301.84 797.209,1298.64 802.609,1292.54 C806.409,1288.24 807.909,1283.34 807.909,1279.24 C807.909,1278.34 807.809,1277.54 807.709,1276.74 M800.809,1280.64 C800.809,1282.14 800.409,1286.74 797.909,1290.54 C796.209,1293.14 792.809,1295.84 790.909,1297.34 L791.209,1277.84 C791.409,1276.94 792.909,1274.04 796.909,1274.04 C800.509,1274.04 800.809,1277.44 800.809,1279.54 L800.809,1280.64 "/>
<path class="Accidental" d="M1269.72,1314.24 C1269.12,1310.34 1266.72,1306.64 1261.62,1306.64 C1256.62,1306.64 1253.72,1309.74 1253.22,1310.34 L1253.62,1278.24 C1253.62,1277.44 1253.02,1276.84 1252.22,1276.84 L1251.02,1276.84 C1250.22,1276.84 1249.62,1277.44 1249.62,1278.24 L1250.12,1338.34 C1250.12,1339.14 1250.72,1339.74 1251.52,1339.74 C1251.72,1339.74 1252.12,1339.64 1252.32,1339.54 C1252.72,1339.34 1259.22,1336.14 1264.62,1330.04 C1268.42,1325.74 1269.92,1320.84 1269.92,1316.74 C1269.92,1315.84 1269.82,1315.04 1269.72,1314.24 M1262.82,1318.14 C1262.82,1319.64 1262.42,1324.24 1259.92,1328.04 C1258.22,1330.64 1254.82,1333.34 1252.92,1334.84 L1253.22,1315.34 C1253.42,1314.44 1254.92,1311.54 1258.92,1311.54 C1262.52,1311.54 1262.82,1314.94 1262.82,1317.04 L1262.82,1318.14 "/>
<path class="Accidental" d="M1927.87,1364.24 C1927.27,1360.34 1924.87,1356.64 1919.77,1356.64 C1914.77,1356.64 1911.87,1359.74 1911.37,1360.34 L1911.77,1328.24 C1911.77,1327.44 1911.17,1326.84 1910.37,1326.84 L1909.17,1326.84 C1908.37,1326.84 1907.77,1327.44 1907.77,1328.24 L1908.27,1388.34 C1908.27,1389.14 1908.87,1389.74 1909.67,1389.74 C1909.87,1389.74 1910.27,1389.64 1910.47,1389.54 C1910.87,1389.34 1917.37,1386.14 1922.77,1380.04 C1926.57,1375.74 1928.07,1370.84 1928.07,1366.74 C1928.07,1365.84 1927.97,1365.04 1927.87,1364.24 M1920.97,1368.14 C1920.97,1369.64 1920.57,1374.24 1918.07,1378.04 C1916.37,1380.64 1912.97,1383.34 1911.07,1384.84 L1911.37,1365.34 C1911.57,1364.44 1913.07,1361.54 1917.07,1361.54 C1920.67,1361.54 1920.97,1364.94 1920.97,1367.04 L1920.97,1368.14 "/>
<path class="Accidental" d="M2395.94,1401.75 C2395.34,1397.85 2392.94,1394.15 2387.84,1394.15 C2382.84,1394.15 2379.94,1397.25 2379.44,1397.85 L2379.84,1365.75 C2379.84,1364.95 2379.24,1364.35 2378.44,1364.35 L2377.24,1364.35 C2376.44,1364.35 2375.84,1364.95 2375.84,1365.75 L2376.34,1425.85 C2376.34,1426.65 2376.94,1427.25 2377.74,1427.25 C2377.94,1427.25 2378.34,1427.15 2378.54,1427.05 C2378.94,1426.85 2385.44,1423.65 2390.84,1417.55 C2394.64,1413.25 2396.14,1408.35 2396.14,1404.25 C2396.14,1403.35 2396.04,1402.55 2395.94,1401.75 M2389.04,1405.65 C2389.04,1407.15 2388.64,1411.75 2386.14,1415.55 C2384.44,1418.15 2381.04,1420.85 2379.14,1422.35 L2379.44,1402.85 C2379.64,1401.95 2381.14,1399.05 2385.14,1399.05 C2388.74,1399.05 2389.04,1402.45 2389.04,1404.55 L2389.04,1405.65 "/>
<polyline class="LedgerLine" fill="none" stroke="#000000" stroke-width="4.00" stroke-linejoin="bevel" points="1690.99,1047.12 1740.98,1047.12"/>
<polyline class="LedgerLine" fill="none" stroke="#000000" stroke-width="4.00" stroke-linejoin="bevel" points="1122.8,1659.66 1172.79,1659.66"/>
<polyline class="LedgerLine" fill="none" stroke="#000000" stroke-width="4.00" stroke-linejoin="bevel" points="1267.42,1659.66 1317.41,1659.66"/>
<polyline class="LedgerLine" fill="none" stroke="#000000" stroke-width="4.00" stroke-linejoin="bevel" points="1412.04,1684.66 1462.03,1684.66"/>
<polyline class="LedgerLine" fill="none" stroke="#000000" stroke-width="4.00" stroke-linejoin="bevel" points="1412.04,1659.66 1462.03,1659.66"/>
<polyline class="LedgerLine" fill="none" stroke="#000000" stroke-width="4.00" stroke-linejoin="bevel" points="481.551,784.606 531.546,784.606"/>
<polyline class="LedgerLine" fill="none" stroke="#000000" stroke-width="4.00" stroke-linejoin="bevel" points="618.362,784.606 668.357,784.606"/>
<polyline class="LedgerLine" fill="none" stroke="#000000" stroke-width="4.00" stroke-linejoin="bevel" points="2392.33,634.597 2442.32,634.597"/>
<polyline class="LedgerLine" fill="none" stroke="#000000" stroke-width="4.00" stroke-linejoin="bevel" points="2530.43,634.597 2580.42,634.597"/>
<polyline class="LedgerLine" fill="none" stroke="#000000" stroke-width="4.00" stroke-linejoin="bevel" points="398.1,1247.14 448.096,1247.14"/>
<polyline class="LedgerLine" fill="none" stroke="#000000" stroke-width="4.00" stroke-linejoin="bevel" points="2237.61,1397.14 2287.6,1397.14"/>
<polyline class="LedgerLine" fill="none" stroke="#000000" stroke-width="4.00" stroke-linejoin="bevel" points="2402.39,1397.14 2452.39,1397.14"/>
<polyline class="Stem" fill="none" stroke="#000000" stroke-width="2.75" stroke-linejoin="bevel" points="521.421,993.76 521.421,912.739"/>
<polyline class="Stem" fill="none" stroke="#000000" stroke-width="2.75" stroke-linejoin="bevel" points="658.231,981.259 658.231,903.364"/>
<polyline class="Stem" fill="none" stroke="#000000" stroke-width="2.75" stroke-linejoin="bevel" points="765.298,975.638 765.298,1050.25"/>
<polyline class="Stem" fill="none" stroke="#000000" stroke-width="2.75" stroke-linejoin="bevel" points="902.109,963.138 902.109,1040.87"/>
<polyline class="Stem" fill="none" stroke="#000000" stroke-width="2.75" stroke-linejoin="bevel" points="1075.92,950.637 1075.92,1031.5"/>
<polyline class="Stem" fill="none" stroke="#000000" stroke-width="2.75" stroke-linejoin="bevel" points="1204.86,938.136 1204.86,1022.12"/>
<polyline class="Stem" fill="none" stroke="#000000" stroke-width="2.75" stroke-linejoin="bevel" points="1333.79,925.635 1333.79,1009.62"/>
<polyline class="Stem" fill="none" stroke="#000000" stroke-width="2.75" stroke-linejoin="bevel" points="1462.73,913.134 1462.73,997.12"/>
<polyline class="Stem" fill="none" stroke="#000000" stroke-width="2.75" stroke-linejoin="bevel" points="1730.86,1043.76 1730.86,959.617"/>
<polyline class="Stem" fill="none" stroke="#000000" stroke-width="2.75" stroke-linejoin="bevel" points="1862.42,1031.26 1862.42,947.117"/>
<polyline class="Stem" fill="none" stroke="#000000" stroke-width="2.75" stroke-linejoin="bevel" points="1993.98,1018.76 1993.98,934.616"/>
<polyline class="Stem" fill="none" stroke="#000000" stroke-width="2.75" stroke-linejoin="bevel" points="2125.54,1006.26 2125.54,922.115"/>
<polyline class="Stem" fill="none" stroke="#000000" stroke-width="2.75" stroke-linejoin="bevel" points="2294.1,993.76 2294.1,912.739"/>
<polyline class="Stem" fill="none" stroke="#000000" stroke-width="2.75" stroke-linejoin="bevel" points="2432.2,981.259 2432.2,903.364"/>
<polyline class="Stem" fill="none" stroke="#000000" stroke-width="2.75" stroke-linejoin="bevel" points="2540.55,975.558 2540.55,1050.25"/>
<polyline class="Stem" fill="none" stroke="#000000" stroke-width="2.75" stroke-linejoin="bevel" points="437.97,1593.8 437.97,1515.9"/>
<polyline class="Stem" fill="none" stroke="#000000" stroke-width="2.75" stroke-linejoin="bevel" points="573.739,1606.3 573.739,1525.28"/>
<polyline class="Stem" fill="none" stroke="#000000" stroke-width="2.75" stroke-linejoin="bevel" points="709.508,1618.8 709.508,1534.65"/>
<polyline class="Stem" fill="none" stroke="#000000" stroke-width="2.75" stroke-linejoin="bevel" points="845.277,1631.3 845.277,1547.15"/>
<polyline class="Stem" fill="none" stroke="#000000" stroke-width="2.75" stroke-linejoin="bevel" points="1018.05,1643.8 1018.05,1559.66"/>
<polyline class="Stem" fill="none" stroke="#000000" stroke-width="2.75" stroke-linejoin="bevel" points="1162.67,1656.3 1162.67,1572.16"/>
<polyline class="Stem" fill="none" stroke="#000000" stroke-width="2.75" stroke-linejoin="bevel" points="1307.29,1668.8 1307.29,1584.66"/>
<polyline class="Stem" fill="none" stroke="#000000" stroke-width="2.75" stroke-linejoin="bevel" points="1451.91,1681.3 1451.91,1584.66"/>
<polyline class="Stem" fill="none" stroke="#000000" stroke-width="2.75" stroke-linejoin="bevel" points="1669.41,1550.67 1669.41,1634.66"/>
<polyline class="Stem" fill="none" stroke="#000000" stroke-width="2.75" stroke-linejoin="bevel" points="1802.55,1563.18 1802.55,1644.04"/>
<polyline class="Stem" fill="none" stroke="#000000" stroke-width="2.75" stroke-linejoin="bevel" points="1935.69,1575.68 1935.69,1653.41"/>
<polyline class="Stem" fill="none" stroke="#000000" stroke-width="2.75" stroke-linejoin="bevel" points="2068.84,1588.18 2068.84,1662.79"/>
<polyline class="Stem" fill="none" stroke="#000000" stroke-width="2.75" stroke-linejoin="bevel" points="2277.48,1593.8 2277.48,1515.9"/>
<polyline class="Stem" fill="none" stroke="#000000" stroke-width="2.75" stroke-linejoin="bevel" points="2442.26,1606.22 2442.26,1525.28"/>
<polyline class="Stem" fill="none" stroke="#000000" stroke-width="2.75" stroke-linejoin="bevel" points="521.421,793.747 521.421,709.602"/>
<polyline class="Stem" fill="none" stroke="#000000" stroke-width="2.75" stroke-linejoin="bevel" points="658.231,781.246 658.231,697.101"/>
<polyline class="Stem" fill="none" stroke="#000000" stroke-width="2.75" stroke-linejoin="bevel" points="795.042,768.745 795.042,684.6"/>
<polyline class="Stem" fill="none" stroke="#000000" stroke-width="2.75" stroke-linejoin="bevel" points="931.853,756.245 931.853,672.099"/>
<polyline class="Stem" fill="none" stroke="#000000" stroke-width="2.75" stroke-linejoin="bevel" points="1105.67,743.744 1105.67,659.598"/>
<polyline class="Stem" fill="none" stroke="#000000" stroke-width="2.75" stroke-linejoin="bevel" points="1234.6,731.243 1234.6,650.223"/>
<polyline class="Stem" fill="none" stroke="#000000" stroke-width="2.75" stroke-linejoin="bevel" points="1363.54,718.742 1363.54,640.847"/>
<polyline class="Stem" fill="none" stroke="#000000" stroke-width="2.75" stroke-linejoin="bevel" points="1462.73,713.122 1462.73,787.732"/>
<polyline class="Stem" fill="none" stroke="#000000" stroke-width="2.75" stroke-linejoin="bevel" points="1701.11,700.621 1701.11,778.356"/>
<polyline class="Stem" fill="none" stroke="#000000" stroke-width="2.75" stroke-linejoin="bevel" points="1832.67,688.12 1832.67,768.98"/>
<polyline class="Stem" fill="none" stroke="#000000" stroke-width="2.75" stroke-linejoin="bevel" points="1964.23,675.62 1964.23,759.605"/>
<polyline class="Stem" fill="none" stroke="#000000" stroke-width="2.75" stroke-linejoin="bevel" points="2095.79,663.119 2095.79,747.104"/>
<polyline class="Stem" fill="none" stroke="#000000" stroke-width="2.75" stroke-linejoin="bevel" points="2264.36,650.618 2264.36,734.603"/>
<polyline class="Stem" fill="none" stroke="#000000" stroke-width="2.75" stroke-linejoin="bevel" points="2402.45,638.117 2402.45,722.102"/>
<polyline class="Stem" fill="none" stroke="#000000" stroke-width="2.75" stroke-linejoin="bevel" points="2540.55,625.536 2540.55,709.602"/>
<polyline class="Stem" fill="none" stroke="#000000" stroke-width="2.75" stroke-linejoin="bevel" points="408.226,1250.66 408.226,1334.64"/>
<polyline class="Stem" fill="none" stroke="#000000" stroke-width="2.75" stroke-linejoin="bevel" points="543.995,1263.16 543.995,1347.14"/>
<polyline class="Stem" fill="none" stroke="#000000" stroke-width="2.75" stroke-linejoin="bevel" points="679.764,1275.66 679.764,1359.64"/>
<polyline class="Stem" fill="none" stroke="#000000" stroke-width="2.75" stroke-linejoin="bevel" points="815.533,1288.16 815.533,1372.14"/>
<polyline class="Stem" fill="none" stroke="#000000" stroke-width="2.75" stroke-linejoin="bevel" points="988.304,1300.66 988.304,1381.52"/>
<polyline class="Stem" fill="none" stroke="#000000" stroke-width="2.75" stroke-linejoin="bevel" points="1132.92,1313.16 1132.92,1390.89"/>
<polyline class="Stem" fill="none" stroke="#000000" stroke-width="2.75" stroke-linejoin="bevel" points="1277.54,1325.66 1277.54,1400.27"/>
<polyline class="Stem" fill="none" stroke="#000000" stroke-width="2.75" stroke-linejoin="bevel" points="1451.91,1331.28 1451.91,1253.39"/>
<polyline class="Stem" fill="none" stroke="#000000" stroke-width="2.75" stroke-linejoin="bevel" points="1699.15,1343.78 1699.15,1262.76"/>
<polyline class="Stem" fill="none" stroke="#000000" stroke-width="2.75" stroke-linejoin="bevel" points="1832.3,1356.28 1832.3,1272.14"/>
<polyline class="Stem" fill="none" stroke="#000000" stroke-width="2.75" stroke-linejoin="bevel" points="1965.44,1368.78 1965.44,1284.64"/>
<polyline class="Stem" fill="none" stroke="#000000" stroke-width="2.75" stroke-linejoin="bevel" points="2098.58,1381.28 2098.58,1297.14"/>
<polyline class="Stem" fill="none" stroke="#000000" stroke-width="2.75" stroke-linejoin="bevel" points="2277.48,1393.78 2277.48,1309.64"/>
<polyline class="Stem" fill="none" stroke="#000000" stroke-width="2.75" stroke-linejoin="bevel" points="2442.26,1406.21 2442.26,1322.14"/>
<path class="Note" d="M521.801,988.92 C520.301,986.22 517.401,984.52 513.501,984.12 C512.901,984.02 512.401,984.02 511.801,984.02 C508.301,984.02 504.501,985.02 501.001,986.92 C494.401,990.52 490.301,996.42 490.301,1001.52 C490.301,1002.92 490.501,1004.22 491.201,1005.42 C492.701,1008.12 495.701,1009.82 499.601,1010.22 C500.201,1010.32 500.701,1010.32 501.301,1010.32 C504.801,1010.32 508.501,1009.32 512.001,1007.42 C518.601,1003.82 522.801,998.02 522.801,992.92 C522.801,991.52 522.501,990.12 521.801,988.92"/>
<path class="Note" d="M658.612,976.419 C657.112,973.719 654.212,972.019 650.312,971.619 C649.712,971.519 649.212,971.519 648.612,971.519 C645.112,971.519 641.312,972.519 637.812,974.419 C631.212,978.019 627.112,983.919 627.112,989.019 C627.112,990.419 627.312,991.719 628.012,992.919 C629.512,995.619 632.512,997.319 636.412,997.719 C637.012,997.819 637.512,997.819 638.112,997.819 C641.612,997.819 645.312,996.819 648.812,994.919 C655.412,991.319 659.612,985.519 659.612,980.419 C659.612,979.019 659.312,977.619 658.612,976.419"/>
<path class="Note" d="M795.423,963.918 C793.923,961.218 791.023,959.518 787.123,959.118 C786.523,959.018 786.023,959.018 785.423,959.018 C781.923,959.018 778.123,960.018 774.623,961.918 C768.023,965.518 763.923,971.418 763.923,976.518 C763.923,977.918 764.123,979.218 764.823,980.418 C766.323,983.118 769.323,984.818 773.223,985.218 C773.823,985.318 774.323,985.318 774.923,985.318 C778.423,985.318 782.123,984.318 785.623,982.418 C792.223,978.818 796.423,973.018 796.423,967.918 C796.423,966.518 796.123,965.118 795.423,963.918"/>
<path class="Note" d="M932.234,951.417 C930.734,948.717 927.834,947.017 923.934,946.617 C923.334,946.517 922.834,946.517 922.234,946.517 C918.734,946.517 914.934,947.517 911.434,949.417 C904.834,953.017 900.734,958.917 900.734,964.017 C900.734,965.417 900.934,966.717 901.634,967.917 C903.134,970.617 906.134,972.317 910.034,972.717 C910.634,972.817 911.134,972.817 911.734,972.817 C915.234,972.817 918.934,971.817 922.434,969.917 C929.034,966.317 933.234,960.517 933.234,955.417 C933.234,954.017 932.934,952.617 932.234,951.417"/>
<path class="Note" d="M1106.05,938.917 C1104.55,936.217 1101.65,934.517 1097.75,934.117 C1097.15,934.017 1096.65,934.017 1096.05,934.017 C1092.55,934.017 1088.75,935.017 1085.25,936.917 C1078.65,940.517 1074.55,946.417 1074.55,951.517 C1074.55,952.917 1074.75,954.217 1075.45,955.417 C1076.95,958.117 1079.95,959.817 1083.85,960.217 C1084.45,960.317 1084.95,960.317 1085.55,960.317 C1089.05,960.317 1092.75,959.317 1096.25,957.417 C1102.85,953.817 1107.05,948.017 1107.05,942.917 C1107.05,941.517 1106.75,940.117 1106.05,938.917"/>
<path class="Note" d="M1234.98,926.416 C1233.48,923.716 1230.58,922.016 1226.68,921.616 C1226.08,921.516 1225.58,921.516 1224.98,921.516 C1221.48,921.516 1217.68,922.516 1214.18,924.416 C1207.58,928.016 1203.48,933.916 1203.48,939.016 C1203.48,940.416 1203.68,941.716 1204.38,942.916 C1205.88,945.616 1208.88,947.316 1212.78,947.716 C1213.38,947.816 1213.88,947.816 1214.48,947.816 C1217.98,947.816 1221.68,946.816 1225.18,944.916 C1231.78,941.316 1235.98,935.516 1235.98,930.416 C1235.98,929.016 1235.68,927.616 1234.98,926.416"/>
<path class="Note" d="M1363.92,913.915 C1362.42,911.215 1359.52,909.515 1355.62,909.115 C1355.02,909.015 1354.52,909.015 1353.92,909.015 C1350.42,909.015 1346.62,910.015 1343.12,911.915 C1336.52,915.515 1332.42,921.415 1332.42,926.515 C1332.42,927.915 1332.62,929.215 1333.32,930.415 C1334.82,933.115 1337.82,934.815 1341.72,935.215 C1342.32,935.315 1342.82,935.315 1343.42,935.315 C1346.92,935.315 1350.62,934.315 1354.12,932.415 C1360.72,928.815 1364.92,923.015 1364.92,917.915 C1364.92,916.515 1364.62,915.115 1363.92,913.915"/>
<path class="Note" d="M1492.85,901.414 C1491.35,898.714 1488.45,897.014 1484.55,896.614 C1483.95,896.514 1483.45,896.514 1482.85,896.514 C1479.35,896.514 1475.55,897.514 1472.05,899.414 C1465.45,903.014 1461.35,908.914 1461.35,914.014 C1461.35,915.414 1461.55,916.714 1462.25,917.914 C1463.75,920.614 1466.75,922.314 1470.65,922.714 C1471.25,922.814 1471.75,922.814 1472.35,922.814 C1475.85,922.814 1479.55,921.814 1483.05,919.914 C1489.65,916.314 1493.85,910.514 1493.85,905.414 C1493.85,904.014 1493.55,902.614 1492.85,901.414"/>
<path class="Note" d="M1731.24,1038.92 C1729.74,1036.22 1726.84,1034.52 1722.94,1034.12 C1722.34,1034.02 1721.84,1034.02 1721.24,1034.02 C1717.74,1034.02 1713.94,1035.02 1710.44,1036.92 C1703.84,1040.52 1699.74,1046.42 1699.74,1051.52 C1699.74,1052.92 1699.94,1054.22 1700.64,1055.42 C1702.14,1058.12 1705.14,1059.82 1709.04,1060.22 C1709.64,1060.32 1710.14,1060.32 1710.74,1060.32 C1714.24,1060.32 1717.94,1059.32 1721.44,1057.42 C1728.04,1053.82 1732.24,1048.02 1732.24,1042.92 C1732.24,1041.52 1731.94,1040.12 1731.24,1038.92"/>
<path class="Note" d="M1862.8,1026.42 C1861.3,1023.72 1858.4,1022.02 1854.5,1021.62 C1853.9,1021.52 1853.4,1021.52 1852.8,1021.52 C1849.3,1021.52 1845.5,1022.52 1842,1024.42 C1835.4,1028.02 1831.3,1033.92 1831.3,1039.02 C1831.3,1040.42 1831.5,1041.72 1832.2,1042.92 C1833.7,1045.62 1836.7,1047.32 1840.6,1047.72 C1841.2,1047.82 1841.7,1047.82 1842.3,1047.82 C1845.8,1047.82 1849.5,1046.82 1853,1044.92 C1859.6,1041.32 1863.8,1035.52 1863.8,1030.42 C1863.8,1029.02 1863.5,1027.62 1862.8,1026.42"/>
<path class="Note" d="M1994.36,1013.92 C1992.86,1011.22 1989.96,1009.52 1986.06,1009.12 C1985.46,1009.02 1984.96,1009.02 1984.36,1009.02 C1980.86,1009.02 1977.06,1010.02 1973.56,1011.92 C1966.96,1015.52 1962.86,1021.42 1962.86,1026.52 C1962.86,1027.92 1963.06,1029.22 1963.76,1030.42 C1965.26,1033.12 1968.26,1034.82 1972.16,1035.22 C1972.76,1035.32 1973.26,1035.32 1973.86,1035.32 C1977.36,1035.32 1981.06,1034.32 1984.56,1032.42 C1991.16,1028.82 1995.36,1023.02 1995.36,1017.92 C1995.36,1016.52 1995.06,1015.12 1994.36,1013.92"/>
<path class="Note" d="M2125.92,1001.42 C2124.42,998.721 2121.52,997.021 2117.62,996.621 C2117.02,996.521 2116.52,996.521 2115.92,996.521 C2112.42,996.521 2108.62,997.521 2105.12,999.421 C2098.52,1003.02 2094.42,1008.92 2094.42,1014.02 C2094.42,1015.42 2094.62,1016.72 2095.32,1017.92 C2096.82,1020.62 2099.82,1022.32 2103.72,1022.72 C2104.32,1022.82 2104.82,1022.82 2105.42,1022.82 C2108.92,1022.82 2112.62,1021.82 2116.12,1019.92 C2122.72,1016.32 2126.92,1010.52 2126.92,1005.42 C2126.92,1004.02 2126.62,1002.62 2125.92,1001.42"/>
<path class="Note" d="M2294.48,988.92 C2292.98,986.22 2290.08,984.52 2286.18,984.12 C2285.58,984.02 2285.08,984.02 2284.48,984.02 C2280.98,984.02 2277.18,985.02 2273.68,986.92 C2267.08,990.52 2262.98,996.42 2262.98,1001.52 C2262.98,1002.92 2263.18,1004.22 2263.88,1005.42 C2265.38,1008.12 2268.38,1009.82 2272.28,1010.22 C2272.88,1010.32 2273.38,1010.32 2273.98,1010.32 C2277.48,1010.32 2281.18,1009.32 2284.68,1007.42 C2291.28,1003.82 2295.48,998.02 2295.48,992.92 C2295.48,991.52 2295.18,990.12 2294.48,988.92"/>
<path class="Note" d="M2432.58,976.419 C2431.08,973.719 2428.18,972.019 2424.28,971.619 C2423.68,971.519 2423.18,971.519 2422.58,971.519 C2419.08,971.519 2415.28,972.519 2411.78,974.419 C2405.18,978.019 2401.08,983.919 2401.08,989.019 C2401.08,990.419 2401.28,991.719 2401.98,992.919 C2403.48,995.619 2406.48,997.319 2410.38,997.719 C2410.98,997.819 2411.48,997.819 2412.08,997.819 C2415.58,997.819 2419.28,996.819 2422.78,994.919 C2429.38,991.319 2433.58,985.519 2433.58,980.419 C2433.58,979.019 2433.28,977.619 2432.58,976.419"/>
<path class="Note" d="M2570.68,963.918 C2569.18,961.218 2566.28,959.518 2562.38,959.118 C2561.78,959.018 2561.28,959.018 2560.68,959.018 C2557.18,959.018 2553.38,960.018 2549.88,961.918 C2543.28,965.518 2539.18,971.318 2539.18,976.418 C2539.18,977.818 2539.58,979.218 2540.28,980.418 C2541.78,983.218 2544.58,984.818 2548.48,985.218 C2549.08,985.318 2549.58,985.318 2550.18,985.318 C2553.68,985.318 2557.48,984.318 2560.98,982.418 C2567.58,978.818 2571.68,972.918 2571.68,967.818 C2571.68,966.418 2571.38,965.118 2570.68,963.918 M2566.48,970.218 C2564.78,972.018 2561.58,974.318 2557.98,976.418 C2554.38,978.518 2550.68,980.218 2548.38,980.918 C2547.88,981.018 2547.28,981.118 2546.78,981.118 C2545.28,981.118 2543.98,980.418 2543.28,979.318 C2542.98,978.718 2542.78,978.118 2542.78,977.518 C2542.78,976.418 2543.28,975.318 2544.38,974.118 C2546.08,972.318 2549.28,969.918 2552.88,967.818 C2556.48,965.718 2560.18,964.018 2562.58,963.418 L2562.78,963.418 C2563.38,963.218 2563.88,963.118 2564.38,963.118 C2565.78,963.118 2566.88,963.718 2567.58,965.018 C2567.88,965.618 2568.08,966.118 2568.08,966.718 C2568.08,968.018 2567.38,969.318 2566.48,970.218"/>
<path class="Note" d="M438.351,1588.96 C436.851,1586.26 433.951,1584.56 430.051,1584.16 C429.451,1584.06 428.951,1584.06 428.351,1584.06 C424.851,1584.06 421.051,1585.06 417.551,1586.96 C410.951,1590.56 406.851,1596.46 406.851,1601.56 C406.851,1602.96 407.051,1604.26 407.751,1605.46 C409.251,1608.16 412.251,1609.86 416.151,1610.26 C416.751,1610.36 417.251,1610.36 417.851,1610.36 C421.351,1610.36 425.051,1609.36 428.551,1607.46 C435.151,1603.86 439.351,1598.06 439.351,1592.96 C439.351,1591.56 439.051,1590.16 438.351,1588.96"/>
<path class="Note" d="M574.12,1601.46 C572.62,1598.76 569.72,1597.06 565.82,1596.66 C565.22,1596.56 564.72,1596.56 564.12,1596.56 C560.62,1596.56 556.82,1597.56 553.32,1599.46 C546.72,1603.06 542.62,1608.96 542.62,1614.06 C542.62,1615.46 542.82,1616.76 543.52,1617.96 C545.02,1620.66 548.02,1622.36 551.92,1622.76 C552.52,1622.86 553.02,1622.86 553.62,1622.86 C557.12,1622.86 560.82,1621.86 564.32,1619.96 C570.92,1616.36 575.12,1610.56 575.12,1605.46 C575.12,1604.06 574.82,1602.66 574.12,1601.46"/>
<path class="Note" d="M709.889,1613.96 C708.389,1611.26 705.489,1609.56 701.589,1609.16 C700.989,1609.06 700.489,1609.06 699.889,1609.06 C696.389,1609.06 692.589,1610.06 689.089,1611.96 C682.489,1615.56 678.389,1621.46 678.389,1626.56 C678.389,1627.96 678.589,1629.26 679.289,1630.46 C680.789,1633.16 683.789,1634.86 687.689,1635.26 C688.289,1635.36 688.789,1635.36 689.389,1635.36 C692.889,1635.36 696.589,1634.36 700.089,1632.46 C706.689,1628.86 710.889,1623.06 710.889,1617.96 C710.889,1616.56 710.589,1615.16 709.889,1613.96"/>
<path class="Note" d="M845.658,1626.46 C844.158,1623.76 841.258,1622.06 837.358,1621.66 C836.758,1621.56 836.258,1621.56 835.658,1621.56 C832.158,1621.56 828.358,1622.56 824.858,1624.46 C818.258,1628.06 814.158,1633.96 814.158,1639.06 C814.158,1640.46 814.358,1641.76 815.058,1642.96 C816.558,1645.66 819.558,1647.36 823.458,1647.76 C824.058,1647.86 824.558,1647.86 825.158,1647.86 C828.658,1647.86 832.358,1646.86 835.858,1644.96 C842.458,1641.36 846.658,1635.56 846.658,1630.46 C846.658,1629.06 846.358,1627.66 845.658,1626.46"/>
<path class="Note" d="M1018.43,1638.96 C1016.93,1636.26 1014.03,1634.56 1010.13,1634.16 C1009.53,1634.06 1009.03,1634.06 1008.43,1634.06 C1004.93,1634.06 1001.13,1635.06 997.629,1636.96 C991.029,1640.56 986.929,1646.46 986.929,1651.56 C986.929,1652.96 987.129,1654.26 987.829,1655.46 C989.329,1658.16 992.329,1659.86 996.229,1660.26 C996.829,1660.36 997.329,1660.36 997.929,1660.36 C1001.43,1660.36 1005.13,1659.36 1008.63,1657.46 C1015.23,1653.86 1019.43,1648.06 1019.43,1642.96 C1019.43,1641.56 1019.13,1640.16 1018.43,1638.96"/>
<path class="Note" d="M1163.05,1651.46 C1161.55,1648.76 1158.65,1647.06 1154.75,1646.66 C1154.15,1646.56 1153.65,1646.56 1153.05,1646.56 C1149.55,1646.56 1145.75,1647.56 1142.25,1649.46 C1135.65,1653.06 1131.55,1658.96 1131.55,1664.06 C1131.55,1665.46 1131.75,1666.76 1132.45,1667.96 C1133.95,1670.66 1136.95,1672.36 1140.85,1672.76 C1141.45,1672.86 1141.95,1672.86 1142.55,1672.86 C1146.05,1672.86 1149.75,1671.86 1153.25,1669.96 C1159.85,1666.36 1164.05,1660.56 1164.05,1655.46 C1164.05,1654.06 1163.75,1652.66 1163.05,1651.46"/>
<path class="Note" d="M1307.67,1663.96 C1306.17,1661.26 1303.27,1659.56 1299.37,1659.16 C1298.77,1659.06 1298.27,1659.06 1297.67,1659.06 C1294.17,1659.06 1290.37,1660.06 1286.87,1661.96 C1280.27,1665.56 1276.17,1671.46 1276.17,1676.56 C1276.17,1677.96 1276.37,1679.26 1277.07,1680.46 C1278.57,1683.16 1281.57,1684.86 1285.47,1685.26 C1286.07,1685.36 1286.57,1685.36 1287.17,1685.36 C1290.67,1685.36 1294.37,1684.36 1297.87,1682.46 C1304.47,1678.86 1308.67,1673.06 1308.67,1667.96 C1308.67,1666.56 1308.37,1665.16 1307.67,1663.96"/>
<path class="Note" d="M1452.29,1676.46 C1450.79,1673.76 1447.89,1672.06 1443.99,1671.66 C1443.39,1671.56 1442.89,1671.56 1442.29,1671.56 C1438.79,1671.56 1434.99,1672.56 1431.49,1674.46 C1424.89,1678.06 1420.79,1683.96 1420.79,1689.06 C1420.79,1690.46 1420.99,1691.76 1421.69,1692.96 C1423.19,1695.66 1426.19,1697.36 1430.09,1697.76 C1430.69,1697.86 1431.19,1697.86 1431.79,1697.86 C1435.29,1697.86 1438.99,1696.86 1442.49,1694.96 C1449.09,1691.36 1453.29,1685.56 1453.29,1680.46 C1453.29,1679.06 1452.99,1677.66 1452.29,1676.46"/>
<path class="Note" d="M1699.53,1538.95 C1698.03,1536.25 1695.13,1534.55 1691.23,1534.15 C1690.63,1534.05 1690.13,1534.05 1689.53,1534.05 C1686.03,1534.05 1682.23,1535.05 1678.73,1536.95 C1672.13,1540.55 1668.03,1546.45 1668.03,1551.55 C1668.03,1552.95 1668.23,1554.25 1668.93,1555.45 C1670.43,1558.15 1673.43,1559.85 1677.33,1560.25 C1677.93,1560.35 1678.43,1560.35 1679.03,1560.35 C1682.53,1560.35 1686.23,1559.35 1689.73,1557.45 C1696.33,1553.85 1700.53,1548.05 1700.53,1542.95 C1700.53,1541.55 1700.23,1540.15 1699.53,1538.95"/>
<path class="Note" d="M1832.68,1551.46 C1831.18,1548.76 1828.28,1547.06 1824.38,1546.66 C1823.78,1546.56 1823.28,1546.56 1822.68,1546.56 C1819.18,1546.56 1815.38,1547.56 1811.88,1549.46 C1805.28,1553.06 1801.18,1558.96 1801.18,1564.06 C1801.18,1565.46 1801.38,1566.76 1802.08,1567.96 C1803.58,1570.66 1806.58,1572.36 1810.48,1572.76 C1811.08,1572.86 1811.58,1572.86 1812.18,1572.86 C1815.68,1572.86 1819.38,1571.86 1822.88,1569.96 C1829.48,1566.36 1833.68,1560.56 1833.68,1555.46 C1833.68,1554.06 1833.38,1552.66 1832.68,1551.46"/>
<path class="Note" d="M1965.82,1563.96 C1964.32,1561.26 1961.42,1559.56 1957.52,1559.16 C1956.92,1559.06 1956.42,1559.06 1955.82,1559.06 C1952.32,1559.06 1948.52,1560.06 1945.02,1561.96 C1938.42,1565.56 1934.32,1571.46 1934.32,1576.56 C1934.32,1577.96 1934.52,1579.26 1935.22,1580.46 C1936.72,1583.16 1939.72,1584.86 1943.62,1585.26 C1944.22,1585.36 1944.72,1585.36 1945.32,1585.36 C1948.82,1585.36 1952.52,1584.36 1956.02,1582.46 C1962.62,1578.86 1966.82,1573.06 1966.82,1567.96 C1966.82,1566.56 1966.52,1565.16 1965.82,1563.96"/>
<path class="Note" d="M2098.96,1576.46 C2097.46,1573.76 2094.56,1572.06 2090.66,1571.66 C2090.06,1571.56 2089.56,1571.56 2088.96,1571.56 C2085.46,1571.56 2081.66,1572.56 2078.16,1574.46 C2071.56,1578.06 2067.46,1583.96 2067.46,1589.06 C2067.46,1590.46 2067.66,1591.76 2068.36,1592.96 C2069.86,1595.66 2072.86,1597.36 2076.76,1597.76 C2077.36,1597.86 2077.86,1597.86 2078.46,1597.86 C2081.96,1597.86 2085.66,1596.86 2089.16,1594.96 C2095.76,1591.36 2099.96,1585.56 2099.96,1580.46 C2099.96,1579.06 2099.66,1577.66 2098.96,1576.46"/>
<path class="Note" d="M2277.86,1588.96 C2276.36,1586.26 2273.46,1584.56 2269.56,1584.16 C2268.96,1584.06 2268.46,1584.06 2267.86,1584.06 C2264.36,1584.06 2260.56,1585.06 2257.06,1586.96 C2250.46,1590.56 2246.36,1596.46 2246.36,1601.56 C2246.36,1602.96 2246.56,1604.26 2247.26,1605.46 C2248.76,1608.16 2251.76,1609.86 2255.66,1610.26 C2256.26,1610.36 2256.76,1610.36 2257.36,1610.36 C2260.86,1610.36 2264.56,1609.36 2268.06,1607.46 C2274.66,1603.86 2278.86,1598.06 2278.86,1592.96 C2278.86,1591.56 2278.56,1590.16 2277.86,1588.96"/>
<path class="Note" d="M2442.64,1601.46 C2441.14,1598.76 2438.24,1597.06 2434.34,1596.66 C2433.74,1596.56 2433.24,1596.56 2432.64,1596.56 C2429.14,1596.56 2425.34,1597.56 2421.84,1599.46 C2415.24,1603.06 2411.14,1608.86 2411.14,1613.96 C2411.14,1615.36 2411.54,1616.76 2412.24,1617.96 C2413.74,1620.76 2416.54,1622.36 2420.44,1622.76 C2421.04,1622.86 2421.54,1622.86 2422.14,1622.86 C2425.64,1622.86 2429.44,1621.86 2432.94,1619.96 C2439.54,1616.36 2443.64,1610.46 2443.64,1605.36 C2443.64,1603.96 2443.34,1602.66 2442.64,1601.46 M2438.44,1607.76 C2436.74,1609.56 2433.54,1611.86 2429.94,1613.96 C2426.34,1616.06 2422.64,1617.76 2420.34,1618.46 C2419.84,1618.56 2419.24,1618.66 2418.74,1618.66 C2417.24,1618.66 2415.94,1617.96 2415.24,1616.86 C2414.94,1616.26 2414.74,1615.66 2414.74,1615.06 C2414.74,1613.96 2415.24,1612.86 2416.34,1611.66 C2418.04,1609.86 2421.24,1607.46 2424.84,1605.36 C2428.44,1603.26 2432.14,1601.56 2434.54,1600.96 L2434.74,1600.96 C2435.34,1600.76 2435.84,1600.66 2436.34,1600.66 C2437.74,1600.66 2438.84,1601.26 2439.54,1602.56 C2439.84,1603.16 2440.04,1603.66 2440.04,1604.26 C2440.04,1605.56 2439.34,1606.86 2438.44,1607.76"/>
<path class="Note" d="M521.801,788.907 C520.301,786.207 517.401,784.507 513.501,784.107 C512.901,784.007 512.401,784.007 511.801,784.007 C508.301,784.007 504.501,785.007 501.001,786.907 C494.401,790.507 490.301,796.407 490.301,801.507 C490.301,802.907 490.501,804.207 491.201,805.407 C492.701,808.107 495.701,809.807 499.601,810.207 C500.201,810.307 500.701,810.307 501.301,810.307 C504.801,810.307 508.501,809.307 512.001,807.407 C518.601,803.807 522.801,798.007 522.801,792.907 C522.801,791.507 522.501,790.107 521.801,788.907"/>
<path class="Note" d="M658.612,776.406 C657.112,773.706 654.212,772.006 650.312,771.606 C649.712,771.506 649.212,771.506 648.612,771.506 C645.112,771.506 641.312,772.506 637.812,774.406 C631.212,778.006 627.112,783.906 627.112,789.006 C627.112,790.406 627.312,791.706 628.012,792.906 C629.512,795.606 632.512,797.306 636.412,797.706 C637.012,797.806 637.512,797.806 638.112,797.806 C641.612,797.806 645.312,796.806 648.812,794.906 C655.412,791.306 659.612,785.506 659.612,780.406 C659.612,779.006 659.312,777.606 658.612,776.406"/>
<path class="Note" d="M795.423,763.906 C793.923,761.206 791.023,759.506 787.123,759.106 C786.523,759.006 786.023,759.006 785.423,759.006 C781.923,759.006 778.123,760.006 774.623,761.906 C768.023,765.506 763.923,771.406 763.923,776.506 C763.923,777.906 764.123,779.206 764.823,780.406 C766.323,783.106 769.323,784.806 773.223,785.206 C773.823,785.306 774.323,785.306 774.923,785.306 C778.423,785.306 782.123,784.306 785.623,782.406 C792.223,778.806 796.423,773.006 796.423,767.906 C796.423,766.506 796.123,765.106 795.423,763.906"/>
<path class="Note" d="M932.234,751.405 C930.734,748.705 927.834,747.005 923.934,746.605 C923.334,746.505 922.834,746.505 922.234,746.505 C918.734,746.505 914.934,747.505 911.434,749.405 C904.834,753.005 900.734,758.905 900.734,764.005 C900.734,765.405 900.934,766.705 901.634,767.905 C903.134,770.605 906.134,772.305 910.034,772.705 C910.634,772.805 911.134,772.805 911.734,772.805 C915.234,772.805 918.934,771.805 922.434,769.905 C929.034,766.305 933.234,760.505 933.234,755.405 C933.234,754.005 932.934,752.605 932.234,751.405"/>
<path class="Note" d="M1106.05,738.904 C1104.55,736.204 1101.65,734.504 1097.75,734.104 C1097.15,734.004 1096.65,734.004 1096.05,734.004 C1092.55,734.004 1088.75,735.004 1085.25,736.904 C1078.65,740.504 1074.55,746.404 1074.55,751.504 C1074.55,752.904 1074.75,754.204 1075.45,755.404 C1076.95,758.104 1079.95,759.804 1083.85,760.204 C1084.45,760.304 1084.95,760.304 1085.55,760.304 C1089.05,760.304 1092.75,759.304 1096.25,757.404 C1102.85,753.804 1107.05,748.004 1107.05,742.904 C1107.05,741.504 1106.75,740.104 1106.05,738.904"/>
<path class="Note" d="M1234.98,726.403 C1233.48,723.703 1230.58,722.003 1226.68,721.603 C1226.08,721.503 1225.58,721.503 1224.98,721.503 C1221.48,721.503 1217.68,722.503 1214.18,724.403 C1207.58,728.003 1203.48,733.903 1203.48,739.003 C1203.48,740.403 1203.68,741.703 1204.38,742.903 C1205.88,745.603 1208.88,747.303 1212.78,747.703 C1213.38,747.803 1213.88,747.803 1214.48,747.803 C1217.98,747.803 1221.68,746.803 1225.18,744.903 C1231.78,741.303 1235.98,735.503 1235.98,730.403 C1235.98,729.003 1235.68,727.603 1234.98,726.403"/>
<path class="Note" d="M1363.92,713.902 C1362.42,711.202 1359.52,709.502 1355.62,709.102 C1355.02,709.002 1354.52,709.002 1353.92,709.002 C1350.42,709.002 1346.62,710.002 1343.12,711.902 C1336.52,715.502 1332.42,721.402 1332.42,726.502 C1332.42,727.902 1332.62,729.202 1333.32,730.402 C1334.82,733.102 1337.82,734.802 1341.72,735.202 C1342.32,735.302 1342.82,735.302 1343.42,735.302 C1346.92,735.302 1350.62,734.302 1354.12,732.402 C1360.72,728.802 1364.92,723.002 1364.92,717.902 C1364.92,716.502 1364.62,715.102 1363.92,713.902"/>
<path class="Note" d="M1492.85,701.402 C1491.35,698.702 1488.45,697.002 1484.55,696.602 C1483.95,696.502 1483.45,696.502 1482.85,696.502 C1479.35,696.502 1475.55,697.502 1472.05,699.402 C1465.45,703.002 1461.35,708.902 1461.35,714.002 C1461.35,715.402 1461.55,716.702 1462.25,717.902 C1463.75,720.602 1466.75,722.302 1470.65,722.702 C1471.25,722.802 1471.75,722.802 1472.35,722.802 C1475.85,722.802 1479.55,721.802 1483.05,719.902 C1489.65,716.302 1493.85,710.502 1493.85,705.402 C1493.85,704.002 1493.55,702.602 1492.85,701.402"/>
<path class="Note" d="M1731.24,688.901 C1729.74,686.201 1726.84,684.501 1722.94,684.101 C1722.34,684.001 1721.84,684.001 1721.24,684.001 C1717.74,684.001 1713.94,685.001 1710.44,686.901 C1703.84,690.501 1699.74,696.401 1699.74,701.501 C1699.74,702.901 1699.94,704.201 1700.64,705.401 C1702.14,708.101 1705.14,709.801 1709.04,710.201 C1709.64,710.301 1710.14,710.301 1710.74,710.301 C1714.24,710.301 1717.94,709.301 1721.44,707.401 C1728.04,703.801 1732.24,698.001 1732.24,692.901 C1732.24,691.501 1731.94,690.101 1731.24,688.901"/>
<path class="Note" d="M1862.8,676.4 C1861.3,673.7 1858.4,672 1854.5,671.6 C1853.9,671.5 1853.4,671.5 1852.8,671.5 C1849.3,671.5 1845.5,672.5 1842,674.4 C1835.4,678 1831.3,683.9 1831.3,689 C1831.3,690.4 1831.5,691.7 1832.2,692.9 C1833.7,695.6 1836.7,697.3 1840.6,697.7 C1841.2,697.8 1841.7,697.8 1842.3,697.8 C1845.8,697.8 1849.5,696.8 1853,694.9 C1859.6,691.3 1863.8,685.5 1863.8,680.4 C1863.8,679 1863.5,677.6 1862.8,676.4"/>
<path class="Note" d="M1994.36,663.899 C1992.86,661.199 1989.96,659.499 1986.06,659.099 C1985.46,658.999 1984.96,658.999 1984.36,658.999 C1980.86,658.999 1977.06,659.999 1973.56,661.899 C1966.96,665.499 1962.86,671.399 1962.86,676.499 C1962.86,677.899 1963.06,679.199 1963.76,680.399 C1965.26,683.099 1968.26,684.799 1972.16,685.199 C1972.76,685.299 1973.26,685.299 1973.86,685.299 C1977.36,685.299 1981.06,684.299 1984.56,682.399 C1991.16,678.799 1995.36,672.999 1995.36,667.899 C1995.36,666.499 1995.06,665.099 1994.36,663.899"/>
<path class="Note" d="M2125.92,651.398 C2124.42,648.698 2121.52,646.998 2117.62,646.598 C2117.02,646.498 2116.52,646.498 2115.92,646.498 C2112.42,646.498 2108.62,647.498 2105.12,649.398 C2098.52,652.998 2094.42,658.898 2094.42,663.998 C2094.42,665.398 2094.62,666.698 2095.32,667.898 C2096.82,670.598 2099.82,672.298 2103.72,672.698 C2104.32,672.798 2104.82,672.798 2105.42,672.798 C2108.92,672.798 2112.62,671.798 2116.12,669.898 C2122.72,666.298 2126.92,660.498 2126.92,655.398 C2126.92,653.998 2126.62,652.598 2125.92,651.398"/>
<path class="Note" d="M2294.48,638.898 C2292.98,636.198 2290.08,634.498 2286.18,634.098 C2285.58,633.998 2285.08,633.998 2284.48,633.998 C2280.98,633.998 2277.18,634.998 2273.68,636.898 C2267.08,640.498 2262.98,646.398 2262.98,651.498 C2262.98,652.898 2263.18,654.198 2263.88,655.398 C2265.38,658.098 2268.38,659.798 2272.28,660.198 C2272.88,660.298 2273.38,660.298 2273.98,660.298 C2277.48,660.298 2281.18,659.298 2284.68,657.398 C2291.28,653.798 2295.48,647.998 2295.48,642.898 C2295.48,641.498 2295.18,640.098 2294.48,638.898"/>
<path class="Note" d="M2432.58,626.397 C2431.08,623.697 2428.18,621.997 2424.28,621.597 C2423.68,621.497 2423.18,621.497 2422.58,621.497 C2419.08,621.497 2415.28,622.497 2411.78,624.397 C2405.18,627.997 2401.08,633.897 2401.08,638.997 C2401.08,640.397 2401.28,641.697 2401.98,642.897 C2403.48,645.597 2406.48,647.297 2410.38,647.697 C2410.98,647.797 2411.48,647.797 2412.08,647.797 C2415.58,647.797 2419.28,646.797 2422.78,644.897 C2429.38,641.297 2433.58,635.497 2433.58,630.397 C2433.58,628.997 2433.28,627.597 2432.58,626.397"/>
<path class="Note" d="M2570.68,613.896 C2569.18,611.196 2566.28,609.496 2562.38,609.096 C2561.78,608.996 2561.28,608.996 2560.68,608.996 C2557.18,608.996 2553.38,609.996 2549.88,611.896 C2543.28,615.496 2539.18,621.296 2539.18,626.396 C2539.18,627.796 2539.58,629.196 2540.28,630.396 C2541.78,633.196 2544.58,634.796 2548.48,635.196 C2549.08,635.296 2549.58,635.296 2550.18,635.296 C2553.68,635.296 2557.48,634.296 2560.98,632.396 C2567.58,628.796 2571.68,622.896 2571.68,617.796 C2571.68,616.396 2571.38,615.096 2570.68,613.896 M2566.48,620.196 C2564.78,621.996 2561.58,624.296 2557.98,626.396 C2554.38,628.496 2550.68,630.196 2548.38,630.896 C2547.88,630.996 2547.28,631.096 2546.78,631.096 C2545.28,631.096 2543.98,630.396 2543.28,629.296 C2542.98,628.696 2542.78,628.096 2542.78,627.496 C2542.78,626.396 2543.28,625.296 2544.38,624.096 C2546.08,622.296 2549.28,619.896 2552.88,617.796 C2556.48,615.696 2560.18,613.996 2562.58,613.396 L2562.78,613.396 C2563.38,613.196 2563.88,613.096 2564.38,613.096 C2565.78,613.096 2566.88,613.696 2567.58,614.996 C2567.88,615.596 2568.08,616.096 2568.08,616.696 C2568.08,617.996 2567.38,619.296 2566.48,620.196"/>
<path class="Note" d="M438.351,1238.94 C436.851,1236.24 433.951,1234.54 430.051,1234.14 C429.451,1234.04 428.951,1234.04 428.351,1234.04 C424.851,1234.04 421.051,1235.04 417.551,1236.94 C410.951,1240.54 406.851,1246.44 406.851,1251.54 C406.851,1252.94 407.051,1254.24 407.751,1255.44 C409.251,1258.14 412.251,1259.84 416.151,1260.24 C416.751,1260.34 417.251,1260.34 417.851,1260.34 C421.351,1260.34 425.051,1259.34 428.551,1257.44 C435.151,1253.84 439.351,1248.04 439.351,1242.94 C439.351,1241.54 439.051,1240.14 438.351,1238.94"/>
<path class="Note" d="M574.12,1251.44 C572.62,1248.74 569.72,1247.04 565.82,1246.64 C565.22,1246.54 564.72,1246.54 564.12,1246.54 C560.62,1246.54 556.82,1247.54 553.32,1249.44 C546.72,1253.04 542.62,1258.94 542.62,1264.04 C542.62,1265.44 542.82,1266.74 543.52,1267.94 C545.02,1270.64 548.02,1272.34 551.92,1272.74 C552.52,1272.84 553.02,1272.84 553.62,1272.84 C557.12,1272.84 560.82,1271.84 564.32,1269.94 C570.92,1266.34 575.12,1260.54 575.12,1255.44 C575.12,1254.04 574.82,1252.64 574.12,1251.44"/>
<path class="Note" d="M709.889,1263.94 C708.389,1261.24 705.489,1259.54 701.589,1259.14 C700.989,1259.04 700.489,1259.04 699.889,1259.04 C696.389,1259.04 692.589,1260.04 689.089,1261.94 C682.489,1265.54 678.389,1271.44 678.389,1276.54 C678.389,1277.94 678.589,1279.24 679.289,1280.44 C680.789,1283.14 683.789,1284.84 687.689,1285.24 C688.289,1285.34 688.789,1285.34 689.389,1285.34 C692.889,1285.34 696.589,1284.34 700.089,1282.44 C706.689,1278.84 710.889,1273.04 710.889,1267.94 C710.889,1266.54 710.589,1265.14 709.889,1263.94"/>
<path class="Note" d="M845.658,1276.44 C844.158,1273.74 841.258,1272.04 837.358,1271.64 C836.758,1271.54 836.258,1271.54 835.658,1271.54 C832.158,1271.54 828.358,1272.54 824.858,1274.44 C818.258,1278.04 814.158,1283.94 814.158,1289.04 C814.158,1290.44 814.358,1291.74 815.058,1292.94 C816.558,1295.64 819.558,1297.34 823.458,1297.74 C824.058,1297.84 824.558,1297.84 825.158,1297.84 C828.658,1297.84 832.358,1296.84 835.858,1294.94 C842.458,1291.34 846.658,1285.54 846.658,1280.44 C846.658,1279.04 846.358,1277.64 845.658,1276.44"/>
<path class="Note" d="M1018.43,1288.94 C1016.93,1286.24 1014.03,1284.54 1010.13,1284.14 C1009.53,1284.04 1009.03,1284.04 1008.43,1284.04 C1004.93,1284.04 1001.13,1285.04 997.629,1286.94 C991.029,1290.54 986.929,1296.44 986.929,1301.54 C986.929,1302.94 987.129,1304.24 987.829,1305.44 C989.329,1308.14 992.329,1309.84 996.229,1310.24 C996.829,1310.34 997.329,1310.34 997.929,1310.34 C1001.43,1310.34 1005.13,1309.34 1008.63,1307.44 C1015.23,1303.84 1019.43,1298.04 1019.43,1292.94 C1019.43,1291.54 1019.13,1290.14 1018.43,1288.94"/>
<path class="Note" d="M1163.05,1301.44 C1161.55,1298.74 1158.65,1297.04 1154.75,1296.64 C1154.15,1296.54 1153.65,1296.54 1153.05,1296.54 C1149.55,1296.54 1145.75,1297.54 1142.25,1299.44 C1135.65,1303.04 1131.55,1308.94 1131.55,1314.04 C1131.55,1315.44 1131.75,1316.74 1132.45,1317.94 C1133.95,1320.64 1136.95,1322.34 1140.85,1322.74 C1141.45,1322.84 1141.95,1322.84 1142.55,1322.84 C1146.05,1322.84 1149.75,1321.84 1153.25,1319.94 C1159.85,1316.34 1164.05,1310.54 1164.05,1305.44 C1164.05,1304.04 1163.75,1302.64 1163.05,1301.44"/>
<path class="Note" d="M1307.67,1313.94 C1306.17,1311.24 1303.27,1309.54 1299.37,1309.14 C1298.77,1309.04 1298.27,1309.04 1297.67,1309.04 C1294.17,1309.04 1290.37,1310.04 1286.87,1311.94 C1280.27,1315.54 1276.17,1321.44 1276.17,1326.54 C1276.17,1327.94 1276.37,1329.24 1277.07,1330.44 C1278.57,1333.14 1281.57,1334.84 1285.47,1335.24 C1286.07,1335.34 1286.57,1335.34 1287.17,1335.34 C1290.67,1335.34 1294.37,1334.34 1297.87,1332.44 C1304.47,1328.84 1308.67,1323.04 1308.67,1317.94 C1308.67,1316.54 1308.37,1315.14 1307.67,1313.94"/>
<path class="Note" d="M1452.29,1326.44 C1450.79,1323.74 1447.89,1322.04 1443.99,1321.64 C1443.39,1321.54 1442.89,1321.54 1442.29,1321.54 C1438.79,1321.54 1434.99,1322.54 1431.49,1324.44 C1424.89,1328.04 1420.79,1333.94 1420.79,1339.04 C1420.79,1340.44 1420.99,1341.74 1421.69,1342.94 C1423.19,1345.64 1426.19,1347.34 1430.09,1347.74 C1430.69,1347.84 1431.19,1347.84 1431.79,1347.84 C1435.29,1347.84 1438.99,1346.84 1442.49,1344.94 C1449.09,1341.34 1453.29,1335.54 1453.29,1330.44 C1453.29,1329.04 1452.99,1327.64 1452.29,1326.44"/>
<path class="Note" d="M1699.53,1338.94 C1698.03,1336.24 1695.13,1334.54 1691.23,1334.14 C1690.63,1334.04 1690.13,1334.04 1689.53,1334.04 C1686.03,1334.04 1682.23,1335.04 1678.73,1336.94 C1672.13,1340.54 1668.03,1346.44 1668.03,1351.54 C1668.03,1352.94 1668.23,1354.24 1668.93,1355.44 C1670.43,1358.14 1673.43,1359.84 1677.33,1360.24 C1677.93,1360.34 1678.43,1360.34 1679.03,1360.34 C1682.53,1360.34 1686.23,1359.34 1689.73,1357.44 C1696.33,1353.84 1700.53,1348.04 1700.53,1342.94 C1700.53,1341.54 1700.23,1340.14 1699.53,1338.94"/>
<path class="Note" d="M1832.68,1351.44 C1831.18,1348.74 1828.28,1347.04 1824.38,1346.64 C1823.78,1346.54 1823.28,1346.54 1822.68,1346.54 C1819.18,1346.54 1815.38,1347.54 1811.88,1349.44 C1805.28,1353.04 1801.18,1358.94 1801.18,1364.04 C1801.18,1365.44 1801.38,1366.74 1802.08,1367.94 C1803.58,1370.64 1806.58,1372.34 1810.48,1372.74 C1811.08,1372.84 1811.58,1372.84 1812.18,1372.84 C1815.68,1372.84 1819.38,1371.84 1822.88,1369.94 C1829.48,1366.34 1833.68,1360.54 1833.68,1355.44 C1833.68,1354.04 1833.38,1352.64 1832.68,1351.44"/>
<path class="Note" d="M1965.82,1363.94 C1964.32,1361.24 1961.42,1359.54 1957.52,1359.14 C1956.92,1359.04 1956.42,1359.04 1955.82,1359.04 C1952.32,1359.04 1948.52,1360.04 1945.02,1361.94 C1938.42,1365.54 1934.32,1371.44 1934.32,1376.54 C1934.32,1377.94 1934.52,1379.24 1935.22,1380.44 C1936.72,1383.14 1939.72,1384.84 1943.62,1385.24 C1944.22,1385.34 1944.72,1385.34 1945.32,1385.34 C1948.82,1385.34 1952.52,1384.34 1956.02,1382.44 C1962.62,1378.84 1966.82,1373.04 1966.82,1367.94 C1966.82,1366.54 1966.52,1365.14 1965.82,1363.94"/>
<path class="Note" d="M2098.96,1376.44 C2097.46,1373.74 2094.56,1372.04 2090.66,1371.64 C2090.06,1371.54 2089.56,1371.54 2088.96,1371.54 C2085.46,1371.54 2081.66,1372.54 2078.16,1374.44 C2071.56,1378.04 2067.46,1383.94 2067.46,1389.04 C2067.46,1390.44 2067.66,1391.74 2068.36,1392.94 C2069.86,1395.64 2072.86,1397.34 2076.76,1397.74 C2077.36,1397.84 2077.86,1397.84 2078.46,1397.84 C2081.96,1397.84 2085.66,1396.84 2089.16,1394.94 C2095.76,1391.34 2099.96,1385.54 2099.96,1380.44 C2099.96,1379.04 2099.66,1377.64 2098.96,1376.44"/>
<path class="Note" d="M2277.86,1388.94 C2276.36,1386.24 2273.46,1384.54 2269.56,1384.14 C2268.96,1384.04 2268.46,1384.04 2267.86,1384.04 C2264.36,1384.04 2260.56,1385.04 2257.06,1386.94 C2250.46,1390.54 2246.36,1396.44 2246.36,1401.54 C2246.36,1402.94 2246.56,1404.24 2247.26,1405.44 C2248.76,1408.14 2251.76,1409.84 2255.66,1410.24 C2256.26,1410.34 2256.76,1410.34 2257.36,1410.34 C2260.86,1410.34 2264.56,1409.34 2268.06,1407.44 C2274.66,1403.84 2278.86,1398.04 2278.86,1392.94 C2278.86,1391.54 2278.56,1390.14 2277.86,1388.94"/>
<path class="Note" d="M2442.64,1401.45 C2441.14,1398.75 2438.24,1397.05 2434.34,1396.65 C2433.74,1396.55 2433.24,1396.55 2432.64,1396.55 C2429.14,1396.55 2425.34,1397.55 2421.84,1399.45 C2415.24,1403.05 2411.14,1408.85 2411.14,1413.95 C2411.14,1415.35 2411.54,1416.75 2412.24,1417.95 C2413.74,1420.75 2416.54,1422.35 2420.44,1422.75 C2421.04,1422.85 2421.54,1422.85 2422.14,1422.85 C2425.64,1422.85 2429.44,1421.85 2432.94,1419.95 C2439.54,1416.35 2443.64,1410.45 2443.64,1405.35 C2443.64,1403.95 2443.34,1402.65 2442.64,1401.45 M2438.44,1407.75 C2436.74,1409.55 2433.54,1411.85 2429.94,1413.95 C2426.34,1416.05 2422.64,1417.75 2420.34,1418.45 C2419.84,1418.55 2419.24,1418.65 2418.74,1418.65 C2417.24,1418.65 2415.94,1417.95 2415.24,1416.85 C2414.94,1416.25 2414.74,1415.65 2414.74,1415.05 C2414.74,1413.95 2415.24,1412.85 2416.34,1411.65 C2418.04,1409.85 2421.24,1407.45 2424.84,1405.35 C2428.44,1403.25 2432.14,1401.55 2434.54,1400.95 L2434.74,1400.95 C2435.34,1400.75 2435.84,1400.65 2436.34,1400.65 C2437.74,1400.65 2438.84,1401.25 2439.54,1402.55 C2439.84,1403.15 2440.04,1403.65 2440.04,1404.25 C2440.04,1405.55 2439.34,1406.85 2438.44,1407.75"/>
<path class="Clef" d="M297,922.017 C289.4,922.017 283.3,926.417 283.2,926.417 C277.4,930.717 275.1,935.817 274.2,939.317 C273.7,941.117 273.5,942.917 273.5,944.617 C273.5,947.017 273.9,949.217 274.8,951.117 C276,953.817 278.3,955.717 281.3,956.717 C282.5,957.117 283.8,957.317 285.1,957.317 C287.3,957.317 289.6,956.717 291.5,955.617 C294.6,953.917 296.5,950.317 296.5,946.417 C296.5,942.917 294.7,939.717 291.7,937.817 C289.6,936.417 287.6,936.017 285.9,936.017 C284.7,936.017 283.6,936.217 282.7,936.517 C281.7,936.917 280,937.917 279.2,938.617 C279.5,936.717 280.7,933.817 281.8,932.217 C282.9,930.617 285.1,928.617 286.8,927.717 C289.3,926.317 292.5,925.717 296,925.717 C306.2,925.717 311.2,933.917 311.2,950.717 C311.2,960.017 307.7,968.917 304.7,974.817 C301.4,981.417 297,987.717 293.1,991.217 C282.7,1000.72 272.9,1005.22 272.8,1005.22 C272.8,1005.22 271.3,1006.12 271.7,1007.62 C272,1008.62 272.9,1008.82 273.5,1008.82 C273.6,1008.82 273.9,1008.72 274,1008.72 C274.1,1008.72 285.5,1004.02 294.6,996.917 C299.7,993.217 304.3,989.217 308.3,984.917 C311.9,981.017 315,976.817 317.5,972.617 C321.9,965.117 324.4,957.317 324.4,950.617 C324.4,942.317 322.2,935.417 318.1,930.517 C313.4,924.917 306.3,922.017 297,922.017 M328.4,934.717 C328.4,937.517 330.6,939.717 333.2,939.717 C335.8,939.717 338,937.517 338,934.717 C338,931.917 335.8,929.617 333.2,929.617 C330.6,929.617 328.4,931.917 328.4,934.717 M328.4,959.417 C328.4,962.217 330.6,964.517 333.2,964.517 C335.8,964.517 338,962.217 338,959.417 C338,956.617 335.8,954.317 333.2,954.317 C330.6,954.317 328.4,956.617 328.4,959.417"/>
<path class="Clef" transform="matrix(0.80005,0,0,0.80005,1614.79,997.12)" d="M63.4,-5.9 C62.2,-11.3 59.5,-15.2 58.7,-16.2 C55.5,-20.5 51.5,-23.3 46.8,-24.7 C44.5,-25.4 42.4,-25.6 40.4,-25.6 C39.7,-25.6 39,-25.6 38.3,-25.5 C37.3,-31.5 36.2,-37.4 35.3,-42.8 C40.9,-49 44.6,-54.9 47,-59.3 C50.6,-66 52,-70.7 52.1,-70.9 C53.3,-73.9 54,-77.7 54,-82.2 C54,-84.9 53.7,-87.8 53.3,-90.8 C52.2,-97.9 50,-104.6 47.5,-108.3 C46.2,-110.2 45,-111.3 43.8,-111.3 C42.6,-111.3 40.1,-110.1 37.2,-107.3 C34.9,-105.1 31.6,-101.2 29,-95.2 C26.7,-89.8 26,-82.9 26,-77 C26,-75.2 26.1,-73.5 26.2,-71.9 C26.4,-68.3 27.1,-62.5 27.7,-58.9 C27.7,-58.8 28,-57.3 28.4,-54.7 L27.7,-54 C26.7,-53 25.5,-51.9 24.1,-50.5 C23.2,-49.6 22.3,-48.8 21.3,-47.8 C12.8,-39.6 0,-27.2 0,-8.1 C0,-3.4 0.9,1 2.7,5 C4.3,8.6 6.6,11.9 9.5,14.8 C17,22.2 27.2,25.4 34.3,25.4 L34.9,25.4 C37.8,25.3 40.5,25 42.9,24.6 C44.7,34.2 45.9,41.3 45.9,46.6 C45.9,53.1 44.3,57 40.4,59.8 C38,61.5 35.1,62.6 32,62.7 L31.2,62.7 C29.7,62.7 27.2,62.3 25.7,61.9 C25.7,61.9 25.4,61.8 25.4,61.6 C25.4,61.4 25.8,61.4 25.8,61.4 C27.7,61 31.3,59.7 33.7,56.4 C34.8,54.9 35.5,52.6 35.5,50.1 C35.5,48.5 35.2,46.8 34.5,45.3 C33.4,42.9 30.8,39.9 25.2,39.5 L24.1,39.5 C22,39.5 20.2,40 18.5,41 C16.7,42.1 15.1,43.8 14.1,45.8 C13,47.8 12.5,50 12.5,52.2 C12.5,55.1 13.4,57.8 15.2,60 C18.2,63.6 22.9,65.9 28.3,66.5 C29,66.6 30.1,66.7 30.8,66.7 C35.2,66.7 39.6,65.5 43.2,63.3 C46.9,60.7 49,56.7 49.7,51.1 C49.9,49.8 49.9,48.4 49.9,46.9 C49.9,43 49.4,38.3 48.4,32.5 C48,30.4 47.6,27.4 46.9,23.6 C52.7,21.7 56.8,18 60.6,12.2 C62.9,8.2 64,4.1 64,-0.2 C64,-2.1 63.8,-4 63.4,-5.9 M33.2,-83.8 C35,-89.5 37.7,-92.9 39.7,-94.6 C41.5,-96.1 43.1,-96.8 44,-96.8 C44.1,-96.8 44.3,-96.7 44.4,-96.7 C44.7,-96.6 45.1,-96.1 45.5,-95.4 C46.4,-93.6 47.3,-90.3 47.3,-86.6 C47.3,-84.7 47.1,-82.7 46.5,-80.9 C44.3,-74.1 39.7,-66.8 32.7,-59.1 C32.5,-60.2 32.3,-61.2 32.2,-62.2 C31.7,-65.4 31.4,-68.6 31.4,-71.5 C31.4,-76 32,-80.1 33.2,-83.8 M29.2,20.3 C24.6,19.1 20.1,16.6 16.3,13.1 C15,11.9 13.2,9.7 11.7,6.3 C10.4,3.3 9.7,0.2 9.7,-3.2 L9.7,-3.9 C9.8,-8.6 11.1,-13.4 13.6,-18.2 C16.5,-23.8 21,-29.3 27.1,-34.6 C28.6,-35.9 30,-37.2 31.3,-38.5 C32.1,-34.2 32.8,-29.5 33.7,-24.6 C29.8,-23.3 25.1,-20.3 22,-14.6 C19.6,-10.1 18.9,-6.2 18.9,-3 C18.9,-1.5 19.1,-0.1 19.3,1 C20.2,5.5 22.8,9.2 26.3,11.3 C27.1,11.8 30.4,13.5 32.4,13.5 C32.7,13.5 33,13.5 33.2,13.4 C33.5,13.3 33.8,13.1 33.9,12.8 C34,12.6 34,12.4 34,12.2 C34,11.4 33.2,10.8 31.9,10 C31.3,9.6 30.6,9.2 29.9,8.7 C27.3,6.7 25.8,3.6 25.8,0.2 C25.8,-0.8 26,-1.7 26.2,-2.7 C26.7,-4.7 28.4,-7.5 29.9,-8.9 C31.6,-10.4 33.6,-11.6 36,-12.2 C38,-1 40.1,10.1 41.7,18.5 C41.8,19.2 42,19.9 42.1,20.6 C40.1,21 38.1,21.2 36.2,21.2 C33.8,21.2 31.5,20.9 29.2,20.3 M54.9,10.1 C53.7,13.3 51.2,17.3 46.1,19.4 C46,19 46,18.5 45.9,18.1 C44.4,9.3 42.5,-1.6 40.5,-12.9 L41.5,-12.9 C51.2,-12.9 55.1,-5.7 56,-1.1 C56.2,-0.2 56.3,1 56.3,2.3 C56.3,4.6 55.9,7.4 54.9,10.1"/>
<path class="Clef" d="M335,1603.76 C333.8,1598.36 331.1,1594.46 330.3,1593.46 C327.1,1589.16 323.1,1586.36 318.4,1584.96 C316.1,1584.26 314,1584.06 312,1584.06 C311.3,1584.06 310.6,1584.06 309.9,1584.16 C308.9,1578.16 307.8,1572.26 306.9,1566.86 C312.5,1560.66 316.2,1554.76 318.6,1550.36 C322.2,1543.66 323.6,1538.96 323.7,1538.76 C324.9,1535.76 325.6,1531.96 325.6,1527.46 C325.6,1524.76 325.3,1521.86 324.9,1518.86 C323.8,1511.76 321.6,1505.06 319.1,1501.36 C317.8,1499.46 316.6,1498.36 315.4,1498.36 C314.2,1498.36 311.7,1499.56 308.8,1502.36 C306.5,1504.56 303.2,1508.46 300.6,1514.46 C298.3,1519.86 297.6,1526.76 297.6,1532.66 C297.6,1534.46 297.7,1536.16 297.8,1537.76 C298,1541.36 298.7,1547.16 299.3,1550.76 C299.3,1550.86 299.6,1552.36 300,1554.96 L299.3,1555.66 C298.3,1556.66 297.1,1557.76 295.7,1559.16 C294.8,1560.06 293.9,1560.86 292.9,1561.86 C284.4,1570.06 271.6,1582.46 271.6,1601.56 C271.6,1606.26 272.5,1610.66 274.3,1614.66 C275.9,1618.26 278.2,1621.56 281.1,1624.46 C288.6,1631.86 298.8,1635.06 305.9,1635.06 L306.5,1635.06 C309.4,1634.96 312.1,1634.66 314.5,1634.26 C316.3,1643.86 317.5,1650.96 317.5,1656.26 C317.5,1662.76 315.9,1666.66 312,1669.46 C309.6,1671.16 306.7,1672.26 303.6,1672.36 L302.8,1672.36 C301.3,1672.36 298.8,1671.96 297.3,1671.56 C297.3,1671.56 297,1671.46 297,1671.26 C297,1671.06 297.4,1671.06 297.4,1671.06 C299.3,1670.66 302.9,1669.36 305.3,1666.06 C306.4,1664.56 307.1,1662.26 307.1,1659.76 C307.1,1658.16 306.8,1656.46 306.1,1654.96 C305,1652.56 302.4,1649.56 296.8,1649.16 L295.7,1649.16 C293.6,1649.16 291.8,1649.66 290.1,1650.66 C288.3,1651.76 286.7,1653.46 285.7,1655.46 C284.6,1657.46 284.1,1659.66 284.1,1661.86 C284.1,1664.76 285,1667.46 286.8,1669.66 C289.8,1673.26 294.5,1675.56 299.9,1676.16 C300.6,1676.26 301.7,1676.36 302.4,1676.36 C306.8,1676.36 311.2,1675.16 314.8,1672.96 C318.5,1670.36 320.6,1666.36 321.3,1660.76 C321.5,1659.46 321.5,1658.06 321.5,1656.56 C321.5,1652.66 321,1647.96 320,1642.16 C319.6,1640.06 319.2,1637.06 318.5,1633.26 C324.3,1631.36 328.4,1627.66 332.2,1621.86 C334.5,1617.86 335.6,1613.76 335.6,1609.46 C335.6,1607.56 335.4,1605.66 335,1603.76 M304.8,1525.86 C306.6,1520.16 309.3,1516.76 311.3,1515.06 C313.1,1513.56 314.7,1512.86 315.6,1512.86 C315.7,1512.86 315.9,1512.96 316,1512.96 C316.3,1513.06 316.7,1513.56 317.1,1514.26 C318,1516.06 318.9,1519.36 318.9,1523.06 C318.9,1524.96 318.7,1526.96 318.1,1528.76 C315.9,1535.56 311.3,1542.86 304.3,1550.56 C304.1,1549.46 303.9,1548.46 303.8,1547.46 C303.3,1544.26 303,1541.06 303,1538.16 C303,1533.66 303.6,1529.56 304.8,1525.86 M300.8,1629.96 C296.2,1628.76 291.7,1626.26 287.9,1622.76 C286.6,1621.56 284.8,1619.36 283.3,1615.96 C282,1612.96 281.3,1609.86 281.3,1606.46 L281.3,1605.76 C281.4,1601.06 282.7,1596.26 285.2,1591.46 C288.1,1585.86 292.6,1580.36 298.7,1575.06 C300.2,1573.76 301.6,1572.46 302.9,1571.16 C303.7,1575.46 304.4,1580.16 305.3,1585.06 C301.4,1586.36 296.7,1589.36 293.6,1595.06 C291.2,1599.56 290.5,1603.46 290.5,1606.66 C290.5,1608.16 290.7,1609.56 290.9,1610.66 C291.8,1615.16 294.4,1618.86 297.9,1620.96 C298.7,1621.46 302,1623.16 304,1623.16 C304.3,1623.16 304.6,1623.16 304.8,1623.06 C305.1,1622.96 305.4,1622.76 305.5,1622.46 C305.6,1622.26 305.6,1622.06 305.6,1621.86 C305.6,1621.06 304.8,1620.46 303.5,1619.66 C302.9,1619.26 302.2,1618.86 301.5,1618.36 C298.9,1616.36 297.4,1613.26 297.4,1609.86 C297.4,1608.86 297.6,1607.96 297.8,1606.96 C298.3,1604.96 300,1602.16 301.5,1600.76 C303.2,1599.26 305.2,1598.06 307.6,1597.46 C309.6,1608.66 311.7,1619.76 313.3,1628.16 C313.4,1628.86 313.6,1629.56 313.7,1630.26 C311.7,1630.66 309.7,1630.86 307.8,1630.86 C305.4,1630.86 303.1,1630.56 300.8,1629.96 M326.5,1619.76 C325.3,1622.96 322.8,1626.96 317.7,1629.06 C317.6,1628.66 317.6,1628.16 317.5,1627.76 C316,1618.96 314.1,1608.06 312.1,1596.76 L313.1,1596.76 C322.8,1596.76 326.7,1603.96 327.6,1608.56 C327.8,1609.46 327.9,1610.66 327.9,1611.96 C327.9,1614.26 327.5,1617.06 326.5,1619.76"/>
<path class="Clef" transform="matrix(0.80005,0,0,0.80005,1589.91,1559.66)" d="M25.4,-25.1 C17.8,-25.1 11.7,-20.7 11.6,-20.7 C5.8,-16.4 3.5,-11.3 2.6,-7.8 C2.1,-6 1.9,-4.2 1.9,-2.5 C1.9,-0.1 2.3,2.1 3.2,4 C4.4,6.7 6.7,8.6 9.7,9.6 C10.9,10 12.2,10.2 13.5,10.2 C15.7,10.2 18,9.6 19.9,8.5 C23,6.8 24.9,3.2 24.9,-0.7 C24.9,-4.2 23.1,-7.4 20.1,-9.3 C18,-10.7 16,-11.1 14.3,-11.1 C13.1,-11.1 12,-10.9 11.1,-10.6 C10.1,-10.2 8.4,-9.2 7.6,-8.5 C7.9,-10.4 9.1,-13.3 10.2,-14.9 C11.3,-16.5 13.5,-18.5 15.2,-19.4 C17.7,-20.8 20.9,-21.4 24.4,-21.4 C34.6,-21.4 39.6,-13.2 39.6,3.6 C39.6,12.9 36.1,21.8 33.1,27.7 C29.8,34.3 25.4,40.6 21.5,44.1 C11.1,53.6 1.3,58.1 1.2,58.1 C1.2,58.1 -0.3,59 0.1,60.5 C0.4,61.5 1.3,61.7 1.9,61.7 C2,61.7 2.3,61.6 2.4,61.6 C2.5,61.6 13.9,56.9 23,49.8 C28.1,46.1 32.7,42.1 36.7,37.8 C40.3,33.9 43.4,29.7 45.9,25.5 C50.3,18 52.8,10.2 52.8,3.5 C52.8,-4.8 50.6,-11.7 46.5,-16.6 C41.8,-22.2 34.7,-25.1 25.4,-25.1 M56.8,-12.4 C56.8,-9.6 59,-7.4 61.6,-7.4 C64.2,-7.4 66.4,-9.6 66.4,-12.4 C66.4,-15.2 64.2,-17.5 61.6,-17.5 C59,-17.5 56.8,-15.2 56.8,-12.4 M56.8,12.3 C56.8,15.1 59,17.4 61.6,17.4 C64.2,17.4 66.4,15.1 66.4,12.3 C66.4,9.5 64.2,7.2 61.6,7.2 C59,7.2 56.8,9.5 56.8,12.3"/>
<path class="Clef" d="M335,728.703 C333.8,723.303 331.1,719.403 330.3,718.403 C327.1,714.103 323.1,711.303 318.4,709.903 C316.1,709.203 314,709.003 312,709.003 C311.3,709.003 310.6,709.003 309.9,709.103 C308.9,703.103 307.8,697.203 306.9,691.803 C312.5,685.603 316.2,679.703 318.6,675.303 C322.2,668.603 323.6,663.903 323.7,663.703 C324.9,660.703 325.6,656.903 325.6,652.403 C325.6,649.703 325.3,646.803 324.9,643.803 C323.8,636.703 321.6,630.003 319.1,626.303 C317.8,624.403 316.6,623.303 315.4,623.303 C314.2,623.303 311.7,624.503 308.8,627.303 C306.5,629.503 303.2,633.403 300.6,639.403 C298.3,644.803 297.6,651.703 297.6,657.603 C297.6,659.403 297.7,661.103 297.8,662.703 C298,666.303 298.7,672.103 299.3,675.703 C299.3,675.803 299.6,677.303 300,679.903 L299.3,680.603 C298.3,681.603 297.1,682.703 295.7,684.103 C294.8,685.003 293.9,685.803 292.9,686.803 C284.4,695.003 271.6,707.403 271.6,726.503 C271.6,731.203 272.5,735.603 274.3,739.603 C275.9,743.203 278.2,746.503 281.1,749.403 C288.6,756.803 298.8,760.003 305.9,760.003 L306.5,760.003 C309.4,759.903 312.1,759.603 314.5,759.203 C316.3,768.803 317.5,775.903 317.5,781.203 C317.5,787.703 315.9,791.603 312,794.403 C309.6,796.103 306.7,797.203 303.6,797.303 L302.8,797.303 C301.3,797.303 298.8,796.903 297.3,796.503 C297.3,796.503 297,796.403 297,796.203 C297,796.003 297.4,796.003 297.4,796.003 C299.3,795.603 302.9,794.303 305.3,791.003 C306.4,789.503 307.1,787.203 307.1,784.703 C307.1,783.103 306.8,781.403 306.1,779.903 C305,777.503 302.4,774.503 296.8,774.103 L295.7,774.103 C293.6,774.103 291.8,774.603 290.1,775.603 C288.3,776.703 286.7,778.403 285.7,780.403 C284.6,782.403 284.1,784.603 284.1,786.803 C284.1,789.703 285,792.403 286.8,794.603 C289.8,798.203 294.5,800.503 299.9,801.103 C300.6,801.203 301.7,801.303 302.4,801.303 C306.8,801.303 311.2,800.103 314.8,797.903 C318.5,795.303 320.6,791.303 321.3,785.703 C321.5,784.403 321.5,783.003 321.5,781.503 C321.5,777.603 321,772.903 320,767.103 C319.6,765.003 319.2,762.003 318.5,758.203 C324.3,756.303 328.4,752.603 332.2,746.803 C334.5,742.803 335.6,738.703 335.6,734.403 C335.6,732.503 335.4,730.603 335,728.703 M304.8,650.803 C306.6,645.103 309.3,641.703 311.3,640.003 C313.1,638.503 314.7,637.803 315.6,637.803 C315.7,637.803 315.9,637.903 316,637.903 C316.3,638.003 316.7,638.503 317.1,639.203 C318,641.003 318.9,644.303 318.9,648.003 C318.9,649.903 318.7,651.903 318.1,653.703 C315.9,660.503 311.3,667.803 304.3,675.503 C304.1,674.403 303.9,673.403 303.8,672.403 C303.3,669.203 303,666.003 303,663.103 C303,658.603 303.6,654.503 304.8,650.803 M300.8,754.903 C296.2,753.703 291.7,751.203 287.9,747.703 C286.6,746.503 284.8,744.303 283.3,740.903 C282,737.903 281.3,734.803 281.3,731.403 L281.3,730.703 C281.4,726.003 282.7,721.203 285.2,716.403 C288.1,710.803 292.6,705.303 298.7,700.003 C300.2,698.703 301.6,697.403 302.9,696.103 C303.7,700.403 304.4,705.103 305.3,710.003 C301.4,711.303 296.7,714.303 293.6,720.003 C291.2,724.503 290.5,728.403 290.5,731.603 C290.5,733.103 290.7,734.503 290.9,735.603 C291.8,740.103 294.4,743.803 297.9,745.903 C298.7,746.403 302,748.103 304,748.103 C304.3,748.103 304.6,748.103 304.8,748.003 C305.1,747.903 305.4,747.703 305.5,747.403 C305.6,747.203 305.6,747.003 305.6,746.803 C305.6,746.003 304.8,745.403 303.5,744.603 C302.9,744.203 302.2,743.803 301.5,743.303 C298.9,741.303 297.4,738.203 297.4,734.803 C297.4,733.803 297.6,732.903 297.8,731.903 C298.3,729.903 300,727.103 301.5,725.703 C303.2,724.203 305.2,723.003 307.6,722.403 C309.6,733.603 311.7,744.703 313.3,753.103 C313.4,753.803 313.6,754.503 313.7,755.203 C311.7,755.603 309.7,755.803 307.8,755.803 C305.4,755.803 303.1,755.503 300.8,754.903 M326.5,744.703 C325.3,747.903 322.8,751.903 317.7,754.003 C317.6,753.603 317.6,753.103 317.5,752.703 C316,743.903 314.1,733.003 312.1,721.703 L313.1,721.703 C322.8,721.703 326.7,728.903 327.6,733.503 C327.8,734.403 327.9,735.603 327.9,736.903 C327.9,739.203 327.5,742.003 326.5,744.703"/>
<path class="Clef" d="M335,1341.24 C333.8,1335.84 331.1,1331.94 330.3,1330.94 C327.1,1326.64 323.1,1323.84 318.4,1322.44 C316.1,1321.74 314,1321.54 312,1321.54 C311.3,1321.54 310.6,1321.54 309.9,1321.64 C308.9,1315.64 307.8,1309.74 306.9,1304.34 C312.5,1298.14 316.2,1292.24 318.6,1287.84 C322.2,1281.14 323.6,1276.44 323.7,1276.24 C324.9,1273.24 325.6,1269.44 325.6,1264.94 C325.6,1262.24 325.3,1259.34 324.9,1256.34 C323.8,1249.24 321.6,1242.54 319.1,1238.84 C317.8,1236.94 316.6,1235.84 315.4,1235.84 C314.2,1235.84 311.7,1237.04 308.8,1239.84 C306.5,1242.04 303.2,1245.94 300.6,1251.94 C298.3,1257.34 297.6,1264.24 297.6,1270.14 C297.6,1271.94 297.7,1273.64 297.8,1275.24 C298,1278.84 298.7,1284.64 299.3,1288.24 C299.3,1288.34 299.6,1289.84 300,1292.44 L299.3,1293.14 C298.3,1294.14 297.1,1295.24 295.7,1296.64 C294.8,1297.54 293.9,1298.34 292.9,1299.34 C284.4,1307.54 271.6,1319.94 271.6,1339.04 C271.6,1343.74 272.5,1348.14 274.3,1352.14 C275.9,1355.74 278.2,1359.04 281.1,1361.94 C288.6,1369.34 298.8,1372.54 305.9,1372.54 L306.5,1372.54 C309.4,1372.44 312.1,1372.14 314.5,1371.74 C316.3,1381.34 317.5,1388.44 317.5,1393.74 C317.5,1400.24 315.9,1404.14 312,1406.94 C309.6,1408.64 306.7,1409.74 303.6,1409.84 L302.8,1409.84 C301.3,1409.84 298.8,1409.44 297.3,1409.04 C297.3,1409.04 297,1408.94 297,1408.74 C297,1408.54 297.4,1408.54 297.4,1408.54 C299.3,1408.14 302.9,1406.84 305.3,1403.54 C306.4,1402.04 307.1,1399.74 307.1,1397.24 C307.1,1395.64 306.8,1393.94 306.1,1392.44 C305,1390.04 302.4,1387.04 296.8,1386.64 L295.7,1386.64 C293.6,1386.64 291.8,1387.14 290.1,1388.14 C288.3,1389.24 286.7,1390.94 285.7,1392.94 C284.6,1394.94 284.1,1397.14 284.1,1399.34 C284.1,1402.24 285,1404.94 286.8,1407.14 C289.8,1410.74 294.5,1413.04 299.9,1413.64 C300.6,1413.74 301.7,1413.84 302.4,1413.84 C306.8,1413.84 311.2,1412.64 314.8,1410.44 C318.5,1407.84 320.6,1403.84 321.3,1398.24 C321.5,1396.94 321.5,1395.54 321.5,1394.04 C321.5,1390.14 321,1385.44 320,1379.64 C319.6,1377.54 319.2,1374.54 318.5,1370.74 C324.3,1368.84 328.4,1365.14 332.2,1359.34 C334.5,1355.34 335.6,1351.24 335.6,1346.94 C335.6,1345.04 335.4,1343.14 335,1341.24 M304.8,1263.34 C306.6,1257.64 309.3,1254.24 311.3,1252.54 C313.1,1251.04 314.7,1250.34 315.6,1250.34 C315.7,1250.34 315.9,1250.44 316,1250.44 C316.3,1250.54 316.7,1251.04 317.1,1251.74 C318,1253.54 318.9,1256.84 318.9,1260.54 C318.9,1262.44 318.7,1264.44 318.1,1266.24 C315.9,1273.04 311.3,1280.34 304.3,1288.04 C304.1,1286.94 303.9,1285.94 303.8,1284.94 C303.3,1281.74 303,1278.54 303,1275.64 C303,1271.14 303.6,1267.04 304.8,1263.34 M300.8,1367.44 C296.2,1366.24 291.7,1363.74 287.9,1360.24 C286.6,1359.04 284.8,1356.84 283.3,1353.44 C282,1350.44 281.3,1347.34 281.3,1343.94 L281.3,1343.24 C281.4,1338.54 282.7,1333.74 285.2,1328.94 C288.1,1323.34 292.6,1317.84 298.7,1312.54 C300.2,1311.24 301.6,1309.94 302.9,1308.64 C303.7,1312.94 304.4,1317.64 305.3,1322.54 C301.4,1323.84 296.7,1326.84 293.6,1332.54 C291.2,1337.04 290.5,1340.94 290.5,1344.14 C290.5,1345.64 290.7,1347.04 290.9,1348.14 C291.8,1352.64 294.4,1356.34 297.9,1358.44 C298.7,1358.94 302,1360.64 304,1360.64 C304.3,1360.64 304.6,1360.64 304.8,1360.54 C305.1,1360.44 305.4,1360.24 305.5,1359.94 C305.6,1359.74 305.6,1359.54 305.6,1359.34 C305.6,1358.54 304.8,1357.94 303.5,1357.14 C302.9,1356.74 302.2,1356.34 301.5,1355.84 C298.9,1353.84 297.4,1350.74 297.4,1347.34 C297.4,1346.34 297.6,1345.44 297.8,1344.44 C298.3,1342.44 300,1339.64 301.5,1338.24 C303.2,1336.74 305.2,1335.54 307.6,1334.94 C309.6,1346.14 311.7,1357.24 313.3,1365.64 C313.4,1366.34 313.6,1367.04 313.7,1367.74 C311.7,1368.14 309.7,1368.34 307.8,1368.34 C305.4,1368.34 303.1,1368.04 300.8,1367.44 M326.5,1357.24 C325.3,1360.44 322.8,1364.44 317.7,1366.54 C317.6,1366.14 317.6,1365.64 317.5,1365.24 C316,1356.44 314.1,1345.54 312.1,1334.24 L313.1,1334.24 C322.8,1334.24 326.7,1341.44 327.6,1346.04 C327.8,1346.94 327.9,1348.14 327.9,1349.44 C327.9,1351.74 327.5,1354.54 326.5,1357.24"/>
<path class="TimeSig" d="M365.2,960.516 L382,960.516 L382,967.816 L373.9,967.816 C373.1,967.816 372.5,968.416 372.5,969.216 L372.5,971.116 C372.5,971.916 373.1,972.416 373.9,972.416 L403.6,972.416 C404.4,972.416 405,971.916 405,971.116 L405,969.216 C405,968.416 404.4,967.816 403.6,967.816 L394.8,967.816 L394.8,960.516 L403.6,960.516 C404.4,960.516 405,959.916 405,959.116 L405,957.316 C405,956.516 404.4,955.916 403.6,955.916 L394.8,955.916 L394.8,940.216 C394.8,939.716 394.4,939.216 394,939.016 L392.9,938.416 C392.7,938.316 392.4,938.316 392.2,938.316 C391.9,938.316 391.5,938.416 391.3,938.616 L382.4,946.816 C382.2,947.016 382,947.516 382,947.816 L382,955.916 L370.7,955.916 C370.7,955.916 381.6,944.116 393.2,928.616 C394,927.516 393.6,926.516 393.4,926.316 L391.3,924.116 C391.1,923.916 390.6,923.716 390.3,923.716 L375.7,923.716 C375,923.716 374.5,924.316 374.4,924.916 C374.4,924.916 373.9,932.116 371.3,940.116 C368.7,948.116 365.9,952.916 363.3,956.516 C363.3,956.516 362.8,957.516 363.1,958.216 C363.4,958.916 364.1,960.016 364.1,960.016 C364.1,960.016 364.4,960.516 365.2,960.516"/>
<path class="TimeSig" d="M365.2,1009.12 L382,1009.12 L382,1016.42 L373.9,1016.42 C373.1,1016.42 372.5,1017.02 372.5,1017.82 L372.5,1019.72 C372.5,1020.52 373.1,1021.02 373.9,1021.02 L403.6,1021.02 C404.4,1021.02 405,1020.52 405,1019.72 L405,1017.82 C405,1017.02 404.4,1016.42 403.6,1016.42 L394.8,1016.42 L394.8,1009.12 L403.6,1009.12 C404.4,1009.12 405,1008.52 405,1007.72 L405,1005.92 C405,1005.12 404.4,1004.52 403.6,1004.52 L394.8,1004.52 L394.8,988.82 C394.8,988.32 394.4,987.82 394,987.62 L392.9,987.02 C392.7,986.92 392.4,986.92 392.2,986.92 C391.9,986.92 391.5,987.02 391.3,987.22 L382.4,995.42 C382.2,995.62 382,996.12 382,996.42 L382,1004.52 L370.7,1004.52 C370.7,1004.52 381.6,992.72 393.2,977.22 C394,976.12 393.6,975.12 393.4,974.92 L391.3,972.72 C391.1,972.52 390.6,972.32 390.3,972.32 L375.7,972.32 C375,972.32 374.5,972.92 374.4,973.52 C374.4,973.52 373.9,980.72 371.3,988.72 C368.7,996.72 365.9,1001.52 363.3,1005.12 C363.3,1005.12 362.8,1006.12 363.1,1006.82 C363.4,1007.52 364.1,1008.62 364.1,1008.62 C364.1,1008.62 364.4,1009.12 365.2,1009.12"/>
<path class="TimeSig" d="M365.2,697.999 L382,697.999 L382,705.299 L373.9,705.299 C373.1,705.299 372.5,705.899 372.5,706.699 L372.5,708.599 C372.5,709.399 373.1,709.899 373.9,709.899 L403.6,709.899 C404.4,709.899 405,709.399 405,708.599 L405,706.699 C405,705.899 404.4,705.299 403.6,705.299 L394.8,705.299 L394.8,697.999 L403.6,697.999 C404.4,697.999 405,697.399 405,696.599 L405,694.799 C405,693.999 404.4,693.399 403.6,693.399 L394.8,693.399 L394.8,677.699 C394.8,677.199 394.4,676.699 394,676.499 L392.9,675.899 C392.7,675.799 392.4,675.799 392.2,675.799 C391.9,675.799 391.5,675.899 391.3,676.099 L382.4,684.299 C382.2,684.499 382,684.999 382,685.299 L382,693.399 L370.7,693.399 C370.7,693.399 381.6,681.599 393.2,666.099 C394,664.999 393.6,663.999 393.4,663.799 L391.3,661.599 C391.1,661.399 390.6,661.199 390.3,661.199 L375.7,661.199 C375,661.199 374.5,661.799 374.4,662.399 C374.4,662.399 373.9,669.599 371.3,677.599 C368.7,685.599 365.9,690.399 363.3,693.999 C363.3,693.999 362.8,694.999 363.1,695.699 C363.4,696.399 364.1,697.499 364.1,697.499 C364.1,697.499 364.4,697.999 365.2,697.999"/>
<path class="TimeSig" d="M365.2,746.604 L382,746.604 L382,753.904 L373.9,753.904 C373.1,753.904 372.5,754.504 372.5,755.304 L372.5,757.204 C372.5,758.004 373.1,758.504 373.9,758.504 L403.6,758.504 C404.4,758.504 405,758.004 405,757.204 L405,755.304 C405,754.504 404.4,753.904 403.6,753.904 L394.8,753.904 L394.8,746.604 L403.6,746.604 C404.4,746.604 405,746.004 405,745.204 L405,743.404 C405,742.604 404.4,742.004 403.6,742.004 L394.8,742.004 L394.8,726.304 C394.8,725.804 394.4,725.304 394,725.104 L392.9,724.504 C392.7,724.404 392.4,724.404 392.2,724.404 C391.9,724.404 391.5,724.504 391.3,724.704 L382.4,732.904 C382.2,733.104 382,733.604 382,733.904 L382,742.004 L370.7,742.004 C370.7,742.004 381.6,730.204 393.2,714.704 C394,713.604 393.6,712.604 393.4,712.404 L391.3,710.204 C391.1,710.004 390.6,709.804 390.3,709.804 L375.7,709.804 C375,709.804 374.5,710.404 374.4,711.004 C374.4,711.004 373.9,718.204 371.3,726.204 C368.7,734.204 365.9,739.004 363.3,742.604 C363.3,742.604 362.8,743.604 363.1,744.304 C363.4,745.004 364.1,746.104 364.1,746.104 C364.1,746.104 364.4,746.604 365.2,746.604"/>
<path class="NoteDot" d="M2456.14,1597.16 C2456.14,1599.75 2458.24,1601.86 2460.84,1601.86 C2463.43,1601.86 2465.54,1599.75 2465.54,1597.16 C2465.54,1594.56 2463.43,1592.46 2460.84,1592.46 C2458.24,1592.46 2456.14,1594.56 2456.14,1597.16"/>
<path class="NoteDot" d="M2456.14,1409.65 C2456.14,1412.24 2458.24,1414.35 2460.84,1414.35 C2463.43,1414.35 2465.54,1412.24 2465.54,1409.65 C2465.54,1407.05 2463.43,1404.95 2460.84,1404.95 C2458.24,1404.95 2456.14,1407.05 2456.14,1409.65"/>
<path class="Page" d="M222.584,4035.06 C221.054,4036.9 216.914,4038.3 212.774,4038.39 L212.774,4040.32 L216.734,4040.32 C219.344,4040.37 219.614,4040.64 219.524,4043.16 L219.524,4061.2 C219.524,4063.5 219.524,4063.59 219.254,4063.99 C218.894,4064.44 218.039,4064.62 215.519,4064.62 L212.594,4064.62 L212.594,4066.74 L230.414,4066.74 L230.414,4064.62 L227.939,4064.62 C225.419,4064.62 224.564,4064.44 224.204,4063.99 C223.889,4063.59 223.889,4063.54 223.889,4061.2 L223.889,4042.62 C223.889,4040.1 223.979,4037.98 224.204,4035.06 L222.584,4035.06 M249.669,4035.06 L234.369,4056.34 L234.369,4058.86 L247.014,4058.86 L247.014,4061.2 C247.014,4063.5 247.014,4063.59 246.744,4063.99 C246.384,4064.49 245.529,4064.62 242.964,4064.62 L242.469,4064.62 L242.469,4066.74 L255.609,4066.74 L255.609,4064.62 L255.429,4064.62 C252.864,4064.62 252.009,4064.49 251.649,4063.99 C251.379,4063.59 251.379,4063.54 251.379,4061.2 L251.379,4058.86 L256.824,4058.86 L256.824,4056.34 L251.379,4056.34 L251.379,4044.06 C251.379,4038.43 251.379,4038.3 251.604,4035.06 L249.669,4035.06 M247.014,4056.34 L237.114,4056.34 L247.014,4042.71 L247.014,4056.34 "/>
<path class="Bracket" transform="matrix(3.62523,0,0,3.62523,214.469,1022.12)" d="M0.92002,-50 C2.69004,-51.88 6.2,-55.8 6.2,-63 C6.2,-72.1 2.25996,-81.32 2.25996,-86.97 C2.25996,-93.06 5.84004,-98.84 5.95,-99 C6.05996,-99.16 6.05,-99.39 5.94004,-99.46 C5.82998,-99.53 5.62002,-99.47 5.49004,-99.32 C5.35996,-99.17 0,-93.75 0,-85.6 C0,-76.75 3.5,-70.58 3.5,-59.07 C3.5,-56.89 2.55996,-53.36 0.1,-50.33 C-0.0799805,-50.17 -0.1,-49.89 0.0599609,-49.7 L0.0700195,-49.69 L0.1,-49.66 C2.55996,-46.63 3.5,-43.1 3.5,-40.92 C3.5,-29.4 0,-23.24 0,-14.39 C0,-6.25 5.35996,-0.8 5.49004,-0.659961 C5.62002,-0.52002 5.8,-0.42998 5.94004,-0.52002 C6.07998,-0.609961 6.07998,-0.77998 5.95,-0.97998 C5.82002,-1.17998 2.25996,-6.92002 2.25996,-13.01 C2.25996,-18.66 6.2,-27.9 6.2,-37 C6.2,-44.3 2.69004,-48.12 0.92002,-50"/>
<path class="Bracket" transform="matrix(3.62523,0,0,3.62523,214.469,1634.66)" d="M0.92002,-50 C2.69004,-51.88 6.2,-55.8 6.2,-63 C6.2,-72.1 2.25996,-81.32 2.25996,-86.97 C2.25996,-93.06 5.84004,-98.84 5.95,-99 C6.05996,-99.16 6.05,-99.39 5.94004,-99.46 C5.82998,-99.53 5.62002,-99.47 5.49004,-99.32 C5.35996,-99.17 0,-93.75 0,-85.6 C0,-76.75 3.5,-70.58 3.5,-59.07 C3.5,-56.89 2.55996,-53.36 0.1,-50.33 C-0.0799805,-50.17 -0.1,-49.89 0.0599609,-49.7 L0.0700195,-49.69 L0.1,-49.66 C2.55996,-46.63 3.5,-43.1 3.5,-40.92 C3.5,-29.4 0,-23.24 0,-14.39 C0,-6.25 5.35996,-0.8 5.49004,-0.659961 C5.62002,-0.52002 5.8,-0.42998 5.94004,-0.52002 C6.07998,-0.609961 6.07998,-0.77998 5.95,-0.97998 C5.82002,-1.17998 2.25996,-6.92002 2.25996,-13.01 C2.25996,-18.66 6.2,-27.9 6.2,-37 C6.2,-44.3 2.69004,-48.12 0.92002,-50"/>
</svg>
