<?xml version="1.0" encoding="UTF-8" standalone="no"?>
<svg width="2977.23px" height="4208.47px" viewBox="0 0 2977.23 4208.47"
 xmlns="http://www.w3.org/2000/svg" xmlns:xlink="http://www.w3.org/1999/xlink" version="1.2" baseProfile="tiny">
<title>exercises_scores (37)</title>
<desc>Generated by MuseScore 3.6.0</desc>
<polyline class="StaffLines" fill="none" stroke="#000000" stroke-width="2.75" stroke-linejoin="bevel" points="247.099,650.005 2764.63,650.005"/>
<polyline class="StaffLines" fill="none" stroke="#000000" stroke-width="2.75" stroke-linejoin="bevel" points="247.099,675.006 2764.63,675.006"/>
<polyline class="StaffLines" fill="none" stroke="#000000" stroke-width="2.75" stroke-linejoin="bevel" points="247.099,700.008 2764.63,700.008"/>
<polyline class="StaffLines" fill="none" stroke="#000000" stroke-width="2.75" stroke-linejoin="bevel" points="247.099,725.009 2764.63,725.009"/>
<polyline class="StaffLines" fill="none" stroke="#000000" stroke-width="2.75" stroke-linejoin="bevel" points="247.099,750.011 2764.63,750.011"/>
<polyline class="StaffLines" fill="none" stroke="#000000" stroke-width="2.75" stroke-linejoin="bevel" points="247.099,912.521 2764.63,912.521"/>
<polyline class="StaffLines" fill="none" stroke="#000000" stroke-width="2.75" stroke-linejoin="bevel" points="247.099,937.523 2764.63,937.523"/>
<polyline class="StaffLines" fill="none" stroke="#000000" stroke-width="2.75" stroke-linejoin="bevel" points="247.099,962.524 2764.63,962.524"/>
<polyline class="StaffLines" fill="none" stroke="#000000" stroke-width="2.75" stroke-linejoin="bevel" points="247.099,987.526 2764.63,987.526"/>
<polyline class="StaffLines" fill="none" stroke="#000000" stroke-width="2.75" stroke-linejoin="bevel" points="247.099,1012.53 2764.63,1012.53"/>
<path class="Text" d="M212.602,216.56 L212.602,219.38 L213.682,219.38 C217.102,219.44 218.242,219.62 218.722,220.22 C219.082,220.76 219.082,220.88 219.082,223.94 L219.082,252.5 C219.082,255.56 219.082,255.68 218.722,256.22 C218.242,256.82 217.102,257.06 213.682,257.06 L212.602,257.06 L212.602,259.88 L234.382,259.88 C244.762,259.88 251.002,255.5 251.002,248.12 C251.002,242.12 247.222,238.7 239.002,237.26 C241.882,236.66 243.202,236.12 244.762,234.98 C247.222,233.12 248.722,230.18 248.722,227.18 C248.722,223.28 246.322,219.5 242.842,218 C240.682,217.04 237.682,216.56 234.142,216.56 L212.602,216.56 M225.802,236.06 L225.802,222.38 C225.802,220.04 226.582,219.44 229.762,219.38 L232.162,219.38 C234.922,219.38 237.202,219.86 238.462,220.64 C240.622,221.96 241.762,224.48 241.762,227.84 C241.762,233.78 238.882,236.06 231.142,236.06 L225.802,236.06 M225.802,238.88 L231.082,238.88 C240.262,238.88 243.622,241.34 243.622,247.94 C243.622,251.78 242.302,254.54 239.962,255.68 C238.102,256.64 235.582,257.06 231.802,257.06 L229.282,257.06 C226.282,257.06 225.682,256.46 225.802,253.28 L225.802,238.88 M274.034,242.18 C273.554,239.06 271.706,236.18 267.626,236.18 C263.546,236.18 261.392,238.622 260.996,239.096 L261.266,213.71 C261.266,213.706 261.266,213.701 261.266,213.698 C261.266,213.092 260.774,212.6 260.168,212.6 L260.168,212.6 L259.232,212.6 C258.98,212.601 258.631,212.746 258.452,212.924 C258.276,213.098 258.134,213.441 258.134,213.689 C258.134,213.695 258.134,213.704 258.134,213.71 L258.56,261.314 C258.567,261.913 259.058,262.4 259.658,262.4 L259.658,262.4 C259.852,262.399 260.136,262.308 260.294,262.196 C260.606,262.046 265.682,259.55 269.99,254.702 C273.668,250.568 274.634,245.72 274.034,242.18 M268.604,245.324 C268.598,246.482 268.31,250.166 266.306,253.166 C264.932,255.224 262.298,257.396 260.786,258.554 L260.954,243.104 C261.134,242.36 262.328,240.086 265.508,240.098 C268.982,240.11 268.604,244.166 268.604,245.324 M306.786,215.66 L295.686,216.32 L295.686,218.9 L298.566,218.9 C300.846,218.96 301.146,219.32 301.146,221.9 L301.146,252.5 L301.146,253.94 L301.146,255.38 C301.086,256.22 301.026,256.58 300.786,256.88 C300.366,257.42 299.226,257.66 296.646,257.72 L296.406,257.72 L296.406,259.88 L311.586,259.88 L311.586,257.72 L311.346,257.72 C307.326,257.6 306.786,257.3 306.786,255.14 L306.786,252.5 L306.786,246.26 C306.786,243.32 307.206,240.62 307.866,239.24 C309.186,236.54 311.826,234.68 314.406,234.68 C315.966,234.68 317.766,235.58 318.606,236.78 C319.566,238.1 319.986,239.9 319.986,242.84 L319.986,252.5 L319.986,255.38 C319.926,256.22 319.866,256.58 319.626,256.88 C319.206,257.42 318.006,257.66 315.426,257.72 L315.186,257.72 L315.186,259.88 L330.366,259.88 L330.366,257.72 L330.126,257.72 C326.166,257.6 325.626,257.3 325.626,255.14 L325.626,252.5 L325.626,243.08 C325.626,238.76 325.446,237.68 324.366,235.64 C322.866,232.7 319.866,231.02 316.266,231.02 C312.366,231.02 309.486,232.76 306.786,236.78 L306.786,215.66 M358.562,240.56 C358.562,236.78 357.902,234.86 356.162,233.42 C354.182,231.8 351.242,231.02 347.402,231.02 C340.622,231.02 335.702,234.2 335.702,238.58 C335.702,240.8 337.082,242.24 339.182,242.24 C341.102,242.24 342.422,240.98 342.422,239.18 C342.422,238.4 342.122,237.56 341.522,236.72 C341.162,236.3 341.102,236.18 341.102,235.88 C341.102,234.68 343.502,233.6 346.382,233.6 C348.302,233.6 350.402,234.2 351.362,235.1 C352.502,236.06 352.922,237.5 352.922,240.2 L352.922,242.54 C346.682,243.62 344.702,244.1 341.762,245.24 C336.542,247.16 334.082,249.92 334.082,253.76 C334.082,258.08 337.442,260.78 342.782,260.78 C346.922,260.78 350.642,259.1 353.222,256.04 C354.182,259.1 355.682,260.3 358.502,260.3 C361.202,260.3 364.022,258.56 364.022,256.82 C364.022,256.4 363.782,256.1 363.422,256.1 C363.182,256.1 362.942,256.16 362.522,256.34 C361.682,256.7 361.322,256.76 360.842,256.76 C359.162,256.76 358.562,255.68 358.562,252.62 L358.562,240.56 M352.922,247.88 C352.922,251.48 352.742,252.32 351.722,253.88 C350.222,256.1 347.522,257.6 344.882,257.6 C342.122,257.6 340.142,255.62 340.142,252.92 C340.142,250.4 341.402,248.6 344.042,247.34 C345.902,246.5 348.242,245.9 352.922,245.12 L352.922,247.88 M376.682,231.92 L366.062,232.58 L366.062,235.16 L368.522,235.16 C370.802,235.22 371.102,235.58 371.102,238.16 L371.102,252.5 L371.102,255.32 C371.042,256.22 370.982,256.58 370.742,256.88 C370.322,257.42 369.122,257.66 366.542,257.72 L366.302,257.72 L366.302,259.88 L382.322,259.88 L382.322,257.72 L381.242,257.72 C377.222,257.6 376.682,257.3 376.682,255.14 L376.682,252.5 L376.682,251.9 C376.742,241.82 380.342,234.14 385.022,233.9 C384.182,234.86 383.942,235.46 383.942,236.6 C383.942,238.52 385.322,239.9 387.242,239.9 C389.462,239.9 390.902,238.28 390.902,235.88 C390.902,232.94 388.862,231.02 385.682,231.02 C381.902,231.02 378.662,234.02 376.682,239.36 L376.682,231.92 M404.502,231.92 L393.822,232.58 L393.822,235.16 L396.282,235.16 C398.562,235.22 398.862,235.58 398.862,238.16 L398.862,252.5 L398.862,254.84 L398.862,255.32 C398.802,256.22 398.742,256.58 398.502,256.88 C398.082,257.42 396.942,257.66 394.362,257.72 L394.122,257.72 L394.122,259.88 L409.242,259.88 L409.242,257.72 L409.002,257.72 C405.042,257.6 404.502,257.3 404.502,255.08 L404.502,252.5 L404.502,243.98 C404.502,238.64 407.442,234.68 411.342,234.68 C414.762,234.68 416.502,237.14 416.502,242 L416.502,252.5 L416.502,255.38 C416.442,256.16 416.382,256.58 416.082,256.88 C415.722,257.42 414.522,257.66 411.942,257.72 L411.702,257.72 L411.702,259.88 L426.882,259.88 L426.882,257.72 L426.642,257.72 C422.682,257.6 422.142,257.3 422.142,255.14 L422.142,252.5 L422.142,244.52 C422.142,238.52 424.842,234.68 429.042,234.68 C432.462,234.68 434.142,237.26 434.142,242.66 L434.142,252.5 L434.142,255.32 C434.082,256.16 434.022,256.58 433.722,256.88 C433.362,257.42 432.162,257.66 429.582,257.72 L429.342,257.72 L429.342,259.88 L444.522,259.88 L444.522,257.72 L444.282,257.72 C440.322,257.6 439.782,257.3 439.782,255.08 L439.782,252.5 L439.782,241.46 C439.782,237.74 439.422,236.48 437.862,234.44 C436.122,232.22 433.662,231.02 430.782,231.02 C426.882,231.02 424.002,232.88 421.422,237.02 C420.402,233.42 417.162,231.02 413.142,231.02 C409.482,231.02 406.842,232.76 404.502,236.54 L404.502,231.92 M460.89,231.02 C453.51,231.02 447.81,237.56 447.81,245.96 C447.81,254.18 453.57,260.78 460.77,260.78 C467.97,260.78 473.73,254.18 473.73,245.9 C473.73,237.68 467.97,231.02 460.89,231.02 M460.89,233.6 C465.09,233.6 467.43,237.98 467.43,245.9 C467.43,253.88 465.09,258.2 460.77,258.2 C456.45,258.2 454.11,253.88 454.11,245.96 C454.11,237.8 456.39,233.6 460.89,233.6 M487.77,231.92 L477.39,232.58 L477.39,235.16 L479.55,235.16 C481.83,235.22 482.13,235.58 482.13,238.16 L482.13,252.5 L482.13,253.94 L482.13,255.32 C482.07,256.22 482.01,256.58 481.77,256.88 C481.35,257.42 480.21,257.66 477.63,257.72 L477.39,257.72 L477.39,259.88 L492.57,259.88 L492.57,257.72 L492.33,257.72 C488.31,257.6 487.77,257.3 487.77,255.14 L487.77,252.5 L487.77,246.26 C487.77,243.32 488.19,240.62 488.85,239.24 C490.11,236.54 492.81,234.68 495.39,234.68 C496.95,234.68 498.75,235.52 499.65,236.78 C500.55,238.1 500.97,239.9 500.97,242.78 L500.97,252.5 L500.97,255.32 C500.91,256.22 500.85,256.58 500.61,256.88 C500.19,257.42 498.99,257.66 496.41,257.72 L496.17,257.72 L496.17,259.88 L511.35,259.88 L511.35,257.72 L511.11,257.72 C507.15,257.6 506.61,257.3 506.61,255.14 L506.61,252.5 L506.61,243.08 C506.61,238.76 506.43,237.68 505.35,235.64 C503.85,232.76 500.85,231.02 497.25,231.02 C493.35,231.02 490.41,232.82 487.77,236.78 L487.77,231.92 M524.787,231.92 L513.507,232.58 L513.507,235.16 L516.567,235.16 C518.847,235.22 519.147,235.58 519.147,238.16 L519.147,252.5 L519.147,255.32 C519.087,256.22 519.027,256.58 518.787,256.88 C518.367,257.42 517.227,257.66 514.647,257.72 L514.227,257.72 L514.227,259.88 L529.767,259.88 L529.767,257.72 L529.347,257.72 C525.327,257.6 524.787,257.3 524.787,255.14 L524.787,252.5 L524.787,231.92 M521.967,216.98 C520.047,216.98 518.487,218.54 518.487,220.46 C518.487,222.38 520.047,223.94 521.907,223.94 C523.887,223.94 525.447,222.38 525.447,220.46 C525.447,218.54 523.887,216.98 521.967,216.98 M554.537,251.06 C552.617,255.38 550.577,257.12 547.457,257.12 C542.657,257.12 539.657,252.74 539.657,245.72 C539.657,238.4 542.597,233.6 547.037,233.6 C548.837,233.6 550.397,234.44 550.397,235.4 C550.397,235.58 550.337,235.76 550.037,236.12 C549.077,237.26 548.837,237.86 548.837,238.88 C548.837,240.86 550.337,242.24 552.437,242.24 C554.597,242.24 556.097,240.56 556.097,238.16 C556.097,234.08 552.077,231.02 546.737,231.02 C538.937,231.02 533.357,237.38 533.357,246.38 C533.357,254.9 538.457,260.78 545.897,260.78 C551.237,260.78 554.297,258.32 556.877,251.96 L554.537,251.06 M586.674,231.92 L575.994,232.58 L575.994,235.16 L578.454,235.16 C580.734,235.22 581.034,235.58 581.034,238.16 L581.034,252.5 L581.034,254.84 L581.034,255.32 C580.974,256.22 580.914,256.58 580.674,256.88 C580.254,257.42 579.114,257.66 576.534,257.72 L576.294,257.72 L576.294,259.88 L591.414,259.88 L591.414,257.72 L591.174,257.72 C587.214,257.6 586.674,257.3 586.674,255.08 L586.674,252.5 L586.674,243.98 C586.674,238.64 589.614,234.68 593.514,234.68 C596.934,234.68 598.674,237.14 598.674,242 L598.674,252.5 L598.674,255.38 C598.614,256.16 598.554,256.58 598.254,256.88 C597.894,257.42 596.694,257.66 594.114,257.72 L593.874,257.72 L593.874,259.88 L609.054,259.88 L609.054,257.72 L608.814,257.72 C604.854,257.6 604.314,257.3 604.314,255.14 L604.314,252.5 L604.314,244.52 C604.314,238.52 607.014,234.68 611.214,234.68 C614.634,234.68 616.314,237.26 616.314,242.66 L616.314,252.5 L616.314,255.32 C616.254,256.16 616.194,256.58 615.894,256.88 C615.534,257.42 614.334,257.66 611.754,257.72 L611.514,257.72 L611.514,259.88 L626.694,259.88 L626.694,257.72 L626.454,257.72 C622.494,257.6 621.954,257.3 621.954,255.08 L621.954,252.5 L621.954,241.46 C621.954,237.74 621.594,236.48 620.034,234.44 C618.294,232.22 615.834,231.02 612.954,231.02 C609.054,231.02 606.174,232.88 603.594,237.02 C602.574,233.42 599.334,231.02 595.314,231.02 C591.654,231.02 589.014,232.76 586.674,236.54 L586.674,231.92 M640.302,231.92 L629.022,232.58 L629.022,235.16 L632.082,235.16 C634.362,235.22 634.662,235.58 634.662,238.16 L634.662,252.5 L634.662,255.32 C634.602,256.22 634.542,256.58 634.302,256.88 C633.882,257.42 632.742,257.66 630.162,257.72 L629.742,257.72 L629.742,259.88 L645.282,259.88 L645.282,257.72 L644.862,257.72 C640.842,257.6 640.302,257.3 640.302,255.14 L640.302,252.5 L640.302,231.92 M637.482,216.98 C635.562,216.98 634.002,218.54 634.002,220.46 C634.002,222.38 635.562,223.94 637.422,223.94 C639.402,223.94 640.962,222.38 640.962,220.46 C640.962,218.54 639.402,216.98 637.482,216.98 M658.833,231.92 L648.453,232.58 L648.453,235.16 L650.613,235.16 C652.893,235.22 653.193,235.58 653.193,238.16 L653.193,252.5 L653.193,253.94 L653.193,255.32 C653.133,256.22 653.073,256.58 652.833,256.88 C652.413,257.42 651.273,257.66 648.693,257.72 L648.453,257.72 L648.453,259.88 L663.633,259.88 L663.633,257.72 L663.393,257.72 C659.373,257.6 658.833,257.3 658.833,255.14 L658.833,252.5 L658.833,246.26 C658.833,243.32 659.253,240.62 659.913,239.24 C661.173,236.54 663.873,234.68 666.453,234.68 C668.013,234.68 669.813,235.52 670.713,236.78 C671.613,238.1 672.033,239.9 672.033,242.78 L672.033,252.5 L672.033,255.32 C671.973,256.22 671.913,256.58 671.673,256.88 C671.253,257.42 670.053,257.66 667.473,257.72 L667.233,257.72 L667.233,259.88 L682.413,259.88 L682.413,257.72 L682.173,257.72 C678.213,257.6 677.673,257.3 677.673,255.14 L677.673,252.5 L677.673,243.08 C677.673,238.76 677.493,237.68 676.413,235.64 C674.913,232.76 671.913,231.02 668.313,231.02 C664.413,231.02 661.473,232.82 658.833,236.78 L658.833,231.92 M698.609,231.02 C691.229,231.02 685.529,237.56 685.529,245.96 C685.529,254.18 691.289,260.78 698.489,260.78 C705.689,260.78 711.449,254.18 711.449,245.9 C711.449,237.68 705.689,231.02 698.609,231.02 M698.609,233.6 C702.809,233.6 705.149,237.98 705.149,245.9 C705.149,253.88 702.809,258.2 698.489,258.2 C694.169,258.2 691.829,253.88 691.829,245.96 C691.829,237.8 694.109,233.6 698.609,233.6 M725.369,231.92 L714.749,232.58 L714.749,235.16 L717.209,235.16 C719.489,235.22 719.789,235.58 719.789,238.16 L719.789,252.5 L719.789,255.32 C719.729,256.22 719.669,256.58 719.429,256.88 C719.009,257.42 717.809,257.66 715.229,257.72 L714.989,257.72 L714.989,259.88 L731.009,259.88 L731.009,257.72 L729.929,257.72 C725.909,257.6 725.369,257.3 725.369,255.14 L725.369,252.5 L725.369,251.9 C725.429,241.82 729.029,234.14 733.709,233.9 C732.869,234.86 732.629,235.46 732.629,236.6 C732.629,238.52 734.009,239.9 735.929,239.9 C738.149,239.9 739.589,238.28 739.589,235.88 C739.589,232.94 737.549,231.02 734.369,231.02 C730.589,231.02 727.349,234.02 725.369,239.36 L725.369,231.92 "/>
<polyline class="BarLine" fill="none" stroke="#000000" stroke-width="4.50" stroke-linejoin="bevel" points="249.349,911.146 249.349,1013.9"/>
<polyline class="BarLine" fill="none" stroke="#000000" stroke-width="4.50" stroke-linejoin="bevel" points="1054.37,911.146 1054.37,1013.9"/>
<polyline class="BarLine" fill="none" stroke="#000000" stroke-width="4.50" stroke-linejoin="bevel" points="1628.29,911.146 1628.29,1013.9"/>
<polyline class="BarLine" fill="none" stroke="#000000" stroke-width="4.50" stroke-linejoin="bevel" points="2202.21,911.146 2202.21,1013.9"/>
<polyline class="BarLine" fill="none" stroke="#000000" stroke-width="4.50" stroke-linejoin="bevel" points="2734.88,911.146 2734.88,1013.9"/>
<polyline class="BarLine" fill="none" stroke="#000000" stroke-width="13.75" stroke-linejoin="bevel" points="2757.76,911.146 2757.76,1013.9"/>
<polyline class="BarLine" fill="none" stroke="#000000" stroke-width="4.50" stroke-linejoin="bevel" points="249.349,648.63 249.349,912.521"/>
<polyline class="BarLine" fill="none" stroke="#000000" stroke-width="4.50" stroke-linejoin="bevel" points="1054.37,648.63 1054.37,912.521"/>
<polyline class="BarLine" fill="none" stroke="#000000" stroke-width="4.50" stroke-linejoin="bevel" points="1628.29,648.63 1628.29,912.521"/>
<polyline class="BarLine" fill="none" stroke="#000000" stroke-width="4.50" stroke-linejoin="bevel" points="2202.21,648.63 2202.21,912.521"/>
<polyline class="BarLine" fill="none" stroke="#000000" stroke-width="4.50" stroke-linejoin="bevel" points="2734.88,648.63 2734.88,912.521"/>
<polyline class="BarLine" fill="none" stroke="#000000" stroke-width="13.75" stroke-linejoin="bevel" points="2757.76,648.63 2757.76,912.521"/>
<path class="Accidental" d="M483.853,979.626 C483.253,975.726 480.853,972.026 475.753,972.026 C470.753,972.026 467.853,975.126 467.353,975.726 L467.753,943.626 C467.753,942.826 467.153,942.226 466.353,942.226 L465.153,942.226 C464.353,942.226 463.753,942.826 463.753,943.626 L464.253,1003.73 C464.253,1004.53 464.853,1005.13 465.653,1005.13 C465.853,1005.13 466.253,1005.03 466.453,1004.93 C466.853,1004.73 473.353,1001.53 478.753,995.426 C482.553,991.126 484.053,986.226 484.053,982.126 C484.053,981.226 483.953,980.426 483.853,979.626 M476.953,983.526 C476.953,985.026 476.553,989.626 474.053,993.426 C472.353,996.026 468.953,998.726 467.053,1000.23 L467.353,980.726 C467.553,979.826 469.053,976.926 473.053,976.926 C476.653,976.926 476.953,980.326 476.953,982.426 L476.953,983.526 "/>
<path class="Accidental" d="M764.763,954.624 C764.163,950.724 761.763,947.024 756.663,947.024 C751.663,947.024 748.763,950.124 748.263,950.724 L748.663,918.624 C748.663,917.824 748.063,917.224 747.263,917.224 L746.063,917.224 C745.263,917.224 744.663,917.824 744.663,918.624 L745.163,978.724 C745.163,979.524 745.763,980.124 746.563,980.124 C746.763,980.124 747.163,980.024 747.363,979.924 C747.763,979.724 754.263,976.524 759.663,970.424 C763.463,966.124 764.963,961.224 764.963,957.124 C764.963,956.224 764.863,955.424 764.763,954.624 M757.863,958.524 C757.863,960.024 757.463,964.624 754.963,968.424 C753.263,971.024 749.863,973.724 747.963,975.224 L748.263,955.724 C748.463,954.824 749.963,951.924 753.963,951.924 C757.563,951.924 757.863,955.324 757.863,957.424 L757.863,958.524 "/>
<path class="Accidental" d="M905.218,942.124 C904.618,938.224 902.218,934.524 897.118,934.524 C892.118,934.524 889.218,937.624 888.718,938.224 L889.118,906.124 C889.118,905.324 888.518,904.724 887.718,904.724 L886.518,904.724 C885.718,904.724 885.118,905.324 885.118,906.124 L885.618,966.224 C885.618,967.024 886.218,967.624 887.018,967.624 C887.218,967.624 887.618,967.524 887.818,967.424 C888.218,967.224 894.718,964.024 900.118,957.924 C903.918,953.624 905.418,948.724 905.418,944.624 C905.418,943.724 905.318,942.924 905.218,942.124 M898.318,946.024 C898.318,947.524 897.918,952.124 895.418,955.924 C893.718,958.524 890.318,961.224 888.418,962.724 L888.718,943.224 C888.918,942.324 890.418,939.424 894.418,939.424 C898.018,939.424 898.318,942.824 898.318,944.924 L898.318,946.024 "/>
<path class="Accidental" d="M1216.9,917.122 C1216.3,913.222 1213.9,909.522 1208.8,909.522 C1203.8,909.522 1200.9,912.622 1200.4,913.222 L1200.8,881.122 C1200.8,880.322 1200.2,879.722 1199.4,879.722 L1198.2,879.722 C1197.4,879.722 1196.8,880.322 1196.8,881.122 L1197.3,941.222 C1197.3,942.022 1197.9,942.622 1198.7,942.622 C1198.9,942.622 1199.3,942.522 1199.5,942.422 C1199.9,942.222 1206.4,939.022 1211.8,932.922 C1215.6,928.622 1217.1,923.722 1217.1,919.622 C1217.1,918.722 1217,917.922 1216.9,917.122 M1210,921.022 C1210,922.522 1209.6,927.122 1207.1,930.922 C1205.4,933.522 1202,936.222 1200.1,937.722 L1200.4,918.222 C1200.6,917.322 1202.1,914.422 1206.1,914.422 C1209.7,914.422 1210,917.822 1210,919.922 L1210,921.022 "/>
<path class="Accidental" d="M1485.36,892.12 C1484.76,888.22 1482.36,884.52 1477.26,884.52 C1472.26,884.52 1469.36,887.62 1468.86,888.22 L1469.26,856.12 C1469.26,855.32 1468.66,854.72 1467.86,854.72 L1466.66,854.72 C1465.86,854.72 1465.26,855.32 1465.26,856.12 L1465.76,916.22 C1465.76,917.02 1466.36,917.62 1467.16,917.62 C1467.36,917.62 1467.76,917.52 1467.96,917.42 C1468.36,917.22 1474.86,914.02 1480.26,907.92 C1484.06,903.62 1485.56,898.72 1485.56,894.62 C1485.56,893.72 1485.46,892.92 1485.36,892.12 M1478.46,896.02 C1478.46,897.52 1478.06,902.12 1475.56,905.92 C1473.86,908.52 1470.46,911.22 1468.56,912.72 L1468.86,893.22 C1469.06,892.32 1470.56,889.42 1474.56,889.42 C1478.16,889.42 1478.46,892.82 1478.46,894.92 L1478.46,896.02 "/>
<path class="Accidental" d="M1790.82,917.122 C1790.22,913.222 1787.82,909.522 1782.72,909.522 C1777.72,909.522 1774.82,912.622 1774.32,913.222 L1774.72,881.122 C1774.72,880.322 1774.12,879.722 1773.32,879.722 L1772.12,879.722 C1771.32,879.722 1770.72,880.322 1770.72,881.122 L1771.22,941.222 C1771.22,942.022 1771.82,942.622 1772.62,942.622 C1772.82,942.622 1773.22,942.522 1773.42,942.422 C1773.82,942.222 1780.32,939.022 1785.72,932.922 C1789.52,928.622 1791.02,923.722 1791.02,919.622 C1791.02,918.722 1790.92,917.922 1790.82,917.122 M1783.92,921.022 C1783.92,922.522 1783.52,927.122 1781.02,930.922 C1779.32,933.522 1775.92,936.222 1774.02,937.722 L1774.32,918.222 C1774.52,917.322 1776.02,914.422 1780.02,914.422 C1783.62,914.422 1783.92,917.822 1783.92,919.922 L1783.92,921.022 "/>
<path class="Accidental" d="M2059.28,942.124 C2058.68,938.224 2056.28,934.524 2051.18,934.524 C2046.18,934.524 2043.28,937.624 2042.78,938.224 L2043.18,906.124 C2043.18,905.324 2042.58,904.724 2041.78,904.724 L2040.58,904.724 C2039.78,904.724 2039.18,905.324 2039.18,906.124 L2039.68,966.224 C2039.68,967.024 2040.28,967.624 2041.08,967.624 C2041.28,967.624 2041.68,967.524 2041.88,967.424 C2042.28,967.224 2048.78,964.024 2054.18,957.924 C2057.98,953.624 2059.48,948.724 2059.48,944.624 C2059.48,943.724 2059.38,942.924 2059.28,942.124 M2052.38,946.024 C2052.38,947.524 2051.98,952.124 2049.48,955.924 C2047.78,958.524 2044.38,961.224 2042.48,962.724 L2042.78,943.224 C2042.98,942.324 2044.48,939.424 2048.48,939.424 C2052.08,939.424 2052.38,942.824 2052.38,944.924 L2052.38,946.024 "/>
<path class="Accidental" d="M2246.31,954.624 C2245.71,950.724 2243.31,947.024 2238.21,947.024 C2233.21,947.024 2230.31,950.124 2229.81,950.724 L2230.21,918.624 C2230.21,917.824 2229.61,917.224 2228.81,917.224 L2227.61,917.224 C2226.81,917.224 2226.21,917.824 2226.21,918.624 L2226.71,978.724 C2226.71,979.524 2227.31,980.124 2228.11,980.124 C2228.31,980.124 2228.71,980.024 2228.91,979.924 C2229.31,979.724 2235.81,976.524 2241.21,970.424 C2245.01,966.124 2246.51,961.224 2246.51,957.124 C2246.51,956.224 2246.41,955.424 2246.31,954.624 M2239.41,958.524 C2239.41,960.024 2239.01,964.624 2236.51,968.424 C2234.81,971.024 2231.41,973.724 2229.51,975.224 L2229.81,955.724 C2230.01,954.824 2231.51,951.924 2235.51,951.924 C2239.11,951.924 2239.41,955.324 2239.41,957.424 L2239.41,958.524 "/>
<path class="Accidental" d="M2512.91,979.626 C2512.31,975.726 2509.91,972.026 2504.81,972.026 C2499.81,972.026 2496.91,975.126 2496.41,975.726 L2496.81,943.626 C2496.81,942.826 2496.21,942.226 2495.41,942.226 L2494.21,942.226 C2493.41,942.226 2492.81,942.826 2492.81,943.626 L2493.31,1003.73 C2493.31,1004.53 2493.91,1005.13 2494.71,1005.13 C2494.91,1005.13 2495.31,1005.03 2495.51,1004.93 C2495.91,1004.73 2502.41,1001.53 2507.81,995.426 C2511.61,991.126 2513.11,986.226 2513.11,982.126 C2513.11,981.226 2513.01,980.426 2512.91,979.626 M2506.01,983.526 C2506.01,985.026 2505.61,989.626 2503.11,993.426 C2501.41,996.026 2498.01,998.726 2496.11,1000.23 L2496.41,980.726 C2496.61,979.826 2498.11,976.926 2502.11,976.926 C2505.71,976.926 2506.01,980.326 2506.01,982.426 L2506.01,983.526 "/>
<path class="Accidental" d="M475.102,779.613 C474.502,775.713 472.102,772.013 467.002,772.013 C462.002,772.013 459.102,775.113 458.602,775.713 L459.002,743.613 C459.002,742.813 458.402,742.213 457.602,742.213 L456.402,742.213 C455.602,742.213 455.002,742.813 455.002,743.613 L455.502,803.713 C455.502,804.513 456.102,805.113 456.902,805.113 C457.102,805.113 457.502,805.013 457.702,804.913 C458.102,804.713 464.602,801.513 470.002,795.413 C473.802,791.113 475.302,786.213 475.302,782.113 C475.302,781.213 475.202,780.413 475.102,779.613 M468.202,783.513 C468.202,785.013 467.802,789.613 465.302,793.413 C463.602,796.013 460.202,798.713 458.302,800.213 L458.602,780.713 C458.802,779.813 460.302,776.913 464.302,776.913 C467.902,776.913 468.202,780.313 468.202,782.413 L468.202,783.513 "/>
<path class="Accidental" d="M764.763,754.612 C764.163,750.712 761.763,747.012 756.663,747.012 C751.663,747.012 748.763,750.112 748.263,750.712 L748.663,718.612 C748.663,717.812 748.063,717.212 747.263,717.212 L746.063,717.212 C745.263,717.212 744.663,717.812 744.663,718.612 L745.163,778.712 C745.163,779.512 745.763,780.112 746.563,780.112 C746.763,780.112 747.163,780.012 747.363,779.912 C747.763,779.712 754.263,776.512 759.663,770.412 C763.463,766.112 764.963,761.212 764.963,757.112 C764.963,756.212 764.863,755.412 764.763,754.612 M757.863,758.512 C757.863,760.012 757.463,764.612 754.963,768.412 C753.263,771.012 749.863,773.712 747.963,775.212 L748.263,755.712 C748.463,754.812 749.963,751.912 753.963,751.912 C757.563,751.912 757.863,755.312 757.863,757.412 L757.863,758.512 "/>
<path class="Accidental" d="M905.218,742.111 C904.618,738.211 902.218,734.511 897.118,734.511 C892.118,734.511 889.218,737.611 888.718,738.211 L889.118,706.111 C889.118,705.311 888.518,704.711 887.718,704.711 L886.518,704.711 C885.718,704.711 885.118,705.311 885.118,706.111 L885.618,766.211 C885.618,767.011 886.218,767.611 887.018,767.611 C887.218,767.611 887.618,767.511 887.818,767.411 C888.218,767.211 894.718,764.011 900.118,757.911 C903.918,753.611 905.418,748.711 905.418,744.611 C905.418,743.711 905.318,742.911 905.218,742.111 M898.318,746.011 C898.318,747.511 897.918,752.111 895.418,755.911 C893.718,758.511 890.318,761.211 888.418,762.711 L888.718,743.211 C888.918,742.311 890.418,739.411 894.418,739.411 C898.018,739.411 898.318,742.811 898.318,744.911 L898.318,746.011 "/>
<path class="Accidental" d="M1216.9,717.109 C1216.3,713.209 1213.9,709.509 1208.8,709.509 C1203.8,709.509 1200.9,712.609 1200.4,713.209 L1200.8,681.109 C1200.8,680.309 1200.2,679.709 1199.4,679.709 L1198.2,679.709 C1197.4,679.709 1196.8,680.309 1196.8,681.109 L1197.3,741.209 C1197.3,742.009 1197.9,742.609 1198.7,742.609 C1198.9,742.609 1199.3,742.509 1199.5,742.409 C1199.9,742.209 1206.4,739.009 1211.8,732.909 C1215.6,728.609 1217.1,723.709 1217.1,719.609 C1217.1,718.709 1217,717.909 1216.9,717.109 M1210,721.009 C1210,722.509 1209.6,727.109 1207.1,730.909 C1205.4,733.509 1202,736.209 1200.1,737.709 L1200.4,718.209 C1200.6,717.309 1202.1,714.409 1206.1,714.409 C1209.7,714.409 1210,717.809 1210,719.909 L1210,721.009 "/>
<path class="Accidental" d="M1485.36,692.108 C1484.76,688.208 1482.36,684.508 1477.26,684.508 C1472.26,684.508 1469.36,687.608 1468.86,688.208 L1469.26,656.108 C1469.26,655.308 1468.66,654.708 1467.86,654.708 L1466.66,654.708 C1465.86,654.708 1465.26,655.308 1465.26,656.108 L1465.76,716.208 C1465.76,717.008 1466.36,717.608 1467.16,717.608 C1467.36,717.608 1467.76,717.508 1467.96,717.408 C1468.36,717.208 1474.86,714.008 1480.26,707.908 C1484.06,703.608 1485.56,698.708 1485.56,694.608 C1485.56,693.708 1485.46,692.908 1485.36,692.108 M1478.46,696.008 C1478.46,697.508 1478.06,702.108 1475.56,705.908 C1473.86,708.508 1470.46,711.208 1468.56,712.708 L1468.86,693.208 C1469.06,692.308 1470.56,689.408 1474.56,689.408 C1478.16,689.408 1478.46,692.808 1478.46,694.908 L1478.46,696.008 "/>
<path class="Accidental" d="M1790.82,717.109 C1790.22,713.209 1787.82,709.509 1782.72,709.509 C1777.72,709.509 1774.82,712.609 1774.32,713.209 L1774.72,681.109 C1774.72,680.309 1774.12,679.709 1773.32,679.709 L1772.12,679.709 C1771.32,679.709 1770.72,680.309 1770.72,681.109 L1771.22,741.209 C1771.22,742.009 1771.82,742.609 1772.62,742.609 C1772.82,742.609 1773.22,742.509 1773.42,742.409 C1773.82,742.209 1780.32,739.009 1785.72,732.909 C1789.52,728.609 1791.02,723.709 1791.02,719.609 C1791.02,718.709 1790.92,717.909 1790.82,717.109 M1783.92,721.009 C1783.92,722.509 1783.52,727.109 1781.02,730.909 C1779.32,733.509 1775.92,736.209 1774.02,737.709 L1774.32,718.209 C1774.52,717.309 1776.02,714.409 1780.02,714.409 C1783.62,714.409 1783.92,717.809 1783.92,719.909 L1783.92,721.009 "/>
<path class="Accidental" d="M2059.28,742.111 C2058.68,738.211 2056.28,734.511 2051.18,734.511 C2046.18,734.511 2043.28,737.611 2042.78,738.211 L2043.18,706.111 C2043.18,705.311 2042.58,704.711 2041.78,704.711 L2040.58,704.711 C2039.78,704.711 2039.18,705.311 2039.18,706.111 L2039.68,766.211 C2039.68,767.011 2040.28,767.611 2041.08,767.611 C2041.28,767.611 2041.68,767.511 2041.88,767.411 C2042.28,767.211 2048.78,764.011 2054.18,757.911 C2057.98,753.611 2059.48,748.711 2059.48,744.611 C2059.48,743.711 2059.38,742.911 2059.28,742.111 M2052.38,746.011 C2052.38,747.511 2051.98,752.111 2049.48,755.911 C2047.78,758.511 2044.38,761.211 2042.48,762.711 L2042.78,743.211 C2042.98,742.311 2044.48,739.411 2048.48,739.411 C2052.08,739.411 2052.38,742.811 2052.38,744.911 L2052.38,746.011 "/>
<path class="Accidental" d="M2246.31,754.612 C2245.71,750.712 2243.31,747.012 2238.21,747.012 C2233.21,747.012 2230.31,750.112 2229.81,750.712 L2230.21,718.612 C2230.21,717.812 2229.61,717.212 2228.81,717.212 L2227.61,717.212 C2226.81,717.212 2226.21,717.812 2226.21,718.612 L2226.71,778.712 C2226.71,779.512 2227.31,780.112 2228.11,780.112 C2228.31,780.112 2228.71,780.012 2228.91,779.912 C2229.31,779.712 2235.81,776.512 2241.21,770.412 C2245.01,766.112 2246.51,761.212 2246.51,757.112 C2246.51,756.212 2246.41,755.412 2246.31,754.612 M2239.41,758.512 C2239.41,760.012 2239.01,764.612 2236.51,768.412 C2234.81,771.012 2231.41,773.712 2229.51,775.212 L2229.81,755.712 C2230.01,754.812 2231.51,751.912 2235.51,751.912 C2239.11,751.912 2239.41,755.312 2239.41,757.412 L2239.41,758.512 "/>
<path class="Accidental" d="M2504.16,779.613 C2503.56,775.713 2501.16,772.013 2496.06,772.013 C2491.06,772.013 2488.16,775.113 2487.66,775.713 L2488.06,743.613 C2488.06,742.813 2487.46,742.213 2486.66,742.213 L2485.46,742.213 C2484.66,742.213 2484.06,742.813 2484.06,743.613 L2484.56,803.713 C2484.56,804.513 2485.16,805.113 2485.96,805.113 C2486.16,805.113 2486.56,805.013 2486.76,804.913 C2487.16,804.713 2493.66,801.513 2499.06,795.413 C2502.86,791.113 2504.36,786.213 2504.36,782.113 C2504.36,781.213 2504.26,780.413 2504.16,779.613 M2497.26,783.513 C2497.26,785.013 2496.86,789.613 2494.36,793.413 C2492.66,796.013 2489.26,798.713 2487.36,800.213 L2487.66,780.713 C2487.86,779.813 2489.36,776.913 2493.36,776.913 C2496.96,776.913 2497.26,780.313 2497.26,782.413 L2497.26,783.513 "/>
<polyline class="LedgerLine" fill="none" stroke="#000000" stroke-width="4.00" stroke-linejoin="bevel" points="481.551,775.013 531.546,775.013"/>
<polyline class="LedgerLine" fill="none" stroke="#000000" stroke-width="4.00" stroke-linejoin="bevel" points="622.006,775.013 672.001,775.013"/>
<polyline class="LedgerLine" fill="none" stroke="#000000" stroke-width="4.00" stroke-linejoin="bevel" points="2377.31,775.013 2427.3,775.013"/>
<polyline class="LedgerLine" fill="none" stroke="#000000" stroke-width="4.00" stroke-linejoin="bevel" points="2510.6,775.013 2560.6,775.013"/>
<polyline class="Stem" fill="none" stroke="#000000" stroke-width="2.75" stroke-linejoin="bevel" points="521.421,984.166 521.421,903.146"/>
<polyline class="Stem" fill="none" stroke="#000000" stroke-width="2.75" stroke-linejoin="bevel" points="661.875,971.665 661.875,893.77"/>
<polyline class="Stem" fill="none" stroke="#000000" stroke-width="2.75" stroke-linejoin="bevel" points="772.586,966.045 772.586,1040.65"/>
<polyline class="Stem" fill="none" stroke="#000000" stroke-width="2.75" stroke-linejoin="bevel" points="913.041,953.544 913.041,1031.28"/>
<polyline class="Stem" fill="none" stroke="#000000" stroke-width="2.75" stroke-linejoin="bevel" points="1090.5,941.043 1090.5,1021.9"/>
<polyline class="Stem" fill="none" stroke="#000000" stroke-width="2.75" stroke-linejoin="bevel" points="1224.73,928.542 1224.73,1012.53"/>
<polyline class="Stem" fill="none" stroke="#000000" stroke-width="2.75" stroke-linejoin="bevel" points="1358.96,916.042 1358.96,1000.03"/>
<polyline class="Stem" fill="none" stroke="#000000" stroke-width="2.75" stroke-linejoin="bevel" points="1493.19,903.541 1493.19,987.526"/>
<polyline class="Stem" fill="none" stroke="#000000" stroke-width="2.75" stroke-linejoin="bevel" points="1664.42,916.042 1664.42,1000.03"/>
<polyline class="Stem" fill="none" stroke="#000000" stroke-width="2.75" stroke-linejoin="bevel" points="1798.65,928.542 1798.65,1012.53"/>
<polyline class="Stem" fill="none" stroke="#000000" stroke-width="2.75" stroke-linejoin="bevel" points="1932.88,941.043 1932.88,1021.9"/>
<polyline class="Stem" fill="none" stroke="#000000" stroke-width="2.75" stroke-linejoin="bevel" points="2067.11,953.544 2067.11,1031.28"/>
<polyline class="Stem" fill="none" stroke="#000000" stroke-width="2.75" stroke-linejoin="bevel" points="2254.14,966.045 2254.14,1040.65"/>
<polyline class="Stem" fill="none" stroke="#000000" stroke-width="2.75" stroke-linejoin="bevel" points="2417.18,971.665 2417.18,893.77"/>
<polyline class="Stem" fill="none" stroke="#000000" stroke-width="2.75" stroke-linejoin="bevel" points="2550.47,984.086 2550.47,903.146"/>
<polyline class="Stem" fill="none" stroke="#000000" stroke-width="2.75" stroke-linejoin="bevel" points="521.421,784.153 521.421,700.008"/>
<polyline class="Stem" fill="none" stroke="#000000" stroke-width="2.75" stroke-linejoin="bevel" points="661.875,771.652 661.875,687.507"/>
<polyline class="Stem" fill="none" stroke="#000000" stroke-width="2.75" stroke-linejoin="bevel" points="802.33,759.152 802.33,675.006"/>
<polyline class="Stem" fill="none" stroke="#000000" stroke-width="2.75" stroke-linejoin="bevel" points="942.785,746.651 942.785,662.506"/>
<polyline class="Stem" fill="none" stroke="#000000" stroke-width="2.75" stroke-linejoin="bevel" points="1120.24,734.15 1120.24,650.005"/>
<polyline class="Stem" fill="none" stroke="#000000" stroke-width="2.75" stroke-linejoin="bevel" points="1254.47,721.649 1254.47,640.629"/>
<polyline class="Stem" fill="none" stroke="#000000" stroke-width="2.75" stroke-linejoin="bevel" points="1388.7,709.148 1388.7,631.254"/>
<polyline class="Stem" fill="none" stroke="#000000" stroke-width="2.75" stroke-linejoin="bevel" points="1493.19,703.528 1493.19,778.138"/>
<polyline class="Stem" fill="none" stroke="#000000" stroke-width="2.75" stroke-linejoin="bevel" points="1694.16,709.148 1694.16,631.254"/>
<polyline class="Stem" fill="none" stroke="#000000" stroke-width="2.75" stroke-linejoin="bevel" points="1828.39,721.649 1828.39,640.629"/>
<polyline class="Stem" fill="none" stroke="#000000" stroke-width="2.75" stroke-linejoin="bevel" points="1962.62,734.15 1962.62,650.005"/>
<polyline class="Stem" fill="none" stroke="#000000" stroke-width="2.75" stroke-linejoin="bevel" points="2096.85,746.651 2096.85,662.506"/>
<polyline class="Stem" fill="none" stroke="#000000" stroke-width="2.75" stroke-linejoin="bevel" points="2283.88,759.152 2283.88,675.006"/>
<polyline class="Stem" fill="none" stroke="#000000" stroke-width="2.75" stroke-linejoin="bevel" points="2417.18,771.652 2417.18,687.507"/>
<polyline class="Stem" fill="none" stroke="#000000" stroke-width="2.75" stroke-linejoin="bevel" points="2550.47,784.073 2550.47,700.008"/>
<path class="Note" d="M521.801,979.326 C520.301,976.626 517.401,974.926 513.501,974.526 C512.901,974.426 512.401,974.426 511.801,974.426 C508.301,974.426 504.501,975.426 501.001,977.326 C494.401,980.926 490.301,986.826 490.301,991.926 C490.301,993.326 490.501,994.626 491.201,995.826 C492.701,998.526 495.701,1000.23 499.601,1000.63 C500.201,1000.73 500.701,1000.73 501.301,1000.73 C504.801,1000.73 508.501,999.726 512.001,997.826 C518.601,994.226 522.801,988.426 522.801,983.326 C522.801,981.926 522.501,980.526 521.801,979.326"/>
<path class="Note" d="M662.256,966.825 C660.756,964.125 657.856,962.425 653.956,962.025 C653.356,961.925 652.856,961.925 652.256,961.925 C648.756,961.925 644.956,962.925 641.456,964.825 C634.856,968.425 630.756,974.325 630.756,979.425 C630.756,980.825 630.956,982.125 631.656,983.325 C633.156,986.025 636.156,987.725 640.056,988.125 C640.656,988.225 641.156,988.225 641.756,988.225 C645.256,988.225 648.956,987.225 652.456,985.325 C659.056,981.725 663.256,975.925 663.256,970.825 C663.256,969.425 662.956,968.025 662.256,966.825"/>
<path class="Note" d="M802.711,954.324 C801.211,951.624 798.311,949.924 794.411,949.524 C793.811,949.424 793.311,949.424 792.711,949.424 C789.211,949.424 785.411,950.424 781.911,952.324 C775.311,955.924 771.211,961.824 771.211,966.924 C771.211,968.324 771.411,969.624 772.111,970.824 C773.611,973.524 776.611,975.224 780.511,975.624 C781.111,975.724 781.611,975.724 782.211,975.724 C785.711,975.724 789.411,974.724 792.911,972.824 C799.511,969.224 803.711,963.424 803.711,958.324 C803.711,956.924 803.411,955.524 802.711,954.324"/>
<path class="Note" d="M943.166,941.824 C941.666,939.124 938.766,937.424 934.866,937.024 C934.266,936.924 933.766,936.924 933.166,936.924 C929.666,936.924 925.866,937.924 922.366,939.824 C915.766,943.424 911.666,949.324 911.666,954.424 C911.666,955.824 911.866,957.124 912.566,958.324 C914.066,961.024 917.066,962.724 920.966,963.124 C921.566,963.224 922.066,963.224 922.666,963.224 C926.166,963.224 929.866,962.224 933.366,960.324 C939.966,956.724 944.166,950.924 944.166,945.824 C944.166,944.424 943.866,943.024 943.166,941.824"/>
<path class="Note" d="M1120.62,929.323 C1119.12,926.623 1116.22,924.923 1112.32,924.523 C1111.72,924.423 1111.22,924.423 1110.62,924.423 C1107.12,924.423 1103.32,925.423 1099.82,927.323 C1093.22,930.923 1089.12,936.823 1089.12,941.923 C1089.12,943.323 1089.32,944.623 1090.02,945.823 C1091.52,948.523 1094.52,950.223 1098.42,950.623 C1099.02,950.723 1099.52,950.723 1100.12,950.723 C1103.62,950.723 1107.32,949.723 1110.82,947.823 C1117.42,944.223 1121.62,938.423 1121.62,933.323 C1121.62,931.923 1121.32,930.523 1120.62,929.323"/>
<path class="Note" d="M1254.85,916.822 C1253.35,914.122 1250.45,912.422 1246.55,912.022 C1245.95,911.922 1245.45,911.922 1244.85,911.922 C1241.35,911.922 1237.55,912.922 1234.05,914.822 C1227.45,918.422 1223.35,924.322 1223.35,929.422 C1223.35,930.822 1223.55,932.122 1224.25,933.322 C1225.75,936.022 1228.75,937.722 1232.65,938.122 C1233.25,938.222 1233.75,938.222 1234.35,938.222 C1237.85,938.222 1241.55,937.222 1245.05,935.322 C1251.65,931.722 1255.85,925.922 1255.85,920.822 C1255.85,919.422 1255.55,918.022 1254.85,916.822"/>
<path class="Note" d="M1389.08,904.321 C1387.58,901.621 1384.68,899.921 1380.78,899.521 C1380.18,899.421 1379.68,899.421 1379.08,899.421 C1375.58,899.421 1371.78,900.421 1368.28,902.321 C1361.68,905.921 1357.58,911.821 1357.58,916.921 C1357.58,918.321 1357.78,919.621 1358.48,920.821 C1359.98,923.521 1362.98,925.221 1366.88,925.621 C1367.48,925.721 1367.98,925.721 1368.58,925.721 C1372.08,925.721 1375.78,924.721 1379.28,922.821 C1385.88,919.221 1390.08,913.421 1390.08,908.321 C1390.08,906.921 1389.78,905.521 1389.08,904.321"/>
<path class="Note" d="M1523.31,891.82 C1521.81,889.12 1518.91,887.42 1515.01,887.02 C1514.41,886.92 1513.91,886.92 1513.31,886.92 C1509.81,886.92 1506.01,887.92 1502.51,889.82 C1495.91,893.42 1491.81,899.32 1491.81,904.42 C1491.81,905.82 1492.01,907.12 1492.71,908.32 C1494.21,911.02 1497.21,912.72 1501.11,913.12 C1501.71,913.22 1502.21,913.22 1502.81,913.22 C1506.31,913.22 1510.01,912.22 1513.51,910.32 C1520.11,906.72 1524.31,900.92 1524.31,895.82 C1524.31,894.42 1524.01,893.02 1523.31,891.82"/>
<path class="Note" d="M1694.54,904.321 C1693.04,901.621 1690.14,899.921 1686.24,899.521 C1685.64,899.421 1685.14,899.421 1684.54,899.421 C1681.04,899.421 1677.24,900.421 1673.74,902.321 C1667.14,905.921 1663.04,911.821 1663.04,916.921 C1663.04,918.321 1663.24,919.621 1663.94,920.821 C1665.44,923.521 1668.44,925.221 1672.34,925.621 C1672.94,925.721 1673.44,925.721 1674.04,925.721 C1677.54,925.721 1681.24,924.721 1684.74,922.821 C1691.34,919.221 1695.54,913.421 1695.54,908.321 C1695.54,906.921 1695.24,905.521 1694.54,904.321"/>
<path class="Note" d="M1828.77,916.822 C1827.27,914.122 1824.37,912.422 1820.47,912.022 C1819.87,911.922 1819.37,911.922 1818.77,911.922 C1815.27,911.922 1811.47,912.922 1807.97,914.822 C1801.37,918.422 1797.27,924.322 1797.27,929.422 C1797.27,930.822 1797.47,932.122 1798.17,933.322 C1799.67,936.022 1802.67,937.722 1806.57,938.122 C1807.17,938.222 1807.67,938.222 1808.27,938.222 C1811.77,938.222 1815.47,937.222 1818.97,935.322 C1825.57,931.722 1829.77,925.922 1829.77,920.822 C1829.77,919.422 1829.47,918.022 1828.77,916.822"/>
<path class="Note" d="M1963,929.323 C1961.5,926.623 1958.6,924.923 1954.7,924.523 C1954.1,924.423 1953.6,924.423 1953,924.423 C1949.5,924.423 1945.7,925.423 1942.2,927.323 C1935.6,930.923 1931.5,936.823 1931.5,941.923 C1931.5,943.323 1931.7,944.623 1932.4,945.823 C1933.9,948.523 1936.9,950.223 1940.8,950.623 C1941.4,950.723 1941.9,950.723 1942.5,950.723 C1946,950.723 1949.7,949.723 1953.2,947.823 C1959.8,944.223 1964,938.423 1964,933.323 C1964,931.923 1963.7,930.523 1963,929.323"/>
<path class="Note" d="M2097.23,941.824 C2095.73,939.124 2092.83,937.424 2088.93,937.024 C2088.33,936.924 2087.83,936.924 2087.23,936.924 C2083.73,936.924 2079.93,937.924 2076.43,939.824 C2069.83,943.424 2065.73,949.324 2065.73,954.424 C2065.73,955.824 2065.93,957.124 2066.63,958.324 C2068.13,961.024 2071.13,962.724 2075.03,963.124 C2075.63,963.224 2076.13,963.224 2076.73,963.224 C2080.23,963.224 2083.93,962.224 2087.43,960.324 C2094.03,956.724 2098.23,950.924 2098.23,945.824 C2098.23,944.424 2097.93,943.024 2097.23,941.824"/>
<path class="Note" d="M2284.26,954.324 C2282.76,951.624 2279.86,949.924 2275.96,949.524 C2275.36,949.424 2274.86,949.424 2274.26,949.424 C2270.76,949.424 2266.96,950.424 2263.46,952.324 C2256.86,955.924 2252.76,961.824 2252.76,966.924 C2252.76,968.324 2252.96,969.624 2253.66,970.824 C2255.16,973.524 2258.16,975.224 2262.06,975.624 C2262.66,975.724 2263.16,975.724 2263.76,975.724 C2267.26,975.724 2270.96,974.724 2274.46,972.824 C2281.06,969.224 2285.26,963.424 2285.26,958.324 C2285.26,956.924 2284.96,955.524 2284.26,954.324"/>
<path class="Note" d="M2417.56,966.825 C2416.06,964.125 2413.16,962.425 2409.26,962.025 C2408.66,961.925 2408.16,961.925 2407.56,961.925 C2404.06,961.925 2400.26,962.925 2396.76,964.825 C2390.16,968.425 2386.06,974.325 2386.06,979.425 C2386.06,980.825 2386.26,982.125 2386.96,983.325 C2388.46,986.025 2391.46,987.725 2395.36,988.125 C2395.96,988.225 2396.46,988.225 2397.06,988.225 C2400.56,988.225 2404.26,987.225 2407.76,985.325 C2414.36,981.725 2418.56,975.925 2418.56,970.825 C2418.56,969.425 2418.26,968.025 2417.56,966.825"/>
<path class="Note" d="M2550.85,979.326 C2549.35,976.626 2546.45,974.926 2542.55,974.526 C2541.95,974.426 2541.45,974.426 2540.85,974.426 C2537.35,974.426 2533.55,975.426 2530.05,977.326 C2523.45,980.926 2519.35,986.726 2519.35,991.826 C2519.35,993.226 2519.75,994.626 2520.45,995.826 C2521.95,998.626 2524.75,1000.23 2528.65,1000.63 C2529.25,1000.73 2529.75,1000.73 2530.35,1000.73 C2533.85,1000.73 2537.65,999.726 2541.15,997.826 C2547.75,994.226 2551.85,988.326 2551.85,983.226 C2551.85,981.826 2551.55,980.526 2550.85,979.326 M2546.65,985.626 C2544.95,987.426 2541.75,989.726 2538.15,991.826 C2534.55,993.926 2530.85,995.626 2528.55,996.326 C2528.05,996.426 2527.45,996.526 2526.95,996.526 C2525.45,996.526 2524.15,995.826 2523.45,994.726 C2523.15,994.126 2522.95,993.526 2522.95,992.926 C2522.95,991.826 2523.45,990.726 2524.55,989.526 C2526.25,987.726 2529.45,985.326 2533.05,983.226 C2536.65,981.126 2540.35,979.426 2542.75,978.826 L2542.95,978.826 C2543.55,978.626 2544.05,978.526 2544.55,978.526 C2545.95,978.526 2547.05,979.126 2547.75,980.426 C2548.05,981.026 2548.25,981.526 2548.25,982.126 C2548.25,983.426 2547.55,984.726 2546.65,985.626"/>
<path class="Note" d="M521.801,779.313 C520.301,776.613 517.401,774.913 513.501,774.513 C512.901,774.413 512.401,774.413 511.801,774.413 C508.301,774.413 504.501,775.413 501.001,777.313 C494.401,780.913 490.301,786.813 490.301,791.913 C490.301,793.313 490.501,794.613 491.201,795.813 C492.701,798.513 495.701,800.213 499.601,800.613 C500.201,800.713 500.701,800.713 501.301,800.713 C504.801,800.713 508.501,799.713 512.001,797.813 C518.601,794.213 522.801,788.413 522.801,783.313 C522.801,781.913 522.501,780.513 521.801,779.313"/>
<path class="Note" d="M662.256,766.813 C660.756,764.113 657.856,762.413 653.956,762.013 C653.356,761.913 652.856,761.913 652.256,761.913 C648.756,761.913 644.956,762.913 641.456,764.813 C634.856,768.413 630.756,774.313 630.756,779.413 C630.756,780.813 630.956,782.113 631.656,783.313 C633.156,786.013 636.156,787.713 640.056,788.113 C640.656,788.213 641.156,788.213 641.756,788.213 C645.256,788.213 648.956,787.213 652.456,785.313 C659.056,781.713 663.256,775.913 663.256,770.813 C663.256,769.413 662.956,768.013 662.256,766.813"/>
<path class="Note" d="M802.711,754.312 C801.211,751.612 798.311,749.912 794.411,749.512 C793.811,749.412 793.311,749.412 792.711,749.412 C789.211,749.412 785.411,750.412 781.911,752.312 C775.311,755.912 771.211,761.812 771.211,766.912 C771.211,768.312 771.411,769.612 772.111,770.812 C773.611,773.512 776.611,775.212 780.511,775.612 C781.111,775.712 781.611,775.712 782.211,775.712 C785.711,775.712 789.411,774.712 792.911,772.812 C799.511,769.212 803.711,763.412 803.711,758.312 C803.711,756.912 803.411,755.512 802.711,754.312"/>
<path class="Note" d="M943.166,741.811 C941.666,739.111 938.766,737.411 934.866,737.011 C934.266,736.911 933.766,736.911 933.166,736.911 C929.666,736.911 925.866,737.911 922.366,739.811 C915.766,743.411 911.666,749.311 911.666,754.411 C911.666,755.811 911.866,757.111 912.566,758.311 C914.066,761.011 917.066,762.711 920.966,763.111 C921.566,763.211 922.066,763.211 922.666,763.211 C926.166,763.211 929.866,762.211 933.366,760.311 C939.966,756.711 944.166,750.911 944.166,745.811 C944.166,744.411 943.866,743.011 943.166,741.811"/>
<path class="Note" d="M1120.62,729.31 C1119.12,726.61 1116.22,724.91 1112.32,724.51 C1111.72,724.41 1111.22,724.41 1110.62,724.41 C1107.12,724.41 1103.32,725.41 1099.82,727.31 C1093.22,730.91 1089.12,736.81 1089.12,741.91 C1089.12,743.31 1089.32,744.61 1090.02,745.81 C1091.52,748.51 1094.52,750.21 1098.42,750.61 C1099.02,750.71 1099.52,750.71 1100.12,750.71 C1103.62,750.71 1107.32,749.71 1110.82,747.81 C1117.42,744.21 1121.62,738.41 1121.62,733.31 C1121.62,731.91 1121.32,730.51 1120.62,729.31"/>
<path class="Note" d="M1254.85,716.809 C1253.35,714.109 1250.45,712.409 1246.55,712.009 C1245.95,711.909 1245.45,711.909 1244.85,711.909 C1241.35,711.909 1237.55,712.909 1234.05,714.809 C1227.45,718.409 1223.35,724.309 1223.35,729.409 C1223.35,730.809 1223.55,732.109 1224.25,733.309 C1225.75,736.009 1228.75,737.709 1232.65,738.109 C1233.25,738.209 1233.75,738.209 1234.35,738.209 C1237.85,738.209 1241.55,737.209 1245.05,735.309 C1251.65,731.709 1255.85,725.909 1255.85,720.809 C1255.85,719.409 1255.55,718.009 1254.85,716.809"/>
<path class="Note" d="M1389.08,704.309 C1387.58,701.609 1384.68,699.909 1380.78,699.509 C1380.18,699.409 1379.68,699.409 1379.08,699.409 C1375.58,699.409 1371.78,700.409 1368.28,702.309 C1361.68,705.909 1357.58,711.809 1357.58,716.909 C1357.58,718.309 1357.78,719.609 1358.48,720.809 C1359.98,723.509 1362.98,725.209 1366.88,725.609 C1367.48,725.709 1367.98,725.709 1368.58,725.709 C1372.08,725.709 1375.78,724.709 1379.28,722.809 C1385.88,719.209 1390.08,713.409 1390.08,708.309 C1390.08,706.909 1389.78,705.509 1389.08,704.309"/>
<path class="Note" d="M1523.31,691.808 C1521.81,689.108 1518.91,687.408 1515.01,687.008 C1514.41,686.908 1513.91,686.908 1513.31,686.908 C1509.81,686.908 1506.01,687.908 1502.51,689.808 C1495.91,693.408 1491.81,699.308 1491.81,704.408 C1491.81,705.808 1492.01,707.108 1492.71,708.308 C1494.21,711.008 1497.21,712.708 1501.11,713.108 C1501.71,713.208 1502.21,713.208 1502.81,713.208 C1506.31,713.208 1510.01,712.208 1513.51,710.308 C1520.11,706.708 1524.31,700.908 1524.31,695.808 C1524.31,694.408 1524.01,693.008 1523.31,691.808"/>
<path class="Note" d="M1694.54,704.309 C1693.04,701.609 1690.14,699.909 1686.24,699.509 C1685.64,699.409 1685.14,699.409 1684.54,699.409 C1681.04,699.409 1677.24,700.409 1673.74,702.309 C1667.14,705.909 1663.04,711.809 1663.04,716.909 C1663.04,718.309 1663.24,719.609 1663.94,720.809 C1665.44,723.509 1668.44,725.209 1672.34,725.609 C1672.94,725.709 1673.44,725.709 1674.04,725.709 C1677.54,725.709 1681.24,724.709 1684.74,722.809 C1691.34,719.209 1695.54,713.409 1695.54,708.309 C1695.54,706.909 1695.24,705.509 1694.54,704.309"/>
<path class="Note" d="M1828.77,716.809 C1827.27,714.109 1824.37,712.409 1820.47,712.009 C1819.87,711.909 1819.37,711.909 1818.77,711.909 C1815.27,711.909 1811.47,712.909 1807.97,714.809 C1801.37,718.409 1797.27,724.309 1797.27,729.409 C1797.27,730.809 1797.47,732.109 1798.17,733.309 C1799.67,736.009 1802.67,737.709 1806.57,738.109 C1807.17,738.209 1807.67,738.209 1808.27,738.209 C1811.77,738.209 1815.47,737.209 1818.97,735.309 C1825.57,731.709 1829.77,725.909 1829.77,720.809 C1829.77,719.409 1829.47,718.009 1828.77,716.809"/>
<path class="Note" d="M1963,729.31 C1961.5,726.61 1958.6,724.91 1954.7,724.51 C1954.1,724.41 1953.6,724.41 1953,724.41 C1949.5,724.41 1945.7,725.41 1942.2,727.31 C1935.6,730.91 1931.5,736.81 1931.5,741.91 C1931.5,743.31 1931.7,744.61 1932.4,745.81 C1933.9,748.51 1936.9,750.21 1940.8,750.61 C1941.4,750.71 1941.9,750.71 1942.5,750.71 C1946,750.71 1949.7,749.71 1953.2,747.81 C1959.8,744.21 1964,738.41 1964,733.31 C1964,731.91 1963.7,730.51 1963,729.31"/>
<path class="Note" d="M2097.23,741.811 C2095.73,739.111 2092.83,737.411 2088.93,737.011 C2088.33,736.911 2087.83,736.911 2087.23,736.911 C2083.73,736.911 2079.93,737.911 2076.43,739.811 C2069.83,743.411 2065.73,749.311 2065.73,754.411 C2065.73,755.811 2065.93,757.111 2066.63,758.311 C2068.13,761.011 2071.13,762.711 2075.03,763.111 C2075.63,763.211 2076.13,763.211 2076.73,763.211 C2080.23,763.211 2083.93,762.211 2087.43,760.311 C2094.03,756.711 2098.23,750.911 2098.23,745.811 C2098.23,744.411 2097.93,743.011 2097.23,741.811"/>
<path class="Note" d="M2284.26,754.312 C2282.76,751.612 2279.86,749.912 2275.96,749.512 C2275.36,749.412 2274.86,749.412 2274.26,749.412 C2270.76,749.412 2266.96,750.412 2263.46,752.312 C2256.86,755.912 2252.76,761.812 2252.76,766.912 C2252.76,768.312 2252.96,769.612 2253.66,770.812 C2255.16,773.512 2258.16,775.212 2262.06,775.612 C2262.66,775.712 2263.16,775.712 2263.76,775.712 C2267.26,775.712 2270.96,774.712 2274.46,772.812 C2281.06,769.212 2285.26,763.412 2285.26,758.312 C2285.26,756.912 2284.96,755.512 2284.26,754.312"/>
<path class="Note" d="M2417.56,766.813 C2416.06,764.113 2413.16,762.413 2409.26,762.013 C2408.66,761.913 2408.16,761.913 2407.56,761.913 C2404.06,761.913 2400.26,762.913 2396.76,764.813 C2390.16,768.413 2386.06,774.313 2386.06,779.413 C2386.06,780.813 2386.26,782.113 2386.96,783.313 C2388.46,786.013 2391.46,787.713 2395.36,788.113 C2395.96,788.213 2396.46,788.213 2397.06,788.213 C2400.56,788.213 2404.26,787.213 2407.76,785.313 C2414.36,781.713 2418.56,775.913 2418.56,770.813 C2418.56,769.413 2418.26,768.013 2417.56,766.813"/>
<path class="Note" d="M2550.85,779.313 C2549.35,776.613 2546.45,774.913 2542.55,774.513 C2541.95,774.413 2541.45,774.413 2540.85,774.413 C2537.35,774.413 2533.55,775.413 2530.05,777.313 C2523.45,780.913 2519.35,786.713 2519.35,791.813 C2519.35,793.213 2519.75,794.613 2520.45,795.813 C2521.95,798.613 2524.75,800.213 2528.65,800.613 C2529.25,800.713 2529.75,800.713 2530.35,800.713 C2533.85,800.713 2537.65,799.713 2541.15,797.813 C2547.75,794.213 2551.85,788.313 2551.85,783.213 C2551.85,781.813 2551.55,780.513 2550.85,779.313 M2546.65,785.613 C2544.95,787.413 2541.75,789.713 2538.15,791.813 C2534.55,793.913 2530.85,795.613 2528.55,796.313 C2528.05,796.413 2527.45,796.513 2526.95,796.513 C2525.45,796.513 2524.15,795.813 2523.45,794.713 C2523.15,794.113 2522.95,793.513 2522.95,792.913 C2522.95,791.813 2523.45,790.713 2524.55,789.513 C2526.25,787.713 2529.45,785.313 2533.05,783.213 C2536.65,781.113 2540.35,779.413 2542.75,778.813 L2542.95,778.813 C2543.55,778.613 2544.05,778.513 2544.55,778.513 C2545.95,778.513 2547.05,779.113 2547.75,780.413 C2548.05,781.013 2548.25,781.513 2548.25,782.113 C2548.25,783.413 2547.55,784.713 2546.65,785.613"/>
<path class="Clef" d="M297,912.423 C289.4,912.423 283.3,916.823 283.2,916.823 C277.4,921.123 275.1,926.223 274.2,929.723 C273.7,931.523 273.5,933.323 273.5,935.023 C273.5,937.423 273.9,939.623 274.8,941.523 C276,944.223 278.3,946.123 281.3,947.123 C282.5,947.523 283.8,947.723 285.1,947.723 C287.3,947.723 289.6,947.123 291.5,946.023 C294.6,944.323 296.5,940.723 296.5,936.823 C296.5,933.323 294.7,930.123 291.7,928.223 C289.6,926.823 287.6,926.423 285.9,926.423 C284.7,926.423 283.6,926.623 282.7,926.923 C281.7,927.323 280,928.323 279.2,929.023 C279.5,927.123 280.7,924.223 281.8,922.623 C282.9,921.023 285.1,919.023 286.8,918.123 C289.3,916.723 292.5,916.123 296,916.123 C306.2,916.123 311.2,924.323 311.2,941.123 C311.2,950.423 307.7,959.323 304.7,965.223 C301.4,971.823 297,978.123 293.1,981.623 C282.7,991.123 272.9,995.623 272.8,995.623 C272.8,995.623 271.3,996.523 271.7,998.023 C272,999.023 272.9,999.223 273.5,999.223 C273.6,999.223 273.9,999.123 274,999.123 C274.1,999.123 285.5,994.423 294.6,987.323 C299.7,983.623 304.3,979.623 308.3,975.323 C311.9,971.423 315,967.223 317.5,963.023 C321.9,955.523 324.4,947.723 324.4,941.023 C324.4,932.723 322.2,925.823 318.1,920.923 C313.4,915.323 306.3,912.423 297,912.423 M328.4,925.123 C328.4,927.923 330.6,930.123 333.2,930.123 C335.8,930.123 338,927.923 338,925.123 C338,922.323 335.8,920.023 333.2,920.023 C330.6,920.023 328.4,922.323 328.4,925.123 M328.4,949.823 C328.4,952.623 330.6,954.923 333.2,954.923 C335.8,954.923 338,952.623 338,949.823 C338,947.023 335.8,944.723 333.2,944.723 C330.6,944.723 328.4,947.023 328.4,949.823"/>
<path class="Clef" d="M335,719.109 C333.8,713.709 331.1,709.809 330.3,708.809 C327.1,704.509 323.1,701.709 318.4,700.309 C316.1,699.609 314,699.409 312,699.409 C311.3,699.409 310.6,699.409 309.9,699.509 C308.9,693.509 307.8,687.609 306.9,682.209 C312.5,676.009 316.2,670.109 318.6,665.709 C322.2,659.009 323.6,654.309 323.7,654.109 C324.9,651.109 325.6,647.309 325.6,642.809 C325.6,640.109 325.3,637.209 324.9,634.209 C323.8,627.109 321.6,620.409 319.1,616.709 C317.8,614.809 316.6,613.709 315.4,613.709 C314.2,613.709 311.7,614.909 308.8,617.709 C306.5,619.909 303.2,623.809 300.6,629.809 C298.3,635.209 297.6,642.109 297.6,648.009 C297.6,649.809 297.7,651.509 297.8,653.109 C298,656.709 298.7,662.509 299.3,666.109 C299.3,666.209 299.6,667.709 300,670.309 L299.3,671.009 C298.3,672.009 297.1,673.109 295.7,674.509 C294.8,675.409 293.9,676.209 292.9,677.209 C284.4,685.409 271.6,697.809 271.6,716.909 C271.6,721.609 272.5,726.009 274.3,730.009 C275.9,733.609 278.2,736.909 281.1,739.809 C288.6,747.209 298.8,750.409 305.9,750.409 L306.5,750.409 C309.4,750.309 312.1,750.009 314.5,749.609 C316.3,759.209 317.5,766.309 317.5,771.609 C317.5,778.109 315.9,782.009 312,784.809 C309.6,786.509 306.7,787.609 303.6,787.709 L302.8,787.709 C301.3,787.709 298.8,787.309 297.3,786.909 C297.3,786.909 297,786.809 297,786.609 C297,786.409 297.4,786.409 297.4,786.409 C299.3,786.009 302.9,784.709 305.3,781.409 C306.4,779.909 307.1,777.609 307.1,775.109 C307.1,773.509 306.8,771.809 306.1,770.309 C305,767.909 302.4,764.909 296.8,764.509 L295.7,764.509 C293.6,764.509 291.8,765.009 290.1,766.009 C288.3,767.109 286.7,768.809 285.7,770.809 C284.6,772.809 284.1,775.009 284.1,777.209 C284.1,780.109 285,782.809 286.8,785.009 C289.8,788.609 294.5,790.909 299.9,791.509 C300.6,791.609 301.7,791.709 302.4,791.709 C306.8,791.709 311.2,790.509 314.8,788.309 C318.5,785.709 320.6,781.709 321.3,776.109 C321.5,774.809 321.5,773.409 321.5,771.909 C321.5,768.009 321,763.309 320,757.509 C319.6,755.409 319.2,752.409 318.5,748.609 C324.3,746.709 328.4,743.009 332.2,737.209 C334.5,733.209 335.6,729.109 335.6,724.809 C335.6,722.909 335.4,721.009 335,719.109 M304.8,641.209 C306.6,635.509 309.3,632.109 311.3,630.409 C313.1,628.909 314.7,628.209 315.6,628.209 C315.7,628.209 315.9,628.309 316,628.309 C316.3,628.409 316.7,628.909 317.1,629.609 C318,631.409 318.9,634.709 318.9,638.409 C318.9,640.309 318.7,642.309 318.1,644.109 C315.9,650.909 311.3,658.209 304.3,665.909 C304.1,664.809 303.9,663.809 303.8,662.809 C303.3,659.609 303,656.409 303,653.509 C303,649.009 303.6,644.909 304.8,641.209 M300.8,745.309 C296.2,744.109 291.7,741.609 287.9,738.109 C286.6,736.909 284.8,734.709 283.3,731.309 C282,728.309 281.3,725.209 281.3,721.809 L281.3,721.109 C281.4,716.409 282.7,711.609 285.2,706.809 C288.1,701.209 292.6,695.709 298.7,690.409 C300.2,689.109 301.6,687.809 302.9,686.509 C303.7,690.809 304.4,695.509 305.3,700.409 C301.4,701.709 296.7,704.709 293.6,710.409 C291.2,714.909 290.5,718.809 290.5,722.009 C290.5,723.509 290.7,724.909 290.9,726.009 C291.8,730.509 294.4,734.209 297.9,736.309 C298.7,736.809 302,738.509 304,738.509 C304.3,738.509 304.6,738.509 304.8,738.409 C305.1,738.309 305.4,738.109 305.5,737.809 C305.6,737.609 305.6,737.409 305.6,737.209 C305.6,736.409 304.8,735.809 303.5,735.009 C302.9,734.609 302.2,734.209 301.5,733.709 C298.9,731.709 297.4,728.609 297.4,725.209 C297.4,724.209 297.6,723.309 297.8,722.309 C298.3,720.309 300,717.509 301.5,716.109 C303.2,714.609 305.2,713.409 307.6,712.809 C309.6,724.009 311.7,735.109 313.3,743.509 C313.4,744.209 313.6,744.909 313.7,745.609 C311.7,746.009 309.7,746.209 307.8,746.209 C305.4,746.209 303.1,745.909 300.8,745.309 M326.5,735.109 C325.3,738.309 322.8,742.309 317.7,744.409 C317.6,744.009 317.6,743.509 317.5,743.109 C316,734.309 314.1,723.409 312.1,712.109 L313.1,712.109 C322.8,712.109 326.7,719.309 327.6,723.909 C327.8,724.809 327.9,726.009 327.9,727.309 C327.9,729.609 327.5,732.409 326.5,735.109"/>
<path class="TimeSig" d="M365.2,950.922 L382,950.922 L382,958.222 L373.9,958.222 C373.1,958.222 372.5,958.822 372.5,959.622 L372.5,961.522 C372.5,962.322 373.1,962.822 373.9,962.822 L403.6,962.822 C404.4,962.822 405,962.322 405,961.522 L405,959.622 C405,958.822 404.4,958.222 403.6,958.222 L394.8,958.222 L394.8,950.922 L403.6,950.922 C404.4,950.922 405,950.322 405,949.522 L405,947.722 C405,946.922 404.4,946.322 403.6,946.322 L394.8,946.322 L394.8,930.622 C394.8,930.122 394.4,929.622 394,929.422 L392.9,928.822 C392.7,928.722 392.4,928.722 392.2,928.722 C391.9,928.722 391.5,928.822 391.3,929.022 L382.4,937.222 C382.2,937.422 382,937.922 382,938.222 L382,946.322 L370.7,946.322 C370.7,946.322 381.6,934.522 393.2,919.022 C394,917.922 393.6,916.922 393.4,916.722 L391.3,914.522 C391.1,914.322 390.6,914.122 390.3,914.122 L375.7,914.122 C375,914.122 374.5,914.722 374.4,915.322 C374.4,915.322 373.9,922.522 371.3,930.522 C368.7,938.522 365.9,943.322 363.3,946.922 C363.3,946.922 362.8,947.922 363.1,948.622 C363.4,949.322 364.1,950.422 364.1,950.422 C364.1,950.422 364.4,950.922 365.2,950.922"/>
<path class="TimeSig" d="M365.2,999.527 L382,999.527 L382,1006.83 L373.9,1006.83 C373.1,1006.83 372.5,1007.43 372.5,1008.23 L372.5,1010.13 C372.5,1010.93 373.1,1011.43 373.9,1011.43 L403.6,1011.43 C404.4,1011.43 405,1010.93 405,1010.13 L405,1008.23 C405,1007.43 404.4,1006.83 403.6,1006.83 L394.8,1006.83 L394.8,999.527 L403.6,999.527 C404.4,999.527 405,998.927 405,998.127 L405,996.327 C405,995.527 404.4,994.927 403.6,994.927 L394.8,994.927 L394.8,979.227 C394.8,978.727 394.4,978.227 394,978.027 L392.9,977.427 C392.7,977.327 392.4,977.327 392.2,977.327 C391.9,977.327 391.5,977.427 391.3,977.627 L382.4,985.827 C382.2,986.027 382,986.527 382,986.827 L382,994.927 L370.7,994.927 C370.7,994.927 381.6,983.127 393.2,967.627 C394,966.527 393.6,965.527 393.4,965.327 L391.3,963.127 C391.1,962.927 390.6,962.727 390.3,962.727 L375.7,962.727 C375,962.727 374.5,963.327 374.4,963.927 C374.4,963.927 373.9,971.127 371.3,979.127 C368.7,987.127 365.9,991.927 363.3,995.527 C363.3,995.527 362.8,996.527 363.1,997.227 C363.4,997.927 364.1,999.027 364.1,999.027 C364.1,999.027 364.4,999.527 365.2,999.527"/>
<path class="TimeSig" d="M365.2,688.406 L382,688.406 L382,695.706 L373.9,695.706 C373.1,695.706 372.5,696.306 372.5,697.106 L372.5,699.006 C372.5,699.806 373.1,700.306 373.9,700.306 L403.6,700.306 C404.4,700.306 405,699.806 405,699.006 L405,697.106 C405,696.306 404.4,695.706 403.6,695.706 L394.8,695.706 L394.8,688.406 L403.6,688.406 C404.4,688.406 405,687.806 405,687.006 L405,685.206 C405,684.406 404.4,683.806 403.6,683.806 L394.8,683.806 L394.8,668.106 C394.8,667.606 394.4,667.106 394,666.906 L392.9,666.306 C392.7,666.206 392.4,666.206 392.2,666.206 C391.9,666.206 391.5,666.306 391.3,666.506 L382.4,674.706 C382.2,674.906 382,675.406 382,675.706 L382,683.806 L370.7,683.806 C370.7,683.806 381.6,672.006 393.2,656.506 C394,655.406 393.6,654.406 393.4,654.206 L391.3,652.006 C391.1,651.806 390.6,651.606 390.3,651.606 L375.7,651.606 C375,651.606 374.5,652.206 374.4,652.806 C374.4,652.806 373.9,660.006 371.3,668.006 C368.7,676.006 365.9,680.806 363.3,684.406 C363.3,684.406 362.8,685.406 363.1,686.106 C363.4,686.806 364.1,687.906 364.1,687.906 C364.1,687.906 364.4,688.406 365.2,688.406"/>
<path class="TimeSig" d="M365.2,737.01 L382,737.01 L382,744.31 L373.9,744.31 C373.1,744.31 372.5,744.91 372.5,745.71 L372.5,747.61 C372.5,748.41 373.1,748.91 373.9,748.91 L403.6,748.91 C404.4,748.91 405,748.41 405,747.61 L405,745.71 C405,744.91 404.4,744.31 403.6,744.31 L394.8,744.31 L394.8,737.01 L403.6,737.01 C404.4,737.01 405,736.41 405,735.61 L405,733.81 C405,733.01 404.4,732.41 403.6,732.41 L394.8,732.41 L394.8,716.71 C394.8,716.21 394.4,715.71 394,715.51 L392.9,714.91 C392.7,714.81 392.4,714.81 392.2,714.81 C391.9,714.81 391.5,714.91 391.3,715.11 L382.4,723.31 C382.2,723.51 382,724.01 382,724.31 L382,732.41 L370.7,732.41 C370.7,732.41 381.6,720.61 393.2,705.11 C394,704.01 393.6,703.01 393.4,702.81 L391.3,700.61 C391.1,700.41 390.6,700.21 390.3,700.21 L375.7,700.21 C375,700.21 374.5,700.81 374.4,701.41 C374.4,701.41 373.9,708.61 371.3,716.61 C368.7,724.61 365.9,729.41 363.3,733.01 C363.3,733.01 362.8,734.01 363.1,734.71 C363.4,735.41 364.1,736.51 364.1,736.51 C364.1,736.51 364.4,737.01 365.2,737.01"/>
<path class="Page" d="M226.289,4049.51 C230.384,4048.02 232.274,4045.73 232.274,4042.13 C232.274,4037.4 228.674,4034.39 223.094,4034.39 C217.829,4034.39 213.824,4037.49 213.824,4041.59 C213.824,4043.43 215.039,4044.74 216.794,4044.74 C218.369,4044.74 219.449,4043.66 219.449,4042.04 C219.449,4041.05 219.089,4040.46 218.054,4039.74 C217.604,4039.43 217.469,4039.25 217.469,4038.93 C217.469,4037.67 220.079,4036.32 222.644,4036.32 C225.884,4036.32 227.594,4038.35 227.594,4042.17 C227.594,4046.36 225.884,4048.56 222.689,4048.56 C222.284,4048.56 221.519,4048.52 220.844,4048.47 C220.484,4048.43 220.124,4048.43 219.854,4048.43 C218.909,4048.43 218.414,4048.83 218.414,4049.64 C218.414,4050.41 218.864,4050.77 219.854,4050.77 C220.124,4050.77 220.484,4050.77 220.889,4050.72 C221.789,4050.68 222.509,4050.68 223.004,4050.68 C226.334,4050.68 228.134,4053.06 228.134,4057.52 C228.134,4062.2 225.884,4064.81 221.834,4064.81 C218.999,4064.81 215.939,4063.28 215.939,4061.88 C215.939,4061.48 216.029,4061.39 216.884,4060.89 C218.144,4060.13 218.639,4059.36 218.639,4058.24 C218.639,4056.62 217.424,4055.4 215.804,4055.4 C213.869,4055.4 212.609,4056.98 212.609,4059.36 C212.609,4063.73 216.614,4066.74 222.374,4066.74 C228.899,4066.74 233.129,4063.14 233.129,4057.61 C233.129,4053.38 230.969,4050.81 226.289,4049.51 M238.389,4045.28 L240.369,4045.59 L241.179,4042.04 C241.854,4039.07 242.169,4038.62 243.474,4038.62 C243.699,4038.62 244.059,4038.62 244.464,4038.66 C249.999,4038.93 249.999,4038.93 252.069,4038.93 C252.654,4038.93 253.689,4038.93 254.949,4038.89 L251.889,4045.05 C248.559,4051.67 248.154,4052.48 247.029,4055.27 C245.634,4058.64 244.914,4061.48 244.914,4063.37 C244.914,4065.44 245.994,4066.7 247.749,4066.7 C249.909,4066.7 250.764,4065.26 250.719,4061.34 C250.494,4054.86 251.304,4051.71 256.119,4041.18 C256.794,4039.74 257.469,4038.35 258.144,4036.95 C258.189,4036.86 258.324,4036.46 258.594,4035.87 L258.594,4034.57 C255.894,4034.79 254.454,4034.88 251.664,4034.88 C247.749,4034.88 244.644,4034.75 239.784,4034.39 L238.389,4045.28 "/>
<path class="Bracket" transform="matrix(3.62523,0,0,3.62523,214.469,1012.53)" d="M0.92002,-50 C2.69004,-51.88 6.2,-55.8 6.2,-63 C6.2,-72.1 2.25996,-81.32 2.25996,-86.97 C2.25996,-93.06 5.84004,-98.84 5.95,-99 C6.05996,-99.16 6.05,-99.39 5.94004,-99.46 C5.82998,-99.53 5.62002,-99.47 5.49004,-99.32 C5.35996,-99.17 0,-93.75 0,-85.6 C0,-76.75 3.5,-70.58 3.5,-59.07 C3.5,-56.89 2.55996,-53.36 0.1,-50.33 C-0.0799805,-50.17 -0.1,-49.89 0.0599609,-49.7 L0.0700195,-49.69 L0.1,-49.66 C2.55996,-46.63 3.5,-43.1 3.5,-40.92 C3.5,-29.4 0,-23.24 0,-14.39 C0,-6.25 5.35996,-0.8 5.49004,-0.659961 C5.62002,-0.52002 5.8,-0.42998 5.94004,-0.52002 C6.07998,-0.609961 6.07998,-0.77998 5.95,-0.97998 C5.82002,-1.17998 2.25996,-6.92002 2.25996,-13.01 C2.25996,-18.66 6.2,-27.9 6.2,-37 C6.2,-44.3 2.69004,-48.12 0.92002,-50"/>
</svg>
