<?xml version="1.0" encoding="UTF-8" standalone="no"?>
<svg width="2977.23px" height="4208.47px" viewBox="0 0 2977.23 4208.47"
 xmlns="http://www.w3.org/2000/svg" xmlns:xlink="http://www.w3.org/1999/xlink" version="1.2" baseProfile="tiny">
<title>exercises_scores (27)</title>
<desc>Generated by MuseScore 3.6.0</desc>
<polyline class="StaffLines" fill="none" stroke="#000000" stroke-width="2.75" stroke-linejoin="bevel" points="247.099,645.317 2764.63,645.317"/>
<polyline class="StaffLines" fill="none" stroke="#000000" stroke-width="2.75" stroke-linejoin="bevel" points="247.099,670.319 2764.63,670.319"/>
<polyline class="StaffLines" fill="none" stroke="#000000" stroke-width="2.75" stroke-linejoin="bevel" points="247.099,695.32 2764.63,695.32"/>
<polyline class="StaffLines" fill="none" stroke="#000000" stroke-width="2.75" stroke-linejoin="bevel" points="247.099,720.322 2764.63,720.322"/>
<polyline class="StaffLines" fill="none" stroke="#000000" stroke-width="2.75" stroke-linejoin="bevel" points="247.099,745.324 2764.63,745.324"/>
<polyline class="StaffLines" fill="none" stroke="#000000" stroke-width="2.75" stroke-linejoin="bevel" points="247.099,907.834 2764.63,907.834"/>
<polyline class="StaffLines" fill="none" stroke="#000000" stroke-width="2.75" stroke-linejoin="bevel" points="247.099,932.835 2764.63,932.835"/>
<polyline class="StaffLines" fill="none" stroke="#000000" stroke-width="2.75" stroke-linejoin="bevel" points="247.099,957.837 2764.63,957.837"/>
<polyline class="StaffLines" fill="none" stroke="#000000" stroke-width="2.75" stroke-linejoin="bevel" points="247.099,982.839 2764.63,982.839"/>
<polyline class="StaffLines" fill="none" stroke="#000000" stroke-width="2.75" stroke-linejoin="bevel" points="247.099,1007.84 2764.63,1007.84"/>
<polyline class="StaffLines" fill="none" stroke="#000000" stroke-width="2.75" stroke-linejoin="bevel" points="247.099,1257.86 2764.63,1257.86"/>
<polyline class="StaffLines" fill="none" stroke="#000000" stroke-width="2.75" stroke-linejoin="bevel" points="247.099,1282.86 2764.63,1282.86"/>
<polyline class="StaffLines" fill="none" stroke="#000000" stroke-width="2.75" stroke-linejoin="bevel" points="247.099,1307.86 2764.63,1307.86"/>
<polyline class="StaffLines" fill="none" stroke="#000000" stroke-width="2.75" stroke-linejoin="bevel" points="247.099,1332.86 2764.63,1332.86"/>
<polyline class="StaffLines" fill="none" stroke="#000000" stroke-width="2.75" stroke-linejoin="bevel" points="247.099,1357.86 2764.63,1357.86"/>
<polyline class="StaffLines" fill="none" stroke="#000000" stroke-width="2.75" stroke-linejoin="bevel" points="247.099,1520.37 2764.63,1520.37"/>
<polyline class="StaffLines" fill="none" stroke="#000000" stroke-width="2.75" stroke-linejoin="bevel" points="247.099,1545.37 2764.63,1545.37"/>
<polyline class="StaffLines" fill="none" stroke="#000000" stroke-width="2.75" stroke-linejoin="bevel" points="247.099,1570.38 2764.63,1570.38"/>
<polyline class="StaffLines" fill="none" stroke="#000000" stroke-width="2.75" stroke-linejoin="bevel" points="247.099,1595.38 2764.63,1595.38"/>
<polyline class="StaffLines" fill="none" stroke="#000000" stroke-width="2.75" stroke-linejoin="bevel" points="247.099,1620.38 2764.63,1620.38"/>
<path class="Text" d="M242.312,213.137 L240.092,213.137 L237.692,216.737 C234.812,214.037 231.032,212.597 226.772,212.597 C218.852,212.597 213.632,217.577 213.632,225.137 C213.632,231.677 216.872,234.917 225.692,237.197 L231.392,238.637 C235.832,239.777 236.252,239.897 237.512,240.857 C239.312,242.237 240.272,244.217 240.272,246.557 C240.272,248.957 239.372,250.937 237.572,252.617 C235.592,254.297 233.612,254.957 230.312,254.957 C225.872,254.957 222.692,253.577 219.872,250.457 C217.352,247.697 216.092,244.817 215.192,240.197 L212.612,240.197 L212.852,257.297 L215.192,257.297 L217.892,253.217 C221.912,256.517 225.212,257.717 230.492,257.717 C239.312,257.717 244.952,252.557 244.952,244.517 C244.952,240.737 243.752,237.617 241.352,235.337 C239.732,233.777 237.392,232.757 232.592,231.557 L226.172,229.937 C220.832,228.557 218.312,226.217 218.312,222.557 C218.312,218.357 221.732,215.477 226.832,215.477 C231.032,215.477 234.452,217.277 236.852,220.697 C238.592,223.157 239.732,225.677 240.452,228.737 L243.032,228.737 L242.312,213.137 M271.162,247.997 C269.242,252.317 267.202,254.057 264.082,254.057 C259.282,254.057 256.282,249.677 256.282,242.657 C256.282,235.337 259.222,230.537 263.662,230.537 C265.462,230.537 267.022,231.377 267.022,232.337 C267.022,232.517 266.962,232.697 266.662,233.057 C265.702,234.197 265.462,234.797 265.462,235.817 C265.462,237.797 266.962,239.177 269.062,239.177 C271.222,239.177 272.722,237.497 272.722,235.097 C272.722,231.017 268.702,227.957 263.362,227.957 C255.562,227.957 249.982,234.317 249.982,243.317 C249.982,251.837 255.082,257.717 262.522,257.717 C267.862,257.717 270.922,255.257 273.502,248.897 L271.162,247.997 M301.75,237.497 C301.75,233.717 301.09,231.797 299.35,230.357 C297.37,228.737 294.43,227.957 290.59,227.957 C283.81,227.957 278.89,231.137 278.89,235.517 C278.89,237.737 280.27,239.177 282.37,239.177 C284.29,239.177 285.61,237.917 285.61,236.117 C285.61,235.337 285.31,234.497 284.71,233.657 C284.35,233.237 284.29,233.117 284.29,232.817 C284.29,231.617 286.69,230.537 289.57,230.537 C291.49,230.537 293.59,231.137 294.55,232.037 C295.69,232.997 296.11,234.437 296.11,237.137 L296.11,239.477 C289.87,240.557 287.89,241.037 284.95,242.177 C279.73,244.097 277.27,246.857 277.27,250.697 C277.27,255.017 280.63,257.717 285.97,257.717 C290.11,257.717 293.83,256.037 296.41,252.977 C297.37,256.037 298.87,257.237 301.69,257.237 C304.39,257.237 307.21,255.497 307.21,253.757 C307.21,253.337 306.97,253.037 306.61,253.037 C306.37,253.037 306.13,253.097 305.71,253.277 C304.87,253.637 304.51,253.697 304.03,253.697 C302.35,253.697 301.75,252.617 301.75,249.557 L301.75,237.497 M296.11,244.817 C296.11,248.417 295.93,249.257 294.91,250.817 C293.41,253.037 290.71,254.537 288.07,254.537 C285.31,254.537 283.33,252.557 283.33,249.857 C283.33,247.337 284.59,245.537 287.23,244.277 C289.09,243.437 291.43,242.837 296.11,242.057 L296.11,244.817 M320.229,212.597 L309.129,213.257 L309.129,215.837 L312.069,215.837 C314.289,215.897 314.589,216.257 314.589,218.837 L314.589,249.437 L314.589,252.257 C314.529,253.157 314.469,253.517 314.229,253.817 C313.809,254.357 312.669,254.597 310.089,254.657 L309.669,254.657 L309.669,256.817 L325.209,256.817 L325.209,254.657 L324.789,254.657 C320.769,254.537 320.229,254.237 320.229,252.077 L320.229,249.437 L320.229,212.597 M354.78,243.317 C354.84,234.317 349.74,227.957 342.42,227.957 C334.74,227.957 328.98,234.617 328.98,243.617 C328.98,252.077 334.44,257.717 342.54,257.717 C348.3,257.717 352.32,254.897 354.78,249.197 L352.68,248.057 C350.22,252.677 347.7,254.477 343.68,254.477 C340.62,254.477 338.4,253.217 336.84,250.517 C335.76,248.717 335.28,246.617 335.34,243.317 L354.78,243.317 M335.4,240.737 C335.4,238.877 335.64,237.557 336.24,235.877 C337.5,232.277 339.42,230.537 342.36,230.537 C345.96,230.537 348.36,233.717 348.36,238.577 C348.36,240.257 347.82,240.737 345.9,240.737 L335.4,240.737 M366.601,250.157 C364.501,250.157 362.821,251.837 362.821,253.877 C362.821,255.977 364.501,257.657 366.541,257.657 C368.641,257.657 370.321,255.977 370.321,253.877 C370.321,251.837 368.641,250.157 366.601,250.157 M366.601,228.437 C364.501,228.437 362.821,230.117 362.821,232.217 C362.821,234.257 364.501,235.937 366.541,235.937 C368.641,235.937 370.321,234.257 370.321,232.157 C370.321,230.117 368.641,228.437 366.601,228.437 M430.005,213.077 L427.725,213.077 L425.385,216.677 C421.485,213.617 418.845,212.597 414.465,212.597 C409.725,212.597 406.005,213.917 402.225,216.977 C396.285,221.777 393.525,227.837 393.525,235.937 C393.525,242.057 395.265,247.157 398.805,251.057 C402.525,255.257 408.045,257.717 413.805,257.717 C418.845,257.717 422.385,256.157 426.285,252.257 L428.505,257.657 L431.025,257.657 L431.025,244.457 C431.025,241.397 431.025,241.277 431.385,240.737 C431.925,240.077 433.005,239.897 436.425,239.897 L437.325,239.897 L437.325,237.077 L418.245,237.077 L418.245,239.897 L419.385,239.897 C424.425,239.897 424.845,240.197 424.845,243.557 C424.845,246.137 424.425,248.477 423.645,249.917 C422.145,252.857 418.305,254.897 414.405,254.897 C410.505,254.897 406.665,252.917 404.625,249.917 C402.405,246.557 401.445,242.357 401.445,235.937 C401.445,222.557 405.885,215.417 414.225,215.417 C421.065,215.417 425.805,220.337 428.265,229.937 L430.845,229.937 L430.005,213.077 M466.408,228.857 L455.728,229.517 L455.728,232.097 L458.188,232.097 C460.468,232.157 460.768,232.517 460.768,235.097 L460.768,249.437 L460.768,251.777 L460.768,252.257 C460.708,253.157 460.648,253.517 460.408,253.817 C459.988,254.357 458.848,254.597 456.268,254.657 L456.028,254.657 L456.028,256.817 L471.148,256.817 L471.148,254.657 L470.908,254.657 C466.948,254.537 466.408,254.237 466.408,252.017 L466.408,249.437 L466.408,240.917 C466.408,235.577 469.348,231.617 473.248,231.617 C476.668,231.617 478.408,234.077 478.408,238.937 L478.408,249.437 L478.408,252.317 C478.348,253.097 478.288,253.517 477.988,253.817 C477.628,254.357 476.428,254.597 473.848,254.657 L473.608,254.657 L473.608,256.817 L488.788,256.817 L488.788,254.657 L488.548,254.657 C484.588,254.537 484.048,254.237 484.048,252.077 L484.048,249.437 L484.048,241.457 C484.048,235.457 486.748,231.617 490.948,231.617 C494.368,231.617 496.048,234.197 496.048,239.597 L496.048,249.437 L496.048,252.257 C495.988,253.097 495.928,253.517 495.628,253.817 C495.268,254.357 494.068,254.597 491.488,254.657 L491.248,254.657 L491.248,256.817 L506.428,256.817 L506.428,254.657 L506.188,254.657 C502.228,254.537 501.688,254.237 501.688,252.017 L501.688,249.437 L501.688,238.397 C501.688,234.677 501.328,233.417 499.768,231.377 C498.028,229.157 495.568,227.957 492.688,227.957 C488.788,227.957 485.908,229.817 483.328,233.957 C482.308,230.357 479.068,227.957 475.048,227.957 C471.388,227.957 468.748,229.697 466.408,233.477 L466.408,228.857 M520.037,228.857 L508.757,229.517 L508.757,232.097 L511.817,232.097 C514.097,232.157 514.397,232.517 514.397,235.097 L514.397,249.437 L514.397,252.257 C514.337,253.157 514.277,253.517 514.037,253.817 C513.617,254.357 512.477,254.597 509.897,254.657 L509.477,254.657 L509.477,256.817 L525.017,256.817 L525.017,254.657 L524.597,254.657 C520.577,254.537 520.037,254.237 520.037,252.077 L520.037,249.437 L520.037,228.857 M517.217,213.917 C515.297,213.917 513.737,215.477 513.737,217.397 C513.737,219.317 515.297,220.877 517.157,220.877 C519.137,220.877 520.697,219.317 520.697,217.397 C520.697,215.477 519.137,213.917 517.217,213.917 M538.567,228.857 L528.187,229.517 L528.187,232.097 L530.347,232.097 C532.627,232.157 532.927,232.517 532.927,235.097 L532.927,249.437 L532.927,250.877 L532.927,252.257 C532.867,253.157 532.807,253.517 532.567,253.817 C532.147,254.357 531.007,254.597 528.427,254.657 L528.187,254.657 L528.187,256.817 L543.367,256.817 L543.367,254.657 L543.127,254.657 C539.107,254.537 538.567,254.237 538.567,252.077 L538.567,249.437 L538.567,243.197 C538.567,240.257 538.987,237.557 539.647,236.177 C540.907,233.477 543.607,231.617 546.187,231.617 C547.747,231.617 549.547,232.457 550.447,233.717 C551.347,235.037 551.767,236.837 551.767,239.717 L551.767,249.437 L551.767,252.257 C551.707,253.157 551.647,253.517 551.407,253.817 C550.987,254.357 549.787,254.597 547.207,254.657 L546.967,254.657 L546.967,256.817 L562.147,256.817 L562.147,254.657 L561.907,254.657 C557.947,254.537 557.407,254.237 557.407,252.077 L557.407,249.437 L557.407,240.017 C557.407,235.697 557.227,234.617 556.147,232.577 C554.647,229.697 551.647,227.957 548.047,227.957 C544.147,227.957 541.207,229.757 538.567,233.717 L538.567,228.857 M578.343,227.957 C570.963,227.957 565.263,234.497 565.263,242.897 C565.263,251.117 571.023,257.717 578.223,257.717 C585.423,257.717 591.183,251.117 591.183,242.837 C591.183,234.617 585.423,227.957 578.343,227.957 M578.343,230.537 C582.543,230.537 584.883,234.917 584.883,242.837 C584.883,250.817 582.543,255.137 578.223,255.137 C573.903,255.137 571.563,250.817 571.563,242.897 C571.563,234.737 573.843,230.537 578.343,230.537 M605.103,228.857 L594.483,229.517 L594.483,232.097 L596.943,232.097 C599.223,232.157 599.523,232.517 599.523,235.097 L599.523,249.437 L599.523,252.257 C599.463,253.157 599.403,253.517 599.163,253.817 C598.743,254.357 597.543,254.597 594.963,254.657 L594.723,254.657 L594.723,256.817 L610.743,256.817 L610.743,254.657 L609.663,254.657 C605.643,254.537 605.103,254.237 605.103,252.077 L605.103,249.437 L605.103,248.837 C605.163,238.757 608.763,231.077 613.443,230.837 C612.603,231.797 612.363,232.397 612.363,233.537 C612.363,235.457 613.743,236.837 615.663,236.837 C617.883,236.837 619.323,235.217 619.323,232.817 C619.323,229.877 617.283,227.957 614.103,227.957 C610.323,227.957 607.083,230.957 605.103,236.297 L605.103,228.857 "/>
<polyline class="BarLine" fill="none" stroke="#000000" stroke-width="4.50" stroke-linejoin="bevel" points="249.349,906.459 249.349,1009.22"/>
<polyline class="BarLine" fill="none" stroke="#000000" stroke-width="4.50" stroke-linejoin="bevel" points="1010.6,906.459 1010.6,1009.22"/>
<polyline class="BarLine" fill="none" stroke="#000000" stroke-width="4.50" stroke-linejoin="bevel" points="1577.94,906.459 1577.94,1009.22"/>
<polyline class="BarLine" fill="none" stroke="#000000" stroke-width="4.50" stroke-linejoin="bevel" points="2210.44,906.459 2210.44,1009.22"/>
<polyline class="BarLine" fill="none" stroke="#000000" stroke-width="4.50" stroke-linejoin="bevel" points="2762.38,906.459 2762.38,1009.22"/>
<polyline class="BarLine" fill="none" stroke="#000000" stroke-width="4.50" stroke-linejoin="bevel" points="249.349,1519 249.349,1621.75"/>
<polyline class="BarLine" fill="none" stroke="#000000" stroke-width="4.50" stroke-linejoin="bevel" points="997.609,1519 997.609,1621.75"/>
<polyline class="BarLine" fill="none" stroke="#000000" stroke-width="4.50" stroke-linejoin="bevel" points="1584.31,1519 1584.31,1621.75"/>
<polyline class="BarLine" fill="none" stroke="#000000" stroke-width="4.50" stroke-linejoin="bevel" points="2264.94,1519 2264.94,1621.75"/>
<polyline class="BarLine" fill="none" stroke="#000000" stroke-width="4.50" stroke-linejoin="bevel" points="2734.88,1519 2734.88,1621.75"/>
<polyline class="BarLine" fill="none" stroke="#000000" stroke-width="13.75" stroke-linejoin="bevel" points="2757.76,1519 2757.76,1621.75"/>
<polyline class="BarLine" fill="none" stroke="#000000" stroke-width="4.50" stroke-linejoin="bevel" points="249.349,643.942 249.349,907.834"/>
<polyline class="BarLine" fill="none" stroke="#000000" stroke-width="4.50" stroke-linejoin="bevel" points="1010.6,643.942 1010.6,907.834"/>
<polyline class="BarLine" fill="none" stroke="#000000" stroke-width="4.50" stroke-linejoin="bevel" points="1577.94,643.942 1577.94,907.834"/>
<polyline class="BarLine" fill="none" stroke="#000000" stroke-width="4.50" stroke-linejoin="bevel" points="2210.44,643.942 2210.44,907.834"/>
<polyline class="BarLine" fill="none" stroke="#000000" stroke-width="4.50" stroke-linejoin="bevel" points="2762.38,643.942 2762.38,907.834"/>
<polyline class="BarLine" fill="none" stroke="#000000" stroke-width="4.50" stroke-linejoin="bevel" points="249.349,1256.48 249.349,1520.37"/>
<polyline class="BarLine" fill="none" stroke="#000000" stroke-width="4.50" stroke-linejoin="bevel" points="997.609,1256.48 997.609,1520.37"/>
<polyline class="BarLine" fill="none" stroke="#000000" stroke-width="4.50" stroke-linejoin="bevel" points="1584.31,1256.48 1584.31,1520.37"/>
<polyline class="BarLine" fill="none" stroke="#000000" stroke-width="4.50" stroke-linejoin="bevel" points="2264.94,1256.48 2264.94,1520.37"/>
<polyline class="BarLine" fill="none" stroke="#000000" stroke-width="4.50" stroke-linejoin="bevel" points="2734.88,1256.48 2734.88,1520.37"/>
<polyline class="BarLine" fill="none" stroke="#000000" stroke-width="13.75" stroke-linejoin="bevel" points="2757.76,1256.48 2757.76,1520.37"/>
<path class="Accidental" d="M718.975,887.433 C718.375,883.533 715.975,879.833 710.875,879.833 C705.875,879.833 702.975,882.933 702.475,883.533 L702.875,851.433 C702.875,850.633 702.275,850.033 701.475,850.033 L700.275,850.033 C699.475,850.033 698.875,850.633 698.875,851.433 L699.375,911.533 C699.375,912.333 699.975,912.933 700.775,912.933 C700.975,912.933 701.375,912.833 701.575,912.733 C701.975,912.533 708.475,909.333 713.875,903.233 C717.675,898.933 719.175,894.033 719.175,889.933 C719.175,889.033 719.075,888.233 718.975,887.433 M712.075,891.333 C712.075,892.833 711.675,897.433 709.175,901.233 C707.475,903.833 704.075,906.533 702.175,908.033 L702.475,888.533 C702.675,887.633 704.175,884.733 708.175,884.733 C711.775,884.733 712.075,888.133 712.075,890.233 L712.075,891.333 "/>
<path class="Accidental" d="M1171.48,999.94 C1170.88,996.04 1168.48,992.34 1163.38,992.34 C1158.38,992.34 1155.48,995.44 1154.98,996.04 L1155.38,963.94 C1155.38,963.14 1154.78,962.54 1153.98,962.54 L1152.78,962.54 C1151.98,962.54 1151.38,963.14 1151.38,963.94 L1151.88,1024.04 C1151.88,1024.84 1152.48,1025.44 1153.28,1025.44 C1153.48,1025.44 1153.88,1025.34 1154.08,1025.24 C1154.48,1025.04 1160.98,1021.84 1166.38,1015.74 C1170.18,1011.44 1171.68,1006.54 1171.68,1002.44 C1171.68,1001.54 1171.58,1000.74 1171.48,999.94 M1164.58,1003.84 C1164.58,1005.34 1164.18,1009.94 1161.68,1013.74 C1159.98,1016.34 1156.58,1019.04 1154.68,1020.54 L1154.98,1001.04 C1155.18,1000.14 1156.68,997.24 1160.68,997.24 C1164.28,997.24 1164.58,1000.64 1164.58,1002.74 L1164.58,1003.84 "/>
<path class="Accidental" d="M1761.68,949.937 C1761.08,946.037 1758.68,942.337 1753.58,942.337 C1748.58,942.337 1745.68,945.437 1745.18,946.037 L1745.58,913.937 C1745.58,913.137 1744.98,912.537 1744.18,912.537 L1742.98,912.537 C1742.18,912.537 1741.58,913.137 1741.58,913.937 L1742.08,974.037 C1742.08,974.837 1742.68,975.437 1743.48,975.437 C1743.68,975.437 1744.08,975.337 1744.28,975.237 C1744.68,975.037 1751.18,971.837 1756.58,965.737 C1760.38,961.437 1761.88,956.537 1761.88,952.437 C1761.88,951.537 1761.78,950.737 1761.68,949.937 M1754.78,953.837 C1754.78,955.337 1754.38,959.937 1751.88,963.737 C1750.18,966.337 1746.78,969.037 1744.88,970.537 L1745.18,951.037 C1745.38,950.137 1746.88,947.237 1750.88,947.237 C1754.48,947.237 1754.78,950.637 1754.78,952.737 L1754.78,953.837 "/>
<path class="Accidental" d="M2263.29,912.435 C2262.69,908.535 2260.29,904.835 2255.19,904.835 C2250.19,904.835 2247.29,907.935 2246.79,908.535 L2247.19,876.435 C2247.19,875.635 2246.59,875.035 2245.79,875.035 L2244.59,875.035 C2243.79,875.035 2243.19,875.635 2243.19,876.435 L2243.69,936.535 C2243.69,937.335 2244.29,937.935 2245.09,937.935 C2245.29,937.935 2245.69,937.835 2245.89,937.735 C2246.29,937.535 2252.79,934.335 2258.19,928.235 C2261.99,923.935 2263.49,919.035 2263.49,914.935 C2263.49,914.035 2263.39,913.235 2263.29,912.435 M2256.39,916.335 C2256.39,917.835 2255.99,922.435 2253.49,926.235 C2251.79,928.835 2248.39,931.535 2246.49,933.035 L2246.79,913.535 C2246.99,912.635 2248.49,909.735 2252.49,909.735 C2256.09,909.735 2256.39,913.135 2256.39,915.235 L2256.39,916.335 "/>
<path class="Accidental" d="M547.529,1524.97 C546.929,1521.07 544.529,1517.37 539.429,1517.37 C534.429,1517.37 531.529,1520.47 531.029,1521.07 L531.429,1488.97 C531.429,1488.17 530.829,1487.57 530.029,1487.57 L528.829,1487.57 C528.029,1487.57 527.429,1488.17 527.429,1488.97 L527.929,1549.07 C527.929,1549.87 528.529,1550.47 529.329,1550.47 C529.529,1550.47 529.929,1550.37 530.129,1550.27 C530.529,1550.07 537.029,1546.87 542.429,1540.77 C546.229,1536.47 547.729,1531.57 547.729,1527.47 C547.729,1526.57 547.629,1525.77 547.529,1524.97 M540.629,1528.87 C540.629,1530.37 540.229,1534.97 537.729,1538.77 C536.029,1541.37 532.629,1544.07 530.729,1545.57 L531.029,1526.07 C531.229,1525.17 532.729,1522.27 536.729,1522.27 C540.329,1522.27 540.629,1525.67 540.629,1527.77 L540.629,1528.87 "/>
<path class="Accidental" d="M1050.46,1562.48 C1049.86,1558.58 1047.46,1554.88 1042.36,1554.88 C1037.36,1554.88 1034.46,1557.98 1033.96,1558.58 L1034.36,1526.48 C1034.36,1525.68 1033.76,1525.08 1032.96,1525.08 L1031.76,1525.08 C1030.96,1525.08 1030.36,1525.68 1030.36,1526.48 L1030.86,1586.58 C1030.86,1587.38 1031.46,1587.98 1032.26,1587.98 C1032.46,1587.98 1032.86,1587.88 1033.06,1587.78 C1033.46,1587.58 1039.96,1584.38 1045.36,1578.28 C1049.16,1573.98 1050.66,1569.08 1050.66,1564.98 C1050.66,1564.08 1050.56,1563.28 1050.46,1562.48 M1043.56,1566.38 C1043.56,1567.88 1043.16,1572.48 1040.66,1576.28 C1038.96,1578.88 1035.56,1581.58 1033.66,1583.08 L1033.96,1563.58 C1034.16,1562.68 1035.66,1559.78 1039.66,1559.78 C1043.26,1559.78 1043.56,1563.18 1043.56,1565.28 L1043.56,1566.38 "/>
<path class="Accidental" d="M1669.48,1462.47 C1668.88,1458.57 1666.48,1454.87 1661.38,1454.87 C1656.38,1454.87 1653.48,1457.97 1652.98,1458.57 L1653.38,1426.47 C1653.38,1425.67 1652.78,1425.07 1651.98,1425.07 L1650.78,1425.07 C1649.98,1425.07 1649.38,1425.67 1649.38,1426.47 L1649.88,1486.57 C1649.88,1487.37 1650.48,1487.97 1651.28,1487.97 C1651.48,1487.97 1651.88,1487.87 1652.08,1487.77 C1652.48,1487.57 1658.98,1484.37 1664.38,1478.27 C1668.18,1473.97 1669.68,1469.07 1669.68,1464.97 C1669.68,1464.07 1669.58,1463.27 1669.48,1462.47 M1662.58,1466.37 C1662.58,1467.87 1662.18,1472.47 1659.68,1476.27 C1657.98,1478.87 1654.58,1481.57 1652.68,1483.07 L1652.98,1463.57 C1653.18,1462.67 1654.68,1459.77 1658.68,1459.77 C1662.28,1459.77 1662.58,1463.17 1662.58,1465.27 L1662.58,1466.37 "/>
<path class="Accidental" d="M2111.74,1499.97 C2111.14,1496.07 2108.74,1492.37 2103.64,1492.37 C2098.64,1492.37 2095.74,1495.47 2095.24,1496.07 L2095.64,1463.97 C2095.64,1463.17 2095.04,1462.57 2094.24,1462.57 L2093.04,1462.57 C2092.24,1462.57 2091.64,1463.17 2091.64,1463.97 L2092.14,1524.07 C2092.14,1524.87 2092.74,1525.47 2093.54,1525.47 C2093.74,1525.47 2094.14,1525.37 2094.34,1525.27 C2094.74,1525.07 2101.24,1521.87 2106.64,1515.77 C2110.44,1511.47 2111.94,1506.57 2111.94,1502.47 C2111.94,1501.57 2111.84,1500.77 2111.74,1499.97 M2104.84,1503.87 C2104.84,1505.37 2104.44,1509.97 2101.94,1513.77 C2100.24,1516.37 2096.84,1519.07 2094.94,1520.57 L2095.24,1501.07 C2095.44,1500.17 2096.94,1497.27 2100.94,1497.27 C2104.54,1497.27 2104.84,1500.67 2104.84,1502.77 L2104.84,1503.87 "/>
<path class="Accidental" d="M718.975,687.42 C718.375,683.52 715.975,679.82 710.875,679.82 C705.875,679.82 702.975,682.92 702.475,683.52 L702.875,651.42 C702.875,650.62 702.275,650.02 701.475,650.02 L700.275,650.02 C699.475,650.02 698.875,650.62 698.875,651.42 L699.375,711.52 C699.375,712.32 699.975,712.92 700.775,712.92 C700.975,712.92 701.375,712.82 701.575,712.72 C701.975,712.52 708.475,709.32 713.875,703.22 C717.675,698.92 719.175,694.02 719.175,689.92 C719.175,689.02 719.075,688.22 718.975,687.42 M712.075,691.32 C712.075,692.82 711.675,697.42 709.175,701.22 C707.475,703.82 704.075,706.52 702.175,708.02 L702.475,688.52 C702.675,687.62 704.175,684.72 708.175,684.72 C711.775,684.72 712.075,688.12 712.075,690.22 L712.075,691.32 "/>
<path class="Accidental" d="M1171.48,649.918 C1170.88,646.018 1168.48,642.318 1163.38,642.318 C1158.38,642.318 1155.48,645.418 1154.98,646.018 L1155.38,613.918 C1155.38,613.118 1154.78,612.518 1153.98,612.518 L1152.78,612.518 C1151.98,612.518 1151.38,613.118 1151.38,613.918 L1151.88,674.018 C1151.88,674.818 1152.48,675.418 1153.28,675.418 C1153.48,675.418 1153.88,675.318 1154.08,675.218 C1154.48,675.018 1160.98,671.818 1166.38,665.718 C1170.18,661.418 1171.68,656.518 1171.68,652.418 C1171.68,651.518 1171.58,650.718 1171.48,649.918 M1164.58,653.818 C1164.58,655.318 1164.18,659.918 1161.68,663.718 C1159.98,666.318 1156.58,669.018 1154.68,670.518 L1154.98,651.018 C1155.18,650.118 1156.68,647.218 1160.68,647.218 C1164.28,647.218 1164.58,650.618 1164.58,652.718 L1164.58,653.818 "/>
<path class="Accidental" d="M1752.93,599.915 C1752.33,596.015 1749.93,592.315 1744.83,592.315 C1739.83,592.315 1736.93,595.415 1736.43,596.015 L1736.83,563.915 C1736.83,563.115 1736.23,562.515 1735.43,562.515 L1734.23,562.515 C1733.43,562.515 1732.83,563.115 1732.83,563.915 L1733.33,624.015 C1733.33,624.815 1733.93,625.415 1734.73,625.415 C1734.93,625.415 1735.33,625.315 1735.53,625.215 C1735.93,625.015 1742.43,621.815 1747.83,615.715 C1751.63,611.415 1753.13,606.515 1753.13,602.415 C1753.13,601.515 1753.03,600.715 1752.93,599.915 M1746.03,603.815 C1746.03,605.315 1745.63,609.915 1743.13,613.715 C1741.43,616.315 1738.03,619.015 1736.13,620.515 L1736.43,601.015 C1736.63,600.115 1738.13,597.215 1742.13,597.215 C1745.73,597.215 1746.03,600.615 1746.03,602.715 L1746.03,603.815 "/>
<path class="Accidental" d="M2254.54,562.413 C2253.94,558.513 2251.54,554.813 2246.44,554.813 C2241.44,554.813 2238.54,557.913 2238.04,558.513 L2238.44,526.413 C2238.44,525.613 2237.84,525.013 2237.04,525.013 L2235.84,525.013 C2235.04,525.013 2234.44,525.613 2234.44,526.413 L2234.94,586.513 C2234.94,587.313 2235.54,587.913 2236.34,587.913 C2236.54,587.913 2236.94,587.813 2237.14,587.713 C2237.54,587.513 2244.04,584.313 2249.44,578.213 C2253.24,573.913 2254.74,569.013 2254.74,564.913 C2254.74,564.013 2254.64,563.213 2254.54,562.413 M2247.64,566.313 C2247.64,567.813 2247.24,572.413 2244.74,576.213 C2243.04,578.813 2239.64,581.513 2237.74,583.013 L2238.04,563.513 C2238.24,562.613 2239.74,559.713 2243.74,559.713 C2247.34,559.713 2247.64,563.113 2247.64,565.213 L2247.64,566.313 "/>
<path class="Accidental" d="M538.779,1174.95 C538.179,1171.05 535.779,1167.35 530.679,1167.35 C525.679,1167.35 522.779,1170.45 522.279,1171.05 L522.679,1138.95 C522.679,1138.15 522.079,1137.55 521.279,1137.55 L520.079,1137.55 C519.279,1137.55 518.679,1138.15 518.679,1138.95 L519.179,1199.05 C519.179,1199.85 519.779,1200.45 520.579,1200.45 C520.779,1200.45 521.179,1200.35 521.379,1200.25 C521.779,1200.05 528.279,1196.85 533.679,1190.75 C537.479,1186.45 538.979,1181.55 538.979,1177.45 C538.979,1176.55 538.879,1175.75 538.779,1174.95 M531.879,1178.85 C531.879,1180.35 531.479,1184.95 528.979,1188.75 C527.279,1191.35 523.879,1194.05 521.979,1195.55 L522.279,1176.05 C522.479,1175.15 523.979,1172.25 527.979,1172.25 C531.579,1172.25 531.879,1175.65 531.879,1177.75 L531.879,1178.85 "/>
<path class="Accidental" d="M1041.71,1212.45 C1041.11,1208.55 1038.71,1204.85 1033.61,1204.85 C1028.61,1204.85 1025.71,1207.95 1025.21,1208.55 L1025.61,1176.45 C1025.61,1175.65 1025.01,1175.05 1024.21,1175.05 L1023.01,1175.05 C1022.21,1175.05 1021.61,1175.65 1021.61,1176.45 L1022.11,1236.55 C1022.11,1237.35 1022.71,1237.95 1023.51,1237.95 C1023.71,1237.95 1024.11,1237.85 1024.31,1237.75 C1024.71,1237.55 1031.21,1234.35 1036.61,1228.25 C1040.41,1223.95 1041.91,1219.05 1041.91,1214.95 C1041.91,1214.05 1041.81,1213.25 1041.71,1212.45 M1034.81,1216.35 C1034.81,1217.85 1034.41,1222.45 1031.91,1226.25 C1030.21,1228.85 1026.81,1231.55 1024.91,1233.05 L1025.21,1213.55 C1025.41,1212.65 1026.91,1209.75 1030.91,1209.75 C1034.51,1209.75 1034.81,1213.15 1034.81,1215.25 L1034.81,1216.35 "/>
<path class="Accidental" d="M1678.23,1262.46 C1677.63,1258.56 1675.23,1254.86 1670.13,1254.86 C1665.13,1254.86 1662.23,1257.96 1661.73,1258.56 L1662.13,1226.46 C1662.13,1225.66 1661.53,1225.06 1660.73,1225.06 L1659.53,1225.06 C1658.73,1225.06 1658.13,1225.66 1658.13,1226.46 L1658.63,1286.56 C1658.63,1287.36 1659.23,1287.96 1660.03,1287.96 C1660.23,1287.96 1660.63,1287.86 1660.83,1287.76 C1661.23,1287.56 1667.73,1284.36 1673.13,1278.26 C1676.93,1273.96 1678.43,1269.06 1678.43,1264.96 C1678.43,1264.06 1678.33,1263.26 1678.23,1262.46 M1671.33,1266.36 C1671.33,1267.86 1670.93,1272.46 1668.43,1276.26 C1666.73,1278.86 1663.33,1281.56 1661.43,1283.06 L1661.73,1263.56 C1661.93,1262.66 1663.43,1259.76 1667.43,1259.76 C1671.03,1259.76 1671.33,1263.16 1671.33,1265.26 L1671.33,1266.36 "/>
<path class="Accidental" d="M2111.74,1299.96 C2111.14,1296.06 2108.74,1292.36 2103.64,1292.36 C2098.64,1292.36 2095.74,1295.46 2095.24,1296.06 L2095.64,1263.96 C2095.64,1263.16 2095.04,1262.56 2094.24,1262.56 L2093.04,1262.56 C2092.24,1262.56 2091.64,1263.16 2091.64,1263.96 L2092.14,1324.06 C2092.14,1324.86 2092.74,1325.46 2093.54,1325.46 C2093.74,1325.46 2094.14,1325.36 2094.34,1325.26 C2094.74,1325.06 2101.24,1321.86 2106.64,1315.76 C2110.44,1311.46 2111.94,1306.56 2111.94,1302.46 C2111.94,1301.56 2111.84,1300.76 2111.74,1299.96 M2104.84,1303.86 C2104.84,1305.36 2104.44,1309.96 2101.94,1313.76 C2100.24,1316.36 2096.84,1319.06 2094.94,1320.56 L2095.24,1301.06 C2095.44,1300.16 2096.94,1297.26 2100.94,1297.26 C2104.54,1297.26 2104.84,1300.66 2104.84,1302.76 L2104.84,1303.86 "/>
<polyline class="LedgerLine" fill="none" stroke="#000000" stroke-width="4.00" stroke-linejoin="bevel" points="851.884,882.832 901.879,882.832"/>
<polyline class="LedgerLine" fill="none" stroke="#000000" stroke-width="4.00" stroke-linejoin="bevel" points="1675.93,1495.37 1725.93,1495.37"/>
<polyline class="LedgerLine" fill="none" stroke="#000000" stroke-width="4.00" stroke-linejoin="bevel" points="1675.93,1470.37 1725.93,1470.37"/>
<polyline class="LedgerLine" fill="none" stroke="#000000" stroke-width="4.00" stroke-linejoin="bevel" points="1820.43,1495.37 1870.43,1495.37"/>
<polyline class="LedgerLine" fill="none" stroke="#000000" stroke-width="4.00" stroke-linejoin="bevel" points="1964.93,1495.37 2014.93,1495.37"/>
<polyline class="LedgerLine" fill="none" stroke="#000000" stroke-width="4.00" stroke-linejoin="bevel" points="1612.69,620.316 1662.69,620.316"/>
<polyline class="LedgerLine" fill="none" stroke="#000000" stroke-width="4.00" stroke-linejoin="bevel" points="1759.38,620.316 1809.37,620.316"/>
<polyline class="LedgerLine" fill="none" stroke="#000000" stroke-width="4.00" stroke-linejoin="bevel" points="1906.06,620.316 1956.06,620.316"/>
<polyline class="LedgerLine" fill="none" stroke="#000000" stroke-width="4.00" stroke-linejoin="bevel" points="1906.06,595.314 1956.06,595.314"/>
<polyline class="LedgerLine" fill="none" stroke="#000000" stroke-width="4.00" stroke-linejoin="bevel" points="2052.75,620.316 2102.75,620.316"/>
<polyline class="LedgerLine" fill="none" stroke="#000000" stroke-width="4.00" stroke-linejoin="bevel" points="2052.75,595.314 2102.75,595.314"/>
<polyline class="LedgerLine" fill="none" stroke="#000000" stroke-width="4.00" stroke-linejoin="bevel" points="2260.99,620.316 2310.98,620.316"/>
<polyline class="LedgerLine" fill="none" stroke="#000000" stroke-width="4.00" stroke-linejoin="bevel" points="2260.99,595.314 2310.98,595.314"/>
<polyline class="LedgerLine" fill="none" stroke="#000000" stroke-width="4.00" stroke-linejoin="bevel" points="2260.99,570.313 2310.98,570.313"/>
<polyline class="LedgerLine" fill="none" stroke="#000000" stroke-width="4.00" stroke-linejoin="bevel" points="2397.21,620.316 2447.2,620.316"/>
<polyline class="LedgerLine" fill="none" stroke="#000000" stroke-width="4.00" stroke-linejoin="bevel" points="2397.21,595.314 2447.2,595.314"/>
<polyline class="LedgerLine" fill="none" stroke="#000000" stroke-width="4.00" stroke-linejoin="bevel" points="2397.21,570.313 2447.2,570.313"/>
<polyline class="LedgerLine" fill="none" stroke="#000000" stroke-width="4.00" stroke-linejoin="bevel" points="2533.43,620.316 2583.42,620.316"/>
<polyline class="LedgerLine" fill="none" stroke="#000000" stroke-width="4.00" stroke-linejoin="bevel" points="2533.43,595.314 2583.42,595.314"/>
<polyline class="LedgerLine" fill="none" stroke="#000000" stroke-width="4.00" stroke-linejoin="bevel" points="2533.43,570.313 2583.42,570.313"/>
<polyline class="LedgerLine" fill="none" stroke="#000000" stroke-width="4.00" stroke-linejoin="bevel" points="2533.43,545.311 2583.42,545.311"/>
<polyline class="LedgerLine" fill="none" stroke="#000000" stroke-width="4.00" stroke-linejoin="bevel" points="398.1,1232.85 448.096,1232.85"/>
<polyline class="LedgerLine" fill="none" stroke="#000000" stroke-width="4.00" stroke-linejoin="bevel" points="398.1,1207.85 448.096,1207.85"/>
<polyline class="LedgerLine" fill="none" stroke="#000000" stroke-width="4.00" stroke-linejoin="bevel" points="398.1,1182.85 448.096,1182.85"/>
<polyline class="LedgerLine" fill="none" stroke="#000000" stroke-width="4.00" stroke-linejoin="bevel" points="545.227,1232.85 595.223,1232.85"/>
<polyline class="LedgerLine" fill="none" stroke="#000000" stroke-width="4.00" stroke-linejoin="bevel" points="545.227,1207.85 595.223,1207.85"/>
<polyline class="LedgerLine" fill="none" stroke="#000000" stroke-width="4.00" stroke-linejoin="bevel" points="545.227,1182.85 595.223,1182.85"/>
<polyline class="LedgerLine" fill="none" stroke="#000000" stroke-width="4.00" stroke-linejoin="bevel" points="692.354,1232.85 742.349,1232.85"/>
<polyline class="LedgerLine" fill="none" stroke="#000000" stroke-width="4.00" stroke-linejoin="bevel" points="692.354,1207.85 742.349,1207.85"/>
<polyline class="LedgerLine" fill="none" stroke="#000000" stroke-width="4.00" stroke-linejoin="bevel" points="839.481,1232.85 889.476,1232.85"/>
<polyline class="LedgerLine" fill="none" stroke="#000000" stroke-width="4.00" stroke-linejoin="bevel" points="839.481,1207.85 889.476,1207.85"/>
<polyline class="LedgerLine" fill="none" stroke="#000000" stroke-width="4.00" stroke-linejoin="bevel" points="1048.16,1232.85 1098.15,1232.85"/>
<polyline class="LedgerLine" fill="none" stroke="#000000" stroke-width="4.00" stroke-linejoin="bevel" points="1179.45,1232.85 1229.44,1232.85"/>
<polyline class="Stem" fill="none" stroke="#000000" stroke-width="2.75" stroke-linejoin="bevel" points="456.377,923.855 456.377,1007.84"/>
<polyline class="Stem" fill="none" stroke="#000000" stroke-width="2.75" stroke-linejoin="bevel" points="591.588,911.354 591.588,995.339"/>
<polyline class="Stem" fill="none" stroke="#000000" stroke-width="2.75" stroke-linejoin="bevel" points="726.799,898.853 726.799,982.839"/>
<polyline class="Stem" fill="none" stroke="#000000" stroke-width="2.75" stroke-linejoin="bevel" points="862.009,886.352 862.009,970.338"/>
<polyline class="Stem" fill="none" stroke="#000000" stroke-width="2.75" stroke-linejoin="bevel" points="1076.47,1016.98 1076.47,932.835"/>
<polyline class="Stem" fill="none" stroke="#000000" stroke-width="2.75" stroke-linejoin="bevel" points="1209.05,1004.48 1209.05,920.335"/>
<polyline class="Stem" fill="none" stroke="#000000" stroke-width="2.75" stroke-linejoin="bevel" points="1341.64,991.979 1341.64,907.834"/>
<polyline class="Stem" fill="none" stroke="#000000" stroke-width="2.75" stroke-linejoin="bevel" points="1474.22,979.478 1474.22,898.458"/>
<polyline class="Stem" fill="none" stroke="#000000" stroke-width="2.75" stroke-linejoin="bevel" points="1652.56,966.978 1652.56,889.083"/>
<polyline class="Stem" fill="none" stroke="#000000" stroke-width="2.75" stroke-linejoin="bevel" points="1769.5,961.357 1769.5,1035.97"/>
<polyline class="Stem" fill="none" stroke="#000000" stroke-width="2.75" stroke-linejoin="bevel" points="1916.19,948.856 1916.19,1026.59"/>
<polyline class="Stem" fill="none" stroke="#000000" stroke-width="2.75" stroke-linejoin="bevel" points="2062.88,936.356 2062.88,1017.22"/>
<polyline class="Stem" fill="none" stroke="#000000" stroke-width="2.75" stroke-linejoin="bevel" points="2271.11,923.855 2271.11,1007.84"/>
<polyline class="Stem" fill="none" stroke="#000000" stroke-width="2.75" stroke-linejoin="bevel" points="2407.33,911.354 2407.33,995.339"/>
<polyline class="Stem" fill="none" stroke="#000000" stroke-width="2.75" stroke-linejoin="bevel" points="2543.55,898.773 2543.55,982.839"/>
<polyline class="Stem" fill="none" stroke="#000000" stroke-width="2.75" stroke-linejoin="bevel" points="408.226,1523.89 408.226,1607.88"/>
<polyline class="Stem" fill="none" stroke="#000000" stroke-width="2.75" stroke-linejoin="bevel" points="555.353,1536.39 555.353,1620.38"/>
<polyline class="Stem" fill="none" stroke="#000000" stroke-width="2.75" stroke-linejoin="bevel" points="702.48,1548.89 702.48,1629.75"/>
<polyline class="Stem" fill="none" stroke="#000000" stroke-width="2.75" stroke-linejoin="bevel" points="849.607,1561.39 849.607,1639.13"/>
<polyline class="Stem" fill="none" stroke="#000000" stroke-width="2.75" stroke-linejoin="bevel" points="1058.28,1573.9 1058.28,1648.51"/>
<polyline class="Stem" fill="none" stroke="#000000" stroke-width="2.75" stroke-linejoin="bevel" points="1219.32,1579.52 1219.32,1501.62"/>
<polyline class="Stem" fill="none" stroke="#000000" stroke-width="2.75" stroke-linejoin="bevel" points="1350.6,1592.02 1350.6,1511"/>
<polyline class="Stem" fill="none" stroke="#000000" stroke-width="2.75" stroke-linejoin="bevel" points="1481.89,1604.52 1481.89,1520.37"/>
<polyline class="Stem" fill="none" stroke="#000000" stroke-width="2.75" stroke-linejoin="bevel" points="1686.06,1473.89 1686.06,1570.38"/>
<polyline class="Stem" fill="none" stroke="#000000" stroke-width="2.75" stroke-linejoin="bevel" points="1830.56,1486.39 1830.56,1570.38"/>
<polyline class="Stem" fill="none" stroke="#000000" stroke-width="2.75" stroke-linejoin="bevel" points="1975.06,1498.89 1975.06,1582.88"/>
<polyline class="Stem" fill="none" stroke="#000000" stroke-width="2.75" stroke-linejoin="bevel" points="2119.56,1511.39 2119.56,1595.38"/>
<polyline class="Stem" fill="none" stroke="#000000" stroke-width="2.75" stroke-linejoin="bevel" points="2301.07,1523.89 2301.07,1607.88"/>
<polyline class="Stem" fill="none" stroke="#000000" stroke-width="2.75" stroke-linejoin="bevel" points="2447.78,1536.31 2447.78,1620.38"/>
<polyline class="Stem" fill="none" stroke="#000000" stroke-width="2.75" stroke-linejoin="bevel" points="486.121,716.962 486.121,635.942"/>
<polyline class="Stem" fill="none" stroke="#000000" stroke-width="2.75" stroke-linejoin="bevel" points="621.332,704.461 621.332,626.566"/>
<polyline class="Stem" fill="none" stroke="#000000" stroke-width="2.75" stroke-linejoin="bevel" points="726.799,698.841 726.799,773.45"/>
<polyline class="Stem" fill="none" stroke="#000000" stroke-width="2.75" stroke-linejoin="bevel" points="862.009,686.34 862.009,764.075"/>
<polyline class="Stem" fill="none" stroke="#000000" stroke-width="2.75" stroke-linejoin="bevel" points="1046.72,673.839 1046.72,754.699"/>
<polyline class="Stem" fill="none" stroke="#000000" stroke-width="2.75" stroke-linejoin="bevel" points="1179.31,661.338 1179.31,745.324"/>
<polyline class="Stem" fill="none" stroke="#000000" stroke-width="2.75" stroke-linejoin="bevel" points="1311.89,648.837 1311.89,732.823"/>
<polyline class="Stem" fill="none" stroke="#000000" stroke-width="2.75" stroke-linejoin="bevel" points="1444.48,636.337 1444.48,720.322"/>
<polyline class="Stem" fill="none" stroke="#000000" stroke-width="2.75" stroke-linejoin="bevel" points="1622.82,623.836 1622.82,707.821"/>
<polyline class="Stem" fill="none" stroke="#000000" stroke-width="2.75" stroke-linejoin="bevel" points="1769.5,611.335 1769.5,695.32"/>
<polyline class="Stem" fill="none" stroke="#000000" stroke-width="2.75" stroke-linejoin="bevel" points="1916.19,598.834 1916.19,695.32"/>
<polyline class="Stem" fill="none" stroke="#000000" stroke-width="2.75" stroke-linejoin="bevel" points="2062.88,586.334 2062.88,695.32"/>
<polyline class="Stem" fill="none" stroke="#000000" stroke-width="2.75" stroke-linejoin="bevel" points="2271.11,573.833 2271.11,695.32"/>
<polyline class="Stem" fill="none" stroke="#000000" stroke-width="2.75" stroke-linejoin="bevel" points="2407.33,561.332 2407.33,695.32"/>
<polyline class="Stem" fill="none" stroke="#000000" stroke-width="2.75" stroke-linejoin="bevel" points="2543.55,548.751 2543.55,695.32"/>
<polyline class="Stem" fill="none" stroke="#000000" stroke-width="2.75" stroke-linejoin="bevel" points="408.226,1173.87 408.226,1307.86"/>
<polyline class="Stem" fill="none" stroke="#000000" stroke-width="2.75" stroke-linejoin="bevel" points="555.353,1186.37 555.353,1307.86"/>
<polyline class="Stem" fill="none" stroke="#000000" stroke-width="2.75" stroke-linejoin="bevel" points="702.48,1198.87 702.48,1307.86"/>
<polyline class="Stem" fill="none" stroke="#000000" stroke-width="2.75" stroke-linejoin="bevel" points="849.607,1211.37 849.607,1307.86"/>
<polyline class="Stem" fill="none" stroke="#000000" stroke-width="2.75" stroke-linejoin="bevel" points="1058.28,1223.87 1058.28,1307.86"/>
<polyline class="Stem" fill="none" stroke="#000000" stroke-width="2.75" stroke-linejoin="bevel" points="1189.57,1236.37 1189.57,1320.36"/>
<polyline class="Stem" fill="none" stroke="#000000" stroke-width="2.75" stroke-linejoin="bevel" points="1320.86,1248.88 1320.86,1332.86"/>
<polyline class="Stem" fill="none" stroke="#000000" stroke-width="2.75" stroke-linejoin="bevel" points="1452.14,1261.38 1452.14,1345.36"/>
<polyline class="Stem" fill="none" stroke="#000000" stroke-width="2.75" stroke-linejoin="bevel" points="1686.06,1273.88 1686.06,1357.86"/>
<polyline class="Stem" fill="none" stroke="#000000" stroke-width="2.75" stroke-linejoin="bevel" points="1830.56,1286.38 1830.56,1367.24"/>
<polyline class="Stem" fill="none" stroke="#000000" stroke-width="2.75" stroke-linejoin="bevel" points="1975.06,1298.88 1975.06,1376.61"/>
<polyline class="Stem" fill="none" stroke="#000000" stroke-width="2.75" stroke-linejoin="bevel" points="2119.56,1311.38 2119.56,1385.99"/>
<polyline class="Stem" fill="none" stroke="#000000" stroke-width="2.75" stroke-linejoin="bevel" points="2330.81,1317 2330.81,1239.1"/>
<polyline class="Stem" fill="none" stroke="#000000" stroke-width="2.75" stroke-linejoin="bevel" points="2477.52,1329.42 2477.52,1248.48"/>
<path class="Note" d="M486.502,912.135 C485.002,909.435 482.102,907.735 478.202,907.335 C477.602,907.235 477.102,907.235 476.502,907.235 C473.002,907.235 469.202,908.235 465.702,910.135 C459.102,913.735 455.002,919.635 455.002,924.735 C455.002,926.135 455.202,927.435 455.902,928.635 C457.402,931.335 460.402,933.035 464.302,933.435 C464.902,933.535 465.402,933.535 466.002,933.535 C469.502,933.535 473.202,932.535 476.702,930.635 C483.302,927.035 487.502,921.235 487.502,916.135 C487.502,914.735 487.202,913.335 486.502,912.135"/>
<path class="Note" d="M621.713,899.634 C620.213,896.934 617.313,895.234 613.413,894.834 C612.813,894.734 612.313,894.734 611.713,894.734 C608.213,894.734 604.413,895.734 600.913,897.634 C594.313,901.234 590.213,907.134 590.213,912.234 C590.213,913.634 590.413,914.934 591.113,916.134 C592.613,918.834 595.613,920.534 599.513,920.934 C600.113,921.034 600.613,921.034 601.213,921.034 C604.713,921.034 608.413,920.034 611.913,918.134 C618.513,914.534 622.713,908.734 622.713,903.634 C622.713,902.234 622.413,900.834 621.713,899.634"/>
<path class="Note" d="M756.924,887.133 C755.424,884.433 752.524,882.733 748.624,882.333 C748.024,882.233 747.524,882.233 746.924,882.233 C743.424,882.233 739.624,883.233 736.124,885.133 C729.524,888.733 725.424,894.633 725.424,899.733 C725.424,901.133 725.624,902.433 726.324,903.633 C727.824,906.333 730.824,908.033 734.724,908.433 C735.324,908.533 735.824,908.533 736.424,908.533 C739.924,908.533 743.624,907.533 747.124,905.633 C753.724,902.033 757.924,896.233 757.924,891.133 C757.924,889.733 757.624,888.333 756.924,887.133"/>
<path class="Note" d="M892.134,874.632 C890.634,871.932 887.734,870.232 883.834,869.832 C883.234,869.732 882.734,869.732 882.134,869.732 C878.634,869.732 874.834,870.732 871.334,872.632 C864.734,876.232 860.634,882.132 860.634,887.232 C860.634,888.632 860.834,889.932 861.534,891.132 C863.034,893.832 866.034,895.532 869.934,895.932 C870.534,896.032 871.034,896.032 871.634,896.032 C875.134,896.032 878.834,895.032 882.334,893.132 C888.934,889.532 893.134,883.732 893.134,878.632 C893.134,877.232 892.834,875.832 892.134,874.632"/>
<path class="Note" d="M1076.85,1012.14 C1075.35,1009.44 1072.45,1007.74 1068.55,1007.34 C1067.95,1007.24 1067.45,1007.24 1066.85,1007.24 C1063.35,1007.24 1059.55,1008.24 1056.05,1010.14 C1049.45,1013.74 1045.35,1019.64 1045.35,1024.74 C1045.35,1026.14 1045.55,1027.44 1046.25,1028.64 C1047.75,1031.34 1050.75,1033.04 1054.65,1033.44 C1055.25,1033.54 1055.75,1033.54 1056.35,1033.54 C1059.85,1033.54 1063.55,1032.54 1067.05,1030.64 C1073.65,1027.04 1077.85,1021.24 1077.85,1016.14 C1077.85,1014.74 1077.55,1013.34 1076.85,1012.14"/>
<path class="Note" d="M1209.43,999.64 C1207.93,996.94 1205.03,995.24 1201.13,994.84 C1200.53,994.74 1200.03,994.74 1199.43,994.74 C1195.93,994.74 1192.13,995.74 1188.63,997.64 C1182.03,1001.24 1177.93,1007.14 1177.93,1012.24 C1177.93,1013.64 1178.13,1014.94 1178.83,1016.14 C1180.33,1018.84 1183.33,1020.54 1187.23,1020.94 C1187.83,1021.04 1188.33,1021.04 1188.93,1021.04 C1192.43,1021.04 1196.13,1020.04 1199.63,1018.14 C1206.23,1014.54 1210.43,1008.74 1210.43,1003.64 C1210.43,1002.24 1210.13,1000.84 1209.43,999.64"/>
<path class="Note" d="M1342.02,987.139 C1340.52,984.439 1337.62,982.739 1333.72,982.339 C1333.12,982.239 1332.62,982.239 1332.02,982.239 C1328.52,982.239 1324.72,983.239 1321.22,985.139 C1314.62,988.739 1310.52,994.639 1310.52,999.739 C1310.52,1001.14 1310.72,1002.44 1311.42,1003.64 C1312.92,1006.34 1315.92,1008.04 1319.82,1008.44 C1320.42,1008.54 1320.92,1008.54 1321.52,1008.54 C1325.02,1008.54 1328.72,1007.54 1332.22,1005.64 C1338.82,1002.04 1343.02,996.239 1343.02,991.139 C1343.02,989.739 1342.72,988.339 1342.02,987.139"/>
<path class="Note" d="M1474.6,974.639 C1473.1,971.939 1470.2,970.239 1466.3,969.839 C1465.7,969.739 1465.2,969.739 1464.6,969.739 C1461.1,969.739 1457.3,970.739 1453.8,972.639 C1447.2,976.239 1443.1,982.139 1443.1,987.239 C1443.1,988.639 1443.3,989.939 1444,991.139 C1445.5,993.839 1448.5,995.539 1452.4,995.939 C1453,996.039 1453.5,996.039 1454.1,996.039 C1457.6,996.039 1461.3,995.039 1464.8,993.139 C1471.4,989.539 1475.6,983.739 1475.6,978.639 C1475.6,977.239 1475.3,975.839 1474.6,974.639"/>
<path class="Note" d="M1652.94,962.138 C1651.44,959.438 1648.54,957.738 1644.64,957.338 C1644.04,957.238 1643.54,957.238 1642.94,957.238 C1639.44,957.238 1635.64,958.238 1632.14,960.138 C1625.54,963.738 1621.44,969.638 1621.44,974.738 C1621.44,976.138 1621.64,977.438 1622.34,978.638 C1623.84,981.338 1626.84,983.038 1630.74,983.438 C1631.34,983.538 1631.84,983.538 1632.44,983.538 C1635.94,983.538 1639.64,982.538 1643.14,980.638 C1649.74,977.038 1653.94,971.238 1653.94,966.138 C1653.94,964.738 1653.64,963.338 1652.94,962.138"/>
<path class="Note" d="M1799.63,949.637 C1798.13,946.937 1795.23,945.237 1791.33,944.837 C1790.73,944.737 1790.23,944.737 1789.63,944.737 C1786.13,944.737 1782.33,945.737 1778.83,947.637 C1772.23,951.237 1768.13,957.137 1768.13,962.237 C1768.13,963.637 1768.33,964.937 1769.03,966.137 C1770.53,968.837 1773.53,970.537 1777.43,970.937 C1778.03,971.037 1778.53,971.037 1779.13,971.037 C1782.63,971.037 1786.33,970.037 1789.83,968.137 C1796.43,964.537 1800.63,958.737 1800.63,953.637 C1800.63,952.237 1800.33,950.837 1799.63,949.637"/>
<path class="Note" d="M1946.32,937.136 C1944.82,934.436 1941.92,932.736 1938.02,932.336 C1937.42,932.236 1936.92,932.236 1936.32,932.236 C1932.82,932.236 1929.02,933.236 1925.52,935.136 C1918.92,938.736 1914.82,944.636 1914.82,949.736 C1914.82,951.136 1915.02,952.436 1915.72,953.636 C1917.22,956.336 1920.22,958.036 1924.12,958.436 C1924.72,958.536 1925.22,958.536 1925.82,958.536 C1929.32,958.536 1933.02,957.536 1936.52,955.636 C1943.12,952.036 1947.32,946.236 1947.32,941.136 C1947.32,939.736 1947.02,938.336 1946.32,937.136"/>
<path class="Note" d="M2093,924.635 C2091.5,921.935 2088.6,920.235 2084.7,919.835 C2084.1,919.735 2083.6,919.735 2083,919.735 C2079.5,919.735 2075.7,920.735 2072.2,922.635 C2065.6,926.235 2061.5,932.135 2061.5,937.235 C2061.5,938.635 2061.7,939.935 2062.4,941.135 C2063.9,943.835 2066.9,945.535 2070.8,945.935 C2071.4,946.035 2071.9,946.035 2072.5,946.035 C2076,946.035 2079.7,945.035 2083.2,943.135 C2089.8,939.535 2094,933.735 2094,928.635 C2094,927.235 2093.7,925.835 2093,924.635"/>
<path class="Note" d="M2301.24,912.135 C2299.74,909.435 2296.84,907.735 2292.94,907.335 C2292.34,907.235 2291.84,907.235 2291.24,907.235 C2287.74,907.235 2283.94,908.235 2280.44,910.135 C2273.84,913.735 2269.74,919.635 2269.74,924.735 C2269.74,926.135 2269.94,927.435 2270.64,928.635 C2272.14,931.335 2275.14,933.035 2279.04,933.435 C2279.64,933.535 2280.14,933.535 2280.74,933.535 C2284.24,933.535 2287.94,932.535 2291.44,930.635 C2298.04,927.035 2302.24,921.235 2302.24,916.135 C2302.24,914.735 2301.94,913.335 2301.24,912.135"/>
<path class="Note" d="M2437.46,899.634 C2435.96,896.934 2433.06,895.234 2429.16,894.834 C2428.56,894.734 2428.06,894.734 2427.46,894.734 C2423.96,894.734 2420.16,895.734 2416.66,897.634 C2410.06,901.234 2405.96,907.134 2405.96,912.234 C2405.96,913.634 2406.16,914.934 2406.86,916.134 C2408.36,918.834 2411.36,920.534 2415.26,920.934 C2415.86,921.034 2416.36,921.034 2416.96,921.034 C2420.46,921.034 2424.16,920.034 2427.66,918.134 C2434.26,914.534 2438.46,908.734 2438.46,903.634 C2438.46,902.234 2438.16,900.834 2437.46,899.634"/>
<path class="Note" d="M2573.68,887.133 C2572.18,884.433 2569.28,882.733 2565.38,882.333 C2564.78,882.233 2564.28,882.233 2563.68,882.233 C2560.18,882.233 2556.38,883.233 2552.88,885.133 C2546.28,888.733 2542.18,894.533 2542.18,899.633 C2542.18,901.033 2542.58,902.433 2543.28,903.633 C2544.78,906.433 2547.58,908.033 2551.48,908.433 C2552.08,908.533 2552.58,908.533 2553.18,908.533 C2556.68,908.533 2560.48,907.533 2563.98,905.633 C2570.58,902.033 2574.68,896.133 2574.68,891.033 C2574.68,889.633 2574.38,888.333 2573.68,887.133 M2569.48,893.433 C2567.78,895.233 2564.58,897.533 2560.98,899.633 C2557.38,901.733 2553.68,903.433 2551.38,904.133 C2550.88,904.233 2550.28,904.333 2549.78,904.333 C2548.28,904.333 2546.98,903.633 2546.28,902.533 C2545.98,901.933 2545.78,901.333 2545.78,900.733 C2545.78,899.633 2546.28,898.533 2547.38,897.333 C2549.08,895.533 2552.28,893.133 2555.88,891.033 C2559.48,888.933 2563.18,887.233 2565.58,886.633 L2565.78,886.633 C2566.38,886.433 2566.88,886.333 2567.38,886.333 C2568.78,886.333 2569.88,886.933 2570.58,888.233 C2570.88,888.833 2571.08,889.333 2571.08,889.933 C2571.08,891.233 2570.38,892.533 2569.48,893.433"/>
<path class="Note" d="M438.351,1512.17 C436.851,1509.47 433.951,1507.77 430.051,1507.37 C429.451,1507.27 428.951,1507.27 428.351,1507.27 C424.851,1507.27 421.051,1508.27 417.551,1510.17 C410.951,1513.77 406.851,1519.67 406.851,1524.77 C406.851,1526.17 407.051,1527.47 407.751,1528.67 C409.251,1531.37 412.251,1533.07 416.151,1533.47 C416.751,1533.57 417.251,1533.57 417.851,1533.57 C421.351,1533.57 425.051,1532.57 428.551,1530.67 C435.151,1527.07 439.351,1521.27 439.351,1516.17 C439.351,1514.77 439.051,1513.37 438.351,1512.17"/>
<path class="Note" d="M585.478,1524.67 C583.978,1521.97 581.078,1520.27 577.178,1519.87 C576.578,1519.77 576.078,1519.77 575.478,1519.77 C571.978,1519.77 568.178,1520.77 564.678,1522.67 C558.078,1526.27 553.978,1532.17 553.978,1537.27 C553.978,1538.67 554.178,1539.97 554.878,1541.17 C556.378,1543.87 559.378,1545.57 563.278,1545.97 C563.878,1546.07 564.378,1546.07 564.978,1546.07 C568.478,1546.07 572.178,1545.07 575.678,1543.17 C582.278,1539.57 586.478,1533.77 586.478,1528.67 C586.478,1527.27 586.178,1525.87 585.478,1524.67"/>
<path class="Note" d="M732.605,1537.17 C731.105,1534.47 728.205,1532.77 724.305,1532.37 C723.705,1532.27 723.205,1532.27 722.605,1532.27 C719.105,1532.27 715.305,1533.27 711.805,1535.17 C705.205,1538.77 701.105,1544.67 701.105,1549.77 C701.105,1551.17 701.305,1552.47 702.005,1553.67 C703.505,1556.37 706.505,1558.07 710.405,1558.47 C711.005,1558.57 711.505,1558.57 712.105,1558.57 C715.605,1558.57 719.305,1557.57 722.805,1555.67 C729.405,1552.07 733.605,1546.27 733.605,1541.17 C733.605,1539.77 733.305,1538.37 732.605,1537.17"/>
<path class="Note" d="M879.731,1549.67 C878.231,1546.97 875.331,1545.27 871.431,1544.87 C870.831,1544.77 870.331,1544.77 869.731,1544.77 C866.231,1544.77 862.431,1545.77 858.931,1547.67 C852.331,1551.27 848.231,1557.17 848.231,1562.27 C848.231,1563.67 848.431,1564.97 849.131,1566.17 C850.631,1568.87 853.631,1570.57 857.531,1570.97 C858.131,1571.07 858.631,1571.07 859.231,1571.07 C862.731,1571.07 866.431,1570.07 869.931,1568.17 C876.531,1564.57 880.731,1558.77 880.731,1553.67 C880.731,1552.27 880.431,1550.87 879.731,1549.67"/>
<path class="Note" d="M1088.41,1562.18 C1086.91,1559.48 1084.01,1557.78 1080.11,1557.38 C1079.51,1557.28 1079.01,1557.28 1078.41,1557.28 C1074.91,1557.28 1071.11,1558.28 1067.61,1560.18 C1061.01,1563.78 1056.91,1569.68 1056.91,1574.78 C1056.91,1576.18 1057.11,1577.48 1057.81,1578.68 C1059.31,1581.38 1062.31,1583.08 1066.21,1583.48 C1066.81,1583.58 1067.31,1583.58 1067.91,1583.58 C1071.41,1583.58 1075.11,1582.58 1078.61,1580.68 C1085.21,1577.08 1089.41,1571.28 1089.41,1566.18 C1089.41,1564.78 1089.11,1563.38 1088.41,1562.18"/>
<path class="Note" d="M1219.7,1574.68 C1218.2,1571.98 1215.3,1570.28 1211.4,1569.88 C1210.8,1569.78 1210.3,1569.78 1209.7,1569.78 C1206.2,1569.78 1202.4,1570.78 1198.9,1572.68 C1192.3,1576.28 1188.2,1582.18 1188.2,1587.28 C1188.2,1588.68 1188.4,1589.98 1189.1,1591.18 C1190.6,1593.88 1193.6,1595.58 1197.5,1595.98 C1198.1,1596.08 1198.6,1596.08 1199.2,1596.08 C1202.7,1596.08 1206.4,1595.08 1209.9,1593.18 C1216.5,1589.58 1220.7,1583.78 1220.7,1578.68 C1220.7,1577.28 1220.4,1575.88 1219.7,1574.68"/>
<path class="Note" d="M1350.98,1587.18 C1349.48,1584.48 1346.58,1582.78 1342.68,1582.38 C1342.08,1582.28 1341.58,1582.28 1340.98,1582.28 C1337.48,1582.28 1333.68,1583.28 1330.18,1585.18 C1323.58,1588.78 1319.48,1594.68 1319.48,1599.78 C1319.48,1601.18 1319.68,1602.48 1320.38,1603.68 C1321.88,1606.38 1324.88,1608.08 1328.78,1608.48 C1329.38,1608.58 1329.88,1608.58 1330.48,1608.58 C1333.98,1608.58 1337.68,1607.58 1341.18,1605.68 C1347.78,1602.08 1351.98,1596.28 1351.98,1591.18 C1351.98,1589.78 1351.68,1588.38 1350.98,1587.18"/>
<path class="Note" d="M1482.27,1599.68 C1480.77,1596.98 1477.87,1595.28 1473.97,1594.88 C1473.37,1594.78 1472.87,1594.78 1472.27,1594.78 C1468.77,1594.78 1464.97,1595.78 1461.47,1597.68 C1454.87,1601.28 1450.77,1607.18 1450.77,1612.28 C1450.77,1613.68 1450.97,1614.98 1451.67,1616.18 C1453.17,1618.88 1456.17,1620.58 1460.07,1620.98 C1460.67,1621.08 1461.17,1621.08 1461.77,1621.08 C1465.27,1621.08 1468.97,1620.08 1472.47,1618.18 C1479.07,1614.58 1483.27,1608.78 1483.27,1603.68 C1483.27,1602.28 1482.97,1600.88 1482.27,1599.68"/>
<path class="Note" d="M1716.18,1462.17 C1714.68,1459.47 1711.78,1457.77 1707.88,1457.37 C1707.28,1457.27 1706.78,1457.27 1706.18,1457.27 C1702.68,1457.27 1698.88,1458.27 1695.38,1460.17 C1688.78,1463.77 1684.68,1469.67 1684.68,1474.77 C1684.68,1476.17 1684.88,1477.47 1685.58,1478.67 C1687.08,1481.37 1690.08,1483.07 1693.98,1483.47 C1694.58,1483.57 1695.08,1483.57 1695.68,1483.57 C1699.18,1483.57 1702.88,1482.57 1706.38,1480.67 C1712.98,1477.07 1717.18,1471.27 1717.18,1466.17 C1717.18,1464.77 1716.88,1463.37 1716.18,1462.17"/>
<path class="Note" d="M1860.68,1474.67 C1859.18,1471.97 1856.28,1470.27 1852.38,1469.87 C1851.78,1469.77 1851.28,1469.77 1850.68,1469.77 C1847.18,1469.77 1843.38,1470.77 1839.88,1472.67 C1833.28,1476.27 1829.18,1482.17 1829.18,1487.27 C1829.18,1488.67 1829.38,1489.97 1830.08,1491.17 C1831.58,1493.87 1834.58,1495.57 1838.48,1495.97 C1839.08,1496.07 1839.58,1496.07 1840.18,1496.07 C1843.68,1496.07 1847.38,1495.07 1850.88,1493.17 C1857.48,1489.57 1861.68,1483.77 1861.68,1478.67 C1861.68,1477.27 1861.38,1475.87 1860.68,1474.67"/>
<path class="Note" d="M2005.19,1487.17 C2003.69,1484.47 2000.79,1482.77 1996.89,1482.37 C1996.29,1482.27 1995.79,1482.27 1995.19,1482.27 C1991.69,1482.27 1987.89,1483.27 1984.39,1485.17 C1977.79,1488.77 1973.69,1494.67 1973.69,1499.77 C1973.69,1501.17 1973.89,1502.47 1974.59,1503.67 C1976.09,1506.37 1979.09,1508.07 1982.99,1508.47 C1983.59,1508.57 1984.09,1508.57 1984.69,1508.57 C1988.19,1508.57 1991.89,1507.57 1995.39,1505.67 C2001.99,1502.07 2006.19,1496.27 2006.19,1491.17 C2006.19,1489.77 2005.89,1488.37 2005.19,1487.17"/>
<path class="Note" d="M2149.69,1499.67 C2148.19,1496.97 2145.29,1495.27 2141.39,1494.87 C2140.79,1494.77 2140.29,1494.77 2139.69,1494.77 C2136.19,1494.77 2132.39,1495.77 2128.89,1497.67 C2122.29,1501.27 2118.19,1507.17 2118.19,1512.27 C2118.19,1513.67 2118.39,1514.97 2119.09,1516.17 C2120.59,1518.87 2123.59,1520.57 2127.49,1520.97 C2128.09,1521.07 2128.59,1521.07 2129.19,1521.07 C2132.69,1521.07 2136.39,1520.07 2139.89,1518.17 C2146.49,1514.57 2150.69,1508.77 2150.69,1503.67 C2150.69,1502.27 2150.39,1500.87 2149.69,1499.67"/>
<path class="Note" d="M2331.19,1512.17 C2329.69,1509.47 2326.79,1507.77 2322.89,1507.37 C2322.29,1507.27 2321.79,1507.27 2321.19,1507.27 C2317.69,1507.27 2313.89,1508.27 2310.39,1510.17 C2303.79,1513.77 2299.69,1519.67 2299.69,1524.77 C2299.69,1526.17 2299.89,1527.47 2300.59,1528.67 C2302.09,1531.37 2305.09,1533.07 2308.99,1533.47 C2309.59,1533.57 2310.09,1533.57 2310.69,1533.57 C2314.19,1533.57 2317.89,1532.57 2321.39,1530.67 C2327.99,1527.07 2332.19,1521.27 2332.19,1516.17 C2332.19,1514.77 2331.89,1513.37 2331.19,1512.17"/>
<path class="Note" d="M2477.9,1524.67 C2476.4,1521.97 2473.5,1520.27 2469.6,1519.87 C2469,1519.77 2468.5,1519.77 2467.9,1519.77 C2464.4,1519.77 2460.6,1520.77 2457.1,1522.67 C2450.5,1526.27 2446.4,1532.07 2446.4,1537.17 C2446.4,1538.57 2446.8,1539.97 2447.5,1541.17 C2449,1543.97 2451.8,1545.57 2455.7,1545.97 C2456.3,1546.07 2456.8,1546.07 2457.4,1546.07 C2460.9,1546.07 2464.7,1545.07 2468.2,1543.17 C2474.8,1539.57 2478.9,1533.67 2478.9,1528.57 C2478.9,1527.17 2478.6,1525.87 2477.9,1524.67 M2473.7,1530.97 C2472,1532.77 2468.8,1535.07 2465.2,1537.17 C2461.6,1539.27 2457.9,1540.97 2455.6,1541.67 C2455.1,1541.77 2454.5,1541.87 2454,1541.87 C2452.5,1541.87 2451.2,1541.17 2450.5,1540.07 C2450.2,1539.47 2450,1538.87 2450,1538.27 C2450,1537.17 2450.5,1536.07 2451.6,1534.87 C2453.3,1533.07 2456.5,1530.67 2460.1,1528.57 C2463.7,1526.47 2467.4,1524.77 2469.8,1524.17 L2470,1524.17 C2470.6,1523.97 2471.1,1523.87 2471.6,1523.87 C2473,1523.87 2474.1,1524.47 2474.8,1525.77 C2475.1,1526.37 2475.3,1526.87 2475.3,1527.47 C2475.3,1528.77 2474.6,1530.07 2473.7,1530.97"/>
<path class="Note" d="M486.502,712.122 C485.002,709.422 482.102,707.722 478.202,707.322 C477.602,707.222 477.102,707.222 476.502,707.222 C473.002,707.222 469.202,708.222 465.702,710.122 C459.102,713.722 455.002,719.622 455.002,724.722 C455.002,726.122 455.202,727.422 455.902,728.622 C457.402,731.322 460.402,733.022 464.302,733.422 C464.902,733.522 465.402,733.522 466.002,733.522 C469.502,733.522 473.202,732.522 476.702,730.622 C483.302,727.022 487.502,721.222 487.502,716.122 C487.502,714.722 487.202,713.322 486.502,712.122"/>
<path class="Note" d="M621.713,699.621 C620.213,696.921 617.313,695.221 613.413,694.821 C612.813,694.721 612.313,694.721 611.713,694.721 C608.213,694.721 604.413,695.721 600.913,697.621 C594.313,701.221 590.213,707.121 590.213,712.221 C590.213,713.621 590.413,714.921 591.113,716.121 C592.613,718.821 595.613,720.521 599.513,720.921 C600.113,721.021 600.613,721.021 601.213,721.021 C604.713,721.021 608.413,720.021 611.913,718.121 C618.513,714.521 622.713,708.721 622.713,703.621 C622.713,702.221 622.413,700.821 621.713,699.621"/>
<path class="Note" d="M756.924,687.12 C755.424,684.42 752.524,682.72 748.624,682.32 C748.024,682.22 747.524,682.22 746.924,682.22 C743.424,682.22 739.624,683.22 736.124,685.12 C729.524,688.72 725.424,694.62 725.424,699.72 C725.424,701.12 725.624,702.42 726.324,703.62 C727.824,706.32 730.824,708.02 734.724,708.42 C735.324,708.52 735.824,708.52 736.424,708.52 C739.924,708.52 743.624,707.52 747.124,705.62 C753.724,702.02 757.924,696.22 757.924,691.12 C757.924,689.72 757.624,688.32 756.924,687.12"/>
<path class="Note" d="M892.134,674.62 C890.634,671.92 887.734,670.22 883.834,669.82 C883.234,669.72 882.734,669.72 882.134,669.72 C878.634,669.72 874.834,670.72 871.334,672.62 C864.734,676.22 860.634,682.12 860.634,687.22 C860.634,688.62 860.834,689.92 861.534,691.12 C863.034,693.82 866.034,695.52 869.934,695.92 C870.534,696.02 871.034,696.02 871.634,696.02 C875.134,696.02 878.834,695.02 882.334,693.12 C888.934,689.52 893.134,683.72 893.134,678.62 C893.134,677.22 892.834,675.82 892.134,674.62"/>
<path class="Note" d="M1076.85,662.119 C1075.35,659.419 1072.45,657.719 1068.55,657.319 C1067.95,657.219 1067.45,657.219 1066.85,657.219 C1063.35,657.219 1059.55,658.219 1056.05,660.119 C1049.45,663.719 1045.35,669.619 1045.35,674.719 C1045.35,676.119 1045.55,677.419 1046.25,678.619 C1047.75,681.319 1050.75,683.019 1054.65,683.419 C1055.25,683.519 1055.75,683.519 1056.35,683.519 C1059.85,683.519 1063.55,682.519 1067.05,680.619 C1073.65,677.019 1077.85,671.219 1077.85,666.119 C1077.85,664.719 1077.55,663.319 1076.85,662.119"/>
<path class="Note" d="M1209.43,649.618 C1207.93,646.918 1205.03,645.218 1201.13,644.818 C1200.53,644.718 1200.03,644.718 1199.43,644.718 C1195.93,644.718 1192.13,645.718 1188.63,647.618 C1182.03,651.218 1177.93,657.118 1177.93,662.218 C1177.93,663.618 1178.13,664.918 1178.83,666.118 C1180.33,668.818 1183.33,670.518 1187.23,670.918 C1187.83,671.018 1188.33,671.018 1188.93,671.018 C1192.43,671.018 1196.13,670.018 1199.63,668.118 C1206.23,664.518 1210.43,658.718 1210.43,653.618 C1210.43,652.218 1210.13,650.818 1209.43,649.618"/>
<path class="Note" d="M1342.02,637.117 C1340.52,634.417 1337.62,632.717 1333.72,632.317 C1333.12,632.217 1332.62,632.217 1332.02,632.217 C1328.52,632.217 1324.72,633.217 1321.22,635.117 C1314.62,638.717 1310.52,644.617 1310.52,649.717 C1310.52,651.117 1310.72,652.417 1311.42,653.617 C1312.92,656.317 1315.92,658.017 1319.82,658.417 C1320.42,658.517 1320.92,658.517 1321.52,658.517 C1325.02,658.517 1328.72,657.517 1332.22,655.617 C1338.82,652.017 1343.02,646.217 1343.02,641.117 C1343.02,639.717 1342.72,638.317 1342.02,637.117"/>
<path class="Note" d="M1474.6,624.616 C1473.1,621.916 1470.2,620.216 1466.3,619.816 C1465.7,619.716 1465.2,619.716 1464.6,619.716 C1461.1,619.716 1457.3,620.716 1453.8,622.616 C1447.2,626.216 1443.1,632.116 1443.1,637.216 C1443.1,638.616 1443.3,639.916 1444,641.116 C1445.5,643.816 1448.5,645.516 1452.4,645.916 C1453,646.016 1453.5,646.016 1454.1,646.016 C1457.6,646.016 1461.3,645.016 1464.8,643.116 C1471.4,639.516 1475.6,633.716 1475.6,628.616 C1475.6,627.216 1475.3,625.816 1474.6,624.616"/>
<path class="Note" d="M1652.94,612.116 C1651.44,609.416 1648.54,607.716 1644.64,607.316 C1644.04,607.216 1643.54,607.216 1642.94,607.216 C1639.44,607.216 1635.64,608.216 1632.14,610.116 C1625.54,613.716 1621.44,619.616 1621.44,624.716 C1621.44,626.116 1621.64,627.416 1622.34,628.616 C1623.84,631.316 1626.84,633.016 1630.74,633.416 C1631.34,633.516 1631.84,633.516 1632.44,633.516 C1635.94,633.516 1639.64,632.516 1643.14,630.616 C1649.74,627.016 1653.94,621.216 1653.94,616.116 C1653.94,614.716 1653.64,613.316 1652.94,612.116"/>
<path class="Note" d="M1799.63,599.615 C1798.13,596.915 1795.23,595.215 1791.33,594.815 C1790.73,594.715 1790.23,594.715 1789.63,594.715 C1786.13,594.715 1782.33,595.715 1778.83,597.615 C1772.23,601.215 1768.13,607.115 1768.13,612.215 C1768.13,613.615 1768.33,614.915 1769.03,616.115 C1770.53,618.815 1773.53,620.515 1777.43,620.915 C1778.03,621.015 1778.53,621.015 1779.13,621.015 C1782.63,621.015 1786.33,620.015 1789.83,618.115 C1796.43,614.515 1800.63,608.715 1800.63,603.615 C1800.63,602.215 1800.33,600.815 1799.63,599.615"/>
<path class="Note" d="M1946.32,587.114 C1944.82,584.414 1941.92,582.714 1938.02,582.314 C1937.42,582.214 1936.92,582.214 1936.32,582.214 C1932.82,582.214 1929.02,583.214 1925.52,585.114 C1918.92,588.714 1914.82,594.614 1914.82,599.714 C1914.82,601.114 1915.02,602.414 1915.72,603.614 C1917.22,606.314 1920.22,608.014 1924.12,608.414 C1924.72,608.514 1925.22,608.514 1925.82,608.514 C1929.32,608.514 1933.02,607.514 1936.52,605.614 C1943.12,602.014 1947.32,596.214 1947.32,591.114 C1947.32,589.714 1947.02,588.314 1946.32,587.114"/>
<path class="Note" d="M2093,574.613 C2091.5,571.913 2088.6,570.213 2084.7,569.813 C2084.1,569.713 2083.6,569.713 2083,569.713 C2079.5,569.713 2075.7,570.713 2072.2,572.613 C2065.6,576.213 2061.5,582.113 2061.5,587.213 C2061.5,588.613 2061.7,589.913 2062.4,591.113 C2063.9,593.813 2066.9,595.513 2070.8,595.913 C2071.4,596.013 2071.9,596.013 2072.5,596.013 C2076,596.013 2079.7,595.013 2083.2,593.113 C2089.8,589.513 2094,583.713 2094,578.613 C2094,577.213 2093.7,575.813 2093,574.613"/>
<path class="Note" d="M2301.24,562.113 C2299.74,559.413 2296.84,557.713 2292.94,557.313 C2292.34,557.213 2291.84,557.213 2291.24,557.213 C2287.74,557.213 2283.94,558.213 2280.44,560.113 C2273.84,563.713 2269.74,569.613 2269.74,574.713 C2269.74,576.113 2269.94,577.413 2270.64,578.613 C2272.14,581.313 2275.14,583.013 2279.04,583.413 C2279.64,583.513 2280.14,583.513 2280.74,583.513 C2284.24,583.513 2287.94,582.513 2291.44,580.613 C2298.04,577.013 2302.24,571.213 2302.24,566.113 C2302.24,564.713 2301.94,563.313 2301.24,562.113"/>
<path class="Note" d="M2437.46,549.612 C2435.96,546.912 2433.06,545.212 2429.16,544.812 C2428.56,544.712 2428.06,544.712 2427.46,544.712 C2423.96,544.712 2420.16,545.712 2416.66,547.612 C2410.06,551.212 2405.96,557.112 2405.96,562.212 C2405.96,563.612 2406.16,564.912 2406.86,566.112 C2408.36,568.812 2411.36,570.512 2415.26,570.912 C2415.86,571.012 2416.36,571.012 2416.96,571.012 C2420.46,571.012 2424.16,570.012 2427.66,568.112 C2434.26,564.512 2438.46,558.712 2438.46,553.612 C2438.46,552.212 2438.16,550.812 2437.46,549.612"/>
<path class="Note" d="M2573.68,537.111 C2572.18,534.411 2569.28,532.711 2565.38,532.311 C2564.78,532.211 2564.28,532.211 2563.68,532.211 C2560.18,532.211 2556.38,533.211 2552.88,535.111 C2546.28,538.711 2542.18,544.511 2542.18,549.611 C2542.18,551.011 2542.58,552.411 2543.28,553.611 C2544.78,556.411 2547.58,558.011 2551.48,558.411 C2552.08,558.511 2552.58,558.511 2553.18,558.511 C2556.68,558.511 2560.48,557.511 2563.98,555.611 C2570.58,552.011 2574.68,546.111 2574.68,541.011 C2574.68,539.611 2574.38,538.311 2573.68,537.111 M2569.48,543.411 C2567.78,545.211 2564.58,547.511 2560.98,549.611 C2557.38,551.711 2553.68,553.411 2551.38,554.111 C2550.88,554.211 2550.28,554.311 2549.78,554.311 C2548.28,554.311 2546.98,553.611 2546.28,552.511 C2545.98,551.911 2545.78,551.311 2545.78,550.711 C2545.78,549.611 2546.28,548.511 2547.38,547.311 C2549.08,545.511 2552.28,543.111 2555.88,541.011 C2559.48,538.911 2563.18,537.211 2565.58,536.611 L2565.78,536.611 C2566.38,536.411 2566.88,536.311 2567.38,536.311 C2568.78,536.311 2569.88,536.911 2570.58,538.211 C2570.88,538.811 2571.08,539.311 2571.08,539.911 C2571.08,541.211 2570.38,542.511 2569.48,543.411"/>
<path class="Note" d="M438.351,1162.15 C436.851,1159.45 433.951,1157.75 430.051,1157.35 C429.451,1157.25 428.951,1157.25 428.351,1157.25 C424.851,1157.25 421.051,1158.25 417.551,1160.15 C410.951,1163.75 406.851,1169.65 406.851,1174.75 C406.851,1176.15 407.051,1177.45 407.751,1178.65 C409.251,1181.35 412.251,1183.05 416.151,1183.45 C416.751,1183.55 417.251,1183.55 417.851,1183.55 C421.351,1183.55 425.051,1182.55 428.551,1180.65 C435.151,1177.05 439.351,1171.25 439.351,1166.15 C439.351,1164.75 439.051,1163.35 438.351,1162.15"/>
<path class="Note" d="M585.478,1174.65 C583.978,1171.95 581.078,1170.25 577.178,1169.85 C576.578,1169.75 576.078,1169.75 575.478,1169.75 C571.978,1169.75 568.178,1170.75 564.678,1172.65 C558.078,1176.25 553.978,1182.15 553.978,1187.25 C553.978,1188.65 554.178,1189.95 554.878,1191.15 C556.378,1193.85 559.378,1195.55 563.278,1195.95 C563.878,1196.05 564.378,1196.05 564.978,1196.05 C568.478,1196.05 572.178,1195.05 575.678,1193.15 C582.278,1189.55 586.478,1183.75 586.478,1178.65 C586.478,1177.25 586.178,1175.85 585.478,1174.65"/>
<path class="Note" d="M732.605,1187.15 C731.105,1184.45 728.205,1182.75 724.305,1182.35 C723.705,1182.25 723.205,1182.25 722.605,1182.25 C719.105,1182.25 715.305,1183.25 711.805,1185.15 C705.205,1188.75 701.105,1194.65 701.105,1199.75 C701.105,1201.15 701.305,1202.45 702.005,1203.65 C703.505,1206.35 706.505,1208.05 710.405,1208.45 C711.005,1208.55 711.505,1208.55 712.105,1208.55 C715.605,1208.55 719.305,1207.55 722.805,1205.65 C729.405,1202.05 733.605,1196.25 733.605,1191.15 C733.605,1189.75 733.305,1188.35 732.605,1187.15"/>
<path class="Note" d="M879.731,1199.65 C878.231,1196.95 875.331,1195.25 871.431,1194.85 C870.831,1194.75 870.331,1194.75 869.731,1194.75 C866.231,1194.75 862.431,1195.75 858.931,1197.65 C852.331,1201.25 848.231,1207.15 848.231,1212.25 C848.231,1213.65 848.431,1214.95 849.131,1216.15 C850.631,1218.85 853.631,1220.55 857.531,1220.95 C858.131,1221.05 858.631,1221.05 859.231,1221.05 C862.731,1221.05 866.431,1220.05 869.931,1218.15 C876.531,1214.55 880.731,1208.75 880.731,1203.65 C880.731,1202.25 880.431,1200.85 879.731,1199.65"/>
<path class="Note" d="M1088.41,1212.15 C1086.91,1209.45 1084.01,1207.75 1080.11,1207.35 C1079.51,1207.25 1079.01,1207.25 1078.41,1207.25 C1074.91,1207.25 1071.11,1208.25 1067.61,1210.15 C1061.01,1213.75 1056.91,1219.65 1056.91,1224.75 C1056.91,1226.15 1057.11,1227.45 1057.81,1228.65 C1059.31,1231.35 1062.31,1233.05 1066.21,1233.45 C1066.81,1233.55 1067.31,1233.55 1067.91,1233.55 C1071.41,1233.55 1075.11,1232.55 1078.61,1230.65 C1085.21,1227.05 1089.41,1221.25 1089.41,1216.15 C1089.41,1214.75 1089.11,1213.35 1088.41,1212.15"/>
<path class="Note" d="M1219.7,1224.65 C1218.2,1221.95 1215.3,1220.25 1211.4,1219.85 C1210.8,1219.75 1210.3,1219.75 1209.7,1219.75 C1206.2,1219.75 1202.4,1220.75 1198.9,1222.65 C1192.3,1226.25 1188.2,1232.15 1188.2,1237.25 C1188.2,1238.65 1188.4,1239.95 1189.1,1241.15 C1190.6,1243.85 1193.6,1245.55 1197.5,1245.95 C1198.1,1246.05 1198.6,1246.05 1199.2,1246.05 C1202.7,1246.05 1206.4,1245.05 1209.9,1243.15 C1216.5,1239.55 1220.7,1233.75 1220.7,1228.65 C1220.7,1227.25 1220.4,1225.85 1219.7,1224.65"/>
<path class="Note" d="M1350.98,1237.16 C1349.48,1234.46 1346.58,1232.76 1342.68,1232.36 C1342.08,1232.26 1341.58,1232.26 1340.98,1232.26 C1337.48,1232.26 1333.68,1233.26 1330.18,1235.16 C1323.58,1238.76 1319.48,1244.66 1319.48,1249.76 C1319.48,1251.16 1319.68,1252.46 1320.38,1253.66 C1321.88,1256.36 1324.88,1258.06 1328.78,1258.46 C1329.38,1258.56 1329.88,1258.56 1330.48,1258.56 C1333.98,1258.56 1337.68,1257.56 1341.18,1255.66 C1347.78,1252.06 1351.98,1246.26 1351.98,1241.16 C1351.98,1239.76 1351.68,1238.36 1350.98,1237.16"/>
<path class="Note" d="M1482.27,1249.66 C1480.77,1246.96 1477.87,1245.26 1473.97,1244.86 C1473.37,1244.76 1472.87,1244.76 1472.27,1244.76 C1468.77,1244.76 1464.97,1245.76 1461.47,1247.66 C1454.87,1251.26 1450.77,1257.16 1450.77,1262.26 C1450.77,1263.66 1450.97,1264.96 1451.67,1266.16 C1453.17,1268.86 1456.17,1270.56 1460.07,1270.96 C1460.67,1271.06 1461.17,1271.06 1461.77,1271.06 C1465.27,1271.06 1468.97,1270.06 1472.47,1268.16 C1479.07,1264.56 1483.27,1258.76 1483.27,1253.66 C1483.27,1252.26 1482.97,1250.86 1482.27,1249.66"/>
<path class="Note" d="M1716.18,1262.16 C1714.68,1259.46 1711.78,1257.76 1707.88,1257.36 C1707.28,1257.26 1706.78,1257.26 1706.18,1257.26 C1702.68,1257.26 1698.88,1258.26 1695.38,1260.16 C1688.78,1263.76 1684.68,1269.66 1684.68,1274.76 C1684.68,1276.16 1684.88,1277.46 1685.58,1278.66 C1687.08,1281.36 1690.08,1283.06 1693.98,1283.46 C1694.58,1283.56 1695.08,1283.56 1695.68,1283.56 C1699.18,1283.56 1702.88,1282.56 1706.38,1280.66 C1712.98,1277.06 1717.18,1271.26 1717.18,1266.16 C1717.18,1264.76 1716.88,1263.36 1716.18,1262.16"/>
<path class="Note" d="M1860.68,1274.66 C1859.18,1271.96 1856.28,1270.26 1852.38,1269.86 C1851.78,1269.76 1851.28,1269.76 1850.68,1269.76 C1847.18,1269.76 1843.38,1270.76 1839.88,1272.66 C1833.28,1276.26 1829.18,1282.16 1829.18,1287.26 C1829.18,1288.66 1829.38,1289.96 1830.08,1291.16 C1831.58,1293.86 1834.58,1295.56 1838.48,1295.96 C1839.08,1296.06 1839.58,1296.06 1840.18,1296.06 C1843.68,1296.06 1847.38,1295.06 1850.88,1293.16 C1857.48,1289.56 1861.68,1283.76 1861.68,1278.66 C1861.68,1277.26 1861.38,1275.86 1860.68,1274.66"/>
<path class="Note" d="M2005.19,1287.16 C2003.69,1284.46 2000.79,1282.76 1996.89,1282.36 C1996.29,1282.26 1995.79,1282.26 1995.19,1282.26 C1991.69,1282.26 1987.89,1283.26 1984.39,1285.16 C1977.79,1288.76 1973.69,1294.66 1973.69,1299.76 C1973.69,1301.16 1973.89,1302.46 1974.59,1303.66 C1976.09,1306.36 1979.09,1308.06 1982.99,1308.46 C1983.59,1308.56 1984.09,1308.56 1984.69,1308.56 C1988.19,1308.56 1991.89,1307.56 1995.39,1305.66 C2001.99,1302.06 2006.19,1296.26 2006.19,1291.16 C2006.19,1289.76 2005.89,1288.36 2005.19,1287.16"/>
<path class="Note" d="M2149.69,1299.66 C2148.19,1296.96 2145.29,1295.26 2141.39,1294.86 C2140.79,1294.76 2140.29,1294.76 2139.69,1294.76 C2136.19,1294.76 2132.39,1295.76 2128.89,1297.66 C2122.29,1301.26 2118.19,1307.16 2118.19,1312.26 C2118.19,1313.66 2118.39,1314.96 2119.09,1316.16 C2120.59,1318.86 2123.59,1320.56 2127.49,1320.96 C2128.09,1321.06 2128.59,1321.06 2129.19,1321.06 C2132.69,1321.06 2136.39,1320.06 2139.89,1318.16 C2146.49,1314.56 2150.69,1308.76 2150.69,1303.66 C2150.69,1302.26 2150.39,1300.86 2149.69,1299.66"/>
<path class="Note" d="M2331.19,1312.16 C2329.69,1309.46 2326.79,1307.76 2322.89,1307.36 C2322.29,1307.26 2321.79,1307.26 2321.19,1307.26 C2317.69,1307.26 2313.89,1308.26 2310.39,1310.16 C2303.79,1313.76 2299.69,1319.66 2299.69,1324.76 C2299.69,1326.16 2299.89,1327.46 2300.59,1328.66 C2302.09,1331.36 2305.09,1333.06 2308.99,1333.46 C2309.59,1333.56 2310.09,1333.56 2310.69,1333.56 C2314.19,1333.56 2317.89,1332.56 2321.39,1330.66 C2327.99,1327.06 2332.19,1321.26 2332.19,1316.16 C2332.19,1314.76 2331.89,1313.36 2331.19,1312.16"/>
<path class="Note" d="M2477.9,1324.66 C2476.4,1321.96 2473.5,1320.26 2469.6,1319.86 C2469,1319.76 2468.5,1319.76 2467.9,1319.76 C2464.4,1319.76 2460.6,1320.76 2457.1,1322.66 C2450.5,1326.26 2446.4,1332.06 2446.4,1337.16 C2446.4,1338.56 2446.8,1339.96 2447.5,1341.16 C2449,1343.96 2451.8,1345.56 2455.7,1345.96 C2456.3,1346.06 2456.8,1346.06 2457.4,1346.06 C2460.9,1346.06 2464.7,1345.06 2468.2,1343.16 C2474.8,1339.56 2478.9,1333.66 2478.9,1328.56 C2478.9,1327.16 2478.6,1325.86 2477.9,1324.66 M2473.7,1330.96 C2472,1332.76 2468.8,1335.06 2465.2,1337.16 C2461.6,1339.26 2457.9,1340.96 2455.6,1341.66 C2455.1,1341.76 2454.5,1341.86 2454,1341.86 C2452.5,1341.86 2451.2,1341.16 2450.5,1340.06 C2450.2,1339.46 2450,1338.86 2450,1338.26 C2450,1337.16 2450.5,1336.06 2451.6,1334.86 C2453.3,1333.06 2456.5,1330.66 2460.1,1328.56 C2463.7,1326.46 2467.4,1324.76 2469.8,1324.16 L2470,1324.16 C2470.6,1323.96 2471.1,1323.86 2471.6,1323.86 C2473,1323.86 2474.1,1324.46 2474.8,1325.76 C2475.1,1326.36 2475.3,1326.86 2475.3,1327.46 C2475.3,1328.76 2474.6,1330.06 2473.7,1330.96"/>
<path class="Clef" d="M297,907.735 C289.4,907.735 283.3,912.135 283.2,912.135 C277.4,916.435 275.1,921.535 274.2,925.035 C273.7,926.835 273.5,928.635 273.5,930.335 C273.5,932.735 273.9,934.935 274.8,936.835 C276,939.535 278.3,941.435 281.3,942.435 C282.5,942.835 283.8,943.035 285.1,943.035 C287.3,943.035 289.6,942.435 291.5,941.335 C294.6,939.635 296.5,936.035 296.5,932.135 C296.5,928.635 294.7,925.435 291.7,923.535 C289.6,922.135 287.6,921.735 285.9,921.735 C284.7,921.735 283.6,921.935 282.7,922.235 C281.7,922.635 280,923.635 279.2,924.335 C279.5,922.435 280.7,919.535 281.8,917.935 C282.9,916.335 285.1,914.335 286.8,913.435 C289.3,912.035 292.5,911.435 296,911.435 C306.2,911.435 311.2,919.635 311.2,936.435 C311.2,945.735 307.7,954.635 304.7,960.535 C301.4,967.135 297,973.435 293.1,976.935 C282.7,986.435 272.9,990.935 272.8,990.935 C272.8,990.935 271.3,991.835 271.7,993.335 C272,994.335 272.9,994.535 273.5,994.535 C273.6,994.535 273.9,994.435 274,994.435 C274.1,994.435 285.5,989.735 294.6,982.635 C299.7,978.935 304.3,974.935 308.3,970.635 C311.9,966.735 315,962.535 317.5,958.335 C321.9,950.835 324.4,943.035 324.4,936.335 C324.4,928.035 322.2,921.135 318.1,916.235 C313.4,910.635 306.3,907.735 297,907.735 M328.4,920.435 C328.4,923.235 330.6,925.435 333.2,925.435 C335.8,925.435 338,923.235 338,920.435 C338,917.635 335.8,915.335 333.2,915.335 C330.6,915.335 328.4,917.635 328.4,920.435 M328.4,945.135 C328.4,947.935 330.6,950.235 333.2,950.235 C335.8,950.235 338,947.935 338,945.135 C338,942.335 335.8,940.035 333.2,940.035 C330.6,940.035 328.4,942.335 328.4,945.135"/>
<path class="Clef" transform="matrix(0.80005,0,0,0.80005,944.648,982.839)" d="M63.4,-5.9 C62.2,-11.3 59.5,-15.2 58.7,-16.2 C55.5,-20.5 51.5,-23.3 46.8,-24.7 C44.5,-25.4 42.4,-25.6 40.4,-25.6 C39.7,-25.6 39,-25.6 38.3,-25.5 C37.3,-31.5 36.2,-37.4 35.3,-42.8 C40.9,-49 44.6,-54.9 47,-59.3 C50.6,-66 52,-70.7 52.1,-70.9 C53.3,-73.9 54,-77.7 54,-82.2 C54,-84.9 53.7,-87.8 53.3,-90.8 C52.2,-97.9 50,-104.6 47.5,-108.3 C46.2,-110.2 45,-111.3 43.8,-111.3 C42.6,-111.3 40.1,-110.1 37.2,-107.3 C34.9,-105.1 31.6,-101.2 29,-95.2 C26.7,-89.8 26,-82.9 26,-77 C26,-75.2 26.1,-73.5 26.2,-71.9 C26.4,-68.3 27.1,-62.5 27.7,-58.9 C27.7,-58.8 28,-57.3 28.4,-54.7 L27.7,-54 C26.7,-53 25.5,-51.9 24.1,-50.5 C23.2,-49.6 22.3,-48.8 21.3,-47.8 C12.8,-39.6 0,-27.2 0,-8.1 C0,-3.4 0.9,1 2.7,5 C4.3,8.6 6.6,11.9 9.5,14.8 C17,22.2 27.2,25.4 34.3,25.4 L34.9,25.4 C37.8,25.3 40.5,25 42.9,24.6 C44.7,34.2 45.9,41.3 45.9,46.6 C45.9,53.1 44.3,57 40.4,59.8 C38,61.5 35.1,62.6 32,62.7 L31.2,62.7 C29.7,62.7 27.2,62.3 25.7,61.9 C25.7,61.9 25.4,61.8 25.4,61.6 C25.4,61.4 25.8,61.4 25.8,61.4 C27.7,61 31.3,59.7 33.7,56.4 C34.8,54.9 35.5,52.6 35.5,50.1 C35.5,48.5 35.2,46.8 34.5,45.3 C33.4,42.9 30.8,39.9 25.2,39.5 L24.1,39.5 C22,39.5 20.2,40 18.5,41 C16.7,42.1 15.1,43.8 14.1,45.8 C13,47.8 12.5,50 12.5,52.2 C12.5,55.1 13.4,57.8 15.2,60 C18.2,63.6 22.9,65.9 28.3,66.5 C29,66.6 30.1,66.7 30.8,66.7 C35.2,66.7 39.6,65.5 43.2,63.3 C46.9,60.7 49,56.7 49.7,51.1 C49.9,49.8 49.9,48.4 49.9,46.9 C49.9,43 49.4,38.3 48.4,32.5 C48,30.4 47.6,27.4 46.9,23.6 C52.7,21.7 56.8,18 60.6,12.2 C62.9,8.2 64,4.1 64,-0.2 C64,-2.1 63.8,-4 63.4,-5.9 M33.2,-83.8 C35,-89.5 37.7,-92.9 39.7,-94.6 C41.5,-96.1 43.1,-96.8 44,-96.8 C44.1,-96.8 44.3,-96.7 44.4,-96.7 C44.7,-96.6 45.1,-96.1 45.5,-95.4 C46.4,-93.6 47.3,-90.3 47.3,-86.6 C47.3,-84.7 47.1,-82.7 46.5,-80.9 C44.3,-74.1 39.7,-66.8 32.7,-59.1 C32.5,-60.2 32.3,-61.2 32.2,-62.2 C31.7,-65.4 31.4,-68.6 31.4,-71.5 C31.4,-76 32,-80.1 33.2,-83.8 M29.2,20.3 C24.6,19.1 20.1,16.6 16.3,13.1 C15,11.9 13.2,9.7 11.7,6.3 C10.4,3.3 9.7,0.2 9.7,-3.2 L9.7,-3.9 C9.8,-8.6 11.1,-13.4 13.6,-18.2 C16.5,-23.8 21,-29.3 27.1,-34.6 C28.6,-35.9 30,-37.2 31.3,-38.5 C32.1,-34.2 32.8,-29.5 33.7,-24.6 C29.8,-23.3 25.1,-20.3 22,-14.6 C19.6,-10.1 18.9,-6.2 18.9,-3 C18.9,-1.5 19.1,-0.1 19.3,1 C20.2,5.5 22.8,9.2 26.3,11.3 C27.1,11.8 30.4,13.5 32.4,13.5 C32.7,13.5 33,13.5 33.2,13.4 C33.5,13.3 33.8,13.1 33.9,12.8 C34,12.6 34,12.4 34,12.2 C34,11.4 33.2,10.8 31.9,10 C31.3,9.6 30.6,9.2 29.9,8.7 C27.3,6.7 25.8,3.6 25.8,0.2 C25.8,-0.8 26,-1.7 26.2,-2.7 C26.7,-4.7 28.4,-7.5 29.9,-8.9 C31.6,-10.4 33.6,-11.6 36,-12.2 C38,-1 40.1,10.1 41.7,18.5 C41.8,19.2 42,19.9 42.1,20.6 C40.1,21 38.1,21.2 36.2,21.2 C33.8,21.2 31.5,20.9 29.2,20.3 M54.9,10.1 C53.7,13.3 51.2,17.3 46.1,19.4 C46,19 46,18.5 45.9,18.1 C44.4,9.3 42.5,-1.6 40.5,-12.9 L41.5,-12.9 C51.2,-12.9 55.1,-5.7 56,-1.1 C56.2,-0.2 56.3,1 56.3,2.3 C56.3,4.6 55.9,7.4 54.9,10.1"/>
<path class="Clef" d="M335,1589.48 C333.8,1584.08 331.1,1580.18 330.3,1579.18 C327.1,1574.88 323.1,1572.08 318.4,1570.68 C316.1,1569.98 314,1569.78 312,1569.78 C311.3,1569.78 310.6,1569.78 309.9,1569.88 C308.9,1563.88 307.8,1557.98 306.9,1552.58 C312.5,1546.38 316.2,1540.48 318.6,1536.08 C322.2,1529.38 323.6,1524.68 323.7,1524.48 C324.9,1521.48 325.6,1517.68 325.6,1513.18 C325.6,1510.48 325.3,1507.58 324.9,1504.58 C323.8,1497.48 321.6,1490.78 319.1,1487.08 C317.8,1485.18 316.6,1484.08 315.4,1484.08 C314.2,1484.08 311.7,1485.28 308.8,1488.08 C306.5,1490.28 303.2,1494.18 300.6,1500.18 C298.3,1505.58 297.6,1512.48 297.6,1518.38 C297.6,1520.18 297.7,1521.88 297.8,1523.48 C298,1527.08 298.7,1532.88 299.3,1536.48 C299.3,1536.58 299.6,1538.08 300,1540.68 L299.3,1541.38 C298.3,1542.38 297.1,1543.48 295.7,1544.88 C294.8,1545.78 293.9,1546.58 292.9,1547.58 C284.4,1555.78 271.6,1568.18 271.6,1587.28 C271.6,1591.98 272.5,1596.38 274.3,1600.38 C275.9,1603.98 278.2,1607.28 281.1,1610.18 C288.6,1617.58 298.8,1620.78 305.9,1620.78 L306.5,1620.78 C309.4,1620.68 312.1,1620.38 314.5,1619.98 C316.3,1629.58 317.5,1636.68 317.5,1641.98 C317.5,1648.48 315.9,1652.38 312,1655.18 C309.6,1656.88 306.7,1657.98 303.6,1658.08 L302.8,1658.08 C301.3,1658.08 298.8,1657.68 297.3,1657.28 C297.3,1657.28 297,1657.18 297,1656.98 C297,1656.78 297.4,1656.78 297.4,1656.78 C299.3,1656.38 302.9,1655.08 305.3,1651.78 C306.4,1650.28 307.1,1647.98 307.1,1645.48 C307.1,1643.88 306.8,1642.18 306.1,1640.68 C305,1638.28 302.4,1635.28 296.8,1634.88 L295.7,1634.88 C293.6,1634.88 291.8,1635.38 290.1,1636.38 C288.3,1637.48 286.7,1639.18 285.7,1641.18 C284.6,1643.18 284.1,1645.38 284.1,1647.58 C284.1,1650.48 285,1653.18 286.8,1655.38 C289.8,1658.98 294.5,1661.28 299.9,1661.88 C300.6,1661.98 301.7,1662.08 302.4,1662.08 C306.8,1662.08 311.2,1660.88 314.8,1658.68 C318.5,1656.08 320.6,1652.08 321.3,1646.48 C321.5,1645.18 321.5,1643.78 321.5,1642.28 C321.5,1638.38 321,1633.68 320,1627.88 C319.6,1625.78 319.2,1622.78 318.5,1618.98 C324.3,1617.08 328.4,1613.38 332.2,1607.58 C334.5,1603.58 335.6,1599.48 335.6,1595.18 C335.6,1593.28 335.4,1591.38 335,1589.48 M304.8,1511.58 C306.6,1505.88 309.3,1502.48 311.3,1500.78 C313.1,1499.28 314.7,1498.58 315.6,1498.58 C315.7,1498.58 315.9,1498.68 316,1498.68 C316.3,1498.78 316.7,1499.28 317.1,1499.98 C318,1501.78 318.9,1505.08 318.9,1508.78 C318.9,1510.68 318.7,1512.68 318.1,1514.48 C315.9,1521.28 311.3,1528.58 304.3,1536.28 C304.1,1535.18 303.9,1534.18 303.8,1533.18 C303.3,1529.98 303,1526.78 303,1523.88 C303,1519.38 303.6,1515.28 304.8,1511.58 M300.8,1615.68 C296.2,1614.48 291.7,1611.98 287.9,1608.48 C286.6,1607.28 284.8,1605.08 283.3,1601.68 C282,1598.68 281.3,1595.58 281.3,1592.18 L281.3,1591.48 C281.4,1586.78 282.7,1581.98 285.2,1577.18 C288.1,1571.58 292.6,1566.08 298.7,1560.78 C300.2,1559.48 301.6,1558.18 302.9,1556.88 C303.7,1561.18 304.4,1565.88 305.3,1570.78 C301.4,1572.08 296.7,1575.08 293.6,1580.78 C291.2,1585.28 290.5,1589.18 290.5,1592.38 C290.5,1593.88 290.7,1595.28 290.9,1596.38 C291.8,1600.88 294.4,1604.58 297.9,1606.68 C298.7,1607.18 302,1608.88 304,1608.88 C304.3,1608.88 304.6,1608.88 304.8,1608.78 C305.1,1608.68 305.4,1608.48 305.5,1608.18 C305.6,1607.98 305.6,1607.78 305.6,1607.58 C305.6,1606.78 304.8,1606.18 303.5,1605.38 C302.9,1604.98 302.2,1604.58 301.5,1604.08 C298.9,1602.08 297.4,1598.98 297.4,1595.58 C297.4,1594.58 297.6,1593.68 297.8,1592.68 C298.3,1590.68 300,1587.88 301.5,1586.48 C303.2,1584.98 305.2,1583.78 307.6,1583.18 C309.6,1594.38 311.7,1605.48 313.3,1613.88 C313.4,1614.58 313.6,1615.28 313.7,1615.98 C311.7,1616.38 309.7,1616.58 307.8,1616.58 C305.4,1616.58 303.1,1616.28 300.8,1615.68 M326.5,1605.48 C325.3,1608.68 322.8,1612.68 317.7,1614.78 C317.6,1614.38 317.6,1613.88 317.5,1613.48 C316,1604.68 314.1,1593.78 312.1,1582.48 L313.1,1582.48 C322.8,1582.48 326.7,1589.68 327.6,1594.28 C327.8,1595.18 327.9,1596.38 327.9,1597.68 C327.9,1599.98 327.5,1602.78 326.5,1605.48"/>
<path class="Clef" transform="matrix(0.80005,0,0,0.80005,1606.56,1545.37)" d="M25.4,-25.1 C17.8,-25.1 11.7,-20.7 11.6,-20.7 C5.8,-16.4 3.5,-11.3 2.6,-7.8 C2.1,-6 1.9,-4.2 1.9,-2.5 C1.9,-0.1 2.3,2.1 3.2,4 C4.4,6.7 6.7,8.6 9.7,9.6 C10.9,10 12.2,10.2 13.5,10.2 C15.7,10.2 18,9.6 19.9,8.5 C23,6.8 24.9,3.2 24.9,-0.7 C24.9,-4.2 23.1,-7.4 20.1,-9.3 C18,-10.7 16,-11.1 14.3,-11.1 C13.1,-11.1 12,-10.9 11.1,-10.6 C10.1,-10.2 8.4,-9.2 7.6,-8.5 C7.9,-10.4 9.1,-13.3 10.2,-14.9 C11.3,-16.5 13.5,-18.5 15.2,-19.4 C17.7,-20.8 20.9,-21.4 24.4,-21.4 C34.6,-21.4 39.6,-13.2 39.6,3.6 C39.6,12.9 36.1,21.8 33.1,27.7 C29.8,34.3 25.4,40.6 21.5,44.1 C11.1,53.6 1.3,58.1 1.2,58.1 C1.2,58.1 -0.3,59 0.1,60.5 C0.4,61.5 1.3,61.7 1.9,61.7 C2,61.7 2.3,61.6 2.4,61.6 C2.5,61.6 13.9,56.9 23,49.8 C28.1,46.1 32.7,42.1 36.7,37.8 C40.3,33.9 43.4,29.7 45.9,25.5 C50.3,18 52.8,10.2 52.8,3.5 C52.8,-4.8 50.6,-11.7 46.5,-16.6 C41.8,-22.2 34.7,-25.1 25.4,-25.1 M56.8,-12.4 C56.8,-9.6 59,-7.4 61.6,-7.4 C64.2,-7.4 66.4,-9.6 66.4,-12.4 C66.4,-15.2 64.2,-17.5 61.6,-17.5 C59,-17.5 56.8,-15.2 56.8,-12.4 M56.8,12.3 C56.8,15.1 59,17.4 61.6,17.4 C64.2,17.4 66.4,15.1 66.4,12.3 C66.4,9.5 64.2,7.2 61.6,7.2 C59,7.2 56.8,9.5 56.8,12.3"/>
<path class="Clef" d="M335,714.422 C333.8,709.022 331.1,705.122 330.3,704.122 C327.1,699.822 323.1,697.022 318.4,695.622 C316.1,694.922 314,694.722 312,694.722 C311.3,694.722 310.6,694.722 309.9,694.822 C308.9,688.822 307.8,682.922 306.9,677.522 C312.5,671.322 316.2,665.422 318.6,661.022 C322.2,654.322 323.6,649.622 323.7,649.422 C324.9,646.422 325.6,642.622 325.6,638.122 C325.6,635.422 325.3,632.522 324.9,629.522 C323.8,622.422 321.6,615.722 319.1,612.022 C317.8,610.122 316.6,609.022 315.4,609.022 C314.2,609.022 311.7,610.222 308.8,613.022 C306.5,615.222 303.2,619.122 300.6,625.122 C298.3,630.522 297.6,637.422 297.6,643.322 C297.6,645.122 297.7,646.822 297.8,648.422 C298,652.022 298.7,657.822 299.3,661.422 C299.3,661.522 299.6,663.022 300,665.622 L299.3,666.322 C298.3,667.322 297.1,668.422 295.7,669.822 C294.8,670.722 293.9,671.522 292.9,672.522 C284.4,680.722 271.6,693.122 271.6,712.222 C271.6,716.922 272.5,721.322 274.3,725.322 C275.9,728.922 278.2,732.222 281.1,735.122 C288.6,742.522 298.8,745.722 305.9,745.722 L306.5,745.722 C309.4,745.622 312.1,745.322 314.5,744.922 C316.3,754.522 317.5,761.622 317.5,766.922 C317.5,773.422 315.9,777.322 312,780.122 C309.6,781.822 306.7,782.922 303.6,783.022 L302.8,783.022 C301.3,783.022 298.8,782.622 297.3,782.222 C297.3,782.222 297,782.122 297,781.922 C297,781.722 297.4,781.722 297.4,781.722 C299.3,781.322 302.9,780.022 305.3,776.722 C306.4,775.222 307.1,772.922 307.1,770.422 C307.1,768.822 306.8,767.122 306.1,765.622 C305,763.222 302.4,760.222 296.8,759.822 L295.7,759.822 C293.6,759.822 291.8,760.322 290.1,761.322 C288.3,762.422 286.7,764.122 285.7,766.122 C284.6,768.122 284.1,770.322 284.1,772.522 C284.1,775.422 285,778.122 286.8,780.322 C289.8,783.922 294.5,786.222 299.9,786.822 C300.6,786.922 301.7,787.022 302.4,787.022 C306.8,787.022 311.2,785.822 314.8,783.622 C318.5,781.022 320.6,777.022 321.3,771.422 C321.5,770.122 321.5,768.722 321.5,767.222 C321.5,763.322 321,758.622 320,752.822 C319.6,750.722 319.2,747.722 318.5,743.922 C324.3,742.022 328.4,738.322 332.2,732.522 C334.5,728.522 335.6,724.422 335.6,720.122 C335.6,718.222 335.4,716.322 335,714.422 M304.8,636.522 C306.6,630.822 309.3,627.422 311.3,625.722 C313.1,624.222 314.7,623.522 315.6,623.522 C315.7,623.522 315.9,623.622 316,623.622 C316.3,623.722 316.7,624.222 317.1,624.922 C318,626.722 318.9,630.022 318.9,633.722 C318.9,635.622 318.7,637.622 318.1,639.422 C315.9,646.222 311.3,653.522 304.3,661.222 C304.1,660.122 303.9,659.122 303.8,658.122 C303.3,654.922 303,651.722 303,648.822 C303,644.322 303.6,640.222 304.8,636.522 M300.8,740.622 C296.2,739.422 291.7,736.922 287.9,733.422 C286.6,732.222 284.8,730.022 283.3,726.622 C282,723.622 281.3,720.522 281.3,717.122 L281.3,716.422 C281.4,711.722 282.7,706.922 285.2,702.122 C288.1,696.522 292.6,691.022 298.7,685.722 C300.2,684.422 301.6,683.122 302.9,681.822 C303.7,686.122 304.4,690.822 305.3,695.722 C301.4,697.022 296.7,700.022 293.6,705.722 C291.2,710.222 290.5,714.122 290.5,717.322 C290.5,718.822 290.7,720.222 290.9,721.322 C291.8,725.822 294.4,729.522 297.9,731.622 C298.7,732.122 302,733.822 304,733.822 C304.3,733.822 304.6,733.822 304.8,733.722 C305.1,733.622 305.4,733.422 305.5,733.122 C305.6,732.922 305.6,732.722 305.6,732.522 C305.6,731.722 304.8,731.122 303.5,730.322 C302.9,729.922 302.2,729.522 301.5,729.022 C298.9,727.022 297.4,723.922 297.4,720.522 C297.4,719.522 297.6,718.622 297.8,717.622 C298.3,715.622 300,712.822 301.5,711.422 C303.2,709.922 305.2,708.722 307.6,708.122 C309.6,719.322 311.7,730.422 313.3,738.822 C313.4,739.522 313.6,740.222 313.7,740.922 C311.7,741.322 309.7,741.522 307.8,741.522 C305.4,741.522 303.1,741.222 300.8,740.622 M326.5,730.422 C325.3,733.622 322.8,737.622 317.7,739.722 C317.6,739.322 317.6,738.822 317.5,738.422 C316,729.622 314.1,718.722 312.1,707.422 L313.1,707.422 C322.8,707.422 326.7,714.622 327.6,719.222 C327.8,720.122 327.9,721.322 327.9,722.622 C327.9,724.922 327.5,727.722 326.5,730.422"/>
<path class="Clef" d="M335,1326.96 C333.8,1321.56 331.1,1317.66 330.3,1316.66 C327.1,1312.36 323.1,1309.56 318.4,1308.16 C316.1,1307.46 314,1307.26 312,1307.26 C311.3,1307.26 310.6,1307.26 309.9,1307.36 C308.9,1301.36 307.8,1295.46 306.9,1290.06 C312.5,1283.86 316.2,1277.96 318.6,1273.56 C322.2,1266.86 323.6,1262.16 323.7,1261.96 C324.9,1258.96 325.6,1255.16 325.6,1250.66 C325.6,1247.96 325.3,1245.06 324.9,1242.06 C323.8,1234.96 321.6,1228.26 319.1,1224.56 C317.8,1222.66 316.6,1221.56 315.4,1221.56 C314.2,1221.56 311.7,1222.76 308.8,1225.56 C306.5,1227.76 303.2,1231.66 300.6,1237.66 C298.3,1243.06 297.6,1249.96 297.6,1255.86 C297.6,1257.66 297.7,1259.36 297.8,1260.96 C298,1264.56 298.7,1270.36 299.3,1273.96 C299.3,1274.06 299.6,1275.56 300,1278.16 L299.3,1278.86 C298.3,1279.86 297.1,1280.96 295.7,1282.36 C294.8,1283.26 293.9,1284.06 292.9,1285.06 C284.4,1293.26 271.6,1305.66 271.6,1324.76 C271.6,1329.46 272.5,1333.86 274.3,1337.86 C275.9,1341.46 278.2,1344.76 281.1,1347.66 C288.6,1355.06 298.8,1358.26 305.9,1358.26 L306.5,1358.26 C309.4,1358.16 312.1,1357.86 314.5,1357.46 C316.3,1367.06 317.5,1374.16 317.5,1379.46 C317.5,1385.96 315.9,1389.86 312,1392.66 C309.6,1394.36 306.7,1395.46 303.6,1395.56 L302.8,1395.56 C301.3,1395.56 298.8,1395.16 297.3,1394.76 C297.3,1394.76 297,1394.66 297,1394.46 C297,1394.26 297.4,1394.26 297.4,1394.26 C299.3,1393.86 302.9,1392.56 305.3,1389.26 C306.4,1387.76 307.1,1385.46 307.1,1382.96 C307.1,1381.36 306.8,1379.66 306.1,1378.16 C305,1375.76 302.4,1372.76 296.8,1372.36 L295.7,1372.36 C293.6,1372.36 291.8,1372.86 290.1,1373.86 C288.3,1374.96 286.7,1376.66 285.7,1378.66 C284.6,1380.66 284.1,1382.86 284.1,1385.06 C284.1,1387.96 285,1390.66 286.8,1392.86 C289.8,1396.46 294.5,1398.76 299.9,1399.36 C300.6,1399.46 301.7,1399.56 302.4,1399.56 C306.8,1399.56 311.2,1398.36 314.8,1396.16 C318.5,1393.56 320.6,1389.56 321.3,1383.96 C321.5,1382.66 321.5,1381.26 321.5,1379.76 C321.5,1375.86 321,1371.16 320,1365.36 C319.6,1363.26 319.2,1360.26 318.5,1356.46 C324.3,1354.56 328.4,1350.86 332.2,1345.06 C334.5,1341.06 335.6,1336.96 335.6,1332.66 C335.6,1330.76 335.4,1328.86 335,1326.96 M304.8,1249.06 C306.6,1243.36 309.3,1239.96 311.3,1238.26 C313.1,1236.76 314.7,1236.06 315.6,1236.06 C315.7,1236.06 315.9,1236.16 316,1236.16 C316.3,1236.26 316.7,1236.76 317.1,1237.46 C318,1239.26 318.9,1242.56 318.9,1246.26 C318.9,1248.16 318.7,1250.16 318.1,1251.96 C315.9,1258.76 311.3,1266.06 304.3,1273.76 C304.1,1272.66 303.9,1271.66 303.8,1270.66 C303.3,1267.46 303,1264.26 303,1261.36 C303,1256.86 303.6,1252.76 304.8,1249.06 M300.8,1353.16 C296.2,1351.96 291.7,1349.46 287.9,1345.96 C286.6,1344.76 284.8,1342.56 283.3,1339.16 C282,1336.16 281.3,1333.06 281.3,1329.66 L281.3,1328.96 C281.4,1324.26 282.7,1319.46 285.2,1314.66 C288.1,1309.06 292.6,1303.56 298.7,1298.26 C300.2,1296.96 301.6,1295.66 302.9,1294.36 C303.7,1298.66 304.4,1303.36 305.3,1308.26 C301.4,1309.56 296.7,1312.56 293.6,1318.26 C291.2,1322.76 290.5,1326.66 290.5,1329.86 C290.5,1331.36 290.7,1332.76 290.9,1333.86 C291.8,1338.36 294.4,1342.06 297.9,1344.16 C298.7,1344.66 302,1346.36 304,1346.36 C304.3,1346.36 304.6,1346.36 304.8,1346.26 C305.1,1346.16 305.4,1345.96 305.5,1345.66 C305.6,1345.46 305.6,1345.26 305.6,1345.06 C305.6,1344.26 304.8,1343.66 303.5,1342.86 C302.9,1342.46 302.2,1342.06 301.5,1341.56 C298.9,1339.56 297.4,1336.46 297.4,1333.06 C297.4,1332.06 297.6,1331.16 297.8,1330.16 C298.3,1328.16 300,1325.36 301.5,1323.96 C303.2,1322.46 305.2,1321.26 307.6,1320.66 C309.6,1331.86 311.7,1342.96 313.3,1351.36 C313.4,1352.06 313.6,1352.76 313.7,1353.46 C311.7,1353.86 309.7,1354.06 307.8,1354.06 C305.4,1354.06 303.1,1353.76 300.8,1353.16 M326.5,1342.96 C325.3,1346.16 322.8,1350.16 317.7,1352.26 C317.6,1351.86 317.6,1351.36 317.5,1350.96 C316,1342.16 314.1,1331.26 312.1,1319.96 L313.1,1319.96 C322.8,1319.96 326.7,1327.16 327.6,1331.76 C327.8,1332.66 327.9,1333.86 327.9,1335.16 C327.9,1337.46 327.5,1340.26 326.5,1342.96"/>
<path class="TimeSig" d="M365.2,946.235 L382,946.235 L382,953.535 L373.9,953.535 C373.1,953.535 372.5,954.135 372.5,954.935 L372.5,956.835 C372.5,957.635 373.1,958.135 373.9,958.135 L403.6,958.135 C404.4,958.135 405,957.635 405,956.835 L405,954.935 C405,954.135 404.4,953.535 403.6,953.535 L394.8,953.535 L394.8,946.235 L403.6,946.235 C404.4,946.235 405,945.635 405,944.835 L405,943.035 C405,942.235 404.4,941.635 403.6,941.635 L394.8,941.635 L394.8,925.935 C394.8,925.435 394.4,924.935 394,924.735 L392.9,924.135 C392.7,924.035 392.4,924.035 392.2,924.035 C391.9,924.035 391.5,924.135 391.3,924.335 L382.4,932.535 C382.2,932.735 382,933.235 382,933.535 L382,941.635 L370.7,941.635 C370.7,941.635 381.6,929.835 393.2,914.335 C394,913.235 393.6,912.235 393.4,912.035 L391.3,909.835 C391.1,909.635 390.6,909.435 390.3,909.435 L375.7,909.435 C375,909.435 374.5,910.035 374.4,910.635 C374.4,910.635 373.9,917.835 371.3,925.835 C368.7,933.835 365.9,938.635 363.3,942.235 C363.3,942.235 362.8,943.235 363.1,943.935 C363.4,944.635 364.1,945.735 364.1,945.735 C364.1,945.735 364.4,946.235 365.2,946.235"/>
<path class="TimeSig" d="M365.2,994.839 L382,994.839 L382,1002.14 L373.9,1002.14 C373.1,1002.14 372.5,1002.74 372.5,1003.54 L372.5,1005.44 C372.5,1006.24 373.1,1006.74 373.9,1006.74 L403.6,1006.74 C404.4,1006.74 405,1006.24 405,1005.44 L405,1003.54 C405,1002.74 404.4,1002.14 403.6,1002.14 L394.8,1002.14 L394.8,994.839 L403.6,994.839 C404.4,994.839 405,994.239 405,993.439 L405,991.639 C405,990.839 404.4,990.239 403.6,990.239 L394.8,990.239 L394.8,974.539 C394.8,974.039 394.4,973.539 394,973.339 L392.9,972.739 C392.7,972.639 392.4,972.639 392.2,972.639 C391.9,972.639 391.5,972.739 391.3,972.939 L382.4,981.139 C382.2,981.339 382,981.839 382,982.139 L382,990.239 L370.7,990.239 C370.7,990.239 381.6,978.439 393.2,962.939 C394,961.839 393.6,960.839 393.4,960.639 L391.3,958.439 C391.1,958.239 390.6,958.039 390.3,958.039 L375.7,958.039 C375,958.039 374.5,958.639 374.4,959.239 C374.4,959.239 373.9,966.439 371.3,974.439 C368.7,982.439 365.9,987.239 363.3,990.839 C363.3,990.839 362.8,991.839 363.1,992.539 C363.4,993.239 364.1,994.339 364.1,994.339 C364.1,994.339 364.4,994.839 365.2,994.839"/>
<path class="TimeSig" d="M365.2,683.718 L382,683.718 L382,691.018 L373.9,691.018 C373.1,691.018 372.5,691.618 372.5,692.418 L372.5,694.318 C372.5,695.118 373.1,695.618 373.9,695.618 L403.6,695.618 C404.4,695.618 405,695.118 405,694.318 L405,692.418 C405,691.618 404.4,691.018 403.6,691.018 L394.8,691.018 L394.8,683.718 L403.6,683.718 C404.4,683.718 405,683.118 405,682.318 L405,680.518 C405,679.718 404.4,679.118 403.6,679.118 L394.8,679.118 L394.8,663.418 C394.8,662.918 394.4,662.418 394,662.218 L392.9,661.618 C392.7,661.518 392.4,661.518 392.2,661.518 C391.9,661.518 391.5,661.618 391.3,661.818 L382.4,670.018 C382.2,670.218 382,670.718 382,671.018 L382,679.118 L370.7,679.118 C370.7,679.118 381.6,667.318 393.2,651.818 C394,650.718 393.6,649.718 393.4,649.518 L391.3,647.318 C391.1,647.118 390.6,646.918 390.3,646.918 L375.7,646.918 C375,646.918 374.5,647.518 374.4,648.118 C374.4,648.118 373.9,655.318 371.3,663.318 C368.7,671.318 365.9,676.118 363.3,679.718 C363.3,679.718 362.8,680.718 363.1,681.418 C363.4,682.118 364.1,683.218 364.1,683.218 C364.1,683.218 364.4,683.718 365.2,683.718"/>
<path class="TimeSig" d="M365.2,732.323 L382,732.323 L382,739.623 L373.9,739.623 C373.1,739.623 372.5,740.223 372.5,741.023 L372.5,742.923 C372.5,743.723 373.1,744.223 373.9,744.223 L403.6,744.223 C404.4,744.223 405,743.723 405,742.923 L405,741.023 C405,740.223 404.4,739.623 403.6,739.623 L394.8,739.623 L394.8,732.323 L403.6,732.323 C404.4,732.323 405,731.723 405,730.923 L405,729.123 C405,728.323 404.4,727.723 403.6,727.723 L394.8,727.723 L394.8,712.023 C394.8,711.523 394.4,711.023 394,710.823 L392.9,710.223 C392.7,710.123 392.4,710.123 392.2,710.123 C391.9,710.123 391.5,710.223 391.3,710.423 L382.4,718.623 C382.2,718.823 382,719.323 382,719.623 L382,727.723 L370.7,727.723 C370.7,727.723 381.6,715.923 393.2,700.423 C394,699.323 393.6,698.323 393.4,698.123 L391.3,695.923 C391.1,695.723 390.6,695.523 390.3,695.523 L375.7,695.523 C375,695.523 374.5,696.123 374.4,696.723 C374.4,696.723 373.9,703.923 371.3,711.923 C368.7,719.923 365.9,724.723 363.3,728.323 C363.3,728.323 362.8,729.323 363.1,730.023 C363.4,730.723 364.1,731.823 364.1,731.823 C364.1,731.823 364.4,732.323 365.2,732.323"/>
<path class="NoteDot" d="M2491.4,1532.87 C2491.4,1535.47 2493.5,1537.57 2496.1,1537.57 C2498.69,1537.57 2500.8,1535.47 2500.8,1532.87 C2500.8,1530.28 2498.69,1528.17 2496.1,1528.17 C2493.5,1528.17 2491.4,1530.28 2491.4,1532.87"/>
<path class="NoteDot" d="M2491.4,1320.36 C2491.4,1322.96 2493.5,1325.06 2496.1,1325.06 C2498.69,1325.06 2500.8,1322.96 2500.8,1320.36 C2500.8,1317.76 2498.69,1315.66 2496.1,1315.66 C2493.5,1315.66 2491.4,1317.76 2491.4,1320.36"/>
<path class="Page" d="M233.756,4056.39 L231.776,4056.39 L231.326,4058.69 C230.741,4061.61 230.381,4061.88 227.591,4061.88 L217.511,4061.88 C220.616,4058.64 221.651,4057.7 224.531,4055.45 C228.626,4052.3 230.381,4050.72 231.416,4049.37 C232.856,4047.39 233.576,4045.41 233.576,4043.21 C233.576,4038.08 229.346,4034.43 223.451,4034.43 C217.736,4034.43 213.371,4038.08 213.371,4042.89 C213.371,4045.73 214.811,4047.66 216.926,4047.66 C218.591,4047.66 219.716,4046.54 219.716,4044.92 C219.716,4043.79 219.086,4042.76 218.141,4042.35 C216.476,4041.68 216.386,4041.59 216.386,4041 C216.386,4040.33 216.836,4039.29 217.466,4038.53 C218.591,4037.13 220.436,4036.37 222.551,4036.37 C226.286,4036.37 228.491,4038.66 228.491,4042.44 C228.491,4045.77 226.916,4048.79 223.181,4052.75 C219.851,4056.26 217.781,4058.46 217.016,4059.32 C215.396,4061.21 214.586,4062.24 212.606,4064.85 L212.606,4066.11 L232.901,4066.11 L233.756,4056.39 M238.702,4045.32 L240.682,4045.64 L241.492,4042.08 C242.167,4039.11 242.482,4038.66 243.787,4038.66 C244.012,4038.66 244.372,4038.66 244.777,4038.71 C250.312,4038.98 250.312,4038.98 252.382,4038.98 C252.967,4038.98 254.002,4038.98 255.262,4038.93 L252.202,4045.1 C248.872,4051.71 248.467,4052.52 247.342,4055.31 C245.947,4058.69 245.227,4061.52 245.227,4063.41 C245.227,4065.48 246.307,4066.74 248.062,4066.74 C250.222,4066.74 251.077,4065.3 251.032,4061.39 C250.807,4054.91 251.617,4051.76 256.432,4041.23 C257.107,4039.79 257.782,4038.39 258.457,4037 C258.502,4036.91 258.637,4036.5 258.907,4035.92 L258.907,4034.61 C256.207,4034.84 254.767,4034.93 251.977,4034.93 C248.062,4034.93 244.957,4034.79 240.097,4034.43 L238.702,4045.32 "/>
<path class="Bracket" transform="matrix(3.62523,0,0,3.62523,214.469,1007.84)" d="M0.92002,-50 C2.69004,-51.88 6.2,-55.8 6.2,-63 C6.2,-72.1 2.25996,-81.32 2.25996,-86.97 C2.25996,-93.06 5.84004,-98.84 5.95,-99 C6.05996,-99.16 6.05,-99.39 5.94004,-99.46 C5.82998,-99.53 5.62002,-99.47 5.49004,-99.32 C5.35996,-99.17 0,-93.75 0,-85.6 C0,-76.75 3.5,-70.58 3.5,-59.07 C3.5,-56.89 2.55996,-53.36 0.1,-50.33 C-0.0799805,-50.17 -0.1,-49.89 0.0599609,-49.7 L0.0700195,-49.69 L0.1,-49.66 C2.55996,-46.63 3.5,-43.1 3.5,-40.92 C3.5,-29.4 0,-23.24 0,-14.39 C0,-6.25 5.35996,-0.8 5.49004,-0.659961 C5.62002,-0.52002 5.8,-0.42998 5.94004,-0.52002 C6.07998,-0.609961 6.07998,-0.77998 5.95,-0.97998 C5.82002,-1.17998 2.25996,-6.92002 2.25996,-13.01 C2.25996,-18.66 6.2,-27.9 6.2,-37 C6.2,-44.3 2.69004,-48.12 0.92002,-50"/>
<path class="Bracket" transform="matrix(3.62523,0,0,3.62523,214.469,1620.38)" d="M0.92002,-50 C2.69004,-51.88 6.2,-55.8 6.2,-63 C6.2,-72.1 2.25996,-81.32 2.25996,-86.97 C2.25996,-93.06 5.84004,-98.84 5.95,-99 C6.05996,-99.16 6.05,-99.39 5.94004,-99.46 C5.82998,-99.53 5.62002,-99.47 5.49004,-99.32 C5.35996,-99.17 0,-93.75 0,-85.6 C0,-76.75 3.5,-70.58 3.5,-59.07 C3.5,-56.89 2.55996,-53.36 0.1,-50.33 C-0.0799805,-50.17 -0.1,-49.89 0.0599609,-49.7 L0.0700195,-49.69 L0.1,-49.66 C2.55996,-46.63 3.5,-43.1 3.5,-40.92 C3.5,-29.4 0,-23.24 0,-14.39 C0,-6.25 5.35996,-0.8 5.49004,-0.659961 C5.62002,-0.52002 5.8,-0.42998 5.94004,-0.52002 C6.07998,-0.609961 6.07998,-0.77998 5.95,-0.97998 C5.82002,-1.17998 2.25996,-6.92002 2.25996,-13.01 C2.25996,-18.66 6.2,-27.9 6.2,-37 C6.2,-44.3 2.69004,-48.12 0.92002,-50"/>
</svg>
