<?xml version="1.0" encoding="UTF-8" standalone="no"?>
<svg width="2977.23px" height="4208.47px" viewBox="0 0 2977.23 4208.47"
 xmlns="http://www.w3.org/2000/svg" xmlns:xlink="http://www.w3.org/1999/xlink" version="1.2" baseProfile="tiny">
<title>exercises_scores (16)</title>
<desc>Generated by MuseScore 3.6.0</desc>
<polyline class="StaffLines" fill="none" stroke="#000000" stroke-width="2.75" stroke-linejoin="bevel" points="247.099,645.317 2764.63,645.317"/>
<polyline class="StaffLines" fill="none" stroke="#000000" stroke-width="2.75" stroke-linejoin="bevel" points="247.099,670.319 2764.63,670.319"/>
<polyline class="StaffLines" fill="none" stroke="#000000" stroke-width="2.75" stroke-linejoin="bevel" points="247.099,695.32 2764.63,695.32"/>
<polyline class="StaffLines" fill="none" stroke="#000000" stroke-width="2.75" stroke-linejoin="bevel" points="247.099,720.322 2764.63,720.322"/>
<polyline class="StaffLines" fill="none" stroke="#000000" stroke-width="2.75" stroke-linejoin="bevel" points="247.099,745.324 2764.63,745.324"/>
<polyline class="StaffLines" fill="none" stroke="#000000" stroke-width="2.75" stroke-linejoin="bevel" points="247.099,907.834 2764.63,907.834"/>
<polyline class="StaffLines" fill="none" stroke="#000000" stroke-width="2.75" stroke-linejoin="bevel" points="247.099,932.835 2764.63,932.835"/>
<polyline class="StaffLines" fill="none" stroke="#000000" stroke-width="2.75" stroke-linejoin="bevel" points="247.099,957.837 2764.63,957.837"/>
<polyline class="StaffLines" fill="none" stroke="#000000" stroke-width="2.75" stroke-linejoin="bevel" points="247.099,982.839 2764.63,982.839"/>
<polyline class="StaffLines" fill="none" stroke="#000000" stroke-width="2.75" stroke-linejoin="bevel" points="247.099,1007.84 2764.63,1007.84"/>
<polyline class="StaffLines" fill="none" stroke="#000000" stroke-width="2.75" stroke-linejoin="bevel" points="247.099,1257.86 2764.63,1257.86"/>
<polyline class="StaffLines" fill="none" stroke="#000000" stroke-width="2.75" stroke-linejoin="bevel" points="247.099,1282.86 2764.63,1282.86"/>
<polyline class="StaffLines" fill="none" stroke="#000000" stroke-width="2.75" stroke-linejoin="bevel" points="247.099,1307.86 2764.63,1307.86"/>
<polyline class="StaffLines" fill="none" stroke="#000000" stroke-width="2.75" stroke-linejoin="bevel" points="247.099,1332.86 2764.63,1332.86"/>
<polyline class="StaffLines" fill="none" stroke="#000000" stroke-width="2.75" stroke-linejoin="bevel" points="247.099,1357.86 2764.63,1357.86"/>
<polyline class="StaffLines" fill="none" stroke="#000000" stroke-width="2.75" stroke-linejoin="bevel" points="247.099,1520.37 2764.63,1520.37"/>
<polyline class="StaffLines" fill="none" stroke="#000000" stroke-width="2.75" stroke-linejoin="bevel" points="247.099,1545.37 2764.63,1545.37"/>
<polyline class="StaffLines" fill="none" stroke="#000000" stroke-width="2.75" stroke-linejoin="bevel" points="247.099,1570.38 2764.63,1570.38"/>
<polyline class="StaffLines" fill="none" stroke="#000000" stroke-width="2.75" stroke-linejoin="bevel" points="247.099,1595.38 2764.63,1595.38"/>
<polyline class="StaffLines" fill="none" stroke="#000000" stroke-width="2.75" stroke-linejoin="bevel" points="247.099,1620.38 2764.63,1620.38"/>
<path class="Text" d="M242.312,213.137 L240.092,213.137 L237.692,216.737 C234.812,214.037 231.032,212.597 226.772,212.597 C218.852,212.597 213.632,217.577 213.632,225.137 C213.632,231.677 216.872,234.917 225.692,237.197 L231.392,238.637 C235.832,239.777 236.252,239.897 237.512,240.857 C239.312,242.237 240.272,244.217 240.272,246.557 C240.272,248.957 239.372,250.937 237.572,252.617 C235.592,254.297 233.612,254.957 230.312,254.957 C225.872,254.957 222.692,253.577 219.872,250.457 C217.352,247.697 216.092,244.817 215.192,240.197 L212.612,240.197 L212.852,257.297 L215.192,257.297 L217.892,253.217 C221.912,256.517 225.212,257.717 230.492,257.717 C239.312,257.717 244.952,252.557 244.952,244.517 C244.952,240.737 243.752,237.617 241.352,235.337 C239.732,233.777 237.392,232.757 232.592,231.557 L226.172,229.937 C220.832,228.557 218.312,226.217 218.312,222.557 C218.312,218.357 221.732,215.477 226.832,215.477 C231.032,215.477 234.452,217.277 236.852,220.697 C238.592,223.157 239.732,225.677 240.452,228.737 L243.032,228.737 L242.312,213.137 M271.162,247.997 C269.242,252.317 267.202,254.057 264.082,254.057 C259.282,254.057 256.282,249.677 256.282,242.657 C256.282,235.337 259.222,230.537 263.662,230.537 C265.462,230.537 267.022,231.377 267.022,232.337 C267.022,232.517 266.962,232.697 266.662,233.057 C265.702,234.197 265.462,234.797 265.462,235.817 C265.462,237.797 266.962,239.177 269.062,239.177 C271.222,239.177 272.722,237.497 272.722,235.097 C272.722,231.017 268.702,227.957 263.362,227.957 C255.562,227.957 249.982,234.317 249.982,243.317 C249.982,251.837 255.082,257.717 262.522,257.717 C267.862,257.717 270.922,255.257 273.502,248.897 L271.162,247.997 M301.75,237.497 C301.75,233.717 301.09,231.797 299.35,230.357 C297.37,228.737 294.43,227.957 290.59,227.957 C283.81,227.957 278.89,231.137 278.89,235.517 C278.89,237.737 280.27,239.177 282.37,239.177 C284.29,239.177 285.61,237.917 285.61,236.117 C285.61,235.337 285.31,234.497 284.71,233.657 C284.35,233.237 284.29,233.117 284.29,232.817 C284.29,231.617 286.69,230.537 289.57,230.537 C291.49,230.537 293.59,231.137 294.55,232.037 C295.69,232.997 296.11,234.437 296.11,237.137 L296.11,239.477 C289.87,240.557 287.89,241.037 284.95,242.177 C279.73,244.097 277.27,246.857 277.27,250.697 C277.27,255.017 280.63,257.717 285.97,257.717 C290.11,257.717 293.83,256.037 296.41,252.977 C297.37,256.037 298.87,257.237 301.69,257.237 C304.39,257.237 307.21,255.497 307.21,253.757 C307.21,253.337 306.97,253.037 306.61,253.037 C306.37,253.037 306.13,253.097 305.71,253.277 C304.87,253.637 304.51,253.697 304.03,253.697 C302.35,253.697 301.75,252.617 301.75,249.557 L301.75,237.497 M296.11,244.817 C296.11,248.417 295.93,249.257 294.91,250.817 C293.41,253.037 290.71,254.537 288.07,254.537 C285.31,254.537 283.33,252.557 283.33,249.857 C283.33,247.337 284.59,245.537 287.23,244.277 C289.09,243.437 291.43,242.837 296.11,242.057 L296.11,244.817 M320.229,212.597 L309.129,213.257 L309.129,215.837 L312.069,215.837 C314.289,215.897 314.589,216.257 314.589,218.837 L314.589,249.437 L314.589,252.257 C314.529,253.157 314.469,253.517 314.229,253.817 C313.809,254.357 312.669,254.597 310.089,254.657 L309.669,254.657 L309.669,256.817 L325.209,256.817 L325.209,254.657 L324.789,254.657 C320.769,254.537 320.229,254.237 320.229,252.077 L320.229,249.437 L320.229,212.597 M354.78,243.317 C354.84,234.317 349.74,227.957 342.42,227.957 C334.74,227.957 328.98,234.617 328.98,243.617 C328.98,252.077 334.44,257.717 342.54,257.717 C348.3,257.717 352.32,254.897 354.78,249.197 L352.68,248.057 C350.22,252.677 347.7,254.477 343.68,254.477 C340.62,254.477 338.4,253.217 336.84,250.517 C335.76,248.717 335.28,246.617 335.34,243.317 L354.78,243.317 M335.4,240.737 C335.4,238.877 335.64,237.557 336.24,235.877 C337.5,232.277 339.42,230.537 342.36,230.537 C345.96,230.537 348.36,233.717 348.36,238.577 C348.36,240.257 347.82,240.737 345.9,240.737 L335.4,240.737 M366.601,250.157 C364.501,250.157 362.821,251.837 362.821,253.877 C362.821,255.977 364.501,257.657 366.541,257.657 C368.641,257.657 370.321,255.977 370.321,253.877 C370.321,251.837 368.641,250.157 366.601,250.157 M366.601,228.437 C364.501,228.437 362.821,230.117 362.821,232.217 C362.821,234.257 364.501,235.937 366.541,235.937 C368.641,235.937 370.321,234.257 370.321,232.157 C370.321,230.117 368.641,228.437 366.601,228.437 M413.685,212.657 L411.165,212.657 L397.365,247.637 C395.745,252.317 394.185,253.757 390.765,253.997 L390.525,253.997 L390.525,256.817 L406.425,256.817 L406.425,253.997 L405.225,253.997 C401.985,253.997 400.365,252.857 400.365,250.577 C400.365,249.797 400.545,249.077 400.905,248.057 L402.885,242.777 L418.785,242.777 L422.025,250.817 C422.385,251.777 422.505,252.137 422.505,252.437 C422.505,253.397 421.005,253.997 418.785,253.997 L416.265,253.997 L416.265,256.817 L434.865,256.817 L434.865,253.997 L434.025,253.997 C430.905,253.937 430.365,253.577 428.985,250.157 L413.685,212.657 M410.745,222.497 L417.525,239.537 L404.085,239.537 L410.745,222.497 M463.049,228.857 L452.369,229.517 L452.369,232.097 L454.829,232.097 C457.109,232.157 457.409,232.517 457.409,235.097 L457.409,249.437 L457.409,251.777 L457.409,252.257 C457.349,253.157 457.289,253.517 457.049,253.817 C456.629,254.357 455.489,254.597 452.909,254.657 L452.669,254.657 L452.669,256.817 L467.789,256.817 L467.789,254.657 L467.549,254.657 C463.589,254.537 463.049,254.237 463.049,252.017 L463.049,249.437 L463.049,240.917 C463.049,235.577 465.989,231.617 469.889,231.617 C473.309,231.617 475.049,234.077 475.049,238.937 L475.049,249.437 L475.049,252.317 C474.989,253.097 474.929,253.517 474.629,253.817 C474.269,254.357 473.069,254.597 470.489,254.657 L470.249,254.657 L470.249,256.817 L485.429,256.817 L485.429,254.657 L485.189,254.657 C481.229,254.537 480.689,254.237 480.689,252.077 L480.689,249.437 L480.689,241.457 C480.689,235.457 483.389,231.617 487.589,231.617 C491.009,231.617 492.689,234.197 492.689,239.597 L492.689,249.437 L492.689,252.257 C492.629,253.097 492.569,253.517 492.269,253.817 C491.909,254.357 490.709,254.597 488.129,254.657 L487.889,254.657 L487.889,256.817 L503.069,256.817 L503.069,254.657 L502.829,254.657 C498.869,254.537 498.329,254.237 498.329,252.017 L498.329,249.437 L498.329,238.397 C498.329,234.677 497.969,233.417 496.409,231.377 C494.669,229.157 492.209,227.957 489.329,227.957 C485.429,227.957 482.549,229.817 479.969,233.957 C478.949,230.357 475.709,227.957 471.689,227.957 C468.029,227.957 465.389,229.697 463.049,233.477 L463.049,228.857 M516.677,228.857 L505.397,229.517 L505.397,232.097 L508.457,232.097 C510.737,232.157 511.037,232.517 511.037,235.097 L511.037,249.437 L511.037,252.257 C510.977,253.157 510.917,253.517 510.677,253.817 C510.257,254.357 509.117,254.597 506.537,254.657 L506.117,254.657 L506.117,256.817 L521.657,256.817 L521.657,254.657 L521.237,254.657 C517.217,254.537 516.677,254.237 516.677,252.077 L516.677,249.437 L516.677,228.857 M513.857,213.917 C511.937,213.917 510.377,215.477 510.377,217.397 C510.377,219.317 511.937,220.877 513.797,220.877 C515.777,220.877 517.337,219.317 517.337,217.397 C517.337,215.477 515.777,213.917 513.857,213.917 M535.208,228.857 L524.828,229.517 L524.828,232.097 L526.988,232.097 C529.268,232.157 529.568,232.517 529.568,235.097 L529.568,249.437 L529.568,250.877 L529.568,252.257 C529.508,253.157 529.448,253.517 529.208,253.817 C528.788,254.357 527.648,254.597 525.068,254.657 L524.828,254.657 L524.828,256.817 L540.008,256.817 L540.008,254.657 L539.768,254.657 C535.748,254.537 535.208,254.237 535.208,252.077 L535.208,249.437 L535.208,243.197 C535.208,240.257 535.628,237.557 536.288,236.177 C537.548,233.477 540.248,231.617 542.828,231.617 C544.388,231.617 546.188,232.457 547.088,233.717 C547.988,235.037 548.408,236.837 548.408,239.717 L548.408,249.437 L548.408,252.257 C548.348,253.157 548.288,253.517 548.048,253.817 C547.628,254.357 546.428,254.597 543.848,254.657 L543.608,254.657 L543.608,256.817 L558.788,256.817 L558.788,254.657 L558.548,254.657 C554.588,254.537 554.048,254.237 554.048,252.077 L554.048,249.437 L554.048,240.017 C554.048,235.697 553.868,234.617 552.788,232.577 C551.288,229.697 548.288,227.957 544.688,227.957 C540.788,227.957 537.848,229.757 535.208,233.717 L535.208,228.857 M574.984,227.957 C567.604,227.957 561.904,234.497 561.904,242.897 C561.904,251.117 567.664,257.717 574.864,257.717 C582.064,257.717 587.824,251.117 587.824,242.837 C587.824,234.617 582.064,227.957 574.984,227.957 M574.984,230.537 C579.184,230.537 581.524,234.917 581.524,242.837 C581.524,250.817 579.184,255.137 574.864,255.137 C570.544,255.137 568.204,250.817 568.204,242.897 C568.204,234.737 570.484,230.537 574.984,230.537 M601.744,228.857 L591.124,229.517 L591.124,232.097 L593.584,232.097 C595.864,232.157 596.164,232.517 596.164,235.097 L596.164,249.437 L596.164,252.257 C596.104,253.157 596.044,253.517 595.804,253.817 C595.384,254.357 594.184,254.597 591.604,254.657 L591.364,254.657 L591.364,256.817 L607.384,256.817 L607.384,254.657 L606.304,254.657 C602.284,254.537 601.744,254.237 601.744,252.077 L601.744,249.437 L601.744,248.837 C601.804,238.757 605.404,231.077 610.084,230.837 C609.244,231.797 609.004,232.397 609.004,233.537 C609.004,235.457 610.384,236.837 612.304,236.837 C614.524,236.837 615.964,235.217 615.964,232.817 C615.964,229.877 613.924,227.957 610.744,227.957 C606.964,227.957 603.724,230.957 601.744,236.297 L601.744,228.857 "/>
<polyline class="BarLine" fill="none" stroke="#000000" stroke-width="4.50" stroke-linejoin="bevel" points="249.349,906.459 249.349,1009.22"/>
<polyline class="BarLine" fill="none" stroke="#000000" stroke-width="4.50" stroke-linejoin="bevel" points="1025.85,906.459 1025.85,1009.22"/>
<polyline class="BarLine" fill="none" stroke="#000000" stroke-width="4.50" stroke-linejoin="bevel" points="1570.19,906.459 1570.19,1009.22"/>
<polyline class="BarLine" fill="none" stroke="#000000" stroke-width="4.50" stroke-linejoin="bevel" points="2167.03,906.459 2167.03,1009.22"/>
<polyline class="BarLine" fill="none" stroke="#000000" stroke-width="4.50" stroke-linejoin="bevel" points="2762.38,906.459 2762.38,1009.22"/>
<polyline class="BarLine" fill="none" stroke="#000000" stroke-width="4.50" stroke-linejoin="bevel" points="249.349,1519 249.349,1621.75"/>
<polyline class="BarLine" fill="none" stroke="#000000" stroke-width="4.50" stroke-linejoin="bevel" points="937.118,1519 937.118,1621.75"/>
<polyline class="BarLine" fill="none" stroke="#000000" stroke-width="4.50" stroke-linejoin="bevel" points="1607.79,1519 1607.79,1621.75"/>
<polyline class="BarLine" fill="none" stroke="#000000" stroke-width="4.50" stroke-linejoin="bevel" points="2192.06,1519 2192.06,1621.75"/>
<polyline class="BarLine" fill="none" stroke="#000000" stroke-width="4.50" stroke-linejoin="bevel" points="2734.88,1519 2734.88,1621.75"/>
<polyline class="BarLine" fill="none" stroke="#000000" stroke-width="13.75" stroke-linejoin="bevel" points="2757.76,1519 2757.76,1621.75"/>
<polyline class="BarLine" fill="none" stroke="#000000" stroke-width="4.50" stroke-linejoin="bevel" points="249.349,643.942 249.349,907.834"/>
<polyline class="BarLine" fill="none" stroke="#000000" stroke-width="4.50" stroke-linejoin="bevel" points="1025.85,643.942 1025.85,907.834"/>
<polyline class="BarLine" fill="none" stroke="#000000" stroke-width="4.50" stroke-linejoin="bevel" points="1570.19,643.942 1570.19,907.834"/>
<polyline class="BarLine" fill="none" stroke="#000000" stroke-width="4.50" stroke-linejoin="bevel" points="2167.03,643.942 2167.03,907.834"/>
<polyline class="BarLine" fill="none" stroke="#000000" stroke-width="4.50" stroke-linejoin="bevel" points="2762.38,643.942 2762.38,907.834"/>
<polyline class="BarLine" fill="none" stroke="#000000" stroke-width="4.50" stroke-linejoin="bevel" points="249.349,1256.48 249.349,1520.37"/>
<polyline class="BarLine" fill="none" stroke="#000000" stroke-width="4.50" stroke-linejoin="bevel" points="937.118,1256.48 937.118,1520.37"/>
<polyline class="BarLine" fill="none" stroke="#000000" stroke-width="4.50" stroke-linejoin="bevel" points="1607.79,1256.48 1607.79,1520.37"/>
<polyline class="BarLine" fill="none" stroke="#000000" stroke-width="4.50" stroke-linejoin="bevel" points="2192.06,1256.48 2192.06,1520.37"/>
<polyline class="BarLine" fill="none" stroke="#000000" stroke-width="4.50" stroke-linejoin="bevel" points="2734.88,1256.48 2734.88,1520.37"/>
<polyline class="BarLine" fill="none" stroke="#000000" stroke-width="13.75" stroke-linejoin="bevel" points="2757.76,1256.48 2757.76,1520.37"/>
<polyline class="LedgerLine" fill="none" stroke="#000000" stroke-width="4.00" stroke-linejoin="bevel" points="1736.15,882.832 1786.15,882.832"/>
<polyline class="LedgerLine" fill="none" stroke="#000000" stroke-width="4.00" stroke-linejoin="bevel" points="1876.11,882.832 1926.11,882.832"/>
<polyline class="LedgerLine" fill="none" stroke="#000000" stroke-width="4.00" stroke-linejoin="bevel" points="2016.07,882.832 2066.07,882.832"/>
<polyline class="LedgerLine" fill="none" stroke="#000000" stroke-width="4.00" stroke-linejoin="bevel" points="2016.07,857.831 2066.07,857.831"/>
<polyline class="LedgerLine" fill="none" stroke="#000000" stroke-width="4.00" stroke-linejoin="bevel" points="1049.52,1495.37 1099.52,1495.37"/>
<polyline class="LedgerLine" fill="none" stroke="#000000" stroke-width="4.00" stroke-linejoin="bevel" points="455.002,795.327 504.998,795.327"/>
<polyline class="LedgerLine" fill="none" stroke="#000000" stroke-width="4.00" stroke-linejoin="bevel" points="455.002,770.325 504.998,770.325"/>
<polyline class="LedgerLine" fill="none" stroke="#000000" stroke-width="4.00" stroke-linejoin="bevel" points="594.963,770.325 644.958,770.325"/>
<polyline class="LedgerLine" fill="none" stroke="#000000" stroke-width="4.00" stroke-linejoin="bevel" points="734.924,770.325 784.919,770.325"/>
<polyline class="LedgerLine" fill="none" stroke="#000000" stroke-width="4.00" stroke-linejoin="bevel" points="2540.56,620.316 2590.55,620.316"/>
<polyline class="LedgerLine" fill="none" stroke="#000000" stroke-width="4.00" stroke-linejoin="bevel" points="2044.25,1382.86 2094.24,1382.86"/>
<polyline class="LedgerLine" fill="none" stroke="#000000" stroke-width="4.00" stroke-linejoin="bevel" points="2226.82,1382.86 2276.81,1382.86"/>
<polyline class="LedgerLine" fill="none" stroke="#000000" stroke-width="4.00" stroke-linejoin="bevel" points="2395.26,1407.87 2445.25,1407.87"/>
<polyline class="LedgerLine" fill="none" stroke="#000000" stroke-width="4.00" stroke-linejoin="bevel" points="2395.26,1382.86 2445.25,1382.86"/>
<polyline class="Stem" fill="none" stroke="#000000" stroke-width="2.75" stroke-linejoin="bevel" points="494.872,991.979 494.872,907.834"/>
<polyline class="Stem" fill="none" stroke="#000000" stroke-width="2.75" stroke-linejoin="bevel" points="634.833,979.478 634.833,898.458"/>
<polyline class="Stem" fill="none" stroke="#000000" stroke-width="2.75" stroke-linejoin="bevel" points="774.794,966.978 774.794,889.083"/>
<polyline class="Stem" fill="none" stroke="#000000" stroke-width="2.75" stroke-linejoin="bevel" points="885.01,961.357 885.01,1035.97"/>
<polyline class="Stem" fill="none" stroke="#000000" stroke-width="2.75" stroke-linejoin="bevel" points="1061.97,948.856 1061.97,1026.59"/>
<polyline class="Stem" fill="none" stroke="#000000" stroke-width="2.75" stroke-linejoin="bevel" points="1188.81,936.356 1188.81,1017.22"/>
<polyline class="Stem" fill="none" stroke="#000000" stroke-width="2.75" stroke-linejoin="bevel" points="1315.64,923.855 1315.64,1007.84"/>
<polyline class="Stem" fill="none" stroke="#000000" stroke-width="2.75" stroke-linejoin="bevel" points="1442.48,911.354 1442.48,995.339"/>
<polyline class="Stem" fill="none" stroke="#000000" stroke-width="2.75" stroke-linejoin="bevel" points="1606.32,898.853 1606.32,982.839"/>
<polyline class="Stem" fill="none" stroke="#000000" stroke-width="2.75" stroke-linejoin="bevel" points="1746.28,886.352 1746.28,970.338"/>
<polyline class="Stem" fill="none" stroke="#000000" stroke-width="2.75" stroke-linejoin="bevel" points="1886.24,873.852 1886.24,957.837"/>
<polyline class="Stem" fill="none" stroke="#000000" stroke-width="2.75" stroke-linejoin="bevel" points="2026.2,861.351 2026.2,957.837"/>
<polyline class="Stem" fill="none" stroke="#000000" stroke-width="2.75" stroke-linejoin="bevel" points="2316.9,991.979 2316.9,907.834"/>
<polyline class="Stem" fill="none" stroke="#000000" stroke-width="2.75" stroke-linejoin="bevel" points="2448.67,979.478 2448.67,898.458"/>
<polyline class="Stem" fill="none" stroke="#000000" stroke-width="2.75" stroke-linejoin="bevel" points="2580.43,966.898 2580.43,889.083"/>
<polyline class="Stem" fill="none" stroke="#000000" stroke-width="2.75" stroke-linejoin="bevel" points="429.219,1592.02 429.219,1511"/>
<polyline class="Stem" fill="none" stroke="#000000" stroke-width="2.75" stroke-linejoin="bevel" points="563.411,1604.52 563.411,1520.37"/>
<polyline class="Stem" fill="none" stroke="#000000" stroke-width="2.75" stroke-linejoin="bevel" points="697.603,1617.02 697.603,1532.87"/>
<polyline class="Stem" fill="none" stroke="#000000" stroke-width="2.75" stroke-linejoin="bevel" points="831.795,1629.52 831.795,1545.37"/>
<polyline class="Stem" fill="none" stroke="#000000" stroke-width="2.75" stroke-linejoin="bevel" points="1059.65,1498.89 1059.65,1582.88"/>
<polyline class="Stem" fill="none" stroke="#000000" stroke-width="2.75" stroke-linejoin="bevel" points="1196.47,1511.39 1196.47,1595.38"/>
<polyline class="Stem" fill="none" stroke="#000000" stroke-width="2.75" stroke-linejoin="bevel" points="1333.28,1523.89 1333.28,1607.88"/>
<polyline class="Stem" fill="none" stroke="#000000" stroke-width="2.75" stroke-linejoin="bevel" points="1470.1,1536.39 1470.1,1620.38"/>
<polyline class="Stem" fill="none" stroke="#000000" stroke-width="2.75" stroke-linejoin="bevel" points="1643.92,1548.89 1643.92,1629.75"/>
<polyline class="Stem" fill="none" stroke="#000000" stroke-width="2.75" stroke-linejoin="bevel" points="1780.74,1561.39 1780.74,1639.13"/>
<polyline class="Stem" fill="none" stroke="#000000" stroke-width="2.75" stroke-linejoin="bevel" points="1917.55,1573.9 1917.55,1648.51"/>
<polyline class="Stem" fill="none" stroke="#000000" stroke-width="2.75" stroke-linejoin="bevel" points="2084.12,1579.52 2084.12,1501.62"/>
<polyline class="Stem" fill="none" stroke="#000000" stroke-width="2.75" stroke-linejoin="bevel" points="2266.69,1592.02 2266.69,1511"/>
<polyline class="Stem" fill="none" stroke="#000000" stroke-width="2.75" stroke-linejoin="bevel" points="2435.13,1604.44 2435.13,1520.37"/>
<polyline class="Stem" fill="none" stroke="#000000" stroke-width="2.75" stroke-linejoin="bevel" points="494.872,791.966 494.872,695.32"/>
<polyline class="Stem" fill="none" stroke="#000000" stroke-width="2.75" stroke-linejoin="bevel" points="634.833,779.466 634.833,695.32"/>
<polyline class="Stem" fill="none" stroke="#000000" stroke-width="2.75" stroke-linejoin="bevel" points="774.794,766.965 774.794,682.82"/>
<polyline class="Stem" fill="none" stroke="#000000" stroke-width="2.75" stroke-linejoin="bevel" points="914.754,754.464 914.754,670.319"/>
<polyline class="Stem" fill="none" stroke="#000000" stroke-width="2.75" stroke-linejoin="bevel" points="1091.72,741.963 1091.72,657.818"/>
<polyline class="Stem" fill="none" stroke="#000000" stroke-width="2.75" stroke-linejoin="bevel" points="1218.55,729.463 1218.55,645.317"/>
<polyline class="Stem" fill="none" stroke="#000000" stroke-width="2.75" stroke-linejoin="bevel" points="1345.39,716.962 1345.39,635.942"/>
<polyline class="Stem" fill="none" stroke="#000000" stroke-width="2.75" stroke-linejoin="bevel" points="1472.22,704.461 1472.22,626.566"/>
<polyline class="Stem" fill="none" stroke="#000000" stroke-width="2.75" stroke-linejoin="bevel" points="1606.32,698.841 1606.32,773.45"/>
<polyline class="Stem" fill="none" stroke="#000000" stroke-width="2.75" stroke-linejoin="bevel" points="1746.28,686.34 1746.28,764.075"/>
<polyline class="Stem" fill="none" stroke="#000000" stroke-width="2.75" stroke-linejoin="bevel" points="1886.24,673.839 1886.24,754.699"/>
<polyline class="Stem" fill="none" stroke="#000000" stroke-width="2.75" stroke-linejoin="bevel" points="2026.2,661.338 2026.2,745.324"/>
<polyline class="Stem" fill="none" stroke="#000000" stroke-width="2.75" stroke-linejoin="bevel" points="2287.16,648.837 2287.16,732.823"/>
<polyline class="Stem" fill="none" stroke="#000000" stroke-width="2.75" stroke-linejoin="bevel" points="2418.92,636.337 2418.92,720.322"/>
<polyline class="Stem" fill="none" stroke="#000000" stroke-width="2.75" stroke-linejoin="bevel" points="2550.69,623.756 2550.69,707.821"/>
<polyline class="Stem" fill="none" stroke="#000000" stroke-width="2.75" stroke-linejoin="bevel" points="399.475,1248.88 399.475,1332.86"/>
<polyline class="Stem" fill="none" stroke="#000000" stroke-width="2.75" stroke-linejoin="bevel" points="533.667,1261.38 533.667,1345.36"/>
<polyline class="Stem" fill="none" stroke="#000000" stroke-width="2.75" stroke-linejoin="bevel" points="667.859,1273.88 667.859,1357.86"/>
<polyline class="Stem" fill="none" stroke="#000000" stroke-width="2.75" stroke-linejoin="bevel" points="802.051,1286.38 802.051,1367.24"/>
<polyline class="Stem" fill="none" stroke="#000000" stroke-width="2.75" stroke-linejoin="bevel" points="1059.65,1298.88 1059.65,1376.61"/>
<polyline class="Stem" fill="none" stroke="#000000" stroke-width="2.75" stroke-linejoin="bevel" points="1196.47,1311.38 1196.47,1385.99"/>
<polyline class="Stem" fill="none" stroke="#000000" stroke-width="2.75" stroke-linejoin="bevel" points="1363.03,1317 1363.03,1239.1"/>
<polyline class="Stem" fill="none" stroke="#000000" stroke-width="2.75" stroke-linejoin="bevel" points="1499.85,1329.5 1499.85,1248.48"/>
<polyline class="Stem" fill="none" stroke="#000000" stroke-width="2.75" stroke-linejoin="bevel" points="1673.66,1342 1673.66,1257.86"/>
<polyline class="Stem" fill="none" stroke="#000000" stroke-width="2.75" stroke-linejoin="bevel" points="1810.48,1354.5 1810.48,1270.36"/>
<polyline class="Stem" fill="none" stroke="#000000" stroke-width="2.75" stroke-linejoin="bevel" points="1947.3,1367 1947.3,1282.86"/>
<polyline class="Stem" fill="none" stroke="#000000" stroke-width="2.75" stroke-linejoin="bevel" points="2084.12,1379.5 2084.12,1295.36"/>
<polyline class="Stem" fill="none" stroke="#000000" stroke-width="2.75" stroke-linejoin="bevel" points="2266.69,1392 2266.69,1307.86"/>
<polyline class="Stem" fill="none" stroke="#000000" stroke-width="2.75" stroke-linejoin="bevel" points="2435.13,1404.43 2435.13,1307.86"/>
<path class="Note" d="M495.253,987.139 C493.753,984.439 490.853,982.739 486.953,982.339 C486.353,982.239 485.853,982.239 485.253,982.239 C481.753,982.239 477.953,983.239 474.453,985.139 C467.853,988.739 463.753,994.639 463.753,999.739 C463.753,1001.14 463.953,1002.44 464.653,1003.64 C466.153,1006.34 469.153,1008.04 473.053,1008.44 C473.653,1008.54 474.153,1008.54 474.753,1008.54 C478.253,1008.54 481.953,1007.54 485.453,1005.64 C492.053,1002.04 496.253,996.239 496.253,991.139 C496.253,989.739 495.953,988.339 495.253,987.139"/>
<path class="Note" d="M635.214,974.639 C633.714,971.939 630.814,970.239 626.914,969.839 C626.314,969.739 625.814,969.739 625.214,969.739 C621.714,969.739 617.914,970.739 614.414,972.639 C607.814,976.239 603.714,982.139 603.714,987.239 C603.714,988.639 603.914,989.939 604.614,991.139 C606.114,993.839 609.114,995.539 613.014,995.939 C613.614,996.039 614.114,996.039 614.714,996.039 C618.214,996.039 621.914,995.039 625.414,993.139 C632.014,989.539 636.214,983.739 636.214,978.639 C636.214,977.239 635.914,975.839 635.214,974.639"/>
<path class="Note" d="M775.174,962.138 C773.674,959.438 770.774,957.738 766.874,957.338 C766.274,957.238 765.774,957.238 765.174,957.238 C761.674,957.238 757.874,958.238 754.374,960.138 C747.774,963.738 743.674,969.638 743.674,974.738 C743.674,976.138 743.874,977.438 744.574,978.638 C746.074,981.338 749.074,983.038 752.974,983.438 C753.574,983.538 754.074,983.538 754.674,983.538 C758.174,983.538 761.874,982.538 765.374,980.638 C771.974,977.038 776.174,971.238 776.174,966.138 C776.174,964.738 775.874,963.338 775.174,962.138"/>
<path class="Note" d="M915.135,949.637 C913.635,946.937 910.735,945.237 906.835,944.837 C906.235,944.737 905.735,944.737 905.135,944.737 C901.635,944.737 897.835,945.737 894.335,947.637 C887.735,951.237 883.635,957.137 883.635,962.237 C883.635,963.637 883.835,964.937 884.535,966.137 C886.035,968.837 889.035,970.537 892.935,970.937 C893.535,971.037 894.035,971.037 894.635,971.037 C898.135,971.037 901.835,970.037 905.335,968.137 C911.935,964.537 916.135,958.737 916.135,953.637 C916.135,952.237 915.835,950.837 915.135,949.637"/>
<path class="Note" d="M1092.1,937.136 C1090.6,934.436 1087.7,932.736 1083.8,932.336 C1083.2,932.236 1082.7,932.236 1082.1,932.236 C1078.6,932.236 1074.8,933.236 1071.3,935.136 C1064.7,938.736 1060.6,944.636 1060.6,949.736 C1060.6,951.136 1060.8,952.436 1061.5,953.636 C1063,956.336 1066,958.036 1069.9,958.436 C1070.5,958.536 1071,958.536 1071.6,958.536 C1075.1,958.536 1078.8,957.536 1082.3,955.636 C1088.9,952.036 1093.1,946.236 1093.1,941.136 C1093.1,939.736 1092.8,938.336 1092.1,937.136"/>
<path class="Note" d="M1218.93,924.635 C1217.43,921.935 1214.53,920.235 1210.63,919.835 C1210.03,919.735 1209.53,919.735 1208.93,919.735 C1205.43,919.735 1201.63,920.735 1198.13,922.635 C1191.53,926.235 1187.43,932.135 1187.43,937.235 C1187.43,938.635 1187.63,939.935 1188.33,941.135 C1189.83,943.835 1192.83,945.535 1196.73,945.935 C1197.33,946.035 1197.83,946.035 1198.43,946.035 C1201.93,946.035 1205.63,945.035 1209.13,943.135 C1215.73,939.535 1219.93,933.735 1219.93,928.635 C1219.93,927.235 1219.63,925.835 1218.93,924.635"/>
<path class="Note" d="M1345.77,912.135 C1344.27,909.435 1341.37,907.735 1337.47,907.335 C1336.87,907.235 1336.37,907.235 1335.77,907.235 C1332.27,907.235 1328.47,908.235 1324.97,910.135 C1318.37,913.735 1314.27,919.635 1314.27,924.735 C1314.27,926.135 1314.47,927.435 1315.17,928.635 C1316.67,931.335 1319.67,933.035 1323.57,933.435 C1324.17,933.535 1324.67,933.535 1325.27,933.535 C1328.77,933.535 1332.47,932.535 1335.97,930.635 C1342.57,927.035 1346.77,921.235 1346.77,916.135 C1346.77,914.735 1346.47,913.335 1345.77,912.135"/>
<path class="Note" d="M1472.6,899.634 C1471.1,896.934 1468.2,895.234 1464.3,894.834 C1463.7,894.734 1463.2,894.734 1462.6,894.734 C1459.1,894.734 1455.3,895.734 1451.8,897.634 C1445.2,901.234 1441.1,907.134 1441.1,912.234 C1441.1,913.634 1441.3,914.934 1442,916.134 C1443.5,918.834 1446.5,920.534 1450.4,920.934 C1451,921.034 1451.5,921.034 1452.1,921.034 C1455.6,921.034 1459.3,920.034 1462.8,918.134 C1469.4,914.534 1473.6,908.734 1473.6,903.634 C1473.6,902.234 1473.3,900.834 1472.6,899.634"/>
<path class="Note" d="M1636.44,887.133 C1634.94,884.433 1632.04,882.733 1628.14,882.333 C1627.54,882.233 1627.04,882.233 1626.44,882.233 C1622.94,882.233 1619.14,883.233 1615.64,885.133 C1609.04,888.733 1604.94,894.633 1604.94,899.733 C1604.94,901.133 1605.14,902.433 1605.84,903.633 C1607.34,906.333 1610.34,908.033 1614.24,908.433 C1614.84,908.533 1615.34,908.533 1615.94,908.533 C1619.44,908.533 1623.14,907.533 1626.64,905.633 C1633.24,902.033 1637.44,896.233 1637.44,891.133 C1637.44,889.733 1637.14,888.333 1636.44,887.133"/>
<path class="Note" d="M1776.4,874.632 C1774.9,871.932 1772,870.232 1768.1,869.832 C1767.5,869.732 1767,869.732 1766.4,869.732 C1762.9,869.732 1759.1,870.732 1755.6,872.632 C1749,876.232 1744.9,882.132 1744.9,887.232 C1744.9,888.632 1745.1,889.932 1745.8,891.132 C1747.3,893.832 1750.3,895.532 1754.2,895.932 C1754.8,896.032 1755.3,896.032 1755.9,896.032 C1759.4,896.032 1763.1,895.032 1766.6,893.132 C1773.2,889.532 1777.4,883.732 1777.4,878.632 C1777.4,877.232 1777.1,875.832 1776.4,874.632"/>
<path class="Note" d="M1916.36,862.131 C1914.86,859.431 1911.96,857.731 1908.06,857.331 C1907.46,857.231 1906.96,857.231 1906.36,857.231 C1902.86,857.231 1899.06,858.231 1895.56,860.131 C1888.96,863.731 1884.86,869.631 1884.86,874.731 C1884.86,876.131 1885.06,877.431 1885.76,878.631 C1887.26,881.331 1890.26,883.031 1894.16,883.431 C1894.76,883.531 1895.26,883.531 1895.86,883.531 C1899.36,883.531 1903.06,882.531 1906.56,880.631 C1913.16,877.031 1917.36,871.231 1917.36,866.131 C1917.36,864.731 1917.06,863.331 1916.36,862.131"/>
<path class="Note" d="M2056.32,849.631 C2054.82,846.931 2051.92,845.231 2048.02,844.831 C2047.42,844.731 2046.92,844.731 2046.32,844.731 C2042.82,844.731 2039.02,845.731 2035.52,847.631 C2028.92,851.231 2024.82,857.131 2024.82,862.231 C2024.82,863.631 2025.02,864.931 2025.72,866.131 C2027.22,868.831 2030.22,870.531 2034.12,870.931 C2034.72,871.031 2035.22,871.031 2035.82,871.031 C2039.32,871.031 2043.02,870.031 2046.52,868.131 C2053.12,864.531 2057.32,858.731 2057.32,853.631 C2057.32,852.231 2057.02,850.831 2056.32,849.631"/>
<path class="Note" d="M2317.28,987.139 C2315.78,984.439 2312.88,982.739 2308.98,982.339 C2308.38,982.239 2307.88,982.239 2307.28,982.239 C2303.78,982.239 2299.98,983.239 2296.48,985.139 C2289.88,988.739 2285.78,994.639 2285.78,999.739 C2285.78,1001.14 2285.98,1002.44 2286.68,1003.64 C2288.18,1006.34 2291.18,1008.04 2295.08,1008.44 C2295.68,1008.54 2296.18,1008.54 2296.78,1008.54 C2300.28,1008.54 2303.98,1007.54 2307.48,1005.64 C2314.08,1002.04 2318.28,996.239 2318.28,991.139 C2318.28,989.739 2317.98,988.339 2317.28,987.139"/>
<path class="Note" d="M2449.05,974.639 C2447.55,971.939 2444.65,970.239 2440.75,969.839 C2440.15,969.739 2439.65,969.739 2439.05,969.739 C2435.55,969.739 2431.75,970.739 2428.25,972.639 C2421.65,976.239 2417.55,982.139 2417.55,987.239 C2417.55,988.639 2417.75,989.939 2418.45,991.139 C2419.95,993.839 2422.95,995.539 2426.85,995.939 C2427.45,996.039 2427.95,996.039 2428.55,996.039 C2432.05,996.039 2435.75,995.039 2439.25,993.139 C2445.85,989.539 2450.05,983.739 2450.05,978.639 C2450.05,977.239 2449.75,975.839 2449.05,974.639"/>
<path class="Note" d="M2580.81,962.138 C2579.31,959.438 2576.41,957.738 2572.51,957.338 C2571.91,957.238 2571.41,957.238 2570.81,957.238 C2567.31,957.238 2563.51,958.238 2560.01,960.138 C2553.41,963.738 2549.31,969.538 2549.31,974.638 C2549.31,976.038 2549.71,977.438 2550.41,978.638 C2551.91,981.438 2554.71,983.038 2558.61,983.438 C2559.21,983.538 2559.71,983.538 2560.31,983.538 C2563.81,983.538 2567.61,982.538 2571.11,980.638 C2577.71,977.038 2581.81,971.138 2581.81,966.038 C2581.81,964.638 2581.51,963.338 2580.81,962.138 M2576.61,968.438 C2574.91,970.238 2571.71,972.538 2568.11,974.638 C2564.51,976.738 2560.81,978.438 2558.51,979.138 C2558.01,979.238 2557.41,979.338 2556.91,979.338 C2555.41,979.338 2554.11,978.638 2553.41,977.538 C2553.11,976.938 2552.91,976.338 2552.91,975.738 C2552.91,974.638 2553.41,973.538 2554.51,972.338 C2556.21,970.538 2559.41,968.138 2563.01,966.038 C2566.61,963.938 2570.31,962.238 2572.71,961.638 L2572.91,961.638 C2573.51,961.438 2574.01,961.338 2574.51,961.338 C2575.91,961.338 2577.01,961.938 2577.71,963.238 C2578.01,963.838 2578.21,964.338 2578.21,964.938 C2578.21,966.238 2577.51,967.538 2576.61,968.438"/>
<path class="Note" d="M429.6,1587.18 C428.1,1584.48 425.2,1582.78 421.3,1582.38 C420.7,1582.28 420.2,1582.28 419.6,1582.28 C416.1,1582.28 412.3,1583.28 408.8,1585.18 C402.2,1588.78 398.1,1594.68 398.1,1599.78 C398.1,1601.18 398.3,1602.48 399,1603.68 C400.5,1606.38 403.5,1608.08 407.4,1608.48 C408,1608.58 408.5,1608.58 409.1,1608.58 C412.6,1608.58 416.3,1607.58 419.8,1605.68 C426.4,1602.08 430.6,1596.28 430.6,1591.18 C430.6,1589.78 430.3,1588.38 429.6,1587.18"/>
<path class="Note" d="M563.792,1599.68 C562.292,1596.98 559.392,1595.28 555.492,1594.88 C554.892,1594.78 554.392,1594.78 553.792,1594.78 C550.292,1594.78 546.492,1595.78 542.992,1597.68 C536.392,1601.28 532.292,1607.18 532.292,1612.28 C532.292,1613.68 532.492,1614.98 533.192,1616.18 C534.692,1618.88 537.692,1620.58 541.592,1620.98 C542.192,1621.08 542.692,1621.08 543.292,1621.08 C546.792,1621.08 550.492,1620.08 553.992,1618.18 C560.592,1614.58 564.792,1608.78 564.792,1603.68 C564.792,1602.28 564.492,1600.88 563.792,1599.68"/>
<path class="Note" d="M697.984,1612.18 C696.484,1609.48 693.584,1607.78 689.684,1607.38 C689.084,1607.28 688.584,1607.28 687.984,1607.28 C684.484,1607.28 680.684,1608.28 677.184,1610.18 C670.584,1613.78 666.484,1619.68 666.484,1624.78 C666.484,1626.18 666.684,1627.48 667.384,1628.68 C668.884,1631.38 671.884,1633.08 675.784,1633.48 C676.384,1633.58 676.884,1633.58 677.484,1633.58 C680.984,1633.58 684.684,1632.58 688.184,1630.68 C694.784,1627.08 698.984,1621.28 698.984,1616.18 C698.984,1614.78 698.684,1613.38 697.984,1612.18"/>
<path class="Note" d="M832.176,1624.68 C830.676,1621.98 827.776,1620.28 823.876,1619.88 C823.276,1619.78 822.776,1619.78 822.176,1619.78 C818.676,1619.78 814.876,1620.78 811.376,1622.68 C804.776,1626.28 800.676,1632.18 800.676,1637.28 C800.676,1638.68 800.876,1639.98 801.576,1641.18 C803.076,1643.88 806.076,1645.58 809.976,1645.98 C810.576,1646.08 811.076,1646.08 811.676,1646.08 C815.176,1646.08 818.876,1645.08 822.376,1643.18 C828.976,1639.58 833.176,1633.78 833.176,1628.68 C833.176,1627.28 832.876,1625.88 832.176,1624.68"/>
<path class="Note" d="M1089.77,1487.17 C1088.27,1484.47 1085.37,1482.77 1081.47,1482.37 C1080.87,1482.27 1080.37,1482.27 1079.77,1482.27 C1076.27,1482.27 1072.47,1483.27 1068.97,1485.17 C1062.37,1488.77 1058.27,1494.67 1058.27,1499.77 C1058.27,1501.17 1058.47,1502.47 1059.17,1503.67 C1060.67,1506.37 1063.67,1508.07 1067.57,1508.47 C1068.17,1508.57 1068.67,1508.57 1069.27,1508.57 C1072.77,1508.57 1076.47,1507.57 1079.97,1505.67 C1086.57,1502.07 1090.77,1496.27 1090.77,1491.17 C1090.77,1489.77 1090.47,1488.37 1089.77,1487.17"/>
<path class="Note" d="M1226.59,1499.67 C1225.09,1496.97 1222.19,1495.27 1218.29,1494.87 C1217.69,1494.77 1217.19,1494.77 1216.59,1494.77 C1213.09,1494.77 1209.29,1495.77 1205.79,1497.67 C1199.19,1501.27 1195.09,1507.17 1195.09,1512.27 C1195.09,1513.67 1195.29,1514.97 1195.99,1516.17 C1197.49,1518.87 1200.49,1520.57 1204.39,1520.97 C1204.99,1521.07 1205.49,1521.07 1206.09,1521.07 C1209.59,1521.07 1213.29,1520.07 1216.79,1518.17 C1223.39,1514.57 1227.59,1508.77 1227.59,1503.67 C1227.59,1502.27 1227.29,1500.87 1226.59,1499.67"/>
<path class="Note" d="M1363.41,1512.17 C1361.91,1509.47 1359.01,1507.77 1355.11,1507.37 C1354.51,1507.27 1354.01,1507.27 1353.41,1507.27 C1349.91,1507.27 1346.11,1508.27 1342.61,1510.17 C1336.01,1513.77 1331.91,1519.67 1331.91,1524.77 C1331.91,1526.17 1332.11,1527.47 1332.81,1528.67 C1334.31,1531.37 1337.31,1533.07 1341.21,1533.47 C1341.81,1533.57 1342.31,1533.57 1342.91,1533.57 C1346.41,1533.57 1350.11,1532.57 1353.61,1530.67 C1360.21,1527.07 1364.41,1521.27 1364.41,1516.17 C1364.41,1514.77 1364.11,1513.37 1363.41,1512.17"/>
<path class="Note" d="M1500.23,1524.67 C1498.73,1521.97 1495.83,1520.27 1491.93,1519.87 C1491.33,1519.77 1490.83,1519.77 1490.23,1519.77 C1486.73,1519.77 1482.93,1520.77 1479.43,1522.67 C1472.83,1526.27 1468.73,1532.17 1468.73,1537.27 C1468.73,1538.67 1468.93,1539.97 1469.63,1541.17 C1471.13,1543.87 1474.13,1545.57 1478.03,1545.97 C1478.63,1546.07 1479.13,1546.07 1479.73,1546.07 C1483.23,1546.07 1486.93,1545.07 1490.43,1543.17 C1497.03,1539.57 1501.23,1533.77 1501.23,1528.67 C1501.23,1527.27 1500.93,1525.87 1500.23,1524.67"/>
<path class="Note" d="M1674.05,1537.17 C1672.55,1534.47 1669.65,1532.77 1665.75,1532.37 C1665.15,1532.27 1664.65,1532.27 1664.05,1532.27 C1660.55,1532.27 1656.75,1533.27 1653.25,1535.17 C1646.65,1538.77 1642.55,1544.67 1642.55,1549.77 C1642.55,1551.17 1642.75,1552.47 1643.45,1553.67 C1644.95,1556.37 1647.95,1558.07 1651.85,1558.47 C1652.45,1558.57 1652.95,1558.57 1653.55,1558.57 C1657.05,1558.57 1660.75,1557.57 1664.25,1555.67 C1670.85,1552.07 1675.05,1546.27 1675.05,1541.17 C1675.05,1539.77 1674.75,1538.37 1674.05,1537.17"/>
<path class="Note" d="M1810.86,1549.67 C1809.36,1546.97 1806.46,1545.27 1802.56,1544.87 C1801.96,1544.77 1801.46,1544.77 1800.86,1544.77 C1797.36,1544.77 1793.56,1545.77 1790.06,1547.67 C1783.46,1551.27 1779.36,1557.17 1779.36,1562.27 C1779.36,1563.67 1779.56,1564.97 1780.26,1566.17 C1781.76,1568.87 1784.76,1570.57 1788.66,1570.97 C1789.26,1571.07 1789.76,1571.07 1790.36,1571.07 C1793.86,1571.07 1797.56,1570.07 1801.06,1568.17 C1807.66,1564.57 1811.86,1558.77 1811.86,1553.67 C1811.86,1552.27 1811.56,1550.87 1810.86,1549.67"/>
<path class="Note" d="M1947.68,1562.18 C1946.18,1559.48 1943.28,1557.78 1939.38,1557.38 C1938.78,1557.28 1938.28,1557.28 1937.68,1557.28 C1934.18,1557.28 1930.38,1558.28 1926.88,1560.18 C1920.28,1563.78 1916.18,1569.68 1916.18,1574.78 C1916.18,1576.18 1916.38,1577.48 1917.08,1578.68 C1918.58,1581.38 1921.58,1583.08 1925.48,1583.48 C1926.08,1583.58 1926.58,1583.58 1927.18,1583.58 C1930.68,1583.58 1934.38,1582.58 1937.88,1580.68 C1944.48,1577.08 1948.68,1571.28 1948.68,1566.18 C1948.68,1564.78 1948.38,1563.38 1947.68,1562.18"/>
<path class="Note" d="M2084.5,1574.68 C2083,1571.98 2080.1,1570.28 2076.2,1569.88 C2075.6,1569.78 2075.1,1569.78 2074.5,1569.78 C2071,1569.78 2067.2,1570.78 2063.7,1572.68 C2057.1,1576.28 2053,1582.18 2053,1587.28 C2053,1588.68 2053.2,1589.98 2053.9,1591.18 C2055.4,1593.88 2058.4,1595.58 2062.3,1595.98 C2062.9,1596.08 2063.4,1596.08 2064,1596.08 C2067.5,1596.08 2071.2,1595.08 2074.7,1593.18 C2081.3,1589.58 2085.5,1583.78 2085.5,1578.68 C2085.5,1577.28 2085.2,1575.88 2084.5,1574.68"/>
<path class="Note" d="M2267.07,1587.18 C2265.57,1584.48 2262.67,1582.78 2258.77,1582.38 C2258.17,1582.28 2257.67,1582.28 2257.07,1582.28 C2253.57,1582.28 2249.77,1583.28 2246.27,1585.18 C2239.67,1588.78 2235.57,1594.68 2235.57,1599.78 C2235.57,1601.18 2235.77,1602.48 2236.47,1603.68 C2237.97,1606.38 2240.97,1608.08 2244.87,1608.48 C2245.47,1608.58 2245.97,1608.58 2246.57,1608.58 C2250.07,1608.58 2253.77,1607.58 2257.27,1605.68 C2263.87,1602.08 2268.07,1596.28 2268.07,1591.18 C2268.07,1589.78 2267.77,1588.38 2267.07,1587.18"/>
<path class="Note" d="M2435.51,1599.68 C2434.01,1596.98 2431.11,1595.28 2427.21,1594.88 C2426.61,1594.78 2426.11,1594.78 2425.51,1594.78 C2422.01,1594.78 2418.21,1595.78 2414.71,1597.68 C2408.11,1601.28 2404.01,1607.08 2404.01,1612.18 C2404.01,1613.58 2404.41,1614.98 2405.11,1616.18 C2406.61,1618.98 2409.41,1620.58 2413.31,1620.98 C2413.91,1621.08 2414.41,1621.08 2415.01,1621.08 C2418.51,1621.08 2422.31,1620.08 2425.81,1618.18 C2432.41,1614.58 2436.51,1608.68 2436.51,1603.58 C2436.51,1602.18 2436.21,1600.88 2435.51,1599.68 M2431.31,1605.98 C2429.61,1607.78 2426.41,1610.08 2422.81,1612.18 C2419.21,1614.28 2415.51,1615.98 2413.21,1616.68 C2412.71,1616.78 2412.11,1616.88 2411.61,1616.88 C2410.11,1616.88 2408.81,1616.18 2408.11,1615.08 C2407.81,1614.48 2407.61,1613.88 2407.61,1613.28 C2407.61,1612.18 2408.11,1611.08 2409.21,1609.88 C2410.91,1608.08 2414.11,1605.68 2417.71,1603.58 C2421.31,1601.48 2425.01,1599.78 2427.41,1599.18 L2427.61,1599.18 C2428.21,1598.98 2428.71,1598.88 2429.21,1598.88 C2430.61,1598.88 2431.71,1599.48 2432.41,1600.78 C2432.71,1601.38 2432.91,1601.88 2432.91,1602.48 C2432.91,1603.78 2432.21,1605.08 2431.31,1605.98"/>
<path class="Note" d="M495.253,787.127 C493.753,784.427 490.853,782.727 486.953,782.327 C486.353,782.227 485.853,782.227 485.253,782.227 C481.753,782.227 477.953,783.227 474.453,785.127 C467.853,788.727 463.753,794.627 463.753,799.727 C463.753,801.127 463.953,802.427 464.653,803.627 C466.153,806.327 469.153,808.027 473.053,808.427 C473.653,808.527 474.153,808.527 474.753,808.527 C478.253,808.527 481.953,807.527 485.453,805.627 C492.053,802.027 496.253,796.227 496.253,791.127 C496.253,789.727 495.953,788.327 495.253,787.127"/>
<path class="Note" d="M635.214,774.626 C633.714,771.926 630.814,770.226 626.914,769.826 C626.314,769.726 625.814,769.726 625.214,769.726 C621.714,769.726 617.914,770.726 614.414,772.626 C607.814,776.226 603.714,782.126 603.714,787.226 C603.714,788.626 603.914,789.926 604.614,791.126 C606.114,793.826 609.114,795.526 613.014,795.926 C613.614,796.026 614.114,796.026 614.714,796.026 C618.214,796.026 621.914,795.026 625.414,793.126 C632.014,789.526 636.214,783.726 636.214,778.626 C636.214,777.226 635.914,775.826 635.214,774.626"/>
<path class="Note" d="M775.174,762.125 C773.674,759.425 770.774,757.725 766.874,757.325 C766.274,757.225 765.774,757.225 765.174,757.225 C761.674,757.225 757.874,758.225 754.374,760.125 C747.774,763.725 743.674,769.625 743.674,774.725 C743.674,776.125 743.874,777.425 744.574,778.625 C746.074,781.325 749.074,783.025 752.974,783.425 C753.574,783.525 754.074,783.525 754.674,783.525 C758.174,783.525 761.874,782.525 765.374,780.625 C771.974,777.025 776.174,771.225 776.174,766.125 C776.174,764.725 775.874,763.325 775.174,762.125"/>
<path class="Note" d="M915.135,749.624 C913.635,746.924 910.735,745.224 906.835,744.824 C906.235,744.724 905.735,744.724 905.135,744.724 C901.635,744.724 897.835,745.724 894.335,747.624 C887.735,751.224 883.635,757.124 883.635,762.224 C883.635,763.624 883.835,764.924 884.535,766.124 C886.035,768.824 889.035,770.524 892.935,770.924 C893.535,771.024 894.035,771.024 894.635,771.024 C898.135,771.024 901.835,770.024 905.335,768.124 C911.935,764.524 916.135,758.724 916.135,753.624 C916.135,752.224 915.835,750.824 915.135,749.624"/>
<path class="Note" d="M1092.1,737.124 C1090.6,734.424 1087.7,732.724 1083.8,732.324 C1083.2,732.224 1082.7,732.224 1082.1,732.224 C1078.6,732.224 1074.8,733.224 1071.3,735.124 C1064.7,738.724 1060.6,744.624 1060.6,749.724 C1060.6,751.124 1060.8,752.424 1061.5,753.624 C1063,756.324 1066,758.024 1069.9,758.424 C1070.5,758.524 1071,758.524 1071.6,758.524 C1075.1,758.524 1078.8,757.524 1082.3,755.624 C1088.9,752.024 1093.1,746.224 1093.1,741.124 C1093.1,739.724 1092.8,738.324 1092.1,737.124"/>
<path class="Note" d="M1218.93,724.623 C1217.43,721.923 1214.53,720.223 1210.63,719.823 C1210.03,719.723 1209.53,719.723 1208.93,719.723 C1205.43,719.723 1201.63,720.723 1198.13,722.623 C1191.53,726.223 1187.43,732.123 1187.43,737.223 C1187.43,738.623 1187.63,739.923 1188.33,741.123 C1189.83,743.823 1192.83,745.523 1196.73,745.923 C1197.33,746.023 1197.83,746.023 1198.43,746.023 C1201.93,746.023 1205.63,745.023 1209.13,743.123 C1215.73,739.523 1219.93,733.723 1219.93,728.623 C1219.93,727.223 1219.63,725.823 1218.93,724.623"/>
<path class="Note" d="M1345.77,712.122 C1344.27,709.422 1341.37,707.722 1337.47,707.322 C1336.87,707.222 1336.37,707.222 1335.77,707.222 C1332.27,707.222 1328.47,708.222 1324.97,710.122 C1318.37,713.722 1314.27,719.622 1314.27,724.722 C1314.27,726.122 1314.47,727.422 1315.17,728.622 C1316.67,731.322 1319.67,733.022 1323.57,733.422 C1324.17,733.522 1324.67,733.522 1325.27,733.522 C1328.77,733.522 1332.47,732.522 1335.97,730.622 C1342.57,727.022 1346.77,721.222 1346.77,716.122 C1346.77,714.722 1346.47,713.322 1345.77,712.122"/>
<path class="Note" d="M1472.6,699.621 C1471.1,696.921 1468.2,695.221 1464.3,694.821 C1463.7,694.721 1463.2,694.721 1462.6,694.721 C1459.1,694.721 1455.3,695.721 1451.8,697.621 C1445.2,701.221 1441.1,707.121 1441.1,712.221 C1441.1,713.621 1441.3,714.921 1442,716.121 C1443.5,718.821 1446.5,720.521 1450.4,720.921 C1451,721.021 1451.5,721.021 1452.1,721.021 C1455.6,721.021 1459.3,720.021 1462.8,718.121 C1469.4,714.521 1473.6,708.721 1473.6,703.621 C1473.6,702.221 1473.3,700.821 1472.6,699.621"/>
<path class="Note" d="M1636.44,687.12 C1634.94,684.42 1632.04,682.72 1628.14,682.32 C1627.54,682.22 1627.04,682.22 1626.44,682.22 C1622.94,682.22 1619.14,683.22 1615.64,685.12 C1609.04,688.72 1604.94,694.62 1604.94,699.72 C1604.94,701.12 1605.14,702.42 1605.84,703.62 C1607.34,706.32 1610.34,708.02 1614.24,708.42 C1614.84,708.52 1615.34,708.52 1615.94,708.52 C1619.44,708.52 1623.14,707.52 1626.64,705.62 C1633.24,702.02 1637.44,696.22 1637.44,691.12 C1637.44,689.72 1637.14,688.32 1636.44,687.12"/>
<path class="Note" d="M1776.4,674.62 C1774.9,671.92 1772,670.22 1768.1,669.82 C1767.5,669.72 1767,669.72 1766.4,669.72 C1762.9,669.72 1759.1,670.72 1755.6,672.62 C1749,676.22 1744.9,682.12 1744.9,687.22 C1744.9,688.62 1745.1,689.92 1745.8,691.12 C1747.3,693.82 1750.3,695.52 1754.2,695.92 C1754.8,696.02 1755.3,696.02 1755.9,696.02 C1759.4,696.02 1763.1,695.02 1766.6,693.12 C1773.2,689.52 1777.4,683.72 1777.4,678.62 C1777.4,677.22 1777.1,675.82 1776.4,674.62"/>
<path class="Note" d="M1916.36,662.119 C1914.86,659.419 1911.96,657.719 1908.06,657.319 C1907.46,657.219 1906.96,657.219 1906.36,657.219 C1902.86,657.219 1899.06,658.219 1895.56,660.119 C1888.96,663.719 1884.86,669.619 1884.86,674.719 C1884.86,676.119 1885.06,677.419 1885.76,678.619 C1887.26,681.319 1890.26,683.019 1894.16,683.419 C1894.76,683.519 1895.26,683.519 1895.86,683.519 C1899.36,683.519 1903.06,682.519 1906.56,680.619 C1913.16,677.019 1917.36,671.219 1917.36,666.119 C1917.36,664.719 1917.06,663.319 1916.36,662.119"/>
<path class="Note" d="M2056.32,649.618 C2054.82,646.918 2051.92,645.218 2048.02,644.818 C2047.42,644.718 2046.92,644.718 2046.32,644.718 C2042.82,644.718 2039.02,645.718 2035.52,647.618 C2028.92,651.218 2024.82,657.118 2024.82,662.218 C2024.82,663.618 2025.02,664.918 2025.72,666.118 C2027.22,668.818 2030.22,670.518 2034.12,670.918 C2034.72,671.018 2035.22,671.018 2035.82,671.018 C2039.32,671.018 2043.02,670.018 2046.52,668.118 C2053.12,664.518 2057.32,658.718 2057.32,653.618 C2057.32,652.218 2057.02,650.818 2056.32,649.618"/>
<path class="Note" d="M2317.28,637.117 C2315.78,634.417 2312.88,632.717 2308.98,632.317 C2308.38,632.217 2307.88,632.217 2307.28,632.217 C2303.78,632.217 2299.98,633.217 2296.48,635.117 C2289.88,638.717 2285.78,644.617 2285.78,649.717 C2285.78,651.117 2285.98,652.417 2286.68,653.617 C2288.18,656.317 2291.18,658.017 2295.08,658.417 C2295.68,658.517 2296.18,658.517 2296.78,658.517 C2300.28,658.517 2303.98,657.517 2307.48,655.617 C2314.08,652.017 2318.28,646.217 2318.28,641.117 C2318.28,639.717 2317.98,638.317 2317.28,637.117"/>
<path class="Note" d="M2449.05,624.616 C2447.55,621.916 2444.65,620.216 2440.75,619.816 C2440.15,619.716 2439.65,619.716 2439.05,619.716 C2435.55,619.716 2431.75,620.716 2428.25,622.616 C2421.65,626.216 2417.55,632.116 2417.55,637.216 C2417.55,638.616 2417.75,639.916 2418.45,641.116 C2419.95,643.816 2422.95,645.516 2426.85,645.916 C2427.45,646.016 2427.95,646.016 2428.55,646.016 C2432.05,646.016 2435.75,645.016 2439.25,643.116 C2445.85,639.516 2450.05,633.716 2450.05,628.616 C2450.05,627.216 2449.75,625.816 2449.05,624.616"/>
<path class="Note" d="M2580.81,612.116 C2579.31,609.416 2576.41,607.716 2572.51,607.316 C2571.91,607.216 2571.41,607.216 2570.81,607.216 C2567.31,607.216 2563.51,608.216 2560.01,610.116 C2553.41,613.716 2549.31,619.516 2549.31,624.616 C2549.31,626.016 2549.71,627.416 2550.41,628.616 C2551.91,631.416 2554.71,633.016 2558.61,633.416 C2559.21,633.516 2559.71,633.516 2560.31,633.516 C2563.81,633.516 2567.61,632.516 2571.11,630.616 C2577.71,627.016 2581.81,621.116 2581.81,616.016 C2581.81,614.616 2581.51,613.316 2580.81,612.116 M2576.61,618.416 C2574.91,620.216 2571.71,622.516 2568.11,624.616 C2564.51,626.716 2560.81,628.416 2558.51,629.116 C2558.01,629.216 2557.41,629.316 2556.91,629.316 C2555.41,629.316 2554.11,628.616 2553.41,627.516 C2553.11,626.916 2552.91,626.316 2552.91,625.716 C2552.91,624.616 2553.41,623.516 2554.51,622.316 C2556.21,620.516 2559.41,618.116 2563.01,616.016 C2566.61,613.916 2570.31,612.216 2572.71,611.616 L2572.91,611.616 C2573.51,611.416 2574.01,611.316 2574.51,611.316 C2575.91,611.316 2577.01,611.916 2577.71,613.216 C2578.01,613.816 2578.21,614.316 2578.21,614.916 C2578.21,616.216 2577.51,617.516 2576.61,618.416"/>
<path class="Note" d="M429.6,1237.16 C428.1,1234.46 425.2,1232.76 421.3,1232.36 C420.7,1232.26 420.2,1232.26 419.6,1232.26 C416.1,1232.26 412.3,1233.26 408.8,1235.16 C402.2,1238.76 398.1,1244.66 398.1,1249.76 C398.1,1251.16 398.3,1252.46 399,1253.66 C400.5,1256.36 403.5,1258.06 407.4,1258.46 C408,1258.56 408.5,1258.56 409.1,1258.56 C412.6,1258.56 416.3,1257.56 419.8,1255.66 C426.4,1252.06 430.6,1246.26 430.6,1241.16 C430.6,1239.76 430.3,1238.36 429.6,1237.16"/>
<path class="Note" d="M563.792,1249.66 C562.292,1246.96 559.392,1245.26 555.492,1244.86 C554.892,1244.76 554.392,1244.76 553.792,1244.76 C550.292,1244.76 546.492,1245.76 542.992,1247.66 C536.392,1251.26 532.292,1257.16 532.292,1262.26 C532.292,1263.66 532.492,1264.96 533.192,1266.16 C534.692,1268.86 537.692,1270.56 541.592,1270.96 C542.192,1271.06 542.692,1271.06 543.292,1271.06 C546.792,1271.06 550.492,1270.06 553.992,1268.16 C560.592,1264.56 564.792,1258.76 564.792,1253.66 C564.792,1252.26 564.492,1250.86 563.792,1249.66"/>
<path class="Note" d="M697.984,1262.16 C696.484,1259.46 693.584,1257.76 689.684,1257.36 C689.084,1257.26 688.584,1257.26 687.984,1257.26 C684.484,1257.26 680.684,1258.26 677.184,1260.16 C670.584,1263.76 666.484,1269.66 666.484,1274.76 C666.484,1276.16 666.684,1277.46 667.384,1278.66 C668.884,1281.36 671.884,1283.06 675.784,1283.46 C676.384,1283.56 676.884,1283.56 677.484,1283.56 C680.984,1283.56 684.684,1282.56 688.184,1280.66 C694.784,1277.06 698.984,1271.26 698.984,1266.16 C698.984,1264.76 698.684,1263.36 697.984,1262.16"/>
<path class="Note" d="M832.176,1274.66 C830.676,1271.96 827.776,1270.26 823.876,1269.86 C823.276,1269.76 822.776,1269.76 822.176,1269.76 C818.676,1269.76 814.876,1270.76 811.376,1272.66 C804.776,1276.26 800.676,1282.16 800.676,1287.26 C800.676,1288.66 800.876,1289.96 801.576,1291.16 C803.076,1293.86 806.076,1295.56 809.976,1295.96 C810.576,1296.06 811.076,1296.06 811.676,1296.06 C815.176,1296.06 818.876,1295.06 822.376,1293.16 C828.976,1289.56 833.176,1283.76 833.176,1278.66 C833.176,1277.26 832.876,1275.86 832.176,1274.66"/>
<path class="Note" d="M1089.77,1287.16 C1088.27,1284.46 1085.37,1282.76 1081.47,1282.36 C1080.87,1282.26 1080.37,1282.26 1079.77,1282.26 C1076.27,1282.26 1072.47,1283.26 1068.97,1285.16 C1062.37,1288.76 1058.27,1294.66 1058.27,1299.76 C1058.27,1301.16 1058.47,1302.46 1059.17,1303.66 C1060.67,1306.36 1063.67,1308.06 1067.57,1308.46 C1068.17,1308.56 1068.67,1308.56 1069.27,1308.56 C1072.77,1308.56 1076.47,1307.56 1079.97,1305.66 C1086.57,1302.06 1090.77,1296.26 1090.77,1291.16 C1090.77,1289.76 1090.47,1288.36 1089.77,1287.16"/>
<path class="Note" d="M1226.59,1299.66 C1225.09,1296.96 1222.19,1295.26 1218.29,1294.86 C1217.69,1294.76 1217.19,1294.76 1216.59,1294.76 C1213.09,1294.76 1209.29,1295.76 1205.79,1297.66 C1199.19,1301.26 1195.09,1307.16 1195.09,1312.26 C1195.09,1313.66 1195.29,1314.96 1195.99,1316.16 C1197.49,1318.86 1200.49,1320.56 1204.39,1320.96 C1204.99,1321.06 1205.49,1321.06 1206.09,1321.06 C1209.59,1321.06 1213.29,1320.06 1216.79,1318.16 C1223.39,1314.56 1227.59,1308.76 1227.59,1303.66 C1227.59,1302.26 1227.29,1300.86 1226.59,1299.66"/>
<path class="Note" d="M1363.41,1312.16 C1361.91,1309.46 1359.01,1307.76 1355.11,1307.36 C1354.51,1307.26 1354.01,1307.26 1353.41,1307.26 C1349.91,1307.26 1346.11,1308.26 1342.61,1310.16 C1336.01,1313.76 1331.91,1319.66 1331.91,1324.76 C1331.91,1326.16 1332.11,1327.46 1332.81,1328.66 C1334.31,1331.36 1337.31,1333.06 1341.21,1333.46 C1341.81,1333.56 1342.31,1333.56 1342.91,1333.56 C1346.41,1333.56 1350.11,1332.56 1353.61,1330.66 C1360.21,1327.06 1364.41,1321.26 1364.41,1316.16 C1364.41,1314.76 1364.11,1313.36 1363.41,1312.16"/>
<path class="Note" d="M1500.23,1324.66 C1498.73,1321.96 1495.83,1320.26 1491.93,1319.86 C1491.33,1319.76 1490.83,1319.76 1490.23,1319.76 C1486.73,1319.76 1482.93,1320.76 1479.43,1322.66 C1472.83,1326.26 1468.73,1332.16 1468.73,1337.26 C1468.73,1338.66 1468.93,1339.96 1469.63,1341.16 C1471.13,1343.86 1474.13,1345.56 1478.03,1345.96 C1478.63,1346.06 1479.13,1346.06 1479.73,1346.06 C1483.23,1346.06 1486.93,1345.06 1490.43,1343.16 C1497.03,1339.56 1501.23,1333.76 1501.23,1328.66 C1501.23,1327.26 1500.93,1325.86 1500.23,1324.66"/>
<path class="Note" d="M1674.05,1337.16 C1672.55,1334.46 1669.65,1332.76 1665.75,1332.36 C1665.15,1332.26 1664.65,1332.26 1664.05,1332.26 C1660.55,1332.26 1656.75,1333.26 1653.25,1335.16 C1646.65,1338.76 1642.55,1344.66 1642.55,1349.76 C1642.55,1351.16 1642.75,1352.46 1643.45,1353.66 C1644.95,1356.36 1647.95,1358.06 1651.85,1358.46 C1652.45,1358.56 1652.95,1358.56 1653.55,1358.56 C1657.05,1358.56 1660.75,1357.56 1664.25,1355.66 C1670.85,1352.06 1675.05,1346.26 1675.05,1341.16 C1675.05,1339.76 1674.75,1338.36 1674.05,1337.16"/>
<path class="Note" d="M1810.86,1349.66 C1809.36,1346.96 1806.46,1345.26 1802.56,1344.86 C1801.96,1344.76 1801.46,1344.76 1800.86,1344.76 C1797.36,1344.76 1793.56,1345.76 1790.06,1347.66 C1783.46,1351.26 1779.36,1357.16 1779.36,1362.26 C1779.36,1363.66 1779.56,1364.96 1780.26,1366.16 C1781.76,1368.86 1784.76,1370.56 1788.66,1370.96 C1789.26,1371.06 1789.76,1371.06 1790.36,1371.06 C1793.86,1371.06 1797.56,1370.06 1801.06,1368.16 C1807.66,1364.56 1811.86,1358.76 1811.86,1353.66 C1811.86,1352.26 1811.56,1350.86 1810.86,1349.66"/>
<path class="Note" d="M1947.68,1362.16 C1946.18,1359.46 1943.28,1357.76 1939.38,1357.36 C1938.78,1357.26 1938.28,1357.26 1937.68,1357.26 C1934.18,1357.26 1930.38,1358.26 1926.88,1360.16 C1920.28,1363.76 1916.18,1369.66 1916.18,1374.76 C1916.18,1376.16 1916.38,1377.46 1917.08,1378.66 C1918.58,1381.36 1921.58,1383.06 1925.48,1383.46 C1926.08,1383.56 1926.58,1383.56 1927.18,1383.56 C1930.68,1383.56 1934.38,1382.56 1937.88,1380.66 C1944.48,1377.06 1948.68,1371.26 1948.68,1366.16 C1948.68,1364.76 1948.38,1363.36 1947.68,1362.16"/>
<path class="Note" d="M2084.5,1374.66 C2083,1371.96 2080.1,1370.26 2076.2,1369.86 C2075.6,1369.76 2075.1,1369.76 2074.5,1369.76 C2071,1369.76 2067.2,1370.76 2063.7,1372.66 C2057.1,1376.26 2053,1382.16 2053,1387.26 C2053,1388.66 2053.2,1389.96 2053.9,1391.16 C2055.4,1393.86 2058.4,1395.56 2062.3,1395.96 C2062.9,1396.06 2063.4,1396.06 2064,1396.06 C2067.5,1396.06 2071.2,1395.06 2074.7,1393.16 C2081.3,1389.56 2085.5,1383.76 2085.5,1378.66 C2085.5,1377.26 2085.2,1375.86 2084.5,1374.66"/>
<path class="Note" d="M2267.07,1387.16 C2265.57,1384.46 2262.67,1382.76 2258.77,1382.36 C2258.17,1382.26 2257.67,1382.26 2257.07,1382.26 C2253.57,1382.26 2249.77,1383.26 2246.27,1385.16 C2239.67,1388.76 2235.57,1394.66 2235.57,1399.76 C2235.57,1401.16 2235.77,1402.46 2236.47,1403.66 C2237.97,1406.36 2240.97,1408.06 2244.87,1408.46 C2245.47,1408.56 2245.97,1408.56 2246.57,1408.56 C2250.07,1408.56 2253.77,1407.56 2257.27,1405.66 C2263.87,1402.06 2268.07,1396.26 2268.07,1391.16 C2268.07,1389.76 2267.77,1388.36 2267.07,1387.16"/>
<path class="Note" d="M2435.51,1399.67 C2434.01,1396.97 2431.11,1395.27 2427.21,1394.87 C2426.61,1394.77 2426.11,1394.77 2425.51,1394.77 C2422.01,1394.77 2418.21,1395.77 2414.71,1397.67 C2408.11,1401.27 2404.01,1407.07 2404.01,1412.17 C2404.01,1413.57 2404.41,1414.97 2405.11,1416.17 C2406.61,1418.97 2409.41,1420.57 2413.31,1420.97 C2413.91,1421.07 2414.41,1421.07 2415.01,1421.07 C2418.51,1421.07 2422.31,1420.07 2425.81,1418.17 C2432.41,1414.57 2436.51,1408.67 2436.51,1403.57 C2436.51,1402.17 2436.21,1400.87 2435.51,1399.67 M2431.31,1405.97 C2429.61,1407.77 2426.41,1410.07 2422.81,1412.17 C2419.21,1414.27 2415.51,1415.97 2413.21,1416.67 C2412.71,1416.77 2412.11,1416.87 2411.61,1416.87 C2410.11,1416.87 2408.81,1416.17 2408.11,1415.07 C2407.81,1414.47 2407.61,1413.87 2407.61,1413.27 C2407.61,1412.17 2408.11,1411.07 2409.21,1409.87 C2410.91,1408.07 2414.11,1405.67 2417.71,1403.57 C2421.31,1401.47 2425.01,1399.77 2427.41,1399.17 L2427.61,1399.17 C2428.21,1398.97 2428.71,1398.87 2429.21,1398.87 C2430.61,1398.87 2431.71,1399.47 2432.41,1400.77 C2432.71,1401.37 2432.91,1401.87 2432.91,1402.47 C2432.91,1403.77 2432.21,1405.07 2431.31,1405.97"/>
<path class="Clef" d="M297,907.735 C289.4,907.735 283.3,912.135 283.2,912.135 C277.4,916.435 275.1,921.535 274.2,925.035 C273.7,926.835 273.5,928.635 273.5,930.335 C273.5,932.735 273.9,934.935 274.8,936.835 C276,939.535 278.3,941.435 281.3,942.435 C282.5,942.835 283.8,943.035 285.1,943.035 C287.3,943.035 289.6,942.435 291.5,941.335 C294.6,939.635 296.5,936.035 296.5,932.135 C296.5,928.635 294.7,925.435 291.7,923.535 C289.6,922.135 287.6,921.735 285.9,921.735 C284.7,921.735 283.6,921.935 282.7,922.235 C281.7,922.635 280,923.635 279.2,924.335 C279.5,922.435 280.7,919.535 281.8,917.935 C282.9,916.335 285.1,914.335 286.8,913.435 C289.3,912.035 292.5,911.435 296,911.435 C306.2,911.435 311.2,919.635 311.2,936.435 C311.2,945.735 307.7,954.635 304.7,960.535 C301.4,967.135 297,973.435 293.1,976.935 C282.7,986.435 272.9,990.935 272.8,990.935 C272.8,990.935 271.3,991.835 271.7,993.335 C272,994.335 272.9,994.535 273.5,994.535 C273.6,994.535 273.9,994.435 274,994.435 C274.1,994.435 285.5,989.735 294.6,982.635 C299.7,978.935 304.3,974.935 308.3,970.635 C311.9,966.735 315,962.535 317.5,958.335 C321.9,950.835 324.4,943.035 324.4,936.335 C324.4,928.035 322.2,921.135 318.1,916.235 C313.4,910.635 306.3,907.735 297,907.735 M328.4,920.435 C328.4,923.235 330.6,925.435 333.2,925.435 C335.8,925.435 338,923.235 338,920.435 C338,917.635 335.8,915.335 333.2,915.335 C330.6,915.335 328.4,917.635 328.4,920.435 M328.4,945.135 C328.4,947.935 330.6,950.235 333.2,950.235 C335.8,950.235 338,947.935 338,945.135 C338,942.335 335.8,940.035 333.2,940.035 C330.6,940.035 328.4,942.335 328.4,945.135"/>
<path class="Clef" d="M2252.69,976.939 C2251.49,971.539 2248.79,967.639 2247.99,966.639 C2244.79,962.339 2240.79,959.539 2236.09,958.139 C2233.79,957.439 2231.69,957.239 2229.69,957.239 C2228.99,957.239 2228.29,957.239 2227.59,957.339 C2226.59,951.339 2225.49,945.439 2224.59,940.039 C2230.19,933.839 2233.89,927.939 2236.29,923.539 C2239.89,916.839 2241.29,912.139 2241.39,911.939 C2242.59,908.939 2243.29,905.139 2243.29,900.639 C2243.29,897.939 2242.99,895.039 2242.59,892.039 C2241.49,884.939 2239.29,878.239 2236.79,874.539 C2235.49,872.639 2234.29,871.539 2233.09,871.539 C2231.89,871.539 2229.39,872.739 2226.49,875.539 C2224.19,877.739 2220.89,881.639 2218.29,887.639 C2215.99,893.039 2215.29,899.939 2215.29,905.839 C2215.29,907.639 2215.39,909.339 2215.49,910.939 C2215.69,914.539 2216.39,920.339 2216.99,923.939 C2216.99,924.039 2217.29,925.539 2217.69,928.139 L2216.99,928.839 C2215.99,929.839 2214.79,930.939 2213.39,932.339 C2212.49,933.239 2211.59,934.039 2210.59,935.039 C2202.09,943.239 2189.29,955.639 2189.29,974.739 C2189.29,979.439 2190.19,983.839 2191.99,987.839 C2193.59,991.439 2195.89,994.739 2198.79,997.639 C2206.29,1005.04 2216.49,1008.24 2223.59,1008.24 L2224.19,1008.24 C2227.09,1008.14 2229.79,1007.84 2232.19,1007.44 C2233.99,1017.04 2235.19,1024.14 2235.19,1029.44 C2235.19,1035.94 2233.59,1039.84 2229.69,1042.64 C2227.29,1044.34 2224.39,1045.44 2221.29,1045.54 L2220.49,1045.54 C2218.99,1045.54 2216.49,1045.14 2214.99,1044.74 C2214.99,1044.74 2214.69,1044.64 2214.69,1044.44 C2214.69,1044.24 2215.09,1044.24 2215.09,1044.24 C2216.99,1043.84 2220.59,1042.54 2222.99,1039.24 C2224.09,1037.74 2224.79,1035.44 2224.79,1032.94 C2224.79,1031.34 2224.49,1029.64 2223.79,1028.14 C2222.69,1025.74 2220.09,1022.74 2214.49,1022.34 L2213.39,1022.34 C2211.29,1022.34 2209.49,1022.84 2207.79,1023.84 C2205.99,1024.94 2204.39,1026.64 2203.39,1028.64 C2202.29,1030.64 2201.79,1032.84 2201.79,1035.04 C2201.79,1037.94 2202.69,1040.64 2204.49,1042.84 C2207.49,1046.44 2212.19,1048.74 2217.59,1049.34 C2218.29,1049.44 2219.39,1049.54 2220.09,1049.54 C2224.49,1049.54 2228.89,1048.34 2232.49,1046.14 C2236.19,1043.54 2238.29,1039.54 2238.99,1033.94 C2239.19,1032.64 2239.19,1031.24 2239.19,1029.74 C2239.19,1025.84 2238.69,1021.14 2237.69,1015.34 C2237.29,1013.24 2236.89,1010.24 2236.19,1006.44 C2241.99,1004.54 2246.09,1000.84 2249.89,995.039 C2252.19,991.039 2253.29,986.939 2253.29,982.639 C2253.29,980.739 2253.09,978.839 2252.69,976.939 M2222.49,899.039 C2224.29,893.339 2226.99,889.939 2228.99,888.239 C2230.79,886.739 2232.39,886.039 2233.29,886.039 C2233.39,886.039 2233.59,886.139 2233.69,886.139 C2233.99,886.239 2234.39,886.739 2234.79,887.439 C2235.69,889.239 2236.59,892.539 2236.59,896.239 C2236.59,898.139 2236.39,900.139 2235.79,901.939 C2233.59,908.739 2228.99,916.039 2221.99,923.739 C2221.79,922.639 2221.59,921.639 2221.49,920.639 C2220.99,917.439 2220.69,914.239 2220.69,911.339 C2220.69,906.839 2221.29,902.739 2222.49,899.039 M2218.49,1003.14 C2213.89,1001.94 2209.39,999.439 2205.59,995.939 C2204.29,994.739 2202.49,992.539 2200.99,989.139 C2199.69,986.139 2198.99,983.039 2198.99,979.639 L2198.99,978.939 C2199.09,974.239 2200.39,969.439 2202.89,964.639 C2205.79,959.039 2210.29,953.539 2216.39,948.239 C2217.89,946.939 2219.29,945.639 2220.59,944.339 C2221.39,948.639 2222.09,953.339 2222.99,958.239 C2219.09,959.539 2214.39,962.539 2211.29,968.239 C2208.89,972.739 2208.19,976.639 2208.19,979.839 C2208.19,981.339 2208.39,982.739 2208.59,983.839 C2209.49,988.339 2212.09,992.039 2215.59,994.139 C2216.39,994.639 2219.69,996.339 2221.69,996.339 C2221.99,996.339 2222.29,996.339 2222.49,996.239 C2222.79,996.139 2223.09,995.939 2223.19,995.639 C2223.29,995.439 2223.29,995.239 2223.29,995.039 C2223.29,994.239 2222.49,993.639 2221.19,992.839 C2220.59,992.439 2219.89,992.039 2219.19,991.539 C2216.59,989.539 2215.09,986.439 2215.09,983.039 C2215.09,982.039 2215.29,981.139 2215.49,980.139 C2215.99,978.139 2217.69,975.339 2219.19,973.939 C2220.89,972.439 2222.89,971.239 2225.29,970.639 C2227.29,981.839 2229.39,992.939 2230.99,1001.34 C2231.09,1002.04 2231.29,1002.74 2231.39,1003.44 C2229.39,1003.84 2227.39,1004.04 2225.49,1004.04 C2223.09,1004.04 2220.79,1003.74 2218.49,1003.14 M2244.19,992.939 C2242.99,996.139 2240.49,1000.14 2235.39,1002.24 C2235.29,1001.84 2235.29,1001.34 2235.19,1000.94 C2233.69,992.139 2231.79,981.239 2229.79,969.939 L2230.79,969.939 C2240.49,969.939 2244.39,977.139 2245.29,981.739 C2245.49,982.639 2245.59,983.839 2245.59,985.139 C2245.59,987.439 2245.19,990.239 2244.19,992.939"/>
<path class="Clef" d="M335,1589.48 C333.8,1584.08 331.1,1580.18 330.3,1579.18 C327.1,1574.88 323.1,1572.08 318.4,1570.68 C316.1,1569.98 314,1569.78 312,1569.78 C311.3,1569.78 310.6,1569.78 309.9,1569.88 C308.9,1563.88 307.8,1557.98 306.9,1552.58 C312.5,1546.38 316.2,1540.48 318.6,1536.08 C322.2,1529.38 323.6,1524.68 323.7,1524.48 C324.9,1521.48 325.6,1517.68 325.6,1513.18 C325.6,1510.48 325.3,1507.58 324.9,1504.58 C323.8,1497.48 321.6,1490.78 319.1,1487.08 C317.8,1485.18 316.6,1484.08 315.4,1484.08 C314.2,1484.08 311.7,1485.28 308.8,1488.08 C306.5,1490.28 303.2,1494.18 300.6,1500.18 C298.3,1505.58 297.6,1512.48 297.6,1518.38 C297.6,1520.18 297.7,1521.88 297.8,1523.48 C298,1527.08 298.7,1532.88 299.3,1536.48 C299.3,1536.58 299.6,1538.08 300,1540.68 L299.3,1541.38 C298.3,1542.38 297.1,1543.48 295.7,1544.88 C294.8,1545.78 293.9,1546.58 292.9,1547.58 C284.4,1555.78 271.6,1568.18 271.6,1587.28 C271.6,1591.98 272.5,1596.38 274.3,1600.38 C275.9,1603.98 278.2,1607.28 281.1,1610.18 C288.6,1617.58 298.8,1620.78 305.9,1620.78 L306.5,1620.78 C309.4,1620.68 312.1,1620.38 314.5,1619.98 C316.3,1629.58 317.5,1636.68 317.5,1641.98 C317.5,1648.48 315.9,1652.38 312,1655.18 C309.6,1656.88 306.7,1657.98 303.6,1658.08 L302.8,1658.08 C301.3,1658.08 298.8,1657.68 297.3,1657.28 C297.3,1657.28 297,1657.18 297,1656.98 C297,1656.78 297.4,1656.78 297.4,1656.78 C299.3,1656.38 302.9,1655.08 305.3,1651.78 C306.4,1650.28 307.1,1647.98 307.1,1645.48 C307.1,1643.88 306.8,1642.18 306.1,1640.68 C305,1638.28 302.4,1635.28 296.8,1634.88 L295.7,1634.88 C293.6,1634.88 291.8,1635.38 290.1,1636.38 C288.3,1637.48 286.7,1639.18 285.7,1641.18 C284.6,1643.18 284.1,1645.38 284.1,1647.58 C284.1,1650.48 285,1653.18 286.8,1655.38 C289.8,1658.98 294.5,1661.28 299.9,1661.88 C300.6,1661.98 301.7,1662.08 302.4,1662.08 C306.8,1662.08 311.2,1660.88 314.8,1658.68 C318.5,1656.08 320.6,1652.08 321.3,1646.48 C321.5,1645.18 321.5,1643.78 321.5,1642.28 C321.5,1638.38 321,1633.68 320,1627.88 C319.6,1625.78 319.2,1622.78 318.5,1618.98 C324.3,1617.08 328.4,1613.38 332.2,1607.58 C334.5,1603.58 335.6,1599.48 335.6,1595.18 C335.6,1593.28 335.4,1591.38 335,1589.48 M304.8,1511.58 C306.6,1505.88 309.3,1502.48 311.3,1500.78 C313.1,1499.28 314.7,1498.58 315.6,1498.58 C315.7,1498.58 315.9,1498.68 316,1498.68 C316.3,1498.78 316.7,1499.28 317.1,1499.98 C318,1501.78 318.9,1505.08 318.9,1508.78 C318.9,1510.68 318.7,1512.68 318.1,1514.48 C315.9,1521.28 311.3,1528.58 304.3,1536.28 C304.1,1535.18 303.9,1534.18 303.8,1533.18 C303.3,1529.98 303,1526.78 303,1523.88 C303,1519.38 303.6,1515.28 304.8,1511.58 M300.8,1615.68 C296.2,1614.48 291.7,1611.98 287.9,1608.48 C286.6,1607.28 284.8,1605.08 283.3,1601.68 C282,1598.68 281.3,1595.58 281.3,1592.18 L281.3,1591.48 C281.4,1586.78 282.7,1581.98 285.2,1577.18 C288.1,1571.58 292.6,1566.08 298.7,1560.78 C300.2,1559.48 301.6,1558.18 302.9,1556.88 C303.7,1561.18 304.4,1565.88 305.3,1570.78 C301.4,1572.08 296.7,1575.08 293.6,1580.78 C291.2,1585.28 290.5,1589.18 290.5,1592.38 C290.5,1593.88 290.7,1595.28 290.9,1596.38 C291.8,1600.88 294.4,1604.58 297.9,1606.68 C298.7,1607.18 302,1608.88 304,1608.88 C304.3,1608.88 304.6,1608.88 304.8,1608.78 C305.1,1608.68 305.4,1608.48 305.5,1608.18 C305.6,1607.98 305.6,1607.78 305.6,1607.58 C305.6,1606.78 304.8,1606.18 303.5,1605.38 C302.9,1604.98 302.2,1604.58 301.5,1604.08 C298.9,1602.08 297.4,1598.98 297.4,1595.58 C297.4,1594.58 297.6,1593.68 297.8,1592.68 C298.3,1590.68 300,1587.88 301.5,1586.48 C303.2,1584.98 305.2,1583.78 307.6,1583.18 C309.6,1594.38 311.7,1605.48 313.3,1613.88 C313.4,1614.58 313.6,1615.28 313.7,1615.98 C311.7,1616.38 309.7,1616.58 307.8,1616.58 C305.4,1616.58 303.1,1616.28 300.8,1615.68 M326.5,1605.48 C325.3,1608.68 322.8,1612.68 317.7,1614.78 C317.6,1614.38 317.6,1613.88 317.5,1613.48 C316,1604.68 314.1,1593.78 312.1,1582.48 L313.1,1582.48 C322.8,1582.48 326.7,1589.68 327.6,1594.28 C327.8,1595.18 327.9,1596.38 327.9,1597.68 C327.9,1599.98 327.5,1602.78 326.5,1605.48"/>
<path class="Clef" d="M984.77,1520.27 C977.17,1520.27 971.07,1524.67 970.97,1524.67 C965.17,1528.97 962.87,1534.07 961.97,1537.57 C961.47,1539.37 961.27,1541.17 961.27,1542.87 C961.27,1545.27 961.67,1547.47 962.57,1549.37 C963.77,1552.07 966.07,1553.97 969.07,1554.97 C970.27,1555.37 971.57,1555.57 972.87,1555.57 C975.07,1555.57 977.37,1554.97 979.27,1553.87 C982.37,1552.17 984.27,1548.57 984.27,1544.67 C984.27,1541.17 982.47,1537.97 979.47,1536.07 C977.37,1534.67 975.37,1534.27 973.67,1534.27 C972.47,1534.27 971.37,1534.47 970.47,1534.77 C969.47,1535.17 967.77,1536.17 966.97,1536.87 C967.27,1534.97 968.47,1532.07 969.57,1530.47 C970.67,1528.87 972.87,1526.87 974.57,1525.97 C977.07,1524.57 980.27,1523.97 983.77,1523.97 C993.97,1523.97 998.97,1532.17 998.97,1548.97 C998.97,1558.27 995.47,1567.17 992.47,1573.07 C989.17,1579.67 984.77,1585.97 980.87,1589.47 C970.47,1598.97 960.67,1603.47 960.57,1603.47 C960.57,1603.47 959.07,1604.37 959.47,1605.87 C959.77,1606.87 960.67,1607.07 961.27,1607.07 C961.37,1607.07 961.67,1606.97 961.77,1606.97 C961.87,1606.97 973.27,1602.27 982.37,1595.17 C987.47,1591.47 992.07,1587.47 996.07,1583.17 C999.67,1579.27 1002.77,1575.07 1005.27,1570.87 C1009.67,1563.37 1012.17,1555.57 1012.17,1548.87 C1012.17,1540.57 1009.97,1533.67 1005.87,1528.77 C1001.17,1523.17 994.07,1520.27 984.77,1520.27 M1016.17,1532.97 C1016.17,1535.77 1018.37,1537.97 1020.97,1537.97 C1023.57,1537.97 1025.77,1535.77 1025.77,1532.97 C1025.77,1530.17 1023.57,1527.87 1020.97,1527.87 C1018.37,1527.87 1016.17,1530.17 1016.17,1532.97 M1016.17,1557.67 C1016.17,1560.47 1018.37,1562.77 1020.97,1562.77 C1023.57,1562.77 1025.77,1560.47 1025.77,1557.67 C1025.77,1554.87 1023.57,1552.57 1020.97,1552.57 C1018.37,1552.57 1016.17,1554.87 1016.17,1557.67"/>
<path class="Clef" d="M335,714.422 C333.8,709.022 331.1,705.122 330.3,704.122 C327.1,699.822 323.1,697.022 318.4,695.622 C316.1,694.922 314,694.722 312,694.722 C311.3,694.722 310.6,694.722 309.9,694.822 C308.9,688.822 307.8,682.922 306.9,677.522 C312.5,671.322 316.2,665.422 318.6,661.022 C322.2,654.322 323.6,649.622 323.7,649.422 C324.9,646.422 325.6,642.622 325.6,638.122 C325.6,635.422 325.3,632.522 324.9,629.522 C323.8,622.422 321.6,615.722 319.1,612.022 C317.8,610.122 316.6,609.022 315.4,609.022 C314.2,609.022 311.7,610.222 308.8,613.022 C306.5,615.222 303.2,619.122 300.6,625.122 C298.3,630.522 297.6,637.422 297.6,643.322 C297.6,645.122 297.7,646.822 297.8,648.422 C298,652.022 298.7,657.822 299.3,661.422 C299.3,661.522 299.6,663.022 300,665.622 L299.3,666.322 C298.3,667.322 297.1,668.422 295.7,669.822 C294.8,670.722 293.9,671.522 292.9,672.522 C284.4,680.722 271.6,693.122 271.6,712.222 C271.6,716.922 272.5,721.322 274.3,725.322 C275.9,728.922 278.2,732.222 281.1,735.122 C288.6,742.522 298.8,745.722 305.9,745.722 L306.5,745.722 C309.4,745.622 312.1,745.322 314.5,744.922 C316.3,754.522 317.5,761.622 317.5,766.922 C317.5,773.422 315.9,777.322 312,780.122 C309.6,781.822 306.7,782.922 303.6,783.022 L302.8,783.022 C301.3,783.022 298.8,782.622 297.3,782.222 C297.3,782.222 297,782.122 297,781.922 C297,781.722 297.4,781.722 297.4,781.722 C299.3,781.322 302.9,780.022 305.3,776.722 C306.4,775.222 307.1,772.922 307.1,770.422 C307.1,768.822 306.8,767.122 306.1,765.622 C305,763.222 302.4,760.222 296.8,759.822 L295.7,759.822 C293.6,759.822 291.8,760.322 290.1,761.322 C288.3,762.422 286.7,764.122 285.7,766.122 C284.6,768.122 284.1,770.322 284.1,772.522 C284.1,775.422 285,778.122 286.8,780.322 C289.8,783.922 294.5,786.222 299.9,786.822 C300.6,786.922 301.7,787.022 302.4,787.022 C306.8,787.022 311.2,785.822 314.8,783.622 C318.5,781.022 320.6,777.022 321.3,771.422 C321.5,770.122 321.5,768.722 321.5,767.222 C321.5,763.322 321,758.622 320,752.822 C319.6,750.722 319.2,747.722 318.5,743.922 C324.3,742.022 328.4,738.322 332.2,732.522 C334.5,728.522 335.6,724.422 335.6,720.122 C335.6,718.222 335.4,716.322 335,714.422 M304.8,636.522 C306.6,630.822 309.3,627.422 311.3,625.722 C313.1,624.222 314.7,623.522 315.6,623.522 C315.7,623.522 315.9,623.622 316,623.622 C316.3,623.722 316.7,624.222 317.1,624.922 C318,626.722 318.9,630.022 318.9,633.722 C318.9,635.622 318.7,637.622 318.1,639.422 C315.9,646.222 311.3,653.522 304.3,661.222 C304.1,660.122 303.9,659.122 303.8,658.122 C303.3,654.922 303,651.722 303,648.822 C303,644.322 303.6,640.222 304.8,636.522 M300.8,740.622 C296.2,739.422 291.7,736.922 287.9,733.422 C286.6,732.222 284.8,730.022 283.3,726.622 C282,723.622 281.3,720.522 281.3,717.122 L281.3,716.422 C281.4,711.722 282.7,706.922 285.2,702.122 C288.1,696.522 292.6,691.022 298.7,685.722 C300.2,684.422 301.6,683.122 302.9,681.822 C303.7,686.122 304.4,690.822 305.3,695.722 C301.4,697.022 296.7,700.022 293.6,705.722 C291.2,710.222 290.5,714.122 290.5,717.322 C290.5,718.822 290.7,720.222 290.9,721.322 C291.8,725.822 294.4,729.522 297.9,731.622 C298.7,732.122 302,733.822 304,733.822 C304.3,733.822 304.6,733.822 304.8,733.722 C305.1,733.622 305.4,733.422 305.5,733.122 C305.6,732.922 305.6,732.722 305.6,732.522 C305.6,731.722 304.8,731.122 303.5,730.322 C302.9,729.922 302.2,729.522 301.5,729.022 C298.9,727.022 297.4,723.922 297.4,720.522 C297.4,719.522 297.6,718.622 297.8,717.622 C298.3,715.622 300,712.822 301.5,711.422 C303.2,709.922 305.2,708.722 307.6,708.122 C309.6,719.322 311.7,730.422 313.3,738.822 C313.4,739.522 313.6,740.222 313.7,740.922 C311.7,741.322 309.7,741.522 307.8,741.522 C305.4,741.522 303.1,741.222 300.8,740.622 M326.5,730.422 C325.3,733.622 322.8,737.622 317.7,739.722 C317.6,739.322 317.6,738.822 317.5,738.422 C316,729.622 314.1,718.722 312.1,707.422 L313.1,707.422 C322.8,707.422 326.7,714.622 327.6,719.222 C327.8,720.122 327.9,721.322 327.9,722.622 C327.9,724.922 327.5,727.722 326.5,730.422"/>
<path class="Clef" d="M335,1326.96 C333.8,1321.56 331.1,1317.66 330.3,1316.66 C327.1,1312.36 323.1,1309.56 318.4,1308.16 C316.1,1307.46 314,1307.26 312,1307.26 C311.3,1307.26 310.6,1307.26 309.9,1307.36 C308.9,1301.36 307.8,1295.46 306.9,1290.06 C312.5,1283.86 316.2,1277.96 318.6,1273.56 C322.2,1266.86 323.6,1262.16 323.7,1261.96 C324.9,1258.96 325.6,1255.16 325.6,1250.66 C325.6,1247.96 325.3,1245.06 324.9,1242.06 C323.8,1234.96 321.6,1228.26 319.1,1224.56 C317.8,1222.66 316.6,1221.56 315.4,1221.56 C314.2,1221.56 311.7,1222.76 308.8,1225.56 C306.5,1227.76 303.2,1231.66 300.6,1237.66 C298.3,1243.06 297.6,1249.96 297.6,1255.86 C297.6,1257.66 297.7,1259.36 297.8,1260.96 C298,1264.56 298.7,1270.36 299.3,1273.96 C299.3,1274.06 299.6,1275.56 300,1278.16 L299.3,1278.86 C298.3,1279.86 297.1,1280.96 295.7,1282.36 C294.8,1283.26 293.9,1284.06 292.9,1285.06 C284.4,1293.26 271.6,1305.66 271.6,1324.76 C271.6,1329.46 272.5,1333.86 274.3,1337.86 C275.9,1341.46 278.2,1344.76 281.1,1347.66 C288.6,1355.06 298.8,1358.26 305.9,1358.26 L306.5,1358.26 C309.4,1358.16 312.1,1357.86 314.5,1357.46 C316.3,1367.06 317.5,1374.16 317.5,1379.46 C317.5,1385.96 315.9,1389.86 312,1392.66 C309.6,1394.36 306.7,1395.46 303.6,1395.56 L302.8,1395.56 C301.3,1395.56 298.8,1395.16 297.3,1394.76 C297.3,1394.76 297,1394.66 297,1394.46 C297,1394.26 297.4,1394.26 297.4,1394.26 C299.3,1393.86 302.9,1392.56 305.3,1389.26 C306.4,1387.76 307.1,1385.46 307.1,1382.96 C307.1,1381.36 306.8,1379.66 306.1,1378.16 C305,1375.76 302.4,1372.76 296.8,1372.36 L295.7,1372.36 C293.6,1372.36 291.8,1372.86 290.1,1373.86 C288.3,1374.96 286.7,1376.66 285.7,1378.66 C284.6,1380.66 284.1,1382.86 284.1,1385.06 C284.1,1387.96 285,1390.66 286.8,1392.86 C289.8,1396.46 294.5,1398.76 299.9,1399.36 C300.6,1399.46 301.7,1399.56 302.4,1399.56 C306.8,1399.56 311.2,1398.36 314.8,1396.16 C318.5,1393.56 320.6,1389.56 321.3,1383.96 C321.5,1382.66 321.5,1381.26 321.5,1379.76 C321.5,1375.86 321,1371.16 320,1365.36 C319.6,1363.26 319.2,1360.26 318.5,1356.46 C324.3,1354.56 328.4,1350.86 332.2,1345.06 C334.5,1341.06 335.6,1336.96 335.6,1332.66 C335.6,1330.76 335.4,1328.86 335,1326.96 M304.8,1249.06 C306.6,1243.36 309.3,1239.96 311.3,1238.26 C313.1,1236.76 314.7,1236.06 315.6,1236.06 C315.7,1236.06 315.9,1236.16 316,1236.16 C316.3,1236.26 316.7,1236.76 317.1,1237.46 C318,1239.26 318.9,1242.56 318.9,1246.26 C318.9,1248.16 318.7,1250.16 318.1,1251.96 C315.9,1258.76 311.3,1266.06 304.3,1273.76 C304.1,1272.66 303.9,1271.66 303.8,1270.66 C303.3,1267.46 303,1264.26 303,1261.36 C303,1256.86 303.6,1252.76 304.8,1249.06 M300.8,1353.16 C296.2,1351.96 291.7,1349.46 287.9,1345.96 C286.6,1344.76 284.8,1342.56 283.3,1339.16 C282,1336.16 281.3,1333.06 281.3,1329.66 L281.3,1328.96 C281.4,1324.26 282.7,1319.46 285.2,1314.66 C288.1,1309.06 292.6,1303.56 298.7,1298.26 C300.2,1296.96 301.6,1295.66 302.9,1294.36 C303.7,1298.66 304.4,1303.36 305.3,1308.26 C301.4,1309.56 296.7,1312.56 293.6,1318.26 C291.2,1322.76 290.5,1326.66 290.5,1329.86 C290.5,1331.36 290.7,1332.76 290.9,1333.86 C291.8,1338.36 294.4,1342.06 297.9,1344.16 C298.7,1344.66 302,1346.36 304,1346.36 C304.3,1346.36 304.6,1346.36 304.8,1346.26 C305.1,1346.16 305.4,1345.96 305.5,1345.66 C305.6,1345.46 305.6,1345.26 305.6,1345.06 C305.6,1344.26 304.8,1343.66 303.5,1342.86 C302.9,1342.46 302.2,1342.06 301.5,1341.56 C298.9,1339.56 297.4,1336.46 297.4,1333.06 C297.4,1332.06 297.6,1331.16 297.8,1330.16 C298.3,1328.16 300,1325.36 301.5,1323.96 C303.2,1322.46 305.2,1321.26 307.6,1320.66 C309.6,1331.86 311.7,1342.96 313.3,1351.36 C313.4,1352.06 313.6,1352.76 313.7,1353.46 C311.7,1353.86 309.7,1354.06 307.8,1354.06 C305.4,1354.06 303.1,1353.76 300.8,1353.16 M326.5,1342.96 C325.3,1346.16 322.8,1350.16 317.7,1352.26 C317.6,1351.86 317.6,1351.36 317.5,1350.96 C316,1342.16 314.1,1331.26 312.1,1319.96 L313.1,1319.96 C322.8,1319.96 326.7,1327.16 327.6,1331.76 C327.8,1332.66 327.9,1333.86 327.9,1335.16 C327.9,1337.46 327.5,1340.26 326.5,1342.96"/>
<path class="TimeSig" d="M365.2,946.235 L382,946.235 L382,953.535 L373.9,953.535 C373.1,953.535 372.5,954.135 372.5,954.935 L372.5,956.835 C372.5,957.635 373.1,958.135 373.9,958.135 L403.6,958.135 C404.4,958.135 405,957.635 405,956.835 L405,954.935 C405,954.135 404.4,953.535 403.6,953.535 L394.8,953.535 L394.8,946.235 L403.6,946.235 C404.4,946.235 405,945.635 405,944.835 L405,943.035 C405,942.235 404.4,941.635 403.6,941.635 L394.8,941.635 L394.8,925.935 C394.8,925.435 394.4,924.935 394,924.735 L392.9,924.135 C392.7,924.035 392.4,924.035 392.2,924.035 C391.9,924.035 391.5,924.135 391.3,924.335 L382.4,932.535 C382.2,932.735 382,933.235 382,933.535 L382,941.635 L370.7,941.635 C370.7,941.635 381.6,929.835 393.2,914.335 C394,913.235 393.6,912.235 393.4,912.035 L391.3,909.835 C391.1,909.635 390.6,909.435 390.3,909.435 L375.7,909.435 C375,909.435 374.5,910.035 374.4,910.635 C374.4,910.635 373.9,917.835 371.3,925.835 C368.7,933.835 365.9,938.635 363.3,942.235 C363.3,942.235 362.8,943.235 363.1,943.935 C363.4,944.635 364.1,945.735 364.1,945.735 C364.1,945.735 364.4,946.235 365.2,946.235"/>
<path class="TimeSig" d="M365.2,994.839 L382,994.839 L382,1002.14 L373.9,1002.14 C373.1,1002.14 372.5,1002.74 372.5,1003.54 L372.5,1005.44 C372.5,1006.24 373.1,1006.74 373.9,1006.74 L403.6,1006.74 C404.4,1006.74 405,1006.24 405,1005.44 L405,1003.54 C405,1002.74 404.4,1002.14 403.6,1002.14 L394.8,1002.14 L394.8,994.839 L403.6,994.839 C404.4,994.839 405,994.239 405,993.439 L405,991.639 C405,990.839 404.4,990.239 403.6,990.239 L394.8,990.239 L394.8,974.539 C394.8,974.039 394.4,973.539 394,973.339 L392.9,972.739 C392.7,972.639 392.4,972.639 392.2,972.639 C391.9,972.639 391.5,972.739 391.3,972.939 L382.4,981.139 C382.2,981.339 382,981.839 382,982.139 L382,990.239 L370.7,990.239 C370.7,990.239 381.6,978.439 393.2,962.939 C394,961.839 393.6,960.839 393.4,960.639 L391.3,958.439 C391.1,958.239 390.6,958.039 390.3,958.039 L375.7,958.039 C375,958.039 374.5,958.639 374.4,959.239 C374.4,959.239 373.9,966.439 371.3,974.439 C368.7,982.439 365.9,987.239 363.3,990.839 C363.3,990.839 362.8,991.839 363.1,992.539 C363.4,993.239 364.1,994.339 364.1,994.339 C364.1,994.339 364.4,994.839 365.2,994.839"/>
<path class="TimeSig" d="M365.2,683.718 L382,683.718 L382,691.018 L373.9,691.018 C373.1,691.018 372.5,691.618 372.5,692.418 L372.5,694.318 C372.5,695.118 373.1,695.618 373.9,695.618 L403.6,695.618 C404.4,695.618 405,695.118 405,694.318 L405,692.418 C405,691.618 404.4,691.018 403.6,691.018 L394.8,691.018 L394.8,683.718 L403.6,683.718 C404.4,683.718 405,683.118 405,682.318 L405,680.518 C405,679.718 404.4,679.118 403.6,679.118 L394.8,679.118 L394.8,663.418 C394.8,662.918 394.4,662.418 394,662.218 L392.9,661.618 C392.7,661.518 392.4,661.518 392.2,661.518 C391.9,661.518 391.5,661.618 391.3,661.818 L382.4,670.018 C382.2,670.218 382,670.718 382,671.018 L382,679.118 L370.7,679.118 C370.7,679.118 381.6,667.318 393.2,651.818 C394,650.718 393.6,649.718 393.4,649.518 L391.3,647.318 C391.1,647.118 390.6,646.918 390.3,646.918 L375.7,646.918 C375,646.918 374.5,647.518 374.4,648.118 C374.4,648.118 373.9,655.318 371.3,663.318 C368.7,671.318 365.9,676.118 363.3,679.718 C363.3,679.718 362.8,680.718 363.1,681.418 C363.4,682.118 364.1,683.218 364.1,683.218 C364.1,683.218 364.4,683.718 365.2,683.718"/>
<path class="TimeSig" d="M365.2,732.323 L382,732.323 L382,739.623 L373.9,739.623 C373.1,739.623 372.5,740.223 372.5,741.023 L372.5,742.923 C372.5,743.723 373.1,744.223 373.9,744.223 L403.6,744.223 C404.4,744.223 405,743.723 405,742.923 L405,741.023 C405,740.223 404.4,739.623 403.6,739.623 L394.8,739.623 L394.8,732.323 L403.6,732.323 C404.4,732.323 405,731.723 405,730.923 L405,729.123 C405,728.323 404.4,727.723 403.6,727.723 L394.8,727.723 L394.8,712.023 C394.8,711.523 394.4,711.023 394,710.823 L392.9,710.223 C392.7,710.123 392.4,710.123 392.2,710.123 C391.9,710.123 391.5,710.223 391.3,710.423 L382.4,718.623 C382.2,718.823 382,719.323 382,719.623 L382,727.723 L370.7,727.723 C370.7,727.723 381.6,715.923 393.2,700.423 C394,699.323 393.6,698.323 393.4,698.123 L391.3,695.923 C391.1,695.723 390.6,695.523 390.3,695.523 L375.7,695.523 C375,695.523 374.5,696.123 374.4,696.723 C374.4,696.723 373.9,703.923 371.3,711.923 C368.7,719.923 365.9,724.723 363.3,728.323 C363.3,728.323 362.8,729.323 363.1,730.023 C363.4,730.723 364.1,731.823 364.1,731.823 C364.1,731.823 364.4,732.323 365.2,732.323"/>
<path class="NoteDot" d="M2449,1607.88 C2449,1610.47 2451.11,1612.58 2453.7,1612.58 C2456.3,1612.58 2458.4,1610.47 2458.4,1607.88 C2458.4,1605.28 2456.3,1603.18 2453.7,1603.18 C2451.11,1603.18 2449,1605.28 2449,1607.88"/>
<path class="NoteDot" d="M2449,1395.36 C2449,1397.96 2451.11,1400.06 2453.7,1400.06 C2456.3,1400.06 2458.4,1397.96 2458.4,1395.36 C2458.4,1392.77 2456.3,1390.66 2453.7,1390.66 C2451.11,1390.66 2449,1392.77 2449,1395.36"/>
<path class="Page" d="M222.584,4034.39 C221.054,4036.23 216.914,4037.63 212.774,4037.72 L212.774,4039.65 L216.734,4039.65 C219.344,4039.7 219.614,4039.97 219.524,4042.49 L219.524,4060.53 C219.524,4062.83 219.524,4062.92 219.254,4063.32 C218.894,4063.77 218.039,4063.95 215.519,4063.95 L212.594,4063.95 L212.594,4066.07 L230.414,4066.07 L230.414,4063.95 L227.939,4063.95 C225.419,4063.95 224.564,4063.77 224.204,4063.32 C223.889,4062.92 223.889,4062.87 223.889,4060.53 L223.889,4041.95 C223.889,4039.43 223.979,4037.31 224.204,4034.39 L222.584,4034.39 M239.994,4050.77 C240.444,4045.14 240.669,4043.66 241.659,4041.36 C242.964,4038.17 245.349,4036.32 248.184,4036.32 C249.759,4036.32 250.704,4036.82 250.704,4037.63 C250.704,4037.81 250.659,4037.94 250.479,4038.26 C250.029,4039.11 249.804,4039.79 249.804,4040.42 C249.804,4041.9 250.974,4043.03 252.549,4043.03 C254.304,4043.03 255.519,4041.68 255.519,4039.79 C255.519,4036.68 252.414,4034.39 248.139,4034.39 C244.449,4034.39 240.984,4036.14 238.824,4039.16 C236.349,4042.62 234.999,4047.3 234.999,4052.21 C234.999,4061.03 239.319,4066.74 245.979,4066.74 C248.904,4066.74 251.334,4065.75 253.224,4063.77 C255.159,4061.79 256.329,4058.87 256.329,4055.99 C256.329,4050.68 252.549,4046.72 247.419,4046.72 C244.359,4046.72 242.109,4047.93 239.994,4050.77 M246.159,4049.46 C249.444,4049.46 251.424,4052.03 251.424,4056.3 C251.424,4061.52 249.354,4064.81 246.069,4064.81 C243.999,4064.81 242.424,4063.73 241.344,4061.52 C240.624,4060.13 240.264,4058.6 240.264,4056.93 C240.264,4052.3 242.514,4049.46 246.159,4049.46"/>
<path class="Bracket" transform="matrix(3.62523,0,0,3.62523,214.469,1007.84)" d="M0.92002,-50 C2.69004,-51.88 6.2,-55.8 6.2,-63 C6.2,-72.1 2.25996,-81.32 2.25996,-86.97 C2.25996,-93.06 5.84004,-98.84 5.95,-99 C6.05996,-99.16 6.05,-99.39 5.94004,-99.46 C5.82998,-99.53 5.62002,-99.47 5.49004,-99.32 C5.35996,-99.17 0,-93.75 0,-85.6 C0,-76.75 3.5,-70.58 3.5,-59.07 C3.5,-56.89 2.55996,-53.36 0.1,-50.33 C-0.0799805,-50.17 -0.1,-49.89 0.0599609,-49.7 L0.0700195,-49.69 L0.1,-49.66 C2.55996,-46.63 3.5,-43.1 3.5,-40.92 C3.5,-29.4 0,-23.24 0,-14.39 C0,-6.25 5.35996,-0.8 5.49004,-0.659961 C5.62002,-0.52002 5.8,-0.42998 5.94004,-0.52002 C6.07998,-0.609961 6.07998,-0.77998 5.95,-0.97998 C5.82002,-1.17998 2.25996,-6.92002 2.25996,-13.01 C2.25996,-18.66 6.2,-27.9 6.2,-37 C6.2,-44.3 2.69004,-48.12 0.92002,-50"/>
<path class="Bracket" transform="matrix(3.62523,0,0,3.62523,214.469,1620.38)" d="M0.92002,-50 C2.69004,-51.88 6.2,-55.8 6.2,-63 C6.2,-72.1 2.25996,-81.32 2.25996,-86.97 C2.25996,-93.06 5.84004,-98.84 5.95,-99 C6.05996,-99.16 6.05,-99.39 5.94004,-99.46 C5.82998,-99.53 5.62002,-99.47 5.49004,-99.32 C5.35996,-99.17 0,-93.75 0,-85.6 C0,-76.75 3.5,-70.58 3.5,-59.07 C3.5,-56.89 2.55996,-53.36 0.1,-50.33 C-0.0799805,-50.17 -0.1,-49.89 0.0599609,-49.7 L0.0700195,-49.69 L0.1,-49.66 C2.55996,-46.63 3.5,-43.1 3.5,-40.92 C3.5,-29.4 0,-23.24 0,-14.39 C0,-6.25 5.35996,-0.8 5.49004,-0.659961 C5.62002,-0.52002 5.8,-0.42998 5.94004,-0.52002 C6.07998,-0.609961 6.07998,-0.77998 5.95,-0.97998 C5.82002,-1.17998 2.25996,-6.92002 2.25996,-13.01 C2.25996,-18.66 6.2,-27.9 6.2,-37 C6.2,-44.3 2.69004,-48.12 0.92002,-50"/>
</svg>
