<?xml version="1.0" encoding="UTF-8" standalone="no"?>
<svg width="2977.23px" height="4208.47px" viewBox="0 0 2977.23 4208.47"
 xmlns="http://www.w3.org/2000/svg" xmlns:xlink="http://www.w3.org/1999/xlink" version="1.2" baseProfile="tiny">
<title>exercises_scores (59)</title>
<desc>Generated by MuseScore 3.6.0</desc>
<polyline class="StaffLines" fill="none" stroke="#000000" stroke-width="2.75" stroke-linejoin="bevel" points="247.099,653.098 2764.63,653.098"/>
<polyline class="StaffLines" fill="none" stroke="#000000" stroke-width="2.75" stroke-linejoin="bevel" points="247.099,678.1 2764.63,678.1"/>
<polyline class="StaffLines" fill="none" stroke="#000000" stroke-width="2.75" stroke-linejoin="bevel" points="247.099,703.102 2764.63,703.102"/>
<polyline class="StaffLines" fill="none" stroke="#000000" stroke-width="2.75" stroke-linejoin="bevel" points="247.099,728.103 2764.63,728.103"/>
<polyline class="StaffLines" fill="none" stroke="#000000" stroke-width="2.75" stroke-linejoin="bevel" points="247.099,753.105 2764.63,753.105"/>
<polyline class="StaffLines" fill="none" stroke="#000000" stroke-width="2.75" stroke-linejoin="bevel" points="247.099,915.615 2764.63,915.615"/>
<polyline class="StaffLines" fill="none" stroke="#000000" stroke-width="2.75" stroke-linejoin="bevel" points="247.099,940.617 2764.63,940.617"/>
<polyline class="StaffLines" fill="none" stroke="#000000" stroke-width="2.75" stroke-linejoin="bevel" points="247.099,965.618 2764.63,965.618"/>
<polyline class="StaffLines" fill="none" stroke="#000000" stroke-width="2.75" stroke-linejoin="bevel" points="247.099,990.62 2764.63,990.62"/>
<polyline class="StaffLines" fill="none" stroke="#000000" stroke-width="2.75" stroke-linejoin="bevel" points="247.099,1015.62 2764.63,1015.62"/>
<polyline class="StaffLines" fill="none" stroke="#000000" stroke-width="2.75" stroke-linejoin="bevel" points="247.099,1265.64 2764.63,1265.64"/>
<polyline class="StaffLines" fill="none" stroke="#000000" stroke-width="2.75" stroke-linejoin="bevel" points="247.099,1290.64 2764.63,1290.64"/>
<polyline class="StaffLines" fill="none" stroke="#000000" stroke-width="2.75" stroke-linejoin="bevel" points="247.099,1315.64 2764.63,1315.64"/>
<polyline class="StaffLines" fill="none" stroke="#000000" stroke-width="2.75" stroke-linejoin="bevel" points="247.099,1340.64 2764.63,1340.64"/>
<polyline class="StaffLines" fill="none" stroke="#000000" stroke-width="2.75" stroke-linejoin="bevel" points="247.099,1365.64 2764.63,1365.64"/>
<polyline class="StaffLines" fill="none" stroke="#000000" stroke-width="2.75" stroke-linejoin="bevel" points="247.099,1528.15 2764.63,1528.15"/>
<polyline class="StaffLines" fill="none" stroke="#000000" stroke-width="2.75" stroke-linejoin="bevel" points="247.099,1553.16 2764.63,1553.16"/>
<polyline class="StaffLines" fill="none" stroke="#000000" stroke-width="2.75" stroke-linejoin="bevel" points="247.099,1578.16 2764.63,1578.16"/>
<polyline class="StaffLines" fill="none" stroke="#000000" stroke-width="2.75" stroke-linejoin="bevel" points="247.099,1603.16 2764.63,1603.16"/>
<polyline class="StaffLines" fill="none" stroke="#000000" stroke-width="2.75" stroke-linejoin="bevel" points="247.099,1628.16 2764.63,1628.16"/>
<path class="Text" d="M212.602,213.497 L212.602,216.317 L213.682,216.317 C217.102,216.377 218.242,216.557 218.722,217.157 C219.082,217.697 219.082,217.817 219.082,220.877 L219.082,249.437 C219.082,252.497 219.082,252.617 218.722,253.157 C218.242,253.757 217.102,253.997 213.682,253.997 L212.602,253.997 L212.602,256.817 L234.382,256.817 C244.762,256.817 251.002,252.437 251.002,245.057 C251.002,239.057 247.222,235.637 239.002,234.197 C241.882,233.597 243.202,233.057 244.762,231.917 C247.222,230.057 248.722,227.117 248.722,224.117 C248.722,220.217 246.322,216.437 242.842,214.937 C240.682,213.977 237.682,213.497 234.142,213.497 L212.602,213.497 M225.802,232.997 L225.802,219.317 C225.802,216.977 226.582,216.377 229.762,216.317 L232.162,216.317 C234.922,216.317 237.202,216.797 238.462,217.577 C240.622,218.897 241.762,221.417 241.762,224.777 C241.762,230.717 238.882,232.997 231.142,232.997 L225.802,232.997 M225.802,235.817 L231.082,235.817 C240.262,235.817 243.622,238.277 243.622,244.877 C243.622,248.717 242.302,251.477 239.962,252.617 C238.102,253.577 235.582,253.997 231.802,253.997 L229.282,253.997 C226.282,253.997 225.682,253.397 225.802,250.217 L225.802,235.817 M265.994,228.857 L255.374,229.517 L255.374,232.097 L257.834,232.097 C260.114,232.157 260.414,232.517 260.414,235.097 L260.414,249.437 L260.414,252.257 C260.354,253.157 260.294,253.517 260.054,253.817 C259.634,254.357 258.434,254.597 255.854,254.657 L255.614,254.657 L255.614,256.817 L271.634,256.817 L271.634,254.657 L270.554,254.657 C266.534,254.537 265.994,254.237 265.994,252.077 L265.994,249.437 L265.994,248.837 C266.054,238.757 269.654,231.077 274.334,230.837 C273.494,231.797 273.254,232.397 273.254,233.537 C273.254,235.457 274.634,236.837 276.554,236.837 C278.774,236.837 280.214,235.217 280.214,232.817 C280.214,229.877 278.174,227.957 274.994,227.957 C271.214,227.957 267.974,230.957 265.994,236.297 L265.994,228.857 M295.562,227.957 C288.182,227.957 282.482,234.497 282.482,242.897 C282.482,251.117 288.242,257.717 295.442,257.717 C302.642,257.717 308.402,251.117 308.402,242.837 C308.402,234.617 302.642,227.957 295.562,227.957 M295.562,230.537 C299.762,230.537 302.102,234.917 302.102,242.837 C302.102,250.817 299.762,255.137 295.442,255.137 C291.122,255.137 288.782,250.817 288.782,242.897 C288.782,234.737 291.062,230.537 295.562,230.537 M322.382,242.297 L322.382,212.597 L311.282,213.257 L311.282,215.837 L314.162,215.837 C316.442,215.897 316.742,216.257 316.742,218.837 L316.742,249.437 L316.742,252.317 C316.682,253.157 316.622,253.517 316.382,253.817 C315.962,254.357 314.822,254.597 312.242,254.657 L312.002,254.657 L312.002,256.817 L327.182,256.817 L327.182,254.657 L326.942,254.657 C322.922,254.537 322.382,254.237 322.382,252.077 L322.382,249.437 L322.382,246.017 L326.042,242.537 L333.182,252.557 C333.482,253.037 333.602,253.337 333.602,253.577 C333.602,254.417 332.942,254.657 330.962,254.657 L329.822,254.657 L329.822,256.817 L345.662,256.817 L345.662,254.657 C342.302,254.357 341.102,253.637 338.642,250.517 L330.122,238.877 L332.822,236.237 C336.362,232.817 338.882,231.497 342.962,231.017 L342.962,228.857 L327.182,228.857 L327.182,231.017 L329.042,231.017 C330.962,231.017 331.862,231.377 331.862,232.157 C331.862,232.817 331.442,233.537 330.482,234.497 L322.382,242.297 M372.842,243.317 C372.902,234.317 367.802,227.957 360.482,227.957 C352.802,227.957 347.042,234.617 347.042,243.617 C347.042,252.077 352.502,257.717 360.602,257.717 C366.362,257.717 370.382,254.897 372.842,249.197 L370.742,248.057 C368.282,252.677 365.762,254.477 361.742,254.477 C358.682,254.477 356.462,253.217 354.902,250.517 C353.822,248.717 353.342,246.617 353.402,243.317 L372.842,243.317 M353.462,240.737 C353.462,238.877 353.702,237.557 354.302,235.877 C355.562,232.277 357.482,230.537 360.422,230.537 C364.022,230.537 366.422,233.717 366.422,238.577 C366.422,240.257 365.882,240.737 363.962,240.737 L353.462,240.737 M386.942,228.857 L376.562,229.517 L376.562,232.097 L378.722,232.097 C381.002,232.157 381.302,232.517 381.302,235.097 L381.302,249.437 L381.302,250.877 L381.302,252.257 C381.242,253.157 381.182,253.517 380.942,253.817 C380.522,254.357 379.382,254.597 376.802,254.657 L376.562,254.657 L376.562,256.817 L391.742,256.817 L391.742,254.657 L391.502,254.657 C387.482,254.537 386.942,254.237 386.942,252.077 L386.942,249.437 L386.942,243.197 C386.942,240.257 387.362,237.557 388.022,236.177 C389.282,233.477 391.982,231.617 394.562,231.617 C396.122,231.617 397.922,232.457 398.822,233.717 C399.722,235.037 400.142,236.837 400.142,239.717 L400.142,249.437 L400.142,252.257 C400.082,253.157 400.022,253.517 399.782,253.817 C399.362,254.357 398.162,254.597 395.582,254.657 L395.342,254.657 L395.342,256.817 L410.522,256.817 L410.522,254.657 L410.282,254.657 C406.322,254.537 405.782,254.237 405.782,252.077 L405.782,249.437 L405.782,240.017 C405.782,235.697 405.602,234.617 404.522,232.577 C403.022,229.697 400.022,227.957 396.422,227.957 C392.522,227.957 389.582,229.757 386.942,233.717 L386.942,228.857 M466.61,213.077 L464.33,213.077 L461.93,216.617 C457.55,213.437 455.33,212.597 451.19,212.597 C445.49,212.597 440.63,214.997 436.61,219.797 C432.77,224.357 430.97,229.397 430.97,235.577 C430.97,248.537 439.43,257.717 451.25,257.717 C460.85,257.717 466.97,252.077 468.35,241.997 L465.53,241.517 C463.91,250.457 459.35,254.897 451.97,254.897 C443.09,254.897 438.89,248.777 438.89,235.817 C438.89,228.977 439.79,224.477 441.83,220.877 C443.69,217.517 447.35,215.417 451.25,215.417 C455.45,215.417 459.17,217.637 461.45,221.477 C462.59,223.457 463.43,225.677 464.87,230.417 L467.51,230.417 L466.61,213.077 M483.583,212.597 L472.483,213.257 L472.483,215.837 L475.363,215.837 C477.643,215.897 477.943,216.257 477.943,218.837 L477.943,249.437 L477.943,250.877 L477.943,252.317 C477.883,253.157 477.823,253.517 477.583,253.817 C477.163,254.357 476.023,254.597 473.443,254.657 L473.203,254.657 L473.203,256.817 L488.383,256.817 L488.383,254.657 L488.143,254.657 C484.123,254.537 483.583,254.237 483.583,252.077 L483.583,249.437 L483.583,243.197 C483.583,240.257 484.003,237.557 484.663,236.177 C485.983,233.477 488.623,231.617 491.203,231.617 C492.763,231.617 494.563,232.517 495.403,233.717 C496.363,235.037 496.783,236.837 496.783,239.777 L496.783,249.437 L496.783,252.317 C496.723,253.157 496.663,253.517 496.423,253.817 C496.003,254.357 494.803,254.597 492.223,254.657 L491.983,254.657 L491.983,256.817 L507.163,256.817 L507.163,254.657 L506.923,254.657 C502.963,254.537 502.423,254.237 502.423,252.077 L502.423,249.437 L502.423,240.017 C502.423,235.697 502.243,234.617 501.163,232.577 C499.663,229.637 496.663,227.957 493.063,227.957 C489.163,227.957 486.283,229.697 483.583,233.717 L483.583,212.597 M523.359,227.957 C515.979,227.957 510.279,234.497 510.279,242.897 C510.279,251.117 516.039,257.717 523.239,257.717 C530.439,257.717 536.199,251.117 536.199,242.837 C536.199,234.617 530.439,227.957 523.359,227.957 M523.359,230.537 C527.559,230.537 529.899,234.917 529.899,242.837 C529.899,250.817 527.559,255.137 523.239,255.137 C518.919,255.137 516.579,250.817 516.579,242.897 C516.579,234.737 518.859,230.537 523.359,230.537 M550.119,228.857 L539.499,229.517 L539.499,232.097 L541.959,232.097 C544.239,232.157 544.539,232.517 544.539,235.097 L544.539,249.437 L544.539,252.257 C544.479,253.157 544.419,253.517 544.179,253.817 C543.759,254.357 542.559,254.597 539.979,254.657 L539.739,254.657 L539.739,256.817 L555.759,256.817 L555.759,254.657 L554.679,254.657 C550.659,254.537 550.119,254.237 550.119,252.077 L550.119,249.437 L550.119,248.837 C550.179,238.757 553.779,231.077 558.459,230.837 C557.619,231.797 557.379,232.397 557.379,233.537 C557.379,235.457 558.759,236.837 560.679,236.837 C562.899,236.837 564.339,235.217 564.339,232.817 C564.339,229.877 562.299,227.957 559.119,227.957 C555.339,227.957 552.099,230.957 550.119,236.297 L550.119,228.857 M587.18,257.237 L597.62,256.817 L597.62,254.237 L596.54,254.237 C593.12,254.057 592.82,253.697 592.82,249.857 L592.82,212.597 L581.06,213.257 L581.06,215.837 L584.6,215.837 C586.88,215.897 587.18,216.257 587.18,218.837 L587.18,232.397 C584.96,229.337 582.38,227.957 578.9,227.957 C572.12,227.957 566.96,234.497 566.96,243.137 C566.96,251.657 571.94,257.717 578.9,257.717 C582.68,257.717 585.26,256.097 587.18,252.497 L587.18,257.237 M580.1,231.197 C582.56,231.197 584.9,232.997 585.98,235.757 C586.76,237.557 587.12,240.017 587.12,242.957 C587.12,249.977 584.36,254.477 580.04,254.477 C575.78,254.477 573.26,250.517 573.26,243.857 C573.26,240.257 573.62,237.557 574.4,235.577 C575.42,232.877 577.64,231.197 580.1,231.197 M607.757,250.157 C605.657,250.157 603.977,251.837 603.977,253.877 C603.977,255.977 605.657,257.657 607.697,257.657 C609.797,257.657 611.477,255.977 611.477,253.877 C611.477,251.837 609.797,250.157 607.757,250.157 M607.757,228.437 C605.657,228.437 603.977,230.117 603.977,232.217 C603.977,234.257 605.657,235.937 607.697,235.937 C609.797,235.937 611.477,234.257 611.477,232.157 C611.477,230.117 609.797,228.437 607.757,228.437 M669.601,213.497 L633.901,213.497 L633.901,216.317 L634.981,216.317 C638.401,216.377 639.541,216.557 640.021,217.157 C640.381,217.697 640.381,217.817 640.381,220.877 L640.381,249.437 C640.381,252.497 640.381,252.617 640.021,253.157 C639.541,253.757 638.401,253.997 634.981,253.997 L633.901,253.997 L633.901,256.817 L654.481,256.817 L654.481,253.997 L652.501,253.997 C649.081,253.997 647.941,253.757 647.461,253.157 C647.101,252.617 647.101,252.437 647.101,249.437 L647.101,235.817 L648.301,235.817 C654.481,235.577 656.701,237.797 656.941,244.457 L659.761,244.457 L659.761,224.777 L656.941,224.777 C656.581,230.657 654.241,232.937 648.541,232.997 L647.101,232.997 L647.101,219.317 C647.041,216.797 647.641,216.377 650.881,216.317 L653.641,216.317 C663.481,216.257 665.941,218.477 667.801,228.797 L670.441,228.797 L669.601,213.497 M700.908,228.857 L690.228,229.517 L690.228,232.097 L692.688,232.097 C694.968,232.157 695.268,232.517 695.268,235.097 L695.268,249.437 L695.268,251.777 L695.268,252.257 C695.208,253.157 695.148,253.517 694.908,253.817 C694.488,254.357 693.348,254.597 690.768,254.657 L690.528,254.657 L690.528,256.817 L705.648,256.817 L705.648,254.657 L705.408,254.657 C701.448,254.537 700.908,254.237 700.908,252.017 L700.908,249.437 L700.908,240.917 C700.908,235.577 703.848,231.617 707.748,231.617 C711.168,231.617 712.908,234.077 712.908,238.937 L712.908,249.437 L712.908,252.317 C712.848,253.097 712.788,253.517 712.488,253.817 C712.128,254.357 710.928,254.597 708.348,254.657 L708.108,254.657 L708.108,256.817 L723.288,256.817 L723.288,254.657 L723.048,254.657 C719.088,254.537 718.548,254.237 718.548,252.077 L718.548,249.437 L718.548,241.457 C718.548,235.457 721.248,231.617 725.448,231.617 C728.868,231.617 730.548,234.197 730.548,239.597 L730.548,249.437 L730.548,252.257 C730.488,253.097 730.428,253.517 730.128,253.817 C729.768,254.357 728.568,254.597 725.988,254.657 L725.748,254.657 L725.748,256.817 L740.928,256.817 L740.928,254.657 L740.688,254.657 C736.728,254.537 736.188,254.237 736.188,252.017 L736.188,249.437 L736.188,238.397 C736.188,234.677 735.828,233.417 734.268,231.377 C732.528,229.157 730.068,227.957 727.188,227.957 C723.288,227.957 720.408,229.817 717.828,233.957 C716.808,230.357 713.568,227.957 709.548,227.957 C705.888,227.957 703.248,229.697 700.908,233.477 L700.908,228.857 M754.537,228.857 L743.257,229.517 L743.257,232.097 L746.317,232.097 C748.597,232.157 748.897,232.517 748.897,235.097 L748.897,249.437 L748.897,252.257 C748.837,253.157 748.777,253.517 748.537,253.817 C748.117,254.357 746.977,254.597 744.397,254.657 L743.977,254.657 L743.977,256.817 L759.517,256.817 L759.517,254.657 L759.097,254.657 C755.077,254.537 754.537,254.237 754.537,252.077 L754.537,249.437 L754.537,228.857 M751.717,213.917 C749.797,213.917 748.237,215.477 748.237,217.397 C748.237,219.317 749.797,220.877 751.657,220.877 C753.637,220.877 755.197,219.317 755.197,217.397 C755.197,215.477 753.637,213.917 751.717,213.917 M773.067,228.857 L762.687,229.517 L762.687,232.097 L764.847,232.097 C767.127,232.157 767.427,232.517 767.427,235.097 L767.427,249.437 L767.427,250.877 L767.427,252.257 C767.367,253.157 767.307,253.517 767.067,253.817 C766.647,254.357 765.507,254.597 762.927,254.657 L762.687,254.657 L762.687,256.817 L777.867,256.817 L777.867,254.657 L777.627,254.657 C773.607,254.537 773.067,254.237 773.067,252.077 L773.067,249.437 L773.067,243.197 C773.067,240.257 773.487,237.557 774.147,236.177 C775.407,233.477 778.107,231.617 780.687,231.617 C782.247,231.617 784.047,232.457 784.947,233.717 C785.847,235.037 786.267,236.837 786.267,239.717 L786.267,249.437 L786.267,252.257 C786.207,253.157 786.147,253.517 785.907,253.817 C785.487,254.357 784.287,254.597 781.707,254.657 L781.467,254.657 L781.467,256.817 L796.647,256.817 L796.647,254.657 L796.407,254.657 C792.447,254.537 791.907,254.237 791.907,252.077 L791.907,249.437 L791.907,240.017 C791.907,235.697 791.727,234.617 790.647,232.577 C789.147,229.697 786.147,227.957 782.547,227.957 C778.647,227.957 775.707,229.757 773.067,233.717 L773.067,228.857 M812.843,227.957 C805.463,227.957 799.763,234.497 799.763,242.897 C799.763,251.117 805.523,257.717 812.723,257.717 C819.923,257.717 825.683,251.117 825.683,242.837 C825.683,234.617 819.923,227.957 812.843,227.957 M812.843,230.537 C817.043,230.537 819.383,234.917 819.383,242.837 C819.383,250.817 817.043,255.137 812.723,255.137 C808.403,255.137 806.063,250.817 806.063,242.897 C806.063,234.737 808.343,230.537 812.843,230.537 M839.603,228.857 L828.983,229.517 L828.983,232.097 L831.443,232.097 C833.723,232.157 834.023,232.517 834.023,235.097 L834.023,249.437 L834.023,252.257 C833.963,253.157 833.903,253.517 833.663,253.817 C833.243,254.357 832.043,254.597 829.463,254.657 L829.223,254.657 L829.223,256.817 L845.243,256.817 L845.243,254.657 L844.163,254.657 C840.143,254.537 839.603,254.237 839.603,252.077 L839.603,249.437 L839.603,248.837 C839.663,238.757 843.263,231.077 847.943,230.837 C847.103,231.797 846.863,232.397 846.863,233.537 C846.863,235.457 848.243,236.837 850.163,236.837 C852.383,236.837 853.823,235.217 853.823,232.817 C853.823,229.877 851.783,227.957 848.603,227.957 C844.823,227.957 841.583,230.957 839.603,236.297 L839.603,228.857 "/>
<path class="TieSegment" stroke="#000000" stroke-width="1.75" stroke-linecap="round" stroke-linejoin="round" fill-rule="evenodd" d="M2599.35,934.366 C2632.41,905.743 2731.58,905.743 2764.63,934.366 C2731.58,912.744 2632.41,912.744 2599.35,934.366"/>
<path class="TieSegment" stroke="#000000" stroke-width="1.75" stroke-linecap="round" stroke-linejoin="round" fill-rule="evenodd" d="M335.596,1546.9 C352.122,1530.85 401.698,1530.85 418.224,1546.9 C401.698,1537.85 352.122,1537.85 335.596,1546.9"/>
<path class="TieSegment" stroke="#000000" stroke-width="1.75" stroke-linecap="round" stroke-linejoin="round" fill-rule="evenodd" d="M2599.35,584.344 C2632.41,555.721 2731.58,555.721 2764.63,584.344 C2731.58,562.722 2632.41,562.722 2599.35,584.344"/>
<path class="TieSegment" stroke="#000000" stroke-width="1.75" stroke-linecap="round" stroke-linejoin="round" fill-rule="evenodd" d="M335.596,1196.88 C352.122,1180.82 401.698,1180.82 418.224,1196.88 C401.698,1187.82 352.122,1187.82 335.596,1196.88"/>
<polyline class="BarLine" stroke="#000000" stroke-width="4.50" stroke-linejoin="bevel" points="249.349,914.24 249.349,1017"/>
<polyline class="BarLine" stroke="#000000" stroke-width="4.50" stroke-linejoin="bevel" points="972.766,914.24 972.766,1017"/>
<polyline class="BarLine" stroke="#000000" stroke-width="4.50" stroke-linejoin="bevel" points="1524.35,914.24 1524.35,1017"/>
<polyline class="BarLine" stroke="#000000" stroke-width="4.50" stroke-linejoin="bevel" points="2179.68,914.24 2179.68,1017"/>
<polyline class="BarLine" stroke="#000000" stroke-width="4.50" stroke-linejoin="bevel" points="2762.38,914.24 2762.38,1017"/>
<polyline class="BarLine" stroke="#000000" stroke-width="4.50" stroke-linejoin="bevel" points="249.349,1526.78 249.349,1629.54"/>
<polyline class="BarLine" stroke="#000000" stroke-width="4.50" stroke-linejoin="bevel" points="950.236,1526.78 950.236,1629.54"/>
<polyline class="BarLine" stroke="#000000" stroke-width="4.50" stroke-linejoin="bevel" points="1502.26,1526.78 1502.26,1629.54"/>
<polyline class="BarLine" stroke="#000000" stroke-width="4.50" stroke-linejoin="bevel" points="2080.4,1526.78 2080.4,1629.54"/>
<polyline class="BarLine" stroke="#000000" stroke-width="4.50" stroke-linejoin="bevel" points="2734.88,1526.78 2734.88,1629.54"/>
<polyline class="BarLine" stroke="#000000" stroke-width="13.75" stroke-linejoin="bevel" points="2757.76,1526.78 2757.76,1629.54"/>
<polyline class="BarLine" stroke="#000000" stroke-width="4.50" stroke-linejoin="bevel" points="249.349,651.723 249.349,915.615"/>
<polyline class="BarLine" stroke="#000000" stroke-width="4.50" stroke-linejoin="bevel" points="972.766,651.723 972.766,915.615"/>
<polyline class="BarLine" stroke="#000000" stroke-width="4.50" stroke-linejoin="bevel" points="1524.35,651.723 1524.35,915.615"/>
<polyline class="BarLine" stroke="#000000" stroke-width="4.50" stroke-linejoin="bevel" points="2179.68,651.723 2179.68,915.615"/>
<polyline class="BarLine" stroke="#000000" stroke-width="4.50" stroke-linejoin="bevel" points="2762.38,651.723 2762.38,915.615"/>
<polyline class="BarLine" stroke="#000000" stroke-width="4.50" stroke-linejoin="bevel" points="249.349,1264.26 249.349,1528.15"/>
<polyline class="BarLine" stroke="#000000" stroke-width="4.50" stroke-linejoin="bevel" points="950.236,1264.26 950.236,1528.15"/>
<polyline class="BarLine" stroke="#000000" stroke-width="4.50" stroke-linejoin="bevel" points="1502.26,1264.26 1502.26,1528.15"/>
<polyline class="BarLine" stroke="#000000" stroke-width="4.50" stroke-linejoin="bevel" points="2080.4,1264.26 2080.4,1528.15"/>
<polyline class="BarLine" stroke="#000000" stroke-width="4.50" stroke-linejoin="bevel" points="2734.88,1264.26 2734.88,1528.15"/>
<polyline class="BarLine" stroke="#000000" stroke-width="13.75" stroke-linejoin="bevel" points="2757.76,1264.26 2757.76,1528.15"/>
<path class="Accidental" d="M620.392,907.715 C619.792,903.815 617.392,900.115 612.292,900.115 C607.292,900.115 604.392,903.215 603.892,903.815 L604.292,871.715 C604.292,870.915 603.692,870.315 602.892,870.315 L601.692,870.315 C600.892,870.315 600.292,870.915 600.292,871.715 L600.792,931.815 C600.792,932.615 601.392,933.215 602.192,933.215 C602.392,933.215 602.792,933.115 602.992,933.015 C603.392,932.815 609.892,929.615 615.292,923.515 C619.092,919.215 620.592,914.315 620.592,910.215 C620.592,909.315 620.492,908.515 620.392,907.715 M613.492,911.615 C613.492,913.115 613.092,917.715 610.592,921.515 C608.892,924.115 605.492,926.815 603.592,928.315 L603.892,908.815 C604.092,907.915 605.592,905.015 609.592,905.015 C613.192,905.015 613.492,908.415 613.492,910.515 L613.492,911.615 "/>
<path class="Accidental" d="M1016.87,907.715 C1016.27,903.815 1013.87,900.115 1008.77,900.115 C1003.77,900.115 1000.87,903.215 1000.37,903.815 L1000.77,871.715 C1000.77,870.915 1000.17,870.315 999.367,870.315 L998.167,870.315 C997.367,870.315 996.767,870.915 996.767,871.715 L997.267,931.815 C997.267,932.615 997.867,933.215 998.667,933.215 C998.867,933.215 999.267,933.115 999.467,933.015 C999.867,932.815 1006.37,929.615 1011.77,923.515 C1015.57,919.215 1017.07,914.315 1017.07,910.215 C1017.07,909.315 1016.97,908.515 1016.87,907.715 M1009.97,911.615 C1009.97,913.115 1009.57,917.715 1007.07,921.515 C1005.37,924.115 1001.97,926.815 1000.07,928.315 L1000.37,908.815 C1000.57,907.915 1002.07,905.015 1006.07,905.015 C1009.67,905.015 1009.97,908.415 1009.97,910.515 L1009.97,911.615 "/>
<path class="Accidental" d="M1995.79,970.219 C1995.19,966.319 1992.79,962.619 1987.69,962.619 C1982.69,962.619 1979.79,965.719 1979.29,966.319 L1979.69,934.219 C1979.69,933.419 1979.09,932.819 1978.29,932.819 L1977.09,932.819 C1976.29,932.819 1975.69,933.419 1975.69,934.219 L1976.19,994.319 C1976.19,995.119 1976.79,995.719 1977.59,995.719 C1977.79,995.719 1978.19,995.619 1978.39,995.519 C1978.79,995.319 1985.29,992.119 1990.69,986.019 C1994.49,981.719 1995.99,976.819 1995.99,972.719 C1995.99,971.819 1995.89,971.019 1995.79,970.219 M1988.89,974.119 C1988.89,975.619 1988.49,980.219 1985.99,984.019 C1984.29,986.619 1980.89,989.319 1978.99,990.819 L1979.29,971.319 C1979.49,970.419 1980.99,967.519 1984.99,967.519 C1988.59,967.519 1988.89,970.919 1988.89,973.019 L1988.89,974.119 "/>
<path class="Accidental" d="M2389.88,970.219 C2389.28,966.319 2386.88,962.619 2381.78,962.619 C2376.78,962.619 2373.88,965.719 2373.38,966.319 L2373.78,934.219 C2373.78,933.419 2373.18,932.819 2372.38,932.819 L2371.18,932.819 C2370.38,932.819 2369.78,933.419 2369.78,934.219 L2370.28,994.319 C2370.28,995.119 2370.88,995.719 2371.68,995.719 C2371.88,995.719 2372.28,995.619 2372.48,995.519 C2372.88,995.319 2379.38,992.119 2384.78,986.019 C2388.58,981.719 2390.08,976.819 2390.08,972.719 C2390.08,971.819 2389.98,971.019 2389.88,970.219 M2382.98,974.119 C2382.98,975.619 2382.58,980.219 2380.08,984.019 C2378.38,986.619 2374.98,989.319 2373.08,990.819 L2373.38,971.319 C2373.58,970.419 2375.08,967.519 2379.08,967.519 C2382.68,967.519 2382.98,970.919 2382.98,973.019 L2382.98,974.119 "/>
<path class="Accidental" d="M580.781,1582.76 C580.181,1578.86 577.781,1575.16 572.681,1575.16 C567.681,1575.16 564.781,1578.26 564.281,1578.86 L564.681,1546.76 C564.681,1545.96 564.081,1545.36 563.281,1545.36 L562.081,1545.36 C561.281,1545.36 560.681,1545.96 560.681,1546.76 L561.181,1606.86 C561.181,1607.66 561.781,1608.26 562.581,1608.26 C562.781,1608.26 563.181,1608.16 563.381,1608.06 C563.781,1607.86 570.281,1604.66 575.681,1598.56 C579.481,1594.26 580.981,1589.36 580.981,1585.26 C580.981,1584.36 580.881,1583.56 580.781,1582.76 M573.881,1586.66 C573.881,1588.16 573.481,1592.76 570.981,1596.56 C569.281,1599.16 565.881,1601.86 563.981,1603.36 L564.281,1583.86 C564.481,1582.96 565.981,1580.06 569.981,1580.06 C573.581,1580.06 573.881,1583.46 573.881,1585.56 L573.881,1586.66 "/>
<path class="Accidental" d="M1003.09,1582.76 C1002.49,1578.86 1000.09,1575.16 994.988,1575.16 C989.988,1575.16 987.088,1578.26 986.588,1578.86 L986.988,1546.76 C986.988,1545.96 986.388,1545.36 985.588,1545.36 L984.388,1545.36 C983.588,1545.36 982.988,1545.96 982.988,1546.76 L983.488,1606.86 C983.488,1607.66 984.088,1608.26 984.888,1608.26 C985.088,1608.26 985.488,1608.16 985.688,1608.06 C986.088,1607.86 992.588,1604.66 997.988,1598.56 C1001.79,1594.26 1003.29,1589.36 1003.29,1585.26 C1003.29,1584.36 1003.19,1583.56 1003.09,1582.76 M996.188,1586.66 C996.188,1588.16 995.788,1592.76 993.288,1596.56 C991.588,1599.16 988.188,1601.86 986.288,1603.36 L986.588,1583.86 C986.788,1582.96 988.288,1580.06 992.288,1580.06 C995.888,1580.06 996.188,1583.46 996.188,1585.56 L996.188,1586.66 "/>
<path class="Accidental" d="M1882.57,1670.26 C1881.97,1666.36 1879.57,1662.66 1874.47,1662.66 C1869.47,1662.66 1866.57,1665.76 1866.07,1666.36 L1866.47,1634.26 C1866.47,1633.46 1865.87,1632.86 1865.07,1632.86 L1863.87,1632.86 C1863.07,1632.86 1862.47,1633.46 1862.47,1634.26 L1862.97,1694.36 C1862.97,1695.16 1863.57,1695.76 1864.37,1695.76 C1864.57,1695.76 1864.97,1695.66 1865.17,1695.56 C1865.57,1695.36 1872.07,1692.16 1877.47,1686.06 C1881.27,1681.76 1882.77,1676.86 1882.77,1672.76 C1882.77,1671.86 1882.67,1671.06 1882.57,1670.26 M1875.67,1674.16 C1875.67,1675.66 1875.27,1680.26 1872.77,1684.06 C1871.07,1686.66 1867.67,1689.36 1865.77,1690.86 L1866.07,1671.36 C1866.27,1670.46 1867.77,1667.56 1871.77,1667.56 C1875.37,1667.56 1875.67,1670.96 1875.67,1673.06 L1875.67,1674.16 "/>
<path class="Accidental" d="M2372.13,1520.25 C2371.53,1516.35 2369.13,1512.65 2364.03,1512.65 C2359.03,1512.65 2356.13,1515.75 2355.63,1516.35 L2356.03,1484.25 C2356.03,1483.45 2355.43,1482.85 2354.63,1482.85 L2353.43,1482.85 C2352.63,1482.85 2352.03,1483.45 2352.03,1484.25 L2352.53,1544.35 C2352.53,1545.15 2353.13,1545.75 2353.93,1545.75 C2354.13,1545.75 2354.53,1545.65 2354.73,1545.55 C2355.13,1545.35 2361.63,1542.15 2367.03,1536.05 C2370.83,1531.75 2372.33,1526.85 2372.33,1522.75 C2372.33,1521.85 2372.23,1521.05 2372.13,1520.25 M2365.23,1524.15 C2365.23,1525.65 2364.83,1530.25 2362.33,1534.05 C2360.63,1536.65 2357.23,1539.35 2355.33,1540.85 L2355.63,1521.35 C2355.83,1520.45 2357.33,1517.55 2361.33,1517.55 C2364.93,1517.55 2365.23,1520.95 2365.23,1523.05 L2365.23,1524.15 "/>
<path class="Accidental" d="M620.392,707.702 C619.792,703.802 617.392,700.102 612.292,700.102 C607.292,700.102 604.392,703.202 603.892,703.802 L604.292,671.702 C604.292,670.902 603.692,670.302 602.892,670.302 L601.692,670.302 C600.892,670.302 600.292,670.902 600.292,671.702 L600.792,731.802 C600.792,732.602 601.392,733.202 602.192,733.202 C602.392,733.202 602.792,733.102 602.992,733.002 C603.392,732.802 609.892,729.602 615.292,723.502 C619.092,719.202 620.592,714.302 620.592,710.202 C620.592,709.302 620.492,708.502 620.392,707.702 M613.492,711.602 C613.492,713.102 613.092,717.702 610.592,721.502 C608.892,724.102 605.492,726.802 603.592,728.302 L603.892,708.802 C604.092,707.902 605.592,705.002 609.592,705.002 C613.192,705.002 613.492,708.402 613.492,710.502 L613.492,711.602 "/>
<path class="Accidental" d="M1016.87,707.702 C1016.27,703.802 1013.87,700.102 1008.77,700.102 C1003.77,700.102 1000.87,703.202 1000.37,703.802 L1000.77,671.702 C1000.77,670.902 1000.17,670.302 999.367,670.302 L998.167,670.302 C997.367,670.302 996.767,670.902 996.767,671.702 L997.267,731.802 C997.267,732.602 997.867,733.202 998.667,733.202 C998.867,733.202 999.267,733.102 999.467,733.002 C999.867,732.802 1006.37,729.602 1011.77,723.502 C1015.57,719.202 1017.07,714.302 1017.07,710.202 C1017.07,709.302 1016.97,708.502 1016.87,707.702 M1009.97,711.602 C1009.97,713.102 1009.57,717.702 1007.07,721.502 C1005.37,724.102 1001.97,726.802 1000.07,728.302 L1000.37,708.802 C1000.57,707.902 1002.07,705.002 1006.07,705.002 C1009.67,705.002 1009.97,708.402 1009.97,710.502 L1009.97,711.602 "/>
<path class="Accidental" d="M1987.03,620.197 C1986.43,616.297 1984.03,612.597 1978.93,612.597 C1973.93,612.597 1971.03,615.697 1970.53,616.297 L1970.93,584.197 C1970.93,583.397 1970.33,582.797 1969.53,582.797 L1968.33,582.797 C1967.53,582.797 1966.93,583.397 1966.93,584.197 L1967.43,644.297 C1967.43,645.097 1968.03,645.697 1968.83,645.697 C1969.03,645.697 1969.43,645.597 1969.63,645.497 C1970.03,645.297 1976.53,642.097 1981.93,635.997 C1985.73,631.697 1987.23,626.797 1987.23,622.697 C1987.23,621.797 1987.13,620.997 1987.03,620.197 M1980.13,624.097 C1980.13,625.597 1979.73,630.197 1977.23,633.997 C1975.53,636.597 1972.13,639.297 1970.23,640.797 L1970.53,621.297 C1970.73,620.397 1972.23,617.497 1976.23,617.497 C1979.83,617.497 1980.13,620.897 1980.13,622.997 L1980.13,624.097 "/>
<path class="Accidental" d="M2381.13,620.197 C2380.53,616.297 2378.13,612.597 2373.03,612.597 C2368.03,612.597 2365.13,615.697 2364.63,616.297 L2365.03,584.197 C2365.03,583.397 2364.43,582.797 2363.63,582.797 L2362.43,582.797 C2361.63,582.797 2361.03,583.397 2361.03,584.197 L2361.53,644.297 C2361.53,645.097 2362.13,645.697 2362.93,645.697 C2363.13,645.697 2363.53,645.597 2363.73,645.497 C2364.13,645.297 2370.63,642.097 2376.03,635.997 C2379.83,631.697 2381.33,626.797 2381.33,622.697 C2381.33,621.797 2381.23,620.997 2381.13,620.197 M2374.23,624.097 C2374.23,625.597 2373.83,630.197 2371.33,633.997 C2369.63,636.597 2366.23,639.297 2364.33,640.797 L2364.63,621.297 C2364.83,620.397 2366.33,617.497 2370.33,617.497 C2373.93,617.497 2374.23,620.897 2374.23,622.997 L2374.23,624.097 "/>
<path class="Accidental" d="M572.03,1232.74 C571.43,1228.84 569.03,1225.14 563.93,1225.14 C558.93,1225.14 556.03,1228.24 555.53,1228.84 L555.93,1196.74 C555.93,1195.94 555.33,1195.34 554.53,1195.34 L553.33,1195.34 C552.53,1195.34 551.93,1195.94 551.93,1196.74 L552.43,1256.84 C552.43,1257.64 553.03,1258.24 553.83,1258.24 C554.03,1258.24 554.43,1258.14 554.63,1258.04 C555.03,1257.84 561.53,1254.64 566.93,1248.54 C570.73,1244.24 572.23,1239.34 572.23,1235.24 C572.23,1234.34 572.13,1233.54 572.03,1232.74 M565.13,1236.64 C565.13,1238.14 564.73,1242.74 562.23,1246.54 C560.53,1249.14 557.13,1251.84 555.23,1253.34 L555.53,1233.84 C555.73,1232.94 557.23,1230.04 561.23,1230.04 C564.83,1230.04 565.13,1233.44 565.13,1235.54 L565.13,1236.64 "/>
<path class="Accidental" d="M994.337,1232.74 C993.737,1228.84 991.337,1225.14 986.237,1225.14 C981.237,1225.14 978.337,1228.24 977.837,1228.84 L978.237,1196.74 C978.237,1195.94 977.637,1195.34 976.837,1195.34 L975.637,1195.34 C974.837,1195.34 974.237,1195.94 974.237,1196.74 L974.737,1256.84 C974.737,1257.64 975.337,1258.24 976.137,1258.24 C976.337,1258.24 976.737,1258.14 976.937,1258.04 C977.337,1257.84 983.837,1254.64 989.237,1248.54 C993.037,1244.24 994.537,1239.34 994.537,1235.24 C994.537,1234.34 994.437,1233.54 994.337,1232.74 M987.437,1236.64 C987.437,1238.14 987.037,1242.74 984.537,1246.54 C982.837,1249.14 979.437,1251.84 977.537,1253.34 L977.837,1233.84 C978.037,1232.94 979.537,1230.04 983.537,1230.04 C987.137,1230.04 987.437,1233.44 987.437,1235.54 L987.437,1236.64 "/>
<path class="Accidental" d="M1891.32,1320.24 C1890.72,1316.34 1888.32,1312.64 1883.22,1312.64 C1878.22,1312.64 1875.32,1315.74 1874.82,1316.34 L1875.22,1284.24 C1875.22,1283.44 1874.62,1282.84 1873.82,1282.84 L1872.62,1282.84 C1871.82,1282.84 1871.22,1283.44 1871.22,1284.24 L1871.72,1344.34 C1871.72,1345.14 1872.32,1345.74 1873.12,1345.74 C1873.32,1345.74 1873.72,1345.64 1873.92,1345.54 C1874.32,1345.34 1880.82,1342.14 1886.22,1336.04 C1890.02,1331.74 1891.52,1326.84 1891.52,1322.74 C1891.52,1321.84 1891.42,1321.04 1891.32,1320.24 M1884.42,1324.14 C1884.42,1325.64 1884.02,1330.24 1881.52,1334.04 C1879.82,1336.64 1876.42,1339.34 1874.52,1340.84 L1874.82,1321.34 C1875.02,1320.44 1876.52,1317.54 1880.52,1317.54 C1884.12,1317.54 1884.42,1320.94 1884.42,1323.04 L1884.42,1324.14 "/>
<path class="Accidental" d="M2372.13,1320.24 C2371.53,1316.34 2369.13,1312.64 2364.03,1312.64 C2359.03,1312.64 2356.13,1315.74 2355.63,1316.34 L2356.03,1284.24 C2356.03,1283.44 2355.43,1282.84 2354.63,1282.84 L2353.43,1282.84 C2352.63,1282.84 2352.03,1283.44 2352.03,1284.24 L2352.53,1344.34 C2352.53,1345.14 2353.13,1345.74 2353.93,1345.74 C2354.13,1345.74 2354.53,1345.64 2354.73,1345.54 C2355.13,1345.34 2361.63,1342.14 2367.03,1336.04 C2370.83,1331.74 2372.33,1326.84 2372.33,1322.74 C2372.33,1321.84 2372.23,1321.04 2372.13,1320.24 M2365.23,1324.14 C2365.23,1325.64 2364.83,1330.24 2362.33,1334.04 C2360.63,1336.64 2357.23,1339.34 2355.33,1340.84 L2355.63,1321.34 C2355.83,1320.44 2357.33,1317.54 2361.33,1317.54 C2364.93,1317.54 2365.23,1320.94 2365.23,1323.04 L2365.23,1324.14 "/>
<polyline class="LedgerLine" stroke="#000000" stroke-width="4.00" stroke-linejoin="bevel" points="789.927,890.613 839.923,890.613"/>
<polyline class="LedgerLine" stroke="#000000" stroke-width="4.00" stroke-linejoin="bevel" points="1180.83,890.613 1230.82,890.613"/>
<polyline class="LedgerLine" stroke="#000000" stroke-width="4.00" stroke-linejoin="bevel" points="1347.09,890.613 1397.08,890.613"/>
<polyline class="LedgerLine" stroke="#000000" stroke-width="4.00" stroke-linejoin="bevel" points="1347.09,865.612 1397.08,865.612"/>
<polyline class="LedgerLine" stroke="#000000" stroke-width="4.00" stroke-linejoin="bevel" points="1643.1,1040.62 1693.09,1040.62"/>
<polyline class="LedgerLine" stroke="#000000" stroke-width="4.00" stroke-linejoin="bevel" points="1327.77,1653.16 1377.77,1653.16"/>
<polyline class="LedgerLine" stroke="#000000" stroke-width="4.00" stroke-linejoin="bevel" points="1708.64,1653.16 1758.64,1653.16"/>
<polyline class="LedgerLine" stroke="#000000" stroke-width="4.00" stroke-linejoin="bevel" points="1889.02,1678.16 1939.02,1678.16"/>
<polyline class="LedgerLine" stroke="#000000" stroke-width="4.00" stroke-linejoin="bevel" points="1889.02,1653.16 1939.02,1653.16"/>
<polyline class="LedgerLine" stroke="#000000" stroke-width="4.00" stroke-linejoin="bevel" points="2192.81,1503.15 2242.8,1503.15"/>
<polyline class="LedgerLine" stroke="#000000" stroke-width="4.00" stroke-linejoin="bevel" points="1993.48,628.097 2043.48,628.097"/>
<polyline class="LedgerLine" stroke="#000000" stroke-width="4.00" stroke-linejoin="bevel" points="2387.58,628.097 2437.57,628.097"/>
<polyline class="LedgerLine" stroke="#000000" stroke-width="4.00" stroke-linejoin="bevel" points="2569.48,628.097 2619.47,628.097"/>
<polyline class="LedgerLine" stroke="#000000" stroke-width="4.00" stroke-linejoin="bevel" points="2569.48,603.095 2619.47,603.095"/>
<polyline class="LedgerLine" stroke="#000000" stroke-width="4.00" stroke-linejoin="bevel" points="398.1,1240.64 448.096,1240.64"/>
<polyline class="LedgerLine" stroke="#000000" stroke-width="4.00" stroke-linejoin="bevel" points="398.1,1215.63 448.096,1215.63"/>
<polyline class="LedgerLine" stroke="#000000" stroke-width="4.00" stroke-linejoin="bevel" points="578.479,1240.64 628.474,1240.64"/>
<polyline class="LedgerLine" stroke="#000000" stroke-width="4.00" stroke-linejoin="bevel" points="1000.79,1240.64 1050.78,1240.64"/>
<polyline class="Stem" stroke="#000000" stroke-width="2.75" stroke-linejoin="bevel" points="456.377,944.137 456.377,1025"/>
<polyline class="Stem" stroke="#000000" stroke-width="2.75" stroke-linejoin="bevel" points="628.215,919.135 628.215,1003.12"/>
<polyline class="Stem" stroke="#000000" stroke-width="2.75" stroke-linejoin="bevel" points="800.053,894.134 800.053,978.119"/>
<polyline class="Stem" stroke="#000000" stroke-width="2.75" stroke-linejoin="bevel" points="1024.69,919.135 1024.69,1003.12"/>
<polyline class="Stem" stroke="#000000" stroke-width="2.75" stroke-linejoin="bevel" points="1190.95,894.134 1190.95,978.119"/>
<polyline class="Stem" stroke="#000000" stroke-width="2.75" stroke-linejoin="bevel" points="1357.21,856.631 1357.21,965.618"/>
<polyline class="Stem" stroke="#000000" stroke-width="2.75" stroke-linejoin="bevel" points="1682.97,1037.26 1682.97,953.117"/>
<polyline class="Stem" stroke="#000000" stroke-width="2.75" stroke-linejoin="bevel" points="1858.16,999.76 1858.16,915.615"/>
<polyline class="Stem" stroke="#000000" stroke-width="2.75" stroke-linejoin="bevel" points="2033.35,974.759 2033.35,896.864"/>
<polyline class="Stem" stroke="#000000" stroke-width="2.75" stroke-linejoin="bevel" points="2245.55,999.76 2245.55,915.615"/>
<polyline class="Stem" stroke="#000000" stroke-width="2.75" stroke-linejoin="bevel" points="2427.45,974.759 2427.45,896.864"/>
<polyline class="Stem" stroke="#000000" stroke-width="2.75" stroke-linejoin="bevel" points="2579.61,956.638 2579.61,1034.37"/>
<polyline class="Stem" stroke="#000000" stroke-width="2.75" stroke-linejoin="bevel" points="408.226,1569.18 408.226,1646.91"/>
<polyline class="Stem" stroke="#000000" stroke-width="2.75" stroke-linejoin="bevel" points="618.348,1587.3 618.348,1509.4"/>
<polyline class="Stem" stroke="#000000" stroke-width="2.75" stroke-linejoin="bevel" points="798.727,1612.3 798.727,1528.15"/>
<polyline class="Stem" stroke="#000000" stroke-width="2.75" stroke-linejoin="bevel" points="1040.66,1587.3 1040.66,1509.4"/>
<polyline class="Stem" stroke="#000000" stroke-width="2.75" stroke-linejoin="bevel" points="1204.15,1612.3 1204.15,1528.15"/>
<polyline class="Stem" stroke="#000000" stroke-width="2.75" stroke-linejoin="bevel" points="1367.64,1649.8 1367.64,1565.66"/>
<polyline class="Stem" stroke="#000000" stroke-width="2.75" stroke-linejoin="bevel" points="1568.14,1612.3 1568.14,1528.15"/>
<polyline class="Stem" stroke="#000000" stroke-width="2.75" stroke-linejoin="bevel" points="1748.51,1649.8 1748.51,1565.66"/>
<polyline class="Stem" stroke="#000000" stroke-width="2.75" stroke-linejoin="bevel" points="1928.89,1674.8 1928.89,1578.16"/>
<polyline class="Stem" stroke="#000000" stroke-width="2.75" stroke-linejoin="bevel" points="2202.93,1506.67 2202.93,1590.66"/>
<polyline class="Stem" stroke="#000000" stroke-width="2.75" stroke-linejoin="bevel" points="2379.96,1531.67 2379.96,1615.66"/>
<polyline class="Stem" stroke="#000000" stroke-width="2.75" stroke-linejoin="bevel" points="2556.98,1556.68 2556.98,1637.54"/>
<polyline class="Stem" stroke="#000000" stroke-width="2.75" stroke-linejoin="bevel" points="486.121,737.244 486.121,653.098"/>
<polyline class="Stem" stroke="#000000" stroke-width="2.75" stroke-linejoin="bevel" points="657.959,712.242 657.959,634.347"/>
<polyline class="Stem" stroke="#000000" stroke-width="2.75" stroke-linejoin="bevel" points="800.053,694.121 800.053,771.856"/>
<polyline class="Stem" stroke="#000000" stroke-width="2.75" stroke-linejoin="bevel" points="1054.43,712.242 1054.43,634.347"/>
<polyline class="Stem" stroke="#000000" stroke-width="2.75" stroke-linejoin="bevel" points="1190.95,694.121 1190.95,771.856"/>
<polyline class="Stem" stroke="#000000" stroke-width="2.75" stroke-linejoin="bevel" points="1357.21,656.619 1357.21,740.604"/>
<polyline class="Stem" stroke="#000000" stroke-width="2.75" stroke-linejoin="bevel" points="1653.22,694.121 1653.22,771.856"/>
<polyline class="Stem" stroke="#000000" stroke-width="2.75" stroke-linejoin="bevel" points="1828.42,656.619 1828.42,740.604"/>
<polyline class="Stem" stroke="#000000" stroke-width="2.75" stroke-linejoin="bevel" points="2003.61,631.617 2003.61,715.602"/>
<polyline class="Stem" stroke="#000000" stroke-width="2.75" stroke-linejoin="bevel" points="2215.8,656.619 2215.8,740.604"/>
<polyline class="Stem" stroke="#000000" stroke-width="2.75" stroke-linejoin="bevel" points="2397.7,631.617 2397.7,715.602"/>
<polyline class="Stem" stroke="#000000" stroke-width="2.75" stroke-linejoin="bevel" points="2579.61,606.616 2579.61,703.102"/>
<polyline class="Stem" stroke="#000000" stroke-width="2.75" stroke-linejoin="bevel" points="408.226,1219.15 408.226,1315.64"/>
<polyline class="Stem" stroke="#000000" stroke-width="2.75" stroke-linejoin="bevel" points="588.604,1244.16 588.604,1328.14"/>
<polyline class="Stem" stroke="#000000" stroke-width="2.75" stroke-linejoin="bevel" points="768.982,1269.16 768.982,1353.14"/>
<polyline class="Stem" stroke="#000000" stroke-width="2.75" stroke-linejoin="bevel" points="1010.91,1244.16 1010.91,1328.14"/>
<polyline class="Stem" stroke="#000000" stroke-width="2.75" stroke-linejoin="bevel" points="1174.4,1269.16 1174.4,1353.14"/>
<polyline class="Stem" stroke="#000000" stroke-width="2.75" stroke-linejoin="bevel" points="1337.9,1306.66 1337.9,1384.39"/>
<polyline class="Stem" stroke="#000000" stroke-width="2.75" stroke-linejoin="bevel" points="1538.39,1269.16 1538.39,1353.14"/>
<polyline class="Stem" stroke="#000000" stroke-width="2.75" stroke-linejoin="bevel" points="1718.77,1306.66 1718.77,1384.39"/>
<polyline class="Stem" stroke="#000000" stroke-width="2.75" stroke-linejoin="bevel" points="1928.89,1324.78 1928.89,1246.89"/>
<polyline class="Stem" stroke="#000000" stroke-width="2.75" stroke-linejoin="bevel" points="2202.93,1306.66 2202.93,1384.39"/>
<polyline class="Stem" stroke="#000000" stroke-width="2.75" stroke-linejoin="bevel" points="2409.7,1324.78 2409.7,1246.89"/>
<polyline class="Stem" stroke="#000000" stroke-width="2.75" stroke-linejoin="bevel" points="2586.72,1349.78 2586.72,1265.64"/>
<path class="Note" d="M486.502,932.417 C485.002,929.717 482.102,928.017 478.202,927.617 C477.602,927.517 477.102,927.517 476.502,927.517 C473.002,927.517 469.202,928.517 465.702,930.417 C459.102,934.017 455.002,939.917 455.002,945.017 C455.002,946.417 455.202,947.717 455.902,948.917 C457.402,951.617 460.402,953.317 464.302,953.717 C464.902,953.817 465.402,953.817 466.002,953.817 C469.502,953.817 473.202,952.817 476.702,950.917 C483.302,947.317 487.502,941.517 487.502,936.417 C487.502,935.017 487.202,933.617 486.502,932.417"/>
<path class="Note" d="M658.34,907.415 C656.84,904.715 653.94,903.015 650.04,902.615 C649.44,902.515 648.94,902.515 648.34,902.515 C644.84,902.515 641.04,903.515 637.54,905.415 C630.94,909.015 626.84,914.915 626.84,920.015 C626.84,921.415 627.04,922.715 627.74,923.915 C629.24,926.615 632.24,928.315 636.14,928.715 C636.74,928.815 637.24,928.815 637.84,928.815 C641.34,928.815 645.04,927.815 648.54,925.915 C655.14,922.315 659.34,916.515 659.34,911.415 C659.34,910.015 659.04,908.615 658.34,907.415"/>
<path class="Note" d="M830.178,882.413 C828.678,879.713 825.778,878.013 821.878,877.613 C821.278,877.513 820.778,877.513 820.178,877.513 C816.678,877.513 812.878,878.513 809.378,880.413 C802.778,884.013 798.678,889.913 798.678,895.013 C798.678,896.413 798.878,897.713 799.578,898.913 C801.078,901.613 804.078,903.313 807.978,903.713 C808.578,903.813 809.078,903.813 809.678,903.813 C813.178,903.813 816.878,902.813 820.378,900.913 C826.978,897.313 831.178,891.513 831.178,886.413 C831.178,885.013 830.878,883.613 830.178,882.413"/>
<path class="Note" d="M1054.82,907.415 C1053.32,904.715 1050.42,903.015 1046.52,902.615 C1045.92,902.515 1045.42,902.515 1044.82,902.515 C1041.32,902.515 1037.52,903.515 1034.02,905.415 C1027.42,909.015 1023.32,914.915 1023.32,920.015 C1023.32,921.415 1023.52,922.715 1024.22,923.915 C1025.72,926.615 1028.72,928.315 1032.62,928.715 C1033.22,928.815 1033.72,928.815 1034.32,928.815 C1037.82,928.815 1041.52,927.815 1045.02,925.915 C1051.62,922.315 1055.82,916.515 1055.82,911.415 C1055.82,910.015 1055.52,908.615 1054.82,907.415"/>
<path class="Note" d="M1221.08,882.413 C1219.58,879.713 1216.68,878.013 1212.78,877.613 C1212.18,877.513 1211.68,877.513 1211.08,877.513 C1207.58,877.513 1203.78,878.513 1200.28,880.413 C1193.68,884.013 1189.58,889.913 1189.58,895.013 C1189.58,896.413 1189.78,897.713 1190.48,898.913 C1191.98,901.613 1194.98,903.313 1198.88,903.713 C1199.48,903.813 1199.98,903.813 1200.58,903.813 C1204.08,903.813 1207.78,902.813 1211.28,900.913 C1217.88,897.313 1222.08,891.513 1222.08,886.413 C1222.08,885.013 1221.78,883.613 1221.08,882.413"/>
<path class="Note" d="M1387.34,844.911 C1385.84,842.211 1382.94,840.511 1379.04,840.111 C1378.44,840.011 1377.94,840.011 1377.34,840.011 C1373.84,840.011 1370.04,841.011 1366.54,842.911 C1359.94,846.511 1355.84,852.411 1355.84,857.511 C1355.84,858.911 1356.04,860.211 1356.74,861.411 C1358.24,864.111 1361.24,865.811 1365.14,866.211 C1365.74,866.311 1366.24,866.311 1366.84,866.311 C1370.34,866.311 1374.04,865.311 1377.54,863.411 C1384.14,859.811 1388.34,854.011 1388.34,848.911 C1388.34,847.511 1388.04,846.111 1387.34,844.911"/>
<path class="Note" d="M1683.35,1032.42 C1681.85,1029.72 1678.95,1028.02 1675.05,1027.62 C1674.45,1027.52 1673.95,1027.52 1673.35,1027.52 C1669.85,1027.52 1666.05,1028.52 1662.55,1030.42 C1655.95,1034.02 1651.85,1039.92 1651.85,1045.02 C1651.85,1046.42 1652.05,1047.72 1652.75,1048.92 C1654.25,1051.62 1657.25,1053.32 1661.15,1053.72 C1661.75,1053.82 1662.25,1053.82 1662.85,1053.82 C1666.35,1053.82 1670.05,1052.82 1673.55,1050.92 C1680.15,1047.32 1684.35,1041.52 1684.35,1036.42 C1684.35,1035.02 1684.05,1033.62 1683.35,1032.42"/>
<path class="Note" d="M1858.54,994.921 C1857.04,992.221 1854.14,990.521 1850.24,990.121 C1849.64,990.021 1849.14,990.021 1848.54,990.021 C1845.04,990.021 1841.24,991.021 1837.74,992.921 C1831.14,996.521 1827.04,1002.42 1827.04,1007.52 C1827.04,1008.92 1827.24,1010.22 1827.94,1011.42 C1829.44,1014.12 1832.44,1015.82 1836.34,1016.22 C1836.94,1016.32 1837.44,1016.32 1838.04,1016.32 C1841.54,1016.32 1845.24,1015.32 1848.74,1013.42 C1855.34,1009.82 1859.54,1004.02 1859.54,998.921 C1859.54,997.521 1859.24,996.121 1858.54,994.921"/>
<path class="Note" d="M2033.73,969.919 C2032.23,967.219 2029.33,965.519 2025.43,965.119 C2024.83,965.019 2024.33,965.019 2023.73,965.019 C2020.23,965.019 2016.43,966.019 2012.93,967.919 C2006.33,971.519 2002.23,977.419 2002.23,982.519 C2002.23,983.919 2002.43,985.219 2003.13,986.419 C2004.63,989.119 2007.63,990.819 2011.53,991.219 C2012.13,991.319 2012.63,991.319 2013.23,991.319 C2016.73,991.319 2020.43,990.319 2023.93,988.419 C2030.53,984.819 2034.73,979.019 2034.73,973.919 C2034.73,972.519 2034.43,971.119 2033.73,969.919"/>
<path class="Note" d="M2245.93,994.921 C2244.43,992.221 2241.53,990.521 2237.63,990.121 C2237.03,990.021 2236.53,990.021 2235.93,990.021 C2232.43,990.021 2228.63,991.021 2225.13,992.921 C2218.53,996.521 2214.43,1002.42 2214.43,1007.52 C2214.43,1008.92 2214.63,1010.22 2215.33,1011.42 C2216.83,1014.12 2219.83,1015.82 2223.73,1016.22 C2224.33,1016.32 2224.83,1016.32 2225.43,1016.32 C2228.93,1016.32 2232.63,1015.32 2236.13,1013.42 C2242.73,1009.82 2246.93,1004.02 2246.93,998.921 C2246.93,997.521 2246.63,996.121 2245.93,994.921"/>
<path class="Note" d="M2427.83,969.919 C2426.33,967.219 2423.43,965.519 2419.53,965.119 C2418.93,965.019 2418.43,965.019 2417.83,965.019 C2414.33,965.019 2410.53,966.019 2407.03,967.919 C2400.43,971.519 2396.33,977.419 2396.33,982.519 C2396.33,983.919 2396.53,985.219 2397.23,986.419 C2398.73,989.119 2401.73,990.819 2405.63,991.219 C2406.23,991.319 2406.73,991.319 2407.33,991.319 C2410.83,991.319 2414.53,990.319 2418.03,988.419 C2424.63,984.819 2428.83,979.019 2428.83,973.919 C2428.83,972.519 2428.53,971.119 2427.83,969.919"/>
<path class="Note" d="M2609.73,944.917 C2608.23,942.217 2605.33,940.517 2601.43,940.117 C2600.83,940.017 2600.33,940.017 2599.73,940.017 C2596.23,940.017 2592.43,941.017 2588.93,942.917 C2582.33,946.517 2578.23,952.417 2578.23,957.517 C2578.23,958.917 2578.43,960.217 2579.13,961.417 C2580.63,964.117 2583.63,965.817 2587.53,966.217 C2588.13,966.317 2588.63,966.317 2589.23,966.317 C2592.73,966.317 2596.43,965.317 2599.93,963.417 C2606.53,959.817 2610.73,954.017 2610.73,948.917 C2610.73,947.517 2610.43,946.117 2609.73,944.917"/>
<path class="Note" d="M438.351,1557.46 C436.851,1554.76 433.951,1553.06 430.051,1552.66 C429.451,1552.56 428.951,1552.56 428.351,1552.56 C424.851,1552.56 421.051,1553.56 417.551,1555.46 C410.951,1559.06 406.851,1564.96 406.851,1570.06 C406.851,1571.46 407.051,1572.76 407.751,1573.96 C409.251,1576.66 412.251,1578.36 416.151,1578.76 C416.751,1578.86 417.251,1578.86 417.851,1578.86 C421.351,1578.86 425.051,1577.86 428.551,1575.96 C435.151,1572.36 439.351,1566.56 439.351,1561.46 C439.351,1560.06 439.051,1558.66 438.351,1557.46"/>
<path class="Note" d="M618.729,1582.46 C617.229,1579.76 614.329,1578.06 610.429,1577.66 C609.829,1577.56 609.329,1577.56 608.729,1577.56 C605.229,1577.56 601.429,1578.56 597.929,1580.46 C591.329,1584.06 587.229,1589.96 587.229,1595.06 C587.229,1596.46 587.429,1597.76 588.129,1598.96 C589.629,1601.66 592.629,1603.36 596.529,1603.76 C597.129,1603.86 597.629,1603.86 598.229,1603.86 C601.729,1603.86 605.429,1602.86 608.929,1600.96 C615.529,1597.36 619.729,1591.56 619.729,1586.46 C619.729,1585.06 619.429,1583.66 618.729,1582.46"/>
<path class="Note" d="M799.107,1607.46 C797.607,1604.76 794.707,1603.06 790.807,1602.66 C790.207,1602.56 789.707,1602.56 789.107,1602.56 C785.607,1602.56 781.807,1603.56 778.307,1605.46 C771.707,1609.06 767.607,1614.96 767.607,1620.06 C767.607,1621.46 767.807,1622.76 768.507,1623.96 C770.007,1626.66 773.007,1628.36 776.907,1628.76 C777.507,1628.86 778.007,1628.86 778.607,1628.86 C782.107,1628.86 785.807,1627.86 789.307,1625.96 C795.907,1622.36 800.107,1616.56 800.107,1611.46 C800.107,1610.06 799.807,1608.66 799.107,1607.46"/>
<path class="Note" d="M1041.04,1582.46 C1039.54,1579.76 1036.64,1578.06 1032.74,1577.66 C1032.14,1577.56 1031.64,1577.56 1031.04,1577.56 C1027.54,1577.56 1023.74,1578.56 1020.24,1580.46 C1013.64,1584.06 1009.54,1589.96 1009.54,1595.06 C1009.54,1596.46 1009.74,1597.76 1010.44,1598.96 C1011.94,1601.66 1014.94,1603.36 1018.84,1603.76 C1019.44,1603.86 1019.94,1603.86 1020.54,1603.86 C1024.04,1603.86 1027.74,1602.86 1031.24,1600.96 C1037.84,1597.36 1042.04,1591.56 1042.04,1586.46 C1042.04,1585.06 1041.74,1583.66 1041.04,1582.46"/>
<path class="Note" d="M1204.53,1607.46 C1203.03,1604.76 1200.13,1603.06 1196.23,1602.66 C1195.63,1602.56 1195.13,1602.56 1194.53,1602.56 C1191.03,1602.56 1187.23,1603.56 1183.73,1605.46 C1177.13,1609.06 1173.03,1614.96 1173.03,1620.06 C1173.03,1621.46 1173.23,1622.76 1173.93,1623.96 C1175.43,1626.66 1178.43,1628.36 1182.33,1628.76 C1182.93,1628.86 1183.43,1628.86 1184.03,1628.86 C1187.53,1628.86 1191.23,1627.86 1194.73,1625.96 C1201.33,1622.36 1205.53,1616.56 1205.53,1611.46 C1205.53,1610.06 1205.23,1608.66 1204.53,1607.46"/>
<path class="Note" d="M1368.02,1644.96 C1366.52,1642.26 1363.62,1640.56 1359.72,1640.16 C1359.12,1640.06 1358.62,1640.06 1358.02,1640.06 C1354.52,1640.06 1350.72,1641.06 1347.22,1642.96 C1340.62,1646.56 1336.52,1652.46 1336.52,1657.56 C1336.52,1658.96 1336.72,1660.26 1337.42,1661.46 C1338.92,1664.16 1341.92,1665.86 1345.82,1666.26 C1346.42,1666.36 1346.92,1666.36 1347.52,1666.36 C1351.02,1666.36 1354.72,1665.36 1358.22,1663.46 C1364.82,1659.86 1369.02,1654.06 1369.02,1648.96 C1369.02,1647.56 1368.72,1646.16 1368.02,1644.96"/>
<path class="Note" d="M1568.52,1607.46 C1567.02,1604.76 1564.12,1603.06 1560.22,1602.66 C1559.62,1602.56 1559.12,1602.56 1558.52,1602.56 C1555.02,1602.56 1551.22,1603.56 1547.72,1605.46 C1541.12,1609.06 1537.02,1614.96 1537.02,1620.06 C1537.02,1621.46 1537.22,1622.76 1537.92,1623.96 C1539.42,1626.66 1542.42,1628.36 1546.32,1628.76 C1546.92,1628.86 1547.42,1628.86 1548.02,1628.86 C1551.52,1628.86 1555.22,1627.86 1558.72,1625.96 C1565.32,1622.36 1569.52,1616.56 1569.52,1611.46 C1569.52,1610.06 1569.22,1608.66 1568.52,1607.46"/>
<path class="Note" d="M1748.89,1644.96 C1747.39,1642.26 1744.49,1640.56 1740.59,1640.16 C1739.99,1640.06 1739.49,1640.06 1738.89,1640.06 C1735.39,1640.06 1731.59,1641.06 1728.09,1642.96 C1721.49,1646.56 1717.39,1652.46 1717.39,1657.56 C1717.39,1658.96 1717.59,1660.26 1718.29,1661.46 C1719.79,1664.16 1722.79,1665.86 1726.69,1666.26 C1727.29,1666.36 1727.79,1666.36 1728.39,1666.36 C1731.89,1666.36 1735.59,1665.36 1739.09,1663.46 C1745.69,1659.86 1749.89,1654.06 1749.89,1648.96 C1749.89,1647.56 1749.59,1646.16 1748.89,1644.96"/>
<path class="Note" d="M1929.27,1669.96 C1927.77,1667.26 1924.87,1665.56 1920.97,1665.16 C1920.37,1665.06 1919.87,1665.06 1919.27,1665.06 C1915.77,1665.06 1911.97,1666.06 1908.47,1667.96 C1901.87,1671.56 1897.77,1677.46 1897.77,1682.56 C1897.77,1683.96 1897.97,1685.26 1898.67,1686.46 C1900.17,1689.16 1903.17,1690.86 1907.07,1691.26 C1907.67,1691.36 1908.17,1691.36 1908.77,1691.36 C1912.27,1691.36 1915.97,1690.36 1919.47,1688.46 C1926.07,1684.86 1930.27,1679.06 1930.27,1673.96 C1930.27,1672.56 1929.97,1671.16 1929.27,1669.96"/>
<path class="Note" d="M2233.06,1494.95 C2231.56,1492.25 2228.66,1490.55 2224.76,1490.15 C2224.16,1490.05 2223.66,1490.05 2223.06,1490.05 C2219.56,1490.05 2215.76,1491.05 2212.26,1492.95 C2205.66,1496.55 2201.56,1502.45 2201.56,1507.55 C2201.56,1508.95 2201.76,1510.25 2202.46,1511.45 C2203.96,1514.15 2206.96,1515.85 2210.86,1516.25 C2211.46,1516.35 2211.96,1516.35 2212.56,1516.35 C2216.06,1516.35 2219.76,1515.35 2223.26,1513.45 C2229.86,1509.85 2234.06,1504.05 2234.06,1498.95 C2234.06,1497.55 2233.76,1496.15 2233.06,1494.95"/>
<path class="Note" d="M2410.08,1519.95 C2408.58,1517.25 2405.68,1515.55 2401.78,1515.15 C2401.18,1515.05 2400.68,1515.05 2400.08,1515.05 C2396.58,1515.05 2392.78,1516.05 2389.28,1517.95 C2382.68,1521.55 2378.58,1527.45 2378.58,1532.55 C2378.58,1533.95 2378.78,1535.25 2379.48,1536.45 C2380.98,1539.15 2383.98,1540.85 2387.88,1541.25 C2388.48,1541.35 2388.98,1541.35 2389.58,1541.35 C2393.08,1541.35 2396.78,1540.35 2400.28,1538.45 C2406.88,1534.85 2411.08,1529.05 2411.08,1523.95 C2411.08,1522.55 2410.78,1521.15 2410.08,1519.95"/>
<path class="Note" d="M2587.11,1544.96 C2585.61,1542.26 2582.71,1540.56 2578.81,1540.16 C2578.21,1540.06 2577.71,1540.06 2577.11,1540.06 C2573.61,1540.06 2569.81,1541.06 2566.31,1542.96 C2559.71,1546.56 2555.61,1552.46 2555.61,1557.56 C2555.61,1558.96 2555.81,1560.26 2556.51,1561.46 C2558.01,1564.16 2561.01,1565.86 2564.91,1566.26 C2565.51,1566.36 2566.01,1566.36 2566.61,1566.36 C2570.11,1566.36 2573.81,1565.36 2577.31,1563.46 C2583.91,1559.86 2588.11,1554.06 2588.11,1548.96 C2588.11,1547.56 2587.81,1546.16 2587.11,1544.96"/>
<path class="Note" d="M486.502,732.404 C485.002,729.704 482.102,728.004 478.202,727.604 C477.602,727.504 477.102,727.504 476.502,727.504 C473.002,727.504 469.202,728.504 465.702,730.404 C459.102,734.004 455.002,739.904 455.002,745.004 C455.002,746.404 455.202,747.704 455.902,748.904 C457.402,751.604 460.402,753.304 464.302,753.704 C464.902,753.804 465.402,753.804 466.002,753.804 C469.502,753.804 473.202,752.804 476.702,750.904 C483.302,747.304 487.502,741.504 487.502,736.404 C487.502,735.004 487.202,733.604 486.502,732.404"/>
<path class="Note" d="M658.34,707.402 C656.84,704.702 653.94,703.002 650.04,702.602 C649.44,702.502 648.94,702.502 648.34,702.502 C644.84,702.502 641.04,703.502 637.54,705.402 C630.94,709.002 626.84,714.902 626.84,720.002 C626.84,721.402 627.04,722.702 627.74,723.902 C629.24,726.602 632.24,728.302 636.14,728.702 C636.74,728.802 637.24,728.802 637.84,728.802 C641.34,728.802 645.04,727.802 648.54,725.902 C655.14,722.302 659.34,716.502 659.34,711.402 C659.34,710.002 659.04,708.602 658.34,707.402"/>
<path class="Note" d="M830.178,682.401 C828.678,679.701 825.778,678.001 821.878,677.601 C821.278,677.501 820.778,677.501 820.178,677.501 C816.678,677.501 812.878,678.501 809.378,680.401 C802.778,684.001 798.678,689.901 798.678,695.001 C798.678,696.401 798.878,697.701 799.578,698.901 C801.078,701.601 804.078,703.301 807.978,703.701 C808.578,703.801 809.078,703.801 809.678,703.801 C813.178,703.801 816.878,702.801 820.378,700.901 C826.978,697.301 831.178,691.501 831.178,686.401 C831.178,685.001 830.878,683.601 830.178,682.401"/>
<path class="Note" d="M1054.82,707.402 C1053.32,704.702 1050.42,703.002 1046.52,702.602 C1045.92,702.502 1045.42,702.502 1044.82,702.502 C1041.32,702.502 1037.52,703.502 1034.02,705.402 C1027.42,709.002 1023.32,714.902 1023.32,720.002 C1023.32,721.402 1023.52,722.702 1024.22,723.902 C1025.72,726.602 1028.72,728.302 1032.62,728.702 C1033.22,728.802 1033.72,728.802 1034.32,728.802 C1037.82,728.802 1041.52,727.802 1045.02,725.902 C1051.62,722.302 1055.82,716.502 1055.82,711.402 C1055.82,710.002 1055.52,708.602 1054.82,707.402"/>
<path class="Note" d="M1221.08,682.401 C1219.58,679.701 1216.68,678.001 1212.78,677.601 C1212.18,677.501 1211.68,677.501 1211.08,677.501 C1207.58,677.501 1203.78,678.501 1200.28,680.401 C1193.68,684.001 1189.58,689.901 1189.58,695.001 C1189.58,696.401 1189.78,697.701 1190.48,698.901 C1191.98,701.601 1194.98,703.301 1198.88,703.701 C1199.48,703.801 1199.98,703.801 1200.58,703.801 C1204.08,703.801 1207.78,702.801 1211.28,700.901 C1217.88,697.301 1222.08,691.501 1222.08,686.401 C1222.08,685.001 1221.78,683.601 1221.08,682.401"/>
<path class="Note" d="M1387.34,644.898 C1385.84,642.198 1382.94,640.498 1379.04,640.098 C1378.44,639.998 1377.94,639.998 1377.34,639.998 C1373.84,639.998 1370.04,640.998 1366.54,642.898 C1359.94,646.498 1355.84,652.398 1355.84,657.498 C1355.84,658.898 1356.04,660.198 1356.74,661.398 C1358.24,664.098 1361.24,665.798 1365.14,666.198 C1365.74,666.298 1366.24,666.298 1366.84,666.298 C1370.34,666.298 1374.04,665.298 1377.54,663.398 C1384.14,659.798 1388.34,653.998 1388.34,648.898 C1388.34,647.498 1388.04,646.098 1387.34,644.898"/>
<path class="Note" d="M1683.35,682.401 C1681.85,679.701 1678.95,678.001 1675.05,677.601 C1674.45,677.501 1673.95,677.501 1673.35,677.501 C1669.85,677.501 1666.05,678.501 1662.55,680.401 C1655.95,684.001 1651.85,689.901 1651.85,695.001 C1651.85,696.401 1652.05,697.701 1652.75,698.901 C1654.25,701.601 1657.25,703.301 1661.15,703.701 C1661.75,703.801 1662.25,703.801 1662.85,703.801 C1666.35,703.801 1670.05,702.801 1673.55,700.901 C1680.15,697.301 1684.35,691.501 1684.35,686.401 C1684.35,685.001 1684.05,683.601 1683.35,682.401"/>
<path class="Note" d="M1858.54,644.898 C1857.04,642.198 1854.14,640.498 1850.24,640.098 C1849.64,639.998 1849.14,639.998 1848.54,639.998 C1845.04,639.998 1841.24,640.998 1837.74,642.898 C1831.14,646.498 1827.04,652.398 1827.04,657.498 C1827.04,658.898 1827.24,660.198 1827.94,661.398 C1829.44,664.098 1832.44,665.798 1836.34,666.198 C1836.94,666.298 1837.44,666.298 1838.04,666.298 C1841.54,666.298 1845.24,665.298 1848.74,663.398 C1855.34,659.798 1859.54,653.998 1859.54,648.898 C1859.54,647.498 1859.24,646.098 1858.54,644.898"/>
<path class="Note" d="M2033.73,619.897 C2032.23,617.197 2029.33,615.497 2025.43,615.097 C2024.83,614.997 2024.33,614.997 2023.73,614.997 C2020.23,614.997 2016.43,615.997 2012.93,617.897 C2006.33,621.497 2002.23,627.397 2002.23,632.497 C2002.23,633.897 2002.43,635.197 2003.13,636.397 C2004.63,639.097 2007.63,640.797 2011.53,641.197 C2012.13,641.297 2012.63,641.297 2013.23,641.297 C2016.73,641.297 2020.43,640.297 2023.93,638.397 C2030.53,634.797 2034.73,628.997 2034.73,623.897 C2034.73,622.497 2034.43,621.097 2033.73,619.897"/>
<path class="Note" d="M2245.93,644.898 C2244.43,642.198 2241.53,640.498 2237.63,640.098 C2237.03,639.998 2236.53,639.998 2235.93,639.998 C2232.43,639.998 2228.63,640.998 2225.13,642.898 C2218.53,646.498 2214.43,652.398 2214.43,657.498 C2214.43,658.898 2214.63,660.198 2215.33,661.398 C2216.83,664.098 2219.83,665.798 2223.73,666.198 C2224.33,666.298 2224.83,666.298 2225.43,666.298 C2228.93,666.298 2232.63,665.298 2236.13,663.398 C2242.73,659.798 2246.93,653.998 2246.93,648.898 C2246.93,647.498 2246.63,646.098 2245.93,644.898"/>
<path class="Note" d="M2427.83,619.897 C2426.33,617.197 2423.43,615.497 2419.53,615.097 C2418.93,614.997 2418.43,614.997 2417.83,614.997 C2414.33,614.997 2410.53,615.997 2407.03,617.897 C2400.43,621.497 2396.33,627.397 2396.33,632.497 C2396.33,633.897 2396.53,635.197 2397.23,636.397 C2398.73,639.097 2401.73,640.797 2405.63,641.197 C2406.23,641.297 2406.73,641.297 2407.33,641.297 C2410.83,641.297 2414.53,640.297 2418.03,638.397 C2424.63,634.797 2428.83,628.997 2428.83,623.897 C2428.83,622.497 2428.53,621.097 2427.83,619.897"/>
<path class="Note" d="M2609.73,594.895 C2608.23,592.195 2605.33,590.495 2601.43,590.095 C2600.83,589.995 2600.33,589.995 2599.73,589.995 C2596.23,589.995 2592.43,590.995 2588.93,592.895 C2582.33,596.495 2578.23,602.395 2578.23,607.495 C2578.23,608.895 2578.43,610.195 2579.13,611.395 C2580.63,614.095 2583.63,615.795 2587.53,616.195 C2588.13,616.295 2588.63,616.295 2589.23,616.295 C2592.73,616.295 2596.43,615.295 2599.93,613.395 C2606.53,609.795 2610.73,603.995 2610.73,598.895 C2610.73,597.495 2610.43,596.095 2609.73,594.895"/>
<path class="Note" d="M438.351,1207.43 C436.851,1204.73 433.951,1203.03 430.051,1202.63 C429.451,1202.53 428.951,1202.53 428.351,1202.53 C424.851,1202.53 421.051,1203.53 417.551,1205.43 C410.951,1209.03 406.851,1214.93 406.851,1220.03 C406.851,1221.43 407.051,1222.73 407.751,1223.93 C409.251,1226.63 412.251,1228.33 416.151,1228.73 C416.751,1228.83 417.251,1228.83 417.851,1228.83 C421.351,1228.83 425.051,1227.83 428.551,1225.93 C435.151,1222.33 439.351,1216.53 439.351,1211.43 C439.351,1210.03 439.051,1208.63 438.351,1207.43"/>
<path class="Note" d="M618.729,1232.44 C617.229,1229.74 614.329,1228.04 610.429,1227.64 C609.829,1227.54 609.329,1227.54 608.729,1227.54 C605.229,1227.54 601.429,1228.54 597.929,1230.44 C591.329,1234.04 587.229,1239.94 587.229,1245.04 C587.229,1246.44 587.429,1247.74 588.129,1248.94 C589.629,1251.64 592.629,1253.34 596.529,1253.74 C597.129,1253.84 597.629,1253.84 598.229,1253.84 C601.729,1253.84 605.429,1252.84 608.929,1250.94 C615.529,1247.34 619.729,1241.54 619.729,1236.44 C619.729,1235.04 619.429,1233.64 618.729,1232.44"/>
<path class="Note" d="M799.107,1257.44 C797.607,1254.74 794.707,1253.04 790.807,1252.64 C790.207,1252.54 789.707,1252.54 789.107,1252.54 C785.607,1252.54 781.807,1253.54 778.307,1255.44 C771.707,1259.04 767.607,1264.94 767.607,1270.04 C767.607,1271.44 767.807,1272.74 768.507,1273.94 C770.007,1276.64 773.007,1278.34 776.907,1278.74 C777.507,1278.84 778.007,1278.84 778.607,1278.84 C782.107,1278.84 785.807,1277.84 789.307,1275.94 C795.907,1272.34 800.107,1266.54 800.107,1261.44 C800.107,1260.04 799.807,1258.64 799.107,1257.44"/>
<path class="Note" d="M1041.04,1232.44 C1039.54,1229.74 1036.64,1228.04 1032.74,1227.64 C1032.14,1227.54 1031.64,1227.54 1031.04,1227.54 C1027.54,1227.54 1023.74,1228.54 1020.24,1230.44 C1013.64,1234.04 1009.54,1239.94 1009.54,1245.04 C1009.54,1246.44 1009.74,1247.74 1010.44,1248.94 C1011.94,1251.64 1014.94,1253.34 1018.84,1253.74 C1019.44,1253.84 1019.94,1253.84 1020.54,1253.84 C1024.04,1253.84 1027.74,1252.84 1031.24,1250.94 C1037.84,1247.34 1042.04,1241.54 1042.04,1236.44 C1042.04,1235.04 1041.74,1233.64 1041.04,1232.44"/>
<path class="Note" d="M1204.53,1257.44 C1203.03,1254.74 1200.13,1253.04 1196.23,1252.64 C1195.63,1252.54 1195.13,1252.54 1194.53,1252.54 C1191.03,1252.54 1187.23,1253.54 1183.73,1255.44 C1177.13,1259.04 1173.03,1264.94 1173.03,1270.04 C1173.03,1271.44 1173.23,1272.74 1173.93,1273.94 C1175.43,1276.64 1178.43,1278.34 1182.33,1278.74 C1182.93,1278.84 1183.43,1278.84 1184.03,1278.84 C1187.53,1278.84 1191.23,1277.84 1194.73,1275.94 C1201.33,1272.34 1205.53,1266.54 1205.53,1261.44 C1205.53,1260.04 1205.23,1258.64 1204.53,1257.44"/>
<path class="Note" d="M1368.02,1294.94 C1366.52,1292.24 1363.62,1290.54 1359.72,1290.14 C1359.12,1290.04 1358.62,1290.04 1358.02,1290.04 C1354.52,1290.04 1350.72,1291.04 1347.22,1292.94 C1340.62,1296.54 1336.52,1302.44 1336.52,1307.54 C1336.52,1308.94 1336.72,1310.24 1337.42,1311.44 C1338.92,1314.14 1341.92,1315.84 1345.82,1316.24 C1346.42,1316.34 1346.92,1316.34 1347.52,1316.34 C1351.02,1316.34 1354.72,1315.34 1358.22,1313.44 C1364.82,1309.84 1369.02,1304.04 1369.02,1298.94 C1369.02,1297.54 1368.72,1296.14 1368.02,1294.94"/>
<path class="Note" d="M1568.52,1257.44 C1567.02,1254.74 1564.12,1253.04 1560.22,1252.64 C1559.62,1252.54 1559.12,1252.54 1558.52,1252.54 C1555.02,1252.54 1551.22,1253.54 1547.72,1255.44 C1541.12,1259.04 1537.02,1264.94 1537.02,1270.04 C1537.02,1271.44 1537.22,1272.74 1537.92,1273.94 C1539.42,1276.64 1542.42,1278.34 1546.32,1278.74 C1546.92,1278.84 1547.42,1278.84 1548.02,1278.84 C1551.52,1278.84 1555.22,1277.84 1558.72,1275.94 C1565.32,1272.34 1569.52,1266.54 1569.52,1261.44 C1569.52,1260.04 1569.22,1258.64 1568.52,1257.44"/>
<path class="Note" d="M1748.89,1294.94 C1747.39,1292.24 1744.49,1290.54 1740.59,1290.14 C1739.99,1290.04 1739.49,1290.04 1738.89,1290.04 C1735.39,1290.04 1731.59,1291.04 1728.09,1292.94 C1721.49,1296.54 1717.39,1302.44 1717.39,1307.54 C1717.39,1308.94 1717.59,1310.24 1718.29,1311.44 C1719.79,1314.14 1722.79,1315.84 1726.69,1316.24 C1727.29,1316.34 1727.79,1316.34 1728.39,1316.34 C1731.89,1316.34 1735.59,1315.34 1739.09,1313.44 C1745.69,1309.84 1749.89,1304.04 1749.89,1298.94 C1749.89,1297.54 1749.59,1296.14 1748.89,1294.94"/>
<path class="Note" d="M1929.27,1319.94 C1927.77,1317.24 1924.87,1315.54 1920.97,1315.14 C1920.37,1315.04 1919.87,1315.04 1919.27,1315.04 C1915.77,1315.04 1911.97,1316.04 1908.47,1317.94 C1901.87,1321.54 1897.77,1327.44 1897.77,1332.54 C1897.77,1333.94 1897.97,1335.24 1898.67,1336.44 C1900.17,1339.14 1903.17,1340.84 1907.07,1341.24 C1907.67,1341.34 1908.17,1341.34 1908.77,1341.34 C1912.27,1341.34 1915.97,1340.34 1919.47,1338.44 C1926.07,1334.84 1930.27,1329.04 1930.27,1323.94 C1930.27,1322.54 1929.97,1321.14 1929.27,1319.94"/>
<path class="Note" d="M2233.06,1294.94 C2231.56,1292.24 2228.66,1290.54 2224.76,1290.14 C2224.16,1290.04 2223.66,1290.04 2223.06,1290.04 C2219.56,1290.04 2215.76,1291.04 2212.26,1292.94 C2205.66,1296.54 2201.56,1302.44 2201.56,1307.54 C2201.56,1308.94 2201.76,1310.24 2202.46,1311.44 C2203.96,1314.14 2206.96,1315.84 2210.86,1316.24 C2211.46,1316.34 2211.96,1316.34 2212.56,1316.34 C2216.06,1316.34 2219.76,1315.34 2223.26,1313.44 C2229.86,1309.84 2234.06,1304.04 2234.06,1298.94 C2234.06,1297.54 2233.76,1296.14 2233.06,1294.94"/>
<path class="Note" d="M2410.08,1319.94 C2408.58,1317.24 2405.68,1315.54 2401.78,1315.14 C2401.18,1315.04 2400.68,1315.04 2400.08,1315.04 C2396.58,1315.04 2392.78,1316.04 2389.28,1317.94 C2382.68,1321.54 2378.58,1327.44 2378.58,1332.54 C2378.58,1333.94 2378.78,1335.24 2379.48,1336.44 C2380.98,1339.14 2383.98,1340.84 2387.88,1341.24 C2388.48,1341.34 2388.98,1341.34 2389.58,1341.34 C2393.08,1341.34 2396.78,1340.34 2400.28,1338.44 C2406.88,1334.84 2411.08,1329.04 2411.08,1323.94 C2411.08,1322.54 2410.78,1321.14 2410.08,1319.94"/>
<path class="Note" d="M2587.11,1344.94 C2585.61,1342.24 2582.71,1340.54 2578.81,1340.14 C2578.21,1340.04 2577.71,1340.04 2577.11,1340.04 C2573.61,1340.04 2569.81,1341.04 2566.31,1342.94 C2559.71,1346.54 2555.61,1352.44 2555.61,1357.54 C2555.61,1358.94 2555.81,1360.24 2556.51,1361.44 C2558.01,1364.14 2561.01,1365.84 2564.91,1366.24 C2565.51,1366.34 2566.01,1366.34 2566.61,1366.34 C2570.11,1366.34 2573.81,1365.34 2577.31,1363.44 C2583.91,1359.84 2588.11,1354.04 2588.11,1348.94 C2588.11,1347.54 2587.81,1346.14 2587.11,1344.94"/>
<path class="Clef" d="M297,915.517 C289.4,915.517 283.3,919.917 283.2,919.917 C277.4,924.217 275.1,929.317 274.2,932.817 C273.7,934.617 273.5,936.417 273.5,938.117 C273.5,940.517 273.9,942.717 274.8,944.617 C276,947.317 278.3,949.217 281.3,950.217 C282.5,950.617 283.8,950.817 285.1,950.817 C287.3,950.817 289.6,950.217 291.5,949.117 C294.6,947.417 296.5,943.817 296.5,939.917 C296.5,936.417 294.7,933.217 291.7,931.317 C289.6,929.917 287.6,929.517 285.9,929.517 C284.7,929.517 283.6,929.717 282.7,930.017 C281.7,930.417 280,931.417 279.2,932.117 C279.5,930.217 280.7,927.317 281.8,925.717 C282.9,924.117 285.1,922.117 286.8,921.217 C289.3,919.817 292.5,919.217 296,919.217 C306.2,919.217 311.2,927.417 311.2,944.217 C311.2,953.517 307.7,962.417 304.7,968.317 C301.4,974.917 297,981.217 293.1,984.717 C282.7,994.217 272.9,998.717 272.8,998.717 C272.8,998.717 271.3,999.617 271.7,1001.12 C272,1002.12 272.9,1002.32 273.5,1002.32 C273.6,1002.32 273.9,1002.22 274,1002.22 C274.1,1002.22 285.5,997.517 294.6,990.417 C299.7,986.717 304.3,982.717 308.3,978.417 C311.9,974.517 315,970.317 317.5,966.117 C321.9,958.617 324.4,950.817 324.4,944.117 C324.4,935.817 322.2,928.917 318.1,924.017 C313.4,918.417 306.3,915.517 297,915.517 M328.4,928.217 C328.4,931.017 330.6,933.217 333.2,933.217 C335.8,933.217 338,931.017 338,928.217 C338,925.417 335.8,923.117 333.2,923.117 C330.6,923.117 328.4,925.417 328.4,928.217 M328.4,952.917 C328.4,955.717 330.6,958.017 333.2,958.017 C335.8,958.017 338,955.717 338,952.917 C338,950.117 335.8,947.817 333.2,947.817 C330.6,947.817 328.4,950.117 328.4,952.917"/>
<path class="Clef" d="M1610,984.72 C1608.8,979.32 1606.1,975.42 1605.3,974.42 C1602.1,970.12 1598.1,967.32 1593.4,965.92 C1591.1,965.22 1589,965.02 1587,965.02 C1586.3,965.02 1585.6,965.02 1584.9,965.12 C1583.9,959.12 1582.8,953.22 1581.9,947.82 C1587.5,941.62 1591.2,935.72 1593.6,931.32 C1597.2,924.62 1598.6,919.92 1598.7,919.72 C1599.9,916.72 1600.6,912.92 1600.6,908.42 C1600.6,905.72 1600.3,902.82 1599.9,899.82 C1598.8,892.72 1596.6,886.02 1594.1,882.32 C1592.8,880.42 1591.6,879.32 1590.4,879.32 C1589.2,879.32 1586.7,880.52 1583.8,883.32 C1581.5,885.52 1578.2,889.42 1575.6,895.42 C1573.3,900.82 1572.6,907.72 1572.6,913.62 C1572.6,915.42 1572.7,917.12 1572.8,918.72 C1573,922.32 1573.7,928.12 1574.3,931.72 C1574.3,931.82 1574.6,933.32 1575,935.92 L1574.3,936.62 C1573.3,937.62 1572.1,938.72 1570.7,940.12 C1569.8,941.02 1568.9,941.82 1567.9,942.82 C1559.4,951.02 1546.6,963.42 1546.6,982.52 C1546.6,987.22 1547.5,991.62 1549.3,995.62 C1550.9,999.22 1553.2,1002.52 1556.1,1005.42 C1563.6,1012.82 1573.8,1016.02 1580.9,1016.02 L1581.5,1016.02 C1584.4,1015.92 1587.1,1015.62 1589.5,1015.22 C1591.3,1024.82 1592.5,1031.92 1592.5,1037.22 C1592.5,1043.72 1590.9,1047.62 1587,1050.42 C1584.6,1052.12 1581.7,1053.22 1578.6,1053.32 L1577.8,1053.32 C1576.3,1053.32 1573.8,1052.92 1572.3,1052.52 C1572.3,1052.52 1572,1052.42 1572,1052.22 C1572,1052.02 1572.4,1052.02 1572.4,1052.02 C1574.3,1051.62 1577.9,1050.32 1580.3,1047.02 C1581.4,1045.52 1582.1,1043.22 1582.1,1040.72 C1582.1,1039.12 1581.8,1037.42 1581.1,1035.92 C1580,1033.52 1577.4,1030.52 1571.8,1030.12 L1570.7,1030.12 C1568.6,1030.12 1566.8,1030.62 1565.1,1031.62 C1563.3,1032.72 1561.7,1034.42 1560.7,1036.42 C1559.6,1038.42 1559.1,1040.62 1559.1,1042.82 C1559.1,1045.72 1560,1048.42 1561.8,1050.62 C1564.8,1054.22 1569.5,1056.52 1574.9,1057.12 C1575.6,1057.22 1576.7,1057.32 1577.4,1057.32 C1581.8,1057.32 1586.2,1056.12 1589.8,1053.92 C1593.5,1051.32 1595.6,1047.32 1596.3,1041.72 C1596.5,1040.42 1596.5,1039.02 1596.5,1037.52 C1596.5,1033.62 1596,1028.92 1595,1023.12 C1594.6,1021.02 1594.2,1018.02 1593.5,1014.22 C1599.3,1012.32 1603.4,1008.62 1607.2,1002.82 C1609.5,998.82 1610.6,994.72 1610.6,990.42 C1610.6,988.52 1610.4,986.62 1610,984.72 M1579.8,906.82 C1581.6,901.12 1584.3,897.72 1586.3,896.02 C1588.1,894.52 1589.7,893.82 1590.6,893.82 C1590.7,893.82 1590.9,893.92 1591,893.92 C1591.3,894.02 1591.7,894.52 1592.1,895.22 C1593,897.02 1593.9,900.32 1593.9,904.02 C1593.9,905.92 1593.7,907.92 1593.1,909.72 C1590.9,916.52 1586.3,923.82 1579.3,931.52 C1579.1,930.42 1578.9,929.42 1578.8,928.42 C1578.3,925.22 1578,922.02 1578,919.12 C1578,914.62 1578.6,910.52 1579.8,906.82 M1575.8,1010.92 C1571.2,1009.72 1566.7,1007.22 1562.9,1003.72 C1561.6,1002.52 1559.8,1000.32 1558.3,996.92 C1557,993.92 1556.3,990.82 1556.3,987.42 L1556.3,986.72 C1556.4,982.02 1557.7,977.22 1560.2,972.42 C1563.1,966.82 1567.6,961.32 1573.7,956.02 C1575.2,954.72 1576.6,953.42 1577.9,952.12 C1578.7,956.42 1579.4,961.12 1580.3,966.02 C1576.4,967.32 1571.7,970.32 1568.6,976.02 C1566.2,980.52 1565.5,984.42 1565.5,987.62 C1565.5,989.12 1565.7,990.52 1565.9,991.62 C1566.8,996.12 1569.4,999.82 1572.9,1001.92 C1573.7,1002.42 1577,1004.12 1579,1004.12 C1579.3,1004.12 1579.6,1004.12 1579.8,1004.02 C1580.1,1003.92 1580.4,1003.72 1580.5,1003.42 C1580.6,1003.22 1580.6,1003.02 1580.6,1002.82 C1580.6,1002.02 1579.8,1001.42 1578.5,1000.62 C1577.9,1000.22 1577.2,999.82 1576.5,999.32 C1573.9,997.32 1572.4,994.22 1572.4,990.82 C1572.4,989.82 1572.6,988.92 1572.8,987.92 C1573.3,985.92 1575,983.12 1576.5,981.72 C1578.2,980.22 1580.2,979.02 1582.6,978.42 C1584.6,989.62 1586.7,1000.72 1588.3,1009.12 C1588.4,1009.82 1588.6,1010.52 1588.7,1011.22 C1586.7,1011.62 1584.7,1011.82 1582.8,1011.82 C1580.4,1011.82 1578.1,1011.52 1575.8,1010.92 M1601.5,1000.72 C1600.3,1003.92 1597.8,1007.92 1592.7,1010.02 C1592.6,1009.62 1592.6,1009.12 1592.5,1008.72 C1591,999.92 1589.1,989.02 1587.1,977.72 L1588.1,977.72 C1597.8,977.72 1601.7,984.92 1602.6,989.52 C1602.8,990.42 1602.9,991.62 1602.9,992.92 C1602.9,995.22 1602.5,998.02 1601.5,1000.72"/>
<path class="Clef" d="M335,1597.26 C333.8,1591.86 331.1,1587.96 330.3,1586.96 C327.1,1582.66 323.1,1579.86 318.4,1578.46 C316.1,1577.76 314,1577.56 312,1577.56 C311.3,1577.56 310.6,1577.56 309.9,1577.66 C308.9,1571.66 307.8,1565.76 306.9,1560.36 C312.5,1554.16 316.2,1548.26 318.6,1543.86 C322.2,1537.16 323.6,1532.46 323.7,1532.26 C324.9,1529.26 325.6,1525.46 325.6,1520.96 C325.6,1518.26 325.3,1515.36 324.9,1512.36 C323.8,1505.26 321.6,1498.56 319.1,1494.86 C317.8,1492.96 316.6,1491.86 315.4,1491.86 C314.2,1491.86 311.7,1493.06 308.8,1495.86 C306.5,1498.06 303.2,1501.96 300.6,1507.96 C298.3,1513.36 297.6,1520.26 297.6,1526.16 C297.6,1527.96 297.7,1529.66 297.8,1531.26 C298,1534.86 298.7,1540.66 299.3,1544.26 C299.3,1544.36 299.6,1545.86 300,1548.46 L299.3,1549.16 C298.3,1550.16 297.1,1551.26 295.7,1552.66 C294.8,1553.56 293.9,1554.36 292.9,1555.36 C284.4,1563.56 271.6,1575.96 271.6,1595.06 C271.6,1599.76 272.5,1604.16 274.3,1608.16 C275.9,1611.76 278.2,1615.06 281.1,1617.96 C288.6,1625.36 298.8,1628.56 305.9,1628.56 L306.5,1628.56 C309.4,1628.46 312.1,1628.16 314.5,1627.76 C316.3,1637.36 317.5,1644.46 317.5,1649.76 C317.5,1656.26 315.9,1660.16 312,1662.96 C309.6,1664.66 306.7,1665.76 303.6,1665.86 L302.8,1665.86 C301.3,1665.86 298.8,1665.46 297.3,1665.06 C297.3,1665.06 297,1664.96 297,1664.76 C297,1664.56 297.4,1664.56 297.4,1664.56 C299.3,1664.16 302.9,1662.86 305.3,1659.56 C306.4,1658.06 307.1,1655.76 307.1,1653.26 C307.1,1651.66 306.8,1649.96 306.1,1648.46 C305,1646.06 302.4,1643.06 296.8,1642.66 L295.7,1642.66 C293.6,1642.66 291.8,1643.16 290.1,1644.16 C288.3,1645.26 286.7,1646.96 285.7,1648.96 C284.6,1650.96 284.1,1653.16 284.1,1655.36 C284.1,1658.26 285,1660.96 286.8,1663.16 C289.8,1666.76 294.5,1669.06 299.9,1669.66 C300.6,1669.76 301.7,1669.86 302.4,1669.86 C306.8,1669.86 311.2,1668.66 314.8,1666.46 C318.5,1663.86 320.6,1659.86 321.3,1654.26 C321.5,1652.96 321.5,1651.56 321.5,1650.06 C321.5,1646.16 321,1641.46 320,1635.66 C319.6,1633.56 319.2,1630.56 318.5,1626.76 C324.3,1624.86 328.4,1621.16 332.2,1615.36 C334.5,1611.36 335.6,1607.26 335.6,1602.96 C335.6,1601.06 335.4,1599.16 335,1597.26 M304.8,1519.36 C306.6,1513.66 309.3,1510.26 311.3,1508.56 C313.1,1507.06 314.7,1506.36 315.6,1506.36 C315.7,1506.36 315.9,1506.46 316,1506.46 C316.3,1506.56 316.7,1507.06 317.1,1507.76 C318,1509.56 318.9,1512.86 318.9,1516.56 C318.9,1518.46 318.7,1520.46 318.1,1522.26 C315.9,1529.06 311.3,1536.36 304.3,1544.06 C304.1,1542.96 303.9,1541.96 303.8,1540.96 C303.3,1537.76 303,1534.56 303,1531.66 C303,1527.16 303.6,1523.06 304.8,1519.36 M300.8,1623.46 C296.2,1622.26 291.7,1619.76 287.9,1616.26 C286.6,1615.06 284.8,1612.86 283.3,1609.46 C282,1606.46 281.3,1603.36 281.3,1599.96 L281.3,1599.26 C281.4,1594.56 282.7,1589.76 285.2,1584.96 C288.1,1579.36 292.6,1573.86 298.7,1568.56 C300.2,1567.26 301.6,1565.96 302.9,1564.66 C303.7,1568.96 304.4,1573.66 305.3,1578.56 C301.4,1579.86 296.7,1582.86 293.6,1588.56 C291.2,1593.06 290.5,1596.96 290.5,1600.16 C290.5,1601.66 290.7,1603.06 290.9,1604.16 C291.8,1608.66 294.4,1612.36 297.9,1614.46 C298.7,1614.96 302,1616.66 304,1616.66 C304.3,1616.66 304.6,1616.66 304.8,1616.56 C305.1,1616.46 305.4,1616.26 305.5,1615.96 C305.6,1615.76 305.6,1615.56 305.6,1615.36 C305.6,1614.56 304.8,1613.96 303.5,1613.16 C302.9,1612.76 302.2,1612.36 301.5,1611.86 C298.9,1609.86 297.4,1606.76 297.4,1603.36 C297.4,1602.36 297.6,1601.46 297.8,1600.46 C298.3,1598.46 300,1595.66 301.5,1594.26 C303.2,1592.76 305.2,1591.56 307.6,1590.96 C309.6,1602.16 311.7,1613.26 313.3,1621.66 C313.4,1622.36 313.6,1623.06 313.7,1623.76 C311.7,1624.16 309.7,1624.36 307.8,1624.36 C305.4,1624.36 303.1,1624.06 300.8,1623.46 M326.5,1613.26 C325.3,1616.46 322.8,1620.46 317.7,1622.56 C317.6,1622.16 317.6,1621.66 317.5,1621.26 C316,1612.46 314.1,1601.56 312.1,1590.26 L313.1,1590.26 C322.8,1590.26 326.7,1597.46 327.6,1602.06 C327.8,1602.96 327.9,1604.16 327.9,1605.46 C327.9,1607.76 327.5,1610.56 326.5,1613.26"/>
<path class="Clef" d="M2128.05,1528.06 C2120.45,1528.06 2114.35,1532.46 2114.25,1532.46 C2108.45,1536.76 2106.15,1541.86 2105.25,1545.36 C2104.75,1547.16 2104.55,1548.96 2104.55,1550.66 C2104.55,1553.06 2104.95,1555.26 2105.85,1557.16 C2107.05,1559.86 2109.35,1561.76 2112.35,1562.76 C2113.55,1563.16 2114.85,1563.36 2116.15,1563.36 C2118.35,1563.36 2120.65,1562.76 2122.55,1561.66 C2125.65,1559.96 2127.55,1556.36 2127.55,1552.46 C2127.55,1548.96 2125.75,1545.76 2122.75,1543.86 C2120.65,1542.46 2118.65,1542.06 2116.95,1542.06 C2115.75,1542.06 2114.65,1542.26 2113.75,1542.56 C2112.75,1542.96 2111.05,1543.96 2110.25,1544.66 C2110.55,1542.76 2111.75,1539.86 2112.85,1538.26 C2113.95,1536.66 2116.15,1534.66 2117.85,1533.76 C2120.35,1532.36 2123.55,1531.76 2127.05,1531.76 C2137.25,1531.76 2142.25,1539.96 2142.25,1556.76 C2142.25,1566.06 2138.75,1574.96 2135.75,1580.86 C2132.45,1587.46 2128.05,1593.76 2124.15,1597.26 C2113.75,1606.76 2103.95,1611.26 2103.85,1611.26 C2103.85,1611.26 2102.35,1612.16 2102.75,1613.66 C2103.05,1614.66 2103.95,1614.86 2104.55,1614.86 C2104.65,1614.86 2104.95,1614.76 2105.05,1614.76 C2105.15,1614.76 2116.55,1610.06 2125.65,1602.96 C2130.75,1599.26 2135.35,1595.26 2139.35,1590.96 C2142.95,1587.06 2146.05,1582.86 2148.55,1578.66 C2152.95,1571.16 2155.45,1563.36 2155.45,1556.66 C2155.45,1548.36 2153.25,1541.46 2149.15,1536.56 C2144.45,1530.96 2137.35,1528.06 2128.05,1528.06 M2159.45,1540.76 C2159.45,1543.56 2161.65,1545.76 2164.25,1545.76 C2166.85,1545.76 2169.05,1543.56 2169.05,1540.76 C2169.05,1537.96 2166.85,1535.66 2164.25,1535.66 C2161.65,1535.66 2159.45,1537.96 2159.45,1540.76 M2159.45,1565.46 C2159.45,1568.26 2161.65,1570.56 2164.25,1570.56 C2166.85,1570.56 2169.05,1568.26 2169.05,1565.46 C2169.05,1562.66 2166.85,1560.36 2164.25,1560.36 C2161.65,1560.36 2159.45,1562.66 2159.45,1565.46"/>
<path class="Clef" d="M335,722.203 C333.8,716.803 331.1,712.903 330.3,711.903 C327.1,707.603 323.1,704.803 318.4,703.403 C316.1,702.703 314,702.503 312,702.503 C311.3,702.503 310.6,702.503 309.9,702.603 C308.9,696.603 307.8,690.703 306.9,685.303 C312.5,679.103 316.2,673.203 318.6,668.803 C322.2,662.103 323.6,657.403 323.7,657.203 C324.9,654.203 325.6,650.403 325.6,645.903 C325.6,643.203 325.3,640.303 324.9,637.303 C323.8,630.203 321.6,623.503 319.1,619.803 C317.8,617.903 316.6,616.803 315.4,616.803 C314.2,616.803 311.7,618.003 308.8,620.803 C306.5,623.003 303.2,626.903 300.6,632.903 C298.3,638.303 297.6,645.203 297.6,651.103 C297.6,652.903 297.7,654.603 297.8,656.203 C298,659.803 298.7,665.603 299.3,669.203 C299.3,669.303 299.6,670.803 300,673.403 L299.3,674.103 C298.3,675.103 297.1,676.203 295.7,677.603 C294.8,678.503 293.9,679.303 292.9,680.303 C284.4,688.503 271.6,700.903 271.6,720.003 C271.6,724.703 272.5,729.103 274.3,733.103 C275.9,736.703 278.2,740.003 281.1,742.903 C288.6,750.303 298.8,753.503 305.9,753.503 L306.5,753.503 C309.4,753.403 312.1,753.103 314.5,752.703 C316.3,762.303 317.5,769.403 317.5,774.703 C317.5,781.203 315.9,785.103 312,787.903 C309.6,789.603 306.7,790.703 303.6,790.803 L302.8,790.803 C301.3,790.803 298.8,790.403 297.3,790.003 C297.3,790.003 297,789.903 297,789.703 C297,789.503 297.4,789.503 297.4,789.503 C299.3,789.103 302.9,787.803 305.3,784.503 C306.4,783.003 307.1,780.703 307.1,778.203 C307.1,776.603 306.8,774.903 306.1,773.403 C305,771.003 302.4,768.003 296.8,767.603 L295.7,767.603 C293.6,767.603 291.8,768.103 290.1,769.103 C288.3,770.203 286.7,771.903 285.7,773.903 C284.6,775.903 284.1,778.103 284.1,780.303 C284.1,783.203 285,785.903 286.8,788.103 C289.8,791.703 294.5,794.003 299.9,794.603 C300.6,794.703 301.7,794.803 302.4,794.803 C306.8,794.803 311.2,793.603 314.8,791.403 C318.5,788.803 320.6,784.803 321.3,779.203 C321.5,777.903 321.5,776.503 321.5,775.003 C321.5,771.103 321,766.403 320,760.603 C319.6,758.503 319.2,755.503 318.5,751.703 C324.3,749.803 328.4,746.103 332.2,740.303 C334.5,736.303 335.6,732.203 335.6,727.903 C335.6,726.003 335.4,724.103 335,722.203 M304.8,644.303 C306.6,638.603 309.3,635.203 311.3,633.503 C313.1,632.003 314.7,631.303 315.6,631.303 C315.7,631.303 315.9,631.403 316,631.403 C316.3,631.503 316.7,632.003 317.1,632.703 C318,634.503 318.9,637.803 318.9,641.503 C318.9,643.403 318.7,645.403 318.1,647.203 C315.9,654.003 311.3,661.303 304.3,669.003 C304.1,667.903 303.9,666.903 303.8,665.903 C303.3,662.703 303,659.503 303,656.603 C303,652.103 303.6,648.003 304.8,644.303 M300.8,748.403 C296.2,747.203 291.7,744.703 287.9,741.203 C286.6,740.003 284.8,737.803 283.3,734.403 C282,731.403 281.3,728.303 281.3,724.903 L281.3,724.203 C281.4,719.503 282.7,714.703 285.2,709.903 C288.1,704.303 292.6,698.803 298.7,693.503 C300.2,692.203 301.6,690.903 302.9,689.603 C303.7,693.903 304.4,698.603 305.3,703.503 C301.4,704.803 296.7,707.803 293.6,713.503 C291.2,718.003 290.5,721.903 290.5,725.103 C290.5,726.603 290.7,728.003 290.9,729.103 C291.8,733.603 294.4,737.303 297.9,739.403 C298.7,739.903 302,741.603 304,741.603 C304.3,741.603 304.6,741.603 304.8,741.503 C305.1,741.403 305.4,741.203 305.5,740.903 C305.6,740.703 305.6,740.503 305.6,740.303 C305.6,739.503 304.8,738.903 303.5,738.103 C302.9,737.703 302.2,737.303 301.5,736.803 C298.9,734.803 297.4,731.703 297.4,728.303 C297.4,727.303 297.6,726.403 297.8,725.403 C298.3,723.403 300,720.603 301.5,719.203 C303.2,717.703 305.2,716.503 307.6,715.903 C309.6,727.103 311.7,738.203 313.3,746.603 C313.4,747.303 313.6,748.003 313.7,748.703 C311.7,749.103 309.7,749.303 307.8,749.303 C305.4,749.303 303.1,749.003 300.8,748.403 M326.5,738.203 C325.3,741.403 322.8,745.403 317.7,747.503 C317.6,747.103 317.6,746.603 317.5,746.203 C316,737.403 314.1,726.503 312.1,715.203 L313.1,715.203 C322.8,715.203 326.7,722.403 327.6,727.003 C327.8,727.903 327.9,729.103 327.9,730.403 C327.9,732.703 327.5,735.503 326.5,738.203"/>
<path class="Clef" d="M335,1334.74 C333.8,1329.34 331.1,1325.44 330.3,1324.44 C327.1,1320.14 323.1,1317.34 318.4,1315.94 C316.1,1315.24 314,1315.04 312,1315.04 C311.3,1315.04 310.6,1315.04 309.9,1315.14 C308.9,1309.14 307.8,1303.24 306.9,1297.84 C312.5,1291.64 316.2,1285.74 318.6,1281.34 C322.2,1274.64 323.6,1269.94 323.7,1269.74 C324.9,1266.74 325.6,1262.94 325.6,1258.44 C325.6,1255.74 325.3,1252.84 324.9,1249.84 C323.8,1242.74 321.6,1236.04 319.1,1232.34 C317.8,1230.44 316.6,1229.34 315.4,1229.34 C314.2,1229.34 311.7,1230.54 308.8,1233.34 C306.5,1235.54 303.2,1239.44 300.6,1245.44 C298.3,1250.84 297.6,1257.74 297.6,1263.64 C297.6,1265.44 297.7,1267.14 297.8,1268.74 C298,1272.34 298.7,1278.14 299.3,1281.74 C299.3,1281.84 299.6,1283.34 300,1285.94 L299.3,1286.64 C298.3,1287.64 297.1,1288.74 295.7,1290.14 C294.8,1291.04 293.9,1291.84 292.9,1292.84 C284.4,1301.04 271.6,1313.44 271.6,1332.54 C271.6,1337.24 272.5,1341.64 274.3,1345.64 C275.9,1349.24 278.2,1352.54 281.1,1355.44 C288.6,1362.84 298.8,1366.04 305.9,1366.04 L306.5,1366.04 C309.4,1365.94 312.1,1365.64 314.5,1365.24 C316.3,1374.84 317.5,1381.94 317.5,1387.24 C317.5,1393.74 315.9,1397.64 312,1400.44 C309.6,1402.14 306.7,1403.24 303.6,1403.34 L302.8,1403.34 C301.3,1403.34 298.8,1402.94 297.3,1402.54 C297.3,1402.54 297,1402.44 297,1402.24 C297,1402.04 297.4,1402.04 297.4,1402.04 C299.3,1401.64 302.9,1400.34 305.3,1397.04 C306.4,1395.54 307.1,1393.24 307.1,1390.74 C307.1,1389.14 306.8,1387.44 306.1,1385.94 C305,1383.54 302.4,1380.54 296.8,1380.14 L295.7,1380.14 C293.6,1380.14 291.8,1380.64 290.1,1381.64 C288.3,1382.74 286.7,1384.44 285.7,1386.44 C284.6,1388.44 284.1,1390.64 284.1,1392.84 C284.1,1395.74 285,1398.44 286.8,1400.64 C289.8,1404.24 294.5,1406.54 299.9,1407.14 C300.6,1407.24 301.7,1407.34 302.4,1407.34 C306.8,1407.34 311.2,1406.14 314.8,1403.94 C318.5,1401.34 320.6,1397.34 321.3,1391.74 C321.5,1390.44 321.5,1389.04 321.5,1387.54 C321.5,1383.64 321,1378.94 320,1373.14 C319.6,1371.04 319.2,1368.04 318.5,1364.24 C324.3,1362.34 328.4,1358.64 332.2,1352.84 C334.5,1348.84 335.6,1344.74 335.6,1340.44 C335.6,1338.54 335.4,1336.64 335,1334.74 M304.8,1256.84 C306.6,1251.14 309.3,1247.74 311.3,1246.04 C313.1,1244.54 314.7,1243.84 315.6,1243.84 C315.7,1243.84 315.9,1243.94 316,1243.94 C316.3,1244.04 316.7,1244.54 317.1,1245.24 C318,1247.04 318.9,1250.34 318.9,1254.04 C318.9,1255.94 318.7,1257.94 318.1,1259.74 C315.9,1266.54 311.3,1273.84 304.3,1281.54 C304.1,1280.44 303.9,1279.44 303.8,1278.44 C303.3,1275.24 303,1272.04 303,1269.14 C303,1264.64 303.6,1260.54 304.8,1256.84 M300.8,1360.94 C296.2,1359.74 291.7,1357.24 287.9,1353.74 C286.6,1352.54 284.8,1350.34 283.3,1346.94 C282,1343.94 281.3,1340.84 281.3,1337.44 L281.3,1336.74 C281.4,1332.04 282.7,1327.24 285.2,1322.44 C288.1,1316.84 292.6,1311.34 298.7,1306.04 C300.2,1304.74 301.6,1303.44 302.9,1302.14 C303.7,1306.44 304.4,1311.14 305.3,1316.04 C301.4,1317.34 296.7,1320.34 293.6,1326.04 C291.2,1330.54 290.5,1334.44 290.5,1337.64 C290.5,1339.14 290.7,1340.54 290.9,1341.64 C291.8,1346.14 294.4,1349.84 297.9,1351.94 C298.7,1352.44 302,1354.14 304,1354.14 C304.3,1354.14 304.6,1354.14 304.8,1354.04 C305.1,1353.94 305.4,1353.74 305.5,1353.44 C305.6,1353.24 305.6,1353.04 305.6,1352.84 C305.6,1352.04 304.8,1351.44 303.5,1350.64 C302.9,1350.24 302.2,1349.84 301.5,1349.34 C298.9,1347.34 297.4,1344.24 297.4,1340.84 C297.4,1339.84 297.6,1338.94 297.8,1337.94 C298.3,1335.94 300,1333.14 301.5,1331.74 C303.2,1330.24 305.2,1329.04 307.6,1328.44 C309.6,1339.64 311.7,1350.74 313.3,1359.14 C313.4,1359.84 313.6,1360.54 313.7,1361.24 C311.7,1361.64 309.7,1361.84 307.8,1361.84 C305.4,1361.84 303.1,1361.54 300.8,1360.94 M326.5,1350.74 C325.3,1353.94 322.8,1357.94 317.7,1360.04 C317.6,1359.64 317.6,1359.14 317.5,1358.74 C316,1349.94 314.1,1339.04 312.1,1327.74 L313.1,1327.74 C322.8,1327.74 326.7,1334.94 327.6,1339.54 C327.8,1340.44 327.9,1341.64 327.9,1342.94 C327.9,1345.24 327.5,1348.04 326.5,1350.74"/>
<path class="TimeSig" d="M392.053,939.517 L392.253,939.517 C400.253,936.417 400.753,931.217 400.753,929.417 L400.753,928.917 C400.753,928.017 400.453,916.717 383.253,916.717 C366.053,916.717 366.553,928.917 366.553,928.917 L366.653,928.917 L366.553,929.117 C366.553,932.717 369.453,935.517 373.053,935.517 C376.653,935.517 379.453,932.717 379.453,929.117 C379.453,926.217 377.253,923.417 374.453,922.817 L374.753,922.517 C376.153,921.517 378.053,921.017 379.953,921.017 C384.153,921.017 388.653,923.517 388.653,928.917 C388.653,935.217 383.953,936.117 382.753,936.317 C381.553,936.517 375.953,936.917 374.753,936.917 C373.553,936.917 373.453,938.317 373.453,938.317 L373.453,940.317 C373.453,940.317 373.653,941.417 374.753,941.517 C376.453,941.617 378.753,941.617 381.953,942.117 C386.353,942.717 388.653,945.717 388.653,952.717 C388.653,959.417 384.153,961.217 379.953,961.217 C377.153,961.217 374.553,960.417 373.453,959.617 C376.753,959.417 379.453,956.517 379.453,953.217 C379.453,949.617 376.653,946.717 373.053,946.717 C369.453,946.717 366.553,949.617 366.553,953.217 C366.553,953.217 366.053,957.717 370.453,961.817 C374.353,965.417 379.253,965.517 381.453,965.517 C391.053,965.517 401.453,962.217 401.453,951.317 C401.453,944.017 396.453,940.917 392.053,939.517"/>
<path class="TimeSig" d="M365.2,1002.62 L382,1002.62 L382,1009.92 L373.9,1009.92 C373.1,1009.92 372.5,1010.52 372.5,1011.32 L372.5,1013.22 C372.5,1014.02 373.1,1014.52 373.9,1014.52 L403.6,1014.52 C404.4,1014.52 405,1014.02 405,1013.22 L405,1011.32 C405,1010.52 404.4,1009.92 403.6,1009.92 L394.8,1009.92 L394.8,1002.62 L403.6,1002.62 C404.4,1002.62 405,1002.02 405,1001.22 L405,999.42 C405,998.62 404.4,998.02 403.6,998.02 L394.8,998.02 L394.8,982.32 C394.8,981.82 394.4,981.32 394,981.12 L392.9,980.52 C392.7,980.42 392.4,980.42 392.2,980.42 C391.9,980.42 391.5,980.52 391.3,980.72 L382.4,988.92 C382.2,989.12 382,989.62 382,989.92 L382,998.02 L370.7,998.02 C370.7,998.02 381.6,986.22 393.2,970.72 C394,969.62 393.6,968.62 393.4,968.42 L391.3,966.22 C391.1,966.02 390.6,965.82 390.3,965.82 L375.7,965.82 C375,965.82 374.5,966.42 374.4,967.02 C374.4,967.02 373.9,974.22 371.3,982.22 C368.7,990.22 365.9,995.02 363.3,998.62 C363.3,998.62 362.8,999.62 363.1,1000.32 C363.4,1001.02 364.1,1002.12 364.1,1002.12 C364.1,1002.12 364.4,1002.62 365.2,1002.62"/>
<path class="TimeSig" d="M392.053,677 L392.253,677 C400.253,673.9 400.753,668.7 400.753,666.9 L400.753,666.4 C400.753,665.5 400.453,654.2 383.253,654.2 C366.053,654.2 366.553,666.4 366.553,666.4 L366.653,666.4 L366.553,666.6 C366.553,670.2 369.453,673 373.053,673 C376.653,673 379.453,670.2 379.453,666.6 C379.453,663.7 377.253,660.9 374.453,660.3 L374.753,660 C376.153,659 378.053,658.5 379.953,658.5 C384.153,658.5 388.653,661 388.653,666.4 C388.653,672.7 383.953,673.6 382.753,673.8 C381.553,674 375.953,674.4 374.753,674.4 C373.553,674.4 373.453,675.8 373.453,675.8 L373.453,677.8 C373.453,677.8 373.653,678.9 374.753,679 C376.453,679.1 378.753,679.1 381.953,679.6 C386.353,680.2 388.653,683.2 388.653,690.2 C388.653,696.9 384.153,698.7 379.953,698.7 C377.153,698.7 374.553,697.9 373.453,697.1 C376.753,696.9 379.453,694 379.453,690.7 C379.453,687.1 376.653,684.2 373.053,684.2 C369.453,684.2 366.553,687.1 366.553,690.7 C366.553,690.7 366.053,695.2 370.453,699.3 C374.353,702.9 379.253,703 381.453,703 C391.053,703 401.453,699.7 401.453,688.8 C401.453,681.5 396.453,678.4 392.053,677"/>
<path class="TimeSig" d="M365.2,740.104 L382,740.104 L382,747.404 L373.9,747.404 C373.1,747.404 372.5,748.004 372.5,748.804 L372.5,750.704 C372.5,751.504 373.1,752.004 373.9,752.004 L403.6,752.004 C404.4,752.004 405,751.504 405,750.704 L405,748.804 C405,748.004 404.4,747.404 403.6,747.404 L394.8,747.404 L394.8,740.104 L403.6,740.104 C404.4,740.104 405,739.504 405,738.704 L405,736.904 C405,736.104 404.4,735.504 403.6,735.504 L394.8,735.504 L394.8,719.804 C394.8,719.304 394.4,718.804 394,718.604 L392.9,718.004 C392.7,717.904 392.4,717.904 392.2,717.904 C391.9,717.904 391.5,718.004 391.3,718.204 L382.4,726.404 C382.2,726.604 382,727.104 382,727.404 L382,735.504 L370.7,735.504 C370.7,735.504 381.6,723.704 393.2,708.204 C394,707.104 393.6,706.104 393.4,705.904 L391.3,703.704 C391.1,703.504 390.6,703.304 390.3,703.304 L375.7,703.304 C375,703.304 374.5,703.904 374.4,704.504 C374.4,704.504 373.9,711.704 371.3,719.704 C368.7,727.704 365.9,732.504 363.3,736.104 C363.3,736.104 362.8,737.104 363.1,737.804 C363.4,738.504 364.1,739.604 364.1,739.604 C364.1,739.604 364.4,740.104 365.2,740.104"/>
<path class="Page" d="M217.958,4039.47 C220.388,4040.06 221.603,4040.24 223.403,4040.24 C227.228,4040.24 230.018,4038.93 231.503,4036.41 C231.998,4035.6 232.178,4035.15 232.178,4034.79 C232.178,4034.52 232.088,4034.39 231.818,4034.39 C231.683,4034.39 231.503,4034.43 231.233,4034.57 C229.028,4035.51 227.858,4035.74 225.248,4035.74 C222.368,4035.74 220.568,4035.47 215.978,4034.39 C215.798,4038.17 215.393,4042.98 214.763,4048.56 C213.818,4049.55 213.503,4050.14 213.503,4050.86 C213.503,4051.8 214.088,4052.39 214.943,4052.39 C216.113,4052.39 216.788,4051.44 216.968,4049.64 C218.543,4048.52 220.028,4048.02 221.828,4048.02 C225.878,4048.02 228.263,4051.08 228.263,4056.26 C228.263,4059.27 227.498,4061.84 226.148,4063.23 C225.248,4064.18 223.403,4064.81 221.558,4064.81 C218.858,4064.81 216.068,4063.41 216.068,4062.02 C216.068,4061.7 216.338,4061.34 216.878,4061.03 C218.273,4060.17 218.678,4059.59 218.678,4058.37 C218.678,4056.8 217.463,4055.58 215.843,4055.58 C214.043,4055.58 212.603,4057.25 212.603,4059.36 C212.603,4061.61 213.908,4063.86 215.933,4065.26 C217.463,4066.25 219.263,4066.74 221.648,4066.74 C228.713,4066.74 233.168,4062.6 233.168,4055.99 C233.168,4049.87 229.118,4045.77 222.998,4045.77 C221.063,4045.77 219.668,4046.09 217.193,4047.12 L217.958,4039.47 M253.774,4050.45 C253.234,4055.72 252.964,4057.29 252.154,4059.54 C250.984,4062.87 248.554,4064.81 245.494,4064.81 C244.009,4064.81 243.019,4064.36 243.019,4063.68 C243.019,4063.5 243.109,4063.28 243.289,4062.92 C243.784,4061.88 243.874,4061.57 243.874,4060.94 C243.874,4059.41 242.749,4058.28 241.219,4058.28 C239.509,4058.28 238.159,4059.72 238.159,4061.52 C238.159,4064.49 241.309,4066.74 245.449,4066.74 C249.544,4066.74 253.054,4064.9 255.259,4061.57 C257.464,4058.24 258.679,4053.92 258.679,4049.24 C258.679,4040.19 254.404,4034.39 247.654,4034.39 C241.849,4034.39 237.349,4039.16 237.349,4045.23 C237.349,4050.63 241.084,4054.55 246.259,4054.55 C249.454,4054.55 251.344,4053.51 253.774,4050.45 M247.834,4036.32 C251.164,4036.32 253.369,4039.61 253.369,4044.69 C253.369,4046.54 253.009,4048.2 252.334,4049.24 C251.299,4050.86 249.544,4051.85 247.609,4051.85 C244.189,4051.85 242.254,4049.19 242.254,4044.42 C242.254,4042.26 242.749,4040.15 243.604,4038.75 C244.639,4037.04 245.854,4036.32 247.834,4036.32"/>
<path class="Bracket" transform="matrix(3.62523,0,0,3.62523,214.469,1015.62)" d="M0.92002,-50 C2.69004,-51.88 6.2,-55.8 6.2,-63 C6.2,-72.1 2.25996,-81.32 2.25996,-86.97 C2.25996,-93.06 5.84004,-98.84 5.95,-99 C6.05996,-99.16 6.05,-99.39 5.94004,-99.46 C5.82998,-99.53 5.62002,-99.47 5.49004,-99.32 C5.35996,-99.17 0,-93.75 0,-85.6 C0,-76.75 3.5,-70.58 3.5,-59.07 C3.5,-56.89 2.55996,-53.36 0.1,-50.33 C-0.0799805,-50.17 -0.1,-49.89 0.0599609,-49.7 L0.0700195,-49.69 L0.1,-49.66 C2.55996,-46.63 3.5,-43.1 3.5,-40.92 C3.5,-29.4 0,-23.24 0,-14.39 C0,-6.25 5.35996,-0.8 5.49004,-0.659961 C5.62002,-0.52002 5.8,-0.42998 5.94004,-0.52002 C6.07998,-0.609961 6.07998,-0.77998 5.95,-0.97998 C5.82002,-1.17998 2.25996,-6.92002 2.25996,-13.01 C2.25996,-18.66 6.2,-27.9 6.2,-37 C6.2,-44.3 2.69004,-48.12 0.92002,-50"/>
<path class="Bracket" transform="matrix(3.62523,0,0,3.62523,214.469,1628.16)" d="M0.92002,-50 C2.69004,-51.88 6.2,-55.8 6.2,-63 C6.2,-72.1 2.25996,-81.32 2.25996,-86.97 C2.25996,-93.06 5.84004,-98.84 5.95,-99 C6.05996,-99.16 6.05,-99.39 5.94004,-99.46 C5.82998,-99.53 5.62002,-99.47 5.49004,-99.32 C5.35996,-99.17 0,-93.75 0,-85.6 C0,-76.75 3.5,-70.58 3.5,-59.07 C3.5,-56.89 2.55996,-53.36 0.1,-50.33 C-0.0799805,-50.17 -0.1,-49.89 0.0599609,-49.7 L0.0700195,-49.69 L0.1,-49.66 C2.55996,-46.63 3.5,-43.1 3.5,-40.92 C3.5,-29.4 0,-23.24 0,-14.39 C0,-6.25 5.35996,-0.8 5.49004,-0.659961 C5.62002,-0.52002 5.8,-0.42998 5.94004,-0.52002 C6.07998,-0.609961 6.07998,-0.77998 5.95,-0.97998 C5.82002,-1.17998 2.25996,-6.92002 2.25996,-13.01 C2.25996,-18.66 6.2,-27.9 6.2,-37 C6.2,-44.3 2.69004,-48.12 0.92002,-50"/>
</svg>
