<?xml version="1.0" encoding="UTF-8" standalone="no"?>
<svg width="1000px" height="500px" viewBox="150 650 2700 1000" xmlns="http://www.w3.org/2000/svg" xmlns:xlink="http://www.w3.org/1999/xlink" version="1.2" baseProfile="tiny">
 xmlns="http://www.w3.org/2000/svg" xmlns:xlink="http://www.w3.org/1999/xlink" version="1.2" baseProfile="tiny">
<title>exercises_scores (51)</title>
<desc>Generated by MuseScore 3.6.0</desc>
<polyline class="StaffLines" fill="none" stroke="#000000" stroke-width="2.75" stroke-linejoin="bevel" points="247.099,656.536 2764.63,656.536"/>
<polyline class="StaffLines" fill="none" stroke="#000000" stroke-width="2.75" stroke-linejoin="bevel" points="247.099,681.538 2764.63,681.538"/>
<polyline class="StaffLines" fill="none" stroke="#000000" stroke-width="2.75" stroke-linejoin="bevel" points="247.099,706.539 2764.63,706.539"/>
<polyline class="StaffLines" fill="none" stroke="#000000" stroke-width="2.75" stroke-linejoin="bevel" points="247.099,731.541 2764.63,731.541"/>
<polyline class="StaffLines" fill="none" stroke="#000000" stroke-width="2.75" stroke-linejoin="bevel" points="247.099,756.542 2764.63,756.542"/>
<polyline class="StaffLines" fill="none" stroke="#000000" stroke-width="2.75" stroke-linejoin="bevel" points="247.099,919.053 2764.63,919.053"/>
<polyline class="StaffLines" fill="none" stroke="#000000" stroke-width="2.75" stroke-linejoin="bevel" points="247.099,944.054 2764.63,944.054"/>
<polyline class="StaffLines" fill="none" stroke="#000000" stroke-width="2.75" stroke-linejoin="bevel" points="247.099,969.056 2764.63,969.056"/>
<polyline class="StaffLines" fill="none" stroke="#000000" stroke-width="2.75" stroke-linejoin="bevel" points="247.099,994.057 2764.63,994.057"/>
<polyline class="StaffLines" fill="none" stroke="#000000" stroke-width="2.75" stroke-linejoin="bevel" points="247.099,1019.06 2764.63,1019.06"/>
<polyline class="StaffLines" fill="none" stroke="#000000" stroke-width="2.75" stroke-linejoin="bevel" points="247.099,1269.07 2764.63,1269.07"/>
<polyline class="StaffLines" fill="none" stroke="#000000" stroke-width="2.75" stroke-linejoin="bevel" points="247.099,1294.08 2764.63,1294.08"/>
<polyline class="StaffLines" fill="none" stroke="#000000" stroke-width="2.75" stroke-linejoin="bevel" points="247.099,1319.08 2764.63,1319.08"/>
<polyline class="StaffLines" fill="none" stroke="#000000" stroke-width="2.75" stroke-linejoin="bevel" points="247.099,1344.08 2764.63,1344.08"/>
<polyline class="StaffLines" fill="none" stroke="#000000" stroke-width="2.75" stroke-linejoin="bevel" points="247.099,1369.08 2764.63,1369.08"/>
<polyline class="StaffLines" fill="none" stroke="#000000" stroke-width="2.75" stroke-linejoin="bevel" points="247.099,1531.59 2764.63,1531.59"/>
<polyline class="StaffLines" fill="none" stroke="#000000" stroke-width="2.75" stroke-linejoin="bevel" points="247.099,1556.59 2764.63,1556.59"/>
<polyline class="StaffLines" fill="none" stroke="#000000" stroke-width="2.75" stroke-linejoin="bevel" points="247.099,1581.59 2764.63,1581.59"/>
<polyline class="StaffLines" fill="none" stroke="#000000" stroke-width="2.75" stroke-linejoin="bevel" points="247.099,1606.6 2764.63,1606.6"/>
<polyline class="StaffLines" fill="none" stroke="#000000" stroke-width="2.75" stroke-linejoin="bevel" points="247.099,1631.6 2764.63,1631.6"/>
<path class="Text" d="M212.602,213.497 L212.602,216.317 L213.682,216.317 C217.102,216.377 218.242,216.557 218.722,217.157 C219.082,217.697 219.082,217.817 219.082,220.877 L219.082,249.437 C219.082,252.497 219.082,252.617 218.722,253.157 C218.242,253.757 217.102,253.997 213.682,253.997 L212.602,253.997 L212.602,256.817 L234.382,256.817 C244.762,256.817 251.002,252.437 251.002,245.057 C251.002,239.057 247.222,235.637 239.002,234.197 C241.882,233.597 243.202,233.057 244.762,231.917 C247.222,230.057 248.722,227.117 248.722,224.117 C248.722,220.217 246.322,216.437 242.842,214.937 C240.682,213.977 237.682,213.497 234.142,213.497 L212.602,213.497 M225.802,232.997 L225.802,219.317 C225.802,216.977 226.582,216.377 229.762,216.317 L232.162,216.317 C234.922,216.317 237.202,216.797 238.462,217.577 C240.622,218.897 241.762,221.417 241.762,224.777 C241.762,230.717 238.882,232.997 231.142,232.997 L225.802,232.997 M225.802,235.817 L231.082,235.817 C240.262,235.817 243.622,238.277 243.622,244.877 C243.622,248.717 242.302,251.477 239.962,252.617 C238.102,253.577 235.582,253.997 231.802,253.997 L229.282,253.997 C226.282,253.997 225.682,253.397 225.802,250.217 L225.802,235.817 M265.994,228.857 L255.374,229.517 L255.374,232.097 L257.834,232.097 C260.114,232.157 260.414,232.517 260.414,235.097 L260.414,249.437 L260.414,252.257 C260.354,253.157 260.294,253.517 260.054,253.817 C259.634,254.357 258.434,254.597 255.854,254.657 L255.614,254.657 L255.614,256.817 L271.634,256.817 L271.634,254.657 L270.554,254.657 C266.534,254.537 265.994,254.237 265.994,252.077 L265.994,249.437 L265.994,248.837 C266.054,238.757 269.654,231.077 274.334,230.837 C273.494,231.797 273.254,232.397 273.254,233.537 C273.254,235.457 274.634,236.837 276.554,236.837 C278.774,236.837 280.214,235.217 280.214,232.817 C280.214,229.877 278.174,227.957 274.994,227.957 C271.214,227.957 267.974,230.957 265.994,236.297 L265.994,228.857 M295.562,227.957 C288.182,227.957 282.482,234.497 282.482,242.897 C282.482,251.117 288.242,257.717 295.442,257.717 C302.642,257.717 308.402,251.117 308.402,242.837 C308.402,234.617 302.642,227.957 295.562,227.957 M295.562,230.537 C299.762,230.537 302.102,234.917 302.102,242.837 C302.102,250.817 299.762,255.137 295.442,255.137 C291.122,255.137 288.782,250.817 288.782,242.897 C288.782,234.737 291.062,230.537 295.562,230.537 M322.382,242.297 L322.382,212.597 L311.282,213.257 L311.282,215.837 L314.162,215.837 C316.442,215.897 316.742,216.257 316.742,218.837 L316.742,249.437 L316.742,252.317 C316.682,253.157 316.622,253.517 316.382,253.817 C315.962,254.357 314.822,254.597 312.242,254.657 L312.002,254.657 L312.002,256.817 L327.182,256.817 L327.182,254.657 L326.942,254.657 C322.922,254.537 322.382,254.237 322.382,252.077 L322.382,249.437 L322.382,246.017 L326.042,242.537 L333.182,252.557 C333.482,253.037 333.602,253.337 333.602,253.577 C333.602,254.417 332.942,254.657 330.962,254.657 L329.822,254.657 L329.822,256.817 L345.662,256.817 L345.662,254.657 C342.302,254.357 341.102,253.637 338.642,250.517 L330.122,238.877 L332.822,236.237 C336.362,232.817 338.882,231.497 342.962,231.017 L342.962,228.857 L327.182,228.857 L327.182,231.017 L329.042,231.017 C330.962,231.017 331.862,231.377 331.862,232.157 C331.862,232.817 331.442,233.537 330.482,234.497 L322.382,242.297 M372.842,243.317 C372.902,234.317 367.802,227.957 360.482,227.957 C352.802,227.957 347.042,234.617 347.042,243.617 C347.042,252.077 352.502,257.717 360.602,257.717 C366.362,257.717 370.382,254.897 372.842,249.197 L370.742,248.057 C368.282,252.677 365.762,254.477 361.742,254.477 C358.682,254.477 356.462,253.217 354.902,250.517 C353.822,248.717 353.342,246.617 353.402,243.317 L372.842,243.317 M353.462,240.737 C353.462,238.877 353.702,237.557 354.302,235.877 C355.562,232.277 357.482,230.537 360.422,230.537 C364.022,230.537 366.422,233.717 366.422,238.577 C366.422,240.257 365.882,240.737 363.962,240.737 L353.462,240.737 M386.942,228.857 L376.562,229.517 L376.562,232.097 L378.722,232.097 C381.002,232.157 381.302,232.517 381.302,235.097 L381.302,249.437 L381.302,250.877 L381.302,252.257 C381.242,253.157 381.182,253.517 380.942,253.817 C380.522,254.357 379.382,254.597 376.802,254.657 L376.562,254.657 L376.562,256.817 L391.742,256.817 L391.742,254.657 L391.502,254.657 C387.482,254.537 386.942,254.237 386.942,252.077 L386.942,249.437 L386.942,243.197 C386.942,240.257 387.362,237.557 388.022,236.177 C389.282,233.477 391.982,231.617 394.562,231.617 C396.122,231.617 397.922,232.457 398.822,233.717 C399.722,235.037 400.142,236.837 400.142,239.717 L400.142,249.437 L400.142,252.257 C400.082,253.157 400.022,253.517 399.782,253.817 C399.362,254.357 398.162,254.597 395.582,254.657 L395.342,254.657 L395.342,256.817 L410.522,256.817 L410.522,254.657 L410.282,254.657 C406.322,254.537 405.782,254.237 405.782,252.077 L405.782,249.437 L405.782,240.017 C405.782,235.697 405.602,234.617 404.522,232.577 C403.022,229.697 400.022,227.957 396.422,227.957 C392.522,227.957 389.582,229.757 386.942,233.717 L386.942,228.857 M466.61,213.077 L464.33,213.077 L461.93,216.617 C457.55,213.437 455.33,212.597 451.19,212.597 C445.49,212.597 440.63,214.997 436.61,219.797 C432.77,224.357 430.97,229.397 430.97,235.577 C430.97,248.537 439.43,257.717 451.25,257.717 C460.85,257.717 466.97,252.077 468.35,241.997 L465.53,241.517 C463.91,250.457 459.35,254.897 451.97,254.897 C443.09,254.897 438.89,248.777 438.89,235.817 C438.89,228.977 439.79,224.477 441.83,220.877 C443.69,217.517 447.35,215.417 451.25,215.417 C455.45,215.417 459.17,217.637 461.45,221.477 C462.59,223.457 463.43,225.677 464.87,230.417 L467.51,230.417 L466.61,213.077 M483.583,212.597 L472.483,213.257 L472.483,215.837 L475.363,215.837 C477.643,215.897 477.943,216.257 477.943,218.837 L477.943,249.437 L477.943,250.877 L477.943,252.317 C477.883,253.157 477.823,253.517 477.583,253.817 C477.163,254.357 476.023,254.597 473.443,254.657 L473.203,254.657 L473.203,256.817 L488.383,256.817 L488.383,254.657 L488.143,254.657 C484.123,254.537 483.583,254.237 483.583,252.077 L483.583,249.437 L483.583,243.197 C483.583,240.257 484.003,237.557 484.663,236.177 C485.983,233.477 488.623,231.617 491.203,231.617 C492.763,231.617 494.563,232.517 495.403,233.717 C496.363,235.037 496.783,236.837 496.783,239.777 L496.783,249.437 L496.783,252.317 C496.723,253.157 496.663,253.517 496.423,253.817 C496.003,254.357 494.803,254.597 492.223,254.657 L491.983,254.657 L491.983,256.817 L507.163,256.817 L507.163,254.657 L506.923,254.657 C502.963,254.537 502.423,254.237 502.423,252.077 L502.423,249.437 L502.423,240.017 C502.423,235.697 502.243,234.617 501.163,232.577 C499.663,229.637 496.663,227.957 493.063,227.957 C489.163,227.957 486.283,229.697 483.583,233.717 L483.583,212.597 M523.359,227.957 C515.979,227.957 510.279,234.497 510.279,242.897 C510.279,251.117 516.039,257.717 523.239,257.717 C530.439,257.717 536.199,251.117 536.199,242.837 C536.199,234.617 530.439,227.957 523.359,227.957 M523.359,230.537 C527.559,230.537 529.899,234.917 529.899,242.837 C529.899,250.817 527.559,255.137 523.239,255.137 C518.919,255.137 516.579,250.817 516.579,242.897 C516.579,234.737 518.859,230.537 523.359,230.537 M550.119,228.857 L539.499,229.517 L539.499,232.097 L541.959,232.097 C544.239,232.157 544.539,232.517 544.539,235.097 L544.539,249.437 L544.539,252.257 C544.479,253.157 544.419,253.517 544.179,253.817 C543.759,254.357 542.559,254.597 539.979,254.657 L539.739,254.657 L539.739,256.817 L555.759,256.817 L555.759,254.657 L554.679,254.657 C550.659,254.537 550.119,254.237 550.119,252.077 L550.119,249.437 L550.119,248.837 C550.179,238.757 553.779,231.077 558.459,230.837 C557.619,231.797 557.379,232.397 557.379,233.537 C557.379,235.457 558.759,236.837 560.679,236.837 C562.899,236.837 564.339,235.217 564.339,232.817 C564.339,229.877 562.299,227.957 559.119,227.957 C555.339,227.957 552.099,230.957 550.119,236.297 L550.119,228.857 M587.18,257.237 L597.62,256.817 L597.62,254.237 L596.54,254.237 C593.12,254.057 592.82,253.697 592.82,249.857 L592.82,212.597 L581.06,213.257 L581.06,215.837 L584.6,215.837 C586.88,215.897 587.18,216.257 587.18,218.837 L587.18,232.397 C584.96,229.337 582.38,227.957 578.9,227.957 C572.12,227.957 566.96,234.497 566.96,243.137 C566.96,251.657 571.94,257.717 578.9,257.717 C582.68,257.717 585.26,256.097 587.18,252.497 L587.18,257.237 M580.1,231.197 C582.56,231.197 584.9,232.997 585.98,235.757 C586.76,237.557 587.12,240.017 587.12,242.957 C587.12,249.977 584.36,254.477 580.04,254.477 C575.78,254.477 573.26,250.517 573.26,243.857 C573.26,240.257 573.62,237.557 574.4,235.577 C575.42,232.877 577.64,231.197 580.1,231.197 M607.757,250.157 C605.657,250.157 603.977,251.837 603.977,253.877 C603.977,255.977 605.657,257.657 607.697,257.657 C609.797,257.657 611.477,255.977 611.477,253.877 C611.477,251.837 609.797,250.157 607.757,250.157 M607.757,228.437 C605.657,228.437 603.977,230.117 603.977,232.217 C603.977,234.257 605.657,235.937 607.697,235.937 C609.797,235.937 611.477,234.257 611.477,232.157 C611.477,230.117 609.797,228.437 607.757,228.437 M654.841,212.657 L652.321,212.657 L638.521,247.637 C636.901,252.317 635.341,253.757 631.921,253.997 L631.681,253.997 L631.681,256.817 L647.581,256.817 L647.581,253.997 L646.381,253.997 C643.141,253.997 641.521,252.857 641.521,250.577 C641.521,249.797 641.701,249.077 642.061,248.057 L644.041,242.777 L659.941,242.777 L663.181,250.817 C663.541,251.777 663.661,252.137 663.661,252.437 C663.661,253.397 662.161,253.997 659.941,253.997 L657.421,253.997 L657.421,256.817 L676.021,256.817 L676.021,253.997 L675.181,253.997 C672.061,253.937 671.521,253.577 670.141,250.157 L654.841,212.657 M651.901,222.497 L658.681,239.537 L645.241,239.537 L651.901,222.497 M704.205,228.857 L693.525,229.517 L693.525,232.097 L695.985,232.097 C698.265,232.157 698.565,232.517 698.565,235.097 L698.565,249.437 L698.565,251.777 L698.565,252.257 C698.505,253.157 698.445,253.517 698.205,253.817 C697.785,254.357 696.645,254.597 694.065,254.657 L693.825,254.657 L693.825,256.817 L708.945,256.817 L708.945,254.657 L708.705,254.657 C704.745,254.537 704.205,254.237 704.205,252.017 L704.205,249.437 L704.205,240.917 C704.205,235.577 707.145,231.617 711.045,231.617 C714.465,231.617 716.205,234.077 716.205,238.937 L716.205,249.437 L716.205,252.317 C716.145,253.097 716.085,253.517 715.785,253.817 C715.425,254.357 714.225,254.597 711.645,254.657 L711.405,254.657 L711.405,256.817 L726.585,256.817 L726.585,254.657 L726.345,254.657 C722.385,254.537 721.845,254.237 721.845,252.077 L721.845,249.437 L721.845,241.457 C721.845,235.457 724.545,231.617 728.745,231.617 C732.165,231.617 733.845,234.197 733.845,239.597 L733.845,249.437 L733.845,252.257 C733.785,253.097 733.725,253.517 733.425,253.817 C733.065,254.357 731.865,254.597 729.285,254.657 L729.045,254.657 L729.045,256.817 L744.225,256.817 L744.225,254.657 L743.985,254.657 C740.025,254.537 739.485,254.237 739.485,252.017 L739.485,249.437 L739.485,238.397 C739.485,234.677 739.125,233.417 737.565,231.377 C735.825,229.157 733.365,227.957 730.485,227.957 C726.585,227.957 723.705,229.817 721.125,233.957 C720.105,230.357 716.865,227.957 712.845,227.957 C709.185,227.957 706.545,229.697 704.205,233.477 L704.205,228.857 M772.593,237.497 C772.593,233.717 771.933,231.797 770.193,230.357 C768.213,228.737 765.273,227.957 761.433,227.957 C754.653,227.957 749.733,231.137 749.733,235.517 C749.733,237.737 751.113,239.177 753.213,239.177 C755.133,239.177 756.453,237.917 756.453,236.117 C756.453,235.337 756.153,234.497 755.553,233.657 C755.193,233.237 755.133,233.117 755.133,232.817 C755.133,231.617 757.533,230.537 760.413,230.537 C762.333,230.537 764.433,231.137 765.393,232.037 C766.533,232.997 766.953,234.437 766.953,237.137 L766.953,239.477 C760.713,240.557 758.733,241.037 755.793,242.177 C750.573,244.097 748.113,246.857 748.113,250.697 C748.113,255.017 751.473,257.717 756.813,257.717 C760.953,257.717 764.673,256.037 767.253,252.977 C768.213,256.037 769.713,257.237 772.533,257.237 C775.233,257.237 778.053,255.497 778.053,253.757 C778.053,253.337 777.813,253.037 777.453,253.037 C777.213,253.037 776.973,253.097 776.553,253.277 C775.713,253.637 775.353,253.697 774.873,253.697 C773.193,253.697 772.593,252.617 772.593,249.557 L772.593,237.497 M766.953,244.817 C766.953,248.417 766.773,249.257 765.753,250.817 C764.253,253.037 761.553,254.537 758.913,254.537 C756.153,254.537 754.173,252.557 754.173,249.857 C754.173,247.337 755.433,245.537 758.073,244.277 C759.933,243.437 762.273,242.837 766.953,242.057 L766.953,244.817 M789.518,228.857 L777.818,229.517 L777.818,232.097 L781.298,232.097 C783.578,232.157 783.878,232.517 783.878,235.097 L783.878,255.437 C783.878,260.297 783.578,262.577 782.738,264.317 C782.138,265.517 780.758,266.417 779.438,266.417 C778.598,266.417 777.938,266.057 777.938,265.637 C777.938,265.397 777.998,265.277 778.238,264.677 C778.538,264.077 778.658,263.657 778.658,263.237 C778.658,261.737 777.218,260.417 775.538,260.417 C773.618,260.417 772.178,261.917 772.178,264.017 C772.178,266.957 774.878,268.937 778.898,268.937 C782.258,268.937 785.318,267.497 787.058,265.037 C788.918,262.397 789.518,259.337 789.518,252.557 L789.518,228.857 M786.698,213.917 C784.778,213.917 783.218,215.477 783.218,217.397 C783.218,219.317 784.778,220.877 786.638,220.877 C788.618,220.877 790.178,219.317 790.178,217.397 C790.178,215.477 788.618,213.917 786.698,213.917 M809.968,227.957 C802.588,227.957 796.888,234.497 796.888,242.897 C796.888,251.117 802.648,257.717 809.848,257.717 C817.048,257.717 822.808,251.117 822.808,242.837 C822.808,234.617 817.048,227.957 809.968,227.957 M809.968,230.537 C814.168,230.537 816.508,234.917 816.508,242.837 C816.508,250.817 814.168,255.137 809.848,255.137 C805.528,255.137 803.188,250.817 803.188,242.897 C803.188,234.737 805.468,230.537 809.968,230.537 M836.728,228.857 L826.108,229.517 L826.108,232.097 L828.568,232.097 C830.848,232.157 831.148,232.517 831.148,235.097 L831.148,249.437 L831.148,252.257 C831.088,253.157 831.028,253.517 830.788,253.817 C830.368,254.357 829.168,254.597 826.588,254.657 L826.348,254.657 L826.348,256.817 L842.368,256.817 L842.368,254.657 L841.288,254.657 C837.268,254.537 836.728,254.237 836.728,252.077 L836.728,249.437 L836.728,248.837 C836.788,238.757 840.388,231.077 845.068,230.837 C844.228,231.797 843.988,232.397 843.988,233.537 C843.988,235.457 845.368,236.837 847.288,236.837 C849.508,236.837 850.948,235.217 850.948,232.817 C850.948,229.877 848.908,227.957 845.728,227.957 C841.948,227.957 838.708,230.957 836.728,236.297 L836.728,228.857 "/>
<path class="TieSegment" stroke="#000000" stroke-width="1.75" stroke-linecap="round" stroke-linejoin="round" fill-rule="evenodd" d="M2594.29,912.802 C2628.36,883.41 2730.56,883.41 2764.63,912.802 C2730.56,890.41 2628.36,890.41 2594.29,912.802"/>
<path class="TieSegment" stroke="#000000" stroke-width="1.75" stroke-linecap="round" stroke-linejoin="round" fill-rule="evenodd" d="M335.596,1525.34 C352.122,1509.28 401.698,1509.28 418.224,1525.34 C401.698,1516.28 352.122,1516.28 335.596,1525.34"/>
<path class="TieSegment" stroke="#000000" stroke-width="1.75" stroke-linecap="round" stroke-linejoin="round" fill-rule="evenodd" d="M2594.29,562.78 C2628.36,533.388 2730.56,533.388 2764.63,562.78 C2730.56,540.388 2628.36,540.388 2594.29,562.78"/>
<path class="TieSegment" stroke="#000000" stroke-width="1.75" stroke-linecap="round" stroke-linejoin="round" fill-rule="evenodd" d="M335.596,1175.32 C352.122,1159.26 401.698,1159.26 418.224,1175.32 C401.698,1166.26 352.122,1166.26 335.596,1175.32"/>
<polyline class="BarLine" stroke="#000000" stroke-width="4.50" stroke-linejoin="bevel" points="249.349,917.677 249.349,1020.43"/>
<polyline class="BarLine" stroke="#000000" stroke-width="4.50" stroke-linejoin="bevel" points="1026.91,917.677 1026.91,1020.43"/>
<polyline class="BarLine" stroke="#000000" stroke-width="4.50" stroke-linejoin="bevel" points="1577.96,917.677 1577.96,1020.43"/>
<polyline class="BarLine" stroke="#000000" stroke-width="4.50" stroke-linejoin="bevel" points="2155.73,917.677 2155.73,1020.43"/>
<polyline class="BarLine" stroke="#000000" stroke-width="4.50" stroke-linejoin="bevel" points="2762.38,917.677 2762.38,1020.43"/>
<polyline class="BarLine" stroke="#000000" stroke-width="4.50" stroke-linejoin="bevel" points="249.349,1530.22 249.349,1632.97"/>
<polyline class="BarLine" stroke="#000000" stroke-width="4.50" stroke-linejoin="bevel" points="964.103,1530.22 964.103,1632.97"/>
<polyline class="BarLine" stroke="#000000" stroke-width="4.50" stroke-linejoin="bevel" points="1544.73,1530.22 1544.73,1632.97"/>
<polyline class="BarLine" stroke="#000000" stroke-width="4.50" stroke-linejoin="bevel" points="2144.19,1530.22 2144.19,1632.97"/>
<polyline class="BarLine" stroke="#000000" stroke-width="4.50" stroke-linejoin="bevel" points="2734.88,1530.22 2734.88,1632.97"/>
<polyline class="BarLine" stroke="#000000" stroke-width="13.75" stroke-linejoin="bevel" points="2757.76,1530.22 2757.76,1632.97"/>
<polyline class="BarLine" stroke="#000000" stroke-width="4.50" stroke-linejoin="bevel" points="249.349,655.161 249.349,919.053"/>
<polyline class="BarLine" stroke="#000000" stroke-width="4.50" stroke-linejoin="bevel" points="1026.91,655.161 1026.91,919.053"/>
<polyline class="BarLine" stroke="#000000" stroke-width="4.50" stroke-linejoin="bevel" points="1577.96,655.161 1577.96,919.053"/>
<polyline class="BarLine" stroke="#000000" stroke-width="4.50" stroke-linejoin="bevel" points="2155.73,655.161 2155.73,919.053"/>
<polyline class="BarLine" stroke="#000000" stroke-width="4.50" stroke-linejoin="bevel" points="2762.38,655.161 2762.38,919.053"/>
<polyline class="BarLine" stroke="#000000" stroke-width="4.50" stroke-linejoin="bevel" points="249.349,1267.7 249.349,1531.59"/>
<polyline class="BarLine" stroke="#000000" stroke-width="4.50" stroke-linejoin="bevel" points="964.103,1267.7 964.103,1531.59"/>
<polyline class="BarLine" stroke="#000000" stroke-width="4.50" stroke-linejoin="bevel" points="1544.73,1267.7 1544.73,1531.59"/>
<polyline class="BarLine" stroke="#000000" stroke-width="4.50" stroke-linejoin="bevel" points="2144.19,1267.7 2144.19,1531.59"/>
<polyline class="BarLine" stroke="#000000" stroke-width="4.50" stroke-linejoin="bevel" points="2734.88,1267.7 2734.88,1531.59"/>
<polyline class="BarLine" stroke="#000000" stroke-width="13.75" stroke-linejoin="bevel" points="2757.76,1267.7 2757.76,1531.59"/>
<path class="Accidental" d="M624.621,883.451 C625.221,883.351 625.721,882.651 625.721,882.051 L625.721,876.151 C625.721,875.351 625.121,874.751 624.321,874.751 L624.121,874.751 L620.821,875.451 L620.821,860.551 L618.021,860.551 L618.021,876.051 L609.121,877.851 L609.121,863.751 L606.321,863.751 L606.321,878.451 L602.421,879.251 C601.821,879.351 601.321,880.051 601.321,880.651 L601.321,880.851 L601.321,886.651 L601.321,886.451 C601.321,887.251 601.921,887.851 602.721,887.851 L603.021,887.851 L606.321,887.151 L606.321,903.651 L602.421,904.451 C601.821,904.551 601.321,905.251 601.321,905.851 L601.321,911.651 C601.321,912.451 601.921,913.051 602.721,913.051 L603.021,913.051 L606.321,912.351 L606.321,927.251 L609.121,927.251 L609.121,911.751 L618.021,909.951 L618.021,924.051 L620.821,924.051 L620.821,909.351 L624.621,908.651 C625.221,908.551 625.721,907.851 625.721,907.251 L625.721,901.351 C625.721,900.551 625.121,899.951 624.321,899.951 L624.121,899.951 L620.821,900.651 L620.821,884.151 L624.621,883.451 M609.121,903.151 L609.121,886.551 L618.021,884.751 L618.021,901.251 L609.121,903.151 "/>
<path class="Accidental" d="M1074.21,1033.46 C1074.81,1033.36 1075.31,1032.66 1075.31,1032.06 L1075.31,1026.16 C1075.31,1025.36 1074.71,1024.76 1073.91,1024.76 L1073.71,1024.76 L1070.41,1025.46 L1070.41,1010.56 L1067.61,1010.56 L1067.61,1026.06 L1058.71,1027.86 L1058.71,1013.76 L1055.91,1013.76 L1055.91,1028.46 L1052.01,1029.26 C1051.41,1029.36 1050.91,1030.06 1050.91,1030.66 L1050.91,1030.86 L1050.91,1036.66 L1050.91,1036.46 C1050.91,1037.26 1051.51,1037.86 1052.31,1037.86 L1052.61,1037.86 L1055.91,1037.16 L1055.91,1053.66 L1052.01,1054.46 C1051.41,1054.56 1050.91,1055.26 1050.91,1055.86 L1050.91,1061.66 C1050.91,1062.46 1051.51,1063.06 1052.31,1063.06 L1052.61,1063.06 L1055.91,1062.36 L1055.91,1077.26 L1058.71,1077.26 L1058.71,1061.76 L1067.61,1059.96 L1067.61,1074.06 L1070.41,1074.06 L1070.41,1059.36 L1074.21,1058.66 C1074.81,1058.56 1075.31,1057.86 1075.31,1057.26 L1075.31,1051.36 C1075.31,1050.56 1074.71,1049.96 1073.91,1049.96 L1073.71,1049.96 L1070.41,1050.66 L1070.41,1034.16 L1074.21,1033.46 M1058.71,1053.16 L1058.71,1036.56 L1067.61,1034.76 L1067.61,1051.26 L1058.71,1053.16 "/>
<path class="Accidental" d="M1965.87,945.955 C1966.47,945.855 1966.97,945.155 1966.97,944.555 L1966.97,938.655 C1966.97,937.855 1966.37,937.255 1965.57,937.255 L1965.37,937.255 L1962.07,937.955 L1962.07,923.055 L1959.27,923.055 L1959.27,938.555 L1950.37,940.355 L1950.37,926.255 L1947.57,926.255 L1947.57,940.955 L1943.67,941.755 C1943.07,941.855 1942.57,942.555 1942.57,943.155 L1942.57,943.355 L1942.57,949.155 L1942.57,948.955 C1942.57,949.755 1943.17,950.355 1943.97,950.355 L1944.27,950.355 L1947.57,949.655 L1947.57,966.155 L1943.67,966.955 C1943.07,967.055 1942.57,967.755 1942.57,968.355 L1942.57,974.155 C1942.57,974.955 1943.17,975.555 1943.97,975.555 L1944.27,975.555 L1947.57,974.855 L1947.57,989.755 L1950.37,989.755 L1950.37,974.255 L1959.27,972.455 L1959.27,986.555 L1962.07,986.555 L1962.07,971.855 L1965.87,971.155 C1966.47,971.055 1966.97,970.355 1966.97,969.755 L1966.97,963.855 C1966.97,963.055 1966.37,962.455 1965.57,962.455 L1965.37,962.455 L1962.07,963.155 L1962.07,946.655 L1965.87,945.955 M1950.37,965.655 L1950.37,949.055 L1959.27,947.255 L1959.27,963.755 L1950.37,965.655 "/>
<path class="Accidental" d="M2378.85,945.955 C2379.45,945.855 2379.95,945.155 2379.95,944.555 L2379.95,938.655 C2379.95,937.855 2379.35,937.255 2378.55,937.255 L2378.35,937.255 L2375.05,937.955 L2375.05,923.055 L2372.25,923.055 L2372.25,938.555 L2363.35,940.355 L2363.35,926.255 L2360.55,926.255 L2360.55,940.955 L2356.65,941.755 C2356.05,941.855 2355.55,942.555 2355.55,943.155 L2355.55,943.355 L2355.55,949.155 L2355.55,948.955 C2355.55,949.755 2356.15,950.355 2356.95,950.355 L2357.25,950.355 L2360.55,949.655 L2360.55,966.155 L2356.65,966.955 C2356.05,967.055 2355.55,967.755 2355.55,968.355 L2355.55,974.155 C2355.55,974.955 2356.15,975.555 2356.95,975.555 L2357.25,975.555 L2360.55,974.855 L2360.55,989.755 L2363.35,989.755 L2363.35,974.255 L2372.25,972.455 L2372.25,986.555 L2375.05,986.555 L2375.05,971.855 L2378.85,971.155 C2379.45,971.055 2379.95,970.355 2379.95,969.755 L2379.95,963.855 C2379.95,963.055 2379.35,962.455 2378.55,962.455 L2378.35,962.455 L2375.05,963.155 L2375.05,946.655 L2378.85,945.955 M2363.35,965.655 L2363.35,949.055 L2372.25,947.255 L2372.25,963.755 L2363.35,965.655 "/>
<path class="Accidental" d="M769.502,1596 C770.102,1595.9 770.602,1595.2 770.602,1594.6 L770.602,1588.7 C770.602,1587.9 770.002,1587.3 769.202,1587.3 L769.002,1587.3 L765.702,1588 L765.702,1573.1 L762.902,1573.1 L762.902,1588.6 L754.002,1590.4 L754.002,1576.3 L751.202,1576.3 L751.202,1591 L747.302,1591.8 C746.702,1591.9 746.202,1592.6 746.202,1593.2 L746.202,1593.4 L746.202,1599.2 L746.202,1599 C746.202,1599.8 746.802,1600.4 747.602,1600.4 L747.902,1600.4 L751.202,1599.7 L751.202,1616.2 L747.302,1617 C746.702,1617.1 746.202,1617.8 746.202,1618.4 L746.202,1624.2 C746.202,1625 746.802,1625.6 747.602,1625.6 L747.902,1625.6 L751.202,1624.9 L751.202,1639.8 L754.002,1639.8 L754.002,1624.3 L762.902,1622.5 L762.902,1636.6 L765.702,1636.6 L765.702,1621.9 L769.502,1621.2 C770.102,1621.1 770.602,1620.4 770.602,1619.8 L770.602,1613.9 C770.602,1613.1 770.002,1612.5 769.202,1612.5 L769.002,1612.5 L765.702,1613.2 L765.702,1596.7 L769.502,1596 M754.002,1615.7 L754.002,1599.1 L762.902,1597.3 L762.902,1613.8 L754.002,1615.7 "/>
<path class="Accidental" d="M1178.55,1596 C1179.15,1595.9 1179.65,1595.2 1179.65,1594.6 L1179.65,1588.7 C1179.65,1587.9 1179.05,1587.3 1178.25,1587.3 L1178.05,1587.3 L1174.75,1588 L1174.75,1573.1 L1171.95,1573.1 L1171.95,1588.6 L1163.05,1590.4 L1163.05,1576.3 L1160.25,1576.3 L1160.25,1591 L1156.35,1591.8 C1155.75,1591.9 1155.25,1592.6 1155.25,1593.2 L1155.25,1593.4 L1155.25,1599.2 L1155.25,1599 C1155.25,1599.8 1155.85,1600.4 1156.65,1600.4 L1156.95,1600.4 L1160.25,1599.7 L1160.25,1616.2 L1156.35,1617 C1155.75,1617.1 1155.25,1617.8 1155.25,1618.4 L1155.25,1624.2 C1155.25,1625 1155.85,1625.6 1156.65,1625.6 L1156.95,1625.6 L1160.25,1624.9 L1160.25,1639.8 L1163.05,1639.8 L1163.05,1624.3 L1171.95,1622.5 L1171.95,1636.6 L1174.75,1636.6 L1174.75,1621.9 L1178.55,1621.2 C1179.15,1621.1 1179.65,1620.4 1179.65,1619.8 L1179.65,1613.9 C1179.65,1613.1 1179.05,1612.5 1178.25,1612.5 L1178.05,1612.5 L1174.75,1613.2 L1174.75,1596.7 L1178.55,1596 M1163.05,1615.7 L1163.05,1599.1 L1171.95,1597.3 L1171.95,1613.8 L1163.05,1615.7 "/>
<path class="Accidental" d="M1932.93,1646 C1933.53,1645.9 1934.03,1645.2 1934.03,1644.6 L1934.03,1638.7 C1934.03,1637.9 1933.43,1637.3 1932.63,1637.3 L1932.43,1637.3 L1929.13,1638 L1929.13,1623.1 L1926.33,1623.1 L1926.33,1638.6 L1917.43,1640.4 L1917.43,1626.3 L1914.63,1626.3 L1914.63,1641 L1910.73,1641.8 C1910.13,1641.9 1909.63,1642.6 1909.63,1643.2 L1909.63,1643.4 L1909.63,1649.2 L1909.63,1649 C1909.63,1649.8 1910.23,1650.4 1911.03,1650.4 L1911.33,1650.4 L1914.63,1649.7 L1914.63,1666.2 L1910.73,1667 C1910.13,1667.1 1909.63,1667.8 1909.63,1668.4 L1909.63,1674.2 C1909.63,1675 1910.23,1675.6 1911.03,1675.6 L1911.33,1675.6 L1914.63,1674.9 L1914.63,1689.8 L1917.43,1689.8 L1917.43,1674.3 L1926.33,1672.5 L1926.33,1686.6 L1929.13,1686.6 L1929.13,1671.9 L1932.93,1671.2 C1933.53,1671.1 1934.03,1670.4 1934.03,1669.8 L1934.03,1663.9 C1934.03,1663.1 1933.43,1662.5 1932.63,1662.5 L1932.43,1662.5 L1929.13,1663.2 L1929.13,1646.7 L1932.93,1646 M1917.43,1665.7 L1917.43,1649.1 L1926.33,1647.3 L1926.33,1663.8 L1917.43,1665.7 "/>
<path class="Accidental" d="M2353.24,1495.99 C2353.84,1495.89 2354.34,1495.19 2354.34,1494.59 L2354.34,1488.69 C2354.34,1487.89 2353.74,1487.29 2352.94,1487.29 L2352.74,1487.29 L2349.44,1487.99 L2349.44,1473.09 L2346.64,1473.09 L2346.64,1488.59 L2337.74,1490.39 L2337.74,1476.29 L2334.94,1476.29 L2334.94,1490.99 L2331.04,1491.79 C2330.44,1491.89 2329.94,1492.59 2329.94,1493.19 L2329.94,1493.39 L2329.94,1499.19 L2329.94,1498.99 C2329.94,1499.79 2330.54,1500.39 2331.34,1500.39 L2331.64,1500.39 L2334.94,1499.69 L2334.94,1516.19 L2331.04,1516.99 C2330.44,1517.09 2329.94,1517.79 2329.94,1518.39 L2329.94,1524.19 C2329.94,1524.99 2330.54,1525.59 2331.34,1525.59 L2331.64,1525.59 L2334.94,1524.89 L2334.94,1539.79 L2337.74,1539.79 L2337.74,1524.29 L2346.64,1522.49 L2346.64,1536.59 L2349.44,1536.59 L2349.44,1521.89 L2353.24,1521.19 C2353.84,1521.09 2354.34,1520.39 2354.34,1519.79 L2354.34,1513.89 C2354.34,1513.09 2353.74,1512.49 2352.94,1512.49 L2352.74,1512.49 L2349.44,1513.19 L2349.44,1496.69 L2353.24,1495.99 M2337.74,1515.69 L2337.74,1499.09 L2346.64,1497.29 L2346.64,1513.79 L2337.74,1515.69 "/>
<path class="Accidental" d="M633.371,683.438 C633.971,683.338 634.471,682.638 634.471,682.038 L634.471,676.138 C634.471,675.338 633.871,674.738 633.071,674.738 L632.871,674.738 L629.571,675.438 L629.571,660.538 L626.771,660.538 L626.771,676.038 L617.871,677.838 L617.871,663.738 L615.071,663.738 L615.071,678.438 L611.171,679.238 C610.571,679.338 610.071,680.038 610.071,680.638 L610.071,680.838 L610.071,686.638 L610.071,686.438 C610.071,687.238 610.671,687.838 611.471,687.838 L611.771,687.838 L615.071,687.138 L615.071,703.638 L611.171,704.438 C610.571,704.538 610.071,705.238 610.071,705.838 L610.071,711.638 C610.071,712.438 610.671,713.038 611.471,713.038 L611.771,713.038 L615.071,712.338 L615.071,727.238 L617.871,727.238 L617.871,711.738 L626.771,709.938 L626.771,724.038 L629.571,724.038 L629.571,709.338 L633.371,708.638 C633.971,708.538 634.471,707.838 634.471,707.238 L634.471,701.338 C634.471,700.538 633.871,699.938 633.071,699.938 L632.871,699.938 L629.571,700.638 L629.571,684.138 L633.371,683.438 M617.871,703.138 L617.871,686.538 L626.771,684.738 L626.771,701.238 L617.871,703.138 "/>
<path class="Accidental" d="M1082.96,683.438 C1083.56,683.338 1084.06,682.638 1084.06,682.038 L1084.06,676.138 C1084.06,675.338 1083.46,674.738 1082.66,674.738 L1082.46,674.738 L1079.16,675.438 L1079.16,660.538 L1076.36,660.538 L1076.36,676.038 L1067.46,677.838 L1067.46,663.738 L1064.66,663.738 L1064.66,678.438 L1060.76,679.238 C1060.16,679.338 1059.66,680.038 1059.66,680.638 L1059.66,680.838 L1059.66,686.638 L1059.66,686.438 C1059.66,687.238 1060.26,687.838 1061.06,687.838 L1061.36,687.838 L1064.66,687.138 L1064.66,703.638 L1060.76,704.438 C1060.16,704.538 1059.66,705.238 1059.66,705.838 L1059.66,711.638 C1059.66,712.438 1060.26,713.038 1061.06,713.038 L1061.36,713.038 L1064.66,712.338 L1064.66,727.238 L1067.46,727.238 L1067.46,711.738 L1076.36,709.938 L1076.36,724.038 L1079.16,724.038 L1079.16,709.338 L1082.96,708.638 C1083.56,708.538 1084.06,707.838 1084.06,707.238 L1084.06,701.338 C1084.06,700.538 1083.46,699.938 1082.66,699.938 L1082.46,699.938 L1079.16,700.638 L1079.16,684.138 L1082.96,683.438 M1067.46,703.138 L1067.46,686.538 L1076.36,684.738 L1076.36,701.238 L1067.46,703.138 "/>
<path class="Accidental" d="M1957.12,595.933 C1957.72,595.833 1958.22,595.133 1958.22,594.533 L1958.22,588.633 C1958.22,587.833 1957.62,587.233 1956.82,587.233 L1956.62,587.233 L1953.32,587.933 L1953.32,573.033 L1950.52,573.033 L1950.52,588.533 L1941.62,590.333 L1941.62,576.233 L1938.82,576.233 L1938.82,590.933 L1934.92,591.733 C1934.32,591.833 1933.82,592.533 1933.82,593.133 L1933.82,593.333 L1933.82,599.133 L1933.82,598.933 C1933.82,599.733 1934.42,600.333 1935.22,600.333 L1935.52,600.333 L1938.82,599.633 L1938.82,616.133 L1934.92,616.933 C1934.32,617.033 1933.82,617.733 1933.82,618.333 L1933.82,624.133 C1933.82,624.933 1934.42,625.533 1935.22,625.533 L1935.52,625.533 L1938.82,624.833 L1938.82,639.733 L1941.62,639.733 L1941.62,624.233 L1950.52,622.433 L1950.52,636.533 L1953.32,636.533 L1953.32,621.833 L1957.12,621.133 C1957.72,621.033 1958.22,620.333 1958.22,619.733 L1958.22,613.833 C1958.22,613.033 1957.62,612.433 1956.82,612.433 L1956.62,612.433 L1953.32,613.133 L1953.32,596.633 L1957.12,595.933 M1941.62,615.633 L1941.62,599.033 L1950.52,597.233 L1950.52,613.733 L1941.62,615.633 "/>
<path class="Accidental" d="M2370.1,595.933 C2370.7,595.833 2371.2,595.133 2371.2,594.533 L2371.2,588.633 C2371.2,587.833 2370.6,587.233 2369.8,587.233 L2369.6,587.233 L2366.3,587.933 L2366.3,573.033 L2363.5,573.033 L2363.5,588.533 L2354.6,590.333 L2354.6,576.233 L2351.8,576.233 L2351.8,590.933 L2347.9,591.733 C2347.3,591.833 2346.8,592.533 2346.8,593.133 L2346.8,593.333 L2346.8,599.133 L2346.8,598.933 C2346.8,599.733 2347.4,600.333 2348.2,600.333 L2348.5,600.333 L2351.8,599.633 L2351.8,616.133 L2347.9,616.933 C2347.3,617.033 2346.8,617.733 2346.8,618.333 L2346.8,624.133 C2346.8,624.933 2347.4,625.533 2348.2,625.533 L2348.5,625.533 L2351.8,624.833 L2351.8,639.733 L2354.6,639.733 L2354.6,624.233 L2363.5,622.433 L2363.5,636.533 L2366.3,636.533 L2366.3,621.833 L2370.1,621.133 C2370.7,621.033 2371.2,620.333 2371.2,619.733 L2371.2,613.833 C2371.2,613.033 2370.6,612.433 2369.8,612.433 L2369.6,612.433 L2366.3,613.133 L2366.3,596.633 L2370.1,595.933 M2354.6,615.633 L2354.6,599.033 L2363.5,597.233 L2363.5,613.733 L2354.6,615.633 "/>
<path class="Accidental" d="M769.502,1245.97 C770.102,1245.87 770.602,1245.17 770.602,1244.57 L770.602,1238.67 C770.602,1237.87 770.002,1237.27 769.202,1237.27 L769.002,1237.27 L765.702,1237.97 L765.702,1223.07 L762.902,1223.07 L762.902,1238.57 L754.002,1240.37 L754.002,1226.27 L751.202,1226.27 L751.202,1240.97 L747.302,1241.77 C746.702,1241.87 746.202,1242.57 746.202,1243.17 L746.202,1243.37 L746.202,1249.17 L746.202,1248.97 C746.202,1249.77 746.802,1250.37 747.602,1250.37 L747.902,1250.37 L751.202,1249.67 L751.202,1266.17 L747.302,1266.97 C746.702,1267.07 746.202,1267.77 746.202,1268.37 L746.202,1274.17 C746.202,1274.97 746.802,1275.57 747.602,1275.57 L747.902,1275.57 L751.202,1274.87 L751.202,1289.77 L754.002,1289.77 L754.002,1274.27 L762.902,1272.47 L762.902,1286.57 L765.702,1286.57 L765.702,1271.87 L769.502,1271.17 C770.102,1271.07 770.602,1270.37 770.602,1269.77 L770.602,1263.87 C770.602,1263.07 770.002,1262.47 769.202,1262.47 L769.002,1262.47 L765.702,1263.17 L765.702,1246.67 L769.502,1245.97 M754.002,1265.67 L754.002,1249.07 L762.902,1247.27 L762.902,1263.77 L754.002,1265.67 "/>
<path class="Accidental" d="M1178.55,1245.97 C1179.15,1245.87 1179.65,1245.17 1179.65,1244.57 L1179.65,1238.67 C1179.65,1237.87 1179.05,1237.27 1178.25,1237.27 L1178.05,1237.27 L1174.75,1237.97 L1174.75,1223.07 L1171.95,1223.07 L1171.95,1238.57 L1163.05,1240.37 L1163.05,1226.27 L1160.25,1226.27 L1160.25,1240.97 L1156.35,1241.77 C1155.75,1241.87 1155.25,1242.57 1155.25,1243.17 L1155.25,1243.37 L1155.25,1249.17 L1155.25,1248.97 C1155.25,1249.77 1155.85,1250.37 1156.65,1250.37 L1156.95,1250.37 L1160.25,1249.67 L1160.25,1266.17 L1156.35,1266.97 C1155.75,1267.07 1155.25,1267.77 1155.25,1268.37 L1155.25,1274.17 C1155.25,1274.97 1155.85,1275.57 1156.65,1275.57 L1156.95,1275.57 L1160.25,1274.87 L1160.25,1289.77 L1163.05,1289.77 L1163.05,1274.27 L1171.95,1272.47 L1171.95,1286.57 L1174.75,1286.57 L1174.75,1271.87 L1178.55,1271.17 C1179.15,1271.07 1179.65,1270.37 1179.65,1269.77 L1179.65,1263.87 C1179.65,1263.07 1179.05,1262.47 1178.25,1262.47 L1178.05,1262.47 L1174.75,1263.17 L1174.75,1246.67 L1178.55,1245.97 M1163.05,1265.67 L1163.05,1249.07 L1171.95,1247.27 L1171.95,1263.77 L1163.05,1265.67 "/>
<path class="Accidental" d="M1941.69,1295.98 C1942.29,1295.88 1942.79,1295.18 1942.79,1294.58 L1942.79,1288.68 C1942.79,1287.88 1942.19,1287.28 1941.39,1287.28 L1941.19,1287.28 L1937.89,1287.98 L1937.89,1273.08 L1935.09,1273.08 L1935.09,1288.58 L1926.19,1290.38 L1926.19,1276.28 L1923.39,1276.28 L1923.39,1290.98 L1919.49,1291.78 C1918.89,1291.88 1918.39,1292.58 1918.39,1293.18 L1918.39,1293.38 L1918.39,1299.18 L1918.39,1298.98 C1918.39,1299.78 1918.99,1300.38 1919.79,1300.38 L1920.09,1300.38 L1923.39,1299.68 L1923.39,1316.18 L1919.49,1316.98 C1918.89,1317.08 1918.39,1317.78 1918.39,1318.38 L1918.39,1324.18 C1918.39,1324.98 1918.99,1325.58 1919.79,1325.58 L1920.09,1325.58 L1923.39,1324.88 L1923.39,1339.78 L1926.19,1339.78 L1926.19,1324.28 L1935.09,1322.48 L1935.09,1336.58 L1937.89,1336.58 L1937.89,1321.88 L1941.69,1321.18 C1942.29,1321.08 1942.79,1320.38 1942.79,1319.78 L1942.79,1313.88 C1942.79,1313.08 1942.19,1312.48 1941.39,1312.48 L1941.19,1312.48 L1937.89,1313.18 L1937.89,1296.68 L1941.69,1295.98 M1926.19,1315.68 L1926.19,1299.08 L1935.09,1297.28 L1935.09,1313.78 L1926.19,1315.68 "/>
<path class="Accidental" d="M2361.99,1295.98 C2362.59,1295.88 2363.09,1295.18 2363.09,1294.58 L2363.09,1288.68 C2363.09,1287.88 2362.49,1287.28 2361.69,1287.28 L2361.49,1287.28 L2358.19,1287.98 L2358.19,1273.08 L2355.39,1273.08 L2355.39,1288.58 L2346.49,1290.38 L2346.49,1276.28 L2343.69,1276.28 L2343.69,1290.98 L2339.79,1291.78 C2339.19,1291.88 2338.69,1292.58 2338.69,1293.18 L2338.69,1293.38 L2338.69,1299.18 L2338.69,1298.98 C2338.69,1299.78 2339.29,1300.38 2340.09,1300.38 L2340.39,1300.38 L2343.69,1299.68 L2343.69,1316.18 L2339.79,1316.98 C2339.19,1317.08 2338.69,1317.78 2338.69,1318.38 L2338.69,1324.18 C2338.69,1324.98 2339.29,1325.58 2340.09,1325.58 L2340.39,1325.58 L2343.69,1324.88 L2343.69,1339.78 L2346.49,1339.78 L2346.49,1324.28 L2355.39,1322.48 L2355.39,1336.58 L2358.19,1336.58 L2358.19,1321.88 L2361.99,1321.18 C2362.59,1321.08 2363.09,1320.38 2363.09,1319.78 L2363.09,1313.88 C2363.09,1313.08 2362.49,1312.48 2361.69,1312.48 L2361.49,1312.48 L2358.19,1313.18 L2358.19,1296.68 L2361.99,1295.98 M2346.49,1315.68 L2346.49,1299.08 L2355.39,1297.28 L2355.39,1313.78 L2346.49,1315.68 "/>
<polyline class="LedgerLine" stroke="#000000" stroke-width="4.00" stroke-linejoin="bevel" points="631.971,894.051 681.967,894.051"/>
<polyline class="LedgerLine" stroke="#000000" stroke-width="4.00" stroke-linejoin="bevel" points="817.691,894.051 867.686,894.051"/>
<polyline class="LedgerLine" stroke="#000000" stroke-width="4.00" stroke-linejoin="bevel" points="817.691,869.049 867.686,869.049"/>
<polyline class="LedgerLine" stroke="#000000" stroke-width="4.00" stroke-linejoin="bevel" points="1081.56,1044.06 1131.56,1044.06"/>
<polyline class="LedgerLine" stroke="#000000" stroke-width="4.00" stroke-linejoin="bevel" points="1940.29,1656.6 1990.28,1656.6"/>
<polyline class="LedgerLine" stroke="#000000" stroke-width="4.00" stroke-linejoin="bevel" points="2178.94,1506.59 2228.93,1506.59"/>
<polyline class="LedgerLine" stroke="#000000" stroke-width="4.00" stroke-linejoin="bevel" points="2178.94,1481.59 2228.93,1481.59"/>
<polyline class="LedgerLine" stroke="#000000" stroke-width="4.00" stroke-linejoin="bevel" points="2360.59,1506.59 2410.58,1506.59"/>
<polyline class="LedgerLine" stroke="#000000" stroke-width="4.00" stroke-linejoin="bevel" points="1405.16,631.534 1455.16,631.534"/>
<polyline class="LedgerLine" stroke="#000000" stroke-width="4.00" stroke-linejoin="bevel" points="1784.22,631.534 1834.21,631.534"/>
<polyline class="LedgerLine" stroke="#000000" stroke-width="4.00" stroke-linejoin="bevel" points="1964.47,631.534 2014.47,631.534"/>
<polyline class="LedgerLine" stroke="#000000" stroke-width="4.00" stroke-linejoin="bevel" points="1964.47,606.533 2014.47,606.533"/>
<polyline class="LedgerLine" stroke="#000000" stroke-width="4.00" stroke-linejoin="bevel" points="2190.48,631.534 2240.48,631.534"/>
<polyline class="LedgerLine" stroke="#000000" stroke-width="4.00" stroke-linejoin="bevel" points="2377.45,631.534 2427.44,631.534"/>
<polyline class="LedgerLine" stroke="#000000" stroke-width="4.00" stroke-linejoin="bevel" points="2377.45,606.533 2427.44,606.533"/>
<polyline class="LedgerLine" stroke="#000000" stroke-width="4.00" stroke-linejoin="bevel" points="2564.42,631.534 2614.41,631.534"/>
<polyline class="LedgerLine" stroke="#000000" stroke-width="4.00" stroke-linejoin="bevel" points="2564.42,606.533 2614.41,606.533"/>
<polyline class="LedgerLine" stroke="#000000" stroke-width="4.00" stroke-linejoin="bevel" points="2564.42,581.531 2614.41,581.531"/>
<polyline class="LedgerLine" stroke="#000000" stroke-width="4.00" stroke-linejoin="bevel" points="398.1,1244.07 448.096,1244.07"/>
<polyline class="LedgerLine" stroke="#000000" stroke-width="4.00" stroke-linejoin="bevel" points="398.1,1219.07 448.096,1219.07"/>
<polyline class="LedgerLine" stroke="#000000" stroke-width="4.00" stroke-linejoin="bevel" points="398.1,1194.07 448.096,1194.07"/>
<polyline class="LedgerLine" stroke="#000000" stroke-width="4.00" stroke-linejoin="bevel" points="583.101,1244.07 633.096,1244.07"/>
<polyline class="LedgerLine" stroke="#000000" stroke-width="4.00" stroke-linejoin="bevel" points="998.855,1244.07 1048.85,1244.07"/>
<polyline class="LedgerLine" stroke="#000000" stroke-width="4.00" stroke-linejoin="bevel" points="1579.48,1244.07 1629.48,1244.07"/>
<polyline class="Stem" stroke="#000000" stroke-width="2.75" stroke-linejoin="bevel" points="456.377,922.573 456.377,1006.56"/>
<polyline class="Stem" stroke="#000000" stroke-width="2.75" stroke-linejoin="bevel" points="642.097,897.571 642.097,981.556"/>
<polyline class="Stem" stroke="#000000" stroke-width="2.75" stroke-linejoin="bevel" points="827.816,872.57 827.816,969.056"/>
<polyline class="Stem" stroke="#000000" stroke-width="2.75" stroke-linejoin="bevel" points="1121.43,1040.7 1121.43,956.555"/>
<polyline class="Stem" stroke="#000000" stroke-width="2.75" stroke-linejoin="bevel" points="1283.23,1015.7 1283.23,931.553"/>
<polyline class="Stem" stroke="#000000" stroke-width="2.75" stroke-linejoin="bevel" points="1445.03,978.196 1445.03,900.301"/>
<polyline class="Stem" stroke="#000000" stroke-width="2.75" stroke-linejoin="bevel" points="1643.83,1015.7 1643.83,931.553"/>
<polyline class="Stem" stroke="#000000" stroke-width="2.75" stroke-linejoin="bevel" points="1824.09,978.196 1824.09,900.301"/>
<polyline class="Stem" stroke="#000000" stroke-width="2.75" stroke-linejoin="bevel" points="1974.6,960.075 1974.6,1037.81"/>
<polyline class="Stem" stroke="#000000" stroke-width="2.75" stroke-linejoin="bevel" points="2230.35,978.196 2230.35,900.301"/>
<polyline class="Stem" stroke="#000000" stroke-width="2.75" stroke-linejoin="bevel" points="2387.58,960.075 2387.58,1037.81"/>
<polyline class="Stem" stroke="#000000" stroke-width="2.75" stroke-linejoin="bevel" points="2574.54,935.074 2574.54,1019.06"/>
<polyline class="Stem" stroke="#000000" stroke-width="2.75" stroke-linejoin="bevel" points="408.226,1547.61 408.226,1631.6"/>
<polyline class="Stem" stroke="#000000" stroke-width="2.75" stroke-linejoin="bevel" points="593.227,1585.11 593.227,1659.72"/>
<polyline class="Stem" stroke="#000000" stroke-width="2.75" stroke-linejoin="bevel" points="807.972,1603.24 807.972,1522.22"/>
<polyline class="Stem" stroke="#000000" stroke-width="2.75" stroke-linejoin="bevel" points="1008.98,1585.11 1008.98,1659.72"/>
<polyline class="Stem" stroke="#000000" stroke-width="2.75" stroke-linejoin="bevel" points="1217.02,1603.24 1217.02,1522.22"/>
<polyline class="Stem" stroke="#000000" stroke-width="2.75" stroke-linejoin="bevel" points="1395.31,1628.24 1395.31,1544.09"/>
<polyline class="Stem" stroke="#000000" stroke-width="2.75" stroke-linejoin="bevel" points="1619.35,1590.73 1619.35,1512.84"/>
<polyline class="Stem" stroke="#000000" stroke-width="2.75" stroke-linejoin="bevel" points="1799.75,1628.24 1799.75,1544.09"/>
<polyline class="Stem" stroke="#000000" stroke-width="2.75" stroke-linejoin="bevel" points="1980.16,1653.24 1980.16,1569.09"/>
<polyline class="Stem" stroke="#000000" stroke-width="2.75" stroke-linejoin="bevel" points="2189.07,1485.11 2189.07,1581.59"/>
<polyline class="Stem" stroke="#000000" stroke-width="2.75" stroke-linejoin="bevel" points="2370.71,1510.11 2370.71,1594.1"/>
<polyline class="Stem" stroke="#000000" stroke-width="2.75" stroke-linejoin="bevel" points="2552.36,1535.11 2552.36,1619.1"/>
<polyline class="Stem" stroke="#000000" stroke-width="2.75" stroke-linejoin="bevel" points="486.121,715.68 486.121,637.785"/>
<polyline class="Stem" stroke="#000000" stroke-width="2.75" stroke-linejoin="bevel" points="642.097,697.559 642.097,775.293"/>
<polyline class="Stem" stroke="#000000" stroke-width="2.75" stroke-linejoin="bevel" points="827.816,672.557 827.816,756.542"/>
<polyline class="Stem" stroke="#000000" stroke-width="2.75" stroke-linejoin="bevel" points="1091.69,697.559 1091.69,775.293"/>
<polyline class="Stem" stroke="#000000" stroke-width="2.75" stroke-linejoin="bevel" points="1253.49,672.557 1253.49,756.542"/>
<polyline class="Stem" stroke="#000000" stroke-width="2.75" stroke-linejoin="bevel" points="1415.29,635.055 1415.29,719.04"/>
<polyline class="Stem" stroke="#000000" stroke-width="2.75" stroke-linejoin="bevel" points="1614.09,672.557 1614.09,756.542"/>
<polyline class="Stem" stroke="#000000" stroke-width="2.75" stroke-linejoin="bevel" points="1794.34,635.055 1794.34,719.04"/>
<polyline class="Stem" stroke="#000000" stroke-width="2.75" stroke-linejoin="bevel" points="1974.6,610.053 1974.6,706.539"/>
<polyline class="Stem" stroke="#000000" stroke-width="2.75" stroke-linejoin="bevel" points="2200.61,635.055 2200.61,719.04"/>
<polyline class="Stem" stroke="#000000" stroke-width="2.75" stroke-linejoin="bevel" points="2387.58,610.053 2387.58,706.539"/>
<polyline class="Stem" stroke="#000000" stroke-width="2.75" stroke-linejoin="bevel" points="2574.54,585.051 2574.54,706.539"/>
<polyline class="Stem" stroke="#000000" stroke-width="2.75" stroke-linejoin="bevel" points="408.226,1197.59 408.226,1319.08"/>
<polyline class="Stem" stroke="#000000" stroke-width="2.75" stroke-linejoin="bevel" points="593.227,1235.09 593.227,1319.08"/>
<polyline class="Stem" stroke="#000000" stroke-width="2.75" stroke-linejoin="bevel" points="778.227,1260.09 778.227,1344.08"/>
<polyline class="Stem" stroke="#000000" stroke-width="2.75" stroke-linejoin="bevel" points="1008.98,1235.09 1008.98,1319.08"/>
<polyline class="Stem" stroke="#000000" stroke-width="2.75" stroke-linejoin="bevel" points="1187.27,1260.09 1187.27,1344.08"/>
<polyline class="Stem" stroke="#000000" stroke-width="2.75" stroke-linejoin="bevel" points="1365.57,1285.1 1365.57,1369.08"/>
<polyline class="Stem" stroke="#000000" stroke-width="2.75" stroke-linejoin="bevel" points="1589.61,1247.59 1589.61,1331.58"/>
<polyline class="Stem" stroke="#000000" stroke-width="2.75" stroke-linejoin="bevel" points="1770.01,1285.1 1770.01,1369.08"/>
<polyline class="Stem" stroke="#000000" stroke-width="2.75" stroke-linejoin="bevel" points="1950.41,1310.1 1950.41,1387.83"/>
<polyline class="Stem" stroke="#000000" stroke-width="2.75" stroke-linejoin="bevel" points="2189.07,1285.1 2189.07,1369.08"/>
<polyline class="Stem" stroke="#000000" stroke-width="2.75" stroke-linejoin="bevel" points="2370.71,1310.1 2370.71,1387.83"/>
<polyline class="Stem" stroke="#000000" stroke-width="2.75" stroke-linejoin="bevel" points="2582.1,1328.22 2582.1,1250.32"/>
<path class="Note" d="M486.502,910.853 C485.002,908.153 482.102,906.453 478.202,906.053 C477.602,905.953 477.102,905.953 476.502,905.953 C473.002,905.953 469.202,906.953 465.702,908.853 C459.102,912.453 455.002,918.353 455.002,923.453 C455.002,924.853 455.202,926.153 455.902,927.353 C457.402,930.053 460.402,931.753 464.302,932.153 C464.902,932.253 465.402,932.253 466.002,932.253 C469.502,932.253 473.202,931.253 476.702,929.353 C483.302,925.753 487.502,919.953 487.502,914.853 C487.502,913.453 487.202,912.053 486.502,910.853"/>
<path class="Note" d="M672.222,885.851 C670.722,883.151 667.822,881.451 663.922,881.051 C663.322,880.951 662.822,880.951 662.222,880.951 C658.722,880.951 654.922,881.951 651.422,883.851 C644.822,887.451 640.722,893.351 640.722,898.451 C640.722,899.851 640.922,901.151 641.622,902.351 C643.122,905.051 646.122,906.751 650.022,907.151 C650.622,907.251 651.122,907.251 651.722,907.251 C655.222,907.251 658.922,906.251 662.422,904.351 C669.022,900.751 673.222,894.951 673.222,889.851 C673.222,888.451 672.922,887.051 672.222,885.851"/>
<path class="Note" d="M857.941,860.849 C856.441,858.149 853.541,856.449 849.641,856.049 C849.041,855.949 848.541,855.949 847.941,855.949 C844.441,855.949 840.641,856.949 837.141,858.849 C830.541,862.449 826.441,868.349 826.441,873.449 C826.441,874.849 826.641,876.149 827.341,877.349 C828.841,880.049 831.841,881.749 835.741,882.149 C836.341,882.249 836.841,882.249 837.441,882.249 C840.941,882.249 844.641,881.249 848.141,879.349 C854.741,875.749 858.941,869.949 858.941,864.849 C858.941,863.449 858.641,862.049 857.941,860.849"/>
<path class="Note" d="M1121.81,1035.86 C1120.31,1033.16 1117.41,1031.46 1113.51,1031.06 C1112.91,1030.96 1112.41,1030.96 1111.81,1030.96 C1108.31,1030.96 1104.51,1031.96 1101.01,1033.86 C1094.41,1037.46 1090.31,1043.36 1090.31,1048.46 C1090.31,1049.86 1090.51,1051.16 1091.21,1052.36 C1092.71,1055.06 1095.71,1056.76 1099.61,1057.16 C1100.21,1057.26 1100.71,1057.26 1101.31,1057.26 C1104.81,1057.26 1108.51,1056.26 1112.01,1054.36 C1118.61,1050.76 1122.81,1044.96 1122.81,1039.86 C1122.81,1038.46 1122.51,1037.06 1121.81,1035.86"/>
<path class="Note" d="M1283.61,1010.86 C1282.11,1008.16 1279.21,1006.46 1275.31,1006.06 C1274.71,1005.96 1274.21,1005.96 1273.61,1005.96 C1270.11,1005.96 1266.31,1006.96 1262.81,1008.86 C1256.21,1012.46 1252.11,1018.36 1252.11,1023.46 C1252.11,1024.86 1252.31,1026.16 1253.01,1027.36 C1254.51,1030.06 1257.51,1031.76 1261.41,1032.16 C1262.01,1032.26 1262.51,1032.26 1263.11,1032.26 C1266.61,1032.26 1270.31,1031.26 1273.81,1029.36 C1280.41,1025.76 1284.61,1019.96 1284.61,1014.86 C1284.61,1013.46 1284.31,1012.06 1283.61,1010.86"/>
<path class="Note" d="M1445.41,973.356 C1443.91,970.656 1441.01,968.956 1437.11,968.556 C1436.51,968.456 1436.01,968.456 1435.41,968.456 C1431.91,968.456 1428.11,969.456 1424.61,971.356 C1418.01,974.956 1413.91,980.856 1413.91,985.956 C1413.91,987.356 1414.11,988.656 1414.81,989.856 C1416.31,992.556 1419.31,994.256 1423.21,994.656 C1423.81,994.756 1424.31,994.756 1424.91,994.756 C1428.41,994.756 1432.11,993.756 1435.61,991.856 C1442.21,988.256 1446.41,982.456 1446.41,977.356 C1446.41,975.956 1446.11,974.556 1445.41,973.356"/>
<path class="Note" d="M1644.21,1010.86 C1642.71,1008.16 1639.81,1006.46 1635.91,1006.06 C1635.31,1005.96 1634.81,1005.96 1634.21,1005.96 C1630.71,1005.96 1626.91,1006.96 1623.41,1008.86 C1616.81,1012.46 1612.71,1018.36 1612.71,1023.46 C1612.71,1024.86 1612.91,1026.16 1613.61,1027.36 C1615.11,1030.06 1618.11,1031.76 1622.01,1032.16 C1622.61,1032.26 1623.11,1032.26 1623.71,1032.26 C1627.21,1032.26 1630.91,1031.26 1634.41,1029.36 C1641.01,1025.76 1645.21,1019.96 1645.21,1014.86 C1645.21,1013.46 1644.91,1012.06 1644.21,1010.86"/>
<path class="Note" d="M1824.47,973.356 C1822.97,970.656 1820.07,968.956 1816.17,968.556 C1815.57,968.456 1815.07,968.456 1814.47,968.456 C1810.97,968.456 1807.17,969.456 1803.67,971.356 C1797.07,974.956 1792.97,980.856 1792.97,985.956 C1792.97,987.356 1793.17,988.656 1793.87,989.856 C1795.37,992.556 1798.37,994.256 1802.27,994.656 C1802.87,994.756 1803.37,994.756 1803.97,994.756 C1807.47,994.756 1811.17,993.756 1814.67,991.856 C1821.27,988.256 1825.47,982.456 1825.47,977.356 C1825.47,975.956 1825.17,974.556 1824.47,973.356"/>
<path class="Note" d="M2004.73,948.355 C2003.23,945.655 2000.33,943.955 1996.43,943.555 C1995.83,943.455 1995.33,943.455 1994.73,943.455 C1991.23,943.455 1987.43,944.455 1983.93,946.355 C1977.33,949.955 1973.23,955.855 1973.23,960.955 C1973.23,962.355 1973.43,963.655 1974.13,964.855 C1975.63,967.555 1978.63,969.255 1982.53,969.655 C1983.13,969.755 1983.63,969.755 1984.23,969.755 C1987.73,969.755 1991.43,968.755 1994.93,966.855 C2001.53,963.255 2005.73,957.455 2005.73,952.355 C2005.73,950.955 2005.43,949.555 2004.73,948.355"/>
<path class="Note" d="M2230.73,973.356 C2229.23,970.656 2226.33,968.956 2222.43,968.556 C2221.83,968.456 2221.33,968.456 2220.73,968.456 C2217.23,968.456 2213.43,969.456 2209.93,971.356 C2203.33,974.956 2199.23,980.856 2199.23,985.956 C2199.23,987.356 2199.43,988.656 2200.13,989.856 C2201.63,992.556 2204.63,994.256 2208.53,994.656 C2209.13,994.756 2209.63,994.756 2210.23,994.756 C2213.73,994.756 2217.43,993.756 2220.93,991.856 C2227.53,988.256 2231.73,982.456 2231.73,977.356 C2231.73,975.956 2231.43,974.556 2230.73,973.356"/>
<path class="Note" d="M2417.7,948.355 C2416.2,945.655 2413.3,943.955 2409.4,943.555 C2408.8,943.455 2408.3,943.455 2407.7,943.455 C2404.2,943.455 2400.4,944.455 2396.9,946.355 C2390.3,949.955 2386.2,955.855 2386.2,960.955 C2386.2,962.355 2386.4,963.655 2387.1,964.855 C2388.6,967.555 2391.6,969.255 2395.5,969.655 C2396.1,969.755 2396.6,969.755 2397.2,969.755 C2400.7,969.755 2404.4,968.755 2407.9,966.855 C2414.5,963.255 2418.7,957.455 2418.7,952.355 C2418.7,950.955 2418.4,949.555 2417.7,948.355"/>
<path class="Note" d="M2604.67,923.353 C2603.17,920.653 2600.27,918.953 2596.37,918.553 C2595.77,918.453 2595.27,918.453 2594.67,918.453 C2591.17,918.453 2587.37,919.453 2583.87,921.353 C2577.27,924.953 2573.17,930.853 2573.17,935.953 C2573.17,937.353 2573.37,938.653 2574.07,939.853 C2575.57,942.553 2578.57,944.253 2582.47,944.653 C2583.07,944.753 2583.57,944.753 2584.17,944.753 C2587.67,944.753 2591.37,943.753 2594.87,941.853 C2601.47,938.253 2605.67,932.453 2605.67,927.353 C2605.67,925.953 2605.37,924.553 2604.67,923.353"/>
<path class="Note" d="M438.351,1535.89 C436.851,1533.19 433.951,1531.49 430.051,1531.09 C429.451,1530.99 428.951,1530.99 428.351,1530.99 C424.851,1530.99 421.051,1531.99 417.551,1533.89 C410.951,1537.49 406.851,1543.39 406.851,1548.49 C406.851,1549.89 407.051,1551.19 407.751,1552.39 C409.251,1555.09 412.251,1556.79 416.151,1557.19 C416.751,1557.29 417.251,1557.29 417.851,1557.29 C421.351,1557.29 425.051,1556.29 428.551,1554.39 C435.151,1550.79 439.351,1544.99 439.351,1539.89 C439.351,1538.49 439.051,1537.09 438.351,1535.89"/>
<path class="Note" d="M623.352,1573.39 C621.852,1570.69 618.952,1568.99 615.052,1568.59 C614.452,1568.49 613.952,1568.49 613.352,1568.49 C609.852,1568.49 606.052,1569.49 602.552,1571.39 C595.952,1574.99 591.852,1580.89 591.852,1585.99 C591.852,1587.39 592.052,1588.69 592.752,1589.89 C594.252,1592.59 597.252,1594.29 601.152,1594.69 C601.752,1594.79 602.252,1594.79 602.852,1594.79 C606.352,1594.79 610.052,1593.79 613.552,1591.89 C620.152,1588.29 624.352,1582.49 624.352,1577.39 C624.352,1575.99 624.052,1574.59 623.352,1573.39"/>
<path class="Note" d="M808.352,1598.4 C806.852,1595.7 803.952,1594 800.052,1593.6 C799.452,1593.5 798.952,1593.5 798.352,1593.5 C794.852,1593.5 791.052,1594.5 787.552,1596.4 C780.952,1600 776.852,1605.9 776.852,1611 C776.852,1612.4 777.052,1613.7 777.752,1614.9 C779.252,1617.6 782.252,1619.3 786.152,1619.7 C786.752,1619.8 787.252,1619.8 787.852,1619.8 C791.352,1619.8 795.052,1618.8 798.552,1616.9 C805.152,1613.3 809.352,1607.5 809.352,1602.4 C809.352,1601 809.052,1599.6 808.352,1598.4"/>
<path class="Note" d="M1039.11,1573.39 C1037.61,1570.69 1034.71,1568.99 1030.81,1568.59 C1030.21,1568.49 1029.71,1568.49 1029.11,1568.49 C1025.61,1568.49 1021.81,1569.49 1018.31,1571.39 C1011.71,1574.99 1007.61,1580.89 1007.61,1585.99 C1007.61,1587.39 1007.81,1588.69 1008.51,1589.89 C1010.01,1592.59 1013.01,1594.29 1016.91,1594.69 C1017.51,1594.79 1018.01,1594.79 1018.61,1594.79 C1022.11,1594.79 1025.81,1593.79 1029.31,1591.89 C1035.91,1588.29 1040.11,1582.49 1040.11,1577.39 C1040.11,1575.99 1039.81,1574.59 1039.11,1573.39"/>
<path class="Note" d="M1217.4,1598.4 C1215.9,1595.7 1213,1594 1209.1,1593.6 C1208.5,1593.5 1208,1593.5 1207.4,1593.5 C1203.9,1593.5 1200.1,1594.5 1196.6,1596.4 C1190,1600 1185.9,1605.9 1185.9,1611 C1185.9,1612.4 1186.1,1613.7 1186.8,1614.9 C1188.3,1617.6 1191.3,1619.3 1195.2,1619.7 C1195.8,1619.8 1196.3,1619.8 1196.9,1619.8 C1200.4,1619.8 1204.1,1618.8 1207.6,1616.9 C1214.2,1613.3 1218.4,1607.5 1218.4,1602.4 C1218.4,1601 1218.1,1599.6 1217.4,1598.4"/>
<path class="Note" d="M1395.69,1623.4 C1394.19,1620.7 1391.29,1619 1387.39,1618.6 C1386.79,1618.5 1386.29,1618.5 1385.69,1618.5 C1382.19,1618.5 1378.39,1619.5 1374.89,1621.4 C1368.29,1625 1364.19,1630.9 1364.19,1636 C1364.19,1637.4 1364.39,1638.7 1365.09,1639.9 C1366.59,1642.6 1369.59,1644.3 1373.49,1644.7 C1374.09,1644.8 1374.59,1644.8 1375.19,1644.8 C1378.69,1644.8 1382.39,1643.8 1385.89,1641.9 C1392.49,1638.3 1396.69,1632.5 1396.69,1627.4 C1396.69,1626 1396.39,1624.6 1395.69,1623.4"/>
<path class="Note" d="M1619.73,1585.9 C1618.23,1583.2 1615.33,1581.5 1611.43,1581.1 C1610.83,1581 1610.33,1581 1609.73,1581 C1606.23,1581 1602.43,1582 1598.93,1583.9 C1592.33,1587.5 1588.23,1593.4 1588.23,1598.5 C1588.23,1599.9 1588.43,1601.2 1589.13,1602.4 C1590.63,1605.1 1593.63,1606.8 1597.53,1607.2 C1598.13,1607.3 1598.63,1607.3 1599.23,1607.3 C1602.73,1607.3 1606.43,1606.3 1609.93,1604.4 C1616.53,1600.8 1620.73,1595 1620.73,1589.9 C1620.73,1588.5 1620.43,1587.1 1619.73,1585.9"/>
<path class="Note" d="M1800.14,1623.4 C1798.64,1620.7 1795.74,1619 1791.84,1618.6 C1791.24,1618.5 1790.74,1618.5 1790.14,1618.5 C1786.64,1618.5 1782.84,1619.5 1779.34,1621.4 C1772.74,1625 1768.64,1630.9 1768.64,1636 C1768.64,1637.4 1768.84,1638.7 1769.54,1639.9 C1771.04,1642.6 1774.04,1644.3 1777.94,1644.7 C1778.54,1644.8 1779.04,1644.8 1779.64,1644.8 C1783.14,1644.8 1786.84,1643.8 1790.34,1641.9 C1796.94,1638.3 1801.14,1632.5 1801.14,1627.4 C1801.14,1626 1800.84,1624.6 1800.14,1623.4"/>
<path class="Note" d="M1980.54,1648.4 C1979.04,1645.7 1976.14,1644 1972.24,1643.6 C1971.64,1643.5 1971.14,1643.5 1970.54,1643.5 C1967.04,1643.5 1963.24,1644.5 1959.74,1646.4 C1953.14,1650 1949.04,1655.9 1949.04,1661 C1949.04,1662.4 1949.24,1663.7 1949.94,1664.9 C1951.44,1667.6 1954.44,1669.3 1958.34,1669.7 C1958.94,1669.8 1959.44,1669.8 1960.04,1669.8 C1963.54,1669.8 1967.24,1668.8 1970.74,1666.9 C1977.34,1663.3 1981.54,1657.5 1981.54,1652.4 C1981.54,1651 1981.24,1649.6 1980.54,1648.4"/>
<path class="Note" d="M2219.19,1473.39 C2217.69,1470.69 2214.79,1468.99 2210.89,1468.59 C2210.29,1468.49 2209.79,1468.49 2209.19,1468.49 C2205.69,1468.49 2201.89,1469.49 2198.39,1471.39 C2191.79,1474.99 2187.69,1480.89 2187.69,1485.99 C2187.69,1487.39 2187.89,1488.69 2188.59,1489.89 C2190.09,1492.59 2193.09,1494.29 2196.99,1494.69 C2197.59,1494.79 2198.09,1494.79 2198.69,1494.79 C2202.19,1494.79 2205.89,1493.79 2209.39,1491.89 C2215.99,1488.29 2220.19,1482.49 2220.19,1477.39 C2220.19,1475.99 2219.89,1474.59 2219.19,1473.39"/>
<path class="Note" d="M2400.84,1498.39 C2399.34,1495.69 2396.44,1493.99 2392.54,1493.59 C2391.94,1493.49 2391.44,1493.49 2390.84,1493.49 C2387.34,1493.49 2383.54,1494.49 2380.04,1496.39 C2373.44,1499.99 2369.34,1505.89 2369.34,1510.99 C2369.34,1512.39 2369.54,1513.69 2370.24,1514.89 C2371.74,1517.59 2374.74,1519.29 2378.64,1519.69 C2379.24,1519.79 2379.74,1519.79 2380.34,1519.79 C2383.84,1519.79 2387.54,1518.79 2391.04,1516.89 C2397.64,1513.29 2401.84,1507.49 2401.84,1502.39 C2401.84,1500.99 2401.54,1499.59 2400.84,1498.39"/>
<path class="Note" d="M2582.48,1523.39 C2580.98,1520.69 2578.08,1518.99 2574.18,1518.59 C2573.58,1518.49 2573.08,1518.49 2572.48,1518.49 C2568.98,1518.49 2565.18,1519.49 2561.68,1521.39 C2555.08,1524.99 2550.98,1530.89 2550.98,1535.99 C2550.98,1537.39 2551.18,1538.69 2551.88,1539.89 C2553.38,1542.59 2556.38,1544.29 2560.28,1544.69 C2560.88,1544.79 2561.38,1544.79 2561.98,1544.79 C2565.48,1544.79 2569.18,1543.79 2572.68,1541.89 C2579.28,1538.29 2583.48,1532.49 2583.48,1527.39 C2583.48,1525.99 2583.18,1524.59 2582.48,1523.39"/>
<path class="Note" d="M486.502,710.84 C485.002,708.14 482.102,706.44 478.202,706.04 C477.602,705.94 477.102,705.94 476.502,705.94 C473.002,705.94 469.202,706.94 465.702,708.84 C459.102,712.44 455.002,718.34 455.002,723.44 C455.002,724.84 455.202,726.14 455.902,727.34 C457.402,730.04 460.402,731.74 464.302,732.14 C464.902,732.24 465.402,732.24 466.002,732.24 C469.502,732.24 473.202,731.24 476.702,729.34 C483.302,725.74 487.502,719.94 487.502,714.84 C487.502,713.44 487.202,712.04 486.502,710.84"/>
<path class="Note" d="M672.222,685.838 C670.722,683.138 667.822,681.438 663.922,681.038 C663.322,680.938 662.822,680.938 662.222,680.938 C658.722,680.938 654.922,681.938 651.422,683.838 C644.822,687.438 640.722,693.338 640.722,698.438 C640.722,699.838 640.922,701.138 641.622,702.338 C643.122,705.038 646.122,706.738 650.022,707.138 C650.622,707.238 651.122,707.238 651.722,707.238 C655.222,707.238 658.922,706.238 662.422,704.338 C669.022,700.738 673.222,694.938 673.222,689.838 C673.222,688.438 672.922,687.038 672.222,685.838"/>
<path class="Note" d="M857.941,660.837 C856.441,658.137 853.541,656.437 849.641,656.037 C849.041,655.937 848.541,655.937 847.941,655.937 C844.441,655.937 840.641,656.937 837.141,658.837 C830.541,662.437 826.441,668.337 826.441,673.437 C826.441,674.837 826.641,676.137 827.341,677.337 C828.841,680.037 831.841,681.737 835.741,682.137 C836.341,682.237 836.841,682.237 837.441,682.237 C840.941,682.237 844.641,681.237 848.141,679.337 C854.741,675.737 858.941,669.937 858.941,664.837 C858.941,663.437 858.641,662.037 857.941,660.837"/>
<path class="Note" d="M1121.81,685.838 C1120.31,683.138 1117.41,681.438 1113.51,681.038 C1112.91,680.938 1112.41,680.938 1111.81,680.938 C1108.31,680.938 1104.51,681.938 1101.01,683.838 C1094.41,687.438 1090.31,693.338 1090.31,698.438 C1090.31,699.838 1090.51,701.138 1091.21,702.338 C1092.71,705.038 1095.71,706.738 1099.61,707.138 C1100.21,707.238 1100.71,707.238 1101.31,707.238 C1104.81,707.238 1108.51,706.238 1112.01,704.338 C1118.61,700.738 1122.81,694.938 1122.81,689.838 C1122.81,688.438 1122.51,687.038 1121.81,685.838"/>
<path class="Note" d="M1283.61,660.837 C1282.11,658.137 1279.21,656.437 1275.31,656.037 C1274.71,655.937 1274.21,655.937 1273.61,655.937 C1270.11,655.937 1266.31,656.937 1262.81,658.837 C1256.21,662.437 1252.11,668.337 1252.11,673.437 C1252.11,674.837 1252.31,676.137 1253.01,677.337 C1254.51,680.037 1257.51,681.737 1261.41,682.137 C1262.01,682.237 1262.51,682.237 1263.11,682.237 C1266.61,682.237 1270.31,681.237 1273.81,679.337 C1280.41,675.737 1284.61,669.937 1284.61,664.837 C1284.61,663.437 1284.31,662.037 1283.61,660.837"/>
<path class="Note" d="M1445.41,623.334 C1443.91,620.634 1441.01,618.934 1437.11,618.534 C1436.51,618.434 1436.01,618.434 1435.41,618.434 C1431.91,618.434 1428.11,619.434 1424.61,621.334 C1418.01,624.934 1413.91,630.834 1413.91,635.934 C1413.91,637.334 1414.11,638.634 1414.81,639.834 C1416.31,642.534 1419.31,644.234 1423.21,644.634 C1423.81,644.734 1424.31,644.734 1424.91,644.734 C1428.41,644.734 1432.11,643.734 1435.61,641.834 C1442.21,638.234 1446.41,632.434 1446.41,627.334 C1446.41,625.934 1446.11,624.534 1445.41,623.334"/>
<path class="Note" d="M1644.21,660.837 C1642.71,658.137 1639.81,656.437 1635.91,656.037 C1635.31,655.937 1634.81,655.937 1634.21,655.937 C1630.71,655.937 1626.91,656.937 1623.41,658.837 C1616.81,662.437 1612.71,668.337 1612.71,673.437 C1612.71,674.837 1612.91,676.137 1613.61,677.337 C1615.11,680.037 1618.11,681.737 1622.01,682.137 C1622.61,682.237 1623.11,682.237 1623.71,682.237 C1627.21,682.237 1630.91,681.237 1634.41,679.337 C1641.01,675.737 1645.21,669.937 1645.21,664.837 C1645.21,663.437 1644.91,662.037 1644.21,660.837"/>
<path class="Note" d="M1824.47,623.334 C1822.97,620.634 1820.07,618.934 1816.17,618.534 C1815.57,618.434 1815.07,618.434 1814.47,618.434 C1810.97,618.434 1807.17,619.434 1803.67,621.334 C1797.07,624.934 1792.97,630.834 1792.97,635.934 C1792.97,637.334 1793.17,638.634 1793.87,639.834 C1795.37,642.534 1798.37,644.234 1802.27,644.634 C1802.87,644.734 1803.37,644.734 1803.97,644.734 C1807.47,644.734 1811.17,643.734 1814.67,641.834 C1821.27,638.234 1825.47,632.434 1825.47,627.334 C1825.47,625.934 1825.17,624.534 1824.47,623.334"/>
<path class="Note" d="M2004.73,598.333 C2003.23,595.633 2000.33,593.933 1996.43,593.533 C1995.83,593.433 1995.33,593.433 1994.73,593.433 C1991.23,593.433 1987.43,594.433 1983.93,596.333 C1977.33,599.933 1973.23,605.833 1973.23,610.933 C1973.23,612.333 1973.43,613.633 1974.13,614.833 C1975.63,617.533 1978.63,619.233 1982.53,619.633 C1983.13,619.733 1983.63,619.733 1984.23,619.733 C1987.73,619.733 1991.43,618.733 1994.93,616.833 C2001.53,613.233 2005.73,607.433 2005.73,602.333 C2005.73,600.933 2005.43,599.533 2004.73,598.333"/>
<path class="Note" d="M2230.73,623.334 C2229.23,620.634 2226.33,618.934 2222.43,618.534 C2221.83,618.434 2221.33,618.434 2220.73,618.434 C2217.23,618.434 2213.43,619.434 2209.93,621.334 C2203.33,624.934 2199.23,630.834 2199.23,635.934 C2199.23,637.334 2199.43,638.634 2200.13,639.834 C2201.63,642.534 2204.63,644.234 2208.53,644.634 C2209.13,644.734 2209.63,644.734 2210.23,644.734 C2213.73,644.734 2217.43,643.734 2220.93,641.834 C2227.53,638.234 2231.73,632.434 2231.73,627.334 C2231.73,625.934 2231.43,624.534 2230.73,623.334"/>
<path class="Note" d="M2417.7,598.333 C2416.2,595.633 2413.3,593.933 2409.4,593.533 C2408.8,593.433 2408.3,593.433 2407.7,593.433 C2404.2,593.433 2400.4,594.433 2396.9,596.333 C2390.3,599.933 2386.2,605.833 2386.2,610.933 C2386.2,612.333 2386.4,613.633 2387.1,614.833 C2388.6,617.533 2391.6,619.233 2395.5,619.633 C2396.1,619.733 2396.6,619.733 2397.2,619.733 C2400.7,619.733 2404.4,618.733 2407.9,616.833 C2414.5,613.233 2418.7,607.433 2418.7,602.333 C2418.7,600.933 2418.4,599.533 2417.7,598.333"/>
<path class="Note" d="M2604.67,573.331 C2603.17,570.631 2600.27,568.931 2596.37,568.531 C2595.77,568.431 2595.27,568.431 2594.67,568.431 C2591.17,568.431 2587.37,569.431 2583.87,571.331 C2577.27,574.931 2573.17,580.831 2573.17,585.931 C2573.17,587.331 2573.37,588.631 2574.07,589.831 C2575.57,592.531 2578.57,594.231 2582.47,594.631 C2583.07,594.731 2583.57,594.731 2584.17,594.731 C2587.67,594.731 2591.37,593.731 2594.87,591.831 C2601.47,588.231 2605.67,582.431 2605.67,577.331 C2605.67,575.931 2605.37,574.531 2604.67,573.331"/>
<path class="Note" d="M438.351,1185.87 C436.851,1183.17 433.951,1181.47 430.051,1181.07 C429.451,1180.97 428.951,1180.97 428.351,1180.97 C424.851,1180.97 421.051,1181.97 417.551,1183.87 C410.951,1187.47 406.851,1193.37 406.851,1198.47 C406.851,1199.87 407.051,1201.17 407.751,1202.37 C409.251,1205.07 412.251,1206.77 416.151,1207.17 C416.751,1207.27 417.251,1207.27 417.851,1207.27 C421.351,1207.27 425.051,1206.27 428.551,1204.37 C435.151,1200.77 439.351,1194.97 439.351,1189.87 C439.351,1188.47 439.051,1187.07 438.351,1185.87"/>
<path class="Note" d="M623.352,1223.37 C621.852,1220.67 618.952,1218.97 615.052,1218.57 C614.452,1218.47 613.952,1218.47 613.352,1218.47 C609.852,1218.47 606.052,1219.47 602.552,1221.37 C595.952,1224.97 591.852,1230.87 591.852,1235.97 C591.852,1237.37 592.052,1238.67 592.752,1239.87 C594.252,1242.57 597.252,1244.27 601.152,1244.67 C601.752,1244.77 602.252,1244.77 602.852,1244.77 C606.352,1244.77 610.052,1243.77 613.552,1241.87 C620.152,1238.27 624.352,1232.47 624.352,1227.37 C624.352,1225.97 624.052,1224.57 623.352,1223.37"/>
<path class="Note" d="M808.352,1248.37 C806.852,1245.67 803.952,1243.97 800.052,1243.57 C799.452,1243.47 798.952,1243.47 798.352,1243.47 C794.852,1243.47 791.052,1244.47 787.552,1246.37 C780.952,1249.97 776.852,1255.87 776.852,1260.97 C776.852,1262.37 777.052,1263.67 777.752,1264.87 C779.252,1267.57 782.252,1269.27 786.152,1269.67 C786.752,1269.77 787.252,1269.77 787.852,1269.77 C791.352,1269.77 795.052,1268.77 798.552,1266.87 C805.152,1263.27 809.352,1257.47 809.352,1252.37 C809.352,1250.97 809.052,1249.57 808.352,1248.37"/>
<path class="Note" d="M1039.11,1223.37 C1037.61,1220.67 1034.71,1218.97 1030.81,1218.57 C1030.21,1218.47 1029.71,1218.47 1029.11,1218.47 C1025.61,1218.47 1021.81,1219.47 1018.31,1221.37 C1011.71,1224.97 1007.61,1230.87 1007.61,1235.97 C1007.61,1237.37 1007.81,1238.67 1008.51,1239.87 C1010.01,1242.57 1013.01,1244.27 1016.91,1244.67 C1017.51,1244.77 1018.01,1244.77 1018.61,1244.77 C1022.11,1244.77 1025.81,1243.77 1029.31,1241.87 C1035.91,1238.27 1040.11,1232.47 1040.11,1227.37 C1040.11,1225.97 1039.81,1224.57 1039.11,1223.37"/>
<path class="Note" d="M1217.4,1248.37 C1215.9,1245.67 1213,1243.97 1209.1,1243.57 C1208.5,1243.47 1208,1243.47 1207.4,1243.47 C1203.9,1243.47 1200.1,1244.47 1196.6,1246.37 C1190,1249.97 1185.9,1255.87 1185.9,1260.97 C1185.9,1262.37 1186.1,1263.67 1186.8,1264.87 C1188.3,1267.57 1191.3,1269.27 1195.2,1269.67 C1195.8,1269.77 1196.3,1269.77 1196.9,1269.77 C1200.4,1269.77 1204.1,1268.77 1207.6,1266.87 C1214.2,1263.27 1218.4,1257.47 1218.4,1252.37 C1218.4,1250.97 1218.1,1249.57 1217.4,1248.37"/>
<path class="Note" d="M1395.69,1273.38 C1394.19,1270.68 1391.29,1268.98 1387.39,1268.58 C1386.79,1268.48 1386.29,1268.48 1385.69,1268.48 C1382.19,1268.48 1378.39,1269.48 1374.89,1271.38 C1368.29,1274.98 1364.19,1280.88 1364.19,1285.98 C1364.19,1287.38 1364.39,1288.68 1365.09,1289.88 C1366.59,1292.58 1369.59,1294.28 1373.49,1294.68 C1374.09,1294.78 1374.59,1294.78 1375.19,1294.78 C1378.69,1294.78 1382.39,1293.78 1385.89,1291.88 C1392.49,1288.28 1396.69,1282.48 1396.69,1277.38 C1396.69,1275.98 1396.39,1274.58 1395.69,1273.38"/>
<path class="Note" d="M1619.73,1235.87 C1618.23,1233.17 1615.33,1231.47 1611.43,1231.07 C1610.83,1230.97 1610.33,1230.97 1609.73,1230.97 C1606.23,1230.97 1602.43,1231.97 1598.93,1233.87 C1592.33,1237.47 1588.23,1243.37 1588.23,1248.47 C1588.23,1249.87 1588.43,1251.17 1589.13,1252.37 C1590.63,1255.07 1593.63,1256.77 1597.53,1257.17 C1598.13,1257.27 1598.63,1257.27 1599.23,1257.27 C1602.73,1257.27 1606.43,1256.27 1609.93,1254.37 C1616.53,1250.77 1620.73,1244.97 1620.73,1239.87 C1620.73,1238.47 1620.43,1237.07 1619.73,1235.87"/>
<path class="Note" d="M1800.14,1273.38 C1798.64,1270.68 1795.74,1268.98 1791.84,1268.58 C1791.24,1268.48 1790.74,1268.48 1790.14,1268.48 C1786.64,1268.48 1782.84,1269.48 1779.34,1271.38 C1772.74,1274.98 1768.64,1280.88 1768.64,1285.98 C1768.64,1287.38 1768.84,1288.68 1769.54,1289.88 C1771.04,1292.58 1774.04,1294.28 1777.94,1294.68 C1778.54,1294.78 1779.04,1294.78 1779.64,1294.78 C1783.14,1294.78 1786.84,1293.78 1790.34,1291.88 C1796.94,1288.28 1801.14,1282.48 1801.14,1277.38 C1801.14,1275.98 1800.84,1274.58 1800.14,1273.38"/>
<path class="Note" d="M1980.54,1298.38 C1979.04,1295.68 1976.14,1293.98 1972.24,1293.58 C1971.64,1293.48 1971.14,1293.48 1970.54,1293.48 C1967.04,1293.48 1963.24,1294.48 1959.74,1296.38 C1953.14,1299.98 1949.04,1305.88 1949.04,1310.98 C1949.04,1312.38 1949.24,1313.68 1949.94,1314.88 C1951.44,1317.58 1954.44,1319.28 1958.34,1319.68 C1958.94,1319.78 1959.44,1319.78 1960.04,1319.78 C1963.54,1319.78 1967.24,1318.78 1970.74,1316.88 C1977.34,1313.28 1981.54,1307.48 1981.54,1302.38 C1981.54,1300.98 1981.24,1299.58 1980.54,1298.38"/>
<path class="Note" d="M2219.19,1273.38 C2217.69,1270.68 2214.79,1268.98 2210.89,1268.58 C2210.29,1268.48 2209.79,1268.48 2209.19,1268.48 C2205.69,1268.48 2201.89,1269.48 2198.39,1271.38 C2191.79,1274.98 2187.69,1280.88 2187.69,1285.98 C2187.69,1287.38 2187.89,1288.68 2188.59,1289.88 C2190.09,1292.58 2193.09,1294.28 2196.99,1294.68 C2197.59,1294.78 2198.09,1294.78 2198.69,1294.78 C2202.19,1294.78 2205.89,1293.78 2209.39,1291.88 C2215.99,1288.28 2220.19,1282.48 2220.19,1277.38 C2220.19,1275.98 2219.89,1274.58 2219.19,1273.38"/>
<path class="Note" d="M2400.84,1298.38 C2399.34,1295.68 2396.44,1293.98 2392.54,1293.58 C2391.94,1293.48 2391.44,1293.48 2390.84,1293.48 C2387.34,1293.48 2383.54,1294.48 2380.04,1296.38 C2373.44,1299.98 2369.34,1305.88 2369.34,1310.98 C2369.34,1312.38 2369.54,1313.68 2370.24,1314.88 C2371.74,1317.58 2374.74,1319.28 2378.64,1319.68 C2379.24,1319.78 2379.74,1319.78 2380.34,1319.78 C2383.84,1319.78 2387.54,1318.78 2391.04,1316.88 C2397.64,1313.28 2401.84,1307.48 2401.84,1302.38 C2401.84,1300.98 2401.54,1299.58 2400.84,1298.38"/>
<path class="Note" d="M2582.48,1323.38 C2580.98,1320.68 2578.08,1318.98 2574.18,1318.58 C2573.58,1318.48 2573.08,1318.48 2572.48,1318.48 C2568.98,1318.48 2565.18,1319.48 2561.68,1321.38 C2555.08,1324.98 2550.98,1330.88 2550.98,1335.98 C2550.98,1337.38 2551.18,1338.68 2551.88,1339.88 C2553.38,1342.58 2556.38,1344.28 2560.28,1344.68 C2560.88,1344.78 2561.38,1344.78 2561.98,1344.78 C2565.48,1344.78 2569.18,1343.78 2572.68,1341.88 C2579.28,1338.28 2583.48,1332.48 2583.48,1327.38 C2583.48,1325.98 2583.18,1324.58 2582.48,1323.38"/>
<path class="Clef" d="M297,918.954 C289.4,918.954 283.3,923.354 283.2,923.354 C277.4,927.654 275.1,932.754 274.2,936.254 C273.7,938.054 273.5,939.854 273.5,941.554 C273.5,943.954 273.9,946.154 274.8,948.054 C276,950.754 278.3,952.654 281.3,953.654 C282.5,954.054 283.8,954.254 285.1,954.254 C287.3,954.254 289.6,953.654 291.5,952.554 C294.6,950.854 296.5,947.254 296.5,943.354 C296.5,939.854 294.7,936.654 291.7,934.754 C289.6,933.354 287.6,932.954 285.9,932.954 C284.7,932.954 283.6,933.154 282.7,933.454 C281.7,933.854 280,934.854 279.2,935.554 C279.5,933.654 280.7,930.754 281.8,929.154 C282.9,927.554 285.1,925.554 286.8,924.654 C289.3,923.254 292.5,922.654 296,922.654 C306.2,922.654 311.2,930.854 311.2,947.654 C311.2,956.954 307.7,965.854 304.7,971.754 C301.4,978.354 297,984.654 293.1,988.154 C282.7,997.654 272.9,1002.15 272.8,1002.15 C272.8,1002.15 271.3,1003.05 271.7,1004.55 C272,1005.55 272.9,1005.75 273.5,1005.75 C273.6,1005.75 273.9,1005.65 274,1005.65 C274.1,1005.65 285.5,1000.95 294.6,993.854 C299.7,990.154 304.3,986.154 308.3,981.854 C311.9,977.954 315,973.754 317.5,969.554 C321.9,962.054 324.4,954.254 324.4,947.554 C324.4,939.254 322.2,932.354 318.1,927.454 C313.4,921.854 306.3,918.954 297,918.954 M328.4,931.654 C328.4,934.454 330.6,936.654 333.2,936.654 C335.8,936.654 338,934.454 338,931.654 C338,928.854 335.8,926.554 333.2,926.554 C330.6,926.554 328.4,928.854 328.4,931.654 M328.4,956.354 C328.4,959.154 330.6,961.454 333.2,961.454 C335.8,961.454 338,959.154 338,956.354 C338,953.554 335.8,951.254 333.2,951.254 C330.6,951.254 328.4,953.554 328.4,956.354"/>
<path class="Clef" transform="matrix(0.80005,0,0,0.80005,960.964,994.057)" d="M63.4,-5.9 C62.2,-11.3 59.5,-15.2 58.7,-16.2 C55.5,-20.5 51.5,-23.3 46.8,-24.7 C44.5,-25.4 42.4,-25.6 40.4,-25.6 C39.7,-25.6 39,-25.6 38.3,-25.5 C37.3,-31.5 36.2,-37.4 35.3,-42.8 C40.9,-49 44.6,-54.9 47,-59.3 C50.6,-66 52,-70.7 52.1,-70.9 C53.3,-73.9 54,-77.7 54,-82.2 C54,-84.9 53.7,-87.8 53.3,-90.8 C52.2,-97.9 50,-104.6 47.5,-108.3 C46.2,-110.2 45,-111.3 43.8,-111.3 C42.6,-111.3 40.1,-110.1 37.2,-107.3 C34.9,-105.1 31.6,-101.2 29,-95.2 C26.7,-89.8 26,-82.9 26,-77 C26,-75.2 26.1,-73.5 26.2,-71.9 C26.4,-68.3 27.1,-62.5 27.7,-58.9 C27.7,-58.8 28,-57.3 28.4,-54.7 L27.7,-54 C26.7,-53 25.5,-51.9 24.1,-50.5 C23.2,-49.6 22.3,-48.8 21.3,-47.8 C12.8,-39.6 0,-27.2 0,-8.1 C0,-3.4 0.9,1 2.7,5 C4.3,8.6 6.6,11.9 9.5,14.8 C17,22.2 27.2,25.4 34.3,25.4 L34.9,25.4 C37.8,25.3 40.5,25 42.9,24.6 C44.7,34.2 45.9,41.3 45.9,46.6 C45.9,53.1 44.3,57 40.4,59.8 C38,61.5 35.1,62.6 32,62.7 L31.2,62.7 C29.7,62.7 27.2,62.3 25.7,61.9 C25.7,61.9 25.4,61.8 25.4,61.6 C25.4,61.4 25.8,61.4 25.8,61.4 C27.7,61 31.3,59.7 33.7,56.4 C34.8,54.9 35.5,52.6 35.5,50.1 C35.5,48.5 35.2,46.8 34.5,45.3 C33.4,42.9 30.8,39.9 25.2,39.5 L24.1,39.5 C22,39.5 20.2,40 18.5,41 C16.7,42.1 15.1,43.8 14.1,45.8 C13,47.8 12.5,50 12.5,52.2 C12.5,55.1 13.4,57.8 15.2,60 C18.2,63.6 22.9,65.9 28.3,66.5 C29,66.6 30.1,66.7 30.8,66.7 C35.2,66.7 39.6,65.5 43.2,63.3 C46.9,60.7 49,56.7 49.7,51.1 C49.9,49.8 49.9,48.4 49.9,46.9 C49.9,43 49.4,38.3 48.4,32.5 C48,30.4 47.6,27.4 46.9,23.6 C52.7,21.7 56.8,18 60.6,12.2 C62.9,8.2 64,4.1 64,-0.2 C64,-2.1 63.8,-4 63.4,-5.9 M33.2,-83.8 C35,-89.5 37.7,-92.9 39.7,-94.6 C41.5,-96.1 43.1,-96.8 44,-96.8 C44.1,-96.8 44.3,-96.7 44.4,-96.7 C44.7,-96.6 45.1,-96.1 45.5,-95.4 C46.4,-93.6 47.3,-90.3 47.3,-86.6 C47.3,-84.7 47.1,-82.7 46.5,-80.9 C44.3,-74.1 39.7,-66.8 32.7,-59.1 C32.5,-60.2 32.3,-61.2 32.2,-62.2 C31.7,-65.4 31.4,-68.6 31.4,-71.5 C31.4,-76 32,-80.1 33.2,-83.8 M29.2,20.3 C24.6,19.1 20.1,16.6 16.3,13.1 C15,11.9 13.2,9.7 11.7,6.3 C10.4,3.3 9.7,0.2 9.7,-3.2 L9.7,-3.9 C9.8,-8.6 11.1,-13.4 13.6,-18.2 C16.5,-23.8 21,-29.3 27.1,-34.6 C28.6,-35.9 30,-37.2 31.3,-38.5 C32.1,-34.2 32.8,-29.5 33.7,-24.6 C29.8,-23.3 25.1,-20.3 22,-14.6 C19.6,-10.1 18.9,-6.2 18.9,-3 C18.9,-1.5 19.1,-0.1 19.3,1 C20.2,5.5 22.8,9.2 26.3,11.3 C27.1,11.8 30.4,13.5 32.4,13.5 C32.7,13.5 33,13.5 33.2,13.4 C33.5,13.3 33.8,13.1 33.9,12.8 C34,12.6 34,12.4 34,12.2 C34,11.4 33.2,10.8 31.9,10 C31.3,9.6 30.6,9.2 29.9,8.7 C27.3,6.7 25.8,3.6 25.8,0.2 C25.8,-0.8 26,-1.7 26.2,-2.7 C26.7,-4.7 28.4,-7.5 29.9,-8.9 C31.6,-10.4 33.6,-11.6 36,-12.2 C38,-1 40.1,10.1 41.7,18.5 C41.8,19.2 42,19.9 42.1,20.6 C40.1,21 38.1,21.2 36.2,21.2 C33.8,21.2 31.5,20.9 29.2,20.3 M54.9,10.1 C53.7,13.3 51.2,17.3 46.1,19.4 C46,19 46,18.5 45.9,18.1 C44.4,9.3 42.5,-1.6 40.5,-12.9 L41.5,-12.9 C51.2,-12.9 55.1,-5.7 56,-1.1 C56.2,-0.2 56.3,1 56.3,2.3 C56.3,4.6 55.9,7.4 54.9,10.1"/>
<path class="Clef" d="M335,1600.7 C333.8,1595.3 331.1,1591.4 330.3,1590.4 C327.1,1586.1 323.1,1583.3 318.4,1581.9 C316.1,1581.2 314,1581 312,1581 C311.3,1581 310.6,1581 309.9,1581.1 C308.9,1575.1 307.8,1569.2 306.9,1563.8 C312.5,1557.6 316.2,1551.7 318.6,1547.3 C322.2,1540.6 323.6,1535.9 323.7,1535.7 C324.9,1532.7 325.6,1528.9 325.6,1524.4 C325.6,1521.7 325.3,1518.8 324.9,1515.8 C323.8,1508.7 321.6,1502 319.1,1498.3 C317.8,1496.4 316.6,1495.3 315.4,1495.3 C314.2,1495.3 311.7,1496.5 308.8,1499.3 C306.5,1501.5 303.2,1505.4 300.6,1511.4 C298.3,1516.8 297.6,1523.7 297.6,1529.6 C297.6,1531.4 297.7,1533.1 297.8,1534.7 C298,1538.3 298.7,1544.1 299.3,1547.7 C299.3,1547.8 299.6,1549.3 300,1551.9 L299.3,1552.6 C298.3,1553.6 297.1,1554.7 295.7,1556.1 C294.8,1557 293.9,1557.8 292.9,1558.8 C284.4,1567 271.6,1579.4 271.6,1598.5 C271.6,1603.2 272.5,1607.6 274.3,1611.6 C275.9,1615.2 278.2,1618.5 281.1,1621.4 C288.6,1628.8 298.8,1632 305.9,1632 L306.5,1632 C309.4,1631.9 312.1,1631.6 314.5,1631.2 C316.3,1640.8 317.5,1647.9 317.5,1653.2 C317.5,1659.7 315.9,1663.6 312,1666.4 C309.6,1668.1 306.7,1669.2 303.6,1669.3 L302.8,1669.3 C301.3,1669.3 298.8,1668.9 297.3,1668.5 C297.3,1668.5 297,1668.4 297,1668.2 C297,1668 297.4,1668 297.4,1668 C299.3,1667.6 302.9,1666.3 305.3,1663 C306.4,1661.5 307.1,1659.2 307.1,1656.7 C307.1,1655.1 306.8,1653.4 306.1,1651.9 C305,1649.5 302.4,1646.5 296.8,1646.1 L295.7,1646.1 C293.6,1646.1 291.8,1646.6 290.1,1647.6 C288.3,1648.7 286.7,1650.4 285.7,1652.4 C284.6,1654.4 284.1,1656.6 284.1,1658.8 C284.1,1661.7 285,1664.4 286.8,1666.6 C289.8,1670.2 294.5,1672.5 299.9,1673.1 C300.6,1673.2 301.7,1673.3 302.4,1673.3 C306.8,1673.3 311.2,1672.1 314.8,1669.9 C318.5,1667.3 320.6,1663.3 321.3,1657.7 C321.5,1656.4 321.5,1655 321.5,1653.5 C321.5,1649.6 321,1644.9 320,1639.1 C319.6,1637 319.2,1634 318.5,1630.2 C324.3,1628.3 328.4,1624.6 332.2,1618.8 C334.5,1614.8 335.6,1610.7 335.6,1606.4 C335.6,1604.5 335.4,1602.6 335,1600.7 M304.8,1522.8 C306.6,1517.1 309.3,1513.7 311.3,1512 C313.1,1510.5 314.7,1509.8 315.6,1509.8 C315.7,1509.8 315.9,1509.9 316,1509.9 C316.3,1510 316.7,1510.5 317.1,1511.2 C318,1513 318.9,1516.3 318.9,1520 C318.9,1521.9 318.7,1523.9 318.1,1525.7 C315.9,1532.5 311.3,1539.8 304.3,1547.5 C304.1,1546.4 303.9,1545.4 303.8,1544.4 C303.3,1541.2 303,1538 303,1535.1 C303,1530.6 303.6,1526.5 304.8,1522.8 M300.8,1626.9 C296.2,1625.7 291.7,1623.2 287.9,1619.7 C286.6,1618.5 284.8,1616.3 283.3,1612.9 C282,1609.9 281.3,1606.8 281.3,1603.4 L281.3,1602.7 C281.4,1598 282.7,1593.2 285.2,1588.4 C288.1,1582.8 292.6,1577.3 298.7,1572 C300.2,1570.7 301.6,1569.4 302.9,1568.1 C303.7,1572.4 304.4,1577.1 305.3,1582 C301.4,1583.3 296.7,1586.3 293.6,1592 C291.2,1596.5 290.5,1600.4 290.5,1603.6 C290.5,1605.1 290.7,1606.5 290.9,1607.6 C291.8,1612.1 294.4,1615.8 297.9,1617.9 C298.7,1618.4 302,1620.1 304,1620.1 C304.3,1620.1 304.6,1620.1 304.8,1620 C305.1,1619.9 305.4,1619.7 305.5,1619.4 C305.6,1619.2 305.6,1619 305.6,1618.8 C305.6,1618 304.8,1617.4 303.5,1616.6 C302.9,1616.2 302.2,1615.8 301.5,1615.3 C298.9,1613.3 297.4,1610.2 297.4,1606.8 C297.4,1605.8 297.6,1604.9 297.8,1603.9 C298.3,1601.9 300,1599.1 301.5,1597.7 C303.2,1596.2 305.2,1595 307.6,1594.4 C309.6,1605.6 311.7,1616.7 313.3,1625.1 C313.4,1625.8 313.6,1626.5 313.7,1627.2 C311.7,1627.6 309.7,1627.8 307.8,1627.8 C305.4,1627.8 303.1,1627.5 300.8,1626.9 M326.5,1616.7 C325.3,1619.9 322.8,1623.9 317.7,1626 C317.6,1625.6 317.6,1625.1 317.5,1624.7 C316,1615.9 314.1,1605 312.1,1593.7 L313.1,1593.7 C322.8,1593.7 326.7,1600.9 327.6,1605.5 C327.8,1606.4 327.9,1607.6 327.9,1608.9 C327.9,1611.2 327.5,1614 326.5,1616.7"/>
<path class="Clef" transform="matrix(0.80005,0,0,0.80005,2076.31,1556.59)" d="M25.4,-25.1 C17.8,-25.1 11.7,-20.7 11.6,-20.7 C5.8,-16.4 3.5,-11.3 2.6,-7.8 C2.1,-6 1.9,-4.2 1.9,-2.5 C1.9,-0.1 2.3,2.1 3.2,4 C4.4,6.7 6.7,8.6 9.7,9.6 C10.9,10 12.2,10.2 13.5,10.2 C15.7,10.2 18,9.6 19.9,8.5 C23,6.8 24.9,3.2 24.9,-0.7 C24.9,-4.2 23.1,-7.4 20.1,-9.3 C18,-10.7 16,-11.1 14.3,-11.1 C13.1,-11.1 12,-10.9 11.1,-10.6 C10.1,-10.2 8.4,-9.2 7.6,-8.5 C7.9,-10.4 9.1,-13.3 10.2,-14.9 C11.3,-16.5 13.5,-18.5 15.2,-19.4 C17.7,-20.8 20.9,-21.4 24.4,-21.4 C34.6,-21.4 39.6,-13.2 39.6,3.6 C39.6,12.9 36.1,21.8 33.1,27.7 C29.8,34.3 25.4,40.6 21.5,44.1 C11.1,53.6 1.3,58.1 1.2,58.1 C1.2,58.1 -0.3,59 0.1,60.5 C0.4,61.5 1.3,61.7 1.9,61.7 C2,61.7 2.3,61.6 2.4,61.6 C2.5,61.6 13.9,56.9 23,49.8 C28.1,46.1 32.7,42.1 36.7,37.8 C40.3,33.9 43.4,29.7 45.9,25.5 C50.3,18 52.8,10.2 52.8,3.5 C52.8,-4.8 50.6,-11.7 46.5,-16.6 C41.8,-22.2 34.7,-25.1 25.4,-25.1 M56.8,-12.4 C56.8,-9.6 59,-7.4 61.6,-7.4 C64.2,-7.4 66.4,-9.6 66.4,-12.4 C66.4,-15.2 64.2,-17.5 61.6,-17.5 C59,-17.5 56.8,-15.2 56.8,-12.4 M56.8,12.3 C56.8,15.1 59,17.4 61.6,17.4 C64.2,17.4 66.4,15.1 66.4,12.3 C66.4,9.5 64.2,7.2 61.6,7.2 C59,7.2 56.8,9.5 56.8,12.3"/>
<path class="Clef" d="M335,725.641 C333.8,720.241 331.1,716.341 330.3,715.341 C327.1,711.041 323.1,708.241 318.4,706.841 C316.1,706.141 314,705.941 312,705.941 C311.3,705.941 310.6,705.941 309.9,706.041 C308.9,700.041 307.8,694.141 306.9,688.741 C312.5,682.541 316.2,676.641 318.6,672.241 C322.2,665.541 323.6,660.841 323.7,660.641 C324.9,657.641 325.6,653.841 325.6,649.341 C325.6,646.641 325.3,643.741 324.9,640.741 C323.8,633.641 321.6,626.941 319.1,623.241 C317.8,621.341 316.6,620.241 315.4,620.241 C314.2,620.241 311.7,621.441 308.8,624.241 C306.5,626.441 303.2,630.341 300.6,636.341 C298.3,641.741 297.6,648.641 297.6,654.541 C297.6,656.341 297.7,658.041 297.8,659.641 C298,663.241 298.7,669.041 299.3,672.641 C299.3,672.741 299.6,674.241 300,676.841 L299.3,677.541 C298.3,678.541 297.1,679.641 295.7,681.041 C294.8,681.941 293.9,682.741 292.9,683.741 C284.4,691.941 271.6,704.341 271.6,723.441 C271.6,728.141 272.5,732.541 274.3,736.541 C275.9,740.141 278.2,743.441 281.1,746.341 C288.6,753.741 298.8,756.941 305.9,756.941 L306.5,756.941 C309.4,756.841 312.1,756.541 314.5,756.141 C316.3,765.741 317.5,772.841 317.5,778.141 C317.5,784.641 315.9,788.541 312,791.341 C309.6,793.041 306.7,794.141 303.6,794.241 L302.8,794.241 C301.3,794.241 298.8,793.841 297.3,793.441 C297.3,793.441 297,793.341 297,793.141 C297,792.941 297.4,792.941 297.4,792.941 C299.3,792.541 302.9,791.241 305.3,787.941 C306.4,786.441 307.1,784.141 307.1,781.641 C307.1,780.041 306.8,778.341 306.1,776.841 C305,774.441 302.4,771.441 296.8,771.041 L295.7,771.041 C293.6,771.041 291.8,771.541 290.1,772.541 C288.3,773.641 286.7,775.341 285.7,777.341 C284.6,779.341 284.1,781.541 284.1,783.741 C284.1,786.641 285,789.341 286.8,791.541 C289.8,795.141 294.5,797.441 299.9,798.041 C300.6,798.141 301.7,798.241 302.4,798.241 C306.8,798.241 311.2,797.041 314.8,794.841 C318.5,792.241 320.6,788.241 321.3,782.641 C321.5,781.341 321.5,779.941 321.5,778.441 C321.5,774.541 321,769.841 320,764.041 C319.6,761.941 319.2,758.941 318.5,755.141 C324.3,753.241 328.4,749.541 332.2,743.741 C334.5,739.741 335.6,735.641 335.6,731.341 C335.6,729.441 335.4,727.541 335,725.641 M304.8,647.741 C306.6,642.041 309.3,638.641 311.3,636.941 C313.1,635.441 314.7,634.741 315.6,634.741 C315.7,634.741 315.9,634.841 316,634.841 C316.3,634.941 316.7,635.441 317.1,636.141 C318,637.941 318.9,641.241 318.9,644.941 C318.9,646.841 318.7,648.841 318.1,650.641 C315.9,657.441 311.3,664.741 304.3,672.441 C304.1,671.341 303.9,670.341 303.8,669.341 C303.3,666.141 303,662.941 303,660.041 C303,655.541 303.6,651.441 304.8,647.741 M300.8,751.841 C296.2,750.641 291.7,748.141 287.9,744.641 C286.6,743.441 284.8,741.241 283.3,737.841 C282,734.841 281.3,731.741 281.3,728.341 L281.3,727.641 C281.4,722.941 282.7,718.141 285.2,713.341 C288.1,707.741 292.6,702.241 298.7,696.941 C300.2,695.641 301.6,694.341 302.9,693.041 C303.7,697.341 304.4,702.041 305.3,706.941 C301.4,708.241 296.7,711.241 293.6,716.941 C291.2,721.441 290.5,725.341 290.5,728.541 C290.5,730.041 290.7,731.441 290.9,732.541 C291.8,737.041 294.4,740.741 297.9,742.841 C298.7,743.341 302,745.041 304,745.041 C304.3,745.041 304.6,745.041 304.8,744.941 C305.1,744.841 305.4,744.641 305.5,744.341 C305.6,744.141 305.6,743.941 305.6,743.741 C305.6,742.941 304.8,742.341 303.5,741.541 C302.9,741.141 302.2,740.741 301.5,740.241 C298.9,738.241 297.4,735.141 297.4,731.741 C297.4,730.741 297.6,729.841 297.8,728.841 C298.3,726.841 300,724.041 301.5,722.641 C303.2,721.141 305.2,719.941 307.6,719.341 C309.6,730.541 311.7,741.641 313.3,750.041 C313.4,750.741 313.6,751.441 313.7,752.141 C311.7,752.541 309.7,752.741 307.8,752.741 C305.4,752.741 303.1,752.441 300.8,751.841 M326.5,741.641 C325.3,744.841 322.8,748.841 317.7,750.941 C317.6,750.541 317.6,750.041 317.5,749.641 C316,740.841 314.1,729.941 312.1,718.641 L313.1,718.641 C322.8,718.641 326.7,725.841 327.6,730.441 C327.8,731.341 327.9,732.541 327.9,733.841 C327.9,736.141 327.5,738.941 326.5,741.641"/>
<path class="Clef" d="M335,1338.18 C333.8,1332.78 331.1,1328.88 330.3,1327.88 C327.1,1323.58 323.1,1320.78 318.4,1319.38 C316.1,1318.68 314,1318.48 312,1318.48 C311.3,1318.48 310.6,1318.48 309.9,1318.58 C308.9,1312.58 307.8,1306.68 306.9,1301.28 C312.5,1295.08 316.2,1289.18 318.6,1284.78 C322.2,1278.08 323.6,1273.38 323.7,1273.18 C324.9,1270.18 325.6,1266.38 325.6,1261.88 C325.6,1259.18 325.3,1256.28 324.9,1253.28 C323.8,1246.18 321.6,1239.48 319.1,1235.78 C317.8,1233.88 316.6,1232.78 315.4,1232.78 C314.2,1232.78 311.7,1233.98 308.8,1236.78 C306.5,1238.98 303.2,1242.88 300.6,1248.88 C298.3,1254.28 297.6,1261.18 297.6,1267.08 C297.6,1268.88 297.7,1270.58 297.8,1272.18 C298,1275.78 298.7,1281.58 299.3,1285.18 C299.3,1285.28 299.6,1286.78 300,1289.38 L299.3,1290.08 C298.3,1291.08 297.1,1292.18 295.7,1293.58 C294.8,1294.48 293.9,1295.28 292.9,1296.28 C284.4,1304.48 271.6,1316.88 271.6,1335.98 C271.6,1340.68 272.5,1345.08 274.3,1349.08 C275.9,1352.68 278.2,1355.98 281.1,1358.88 C288.6,1366.28 298.8,1369.48 305.9,1369.48 L306.5,1369.48 C309.4,1369.38 312.1,1369.08 314.5,1368.68 C316.3,1378.28 317.5,1385.38 317.5,1390.68 C317.5,1397.18 315.9,1401.08 312,1403.88 C309.6,1405.58 306.7,1406.68 303.6,1406.78 L302.8,1406.78 C301.3,1406.78 298.8,1406.38 297.3,1405.98 C297.3,1405.98 297,1405.88 297,1405.68 C297,1405.48 297.4,1405.48 297.4,1405.48 C299.3,1405.08 302.9,1403.78 305.3,1400.48 C306.4,1398.98 307.1,1396.68 307.1,1394.18 C307.1,1392.58 306.8,1390.88 306.1,1389.38 C305,1386.98 302.4,1383.98 296.8,1383.58 L295.7,1383.58 C293.6,1383.58 291.8,1384.08 290.1,1385.08 C288.3,1386.18 286.7,1387.88 285.7,1389.88 C284.6,1391.88 284.1,1394.08 284.1,1396.28 C284.1,1399.18 285,1401.88 286.8,1404.08 C289.8,1407.68 294.5,1409.98 299.9,1410.58 C300.6,1410.68 301.7,1410.78 302.4,1410.78 C306.8,1410.78 311.2,1409.58 314.8,1407.38 C318.5,1404.78 320.6,1400.78 321.3,1395.18 C321.5,1393.88 321.5,1392.48 321.5,1390.98 C321.5,1387.08 321,1382.38 320,1376.58 C319.6,1374.48 319.2,1371.48 318.5,1367.68 C324.3,1365.78 328.4,1362.08 332.2,1356.28 C334.5,1352.28 335.6,1348.18 335.6,1343.88 C335.6,1341.98 335.4,1340.08 335,1338.18 M304.8,1260.28 C306.6,1254.58 309.3,1251.18 311.3,1249.48 C313.1,1247.98 314.7,1247.28 315.6,1247.28 C315.7,1247.28 315.9,1247.38 316,1247.38 C316.3,1247.48 316.7,1247.98 317.1,1248.68 C318,1250.48 318.9,1253.78 318.9,1257.48 C318.9,1259.38 318.7,1261.38 318.1,1263.18 C315.9,1269.98 311.3,1277.28 304.3,1284.98 C304.1,1283.88 303.9,1282.88 303.8,1281.88 C303.3,1278.68 303,1275.48 303,1272.58 C303,1268.08 303.6,1263.98 304.8,1260.28 M300.8,1364.38 C296.2,1363.18 291.7,1360.68 287.9,1357.18 C286.6,1355.98 284.8,1353.78 283.3,1350.38 C282,1347.38 281.3,1344.28 281.3,1340.88 L281.3,1340.18 C281.4,1335.48 282.7,1330.68 285.2,1325.88 C288.1,1320.28 292.6,1314.78 298.7,1309.48 C300.2,1308.18 301.6,1306.88 302.9,1305.58 C303.7,1309.88 304.4,1314.58 305.3,1319.48 C301.4,1320.78 296.7,1323.78 293.6,1329.48 C291.2,1333.98 290.5,1337.88 290.5,1341.08 C290.5,1342.58 290.7,1343.98 290.9,1345.08 C291.8,1349.58 294.4,1353.28 297.9,1355.38 C298.7,1355.88 302,1357.58 304,1357.58 C304.3,1357.58 304.6,1357.58 304.8,1357.48 C305.1,1357.38 305.4,1357.18 305.5,1356.88 C305.6,1356.68 305.6,1356.48 305.6,1356.28 C305.6,1355.48 304.8,1354.88 303.5,1354.08 C302.9,1353.68 302.2,1353.28 301.5,1352.78 C298.9,1350.78 297.4,1347.68 297.4,1344.28 C297.4,1343.28 297.6,1342.38 297.8,1341.38 C298.3,1339.38 300,1336.58 301.5,1335.18 C303.2,1333.68 305.2,1332.48 307.6,1331.88 C309.6,1343.08 311.7,1354.18 313.3,1362.58 C313.4,1363.28 313.6,1363.98 313.7,1364.68 C311.7,1365.08 309.7,1365.28 307.8,1365.28 C305.4,1365.28 303.1,1364.98 300.8,1364.38 M326.5,1354.18 C325.3,1357.38 322.8,1361.38 317.7,1363.48 C317.6,1363.08 317.6,1362.58 317.5,1362.18 C316,1353.38 314.1,1342.48 312.1,1331.18 L313.1,1331.18 C322.8,1331.18 326.7,1338.38 327.6,1342.98 C327.8,1343.88 327.9,1345.08 327.9,1346.38 C327.9,1348.68 327.5,1351.48 326.5,1354.18"/>
<path class="TimeSig" d="M392.053,942.954 L392.253,942.954 C400.253,939.854 400.753,934.654 400.753,932.854 L400.753,932.354 C400.753,931.454 400.453,920.154 383.253,920.154 C366.053,920.154 366.553,932.354 366.553,932.354 L366.653,932.354 L366.553,932.554 C366.553,936.154 369.453,938.954 373.053,938.954 C376.653,938.954 379.453,936.154 379.453,932.554 C379.453,929.654 377.253,926.854 374.453,926.254 L374.753,925.954 C376.153,924.954 378.053,924.454 379.953,924.454 C384.153,924.454 388.653,926.954 388.653,932.354 C388.653,938.654 383.953,939.554 382.753,939.754 C381.553,939.954 375.953,940.354 374.753,940.354 C373.553,940.354 373.453,941.754 373.453,941.754 L373.453,943.754 C373.453,943.754 373.653,944.854 374.753,944.954 C376.453,945.054 378.753,945.054 381.953,945.554 C386.353,946.154 388.653,949.154 388.653,956.154 C388.653,962.854 384.153,964.654 379.953,964.654 C377.153,964.654 374.553,963.854 373.453,963.054 C376.753,962.854 379.453,959.954 379.453,956.654 C379.453,953.054 376.653,950.154 373.053,950.154 C369.453,950.154 366.553,953.054 366.553,956.654 C366.553,956.654 366.053,961.154 370.453,965.254 C374.353,968.854 379.253,968.954 381.453,968.954 C391.053,968.954 401.453,965.654 401.453,954.754 C401.453,947.454 396.453,944.354 392.053,942.954"/>
<path class="TimeSig" d="M365.2,1006.06 L382,1006.06 L382,1013.36 L373.9,1013.36 C373.1,1013.36 372.5,1013.96 372.5,1014.76 L372.5,1016.66 C372.5,1017.46 373.1,1017.96 373.9,1017.96 L403.6,1017.96 C404.4,1017.96 405,1017.46 405,1016.66 L405,1014.76 C405,1013.96 404.4,1013.36 403.6,1013.36 L394.8,1013.36 L394.8,1006.06 L403.6,1006.06 C404.4,1006.06 405,1005.46 405,1004.66 L405,1002.86 C405,1002.06 404.4,1001.46 403.6,1001.46 L394.8,1001.46 L394.8,985.758 C394.8,985.258 394.4,984.758 394,984.558 L392.9,983.958 C392.7,983.858 392.4,983.858 392.2,983.858 C391.9,983.858 391.5,983.958 391.3,984.158 L382.4,992.358 C382.2,992.558 382,993.058 382,993.358 L382,1001.46 L370.7,1001.46 C370.7,1001.46 381.6,989.658 393.2,974.158 C394,973.058 393.6,972.058 393.4,971.858 L391.3,969.658 C391.1,969.458 390.6,969.258 390.3,969.258 L375.7,969.258 C375,969.258 374.5,969.858 374.4,970.458 C374.4,970.458 373.9,977.658 371.3,985.658 C368.7,993.658 365.9,998.458 363.3,1002.06 C363.3,1002.06 362.8,1003.06 363.1,1003.76 C363.4,1004.46 364.1,1005.56 364.1,1005.56 C364.1,1005.56 364.4,1006.06 365.2,1006.06"/>
<path class="TimeSig" d="M392.053,680.438 L392.253,680.438 C400.253,677.338 400.753,672.138 400.753,670.338 L400.753,669.838 C400.753,668.938 400.453,657.638 383.253,657.638 C366.053,657.638 366.553,669.838 366.553,669.838 L366.653,669.838 L366.553,670.038 C366.553,673.638 369.453,676.438 373.053,676.438 C376.653,676.438 379.453,673.638 379.453,670.038 C379.453,667.138 377.253,664.338 374.453,663.738 L374.753,663.438 C376.153,662.438 378.053,661.938 379.953,661.938 C384.153,661.938 388.653,664.438 388.653,669.838 C388.653,676.138 383.953,677.038 382.753,677.238 C381.553,677.438 375.953,677.838 374.753,677.838 C373.553,677.838 373.453,679.238 373.453,679.238 L373.453,681.238 C373.453,681.238 373.653,682.338 374.753,682.438 C376.453,682.538 378.753,682.538 381.953,683.038 C386.353,683.638 388.653,686.638 388.653,693.638 C388.653,700.338 384.153,702.138 379.953,702.138 C377.153,702.138 374.553,701.338 373.453,700.538 C376.753,700.338 379.453,697.438 379.453,694.138 C379.453,690.538 376.653,687.638 373.053,687.638 C369.453,687.638 366.553,690.538 366.553,694.138 C366.553,694.138 366.053,698.638 370.453,702.738 C374.353,706.338 379.253,706.438 381.453,706.438 C391.053,706.438 401.453,703.138 401.453,692.238 C401.453,684.938 396.453,681.838 392.053,680.438"/>
<path class="TimeSig" d="M365.2,743.541 L382,743.541 L382,750.841 L373.9,750.841 C373.1,750.841 372.5,751.441 372.5,752.241 L372.5,754.141 C372.5,754.941 373.1,755.441 373.9,755.441 L403.6,755.441 C404.4,755.441 405,754.941 405,754.141 L405,752.241 C405,751.441 404.4,750.841 403.6,750.841 L394.8,750.841 L394.8,743.541 L403.6,743.541 C404.4,743.541 405,742.941 405,742.141 L405,740.341 C405,739.541 404.4,738.941 403.6,738.941 L394.8,738.941 L394.8,723.241 C394.8,722.741 394.4,722.241 394,722.041 L392.9,721.441 C392.7,721.341 392.4,721.341 392.2,721.341 C391.9,721.341 391.5,721.441 391.3,721.641 L382.4,729.841 C382.2,730.041 382,730.541 382,730.841 L382,738.941 L370.7,738.941 C370.7,738.941 381.6,727.141 393.2,711.641 C394,710.541 393.6,709.541 393.4,709.341 L391.3,707.141 C391.1,706.941 390.6,706.741 390.3,706.741 L375.7,706.741 C375,706.741 374.5,707.341 374.4,707.941 C374.4,707.941 373.9,715.141 371.3,723.141 C368.7,731.141 365.9,735.941 363.3,739.541 C363.3,739.541 362.8,740.541 363.1,741.241 C363.4,741.941 364.1,743.041 364.1,743.041 C364.1,743.041 364.4,743.541 365.2,743.541"/>
<path class="Page" d="M217.958,4039.47 C220.388,4040.06 221.603,4040.24 223.403,4040.24 C227.228,4040.24 230.018,4038.93 231.503,4036.41 C231.998,4035.6 232.178,4035.15 232.178,4034.79 C232.178,4034.52 232.088,4034.39 231.818,4034.39 C231.683,4034.39 231.503,4034.43 231.233,4034.57 C229.028,4035.51 227.858,4035.74 225.248,4035.74 C222.368,4035.74 220.568,4035.47 215.978,4034.39 C215.798,4038.17 215.393,4042.98 214.763,4048.56 C213.818,4049.55 213.503,4050.14 213.503,4050.86 C213.503,4051.8 214.088,4052.39 214.943,4052.39 C216.113,4052.39 216.788,4051.44 216.968,4049.64 C218.543,4048.52 220.028,4048.02 221.828,4048.02 C225.878,4048.02 228.263,4051.08 228.263,4056.26 C228.263,4059.27 227.498,4061.84 226.148,4063.23 C225.248,4064.18 223.403,4064.81 221.558,4064.81 C218.858,4064.81 216.068,4063.41 216.068,4062.02 C216.068,4061.7 216.338,4061.34 216.878,4061.03 C218.273,4060.17 218.678,4059.59 218.678,4058.37 C218.678,4056.8 217.463,4055.58 215.843,4055.58 C214.043,4055.58 212.603,4057.25 212.603,4059.36 C212.603,4061.61 213.908,4063.86 215.933,4065.26 C217.463,4066.25 219.263,4066.74 221.648,4066.74 C228.713,4066.74 233.168,4062.6 233.168,4055.99 C233.168,4049.87 229.118,4045.77 222.998,4045.77 C221.063,4045.77 219.668,4046.09 217.193,4047.12 L217.958,4039.47 M250.084,4034.39 C248.554,4036.23 244.414,4037.63 240.274,4037.72 L240.274,4039.65 L244.234,4039.65 C246.844,4039.7 247.114,4039.97 247.024,4042.49 L247.024,4060.53 C247.024,4062.83 247.024,4062.92 246.754,4063.32 C246.394,4063.77 245.539,4063.95 243.019,4063.95 L240.094,4063.95 L240.094,4066.07 L257.914,4066.07 L257.914,4063.95 L255.439,4063.95 C252.919,4063.95 252.064,4063.77 251.704,4063.32 C251.389,4062.92 251.389,4062.87 251.389,4060.53 L251.389,4041.95 C251.389,4039.43 251.479,4037.31 251.704,4034.39 L250.084,4034.39 "/>
<path class="Bracket" transform="matrix(3.62523,0,0,3.62523,214.469,1019.06)" d="M0.92002,-50 C2.69004,-51.88 6.2,-55.8 6.2,-63 C6.2,-72.1 2.25996,-81.32 2.25996,-86.97 C2.25996,-93.06 5.84004,-98.84 5.95,-99 C6.05996,-99.16 6.05,-99.39 5.94004,-99.46 C5.82998,-99.53 5.62002,-99.47 5.49004,-99.32 C5.35996,-99.17 0,-93.75 0,-85.6 C0,-76.75 3.5,-70.58 3.5,-59.07 C3.5,-56.89 2.55996,-53.36 0.1,-50.33 C-0.0799805,-50.17 -0.1,-49.89 0.0599609,-49.7 L0.0700195,-49.69 L0.1,-49.66 C2.55996,-46.63 3.5,-43.1 3.5,-40.92 C3.5,-29.4 0,-23.24 0,-14.39 C0,-6.25 5.35996,-0.8 5.49004,-0.659961 C5.62002,-0.52002 5.8,-0.42998 5.94004,-0.52002 C6.07998,-0.609961 6.07998,-0.77998 5.95,-0.97998 C5.82002,-1.17998 2.25996,-6.92002 2.25996,-13.01 C2.25996,-18.66 6.2,-27.9 6.2,-37 C6.2,-44.3 2.69004,-48.12 0.92002,-50"/>
<path class="Bracket" transform="matrix(3.62523,0,0,3.62523,214.469,1631.6)" d="M0.92002,-50 C2.69004,-51.88 6.2,-55.8 6.2,-63 C6.2,-72.1 2.25996,-81.32 2.25996,-86.97 C2.25996,-93.06 5.84004,-98.84 5.95,-99 C6.05996,-99.16 6.05,-99.39 5.94004,-99.46 C5.82998,-99.53 5.62002,-99.47 5.49004,-99.32 C5.35996,-99.17 0,-93.75 0,-85.6 C0,-76.75 3.5,-70.58 3.5,-59.07 C3.5,-56.89 2.55996,-53.36 0.1,-50.33 C-0.0799805,-50.17 -0.1,-49.89 0.0599609,-49.7 L0.0700195,-49.69 L0.1,-49.66 C2.55996,-46.63 3.5,-43.1 3.5,-40.92 C3.5,-29.4 0,-23.24 0,-14.39 C0,-6.25 5.35996,-0.8 5.49004,-0.659961 C5.62002,-0.52002 5.8,-0.42998 5.94004,-0.52002 C6.07998,-0.609961 6.07998,-0.77998 5.95,-0.97998 C5.82002,-1.17998 2.25996,-6.92002 2.25996,-13.01 C2.25996,-18.66 6.2,-27.9 6.2,-37 C6.2,-44.3 2.69004,-48.12 0.92002,-50"/>
</svg>