<?xml version="1.0" encoding="UTF-8" standalone="no"?>
<svg width="1000px" height="500px" viewBox="150 650 2700 1000" xmlns="http://www.w3.org/2000/svg" xmlns:xlink="http://www.w3.org/1999/xlink" version="1.2" baseProfile="tiny">
 xmlns="http://www.w3.org/2000/svg" xmlns:xlink="http://www.w3.org/1999/xlink" version="1.2" baseProfile="tiny">
<title>exercises_scores (56)</title>
<desc>Generated by MuseScore 3.6.0</desc>
<polyline class="StaffLines" fill="none" stroke="#000000" stroke-width="2.75" stroke-linejoin="bevel" points="247.099,653.098 2764.63,653.098"/>
<polyline class="StaffLines" fill="none" stroke="#000000" stroke-width="2.75" stroke-linejoin="bevel" points="247.099,678.1 2764.63,678.1"/>
<polyline class="StaffLines" fill="none" stroke="#000000" stroke-width="2.75" stroke-linejoin="bevel" points="247.099,703.102 2764.63,703.102"/>
<polyline class="StaffLines" fill="none" stroke="#000000" stroke-width="2.75" stroke-linejoin="bevel" points="247.099,728.103 2764.63,728.103"/>
<polyline class="StaffLines" fill="none" stroke="#000000" stroke-width="2.75" stroke-linejoin="bevel" points="247.099,753.105 2764.63,753.105"/>
<polyline class="StaffLines" fill="none" stroke="#000000" stroke-width="2.75" stroke-linejoin="bevel" points="247.099,915.615 2764.63,915.615"/>
<polyline class="StaffLines" fill="none" stroke="#000000" stroke-width="2.75" stroke-linejoin="bevel" points="247.099,940.617 2764.63,940.617"/>
<polyline class="StaffLines" fill="none" stroke="#000000" stroke-width="2.75" stroke-linejoin="bevel" points="247.099,965.618 2764.63,965.618"/>
<polyline class="StaffLines" fill="none" stroke="#000000" stroke-width="2.75" stroke-linejoin="bevel" points="247.099,990.62 2764.63,990.62"/>
<polyline class="StaffLines" fill="none" stroke="#000000" stroke-width="2.75" stroke-linejoin="bevel" points="247.099,1015.62 2764.63,1015.62"/>
<polyline class="StaffLines" fill="none" stroke="#000000" stroke-width="2.75" stroke-linejoin="bevel" points="247.099,1265.64 2764.63,1265.64"/>
<polyline class="StaffLines" fill="none" stroke="#000000" stroke-width="2.75" stroke-linejoin="bevel" points="247.099,1290.64 2764.63,1290.64"/>
<polyline class="StaffLines" fill="none" stroke="#000000" stroke-width="2.75" stroke-linejoin="bevel" points="247.099,1315.64 2764.63,1315.64"/>
<polyline class="StaffLines" fill="none" stroke="#000000" stroke-width="2.75" stroke-linejoin="bevel" points="247.099,1340.64 2764.63,1340.64"/>
<polyline class="StaffLines" fill="none" stroke="#000000" stroke-width="2.75" stroke-linejoin="bevel" points="247.099,1365.64 2764.63,1365.64"/>
<polyline class="StaffLines" fill="none" stroke="#000000" stroke-width="2.75" stroke-linejoin="bevel" points="247.099,1528.15 2764.63,1528.15"/>
<polyline class="StaffLines" fill="none" stroke="#000000" stroke-width="2.75" stroke-linejoin="bevel" points="247.099,1553.16 2764.63,1553.16"/>
<polyline class="StaffLines" fill="none" stroke="#000000" stroke-width="2.75" stroke-linejoin="bevel" points="247.099,1578.16 2764.63,1578.16"/>
<polyline class="StaffLines" fill="none" stroke="#000000" stroke-width="2.75" stroke-linejoin="bevel" points="247.099,1603.16 2764.63,1603.16"/>
<polyline class="StaffLines" fill="none" stroke="#000000" stroke-width="2.75" stroke-linejoin="bevel" points="247.099,1628.16 2764.63,1628.16"/>
<path class="Text" d="M212.602,213.497 L212.602,216.317 L213.682,216.317 C217.102,216.377 218.242,216.557 218.722,217.157 C219.082,217.697 219.082,217.817 219.082,220.877 L219.082,249.437 C219.082,252.497 219.082,252.617 218.722,253.157 C218.242,253.757 217.102,253.997 213.682,253.997 L212.602,253.997 L212.602,256.817 L234.382,256.817 C244.762,256.817 251.002,252.437 251.002,245.057 C251.002,239.057 247.222,235.637 239.002,234.197 C241.882,233.597 243.202,233.057 244.762,231.917 C247.222,230.057 248.722,227.117 248.722,224.117 C248.722,220.217 246.322,216.437 242.842,214.937 C240.682,213.977 237.682,213.497 234.142,213.497 L212.602,213.497 M225.802,232.997 L225.802,219.317 C225.802,216.977 226.582,216.377 229.762,216.317 L232.162,216.317 C234.922,216.317 237.202,216.797 238.462,217.577 C240.622,218.897 241.762,221.417 241.762,224.777 C241.762,230.717 238.882,232.997 231.142,232.997 L225.802,232.997 M225.802,235.817 L231.082,235.817 C240.262,235.817 243.622,238.277 243.622,244.877 C243.622,248.717 242.302,251.477 239.962,252.617 C238.102,253.577 235.582,253.997 231.802,253.997 L229.282,253.997 C226.282,253.997 225.682,253.397 225.802,250.217 L225.802,235.817 M265.994,228.857 L255.374,229.517 L255.374,232.097 L257.834,232.097 C260.114,232.157 260.414,232.517 260.414,235.097 L260.414,249.437 L260.414,252.257 C260.354,253.157 260.294,253.517 260.054,253.817 C259.634,254.357 258.434,254.597 255.854,254.657 L255.614,254.657 L255.614,256.817 L271.634,256.817 L271.634,254.657 L270.554,254.657 C266.534,254.537 265.994,254.237 265.994,252.077 L265.994,249.437 L265.994,248.837 C266.054,238.757 269.654,231.077 274.334,230.837 C273.494,231.797 273.254,232.397 273.254,233.537 C273.254,235.457 274.634,236.837 276.554,236.837 C278.774,236.837 280.214,235.217 280.214,232.817 C280.214,229.877 278.174,227.957 274.994,227.957 C271.214,227.957 267.974,230.957 265.994,236.297 L265.994,228.857 M295.562,227.957 C288.182,227.957 282.482,234.497 282.482,242.897 C282.482,251.117 288.242,257.717 295.442,257.717 C302.642,257.717 308.402,251.117 308.402,242.837 C308.402,234.617 302.642,227.957 295.562,227.957 M295.562,230.537 C299.762,230.537 302.102,234.917 302.102,242.837 C302.102,250.817 299.762,255.137 295.442,255.137 C291.122,255.137 288.782,250.817 288.782,242.897 C288.782,234.737 291.062,230.537 295.562,230.537 M322.382,242.297 L322.382,212.597 L311.282,213.257 L311.282,215.837 L314.162,215.837 C316.442,215.897 316.742,216.257 316.742,218.837 L316.742,249.437 L316.742,252.317 C316.682,253.157 316.622,253.517 316.382,253.817 C315.962,254.357 314.822,254.597 312.242,254.657 L312.002,254.657 L312.002,256.817 L327.182,256.817 L327.182,254.657 L326.942,254.657 C322.922,254.537 322.382,254.237 322.382,252.077 L322.382,249.437 L322.382,246.017 L326.042,242.537 L333.182,252.557 C333.482,253.037 333.602,253.337 333.602,253.577 C333.602,254.417 332.942,254.657 330.962,254.657 L329.822,254.657 L329.822,256.817 L345.662,256.817 L345.662,254.657 C342.302,254.357 341.102,253.637 338.642,250.517 L330.122,238.877 L332.822,236.237 C336.362,232.817 338.882,231.497 342.962,231.017 L342.962,228.857 L327.182,228.857 L327.182,231.017 L329.042,231.017 C330.962,231.017 331.862,231.377 331.862,232.157 C331.862,232.817 331.442,233.537 330.482,234.497 L322.382,242.297 M372.842,243.317 C372.902,234.317 367.802,227.957 360.482,227.957 C352.802,227.957 347.042,234.617 347.042,243.617 C347.042,252.077 352.502,257.717 360.602,257.717 C366.362,257.717 370.382,254.897 372.842,249.197 L370.742,248.057 C368.282,252.677 365.762,254.477 361.742,254.477 C358.682,254.477 356.462,253.217 354.902,250.517 C353.822,248.717 353.342,246.617 353.402,243.317 L372.842,243.317 M353.462,240.737 C353.462,238.877 353.702,237.557 354.302,235.877 C355.562,232.277 357.482,230.537 360.422,230.537 C364.022,230.537 366.422,233.717 366.422,238.577 C366.422,240.257 365.882,240.737 363.962,240.737 L353.462,240.737 M386.942,228.857 L376.562,229.517 L376.562,232.097 L378.722,232.097 C381.002,232.157 381.302,232.517 381.302,235.097 L381.302,249.437 L381.302,250.877 L381.302,252.257 C381.242,253.157 381.182,253.517 380.942,253.817 C380.522,254.357 379.382,254.597 376.802,254.657 L376.562,254.657 L376.562,256.817 L391.742,256.817 L391.742,254.657 L391.502,254.657 C387.482,254.537 386.942,254.237 386.942,252.077 L386.942,249.437 L386.942,243.197 C386.942,240.257 387.362,237.557 388.022,236.177 C389.282,233.477 391.982,231.617 394.562,231.617 C396.122,231.617 397.922,232.457 398.822,233.717 C399.722,235.037 400.142,236.837 400.142,239.717 L400.142,249.437 L400.142,252.257 C400.082,253.157 400.022,253.517 399.782,253.817 C399.362,254.357 398.162,254.597 395.582,254.657 L395.342,254.657 L395.342,256.817 L410.522,256.817 L410.522,254.657 L410.282,254.657 C406.322,254.537 405.782,254.237 405.782,252.077 L405.782,249.437 L405.782,240.017 C405.782,235.697 405.602,234.617 404.522,232.577 C403.022,229.697 400.022,227.957 396.422,227.957 C392.522,227.957 389.582,229.757 386.942,233.717 L386.942,228.857 M466.61,213.077 L464.33,213.077 L461.93,216.617 C457.55,213.437 455.33,212.597 451.19,212.597 C445.49,212.597 440.63,214.997 436.61,219.797 C432.77,224.357 430.97,229.397 430.97,235.577 C430.97,248.537 439.43,257.717 451.25,257.717 C460.85,257.717 466.97,252.077 468.35,241.997 L465.53,241.517 C463.91,250.457 459.35,254.897 451.97,254.897 C443.09,254.897 438.89,248.777 438.89,235.817 C438.89,228.977 439.79,224.477 441.83,220.877 C443.69,217.517 447.35,215.417 451.25,215.417 C455.45,215.417 459.17,217.637 461.45,221.477 C462.59,223.457 463.43,225.677 464.87,230.417 L467.51,230.417 L466.61,213.077 M483.583,212.597 L472.483,213.257 L472.483,215.837 L475.363,215.837 C477.643,215.897 477.943,216.257 477.943,218.837 L477.943,249.437 L477.943,250.877 L477.943,252.317 C477.883,253.157 477.823,253.517 477.583,253.817 C477.163,254.357 476.023,254.597 473.443,254.657 L473.203,254.657 L473.203,256.817 L488.383,256.817 L488.383,254.657 L488.143,254.657 C484.123,254.537 483.583,254.237 483.583,252.077 L483.583,249.437 L483.583,243.197 C483.583,240.257 484.003,237.557 484.663,236.177 C485.983,233.477 488.623,231.617 491.203,231.617 C492.763,231.617 494.563,232.517 495.403,233.717 C496.363,235.037 496.783,236.837 496.783,239.777 L496.783,249.437 L496.783,252.317 C496.723,253.157 496.663,253.517 496.423,253.817 C496.003,254.357 494.803,254.597 492.223,254.657 L491.983,254.657 L491.983,256.817 L507.163,256.817 L507.163,254.657 L506.923,254.657 C502.963,254.537 502.423,254.237 502.423,252.077 L502.423,249.437 L502.423,240.017 C502.423,235.697 502.243,234.617 501.163,232.577 C499.663,229.637 496.663,227.957 493.063,227.957 C489.163,227.957 486.283,229.697 483.583,233.717 L483.583,212.597 M523.359,227.957 C515.979,227.957 510.279,234.497 510.279,242.897 C510.279,251.117 516.039,257.717 523.239,257.717 C530.439,257.717 536.199,251.117 536.199,242.837 C536.199,234.617 530.439,227.957 523.359,227.957 M523.359,230.537 C527.559,230.537 529.899,234.917 529.899,242.837 C529.899,250.817 527.559,255.137 523.239,255.137 C518.919,255.137 516.579,250.817 516.579,242.897 C516.579,234.737 518.859,230.537 523.359,230.537 M550.119,228.857 L539.499,229.517 L539.499,232.097 L541.959,232.097 C544.239,232.157 544.539,232.517 544.539,235.097 L544.539,249.437 L544.539,252.257 C544.479,253.157 544.419,253.517 544.179,253.817 C543.759,254.357 542.559,254.597 539.979,254.657 L539.739,254.657 L539.739,256.817 L555.759,256.817 L555.759,254.657 L554.679,254.657 C550.659,254.537 550.119,254.237 550.119,252.077 L550.119,249.437 L550.119,248.837 C550.179,238.757 553.779,231.077 558.459,230.837 C557.619,231.797 557.379,232.397 557.379,233.537 C557.379,235.457 558.759,236.837 560.679,236.837 C562.899,236.837 564.339,235.217 564.339,232.817 C564.339,229.877 562.299,227.957 559.119,227.957 C555.339,227.957 552.099,230.957 550.119,236.297 L550.119,228.857 M587.18,257.237 L597.62,256.817 L597.62,254.237 L596.54,254.237 C593.12,254.057 592.82,253.697 592.82,249.857 L592.82,212.597 L581.06,213.257 L581.06,215.837 L584.6,215.837 C586.88,215.897 587.18,216.257 587.18,218.837 L587.18,232.397 C584.96,229.337 582.38,227.957 578.9,227.957 C572.12,227.957 566.96,234.497 566.96,243.137 C566.96,251.657 571.94,257.717 578.9,257.717 C582.68,257.717 585.26,256.097 587.18,252.497 L587.18,257.237 M580.1,231.197 C582.56,231.197 584.9,232.997 585.98,235.757 C586.76,237.557 587.12,240.017 587.12,242.957 C587.12,249.977 584.36,254.477 580.04,254.477 C575.78,254.477 573.26,250.517 573.26,243.857 C573.26,240.257 573.62,237.557 574.4,235.577 C575.42,232.877 577.64,231.197 580.1,231.197 M607.757,250.157 C605.657,250.157 603.977,251.837 603.977,253.877 C603.977,255.977 605.657,257.657 607.697,257.657 C609.797,257.657 611.477,255.977 611.477,253.877 C611.477,251.837 609.797,250.157 607.757,250.157 M607.757,228.437 C605.657,228.437 603.977,230.117 603.977,232.217 C603.977,234.257 605.657,235.937 607.697,235.937 C609.797,235.937 611.477,234.257 611.477,232.157 C611.477,230.117 609.797,228.437 607.757,228.437 M633.901,256.817 L654.061,256.817 C659.401,256.817 663.481,255.977 666.661,254.177 C672.721,250.757 676.081,243.917 676.081,234.917 C676.081,226.637 673.081,220.157 667.561,216.557 C664.261,214.457 659.821,213.497 652.981,213.497 L633.901,213.497 L633.901,216.317 L635.041,216.317 C638.401,216.377 639.541,216.557 640.021,217.157 C640.381,217.697 640.381,217.817 640.381,220.877 L640.381,249.437 C640.381,252.497 640.381,252.617 640.021,253.157 C639.541,253.757 638.401,253.937 635.041,253.997 L633.901,253.997 L633.901,256.817 M650.521,253.997 C647.461,253.997 647.101,253.637 647.101,250.697 L647.101,219.677 C647.101,216.737 647.521,216.317 650.521,216.317 L653.641,216.317 C663.901,216.317 668.161,221.897 668.161,235.157 C668.161,248.597 664.321,253.997 654.601,253.997 L650.521,253.997 M707.565,228.857 L696.885,229.517 L696.885,232.097 L699.345,232.097 C701.625,232.157 701.925,232.517 701.925,235.097 L701.925,249.437 L701.925,251.777 L701.925,252.257 C701.865,253.157 701.805,253.517 701.565,253.817 C701.145,254.357 700.005,254.597 697.425,254.657 L697.185,254.657 L697.185,256.817 L712.305,256.817 L712.305,254.657 L712.065,254.657 C708.105,254.537 707.565,254.237 707.565,252.017 L707.565,249.437 L707.565,240.917 C707.565,235.577 710.505,231.617 714.405,231.617 C717.825,231.617 719.565,234.077 719.565,238.937 L719.565,249.437 L719.565,252.317 C719.505,253.097 719.445,253.517 719.145,253.817 C718.785,254.357 717.585,254.597 715.005,254.657 L714.765,254.657 L714.765,256.817 L729.945,256.817 L729.945,254.657 L729.705,254.657 C725.745,254.537 725.205,254.237 725.205,252.077 L725.205,249.437 L725.205,241.457 C725.205,235.457 727.905,231.617 732.105,231.617 C735.525,231.617 737.205,234.197 737.205,239.597 L737.205,249.437 L737.205,252.257 C737.145,253.097 737.085,253.517 736.785,253.817 C736.425,254.357 735.225,254.597 732.645,254.657 L732.405,254.657 L732.405,256.817 L747.585,256.817 L747.585,254.657 L747.345,254.657 C743.385,254.537 742.845,254.237 742.845,252.017 L742.845,249.437 L742.845,238.397 C742.845,234.677 742.485,233.417 740.925,231.377 C739.185,229.157 736.725,227.957 733.845,227.957 C729.945,227.957 727.065,229.817 724.485,233.957 C723.465,230.357 720.225,227.957 716.205,227.957 C712.545,227.957 709.905,229.697 707.565,233.477 L707.565,228.857 M761.193,228.857 L749.913,229.517 L749.913,232.097 L752.973,232.097 C755.253,232.157 755.553,232.517 755.553,235.097 L755.553,249.437 L755.553,252.257 C755.493,253.157 755.433,253.517 755.193,253.817 C754.773,254.357 753.633,254.597 751.053,254.657 L750.633,254.657 L750.633,256.817 L766.173,256.817 L766.173,254.657 L765.753,254.657 C761.733,254.537 761.193,254.237 761.193,252.077 L761.193,249.437 L761.193,228.857 M758.373,213.917 C756.453,213.917 754.893,215.477 754.893,217.397 C754.893,219.317 756.453,220.877 758.313,220.877 C760.293,220.877 761.853,219.317 761.853,217.397 C761.853,215.477 760.293,213.917 758.373,213.917 M779.723,228.857 L769.343,229.517 L769.343,232.097 L771.503,232.097 C773.783,232.157 774.083,232.517 774.083,235.097 L774.083,249.437 L774.083,250.877 L774.083,252.257 C774.023,253.157 773.963,253.517 773.723,253.817 C773.303,254.357 772.163,254.597 769.583,254.657 L769.343,254.657 L769.343,256.817 L784.523,256.817 L784.523,254.657 L784.283,254.657 C780.263,254.537 779.723,254.237 779.723,252.077 L779.723,249.437 L779.723,243.197 C779.723,240.257 780.143,237.557 780.803,236.177 C782.063,233.477 784.763,231.617 787.343,231.617 C788.903,231.617 790.703,232.457 791.603,233.717 C792.503,235.037 792.923,236.837 792.923,239.717 L792.923,249.437 L792.923,252.257 C792.863,253.157 792.803,253.517 792.563,253.817 C792.143,254.357 790.943,254.597 788.363,254.657 L788.123,254.657 L788.123,256.817 L803.303,256.817 L803.303,254.657 L803.063,254.657 C799.103,254.537 798.563,254.237 798.563,252.077 L798.563,249.437 L798.563,240.017 C798.563,235.697 798.383,234.617 797.303,232.577 C795.803,229.697 792.803,227.957 789.203,227.957 C785.303,227.957 782.363,229.757 779.723,233.717 L779.723,228.857 M819.5,227.957 C812.12,227.957 806.42,234.497 806.42,242.897 C806.42,251.117 812.18,257.717 819.38,257.717 C826.58,257.717 832.34,251.117 832.34,242.837 C832.34,234.617 826.58,227.957 819.5,227.957 M819.5,230.537 C823.7,230.537 826.04,234.917 826.04,242.837 C826.04,250.817 823.7,255.137 819.38,255.137 C815.06,255.137 812.72,250.817 812.72,242.897 C812.72,234.737 815,230.537 819.5,230.537 M846.26,228.857 L835.64,229.517 L835.64,232.097 L838.1,232.097 C840.38,232.157 840.68,232.517 840.68,235.097 L840.68,249.437 L840.68,252.257 C840.62,253.157 840.56,253.517 840.32,253.817 C839.9,254.357 838.7,254.597 836.12,254.657 L835.88,254.657 L835.88,256.817 L851.9,256.817 L851.9,254.657 L850.82,254.657 C846.8,254.537 846.26,254.237 846.26,252.077 L846.26,249.437 L846.26,248.837 C846.32,238.757 849.92,231.077 854.6,230.837 C853.76,231.797 853.52,232.397 853.52,233.537 C853.52,235.457 854.9,236.837 856.82,236.837 C859.04,236.837 860.48,235.217 860.48,232.817 C860.48,229.877 858.44,227.957 855.26,227.957 C851.48,227.957 848.24,230.957 846.26,236.297 L846.26,228.857 "/>
<path class="TieSegment" stroke="#000000" stroke-width="1.75" stroke-linecap="round" stroke-linejoin="round" fill-rule="evenodd" d="M2601.13,996.87 C2633.83,1018.22 2731.93,1018.22 2764.63,996.87 C2731.93,1025.22 2633.83,1025.22 2601.13,996.87"/>
<path class="TieSegment" stroke="#000000" stroke-width="1.75" stroke-linecap="round" stroke-linejoin="round" fill-rule="evenodd" d="M335.596,1609.41 C352.122,1618.47 401.698,1618.47 418.224,1609.41 C401.698,1625.47 352.122,1625.47 335.596,1609.41"/>
<path class="TieSegment" stroke="#000000" stroke-width="1.75" stroke-linecap="round" stroke-linejoin="round" fill-rule="evenodd" d="M2601.13,609.346 C2633.83,580.993 2731.93,580.993 2764.63,609.346 C2731.93,587.993 2633.83,587.993 2601.13,609.346"/>
<path class="TieSegment" stroke="#000000" stroke-width="1.75" stroke-linecap="round" stroke-linejoin="round" fill-rule="evenodd" d="M335.596,1221.88 C352.122,1205.82 401.698,1205.82 418.224,1221.88 C401.698,1212.83 352.122,1212.83 335.596,1221.88"/>
<polyline class="BarLine" stroke="#000000" stroke-width="4.50" stroke-linejoin="bevel" points="249.349,914.24 249.349,1017"/>
<polyline class="BarLine" stroke="#000000" stroke-width="4.50" stroke-linejoin="bevel" points="997.626,914.24 997.626,1017"/>
<polyline class="BarLine" stroke="#000000" stroke-width="4.50" stroke-linejoin="bevel" points="1575,914.24 1575,1017"/>
<polyline class="BarLine" stroke="#000000" stroke-width="4.50" stroke-linejoin="bevel" points="2185.01,914.24 2185.01,1017"/>
<polyline class="BarLine" stroke="#000000" stroke-width="4.50" stroke-linejoin="bevel" points="2762.38,914.24 2762.38,1017"/>
<polyline class="BarLine" stroke="#000000" stroke-width="4.50" stroke-linejoin="bevel" points="249.349,1526.78 249.349,1629.54"/>
<polyline class="BarLine" stroke="#000000" stroke-width="4.50" stroke-linejoin="bevel" points="954.965,1526.78 954.965,1629.54"/>
<polyline class="BarLine" stroke="#000000" stroke-width="4.50" stroke-linejoin="bevel" points="1560.4,1526.78 1560.4,1629.54"/>
<polyline class="BarLine" stroke="#000000" stroke-width="4.50" stroke-linejoin="bevel" points="2152.01,1526.78 2152.01,1629.54"/>
<polyline class="BarLine" stroke="#000000" stroke-width="4.50" stroke-linejoin="bevel" points="2734.88,1526.78 2734.88,1629.54"/>
<polyline class="BarLine" stroke="#000000" stroke-width="13.75" stroke-linejoin="bevel" points="2757.76,1526.78 2757.76,1629.54"/>
<polyline class="BarLine" stroke="#000000" stroke-width="4.50" stroke-linejoin="bevel" points="249.349,651.723 249.349,915.615"/>
<polyline class="BarLine" stroke="#000000" stroke-width="4.50" stroke-linejoin="bevel" points="997.626,651.723 997.626,915.615"/>
<polyline class="BarLine" stroke="#000000" stroke-width="4.50" stroke-linejoin="bevel" points="1575,651.723 1575,915.615"/>
<polyline class="BarLine" stroke="#000000" stroke-width="4.50" stroke-linejoin="bevel" points="2185.01,651.723 2185.01,915.615"/>
<polyline class="BarLine" stroke="#000000" stroke-width="4.50" stroke-linejoin="bevel" points="2762.38,651.723 2762.38,915.615"/>
<polyline class="BarLine" stroke="#000000" stroke-width="4.50" stroke-linejoin="bevel" points="249.349,1264.26 249.349,1528.15"/>
<polyline class="BarLine" stroke="#000000" stroke-width="4.50" stroke-linejoin="bevel" points="954.965,1264.26 954.965,1528.15"/>
<polyline class="BarLine" stroke="#000000" stroke-width="4.50" stroke-linejoin="bevel" points="1560.4,1264.26 1560.4,1528.15"/>
<polyline class="BarLine" stroke="#000000" stroke-width="4.50" stroke-linejoin="bevel" points="2152.01,1264.26 2152.01,1528.15"/>
<polyline class="BarLine" stroke="#000000" stroke-width="4.50" stroke-linejoin="bevel" points="2734.88,1264.26 2734.88,1528.15"/>
<polyline class="BarLine" stroke="#000000" stroke-width="13.75" stroke-linejoin="bevel" points="2757.76,1264.26 2757.76,1528.15"/>
<polyline class="LedgerLine" stroke="#000000" stroke-width="4.00" stroke-linejoin="bevel" points="1383.88,890.613 1433.87,890.613"/>
<polyline class="LedgerLine" stroke="#000000" stroke-width="4.00" stroke-linejoin="bevel" points="1787.84,890.613 1837.83,890.613"/>
<polyline class="LedgerLine" stroke="#000000" stroke-width="4.00" stroke-linejoin="bevel" points="1974.67,890.613 2024.67,890.613"/>
<polyline class="LedgerLine" stroke="#000000" stroke-width="4.00" stroke-linejoin="bevel" points="1974.67,865.612 2024.67,865.612"/>
<polyline class="LedgerLine" stroke="#000000" stroke-width="4.00" stroke-linejoin="bevel" points="1351.59,1678.16 1401.58,1678.16"/>
<polyline class="LedgerLine" stroke="#000000" stroke-width="4.00" stroke-linejoin="bevel" points="1351.59,1653.16 1401.58,1653.16"/>
<polyline class="LedgerLine" stroke="#000000" stroke-width="4.00" stroke-linejoin="bevel" points="1595.15,1503.15 1645.14,1503.15"/>
<polyline class="LedgerLine" stroke="#000000" stroke-width="4.00" stroke-linejoin="bevel" points="2571.26,628.097 2621.25,628.097"/>
<polyline class="LedgerLine" stroke="#000000" stroke-width="4.00" stroke-linejoin="bevel" points="398.1,1240.64 448.096,1240.64"/>
<polyline class="Stem" stroke="#000000" stroke-width="2.75" stroke-linejoin="bevel" points="456.377,969.138 456.377,1043.75"/>
<polyline class="Stem" stroke="#000000" stroke-width="2.75" stroke-linejoin="bevel" points="636.502,944.137 636.502,1025"/>
<polyline class="Stem" stroke="#000000" stroke-width="2.75" stroke-linejoin="bevel" points="816.626,919.135 816.626,1003.12"/>
<polyline class="Stem" stroke="#000000" stroke-width="2.75" stroke-linejoin="bevel" points="1033.75,944.137 1033.75,1025"/>
<polyline class="Stem" stroke="#000000" stroke-width="2.75" stroke-linejoin="bevel" points="1213.88,919.135 1213.88,1003.12"/>
<polyline class="Stem" stroke="#000000" stroke-width="2.75" stroke-linejoin="bevel" points="1394,881.633 1394,965.618"/>
<polyline class="Stem" stroke="#000000" stroke-width="2.75" stroke-linejoin="bevel" points="1611.13,919.135 1611.13,1003.12"/>
<polyline class="Stem" stroke="#000000" stroke-width="2.75" stroke-linejoin="bevel" points="1797.96,881.633 1797.96,965.618"/>
<polyline class="Stem" stroke="#000000" stroke-width="2.75" stroke-linejoin="bevel" points="1984.8,856.631 1984.8,965.618"/>
<polyline class="Stem" stroke="#000000" stroke-width="2.75" stroke-linejoin="bevel" points="2250.88,1024.76 2250.88,940.617"/>
<polyline class="Stem" stroke="#000000" stroke-width="2.75" stroke-linejoin="bevel" points="2431,999.76 2431,915.615"/>
<polyline class="Stem" stroke="#000000" stroke-width="2.75" stroke-linejoin="bevel" points="2611.13,974.759 2611.13,896.864"/>
<polyline class="Stem" stroke="#000000" stroke-width="2.75" stroke-linejoin="bevel" points="437.97,1587.3 437.97,1509.4"/>
<polyline class="Stem" stroke="#000000" stroke-width="2.75" stroke-linejoin="bevel" points="619.925,1612.3 619.925,1528.15"/>
<polyline class="Stem" stroke="#000000" stroke-width="2.75" stroke-linejoin="bevel" points="801.879,1637.3 801.879,1553.16"/>
<polyline class="Stem" stroke="#000000" stroke-width="2.75" stroke-linejoin="bevel" points="1020.84,1612.3 1020.84,1528.15"/>
<polyline class="Stem" stroke="#000000" stroke-width="2.75" stroke-linejoin="bevel" points="1206.15,1637.3 1206.15,1553.16"/>
<polyline class="Stem" stroke="#000000" stroke-width="2.75" stroke-linejoin="bevel" points="1391.45,1674.8 1391.45,1578.16"/>
<polyline class="Stem" stroke="#000000" stroke-width="2.75" stroke-linejoin="bevel" points="1605.27,1494.17 1605.27,1578.16"/>
<polyline class="Stem" stroke="#000000" stroke-width="2.75" stroke-linejoin="bevel" points="1787.23,1531.67 1787.23,1615.66"/>
<polyline class="Stem" stroke="#000000" stroke-width="2.75" stroke-linejoin="bevel" points="1969.18,1556.68 1969.18,1637.54"/>
<polyline class="Stem" stroke="#000000" stroke-width="2.75" stroke-linejoin="bevel" points="2188.14,1531.67 2188.14,1615.66"/>
<polyline class="Stem" stroke="#000000" stroke-width="2.75" stroke-linejoin="bevel" points="2370.09,1556.68 2370.09,1637.54"/>
<polyline class="Stem" stroke="#000000" stroke-width="2.75" stroke-linejoin="bevel" points="2552.05,1581.68 2552.05,1656.29"/>
<polyline class="Stem" stroke="#000000" stroke-width="2.75" stroke-linejoin="bevel" points="486.121,762.245 486.121,678.1"/>
<polyline class="Stem" stroke="#000000" stroke-width="2.75" stroke-linejoin="bevel" points="666.246,737.244 666.246,653.098"/>
<polyline class="Stem" stroke="#000000" stroke-width="2.75" stroke-linejoin="bevel" points="846.371,712.242 846.371,634.347"/>
<polyline class="Stem" stroke="#000000" stroke-width="2.75" stroke-linejoin="bevel" points="1063.5,737.244 1063.5,653.098"/>
<polyline class="Stem" stroke="#000000" stroke-width="2.75" stroke-linejoin="bevel" points="1243.62,712.242 1243.62,634.347"/>
<polyline class="Stem" stroke="#000000" stroke-width="2.75" stroke-linejoin="bevel" points="1394,681.62 1394,762.48"/>
<polyline class="Stem" stroke="#000000" stroke-width="2.75" stroke-linejoin="bevel" points="1640.87,712.242 1640.87,634.347"/>
<polyline class="Stem" stroke="#000000" stroke-width="2.75" stroke-linejoin="bevel" points="1797.96,681.62 1797.96,762.48"/>
<polyline class="Stem" stroke="#000000" stroke-width="2.75" stroke-linejoin="bevel" points="1984.8,656.619 1984.8,740.604"/>
<polyline class="Stem" stroke="#000000" stroke-width="2.75" stroke-linejoin="bevel" points="2221.13,681.62 2221.13,762.48"/>
<polyline class="Stem" stroke="#000000" stroke-width="2.75" stroke-linejoin="bevel" points="2401.26,656.619 2401.26,740.604"/>
<polyline class="Stem" stroke="#000000" stroke-width="2.75" stroke-linejoin="bevel" points="2581.38,631.617 2581.38,715.602"/>
<polyline class="Stem" stroke="#000000" stroke-width="2.75" stroke-linejoin="bevel" points="408.226,1244.16 408.226,1328.14"/>
<polyline class="Stem" stroke="#000000" stroke-width="2.75" stroke-linejoin="bevel" points="590.181,1269.16 590.181,1353.14"/>
<polyline class="Stem" stroke="#000000" stroke-width="2.75" stroke-linejoin="bevel" points="772.135,1294.16 772.135,1375.02"/>
<polyline class="Stem" stroke="#000000" stroke-width="2.75" stroke-linejoin="bevel" points="991.092,1269.16 991.092,1353.14"/>
<polyline class="Stem" stroke="#000000" stroke-width="2.75" stroke-linejoin="bevel" points="1176.4,1294.16 1176.4,1375.02"/>
<polyline class="Stem" stroke="#000000" stroke-width="2.75" stroke-linejoin="bevel" points="1391.45,1324.78 1391.45,1246.89"/>
<polyline class="Stem" stroke="#000000" stroke-width="2.75" stroke-linejoin="bevel" points="1605.27,1294.16 1605.27,1375.02"/>
<polyline class="Stem" stroke="#000000" stroke-width="2.75" stroke-linejoin="bevel" points="1816.97,1324.78 1816.97,1246.89"/>
<polyline class="Stem" stroke="#000000" stroke-width="2.75" stroke-linejoin="bevel" points="1998.93,1349.78 1998.93,1265.64"/>
<polyline class="Stem" stroke="#000000" stroke-width="2.75" stroke-linejoin="bevel" points="2217.88,1324.78 2217.88,1246.89"/>
<polyline class="Stem" stroke="#000000" stroke-width="2.75" stroke-linejoin="bevel" points="2399.84,1349.78 2399.84,1265.64"/>
<polyline class="Stem" stroke="#000000" stroke-width="2.75" stroke-linejoin="bevel" points="2581.79,1374.78 2581.79,1290.64"/>
<path class="Note" d="M486.502,957.418 C485.002,954.718 482.102,953.018 478.202,952.618 C477.602,952.518 477.102,952.518 476.502,952.518 C473.002,952.518 469.202,953.518 465.702,955.418 C459.102,959.018 455.002,964.918 455.002,970.018 C455.002,971.418 455.202,972.718 455.902,973.918 C457.402,976.618 460.402,978.318 464.302,978.718 C464.902,978.818 465.402,978.818 466.002,978.818 C469.502,978.818 473.202,977.818 476.702,975.918 C483.302,972.318 487.502,966.518 487.502,961.418 C487.502,960.018 487.202,958.618 486.502,957.418"/>
<path class="Note" d="M666.627,932.417 C665.127,929.717 662.227,928.017 658.327,927.617 C657.727,927.517 657.227,927.517 656.627,927.517 C653.127,927.517 649.327,928.517 645.827,930.417 C639.227,934.017 635.127,939.917 635.127,945.017 C635.127,946.417 635.327,947.717 636.027,948.917 C637.527,951.617 640.527,953.317 644.427,953.717 C645.027,953.817 645.527,953.817 646.127,953.817 C649.627,953.817 653.327,952.817 656.827,950.917 C663.427,947.317 667.627,941.517 667.627,936.417 C667.627,935.017 667.327,933.617 666.627,932.417"/>
<path class="Note" d="M846.751,907.415 C845.251,904.715 842.351,903.015 838.451,902.615 C837.851,902.515 837.351,902.515 836.751,902.515 C833.251,902.515 829.451,903.515 825.951,905.415 C819.351,909.015 815.251,914.915 815.251,920.015 C815.251,921.415 815.451,922.715 816.151,923.915 C817.651,926.615 820.651,928.315 824.551,928.715 C825.151,928.815 825.651,928.815 826.251,928.815 C829.751,928.815 833.451,927.815 836.951,925.915 C843.551,922.315 847.751,916.515 847.751,911.415 C847.751,910.015 847.451,908.615 846.751,907.415"/>
<path class="Note" d="M1063.88,932.417 C1062.38,929.717 1059.48,928.017 1055.58,927.617 C1054.98,927.517 1054.48,927.517 1053.88,927.517 C1050.38,927.517 1046.58,928.517 1043.08,930.417 C1036.48,934.017 1032.38,939.917 1032.38,945.017 C1032.38,946.417 1032.58,947.717 1033.28,948.917 C1034.78,951.617 1037.78,953.317 1041.68,953.717 C1042.28,953.817 1042.78,953.817 1043.38,953.817 C1046.88,953.817 1050.58,952.817 1054.08,950.917 C1060.68,947.317 1064.88,941.517 1064.88,936.417 C1064.88,935.017 1064.58,933.617 1063.88,932.417"/>
<path class="Note" d="M1244,907.415 C1242.5,904.715 1239.6,903.015 1235.7,902.615 C1235.1,902.515 1234.6,902.515 1234,902.515 C1230.5,902.515 1226.7,903.515 1223.2,905.415 C1216.6,909.015 1212.5,914.915 1212.5,920.015 C1212.5,921.415 1212.7,922.715 1213.4,923.915 C1214.9,926.615 1217.9,928.315 1221.8,928.715 C1222.4,928.815 1222.9,928.815 1223.5,928.815 C1227,928.815 1230.7,927.815 1234.2,925.915 C1240.8,922.315 1245,916.515 1245,911.415 C1245,910.015 1244.7,908.615 1244,907.415"/>
<path class="Note" d="M1424.13,869.913 C1422.63,867.213 1419.73,865.513 1415.83,865.113 C1415.23,865.013 1414.73,865.013 1414.13,865.013 C1410.63,865.013 1406.83,866.013 1403.33,867.913 C1396.73,871.513 1392.63,877.413 1392.63,882.513 C1392.63,883.913 1392.83,885.213 1393.53,886.413 C1395.03,889.113 1398.03,890.813 1401.93,891.213 C1402.53,891.313 1403.03,891.313 1403.63,891.313 C1407.13,891.313 1410.83,890.313 1414.33,888.413 C1420.93,884.813 1425.13,879.013 1425.13,873.913 C1425.13,872.513 1424.83,871.113 1424.13,869.913"/>
<path class="Note" d="M1641.25,907.415 C1639.75,904.715 1636.85,903.015 1632.95,902.615 C1632.35,902.515 1631.85,902.515 1631.25,902.515 C1627.75,902.515 1623.95,903.515 1620.45,905.415 C1613.85,909.015 1609.75,914.915 1609.75,920.015 C1609.75,921.415 1609.95,922.715 1610.65,923.915 C1612.15,926.615 1615.15,928.315 1619.05,928.715 C1619.65,928.815 1620.15,928.815 1620.75,928.815 C1624.25,928.815 1627.95,927.815 1631.45,925.915 C1638.05,922.315 1642.25,916.515 1642.25,911.415 C1642.25,910.015 1641.95,908.615 1641.25,907.415"/>
<path class="Note" d="M1828.09,869.913 C1826.59,867.213 1823.69,865.513 1819.79,865.113 C1819.19,865.013 1818.69,865.013 1818.09,865.013 C1814.59,865.013 1810.79,866.013 1807.29,867.913 C1800.69,871.513 1796.59,877.413 1796.59,882.513 C1796.59,883.913 1796.79,885.213 1797.49,886.413 C1798.99,889.113 1801.99,890.813 1805.89,891.213 C1806.49,891.313 1806.99,891.313 1807.59,891.313 C1811.09,891.313 1814.79,890.313 1818.29,888.413 C1824.89,884.813 1829.09,879.013 1829.09,873.913 C1829.09,872.513 1828.79,871.113 1828.09,869.913"/>
<path class="Note" d="M2014.92,844.911 C2013.42,842.211 2010.52,840.511 2006.62,840.111 C2006.02,840.011 2005.52,840.011 2004.92,840.011 C2001.42,840.011 1997.62,841.011 1994.12,842.911 C1987.52,846.511 1983.42,852.411 1983.42,857.511 C1983.42,858.911 1983.62,860.211 1984.32,861.411 C1985.82,864.111 1988.82,865.811 1992.72,866.211 C1993.32,866.311 1993.82,866.311 1994.42,866.311 C1997.92,866.311 2001.62,865.311 2005.12,863.411 C2011.72,859.811 2015.92,854.011 2015.92,848.911 C2015.92,847.511 2015.62,846.111 2014.92,844.911"/>
<path class="Note" d="M2251.26,1019.92 C2249.76,1017.22 2246.86,1015.52 2242.96,1015.12 C2242.36,1015.02 2241.86,1015.02 2241.26,1015.02 C2237.76,1015.02 2233.96,1016.02 2230.46,1017.92 C2223.86,1021.52 2219.76,1027.42 2219.76,1032.52 C2219.76,1033.92 2219.96,1035.22 2220.66,1036.42 C2222.16,1039.12 2225.16,1040.82 2229.06,1041.22 C2229.66,1041.32 2230.16,1041.32 2230.76,1041.32 C2234.26,1041.32 2237.96,1040.32 2241.46,1038.42 C2248.06,1034.82 2252.26,1029.02 2252.26,1023.92 C2252.26,1022.52 2251.96,1021.12 2251.26,1019.92"/>
<path class="Note" d="M2431.38,994.921 C2429.88,992.221 2426.98,990.521 2423.08,990.121 C2422.48,990.021 2421.98,990.021 2421.38,990.021 C2417.88,990.021 2414.08,991.021 2410.58,992.921 C2403.98,996.521 2399.88,1002.42 2399.88,1007.52 C2399.88,1008.92 2400.08,1010.22 2400.78,1011.42 C2402.28,1014.12 2405.28,1015.82 2409.18,1016.22 C2409.78,1016.32 2410.28,1016.32 2410.88,1016.32 C2414.38,1016.32 2418.08,1015.32 2421.58,1013.42 C2428.18,1009.82 2432.38,1004.02 2432.38,998.921 C2432.38,997.521 2432.08,996.121 2431.38,994.921"/>
<path class="Note" d="M2611.51,969.919 C2610.01,967.219 2607.11,965.519 2603.21,965.119 C2602.61,965.019 2602.11,965.019 2601.51,965.019 C2598.01,965.019 2594.21,966.019 2590.71,967.919 C2584.11,971.519 2580.01,977.419 2580.01,982.519 C2580.01,983.919 2580.21,985.219 2580.91,986.419 C2582.41,989.119 2585.41,990.819 2589.31,991.219 C2589.91,991.319 2590.41,991.319 2591.01,991.319 C2594.51,991.319 2598.21,990.319 2601.71,988.419 C2608.31,984.819 2612.51,979.019 2612.51,973.919 C2612.51,972.519 2612.21,971.119 2611.51,969.919"/>
<path class="Note" d="M438.351,1582.46 C436.851,1579.76 433.951,1578.06 430.051,1577.66 C429.451,1577.56 428.951,1577.56 428.351,1577.56 C424.851,1577.56 421.051,1578.56 417.551,1580.46 C410.951,1584.06 406.851,1589.96 406.851,1595.06 C406.851,1596.46 407.051,1597.76 407.751,1598.96 C409.251,1601.66 412.251,1603.36 416.151,1603.76 C416.751,1603.86 417.251,1603.86 417.851,1603.86 C421.351,1603.86 425.051,1602.86 428.551,1600.96 C435.151,1597.36 439.351,1591.56 439.351,1586.46 C439.351,1585.06 439.051,1583.66 438.351,1582.46"/>
<path class="Note" d="M620.306,1607.46 C618.806,1604.76 615.906,1603.06 612.006,1602.66 C611.406,1602.56 610.906,1602.56 610.306,1602.56 C606.806,1602.56 603.006,1603.56 599.506,1605.46 C592.906,1609.06 588.806,1614.96 588.806,1620.06 C588.806,1621.46 589.006,1622.76 589.706,1623.96 C591.206,1626.66 594.206,1628.36 598.106,1628.76 C598.706,1628.86 599.206,1628.86 599.806,1628.86 C603.306,1628.86 607.006,1627.86 610.506,1625.96 C617.106,1622.36 621.306,1616.56 621.306,1611.46 C621.306,1610.06 621.006,1608.66 620.306,1607.46"/>
<path class="Note" d="M802.26,1632.46 C800.76,1629.76 797.86,1628.06 793.96,1627.66 C793.36,1627.56 792.86,1627.56 792.26,1627.56 C788.76,1627.56 784.96,1628.56 781.46,1630.46 C774.86,1634.06 770.76,1639.96 770.76,1645.06 C770.76,1646.46 770.96,1647.76 771.66,1648.96 C773.16,1651.66 776.16,1653.36 780.06,1653.76 C780.66,1653.86 781.16,1653.86 781.76,1653.86 C785.26,1653.86 788.96,1652.86 792.46,1650.96 C799.06,1647.36 803.26,1641.56 803.26,1636.46 C803.26,1635.06 802.96,1633.66 802.26,1632.46"/>
<path class="Note" d="M1021.22,1607.46 C1019.72,1604.76 1016.82,1603.06 1012.92,1602.66 C1012.32,1602.56 1011.82,1602.56 1011.22,1602.56 C1007.72,1602.56 1003.92,1603.56 1000.42,1605.46 C993.817,1609.06 989.717,1614.96 989.717,1620.06 C989.717,1621.46 989.917,1622.76 990.617,1623.96 C992.117,1626.66 995.117,1628.36 999.017,1628.76 C999.617,1628.86 1000.12,1628.86 1000.72,1628.86 C1004.22,1628.86 1007.92,1627.86 1011.42,1625.96 C1018.02,1622.36 1022.22,1616.56 1022.22,1611.46 C1022.22,1610.06 1021.92,1608.66 1021.22,1607.46"/>
<path class="Note" d="M1206.53,1632.46 C1205.03,1629.76 1202.13,1628.06 1198.23,1627.66 C1197.63,1627.56 1197.13,1627.56 1196.53,1627.56 C1193.03,1627.56 1189.23,1628.56 1185.73,1630.46 C1179.13,1634.06 1175.03,1639.96 1175.03,1645.06 C1175.03,1646.46 1175.23,1647.76 1175.93,1648.96 C1177.43,1651.66 1180.43,1653.36 1184.33,1653.76 C1184.93,1653.86 1185.43,1653.86 1186.03,1653.86 C1189.53,1653.86 1193.23,1652.86 1196.73,1650.96 C1203.33,1647.36 1207.53,1641.56 1207.53,1636.46 C1207.53,1635.06 1207.23,1633.66 1206.53,1632.46"/>
<path class="Note" d="M1391.84,1669.96 C1390.34,1667.26 1387.44,1665.56 1383.54,1665.16 C1382.94,1665.06 1382.44,1665.06 1381.84,1665.06 C1378.34,1665.06 1374.54,1666.06 1371.04,1667.96 C1364.44,1671.56 1360.34,1677.46 1360.34,1682.56 C1360.34,1683.96 1360.54,1685.26 1361.24,1686.46 C1362.74,1689.16 1365.74,1690.86 1369.64,1691.26 C1370.24,1691.36 1370.74,1691.36 1371.34,1691.36 C1374.84,1691.36 1378.54,1690.36 1382.04,1688.46 C1388.64,1684.86 1392.84,1679.06 1392.84,1673.96 C1392.84,1672.56 1392.54,1671.16 1391.84,1669.96"/>
<path class="Note" d="M1635.4,1482.45 C1633.9,1479.75 1631,1478.05 1627.1,1477.65 C1626.5,1477.55 1626,1477.55 1625.4,1477.55 C1621.9,1477.55 1618.1,1478.55 1614.6,1480.45 C1608,1484.05 1603.9,1489.95 1603.9,1495.05 C1603.9,1496.45 1604.1,1497.75 1604.8,1498.95 C1606.3,1501.65 1609.3,1503.35 1613.2,1503.75 C1613.8,1503.85 1614.3,1503.85 1614.9,1503.85 C1618.4,1503.85 1622.1,1502.85 1625.6,1500.95 C1632.2,1497.35 1636.4,1491.55 1636.4,1486.45 C1636.4,1485.05 1636.1,1483.65 1635.4,1482.45"/>
<path class="Note" d="M1817.35,1519.95 C1815.85,1517.25 1812.95,1515.55 1809.05,1515.15 C1808.45,1515.05 1807.95,1515.05 1807.35,1515.05 C1803.85,1515.05 1800.05,1516.05 1796.55,1517.95 C1789.95,1521.55 1785.85,1527.45 1785.85,1532.55 C1785.85,1533.95 1786.05,1535.25 1786.75,1536.45 C1788.25,1539.15 1791.25,1540.85 1795.15,1541.25 C1795.75,1541.35 1796.25,1541.35 1796.85,1541.35 C1800.35,1541.35 1804.05,1540.35 1807.55,1538.45 C1814.15,1534.85 1818.35,1529.05 1818.35,1523.95 C1818.35,1522.55 1818.05,1521.15 1817.35,1519.95"/>
<path class="Note" d="M1999.31,1544.96 C1997.81,1542.26 1994.91,1540.56 1991.01,1540.16 C1990.41,1540.06 1989.91,1540.06 1989.31,1540.06 C1985.81,1540.06 1982.01,1541.06 1978.51,1542.96 C1971.91,1546.56 1967.81,1552.46 1967.81,1557.56 C1967.81,1558.96 1968.01,1560.26 1968.71,1561.46 C1970.21,1564.16 1973.21,1565.86 1977.11,1566.26 C1977.71,1566.36 1978.21,1566.36 1978.81,1566.36 C1982.31,1566.36 1986.01,1565.36 1989.51,1563.46 C1996.11,1559.86 2000.31,1554.06 2000.31,1548.96 C2000.31,1547.56 2000.01,1546.16 1999.31,1544.96"/>
<path class="Note" d="M2218.26,1519.95 C2216.76,1517.25 2213.86,1515.55 2209.96,1515.15 C2209.36,1515.05 2208.86,1515.05 2208.26,1515.05 C2204.76,1515.05 2200.96,1516.05 2197.46,1517.95 C2190.86,1521.55 2186.76,1527.45 2186.76,1532.55 C2186.76,1533.95 2186.96,1535.25 2187.66,1536.45 C2189.16,1539.15 2192.16,1540.85 2196.06,1541.25 C2196.66,1541.35 2197.16,1541.35 2197.76,1541.35 C2201.26,1541.35 2204.96,1540.35 2208.46,1538.45 C2215.06,1534.85 2219.26,1529.05 2219.26,1523.95 C2219.26,1522.55 2218.96,1521.15 2218.26,1519.95"/>
<path class="Note" d="M2400.22,1544.96 C2398.72,1542.26 2395.82,1540.56 2391.92,1540.16 C2391.32,1540.06 2390.82,1540.06 2390.22,1540.06 C2386.72,1540.06 2382.92,1541.06 2379.42,1542.96 C2372.82,1546.56 2368.72,1552.46 2368.72,1557.56 C2368.72,1558.96 2368.92,1560.26 2369.62,1561.46 C2371.12,1564.16 2374.12,1565.86 2378.02,1566.26 C2378.62,1566.36 2379.12,1566.36 2379.72,1566.36 C2383.22,1566.36 2386.92,1565.36 2390.42,1563.46 C2397.02,1559.86 2401.22,1554.06 2401.22,1548.96 C2401.22,1547.56 2400.92,1546.16 2400.22,1544.96"/>
<path class="Note" d="M2582.17,1569.96 C2580.67,1567.26 2577.77,1565.56 2573.87,1565.16 C2573.27,1565.06 2572.77,1565.06 2572.17,1565.06 C2568.67,1565.06 2564.87,1566.06 2561.37,1567.96 C2554.77,1571.56 2550.67,1577.46 2550.67,1582.56 C2550.67,1583.96 2550.87,1585.26 2551.57,1586.46 C2553.07,1589.16 2556.07,1590.86 2559.97,1591.26 C2560.57,1591.36 2561.07,1591.36 2561.67,1591.36 C2565.17,1591.36 2568.87,1590.36 2572.37,1588.46 C2578.97,1584.86 2583.17,1579.06 2583.17,1573.96 C2583.17,1572.56 2582.87,1571.16 2582.17,1569.96"/>
<path class="Note" d="M486.502,757.406 C485.002,754.706 482.102,753.006 478.202,752.606 C477.602,752.506 477.102,752.506 476.502,752.506 C473.002,752.506 469.202,753.506 465.702,755.406 C459.102,759.006 455.002,764.906 455.002,770.006 C455.002,771.406 455.202,772.706 455.902,773.906 C457.402,776.606 460.402,778.306 464.302,778.706 C464.902,778.806 465.402,778.806 466.002,778.806 C469.502,778.806 473.202,777.806 476.702,775.906 C483.302,772.306 487.502,766.506 487.502,761.406 C487.502,760.006 487.202,758.606 486.502,757.406"/>
<path class="Note" d="M666.627,732.404 C665.127,729.704 662.227,728.004 658.327,727.604 C657.727,727.504 657.227,727.504 656.627,727.504 C653.127,727.504 649.327,728.504 645.827,730.404 C639.227,734.004 635.127,739.904 635.127,745.004 C635.127,746.404 635.327,747.704 636.027,748.904 C637.527,751.604 640.527,753.304 644.427,753.704 C645.027,753.804 645.527,753.804 646.127,753.804 C649.627,753.804 653.327,752.804 656.827,750.904 C663.427,747.304 667.627,741.504 667.627,736.404 C667.627,735.004 667.327,733.604 666.627,732.404"/>
<path class="Note" d="M846.751,707.402 C845.251,704.702 842.351,703.002 838.451,702.602 C837.851,702.502 837.351,702.502 836.751,702.502 C833.251,702.502 829.451,703.502 825.951,705.402 C819.351,709.002 815.251,714.902 815.251,720.002 C815.251,721.402 815.451,722.702 816.151,723.902 C817.651,726.602 820.651,728.302 824.551,728.702 C825.151,728.802 825.651,728.802 826.251,728.802 C829.751,728.802 833.451,727.802 836.951,725.902 C843.551,722.302 847.751,716.502 847.751,711.402 C847.751,710.002 847.451,708.602 846.751,707.402"/>
<path class="Note" d="M1063.88,732.404 C1062.38,729.704 1059.48,728.004 1055.58,727.604 C1054.98,727.504 1054.48,727.504 1053.88,727.504 C1050.38,727.504 1046.58,728.504 1043.08,730.404 C1036.48,734.004 1032.38,739.904 1032.38,745.004 C1032.38,746.404 1032.58,747.704 1033.28,748.904 C1034.78,751.604 1037.78,753.304 1041.68,753.704 C1042.28,753.804 1042.78,753.804 1043.38,753.804 C1046.88,753.804 1050.58,752.804 1054.08,750.904 C1060.68,747.304 1064.88,741.504 1064.88,736.404 C1064.88,735.004 1064.58,733.604 1063.88,732.404"/>
<path class="Note" d="M1244,707.402 C1242.5,704.702 1239.6,703.002 1235.7,702.602 C1235.1,702.502 1234.6,702.502 1234,702.502 C1230.5,702.502 1226.7,703.502 1223.2,705.402 C1216.6,709.002 1212.5,714.902 1212.5,720.002 C1212.5,721.402 1212.7,722.702 1213.4,723.902 C1214.9,726.602 1217.9,728.302 1221.8,728.702 C1222.4,728.802 1222.9,728.802 1223.5,728.802 C1227,728.802 1230.7,727.802 1234.2,725.902 C1240.8,722.302 1245,716.502 1245,711.402 C1245,710.002 1244.7,708.602 1244,707.402"/>
<path class="Note" d="M1424.13,669.9 C1422.63,667.2 1419.73,665.5 1415.83,665.1 C1415.23,665 1414.73,665 1414.13,665 C1410.63,665 1406.83,666 1403.33,667.9 C1396.73,671.5 1392.63,677.4 1392.63,682.5 C1392.63,683.9 1392.83,685.2 1393.53,686.4 C1395.03,689.1 1398.03,690.8 1401.93,691.2 C1402.53,691.3 1403.03,691.3 1403.63,691.3 C1407.13,691.3 1410.83,690.3 1414.33,688.4 C1420.93,684.8 1425.13,679 1425.13,673.9 C1425.13,672.5 1424.83,671.1 1424.13,669.9"/>
<path class="Note" d="M1641.25,707.402 C1639.75,704.702 1636.85,703.002 1632.95,702.602 C1632.35,702.502 1631.85,702.502 1631.25,702.502 C1627.75,702.502 1623.95,703.502 1620.45,705.402 C1613.85,709.002 1609.75,714.902 1609.75,720.002 C1609.75,721.402 1609.95,722.702 1610.65,723.902 C1612.15,726.602 1615.15,728.302 1619.05,728.702 C1619.65,728.802 1620.15,728.802 1620.75,728.802 C1624.25,728.802 1627.95,727.802 1631.45,725.902 C1638.05,722.302 1642.25,716.502 1642.25,711.402 C1642.25,710.002 1641.95,708.602 1641.25,707.402"/>
<path class="Note" d="M1828.09,669.9 C1826.59,667.2 1823.69,665.5 1819.79,665.1 C1819.19,665 1818.69,665 1818.09,665 C1814.59,665 1810.79,666 1807.29,667.9 C1800.69,671.5 1796.59,677.4 1796.59,682.5 C1796.59,683.9 1796.79,685.2 1797.49,686.4 C1798.99,689.1 1801.99,690.8 1805.89,691.2 C1806.49,691.3 1806.99,691.3 1807.59,691.3 C1811.09,691.3 1814.79,690.3 1818.29,688.4 C1824.89,684.8 1829.09,679 1829.09,673.9 C1829.09,672.5 1828.79,671.1 1828.09,669.9"/>
<path class="Note" d="M2014.92,644.898 C2013.42,642.198 2010.52,640.498 2006.62,640.098 C2006.02,639.998 2005.52,639.998 2004.92,639.998 C2001.42,639.998 1997.62,640.998 1994.12,642.898 C1987.52,646.498 1983.42,652.398 1983.42,657.498 C1983.42,658.898 1983.62,660.198 1984.32,661.398 C1985.82,664.098 1988.82,665.798 1992.72,666.198 C1993.32,666.298 1993.82,666.298 1994.42,666.298 C1997.92,666.298 2001.62,665.298 2005.12,663.398 C2011.72,659.798 2015.92,653.998 2015.92,648.898 C2015.92,647.498 2015.62,646.098 2014.92,644.898"/>
<path class="Note" d="M2251.26,669.9 C2249.76,667.2 2246.86,665.5 2242.96,665.1 C2242.36,665 2241.86,665 2241.26,665 C2237.76,665 2233.96,666 2230.46,667.9 C2223.86,671.5 2219.76,677.4 2219.76,682.5 C2219.76,683.9 2219.96,685.2 2220.66,686.4 C2222.16,689.1 2225.16,690.8 2229.06,691.2 C2229.66,691.3 2230.16,691.3 2230.76,691.3 C2234.26,691.3 2237.96,690.3 2241.46,688.4 C2248.06,684.8 2252.26,679 2252.26,673.9 C2252.26,672.5 2251.96,671.1 2251.26,669.9"/>
<path class="Note" d="M2431.38,644.898 C2429.88,642.198 2426.98,640.498 2423.08,640.098 C2422.48,639.998 2421.98,639.998 2421.38,639.998 C2417.88,639.998 2414.08,640.998 2410.58,642.898 C2403.98,646.498 2399.88,652.398 2399.88,657.498 C2399.88,658.898 2400.08,660.198 2400.78,661.398 C2402.28,664.098 2405.28,665.798 2409.18,666.198 C2409.78,666.298 2410.28,666.298 2410.88,666.298 C2414.38,666.298 2418.08,665.298 2421.58,663.398 C2428.18,659.798 2432.38,653.998 2432.38,648.898 C2432.38,647.498 2432.08,646.098 2431.38,644.898"/>
<path class="Note" d="M2611.51,619.897 C2610.01,617.197 2607.11,615.497 2603.21,615.097 C2602.61,614.997 2602.11,614.997 2601.51,614.997 C2598.01,614.997 2594.21,615.997 2590.71,617.897 C2584.11,621.497 2580.01,627.397 2580.01,632.497 C2580.01,633.897 2580.21,635.197 2580.91,636.397 C2582.41,639.097 2585.41,640.797 2589.31,641.197 C2589.91,641.297 2590.41,641.297 2591.01,641.297 C2594.51,641.297 2598.21,640.297 2601.71,638.397 C2608.31,634.797 2612.51,628.997 2612.51,623.897 C2612.51,622.497 2612.21,621.097 2611.51,619.897"/>
<path class="Note" d="M438.351,1232.44 C436.851,1229.74 433.951,1228.04 430.051,1227.64 C429.451,1227.54 428.951,1227.54 428.351,1227.54 C424.851,1227.54 421.051,1228.54 417.551,1230.44 C410.951,1234.04 406.851,1239.94 406.851,1245.04 C406.851,1246.44 407.051,1247.74 407.751,1248.94 C409.251,1251.64 412.251,1253.34 416.151,1253.74 C416.751,1253.84 417.251,1253.84 417.851,1253.84 C421.351,1253.84 425.051,1252.84 428.551,1250.94 C435.151,1247.34 439.351,1241.54 439.351,1236.44 C439.351,1235.04 439.051,1233.64 438.351,1232.44"/>
<path class="Note" d="M620.306,1257.44 C618.806,1254.74 615.906,1253.04 612.006,1252.64 C611.406,1252.54 610.906,1252.54 610.306,1252.54 C606.806,1252.54 603.006,1253.54 599.506,1255.44 C592.906,1259.04 588.806,1264.94 588.806,1270.04 C588.806,1271.44 589.006,1272.74 589.706,1273.94 C591.206,1276.64 594.206,1278.34 598.106,1278.74 C598.706,1278.84 599.206,1278.84 599.806,1278.84 C603.306,1278.84 607.006,1277.84 610.506,1275.94 C617.106,1272.34 621.306,1266.54 621.306,1261.44 C621.306,1260.04 621.006,1258.64 620.306,1257.44"/>
<path class="Note" d="M802.26,1282.44 C800.76,1279.74 797.86,1278.04 793.96,1277.64 C793.36,1277.54 792.86,1277.54 792.26,1277.54 C788.76,1277.54 784.96,1278.54 781.46,1280.44 C774.86,1284.04 770.76,1289.94 770.76,1295.04 C770.76,1296.44 770.96,1297.74 771.66,1298.94 C773.16,1301.64 776.16,1303.34 780.06,1303.74 C780.66,1303.84 781.16,1303.84 781.76,1303.84 C785.26,1303.84 788.96,1302.84 792.46,1300.94 C799.06,1297.34 803.26,1291.54 803.26,1286.44 C803.26,1285.04 802.96,1283.64 802.26,1282.44"/>
<path class="Note" d="M1021.22,1257.44 C1019.72,1254.74 1016.82,1253.04 1012.92,1252.64 C1012.32,1252.54 1011.82,1252.54 1011.22,1252.54 C1007.72,1252.54 1003.92,1253.54 1000.42,1255.44 C993.817,1259.04 989.717,1264.94 989.717,1270.04 C989.717,1271.44 989.917,1272.74 990.617,1273.94 C992.117,1276.64 995.117,1278.34 999.017,1278.74 C999.617,1278.84 1000.12,1278.84 1000.72,1278.84 C1004.22,1278.84 1007.92,1277.84 1011.42,1275.94 C1018.02,1272.34 1022.22,1266.54 1022.22,1261.44 C1022.22,1260.04 1021.92,1258.64 1021.22,1257.44"/>
<path class="Note" d="M1206.53,1282.44 C1205.03,1279.74 1202.13,1278.04 1198.23,1277.64 C1197.63,1277.54 1197.13,1277.54 1196.53,1277.54 C1193.03,1277.54 1189.23,1278.54 1185.73,1280.44 C1179.13,1284.04 1175.03,1289.94 1175.03,1295.04 C1175.03,1296.44 1175.23,1297.74 1175.93,1298.94 C1177.43,1301.64 1180.43,1303.34 1184.33,1303.74 C1184.93,1303.84 1185.43,1303.84 1186.03,1303.84 C1189.53,1303.84 1193.23,1302.84 1196.73,1300.94 C1203.33,1297.34 1207.53,1291.54 1207.53,1286.44 C1207.53,1285.04 1207.23,1283.64 1206.53,1282.44"/>
<path class="Note" d="M1391.84,1319.94 C1390.34,1317.24 1387.44,1315.54 1383.54,1315.14 C1382.94,1315.04 1382.44,1315.04 1381.84,1315.04 C1378.34,1315.04 1374.54,1316.04 1371.04,1317.94 C1364.44,1321.54 1360.34,1327.44 1360.34,1332.54 C1360.34,1333.94 1360.54,1335.24 1361.24,1336.44 C1362.74,1339.14 1365.74,1340.84 1369.64,1341.24 C1370.24,1341.34 1370.74,1341.34 1371.34,1341.34 C1374.84,1341.34 1378.54,1340.34 1382.04,1338.44 C1388.64,1334.84 1392.84,1329.04 1392.84,1323.94 C1392.84,1322.54 1392.54,1321.14 1391.84,1319.94"/>
<path class="Note" d="M1635.4,1282.44 C1633.9,1279.74 1631,1278.04 1627.1,1277.64 C1626.5,1277.54 1626,1277.54 1625.4,1277.54 C1621.9,1277.54 1618.1,1278.54 1614.6,1280.44 C1608,1284.04 1603.9,1289.94 1603.9,1295.04 C1603.9,1296.44 1604.1,1297.74 1604.8,1298.94 C1606.3,1301.64 1609.3,1303.34 1613.2,1303.74 C1613.8,1303.84 1614.3,1303.84 1614.9,1303.84 C1618.4,1303.84 1622.1,1302.84 1625.6,1300.94 C1632.2,1297.34 1636.4,1291.54 1636.4,1286.44 C1636.4,1285.04 1636.1,1283.64 1635.4,1282.44"/>
<path class="Note" d="M1817.35,1319.94 C1815.85,1317.24 1812.95,1315.54 1809.05,1315.14 C1808.45,1315.04 1807.95,1315.04 1807.35,1315.04 C1803.85,1315.04 1800.05,1316.04 1796.55,1317.94 C1789.95,1321.54 1785.85,1327.44 1785.85,1332.54 C1785.85,1333.94 1786.05,1335.24 1786.75,1336.44 C1788.25,1339.14 1791.25,1340.84 1795.15,1341.24 C1795.75,1341.34 1796.25,1341.34 1796.85,1341.34 C1800.35,1341.34 1804.05,1340.34 1807.55,1338.44 C1814.15,1334.84 1818.35,1329.04 1818.35,1323.94 C1818.35,1322.54 1818.05,1321.14 1817.35,1319.94"/>
<path class="Note" d="M1999.31,1344.94 C1997.81,1342.24 1994.91,1340.54 1991.01,1340.14 C1990.41,1340.04 1989.91,1340.04 1989.31,1340.04 C1985.81,1340.04 1982.01,1341.04 1978.51,1342.94 C1971.91,1346.54 1967.81,1352.44 1967.81,1357.54 C1967.81,1358.94 1968.01,1360.24 1968.71,1361.44 C1970.21,1364.14 1973.21,1365.84 1977.11,1366.24 C1977.71,1366.34 1978.21,1366.34 1978.81,1366.34 C1982.31,1366.34 1986.01,1365.34 1989.51,1363.44 C1996.11,1359.84 2000.31,1354.04 2000.31,1348.94 C2000.31,1347.54 2000.01,1346.14 1999.31,1344.94"/>
<path class="Note" d="M2218.26,1319.94 C2216.76,1317.24 2213.86,1315.54 2209.96,1315.14 C2209.36,1315.04 2208.86,1315.04 2208.26,1315.04 C2204.76,1315.04 2200.96,1316.04 2197.46,1317.94 C2190.86,1321.54 2186.76,1327.44 2186.76,1332.54 C2186.76,1333.94 2186.96,1335.24 2187.66,1336.44 C2189.16,1339.14 2192.16,1340.84 2196.06,1341.24 C2196.66,1341.34 2197.16,1341.34 2197.76,1341.34 C2201.26,1341.34 2204.96,1340.34 2208.46,1338.44 C2215.06,1334.84 2219.26,1329.04 2219.26,1323.94 C2219.26,1322.54 2218.96,1321.14 2218.26,1319.94"/>
<path class="Note" d="M2400.22,1344.94 C2398.72,1342.24 2395.82,1340.54 2391.92,1340.14 C2391.32,1340.04 2390.82,1340.04 2390.22,1340.04 C2386.72,1340.04 2382.92,1341.04 2379.42,1342.94 C2372.82,1346.54 2368.72,1352.44 2368.72,1357.54 C2368.72,1358.94 2368.92,1360.24 2369.62,1361.44 C2371.12,1364.14 2374.12,1365.84 2378.02,1366.24 C2378.62,1366.34 2379.12,1366.34 2379.72,1366.34 C2383.22,1366.34 2386.92,1365.34 2390.42,1363.44 C2397.02,1359.84 2401.22,1354.04 2401.22,1348.94 C2401.22,1347.54 2400.92,1346.14 2400.22,1344.94"/>
<path class="Note" d="M2582.17,1369.94 C2580.67,1367.24 2577.77,1365.54 2573.87,1365.14 C2573.27,1365.04 2572.77,1365.04 2572.17,1365.04 C2568.67,1365.04 2564.87,1366.04 2561.37,1367.94 C2554.77,1371.54 2550.67,1377.44 2550.67,1382.54 C2550.67,1383.94 2550.87,1385.24 2551.57,1386.44 C2553.07,1389.14 2556.07,1390.84 2559.97,1391.24 C2560.57,1391.34 2561.07,1391.34 2561.67,1391.34 C2565.17,1391.34 2568.87,1390.34 2572.37,1388.44 C2578.97,1384.84 2583.17,1379.04 2583.17,1373.94 C2583.17,1372.54 2582.87,1371.14 2582.17,1369.94"/>
<path class="Clef" d="M297,915.517 C289.4,915.517 283.3,919.917 283.2,919.917 C277.4,924.217 275.1,929.317 274.2,932.817 C273.7,934.617 273.5,936.417 273.5,938.117 C273.5,940.517 273.9,942.717 274.8,944.617 C276,947.317 278.3,949.217 281.3,950.217 C282.5,950.617 283.8,950.817 285.1,950.817 C287.3,950.817 289.6,950.217 291.5,949.117 C294.6,947.417 296.5,943.817 296.5,939.917 C296.5,936.417 294.7,933.217 291.7,931.317 C289.6,929.917 287.6,929.517 285.9,929.517 C284.7,929.517 283.6,929.717 282.7,930.017 C281.7,930.417 280,931.417 279.2,932.117 C279.5,930.217 280.7,927.317 281.8,925.717 C282.9,924.117 285.1,922.117 286.8,921.217 C289.3,919.817 292.5,919.217 296,919.217 C306.2,919.217 311.2,927.417 311.2,944.217 C311.2,953.517 307.7,962.417 304.7,968.317 C301.4,974.917 297,981.217 293.1,984.717 C282.7,994.217 272.9,998.717 272.8,998.717 C272.8,998.717 271.3,999.617 271.7,1001.12 C272,1002.12 272.9,1002.32 273.5,1002.32 C273.6,1002.32 273.9,1002.22 274,1002.22 C274.1,1002.22 285.5,997.517 294.6,990.417 C299.7,986.717 304.3,982.717 308.3,978.417 C311.9,974.517 315,970.317 317.5,966.117 C321.9,958.617 324.4,950.817 324.4,944.117 C324.4,935.817 322.2,928.917 318.1,924.017 C313.4,918.417 306.3,915.517 297,915.517 M328.4,928.217 C328.4,931.017 330.6,933.217 333.2,933.217 C335.8,933.217 338,931.017 338,928.217 C338,925.417 335.8,923.117 333.2,923.117 C330.6,923.117 328.4,925.417 328.4,928.217 M328.4,952.917 C328.4,955.717 330.6,958.017 333.2,958.017 C335.8,958.017 338,955.717 338,952.917 C338,950.117 335.8,947.817 333.2,947.817 C330.6,947.817 328.4,950.117 328.4,952.917"/>
<path class="Clef" transform="matrix(0.80005,0,0,0.80005,2119.06,990.62)" d="M63.4,-5.9 C62.2,-11.3 59.5,-15.2 58.7,-16.2 C55.5,-20.5 51.5,-23.3 46.8,-24.7 C44.5,-25.4 42.4,-25.6 40.4,-25.6 C39.7,-25.6 39,-25.6 38.3,-25.5 C37.3,-31.5 36.2,-37.4 35.3,-42.8 C40.9,-49 44.6,-54.9 47,-59.3 C50.6,-66 52,-70.7 52.1,-70.9 C53.3,-73.9 54,-77.7 54,-82.2 C54,-84.9 53.7,-87.8 53.3,-90.8 C52.2,-97.9 50,-104.6 47.5,-108.3 C46.2,-110.2 45,-111.3 43.8,-111.3 C42.6,-111.3 40.1,-110.1 37.2,-107.3 C34.9,-105.1 31.6,-101.2 29,-95.2 C26.7,-89.8 26,-82.9 26,-77 C26,-75.2 26.1,-73.5 26.2,-71.9 C26.4,-68.3 27.1,-62.5 27.7,-58.9 C27.7,-58.8 28,-57.3 28.4,-54.7 L27.7,-54 C26.7,-53 25.5,-51.9 24.1,-50.5 C23.2,-49.6 22.3,-48.8 21.3,-47.8 C12.8,-39.6 0,-27.2 0,-8.1 C0,-3.4 0.9,1 2.7,5 C4.3,8.6 6.6,11.9 9.5,14.8 C17,22.2 27.2,25.4 34.3,25.4 L34.9,25.4 C37.8,25.3 40.5,25 42.9,24.6 C44.7,34.2 45.9,41.3 45.9,46.6 C45.9,53.1 44.3,57 40.4,59.8 C38,61.5 35.1,62.6 32,62.7 L31.2,62.7 C29.7,62.7 27.2,62.3 25.7,61.9 C25.7,61.9 25.4,61.8 25.4,61.6 C25.4,61.4 25.8,61.4 25.8,61.4 C27.7,61 31.3,59.7 33.7,56.4 C34.8,54.9 35.5,52.6 35.5,50.1 C35.5,48.5 35.2,46.8 34.5,45.3 C33.4,42.9 30.8,39.9 25.2,39.5 L24.1,39.5 C22,39.5 20.2,40 18.5,41 C16.7,42.1 15.1,43.8 14.1,45.8 C13,47.8 12.5,50 12.5,52.2 C12.5,55.1 13.4,57.8 15.2,60 C18.2,63.6 22.9,65.9 28.3,66.5 C29,66.6 30.1,66.7 30.8,66.7 C35.2,66.7 39.6,65.5 43.2,63.3 C46.9,60.7 49,56.7 49.7,51.1 C49.9,49.8 49.9,48.4 49.9,46.9 C49.9,43 49.4,38.3 48.4,32.5 C48,30.4 47.6,27.4 46.9,23.6 C52.7,21.7 56.8,18 60.6,12.2 C62.9,8.2 64,4.1 64,-0.2 C64,-2.1 63.8,-4 63.4,-5.9 M33.2,-83.8 C35,-89.5 37.7,-92.9 39.7,-94.6 C41.5,-96.1 43.1,-96.8 44,-96.8 C44.1,-96.8 44.3,-96.7 44.4,-96.7 C44.7,-96.6 45.1,-96.1 45.5,-95.4 C46.4,-93.6 47.3,-90.3 47.3,-86.6 C47.3,-84.7 47.1,-82.7 46.5,-80.9 C44.3,-74.1 39.7,-66.8 32.7,-59.1 C32.5,-60.2 32.3,-61.2 32.2,-62.2 C31.7,-65.4 31.4,-68.6 31.4,-71.5 C31.4,-76 32,-80.1 33.2,-83.8 M29.2,20.3 C24.6,19.1 20.1,16.6 16.3,13.1 C15,11.9 13.2,9.7 11.7,6.3 C10.4,3.3 9.7,0.2 9.7,-3.2 L9.7,-3.9 C9.8,-8.6 11.1,-13.4 13.6,-18.2 C16.5,-23.8 21,-29.3 27.1,-34.6 C28.6,-35.9 30,-37.2 31.3,-38.5 C32.1,-34.2 32.8,-29.5 33.7,-24.6 C29.8,-23.3 25.1,-20.3 22,-14.6 C19.6,-10.1 18.9,-6.2 18.9,-3 C18.9,-1.5 19.1,-0.1 19.3,1 C20.2,5.5 22.8,9.2 26.3,11.3 C27.1,11.8 30.4,13.5 32.4,13.5 C32.7,13.5 33,13.5 33.2,13.4 C33.5,13.3 33.8,13.1 33.9,12.8 C34,12.6 34,12.4 34,12.2 C34,11.4 33.2,10.8 31.9,10 C31.3,9.6 30.6,9.2 29.9,8.7 C27.3,6.7 25.8,3.6 25.8,0.2 C25.8,-0.8 26,-1.7 26.2,-2.7 C26.7,-4.7 28.4,-7.5 29.9,-8.9 C31.6,-10.4 33.6,-11.6 36,-12.2 C38,-1 40.1,10.1 41.7,18.5 C41.8,19.2 42,19.9 42.1,20.6 C40.1,21 38.1,21.2 36.2,21.2 C33.8,21.2 31.5,20.9 29.2,20.3 M54.9,10.1 C53.7,13.3 51.2,17.3 46.1,19.4 C46,19 46,18.5 45.9,18.1 C44.4,9.3 42.5,-1.6 40.5,-12.9 L41.5,-12.9 C51.2,-12.9 55.1,-5.7 56,-1.1 C56.2,-0.2 56.3,1 56.3,2.3 C56.3,4.6 55.9,7.4 54.9,10.1"/>
<path class="Clef" d="M335,1597.26 C333.8,1591.86 331.1,1587.96 330.3,1586.96 C327.1,1582.66 323.1,1579.86 318.4,1578.46 C316.1,1577.76 314,1577.56 312,1577.56 C311.3,1577.56 310.6,1577.56 309.9,1577.66 C308.9,1571.66 307.8,1565.76 306.9,1560.36 C312.5,1554.16 316.2,1548.26 318.6,1543.86 C322.2,1537.16 323.6,1532.46 323.7,1532.26 C324.9,1529.26 325.6,1525.46 325.6,1520.96 C325.6,1518.26 325.3,1515.36 324.9,1512.36 C323.8,1505.26 321.6,1498.56 319.1,1494.86 C317.8,1492.96 316.6,1491.86 315.4,1491.86 C314.2,1491.86 311.7,1493.06 308.8,1495.86 C306.5,1498.06 303.2,1501.96 300.6,1507.96 C298.3,1513.36 297.6,1520.26 297.6,1526.16 C297.6,1527.96 297.7,1529.66 297.8,1531.26 C298,1534.86 298.7,1540.66 299.3,1544.26 C299.3,1544.36 299.6,1545.86 300,1548.46 L299.3,1549.16 C298.3,1550.16 297.1,1551.26 295.7,1552.66 C294.8,1553.56 293.9,1554.36 292.9,1555.36 C284.4,1563.56 271.6,1575.96 271.6,1595.06 C271.6,1599.76 272.5,1604.16 274.3,1608.16 C275.9,1611.76 278.2,1615.06 281.1,1617.96 C288.6,1625.36 298.8,1628.56 305.9,1628.56 L306.5,1628.56 C309.4,1628.46 312.1,1628.16 314.5,1627.76 C316.3,1637.36 317.5,1644.46 317.5,1649.76 C317.5,1656.26 315.9,1660.16 312,1662.96 C309.6,1664.66 306.7,1665.76 303.6,1665.86 L302.8,1665.86 C301.3,1665.86 298.8,1665.46 297.3,1665.06 C297.3,1665.06 297,1664.96 297,1664.76 C297,1664.56 297.4,1664.56 297.4,1664.56 C299.3,1664.16 302.9,1662.86 305.3,1659.56 C306.4,1658.06 307.1,1655.76 307.1,1653.26 C307.1,1651.66 306.8,1649.96 306.1,1648.46 C305,1646.06 302.4,1643.06 296.8,1642.66 L295.7,1642.66 C293.6,1642.66 291.8,1643.16 290.1,1644.16 C288.3,1645.26 286.7,1646.96 285.7,1648.96 C284.6,1650.96 284.1,1653.16 284.1,1655.36 C284.1,1658.26 285,1660.96 286.8,1663.16 C289.8,1666.76 294.5,1669.06 299.9,1669.66 C300.6,1669.76 301.7,1669.86 302.4,1669.86 C306.8,1669.86 311.2,1668.66 314.8,1666.46 C318.5,1663.86 320.6,1659.86 321.3,1654.26 C321.5,1652.96 321.5,1651.56 321.5,1650.06 C321.5,1646.16 321,1641.46 320,1635.66 C319.6,1633.56 319.2,1630.56 318.5,1626.76 C324.3,1624.86 328.4,1621.16 332.2,1615.36 C334.5,1611.36 335.6,1607.26 335.6,1602.96 C335.6,1601.06 335.4,1599.16 335,1597.26 M304.8,1519.36 C306.6,1513.66 309.3,1510.26 311.3,1508.56 C313.1,1507.06 314.7,1506.36 315.6,1506.36 C315.7,1506.36 315.9,1506.46 316,1506.46 C316.3,1506.56 316.7,1507.06 317.1,1507.76 C318,1509.56 318.9,1512.86 318.9,1516.56 C318.9,1518.46 318.7,1520.46 318.1,1522.26 C315.9,1529.06 311.3,1536.36 304.3,1544.06 C304.1,1542.96 303.9,1541.96 303.8,1540.96 C303.3,1537.76 303,1534.56 303,1531.66 C303,1527.16 303.6,1523.06 304.8,1519.36 M300.8,1623.46 C296.2,1622.26 291.7,1619.76 287.9,1616.26 C286.6,1615.06 284.8,1612.86 283.3,1609.46 C282,1606.46 281.3,1603.36 281.3,1599.96 L281.3,1599.26 C281.4,1594.56 282.7,1589.76 285.2,1584.96 C288.1,1579.36 292.6,1573.86 298.7,1568.56 C300.2,1567.26 301.6,1565.96 302.9,1564.66 C303.7,1568.96 304.4,1573.66 305.3,1578.56 C301.4,1579.86 296.7,1582.86 293.6,1588.56 C291.2,1593.06 290.5,1596.96 290.5,1600.16 C290.5,1601.66 290.7,1603.06 290.9,1604.16 C291.8,1608.66 294.4,1612.36 297.9,1614.46 C298.7,1614.96 302,1616.66 304,1616.66 C304.3,1616.66 304.6,1616.66 304.8,1616.56 C305.1,1616.46 305.4,1616.26 305.5,1615.96 C305.6,1615.76 305.6,1615.56 305.6,1615.36 C305.6,1614.56 304.8,1613.96 303.5,1613.16 C302.9,1612.76 302.2,1612.36 301.5,1611.86 C298.9,1609.86 297.4,1606.76 297.4,1603.36 C297.4,1602.36 297.6,1601.46 297.8,1600.46 C298.3,1598.46 300,1595.66 301.5,1594.26 C303.2,1592.76 305.2,1591.56 307.6,1590.96 C309.6,1602.16 311.7,1613.26 313.3,1621.66 C313.4,1622.36 313.6,1623.06 313.7,1623.76 C311.7,1624.16 309.7,1624.36 307.8,1624.36 C305.4,1624.36 303.1,1624.06 300.8,1623.46 M326.5,1613.26 C325.3,1616.46 322.8,1620.46 317.7,1622.56 C317.6,1622.16 317.6,1621.66 317.5,1621.26 C316,1612.46 314.1,1601.56 312.1,1590.26 L313.1,1590.26 C322.8,1590.26 326.7,1597.46 327.6,1602.06 C327.8,1602.96 327.9,1604.16 327.9,1605.46 C327.9,1607.76 327.5,1610.56 326.5,1613.26"/>
<path class="Clef" transform="matrix(0.80005,0,0,0.80005,1492.52,1553.16)" d="M25.4,-25.1 C17.8,-25.1 11.7,-20.7 11.6,-20.7 C5.8,-16.4 3.5,-11.3 2.6,-7.8 C2.1,-6 1.9,-4.2 1.9,-2.5 C1.9,-0.1 2.3,2.1 3.2,4 C4.4,6.7 6.7,8.6 9.7,9.6 C10.9,10 12.2,10.2 13.5,10.2 C15.7,10.2 18,9.6 19.9,8.5 C23,6.8 24.9,3.2 24.9,-0.7 C24.9,-4.2 23.1,-7.4 20.1,-9.3 C18,-10.7 16,-11.1 14.3,-11.1 C13.1,-11.1 12,-10.9 11.1,-10.6 C10.1,-10.2 8.4,-9.2 7.6,-8.5 C7.9,-10.4 9.1,-13.3 10.2,-14.9 C11.3,-16.5 13.5,-18.5 15.2,-19.4 C17.7,-20.8 20.9,-21.4 24.4,-21.4 C34.6,-21.4 39.6,-13.2 39.6,3.6 C39.6,12.9 36.1,21.8 33.1,27.7 C29.8,34.3 25.4,40.6 21.5,44.1 C11.1,53.6 1.3,58.1 1.2,58.1 C1.2,58.1 -0.3,59 0.1,60.5 C0.4,61.5 1.3,61.7 1.9,61.7 C2,61.7 2.3,61.6 2.4,61.6 C2.5,61.6 13.9,56.9 23,49.8 C28.1,46.1 32.7,42.1 36.7,37.8 C40.3,33.9 43.4,29.7 45.9,25.5 C50.3,18 52.8,10.2 52.8,3.5 C52.8,-4.8 50.6,-11.7 46.5,-16.6 C41.8,-22.2 34.7,-25.1 25.4,-25.1 M56.8,-12.4 C56.8,-9.6 59,-7.4 61.6,-7.4 C64.2,-7.4 66.4,-9.6 66.4,-12.4 C66.4,-15.2 64.2,-17.5 61.6,-17.5 C59,-17.5 56.8,-15.2 56.8,-12.4 M56.8,12.3 C56.8,15.1 59,17.4 61.6,17.4 C64.2,17.4 66.4,15.1 66.4,12.3 C66.4,9.5 64.2,7.2 61.6,7.2 C59,7.2 56.8,9.5 56.8,12.3"/>
<path class="Clef" d="M335,722.203 C333.8,716.803 331.1,712.903 330.3,711.903 C327.1,707.603 323.1,704.803 318.4,703.403 C316.1,702.703 314,702.503 312,702.503 C311.3,702.503 310.6,702.503 309.9,702.603 C308.9,696.603 307.8,690.703 306.9,685.303 C312.5,679.103 316.2,673.203 318.6,668.803 C322.2,662.103 323.6,657.403 323.7,657.203 C324.9,654.203 325.6,650.403 325.6,645.903 C325.6,643.203 325.3,640.303 324.9,637.303 C323.8,630.203 321.6,623.503 319.1,619.803 C317.8,617.903 316.6,616.803 315.4,616.803 C314.2,616.803 311.7,618.003 308.8,620.803 C306.5,623.003 303.2,626.903 300.6,632.903 C298.3,638.303 297.6,645.203 297.6,651.103 C297.6,652.903 297.7,654.603 297.8,656.203 C298,659.803 298.7,665.603 299.3,669.203 C299.3,669.303 299.6,670.803 300,673.403 L299.3,674.103 C298.3,675.103 297.1,676.203 295.7,677.603 C294.8,678.503 293.9,679.303 292.9,680.303 C284.4,688.503 271.6,700.903 271.6,720.003 C271.6,724.703 272.5,729.103 274.3,733.103 C275.9,736.703 278.2,740.003 281.1,742.903 C288.6,750.303 298.8,753.503 305.9,753.503 L306.5,753.503 C309.4,753.403 312.1,753.103 314.5,752.703 C316.3,762.303 317.5,769.403 317.5,774.703 C317.5,781.203 315.9,785.103 312,787.903 C309.6,789.603 306.7,790.703 303.6,790.803 L302.8,790.803 C301.3,790.803 298.8,790.403 297.3,790.003 C297.3,790.003 297,789.903 297,789.703 C297,789.503 297.4,789.503 297.4,789.503 C299.3,789.103 302.9,787.803 305.3,784.503 C306.4,783.003 307.1,780.703 307.1,778.203 C307.1,776.603 306.8,774.903 306.1,773.403 C305,771.003 302.4,768.003 296.8,767.603 L295.7,767.603 C293.6,767.603 291.8,768.103 290.1,769.103 C288.3,770.203 286.7,771.903 285.7,773.903 C284.6,775.903 284.1,778.103 284.1,780.303 C284.1,783.203 285,785.903 286.8,788.103 C289.8,791.703 294.5,794.003 299.9,794.603 C300.6,794.703 301.7,794.803 302.4,794.803 C306.8,794.803 311.2,793.603 314.8,791.403 C318.5,788.803 320.6,784.803 321.3,779.203 C321.5,777.903 321.5,776.503 321.5,775.003 C321.5,771.103 321,766.403 320,760.603 C319.6,758.503 319.2,755.503 318.5,751.703 C324.3,749.803 328.4,746.103 332.2,740.303 C334.5,736.303 335.6,732.203 335.6,727.903 C335.6,726.003 335.4,724.103 335,722.203 M304.8,644.303 C306.6,638.603 309.3,635.203 311.3,633.503 C313.1,632.003 314.7,631.303 315.6,631.303 C315.7,631.303 315.9,631.403 316,631.403 C316.3,631.503 316.7,632.003 317.1,632.703 C318,634.503 318.9,637.803 318.9,641.503 C318.9,643.403 318.7,645.403 318.1,647.203 C315.9,654.003 311.3,661.303 304.3,669.003 C304.1,667.903 303.9,666.903 303.8,665.903 C303.3,662.703 303,659.503 303,656.603 C303,652.103 303.6,648.003 304.8,644.303 M300.8,748.403 C296.2,747.203 291.7,744.703 287.9,741.203 C286.6,740.003 284.8,737.803 283.3,734.403 C282,731.403 281.3,728.303 281.3,724.903 L281.3,724.203 C281.4,719.503 282.7,714.703 285.2,709.903 C288.1,704.303 292.6,698.803 298.7,693.503 C300.2,692.203 301.6,690.903 302.9,689.603 C303.7,693.903 304.4,698.603 305.3,703.503 C301.4,704.803 296.7,707.803 293.6,713.503 C291.2,718.003 290.5,721.903 290.5,725.103 C290.5,726.603 290.7,728.003 290.9,729.103 C291.8,733.603 294.4,737.303 297.9,739.403 C298.7,739.903 302,741.603 304,741.603 C304.3,741.603 304.6,741.603 304.8,741.503 C305.1,741.403 305.4,741.203 305.5,740.903 C305.6,740.703 305.6,740.503 305.6,740.303 C305.6,739.503 304.8,738.903 303.5,738.103 C302.9,737.703 302.2,737.303 301.5,736.803 C298.9,734.803 297.4,731.703 297.4,728.303 C297.4,727.303 297.6,726.403 297.8,725.403 C298.3,723.403 300,720.603 301.5,719.203 C303.2,717.703 305.2,716.503 307.6,715.903 C309.6,727.103 311.7,738.203 313.3,746.603 C313.4,747.303 313.6,748.003 313.7,748.703 C311.7,749.103 309.7,749.303 307.8,749.303 C305.4,749.303 303.1,749.003 300.8,748.403 M326.5,738.203 C325.3,741.403 322.8,745.403 317.7,747.503 C317.6,747.103 317.6,746.603 317.5,746.203 C316,737.403 314.1,726.503 312.1,715.203 L313.1,715.203 C322.8,715.203 326.7,722.403 327.6,727.003 C327.8,727.903 327.9,729.103 327.9,730.403 C327.9,732.703 327.5,735.503 326.5,738.203"/>
<path class="Clef" d="M335,1334.74 C333.8,1329.34 331.1,1325.44 330.3,1324.44 C327.1,1320.14 323.1,1317.34 318.4,1315.94 C316.1,1315.24 314,1315.04 312,1315.04 C311.3,1315.04 310.6,1315.04 309.9,1315.14 C308.9,1309.14 307.8,1303.24 306.9,1297.84 C312.5,1291.64 316.2,1285.74 318.6,1281.34 C322.2,1274.64 323.6,1269.94 323.7,1269.74 C324.9,1266.74 325.6,1262.94 325.6,1258.44 C325.6,1255.74 325.3,1252.84 324.9,1249.84 C323.8,1242.74 321.6,1236.04 319.1,1232.34 C317.8,1230.44 316.6,1229.34 315.4,1229.34 C314.2,1229.34 311.7,1230.54 308.8,1233.34 C306.5,1235.54 303.2,1239.44 300.6,1245.44 C298.3,1250.84 297.6,1257.74 297.6,1263.64 C297.6,1265.44 297.7,1267.14 297.8,1268.74 C298,1272.34 298.7,1278.14 299.3,1281.74 C299.3,1281.84 299.6,1283.34 300,1285.94 L299.3,1286.64 C298.3,1287.64 297.1,1288.74 295.7,1290.14 C294.8,1291.04 293.9,1291.84 292.9,1292.84 C284.4,1301.04 271.6,1313.44 271.6,1332.54 C271.6,1337.24 272.5,1341.64 274.3,1345.64 C275.9,1349.24 278.2,1352.54 281.1,1355.44 C288.6,1362.84 298.8,1366.04 305.9,1366.04 L306.5,1366.04 C309.4,1365.94 312.1,1365.64 314.5,1365.24 C316.3,1374.84 317.5,1381.94 317.5,1387.24 C317.5,1393.74 315.9,1397.64 312,1400.44 C309.6,1402.14 306.7,1403.24 303.6,1403.34 L302.8,1403.34 C301.3,1403.34 298.8,1402.94 297.3,1402.54 C297.3,1402.54 297,1402.44 297,1402.24 C297,1402.04 297.4,1402.04 297.4,1402.04 C299.3,1401.64 302.9,1400.34 305.3,1397.04 C306.4,1395.54 307.1,1393.24 307.1,1390.74 C307.1,1389.14 306.8,1387.44 306.1,1385.94 C305,1383.54 302.4,1380.54 296.8,1380.14 L295.7,1380.14 C293.6,1380.14 291.8,1380.64 290.1,1381.64 C288.3,1382.74 286.7,1384.44 285.7,1386.44 C284.6,1388.44 284.1,1390.64 284.1,1392.84 C284.1,1395.74 285,1398.44 286.8,1400.64 C289.8,1404.24 294.5,1406.54 299.9,1407.14 C300.6,1407.24 301.7,1407.34 302.4,1407.34 C306.8,1407.34 311.2,1406.14 314.8,1403.94 C318.5,1401.34 320.6,1397.34 321.3,1391.74 C321.5,1390.44 321.5,1389.04 321.5,1387.54 C321.5,1383.64 321,1378.94 320,1373.14 C319.6,1371.04 319.2,1368.04 318.5,1364.24 C324.3,1362.34 328.4,1358.64 332.2,1352.84 C334.5,1348.84 335.6,1344.74 335.6,1340.44 C335.6,1338.54 335.4,1336.64 335,1334.74 M304.8,1256.84 C306.6,1251.14 309.3,1247.74 311.3,1246.04 C313.1,1244.54 314.7,1243.84 315.6,1243.84 C315.7,1243.84 315.9,1243.94 316,1243.94 C316.3,1244.04 316.7,1244.54 317.1,1245.24 C318,1247.04 318.9,1250.34 318.9,1254.04 C318.9,1255.94 318.7,1257.94 318.1,1259.74 C315.9,1266.54 311.3,1273.84 304.3,1281.54 C304.1,1280.44 303.9,1279.44 303.8,1278.44 C303.3,1275.24 303,1272.04 303,1269.14 C303,1264.64 303.6,1260.54 304.8,1256.84 M300.8,1360.94 C296.2,1359.74 291.7,1357.24 287.9,1353.74 C286.6,1352.54 284.8,1350.34 283.3,1346.94 C282,1343.94 281.3,1340.84 281.3,1337.44 L281.3,1336.74 C281.4,1332.04 282.7,1327.24 285.2,1322.44 C288.1,1316.84 292.6,1311.34 298.7,1306.04 C300.2,1304.74 301.6,1303.44 302.9,1302.14 C303.7,1306.44 304.4,1311.14 305.3,1316.04 C301.4,1317.34 296.7,1320.34 293.6,1326.04 C291.2,1330.54 290.5,1334.44 290.5,1337.64 C290.5,1339.14 290.7,1340.54 290.9,1341.64 C291.8,1346.14 294.4,1349.84 297.9,1351.94 C298.7,1352.44 302,1354.14 304,1354.14 C304.3,1354.14 304.6,1354.14 304.8,1354.04 C305.1,1353.94 305.4,1353.74 305.5,1353.44 C305.6,1353.24 305.6,1353.04 305.6,1352.84 C305.6,1352.04 304.8,1351.44 303.5,1350.64 C302.9,1350.24 302.2,1349.84 301.5,1349.34 C298.9,1347.34 297.4,1344.24 297.4,1340.84 C297.4,1339.84 297.6,1338.94 297.8,1337.94 C298.3,1335.94 300,1333.14 301.5,1331.74 C303.2,1330.24 305.2,1329.04 307.6,1328.44 C309.6,1339.64 311.7,1350.74 313.3,1359.14 C313.4,1359.84 313.6,1360.54 313.7,1361.24 C311.7,1361.64 309.7,1361.84 307.8,1361.84 C305.4,1361.84 303.1,1361.54 300.8,1360.94 M326.5,1350.74 C325.3,1353.94 322.8,1357.94 317.7,1360.04 C317.6,1359.64 317.6,1359.14 317.5,1358.74 C316,1349.94 314.1,1339.04 312.1,1327.74 L313.1,1327.74 C322.8,1327.74 326.7,1334.94 327.6,1339.54 C327.8,1340.44 327.9,1341.64 327.9,1342.94 C327.9,1345.24 327.5,1348.04 326.5,1350.74"/>
<path class="TimeSig" d="M392.053,939.517 L392.253,939.517 C400.253,936.417 400.753,931.217 400.753,929.417 L400.753,928.917 C400.753,928.017 400.453,916.717 383.253,916.717 C366.053,916.717 366.553,928.917 366.553,928.917 L366.653,928.917 L366.553,929.117 C366.553,932.717 369.453,935.517 373.053,935.517 C376.653,935.517 379.453,932.717 379.453,929.117 C379.453,926.217 377.253,923.417 374.453,922.817 L374.753,922.517 C376.153,921.517 378.053,921.017 379.953,921.017 C384.153,921.017 388.653,923.517 388.653,928.917 C388.653,935.217 383.953,936.117 382.753,936.317 C381.553,936.517 375.953,936.917 374.753,936.917 C373.553,936.917 373.453,938.317 373.453,938.317 L373.453,940.317 C373.453,940.317 373.653,941.417 374.753,941.517 C376.453,941.617 378.753,941.617 381.953,942.117 C386.353,942.717 388.653,945.717 388.653,952.717 C388.653,959.417 384.153,961.217 379.953,961.217 C377.153,961.217 374.553,960.417 373.453,959.617 C376.753,959.417 379.453,956.517 379.453,953.217 C379.453,949.617 376.653,946.717 373.053,946.717 C369.453,946.717 366.553,949.617 366.553,953.217 C366.553,953.217 366.053,957.717 370.453,961.817 C374.353,965.417 379.253,965.517 381.453,965.517 C391.053,965.517 401.453,962.217 401.453,951.317 C401.453,944.017 396.453,940.917 392.053,939.517"/>
<path class="TimeSig" d="M365.2,1002.62 L382,1002.62 L382,1009.92 L373.9,1009.92 C373.1,1009.92 372.5,1010.52 372.5,1011.32 L372.5,1013.22 C372.5,1014.02 373.1,1014.52 373.9,1014.52 L403.6,1014.52 C404.4,1014.52 405,1014.02 405,1013.22 L405,1011.32 C405,1010.52 404.4,1009.92 403.6,1009.92 L394.8,1009.92 L394.8,1002.62 L403.6,1002.62 C404.4,1002.62 405,1002.02 405,1001.22 L405,999.42 C405,998.62 404.4,998.02 403.6,998.02 L394.8,998.02 L394.8,982.32 C394.8,981.82 394.4,981.32 394,981.12 L392.9,980.52 C392.7,980.42 392.4,980.42 392.2,980.42 C391.9,980.42 391.5,980.52 391.3,980.72 L382.4,988.92 C382.2,989.12 382,989.62 382,989.92 L382,998.02 L370.7,998.02 C370.7,998.02 381.6,986.22 393.2,970.72 C394,969.62 393.6,968.62 393.4,968.42 L391.3,966.22 C391.1,966.02 390.6,965.82 390.3,965.82 L375.7,965.82 C375,965.82 374.5,966.42 374.4,967.02 C374.4,967.02 373.9,974.22 371.3,982.22 C368.7,990.22 365.9,995.02 363.3,998.62 C363.3,998.62 362.8,999.62 363.1,1000.32 C363.4,1001.02 364.1,1002.12 364.1,1002.12 C364.1,1002.12 364.4,1002.62 365.2,1002.62"/>
<path class="TimeSig" d="M392.053,677 L392.253,677 C400.253,673.9 400.753,668.7 400.753,666.9 L400.753,666.4 C400.753,665.5 400.453,654.2 383.253,654.2 C366.053,654.2 366.553,666.4 366.553,666.4 L366.653,666.4 L366.553,666.6 C366.553,670.2 369.453,673 373.053,673 C376.653,673 379.453,670.2 379.453,666.6 C379.453,663.7 377.253,660.9 374.453,660.3 L374.753,660 C376.153,659 378.053,658.5 379.953,658.5 C384.153,658.5 388.653,661 388.653,666.4 C388.653,672.7 383.953,673.6 382.753,673.8 C381.553,674 375.953,674.4 374.753,674.4 C373.553,674.4 373.453,675.8 373.453,675.8 L373.453,677.8 C373.453,677.8 373.653,678.9 374.753,679 C376.453,679.1 378.753,679.1 381.953,679.6 C386.353,680.2 388.653,683.2 388.653,690.2 C388.653,696.9 384.153,698.7 379.953,698.7 C377.153,698.7 374.553,697.9 373.453,697.1 C376.753,696.9 379.453,694 379.453,690.7 C379.453,687.1 376.653,684.2 373.053,684.2 C369.453,684.2 366.553,687.1 366.553,690.7 C366.553,690.7 366.053,695.2 370.453,699.3 C374.353,702.9 379.253,703 381.453,703 C391.053,703 401.453,699.7 401.453,688.8 C401.453,681.5 396.453,678.4 392.053,677"/>
<path class="TimeSig" d="M365.2,740.104 L382,740.104 L382,747.404 L373.9,747.404 C373.1,747.404 372.5,748.004 372.5,748.804 L372.5,750.704 C372.5,751.504 373.1,752.004 373.9,752.004 L403.6,752.004 C404.4,752.004 405,751.504 405,750.704 L405,748.804 C405,748.004 404.4,747.404 403.6,747.404 L394.8,747.404 L394.8,740.104 L403.6,740.104 C404.4,740.104 405,739.504 405,738.704 L405,736.904 C405,736.104 404.4,735.504 403.6,735.504 L394.8,735.504 L394.8,719.804 C394.8,719.304 394.4,718.804 394,718.604 L392.9,718.004 C392.7,717.904 392.4,717.904 392.2,717.904 C391.9,717.904 391.5,718.004 391.3,718.204 L382.4,726.404 C382.2,726.604 382,727.104 382,727.404 L382,735.504 L370.7,735.504 C370.7,735.504 381.6,723.704 393.2,708.204 C394,707.104 393.6,706.104 393.4,705.904 L391.3,703.704 C391.1,703.504 390.6,703.304 390.3,703.304 L375.7,703.304 C375,703.304 374.5,703.904 374.4,704.504 C374.4,704.504 373.9,711.704 371.3,719.704 C368.7,727.704 365.9,732.504 363.3,736.104 C363.3,736.104 362.8,737.104 363.1,737.804 C363.4,738.504 364.1,739.604 364.1,739.604 C364.1,739.604 364.4,740.104 365.2,740.104"/>
<path class="Page" d="M217.958,4039.47 C220.388,4040.06 221.603,4040.24 223.403,4040.24 C227.228,4040.24 230.018,4038.93 231.503,4036.41 C231.998,4035.6 232.178,4035.15 232.178,4034.79 C232.178,4034.52 232.088,4034.39 231.818,4034.39 C231.683,4034.39 231.503,4034.43 231.233,4034.57 C229.028,4035.51 227.858,4035.74 225.248,4035.74 C222.368,4035.74 220.568,4035.47 215.978,4034.39 C215.798,4038.17 215.393,4042.98 214.763,4048.56 C213.818,4049.55 213.503,4050.14 213.503,4050.86 C213.503,4051.8 214.088,4052.39 214.943,4052.39 C216.113,4052.39 216.788,4051.44 216.968,4049.64 C218.543,4048.52 220.028,4048.02 221.828,4048.02 C225.878,4048.02 228.263,4051.08 228.263,4056.26 C228.263,4059.27 227.498,4061.84 226.148,4063.23 C225.248,4064.18 223.403,4064.81 221.558,4064.81 C218.858,4064.81 216.068,4063.41 216.068,4062.02 C216.068,4061.7 216.338,4061.34 216.878,4061.03 C218.273,4060.17 218.678,4059.59 218.678,4058.37 C218.678,4056.8 217.463,4055.58 215.843,4055.58 C214.043,4055.58 212.603,4057.25 212.603,4059.36 C212.603,4061.61 213.908,4063.86 215.933,4065.26 C217.463,4066.25 219.263,4066.74 221.648,4066.74 C228.713,4066.74 233.168,4062.6 233.168,4055.99 C233.168,4049.87 229.118,4045.77 222.998,4045.77 C221.063,4045.77 219.668,4046.09 217.193,4047.12 L217.958,4039.47 M242.479,4050.77 C242.929,4045.14 243.154,4043.66 244.144,4041.36 C245.449,4038.17 247.834,4036.32 250.669,4036.32 C252.244,4036.32 253.189,4036.82 253.189,4037.63 C253.189,4037.81 253.144,4037.94 252.964,4038.26 C252.514,4039.11 252.289,4039.79 252.289,4040.42 C252.289,4041.9 253.459,4043.03 255.034,4043.03 C256.789,4043.03 258.004,4041.68 258.004,4039.79 C258.004,4036.68 254.899,4034.39 250.624,4034.39 C246.934,4034.39 243.469,4036.14 241.309,4039.16 C238.834,4042.62 237.484,4047.3 237.484,4052.21 C237.484,4061.03 241.804,4066.74 248.464,4066.74 C251.389,4066.74 253.819,4065.75 255.709,4063.77 C257.644,4061.79 258.814,4058.87 258.814,4055.99 C258.814,4050.68 255.034,4046.72 249.904,4046.72 C246.844,4046.72 244.594,4047.93 242.479,4050.77 M248.644,4049.46 C251.929,4049.46 253.909,4052.03 253.909,4056.3 C253.909,4061.52 251.839,4064.81 248.554,4064.81 C246.484,4064.81 244.909,4063.73 243.829,4061.52 C243.109,4060.13 242.749,4058.6 242.749,4056.93 C242.749,4052.3 244.999,4049.46 248.644,4049.46"/>
<path class="Bracket" transform="matrix(3.62523,0,0,3.62523,214.469,1015.62)" d="M0.92002,-50 C2.69004,-51.88 6.2,-55.8 6.2,-63 C6.2,-72.1 2.25996,-81.32 2.25996,-86.97 C2.25996,-93.06 5.84004,-98.84 5.95,-99 C6.05996,-99.16 6.05,-99.39 5.94004,-99.46 C5.82998,-99.53 5.62002,-99.47 5.49004,-99.32 C5.35996,-99.17 0,-93.75 0,-85.6 C0,-76.75 3.5,-70.58 3.5,-59.07 C3.5,-56.89 2.55996,-53.36 0.1,-50.33 C-0.0799805,-50.17 -0.1,-49.89 0.0599609,-49.7 L0.0700195,-49.69 L0.1,-49.66 C2.55996,-46.63 3.5,-43.1 3.5,-40.92 C3.5,-29.4 0,-23.24 0,-14.39 C0,-6.25 5.35996,-0.8 5.49004,-0.659961 C5.62002,-0.52002 5.8,-0.42998 5.94004,-0.52002 C6.07998,-0.609961 6.07998,-0.77998 5.95,-0.97998 C5.82002,-1.17998 2.25996,-6.92002 2.25996,-13.01 C2.25996,-18.66 6.2,-27.9 6.2,-37 C6.2,-44.3 2.69004,-48.12 0.92002,-50"/>
<path class="Bracket" transform="matrix(3.62523,0,0,3.62523,214.469,1628.16)" d="M0.92002,-50 C2.69004,-51.88 6.2,-55.8 6.2,-63 C6.2,-72.1 2.25996,-81.32 2.25996,-86.97 C2.25996,-93.06 5.84004,-98.84 5.95,-99 C6.05996,-99.16 6.05,-99.39 5.94004,-99.46 C5.82998,-99.53 5.62002,-99.47 5.49004,-99.32 C5.35996,-99.17 0,-93.75 0,-85.6 C0,-76.75 3.5,-70.58 3.5,-59.07 C3.5,-56.89 2.55996,-53.36 0.1,-50.33 C-0.0799805,-50.17 -0.1,-49.89 0.0599609,-49.7 L0.0700195,-49.69 L0.1,-49.66 C2.55996,-46.63 3.5,-43.1 3.5,-40.92 C3.5,-29.4 0,-23.24 0,-14.39 C0,-6.25 5.35996,-0.8 5.49004,-0.659961 C5.62002,-0.52002 5.8,-0.42998 5.94004,-0.52002 C6.07998,-0.609961 6.07998,-0.77998 5.95,-0.97998 C5.82002,-1.17998 2.25996,-6.92002 2.25996,-13.01 C2.25996,-18.66 6.2,-27.9 6.2,-37 C6.2,-44.3 2.69004,-48.12 0.92002,-50"/>
</svg>