<?xml version="1.0" encoding="UTF-8" standalone="no"?>
<svg width="1000px" height="500px" viewBox="150 650 2700 1000" xmlns="http://www.w3.org/2000/svg" xmlns:xlink="http://www.w3.org/1999/xlink" version="1.2" baseProfile="tiny">
 xmlns="http://www.w3.org/2000/svg" xmlns:xlink="http://www.w3.org/1999/xlink" version="1.2" baseProfile="tiny">
<title>exercises_scores (2)</title>
<desc>Generated by MuseScore 3.6.0</desc>
<polyline class="StaffLines" fill="none" stroke="#000000" stroke-width="2.75" stroke-linejoin="bevel" points="247.099,656.536 2764.63,656.536"/>
<polyline class="StaffLines" fill="none" stroke="#000000" stroke-width="2.75" stroke-linejoin="bevel" points="247.099,681.538 2764.63,681.538"/>
<polyline class="StaffLines" fill="none" stroke="#000000" stroke-width="2.75" stroke-linejoin="bevel" points="247.099,706.539 2764.63,706.539"/>
<polyline class="StaffLines" fill="none" stroke="#000000" stroke-width="2.75" stroke-linejoin="bevel" points="247.099,731.541 2764.63,731.541"/>
<polyline class="StaffLines" fill="none" stroke="#000000" stroke-width="2.75" stroke-linejoin="bevel" points="247.099,756.542 2764.63,756.542"/>
<polyline class="StaffLines" fill="none" stroke="#000000" stroke-width="2.75" stroke-linejoin="bevel" points="247.099,919.053 2764.63,919.053"/>
<polyline class="StaffLines" fill="none" stroke="#000000" stroke-width="2.75" stroke-linejoin="bevel" points="247.099,944.054 2764.63,944.054"/>
<polyline class="StaffLines" fill="none" stroke="#000000" stroke-width="2.75" stroke-linejoin="bevel" points="247.099,969.056 2764.63,969.056"/>
<polyline class="StaffLines" fill="none" stroke="#000000" stroke-width="2.75" stroke-linejoin="bevel" points="247.099,994.057 2764.63,994.057"/>
<polyline class="StaffLines" fill="none" stroke="#000000" stroke-width="2.75" stroke-linejoin="bevel" points="247.099,1019.06 2764.63,1019.06"/>
<polyline class="StaffLines" fill="none" stroke="#000000" stroke-width="2.75" stroke-linejoin="bevel" points="247.099,1269.07 2764.63,1269.07"/>
<polyline class="StaffLines" fill="none" stroke="#000000" stroke-width="2.75" stroke-linejoin="bevel" points="247.099,1294.08 2764.63,1294.08"/>
<polyline class="StaffLines" fill="none" stroke="#000000" stroke-width="2.75" stroke-linejoin="bevel" points="247.099,1319.08 2764.63,1319.08"/>
<polyline class="StaffLines" fill="none" stroke="#000000" stroke-width="2.75" stroke-linejoin="bevel" points="247.099,1344.08 2764.63,1344.08"/>
<polyline class="StaffLines" fill="none" stroke="#000000" stroke-width="2.75" stroke-linejoin="bevel" points="247.099,1369.08 2764.63,1369.08"/>
<polyline class="StaffLines" fill="none" stroke="#000000" stroke-width="2.75" stroke-linejoin="bevel" points="247.099,1531.59 2764.63,1531.59"/>
<polyline class="StaffLines" fill="none" stroke="#000000" stroke-width="2.75" stroke-linejoin="bevel" points="247.099,1556.59 2764.63,1556.59"/>
<polyline class="StaffLines" fill="none" stroke="#000000" stroke-width="2.75" stroke-linejoin="bevel" points="247.099,1581.59 2764.63,1581.59"/>
<polyline class="StaffLines" fill="none" stroke="#000000" stroke-width="2.75" stroke-linejoin="bevel" points="247.099,1606.6 2764.63,1606.6"/>
<polyline class="StaffLines" fill="none" stroke="#000000" stroke-width="2.75" stroke-linejoin="bevel" points="247.099,1631.6 2764.63,1631.6"/>
<path class="Text" d="M242.312,213.137 L240.092,213.137 L237.692,216.737 C234.812,214.037 231.032,212.597 226.772,212.597 C218.852,212.597 213.632,217.577 213.632,225.137 C213.632,231.677 216.872,234.917 225.692,237.197 L231.392,238.637 C235.832,239.777 236.252,239.897 237.512,240.857 C239.312,242.237 240.272,244.217 240.272,246.557 C240.272,248.957 239.372,250.937 237.572,252.617 C235.592,254.297 233.612,254.957 230.312,254.957 C225.872,254.957 222.692,253.577 219.872,250.457 C217.352,247.697 216.092,244.817 215.192,240.197 L212.612,240.197 L212.852,257.297 L215.192,257.297 L217.892,253.217 C221.912,256.517 225.212,257.717 230.492,257.717 C239.312,257.717 244.952,252.557 244.952,244.517 C244.952,240.737 243.752,237.617 241.352,235.337 C239.732,233.777 237.392,232.757 232.592,231.557 L226.172,229.937 C220.832,228.557 218.312,226.217 218.312,222.557 C218.312,218.357 221.732,215.477 226.832,215.477 C231.032,215.477 234.452,217.277 236.852,220.697 C238.592,223.157 239.732,225.677 240.452,228.737 L243.032,228.737 L242.312,213.137 M271.162,247.997 C269.242,252.317 267.202,254.057 264.082,254.057 C259.282,254.057 256.282,249.677 256.282,242.657 C256.282,235.337 259.222,230.537 263.662,230.537 C265.462,230.537 267.022,231.377 267.022,232.337 C267.022,232.517 266.962,232.697 266.662,233.057 C265.702,234.197 265.462,234.797 265.462,235.817 C265.462,237.797 266.962,239.177 269.062,239.177 C271.222,239.177 272.722,237.497 272.722,235.097 C272.722,231.017 268.702,227.957 263.362,227.957 C255.562,227.957 249.982,234.317 249.982,243.317 C249.982,251.837 255.082,257.717 262.522,257.717 C267.862,257.717 270.922,255.257 273.502,248.897 L271.162,247.997 M301.75,237.497 C301.75,233.717 301.09,231.797 299.35,230.357 C297.37,228.737 294.43,227.957 290.59,227.957 C283.81,227.957 278.89,231.137 278.89,235.517 C278.89,237.737 280.27,239.177 282.37,239.177 C284.29,239.177 285.61,237.917 285.61,236.117 C285.61,235.337 285.31,234.497 284.71,233.657 C284.35,233.237 284.29,233.117 284.29,232.817 C284.29,231.617 286.69,230.537 289.57,230.537 C291.49,230.537 293.59,231.137 294.55,232.037 C295.69,232.997 296.11,234.437 296.11,237.137 L296.11,239.477 C289.87,240.557 287.89,241.037 284.95,242.177 C279.73,244.097 277.27,246.857 277.27,250.697 C277.27,255.017 280.63,257.717 285.97,257.717 C290.11,257.717 293.83,256.037 296.41,252.977 C297.37,256.037 298.87,257.237 301.69,257.237 C304.39,257.237 307.21,255.497 307.21,253.757 C307.21,253.337 306.97,253.037 306.61,253.037 C306.37,253.037 306.13,253.097 305.71,253.277 C304.87,253.637 304.51,253.697 304.03,253.697 C302.35,253.697 301.75,252.617 301.75,249.557 L301.75,237.497 M296.11,244.817 C296.11,248.417 295.93,249.257 294.91,250.817 C293.41,253.037 290.71,254.537 288.07,254.537 C285.31,254.537 283.33,252.557 283.33,249.857 C283.33,247.337 284.59,245.537 287.23,244.277 C289.09,243.437 291.43,242.837 296.11,242.057 L296.11,244.817 M320.229,212.597 L309.129,213.257 L309.129,215.837 L312.069,215.837 C314.289,215.897 314.589,216.257 314.589,218.837 L314.589,249.437 L314.589,252.257 C314.529,253.157 314.469,253.517 314.229,253.817 C313.809,254.357 312.669,254.597 310.089,254.657 L309.669,254.657 L309.669,256.817 L325.209,256.817 L325.209,254.657 L324.789,254.657 C320.769,254.537 320.229,254.237 320.229,252.077 L320.229,249.437 L320.229,212.597 M354.78,243.317 C354.84,234.317 349.74,227.957 342.42,227.957 C334.74,227.957 328.98,234.617 328.98,243.617 C328.98,252.077 334.44,257.717 342.54,257.717 C348.3,257.717 352.32,254.897 354.78,249.197 L352.68,248.057 C350.22,252.677 347.7,254.477 343.68,254.477 C340.62,254.477 338.4,253.217 336.84,250.517 C335.76,248.717 335.28,246.617 335.34,243.317 L354.78,243.317 M335.4,240.737 C335.4,238.877 335.64,237.557 336.24,235.877 C337.5,232.277 339.42,230.537 342.36,230.537 C345.96,230.537 348.36,233.717 348.36,238.577 C348.36,240.257 347.82,240.737 345.9,240.737 L335.4,240.737 M366.601,250.157 C364.501,250.157 362.821,251.837 362.821,253.877 C362.821,255.977 364.501,257.657 366.541,257.657 C368.641,257.657 370.321,255.977 370.321,253.877 C370.321,251.837 368.641,250.157 366.601,250.157 M366.601,228.437 C364.501,228.437 362.821,230.117 362.821,232.217 C362.821,234.257 364.501,235.937 366.541,235.937 C368.641,235.937 370.321,234.257 370.321,232.157 C370.321,230.117 368.641,228.437 366.601,228.437 M430.005,213.077 L427.725,213.077 L425.385,216.677 C421.485,213.617 418.845,212.597 414.465,212.597 C409.725,212.597 406.005,213.917 402.225,216.977 C396.285,221.777 393.525,227.837 393.525,235.937 C393.525,242.057 395.265,247.157 398.805,251.057 C402.525,255.257 408.045,257.717 413.805,257.717 C418.845,257.717 422.385,256.157 426.285,252.257 L428.505,257.657 L431.025,257.657 L431.025,244.457 C431.025,241.397 431.025,241.277 431.385,240.737 C431.925,240.077 433.005,239.897 436.425,239.897 L437.325,239.897 L437.325,237.077 L418.245,237.077 L418.245,239.897 L419.385,239.897 C424.425,239.897 424.845,240.197 424.845,243.557 C424.845,246.137 424.425,248.477 423.645,249.917 C422.145,252.857 418.305,254.897 414.405,254.897 C410.505,254.897 406.665,252.917 404.625,249.917 C402.405,246.557 401.445,242.357 401.445,235.937 C401.445,222.557 405.885,215.417 414.225,215.417 C421.065,215.417 425.805,220.337 428.265,229.937 L430.845,229.937 L430.005,213.077 M466.408,228.857 L455.728,229.517 L455.728,232.097 L458.188,232.097 C460.468,232.157 460.768,232.517 460.768,235.097 L460.768,249.437 L460.768,251.777 L460.768,252.257 C460.708,253.157 460.648,253.517 460.408,253.817 C459.988,254.357 458.848,254.597 456.268,254.657 L456.028,254.657 L456.028,256.817 L471.148,256.817 L471.148,254.657 L470.908,254.657 C466.948,254.537 466.408,254.237 466.408,252.017 L466.408,249.437 L466.408,240.917 C466.408,235.577 469.348,231.617 473.248,231.617 C476.668,231.617 478.408,234.077 478.408,238.937 L478.408,249.437 L478.408,252.317 C478.348,253.097 478.288,253.517 477.988,253.817 C477.628,254.357 476.428,254.597 473.848,254.657 L473.608,254.657 L473.608,256.817 L488.788,256.817 L488.788,254.657 L488.548,254.657 C484.588,254.537 484.048,254.237 484.048,252.077 L484.048,249.437 L484.048,241.457 C484.048,235.457 486.748,231.617 490.948,231.617 C494.368,231.617 496.048,234.197 496.048,239.597 L496.048,249.437 L496.048,252.257 C495.988,253.097 495.928,253.517 495.628,253.817 C495.268,254.357 494.068,254.597 491.488,254.657 L491.248,254.657 L491.248,256.817 L506.428,256.817 L506.428,254.657 L506.188,254.657 C502.228,254.537 501.688,254.237 501.688,252.017 L501.688,249.437 L501.688,238.397 C501.688,234.677 501.328,233.417 499.768,231.377 C498.028,229.157 495.568,227.957 492.688,227.957 C488.788,227.957 485.908,229.817 483.328,233.957 C482.308,230.357 479.068,227.957 475.048,227.957 C471.388,227.957 468.748,229.697 466.408,233.477 L466.408,228.857 M534.797,237.497 C534.797,233.717 534.137,231.797 532.397,230.357 C530.417,228.737 527.477,227.957 523.637,227.957 C516.857,227.957 511.937,231.137 511.937,235.517 C511.937,237.737 513.317,239.177 515.417,239.177 C517.337,239.177 518.657,237.917 518.657,236.117 C518.657,235.337 518.357,234.497 517.757,233.657 C517.397,233.237 517.337,233.117 517.337,232.817 C517.337,231.617 519.737,230.537 522.617,230.537 C524.537,230.537 526.637,231.137 527.597,232.037 C528.737,232.997 529.157,234.437 529.157,237.137 L529.157,239.477 C522.917,240.557 520.937,241.037 517.997,242.177 C512.777,244.097 510.317,246.857 510.317,250.697 C510.317,255.017 513.677,257.717 519.017,257.717 C523.157,257.717 526.877,256.037 529.457,252.977 C530.417,256.037 531.917,257.237 534.737,257.237 C537.437,257.237 540.257,255.497 540.257,253.757 C540.257,253.337 540.017,253.037 539.657,253.037 C539.417,253.037 539.177,253.097 538.757,253.277 C537.917,253.637 537.557,253.697 537.077,253.697 C535.397,253.697 534.797,252.617 534.797,249.557 L534.797,237.497 M529.157,244.817 C529.157,248.417 528.977,249.257 527.957,250.817 C526.457,253.037 523.757,254.537 521.117,254.537 C518.357,254.537 516.377,252.557 516.377,249.857 C516.377,247.337 517.637,245.537 520.277,244.277 C522.137,243.437 524.477,242.837 529.157,242.057 L529.157,244.817 M551.722,228.857 L540.022,229.517 L540.022,232.097 L543.502,232.097 C545.782,232.157 546.082,232.517 546.082,235.097 L546.082,255.437 C546.082,260.297 545.782,262.577 544.942,264.317 C544.342,265.517 542.962,266.417 541.642,266.417 C540.802,266.417 540.142,266.057 540.142,265.637 C540.142,265.397 540.202,265.277 540.442,264.677 C540.742,264.077 540.862,263.657 540.862,263.237 C540.862,261.737 539.422,260.417 537.742,260.417 C535.822,260.417 534.382,261.917 534.382,264.017 C534.382,266.957 537.082,268.937 541.102,268.937 C544.462,268.937 547.522,267.497 549.262,265.037 C551.122,262.397 551.722,259.337 551.722,252.557 L551.722,228.857 M548.902,213.917 C546.982,213.917 545.422,215.477 545.422,217.397 C545.422,219.317 546.982,220.877 548.842,220.877 C550.822,220.877 552.382,219.317 552.382,217.397 C552.382,215.477 550.822,213.917 548.902,213.917 M572.172,227.957 C564.792,227.957 559.092,234.497 559.092,242.897 C559.092,251.117 564.852,257.717 572.052,257.717 C579.252,257.717 585.012,251.117 585.012,242.837 C585.012,234.617 579.252,227.957 572.172,227.957 M572.172,230.537 C576.372,230.537 578.712,234.917 578.712,242.837 C578.712,250.817 576.372,255.137 572.052,255.137 C567.732,255.137 565.392,250.817 565.392,242.897 C565.392,234.737 567.672,230.537 572.172,230.537 M598.932,228.857 L588.312,229.517 L588.312,232.097 L590.772,232.097 C593.052,232.157 593.352,232.517 593.352,235.097 L593.352,249.437 L593.352,252.257 C593.292,253.157 593.232,253.517 592.992,253.817 C592.572,254.357 591.372,254.597 588.792,254.657 L588.552,254.657 L588.552,256.817 L604.572,256.817 L604.572,254.657 L603.492,254.657 C599.472,254.537 598.932,254.237 598.932,252.077 L598.932,249.437 L598.932,248.837 C598.992,238.757 602.592,231.077 607.272,230.837 C606.432,231.797 606.192,232.397 606.192,233.537 C606.192,235.457 607.572,236.837 609.492,236.837 C611.712,236.837 613.152,235.217 613.152,232.817 C613.152,229.877 611.112,227.957 607.932,227.957 C604.152,227.957 600.912,230.957 598.932,236.297 L598.932,228.857 "/>
<polyline class="BarLine" fill="none" stroke="#000000" stroke-width="4.50" stroke-linejoin="bevel" points="249.349,917.677 249.349,1020.43"/>
<polyline class="BarLine" fill="none" stroke="#000000" stroke-width="4.50" stroke-linejoin="bevel" points="1078.65,917.677 1078.65,1020.43"/>
<polyline class="BarLine" fill="none" stroke="#000000" stroke-width="4.50" stroke-linejoin="bevel" points="1615.89,917.677 1615.89,1020.43"/>
<polyline class="BarLine" fill="none" stroke="#000000" stroke-width="4.50" stroke-linejoin="bevel" points="2184.63,917.677 2184.63,1020.43"/>
<polyline class="BarLine" fill="none" stroke="#000000" stroke-width="4.50" stroke-linejoin="bevel" points="2762.38,917.677 2762.38,1020.43"/>
<polyline class="BarLine" fill="none" stroke="#000000" stroke-width="4.50" stroke-linejoin="bevel" points="249.349,1530.22 249.349,1632.97"/>
<polyline class="BarLine" fill="none" stroke="#000000" stroke-width="4.50" stroke-linejoin="bevel" points="979.42,1530.22 979.42,1632.97"/>
<polyline class="BarLine" fill="none" stroke="#000000" stroke-width="4.50" stroke-linejoin="bevel" points="1621.99,1530.22 1621.99,1632.97"/>
<polyline class="BarLine" fill="none" stroke="#000000" stroke-width="4.50" stroke-linejoin="bevel" points="2209.66,1530.22 2209.66,1632.97"/>
<polyline class="BarLine" fill="none" stroke="#000000" stroke-width="4.50" stroke-linejoin="bevel" points="2734.88,1530.22 2734.88,1632.97"/>
<polyline class="BarLine" fill="none" stroke="#000000" stroke-width="13.75" stroke-linejoin="bevel" points="2757.76,1530.22 2757.76,1632.97"/>
<polyline class="BarLine" fill="none" stroke="#000000" stroke-width="4.50" stroke-linejoin="bevel" points="249.349,655.161 249.349,919.053"/>
<polyline class="BarLine" fill="none" stroke="#000000" stroke-width="4.50" stroke-linejoin="bevel" points="1078.65,655.161 1078.65,919.053"/>
<polyline class="BarLine" fill="none" stroke="#000000" stroke-width="4.50" stroke-linejoin="bevel" points="1615.89,655.161 1615.89,919.053"/>
<polyline class="BarLine" fill="none" stroke="#000000" stroke-width="4.50" stroke-linejoin="bevel" points="2184.63,655.161 2184.63,919.053"/>
<polyline class="BarLine" fill="none" stroke="#000000" stroke-width="4.50" stroke-linejoin="bevel" points="2762.38,655.161 2762.38,919.053"/>
<polyline class="BarLine" fill="none" stroke="#000000" stroke-width="4.50" stroke-linejoin="bevel" points="249.349,1267.7 249.349,1531.59"/>
<polyline class="BarLine" fill="none" stroke="#000000" stroke-width="4.50" stroke-linejoin="bevel" points="979.42,1267.7 979.42,1531.59"/>
<polyline class="BarLine" fill="none" stroke="#000000" stroke-width="4.50" stroke-linejoin="bevel" points="1621.99,1267.7 1621.99,1531.59"/>
<polyline class="BarLine" fill="none" stroke="#000000" stroke-width="4.50" stroke-linejoin="bevel" points="2209.66,1267.7 2209.66,1531.59"/>
<polyline class="BarLine" fill="none" stroke="#000000" stroke-width="4.50" stroke-linejoin="bevel" points="2734.88,1267.7 2734.88,1531.59"/>
<polyline class="BarLine" fill="none" stroke="#000000" stroke-width="13.75" stroke-linejoin="bevel" points="2757.76,1267.7 2757.76,1531.59"/>
<polyline class="LedgerLine" fill="none" stroke="#000000" stroke-width="4.00" stroke-linejoin="bevel" points="1907.76,894.051 1957.76,894.051"/>
<polyline class="LedgerLine" fill="none" stroke="#000000" stroke-width="4.00" stroke-linejoin="bevel" points="2040.7,894.051 2090.69,894.051"/>
<polyline class="LedgerLine" fill="none" stroke="#000000" stroke-width="4.00" stroke-linejoin="bevel" points="836.002,1656.6 885.998,1656.6"/>
<polyline class="LedgerLine" fill="none" stroke="#000000" stroke-width="4.00" stroke-linejoin="bevel" points="504.404,806.545 554.399,806.545"/>
<polyline class="LedgerLine" fill="none" stroke="#000000" stroke-width="4.00" stroke-linejoin="bevel" points="504.404,781.544 554.399,781.544"/>
<polyline class="LedgerLine" fill="none" stroke="#000000" stroke-width="4.00" stroke-linejoin="bevel" points="645.215,806.545 695.21,806.545"/>
<polyline class="LedgerLine" fill="none" stroke="#000000" stroke-width="4.00" stroke-linejoin="bevel" points="645.215,781.544 695.21,781.544"/>
<polyline class="LedgerLine" fill="none" stroke="#000000" stroke-width="4.00" stroke-linejoin="bevel" points="786.026,781.544 836.021,781.544"/>
<polyline class="LedgerLine" fill="none" stroke="#000000" stroke-width="4.00" stroke-linejoin="bevel" points="926.837,781.544 976.832,781.544"/>
<polyline class="LedgerLine" fill="none" stroke="#000000" stroke-width="4.00" stroke-linejoin="bevel" points="1923.33,1394.08 1973.32,1394.08"/>
<polyline class="LedgerLine" fill="none" stroke="#000000" stroke-width="4.00" stroke-linejoin="bevel" points="2061,1394.08 2110.99,1394.08"/>
<polyline class="LedgerLine" fill="none" stroke="#000000" stroke-width="4.00" stroke-linejoin="bevel" points="2244.42,1419.08 2294.41,1419.08"/>
<polyline class="LedgerLine" fill="none" stroke="#000000" stroke-width="4.00" stroke-linejoin="bevel" points="2244.42,1394.08 2294.41,1394.08"/>
<polyline class="LedgerLine" fill="none" stroke="#000000" stroke-width="4.00" stroke-linejoin="bevel" points="2406.89,1419.08 2456.89,1419.08"/>
<polyline class="LedgerLine" fill="none" stroke="#000000" stroke-width="4.00" stroke-linejoin="bevel" points="2406.89,1394.08 2456.89,1394.08"/>
<polyline class="Stem" fill="none" stroke="#000000" stroke-width="2.75" stroke-linejoin="bevel" points="544.274,1015.7 544.274,931.553"/>
<polyline class="Stem" fill="none" stroke="#000000" stroke-width="2.75" stroke-linejoin="bevel" points="685.085,1003.2 685.085,919.053"/>
<polyline class="Stem" fill="none" stroke="#000000" stroke-width="2.75" stroke-linejoin="bevel" points="825.895,990.697 825.895,909.677"/>
<polyline class="Stem" fill="none" stroke="#000000" stroke-width="2.75" stroke-linejoin="bevel" points="966.706,978.196 966.706,900.301"/>
<polyline class="Stem" fill="none" stroke="#000000" stroke-width="2.75" stroke-linejoin="bevel" points="1114.78,972.576 1114.78,1047.19"/>
<polyline class="Stem" fill="none" stroke="#000000" stroke-width="2.75" stroke-linejoin="bevel" points="1239.84,960.075 1239.84,1037.81"/>
<polyline class="Stem" fill="none" stroke="#000000" stroke-width="2.75" stroke-linejoin="bevel" points="1364.9,947.574 1364.9,1028.43"/>
<polyline class="Stem" fill="none" stroke="#000000" stroke-width="2.75" stroke-linejoin="bevel" points="1489.96,935.074 1489.96,1019.06"/>
<polyline class="Stem" fill="none" stroke="#000000" stroke-width="2.75" stroke-linejoin="bevel" points="1652.02,922.573 1652.02,1006.56"/>
<polyline class="Stem" fill="none" stroke="#000000" stroke-width="2.75" stroke-linejoin="bevel" points="1784.95,910.072 1784.95,994.057"/>
<polyline class="Stem" fill="none" stroke="#000000" stroke-width="2.75" stroke-linejoin="bevel" points="1917.89,897.571 1917.89,981.556"/>
<polyline class="Stem" fill="none" stroke="#000000" stroke-width="2.75" stroke-linejoin="bevel" points="2050.82,885.07 2050.82,969.056"/>
<polyline class="Stem" fill="none" stroke="#000000" stroke-width="2.75" stroke-linejoin="bevel" points="2334.5,1015.7 2334.5,931.553"/>
<polyline class="Stem" fill="none" stroke="#000000" stroke-width="2.75" stroke-linejoin="bevel" points="2461.38,1003.2 2461.38,919.053"/>
<polyline class="Stem" fill="none" stroke="#000000" stroke-width="2.75" stroke-linejoin="bevel" points="2588.25,990.617 2588.25,909.677"/>
<polyline class="Stem" fill="none" stroke="#000000" stroke-width="2.75" stroke-linejoin="bevel" points="478.621,1615.74 478.621,1531.59"/>
<polyline class="Stem" fill="none" stroke="#000000" stroke-width="2.75" stroke-linejoin="bevel" points="611.038,1628.24 611.038,1544.09"/>
<polyline class="Stem" fill="none" stroke="#000000" stroke-width="2.75" stroke-linejoin="bevel" points="743.455,1640.74 743.455,1556.59"/>
<polyline class="Stem" fill="none" stroke="#000000" stroke-width="2.75" stroke-linejoin="bevel" points="875.872,1653.24 875.872,1569.09"/>
<polyline class="Stem" fill="none" stroke="#000000" stroke-width="2.75" stroke-linejoin="bevel" points="1101.95,1522.61 1101.95,1606.6"/>
<polyline class="Stem" fill="none" stroke="#000000" stroke-width="2.75" stroke-linejoin="bevel" points="1231.74,1535.11 1231.74,1619.1"/>
<polyline class="Stem" fill="none" stroke="#000000" stroke-width="2.75" stroke-linejoin="bevel" points="1361.53,1547.61 1361.53,1631.6"/>
<polyline class="Stem" fill="none" stroke="#000000" stroke-width="2.75" stroke-linejoin="bevel" points="1491.33,1560.11 1491.33,1640.97"/>
<polyline class="Stem" fill="none" stroke="#000000" stroke-width="2.75" stroke-linejoin="bevel" points="1658.12,1572.61 1658.12,1650.35"/>
<polyline class="Stem" fill="none" stroke="#000000" stroke-width="2.75" stroke-linejoin="bevel" points="1795.79,1585.11 1795.79,1659.72"/>
<polyline class="Stem" fill="none" stroke="#000000" stroke-width="2.75" stroke-linejoin="bevel" points="1963.2,1590.73 1963.2,1512.84"/>
<polyline class="Stem" fill="none" stroke="#000000" stroke-width="2.75" stroke-linejoin="bevel" points="2100.87,1603.24 2100.87,1522.22"/>
<polyline class="Stem" fill="none" stroke="#000000" stroke-width="2.75" stroke-linejoin="bevel" points="2284.29,1615.74 2284.29,1531.59"/>
<polyline class="Stem" fill="none" stroke="#000000" stroke-width="2.75" stroke-linejoin="bevel" points="2446.76,1628.16 2446.76,1544.09"/>
<polyline class="Stem" fill="none" stroke="#000000" stroke-width="2.75" stroke-linejoin="bevel" points="544.274,815.686 544.274,706.539"/>
<polyline class="Stem" fill="none" stroke="#000000" stroke-width="2.75" stroke-linejoin="bevel" points="685.085,803.185 685.085,706.539"/>
<polyline class="Stem" fill="none" stroke="#000000" stroke-width="2.75" stroke-linejoin="bevel" points="825.895,790.684 825.895,706.539"/>
<polyline class="Stem" fill="none" stroke="#000000" stroke-width="2.75" stroke-linejoin="bevel" points="966.706,778.184 966.706,694.038"/>
<polyline class="Stem" fill="none" stroke="#000000" stroke-width="2.75" stroke-linejoin="bevel" points="1144.52,765.683 1144.52,681.538"/>
<polyline class="Stem" fill="none" stroke="#000000" stroke-width="2.75" stroke-linejoin="bevel" points="1269.58,753.182 1269.58,669.037"/>
<polyline class="Stem" fill="none" stroke="#000000" stroke-width="2.75" stroke-linejoin="bevel" points="1394.64,740.681 1394.64,656.536"/>
<polyline class="Stem" fill="none" stroke="#000000" stroke-width="2.75" stroke-linejoin="bevel" points="1519.7,728.181 1519.7,647.16"/>
<polyline class="Stem" fill="none" stroke="#000000" stroke-width="2.75" stroke-linejoin="bevel" points="1681.76,715.68 1681.76,637.785"/>
<polyline class="Stem" fill="none" stroke="#000000" stroke-width="2.75" stroke-linejoin="bevel" points="1784.95,710.059 1784.95,784.669"/>
<polyline class="Stem" fill="none" stroke="#000000" stroke-width="2.75" stroke-linejoin="bevel" points="1917.89,697.559 1917.89,775.293"/>
<polyline class="Stem" fill="none" stroke="#000000" stroke-width="2.75" stroke-linejoin="bevel" points="2050.82,685.058 2050.82,765.918"/>
<polyline class="Stem" fill="none" stroke="#000000" stroke-width="2.75" stroke-linejoin="bevel" points="2304.76,672.557 2304.76,756.542"/>
<polyline class="Stem" fill="none" stroke="#000000" stroke-width="2.75" stroke-linejoin="bevel" points="2431.63,660.056 2431.63,744.042"/>
<polyline class="Stem" fill="none" stroke="#000000" stroke-width="2.75" stroke-linejoin="bevel" points="2558.51,647.475 2558.51,731.541"/>
<polyline class="Stem" fill="none" stroke="#000000" stroke-width="2.75" stroke-linejoin="bevel" points="448.877,1272.59 448.877,1356.58"/>
<polyline class="Stem" fill="none" stroke="#000000" stroke-width="2.75" stroke-linejoin="bevel" points="581.294,1285.1 581.294,1369.08"/>
<polyline class="Stem" fill="none" stroke="#000000" stroke-width="2.75" stroke-linejoin="bevel" points="713.711,1297.6 713.711,1378.46"/>
<polyline class="Stem" fill="none" stroke="#000000" stroke-width="2.75" stroke-linejoin="bevel" points="846.128,1310.1 846.128,1387.83"/>
<polyline class="Stem" fill="none" stroke="#000000" stroke-width="2.75" stroke-linejoin="bevel" points="1101.95,1322.6 1101.95,1397.21"/>
<polyline class="Stem" fill="none" stroke="#000000" stroke-width="2.75" stroke-linejoin="bevel" points="1261.49,1328.22 1261.49,1250.32"/>
<polyline class="Stem" fill="none" stroke="#000000" stroke-width="2.75" stroke-linejoin="bevel" points="1391.28,1340.72 1391.28,1259.7"/>
<polyline class="Stem" fill="none" stroke="#000000" stroke-width="2.75" stroke-linejoin="bevel" points="1521.07,1353.22 1521.07,1269.07"/>
<polyline class="Stem" fill="none" stroke="#000000" stroke-width="2.75" stroke-linejoin="bevel" points="1687.86,1365.72 1687.86,1281.58"/>
<polyline class="Stem" fill="none" stroke="#000000" stroke-width="2.75" stroke-linejoin="bevel" points="1825.53,1378.22 1825.53,1294.08"/>
<polyline class="Stem" fill="none" stroke="#000000" stroke-width="2.75" stroke-linejoin="bevel" points="1963.2,1390.72 1963.2,1306.58"/>
<polyline class="Stem" fill="none" stroke="#000000" stroke-width="2.75" stroke-linejoin="bevel" points="2100.87,1403.22 2100.87,1319.08"/>
<polyline class="Stem" fill="none" stroke="#000000" stroke-width="2.75" stroke-linejoin="bevel" points="2284.29,1415.72 2284.29,1319.08"/>
<polyline class="Stem" fill="none" stroke="#000000" stroke-width="2.75" stroke-linejoin="bevel" points="2446.76,1428.14 2446.76,1319.08"/>
<path class="Note" d="M544.654,1010.86 C543.154,1008.16 540.254,1006.46 536.354,1006.06 C535.754,1005.96 535.254,1005.96 534.654,1005.96 C531.154,1005.96 527.354,1006.96 523.854,1008.86 C517.254,1012.46 513.154,1018.36 513.154,1023.46 C513.154,1024.86 513.354,1026.16 514.054,1027.36 C515.554,1030.06 518.554,1031.76 522.454,1032.16 C523.054,1032.26 523.554,1032.26 524.154,1032.26 C527.654,1032.26 531.354,1031.26 534.854,1029.36 C541.454,1025.76 545.654,1019.96 545.654,1014.86 C545.654,1013.46 545.354,1012.06 544.654,1010.86"/>
<path class="Note" d="M685.465,998.358 C683.965,995.658 681.065,993.958 677.165,993.558 C676.565,993.458 676.065,993.458 675.465,993.458 C671.965,993.458 668.165,994.458 664.665,996.358 C658.065,999.958 653.965,1005.86 653.965,1010.96 C653.965,1012.36 654.165,1013.66 654.865,1014.86 C656.365,1017.56 659.365,1019.26 663.265,1019.66 C663.865,1019.76 664.365,1019.76 664.965,1019.76 C668.465,1019.76 672.165,1018.76 675.665,1016.86 C682.265,1013.26 686.465,1007.46 686.465,1002.36 C686.465,1000.96 686.165,999.558 685.465,998.358"/>
<path class="Note" d="M826.276,985.857 C824.776,983.157 821.876,981.457 817.976,981.057 C817.376,980.957 816.876,980.957 816.276,980.957 C812.776,980.957 808.976,981.957 805.476,983.857 C798.876,987.457 794.776,993.357 794.776,998.457 C794.776,999.857 794.976,1001.16 795.676,1002.36 C797.176,1005.06 800.176,1006.76 804.076,1007.16 C804.676,1007.26 805.176,1007.26 805.776,1007.26 C809.276,1007.26 812.976,1006.26 816.476,1004.36 C823.076,1000.76 827.276,994.957 827.276,989.857 C827.276,988.457 826.976,987.057 826.276,985.857"/>
<path class="Note" d="M967.087,973.356 C965.587,970.656 962.687,968.956 958.787,968.556 C958.187,968.456 957.687,968.456 957.087,968.456 C953.587,968.456 949.787,969.456 946.287,971.356 C939.687,974.956 935.587,980.856 935.587,985.956 C935.587,987.356 935.787,988.656 936.487,989.856 C937.987,992.556 940.987,994.256 944.887,994.656 C945.487,994.756 945.987,994.756 946.587,994.756 C950.087,994.756 953.787,993.756 957.287,991.856 C963.887,988.256 968.087,982.456 968.087,977.356 C968.087,975.956 967.787,974.556 967.087,973.356"/>
<path class="Note" d="M1144.9,960.856 C1143.4,958.156 1140.5,956.456 1136.6,956.056 C1136,955.956 1135.5,955.956 1134.9,955.956 C1131.4,955.956 1127.6,956.956 1124.1,958.856 C1117.5,962.456 1113.4,968.356 1113.4,973.456 C1113.4,974.856 1113.6,976.156 1114.3,977.356 C1115.8,980.056 1118.8,981.756 1122.7,982.156 C1123.3,982.256 1123.8,982.256 1124.4,982.256 C1127.9,982.256 1131.6,981.256 1135.1,979.356 C1141.7,975.756 1145.9,969.956 1145.9,964.856 C1145.9,963.456 1145.6,962.056 1144.9,960.856"/>
<path class="Note" d="M1269.96,948.355 C1268.46,945.655 1265.56,943.955 1261.66,943.555 C1261.06,943.455 1260.56,943.455 1259.96,943.455 C1256.46,943.455 1252.66,944.455 1249.16,946.355 C1242.56,949.955 1238.46,955.855 1238.46,960.955 C1238.46,962.355 1238.66,963.655 1239.36,964.855 C1240.86,967.555 1243.86,969.255 1247.76,969.655 C1248.36,969.755 1248.86,969.755 1249.46,969.755 C1252.96,969.755 1256.66,968.755 1260.16,966.855 C1266.76,963.255 1270.96,957.455 1270.96,952.355 C1270.96,950.955 1270.66,949.555 1269.96,948.355"/>
<path class="Note" d="M1395.02,935.854 C1393.52,933.154 1390.62,931.454 1386.72,931.054 C1386.12,930.954 1385.62,930.954 1385.02,930.954 C1381.52,930.954 1377.72,931.954 1374.22,933.854 C1367.62,937.454 1363.52,943.354 1363.52,948.454 C1363.52,949.854 1363.72,951.154 1364.42,952.354 C1365.92,955.054 1368.92,956.754 1372.82,957.154 C1373.42,957.254 1373.92,957.254 1374.52,957.254 C1378.02,957.254 1381.72,956.254 1385.22,954.354 C1391.82,950.754 1396.02,944.954 1396.02,939.854 C1396.02,938.454 1395.72,937.054 1395.02,935.854"/>
<path class="Note" d="M1520.08,923.353 C1518.58,920.653 1515.68,918.953 1511.78,918.553 C1511.18,918.453 1510.68,918.453 1510.08,918.453 C1506.58,918.453 1502.78,919.453 1499.28,921.353 C1492.68,924.953 1488.58,930.853 1488.58,935.953 C1488.58,937.353 1488.78,938.653 1489.48,939.853 C1490.98,942.553 1493.98,944.253 1497.88,944.653 C1498.48,944.753 1498.98,944.753 1499.58,944.753 C1503.08,944.753 1506.78,943.753 1510.28,941.853 C1516.88,938.253 1521.08,932.453 1521.08,927.353 C1521.08,925.953 1520.78,924.553 1520.08,923.353"/>
<path class="Note" d="M1682.14,910.853 C1680.64,908.153 1677.74,906.453 1673.84,906.053 C1673.24,905.953 1672.74,905.953 1672.14,905.953 C1668.64,905.953 1664.84,906.953 1661.34,908.853 C1654.74,912.453 1650.64,918.353 1650.64,923.453 C1650.64,924.853 1650.84,926.153 1651.54,927.353 C1653.04,930.053 1656.04,931.753 1659.94,932.153 C1660.54,932.253 1661.04,932.253 1661.64,932.253 C1665.14,932.253 1668.84,931.253 1672.34,929.353 C1678.94,925.753 1683.14,919.953 1683.14,914.853 C1683.14,913.453 1682.84,912.053 1682.14,910.853"/>
<path class="Note" d="M1815.08,898.352 C1813.58,895.652 1810.68,893.952 1806.78,893.552 C1806.18,893.452 1805.68,893.452 1805.08,893.452 C1801.58,893.452 1797.78,894.452 1794.28,896.352 C1787.68,899.952 1783.58,905.852 1783.58,910.952 C1783.58,912.352 1783.78,913.652 1784.48,914.852 C1785.98,917.552 1788.98,919.252 1792.88,919.652 C1793.48,919.752 1793.98,919.752 1794.58,919.752 C1798.08,919.752 1801.78,918.752 1805.28,916.852 C1811.88,913.252 1816.08,907.452 1816.08,902.352 C1816.08,900.952 1815.78,899.552 1815.08,898.352"/>
<path class="Note" d="M1948.01,885.851 C1946.51,883.151 1943.61,881.451 1939.71,881.051 C1939.11,880.951 1938.61,880.951 1938.01,880.951 C1934.51,880.951 1930.71,881.951 1927.21,883.851 C1920.61,887.451 1916.51,893.351 1916.51,898.451 C1916.51,899.851 1916.71,901.151 1917.41,902.351 C1918.91,905.051 1921.91,906.751 1925.81,907.151 C1926.41,907.251 1926.91,907.251 1927.51,907.251 C1931.01,907.251 1934.71,906.251 1938.21,904.351 C1944.81,900.751 1949.01,894.951 1949.01,889.851 C1949.01,888.451 1948.71,887.051 1948.01,885.851"/>
<path class="Note" d="M2080.95,873.35 C2079.45,870.65 2076.55,868.95 2072.65,868.55 C2072.05,868.45 2071.55,868.45 2070.95,868.45 C2067.45,868.45 2063.65,869.45 2060.15,871.35 C2053.55,874.95 2049.45,880.85 2049.45,885.95 C2049.45,887.35 2049.65,888.65 2050.35,889.85 C2051.85,892.55 2054.85,894.25 2058.75,894.65 C2059.35,894.75 2059.85,894.75 2060.45,894.75 C2063.95,894.75 2067.65,893.75 2071.15,891.85 C2077.75,888.25 2081.95,882.45 2081.95,877.35 C2081.95,875.95 2081.65,874.55 2080.95,873.35"/>
<path class="Note" d="M2334.88,1010.86 C2333.38,1008.16 2330.48,1006.46 2326.58,1006.06 C2325.98,1005.96 2325.48,1005.96 2324.88,1005.96 C2321.38,1005.96 2317.58,1006.96 2314.08,1008.86 C2307.48,1012.46 2303.38,1018.36 2303.38,1023.46 C2303.38,1024.86 2303.58,1026.16 2304.28,1027.36 C2305.78,1030.06 2308.78,1031.76 2312.68,1032.16 C2313.28,1032.26 2313.78,1032.26 2314.38,1032.26 C2317.88,1032.26 2321.58,1031.26 2325.08,1029.36 C2331.68,1025.76 2335.88,1019.96 2335.88,1014.86 C2335.88,1013.46 2335.58,1012.06 2334.88,1010.86"/>
<path class="Note" d="M2461.76,998.358 C2460.26,995.658 2457.36,993.958 2453.46,993.558 C2452.86,993.458 2452.36,993.458 2451.76,993.458 C2448.26,993.458 2444.46,994.458 2440.96,996.358 C2434.36,999.958 2430.26,1005.86 2430.26,1010.96 C2430.26,1012.36 2430.46,1013.66 2431.16,1014.86 C2432.66,1017.56 2435.66,1019.26 2439.56,1019.66 C2440.16,1019.76 2440.66,1019.76 2441.26,1019.76 C2444.76,1019.76 2448.46,1018.76 2451.96,1016.86 C2458.56,1013.26 2462.76,1007.46 2462.76,1002.36 C2462.76,1000.96 2462.46,999.558 2461.76,998.358"/>
<path class="Note" d="M2588.63,985.857 C2587.13,983.157 2584.23,981.457 2580.33,981.057 C2579.73,980.957 2579.23,980.957 2578.63,980.957 C2575.13,980.957 2571.33,981.957 2567.83,983.857 C2561.23,987.457 2557.13,993.257 2557.13,998.357 C2557.13,999.757 2557.53,1001.16 2558.23,1002.36 C2559.73,1005.16 2562.53,1006.76 2566.43,1007.16 C2567.03,1007.26 2567.53,1007.26 2568.13,1007.26 C2571.63,1007.26 2575.43,1006.26 2578.93,1004.36 C2585.53,1000.76 2589.63,994.857 2589.63,989.757 C2589.63,988.357 2589.33,987.057 2588.63,985.857 M2584.43,992.157 C2582.73,993.957 2579.53,996.257 2575.93,998.357 C2572.33,1000.46 2568.63,1002.16 2566.33,1002.86 C2565.83,1002.96 2565.23,1003.06 2564.73,1003.06 C2563.23,1003.06 2561.93,1002.36 2561.23,1001.26 C2560.93,1000.66 2560.73,1000.06 2560.73,999.457 C2560.73,998.357 2561.23,997.257 2562.33,996.057 C2564.03,994.257 2567.23,991.857 2570.83,989.757 C2574.43,987.657 2578.13,985.957 2580.53,985.357 L2580.73,985.357 C2581.33,985.157 2581.83,985.057 2582.33,985.057 C2583.73,985.057 2584.83,985.657 2585.53,986.957 C2585.83,987.557 2586.03,988.057 2586.03,988.657 C2586.03,989.957 2585.33,991.257 2584.43,992.157"/>
<path class="Note" d="M479.002,1610.9 C477.502,1608.2 474.602,1606.5 470.702,1606.1 C470.102,1606 469.602,1606 469.002,1606 C465.502,1606 461.702,1607 458.202,1608.9 C451.602,1612.5 447.502,1618.4 447.502,1623.5 C447.502,1624.9 447.702,1626.2 448.402,1627.4 C449.902,1630.1 452.902,1631.8 456.802,1632.2 C457.402,1632.3 457.902,1632.3 458.502,1632.3 C462.002,1632.3 465.702,1631.3 469.202,1629.4 C475.802,1625.8 480.002,1620 480.002,1614.9 C480.002,1613.5 479.702,1612.1 479.002,1610.9"/>
<path class="Note" d="M611.419,1623.4 C609.919,1620.7 607.019,1619 603.119,1618.6 C602.519,1618.5 602.019,1618.5 601.419,1618.5 C597.919,1618.5 594.119,1619.5 590.619,1621.4 C584.019,1625 579.919,1630.9 579.919,1636 C579.919,1637.4 580.119,1638.7 580.819,1639.9 C582.319,1642.6 585.319,1644.3 589.219,1644.7 C589.819,1644.8 590.319,1644.8 590.919,1644.8 C594.419,1644.8 598.119,1643.8 601.619,1641.9 C608.219,1638.3 612.419,1632.5 612.419,1627.4 C612.419,1626 612.119,1624.6 611.419,1623.4"/>
<path class="Note" d="M743.836,1635.9 C742.336,1633.2 739.436,1631.5 735.536,1631.1 C734.936,1631 734.436,1631 733.836,1631 C730.336,1631 726.536,1632 723.036,1633.9 C716.436,1637.5 712.336,1643.4 712.336,1648.5 C712.336,1649.9 712.536,1651.2 713.236,1652.4 C714.736,1655.1 717.736,1656.8 721.636,1657.2 C722.236,1657.3 722.736,1657.3 723.336,1657.3 C726.836,1657.3 730.536,1656.3 734.036,1654.4 C740.636,1650.8 744.836,1645 744.836,1639.9 C744.836,1638.5 744.536,1637.1 743.836,1635.9"/>
<path class="Note" d="M876.253,1648.4 C874.753,1645.7 871.853,1644 867.953,1643.6 C867.353,1643.5 866.853,1643.5 866.253,1643.5 C862.753,1643.5 858.953,1644.5 855.453,1646.4 C848.853,1650 844.753,1655.9 844.753,1661 C844.753,1662.4 844.953,1663.7 845.653,1664.9 C847.153,1667.6 850.153,1669.3 854.053,1669.7 C854.653,1669.8 855.153,1669.8 855.753,1669.8 C859.253,1669.8 862.953,1668.8 866.453,1666.9 C873.053,1663.3 877.253,1657.5 877.253,1652.4 C877.253,1651 876.953,1649.6 876.253,1648.4"/>
<path class="Note" d="M1132.08,1510.89 C1130.58,1508.19 1127.68,1506.49 1123.78,1506.09 C1123.18,1505.99 1122.68,1505.99 1122.08,1505.99 C1118.58,1505.99 1114.78,1506.99 1111.28,1508.89 C1104.68,1512.49 1100.58,1518.39 1100.58,1523.49 C1100.58,1524.89 1100.78,1526.19 1101.48,1527.39 C1102.98,1530.09 1105.98,1531.79 1109.88,1532.19 C1110.48,1532.29 1110.98,1532.29 1111.58,1532.29 C1115.08,1532.29 1118.78,1531.29 1122.28,1529.39 C1128.88,1525.79 1133.08,1519.99 1133.08,1514.89 C1133.08,1513.49 1132.78,1512.09 1132.08,1510.89"/>
<path class="Note" d="M1261.87,1523.39 C1260.37,1520.69 1257.47,1518.99 1253.57,1518.59 C1252.97,1518.49 1252.47,1518.49 1251.87,1518.49 C1248.37,1518.49 1244.57,1519.49 1241.07,1521.39 C1234.47,1524.99 1230.37,1530.89 1230.37,1535.99 C1230.37,1537.39 1230.57,1538.69 1231.27,1539.89 C1232.77,1542.59 1235.77,1544.29 1239.67,1544.69 C1240.27,1544.79 1240.77,1544.79 1241.37,1544.79 C1244.87,1544.79 1248.57,1543.79 1252.07,1541.89 C1258.67,1538.29 1262.87,1532.49 1262.87,1527.39 C1262.87,1525.99 1262.57,1524.59 1261.87,1523.39"/>
<path class="Note" d="M1391.66,1535.89 C1390.16,1533.19 1387.26,1531.49 1383.36,1531.09 C1382.76,1530.99 1382.26,1530.99 1381.66,1530.99 C1378.16,1530.99 1374.36,1531.99 1370.86,1533.89 C1364.26,1537.49 1360.16,1543.39 1360.16,1548.49 C1360.16,1549.89 1360.36,1551.19 1361.06,1552.39 C1362.56,1555.09 1365.56,1556.79 1369.46,1557.19 C1370.06,1557.29 1370.56,1557.29 1371.16,1557.29 C1374.66,1557.29 1378.36,1556.29 1381.86,1554.39 C1388.46,1550.79 1392.66,1544.99 1392.66,1539.89 C1392.66,1538.49 1392.36,1537.09 1391.66,1535.89"/>
<path class="Note" d="M1521.45,1548.39 C1519.95,1545.69 1517.05,1543.99 1513.15,1543.59 C1512.55,1543.49 1512.05,1543.49 1511.45,1543.49 C1507.95,1543.49 1504.15,1544.49 1500.65,1546.39 C1494.05,1549.99 1489.95,1555.89 1489.95,1560.99 C1489.95,1562.39 1490.15,1563.69 1490.85,1564.89 C1492.35,1567.59 1495.35,1569.29 1499.25,1569.69 C1499.85,1569.79 1500.35,1569.79 1500.95,1569.79 C1504.45,1569.79 1508.15,1568.79 1511.65,1566.89 C1518.25,1563.29 1522.45,1557.49 1522.45,1552.39 C1522.45,1550.99 1522.15,1549.59 1521.45,1548.39"/>
<path class="Note" d="M1688.25,1560.89 C1686.75,1558.19 1683.85,1556.49 1679.95,1556.09 C1679.35,1555.99 1678.85,1555.99 1678.25,1555.99 C1674.75,1555.99 1670.95,1556.99 1667.45,1558.89 C1660.85,1562.49 1656.75,1568.39 1656.75,1573.49 C1656.75,1574.89 1656.95,1576.19 1657.65,1577.39 C1659.15,1580.09 1662.15,1581.79 1666.05,1582.19 C1666.65,1582.29 1667.15,1582.29 1667.75,1582.29 C1671.25,1582.29 1674.95,1581.29 1678.45,1579.39 C1685.05,1575.79 1689.25,1569.99 1689.25,1564.89 C1689.25,1563.49 1688.95,1562.09 1688.25,1560.89"/>
<path class="Note" d="M1825.91,1573.39 C1824.41,1570.69 1821.51,1568.99 1817.61,1568.59 C1817.01,1568.49 1816.51,1568.49 1815.91,1568.49 C1812.41,1568.49 1808.61,1569.49 1805.11,1571.39 C1798.51,1574.99 1794.41,1580.89 1794.41,1585.99 C1794.41,1587.39 1794.61,1588.69 1795.31,1589.89 C1796.81,1592.59 1799.81,1594.29 1803.71,1594.69 C1804.31,1594.79 1804.81,1594.79 1805.41,1594.79 C1808.91,1594.79 1812.61,1593.79 1816.11,1591.89 C1822.71,1588.29 1826.91,1582.49 1826.91,1577.39 C1826.91,1575.99 1826.61,1574.59 1825.91,1573.39"/>
<path class="Note" d="M1963.58,1585.9 C1962.08,1583.2 1959.18,1581.5 1955.28,1581.1 C1954.68,1581 1954.18,1581 1953.58,1581 C1950.08,1581 1946.28,1582 1942.78,1583.9 C1936.18,1587.5 1932.08,1593.4 1932.08,1598.5 C1932.08,1599.9 1932.28,1601.2 1932.98,1602.4 C1934.48,1605.1 1937.48,1606.8 1941.38,1607.2 C1941.98,1607.3 1942.48,1607.3 1943.08,1607.3 C1946.58,1607.3 1950.28,1606.3 1953.78,1604.4 C1960.38,1600.8 1964.58,1595 1964.58,1589.9 C1964.58,1588.5 1964.28,1587.1 1963.58,1585.9"/>
<path class="Note" d="M2101.25,1598.4 C2099.75,1595.7 2096.85,1594 2092.95,1593.6 C2092.35,1593.5 2091.85,1593.5 2091.25,1593.5 C2087.75,1593.5 2083.95,1594.5 2080.45,1596.4 C2073.85,1600 2069.75,1605.9 2069.75,1611 C2069.75,1612.4 2069.95,1613.7 2070.65,1614.9 C2072.15,1617.6 2075.15,1619.3 2079.05,1619.7 C2079.65,1619.8 2080.15,1619.8 2080.75,1619.8 C2084.25,1619.8 2087.95,1618.8 2091.45,1616.9 C2098.05,1613.3 2102.25,1607.5 2102.25,1602.4 C2102.25,1601 2101.95,1599.6 2101.25,1598.4"/>
<path class="Note" d="M2284.67,1610.9 C2283.17,1608.2 2280.27,1606.5 2276.37,1606.1 C2275.77,1606 2275.27,1606 2274.67,1606 C2271.17,1606 2267.37,1607 2263.87,1608.9 C2257.27,1612.5 2253.17,1618.4 2253.17,1623.5 C2253.17,1624.9 2253.37,1626.2 2254.07,1627.4 C2255.57,1630.1 2258.57,1631.8 2262.47,1632.2 C2263.07,1632.3 2263.57,1632.3 2264.17,1632.3 C2267.67,1632.3 2271.37,1631.3 2274.87,1629.4 C2281.47,1625.8 2285.67,1620 2285.67,1614.9 C2285.67,1613.5 2285.37,1612.1 2284.67,1610.9"/>
<path class="Note" d="M2447.14,1623.4 C2445.64,1620.7 2442.74,1619 2438.84,1618.6 C2438.24,1618.5 2437.74,1618.5 2437.14,1618.5 C2433.64,1618.5 2429.84,1619.5 2426.34,1621.4 C2419.74,1625 2415.64,1630.8 2415.64,1635.9 C2415.64,1637.3 2416.04,1638.7 2416.74,1639.9 C2418.24,1642.7 2421.04,1644.3 2424.94,1644.7 C2425.54,1644.8 2426.04,1644.8 2426.64,1644.8 C2430.14,1644.8 2433.94,1643.8 2437.44,1641.9 C2444.04,1638.3 2448.14,1632.4 2448.14,1627.3 C2448.14,1625.9 2447.84,1624.6 2447.14,1623.4 M2442.94,1629.7 C2441.24,1631.5 2438.04,1633.8 2434.44,1635.9 C2430.84,1638 2427.14,1639.7 2424.84,1640.4 C2424.34,1640.5 2423.74,1640.6 2423.24,1640.6 C2421.74,1640.6 2420.44,1639.9 2419.74,1638.8 C2419.44,1638.2 2419.24,1637.6 2419.24,1637 C2419.24,1635.9 2419.74,1634.8 2420.84,1633.6 C2422.54,1631.8 2425.74,1629.4 2429.34,1627.3 C2432.94,1625.2 2436.64,1623.5 2439.04,1622.9 L2439.24,1622.9 C2439.84,1622.7 2440.34,1622.6 2440.84,1622.6 C2442.24,1622.6 2443.34,1623.2 2444.04,1624.5 C2444.34,1625.1 2444.54,1625.6 2444.54,1626.2 C2444.54,1627.5 2443.84,1628.8 2442.94,1629.7"/>
<path class="Note" d="M544.654,810.846 C543.154,808.146 540.254,806.446 536.354,806.046 C535.754,805.946 535.254,805.946 534.654,805.946 C531.154,805.946 527.354,806.946 523.854,808.846 C517.254,812.446 513.154,818.346 513.154,823.446 C513.154,824.846 513.354,826.146 514.054,827.346 C515.554,830.046 518.554,831.746 522.454,832.146 C523.054,832.246 523.554,832.246 524.154,832.246 C527.654,832.246 531.354,831.246 534.854,829.346 C541.454,825.746 545.654,819.946 545.654,814.846 C545.654,813.446 545.354,812.046 544.654,810.846"/>
<path class="Note" d="M685.465,798.345 C683.965,795.645 681.065,793.945 677.165,793.545 C676.565,793.445 676.065,793.445 675.465,793.445 C671.965,793.445 668.165,794.445 664.665,796.345 C658.065,799.945 653.965,805.845 653.965,810.945 C653.965,812.345 654.165,813.645 654.865,814.845 C656.365,817.545 659.365,819.245 663.265,819.645 C663.865,819.745 664.365,819.745 664.965,819.745 C668.465,819.745 672.165,818.745 675.665,816.845 C682.265,813.245 686.465,807.445 686.465,802.345 C686.465,800.945 686.165,799.545 685.465,798.345"/>
<path class="Note" d="M826.276,785.845 C824.776,783.145 821.876,781.445 817.976,781.045 C817.376,780.945 816.876,780.945 816.276,780.945 C812.776,780.945 808.976,781.945 805.476,783.845 C798.876,787.445 794.776,793.345 794.776,798.445 C794.776,799.845 794.976,801.145 795.676,802.345 C797.176,805.045 800.176,806.745 804.076,807.145 C804.676,807.245 805.176,807.245 805.776,807.245 C809.276,807.245 812.976,806.245 816.476,804.345 C823.076,800.745 827.276,794.945 827.276,789.845 C827.276,788.445 826.976,787.045 826.276,785.845"/>
<path class="Note" d="M967.087,773.344 C965.587,770.644 962.687,768.944 958.787,768.544 C958.187,768.444 957.687,768.444 957.087,768.444 C953.587,768.444 949.787,769.444 946.287,771.344 C939.687,774.944 935.587,780.844 935.587,785.944 C935.587,787.344 935.787,788.644 936.487,789.844 C937.987,792.544 940.987,794.244 944.887,794.644 C945.487,794.744 945.987,794.744 946.587,794.744 C950.087,794.744 953.787,793.744 957.287,791.844 C963.887,788.244 968.087,782.444 968.087,777.344 C968.087,775.944 967.787,774.544 967.087,773.344"/>
<path class="Note" d="M1144.9,760.843 C1143.4,758.143 1140.5,756.443 1136.6,756.043 C1136,755.943 1135.5,755.943 1134.9,755.943 C1131.4,755.943 1127.6,756.943 1124.1,758.843 C1117.5,762.443 1113.4,768.343 1113.4,773.443 C1113.4,774.843 1113.6,776.143 1114.3,777.343 C1115.8,780.043 1118.8,781.743 1122.7,782.143 C1123.3,782.243 1123.8,782.243 1124.4,782.243 C1127.9,782.243 1131.6,781.243 1135.1,779.343 C1141.7,775.743 1145.9,769.943 1145.9,764.843 C1145.9,763.443 1145.6,762.043 1144.9,760.843"/>
<path class="Note" d="M1269.96,748.342 C1268.46,745.642 1265.56,743.942 1261.66,743.542 C1261.06,743.442 1260.56,743.442 1259.96,743.442 C1256.46,743.442 1252.66,744.442 1249.16,746.342 C1242.56,749.942 1238.46,755.842 1238.46,760.942 C1238.46,762.342 1238.66,763.642 1239.36,764.842 C1240.86,767.542 1243.86,769.242 1247.76,769.642 C1248.36,769.742 1248.86,769.742 1249.46,769.742 C1252.96,769.742 1256.66,768.742 1260.16,766.842 C1266.76,763.242 1270.96,757.442 1270.96,752.342 C1270.96,750.942 1270.66,749.542 1269.96,748.342"/>
<path class="Note" d="M1395.02,735.842 C1393.52,733.142 1390.62,731.442 1386.72,731.042 C1386.12,730.942 1385.62,730.942 1385.02,730.942 C1381.52,730.942 1377.72,731.942 1374.22,733.842 C1367.62,737.442 1363.52,743.342 1363.52,748.442 C1363.52,749.842 1363.72,751.142 1364.42,752.342 C1365.92,755.042 1368.92,756.742 1372.82,757.142 C1373.42,757.242 1373.92,757.242 1374.52,757.242 C1378.02,757.242 1381.72,756.242 1385.22,754.342 C1391.82,750.742 1396.02,744.942 1396.02,739.842 C1396.02,738.442 1395.72,737.042 1395.02,735.842"/>
<path class="Note" d="M1520.08,723.341 C1518.58,720.641 1515.68,718.941 1511.78,718.541 C1511.18,718.441 1510.68,718.441 1510.08,718.441 C1506.58,718.441 1502.78,719.441 1499.28,721.341 C1492.68,724.941 1488.58,730.841 1488.58,735.941 C1488.58,737.341 1488.78,738.641 1489.48,739.841 C1490.98,742.541 1493.98,744.241 1497.88,744.641 C1498.48,744.741 1498.98,744.741 1499.58,744.741 C1503.08,744.741 1506.78,743.741 1510.28,741.841 C1516.88,738.241 1521.08,732.441 1521.08,727.341 C1521.08,725.941 1520.78,724.541 1520.08,723.341"/>
<path class="Note" d="M1682.14,710.84 C1680.64,708.14 1677.74,706.44 1673.84,706.04 C1673.24,705.94 1672.74,705.94 1672.14,705.94 C1668.64,705.94 1664.84,706.94 1661.34,708.84 C1654.74,712.44 1650.64,718.34 1650.64,723.44 C1650.64,724.84 1650.84,726.14 1651.54,727.34 C1653.04,730.04 1656.04,731.74 1659.94,732.14 C1660.54,732.24 1661.04,732.24 1661.64,732.24 C1665.14,732.24 1668.84,731.24 1672.34,729.34 C1678.94,725.74 1683.14,719.94 1683.14,714.84 C1683.14,713.44 1682.84,712.04 1682.14,710.84"/>
<path class="Note" d="M1815.08,698.339 C1813.58,695.639 1810.68,693.939 1806.78,693.539 C1806.18,693.439 1805.68,693.439 1805.08,693.439 C1801.58,693.439 1797.78,694.439 1794.28,696.339 C1787.68,699.939 1783.58,705.839 1783.58,710.939 C1783.58,712.339 1783.78,713.639 1784.48,714.839 C1785.98,717.539 1788.98,719.239 1792.88,719.639 C1793.48,719.739 1793.98,719.739 1794.58,719.739 C1798.08,719.739 1801.78,718.739 1805.28,716.839 C1811.88,713.239 1816.08,707.439 1816.08,702.339 C1816.08,700.939 1815.78,699.539 1815.08,698.339"/>
<path class="Note" d="M1948.01,685.838 C1946.51,683.138 1943.61,681.438 1939.71,681.038 C1939.11,680.938 1938.61,680.938 1938.01,680.938 C1934.51,680.938 1930.71,681.938 1927.21,683.838 C1920.61,687.438 1916.51,693.338 1916.51,698.438 C1916.51,699.838 1916.71,701.138 1917.41,702.338 C1918.91,705.038 1921.91,706.738 1925.81,707.138 C1926.41,707.238 1926.91,707.238 1927.51,707.238 C1931.01,707.238 1934.71,706.238 1938.21,704.338 C1944.81,700.738 1949.01,694.938 1949.01,689.838 C1949.01,688.438 1948.71,687.038 1948.01,685.838"/>
<path class="Note" d="M2080.95,673.338 C2079.45,670.638 2076.55,668.938 2072.65,668.538 C2072.05,668.438 2071.55,668.438 2070.95,668.438 C2067.45,668.438 2063.65,669.438 2060.15,671.338 C2053.55,674.938 2049.45,680.838 2049.45,685.938 C2049.45,687.338 2049.65,688.638 2050.35,689.838 C2051.85,692.538 2054.85,694.238 2058.75,694.638 C2059.35,694.738 2059.85,694.738 2060.45,694.738 C2063.95,694.738 2067.65,693.738 2071.15,691.838 C2077.75,688.238 2081.95,682.438 2081.95,677.338 C2081.95,675.938 2081.65,674.538 2080.95,673.338"/>
<path class="Note" d="M2334.88,660.837 C2333.38,658.137 2330.48,656.437 2326.58,656.037 C2325.98,655.937 2325.48,655.937 2324.88,655.937 C2321.38,655.937 2317.58,656.937 2314.08,658.837 C2307.48,662.437 2303.38,668.337 2303.38,673.437 C2303.38,674.837 2303.58,676.137 2304.28,677.337 C2305.78,680.037 2308.78,681.737 2312.68,682.137 C2313.28,682.237 2313.78,682.237 2314.38,682.237 C2317.88,682.237 2321.58,681.237 2325.08,679.337 C2331.68,675.737 2335.88,669.937 2335.88,664.837 C2335.88,663.437 2335.58,662.037 2334.88,660.837"/>
<path class="Note" d="M2461.76,648.336 C2460.26,645.636 2457.36,643.936 2453.46,643.536 C2452.86,643.436 2452.36,643.436 2451.76,643.436 C2448.26,643.436 2444.46,644.436 2440.96,646.336 C2434.36,649.936 2430.26,655.836 2430.26,660.936 C2430.26,662.336 2430.46,663.636 2431.16,664.836 C2432.66,667.536 2435.66,669.236 2439.56,669.636 C2440.16,669.736 2440.66,669.736 2441.26,669.736 C2444.76,669.736 2448.46,668.736 2451.96,666.836 C2458.56,663.236 2462.76,657.436 2462.76,652.336 C2462.76,650.936 2462.46,649.536 2461.76,648.336"/>
<path class="Note" d="M2588.63,635.835 C2587.13,633.135 2584.23,631.435 2580.33,631.035 C2579.73,630.935 2579.23,630.935 2578.63,630.935 C2575.13,630.935 2571.33,631.935 2567.83,633.835 C2561.23,637.435 2557.13,643.235 2557.13,648.335 C2557.13,649.735 2557.53,651.135 2558.23,652.335 C2559.73,655.135 2562.53,656.735 2566.43,657.135 C2567.03,657.235 2567.53,657.235 2568.13,657.235 C2571.63,657.235 2575.43,656.235 2578.93,654.335 C2585.53,650.735 2589.63,644.835 2589.63,639.735 C2589.63,638.335 2589.33,637.035 2588.63,635.835 M2584.43,642.135 C2582.73,643.935 2579.53,646.235 2575.93,648.335 C2572.33,650.435 2568.63,652.135 2566.33,652.835 C2565.83,652.935 2565.23,653.035 2564.73,653.035 C2563.23,653.035 2561.93,652.335 2561.23,651.235 C2560.93,650.635 2560.73,650.035 2560.73,649.435 C2560.73,648.335 2561.23,647.235 2562.33,646.035 C2564.03,644.235 2567.23,641.835 2570.83,639.735 C2574.43,637.635 2578.13,635.935 2580.53,635.335 L2580.73,635.335 C2581.33,635.135 2581.83,635.035 2582.33,635.035 C2583.73,635.035 2584.83,635.635 2585.53,636.935 C2585.83,637.535 2586.03,638.035 2586.03,638.635 C2586.03,639.935 2585.33,641.235 2584.43,642.135"/>
<path class="Note" d="M479.002,1260.87 C477.502,1258.17 474.602,1256.47 470.702,1256.07 C470.102,1255.97 469.602,1255.97 469.002,1255.97 C465.502,1255.97 461.702,1256.97 458.202,1258.87 C451.602,1262.47 447.502,1268.37 447.502,1273.47 C447.502,1274.87 447.702,1276.17 448.402,1277.37 C449.902,1280.07 452.902,1281.77 456.802,1282.17 C457.402,1282.27 457.902,1282.27 458.502,1282.27 C462.002,1282.27 465.702,1281.27 469.202,1279.37 C475.802,1275.77 480.002,1269.97 480.002,1264.87 C480.002,1263.47 479.702,1262.07 479.002,1260.87"/>
<path class="Note" d="M611.419,1273.38 C609.919,1270.68 607.019,1268.98 603.119,1268.58 C602.519,1268.48 602.019,1268.48 601.419,1268.48 C597.919,1268.48 594.119,1269.48 590.619,1271.38 C584.019,1274.98 579.919,1280.88 579.919,1285.98 C579.919,1287.38 580.119,1288.68 580.819,1289.88 C582.319,1292.58 585.319,1294.28 589.219,1294.68 C589.819,1294.78 590.319,1294.78 590.919,1294.78 C594.419,1294.78 598.119,1293.78 601.619,1291.88 C608.219,1288.28 612.419,1282.48 612.419,1277.38 C612.419,1275.98 612.119,1274.58 611.419,1273.38"/>
<path class="Note" d="M743.836,1285.88 C742.336,1283.18 739.436,1281.48 735.536,1281.08 C734.936,1280.98 734.436,1280.98 733.836,1280.98 C730.336,1280.98 726.536,1281.98 723.036,1283.88 C716.436,1287.48 712.336,1293.38 712.336,1298.48 C712.336,1299.88 712.536,1301.18 713.236,1302.38 C714.736,1305.08 717.736,1306.78 721.636,1307.18 C722.236,1307.28 722.736,1307.28 723.336,1307.28 C726.836,1307.28 730.536,1306.28 734.036,1304.38 C740.636,1300.78 744.836,1294.98 744.836,1289.88 C744.836,1288.48 744.536,1287.08 743.836,1285.88"/>
<path class="Note" d="M876.253,1298.38 C874.753,1295.68 871.853,1293.98 867.953,1293.58 C867.353,1293.48 866.853,1293.48 866.253,1293.48 C862.753,1293.48 858.953,1294.48 855.453,1296.38 C848.853,1299.98 844.753,1305.88 844.753,1310.98 C844.753,1312.38 844.953,1313.68 845.653,1314.88 C847.153,1317.58 850.153,1319.28 854.053,1319.68 C854.653,1319.78 855.153,1319.78 855.753,1319.78 C859.253,1319.78 862.953,1318.78 866.453,1316.88 C873.053,1313.28 877.253,1307.48 877.253,1302.38 C877.253,1300.98 876.953,1299.58 876.253,1298.38"/>
<path class="Note" d="M1132.08,1310.88 C1130.58,1308.18 1127.68,1306.48 1123.78,1306.08 C1123.18,1305.98 1122.68,1305.98 1122.08,1305.98 C1118.58,1305.98 1114.78,1306.98 1111.28,1308.88 C1104.68,1312.48 1100.58,1318.38 1100.58,1323.48 C1100.58,1324.88 1100.78,1326.18 1101.48,1327.38 C1102.98,1330.08 1105.98,1331.78 1109.88,1332.18 C1110.48,1332.28 1110.98,1332.28 1111.58,1332.28 C1115.08,1332.28 1118.78,1331.28 1122.28,1329.38 C1128.88,1325.78 1133.08,1319.98 1133.08,1314.88 C1133.08,1313.48 1132.78,1312.08 1132.08,1310.88"/>
<path class="Note" d="M1261.87,1323.38 C1260.37,1320.68 1257.47,1318.98 1253.57,1318.58 C1252.97,1318.48 1252.47,1318.48 1251.87,1318.48 C1248.37,1318.48 1244.57,1319.48 1241.07,1321.38 C1234.47,1324.98 1230.37,1330.88 1230.37,1335.98 C1230.37,1337.38 1230.57,1338.68 1231.27,1339.88 C1232.77,1342.58 1235.77,1344.28 1239.67,1344.68 C1240.27,1344.78 1240.77,1344.78 1241.37,1344.78 C1244.87,1344.78 1248.57,1343.78 1252.07,1341.88 C1258.67,1338.28 1262.87,1332.48 1262.87,1327.38 C1262.87,1325.98 1262.57,1324.58 1261.87,1323.38"/>
<path class="Note" d="M1391.66,1335.88 C1390.16,1333.18 1387.26,1331.48 1383.36,1331.08 C1382.76,1330.98 1382.26,1330.98 1381.66,1330.98 C1378.16,1330.98 1374.36,1331.98 1370.86,1333.88 C1364.26,1337.48 1360.16,1343.38 1360.16,1348.48 C1360.16,1349.88 1360.36,1351.18 1361.06,1352.38 C1362.56,1355.08 1365.56,1356.78 1369.46,1357.18 C1370.06,1357.28 1370.56,1357.28 1371.16,1357.28 C1374.66,1357.28 1378.36,1356.28 1381.86,1354.38 C1388.46,1350.78 1392.66,1344.98 1392.66,1339.88 C1392.66,1338.48 1392.36,1337.08 1391.66,1335.88"/>
<path class="Note" d="M1521.45,1348.38 C1519.95,1345.68 1517.05,1343.98 1513.15,1343.58 C1512.55,1343.48 1512.05,1343.48 1511.45,1343.48 C1507.95,1343.48 1504.15,1344.48 1500.65,1346.38 C1494.05,1349.98 1489.95,1355.88 1489.95,1360.98 C1489.95,1362.38 1490.15,1363.68 1490.85,1364.88 C1492.35,1367.58 1495.35,1369.28 1499.25,1369.68 C1499.85,1369.78 1500.35,1369.78 1500.95,1369.78 C1504.45,1369.78 1508.15,1368.78 1511.65,1366.88 C1518.25,1363.28 1522.45,1357.48 1522.45,1352.38 C1522.45,1350.98 1522.15,1349.58 1521.45,1348.38"/>
<path class="Note" d="M1688.25,1360.88 C1686.75,1358.18 1683.85,1356.48 1679.95,1356.08 C1679.35,1355.98 1678.85,1355.98 1678.25,1355.98 C1674.75,1355.98 1670.95,1356.98 1667.45,1358.88 C1660.85,1362.48 1656.75,1368.38 1656.75,1373.48 C1656.75,1374.88 1656.95,1376.18 1657.65,1377.38 C1659.15,1380.08 1662.15,1381.78 1666.05,1382.18 C1666.65,1382.28 1667.15,1382.28 1667.75,1382.28 C1671.25,1382.28 1674.95,1381.28 1678.45,1379.38 C1685.05,1375.78 1689.25,1369.98 1689.25,1364.88 C1689.25,1363.48 1688.95,1362.08 1688.25,1360.88"/>
<path class="Note" d="M1825.91,1373.38 C1824.41,1370.68 1821.51,1368.98 1817.61,1368.58 C1817.01,1368.48 1816.51,1368.48 1815.91,1368.48 C1812.41,1368.48 1808.61,1369.48 1805.11,1371.38 C1798.51,1374.98 1794.41,1380.88 1794.41,1385.98 C1794.41,1387.38 1794.61,1388.68 1795.31,1389.88 C1796.81,1392.58 1799.81,1394.28 1803.71,1394.68 C1804.31,1394.78 1804.81,1394.78 1805.41,1394.78 C1808.91,1394.78 1812.61,1393.78 1816.11,1391.88 C1822.71,1388.28 1826.91,1382.48 1826.91,1377.38 C1826.91,1375.98 1826.61,1374.58 1825.91,1373.38"/>
<path class="Note" d="M1963.58,1385.88 C1962.08,1383.18 1959.18,1381.48 1955.28,1381.08 C1954.68,1380.98 1954.18,1380.98 1953.58,1380.98 C1950.08,1380.98 1946.28,1381.98 1942.78,1383.88 C1936.18,1387.48 1932.08,1393.38 1932.08,1398.48 C1932.08,1399.88 1932.28,1401.18 1932.98,1402.38 C1934.48,1405.08 1937.48,1406.78 1941.38,1407.18 C1941.98,1407.28 1942.48,1407.28 1943.08,1407.28 C1946.58,1407.28 1950.28,1406.28 1953.78,1404.38 C1960.38,1400.78 1964.58,1394.98 1964.58,1389.88 C1964.58,1388.48 1964.28,1387.08 1963.58,1385.88"/>
<path class="Note" d="M2101.25,1398.38 C2099.75,1395.68 2096.85,1393.98 2092.95,1393.58 C2092.35,1393.48 2091.85,1393.48 2091.25,1393.48 C2087.75,1393.48 2083.95,1394.48 2080.45,1396.38 C2073.85,1399.98 2069.75,1405.88 2069.75,1410.98 C2069.75,1412.38 2069.95,1413.68 2070.65,1414.88 C2072.15,1417.58 2075.15,1419.28 2079.05,1419.68 C2079.65,1419.78 2080.15,1419.78 2080.75,1419.78 C2084.25,1419.78 2087.95,1418.78 2091.45,1416.88 C2098.05,1413.28 2102.25,1407.48 2102.25,1402.38 C2102.25,1400.98 2101.95,1399.58 2101.25,1398.38"/>
<path class="Note" d="M2284.67,1410.88 C2283.17,1408.18 2280.27,1406.48 2276.37,1406.08 C2275.77,1405.98 2275.27,1405.98 2274.67,1405.98 C2271.17,1405.98 2267.37,1406.98 2263.87,1408.88 C2257.27,1412.48 2253.17,1418.38 2253.17,1423.48 C2253.17,1424.88 2253.37,1426.18 2254.07,1427.38 C2255.57,1430.08 2258.57,1431.78 2262.47,1432.18 C2263.07,1432.28 2263.57,1432.28 2264.17,1432.28 C2267.67,1432.28 2271.37,1431.28 2274.87,1429.38 C2281.47,1425.78 2285.67,1419.98 2285.67,1414.88 C2285.67,1413.48 2285.37,1412.08 2284.67,1410.88"/>
<path class="Note" d="M2447.14,1423.38 C2445.64,1420.68 2442.74,1418.98 2438.84,1418.58 C2438.24,1418.48 2437.74,1418.48 2437.14,1418.48 C2433.64,1418.48 2429.84,1419.48 2426.34,1421.38 C2419.74,1424.98 2415.64,1430.78 2415.64,1435.88 C2415.64,1437.28 2416.04,1438.68 2416.74,1439.88 C2418.24,1442.68 2421.04,1444.28 2424.94,1444.68 C2425.54,1444.78 2426.04,1444.78 2426.64,1444.78 C2430.14,1444.78 2433.94,1443.78 2437.44,1441.88 C2444.04,1438.28 2448.14,1432.38 2448.14,1427.28 C2448.14,1425.88 2447.84,1424.58 2447.14,1423.38 M2442.94,1429.68 C2441.24,1431.48 2438.04,1433.78 2434.44,1435.88 C2430.84,1437.98 2427.14,1439.68 2424.84,1440.38 C2424.34,1440.48 2423.74,1440.58 2423.24,1440.58 C2421.74,1440.58 2420.44,1439.88 2419.74,1438.78 C2419.44,1438.18 2419.24,1437.58 2419.24,1436.98 C2419.24,1435.88 2419.74,1434.78 2420.84,1433.58 C2422.54,1431.78 2425.74,1429.38 2429.34,1427.28 C2432.94,1425.18 2436.64,1423.48 2439.04,1422.88 L2439.24,1422.88 C2439.84,1422.68 2440.34,1422.58 2440.84,1422.58 C2442.24,1422.58 2443.34,1423.18 2444.04,1424.48 C2444.34,1425.08 2444.54,1425.58 2444.54,1426.18 C2444.54,1427.48 2443.84,1428.78 2442.94,1429.68"/>
<path class="Clef" d="M297,918.954 C289.4,918.954 283.3,923.354 283.2,923.354 C277.4,927.654 275.1,932.754 274.2,936.254 C273.7,938.054 273.5,939.854 273.5,941.554 C273.5,943.954 273.9,946.154 274.8,948.054 C276,950.754 278.3,952.654 281.3,953.654 C282.5,954.054 283.8,954.254 285.1,954.254 C287.3,954.254 289.6,953.654 291.5,952.554 C294.6,950.854 296.5,947.254 296.5,943.354 C296.5,939.854 294.7,936.654 291.7,934.754 C289.6,933.354 287.6,932.954 285.9,932.954 C284.7,932.954 283.6,933.154 282.7,933.454 C281.7,933.854 280,934.854 279.2,935.554 C279.5,933.654 280.7,930.754 281.8,929.154 C282.9,927.554 285.1,925.554 286.8,924.654 C289.3,923.254 292.5,922.654 296,922.654 C306.2,922.654 311.2,930.854 311.2,947.654 C311.2,956.954 307.7,965.854 304.7,971.754 C301.4,978.354 297,984.654 293.1,988.154 C282.7,997.654 272.9,1002.15 272.8,1002.15 C272.8,1002.15 271.3,1003.05 271.7,1004.55 C272,1005.55 272.9,1005.75 273.5,1005.75 C273.6,1005.75 273.9,1005.65 274,1005.65 C274.1,1005.65 285.5,1000.95 294.6,993.854 C299.7,990.154 304.3,986.154 308.3,981.854 C311.9,977.954 315,973.754 317.5,969.554 C321.9,962.054 324.4,954.254 324.4,947.554 C324.4,939.254 322.2,932.354 318.1,927.454 C313.4,921.854 306.3,918.954 297,918.954 M328.4,931.654 C328.4,934.454 330.6,936.654 333.2,936.654 C335.8,936.654 338,934.454 338,931.654 C338,928.854 335.8,926.554 333.2,926.554 C330.6,926.554 328.4,928.854 328.4,931.654 M328.4,956.354 C328.4,959.154 330.6,961.454 333.2,961.454 C335.8,961.454 338,959.154 338,956.354 C338,953.554 335.8,951.254 333.2,951.254 C330.6,951.254 328.4,953.554 328.4,956.354"/>
<path class="Clef" d="M2270.29,988.157 C2269.09,982.757 2266.39,978.857 2265.59,977.857 C2262.39,973.557 2258.39,970.757 2253.69,969.357 C2251.39,968.657 2249.29,968.457 2247.29,968.457 C2246.59,968.457 2245.89,968.457 2245.19,968.557 C2244.19,962.557 2243.09,956.657 2242.19,951.257 C2247.79,945.057 2251.49,939.157 2253.89,934.757 C2257.49,928.057 2258.89,923.357 2258.99,923.157 C2260.19,920.157 2260.89,916.357 2260.89,911.857 C2260.89,909.157 2260.59,906.257 2260.19,903.257 C2259.09,896.157 2256.89,889.457 2254.39,885.757 C2253.09,883.857 2251.89,882.757 2250.69,882.757 C2249.49,882.757 2246.99,883.957 2244.09,886.757 C2241.79,888.957 2238.49,892.857 2235.89,898.857 C2233.59,904.257 2232.89,911.157 2232.89,917.057 C2232.89,918.857 2232.99,920.557 2233.09,922.157 C2233.29,925.757 2233.99,931.557 2234.59,935.157 C2234.59,935.257 2234.89,936.757 2235.29,939.357 L2234.59,940.057 C2233.59,941.057 2232.39,942.157 2230.99,943.557 C2230.09,944.457 2229.19,945.257 2228.19,946.257 C2219.69,954.457 2206.89,966.857 2206.89,985.957 C2206.89,990.657 2207.79,995.057 2209.59,999.057 C2211.19,1002.66 2213.49,1005.96 2216.39,1008.86 C2223.89,1016.26 2234.09,1019.46 2241.19,1019.46 L2241.79,1019.46 C2244.69,1019.36 2247.39,1019.06 2249.79,1018.66 C2251.59,1028.26 2252.79,1035.36 2252.79,1040.66 C2252.79,1047.16 2251.19,1051.06 2247.29,1053.86 C2244.89,1055.56 2241.99,1056.66 2238.89,1056.76 L2238.09,1056.76 C2236.59,1056.76 2234.09,1056.36 2232.59,1055.96 C2232.59,1055.96 2232.29,1055.86 2232.29,1055.66 C2232.29,1055.46 2232.69,1055.46 2232.69,1055.46 C2234.59,1055.06 2238.19,1053.76 2240.59,1050.46 C2241.69,1048.96 2242.39,1046.66 2242.39,1044.16 C2242.39,1042.56 2242.09,1040.86 2241.39,1039.36 C2240.29,1036.96 2237.69,1033.96 2232.09,1033.56 L2230.99,1033.56 C2228.89,1033.56 2227.09,1034.06 2225.39,1035.06 C2223.59,1036.16 2221.99,1037.86 2220.99,1039.86 C2219.89,1041.86 2219.39,1044.06 2219.39,1046.26 C2219.39,1049.16 2220.29,1051.86 2222.09,1054.06 C2225.09,1057.66 2229.79,1059.96 2235.19,1060.56 C2235.89,1060.66 2236.99,1060.76 2237.69,1060.76 C2242.09,1060.76 2246.49,1059.56 2250.09,1057.36 C2253.79,1054.76 2255.89,1050.76 2256.59,1045.16 C2256.79,1043.86 2256.79,1042.46 2256.79,1040.96 C2256.79,1037.06 2256.29,1032.36 2255.29,1026.56 C2254.89,1024.46 2254.49,1021.46 2253.79,1017.66 C2259.59,1015.76 2263.69,1012.06 2267.49,1006.26 C2269.79,1002.26 2270.89,998.157 2270.89,993.857 C2270.89,991.957 2270.69,990.057 2270.29,988.157 M2240.09,910.257 C2241.89,904.557 2244.59,901.157 2246.59,899.457 C2248.39,897.957 2249.99,897.257 2250.89,897.257 C2250.99,897.257 2251.19,897.357 2251.29,897.357 C2251.59,897.457 2251.99,897.957 2252.39,898.657 C2253.29,900.457 2254.19,903.757 2254.19,907.457 C2254.19,909.357 2253.99,911.357 2253.39,913.157 C2251.19,919.957 2246.59,927.257 2239.59,934.957 C2239.39,933.857 2239.19,932.857 2239.09,931.857 C2238.59,928.657 2238.29,925.457 2238.29,922.557 C2238.29,918.057 2238.89,913.957 2240.09,910.257 M2236.09,1014.36 C2231.49,1013.16 2226.99,1010.66 2223.19,1007.16 C2221.89,1005.96 2220.09,1003.76 2218.59,1000.36 C2217.29,997.357 2216.59,994.257 2216.59,990.857 L2216.59,990.157 C2216.69,985.457 2217.99,980.657 2220.49,975.857 C2223.39,970.257 2227.89,964.757 2233.99,959.457 C2235.49,958.157 2236.89,956.857 2238.19,955.557 C2238.99,959.857 2239.69,964.557 2240.59,969.457 C2236.69,970.757 2231.99,973.757 2228.89,979.457 C2226.49,983.957 2225.79,987.857 2225.79,991.057 C2225.79,992.557 2225.99,993.957 2226.19,995.057 C2227.09,999.557 2229.69,1003.26 2233.19,1005.36 C2233.99,1005.86 2237.29,1007.56 2239.29,1007.56 C2239.59,1007.56 2239.89,1007.56 2240.09,1007.46 C2240.39,1007.36 2240.69,1007.16 2240.79,1006.86 C2240.89,1006.66 2240.89,1006.46 2240.89,1006.26 C2240.89,1005.46 2240.09,1004.86 2238.79,1004.06 C2238.19,1003.66 2237.49,1003.26 2236.79,1002.76 C2234.19,1000.76 2232.69,997.657 2232.69,994.257 C2232.69,993.257 2232.89,992.357 2233.09,991.357 C2233.59,989.357 2235.29,986.557 2236.79,985.157 C2238.49,983.657 2240.49,982.457 2242.89,981.857 C2244.89,993.057 2246.99,1004.16 2248.59,1012.56 C2248.69,1013.26 2248.89,1013.96 2248.99,1014.66 C2246.99,1015.06 2244.99,1015.26 2243.09,1015.26 C2240.69,1015.26 2238.39,1014.96 2236.09,1014.36 M2261.79,1004.16 C2260.59,1007.36 2258.09,1011.36 2252.99,1013.46 C2252.89,1013.06 2252.89,1012.56 2252.79,1012.16 C2251.29,1003.36 2249.39,992.457 2247.39,981.157 L2248.39,981.157 C2258.09,981.157 2261.99,988.357 2262.89,992.957 C2263.09,993.857 2263.19,995.057 2263.19,996.357 C2263.19,998.657 2262.79,1001.46 2261.79,1004.16"/>
<path class="Clef" d="M335,1600.7 C333.8,1595.3 331.1,1591.4 330.3,1590.4 C327.1,1586.1 323.1,1583.3 318.4,1581.9 C316.1,1581.2 314,1581 312,1581 C311.3,1581 310.6,1581 309.9,1581.1 C308.9,1575.1 307.8,1569.2 306.9,1563.8 C312.5,1557.6 316.2,1551.7 318.6,1547.3 C322.2,1540.6 323.6,1535.9 323.7,1535.7 C324.9,1532.7 325.6,1528.9 325.6,1524.4 C325.6,1521.7 325.3,1518.8 324.9,1515.8 C323.8,1508.7 321.6,1502 319.1,1498.3 C317.8,1496.4 316.6,1495.3 315.4,1495.3 C314.2,1495.3 311.7,1496.5 308.8,1499.3 C306.5,1501.5 303.2,1505.4 300.6,1511.4 C298.3,1516.8 297.6,1523.7 297.6,1529.6 C297.6,1531.4 297.7,1533.1 297.8,1534.7 C298,1538.3 298.7,1544.1 299.3,1547.7 C299.3,1547.8 299.6,1549.3 300,1551.9 L299.3,1552.6 C298.3,1553.6 297.1,1554.7 295.7,1556.1 C294.8,1557 293.9,1557.8 292.9,1558.8 C284.4,1567 271.6,1579.4 271.6,1598.5 C271.6,1603.2 272.5,1607.6 274.3,1611.6 C275.9,1615.2 278.2,1618.5 281.1,1621.4 C288.6,1628.8 298.8,1632 305.9,1632 L306.5,1632 C309.4,1631.9 312.1,1631.6 314.5,1631.2 C316.3,1640.8 317.5,1647.9 317.5,1653.2 C317.5,1659.7 315.9,1663.6 312,1666.4 C309.6,1668.1 306.7,1669.2 303.6,1669.3 L302.8,1669.3 C301.3,1669.3 298.8,1668.9 297.3,1668.5 C297.3,1668.5 297,1668.4 297,1668.2 C297,1668 297.4,1668 297.4,1668 C299.3,1667.6 302.9,1666.3 305.3,1663 C306.4,1661.5 307.1,1659.2 307.1,1656.7 C307.1,1655.1 306.8,1653.4 306.1,1651.9 C305,1649.5 302.4,1646.5 296.8,1646.1 L295.7,1646.1 C293.6,1646.1 291.8,1646.6 290.1,1647.6 C288.3,1648.7 286.7,1650.4 285.7,1652.4 C284.6,1654.4 284.1,1656.6 284.1,1658.8 C284.1,1661.7 285,1664.4 286.8,1666.6 C289.8,1670.2 294.5,1672.5 299.9,1673.1 C300.6,1673.2 301.7,1673.3 302.4,1673.3 C306.8,1673.3 311.2,1672.1 314.8,1669.9 C318.5,1667.3 320.6,1663.3 321.3,1657.7 C321.5,1656.4 321.5,1655 321.5,1653.5 C321.5,1649.6 321,1644.9 320,1639.1 C319.6,1637 319.2,1634 318.5,1630.2 C324.3,1628.3 328.4,1624.6 332.2,1618.8 C334.5,1614.8 335.6,1610.7 335.6,1606.4 C335.6,1604.5 335.4,1602.6 335,1600.7 M304.8,1522.8 C306.6,1517.1 309.3,1513.7 311.3,1512 C313.1,1510.5 314.7,1509.8 315.6,1509.8 C315.7,1509.8 315.9,1509.9 316,1509.9 C316.3,1510 316.7,1510.5 317.1,1511.2 C318,1513 318.9,1516.3 318.9,1520 C318.9,1521.9 318.7,1523.9 318.1,1525.7 C315.9,1532.5 311.3,1539.8 304.3,1547.5 C304.1,1546.4 303.9,1545.4 303.8,1544.4 C303.3,1541.2 303,1538 303,1535.1 C303,1530.6 303.6,1526.5 304.8,1522.8 M300.8,1626.9 C296.2,1625.7 291.7,1623.2 287.9,1619.7 C286.6,1618.5 284.8,1616.3 283.3,1612.9 C282,1609.9 281.3,1606.8 281.3,1603.4 L281.3,1602.7 C281.4,1598 282.7,1593.2 285.2,1588.4 C288.1,1582.8 292.6,1577.3 298.7,1572 C300.2,1570.7 301.6,1569.4 302.9,1568.1 C303.7,1572.4 304.4,1577.1 305.3,1582 C301.4,1583.3 296.7,1586.3 293.6,1592 C291.2,1596.5 290.5,1600.4 290.5,1603.6 C290.5,1605.1 290.7,1606.5 290.9,1607.6 C291.8,1612.1 294.4,1615.8 297.9,1617.9 C298.7,1618.4 302,1620.1 304,1620.1 C304.3,1620.1 304.6,1620.1 304.8,1620 C305.1,1619.9 305.4,1619.7 305.5,1619.4 C305.6,1619.2 305.6,1619 305.6,1618.8 C305.6,1618 304.8,1617.4 303.5,1616.6 C302.9,1616.2 302.2,1615.8 301.5,1615.3 C298.9,1613.3 297.4,1610.2 297.4,1606.8 C297.4,1605.8 297.6,1604.9 297.8,1603.9 C298.3,1601.9 300,1599.1 301.5,1597.7 C303.2,1596.2 305.2,1595 307.6,1594.4 C309.6,1605.6 311.7,1616.7 313.3,1625.1 C313.4,1625.8 313.6,1626.5 313.7,1627.2 C311.7,1627.6 309.7,1627.8 307.8,1627.8 C305.4,1627.8 303.1,1627.5 300.8,1626.9 M326.5,1616.7 C325.3,1619.9 322.8,1623.9 317.7,1626 C317.6,1625.6 317.6,1625.1 317.5,1624.7 C316,1615.9 314.1,1605 312.1,1593.7 L313.1,1593.7 C322.8,1593.7 326.7,1600.9 327.6,1605.5 C327.8,1606.4 327.9,1607.6 327.9,1608.9 C327.9,1611.2 327.5,1614 326.5,1616.7"/>
<path class="Clef" d="M1027.07,1531.49 C1019.47,1531.49 1013.37,1535.89 1013.27,1535.89 C1007.47,1540.19 1005.17,1545.29 1004.27,1548.79 C1003.77,1550.59 1003.57,1552.39 1003.57,1554.09 C1003.57,1556.49 1003.97,1558.69 1004.87,1560.59 C1006.07,1563.29 1008.37,1565.19 1011.37,1566.19 C1012.57,1566.59 1013.87,1566.79 1015.17,1566.79 C1017.37,1566.79 1019.67,1566.19 1021.57,1565.09 C1024.67,1563.39 1026.57,1559.79 1026.57,1555.89 C1026.57,1552.39 1024.77,1549.19 1021.77,1547.29 C1019.67,1545.89 1017.67,1545.49 1015.97,1545.49 C1014.77,1545.49 1013.67,1545.69 1012.77,1545.99 C1011.77,1546.39 1010.07,1547.39 1009.27,1548.09 C1009.57,1546.19 1010.77,1543.29 1011.87,1541.69 C1012.97,1540.09 1015.17,1538.09 1016.87,1537.19 C1019.37,1535.79 1022.57,1535.19 1026.07,1535.19 C1036.27,1535.19 1041.27,1543.39 1041.27,1560.19 C1041.27,1569.49 1037.77,1578.39 1034.77,1584.29 C1031.47,1590.89 1027.07,1597.19 1023.17,1600.69 C1012.77,1610.19 1002.97,1614.69 1002.87,1614.69 C1002.87,1614.69 1001.37,1615.59 1001.77,1617.09 C1002.07,1618.09 1002.97,1618.29 1003.57,1618.29 C1003.67,1618.29 1003.97,1618.19 1004.07,1618.19 C1004.17,1618.19 1015.57,1613.49 1024.67,1606.39 C1029.77,1602.69 1034.37,1598.69 1038.37,1594.39 C1041.97,1590.49 1045.07,1586.29 1047.57,1582.09 C1051.97,1574.59 1054.47,1566.79 1054.47,1560.09 C1054.47,1551.79 1052.27,1544.89 1048.17,1539.99 C1043.47,1534.39 1036.37,1531.49 1027.07,1531.49 M1058.47,1544.19 C1058.47,1546.99 1060.67,1549.19 1063.27,1549.19 C1065.87,1549.19 1068.07,1546.99 1068.07,1544.19 C1068.07,1541.39 1065.87,1539.09 1063.27,1539.09 C1060.67,1539.09 1058.47,1541.39 1058.47,1544.19 M1058.47,1568.89 C1058.47,1571.69 1060.67,1573.99 1063.27,1573.99 C1065.87,1573.99 1068.07,1571.69 1068.07,1568.89 C1068.07,1566.09 1065.87,1563.79 1063.27,1563.79 C1060.67,1563.79 1058.47,1566.09 1058.47,1568.89"/>
<path class="Clef" d="M335,725.641 C333.8,720.241 331.1,716.341 330.3,715.341 C327.1,711.041 323.1,708.241 318.4,706.841 C316.1,706.141 314,705.941 312,705.941 C311.3,705.941 310.6,705.941 309.9,706.041 C308.9,700.041 307.8,694.141 306.9,688.741 C312.5,682.541 316.2,676.641 318.6,672.241 C322.2,665.541 323.6,660.841 323.7,660.641 C324.9,657.641 325.6,653.841 325.6,649.341 C325.6,646.641 325.3,643.741 324.9,640.741 C323.8,633.641 321.6,626.941 319.1,623.241 C317.8,621.341 316.6,620.241 315.4,620.241 C314.2,620.241 311.7,621.441 308.8,624.241 C306.5,626.441 303.2,630.341 300.6,636.341 C298.3,641.741 297.6,648.641 297.6,654.541 C297.6,656.341 297.7,658.041 297.8,659.641 C298,663.241 298.7,669.041 299.3,672.641 C299.3,672.741 299.6,674.241 300,676.841 L299.3,677.541 C298.3,678.541 297.1,679.641 295.7,681.041 C294.8,681.941 293.9,682.741 292.9,683.741 C284.4,691.941 271.6,704.341 271.6,723.441 C271.6,728.141 272.5,732.541 274.3,736.541 C275.9,740.141 278.2,743.441 281.1,746.341 C288.6,753.741 298.8,756.941 305.9,756.941 L306.5,756.941 C309.4,756.841 312.1,756.541 314.5,756.141 C316.3,765.741 317.5,772.841 317.5,778.141 C317.5,784.641 315.9,788.541 312,791.341 C309.6,793.041 306.7,794.141 303.6,794.241 L302.8,794.241 C301.3,794.241 298.8,793.841 297.3,793.441 C297.3,793.441 297,793.341 297,793.141 C297,792.941 297.4,792.941 297.4,792.941 C299.3,792.541 302.9,791.241 305.3,787.941 C306.4,786.441 307.1,784.141 307.1,781.641 C307.1,780.041 306.8,778.341 306.1,776.841 C305,774.441 302.4,771.441 296.8,771.041 L295.7,771.041 C293.6,771.041 291.8,771.541 290.1,772.541 C288.3,773.641 286.7,775.341 285.7,777.341 C284.6,779.341 284.1,781.541 284.1,783.741 C284.1,786.641 285,789.341 286.8,791.541 C289.8,795.141 294.5,797.441 299.9,798.041 C300.6,798.141 301.7,798.241 302.4,798.241 C306.8,798.241 311.2,797.041 314.8,794.841 C318.5,792.241 320.6,788.241 321.3,782.641 C321.5,781.341 321.5,779.941 321.5,778.441 C321.5,774.541 321,769.841 320,764.041 C319.6,761.941 319.2,758.941 318.5,755.141 C324.3,753.241 328.4,749.541 332.2,743.741 C334.5,739.741 335.6,735.641 335.6,731.341 C335.6,729.441 335.4,727.541 335,725.641 M304.8,647.741 C306.6,642.041 309.3,638.641 311.3,636.941 C313.1,635.441 314.7,634.741 315.6,634.741 C315.7,634.741 315.9,634.841 316,634.841 C316.3,634.941 316.7,635.441 317.1,636.141 C318,637.941 318.9,641.241 318.9,644.941 C318.9,646.841 318.7,648.841 318.1,650.641 C315.9,657.441 311.3,664.741 304.3,672.441 C304.1,671.341 303.9,670.341 303.8,669.341 C303.3,666.141 303,662.941 303,660.041 C303,655.541 303.6,651.441 304.8,647.741 M300.8,751.841 C296.2,750.641 291.7,748.141 287.9,744.641 C286.6,743.441 284.8,741.241 283.3,737.841 C282,734.841 281.3,731.741 281.3,728.341 L281.3,727.641 C281.4,722.941 282.7,718.141 285.2,713.341 C288.1,707.741 292.6,702.241 298.7,696.941 C300.2,695.641 301.6,694.341 302.9,693.041 C303.7,697.341 304.4,702.041 305.3,706.941 C301.4,708.241 296.7,711.241 293.6,716.941 C291.2,721.441 290.5,725.341 290.5,728.541 C290.5,730.041 290.7,731.441 290.9,732.541 C291.8,737.041 294.4,740.741 297.9,742.841 C298.7,743.341 302,745.041 304,745.041 C304.3,745.041 304.6,745.041 304.8,744.941 C305.1,744.841 305.4,744.641 305.5,744.341 C305.6,744.141 305.6,743.941 305.6,743.741 C305.6,742.941 304.8,742.341 303.5,741.541 C302.9,741.141 302.2,740.741 301.5,740.241 C298.9,738.241 297.4,735.141 297.4,731.741 C297.4,730.741 297.6,729.841 297.8,728.841 C298.3,726.841 300,724.041 301.5,722.641 C303.2,721.141 305.2,719.941 307.6,719.341 C309.6,730.541 311.7,741.641 313.3,750.041 C313.4,750.741 313.6,751.441 313.7,752.141 C311.7,752.541 309.7,752.741 307.8,752.741 C305.4,752.741 303.1,752.441 300.8,751.841 M326.5,741.641 C325.3,744.841 322.8,748.841 317.7,750.941 C317.6,750.541 317.6,750.041 317.5,749.641 C316,740.841 314.1,729.941 312.1,718.641 L313.1,718.641 C322.8,718.641 326.7,725.841 327.6,730.441 C327.8,731.341 327.9,732.541 327.9,733.841 C327.9,736.141 327.5,738.941 326.5,741.641"/>
<path class="Clef" d="M335,1338.18 C333.8,1332.78 331.1,1328.88 330.3,1327.88 C327.1,1323.58 323.1,1320.78 318.4,1319.38 C316.1,1318.68 314,1318.48 312,1318.48 C311.3,1318.48 310.6,1318.48 309.9,1318.58 C308.9,1312.58 307.8,1306.68 306.9,1301.28 C312.5,1295.08 316.2,1289.18 318.6,1284.78 C322.2,1278.08 323.6,1273.38 323.7,1273.18 C324.9,1270.18 325.6,1266.38 325.6,1261.88 C325.6,1259.18 325.3,1256.28 324.9,1253.28 C323.8,1246.18 321.6,1239.48 319.1,1235.78 C317.8,1233.88 316.6,1232.78 315.4,1232.78 C314.2,1232.78 311.7,1233.98 308.8,1236.78 C306.5,1238.98 303.2,1242.88 300.6,1248.88 C298.3,1254.28 297.6,1261.18 297.6,1267.08 C297.6,1268.88 297.7,1270.58 297.8,1272.18 C298,1275.78 298.7,1281.58 299.3,1285.18 C299.3,1285.28 299.6,1286.78 300,1289.38 L299.3,1290.08 C298.3,1291.08 297.1,1292.18 295.7,1293.58 C294.8,1294.48 293.9,1295.28 292.9,1296.28 C284.4,1304.48 271.6,1316.88 271.6,1335.98 C271.6,1340.68 272.5,1345.08 274.3,1349.08 C275.9,1352.68 278.2,1355.98 281.1,1358.88 C288.6,1366.28 298.8,1369.48 305.9,1369.48 L306.5,1369.48 C309.4,1369.38 312.1,1369.08 314.5,1368.68 C316.3,1378.28 317.5,1385.38 317.5,1390.68 C317.5,1397.18 315.9,1401.08 312,1403.88 C309.6,1405.58 306.7,1406.68 303.6,1406.78 L302.8,1406.78 C301.3,1406.78 298.8,1406.38 297.3,1405.98 C297.3,1405.98 297,1405.88 297,1405.68 C297,1405.48 297.4,1405.48 297.4,1405.48 C299.3,1405.08 302.9,1403.78 305.3,1400.48 C306.4,1398.98 307.1,1396.68 307.1,1394.18 C307.1,1392.58 306.8,1390.88 306.1,1389.38 C305,1386.98 302.4,1383.98 296.8,1383.58 L295.7,1383.58 C293.6,1383.58 291.8,1384.08 290.1,1385.08 C288.3,1386.18 286.7,1387.88 285.7,1389.88 C284.6,1391.88 284.1,1394.08 284.1,1396.28 C284.1,1399.18 285,1401.88 286.8,1404.08 C289.8,1407.68 294.5,1409.98 299.9,1410.58 C300.6,1410.68 301.7,1410.78 302.4,1410.78 C306.8,1410.78 311.2,1409.58 314.8,1407.38 C318.5,1404.78 320.6,1400.78 321.3,1395.18 C321.5,1393.88 321.5,1392.48 321.5,1390.98 C321.5,1387.08 321,1382.38 320,1376.58 C319.6,1374.48 319.2,1371.48 318.5,1367.68 C324.3,1365.78 328.4,1362.08 332.2,1356.28 C334.5,1352.28 335.6,1348.18 335.6,1343.88 C335.6,1341.98 335.4,1340.08 335,1338.18 M304.8,1260.28 C306.6,1254.58 309.3,1251.18 311.3,1249.48 C313.1,1247.98 314.7,1247.28 315.6,1247.28 C315.7,1247.28 315.9,1247.38 316,1247.38 C316.3,1247.48 316.7,1247.98 317.1,1248.68 C318,1250.48 318.9,1253.78 318.9,1257.48 C318.9,1259.38 318.7,1261.38 318.1,1263.18 C315.9,1269.98 311.3,1277.28 304.3,1284.98 C304.1,1283.88 303.9,1282.88 303.8,1281.88 C303.3,1278.68 303,1275.48 303,1272.58 C303,1268.08 303.6,1263.98 304.8,1260.28 M300.8,1364.38 C296.2,1363.18 291.7,1360.68 287.9,1357.18 C286.6,1355.98 284.8,1353.78 283.3,1350.38 C282,1347.38 281.3,1344.28 281.3,1340.88 L281.3,1340.18 C281.4,1335.48 282.7,1330.68 285.2,1325.88 C288.1,1320.28 292.6,1314.78 298.7,1309.48 C300.2,1308.18 301.6,1306.88 302.9,1305.58 C303.7,1309.88 304.4,1314.58 305.3,1319.48 C301.4,1320.78 296.7,1323.78 293.6,1329.48 C291.2,1333.98 290.5,1337.88 290.5,1341.08 C290.5,1342.58 290.7,1343.98 290.9,1345.08 C291.8,1349.58 294.4,1353.28 297.9,1355.38 C298.7,1355.88 302,1357.58 304,1357.58 C304.3,1357.58 304.6,1357.58 304.8,1357.48 C305.1,1357.38 305.4,1357.18 305.5,1356.88 C305.6,1356.68 305.6,1356.48 305.6,1356.28 C305.6,1355.48 304.8,1354.88 303.5,1354.08 C302.9,1353.68 302.2,1353.28 301.5,1352.78 C298.9,1350.78 297.4,1347.68 297.4,1344.28 C297.4,1343.28 297.6,1342.38 297.8,1341.38 C298.3,1339.38 300,1336.58 301.5,1335.18 C303.2,1333.68 305.2,1332.48 307.6,1331.88 C309.6,1343.08 311.7,1354.18 313.3,1362.58 C313.4,1363.28 313.6,1363.98 313.7,1364.68 C311.7,1365.08 309.7,1365.28 307.8,1365.28 C305.4,1365.28 303.1,1364.98 300.8,1364.38 M326.5,1354.18 C325.3,1357.38 322.8,1361.38 317.7,1363.48 C317.6,1363.08 317.6,1362.58 317.5,1362.18 C316,1353.38 314.1,1342.48 312.1,1331.18 L313.1,1331.18 C322.8,1331.18 326.7,1338.38 327.6,1342.98 C327.8,1343.88 327.9,1345.08 327.9,1346.38 C327.9,1348.68 327.5,1351.48 326.5,1354.18"/>
<path class="KeySig" d="M386.304,933.454 C386.904,933.354 387.404,932.654 387.404,932.054 L387.404,926.154 C387.404,925.354 386.804,924.754 386.004,924.754 L385.804,924.754 L382.504,925.454 L382.504,910.554 L379.704,910.554 L379.704,926.054 L370.804,927.854 L370.804,913.754 L368.004,913.754 L368.004,928.454 L364.104,929.254 C363.504,929.354 363.004,930.054 363.004,930.654 L363.004,930.854 L363.004,936.654 L363.004,936.454 C363.004,937.254 363.604,937.854 364.404,937.854 L364.704,937.854 L368.004,937.154 L368.004,953.654 L364.104,954.454 C363.504,954.554 363.004,955.254 363.004,955.854 L363.004,961.654 C363.004,962.454 363.604,963.054 364.404,963.054 L364.704,963.054 L368.004,962.354 L368.004,977.254 L370.804,977.254 L370.804,961.754 L379.704,959.954 L379.704,974.054 L382.504,974.054 L382.504,959.354 L386.304,958.654 C386.904,958.554 387.404,957.854 387.404,957.254 L387.404,951.354 C387.404,950.554 386.804,949.954 386.004,949.954 L385.804,949.954 L382.504,950.654 L382.504,934.154 L386.304,933.454 M370.804,953.154 L370.804,936.554 L379.704,934.754 L379.704,951.254 L370.804,953.154 "/>
<path class="KeySig" d="M383.898,1520.99 C384.498,1520.89 384.998,1520.19 384.998,1519.59 L384.998,1513.69 C384.998,1512.89 384.398,1512.29 383.598,1512.29 L383.398,1512.29 L380.098,1512.99 L380.098,1498.09 L377.298,1498.09 L377.298,1513.59 L368.398,1515.39 L368.398,1501.29 L365.598,1501.29 L365.598,1515.99 L361.698,1516.79 C361.098,1516.89 360.598,1517.59 360.598,1518.19 L360.598,1518.39 L360.598,1524.19 L360.598,1523.99 C360.598,1524.79 361.198,1525.39 361.998,1525.39 L362.298,1525.39 L365.598,1524.69 L365.598,1541.19 L361.698,1541.99 C361.098,1542.09 360.598,1542.79 360.598,1543.39 L360.598,1549.19 C360.598,1549.99 361.198,1550.59 361.998,1550.59 L362.298,1550.59 L365.598,1549.89 L365.598,1564.79 L368.398,1564.79 L368.398,1549.29 L377.298,1547.49 L377.298,1561.59 L380.098,1561.59 L380.098,1546.89 L383.898,1546.19 C384.498,1546.09 384.998,1545.39 384.998,1544.79 L384.998,1538.89 C384.998,1538.09 384.398,1537.49 383.598,1537.49 L383.398,1537.49 L380.098,1538.19 L380.098,1521.69 L383.898,1520.99 M368.398,1540.69 L368.398,1524.09 L377.298,1522.29 L377.298,1538.79 L368.398,1540.69 "/>
<path class="KeySig" d="M386.304,645.936 C386.904,645.836 387.404,645.136 387.404,644.536 L387.404,638.636 C387.404,637.836 386.804,637.236 386.004,637.236 L385.804,637.236 L382.504,637.936 L382.504,623.036 L379.704,623.036 L379.704,638.536 L370.804,640.336 L370.804,626.236 L368.004,626.236 L368.004,640.936 L364.104,641.736 C363.504,641.836 363.004,642.536 363.004,643.136 L363.004,643.336 L363.004,649.136 L363.004,648.936 C363.004,649.736 363.604,650.336 364.404,650.336 L364.704,650.336 L368.004,649.636 L368.004,666.136 L364.104,666.936 C363.504,667.036 363.004,667.736 363.004,668.336 L363.004,674.136 C363.004,674.936 363.604,675.536 364.404,675.536 L364.704,675.536 L368.004,674.836 L368.004,689.736 L370.804,689.736 L370.804,674.236 L379.704,672.436 L379.704,686.536 L382.504,686.536 L382.504,671.836 L386.304,671.136 C386.904,671.036 387.404,670.336 387.404,669.736 L387.404,663.836 C387.404,663.036 386.804,662.436 386.004,662.436 L385.804,662.436 L382.504,663.136 L382.504,646.636 L386.304,645.936 M370.804,665.636 L370.804,649.036 L379.704,647.236 L379.704,663.736 L370.804,665.636 "/>
<path class="KeySig" d="M383.898,1258.47 C384.498,1258.37 384.998,1257.67 384.998,1257.07 L384.998,1251.17 C384.998,1250.37 384.398,1249.77 383.598,1249.77 L383.398,1249.77 L380.098,1250.47 L380.098,1235.57 L377.298,1235.57 L377.298,1251.07 L368.398,1252.87 L368.398,1238.77 L365.598,1238.77 L365.598,1253.47 L361.698,1254.27 C361.098,1254.37 360.598,1255.07 360.598,1255.67 L360.598,1255.87 L360.598,1261.67 L360.598,1261.47 C360.598,1262.27 361.198,1262.87 361.998,1262.87 L362.298,1262.87 L365.598,1262.17 L365.598,1278.67 L361.698,1279.47 C361.098,1279.57 360.598,1280.27 360.598,1280.87 L360.598,1286.67 C360.598,1287.47 361.198,1288.07 361.998,1288.07 L362.298,1288.07 L365.598,1287.37 L365.598,1302.27 L368.398,1302.27 L368.398,1286.77 L377.298,1284.97 L377.298,1299.07 L380.098,1299.07 L380.098,1284.37 L383.898,1283.67 C384.498,1283.57 384.998,1282.87 384.998,1282.27 L384.998,1276.37 C384.998,1275.57 384.398,1274.97 383.598,1274.97 L383.398,1274.97 L380.098,1275.67 L380.098,1259.17 L383.898,1258.47 M368.398,1278.17 L368.398,1261.57 L377.298,1259.77 L377.298,1276.27 L368.398,1278.17 "/>
<path class="TimeSig" d="M414.602,957.453 L431.402,957.453 L431.402,964.753 L423.302,964.753 C422.502,964.753 421.902,965.353 421.902,966.153 L421.902,968.053 C421.902,968.853 422.502,969.353 423.302,969.353 L453.002,969.353 C453.802,969.353 454.402,968.853 454.402,968.053 L454.402,966.153 C454.402,965.353 453.802,964.753 453.002,964.753 L444.202,964.753 L444.202,957.453 L453.002,957.453 C453.802,957.453 454.402,956.853 454.402,956.053 L454.402,954.253 C454.402,953.453 453.802,952.853 453.002,952.853 L444.202,952.853 L444.202,937.153 C444.202,936.653 443.802,936.153 443.402,935.953 L442.302,935.353 C442.102,935.253 441.802,935.253 441.602,935.253 C441.302,935.253 440.902,935.353 440.702,935.553 L431.802,943.753 C431.602,943.953 431.402,944.453 431.402,944.753 L431.402,952.853 L420.102,952.853 C420.102,952.853 431.002,941.053 442.602,925.553 C443.402,924.453 443.002,923.453 442.802,923.253 L440.702,921.053 C440.502,920.853 440.002,920.653 439.702,920.653 L425.102,920.653 C424.402,920.653 423.902,921.253 423.802,921.853 C423.802,921.853 423.302,929.053 420.702,937.053 C418.102,945.053 415.302,949.853 412.702,953.453 C412.702,953.453 412.202,954.453 412.502,955.153 C412.802,955.853 413.502,956.953 413.502,956.953 C413.502,956.953 413.802,957.453 414.602,957.453"/>
<path class="TimeSig" d="M414.602,1006.06 L431.402,1006.06 L431.402,1013.36 L423.302,1013.36 C422.502,1013.36 421.902,1013.96 421.902,1014.76 L421.902,1016.66 C421.902,1017.46 422.502,1017.96 423.302,1017.96 L453.002,1017.96 C453.802,1017.96 454.402,1017.46 454.402,1016.66 L454.402,1014.76 C454.402,1013.96 453.802,1013.36 453.002,1013.36 L444.202,1013.36 L444.202,1006.06 L453.002,1006.06 C453.802,1006.06 454.402,1005.46 454.402,1004.66 L454.402,1002.86 C454.402,1002.06 453.802,1001.46 453.002,1001.46 L444.202,1001.46 L444.202,985.758 C444.202,985.258 443.802,984.758 443.402,984.558 L442.302,983.958 C442.102,983.858 441.802,983.858 441.602,983.858 C441.302,983.858 440.902,983.958 440.702,984.158 L431.802,992.358 C431.602,992.558 431.402,993.058 431.402,993.358 L431.402,1001.46 L420.102,1001.46 C420.102,1001.46 431.002,989.658 442.602,974.158 C443.402,973.058 443.002,972.058 442.802,971.858 L440.702,969.658 C440.502,969.458 440.002,969.258 439.702,969.258 L425.102,969.258 C424.402,969.258 423.902,969.858 423.802,970.458 C423.802,970.458 423.302,977.658 420.702,985.658 C418.102,993.658 415.302,998.458 412.702,1002.06 C412.702,1002.06 412.202,1003.06 412.502,1003.76 C412.802,1004.46 413.502,1005.56 413.502,1005.56 C413.502,1005.56 413.802,1006.06 414.602,1006.06"/>
<path class="TimeSig" d="M414.602,694.937 L431.402,694.937 L431.402,702.237 L423.302,702.237 C422.502,702.237 421.902,702.837 421.902,703.637 L421.902,705.537 C421.902,706.337 422.502,706.837 423.302,706.837 L453.002,706.837 C453.802,706.837 454.402,706.337 454.402,705.537 L454.402,703.637 C454.402,702.837 453.802,702.237 453.002,702.237 L444.202,702.237 L444.202,694.937 L453.002,694.937 C453.802,694.937 454.402,694.337 454.402,693.537 L454.402,691.737 C454.402,690.937 453.802,690.337 453.002,690.337 L444.202,690.337 L444.202,674.637 C444.202,674.137 443.802,673.637 443.402,673.437 L442.302,672.837 C442.102,672.737 441.802,672.737 441.602,672.737 C441.302,672.737 440.902,672.837 440.702,673.037 L431.802,681.237 C431.602,681.437 431.402,681.937 431.402,682.237 L431.402,690.337 L420.102,690.337 C420.102,690.337 431.002,678.537 442.602,663.037 C443.402,661.937 443.002,660.937 442.802,660.737 L440.702,658.537 C440.502,658.337 440.002,658.137 439.702,658.137 L425.102,658.137 C424.402,658.137 423.902,658.737 423.802,659.337 C423.802,659.337 423.302,666.537 420.702,674.537 C418.102,682.537 415.302,687.337 412.702,690.937 C412.702,690.937 412.202,691.937 412.502,692.637 C412.802,693.337 413.502,694.437 413.502,694.437 C413.502,694.437 413.802,694.937 414.602,694.937"/>
<path class="TimeSig" d="M414.602,743.541 L431.402,743.541 L431.402,750.841 L423.302,750.841 C422.502,750.841 421.902,751.441 421.902,752.241 L421.902,754.141 C421.902,754.941 422.502,755.441 423.302,755.441 L453.002,755.441 C453.802,755.441 454.402,754.941 454.402,754.141 L454.402,752.241 C454.402,751.441 453.802,750.841 453.002,750.841 L444.202,750.841 L444.202,743.541 L453.002,743.541 C453.802,743.541 454.402,742.941 454.402,742.141 L454.402,740.341 C454.402,739.541 453.802,738.941 453.002,738.941 L444.202,738.941 L444.202,723.241 C444.202,722.741 443.802,722.241 443.402,722.041 L442.302,721.441 C442.102,721.341 441.802,721.341 441.602,721.341 C441.302,721.341 440.902,721.441 440.702,721.641 L431.802,729.841 C431.602,730.041 431.402,730.541 431.402,730.841 L431.402,738.941 L420.102,738.941 C420.102,738.941 431.002,727.141 442.602,711.641 C443.402,710.541 443.002,709.541 442.802,709.341 L440.702,707.141 C440.502,706.941 440.002,706.741 439.702,706.741 L425.102,706.741 C424.402,706.741 423.902,707.341 423.802,707.941 C423.802,707.941 423.302,715.141 420.702,723.141 C418.102,731.141 415.302,735.941 412.702,739.541 C412.702,739.541 412.202,740.541 412.502,741.241 C412.802,741.941 413.502,743.041 413.502,743.041 C413.502,743.041 413.802,743.541 414.602,743.541"/>
<path class="NoteDot" d="M2460.64,1619.1 C2460.64,1621.69 2462.74,1623.8 2465.34,1623.8 C2467.93,1623.8 2470.04,1621.69 2470.04,1619.1 C2470.04,1616.5 2467.93,1614.4 2465.34,1614.4 C2462.74,1614.4 2460.64,1616.5 2460.64,1619.1"/>
<path class="NoteDot" d="M2460.64,1431.58 C2460.64,1434.18 2462.74,1436.28 2465.34,1436.28 C2467.93,1436.28 2470.04,1434.18 2470.04,1431.58 C2470.04,1428.99 2467.93,1426.88 2465.34,1426.88 C2462.74,1426.88 2460.64,1428.99 2460.64,1431.58"/>
<path class="Page" d="M233.756,4057.02 L231.776,4057.02 L231.326,4059.31 C230.741,4062.24 230.381,4062.51 227.591,4062.51 L217.511,4062.51 C220.616,4059.27 221.651,4058.32 224.531,4056.07 C228.626,4052.92 230.381,4051.35 231.416,4050 C232.856,4048.02 233.576,4046.04 233.576,4043.83 C233.576,4038.7 229.346,4035.06 223.451,4035.06 C217.736,4035.06 213.371,4038.7 213.371,4043.52 C213.371,4046.35 214.811,4048.29 216.926,4048.29 C218.591,4048.29 219.716,4047.16 219.716,4045.54 C219.716,4044.42 219.086,4043.38 218.141,4042.98 C216.476,4042.3 216.386,4042.21 216.386,4041.63 C216.386,4040.95 216.836,4039.92 217.466,4039.15 C218.591,4037.76 220.436,4036.99 222.551,4036.99 C226.286,4036.99 228.491,4039.29 228.491,4043.07 C228.491,4046.4 226.916,4049.41 223.181,4053.37 C219.851,4056.88 217.781,4059.09 217.016,4059.94 C215.396,4061.83 214.586,4062.87 212.606,4065.48 L212.606,4066.74 L232.901,4066.74 L233.756,4057.02 "/>
<path class="Bracket" transform="matrix(3.62523,0,0,3.62523,214.469,1019.06)" d="M0.92002,-50 C2.69004,-51.88 6.2,-55.8 6.2,-63 C6.2,-72.1 2.25996,-81.32 2.25996,-86.97 C2.25996,-93.06 5.84004,-98.84 5.95,-99 C6.05996,-99.16 6.05,-99.39 5.94004,-99.46 C5.82998,-99.53 5.62002,-99.47 5.49004,-99.32 C5.35996,-99.17 0,-93.75 0,-85.6 C0,-76.75 3.5,-70.58 3.5,-59.07 C3.5,-56.89 2.55996,-53.36 0.1,-50.33 C-0.0799805,-50.17 -0.1,-49.89 0.0599609,-49.7 L0.0700195,-49.69 L0.1,-49.66 C2.55996,-46.63 3.5,-43.1 3.5,-40.92 C3.5,-29.4 0,-23.24 0,-14.39 C0,-6.25 5.35996,-0.8 5.49004,-0.659961 C5.62002,-0.52002 5.8,-0.42998 5.94004,-0.52002 C6.07998,-0.609961 6.07998,-0.77998 5.95,-0.97998 C5.82002,-1.17998 2.25996,-6.92002 2.25996,-13.01 C2.25996,-18.66 6.2,-27.9 6.2,-37 C6.2,-44.3 2.69004,-48.12 0.92002,-50"/>
<path class="Bracket" transform="matrix(3.62523,0,0,3.62523,214.469,1631.6)" d="M0.92002,-50 C2.69004,-51.88 6.2,-55.8 6.2,-63 C6.2,-72.1 2.25996,-81.32 2.25996,-86.97 C2.25996,-93.06 5.84004,-98.84 5.95,-99 C6.05996,-99.16 6.05,-99.39 5.94004,-99.46 C5.82998,-99.53 5.62002,-99.47 5.49004,-99.32 C5.35996,-99.17 0,-93.75 0,-85.6 C0,-76.75 3.5,-70.58 3.5,-59.07 C3.5,-56.89 2.55996,-53.36 0.1,-50.33 C-0.0799805,-50.17 -0.1,-49.89 0.0599609,-49.7 L0.0700195,-49.69 L0.1,-49.66 C2.55996,-46.63 3.5,-43.1 3.5,-40.92 C3.5,-29.4 0,-23.24 0,-14.39 C0,-6.25 5.35996,-0.8 5.49004,-0.659961 C5.62002,-0.52002 5.8,-0.42998 5.94004,-0.52002 C6.07998,-0.609961 6.07998,-0.77998 5.95,-0.97998 C5.82002,-1.17998 2.25996,-6.92002 2.25996,-13.01 C2.25996,-18.66 6.2,-27.9 6.2,-37 C6.2,-44.3 2.69004,-48.12 0.92002,-50"/>
</svg>