<?xml version="1.0" encoding="UTF-8" standalone="no"?>
<svg width="1000px" height="500px" viewBox="150 650 2700 1000" xmlns="http://www.w3.org/2000/svg" xmlns:xlink="http://www.w3.org/1999/xlink" version="1.2" baseProfile="tiny">
 xmlns="http://www.w3.org/2000/svg" xmlns:xlink="http://www.w3.org/1999/xlink" version="1.2" baseProfile="tiny">
<title>exercises_scores (1)</title>
<desc>Generated by MuseScore 3.6.0</desc>
<polyline class="StaffLines" fill="none" stroke="#000000" stroke-width="2.75" stroke-linejoin="bevel" points="247.099,656.536 2764.63,656.536"/>
<polyline class="StaffLines" fill="none" stroke="#000000" stroke-width="2.75" stroke-linejoin="bevel" points="247.099,681.538 2764.63,681.538"/>
<polyline class="StaffLines" fill="none" stroke="#000000" stroke-width="2.75" stroke-linejoin="bevel" points="247.099,706.539 2764.63,706.539"/>
<polyline class="StaffLines" fill="none" stroke="#000000" stroke-width="2.75" stroke-linejoin="bevel" points="247.099,731.541 2764.63,731.541"/>
<polyline class="StaffLines" fill="none" stroke="#000000" stroke-width="2.75" stroke-linejoin="bevel" points="247.099,756.542 2764.63,756.542"/>
<polyline class="StaffLines" fill="none" stroke="#000000" stroke-width="2.75" stroke-linejoin="bevel" points="247.099,919.053 2764.63,919.053"/>
<polyline class="StaffLines" fill="none" stroke="#000000" stroke-width="2.75" stroke-linejoin="bevel" points="247.099,944.054 2764.63,944.054"/>
<polyline class="StaffLines" fill="none" stroke="#000000" stroke-width="2.75" stroke-linejoin="bevel" points="247.099,969.056 2764.63,969.056"/>
<polyline class="StaffLines" fill="none" stroke="#000000" stroke-width="2.75" stroke-linejoin="bevel" points="247.099,994.057 2764.63,994.057"/>
<polyline class="StaffLines" fill="none" stroke="#000000" stroke-width="2.75" stroke-linejoin="bevel" points="247.099,1019.06 2764.63,1019.06"/>
<polyline class="StaffLines" fill="none" stroke="#000000" stroke-width="2.75" stroke-linejoin="bevel" points="247.099,1269.07 2764.63,1269.07"/>
<polyline class="StaffLines" fill="none" stroke="#000000" stroke-width="2.75" stroke-linejoin="bevel" points="247.099,1294.08 2764.63,1294.08"/>
<polyline class="StaffLines" fill="none" stroke="#000000" stroke-width="2.75" stroke-linejoin="bevel" points="247.099,1319.08 2764.63,1319.08"/>
<polyline class="StaffLines" fill="none" stroke="#000000" stroke-width="2.75" stroke-linejoin="bevel" points="247.099,1344.08 2764.63,1344.08"/>
<polyline class="StaffLines" fill="none" stroke="#000000" stroke-width="2.75" stroke-linejoin="bevel" points="247.099,1369.08 2764.63,1369.08"/>
<polyline class="StaffLines" fill="none" stroke="#000000" stroke-width="2.75" stroke-linejoin="bevel" points="247.099,1531.59 2764.63,1531.59"/>
<polyline class="StaffLines" fill="none" stroke="#000000" stroke-width="2.75" stroke-linejoin="bevel" points="247.099,1556.59 2764.63,1556.59"/>
<polyline class="StaffLines" fill="none" stroke="#000000" stroke-width="2.75" stroke-linejoin="bevel" points="247.099,1581.59 2764.63,1581.59"/>
<polyline class="StaffLines" fill="none" stroke="#000000" stroke-width="2.75" stroke-linejoin="bevel" points="247.099,1606.6 2764.63,1606.6"/>
<polyline class="StaffLines" fill="none" stroke="#000000" stroke-width="2.75" stroke-linejoin="bevel" points="247.099,1631.6 2764.63,1631.6"/>
<path class="Text" d="M242.312,213.137 L240.092,213.137 L237.692,216.737 C234.812,214.037 231.032,212.597 226.772,212.597 C218.852,212.597 213.632,217.577 213.632,225.137 C213.632,231.677 216.872,234.917 225.692,237.197 L231.392,238.637 C235.832,239.777 236.252,239.897 237.512,240.857 C239.312,242.237 240.272,244.217 240.272,246.557 C240.272,248.957 239.372,250.937 237.572,252.617 C235.592,254.297 233.612,254.957 230.312,254.957 C225.872,254.957 222.692,253.577 219.872,250.457 C217.352,247.697 216.092,244.817 215.192,240.197 L212.612,240.197 L212.852,257.297 L215.192,257.297 L217.892,253.217 C221.912,256.517 225.212,257.717 230.492,257.717 C239.312,257.717 244.952,252.557 244.952,244.517 C244.952,240.737 243.752,237.617 241.352,235.337 C239.732,233.777 237.392,232.757 232.592,231.557 L226.172,229.937 C220.832,228.557 218.312,226.217 218.312,222.557 C218.312,218.357 221.732,215.477 226.832,215.477 C231.032,215.477 234.452,217.277 236.852,220.697 C238.592,223.157 239.732,225.677 240.452,228.737 L243.032,228.737 L242.312,213.137 M271.162,247.997 C269.242,252.317 267.202,254.057 264.082,254.057 C259.282,254.057 256.282,249.677 256.282,242.657 C256.282,235.337 259.222,230.537 263.662,230.537 C265.462,230.537 267.022,231.377 267.022,232.337 C267.022,232.517 266.962,232.697 266.662,233.057 C265.702,234.197 265.462,234.797 265.462,235.817 C265.462,237.797 266.962,239.177 269.062,239.177 C271.222,239.177 272.722,237.497 272.722,235.097 C272.722,231.017 268.702,227.957 263.362,227.957 C255.562,227.957 249.982,234.317 249.982,243.317 C249.982,251.837 255.082,257.717 262.522,257.717 C267.862,257.717 270.922,255.257 273.502,248.897 L271.162,247.997 M301.75,237.497 C301.75,233.717 301.09,231.797 299.35,230.357 C297.37,228.737 294.43,227.957 290.59,227.957 C283.81,227.957 278.89,231.137 278.89,235.517 C278.89,237.737 280.27,239.177 282.37,239.177 C284.29,239.177 285.61,237.917 285.61,236.117 C285.61,235.337 285.31,234.497 284.71,233.657 C284.35,233.237 284.29,233.117 284.29,232.817 C284.29,231.617 286.69,230.537 289.57,230.537 C291.49,230.537 293.59,231.137 294.55,232.037 C295.69,232.997 296.11,234.437 296.11,237.137 L296.11,239.477 C289.87,240.557 287.89,241.037 284.95,242.177 C279.73,244.097 277.27,246.857 277.27,250.697 C277.27,255.017 280.63,257.717 285.97,257.717 C290.11,257.717 293.83,256.037 296.41,252.977 C297.37,256.037 298.87,257.237 301.69,257.237 C304.39,257.237 307.21,255.497 307.21,253.757 C307.21,253.337 306.97,253.037 306.61,253.037 C306.37,253.037 306.13,253.097 305.71,253.277 C304.87,253.637 304.51,253.697 304.03,253.697 C302.35,253.697 301.75,252.617 301.75,249.557 L301.75,237.497 M296.11,244.817 C296.11,248.417 295.93,249.257 294.91,250.817 C293.41,253.037 290.71,254.537 288.07,254.537 C285.31,254.537 283.33,252.557 283.33,249.857 C283.33,247.337 284.59,245.537 287.23,244.277 C289.09,243.437 291.43,242.837 296.11,242.057 L296.11,244.817 M320.229,212.597 L309.129,213.257 L309.129,215.837 L312.069,215.837 C314.289,215.897 314.589,216.257 314.589,218.837 L314.589,249.437 L314.589,252.257 C314.529,253.157 314.469,253.517 314.229,253.817 C313.809,254.357 312.669,254.597 310.089,254.657 L309.669,254.657 L309.669,256.817 L325.209,256.817 L325.209,254.657 L324.789,254.657 C320.769,254.537 320.229,254.237 320.229,252.077 L320.229,249.437 L320.229,212.597 M354.78,243.317 C354.84,234.317 349.74,227.957 342.42,227.957 C334.74,227.957 328.98,234.617 328.98,243.617 C328.98,252.077 334.44,257.717 342.54,257.717 C348.3,257.717 352.32,254.897 354.78,249.197 L352.68,248.057 C350.22,252.677 347.7,254.477 343.68,254.477 C340.62,254.477 338.4,253.217 336.84,250.517 C335.76,248.717 335.28,246.617 335.34,243.317 L354.78,243.317 M335.4,240.737 C335.4,238.877 335.64,237.557 336.24,235.877 C337.5,232.277 339.42,230.537 342.36,230.537 C345.96,230.537 348.36,233.717 348.36,238.577 C348.36,240.257 347.82,240.737 345.9,240.737 L335.4,240.737 M366.601,250.157 C364.501,250.157 362.821,251.837 362.821,253.877 C362.821,255.977 364.501,257.657 366.541,257.657 C368.641,257.657 370.321,255.977 370.321,253.877 C370.321,251.837 368.641,250.157 366.601,250.157 M366.601,228.437 C364.501,228.437 362.821,230.117 362.821,232.217 C362.821,234.257 364.501,235.937 366.541,235.937 C368.641,235.937 370.321,234.257 370.321,232.157 C370.321,230.117 368.641,228.437 366.601,228.437 M429.345,213.077 L427.065,213.077 L424.665,216.617 C420.285,213.437 418.065,212.597 413.925,212.597 C408.225,212.597 403.365,214.997 399.345,219.797 C395.505,224.357 393.705,229.397 393.705,235.577 C393.705,248.537 402.165,257.717 413.985,257.717 C423.585,257.717 429.705,252.077 431.085,241.997 L428.265,241.517 C426.645,250.457 422.085,254.897 414.705,254.897 C405.825,254.897 401.625,248.777 401.625,235.817 C401.625,228.977 402.525,224.477 404.565,220.877 C406.425,217.517 410.085,215.417 413.985,215.417 C418.185,215.417 421.905,217.637 424.185,221.477 C425.325,223.457 426.165,225.677 427.605,230.417 L430.245,230.417 L429.345,213.077 M463.049,228.857 L452.369,229.517 L452.369,232.097 L454.829,232.097 C457.109,232.157 457.409,232.517 457.409,235.097 L457.409,249.437 L457.409,251.777 L457.409,252.257 C457.349,253.157 457.289,253.517 457.049,253.817 C456.629,254.357 455.489,254.597 452.909,254.657 L452.669,254.657 L452.669,256.817 L467.789,256.817 L467.789,254.657 L467.549,254.657 C463.589,254.537 463.049,254.237 463.049,252.017 L463.049,249.437 L463.049,240.917 C463.049,235.577 465.989,231.617 469.889,231.617 C473.309,231.617 475.049,234.077 475.049,238.937 L475.049,249.437 L475.049,252.317 C474.989,253.097 474.929,253.517 474.629,253.817 C474.269,254.357 473.069,254.597 470.489,254.657 L470.249,254.657 L470.249,256.817 L485.429,256.817 L485.429,254.657 L485.189,254.657 C481.229,254.537 480.689,254.237 480.689,252.077 L480.689,249.437 L480.689,241.457 C480.689,235.457 483.389,231.617 487.589,231.617 C491.009,231.617 492.689,234.197 492.689,239.597 L492.689,249.437 L492.689,252.257 C492.629,253.097 492.569,253.517 492.269,253.817 C491.909,254.357 490.709,254.597 488.129,254.657 L487.889,254.657 L487.889,256.817 L503.069,256.817 L503.069,254.657 L502.829,254.657 C498.869,254.537 498.329,254.237 498.329,252.017 L498.329,249.437 L498.329,238.397 C498.329,234.677 497.969,233.417 496.409,231.377 C494.669,229.157 492.209,227.957 489.329,227.957 C485.429,227.957 482.549,229.817 479.969,233.957 C478.949,230.357 475.709,227.957 471.689,227.957 C468.029,227.957 465.389,229.697 463.049,233.477 L463.049,228.857 M531.437,237.497 C531.437,233.717 530.777,231.797 529.037,230.357 C527.057,228.737 524.117,227.957 520.277,227.957 C513.497,227.957 508.577,231.137 508.577,235.517 C508.577,237.737 509.957,239.177 512.057,239.177 C513.977,239.177 515.297,237.917 515.297,236.117 C515.297,235.337 514.997,234.497 514.397,233.657 C514.037,233.237 513.977,233.117 513.977,232.817 C513.977,231.617 516.377,230.537 519.257,230.537 C521.177,230.537 523.277,231.137 524.237,232.037 C525.377,232.997 525.797,234.437 525.797,237.137 L525.797,239.477 C519.557,240.557 517.577,241.037 514.637,242.177 C509.417,244.097 506.957,246.857 506.957,250.697 C506.957,255.017 510.317,257.717 515.657,257.717 C519.797,257.717 523.517,256.037 526.097,252.977 C527.057,256.037 528.557,257.237 531.377,257.237 C534.077,257.237 536.897,255.497 536.897,253.757 C536.897,253.337 536.657,253.037 536.297,253.037 C536.057,253.037 535.817,253.097 535.397,253.277 C534.557,253.637 534.197,253.697 533.717,253.697 C532.037,253.697 531.437,252.617 531.437,249.557 L531.437,237.497 M525.797,244.817 C525.797,248.417 525.617,249.257 524.597,250.817 C523.097,253.037 520.397,254.537 517.757,254.537 C514.997,254.537 513.017,252.557 513.017,249.857 C513.017,247.337 514.277,245.537 516.917,244.277 C518.777,243.437 521.117,242.837 525.797,242.057 L525.797,244.817 M548.362,228.857 L536.662,229.517 L536.662,232.097 L540.142,232.097 C542.422,232.157 542.722,232.517 542.722,235.097 L542.722,255.437 C542.722,260.297 542.422,262.577 541.582,264.317 C540.982,265.517 539.602,266.417 538.282,266.417 C537.442,266.417 536.782,266.057 536.782,265.637 C536.782,265.397 536.842,265.277 537.082,264.677 C537.382,264.077 537.502,263.657 537.502,263.237 C537.502,261.737 536.062,260.417 534.382,260.417 C532.462,260.417 531.022,261.917 531.022,264.017 C531.022,266.957 533.722,268.937 537.742,268.937 C541.102,268.937 544.162,267.497 545.902,265.037 C547.762,262.397 548.362,259.337 548.362,252.557 L548.362,228.857 M545.542,213.917 C543.622,213.917 542.062,215.477 542.062,217.397 C542.062,219.317 543.622,220.877 545.482,220.877 C547.462,220.877 549.022,219.317 549.022,217.397 C549.022,215.477 547.462,213.917 545.542,213.917 M568.812,227.957 C561.432,227.957 555.732,234.497 555.732,242.897 C555.732,251.117 561.492,257.717 568.692,257.717 C575.892,257.717 581.652,251.117 581.652,242.837 C581.652,234.617 575.892,227.957 568.812,227.957 M568.812,230.537 C573.012,230.537 575.352,234.917 575.352,242.837 C575.352,250.817 573.012,255.137 568.692,255.137 C564.372,255.137 562.032,250.817 562.032,242.897 C562.032,234.737 564.312,230.537 568.812,230.537 M595.572,228.857 L584.952,229.517 L584.952,232.097 L587.412,232.097 C589.692,232.157 589.992,232.517 589.992,235.097 L589.992,249.437 L589.992,252.257 C589.932,253.157 589.872,253.517 589.632,253.817 C589.212,254.357 588.012,254.597 585.432,254.657 L585.192,254.657 L585.192,256.817 L601.212,256.817 L601.212,254.657 L600.132,254.657 C596.112,254.537 595.572,254.237 595.572,252.077 L595.572,249.437 L595.572,248.837 C595.632,238.757 599.232,231.077 603.912,230.837 C603.072,231.797 602.832,232.397 602.832,233.537 C602.832,235.457 604.212,236.837 606.132,236.837 C608.352,236.837 609.792,235.217 609.792,232.817 C609.792,229.877 607.752,227.957 604.572,227.957 C600.792,227.957 597.552,230.957 595.572,236.297 L595.572,228.857 "/>
<polyline class="BarLine" fill="none" stroke="#000000" stroke-width="4.50" stroke-linejoin="bevel" points="249.349,917.677 249.349,1020.43"/>
<polyline class="BarLine" fill="none" stroke="#000000" stroke-width="4.50" stroke-linejoin="bevel" points="1012.66,917.677 1012.66,1020.43"/>
<polyline class="BarLine" fill="none" stroke="#000000" stroke-width="4.50" stroke-linejoin="bevel" points="1608.81,917.677 1608.81,1020.43"/>
<polyline class="BarLine" fill="none" stroke="#000000" stroke-width="4.50" stroke-linejoin="bevel" points="2181.97,917.677 2181.97,1020.43"/>
<polyline class="BarLine" fill="none" stroke="#000000" stroke-width="4.50" stroke-linejoin="bevel" points="2762.38,917.677 2762.38,1020.43"/>
<polyline class="BarLine" fill="none" stroke="#000000" stroke-width="4.50" stroke-linejoin="bevel" points="249.349,1530.22 249.349,1632.97"/>
<polyline class="BarLine" fill="none" stroke="#000000" stroke-width="4.50" stroke-linejoin="bevel" points="987.971,1530.22 987.971,1632.97"/>
<polyline class="BarLine" fill="none" stroke="#000000" stroke-width="4.50" stroke-linejoin="bevel" points="1616.34,1530.22 1616.34,1632.97"/>
<polyline class="BarLine" fill="none" stroke="#000000" stroke-width="4.50" stroke-linejoin="bevel" points="2200.72,1530.22 2200.72,1632.97"/>
<polyline class="BarLine" fill="none" stroke="#000000" stroke-width="4.50" stroke-linejoin="bevel" points="2734.88,1530.22 2734.88,1632.97"/>
<polyline class="BarLine" fill="none" stroke="#000000" stroke-width="13.75" stroke-linejoin="bevel" points="2757.76,1530.22 2757.76,1632.97"/>
<polyline class="BarLine" fill="none" stroke="#000000" stroke-width="4.50" stroke-linejoin="bevel" points="249.349,655.161 249.349,919.053"/>
<polyline class="BarLine" fill="none" stroke="#000000" stroke-width="4.50" stroke-linejoin="bevel" points="1012.66,655.161 1012.66,919.053"/>
<polyline class="BarLine" fill="none" stroke="#000000" stroke-width="4.50" stroke-linejoin="bevel" points="1608.81,655.161 1608.81,919.053"/>
<polyline class="BarLine" fill="none" stroke="#000000" stroke-width="4.50" stroke-linejoin="bevel" points="2181.97,655.161 2181.97,919.053"/>
<polyline class="BarLine" fill="none" stroke="#000000" stroke-width="4.50" stroke-linejoin="bevel" points="2762.38,655.161 2762.38,919.053"/>
<polyline class="BarLine" fill="none" stroke="#000000" stroke-width="4.50" stroke-linejoin="bevel" points="249.349,1267.7 249.349,1531.59"/>
<polyline class="BarLine" fill="none" stroke="#000000" stroke-width="4.50" stroke-linejoin="bevel" points="987.971,1267.7 987.971,1531.59"/>
<polyline class="BarLine" fill="none" stroke="#000000" stroke-width="4.50" stroke-linejoin="bevel" points="1616.34,1267.7 1616.34,1531.59"/>
<polyline class="BarLine" fill="none" stroke="#000000" stroke-width="4.50" stroke-linejoin="bevel" points="2200.72,1267.7 2200.72,1531.59"/>
<polyline class="BarLine" fill="none" stroke="#000000" stroke-width="4.50" stroke-linejoin="bevel" points="2734.88,1267.7 2734.88,1531.59"/>
<polyline class="BarLine" fill="none" stroke="#000000" stroke-width="13.75" stroke-linejoin="bevel" points="2757.76,1267.7 2757.76,1531.59"/>
<polyline class="LedgerLine" fill="none" stroke="#000000" stroke-width="4.00" stroke-linejoin="bevel" points="1448.65,894.051 1498.64,894.051"/>
<polyline class="LedgerLine" fill="none" stroke="#000000" stroke-width="4.00" stroke-linejoin="bevel" points="1303.41,1656.6 1353.4,1656.6"/>
<polyline class="LedgerLine" fill="none" stroke="#000000" stroke-width="4.00" stroke-linejoin="bevel" points="1448.13,1656.6 1498.12,1656.6"/>
<polyline class="LedgerLine" fill="none" stroke="#000000" stroke-width="4.00" stroke-linejoin="bevel" points="455.002,781.544 504.998,781.544"/>
<polyline class="LedgerLine" fill="none" stroke="#000000" stroke-width="4.00" stroke-linejoin="bevel" points="2216.72,631.534 2266.71,631.534"/>
<polyline class="LedgerLine" fill="none" stroke="#000000" stroke-width="4.00" stroke-linejoin="bevel" points="2365.24,631.534 2415.23,631.534"/>
<polyline class="LedgerLine" fill="none" stroke="#000000" stroke-width="4.00" stroke-linejoin="bevel" points="2513.75,631.534 2563.75,631.534"/>
<polyline class="LedgerLine" fill="none" stroke="#000000" stroke-width="4.00" stroke-linejoin="bevel" points="2513.75,606.533 2563.75,606.533"/>
<polyline class="LedgerLine" fill="none" stroke="#000000" stroke-width="4.00" stroke-linejoin="bevel" points="398.1,1244.07 448.096,1244.07"/>
<polyline class="LedgerLine" fill="none" stroke="#000000" stroke-width="4.00" stroke-linejoin="bevel" points="542.818,1244.07 592.813,1244.07"/>
<polyline class="LedgerLine" fill="none" stroke="#000000" stroke-width="4.00" stroke-linejoin="bevel" points="2395.19,1394.08 2445.19,1394.08"/>
<polyline class="Stem" fill="none" stroke="#000000" stroke-width="2.75" stroke-linejoin="bevel" points="494.872,978.196 494.872,900.301"/>
<polyline class="Stem" fill="none" stroke="#000000" stroke-width="2.75" stroke-linejoin="bevel" points="601.791,972.576 601.791,1047.19"/>
<polyline class="Stem" fill="none" stroke="#000000" stroke-width="2.75" stroke-linejoin="bevel" points="738.454,960.075 738.454,1037.81"/>
<polyline class="Stem" fill="none" stroke="#000000" stroke-width="2.75" stroke-linejoin="bevel" points="875.118,947.574 875.118,1028.43"/>
<polyline class="Stem" fill="none" stroke="#000000" stroke-width="2.75" stroke-linejoin="bevel" points="1048.78,935.074 1048.78,1019.06"/>
<polyline class="Stem" fill="none" stroke="#000000" stroke-width="2.75" stroke-linejoin="bevel" points="1185.45,922.573 1185.45,1006.56"/>
<polyline class="Stem" fill="none" stroke="#000000" stroke-width="2.75" stroke-linejoin="bevel" points="1322.11,910.072 1322.11,994.057"/>
<polyline class="Stem" fill="none" stroke="#000000" stroke-width="2.75" stroke-linejoin="bevel" points="1458.77,897.571 1458.77,981.556"/>
<polyline class="Stem" fill="none" stroke="#000000" stroke-width="2.75" stroke-linejoin="bevel" points="1674.68,1028.2 1674.68,944.054"/>
<polyline class="Stem" fill="none" stroke="#000000" stroke-width="2.75" stroke-linejoin="bevel" points="1808.72,1015.7 1808.72,931.553"/>
<polyline class="Stem" fill="none" stroke="#000000" stroke-width="2.75" stroke-linejoin="bevel" points="1942.76,1003.2 1942.76,919.053"/>
<polyline class="Stem" fill="none" stroke="#000000" stroke-width="2.75" stroke-linejoin="bevel" points="2076.8,990.697 2076.8,909.677"/>
<polyline class="Stem" fill="none" stroke="#000000" stroke-width="2.75" stroke-linejoin="bevel" points="2256.59,978.196 2256.59,900.301"/>
<polyline class="Stem" fill="none" stroke="#000000" stroke-width="2.75" stroke-linejoin="bevel" points="2375.36,972.576 2375.36,1047.19"/>
<polyline class="Stem" fill="none" stroke="#000000" stroke-width="2.75" stroke-linejoin="bevel" points="2523.88,959.995 2523.88,1037.81"/>
<polyline class="Stem" fill="none" stroke="#000000" stroke-width="2.75" stroke-linejoin="bevel" points="408.226,1585.11 408.226,1659.72"/>
<polyline class="Stem" fill="none" stroke="#000000" stroke-width="2.75" stroke-linejoin="bevel" points="582.688,1590.73 582.688,1512.84"/>
<polyline class="Stem" fill="none" stroke="#000000" stroke-width="2.75" stroke-linejoin="bevel" points="727.405,1603.24 727.405,1522.22"/>
<polyline class="Stem" fill="none" stroke="#000000" stroke-width="2.75" stroke-linejoin="bevel" points="872.123,1615.74 872.123,1531.59"/>
<polyline class="Stem" fill="none" stroke="#000000" stroke-width="2.75" stroke-linejoin="bevel" points="1053.84,1628.24 1053.84,1544.09"/>
<polyline class="Stem" fill="none" stroke="#000000" stroke-width="2.75" stroke-linejoin="bevel" points="1198.56,1640.74 1198.56,1556.59"/>
<polyline class="Stem" fill="none" stroke="#000000" stroke-width="2.75" stroke-linejoin="bevel" points="1343.28,1653.24 1343.28,1569.09"/>
<polyline class="Stem" fill="none" stroke="#000000" stroke-width="2.75" stroke-linejoin="bevel" points="1488,1665.74 1488,1581.59"/>
<polyline class="Stem" fill="none" stroke="#000000" stroke-width="2.75" stroke-linejoin="bevel" points="1652.47,1535.11 1652.47,1619.1"/>
<polyline class="Stem" fill="none" stroke="#000000" stroke-width="2.75" stroke-linejoin="bevel" points="1789.31,1547.61 1789.31,1631.6"/>
<polyline class="Stem" fill="none" stroke="#000000" stroke-width="2.75" stroke-linejoin="bevel" points="1926.16,1560.11 1926.16,1640.97"/>
<polyline class="Stem" fill="none" stroke="#000000" stroke-width="2.75" stroke-linejoin="bevel" points="2063,1572.61 2063,1650.35"/>
<polyline class="Stem" fill="none" stroke="#000000" stroke-width="2.75" stroke-linejoin="bevel" points="2236.84,1585.11 2236.84,1659.72"/>
<polyline class="Stem" fill="none" stroke="#000000" stroke-width="2.75" stroke-linejoin="bevel" points="2435.06,1590.65 2435.06,1512.84"/>
<polyline class="Stem" fill="none" stroke="#000000" stroke-width="2.75" stroke-linejoin="bevel" points="494.872,778.184 494.872,694.038"/>
<polyline class="Stem" fill="none" stroke="#000000" stroke-width="2.75" stroke-linejoin="bevel" points="631.535,765.683 631.535,681.538"/>
<polyline class="Stem" fill="none" stroke="#000000" stroke-width="2.75" stroke-linejoin="bevel" points="768.198,753.182 768.198,669.037"/>
<polyline class="Stem" fill="none" stroke="#000000" stroke-width="2.75" stroke-linejoin="bevel" points="904.862,740.681 904.862,656.536"/>
<polyline class="Stem" fill="none" stroke="#000000" stroke-width="2.75" stroke-linejoin="bevel" points="1078.53,728.181 1078.53,647.16"/>
<polyline class="Stem" fill="none" stroke="#000000" stroke-width="2.75" stroke-linejoin="bevel" points="1215.19,715.68 1215.19,637.785"/>
<polyline class="Stem" fill="none" stroke="#000000" stroke-width="2.75" stroke-linejoin="bevel" points="1322.11,710.059 1322.11,784.669"/>
<polyline class="Stem" fill="none" stroke="#000000" stroke-width="2.75" stroke-linejoin="bevel" points="1458.77,697.559 1458.77,775.293"/>
<polyline class="Stem" fill="none" stroke="#000000" stroke-width="2.75" stroke-linejoin="bevel" points="1644.94,685.058 1644.94,765.918"/>
<polyline class="Stem" fill="none" stroke="#000000" stroke-width="2.75" stroke-linejoin="bevel" points="1778.98,672.557 1778.98,756.542"/>
<polyline class="Stem" fill="none" stroke="#000000" stroke-width="2.75" stroke-linejoin="bevel" points="1913.02,660.056 1913.02,744.042"/>
<polyline class="Stem" fill="none" stroke="#000000" stroke-width="2.75" stroke-linejoin="bevel" points="2047.05,647.555 2047.05,731.541"/>
<polyline class="Stem" fill="none" stroke="#000000" stroke-width="2.75" stroke-linejoin="bevel" points="2226.84,635.055 2226.84,719.04"/>
<polyline class="Stem" fill="none" stroke="#000000" stroke-width="2.75" stroke-linejoin="bevel" points="2375.36,622.554 2375.36,706.539"/>
<polyline class="Stem" fill="none" stroke="#000000" stroke-width="2.75" stroke-linejoin="bevel" points="2523.88,609.973 2523.88,706.539"/>
<polyline class="Stem" fill="none" stroke="#000000" stroke-width="2.75" stroke-linejoin="bevel" points="408.226,1235.09 408.226,1319.08"/>
<polyline class="Stem" fill="none" stroke="#000000" stroke-width="2.75" stroke-linejoin="bevel" points="552.943,1247.59 552.943,1331.58"/>
<polyline class="Stem" fill="none" stroke="#000000" stroke-width="2.75" stroke-linejoin="bevel" points="697.661,1260.09 697.661,1344.08"/>
<polyline class="Stem" fill="none" stroke="#000000" stroke-width="2.75" stroke-linejoin="bevel" points="842.379,1272.59 842.379,1356.58"/>
<polyline class="Stem" fill="none" stroke="#000000" stroke-width="2.75" stroke-linejoin="bevel" points="1024.1,1285.1 1024.1,1369.08"/>
<polyline class="Stem" fill="none" stroke="#000000" stroke-width="2.75" stroke-linejoin="bevel" points="1168.82,1297.6 1168.82,1378.46"/>
<polyline class="Stem" fill="none" stroke="#000000" stroke-width="2.75" stroke-linejoin="bevel" points="1313.53,1310.1 1313.53,1387.83"/>
<polyline class="Stem" fill="none" stroke="#000000" stroke-width="2.75" stroke-linejoin="bevel" points="1458.25,1322.6 1458.25,1397.21"/>
<polyline class="Stem" fill="none" stroke="#000000" stroke-width="2.75" stroke-linejoin="bevel" points="1682.22,1328.22 1682.22,1250.32"/>
<polyline class="Stem" fill="none" stroke="#000000" stroke-width="2.75" stroke-linejoin="bevel" points="1819.06,1340.72 1819.06,1259.7"/>
<polyline class="Stem" fill="none" stroke="#000000" stroke-width="2.75" stroke-linejoin="bevel" points="1955.9,1353.22 1955.9,1269.07"/>
<polyline class="Stem" fill="none" stroke="#000000" stroke-width="2.75" stroke-linejoin="bevel" points="2092.74,1365.72 2092.74,1281.58"/>
<polyline class="Stem" fill="none" stroke="#000000" stroke-width="2.75" stroke-linejoin="bevel" points="2266.59,1378.22 2266.59,1294.08"/>
<polyline class="Stem" fill="none" stroke="#000000" stroke-width="2.75" stroke-linejoin="bevel" points="2435.06,1390.64 2435.06,1306.58"/>
<path class="Note" d="M495.253,973.356 C493.753,970.656 490.853,968.956 486.953,968.556 C486.353,968.456 485.853,968.456 485.253,968.456 C481.753,968.456 477.953,969.456 474.453,971.356 C467.853,974.956 463.753,980.856 463.753,985.956 C463.753,987.356 463.953,988.656 464.653,989.856 C466.153,992.556 469.153,994.256 473.053,994.656 C473.653,994.756 474.153,994.756 474.753,994.756 C478.253,994.756 481.953,993.756 485.453,991.856 C492.053,988.256 496.253,982.456 496.253,977.356 C496.253,975.956 495.953,974.556 495.253,973.356"/>
<path class="Note" d="M631.916,960.856 C630.416,958.156 627.516,956.456 623.616,956.056 C623.016,955.956 622.516,955.956 621.916,955.956 C618.416,955.956 614.616,956.956 611.116,958.856 C604.516,962.456 600.416,968.356 600.416,973.456 C600.416,974.856 600.616,976.156 601.316,977.356 C602.816,980.056 605.816,981.756 609.716,982.156 C610.316,982.256 610.816,982.256 611.416,982.256 C614.916,982.256 618.616,981.256 622.116,979.356 C628.716,975.756 632.916,969.956 632.916,964.856 C632.916,963.456 632.616,962.056 631.916,960.856"/>
<path class="Note" d="M768.579,948.355 C767.079,945.655 764.179,943.955 760.279,943.555 C759.679,943.455 759.179,943.455 758.579,943.455 C755.079,943.455 751.279,944.455 747.779,946.355 C741.179,949.955 737.079,955.855 737.079,960.955 C737.079,962.355 737.279,963.655 737.979,964.855 C739.479,967.555 742.479,969.255 746.379,969.655 C746.979,969.755 747.479,969.755 748.079,969.755 C751.579,969.755 755.279,968.755 758.779,966.855 C765.379,963.255 769.579,957.455 769.579,952.355 C769.579,950.955 769.279,949.555 768.579,948.355"/>
<path class="Note" d="M905.243,935.854 C903.743,933.154 900.843,931.454 896.943,931.054 C896.343,930.954 895.843,930.954 895.243,930.954 C891.743,930.954 887.943,931.954 884.443,933.854 C877.843,937.454 873.743,943.354 873.743,948.454 C873.743,949.854 873.943,951.154 874.643,952.354 C876.143,955.054 879.143,956.754 883.043,957.154 C883.643,957.254 884.143,957.254 884.743,957.254 C888.243,957.254 891.943,956.254 895.443,954.354 C902.043,950.754 906.243,944.954 906.243,939.854 C906.243,938.454 905.943,937.054 905.243,935.854"/>
<path class="Note" d="M1078.91,923.353 C1077.41,920.653 1074.51,918.953 1070.61,918.553 C1070.01,918.453 1069.51,918.453 1068.91,918.453 C1065.41,918.453 1061.61,919.453 1058.11,921.353 C1051.51,924.953 1047.41,930.853 1047.41,935.953 C1047.41,937.353 1047.61,938.653 1048.31,939.853 C1049.81,942.553 1052.81,944.253 1056.71,944.653 C1057.31,944.753 1057.81,944.753 1058.41,944.753 C1061.91,944.753 1065.61,943.753 1069.11,941.853 C1075.71,938.253 1079.91,932.453 1079.91,927.353 C1079.91,925.953 1079.61,924.553 1078.91,923.353"/>
<path class="Note" d="M1215.57,910.853 C1214.07,908.153 1211.17,906.453 1207.27,906.053 C1206.67,905.953 1206.17,905.953 1205.57,905.953 C1202.07,905.953 1198.27,906.953 1194.77,908.853 C1188.17,912.453 1184.07,918.353 1184.07,923.453 C1184.07,924.853 1184.27,926.153 1184.97,927.353 C1186.47,930.053 1189.47,931.753 1193.37,932.153 C1193.97,932.253 1194.47,932.253 1195.07,932.253 C1198.57,932.253 1202.27,931.253 1205.77,929.353 C1212.37,925.753 1216.57,919.953 1216.57,914.853 C1216.57,913.453 1216.27,912.053 1215.57,910.853"/>
<path class="Note" d="M1352.23,898.352 C1350.73,895.652 1347.83,893.952 1343.93,893.552 C1343.33,893.452 1342.83,893.452 1342.23,893.452 C1338.73,893.452 1334.93,894.452 1331.43,896.352 C1324.83,899.952 1320.73,905.852 1320.73,910.952 C1320.73,912.352 1320.93,913.652 1321.63,914.852 C1323.13,917.552 1326.13,919.252 1330.03,919.652 C1330.63,919.752 1331.13,919.752 1331.73,919.752 C1335.23,919.752 1338.93,918.752 1342.43,916.852 C1349.03,913.252 1353.23,907.452 1353.23,902.352 C1353.23,900.952 1352.93,899.552 1352.23,898.352"/>
<path class="Note" d="M1488.9,885.851 C1487.4,883.151 1484.5,881.451 1480.6,881.051 C1480,880.951 1479.5,880.951 1478.9,880.951 C1475.4,880.951 1471.6,881.951 1468.1,883.851 C1461.5,887.451 1457.4,893.351 1457.4,898.451 C1457.4,899.851 1457.6,901.151 1458.3,902.351 C1459.8,905.051 1462.8,906.751 1466.7,907.151 C1467.3,907.251 1467.8,907.251 1468.4,907.251 C1471.9,907.251 1475.6,906.251 1479.1,904.351 C1485.7,900.751 1489.9,894.951 1489.9,889.851 C1489.9,888.451 1489.6,887.051 1488.9,885.851"/>
<path class="Note" d="M1675.06,1023.36 C1673.56,1020.66 1670.66,1018.96 1666.76,1018.56 C1666.16,1018.46 1665.66,1018.46 1665.06,1018.46 C1661.56,1018.46 1657.76,1019.46 1654.26,1021.36 C1647.66,1024.96 1643.56,1030.86 1643.56,1035.96 C1643.56,1037.36 1643.76,1038.66 1644.46,1039.86 C1645.96,1042.56 1648.96,1044.26 1652.86,1044.66 C1653.46,1044.76 1653.96,1044.76 1654.56,1044.76 C1658.06,1044.76 1661.76,1043.76 1665.26,1041.86 C1671.86,1038.26 1676.06,1032.46 1676.06,1027.36 C1676.06,1025.96 1675.76,1024.56 1675.06,1023.36"/>
<path class="Note" d="M1809.1,1010.86 C1807.6,1008.16 1804.7,1006.46 1800.8,1006.06 C1800.2,1005.96 1799.7,1005.96 1799.1,1005.96 C1795.6,1005.96 1791.8,1006.96 1788.3,1008.86 C1781.7,1012.46 1777.6,1018.36 1777.6,1023.46 C1777.6,1024.86 1777.8,1026.16 1778.5,1027.36 C1780,1030.06 1783,1031.76 1786.9,1032.16 C1787.5,1032.26 1788,1032.26 1788.6,1032.26 C1792.1,1032.26 1795.8,1031.26 1799.3,1029.36 C1805.9,1025.76 1810.1,1019.96 1810.1,1014.86 C1810.1,1013.46 1809.8,1012.06 1809.1,1010.86"/>
<path class="Note" d="M1943.14,998.358 C1941.64,995.658 1938.74,993.958 1934.84,993.558 C1934.24,993.458 1933.74,993.458 1933.14,993.458 C1929.64,993.458 1925.84,994.458 1922.34,996.358 C1915.74,999.958 1911.64,1005.86 1911.64,1010.96 C1911.64,1012.36 1911.84,1013.66 1912.54,1014.86 C1914.04,1017.56 1917.04,1019.26 1920.94,1019.66 C1921.54,1019.76 1922.04,1019.76 1922.64,1019.76 C1926.14,1019.76 1929.84,1018.76 1933.34,1016.86 C1939.94,1013.26 1944.14,1007.46 1944.14,1002.36 C1944.14,1000.96 1943.84,999.558 1943.14,998.358"/>
<path class="Note" d="M2077.18,985.857 C2075.68,983.157 2072.78,981.457 2068.88,981.057 C2068.28,980.957 2067.78,980.957 2067.18,980.957 C2063.68,980.957 2059.88,981.957 2056.38,983.857 C2049.78,987.457 2045.68,993.357 2045.68,998.457 C2045.68,999.857 2045.88,1001.16 2046.58,1002.36 C2048.08,1005.06 2051.08,1006.76 2054.98,1007.16 C2055.58,1007.26 2056.08,1007.26 2056.68,1007.26 C2060.18,1007.26 2063.88,1006.26 2067.38,1004.36 C2073.98,1000.76 2078.18,994.957 2078.18,989.857 C2078.18,988.457 2077.88,987.057 2077.18,985.857"/>
<path class="Note" d="M2256.97,973.356 C2255.47,970.656 2252.57,968.956 2248.67,968.556 C2248.07,968.456 2247.57,968.456 2246.97,968.456 C2243.47,968.456 2239.67,969.456 2236.17,971.356 C2229.57,974.956 2225.47,980.856 2225.47,985.956 C2225.47,987.356 2225.67,988.656 2226.37,989.856 C2227.87,992.556 2230.87,994.256 2234.77,994.656 C2235.37,994.756 2235.87,994.756 2236.47,994.756 C2239.97,994.756 2243.67,993.756 2247.17,991.856 C2253.77,988.256 2257.97,982.456 2257.97,977.356 C2257.97,975.956 2257.67,974.556 2256.97,973.356"/>
<path class="Note" d="M2405.49,960.856 C2403.99,958.156 2401.09,956.456 2397.19,956.056 C2396.59,955.956 2396.09,955.956 2395.49,955.956 C2391.99,955.956 2388.19,956.956 2384.69,958.856 C2378.09,962.456 2373.99,968.356 2373.99,973.456 C2373.99,974.856 2374.19,976.156 2374.89,977.356 C2376.39,980.056 2379.39,981.756 2383.29,982.156 C2383.89,982.256 2384.39,982.256 2384.99,982.256 C2388.49,982.256 2392.19,981.256 2395.69,979.356 C2402.29,975.756 2406.49,969.956 2406.49,964.856 C2406.49,963.456 2406.19,962.056 2405.49,960.856"/>
<path class="Note" d="M2554,948.355 C2552.5,945.655 2549.6,943.955 2545.7,943.555 C2545.1,943.455 2544.6,943.455 2544,943.455 C2540.5,943.455 2536.7,944.455 2533.2,946.355 C2526.6,949.955 2522.5,955.755 2522.5,960.855 C2522.5,962.255 2522.9,963.655 2523.6,964.855 C2525.1,967.655 2527.9,969.255 2531.8,969.655 C2532.4,969.755 2532.9,969.755 2533.5,969.755 C2537,969.755 2540.8,968.755 2544.3,966.855 C2550.9,963.255 2555,957.355 2555,952.255 C2555,950.855 2554.7,949.555 2554,948.355 M2549.8,954.655 C2548.1,956.455 2544.9,958.755 2541.3,960.855 C2537.7,962.955 2534,964.655 2531.7,965.355 C2531.2,965.455 2530.6,965.555 2530.1,965.555 C2528.6,965.555 2527.3,964.855 2526.6,963.755 C2526.3,963.155 2526.1,962.555 2526.1,961.955 C2526.1,960.855 2526.6,959.755 2527.7,958.555 C2529.4,956.755 2532.6,954.355 2536.2,952.255 C2539.8,950.155 2543.5,948.455 2545.9,947.855 L2546.1,947.855 C2546.7,947.655 2547.2,947.555 2547.7,947.555 C2549.1,947.555 2550.2,948.155 2550.9,949.455 C2551.2,950.055 2551.4,950.555 2551.4,951.155 C2551.4,952.455 2550.7,953.755 2549.8,954.655"/>
<path class="Note" d="M438.351,1573.39 C436.851,1570.69 433.951,1568.99 430.051,1568.59 C429.451,1568.49 428.951,1568.49 428.351,1568.49 C424.851,1568.49 421.051,1569.49 417.551,1571.39 C410.951,1574.99 406.851,1580.89 406.851,1585.99 C406.851,1587.39 407.051,1588.69 407.751,1589.89 C409.251,1592.59 412.251,1594.29 416.151,1594.69 C416.751,1594.79 417.251,1594.79 417.851,1594.79 C421.351,1594.79 425.051,1593.79 428.551,1591.89 C435.151,1588.29 439.351,1582.49 439.351,1577.39 C439.351,1575.99 439.051,1574.59 438.351,1573.39"/>
<path class="Note" d="M583.068,1585.9 C581.568,1583.2 578.668,1581.5 574.768,1581.1 C574.168,1581 573.668,1581 573.068,1581 C569.568,1581 565.768,1582 562.268,1583.9 C555.668,1587.5 551.568,1593.4 551.568,1598.5 C551.568,1599.9 551.768,1601.2 552.468,1602.4 C553.968,1605.1 556.968,1606.8 560.868,1607.2 C561.468,1607.3 561.968,1607.3 562.568,1607.3 C566.068,1607.3 569.768,1606.3 573.268,1604.4 C579.868,1600.8 584.068,1595 584.068,1589.9 C584.068,1588.5 583.768,1587.1 583.068,1585.9"/>
<path class="Note" d="M727.786,1598.4 C726.286,1595.7 723.386,1594 719.486,1593.6 C718.886,1593.5 718.386,1593.5 717.786,1593.5 C714.286,1593.5 710.486,1594.5 706.986,1596.4 C700.386,1600 696.286,1605.9 696.286,1611 C696.286,1612.4 696.486,1613.7 697.186,1614.9 C698.686,1617.6 701.686,1619.3 705.586,1619.7 C706.186,1619.8 706.686,1619.8 707.286,1619.8 C710.786,1619.8 714.486,1618.8 717.986,1616.9 C724.586,1613.3 728.786,1607.5 728.786,1602.4 C728.786,1601 728.486,1599.6 727.786,1598.4"/>
<path class="Note" d="M872.503,1610.9 C871.003,1608.2 868.103,1606.5 864.203,1606.1 C863.603,1606 863.103,1606 862.503,1606 C859.003,1606 855.203,1607 851.703,1608.9 C845.103,1612.5 841.003,1618.4 841.003,1623.5 C841.003,1624.9 841.203,1626.2 841.903,1627.4 C843.403,1630.1 846.403,1631.8 850.303,1632.2 C850.903,1632.3 851.403,1632.3 852.003,1632.3 C855.503,1632.3 859.203,1631.3 862.703,1629.4 C869.303,1625.8 873.503,1620 873.503,1614.9 C873.503,1613.5 873.203,1612.1 872.503,1610.9"/>
<path class="Note" d="M1054.22,1623.4 C1052.72,1620.7 1049.82,1619 1045.92,1618.6 C1045.32,1618.5 1044.82,1618.5 1044.22,1618.5 C1040.72,1618.5 1036.92,1619.5 1033.42,1621.4 C1026.82,1625 1022.72,1630.9 1022.72,1636 C1022.72,1637.4 1022.92,1638.7 1023.62,1639.9 C1025.12,1642.6 1028.12,1644.3 1032.02,1644.7 C1032.62,1644.8 1033.12,1644.8 1033.72,1644.8 C1037.22,1644.8 1040.92,1643.8 1044.42,1641.9 C1051.02,1638.3 1055.22,1632.5 1055.22,1627.4 C1055.22,1626 1054.92,1624.6 1054.22,1623.4"/>
<path class="Note" d="M1198.94,1635.9 C1197.44,1633.2 1194.54,1631.5 1190.64,1631.1 C1190.04,1631 1189.54,1631 1188.94,1631 C1185.44,1631 1181.64,1632 1178.14,1633.9 C1171.54,1637.5 1167.44,1643.4 1167.44,1648.5 C1167.44,1649.9 1167.64,1651.2 1168.34,1652.4 C1169.84,1655.1 1172.84,1656.8 1176.74,1657.2 C1177.34,1657.3 1177.84,1657.3 1178.44,1657.3 C1181.94,1657.3 1185.64,1656.3 1189.14,1654.4 C1195.74,1650.8 1199.94,1645 1199.94,1639.9 C1199.94,1638.5 1199.64,1637.1 1198.94,1635.9"/>
<path class="Note" d="M1343.66,1648.4 C1342.16,1645.7 1339.26,1644 1335.36,1643.6 C1334.76,1643.5 1334.26,1643.5 1333.66,1643.5 C1330.16,1643.5 1326.36,1644.5 1322.86,1646.4 C1316.26,1650 1312.16,1655.9 1312.16,1661 C1312.16,1662.4 1312.36,1663.7 1313.06,1664.9 C1314.56,1667.6 1317.56,1669.3 1321.46,1669.7 C1322.06,1669.8 1322.56,1669.8 1323.16,1669.8 C1326.66,1669.8 1330.36,1668.8 1333.86,1666.9 C1340.46,1663.3 1344.66,1657.5 1344.66,1652.4 C1344.66,1651 1344.36,1649.6 1343.66,1648.4"/>
<path class="Note" d="M1488.38,1660.9 C1486.88,1658.2 1483.98,1656.5 1480.08,1656.1 C1479.48,1656 1478.98,1656 1478.38,1656 C1474.88,1656 1471.08,1657 1467.58,1658.9 C1460.98,1662.5 1456.88,1668.4 1456.88,1673.5 C1456.88,1674.9 1457.08,1676.2 1457.78,1677.4 C1459.28,1680.1 1462.28,1681.8 1466.18,1682.2 C1466.78,1682.3 1467.28,1682.3 1467.88,1682.3 C1471.38,1682.3 1475.08,1681.3 1478.58,1679.4 C1485.18,1675.8 1489.38,1670 1489.38,1664.9 C1489.38,1663.5 1489.08,1662.1 1488.38,1660.9"/>
<path class="Note" d="M1682.6,1523.39 C1681.1,1520.69 1678.2,1518.99 1674.3,1518.59 C1673.7,1518.49 1673.2,1518.49 1672.6,1518.49 C1669.1,1518.49 1665.3,1519.49 1661.8,1521.39 C1655.2,1524.99 1651.1,1530.89 1651.1,1535.99 C1651.1,1537.39 1651.3,1538.69 1652,1539.89 C1653.5,1542.59 1656.5,1544.29 1660.4,1544.69 C1661,1544.79 1661.5,1544.79 1662.1,1544.79 C1665.6,1544.79 1669.3,1543.79 1672.8,1541.89 C1679.4,1538.29 1683.6,1532.49 1683.6,1527.39 C1683.6,1525.99 1683.3,1524.59 1682.6,1523.39"/>
<path class="Note" d="M1819.44,1535.89 C1817.94,1533.19 1815.04,1531.49 1811.14,1531.09 C1810.54,1530.99 1810.04,1530.99 1809.44,1530.99 C1805.94,1530.99 1802.14,1531.99 1798.64,1533.89 C1792.04,1537.49 1787.94,1543.39 1787.94,1548.49 C1787.94,1549.89 1788.14,1551.19 1788.84,1552.39 C1790.34,1555.09 1793.34,1556.79 1797.24,1557.19 C1797.84,1557.29 1798.34,1557.29 1798.94,1557.29 C1802.44,1557.29 1806.14,1556.29 1809.64,1554.39 C1816.24,1550.79 1820.44,1544.99 1820.44,1539.89 C1820.44,1538.49 1820.14,1537.09 1819.44,1535.89"/>
<path class="Note" d="M1956.28,1548.39 C1954.78,1545.69 1951.88,1543.99 1947.98,1543.59 C1947.38,1543.49 1946.88,1543.49 1946.28,1543.49 C1942.78,1543.49 1938.98,1544.49 1935.48,1546.39 C1928.88,1549.99 1924.78,1555.89 1924.78,1560.99 C1924.78,1562.39 1924.98,1563.69 1925.68,1564.89 C1927.18,1567.59 1930.18,1569.29 1934.08,1569.69 C1934.68,1569.79 1935.18,1569.79 1935.78,1569.79 C1939.28,1569.79 1942.98,1568.79 1946.48,1566.89 C1953.08,1563.29 1957.28,1557.49 1957.28,1552.39 C1957.28,1550.99 1956.98,1549.59 1956.28,1548.39"/>
<path class="Note" d="M2093.12,1560.89 C2091.62,1558.19 2088.72,1556.49 2084.82,1556.09 C2084.22,1555.99 2083.72,1555.99 2083.12,1555.99 C2079.62,1555.99 2075.82,1556.99 2072.32,1558.89 C2065.72,1562.49 2061.62,1568.39 2061.62,1573.49 C2061.62,1574.89 2061.82,1576.19 2062.52,1577.39 C2064.02,1580.09 2067.02,1581.79 2070.92,1582.19 C2071.52,1582.29 2072.02,1582.29 2072.62,1582.29 C2076.12,1582.29 2079.82,1581.29 2083.32,1579.39 C2089.92,1575.79 2094.12,1569.99 2094.12,1564.89 C2094.12,1563.49 2093.82,1562.09 2093.12,1560.89"/>
<path class="Note" d="M2266.97,1573.39 C2265.47,1570.69 2262.57,1568.99 2258.67,1568.59 C2258.07,1568.49 2257.57,1568.49 2256.97,1568.49 C2253.47,1568.49 2249.67,1569.49 2246.17,1571.39 C2239.57,1574.99 2235.47,1580.89 2235.47,1585.99 C2235.47,1587.39 2235.67,1588.69 2236.37,1589.89 C2237.87,1592.59 2240.87,1594.29 2244.77,1594.69 C2245.37,1594.79 2245.87,1594.79 2246.47,1594.79 C2249.97,1594.79 2253.67,1593.79 2257.17,1591.89 C2263.77,1588.29 2267.97,1582.49 2267.97,1577.39 C2267.97,1575.99 2267.67,1574.59 2266.97,1573.39"/>
<path class="Note" d="M2435.44,1585.9 C2433.94,1583.2 2431.04,1581.5 2427.14,1581.1 C2426.54,1581 2426.04,1581 2425.44,1581 C2421.94,1581 2418.14,1582 2414.64,1583.9 C2408.04,1587.5 2403.94,1593.3 2403.94,1598.4 C2403.94,1599.8 2404.34,1601.2 2405.04,1602.4 C2406.54,1605.2 2409.34,1606.8 2413.24,1607.2 C2413.84,1607.3 2414.34,1607.3 2414.94,1607.3 C2418.44,1607.3 2422.24,1606.3 2425.74,1604.4 C2432.34,1600.8 2436.44,1594.9 2436.44,1589.8 C2436.44,1588.4 2436.14,1587.1 2435.44,1585.9 M2431.24,1592.2 C2429.54,1594 2426.34,1596.3 2422.74,1598.4 C2419.14,1600.5 2415.44,1602.2 2413.14,1602.9 C2412.64,1603 2412.04,1603.1 2411.54,1603.1 C2410.04,1603.1 2408.74,1602.4 2408.04,1601.3 C2407.74,1600.7 2407.54,1600.1 2407.54,1599.5 C2407.54,1598.4 2408.04,1597.3 2409.14,1596.1 C2410.84,1594.3 2414.04,1591.9 2417.64,1589.8 C2421.24,1587.7 2424.94,1586 2427.34,1585.4 L2427.54,1585.4 C2428.14,1585.2 2428.64,1585.1 2429.14,1585.1 C2430.54,1585.1 2431.64,1585.7 2432.34,1587 C2432.64,1587.6 2432.84,1588.1 2432.84,1588.7 C2432.84,1590 2432.14,1591.3 2431.24,1592.2"/>
<path class="Note" d="M495.253,773.344 C493.753,770.644 490.853,768.944 486.953,768.544 C486.353,768.444 485.853,768.444 485.253,768.444 C481.753,768.444 477.953,769.444 474.453,771.344 C467.853,774.944 463.753,780.844 463.753,785.944 C463.753,787.344 463.953,788.644 464.653,789.844 C466.153,792.544 469.153,794.244 473.053,794.644 C473.653,794.744 474.153,794.744 474.753,794.744 C478.253,794.744 481.953,793.744 485.453,791.844 C492.053,788.244 496.253,782.444 496.253,777.344 C496.253,775.944 495.953,774.544 495.253,773.344"/>
<path class="Note" d="M631.916,760.843 C630.416,758.143 627.516,756.443 623.616,756.043 C623.016,755.943 622.516,755.943 621.916,755.943 C618.416,755.943 614.616,756.943 611.116,758.843 C604.516,762.443 600.416,768.343 600.416,773.443 C600.416,774.843 600.616,776.143 601.316,777.343 C602.816,780.043 605.816,781.743 609.716,782.143 C610.316,782.243 610.816,782.243 611.416,782.243 C614.916,782.243 618.616,781.243 622.116,779.343 C628.716,775.743 632.916,769.943 632.916,764.843 C632.916,763.443 632.616,762.043 631.916,760.843"/>
<path class="Note" d="M768.579,748.342 C767.079,745.642 764.179,743.942 760.279,743.542 C759.679,743.442 759.179,743.442 758.579,743.442 C755.079,743.442 751.279,744.442 747.779,746.342 C741.179,749.942 737.079,755.842 737.079,760.942 C737.079,762.342 737.279,763.642 737.979,764.842 C739.479,767.542 742.479,769.242 746.379,769.642 C746.979,769.742 747.479,769.742 748.079,769.742 C751.579,769.742 755.279,768.742 758.779,766.842 C765.379,763.242 769.579,757.442 769.579,752.342 C769.579,750.942 769.279,749.542 768.579,748.342"/>
<path class="Note" d="M905.243,735.842 C903.743,733.142 900.843,731.442 896.943,731.042 C896.343,730.942 895.843,730.942 895.243,730.942 C891.743,730.942 887.943,731.942 884.443,733.842 C877.843,737.442 873.743,743.342 873.743,748.442 C873.743,749.842 873.943,751.142 874.643,752.342 C876.143,755.042 879.143,756.742 883.043,757.142 C883.643,757.242 884.143,757.242 884.743,757.242 C888.243,757.242 891.943,756.242 895.443,754.342 C902.043,750.742 906.243,744.942 906.243,739.842 C906.243,738.442 905.943,737.042 905.243,735.842"/>
<path class="Note" d="M1078.91,723.341 C1077.41,720.641 1074.51,718.941 1070.61,718.541 C1070.01,718.441 1069.51,718.441 1068.91,718.441 C1065.41,718.441 1061.61,719.441 1058.11,721.341 C1051.51,724.941 1047.41,730.841 1047.41,735.941 C1047.41,737.341 1047.61,738.641 1048.31,739.841 C1049.81,742.541 1052.81,744.241 1056.71,744.641 C1057.31,744.741 1057.81,744.741 1058.41,744.741 C1061.91,744.741 1065.61,743.741 1069.11,741.841 C1075.71,738.241 1079.91,732.441 1079.91,727.341 C1079.91,725.941 1079.61,724.541 1078.91,723.341"/>
<path class="Note" d="M1215.57,710.84 C1214.07,708.14 1211.17,706.44 1207.27,706.04 C1206.67,705.94 1206.17,705.94 1205.57,705.94 C1202.07,705.94 1198.27,706.94 1194.77,708.84 C1188.17,712.44 1184.07,718.34 1184.07,723.44 C1184.07,724.84 1184.27,726.14 1184.97,727.34 C1186.47,730.04 1189.47,731.74 1193.37,732.14 C1193.97,732.24 1194.47,732.24 1195.07,732.24 C1198.57,732.24 1202.27,731.24 1205.77,729.34 C1212.37,725.74 1216.57,719.94 1216.57,714.84 C1216.57,713.44 1216.27,712.04 1215.57,710.84"/>
<path class="Note" d="M1352.23,698.339 C1350.73,695.639 1347.83,693.939 1343.93,693.539 C1343.33,693.439 1342.83,693.439 1342.23,693.439 C1338.73,693.439 1334.93,694.439 1331.43,696.339 C1324.83,699.939 1320.73,705.839 1320.73,710.939 C1320.73,712.339 1320.93,713.639 1321.63,714.839 C1323.13,717.539 1326.13,719.239 1330.03,719.639 C1330.63,719.739 1331.13,719.739 1331.73,719.739 C1335.23,719.739 1338.93,718.739 1342.43,716.839 C1349.03,713.239 1353.23,707.439 1353.23,702.339 C1353.23,700.939 1352.93,699.539 1352.23,698.339"/>
<path class="Note" d="M1488.9,685.838 C1487.4,683.138 1484.5,681.438 1480.6,681.038 C1480,680.938 1479.5,680.938 1478.9,680.938 C1475.4,680.938 1471.6,681.938 1468.1,683.838 C1461.5,687.438 1457.4,693.338 1457.4,698.438 C1457.4,699.838 1457.6,701.138 1458.3,702.338 C1459.8,705.038 1462.8,706.738 1466.7,707.138 C1467.3,707.238 1467.8,707.238 1468.4,707.238 C1471.9,707.238 1475.6,706.238 1479.1,704.338 C1485.7,700.738 1489.9,694.938 1489.9,689.838 C1489.9,688.438 1489.6,687.038 1488.9,685.838"/>
<path class="Note" d="M1675.06,673.338 C1673.56,670.638 1670.66,668.938 1666.76,668.538 C1666.16,668.438 1665.66,668.438 1665.06,668.438 C1661.56,668.438 1657.76,669.438 1654.26,671.338 C1647.66,674.938 1643.56,680.838 1643.56,685.938 C1643.56,687.338 1643.76,688.638 1644.46,689.838 C1645.96,692.538 1648.96,694.238 1652.86,694.638 C1653.46,694.738 1653.96,694.738 1654.56,694.738 C1658.06,694.738 1661.76,693.738 1665.26,691.838 C1671.86,688.238 1676.06,682.438 1676.06,677.338 C1676.06,675.938 1675.76,674.538 1675.06,673.338"/>
<path class="Note" d="M1809.1,660.837 C1807.6,658.137 1804.7,656.437 1800.8,656.037 C1800.2,655.937 1799.7,655.937 1799.1,655.937 C1795.6,655.937 1791.8,656.937 1788.3,658.837 C1781.7,662.437 1777.6,668.337 1777.6,673.437 C1777.6,674.837 1777.8,676.137 1778.5,677.337 C1780,680.037 1783,681.737 1786.9,682.137 C1787.5,682.237 1788,682.237 1788.6,682.237 C1792.1,682.237 1795.8,681.237 1799.3,679.337 C1805.9,675.737 1810.1,669.937 1810.1,664.837 C1810.1,663.437 1809.8,662.037 1809.1,660.837"/>
<path class="Note" d="M1943.14,648.336 C1941.64,645.636 1938.74,643.936 1934.84,643.536 C1934.24,643.436 1933.74,643.436 1933.14,643.436 C1929.64,643.436 1925.84,644.436 1922.34,646.336 C1915.74,649.936 1911.64,655.836 1911.64,660.936 C1911.64,662.336 1911.84,663.636 1912.54,664.836 C1914.04,667.536 1917.04,669.236 1920.94,669.636 C1921.54,669.736 1922.04,669.736 1922.64,669.736 C1926.14,669.736 1929.84,668.736 1933.34,666.836 C1939.94,663.236 1944.14,657.436 1944.14,652.336 C1944.14,650.936 1943.84,649.536 1943.14,648.336"/>
<path class="Note" d="M2077.18,635.835 C2075.68,633.135 2072.78,631.435 2068.88,631.035 C2068.28,630.935 2067.78,630.935 2067.18,630.935 C2063.68,630.935 2059.88,631.935 2056.38,633.835 C2049.78,637.435 2045.68,643.335 2045.68,648.435 C2045.68,649.835 2045.88,651.135 2046.58,652.335 C2048.08,655.035 2051.08,656.735 2054.98,657.135 C2055.58,657.235 2056.08,657.235 2056.68,657.235 C2060.18,657.235 2063.88,656.235 2067.38,654.335 C2073.98,650.735 2078.18,644.935 2078.18,639.835 C2078.18,638.435 2077.88,637.035 2077.18,635.835"/>
<path class="Note" d="M2256.97,623.334 C2255.47,620.634 2252.57,618.934 2248.67,618.534 C2248.07,618.434 2247.57,618.434 2246.97,618.434 C2243.47,618.434 2239.67,619.434 2236.17,621.334 C2229.57,624.934 2225.47,630.834 2225.47,635.934 C2225.47,637.334 2225.67,638.634 2226.37,639.834 C2227.87,642.534 2230.87,644.234 2234.77,644.634 C2235.37,644.734 2235.87,644.734 2236.47,644.734 C2239.97,644.734 2243.67,643.734 2247.17,641.834 C2253.77,638.234 2257.97,632.434 2257.97,627.334 C2257.97,625.934 2257.67,624.534 2256.97,623.334"/>
<path class="Note" d="M2405.49,610.834 C2403.99,608.134 2401.09,606.434 2397.19,606.034 C2396.59,605.934 2396.09,605.934 2395.49,605.934 C2391.99,605.934 2388.19,606.934 2384.69,608.834 C2378.09,612.434 2373.99,618.334 2373.99,623.434 C2373.99,624.834 2374.19,626.134 2374.89,627.334 C2376.39,630.034 2379.39,631.734 2383.29,632.134 C2383.89,632.234 2384.39,632.234 2384.99,632.234 C2388.49,632.234 2392.19,631.234 2395.69,629.334 C2402.29,625.734 2406.49,619.934 2406.49,614.834 C2406.49,613.434 2406.19,612.034 2405.49,610.834"/>
<path class="Note" d="M2554,598.333 C2552.5,595.633 2549.6,593.933 2545.7,593.533 C2545.1,593.433 2544.6,593.433 2544,593.433 C2540.5,593.433 2536.7,594.433 2533.2,596.333 C2526.6,599.933 2522.5,605.733 2522.5,610.833 C2522.5,612.233 2522.9,613.633 2523.6,614.833 C2525.1,617.633 2527.9,619.233 2531.8,619.633 C2532.4,619.733 2532.9,619.733 2533.5,619.733 C2537,619.733 2540.8,618.733 2544.3,616.833 C2550.9,613.233 2555,607.333 2555,602.233 C2555,600.833 2554.7,599.533 2554,598.333 M2549.8,604.633 C2548.1,606.433 2544.9,608.733 2541.3,610.833 C2537.7,612.933 2534,614.633 2531.7,615.333 C2531.2,615.433 2530.6,615.533 2530.1,615.533 C2528.6,615.533 2527.3,614.833 2526.6,613.733 C2526.3,613.133 2526.1,612.533 2526.1,611.933 C2526.1,610.833 2526.6,609.733 2527.7,608.533 C2529.4,606.733 2532.6,604.333 2536.2,602.233 C2539.8,600.133 2543.5,598.433 2545.9,597.833 L2546.1,597.833 C2546.7,597.633 2547.2,597.533 2547.7,597.533 C2549.1,597.533 2550.2,598.133 2550.9,599.433 C2551.2,600.033 2551.4,600.533 2551.4,601.133 C2551.4,602.433 2550.7,603.733 2549.8,604.633"/>
<path class="Note" d="M438.351,1223.37 C436.851,1220.67 433.951,1218.97 430.051,1218.57 C429.451,1218.47 428.951,1218.47 428.351,1218.47 C424.851,1218.47 421.051,1219.47 417.551,1221.37 C410.951,1224.97 406.851,1230.87 406.851,1235.97 C406.851,1237.37 407.051,1238.67 407.751,1239.87 C409.251,1242.57 412.251,1244.27 416.151,1244.67 C416.751,1244.77 417.251,1244.77 417.851,1244.77 C421.351,1244.77 425.051,1243.77 428.551,1241.87 C435.151,1238.27 439.351,1232.47 439.351,1227.37 C439.351,1225.97 439.051,1224.57 438.351,1223.37"/>
<path class="Note" d="M583.068,1235.87 C581.568,1233.17 578.668,1231.47 574.768,1231.07 C574.168,1230.97 573.668,1230.97 573.068,1230.97 C569.568,1230.97 565.768,1231.97 562.268,1233.87 C555.668,1237.47 551.568,1243.37 551.568,1248.47 C551.568,1249.87 551.768,1251.17 552.468,1252.37 C553.968,1255.07 556.968,1256.77 560.868,1257.17 C561.468,1257.27 561.968,1257.27 562.568,1257.27 C566.068,1257.27 569.768,1256.27 573.268,1254.37 C579.868,1250.77 584.068,1244.97 584.068,1239.87 C584.068,1238.47 583.768,1237.07 583.068,1235.87"/>
<path class="Note" d="M727.786,1248.37 C726.286,1245.67 723.386,1243.97 719.486,1243.57 C718.886,1243.47 718.386,1243.47 717.786,1243.47 C714.286,1243.47 710.486,1244.47 706.986,1246.37 C700.386,1249.97 696.286,1255.87 696.286,1260.97 C696.286,1262.37 696.486,1263.67 697.186,1264.87 C698.686,1267.57 701.686,1269.27 705.586,1269.67 C706.186,1269.77 706.686,1269.77 707.286,1269.77 C710.786,1269.77 714.486,1268.77 717.986,1266.87 C724.586,1263.27 728.786,1257.47 728.786,1252.37 C728.786,1250.97 728.486,1249.57 727.786,1248.37"/>
<path class="Note" d="M872.503,1260.87 C871.003,1258.17 868.103,1256.47 864.203,1256.07 C863.603,1255.97 863.103,1255.97 862.503,1255.97 C859.003,1255.97 855.203,1256.97 851.703,1258.87 C845.103,1262.47 841.003,1268.37 841.003,1273.47 C841.003,1274.87 841.203,1276.17 841.903,1277.37 C843.403,1280.07 846.403,1281.77 850.303,1282.17 C850.903,1282.27 851.403,1282.27 852.003,1282.27 C855.503,1282.27 859.203,1281.27 862.703,1279.37 C869.303,1275.77 873.503,1269.97 873.503,1264.87 C873.503,1263.47 873.203,1262.07 872.503,1260.87"/>
<path class="Note" d="M1054.22,1273.38 C1052.72,1270.68 1049.82,1268.98 1045.92,1268.58 C1045.32,1268.48 1044.82,1268.48 1044.22,1268.48 C1040.72,1268.48 1036.92,1269.48 1033.42,1271.38 C1026.82,1274.98 1022.72,1280.88 1022.72,1285.98 C1022.72,1287.38 1022.92,1288.68 1023.62,1289.88 C1025.12,1292.58 1028.12,1294.28 1032.02,1294.68 C1032.62,1294.78 1033.12,1294.78 1033.72,1294.78 C1037.22,1294.78 1040.92,1293.78 1044.42,1291.88 C1051.02,1288.28 1055.22,1282.48 1055.22,1277.38 C1055.22,1275.98 1054.92,1274.58 1054.22,1273.38"/>
<path class="Note" d="M1198.94,1285.88 C1197.44,1283.18 1194.54,1281.48 1190.64,1281.08 C1190.04,1280.98 1189.54,1280.98 1188.94,1280.98 C1185.44,1280.98 1181.64,1281.98 1178.14,1283.88 C1171.54,1287.48 1167.44,1293.38 1167.44,1298.48 C1167.44,1299.88 1167.64,1301.18 1168.34,1302.38 C1169.84,1305.08 1172.84,1306.78 1176.74,1307.18 C1177.34,1307.28 1177.84,1307.28 1178.44,1307.28 C1181.94,1307.28 1185.64,1306.28 1189.14,1304.38 C1195.74,1300.78 1199.94,1294.98 1199.94,1289.88 C1199.94,1288.48 1199.64,1287.08 1198.94,1285.88"/>
<path class="Note" d="M1343.66,1298.38 C1342.16,1295.68 1339.26,1293.98 1335.36,1293.58 C1334.76,1293.48 1334.26,1293.48 1333.66,1293.48 C1330.16,1293.48 1326.36,1294.48 1322.86,1296.38 C1316.26,1299.98 1312.16,1305.88 1312.16,1310.98 C1312.16,1312.38 1312.36,1313.68 1313.06,1314.88 C1314.56,1317.58 1317.56,1319.28 1321.46,1319.68 C1322.06,1319.78 1322.56,1319.78 1323.16,1319.78 C1326.66,1319.78 1330.36,1318.78 1333.86,1316.88 C1340.46,1313.28 1344.66,1307.48 1344.66,1302.38 C1344.66,1300.98 1344.36,1299.58 1343.66,1298.38"/>
<path class="Note" d="M1488.38,1310.88 C1486.88,1308.18 1483.98,1306.48 1480.08,1306.08 C1479.48,1305.98 1478.98,1305.98 1478.38,1305.98 C1474.88,1305.98 1471.08,1306.98 1467.58,1308.88 C1460.98,1312.48 1456.88,1318.38 1456.88,1323.48 C1456.88,1324.88 1457.08,1326.18 1457.78,1327.38 C1459.28,1330.08 1462.28,1331.78 1466.18,1332.18 C1466.78,1332.28 1467.28,1332.28 1467.88,1332.28 C1471.38,1332.28 1475.08,1331.28 1478.58,1329.38 C1485.18,1325.78 1489.38,1319.98 1489.38,1314.88 C1489.38,1313.48 1489.08,1312.08 1488.38,1310.88"/>
<path class="Note" d="M1682.6,1323.38 C1681.1,1320.68 1678.2,1318.98 1674.3,1318.58 C1673.7,1318.48 1673.2,1318.48 1672.6,1318.48 C1669.1,1318.48 1665.3,1319.48 1661.8,1321.38 C1655.2,1324.98 1651.1,1330.88 1651.1,1335.98 C1651.1,1337.38 1651.3,1338.68 1652,1339.88 C1653.5,1342.58 1656.5,1344.28 1660.4,1344.68 C1661,1344.78 1661.5,1344.78 1662.1,1344.78 C1665.6,1344.78 1669.3,1343.78 1672.8,1341.88 C1679.4,1338.28 1683.6,1332.48 1683.6,1327.38 C1683.6,1325.98 1683.3,1324.58 1682.6,1323.38"/>
<path class="Note" d="M1819.44,1335.88 C1817.94,1333.18 1815.04,1331.48 1811.14,1331.08 C1810.54,1330.98 1810.04,1330.98 1809.44,1330.98 C1805.94,1330.98 1802.14,1331.98 1798.64,1333.88 C1792.04,1337.48 1787.94,1343.38 1787.94,1348.48 C1787.94,1349.88 1788.14,1351.18 1788.84,1352.38 C1790.34,1355.08 1793.34,1356.78 1797.24,1357.18 C1797.84,1357.28 1798.34,1357.28 1798.94,1357.28 C1802.44,1357.28 1806.14,1356.28 1809.64,1354.38 C1816.24,1350.78 1820.44,1344.98 1820.44,1339.88 C1820.44,1338.48 1820.14,1337.08 1819.44,1335.88"/>
<path class="Note" d="M1956.28,1348.38 C1954.78,1345.68 1951.88,1343.98 1947.98,1343.58 C1947.38,1343.48 1946.88,1343.48 1946.28,1343.48 C1942.78,1343.48 1938.98,1344.48 1935.48,1346.38 C1928.88,1349.98 1924.78,1355.88 1924.78,1360.98 C1924.78,1362.38 1924.98,1363.68 1925.68,1364.88 C1927.18,1367.58 1930.18,1369.28 1934.08,1369.68 C1934.68,1369.78 1935.18,1369.78 1935.78,1369.78 C1939.28,1369.78 1942.98,1368.78 1946.48,1366.88 C1953.08,1363.28 1957.28,1357.48 1957.28,1352.38 C1957.28,1350.98 1956.98,1349.58 1956.28,1348.38"/>
<path class="Note" d="M2093.12,1360.88 C2091.62,1358.18 2088.72,1356.48 2084.82,1356.08 C2084.22,1355.98 2083.72,1355.98 2083.12,1355.98 C2079.62,1355.98 2075.82,1356.98 2072.32,1358.88 C2065.72,1362.48 2061.62,1368.38 2061.62,1373.48 C2061.62,1374.88 2061.82,1376.18 2062.52,1377.38 C2064.02,1380.08 2067.02,1381.78 2070.92,1382.18 C2071.52,1382.28 2072.02,1382.28 2072.62,1382.28 C2076.12,1382.28 2079.82,1381.28 2083.32,1379.38 C2089.92,1375.78 2094.12,1369.98 2094.12,1364.88 C2094.12,1363.48 2093.82,1362.08 2093.12,1360.88"/>
<path class="Note" d="M2266.97,1373.38 C2265.47,1370.68 2262.57,1368.98 2258.67,1368.58 C2258.07,1368.48 2257.57,1368.48 2256.97,1368.48 C2253.47,1368.48 2249.67,1369.48 2246.17,1371.38 C2239.57,1374.98 2235.47,1380.88 2235.47,1385.98 C2235.47,1387.38 2235.67,1388.68 2236.37,1389.88 C2237.87,1392.58 2240.87,1394.28 2244.77,1394.68 C2245.37,1394.78 2245.87,1394.78 2246.47,1394.78 C2249.97,1394.78 2253.67,1393.78 2257.17,1391.88 C2263.77,1388.28 2267.97,1382.48 2267.97,1377.38 C2267.97,1375.98 2267.67,1374.58 2266.97,1373.38"/>
<path class="Note" d="M2435.44,1385.88 C2433.94,1383.18 2431.04,1381.48 2427.14,1381.08 C2426.54,1380.98 2426.04,1380.98 2425.44,1380.98 C2421.94,1380.98 2418.14,1381.98 2414.64,1383.88 C2408.04,1387.48 2403.94,1393.28 2403.94,1398.38 C2403.94,1399.78 2404.34,1401.18 2405.04,1402.38 C2406.54,1405.18 2409.34,1406.78 2413.24,1407.18 C2413.84,1407.28 2414.34,1407.28 2414.94,1407.28 C2418.44,1407.28 2422.24,1406.28 2425.74,1404.38 C2432.34,1400.78 2436.44,1394.88 2436.44,1389.78 C2436.44,1388.38 2436.14,1387.08 2435.44,1385.88 M2431.24,1392.18 C2429.54,1393.98 2426.34,1396.28 2422.74,1398.38 C2419.14,1400.48 2415.44,1402.18 2413.14,1402.88 C2412.64,1402.98 2412.04,1403.08 2411.54,1403.08 C2410.04,1403.08 2408.74,1402.38 2408.04,1401.28 C2407.74,1400.68 2407.54,1400.08 2407.54,1399.48 C2407.54,1398.38 2408.04,1397.28 2409.14,1396.08 C2410.84,1394.28 2414.04,1391.88 2417.64,1389.78 C2421.24,1387.68 2424.94,1385.98 2427.34,1385.38 L2427.54,1385.38 C2428.14,1385.18 2428.64,1385.08 2429.14,1385.08 C2430.54,1385.08 2431.64,1385.68 2432.34,1386.98 C2432.64,1387.58 2432.84,1388.08 2432.84,1388.68 C2432.84,1389.98 2432.14,1391.28 2431.24,1392.18"/>
<path class="Clef" d="M297,918.954 C289.4,918.954 283.3,923.354 283.2,923.354 C277.4,927.654 275.1,932.754 274.2,936.254 C273.7,938.054 273.5,939.854 273.5,941.554 C273.5,943.954 273.9,946.154 274.8,948.054 C276,950.754 278.3,952.654 281.3,953.654 C282.5,954.054 283.8,954.254 285.1,954.254 C287.3,954.254 289.6,953.654 291.5,952.554 C294.6,950.854 296.5,947.254 296.5,943.354 C296.5,939.854 294.7,936.654 291.7,934.754 C289.6,933.354 287.6,932.954 285.9,932.954 C284.7,932.954 283.6,933.154 282.7,933.454 C281.7,933.854 280,934.854 279.2,935.554 C279.5,933.654 280.7,930.754 281.8,929.154 C282.9,927.554 285.1,925.554 286.8,924.654 C289.3,923.254 292.5,922.654 296,922.654 C306.2,922.654 311.2,930.854 311.2,947.654 C311.2,956.954 307.7,965.854 304.7,971.754 C301.4,978.354 297,984.654 293.1,988.154 C282.7,997.654 272.9,1002.15 272.8,1002.15 C272.8,1002.15 271.3,1003.05 271.7,1004.55 C272,1005.55 272.9,1005.75 273.5,1005.75 C273.6,1005.75 273.9,1005.65 274,1005.65 C274.1,1005.65 285.5,1000.95 294.6,993.854 C299.7,990.154 304.3,986.154 308.3,981.854 C311.9,977.954 315,973.754 317.5,969.554 C321.9,962.054 324.4,954.254 324.4,947.554 C324.4,939.254 322.2,932.354 318.1,927.454 C313.4,921.854 306.3,918.954 297,918.954 M328.4,931.654 C328.4,934.454 330.6,936.654 333.2,936.654 C335.8,936.654 338,934.454 338,931.654 C338,928.854 335.8,926.554 333.2,926.554 C330.6,926.554 328.4,928.854 328.4,931.654 M328.4,956.354 C328.4,959.154 330.6,961.454 333.2,961.454 C335.8,961.454 338,959.154 338,956.354 C338,953.554 335.8,951.254 333.2,951.254 C330.6,951.254 328.4,953.554 328.4,956.354"/>
<path class="Clef" transform="matrix(0.80005,0,0,0.80005,1542.86,994.057)" d="M63.4,-5.9 C62.2,-11.3 59.5,-15.2 58.7,-16.2 C55.5,-20.5 51.5,-23.3 46.8,-24.7 C44.5,-25.4 42.4,-25.6 40.4,-25.6 C39.7,-25.6 39,-25.6 38.3,-25.5 C37.3,-31.5 36.2,-37.4 35.3,-42.8 C40.9,-49 44.6,-54.9 47,-59.3 C50.6,-66 52,-70.7 52.1,-70.9 C53.3,-73.9 54,-77.7 54,-82.2 C54,-84.9 53.7,-87.8 53.3,-90.8 C52.2,-97.9 50,-104.6 47.5,-108.3 C46.2,-110.2 45,-111.3 43.8,-111.3 C42.6,-111.3 40.1,-110.1 37.2,-107.3 C34.9,-105.1 31.6,-101.2 29,-95.2 C26.7,-89.8 26,-82.9 26,-77 C26,-75.2 26.1,-73.5 26.2,-71.9 C26.4,-68.3 27.1,-62.5 27.7,-58.9 C27.7,-58.8 28,-57.3 28.4,-54.7 L27.7,-54 C26.7,-53 25.5,-51.9 24.1,-50.5 C23.2,-49.6 22.3,-48.8 21.3,-47.8 C12.8,-39.6 0,-27.2 0,-8.1 C0,-3.4 0.9,1 2.7,5 C4.3,8.6 6.6,11.9 9.5,14.8 C17,22.2 27.2,25.4 34.3,25.4 L34.9,25.4 C37.8,25.3 40.5,25 42.9,24.6 C44.7,34.2 45.9,41.3 45.9,46.6 C45.9,53.1 44.3,57 40.4,59.8 C38,61.5 35.1,62.6 32,62.7 L31.2,62.7 C29.7,62.7 27.2,62.3 25.7,61.9 C25.7,61.9 25.4,61.8 25.4,61.6 C25.4,61.4 25.8,61.4 25.8,61.4 C27.7,61 31.3,59.7 33.7,56.4 C34.8,54.9 35.5,52.6 35.5,50.1 C35.5,48.5 35.2,46.8 34.5,45.3 C33.4,42.9 30.8,39.9 25.2,39.5 L24.1,39.5 C22,39.5 20.2,40 18.5,41 C16.7,42.1 15.1,43.8 14.1,45.8 C13,47.8 12.5,50 12.5,52.2 C12.5,55.1 13.4,57.8 15.2,60 C18.2,63.6 22.9,65.9 28.3,66.5 C29,66.6 30.1,66.7 30.8,66.7 C35.2,66.7 39.6,65.5 43.2,63.3 C46.9,60.7 49,56.7 49.7,51.1 C49.9,49.8 49.9,48.4 49.9,46.9 C49.9,43 49.4,38.3 48.4,32.5 C48,30.4 47.6,27.4 46.9,23.6 C52.7,21.7 56.8,18 60.6,12.2 C62.9,8.2 64,4.1 64,-0.2 C64,-2.1 63.8,-4 63.4,-5.9 M33.2,-83.8 C35,-89.5 37.7,-92.9 39.7,-94.6 C41.5,-96.1 43.1,-96.8 44,-96.8 C44.1,-96.8 44.3,-96.7 44.4,-96.7 C44.7,-96.6 45.1,-96.1 45.5,-95.4 C46.4,-93.6 47.3,-90.3 47.3,-86.6 C47.3,-84.7 47.1,-82.7 46.5,-80.9 C44.3,-74.1 39.7,-66.8 32.7,-59.1 C32.5,-60.2 32.3,-61.2 32.2,-62.2 C31.7,-65.4 31.4,-68.6 31.4,-71.5 C31.4,-76 32,-80.1 33.2,-83.8 M29.2,20.3 C24.6,19.1 20.1,16.6 16.3,13.1 C15,11.9 13.2,9.7 11.7,6.3 C10.4,3.3 9.7,0.2 9.7,-3.2 L9.7,-3.9 C9.8,-8.6 11.1,-13.4 13.6,-18.2 C16.5,-23.8 21,-29.3 27.1,-34.6 C28.6,-35.9 30,-37.2 31.3,-38.5 C32.1,-34.2 32.8,-29.5 33.7,-24.6 C29.8,-23.3 25.1,-20.3 22,-14.6 C19.6,-10.1 18.9,-6.2 18.9,-3 C18.9,-1.5 19.1,-0.1 19.3,1 C20.2,5.5 22.8,9.2 26.3,11.3 C27.1,11.8 30.4,13.5 32.4,13.5 C32.7,13.5 33,13.5 33.2,13.4 C33.5,13.3 33.8,13.1 33.9,12.8 C34,12.6 34,12.4 34,12.2 C34,11.4 33.2,10.8 31.9,10 C31.3,9.6 30.6,9.2 29.9,8.7 C27.3,6.7 25.8,3.6 25.8,0.2 C25.8,-0.8 26,-1.7 26.2,-2.7 C26.7,-4.7 28.4,-7.5 29.9,-8.9 C31.6,-10.4 33.6,-11.6 36,-12.2 C38,-1 40.1,10.1 41.7,18.5 C41.8,19.2 42,19.9 42.1,20.6 C40.1,21 38.1,21.2 36.2,21.2 C33.8,21.2 31.5,20.9 29.2,20.3 M54.9,10.1 C53.7,13.3 51.2,17.3 46.1,19.4 C46,19 46,18.5 45.9,18.1 C44.4,9.3 42.5,-1.6 40.5,-12.9 L41.5,-12.9 C51.2,-12.9 55.1,-5.7 56,-1.1 C56.2,-0.2 56.3,1 56.3,2.3 C56.3,4.6 55.9,7.4 54.9,10.1"/>
<path class="Clef" d="M335,1600.7 C333.8,1595.3 331.1,1591.4 330.3,1590.4 C327.1,1586.1 323.1,1583.3 318.4,1581.9 C316.1,1581.2 314,1581 312,1581 C311.3,1581 310.6,1581 309.9,1581.1 C308.9,1575.1 307.8,1569.2 306.9,1563.8 C312.5,1557.6 316.2,1551.7 318.6,1547.3 C322.2,1540.6 323.6,1535.9 323.7,1535.7 C324.9,1532.7 325.6,1528.9 325.6,1524.4 C325.6,1521.7 325.3,1518.8 324.9,1515.8 C323.8,1508.7 321.6,1502 319.1,1498.3 C317.8,1496.4 316.6,1495.3 315.4,1495.3 C314.2,1495.3 311.7,1496.5 308.8,1499.3 C306.5,1501.5 303.2,1505.4 300.6,1511.4 C298.3,1516.8 297.6,1523.7 297.6,1529.6 C297.6,1531.4 297.7,1533.1 297.8,1534.7 C298,1538.3 298.7,1544.1 299.3,1547.7 C299.3,1547.8 299.6,1549.3 300,1551.9 L299.3,1552.6 C298.3,1553.6 297.1,1554.7 295.7,1556.1 C294.8,1557 293.9,1557.8 292.9,1558.8 C284.4,1567 271.6,1579.4 271.6,1598.5 C271.6,1603.2 272.5,1607.6 274.3,1611.6 C275.9,1615.2 278.2,1618.5 281.1,1621.4 C288.6,1628.8 298.8,1632 305.9,1632 L306.5,1632 C309.4,1631.9 312.1,1631.6 314.5,1631.2 C316.3,1640.8 317.5,1647.9 317.5,1653.2 C317.5,1659.7 315.9,1663.6 312,1666.4 C309.6,1668.1 306.7,1669.2 303.6,1669.3 L302.8,1669.3 C301.3,1669.3 298.8,1668.9 297.3,1668.5 C297.3,1668.5 297,1668.4 297,1668.2 C297,1668 297.4,1668 297.4,1668 C299.3,1667.6 302.9,1666.3 305.3,1663 C306.4,1661.5 307.1,1659.2 307.1,1656.7 C307.1,1655.1 306.8,1653.4 306.1,1651.9 C305,1649.5 302.4,1646.5 296.8,1646.1 L295.7,1646.1 C293.6,1646.1 291.8,1646.6 290.1,1647.6 C288.3,1648.7 286.7,1650.4 285.7,1652.4 C284.6,1654.4 284.1,1656.6 284.1,1658.8 C284.1,1661.7 285,1664.4 286.8,1666.6 C289.8,1670.2 294.5,1672.5 299.9,1673.1 C300.6,1673.2 301.7,1673.3 302.4,1673.3 C306.8,1673.3 311.2,1672.1 314.8,1669.9 C318.5,1667.3 320.6,1663.3 321.3,1657.7 C321.5,1656.4 321.5,1655 321.5,1653.5 C321.5,1649.6 321,1644.9 320,1639.1 C319.6,1637 319.2,1634 318.5,1630.2 C324.3,1628.3 328.4,1624.6 332.2,1618.8 C334.5,1614.8 335.6,1610.7 335.6,1606.4 C335.6,1604.5 335.4,1602.6 335,1600.7 M304.8,1522.8 C306.6,1517.1 309.3,1513.7 311.3,1512 C313.1,1510.5 314.7,1509.8 315.6,1509.8 C315.7,1509.8 315.9,1509.9 316,1509.9 C316.3,1510 316.7,1510.5 317.1,1511.2 C318,1513 318.9,1516.3 318.9,1520 C318.9,1521.9 318.7,1523.9 318.1,1525.7 C315.9,1532.5 311.3,1539.8 304.3,1547.5 C304.1,1546.4 303.9,1545.4 303.8,1544.4 C303.3,1541.2 303,1538 303,1535.1 C303,1530.6 303.6,1526.5 304.8,1522.8 M300.8,1626.9 C296.2,1625.7 291.7,1623.2 287.9,1619.7 C286.6,1618.5 284.8,1616.3 283.3,1612.9 C282,1609.9 281.3,1606.8 281.3,1603.4 L281.3,1602.7 C281.4,1598 282.7,1593.2 285.2,1588.4 C288.1,1582.8 292.6,1577.3 298.7,1572 C300.2,1570.7 301.6,1569.4 302.9,1568.1 C303.7,1572.4 304.4,1577.1 305.3,1582 C301.4,1583.3 296.7,1586.3 293.6,1592 C291.2,1596.5 290.5,1600.4 290.5,1603.6 C290.5,1605.1 290.7,1606.5 290.9,1607.6 C291.8,1612.1 294.4,1615.8 297.9,1617.9 C298.7,1618.4 302,1620.1 304,1620.1 C304.3,1620.1 304.6,1620.1 304.8,1620 C305.1,1619.9 305.4,1619.7 305.5,1619.4 C305.6,1619.2 305.6,1619 305.6,1618.8 C305.6,1618 304.8,1617.4 303.5,1616.6 C302.9,1616.2 302.2,1615.8 301.5,1615.3 C298.9,1613.3 297.4,1610.2 297.4,1606.8 C297.4,1605.8 297.6,1604.9 297.8,1603.9 C298.3,1601.9 300,1599.1 301.5,1597.7 C303.2,1596.2 305.2,1595 307.6,1594.4 C309.6,1605.6 311.7,1616.7 313.3,1625.1 C313.4,1625.8 313.6,1626.5 313.7,1627.2 C311.7,1627.6 309.7,1627.8 307.8,1627.8 C305.4,1627.8 303.1,1627.5 300.8,1626.9 M326.5,1616.7 C325.3,1619.9 322.8,1623.9 317.7,1626 C317.6,1625.6 317.6,1625.1 317.5,1624.7 C316,1615.9 314.1,1605 312.1,1593.7 L313.1,1593.7 C322.8,1593.7 326.7,1600.9 327.6,1605.5 C327.8,1606.4 327.9,1607.6 327.9,1608.9 C327.9,1611.2 327.5,1614 326.5,1616.7"/>
<path class="Clef" transform="matrix(0.80005,0,0,0.80005,1548.47,1556.59)" d="M25.4,-25.1 C17.8,-25.1 11.7,-20.7 11.6,-20.7 C5.8,-16.4 3.5,-11.3 2.6,-7.8 C2.1,-6 1.9,-4.2 1.9,-2.5 C1.9,-0.1 2.3,2.1 3.2,4 C4.4,6.7 6.7,8.6 9.7,9.6 C10.9,10 12.2,10.2 13.5,10.2 C15.7,10.2 18,9.6 19.9,8.5 C23,6.8 24.9,3.2 24.9,-0.7 C24.9,-4.2 23.1,-7.4 20.1,-9.3 C18,-10.7 16,-11.1 14.3,-11.1 C13.1,-11.1 12,-10.9 11.1,-10.6 C10.1,-10.2 8.4,-9.2 7.6,-8.5 C7.9,-10.4 9.1,-13.3 10.2,-14.9 C11.3,-16.5 13.5,-18.5 15.2,-19.4 C17.7,-20.8 20.9,-21.4 24.4,-21.4 C34.6,-21.4 39.6,-13.2 39.6,3.6 C39.6,12.9 36.1,21.8 33.1,27.7 C29.8,34.3 25.4,40.6 21.5,44.1 C11.1,53.6 1.3,58.1 1.2,58.1 C1.2,58.1 -0.3,59 0.1,60.5 C0.4,61.5 1.3,61.7 1.9,61.7 C2,61.7 2.3,61.6 2.4,61.6 C2.5,61.6 13.9,56.9 23,49.8 C28.1,46.1 32.7,42.1 36.7,37.8 C40.3,33.9 43.4,29.7 45.9,25.5 C50.3,18 52.8,10.2 52.8,3.5 C52.8,-4.8 50.6,-11.7 46.5,-16.6 C41.8,-22.2 34.7,-25.1 25.4,-25.1 M56.8,-12.4 C56.8,-9.6 59,-7.4 61.6,-7.4 C64.2,-7.4 66.4,-9.6 66.4,-12.4 C66.4,-15.2 64.2,-17.5 61.6,-17.5 C59,-17.5 56.8,-15.2 56.8,-12.4 M56.8,12.3 C56.8,15.1 59,17.4 61.6,17.4 C64.2,17.4 66.4,15.1 66.4,12.3 C66.4,9.5 64.2,7.2 61.6,7.2 C59,7.2 56.8,9.5 56.8,12.3"/>
<path class="Clef" d="M335,725.641 C333.8,720.241 331.1,716.341 330.3,715.341 C327.1,711.041 323.1,708.241 318.4,706.841 C316.1,706.141 314,705.941 312,705.941 C311.3,705.941 310.6,705.941 309.9,706.041 C308.9,700.041 307.8,694.141 306.9,688.741 C312.5,682.541 316.2,676.641 318.6,672.241 C322.2,665.541 323.6,660.841 323.7,660.641 C324.9,657.641 325.6,653.841 325.6,649.341 C325.6,646.641 325.3,643.741 324.9,640.741 C323.8,633.641 321.6,626.941 319.1,623.241 C317.8,621.341 316.6,620.241 315.4,620.241 C314.2,620.241 311.7,621.441 308.8,624.241 C306.5,626.441 303.2,630.341 300.6,636.341 C298.3,641.741 297.6,648.641 297.6,654.541 C297.6,656.341 297.7,658.041 297.8,659.641 C298,663.241 298.7,669.041 299.3,672.641 C299.3,672.741 299.6,674.241 300,676.841 L299.3,677.541 C298.3,678.541 297.1,679.641 295.7,681.041 C294.8,681.941 293.9,682.741 292.9,683.741 C284.4,691.941 271.6,704.341 271.6,723.441 C271.6,728.141 272.5,732.541 274.3,736.541 C275.9,740.141 278.2,743.441 281.1,746.341 C288.6,753.741 298.8,756.941 305.9,756.941 L306.5,756.941 C309.4,756.841 312.1,756.541 314.5,756.141 C316.3,765.741 317.5,772.841 317.5,778.141 C317.5,784.641 315.9,788.541 312,791.341 C309.6,793.041 306.7,794.141 303.6,794.241 L302.8,794.241 C301.3,794.241 298.8,793.841 297.3,793.441 C297.3,793.441 297,793.341 297,793.141 C297,792.941 297.4,792.941 297.4,792.941 C299.3,792.541 302.9,791.241 305.3,787.941 C306.4,786.441 307.1,784.141 307.1,781.641 C307.1,780.041 306.8,778.341 306.1,776.841 C305,774.441 302.4,771.441 296.8,771.041 L295.7,771.041 C293.6,771.041 291.8,771.541 290.1,772.541 C288.3,773.641 286.7,775.341 285.7,777.341 C284.6,779.341 284.1,781.541 284.1,783.741 C284.1,786.641 285,789.341 286.8,791.541 C289.8,795.141 294.5,797.441 299.9,798.041 C300.6,798.141 301.7,798.241 302.4,798.241 C306.8,798.241 311.2,797.041 314.8,794.841 C318.5,792.241 320.6,788.241 321.3,782.641 C321.5,781.341 321.5,779.941 321.5,778.441 C321.5,774.541 321,769.841 320,764.041 C319.6,761.941 319.2,758.941 318.5,755.141 C324.3,753.241 328.4,749.541 332.2,743.741 C334.5,739.741 335.6,735.641 335.6,731.341 C335.6,729.441 335.4,727.541 335,725.641 M304.8,647.741 C306.6,642.041 309.3,638.641 311.3,636.941 C313.1,635.441 314.7,634.741 315.6,634.741 C315.7,634.741 315.9,634.841 316,634.841 C316.3,634.941 316.7,635.441 317.1,636.141 C318,637.941 318.9,641.241 318.9,644.941 C318.9,646.841 318.7,648.841 318.1,650.641 C315.9,657.441 311.3,664.741 304.3,672.441 C304.1,671.341 303.9,670.341 303.8,669.341 C303.3,666.141 303,662.941 303,660.041 C303,655.541 303.6,651.441 304.8,647.741 M300.8,751.841 C296.2,750.641 291.7,748.141 287.9,744.641 C286.6,743.441 284.8,741.241 283.3,737.841 C282,734.841 281.3,731.741 281.3,728.341 L281.3,727.641 C281.4,722.941 282.7,718.141 285.2,713.341 C288.1,707.741 292.6,702.241 298.7,696.941 C300.2,695.641 301.6,694.341 302.9,693.041 C303.7,697.341 304.4,702.041 305.3,706.941 C301.4,708.241 296.7,711.241 293.6,716.941 C291.2,721.441 290.5,725.341 290.5,728.541 C290.5,730.041 290.7,731.441 290.9,732.541 C291.8,737.041 294.4,740.741 297.9,742.841 C298.7,743.341 302,745.041 304,745.041 C304.3,745.041 304.6,745.041 304.8,744.941 C305.1,744.841 305.4,744.641 305.5,744.341 C305.6,744.141 305.6,743.941 305.6,743.741 C305.6,742.941 304.8,742.341 303.5,741.541 C302.9,741.141 302.2,740.741 301.5,740.241 C298.9,738.241 297.4,735.141 297.4,731.741 C297.4,730.741 297.6,729.841 297.8,728.841 C298.3,726.841 300,724.041 301.5,722.641 C303.2,721.141 305.2,719.941 307.6,719.341 C309.6,730.541 311.7,741.641 313.3,750.041 C313.4,750.741 313.6,751.441 313.7,752.141 C311.7,752.541 309.7,752.741 307.8,752.741 C305.4,752.741 303.1,752.441 300.8,751.841 M326.5,741.641 C325.3,744.841 322.8,748.841 317.7,750.941 C317.6,750.541 317.6,750.041 317.5,749.641 C316,740.841 314.1,729.941 312.1,718.641 L313.1,718.641 C322.8,718.641 326.7,725.841 327.6,730.441 C327.8,731.341 327.9,732.541 327.9,733.841 C327.9,736.141 327.5,738.941 326.5,741.641"/>
<path class="Clef" d="M335,1338.18 C333.8,1332.78 331.1,1328.88 330.3,1327.88 C327.1,1323.58 323.1,1320.78 318.4,1319.38 C316.1,1318.68 314,1318.48 312,1318.48 C311.3,1318.48 310.6,1318.48 309.9,1318.58 C308.9,1312.58 307.8,1306.68 306.9,1301.28 C312.5,1295.08 316.2,1289.18 318.6,1284.78 C322.2,1278.08 323.6,1273.38 323.7,1273.18 C324.9,1270.18 325.6,1266.38 325.6,1261.88 C325.6,1259.18 325.3,1256.28 324.9,1253.28 C323.8,1246.18 321.6,1239.48 319.1,1235.78 C317.8,1233.88 316.6,1232.78 315.4,1232.78 C314.2,1232.78 311.7,1233.98 308.8,1236.78 C306.5,1238.98 303.2,1242.88 300.6,1248.88 C298.3,1254.28 297.6,1261.18 297.6,1267.08 C297.6,1268.88 297.7,1270.58 297.8,1272.18 C298,1275.78 298.7,1281.58 299.3,1285.18 C299.3,1285.28 299.6,1286.78 300,1289.38 L299.3,1290.08 C298.3,1291.08 297.1,1292.18 295.7,1293.58 C294.8,1294.48 293.9,1295.28 292.9,1296.28 C284.4,1304.48 271.6,1316.88 271.6,1335.98 C271.6,1340.68 272.5,1345.08 274.3,1349.08 C275.9,1352.68 278.2,1355.98 281.1,1358.88 C288.6,1366.28 298.8,1369.48 305.9,1369.48 L306.5,1369.48 C309.4,1369.38 312.1,1369.08 314.5,1368.68 C316.3,1378.28 317.5,1385.38 317.5,1390.68 C317.5,1397.18 315.9,1401.08 312,1403.88 C309.6,1405.58 306.7,1406.68 303.6,1406.78 L302.8,1406.78 C301.3,1406.78 298.8,1406.38 297.3,1405.98 C297.3,1405.98 297,1405.88 297,1405.68 C297,1405.48 297.4,1405.48 297.4,1405.48 C299.3,1405.08 302.9,1403.78 305.3,1400.48 C306.4,1398.98 307.1,1396.68 307.1,1394.18 C307.1,1392.58 306.8,1390.88 306.1,1389.38 C305,1386.98 302.4,1383.98 296.8,1383.58 L295.7,1383.58 C293.6,1383.58 291.8,1384.08 290.1,1385.08 C288.3,1386.18 286.7,1387.88 285.7,1389.88 C284.6,1391.88 284.1,1394.08 284.1,1396.28 C284.1,1399.18 285,1401.88 286.8,1404.08 C289.8,1407.68 294.5,1409.98 299.9,1410.58 C300.6,1410.68 301.7,1410.78 302.4,1410.78 C306.8,1410.78 311.2,1409.58 314.8,1407.38 C318.5,1404.78 320.6,1400.78 321.3,1395.18 C321.5,1393.88 321.5,1392.48 321.5,1390.98 C321.5,1387.08 321,1382.38 320,1376.58 C319.6,1374.48 319.2,1371.48 318.5,1367.68 C324.3,1365.78 328.4,1362.08 332.2,1356.28 C334.5,1352.28 335.6,1348.18 335.6,1343.88 C335.6,1341.98 335.4,1340.08 335,1338.18 M304.8,1260.28 C306.6,1254.58 309.3,1251.18 311.3,1249.48 C313.1,1247.98 314.7,1247.28 315.6,1247.28 C315.7,1247.28 315.9,1247.38 316,1247.38 C316.3,1247.48 316.7,1247.98 317.1,1248.68 C318,1250.48 318.9,1253.78 318.9,1257.48 C318.9,1259.38 318.7,1261.38 318.1,1263.18 C315.9,1269.98 311.3,1277.28 304.3,1284.98 C304.1,1283.88 303.9,1282.88 303.8,1281.88 C303.3,1278.68 303,1275.48 303,1272.58 C303,1268.08 303.6,1263.98 304.8,1260.28 M300.8,1364.38 C296.2,1363.18 291.7,1360.68 287.9,1357.18 C286.6,1355.98 284.8,1353.78 283.3,1350.38 C282,1347.38 281.3,1344.28 281.3,1340.88 L281.3,1340.18 C281.4,1335.48 282.7,1330.68 285.2,1325.88 C288.1,1320.28 292.6,1314.78 298.7,1309.48 C300.2,1308.18 301.6,1306.88 302.9,1305.58 C303.7,1309.88 304.4,1314.58 305.3,1319.48 C301.4,1320.78 296.7,1323.78 293.6,1329.48 C291.2,1333.98 290.5,1337.88 290.5,1341.08 C290.5,1342.58 290.7,1343.98 290.9,1345.08 C291.8,1349.58 294.4,1353.28 297.9,1355.38 C298.7,1355.88 302,1357.58 304,1357.58 C304.3,1357.58 304.6,1357.58 304.8,1357.48 C305.1,1357.38 305.4,1357.18 305.5,1356.88 C305.6,1356.68 305.6,1356.48 305.6,1356.28 C305.6,1355.48 304.8,1354.88 303.5,1354.08 C302.9,1353.68 302.2,1353.28 301.5,1352.78 C298.9,1350.78 297.4,1347.68 297.4,1344.28 C297.4,1343.28 297.6,1342.38 297.8,1341.38 C298.3,1339.38 300,1336.58 301.5,1335.18 C303.2,1333.68 305.2,1332.48 307.6,1331.88 C309.6,1343.08 311.7,1354.18 313.3,1362.58 C313.4,1363.28 313.6,1363.98 313.7,1364.68 C311.7,1365.08 309.7,1365.28 307.8,1365.28 C305.4,1365.28 303.1,1364.98 300.8,1364.38 M326.5,1354.18 C325.3,1357.38 322.8,1361.38 317.7,1363.48 C317.6,1363.08 317.6,1362.58 317.5,1362.18 C316,1353.38 314.1,1342.48 312.1,1331.18 L313.1,1331.18 C322.8,1331.18 326.7,1338.38 327.6,1342.98 C327.8,1343.88 327.9,1345.08 327.9,1346.38 C327.9,1348.68 327.5,1351.48 326.5,1354.18"/>
<path class="TimeSig" d="M365.2,957.453 L382,957.453 L382,964.753 L373.9,964.753 C373.1,964.753 372.5,965.353 372.5,966.153 L372.5,968.053 C372.5,968.853 373.1,969.353 373.9,969.353 L403.6,969.353 C404.4,969.353 405,968.853 405,968.053 L405,966.153 C405,965.353 404.4,964.753 403.6,964.753 L394.8,964.753 L394.8,957.453 L403.6,957.453 C404.4,957.453 405,956.853 405,956.053 L405,954.253 C405,953.453 404.4,952.853 403.6,952.853 L394.8,952.853 L394.8,937.153 C394.8,936.653 394.4,936.153 394,935.953 L392.9,935.353 C392.7,935.253 392.4,935.253 392.2,935.253 C391.9,935.253 391.5,935.353 391.3,935.553 L382.4,943.753 C382.2,943.953 382,944.453 382,944.753 L382,952.853 L370.7,952.853 C370.7,952.853 381.6,941.053 393.2,925.553 C394,924.453 393.6,923.453 393.4,923.253 L391.3,921.053 C391.1,920.853 390.6,920.653 390.3,920.653 L375.7,920.653 C375,920.653 374.5,921.253 374.4,921.853 C374.4,921.853 373.9,929.053 371.3,937.053 C368.7,945.053 365.9,949.853 363.3,953.453 C363.3,953.453 362.8,954.453 363.1,955.153 C363.4,955.853 364.1,956.953 364.1,956.953 C364.1,956.953 364.4,957.453 365.2,957.453"/>
<path class="TimeSig" d="M365.2,1006.06 L382,1006.06 L382,1013.36 L373.9,1013.36 C373.1,1013.36 372.5,1013.96 372.5,1014.76 L372.5,1016.66 C372.5,1017.46 373.1,1017.96 373.9,1017.96 L403.6,1017.96 C404.4,1017.96 405,1017.46 405,1016.66 L405,1014.76 C405,1013.96 404.4,1013.36 403.6,1013.36 L394.8,1013.36 L394.8,1006.06 L403.6,1006.06 C404.4,1006.06 405,1005.46 405,1004.66 L405,1002.86 C405,1002.06 404.4,1001.46 403.6,1001.46 L394.8,1001.46 L394.8,985.758 C394.8,985.258 394.4,984.758 394,984.558 L392.9,983.958 C392.7,983.858 392.4,983.858 392.2,983.858 C391.9,983.858 391.5,983.958 391.3,984.158 L382.4,992.358 C382.2,992.558 382,993.058 382,993.358 L382,1001.46 L370.7,1001.46 C370.7,1001.46 381.6,989.658 393.2,974.158 C394,973.058 393.6,972.058 393.4,971.858 L391.3,969.658 C391.1,969.458 390.6,969.258 390.3,969.258 L375.7,969.258 C375,969.258 374.5,969.858 374.4,970.458 C374.4,970.458 373.9,977.658 371.3,985.658 C368.7,993.658 365.9,998.458 363.3,1002.06 C363.3,1002.06 362.8,1003.06 363.1,1003.76 C363.4,1004.46 364.1,1005.56 364.1,1005.56 C364.1,1005.56 364.4,1006.06 365.2,1006.06"/>
<path class="TimeSig" d="M365.2,694.937 L382,694.937 L382,702.237 L373.9,702.237 C373.1,702.237 372.5,702.837 372.5,703.637 L372.5,705.537 C372.5,706.337 373.1,706.837 373.9,706.837 L403.6,706.837 C404.4,706.837 405,706.337 405,705.537 L405,703.637 C405,702.837 404.4,702.237 403.6,702.237 L394.8,702.237 L394.8,694.937 L403.6,694.937 C404.4,694.937 405,694.337 405,693.537 L405,691.737 C405,690.937 404.4,690.337 403.6,690.337 L394.8,690.337 L394.8,674.637 C394.8,674.137 394.4,673.637 394,673.437 L392.9,672.837 C392.7,672.737 392.4,672.737 392.2,672.737 C391.9,672.737 391.5,672.837 391.3,673.037 L382.4,681.237 C382.2,681.437 382,681.937 382,682.237 L382,690.337 L370.7,690.337 C370.7,690.337 381.6,678.537 393.2,663.037 C394,661.937 393.6,660.937 393.4,660.737 L391.3,658.537 C391.1,658.337 390.6,658.137 390.3,658.137 L375.7,658.137 C375,658.137 374.5,658.737 374.4,659.337 C374.4,659.337 373.9,666.537 371.3,674.537 C368.7,682.537 365.9,687.337 363.3,690.937 C363.3,690.937 362.8,691.937 363.1,692.637 C363.4,693.337 364.1,694.437 364.1,694.437 C364.1,694.437 364.4,694.937 365.2,694.937"/>
<path class="TimeSig" d="M365.2,743.541 L382,743.541 L382,750.841 L373.9,750.841 C373.1,750.841 372.5,751.441 372.5,752.241 L372.5,754.141 C372.5,754.941 373.1,755.441 373.9,755.441 L403.6,755.441 C404.4,755.441 405,754.941 405,754.141 L405,752.241 C405,751.441 404.4,750.841 403.6,750.841 L394.8,750.841 L394.8,743.541 L403.6,743.541 C404.4,743.541 405,742.941 405,742.141 L405,740.341 C405,739.541 404.4,738.941 403.6,738.941 L394.8,738.941 L394.8,723.241 C394.8,722.741 394.4,722.241 394,722.041 L392.9,721.441 C392.7,721.341 392.4,721.341 392.2,721.341 C391.9,721.341 391.5,721.441 391.3,721.641 L382.4,729.841 C382.2,730.041 382,730.541 382,730.841 L382,738.941 L370.7,738.941 C370.7,738.941 381.6,727.141 393.2,711.641 C394,710.541 393.6,709.541 393.4,709.341 L391.3,707.141 C391.1,706.941 390.6,706.741 390.3,706.741 L375.7,706.741 C375,706.741 374.5,707.341 374.4,707.941 C374.4,707.941 373.9,715.141 371.3,723.141 C368.7,731.141 365.9,735.941 363.3,739.541 C363.3,739.541 362.8,740.541 363.1,741.241 C363.4,741.941 364.1,743.041 364.1,743.041 C364.1,743.041 364.4,743.541 365.2,743.541"/>
<path class="NoteDot" d="M2448.94,1594.1 C2448.94,1596.69 2451.04,1598.8 2453.64,1598.8 C2456.23,1598.8 2458.34,1596.69 2458.34,1594.1 C2458.34,1591.5 2456.23,1589.4 2453.64,1589.4 C2451.04,1589.4 2448.94,1591.5 2448.94,1594.1"/>
<path class="NoteDot" d="M2448.94,1381.58 C2448.94,1384.18 2451.04,1386.28 2453.64,1386.28 C2456.23,1386.28 2458.34,1384.18 2458.34,1381.58 C2458.34,1378.99 2456.23,1376.88 2453.64,1376.88 C2451.04,1376.88 2448.94,1378.99 2448.94,1381.58"/>
<path class="Bracket" transform="matrix(3.62523,0,0,3.62523,214.469,1019.06)" d="M0.92002,-50 C2.69004,-51.88 6.2,-55.8 6.2,-63 C6.2,-72.1 2.25996,-81.32 2.25996,-86.97 C2.25996,-93.06 5.84004,-98.84 5.95,-99 C6.05996,-99.16 6.05,-99.39 5.94004,-99.46 C5.82998,-99.53 5.62002,-99.47 5.49004,-99.32 C5.35996,-99.17 0,-93.75 0,-85.6 C0,-76.75 3.5,-70.58 3.5,-59.07 C3.5,-56.89 2.55996,-53.36 0.1,-50.33 C-0.0799805,-50.17 -0.1,-49.89 0.0599609,-49.7 L0.0700195,-49.69 L0.1,-49.66 C2.55996,-46.63 3.5,-43.1 3.5,-40.92 C3.5,-29.4 0,-23.24 0,-14.39 C0,-6.25 5.35996,-0.8 5.49004,-0.659961 C5.62002,-0.52002 5.8,-0.42998 5.94004,-0.52002 C6.07998,-0.609961 6.07998,-0.77998 5.95,-0.97998 C5.82002,-1.17998 2.25996,-6.92002 2.25996,-13.01 C2.25996,-18.66 6.2,-27.9 6.2,-37 C6.2,-44.3 2.69004,-48.12 0.92002,-50"/>
<path class="Bracket" transform="matrix(3.62523,0,0,3.62523,214.469,1631.6)" d="M0.92002,-50 C2.69004,-51.88 6.2,-55.8 6.2,-63 C6.2,-72.1 2.25996,-81.32 2.25996,-86.97 C2.25996,-93.06 5.84004,-98.84 5.95,-99 C6.05996,-99.16 6.05,-99.39 5.94004,-99.46 C5.82998,-99.53 5.62002,-99.47 5.49004,-99.32 C5.35996,-99.17 0,-93.75 0,-85.6 C0,-76.75 3.5,-70.58 3.5,-59.07 C3.5,-56.89 2.55996,-53.36 0.1,-50.33 C-0.0799805,-50.17 -0.1,-49.89 0.0599609,-49.7 L0.0700195,-49.69 L0.1,-49.66 C2.55996,-46.63 3.5,-43.1 3.5,-40.92 C3.5,-29.4 0,-23.24 0,-14.39 C0,-6.25 5.35996,-0.8 5.49004,-0.659961 C5.62002,-0.52002 5.8,-0.42998 5.94004,-0.52002 C6.07998,-0.609961 6.07998,-0.77998 5.95,-0.97998 C5.82002,-1.17998 2.25996,-6.92002 2.25996,-13.01 C2.25996,-18.66 6.2,-27.9 6.2,-37 C6.2,-44.3 2.69004,-48.12 0.92002,-50"/>
</svg>