<?xml version="1.0" encoding="UTF-8" standalone="no"?>
<svg width="1000px" height="500px" viewBox="150 650 2700 1000" xmlns="http://www.w3.org/2000/svg" xmlns:xlink="http://www.w3.org/1999/xlink" version="1.2" baseProfile="tiny">
 xmlns="http://www.w3.org/2000/svg" xmlns:xlink="http://www.w3.org/1999/xlink" version="1.2" baseProfile="tiny">
<title>exercises_scores (44)</title>
<desc>Generated by MuseScore 3.6.0</desc>
<polyline class="StaffLines" fill="none" stroke="#000000" stroke-width="2.75" stroke-linejoin="bevel" points="247.099,656.536 2764.63,656.536"/>
<polyline class="StaffLines" fill="none" stroke="#000000" stroke-width="2.75" stroke-linejoin="bevel" points="247.099,681.538 2764.63,681.538"/>
<polyline class="StaffLines" fill="none" stroke="#000000" stroke-width="2.75" stroke-linejoin="bevel" points="247.099,706.539 2764.63,706.539"/>
<polyline class="StaffLines" fill="none" stroke="#000000" stroke-width="2.75" stroke-linejoin="bevel" points="247.099,731.541 2764.63,731.541"/>
<polyline class="StaffLines" fill="none" stroke="#000000" stroke-width="2.75" stroke-linejoin="bevel" points="247.099,756.542 2764.63,756.542"/>
<polyline class="StaffLines" fill="none" stroke="#000000" stroke-width="2.75" stroke-linejoin="bevel" points="247.099,919.053 2764.63,919.053"/>
<polyline class="StaffLines" fill="none" stroke="#000000" stroke-width="2.75" stroke-linejoin="bevel" points="247.099,944.054 2764.63,944.054"/>
<polyline class="StaffLines" fill="none" stroke="#000000" stroke-width="2.75" stroke-linejoin="bevel" points="247.099,969.056 2764.63,969.056"/>
<polyline class="StaffLines" fill="none" stroke="#000000" stroke-width="2.75" stroke-linejoin="bevel" points="247.099,994.057 2764.63,994.057"/>
<polyline class="StaffLines" fill="none" stroke="#000000" stroke-width="2.75" stroke-linejoin="bevel" points="247.099,1019.06 2764.63,1019.06"/>
<polyline class="StaffLines" fill="none" stroke="#000000" stroke-width="2.75" stroke-linejoin="bevel" points="247.099,1269.07 2764.63,1269.07"/>
<polyline class="StaffLines" fill="none" stroke="#000000" stroke-width="2.75" stroke-linejoin="bevel" points="247.099,1294.08 2764.63,1294.08"/>
<polyline class="StaffLines" fill="none" stroke="#000000" stroke-width="2.75" stroke-linejoin="bevel" points="247.099,1319.08 2764.63,1319.08"/>
<polyline class="StaffLines" fill="none" stroke="#000000" stroke-width="2.75" stroke-linejoin="bevel" points="247.099,1344.08 2764.63,1344.08"/>
<polyline class="StaffLines" fill="none" stroke="#000000" stroke-width="2.75" stroke-linejoin="bevel" points="247.099,1369.08 2764.63,1369.08"/>
<polyline class="StaffLines" fill="none" stroke="#000000" stroke-width="2.75" stroke-linejoin="bevel" points="247.099,1531.59 2764.63,1531.59"/>
<polyline class="StaffLines" fill="none" stroke="#000000" stroke-width="2.75" stroke-linejoin="bevel" points="247.099,1556.59 2764.63,1556.59"/>
<polyline class="StaffLines" fill="none" stroke="#000000" stroke-width="2.75" stroke-linejoin="bevel" points="247.099,1581.59 2764.63,1581.59"/>
<polyline class="StaffLines" fill="none" stroke="#000000" stroke-width="2.75" stroke-linejoin="bevel" points="247.099,1606.6 2764.63,1606.6"/>
<polyline class="StaffLines" fill="none" stroke="#000000" stroke-width="2.75" stroke-linejoin="bevel" points="247.099,1631.6 2764.63,1631.6"/>
<path class="Text" d="M212.602,213.497 L212.602,216.317 L213.682,216.317 C217.102,216.377 218.242,216.557 218.722,217.157 C219.082,217.697 219.082,217.817 219.082,220.877 L219.082,249.437 C219.082,252.497 219.082,252.617 218.722,253.157 C218.242,253.757 217.102,253.997 213.682,253.997 L212.602,253.997 L212.602,256.817 L234.382,256.817 C244.762,256.817 251.002,252.437 251.002,245.057 C251.002,239.057 247.222,235.637 239.002,234.197 C241.882,233.597 243.202,233.057 244.762,231.917 C247.222,230.057 248.722,227.117 248.722,224.117 C248.722,220.217 246.322,216.437 242.842,214.937 C240.682,213.977 237.682,213.497 234.142,213.497 L212.602,213.497 M225.802,232.997 L225.802,219.317 C225.802,216.977 226.582,216.377 229.762,216.317 L232.162,216.317 C234.922,216.317 237.202,216.797 238.462,217.577 C240.622,218.897 241.762,221.417 241.762,224.777 C241.762,230.717 238.882,232.997 231.142,232.997 L225.802,232.997 M225.802,235.817 L231.082,235.817 C240.262,235.817 243.622,238.277 243.622,244.877 C243.622,248.717 242.302,251.477 239.962,252.617 C238.102,253.577 235.582,253.997 231.802,253.997 L229.282,253.997 C226.282,253.997 225.682,253.397 225.802,250.217 L225.802,235.817 M265.994,228.857 L255.374,229.517 L255.374,232.097 L257.834,232.097 C260.114,232.157 260.414,232.517 260.414,235.097 L260.414,249.437 L260.414,252.257 C260.354,253.157 260.294,253.517 260.054,253.817 C259.634,254.357 258.434,254.597 255.854,254.657 L255.614,254.657 L255.614,256.817 L271.634,256.817 L271.634,254.657 L270.554,254.657 C266.534,254.537 265.994,254.237 265.994,252.077 L265.994,249.437 L265.994,248.837 C266.054,238.757 269.654,231.077 274.334,230.837 C273.494,231.797 273.254,232.397 273.254,233.537 C273.254,235.457 274.634,236.837 276.554,236.837 C278.774,236.837 280.214,235.217 280.214,232.817 C280.214,229.877 278.174,227.957 274.994,227.957 C271.214,227.957 267.974,230.957 265.994,236.297 L265.994,228.857 M295.562,227.957 C288.182,227.957 282.482,234.497 282.482,242.897 C282.482,251.117 288.242,257.717 295.442,257.717 C302.642,257.717 308.402,251.117 308.402,242.837 C308.402,234.617 302.642,227.957 295.562,227.957 M295.562,230.537 C299.762,230.537 302.102,234.917 302.102,242.837 C302.102,250.817 299.762,255.137 295.442,255.137 C291.122,255.137 288.782,250.817 288.782,242.897 C288.782,234.737 291.062,230.537 295.562,230.537 M322.382,242.297 L322.382,212.597 L311.282,213.257 L311.282,215.837 L314.162,215.837 C316.442,215.897 316.742,216.257 316.742,218.837 L316.742,249.437 L316.742,252.317 C316.682,253.157 316.622,253.517 316.382,253.817 C315.962,254.357 314.822,254.597 312.242,254.657 L312.002,254.657 L312.002,256.817 L327.182,256.817 L327.182,254.657 L326.942,254.657 C322.922,254.537 322.382,254.237 322.382,252.077 L322.382,249.437 L322.382,246.017 L326.042,242.537 L333.182,252.557 C333.482,253.037 333.602,253.337 333.602,253.577 C333.602,254.417 332.942,254.657 330.962,254.657 L329.822,254.657 L329.822,256.817 L345.662,256.817 L345.662,254.657 C342.302,254.357 341.102,253.637 338.642,250.517 L330.122,238.877 L332.822,236.237 C336.362,232.817 338.882,231.497 342.962,231.017 L342.962,228.857 L327.182,228.857 L327.182,231.017 L329.042,231.017 C330.962,231.017 331.862,231.377 331.862,232.157 C331.862,232.817 331.442,233.537 330.482,234.497 L322.382,242.297 M372.842,243.317 C372.902,234.317 367.802,227.957 360.482,227.957 C352.802,227.957 347.042,234.617 347.042,243.617 C347.042,252.077 352.502,257.717 360.602,257.717 C366.362,257.717 370.382,254.897 372.842,249.197 L370.742,248.057 C368.282,252.677 365.762,254.477 361.742,254.477 C358.682,254.477 356.462,253.217 354.902,250.517 C353.822,248.717 353.342,246.617 353.402,243.317 L372.842,243.317 M353.462,240.737 C353.462,238.877 353.702,237.557 354.302,235.877 C355.562,232.277 357.482,230.537 360.422,230.537 C364.022,230.537 366.422,233.717 366.422,238.577 C366.422,240.257 365.882,240.737 363.962,240.737 L353.462,240.737 M386.942,228.857 L376.562,229.517 L376.562,232.097 L378.722,232.097 C381.002,232.157 381.302,232.517 381.302,235.097 L381.302,249.437 L381.302,250.877 L381.302,252.257 C381.242,253.157 381.182,253.517 380.942,253.817 C380.522,254.357 379.382,254.597 376.802,254.657 L376.562,254.657 L376.562,256.817 L391.742,256.817 L391.742,254.657 L391.502,254.657 C387.482,254.537 386.942,254.237 386.942,252.077 L386.942,249.437 L386.942,243.197 C386.942,240.257 387.362,237.557 388.022,236.177 C389.282,233.477 391.982,231.617 394.562,231.617 C396.122,231.617 397.922,232.457 398.822,233.717 C399.722,235.037 400.142,236.837 400.142,239.717 L400.142,249.437 L400.142,252.257 C400.082,253.157 400.022,253.517 399.782,253.817 C399.362,254.357 398.162,254.597 395.582,254.657 L395.342,254.657 L395.342,256.817 L410.522,256.817 L410.522,254.657 L410.282,254.657 C406.322,254.537 405.782,254.237 405.782,252.077 L405.782,249.437 L405.782,240.017 C405.782,235.697 405.602,234.617 404.522,232.577 C403.022,229.697 400.022,227.957 396.422,227.957 C392.522,227.957 389.582,229.757 386.942,233.717 L386.942,228.857 M466.61,213.077 L464.33,213.077 L461.93,216.617 C457.55,213.437 455.33,212.597 451.19,212.597 C445.49,212.597 440.63,214.997 436.61,219.797 C432.77,224.357 430.97,229.397 430.97,235.577 C430.97,248.537 439.43,257.717 451.25,257.717 C460.85,257.717 466.97,252.077 468.35,241.997 L465.53,241.517 C463.91,250.457 459.35,254.897 451.97,254.897 C443.09,254.897 438.89,248.777 438.89,235.817 C438.89,228.977 439.79,224.477 441.83,220.877 C443.69,217.517 447.35,215.417 451.25,215.417 C455.45,215.417 459.17,217.637 461.45,221.477 C462.59,223.457 463.43,225.677 464.87,230.417 L467.51,230.417 L466.61,213.077 M483.583,212.597 L472.483,213.257 L472.483,215.837 L475.363,215.837 C477.643,215.897 477.943,216.257 477.943,218.837 L477.943,249.437 L477.943,250.877 L477.943,252.317 C477.883,253.157 477.823,253.517 477.583,253.817 C477.163,254.357 476.023,254.597 473.443,254.657 L473.203,254.657 L473.203,256.817 L488.383,256.817 L488.383,254.657 L488.143,254.657 C484.123,254.537 483.583,254.237 483.583,252.077 L483.583,249.437 L483.583,243.197 C483.583,240.257 484.003,237.557 484.663,236.177 C485.983,233.477 488.623,231.617 491.203,231.617 C492.763,231.617 494.563,232.517 495.403,233.717 C496.363,235.037 496.783,236.837 496.783,239.777 L496.783,249.437 L496.783,252.317 C496.723,253.157 496.663,253.517 496.423,253.817 C496.003,254.357 494.803,254.597 492.223,254.657 L491.983,254.657 L491.983,256.817 L507.163,256.817 L507.163,254.657 L506.923,254.657 C502.963,254.537 502.423,254.237 502.423,252.077 L502.423,249.437 L502.423,240.017 C502.423,235.697 502.243,234.617 501.163,232.577 C499.663,229.637 496.663,227.957 493.063,227.957 C489.163,227.957 486.283,229.697 483.583,233.717 L483.583,212.597 M523.359,227.957 C515.979,227.957 510.279,234.497 510.279,242.897 C510.279,251.117 516.039,257.717 523.239,257.717 C530.439,257.717 536.199,251.117 536.199,242.837 C536.199,234.617 530.439,227.957 523.359,227.957 M523.359,230.537 C527.559,230.537 529.899,234.917 529.899,242.837 C529.899,250.817 527.559,255.137 523.239,255.137 C518.919,255.137 516.579,250.817 516.579,242.897 C516.579,234.737 518.859,230.537 523.359,230.537 M550.119,228.857 L539.499,229.517 L539.499,232.097 L541.959,232.097 C544.239,232.157 544.539,232.517 544.539,235.097 L544.539,249.437 L544.539,252.257 C544.479,253.157 544.419,253.517 544.179,253.817 C543.759,254.357 542.559,254.597 539.979,254.657 L539.739,254.657 L539.739,256.817 L555.759,256.817 L555.759,254.657 L554.679,254.657 C550.659,254.537 550.119,254.237 550.119,252.077 L550.119,249.437 L550.119,248.837 C550.179,238.757 553.779,231.077 558.459,230.837 C557.619,231.797 557.379,232.397 557.379,233.537 C557.379,235.457 558.759,236.837 560.679,236.837 C562.899,236.837 564.339,235.217 564.339,232.817 C564.339,229.877 562.299,227.957 559.119,227.957 C555.339,227.957 552.099,230.957 550.119,236.297 L550.119,228.857 M587.18,257.237 L597.62,256.817 L597.62,254.237 L596.54,254.237 C593.12,254.057 592.82,253.697 592.82,249.857 L592.82,212.597 L581.06,213.257 L581.06,215.837 L584.6,215.837 C586.88,215.897 587.18,216.257 587.18,218.837 L587.18,232.397 C584.96,229.337 582.38,227.957 578.9,227.957 C572.12,227.957 566.96,234.497 566.96,243.137 C566.96,251.657 571.94,257.717 578.9,257.717 C582.68,257.717 585.26,256.097 587.18,252.497 L587.18,257.237 M580.1,231.197 C582.56,231.197 584.9,232.997 585.98,235.757 C586.76,237.557 587.12,240.017 587.12,242.957 C587.12,249.977 584.36,254.477 580.04,254.477 C575.78,254.477 573.26,250.517 573.26,243.857 C573.26,240.257 573.62,237.557 574.4,235.577 C575.42,232.877 577.64,231.197 580.1,231.197 M607.757,250.157 C605.657,250.157 603.977,251.837 603.977,253.877 C603.977,255.977 605.657,257.657 607.697,257.657 C609.797,257.657 611.477,255.977 611.477,253.877 C611.477,251.837 609.797,250.157 607.757,250.157 M607.757,228.437 C605.657,228.437 603.977,230.117 603.977,232.217 C603.977,234.257 605.657,235.937 607.697,235.937 C609.797,235.937 611.477,234.257 611.477,232.157 C611.477,230.117 609.797,228.437 607.757,228.437 M633.901,256.817 L654.061,256.817 C659.401,256.817 663.481,255.977 666.661,254.177 C672.721,250.757 676.081,243.917 676.081,234.917 C676.081,226.637 673.081,220.157 667.561,216.557 C664.261,214.457 659.821,213.497 652.981,213.497 L633.901,213.497 L633.901,216.317 L635.041,216.317 C638.401,216.377 639.541,216.557 640.021,217.157 C640.381,217.697 640.381,217.817 640.381,220.877 L640.381,249.437 C640.381,252.497 640.381,252.617 640.021,253.157 C639.541,253.757 638.401,253.937 635.041,253.997 L633.901,253.997 L633.901,256.817 M650.521,253.997 C647.461,253.997 647.101,253.637 647.101,250.697 L647.101,219.677 C647.101,216.737 647.521,216.317 650.521,216.317 L653.641,216.317 C663.901,216.317 668.161,221.897 668.161,235.157 C668.161,248.597 664.321,253.997 654.601,253.997 L650.521,253.997 M707.565,228.857 L696.885,229.517 L696.885,232.097 L699.345,232.097 C701.625,232.157 701.925,232.517 701.925,235.097 L701.925,249.437 L701.925,251.777 L701.925,252.257 C701.865,253.157 701.805,253.517 701.565,253.817 C701.145,254.357 700.005,254.597 697.425,254.657 L697.185,254.657 L697.185,256.817 L712.305,256.817 L712.305,254.657 L712.065,254.657 C708.105,254.537 707.565,254.237 707.565,252.017 L707.565,249.437 L707.565,240.917 C707.565,235.577 710.505,231.617 714.405,231.617 C717.825,231.617 719.565,234.077 719.565,238.937 L719.565,249.437 L719.565,252.317 C719.505,253.097 719.445,253.517 719.145,253.817 C718.785,254.357 717.585,254.597 715.005,254.657 L714.765,254.657 L714.765,256.817 L729.945,256.817 L729.945,254.657 L729.705,254.657 C725.745,254.537 725.205,254.237 725.205,252.077 L725.205,249.437 L725.205,241.457 C725.205,235.457 727.905,231.617 732.105,231.617 C735.525,231.617 737.205,234.197 737.205,239.597 L737.205,249.437 L737.205,252.257 C737.145,253.097 737.085,253.517 736.785,253.817 C736.425,254.357 735.225,254.597 732.645,254.657 L732.405,254.657 L732.405,256.817 L747.585,256.817 L747.585,254.657 L747.345,254.657 C743.385,254.537 742.845,254.237 742.845,252.017 L742.845,249.437 L742.845,238.397 C742.845,234.677 742.485,233.417 740.925,231.377 C739.185,229.157 736.725,227.957 733.845,227.957 C729.945,227.957 727.065,229.817 724.485,233.957 C723.465,230.357 720.225,227.957 716.205,227.957 C712.545,227.957 709.905,229.697 707.565,233.477 L707.565,228.857 M775.953,237.497 C775.953,233.717 775.293,231.797 773.553,230.357 C771.573,228.737 768.633,227.957 764.793,227.957 C758.013,227.957 753.093,231.137 753.093,235.517 C753.093,237.737 754.473,239.177 756.573,239.177 C758.493,239.177 759.813,237.917 759.813,236.117 C759.813,235.337 759.513,234.497 758.913,233.657 C758.553,233.237 758.493,233.117 758.493,232.817 C758.493,231.617 760.893,230.537 763.773,230.537 C765.693,230.537 767.793,231.137 768.753,232.037 C769.893,232.997 770.313,234.437 770.313,237.137 L770.313,239.477 C764.073,240.557 762.093,241.037 759.153,242.177 C753.933,244.097 751.473,246.857 751.473,250.697 C751.473,255.017 754.833,257.717 760.173,257.717 C764.313,257.717 768.033,256.037 770.613,252.977 C771.573,256.037 773.073,257.237 775.893,257.237 C778.593,257.237 781.413,255.497 781.413,253.757 C781.413,253.337 781.173,253.037 780.813,253.037 C780.573,253.037 780.333,253.097 779.913,253.277 C779.073,253.637 778.713,253.697 778.233,253.697 C776.553,253.697 775.953,252.617 775.953,249.557 L775.953,237.497 M770.313,244.817 C770.313,248.417 770.133,249.257 769.113,250.817 C767.613,253.037 764.913,254.537 762.273,254.537 C759.513,254.537 757.533,252.557 757.533,249.857 C757.533,247.337 758.793,245.537 761.433,244.277 C763.293,243.437 765.633,242.837 770.313,242.057 L770.313,244.817 M792.878,228.857 L781.178,229.517 L781.178,232.097 L784.658,232.097 C786.938,232.157 787.238,232.517 787.238,235.097 L787.238,255.437 C787.238,260.297 786.938,262.577 786.098,264.317 C785.498,265.517 784.118,266.417 782.798,266.417 C781.958,266.417 781.298,266.057 781.298,265.637 C781.298,265.397 781.358,265.277 781.598,264.677 C781.898,264.077 782.018,263.657 782.018,263.237 C782.018,261.737 780.578,260.417 778.898,260.417 C776.978,260.417 775.538,261.917 775.538,264.017 C775.538,266.957 778.238,268.937 782.258,268.937 C785.618,268.937 788.678,267.497 790.418,265.037 C792.278,262.397 792.878,259.337 792.878,252.557 L792.878,228.857 M790.058,213.917 C788.138,213.917 786.578,215.477 786.578,217.397 C786.578,219.317 788.138,220.877 789.998,220.877 C791.978,220.877 793.538,219.317 793.538,217.397 C793.538,215.477 791.978,213.917 790.058,213.917 M813.328,227.957 C805.948,227.957 800.248,234.497 800.248,242.897 C800.248,251.117 806.008,257.717 813.208,257.717 C820.408,257.717 826.168,251.117 826.168,242.837 C826.168,234.617 820.408,227.957 813.328,227.957 M813.328,230.537 C817.528,230.537 819.868,234.917 819.868,242.837 C819.868,250.817 817.528,255.137 813.208,255.137 C808.888,255.137 806.548,250.817 806.548,242.897 C806.548,234.737 808.828,230.537 813.328,230.537 M840.088,228.857 L829.468,229.517 L829.468,232.097 L831.928,232.097 C834.208,232.157 834.508,232.517 834.508,235.097 L834.508,249.437 L834.508,252.257 C834.448,253.157 834.388,253.517 834.148,253.817 C833.728,254.357 832.528,254.597 829.948,254.657 L829.708,254.657 L829.708,256.817 L845.728,256.817 L845.728,254.657 L844.648,254.657 C840.628,254.537 840.088,254.237 840.088,252.077 L840.088,249.437 L840.088,248.837 C840.148,238.757 843.748,231.077 848.428,230.837 C847.588,231.797 847.348,232.397 847.348,233.537 C847.348,235.457 848.728,236.837 850.648,236.837 C852.868,236.837 854.308,235.217 854.308,232.817 C854.308,229.877 852.268,227.957 849.088,227.957 C845.308,227.957 842.068,230.957 840.088,236.297 L840.088,228.857 "/>
<path class="TieSegment" stroke="#000000" stroke-width="1.75" stroke-linecap="round" stroke-linejoin="round" fill-rule="evenodd" d="M2605.17,1000.31 C2637.06,1021.05 2732.74,1021.05 2764.63,1000.31 C2732.74,1028.05 2637.06,1028.05 2605.17,1000.31"/>
<path class="TieSegment" stroke="#000000" stroke-width="1.75" stroke-linecap="round" stroke-linejoin="round" fill-rule="evenodd" d="M335.596,1612.85 C352.122,1621.91 401.698,1621.91 418.224,1612.85 C401.698,1628.91 352.122,1628.91 335.596,1612.85"/>
<path class="TieSegment" stroke="#000000" stroke-width="1.75" stroke-linecap="round" stroke-linejoin="round" fill-rule="evenodd" d="M2605.17,612.783 C2637.06,585.045 2732.74,585.045 2764.63,612.783 C2732.74,592.045 2637.06,592.045 2605.17,612.783"/>
<path class="TieSegment" stroke="#000000" stroke-width="1.75" stroke-linecap="round" stroke-linejoin="round" fill-rule="evenodd" d="M335.596,1225.32 C352.122,1209.26 401.698,1209.26 418.224,1225.32 C401.698,1216.26 352.122,1216.26 335.596,1225.32"/>
<polyline class="BarLine" stroke="#000000" stroke-width="4.50" stroke-linejoin="bevel" points="249.349,917.677 249.349,1020.43"/>
<polyline class="BarLine" stroke="#000000" stroke-width="4.50" stroke-linejoin="bevel" points="985.498,917.677 985.498,1020.43"/>
<polyline class="BarLine" stroke="#000000" stroke-width="4.50" stroke-linejoin="bevel" points="1529.07,917.677 1529.07,1020.43"/>
<polyline class="BarLine" stroke="#000000" stroke-width="4.50" stroke-linejoin="bevel" points="2197.13,917.677 2197.13,1020.43"/>
<polyline class="BarLine" stroke="#000000" stroke-width="4.50" stroke-linejoin="bevel" points="2762.38,917.677 2762.38,1020.43"/>
<polyline class="BarLine" stroke="#000000" stroke-width="4.50" stroke-linejoin="bevel" points="249.349,1530.22 249.349,1632.97"/>
<polyline class="BarLine" stroke="#000000" stroke-width="4.50" stroke-linejoin="bevel" points="957.481,1530.22 957.481,1632.97"/>
<polyline class="BarLine" stroke="#000000" stroke-width="4.50" stroke-linejoin="bevel" points="1575.49,1530.22 1575.49,1632.97"/>
<polyline class="BarLine" stroke="#000000" stroke-width="4.50" stroke-linejoin="bevel" points="2159.56,1530.22 2159.56,1632.97"/>
<polyline class="BarLine" stroke="#000000" stroke-width="4.50" stroke-linejoin="bevel" points="2734.88,1530.22 2734.88,1632.97"/>
<polyline class="BarLine" stroke="#000000" stroke-width="13.75" stroke-linejoin="bevel" points="2757.76,1530.22 2757.76,1632.97"/>
<polyline class="BarLine" stroke="#000000" stroke-width="4.50" stroke-linejoin="bevel" points="249.349,655.161 249.349,919.053"/>
<polyline class="BarLine" stroke="#000000" stroke-width="4.50" stroke-linejoin="bevel" points="985.498,655.161 985.498,919.053"/>
<polyline class="BarLine" stroke="#000000" stroke-width="4.50" stroke-linejoin="bevel" points="1529.07,655.161 1529.07,919.053"/>
<polyline class="BarLine" stroke="#000000" stroke-width="4.50" stroke-linejoin="bevel" points="2197.13,655.161 2197.13,919.053"/>
<polyline class="BarLine" stroke="#000000" stroke-width="4.50" stroke-linejoin="bevel" points="2762.38,655.161 2762.38,919.053"/>
<polyline class="BarLine" stroke="#000000" stroke-width="4.50" stroke-linejoin="bevel" points="249.349,1267.7 249.349,1531.59"/>
<polyline class="BarLine" stroke="#000000" stroke-width="4.50" stroke-linejoin="bevel" points="957.481,1267.7 957.481,1531.59"/>
<polyline class="BarLine" stroke="#000000" stroke-width="4.50" stroke-linejoin="bevel" points="1575.49,1267.7 1575.49,1531.59"/>
<polyline class="BarLine" stroke="#000000" stroke-width="4.50" stroke-linejoin="bevel" points="2159.56,1267.7 2159.56,1531.59"/>
<polyline class="BarLine" stroke="#000000" stroke-width="4.50" stroke-linejoin="bevel" points="2734.88,1267.7 2734.88,1531.59"/>
<polyline class="BarLine" stroke="#000000" stroke-width="13.75" stroke-linejoin="bevel" points="2757.76,1267.7 2757.76,1531.59"/>
<path class="Accidental" d="M623.734,933.454 C624.334,933.354 624.834,932.654 624.834,932.054 L624.834,926.154 C624.834,925.354 624.234,924.754 623.434,924.754 L623.234,924.754 L619.934,925.454 L619.934,910.554 L617.134,910.554 L617.134,926.054 L608.234,927.854 L608.234,913.754 L605.434,913.754 L605.434,928.454 L601.534,929.254 C600.934,929.354 600.434,930.054 600.434,930.654 L600.434,930.854 L600.434,936.654 L600.434,936.454 C600.434,937.254 601.034,937.854 601.834,937.854 L602.134,937.854 L605.434,937.154 L605.434,953.654 L601.534,954.454 C600.934,954.554 600.434,955.254 600.434,955.854 L600.434,961.654 C600.434,962.454 601.034,963.054 601.834,963.054 L602.134,963.054 L605.434,962.354 L605.434,977.254 L608.234,977.254 L608.234,961.754 L617.134,959.954 L617.134,974.054 L619.934,974.054 L619.934,959.354 L623.734,958.654 C624.334,958.554 624.834,957.854 624.834,957.254 L624.834,951.354 C624.834,950.554 624.234,949.954 623.434,949.954 L623.234,949.954 L619.934,950.654 L619.934,934.154 L623.734,933.454 M608.234,953.154 L608.234,936.554 L617.134,934.754 L617.134,951.254 L608.234,953.154 "/>
<path class="Accidental" d="M1032.8,933.454 C1033.4,933.354 1033.9,932.654 1033.9,932.054 L1033.9,926.154 C1033.9,925.354 1033.3,924.754 1032.5,924.754 L1032.3,924.754 L1029,925.454 L1029,910.554 L1026.2,910.554 L1026.2,926.054 L1017.3,927.854 L1017.3,913.754 L1014.5,913.754 L1014.5,928.454 L1010.6,929.254 C1010,929.354 1009.5,930.054 1009.5,930.654 L1009.5,930.854 L1009.5,936.654 L1009.5,936.454 C1009.5,937.254 1010.1,937.854 1010.9,937.854 L1011.2,937.854 L1014.5,937.154 L1014.5,953.654 L1010.6,954.454 C1010,954.554 1009.5,955.254 1009.5,955.854 L1009.5,961.654 C1009.5,962.454 1010.1,963.054 1010.9,963.054 L1011.2,963.054 L1014.5,962.354 L1014.5,977.254 L1017.3,977.254 L1017.3,961.754 L1026.2,959.954 L1026.2,974.054 L1029,974.054 L1029,959.354 L1032.8,958.654 C1033.4,958.554 1033.9,957.854 1033.9,957.254 L1033.9,951.354 C1033.9,950.554 1033.3,949.954 1032.5,949.954 L1032.3,949.954 L1029,950.654 L1029,934.154 L1032.8,933.454 M1017.3,953.154 L1017.3,936.554 L1026.2,934.754 L1026.2,951.254 L1017.3,953.154 "/>
<path class="Accidental" d="M2008.1,995.958 C2008.7,995.858 2009.2,995.158 2009.2,994.558 L2009.2,988.658 C2009.2,987.858 2008.6,987.258 2007.8,987.258 L2007.6,987.258 L2004.3,987.958 L2004.3,973.058 L2001.5,973.058 L2001.5,988.558 L1992.6,990.358 L1992.6,976.258 L1989.8,976.258 L1989.8,990.958 L1985.9,991.758 C1985.3,991.858 1984.8,992.558 1984.8,993.158 L1984.8,993.358 L1984.8,999.158 L1984.8,998.958 C1984.8,999.758 1985.4,1000.36 1986.2,1000.36 L1986.5,1000.36 L1989.8,999.658 L1989.8,1016.16 L1985.9,1016.96 C1985.3,1017.06 1984.8,1017.76 1984.8,1018.36 L1984.8,1024.16 C1984.8,1024.96 1985.4,1025.56 1986.2,1025.56 L1986.5,1025.56 L1989.8,1024.86 L1989.8,1039.76 L1992.6,1039.76 L1992.6,1024.26 L2001.5,1022.46 L2001.5,1036.56 L2004.3,1036.56 L2004.3,1021.86 L2008.1,1021.16 C2008.7,1021.06 2009.2,1020.36 2009.2,1019.76 L2009.2,1013.86 C2009.2,1013.06 2008.6,1012.46 2007.8,1012.46 L2007.6,1012.46 L2004.3,1013.16 L2004.3,996.658 L2008.1,995.958 M1992.6,1015.66 L1992.6,999.058 L2001.5,997.258 L2001.5,1013.76 L1992.6,1015.66 "/>
<path class="Accidental" d="M2400.62,995.958 C2401.22,995.858 2401.72,995.158 2401.72,994.558 L2401.72,988.658 C2401.72,987.858 2401.12,987.258 2400.32,987.258 L2400.12,987.258 L2396.82,987.958 L2396.82,973.058 L2394.02,973.058 L2394.02,988.558 L2385.12,990.358 L2385.12,976.258 L2382.32,976.258 L2382.32,990.958 L2378.42,991.758 C2377.82,991.858 2377.32,992.558 2377.32,993.158 L2377.32,993.358 L2377.32,999.158 L2377.32,998.958 C2377.32,999.758 2377.92,1000.36 2378.72,1000.36 L2379.02,1000.36 L2382.32,999.658 L2382.32,1016.16 L2378.42,1016.96 C2377.82,1017.06 2377.32,1017.76 2377.32,1018.36 L2377.32,1024.16 C2377.32,1024.96 2377.92,1025.56 2378.72,1025.56 L2379.02,1025.56 L2382.32,1024.86 L2382.32,1039.76 L2385.12,1039.76 L2385.12,1024.26 L2394.02,1022.46 L2394.02,1036.56 L2396.82,1036.56 L2396.82,1021.86 L2400.62,1021.16 C2401.22,1021.06 2401.72,1020.36 2401.72,1019.76 L2401.72,1013.86 C2401.72,1013.06 2401.12,1012.46 2400.32,1012.46 L2400.12,1012.46 L2396.82,1013.16 L2396.82,996.658 L2400.62,995.958 M2385.12,1015.66 L2385.12,999.058 L2394.02,997.258 L2394.02,1013.76 L2385.12,1015.66 "/>
<path class="Accidental" d="M756.337,1646 C756.937,1645.9 757.437,1645.2 757.437,1644.6 L757.437,1638.7 C757.437,1637.9 756.837,1637.3 756.037,1637.3 L755.837,1637.3 L752.537,1638 L752.537,1623.1 L749.737,1623.1 L749.737,1638.6 L740.837,1640.4 L740.837,1626.3 L738.037,1626.3 L738.037,1641 L734.137,1641.8 C733.537,1641.9 733.037,1642.6 733.037,1643.2 L733.037,1643.4 L733.037,1649.2 L733.037,1649 C733.037,1649.8 733.637,1650.4 734.437,1650.4 L734.737,1650.4 L738.037,1649.7 L738.037,1666.2 L734.137,1667 C733.537,1667.1 733.037,1667.8 733.037,1668.4 L733.037,1674.2 C733.037,1675 733.637,1675.6 734.437,1675.6 L734.737,1675.6 L738.037,1674.9 L738.037,1689.8 L740.837,1689.8 L740.837,1674.3 L749.737,1672.5 L749.737,1686.6 L752.537,1686.6 L752.537,1671.9 L756.337,1671.2 C756.937,1671.1 757.437,1670.4 757.437,1669.8 L757.437,1663.9 C757.437,1663.1 756.837,1662.5 756.037,1662.5 L755.837,1662.5 L752.537,1663.2 L752.537,1646.7 L756.337,1646 M740.837,1665.7 L740.837,1649.1 L749.737,1647.3 L749.737,1663.8 L740.837,1665.7 "/>
<path class="Accidental" d="M1165.63,1646 C1166.23,1645.9 1166.73,1645.2 1166.73,1644.6 L1166.73,1638.7 C1166.73,1637.9 1166.13,1637.3 1165.33,1637.3 L1165.13,1637.3 L1161.83,1638 L1161.83,1623.1 L1159.03,1623.1 L1159.03,1638.6 L1150.13,1640.4 L1150.13,1626.3 L1147.33,1626.3 L1147.33,1641 L1143.43,1641.8 C1142.83,1641.9 1142.33,1642.6 1142.33,1643.2 L1142.33,1643.4 L1142.33,1649.2 L1142.33,1649 C1142.33,1649.8 1142.93,1650.4 1143.73,1650.4 L1144.03,1650.4 L1147.33,1649.7 L1147.33,1666.2 L1143.43,1667 C1142.83,1667.1 1142.33,1667.8 1142.33,1668.4 L1142.33,1674.2 C1142.33,1675 1142.93,1675.6 1143.73,1675.6 L1144.03,1675.6 L1147.33,1674.9 L1147.33,1689.8 L1150.13,1689.8 L1150.13,1674.3 L1159.03,1672.5 L1159.03,1686.6 L1161.83,1686.6 L1161.83,1671.9 L1165.63,1671.2 C1166.23,1671.1 1166.73,1670.4 1166.73,1669.8 L1166.73,1663.9 C1166.73,1663.1 1166.13,1662.5 1165.33,1662.5 L1165.13,1662.5 L1161.83,1663.2 L1161.83,1646.7 L1165.63,1646 M1150.13,1665.7 L1150.13,1649.1 L1159.03,1647.3 L1159.03,1663.8 L1150.13,1665.7 "/>
<path class="Accidental" d="M1970.52,1545.99 C1971.12,1545.89 1971.62,1545.19 1971.62,1544.59 L1971.62,1538.69 C1971.62,1537.89 1971.02,1537.29 1970.22,1537.29 L1970.02,1537.29 L1966.72,1537.99 L1966.72,1523.09 L1963.92,1523.09 L1963.92,1538.59 L1955.02,1540.39 L1955.02,1526.29 L1952.22,1526.29 L1952.22,1540.99 L1948.32,1541.79 C1947.72,1541.89 1947.22,1542.59 1947.22,1543.19 L1947.22,1543.39 L1947.22,1549.19 L1947.22,1548.99 C1947.22,1549.79 1947.82,1550.39 1948.62,1550.39 L1948.92,1550.39 L1952.22,1549.69 L1952.22,1566.19 L1948.32,1566.99 C1947.72,1567.09 1947.22,1567.79 1947.22,1568.39 L1947.22,1574.19 C1947.22,1574.99 1947.82,1575.59 1948.62,1575.59 L1948.92,1575.59 L1952.22,1574.89 L1952.22,1589.79 L1955.02,1589.79 L1955.02,1574.29 L1963.92,1572.49 L1963.92,1586.59 L1966.72,1586.59 L1966.72,1571.89 L1970.52,1571.19 C1971.12,1571.09 1971.62,1570.39 1971.62,1569.79 L1971.62,1563.89 C1971.62,1563.09 1971.02,1562.49 1970.22,1562.49 L1970.02,1562.49 L1966.72,1563.19 L1966.72,1546.69 L1970.52,1545.99 M1955.02,1565.69 L1955.02,1549.09 L1963.92,1547.29 L1963.92,1563.79 L1955.02,1565.69 "/>
<path class="Accidental" d="M2366.4,1545.99 C2367,1545.89 2367.5,1545.19 2367.5,1544.59 L2367.5,1538.69 C2367.5,1537.89 2366.9,1537.29 2366.1,1537.29 L2365.9,1537.29 L2362.6,1537.99 L2362.6,1523.09 L2359.8,1523.09 L2359.8,1538.59 L2350.9,1540.39 L2350.9,1526.29 L2348.1,1526.29 L2348.1,1540.99 L2344.2,1541.79 C2343.6,1541.89 2343.1,1542.59 2343.1,1543.19 L2343.1,1543.39 L2343.1,1549.19 L2343.1,1548.99 C2343.1,1549.79 2343.7,1550.39 2344.5,1550.39 L2344.8,1550.39 L2348.1,1549.69 L2348.1,1566.19 L2344.2,1566.99 C2343.6,1567.09 2343.1,1567.79 2343.1,1568.39 L2343.1,1574.19 C2343.1,1574.99 2343.7,1575.59 2344.5,1575.59 L2344.8,1575.59 L2348.1,1574.89 L2348.1,1589.79 L2350.9,1589.79 L2350.9,1574.29 L2359.8,1572.49 L2359.8,1586.59 L2362.6,1586.59 L2362.6,1571.89 L2366.4,1571.19 C2367,1571.09 2367.5,1570.39 2367.5,1569.79 L2367.5,1563.89 C2367.5,1563.09 2366.9,1562.49 2366.1,1562.49 L2365.9,1562.49 L2362.6,1563.19 L2362.6,1546.69 L2366.4,1545.99 M2350.9,1565.69 L2350.9,1549.09 L2359.8,1547.29 L2359.8,1563.79 L2350.9,1565.69 "/>
<path class="Accidental" d="M623.734,733.442 C624.334,733.342 624.834,732.642 624.834,732.042 L624.834,726.142 C624.834,725.342 624.234,724.742 623.434,724.742 L623.234,724.742 L619.934,725.442 L619.934,710.542 L617.134,710.542 L617.134,726.042 L608.234,727.842 L608.234,713.742 L605.434,713.742 L605.434,728.442 L601.534,729.242 C600.934,729.342 600.434,730.042 600.434,730.642 L600.434,730.842 L600.434,736.642 L600.434,736.442 C600.434,737.242 601.034,737.842 601.834,737.842 L602.134,737.842 L605.434,737.142 L605.434,753.642 L601.534,754.442 C600.934,754.542 600.434,755.242 600.434,755.842 L600.434,761.642 C600.434,762.442 601.034,763.042 601.834,763.042 L602.134,763.042 L605.434,762.342 L605.434,777.242 L608.234,777.242 L608.234,761.742 L617.134,759.942 L617.134,774.042 L619.934,774.042 L619.934,759.342 L623.734,758.642 C624.334,758.542 624.834,757.842 624.834,757.242 L624.834,751.342 C624.834,750.542 624.234,749.942 623.434,749.942 L623.234,749.942 L619.934,750.642 L619.934,734.142 L623.734,733.442 M608.234,753.142 L608.234,736.542 L617.134,734.742 L617.134,751.242 L608.234,753.142 "/>
<path class="Accidental" d="M1032.8,733.442 C1033.4,733.342 1033.9,732.642 1033.9,732.042 L1033.9,726.142 C1033.9,725.342 1033.3,724.742 1032.5,724.742 L1032.3,724.742 L1029,725.442 L1029,710.542 L1026.2,710.542 L1026.2,726.042 L1017.3,727.842 L1017.3,713.742 L1014.5,713.742 L1014.5,728.442 L1010.6,729.242 C1010,729.342 1009.5,730.042 1009.5,730.642 L1009.5,730.842 L1009.5,736.642 L1009.5,736.442 C1009.5,737.242 1010.1,737.842 1010.9,737.842 L1011.2,737.842 L1014.5,737.142 L1014.5,753.642 L1010.6,754.442 C1010,754.542 1009.5,755.242 1009.5,755.842 L1009.5,761.642 C1009.5,762.442 1010.1,763.042 1010.9,763.042 L1011.2,763.042 L1014.5,762.342 L1014.5,777.242 L1017.3,777.242 L1017.3,761.742 L1026.2,759.942 L1026.2,774.042 L1029,774.042 L1029,759.342 L1032.8,758.642 C1033.4,758.542 1033.9,757.842 1033.9,757.242 L1033.9,751.342 C1033.9,750.542 1033.3,749.942 1032.5,749.942 L1032.3,749.942 L1029,750.642 L1029,734.142 L1032.8,733.442 M1017.3,753.142 L1017.3,736.542 L1026.2,734.742 L1026.2,751.242 L1017.3,753.142 "/>
<path class="Accidental" d="M2008.1,645.936 C2008.7,645.836 2009.2,645.136 2009.2,644.536 L2009.2,638.636 C2009.2,637.836 2008.6,637.236 2007.8,637.236 L2007.6,637.236 L2004.3,637.936 L2004.3,623.036 L2001.5,623.036 L2001.5,638.536 L1992.6,640.336 L1992.6,626.236 L1989.8,626.236 L1989.8,640.936 L1985.9,641.736 C1985.3,641.836 1984.8,642.536 1984.8,643.136 L1984.8,643.336 L1984.8,649.136 L1984.8,648.936 C1984.8,649.736 1985.4,650.336 1986.2,650.336 L1986.5,650.336 L1989.8,649.636 L1989.8,666.136 L1985.9,666.936 C1985.3,667.036 1984.8,667.736 1984.8,668.336 L1984.8,674.136 C1984.8,674.936 1985.4,675.536 1986.2,675.536 L1986.5,675.536 L1989.8,674.836 L1989.8,689.736 L1992.6,689.736 L1992.6,674.236 L2001.5,672.436 L2001.5,686.536 L2004.3,686.536 L2004.3,671.836 L2008.1,671.136 C2008.7,671.036 2009.2,670.336 2009.2,669.736 L2009.2,663.836 C2009.2,663.036 2008.6,662.436 2007.8,662.436 L2007.6,662.436 L2004.3,663.136 L2004.3,646.636 L2008.1,645.936 M1992.6,665.636 L1992.6,649.036 L2001.5,647.236 L2001.5,663.736 L1992.6,665.636 "/>
<path class="Accidental" d="M2400.62,645.936 C2401.22,645.836 2401.72,645.136 2401.72,644.536 L2401.72,638.636 C2401.72,637.836 2401.12,637.236 2400.32,637.236 L2400.12,637.236 L2396.82,637.936 L2396.82,623.036 L2394.02,623.036 L2394.02,638.536 L2385.12,640.336 L2385.12,626.236 L2382.32,626.236 L2382.32,640.936 L2378.42,641.736 C2377.82,641.836 2377.32,642.536 2377.32,643.136 L2377.32,643.336 L2377.32,649.136 L2377.32,648.936 C2377.32,649.736 2377.92,650.336 2378.72,650.336 L2379.02,650.336 L2382.32,649.636 L2382.32,666.136 L2378.42,666.936 C2377.82,667.036 2377.32,667.736 2377.32,668.336 L2377.32,674.136 C2377.32,674.936 2377.92,675.536 2378.72,675.536 L2379.02,675.536 L2382.32,674.836 L2382.32,689.736 L2385.12,689.736 L2385.12,674.236 L2394.02,672.436 L2394.02,686.536 L2396.82,686.536 L2396.82,671.836 L2400.62,671.136 C2401.22,671.036 2401.72,670.336 2401.72,669.736 L2401.72,663.836 C2401.72,663.036 2401.12,662.436 2400.32,662.436 L2400.12,662.436 L2396.82,663.136 L2396.82,646.636 L2400.62,645.936 M2385.12,665.636 L2385.12,649.036 L2394.02,647.236 L2394.02,663.736 L2385.12,665.636 "/>
<path class="Accidental" d="M765.087,1295.98 C765.687,1295.88 766.187,1295.18 766.187,1294.58 L766.187,1288.68 C766.187,1287.88 765.587,1287.28 764.787,1287.28 L764.587,1287.28 L761.287,1287.98 L761.287,1273.08 L758.487,1273.08 L758.487,1288.58 L749.587,1290.38 L749.587,1276.28 L746.787,1276.28 L746.787,1290.98 L742.887,1291.78 C742.287,1291.88 741.787,1292.58 741.787,1293.18 L741.787,1293.38 L741.787,1299.18 L741.787,1298.98 C741.787,1299.78 742.387,1300.38 743.187,1300.38 L743.487,1300.38 L746.787,1299.68 L746.787,1316.18 L742.887,1316.98 C742.287,1317.08 741.787,1317.78 741.787,1318.38 L741.787,1324.18 C741.787,1324.98 742.387,1325.58 743.187,1325.58 L743.487,1325.58 L746.787,1324.88 L746.787,1339.78 L749.587,1339.78 L749.587,1324.28 L758.487,1322.48 L758.487,1336.58 L761.287,1336.58 L761.287,1321.88 L765.087,1321.18 C765.687,1321.08 766.187,1320.38 766.187,1319.78 L766.187,1313.88 C766.187,1313.08 765.587,1312.48 764.787,1312.48 L764.587,1312.48 L761.287,1313.18 L761.287,1296.68 L765.087,1295.98 M749.587,1315.68 L749.587,1299.08 L758.487,1297.28 L758.487,1313.78 L749.587,1315.68 "/>
<path class="Accidental" d="M1174.38,1295.98 C1174.98,1295.88 1175.48,1295.18 1175.48,1294.58 L1175.48,1288.68 C1175.48,1287.88 1174.88,1287.28 1174.08,1287.28 L1173.88,1287.28 L1170.58,1287.98 L1170.58,1273.08 L1167.78,1273.08 L1167.78,1288.58 L1158.88,1290.38 L1158.88,1276.28 L1156.08,1276.28 L1156.08,1290.98 L1152.18,1291.78 C1151.58,1291.88 1151.08,1292.58 1151.08,1293.18 L1151.08,1293.38 L1151.08,1299.18 L1151.08,1298.98 C1151.08,1299.78 1151.68,1300.38 1152.48,1300.38 L1152.78,1300.38 L1156.08,1299.68 L1156.08,1316.18 L1152.18,1316.98 C1151.58,1317.08 1151.08,1317.78 1151.08,1318.38 L1151.08,1324.18 C1151.08,1324.98 1151.68,1325.58 1152.48,1325.58 L1152.78,1325.58 L1156.08,1324.88 L1156.08,1339.78 L1158.88,1339.78 L1158.88,1324.28 L1167.78,1322.48 L1167.78,1336.58 L1170.58,1336.58 L1170.58,1321.88 L1174.38,1321.18 C1174.98,1321.08 1175.48,1320.38 1175.48,1319.78 L1175.48,1313.88 C1175.48,1313.08 1174.88,1312.48 1174.08,1312.48 L1173.88,1312.48 L1170.58,1313.18 L1170.58,1296.68 L1174.38,1295.98 M1158.88,1315.68 L1158.88,1299.08 L1167.78,1297.28 L1167.78,1313.78 L1158.88,1315.68 "/>
<path class="Accidental" d="M1970.52,1345.98 C1971.12,1345.88 1971.62,1345.18 1971.62,1344.58 L1971.62,1338.68 C1971.62,1337.88 1971.02,1337.28 1970.22,1337.28 L1970.02,1337.28 L1966.72,1337.98 L1966.72,1323.08 L1963.92,1323.08 L1963.92,1338.58 L1955.02,1340.38 L1955.02,1326.28 L1952.22,1326.28 L1952.22,1340.98 L1948.32,1341.78 C1947.72,1341.88 1947.22,1342.58 1947.22,1343.18 L1947.22,1343.38 L1947.22,1349.18 L1947.22,1348.98 C1947.22,1349.78 1947.82,1350.38 1948.62,1350.38 L1948.92,1350.38 L1952.22,1349.68 L1952.22,1366.18 L1948.32,1366.98 C1947.72,1367.08 1947.22,1367.78 1947.22,1368.38 L1947.22,1374.18 C1947.22,1374.98 1947.82,1375.58 1948.62,1375.58 L1948.92,1375.58 L1952.22,1374.88 L1952.22,1389.78 L1955.02,1389.78 L1955.02,1374.28 L1963.92,1372.48 L1963.92,1386.58 L1966.72,1386.58 L1966.72,1371.88 L1970.52,1371.18 C1971.12,1371.08 1971.62,1370.38 1971.62,1369.78 L1971.62,1363.88 C1971.62,1363.08 1971.02,1362.48 1970.22,1362.48 L1970.02,1362.48 L1966.72,1363.18 L1966.72,1346.68 L1970.52,1345.98 M1955.02,1365.68 L1955.02,1349.08 L1963.92,1347.28 L1963.92,1363.78 L1955.02,1365.68 "/>
<path class="Accidental" d="M2366.4,1345.98 C2367,1345.88 2367.5,1345.18 2367.5,1344.58 L2367.5,1338.68 C2367.5,1337.88 2366.9,1337.28 2366.1,1337.28 L2365.9,1337.28 L2362.6,1337.98 L2362.6,1323.08 L2359.8,1323.08 L2359.8,1338.58 L2350.9,1340.38 L2350.9,1326.28 L2348.1,1326.28 L2348.1,1340.98 L2344.2,1341.78 C2343.6,1341.88 2343.1,1342.58 2343.1,1343.18 L2343.1,1343.38 L2343.1,1349.18 L2343.1,1348.98 C2343.1,1349.78 2343.7,1350.38 2344.5,1350.38 L2344.8,1350.38 L2348.1,1349.68 L2348.1,1366.18 L2344.2,1366.98 C2343.6,1367.08 2343.1,1367.78 2343.1,1368.38 L2343.1,1374.18 C2343.1,1374.98 2343.7,1375.58 2344.5,1375.58 L2344.8,1375.58 L2348.1,1374.88 L2348.1,1389.78 L2350.9,1389.78 L2350.9,1374.28 L2359.8,1372.48 L2359.8,1386.58 L2362.6,1386.58 L2362.6,1371.88 L2366.4,1371.18 C2367,1371.08 2367.5,1370.38 2367.5,1369.78 L2367.5,1363.88 C2367.5,1363.08 2366.9,1362.48 2366.1,1362.48 L2365.9,1362.48 L2362.6,1363.18 L2362.6,1346.68 L2366.4,1345.98 M2350.9,1365.68 L2350.9,1349.08 L2359.8,1347.28 L2359.8,1363.78 L2350.9,1365.68 "/>
<polyline class="LedgerLine" stroke="#000000" stroke-width="4.00" stroke-linejoin="bevel" points="1355.85,894.051 1405.84,894.051"/>
<polyline class="LedgerLine" stroke="#000000" stroke-width="4.00" stroke-linejoin="bevel" points="1647.82,1069.06 1697.82,1069.06"/>
<polyline class="LedgerLine" stroke="#000000" stroke-width="4.00" stroke-linejoin="bevel" points="1647.82,1044.06 1697.82,1044.06"/>
<polyline class="LedgerLine" stroke="#000000" stroke-width="4.00" stroke-linejoin="bevel" points="763.687,1656.6 813.682,1656.6"/>
<polyline class="LedgerLine" stroke="#000000" stroke-width="4.00" stroke-linejoin="bevel" points="1172.98,1656.6 1222.98,1656.6"/>
<polyline class="LedgerLine" stroke="#000000" stroke-width="4.00" stroke-linejoin="bevel" points="1362.49,1681.6 1412.48,1681.6"/>
<polyline class="LedgerLine" stroke="#000000" stroke-width="4.00" stroke-linejoin="bevel" points="1362.49,1656.6 1412.48,1656.6"/>
<polyline class="LedgerLine" stroke="#000000" stroke-width="4.00" stroke-linejoin="bevel" points="1610.24,1506.59 1660.24,1506.59"/>
<polyline class="LedgerLine" stroke="#000000" stroke-width="4.00" stroke-linejoin="bevel" points="2575.3,631.534 2625.29,631.534"/>
<polyline class="LedgerLine" stroke="#000000" stroke-width="4.00" stroke-linejoin="bevel" points="398.1,1244.07 448.096,1244.07"/>
<polyline class="Stem" stroke="#000000" stroke-width="2.75" stroke-linejoin="bevel" points="456.377,972.576 456.377,1047.19"/>
<polyline class="Stem" stroke="#000000" stroke-width="2.75" stroke-linejoin="bevel" points="632.459,947.574 632.459,1028.43"/>
<polyline class="Stem" stroke="#000000" stroke-width="2.75" stroke-linejoin="bevel" points="808.541,922.573 808.541,1006.56"/>
<polyline class="Stem" stroke="#000000" stroke-width="2.75" stroke-linejoin="bevel" points="1041.53,947.574 1041.53,1028.43"/>
<polyline class="Stem" stroke="#000000" stroke-width="2.75" stroke-linejoin="bevel" points="1203.75,922.573 1203.75,1006.56"/>
<polyline class="Stem" stroke="#000000" stroke-width="2.75" stroke-linejoin="bevel" points="1365.97,885.07 1365.97,969.056"/>
<polyline class="Stem" stroke="#000000" stroke-width="2.75" stroke-linejoin="bevel" points="1687.69,1065.7 1687.69,969.056"/>
<polyline class="Stem" stroke="#000000" stroke-width="2.75" stroke-linejoin="bevel" points="1867.13,1028.2 1867.13,944.054"/>
<polyline class="Stem" stroke="#000000" stroke-width="2.75" stroke-linejoin="bevel" points="2046.57,1003.2 2046.57,919.053"/>
<polyline class="Stem" stroke="#000000" stroke-width="2.75" stroke-linejoin="bevel" points="2263,1028.2 2263,944.054"/>
<polyline class="Stem" stroke="#000000" stroke-width="2.75" stroke-linejoin="bevel" points="2439.09,1003.2 2439.09,919.053"/>
<polyline class="Stem" stroke="#000000" stroke-width="2.75" stroke-linejoin="bevel" points="2615.17,978.196 2615.17,900.301"/>
<polyline class="Stem" stroke="#000000" stroke-width="2.75" stroke-linejoin="bevel" points="437.97,1590.73 437.97,1512.84"/>
<polyline class="Stem" stroke="#000000" stroke-width="2.75" stroke-linejoin="bevel" points="620.763,1628.24 620.763,1544.09"/>
<polyline class="Stem" stroke="#000000" stroke-width="2.75" stroke-linejoin="bevel" points="803.557,1653.24 803.557,1569.09"/>
<polyline class="Stem" stroke="#000000" stroke-width="2.75" stroke-linejoin="bevel" points="1023.35,1628.24 1023.35,1544.09"/>
<polyline class="Stem" stroke="#000000" stroke-width="2.75" stroke-linejoin="bevel" points="1212.85,1653.24 1212.85,1569.09"/>
<polyline class="Stem" stroke="#000000" stroke-width="2.75" stroke-linejoin="bevel" points="1402.36,1678.24 1402.36,1581.59"/>
<polyline class="Stem" stroke="#000000" stroke-width="2.75" stroke-linejoin="bevel" points="1620.37,1497.61 1620.37,1581.59"/>
<polyline class="Stem" stroke="#000000" stroke-width="2.75" stroke-linejoin="bevel" points="1799.81,1535.11 1799.81,1619.1"/>
<polyline class="Stem" stroke="#000000" stroke-width="2.75" stroke-linejoin="bevel" points="1979.25,1560.11 1979.25,1640.97"/>
<polyline class="Stem" stroke="#000000" stroke-width="2.75" stroke-linejoin="bevel" points="2195.69,1535.11 2195.69,1619.1"/>
<polyline class="Stem" stroke="#000000" stroke-width="2.75" stroke-linejoin="bevel" points="2375.13,1560.11 2375.13,1640.97"/>
<polyline class="Stem" stroke="#000000" stroke-width="2.75" stroke-linejoin="bevel" points="2554.57,1585.11 2554.57,1659.72"/>
<polyline class="Stem" stroke="#000000" stroke-width="2.75" stroke-linejoin="bevel" points="486.121,765.683 486.121,681.538"/>
<polyline class="Stem" stroke="#000000" stroke-width="2.75" stroke-linejoin="bevel" points="662.203,740.681 662.203,656.536"/>
<polyline class="Stem" stroke="#000000" stroke-width="2.75" stroke-linejoin="bevel" points="838.285,715.68 838.285,637.785"/>
<polyline class="Stem" stroke="#000000" stroke-width="2.75" stroke-linejoin="bevel" points="1071.27,740.681 1071.27,656.536"/>
<polyline class="Stem" stroke="#000000" stroke-width="2.75" stroke-linejoin="bevel" points="1233.49,715.68 1233.49,637.785"/>
<polyline class="Stem" stroke="#000000" stroke-width="2.75" stroke-linejoin="bevel" points="1365.97,685.058 1365.97,765.918"/>
<polyline class="Stem" stroke="#000000" stroke-width="2.75" stroke-linejoin="bevel" points="1687.69,715.68 1687.69,637.785"/>
<polyline class="Stem" stroke="#000000" stroke-width="2.75" stroke-linejoin="bevel" points="1837.38,685.058 1837.38,765.918"/>
<polyline class="Stem" stroke="#000000" stroke-width="2.75" stroke-linejoin="bevel" points="2016.82,660.056 2016.82,744.042"/>
<polyline class="Stem" stroke="#000000" stroke-width="2.75" stroke-linejoin="bevel" points="2233.26,685.058 2233.26,765.918"/>
<polyline class="Stem" stroke="#000000" stroke-width="2.75" stroke-linejoin="bevel" points="2409.34,660.056 2409.34,744.042"/>
<polyline class="Stem" stroke="#000000" stroke-width="2.75" stroke-linejoin="bevel" points="2585.42,635.055 2585.42,719.04"/>
<polyline class="Stem" stroke="#000000" stroke-width="2.75" stroke-linejoin="bevel" points="408.226,1247.59 408.226,1331.58"/>
<polyline class="Stem" stroke="#000000" stroke-width="2.75" stroke-linejoin="bevel" points="591.019,1285.1 591.019,1369.08"/>
<polyline class="Stem" stroke="#000000" stroke-width="2.75" stroke-linejoin="bevel" points="773.813,1310.1 773.813,1387.83"/>
<polyline class="Stem" stroke="#000000" stroke-width="2.75" stroke-linejoin="bevel" points="993.608,1285.1 993.608,1369.08"/>
<polyline class="Stem" stroke="#000000" stroke-width="2.75" stroke-linejoin="bevel" points="1183.11,1310.1 1183.11,1387.83"/>
<polyline class="Stem" stroke="#000000" stroke-width="2.75" stroke-linejoin="bevel" points="1402.36,1328.22 1402.36,1250.32"/>
<polyline class="Stem" stroke="#000000" stroke-width="2.75" stroke-linejoin="bevel" points="1620.37,1297.6 1620.37,1378.46"/>
<polyline class="Stem" stroke="#000000" stroke-width="2.75" stroke-linejoin="bevel" points="1829.55,1328.22 1829.55,1250.32"/>
<polyline class="Stem" stroke="#000000" stroke-width="2.75" stroke-linejoin="bevel" points="2008.99,1353.22 2008.99,1269.07"/>
<polyline class="Stem" stroke="#000000" stroke-width="2.75" stroke-linejoin="bevel" points="2225.43,1328.22 2225.43,1250.32"/>
<polyline class="Stem" stroke="#000000" stroke-width="2.75" stroke-linejoin="bevel" points="2404.87,1353.22 2404.87,1269.07"/>
<polyline class="Stem" stroke="#000000" stroke-width="2.75" stroke-linejoin="bevel" points="2584.31,1378.22 2584.31,1294.08"/>
<path class="Note" d="M486.502,960.856 C485.002,958.156 482.102,956.456 478.202,956.056 C477.602,955.956 477.102,955.956 476.502,955.956 C473.002,955.956 469.202,956.956 465.702,958.856 C459.102,962.456 455.002,968.356 455.002,973.456 C455.002,974.856 455.202,976.156 455.902,977.356 C457.402,980.056 460.402,981.756 464.302,982.156 C464.902,982.256 465.402,982.256 466.002,982.256 C469.502,982.256 473.202,981.256 476.702,979.356 C483.302,975.756 487.502,969.956 487.502,964.856 C487.502,963.456 487.202,962.056 486.502,960.856"/>
<path class="Note" d="M662.584,935.854 C661.084,933.154 658.184,931.454 654.284,931.054 C653.684,930.954 653.184,930.954 652.584,930.954 C649.084,930.954 645.284,931.954 641.784,933.854 C635.184,937.454 631.084,943.354 631.084,948.454 C631.084,949.854 631.284,951.154 631.984,952.354 C633.484,955.054 636.484,956.754 640.384,957.154 C640.984,957.254 641.484,957.254 642.084,957.254 C645.584,957.254 649.284,956.254 652.784,954.354 C659.384,950.754 663.584,944.954 663.584,939.854 C663.584,938.454 663.284,937.054 662.584,935.854"/>
<path class="Note" d="M838.666,910.853 C837.166,908.153 834.266,906.453 830.366,906.053 C829.766,905.953 829.266,905.953 828.666,905.953 C825.166,905.953 821.366,906.953 817.866,908.853 C811.266,912.453 807.166,918.353 807.166,923.453 C807.166,924.853 807.366,926.153 808.066,927.353 C809.566,930.053 812.566,931.753 816.466,932.153 C817.066,932.253 817.566,932.253 818.166,932.253 C821.666,932.253 825.366,931.253 828.866,929.353 C835.466,925.753 839.666,919.953 839.666,914.853 C839.666,913.453 839.366,912.053 838.666,910.853"/>
<path class="Note" d="M1071.65,935.854 C1070.15,933.154 1067.25,931.454 1063.35,931.054 C1062.75,930.954 1062.25,930.954 1061.65,930.954 C1058.15,930.954 1054.35,931.954 1050.85,933.854 C1044.25,937.454 1040.15,943.354 1040.15,948.454 C1040.15,949.854 1040.35,951.154 1041.05,952.354 C1042.55,955.054 1045.55,956.754 1049.45,957.154 C1050.05,957.254 1050.55,957.254 1051.15,957.254 C1054.65,957.254 1058.35,956.254 1061.85,954.354 C1068.45,950.754 1072.65,944.954 1072.65,939.854 C1072.65,938.454 1072.35,937.054 1071.65,935.854"/>
<path class="Note" d="M1233.87,910.853 C1232.37,908.153 1229.47,906.453 1225.57,906.053 C1224.97,905.953 1224.47,905.953 1223.87,905.953 C1220.37,905.953 1216.57,906.953 1213.07,908.853 C1206.47,912.453 1202.37,918.353 1202.37,923.453 C1202.37,924.853 1202.57,926.153 1203.27,927.353 C1204.77,930.053 1207.77,931.753 1211.67,932.153 C1212.27,932.253 1212.77,932.253 1213.37,932.253 C1216.87,932.253 1220.57,931.253 1224.07,929.353 C1230.67,925.753 1234.87,919.953 1234.87,914.853 C1234.87,913.453 1234.57,912.053 1233.87,910.853"/>
<path class="Note" d="M1396.1,873.35 C1394.6,870.65 1391.7,868.95 1387.8,868.55 C1387.2,868.45 1386.7,868.45 1386.1,868.45 C1382.6,868.45 1378.8,869.45 1375.3,871.35 C1368.7,874.95 1364.6,880.85 1364.6,885.95 C1364.6,887.35 1364.8,888.65 1365.5,889.85 C1367,892.55 1370,894.25 1373.9,894.65 C1374.5,894.75 1375,894.75 1375.6,894.75 C1379.1,894.75 1382.8,893.75 1386.3,891.85 C1392.9,888.25 1397.1,882.45 1397.1,877.35 C1397.1,875.95 1396.8,874.55 1396.1,873.35"/>
<path class="Note" d="M1688.07,1060.86 C1686.57,1058.16 1683.67,1056.46 1679.77,1056.06 C1679.17,1055.96 1678.67,1055.96 1678.07,1055.96 C1674.57,1055.96 1670.77,1056.96 1667.27,1058.86 C1660.67,1062.46 1656.57,1068.36 1656.57,1073.46 C1656.57,1074.86 1656.77,1076.16 1657.47,1077.36 C1658.97,1080.06 1661.97,1081.76 1665.87,1082.16 C1666.47,1082.26 1666.97,1082.26 1667.57,1082.26 C1671.07,1082.26 1674.77,1081.26 1678.27,1079.36 C1684.87,1075.76 1689.07,1069.96 1689.07,1064.86 C1689.07,1063.46 1688.77,1062.06 1688.07,1060.86"/>
<path class="Note" d="M1867.51,1023.36 C1866.01,1020.66 1863.11,1018.96 1859.21,1018.56 C1858.61,1018.46 1858.11,1018.46 1857.51,1018.46 C1854.01,1018.46 1850.21,1019.46 1846.71,1021.36 C1840.11,1024.96 1836.01,1030.86 1836.01,1035.96 C1836.01,1037.36 1836.21,1038.66 1836.91,1039.86 C1838.41,1042.56 1841.41,1044.26 1845.31,1044.66 C1845.91,1044.76 1846.41,1044.76 1847.01,1044.76 C1850.51,1044.76 1854.21,1043.76 1857.71,1041.86 C1864.31,1038.26 1868.51,1032.46 1868.51,1027.36 C1868.51,1025.96 1868.21,1024.56 1867.51,1023.36"/>
<path class="Note" d="M2046.95,998.358 C2045.45,995.658 2042.55,993.958 2038.65,993.558 C2038.05,993.458 2037.55,993.458 2036.95,993.458 C2033.45,993.458 2029.65,994.458 2026.15,996.358 C2019.55,999.958 2015.45,1005.86 2015.45,1010.96 C2015.45,1012.36 2015.65,1013.66 2016.35,1014.86 C2017.85,1017.56 2020.85,1019.26 2024.75,1019.66 C2025.35,1019.76 2025.85,1019.76 2026.45,1019.76 C2029.95,1019.76 2033.65,1018.76 2037.15,1016.86 C2043.75,1013.26 2047.95,1007.46 2047.95,1002.36 C2047.95,1000.96 2047.65,999.558 2046.95,998.358"/>
<path class="Note" d="M2263.38,1023.36 C2261.88,1020.66 2258.98,1018.96 2255.08,1018.56 C2254.48,1018.46 2253.98,1018.46 2253.38,1018.46 C2249.88,1018.46 2246.08,1019.46 2242.58,1021.36 C2235.98,1024.96 2231.88,1030.86 2231.88,1035.96 C2231.88,1037.36 2232.08,1038.66 2232.78,1039.86 C2234.28,1042.56 2237.28,1044.26 2241.18,1044.66 C2241.78,1044.76 2242.28,1044.76 2242.88,1044.76 C2246.38,1044.76 2250.08,1043.76 2253.58,1041.86 C2260.18,1038.26 2264.38,1032.46 2264.38,1027.36 C2264.38,1025.96 2264.08,1024.56 2263.38,1023.36"/>
<path class="Note" d="M2439.47,998.358 C2437.97,995.658 2435.07,993.958 2431.17,993.558 C2430.57,993.458 2430.07,993.458 2429.47,993.458 C2425.97,993.458 2422.17,994.458 2418.67,996.358 C2412.07,999.958 2407.97,1005.86 2407.97,1010.96 C2407.97,1012.36 2408.17,1013.66 2408.87,1014.86 C2410.37,1017.56 2413.37,1019.26 2417.27,1019.66 C2417.87,1019.76 2418.37,1019.76 2418.97,1019.76 C2422.47,1019.76 2426.17,1018.76 2429.67,1016.86 C2436.27,1013.26 2440.47,1007.46 2440.47,1002.36 C2440.47,1000.96 2440.17,999.558 2439.47,998.358"/>
<path class="Note" d="M2615.55,973.356 C2614.05,970.656 2611.15,968.956 2607.25,968.556 C2606.65,968.456 2606.15,968.456 2605.55,968.456 C2602.05,968.456 2598.25,969.456 2594.75,971.356 C2588.15,974.956 2584.05,980.856 2584.05,985.956 C2584.05,987.356 2584.25,988.656 2584.95,989.856 C2586.45,992.556 2589.45,994.256 2593.35,994.656 C2593.95,994.756 2594.45,994.756 2595.05,994.756 C2598.55,994.756 2602.25,993.756 2605.75,991.856 C2612.35,988.256 2616.55,982.456 2616.55,977.356 C2616.55,975.956 2616.25,974.556 2615.55,973.356"/>
<path class="Note" d="M438.351,1585.9 C436.851,1583.2 433.951,1581.5 430.051,1581.1 C429.451,1581 428.951,1581 428.351,1581 C424.851,1581 421.051,1582 417.551,1583.9 C410.951,1587.5 406.851,1593.4 406.851,1598.5 C406.851,1599.9 407.051,1601.2 407.751,1602.4 C409.251,1605.1 412.251,1606.8 416.151,1607.2 C416.751,1607.3 417.251,1607.3 417.851,1607.3 C421.351,1607.3 425.051,1606.3 428.551,1604.4 C435.151,1600.8 439.351,1595 439.351,1589.9 C439.351,1588.5 439.051,1587.1 438.351,1585.9"/>
<path class="Note" d="M621.144,1623.4 C619.644,1620.7 616.744,1619 612.844,1618.6 C612.244,1618.5 611.744,1618.5 611.144,1618.5 C607.644,1618.5 603.844,1619.5 600.344,1621.4 C593.744,1625 589.644,1630.9 589.644,1636 C589.644,1637.4 589.844,1638.7 590.544,1639.9 C592.044,1642.6 595.044,1644.3 598.944,1644.7 C599.544,1644.8 600.044,1644.8 600.644,1644.8 C604.144,1644.8 607.844,1643.8 611.344,1641.9 C617.944,1638.3 622.144,1632.5 622.144,1627.4 C622.144,1626 621.844,1624.6 621.144,1623.4"/>
<path class="Note" d="M803.938,1648.4 C802.438,1645.7 799.538,1644 795.638,1643.6 C795.038,1643.5 794.538,1643.5 793.938,1643.5 C790.438,1643.5 786.638,1644.5 783.138,1646.4 C776.538,1650 772.438,1655.9 772.438,1661 C772.438,1662.4 772.638,1663.7 773.338,1664.9 C774.838,1667.6 777.838,1669.3 781.738,1669.7 C782.338,1669.8 782.838,1669.8 783.438,1669.8 C786.938,1669.8 790.638,1668.8 794.138,1666.9 C800.738,1663.3 804.938,1657.5 804.938,1652.4 C804.938,1651 804.638,1649.6 803.938,1648.4"/>
<path class="Note" d="M1023.73,1623.4 C1022.23,1620.7 1019.33,1619 1015.43,1618.6 C1014.83,1618.5 1014.33,1618.5 1013.73,1618.5 C1010.23,1618.5 1006.43,1619.5 1002.93,1621.4 C996.333,1625 992.233,1630.9 992.233,1636 C992.233,1637.4 992.433,1638.7 993.133,1639.9 C994.633,1642.6 997.633,1644.3 1001.53,1644.7 C1002.13,1644.8 1002.63,1644.8 1003.23,1644.8 C1006.73,1644.8 1010.43,1643.8 1013.93,1641.9 C1020.53,1638.3 1024.73,1632.5 1024.73,1627.4 C1024.73,1626 1024.43,1624.6 1023.73,1623.4"/>
<path class="Note" d="M1213.24,1648.4 C1211.74,1645.7 1208.84,1644 1204.94,1643.6 C1204.34,1643.5 1203.84,1643.5 1203.24,1643.5 C1199.74,1643.5 1195.94,1644.5 1192.44,1646.4 C1185.84,1650 1181.74,1655.9 1181.74,1661 C1181.74,1662.4 1181.94,1663.7 1182.64,1664.9 C1184.14,1667.6 1187.14,1669.3 1191.04,1669.7 C1191.64,1669.8 1192.14,1669.8 1192.74,1669.8 C1196.24,1669.8 1199.94,1668.8 1203.44,1666.9 C1210.04,1663.3 1214.24,1657.5 1214.24,1652.4 C1214.24,1651 1213.94,1649.6 1213.24,1648.4"/>
<path class="Note" d="M1402.74,1673.4 C1401.24,1670.7 1398.34,1669 1394.44,1668.6 C1393.84,1668.5 1393.34,1668.5 1392.74,1668.5 C1389.24,1668.5 1385.44,1669.5 1381.94,1671.4 C1375.34,1675 1371.24,1680.9 1371.24,1686 C1371.24,1687.4 1371.44,1688.7 1372.14,1689.9 C1373.64,1692.6 1376.64,1694.3 1380.54,1694.7 C1381.14,1694.8 1381.64,1694.8 1382.24,1694.8 C1385.74,1694.8 1389.44,1693.8 1392.94,1691.9 C1399.54,1688.3 1403.74,1682.5 1403.74,1677.4 C1403.74,1676 1403.44,1674.6 1402.74,1673.4"/>
<path class="Note" d="M1650.49,1485.89 C1648.99,1483.19 1646.09,1481.49 1642.19,1481.09 C1641.59,1480.99 1641.09,1480.99 1640.49,1480.99 C1636.99,1480.99 1633.19,1481.99 1629.69,1483.89 C1623.09,1487.49 1618.99,1493.39 1618.99,1498.49 C1618.99,1499.89 1619.19,1501.19 1619.89,1502.39 C1621.39,1505.09 1624.39,1506.79 1628.29,1507.19 C1628.89,1507.29 1629.39,1507.29 1629.99,1507.29 C1633.49,1507.29 1637.19,1506.29 1640.69,1504.39 C1647.29,1500.79 1651.49,1494.99 1651.49,1489.89 C1651.49,1488.49 1651.19,1487.09 1650.49,1485.89"/>
<path class="Note" d="M1829.93,1523.39 C1828.43,1520.69 1825.53,1518.99 1821.63,1518.59 C1821.03,1518.49 1820.53,1518.49 1819.93,1518.49 C1816.43,1518.49 1812.63,1519.49 1809.13,1521.39 C1802.53,1524.99 1798.43,1530.89 1798.43,1535.99 C1798.43,1537.39 1798.63,1538.69 1799.33,1539.89 C1800.83,1542.59 1803.83,1544.29 1807.73,1544.69 C1808.33,1544.79 1808.83,1544.79 1809.43,1544.79 C1812.93,1544.79 1816.63,1543.79 1820.13,1541.89 C1826.73,1538.29 1830.93,1532.49 1830.93,1527.39 C1830.93,1525.99 1830.63,1524.59 1829.93,1523.39"/>
<path class="Note" d="M2009.37,1548.39 C2007.87,1545.69 2004.97,1543.99 2001.07,1543.59 C2000.47,1543.49 1999.97,1543.49 1999.37,1543.49 C1995.87,1543.49 1992.07,1544.49 1988.57,1546.39 C1981.97,1549.99 1977.87,1555.89 1977.87,1560.99 C1977.87,1562.39 1978.07,1563.69 1978.77,1564.89 C1980.27,1567.59 1983.27,1569.29 1987.17,1569.69 C1987.77,1569.79 1988.27,1569.79 1988.87,1569.79 C1992.37,1569.79 1996.07,1568.79 1999.57,1566.89 C2006.17,1563.29 2010.37,1557.49 2010.37,1552.39 C2010.37,1550.99 2010.07,1549.59 2009.37,1548.39"/>
<path class="Note" d="M2225.81,1523.39 C2224.31,1520.69 2221.41,1518.99 2217.51,1518.59 C2216.91,1518.49 2216.41,1518.49 2215.81,1518.49 C2212.31,1518.49 2208.51,1519.49 2205.01,1521.39 C2198.41,1524.99 2194.31,1530.89 2194.31,1535.99 C2194.31,1537.39 2194.51,1538.69 2195.21,1539.89 C2196.71,1542.59 2199.71,1544.29 2203.61,1544.69 C2204.21,1544.79 2204.71,1544.79 2205.31,1544.79 C2208.81,1544.79 2212.51,1543.79 2216.01,1541.89 C2222.61,1538.29 2226.81,1532.49 2226.81,1527.39 C2226.81,1525.99 2226.51,1524.59 2225.81,1523.39"/>
<path class="Note" d="M2405.25,1548.39 C2403.75,1545.69 2400.85,1543.99 2396.95,1543.59 C2396.35,1543.49 2395.85,1543.49 2395.25,1543.49 C2391.75,1543.49 2387.95,1544.49 2384.45,1546.39 C2377.85,1549.99 2373.75,1555.89 2373.75,1560.99 C2373.75,1562.39 2373.95,1563.69 2374.65,1564.89 C2376.15,1567.59 2379.15,1569.29 2383.05,1569.69 C2383.65,1569.79 2384.15,1569.79 2384.75,1569.79 C2388.25,1569.79 2391.95,1568.79 2395.45,1566.89 C2402.05,1563.29 2406.25,1557.49 2406.25,1552.39 C2406.25,1550.99 2405.95,1549.59 2405.25,1548.39"/>
<path class="Note" d="M2584.69,1573.39 C2583.19,1570.69 2580.29,1568.99 2576.39,1568.59 C2575.79,1568.49 2575.29,1568.49 2574.69,1568.49 C2571.19,1568.49 2567.39,1569.49 2563.89,1571.39 C2557.29,1574.99 2553.19,1580.89 2553.19,1585.99 C2553.19,1587.39 2553.39,1588.69 2554.09,1589.89 C2555.59,1592.59 2558.59,1594.29 2562.49,1594.69 C2563.09,1594.79 2563.59,1594.79 2564.19,1594.79 C2567.69,1594.79 2571.39,1593.79 2574.89,1591.89 C2581.49,1588.29 2585.69,1582.49 2585.69,1577.39 C2585.69,1575.99 2585.39,1574.59 2584.69,1573.39"/>
<path class="Note" d="M486.502,760.843 C485.002,758.143 482.102,756.443 478.202,756.043 C477.602,755.943 477.102,755.943 476.502,755.943 C473.002,755.943 469.202,756.943 465.702,758.843 C459.102,762.443 455.002,768.343 455.002,773.443 C455.002,774.843 455.202,776.143 455.902,777.343 C457.402,780.043 460.402,781.743 464.302,782.143 C464.902,782.243 465.402,782.243 466.002,782.243 C469.502,782.243 473.202,781.243 476.702,779.343 C483.302,775.743 487.502,769.943 487.502,764.843 C487.502,763.443 487.202,762.043 486.502,760.843"/>
<path class="Note" d="M662.584,735.842 C661.084,733.142 658.184,731.442 654.284,731.042 C653.684,730.942 653.184,730.942 652.584,730.942 C649.084,730.942 645.284,731.942 641.784,733.842 C635.184,737.442 631.084,743.342 631.084,748.442 C631.084,749.842 631.284,751.142 631.984,752.342 C633.484,755.042 636.484,756.742 640.384,757.142 C640.984,757.242 641.484,757.242 642.084,757.242 C645.584,757.242 649.284,756.242 652.784,754.342 C659.384,750.742 663.584,744.942 663.584,739.842 C663.584,738.442 663.284,737.042 662.584,735.842"/>
<path class="Note" d="M838.666,710.84 C837.166,708.14 834.266,706.44 830.366,706.04 C829.766,705.94 829.266,705.94 828.666,705.94 C825.166,705.94 821.366,706.94 817.866,708.84 C811.266,712.44 807.166,718.34 807.166,723.44 C807.166,724.84 807.366,726.14 808.066,727.34 C809.566,730.04 812.566,731.74 816.466,732.14 C817.066,732.24 817.566,732.24 818.166,732.24 C821.666,732.24 825.366,731.24 828.866,729.34 C835.466,725.74 839.666,719.94 839.666,714.84 C839.666,713.44 839.366,712.04 838.666,710.84"/>
<path class="Note" d="M1071.65,735.842 C1070.15,733.142 1067.25,731.442 1063.35,731.042 C1062.75,730.942 1062.25,730.942 1061.65,730.942 C1058.15,730.942 1054.35,731.942 1050.85,733.842 C1044.25,737.442 1040.15,743.342 1040.15,748.442 C1040.15,749.842 1040.35,751.142 1041.05,752.342 C1042.55,755.042 1045.55,756.742 1049.45,757.142 C1050.05,757.242 1050.55,757.242 1051.15,757.242 C1054.65,757.242 1058.35,756.242 1061.85,754.342 C1068.45,750.742 1072.65,744.942 1072.65,739.842 C1072.65,738.442 1072.35,737.042 1071.65,735.842"/>
<path class="Note" d="M1233.87,710.84 C1232.37,708.14 1229.47,706.44 1225.57,706.04 C1224.97,705.94 1224.47,705.94 1223.87,705.94 C1220.37,705.94 1216.57,706.94 1213.07,708.84 C1206.47,712.44 1202.37,718.34 1202.37,723.44 C1202.37,724.84 1202.57,726.14 1203.27,727.34 C1204.77,730.04 1207.77,731.74 1211.67,732.14 C1212.27,732.24 1212.77,732.24 1213.37,732.24 C1216.87,732.24 1220.57,731.24 1224.07,729.34 C1230.67,725.74 1234.87,719.94 1234.87,714.84 C1234.87,713.44 1234.57,712.04 1233.87,710.84"/>
<path class="Note" d="M1396.1,673.338 C1394.6,670.638 1391.7,668.938 1387.8,668.538 C1387.2,668.438 1386.7,668.438 1386.1,668.438 C1382.6,668.438 1378.8,669.438 1375.3,671.338 C1368.7,674.938 1364.6,680.838 1364.6,685.938 C1364.6,687.338 1364.8,688.638 1365.5,689.838 C1367,692.538 1370,694.238 1373.9,694.638 C1374.5,694.738 1375,694.738 1375.6,694.738 C1379.1,694.738 1382.8,693.738 1386.3,691.838 C1392.9,688.238 1397.1,682.438 1397.1,677.338 C1397.1,675.938 1396.8,674.538 1396.1,673.338"/>
<path class="Note" d="M1688.07,710.84 C1686.57,708.14 1683.67,706.44 1679.77,706.04 C1679.17,705.94 1678.67,705.94 1678.07,705.94 C1674.57,705.94 1670.77,706.94 1667.27,708.84 C1660.67,712.44 1656.57,718.34 1656.57,723.44 C1656.57,724.84 1656.77,726.14 1657.47,727.34 C1658.97,730.04 1661.97,731.74 1665.87,732.14 C1666.47,732.24 1666.97,732.24 1667.57,732.24 C1671.07,732.24 1674.77,731.24 1678.27,729.34 C1684.87,725.74 1689.07,719.94 1689.07,714.84 C1689.07,713.44 1688.77,712.04 1688.07,710.84"/>
<path class="Note" d="M1867.51,673.338 C1866.01,670.638 1863.11,668.938 1859.21,668.538 C1858.61,668.438 1858.11,668.438 1857.51,668.438 C1854.01,668.438 1850.21,669.438 1846.71,671.338 C1840.11,674.938 1836.01,680.838 1836.01,685.938 C1836.01,687.338 1836.21,688.638 1836.91,689.838 C1838.41,692.538 1841.41,694.238 1845.31,694.638 C1845.91,694.738 1846.41,694.738 1847.01,694.738 C1850.51,694.738 1854.21,693.738 1857.71,691.838 C1864.31,688.238 1868.51,682.438 1868.51,677.338 C1868.51,675.938 1868.21,674.538 1867.51,673.338"/>
<path class="Note" d="M2046.95,648.336 C2045.45,645.636 2042.55,643.936 2038.65,643.536 C2038.05,643.436 2037.55,643.436 2036.95,643.436 C2033.45,643.436 2029.65,644.436 2026.15,646.336 C2019.55,649.936 2015.45,655.836 2015.45,660.936 C2015.45,662.336 2015.65,663.636 2016.35,664.836 C2017.85,667.536 2020.85,669.236 2024.75,669.636 C2025.35,669.736 2025.85,669.736 2026.45,669.736 C2029.95,669.736 2033.65,668.736 2037.15,666.836 C2043.75,663.236 2047.95,657.436 2047.95,652.336 C2047.95,650.936 2047.65,649.536 2046.95,648.336"/>
<path class="Note" d="M2263.38,673.338 C2261.88,670.638 2258.98,668.938 2255.08,668.538 C2254.48,668.438 2253.98,668.438 2253.38,668.438 C2249.88,668.438 2246.08,669.438 2242.58,671.338 C2235.98,674.938 2231.88,680.838 2231.88,685.938 C2231.88,687.338 2232.08,688.638 2232.78,689.838 C2234.28,692.538 2237.28,694.238 2241.18,694.638 C2241.78,694.738 2242.28,694.738 2242.88,694.738 C2246.38,694.738 2250.08,693.738 2253.58,691.838 C2260.18,688.238 2264.38,682.438 2264.38,677.338 C2264.38,675.938 2264.08,674.538 2263.38,673.338"/>
<path class="Note" d="M2439.47,648.336 C2437.97,645.636 2435.07,643.936 2431.17,643.536 C2430.57,643.436 2430.07,643.436 2429.47,643.436 C2425.97,643.436 2422.17,644.436 2418.67,646.336 C2412.07,649.936 2407.97,655.836 2407.97,660.936 C2407.97,662.336 2408.17,663.636 2408.87,664.836 C2410.37,667.536 2413.37,669.236 2417.27,669.636 C2417.87,669.736 2418.37,669.736 2418.97,669.736 C2422.47,669.736 2426.17,668.736 2429.67,666.836 C2436.27,663.236 2440.47,657.436 2440.47,652.336 C2440.47,650.936 2440.17,649.536 2439.47,648.336"/>
<path class="Note" d="M2615.55,623.334 C2614.05,620.634 2611.15,618.934 2607.25,618.534 C2606.65,618.434 2606.15,618.434 2605.55,618.434 C2602.05,618.434 2598.25,619.434 2594.75,621.334 C2588.15,624.934 2584.05,630.834 2584.05,635.934 C2584.05,637.334 2584.25,638.634 2584.95,639.834 C2586.45,642.534 2589.45,644.234 2593.35,644.634 C2593.95,644.734 2594.45,644.734 2595.05,644.734 C2598.55,644.734 2602.25,643.734 2605.75,641.834 C2612.35,638.234 2616.55,632.434 2616.55,627.334 C2616.55,625.934 2616.25,624.534 2615.55,623.334"/>
<path class="Note" d="M438.351,1235.87 C436.851,1233.17 433.951,1231.47 430.051,1231.07 C429.451,1230.97 428.951,1230.97 428.351,1230.97 C424.851,1230.97 421.051,1231.97 417.551,1233.87 C410.951,1237.47 406.851,1243.37 406.851,1248.47 C406.851,1249.87 407.051,1251.17 407.751,1252.37 C409.251,1255.07 412.251,1256.77 416.151,1257.17 C416.751,1257.27 417.251,1257.27 417.851,1257.27 C421.351,1257.27 425.051,1256.27 428.551,1254.37 C435.151,1250.77 439.351,1244.97 439.351,1239.87 C439.351,1238.47 439.051,1237.07 438.351,1235.87"/>
<path class="Note" d="M621.144,1273.38 C619.644,1270.68 616.744,1268.98 612.844,1268.58 C612.244,1268.48 611.744,1268.48 611.144,1268.48 C607.644,1268.48 603.844,1269.48 600.344,1271.38 C593.744,1274.98 589.644,1280.88 589.644,1285.98 C589.644,1287.38 589.844,1288.68 590.544,1289.88 C592.044,1292.58 595.044,1294.28 598.944,1294.68 C599.544,1294.78 600.044,1294.78 600.644,1294.78 C604.144,1294.78 607.844,1293.78 611.344,1291.88 C617.944,1288.28 622.144,1282.48 622.144,1277.38 C622.144,1275.98 621.844,1274.58 621.144,1273.38"/>
<path class="Note" d="M803.938,1298.38 C802.438,1295.68 799.538,1293.98 795.638,1293.58 C795.038,1293.48 794.538,1293.48 793.938,1293.48 C790.438,1293.48 786.638,1294.48 783.138,1296.38 C776.538,1299.98 772.438,1305.88 772.438,1310.98 C772.438,1312.38 772.638,1313.68 773.338,1314.88 C774.838,1317.58 777.838,1319.28 781.738,1319.68 C782.338,1319.78 782.838,1319.78 783.438,1319.78 C786.938,1319.78 790.638,1318.78 794.138,1316.88 C800.738,1313.28 804.938,1307.48 804.938,1302.38 C804.938,1300.98 804.638,1299.58 803.938,1298.38"/>
<path class="Note" d="M1023.73,1273.38 C1022.23,1270.68 1019.33,1268.98 1015.43,1268.58 C1014.83,1268.48 1014.33,1268.48 1013.73,1268.48 C1010.23,1268.48 1006.43,1269.48 1002.93,1271.38 C996.333,1274.98 992.233,1280.88 992.233,1285.98 C992.233,1287.38 992.433,1288.68 993.133,1289.88 C994.633,1292.58 997.633,1294.28 1001.53,1294.68 C1002.13,1294.78 1002.63,1294.78 1003.23,1294.78 C1006.73,1294.78 1010.43,1293.78 1013.93,1291.88 C1020.53,1288.28 1024.73,1282.48 1024.73,1277.38 C1024.73,1275.98 1024.43,1274.58 1023.73,1273.38"/>
<path class="Note" d="M1213.24,1298.38 C1211.74,1295.68 1208.84,1293.98 1204.94,1293.58 C1204.34,1293.48 1203.84,1293.48 1203.24,1293.48 C1199.74,1293.48 1195.94,1294.48 1192.44,1296.38 C1185.84,1299.98 1181.74,1305.88 1181.74,1310.98 C1181.74,1312.38 1181.94,1313.68 1182.64,1314.88 C1184.14,1317.58 1187.14,1319.28 1191.04,1319.68 C1191.64,1319.78 1192.14,1319.78 1192.74,1319.78 C1196.24,1319.78 1199.94,1318.78 1203.44,1316.88 C1210.04,1313.28 1214.24,1307.48 1214.24,1302.38 C1214.24,1300.98 1213.94,1299.58 1213.24,1298.38"/>
<path class="Note" d="M1402.74,1323.38 C1401.24,1320.68 1398.34,1318.98 1394.44,1318.58 C1393.84,1318.48 1393.34,1318.48 1392.74,1318.48 C1389.24,1318.48 1385.44,1319.48 1381.94,1321.38 C1375.34,1324.98 1371.24,1330.88 1371.24,1335.98 C1371.24,1337.38 1371.44,1338.68 1372.14,1339.88 C1373.64,1342.58 1376.64,1344.28 1380.54,1344.68 C1381.14,1344.78 1381.64,1344.78 1382.24,1344.78 C1385.74,1344.78 1389.44,1343.78 1392.94,1341.88 C1399.54,1338.28 1403.74,1332.48 1403.74,1327.38 C1403.74,1325.98 1403.44,1324.58 1402.74,1323.38"/>
<path class="Note" d="M1650.49,1285.88 C1648.99,1283.18 1646.09,1281.48 1642.19,1281.08 C1641.59,1280.98 1641.09,1280.98 1640.49,1280.98 C1636.99,1280.98 1633.19,1281.98 1629.69,1283.88 C1623.09,1287.48 1618.99,1293.38 1618.99,1298.48 C1618.99,1299.88 1619.19,1301.18 1619.89,1302.38 C1621.39,1305.08 1624.39,1306.78 1628.29,1307.18 C1628.89,1307.28 1629.39,1307.28 1629.99,1307.28 C1633.49,1307.28 1637.19,1306.28 1640.69,1304.38 C1647.29,1300.78 1651.49,1294.98 1651.49,1289.88 C1651.49,1288.48 1651.19,1287.08 1650.49,1285.88"/>
<path class="Note" d="M1829.93,1323.38 C1828.43,1320.68 1825.53,1318.98 1821.63,1318.58 C1821.03,1318.48 1820.53,1318.48 1819.93,1318.48 C1816.43,1318.48 1812.63,1319.48 1809.13,1321.38 C1802.53,1324.98 1798.43,1330.88 1798.43,1335.98 C1798.43,1337.38 1798.63,1338.68 1799.33,1339.88 C1800.83,1342.58 1803.83,1344.28 1807.73,1344.68 C1808.33,1344.78 1808.83,1344.78 1809.43,1344.78 C1812.93,1344.78 1816.63,1343.78 1820.13,1341.88 C1826.73,1338.28 1830.93,1332.48 1830.93,1327.38 C1830.93,1325.98 1830.63,1324.58 1829.93,1323.38"/>
<path class="Note" d="M2009.37,1348.38 C2007.87,1345.68 2004.97,1343.98 2001.07,1343.58 C2000.47,1343.48 1999.97,1343.48 1999.37,1343.48 C1995.87,1343.48 1992.07,1344.48 1988.57,1346.38 C1981.97,1349.98 1977.87,1355.88 1977.87,1360.98 C1977.87,1362.38 1978.07,1363.68 1978.77,1364.88 C1980.27,1367.58 1983.27,1369.28 1987.17,1369.68 C1987.77,1369.78 1988.27,1369.78 1988.87,1369.78 C1992.37,1369.78 1996.07,1368.78 1999.57,1366.88 C2006.17,1363.28 2010.37,1357.48 2010.37,1352.38 C2010.37,1350.98 2010.07,1349.58 2009.37,1348.38"/>
<path class="Note" d="M2225.81,1323.38 C2224.31,1320.68 2221.41,1318.98 2217.51,1318.58 C2216.91,1318.48 2216.41,1318.48 2215.81,1318.48 C2212.31,1318.48 2208.51,1319.48 2205.01,1321.38 C2198.41,1324.98 2194.31,1330.88 2194.31,1335.98 C2194.31,1337.38 2194.51,1338.68 2195.21,1339.88 C2196.71,1342.58 2199.71,1344.28 2203.61,1344.68 C2204.21,1344.78 2204.71,1344.78 2205.31,1344.78 C2208.81,1344.78 2212.51,1343.78 2216.01,1341.88 C2222.61,1338.28 2226.81,1332.48 2226.81,1327.38 C2226.81,1325.98 2226.51,1324.58 2225.81,1323.38"/>
<path class="Note" d="M2405.25,1348.38 C2403.75,1345.68 2400.85,1343.98 2396.95,1343.58 C2396.35,1343.48 2395.85,1343.48 2395.25,1343.48 C2391.75,1343.48 2387.95,1344.48 2384.45,1346.38 C2377.85,1349.98 2373.75,1355.88 2373.75,1360.98 C2373.75,1362.38 2373.95,1363.68 2374.65,1364.88 C2376.15,1367.58 2379.15,1369.28 2383.05,1369.68 C2383.65,1369.78 2384.15,1369.78 2384.75,1369.78 C2388.25,1369.78 2391.95,1368.78 2395.45,1366.88 C2402.05,1363.28 2406.25,1357.48 2406.25,1352.38 C2406.25,1350.98 2405.95,1349.58 2405.25,1348.38"/>
<path class="Note" d="M2584.69,1373.38 C2583.19,1370.68 2580.29,1368.98 2576.39,1368.58 C2575.79,1368.48 2575.29,1368.48 2574.69,1368.48 C2571.19,1368.48 2567.39,1369.48 2563.89,1371.38 C2557.29,1374.98 2553.19,1380.88 2553.19,1385.98 C2553.19,1387.38 2553.39,1388.68 2554.09,1389.88 C2555.59,1392.58 2558.59,1394.28 2562.49,1394.68 C2563.09,1394.78 2563.59,1394.78 2564.19,1394.78 C2567.69,1394.78 2571.39,1393.78 2574.89,1391.88 C2581.49,1388.28 2585.69,1382.48 2585.69,1377.38 C2585.69,1375.98 2585.39,1374.58 2584.69,1373.38"/>
<path class="Clef" d="M297,918.954 C289.4,918.954 283.3,923.354 283.2,923.354 C277.4,927.654 275.1,932.754 274.2,936.254 C273.7,938.054 273.5,939.854 273.5,941.554 C273.5,943.954 273.9,946.154 274.8,948.054 C276,950.754 278.3,952.654 281.3,953.654 C282.5,954.054 283.8,954.254 285.1,954.254 C287.3,954.254 289.6,953.654 291.5,952.554 C294.6,950.854 296.5,947.254 296.5,943.354 C296.5,939.854 294.7,936.654 291.7,934.754 C289.6,933.354 287.6,932.954 285.9,932.954 C284.7,932.954 283.6,933.154 282.7,933.454 C281.7,933.854 280,934.854 279.2,935.554 C279.5,933.654 280.7,930.754 281.8,929.154 C282.9,927.554 285.1,925.554 286.8,924.654 C289.3,923.254 292.5,922.654 296,922.654 C306.2,922.654 311.2,930.854 311.2,947.654 C311.2,956.954 307.7,965.854 304.7,971.754 C301.4,978.354 297,984.654 293.1,988.154 C282.7,997.654 272.9,1002.15 272.8,1002.15 C272.8,1002.15 271.3,1003.05 271.7,1004.55 C272,1005.55 272.9,1005.75 273.5,1005.75 C273.6,1005.75 273.9,1005.65 274,1005.65 C274.1,1005.65 285.5,1000.95 294.6,993.854 C299.7,990.154 304.3,986.154 308.3,981.854 C311.9,977.954 315,973.754 317.5,969.554 C321.9,962.054 324.4,954.254 324.4,947.554 C324.4,939.254 322.2,932.354 318.1,927.454 C313.4,921.854 306.3,918.954 297,918.954 M328.4,931.654 C328.4,934.454 330.6,936.654 333.2,936.654 C335.8,936.654 338,934.454 338,931.654 C338,928.854 335.8,926.554 333.2,926.554 C330.6,926.554 328.4,928.854 328.4,931.654 M328.4,956.354 C328.4,959.154 330.6,961.454 333.2,961.454 C335.8,961.454 338,959.154 338,956.354 C338,953.554 335.8,951.254 333.2,951.254 C330.6,951.254 328.4,953.554 328.4,956.354"/>
<path class="Clef" d="M1614.72,988.157 C1613.52,982.757 1610.82,978.857 1610.02,977.857 C1606.82,973.557 1602.82,970.757 1598.12,969.357 C1595.82,968.657 1593.72,968.457 1591.72,968.457 C1591.02,968.457 1590.32,968.457 1589.62,968.557 C1588.62,962.557 1587.52,956.657 1586.62,951.257 C1592.22,945.057 1595.92,939.157 1598.32,934.757 C1601.92,928.057 1603.32,923.357 1603.42,923.157 C1604.62,920.157 1605.32,916.357 1605.32,911.857 C1605.32,909.157 1605.02,906.257 1604.62,903.257 C1603.52,896.157 1601.32,889.457 1598.82,885.757 C1597.52,883.857 1596.32,882.757 1595.12,882.757 C1593.92,882.757 1591.42,883.957 1588.52,886.757 C1586.22,888.957 1582.92,892.857 1580.32,898.857 C1578.02,904.257 1577.32,911.157 1577.32,917.057 C1577.32,918.857 1577.42,920.557 1577.52,922.157 C1577.72,925.757 1578.42,931.557 1579.02,935.157 C1579.02,935.257 1579.32,936.757 1579.72,939.357 L1579.02,940.057 C1578.02,941.057 1576.82,942.157 1575.42,943.557 C1574.52,944.457 1573.62,945.257 1572.62,946.257 C1564.12,954.457 1551.32,966.857 1551.32,985.957 C1551.32,990.657 1552.22,995.057 1554.02,999.057 C1555.62,1002.66 1557.92,1005.96 1560.82,1008.86 C1568.32,1016.26 1578.52,1019.46 1585.62,1019.46 L1586.22,1019.46 C1589.12,1019.36 1591.82,1019.06 1594.22,1018.66 C1596.02,1028.26 1597.22,1035.36 1597.22,1040.66 C1597.22,1047.16 1595.62,1051.06 1591.72,1053.86 C1589.32,1055.56 1586.42,1056.66 1583.32,1056.76 L1582.52,1056.76 C1581.02,1056.76 1578.52,1056.36 1577.02,1055.96 C1577.02,1055.96 1576.72,1055.86 1576.72,1055.66 C1576.72,1055.46 1577.12,1055.46 1577.12,1055.46 C1579.02,1055.06 1582.62,1053.76 1585.02,1050.46 C1586.12,1048.96 1586.82,1046.66 1586.82,1044.16 C1586.82,1042.56 1586.52,1040.86 1585.82,1039.36 C1584.72,1036.96 1582.12,1033.96 1576.52,1033.56 L1575.42,1033.56 C1573.32,1033.56 1571.52,1034.06 1569.82,1035.06 C1568.02,1036.16 1566.42,1037.86 1565.42,1039.86 C1564.32,1041.86 1563.82,1044.06 1563.82,1046.26 C1563.82,1049.16 1564.72,1051.86 1566.52,1054.06 C1569.52,1057.66 1574.22,1059.96 1579.62,1060.56 C1580.32,1060.66 1581.42,1060.76 1582.12,1060.76 C1586.52,1060.76 1590.92,1059.56 1594.52,1057.36 C1598.22,1054.76 1600.32,1050.76 1601.02,1045.16 C1601.22,1043.86 1601.22,1042.46 1601.22,1040.96 C1601.22,1037.06 1600.72,1032.36 1599.72,1026.56 C1599.32,1024.46 1598.92,1021.46 1598.22,1017.66 C1604.02,1015.76 1608.12,1012.06 1611.92,1006.26 C1614.22,1002.26 1615.32,998.157 1615.32,993.857 C1615.32,991.957 1615.12,990.057 1614.72,988.157 M1584.52,910.257 C1586.32,904.557 1589.02,901.157 1591.02,899.457 C1592.82,897.957 1594.42,897.257 1595.32,897.257 C1595.42,897.257 1595.62,897.357 1595.72,897.357 C1596.02,897.457 1596.42,897.957 1596.82,898.657 C1597.72,900.457 1598.62,903.757 1598.62,907.457 C1598.62,909.357 1598.42,911.357 1597.82,913.157 C1595.62,919.957 1591.02,927.257 1584.02,934.957 C1583.82,933.857 1583.62,932.857 1583.52,931.857 C1583.02,928.657 1582.72,925.457 1582.72,922.557 C1582.72,918.057 1583.32,913.957 1584.52,910.257 M1580.52,1014.36 C1575.92,1013.16 1571.42,1010.66 1567.62,1007.16 C1566.32,1005.96 1564.52,1003.76 1563.02,1000.36 C1561.72,997.357 1561.02,994.257 1561.02,990.857 L1561.02,990.157 C1561.12,985.457 1562.42,980.657 1564.92,975.857 C1567.82,970.257 1572.32,964.757 1578.42,959.457 C1579.92,958.157 1581.32,956.857 1582.62,955.557 C1583.42,959.857 1584.12,964.557 1585.02,969.457 C1581.12,970.757 1576.42,973.757 1573.32,979.457 C1570.92,983.957 1570.22,987.857 1570.22,991.057 C1570.22,992.557 1570.42,993.957 1570.62,995.057 C1571.52,999.557 1574.12,1003.26 1577.62,1005.36 C1578.42,1005.86 1581.72,1007.56 1583.72,1007.56 C1584.02,1007.56 1584.32,1007.56 1584.52,1007.46 C1584.82,1007.36 1585.12,1007.16 1585.22,1006.86 C1585.32,1006.66 1585.32,1006.46 1585.32,1006.26 C1585.32,1005.46 1584.52,1004.86 1583.22,1004.06 C1582.62,1003.66 1581.92,1003.26 1581.22,1002.76 C1578.62,1000.76 1577.12,997.657 1577.12,994.257 C1577.12,993.257 1577.32,992.357 1577.52,991.357 C1578.02,989.357 1579.72,986.557 1581.22,985.157 C1582.92,983.657 1584.92,982.457 1587.32,981.857 C1589.32,993.057 1591.42,1004.16 1593.02,1012.56 C1593.12,1013.26 1593.32,1013.96 1593.42,1014.66 C1591.42,1015.06 1589.42,1015.26 1587.52,1015.26 C1585.12,1015.26 1582.82,1014.96 1580.52,1014.36 M1606.22,1004.16 C1605.02,1007.36 1602.52,1011.36 1597.42,1013.46 C1597.32,1013.06 1597.32,1012.56 1597.22,1012.16 C1595.72,1003.36 1593.82,992.457 1591.82,981.157 L1592.82,981.157 C1602.52,981.157 1606.42,988.357 1607.32,992.957 C1607.52,993.857 1607.62,995.057 1607.62,996.357 C1607.62,998.657 1607.22,1001.46 1606.22,1004.16"/>
<path class="Clef" d="M335,1600.7 C333.8,1595.3 331.1,1591.4 330.3,1590.4 C327.1,1586.1 323.1,1583.3 318.4,1581.9 C316.1,1581.2 314,1581 312,1581 C311.3,1581 310.6,1581 309.9,1581.1 C308.9,1575.1 307.8,1569.2 306.9,1563.8 C312.5,1557.6 316.2,1551.7 318.6,1547.3 C322.2,1540.6 323.6,1535.9 323.7,1535.7 C324.9,1532.7 325.6,1528.9 325.6,1524.4 C325.6,1521.7 325.3,1518.8 324.9,1515.8 C323.8,1508.7 321.6,1502 319.1,1498.3 C317.8,1496.4 316.6,1495.3 315.4,1495.3 C314.2,1495.3 311.7,1496.5 308.8,1499.3 C306.5,1501.5 303.2,1505.4 300.6,1511.4 C298.3,1516.8 297.6,1523.7 297.6,1529.6 C297.6,1531.4 297.7,1533.1 297.8,1534.7 C298,1538.3 298.7,1544.1 299.3,1547.7 C299.3,1547.8 299.6,1549.3 300,1551.9 L299.3,1552.6 C298.3,1553.6 297.1,1554.7 295.7,1556.1 C294.8,1557 293.9,1557.8 292.9,1558.8 C284.4,1567 271.6,1579.4 271.6,1598.5 C271.6,1603.2 272.5,1607.6 274.3,1611.6 C275.9,1615.2 278.2,1618.5 281.1,1621.4 C288.6,1628.8 298.8,1632 305.9,1632 L306.5,1632 C309.4,1631.9 312.1,1631.6 314.5,1631.2 C316.3,1640.8 317.5,1647.9 317.5,1653.2 C317.5,1659.7 315.9,1663.6 312,1666.4 C309.6,1668.1 306.7,1669.2 303.6,1669.3 L302.8,1669.3 C301.3,1669.3 298.8,1668.9 297.3,1668.5 C297.3,1668.5 297,1668.4 297,1668.2 C297,1668 297.4,1668 297.4,1668 C299.3,1667.6 302.9,1666.3 305.3,1663 C306.4,1661.5 307.1,1659.2 307.1,1656.7 C307.1,1655.1 306.8,1653.4 306.1,1651.9 C305,1649.5 302.4,1646.5 296.8,1646.1 L295.7,1646.1 C293.6,1646.1 291.8,1646.6 290.1,1647.6 C288.3,1648.7 286.7,1650.4 285.7,1652.4 C284.6,1654.4 284.1,1656.6 284.1,1658.8 C284.1,1661.7 285,1664.4 286.8,1666.6 C289.8,1670.2 294.5,1672.5 299.9,1673.1 C300.6,1673.2 301.7,1673.3 302.4,1673.3 C306.8,1673.3 311.2,1672.1 314.8,1669.9 C318.5,1667.3 320.6,1663.3 321.3,1657.7 C321.5,1656.4 321.5,1655 321.5,1653.5 C321.5,1649.6 321,1644.9 320,1639.1 C319.6,1637 319.2,1634 318.5,1630.2 C324.3,1628.3 328.4,1624.6 332.2,1618.8 C334.5,1614.8 335.6,1610.7 335.6,1606.4 C335.6,1604.5 335.4,1602.6 335,1600.7 M304.8,1522.8 C306.6,1517.1 309.3,1513.7 311.3,1512 C313.1,1510.5 314.7,1509.8 315.6,1509.8 C315.7,1509.8 315.9,1509.9 316,1509.9 C316.3,1510 316.7,1510.5 317.1,1511.2 C318,1513 318.9,1516.3 318.9,1520 C318.9,1521.9 318.7,1523.9 318.1,1525.7 C315.9,1532.5 311.3,1539.8 304.3,1547.5 C304.1,1546.4 303.9,1545.4 303.8,1544.4 C303.3,1541.2 303,1538 303,1535.1 C303,1530.6 303.6,1526.5 304.8,1522.8 M300.8,1626.9 C296.2,1625.7 291.7,1623.2 287.9,1619.7 C286.6,1618.5 284.8,1616.3 283.3,1612.9 C282,1609.9 281.3,1606.8 281.3,1603.4 L281.3,1602.7 C281.4,1598 282.7,1593.2 285.2,1588.4 C288.1,1582.8 292.6,1577.3 298.7,1572 C300.2,1570.7 301.6,1569.4 302.9,1568.1 C303.7,1572.4 304.4,1577.1 305.3,1582 C301.4,1583.3 296.7,1586.3 293.6,1592 C291.2,1596.5 290.5,1600.4 290.5,1603.6 C290.5,1605.1 290.7,1606.5 290.9,1607.6 C291.8,1612.1 294.4,1615.8 297.9,1617.9 C298.7,1618.4 302,1620.1 304,1620.1 C304.3,1620.1 304.6,1620.1 304.8,1620 C305.1,1619.9 305.4,1619.7 305.5,1619.4 C305.6,1619.2 305.6,1619 305.6,1618.8 C305.6,1618 304.8,1617.4 303.5,1616.6 C302.9,1616.2 302.2,1615.8 301.5,1615.3 C298.9,1613.3 297.4,1610.2 297.4,1606.8 C297.4,1605.8 297.6,1604.9 297.8,1603.9 C298.3,1601.9 300,1599.1 301.5,1597.7 C303.2,1596.2 305.2,1595 307.6,1594.4 C309.6,1605.6 311.7,1616.7 313.3,1625.1 C313.4,1625.8 313.6,1626.5 313.7,1627.2 C311.7,1627.6 309.7,1627.8 307.8,1627.8 C305.4,1627.8 303.1,1627.5 300.8,1626.9 M326.5,1616.7 C325.3,1619.9 322.8,1623.9 317.7,1626 C317.6,1625.6 317.6,1625.1 317.5,1624.7 C316,1615.9 314.1,1605 312.1,1593.7 L313.1,1593.7 C322.8,1593.7 326.7,1600.9 327.6,1605.5 C327.8,1606.4 327.9,1607.6 327.9,1608.9 C327.9,1611.2 327.5,1614 326.5,1616.7"/>
<path class="Clef" transform="matrix(0.80005,0,0,0.80005,1507.62,1556.59)" d="M25.4,-25.1 C17.8,-25.1 11.7,-20.7 11.6,-20.7 C5.8,-16.4 3.5,-11.3 2.6,-7.8 C2.1,-6 1.9,-4.2 1.9,-2.5 C1.9,-0.1 2.3,2.1 3.2,4 C4.4,6.7 6.7,8.6 9.7,9.6 C10.9,10 12.2,10.2 13.5,10.2 C15.7,10.2 18,9.6 19.9,8.5 C23,6.8 24.9,3.2 24.9,-0.7 C24.9,-4.2 23.1,-7.4 20.1,-9.3 C18,-10.7 16,-11.1 14.3,-11.1 C13.1,-11.1 12,-10.9 11.1,-10.6 C10.1,-10.2 8.4,-9.2 7.6,-8.5 C7.9,-10.4 9.1,-13.3 10.2,-14.9 C11.3,-16.5 13.5,-18.5 15.2,-19.4 C17.7,-20.8 20.9,-21.4 24.4,-21.4 C34.6,-21.4 39.6,-13.2 39.6,3.6 C39.6,12.9 36.1,21.8 33.1,27.7 C29.8,34.3 25.4,40.6 21.5,44.1 C11.1,53.6 1.3,58.1 1.2,58.1 C1.2,58.1 -0.3,59 0.1,60.5 C0.4,61.5 1.3,61.7 1.9,61.7 C2,61.7 2.3,61.6 2.4,61.6 C2.5,61.6 13.9,56.9 23,49.8 C28.1,46.1 32.7,42.1 36.7,37.8 C40.3,33.9 43.4,29.7 45.9,25.5 C50.3,18 52.8,10.2 52.8,3.5 C52.8,-4.8 50.6,-11.7 46.5,-16.6 C41.8,-22.2 34.7,-25.1 25.4,-25.1 M56.8,-12.4 C56.8,-9.6 59,-7.4 61.6,-7.4 C64.2,-7.4 66.4,-9.6 66.4,-12.4 C66.4,-15.2 64.2,-17.5 61.6,-17.5 C59,-17.5 56.8,-15.2 56.8,-12.4 M56.8,12.3 C56.8,15.1 59,17.4 61.6,17.4 C64.2,17.4 66.4,15.1 66.4,12.3 C66.4,9.5 64.2,7.2 61.6,7.2 C59,7.2 56.8,9.5 56.8,12.3"/>
<path class="Clef" d="M335,725.641 C333.8,720.241 331.1,716.341 330.3,715.341 C327.1,711.041 323.1,708.241 318.4,706.841 C316.1,706.141 314,705.941 312,705.941 C311.3,705.941 310.6,705.941 309.9,706.041 C308.9,700.041 307.8,694.141 306.9,688.741 C312.5,682.541 316.2,676.641 318.6,672.241 C322.2,665.541 323.6,660.841 323.7,660.641 C324.9,657.641 325.6,653.841 325.6,649.341 C325.6,646.641 325.3,643.741 324.9,640.741 C323.8,633.641 321.6,626.941 319.1,623.241 C317.8,621.341 316.6,620.241 315.4,620.241 C314.2,620.241 311.7,621.441 308.8,624.241 C306.5,626.441 303.2,630.341 300.6,636.341 C298.3,641.741 297.6,648.641 297.6,654.541 C297.6,656.341 297.7,658.041 297.8,659.641 C298,663.241 298.7,669.041 299.3,672.641 C299.3,672.741 299.6,674.241 300,676.841 L299.3,677.541 C298.3,678.541 297.1,679.641 295.7,681.041 C294.8,681.941 293.9,682.741 292.9,683.741 C284.4,691.941 271.6,704.341 271.6,723.441 C271.6,728.141 272.5,732.541 274.3,736.541 C275.9,740.141 278.2,743.441 281.1,746.341 C288.6,753.741 298.8,756.941 305.9,756.941 L306.5,756.941 C309.4,756.841 312.1,756.541 314.5,756.141 C316.3,765.741 317.5,772.841 317.5,778.141 C317.5,784.641 315.9,788.541 312,791.341 C309.6,793.041 306.7,794.141 303.6,794.241 L302.8,794.241 C301.3,794.241 298.8,793.841 297.3,793.441 C297.3,793.441 297,793.341 297,793.141 C297,792.941 297.4,792.941 297.4,792.941 C299.3,792.541 302.9,791.241 305.3,787.941 C306.4,786.441 307.1,784.141 307.1,781.641 C307.1,780.041 306.8,778.341 306.1,776.841 C305,774.441 302.4,771.441 296.8,771.041 L295.7,771.041 C293.6,771.041 291.8,771.541 290.1,772.541 C288.3,773.641 286.7,775.341 285.7,777.341 C284.6,779.341 284.1,781.541 284.1,783.741 C284.1,786.641 285,789.341 286.8,791.541 C289.8,795.141 294.5,797.441 299.9,798.041 C300.6,798.141 301.7,798.241 302.4,798.241 C306.8,798.241 311.2,797.041 314.8,794.841 C318.5,792.241 320.6,788.241 321.3,782.641 C321.5,781.341 321.5,779.941 321.5,778.441 C321.5,774.541 321,769.841 320,764.041 C319.6,761.941 319.2,758.941 318.5,755.141 C324.3,753.241 328.4,749.541 332.2,743.741 C334.5,739.741 335.6,735.641 335.6,731.341 C335.6,729.441 335.4,727.541 335,725.641 M304.8,647.741 C306.6,642.041 309.3,638.641 311.3,636.941 C313.1,635.441 314.7,634.741 315.6,634.741 C315.7,634.741 315.9,634.841 316,634.841 C316.3,634.941 316.7,635.441 317.1,636.141 C318,637.941 318.9,641.241 318.9,644.941 C318.9,646.841 318.7,648.841 318.1,650.641 C315.9,657.441 311.3,664.741 304.3,672.441 C304.1,671.341 303.9,670.341 303.8,669.341 C303.3,666.141 303,662.941 303,660.041 C303,655.541 303.6,651.441 304.8,647.741 M300.8,751.841 C296.2,750.641 291.7,748.141 287.9,744.641 C286.6,743.441 284.8,741.241 283.3,737.841 C282,734.841 281.3,731.741 281.3,728.341 L281.3,727.641 C281.4,722.941 282.7,718.141 285.2,713.341 C288.1,707.741 292.6,702.241 298.7,696.941 C300.2,695.641 301.6,694.341 302.9,693.041 C303.7,697.341 304.4,702.041 305.3,706.941 C301.4,708.241 296.7,711.241 293.6,716.941 C291.2,721.441 290.5,725.341 290.5,728.541 C290.5,730.041 290.7,731.441 290.9,732.541 C291.8,737.041 294.4,740.741 297.9,742.841 C298.7,743.341 302,745.041 304,745.041 C304.3,745.041 304.6,745.041 304.8,744.941 C305.1,744.841 305.4,744.641 305.5,744.341 C305.6,744.141 305.6,743.941 305.6,743.741 C305.6,742.941 304.8,742.341 303.5,741.541 C302.9,741.141 302.2,740.741 301.5,740.241 C298.9,738.241 297.4,735.141 297.4,731.741 C297.4,730.741 297.6,729.841 297.8,728.841 C298.3,726.841 300,724.041 301.5,722.641 C303.2,721.141 305.2,719.941 307.6,719.341 C309.6,730.541 311.7,741.641 313.3,750.041 C313.4,750.741 313.6,751.441 313.7,752.141 C311.7,752.541 309.7,752.741 307.8,752.741 C305.4,752.741 303.1,752.441 300.8,751.841 M326.5,741.641 C325.3,744.841 322.8,748.841 317.7,750.941 C317.6,750.541 317.6,750.041 317.5,749.641 C316,740.841 314.1,729.941 312.1,718.641 L313.1,718.641 C322.8,718.641 326.7,725.841 327.6,730.441 C327.8,731.341 327.9,732.541 327.9,733.841 C327.9,736.141 327.5,738.941 326.5,741.641"/>
<path class="Clef" d="M335,1338.18 C333.8,1332.78 331.1,1328.88 330.3,1327.88 C327.1,1323.58 323.1,1320.78 318.4,1319.38 C316.1,1318.68 314,1318.48 312,1318.48 C311.3,1318.48 310.6,1318.48 309.9,1318.58 C308.9,1312.58 307.8,1306.68 306.9,1301.28 C312.5,1295.08 316.2,1289.18 318.6,1284.78 C322.2,1278.08 323.6,1273.38 323.7,1273.18 C324.9,1270.18 325.6,1266.38 325.6,1261.88 C325.6,1259.18 325.3,1256.28 324.9,1253.28 C323.8,1246.18 321.6,1239.48 319.1,1235.78 C317.8,1233.88 316.6,1232.78 315.4,1232.78 C314.2,1232.78 311.7,1233.98 308.8,1236.78 C306.5,1238.98 303.2,1242.88 300.6,1248.88 C298.3,1254.28 297.6,1261.18 297.6,1267.08 C297.6,1268.88 297.7,1270.58 297.8,1272.18 C298,1275.78 298.7,1281.58 299.3,1285.18 C299.3,1285.28 299.6,1286.78 300,1289.38 L299.3,1290.08 C298.3,1291.08 297.1,1292.18 295.7,1293.58 C294.8,1294.48 293.9,1295.28 292.9,1296.28 C284.4,1304.48 271.6,1316.88 271.6,1335.98 C271.6,1340.68 272.5,1345.08 274.3,1349.08 C275.9,1352.68 278.2,1355.98 281.1,1358.88 C288.6,1366.28 298.8,1369.48 305.9,1369.48 L306.5,1369.48 C309.4,1369.38 312.1,1369.08 314.5,1368.68 C316.3,1378.28 317.5,1385.38 317.5,1390.68 C317.5,1397.18 315.9,1401.08 312,1403.88 C309.6,1405.58 306.7,1406.68 303.6,1406.78 L302.8,1406.78 C301.3,1406.78 298.8,1406.38 297.3,1405.98 C297.3,1405.98 297,1405.88 297,1405.68 C297,1405.48 297.4,1405.48 297.4,1405.48 C299.3,1405.08 302.9,1403.78 305.3,1400.48 C306.4,1398.98 307.1,1396.68 307.1,1394.18 C307.1,1392.58 306.8,1390.88 306.1,1389.38 C305,1386.98 302.4,1383.98 296.8,1383.58 L295.7,1383.58 C293.6,1383.58 291.8,1384.08 290.1,1385.08 C288.3,1386.18 286.7,1387.88 285.7,1389.88 C284.6,1391.88 284.1,1394.08 284.1,1396.28 C284.1,1399.18 285,1401.88 286.8,1404.08 C289.8,1407.68 294.5,1409.98 299.9,1410.58 C300.6,1410.68 301.7,1410.78 302.4,1410.78 C306.8,1410.78 311.2,1409.58 314.8,1407.38 C318.5,1404.78 320.6,1400.78 321.3,1395.18 C321.5,1393.88 321.5,1392.48 321.5,1390.98 C321.5,1387.08 321,1382.38 320,1376.58 C319.6,1374.48 319.2,1371.48 318.5,1367.68 C324.3,1365.78 328.4,1362.08 332.2,1356.28 C334.5,1352.28 335.6,1348.18 335.6,1343.88 C335.6,1341.98 335.4,1340.08 335,1338.18 M304.8,1260.28 C306.6,1254.58 309.3,1251.18 311.3,1249.48 C313.1,1247.98 314.7,1247.28 315.6,1247.28 C315.7,1247.28 315.9,1247.38 316,1247.38 C316.3,1247.48 316.7,1247.98 317.1,1248.68 C318,1250.48 318.9,1253.78 318.9,1257.48 C318.9,1259.38 318.7,1261.38 318.1,1263.18 C315.9,1269.98 311.3,1277.28 304.3,1284.98 C304.1,1283.88 303.9,1282.88 303.8,1281.88 C303.3,1278.68 303,1275.48 303,1272.58 C303,1268.08 303.6,1263.98 304.8,1260.28 M300.8,1364.38 C296.2,1363.18 291.7,1360.68 287.9,1357.18 C286.6,1355.98 284.8,1353.78 283.3,1350.38 C282,1347.38 281.3,1344.28 281.3,1340.88 L281.3,1340.18 C281.4,1335.48 282.7,1330.68 285.2,1325.88 C288.1,1320.28 292.6,1314.78 298.7,1309.48 C300.2,1308.18 301.6,1306.88 302.9,1305.58 C303.7,1309.88 304.4,1314.58 305.3,1319.48 C301.4,1320.78 296.7,1323.78 293.6,1329.48 C291.2,1333.98 290.5,1337.88 290.5,1341.08 C290.5,1342.58 290.7,1343.98 290.9,1345.08 C291.8,1349.58 294.4,1353.28 297.9,1355.38 C298.7,1355.88 302,1357.58 304,1357.58 C304.3,1357.58 304.6,1357.58 304.8,1357.48 C305.1,1357.38 305.4,1357.18 305.5,1356.88 C305.6,1356.68 305.6,1356.48 305.6,1356.28 C305.6,1355.48 304.8,1354.88 303.5,1354.08 C302.9,1353.68 302.2,1353.28 301.5,1352.78 C298.9,1350.78 297.4,1347.68 297.4,1344.28 C297.4,1343.28 297.6,1342.38 297.8,1341.38 C298.3,1339.38 300,1336.58 301.5,1335.18 C303.2,1333.68 305.2,1332.48 307.6,1331.88 C309.6,1343.08 311.7,1354.18 313.3,1362.58 C313.4,1363.28 313.6,1363.98 313.7,1364.68 C311.7,1365.08 309.7,1365.28 307.8,1365.28 C305.4,1365.28 303.1,1364.98 300.8,1364.38 M326.5,1354.18 C325.3,1357.38 322.8,1361.38 317.7,1363.48 C317.6,1363.08 317.6,1362.58 317.5,1362.18 C316,1353.38 314.1,1342.48 312.1,1331.18 L313.1,1331.18 C322.8,1331.18 326.7,1338.38 327.6,1342.98 C327.8,1343.88 327.9,1345.08 327.9,1346.38 C327.9,1348.68 327.5,1351.48 326.5,1354.18"/>
<path class="TimeSig" d="M392.053,942.954 L392.253,942.954 C400.253,939.854 400.753,934.654 400.753,932.854 L400.753,932.354 C400.753,931.454 400.453,920.154 383.253,920.154 C366.053,920.154 366.553,932.354 366.553,932.354 L366.653,932.354 L366.553,932.554 C366.553,936.154 369.453,938.954 373.053,938.954 C376.653,938.954 379.453,936.154 379.453,932.554 C379.453,929.654 377.253,926.854 374.453,926.254 L374.753,925.954 C376.153,924.954 378.053,924.454 379.953,924.454 C384.153,924.454 388.653,926.954 388.653,932.354 C388.653,938.654 383.953,939.554 382.753,939.754 C381.553,939.954 375.953,940.354 374.753,940.354 C373.553,940.354 373.453,941.754 373.453,941.754 L373.453,943.754 C373.453,943.754 373.653,944.854 374.753,944.954 C376.453,945.054 378.753,945.054 381.953,945.554 C386.353,946.154 388.653,949.154 388.653,956.154 C388.653,962.854 384.153,964.654 379.953,964.654 C377.153,964.654 374.553,963.854 373.453,963.054 C376.753,962.854 379.453,959.954 379.453,956.654 C379.453,953.054 376.653,950.154 373.053,950.154 C369.453,950.154 366.553,953.054 366.553,956.654 C366.553,956.654 366.053,961.154 370.453,965.254 C374.353,968.854 379.253,968.954 381.453,968.954 C391.053,968.954 401.453,965.654 401.453,954.754 C401.453,947.454 396.453,944.354 392.053,942.954"/>
<path class="TimeSig" d="M365.2,1006.06 L382,1006.06 L382,1013.36 L373.9,1013.36 C373.1,1013.36 372.5,1013.96 372.5,1014.76 L372.5,1016.66 C372.5,1017.46 373.1,1017.96 373.9,1017.96 L403.6,1017.96 C404.4,1017.96 405,1017.46 405,1016.66 L405,1014.76 C405,1013.96 404.4,1013.36 403.6,1013.36 L394.8,1013.36 L394.8,1006.06 L403.6,1006.06 C404.4,1006.06 405,1005.46 405,1004.66 L405,1002.86 C405,1002.06 404.4,1001.46 403.6,1001.46 L394.8,1001.46 L394.8,985.758 C394.8,985.258 394.4,984.758 394,984.558 L392.9,983.958 C392.7,983.858 392.4,983.858 392.2,983.858 C391.9,983.858 391.5,983.958 391.3,984.158 L382.4,992.358 C382.2,992.558 382,993.058 382,993.358 L382,1001.46 L370.7,1001.46 C370.7,1001.46 381.6,989.658 393.2,974.158 C394,973.058 393.6,972.058 393.4,971.858 L391.3,969.658 C391.1,969.458 390.6,969.258 390.3,969.258 L375.7,969.258 C375,969.258 374.5,969.858 374.4,970.458 C374.4,970.458 373.9,977.658 371.3,985.658 C368.7,993.658 365.9,998.458 363.3,1002.06 C363.3,1002.06 362.8,1003.06 363.1,1003.76 C363.4,1004.46 364.1,1005.56 364.1,1005.56 C364.1,1005.56 364.4,1006.06 365.2,1006.06"/>
<path class="TimeSig" d="M392.053,680.438 L392.253,680.438 C400.253,677.338 400.753,672.138 400.753,670.338 L400.753,669.838 C400.753,668.938 400.453,657.638 383.253,657.638 C366.053,657.638 366.553,669.838 366.553,669.838 L366.653,669.838 L366.553,670.038 C366.553,673.638 369.453,676.438 373.053,676.438 C376.653,676.438 379.453,673.638 379.453,670.038 C379.453,667.138 377.253,664.338 374.453,663.738 L374.753,663.438 C376.153,662.438 378.053,661.938 379.953,661.938 C384.153,661.938 388.653,664.438 388.653,669.838 C388.653,676.138 383.953,677.038 382.753,677.238 C381.553,677.438 375.953,677.838 374.753,677.838 C373.553,677.838 373.453,679.238 373.453,679.238 L373.453,681.238 C373.453,681.238 373.653,682.338 374.753,682.438 C376.453,682.538 378.753,682.538 381.953,683.038 C386.353,683.638 388.653,686.638 388.653,693.638 C388.653,700.338 384.153,702.138 379.953,702.138 C377.153,702.138 374.553,701.338 373.453,700.538 C376.753,700.338 379.453,697.438 379.453,694.138 C379.453,690.538 376.653,687.638 373.053,687.638 C369.453,687.638 366.553,690.538 366.553,694.138 C366.553,694.138 366.053,698.638 370.453,702.738 C374.353,706.338 379.253,706.438 381.453,706.438 C391.053,706.438 401.453,703.138 401.453,692.238 C401.453,684.938 396.453,681.838 392.053,680.438"/>
<path class="TimeSig" d="M365.2,743.541 L382,743.541 L382,750.841 L373.9,750.841 C373.1,750.841 372.5,751.441 372.5,752.241 L372.5,754.141 C372.5,754.941 373.1,755.441 373.9,755.441 L403.6,755.441 C404.4,755.441 405,754.941 405,754.141 L405,752.241 C405,751.441 404.4,750.841 403.6,750.841 L394.8,750.841 L394.8,743.541 L403.6,743.541 C404.4,743.541 405,742.941 405,742.141 L405,740.341 C405,739.541 404.4,738.941 403.6,738.941 L394.8,738.941 L394.8,723.241 C394.8,722.741 394.4,722.241 394,722.041 L392.9,721.441 C392.7,721.341 392.4,721.341 392.2,721.341 C391.9,721.341 391.5,721.441 391.3,721.641 L382.4,729.841 C382.2,730.041 382,730.541 382,730.841 L382,738.941 L370.7,738.941 C370.7,738.941 381.6,727.141 393.2,711.641 C394,710.541 393.6,709.541 393.4,709.341 L391.3,707.141 C391.1,706.941 390.6,706.741 390.3,706.741 L375.7,706.741 C375,706.741 374.5,707.341 374.4,707.941 C374.4,707.941 373.9,715.141 371.3,723.141 C368.7,731.141 365.9,735.941 363.3,739.541 C363.3,739.541 362.8,740.541 363.1,741.241 C363.4,741.941 364.1,743.041 364.1,743.041 C364.1,743.041 364.4,743.541 365.2,743.541"/>
<path class="Page" d="M227.904,4035.06 L212.604,4056.34 L212.604,4058.86 L225.249,4058.86 L225.249,4061.2 C225.249,4063.5 225.249,4063.59 224.979,4063.99 C224.619,4064.49 223.764,4064.62 221.199,4064.62 L220.704,4064.62 L220.704,4066.74 L233.844,4066.74 L233.844,4064.62 L233.664,4064.62 C231.099,4064.62 230.244,4064.49 229.884,4063.99 C229.614,4063.59 229.614,4063.54 229.614,4061.2 L229.614,4058.86 L235.059,4058.86 L235.059,4056.34 L229.614,4056.34 L229.614,4044.06 C229.614,4038.43 229.614,4038.3 229.839,4035.06 L227.904,4035.06 M225.249,4056.34 L215.349,4056.34 L225.249,4042.71 L225.249,4056.34 M252.919,4035.06 L237.619,4056.34 L237.619,4058.86 L250.264,4058.86 L250.264,4061.2 C250.264,4063.5 250.264,4063.59 249.994,4063.99 C249.634,4064.49 248.779,4064.62 246.214,4064.62 L245.719,4064.62 L245.719,4066.74 L258.859,4066.74 L258.859,4064.62 L258.679,4064.62 C256.114,4064.62 255.259,4064.49 254.899,4063.99 C254.629,4063.59 254.629,4063.54 254.629,4061.2 L254.629,4058.86 L260.074,4058.86 L260.074,4056.34 L254.629,4056.34 L254.629,4044.06 C254.629,4038.43 254.629,4038.3 254.854,4035.06 L252.919,4035.06 M250.264,4056.34 L240.364,4056.34 L250.264,4042.71 L250.264,4056.34 "/>
<path class="Bracket" transform="matrix(3.62523,0,0,3.62523,214.469,1019.06)" d="M0.92002,-50 C2.69004,-51.88 6.2,-55.8 6.2,-63 C6.2,-72.1 2.25996,-81.32 2.25996,-86.97 C2.25996,-93.06 5.84004,-98.84 5.95,-99 C6.05996,-99.16 6.05,-99.39 5.94004,-99.46 C5.82998,-99.53 5.62002,-99.47 5.49004,-99.32 C5.35996,-99.17 0,-93.75 0,-85.6 C0,-76.75 3.5,-70.58 3.5,-59.07 C3.5,-56.89 2.55996,-53.36 0.1,-50.33 C-0.0799805,-50.17 -0.1,-49.89 0.0599609,-49.7 L0.0700195,-49.69 L0.1,-49.66 C2.55996,-46.63 3.5,-43.1 3.5,-40.92 C3.5,-29.4 0,-23.24 0,-14.39 C0,-6.25 5.35996,-0.8 5.49004,-0.659961 C5.62002,-0.52002 5.8,-0.42998 5.94004,-0.52002 C6.07998,-0.609961 6.07998,-0.77998 5.95,-0.97998 C5.82002,-1.17998 2.25996,-6.92002 2.25996,-13.01 C2.25996,-18.66 6.2,-27.9 6.2,-37 C6.2,-44.3 2.69004,-48.12 0.92002,-50"/>
<path class="Bracket" transform="matrix(3.62523,0,0,3.62523,214.469,1631.6)" d="M0.92002,-50 C2.69004,-51.88 6.2,-55.8 6.2,-63 C6.2,-72.1 2.25996,-81.32 2.25996,-86.97 C2.25996,-93.06 5.84004,-98.84 5.95,-99 C6.05996,-99.16 6.05,-99.39 5.94004,-99.46 C5.82998,-99.53 5.62002,-99.47 5.49004,-99.32 C5.35996,-99.17 0,-93.75 0,-85.6 C0,-76.75 3.5,-70.58 3.5,-59.07 C3.5,-56.89 2.55996,-53.36 0.1,-50.33 C-0.0799805,-50.17 -0.1,-49.89 0.0599609,-49.7 L0.0700195,-49.69 L0.1,-49.66 C2.55996,-46.63 3.5,-43.1 3.5,-40.92 C3.5,-29.4 0,-23.24 0,-14.39 C0,-6.25 5.35996,-0.8 5.49004,-0.659961 C5.62002,-0.52002 5.8,-0.42998 5.94004,-0.52002 C6.07998,-0.609961 6.07998,-0.77998 5.95,-0.97998 C5.82002,-1.17998 2.25996,-6.92002 2.25996,-13.01 C2.25996,-18.66 6.2,-27.9 6.2,-37 C6.2,-44.3 2.69004,-48.12 0.92002,-50"/>
</svg>