<?xml version="1.0" encoding="UTF-8" standalone="no"?>
<svg width="1000px" height="500px" viewBox="150 650 2700 1000" xmlns="http://www.w3.org/2000/svg" xmlns:xlink="http://www.w3.org/1999/xlink" version="1.2" baseProfile="tiny">
 xmlns="http://www.w3.org/2000/svg" xmlns:xlink="http://www.w3.org/1999/xlink" version="1.2" baseProfile="tiny">
<title>exercises_scores (58)</title>
<desc>Generated by MuseScore 3.6.0</desc>
<polyline class="StaffLines" fill="none" stroke="#000000" stroke-width="2.75" stroke-linejoin="bevel" points="247.099,653.098 2764.63,653.098"/>
<polyline class="StaffLines" fill="none" stroke="#000000" stroke-width="2.75" stroke-linejoin="bevel" points="247.099,678.1 2764.63,678.1"/>
<polyline class="StaffLines" fill="none" stroke="#000000" stroke-width="2.75" stroke-linejoin="bevel" points="247.099,703.102 2764.63,703.102"/>
<polyline class="StaffLines" fill="none" stroke="#000000" stroke-width="2.75" stroke-linejoin="bevel" points="247.099,728.103 2764.63,728.103"/>
<polyline class="StaffLines" fill="none" stroke="#000000" stroke-width="2.75" stroke-linejoin="bevel" points="247.099,753.105 2764.63,753.105"/>
<polyline class="StaffLines" fill="none" stroke="#000000" stroke-width="2.75" stroke-linejoin="bevel" points="247.099,915.615 2764.63,915.615"/>
<polyline class="StaffLines" fill="none" stroke="#000000" stroke-width="2.75" stroke-linejoin="bevel" points="247.099,940.617 2764.63,940.617"/>
<polyline class="StaffLines" fill="none" stroke="#000000" stroke-width="2.75" stroke-linejoin="bevel" points="247.099,965.618 2764.63,965.618"/>
<polyline class="StaffLines" fill="none" stroke="#000000" stroke-width="2.75" stroke-linejoin="bevel" points="247.099,990.62 2764.63,990.62"/>
<polyline class="StaffLines" fill="none" stroke="#000000" stroke-width="2.75" stroke-linejoin="bevel" points="247.099,1015.62 2764.63,1015.62"/>
<polyline class="StaffLines" fill="none" stroke="#000000" stroke-width="2.75" stroke-linejoin="bevel" points="247.099,1265.64 2764.63,1265.64"/>
<polyline class="StaffLines" fill="none" stroke="#000000" stroke-width="2.75" stroke-linejoin="bevel" points="247.099,1290.64 2764.63,1290.64"/>
<polyline class="StaffLines" fill="none" stroke="#000000" stroke-width="2.75" stroke-linejoin="bevel" points="247.099,1315.64 2764.63,1315.64"/>
<polyline class="StaffLines" fill="none" stroke="#000000" stroke-width="2.75" stroke-linejoin="bevel" points="247.099,1340.64 2764.63,1340.64"/>
<polyline class="StaffLines" fill="none" stroke="#000000" stroke-width="2.75" stroke-linejoin="bevel" points="247.099,1365.64 2764.63,1365.64"/>
<polyline class="StaffLines" fill="none" stroke="#000000" stroke-width="2.75" stroke-linejoin="bevel" points="247.099,1528.15 2764.63,1528.15"/>
<polyline class="StaffLines" fill="none" stroke="#000000" stroke-width="2.75" stroke-linejoin="bevel" points="247.099,1553.16 2764.63,1553.16"/>
<polyline class="StaffLines" fill="none" stroke="#000000" stroke-width="2.75" stroke-linejoin="bevel" points="247.099,1578.16 2764.63,1578.16"/>
<polyline class="StaffLines" fill="none" stroke="#000000" stroke-width="2.75" stroke-linejoin="bevel" points="247.099,1603.16 2764.63,1603.16"/>
<polyline class="StaffLines" fill="none" stroke="#000000" stroke-width="2.75" stroke-linejoin="bevel" points="247.099,1628.16 2764.63,1628.16"/>
<path class="Text" d="M212.602,213.497 L212.602,216.317 L213.682,216.317 C217.102,216.377 218.242,216.557 218.722,217.157 C219.082,217.697 219.082,217.817 219.082,220.877 L219.082,249.437 C219.082,252.497 219.082,252.617 218.722,253.157 C218.242,253.757 217.102,253.997 213.682,253.997 L212.602,253.997 L212.602,256.817 L234.382,256.817 C244.762,256.817 251.002,252.437 251.002,245.057 C251.002,239.057 247.222,235.637 239.002,234.197 C241.882,233.597 243.202,233.057 244.762,231.917 C247.222,230.057 248.722,227.117 248.722,224.117 C248.722,220.217 246.322,216.437 242.842,214.937 C240.682,213.977 237.682,213.497 234.142,213.497 L212.602,213.497 M225.802,232.997 L225.802,219.317 C225.802,216.977 226.582,216.377 229.762,216.317 L232.162,216.317 C234.922,216.317 237.202,216.797 238.462,217.577 C240.622,218.897 241.762,221.417 241.762,224.777 C241.762,230.717 238.882,232.997 231.142,232.997 L225.802,232.997 M225.802,235.817 L231.082,235.817 C240.262,235.817 243.622,238.277 243.622,244.877 C243.622,248.717 242.302,251.477 239.962,252.617 C238.102,253.577 235.582,253.997 231.802,253.997 L229.282,253.997 C226.282,253.997 225.682,253.397 225.802,250.217 L225.802,235.817 M265.994,228.857 L255.374,229.517 L255.374,232.097 L257.834,232.097 C260.114,232.157 260.414,232.517 260.414,235.097 L260.414,249.437 L260.414,252.257 C260.354,253.157 260.294,253.517 260.054,253.817 C259.634,254.357 258.434,254.597 255.854,254.657 L255.614,254.657 L255.614,256.817 L271.634,256.817 L271.634,254.657 L270.554,254.657 C266.534,254.537 265.994,254.237 265.994,252.077 L265.994,249.437 L265.994,248.837 C266.054,238.757 269.654,231.077 274.334,230.837 C273.494,231.797 273.254,232.397 273.254,233.537 C273.254,235.457 274.634,236.837 276.554,236.837 C278.774,236.837 280.214,235.217 280.214,232.817 C280.214,229.877 278.174,227.957 274.994,227.957 C271.214,227.957 267.974,230.957 265.994,236.297 L265.994,228.857 M295.562,227.957 C288.182,227.957 282.482,234.497 282.482,242.897 C282.482,251.117 288.242,257.717 295.442,257.717 C302.642,257.717 308.402,251.117 308.402,242.837 C308.402,234.617 302.642,227.957 295.562,227.957 M295.562,230.537 C299.762,230.537 302.102,234.917 302.102,242.837 C302.102,250.817 299.762,255.137 295.442,255.137 C291.122,255.137 288.782,250.817 288.782,242.897 C288.782,234.737 291.062,230.537 295.562,230.537 M322.382,242.297 L322.382,212.597 L311.282,213.257 L311.282,215.837 L314.162,215.837 C316.442,215.897 316.742,216.257 316.742,218.837 L316.742,249.437 L316.742,252.317 C316.682,253.157 316.622,253.517 316.382,253.817 C315.962,254.357 314.822,254.597 312.242,254.657 L312.002,254.657 L312.002,256.817 L327.182,256.817 L327.182,254.657 L326.942,254.657 C322.922,254.537 322.382,254.237 322.382,252.077 L322.382,249.437 L322.382,246.017 L326.042,242.537 L333.182,252.557 C333.482,253.037 333.602,253.337 333.602,253.577 C333.602,254.417 332.942,254.657 330.962,254.657 L329.822,254.657 L329.822,256.817 L345.662,256.817 L345.662,254.657 C342.302,254.357 341.102,253.637 338.642,250.517 L330.122,238.877 L332.822,236.237 C336.362,232.817 338.882,231.497 342.962,231.017 L342.962,228.857 L327.182,228.857 L327.182,231.017 L329.042,231.017 C330.962,231.017 331.862,231.377 331.862,232.157 C331.862,232.817 331.442,233.537 330.482,234.497 L322.382,242.297 M372.842,243.317 C372.902,234.317 367.802,227.957 360.482,227.957 C352.802,227.957 347.042,234.617 347.042,243.617 C347.042,252.077 352.502,257.717 360.602,257.717 C366.362,257.717 370.382,254.897 372.842,249.197 L370.742,248.057 C368.282,252.677 365.762,254.477 361.742,254.477 C358.682,254.477 356.462,253.217 354.902,250.517 C353.822,248.717 353.342,246.617 353.402,243.317 L372.842,243.317 M353.462,240.737 C353.462,238.877 353.702,237.557 354.302,235.877 C355.562,232.277 357.482,230.537 360.422,230.537 C364.022,230.537 366.422,233.717 366.422,238.577 C366.422,240.257 365.882,240.737 363.962,240.737 L353.462,240.737 M386.942,228.857 L376.562,229.517 L376.562,232.097 L378.722,232.097 C381.002,232.157 381.302,232.517 381.302,235.097 L381.302,249.437 L381.302,250.877 L381.302,252.257 C381.242,253.157 381.182,253.517 380.942,253.817 C380.522,254.357 379.382,254.597 376.802,254.657 L376.562,254.657 L376.562,256.817 L391.742,256.817 L391.742,254.657 L391.502,254.657 C387.482,254.537 386.942,254.237 386.942,252.077 L386.942,249.437 L386.942,243.197 C386.942,240.257 387.362,237.557 388.022,236.177 C389.282,233.477 391.982,231.617 394.562,231.617 C396.122,231.617 397.922,232.457 398.822,233.717 C399.722,235.037 400.142,236.837 400.142,239.717 L400.142,249.437 L400.142,252.257 C400.082,253.157 400.022,253.517 399.782,253.817 C399.362,254.357 398.162,254.597 395.582,254.657 L395.342,254.657 L395.342,256.817 L410.522,256.817 L410.522,254.657 L410.282,254.657 C406.322,254.537 405.782,254.237 405.782,252.077 L405.782,249.437 L405.782,240.017 C405.782,235.697 405.602,234.617 404.522,232.577 C403.022,229.697 400.022,227.957 396.422,227.957 C392.522,227.957 389.582,229.757 386.942,233.717 L386.942,228.857 M466.61,213.077 L464.33,213.077 L461.93,216.617 C457.55,213.437 455.33,212.597 451.19,212.597 C445.49,212.597 440.63,214.997 436.61,219.797 C432.77,224.357 430.97,229.397 430.97,235.577 C430.97,248.537 439.43,257.717 451.25,257.717 C460.85,257.717 466.97,252.077 468.35,241.997 L465.53,241.517 C463.91,250.457 459.35,254.897 451.97,254.897 C443.09,254.897 438.89,248.777 438.89,235.817 C438.89,228.977 439.79,224.477 441.83,220.877 C443.69,217.517 447.35,215.417 451.25,215.417 C455.45,215.417 459.17,217.637 461.45,221.477 C462.59,223.457 463.43,225.677 464.87,230.417 L467.51,230.417 L466.61,213.077 M483.583,212.597 L472.483,213.257 L472.483,215.837 L475.363,215.837 C477.643,215.897 477.943,216.257 477.943,218.837 L477.943,249.437 L477.943,250.877 L477.943,252.317 C477.883,253.157 477.823,253.517 477.583,253.817 C477.163,254.357 476.023,254.597 473.443,254.657 L473.203,254.657 L473.203,256.817 L488.383,256.817 L488.383,254.657 L488.143,254.657 C484.123,254.537 483.583,254.237 483.583,252.077 L483.583,249.437 L483.583,243.197 C483.583,240.257 484.003,237.557 484.663,236.177 C485.983,233.477 488.623,231.617 491.203,231.617 C492.763,231.617 494.563,232.517 495.403,233.717 C496.363,235.037 496.783,236.837 496.783,239.777 L496.783,249.437 L496.783,252.317 C496.723,253.157 496.663,253.517 496.423,253.817 C496.003,254.357 494.803,254.597 492.223,254.657 L491.983,254.657 L491.983,256.817 L507.163,256.817 L507.163,254.657 L506.923,254.657 C502.963,254.537 502.423,254.237 502.423,252.077 L502.423,249.437 L502.423,240.017 C502.423,235.697 502.243,234.617 501.163,232.577 C499.663,229.637 496.663,227.957 493.063,227.957 C489.163,227.957 486.283,229.697 483.583,233.717 L483.583,212.597 M523.359,227.957 C515.979,227.957 510.279,234.497 510.279,242.897 C510.279,251.117 516.039,257.717 523.239,257.717 C530.439,257.717 536.199,251.117 536.199,242.837 C536.199,234.617 530.439,227.957 523.359,227.957 M523.359,230.537 C527.559,230.537 529.899,234.917 529.899,242.837 C529.899,250.817 527.559,255.137 523.239,255.137 C518.919,255.137 516.579,250.817 516.579,242.897 C516.579,234.737 518.859,230.537 523.359,230.537 M550.119,228.857 L539.499,229.517 L539.499,232.097 L541.959,232.097 C544.239,232.157 544.539,232.517 544.539,235.097 L544.539,249.437 L544.539,252.257 C544.479,253.157 544.419,253.517 544.179,253.817 C543.759,254.357 542.559,254.597 539.979,254.657 L539.739,254.657 L539.739,256.817 L555.759,256.817 L555.759,254.657 L554.679,254.657 C550.659,254.537 550.119,254.237 550.119,252.077 L550.119,249.437 L550.119,248.837 C550.179,238.757 553.779,231.077 558.459,230.837 C557.619,231.797 557.379,232.397 557.379,233.537 C557.379,235.457 558.759,236.837 560.679,236.837 C562.899,236.837 564.339,235.217 564.339,232.817 C564.339,229.877 562.299,227.957 559.119,227.957 C555.339,227.957 552.099,230.957 550.119,236.297 L550.119,228.857 M587.18,257.237 L597.62,256.817 L597.62,254.237 L596.54,254.237 C593.12,254.057 592.82,253.697 592.82,249.857 L592.82,212.597 L581.06,213.257 L581.06,215.837 L584.6,215.837 C586.88,215.897 587.18,216.257 587.18,218.837 L587.18,232.397 C584.96,229.337 582.38,227.957 578.9,227.957 C572.12,227.957 566.96,234.497 566.96,243.137 C566.96,251.657 571.94,257.717 578.9,257.717 C582.68,257.717 585.26,256.097 587.18,252.497 L587.18,257.237 M580.1,231.197 C582.56,231.197 584.9,232.997 585.98,235.757 C586.76,237.557 587.12,240.017 587.12,242.957 C587.12,249.977 584.36,254.477 580.04,254.477 C575.78,254.477 573.26,250.517 573.26,243.857 C573.26,240.257 573.62,237.557 574.4,235.577 C575.42,232.877 577.64,231.197 580.1,231.197 M607.757,250.157 C605.657,250.157 603.977,251.837 603.977,253.877 C603.977,255.977 605.657,257.657 607.697,257.657 C609.797,257.657 611.477,255.977 611.477,253.877 C611.477,251.837 609.797,250.157 607.757,250.157 M607.757,228.437 C605.657,228.437 603.977,230.117 603.977,232.217 C603.977,234.257 605.657,235.937 607.697,235.937 C609.797,235.937 611.477,234.257 611.477,232.157 C611.477,230.117 609.797,228.437 607.757,228.437 M669.961,213.497 L633.901,213.497 L633.901,216.317 L634.981,216.317 C638.401,216.377 639.541,216.557 640.021,217.157 C640.381,217.697 640.381,217.817 640.381,220.877 L640.381,249.437 C640.381,252.497 640.381,252.617 640.021,253.157 C639.541,253.757 638.401,253.997 634.981,253.997 L633.901,253.997 L633.901,256.817 L670.741,256.817 L671.941,240.797 L669.301,240.797 C667.021,251.477 664.561,253.757 655.381,253.997 L651.421,253.997 C647.821,253.877 646.921,253.277 647.101,251.117 L647.101,235.817 L648.301,235.817 C654.481,235.577 656.701,237.797 656.941,244.457 L659.761,244.457 L659.761,224.777 L656.941,224.777 C656.581,230.657 654.241,232.997 648.541,232.997 L647.101,232.997 L647.101,219.317 C647.041,216.797 647.641,216.377 650.881,216.317 L654.001,216.317 C663.841,216.257 666.301,218.417 668.221,228.797 L670.801,228.797 L669.961,213.497 M704.205,228.857 L693.525,229.517 L693.525,232.097 L695.985,232.097 C698.265,232.157 698.565,232.517 698.565,235.097 L698.565,249.437 L698.565,251.777 L698.565,252.257 C698.505,253.157 698.445,253.517 698.205,253.817 C697.785,254.357 696.645,254.597 694.065,254.657 L693.825,254.657 L693.825,256.817 L708.945,256.817 L708.945,254.657 L708.705,254.657 C704.745,254.537 704.205,254.237 704.205,252.017 L704.205,249.437 L704.205,240.917 C704.205,235.577 707.145,231.617 711.045,231.617 C714.465,231.617 716.205,234.077 716.205,238.937 L716.205,249.437 L716.205,252.317 C716.145,253.097 716.085,253.517 715.785,253.817 C715.425,254.357 714.225,254.597 711.645,254.657 L711.405,254.657 L711.405,256.817 L726.585,256.817 L726.585,254.657 L726.345,254.657 C722.385,254.537 721.845,254.237 721.845,252.077 L721.845,249.437 L721.845,241.457 C721.845,235.457 724.545,231.617 728.745,231.617 C732.165,231.617 733.845,234.197 733.845,239.597 L733.845,249.437 L733.845,252.257 C733.785,253.097 733.725,253.517 733.425,253.817 C733.065,254.357 731.865,254.597 729.285,254.657 L729.045,254.657 L729.045,256.817 L744.225,256.817 L744.225,254.657 L743.985,254.657 C740.025,254.537 739.485,254.237 739.485,252.017 L739.485,249.437 L739.485,238.397 C739.485,234.677 739.125,233.417 737.565,231.377 C735.825,229.157 733.365,227.957 730.485,227.957 C726.585,227.957 723.705,229.817 721.125,233.957 C720.105,230.357 716.865,227.957 712.845,227.957 C709.185,227.957 706.545,229.697 704.205,233.477 L704.205,228.857 M757.833,228.857 L746.553,229.517 L746.553,232.097 L749.613,232.097 C751.893,232.157 752.193,232.517 752.193,235.097 L752.193,249.437 L752.193,252.257 C752.133,253.157 752.073,253.517 751.833,253.817 C751.413,254.357 750.273,254.597 747.693,254.657 L747.273,254.657 L747.273,256.817 L762.813,256.817 L762.813,254.657 L762.393,254.657 C758.373,254.537 757.833,254.237 757.833,252.077 L757.833,249.437 L757.833,228.857 M755.013,213.917 C753.093,213.917 751.533,215.477 751.533,217.397 C751.533,219.317 753.093,220.877 754.953,220.877 C756.933,220.877 758.493,219.317 758.493,217.397 C758.493,215.477 756.933,213.917 755.013,213.917 M776.364,228.857 L765.984,229.517 L765.984,232.097 L768.144,232.097 C770.424,232.157 770.724,232.517 770.724,235.097 L770.724,249.437 L770.724,250.877 L770.724,252.257 C770.664,253.157 770.604,253.517 770.364,253.817 C769.944,254.357 768.804,254.597 766.224,254.657 L765.984,254.657 L765.984,256.817 L781.164,256.817 L781.164,254.657 L780.924,254.657 C776.904,254.537 776.364,254.237 776.364,252.077 L776.364,249.437 L776.364,243.197 C776.364,240.257 776.784,237.557 777.444,236.177 C778.704,233.477 781.404,231.617 783.984,231.617 C785.544,231.617 787.344,232.457 788.244,233.717 C789.144,235.037 789.564,236.837 789.564,239.717 L789.564,249.437 L789.564,252.257 C789.504,253.157 789.444,253.517 789.204,253.817 C788.784,254.357 787.584,254.597 785.004,254.657 L784.764,254.657 L784.764,256.817 L799.944,256.817 L799.944,254.657 L799.704,254.657 C795.744,254.537 795.204,254.237 795.204,252.077 L795.204,249.437 L795.204,240.017 C795.204,235.697 795.024,234.617 793.944,232.577 C792.444,229.697 789.444,227.957 785.844,227.957 C781.944,227.957 779.004,229.757 776.364,233.717 L776.364,228.857 M816.14,227.957 C808.76,227.957 803.06,234.497 803.06,242.897 C803.06,251.117 808.82,257.717 816.02,257.717 C823.22,257.717 828.98,251.117 828.98,242.837 C828.98,234.617 823.22,227.957 816.14,227.957 M816.14,230.537 C820.34,230.537 822.68,234.917 822.68,242.837 C822.68,250.817 820.34,255.137 816.02,255.137 C811.7,255.137 809.36,250.817 809.36,242.897 C809.36,234.737 811.64,230.537 816.14,230.537 M842.9,228.857 L832.28,229.517 L832.28,232.097 L834.74,232.097 C837.02,232.157 837.32,232.517 837.32,235.097 L837.32,249.437 L837.32,252.257 C837.26,253.157 837.2,253.517 836.96,253.817 C836.54,254.357 835.34,254.597 832.76,254.657 L832.52,254.657 L832.52,256.817 L848.54,256.817 L848.54,254.657 L847.46,254.657 C843.44,254.537 842.9,254.237 842.9,252.077 L842.9,249.437 L842.9,248.837 C842.96,238.757 846.56,231.077 851.24,230.837 C850.4,231.797 850.16,232.397 850.16,233.537 C850.16,235.457 851.54,236.837 853.46,236.837 C855.68,236.837 857.12,235.217 857.12,232.817 C857.12,229.877 855.08,227.957 851.9,227.957 C848.12,227.957 844.88,230.957 842.9,236.297 L842.9,228.857 "/>
<path class="TieSegment" stroke="#000000" stroke-width="1.75" stroke-linecap="round" stroke-linejoin="round" fill-rule="evenodd" d="M2600.29,946.867 C2633.16,918.387 2731.76,918.387 2764.63,946.867 C2731.76,925.387 2633.16,925.387 2600.29,946.867"/>
<path class="TieSegment" stroke="#000000" stroke-width="1.75" stroke-linecap="round" stroke-linejoin="round" fill-rule="evenodd" d="M335.596,1552.7 C352.122,1536.64 401.698,1536.64 418.224,1552.7 C401.698,1543.64 352.122,1543.64 335.596,1552.7"/>
<path class="TieSegment" stroke="#000000" stroke-width="1.75" stroke-linecap="round" stroke-linejoin="round" fill-rule="evenodd" d="M2600.29,596.845 C2633.16,568.365 2731.76,568.365 2764.63,596.845 C2731.76,575.365 2633.16,575.365 2600.29,596.845"/>
<path class="TieSegment" stroke="#000000" stroke-width="1.75" stroke-linecap="round" stroke-linejoin="round" fill-rule="evenodd" d="M335.596,1209.38 C352.122,1193.32 401.698,1193.32 418.224,1209.38 C401.698,1200.32 352.122,1200.32 335.596,1209.38"/>
<polyline class="BarLine" stroke="#000000" stroke-width="4.50" stroke-linejoin="bevel" points="249.349,914.24 249.349,1017"/>
<polyline class="BarLine" stroke="#000000" stroke-width="4.50" stroke-linejoin="bevel" points="990.079,914.24 990.079,1017"/>
<polyline class="BarLine" stroke="#000000" stroke-width="4.50" stroke-linejoin="bevel" points="1569.97,914.24 1569.97,1017"/>
<polyline class="BarLine" stroke="#000000" stroke-width="4.50" stroke-linejoin="bevel" points="2182.49,914.24 2182.49,1017"/>
<polyline class="BarLine" stroke="#000000" stroke-width="4.50" stroke-linejoin="bevel" points="2762.38,914.24 2762.38,1017"/>
<polyline class="BarLine" stroke="#000000" stroke-width="4.50" stroke-linejoin="bevel" points="249.349,1526.78 249.349,1629.54"/>
<polyline class="BarLine" stroke="#000000" stroke-width="4.50" stroke-linejoin="bevel" points="962.513,1526.78 962.513,1629.54"/>
<polyline class="BarLine" stroke="#000000" stroke-width="4.50" stroke-linejoin="bevel" points="1555.36,1526.78 1555.36,1629.54"/>
<polyline class="BarLine" stroke="#000000" stroke-width="4.50" stroke-linejoin="bevel" points="2154.53,1526.78 2154.53,1629.54"/>
<polyline class="BarLine" stroke="#000000" stroke-width="4.50" stroke-linejoin="bevel" points="2734.88,1526.78 2734.88,1629.54"/>
<polyline class="BarLine" stroke="#000000" stroke-width="13.75" stroke-linejoin="bevel" points="2757.76,1526.78 2757.76,1629.54"/>
<polyline class="BarLine" stroke="#000000" stroke-width="4.50" stroke-linejoin="bevel" points="249.349,651.723 249.349,915.615"/>
<polyline class="BarLine" stroke="#000000" stroke-width="4.50" stroke-linejoin="bevel" points="990.079,651.723 990.079,915.615"/>
<polyline class="BarLine" stroke="#000000" stroke-width="4.50" stroke-linejoin="bevel" points="1569.97,651.723 1569.97,915.615"/>
<polyline class="BarLine" stroke="#000000" stroke-width="4.50" stroke-linejoin="bevel" points="2182.49,651.723 2182.49,915.615"/>
<polyline class="BarLine" stroke="#000000" stroke-width="4.50" stroke-linejoin="bevel" points="2762.38,651.723 2762.38,915.615"/>
<polyline class="BarLine" stroke="#000000" stroke-width="4.50" stroke-linejoin="bevel" points="249.349,1264.26 249.349,1528.15"/>
<polyline class="BarLine" stroke="#000000" stroke-width="4.50" stroke-linejoin="bevel" points="962.513,1264.26 962.513,1528.15"/>
<polyline class="BarLine" stroke="#000000" stroke-width="4.50" stroke-linejoin="bevel" points="1555.36,1264.26 1555.36,1528.15"/>
<polyline class="BarLine" stroke="#000000" stroke-width="4.50" stroke-linejoin="bevel" points="2154.53,1264.26 2154.53,1528.15"/>
<polyline class="BarLine" stroke="#000000" stroke-width="4.50" stroke-linejoin="bevel" points="2734.88,1264.26 2734.88,1528.15"/>
<polyline class="BarLine" stroke="#000000" stroke-width="13.75" stroke-linejoin="bevel" points="2757.76,1264.26 2757.76,1528.15"/>
<polyline class="LedgerLine" stroke="#000000" stroke-width="4.00" stroke-linejoin="bevel" points="1378.01,890.613 1428,890.613"/>
<polyline class="LedgerLine" stroke="#000000" stroke-width="4.00" stroke-linejoin="bevel" points="1378.01,865.612 1428,865.612"/>
<polyline class="LedgerLine" stroke="#000000" stroke-width="4.00" stroke-linejoin="bevel" points="1783.64,890.613 1833.64,890.613"/>
<polyline class="LedgerLine" stroke="#000000" stroke-width="4.00" stroke-linejoin="bevel" points="1783.64,865.612 1833.64,865.612"/>
<polyline class="LedgerLine" stroke="#000000" stroke-width="4.00" stroke-linejoin="bevel" points="1971.32,890.613 2021.31,890.613"/>
<polyline class="LedgerLine" stroke="#000000" stroke-width="4.00" stroke-linejoin="bevel" points="1971.32,865.612 2021.31,865.612"/>
<polyline class="LedgerLine" stroke="#000000" stroke-width="4.00" stroke-linejoin="bevel" points="1971.32,840.61 2021.31,840.61"/>
<polyline class="LedgerLine" stroke="#000000" stroke-width="4.00" stroke-linejoin="bevel" points="1350.75,1653.16 1400.74,1653.16"/>
<polyline class="LedgerLine" stroke="#000000" stroke-width="4.00" stroke-linejoin="bevel" points="1590.12,1503.15 1640.11,1503.15"/>
<polyline class="LedgerLine" stroke="#000000" stroke-width="4.00" stroke-linejoin="bevel" points="1590.12,1478.15 1640.11,1478.15"/>
<polyline class="LedgerLine" stroke="#000000" stroke-width="4.00" stroke-linejoin="bevel" points="2570.42,628.097 2620.41,628.097"/>
<polyline class="LedgerLine" stroke="#000000" stroke-width="4.00" stroke-linejoin="bevel" points="398.1,1240.64 448.096,1240.64"/>
<polyline class="Stem" stroke="#000000" stroke-width="2.75" stroke-linejoin="bevel" points="456.377,956.638 456.377,1034.37"/>
<polyline class="Stem" stroke="#000000" stroke-width="2.75" stroke-linejoin="bevel" points="633.986,931.636 633.986,1015.62"/>
<polyline class="Stem" stroke="#000000" stroke-width="2.75" stroke-linejoin="bevel" points="811.595,906.634 811.595,990.62"/>
<polyline class="Stem" stroke="#000000" stroke-width="2.75" stroke-linejoin="bevel" points="1026.21,931.636 1026.21,1015.62"/>
<polyline class="Stem" stroke="#000000" stroke-width="2.75" stroke-linejoin="bevel" points="1207.17,906.634 1207.17,990.62"/>
<polyline class="Stem" stroke="#000000" stroke-width="2.75" stroke-linejoin="bevel" points="1388.13,869.132 1388.13,965.618"/>
<polyline class="Stem" stroke="#000000" stroke-width="2.75" stroke-linejoin="bevel" points="1606.1,906.634 1606.1,990.62"/>
<polyline class="Stem" stroke="#000000" stroke-width="2.75" stroke-linejoin="bevel" points="1793.77,869.132 1793.77,965.618"/>
<polyline class="Stem" stroke="#000000" stroke-width="2.75" stroke-linejoin="bevel" points="1981.44,844.131 1981.44,965.618"/>
<polyline class="Stem" stroke="#000000" stroke-width="2.75" stroke-linejoin="bevel" points="2248.36,1012.26 2248.36,928.116"/>
<polyline class="Stem" stroke="#000000" stroke-width="2.75" stroke-linejoin="bevel" points="2429.32,987.26 2429.32,906.239"/>
<polyline class="Stem" stroke="#000000" stroke-width="2.75" stroke-linejoin="bevel" points="2580.54,969.138 2580.54,1043.75"/>
<polyline class="Stem" stroke="#000000" stroke-width="2.75" stroke-linejoin="bevel" points="408.226,1581.68 408.226,1656.29"/>
<polyline class="Stem" stroke="#000000" stroke-width="2.75" stroke-linejoin="bevel" points="622.441,1599.8 622.441,1518.78"/>
<polyline class="Stem" stroke="#000000" stroke-width="2.75" stroke-linejoin="bevel" points="806.911,1624.8 806.911,1540.65"/>
<polyline class="Stem" stroke="#000000" stroke-width="2.75" stroke-linejoin="bevel" points="1028.38,1599.8 1028.38,1518.78"/>
<polyline class="Stem" stroke="#000000" stroke-width="2.75" stroke-linejoin="bevel" points="1209.5,1624.8 1209.5,1540.65"/>
<polyline class="Stem" stroke="#000000" stroke-width="2.75" stroke-linejoin="bevel" points="1390.62,1662.3 1390.62,1578.16"/>
<polyline class="Stem" stroke="#000000" stroke-width="2.75" stroke-linejoin="bevel" points="1600.24,1481.67 1600.24,1578.16"/>
<polyline class="Stem" stroke="#000000" stroke-width="2.75" stroke-linejoin="bevel" points="1784.71,1519.17 1784.71,1603.16"/>
<polyline class="Stem" stroke="#000000" stroke-width="2.75" stroke-linejoin="bevel" points="1969.18,1544.17 1969.18,1628.16"/>
<polyline class="Stem" stroke="#000000" stroke-width="2.75" stroke-linejoin="bevel" points="2190.66,1519.17 2190.66,1603.16"/>
<polyline class="Stem" stroke="#000000" stroke-width="2.75" stroke-linejoin="bevel" points="2371.77,1544.17 2371.77,1628.16"/>
<polyline class="Stem" stroke="#000000" stroke-width="2.75" stroke-linejoin="bevel" points="2552.89,1569.18 2552.89,1646.91"/>
<polyline class="Stem" stroke="#000000" stroke-width="2.75" stroke-linejoin="bevel" points="486.121,749.745 486.121,665.599"/>
<polyline class="Stem" stroke="#000000" stroke-width="2.75" stroke-linejoin="bevel" points="663.73,724.743 663.73,643.723"/>
<polyline class="Stem" stroke="#000000" stroke-width="2.75" stroke-linejoin="bevel" points="811.595,706.622 811.595,781.232"/>
<polyline class="Stem" stroke="#000000" stroke-width="2.75" stroke-linejoin="bevel" points="1055.95,724.743 1055.95,643.723"/>
<polyline class="Stem" stroke="#000000" stroke-width="2.75" stroke-linejoin="bevel" points="1207.17,706.622 1207.17,781.232"/>
<polyline class="Stem" stroke="#000000" stroke-width="2.75" stroke-linejoin="bevel" points="1388.13,669.12 1388.13,753.105"/>
<polyline class="Stem" stroke="#000000" stroke-width="2.75" stroke-linejoin="bevel" points="1606.1,706.622 1606.1,781.232"/>
<polyline class="Stem" stroke="#000000" stroke-width="2.75" stroke-linejoin="bevel" points="1793.77,669.12 1793.77,753.105"/>
<polyline class="Stem" stroke="#000000" stroke-width="2.75" stroke-linejoin="bevel" points="1981.44,644.118 1981.44,728.103"/>
<polyline class="Stem" stroke="#000000" stroke-width="2.75" stroke-linejoin="bevel" points="2218.62,669.12 2218.62,753.105"/>
<polyline class="Stem" stroke="#000000" stroke-width="2.75" stroke-linejoin="bevel" points="2399.58,644.118 2399.58,728.103"/>
<polyline class="Stem" stroke="#000000" stroke-width="2.75" stroke-linejoin="bevel" points="2580.54,619.116 2580.54,703.102"/>
<polyline class="Stem" stroke="#000000" stroke-width="2.75" stroke-linejoin="bevel" points="408.226,1231.65 408.226,1315.64"/>
<polyline class="Stem" stroke="#000000" stroke-width="2.75" stroke-linejoin="bevel" points="592.696,1256.66 592.696,1340.64"/>
<polyline class="Stem" stroke="#000000" stroke-width="2.75" stroke-linejoin="bevel" points="777.167,1281.66 777.167,1365.64"/>
<polyline class="Stem" stroke="#000000" stroke-width="2.75" stroke-linejoin="bevel" points="998.64,1256.66 998.64,1340.64"/>
<polyline class="Stem" stroke="#000000" stroke-width="2.75" stroke-linejoin="bevel" points="1179.76,1281.66 1179.76,1365.64"/>
<polyline class="Stem" stroke="#000000" stroke-width="2.75" stroke-linejoin="bevel" points="1360.87,1319.16 1360.87,1393.77"/>
<polyline class="Stem" stroke="#000000" stroke-width="2.75" stroke-linejoin="bevel" points="1600.24,1281.66 1600.24,1365.64"/>
<polyline class="Stem" stroke="#000000" stroke-width="2.75" stroke-linejoin="bevel" points="1784.71,1319.16 1784.71,1393.77"/>
<polyline class="Stem" stroke="#000000" stroke-width="2.75" stroke-linejoin="bevel" points="1998.93,1337.28 1998.93,1256.26"/>
<polyline class="Stem" stroke="#000000" stroke-width="2.75" stroke-linejoin="bevel" points="2190.66,1319.16 2190.66,1393.77"/>
<polyline class="Stem" stroke="#000000" stroke-width="2.75" stroke-linejoin="bevel" points="2401.52,1337.28 2401.52,1256.26"/>
<polyline class="Stem" stroke="#000000" stroke-width="2.75" stroke-linejoin="bevel" points="2582.63,1362.28 2582.63,1278.14"/>
<path class="Note" d="M486.502,944.917 C485.002,942.217 482.102,940.517 478.202,940.117 C477.602,940.017 477.102,940.017 476.502,940.017 C473.002,940.017 469.202,941.017 465.702,942.917 C459.102,946.517 455.002,952.417 455.002,957.517 C455.002,958.917 455.202,960.217 455.902,961.417 C457.402,964.117 460.402,965.817 464.302,966.217 C464.902,966.317 465.402,966.317 466.002,966.317 C469.502,966.317 473.202,965.317 476.702,963.417 C483.302,959.817 487.502,954.017 487.502,948.917 C487.502,947.517 487.202,946.117 486.502,944.917"/>
<path class="Note" d="M664.111,919.916 C662.611,917.216 659.711,915.516 655.811,915.116 C655.211,915.016 654.711,915.016 654.111,915.016 C650.611,915.016 646.811,916.016 643.311,917.916 C636.711,921.516 632.611,927.416 632.611,932.516 C632.611,933.916 632.811,935.216 633.511,936.416 C635.011,939.116 638.011,940.816 641.911,941.216 C642.511,941.316 643.011,941.316 643.611,941.316 C647.111,941.316 650.811,940.316 654.311,938.416 C660.911,934.816 665.111,929.016 665.111,923.916 C665.111,922.516 664.811,921.116 664.111,919.916"/>
<path class="Note" d="M841.72,894.914 C840.22,892.214 837.32,890.514 833.42,890.114 C832.82,890.014 832.32,890.014 831.72,890.014 C828.22,890.014 824.42,891.014 820.92,892.914 C814.32,896.514 810.22,902.414 810.22,907.514 C810.22,908.914 810.42,910.214 811.12,911.414 C812.62,914.114 815.62,915.814 819.52,916.214 C820.12,916.314 820.62,916.314 821.22,916.314 C824.72,916.314 828.42,915.314 831.92,913.414 C838.52,909.814 842.72,904.014 842.72,898.914 C842.72,897.514 842.42,896.114 841.72,894.914"/>
<path class="Note" d="M1056.33,919.916 C1054.83,917.216 1051.93,915.516 1048.03,915.116 C1047.43,915.016 1046.93,915.016 1046.33,915.016 C1042.83,915.016 1039.03,916.016 1035.53,917.916 C1028.93,921.516 1024.83,927.416 1024.83,932.516 C1024.83,933.916 1025.03,935.216 1025.73,936.416 C1027.23,939.116 1030.23,940.816 1034.13,941.216 C1034.73,941.316 1035.23,941.316 1035.83,941.316 C1039.33,941.316 1043.03,940.316 1046.53,938.416 C1053.13,934.816 1057.33,929.016 1057.33,923.916 C1057.33,922.516 1057.03,921.116 1056.33,919.916"/>
<path class="Note" d="M1237.29,894.914 C1235.79,892.214 1232.89,890.514 1228.99,890.114 C1228.39,890.014 1227.89,890.014 1227.29,890.014 C1223.79,890.014 1219.99,891.014 1216.49,892.914 C1209.89,896.514 1205.79,902.414 1205.79,907.514 C1205.79,908.914 1205.99,910.214 1206.69,911.414 C1208.19,914.114 1211.19,915.814 1215.09,916.214 C1215.69,916.314 1216.19,916.314 1216.79,916.314 C1220.29,916.314 1223.99,915.314 1227.49,913.414 C1234.09,909.814 1238.29,904.014 1238.29,898.914 C1238.29,897.514 1237.99,896.114 1237.29,894.914"/>
<path class="Note" d="M1418.26,857.412 C1416.76,854.712 1413.86,853.012 1409.96,852.612 C1409.36,852.512 1408.86,852.512 1408.26,852.512 C1404.76,852.512 1400.96,853.512 1397.46,855.412 C1390.86,859.012 1386.76,864.912 1386.76,870.012 C1386.76,871.412 1386.96,872.712 1387.66,873.912 C1389.16,876.612 1392.16,878.312 1396.06,878.712 C1396.66,878.812 1397.16,878.812 1397.76,878.812 C1401.26,878.812 1404.96,877.812 1408.46,875.912 C1415.06,872.312 1419.26,866.512 1419.26,861.412 C1419.26,860.012 1418.96,858.612 1418.26,857.412"/>
<path class="Note" d="M1636.22,894.914 C1634.72,892.214 1631.82,890.514 1627.92,890.114 C1627.32,890.014 1626.82,890.014 1626.22,890.014 C1622.72,890.014 1618.92,891.014 1615.42,892.914 C1608.82,896.514 1604.72,902.414 1604.72,907.514 C1604.72,908.914 1604.92,910.214 1605.62,911.414 C1607.12,914.114 1610.12,915.814 1614.02,916.214 C1614.62,916.314 1615.12,916.314 1615.72,916.314 C1619.22,916.314 1622.92,915.314 1626.42,913.414 C1633.02,909.814 1637.22,904.014 1637.22,898.914 C1637.22,897.514 1636.92,896.114 1636.22,894.914"/>
<path class="Note" d="M1823.89,857.412 C1822.39,854.712 1819.49,853.012 1815.59,852.612 C1814.99,852.512 1814.49,852.512 1813.89,852.512 C1810.39,852.512 1806.59,853.512 1803.09,855.412 C1796.49,859.012 1792.39,864.912 1792.39,870.012 C1792.39,871.412 1792.59,872.712 1793.29,873.912 C1794.79,876.612 1797.79,878.312 1801.69,878.712 C1802.29,878.812 1802.79,878.812 1803.39,878.812 C1806.89,878.812 1810.59,877.812 1814.09,875.912 C1820.69,872.312 1824.89,866.512 1824.89,861.412 C1824.89,860.012 1824.59,858.612 1823.89,857.412"/>
<path class="Note" d="M2011.57,832.41 C2010.07,829.71 2007.17,828.01 2003.27,827.61 C2002.67,827.51 2002.17,827.51 2001.57,827.51 C1998.07,827.51 1994.27,828.51 1990.77,830.41 C1984.17,834.01 1980.07,839.91 1980.07,845.01 C1980.07,846.41 1980.27,847.71 1980.97,848.91 C1982.47,851.61 1985.47,853.31 1989.37,853.71 C1989.97,853.81 1990.47,853.81 1991.07,853.81 C1994.57,853.81 1998.27,852.81 2001.77,850.91 C2008.37,847.31 2012.57,841.51 2012.57,836.41 C2012.57,835.01 2012.27,833.61 2011.57,832.41"/>
<path class="Note" d="M2248.74,1007.42 C2247.24,1004.72 2244.34,1003.02 2240.44,1002.62 C2239.84,1002.52 2239.34,1002.52 2238.74,1002.52 C2235.24,1002.52 2231.44,1003.52 2227.94,1005.42 C2221.34,1009.02 2217.24,1014.92 2217.24,1020.02 C2217.24,1021.42 2217.44,1022.72 2218.14,1023.92 C2219.64,1026.62 2222.64,1028.32 2226.54,1028.72 C2227.14,1028.82 2227.64,1028.82 2228.24,1028.82 C2231.74,1028.82 2235.44,1027.82 2238.94,1025.92 C2245.54,1022.32 2249.74,1016.52 2249.74,1011.42 C2249.74,1010.02 2249.44,1008.62 2248.74,1007.42"/>
<path class="Note" d="M2429.7,982.42 C2428.2,979.72 2425.3,978.02 2421.4,977.62 C2420.8,977.52 2420.3,977.52 2419.7,977.52 C2416.2,977.52 2412.4,978.52 2408.9,980.42 C2402.3,984.02 2398.2,989.92 2398.2,995.02 C2398.2,996.42 2398.4,997.72 2399.1,998.92 C2400.6,1001.62 2403.6,1003.32 2407.5,1003.72 C2408.1,1003.82 2408.6,1003.82 2409.2,1003.82 C2412.7,1003.82 2416.4,1002.82 2419.9,1000.92 C2426.5,997.32 2430.7,991.52 2430.7,986.42 C2430.7,985.02 2430.4,983.62 2429.7,982.42"/>
<path class="Note" d="M2610.67,957.418 C2609.17,954.718 2606.27,953.018 2602.37,952.618 C2601.77,952.518 2601.27,952.518 2600.67,952.518 C2597.17,952.518 2593.37,953.518 2589.87,955.418 C2583.27,959.018 2579.17,964.918 2579.17,970.018 C2579.17,971.418 2579.37,972.718 2580.07,973.918 C2581.57,976.618 2584.57,978.318 2588.47,978.718 C2589.07,978.818 2589.57,978.818 2590.17,978.818 C2593.67,978.818 2597.37,977.818 2600.87,975.918 C2607.47,972.318 2611.67,966.518 2611.67,961.418 C2611.67,960.018 2611.37,958.618 2610.67,957.418"/>
<path class="Note" d="M438.351,1569.96 C436.851,1567.26 433.951,1565.56 430.051,1565.16 C429.451,1565.06 428.951,1565.06 428.351,1565.06 C424.851,1565.06 421.051,1566.06 417.551,1567.96 C410.951,1571.56 406.851,1577.46 406.851,1582.56 C406.851,1583.96 407.051,1585.26 407.751,1586.46 C409.251,1589.16 412.251,1590.86 416.151,1591.26 C416.751,1591.36 417.251,1591.36 417.851,1591.36 C421.351,1591.36 425.051,1590.36 428.551,1588.46 C435.151,1584.86 439.351,1579.06 439.351,1573.96 C439.351,1572.56 439.051,1571.16 438.351,1569.96"/>
<path class="Note" d="M622.821,1594.96 C621.321,1592.26 618.421,1590.56 614.521,1590.16 C613.921,1590.06 613.421,1590.06 612.821,1590.06 C609.321,1590.06 605.521,1591.06 602.021,1592.96 C595.421,1596.56 591.321,1602.46 591.321,1607.56 C591.321,1608.96 591.521,1610.26 592.221,1611.46 C593.721,1614.16 596.721,1615.86 600.621,1616.26 C601.221,1616.36 601.721,1616.36 602.321,1616.36 C605.821,1616.36 609.521,1615.36 613.021,1613.46 C619.621,1609.86 623.821,1604.06 623.821,1598.96 C623.821,1597.56 623.521,1596.16 622.821,1594.96"/>
<path class="Note" d="M807.292,1619.96 C805.792,1617.26 802.892,1615.56 798.992,1615.16 C798.392,1615.06 797.892,1615.06 797.292,1615.06 C793.792,1615.06 789.992,1616.06 786.492,1617.96 C779.892,1621.56 775.792,1627.46 775.792,1632.56 C775.792,1633.96 775.992,1635.26 776.692,1636.46 C778.192,1639.16 781.192,1640.86 785.092,1641.26 C785.692,1641.36 786.192,1641.36 786.792,1641.36 C790.292,1641.36 793.992,1640.36 797.492,1638.46 C804.092,1634.86 808.292,1629.06 808.292,1623.96 C808.292,1622.56 807.992,1621.16 807.292,1619.96"/>
<path class="Note" d="M1028.76,1594.96 C1027.26,1592.26 1024.36,1590.56 1020.46,1590.16 C1019.86,1590.06 1019.36,1590.06 1018.76,1590.06 C1015.26,1590.06 1011.46,1591.06 1007.96,1592.96 C1001.36,1596.56 997.265,1602.46 997.265,1607.56 C997.265,1608.96 997.465,1610.26 998.165,1611.46 C999.665,1614.16 1002.66,1615.86 1006.56,1616.26 C1007.16,1616.36 1007.66,1616.36 1008.26,1616.36 C1011.76,1616.36 1015.46,1615.36 1018.96,1613.46 C1025.56,1609.86 1029.76,1604.06 1029.76,1598.96 C1029.76,1597.56 1029.46,1596.16 1028.76,1594.96"/>
<path class="Note" d="M1209.88,1619.96 C1208.38,1617.26 1205.48,1615.56 1201.58,1615.16 C1200.98,1615.06 1200.48,1615.06 1199.88,1615.06 C1196.38,1615.06 1192.58,1616.06 1189.08,1617.96 C1182.48,1621.56 1178.38,1627.46 1178.38,1632.56 C1178.38,1633.96 1178.58,1635.26 1179.28,1636.46 C1180.78,1639.16 1183.78,1640.86 1187.68,1641.26 C1188.28,1641.36 1188.78,1641.36 1189.38,1641.36 C1192.88,1641.36 1196.58,1640.36 1200.08,1638.46 C1206.68,1634.86 1210.88,1629.06 1210.88,1623.96 C1210.88,1622.56 1210.58,1621.16 1209.88,1619.96"/>
<path class="Note" d="M1391,1657.46 C1389.5,1654.76 1386.6,1653.06 1382.7,1652.66 C1382.1,1652.56 1381.6,1652.56 1381,1652.56 C1377.5,1652.56 1373.7,1653.56 1370.2,1655.46 C1363.6,1659.06 1359.5,1664.96 1359.5,1670.06 C1359.5,1671.46 1359.7,1672.76 1360.4,1673.96 C1361.9,1676.66 1364.9,1678.36 1368.8,1678.76 C1369.4,1678.86 1369.9,1678.86 1370.5,1678.86 C1374,1678.86 1377.7,1677.86 1381.2,1675.96 C1387.8,1672.36 1392,1666.56 1392,1661.46 C1392,1660.06 1391.7,1658.66 1391,1657.46"/>
<path class="Note" d="M1630.37,1469.95 C1628.87,1467.25 1625.97,1465.55 1622.07,1465.15 C1621.47,1465.05 1620.97,1465.05 1620.37,1465.05 C1616.87,1465.05 1613.07,1466.05 1609.57,1467.95 C1602.97,1471.55 1598.87,1477.45 1598.87,1482.55 C1598.87,1483.95 1599.07,1485.25 1599.77,1486.45 C1601.27,1489.15 1604.27,1490.85 1608.17,1491.25 C1608.77,1491.35 1609.27,1491.35 1609.87,1491.35 C1613.37,1491.35 1617.07,1490.35 1620.57,1488.45 C1627.17,1484.85 1631.37,1479.05 1631.37,1473.95 C1631.37,1472.55 1631.07,1471.15 1630.37,1469.95"/>
<path class="Note" d="M1814.84,1507.45 C1813.34,1504.75 1810.44,1503.05 1806.54,1502.65 C1805.94,1502.55 1805.44,1502.55 1804.84,1502.55 C1801.34,1502.55 1797.54,1503.55 1794.04,1505.45 C1787.44,1509.05 1783.34,1514.95 1783.34,1520.05 C1783.34,1521.45 1783.54,1522.75 1784.24,1523.95 C1785.74,1526.65 1788.74,1528.35 1792.64,1528.75 C1793.24,1528.85 1793.74,1528.85 1794.34,1528.85 C1797.84,1528.85 1801.54,1527.85 1805.04,1525.95 C1811.64,1522.35 1815.84,1516.55 1815.84,1511.45 C1815.84,1510.05 1815.54,1508.65 1814.84,1507.45"/>
<path class="Note" d="M1999.31,1532.45 C1997.81,1529.75 1994.91,1528.05 1991.01,1527.65 C1990.41,1527.55 1989.91,1527.55 1989.31,1527.55 C1985.81,1527.55 1982.01,1528.55 1978.51,1530.45 C1971.91,1534.05 1967.81,1539.95 1967.81,1545.05 C1967.81,1546.45 1968.01,1547.75 1968.71,1548.95 C1970.21,1551.65 1973.21,1553.35 1977.11,1553.75 C1977.71,1553.85 1978.21,1553.85 1978.81,1553.85 C1982.31,1553.85 1986.01,1552.85 1989.51,1550.95 C1996.11,1547.35 2000.31,1541.55 2000.31,1536.45 C2000.31,1535.05 2000.01,1533.65 1999.31,1532.45"/>
<path class="Note" d="M2220.78,1507.45 C2219.28,1504.75 2216.38,1503.05 2212.48,1502.65 C2211.88,1502.55 2211.38,1502.55 2210.78,1502.55 C2207.28,1502.55 2203.48,1503.55 2199.98,1505.45 C2193.38,1509.05 2189.28,1514.95 2189.28,1520.05 C2189.28,1521.45 2189.48,1522.75 2190.18,1523.95 C2191.68,1526.65 2194.68,1528.35 2198.58,1528.75 C2199.18,1528.85 2199.68,1528.85 2200.28,1528.85 C2203.78,1528.85 2207.48,1527.85 2210.98,1525.95 C2217.58,1522.35 2221.78,1516.55 2221.78,1511.45 C2221.78,1510.05 2221.48,1508.65 2220.78,1507.45"/>
<path class="Note" d="M2401.9,1532.45 C2400.4,1529.75 2397.5,1528.05 2393.6,1527.65 C2393,1527.55 2392.5,1527.55 2391.9,1527.55 C2388.4,1527.55 2384.6,1528.55 2381.1,1530.45 C2374.5,1534.05 2370.4,1539.95 2370.4,1545.05 C2370.4,1546.45 2370.6,1547.75 2371.3,1548.95 C2372.8,1551.65 2375.8,1553.35 2379.7,1553.75 C2380.3,1553.85 2380.8,1553.85 2381.4,1553.85 C2384.9,1553.85 2388.6,1552.85 2392.1,1550.95 C2398.7,1547.35 2402.9,1541.55 2402.9,1536.45 C2402.9,1535.05 2402.6,1533.65 2401.9,1532.45"/>
<path class="Note" d="M2583.01,1557.46 C2581.51,1554.76 2578.61,1553.06 2574.71,1552.66 C2574.11,1552.56 2573.61,1552.56 2573.01,1552.56 C2569.51,1552.56 2565.71,1553.56 2562.21,1555.46 C2555.61,1559.06 2551.51,1564.96 2551.51,1570.06 C2551.51,1571.46 2551.71,1572.76 2552.41,1573.96 C2553.91,1576.66 2556.91,1578.36 2560.81,1578.76 C2561.41,1578.86 2561.91,1578.86 2562.51,1578.86 C2566.01,1578.86 2569.71,1577.86 2573.21,1575.96 C2579.81,1572.36 2584.01,1566.56 2584.01,1561.46 C2584.01,1560.06 2583.71,1558.66 2583.01,1557.46"/>
<path class="Note" d="M486.502,744.905 C485.002,742.205 482.102,740.505 478.202,740.105 C477.602,740.005 477.102,740.005 476.502,740.005 C473.002,740.005 469.202,741.005 465.702,742.905 C459.102,746.505 455.002,752.405 455.002,757.505 C455.002,758.905 455.202,760.205 455.902,761.405 C457.402,764.105 460.402,765.805 464.302,766.205 C464.902,766.305 465.402,766.305 466.002,766.305 C469.502,766.305 473.202,765.305 476.702,763.405 C483.302,759.805 487.502,754.005 487.502,748.905 C487.502,747.505 487.202,746.105 486.502,744.905"/>
<path class="Note" d="M664.111,719.903 C662.611,717.203 659.711,715.503 655.811,715.103 C655.211,715.003 654.711,715.003 654.111,715.003 C650.611,715.003 646.811,716.003 643.311,717.903 C636.711,721.503 632.611,727.403 632.611,732.503 C632.611,733.903 632.811,735.203 633.511,736.403 C635.011,739.103 638.011,740.803 641.911,741.203 C642.511,741.303 643.011,741.303 643.611,741.303 C647.111,741.303 650.811,740.303 654.311,738.403 C660.911,734.803 665.111,729.003 665.111,723.903 C665.111,722.503 664.811,721.103 664.111,719.903"/>
<path class="Note" d="M841.72,694.902 C840.22,692.202 837.32,690.502 833.42,690.102 C832.82,690.002 832.32,690.002 831.72,690.002 C828.22,690.002 824.42,691.002 820.92,692.902 C814.32,696.502 810.22,702.402 810.22,707.502 C810.22,708.902 810.42,710.202 811.12,711.402 C812.62,714.102 815.62,715.802 819.52,716.202 C820.12,716.302 820.62,716.302 821.22,716.302 C824.72,716.302 828.42,715.302 831.92,713.402 C838.52,709.802 842.72,704.002 842.72,698.902 C842.72,697.502 842.42,696.102 841.72,694.902"/>
<path class="Note" d="M1056.33,719.903 C1054.83,717.203 1051.93,715.503 1048.03,715.103 C1047.43,715.003 1046.93,715.003 1046.33,715.003 C1042.83,715.003 1039.03,716.003 1035.53,717.903 C1028.93,721.503 1024.83,727.403 1024.83,732.503 C1024.83,733.903 1025.03,735.203 1025.73,736.403 C1027.23,739.103 1030.23,740.803 1034.13,741.203 C1034.73,741.303 1035.23,741.303 1035.83,741.303 C1039.33,741.303 1043.03,740.303 1046.53,738.403 C1053.13,734.803 1057.33,729.003 1057.33,723.903 C1057.33,722.503 1057.03,721.103 1056.33,719.903"/>
<path class="Note" d="M1237.29,694.902 C1235.79,692.202 1232.89,690.502 1228.99,690.102 C1228.39,690.002 1227.89,690.002 1227.29,690.002 C1223.79,690.002 1219.99,691.002 1216.49,692.902 C1209.89,696.502 1205.79,702.402 1205.79,707.502 C1205.79,708.902 1205.99,710.202 1206.69,711.402 C1208.19,714.102 1211.19,715.802 1215.09,716.202 C1215.69,716.302 1216.19,716.302 1216.79,716.302 C1220.29,716.302 1223.99,715.302 1227.49,713.402 C1234.09,709.802 1238.29,704.002 1238.29,698.902 C1238.29,697.502 1237.99,696.102 1237.29,694.902"/>
<path class="Note" d="M1418.26,657.399 C1416.76,654.699 1413.86,652.999 1409.96,652.599 C1409.36,652.499 1408.86,652.499 1408.26,652.499 C1404.76,652.499 1400.96,653.499 1397.46,655.399 C1390.86,658.999 1386.76,664.899 1386.76,669.999 C1386.76,671.399 1386.96,672.699 1387.66,673.899 C1389.16,676.599 1392.16,678.299 1396.06,678.699 C1396.66,678.799 1397.16,678.799 1397.76,678.799 C1401.26,678.799 1404.96,677.799 1408.46,675.899 C1415.06,672.299 1419.26,666.499 1419.26,661.399 C1419.26,659.999 1418.96,658.599 1418.26,657.399"/>
<path class="Note" d="M1636.22,694.902 C1634.72,692.202 1631.82,690.502 1627.92,690.102 C1627.32,690.002 1626.82,690.002 1626.22,690.002 C1622.72,690.002 1618.92,691.002 1615.42,692.902 C1608.82,696.502 1604.72,702.402 1604.72,707.502 C1604.72,708.902 1604.92,710.202 1605.62,711.402 C1607.12,714.102 1610.12,715.802 1614.02,716.202 C1614.62,716.302 1615.12,716.302 1615.72,716.302 C1619.22,716.302 1622.92,715.302 1626.42,713.402 C1633.02,709.802 1637.22,704.002 1637.22,698.902 C1637.22,697.502 1636.92,696.102 1636.22,694.902"/>
<path class="Note" d="M1823.89,657.399 C1822.39,654.699 1819.49,652.999 1815.59,652.599 C1814.99,652.499 1814.49,652.499 1813.89,652.499 C1810.39,652.499 1806.59,653.499 1803.09,655.399 C1796.49,658.999 1792.39,664.899 1792.39,669.999 C1792.39,671.399 1792.59,672.699 1793.29,673.899 C1794.79,676.599 1797.79,678.299 1801.69,678.699 C1802.29,678.799 1802.79,678.799 1803.39,678.799 C1806.89,678.799 1810.59,677.799 1814.09,675.899 C1820.69,672.299 1824.89,666.499 1824.89,661.399 C1824.89,659.999 1824.59,658.599 1823.89,657.399"/>
<path class="Note" d="M2011.57,632.398 C2010.07,629.698 2007.17,627.998 2003.27,627.598 C2002.67,627.498 2002.17,627.498 2001.57,627.498 C1998.07,627.498 1994.27,628.498 1990.77,630.398 C1984.17,633.998 1980.07,639.898 1980.07,644.998 C1980.07,646.398 1980.27,647.698 1980.97,648.898 C1982.47,651.598 1985.47,653.298 1989.37,653.698 C1989.97,653.798 1990.47,653.798 1991.07,653.798 C1994.57,653.798 1998.27,652.798 2001.77,650.898 C2008.37,647.298 2012.57,641.498 2012.57,636.398 C2012.57,634.998 2012.27,633.598 2011.57,632.398"/>
<path class="Note" d="M2248.74,657.399 C2247.24,654.699 2244.34,652.999 2240.44,652.599 C2239.84,652.499 2239.34,652.499 2238.74,652.499 C2235.24,652.499 2231.44,653.499 2227.94,655.399 C2221.34,658.999 2217.24,664.899 2217.24,669.999 C2217.24,671.399 2217.44,672.699 2218.14,673.899 C2219.64,676.599 2222.64,678.299 2226.54,678.699 C2227.14,678.799 2227.64,678.799 2228.24,678.799 C2231.74,678.799 2235.44,677.799 2238.94,675.899 C2245.54,672.299 2249.74,666.499 2249.74,661.399 C2249.74,659.999 2249.44,658.599 2248.74,657.399"/>
<path class="Note" d="M2429.7,632.398 C2428.2,629.698 2425.3,627.998 2421.4,627.598 C2420.8,627.498 2420.3,627.498 2419.7,627.498 C2416.2,627.498 2412.4,628.498 2408.9,630.398 C2402.3,633.998 2398.2,639.898 2398.2,644.998 C2398.2,646.398 2398.4,647.698 2399.1,648.898 C2400.6,651.598 2403.6,653.298 2407.5,653.698 C2408.1,653.798 2408.6,653.798 2409.2,653.798 C2412.7,653.798 2416.4,652.798 2419.9,650.898 C2426.5,647.298 2430.7,641.498 2430.7,636.398 C2430.7,634.998 2430.4,633.598 2429.7,632.398"/>
<path class="Note" d="M2610.67,607.396 C2609.17,604.696 2606.27,602.996 2602.37,602.596 C2601.77,602.496 2601.27,602.496 2600.67,602.496 C2597.17,602.496 2593.37,603.496 2589.87,605.396 C2583.27,608.996 2579.17,614.896 2579.17,619.996 C2579.17,621.396 2579.37,622.696 2580.07,623.896 C2581.57,626.596 2584.57,628.296 2588.47,628.696 C2589.07,628.796 2589.57,628.796 2590.17,628.796 C2593.67,628.796 2597.37,627.796 2600.87,625.896 C2607.47,622.296 2611.67,616.496 2611.67,611.396 C2611.67,609.996 2611.37,608.596 2610.67,607.396"/>
<path class="Note" d="M438.351,1219.93 C436.851,1217.23 433.951,1215.53 430.051,1215.13 C429.451,1215.03 428.951,1215.03 428.351,1215.03 C424.851,1215.03 421.051,1216.03 417.551,1217.93 C410.951,1221.53 406.851,1227.43 406.851,1232.53 C406.851,1233.93 407.051,1235.23 407.751,1236.43 C409.251,1239.13 412.251,1240.83 416.151,1241.23 C416.751,1241.33 417.251,1241.33 417.851,1241.33 C421.351,1241.33 425.051,1240.33 428.551,1238.43 C435.151,1234.83 439.351,1229.03 439.351,1223.93 C439.351,1222.53 439.051,1221.13 438.351,1219.93"/>
<path class="Note" d="M622.821,1244.94 C621.321,1242.24 618.421,1240.54 614.521,1240.14 C613.921,1240.04 613.421,1240.04 612.821,1240.04 C609.321,1240.04 605.521,1241.04 602.021,1242.94 C595.421,1246.54 591.321,1252.44 591.321,1257.54 C591.321,1258.94 591.521,1260.24 592.221,1261.44 C593.721,1264.14 596.721,1265.84 600.621,1266.24 C601.221,1266.34 601.721,1266.34 602.321,1266.34 C605.821,1266.34 609.521,1265.34 613.021,1263.44 C619.621,1259.84 623.821,1254.04 623.821,1248.94 C623.821,1247.54 623.521,1246.14 622.821,1244.94"/>
<path class="Note" d="M807.292,1269.94 C805.792,1267.24 802.892,1265.54 798.992,1265.14 C798.392,1265.04 797.892,1265.04 797.292,1265.04 C793.792,1265.04 789.992,1266.04 786.492,1267.94 C779.892,1271.54 775.792,1277.44 775.792,1282.54 C775.792,1283.94 775.992,1285.24 776.692,1286.44 C778.192,1289.14 781.192,1290.84 785.092,1291.24 C785.692,1291.34 786.192,1291.34 786.792,1291.34 C790.292,1291.34 793.992,1290.34 797.492,1288.44 C804.092,1284.84 808.292,1279.04 808.292,1273.94 C808.292,1272.54 807.992,1271.14 807.292,1269.94"/>
<path class="Note" d="M1028.76,1244.94 C1027.26,1242.24 1024.36,1240.54 1020.46,1240.14 C1019.86,1240.04 1019.36,1240.04 1018.76,1240.04 C1015.26,1240.04 1011.46,1241.04 1007.96,1242.94 C1001.36,1246.54 997.265,1252.44 997.265,1257.54 C997.265,1258.94 997.465,1260.24 998.165,1261.44 C999.665,1264.14 1002.66,1265.84 1006.56,1266.24 C1007.16,1266.34 1007.66,1266.34 1008.26,1266.34 C1011.76,1266.34 1015.46,1265.34 1018.96,1263.44 C1025.56,1259.84 1029.76,1254.04 1029.76,1248.94 C1029.76,1247.54 1029.46,1246.14 1028.76,1244.94"/>
<path class="Note" d="M1209.88,1269.94 C1208.38,1267.24 1205.48,1265.54 1201.58,1265.14 C1200.98,1265.04 1200.48,1265.04 1199.88,1265.04 C1196.38,1265.04 1192.58,1266.04 1189.08,1267.94 C1182.48,1271.54 1178.38,1277.44 1178.38,1282.54 C1178.38,1283.94 1178.58,1285.24 1179.28,1286.44 C1180.78,1289.14 1183.78,1290.84 1187.68,1291.24 C1188.28,1291.34 1188.78,1291.34 1189.38,1291.34 C1192.88,1291.34 1196.58,1290.34 1200.08,1288.44 C1206.68,1284.84 1210.88,1279.04 1210.88,1273.94 C1210.88,1272.54 1210.58,1271.14 1209.88,1269.94"/>
<path class="Note" d="M1391,1307.44 C1389.5,1304.74 1386.6,1303.04 1382.7,1302.64 C1382.1,1302.54 1381.6,1302.54 1381,1302.54 C1377.5,1302.54 1373.7,1303.54 1370.2,1305.44 C1363.6,1309.04 1359.5,1314.94 1359.5,1320.04 C1359.5,1321.44 1359.7,1322.74 1360.4,1323.94 C1361.9,1326.64 1364.9,1328.34 1368.8,1328.74 C1369.4,1328.84 1369.9,1328.84 1370.5,1328.84 C1374,1328.84 1377.7,1327.84 1381.2,1325.94 C1387.8,1322.34 1392,1316.54 1392,1311.44 C1392,1310.04 1391.7,1308.64 1391,1307.44"/>
<path class="Note" d="M1630.37,1269.94 C1628.87,1267.24 1625.97,1265.54 1622.07,1265.14 C1621.47,1265.04 1620.97,1265.04 1620.37,1265.04 C1616.87,1265.04 1613.07,1266.04 1609.57,1267.94 C1602.97,1271.54 1598.87,1277.44 1598.87,1282.54 C1598.87,1283.94 1599.07,1285.24 1599.77,1286.44 C1601.27,1289.14 1604.27,1290.84 1608.17,1291.24 C1608.77,1291.34 1609.27,1291.34 1609.87,1291.34 C1613.37,1291.34 1617.07,1290.34 1620.57,1288.44 C1627.17,1284.84 1631.37,1279.04 1631.37,1273.94 C1631.37,1272.54 1631.07,1271.14 1630.37,1269.94"/>
<path class="Note" d="M1814.84,1307.44 C1813.34,1304.74 1810.44,1303.04 1806.54,1302.64 C1805.94,1302.54 1805.44,1302.54 1804.84,1302.54 C1801.34,1302.54 1797.54,1303.54 1794.04,1305.44 C1787.44,1309.04 1783.34,1314.94 1783.34,1320.04 C1783.34,1321.44 1783.54,1322.74 1784.24,1323.94 C1785.74,1326.64 1788.74,1328.34 1792.64,1328.74 C1793.24,1328.84 1793.74,1328.84 1794.34,1328.84 C1797.84,1328.84 1801.54,1327.84 1805.04,1325.94 C1811.64,1322.34 1815.84,1316.54 1815.84,1311.44 C1815.84,1310.04 1815.54,1308.64 1814.84,1307.44"/>
<path class="Note" d="M1999.31,1332.44 C1997.81,1329.74 1994.91,1328.04 1991.01,1327.64 C1990.41,1327.54 1989.91,1327.54 1989.31,1327.54 C1985.81,1327.54 1982.01,1328.54 1978.51,1330.44 C1971.91,1334.04 1967.81,1339.94 1967.81,1345.04 C1967.81,1346.44 1968.01,1347.74 1968.71,1348.94 C1970.21,1351.64 1973.21,1353.34 1977.11,1353.74 C1977.71,1353.84 1978.21,1353.84 1978.81,1353.84 C1982.31,1353.84 1986.01,1352.84 1989.51,1350.94 C1996.11,1347.34 2000.31,1341.54 2000.31,1336.44 C2000.31,1335.04 2000.01,1333.64 1999.31,1332.44"/>
<path class="Note" d="M2220.78,1307.44 C2219.28,1304.74 2216.38,1303.04 2212.48,1302.64 C2211.88,1302.54 2211.38,1302.54 2210.78,1302.54 C2207.28,1302.54 2203.48,1303.54 2199.98,1305.44 C2193.38,1309.04 2189.28,1314.94 2189.28,1320.04 C2189.28,1321.44 2189.48,1322.74 2190.18,1323.94 C2191.68,1326.64 2194.68,1328.34 2198.58,1328.74 C2199.18,1328.84 2199.68,1328.84 2200.28,1328.84 C2203.78,1328.84 2207.48,1327.84 2210.98,1325.94 C2217.58,1322.34 2221.78,1316.54 2221.78,1311.44 C2221.78,1310.04 2221.48,1308.64 2220.78,1307.44"/>
<path class="Note" d="M2401.9,1332.44 C2400.4,1329.74 2397.5,1328.04 2393.6,1327.64 C2393,1327.54 2392.5,1327.54 2391.9,1327.54 C2388.4,1327.54 2384.6,1328.54 2381.1,1330.44 C2374.5,1334.04 2370.4,1339.94 2370.4,1345.04 C2370.4,1346.44 2370.6,1347.74 2371.3,1348.94 C2372.8,1351.64 2375.8,1353.34 2379.7,1353.74 C2380.3,1353.84 2380.8,1353.84 2381.4,1353.84 C2384.9,1353.84 2388.6,1352.84 2392.1,1350.94 C2398.7,1347.34 2402.9,1341.54 2402.9,1336.44 C2402.9,1335.04 2402.6,1333.64 2401.9,1332.44"/>
<path class="Note" d="M2583.01,1357.44 C2581.51,1354.74 2578.61,1353.04 2574.71,1352.64 C2574.11,1352.54 2573.61,1352.54 2573.01,1352.54 C2569.51,1352.54 2565.71,1353.54 2562.21,1355.44 C2555.61,1359.04 2551.51,1364.94 2551.51,1370.04 C2551.51,1371.44 2551.71,1372.74 2552.41,1373.94 C2553.91,1376.64 2556.91,1378.34 2560.81,1378.74 C2561.41,1378.84 2561.91,1378.84 2562.51,1378.84 C2566.01,1378.84 2569.71,1377.84 2573.21,1375.94 C2579.81,1372.34 2584.01,1366.54 2584.01,1361.44 C2584.01,1360.04 2583.71,1358.64 2583.01,1357.44"/>
<path class="Clef" d="M297,915.517 C289.4,915.517 283.3,919.917 283.2,919.917 C277.4,924.217 275.1,929.317 274.2,932.817 C273.7,934.617 273.5,936.417 273.5,938.117 C273.5,940.517 273.9,942.717 274.8,944.617 C276,947.317 278.3,949.217 281.3,950.217 C282.5,950.617 283.8,950.817 285.1,950.817 C287.3,950.817 289.6,950.217 291.5,949.117 C294.6,947.417 296.5,943.817 296.5,939.917 C296.5,936.417 294.7,933.217 291.7,931.317 C289.6,929.917 287.6,929.517 285.9,929.517 C284.7,929.517 283.6,929.717 282.7,930.017 C281.7,930.417 280,931.417 279.2,932.117 C279.5,930.217 280.7,927.317 281.8,925.717 C282.9,924.117 285.1,922.117 286.8,921.217 C289.3,919.817 292.5,919.217 296,919.217 C306.2,919.217 311.2,927.417 311.2,944.217 C311.2,953.517 307.7,962.417 304.7,968.317 C301.4,974.917 297,981.217 293.1,984.717 C282.7,994.217 272.9,998.717 272.8,998.717 C272.8,998.717 271.3,999.617 271.7,1001.12 C272,1002.12 272.9,1002.32 273.5,1002.32 C273.6,1002.32 273.9,1002.22 274,1002.22 C274.1,1002.22 285.5,997.517 294.6,990.417 C299.7,986.717 304.3,982.717 308.3,978.417 C311.9,974.517 315,970.317 317.5,966.117 C321.9,958.617 324.4,950.817 324.4,944.117 C324.4,935.817 322.2,928.917 318.1,924.017 C313.4,918.417 306.3,915.517 297,915.517 M328.4,928.217 C328.4,931.017 330.6,933.217 333.2,933.217 C335.8,933.217 338,931.017 338,928.217 C338,925.417 335.8,923.117 333.2,923.117 C330.6,923.117 328.4,925.417 328.4,928.217 M328.4,952.917 C328.4,955.717 330.6,958.017 333.2,958.017 C335.8,958.017 338,955.717 338,952.917 C338,950.117 335.8,947.817 333.2,947.817 C330.6,947.817 328.4,950.117 328.4,952.917"/>
<path class="Clef" transform="matrix(0.80005,0,0,0.80005,2116.54,990.62)" d="M63.4,-5.9 C62.2,-11.3 59.5,-15.2 58.7,-16.2 C55.5,-20.5 51.5,-23.3 46.8,-24.7 C44.5,-25.4 42.4,-25.6 40.4,-25.6 C39.7,-25.6 39,-25.6 38.3,-25.5 C37.3,-31.5 36.2,-37.4 35.3,-42.8 C40.9,-49 44.6,-54.9 47,-59.3 C50.6,-66 52,-70.7 52.1,-70.9 C53.3,-73.9 54,-77.7 54,-82.2 C54,-84.9 53.7,-87.8 53.3,-90.8 C52.2,-97.9 50,-104.6 47.5,-108.3 C46.2,-110.2 45,-111.3 43.8,-111.3 C42.6,-111.3 40.1,-110.1 37.2,-107.3 C34.9,-105.1 31.6,-101.2 29,-95.2 C26.7,-89.8 26,-82.9 26,-77 C26,-75.2 26.1,-73.5 26.2,-71.9 C26.4,-68.3 27.1,-62.5 27.7,-58.9 C27.7,-58.8 28,-57.3 28.4,-54.7 L27.7,-54 C26.7,-53 25.5,-51.9 24.1,-50.5 C23.2,-49.6 22.3,-48.8 21.3,-47.8 C12.8,-39.6 0,-27.2 0,-8.1 C0,-3.4 0.9,1 2.7,5 C4.3,8.6 6.6,11.9 9.5,14.8 C17,22.2 27.2,25.4 34.3,25.4 L34.9,25.4 C37.8,25.3 40.5,25 42.9,24.6 C44.7,34.2 45.9,41.3 45.9,46.6 C45.9,53.1 44.3,57 40.4,59.8 C38,61.5 35.1,62.6 32,62.7 L31.2,62.7 C29.7,62.7 27.2,62.3 25.7,61.9 C25.7,61.9 25.4,61.8 25.4,61.6 C25.4,61.4 25.8,61.4 25.8,61.4 C27.7,61 31.3,59.7 33.7,56.4 C34.8,54.9 35.5,52.6 35.5,50.1 C35.5,48.5 35.2,46.8 34.5,45.3 C33.4,42.9 30.8,39.9 25.2,39.5 L24.1,39.5 C22,39.5 20.2,40 18.5,41 C16.7,42.1 15.1,43.8 14.1,45.8 C13,47.8 12.5,50 12.5,52.2 C12.5,55.1 13.4,57.8 15.2,60 C18.2,63.6 22.9,65.9 28.3,66.5 C29,66.6 30.1,66.7 30.8,66.7 C35.2,66.7 39.6,65.5 43.2,63.3 C46.9,60.7 49,56.7 49.7,51.1 C49.9,49.8 49.9,48.4 49.9,46.9 C49.9,43 49.4,38.3 48.4,32.5 C48,30.4 47.6,27.4 46.9,23.6 C52.7,21.7 56.8,18 60.6,12.2 C62.9,8.2 64,4.1 64,-0.2 C64,-2.1 63.8,-4 63.4,-5.9 M33.2,-83.8 C35,-89.5 37.7,-92.9 39.7,-94.6 C41.5,-96.1 43.1,-96.8 44,-96.8 C44.1,-96.8 44.3,-96.7 44.4,-96.7 C44.7,-96.6 45.1,-96.1 45.5,-95.4 C46.4,-93.6 47.3,-90.3 47.3,-86.6 C47.3,-84.7 47.1,-82.7 46.5,-80.9 C44.3,-74.1 39.7,-66.8 32.7,-59.1 C32.5,-60.2 32.3,-61.2 32.2,-62.2 C31.7,-65.4 31.4,-68.6 31.4,-71.5 C31.4,-76 32,-80.1 33.2,-83.8 M29.2,20.3 C24.6,19.1 20.1,16.6 16.3,13.1 C15,11.9 13.2,9.7 11.7,6.3 C10.4,3.3 9.7,0.2 9.7,-3.2 L9.7,-3.9 C9.8,-8.6 11.1,-13.4 13.6,-18.2 C16.5,-23.8 21,-29.3 27.1,-34.6 C28.6,-35.9 30,-37.2 31.3,-38.5 C32.1,-34.2 32.8,-29.5 33.7,-24.6 C29.8,-23.3 25.1,-20.3 22,-14.6 C19.6,-10.1 18.9,-6.2 18.9,-3 C18.9,-1.5 19.1,-0.1 19.3,1 C20.2,5.5 22.8,9.2 26.3,11.3 C27.1,11.8 30.4,13.5 32.4,13.5 C32.7,13.5 33,13.5 33.2,13.4 C33.5,13.3 33.8,13.1 33.9,12.8 C34,12.6 34,12.4 34,12.2 C34,11.4 33.2,10.8 31.9,10 C31.3,9.6 30.6,9.2 29.9,8.7 C27.3,6.7 25.8,3.6 25.8,0.2 C25.8,-0.8 26,-1.7 26.2,-2.7 C26.7,-4.7 28.4,-7.5 29.9,-8.9 C31.6,-10.4 33.6,-11.6 36,-12.2 C38,-1 40.1,10.1 41.7,18.5 C41.8,19.2 42,19.9 42.1,20.6 C40.1,21 38.1,21.2 36.2,21.2 C33.8,21.2 31.5,20.9 29.2,20.3 M54.9,10.1 C53.7,13.3 51.2,17.3 46.1,19.4 C46,19 46,18.5 45.9,18.1 C44.4,9.3 42.5,-1.6 40.5,-12.9 L41.5,-12.9 C51.2,-12.9 55.1,-5.7 56,-1.1 C56.2,-0.2 56.3,1 56.3,2.3 C56.3,4.6 55.9,7.4 54.9,10.1"/>
<path class="Clef" d="M335,1597.26 C333.8,1591.86 331.1,1587.96 330.3,1586.96 C327.1,1582.66 323.1,1579.86 318.4,1578.46 C316.1,1577.76 314,1577.56 312,1577.56 C311.3,1577.56 310.6,1577.56 309.9,1577.66 C308.9,1571.66 307.8,1565.76 306.9,1560.36 C312.5,1554.16 316.2,1548.26 318.6,1543.86 C322.2,1537.16 323.6,1532.46 323.7,1532.26 C324.9,1529.26 325.6,1525.46 325.6,1520.96 C325.6,1518.26 325.3,1515.36 324.9,1512.36 C323.8,1505.26 321.6,1498.56 319.1,1494.86 C317.8,1492.96 316.6,1491.86 315.4,1491.86 C314.2,1491.86 311.7,1493.06 308.8,1495.86 C306.5,1498.06 303.2,1501.96 300.6,1507.96 C298.3,1513.36 297.6,1520.26 297.6,1526.16 C297.6,1527.96 297.7,1529.66 297.8,1531.26 C298,1534.86 298.7,1540.66 299.3,1544.26 C299.3,1544.36 299.6,1545.86 300,1548.46 L299.3,1549.16 C298.3,1550.16 297.1,1551.26 295.7,1552.66 C294.8,1553.56 293.9,1554.36 292.9,1555.36 C284.4,1563.56 271.6,1575.96 271.6,1595.06 C271.6,1599.76 272.5,1604.16 274.3,1608.16 C275.9,1611.76 278.2,1615.06 281.1,1617.96 C288.6,1625.36 298.8,1628.56 305.9,1628.56 L306.5,1628.56 C309.4,1628.46 312.1,1628.16 314.5,1627.76 C316.3,1637.36 317.5,1644.46 317.5,1649.76 C317.5,1656.26 315.9,1660.16 312,1662.96 C309.6,1664.66 306.7,1665.76 303.6,1665.86 L302.8,1665.86 C301.3,1665.86 298.8,1665.46 297.3,1665.06 C297.3,1665.06 297,1664.96 297,1664.76 C297,1664.56 297.4,1664.56 297.4,1664.56 C299.3,1664.16 302.9,1662.86 305.3,1659.56 C306.4,1658.06 307.1,1655.76 307.1,1653.26 C307.1,1651.66 306.8,1649.96 306.1,1648.46 C305,1646.06 302.4,1643.06 296.8,1642.66 L295.7,1642.66 C293.6,1642.66 291.8,1643.16 290.1,1644.16 C288.3,1645.26 286.7,1646.96 285.7,1648.96 C284.6,1650.96 284.1,1653.16 284.1,1655.36 C284.1,1658.26 285,1660.96 286.8,1663.16 C289.8,1666.76 294.5,1669.06 299.9,1669.66 C300.6,1669.76 301.7,1669.86 302.4,1669.86 C306.8,1669.86 311.2,1668.66 314.8,1666.46 C318.5,1663.86 320.6,1659.86 321.3,1654.26 C321.5,1652.96 321.5,1651.56 321.5,1650.06 C321.5,1646.16 321,1641.46 320,1635.66 C319.6,1633.56 319.2,1630.56 318.5,1626.76 C324.3,1624.86 328.4,1621.16 332.2,1615.36 C334.5,1611.36 335.6,1607.26 335.6,1602.96 C335.6,1601.06 335.4,1599.16 335,1597.26 M304.8,1519.36 C306.6,1513.66 309.3,1510.26 311.3,1508.56 C313.1,1507.06 314.7,1506.36 315.6,1506.36 C315.7,1506.36 315.9,1506.46 316,1506.46 C316.3,1506.56 316.7,1507.06 317.1,1507.76 C318,1509.56 318.9,1512.86 318.9,1516.56 C318.9,1518.46 318.7,1520.46 318.1,1522.26 C315.9,1529.06 311.3,1536.36 304.3,1544.06 C304.1,1542.96 303.9,1541.96 303.8,1540.96 C303.3,1537.76 303,1534.56 303,1531.66 C303,1527.16 303.6,1523.06 304.8,1519.36 M300.8,1623.46 C296.2,1622.26 291.7,1619.76 287.9,1616.26 C286.6,1615.06 284.8,1612.86 283.3,1609.46 C282,1606.46 281.3,1603.36 281.3,1599.96 L281.3,1599.26 C281.4,1594.56 282.7,1589.76 285.2,1584.96 C288.1,1579.36 292.6,1573.86 298.7,1568.56 C300.2,1567.26 301.6,1565.96 302.9,1564.66 C303.7,1568.96 304.4,1573.66 305.3,1578.56 C301.4,1579.86 296.7,1582.86 293.6,1588.56 C291.2,1593.06 290.5,1596.96 290.5,1600.16 C290.5,1601.66 290.7,1603.06 290.9,1604.16 C291.8,1608.66 294.4,1612.36 297.9,1614.46 C298.7,1614.96 302,1616.66 304,1616.66 C304.3,1616.66 304.6,1616.66 304.8,1616.56 C305.1,1616.46 305.4,1616.26 305.5,1615.96 C305.6,1615.76 305.6,1615.56 305.6,1615.36 C305.6,1614.56 304.8,1613.96 303.5,1613.16 C302.9,1612.76 302.2,1612.36 301.5,1611.86 C298.9,1609.86 297.4,1606.76 297.4,1603.36 C297.4,1602.36 297.6,1601.46 297.8,1600.46 C298.3,1598.46 300,1595.66 301.5,1594.26 C303.2,1592.76 305.2,1591.56 307.6,1590.96 C309.6,1602.16 311.7,1613.26 313.3,1621.66 C313.4,1622.36 313.6,1623.06 313.7,1623.76 C311.7,1624.16 309.7,1624.36 307.8,1624.36 C305.4,1624.36 303.1,1624.06 300.8,1623.46 M326.5,1613.26 C325.3,1616.46 322.8,1620.46 317.7,1622.56 C317.6,1622.16 317.6,1621.66 317.5,1621.26 C316,1612.46 314.1,1601.56 312.1,1590.26 L313.1,1590.26 C322.8,1590.26 326.7,1597.46 327.6,1602.06 C327.8,1602.96 327.9,1604.16 327.9,1605.46 C327.9,1607.76 327.5,1610.56 326.5,1613.26"/>
<path class="Clef" transform="matrix(0.80005,0,0,0.80005,1487.49,1553.16)" d="M25.4,-25.1 C17.8,-25.1 11.7,-20.7 11.6,-20.7 C5.8,-16.4 3.5,-11.3 2.6,-7.8 C2.1,-6 1.9,-4.2 1.9,-2.5 C1.9,-0.1 2.3,2.1 3.2,4 C4.4,6.7 6.7,8.6 9.7,9.6 C10.9,10 12.2,10.2 13.5,10.2 C15.7,10.2 18,9.6 19.9,8.5 C23,6.8 24.9,3.2 24.9,-0.7 C24.9,-4.2 23.1,-7.4 20.1,-9.3 C18,-10.7 16,-11.1 14.3,-11.1 C13.1,-11.1 12,-10.9 11.1,-10.6 C10.1,-10.2 8.4,-9.2 7.6,-8.5 C7.9,-10.4 9.1,-13.3 10.2,-14.9 C11.3,-16.5 13.5,-18.5 15.2,-19.4 C17.7,-20.8 20.9,-21.4 24.4,-21.4 C34.6,-21.4 39.6,-13.2 39.6,3.6 C39.6,12.9 36.1,21.8 33.1,27.7 C29.8,34.3 25.4,40.6 21.5,44.1 C11.1,53.6 1.3,58.1 1.2,58.1 C1.2,58.1 -0.3,59 0.1,60.5 C0.4,61.5 1.3,61.7 1.9,61.7 C2,61.7 2.3,61.6 2.4,61.6 C2.5,61.6 13.9,56.9 23,49.8 C28.1,46.1 32.7,42.1 36.7,37.8 C40.3,33.9 43.4,29.7 45.9,25.5 C50.3,18 52.8,10.2 52.8,3.5 C52.8,-4.8 50.6,-11.7 46.5,-16.6 C41.8,-22.2 34.7,-25.1 25.4,-25.1 M56.8,-12.4 C56.8,-9.6 59,-7.4 61.6,-7.4 C64.2,-7.4 66.4,-9.6 66.4,-12.4 C66.4,-15.2 64.2,-17.5 61.6,-17.5 C59,-17.5 56.8,-15.2 56.8,-12.4 M56.8,12.3 C56.8,15.1 59,17.4 61.6,17.4 C64.2,17.4 66.4,15.1 66.4,12.3 C66.4,9.5 64.2,7.2 61.6,7.2 C59,7.2 56.8,9.5 56.8,12.3"/>
<path class="Clef" d="M335,722.203 C333.8,716.803 331.1,712.903 330.3,711.903 C327.1,707.603 323.1,704.803 318.4,703.403 C316.1,702.703 314,702.503 312,702.503 C311.3,702.503 310.6,702.503 309.9,702.603 C308.9,696.603 307.8,690.703 306.9,685.303 C312.5,679.103 316.2,673.203 318.6,668.803 C322.2,662.103 323.6,657.403 323.7,657.203 C324.9,654.203 325.6,650.403 325.6,645.903 C325.6,643.203 325.3,640.303 324.9,637.303 C323.8,630.203 321.6,623.503 319.1,619.803 C317.8,617.903 316.6,616.803 315.4,616.803 C314.2,616.803 311.7,618.003 308.8,620.803 C306.5,623.003 303.2,626.903 300.6,632.903 C298.3,638.303 297.6,645.203 297.6,651.103 C297.6,652.903 297.7,654.603 297.8,656.203 C298,659.803 298.7,665.603 299.3,669.203 C299.3,669.303 299.6,670.803 300,673.403 L299.3,674.103 C298.3,675.103 297.1,676.203 295.7,677.603 C294.8,678.503 293.9,679.303 292.9,680.303 C284.4,688.503 271.6,700.903 271.6,720.003 C271.6,724.703 272.5,729.103 274.3,733.103 C275.9,736.703 278.2,740.003 281.1,742.903 C288.6,750.303 298.8,753.503 305.9,753.503 L306.5,753.503 C309.4,753.403 312.1,753.103 314.5,752.703 C316.3,762.303 317.5,769.403 317.5,774.703 C317.5,781.203 315.9,785.103 312,787.903 C309.6,789.603 306.7,790.703 303.6,790.803 L302.8,790.803 C301.3,790.803 298.8,790.403 297.3,790.003 C297.3,790.003 297,789.903 297,789.703 C297,789.503 297.4,789.503 297.4,789.503 C299.3,789.103 302.9,787.803 305.3,784.503 C306.4,783.003 307.1,780.703 307.1,778.203 C307.1,776.603 306.8,774.903 306.1,773.403 C305,771.003 302.4,768.003 296.8,767.603 L295.7,767.603 C293.6,767.603 291.8,768.103 290.1,769.103 C288.3,770.203 286.7,771.903 285.7,773.903 C284.6,775.903 284.1,778.103 284.1,780.303 C284.1,783.203 285,785.903 286.8,788.103 C289.8,791.703 294.5,794.003 299.9,794.603 C300.6,794.703 301.7,794.803 302.4,794.803 C306.8,794.803 311.2,793.603 314.8,791.403 C318.5,788.803 320.6,784.803 321.3,779.203 C321.5,777.903 321.5,776.503 321.5,775.003 C321.5,771.103 321,766.403 320,760.603 C319.6,758.503 319.2,755.503 318.5,751.703 C324.3,749.803 328.4,746.103 332.2,740.303 C334.5,736.303 335.6,732.203 335.6,727.903 C335.6,726.003 335.4,724.103 335,722.203 M304.8,644.303 C306.6,638.603 309.3,635.203 311.3,633.503 C313.1,632.003 314.7,631.303 315.6,631.303 C315.7,631.303 315.9,631.403 316,631.403 C316.3,631.503 316.7,632.003 317.1,632.703 C318,634.503 318.9,637.803 318.9,641.503 C318.9,643.403 318.7,645.403 318.1,647.203 C315.9,654.003 311.3,661.303 304.3,669.003 C304.1,667.903 303.9,666.903 303.8,665.903 C303.3,662.703 303,659.503 303,656.603 C303,652.103 303.6,648.003 304.8,644.303 M300.8,748.403 C296.2,747.203 291.7,744.703 287.9,741.203 C286.6,740.003 284.8,737.803 283.3,734.403 C282,731.403 281.3,728.303 281.3,724.903 L281.3,724.203 C281.4,719.503 282.7,714.703 285.2,709.903 C288.1,704.303 292.6,698.803 298.7,693.503 C300.2,692.203 301.6,690.903 302.9,689.603 C303.7,693.903 304.4,698.603 305.3,703.503 C301.4,704.803 296.7,707.803 293.6,713.503 C291.2,718.003 290.5,721.903 290.5,725.103 C290.5,726.603 290.7,728.003 290.9,729.103 C291.8,733.603 294.4,737.303 297.9,739.403 C298.7,739.903 302,741.603 304,741.603 C304.3,741.603 304.6,741.603 304.8,741.503 C305.1,741.403 305.4,741.203 305.5,740.903 C305.6,740.703 305.6,740.503 305.6,740.303 C305.6,739.503 304.8,738.903 303.5,738.103 C302.9,737.703 302.2,737.303 301.5,736.803 C298.9,734.803 297.4,731.703 297.4,728.303 C297.4,727.303 297.6,726.403 297.8,725.403 C298.3,723.403 300,720.603 301.5,719.203 C303.2,717.703 305.2,716.503 307.6,715.903 C309.6,727.103 311.7,738.203 313.3,746.603 C313.4,747.303 313.6,748.003 313.7,748.703 C311.7,749.103 309.7,749.303 307.8,749.303 C305.4,749.303 303.1,749.003 300.8,748.403 M326.5,738.203 C325.3,741.403 322.8,745.403 317.7,747.503 C317.6,747.103 317.6,746.603 317.5,746.203 C316,737.403 314.1,726.503 312.1,715.203 L313.1,715.203 C322.8,715.203 326.7,722.403 327.6,727.003 C327.8,727.903 327.9,729.103 327.9,730.403 C327.9,732.703 327.5,735.503 326.5,738.203"/>
<path class="Clef" d="M335,1334.74 C333.8,1329.34 331.1,1325.44 330.3,1324.44 C327.1,1320.14 323.1,1317.34 318.4,1315.94 C316.1,1315.24 314,1315.04 312,1315.04 C311.3,1315.04 310.6,1315.04 309.9,1315.14 C308.9,1309.14 307.8,1303.24 306.9,1297.84 C312.5,1291.64 316.2,1285.74 318.6,1281.34 C322.2,1274.64 323.6,1269.94 323.7,1269.74 C324.9,1266.74 325.6,1262.94 325.6,1258.44 C325.6,1255.74 325.3,1252.84 324.9,1249.84 C323.8,1242.74 321.6,1236.04 319.1,1232.34 C317.8,1230.44 316.6,1229.34 315.4,1229.34 C314.2,1229.34 311.7,1230.54 308.8,1233.34 C306.5,1235.54 303.2,1239.44 300.6,1245.44 C298.3,1250.84 297.6,1257.74 297.6,1263.64 C297.6,1265.44 297.7,1267.14 297.8,1268.74 C298,1272.34 298.7,1278.14 299.3,1281.74 C299.3,1281.84 299.6,1283.34 300,1285.94 L299.3,1286.64 C298.3,1287.64 297.1,1288.74 295.7,1290.14 C294.8,1291.04 293.9,1291.84 292.9,1292.84 C284.4,1301.04 271.6,1313.44 271.6,1332.54 C271.6,1337.24 272.5,1341.64 274.3,1345.64 C275.9,1349.24 278.2,1352.54 281.1,1355.44 C288.6,1362.84 298.8,1366.04 305.9,1366.04 L306.5,1366.04 C309.4,1365.94 312.1,1365.64 314.5,1365.24 C316.3,1374.84 317.5,1381.94 317.5,1387.24 C317.5,1393.74 315.9,1397.64 312,1400.44 C309.6,1402.14 306.7,1403.24 303.6,1403.34 L302.8,1403.34 C301.3,1403.34 298.8,1402.94 297.3,1402.54 C297.3,1402.54 297,1402.44 297,1402.24 C297,1402.04 297.4,1402.04 297.4,1402.04 C299.3,1401.64 302.9,1400.34 305.3,1397.04 C306.4,1395.54 307.1,1393.24 307.1,1390.74 C307.1,1389.14 306.8,1387.44 306.1,1385.94 C305,1383.54 302.4,1380.54 296.8,1380.14 L295.7,1380.14 C293.6,1380.14 291.8,1380.64 290.1,1381.64 C288.3,1382.74 286.7,1384.44 285.7,1386.44 C284.6,1388.44 284.1,1390.64 284.1,1392.84 C284.1,1395.74 285,1398.44 286.8,1400.64 C289.8,1404.24 294.5,1406.54 299.9,1407.14 C300.6,1407.24 301.7,1407.34 302.4,1407.34 C306.8,1407.34 311.2,1406.14 314.8,1403.94 C318.5,1401.34 320.6,1397.34 321.3,1391.74 C321.5,1390.44 321.5,1389.04 321.5,1387.54 C321.5,1383.64 321,1378.94 320,1373.14 C319.6,1371.04 319.2,1368.04 318.5,1364.24 C324.3,1362.34 328.4,1358.64 332.2,1352.84 C334.5,1348.84 335.6,1344.74 335.6,1340.44 C335.6,1338.54 335.4,1336.64 335,1334.74 M304.8,1256.84 C306.6,1251.14 309.3,1247.74 311.3,1246.04 C313.1,1244.54 314.7,1243.84 315.6,1243.84 C315.7,1243.84 315.9,1243.94 316,1243.94 C316.3,1244.04 316.7,1244.54 317.1,1245.24 C318,1247.04 318.9,1250.34 318.9,1254.04 C318.9,1255.94 318.7,1257.94 318.1,1259.74 C315.9,1266.54 311.3,1273.84 304.3,1281.54 C304.1,1280.44 303.9,1279.44 303.8,1278.44 C303.3,1275.24 303,1272.04 303,1269.14 C303,1264.64 303.6,1260.54 304.8,1256.84 M300.8,1360.94 C296.2,1359.74 291.7,1357.24 287.9,1353.74 C286.6,1352.54 284.8,1350.34 283.3,1346.94 C282,1343.94 281.3,1340.84 281.3,1337.44 L281.3,1336.74 C281.4,1332.04 282.7,1327.24 285.2,1322.44 C288.1,1316.84 292.6,1311.34 298.7,1306.04 C300.2,1304.74 301.6,1303.44 302.9,1302.14 C303.7,1306.44 304.4,1311.14 305.3,1316.04 C301.4,1317.34 296.7,1320.34 293.6,1326.04 C291.2,1330.54 290.5,1334.44 290.5,1337.64 C290.5,1339.14 290.7,1340.54 290.9,1341.64 C291.8,1346.14 294.4,1349.84 297.9,1351.94 C298.7,1352.44 302,1354.14 304,1354.14 C304.3,1354.14 304.6,1354.14 304.8,1354.04 C305.1,1353.94 305.4,1353.74 305.5,1353.44 C305.6,1353.24 305.6,1353.04 305.6,1352.84 C305.6,1352.04 304.8,1351.44 303.5,1350.64 C302.9,1350.24 302.2,1349.84 301.5,1349.34 C298.9,1347.34 297.4,1344.24 297.4,1340.84 C297.4,1339.84 297.6,1338.94 297.8,1337.94 C298.3,1335.94 300,1333.14 301.5,1331.74 C303.2,1330.24 305.2,1329.04 307.6,1328.44 C309.6,1339.64 311.7,1350.74 313.3,1359.14 C313.4,1359.84 313.6,1360.54 313.7,1361.24 C311.7,1361.64 309.7,1361.84 307.8,1361.84 C305.4,1361.84 303.1,1361.54 300.8,1360.94 M326.5,1350.74 C325.3,1353.94 322.8,1357.94 317.7,1360.04 C317.6,1359.64 317.6,1359.14 317.5,1358.74 C316,1349.94 314.1,1339.04 312.1,1327.74 L313.1,1327.74 C322.8,1327.74 326.7,1334.94 327.6,1339.54 C327.8,1340.44 327.9,1341.64 327.9,1342.94 C327.9,1345.24 327.5,1348.04 326.5,1350.74"/>
<path class="TimeSig" d="M392.053,939.517 L392.253,939.517 C400.253,936.417 400.753,931.217 400.753,929.417 L400.753,928.917 C400.753,928.017 400.453,916.717 383.253,916.717 C366.053,916.717 366.553,928.917 366.553,928.917 L366.653,928.917 L366.553,929.117 C366.553,932.717 369.453,935.517 373.053,935.517 C376.653,935.517 379.453,932.717 379.453,929.117 C379.453,926.217 377.253,923.417 374.453,922.817 L374.753,922.517 C376.153,921.517 378.053,921.017 379.953,921.017 C384.153,921.017 388.653,923.517 388.653,928.917 C388.653,935.217 383.953,936.117 382.753,936.317 C381.553,936.517 375.953,936.917 374.753,936.917 C373.553,936.917 373.453,938.317 373.453,938.317 L373.453,940.317 C373.453,940.317 373.653,941.417 374.753,941.517 C376.453,941.617 378.753,941.617 381.953,942.117 C386.353,942.717 388.653,945.717 388.653,952.717 C388.653,959.417 384.153,961.217 379.953,961.217 C377.153,961.217 374.553,960.417 373.453,959.617 C376.753,959.417 379.453,956.517 379.453,953.217 C379.453,949.617 376.653,946.717 373.053,946.717 C369.453,946.717 366.553,949.617 366.553,953.217 C366.553,953.217 366.053,957.717 370.453,961.817 C374.353,965.417 379.253,965.517 381.453,965.517 C391.053,965.517 401.453,962.217 401.453,951.317 C401.453,944.017 396.453,940.917 392.053,939.517"/>
<path class="TimeSig" d="M365.2,1002.62 L382,1002.62 L382,1009.92 L373.9,1009.92 C373.1,1009.92 372.5,1010.52 372.5,1011.32 L372.5,1013.22 C372.5,1014.02 373.1,1014.52 373.9,1014.52 L403.6,1014.52 C404.4,1014.52 405,1014.02 405,1013.22 L405,1011.32 C405,1010.52 404.4,1009.92 403.6,1009.92 L394.8,1009.92 L394.8,1002.62 L403.6,1002.62 C404.4,1002.62 405,1002.02 405,1001.22 L405,999.42 C405,998.62 404.4,998.02 403.6,998.02 L394.8,998.02 L394.8,982.32 C394.8,981.82 394.4,981.32 394,981.12 L392.9,980.52 C392.7,980.42 392.4,980.42 392.2,980.42 C391.9,980.42 391.5,980.52 391.3,980.72 L382.4,988.92 C382.2,989.12 382,989.62 382,989.92 L382,998.02 L370.7,998.02 C370.7,998.02 381.6,986.22 393.2,970.72 C394,969.62 393.6,968.62 393.4,968.42 L391.3,966.22 C391.1,966.02 390.6,965.82 390.3,965.82 L375.7,965.82 C375,965.82 374.5,966.42 374.4,967.02 C374.4,967.02 373.9,974.22 371.3,982.22 C368.7,990.22 365.9,995.02 363.3,998.62 C363.3,998.62 362.8,999.62 363.1,1000.32 C363.4,1001.02 364.1,1002.12 364.1,1002.12 C364.1,1002.12 364.4,1002.62 365.2,1002.62"/>
<path class="TimeSig" d="M392.053,677 L392.253,677 C400.253,673.9 400.753,668.7 400.753,666.9 L400.753,666.4 C400.753,665.5 400.453,654.2 383.253,654.2 C366.053,654.2 366.553,666.4 366.553,666.4 L366.653,666.4 L366.553,666.6 C366.553,670.2 369.453,673 373.053,673 C376.653,673 379.453,670.2 379.453,666.6 C379.453,663.7 377.253,660.9 374.453,660.3 L374.753,660 C376.153,659 378.053,658.5 379.953,658.5 C384.153,658.5 388.653,661 388.653,666.4 C388.653,672.7 383.953,673.6 382.753,673.8 C381.553,674 375.953,674.4 374.753,674.4 C373.553,674.4 373.453,675.8 373.453,675.8 L373.453,677.8 C373.453,677.8 373.653,678.9 374.753,679 C376.453,679.1 378.753,679.1 381.953,679.6 C386.353,680.2 388.653,683.2 388.653,690.2 C388.653,696.9 384.153,698.7 379.953,698.7 C377.153,698.7 374.553,697.9 373.453,697.1 C376.753,696.9 379.453,694 379.453,690.7 C379.453,687.1 376.653,684.2 373.053,684.2 C369.453,684.2 366.553,687.1 366.553,690.7 C366.553,690.7 366.053,695.2 370.453,699.3 C374.353,702.9 379.253,703 381.453,703 C391.053,703 401.453,699.7 401.453,688.8 C401.453,681.5 396.453,678.4 392.053,677"/>
<path class="TimeSig" d="M365.2,740.104 L382,740.104 L382,747.404 L373.9,747.404 C373.1,747.404 372.5,748.004 372.5,748.804 L372.5,750.704 C372.5,751.504 373.1,752.004 373.9,752.004 L403.6,752.004 C404.4,752.004 405,751.504 405,750.704 L405,748.804 C405,748.004 404.4,747.404 403.6,747.404 L394.8,747.404 L394.8,740.104 L403.6,740.104 C404.4,740.104 405,739.504 405,738.704 L405,736.904 C405,736.104 404.4,735.504 403.6,735.504 L394.8,735.504 L394.8,719.804 C394.8,719.304 394.4,718.804 394,718.604 L392.9,718.004 C392.7,717.904 392.4,717.904 392.2,717.904 C391.9,717.904 391.5,718.004 391.3,718.204 L382.4,726.404 C382.2,726.604 382,727.104 382,727.404 L382,735.504 L370.7,735.504 C370.7,735.504 381.6,723.704 393.2,708.204 C394,707.104 393.6,706.104 393.4,705.904 L391.3,703.704 C391.1,703.504 390.6,703.304 390.3,703.304 L375.7,703.304 C375,703.304 374.5,703.904 374.4,704.504 C374.4,704.504 373.9,711.704 371.3,719.704 C368.7,727.704 365.9,732.504 363.3,736.104 C363.3,736.104 362.8,737.104 363.1,737.804 C363.4,738.504 364.1,739.604 364.1,739.604 C364.1,739.604 364.4,740.104 365.2,740.104"/>
<path class="Page" d="M217.958,4039.47 C220.388,4040.06 221.603,4040.24 223.403,4040.24 C227.228,4040.24 230.018,4038.93 231.503,4036.41 C231.998,4035.6 232.178,4035.15 232.178,4034.79 C232.178,4034.52 232.088,4034.39 231.818,4034.39 C231.683,4034.39 231.503,4034.43 231.233,4034.57 C229.028,4035.51 227.858,4035.74 225.248,4035.74 C222.368,4035.74 220.568,4035.47 215.978,4034.39 C215.798,4038.17 215.393,4042.98 214.763,4048.56 C213.818,4049.55 213.503,4050.14 213.503,4050.86 C213.503,4051.8 214.088,4052.39 214.943,4052.39 C216.113,4052.39 216.788,4051.44 216.968,4049.64 C218.543,4048.52 220.028,4048.02 221.828,4048.02 C225.878,4048.02 228.263,4051.08 228.263,4056.26 C228.263,4059.27 227.498,4061.84 226.148,4063.23 C225.248,4064.18 223.403,4064.81 221.558,4064.81 C218.858,4064.81 216.068,4063.41 216.068,4062.02 C216.068,4061.7 216.338,4061.34 216.878,4061.03 C218.273,4060.17 218.678,4059.59 218.678,4058.37 C218.678,4056.8 217.463,4055.58 215.843,4055.58 C214.043,4055.58 212.603,4057.25 212.603,4059.36 C212.603,4061.61 213.908,4063.86 215.933,4065.26 C217.463,4066.25 219.263,4066.74 221.648,4066.74 C228.713,4066.74 233.168,4062.6 233.168,4055.99 C233.168,4049.87 229.118,4045.77 222.998,4045.77 C221.063,4045.77 219.668,4046.09 217.193,4047.12 L217.958,4039.47 M252.424,4048.52 C255.754,4046.72 257.374,4044.47 257.374,4041.54 C257.374,4037.4 253.639,4034.39 248.419,4034.39 C242.929,4034.39 238.924,4037.99 238.924,4042.98 C238.924,4044.92 239.644,4046.94 240.904,4048.34 C241.669,4049.24 242.389,4049.73 244.009,4050.59 C242.029,4051.35 241.174,4051.8 240.184,4052.61 C238.429,4054.05 237.439,4056.21 237.439,4058.51 C237.439,4060.98 238.654,4063.41 240.544,4064.81 C242.299,4066.07 244.729,4066.74 247.609,4066.74 C250.939,4066.74 253.729,4065.84 255.619,4064.22 C257.509,4062.51 258.679,4059.77 258.679,4057.02 C258.679,4054.46 257.689,4052.16 255.844,4050.54 C254.944,4049.73 254.134,4049.28 252.424,4048.52 M247.609,4046.72 C243.964,4045.41 242.389,4043.7 242.389,4041.09 C242.389,4038.21 244.729,4036.32 248.284,4036.32 C251.749,4036.32 254.044,4038.53 254.044,4041.81 C254.044,4044.15 253.144,4045.68 250.579,4047.84 L247.609,4046.72 M250.219,4052.97 C253.639,4054.19 255.079,4055.94 255.079,4058.91 C255.079,4062.51 252.244,4064.81 247.834,4064.81 C243.604,4064.81 241.174,4062.51 241.174,4058.51 C241.174,4055.13 242.569,4053.11 246.079,4051.49 L250.219,4052.97 "/>
<path class="Bracket" transform="matrix(3.62523,0,0,3.62523,214.469,1015.62)" d="M0.92002,-50 C2.69004,-51.88 6.2,-55.8 6.2,-63 C6.2,-72.1 2.25996,-81.32 2.25996,-86.97 C2.25996,-93.06 5.84004,-98.84 5.95,-99 C6.05996,-99.16 6.05,-99.39 5.94004,-99.46 C5.82998,-99.53 5.62002,-99.47 5.49004,-99.32 C5.35996,-99.17 0,-93.75 0,-85.6 C0,-76.75 3.5,-70.58 3.5,-59.07 C3.5,-56.89 2.55996,-53.36 0.1,-50.33 C-0.0799805,-50.17 -0.1,-49.89 0.0599609,-49.7 L0.0700195,-49.69 L0.1,-49.66 C2.55996,-46.63 3.5,-43.1 3.5,-40.92 C3.5,-29.4 0,-23.24 0,-14.39 C0,-6.25 5.35996,-0.8 5.49004,-0.659961 C5.62002,-0.52002 5.8,-0.42998 5.94004,-0.52002 C6.07998,-0.609961 6.07998,-0.77998 5.95,-0.97998 C5.82002,-1.17998 2.25996,-6.92002 2.25996,-13.01 C2.25996,-18.66 6.2,-27.9 6.2,-37 C6.2,-44.3 2.69004,-48.12 0.92002,-50"/>
<path class="Bracket" transform="matrix(3.62523,0,0,3.62523,214.469,1628.16)" d="M0.92002,-50 C2.69004,-51.88 6.2,-55.8 6.2,-63 C6.2,-72.1 2.25996,-81.32 2.25996,-86.97 C2.25996,-93.06 5.84004,-98.84 5.95,-99 C6.05996,-99.16 6.05,-99.39 5.94004,-99.46 C5.82998,-99.53 5.62002,-99.47 5.49004,-99.32 C5.35996,-99.17 0,-93.75 0,-85.6 C0,-76.75 3.5,-70.58 3.5,-59.07 C3.5,-56.89 2.55996,-53.36 0.1,-50.33 C-0.0799805,-50.17 -0.1,-49.89 0.0599609,-49.7 L0.0700195,-49.69 L0.1,-49.66 C2.55996,-46.63 3.5,-43.1 3.5,-40.92 C3.5,-29.4 0,-23.24 0,-14.39 C0,-6.25 5.35996,-0.8 5.49004,-0.659961 C5.62002,-0.52002 5.8,-0.42998 5.94004,-0.52002 C6.07998,-0.609961 6.07998,-0.77998 5.95,-0.97998 C5.82002,-1.17998 2.25996,-6.92002 2.25996,-13.01 C2.25996,-18.66 6.2,-27.9 6.2,-37 C6.2,-44.3 2.69004,-48.12 0.92002,-50"/>
</svg>