<?xml version="1.0" encoding="UTF-8" standalone="no"?>
<svg width="1000px" height="500px" viewBox="150 650 2700 1000" xmlns="http://www.w3.org/2000/svg" xmlns:xlink="http://www.w3.org/1999/xlink" version="1.2" baseProfile="tiny">
 xmlns="http://www.w3.org/2000/svg" xmlns:xlink="http://www.w3.org/1999/xlink" version="1.2" baseProfile="tiny">
<title>exercises_scores (65)</title>
<desc>Generated by MuseScore 3.6.0</desc>
<polyline class="StaffLines" fill="none" stroke="#000000" stroke-width="2.75" stroke-linejoin="bevel" points="247.099,653.098 2764.63,653.098"/>
<polyline class="StaffLines" fill="none" stroke="#000000" stroke-width="2.75" stroke-linejoin="bevel" points="247.099,678.1 2764.63,678.1"/>
<polyline class="StaffLines" fill="none" stroke="#000000" stroke-width="2.75" stroke-linejoin="bevel" points="247.099,703.102 2764.63,703.102"/>
<polyline class="StaffLines" fill="none" stroke="#000000" stroke-width="2.75" stroke-linejoin="bevel" points="247.099,728.103 2764.63,728.103"/>
<polyline class="StaffLines" fill="none" stroke="#000000" stroke-width="2.75" stroke-linejoin="bevel" points="247.099,753.105 2764.63,753.105"/>
<polyline class="StaffLines" fill="none" stroke="#000000" stroke-width="2.75" stroke-linejoin="bevel" points="247.099,915.615 2764.63,915.615"/>
<polyline class="StaffLines" fill="none" stroke="#000000" stroke-width="2.75" stroke-linejoin="bevel" points="247.099,940.617 2764.63,940.617"/>
<polyline class="StaffLines" fill="none" stroke="#000000" stroke-width="2.75" stroke-linejoin="bevel" points="247.099,965.618 2764.63,965.618"/>
<polyline class="StaffLines" fill="none" stroke="#000000" stroke-width="2.75" stroke-linejoin="bevel" points="247.099,990.62 2764.63,990.62"/>
<polyline class="StaffLines" fill="none" stroke="#000000" stroke-width="2.75" stroke-linejoin="bevel" points="247.099,1015.62 2764.63,1015.62"/>
<polyline class="StaffLines" fill="none" stroke="#000000" stroke-width="2.75" stroke-linejoin="bevel" points="247.099,1265.64 2764.63,1265.64"/>
<polyline class="StaffLines" fill="none" stroke="#000000" stroke-width="2.75" stroke-linejoin="bevel" points="247.099,1290.64 2764.63,1290.64"/>
<polyline class="StaffLines" fill="none" stroke="#000000" stroke-width="2.75" stroke-linejoin="bevel" points="247.099,1315.64 2764.63,1315.64"/>
<polyline class="StaffLines" fill="none" stroke="#000000" stroke-width="2.75" stroke-linejoin="bevel" points="247.099,1340.64 2764.63,1340.64"/>
<polyline class="StaffLines" fill="none" stroke="#000000" stroke-width="2.75" stroke-linejoin="bevel" points="247.099,1365.64 2764.63,1365.64"/>
<polyline class="StaffLines" fill="none" stroke="#000000" stroke-width="2.75" stroke-linejoin="bevel" points="247.099,1528.15 2764.63,1528.15"/>
<polyline class="StaffLines" fill="none" stroke="#000000" stroke-width="2.75" stroke-linejoin="bevel" points="247.099,1553.16 2764.63,1553.16"/>
<polyline class="StaffLines" fill="none" stroke="#000000" stroke-width="2.75" stroke-linejoin="bevel" points="247.099,1578.16 2764.63,1578.16"/>
<polyline class="StaffLines" fill="none" stroke="#000000" stroke-width="2.75" stroke-linejoin="bevel" points="247.099,1603.16 2764.63,1603.16"/>
<polyline class="StaffLines" fill="none" stroke="#000000" stroke-width="2.75" stroke-linejoin="bevel" points="247.099,1628.16 2764.63,1628.16"/>
<path class="Text" d="M212.602,213.497 L212.602,216.317 L213.682,216.317 C217.102,216.377 218.242,216.557 218.722,217.157 C219.082,217.697 219.082,217.817 219.082,220.877 L219.082,249.437 C219.082,252.497 219.082,252.617 218.722,253.157 C218.242,253.757 217.102,253.997 213.682,253.997 L212.602,253.997 L212.602,256.817 L234.382,256.817 C244.762,256.817 251.002,252.437 251.002,245.057 C251.002,239.057 247.222,235.637 239.002,234.197 C241.882,233.597 243.202,233.057 244.762,231.917 C247.222,230.057 248.722,227.117 248.722,224.117 C248.722,220.217 246.322,216.437 242.842,214.937 C240.682,213.977 237.682,213.497 234.142,213.497 L212.602,213.497 M225.802,232.997 L225.802,219.317 C225.802,216.977 226.582,216.377 229.762,216.317 L232.162,216.317 C234.922,216.317 237.202,216.797 238.462,217.577 C240.622,218.897 241.762,221.417 241.762,224.777 C241.762,230.717 238.882,232.997 231.142,232.997 L225.802,232.997 M225.802,235.817 L231.082,235.817 C240.262,235.817 243.622,238.277 243.622,244.877 C243.622,248.717 242.302,251.477 239.962,252.617 C238.102,253.577 235.582,253.997 231.802,253.997 L229.282,253.997 C226.282,253.997 225.682,253.397 225.802,250.217 L225.802,235.817 M265.994,228.857 L255.374,229.517 L255.374,232.097 L257.834,232.097 C260.114,232.157 260.414,232.517 260.414,235.097 L260.414,249.437 L260.414,252.257 C260.354,253.157 260.294,253.517 260.054,253.817 C259.634,254.357 258.434,254.597 255.854,254.657 L255.614,254.657 L255.614,256.817 L271.634,256.817 L271.634,254.657 L270.554,254.657 C266.534,254.537 265.994,254.237 265.994,252.077 L265.994,249.437 L265.994,248.837 C266.054,238.757 269.654,231.077 274.334,230.837 C273.494,231.797 273.254,232.397 273.254,233.537 C273.254,235.457 274.634,236.837 276.554,236.837 C278.774,236.837 280.214,235.217 280.214,232.817 C280.214,229.877 278.174,227.957 274.994,227.957 C271.214,227.957 267.974,230.957 265.994,236.297 L265.994,228.857 M295.562,227.957 C288.182,227.957 282.482,234.497 282.482,242.897 C282.482,251.117 288.242,257.717 295.442,257.717 C302.642,257.717 308.402,251.117 308.402,242.837 C308.402,234.617 302.642,227.957 295.562,227.957 M295.562,230.537 C299.762,230.537 302.102,234.917 302.102,242.837 C302.102,250.817 299.762,255.137 295.442,255.137 C291.122,255.137 288.782,250.817 288.782,242.897 C288.782,234.737 291.062,230.537 295.562,230.537 M322.382,242.297 L322.382,212.597 L311.282,213.257 L311.282,215.837 L314.162,215.837 C316.442,215.897 316.742,216.257 316.742,218.837 L316.742,249.437 L316.742,252.317 C316.682,253.157 316.622,253.517 316.382,253.817 C315.962,254.357 314.822,254.597 312.242,254.657 L312.002,254.657 L312.002,256.817 L327.182,256.817 L327.182,254.657 L326.942,254.657 C322.922,254.537 322.382,254.237 322.382,252.077 L322.382,249.437 L322.382,246.017 L326.042,242.537 L333.182,252.557 C333.482,253.037 333.602,253.337 333.602,253.577 C333.602,254.417 332.942,254.657 330.962,254.657 L329.822,254.657 L329.822,256.817 L345.662,256.817 L345.662,254.657 C342.302,254.357 341.102,253.637 338.642,250.517 L330.122,238.877 L332.822,236.237 C336.362,232.817 338.882,231.497 342.962,231.017 L342.962,228.857 L327.182,228.857 L327.182,231.017 L329.042,231.017 C330.962,231.017 331.862,231.377 331.862,232.157 C331.862,232.817 331.442,233.537 330.482,234.497 L322.382,242.297 M372.842,243.317 C372.902,234.317 367.802,227.957 360.482,227.957 C352.802,227.957 347.042,234.617 347.042,243.617 C347.042,252.077 352.502,257.717 360.602,257.717 C366.362,257.717 370.382,254.897 372.842,249.197 L370.742,248.057 C368.282,252.677 365.762,254.477 361.742,254.477 C358.682,254.477 356.462,253.217 354.902,250.517 C353.822,248.717 353.342,246.617 353.402,243.317 L372.842,243.317 M353.462,240.737 C353.462,238.877 353.702,237.557 354.302,235.877 C355.562,232.277 357.482,230.537 360.422,230.537 C364.022,230.537 366.422,233.717 366.422,238.577 C366.422,240.257 365.882,240.737 363.962,240.737 L353.462,240.737 M386.942,228.857 L376.562,229.517 L376.562,232.097 L378.722,232.097 C381.002,232.157 381.302,232.517 381.302,235.097 L381.302,249.437 L381.302,250.877 L381.302,252.257 C381.242,253.157 381.182,253.517 380.942,253.817 C380.522,254.357 379.382,254.597 376.802,254.657 L376.562,254.657 L376.562,256.817 L391.742,256.817 L391.742,254.657 L391.502,254.657 C387.482,254.537 386.942,254.237 386.942,252.077 L386.942,249.437 L386.942,243.197 C386.942,240.257 387.362,237.557 388.022,236.177 C389.282,233.477 391.982,231.617 394.562,231.617 C396.122,231.617 397.922,232.457 398.822,233.717 C399.722,235.037 400.142,236.837 400.142,239.717 L400.142,249.437 L400.142,252.257 C400.082,253.157 400.022,253.517 399.782,253.817 C399.362,254.357 398.162,254.597 395.582,254.657 L395.342,254.657 L395.342,256.817 L410.522,256.817 L410.522,254.657 L410.282,254.657 C406.322,254.537 405.782,254.237 405.782,252.077 L405.782,249.437 L405.782,240.017 C405.782,235.697 405.602,234.617 404.522,232.577 C403.022,229.697 400.022,227.957 396.422,227.957 C392.522,227.957 389.582,229.757 386.942,233.717 L386.942,228.857 M466.61,213.077 L464.33,213.077 L461.93,216.617 C457.55,213.437 455.33,212.597 451.19,212.597 C445.49,212.597 440.63,214.997 436.61,219.797 C432.77,224.357 430.97,229.397 430.97,235.577 C430.97,248.537 439.43,257.717 451.25,257.717 C460.85,257.717 466.97,252.077 468.35,241.997 L465.53,241.517 C463.91,250.457 459.35,254.897 451.97,254.897 C443.09,254.897 438.89,248.777 438.89,235.817 C438.89,228.977 439.79,224.477 441.83,220.877 C443.69,217.517 447.35,215.417 451.25,215.417 C455.45,215.417 459.17,217.637 461.45,221.477 C462.59,223.457 463.43,225.677 464.87,230.417 L467.51,230.417 L466.61,213.077 M483.583,212.597 L472.483,213.257 L472.483,215.837 L475.363,215.837 C477.643,215.897 477.943,216.257 477.943,218.837 L477.943,249.437 L477.943,250.877 L477.943,252.317 C477.883,253.157 477.823,253.517 477.583,253.817 C477.163,254.357 476.023,254.597 473.443,254.657 L473.203,254.657 L473.203,256.817 L488.383,256.817 L488.383,254.657 L488.143,254.657 C484.123,254.537 483.583,254.237 483.583,252.077 L483.583,249.437 L483.583,243.197 C483.583,240.257 484.003,237.557 484.663,236.177 C485.983,233.477 488.623,231.617 491.203,231.617 C492.763,231.617 494.563,232.517 495.403,233.717 C496.363,235.037 496.783,236.837 496.783,239.777 L496.783,249.437 L496.783,252.317 C496.723,253.157 496.663,253.517 496.423,253.817 C496.003,254.357 494.803,254.597 492.223,254.657 L491.983,254.657 L491.983,256.817 L507.163,256.817 L507.163,254.657 L506.923,254.657 C502.963,254.537 502.423,254.237 502.423,252.077 L502.423,249.437 L502.423,240.017 C502.423,235.697 502.243,234.617 501.163,232.577 C499.663,229.637 496.663,227.957 493.063,227.957 C489.163,227.957 486.283,229.697 483.583,233.717 L483.583,212.597 M523.359,227.957 C515.979,227.957 510.279,234.497 510.279,242.897 C510.279,251.117 516.039,257.717 523.239,257.717 C530.439,257.717 536.199,251.117 536.199,242.837 C536.199,234.617 530.439,227.957 523.359,227.957 M523.359,230.537 C527.559,230.537 529.899,234.917 529.899,242.837 C529.899,250.817 527.559,255.137 523.239,255.137 C518.919,255.137 516.579,250.817 516.579,242.897 C516.579,234.737 518.859,230.537 523.359,230.537 M550.119,228.857 L539.499,229.517 L539.499,232.097 L541.959,232.097 C544.239,232.157 544.539,232.517 544.539,235.097 L544.539,249.437 L544.539,252.257 C544.479,253.157 544.419,253.517 544.179,253.817 C543.759,254.357 542.559,254.597 539.979,254.657 L539.739,254.657 L539.739,256.817 L555.759,256.817 L555.759,254.657 L554.679,254.657 C550.659,254.537 550.119,254.237 550.119,252.077 L550.119,249.437 L550.119,248.837 C550.179,238.757 553.779,231.077 558.459,230.837 C557.619,231.797 557.379,232.397 557.379,233.537 C557.379,235.457 558.759,236.837 560.679,236.837 C562.899,236.837 564.339,235.217 564.339,232.817 C564.339,229.877 562.299,227.957 559.119,227.957 C555.339,227.957 552.099,230.957 550.119,236.297 L550.119,228.857 M587.18,257.237 L597.62,256.817 L597.62,254.237 L596.54,254.237 C593.12,254.057 592.82,253.697 592.82,249.857 L592.82,212.597 L581.06,213.257 L581.06,215.837 L584.6,215.837 C586.88,215.897 587.18,216.257 587.18,218.837 L587.18,232.397 C584.96,229.337 582.38,227.957 578.9,227.957 C572.12,227.957 566.96,234.497 566.96,243.137 C566.96,251.657 571.94,257.717 578.9,257.717 C582.68,257.717 585.26,256.097 587.18,252.497 L587.18,257.237 M580.1,231.197 C582.56,231.197 584.9,232.997 585.98,235.757 C586.76,237.557 587.12,240.017 587.12,242.957 C587.12,249.977 584.36,254.477 580.04,254.477 C575.78,254.477 573.26,250.517 573.26,243.857 C573.26,240.257 573.62,237.557 574.4,235.577 C575.42,232.877 577.64,231.197 580.1,231.197 M607.757,250.157 C605.657,250.157 603.977,251.837 603.977,253.877 C603.977,255.977 605.657,257.657 607.697,257.657 C609.797,257.657 611.477,255.977 611.477,253.877 C611.477,251.837 609.797,250.157 607.757,250.157 M607.757,228.437 C605.657,228.437 603.977,230.117 603.977,232.217 C603.977,234.257 605.657,235.937 607.697,235.937 C609.797,235.937 611.477,234.257 611.477,232.157 C611.477,230.117 609.797,228.437 607.757,228.437 M633.961,213.497 L633.961,216.317 L635.041,216.317 C638.461,216.377 639.601,216.557 640.081,217.157 C640.441,217.697 640.441,217.817 640.441,220.877 L640.441,249.437 C640.441,252.497 640.441,252.617 640.081,253.157 C639.601,253.757 638.461,253.997 635.041,253.997 L633.961,253.997 L633.961,256.817 L655.741,256.817 C666.121,256.817 672.361,252.437 672.361,245.057 C672.361,239.057 668.581,235.637 660.361,234.197 C663.241,233.597 664.561,233.057 666.121,231.917 C668.581,230.057 670.081,227.117 670.081,224.117 C670.081,220.217 667.681,216.437 664.201,214.937 C662.041,213.977 659.041,213.497 655.501,213.497 L633.961,213.497 M647.161,232.997 L647.161,219.317 C647.161,216.977 647.941,216.377 651.121,216.317 L653.521,216.317 C656.281,216.317 658.561,216.797 659.821,217.577 C661.981,218.897 663.121,221.417 663.121,224.777 C663.121,230.717 660.241,232.997 652.501,232.997 L647.161,232.997 M647.161,235.817 L652.441,235.817 C661.621,235.817 664.981,238.277 664.981,244.877 C664.981,248.717 663.661,251.477 661.321,252.617 C659.461,253.577 656.941,253.997 653.161,253.997 L650.641,253.997 C647.641,253.997 647.041,253.397 647.161,250.217 L647.161,235.817 M704.205,228.857 L693.525,229.517 L693.525,232.097 L695.985,232.097 C698.265,232.157 698.565,232.517 698.565,235.097 L698.565,249.437 L698.565,251.777 L698.565,252.257 C698.505,253.157 698.445,253.517 698.205,253.817 C697.785,254.357 696.645,254.597 694.065,254.657 L693.825,254.657 L693.825,256.817 L708.945,256.817 L708.945,254.657 L708.705,254.657 C704.745,254.537 704.205,254.237 704.205,252.017 L704.205,249.437 L704.205,240.917 C704.205,235.577 707.145,231.617 711.045,231.617 C714.465,231.617 716.205,234.077 716.205,238.937 L716.205,249.437 L716.205,252.317 C716.145,253.097 716.085,253.517 715.785,253.817 C715.425,254.357 714.225,254.597 711.645,254.657 L711.405,254.657 L711.405,256.817 L726.585,256.817 L726.585,254.657 L726.345,254.657 C722.385,254.537 721.845,254.237 721.845,252.077 L721.845,249.437 L721.845,241.457 C721.845,235.457 724.545,231.617 728.745,231.617 C732.165,231.617 733.845,234.197 733.845,239.597 L733.845,249.437 L733.845,252.257 C733.785,253.097 733.725,253.517 733.425,253.817 C733.065,254.357 731.865,254.597 729.285,254.657 L729.045,254.657 L729.045,256.817 L744.225,256.817 L744.225,254.657 L743.985,254.657 C740.025,254.537 739.485,254.237 739.485,252.017 L739.485,249.437 L739.485,238.397 C739.485,234.677 739.125,233.417 737.565,231.377 C735.825,229.157 733.365,227.957 730.485,227.957 C726.585,227.957 723.705,229.817 721.125,233.957 C720.105,230.357 716.865,227.957 712.845,227.957 C709.185,227.957 706.545,229.697 704.205,233.477 L704.205,228.857 M757.833,228.857 L746.553,229.517 L746.553,232.097 L749.613,232.097 C751.893,232.157 752.193,232.517 752.193,235.097 L752.193,249.437 L752.193,252.257 C752.133,253.157 752.073,253.517 751.833,253.817 C751.413,254.357 750.273,254.597 747.693,254.657 L747.273,254.657 L747.273,256.817 L762.813,256.817 L762.813,254.657 L762.393,254.657 C758.373,254.537 757.833,254.237 757.833,252.077 L757.833,249.437 L757.833,228.857 M755.013,213.917 C753.093,213.917 751.533,215.477 751.533,217.397 C751.533,219.317 753.093,220.877 754.953,220.877 C756.933,220.877 758.493,219.317 758.493,217.397 C758.493,215.477 756.933,213.917 755.013,213.917 M776.364,228.857 L765.984,229.517 L765.984,232.097 L768.144,232.097 C770.424,232.157 770.724,232.517 770.724,235.097 L770.724,249.437 L770.724,250.877 L770.724,252.257 C770.664,253.157 770.604,253.517 770.364,253.817 C769.944,254.357 768.804,254.597 766.224,254.657 L765.984,254.657 L765.984,256.817 L781.164,256.817 L781.164,254.657 L780.924,254.657 C776.904,254.537 776.364,254.237 776.364,252.077 L776.364,249.437 L776.364,243.197 C776.364,240.257 776.784,237.557 777.444,236.177 C778.704,233.477 781.404,231.617 783.984,231.617 C785.544,231.617 787.344,232.457 788.244,233.717 C789.144,235.037 789.564,236.837 789.564,239.717 L789.564,249.437 L789.564,252.257 C789.504,253.157 789.444,253.517 789.204,253.817 C788.784,254.357 787.584,254.597 785.004,254.657 L784.764,254.657 L784.764,256.817 L799.944,256.817 L799.944,254.657 L799.704,254.657 C795.744,254.537 795.204,254.237 795.204,252.077 L795.204,249.437 L795.204,240.017 C795.204,235.697 795.024,234.617 793.944,232.577 C792.444,229.697 789.444,227.957 785.844,227.957 C781.944,227.957 779.004,229.757 776.364,233.717 L776.364,228.857 M816.14,227.957 C808.76,227.957 803.06,234.497 803.06,242.897 C803.06,251.117 808.82,257.717 816.02,257.717 C823.22,257.717 828.98,251.117 828.98,242.837 C828.98,234.617 823.22,227.957 816.14,227.957 M816.14,230.537 C820.34,230.537 822.68,234.917 822.68,242.837 C822.68,250.817 820.34,255.137 816.02,255.137 C811.7,255.137 809.36,250.817 809.36,242.897 C809.36,234.737 811.64,230.537 816.14,230.537 M842.9,228.857 L832.28,229.517 L832.28,232.097 L834.74,232.097 C837.02,232.157 837.32,232.517 837.32,235.097 L837.32,249.437 L837.32,252.257 C837.26,253.157 837.2,253.517 836.96,253.817 C836.54,254.357 835.34,254.597 832.76,254.657 L832.52,254.657 L832.52,256.817 L848.54,256.817 L848.54,254.657 L847.46,254.657 C843.44,254.537 842.9,254.237 842.9,252.077 L842.9,249.437 L842.9,248.837 C842.96,238.757 846.56,231.077 851.24,230.837 C850.4,231.797 850.16,232.397 850.16,233.537 C850.16,235.457 851.54,236.837 853.46,236.837 C855.68,236.837 857.12,235.217 857.12,232.817 C857.12,229.877 855.08,227.957 851.9,227.957 C848.12,227.957 844.88,230.957 842.9,236.297 L842.9,228.857 "/>
<path class="TieSegment" stroke="#000000" stroke-width="1.75" stroke-linecap="round" stroke-linejoin="round" fill-rule="evenodd" d="M2594.18,896.864 C2628.27,867.455 2730.54,867.455 2764.63,896.864 C2730.54,874.456 2628.27,874.456 2594.18,896.864"/>
<path class="TieSegment" stroke="#000000" stroke-width="1.75" stroke-linecap="round" stroke-linejoin="round" fill-rule="evenodd" d="M335.596,1509.4 C352.122,1493.34 401.698,1493.34 418.224,1509.4 C401.698,1500.34 352.122,1500.34 335.596,1509.4"/>
<path class="TieSegment" stroke="#000000" stroke-width="1.75" stroke-linecap="round" stroke-linejoin="round" fill-rule="evenodd" d="M2594.18,546.842 C2628.27,517.433 2730.54,517.433 2764.63,546.842 C2730.54,524.434 2628.27,524.434 2594.18,546.842"/>
<path class="TieSegment" stroke="#000000" stroke-width="1.75" stroke-linecap="round" stroke-linejoin="round" fill-rule="evenodd" d="M335.596,1159.38 C352.122,1143.32 401.698,1143.32 418.224,1159.38 C401.698,1150.32 352.122,1150.32 335.596,1159.38"/>
<polyline class="BarLine" stroke="#000000" stroke-width="4.50" stroke-linejoin="bevel" points="249.349,914.24 249.349,1017"/>
<polyline class="BarLine" stroke="#000000" stroke-width="4.50" stroke-linejoin="bevel" points="1020.91,914.24 1020.91,1017"/>
<polyline class="BarLine" stroke="#000000" stroke-width="4.50" stroke-linejoin="bevel" points="1588.93,914.24 1588.93,1017"/>
<polyline class="BarLine" stroke="#000000" stroke-width="4.50" stroke-linejoin="bevel" points="2155.41,914.24 2155.41,1017"/>
<polyline class="BarLine" stroke="#000000" stroke-width="4.50" stroke-linejoin="bevel" points="2762.38,914.24 2762.38,1017"/>
<polyline class="BarLine" stroke="#000000" stroke-width="4.50" stroke-linejoin="bevel" points="249.349,1526.78 249.349,1629.54"/>
<polyline class="BarLine" stroke="#000000" stroke-width="4.50" stroke-linejoin="bevel" points="943.086,1526.78 943.086,1629.54"/>
<polyline class="BarLine" stroke="#000000" stroke-width="4.50" stroke-linejoin="bevel" points="1548.01,1526.78 1548.01,1629.54"/>
<polyline class="BarLine" stroke="#000000" stroke-width="4.50" stroke-linejoin="bevel" points="2145.31,1526.78 2145.31,1629.54"/>
<polyline class="BarLine" stroke="#000000" stroke-width="4.50" stroke-linejoin="bevel" points="2734.88,1526.78 2734.88,1629.54"/>
<polyline class="BarLine" stroke="#000000" stroke-width="13.75" stroke-linejoin="bevel" points="2757.76,1526.78 2757.76,1629.54"/>
<polyline class="BarLine" stroke="#000000" stroke-width="4.50" stroke-linejoin="bevel" points="249.349,651.723 249.349,915.615"/>
<polyline class="BarLine" stroke="#000000" stroke-width="4.50" stroke-linejoin="bevel" points="1020.91,651.723 1020.91,915.615"/>
<polyline class="BarLine" stroke="#000000" stroke-width="4.50" stroke-linejoin="bevel" points="1588.93,651.723 1588.93,915.615"/>
<polyline class="BarLine" stroke="#000000" stroke-width="4.50" stroke-linejoin="bevel" points="2155.41,651.723 2155.41,915.615"/>
<polyline class="BarLine" stroke="#000000" stroke-width="4.50" stroke-linejoin="bevel" points="2762.38,651.723 2762.38,915.615"/>
<polyline class="BarLine" stroke="#000000" stroke-width="4.50" stroke-linejoin="bevel" points="249.349,1264.26 249.349,1528.15"/>
<polyline class="BarLine" stroke="#000000" stroke-width="4.50" stroke-linejoin="bevel" points="943.086,1264.26 943.086,1528.15"/>
<polyline class="BarLine" stroke="#000000" stroke-width="4.50" stroke-linejoin="bevel" points="1548.01,1264.26 1548.01,1528.15"/>
<polyline class="BarLine" stroke="#000000" stroke-width="4.50" stroke-linejoin="bevel" points="2145.31,1264.26 2145.31,1528.15"/>
<polyline class="BarLine" stroke="#000000" stroke-width="4.50" stroke-linejoin="bevel" points="2734.88,1264.26 2734.88,1528.15"/>
<polyline class="BarLine" stroke="#000000" stroke-width="13.75" stroke-linejoin="bevel" points="2757.76,1264.26 2757.76,1528.15"/>
<path class="Accidental" d="M806.336,842.511 C806.936,842.411 807.436,841.711 807.436,841.111 L807.436,835.211 C807.436,834.411 806.836,833.811 806.036,833.811 L805.836,833.811 L802.536,834.511 L802.536,819.611 L799.736,819.611 L799.736,835.111 L790.836,836.911 L790.836,822.811 L788.036,822.811 L788.036,837.511 L784.136,838.311 C783.536,838.411 783.036,839.111 783.036,839.711 L783.036,839.911 L783.036,845.711 L783.036,845.511 C783.036,846.311 783.636,846.911 784.436,846.911 L784.736,846.911 L788.036,846.211 L788.036,862.711 L784.136,863.511 C783.536,863.611 783.036,864.311 783.036,864.911 L783.036,870.711 C783.036,871.511 783.636,872.111 784.436,872.111 L784.736,872.111 L788.036,871.411 L788.036,886.311 L790.836,886.311 L790.836,870.811 L799.736,869.011 L799.736,883.111 L802.536,883.111 L802.536,868.411 L806.336,867.711 C806.936,867.611 807.436,866.911 807.436,866.311 L807.436,860.411 C807.436,859.611 806.836,859.011 806.036,859.011 L805.836,859.011 L802.536,859.711 L802.536,843.211 L806.336,842.511 M790.836,862.211 L790.836,845.611 L799.736,843.811 L799.736,860.311 L790.836,862.211 "/>
<path class="Accidental" d="M1225.32,992.521 C1225.92,992.421 1226.42,991.721 1226.42,991.121 L1226.42,985.221 C1226.42,984.421 1225.82,983.821 1225.02,983.821 L1224.82,983.821 L1221.52,984.521 L1221.52,969.621 L1218.72,969.621 L1218.72,985.121 L1209.82,986.921 L1209.82,972.821 L1207.02,972.821 L1207.02,987.521 L1203.12,988.321 C1202.52,988.421 1202.02,989.121 1202.02,989.721 L1202.02,989.921 L1202.02,995.721 L1202.02,995.521 C1202.02,996.321 1202.62,996.921 1203.42,996.921 L1203.72,996.921 L1207.02,996.221 L1207.02,1012.72 L1203.12,1013.52 C1202.52,1013.62 1202.02,1014.32 1202.02,1014.92 L1202.02,1020.72 C1202.02,1021.52 1202.62,1022.12 1203.42,1022.12 L1203.72,1022.12 L1207.02,1021.42 L1207.02,1036.32 L1209.82,1036.32 L1209.82,1020.82 L1218.72,1019.02 L1218.72,1033.12 L1221.52,1033.12 L1221.52,1018.42 L1225.32,1017.72 C1225.92,1017.62 1226.42,1016.92 1226.42,1016.32 L1226.42,1010.42 C1226.42,1009.62 1225.82,1009.02 1225.02,1009.02 L1224.82,1009.02 L1221.52,1009.72 L1221.52,993.221 L1225.32,992.521 M1209.82,1012.22 L1209.82,995.621 L1218.72,993.821 L1218.72,1010.32 L1209.82,1012.22 "/>
<path class="Accidental" d="M1636.23,992.521 C1636.83,992.421 1637.33,991.721 1637.33,991.121 L1637.33,985.221 C1637.33,984.421 1636.73,983.821 1635.93,983.821 L1635.73,983.821 L1632.43,984.521 L1632.43,969.621 L1629.63,969.621 L1629.63,985.121 L1620.73,986.921 L1620.73,972.821 L1617.93,972.821 L1617.93,987.521 L1614.03,988.321 C1613.43,988.421 1612.93,989.121 1612.93,989.721 L1612.93,989.921 L1612.93,995.721 L1612.93,995.521 C1612.93,996.321 1613.53,996.921 1614.33,996.921 L1614.63,996.921 L1617.93,996.221 L1617.93,1012.72 L1614.03,1013.52 C1613.43,1013.62 1612.93,1014.32 1612.93,1014.92 L1612.93,1020.72 C1612.93,1021.52 1613.53,1022.12 1614.33,1022.12 L1614.63,1022.12 L1617.93,1021.42 L1617.93,1036.32 L1620.73,1036.32 L1620.73,1020.82 L1629.63,1019.02 L1629.63,1033.12 L1632.43,1033.12 L1632.43,1018.42 L1636.23,1017.72 C1636.83,1017.62 1637.33,1016.92 1637.33,1016.32 L1637.33,1010.42 C1637.33,1009.62 1636.73,1009.02 1635.93,1009.02 L1635.73,1009.02 L1632.43,1009.72 L1632.43,993.221 L1636.23,992.521 M1620.73,1012.22 L1620.73,995.621 L1629.63,993.821 L1629.63,1010.32 L1620.73,1012.22 "/>
<path class="Accidental" d="M2565.71,905.015 C2566.31,904.915 2566.81,904.215 2566.81,903.615 L2566.81,897.715 C2566.81,896.915 2566.21,896.315 2565.41,896.315 L2565.21,896.315 L2561.91,897.015 L2561.91,882.115 L2559.11,882.115 L2559.11,897.615 L2550.21,899.415 L2550.21,885.315 L2547.41,885.315 L2547.41,900.015 L2543.51,900.815 C2542.91,900.915 2542.41,901.615 2542.41,902.215 L2542.41,902.415 L2542.41,908.215 L2542.41,908.015 C2542.41,908.815 2543.01,909.415 2543.81,909.415 L2544.11,909.415 L2547.41,908.715 L2547.41,925.215 L2543.51,926.015 C2542.91,926.115 2542.41,926.815 2542.41,927.415 L2542.41,933.215 C2542.41,934.015 2543.01,934.615 2543.81,934.615 L2544.11,934.615 L2547.41,933.915 L2547.41,948.815 L2550.21,948.815 L2550.21,933.315 L2559.11,931.515 L2559.11,945.615 L2561.91,945.615 L2561.91,930.915 L2565.71,930.215 C2566.31,930.115 2566.81,929.415 2566.81,928.815 L2566.81,922.915 C2566.81,922.115 2566.21,921.515 2565.41,921.515 L2565.21,921.515 L2561.91,922.215 L2561.91,905.715 L2565.71,905.015 M2550.21,924.715 L2550.21,908.115 L2559.11,906.315 L2559.11,922.815 L2550.21,924.715 "/>
<path class="Accidental" d="M1352.02,1605.06 C1352.62,1604.96 1353.12,1604.26 1353.12,1603.66 L1353.12,1597.76 C1353.12,1596.96 1352.52,1596.36 1351.72,1596.36 L1351.52,1596.36 L1348.22,1597.06 L1348.22,1582.16 L1345.42,1582.16 L1345.42,1597.66 L1336.52,1599.46 L1336.52,1585.36 L1333.72,1585.36 L1333.72,1600.06 L1329.82,1600.86 C1329.22,1600.96 1328.72,1601.66 1328.72,1602.26 L1328.72,1602.46 L1328.72,1608.26 L1328.72,1608.06 C1328.72,1608.86 1329.32,1609.46 1330.12,1609.46 L1330.42,1609.46 L1333.72,1608.76 L1333.72,1625.26 L1329.82,1626.06 C1329.22,1626.16 1328.72,1626.86 1328.72,1627.46 L1328.72,1633.26 C1328.72,1634.06 1329.32,1634.66 1330.12,1634.66 L1330.42,1634.66 L1333.72,1633.96 L1333.72,1648.86 L1336.52,1648.86 L1336.52,1633.36 L1345.42,1631.56 L1345.42,1645.66 L1348.22,1645.66 L1348.22,1630.96 L1352.02,1630.26 C1352.62,1630.16 1353.12,1629.46 1353.12,1628.86 L1353.12,1622.96 C1353.12,1622.16 1352.52,1621.56 1351.72,1621.56 L1351.52,1621.56 L1348.22,1622.26 L1348.22,1605.76 L1352.02,1605.06 M1336.52,1624.76 L1336.52,1608.16 L1345.42,1606.36 L1345.42,1622.86 L1336.52,1624.76 "/>
<path class="Accidental" d="M1763.84,1605.06 C1764.44,1604.96 1764.94,1604.26 1764.94,1603.66 L1764.94,1597.76 C1764.94,1596.96 1764.34,1596.36 1763.54,1596.36 L1763.34,1596.36 L1760.04,1597.06 L1760.04,1582.16 L1757.24,1582.16 L1757.24,1597.66 L1748.34,1599.46 L1748.34,1585.36 L1745.54,1585.36 L1745.54,1600.06 L1741.64,1600.86 C1741.04,1600.96 1740.54,1601.66 1740.54,1602.26 L1740.54,1602.46 L1740.54,1608.26 L1740.54,1608.06 C1740.54,1608.86 1741.14,1609.46 1741.94,1609.46 L1742.24,1609.46 L1745.54,1608.76 L1745.54,1625.26 L1741.64,1626.06 C1741.04,1626.16 1740.54,1626.86 1740.54,1627.46 L1740.54,1633.26 C1740.54,1634.06 1741.14,1634.66 1741.94,1634.66 L1742.24,1634.66 L1745.54,1633.96 L1745.54,1648.86 L1748.34,1648.86 L1748.34,1633.36 L1757.24,1631.56 L1757.24,1645.66 L1760.04,1645.66 L1760.04,1630.96 L1763.84,1630.26 C1764.44,1630.16 1764.94,1629.46 1764.94,1628.86 L1764.94,1622.96 C1764.94,1622.16 1764.34,1621.56 1763.54,1621.56 L1763.34,1621.56 L1760.04,1622.26 L1760.04,1605.76 L1763.84,1605.06 M1748.34,1624.76 L1748.34,1608.16 L1757.24,1606.36 L1757.24,1622.86 L1748.34,1624.76 "/>
<path class="Accidental" d="M2192.61,1455.05 C2193.21,1454.95 2193.71,1454.25 2193.71,1453.65 L2193.71,1447.75 C2193.71,1446.95 2193.11,1446.35 2192.31,1446.35 L2192.11,1446.35 L2188.81,1447.05 L2188.81,1432.15 L2186.01,1432.15 L2186.01,1447.65 L2177.11,1449.45 L2177.11,1435.35 L2174.31,1435.35 L2174.31,1450.05 L2170.41,1450.85 C2169.81,1450.95 2169.31,1451.65 2169.31,1452.25 L2169.31,1452.45 L2169.31,1458.25 L2169.31,1458.05 C2169.31,1458.85 2169.91,1459.45 2170.71,1459.45 L2171.01,1459.45 L2174.31,1458.75 L2174.31,1475.25 L2170.41,1476.05 C2169.81,1476.15 2169.31,1476.85 2169.31,1477.45 L2169.31,1483.25 C2169.31,1484.05 2169.91,1484.65 2170.71,1484.65 L2171.01,1484.65 L2174.31,1483.95 L2174.31,1498.85 L2177.11,1498.85 L2177.11,1483.35 L2186.01,1481.55 L2186.01,1495.65 L2188.81,1495.65 L2188.81,1480.95 L2192.61,1480.25 C2193.21,1480.15 2193.71,1479.45 2193.71,1478.85 L2193.71,1472.95 C2193.71,1472.15 2193.11,1471.55 2192.31,1471.55 L2192.11,1471.55 L2188.81,1472.25 L2188.81,1455.75 L2192.61,1455.05 M2177.11,1474.75 L2177.11,1458.15 L2186.01,1456.35 L2186.01,1472.85 L2177.11,1474.75 "/>
<path class="Accidental" d="M815.086,642.498 C815.686,642.398 816.186,641.698 816.186,641.098 L816.186,635.198 C816.186,634.398 815.586,633.798 814.786,633.798 L814.586,633.798 L811.286,634.498 L811.286,619.598 L808.486,619.598 L808.486,635.098 L799.586,636.898 L799.586,622.798 L796.786,622.798 L796.786,637.498 L792.886,638.298 C792.286,638.398 791.786,639.098 791.786,639.698 L791.786,639.898 L791.786,645.698 L791.786,645.498 C791.786,646.298 792.386,646.898 793.186,646.898 L793.486,646.898 L796.786,646.198 L796.786,662.698 L792.886,663.498 C792.286,663.598 791.786,664.298 791.786,664.898 L791.786,670.698 C791.786,671.498 792.386,672.098 793.186,672.098 L793.486,672.098 L796.786,671.398 L796.786,686.298 L799.586,686.298 L799.586,670.798 L808.486,668.998 L808.486,683.098 L811.286,683.098 L811.286,668.398 L815.086,667.698 C815.686,667.598 816.186,666.898 816.186,666.298 L816.186,660.398 C816.186,659.598 815.586,658.998 814.786,658.998 L814.586,658.998 L811.286,659.698 L811.286,643.198 L815.086,642.498 M799.586,662.198 L799.586,645.598 L808.486,643.798 L808.486,660.298 L799.586,662.198 "/>
<path class="Accidental" d="M1225.32,642.498 C1225.92,642.398 1226.42,641.698 1226.42,641.098 L1226.42,635.198 C1226.42,634.398 1225.82,633.798 1225.02,633.798 L1224.82,633.798 L1221.52,634.498 L1221.52,619.598 L1218.72,619.598 L1218.72,635.098 L1209.82,636.898 L1209.82,622.798 L1207.02,622.798 L1207.02,637.498 L1203.12,638.298 C1202.52,638.398 1202.02,639.098 1202.02,639.698 L1202.02,639.898 L1202.02,645.698 L1202.02,645.498 C1202.02,646.298 1202.62,646.898 1203.42,646.898 L1203.72,646.898 L1207.02,646.198 L1207.02,662.698 L1203.12,663.498 C1202.52,663.598 1202.02,664.298 1202.02,664.898 L1202.02,670.698 C1202.02,671.498 1202.62,672.098 1203.42,672.098 L1203.72,672.098 L1207.02,671.398 L1207.02,686.298 L1209.82,686.298 L1209.82,670.798 L1218.72,668.998 L1218.72,683.098 L1221.52,683.098 L1221.52,668.398 L1225.32,667.698 C1225.92,667.598 1226.42,666.898 1226.42,666.298 L1226.42,660.398 C1226.42,659.598 1225.82,658.998 1225.02,658.998 L1224.82,658.998 L1221.52,659.698 L1221.52,643.198 L1225.32,642.498 M1209.82,662.198 L1209.82,645.598 L1218.72,643.798 L1218.72,660.298 L1209.82,662.198 "/>
<path class="Accidental" d="M1636.23,642.498 C1636.83,642.398 1637.33,641.698 1637.33,641.098 L1637.33,635.198 C1637.33,634.398 1636.73,633.798 1635.93,633.798 L1635.73,633.798 L1632.43,634.498 L1632.43,619.598 L1629.63,619.598 L1629.63,635.098 L1620.73,636.898 L1620.73,622.798 L1617.93,622.798 L1617.93,637.498 L1614.03,638.298 C1613.43,638.398 1612.93,639.098 1612.93,639.698 L1612.93,639.898 L1612.93,645.698 L1612.93,645.498 C1612.93,646.298 1613.53,646.898 1614.33,646.898 L1614.63,646.898 L1617.93,646.198 L1617.93,662.698 L1614.03,663.498 C1613.43,663.598 1612.93,664.298 1612.93,664.898 L1612.93,670.698 C1612.93,671.498 1613.53,672.098 1614.33,672.098 L1614.63,672.098 L1617.93,671.398 L1617.93,686.298 L1620.73,686.298 L1620.73,670.798 L1629.63,668.998 L1629.63,683.098 L1632.43,683.098 L1632.43,668.398 L1636.23,667.698 C1636.83,667.598 1637.33,666.898 1637.33,666.298 L1637.33,660.398 C1637.33,659.598 1636.73,658.998 1635.93,658.998 L1635.73,658.998 L1632.43,659.698 L1632.43,643.198 L1636.23,642.498 M1620.73,662.198 L1620.73,645.598 L1629.63,643.798 L1629.63,660.298 L1620.73,662.198 "/>
<path class="Accidental" d="M2556.96,554.993 C2557.56,554.893 2558.06,554.193 2558.06,553.593 L2558.06,547.693 C2558.06,546.893 2557.46,546.293 2556.66,546.293 L2556.46,546.293 L2553.16,546.993 L2553.16,532.093 L2550.36,532.093 L2550.36,547.593 L2541.46,549.393 L2541.46,535.293 L2538.66,535.293 L2538.66,549.993 L2534.76,550.793 C2534.16,550.893 2533.66,551.593 2533.66,552.193 L2533.66,552.393 L2533.66,558.193 L2533.66,557.993 C2533.66,558.793 2534.26,559.393 2535.06,559.393 L2535.36,559.393 L2538.66,558.693 L2538.66,575.193 L2534.76,575.993 C2534.16,576.093 2533.66,576.793 2533.66,577.393 L2533.66,583.193 C2533.66,583.993 2534.26,584.593 2535.06,584.593 L2535.36,584.593 L2538.66,583.893 L2538.66,598.793 L2541.46,598.793 L2541.46,583.293 L2550.36,581.493 L2550.36,595.593 L2553.16,595.593 L2553.16,580.893 L2556.96,580.193 C2557.56,580.093 2558.06,579.393 2558.06,578.793 L2558.06,572.893 C2558.06,572.093 2557.46,571.493 2556.66,571.493 L2556.46,571.493 L2553.16,572.193 L2553.16,555.693 L2556.96,554.993 M2541.46,574.693 L2541.46,558.093 L2550.36,556.293 L2550.36,572.793 L2541.46,574.693 "/>
<path class="Accidental" d="M1352.02,1255.04 C1352.62,1254.94 1353.12,1254.24 1353.12,1253.64 L1353.12,1247.74 C1353.12,1246.94 1352.52,1246.34 1351.72,1246.34 L1351.52,1246.34 L1348.22,1247.04 L1348.22,1232.14 L1345.42,1232.14 L1345.42,1247.64 L1336.52,1249.44 L1336.52,1235.34 L1333.72,1235.34 L1333.72,1250.04 L1329.82,1250.84 C1329.22,1250.94 1328.72,1251.64 1328.72,1252.24 L1328.72,1252.44 L1328.72,1258.24 L1328.72,1258.04 C1328.72,1258.84 1329.32,1259.44 1330.12,1259.44 L1330.42,1259.44 L1333.72,1258.74 L1333.72,1275.24 L1329.82,1276.04 C1329.22,1276.14 1328.72,1276.84 1328.72,1277.44 L1328.72,1283.24 C1328.72,1284.04 1329.32,1284.64 1330.12,1284.64 L1330.42,1284.64 L1333.72,1283.94 L1333.72,1298.84 L1336.52,1298.84 L1336.52,1283.34 L1345.42,1281.54 L1345.42,1295.64 L1348.22,1295.64 L1348.22,1280.94 L1352.02,1280.24 C1352.62,1280.14 1353.12,1279.44 1353.12,1278.84 L1353.12,1272.94 C1353.12,1272.14 1352.52,1271.54 1351.72,1271.54 L1351.52,1271.54 L1348.22,1272.24 L1348.22,1255.74 L1352.02,1255.04 M1336.52,1274.74 L1336.52,1258.14 L1345.42,1256.34 L1345.42,1272.84 L1336.52,1274.74 "/>
<path class="Accidental" d="M1763.84,1255.04 C1764.44,1254.94 1764.94,1254.24 1764.94,1253.64 L1764.94,1247.74 C1764.94,1246.94 1764.34,1246.34 1763.54,1246.34 L1763.34,1246.34 L1760.04,1247.04 L1760.04,1232.14 L1757.24,1232.14 L1757.24,1247.64 L1748.34,1249.44 L1748.34,1235.34 L1745.54,1235.34 L1745.54,1250.04 L1741.64,1250.84 C1741.04,1250.94 1740.54,1251.64 1740.54,1252.24 L1740.54,1252.44 L1740.54,1258.24 L1740.54,1258.04 C1740.54,1258.84 1741.14,1259.44 1741.94,1259.44 L1742.24,1259.44 L1745.54,1258.74 L1745.54,1275.24 L1741.64,1276.04 C1741.04,1276.14 1740.54,1276.84 1740.54,1277.44 L1740.54,1283.24 C1740.54,1284.04 1741.14,1284.64 1741.94,1284.64 L1742.24,1284.64 L1745.54,1283.94 L1745.54,1298.84 L1748.34,1298.84 L1748.34,1283.34 L1757.24,1281.54 L1757.24,1295.64 L1760.04,1295.64 L1760.04,1280.94 L1763.84,1280.24 C1764.44,1280.14 1764.94,1279.44 1764.94,1278.84 L1764.94,1272.94 C1764.94,1272.14 1764.34,1271.54 1763.54,1271.54 L1763.34,1271.54 L1760.04,1272.24 L1760.04,1255.74 L1763.84,1255.04 M1748.34,1274.74 L1748.34,1258.14 L1757.24,1256.34 L1757.24,1272.84 L1748.34,1274.74 "/>
<path class="Accidental" d="M2201.36,1255.04 C2201.96,1254.94 2202.46,1254.24 2202.46,1253.64 L2202.46,1247.74 C2202.46,1246.94 2201.86,1246.34 2201.06,1246.34 L2200.86,1246.34 L2197.56,1247.04 L2197.56,1232.14 L2194.76,1232.14 L2194.76,1247.64 L2185.86,1249.44 L2185.86,1235.34 L2183.06,1235.34 L2183.06,1250.04 L2179.16,1250.84 C2178.56,1250.94 2178.06,1251.64 2178.06,1252.24 L2178.06,1252.44 L2178.06,1258.24 L2178.06,1258.04 C2178.06,1258.84 2178.66,1259.44 2179.46,1259.44 L2179.76,1259.44 L2183.06,1258.74 L2183.06,1275.24 L2179.16,1276.04 C2178.56,1276.14 2178.06,1276.84 2178.06,1277.44 L2178.06,1283.24 C2178.06,1284.04 2178.66,1284.64 2179.46,1284.64 L2179.76,1284.64 L2183.06,1283.94 L2183.06,1298.84 L2185.86,1298.84 L2185.86,1283.34 L2194.76,1281.54 L2194.76,1295.64 L2197.56,1295.64 L2197.56,1280.94 L2201.36,1280.24 C2201.96,1280.14 2202.46,1279.44 2202.46,1278.84 L2202.46,1272.94 C2202.46,1272.14 2201.86,1271.54 2201.06,1271.54 L2200.86,1271.54 L2197.56,1272.24 L2197.56,1255.74 L2201.36,1255.04 M2185.86,1274.74 L2185.86,1258.14 L2194.76,1256.34 L2194.76,1272.84 L2185.86,1274.74 "/>
<polyline class="LedgerLine" stroke="#000000" stroke-width="4.00" stroke-linejoin="bevel" points="629.969,890.613 679.964,890.613"/>
<polyline class="LedgerLine" stroke="#000000" stroke-width="4.00" stroke-linejoin="bevel" points="813.686,890.613 863.682,890.613"/>
<polyline class="LedgerLine" stroke="#000000" stroke-width="4.00" stroke-linejoin="bevel" points="813.686,865.612 863.682,865.612"/>
<polyline class="LedgerLine" stroke="#000000" stroke-width="4.00" stroke-linejoin="bevel" points="2199.96,1503.15 2249.95,1503.15"/>
<polyline class="LedgerLine" stroke="#000000" stroke-width="4.00" stroke-linejoin="bevel" points="2199.96,1478.15 2249.95,1478.15"/>
<polyline class="LedgerLine" stroke="#000000" stroke-width="4.00" stroke-linejoin="bevel" points="2374.6,1503.15 2424.59,1503.15"/>
<polyline class="LedgerLine" stroke="#000000" stroke-width="4.00" stroke-linejoin="bevel" points="1400.92,628.097 1450.92,628.097"/>
<polyline class="LedgerLine" stroke="#000000" stroke-width="4.00" stroke-linejoin="bevel" points="1804.69,628.097 1854.69,628.097"/>
<polyline class="LedgerLine" stroke="#000000" stroke-width="4.00" stroke-linejoin="bevel" points="1974.55,628.097 2024.55,628.097"/>
<polyline class="LedgerLine" stroke="#000000" stroke-width="4.00" stroke-linejoin="bevel" points="1974.55,603.095 2024.55,603.095"/>
<polyline class="LedgerLine" stroke="#000000" stroke-width="4.00" stroke-linejoin="bevel" points="2190.17,628.097 2240.16,628.097"/>
<polyline class="LedgerLine" stroke="#000000" stroke-width="4.00" stroke-linejoin="bevel" points="2377.24,628.097 2427.23,628.097"/>
<polyline class="LedgerLine" stroke="#000000" stroke-width="4.00" stroke-linejoin="bevel" points="2377.24,603.095 2427.23,603.095"/>
<polyline class="LedgerLine" stroke="#000000" stroke-width="4.00" stroke-linejoin="bevel" points="2564.31,628.097 2614.3,628.097"/>
<polyline class="LedgerLine" stroke="#000000" stroke-width="4.00" stroke-linejoin="bevel" points="2564.31,603.095 2614.3,603.095"/>
<polyline class="LedgerLine" stroke="#000000" stroke-width="4.00" stroke-linejoin="bevel" points="2564.31,578.094 2614.3,578.094"/>
<polyline class="LedgerLine" stroke="#000000" stroke-width="4.00" stroke-linejoin="bevel" points="398.1,1240.64 448.096,1240.64"/>
<polyline class="LedgerLine" stroke="#000000" stroke-width="4.00" stroke-linejoin="bevel" points="398.1,1215.63 448.096,1215.63"/>
<polyline class="LedgerLine" stroke="#000000" stroke-width="4.00" stroke-linejoin="bevel" points="398.1,1190.63 448.096,1190.63"/>
<polyline class="LedgerLine" stroke="#000000" stroke-width="4.00" stroke-linejoin="bevel" points="576.095,1240.64 626.091,1240.64"/>
<polyline class="LedgerLine" stroke="#000000" stroke-width="4.00" stroke-linejoin="bevel" points="576.095,1215.63 626.091,1215.63"/>
<polyline class="LedgerLine" stroke="#000000" stroke-width="4.00" stroke-linejoin="bevel" points="754.09,1240.64 804.085,1240.64"/>
<polyline class="LedgerLine" stroke="#000000" stroke-width="4.00" stroke-linejoin="bevel" points="977.838,1240.64 1027.83,1240.64"/>
<polyline class="LedgerLine" stroke="#000000" stroke-width="4.00" stroke-linejoin="bevel" points="977.838,1215.63 1027.83,1215.63"/>
<polyline class="LedgerLine" stroke="#000000" stroke-width="4.00" stroke-linejoin="bevel" points="1164.23,1240.64 1214.22,1240.64"/>
<polyline class="LedgerLine" stroke="#000000" stroke-width="4.00" stroke-linejoin="bevel" points="1582.76,1240.64 1632.76,1240.64"/>
<polyline class="Stem" stroke="#000000" stroke-width="2.75" stroke-linejoin="bevel" points="456.377,906.634 456.377,990.62"/>
<polyline class="Stem" stroke="#000000" stroke-width="2.75" stroke-linejoin="bevel" points="640.095,881.633 640.095,965.618"/>
<polyline class="Stem" stroke="#000000" stroke-width="2.75" stroke-linejoin="bevel" points="823.812,856.631 823.812,965.618"/>
<polyline class="Stem" stroke="#000000" stroke-width="2.75" stroke-linejoin="bevel" points="1086.78,1024.76 1086.78,940.617"/>
<polyline class="Stem" stroke="#000000" stroke-width="2.75" stroke-linejoin="bevel" points="1263.78,999.76 1263.78,915.615"/>
<polyline class="Stem" stroke="#000000" stroke-width="2.75" stroke-linejoin="bevel" points="1411.05,969.138 1411.05,1043.75"/>
<polyline class="Stem" stroke="#000000" stroke-width="2.75" stroke-linejoin="bevel" points="1674.7,999.76 1674.7,915.615"/>
<polyline class="Stem" stroke="#000000" stroke-width="2.75" stroke-linejoin="bevel" points="1814.82,969.138 1814.82,1043.75"/>
<polyline class="Stem" stroke="#000000" stroke-width="2.75" stroke-linejoin="bevel" points="1984.68,944.137 1984.68,1025"/>
<polyline class="Stem" stroke="#000000" stroke-width="2.75" stroke-linejoin="bevel" points="2200.29,969.138 2200.29,1043.75"/>
<polyline class="Stem" stroke="#000000" stroke-width="2.75" stroke-linejoin="bevel" points="2387.36,944.137 2387.36,1025"/>
<polyline class="Stem" stroke="#000000" stroke-width="2.75" stroke-linejoin="bevel" points="2574.43,919.135 2574.43,1003.12"/>
<polyline class="Stem" stroke="#000000" stroke-width="2.75" stroke-linejoin="bevel" points="408.226,1531.67 408.226,1615.66"/>
<polyline class="Stem" stroke="#000000" stroke-width="2.75" stroke-linejoin="bevel" points="586.221,1556.68 586.221,1637.54"/>
<polyline class="Stem" stroke="#000000" stroke-width="2.75" stroke-linejoin="bevel" points="764.216,1581.68 764.216,1656.29"/>
<polyline class="Stem" stroke="#000000" stroke-width="2.75" stroke-linejoin="bevel" points="987.964,1556.68 987.964,1637.54"/>
<polyline class="Stem" stroke="#000000" stroke-width="2.75" stroke-linejoin="bevel" points="1174.35,1581.68 1174.35,1656.29"/>
<polyline class="Stem" stroke="#000000" stroke-width="2.75" stroke-linejoin="bevel" points="1390.49,1612.3 1390.49,1528.15"/>
<polyline class="Stem" stroke="#000000" stroke-width="2.75" stroke-linejoin="bevel" points="1592.89,1581.68 1592.89,1656.29"/>
<polyline class="Stem" stroke="#000000" stroke-width="2.75" stroke-linejoin="bevel" points="1802.31,1612.3 1802.31,1528.15"/>
<polyline class="Stem" stroke="#000000" stroke-width="2.75" stroke-linejoin="bevel" points="1981.99,1637.3 1981.99,1553.16"/>
<polyline class="Stem" stroke="#000000" stroke-width="2.75" stroke-linejoin="bevel" points="2210.08,1469.17 2210.08,1578.16"/>
<polyline class="Stem" stroke="#000000" stroke-width="2.75" stroke-linejoin="bevel" points="2384.72,1494.17 2384.72,1578.16"/>
<polyline class="Stem" stroke="#000000" stroke-width="2.75" stroke-linejoin="bevel" points="2559.36,1519.17 2559.36,1603.16"/>
<polyline class="Stem" stroke="#000000" stroke-width="2.75" stroke-linejoin="bevel" points="456.377,706.622 456.377,781.232"/>
<polyline class="Stem" stroke="#000000" stroke-width="2.75" stroke-linejoin="bevel" points="640.095,681.62 640.095,762.48"/>
<polyline class="Stem" stroke="#000000" stroke-width="2.75" stroke-linejoin="bevel" points="823.812,656.619 823.812,740.604"/>
<polyline class="Stem" stroke="#000000" stroke-width="2.75" stroke-linejoin="bevel" points="1057.03,681.62 1057.03,762.48"/>
<polyline class="Stem" stroke="#000000" stroke-width="2.75" stroke-linejoin="bevel" points="1234.04,656.619 1234.04,740.604"/>
<polyline class="Stem" stroke="#000000" stroke-width="2.75" stroke-linejoin="bevel" points="1411.05,619.116 1411.05,703.102"/>
<polyline class="Stem" stroke="#000000" stroke-width="2.75" stroke-linejoin="bevel" points="1644.96,656.619 1644.96,740.604"/>
<polyline class="Stem" stroke="#000000" stroke-width="2.75" stroke-linejoin="bevel" points="1814.82,619.116 1814.82,703.102"/>
<polyline class="Stem" stroke="#000000" stroke-width="2.75" stroke-linejoin="bevel" points="1984.68,594.115 1984.68,703.102"/>
<polyline class="Stem" stroke="#000000" stroke-width="2.75" stroke-linejoin="bevel" points="2200.29,619.116 2200.29,703.102"/>
<polyline class="Stem" stroke="#000000" stroke-width="2.75" stroke-linejoin="bevel" points="2387.36,594.115 2387.36,703.102"/>
<polyline class="Stem" stroke="#000000" stroke-width="2.75" stroke-linejoin="bevel" points="2574.43,569.113 2574.43,703.102"/>
<polyline class="Stem" stroke="#000000" stroke-width="2.75" stroke-linejoin="bevel" points="408.226,1181.65 408.226,1315.64"/>
<polyline class="Stem" stroke="#000000" stroke-width="2.75" stroke-linejoin="bevel" points="586.221,1206.65 586.221,1315.64"/>
<polyline class="Stem" stroke="#000000" stroke-width="2.75" stroke-linejoin="bevel" points="764.216,1231.65 764.216,1315.64"/>
<polyline class="Stem" stroke="#000000" stroke-width="2.75" stroke-linejoin="bevel" points="987.964,1206.65 987.964,1315.64"/>
<polyline class="Stem" stroke="#000000" stroke-width="2.75" stroke-linejoin="bevel" points="1174.35,1231.65 1174.35,1315.64"/>
<polyline class="Stem" stroke="#000000" stroke-width="2.75" stroke-linejoin="bevel" points="1360.74,1269.16 1360.74,1353.14"/>
<polyline class="Stem" stroke="#000000" stroke-width="2.75" stroke-linejoin="bevel" points="1592.89,1231.65 1592.89,1315.64"/>
<polyline class="Stem" stroke="#000000" stroke-width="2.75" stroke-linejoin="bevel" points="1772.57,1269.16 1772.57,1353.14"/>
<polyline class="Stem" stroke="#000000" stroke-width="2.75" stroke-linejoin="bevel" points="1952.25,1294.16 1952.25,1375.02"/>
<polyline class="Stem" stroke="#000000" stroke-width="2.75" stroke-linejoin="bevel" points="2210.08,1269.16 2210.08,1353.14"/>
<polyline class="Stem" stroke="#000000" stroke-width="2.75" stroke-linejoin="bevel" points="2384.72,1294.16 2384.72,1375.02"/>
<polyline class="Stem" stroke="#000000" stroke-width="2.75" stroke-linejoin="bevel" points="2559.36,1319.16 2559.36,1393.77"/>
<path class="Note" d="M486.502,894.914 C485.002,892.214 482.102,890.514 478.202,890.114 C477.602,890.014 477.102,890.014 476.502,890.014 C473.002,890.014 469.202,891.014 465.702,892.914 C459.102,896.514 455.002,902.414 455.002,907.514 C455.002,908.914 455.202,910.214 455.902,911.414 C457.402,914.114 460.402,915.814 464.302,916.214 C464.902,916.314 465.402,916.314 466.002,916.314 C469.502,916.314 473.202,915.314 476.702,913.414 C483.302,909.814 487.502,904.014 487.502,898.914 C487.502,897.514 487.202,896.114 486.502,894.914"/>
<path class="Note" d="M670.22,869.913 C668.72,867.213 665.82,865.513 661.92,865.113 C661.32,865.013 660.82,865.013 660.22,865.013 C656.72,865.013 652.92,866.013 649.42,867.913 C642.82,871.513 638.72,877.413 638.72,882.513 C638.72,883.913 638.92,885.213 639.62,886.413 C641.12,889.113 644.12,890.813 648.02,891.213 C648.62,891.313 649.12,891.313 649.72,891.313 C653.22,891.313 656.92,890.313 660.42,888.413 C667.02,884.813 671.22,879.013 671.22,873.913 C671.22,872.513 670.92,871.113 670.22,869.913"/>
<path class="Note" d="M853.937,844.911 C852.437,842.211 849.537,840.511 845.637,840.111 C845.037,840.011 844.537,840.011 843.937,840.011 C840.437,840.011 836.637,841.011 833.137,842.911 C826.537,846.511 822.437,852.411 822.437,857.511 C822.437,858.911 822.637,860.211 823.337,861.411 C824.837,864.111 827.837,865.811 831.737,866.211 C832.337,866.311 832.837,866.311 833.437,866.311 C836.937,866.311 840.637,865.311 844.137,863.411 C850.737,859.811 854.937,854.011 854.937,848.911 C854.937,847.511 854.637,846.111 853.937,844.911"/>
<path class="Note" d="M1087.16,1019.92 C1085.66,1017.22 1082.76,1015.52 1078.86,1015.12 C1078.26,1015.02 1077.76,1015.02 1077.16,1015.02 C1073.66,1015.02 1069.86,1016.02 1066.36,1017.92 C1059.76,1021.52 1055.66,1027.42 1055.66,1032.52 C1055.66,1033.92 1055.86,1035.22 1056.56,1036.42 C1058.06,1039.12 1061.06,1040.82 1064.96,1041.22 C1065.56,1041.32 1066.06,1041.32 1066.66,1041.32 C1070.16,1041.32 1073.86,1040.32 1077.36,1038.42 C1083.96,1034.82 1088.16,1029.02 1088.16,1023.92 C1088.16,1022.52 1087.86,1021.12 1087.16,1019.92"/>
<path class="Note" d="M1264.17,994.921 C1262.67,992.221 1259.77,990.521 1255.87,990.121 C1255.27,990.021 1254.77,990.021 1254.17,990.021 C1250.67,990.021 1246.87,991.021 1243.37,992.921 C1236.77,996.521 1232.67,1002.42 1232.67,1007.52 C1232.67,1008.92 1232.87,1010.22 1233.57,1011.42 C1235.07,1014.12 1238.07,1015.82 1241.97,1016.22 C1242.57,1016.32 1243.07,1016.32 1243.67,1016.32 C1247.17,1016.32 1250.87,1015.32 1254.37,1013.42 C1260.97,1009.82 1265.17,1004.02 1265.17,998.921 C1265.17,997.521 1264.87,996.121 1264.17,994.921"/>
<path class="Note" d="M1441.17,957.418 C1439.67,954.718 1436.77,953.018 1432.87,952.618 C1432.27,952.518 1431.77,952.518 1431.17,952.518 C1427.67,952.518 1423.87,953.518 1420.37,955.418 C1413.77,959.018 1409.67,964.918 1409.67,970.018 C1409.67,971.418 1409.87,972.718 1410.57,973.918 C1412.07,976.618 1415.07,978.318 1418.97,978.718 C1419.57,978.818 1420.07,978.818 1420.67,978.818 C1424.17,978.818 1427.87,977.818 1431.37,975.918 C1437.97,972.318 1442.17,966.518 1442.17,961.418 C1442.17,960.018 1441.87,958.618 1441.17,957.418"/>
<path class="Note" d="M1675.08,994.921 C1673.58,992.221 1670.68,990.521 1666.78,990.121 C1666.18,990.021 1665.68,990.021 1665.08,990.021 C1661.58,990.021 1657.78,991.021 1654.28,992.921 C1647.68,996.521 1643.58,1002.42 1643.58,1007.52 C1643.58,1008.92 1643.78,1010.22 1644.48,1011.42 C1645.98,1014.12 1648.98,1015.82 1652.88,1016.22 C1653.48,1016.32 1653.98,1016.32 1654.58,1016.32 C1658.08,1016.32 1661.78,1015.32 1665.28,1013.42 C1671.88,1009.82 1676.08,1004.02 1676.08,998.921 C1676.08,997.521 1675.78,996.121 1675.08,994.921"/>
<path class="Note" d="M1844.94,957.418 C1843.44,954.718 1840.54,953.018 1836.64,952.618 C1836.04,952.518 1835.54,952.518 1834.94,952.518 C1831.44,952.518 1827.64,953.518 1824.14,955.418 C1817.54,959.018 1813.44,964.918 1813.44,970.018 C1813.44,971.418 1813.64,972.718 1814.34,973.918 C1815.84,976.618 1818.84,978.318 1822.74,978.718 C1823.34,978.818 1823.84,978.818 1824.44,978.818 C1827.94,978.818 1831.64,977.818 1835.14,975.918 C1841.74,972.318 1845.94,966.518 1845.94,961.418 C1845.94,960.018 1845.64,958.618 1844.94,957.418"/>
<path class="Note" d="M2014.8,932.417 C2013.3,929.717 2010.4,928.017 2006.5,927.617 C2005.9,927.517 2005.4,927.517 2004.8,927.517 C2001.3,927.517 1997.5,928.517 1994,930.417 C1987.4,934.017 1983.3,939.917 1983.3,945.017 C1983.3,946.417 1983.5,947.717 1984.2,948.917 C1985.7,951.617 1988.7,953.317 1992.6,953.717 C1993.2,953.817 1993.7,953.817 1994.3,953.817 C1997.8,953.817 2001.5,952.817 2005,950.917 C2011.6,947.317 2015.8,941.517 2015.8,936.417 C2015.8,935.017 2015.5,933.617 2014.8,932.417"/>
<path class="Note" d="M2230.42,957.418 C2228.92,954.718 2226.02,953.018 2222.12,952.618 C2221.52,952.518 2221.02,952.518 2220.42,952.518 C2216.92,952.518 2213.12,953.518 2209.62,955.418 C2203.02,959.018 2198.92,964.918 2198.92,970.018 C2198.92,971.418 2199.12,972.718 2199.82,973.918 C2201.32,976.618 2204.32,978.318 2208.22,978.718 C2208.82,978.818 2209.32,978.818 2209.92,978.818 C2213.42,978.818 2217.12,977.818 2220.62,975.918 C2227.22,972.318 2231.42,966.518 2231.42,961.418 C2231.42,960.018 2231.12,958.618 2230.42,957.418"/>
<path class="Note" d="M2417.49,932.417 C2415.99,929.717 2413.09,928.017 2409.19,927.617 C2408.59,927.517 2408.09,927.517 2407.49,927.517 C2403.99,927.517 2400.19,928.517 2396.69,930.417 C2390.09,934.017 2385.99,939.917 2385.99,945.017 C2385.99,946.417 2386.19,947.717 2386.89,948.917 C2388.39,951.617 2391.39,953.317 2395.29,953.717 C2395.89,953.817 2396.39,953.817 2396.99,953.817 C2400.49,953.817 2404.19,952.817 2407.69,950.917 C2414.29,947.317 2418.49,941.517 2418.49,936.417 C2418.49,935.017 2418.19,933.617 2417.49,932.417"/>
<path class="Note" d="M2604.56,907.415 C2603.06,904.715 2600.16,903.015 2596.26,902.615 C2595.66,902.515 2595.16,902.515 2594.56,902.515 C2591.06,902.515 2587.26,903.515 2583.76,905.415 C2577.16,909.015 2573.06,914.915 2573.06,920.015 C2573.06,921.415 2573.26,922.715 2573.96,923.915 C2575.46,926.615 2578.46,928.315 2582.36,928.715 C2582.96,928.815 2583.46,928.815 2584.06,928.815 C2587.56,928.815 2591.26,927.815 2594.76,925.915 C2601.36,922.315 2605.56,916.515 2605.56,911.415 C2605.56,910.015 2605.26,908.615 2604.56,907.415"/>
<path class="Note" d="M438.351,1519.95 C436.851,1517.25 433.951,1515.55 430.051,1515.15 C429.451,1515.05 428.951,1515.05 428.351,1515.05 C424.851,1515.05 421.051,1516.05 417.551,1517.95 C410.951,1521.55 406.851,1527.45 406.851,1532.55 C406.851,1533.95 407.051,1535.25 407.751,1536.45 C409.251,1539.15 412.251,1540.85 416.151,1541.25 C416.751,1541.35 417.251,1541.35 417.851,1541.35 C421.351,1541.35 425.051,1540.35 428.551,1538.45 C435.151,1534.85 439.351,1529.05 439.351,1523.95 C439.351,1522.55 439.051,1521.15 438.351,1519.95"/>
<path class="Note" d="M616.346,1544.96 C614.846,1542.26 611.946,1540.56 608.046,1540.16 C607.446,1540.06 606.946,1540.06 606.346,1540.06 C602.846,1540.06 599.046,1541.06 595.546,1542.96 C588.946,1546.56 584.846,1552.46 584.846,1557.56 C584.846,1558.96 585.046,1560.26 585.746,1561.46 C587.246,1564.16 590.246,1565.86 594.146,1566.26 C594.746,1566.36 595.246,1566.36 595.846,1566.36 C599.346,1566.36 603.046,1565.36 606.546,1563.46 C613.146,1559.86 617.346,1554.06 617.346,1548.96 C617.346,1547.56 617.046,1546.16 616.346,1544.96"/>
<path class="Note" d="M794.341,1569.96 C792.841,1567.26 789.941,1565.56 786.041,1565.16 C785.441,1565.06 784.941,1565.06 784.341,1565.06 C780.841,1565.06 777.041,1566.06 773.541,1567.96 C766.941,1571.56 762.841,1577.46 762.841,1582.56 C762.841,1583.96 763.041,1585.26 763.741,1586.46 C765.241,1589.16 768.241,1590.86 772.141,1591.26 C772.741,1591.36 773.241,1591.36 773.841,1591.36 C777.341,1591.36 781.041,1590.36 784.541,1588.46 C791.141,1584.86 795.341,1579.06 795.341,1573.96 C795.341,1572.56 795.041,1571.16 794.341,1569.96"/>
<path class="Note" d="M1018.09,1544.96 C1016.59,1542.26 1013.69,1540.56 1009.79,1540.16 C1009.19,1540.06 1008.69,1540.06 1008.09,1540.06 C1004.59,1540.06 1000.79,1541.06 997.288,1542.96 C990.688,1546.56 986.588,1552.46 986.588,1557.56 C986.588,1558.96 986.788,1560.26 987.488,1561.46 C988.988,1564.16 991.988,1565.86 995.888,1566.26 C996.488,1566.36 996.988,1566.36 997.588,1566.36 C1001.09,1566.36 1004.79,1565.36 1008.29,1563.46 C1014.89,1559.86 1019.09,1554.06 1019.09,1548.96 C1019.09,1547.56 1018.79,1546.16 1018.09,1544.96"/>
<path class="Note" d="M1204.48,1569.96 C1202.98,1567.26 1200.08,1565.56 1196.18,1565.16 C1195.58,1565.06 1195.08,1565.06 1194.48,1565.06 C1190.98,1565.06 1187.18,1566.06 1183.68,1567.96 C1177.08,1571.56 1172.98,1577.46 1172.98,1582.56 C1172.98,1583.96 1173.18,1585.26 1173.88,1586.46 C1175.38,1589.16 1178.38,1590.86 1182.28,1591.26 C1182.88,1591.36 1183.38,1591.36 1183.98,1591.36 C1187.48,1591.36 1191.18,1590.36 1194.68,1588.46 C1201.28,1584.86 1205.48,1579.06 1205.48,1573.96 C1205.48,1572.56 1205.18,1571.16 1204.48,1569.96"/>
<path class="Note" d="M1390.87,1607.46 C1389.37,1604.76 1386.47,1603.06 1382.57,1602.66 C1381.97,1602.56 1381.47,1602.56 1380.87,1602.56 C1377.37,1602.56 1373.57,1603.56 1370.07,1605.46 C1363.47,1609.06 1359.37,1614.96 1359.37,1620.06 C1359.37,1621.46 1359.57,1622.76 1360.27,1623.96 C1361.77,1626.66 1364.77,1628.36 1368.67,1628.76 C1369.27,1628.86 1369.77,1628.86 1370.37,1628.86 C1373.87,1628.86 1377.57,1627.86 1381.07,1625.96 C1387.67,1622.36 1391.87,1616.56 1391.87,1611.46 C1391.87,1610.06 1391.57,1608.66 1390.87,1607.46"/>
<path class="Note" d="M1623.01,1569.96 C1621.51,1567.26 1618.61,1565.56 1614.71,1565.16 C1614.11,1565.06 1613.61,1565.06 1613.01,1565.06 C1609.51,1565.06 1605.71,1566.06 1602.21,1567.96 C1595.61,1571.56 1591.51,1577.46 1591.51,1582.56 C1591.51,1583.96 1591.71,1585.26 1592.41,1586.46 C1593.91,1589.16 1596.91,1590.86 1600.81,1591.26 C1601.41,1591.36 1601.91,1591.36 1602.51,1591.36 C1606.01,1591.36 1609.71,1590.36 1613.21,1588.46 C1619.81,1584.86 1624.01,1579.06 1624.01,1573.96 C1624.01,1572.56 1623.71,1571.16 1623.01,1569.96"/>
<path class="Note" d="M1802.69,1607.46 C1801.19,1604.76 1798.29,1603.06 1794.39,1602.66 C1793.79,1602.56 1793.29,1602.56 1792.69,1602.56 C1789.19,1602.56 1785.39,1603.56 1781.89,1605.46 C1775.29,1609.06 1771.19,1614.96 1771.19,1620.06 C1771.19,1621.46 1771.39,1622.76 1772.09,1623.96 C1773.59,1626.66 1776.59,1628.36 1780.49,1628.76 C1781.09,1628.86 1781.59,1628.86 1782.19,1628.86 C1785.69,1628.86 1789.39,1627.86 1792.89,1625.96 C1799.49,1622.36 1803.69,1616.56 1803.69,1611.46 C1803.69,1610.06 1803.39,1608.66 1802.69,1607.46"/>
<path class="Note" d="M1982.37,1632.46 C1980.87,1629.76 1977.97,1628.06 1974.07,1627.66 C1973.47,1627.56 1972.97,1627.56 1972.37,1627.56 C1968.87,1627.56 1965.07,1628.56 1961.57,1630.46 C1954.97,1634.06 1950.87,1639.96 1950.87,1645.06 C1950.87,1646.46 1951.07,1647.76 1951.77,1648.96 C1953.27,1651.66 1956.27,1653.36 1960.17,1653.76 C1960.77,1653.86 1961.27,1653.86 1961.87,1653.86 C1965.37,1653.86 1969.07,1652.86 1972.57,1650.96 C1979.17,1647.36 1983.37,1641.56 1983.37,1636.46 C1983.37,1635.06 1983.07,1633.66 1982.37,1632.46"/>
<path class="Note" d="M2240.21,1457.45 C2238.71,1454.75 2235.81,1453.05 2231.91,1452.65 C2231.31,1452.55 2230.81,1452.55 2230.21,1452.55 C2226.71,1452.55 2222.91,1453.55 2219.41,1455.45 C2212.81,1459.05 2208.71,1464.95 2208.71,1470.05 C2208.71,1471.45 2208.91,1472.75 2209.61,1473.95 C2211.11,1476.65 2214.11,1478.35 2218.01,1478.75 C2218.61,1478.85 2219.11,1478.85 2219.71,1478.85 C2223.21,1478.85 2226.91,1477.85 2230.41,1475.95 C2237.01,1472.35 2241.21,1466.55 2241.21,1461.45 C2241.21,1460.05 2240.91,1458.65 2240.21,1457.45"/>
<path class="Note" d="M2414.85,1482.45 C2413.35,1479.75 2410.45,1478.05 2406.55,1477.65 C2405.95,1477.55 2405.45,1477.55 2404.85,1477.55 C2401.35,1477.55 2397.55,1478.55 2394.05,1480.45 C2387.45,1484.05 2383.35,1489.95 2383.35,1495.05 C2383.35,1496.45 2383.55,1497.75 2384.25,1498.95 C2385.75,1501.65 2388.75,1503.35 2392.65,1503.75 C2393.25,1503.85 2393.75,1503.85 2394.35,1503.85 C2397.85,1503.85 2401.55,1502.85 2405.05,1500.95 C2411.65,1497.35 2415.85,1491.55 2415.85,1486.45 C2415.85,1485.05 2415.55,1483.65 2414.85,1482.45"/>
<path class="Note" d="M2589.49,1507.45 C2587.99,1504.75 2585.09,1503.05 2581.19,1502.65 C2580.59,1502.55 2580.09,1502.55 2579.49,1502.55 C2575.99,1502.55 2572.19,1503.55 2568.69,1505.45 C2562.09,1509.05 2557.99,1514.95 2557.99,1520.05 C2557.99,1521.45 2558.19,1522.75 2558.89,1523.95 C2560.39,1526.65 2563.39,1528.35 2567.29,1528.75 C2567.89,1528.85 2568.39,1528.85 2568.99,1528.85 C2572.49,1528.85 2576.19,1527.85 2579.69,1525.95 C2586.29,1522.35 2590.49,1516.55 2590.49,1511.45 C2590.49,1510.05 2590.19,1508.65 2589.49,1507.45"/>
<path class="Note" d="M486.502,694.902 C485.002,692.202 482.102,690.502 478.202,690.102 C477.602,690.002 477.102,690.002 476.502,690.002 C473.002,690.002 469.202,691.002 465.702,692.902 C459.102,696.502 455.002,702.402 455.002,707.502 C455.002,708.902 455.202,710.202 455.902,711.402 C457.402,714.102 460.402,715.802 464.302,716.202 C464.902,716.302 465.402,716.302 466.002,716.302 C469.502,716.302 473.202,715.302 476.702,713.402 C483.302,709.802 487.502,704.002 487.502,698.902 C487.502,697.502 487.202,696.102 486.502,694.902"/>
<path class="Note" d="M670.22,669.9 C668.72,667.2 665.82,665.5 661.92,665.1 C661.32,665 660.82,665 660.22,665 C656.72,665 652.92,666 649.42,667.9 C642.82,671.5 638.72,677.4 638.72,682.5 C638.72,683.9 638.92,685.2 639.62,686.4 C641.12,689.1 644.12,690.8 648.02,691.2 C648.62,691.3 649.12,691.3 649.72,691.3 C653.22,691.3 656.92,690.3 660.42,688.4 C667.02,684.8 671.22,679 671.22,673.9 C671.22,672.5 670.92,671.1 670.22,669.9"/>
<path class="Note" d="M853.937,644.898 C852.437,642.198 849.537,640.498 845.637,640.098 C845.037,639.998 844.537,639.998 843.937,639.998 C840.437,639.998 836.637,640.998 833.137,642.898 C826.537,646.498 822.437,652.398 822.437,657.498 C822.437,658.898 822.637,660.198 823.337,661.398 C824.837,664.098 827.837,665.798 831.737,666.198 C832.337,666.298 832.837,666.298 833.437,666.298 C836.937,666.298 840.637,665.298 844.137,663.398 C850.737,659.798 854.937,653.998 854.937,648.898 C854.937,647.498 854.637,646.098 853.937,644.898"/>
<path class="Note" d="M1087.16,669.9 C1085.66,667.2 1082.76,665.5 1078.86,665.1 C1078.26,665 1077.76,665 1077.16,665 C1073.66,665 1069.86,666 1066.36,667.9 C1059.76,671.5 1055.66,677.4 1055.66,682.5 C1055.66,683.9 1055.86,685.2 1056.56,686.4 C1058.06,689.1 1061.06,690.8 1064.96,691.2 C1065.56,691.3 1066.06,691.3 1066.66,691.3 C1070.16,691.3 1073.86,690.3 1077.36,688.4 C1083.96,684.8 1088.16,679 1088.16,673.9 C1088.16,672.5 1087.86,671.1 1087.16,669.9"/>
<path class="Note" d="M1264.17,644.898 C1262.67,642.198 1259.77,640.498 1255.87,640.098 C1255.27,639.998 1254.77,639.998 1254.17,639.998 C1250.67,639.998 1246.87,640.998 1243.37,642.898 C1236.77,646.498 1232.67,652.398 1232.67,657.498 C1232.67,658.898 1232.87,660.198 1233.57,661.398 C1235.07,664.098 1238.07,665.798 1241.97,666.198 C1242.57,666.298 1243.07,666.298 1243.67,666.298 C1247.17,666.298 1250.87,665.298 1254.37,663.398 C1260.97,659.798 1265.17,653.998 1265.17,648.898 C1265.17,647.498 1264.87,646.098 1264.17,644.898"/>
<path class="Note" d="M1441.17,607.396 C1439.67,604.696 1436.77,602.996 1432.87,602.596 C1432.27,602.496 1431.77,602.496 1431.17,602.496 C1427.67,602.496 1423.87,603.496 1420.37,605.396 C1413.77,608.996 1409.67,614.896 1409.67,619.996 C1409.67,621.396 1409.87,622.696 1410.57,623.896 C1412.07,626.596 1415.07,628.296 1418.97,628.696 C1419.57,628.796 1420.07,628.796 1420.67,628.796 C1424.17,628.796 1427.87,627.796 1431.37,625.896 C1437.97,622.296 1442.17,616.496 1442.17,611.396 C1442.17,609.996 1441.87,608.596 1441.17,607.396"/>
<path class="Note" d="M1675.08,644.898 C1673.58,642.198 1670.68,640.498 1666.78,640.098 C1666.18,639.998 1665.68,639.998 1665.08,639.998 C1661.58,639.998 1657.78,640.998 1654.28,642.898 C1647.68,646.498 1643.58,652.398 1643.58,657.498 C1643.58,658.898 1643.78,660.198 1644.48,661.398 C1645.98,664.098 1648.98,665.798 1652.88,666.198 C1653.48,666.298 1653.98,666.298 1654.58,666.298 C1658.08,666.298 1661.78,665.298 1665.28,663.398 C1671.88,659.798 1676.08,653.998 1676.08,648.898 C1676.08,647.498 1675.78,646.098 1675.08,644.898"/>
<path class="Note" d="M1844.94,607.396 C1843.44,604.696 1840.54,602.996 1836.64,602.596 C1836.04,602.496 1835.54,602.496 1834.94,602.496 C1831.44,602.496 1827.64,603.496 1824.14,605.396 C1817.54,608.996 1813.44,614.896 1813.44,619.996 C1813.44,621.396 1813.64,622.696 1814.34,623.896 C1815.84,626.596 1818.84,628.296 1822.74,628.696 C1823.34,628.796 1823.84,628.796 1824.44,628.796 C1827.94,628.796 1831.64,627.796 1835.14,625.896 C1841.74,622.296 1845.94,616.496 1845.94,611.396 C1845.94,609.996 1845.64,608.596 1844.94,607.396"/>
<path class="Note" d="M2014.8,582.395 C2013.3,579.695 2010.4,577.995 2006.5,577.595 C2005.9,577.495 2005.4,577.495 2004.8,577.495 C2001.3,577.495 1997.5,578.495 1994,580.395 C1987.4,583.995 1983.3,589.895 1983.3,594.995 C1983.3,596.395 1983.5,597.695 1984.2,598.895 C1985.7,601.595 1988.7,603.295 1992.6,603.695 C1993.2,603.795 1993.7,603.795 1994.3,603.795 C1997.8,603.795 2001.5,602.795 2005,600.895 C2011.6,597.295 2015.8,591.495 2015.8,586.395 C2015.8,584.995 2015.5,583.595 2014.8,582.395"/>
<path class="Note" d="M2230.42,607.396 C2228.92,604.696 2226.02,602.996 2222.12,602.596 C2221.52,602.496 2221.02,602.496 2220.42,602.496 C2216.92,602.496 2213.12,603.496 2209.62,605.396 C2203.02,608.996 2198.92,614.896 2198.92,619.996 C2198.92,621.396 2199.12,622.696 2199.82,623.896 C2201.32,626.596 2204.32,628.296 2208.22,628.696 C2208.82,628.796 2209.32,628.796 2209.92,628.796 C2213.42,628.796 2217.12,627.796 2220.62,625.896 C2227.22,622.296 2231.42,616.496 2231.42,611.396 C2231.42,609.996 2231.12,608.596 2230.42,607.396"/>
<path class="Note" d="M2417.49,582.395 C2415.99,579.695 2413.09,577.995 2409.19,577.595 C2408.59,577.495 2408.09,577.495 2407.49,577.495 C2403.99,577.495 2400.19,578.495 2396.69,580.395 C2390.09,583.995 2385.99,589.895 2385.99,594.995 C2385.99,596.395 2386.19,597.695 2386.89,598.895 C2388.39,601.595 2391.39,603.295 2395.29,603.695 C2395.89,603.795 2396.39,603.795 2396.99,603.795 C2400.49,603.795 2404.19,602.795 2407.69,600.895 C2414.29,597.295 2418.49,591.495 2418.49,586.395 C2418.49,584.995 2418.19,583.595 2417.49,582.395"/>
<path class="Note" d="M2604.56,557.393 C2603.06,554.693 2600.16,552.993 2596.26,552.593 C2595.66,552.493 2595.16,552.493 2594.56,552.493 C2591.06,552.493 2587.26,553.493 2583.76,555.393 C2577.16,558.993 2573.06,564.893 2573.06,569.993 C2573.06,571.393 2573.26,572.693 2573.96,573.893 C2575.46,576.593 2578.46,578.293 2582.36,578.693 C2582.96,578.793 2583.46,578.793 2584.06,578.793 C2587.56,578.793 2591.26,577.793 2594.76,575.893 C2601.36,572.293 2605.56,566.493 2605.56,561.393 C2605.56,559.993 2605.26,558.593 2604.56,557.393"/>
<path class="Note" d="M438.351,1169.93 C436.851,1167.23 433.951,1165.53 430.051,1165.13 C429.451,1165.03 428.951,1165.03 428.351,1165.03 C424.851,1165.03 421.051,1166.03 417.551,1167.93 C410.951,1171.53 406.851,1177.43 406.851,1182.53 C406.851,1183.93 407.051,1185.23 407.751,1186.43 C409.251,1189.13 412.251,1190.83 416.151,1191.23 C416.751,1191.33 417.251,1191.33 417.851,1191.33 C421.351,1191.33 425.051,1190.33 428.551,1188.43 C435.151,1184.83 439.351,1179.03 439.351,1173.93 C439.351,1172.53 439.051,1171.13 438.351,1169.93"/>
<path class="Note" d="M616.346,1194.93 C614.846,1192.23 611.946,1190.53 608.046,1190.13 C607.446,1190.03 606.946,1190.03 606.346,1190.03 C602.846,1190.03 599.046,1191.03 595.546,1192.93 C588.946,1196.53 584.846,1202.43 584.846,1207.53 C584.846,1208.93 585.046,1210.23 585.746,1211.43 C587.246,1214.13 590.246,1215.83 594.146,1216.23 C594.746,1216.33 595.246,1216.33 595.846,1216.33 C599.346,1216.33 603.046,1215.33 606.546,1213.43 C613.146,1209.83 617.346,1204.03 617.346,1198.93 C617.346,1197.53 617.046,1196.13 616.346,1194.93"/>
<path class="Note" d="M794.341,1219.93 C792.841,1217.23 789.941,1215.53 786.041,1215.13 C785.441,1215.03 784.941,1215.03 784.341,1215.03 C780.841,1215.03 777.041,1216.03 773.541,1217.93 C766.941,1221.53 762.841,1227.43 762.841,1232.53 C762.841,1233.93 763.041,1235.23 763.741,1236.43 C765.241,1239.13 768.241,1240.83 772.141,1241.23 C772.741,1241.33 773.241,1241.33 773.841,1241.33 C777.341,1241.33 781.041,1240.33 784.541,1238.43 C791.141,1234.83 795.341,1229.03 795.341,1223.93 C795.341,1222.53 795.041,1221.13 794.341,1219.93"/>
<path class="Note" d="M1018.09,1194.93 C1016.59,1192.23 1013.69,1190.53 1009.79,1190.13 C1009.19,1190.03 1008.69,1190.03 1008.09,1190.03 C1004.59,1190.03 1000.79,1191.03 997.288,1192.93 C990.688,1196.53 986.588,1202.43 986.588,1207.53 C986.588,1208.93 986.788,1210.23 987.488,1211.43 C988.988,1214.13 991.988,1215.83 995.888,1216.23 C996.488,1216.33 996.988,1216.33 997.588,1216.33 C1001.09,1216.33 1004.79,1215.33 1008.29,1213.43 C1014.89,1209.83 1019.09,1204.03 1019.09,1198.93 C1019.09,1197.53 1018.79,1196.13 1018.09,1194.93"/>
<path class="Note" d="M1204.48,1219.93 C1202.98,1217.23 1200.08,1215.53 1196.18,1215.13 C1195.58,1215.03 1195.08,1215.03 1194.48,1215.03 C1190.98,1215.03 1187.18,1216.03 1183.68,1217.93 C1177.08,1221.53 1172.98,1227.43 1172.98,1232.53 C1172.98,1233.93 1173.18,1235.23 1173.88,1236.43 C1175.38,1239.13 1178.38,1240.83 1182.28,1241.23 C1182.88,1241.33 1183.38,1241.33 1183.98,1241.33 C1187.48,1241.33 1191.18,1240.33 1194.68,1238.43 C1201.28,1234.83 1205.48,1229.03 1205.48,1223.93 C1205.48,1222.53 1205.18,1221.13 1204.48,1219.93"/>
<path class="Note" d="M1390.87,1257.44 C1389.37,1254.74 1386.47,1253.04 1382.57,1252.64 C1381.97,1252.54 1381.47,1252.54 1380.87,1252.54 C1377.37,1252.54 1373.57,1253.54 1370.07,1255.44 C1363.47,1259.04 1359.37,1264.94 1359.37,1270.04 C1359.37,1271.44 1359.57,1272.74 1360.27,1273.94 C1361.77,1276.64 1364.77,1278.34 1368.67,1278.74 C1369.27,1278.84 1369.77,1278.84 1370.37,1278.84 C1373.87,1278.84 1377.57,1277.84 1381.07,1275.94 C1387.67,1272.34 1391.87,1266.54 1391.87,1261.44 C1391.87,1260.04 1391.57,1258.64 1390.87,1257.44"/>
<path class="Note" d="M1623.01,1219.93 C1621.51,1217.23 1618.61,1215.53 1614.71,1215.13 C1614.11,1215.03 1613.61,1215.03 1613.01,1215.03 C1609.51,1215.03 1605.71,1216.03 1602.21,1217.93 C1595.61,1221.53 1591.51,1227.43 1591.51,1232.53 C1591.51,1233.93 1591.71,1235.23 1592.41,1236.43 C1593.91,1239.13 1596.91,1240.83 1600.81,1241.23 C1601.41,1241.33 1601.91,1241.33 1602.51,1241.33 C1606.01,1241.33 1609.71,1240.33 1613.21,1238.43 C1619.81,1234.83 1624.01,1229.03 1624.01,1223.93 C1624.01,1222.53 1623.71,1221.13 1623.01,1219.93"/>
<path class="Note" d="M1802.69,1257.44 C1801.19,1254.74 1798.29,1253.04 1794.39,1252.64 C1793.79,1252.54 1793.29,1252.54 1792.69,1252.54 C1789.19,1252.54 1785.39,1253.54 1781.89,1255.44 C1775.29,1259.04 1771.19,1264.94 1771.19,1270.04 C1771.19,1271.44 1771.39,1272.74 1772.09,1273.94 C1773.59,1276.64 1776.59,1278.34 1780.49,1278.74 C1781.09,1278.84 1781.59,1278.84 1782.19,1278.84 C1785.69,1278.84 1789.39,1277.84 1792.89,1275.94 C1799.49,1272.34 1803.69,1266.54 1803.69,1261.44 C1803.69,1260.04 1803.39,1258.64 1802.69,1257.44"/>
<path class="Note" d="M1982.37,1282.44 C1980.87,1279.74 1977.97,1278.04 1974.07,1277.64 C1973.47,1277.54 1972.97,1277.54 1972.37,1277.54 C1968.87,1277.54 1965.07,1278.54 1961.57,1280.44 C1954.97,1284.04 1950.87,1289.94 1950.87,1295.04 C1950.87,1296.44 1951.07,1297.74 1951.77,1298.94 C1953.27,1301.64 1956.27,1303.34 1960.17,1303.74 C1960.77,1303.84 1961.27,1303.84 1961.87,1303.84 C1965.37,1303.84 1969.07,1302.84 1972.57,1300.94 C1979.17,1297.34 1983.37,1291.54 1983.37,1286.44 C1983.37,1285.04 1983.07,1283.64 1982.37,1282.44"/>
<path class="Note" d="M2240.21,1257.44 C2238.71,1254.74 2235.81,1253.04 2231.91,1252.64 C2231.31,1252.54 2230.81,1252.54 2230.21,1252.54 C2226.71,1252.54 2222.91,1253.54 2219.41,1255.44 C2212.81,1259.04 2208.71,1264.94 2208.71,1270.04 C2208.71,1271.44 2208.91,1272.74 2209.61,1273.94 C2211.11,1276.64 2214.11,1278.34 2218.01,1278.74 C2218.61,1278.84 2219.11,1278.84 2219.71,1278.84 C2223.21,1278.84 2226.91,1277.84 2230.41,1275.94 C2237.01,1272.34 2241.21,1266.54 2241.21,1261.44 C2241.21,1260.04 2240.91,1258.64 2240.21,1257.44"/>
<path class="Note" d="M2414.85,1282.44 C2413.35,1279.74 2410.45,1278.04 2406.55,1277.64 C2405.95,1277.54 2405.45,1277.54 2404.85,1277.54 C2401.35,1277.54 2397.55,1278.54 2394.05,1280.44 C2387.45,1284.04 2383.35,1289.94 2383.35,1295.04 C2383.35,1296.44 2383.55,1297.74 2384.25,1298.94 C2385.75,1301.64 2388.75,1303.34 2392.65,1303.74 C2393.25,1303.84 2393.75,1303.84 2394.35,1303.84 C2397.85,1303.84 2401.55,1302.84 2405.05,1300.94 C2411.65,1297.34 2415.85,1291.54 2415.85,1286.44 C2415.85,1285.04 2415.55,1283.64 2414.85,1282.44"/>
<path class="Note" d="M2589.49,1307.44 C2587.99,1304.74 2585.09,1303.04 2581.19,1302.64 C2580.59,1302.54 2580.09,1302.54 2579.49,1302.54 C2575.99,1302.54 2572.19,1303.54 2568.69,1305.44 C2562.09,1309.04 2557.99,1314.94 2557.99,1320.04 C2557.99,1321.44 2558.19,1322.74 2558.89,1323.94 C2560.39,1326.64 2563.39,1328.34 2567.29,1328.74 C2567.89,1328.84 2568.39,1328.84 2568.99,1328.84 C2572.49,1328.84 2576.19,1327.84 2579.69,1325.94 C2586.29,1322.34 2590.49,1316.54 2590.49,1311.44 C2590.49,1310.04 2590.19,1308.64 2589.49,1307.44"/>
<path class="Clef" d="M297,915.517 C289.4,915.517 283.3,919.917 283.2,919.917 C277.4,924.217 275.1,929.317 274.2,932.817 C273.7,934.617 273.5,936.417 273.5,938.117 C273.5,940.517 273.9,942.717 274.8,944.617 C276,947.317 278.3,949.217 281.3,950.217 C282.5,950.617 283.8,950.817 285.1,950.817 C287.3,950.817 289.6,950.217 291.5,949.117 C294.6,947.417 296.5,943.817 296.5,939.917 C296.5,936.417 294.7,933.217 291.7,931.317 C289.6,929.917 287.6,929.517 285.9,929.517 C284.7,929.517 283.6,929.717 282.7,930.017 C281.7,930.417 280,931.417 279.2,932.117 C279.5,930.217 280.7,927.317 281.8,925.717 C282.9,924.117 285.1,922.117 286.8,921.217 C289.3,919.817 292.5,919.217 296,919.217 C306.2,919.217 311.2,927.417 311.2,944.217 C311.2,953.517 307.7,962.417 304.7,968.317 C301.4,974.917 297,981.217 293.1,984.717 C282.7,994.217 272.9,998.717 272.8,998.717 C272.8,998.717 271.3,999.617 271.7,1001.12 C272,1002.12 272.9,1002.32 273.5,1002.32 C273.6,1002.32 273.9,1002.22 274,1002.22 C274.1,1002.22 285.5,997.517 294.6,990.417 C299.7,986.717 304.3,982.717 308.3,978.417 C311.9,974.517 315,970.317 317.5,966.117 C321.9,958.617 324.4,950.817 324.4,944.117 C324.4,935.817 322.2,928.917 318.1,924.017 C313.4,918.417 306.3,915.517 297,915.517 M328.4,928.217 C328.4,931.017 330.6,933.217 333.2,933.217 C335.8,933.217 338,931.017 338,928.217 C338,925.417 335.8,923.117 333.2,923.117 C330.6,923.117 328.4,925.417 328.4,928.217 M328.4,952.917 C328.4,955.717 330.6,958.017 333.2,958.017 C335.8,958.017 338,955.717 338,952.917 C338,950.117 335.8,947.817 333.2,947.817 C330.6,947.817 328.4,950.117 328.4,952.917"/>
<path class="Clef" transform="matrix(0.80005,0,0,0.80005,954.957,990.62)" d="M63.4,-5.9 C62.2,-11.3 59.5,-15.2 58.7,-16.2 C55.5,-20.5 51.5,-23.3 46.8,-24.7 C44.5,-25.4 42.4,-25.6 40.4,-25.6 C39.7,-25.6 39,-25.6 38.3,-25.5 C37.3,-31.5 36.2,-37.4 35.3,-42.8 C40.9,-49 44.6,-54.9 47,-59.3 C50.6,-66 52,-70.7 52.1,-70.9 C53.3,-73.9 54,-77.7 54,-82.2 C54,-84.9 53.7,-87.8 53.3,-90.8 C52.2,-97.9 50,-104.6 47.5,-108.3 C46.2,-110.2 45,-111.3 43.8,-111.3 C42.6,-111.3 40.1,-110.1 37.2,-107.3 C34.9,-105.1 31.6,-101.2 29,-95.2 C26.7,-89.8 26,-82.9 26,-77 C26,-75.2 26.1,-73.5 26.2,-71.9 C26.4,-68.3 27.1,-62.5 27.7,-58.9 C27.7,-58.8 28,-57.3 28.4,-54.7 L27.7,-54 C26.7,-53 25.5,-51.9 24.1,-50.5 C23.2,-49.6 22.3,-48.8 21.3,-47.8 C12.8,-39.6 0,-27.2 0,-8.1 C0,-3.4 0.9,1 2.7,5 C4.3,8.6 6.6,11.9 9.5,14.8 C17,22.2 27.2,25.4 34.3,25.4 L34.9,25.4 C37.8,25.3 40.5,25 42.9,24.6 C44.7,34.2 45.9,41.3 45.9,46.6 C45.9,53.1 44.3,57 40.4,59.8 C38,61.5 35.1,62.6 32,62.7 L31.2,62.7 C29.7,62.7 27.2,62.3 25.7,61.9 C25.7,61.9 25.4,61.8 25.4,61.6 C25.4,61.4 25.8,61.4 25.8,61.4 C27.7,61 31.3,59.7 33.7,56.4 C34.8,54.9 35.5,52.6 35.5,50.1 C35.5,48.5 35.2,46.8 34.5,45.3 C33.4,42.9 30.8,39.9 25.2,39.5 L24.1,39.5 C22,39.5 20.2,40 18.5,41 C16.7,42.1 15.1,43.8 14.1,45.8 C13,47.8 12.5,50 12.5,52.2 C12.5,55.1 13.4,57.8 15.2,60 C18.2,63.6 22.9,65.9 28.3,66.5 C29,66.6 30.1,66.7 30.8,66.7 C35.2,66.7 39.6,65.5 43.2,63.3 C46.9,60.7 49,56.7 49.7,51.1 C49.9,49.8 49.9,48.4 49.9,46.9 C49.9,43 49.4,38.3 48.4,32.5 C48,30.4 47.6,27.4 46.9,23.6 C52.7,21.7 56.8,18 60.6,12.2 C62.9,8.2 64,4.1 64,-0.2 C64,-2.1 63.8,-4 63.4,-5.9 M33.2,-83.8 C35,-89.5 37.7,-92.9 39.7,-94.6 C41.5,-96.1 43.1,-96.8 44,-96.8 C44.1,-96.8 44.3,-96.7 44.4,-96.7 C44.7,-96.6 45.1,-96.1 45.5,-95.4 C46.4,-93.6 47.3,-90.3 47.3,-86.6 C47.3,-84.7 47.1,-82.7 46.5,-80.9 C44.3,-74.1 39.7,-66.8 32.7,-59.1 C32.5,-60.2 32.3,-61.2 32.2,-62.2 C31.7,-65.4 31.4,-68.6 31.4,-71.5 C31.4,-76 32,-80.1 33.2,-83.8 M29.2,20.3 C24.6,19.1 20.1,16.6 16.3,13.1 C15,11.9 13.2,9.7 11.7,6.3 C10.4,3.3 9.7,0.2 9.7,-3.2 L9.7,-3.9 C9.8,-8.6 11.1,-13.4 13.6,-18.2 C16.5,-23.8 21,-29.3 27.1,-34.6 C28.6,-35.9 30,-37.2 31.3,-38.5 C32.1,-34.2 32.8,-29.5 33.7,-24.6 C29.8,-23.3 25.1,-20.3 22,-14.6 C19.6,-10.1 18.9,-6.2 18.9,-3 C18.9,-1.5 19.1,-0.1 19.3,1 C20.2,5.5 22.8,9.2 26.3,11.3 C27.1,11.8 30.4,13.5 32.4,13.5 C32.7,13.5 33,13.5 33.2,13.4 C33.5,13.3 33.8,13.1 33.9,12.8 C34,12.6 34,12.4 34,12.2 C34,11.4 33.2,10.8 31.9,10 C31.3,9.6 30.6,9.2 29.9,8.7 C27.3,6.7 25.8,3.6 25.8,0.2 C25.8,-0.8 26,-1.7 26.2,-2.7 C26.7,-4.7 28.4,-7.5 29.9,-8.9 C31.6,-10.4 33.6,-11.6 36,-12.2 C38,-1 40.1,10.1 41.7,18.5 C41.8,19.2 42,19.9 42.1,20.6 C40.1,21 38.1,21.2 36.2,21.2 C33.8,21.2 31.5,20.9 29.2,20.3 M54.9,10.1 C53.7,13.3 51.2,17.3 46.1,19.4 C46,19 46,18.5 45.9,18.1 C44.4,9.3 42.5,-1.6 40.5,-12.9 L41.5,-12.9 C51.2,-12.9 55.1,-5.7 56,-1.1 C56.2,-0.2 56.3,1 56.3,2.3 C56.3,4.6 55.9,7.4 54.9,10.1"/>
<path class="Clef" d="M335,1597.26 C333.8,1591.86 331.1,1587.96 330.3,1586.96 C327.1,1582.66 323.1,1579.86 318.4,1578.46 C316.1,1577.76 314,1577.56 312,1577.56 C311.3,1577.56 310.6,1577.56 309.9,1577.66 C308.9,1571.66 307.8,1565.76 306.9,1560.36 C312.5,1554.16 316.2,1548.26 318.6,1543.86 C322.2,1537.16 323.6,1532.46 323.7,1532.26 C324.9,1529.26 325.6,1525.46 325.6,1520.96 C325.6,1518.26 325.3,1515.36 324.9,1512.36 C323.8,1505.26 321.6,1498.56 319.1,1494.86 C317.8,1492.96 316.6,1491.86 315.4,1491.86 C314.2,1491.86 311.7,1493.06 308.8,1495.86 C306.5,1498.06 303.2,1501.96 300.6,1507.96 C298.3,1513.36 297.6,1520.26 297.6,1526.16 C297.6,1527.96 297.7,1529.66 297.8,1531.26 C298,1534.86 298.7,1540.66 299.3,1544.26 C299.3,1544.36 299.6,1545.86 300,1548.46 L299.3,1549.16 C298.3,1550.16 297.1,1551.26 295.7,1552.66 C294.8,1553.56 293.9,1554.36 292.9,1555.36 C284.4,1563.56 271.6,1575.96 271.6,1595.06 C271.6,1599.76 272.5,1604.16 274.3,1608.16 C275.9,1611.76 278.2,1615.06 281.1,1617.96 C288.6,1625.36 298.8,1628.56 305.9,1628.56 L306.5,1628.56 C309.4,1628.46 312.1,1628.16 314.5,1627.76 C316.3,1637.36 317.5,1644.46 317.5,1649.76 C317.5,1656.26 315.9,1660.16 312,1662.96 C309.6,1664.66 306.7,1665.76 303.6,1665.86 L302.8,1665.86 C301.3,1665.86 298.8,1665.46 297.3,1665.06 C297.3,1665.06 297,1664.96 297,1664.76 C297,1664.56 297.4,1664.56 297.4,1664.56 C299.3,1664.16 302.9,1662.86 305.3,1659.56 C306.4,1658.06 307.1,1655.76 307.1,1653.26 C307.1,1651.66 306.8,1649.96 306.1,1648.46 C305,1646.06 302.4,1643.06 296.8,1642.66 L295.7,1642.66 C293.6,1642.66 291.8,1643.16 290.1,1644.16 C288.3,1645.26 286.7,1646.96 285.7,1648.96 C284.6,1650.96 284.1,1653.16 284.1,1655.36 C284.1,1658.26 285,1660.96 286.8,1663.16 C289.8,1666.76 294.5,1669.06 299.9,1669.66 C300.6,1669.76 301.7,1669.86 302.4,1669.86 C306.8,1669.86 311.2,1668.66 314.8,1666.46 C318.5,1663.86 320.6,1659.86 321.3,1654.26 C321.5,1652.96 321.5,1651.56 321.5,1650.06 C321.5,1646.16 321,1641.46 320,1635.66 C319.6,1633.56 319.2,1630.56 318.5,1626.76 C324.3,1624.86 328.4,1621.16 332.2,1615.36 C334.5,1611.36 335.6,1607.26 335.6,1602.96 C335.6,1601.06 335.4,1599.16 335,1597.26 M304.8,1519.36 C306.6,1513.66 309.3,1510.26 311.3,1508.56 C313.1,1507.06 314.7,1506.36 315.6,1506.36 C315.7,1506.36 315.9,1506.46 316,1506.46 C316.3,1506.56 316.7,1507.06 317.1,1507.76 C318,1509.56 318.9,1512.86 318.9,1516.56 C318.9,1518.46 318.7,1520.46 318.1,1522.26 C315.9,1529.06 311.3,1536.36 304.3,1544.06 C304.1,1542.96 303.9,1541.96 303.8,1540.96 C303.3,1537.76 303,1534.56 303,1531.66 C303,1527.16 303.6,1523.06 304.8,1519.36 M300.8,1623.46 C296.2,1622.26 291.7,1619.76 287.9,1616.26 C286.6,1615.06 284.8,1612.86 283.3,1609.46 C282,1606.46 281.3,1603.36 281.3,1599.96 L281.3,1599.26 C281.4,1594.56 282.7,1589.76 285.2,1584.96 C288.1,1579.36 292.6,1573.86 298.7,1568.56 C300.2,1567.26 301.6,1565.96 302.9,1564.66 C303.7,1568.96 304.4,1573.66 305.3,1578.56 C301.4,1579.86 296.7,1582.86 293.6,1588.56 C291.2,1593.06 290.5,1596.96 290.5,1600.16 C290.5,1601.66 290.7,1603.06 290.9,1604.16 C291.8,1608.66 294.4,1612.36 297.9,1614.46 C298.7,1614.96 302,1616.66 304,1616.66 C304.3,1616.66 304.6,1616.66 304.8,1616.56 C305.1,1616.46 305.4,1616.26 305.5,1615.96 C305.6,1615.76 305.6,1615.56 305.6,1615.36 C305.6,1614.56 304.8,1613.96 303.5,1613.16 C302.9,1612.76 302.2,1612.36 301.5,1611.86 C298.9,1609.86 297.4,1606.76 297.4,1603.36 C297.4,1602.36 297.6,1601.46 297.8,1600.46 C298.3,1598.46 300,1595.66 301.5,1594.26 C303.2,1592.76 305.2,1591.56 307.6,1590.96 C309.6,1602.16 311.7,1613.26 313.3,1621.66 C313.4,1622.36 313.6,1623.06 313.7,1623.76 C311.7,1624.16 309.7,1624.36 307.8,1624.36 C305.4,1624.36 303.1,1624.06 300.8,1623.46 M326.5,1613.26 C325.3,1616.46 322.8,1620.46 317.7,1622.56 C317.6,1622.16 317.6,1621.66 317.5,1621.26 C316,1612.46 314.1,1601.56 312.1,1590.26 L313.1,1590.26 C322.8,1590.26 326.7,1597.46 327.6,1602.06 C327.8,1602.96 327.9,1604.16 327.9,1605.46 C327.9,1607.76 327.5,1610.56 326.5,1613.26"/>
<path class="Clef" transform="matrix(0.80005,0,0,0.80005,2077.43,1553.16)" d="M25.4,-25.1 C17.8,-25.1 11.7,-20.7 11.6,-20.7 C5.8,-16.4 3.5,-11.3 2.6,-7.8 C2.1,-6 1.9,-4.2 1.9,-2.5 C1.9,-0.1 2.3,2.1 3.2,4 C4.4,6.7 6.7,8.6 9.7,9.6 C10.9,10 12.2,10.2 13.5,10.2 C15.7,10.2 18,9.6 19.9,8.5 C23,6.8 24.9,3.2 24.9,-0.7 C24.9,-4.2 23.1,-7.4 20.1,-9.3 C18,-10.7 16,-11.1 14.3,-11.1 C13.1,-11.1 12,-10.9 11.1,-10.6 C10.1,-10.2 8.4,-9.2 7.6,-8.5 C7.9,-10.4 9.1,-13.3 10.2,-14.9 C11.3,-16.5 13.5,-18.5 15.2,-19.4 C17.7,-20.8 20.9,-21.4 24.4,-21.4 C34.6,-21.4 39.6,-13.2 39.6,3.6 C39.6,12.9 36.1,21.8 33.1,27.7 C29.8,34.3 25.4,40.6 21.5,44.1 C11.1,53.6 1.3,58.1 1.2,58.1 C1.2,58.1 -0.3,59 0.1,60.5 C0.4,61.5 1.3,61.7 1.9,61.7 C2,61.7 2.3,61.6 2.4,61.6 C2.5,61.6 13.9,56.9 23,49.8 C28.1,46.1 32.7,42.1 36.7,37.8 C40.3,33.9 43.4,29.7 45.9,25.5 C50.3,18 52.8,10.2 52.8,3.5 C52.8,-4.8 50.6,-11.7 46.5,-16.6 C41.8,-22.2 34.7,-25.1 25.4,-25.1 M56.8,-12.4 C56.8,-9.6 59,-7.4 61.6,-7.4 C64.2,-7.4 66.4,-9.6 66.4,-12.4 C66.4,-15.2 64.2,-17.5 61.6,-17.5 C59,-17.5 56.8,-15.2 56.8,-12.4 M56.8,12.3 C56.8,15.1 59,17.4 61.6,17.4 C64.2,17.4 66.4,15.1 66.4,12.3 C66.4,9.5 64.2,7.2 61.6,7.2 C59,7.2 56.8,9.5 56.8,12.3"/>
<path class="Clef" d="M335,722.203 C333.8,716.803 331.1,712.903 330.3,711.903 C327.1,707.603 323.1,704.803 318.4,703.403 C316.1,702.703 314,702.503 312,702.503 C311.3,702.503 310.6,702.503 309.9,702.603 C308.9,696.603 307.8,690.703 306.9,685.303 C312.5,679.103 316.2,673.203 318.6,668.803 C322.2,662.103 323.6,657.403 323.7,657.203 C324.9,654.203 325.6,650.403 325.6,645.903 C325.6,643.203 325.3,640.303 324.9,637.303 C323.8,630.203 321.6,623.503 319.1,619.803 C317.8,617.903 316.6,616.803 315.4,616.803 C314.2,616.803 311.7,618.003 308.8,620.803 C306.5,623.003 303.2,626.903 300.6,632.903 C298.3,638.303 297.6,645.203 297.6,651.103 C297.6,652.903 297.7,654.603 297.8,656.203 C298,659.803 298.7,665.603 299.3,669.203 C299.3,669.303 299.6,670.803 300,673.403 L299.3,674.103 C298.3,675.103 297.1,676.203 295.7,677.603 C294.8,678.503 293.9,679.303 292.9,680.303 C284.4,688.503 271.6,700.903 271.6,720.003 C271.6,724.703 272.5,729.103 274.3,733.103 C275.9,736.703 278.2,740.003 281.1,742.903 C288.6,750.303 298.8,753.503 305.9,753.503 L306.5,753.503 C309.4,753.403 312.1,753.103 314.5,752.703 C316.3,762.303 317.5,769.403 317.5,774.703 C317.5,781.203 315.9,785.103 312,787.903 C309.6,789.603 306.7,790.703 303.6,790.803 L302.8,790.803 C301.3,790.803 298.8,790.403 297.3,790.003 C297.3,790.003 297,789.903 297,789.703 C297,789.503 297.4,789.503 297.4,789.503 C299.3,789.103 302.9,787.803 305.3,784.503 C306.4,783.003 307.1,780.703 307.1,778.203 C307.1,776.603 306.8,774.903 306.1,773.403 C305,771.003 302.4,768.003 296.8,767.603 L295.7,767.603 C293.6,767.603 291.8,768.103 290.1,769.103 C288.3,770.203 286.7,771.903 285.7,773.903 C284.6,775.903 284.1,778.103 284.1,780.303 C284.1,783.203 285,785.903 286.8,788.103 C289.8,791.703 294.5,794.003 299.9,794.603 C300.6,794.703 301.7,794.803 302.4,794.803 C306.8,794.803 311.2,793.603 314.8,791.403 C318.5,788.803 320.6,784.803 321.3,779.203 C321.5,777.903 321.5,776.503 321.5,775.003 C321.5,771.103 321,766.403 320,760.603 C319.6,758.503 319.2,755.503 318.5,751.703 C324.3,749.803 328.4,746.103 332.2,740.303 C334.5,736.303 335.6,732.203 335.6,727.903 C335.6,726.003 335.4,724.103 335,722.203 M304.8,644.303 C306.6,638.603 309.3,635.203 311.3,633.503 C313.1,632.003 314.7,631.303 315.6,631.303 C315.7,631.303 315.9,631.403 316,631.403 C316.3,631.503 316.7,632.003 317.1,632.703 C318,634.503 318.9,637.803 318.9,641.503 C318.9,643.403 318.7,645.403 318.1,647.203 C315.9,654.003 311.3,661.303 304.3,669.003 C304.1,667.903 303.9,666.903 303.8,665.903 C303.3,662.703 303,659.503 303,656.603 C303,652.103 303.6,648.003 304.8,644.303 M300.8,748.403 C296.2,747.203 291.7,744.703 287.9,741.203 C286.6,740.003 284.8,737.803 283.3,734.403 C282,731.403 281.3,728.303 281.3,724.903 L281.3,724.203 C281.4,719.503 282.7,714.703 285.2,709.903 C288.1,704.303 292.6,698.803 298.7,693.503 C300.2,692.203 301.6,690.903 302.9,689.603 C303.7,693.903 304.4,698.603 305.3,703.503 C301.4,704.803 296.7,707.803 293.6,713.503 C291.2,718.003 290.5,721.903 290.5,725.103 C290.5,726.603 290.7,728.003 290.9,729.103 C291.8,733.603 294.4,737.303 297.9,739.403 C298.7,739.903 302,741.603 304,741.603 C304.3,741.603 304.6,741.603 304.8,741.503 C305.1,741.403 305.4,741.203 305.5,740.903 C305.6,740.703 305.6,740.503 305.6,740.303 C305.6,739.503 304.8,738.903 303.5,738.103 C302.9,737.703 302.2,737.303 301.5,736.803 C298.9,734.803 297.4,731.703 297.4,728.303 C297.4,727.303 297.6,726.403 297.8,725.403 C298.3,723.403 300,720.603 301.5,719.203 C303.2,717.703 305.2,716.503 307.6,715.903 C309.6,727.103 311.7,738.203 313.3,746.603 C313.4,747.303 313.6,748.003 313.7,748.703 C311.7,749.103 309.7,749.303 307.8,749.303 C305.4,749.303 303.1,749.003 300.8,748.403 M326.5,738.203 C325.3,741.403 322.8,745.403 317.7,747.503 C317.6,747.103 317.6,746.603 317.5,746.203 C316,737.403 314.1,726.503 312.1,715.203 L313.1,715.203 C322.8,715.203 326.7,722.403 327.6,727.003 C327.8,727.903 327.9,729.103 327.9,730.403 C327.9,732.703 327.5,735.503 326.5,738.203"/>
<path class="Clef" d="M335,1334.74 C333.8,1329.34 331.1,1325.44 330.3,1324.44 C327.1,1320.14 323.1,1317.34 318.4,1315.94 C316.1,1315.24 314,1315.04 312,1315.04 C311.3,1315.04 310.6,1315.04 309.9,1315.14 C308.9,1309.14 307.8,1303.24 306.9,1297.84 C312.5,1291.64 316.2,1285.74 318.6,1281.34 C322.2,1274.64 323.6,1269.94 323.7,1269.74 C324.9,1266.74 325.6,1262.94 325.6,1258.44 C325.6,1255.74 325.3,1252.84 324.9,1249.84 C323.8,1242.74 321.6,1236.04 319.1,1232.34 C317.8,1230.44 316.6,1229.34 315.4,1229.34 C314.2,1229.34 311.7,1230.54 308.8,1233.34 C306.5,1235.54 303.2,1239.44 300.6,1245.44 C298.3,1250.84 297.6,1257.74 297.6,1263.64 C297.6,1265.44 297.7,1267.14 297.8,1268.74 C298,1272.34 298.7,1278.14 299.3,1281.74 C299.3,1281.84 299.6,1283.34 300,1285.94 L299.3,1286.64 C298.3,1287.64 297.1,1288.74 295.7,1290.14 C294.8,1291.04 293.9,1291.84 292.9,1292.84 C284.4,1301.04 271.6,1313.44 271.6,1332.54 C271.6,1337.24 272.5,1341.64 274.3,1345.64 C275.9,1349.24 278.2,1352.54 281.1,1355.44 C288.6,1362.84 298.8,1366.04 305.9,1366.04 L306.5,1366.04 C309.4,1365.94 312.1,1365.64 314.5,1365.24 C316.3,1374.84 317.5,1381.94 317.5,1387.24 C317.5,1393.74 315.9,1397.64 312,1400.44 C309.6,1402.14 306.7,1403.24 303.6,1403.34 L302.8,1403.34 C301.3,1403.34 298.8,1402.94 297.3,1402.54 C297.3,1402.54 297,1402.44 297,1402.24 C297,1402.04 297.4,1402.04 297.4,1402.04 C299.3,1401.64 302.9,1400.34 305.3,1397.04 C306.4,1395.54 307.1,1393.24 307.1,1390.74 C307.1,1389.14 306.8,1387.44 306.1,1385.94 C305,1383.54 302.4,1380.54 296.8,1380.14 L295.7,1380.14 C293.6,1380.14 291.8,1380.64 290.1,1381.64 C288.3,1382.74 286.7,1384.44 285.7,1386.44 C284.6,1388.44 284.1,1390.64 284.1,1392.84 C284.1,1395.74 285,1398.44 286.8,1400.64 C289.8,1404.24 294.5,1406.54 299.9,1407.14 C300.6,1407.24 301.7,1407.34 302.4,1407.34 C306.8,1407.34 311.2,1406.14 314.8,1403.94 C318.5,1401.34 320.6,1397.34 321.3,1391.74 C321.5,1390.44 321.5,1389.04 321.5,1387.54 C321.5,1383.64 321,1378.94 320,1373.14 C319.6,1371.04 319.2,1368.04 318.5,1364.24 C324.3,1362.34 328.4,1358.64 332.2,1352.84 C334.5,1348.84 335.6,1344.74 335.6,1340.44 C335.6,1338.54 335.4,1336.64 335,1334.74 M304.8,1256.84 C306.6,1251.14 309.3,1247.74 311.3,1246.04 C313.1,1244.54 314.7,1243.84 315.6,1243.84 C315.7,1243.84 315.9,1243.94 316,1243.94 C316.3,1244.04 316.7,1244.54 317.1,1245.24 C318,1247.04 318.9,1250.34 318.9,1254.04 C318.9,1255.94 318.7,1257.94 318.1,1259.74 C315.9,1266.54 311.3,1273.84 304.3,1281.54 C304.1,1280.44 303.9,1279.44 303.8,1278.44 C303.3,1275.24 303,1272.04 303,1269.14 C303,1264.64 303.6,1260.54 304.8,1256.84 M300.8,1360.94 C296.2,1359.74 291.7,1357.24 287.9,1353.74 C286.6,1352.54 284.8,1350.34 283.3,1346.94 C282,1343.94 281.3,1340.84 281.3,1337.44 L281.3,1336.74 C281.4,1332.04 282.7,1327.24 285.2,1322.44 C288.1,1316.84 292.6,1311.34 298.7,1306.04 C300.2,1304.74 301.6,1303.44 302.9,1302.14 C303.7,1306.44 304.4,1311.14 305.3,1316.04 C301.4,1317.34 296.7,1320.34 293.6,1326.04 C291.2,1330.54 290.5,1334.44 290.5,1337.64 C290.5,1339.14 290.7,1340.54 290.9,1341.64 C291.8,1346.14 294.4,1349.84 297.9,1351.94 C298.7,1352.44 302,1354.14 304,1354.14 C304.3,1354.14 304.6,1354.14 304.8,1354.04 C305.1,1353.94 305.4,1353.74 305.5,1353.44 C305.6,1353.24 305.6,1353.04 305.6,1352.84 C305.6,1352.04 304.8,1351.44 303.5,1350.64 C302.9,1350.24 302.2,1349.84 301.5,1349.34 C298.9,1347.34 297.4,1344.24 297.4,1340.84 C297.4,1339.84 297.6,1338.94 297.8,1337.94 C298.3,1335.94 300,1333.14 301.5,1331.74 C303.2,1330.24 305.2,1329.04 307.6,1328.44 C309.6,1339.64 311.7,1350.74 313.3,1359.14 C313.4,1359.84 313.6,1360.54 313.7,1361.24 C311.7,1361.64 309.7,1361.84 307.8,1361.84 C305.4,1361.84 303.1,1361.54 300.8,1360.94 M326.5,1350.74 C325.3,1353.94 322.8,1357.94 317.7,1360.04 C317.6,1359.64 317.6,1359.14 317.5,1358.74 C316,1349.94 314.1,1339.04 312.1,1327.74 L313.1,1327.74 C322.8,1327.74 326.7,1334.94 327.6,1339.54 C327.8,1340.44 327.9,1341.64 327.9,1342.94 C327.9,1345.24 327.5,1348.04 326.5,1350.74"/>
<path class="TimeSig" d="M392.053,939.517 L392.253,939.517 C400.253,936.417 400.753,931.217 400.753,929.417 L400.753,928.917 C400.753,928.017 400.453,916.717 383.253,916.717 C366.053,916.717 366.553,928.917 366.553,928.917 L366.653,928.917 L366.553,929.117 C366.553,932.717 369.453,935.517 373.053,935.517 C376.653,935.517 379.453,932.717 379.453,929.117 C379.453,926.217 377.253,923.417 374.453,922.817 L374.753,922.517 C376.153,921.517 378.053,921.017 379.953,921.017 C384.153,921.017 388.653,923.517 388.653,928.917 C388.653,935.217 383.953,936.117 382.753,936.317 C381.553,936.517 375.953,936.917 374.753,936.917 C373.553,936.917 373.453,938.317 373.453,938.317 L373.453,940.317 C373.453,940.317 373.653,941.417 374.753,941.517 C376.453,941.617 378.753,941.617 381.953,942.117 C386.353,942.717 388.653,945.717 388.653,952.717 C388.653,959.417 384.153,961.217 379.953,961.217 C377.153,961.217 374.553,960.417 373.453,959.617 C376.753,959.417 379.453,956.517 379.453,953.217 C379.453,949.617 376.653,946.717 373.053,946.717 C369.453,946.717 366.553,949.617 366.553,953.217 C366.553,953.217 366.053,957.717 370.453,961.817 C374.353,965.417 379.253,965.517 381.453,965.517 C391.053,965.517 401.453,962.217 401.453,951.317 C401.453,944.017 396.453,940.917 392.053,939.517"/>
<path class="TimeSig" d="M365.2,1002.62 L382,1002.62 L382,1009.92 L373.9,1009.92 C373.1,1009.92 372.5,1010.52 372.5,1011.32 L372.5,1013.22 C372.5,1014.02 373.1,1014.52 373.9,1014.52 L403.6,1014.52 C404.4,1014.52 405,1014.02 405,1013.22 L405,1011.32 C405,1010.52 404.4,1009.92 403.6,1009.92 L394.8,1009.92 L394.8,1002.62 L403.6,1002.62 C404.4,1002.62 405,1002.02 405,1001.22 L405,999.42 C405,998.62 404.4,998.02 403.6,998.02 L394.8,998.02 L394.8,982.32 C394.8,981.82 394.4,981.32 394,981.12 L392.9,980.52 C392.7,980.42 392.4,980.42 392.2,980.42 C391.9,980.42 391.5,980.52 391.3,980.72 L382.4,988.92 C382.2,989.12 382,989.62 382,989.92 L382,998.02 L370.7,998.02 C370.7,998.02 381.6,986.22 393.2,970.72 C394,969.62 393.6,968.62 393.4,968.42 L391.3,966.22 C391.1,966.02 390.6,965.82 390.3,965.82 L375.7,965.82 C375,965.82 374.5,966.42 374.4,967.02 C374.4,967.02 373.9,974.22 371.3,982.22 C368.7,990.22 365.9,995.02 363.3,998.62 C363.3,998.62 362.8,999.62 363.1,1000.32 C363.4,1001.02 364.1,1002.12 364.1,1002.12 C364.1,1002.12 364.4,1002.62 365.2,1002.62"/>
<path class="TimeSig" d="M392.053,677 L392.253,677 C400.253,673.9 400.753,668.7 400.753,666.9 L400.753,666.4 C400.753,665.5 400.453,654.2 383.253,654.2 C366.053,654.2 366.553,666.4 366.553,666.4 L366.653,666.4 L366.553,666.6 C366.553,670.2 369.453,673 373.053,673 C376.653,673 379.453,670.2 379.453,666.6 C379.453,663.7 377.253,660.9 374.453,660.3 L374.753,660 C376.153,659 378.053,658.5 379.953,658.5 C384.153,658.5 388.653,661 388.653,666.4 C388.653,672.7 383.953,673.6 382.753,673.8 C381.553,674 375.953,674.4 374.753,674.4 C373.553,674.4 373.453,675.8 373.453,675.8 L373.453,677.8 C373.453,677.8 373.653,678.9 374.753,679 C376.453,679.1 378.753,679.1 381.953,679.6 C386.353,680.2 388.653,683.2 388.653,690.2 C388.653,696.9 384.153,698.7 379.953,698.7 C377.153,698.7 374.553,697.9 373.453,697.1 C376.753,696.9 379.453,694 379.453,690.7 C379.453,687.1 376.653,684.2 373.053,684.2 C369.453,684.2 366.553,687.1 366.553,690.7 C366.553,690.7 366.053,695.2 370.453,699.3 C374.353,702.9 379.253,703 381.453,703 C391.053,703 401.453,699.7 401.453,688.8 C401.453,681.5 396.453,678.4 392.053,677"/>
<path class="TimeSig" d="M365.2,740.104 L382,740.104 L382,747.404 L373.9,747.404 C373.1,747.404 372.5,748.004 372.5,748.804 L372.5,750.704 C372.5,751.504 373.1,752.004 373.9,752.004 L403.6,752.004 C404.4,752.004 405,751.504 405,750.704 L405,748.804 C405,748.004 404.4,747.404 403.6,747.404 L394.8,747.404 L394.8,740.104 L403.6,740.104 C404.4,740.104 405,739.504 405,738.704 L405,736.904 C405,736.104 404.4,735.504 403.6,735.504 L394.8,735.504 L394.8,719.804 C394.8,719.304 394.4,718.804 394,718.604 L392.9,718.004 C392.7,717.904 392.4,717.904 392.2,717.904 C391.9,717.904 391.5,718.004 391.3,718.204 L382.4,726.404 C382.2,726.604 382,727.104 382,727.404 L382,735.504 L370.7,735.504 C370.7,735.504 381.6,723.704 393.2,708.204 C394,707.104 393.6,706.104 393.4,705.904 L391.3,703.704 C391.1,703.504 390.6,703.304 390.3,703.304 L375.7,703.304 C375,703.304 374.5,703.904 374.4,704.504 C374.4,704.504 373.9,711.704 371.3,719.704 C368.7,727.704 365.9,732.504 363.3,736.104 C363.3,736.104 362.8,737.104 363.1,737.804 C363.4,738.504 364.1,739.604 364.1,739.604 C364.1,739.604 364.4,740.104 365.2,740.104"/>
<path class="Page" d="M217.604,4050.77 C218.054,4045.14 218.279,4043.66 219.269,4041.36 C220.574,4038.17 222.959,4036.32 225.794,4036.32 C227.369,4036.32 228.314,4036.82 228.314,4037.63 C228.314,4037.81 228.269,4037.94 228.089,4038.26 C227.639,4039.11 227.414,4039.79 227.414,4040.42 C227.414,4041.9 228.584,4043.03 230.159,4043.03 C231.914,4043.03 233.129,4041.68 233.129,4039.79 C233.129,4036.68 230.024,4034.39 225.749,4034.39 C222.059,4034.39 218.594,4036.14 216.434,4039.16 C213.959,4042.62 212.609,4047.3 212.609,4052.21 C212.609,4061.03 216.929,4066.74 223.589,4066.74 C226.514,4066.74 228.944,4065.75 230.834,4063.77 C232.769,4061.79 233.939,4058.87 233.939,4055.99 C233.939,4050.68 230.159,4046.72 225.029,4046.72 C221.969,4046.72 219.719,4047.93 217.604,4050.77 M223.769,4049.46 C227.054,4049.46 229.034,4052.03 229.034,4056.3 C229.034,4061.52 226.964,4064.81 223.679,4064.81 C221.609,4064.81 220.034,4063.73 218.954,4061.52 C218.234,4060.13 217.874,4058.6 217.874,4056.93 C217.874,4052.3 220.124,4049.46 223.769,4049.46 M243.114,4039.47 C245.544,4040.06 246.759,4040.24 248.559,4040.24 C252.384,4040.24 255.174,4038.93 256.659,4036.41 C257.154,4035.6 257.334,4035.15 257.334,4034.79 C257.334,4034.52 257.244,4034.39 256.974,4034.39 C256.839,4034.39 256.659,4034.43 256.389,4034.57 C254.184,4035.51 253.014,4035.74 250.404,4035.74 C247.524,4035.74 245.724,4035.47 241.134,4034.39 C240.954,4038.17 240.549,4042.98 239.919,4048.56 C238.974,4049.55 238.659,4050.14 238.659,4050.86 C238.659,4051.8 239.244,4052.39 240.099,4052.39 C241.269,4052.39 241.944,4051.44 242.124,4049.64 C243.699,4048.52 245.184,4048.02 246.984,4048.02 C251.034,4048.02 253.419,4051.08 253.419,4056.26 C253.419,4059.27 252.654,4061.84 251.304,4063.23 C250.404,4064.18 248.559,4064.81 246.714,4064.81 C244.014,4064.81 241.224,4063.41 241.224,4062.02 C241.224,4061.7 241.494,4061.34 242.034,4061.03 C243.429,4060.17 243.834,4059.59 243.834,4058.37 C243.834,4056.8 242.619,4055.58 240.999,4055.58 C239.199,4055.58 237.759,4057.25 237.759,4059.36 C237.759,4061.61 239.064,4063.86 241.089,4065.26 C242.619,4066.25 244.419,4066.74 246.804,4066.74 C253.869,4066.74 258.324,4062.6 258.324,4055.99 C258.324,4049.87 254.274,4045.77 248.154,4045.77 C246.219,4045.77 244.824,4046.09 242.349,4047.12 L243.114,4039.47 "/>
<path class="Bracket" transform="matrix(3.62523,0,0,3.62523,214.469,1015.62)" d="M0.92002,-50 C2.69004,-51.88 6.2,-55.8 6.2,-63 C6.2,-72.1 2.25996,-81.32 2.25996,-86.97 C2.25996,-93.06 5.84004,-98.84 5.95,-99 C6.05996,-99.16 6.05,-99.39 5.94004,-99.46 C5.82998,-99.53 5.62002,-99.47 5.49004,-99.32 C5.35996,-99.17 0,-93.75 0,-85.6 C0,-76.75 3.5,-70.58 3.5,-59.07 C3.5,-56.89 2.55996,-53.36 0.1,-50.33 C-0.0799805,-50.17 -0.1,-49.89 0.0599609,-49.7 L0.0700195,-49.69 L0.1,-49.66 C2.55996,-46.63 3.5,-43.1 3.5,-40.92 C3.5,-29.4 0,-23.24 0,-14.39 C0,-6.25 5.35996,-0.8 5.49004,-0.659961 C5.62002,-0.52002 5.8,-0.42998 5.94004,-0.52002 C6.07998,-0.609961 6.07998,-0.77998 5.95,-0.97998 C5.82002,-1.17998 2.25996,-6.92002 2.25996,-13.01 C2.25996,-18.66 6.2,-27.9 6.2,-37 C6.2,-44.3 2.69004,-48.12 0.92002,-50"/>
<path class="Bracket" transform="matrix(3.62523,0,0,3.62523,214.469,1628.16)" d="M0.92002,-50 C2.69004,-51.88 6.2,-55.8 6.2,-63 C6.2,-72.1 2.25996,-81.32 2.25996,-86.97 C2.25996,-93.06 5.84004,-98.84 5.95,-99 C6.05996,-99.16 6.05,-99.39 5.94004,-99.46 C5.82998,-99.53 5.62002,-99.47 5.49004,-99.32 C5.35996,-99.17 0,-93.75 0,-85.6 C0,-76.75 3.5,-70.58 3.5,-59.07 C3.5,-56.89 2.55996,-53.36 0.1,-50.33 C-0.0799805,-50.17 -0.1,-49.89 0.0599609,-49.7 L0.0700195,-49.69 L0.1,-49.66 C2.55996,-46.63 3.5,-43.1 3.5,-40.92 C3.5,-29.4 0,-23.24 0,-14.39 C0,-6.25 5.35996,-0.8 5.49004,-0.659961 C5.62002,-0.52002 5.8,-0.42998 5.94004,-0.52002 C6.07998,-0.609961 6.07998,-0.77998 5.95,-0.97998 C5.82002,-1.17998 2.25996,-6.92002 2.25996,-13.01 C2.25996,-18.66 6.2,-27.9 6.2,-37 C6.2,-44.3 2.69004,-48.12 0.92002,-50"/>
</svg>