<?xml version="1.0" encoding="UTF-8" standalone="no"?>
<svg width="1000px" height="500px" viewBox="150 650 2700 1000" xmlns="http://www.w3.org/2000/svg" xmlns:xlink="http://www.w3.org/1999/xlink" version="1.2" baseProfile="tiny">
 xmlns="http://www.w3.org/2000/svg" xmlns:xlink="http://www.w3.org/1999/xlink" version="1.2" baseProfile="tiny">
<title>exercises_scores (47)</title>
<desc>Generated by MuseScore 3.6.0</desc>
<polyline class="StaffLines" fill="none" stroke="#000000" stroke-width="2.75" stroke-linejoin="bevel" points="247.099,656.536 2764.63,656.536"/>
<polyline class="StaffLines" fill="none" stroke="#000000" stroke-width="2.75" stroke-linejoin="bevel" points="247.099,681.538 2764.63,681.538"/>
<polyline class="StaffLines" fill="none" stroke="#000000" stroke-width="2.75" stroke-linejoin="bevel" points="247.099,706.539 2764.63,706.539"/>
<polyline class="StaffLines" fill="none" stroke="#000000" stroke-width="2.75" stroke-linejoin="bevel" points="247.099,731.541 2764.63,731.541"/>
<polyline class="StaffLines" fill="none" stroke="#000000" stroke-width="2.75" stroke-linejoin="bevel" points="247.099,756.542 2764.63,756.542"/>
<polyline class="StaffLines" fill="none" stroke="#000000" stroke-width="2.75" stroke-linejoin="bevel" points="247.099,919.053 2764.63,919.053"/>
<polyline class="StaffLines" fill="none" stroke="#000000" stroke-width="2.75" stroke-linejoin="bevel" points="247.099,944.054 2764.63,944.054"/>
<polyline class="StaffLines" fill="none" stroke="#000000" stroke-width="2.75" stroke-linejoin="bevel" points="247.099,969.056 2764.63,969.056"/>
<polyline class="StaffLines" fill="none" stroke="#000000" stroke-width="2.75" stroke-linejoin="bevel" points="247.099,994.057 2764.63,994.057"/>
<polyline class="StaffLines" fill="none" stroke="#000000" stroke-width="2.75" stroke-linejoin="bevel" points="247.099,1019.06 2764.63,1019.06"/>
<polyline class="StaffLines" fill="none" stroke="#000000" stroke-width="2.75" stroke-linejoin="bevel" points="247.099,1269.07 2764.63,1269.07"/>
<polyline class="StaffLines" fill="none" stroke="#000000" stroke-width="2.75" stroke-linejoin="bevel" points="247.099,1294.08 2764.63,1294.08"/>
<polyline class="StaffLines" fill="none" stroke="#000000" stroke-width="2.75" stroke-linejoin="bevel" points="247.099,1319.08 2764.63,1319.08"/>
<polyline class="StaffLines" fill="none" stroke="#000000" stroke-width="2.75" stroke-linejoin="bevel" points="247.099,1344.08 2764.63,1344.08"/>
<polyline class="StaffLines" fill="none" stroke="#000000" stroke-width="2.75" stroke-linejoin="bevel" points="247.099,1369.08 2764.63,1369.08"/>
<polyline class="StaffLines" fill="none" stroke="#000000" stroke-width="2.75" stroke-linejoin="bevel" points="247.099,1531.59 2764.63,1531.59"/>
<polyline class="StaffLines" fill="none" stroke="#000000" stroke-width="2.75" stroke-linejoin="bevel" points="247.099,1556.59 2764.63,1556.59"/>
<polyline class="StaffLines" fill="none" stroke="#000000" stroke-width="2.75" stroke-linejoin="bevel" points="247.099,1581.59 2764.63,1581.59"/>
<polyline class="StaffLines" fill="none" stroke="#000000" stroke-width="2.75" stroke-linejoin="bevel" points="247.099,1606.6 2764.63,1606.6"/>
<polyline class="StaffLines" fill="none" stroke="#000000" stroke-width="2.75" stroke-linejoin="bevel" points="247.099,1631.6 2764.63,1631.6"/>
<path class="Text" d="M212.602,213.497 L212.602,216.317 L213.682,216.317 C217.102,216.377 218.242,216.557 218.722,217.157 C219.082,217.697 219.082,217.817 219.082,220.877 L219.082,249.437 C219.082,252.497 219.082,252.617 218.722,253.157 C218.242,253.757 217.102,253.997 213.682,253.997 L212.602,253.997 L212.602,256.817 L234.382,256.817 C244.762,256.817 251.002,252.437 251.002,245.057 C251.002,239.057 247.222,235.637 239.002,234.197 C241.882,233.597 243.202,233.057 244.762,231.917 C247.222,230.057 248.722,227.117 248.722,224.117 C248.722,220.217 246.322,216.437 242.842,214.937 C240.682,213.977 237.682,213.497 234.142,213.497 L212.602,213.497 M225.802,232.997 L225.802,219.317 C225.802,216.977 226.582,216.377 229.762,216.317 L232.162,216.317 C234.922,216.317 237.202,216.797 238.462,217.577 C240.622,218.897 241.762,221.417 241.762,224.777 C241.762,230.717 238.882,232.997 231.142,232.997 L225.802,232.997 M225.802,235.817 L231.082,235.817 C240.262,235.817 243.622,238.277 243.622,244.877 C243.622,248.717 242.302,251.477 239.962,252.617 C238.102,253.577 235.582,253.997 231.802,253.997 L229.282,253.997 C226.282,253.997 225.682,253.397 225.802,250.217 L225.802,235.817 M265.994,228.857 L255.374,229.517 L255.374,232.097 L257.834,232.097 C260.114,232.157 260.414,232.517 260.414,235.097 L260.414,249.437 L260.414,252.257 C260.354,253.157 260.294,253.517 260.054,253.817 C259.634,254.357 258.434,254.597 255.854,254.657 L255.614,254.657 L255.614,256.817 L271.634,256.817 L271.634,254.657 L270.554,254.657 C266.534,254.537 265.994,254.237 265.994,252.077 L265.994,249.437 L265.994,248.837 C266.054,238.757 269.654,231.077 274.334,230.837 C273.494,231.797 273.254,232.397 273.254,233.537 C273.254,235.457 274.634,236.837 276.554,236.837 C278.774,236.837 280.214,235.217 280.214,232.817 C280.214,229.877 278.174,227.957 274.994,227.957 C271.214,227.957 267.974,230.957 265.994,236.297 L265.994,228.857 M295.562,227.957 C288.182,227.957 282.482,234.497 282.482,242.897 C282.482,251.117 288.242,257.717 295.442,257.717 C302.642,257.717 308.402,251.117 308.402,242.837 C308.402,234.617 302.642,227.957 295.562,227.957 M295.562,230.537 C299.762,230.537 302.102,234.917 302.102,242.837 C302.102,250.817 299.762,255.137 295.442,255.137 C291.122,255.137 288.782,250.817 288.782,242.897 C288.782,234.737 291.062,230.537 295.562,230.537 M322.382,242.297 L322.382,212.597 L311.282,213.257 L311.282,215.837 L314.162,215.837 C316.442,215.897 316.742,216.257 316.742,218.837 L316.742,249.437 L316.742,252.317 C316.682,253.157 316.622,253.517 316.382,253.817 C315.962,254.357 314.822,254.597 312.242,254.657 L312.002,254.657 L312.002,256.817 L327.182,256.817 L327.182,254.657 L326.942,254.657 C322.922,254.537 322.382,254.237 322.382,252.077 L322.382,249.437 L322.382,246.017 L326.042,242.537 L333.182,252.557 C333.482,253.037 333.602,253.337 333.602,253.577 C333.602,254.417 332.942,254.657 330.962,254.657 L329.822,254.657 L329.822,256.817 L345.662,256.817 L345.662,254.657 C342.302,254.357 341.102,253.637 338.642,250.517 L330.122,238.877 L332.822,236.237 C336.362,232.817 338.882,231.497 342.962,231.017 L342.962,228.857 L327.182,228.857 L327.182,231.017 L329.042,231.017 C330.962,231.017 331.862,231.377 331.862,232.157 C331.862,232.817 331.442,233.537 330.482,234.497 L322.382,242.297 M372.842,243.317 C372.902,234.317 367.802,227.957 360.482,227.957 C352.802,227.957 347.042,234.617 347.042,243.617 C347.042,252.077 352.502,257.717 360.602,257.717 C366.362,257.717 370.382,254.897 372.842,249.197 L370.742,248.057 C368.282,252.677 365.762,254.477 361.742,254.477 C358.682,254.477 356.462,253.217 354.902,250.517 C353.822,248.717 353.342,246.617 353.402,243.317 L372.842,243.317 M353.462,240.737 C353.462,238.877 353.702,237.557 354.302,235.877 C355.562,232.277 357.482,230.537 360.422,230.537 C364.022,230.537 366.422,233.717 366.422,238.577 C366.422,240.257 365.882,240.737 363.962,240.737 L353.462,240.737 M386.942,228.857 L376.562,229.517 L376.562,232.097 L378.722,232.097 C381.002,232.157 381.302,232.517 381.302,235.097 L381.302,249.437 L381.302,250.877 L381.302,252.257 C381.242,253.157 381.182,253.517 380.942,253.817 C380.522,254.357 379.382,254.597 376.802,254.657 L376.562,254.657 L376.562,256.817 L391.742,256.817 L391.742,254.657 L391.502,254.657 C387.482,254.537 386.942,254.237 386.942,252.077 L386.942,249.437 L386.942,243.197 C386.942,240.257 387.362,237.557 388.022,236.177 C389.282,233.477 391.982,231.617 394.562,231.617 C396.122,231.617 397.922,232.457 398.822,233.717 C399.722,235.037 400.142,236.837 400.142,239.717 L400.142,249.437 L400.142,252.257 C400.082,253.157 400.022,253.517 399.782,253.817 C399.362,254.357 398.162,254.597 395.582,254.657 L395.342,254.657 L395.342,256.817 L410.522,256.817 L410.522,254.657 L410.282,254.657 C406.322,254.537 405.782,254.237 405.782,252.077 L405.782,249.437 L405.782,240.017 C405.782,235.697 405.602,234.617 404.522,232.577 C403.022,229.697 400.022,227.957 396.422,227.957 C392.522,227.957 389.582,229.757 386.942,233.717 L386.942,228.857 M466.61,213.077 L464.33,213.077 L461.93,216.617 C457.55,213.437 455.33,212.597 451.19,212.597 C445.49,212.597 440.63,214.997 436.61,219.797 C432.77,224.357 430.97,229.397 430.97,235.577 C430.97,248.537 439.43,257.717 451.25,257.717 C460.85,257.717 466.97,252.077 468.35,241.997 L465.53,241.517 C463.91,250.457 459.35,254.897 451.97,254.897 C443.09,254.897 438.89,248.777 438.89,235.817 C438.89,228.977 439.79,224.477 441.83,220.877 C443.69,217.517 447.35,215.417 451.25,215.417 C455.45,215.417 459.17,217.637 461.45,221.477 C462.59,223.457 463.43,225.677 464.87,230.417 L467.51,230.417 L466.61,213.077 M483.583,212.597 L472.483,213.257 L472.483,215.837 L475.363,215.837 C477.643,215.897 477.943,216.257 477.943,218.837 L477.943,249.437 L477.943,250.877 L477.943,252.317 C477.883,253.157 477.823,253.517 477.583,253.817 C477.163,254.357 476.023,254.597 473.443,254.657 L473.203,254.657 L473.203,256.817 L488.383,256.817 L488.383,254.657 L488.143,254.657 C484.123,254.537 483.583,254.237 483.583,252.077 L483.583,249.437 L483.583,243.197 C483.583,240.257 484.003,237.557 484.663,236.177 C485.983,233.477 488.623,231.617 491.203,231.617 C492.763,231.617 494.563,232.517 495.403,233.717 C496.363,235.037 496.783,236.837 496.783,239.777 L496.783,249.437 L496.783,252.317 C496.723,253.157 496.663,253.517 496.423,253.817 C496.003,254.357 494.803,254.597 492.223,254.657 L491.983,254.657 L491.983,256.817 L507.163,256.817 L507.163,254.657 L506.923,254.657 C502.963,254.537 502.423,254.237 502.423,252.077 L502.423,249.437 L502.423,240.017 C502.423,235.697 502.243,234.617 501.163,232.577 C499.663,229.637 496.663,227.957 493.063,227.957 C489.163,227.957 486.283,229.697 483.583,233.717 L483.583,212.597 M523.359,227.957 C515.979,227.957 510.279,234.497 510.279,242.897 C510.279,251.117 516.039,257.717 523.239,257.717 C530.439,257.717 536.199,251.117 536.199,242.837 C536.199,234.617 530.439,227.957 523.359,227.957 M523.359,230.537 C527.559,230.537 529.899,234.917 529.899,242.837 C529.899,250.817 527.559,255.137 523.239,255.137 C518.919,255.137 516.579,250.817 516.579,242.897 C516.579,234.737 518.859,230.537 523.359,230.537 M550.119,228.857 L539.499,229.517 L539.499,232.097 L541.959,232.097 C544.239,232.157 544.539,232.517 544.539,235.097 L544.539,249.437 L544.539,252.257 C544.479,253.157 544.419,253.517 544.179,253.817 C543.759,254.357 542.559,254.597 539.979,254.657 L539.739,254.657 L539.739,256.817 L555.759,256.817 L555.759,254.657 L554.679,254.657 C550.659,254.537 550.119,254.237 550.119,252.077 L550.119,249.437 L550.119,248.837 C550.179,238.757 553.779,231.077 558.459,230.837 C557.619,231.797 557.379,232.397 557.379,233.537 C557.379,235.457 558.759,236.837 560.679,236.837 C562.899,236.837 564.339,235.217 564.339,232.817 C564.339,229.877 562.299,227.957 559.119,227.957 C555.339,227.957 552.099,230.957 550.119,236.297 L550.119,228.857 M587.18,257.237 L597.62,256.817 L597.62,254.237 L596.54,254.237 C593.12,254.057 592.82,253.697 592.82,249.857 L592.82,212.597 L581.06,213.257 L581.06,215.837 L584.6,215.837 C586.88,215.897 587.18,216.257 587.18,218.837 L587.18,232.397 C584.96,229.337 582.38,227.957 578.9,227.957 C572.12,227.957 566.96,234.497 566.96,243.137 C566.96,251.657 571.94,257.717 578.9,257.717 C582.68,257.717 585.26,256.097 587.18,252.497 L587.18,257.237 M580.1,231.197 C582.56,231.197 584.9,232.997 585.98,235.757 C586.76,237.557 587.12,240.017 587.12,242.957 C587.12,249.977 584.36,254.477 580.04,254.477 C575.78,254.477 573.26,250.517 573.26,243.857 C573.26,240.257 573.62,237.557 574.4,235.577 C575.42,232.877 577.64,231.197 580.1,231.197 M607.757,250.157 C605.657,250.157 603.977,251.837 603.977,253.877 C603.977,255.977 605.657,257.657 607.697,257.657 C609.797,257.657 611.477,255.977 611.477,253.877 C611.477,251.837 609.797,250.157 607.757,250.157 M607.757,228.437 C605.657,228.437 603.977,230.117 603.977,232.217 C603.977,234.257 605.657,235.937 607.697,235.937 C609.797,235.937 611.477,234.257 611.477,232.157 C611.477,230.117 609.797,228.437 607.757,228.437 M669.601,213.497 L633.901,213.497 L633.901,216.317 L634.981,216.317 C638.401,216.377 639.541,216.557 640.021,217.157 C640.381,217.697 640.381,217.817 640.381,220.877 L640.381,249.437 C640.381,252.497 640.381,252.617 640.021,253.157 C639.541,253.757 638.401,253.997 634.981,253.997 L633.901,253.997 L633.901,256.817 L654.481,256.817 L654.481,253.997 L652.501,253.997 C649.081,253.997 647.941,253.757 647.461,253.157 C647.101,252.617 647.101,252.437 647.101,249.437 L647.101,235.817 L648.301,235.817 C654.481,235.577 656.701,237.797 656.941,244.457 L659.761,244.457 L659.761,224.777 L656.941,224.777 C656.581,230.657 654.241,232.937 648.541,232.997 L647.101,232.997 L647.101,219.317 C647.041,216.797 647.641,216.377 650.881,216.317 L653.641,216.317 C663.481,216.257 665.941,218.477 667.801,228.797 L670.441,228.797 L669.601,213.497 M700.908,228.857 L690.228,229.517 L690.228,232.097 L692.688,232.097 C694.968,232.157 695.268,232.517 695.268,235.097 L695.268,249.437 L695.268,251.777 L695.268,252.257 C695.208,253.157 695.148,253.517 694.908,253.817 C694.488,254.357 693.348,254.597 690.768,254.657 L690.528,254.657 L690.528,256.817 L705.648,256.817 L705.648,254.657 L705.408,254.657 C701.448,254.537 700.908,254.237 700.908,252.017 L700.908,249.437 L700.908,240.917 C700.908,235.577 703.848,231.617 707.748,231.617 C711.168,231.617 712.908,234.077 712.908,238.937 L712.908,249.437 L712.908,252.317 C712.848,253.097 712.788,253.517 712.488,253.817 C712.128,254.357 710.928,254.597 708.348,254.657 L708.108,254.657 L708.108,256.817 L723.288,256.817 L723.288,254.657 L723.048,254.657 C719.088,254.537 718.548,254.237 718.548,252.077 L718.548,249.437 L718.548,241.457 C718.548,235.457 721.248,231.617 725.448,231.617 C728.868,231.617 730.548,234.197 730.548,239.597 L730.548,249.437 L730.548,252.257 C730.488,253.097 730.428,253.517 730.128,253.817 C729.768,254.357 728.568,254.597 725.988,254.657 L725.748,254.657 L725.748,256.817 L740.928,256.817 L740.928,254.657 L740.688,254.657 C736.728,254.537 736.188,254.237 736.188,252.017 L736.188,249.437 L736.188,238.397 C736.188,234.677 735.828,233.417 734.268,231.377 C732.528,229.157 730.068,227.957 727.188,227.957 C723.288,227.957 720.408,229.817 717.828,233.957 C716.808,230.357 713.568,227.957 709.548,227.957 C705.888,227.957 703.248,229.697 700.908,233.477 L700.908,228.857 M769.297,237.497 C769.297,233.717 768.637,231.797 766.897,230.357 C764.917,228.737 761.977,227.957 758.137,227.957 C751.357,227.957 746.437,231.137 746.437,235.517 C746.437,237.737 747.817,239.177 749.917,239.177 C751.837,239.177 753.157,237.917 753.157,236.117 C753.157,235.337 752.857,234.497 752.257,233.657 C751.897,233.237 751.837,233.117 751.837,232.817 C751.837,231.617 754.237,230.537 757.117,230.537 C759.037,230.537 761.137,231.137 762.097,232.037 C763.237,232.997 763.657,234.437 763.657,237.137 L763.657,239.477 C757.417,240.557 755.437,241.037 752.497,242.177 C747.277,244.097 744.817,246.857 744.817,250.697 C744.817,255.017 748.177,257.717 753.517,257.717 C757.657,257.717 761.377,256.037 763.957,252.977 C764.917,256.037 766.417,257.237 769.237,257.237 C771.937,257.237 774.757,255.497 774.757,253.757 C774.757,253.337 774.517,253.037 774.157,253.037 C773.917,253.037 773.677,253.097 773.257,253.277 C772.417,253.637 772.057,253.697 771.577,253.697 C769.897,253.697 769.297,252.617 769.297,249.557 L769.297,237.497 M763.657,244.817 C763.657,248.417 763.477,249.257 762.457,250.817 C760.957,253.037 758.257,254.537 755.617,254.537 C752.857,254.537 750.877,252.557 750.877,249.857 C750.877,247.337 752.137,245.537 754.777,244.277 C756.637,243.437 758.977,242.837 763.657,242.057 L763.657,244.817 M786.222,228.857 L774.522,229.517 L774.522,232.097 L778.002,232.097 C780.282,232.157 780.582,232.517 780.582,235.097 L780.582,255.437 C780.582,260.297 780.282,262.577 779.442,264.317 C778.842,265.517 777.462,266.417 776.142,266.417 C775.302,266.417 774.642,266.057 774.642,265.637 C774.642,265.397 774.702,265.277 774.942,264.677 C775.242,264.077 775.362,263.657 775.362,263.237 C775.362,261.737 773.922,260.417 772.242,260.417 C770.322,260.417 768.882,261.917 768.882,264.017 C768.882,266.957 771.582,268.937 775.602,268.937 C778.962,268.937 782.022,267.497 783.762,265.037 C785.622,262.397 786.222,259.337 786.222,252.557 L786.222,228.857 M783.402,213.917 C781.482,213.917 779.922,215.477 779.922,217.397 C779.922,219.317 781.482,220.877 783.342,220.877 C785.322,220.877 786.882,219.317 786.882,217.397 C786.882,215.477 785.322,213.917 783.402,213.917 M806.672,227.957 C799.292,227.957 793.592,234.497 793.592,242.897 C793.592,251.117 799.352,257.717 806.552,257.717 C813.752,257.717 819.512,251.117 819.512,242.837 C819.512,234.617 813.752,227.957 806.672,227.957 M806.672,230.537 C810.872,230.537 813.212,234.917 813.212,242.837 C813.212,250.817 810.872,255.137 806.552,255.137 C802.232,255.137 799.892,250.817 799.892,242.897 C799.892,234.737 802.172,230.537 806.672,230.537 M833.432,228.857 L822.812,229.517 L822.812,232.097 L825.272,232.097 C827.552,232.157 827.852,232.517 827.852,235.097 L827.852,249.437 L827.852,252.257 C827.792,253.157 827.732,253.517 827.492,253.817 C827.072,254.357 825.872,254.597 823.292,254.657 L823.052,254.657 L823.052,256.817 L839.072,256.817 L839.072,254.657 L837.992,254.657 C833.972,254.537 833.432,254.237 833.432,252.077 L833.432,249.437 L833.432,248.837 C833.492,238.757 837.092,231.077 841.772,230.837 C840.932,231.797 840.692,232.397 840.692,233.537 C840.692,235.457 842.072,236.837 843.992,236.837 C846.212,236.837 847.652,235.217 847.652,232.817 C847.652,229.877 845.612,227.957 842.432,227.957 C838.652,227.957 835.412,230.957 833.432,236.297 L833.432,228.857 "/>
<path class="TieSegment" stroke="#000000" stroke-width="1.75" stroke-linecap="round" stroke-linejoin="round" fill-rule="evenodd" d="M2596.83,937.804 C2630.39,908.797 2731.07,908.797 2764.63,937.804 C2731.07,915.797 2630.39,915.797 2596.83,937.804"/>
<path class="TieSegment" stroke="#000000" stroke-width="1.75" stroke-linecap="round" stroke-linejoin="round" fill-rule="evenodd" d="M335.596,1550.34 C352.122,1534.28 401.698,1534.28 418.224,1550.34 C401.698,1541.28 352.122,1541.28 335.596,1550.34"/>
<path class="TieSegment" stroke="#000000" stroke-width="1.75" stroke-linecap="round" stroke-linejoin="round" fill-rule="evenodd" d="M2596.83,587.782 C2630.39,558.775 2731.07,558.775 2764.63,587.782 C2731.07,565.775 2630.39,565.775 2596.83,587.782"/>
<path class="TieSegment" stroke="#000000" stroke-width="1.75" stroke-linecap="round" stroke-linejoin="round" fill-rule="evenodd" d="M335.596,1200.32 C352.122,1184.26 401.698,1184.26 418.224,1200.32 C401.698,1191.26 352.122,1191.26 335.596,1200.32"/>
<polyline class="BarLine" stroke="#000000" stroke-width="4.50" stroke-linejoin="bevel" points="249.349,917.677 249.349,1020.43"/>
<polyline class="BarLine" stroke="#000000" stroke-width="4.50" stroke-linejoin="bevel" points="990.407,917.677 990.407,1020.43"/>
<polyline class="BarLine" stroke="#000000" stroke-width="4.50" stroke-linejoin="bevel" points="1593.19,917.677 1593.19,1020.43"/>
<polyline class="BarLine" stroke="#000000" stroke-width="4.50" stroke-linejoin="bevel" points="2172.1,917.677 2172.1,1020.43"/>
<polyline class="BarLine" stroke="#000000" stroke-width="4.50" stroke-linejoin="bevel" points="2762.38,917.677 2762.38,1020.43"/>
<polyline class="BarLine" stroke="#000000" stroke-width="4.50" stroke-linejoin="bevel" points="249.349,1530.22 249.349,1632.97"/>
<polyline class="BarLine" stroke="#000000" stroke-width="4.50" stroke-linejoin="bevel" points="943.709,1530.22 943.709,1632.97"/>
<polyline class="BarLine" stroke="#000000" stroke-width="4.50" stroke-linejoin="bevel" points="1505.26,1530.22 1505.26,1632.97"/>
<polyline class="BarLine" stroke="#000000" stroke-width="4.50" stroke-linejoin="bevel" points="2086.93,1530.22 2086.93,1632.97"/>
<polyline class="BarLine" stroke="#000000" stroke-width="4.50" stroke-linejoin="bevel" points="2734.88,1530.22 2734.88,1632.97"/>
<polyline class="BarLine" stroke="#000000" stroke-width="13.75" stroke-linejoin="bevel" points="2757.76,1530.22 2757.76,1632.97"/>
<polyline class="BarLine" stroke="#000000" stroke-width="4.50" stroke-linejoin="bevel" points="249.349,655.161 249.349,919.053"/>
<polyline class="BarLine" stroke="#000000" stroke-width="4.50" stroke-linejoin="bevel" points="990.407,655.161 990.407,919.053"/>
<polyline class="BarLine" stroke="#000000" stroke-width="4.50" stroke-linejoin="bevel" points="1593.19,655.161 1593.19,919.053"/>
<polyline class="BarLine" stroke="#000000" stroke-width="4.50" stroke-linejoin="bevel" points="2172.1,655.161 2172.1,919.053"/>
<polyline class="BarLine" stroke="#000000" stroke-width="4.50" stroke-linejoin="bevel" points="2762.38,655.161 2762.38,919.053"/>
<polyline class="BarLine" stroke="#000000" stroke-width="4.50" stroke-linejoin="bevel" points="249.349,1267.7 249.349,1531.59"/>
<polyline class="BarLine" stroke="#000000" stroke-width="4.50" stroke-linejoin="bevel" points="943.709,1267.7 943.709,1531.59"/>
<polyline class="BarLine" stroke="#000000" stroke-width="4.50" stroke-linejoin="bevel" points="1505.26,1267.7 1505.26,1531.59"/>
<polyline class="BarLine" stroke="#000000" stroke-width="4.50" stroke-linejoin="bevel" points="2086.93,1267.7 2086.93,1531.59"/>
<polyline class="BarLine" stroke="#000000" stroke-width="4.50" stroke-linejoin="bevel" points="2734.88,1267.7 2734.88,1531.59"/>
<polyline class="BarLine" stroke="#000000" stroke-width="13.75" stroke-linejoin="bevel" points="2757.76,1267.7 2757.76,1531.59"/>
<polyline class="LedgerLine" stroke="#000000" stroke-width="4.00" stroke-linejoin="bevel" points="801.688,894.051 851.683,894.051"/>
<polyline class="LedgerLine" stroke="#000000" stroke-width="4.00" stroke-linejoin="bevel" points="1200.84,894.051 1250.83,894.051"/>
<polyline class="LedgerLine" stroke="#000000" stroke-width="4.00" stroke-linejoin="bevel" points="1385.26,894.051 1435.26,894.051"/>
<polyline class="LedgerLine" stroke="#000000" stroke-width="4.00" stroke-linejoin="bevel" points="1385.26,869.049 1435.26,869.049"/>
<polyline class="LedgerLine" stroke="#000000" stroke-width="4.00" stroke-linejoin="bevel" points="1627.94,1044.06 1677.94,1044.06"/>
<polyline class="LedgerLine" stroke="#000000" stroke-width="4.00" stroke-linejoin="bevel" points="1319.41,1656.6 1369.4,1656.6"/>
<polyline class="LedgerLine" stroke="#000000" stroke-width="4.00" stroke-linejoin="bevel" points="1712.81,1656.6 1762.81,1656.6"/>
<polyline class="LedgerLine" stroke="#000000" stroke-width="4.00" stroke-linejoin="bevel" points="1894.37,1681.6 1944.37,1681.6"/>
<polyline class="LedgerLine" stroke="#000000" stroke-width="4.00" stroke-linejoin="bevel" points="1894.37,1656.6 1944.37,1656.6"/>
<polyline class="LedgerLine" stroke="#000000" stroke-width="4.00" stroke-linejoin="bevel" points="2199.33,1506.59 2249.33,1506.59"/>
<polyline class="LedgerLine" stroke="#000000" stroke-width="4.00" stroke-linejoin="bevel" points="1983.38,631.534 2033.37,631.534"/>
<polyline class="LedgerLine" stroke="#000000" stroke-width="4.00" stroke-linejoin="bevel" points="2382.53,631.534 2432.52,631.534"/>
<polyline class="LedgerLine" stroke="#000000" stroke-width="4.00" stroke-linejoin="bevel" points="2566.95,631.534 2616.95,631.534"/>
<polyline class="LedgerLine" stroke="#000000" stroke-width="4.00" stroke-linejoin="bevel" points="2566.95,606.533 2616.95,606.533"/>
<polyline class="LedgerLine" stroke="#000000" stroke-width="4.00" stroke-linejoin="bevel" points="398.1,1244.07 448.096,1244.07"/>
<polyline class="LedgerLine" stroke="#000000" stroke-width="4.00" stroke-linejoin="bevel" points="398.1,1219.07 448.096,1219.07"/>
<polyline class="Stem" stroke="#000000" stroke-width="2.75" stroke-linejoin="bevel" points="456.377,947.574 456.377,1028.43"/>
<polyline class="Stem" stroke="#000000" stroke-width="2.75" stroke-linejoin="bevel" points="634.096,922.573 634.096,1006.56"/>
<polyline class="Stem" stroke="#000000" stroke-width="2.75" stroke-linejoin="bevel" points="811.814,897.571 811.814,981.556"/>
<polyline class="Stem" stroke="#000000" stroke-width="2.75" stroke-linejoin="bevel" points="1026.53,922.573 1026.53,1006.56"/>
<polyline class="Stem" stroke="#000000" stroke-width="2.75" stroke-linejoin="bevel" points="1210.96,897.571 1210.96,981.556"/>
<polyline class="Stem" stroke="#000000" stroke-width="2.75" stroke-linejoin="bevel" points="1395.39,860.069 1395.39,969.056"/>
<polyline class="Stem" stroke="#000000" stroke-width="2.75" stroke-linejoin="bevel" points="1667.81,1040.7 1667.81,956.555"/>
<polyline class="Stem" stroke="#000000" stroke-width="2.75" stroke-linejoin="bevel" points="1845.53,1003.2 1845.53,919.053"/>
<polyline class="Stem" stroke="#000000" stroke-width="2.75" stroke-linejoin="bevel" points="2023.25,978.196 2023.25,900.301"/>
<polyline class="Stem" stroke="#000000" stroke-width="2.75" stroke-linejoin="bevel" points="2237.97,1003.2 2237.97,919.053"/>
<polyline class="Stem" stroke="#000000" stroke-width="2.75" stroke-linejoin="bevel" points="2422.4,978.196 2422.4,900.301"/>
<polyline class="Stem" stroke="#000000" stroke-width="2.75" stroke-linejoin="bevel" points="2577.08,960.075 2577.08,1037.81"/>
<polyline class="Stem" stroke="#000000" stroke-width="2.75" stroke-linejoin="bevel" points="408.226,1572.61 408.226,1650.35"/>
<polyline class="Stem" stroke="#000000" stroke-width="2.75" stroke-linejoin="bevel" points="616.173,1603.24 616.173,1522.22"/>
<polyline class="Stem" stroke="#000000" stroke-width="2.75" stroke-linejoin="bevel" points="794.375,1628.24 794.375,1544.09"/>
<polyline class="Stem" stroke="#000000" stroke-width="2.75" stroke-linejoin="bevel" points="1009.58,1603.24 1009.58,1522.22"/>
<polyline class="Stem" stroke="#000000" stroke-width="2.75" stroke-linejoin="bevel" points="1184.43,1628.24 1184.43,1544.09"/>
<polyline class="Stem" stroke="#000000" stroke-width="2.75" stroke-linejoin="bevel" points="1359.28,1653.24 1359.28,1569.09"/>
<polyline class="Stem" stroke="#000000" stroke-width="2.75" stroke-linejoin="bevel" points="1571.13,1615.74 1571.13,1531.59"/>
<polyline class="Stem" stroke="#000000" stroke-width="2.75" stroke-linejoin="bevel" points="1752.68,1653.24 1752.68,1569.09"/>
<polyline class="Stem" stroke="#000000" stroke-width="2.75" stroke-linejoin="bevel" points="1934.24,1678.24 1934.24,1581.59"/>
<polyline class="Stem" stroke="#000000" stroke-width="2.75" stroke-linejoin="bevel" points="2209.46,1510.11 2209.46,1594.1"/>
<polyline class="Stem" stroke="#000000" stroke-width="2.75" stroke-linejoin="bevel" points="2384.31,1535.11 2384.31,1619.1"/>
<polyline class="Stem" stroke="#000000" stroke-width="2.75" stroke-linejoin="bevel" points="2559.16,1560.11 2559.16,1640.97"/>
<polyline class="Stem" stroke="#000000" stroke-width="2.75" stroke-linejoin="bevel" points="486.121,740.681 486.121,656.536"/>
<polyline class="Stem" stroke="#000000" stroke-width="2.75" stroke-linejoin="bevel" points="663.84,715.68 663.84,637.785"/>
<polyline class="Stem" stroke="#000000" stroke-width="2.75" stroke-linejoin="bevel" points="811.814,697.559 811.814,775.293"/>
<polyline class="Stem" stroke="#000000" stroke-width="2.75" stroke-linejoin="bevel" points="1056.28,715.68 1056.28,637.785"/>
<polyline class="Stem" stroke="#000000" stroke-width="2.75" stroke-linejoin="bevel" points="1210.96,697.559 1210.96,775.293"/>
<polyline class="Stem" stroke="#000000" stroke-width="2.75" stroke-linejoin="bevel" points="1395.39,660.056 1395.39,744.042"/>
<polyline class="Stem" stroke="#000000" stroke-width="2.75" stroke-linejoin="bevel" points="1638.07,697.559 1638.07,775.293"/>
<polyline class="Stem" stroke="#000000" stroke-width="2.75" stroke-linejoin="bevel" points="1815.79,660.056 1815.79,744.042"/>
<polyline class="Stem" stroke="#000000" stroke-width="2.75" stroke-linejoin="bevel" points="1993.5,635.055 1993.5,719.04"/>
<polyline class="Stem" stroke="#000000" stroke-width="2.75" stroke-linejoin="bevel" points="2208.23,660.056 2208.23,744.042"/>
<polyline class="Stem" stroke="#000000" stroke-width="2.75" stroke-linejoin="bevel" points="2392.65,635.055 2392.65,719.04"/>
<polyline class="Stem" stroke="#000000" stroke-width="2.75" stroke-linejoin="bevel" points="2577.08,610.053 2577.08,706.539"/>
<polyline class="Stem" stroke="#000000" stroke-width="2.75" stroke-linejoin="bevel" points="408.226,1222.59 408.226,1319.08"/>
<polyline class="Stem" stroke="#000000" stroke-width="2.75" stroke-linejoin="bevel" points="586.428,1260.09 586.428,1344.08"/>
<polyline class="Stem" stroke="#000000" stroke-width="2.75" stroke-linejoin="bevel" points="764.631,1285.1 764.631,1369.08"/>
<polyline class="Stem" stroke="#000000" stroke-width="2.75" stroke-linejoin="bevel" points="979.836,1260.09 979.836,1344.08"/>
<polyline class="Stem" stroke="#000000" stroke-width="2.75" stroke-linejoin="bevel" points="1154.68,1285.1 1154.68,1369.08"/>
<polyline class="Stem" stroke="#000000" stroke-width="2.75" stroke-linejoin="bevel" points="1329.53,1310.1 1329.53,1387.83"/>
<polyline class="Stem" stroke="#000000" stroke-width="2.75" stroke-linejoin="bevel" points="1541.38,1272.59 1541.38,1356.58"/>
<polyline class="Stem" stroke="#000000" stroke-width="2.75" stroke-linejoin="bevel" points="1722.94,1310.1 1722.94,1387.83"/>
<polyline class="Stem" stroke="#000000" stroke-width="2.75" stroke-linejoin="bevel" points="1934.24,1328.22 1934.24,1250.32"/>
<polyline class="Stem" stroke="#000000" stroke-width="2.75" stroke-linejoin="bevel" points="2209.46,1310.1 2209.46,1387.83"/>
<polyline class="Stem" stroke="#000000" stroke-width="2.75" stroke-linejoin="bevel" points="2414.05,1328.22 2414.05,1250.32"/>
<polyline class="Stem" stroke="#000000" stroke-width="2.75" stroke-linejoin="bevel" points="2588.9,1353.22 2588.9,1269.07"/>
<path class="Note" d="M486.502,935.854 C485.002,933.154 482.102,931.454 478.202,931.054 C477.602,930.954 477.102,930.954 476.502,930.954 C473.002,930.954 469.202,931.954 465.702,933.854 C459.102,937.454 455.002,943.354 455.002,948.454 C455.002,949.854 455.202,951.154 455.902,952.354 C457.402,955.054 460.402,956.754 464.302,957.154 C464.902,957.254 465.402,957.254 466.002,957.254 C469.502,957.254 473.202,956.254 476.702,954.354 C483.302,950.754 487.502,944.954 487.502,939.854 C487.502,938.454 487.202,937.054 486.502,935.854"/>
<path class="Note" d="M664.22,910.853 C662.72,908.153 659.82,906.453 655.92,906.053 C655.32,905.953 654.82,905.953 654.22,905.953 C650.72,905.953 646.92,906.953 643.42,908.853 C636.82,912.453 632.72,918.353 632.72,923.453 C632.72,924.853 632.92,926.153 633.62,927.353 C635.12,930.053 638.12,931.753 642.02,932.153 C642.62,932.253 643.12,932.253 643.72,932.253 C647.22,932.253 650.92,931.253 654.42,929.353 C661.02,925.753 665.22,919.953 665.22,914.853 C665.22,913.453 664.92,912.053 664.22,910.853"/>
<path class="Note" d="M841.939,885.851 C840.439,883.151 837.539,881.451 833.639,881.051 C833.039,880.951 832.539,880.951 831.939,880.951 C828.439,880.951 824.639,881.951 821.139,883.851 C814.539,887.451 810.439,893.351 810.439,898.451 C810.439,899.851 810.639,901.151 811.339,902.351 C812.839,905.051 815.839,906.751 819.739,907.151 C820.339,907.251 820.839,907.251 821.439,907.251 C824.939,907.251 828.639,906.251 832.139,904.351 C838.739,900.751 842.939,894.951 842.939,889.851 C842.939,888.451 842.639,887.051 841.939,885.851"/>
<path class="Note" d="M1056.66,910.853 C1055.16,908.153 1052.26,906.453 1048.36,906.053 C1047.76,905.953 1047.26,905.953 1046.66,905.953 C1043.16,905.953 1039.36,906.953 1035.86,908.853 C1029.26,912.453 1025.16,918.353 1025.16,923.453 C1025.16,924.853 1025.36,926.153 1026.06,927.353 C1027.56,930.053 1030.56,931.753 1034.46,932.153 C1035.06,932.253 1035.56,932.253 1036.16,932.253 C1039.66,932.253 1043.36,931.253 1046.86,929.353 C1053.46,925.753 1057.66,919.953 1057.66,914.853 C1057.66,913.453 1057.36,912.053 1056.66,910.853"/>
<path class="Note" d="M1241.09,885.851 C1239.59,883.151 1236.69,881.451 1232.79,881.051 C1232.19,880.951 1231.69,880.951 1231.09,880.951 C1227.59,880.951 1223.79,881.951 1220.29,883.851 C1213.69,887.451 1209.59,893.351 1209.59,898.451 C1209.59,899.851 1209.79,901.151 1210.49,902.351 C1211.99,905.051 1214.99,906.751 1218.89,907.151 C1219.49,907.251 1219.99,907.251 1220.59,907.251 C1224.09,907.251 1227.79,906.251 1231.29,904.351 C1237.89,900.751 1242.09,894.951 1242.09,889.851 C1242.09,888.451 1241.79,887.051 1241.09,885.851"/>
<path class="Note" d="M1425.51,848.349 C1424.01,845.649 1421.11,843.949 1417.21,843.549 C1416.61,843.449 1416.11,843.449 1415.51,843.449 C1412.01,843.449 1408.21,844.449 1404.71,846.349 C1398.11,849.949 1394.01,855.849 1394.01,860.949 C1394.01,862.349 1394.21,863.649 1394.91,864.849 C1396.41,867.549 1399.41,869.249 1403.31,869.649 C1403.91,869.749 1404.41,869.749 1405.01,869.749 C1408.51,869.749 1412.21,868.749 1415.71,866.849 C1422.31,863.249 1426.51,857.449 1426.51,852.349 C1426.51,850.949 1426.21,849.549 1425.51,848.349"/>
<path class="Note" d="M1668.19,1035.86 C1666.69,1033.16 1663.79,1031.46 1659.89,1031.06 C1659.29,1030.96 1658.79,1030.96 1658.19,1030.96 C1654.69,1030.96 1650.89,1031.96 1647.39,1033.86 C1640.79,1037.46 1636.69,1043.36 1636.69,1048.46 C1636.69,1049.86 1636.89,1051.16 1637.59,1052.36 C1639.09,1055.06 1642.09,1056.76 1645.99,1057.16 C1646.59,1057.26 1647.09,1057.26 1647.69,1057.26 C1651.19,1057.26 1654.89,1056.26 1658.39,1054.36 C1664.99,1050.76 1669.19,1044.96 1669.19,1039.86 C1669.19,1038.46 1668.89,1037.06 1668.19,1035.86"/>
<path class="Note" d="M1845.91,998.358 C1844.41,995.658 1841.51,993.958 1837.61,993.558 C1837.01,993.458 1836.51,993.458 1835.91,993.458 C1832.41,993.458 1828.61,994.458 1825.11,996.358 C1818.51,999.958 1814.41,1005.86 1814.41,1010.96 C1814.41,1012.36 1814.61,1013.66 1815.31,1014.86 C1816.81,1017.56 1819.81,1019.26 1823.71,1019.66 C1824.31,1019.76 1824.81,1019.76 1825.41,1019.76 C1828.91,1019.76 1832.61,1018.76 1836.11,1016.86 C1842.71,1013.26 1846.91,1007.46 1846.91,1002.36 C1846.91,1000.96 1846.61,999.558 1845.91,998.358"/>
<path class="Note" d="M2023.63,973.356 C2022.13,970.656 2019.23,968.956 2015.33,968.556 C2014.73,968.456 2014.23,968.456 2013.63,968.456 C2010.13,968.456 2006.33,969.456 2002.83,971.356 C1996.23,974.956 1992.13,980.856 1992.13,985.956 C1992.13,987.356 1992.33,988.656 1993.03,989.856 C1994.53,992.556 1997.53,994.256 2001.43,994.656 C2002.03,994.756 2002.53,994.756 2003.13,994.756 C2006.63,994.756 2010.33,993.756 2013.83,991.856 C2020.43,988.256 2024.63,982.456 2024.63,977.356 C2024.63,975.956 2024.33,974.556 2023.63,973.356"/>
<path class="Note" d="M2238.35,998.358 C2236.85,995.658 2233.95,993.958 2230.05,993.558 C2229.45,993.458 2228.95,993.458 2228.35,993.458 C2224.85,993.458 2221.05,994.458 2217.55,996.358 C2210.95,999.958 2206.85,1005.86 2206.85,1010.96 C2206.85,1012.36 2207.05,1013.66 2207.75,1014.86 C2209.25,1017.56 2212.25,1019.26 2216.15,1019.66 C2216.75,1019.76 2217.25,1019.76 2217.85,1019.76 C2221.35,1019.76 2225.05,1018.76 2228.55,1016.86 C2235.15,1013.26 2239.35,1007.46 2239.35,1002.36 C2239.35,1000.96 2239.05,999.558 2238.35,998.358"/>
<path class="Note" d="M2422.78,973.356 C2421.28,970.656 2418.38,968.956 2414.48,968.556 C2413.88,968.456 2413.38,968.456 2412.78,968.456 C2409.28,968.456 2405.48,969.456 2401.98,971.356 C2395.38,974.956 2391.28,980.856 2391.28,985.956 C2391.28,987.356 2391.48,988.656 2392.18,989.856 C2393.68,992.556 2396.68,994.256 2400.58,994.656 C2401.18,994.756 2401.68,994.756 2402.28,994.756 C2405.78,994.756 2409.48,993.756 2412.98,991.856 C2419.58,988.256 2423.78,982.456 2423.78,977.356 C2423.78,975.956 2423.48,974.556 2422.78,973.356"/>
<path class="Note" d="M2607.2,948.355 C2605.7,945.655 2602.8,943.955 2598.9,943.555 C2598.3,943.455 2597.8,943.455 2597.2,943.455 C2593.7,943.455 2589.9,944.455 2586.4,946.355 C2579.8,949.955 2575.7,955.855 2575.7,960.955 C2575.7,962.355 2575.9,963.655 2576.6,964.855 C2578.1,967.555 2581.1,969.255 2585,969.655 C2585.6,969.755 2586.1,969.755 2586.7,969.755 C2590.2,969.755 2593.9,968.755 2597.4,966.855 C2604,963.255 2608.2,957.455 2608.2,952.355 C2608.2,950.955 2607.9,949.555 2607.2,948.355"/>
<path class="Note" d="M438.351,1560.89 C436.851,1558.19 433.951,1556.49 430.051,1556.09 C429.451,1555.99 428.951,1555.99 428.351,1555.99 C424.851,1555.99 421.051,1556.99 417.551,1558.89 C410.951,1562.49 406.851,1568.39 406.851,1573.49 C406.851,1574.89 407.051,1576.19 407.751,1577.39 C409.251,1580.09 412.251,1581.79 416.151,1582.19 C416.751,1582.29 417.251,1582.29 417.851,1582.29 C421.351,1582.29 425.051,1581.29 428.551,1579.39 C435.151,1575.79 439.351,1569.99 439.351,1564.89 C439.351,1563.49 439.051,1562.09 438.351,1560.89"/>
<path class="Note" d="M616.553,1598.4 C615.053,1595.7 612.153,1594 608.253,1593.6 C607.653,1593.5 607.153,1593.5 606.553,1593.5 C603.053,1593.5 599.253,1594.5 595.753,1596.4 C589.153,1600 585.053,1605.9 585.053,1611 C585.053,1612.4 585.253,1613.7 585.953,1614.9 C587.453,1617.6 590.453,1619.3 594.353,1619.7 C594.953,1619.8 595.453,1619.8 596.053,1619.8 C599.553,1619.8 603.253,1618.8 606.753,1616.9 C613.353,1613.3 617.553,1607.5 617.553,1602.4 C617.553,1601 617.253,1599.6 616.553,1598.4"/>
<path class="Note" d="M794.756,1623.4 C793.256,1620.7 790.356,1619 786.456,1618.6 C785.856,1618.5 785.356,1618.5 784.756,1618.5 C781.256,1618.5 777.456,1619.5 773.956,1621.4 C767.356,1625 763.256,1630.9 763.256,1636 C763.256,1637.4 763.456,1638.7 764.156,1639.9 C765.656,1642.6 768.656,1644.3 772.556,1644.7 C773.156,1644.8 773.656,1644.8 774.256,1644.8 C777.756,1644.8 781.456,1643.8 784.956,1641.9 C791.556,1638.3 795.756,1632.5 795.756,1627.4 C795.756,1626 795.456,1624.6 794.756,1623.4"/>
<path class="Note" d="M1009.96,1598.4 C1008.46,1595.7 1005.56,1594 1001.66,1593.6 C1001.06,1593.5 1000.56,1593.5 999.961,1593.5 C996.461,1593.5 992.661,1594.5 989.161,1596.4 C982.561,1600 978.461,1605.9 978.461,1611 C978.461,1612.4 978.661,1613.7 979.361,1614.9 C980.861,1617.6 983.861,1619.3 987.761,1619.7 C988.361,1619.8 988.861,1619.8 989.461,1619.8 C992.961,1619.8 996.661,1618.8 1000.16,1616.9 C1006.76,1613.3 1010.96,1607.5 1010.96,1602.4 C1010.96,1601 1010.66,1599.6 1009.96,1598.4"/>
<path class="Note" d="M1184.81,1623.4 C1183.31,1620.7 1180.41,1619 1176.51,1618.6 C1175.91,1618.5 1175.41,1618.5 1174.81,1618.5 C1171.31,1618.5 1167.51,1619.5 1164.01,1621.4 C1157.41,1625 1153.31,1630.9 1153.31,1636 C1153.31,1637.4 1153.51,1638.7 1154.21,1639.9 C1155.71,1642.6 1158.71,1644.3 1162.61,1644.7 C1163.21,1644.8 1163.71,1644.8 1164.31,1644.8 C1167.81,1644.8 1171.51,1643.8 1175.01,1641.9 C1181.61,1638.3 1185.81,1632.5 1185.81,1627.4 C1185.81,1626 1185.51,1624.6 1184.81,1623.4"/>
<path class="Note" d="M1359.66,1648.4 C1358.16,1645.7 1355.26,1644 1351.36,1643.6 C1350.76,1643.5 1350.26,1643.5 1349.66,1643.5 C1346.16,1643.5 1342.36,1644.5 1338.86,1646.4 C1332.26,1650 1328.16,1655.9 1328.16,1661 C1328.16,1662.4 1328.36,1663.7 1329.06,1664.9 C1330.56,1667.6 1333.56,1669.3 1337.46,1669.7 C1338.06,1669.8 1338.56,1669.8 1339.16,1669.8 C1342.66,1669.8 1346.36,1668.8 1349.86,1666.9 C1356.46,1663.3 1360.66,1657.5 1360.66,1652.4 C1360.66,1651 1360.36,1649.6 1359.66,1648.4"/>
<path class="Note" d="M1571.51,1610.9 C1570.01,1608.2 1567.11,1606.5 1563.21,1606.1 C1562.61,1606 1562.11,1606 1561.51,1606 C1558.01,1606 1554.21,1607 1550.71,1608.9 C1544.11,1612.5 1540.01,1618.4 1540.01,1623.5 C1540.01,1624.9 1540.21,1626.2 1540.91,1627.4 C1542.41,1630.1 1545.41,1631.8 1549.31,1632.2 C1549.91,1632.3 1550.41,1632.3 1551.01,1632.3 C1554.51,1632.3 1558.21,1631.3 1561.71,1629.4 C1568.31,1625.8 1572.51,1620 1572.51,1614.9 C1572.51,1613.5 1572.21,1612.1 1571.51,1610.9"/>
<path class="Note" d="M1753.06,1648.4 C1751.56,1645.7 1748.66,1644 1744.76,1643.6 C1744.16,1643.5 1743.66,1643.5 1743.06,1643.5 C1739.56,1643.5 1735.76,1644.5 1732.26,1646.4 C1725.66,1650 1721.56,1655.9 1721.56,1661 C1721.56,1662.4 1721.76,1663.7 1722.46,1664.9 C1723.96,1667.6 1726.96,1669.3 1730.86,1669.7 C1731.46,1669.8 1731.96,1669.8 1732.56,1669.8 C1736.06,1669.8 1739.76,1668.8 1743.26,1666.9 C1749.86,1663.3 1754.06,1657.5 1754.06,1652.4 C1754.06,1651 1753.76,1649.6 1753.06,1648.4"/>
<path class="Note" d="M1934.62,1673.4 C1933.12,1670.7 1930.22,1669 1926.32,1668.6 C1925.72,1668.5 1925.22,1668.5 1924.62,1668.5 C1921.12,1668.5 1917.32,1669.5 1913.82,1671.4 C1907.22,1675 1903.12,1680.9 1903.12,1686 C1903.12,1687.4 1903.32,1688.7 1904.02,1689.9 C1905.52,1692.6 1908.52,1694.3 1912.42,1694.7 C1913.02,1694.8 1913.52,1694.8 1914.12,1694.8 C1917.62,1694.8 1921.32,1693.8 1924.82,1691.9 C1931.42,1688.3 1935.62,1682.5 1935.62,1677.4 C1935.62,1676 1935.32,1674.6 1934.62,1673.4"/>
<path class="Note" d="M2239.58,1498.39 C2238.08,1495.69 2235.18,1493.99 2231.28,1493.59 C2230.68,1493.49 2230.18,1493.49 2229.58,1493.49 C2226.08,1493.49 2222.28,1494.49 2218.78,1496.39 C2212.18,1499.99 2208.08,1505.89 2208.08,1510.99 C2208.08,1512.39 2208.28,1513.69 2208.98,1514.89 C2210.48,1517.59 2213.48,1519.29 2217.38,1519.69 C2217.98,1519.79 2218.48,1519.79 2219.08,1519.79 C2222.58,1519.79 2226.28,1518.79 2229.78,1516.89 C2236.38,1513.29 2240.58,1507.49 2240.58,1502.39 C2240.58,1500.99 2240.28,1499.59 2239.58,1498.39"/>
<path class="Note" d="M2414.43,1523.39 C2412.93,1520.69 2410.03,1518.99 2406.13,1518.59 C2405.53,1518.49 2405.03,1518.49 2404.43,1518.49 C2400.93,1518.49 2397.13,1519.49 2393.63,1521.39 C2387.03,1524.99 2382.93,1530.89 2382.93,1535.99 C2382.93,1537.39 2383.13,1538.69 2383.83,1539.89 C2385.33,1542.59 2388.33,1544.29 2392.23,1544.69 C2392.83,1544.79 2393.33,1544.79 2393.93,1544.79 C2397.43,1544.79 2401.13,1543.79 2404.63,1541.89 C2411.23,1538.29 2415.43,1532.49 2415.43,1527.39 C2415.43,1525.99 2415.13,1524.59 2414.43,1523.39"/>
<path class="Note" d="M2589.28,1548.39 C2587.78,1545.69 2584.88,1543.99 2580.98,1543.59 C2580.38,1543.49 2579.88,1543.49 2579.28,1543.49 C2575.78,1543.49 2571.98,1544.49 2568.48,1546.39 C2561.88,1549.99 2557.78,1555.89 2557.78,1560.99 C2557.78,1562.39 2557.98,1563.69 2558.68,1564.89 C2560.18,1567.59 2563.18,1569.29 2567.08,1569.69 C2567.68,1569.79 2568.18,1569.79 2568.78,1569.79 C2572.28,1569.79 2575.98,1568.79 2579.48,1566.89 C2586.08,1563.29 2590.28,1557.49 2590.28,1552.39 C2590.28,1550.99 2589.98,1549.59 2589.28,1548.39"/>
<path class="Note" d="M486.502,735.842 C485.002,733.142 482.102,731.442 478.202,731.042 C477.602,730.942 477.102,730.942 476.502,730.942 C473.002,730.942 469.202,731.942 465.702,733.842 C459.102,737.442 455.002,743.342 455.002,748.442 C455.002,749.842 455.202,751.142 455.902,752.342 C457.402,755.042 460.402,756.742 464.302,757.142 C464.902,757.242 465.402,757.242 466.002,757.242 C469.502,757.242 473.202,756.242 476.702,754.342 C483.302,750.742 487.502,744.942 487.502,739.842 C487.502,738.442 487.202,737.042 486.502,735.842"/>
<path class="Note" d="M664.22,710.84 C662.72,708.14 659.82,706.44 655.92,706.04 C655.32,705.94 654.82,705.94 654.22,705.94 C650.72,705.94 646.92,706.94 643.42,708.84 C636.82,712.44 632.72,718.34 632.72,723.44 C632.72,724.84 632.92,726.14 633.62,727.34 C635.12,730.04 638.12,731.74 642.02,732.14 C642.62,732.24 643.12,732.24 643.72,732.24 C647.22,732.24 650.92,731.24 654.42,729.34 C661.02,725.74 665.22,719.94 665.22,714.84 C665.22,713.44 664.92,712.04 664.22,710.84"/>
<path class="Note" d="M841.939,685.838 C840.439,683.138 837.539,681.438 833.639,681.038 C833.039,680.938 832.539,680.938 831.939,680.938 C828.439,680.938 824.639,681.938 821.139,683.838 C814.539,687.438 810.439,693.338 810.439,698.438 C810.439,699.838 810.639,701.138 811.339,702.338 C812.839,705.038 815.839,706.738 819.739,707.138 C820.339,707.238 820.839,707.238 821.439,707.238 C824.939,707.238 828.639,706.238 832.139,704.338 C838.739,700.738 842.939,694.938 842.939,689.838 C842.939,688.438 842.639,687.038 841.939,685.838"/>
<path class="Note" d="M1056.66,710.84 C1055.16,708.14 1052.26,706.44 1048.36,706.04 C1047.76,705.94 1047.26,705.94 1046.66,705.94 C1043.16,705.94 1039.36,706.94 1035.86,708.84 C1029.26,712.44 1025.16,718.34 1025.16,723.44 C1025.16,724.84 1025.36,726.14 1026.06,727.34 C1027.56,730.04 1030.56,731.74 1034.46,732.14 C1035.06,732.24 1035.56,732.24 1036.16,732.24 C1039.66,732.24 1043.36,731.24 1046.86,729.34 C1053.46,725.74 1057.66,719.94 1057.66,714.84 C1057.66,713.44 1057.36,712.04 1056.66,710.84"/>
<path class="Note" d="M1241.09,685.838 C1239.59,683.138 1236.69,681.438 1232.79,681.038 C1232.19,680.938 1231.69,680.938 1231.09,680.938 C1227.59,680.938 1223.79,681.938 1220.29,683.838 C1213.69,687.438 1209.59,693.338 1209.59,698.438 C1209.59,699.838 1209.79,701.138 1210.49,702.338 C1211.99,705.038 1214.99,706.738 1218.89,707.138 C1219.49,707.238 1219.99,707.238 1220.59,707.238 C1224.09,707.238 1227.79,706.238 1231.29,704.338 C1237.89,700.738 1242.09,694.938 1242.09,689.838 C1242.09,688.438 1241.79,687.038 1241.09,685.838"/>
<path class="Note" d="M1425.51,648.336 C1424.01,645.636 1421.11,643.936 1417.21,643.536 C1416.61,643.436 1416.11,643.436 1415.51,643.436 C1412.01,643.436 1408.21,644.436 1404.71,646.336 C1398.11,649.936 1394.01,655.836 1394.01,660.936 C1394.01,662.336 1394.21,663.636 1394.91,664.836 C1396.41,667.536 1399.41,669.236 1403.31,669.636 C1403.91,669.736 1404.41,669.736 1405.01,669.736 C1408.51,669.736 1412.21,668.736 1415.71,666.836 C1422.31,663.236 1426.51,657.436 1426.51,652.336 C1426.51,650.936 1426.21,649.536 1425.51,648.336"/>
<path class="Note" d="M1668.19,685.838 C1666.69,683.138 1663.79,681.438 1659.89,681.038 C1659.29,680.938 1658.79,680.938 1658.19,680.938 C1654.69,680.938 1650.89,681.938 1647.39,683.838 C1640.79,687.438 1636.69,693.338 1636.69,698.438 C1636.69,699.838 1636.89,701.138 1637.59,702.338 C1639.09,705.038 1642.09,706.738 1645.99,707.138 C1646.59,707.238 1647.09,707.238 1647.69,707.238 C1651.19,707.238 1654.89,706.238 1658.39,704.338 C1664.99,700.738 1669.19,694.938 1669.19,689.838 C1669.19,688.438 1668.89,687.038 1668.19,685.838"/>
<path class="Note" d="M1845.91,648.336 C1844.41,645.636 1841.51,643.936 1837.61,643.536 C1837.01,643.436 1836.51,643.436 1835.91,643.436 C1832.41,643.436 1828.61,644.436 1825.11,646.336 C1818.51,649.936 1814.41,655.836 1814.41,660.936 C1814.41,662.336 1814.61,663.636 1815.31,664.836 C1816.81,667.536 1819.81,669.236 1823.71,669.636 C1824.31,669.736 1824.81,669.736 1825.41,669.736 C1828.91,669.736 1832.61,668.736 1836.11,666.836 C1842.71,663.236 1846.91,657.436 1846.91,652.336 C1846.91,650.936 1846.61,649.536 1845.91,648.336"/>
<path class="Note" d="M2023.63,623.334 C2022.13,620.634 2019.23,618.934 2015.33,618.534 C2014.73,618.434 2014.23,618.434 2013.63,618.434 C2010.13,618.434 2006.33,619.434 2002.83,621.334 C1996.23,624.934 1992.13,630.834 1992.13,635.934 C1992.13,637.334 1992.33,638.634 1993.03,639.834 C1994.53,642.534 1997.53,644.234 2001.43,644.634 C2002.03,644.734 2002.53,644.734 2003.13,644.734 C2006.63,644.734 2010.33,643.734 2013.83,641.834 C2020.43,638.234 2024.63,632.434 2024.63,627.334 C2024.63,625.934 2024.33,624.534 2023.63,623.334"/>
<path class="Note" d="M2238.35,648.336 C2236.85,645.636 2233.95,643.936 2230.05,643.536 C2229.45,643.436 2228.95,643.436 2228.35,643.436 C2224.85,643.436 2221.05,644.436 2217.55,646.336 C2210.95,649.936 2206.85,655.836 2206.85,660.936 C2206.85,662.336 2207.05,663.636 2207.75,664.836 C2209.25,667.536 2212.25,669.236 2216.15,669.636 C2216.75,669.736 2217.25,669.736 2217.85,669.736 C2221.35,669.736 2225.05,668.736 2228.55,666.836 C2235.15,663.236 2239.35,657.436 2239.35,652.336 C2239.35,650.936 2239.05,649.536 2238.35,648.336"/>
<path class="Note" d="M2422.78,623.334 C2421.28,620.634 2418.38,618.934 2414.48,618.534 C2413.88,618.434 2413.38,618.434 2412.78,618.434 C2409.28,618.434 2405.48,619.434 2401.98,621.334 C2395.38,624.934 2391.28,630.834 2391.28,635.934 C2391.28,637.334 2391.48,638.634 2392.18,639.834 C2393.68,642.534 2396.68,644.234 2400.58,644.634 C2401.18,644.734 2401.68,644.734 2402.28,644.734 C2405.78,644.734 2409.48,643.734 2412.98,641.834 C2419.58,638.234 2423.78,632.434 2423.78,627.334 C2423.78,625.934 2423.48,624.534 2422.78,623.334"/>
<path class="Note" d="M2607.2,598.333 C2605.7,595.633 2602.8,593.933 2598.9,593.533 C2598.3,593.433 2597.8,593.433 2597.2,593.433 C2593.7,593.433 2589.9,594.433 2586.4,596.333 C2579.8,599.933 2575.7,605.833 2575.7,610.933 C2575.7,612.333 2575.9,613.633 2576.6,614.833 C2578.1,617.533 2581.1,619.233 2585,619.633 C2585.6,619.733 2586.1,619.733 2586.7,619.733 C2590.2,619.733 2593.9,618.733 2597.4,616.833 C2604,613.233 2608.2,607.433 2608.2,602.333 C2608.2,600.933 2607.9,599.533 2607.2,598.333"/>
<path class="Note" d="M438.351,1210.87 C436.851,1208.17 433.951,1206.47 430.051,1206.07 C429.451,1205.97 428.951,1205.97 428.351,1205.97 C424.851,1205.97 421.051,1206.97 417.551,1208.87 C410.951,1212.47 406.851,1218.37 406.851,1223.47 C406.851,1224.87 407.051,1226.17 407.751,1227.37 C409.251,1230.07 412.251,1231.77 416.151,1232.17 C416.751,1232.27 417.251,1232.27 417.851,1232.27 C421.351,1232.27 425.051,1231.27 428.551,1229.37 C435.151,1225.77 439.351,1219.97 439.351,1214.87 C439.351,1213.47 439.051,1212.07 438.351,1210.87"/>
<path class="Note" d="M616.553,1248.37 C615.053,1245.67 612.153,1243.97 608.253,1243.57 C607.653,1243.47 607.153,1243.47 606.553,1243.47 C603.053,1243.47 599.253,1244.47 595.753,1246.37 C589.153,1249.97 585.053,1255.87 585.053,1260.97 C585.053,1262.37 585.253,1263.67 585.953,1264.87 C587.453,1267.57 590.453,1269.27 594.353,1269.67 C594.953,1269.77 595.453,1269.77 596.053,1269.77 C599.553,1269.77 603.253,1268.77 606.753,1266.87 C613.353,1263.27 617.553,1257.47 617.553,1252.37 C617.553,1250.97 617.253,1249.57 616.553,1248.37"/>
<path class="Note" d="M794.756,1273.38 C793.256,1270.68 790.356,1268.98 786.456,1268.58 C785.856,1268.48 785.356,1268.48 784.756,1268.48 C781.256,1268.48 777.456,1269.48 773.956,1271.38 C767.356,1274.98 763.256,1280.88 763.256,1285.98 C763.256,1287.38 763.456,1288.68 764.156,1289.88 C765.656,1292.58 768.656,1294.28 772.556,1294.68 C773.156,1294.78 773.656,1294.78 774.256,1294.78 C777.756,1294.78 781.456,1293.78 784.956,1291.88 C791.556,1288.28 795.756,1282.48 795.756,1277.38 C795.756,1275.98 795.456,1274.58 794.756,1273.38"/>
<path class="Note" d="M1009.96,1248.37 C1008.46,1245.67 1005.56,1243.97 1001.66,1243.57 C1001.06,1243.47 1000.56,1243.47 999.961,1243.47 C996.461,1243.47 992.661,1244.47 989.161,1246.37 C982.561,1249.97 978.461,1255.87 978.461,1260.97 C978.461,1262.37 978.661,1263.67 979.361,1264.87 C980.861,1267.57 983.861,1269.27 987.761,1269.67 C988.361,1269.77 988.861,1269.77 989.461,1269.77 C992.961,1269.77 996.661,1268.77 1000.16,1266.87 C1006.76,1263.27 1010.96,1257.47 1010.96,1252.37 C1010.96,1250.97 1010.66,1249.57 1009.96,1248.37"/>
<path class="Note" d="M1184.81,1273.38 C1183.31,1270.68 1180.41,1268.98 1176.51,1268.58 C1175.91,1268.48 1175.41,1268.48 1174.81,1268.48 C1171.31,1268.48 1167.51,1269.48 1164.01,1271.38 C1157.41,1274.98 1153.31,1280.88 1153.31,1285.98 C1153.31,1287.38 1153.51,1288.68 1154.21,1289.88 C1155.71,1292.58 1158.71,1294.28 1162.61,1294.68 C1163.21,1294.78 1163.71,1294.78 1164.31,1294.78 C1167.81,1294.78 1171.51,1293.78 1175.01,1291.88 C1181.61,1288.28 1185.81,1282.48 1185.81,1277.38 C1185.81,1275.98 1185.51,1274.58 1184.81,1273.38"/>
<path class="Note" d="M1359.66,1298.38 C1358.16,1295.68 1355.26,1293.98 1351.36,1293.58 C1350.76,1293.48 1350.26,1293.48 1349.66,1293.48 C1346.16,1293.48 1342.36,1294.48 1338.86,1296.38 C1332.26,1299.98 1328.16,1305.88 1328.16,1310.98 C1328.16,1312.38 1328.36,1313.68 1329.06,1314.88 C1330.56,1317.58 1333.56,1319.28 1337.46,1319.68 C1338.06,1319.78 1338.56,1319.78 1339.16,1319.78 C1342.66,1319.78 1346.36,1318.78 1349.86,1316.88 C1356.46,1313.28 1360.66,1307.48 1360.66,1302.38 C1360.66,1300.98 1360.36,1299.58 1359.66,1298.38"/>
<path class="Note" d="M1571.51,1260.87 C1570.01,1258.17 1567.11,1256.47 1563.21,1256.07 C1562.61,1255.97 1562.11,1255.97 1561.51,1255.97 C1558.01,1255.97 1554.21,1256.97 1550.71,1258.87 C1544.11,1262.47 1540.01,1268.37 1540.01,1273.47 C1540.01,1274.87 1540.21,1276.17 1540.91,1277.37 C1542.41,1280.07 1545.41,1281.77 1549.31,1282.17 C1549.91,1282.27 1550.41,1282.27 1551.01,1282.27 C1554.51,1282.27 1558.21,1281.27 1561.71,1279.37 C1568.31,1275.77 1572.51,1269.97 1572.51,1264.87 C1572.51,1263.47 1572.21,1262.07 1571.51,1260.87"/>
<path class="Note" d="M1753.06,1298.38 C1751.56,1295.68 1748.66,1293.98 1744.76,1293.58 C1744.16,1293.48 1743.66,1293.48 1743.06,1293.48 C1739.56,1293.48 1735.76,1294.48 1732.26,1296.38 C1725.66,1299.98 1721.56,1305.88 1721.56,1310.98 C1721.56,1312.38 1721.76,1313.68 1722.46,1314.88 C1723.96,1317.58 1726.96,1319.28 1730.86,1319.68 C1731.46,1319.78 1731.96,1319.78 1732.56,1319.78 C1736.06,1319.78 1739.76,1318.78 1743.26,1316.88 C1749.86,1313.28 1754.06,1307.48 1754.06,1302.38 C1754.06,1300.98 1753.76,1299.58 1753.06,1298.38"/>
<path class="Note" d="M1934.62,1323.38 C1933.12,1320.68 1930.22,1318.98 1926.32,1318.58 C1925.72,1318.48 1925.22,1318.48 1924.62,1318.48 C1921.12,1318.48 1917.32,1319.48 1913.82,1321.38 C1907.22,1324.98 1903.12,1330.88 1903.12,1335.98 C1903.12,1337.38 1903.32,1338.68 1904.02,1339.88 C1905.52,1342.58 1908.52,1344.28 1912.42,1344.68 C1913.02,1344.78 1913.52,1344.78 1914.12,1344.78 C1917.62,1344.78 1921.32,1343.78 1924.82,1341.88 C1931.42,1338.28 1935.62,1332.48 1935.62,1327.38 C1935.62,1325.98 1935.32,1324.58 1934.62,1323.38"/>
<path class="Note" d="M2239.58,1298.38 C2238.08,1295.68 2235.18,1293.98 2231.28,1293.58 C2230.68,1293.48 2230.18,1293.48 2229.58,1293.48 C2226.08,1293.48 2222.28,1294.48 2218.78,1296.38 C2212.18,1299.98 2208.08,1305.88 2208.08,1310.98 C2208.08,1312.38 2208.28,1313.68 2208.98,1314.88 C2210.48,1317.58 2213.48,1319.28 2217.38,1319.68 C2217.98,1319.78 2218.48,1319.78 2219.08,1319.78 C2222.58,1319.78 2226.28,1318.78 2229.78,1316.88 C2236.38,1313.28 2240.58,1307.48 2240.58,1302.38 C2240.58,1300.98 2240.28,1299.58 2239.58,1298.38"/>
<path class="Note" d="M2414.43,1323.38 C2412.93,1320.68 2410.03,1318.98 2406.13,1318.58 C2405.53,1318.48 2405.03,1318.48 2404.43,1318.48 C2400.93,1318.48 2397.13,1319.48 2393.63,1321.38 C2387.03,1324.98 2382.93,1330.88 2382.93,1335.98 C2382.93,1337.38 2383.13,1338.68 2383.83,1339.88 C2385.33,1342.58 2388.33,1344.28 2392.23,1344.68 C2392.83,1344.78 2393.33,1344.78 2393.93,1344.78 C2397.43,1344.78 2401.13,1343.78 2404.63,1341.88 C2411.23,1338.28 2415.43,1332.48 2415.43,1327.38 C2415.43,1325.98 2415.13,1324.58 2414.43,1323.38"/>
<path class="Note" d="M2589.28,1348.38 C2587.78,1345.68 2584.88,1343.98 2580.98,1343.58 C2580.38,1343.48 2579.88,1343.48 2579.28,1343.48 C2575.78,1343.48 2571.98,1344.48 2568.48,1346.38 C2561.88,1349.98 2557.78,1355.88 2557.78,1360.98 C2557.78,1362.38 2557.98,1363.68 2558.68,1364.88 C2560.18,1367.58 2563.18,1369.28 2567.08,1369.68 C2567.68,1369.78 2568.18,1369.78 2568.78,1369.78 C2572.28,1369.78 2575.98,1368.78 2579.48,1366.88 C2586.08,1363.28 2590.28,1357.48 2590.28,1352.38 C2590.28,1350.98 2589.98,1349.58 2589.28,1348.38"/>
<path class="Clef" d="M297,918.954 C289.4,918.954 283.3,923.354 283.2,923.354 C277.4,927.654 275.1,932.754 274.2,936.254 C273.7,938.054 273.5,939.854 273.5,941.554 C273.5,943.954 273.9,946.154 274.8,948.054 C276,950.754 278.3,952.654 281.3,953.654 C282.5,954.054 283.8,954.254 285.1,954.254 C287.3,954.254 289.6,953.654 291.5,952.554 C294.6,950.854 296.5,947.254 296.5,943.354 C296.5,939.854 294.7,936.654 291.7,934.754 C289.6,933.354 287.6,932.954 285.9,932.954 C284.7,932.954 283.6,933.154 282.7,933.454 C281.7,933.854 280,934.854 279.2,935.554 C279.5,933.654 280.7,930.754 281.8,929.154 C282.9,927.554 285.1,925.554 286.8,924.654 C289.3,923.254 292.5,922.654 296,922.654 C306.2,922.654 311.2,930.854 311.2,947.654 C311.2,956.954 307.7,965.854 304.7,971.754 C301.4,978.354 297,984.654 293.1,988.154 C282.7,997.654 272.9,1002.15 272.8,1002.15 C272.8,1002.15 271.3,1003.05 271.7,1004.55 C272,1005.55 272.9,1005.75 273.5,1005.75 C273.6,1005.75 273.9,1005.65 274,1005.65 C274.1,1005.65 285.5,1000.95 294.6,993.854 C299.7,990.154 304.3,986.154 308.3,981.854 C311.9,977.954 315,973.754 317.5,969.554 C321.9,962.054 324.4,954.254 324.4,947.554 C324.4,939.254 322.2,932.354 318.1,927.454 C313.4,921.854 306.3,918.954 297,918.954 M328.4,931.654 C328.4,934.454 330.6,936.654 333.2,936.654 C335.8,936.654 338,934.454 338,931.654 C338,928.854 335.8,926.554 333.2,926.554 C330.6,926.554 328.4,928.854 328.4,931.654 M328.4,956.354 C328.4,959.154 330.6,961.454 333.2,961.454 C335.8,961.454 338,959.154 338,956.354 C338,953.554 335.8,951.254 333.2,951.254 C330.6,951.254 328.4,953.554 328.4,956.354"/>
<path class="Clef" transform="matrix(0.80005,0,0,0.80005,1527.24,994.057)" d="M63.4,-5.9 C62.2,-11.3 59.5,-15.2 58.7,-16.2 C55.5,-20.5 51.5,-23.3 46.8,-24.7 C44.5,-25.4 42.4,-25.6 40.4,-25.6 C39.7,-25.6 39,-25.6 38.3,-25.5 C37.3,-31.5 36.2,-37.4 35.3,-42.8 C40.9,-49 44.6,-54.9 47,-59.3 C50.6,-66 52,-70.7 52.1,-70.9 C53.3,-73.9 54,-77.7 54,-82.2 C54,-84.9 53.7,-87.8 53.3,-90.8 C52.2,-97.9 50,-104.6 47.5,-108.3 C46.2,-110.2 45,-111.3 43.8,-111.3 C42.6,-111.3 40.1,-110.1 37.2,-107.3 C34.9,-105.1 31.6,-101.2 29,-95.2 C26.7,-89.8 26,-82.9 26,-77 C26,-75.2 26.1,-73.5 26.2,-71.9 C26.4,-68.3 27.1,-62.5 27.7,-58.9 C27.7,-58.8 28,-57.3 28.4,-54.7 L27.7,-54 C26.7,-53 25.5,-51.9 24.1,-50.5 C23.2,-49.6 22.3,-48.8 21.3,-47.8 C12.8,-39.6 0,-27.2 0,-8.1 C0,-3.4 0.9,1 2.7,5 C4.3,8.6 6.6,11.9 9.5,14.8 C17,22.2 27.2,25.4 34.3,25.4 L34.9,25.4 C37.8,25.3 40.5,25 42.9,24.6 C44.7,34.2 45.9,41.3 45.9,46.6 C45.9,53.1 44.3,57 40.4,59.8 C38,61.5 35.1,62.6 32,62.7 L31.2,62.7 C29.7,62.7 27.2,62.3 25.7,61.9 C25.7,61.9 25.4,61.8 25.4,61.6 C25.4,61.4 25.8,61.4 25.8,61.4 C27.7,61 31.3,59.7 33.7,56.4 C34.8,54.9 35.5,52.6 35.5,50.1 C35.5,48.5 35.2,46.8 34.5,45.3 C33.4,42.9 30.8,39.9 25.2,39.5 L24.1,39.5 C22,39.5 20.2,40 18.5,41 C16.7,42.1 15.1,43.8 14.1,45.8 C13,47.8 12.5,50 12.5,52.2 C12.5,55.1 13.4,57.8 15.2,60 C18.2,63.6 22.9,65.9 28.3,66.5 C29,66.6 30.1,66.7 30.8,66.7 C35.2,66.7 39.6,65.5 43.2,63.3 C46.9,60.7 49,56.7 49.7,51.1 C49.9,49.8 49.9,48.4 49.9,46.9 C49.9,43 49.4,38.3 48.4,32.5 C48,30.4 47.6,27.4 46.9,23.6 C52.7,21.7 56.8,18 60.6,12.2 C62.9,8.2 64,4.1 64,-0.2 C64,-2.1 63.8,-4 63.4,-5.9 M33.2,-83.8 C35,-89.5 37.7,-92.9 39.7,-94.6 C41.5,-96.1 43.1,-96.8 44,-96.8 C44.1,-96.8 44.3,-96.7 44.4,-96.7 C44.7,-96.6 45.1,-96.1 45.5,-95.4 C46.4,-93.6 47.3,-90.3 47.3,-86.6 C47.3,-84.7 47.1,-82.7 46.5,-80.9 C44.3,-74.1 39.7,-66.8 32.7,-59.1 C32.5,-60.2 32.3,-61.2 32.2,-62.2 C31.7,-65.4 31.4,-68.6 31.4,-71.5 C31.4,-76 32,-80.1 33.2,-83.8 M29.2,20.3 C24.6,19.1 20.1,16.6 16.3,13.1 C15,11.9 13.2,9.7 11.7,6.3 C10.4,3.3 9.7,0.2 9.7,-3.2 L9.7,-3.9 C9.8,-8.6 11.1,-13.4 13.6,-18.2 C16.5,-23.8 21,-29.3 27.1,-34.6 C28.6,-35.9 30,-37.2 31.3,-38.5 C32.1,-34.2 32.8,-29.5 33.7,-24.6 C29.8,-23.3 25.1,-20.3 22,-14.6 C19.6,-10.1 18.9,-6.2 18.9,-3 C18.9,-1.5 19.1,-0.1 19.3,1 C20.2,5.5 22.8,9.2 26.3,11.3 C27.1,11.8 30.4,13.5 32.4,13.5 C32.7,13.5 33,13.5 33.2,13.4 C33.5,13.3 33.8,13.1 33.9,12.8 C34,12.6 34,12.4 34,12.2 C34,11.4 33.2,10.8 31.9,10 C31.3,9.6 30.6,9.2 29.9,8.7 C27.3,6.7 25.8,3.6 25.8,0.2 C25.8,-0.8 26,-1.7 26.2,-2.7 C26.7,-4.7 28.4,-7.5 29.9,-8.9 C31.6,-10.4 33.6,-11.6 36,-12.2 C38,-1 40.1,10.1 41.7,18.5 C41.8,19.2 42,19.9 42.1,20.6 C40.1,21 38.1,21.2 36.2,21.2 C33.8,21.2 31.5,20.9 29.2,20.3 M54.9,10.1 C53.7,13.3 51.2,17.3 46.1,19.4 C46,19 46,18.5 45.9,18.1 C44.4,9.3 42.5,-1.6 40.5,-12.9 L41.5,-12.9 C51.2,-12.9 55.1,-5.7 56,-1.1 C56.2,-0.2 56.3,1 56.3,2.3 C56.3,4.6 55.9,7.4 54.9,10.1"/>
<path class="Clef" d="M335,1600.7 C333.8,1595.3 331.1,1591.4 330.3,1590.4 C327.1,1586.1 323.1,1583.3 318.4,1581.9 C316.1,1581.2 314,1581 312,1581 C311.3,1581 310.6,1581 309.9,1581.1 C308.9,1575.1 307.8,1569.2 306.9,1563.8 C312.5,1557.6 316.2,1551.7 318.6,1547.3 C322.2,1540.6 323.6,1535.9 323.7,1535.7 C324.9,1532.7 325.6,1528.9 325.6,1524.4 C325.6,1521.7 325.3,1518.8 324.9,1515.8 C323.8,1508.7 321.6,1502 319.1,1498.3 C317.8,1496.4 316.6,1495.3 315.4,1495.3 C314.2,1495.3 311.7,1496.5 308.8,1499.3 C306.5,1501.5 303.2,1505.4 300.6,1511.4 C298.3,1516.8 297.6,1523.7 297.6,1529.6 C297.6,1531.4 297.7,1533.1 297.8,1534.7 C298,1538.3 298.7,1544.1 299.3,1547.7 C299.3,1547.8 299.6,1549.3 300,1551.9 L299.3,1552.6 C298.3,1553.6 297.1,1554.7 295.7,1556.1 C294.8,1557 293.9,1557.8 292.9,1558.8 C284.4,1567 271.6,1579.4 271.6,1598.5 C271.6,1603.2 272.5,1607.6 274.3,1611.6 C275.9,1615.2 278.2,1618.5 281.1,1621.4 C288.6,1628.8 298.8,1632 305.9,1632 L306.5,1632 C309.4,1631.9 312.1,1631.6 314.5,1631.2 C316.3,1640.8 317.5,1647.9 317.5,1653.2 C317.5,1659.7 315.9,1663.6 312,1666.4 C309.6,1668.1 306.7,1669.2 303.6,1669.3 L302.8,1669.3 C301.3,1669.3 298.8,1668.9 297.3,1668.5 C297.3,1668.5 297,1668.4 297,1668.2 C297,1668 297.4,1668 297.4,1668 C299.3,1667.6 302.9,1666.3 305.3,1663 C306.4,1661.5 307.1,1659.2 307.1,1656.7 C307.1,1655.1 306.8,1653.4 306.1,1651.9 C305,1649.5 302.4,1646.5 296.8,1646.1 L295.7,1646.1 C293.6,1646.1 291.8,1646.6 290.1,1647.6 C288.3,1648.7 286.7,1650.4 285.7,1652.4 C284.6,1654.4 284.1,1656.6 284.1,1658.8 C284.1,1661.7 285,1664.4 286.8,1666.6 C289.8,1670.2 294.5,1672.5 299.9,1673.1 C300.6,1673.2 301.7,1673.3 302.4,1673.3 C306.8,1673.3 311.2,1672.1 314.8,1669.9 C318.5,1667.3 320.6,1663.3 321.3,1657.7 C321.5,1656.4 321.5,1655 321.5,1653.5 C321.5,1649.6 321,1644.9 320,1639.1 C319.6,1637 319.2,1634 318.5,1630.2 C324.3,1628.3 328.4,1624.6 332.2,1618.8 C334.5,1614.8 335.6,1610.7 335.6,1606.4 C335.6,1604.5 335.4,1602.6 335,1600.7 M304.8,1522.8 C306.6,1517.1 309.3,1513.7 311.3,1512 C313.1,1510.5 314.7,1509.8 315.6,1509.8 C315.7,1509.8 315.9,1509.9 316,1509.9 C316.3,1510 316.7,1510.5 317.1,1511.2 C318,1513 318.9,1516.3 318.9,1520 C318.9,1521.9 318.7,1523.9 318.1,1525.7 C315.9,1532.5 311.3,1539.8 304.3,1547.5 C304.1,1546.4 303.9,1545.4 303.8,1544.4 C303.3,1541.2 303,1538 303,1535.1 C303,1530.6 303.6,1526.5 304.8,1522.8 M300.8,1626.9 C296.2,1625.7 291.7,1623.2 287.9,1619.7 C286.6,1618.5 284.8,1616.3 283.3,1612.9 C282,1609.9 281.3,1606.8 281.3,1603.4 L281.3,1602.7 C281.4,1598 282.7,1593.2 285.2,1588.4 C288.1,1582.8 292.6,1577.3 298.7,1572 C300.2,1570.7 301.6,1569.4 302.9,1568.1 C303.7,1572.4 304.4,1577.1 305.3,1582 C301.4,1583.3 296.7,1586.3 293.6,1592 C291.2,1596.5 290.5,1600.4 290.5,1603.6 C290.5,1605.1 290.7,1606.5 290.9,1607.6 C291.8,1612.1 294.4,1615.8 297.9,1617.9 C298.7,1618.4 302,1620.1 304,1620.1 C304.3,1620.1 304.6,1620.1 304.8,1620 C305.1,1619.9 305.4,1619.7 305.5,1619.4 C305.6,1619.2 305.6,1619 305.6,1618.8 C305.6,1618 304.8,1617.4 303.5,1616.6 C302.9,1616.2 302.2,1615.8 301.5,1615.3 C298.9,1613.3 297.4,1610.2 297.4,1606.8 C297.4,1605.8 297.6,1604.9 297.8,1603.9 C298.3,1601.9 300,1599.1 301.5,1597.7 C303.2,1596.2 305.2,1595 307.6,1594.4 C309.6,1605.6 311.7,1616.7 313.3,1625.1 C313.4,1625.8 313.6,1626.5 313.7,1627.2 C311.7,1627.6 309.7,1627.8 307.8,1627.8 C305.4,1627.8 303.1,1627.5 300.8,1626.9 M326.5,1616.7 C325.3,1619.9 322.8,1623.9 317.7,1626 C317.6,1625.6 317.6,1625.1 317.5,1624.7 C316,1615.9 314.1,1605 312.1,1593.7 L313.1,1593.7 C322.8,1593.7 326.7,1600.9 327.6,1605.5 C327.8,1606.4 327.9,1607.6 327.9,1608.9 C327.9,1611.2 327.5,1614 326.5,1616.7"/>
<path class="Clef" d="M2134.58,1531.49 C2126.98,1531.49 2120.88,1535.89 2120.78,1535.89 C2114.98,1540.19 2112.68,1545.29 2111.78,1548.79 C2111.28,1550.59 2111.08,1552.39 2111.08,1554.09 C2111.08,1556.49 2111.48,1558.69 2112.38,1560.59 C2113.58,1563.29 2115.88,1565.19 2118.88,1566.19 C2120.08,1566.59 2121.38,1566.79 2122.68,1566.79 C2124.88,1566.79 2127.18,1566.19 2129.08,1565.09 C2132.18,1563.39 2134.08,1559.79 2134.08,1555.89 C2134.08,1552.39 2132.28,1549.19 2129.28,1547.29 C2127.18,1545.89 2125.18,1545.49 2123.48,1545.49 C2122.28,1545.49 2121.18,1545.69 2120.28,1545.99 C2119.28,1546.39 2117.58,1547.39 2116.78,1548.09 C2117.08,1546.19 2118.28,1543.29 2119.38,1541.69 C2120.48,1540.09 2122.68,1538.09 2124.38,1537.19 C2126.88,1535.79 2130.08,1535.19 2133.58,1535.19 C2143.78,1535.19 2148.78,1543.39 2148.78,1560.19 C2148.78,1569.49 2145.28,1578.39 2142.28,1584.29 C2138.98,1590.89 2134.58,1597.19 2130.68,1600.69 C2120.28,1610.19 2110.48,1614.69 2110.38,1614.69 C2110.38,1614.69 2108.88,1615.59 2109.28,1617.09 C2109.58,1618.09 2110.48,1618.29 2111.08,1618.29 C2111.18,1618.29 2111.48,1618.19 2111.58,1618.19 C2111.68,1618.19 2123.08,1613.49 2132.18,1606.39 C2137.28,1602.69 2141.88,1598.69 2145.88,1594.39 C2149.48,1590.49 2152.58,1586.29 2155.08,1582.09 C2159.48,1574.59 2161.98,1566.79 2161.98,1560.09 C2161.98,1551.79 2159.78,1544.89 2155.68,1539.99 C2150.98,1534.39 2143.88,1531.49 2134.58,1531.49 M2165.98,1544.19 C2165.98,1546.99 2168.18,1549.19 2170.78,1549.19 C2173.38,1549.19 2175.58,1546.99 2175.58,1544.19 C2175.58,1541.39 2173.38,1539.09 2170.78,1539.09 C2168.18,1539.09 2165.98,1541.39 2165.98,1544.19 M2165.98,1568.89 C2165.98,1571.69 2168.18,1573.99 2170.78,1573.99 C2173.38,1573.99 2175.58,1571.69 2175.58,1568.89 C2175.58,1566.09 2173.38,1563.79 2170.78,1563.79 C2168.18,1563.79 2165.98,1566.09 2165.98,1568.89"/>
<path class="Clef" d="M335,725.641 C333.8,720.241 331.1,716.341 330.3,715.341 C327.1,711.041 323.1,708.241 318.4,706.841 C316.1,706.141 314,705.941 312,705.941 C311.3,705.941 310.6,705.941 309.9,706.041 C308.9,700.041 307.8,694.141 306.9,688.741 C312.5,682.541 316.2,676.641 318.6,672.241 C322.2,665.541 323.6,660.841 323.7,660.641 C324.9,657.641 325.6,653.841 325.6,649.341 C325.6,646.641 325.3,643.741 324.9,640.741 C323.8,633.641 321.6,626.941 319.1,623.241 C317.8,621.341 316.6,620.241 315.4,620.241 C314.2,620.241 311.7,621.441 308.8,624.241 C306.5,626.441 303.2,630.341 300.6,636.341 C298.3,641.741 297.6,648.641 297.6,654.541 C297.6,656.341 297.7,658.041 297.8,659.641 C298,663.241 298.7,669.041 299.3,672.641 C299.3,672.741 299.6,674.241 300,676.841 L299.3,677.541 C298.3,678.541 297.1,679.641 295.7,681.041 C294.8,681.941 293.9,682.741 292.9,683.741 C284.4,691.941 271.6,704.341 271.6,723.441 C271.6,728.141 272.5,732.541 274.3,736.541 C275.9,740.141 278.2,743.441 281.1,746.341 C288.6,753.741 298.8,756.941 305.9,756.941 L306.5,756.941 C309.4,756.841 312.1,756.541 314.5,756.141 C316.3,765.741 317.5,772.841 317.5,778.141 C317.5,784.641 315.9,788.541 312,791.341 C309.6,793.041 306.7,794.141 303.6,794.241 L302.8,794.241 C301.3,794.241 298.8,793.841 297.3,793.441 C297.3,793.441 297,793.341 297,793.141 C297,792.941 297.4,792.941 297.4,792.941 C299.3,792.541 302.9,791.241 305.3,787.941 C306.4,786.441 307.1,784.141 307.1,781.641 C307.1,780.041 306.8,778.341 306.1,776.841 C305,774.441 302.4,771.441 296.8,771.041 L295.7,771.041 C293.6,771.041 291.8,771.541 290.1,772.541 C288.3,773.641 286.7,775.341 285.7,777.341 C284.6,779.341 284.1,781.541 284.1,783.741 C284.1,786.641 285,789.341 286.8,791.541 C289.8,795.141 294.5,797.441 299.9,798.041 C300.6,798.141 301.7,798.241 302.4,798.241 C306.8,798.241 311.2,797.041 314.8,794.841 C318.5,792.241 320.6,788.241 321.3,782.641 C321.5,781.341 321.5,779.941 321.5,778.441 C321.5,774.541 321,769.841 320,764.041 C319.6,761.941 319.2,758.941 318.5,755.141 C324.3,753.241 328.4,749.541 332.2,743.741 C334.5,739.741 335.6,735.641 335.6,731.341 C335.6,729.441 335.4,727.541 335,725.641 M304.8,647.741 C306.6,642.041 309.3,638.641 311.3,636.941 C313.1,635.441 314.7,634.741 315.6,634.741 C315.7,634.741 315.9,634.841 316,634.841 C316.3,634.941 316.7,635.441 317.1,636.141 C318,637.941 318.9,641.241 318.9,644.941 C318.9,646.841 318.7,648.841 318.1,650.641 C315.9,657.441 311.3,664.741 304.3,672.441 C304.1,671.341 303.9,670.341 303.8,669.341 C303.3,666.141 303,662.941 303,660.041 C303,655.541 303.6,651.441 304.8,647.741 M300.8,751.841 C296.2,750.641 291.7,748.141 287.9,744.641 C286.6,743.441 284.8,741.241 283.3,737.841 C282,734.841 281.3,731.741 281.3,728.341 L281.3,727.641 C281.4,722.941 282.7,718.141 285.2,713.341 C288.1,707.741 292.6,702.241 298.7,696.941 C300.2,695.641 301.6,694.341 302.9,693.041 C303.7,697.341 304.4,702.041 305.3,706.941 C301.4,708.241 296.7,711.241 293.6,716.941 C291.2,721.441 290.5,725.341 290.5,728.541 C290.5,730.041 290.7,731.441 290.9,732.541 C291.8,737.041 294.4,740.741 297.9,742.841 C298.7,743.341 302,745.041 304,745.041 C304.3,745.041 304.6,745.041 304.8,744.941 C305.1,744.841 305.4,744.641 305.5,744.341 C305.6,744.141 305.6,743.941 305.6,743.741 C305.6,742.941 304.8,742.341 303.5,741.541 C302.9,741.141 302.2,740.741 301.5,740.241 C298.9,738.241 297.4,735.141 297.4,731.741 C297.4,730.741 297.6,729.841 297.8,728.841 C298.3,726.841 300,724.041 301.5,722.641 C303.2,721.141 305.2,719.941 307.6,719.341 C309.6,730.541 311.7,741.641 313.3,750.041 C313.4,750.741 313.6,751.441 313.7,752.141 C311.7,752.541 309.7,752.741 307.8,752.741 C305.4,752.741 303.1,752.441 300.8,751.841 M326.5,741.641 C325.3,744.841 322.8,748.841 317.7,750.941 C317.6,750.541 317.6,750.041 317.5,749.641 C316,740.841 314.1,729.941 312.1,718.641 L313.1,718.641 C322.8,718.641 326.7,725.841 327.6,730.441 C327.8,731.341 327.9,732.541 327.9,733.841 C327.9,736.141 327.5,738.941 326.5,741.641"/>
<path class="Clef" d="M335,1338.18 C333.8,1332.78 331.1,1328.88 330.3,1327.88 C327.1,1323.58 323.1,1320.78 318.4,1319.38 C316.1,1318.68 314,1318.48 312,1318.48 C311.3,1318.48 310.6,1318.48 309.9,1318.58 C308.9,1312.58 307.8,1306.68 306.9,1301.28 C312.5,1295.08 316.2,1289.18 318.6,1284.78 C322.2,1278.08 323.6,1273.38 323.7,1273.18 C324.9,1270.18 325.6,1266.38 325.6,1261.88 C325.6,1259.18 325.3,1256.28 324.9,1253.28 C323.8,1246.18 321.6,1239.48 319.1,1235.78 C317.8,1233.88 316.6,1232.78 315.4,1232.78 C314.2,1232.78 311.7,1233.98 308.8,1236.78 C306.5,1238.98 303.2,1242.88 300.6,1248.88 C298.3,1254.28 297.6,1261.18 297.6,1267.08 C297.6,1268.88 297.7,1270.58 297.8,1272.18 C298,1275.78 298.7,1281.58 299.3,1285.18 C299.3,1285.28 299.6,1286.78 300,1289.38 L299.3,1290.08 C298.3,1291.08 297.1,1292.18 295.7,1293.58 C294.8,1294.48 293.9,1295.28 292.9,1296.28 C284.4,1304.48 271.6,1316.88 271.6,1335.98 C271.6,1340.68 272.5,1345.08 274.3,1349.08 C275.9,1352.68 278.2,1355.98 281.1,1358.88 C288.6,1366.28 298.8,1369.48 305.9,1369.48 L306.5,1369.48 C309.4,1369.38 312.1,1369.08 314.5,1368.68 C316.3,1378.28 317.5,1385.38 317.5,1390.68 C317.5,1397.18 315.9,1401.08 312,1403.88 C309.6,1405.58 306.7,1406.68 303.6,1406.78 L302.8,1406.78 C301.3,1406.78 298.8,1406.38 297.3,1405.98 C297.3,1405.98 297,1405.88 297,1405.68 C297,1405.48 297.4,1405.48 297.4,1405.48 C299.3,1405.08 302.9,1403.78 305.3,1400.48 C306.4,1398.98 307.1,1396.68 307.1,1394.18 C307.1,1392.58 306.8,1390.88 306.1,1389.38 C305,1386.98 302.4,1383.98 296.8,1383.58 L295.7,1383.58 C293.6,1383.58 291.8,1384.08 290.1,1385.08 C288.3,1386.18 286.7,1387.88 285.7,1389.88 C284.6,1391.88 284.1,1394.08 284.1,1396.28 C284.1,1399.18 285,1401.88 286.8,1404.08 C289.8,1407.68 294.5,1409.98 299.9,1410.58 C300.6,1410.68 301.7,1410.78 302.4,1410.78 C306.8,1410.78 311.2,1409.58 314.8,1407.38 C318.5,1404.78 320.6,1400.78 321.3,1395.18 C321.5,1393.88 321.5,1392.48 321.5,1390.98 C321.5,1387.08 321,1382.38 320,1376.58 C319.6,1374.48 319.2,1371.48 318.5,1367.68 C324.3,1365.78 328.4,1362.08 332.2,1356.28 C334.5,1352.28 335.6,1348.18 335.6,1343.88 C335.6,1341.98 335.4,1340.08 335,1338.18 M304.8,1260.28 C306.6,1254.58 309.3,1251.18 311.3,1249.48 C313.1,1247.98 314.7,1247.28 315.6,1247.28 C315.7,1247.28 315.9,1247.38 316,1247.38 C316.3,1247.48 316.7,1247.98 317.1,1248.68 C318,1250.48 318.9,1253.78 318.9,1257.48 C318.9,1259.38 318.7,1261.38 318.1,1263.18 C315.9,1269.98 311.3,1277.28 304.3,1284.98 C304.1,1283.88 303.9,1282.88 303.8,1281.88 C303.3,1278.68 303,1275.48 303,1272.58 C303,1268.08 303.6,1263.98 304.8,1260.28 M300.8,1364.38 C296.2,1363.18 291.7,1360.68 287.9,1357.18 C286.6,1355.98 284.8,1353.78 283.3,1350.38 C282,1347.38 281.3,1344.28 281.3,1340.88 L281.3,1340.18 C281.4,1335.48 282.7,1330.68 285.2,1325.88 C288.1,1320.28 292.6,1314.78 298.7,1309.48 C300.2,1308.18 301.6,1306.88 302.9,1305.58 C303.7,1309.88 304.4,1314.58 305.3,1319.48 C301.4,1320.78 296.7,1323.78 293.6,1329.48 C291.2,1333.98 290.5,1337.88 290.5,1341.08 C290.5,1342.58 290.7,1343.98 290.9,1345.08 C291.8,1349.58 294.4,1353.28 297.9,1355.38 C298.7,1355.88 302,1357.58 304,1357.58 C304.3,1357.58 304.6,1357.58 304.8,1357.48 C305.1,1357.38 305.4,1357.18 305.5,1356.88 C305.6,1356.68 305.6,1356.48 305.6,1356.28 C305.6,1355.48 304.8,1354.88 303.5,1354.08 C302.9,1353.68 302.2,1353.28 301.5,1352.78 C298.9,1350.78 297.4,1347.68 297.4,1344.28 C297.4,1343.28 297.6,1342.38 297.8,1341.38 C298.3,1339.38 300,1336.58 301.5,1335.18 C303.2,1333.68 305.2,1332.48 307.6,1331.88 C309.6,1343.08 311.7,1354.18 313.3,1362.58 C313.4,1363.28 313.6,1363.98 313.7,1364.68 C311.7,1365.08 309.7,1365.28 307.8,1365.28 C305.4,1365.28 303.1,1364.98 300.8,1364.38 M326.5,1354.18 C325.3,1357.38 322.8,1361.38 317.7,1363.48 C317.6,1363.08 317.6,1362.58 317.5,1362.18 C316,1353.38 314.1,1342.48 312.1,1331.18 L313.1,1331.18 C322.8,1331.18 326.7,1338.38 327.6,1342.98 C327.8,1343.88 327.9,1345.08 327.9,1346.38 C327.9,1348.68 327.5,1351.48 326.5,1354.18"/>
<path class="TimeSig" d="M392.053,942.954 L392.253,942.954 C400.253,939.854 400.753,934.654 400.753,932.854 L400.753,932.354 C400.753,931.454 400.453,920.154 383.253,920.154 C366.053,920.154 366.553,932.354 366.553,932.354 L366.653,932.354 L366.553,932.554 C366.553,936.154 369.453,938.954 373.053,938.954 C376.653,938.954 379.453,936.154 379.453,932.554 C379.453,929.654 377.253,926.854 374.453,926.254 L374.753,925.954 C376.153,924.954 378.053,924.454 379.953,924.454 C384.153,924.454 388.653,926.954 388.653,932.354 C388.653,938.654 383.953,939.554 382.753,939.754 C381.553,939.954 375.953,940.354 374.753,940.354 C373.553,940.354 373.453,941.754 373.453,941.754 L373.453,943.754 C373.453,943.754 373.653,944.854 374.753,944.954 C376.453,945.054 378.753,945.054 381.953,945.554 C386.353,946.154 388.653,949.154 388.653,956.154 C388.653,962.854 384.153,964.654 379.953,964.654 C377.153,964.654 374.553,963.854 373.453,963.054 C376.753,962.854 379.453,959.954 379.453,956.654 C379.453,953.054 376.653,950.154 373.053,950.154 C369.453,950.154 366.553,953.054 366.553,956.654 C366.553,956.654 366.053,961.154 370.453,965.254 C374.353,968.854 379.253,968.954 381.453,968.954 C391.053,968.954 401.453,965.654 401.453,954.754 C401.453,947.454 396.453,944.354 392.053,942.954"/>
<path class="TimeSig" d="M365.2,1006.06 L382,1006.06 L382,1013.36 L373.9,1013.36 C373.1,1013.36 372.5,1013.96 372.5,1014.76 L372.5,1016.66 C372.5,1017.46 373.1,1017.96 373.9,1017.96 L403.6,1017.96 C404.4,1017.96 405,1017.46 405,1016.66 L405,1014.76 C405,1013.96 404.4,1013.36 403.6,1013.36 L394.8,1013.36 L394.8,1006.06 L403.6,1006.06 C404.4,1006.06 405,1005.46 405,1004.66 L405,1002.86 C405,1002.06 404.4,1001.46 403.6,1001.46 L394.8,1001.46 L394.8,985.758 C394.8,985.258 394.4,984.758 394,984.558 L392.9,983.958 C392.7,983.858 392.4,983.858 392.2,983.858 C391.9,983.858 391.5,983.958 391.3,984.158 L382.4,992.358 C382.2,992.558 382,993.058 382,993.358 L382,1001.46 L370.7,1001.46 C370.7,1001.46 381.6,989.658 393.2,974.158 C394,973.058 393.6,972.058 393.4,971.858 L391.3,969.658 C391.1,969.458 390.6,969.258 390.3,969.258 L375.7,969.258 C375,969.258 374.5,969.858 374.4,970.458 C374.4,970.458 373.9,977.658 371.3,985.658 C368.7,993.658 365.9,998.458 363.3,1002.06 C363.3,1002.06 362.8,1003.06 363.1,1003.76 C363.4,1004.46 364.1,1005.56 364.1,1005.56 C364.1,1005.56 364.4,1006.06 365.2,1006.06"/>
<path class="TimeSig" d="M392.053,680.438 L392.253,680.438 C400.253,677.338 400.753,672.138 400.753,670.338 L400.753,669.838 C400.753,668.938 400.453,657.638 383.253,657.638 C366.053,657.638 366.553,669.838 366.553,669.838 L366.653,669.838 L366.553,670.038 C366.553,673.638 369.453,676.438 373.053,676.438 C376.653,676.438 379.453,673.638 379.453,670.038 C379.453,667.138 377.253,664.338 374.453,663.738 L374.753,663.438 C376.153,662.438 378.053,661.938 379.953,661.938 C384.153,661.938 388.653,664.438 388.653,669.838 C388.653,676.138 383.953,677.038 382.753,677.238 C381.553,677.438 375.953,677.838 374.753,677.838 C373.553,677.838 373.453,679.238 373.453,679.238 L373.453,681.238 C373.453,681.238 373.653,682.338 374.753,682.438 C376.453,682.538 378.753,682.538 381.953,683.038 C386.353,683.638 388.653,686.638 388.653,693.638 C388.653,700.338 384.153,702.138 379.953,702.138 C377.153,702.138 374.553,701.338 373.453,700.538 C376.753,700.338 379.453,697.438 379.453,694.138 C379.453,690.538 376.653,687.638 373.053,687.638 C369.453,687.638 366.553,690.538 366.553,694.138 C366.553,694.138 366.053,698.638 370.453,702.738 C374.353,706.338 379.253,706.438 381.453,706.438 C391.053,706.438 401.453,703.138 401.453,692.238 C401.453,684.938 396.453,681.838 392.053,680.438"/>
<path class="TimeSig" d="M365.2,743.541 L382,743.541 L382,750.841 L373.9,750.841 C373.1,750.841 372.5,751.441 372.5,752.241 L372.5,754.141 C372.5,754.941 373.1,755.441 373.9,755.441 L403.6,755.441 C404.4,755.441 405,754.941 405,754.141 L405,752.241 C405,751.441 404.4,750.841 403.6,750.841 L394.8,750.841 L394.8,743.541 L403.6,743.541 C404.4,743.541 405,742.941 405,742.141 L405,740.341 C405,739.541 404.4,738.941 403.6,738.941 L394.8,738.941 L394.8,723.241 C394.8,722.741 394.4,722.241 394,722.041 L392.9,721.441 C392.7,721.341 392.4,721.341 392.2,721.341 C391.9,721.341 391.5,721.441 391.3,721.641 L382.4,729.841 C382.2,730.041 382,730.541 382,730.841 L382,738.941 L370.7,738.941 C370.7,738.941 381.6,727.141 393.2,711.641 C394,710.541 393.6,709.541 393.4,709.341 L391.3,707.141 C391.1,706.941 390.6,706.741 390.3,706.741 L375.7,706.741 C375,706.741 374.5,707.341 374.4,707.941 C374.4,707.941 373.9,715.141 371.3,723.141 C368.7,731.141 365.9,735.941 363.3,739.541 C363.3,739.541 362.8,740.541 363.1,741.241 C363.4,741.941 364.1,743.041 364.1,743.041 C364.1,743.041 364.4,743.541 365.2,743.541"/>
<path class="Page" d="M227.904,4034.43 L212.604,4055.72 L212.604,4058.24 L225.249,4058.24 L225.249,4060.58 C225.249,4062.87 225.249,4062.96 224.979,4063.37 C224.619,4063.86 223.764,4064 221.199,4064 L220.704,4064 L220.704,4066.11 L233.844,4066.11 L233.844,4064 L233.664,4064 C231.099,4064 230.244,4063.86 229.884,4063.37 C229.614,4062.96 229.614,4062.92 229.614,4060.58 L229.614,4058.24 L235.059,4058.24 L235.059,4055.72 L229.614,4055.72 L229.614,4043.43 C229.614,4037.81 229.614,4037.67 229.839,4034.43 L227.904,4034.43 M225.249,4055.72 L215.349,4055.72 L225.249,4042.08 L225.249,4055.72 M239.014,4045.32 L240.994,4045.64 L241.804,4042.08 C242.479,4039.11 242.794,4038.66 244.099,4038.66 C244.324,4038.66 244.684,4038.66 245.089,4038.71 C250.624,4038.98 250.624,4038.98 252.694,4038.98 C253.279,4038.98 254.314,4038.98 255.574,4038.93 L252.514,4045.1 C249.184,4051.71 248.779,4052.52 247.654,4055.31 C246.259,4058.69 245.539,4061.52 245.539,4063.41 C245.539,4065.48 246.619,4066.74 248.374,4066.74 C250.534,4066.74 251.389,4065.3 251.344,4061.39 C251.119,4054.91 251.929,4051.76 256.744,4041.23 C257.419,4039.79 258.094,4038.39 258.769,4037 C258.814,4036.91 258.949,4036.5 259.219,4035.92 L259.219,4034.61 C256.519,4034.84 255.079,4034.93 252.289,4034.93 C248.374,4034.93 245.269,4034.79 240.409,4034.43 L239.014,4045.32 "/>
<path class="Bracket" transform="matrix(3.62523,0,0,3.62523,214.469,1019.06)" d="M0.92002,-50 C2.69004,-51.88 6.2,-55.8 6.2,-63 C6.2,-72.1 2.25996,-81.32 2.25996,-86.97 C2.25996,-93.06 5.84004,-98.84 5.95,-99 C6.05996,-99.16 6.05,-99.39 5.94004,-99.46 C5.82998,-99.53 5.62002,-99.47 5.49004,-99.32 C5.35996,-99.17 0,-93.75 0,-85.6 C0,-76.75 3.5,-70.58 3.5,-59.07 C3.5,-56.89 2.55996,-53.36 0.1,-50.33 C-0.0799805,-50.17 -0.1,-49.89 0.0599609,-49.7 L0.0700195,-49.69 L0.1,-49.66 C2.55996,-46.63 3.5,-43.1 3.5,-40.92 C3.5,-29.4 0,-23.24 0,-14.39 C0,-6.25 5.35996,-0.8 5.49004,-0.659961 C5.62002,-0.52002 5.8,-0.42998 5.94004,-0.52002 C6.07998,-0.609961 6.07998,-0.77998 5.95,-0.97998 C5.82002,-1.17998 2.25996,-6.92002 2.25996,-13.01 C2.25996,-18.66 6.2,-27.9 6.2,-37 C6.2,-44.3 2.69004,-48.12 0.92002,-50"/>
<path class="Bracket" transform="matrix(3.62523,0,0,3.62523,214.469,1631.6)" d="M0.92002,-50 C2.69004,-51.88 6.2,-55.8 6.2,-63 C6.2,-72.1 2.25996,-81.32 2.25996,-86.97 C2.25996,-93.06 5.84004,-98.84 5.95,-99 C6.05996,-99.16 6.05,-99.39 5.94004,-99.46 C5.82998,-99.53 5.62002,-99.47 5.49004,-99.32 C5.35996,-99.17 0,-93.75 0,-85.6 C0,-76.75 3.5,-70.58 3.5,-59.07 C3.5,-56.89 2.55996,-53.36 0.1,-50.33 C-0.0799805,-50.17 -0.1,-49.89 0.0599609,-49.7 L0.0700195,-49.69 L0.1,-49.66 C2.55996,-46.63 3.5,-43.1 3.5,-40.92 C3.5,-29.4 0,-23.24 0,-14.39 C0,-6.25 5.35996,-0.8 5.49004,-0.659961 C5.62002,-0.52002 5.8,-0.42998 5.94004,-0.52002 C6.07998,-0.609961 6.07998,-0.77998 5.95,-0.97998 C5.82002,-1.17998 2.25996,-6.92002 2.25996,-13.01 C2.25996,-18.66 6.2,-27.9 6.2,-37 C6.2,-44.3 2.69004,-48.12 0.92002,-50"/>
</svg>