<?xml version="1.0" encoding="UTF-8" standalone="no"?>
<svg width="1000px" height="500px" viewBox="150 650 2700 1000" xmlns="http://www.w3.org/2000/svg" xmlns:xlink="http://www.w3.org/1999/xlink" version="1.2" baseProfile="tiny">
 xmlns="http://www.w3.org/2000/svg" xmlns:xlink="http://www.w3.org/1999/xlink" version="1.2" baseProfile="tiny">
<title>exercises_scores (42)</title>
<desc>Generated by MuseScore 3.6.0</desc>
<polyline class="StaffLines" fill="none" stroke="#000000" stroke-width="2.75" stroke-linejoin="bevel" points="247.099,656.536 2764.63,656.536"/>
<polyline class="StaffLines" fill="none" stroke="#000000" stroke-width="2.75" stroke-linejoin="bevel" points="247.099,681.538 2764.63,681.538"/>
<polyline class="StaffLines" fill="none" stroke="#000000" stroke-width="2.75" stroke-linejoin="bevel" points="247.099,706.539 2764.63,706.539"/>
<polyline class="StaffLines" fill="none" stroke="#000000" stroke-width="2.75" stroke-linejoin="bevel" points="247.099,731.541 2764.63,731.541"/>
<polyline class="StaffLines" fill="none" stroke="#000000" stroke-width="2.75" stroke-linejoin="bevel" points="247.099,756.542 2764.63,756.542"/>
<polyline class="StaffLines" fill="none" stroke="#000000" stroke-width="2.75" stroke-linejoin="bevel" points="247.099,919.053 2764.63,919.053"/>
<polyline class="StaffLines" fill="none" stroke="#000000" stroke-width="2.75" stroke-linejoin="bevel" points="247.099,944.054 2764.63,944.054"/>
<polyline class="StaffLines" fill="none" stroke="#000000" stroke-width="2.75" stroke-linejoin="bevel" points="247.099,969.056 2764.63,969.056"/>
<polyline class="StaffLines" fill="none" stroke="#000000" stroke-width="2.75" stroke-linejoin="bevel" points="247.099,994.057 2764.63,994.057"/>
<polyline class="StaffLines" fill="none" stroke="#000000" stroke-width="2.75" stroke-linejoin="bevel" points="247.099,1019.06 2764.63,1019.06"/>
<polyline class="StaffLines" fill="none" stroke="#000000" stroke-width="2.75" stroke-linejoin="bevel" points="247.099,1269.07 2764.63,1269.07"/>
<polyline class="StaffLines" fill="none" stroke="#000000" stroke-width="2.75" stroke-linejoin="bevel" points="247.099,1294.08 2764.63,1294.08"/>
<polyline class="StaffLines" fill="none" stroke="#000000" stroke-width="2.75" stroke-linejoin="bevel" points="247.099,1319.08 2764.63,1319.08"/>
<polyline class="StaffLines" fill="none" stroke="#000000" stroke-width="2.75" stroke-linejoin="bevel" points="247.099,1344.08 2764.63,1344.08"/>
<polyline class="StaffLines" fill="none" stroke="#000000" stroke-width="2.75" stroke-linejoin="bevel" points="247.099,1369.08 2764.63,1369.08"/>
<polyline class="StaffLines" fill="none" stroke="#000000" stroke-width="2.75" stroke-linejoin="bevel" points="247.099,1531.59 2764.63,1531.59"/>
<polyline class="StaffLines" fill="none" stroke="#000000" stroke-width="2.75" stroke-linejoin="bevel" points="247.099,1556.59 2764.63,1556.59"/>
<polyline class="StaffLines" fill="none" stroke="#000000" stroke-width="2.75" stroke-linejoin="bevel" points="247.099,1581.59 2764.63,1581.59"/>
<polyline class="StaffLines" fill="none" stroke="#000000" stroke-width="2.75" stroke-linejoin="bevel" points="247.099,1606.6 2764.63,1606.6"/>
<polyline class="StaffLines" fill="none" stroke="#000000" stroke-width="2.75" stroke-linejoin="bevel" points="247.099,1631.6 2764.63,1631.6"/>
<path class="Text" d="M212.602,213.497 L212.602,216.317 L213.682,216.317 C217.102,216.377 218.242,216.557 218.722,217.157 C219.082,217.697 219.082,217.817 219.082,220.877 L219.082,249.437 C219.082,252.497 219.082,252.617 218.722,253.157 C218.242,253.757 217.102,253.997 213.682,253.997 L212.602,253.997 L212.602,256.817 L234.382,256.817 C244.762,256.817 251.002,252.437 251.002,245.057 C251.002,239.057 247.222,235.637 239.002,234.197 C241.882,233.597 243.202,233.057 244.762,231.917 C247.222,230.057 248.722,227.117 248.722,224.117 C248.722,220.217 246.322,216.437 242.842,214.937 C240.682,213.977 237.682,213.497 234.142,213.497 L212.602,213.497 M225.802,232.997 L225.802,219.317 C225.802,216.977 226.582,216.377 229.762,216.317 L232.162,216.317 C234.922,216.317 237.202,216.797 238.462,217.577 C240.622,218.897 241.762,221.417 241.762,224.777 C241.762,230.717 238.882,232.997 231.142,232.997 L225.802,232.997 M225.802,235.817 L231.082,235.817 C240.262,235.817 243.622,238.277 243.622,244.877 C243.622,248.717 242.302,251.477 239.962,252.617 C238.102,253.577 235.582,253.997 231.802,253.997 L229.282,253.997 C226.282,253.997 225.682,253.397 225.802,250.217 L225.802,235.817 M265.994,228.857 L255.374,229.517 L255.374,232.097 L257.834,232.097 C260.114,232.157 260.414,232.517 260.414,235.097 L260.414,249.437 L260.414,252.257 C260.354,253.157 260.294,253.517 260.054,253.817 C259.634,254.357 258.434,254.597 255.854,254.657 L255.614,254.657 L255.614,256.817 L271.634,256.817 L271.634,254.657 L270.554,254.657 C266.534,254.537 265.994,254.237 265.994,252.077 L265.994,249.437 L265.994,248.837 C266.054,238.757 269.654,231.077 274.334,230.837 C273.494,231.797 273.254,232.397 273.254,233.537 C273.254,235.457 274.634,236.837 276.554,236.837 C278.774,236.837 280.214,235.217 280.214,232.817 C280.214,229.877 278.174,227.957 274.994,227.957 C271.214,227.957 267.974,230.957 265.994,236.297 L265.994,228.857 M295.562,227.957 C288.182,227.957 282.482,234.497 282.482,242.897 C282.482,251.117 288.242,257.717 295.442,257.717 C302.642,257.717 308.402,251.117 308.402,242.837 C308.402,234.617 302.642,227.957 295.562,227.957 M295.562,230.537 C299.762,230.537 302.102,234.917 302.102,242.837 C302.102,250.817 299.762,255.137 295.442,255.137 C291.122,255.137 288.782,250.817 288.782,242.897 C288.782,234.737 291.062,230.537 295.562,230.537 M322.382,242.297 L322.382,212.597 L311.282,213.257 L311.282,215.837 L314.162,215.837 C316.442,215.897 316.742,216.257 316.742,218.837 L316.742,249.437 L316.742,252.317 C316.682,253.157 316.622,253.517 316.382,253.817 C315.962,254.357 314.822,254.597 312.242,254.657 L312.002,254.657 L312.002,256.817 L327.182,256.817 L327.182,254.657 L326.942,254.657 C322.922,254.537 322.382,254.237 322.382,252.077 L322.382,249.437 L322.382,246.017 L326.042,242.537 L333.182,252.557 C333.482,253.037 333.602,253.337 333.602,253.577 C333.602,254.417 332.942,254.657 330.962,254.657 L329.822,254.657 L329.822,256.817 L345.662,256.817 L345.662,254.657 C342.302,254.357 341.102,253.637 338.642,250.517 L330.122,238.877 L332.822,236.237 C336.362,232.817 338.882,231.497 342.962,231.017 L342.962,228.857 L327.182,228.857 L327.182,231.017 L329.042,231.017 C330.962,231.017 331.862,231.377 331.862,232.157 C331.862,232.817 331.442,233.537 330.482,234.497 L322.382,242.297 M372.842,243.317 C372.902,234.317 367.802,227.957 360.482,227.957 C352.802,227.957 347.042,234.617 347.042,243.617 C347.042,252.077 352.502,257.717 360.602,257.717 C366.362,257.717 370.382,254.897 372.842,249.197 L370.742,248.057 C368.282,252.677 365.762,254.477 361.742,254.477 C358.682,254.477 356.462,253.217 354.902,250.517 C353.822,248.717 353.342,246.617 353.402,243.317 L372.842,243.317 M353.462,240.737 C353.462,238.877 353.702,237.557 354.302,235.877 C355.562,232.277 357.482,230.537 360.422,230.537 C364.022,230.537 366.422,233.717 366.422,238.577 C366.422,240.257 365.882,240.737 363.962,240.737 L353.462,240.737 M386.942,228.857 L376.562,229.517 L376.562,232.097 L378.722,232.097 C381.002,232.157 381.302,232.517 381.302,235.097 L381.302,249.437 L381.302,250.877 L381.302,252.257 C381.242,253.157 381.182,253.517 380.942,253.817 C380.522,254.357 379.382,254.597 376.802,254.657 L376.562,254.657 L376.562,256.817 L391.742,256.817 L391.742,254.657 L391.502,254.657 C387.482,254.537 386.942,254.237 386.942,252.077 L386.942,249.437 L386.942,243.197 C386.942,240.257 387.362,237.557 388.022,236.177 C389.282,233.477 391.982,231.617 394.562,231.617 C396.122,231.617 397.922,232.457 398.822,233.717 C399.722,235.037 400.142,236.837 400.142,239.717 L400.142,249.437 L400.142,252.257 C400.082,253.157 400.022,253.517 399.782,253.817 C399.362,254.357 398.162,254.597 395.582,254.657 L395.342,254.657 L395.342,256.817 L410.522,256.817 L410.522,254.657 L410.282,254.657 C406.322,254.537 405.782,254.237 405.782,252.077 L405.782,249.437 L405.782,240.017 C405.782,235.697 405.602,234.617 404.522,232.577 C403.022,229.697 400.022,227.957 396.422,227.957 C392.522,227.957 389.582,229.757 386.942,233.717 L386.942,228.857 M466.61,213.077 L464.33,213.077 L461.93,216.617 C457.55,213.437 455.33,212.597 451.19,212.597 C445.49,212.597 440.63,214.997 436.61,219.797 C432.77,224.357 430.97,229.397 430.97,235.577 C430.97,248.537 439.43,257.717 451.25,257.717 C460.85,257.717 466.97,252.077 468.35,241.997 L465.53,241.517 C463.91,250.457 459.35,254.897 451.97,254.897 C443.09,254.897 438.89,248.777 438.89,235.817 C438.89,228.977 439.79,224.477 441.83,220.877 C443.69,217.517 447.35,215.417 451.25,215.417 C455.45,215.417 459.17,217.637 461.45,221.477 C462.59,223.457 463.43,225.677 464.87,230.417 L467.51,230.417 L466.61,213.077 M483.583,212.597 L472.483,213.257 L472.483,215.837 L475.363,215.837 C477.643,215.897 477.943,216.257 477.943,218.837 L477.943,249.437 L477.943,250.877 L477.943,252.317 C477.883,253.157 477.823,253.517 477.583,253.817 C477.163,254.357 476.023,254.597 473.443,254.657 L473.203,254.657 L473.203,256.817 L488.383,256.817 L488.383,254.657 L488.143,254.657 C484.123,254.537 483.583,254.237 483.583,252.077 L483.583,249.437 L483.583,243.197 C483.583,240.257 484.003,237.557 484.663,236.177 C485.983,233.477 488.623,231.617 491.203,231.617 C492.763,231.617 494.563,232.517 495.403,233.717 C496.363,235.037 496.783,236.837 496.783,239.777 L496.783,249.437 L496.783,252.317 C496.723,253.157 496.663,253.517 496.423,253.817 C496.003,254.357 494.803,254.597 492.223,254.657 L491.983,254.657 L491.983,256.817 L507.163,256.817 L507.163,254.657 L506.923,254.657 C502.963,254.537 502.423,254.237 502.423,252.077 L502.423,249.437 L502.423,240.017 C502.423,235.697 502.243,234.617 501.163,232.577 C499.663,229.637 496.663,227.957 493.063,227.957 C489.163,227.957 486.283,229.697 483.583,233.717 L483.583,212.597 M523.359,227.957 C515.979,227.957 510.279,234.497 510.279,242.897 C510.279,251.117 516.039,257.717 523.239,257.717 C530.439,257.717 536.199,251.117 536.199,242.837 C536.199,234.617 530.439,227.957 523.359,227.957 M523.359,230.537 C527.559,230.537 529.899,234.917 529.899,242.837 C529.899,250.817 527.559,255.137 523.239,255.137 C518.919,255.137 516.579,250.817 516.579,242.897 C516.579,234.737 518.859,230.537 523.359,230.537 M550.119,228.857 L539.499,229.517 L539.499,232.097 L541.959,232.097 C544.239,232.157 544.539,232.517 544.539,235.097 L544.539,249.437 L544.539,252.257 C544.479,253.157 544.419,253.517 544.179,253.817 C543.759,254.357 542.559,254.597 539.979,254.657 L539.739,254.657 L539.739,256.817 L555.759,256.817 L555.759,254.657 L554.679,254.657 C550.659,254.537 550.119,254.237 550.119,252.077 L550.119,249.437 L550.119,248.837 C550.179,238.757 553.779,231.077 558.459,230.837 C557.619,231.797 557.379,232.397 557.379,233.537 C557.379,235.457 558.759,236.837 560.679,236.837 C562.899,236.837 564.339,235.217 564.339,232.817 C564.339,229.877 562.299,227.957 559.119,227.957 C555.339,227.957 552.099,230.957 550.119,236.297 L550.119,228.857 M587.18,257.237 L597.62,256.817 L597.62,254.237 L596.54,254.237 C593.12,254.057 592.82,253.697 592.82,249.857 L592.82,212.597 L581.06,213.257 L581.06,215.837 L584.6,215.837 C586.88,215.897 587.18,216.257 587.18,218.837 L587.18,232.397 C584.96,229.337 582.38,227.957 578.9,227.957 C572.12,227.957 566.96,234.497 566.96,243.137 C566.96,251.657 571.94,257.717 578.9,257.717 C582.68,257.717 585.26,256.097 587.18,252.497 L587.18,257.237 M580.1,231.197 C582.56,231.197 584.9,232.997 585.98,235.757 C586.76,237.557 587.12,240.017 587.12,242.957 C587.12,249.977 584.36,254.477 580.04,254.477 C575.78,254.477 573.26,250.517 573.26,243.857 C573.26,240.257 573.62,237.557 574.4,235.577 C575.42,232.877 577.64,231.197 580.1,231.197 M607.757,250.157 C605.657,250.157 603.977,251.837 603.977,253.877 C603.977,255.977 605.657,257.657 607.697,257.657 C609.797,257.657 611.477,255.977 611.477,253.877 C611.477,251.837 609.797,250.157 607.757,250.157 M607.757,228.437 C605.657,228.437 603.977,230.117 603.977,232.217 C603.977,234.257 605.657,235.937 607.697,235.937 C609.797,235.937 611.477,234.257 611.477,232.157 C611.477,230.117 609.797,228.437 607.757,228.437 M670.501,213.077 L668.221,213.077 L665.821,216.617 C661.441,213.437 659.221,212.597 655.081,212.597 C649.381,212.597 644.521,214.997 640.501,219.797 C636.661,224.357 634.861,229.397 634.861,235.577 C634.861,248.537 643.321,257.717 655.141,257.717 C664.741,257.717 670.861,252.077 672.241,241.997 L669.421,241.517 C667.801,250.457 663.241,254.897 655.861,254.897 C646.981,254.897 642.781,248.777 642.781,235.817 C642.781,228.977 643.681,224.477 645.721,220.877 C647.581,217.517 651.241,215.417 655.141,215.417 C659.341,215.417 663.061,217.637 665.341,221.477 C666.481,223.457 667.321,225.677 668.761,230.417 L671.401,230.417 L670.501,213.077 M704.205,228.857 L693.525,229.517 L693.525,232.097 L695.985,232.097 C698.265,232.157 698.565,232.517 698.565,235.097 L698.565,249.437 L698.565,251.777 L698.565,252.257 C698.505,253.157 698.445,253.517 698.205,253.817 C697.785,254.357 696.645,254.597 694.065,254.657 L693.825,254.657 L693.825,256.817 L708.945,256.817 L708.945,254.657 L708.705,254.657 C704.745,254.537 704.205,254.237 704.205,252.017 L704.205,249.437 L704.205,240.917 C704.205,235.577 707.145,231.617 711.045,231.617 C714.465,231.617 716.205,234.077 716.205,238.937 L716.205,249.437 L716.205,252.317 C716.145,253.097 716.085,253.517 715.785,253.817 C715.425,254.357 714.225,254.597 711.645,254.657 L711.405,254.657 L711.405,256.817 L726.585,256.817 L726.585,254.657 L726.345,254.657 C722.385,254.537 721.845,254.237 721.845,252.077 L721.845,249.437 L721.845,241.457 C721.845,235.457 724.545,231.617 728.745,231.617 C732.165,231.617 733.845,234.197 733.845,239.597 L733.845,249.437 L733.845,252.257 C733.785,253.097 733.725,253.517 733.425,253.817 C733.065,254.357 731.865,254.597 729.285,254.657 L729.045,254.657 L729.045,256.817 L744.225,256.817 L744.225,254.657 L743.985,254.657 C740.025,254.537 739.485,254.237 739.485,252.017 L739.485,249.437 L739.485,238.397 C739.485,234.677 739.125,233.417 737.565,231.377 C735.825,229.157 733.365,227.957 730.485,227.957 C726.585,227.957 723.705,229.817 721.125,233.957 C720.105,230.357 716.865,227.957 712.845,227.957 C709.185,227.957 706.545,229.697 704.205,233.477 L704.205,228.857 M772.593,237.497 C772.593,233.717 771.933,231.797 770.193,230.357 C768.213,228.737 765.273,227.957 761.433,227.957 C754.653,227.957 749.733,231.137 749.733,235.517 C749.733,237.737 751.113,239.177 753.213,239.177 C755.133,239.177 756.453,237.917 756.453,236.117 C756.453,235.337 756.153,234.497 755.553,233.657 C755.193,233.237 755.133,233.117 755.133,232.817 C755.133,231.617 757.533,230.537 760.413,230.537 C762.333,230.537 764.433,231.137 765.393,232.037 C766.533,232.997 766.953,234.437 766.953,237.137 L766.953,239.477 C760.713,240.557 758.733,241.037 755.793,242.177 C750.573,244.097 748.113,246.857 748.113,250.697 C748.113,255.017 751.473,257.717 756.813,257.717 C760.953,257.717 764.673,256.037 767.253,252.977 C768.213,256.037 769.713,257.237 772.533,257.237 C775.233,257.237 778.053,255.497 778.053,253.757 C778.053,253.337 777.813,253.037 777.453,253.037 C777.213,253.037 776.973,253.097 776.553,253.277 C775.713,253.637 775.353,253.697 774.873,253.697 C773.193,253.697 772.593,252.617 772.593,249.557 L772.593,237.497 M766.953,244.817 C766.953,248.417 766.773,249.257 765.753,250.817 C764.253,253.037 761.553,254.537 758.913,254.537 C756.153,254.537 754.173,252.557 754.173,249.857 C754.173,247.337 755.433,245.537 758.073,244.277 C759.933,243.437 762.273,242.837 766.953,242.057 L766.953,244.817 M789.518,228.857 L777.818,229.517 L777.818,232.097 L781.298,232.097 C783.578,232.157 783.878,232.517 783.878,235.097 L783.878,255.437 C783.878,260.297 783.578,262.577 782.738,264.317 C782.138,265.517 780.758,266.417 779.438,266.417 C778.598,266.417 777.938,266.057 777.938,265.637 C777.938,265.397 777.998,265.277 778.238,264.677 C778.538,264.077 778.658,263.657 778.658,263.237 C778.658,261.737 777.218,260.417 775.538,260.417 C773.618,260.417 772.178,261.917 772.178,264.017 C772.178,266.957 774.878,268.937 778.898,268.937 C782.258,268.937 785.318,267.497 787.058,265.037 C788.918,262.397 789.518,259.337 789.518,252.557 L789.518,228.857 M786.698,213.917 C784.778,213.917 783.218,215.477 783.218,217.397 C783.218,219.317 784.778,220.877 786.638,220.877 C788.618,220.877 790.178,219.317 790.178,217.397 C790.178,215.477 788.618,213.917 786.698,213.917 M809.968,227.957 C802.588,227.957 796.888,234.497 796.888,242.897 C796.888,251.117 802.648,257.717 809.848,257.717 C817.048,257.717 822.808,251.117 822.808,242.837 C822.808,234.617 817.048,227.957 809.968,227.957 M809.968,230.537 C814.168,230.537 816.508,234.917 816.508,242.837 C816.508,250.817 814.168,255.137 809.848,255.137 C805.528,255.137 803.188,250.817 803.188,242.897 C803.188,234.737 805.468,230.537 809.968,230.537 M836.728,228.857 L826.108,229.517 L826.108,232.097 L828.568,232.097 C830.848,232.157 831.148,232.517 831.148,235.097 L831.148,249.437 L831.148,252.257 C831.088,253.157 831.028,253.517 830.788,253.817 C830.368,254.357 829.168,254.597 826.588,254.657 L826.348,254.657 L826.348,256.817 L842.368,256.817 L842.368,254.657 L841.288,254.657 C837.268,254.537 836.728,254.237 836.728,252.077 L836.728,249.437 L836.728,248.837 C836.788,238.757 840.388,231.077 845.068,230.837 C844.228,231.797 843.988,232.397 843.988,233.537 C843.988,235.457 845.368,236.837 847.288,236.837 C849.508,236.837 850.948,235.217 850.948,232.817 C850.948,229.877 848.908,227.957 845.728,227.957 C841.948,227.957 838.708,230.957 836.728,236.297 L836.728,228.857 "/>
<path class="TieSegment" stroke="#000000" stroke-width="1.75" stroke-linecap="round" stroke-linejoin="round" fill-rule="evenodd" d="M2606.85,1012.81 C2638.41,1033.29 2733.08,1033.29 2764.63,1012.81 C2733.08,1040.29 2638.41,1040.29 2606.85,1012.81"/>
<path class="TieSegment" stroke="#000000" stroke-width="1.75" stroke-linecap="round" stroke-linejoin="round" fill-rule="evenodd" d="M335.596,1633.05 C350.372,1640.78 394.698,1640.78 409.473,1633.05 C394.698,1647.78 350.372,1647.78 335.596,1633.05"/>
<path class="TieSegment" stroke="#000000" stroke-width="1.75" stroke-linecap="round" stroke-linejoin="round" fill-rule="evenodd" d="M2606.85,625.284 C2638.41,597.801 2733.08,597.801 2764.63,625.284 C2733.08,604.802 2638.41,604.802 2606.85,625.284"/>
<path class="TieSegment" stroke="#000000" stroke-width="1.75" stroke-linecap="round" stroke-linejoin="round" fill-rule="evenodd" d="M335.596,1237.82 C350.372,1223.09 394.698,1223.09 409.473,1237.82 C394.698,1230.09 350.372,1230.09 335.596,1237.82"/>
<polyline class="BarLine" stroke="#000000" stroke-width="4.50" stroke-linejoin="bevel" points="249.349,917.677 249.349,1020.43"/>
<polyline class="BarLine" stroke="#000000" stroke-width="4.50" stroke-linejoin="bevel" points="989.202,917.677 989.202,1020.43"/>
<polyline class="BarLine" stroke="#000000" stroke-width="4.50" stroke-linejoin="bevel" points="1549.4,917.677 1549.4,1020.43"/>
<polyline class="BarLine" stroke="#000000" stroke-width="4.50" stroke-linejoin="bevel" points="2129.73,917.677 2129.73,1020.43"/>
<polyline class="BarLine" stroke="#000000" stroke-width="4.50" stroke-linejoin="bevel" points="2762.38,917.677 2762.38,1020.43"/>
<polyline class="BarLine" stroke="#000000" stroke-width="4.50" stroke-linejoin="bevel" points="249.349,1530.22 249.349,1632.97"/>
<polyline class="BarLine" stroke="#000000" stroke-width="4.50" stroke-linejoin="bevel" points="939.825,1530.22 939.825,1632.97"/>
<polyline class="BarLine" stroke="#000000" stroke-width="4.50" stroke-linejoin="bevel" points="1536.43,1530.22 1536.43,1632.97"/>
<polyline class="BarLine" stroke="#000000" stroke-width="4.50" stroke-linejoin="bevel" points="2168.47,1530.22 2168.47,1632.97"/>
<polyline class="BarLine" stroke="#000000" stroke-width="4.50" stroke-linejoin="bevel" points="2734.88,1530.22 2734.88,1632.97"/>
<polyline class="BarLine" stroke="#000000" stroke-width="13.75" stroke-linejoin="bevel" points="2757.76,1530.22 2757.76,1632.97"/>
<polyline class="BarLine" stroke="#000000" stroke-width="4.50" stroke-linejoin="bevel" points="249.349,655.161 249.349,919.053"/>
<polyline class="BarLine" stroke="#000000" stroke-width="4.50" stroke-linejoin="bevel" points="989.202,655.161 989.202,919.053"/>
<polyline class="BarLine" stroke="#000000" stroke-width="4.50" stroke-linejoin="bevel" points="1549.4,655.161 1549.4,919.053"/>
<polyline class="BarLine" stroke="#000000" stroke-width="4.50" stroke-linejoin="bevel" points="2129.73,655.161 2129.73,919.053"/>
<polyline class="BarLine" stroke="#000000" stroke-width="4.50" stroke-linejoin="bevel" points="2762.38,655.161 2762.38,919.053"/>
<polyline class="BarLine" stroke="#000000" stroke-width="4.50" stroke-linejoin="bevel" points="249.349,1267.7 249.349,1531.59"/>
<polyline class="BarLine" stroke="#000000" stroke-width="4.50" stroke-linejoin="bevel" points="939.825,1267.7 939.825,1531.59"/>
<polyline class="BarLine" stroke="#000000" stroke-width="4.50" stroke-linejoin="bevel" points="1536.43,1267.7 1536.43,1531.59"/>
<polyline class="BarLine" stroke="#000000" stroke-width="4.50" stroke-linejoin="bevel" points="2168.47,1267.7 2168.47,1531.59"/>
<polyline class="BarLine" stroke="#000000" stroke-width="4.50" stroke-linejoin="bevel" points="2734.88,1267.7 2734.88,1531.59"/>
<polyline class="BarLine" stroke="#000000" stroke-width="13.75" stroke-linejoin="bevel" points="2757.76,1267.7 2757.76,1531.59"/>
<polyline class="LedgerLine" stroke="#000000" stroke-width="4.00" stroke-linejoin="bevel" points="1364,894.051 1414,894.051"/>
<polyline class="LedgerLine" stroke="#000000" stroke-width="4.00" stroke-linejoin="bevel" points="1756.51,894.051 1806.51,894.051"/>
<polyline class="LedgerLine" stroke="#000000" stroke-width="4.00" stroke-linejoin="bevel" points="1937.62,894.051 1987.62,894.051"/>
<polyline class="LedgerLine" stroke="#000000" stroke-width="4.00" stroke-linejoin="bevel" points="1937.62,869.049 1987.62,869.049"/>
<polyline class="LedgerLine" stroke="#000000" stroke-width="4.00" stroke-linejoin="bevel" points="2228.18,1044.06 2278.18,1044.06"/>
<polyline class="LedgerLine" stroke="#000000" stroke-width="4.00" stroke-linejoin="bevel" points="749,1656.6 798.995,1656.6"/>
<polyline class="LedgerLine" stroke="#000000" stroke-width="4.00" stroke-linejoin="bevel" points="1152.36,1656.6 1202.36,1656.6"/>
<polyline class="LedgerLine" stroke="#000000" stroke-width="4.00" stroke-linejoin="bevel" points="1338.89,1681.6 1388.89,1681.6"/>
<polyline class="LedgerLine" stroke="#000000" stroke-width="4.00" stroke-linejoin="bevel" points="1338.89,1656.6 1388.89,1656.6"/>
<polyline class="LedgerLine" stroke="#000000" stroke-width="4.00" stroke-linejoin="bevel" points="1628.05,1506.59 1678.05,1506.59"/>
<polyline class="LedgerLine" stroke="#000000" stroke-width="4.00" stroke-linejoin="bevel" points="455.002,781.544 504.998,781.544"/>
<polyline class="LedgerLine" stroke="#000000" stroke-width="4.00" stroke-linejoin="bevel" points="2547.41,1394.08 2597.4,1394.08"/>
<polyline class="Stem" stroke="#000000" stroke-width="2.75" stroke-linejoin="bevel" points="494.872,978.196 494.872,900.301"/>
<polyline class="Stem" stroke="#000000" stroke-width="2.75" stroke-linejoin="bevel" points="639.528,960.075 639.528,1037.81"/>
<polyline class="Stem" stroke="#000000" stroke-width="2.75" stroke-linejoin="bevel" points="813.927,935.074 813.927,1019.06"/>
<polyline class="Stem" stroke="#000000" stroke-width="2.75" stroke-linejoin="bevel" points="1025.33,960.075 1025.33,1037.81"/>
<polyline class="Stem" stroke="#000000" stroke-width="2.75" stroke-linejoin="bevel" points="1199.73,935.074 1199.73,1019.06"/>
<polyline class="Stem" stroke="#000000" stroke-width="2.75" stroke-linejoin="bevel" points="1374.13,897.571 1374.13,981.556"/>
<polyline class="Stem" stroke="#000000" stroke-width="2.75" stroke-linejoin="bevel" points="1585.53,935.074 1585.53,1019.06"/>
<polyline class="Stem" stroke="#000000" stroke-width="2.75" stroke-linejoin="bevel" points="1766.64,897.571 1766.64,981.556"/>
<polyline class="Stem" stroke="#000000" stroke-width="2.75" stroke-linejoin="bevel" points="1947.75,872.57 1947.75,969.056"/>
<polyline class="Stem" stroke="#000000" stroke-width="2.75" stroke-linejoin="bevel" points="2268.05,1040.7 2268.05,956.555"/>
<polyline class="Stem" stroke="#000000" stroke-width="2.75" stroke-linejoin="bevel" points="2442.45,1015.7 2442.45,931.553"/>
<polyline class="Stem" stroke="#000000" stroke-width="2.75" stroke-linejoin="bevel" points="2616.85,990.697 2616.85,909.677"/>
<polyline class="Stem" stroke="#000000" stroke-width="2.75" stroke-linejoin="bevel" points="429.219,1603.24 429.219,1522.22"/>
<polyline class="Stem" stroke="#000000" stroke-width="2.75" stroke-linejoin="bevel" points="609.044,1640.74 609.044,1556.59"/>
<polyline class="Stem" stroke="#000000" stroke-width="2.75" stroke-linejoin="bevel" points="788.869,1665.74 788.869,1581.59"/>
<polyline class="Stem" stroke="#000000" stroke-width="2.75" stroke-linejoin="bevel" points="1005.7,1640.74 1005.7,1556.59"/>
<polyline class="Stem" stroke="#000000" stroke-width="2.75" stroke-linejoin="bevel" points="1192.23,1665.74 1192.23,1581.59"/>
<polyline class="Stem" stroke="#000000" stroke-width="2.75" stroke-linejoin="bevel" points="1378.76,1690.74 1378.76,1581.59"/>
<polyline class="Stem" stroke="#000000" stroke-width="2.75" stroke-linejoin="bevel" points="1638.18,1510.11 1638.18,1594.1"/>
<polyline class="Stem" stroke="#000000" stroke-width="2.75" stroke-linejoin="bevel" points="1814.65,1547.61 1814.65,1631.6"/>
<polyline class="Stem" stroke="#000000" stroke-width="2.75" stroke-linejoin="bevel" points="1991.12,1572.61 1991.12,1650.35"/>
<polyline class="Stem" stroke="#000000" stroke-width="2.75" stroke-linejoin="bevel" points="2204.59,1547.61 2204.59,1631.6"/>
<polyline class="Stem" stroke="#000000" stroke-width="2.75" stroke-linejoin="bevel" points="2381.06,1572.61 2381.06,1650.35"/>
<polyline class="Stem" stroke="#000000" stroke-width="2.75" stroke-linejoin="bevel" points="2587.28,1590.73 2587.28,1512.84"/>
<polyline class="Stem" stroke="#000000" stroke-width="2.75" stroke-linejoin="bevel" points="494.872,778.184 494.872,694.038"/>
<polyline class="Stem" stroke="#000000" stroke-width="2.75" stroke-linejoin="bevel" points="669.272,753.182 669.272,669.037"/>
<polyline class="Stem" stroke="#000000" stroke-width="2.75" stroke-linejoin="bevel" points="843.671,728.181 843.671,647.16"/>
<polyline class="Stem" stroke="#000000" stroke-width="2.75" stroke-linejoin="bevel" points="1055.07,753.182 1055.07,669.037"/>
<polyline class="Stem" stroke="#000000" stroke-width="2.75" stroke-linejoin="bevel" points="1229.47,728.181 1229.47,647.16"/>
<polyline class="Stem" stroke="#000000" stroke-width="2.75" stroke-linejoin="bevel" points="1374.13,697.559 1374.13,775.293"/>
<polyline class="Stem" stroke="#000000" stroke-width="2.75" stroke-linejoin="bevel" points="1615.27,728.181 1615.27,647.16"/>
<polyline class="Stem" stroke="#000000" stroke-width="2.75" stroke-linejoin="bevel" points="1766.64,697.559 1766.64,775.293"/>
<polyline class="Stem" stroke="#000000" stroke-width="2.75" stroke-linejoin="bevel" points="1947.75,672.557 1947.75,756.542"/>
<polyline class="Stem" stroke="#000000" stroke-width="2.75" stroke-linejoin="bevel" points="2238.31,697.559 2238.31,775.293"/>
<polyline class="Stem" stroke="#000000" stroke-width="2.75" stroke-linejoin="bevel" points="2412.71,672.557 2412.71,756.542"/>
<polyline class="Stem" stroke="#000000" stroke-width="2.75" stroke-linejoin="bevel" points="2587.11,647.555 2587.11,731.541"/>
<polyline class="Stem" stroke="#000000" stroke-width="2.75" stroke-linejoin="bevel" points="399.475,1260.09 399.475,1344.08"/>
<polyline class="Stem" stroke="#000000" stroke-width="2.75" stroke-linejoin="bevel" points="579.3,1297.6 579.3,1378.46"/>
<polyline class="Stem" stroke="#000000" stroke-width="2.75" stroke-linejoin="bevel" points="759.125,1322.6 759.125,1397.21"/>
<polyline class="Stem" stroke="#000000" stroke-width="2.75" stroke-linejoin="bevel" points="975.952,1297.6 975.952,1378.46"/>
<polyline class="Stem" stroke="#000000" stroke-width="2.75" stroke-linejoin="bevel" points="1162.49,1322.6 1162.49,1397.21"/>
<polyline class="Stem" stroke="#000000" stroke-width="2.75" stroke-linejoin="bevel" points="1378.76,1340.72 1378.76,1259.7"/>
<polyline class="Stem" stroke="#000000" stroke-width="2.75" stroke-linejoin="bevel" points="1638.18,1310.1 1638.18,1387.83"/>
<polyline class="Stem" stroke="#000000" stroke-width="2.75" stroke-linejoin="bevel" points="1844.39,1340.72 1844.39,1259.7"/>
<polyline class="Stem" stroke="#000000" stroke-width="2.75" stroke-linejoin="bevel" points="2020.86,1365.72 2020.86,1281.58"/>
<polyline class="Stem" stroke="#000000" stroke-width="2.75" stroke-linejoin="bevel" points="2234.34,1340.72 2234.34,1259.7"/>
<polyline class="Stem" stroke="#000000" stroke-width="2.75" stroke-linejoin="bevel" points="2410.81,1365.72 2410.81,1281.58"/>
<polyline class="Stem" stroke="#000000" stroke-width="2.75" stroke-linejoin="bevel" points="2587.28,1390.72 2587.28,1306.58"/>
<path class="Note" d="M495.253,973.356 C493.753,970.656 490.853,968.956 486.953,968.556 C486.353,968.456 485.853,968.456 485.253,968.456 C481.753,968.456 477.953,969.456 474.453,971.356 C467.853,974.956 463.753,980.856 463.753,985.956 C463.753,987.356 463.953,988.656 464.653,989.856 C466.153,992.556 469.153,994.256 473.053,994.656 C473.653,994.756 474.153,994.756 474.753,994.756 C478.253,994.756 481.953,993.756 485.453,991.856 C492.053,988.256 496.253,982.456 496.253,977.356 C496.253,975.956 495.953,974.556 495.253,973.356"/>
<path class="Note" d="M669.653,948.355 C668.153,945.655 665.253,943.955 661.353,943.555 C660.753,943.455 660.253,943.455 659.653,943.455 C656.153,943.455 652.353,944.455 648.853,946.355 C642.253,949.955 638.153,955.855 638.153,960.955 C638.153,962.355 638.353,963.655 639.053,964.855 C640.553,967.555 643.553,969.255 647.453,969.655 C648.053,969.755 648.553,969.755 649.153,969.755 C652.653,969.755 656.353,968.755 659.853,966.855 C666.453,963.255 670.653,957.455 670.653,952.355 C670.653,950.955 670.353,949.555 669.653,948.355"/>
<path class="Note" d="M844.052,923.353 C842.552,920.653 839.652,918.953 835.752,918.553 C835.152,918.453 834.652,918.453 834.052,918.453 C830.552,918.453 826.752,919.453 823.252,921.353 C816.652,924.953 812.552,930.853 812.552,935.953 C812.552,937.353 812.752,938.653 813.452,939.853 C814.952,942.553 817.952,944.253 821.852,944.653 C822.452,944.753 822.952,944.753 823.552,944.753 C827.052,944.753 830.752,943.753 834.252,941.853 C840.852,938.253 845.052,932.453 845.052,927.353 C845.052,925.953 844.752,924.553 844.052,923.353"/>
<path class="Note" d="M1055.45,948.355 C1053.95,945.655 1051.05,943.955 1047.15,943.555 C1046.55,943.455 1046.05,943.455 1045.45,943.455 C1041.95,943.455 1038.15,944.455 1034.65,946.355 C1028.05,949.955 1023.95,955.855 1023.95,960.955 C1023.95,962.355 1024.15,963.655 1024.85,964.855 C1026.35,967.555 1029.35,969.255 1033.25,969.655 C1033.85,969.755 1034.35,969.755 1034.95,969.755 C1038.45,969.755 1042.15,968.755 1045.65,966.855 C1052.25,963.255 1056.45,957.455 1056.45,952.355 C1056.45,950.955 1056.15,949.555 1055.45,948.355"/>
<path class="Note" d="M1229.85,923.353 C1228.35,920.653 1225.45,918.953 1221.55,918.553 C1220.95,918.453 1220.45,918.453 1219.85,918.453 C1216.35,918.453 1212.55,919.453 1209.05,921.353 C1202.45,924.953 1198.35,930.853 1198.35,935.953 C1198.35,937.353 1198.55,938.653 1199.25,939.853 C1200.75,942.553 1203.75,944.253 1207.65,944.653 C1208.25,944.753 1208.75,944.753 1209.35,944.753 C1212.85,944.753 1216.55,943.753 1220.05,941.853 C1226.65,938.253 1230.85,932.453 1230.85,927.353 C1230.85,925.953 1230.55,924.553 1229.85,923.353"/>
<path class="Note" d="M1404.25,885.851 C1402.75,883.151 1399.85,881.451 1395.95,881.051 C1395.35,880.951 1394.85,880.951 1394.25,880.951 C1390.75,880.951 1386.95,881.951 1383.45,883.851 C1376.85,887.451 1372.75,893.351 1372.75,898.451 C1372.75,899.851 1372.95,901.151 1373.65,902.351 C1375.15,905.051 1378.15,906.751 1382.05,907.151 C1382.65,907.251 1383.15,907.251 1383.75,907.251 C1387.25,907.251 1390.95,906.251 1394.45,904.351 C1401.05,900.751 1405.25,894.951 1405.25,889.851 C1405.25,888.451 1404.95,887.051 1404.25,885.851"/>
<path class="Note" d="M1615.66,923.353 C1614.16,920.653 1611.26,918.953 1607.36,918.553 C1606.76,918.453 1606.26,918.453 1605.66,918.453 C1602.16,918.453 1598.36,919.453 1594.86,921.353 C1588.26,924.953 1584.16,930.853 1584.16,935.953 C1584.16,937.353 1584.36,938.653 1585.06,939.853 C1586.56,942.553 1589.56,944.253 1593.46,944.653 C1594.06,944.753 1594.56,944.753 1595.16,944.753 C1598.66,944.753 1602.36,943.753 1605.86,941.853 C1612.46,938.253 1616.66,932.453 1616.66,927.353 C1616.66,925.953 1616.36,924.553 1615.66,923.353"/>
<path class="Note" d="M1796.76,885.851 C1795.26,883.151 1792.36,881.451 1788.46,881.051 C1787.86,880.951 1787.36,880.951 1786.76,880.951 C1783.26,880.951 1779.46,881.951 1775.96,883.851 C1769.36,887.451 1765.26,893.351 1765.26,898.451 C1765.26,899.851 1765.46,901.151 1766.16,902.351 C1767.66,905.051 1770.66,906.751 1774.56,907.151 C1775.16,907.251 1775.66,907.251 1776.26,907.251 C1779.76,907.251 1783.46,906.251 1786.96,904.351 C1793.56,900.751 1797.76,894.951 1797.76,889.851 C1797.76,888.451 1797.46,887.051 1796.76,885.851"/>
<path class="Note" d="M1977.87,860.849 C1976.37,858.149 1973.47,856.449 1969.57,856.049 C1968.97,855.949 1968.47,855.949 1967.87,855.949 C1964.37,855.949 1960.57,856.949 1957.07,858.849 C1950.47,862.449 1946.37,868.349 1946.37,873.449 C1946.37,874.849 1946.57,876.149 1947.27,877.349 C1948.77,880.049 1951.77,881.749 1955.67,882.149 C1956.27,882.249 1956.77,882.249 1957.37,882.249 C1960.87,882.249 1964.57,881.249 1968.07,879.349 C1974.67,875.749 1978.87,869.949 1978.87,864.849 C1978.87,863.449 1978.57,862.049 1977.87,860.849"/>
<path class="Note" d="M2268.43,1035.86 C2266.93,1033.16 2264.03,1031.46 2260.13,1031.06 C2259.53,1030.96 2259.03,1030.96 2258.43,1030.96 C2254.93,1030.96 2251.13,1031.96 2247.63,1033.86 C2241.03,1037.46 2236.93,1043.36 2236.93,1048.46 C2236.93,1049.86 2237.13,1051.16 2237.83,1052.36 C2239.33,1055.06 2242.33,1056.76 2246.23,1057.16 C2246.83,1057.26 2247.33,1057.26 2247.93,1057.26 C2251.43,1057.26 2255.13,1056.26 2258.63,1054.36 C2265.23,1050.76 2269.43,1044.96 2269.43,1039.86 C2269.43,1038.46 2269.13,1037.06 2268.43,1035.86"/>
<path class="Note" d="M2442.83,1010.86 C2441.33,1008.16 2438.43,1006.46 2434.53,1006.06 C2433.93,1005.96 2433.43,1005.96 2432.83,1005.96 C2429.33,1005.96 2425.53,1006.96 2422.03,1008.86 C2415.43,1012.46 2411.33,1018.36 2411.33,1023.46 C2411.33,1024.86 2411.53,1026.16 2412.23,1027.36 C2413.73,1030.06 2416.73,1031.76 2420.63,1032.16 C2421.23,1032.26 2421.73,1032.26 2422.33,1032.26 C2425.83,1032.26 2429.53,1031.26 2433.03,1029.36 C2439.63,1025.76 2443.83,1019.96 2443.83,1014.86 C2443.83,1013.46 2443.53,1012.06 2442.83,1010.86"/>
<path class="Note" d="M2617.23,985.857 C2615.73,983.157 2612.83,981.457 2608.93,981.057 C2608.33,980.957 2607.83,980.957 2607.23,980.957 C2603.73,980.957 2599.93,981.957 2596.43,983.857 C2589.83,987.457 2585.73,993.357 2585.73,998.457 C2585.73,999.857 2585.93,1001.16 2586.63,1002.36 C2588.13,1005.06 2591.13,1006.76 2595.03,1007.16 C2595.63,1007.26 2596.13,1007.26 2596.73,1007.26 C2600.23,1007.26 2603.93,1006.26 2607.43,1004.36 C2614.03,1000.76 2618.23,994.957 2618.23,989.857 C2618.23,988.457 2617.93,987.057 2617.23,985.857"/>
<path class="Note" d="M429.6,1598.4 C428.1,1595.7 425.2,1594 421.3,1593.6 C420.7,1593.5 420.2,1593.5 419.6,1593.5 C416.1,1593.5 412.3,1594.5 408.8,1596.4 C402.2,1600 398.1,1605.9 398.1,1611 C398.1,1612.4 398.3,1613.7 399,1614.9 C400.5,1617.6 403.5,1619.3 407.4,1619.7 C408,1619.8 408.5,1619.8 409.1,1619.8 C412.6,1619.8 416.3,1618.8 419.8,1616.9 C426.4,1613.3 430.6,1607.5 430.6,1602.4 C430.6,1601 430.3,1599.6 429.6,1598.4"/>
<path class="Note" d="M609.425,1635.9 C607.925,1633.2 605.025,1631.5 601.125,1631.1 C600.525,1631 600.025,1631 599.425,1631 C595.925,1631 592.125,1632 588.625,1633.9 C582.025,1637.5 577.925,1643.4 577.925,1648.5 C577.925,1649.9 578.125,1651.2 578.825,1652.4 C580.325,1655.1 583.325,1656.8 587.225,1657.2 C587.825,1657.3 588.325,1657.3 588.925,1657.3 C592.425,1657.3 596.125,1656.3 599.625,1654.4 C606.225,1650.8 610.425,1645 610.425,1639.9 C610.425,1638.5 610.125,1637.1 609.425,1635.9"/>
<path class="Note" d="M789.25,1660.9 C787.75,1658.2 784.85,1656.5 780.95,1656.1 C780.35,1656 779.85,1656 779.25,1656 C775.75,1656 771.95,1657 768.45,1658.9 C761.85,1662.5 757.75,1668.4 757.75,1673.5 C757.75,1674.9 757.95,1676.2 758.65,1677.4 C760.15,1680.1 763.15,1681.8 767.05,1682.2 C767.65,1682.3 768.15,1682.3 768.75,1682.3 C772.25,1682.3 775.95,1681.3 779.45,1679.4 C786.05,1675.8 790.25,1670 790.25,1664.9 C790.25,1663.5 789.95,1662.1 789.25,1660.9"/>
<path class="Note" d="M1006.08,1635.9 C1004.58,1633.2 1001.68,1631.5 997.777,1631.1 C997.177,1631 996.677,1631 996.077,1631 C992.577,1631 988.777,1632 985.277,1633.9 C978.677,1637.5 974.577,1643.4 974.577,1648.5 C974.577,1649.9 974.777,1651.2 975.477,1652.4 C976.977,1655.1 979.977,1656.8 983.877,1657.2 C984.477,1657.3 984.977,1657.3 985.577,1657.3 C989.077,1657.3 992.777,1656.3 996.277,1654.4 C1002.88,1650.8 1007.08,1645 1007.08,1639.9 C1007.08,1638.5 1006.78,1637.1 1006.08,1635.9"/>
<path class="Note" d="M1192.61,1660.9 C1191.11,1658.2 1188.21,1656.5 1184.31,1656.1 C1183.71,1656 1183.21,1656 1182.61,1656 C1179.11,1656 1175.31,1657 1171.81,1658.9 C1165.21,1662.5 1161.11,1668.4 1161.11,1673.5 C1161.11,1674.9 1161.31,1676.2 1162.01,1677.4 C1163.51,1680.1 1166.51,1681.8 1170.41,1682.2 C1171.01,1682.3 1171.51,1682.3 1172.11,1682.3 C1175.61,1682.3 1179.31,1681.3 1182.81,1679.4 C1189.41,1675.8 1193.61,1670 1193.61,1664.9 C1193.61,1663.5 1193.31,1662.1 1192.61,1660.9"/>
<path class="Note" d="M1379.14,1685.9 C1377.64,1683.2 1374.74,1681.5 1370.84,1681.1 C1370.24,1681 1369.74,1681 1369.14,1681 C1365.64,1681 1361.84,1682 1358.34,1683.9 C1351.74,1687.5 1347.64,1693.4 1347.64,1698.5 C1347.64,1699.9 1347.84,1701.2 1348.54,1702.4 C1350.04,1705.1 1353.04,1706.8 1356.94,1707.2 C1357.54,1707.3 1358.04,1707.3 1358.64,1707.3 C1362.14,1707.3 1365.84,1706.3 1369.34,1704.4 C1375.94,1700.8 1380.14,1695 1380.14,1689.9 C1380.14,1688.5 1379.84,1687.1 1379.14,1685.9"/>
<path class="Note" d="M1668.3,1498.39 C1666.8,1495.69 1663.9,1493.99 1660,1493.59 C1659.4,1493.49 1658.9,1493.49 1658.3,1493.49 C1654.8,1493.49 1651,1494.49 1647.5,1496.39 C1640.9,1499.99 1636.8,1505.89 1636.8,1510.99 C1636.8,1512.39 1637,1513.69 1637.7,1514.89 C1639.2,1517.59 1642.2,1519.29 1646.1,1519.69 C1646.7,1519.79 1647.2,1519.79 1647.8,1519.79 C1651.3,1519.79 1655,1518.79 1658.5,1516.89 C1665.1,1513.29 1669.3,1507.49 1669.3,1502.39 C1669.3,1500.99 1669,1499.59 1668.3,1498.39"/>
<path class="Note" d="M1844.77,1535.89 C1843.27,1533.19 1840.37,1531.49 1836.47,1531.09 C1835.87,1530.99 1835.37,1530.99 1834.77,1530.99 C1831.27,1530.99 1827.47,1531.99 1823.97,1533.89 C1817.37,1537.49 1813.27,1543.39 1813.27,1548.49 C1813.27,1549.89 1813.47,1551.19 1814.17,1552.39 C1815.67,1555.09 1818.67,1556.79 1822.57,1557.19 C1823.17,1557.29 1823.67,1557.29 1824.27,1557.29 C1827.77,1557.29 1831.47,1556.29 1834.97,1554.39 C1841.57,1550.79 1845.77,1544.99 1845.77,1539.89 C1845.77,1538.49 1845.47,1537.09 1844.77,1535.89"/>
<path class="Note" d="M2021.24,1560.89 C2019.74,1558.19 2016.84,1556.49 2012.94,1556.09 C2012.34,1555.99 2011.84,1555.99 2011.24,1555.99 C2007.74,1555.99 2003.94,1556.99 2000.44,1558.89 C1993.84,1562.49 1989.74,1568.39 1989.74,1573.49 C1989.74,1574.89 1989.94,1576.19 1990.64,1577.39 C1992.14,1580.09 1995.14,1581.79 1999.04,1582.19 C1999.64,1582.29 2000.14,1582.29 2000.74,1582.29 C2004.24,1582.29 2007.94,1581.29 2011.44,1579.39 C2018.04,1575.79 2022.24,1569.99 2022.24,1564.89 C2022.24,1563.49 2021.94,1562.09 2021.24,1560.89"/>
<path class="Note" d="M2234.72,1535.89 C2233.22,1533.19 2230.32,1531.49 2226.42,1531.09 C2225.82,1530.99 2225.32,1530.99 2224.72,1530.99 C2221.22,1530.99 2217.42,1531.99 2213.92,1533.89 C2207.32,1537.49 2203.22,1543.39 2203.22,1548.49 C2203.22,1549.89 2203.42,1551.19 2204.12,1552.39 C2205.62,1555.09 2208.62,1556.79 2212.52,1557.19 C2213.12,1557.29 2213.62,1557.29 2214.22,1557.29 C2217.72,1557.29 2221.42,1556.29 2224.92,1554.39 C2231.52,1550.79 2235.72,1544.99 2235.72,1539.89 C2235.72,1538.49 2235.42,1537.09 2234.72,1535.89"/>
<path class="Note" d="M2411.19,1560.89 C2409.69,1558.19 2406.79,1556.49 2402.89,1556.09 C2402.29,1555.99 2401.79,1555.99 2401.19,1555.99 C2397.69,1555.99 2393.89,1556.99 2390.39,1558.89 C2383.79,1562.49 2379.69,1568.39 2379.69,1573.49 C2379.69,1574.89 2379.89,1576.19 2380.59,1577.39 C2382.09,1580.09 2385.09,1581.79 2388.99,1582.19 C2389.59,1582.29 2390.09,1582.29 2390.69,1582.29 C2394.19,1582.29 2397.89,1581.29 2401.39,1579.39 C2407.99,1575.79 2412.19,1569.99 2412.19,1564.89 C2412.19,1563.49 2411.89,1562.09 2411.19,1560.89"/>
<path class="Note" d="M2587.66,1585.9 C2586.16,1583.2 2583.26,1581.5 2579.36,1581.1 C2578.76,1581 2578.26,1581 2577.66,1581 C2574.16,1581 2570.36,1582 2566.86,1583.9 C2560.26,1587.5 2556.16,1593.4 2556.16,1598.5 C2556.16,1599.9 2556.36,1601.2 2557.06,1602.4 C2558.56,1605.1 2561.56,1606.8 2565.46,1607.2 C2566.06,1607.3 2566.56,1607.3 2567.16,1607.3 C2570.66,1607.3 2574.36,1606.3 2577.86,1604.4 C2584.46,1600.8 2588.66,1595 2588.66,1589.9 C2588.66,1588.5 2588.36,1587.1 2587.66,1585.9"/>
<path class="Note" d="M495.253,773.344 C493.753,770.644 490.853,768.944 486.953,768.544 C486.353,768.444 485.853,768.444 485.253,768.444 C481.753,768.444 477.953,769.444 474.453,771.344 C467.853,774.944 463.753,780.844 463.753,785.944 C463.753,787.344 463.953,788.644 464.653,789.844 C466.153,792.544 469.153,794.244 473.053,794.644 C473.653,794.744 474.153,794.744 474.753,794.744 C478.253,794.744 481.953,793.744 485.453,791.844 C492.053,788.244 496.253,782.444 496.253,777.344 C496.253,775.944 495.953,774.544 495.253,773.344"/>
<path class="Note" d="M669.653,748.342 C668.153,745.642 665.253,743.942 661.353,743.542 C660.753,743.442 660.253,743.442 659.653,743.442 C656.153,743.442 652.353,744.442 648.853,746.342 C642.253,749.942 638.153,755.842 638.153,760.942 C638.153,762.342 638.353,763.642 639.053,764.842 C640.553,767.542 643.553,769.242 647.453,769.642 C648.053,769.742 648.553,769.742 649.153,769.742 C652.653,769.742 656.353,768.742 659.853,766.842 C666.453,763.242 670.653,757.442 670.653,752.342 C670.653,750.942 670.353,749.542 669.653,748.342"/>
<path class="Note" d="M844.052,723.341 C842.552,720.641 839.652,718.941 835.752,718.541 C835.152,718.441 834.652,718.441 834.052,718.441 C830.552,718.441 826.752,719.441 823.252,721.341 C816.652,724.941 812.552,730.841 812.552,735.941 C812.552,737.341 812.752,738.641 813.452,739.841 C814.952,742.541 817.952,744.241 821.852,744.641 C822.452,744.741 822.952,744.741 823.552,744.741 C827.052,744.741 830.752,743.741 834.252,741.841 C840.852,738.241 845.052,732.441 845.052,727.341 C845.052,725.941 844.752,724.541 844.052,723.341"/>
<path class="Note" d="M1055.45,748.342 C1053.95,745.642 1051.05,743.942 1047.15,743.542 C1046.55,743.442 1046.05,743.442 1045.45,743.442 C1041.95,743.442 1038.15,744.442 1034.65,746.342 C1028.05,749.942 1023.95,755.842 1023.95,760.942 C1023.95,762.342 1024.15,763.642 1024.85,764.842 C1026.35,767.542 1029.35,769.242 1033.25,769.642 C1033.85,769.742 1034.35,769.742 1034.95,769.742 C1038.45,769.742 1042.15,768.742 1045.65,766.842 C1052.25,763.242 1056.45,757.442 1056.45,752.342 C1056.45,750.942 1056.15,749.542 1055.45,748.342"/>
<path class="Note" d="M1229.85,723.341 C1228.35,720.641 1225.45,718.941 1221.55,718.541 C1220.95,718.441 1220.45,718.441 1219.85,718.441 C1216.35,718.441 1212.55,719.441 1209.05,721.341 C1202.45,724.941 1198.35,730.841 1198.35,735.941 C1198.35,737.341 1198.55,738.641 1199.25,739.841 C1200.75,742.541 1203.75,744.241 1207.65,744.641 C1208.25,744.741 1208.75,744.741 1209.35,744.741 C1212.85,744.741 1216.55,743.741 1220.05,741.841 C1226.65,738.241 1230.85,732.441 1230.85,727.341 C1230.85,725.941 1230.55,724.541 1229.85,723.341"/>
<path class="Note" d="M1404.25,685.838 C1402.75,683.138 1399.85,681.438 1395.95,681.038 C1395.35,680.938 1394.85,680.938 1394.25,680.938 C1390.75,680.938 1386.95,681.938 1383.45,683.838 C1376.85,687.438 1372.75,693.338 1372.75,698.438 C1372.75,699.838 1372.95,701.138 1373.65,702.338 C1375.15,705.038 1378.15,706.738 1382.05,707.138 C1382.65,707.238 1383.15,707.238 1383.75,707.238 C1387.25,707.238 1390.95,706.238 1394.45,704.338 C1401.05,700.738 1405.25,694.938 1405.25,689.838 C1405.25,688.438 1404.95,687.038 1404.25,685.838"/>
<path class="Note" d="M1615.66,723.341 C1614.16,720.641 1611.26,718.941 1607.36,718.541 C1606.76,718.441 1606.26,718.441 1605.66,718.441 C1602.16,718.441 1598.36,719.441 1594.86,721.341 C1588.26,724.941 1584.16,730.841 1584.16,735.941 C1584.16,737.341 1584.36,738.641 1585.06,739.841 C1586.56,742.541 1589.56,744.241 1593.46,744.641 C1594.06,744.741 1594.56,744.741 1595.16,744.741 C1598.66,744.741 1602.36,743.741 1605.86,741.841 C1612.46,738.241 1616.66,732.441 1616.66,727.341 C1616.66,725.941 1616.36,724.541 1615.66,723.341"/>
<path class="Note" d="M1796.76,685.838 C1795.26,683.138 1792.36,681.438 1788.46,681.038 C1787.86,680.938 1787.36,680.938 1786.76,680.938 C1783.26,680.938 1779.46,681.938 1775.96,683.838 C1769.36,687.438 1765.26,693.338 1765.26,698.438 C1765.26,699.838 1765.46,701.138 1766.16,702.338 C1767.66,705.038 1770.66,706.738 1774.56,707.138 C1775.16,707.238 1775.66,707.238 1776.26,707.238 C1779.76,707.238 1783.46,706.238 1786.96,704.338 C1793.56,700.738 1797.76,694.938 1797.76,689.838 C1797.76,688.438 1797.46,687.038 1796.76,685.838"/>
<path class="Note" d="M1977.87,660.837 C1976.37,658.137 1973.47,656.437 1969.57,656.037 C1968.97,655.937 1968.47,655.937 1967.87,655.937 C1964.37,655.937 1960.57,656.937 1957.07,658.837 C1950.47,662.437 1946.37,668.337 1946.37,673.437 C1946.37,674.837 1946.57,676.137 1947.27,677.337 C1948.77,680.037 1951.77,681.737 1955.67,682.137 C1956.27,682.237 1956.77,682.237 1957.37,682.237 C1960.87,682.237 1964.57,681.237 1968.07,679.337 C1974.67,675.737 1978.87,669.937 1978.87,664.837 C1978.87,663.437 1978.57,662.037 1977.87,660.837"/>
<path class="Note" d="M2268.43,685.838 C2266.93,683.138 2264.03,681.438 2260.13,681.038 C2259.53,680.938 2259.03,680.938 2258.43,680.938 C2254.93,680.938 2251.13,681.938 2247.63,683.838 C2241.03,687.438 2236.93,693.338 2236.93,698.438 C2236.93,699.838 2237.13,701.138 2237.83,702.338 C2239.33,705.038 2242.33,706.738 2246.23,707.138 C2246.83,707.238 2247.33,707.238 2247.93,707.238 C2251.43,707.238 2255.13,706.238 2258.63,704.338 C2265.23,700.738 2269.43,694.938 2269.43,689.838 C2269.43,688.438 2269.13,687.038 2268.43,685.838"/>
<path class="Note" d="M2442.83,660.837 C2441.33,658.137 2438.43,656.437 2434.53,656.037 C2433.93,655.937 2433.43,655.937 2432.83,655.937 C2429.33,655.937 2425.53,656.937 2422.03,658.837 C2415.43,662.437 2411.33,668.337 2411.33,673.437 C2411.33,674.837 2411.53,676.137 2412.23,677.337 C2413.73,680.037 2416.73,681.737 2420.63,682.137 C2421.23,682.237 2421.73,682.237 2422.33,682.237 C2425.83,682.237 2429.53,681.237 2433.03,679.337 C2439.63,675.737 2443.83,669.937 2443.83,664.837 C2443.83,663.437 2443.53,662.037 2442.83,660.837"/>
<path class="Note" d="M2617.23,635.835 C2615.73,633.135 2612.83,631.435 2608.93,631.035 C2608.33,630.935 2607.83,630.935 2607.23,630.935 C2603.73,630.935 2599.93,631.935 2596.43,633.835 C2589.83,637.435 2585.73,643.335 2585.73,648.435 C2585.73,649.835 2585.93,651.135 2586.63,652.335 C2588.13,655.035 2591.13,656.735 2595.03,657.135 C2595.63,657.235 2596.13,657.235 2596.73,657.235 C2600.23,657.235 2603.93,656.235 2607.43,654.335 C2614.03,650.735 2618.23,644.935 2618.23,639.835 C2618.23,638.435 2617.93,637.035 2617.23,635.835"/>
<path class="Note" d="M429.6,1248.37 C428.1,1245.67 425.2,1243.97 421.3,1243.57 C420.7,1243.47 420.2,1243.47 419.6,1243.47 C416.1,1243.47 412.3,1244.47 408.8,1246.37 C402.2,1249.97 398.1,1255.87 398.1,1260.97 C398.1,1262.37 398.3,1263.67 399,1264.87 C400.5,1267.57 403.5,1269.27 407.4,1269.67 C408,1269.77 408.5,1269.77 409.1,1269.77 C412.6,1269.77 416.3,1268.77 419.8,1266.87 C426.4,1263.27 430.6,1257.47 430.6,1252.37 C430.6,1250.97 430.3,1249.57 429.6,1248.37"/>
<path class="Note" d="M609.425,1285.88 C607.925,1283.18 605.025,1281.48 601.125,1281.08 C600.525,1280.98 600.025,1280.98 599.425,1280.98 C595.925,1280.98 592.125,1281.98 588.625,1283.88 C582.025,1287.48 577.925,1293.38 577.925,1298.48 C577.925,1299.88 578.125,1301.18 578.825,1302.38 C580.325,1305.08 583.325,1306.78 587.225,1307.18 C587.825,1307.28 588.325,1307.28 588.925,1307.28 C592.425,1307.28 596.125,1306.28 599.625,1304.38 C606.225,1300.78 610.425,1294.98 610.425,1289.88 C610.425,1288.48 610.125,1287.08 609.425,1285.88"/>
<path class="Note" d="M789.25,1310.88 C787.75,1308.18 784.85,1306.48 780.95,1306.08 C780.35,1305.98 779.85,1305.98 779.25,1305.98 C775.75,1305.98 771.95,1306.98 768.45,1308.88 C761.85,1312.48 757.75,1318.38 757.75,1323.48 C757.75,1324.88 757.95,1326.18 758.65,1327.38 C760.15,1330.08 763.15,1331.78 767.05,1332.18 C767.65,1332.28 768.15,1332.28 768.75,1332.28 C772.25,1332.28 775.95,1331.28 779.45,1329.38 C786.05,1325.78 790.25,1319.98 790.25,1314.88 C790.25,1313.48 789.95,1312.08 789.25,1310.88"/>
<path class="Note" d="M1006.08,1285.88 C1004.58,1283.18 1001.68,1281.48 997.777,1281.08 C997.177,1280.98 996.677,1280.98 996.077,1280.98 C992.577,1280.98 988.777,1281.98 985.277,1283.88 C978.677,1287.48 974.577,1293.38 974.577,1298.48 C974.577,1299.88 974.777,1301.18 975.477,1302.38 C976.977,1305.08 979.977,1306.78 983.877,1307.18 C984.477,1307.28 984.977,1307.28 985.577,1307.28 C989.077,1307.28 992.777,1306.28 996.277,1304.38 C1002.88,1300.78 1007.08,1294.98 1007.08,1289.88 C1007.08,1288.48 1006.78,1287.08 1006.08,1285.88"/>
<path class="Note" d="M1192.61,1310.88 C1191.11,1308.18 1188.21,1306.48 1184.31,1306.08 C1183.71,1305.98 1183.21,1305.98 1182.61,1305.98 C1179.11,1305.98 1175.31,1306.98 1171.81,1308.88 C1165.21,1312.48 1161.11,1318.38 1161.11,1323.48 C1161.11,1324.88 1161.31,1326.18 1162.01,1327.38 C1163.51,1330.08 1166.51,1331.78 1170.41,1332.18 C1171.01,1332.28 1171.51,1332.28 1172.11,1332.28 C1175.61,1332.28 1179.31,1331.28 1182.81,1329.38 C1189.41,1325.78 1193.61,1319.98 1193.61,1314.88 C1193.61,1313.48 1193.31,1312.08 1192.61,1310.88"/>
<path class="Note" d="M1379.14,1335.88 C1377.64,1333.18 1374.74,1331.48 1370.84,1331.08 C1370.24,1330.98 1369.74,1330.98 1369.14,1330.98 C1365.64,1330.98 1361.84,1331.98 1358.34,1333.88 C1351.74,1337.48 1347.64,1343.38 1347.64,1348.48 C1347.64,1349.88 1347.84,1351.18 1348.54,1352.38 C1350.04,1355.08 1353.04,1356.78 1356.94,1357.18 C1357.54,1357.28 1358.04,1357.28 1358.64,1357.28 C1362.14,1357.28 1365.84,1356.28 1369.34,1354.38 C1375.94,1350.78 1380.14,1344.98 1380.14,1339.88 C1380.14,1338.48 1379.84,1337.08 1379.14,1335.88"/>
<path class="Note" d="M1668.3,1298.38 C1666.8,1295.68 1663.9,1293.98 1660,1293.58 C1659.4,1293.48 1658.9,1293.48 1658.3,1293.48 C1654.8,1293.48 1651,1294.48 1647.5,1296.38 C1640.9,1299.98 1636.8,1305.88 1636.8,1310.98 C1636.8,1312.38 1637,1313.68 1637.7,1314.88 C1639.2,1317.58 1642.2,1319.28 1646.1,1319.68 C1646.7,1319.78 1647.2,1319.78 1647.8,1319.78 C1651.3,1319.78 1655,1318.78 1658.5,1316.88 C1665.1,1313.28 1669.3,1307.48 1669.3,1302.38 C1669.3,1300.98 1669,1299.58 1668.3,1298.38"/>
<path class="Note" d="M1844.77,1335.88 C1843.27,1333.18 1840.37,1331.48 1836.47,1331.08 C1835.87,1330.98 1835.37,1330.98 1834.77,1330.98 C1831.27,1330.98 1827.47,1331.98 1823.97,1333.88 C1817.37,1337.48 1813.27,1343.38 1813.27,1348.48 C1813.27,1349.88 1813.47,1351.18 1814.17,1352.38 C1815.67,1355.08 1818.67,1356.78 1822.57,1357.18 C1823.17,1357.28 1823.67,1357.28 1824.27,1357.28 C1827.77,1357.28 1831.47,1356.28 1834.97,1354.38 C1841.57,1350.78 1845.77,1344.98 1845.77,1339.88 C1845.77,1338.48 1845.47,1337.08 1844.77,1335.88"/>
<path class="Note" d="M2021.24,1360.88 C2019.74,1358.18 2016.84,1356.48 2012.94,1356.08 C2012.34,1355.98 2011.84,1355.98 2011.24,1355.98 C2007.74,1355.98 2003.94,1356.98 2000.44,1358.88 C1993.84,1362.48 1989.74,1368.38 1989.74,1373.48 C1989.74,1374.88 1989.94,1376.18 1990.64,1377.38 C1992.14,1380.08 1995.14,1381.78 1999.04,1382.18 C1999.64,1382.28 2000.14,1382.28 2000.74,1382.28 C2004.24,1382.28 2007.94,1381.28 2011.44,1379.38 C2018.04,1375.78 2022.24,1369.98 2022.24,1364.88 C2022.24,1363.48 2021.94,1362.08 2021.24,1360.88"/>
<path class="Note" d="M2234.72,1335.88 C2233.22,1333.18 2230.32,1331.48 2226.42,1331.08 C2225.82,1330.98 2225.32,1330.98 2224.72,1330.98 C2221.22,1330.98 2217.42,1331.98 2213.92,1333.88 C2207.32,1337.48 2203.22,1343.38 2203.22,1348.48 C2203.22,1349.88 2203.42,1351.18 2204.12,1352.38 C2205.62,1355.08 2208.62,1356.78 2212.52,1357.18 C2213.12,1357.28 2213.62,1357.28 2214.22,1357.28 C2217.72,1357.28 2221.42,1356.28 2224.92,1354.38 C2231.52,1350.78 2235.72,1344.98 2235.72,1339.88 C2235.72,1338.48 2235.42,1337.08 2234.72,1335.88"/>
<path class="Note" d="M2411.19,1360.88 C2409.69,1358.18 2406.79,1356.48 2402.89,1356.08 C2402.29,1355.98 2401.79,1355.98 2401.19,1355.98 C2397.69,1355.98 2393.89,1356.98 2390.39,1358.88 C2383.79,1362.48 2379.69,1368.38 2379.69,1373.48 C2379.69,1374.88 2379.89,1376.18 2380.59,1377.38 C2382.09,1380.08 2385.09,1381.78 2388.99,1382.18 C2389.59,1382.28 2390.09,1382.28 2390.69,1382.28 C2394.19,1382.28 2397.89,1381.28 2401.39,1379.38 C2407.99,1375.78 2412.19,1369.98 2412.19,1364.88 C2412.19,1363.48 2411.89,1362.08 2411.19,1360.88"/>
<path class="Note" d="M2587.66,1385.88 C2586.16,1383.18 2583.26,1381.48 2579.36,1381.08 C2578.76,1380.98 2578.26,1380.98 2577.66,1380.98 C2574.16,1380.98 2570.36,1381.98 2566.86,1383.88 C2560.26,1387.48 2556.16,1393.38 2556.16,1398.48 C2556.16,1399.88 2556.36,1401.18 2557.06,1402.38 C2558.56,1405.08 2561.56,1406.78 2565.46,1407.18 C2566.06,1407.28 2566.56,1407.28 2567.16,1407.28 C2570.66,1407.28 2574.36,1406.28 2577.86,1404.38 C2584.46,1400.78 2588.66,1394.98 2588.66,1389.88 C2588.66,1388.48 2588.36,1387.08 2587.66,1385.88"/>
<path class="Clef" d="M297,918.954 C289.4,918.954 283.3,923.354 283.2,923.354 C277.4,927.654 275.1,932.754 274.2,936.254 C273.7,938.054 273.5,939.854 273.5,941.554 C273.5,943.954 273.9,946.154 274.8,948.054 C276,950.754 278.3,952.654 281.3,953.654 C282.5,954.054 283.8,954.254 285.1,954.254 C287.3,954.254 289.6,953.654 291.5,952.554 C294.6,950.854 296.5,947.254 296.5,943.354 C296.5,939.854 294.7,936.654 291.7,934.754 C289.6,933.354 287.6,932.954 285.9,932.954 C284.7,932.954 283.6,933.154 282.7,933.454 C281.7,933.854 280,934.854 279.2,935.554 C279.5,933.654 280.7,930.754 281.8,929.154 C282.9,927.554 285.1,925.554 286.8,924.654 C289.3,923.254 292.5,922.654 296,922.654 C306.2,922.654 311.2,930.854 311.2,947.654 C311.2,956.954 307.7,965.854 304.7,971.754 C301.4,978.354 297,984.654 293.1,988.154 C282.7,997.654 272.9,1002.15 272.8,1002.15 C272.8,1002.15 271.3,1003.05 271.7,1004.55 C272,1005.55 272.9,1005.75 273.5,1005.75 C273.6,1005.75 273.9,1005.65 274,1005.65 C274.1,1005.65 285.5,1000.95 294.6,993.854 C299.7,990.154 304.3,986.154 308.3,981.854 C311.9,977.954 315,973.754 317.5,969.554 C321.9,962.054 324.4,954.254 324.4,947.554 C324.4,939.254 322.2,932.354 318.1,927.454 C313.4,921.854 306.3,918.954 297,918.954 M328.4,931.654 C328.4,934.454 330.6,936.654 333.2,936.654 C335.8,936.654 338,934.454 338,931.654 C338,928.854 335.8,926.554 333.2,926.554 C330.6,926.554 328.4,928.854 328.4,931.654 M328.4,956.354 C328.4,959.154 330.6,961.454 333.2,961.454 C335.8,961.454 338,959.154 338,956.354 C338,953.554 335.8,951.254 333.2,951.254 C330.6,951.254 328.4,953.554 328.4,956.354"/>
<path class="Clef" transform="matrix(0.80005,0,0,0.80005,2151.98,994.057)" d="M63.4,-5.9 C62.2,-11.3 59.5,-15.2 58.7,-16.2 C55.5,-20.5 51.5,-23.3 46.8,-24.7 C44.5,-25.4 42.4,-25.6 40.4,-25.6 C39.7,-25.6 39,-25.6 38.3,-25.5 C37.3,-31.5 36.2,-37.4 35.3,-42.8 C40.9,-49 44.6,-54.9 47,-59.3 C50.6,-66 52,-70.7 52.1,-70.9 C53.3,-73.9 54,-77.7 54,-82.2 C54,-84.9 53.7,-87.8 53.3,-90.8 C52.2,-97.9 50,-104.6 47.5,-108.3 C46.2,-110.2 45,-111.3 43.8,-111.3 C42.6,-111.3 40.1,-110.1 37.2,-107.3 C34.9,-105.1 31.6,-101.2 29,-95.2 C26.7,-89.8 26,-82.9 26,-77 C26,-75.2 26.1,-73.5 26.2,-71.9 C26.4,-68.3 27.1,-62.5 27.7,-58.9 C27.7,-58.8 28,-57.3 28.4,-54.7 L27.7,-54 C26.7,-53 25.5,-51.9 24.1,-50.5 C23.2,-49.6 22.3,-48.8 21.3,-47.8 C12.8,-39.6 0,-27.2 0,-8.1 C0,-3.4 0.9,1 2.7,5 C4.3,8.6 6.6,11.9 9.5,14.8 C17,22.2 27.2,25.4 34.3,25.4 L34.9,25.4 C37.8,25.3 40.5,25 42.9,24.6 C44.7,34.2 45.9,41.3 45.9,46.6 C45.9,53.1 44.3,57 40.4,59.8 C38,61.5 35.1,62.6 32,62.7 L31.2,62.7 C29.7,62.7 27.2,62.3 25.7,61.9 C25.7,61.9 25.4,61.8 25.4,61.6 C25.4,61.4 25.8,61.4 25.8,61.4 C27.7,61 31.3,59.7 33.7,56.4 C34.8,54.9 35.5,52.6 35.5,50.1 C35.5,48.5 35.2,46.8 34.5,45.3 C33.4,42.9 30.8,39.9 25.2,39.5 L24.1,39.5 C22,39.5 20.2,40 18.5,41 C16.7,42.1 15.1,43.8 14.1,45.8 C13,47.8 12.5,50 12.5,52.2 C12.5,55.1 13.4,57.8 15.2,60 C18.2,63.6 22.9,65.9 28.3,66.5 C29,66.6 30.1,66.7 30.8,66.7 C35.2,66.7 39.6,65.5 43.2,63.3 C46.9,60.7 49,56.7 49.7,51.1 C49.9,49.8 49.9,48.4 49.9,46.9 C49.9,43 49.4,38.3 48.4,32.5 C48,30.4 47.6,27.4 46.9,23.6 C52.7,21.7 56.8,18 60.6,12.2 C62.9,8.2 64,4.1 64,-0.2 C64,-2.1 63.8,-4 63.4,-5.9 M33.2,-83.8 C35,-89.5 37.7,-92.9 39.7,-94.6 C41.5,-96.1 43.1,-96.8 44,-96.8 C44.1,-96.8 44.3,-96.7 44.4,-96.7 C44.7,-96.6 45.1,-96.1 45.5,-95.4 C46.4,-93.6 47.3,-90.3 47.3,-86.6 C47.3,-84.7 47.1,-82.7 46.5,-80.9 C44.3,-74.1 39.7,-66.8 32.7,-59.1 C32.5,-60.2 32.3,-61.2 32.2,-62.2 C31.7,-65.4 31.4,-68.6 31.4,-71.5 C31.4,-76 32,-80.1 33.2,-83.8 M29.2,20.3 C24.6,19.1 20.1,16.6 16.3,13.1 C15,11.9 13.2,9.7 11.7,6.3 C10.4,3.3 9.7,0.2 9.7,-3.2 L9.7,-3.9 C9.8,-8.6 11.1,-13.4 13.6,-18.2 C16.5,-23.8 21,-29.3 27.1,-34.6 C28.6,-35.9 30,-37.2 31.3,-38.5 C32.1,-34.2 32.8,-29.5 33.7,-24.6 C29.8,-23.3 25.1,-20.3 22,-14.6 C19.6,-10.1 18.9,-6.2 18.9,-3 C18.9,-1.5 19.1,-0.1 19.3,1 C20.2,5.5 22.8,9.2 26.3,11.3 C27.1,11.8 30.4,13.5 32.4,13.5 C32.7,13.5 33,13.5 33.2,13.4 C33.5,13.3 33.8,13.1 33.9,12.8 C34,12.6 34,12.4 34,12.2 C34,11.4 33.2,10.8 31.9,10 C31.3,9.6 30.6,9.2 29.9,8.7 C27.3,6.7 25.8,3.6 25.8,0.2 C25.8,-0.8 26,-1.7 26.2,-2.7 C26.7,-4.7 28.4,-7.5 29.9,-8.9 C31.6,-10.4 33.6,-11.6 36,-12.2 C38,-1 40.1,10.1 41.7,18.5 C41.8,19.2 42,19.9 42.1,20.6 C40.1,21 38.1,21.2 36.2,21.2 C33.8,21.2 31.5,20.9 29.2,20.3 M54.9,10.1 C53.7,13.3 51.2,17.3 46.1,19.4 C46,19 46,18.5 45.9,18.1 C44.4,9.3 42.5,-1.6 40.5,-12.9 L41.5,-12.9 C51.2,-12.9 55.1,-5.7 56,-1.1 C56.2,-0.2 56.3,1 56.3,2.3 C56.3,4.6 55.9,7.4 54.9,10.1"/>
<path class="Clef" d="M335,1600.7 C333.8,1595.3 331.1,1591.4 330.3,1590.4 C327.1,1586.1 323.1,1583.3 318.4,1581.9 C316.1,1581.2 314,1581 312,1581 C311.3,1581 310.6,1581 309.9,1581.1 C308.9,1575.1 307.8,1569.2 306.9,1563.8 C312.5,1557.6 316.2,1551.7 318.6,1547.3 C322.2,1540.6 323.6,1535.9 323.7,1535.7 C324.9,1532.7 325.6,1528.9 325.6,1524.4 C325.6,1521.7 325.3,1518.8 324.9,1515.8 C323.8,1508.7 321.6,1502 319.1,1498.3 C317.8,1496.4 316.6,1495.3 315.4,1495.3 C314.2,1495.3 311.7,1496.5 308.8,1499.3 C306.5,1501.5 303.2,1505.4 300.6,1511.4 C298.3,1516.8 297.6,1523.7 297.6,1529.6 C297.6,1531.4 297.7,1533.1 297.8,1534.7 C298,1538.3 298.7,1544.1 299.3,1547.7 C299.3,1547.8 299.6,1549.3 300,1551.9 L299.3,1552.6 C298.3,1553.6 297.1,1554.7 295.7,1556.1 C294.8,1557 293.9,1557.8 292.9,1558.8 C284.4,1567 271.6,1579.4 271.6,1598.5 C271.6,1603.2 272.5,1607.6 274.3,1611.6 C275.9,1615.2 278.2,1618.5 281.1,1621.4 C288.6,1628.8 298.8,1632 305.9,1632 L306.5,1632 C309.4,1631.9 312.1,1631.6 314.5,1631.2 C316.3,1640.8 317.5,1647.9 317.5,1653.2 C317.5,1659.7 315.9,1663.6 312,1666.4 C309.6,1668.1 306.7,1669.2 303.6,1669.3 L302.8,1669.3 C301.3,1669.3 298.8,1668.9 297.3,1668.5 C297.3,1668.5 297,1668.4 297,1668.2 C297,1668 297.4,1668 297.4,1668 C299.3,1667.6 302.9,1666.3 305.3,1663 C306.4,1661.5 307.1,1659.2 307.1,1656.7 C307.1,1655.1 306.8,1653.4 306.1,1651.9 C305,1649.5 302.4,1646.5 296.8,1646.1 L295.7,1646.1 C293.6,1646.1 291.8,1646.6 290.1,1647.6 C288.3,1648.7 286.7,1650.4 285.7,1652.4 C284.6,1654.4 284.1,1656.6 284.1,1658.8 C284.1,1661.7 285,1664.4 286.8,1666.6 C289.8,1670.2 294.5,1672.5 299.9,1673.1 C300.6,1673.2 301.7,1673.3 302.4,1673.3 C306.8,1673.3 311.2,1672.1 314.8,1669.9 C318.5,1667.3 320.6,1663.3 321.3,1657.7 C321.5,1656.4 321.5,1655 321.5,1653.5 C321.5,1649.6 321,1644.9 320,1639.1 C319.6,1637 319.2,1634 318.5,1630.2 C324.3,1628.3 328.4,1624.6 332.2,1618.8 C334.5,1614.8 335.6,1610.7 335.6,1606.4 C335.6,1604.5 335.4,1602.6 335,1600.7 M304.8,1522.8 C306.6,1517.1 309.3,1513.7 311.3,1512 C313.1,1510.5 314.7,1509.8 315.6,1509.8 C315.7,1509.8 315.9,1509.9 316,1509.9 C316.3,1510 316.7,1510.5 317.1,1511.2 C318,1513 318.9,1516.3 318.9,1520 C318.9,1521.9 318.7,1523.9 318.1,1525.7 C315.9,1532.5 311.3,1539.8 304.3,1547.5 C304.1,1546.4 303.9,1545.4 303.8,1544.4 C303.3,1541.2 303,1538 303,1535.1 C303,1530.6 303.6,1526.5 304.8,1522.8 M300.8,1626.9 C296.2,1625.7 291.7,1623.2 287.9,1619.7 C286.6,1618.5 284.8,1616.3 283.3,1612.9 C282,1609.9 281.3,1606.8 281.3,1603.4 L281.3,1602.7 C281.4,1598 282.7,1593.2 285.2,1588.4 C288.1,1582.8 292.6,1577.3 298.7,1572 C300.2,1570.7 301.6,1569.4 302.9,1568.1 C303.7,1572.4 304.4,1577.1 305.3,1582 C301.4,1583.3 296.7,1586.3 293.6,1592 C291.2,1596.5 290.5,1600.4 290.5,1603.6 C290.5,1605.1 290.7,1606.5 290.9,1607.6 C291.8,1612.1 294.4,1615.8 297.9,1617.9 C298.7,1618.4 302,1620.1 304,1620.1 C304.3,1620.1 304.6,1620.1 304.8,1620 C305.1,1619.9 305.4,1619.7 305.5,1619.4 C305.6,1619.2 305.6,1619 305.6,1618.8 C305.6,1618 304.8,1617.4 303.5,1616.6 C302.9,1616.2 302.2,1615.8 301.5,1615.3 C298.9,1613.3 297.4,1610.2 297.4,1606.8 C297.4,1605.8 297.6,1604.9 297.8,1603.9 C298.3,1601.9 300,1599.1 301.5,1597.7 C303.2,1596.2 305.2,1595 307.6,1594.4 C309.6,1605.6 311.7,1616.7 313.3,1625.1 C313.4,1625.8 313.6,1626.5 313.7,1627.2 C311.7,1627.6 309.7,1627.8 307.8,1627.8 C305.4,1627.8 303.1,1627.5 300.8,1626.9 M326.5,1616.7 C325.3,1619.9 322.8,1623.9 317.7,1626 C317.6,1625.6 317.6,1625.1 317.5,1624.7 C316,1615.9 314.1,1605 312.1,1593.7 L313.1,1593.7 C322.8,1593.7 326.7,1600.9 327.6,1605.5 C327.8,1606.4 327.9,1607.6 327.9,1608.9 C327.9,1611.2 327.5,1614 326.5,1616.7"/>
<path class="Clef" transform="matrix(0.80005,0,0,0.80005,1558.68,1556.59)" d="M25.4,-25.1 C17.8,-25.1 11.7,-20.7 11.6,-20.7 C5.8,-16.4 3.5,-11.3 2.6,-7.8 C2.1,-6 1.9,-4.2 1.9,-2.5 C1.9,-0.1 2.3,2.1 3.2,4 C4.4,6.7 6.7,8.6 9.7,9.6 C10.9,10 12.2,10.2 13.5,10.2 C15.7,10.2 18,9.6 19.9,8.5 C23,6.8 24.9,3.2 24.9,-0.7 C24.9,-4.2 23.1,-7.4 20.1,-9.3 C18,-10.7 16,-11.1 14.3,-11.1 C13.1,-11.1 12,-10.9 11.1,-10.6 C10.1,-10.2 8.4,-9.2 7.6,-8.5 C7.9,-10.4 9.1,-13.3 10.2,-14.9 C11.3,-16.5 13.5,-18.5 15.2,-19.4 C17.7,-20.8 20.9,-21.4 24.4,-21.4 C34.6,-21.4 39.6,-13.2 39.6,3.6 C39.6,12.9 36.1,21.8 33.1,27.7 C29.8,34.3 25.4,40.6 21.5,44.1 C11.1,53.6 1.3,58.1 1.2,58.1 C1.2,58.1 -0.3,59 0.1,60.5 C0.4,61.5 1.3,61.7 1.9,61.7 C2,61.7 2.3,61.6 2.4,61.6 C2.5,61.6 13.9,56.9 23,49.8 C28.1,46.1 32.7,42.1 36.7,37.8 C40.3,33.9 43.4,29.7 45.9,25.5 C50.3,18 52.8,10.2 52.8,3.5 C52.8,-4.8 50.6,-11.7 46.5,-16.6 C41.8,-22.2 34.7,-25.1 25.4,-25.1 M56.8,-12.4 C56.8,-9.6 59,-7.4 61.6,-7.4 C64.2,-7.4 66.4,-9.6 66.4,-12.4 C66.4,-15.2 64.2,-17.5 61.6,-17.5 C59,-17.5 56.8,-15.2 56.8,-12.4 M56.8,12.3 C56.8,15.1 59,17.4 61.6,17.4 C64.2,17.4 66.4,15.1 66.4,12.3 C66.4,9.5 64.2,7.2 61.6,7.2 C59,7.2 56.8,9.5 56.8,12.3"/>
<path class="Clef" d="M335,725.641 C333.8,720.241 331.1,716.341 330.3,715.341 C327.1,711.041 323.1,708.241 318.4,706.841 C316.1,706.141 314,705.941 312,705.941 C311.3,705.941 310.6,705.941 309.9,706.041 C308.9,700.041 307.8,694.141 306.9,688.741 C312.5,682.541 316.2,676.641 318.6,672.241 C322.2,665.541 323.6,660.841 323.7,660.641 C324.9,657.641 325.6,653.841 325.6,649.341 C325.6,646.641 325.3,643.741 324.9,640.741 C323.8,633.641 321.6,626.941 319.1,623.241 C317.8,621.341 316.6,620.241 315.4,620.241 C314.2,620.241 311.7,621.441 308.8,624.241 C306.5,626.441 303.2,630.341 300.6,636.341 C298.3,641.741 297.6,648.641 297.6,654.541 C297.6,656.341 297.7,658.041 297.8,659.641 C298,663.241 298.7,669.041 299.3,672.641 C299.3,672.741 299.6,674.241 300,676.841 L299.3,677.541 C298.3,678.541 297.1,679.641 295.7,681.041 C294.8,681.941 293.9,682.741 292.9,683.741 C284.4,691.941 271.6,704.341 271.6,723.441 C271.6,728.141 272.5,732.541 274.3,736.541 C275.9,740.141 278.2,743.441 281.1,746.341 C288.6,753.741 298.8,756.941 305.9,756.941 L306.5,756.941 C309.4,756.841 312.1,756.541 314.5,756.141 C316.3,765.741 317.5,772.841 317.5,778.141 C317.5,784.641 315.9,788.541 312,791.341 C309.6,793.041 306.7,794.141 303.6,794.241 L302.8,794.241 C301.3,794.241 298.8,793.841 297.3,793.441 C297.3,793.441 297,793.341 297,793.141 C297,792.941 297.4,792.941 297.4,792.941 C299.3,792.541 302.9,791.241 305.3,787.941 C306.4,786.441 307.1,784.141 307.1,781.641 C307.1,780.041 306.8,778.341 306.1,776.841 C305,774.441 302.4,771.441 296.8,771.041 L295.7,771.041 C293.6,771.041 291.8,771.541 290.1,772.541 C288.3,773.641 286.7,775.341 285.7,777.341 C284.6,779.341 284.1,781.541 284.1,783.741 C284.1,786.641 285,789.341 286.8,791.541 C289.8,795.141 294.5,797.441 299.9,798.041 C300.6,798.141 301.7,798.241 302.4,798.241 C306.8,798.241 311.2,797.041 314.8,794.841 C318.5,792.241 320.6,788.241 321.3,782.641 C321.5,781.341 321.5,779.941 321.5,778.441 C321.5,774.541 321,769.841 320,764.041 C319.6,761.941 319.2,758.941 318.5,755.141 C324.3,753.241 328.4,749.541 332.2,743.741 C334.5,739.741 335.6,735.641 335.6,731.341 C335.6,729.441 335.4,727.541 335,725.641 M304.8,647.741 C306.6,642.041 309.3,638.641 311.3,636.941 C313.1,635.441 314.7,634.741 315.6,634.741 C315.7,634.741 315.9,634.841 316,634.841 C316.3,634.941 316.7,635.441 317.1,636.141 C318,637.941 318.9,641.241 318.9,644.941 C318.9,646.841 318.7,648.841 318.1,650.641 C315.9,657.441 311.3,664.741 304.3,672.441 C304.1,671.341 303.9,670.341 303.8,669.341 C303.3,666.141 303,662.941 303,660.041 C303,655.541 303.6,651.441 304.8,647.741 M300.8,751.841 C296.2,750.641 291.7,748.141 287.9,744.641 C286.6,743.441 284.8,741.241 283.3,737.841 C282,734.841 281.3,731.741 281.3,728.341 L281.3,727.641 C281.4,722.941 282.7,718.141 285.2,713.341 C288.1,707.741 292.6,702.241 298.7,696.941 C300.2,695.641 301.6,694.341 302.9,693.041 C303.7,697.341 304.4,702.041 305.3,706.941 C301.4,708.241 296.7,711.241 293.6,716.941 C291.2,721.441 290.5,725.341 290.5,728.541 C290.5,730.041 290.7,731.441 290.9,732.541 C291.8,737.041 294.4,740.741 297.9,742.841 C298.7,743.341 302,745.041 304,745.041 C304.3,745.041 304.6,745.041 304.8,744.941 C305.1,744.841 305.4,744.641 305.5,744.341 C305.6,744.141 305.6,743.941 305.6,743.741 C305.6,742.941 304.8,742.341 303.5,741.541 C302.9,741.141 302.2,740.741 301.5,740.241 C298.9,738.241 297.4,735.141 297.4,731.741 C297.4,730.741 297.6,729.841 297.8,728.841 C298.3,726.841 300,724.041 301.5,722.641 C303.2,721.141 305.2,719.941 307.6,719.341 C309.6,730.541 311.7,741.641 313.3,750.041 C313.4,750.741 313.6,751.441 313.7,752.141 C311.7,752.541 309.7,752.741 307.8,752.741 C305.4,752.741 303.1,752.441 300.8,751.841 M326.5,741.641 C325.3,744.841 322.8,748.841 317.7,750.941 C317.6,750.541 317.6,750.041 317.5,749.641 C316,740.841 314.1,729.941 312.1,718.641 L313.1,718.641 C322.8,718.641 326.7,725.841 327.6,730.441 C327.8,731.341 327.9,732.541 327.9,733.841 C327.9,736.141 327.5,738.941 326.5,741.641"/>
<path class="Clef" d="M335,1338.18 C333.8,1332.78 331.1,1328.88 330.3,1327.88 C327.1,1323.58 323.1,1320.78 318.4,1319.38 C316.1,1318.68 314,1318.48 312,1318.48 C311.3,1318.48 310.6,1318.48 309.9,1318.58 C308.9,1312.58 307.8,1306.68 306.9,1301.28 C312.5,1295.08 316.2,1289.18 318.6,1284.78 C322.2,1278.08 323.6,1273.38 323.7,1273.18 C324.9,1270.18 325.6,1266.38 325.6,1261.88 C325.6,1259.18 325.3,1256.28 324.9,1253.28 C323.8,1246.18 321.6,1239.48 319.1,1235.78 C317.8,1233.88 316.6,1232.78 315.4,1232.78 C314.2,1232.78 311.7,1233.98 308.8,1236.78 C306.5,1238.98 303.2,1242.88 300.6,1248.88 C298.3,1254.28 297.6,1261.18 297.6,1267.08 C297.6,1268.88 297.7,1270.58 297.8,1272.18 C298,1275.78 298.7,1281.58 299.3,1285.18 C299.3,1285.28 299.6,1286.78 300,1289.38 L299.3,1290.08 C298.3,1291.08 297.1,1292.18 295.7,1293.58 C294.8,1294.48 293.9,1295.28 292.9,1296.28 C284.4,1304.48 271.6,1316.88 271.6,1335.98 C271.6,1340.68 272.5,1345.08 274.3,1349.08 C275.9,1352.68 278.2,1355.98 281.1,1358.88 C288.6,1366.28 298.8,1369.48 305.9,1369.48 L306.5,1369.48 C309.4,1369.38 312.1,1369.08 314.5,1368.68 C316.3,1378.28 317.5,1385.38 317.5,1390.68 C317.5,1397.18 315.9,1401.08 312,1403.88 C309.6,1405.58 306.7,1406.68 303.6,1406.78 L302.8,1406.78 C301.3,1406.78 298.8,1406.38 297.3,1405.98 C297.3,1405.98 297,1405.88 297,1405.68 C297,1405.48 297.4,1405.48 297.4,1405.48 C299.3,1405.08 302.9,1403.78 305.3,1400.48 C306.4,1398.98 307.1,1396.68 307.1,1394.18 C307.1,1392.58 306.8,1390.88 306.1,1389.38 C305,1386.98 302.4,1383.98 296.8,1383.58 L295.7,1383.58 C293.6,1383.58 291.8,1384.08 290.1,1385.08 C288.3,1386.18 286.7,1387.88 285.7,1389.88 C284.6,1391.88 284.1,1394.08 284.1,1396.28 C284.1,1399.18 285,1401.88 286.8,1404.08 C289.8,1407.68 294.5,1409.98 299.9,1410.58 C300.6,1410.68 301.7,1410.78 302.4,1410.78 C306.8,1410.78 311.2,1409.58 314.8,1407.38 C318.5,1404.78 320.6,1400.78 321.3,1395.18 C321.5,1393.88 321.5,1392.48 321.5,1390.98 C321.5,1387.08 321,1382.38 320,1376.58 C319.6,1374.48 319.2,1371.48 318.5,1367.68 C324.3,1365.78 328.4,1362.08 332.2,1356.28 C334.5,1352.28 335.6,1348.18 335.6,1343.88 C335.6,1341.98 335.4,1340.08 335,1338.18 M304.8,1260.28 C306.6,1254.58 309.3,1251.18 311.3,1249.48 C313.1,1247.98 314.7,1247.28 315.6,1247.28 C315.7,1247.28 315.9,1247.38 316,1247.38 C316.3,1247.48 316.7,1247.98 317.1,1248.68 C318,1250.48 318.9,1253.78 318.9,1257.48 C318.9,1259.38 318.7,1261.38 318.1,1263.18 C315.9,1269.98 311.3,1277.28 304.3,1284.98 C304.1,1283.88 303.9,1282.88 303.8,1281.88 C303.3,1278.68 303,1275.48 303,1272.58 C303,1268.08 303.6,1263.98 304.8,1260.28 M300.8,1364.38 C296.2,1363.18 291.7,1360.68 287.9,1357.18 C286.6,1355.98 284.8,1353.78 283.3,1350.38 C282,1347.38 281.3,1344.28 281.3,1340.88 L281.3,1340.18 C281.4,1335.48 282.7,1330.68 285.2,1325.88 C288.1,1320.28 292.6,1314.78 298.7,1309.48 C300.2,1308.18 301.6,1306.88 302.9,1305.58 C303.7,1309.88 304.4,1314.58 305.3,1319.48 C301.4,1320.78 296.7,1323.78 293.6,1329.48 C291.2,1333.98 290.5,1337.88 290.5,1341.08 C290.5,1342.58 290.7,1343.98 290.9,1345.08 C291.8,1349.58 294.4,1353.28 297.9,1355.38 C298.7,1355.88 302,1357.58 304,1357.58 C304.3,1357.58 304.6,1357.58 304.8,1357.48 C305.1,1357.38 305.4,1357.18 305.5,1356.88 C305.6,1356.68 305.6,1356.48 305.6,1356.28 C305.6,1355.48 304.8,1354.88 303.5,1354.08 C302.9,1353.68 302.2,1353.28 301.5,1352.78 C298.9,1350.78 297.4,1347.68 297.4,1344.28 C297.4,1343.28 297.6,1342.38 297.8,1341.38 C298.3,1339.38 300,1336.58 301.5,1335.18 C303.2,1333.68 305.2,1332.48 307.6,1331.88 C309.6,1343.08 311.7,1354.18 313.3,1362.58 C313.4,1363.28 313.6,1363.98 313.7,1364.68 C311.7,1365.08 309.7,1365.28 307.8,1365.28 C305.4,1365.28 303.1,1364.98 300.8,1364.38 M326.5,1354.18 C325.3,1357.38 322.8,1361.38 317.7,1363.48 C317.6,1363.08 317.6,1362.58 317.5,1362.18 C316,1353.38 314.1,1342.48 312.1,1331.18 L313.1,1331.18 C322.8,1331.18 326.7,1338.38 327.6,1342.98 C327.8,1343.88 327.9,1345.08 327.9,1346.38 C327.9,1348.68 327.5,1351.48 326.5,1354.18"/>
<path class="TimeSig" d="M392.053,942.954 L392.253,942.954 C400.253,939.854 400.753,934.654 400.753,932.854 L400.753,932.354 C400.753,931.454 400.453,920.154 383.253,920.154 C366.053,920.154 366.553,932.354 366.553,932.354 L366.653,932.354 L366.553,932.554 C366.553,936.154 369.453,938.954 373.053,938.954 C376.653,938.954 379.453,936.154 379.453,932.554 C379.453,929.654 377.253,926.854 374.453,926.254 L374.753,925.954 C376.153,924.954 378.053,924.454 379.953,924.454 C384.153,924.454 388.653,926.954 388.653,932.354 C388.653,938.654 383.953,939.554 382.753,939.754 C381.553,939.954 375.953,940.354 374.753,940.354 C373.553,940.354 373.453,941.754 373.453,941.754 L373.453,943.754 C373.453,943.754 373.653,944.854 374.753,944.954 C376.453,945.054 378.753,945.054 381.953,945.554 C386.353,946.154 388.653,949.154 388.653,956.154 C388.653,962.854 384.153,964.654 379.953,964.654 C377.153,964.654 374.553,963.854 373.453,963.054 C376.753,962.854 379.453,959.954 379.453,956.654 C379.453,953.054 376.653,950.154 373.053,950.154 C369.453,950.154 366.553,953.054 366.553,956.654 C366.553,956.654 366.053,961.154 370.453,965.254 C374.353,968.854 379.253,968.954 381.453,968.954 C391.053,968.954 401.453,965.654 401.453,954.754 C401.453,947.454 396.453,944.354 392.053,942.954"/>
<path class="TimeSig" d="M365.2,1006.06 L382,1006.06 L382,1013.36 L373.9,1013.36 C373.1,1013.36 372.5,1013.96 372.5,1014.76 L372.5,1016.66 C372.5,1017.46 373.1,1017.96 373.9,1017.96 L403.6,1017.96 C404.4,1017.96 405,1017.46 405,1016.66 L405,1014.76 C405,1013.96 404.4,1013.36 403.6,1013.36 L394.8,1013.36 L394.8,1006.06 L403.6,1006.06 C404.4,1006.06 405,1005.46 405,1004.66 L405,1002.86 C405,1002.06 404.4,1001.46 403.6,1001.46 L394.8,1001.46 L394.8,985.758 C394.8,985.258 394.4,984.758 394,984.558 L392.9,983.958 C392.7,983.858 392.4,983.858 392.2,983.858 C391.9,983.858 391.5,983.958 391.3,984.158 L382.4,992.358 C382.2,992.558 382,993.058 382,993.358 L382,1001.46 L370.7,1001.46 C370.7,1001.46 381.6,989.658 393.2,974.158 C394,973.058 393.6,972.058 393.4,971.858 L391.3,969.658 C391.1,969.458 390.6,969.258 390.3,969.258 L375.7,969.258 C375,969.258 374.5,969.858 374.4,970.458 C374.4,970.458 373.9,977.658 371.3,985.658 C368.7,993.658 365.9,998.458 363.3,1002.06 C363.3,1002.06 362.8,1003.06 363.1,1003.76 C363.4,1004.46 364.1,1005.56 364.1,1005.56 C364.1,1005.56 364.4,1006.06 365.2,1006.06"/>
<path class="TimeSig" d="M392.053,680.438 L392.253,680.438 C400.253,677.338 400.753,672.138 400.753,670.338 L400.753,669.838 C400.753,668.938 400.453,657.638 383.253,657.638 C366.053,657.638 366.553,669.838 366.553,669.838 L366.653,669.838 L366.553,670.038 C366.553,673.638 369.453,676.438 373.053,676.438 C376.653,676.438 379.453,673.638 379.453,670.038 C379.453,667.138 377.253,664.338 374.453,663.738 L374.753,663.438 C376.153,662.438 378.053,661.938 379.953,661.938 C384.153,661.938 388.653,664.438 388.653,669.838 C388.653,676.138 383.953,677.038 382.753,677.238 C381.553,677.438 375.953,677.838 374.753,677.838 C373.553,677.838 373.453,679.238 373.453,679.238 L373.453,681.238 C373.453,681.238 373.653,682.338 374.753,682.438 C376.453,682.538 378.753,682.538 381.953,683.038 C386.353,683.638 388.653,686.638 388.653,693.638 C388.653,700.338 384.153,702.138 379.953,702.138 C377.153,702.138 374.553,701.338 373.453,700.538 C376.753,700.338 379.453,697.438 379.453,694.138 C379.453,690.538 376.653,687.638 373.053,687.638 C369.453,687.638 366.553,690.538 366.553,694.138 C366.553,694.138 366.053,698.638 370.453,702.738 C374.353,706.338 379.253,706.438 381.453,706.438 C391.053,706.438 401.453,703.138 401.453,692.238 C401.453,684.938 396.453,681.838 392.053,680.438"/>
<path class="TimeSig" d="M365.2,743.541 L382,743.541 L382,750.841 L373.9,750.841 C373.1,750.841 372.5,751.441 372.5,752.241 L372.5,754.141 C372.5,754.941 373.1,755.441 373.9,755.441 L403.6,755.441 C404.4,755.441 405,754.941 405,754.141 L405,752.241 C405,751.441 404.4,750.841 403.6,750.841 L394.8,750.841 L394.8,743.541 L403.6,743.541 C404.4,743.541 405,742.941 405,742.141 L405,740.341 C405,739.541 404.4,738.941 403.6,738.941 L394.8,738.941 L394.8,723.241 C394.8,722.741 394.4,722.241 394,722.041 L392.9,721.441 C392.7,721.341 392.4,721.341 392.2,721.341 C391.9,721.341 391.5,721.441 391.3,721.641 L382.4,729.841 C382.2,730.041 382,730.541 382,730.841 L382,738.941 L370.7,738.941 C370.7,738.941 381.6,727.141 393.2,711.641 C394,710.541 393.6,709.541 393.4,709.341 L391.3,707.141 C391.1,706.941 390.6,706.741 390.3,706.741 L375.7,706.741 C375,706.741 374.5,707.341 374.4,707.941 C374.4,707.941 373.9,715.141 371.3,723.141 C368.7,731.141 365.9,735.941 363.3,739.541 C363.3,739.541 362.8,740.541 363.1,741.241 C363.4,741.941 364.1,743.041 364.1,743.041 C364.1,743.041 364.4,743.541 365.2,743.541"/>
<path class="Page" d="M227.904,4035.06 L212.604,4056.34 L212.604,4058.86 L225.249,4058.86 L225.249,4061.2 C225.249,4063.5 225.249,4063.59 224.979,4063.99 C224.619,4064.49 223.764,4064.62 221.199,4064.62 L220.704,4064.62 L220.704,4066.74 L233.844,4066.74 L233.844,4064.62 L233.664,4064.62 C231.099,4064.62 230.244,4064.49 229.884,4063.99 C229.614,4063.59 229.614,4063.54 229.614,4061.2 L229.614,4058.86 L235.059,4058.86 L235.059,4056.34 L229.614,4056.34 L229.614,4044.06 C229.614,4038.43 229.614,4038.3 229.839,4035.06 L227.904,4035.06 M225.249,4056.34 L215.349,4056.34 L225.249,4042.71 L225.249,4056.34 M259.084,4057.02 L257.104,4057.02 L256.654,4059.31 C256.069,4062.24 255.709,4062.51 252.919,4062.51 L242.839,4062.51 C245.944,4059.27 246.979,4058.32 249.859,4056.07 C253.954,4052.92 255.709,4051.35 256.744,4050 C258.184,4048.02 258.904,4046.04 258.904,4043.83 C258.904,4038.7 254.674,4035.06 248.779,4035.06 C243.064,4035.06 238.699,4038.7 238.699,4043.52 C238.699,4046.35 240.139,4048.29 242.254,4048.29 C243.919,4048.29 245.044,4047.16 245.044,4045.54 C245.044,4044.42 244.414,4043.38 243.469,4042.98 C241.804,4042.3 241.714,4042.21 241.714,4041.63 C241.714,4040.95 242.164,4039.92 242.794,4039.15 C243.919,4037.76 245.764,4036.99 247.879,4036.99 C251.614,4036.99 253.819,4039.29 253.819,4043.07 C253.819,4046.4 252.244,4049.41 248.509,4053.37 C245.179,4056.88 243.109,4059.09 242.344,4059.94 C240.724,4061.83 239.914,4062.87 237.934,4065.48 L237.934,4066.74 L258.229,4066.74 L259.084,4057.02 "/>
<path class="Bracket" transform="matrix(3.62523,0,0,3.62523,214.469,1019.06)" d="M0.92002,-50 C2.69004,-51.88 6.2,-55.8 6.2,-63 C6.2,-72.1 2.25996,-81.32 2.25996,-86.97 C2.25996,-93.06 5.84004,-98.84 5.95,-99 C6.05996,-99.16 6.05,-99.39 5.94004,-99.46 C5.82998,-99.53 5.62002,-99.47 5.49004,-99.32 C5.35996,-99.17 0,-93.75 0,-85.6 C0,-76.75 3.5,-70.58 3.5,-59.07 C3.5,-56.89 2.55996,-53.36 0.1,-50.33 C-0.0799805,-50.17 -0.1,-49.89 0.0599609,-49.7 L0.0700195,-49.69 L0.1,-49.66 C2.55996,-46.63 3.5,-43.1 3.5,-40.92 C3.5,-29.4 0,-23.24 0,-14.39 C0,-6.25 5.35996,-0.8 5.49004,-0.659961 C5.62002,-0.52002 5.8,-0.42998 5.94004,-0.52002 C6.07998,-0.609961 6.07998,-0.77998 5.95,-0.97998 C5.82002,-1.17998 2.25996,-6.92002 2.25996,-13.01 C2.25996,-18.66 6.2,-27.9 6.2,-37 C6.2,-44.3 2.69004,-48.12 0.92002,-50"/>
<path class="Bracket" transform="matrix(3.62523,0,0,3.62523,214.469,1631.6)" d="M0.92002,-50 C2.69004,-51.88 6.2,-55.8 6.2,-63 C6.2,-72.1 2.25996,-81.32 2.25996,-86.97 C2.25996,-93.06 5.84004,-98.84 5.95,-99 C6.05996,-99.16 6.05,-99.39 5.94004,-99.46 C5.82998,-99.53 5.62002,-99.47 5.49004,-99.32 C5.35996,-99.17 0,-93.75 0,-85.6 C0,-76.75 3.5,-70.58 3.5,-59.07 C3.5,-56.89 2.55996,-53.36 0.1,-50.33 C-0.0799805,-50.17 -0.1,-49.89 0.0599609,-49.7 L0.0700195,-49.69 L0.1,-49.66 C2.55996,-46.63 3.5,-43.1 3.5,-40.92 C3.5,-29.4 0,-23.24 0,-14.39 C0,-6.25 5.35996,-0.8 5.49004,-0.659961 C5.62002,-0.52002 5.8,-0.42998 5.94004,-0.52002 C6.07998,-0.609961 6.07998,-0.77998 5.95,-0.97998 C5.82002,-1.17998 2.25996,-6.92002 2.25996,-13.01 C2.25996,-18.66 6.2,-27.9 6.2,-37 C6.2,-44.3 2.69004,-48.12 0.92002,-50"/>
</svg>