<?xml version="1.0" encoding="UTF-8" standalone="no"?>
<svg width="1000px" height="500px" viewBox="150 650 2700 1000" xmlns="http://www.w3.org/2000/svg" xmlns:xlink="http://www.w3.org/1999/xlink" version="1.2" baseProfile="tiny">
 xmlns="http://www.w3.org/2000/svg" xmlns:xlink="http://www.w3.org/1999/xlink" version="1.2" baseProfile="tiny">
<title>exercises_scores (52)</title>
<desc>Generated by MuseScore 3.6.0</desc>
<polyline class="StaffLines" fill="none" stroke="#000000" stroke-width="2.75" stroke-linejoin="bevel" points="247.099,660.505 2764.63,660.505"/>
<polyline class="StaffLines" fill="none" stroke="#000000" stroke-width="2.75" stroke-linejoin="bevel" points="247.099,685.506 2764.63,685.506"/>
<polyline class="StaffLines" fill="none" stroke="#000000" stroke-width="2.75" stroke-linejoin="bevel" points="247.099,710.508 2764.63,710.508"/>
<polyline class="StaffLines" fill="none" stroke="#000000" stroke-width="2.75" stroke-linejoin="bevel" points="247.099,735.509 2764.63,735.509"/>
<polyline class="StaffLines" fill="none" stroke="#000000" stroke-width="2.75" stroke-linejoin="bevel" points="247.099,760.511 2764.63,760.511"/>
<polyline class="StaffLines" fill="none" stroke="#000000" stroke-width="2.75" stroke-linejoin="bevel" points="247.099,923.021 2764.63,923.021"/>
<polyline class="StaffLines" fill="none" stroke="#000000" stroke-width="2.75" stroke-linejoin="bevel" points="247.099,948.023 2764.63,948.023"/>
<polyline class="StaffLines" fill="none" stroke="#000000" stroke-width="2.75" stroke-linejoin="bevel" points="247.099,973.024 2764.63,973.024"/>
<polyline class="StaffLines" fill="none" stroke="#000000" stroke-width="2.75" stroke-linejoin="bevel" points="247.099,998.026 2764.63,998.026"/>
<polyline class="StaffLines" fill="none" stroke="#000000" stroke-width="2.75" stroke-linejoin="bevel" points="247.099,1023.03 2764.63,1023.03"/>
<polyline class="StaffLines" fill="none" stroke="#000000" stroke-width="2.75" stroke-linejoin="bevel" points="247.099,1273.04 2764.63,1273.04"/>
<polyline class="StaffLines" fill="none" stroke="#000000" stroke-width="2.75" stroke-linejoin="bevel" points="247.099,1298.04 2764.63,1298.04"/>
<polyline class="StaffLines" fill="none" stroke="#000000" stroke-width="2.75" stroke-linejoin="bevel" points="247.099,1323.05 2764.63,1323.05"/>
<polyline class="StaffLines" fill="none" stroke="#000000" stroke-width="2.75" stroke-linejoin="bevel" points="247.099,1348.05 2764.63,1348.05"/>
<polyline class="StaffLines" fill="none" stroke="#000000" stroke-width="2.75" stroke-linejoin="bevel" points="247.099,1373.05 2764.63,1373.05"/>
<polyline class="StaffLines" fill="none" stroke="#000000" stroke-width="2.75" stroke-linejoin="bevel" points="247.099,1535.56 2764.63,1535.56"/>
<polyline class="StaffLines" fill="none" stroke="#000000" stroke-width="2.75" stroke-linejoin="bevel" points="247.099,1560.56 2764.63,1560.56"/>
<polyline class="StaffLines" fill="none" stroke="#000000" stroke-width="2.75" stroke-linejoin="bevel" points="247.099,1585.56 2764.63,1585.56"/>
<polyline class="StaffLines" fill="none" stroke="#000000" stroke-width="2.75" stroke-linejoin="bevel" points="247.099,1610.56 2764.63,1610.56"/>
<polyline class="StaffLines" fill="none" stroke="#000000" stroke-width="2.75" stroke-linejoin="bevel" points="247.099,1635.57 2764.63,1635.57"/>
<path class="Text" d="M212.602,217.466 L212.602,220.286 L213.682,220.286 C217.102,220.346 218.242,220.526 218.722,221.126 C219.082,221.666 219.082,221.786 219.082,224.846 L219.082,253.406 C219.082,256.466 219.082,256.586 218.722,257.126 C218.242,257.726 217.102,257.966 213.682,257.966 L212.602,257.966 L212.602,260.786 L234.382,260.786 C244.762,260.786 251.002,256.406 251.002,249.026 C251.002,243.026 247.222,239.606 239.002,238.166 C241.882,237.566 243.202,237.026 244.762,235.886 C247.222,234.026 248.722,231.086 248.722,228.086 C248.722,224.186 246.322,220.406 242.842,218.906 C240.682,217.946 237.682,217.466 234.142,217.466 L212.602,217.466 M225.802,236.966 L225.802,223.286 C225.802,220.946 226.582,220.346 229.762,220.286 L232.162,220.286 C234.922,220.286 237.202,220.766 238.462,221.546 C240.622,222.866 241.762,225.386 241.762,228.746 C241.762,234.686 238.882,236.966 231.142,236.966 L225.802,236.966 M225.802,239.786 L231.082,239.786 C240.262,239.786 243.622,242.246 243.622,248.846 C243.622,252.686 242.302,255.446 239.962,256.586 C238.102,257.546 235.582,257.966 231.802,257.966 L229.282,257.966 C226.282,257.966 225.682,257.366 225.802,254.186 L225.802,239.786 M265.994,232.826 L255.374,233.486 L255.374,236.066 L257.834,236.066 C260.114,236.126 260.414,236.486 260.414,239.066 L260.414,253.406 L260.414,256.226 C260.354,257.126 260.294,257.486 260.054,257.786 C259.634,258.326 258.434,258.566 255.854,258.626 L255.614,258.626 L255.614,260.786 L271.634,260.786 L271.634,258.626 L270.554,258.626 C266.534,258.506 265.994,258.206 265.994,256.046 L265.994,253.406 L265.994,252.806 C266.054,242.726 269.654,235.046 274.334,234.806 C273.494,235.766 273.254,236.366 273.254,237.506 C273.254,239.426 274.634,240.806 276.554,240.806 C278.774,240.806 280.214,239.186 280.214,236.786 C280.214,233.846 278.174,231.926 274.994,231.926 C271.214,231.926 267.974,234.926 265.994,240.266 L265.994,232.826 M295.562,231.926 C288.182,231.926 282.482,238.466 282.482,246.866 C282.482,255.086 288.242,261.686 295.442,261.686 C302.642,261.686 308.402,255.086 308.402,246.806 C308.402,238.586 302.642,231.926 295.562,231.926 M295.562,234.506 C299.762,234.506 302.102,238.886 302.102,246.806 C302.102,254.786 299.762,259.106 295.442,259.106 C291.122,259.106 288.782,254.786 288.782,246.866 C288.782,238.706 291.062,234.506 295.562,234.506 M322.382,246.266 L322.382,216.566 L311.282,217.226 L311.282,219.806 L314.162,219.806 C316.442,219.866 316.742,220.226 316.742,222.806 L316.742,253.406 L316.742,256.286 C316.682,257.126 316.622,257.486 316.382,257.786 C315.962,258.326 314.822,258.566 312.242,258.626 L312.002,258.626 L312.002,260.786 L327.182,260.786 L327.182,258.626 L326.942,258.626 C322.922,258.506 322.382,258.206 322.382,256.046 L322.382,253.406 L322.382,249.986 L326.042,246.506 L333.182,256.526 C333.482,257.006 333.602,257.306 333.602,257.546 C333.602,258.386 332.942,258.626 330.962,258.626 L329.822,258.626 L329.822,260.786 L345.662,260.786 L345.662,258.626 C342.302,258.326 341.102,257.606 338.642,254.486 L330.122,242.846 L332.822,240.206 C336.362,236.786 338.882,235.466 342.962,234.986 L342.962,232.826 L327.182,232.826 L327.182,234.986 L329.042,234.986 C330.962,234.986 331.862,235.346 331.862,236.126 C331.862,236.786 331.442,237.506 330.482,238.466 L322.382,246.266 M372.842,247.286 C372.902,238.286 367.802,231.926 360.482,231.926 C352.802,231.926 347.042,238.586 347.042,247.586 C347.042,256.046 352.502,261.686 360.602,261.686 C366.362,261.686 370.382,258.866 372.842,253.166 L370.742,252.026 C368.282,256.646 365.762,258.446 361.742,258.446 C358.682,258.446 356.462,257.186 354.902,254.486 C353.822,252.686 353.342,250.586 353.402,247.286 L372.842,247.286 M353.462,244.706 C353.462,242.846 353.702,241.526 354.302,239.846 C355.562,236.246 357.482,234.506 360.422,234.506 C364.022,234.506 366.422,237.686 366.422,242.546 C366.422,244.226 365.882,244.706 363.962,244.706 L353.462,244.706 M386.942,232.826 L376.562,233.486 L376.562,236.066 L378.722,236.066 C381.002,236.126 381.302,236.486 381.302,239.066 L381.302,253.406 L381.302,254.846 L381.302,256.226 C381.242,257.126 381.182,257.486 380.942,257.786 C380.522,258.326 379.382,258.566 376.802,258.626 L376.562,258.626 L376.562,260.786 L391.742,260.786 L391.742,258.626 L391.502,258.626 C387.482,258.506 386.942,258.206 386.942,256.046 L386.942,253.406 L386.942,247.166 C386.942,244.226 387.362,241.526 388.022,240.146 C389.282,237.446 391.982,235.586 394.562,235.586 C396.122,235.586 397.922,236.426 398.822,237.686 C399.722,239.006 400.142,240.806 400.142,243.686 L400.142,253.406 L400.142,256.226 C400.082,257.126 400.022,257.486 399.782,257.786 C399.362,258.326 398.162,258.566 395.582,258.626 L395.342,258.626 L395.342,260.786 L410.522,260.786 L410.522,258.626 L410.282,258.626 C406.322,258.506 405.782,258.206 405.782,256.046 L405.782,253.406 L405.782,243.986 C405.782,239.666 405.602,238.586 404.522,236.546 C403.022,233.666 400.022,231.926 396.422,231.926 C392.522,231.926 389.582,233.726 386.942,237.686 L386.942,232.826 M466.61,217.046 L464.33,217.046 L461.93,220.586 C457.55,217.406 455.33,216.566 451.19,216.566 C445.49,216.566 440.63,218.966 436.61,223.766 C432.77,228.326 430.97,233.366 430.97,239.546 C430.97,252.506 439.43,261.686 451.25,261.686 C460.85,261.686 466.97,256.046 468.35,245.966 L465.53,245.486 C463.91,254.426 459.35,258.866 451.97,258.866 C443.09,258.866 438.89,252.746 438.89,239.786 C438.89,232.946 439.79,228.446 441.83,224.846 C443.69,221.486 447.35,219.386 451.25,219.386 C455.45,219.386 459.17,221.606 461.45,225.446 C462.59,227.426 463.43,229.646 464.87,234.386 L467.51,234.386 L466.61,217.046 M483.583,216.566 L472.483,217.226 L472.483,219.806 L475.363,219.806 C477.643,219.866 477.943,220.226 477.943,222.806 L477.943,253.406 L477.943,254.846 L477.943,256.286 C477.883,257.126 477.823,257.486 477.583,257.786 C477.163,258.326 476.023,258.566 473.443,258.626 L473.203,258.626 L473.203,260.786 L488.383,260.786 L488.383,258.626 L488.143,258.626 C484.123,258.506 483.583,258.206 483.583,256.046 L483.583,253.406 L483.583,247.166 C483.583,244.226 484.003,241.526 484.663,240.146 C485.983,237.446 488.623,235.586 491.203,235.586 C492.763,235.586 494.563,236.486 495.403,237.686 C496.363,239.006 496.783,240.806 496.783,243.746 L496.783,253.406 L496.783,256.286 C496.723,257.126 496.663,257.486 496.423,257.786 C496.003,258.326 494.803,258.566 492.223,258.626 L491.983,258.626 L491.983,260.786 L507.163,260.786 L507.163,258.626 L506.923,258.626 C502.963,258.506 502.423,258.206 502.423,256.046 L502.423,253.406 L502.423,243.986 C502.423,239.666 502.243,238.586 501.163,236.546 C499.663,233.606 496.663,231.926 493.063,231.926 C489.163,231.926 486.283,233.666 483.583,237.686 L483.583,216.566 M523.359,231.926 C515.979,231.926 510.279,238.466 510.279,246.866 C510.279,255.086 516.039,261.686 523.239,261.686 C530.439,261.686 536.199,255.086 536.199,246.806 C536.199,238.586 530.439,231.926 523.359,231.926 M523.359,234.506 C527.559,234.506 529.899,238.886 529.899,246.806 C529.899,254.786 527.559,259.106 523.239,259.106 C518.919,259.106 516.579,254.786 516.579,246.866 C516.579,238.706 518.859,234.506 523.359,234.506 M550.119,232.826 L539.499,233.486 L539.499,236.066 L541.959,236.066 C544.239,236.126 544.539,236.486 544.539,239.066 L544.539,253.406 L544.539,256.226 C544.479,257.126 544.419,257.486 544.179,257.786 C543.759,258.326 542.559,258.566 539.979,258.626 L539.739,258.626 L539.739,260.786 L555.759,260.786 L555.759,258.626 L554.679,258.626 C550.659,258.506 550.119,258.206 550.119,256.046 L550.119,253.406 L550.119,252.806 C550.179,242.726 553.779,235.046 558.459,234.806 C557.619,235.766 557.379,236.366 557.379,237.506 C557.379,239.426 558.759,240.806 560.679,240.806 C562.899,240.806 564.339,239.186 564.339,236.786 C564.339,233.846 562.299,231.926 559.119,231.926 C555.339,231.926 552.099,234.926 550.119,240.266 L550.119,232.826 M587.18,261.206 L597.62,260.786 L597.62,258.206 L596.54,258.206 C593.12,258.026 592.82,257.666 592.82,253.826 L592.82,216.566 L581.06,217.226 L581.06,219.806 L584.6,219.806 C586.88,219.866 587.18,220.226 587.18,222.806 L587.18,236.366 C584.96,233.306 582.38,231.926 578.9,231.926 C572.12,231.926 566.96,238.466 566.96,247.106 C566.96,255.626 571.94,261.686 578.9,261.686 C582.68,261.686 585.26,260.066 587.18,256.466 L587.18,261.206 M580.1,235.166 C582.56,235.166 584.9,236.966 585.98,239.726 C586.76,241.526 587.12,243.986 587.12,246.926 C587.12,253.946 584.36,258.446 580.04,258.446 C575.78,258.446 573.26,254.486 573.26,247.826 C573.26,244.226 573.62,241.526 574.4,239.546 C575.42,236.846 577.64,235.166 580.1,235.166 M607.757,254.126 C605.657,254.126 603.977,255.806 603.977,257.846 C603.977,259.946 605.657,261.626 607.697,261.626 C609.797,261.626 611.477,259.946 611.477,257.846 C611.477,255.806 609.797,254.126 607.757,254.126 M607.757,232.406 C605.657,232.406 603.977,234.086 603.977,236.186 C603.977,238.226 605.657,239.906 607.697,239.906 C609.797,239.906 611.477,238.226 611.477,236.126 C611.477,234.086 609.797,232.406 607.757,232.406 M654.841,216.626 L652.321,216.626 L638.521,251.606 C636.901,256.286 635.341,257.726 631.921,257.966 L631.681,257.966 L631.681,260.786 L647.581,260.786 L647.581,257.966 L646.381,257.966 C643.141,257.966 641.521,256.826 641.521,254.546 C641.521,253.766 641.701,253.046 642.061,252.026 L644.041,246.746 L659.941,246.746 L663.181,254.786 C663.541,255.746 663.661,256.106 663.661,256.406 C663.661,257.366 662.161,257.966 659.941,257.966 L657.421,257.966 L657.421,260.786 L676.021,260.786 L676.021,257.966 L675.181,257.966 C672.061,257.906 671.521,257.546 670.141,254.126 L654.841,216.626 M651.901,226.466 L658.681,243.506 L645.241,243.506 L651.901,226.466 M697.991,230.708 C698.478,230.613 698.873,230.132 698.873,229.636 L698.873,229.634 L698.873,224.954 C698.873,224.665 698.69,224.283 698.465,224.102 C698.3,223.966 697.992,223.857 697.778,223.857 C697.715,223.857 697.615,223.867 697.553,223.88 L694.967,224.414 L694.967,212.606 L692.771,212.606 L692.771,224.87 L685.673,226.34 L685.673,215.102 L683.477,215.102 L683.477,226.796 L680.369,227.438 C679.886,227.54 679.494,228.024 679.493,228.518 L679.493,233.114 C679.494,233.401 679.674,233.783 679.895,233.966 C680.062,234.102 680.373,234.212 680.588,234.212 L680.591,234.212 C680.653,234.212 680.753,234.204 680.813,234.194 L683.477,233.654 L683.477,246.764 L680.369,247.406 C679.886,247.506 679.494,247.987 679.493,248.48 L679.493,253.082 C679.494,253.369 679.674,253.751 679.895,253.934 C680.062,254.07 680.373,254.18 680.588,254.18 L680.591,254.18 C680.595,254.18 680.6,254.18 680.603,254.18 C680.662,254.18 680.756,254.169 680.813,254.156 L683.477,253.616 L683.477,265.406 L685.673,265.406 L685.673,253.172 L692.771,251.732 L692.771,262.91 L694.967,262.91 L694.967,251.288 L697.991,250.676 C698.478,250.581 698.873,250.1 698.873,249.604 L698.873,249.602 L698.873,244.922 C698.873,244.633 698.69,244.251 698.465,244.07 C698.302,243.933 697.997,243.823 697.784,243.823 C697.72,243.823 697.616,243.834 697.553,243.848 L694.967,244.382 L694.967,231.326 L697.991,230.708 M685.673,246.308 L685.673,233.204 L692.771,231.77 L692.771,244.838 L685.673,246.308 M731.674,232.826 L720.994,233.486 L720.994,236.066 L723.454,236.066 C725.734,236.126 726.034,236.486 726.034,239.066 L726.034,253.406 L726.034,255.746 L726.034,256.226 C725.974,257.126 725.914,257.486 725.674,257.786 C725.254,258.326 724.114,258.566 721.534,258.626 L721.294,258.626 L721.294,260.786 L736.414,260.786 L736.414,258.626 L736.174,258.626 C732.214,258.506 731.674,258.206 731.674,255.986 L731.674,253.406 L731.674,244.886 C731.674,239.546 734.614,235.586 738.514,235.586 C741.934,235.586 743.674,238.046 743.674,242.906 L743.674,253.406 L743.674,256.286 C743.614,257.066 743.554,257.486 743.254,257.786 C742.894,258.326 741.694,258.566 739.114,258.626 L738.874,258.626 L738.874,260.786 L754.054,260.786 L754.054,258.626 L753.814,258.626 C749.854,258.506 749.314,258.206 749.314,256.046 L749.314,253.406 L749.314,245.426 C749.314,239.426 752.014,235.586 756.214,235.586 C759.634,235.586 761.314,238.166 761.314,243.566 L761.314,253.406 L761.314,256.226 C761.254,257.066 761.194,257.486 760.894,257.786 C760.534,258.326 759.334,258.566 756.754,258.626 L756.514,258.626 L756.514,260.786 L771.694,260.786 L771.694,258.626 L771.454,258.626 C767.494,258.506 766.954,258.206 766.954,255.986 L766.954,253.406 L766.954,242.366 C766.954,238.646 766.594,237.386 765.034,235.346 C763.294,233.126 760.834,231.926 757.954,231.926 C754.054,231.926 751.174,233.786 748.594,237.926 C747.574,234.326 744.334,231.926 740.314,231.926 C736.654,231.926 734.014,233.666 731.674,237.446 L731.674,232.826 M800.062,241.466 C800.062,237.686 799.402,235.766 797.662,234.326 C795.682,232.706 792.742,231.926 788.902,231.926 C782.122,231.926 777.202,235.106 777.202,239.486 C777.202,241.706 778.582,243.146 780.682,243.146 C782.602,243.146 783.922,241.886 783.922,240.086 C783.922,239.306 783.622,238.466 783.022,237.626 C782.662,237.206 782.602,237.086 782.602,236.786 C782.602,235.586 785.002,234.506 787.882,234.506 C789.802,234.506 791.902,235.106 792.862,236.006 C794.002,236.966 794.422,238.406 794.422,241.106 L794.422,243.446 C788.182,244.526 786.202,245.006 783.262,246.146 C778.042,248.066 775.582,250.826 775.582,254.666 C775.582,258.986 778.942,261.686 784.282,261.686 C788.422,261.686 792.142,260.006 794.722,256.946 C795.682,260.006 797.182,261.206 800.002,261.206 C802.702,261.206 805.522,259.466 805.522,257.726 C805.522,257.306 805.282,257.006 804.922,257.006 C804.682,257.006 804.442,257.066 804.022,257.246 C803.182,257.606 802.822,257.666 802.342,257.666 C800.662,257.666 800.062,256.586 800.062,253.526 L800.062,241.466 M794.422,248.786 C794.422,252.386 794.242,253.226 793.222,254.786 C791.722,257.006 789.022,258.506 786.382,258.506 C783.622,258.506 781.642,256.526 781.642,253.826 C781.642,251.306 782.902,249.506 785.542,248.246 C787.402,247.406 789.742,246.806 794.422,246.026 L794.422,248.786 M816.987,232.826 L805.287,233.486 L805.287,236.066 L808.767,236.066 C811.047,236.126 811.347,236.486 811.347,239.066 L811.347,259.406 C811.347,264.266 811.047,266.546 810.207,268.286 C809.607,269.486 808.227,270.386 806.907,270.386 C806.067,270.386 805.407,270.026 805.407,269.606 C805.407,269.366 805.467,269.246 805.707,268.646 C806.007,268.046 806.127,267.626 806.127,267.206 C806.127,265.706 804.687,264.386 803.007,264.386 C801.087,264.386 799.647,265.886 799.647,267.986 C799.647,270.926 802.347,272.906 806.367,272.906 C809.727,272.906 812.787,271.466 814.527,269.006 C816.387,266.366 816.987,263.306 816.987,256.526 L816.987,232.826 M814.167,217.886 C812.247,217.886 810.687,219.446 810.687,221.366 C810.687,223.286 812.247,224.846 814.107,224.846 C816.087,224.846 817.647,223.286 817.647,221.366 C817.647,219.446 816.087,217.886 814.167,217.886 M837.437,231.926 C830.057,231.926 824.357,238.466 824.357,246.866 C824.357,255.086 830.117,261.686 837.317,261.686 C844.517,261.686 850.277,255.086 850.277,246.806 C850.277,238.586 844.517,231.926 837.437,231.926 M837.437,234.506 C841.637,234.506 843.977,238.886 843.977,246.806 C843.977,254.786 841.637,259.106 837.317,259.106 C832.997,259.106 830.657,254.786 830.657,246.866 C830.657,238.706 832.937,234.506 837.437,234.506 M864.197,232.826 L853.577,233.486 L853.577,236.066 L856.037,236.066 C858.317,236.126 858.617,236.486 858.617,239.066 L858.617,253.406 L858.617,256.226 C858.557,257.126 858.497,257.486 858.257,257.786 C857.837,258.326 856.637,258.566 854.057,258.626 L853.817,258.626 L853.817,260.786 L869.837,260.786 L869.837,258.626 L868.757,258.626 C864.737,258.506 864.197,258.206 864.197,256.046 L864.197,253.406 L864.197,252.806 C864.257,242.726 867.857,235.046 872.537,234.806 C871.697,235.766 871.457,236.366 871.457,237.506 C871.457,239.426 872.837,240.806 874.757,240.806 C876.977,240.806 878.417,239.186 878.417,236.786 C878.417,233.846 876.377,231.926 873.197,231.926 C869.417,231.926 866.177,234.926 864.197,240.266 L864.197,232.826 "/>
<path class="TieSegment" stroke="#000000" stroke-width="1.75" stroke-linecap="round" stroke-linejoin="round" fill-rule="evenodd" d="M2606.29,904.27 C2637.96,876.702 2732.96,876.702 2764.63,904.27 C2732.96,883.702 2637.96,883.702 2606.29,904.27"/>
<path class="TieSegment" stroke="#000000" stroke-width="1.75" stroke-linecap="round" stroke-linejoin="round" fill-rule="evenodd" d="M335.596,1516.81 C352.122,1500.75 401.698,1500.75 418.224,1516.81 C401.698,1507.75 352.122,1507.75 335.596,1516.81"/>
<path class="TieSegment" stroke="#000000" stroke-width="1.75" stroke-linecap="round" stroke-linejoin="round" fill-rule="evenodd" d="M2606.29,554.248 C2637.96,526.68 2732.96,526.68 2764.63,554.248 C2732.96,533.68 2637.96,533.68 2606.29,554.248"/>
<path class="TieSegment" stroke="#000000" stroke-width="1.75" stroke-linecap="round" stroke-linejoin="round" fill-rule="evenodd" d="M335.596,1166.79 C352.122,1150.73 401.698,1150.73 418.224,1166.79 C401.698,1157.73 352.122,1157.73 335.596,1166.79"/>
<polyline class="BarLine" stroke="#000000" stroke-width="4.50" stroke-linejoin="bevel" points="249.349,921.646 249.349,1024.4"/>
<polyline class="BarLine" stroke="#000000" stroke-width="4.50" stroke-linejoin="bevel" points="1005.17,921.646 1005.17,1024.4"/>
<polyline class="BarLine" stroke="#000000" stroke-width="4.50" stroke-linejoin="bevel" points="1578.44,921.646 1578.44,1024.4"/>
<polyline class="BarLine" stroke="#000000" stroke-width="4.50" stroke-linejoin="bevel" points="2171.84,921.646 2171.84,1024.4"/>
<polyline class="BarLine" stroke="#000000" stroke-width="4.50" stroke-linejoin="bevel" points="2762.38,921.646 2762.38,1024.4"/>
<polyline class="BarLine" stroke="#000000" stroke-width="4.50" stroke-linejoin="bevel" points="249.349,1534.18 249.349,1636.94"/>
<polyline class="BarLine" stroke="#000000" stroke-width="4.50" stroke-linejoin="bevel" points="965.692,1534.18 965.692,1636.94"/>
<polyline class="BarLine" stroke="#000000" stroke-width="4.50" stroke-linejoin="bevel" points="1547.91,1534.18 1547.91,1636.94"/>
<polyline class="BarLine" stroke="#000000" stroke-width="4.50" stroke-linejoin="bevel" points="2129.9,1534.18 2129.9,1636.94"/>
<polyline class="BarLine" stroke="#000000" stroke-width="4.50" stroke-linejoin="bevel" points="2734.88,1534.18 2734.88,1636.94"/>
<polyline class="BarLine" stroke="#000000" stroke-width="13.75" stroke-linejoin="bevel" points="2757.76,1534.18 2757.76,1636.94"/>
<polyline class="BarLine" stroke="#000000" stroke-width="4.50" stroke-linejoin="bevel" points="249.349,659.13 249.349,923.021"/>
<polyline class="BarLine" stroke="#000000" stroke-width="4.50" stroke-linejoin="bevel" points="1005.17,659.13 1005.17,923.021"/>
<polyline class="BarLine" stroke="#000000" stroke-width="4.50" stroke-linejoin="bevel" points="1578.44,659.13 1578.44,923.021"/>
<polyline class="BarLine" stroke="#000000" stroke-width="4.50" stroke-linejoin="bevel" points="2171.84,659.13 2171.84,923.021"/>
<polyline class="BarLine" stroke="#000000" stroke-width="4.50" stroke-linejoin="bevel" points="2762.38,659.13 2762.38,923.021"/>
<polyline class="BarLine" stroke="#000000" stroke-width="4.50" stroke-linejoin="bevel" points="249.349,1271.67 249.349,1535.56"/>
<polyline class="BarLine" stroke="#000000" stroke-width="4.50" stroke-linejoin="bevel" points="965.692,1271.67 965.692,1535.56"/>
<polyline class="BarLine" stroke="#000000" stroke-width="4.50" stroke-linejoin="bevel" points="1547.91,1271.67 1547.91,1535.56"/>
<polyline class="BarLine" stroke="#000000" stroke-width="4.50" stroke-linejoin="bevel" points="2129.9,1271.67 2129.9,1535.56"/>
<polyline class="BarLine" stroke="#000000" stroke-width="4.50" stroke-linejoin="bevel" points="2734.88,1271.67 2734.88,1535.56"/>
<polyline class="BarLine" stroke="#000000" stroke-width="13.75" stroke-linejoin="bevel" points="2757.76,1271.67 2757.76,1535.56"/>
<path class="Accidental" d="M478.302,912.421 C478.902,912.321 479.402,911.621 479.402,911.021 L479.402,905.121 C479.402,904.321 478.802,903.721 478.002,903.721 L477.802,903.721 L474.502,904.421 L474.502,889.521 L471.702,889.521 L471.702,905.021 L462.802,906.821 L462.802,892.721 L460.002,892.721 L460.002,907.421 L456.102,908.221 C455.502,908.321 455.002,909.021 455.002,909.621 L455.002,909.821 L455.002,915.621 L455.002,915.421 C455.002,916.221 455.602,916.821 456.402,916.821 L456.702,916.821 L460.002,916.121 L460.002,932.621 L456.102,933.421 C455.502,933.521 455.002,934.221 455.002,934.821 L455.002,940.621 C455.002,941.421 455.602,942.021 456.402,942.021 L456.702,942.021 L460.002,941.321 L460.002,956.221 L462.802,956.221 L462.802,940.721 L471.702,938.921 L471.702,953.021 L474.502,953.021 L474.502,938.321 L478.302,937.621 C478.902,937.521 479.402,936.821 479.402,936.221 L479.402,930.321 C479.402,929.521 478.802,928.921 478.002,928.921 L477.802,928.921 L474.502,929.621 L474.502,913.121 L478.302,912.421 M462.802,932.121 L462.802,915.521 L471.702,913.721 L471.702,930.221 L462.802,932.121 "/>
<path class="Accidental" d="M1390.08,974.925 C1390.68,974.825 1391.18,974.125 1391.18,973.525 L1391.18,967.625 C1391.18,966.825 1390.58,966.225 1389.78,966.225 L1389.58,966.225 L1386.28,966.925 L1386.28,952.025 L1383.48,952.025 L1383.48,967.525 L1374.58,969.325 L1374.58,955.225 L1371.78,955.225 L1371.78,969.925 L1367.88,970.725 C1367.28,970.825 1366.78,971.525 1366.78,972.125 L1366.78,972.325 L1366.78,978.125 L1366.78,977.925 C1366.78,978.725 1367.38,979.325 1368.18,979.325 L1368.48,979.325 L1371.78,978.625 L1371.78,995.125 L1367.88,995.925 C1367.28,996.025 1366.78,996.725 1366.78,997.325 L1366.78,1003.13 C1366.78,1003.93 1367.38,1004.53 1368.18,1004.53 L1368.48,1004.53 L1371.78,1003.83 L1371.78,1018.73 L1374.58,1018.73 L1374.58,1003.23 L1383.48,1001.43 L1383.48,1015.53 L1386.28,1015.53 L1386.28,1000.83 L1390.08,1000.13 C1390.68,1000.03 1391.18,999.325 1391.18,998.725 L1391.18,992.825 C1391.18,992.025 1390.58,991.425 1389.78,991.425 L1389.58,991.425 L1386.28,992.125 L1386.28,975.625 L1390.08,974.925 M1374.58,994.625 L1374.58,978.025 L1383.48,976.225 L1383.48,992.725 L1374.58,994.625 "/>
<path class="Accidental" d="M1791.31,974.925 C1791.91,974.825 1792.41,974.125 1792.41,973.525 L1792.41,967.625 C1792.41,966.825 1791.81,966.225 1791.01,966.225 L1790.81,966.225 L1787.51,966.925 L1787.51,952.025 L1784.71,952.025 L1784.71,967.525 L1775.81,969.325 L1775.81,955.225 L1773.01,955.225 L1773.01,969.925 L1769.11,970.725 C1768.51,970.825 1768.01,971.525 1768.01,972.125 L1768.01,972.325 L1768.01,978.125 L1768.01,977.925 C1768.01,978.725 1768.61,979.325 1769.41,979.325 L1769.71,979.325 L1773.01,978.625 L1773.01,995.125 L1769.11,995.925 C1768.51,996.025 1768.01,996.725 1768.01,997.325 L1768.01,1003.13 C1768.01,1003.93 1768.61,1004.53 1769.41,1004.53 L1769.71,1004.53 L1773.01,1003.83 L1773.01,1018.73 L1775.81,1018.73 L1775.81,1003.23 L1784.71,1001.43 L1784.71,1015.53 L1787.51,1015.53 L1787.51,1000.83 L1791.31,1000.13 C1791.91,1000.03 1792.41,999.325 1792.41,998.725 L1792.41,992.825 C1792.41,992.025 1791.81,991.425 1791.01,991.425 L1790.81,991.425 L1787.51,992.125 L1787.51,975.625 L1791.31,974.925 M1775.81,994.625 L1775.81,978.025 L1784.71,976.225 L1784.71,992.725 L1775.81,994.625 "/>
<path class="Accidental" d="M2227.89,974.925 C2228.49,974.825 2228.99,974.125 2228.99,973.525 L2228.99,967.625 C2228.99,966.825 2228.39,966.225 2227.59,966.225 L2227.39,966.225 L2224.09,966.925 L2224.09,952.025 L2221.29,952.025 L2221.29,967.525 L2212.39,969.325 L2212.39,955.225 L2209.59,955.225 L2209.59,969.925 L2205.69,970.725 C2205.09,970.825 2204.59,971.525 2204.59,972.125 L2204.59,972.325 L2204.59,978.125 L2204.59,977.925 C2204.59,978.725 2205.19,979.325 2205.99,979.325 L2206.29,979.325 L2209.59,978.625 L2209.59,995.125 L2205.69,995.925 C2205.09,996.025 2204.59,996.725 2204.59,997.325 L2204.59,1003.13 C2204.59,1003.93 2205.19,1004.53 2205.99,1004.53 L2206.29,1004.53 L2209.59,1003.83 L2209.59,1018.73 L2212.39,1018.73 L2212.39,1003.23 L2221.29,1001.43 L2221.29,1015.53 L2224.09,1015.53 L2224.09,1000.83 L2227.89,1000.13 C2228.49,1000.03 2228.99,999.325 2228.99,998.725 L2228.99,992.825 C2228.99,992.025 2228.39,991.425 2227.59,991.425 L2227.39,991.425 L2224.09,992.125 L2224.09,975.625 L2227.89,974.925 M2212.39,994.625 L2212.39,978.025 L2221.29,976.225 L2221.29,992.725 L2212.39,994.625 "/>
<path class="Accidental" d="M1603.96,1587.46 C1604.56,1587.36 1605.06,1586.66 1605.06,1586.06 L1605.06,1580.16 C1605.06,1579.36 1604.46,1578.76 1603.66,1578.76 L1603.46,1578.76 L1600.16,1579.46 L1600.16,1564.56 L1597.36,1564.56 L1597.36,1580.06 L1588.46,1581.86 L1588.46,1567.76 L1585.66,1567.76 L1585.66,1582.46 L1581.76,1583.26 C1581.16,1583.36 1580.66,1584.06 1580.66,1584.66 L1580.66,1584.86 L1580.66,1590.66 L1580.66,1590.46 C1580.66,1591.26 1581.26,1591.86 1582.06,1591.86 L1582.36,1591.86 L1585.66,1591.16 L1585.66,1607.66 L1581.76,1608.46 C1581.16,1608.56 1580.66,1609.26 1580.66,1609.86 L1580.66,1615.66 C1580.66,1616.46 1581.26,1617.06 1582.06,1617.06 L1582.36,1617.06 L1585.66,1616.36 L1585.66,1631.26 L1588.46,1631.26 L1588.46,1615.76 L1597.36,1613.96 L1597.36,1628.06 L1600.16,1628.06 L1600.16,1613.36 L1603.96,1612.66 C1604.56,1612.56 1605.06,1611.86 1605.06,1611.26 L1605.06,1605.36 C1605.06,1604.56 1604.46,1603.96 1603.66,1603.96 L1603.46,1603.96 L1600.16,1604.66 L1600.16,1588.16 L1603.96,1587.46 M1588.46,1607.16 L1588.46,1590.56 L1597.36,1588.76 L1597.36,1605.26 L1588.46,1607.16 "/>
<path class="Accidental" d="M2527.2,1674.97 C2527.8,1674.87 2528.3,1674.17 2528.3,1673.57 L2528.3,1667.67 C2528.3,1666.87 2527.7,1666.27 2526.9,1666.27 L2526.7,1666.27 L2523.4,1666.97 L2523.4,1652.07 L2520.6,1652.07 L2520.6,1667.57 L2511.7,1669.37 L2511.7,1655.27 L2508.9,1655.27 L2508.9,1669.97 L2505,1670.77 C2504.4,1670.87 2503.9,1671.57 2503.9,1672.17 L2503.9,1672.37 L2503.9,1678.17 L2503.9,1677.97 C2503.9,1678.77 2504.5,1679.37 2505.3,1679.37 L2505.6,1679.37 L2508.9,1678.67 L2508.9,1695.17 L2505,1695.97 C2504.4,1696.07 2503.9,1696.77 2503.9,1697.37 L2503.9,1703.17 C2503.9,1703.97 2504.5,1704.57 2505.3,1704.57 L2505.6,1704.57 L2508.9,1703.87 L2508.9,1718.77 L2511.7,1718.77 L2511.7,1703.27 L2520.6,1701.47 L2520.6,1715.57 L2523.4,1715.57 L2523.4,1700.87 L2527.2,1700.17 C2527.8,1700.07 2528.3,1699.37 2528.3,1698.77 L2528.3,1692.87 C2528.3,1692.07 2527.7,1691.47 2526.9,1691.47 L2526.7,1691.47 L2523.4,1692.17 L2523.4,1675.67 L2527.2,1674.97 M2511.7,1694.67 L2511.7,1678.07 L2520.6,1676.27 L2520.6,1692.77 L2511.7,1694.67 "/>
<path class="Accidental" d="M478.302,712.409 C478.902,712.309 479.402,711.609 479.402,711.009 L479.402,705.109 C479.402,704.309 478.802,703.709 478.002,703.709 L477.802,703.709 L474.502,704.409 L474.502,689.509 L471.702,689.509 L471.702,705.009 L462.802,706.809 L462.802,692.709 L460.002,692.709 L460.002,707.409 L456.102,708.209 C455.502,708.309 455.002,709.009 455.002,709.609 L455.002,709.809 L455.002,715.609 L455.002,715.409 C455.002,716.209 455.602,716.809 456.402,716.809 L456.702,716.809 L460.002,716.109 L460.002,732.609 L456.102,733.409 C455.502,733.509 455.002,734.209 455.002,734.809 L455.002,740.609 C455.002,741.409 455.602,742.009 456.402,742.009 L456.702,742.009 L460.002,741.309 L460.002,756.209 L462.802,756.209 L462.802,740.709 L471.702,738.909 L471.702,753.009 L474.502,753.009 L474.502,738.309 L478.302,737.609 C478.902,737.509 479.402,736.809 479.402,736.209 L479.402,730.309 C479.402,729.509 478.802,728.909 478.002,728.909 L477.802,728.909 L474.502,729.609 L474.502,713.109 L478.302,712.409 M462.802,732.109 L462.802,715.509 L471.702,713.709 L471.702,730.209 L462.802,732.109 "/>
<path class="Accidental" d="M1381.33,624.903 C1381.93,624.803 1382.43,624.103 1382.43,623.503 L1382.43,617.603 C1382.43,616.803 1381.83,616.203 1381.03,616.203 L1380.83,616.203 L1377.53,616.903 L1377.53,602.003 L1374.73,602.003 L1374.73,617.503 L1365.83,619.303 L1365.83,605.203 L1363.03,605.203 L1363.03,619.903 L1359.13,620.703 C1358.53,620.803 1358.03,621.503 1358.03,622.103 L1358.03,622.303 L1358.03,628.103 L1358.03,627.903 C1358.03,628.703 1358.63,629.303 1359.43,629.303 L1359.73,629.303 L1363.03,628.603 L1363.03,645.103 L1359.13,645.903 C1358.53,646.003 1358.03,646.703 1358.03,647.303 L1358.03,653.103 C1358.03,653.903 1358.63,654.503 1359.43,654.503 L1359.73,654.503 L1363.03,653.803 L1363.03,668.703 L1365.83,668.703 L1365.83,653.203 L1374.73,651.403 L1374.73,665.503 L1377.53,665.503 L1377.53,650.803 L1381.33,650.103 C1381.93,650.003 1382.43,649.303 1382.43,648.703 L1382.43,642.803 C1382.43,642.003 1381.83,641.403 1381.03,641.403 L1380.83,641.403 L1377.53,642.103 L1377.53,625.603 L1381.33,624.903 M1365.83,644.603 L1365.83,628.003 L1374.73,626.203 L1374.73,642.703 L1365.83,644.603 "/>
<path class="Accidental" d="M1782.56,624.903 C1783.16,624.803 1783.66,624.103 1783.66,623.503 L1783.66,617.603 C1783.66,616.803 1783.06,616.203 1782.26,616.203 L1782.06,616.203 L1778.76,616.903 L1778.76,602.003 L1775.96,602.003 L1775.96,617.503 L1767.06,619.303 L1767.06,605.203 L1764.26,605.203 L1764.26,619.903 L1760.36,620.703 C1759.76,620.803 1759.26,621.503 1759.26,622.103 L1759.26,622.303 L1759.26,628.103 L1759.26,627.903 C1759.26,628.703 1759.86,629.303 1760.66,629.303 L1760.96,629.303 L1764.26,628.603 L1764.26,645.103 L1760.36,645.903 C1759.76,646.003 1759.26,646.703 1759.26,647.303 L1759.26,653.103 C1759.26,653.903 1759.86,654.503 1760.66,654.503 L1760.96,654.503 L1764.26,653.803 L1764.26,668.703 L1767.06,668.703 L1767.06,653.203 L1775.96,651.403 L1775.96,665.503 L1778.76,665.503 L1778.76,650.803 L1782.56,650.103 C1783.16,650.003 1783.66,649.303 1783.66,648.703 L1783.66,642.803 C1783.66,642.003 1783.06,641.403 1782.26,641.403 L1782.06,641.403 L1778.76,642.103 L1778.76,625.603 L1782.56,624.903 M1767.06,644.603 L1767.06,628.003 L1775.96,626.203 L1775.96,642.703 L1767.06,644.603 "/>
<path class="Accidental" d="M2219.14,624.903 C2219.74,624.803 2220.24,624.103 2220.24,623.503 L2220.24,617.603 C2220.24,616.803 2219.64,616.203 2218.84,616.203 L2218.64,616.203 L2215.34,616.903 L2215.34,602.003 L2212.54,602.003 L2212.54,617.503 L2203.64,619.303 L2203.64,605.203 L2200.84,605.203 L2200.84,619.903 L2196.94,620.703 C2196.34,620.803 2195.84,621.503 2195.84,622.103 L2195.84,622.303 L2195.84,628.103 L2195.84,627.903 C2195.84,628.703 2196.44,629.303 2197.24,629.303 L2197.54,629.303 L2200.84,628.603 L2200.84,645.103 L2196.94,645.903 C2196.34,646.003 2195.84,646.703 2195.84,647.303 L2195.84,653.103 C2195.84,653.903 2196.44,654.503 2197.24,654.503 L2197.54,654.503 L2200.84,653.803 L2200.84,668.703 L2203.64,668.703 L2203.64,653.203 L2212.54,651.403 L2212.54,665.503 L2215.34,665.503 L2215.34,650.803 L2219.14,650.103 C2219.74,650.003 2220.24,649.303 2220.24,648.703 L2220.24,642.803 C2220.24,642.003 2219.64,641.403 2218.84,641.403 L2218.64,641.403 L2215.34,642.103 L2215.34,625.603 L2219.14,624.903 M2203.64,644.603 L2203.64,628.003 L2212.54,626.203 L2212.54,642.703 L2203.64,644.603 "/>
<path class="Accidental" d="M1595.21,1237.44 C1595.81,1237.34 1596.31,1236.64 1596.31,1236.04 L1596.31,1230.14 C1596.31,1229.34 1595.71,1228.74 1594.91,1228.74 L1594.71,1228.74 L1591.41,1229.44 L1591.41,1214.54 L1588.61,1214.54 L1588.61,1230.04 L1579.71,1231.84 L1579.71,1217.74 L1576.91,1217.74 L1576.91,1232.44 L1573.01,1233.24 C1572.41,1233.34 1571.91,1234.04 1571.91,1234.64 L1571.91,1234.84 L1571.91,1240.64 L1571.91,1240.44 C1571.91,1241.24 1572.51,1241.84 1573.31,1241.84 L1573.61,1241.84 L1576.91,1241.14 L1576.91,1257.64 L1573.01,1258.44 C1572.41,1258.54 1571.91,1259.24 1571.91,1259.84 L1571.91,1265.64 C1571.91,1266.44 1572.51,1267.04 1573.31,1267.04 L1573.61,1267.04 L1576.91,1266.34 L1576.91,1281.24 L1579.71,1281.24 L1579.71,1265.74 L1588.61,1263.94 L1588.61,1278.04 L1591.41,1278.04 L1591.41,1263.34 L1595.21,1262.64 C1595.81,1262.54 1596.31,1261.84 1596.31,1261.24 L1596.31,1255.34 C1596.31,1254.54 1595.71,1253.94 1594.91,1253.94 L1594.71,1253.94 L1591.41,1254.64 L1591.41,1238.14 L1595.21,1237.44 M1579.71,1257.14 L1579.71,1240.54 L1588.61,1238.74 L1588.61,1255.24 L1579.71,1257.14 "/>
<path class="Accidental" d="M2535.95,1324.95 C2536.55,1324.85 2537.05,1324.15 2537.05,1323.55 L2537.05,1317.65 C2537.05,1316.85 2536.45,1316.25 2535.65,1316.25 L2535.45,1316.25 L2532.15,1316.95 L2532.15,1302.05 L2529.35,1302.05 L2529.35,1317.55 L2520.45,1319.35 L2520.45,1305.25 L2517.65,1305.25 L2517.65,1319.95 L2513.75,1320.75 C2513.15,1320.85 2512.65,1321.55 2512.65,1322.15 L2512.65,1322.35 L2512.65,1328.15 L2512.65,1327.95 C2512.65,1328.75 2513.25,1329.35 2514.05,1329.35 L2514.35,1329.35 L2517.65,1328.65 L2517.65,1345.15 L2513.75,1345.95 C2513.15,1346.05 2512.65,1346.75 2512.65,1347.35 L2512.65,1353.15 C2512.65,1353.95 2513.25,1354.55 2514.05,1354.55 L2514.35,1354.55 L2517.65,1353.85 L2517.65,1368.75 L2520.45,1368.75 L2520.45,1353.25 L2529.35,1351.45 L2529.35,1365.55 L2532.15,1365.55 L2532.15,1350.85 L2535.95,1350.15 C2536.55,1350.05 2537.05,1349.35 2537.05,1348.75 L2537.05,1342.85 C2537.05,1342.05 2536.45,1341.45 2535.65,1341.45 L2535.45,1341.45 L2532.15,1342.15 L2532.15,1325.65 L2535.95,1324.95 M2520.45,1344.65 L2520.45,1328.05 L2529.35,1326.25 L2529.35,1342.75 L2520.45,1344.65 "/>
<polyline class="LedgerLine" stroke="#000000" stroke-width="4.00" stroke-linejoin="bevel" points="645.156,898.02 695.151,898.02"/>
<polyline class="LedgerLine" stroke="#000000" stroke-width="4.00" stroke-linejoin="bevel" points="813.41,898.02 863.405,898.02"/>
<polyline class="LedgerLine" stroke="#000000" stroke-width="4.00" stroke-linejoin="bevel" points="813.41,873.018 863.405,873.018"/>
<polyline class="LedgerLine" stroke="#000000" stroke-width="4.00" stroke-linejoin="bevel" points="2534.55,1685.57 2584.55,1685.57"/>
<polyline class="LedgerLine" stroke="#000000" stroke-width="4.00" stroke-linejoin="bevel" points="2534.55,1660.57 2584.55,1660.57"/>
<polyline class="LedgerLine" stroke="#000000" stroke-width="4.00" stroke-linejoin="bevel" points="1388.68,635.503 1438.68,635.503"/>
<polyline class="LedgerLine" stroke="#000000" stroke-width="4.00" stroke-linejoin="bevel" points="1789.91,635.503 1839.9,635.503"/>
<polyline class="LedgerLine" stroke="#000000" stroke-width="4.00" stroke-linejoin="bevel" points="1975.37,635.503 2025.37,635.503"/>
<polyline class="LedgerLine" stroke="#000000" stroke-width="4.00" stroke-linejoin="bevel" points="1975.37,610.502 2025.37,610.502"/>
<polyline class="LedgerLine" stroke="#000000" stroke-width="4.00" stroke-linejoin="bevel" points="2226.49,635.503 2276.49,635.503"/>
<polyline class="LedgerLine" stroke="#000000" stroke-width="4.00" stroke-linejoin="bevel" points="2401.45,635.503 2451.45,635.503"/>
<polyline class="LedgerLine" stroke="#000000" stroke-width="4.00" stroke-linejoin="bevel" points="2401.45,610.502 2451.45,610.502"/>
<polyline class="LedgerLine" stroke="#000000" stroke-width="4.00" stroke-linejoin="bevel" points="2576.42,635.503 2626.41,635.503"/>
<polyline class="LedgerLine" stroke="#000000" stroke-width="4.00" stroke-linejoin="bevel" points="2576.42,610.502 2626.41,610.502"/>
<polyline class="LedgerLine" stroke="#000000" stroke-width="4.00" stroke-linejoin="bevel" points="2576.42,585.5 2626.41,585.5"/>
<polyline class="LedgerLine" stroke="#000000" stroke-width="4.00" stroke-linejoin="bevel" points="398.1,1248.04 448.096,1248.04"/>
<polyline class="LedgerLine" stroke="#000000" stroke-width="4.00" stroke-linejoin="bevel" points="398.1,1223.04 448.096,1223.04"/>
<polyline class="LedgerLine" stroke="#000000" stroke-width="4.00" stroke-linejoin="bevel" points="398.1,1198.04 448.096,1198.04"/>
<polyline class="LedgerLine" stroke="#000000" stroke-width="4.00" stroke-linejoin="bevel" points="583.631,1248.04 633.626,1248.04"/>
<polyline class="LedgerLine" stroke="#000000" stroke-width="4.00" stroke-linejoin="bevel" points="583.631,1223.04 633.626,1223.04"/>
<polyline class="LedgerLine" stroke="#000000" stroke-width="4.00" stroke-linejoin="bevel" points="769.161,1248.04 819.157,1248.04"/>
<polyline class="LedgerLine" stroke="#000000" stroke-width="4.00" stroke-linejoin="bevel" points="1000.44,1248.04 1050.44,1248.04"/>
<polyline class="LedgerLine" stroke="#000000" stroke-width="4.00" stroke-linejoin="bevel" points="1000.44,1223.04 1050.44,1223.04"/>
<polyline class="LedgerLine" stroke="#000000" stroke-width="4.00" stroke-linejoin="bevel" points="1179.27,1248.04 1229.26,1248.04"/>
<polyline class="LedgerLine" stroke="#000000" stroke-width="4.00" stroke-linejoin="bevel" points="1602.56,1248.04 1652.56,1248.04"/>
<polyline class="Stem" stroke="#000000" stroke-width="2.75" stroke-linejoin="bevel" points="487.028,926.542 487.028,1010.53"/>
<polyline class="Stem" stroke="#000000" stroke-width="2.75" stroke-linejoin="bevel" points="655.282,889.039 655.282,973.024"/>
<polyline class="Stem" stroke="#000000" stroke-width="2.75" stroke-linejoin="bevel" points="823.536,864.038 823.536,973.024"/>
<polyline class="Stem" stroke="#000000" stroke-width="2.75" stroke-linejoin="bevel" points="1071.04,1032.17 1071.04,948.023"/>
<polyline class="Stem" stroke="#000000" stroke-width="2.75" stroke-linejoin="bevel" points="1249.79,1007.17 1249.79,923.021"/>
<polyline class="Stem" stroke="#000000" stroke-width="2.75" stroke-linejoin="bevel" points="1428.55,982.165 1428.55,904.27"/>
<polyline class="Stem" stroke="#000000" stroke-width="2.75" stroke-linejoin="bevel" points="1644.31,1007.17 1644.31,923.021"/>
<polyline class="Stem" stroke="#000000" stroke-width="2.75" stroke-linejoin="bevel" points="1829.78,982.165 1829.78,904.27"/>
<polyline class="Stem" stroke="#000000" stroke-width="2.75" stroke-linejoin="bevel" points="1985.5,951.543 1985.5,1032.4"/>
<polyline class="Stem" stroke="#000000" stroke-width="2.75" stroke-linejoin="bevel" points="2266.36,982.165 2266.36,904.27"/>
<polyline class="Stem" stroke="#000000" stroke-width="2.75" stroke-linejoin="bevel" points="2411.58,951.543 2411.58,1032.4"/>
<polyline class="Stem" stroke="#000000" stroke-width="2.75" stroke-linejoin="bevel" points="2586.54,926.542 2586.54,1010.53"/>
<polyline class="Stem" stroke="#000000" stroke-width="2.75" stroke-linejoin="bevel" points="408.226,1539.08 408.226,1623.07"/>
<polyline class="Stem" stroke="#000000" stroke-width="2.75" stroke-linejoin="bevel" points="593.756,1576.58 593.756,1654.32"/>
<polyline class="Stem" stroke="#000000" stroke-width="2.75" stroke-linejoin="bevel" points="809.031,1594.7 809.031,1516.81"/>
<polyline class="Stem" stroke="#000000" stroke-width="2.75" stroke-linejoin="bevel" points="1010.57,1576.58 1010.57,1654.32"/>
<polyline class="Stem" stroke="#000000" stroke-width="2.75" stroke-linejoin="bevel" points="1219.14,1594.7 1219.14,1516.81"/>
<polyline class="Stem" stroke="#000000" stroke-width="2.75" stroke-linejoin="bevel" points="1397.96,1619.71 1397.96,1535.56"/>
<polyline class="Stem" stroke="#000000" stroke-width="2.75" stroke-linejoin="bevel" points="1642.43,1594.7 1642.43,1516.81"/>
<polyline class="Stem" stroke="#000000" stroke-width="2.75" stroke-linejoin="bevel" points="1814.54,1619.71 1814.54,1535.56"/>
<polyline class="Stem" stroke="#000000" stroke-width="2.75" stroke-linejoin="bevel" points="1986.66,1644.71 1986.66,1560.56"/>
<polyline class="Stem" stroke="#000000" stroke-width="2.75" stroke-linejoin="bevel" points="2195.77,1619.71 2195.77,1535.56"/>
<polyline class="Stem" stroke="#000000" stroke-width="2.75" stroke-linejoin="bevel" points="2385.1,1644.71 2385.1,1560.56"/>
<polyline class="Stem" stroke="#000000" stroke-width="2.75" stroke-linejoin="bevel" points="2574.42,1682.21 2574.42,1585.56"/>
<polyline class="Stem" stroke="#000000" stroke-width="2.75" stroke-linejoin="bevel" points="516.772,719.648 516.772,641.754"/>
<polyline class="Stem" stroke="#000000" stroke-width="2.75" stroke-linejoin="bevel" points="655.282,689.027 655.282,769.887"/>
<polyline class="Stem" stroke="#000000" stroke-width="2.75" stroke-linejoin="bevel" points="823.536,664.025 823.536,748.01"/>
<polyline class="Stem" stroke="#000000" stroke-width="2.75" stroke-linejoin="bevel" points="1041.29,689.027 1041.29,769.887"/>
<polyline class="Stem" stroke="#000000" stroke-width="2.75" stroke-linejoin="bevel" points="1220.05,664.025 1220.05,748.01"/>
<polyline class="Stem" stroke="#000000" stroke-width="2.75" stroke-linejoin="bevel" points="1398.81,639.023 1398.81,723.009"/>
<polyline class="Stem" stroke="#000000" stroke-width="2.75" stroke-linejoin="bevel" points="1614.57,664.025 1614.57,748.01"/>
<polyline class="Stem" stroke="#000000" stroke-width="2.75" stroke-linejoin="bevel" points="1800.03,639.023 1800.03,723.009"/>
<polyline class="Stem" stroke="#000000" stroke-width="2.75" stroke-linejoin="bevel" points="1985.5,601.521 1985.5,710.508"/>
<polyline class="Stem" stroke="#000000" stroke-width="2.75" stroke-linejoin="bevel" points="2236.62,639.023 2236.62,723.009"/>
<polyline class="Stem" stroke="#000000" stroke-width="2.75" stroke-linejoin="bevel" points="2411.58,601.521 2411.58,710.508"/>
<polyline class="Stem" stroke="#000000" stroke-width="2.75" stroke-linejoin="bevel" points="2586.54,576.519 2586.54,710.508"/>
<polyline class="Stem" stroke="#000000" stroke-width="2.75" stroke-linejoin="bevel" points="408.226,1189.06 408.226,1323.05"/>
<polyline class="Stem" stroke="#000000" stroke-width="2.75" stroke-linejoin="bevel" points="593.756,1226.56 593.756,1323.05"/>
<polyline class="Stem" stroke="#000000" stroke-width="2.75" stroke-linejoin="bevel" points="779.287,1251.56 779.287,1335.55"/>
<polyline class="Stem" stroke="#000000" stroke-width="2.75" stroke-linejoin="bevel" points="1010.57,1226.56 1010.57,1323.05"/>
<polyline class="Stem" stroke="#000000" stroke-width="2.75" stroke-linejoin="bevel" points="1189.39,1251.56 1189.39,1335.55"/>
<polyline class="Stem" stroke="#000000" stroke-width="2.75" stroke-linejoin="bevel" points="1368.21,1276.56 1368.21,1360.55"/>
<polyline class="Stem" stroke="#000000" stroke-width="2.75" stroke-linejoin="bevel" points="1612.69,1251.56 1612.69,1335.55"/>
<polyline class="Stem" stroke="#000000" stroke-width="2.75" stroke-linejoin="bevel" points="1784.8,1276.56 1784.8,1360.55"/>
<polyline class="Stem" stroke="#000000" stroke-width="2.75" stroke-linejoin="bevel" points="1956.91,1301.57 1956.91,1382.43"/>
<polyline class="Stem" stroke="#000000" stroke-width="2.75" stroke-linejoin="bevel" points="2166.03,1276.56 2166.03,1360.55"/>
<polyline class="Stem" stroke="#000000" stroke-width="2.75" stroke-linejoin="bevel" points="2355.35,1301.57 2355.35,1382.43"/>
<polyline class="Stem" stroke="#000000" stroke-width="2.75" stroke-linejoin="bevel" points="2574.42,1332.19 2574.42,1254.29"/>
<path class="Note" d="M517.153,914.821 C515.653,912.121 512.753,910.421 508.853,910.021 C508.253,909.921 507.753,909.921 507.153,909.921 C503.653,909.921 499.853,910.921 496.353,912.821 C489.753,916.421 485.653,922.321 485.653,927.421 C485.653,928.821 485.853,930.121 486.553,931.321 C488.053,934.021 491.053,935.721 494.953,936.121 C495.553,936.221 496.053,936.221 496.653,936.221 C500.153,936.221 503.853,935.221 507.353,933.321 C513.953,929.721 518.153,923.921 518.153,918.821 C518.153,917.421 517.853,916.021 517.153,914.821"/>
<path class="Note" d="M685.407,877.319 C683.907,874.619 681.007,872.919 677.107,872.519 C676.507,872.419 676.007,872.419 675.407,872.419 C671.907,872.419 668.107,873.419 664.607,875.319 C658.007,878.919 653.907,884.819 653.907,889.919 C653.907,891.319 654.107,892.619 654.807,893.819 C656.307,896.519 659.307,898.219 663.207,898.619 C663.807,898.719 664.307,898.719 664.907,898.719 C668.407,898.719 672.107,897.719 675.607,895.819 C682.207,892.219 686.407,886.419 686.407,881.319 C686.407,879.919 686.107,878.519 685.407,877.319"/>
<path class="Note" d="M853.661,852.317 C852.161,849.617 849.261,847.917 845.361,847.517 C844.761,847.417 844.261,847.417 843.661,847.417 C840.161,847.417 836.361,848.417 832.861,850.317 C826.261,853.917 822.161,859.817 822.161,864.917 C822.161,866.317 822.361,867.617 823.061,868.817 C824.561,871.517 827.561,873.217 831.461,873.617 C832.061,873.717 832.561,873.717 833.161,873.717 C836.661,873.717 840.361,872.717 843.861,870.817 C850.461,867.217 854.661,861.417 854.661,856.317 C854.661,854.917 854.361,853.517 853.661,852.317"/>
<path class="Note" d="M1071.42,1027.33 C1069.92,1024.63 1067.02,1022.93 1063.12,1022.53 C1062.52,1022.43 1062.02,1022.43 1061.42,1022.43 C1057.92,1022.43 1054.12,1023.43 1050.62,1025.33 C1044.02,1028.93 1039.92,1034.83 1039.92,1039.93 C1039.92,1041.33 1040.12,1042.63 1040.82,1043.83 C1042.32,1046.53 1045.32,1048.23 1049.22,1048.63 C1049.82,1048.73 1050.32,1048.73 1050.92,1048.73 C1054.42,1048.73 1058.12,1047.73 1061.62,1045.83 C1068.22,1042.23 1072.42,1036.43 1072.42,1031.33 C1072.42,1029.93 1072.12,1028.53 1071.42,1027.33"/>
<path class="Note" d="M1250.17,1002.33 C1248.67,999.627 1245.77,997.927 1241.87,997.527 C1241.27,997.427 1240.77,997.427 1240.17,997.427 C1236.67,997.427 1232.87,998.427 1229.37,1000.33 C1222.77,1003.93 1218.67,1009.83 1218.67,1014.93 C1218.67,1016.33 1218.87,1017.63 1219.57,1018.83 C1221.07,1021.53 1224.07,1023.23 1227.97,1023.63 C1228.57,1023.73 1229.07,1023.73 1229.67,1023.73 C1233.17,1023.73 1236.87,1022.73 1240.37,1020.83 C1246.97,1017.23 1251.17,1011.43 1251.17,1006.33 C1251.17,1004.93 1250.87,1003.53 1250.17,1002.33"/>
<path class="Note" d="M1428.93,977.325 C1427.43,974.625 1424.53,972.925 1420.63,972.525 C1420.03,972.425 1419.53,972.425 1418.93,972.425 C1415.43,972.425 1411.63,973.425 1408.13,975.325 C1401.53,978.925 1397.43,984.825 1397.43,989.925 C1397.43,991.325 1397.63,992.625 1398.33,993.825 C1399.83,996.525 1402.83,998.225 1406.73,998.625 C1407.33,998.725 1407.83,998.725 1408.43,998.725 C1411.93,998.725 1415.63,997.725 1419.13,995.825 C1425.73,992.225 1429.93,986.425 1429.93,981.325 C1429.93,979.925 1429.63,978.525 1428.93,977.325"/>
<path class="Note" d="M1644.69,1002.33 C1643.19,999.627 1640.29,997.927 1636.39,997.527 C1635.79,997.427 1635.29,997.427 1634.69,997.427 C1631.19,997.427 1627.39,998.427 1623.89,1000.33 C1617.29,1003.93 1613.19,1009.83 1613.19,1014.93 C1613.19,1016.33 1613.39,1017.63 1614.09,1018.83 C1615.59,1021.53 1618.59,1023.23 1622.49,1023.63 C1623.09,1023.73 1623.59,1023.73 1624.19,1023.73 C1627.69,1023.73 1631.39,1022.73 1634.89,1020.83 C1641.49,1017.23 1645.69,1011.43 1645.69,1006.33 C1645.69,1004.93 1645.39,1003.53 1644.69,1002.33"/>
<path class="Note" d="M1830.16,977.325 C1828.66,974.625 1825.76,972.925 1821.86,972.525 C1821.26,972.425 1820.76,972.425 1820.16,972.425 C1816.66,972.425 1812.86,973.425 1809.36,975.325 C1802.76,978.925 1798.66,984.825 1798.66,989.925 C1798.66,991.325 1798.86,992.625 1799.56,993.825 C1801.06,996.525 1804.06,998.225 1807.96,998.625 C1808.56,998.725 1809.06,998.725 1809.66,998.725 C1813.16,998.725 1816.86,997.725 1820.36,995.825 C1826.96,992.225 1831.16,986.425 1831.16,981.325 C1831.16,979.925 1830.86,978.525 1830.16,977.325"/>
<path class="Note" d="M2015.62,939.823 C2014.12,937.123 2011.22,935.423 2007.32,935.023 C2006.72,934.923 2006.22,934.923 2005.62,934.923 C2002.12,934.923 1998.32,935.923 1994.82,937.823 C1988.22,941.423 1984.12,947.323 1984.12,952.423 C1984.12,953.823 1984.32,955.123 1985.02,956.323 C1986.52,959.023 1989.52,960.723 1993.42,961.123 C1994.02,961.223 1994.52,961.223 1995.12,961.223 C1998.62,961.223 2002.32,960.223 2005.82,958.323 C2012.42,954.723 2016.62,948.923 2016.62,943.823 C2016.62,942.423 2016.32,941.023 2015.62,939.823"/>
<path class="Note" d="M2266.74,977.325 C2265.24,974.625 2262.34,972.925 2258.44,972.525 C2257.84,972.425 2257.34,972.425 2256.74,972.425 C2253.24,972.425 2249.44,973.425 2245.94,975.325 C2239.34,978.925 2235.24,984.825 2235.24,989.925 C2235.24,991.325 2235.44,992.625 2236.14,993.825 C2237.64,996.525 2240.64,998.225 2244.54,998.625 C2245.14,998.725 2245.64,998.725 2246.24,998.725 C2249.74,998.725 2253.44,997.725 2256.94,995.825 C2263.54,992.225 2267.74,986.425 2267.74,981.325 C2267.74,979.925 2267.44,978.525 2266.74,977.325"/>
<path class="Note" d="M2441.71,939.823 C2440.21,937.123 2437.31,935.423 2433.41,935.023 C2432.81,934.923 2432.31,934.923 2431.71,934.923 C2428.21,934.923 2424.41,935.923 2420.91,937.823 C2414.31,941.423 2410.21,947.323 2410.21,952.423 C2410.21,953.823 2410.41,955.123 2411.11,956.323 C2412.61,959.023 2415.61,960.723 2419.51,961.123 C2420.11,961.223 2420.61,961.223 2421.21,961.223 C2424.71,961.223 2428.41,960.223 2431.91,958.323 C2438.51,954.723 2442.71,948.923 2442.71,943.823 C2442.71,942.423 2442.41,941.023 2441.71,939.823"/>
<path class="Note" d="M2616.67,914.821 C2615.17,912.121 2612.27,910.421 2608.37,910.021 C2607.77,909.921 2607.27,909.921 2606.67,909.921 C2603.17,909.921 2599.37,910.921 2595.87,912.821 C2589.27,916.421 2585.17,922.321 2585.17,927.421 C2585.17,928.821 2585.37,930.121 2586.07,931.321 C2587.57,934.021 2590.57,935.721 2594.47,936.121 C2595.07,936.221 2595.57,936.221 2596.17,936.221 C2599.67,936.221 2603.37,935.221 2606.87,933.321 C2613.47,929.721 2617.67,923.921 2617.67,918.821 C2617.67,917.421 2617.37,916.021 2616.67,914.821"/>
<path class="Note" d="M438.351,1527.36 C436.851,1524.66 433.951,1522.96 430.051,1522.56 C429.451,1522.46 428.951,1522.46 428.351,1522.46 C424.851,1522.46 421.051,1523.46 417.551,1525.36 C410.951,1528.96 406.851,1534.86 406.851,1539.96 C406.851,1541.36 407.051,1542.66 407.751,1543.86 C409.251,1546.56 412.251,1548.26 416.151,1548.66 C416.751,1548.76 417.251,1548.76 417.851,1548.76 C421.351,1548.76 425.051,1547.76 428.551,1545.86 C435.151,1542.26 439.351,1536.46 439.351,1531.36 C439.351,1529.96 439.051,1528.56 438.351,1527.36"/>
<path class="Note" d="M623.881,1564.86 C622.381,1562.16 619.481,1560.46 615.581,1560.06 C614.981,1559.96 614.481,1559.96 613.881,1559.96 C610.381,1559.96 606.581,1560.96 603.081,1562.86 C596.481,1566.46 592.381,1572.36 592.381,1577.46 C592.381,1578.86 592.581,1580.16 593.281,1581.36 C594.781,1584.06 597.781,1585.76 601.681,1586.16 C602.281,1586.26 602.781,1586.26 603.381,1586.26 C606.881,1586.26 610.581,1585.26 614.081,1583.36 C620.681,1579.76 624.881,1573.96 624.881,1568.86 C624.881,1567.46 624.581,1566.06 623.881,1564.86"/>
<path class="Note" d="M809.412,1589.86 C807.912,1587.16 805.012,1585.46 801.112,1585.06 C800.512,1584.96 800.012,1584.96 799.412,1584.96 C795.912,1584.96 792.112,1585.96 788.612,1587.86 C782.012,1591.46 777.912,1597.36 777.912,1602.46 C777.912,1603.86 778.112,1605.16 778.812,1606.36 C780.312,1609.06 783.312,1610.76 787.212,1611.16 C787.812,1611.26 788.312,1611.26 788.912,1611.26 C792.412,1611.26 796.112,1610.26 799.612,1608.36 C806.212,1604.76 810.412,1598.96 810.412,1593.86 C810.412,1592.46 810.112,1591.06 809.412,1589.86"/>
<path class="Note" d="M1040.7,1564.86 C1039.2,1562.16 1036.3,1560.46 1032.4,1560.06 C1031.8,1559.96 1031.3,1559.96 1030.7,1559.96 C1027.2,1559.96 1023.4,1560.96 1019.9,1562.86 C1013.3,1566.46 1009.2,1572.36 1009.2,1577.46 C1009.2,1578.86 1009.4,1580.16 1010.1,1581.36 C1011.6,1584.06 1014.6,1585.76 1018.5,1586.16 C1019.1,1586.26 1019.6,1586.26 1020.2,1586.26 C1023.7,1586.26 1027.4,1585.26 1030.9,1583.36 C1037.5,1579.76 1041.7,1573.96 1041.7,1568.86 C1041.7,1567.46 1041.4,1566.06 1040.7,1564.86"/>
<path class="Note" d="M1219.52,1589.86 C1218.02,1587.16 1215.12,1585.46 1211.22,1585.06 C1210.62,1584.96 1210.12,1584.96 1209.52,1584.96 C1206.02,1584.96 1202.22,1585.96 1198.72,1587.86 C1192.12,1591.46 1188.02,1597.36 1188.02,1602.46 C1188.02,1603.86 1188.22,1605.16 1188.92,1606.36 C1190.42,1609.06 1193.42,1610.76 1197.32,1611.16 C1197.92,1611.26 1198.42,1611.26 1199.02,1611.26 C1202.52,1611.26 1206.22,1610.26 1209.72,1608.36 C1216.32,1604.76 1220.52,1598.96 1220.52,1593.86 C1220.52,1592.46 1220.22,1591.06 1219.52,1589.86"/>
<path class="Note" d="M1398.34,1614.87 C1396.84,1612.17 1393.94,1610.47 1390.04,1610.07 C1389.44,1609.97 1388.94,1609.97 1388.34,1609.97 C1384.84,1609.97 1381.04,1610.97 1377.54,1612.87 C1370.94,1616.47 1366.84,1622.37 1366.84,1627.47 C1366.84,1628.87 1367.04,1630.17 1367.74,1631.37 C1369.24,1634.07 1372.24,1635.77 1376.14,1636.17 C1376.74,1636.27 1377.24,1636.27 1377.84,1636.27 C1381.34,1636.27 1385.04,1635.27 1388.54,1633.37 C1395.14,1629.77 1399.34,1623.97 1399.34,1618.87 C1399.34,1617.47 1399.04,1616.07 1398.34,1614.87"/>
<path class="Note" d="M1642.81,1589.86 C1641.31,1587.16 1638.41,1585.46 1634.51,1585.06 C1633.91,1584.96 1633.41,1584.96 1632.81,1584.96 C1629.31,1584.96 1625.51,1585.96 1622.01,1587.86 C1615.41,1591.46 1611.31,1597.36 1611.31,1602.46 C1611.31,1603.86 1611.51,1605.16 1612.21,1606.36 C1613.71,1609.06 1616.71,1610.76 1620.61,1611.16 C1621.21,1611.26 1621.71,1611.26 1622.31,1611.26 C1625.81,1611.26 1629.51,1610.26 1633.01,1608.36 C1639.61,1604.76 1643.81,1598.96 1643.81,1593.86 C1643.81,1592.46 1643.51,1591.06 1642.81,1589.86"/>
<path class="Note" d="M1814.93,1614.87 C1813.43,1612.17 1810.53,1610.47 1806.63,1610.07 C1806.03,1609.97 1805.53,1609.97 1804.93,1609.97 C1801.43,1609.97 1797.63,1610.97 1794.13,1612.87 C1787.53,1616.47 1783.43,1622.37 1783.43,1627.47 C1783.43,1628.87 1783.63,1630.17 1784.33,1631.37 C1785.83,1634.07 1788.83,1635.77 1792.73,1636.17 C1793.33,1636.27 1793.83,1636.27 1794.43,1636.27 C1797.93,1636.27 1801.63,1635.27 1805.13,1633.37 C1811.73,1629.77 1815.93,1623.97 1815.93,1618.87 C1815.93,1617.47 1815.63,1616.07 1814.93,1614.87"/>
<path class="Note" d="M1987.04,1639.87 C1985.54,1637.17 1982.64,1635.47 1978.74,1635.07 C1978.14,1634.97 1977.64,1634.97 1977.04,1634.97 C1973.54,1634.97 1969.74,1635.97 1966.24,1637.87 C1959.64,1641.47 1955.54,1647.37 1955.54,1652.47 C1955.54,1653.87 1955.74,1655.17 1956.44,1656.37 C1957.94,1659.07 1960.94,1660.77 1964.84,1661.17 C1965.44,1661.27 1965.94,1661.27 1966.54,1661.27 C1970.04,1661.27 1973.74,1660.27 1977.24,1658.37 C1983.84,1654.77 1988.04,1648.97 1988.04,1643.87 C1988.04,1642.47 1987.74,1641.07 1987.04,1639.87"/>
<path class="Note" d="M2196.15,1614.87 C2194.65,1612.17 2191.75,1610.47 2187.85,1610.07 C2187.25,1609.97 2186.75,1609.97 2186.15,1609.97 C2182.65,1609.97 2178.85,1610.97 2175.35,1612.87 C2168.75,1616.47 2164.65,1622.37 2164.65,1627.47 C2164.65,1628.87 2164.85,1630.17 2165.55,1631.37 C2167.05,1634.07 2170.05,1635.77 2173.95,1636.17 C2174.55,1636.27 2175.05,1636.27 2175.65,1636.27 C2179.15,1636.27 2182.85,1635.27 2186.35,1633.37 C2192.95,1629.77 2197.15,1623.97 2197.15,1618.87 C2197.15,1617.47 2196.85,1616.07 2196.15,1614.87"/>
<path class="Note" d="M2385.48,1639.87 C2383.98,1637.17 2381.08,1635.47 2377.18,1635.07 C2376.58,1634.97 2376.08,1634.97 2375.48,1634.97 C2371.98,1634.97 2368.18,1635.97 2364.68,1637.87 C2358.08,1641.47 2353.98,1647.37 2353.98,1652.47 C2353.98,1653.87 2354.18,1655.17 2354.88,1656.37 C2356.38,1659.07 2359.38,1660.77 2363.28,1661.17 C2363.88,1661.27 2364.38,1661.27 2364.98,1661.27 C2368.48,1661.27 2372.18,1660.27 2375.68,1658.37 C2382.28,1654.77 2386.48,1648.97 2386.48,1643.87 C2386.48,1642.47 2386.18,1641.07 2385.48,1639.87"/>
<path class="Note" d="M2574.8,1677.37 C2573.3,1674.67 2570.4,1672.97 2566.5,1672.57 C2565.9,1672.47 2565.4,1672.47 2564.8,1672.47 C2561.3,1672.47 2557.5,1673.47 2554,1675.37 C2547.4,1678.97 2543.3,1684.87 2543.3,1689.97 C2543.3,1691.37 2543.5,1692.67 2544.2,1693.87 C2545.7,1696.57 2548.7,1698.27 2552.6,1698.67 C2553.2,1698.77 2553.7,1698.77 2554.3,1698.77 C2557.8,1698.77 2561.5,1697.77 2565,1695.87 C2571.6,1692.27 2575.8,1686.47 2575.8,1681.37 C2575.8,1679.97 2575.5,1678.57 2574.8,1677.37"/>
<path class="Note" d="M517.153,714.809 C515.653,712.109 512.753,710.409 508.853,710.009 C508.253,709.909 507.753,709.909 507.153,709.909 C503.653,709.909 499.853,710.909 496.353,712.809 C489.753,716.409 485.653,722.309 485.653,727.409 C485.653,728.809 485.853,730.109 486.553,731.309 C488.053,734.009 491.053,735.709 494.953,736.109 C495.553,736.209 496.053,736.209 496.653,736.209 C500.153,736.209 503.853,735.209 507.353,733.309 C513.953,729.709 518.153,723.909 518.153,718.809 C518.153,717.409 517.853,716.009 517.153,714.809"/>
<path class="Note" d="M685.407,677.306 C683.907,674.606 681.007,672.906 677.107,672.506 C676.507,672.406 676.007,672.406 675.407,672.406 C671.907,672.406 668.107,673.406 664.607,675.306 C658.007,678.906 653.907,684.806 653.907,689.906 C653.907,691.306 654.107,692.606 654.807,693.806 C656.307,696.506 659.307,698.206 663.207,698.606 C663.807,698.706 664.307,698.706 664.907,698.706 C668.407,698.706 672.107,697.706 675.607,695.806 C682.207,692.206 686.407,686.406 686.407,681.306 C686.407,679.906 686.107,678.506 685.407,677.306"/>
<path class="Note" d="M853.661,652.305 C852.161,649.605 849.261,647.905 845.361,647.505 C844.761,647.405 844.261,647.405 843.661,647.405 C840.161,647.405 836.361,648.405 832.861,650.305 C826.261,653.905 822.161,659.805 822.161,664.905 C822.161,666.305 822.361,667.605 823.061,668.805 C824.561,671.505 827.561,673.205 831.461,673.605 C832.061,673.705 832.561,673.705 833.161,673.705 C836.661,673.705 840.361,672.705 843.861,670.805 C850.461,667.205 854.661,661.405 854.661,656.305 C854.661,654.905 854.361,653.505 853.661,652.305"/>
<path class="Note" d="M1071.42,677.306 C1069.92,674.606 1067.02,672.906 1063.12,672.506 C1062.52,672.406 1062.02,672.406 1061.42,672.406 C1057.92,672.406 1054.12,673.406 1050.62,675.306 C1044.02,678.906 1039.92,684.806 1039.92,689.906 C1039.92,691.306 1040.12,692.606 1040.82,693.806 C1042.32,696.506 1045.32,698.206 1049.22,698.606 C1049.82,698.706 1050.32,698.706 1050.92,698.706 C1054.42,698.706 1058.12,697.706 1061.62,695.806 C1068.22,692.206 1072.42,686.406 1072.42,681.306 C1072.42,679.906 1072.12,678.506 1071.42,677.306"/>
<path class="Note" d="M1250.17,652.305 C1248.67,649.605 1245.77,647.905 1241.87,647.505 C1241.27,647.405 1240.77,647.405 1240.17,647.405 C1236.67,647.405 1232.87,648.405 1229.37,650.305 C1222.77,653.905 1218.67,659.805 1218.67,664.905 C1218.67,666.305 1218.87,667.605 1219.57,668.805 C1221.07,671.505 1224.07,673.205 1227.97,673.605 C1228.57,673.705 1229.07,673.705 1229.67,673.705 C1233.17,673.705 1236.87,672.705 1240.37,670.805 C1246.97,667.205 1251.17,661.405 1251.17,656.305 C1251.17,654.905 1250.87,653.505 1250.17,652.305"/>
<path class="Note" d="M1428.93,627.303 C1427.43,624.603 1424.53,622.903 1420.63,622.503 C1420.03,622.403 1419.53,622.403 1418.93,622.403 C1415.43,622.403 1411.63,623.403 1408.13,625.303 C1401.53,628.903 1397.43,634.803 1397.43,639.903 C1397.43,641.303 1397.63,642.603 1398.33,643.803 C1399.83,646.503 1402.83,648.203 1406.73,648.603 C1407.33,648.703 1407.83,648.703 1408.43,648.703 C1411.93,648.703 1415.63,647.703 1419.13,645.803 C1425.73,642.203 1429.93,636.403 1429.93,631.303 C1429.93,629.903 1429.63,628.503 1428.93,627.303"/>
<path class="Note" d="M1644.69,652.305 C1643.19,649.605 1640.29,647.905 1636.39,647.505 C1635.79,647.405 1635.29,647.405 1634.69,647.405 C1631.19,647.405 1627.39,648.405 1623.89,650.305 C1617.29,653.905 1613.19,659.805 1613.19,664.905 C1613.19,666.305 1613.39,667.605 1614.09,668.805 C1615.59,671.505 1618.59,673.205 1622.49,673.605 C1623.09,673.705 1623.59,673.705 1624.19,673.705 C1627.69,673.705 1631.39,672.705 1634.89,670.805 C1641.49,667.205 1645.69,661.405 1645.69,656.305 C1645.69,654.905 1645.39,653.505 1644.69,652.305"/>
<path class="Note" d="M1830.16,627.303 C1828.66,624.603 1825.76,622.903 1821.86,622.503 C1821.26,622.403 1820.76,622.403 1820.16,622.403 C1816.66,622.403 1812.86,623.403 1809.36,625.303 C1802.76,628.903 1798.66,634.803 1798.66,639.903 C1798.66,641.303 1798.86,642.603 1799.56,643.803 C1801.06,646.503 1804.06,648.203 1807.96,648.603 C1808.56,648.703 1809.06,648.703 1809.66,648.703 C1813.16,648.703 1816.86,647.703 1820.36,645.803 C1826.96,642.203 1831.16,636.403 1831.16,631.303 C1831.16,629.903 1830.86,628.503 1830.16,627.303"/>
<path class="Note" d="M2015.62,589.801 C2014.12,587.101 2011.22,585.401 2007.32,585.001 C2006.72,584.901 2006.22,584.901 2005.62,584.901 C2002.12,584.901 1998.32,585.901 1994.82,587.801 C1988.22,591.401 1984.12,597.301 1984.12,602.401 C1984.12,603.801 1984.32,605.101 1985.02,606.301 C1986.52,609.001 1989.52,610.701 1993.42,611.101 C1994.02,611.201 1994.52,611.201 1995.12,611.201 C1998.62,611.201 2002.32,610.201 2005.82,608.301 C2012.42,604.701 2016.62,598.901 2016.62,593.801 C2016.62,592.401 2016.32,591.001 2015.62,589.801"/>
<path class="Note" d="M2266.74,627.303 C2265.24,624.603 2262.34,622.903 2258.44,622.503 C2257.84,622.403 2257.34,622.403 2256.74,622.403 C2253.24,622.403 2249.44,623.403 2245.94,625.303 C2239.34,628.903 2235.24,634.803 2235.24,639.903 C2235.24,641.303 2235.44,642.603 2236.14,643.803 C2237.64,646.503 2240.64,648.203 2244.54,648.603 C2245.14,648.703 2245.64,648.703 2246.24,648.703 C2249.74,648.703 2253.44,647.703 2256.94,645.803 C2263.54,642.203 2267.74,636.403 2267.74,631.303 C2267.74,629.903 2267.44,628.503 2266.74,627.303"/>
<path class="Note" d="M2441.71,589.801 C2440.21,587.101 2437.31,585.401 2433.41,585.001 C2432.81,584.901 2432.31,584.901 2431.71,584.901 C2428.21,584.901 2424.41,585.901 2420.91,587.801 C2414.31,591.401 2410.21,597.301 2410.21,602.401 C2410.21,603.801 2410.41,605.101 2411.11,606.301 C2412.61,609.001 2415.61,610.701 2419.51,611.101 C2420.11,611.201 2420.61,611.201 2421.21,611.201 C2424.71,611.201 2428.41,610.201 2431.91,608.301 C2438.51,604.701 2442.71,598.901 2442.71,593.801 C2442.71,592.401 2442.41,591.001 2441.71,589.801"/>
<path class="Note" d="M2616.67,564.799 C2615.17,562.099 2612.27,560.399 2608.37,559.999 C2607.77,559.899 2607.27,559.899 2606.67,559.899 C2603.17,559.899 2599.37,560.899 2595.87,562.799 C2589.27,566.399 2585.17,572.299 2585.17,577.399 C2585.17,578.799 2585.37,580.099 2586.07,581.299 C2587.57,583.999 2590.57,585.699 2594.47,586.099 C2595.07,586.199 2595.57,586.199 2596.17,586.199 C2599.67,586.199 2603.37,585.199 2606.87,583.299 C2613.47,579.699 2617.67,573.899 2617.67,568.799 C2617.67,567.399 2617.37,565.999 2616.67,564.799"/>
<path class="Note" d="M438.351,1177.34 C436.851,1174.64 433.951,1172.94 430.051,1172.54 C429.451,1172.44 428.951,1172.44 428.351,1172.44 C424.851,1172.44 421.051,1173.44 417.551,1175.34 C410.951,1178.94 406.851,1184.84 406.851,1189.94 C406.851,1191.34 407.051,1192.64 407.751,1193.84 C409.251,1196.54 412.251,1198.24 416.151,1198.64 C416.751,1198.74 417.251,1198.74 417.851,1198.74 C421.351,1198.74 425.051,1197.74 428.551,1195.84 C435.151,1192.24 439.351,1186.44 439.351,1181.34 C439.351,1179.94 439.051,1178.54 438.351,1177.34"/>
<path class="Note" d="M623.881,1214.84 C622.381,1212.14 619.481,1210.44 615.581,1210.04 C614.981,1209.94 614.481,1209.94 613.881,1209.94 C610.381,1209.94 606.581,1210.94 603.081,1212.84 C596.481,1216.44 592.381,1222.34 592.381,1227.44 C592.381,1228.84 592.581,1230.14 593.281,1231.34 C594.781,1234.04 597.781,1235.74 601.681,1236.14 C602.281,1236.24 602.781,1236.24 603.381,1236.24 C606.881,1236.24 610.581,1235.24 614.081,1233.34 C620.681,1229.74 624.881,1223.94 624.881,1218.84 C624.881,1217.44 624.581,1216.04 623.881,1214.84"/>
<path class="Note" d="M809.412,1239.84 C807.912,1237.14 805.012,1235.44 801.112,1235.04 C800.512,1234.94 800.012,1234.94 799.412,1234.94 C795.912,1234.94 792.112,1235.94 788.612,1237.84 C782.012,1241.44 777.912,1247.34 777.912,1252.44 C777.912,1253.84 778.112,1255.14 778.812,1256.34 C780.312,1259.04 783.312,1260.74 787.212,1261.14 C787.812,1261.24 788.312,1261.24 788.912,1261.24 C792.412,1261.24 796.112,1260.24 799.612,1258.34 C806.212,1254.74 810.412,1248.94 810.412,1243.84 C810.412,1242.44 810.112,1241.04 809.412,1239.84"/>
<path class="Note" d="M1040.7,1214.84 C1039.2,1212.14 1036.3,1210.44 1032.4,1210.04 C1031.8,1209.94 1031.3,1209.94 1030.7,1209.94 C1027.2,1209.94 1023.4,1210.94 1019.9,1212.84 C1013.3,1216.44 1009.2,1222.34 1009.2,1227.44 C1009.2,1228.84 1009.4,1230.14 1010.1,1231.34 C1011.6,1234.04 1014.6,1235.74 1018.5,1236.14 C1019.1,1236.24 1019.6,1236.24 1020.2,1236.24 C1023.7,1236.24 1027.4,1235.24 1030.9,1233.34 C1037.5,1229.74 1041.7,1223.94 1041.7,1218.84 C1041.7,1217.44 1041.4,1216.04 1040.7,1214.84"/>
<path class="Note" d="M1219.52,1239.84 C1218.02,1237.14 1215.12,1235.44 1211.22,1235.04 C1210.62,1234.94 1210.12,1234.94 1209.52,1234.94 C1206.02,1234.94 1202.22,1235.94 1198.72,1237.84 C1192.12,1241.44 1188.02,1247.34 1188.02,1252.44 C1188.02,1253.84 1188.22,1255.14 1188.92,1256.34 C1190.42,1259.04 1193.42,1260.74 1197.32,1261.14 C1197.92,1261.24 1198.42,1261.24 1199.02,1261.24 C1202.52,1261.24 1206.22,1260.24 1209.72,1258.34 C1216.32,1254.74 1220.52,1248.94 1220.52,1243.84 C1220.52,1242.44 1220.22,1241.04 1219.52,1239.84"/>
<path class="Note" d="M1398.34,1264.84 C1396.84,1262.14 1393.94,1260.44 1390.04,1260.04 C1389.44,1259.94 1388.94,1259.94 1388.34,1259.94 C1384.84,1259.94 1381.04,1260.94 1377.54,1262.84 C1370.94,1266.44 1366.84,1272.34 1366.84,1277.44 C1366.84,1278.84 1367.04,1280.14 1367.74,1281.34 C1369.24,1284.04 1372.24,1285.74 1376.14,1286.14 C1376.74,1286.24 1377.24,1286.24 1377.84,1286.24 C1381.34,1286.24 1385.04,1285.24 1388.54,1283.34 C1395.14,1279.74 1399.34,1273.94 1399.34,1268.84 C1399.34,1267.44 1399.04,1266.04 1398.34,1264.84"/>
<path class="Note" d="M1642.81,1239.84 C1641.31,1237.14 1638.41,1235.44 1634.51,1235.04 C1633.91,1234.94 1633.41,1234.94 1632.81,1234.94 C1629.31,1234.94 1625.51,1235.94 1622.01,1237.84 C1615.41,1241.44 1611.31,1247.34 1611.31,1252.44 C1611.31,1253.84 1611.51,1255.14 1612.21,1256.34 C1613.71,1259.04 1616.71,1260.74 1620.61,1261.14 C1621.21,1261.24 1621.71,1261.24 1622.31,1261.24 C1625.81,1261.24 1629.51,1260.24 1633.01,1258.34 C1639.61,1254.74 1643.81,1248.94 1643.81,1243.84 C1643.81,1242.44 1643.51,1241.04 1642.81,1239.84"/>
<path class="Note" d="M1814.93,1264.84 C1813.43,1262.14 1810.53,1260.44 1806.63,1260.04 C1806.03,1259.94 1805.53,1259.94 1804.93,1259.94 C1801.43,1259.94 1797.63,1260.94 1794.13,1262.84 C1787.53,1266.44 1783.43,1272.34 1783.43,1277.44 C1783.43,1278.84 1783.63,1280.14 1784.33,1281.34 C1785.83,1284.04 1788.83,1285.74 1792.73,1286.14 C1793.33,1286.24 1793.83,1286.24 1794.43,1286.24 C1797.93,1286.24 1801.63,1285.24 1805.13,1283.34 C1811.73,1279.74 1815.93,1273.94 1815.93,1268.84 C1815.93,1267.44 1815.63,1266.04 1814.93,1264.84"/>
<path class="Note" d="M1987.04,1289.84 C1985.54,1287.14 1982.64,1285.44 1978.74,1285.04 C1978.14,1284.94 1977.64,1284.94 1977.04,1284.94 C1973.54,1284.94 1969.74,1285.94 1966.24,1287.84 C1959.64,1291.44 1955.54,1297.34 1955.54,1302.44 C1955.54,1303.84 1955.74,1305.14 1956.44,1306.34 C1957.94,1309.04 1960.94,1310.74 1964.84,1311.14 C1965.44,1311.24 1965.94,1311.24 1966.54,1311.24 C1970.04,1311.24 1973.74,1310.24 1977.24,1308.34 C1983.84,1304.74 1988.04,1298.94 1988.04,1293.84 C1988.04,1292.44 1987.74,1291.04 1987.04,1289.84"/>
<path class="Note" d="M2196.15,1264.84 C2194.65,1262.14 2191.75,1260.44 2187.85,1260.04 C2187.25,1259.94 2186.75,1259.94 2186.15,1259.94 C2182.65,1259.94 2178.85,1260.94 2175.35,1262.84 C2168.75,1266.44 2164.65,1272.34 2164.65,1277.44 C2164.65,1278.84 2164.85,1280.14 2165.55,1281.34 C2167.05,1284.04 2170.05,1285.74 2173.95,1286.14 C2174.55,1286.24 2175.05,1286.24 2175.65,1286.24 C2179.15,1286.24 2182.85,1285.24 2186.35,1283.34 C2192.95,1279.74 2197.15,1273.94 2197.15,1268.84 C2197.15,1267.44 2196.85,1266.04 2196.15,1264.84"/>
<path class="Note" d="M2385.48,1289.84 C2383.98,1287.14 2381.08,1285.44 2377.18,1285.04 C2376.58,1284.94 2376.08,1284.94 2375.48,1284.94 C2371.98,1284.94 2368.18,1285.94 2364.68,1287.84 C2358.08,1291.44 2353.98,1297.34 2353.98,1302.44 C2353.98,1303.84 2354.18,1305.14 2354.88,1306.34 C2356.38,1309.04 2359.38,1310.74 2363.28,1311.14 C2363.88,1311.24 2364.38,1311.24 2364.98,1311.24 C2368.48,1311.24 2372.18,1310.24 2375.68,1308.34 C2382.28,1304.74 2386.48,1298.94 2386.48,1293.84 C2386.48,1292.44 2386.18,1291.04 2385.48,1289.84"/>
<path class="Note" d="M2574.8,1327.35 C2573.3,1324.65 2570.4,1322.95 2566.5,1322.55 C2565.9,1322.45 2565.4,1322.45 2564.8,1322.45 C2561.3,1322.45 2557.5,1323.45 2554,1325.35 C2547.4,1328.95 2543.3,1334.85 2543.3,1339.95 C2543.3,1341.35 2543.5,1342.65 2544.2,1343.85 C2545.7,1346.55 2548.7,1348.25 2552.6,1348.65 C2553.2,1348.75 2553.7,1348.75 2554.3,1348.75 C2557.8,1348.75 2561.5,1347.75 2565,1345.85 C2571.6,1342.25 2575.8,1336.45 2575.8,1331.35 C2575.8,1329.95 2575.5,1328.55 2574.8,1327.35"/>
<path class="Clef" d="M297,922.923 C289.4,922.923 283.3,927.323 283.2,927.323 C277.4,931.623 275.1,936.723 274.2,940.223 C273.7,942.023 273.5,943.823 273.5,945.523 C273.5,947.923 273.9,950.123 274.8,952.023 C276,954.723 278.3,956.623 281.3,957.623 C282.5,958.023 283.8,958.223 285.1,958.223 C287.3,958.223 289.6,957.623 291.5,956.523 C294.6,954.823 296.5,951.223 296.5,947.323 C296.5,943.823 294.7,940.623 291.7,938.723 C289.6,937.323 287.6,936.923 285.9,936.923 C284.7,936.923 283.6,937.123 282.7,937.423 C281.7,937.823 280,938.823 279.2,939.523 C279.5,937.623 280.7,934.723 281.8,933.123 C282.9,931.523 285.1,929.523 286.8,928.623 C289.3,927.223 292.5,926.623 296,926.623 C306.2,926.623 311.2,934.823 311.2,951.623 C311.2,960.923 307.7,969.823 304.7,975.723 C301.4,982.323 297,988.623 293.1,992.123 C282.7,1001.62 272.9,1006.12 272.8,1006.12 C272.8,1006.12 271.3,1007.02 271.7,1008.52 C272,1009.52 272.9,1009.72 273.5,1009.72 C273.6,1009.72 273.9,1009.62 274,1009.62 C274.1,1009.62 285.5,1004.92 294.6,997.823 C299.7,994.123 304.3,990.123 308.3,985.823 C311.9,981.923 315,977.723 317.5,973.523 C321.9,966.023 324.4,958.223 324.4,951.523 C324.4,943.223 322.2,936.323 318.1,931.423 C313.4,925.823 306.3,922.923 297,922.923 M328.4,935.623 C328.4,938.423 330.6,940.623 333.2,940.623 C335.8,940.623 338,938.423 338,935.623 C338,932.823 335.8,930.523 333.2,930.523 C330.6,930.523 328.4,932.823 328.4,935.623 M328.4,960.323 C328.4,963.123 330.6,965.423 333.2,965.423 C335.8,965.423 338,963.123 338,960.323 C338,957.523 335.8,955.223 333.2,955.223 C330.6,955.223 328.4,957.523 328.4,960.323"/>
<path class="Clef" transform="matrix(0.80005,0,0,0.80005,939.218,998.026)" d="M63.4,-5.9 C62.2,-11.3 59.5,-15.2 58.7,-16.2 C55.5,-20.5 51.5,-23.3 46.8,-24.7 C44.5,-25.4 42.4,-25.6 40.4,-25.6 C39.7,-25.6 39,-25.6 38.3,-25.5 C37.3,-31.5 36.2,-37.4 35.3,-42.8 C40.9,-49 44.6,-54.9 47,-59.3 C50.6,-66 52,-70.7 52.1,-70.9 C53.3,-73.9 54,-77.7 54,-82.2 C54,-84.9 53.7,-87.8 53.3,-90.8 C52.2,-97.9 50,-104.6 47.5,-108.3 C46.2,-110.2 45,-111.3 43.8,-111.3 C42.6,-111.3 40.1,-110.1 37.2,-107.3 C34.9,-105.1 31.6,-101.2 29,-95.2 C26.7,-89.8 26,-82.9 26,-77 C26,-75.2 26.1,-73.5 26.2,-71.9 C26.4,-68.3 27.1,-62.5 27.7,-58.9 C27.7,-58.8 28,-57.3 28.4,-54.7 L27.7,-54 C26.7,-53 25.5,-51.9 24.1,-50.5 C23.2,-49.6 22.3,-48.8 21.3,-47.8 C12.8,-39.6 0,-27.2 0,-8.1 C0,-3.4 0.9,1 2.7,5 C4.3,8.6 6.6,11.9 9.5,14.8 C17,22.2 27.2,25.4 34.3,25.4 L34.9,25.4 C37.8,25.3 40.5,25 42.9,24.6 C44.7,34.2 45.9,41.3 45.9,46.6 C45.9,53.1 44.3,57 40.4,59.8 C38,61.5 35.1,62.6 32,62.7 L31.2,62.7 C29.7,62.7 27.2,62.3 25.7,61.9 C25.7,61.9 25.4,61.8 25.4,61.6 C25.4,61.4 25.8,61.4 25.8,61.4 C27.7,61 31.3,59.7 33.7,56.4 C34.8,54.9 35.5,52.6 35.5,50.1 C35.5,48.5 35.2,46.8 34.5,45.3 C33.4,42.9 30.8,39.9 25.2,39.5 L24.1,39.5 C22,39.5 20.2,40 18.5,41 C16.7,42.1 15.1,43.8 14.1,45.8 C13,47.8 12.5,50 12.5,52.2 C12.5,55.1 13.4,57.8 15.2,60 C18.2,63.6 22.9,65.9 28.3,66.5 C29,66.6 30.1,66.7 30.8,66.7 C35.2,66.7 39.6,65.5 43.2,63.3 C46.9,60.7 49,56.7 49.7,51.1 C49.9,49.8 49.9,48.4 49.9,46.9 C49.9,43 49.4,38.3 48.4,32.5 C48,30.4 47.6,27.4 46.9,23.6 C52.7,21.7 56.8,18 60.6,12.2 C62.9,8.2 64,4.1 64,-0.2 C64,-2.1 63.8,-4 63.4,-5.9 M33.2,-83.8 C35,-89.5 37.7,-92.9 39.7,-94.6 C41.5,-96.1 43.1,-96.8 44,-96.8 C44.1,-96.8 44.3,-96.7 44.4,-96.7 C44.7,-96.6 45.1,-96.1 45.5,-95.4 C46.4,-93.6 47.3,-90.3 47.3,-86.6 C47.3,-84.7 47.1,-82.7 46.5,-80.9 C44.3,-74.1 39.7,-66.8 32.7,-59.1 C32.5,-60.2 32.3,-61.2 32.2,-62.2 C31.7,-65.4 31.4,-68.6 31.4,-71.5 C31.4,-76 32,-80.1 33.2,-83.8 M29.2,20.3 C24.6,19.1 20.1,16.6 16.3,13.1 C15,11.9 13.2,9.7 11.7,6.3 C10.4,3.3 9.7,0.2 9.7,-3.2 L9.7,-3.9 C9.8,-8.6 11.1,-13.4 13.6,-18.2 C16.5,-23.8 21,-29.3 27.1,-34.6 C28.6,-35.9 30,-37.2 31.3,-38.5 C32.1,-34.2 32.8,-29.5 33.7,-24.6 C29.8,-23.3 25.1,-20.3 22,-14.6 C19.6,-10.1 18.9,-6.2 18.9,-3 C18.9,-1.5 19.1,-0.1 19.3,1 C20.2,5.5 22.8,9.2 26.3,11.3 C27.1,11.8 30.4,13.5 32.4,13.5 C32.7,13.5 33,13.5 33.2,13.4 C33.5,13.3 33.8,13.1 33.9,12.8 C34,12.6 34,12.4 34,12.2 C34,11.4 33.2,10.8 31.9,10 C31.3,9.6 30.6,9.2 29.9,8.7 C27.3,6.7 25.8,3.6 25.8,0.2 C25.8,-0.8 26,-1.7 26.2,-2.7 C26.7,-4.7 28.4,-7.5 29.9,-8.9 C31.6,-10.4 33.6,-11.6 36,-12.2 C38,-1 40.1,10.1 41.7,18.5 C41.8,19.2 42,19.9 42.1,20.6 C40.1,21 38.1,21.2 36.2,21.2 C33.8,21.2 31.5,20.9 29.2,20.3 M54.9,10.1 C53.7,13.3 51.2,17.3 46.1,19.4 C46,19 46,18.5 45.9,18.1 C44.4,9.3 42.5,-1.6 40.5,-12.9 L41.5,-12.9 C51.2,-12.9 55.1,-5.7 56,-1.1 C56.2,-0.2 56.3,1 56.3,2.3 C56.3,4.6 55.9,7.4 54.9,10.1"/>
<path class="Clef" d="M335,1604.66 C333.8,1599.26 331.1,1595.36 330.3,1594.36 C327.1,1590.06 323.1,1587.26 318.4,1585.86 C316.1,1585.16 314,1584.96 312,1584.96 C311.3,1584.96 310.6,1584.96 309.9,1585.06 C308.9,1579.06 307.8,1573.16 306.9,1567.76 C312.5,1561.56 316.2,1555.66 318.6,1551.26 C322.2,1544.56 323.6,1539.86 323.7,1539.66 C324.9,1536.66 325.6,1532.86 325.6,1528.36 C325.6,1525.66 325.3,1522.76 324.9,1519.76 C323.8,1512.66 321.6,1505.96 319.1,1502.26 C317.8,1500.36 316.6,1499.26 315.4,1499.26 C314.2,1499.26 311.7,1500.46 308.8,1503.26 C306.5,1505.46 303.2,1509.36 300.6,1515.36 C298.3,1520.76 297.6,1527.66 297.6,1533.56 C297.6,1535.36 297.7,1537.06 297.8,1538.66 C298,1542.26 298.7,1548.06 299.3,1551.66 C299.3,1551.76 299.6,1553.26 300,1555.86 L299.3,1556.56 C298.3,1557.56 297.1,1558.66 295.7,1560.06 C294.8,1560.96 293.9,1561.76 292.9,1562.76 C284.4,1570.96 271.6,1583.36 271.6,1602.46 C271.6,1607.16 272.5,1611.56 274.3,1615.56 C275.9,1619.16 278.2,1622.46 281.1,1625.36 C288.6,1632.76 298.8,1635.96 305.9,1635.96 L306.5,1635.96 C309.4,1635.86 312.1,1635.56 314.5,1635.16 C316.3,1644.76 317.5,1651.86 317.5,1657.16 C317.5,1663.66 315.9,1667.56 312,1670.36 C309.6,1672.06 306.7,1673.16 303.6,1673.26 L302.8,1673.26 C301.3,1673.26 298.8,1672.86 297.3,1672.46 C297.3,1672.46 297,1672.36 297,1672.16 C297,1671.96 297.4,1671.96 297.4,1671.96 C299.3,1671.56 302.9,1670.26 305.3,1666.96 C306.4,1665.46 307.1,1663.16 307.1,1660.66 C307.1,1659.06 306.8,1657.36 306.1,1655.86 C305,1653.46 302.4,1650.46 296.8,1650.06 L295.7,1650.06 C293.6,1650.06 291.8,1650.56 290.1,1651.56 C288.3,1652.66 286.7,1654.36 285.7,1656.36 C284.6,1658.36 284.1,1660.56 284.1,1662.76 C284.1,1665.66 285,1668.36 286.8,1670.56 C289.8,1674.16 294.5,1676.46 299.9,1677.06 C300.6,1677.16 301.7,1677.26 302.4,1677.26 C306.8,1677.26 311.2,1676.06 314.8,1673.86 C318.5,1671.26 320.6,1667.26 321.3,1661.66 C321.5,1660.36 321.5,1658.96 321.5,1657.46 C321.5,1653.56 321,1648.86 320,1643.06 C319.6,1640.96 319.2,1637.96 318.5,1634.16 C324.3,1632.26 328.4,1628.56 332.2,1622.76 C334.5,1618.76 335.6,1614.66 335.6,1610.36 C335.6,1608.46 335.4,1606.56 335,1604.66 M304.8,1526.76 C306.6,1521.06 309.3,1517.66 311.3,1515.96 C313.1,1514.46 314.7,1513.76 315.6,1513.76 C315.7,1513.76 315.9,1513.86 316,1513.86 C316.3,1513.96 316.7,1514.46 317.1,1515.16 C318,1516.96 318.9,1520.26 318.9,1523.96 C318.9,1525.86 318.7,1527.86 318.1,1529.66 C315.9,1536.46 311.3,1543.76 304.3,1551.46 C304.1,1550.36 303.9,1549.36 303.8,1548.36 C303.3,1545.16 303,1541.96 303,1539.06 C303,1534.56 303.6,1530.46 304.8,1526.76 M300.8,1630.86 C296.2,1629.66 291.7,1627.16 287.9,1623.66 C286.6,1622.46 284.8,1620.26 283.3,1616.86 C282,1613.86 281.3,1610.76 281.3,1607.36 L281.3,1606.66 C281.4,1601.96 282.7,1597.16 285.2,1592.36 C288.1,1586.76 292.6,1581.26 298.7,1575.96 C300.2,1574.66 301.6,1573.36 302.9,1572.06 C303.7,1576.36 304.4,1581.06 305.3,1585.96 C301.4,1587.26 296.7,1590.26 293.6,1595.96 C291.2,1600.46 290.5,1604.36 290.5,1607.56 C290.5,1609.06 290.7,1610.46 290.9,1611.56 C291.8,1616.06 294.4,1619.76 297.9,1621.86 C298.7,1622.36 302,1624.06 304,1624.06 C304.3,1624.06 304.6,1624.06 304.8,1623.96 C305.1,1623.86 305.4,1623.66 305.5,1623.36 C305.6,1623.16 305.6,1622.96 305.6,1622.76 C305.6,1621.96 304.8,1621.36 303.5,1620.56 C302.9,1620.16 302.2,1619.76 301.5,1619.26 C298.9,1617.26 297.4,1614.16 297.4,1610.76 C297.4,1609.76 297.6,1608.86 297.8,1607.86 C298.3,1605.86 300,1603.06 301.5,1601.66 C303.2,1600.16 305.2,1598.96 307.6,1598.36 C309.6,1609.56 311.7,1620.66 313.3,1629.06 C313.4,1629.76 313.6,1630.46 313.7,1631.16 C311.7,1631.56 309.7,1631.76 307.8,1631.76 C305.4,1631.76 303.1,1631.46 300.8,1630.86 M326.5,1620.66 C325.3,1623.86 322.8,1627.86 317.7,1629.96 C317.6,1629.56 317.6,1629.06 317.5,1628.66 C316,1619.86 314.1,1608.96 312.1,1597.66 L313.1,1597.66 C322.8,1597.66 326.7,1604.86 327.6,1609.46 C327.8,1610.36 327.9,1611.56 327.9,1612.86 C327.9,1615.16 327.5,1617.96 326.5,1620.66"/>
<path class="Clef" d="M335,729.609 C333.8,724.209 331.1,720.309 330.3,719.309 C327.1,715.009 323.1,712.209 318.4,710.809 C316.1,710.109 314,709.909 312,709.909 C311.3,709.909 310.6,709.909 309.9,710.009 C308.9,704.009 307.8,698.109 306.9,692.709 C312.5,686.509 316.2,680.609 318.6,676.209 C322.2,669.509 323.6,664.809 323.7,664.609 C324.9,661.609 325.6,657.809 325.6,653.309 C325.6,650.609 325.3,647.709 324.9,644.709 C323.8,637.609 321.6,630.909 319.1,627.209 C317.8,625.309 316.6,624.209 315.4,624.209 C314.2,624.209 311.7,625.409 308.8,628.209 C306.5,630.409 303.2,634.309 300.6,640.309 C298.3,645.709 297.6,652.609 297.6,658.509 C297.6,660.309 297.7,662.009 297.8,663.609 C298,667.209 298.7,673.009 299.3,676.609 C299.3,676.709 299.6,678.209 300,680.809 L299.3,681.509 C298.3,682.509 297.1,683.609 295.7,685.009 C294.8,685.909 293.9,686.709 292.9,687.709 C284.4,695.909 271.6,708.309 271.6,727.409 C271.6,732.109 272.5,736.509 274.3,740.509 C275.9,744.109 278.2,747.409 281.1,750.309 C288.6,757.709 298.8,760.909 305.9,760.909 L306.5,760.909 C309.4,760.809 312.1,760.509 314.5,760.109 C316.3,769.709 317.5,776.809 317.5,782.109 C317.5,788.609 315.9,792.509 312,795.309 C309.6,797.009 306.7,798.109 303.6,798.209 L302.8,798.209 C301.3,798.209 298.8,797.809 297.3,797.409 C297.3,797.409 297,797.309 297,797.109 C297,796.909 297.4,796.909 297.4,796.909 C299.3,796.509 302.9,795.209 305.3,791.909 C306.4,790.409 307.1,788.109 307.1,785.609 C307.1,784.009 306.8,782.309 306.1,780.809 C305,778.409 302.4,775.409 296.8,775.009 L295.7,775.009 C293.6,775.009 291.8,775.509 290.1,776.509 C288.3,777.609 286.7,779.309 285.7,781.309 C284.6,783.309 284.1,785.509 284.1,787.709 C284.1,790.609 285,793.309 286.8,795.509 C289.8,799.109 294.5,801.409 299.9,802.009 C300.6,802.109 301.7,802.209 302.4,802.209 C306.8,802.209 311.2,801.009 314.8,798.809 C318.5,796.209 320.6,792.209 321.3,786.609 C321.5,785.309 321.5,783.909 321.5,782.409 C321.5,778.509 321,773.809 320,768.009 C319.6,765.909 319.2,762.909 318.5,759.109 C324.3,757.209 328.4,753.509 332.2,747.709 C334.5,743.709 335.6,739.609 335.6,735.309 C335.6,733.409 335.4,731.509 335,729.609 M304.8,651.709 C306.6,646.009 309.3,642.609 311.3,640.909 C313.1,639.409 314.7,638.709 315.6,638.709 C315.7,638.709 315.9,638.809 316,638.809 C316.3,638.909 316.7,639.409 317.1,640.109 C318,641.909 318.9,645.209 318.9,648.909 C318.9,650.809 318.7,652.809 318.1,654.609 C315.9,661.409 311.3,668.709 304.3,676.409 C304.1,675.309 303.9,674.309 303.8,673.309 C303.3,670.109 303,666.909 303,664.009 C303,659.509 303.6,655.409 304.8,651.709 M300.8,755.809 C296.2,754.609 291.7,752.109 287.9,748.609 C286.6,747.409 284.8,745.209 283.3,741.809 C282,738.809 281.3,735.709 281.3,732.309 L281.3,731.609 C281.4,726.909 282.7,722.109 285.2,717.309 C288.1,711.709 292.6,706.209 298.7,700.909 C300.2,699.609 301.6,698.309 302.9,697.009 C303.7,701.309 304.4,706.009 305.3,710.909 C301.4,712.209 296.7,715.209 293.6,720.909 C291.2,725.409 290.5,729.309 290.5,732.509 C290.5,734.009 290.7,735.409 290.9,736.509 C291.8,741.009 294.4,744.709 297.9,746.809 C298.7,747.309 302,749.009 304,749.009 C304.3,749.009 304.6,749.009 304.8,748.909 C305.1,748.809 305.4,748.609 305.5,748.309 C305.6,748.109 305.6,747.909 305.6,747.709 C305.6,746.909 304.8,746.309 303.5,745.509 C302.9,745.109 302.2,744.709 301.5,744.209 C298.9,742.209 297.4,739.109 297.4,735.709 C297.4,734.709 297.6,733.809 297.8,732.809 C298.3,730.809 300,728.009 301.5,726.609 C303.2,725.109 305.2,723.909 307.6,723.309 C309.6,734.509 311.7,745.609 313.3,754.009 C313.4,754.709 313.6,755.409 313.7,756.109 C311.7,756.509 309.7,756.709 307.8,756.709 C305.4,756.709 303.1,756.409 300.8,755.809 M326.5,745.609 C325.3,748.809 322.8,752.809 317.7,754.909 C317.6,754.509 317.6,754.009 317.5,753.609 C316,744.809 314.1,733.909 312.1,722.609 L313.1,722.609 C322.8,722.609 326.7,729.809 327.6,734.409 C327.8,735.309 327.9,736.509 327.9,737.809 C327.9,740.109 327.5,742.909 326.5,745.609"/>
<path class="Clef" d="M335,1342.15 C333.8,1336.75 331.1,1332.85 330.3,1331.85 C327.1,1327.55 323.1,1324.75 318.4,1323.35 C316.1,1322.65 314,1322.45 312,1322.45 C311.3,1322.45 310.6,1322.45 309.9,1322.55 C308.9,1316.55 307.8,1310.65 306.9,1305.25 C312.5,1299.05 316.2,1293.15 318.6,1288.75 C322.2,1282.05 323.6,1277.35 323.7,1277.15 C324.9,1274.15 325.6,1270.35 325.6,1265.85 C325.6,1263.15 325.3,1260.25 324.9,1257.25 C323.8,1250.15 321.6,1243.45 319.1,1239.75 C317.8,1237.85 316.6,1236.75 315.4,1236.75 C314.2,1236.75 311.7,1237.95 308.8,1240.75 C306.5,1242.95 303.2,1246.85 300.6,1252.85 C298.3,1258.25 297.6,1265.15 297.6,1271.05 C297.6,1272.85 297.7,1274.55 297.8,1276.15 C298,1279.75 298.7,1285.55 299.3,1289.15 C299.3,1289.25 299.6,1290.75 300,1293.35 L299.3,1294.05 C298.3,1295.05 297.1,1296.15 295.7,1297.55 C294.8,1298.45 293.9,1299.25 292.9,1300.25 C284.4,1308.45 271.6,1320.85 271.6,1339.95 C271.6,1344.65 272.5,1349.05 274.3,1353.05 C275.9,1356.65 278.2,1359.95 281.1,1362.85 C288.6,1370.25 298.8,1373.45 305.9,1373.45 L306.5,1373.45 C309.4,1373.35 312.1,1373.05 314.5,1372.65 C316.3,1382.25 317.5,1389.35 317.5,1394.65 C317.5,1401.15 315.9,1405.05 312,1407.85 C309.6,1409.55 306.7,1410.65 303.6,1410.75 L302.8,1410.75 C301.3,1410.75 298.8,1410.35 297.3,1409.95 C297.3,1409.95 297,1409.85 297,1409.65 C297,1409.45 297.4,1409.45 297.4,1409.45 C299.3,1409.05 302.9,1407.75 305.3,1404.45 C306.4,1402.95 307.1,1400.65 307.1,1398.15 C307.1,1396.55 306.8,1394.85 306.1,1393.35 C305,1390.95 302.4,1387.95 296.8,1387.55 L295.7,1387.55 C293.6,1387.55 291.8,1388.05 290.1,1389.05 C288.3,1390.15 286.7,1391.85 285.7,1393.85 C284.6,1395.85 284.1,1398.05 284.1,1400.25 C284.1,1403.15 285,1405.85 286.8,1408.05 C289.8,1411.65 294.5,1413.95 299.9,1414.55 C300.6,1414.65 301.7,1414.75 302.4,1414.75 C306.8,1414.75 311.2,1413.55 314.8,1411.35 C318.5,1408.75 320.6,1404.75 321.3,1399.15 C321.5,1397.85 321.5,1396.45 321.5,1394.95 C321.5,1391.05 321,1386.35 320,1380.55 C319.6,1378.45 319.2,1375.45 318.5,1371.65 C324.3,1369.75 328.4,1366.05 332.2,1360.25 C334.5,1356.25 335.6,1352.15 335.6,1347.85 C335.6,1345.95 335.4,1344.05 335,1342.15 M304.8,1264.25 C306.6,1258.55 309.3,1255.15 311.3,1253.45 C313.1,1251.95 314.7,1251.25 315.6,1251.25 C315.7,1251.25 315.9,1251.35 316,1251.35 C316.3,1251.45 316.7,1251.95 317.1,1252.65 C318,1254.45 318.9,1257.75 318.9,1261.45 C318.9,1263.35 318.7,1265.35 318.1,1267.15 C315.9,1273.95 311.3,1281.25 304.3,1288.95 C304.1,1287.85 303.9,1286.85 303.8,1285.85 C303.3,1282.65 303,1279.45 303,1276.55 C303,1272.05 303.6,1267.95 304.8,1264.25 M300.8,1368.35 C296.2,1367.15 291.7,1364.65 287.9,1361.15 C286.6,1359.95 284.8,1357.75 283.3,1354.35 C282,1351.35 281.3,1348.25 281.3,1344.85 L281.3,1344.15 C281.4,1339.45 282.7,1334.65 285.2,1329.85 C288.1,1324.25 292.6,1318.75 298.7,1313.45 C300.2,1312.15 301.6,1310.85 302.9,1309.55 C303.7,1313.85 304.4,1318.55 305.3,1323.45 C301.4,1324.75 296.7,1327.75 293.6,1333.45 C291.2,1337.95 290.5,1341.85 290.5,1345.05 C290.5,1346.55 290.7,1347.95 290.9,1349.05 C291.8,1353.55 294.4,1357.25 297.9,1359.35 C298.7,1359.85 302,1361.55 304,1361.55 C304.3,1361.55 304.6,1361.55 304.8,1361.45 C305.1,1361.35 305.4,1361.15 305.5,1360.85 C305.6,1360.65 305.6,1360.45 305.6,1360.25 C305.6,1359.45 304.8,1358.85 303.5,1358.05 C302.9,1357.65 302.2,1357.25 301.5,1356.75 C298.9,1354.75 297.4,1351.65 297.4,1348.25 C297.4,1347.25 297.6,1346.35 297.8,1345.35 C298.3,1343.35 300,1340.55 301.5,1339.15 C303.2,1337.65 305.2,1336.45 307.6,1335.85 C309.6,1347.05 311.7,1358.15 313.3,1366.55 C313.4,1367.25 313.6,1367.95 313.7,1368.65 C311.7,1369.05 309.7,1369.25 307.8,1369.25 C305.4,1369.25 303.1,1368.95 300.8,1368.35 M326.5,1358.15 C325.3,1361.35 322.8,1365.35 317.7,1367.45 C317.6,1367.05 317.6,1366.55 317.5,1366.15 C316,1357.35 314.1,1346.45 312.1,1335.15 L313.1,1335.15 C322.8,1335.15 326.7,1342.35 327.6,1346.95 C327.8,1347.85 327.9,1349.05 327.9,1350.35 C327.9,1352.65 327.5,1355.45 326.5,1358.15"/>
<path class="TimeSig" d="M392.053,946.923 L392.253,946.923 C400.253,943.823 400.753,938.623 400.753,936.823 L400.753,936.323 C400.753,935.423 400.453,924.123 383.253,924.123 C366.053,924.123 366.553,936.323 366.553,936.323 L366.653,936.323 L366.553,936.523 C366.553,940.123 369.453,942.923 373.053,942.923 C376.653,942.923 379.453,940.123 379.453,936.523 C379.453,933.623 377.253,930.823 374.453,930.223 L374.753,929.923 C376.153,928.923 378.053,928.423 379.953,928.423 C384.153,928.423 388.653,930.923 388.653,936.323 C388.653,942.623 383.953,943.523 382.753,943.723 C381.553,943.923 375.953,944.323 374.753,944.323 C373.553,944.323 373.453,945.723 373.453,945.723 L373.453,947.723 C373.453,947.723 373.653,948.823 374.753,948.923 C376.453,949.023 378.753,949.023 381.953,949.523 C386.353,950.123 388.653,953.123 388.653,960.123 C388.653,966.823 384.153,968.623 379.953,968.623 C377.153,968.623 374.553,967.823 373.453,967.023 C376.753,966.823 379.453,963.923 379.453,960.623 C379.453,957.023 376.653,954.123 373.053,954.123 C369.453,954.123 366.553,957.023 366.553,960.623 C366.553,960.623 366.053,965.123 370.453,969.223 C374.353,972.823 379.253,972.923 381.453,972.923 C391.053,972.923 401.453,969.623 401.453,958.723 C401.453,951.423 396.453,948.323 392.053,946.923"/>
<path class="TimeSig" d="M365.2,1010.03 L382,1010.03 L382,1017.33 L373.9,1017.33 C373.1,1017.33 372.5,1017.93 372.5,1018.73 L372.5,1020.63 C372.5,1021.43 373.1,1021.93 373.9,1021.93 L403.6,1021.93 C404.4,1021.93 405,1021.43 405,1020.63 L405,1018.73 C405,1017.93 404.4,1017.33 403.6,1017.33 L394.8,1017.33 L394.8,1010.03 L403.6,1010.03 C404.4,1010.03 405,1009.43 405,1008.63 L405,1006.83 C405,1006.03 404.4,1005.43 403.6,1005.43 L394.8,1005.43 L394.8,989.727 C394.8,989.227 394.4,988.727 394,988.527 L392.9,987.927 C392.7,987.827 392.4,987.827 392.2,987.827 C391.9,987.827 391.5,987.927 391.3,988.127 L382.4,996.327 C382.2,996.527 382,997.027 382,997.327 L382,1005.43 L370.7,1005.43 C370.7,1005.43 381.6,993.627 393.2,978.127 C394,977.027 393.6,976.027 393.4,975.827 L391.3,973.627 C391.1,973.427 390.6,973.227 390.3,973.227 L375.7,973.227 C375,973.227 374.5,973.827 374.4,974.427 C374.4,974.427 373.9,981.627 371.3,989.627 C368.7,997.627 365.9,1002.43 363.3,1006.03 C363.3,1006.03 362.8,1007.03 363.1,1007.73 C363.4,1008.43 364.1,1009.53 364.1,1009.53 C364.1,1009.53 364.4,1010.03 365.2,1010.03"/>
<path class="TimeSig" d="M392.053,684.406 L392.253,684.406 C400.253,681.306 400.753,676.106 400.753,674.306 L400.753,673.806 C400.753,672.906 400.453,661.606 383.253,661.606 C366.053,661.606 366.553,673.806 366.553,673.806 L366.653,673.806 L366.553,674.006 C366.553,677.606 369.453,680.406 373.053,680.406 C376.653,680.406 379.453,677.606 379.453,674.006 C379.453,671.106 377.253,668.306 374.453,667.706 L374.753,667.406 C376.153,666.406 378.053,665.906 379.953,665.906 C384.153,665.906 388.653,668.406 388.653,673.806 C388.653,680.106 383.953,681.006 382.753,681.206 C381.553,681.406 375.953,681.806 374.753,681.806 C373.553,681.806 373.453,683.206 373.453,683.206 L373.453,685.206 C373.453,685.206 373.653,686.306 374.753,686.406 C376.453,686.506 378.753,686.506 381.953,687.006 C386.353,687.606 388.653,690.606 388.653,697.606 C388.653,704.306 384.153,706.106 379.953,706.106 C377.153,706.106 374.553,705.306 373.453,704.506 C376.753,704.306 379.453,701.406 379.453,698.106 C379.453,694.506 376.653,691.606 373.053,691.606 C369.453,691.606 366.553,694.506 366.553,698.106 C366.553,698.106 366.053,702.606 370.453,706.706 C374.353,710.306 379.253,710.406 381.453,710.406 C391.053,710.406 401.453,707.106 401.453,696.206 C401.453,688.906 396.453,685.806 392.053,684.406"/>
<path class="TimeSig" d="M365.2,747.51 L382,747.51 L382,754.81 L373.9,754.81 C373.1,754.81 372.5,755.41 372.5,756.21 L372.5,758.11 C372.5,758.91 373.1,759.41 373.9,759.41 L403.6,759.41 C404.4,759.41 405,758.91 405,758.11 L405,756.21 C405,755.41 404.4,754.81 403.6,754.81 L394.8,754.81 L394.8,747.51 L403.6,747.51 C404.4,747.51 405,746.91 405,746.11 L405,744.31 C405,743.51 404.4,742.91 403.6,742.91 L394.8,742.91 L394.8,727.21 C394.8,726.71 394.4,726.21 394,726.01 L392.9,725.41 C392.7,725.31 392.4,725.31 392.2,725.31 C391.9,725.31 391.5,725.41 391.3,725.61 L382.4,733.81 C382.2,734.01 382,734.51 382,734.81 L382,742.91 L370.7,742.91 C370.7,742.91 381.6,731.11 393.2,715.61 C394,714.51 393.6,713.51 393.4,713.31 L391.3,711.11 C391.1,710.91 390.6,710.71 390.3,710.71 L375.7,710.71 C375,710.71 374.5,711.31 374.4,711.91 C374.4,711.91 373.9,719.11 371.3,727.11 C368.7,735.11 365.9,739.91 363.3,743.51 C363.3,743.51 362.8,744.51 363.1,745.21 C363.4,745.91 364.1,747.01 364.1,747.01 C364.1,747.01 364.4,747.51 365.2,747.51"/>
<path class="Page" d="M217.958,4039.47 C220.388,4040.06 221.603,4040.24 223.403,4040.24 C227.228,4040.24 230.018,4038.93 231.503,4036.41 C231.998,4035.6 232.178,4035.15 232.178,4034.79 C232.178,4034.52 232.088,4034.39 231.818,4034.39 C231.683,4034.39 231.503,4034.43 231.233,4034.57 C229.028,4035.51 227.858,4035.74 225.248,4035.74 C222.368,4035.74 220.568,4035.47 215.978,4034.39 C215.798,4038.17 215.393,4042.98 214.763,4048.56 C213.818,4049.55 213.503,4050.14 213.503,4050.86 C213.503,4051.8 214.088,4052.39 214.943,4052.39 C216.113,4052.39 216.788,4051.44 216.968,4049.64 C218.543,4048.52 220.028,4048.02 221.828,4048.02 C225.878,4048.02 228.263,4051.08 228.263,4056.26 C228.263,4059.27 227.498,4061.84 226.148,4063.23 C225.248,4064.18 223.403,4064.81 221.558,4064.81 C218.858,4064.81 216.068,4063.41 216.068,4062.02 C216.068,4061.7 216.338,4061.34 216.878,4061.03 C218.273,4060.17 218.678,4059.59 218.678,4058.37 C218.678,4056.8 217.463,4055.58 215.843,4055.58 C214.043,4055.58 212.603,4057.25 212.603,4059.36 C212.603,4061.61 213.908,4063.86 215.933,4065.26 C217.463,4066.25 219.263,4066.74 221.648,4066.74 C228.713,4066.74 233.168,4062.6 233.168,4055.99 C233.168,4049.87 229.118,4045.77 222.998,4045.77 C221.063,4045.77 219.668,4046.09 217.193,4047.12 L217.958,4039.47 M258.319,4056.35 L256.339,4056.35 L255.889,4058.64 C255.304,4061.57 254.944,4061.84 252.154,4061.84 L242.074,4061.84 C245.179,4058.6 246.214,4057.65 249.094,4055.4 C253.189,4052.25 254.944,4050.68 255.979,4049.33 C257.419,4047.35 258.139,4045.37 258.139,4043.16 C258.139,4038.03 253.909,4034.39 248.014,4034.39 C242.299,4034.39 237.934,4038.03 237.934,4042.85 C237.934,4045.68 239.374,4047.62 241.489,4047.62 C243.154,4047.62 244.279,4046.49 244.279,4044.87 C244.279,4043.75 243.649,4042.71 242.704,4042.31 C241.039,4041.63 240.949,4041.54 240.949,4040.96 C240.949,4040.28 241.399,4039.25 242.029,4038.48 C243.154,4037.09 244.999,4036.32 247.114,4036.32 C250.849,4036.32 253.054,4038.62 253.054,4042.4 C253.054,4045.73 251.479,4048.74 247.744,4052.7 C244.414,4056.21 242.344,4058.42 241.579,4059.27 C239.959,4061.16 239.149,4062.2 237.169,4064.81 L237.169,4066.07 L257.464,4066.07 L258.319,4056.35 "/>
<path class="Bracket" transform="matrix(3.62523,0,0,3.62523,214.469,1023.03)" d="M0.92002,-50 C2.69004,-51.88 6.2,-55.8 6.2,-63 C6.2,-72.1 2.25996,-81.32 2.25996,-86.97 C2.25996,-93.06 5.84004,-98.84 5.95,-99 C6.05996,-99.16 6.05,-99.39 5.94004,-99.46 C5.82998,-99.53 5.62002,-99.47 5.49004,-99.32 C5.35996,-99.17 0,-93.75 0,-85.6 C0,-76.75 3.5,-70.58 3.5,-59.07 C3.5,-56.89 2.55996,-53.36 0.1,-50.33 C-0.0799805,-50.17 -0.1,-49.89 0.0599609,-49.7 L0.0700195,-49.69 L0.1,-49.66 C2.55996,-46.63 3.5,-43.1 3.5,-40.92 C3.5,-29.4 0,-23.24 0,-14.39 C0,-6.25 5.35996,-0.8 5.49004,-0.659961 C5.62002,-0.52002 5.8,-0.42998 5.94004,-0.52002 C6.07998,-0.609961 6.07998,-0.77998 5.95,-0.97998 C5.82002,-1.17998 2.25996,-6.92002 2.25996,-13.01 C2.25996,-18.66 6.2,-27.9 6.2,-37 C6.2,-44.3 2.69004,-48.12 0.92002,-50"/>
<path class="Bracket" transform="matrix(3.62523,0,0,3.62523,214.469,1635.57)" d="M0.92002,-50 C2.69004,-51.88 6.2,-55.8 6.2,-63 C6.2,-72.1 2.25996,-81.32 2.25996,-86.97 C2.25996,-93.06 5.84004,-98.84 5.95,-99 C6.05996,-99.16 6.05,-99.39 5.94004,-99.46 C5.82998,-99.53 5.62002,-99.47 5.49004,-99.32 C5.35996,-99.17 0,-93.75 0,-85.6 C0,-76.75 3.5,-70.58 3.5,-59.07 C3.5,-56.89 2.55996,-53.36 0.1,-50.33 C-0.0799805,-50.17 -0.1,-49.89 0.0599609,-49.7 L0.0700195,-49.69 L0.1,-49.66 C2.55996,-46.63 3.5,-43.1 3.5,-40.92 C3.5,-29.4 0,-23.24 0,-14.39 C0,-6.25 5.35996,-0.8 5.49004,-0.659961 C5.62002,-0.52002 5.8,-0.42998 5.94004,-0.52002 C6.07998,-0.609961 6.07998,-0.77998 5.95,-0.97998 C5.82002,-1.17998 2.25996,-6.92002 2.25996,-13.01 C2.25996,-18.66 6.2,-27.9 6.2,-37 C6.2,-44.3 2.69004,-48.12 0.92002,-50"/>
</svg>