<?xml version="1.0" encoding="UTF-8" standalone="no"?>
<svg width="1000px" height="500px" viewBox="150 650 2700 1000" xmlns="http://www.w3.org/2000/svg" xmlns:xlink="http://www.w3.org/1999/xlink" version="1.2" baseProfile="tiny">
 xmlns="http://www.w3.org/2000/svg" xmlns:xlink="http://www.w3.org/1999/xlink" version="1.2" baseProfile="tiny">
<title>exercises_scores (61)</title>
<desc>Generated by MuseScore 3.6.0</desc>
<polyline class="StaffLines" fill="none" stroke="#000000" stroke-width="2.75" stroke-linejoin="bevel" points="247.099,653.098 2764.63,653.098"/>
<polyline class="StaffLines" fill="none" stroke="#000000" stroke-width="2.75" stroke-linejoin="bevel" points="247.099,678.1 2764.63,678.1"/>
<polyline class="StaffLines" fill="none" stroke="#000000" stroke-width="2.75" stroke-linejoin="bevel" points="247.099,703.102 2764.63,703.102"/>
<polyline class="StaffLines" fill="none" stroke="#000000" stroke-width="2.75" stroke-linejoin="bevel" points="247.099,728.103 2764.63,728.103"/>
<polyline class="StaffLines" fill="none" stroke="#000000" stroke-width="2.75" stroke-linejoin="bevel" points="247.099,753.105 2764.63,753.105"/>
<polyline class="StaffLines" fill="none" stroke="#000000" stroke-width="2.75" stroke-linejoin="bevel" points="247.099,915.615 2764.63,915.615"/>
<polyline class="StaffLines" fill="none" stroke="#000000" stroke-width="2.75" stroke-linejoin="bevel" points="247.099,940.617 2764.63,940.617"/>
<polyline class="StaffLines" fill="none" stroke="#000000" stroke-width="2.75" stroke-linejoin="bevel" points="247.099,965.618 2764.63,965.618"/>
<polyline class="StaffLines" fill="none" stroke="#000000" stroke-width="2.75" stroke-linejoin="bevel" points="247.099,990.62 2764.63,990.62"/>
<polyline class="StaffLines" fill="none" stroke="#000000" stroke-width="2.75" stroke-linejoin="bevel" points="247.099,1015.62 2764.63,1015.62"/>
<polyline class="StaffLines" fill="none" stroke="#000000" stroke-width="2.75" stroke-linejoin="bevel" points="247.099,1265.64 2764.63,1265.64"/>
<polyline class="StaffLines" fill="none" stroke="#000000" stroke-width="2.75" stroke-linejoin="bevel" points="247.099,1290.64 2764.63,1290.64"/>
<polyline class="StaffLines" fill="none" stroke="#000000" stroke-width="2.75" stroke-linejoin="bevel" points="247.099,1315.64 2764.63,1315.64"/>
<polyline class="StaffLines" fill="none" stroke="#000000" stroke-width="2.75" stroke-linejoin="bevel" points="247.099,1340.64 2764.63,1340.64"/>
<polyline class="StaffLines" fill="none" stroke="#000000" stroke-width="2.75" stroke-linejoin="bevel" points="247.099,1365.64 2764.63,1365.64"/>
<polyline class="StaffLines" fill="none" stroke="#000000" stroke-width="2.75" stroke-linejoin="bevel" points="247.099,1528.15 2764.63,1528.15"/>
<polyline class="StaffLines" fill="none" stroke="#000000" stroke-width="2.75" stroke-linejoin="bevel" points="247.099,1553.16 2764.63,1553.16"/>
<polyline class="StaffLines" fill="none" stroke="#000000" stroke-width="2.75" stroke-linejoin="bevel" points="247.099,1578.16 2764.63,1578.16"/>
<polyline class="StaffLines" fill="none" stroke="#000000" stroke-width="2.75" stroke-linejoin="bevel" points="247.099,1603.16 2764.63,1603.16"/>
<polyline class="StaffLines" fill="none" stroke="#000000" stroke-width="2.75" stroke-linejoin="bevel" points="247.099,1628.16 2764.63,1628.16"/>
<path class="Text" d="M212.602,213.497 L212.602,216.317 L213.682,216.317 C217.102,216.377 218.242,216.557 218.722,217.157 C219.082,217.697 219.082,217.817 219.082,220.877 L219.082,249.437 C219.082,252.497 219.082,252.617 218.722,253.157 C218.242,253.757 217.102,253.997 213.682,253.997 L212.602,253.997 L212.602,256.817 L234.382,256.817 C244.762,256.817 251.002,252.437 251.002,245.057 C251.002,239.057 247.222,235.637 239.002,234.197 C241.882,233.597 243.202,233.057 244.762,231.917 C247.222,230.057 248.722,227.117 248.722,224.117 C248.722,220.217 246.322,216.437 242.842,214.937 C240.682,213.977 237.682,213.497 234.142,213.497 L212.602,213.497 M225.802,232.997 L225.802,219.317 C225.802,216.977 226.582,216.377 229.762,216.317 L232.162,216.317 C234.922,216.317 237.202,216.797 238.462,217.577 C240.622,218.897 241.762,221.417 241.762,224.777 C241.762,230.717 238.882,232.997 231.142,232.997 L225.802,232.997 M225.802,235.817 L231.082,235.817 C240.262,235.817 243.622,238.277 243.622,244.877 C243.622,248.717 242.302,251.477 239.962,252.617 C238.102,253.577 235.582,253.997 231.802,253.997 L229.282,253.997 C226.282,253.997 225.682,253.397 225.802,250.217 L225.802,235.817 M265.994,228.857 L255.374,229.517 L255.374,232.097 L257.834,232.097 C260.114,232.157 260.414,232.517 260.414,235.097 L260.414,249.437 L260.414,252.257 C260.354,253.157 260.294,253.517 260.054,253.817 C259.634,254.357 258.434,254.597 255.854,254.657 L255.614,254.657 L255.614,256.817 L271.634,256.817 L271.634,254.657 L270.554,254.657 C266.534,254.537 265.994,254.237 265.994,252.077 L265.994,249.437 L265.994,248.837 C266.054,238.757 269.654,231.077 274.334,230.837 C273.494,231.797 273.254,232.397 273.254,233.537 C273.254,235.457 274.634,236.837 276.554,236.837 C278.774,236.837 280.214,235.217 280.214,232.817 C280.214,229.877 278.174,227.957 274.994,227.957 C271.214,227.957 267.974,230.957 265.994,236.297 L265.994,228.857 M295.562,227.957 C288.182,227.957 282.482,234.497 282.482,242.897 C282.482,251.117 288.242,257.717 295.442,257.717 C302.642,257.717 308.402,251.117 308.402,242.837 C308.402,234.617 302.642,227.957 295.562,227.957 M295.562,230.537 C299.762,230.537 302.102,234.917 302.102,242.837 C302.102,250.817 299.762,255.137 295.442,255.137 C291.122,255.137 288.782,250.817 288.782,242.897 C288.782,234.737 291.062,230.537 295.562,230.537 M322.382,242.297 L322.382,212.597 L311.282,213.257 L311.282,215.837 L314.162,215.837 C316.442,215.897 316.742,216.257 316.742,218.837 L316.742,249.437 L316.742,252.317 C316.682,253.157 316.622,253.517 316.382,253.817 C315.962,254.357 314.822,254.597 312.242,254.657 L312.002,254.657 L312.002,256.817 L327.182,256.817 L327.182,254.657 L326.942,254.657 C322.922,254.537 322.382,254.237 322.382,252.077 L322.382,249.437 L322.382,246.017 L326.042,242.537 L333.182,252.557 C333.482,253.037 333.602,253.337 333.602,253.577 C333.602,254.417 332.942,254.657 330.962,254.657 L329.822,254.657 L329.822,256.817 L345.662,256.817 L345.662,254.657 C342.302,254.357 341.102,253.637 338.642,250.517 L330.122,238.877 L332.822,236.237 C336.362,232.817 338.882,231.497 342.962,231.017 L342.962,228.857 L327.182,228.857 L327.182,231.017 L329.042,231.017 C330.962,231.017 331.862,231.377 331.862,232.157 C331.862,232.817 331.442,233.537 330.482,234.497 L322.382,242.297 M372.842,243.317 C372.902,234.317 367.802,227.957 360.482,227.957 C352.802,227.957 347.042,234.617 347.042,243.617 C347.042,252.077 352.502,257.717 360.602,257.717 C366.362,257.717 370.382,254.897 372.842,249.197 L370.742,248.057 C368.282,252.677 365.762,254.477 361.742,254.477 C358.682,254.477 356.462,253.217 354.902,250.517 C353.822,248.717 353.342,246.617 353.402,243.317 L372.842,243.317 M353.462,240.737 C353.462,238.877 353.702,237.557 354.302,235.877 C355.562,232.277 357.482,230.537 360.422,230.537 C364.022,230.537 366.422,233.717 366.422,238.577 C366.422,240.257 365.882,240.737 363.962,240.737 L353.462,240.737 M386.942,228.857 L376.562,229.517 L376.562,232.097 L378.722,232.097 C381.002,232.157 381.302,232.517 381.302,235.097 L381.302,249.437 L381.302,250.877 L381.302,252.257 C381.242,253.157 381.182,253.517 380.942,253.817 C380.522,254.357 379.382,254.597 376.802,254.657 L376.562,254.657 L376.562,256.817 L391.742,256.817 L391.742,254.657 L391.502,254.657 C387.482,254.537 386.942,254.237 386.942,252.077 L386.942,249.437 L386.942,243.197 C386.942,240.257 387.362,237.557 388.022,236.177 C389.282,233.477 391.982,231.617 394.562,231.617 C396.122,231.617 397.922,232.457 398.822,233.717 C399.722,235.037 400.142,236.837 400.142,239.717 L400.142,249.437 L400.142,252.257 C400.082,253.157 400.022,253.517 399.782,253.817 C399.362,254.357 398.162,254.597 395.582,254.657 L395.342,254.657 L395.342,256.817 L410.522,256.817 L410.522,254.657 L410.282,254.657 C406.322,254.537 405.782,254.237 405.782,252.077 L405.782,249.437 L405.782,240.017 C405.782,235.697 405.602,234.617 404.522,232.577 C403.022,229.697 400.022,227.957 396.422,227.957 C392.522,227.957 389.582,229.757 386.942,233.717 L386.942,228.857 M466.61,213.077 L464.33,213.077 L461.93,216.617 C457.55,213.437 455.33,212.597 451.19,212.597 C445.49,212.597 440.63,214.997 436.61,219.797 C432.77,224.357 430.97,229.397 430.97,235.577 C430.97,248.537 439.43,257.717 451.25,257.717 C460.85,257.717 466.97,252.077 468.35,241.997 L465.53,241.517 C463.91,250.457 459.35,254.897 451.97,254.897 C443.09,254.897 438.89,248.777 438.89,235.817 C438.89,228.977 439.79,224.477 441.83,220.877 C443.69,217.517 447.35,215.417 451.25,215.417 C455.45,215.417 459.17,217.637 461.45,221.477 C462.59,223.457 463.43,225.677 464.87,230.417 L467.51,230.417 L466.61,213.077 M483.583,212.597 L472.483,213.257 L472.483,215.837 L475.363,215.837 C477.643,215.897 477.943,216.257 477.943,218.837 L477.943,249.437 L477.943,250.877 L477.943,252.317 C477.883,253.157 477.823,253.517 477.583,253.817 C477.163,254.357 476.023,254.597 473.443,254.657 L473.203,254.657 L473.203,256.817 L488.383,256.817 L488.383,254.657 L488.143,254.657 C484.123,254.537 483.583,254.237 483.583,252.077 L483.583,249.437 L483.583,243.197 C483.583,240.257 484.003,237.557 484.663,236.177 C485.983,233.477 488.623,231.617 491.203,231.617 C492.763,231.617 494.563,232.517 495.403,233.717 C496.363,235.037 496.783,236.837 496.783,239.777 L496.783,249.437 L496.783,252.317 C496.723,253.157 496.663,253.517 496.423,253.817 C496.003,254.357 494.803,254.597 492.223,254.657 L491.983,254.657 L491.983,256.817 L507.163,256.817 L507.163,254.657 L506.923,254.657 C502.963,254.537 502.423,254.237 502.423,252.077 L502.423,249.437 L502.423,240.017 C502.423,235.697 502.243,234.617 501.163,232.577 C499.663,229.637 496.663,227.957 493.063,227.957 C489.163,227.957 486.283,229.697 483.583,233.717 L483.583,212.597 M523.359,227.957 C515.979,227.957 510.279,234.497 510.279,242.897 C510.279,251.117 516.039,257.717 523.239,257.717 C530.439,257.717 536.199,251.117 536.199,242.837 C536.199,234.617 530.439,227.957 523.359,227.957 M523.359,230.537 C527.559,230.537 529.899,234.917 529.899,242.837 C529.899,250.817 527.559,255.137 523.239,255.137 C518.919,255.137 516.579,250.817 516.579,242.897 C516.579,234.737 518.859,230.537 523.359,230.537 M550.119,228.857 L539.499,229.517 L539.499,232.097 L541.959,232.097 C544.239,232.157 544.539,232.517 544.539,235.097 L544.539,249.437 L544.539,252.257 C544.479,253.157 544.419,253.517 544.179,253.817 C543.759,254.357 542.559,254.597 539.979,254.657 L539.739,254.657 L539.739,256.817 L555.759,256.817 L555.759,254.657 L554.679,254.657 C550.659,254.537 550.119,254.237 550.119,252.077 L550.119,249.437 L550.119,248.837 C550.179,238.757 553.779,231.077 558.459,230.837 C557.619,231.797 557.379,232.397 557.379,233.537 C557.379,235.457 558.759,236.837 560.679,236.837 C562.899,236.837 564.339,235.217 564.339,232.817 C564.339,229.877 562.299,227.957 559.119,227.957 C555.339,227.957 552.099,230.957 550.119,236.297 L550.119,228.857 M587.18,257.237 L597.62,256.817 L597.62,254.237 L596.54,254.237 C593.12,254.057 592.82,253.697 592.82,249.857 L592.82,212.597 L581.06,213.257 L581.06,215.837 L584.6,215.837 C586.88,215.897 587.18,216.257 587.18,218.837 L587.18,232.397 C584.96,229.337 582.38,227.957 578.9,227.957 C572.12,227.957 566.96,234.497 566.96,243.137 C566.96,251.657 571.94,257.717 578.9,257.717 C582.68,257.717 585.26,256.097 587.18,252.497 L587.18,257.237 M580.1,231.197 C582.56,231.197 584.9,232.997 585.98,235.757 C586.76,237.557 587.12,240.017 587.12,242.957 C587.12,249.977 584.36,254.477 580.04,254.477 C575.78,254.477 573.26,250.517 573.26,243.857 C573.26,240.257 573.62,237.557 574.4,235.577 C575.42,232.877 577.64,231.197 580.1,231.197 M607.757,250.157 C605.657,250.157 603.977,251.837 603.977,253.877 C603.977,255.977 605.657,257.657 607.697,257.657 C609.797,257.657 611.477,255.977 611.477,253.877 C611.477,251.837 609.797,250.157 607.757,250.157 M607.757,228.437 C605.657,228.437 603.977,230.117 603.977,232.217 C603.977,234.257 605.657,235.937 607.697,235.937 C609.797,235.937 611.477,234.257 611.477,232.157 C611.477,230.117 609.797,228.437 607.757,228.437 M671.161,213.077 L668.881,213.077 L666.541,216.677 C662.641,213.617 660.001,212.597 655.621,212.597 C650.881,212.597 647.161,213.917 643.381,216.977 C637.441,221.777 634.681,227.837 634.681,235.937 C634.681,242.057 636.421,247.157 639.961,251.057 C643.681,255.257 649.201,257.717 654.961,257.717 C660.001,257.717 663.541,256.157 667.441,252.257 L669.661,257.657 L672.181,257.657 L672.181,244.457 C672.181,241.397 672.181,241.277 672.541,240.737 C673.081,240.077 674.161,239.897 677.581,239.897 L678.481,239.897 L678.481,237.077 L659.401,237.077 L659.401,239.897 L660.541,239.897 C665.581,239.897 666.001,240.197 666.001,243.557 C666.001,246.137 665.581,248.477 664.801,249.917 C663.301,252.857 659.461,254.897 655.561,254.897 C651.661,254.897 647.821,252.917 645.781,249.917 C643.561,246.557 642.601,242.357 642.601,235.937 C642.601,222.557 647.041,215.417 655.381,215.417 C662.221,215.417 666.961,220.337 669.421,229.937 L672.001,229.937 L671.161,213.077 M707.565,228.857 L696.885,229.517 L696.885,232.097 L699.345,232.097 C701.625,232.157 701.925,232.517 701.925,235.097 L701.925,249.437 L701.925,251.777 L701.925,252.257 C701.865,253.157 701.805,253.517 701.565,253.817 C701.145,254.357 700.005,254.597 697.425,254.657 L697.185,254.657 L697.185,256.817 L712.305,256.817 L712.305,254.657 L712.065,254.657 C708.105,254.537 707.565,254.237 707.565,252.017 L707.565,249.437 L707.565,240.917 C707.565,235.577 710.505,231.617 714.405,231.617 C717.825,231.617 719.565,234.077 719.565,238.937 L719.565,249.437 L719.565,252.317 C719.505,253.097 719.445,253.517 719.145,253.817 C718.785,254.357 717.585,254.597 715.005,254.657 L714.765,254.657 L714.765,256.817 L729.945,256.817 L729.945,254.657 L729.705,254.657 C725.745,254.537 725.205,254.237 725.205,252.077 L725.205,249.437 L725.205,241.457 C725.205,235.457 727.905,231.617 732.105,231.617 C735.525,231.617 737.205,234.197 737.205,239.597 L737.205,249.437 L737.205,252.257 C737.145,253.097 737.085,253.517 736.785,253.817 C736.425,254.357 735.225,254.597 732.645,254.657 L732.405,254.657 L732.405,256.817 L747.585,256.817 L747.585,254.657 L747.345,254.657 C743.385,254.537 742.845,254.237 742.845,252.017 L742.845,249.437 L742.845,238.397 C742.845,234.677 742.485,233.417 740.925,231.377 C739.185,229.157 736.725,227.957 733.845,227.957 C729.945,227.957 727.065,229.817 724.485,233.957 C723.465,230.357 720.225,227.957 716.205,227.957 C712.545,227.957 709.905,229.697 707.565,233.477 L707.565,228.857 M761.193,228.857 L749.913,229.517 L749.913,232.097 L752.973,232.097 C755.253,232.157 755.553,232.517 755.553,235.097 L755.553,249.437 L755.553,252.257 C755.493,253.157 755.433,253.517 755.193,253.817 C754.773,254.357 753.633,254.597 751.053,254.657 L750.633,254.657 L750.633,256.817 L766.173,256.817 L766.173,254.657 L765.753,254.657 C761.733,254.537 761.193,254.237 761.193,252.077 L761.193,249.437 L761.193,228.857 M758.373,213.917 C756.453,213.917 754.893,215.477 754.893,217.397 C754.893,219.317 756.453,220.877 758.313,220.877 C760.293,220.877 761.853,219.317 761.853,217.397 C761.853,215.477 760.293,213.917 758.373,213.917 M779.723,228.857 L769.343,229.517 L769.343,232.097 L771.503,232.097 C773.783,232.157 774.083,232.517 774.083,235.097 L774.083,249.437 L774.083,250.877 L774.083,252.257 C774.023,253.157 773.963,253.517 773.723,253.817 C773.303,254.357 772.163,254.597 769.583,254.657 L769.343,254.657 L769.343,256.817 L784.523,256.817 L784.523,254.657 L784.283,254.657 C780.263,254.537 779.723,254.237 779.723,252.077 L779.723,249.437 L779.723,243.197 C779.723,240.257 780.143,237.557 780.803,236.177 C782.063,233.477 784.763,231.617 787.343,231.617 C788.903,231.617 790.703,232.457 791.603,233.717 C792.503,235.037 792.923,236.837 792.923,239.717 L792.923,249.437 L792.923,252.257 C792.863,253.157 792.803,253.517 792.563,253.817 C792.143,254.357 790.943,254.597 788.363,254.657 L788.123,254.657 L788.123,256.817 L803.303,256.817 L803.303,254.657 L803.063,254.657 C799.103,254.537 798.563,254.237 798.563,252.077 L798.563,249.437 L798.563,240.017 C798.563,235.697 798.383,234.617 797.303,232.577 C795.803,229.697 792.803,227.957 789.203,227.957 C785.303,227.957 782.363,229.757 779.723,233.717 L779.723,228.857 M819.5,227.957 C812.12,227.957 806.42,234.497 806.42,242.897 C806.42,251.117 812.18,257.717 819.38,257.717 C826.58,257.717 832.34,251.117 832.34,242.837 C832.34,234.617 826.58,227.957 819.5,227.957 M819.5,230.537 C823.7,230.537 826.04,234.917 826.04,242.837 C826.04,250.817 823.7,255.137 819.38,255.137 C815.06,255.137 812.72,250.817 812.72,242.897 C812.72,234.737 815,230.537 819.5,230.537 M846.26,228.857 L835.64,229.517 L835.64,232.097 L838.1,232.097 C840.38,232.157 840.68,232.517 840.68,235.097 L840.68,249.437 L840.68,252.257 C840.62,253.157 840.56,253.517 840.32,253.817 C839.9,254.357 838.7,254.597 836.12,254.657 L835.88,254.657 L835.88,256.817 L851.9,256.817 L851.9,254.657 L850.82,254.657 C846.8,254.537 846.26,254.237 846.26,252.077 L846.26,249.437 L846.26,248.837 C846.32,238.757 849.92,231.077 854.6,230.837 C853.76,231.797 853.52,232.397 853.52,233.537 C853.52,235.457 854.9,236.837 856.82,236.837 C859.04,236.837 860.48,235.217 860.48,232.817 C860.48,229.877 858.44,227.957 855.26,227.957 C851.48,227.957 848.24,230.957 846.26,236.297 L846.26,228.857 "/>
<path class="TieSegment" stroke="#000000" stroke-width="1.75" stroke-linecap="round" stroke-linejoin="round" fill-rule="evenodd" d="M2598.56,921.865 C2631.77,893.122 2731.42,893.122 2764.63,921.865 C2731.42,900.122 2631.77,900.122 2598.56,921.865"/>
<path class="TieSegment" stroke="#000000" stroke-width="1.75" stroke-linecap="round" stroke-linejoin="round" fill-rule="evenodd" d="M335.596,1527.7 C352.122,1511.64 401.698,1511.64 418.224,1527.7 C401.698,1518.64 352.122,1518.64 335.596,1527.7"/>
<path class="TieSegment" stroke="#000000" stroke-width="1.75" stroke-linecap="round" stroke-linejoin="round" fill-rule="evenodd" d="M2598.56,571.843 C2631.77,543.1 2731.42,543.1 2764.63,571.843 C2731.42,550.1 2631.77,550.1 2598.56,571.843"/>
<path class="TieSegment" stroke="#000000" stroke-width="1.75" stroke-linecap="round" stroke-linejoin="round" fill-rule="evenodd" d="M335.596,1184.38 C352.122,1168.32 401.698,1168.32 418.224,1184.38 C401.698,1175.32 352.122,1175.32 335.596,1184.38"/>
<polyline class="BarLine" stroke="#000000" stroke-width="4.50" stroke-linejoin="bevel" points="249.349,914.24 249.349,1017"/>
<polyline class="BarLine" stroke="#000000" stroke-width="4.50" stroke-linejoin="bevel" points="985.216,914.24 985.216,1017"/>
<polyline class="BarLine" stroke="#000000" stroke-width="4.50" stroke-linejoin="bevel" points="1612.32,914.24 1612.32,1017"/>
<polyline class="BarLine" stroke="#000000" stroke-width="4.50" stroke-linejoin="bevel" points="2177.29,914.24 2177.29,1017"/>
<polyline class="BarLine" stroke="#000000" stroke-width="4.50" stroke-linejoin="bevel" points="2762.38,914.24 2762.38,1017"/>
<polyline class="BarLine" stroke="#000000" stroke-width="4.50" stroke-linejoin="bevel" points="249.349,1526.78 249.349,1629.54"/>
<polyline class="BarLine" stroke="#000000" stroke-width="4.50" stroke-linejoin="bevel" points="961.397,1526.78 961.397,1629.54"/>
<polyline class="BarLine" stroke="#000000" stroke-width="4.50" stroke-linejoin="bevel" points="1524.59,1526.78 1524.59,1629.54"/>
<polyline class="BarLine" stroke="#000000" stroke-width="4.50" stroke-linejoin="bevel" points="2100.08,1526.78 2100.08,1629.54"/>
<polyline class="BarLine" stroke="#000000" stroke-width="4.50" stroke-linejoin="bevel" points="2734.88,1526.78 2734.88,1629.54"/>
<polyline class="BarLine" stroke="#000000" stroke-width="13.75" stroke-linejoin="bevel" points="2757.76,1526.78 2757.76,1629.54"/>
<polyline class="BarLine" stroke="#000000" stroke-width="4.50" stroke-linejoin="bevel" points="249.349,651.723 249.349,915.615"/>
<polyline class="BarLine" stroke="#000000" stroke-width="4.50" stroke-linejoin="bevel" points="985.216,651.723 985.216,915.615"/>
<polyline class="BarLine" stroke="#000000" stroke-width="4.50" stroke-linejoin="bevel" points="1612.32,651.723 1612.32,915.615"/>
<polyline class="BarLine" stroke="#000000" stroke-width="4.50" stroke-linejoin="bevel" points="2177.29,651.723 2177.29,915.615"/>
<polyline class="BarLine" stroke="#000000" stroke-width="4.50" stroke-linejoin="bevel" points="2762.38,651.723 2762.38,915.615"/>
<polyline class="BarLine" stroke="#000000" stroke-width="4.50" stroke-linejoin="bevel" points="249.349,1264.26 249.349,1528.15"/>
<polyline class="BarLine" stroke="#000000" stroke-width="4.50" stroke-linejoin="bevel" points="961.397,1264.26 961.397,1528.15"/>
<polyline class="BarLine" stroke="#000000" stroke-width="4.50" stroke-linejoin="bevel" points="1524.59,1264.26 1524.59,1528.15"/>
<polyline class="BarLine" stroke="#000000" stroke-width="4.50" stroke-linejoin="bevel" points="2100.08,1264.26 2100.08,1528.15"/>
<polyline class="BarLine" stroke="#000000" stroke-width="4.50" stroke-linejoin="bevel" points="2734.88,1264.26 2734.88,1528.15"/>
<polyline class="BarLine" stroke="#000000" stroke-width="13.75" stroke-linejoin="bevel" points="2757.76,1264.26 2757.76,1528.15"/>
<path class="Accidental" d="M624.542,895.214 C623.942,891.314 621.542,887.614 616.442,887.614 C611.442,887.614 608.542,890.714 608.042,891.314 L608.442,859.214 C608.442,858.414 607.842,857.814 607.042,857.814 L605.842,857.814 C605.042,857.814 604.442,858.414 604.442,859.214 L604.942,919.314 C604.942,920.114 605.542,920.714 606.342,920.714 C606.542,920.714 606.942,920.614 607.142,920.514 C607.542,920.314 614.042,917.114 619.442,911.014 C623.242,906.714 624.742,901.814 624.742,897.714 C624.742,896.814 624.642,896.014 624.542,895.214 M617.642,899.114 C617.642,900.614 617.242,905.214 614.742,909.014 C613.042,911.614 609.642,914.314 607.742,915.814 L608.042,896.314 C608.242,895.414 609.742,892.514 613.742,892.514 C617.342,892.514 617.642,895.914 617.642,898.014 L617.642,899.114 "/>
<path class="Accidental" d="M1103.77,1045.22 C1103.17,1041.32 1100.77,1037.62 1095.67,1037.62 C1090.67,1037.62 1087.77,1040.72 1087.27,1041.32 L1087.67,1009.22 C1087.67,1008.42 1087.07,1007.82 1086.27,1007.82 L1085.07,1007.82 C1084.27,1007.82 1083.67,1008.42 1083.67,1009.22 L1084.17,1069.32 C1084.17,1070.12 1084.77,1070.72 1085.57,1070.72 C1085.77,1070.72 1086.17,1070.62 1086.37,1070.52 C1086.77,1070.32 1093.27,1067.12 1098.67,1061.02 C1102.47,1056.72 1103.97,1051.82 1103.97,1047.72 C1103.97,1046.82 1103.87,1046.02 1103.77,1045.22 M1096.87,1049.12 C1096.87,1050.62 1096.47,1055.22 1093.97,1059.02 C1092.27,1061.62 1088.87,1064.32 1086.97,1065.82 L1087.27,1046.32 C1087.47,1045.42 1088.97,1042.52 1092.97,1042.52 C1096.57,1042.52 1096.87,1045.92 1096.87,1048.02 L1096.87,1049.12 "/>
<path class="Accidental" d="M1992.6,957.718 C1992,953.818 1989.6,950.118 1984.5,950.118 C1979.5,950.118 1976.6,953.218 1976.1,953.818 L1976.5,921.718 C1976.5,920.918 1975.9,920.318 1975.1,920.318 L1973.9,920.318 C1973.1,920.318 1972.5,920.918 1972.5,921.718 L1973,981.818 C1973,982.618 1973.6,983.218 1974.4,983.218 C1974.6,983.218 1975,983.118 1975.2,983.018 C1975.6,982.818 1982.1,979.618 1987.5,973.518 C1991.3,969.218 1992.8,964.318 1992.8,960.218 C1992.8,959.318 1992.7,958.518 1992.6,957.718 M1985.7,961.618 C1985.7,963.118 1985.3,967.718 1982.8,971.518 C1981.1,974.118 1977.7,976.818 1975.8,978.318 L1976.1,958.818 C1976.3,957.918 1977.8,955.018 1981.8,955.018 C1985.4,955.018 1985.7,958.418 1985.7,960.518 L1985.7,961.618 "/>
<path class="Accidental" d="M2388.29,957.718 C2387.69,953.818 2385.29,950.118 2380.19,950.118 C2375.19,950.118 2372.29,953.218 2371.79,953.818 L2372.19,921.718 C2372.19,920.918 2371.59,920.318 2370.79,920.318 L2369.59,920.318 C2368.79,920.318 2368.19,920.918 2368.19,921.718 L2368.69,981.818 C2368.69,982.618 2369.29,983.218 2370.09,983.218 C2370.29,983.218 2370.69,983.118 2370.89,983.018 C2371.29,982.818 2377.79,979.618 2383.19,973.518 C2386.99,969.218 2388.49,964.318 2388.49,960.218 C2388.49,959.318 2388.39,958.518 2388.29,957.718 M2381.39,961.618 C2381.39,963.118 2380.99,967.718 2378.49,971.518 C2376.79,974.118 2373.39,976.818 2371.49,978.318 L2371.79,958.818 C2371.99,957.918 2373.49,955.018 2377.49,955.018 C2381.09,955.018 2381.39,958.418 2381.39,960.518 L2381.39,961.618 "/>
<path class="Accidental" d="M584.501,1570.26 C583.901,1566.36 581.501,1562.66 576.401,1562.66 C571.401,1562.66 568.501,1565.76 568.001,1566.36 L568.401,1534.26 C568.401,1533.46 567.801,1532.86 567.001,1532.86 L565.801,1532.86 C565.001,1532.86 564.401,1533.46 564.401,1534.26 L564.901,1594.36 C564.901,1595.16 565.501,1595.76 566.301,1595.76 C566.501,1595.76 566.901,1595.66 567.101,1595.56 C567.501,1595.36 574.001,1592.16 579.401,1586.06 C583.201,1581.76 584.701,1576.86 584.701,1572.76 C584.701,1571.86 584.601,1571.06 584.501,1570.26 M577.601,1574.16 C577.601,1575.66 577.201,1580.26 574.701,1584.06 C573.001,1586.66 569.601,1589.36 567.701,1590.86 L568.001,1571.36 C568.201,1570.46 569.701,1567.56 573.701,1567.56 C577.301,1567.56 577.601,1570.96 577.601,1573.06 L577.601,1574.16 "/>
<path class="Accidental" d="M1014.25,1570.26 C1013.65,1566.36 1011.25,1562.66 1006.15,1562.66 C1001.15,1562.66 998.249,1565.76 997.749,1566.36 L998.149,1534.26 C998.149,1533.46 997.549,1532.86 996.749,1532.86 L995.549,1532.86 C994.749,1532.86 994.149,1533.46 994.149,1534.26 L994.649,1594.36 C994.649,1595.16 995.249,1595.76 996.049,1595.76 C996.249,1595.76 996.649,1595.66 996.849,1595.56 C997.249,1595.36 1003.75,1592.16 1009.15,1586.06 C1012.95,1581.76 1014.45,1576.86 1014.45,1572.76 C1014.45,1571.86 1014.35,1571.06 1014.25,1570.26 M1007.35,1574.16 C1007.35,1575.66 1006.95,1580.26 1004.45,1584.06 C1002.75,1586.66 999.349,1589.36 997.449,1590.86 L997.749,1571.36 C997.949,1570.46 999.449,1567.56 1003.45,1567.56 C1007.05,1567.56 1007.35,1570.96 1007.35,1573.06 L1007.35,1574.16 "/>
<path class="Accidental" d="M1903.14,1657.76 C1902.54,1653.86 1900.14,1650.16 1895.04,1650.16 C1890.04,1650.16 1887.14,1653.26 1886.64,1653.86 L1887.04,1621.76 C1887.04,1620.96 1886.44,1620.36 1885.64,1620.36 L1884.44,1620.36 C1883.64,1620.36 1883.04,1620.96 1883.04,1621.76 L1883.54,1681.86 C1883.54,1682.66 1884.14,1683.26 1884.94,1683.26 C1885.14,1683.26 1885.54,1683.16 1885.74,1683.06 C1886.14,1682.86 1892.64,1679.66 1898.04,1673.56 C1901.84,1669.26 1903.34,1664.36 1903.34,1660.26 C1903.34,1659.36 1903.24,1658.56 1903.14,1657.76 M1896.24,1661.66 C1896.24,1663.16 1895.84,1667.76 1893.34,1671.56 C1891.64,1674.16 1888.24,1676.86 1886.34,1678.36 L1886.64,1658.86 C1886.84,1657.96 1888.34,1655.06 1892.34,1655.06 C1895.94,1655.06 1896.24,1658.46 1896.24,1660.56 L1896.24,1661.66 "/>
<path class="Accidental" d="M2371.4,1507.75 C2370.8,1503.85 2368.4,1500.15 2363.3,1500.15 C2358.3,1500.15 2355.4,1503.25 2354.9,1503.85 L2355.3,1471.75 C2355.3,1470.95 2354.7,1470.35 2353.9,1470.35 L2352.7,1470.35 C2351.9,1470.35 2351.3,1470.95 2351.3,1471.75 L2351.8,1531.85 C2351.8,1532.65 2352.4,1533.25 2353.2,1533.25 C2353.4,1533.25 2353.8,1533.15 2354,1533.05 C2354.4,1532.85 2360.9,1529.65 2366.3,1523.55 C2370.1,1519.25 2371.6,1514.35 2371.6,1510.25 C2371.6,1509.35 2371.5,1508.55 2371.4,1507.75 M2364.5,1511.65 C2364.5,1513.15 2364.1,1517.75 2361.6,1521.55 C2359.9,1524.15 2356.5,1526.85 2354.6,1528.35 L2354.9,1508.85 C2355.1,1507.95 2356.6,1505.05 2360.6,1505.05 C2364.2,1505.05 2364.5,1508.45 2364.5,1510.55 L2364.5,1511.65 "/>
<path class="Accidental" d="M624.542,695.202 C623.942,691.302 621.542,687.602 616.442,687.602 C611.442,687.602 608.542,690.702 608.042,691.302 L608.442,659.202 C608.442,658.402 607.842,657.802 607.042,657.802 L605.842,657.802 C605.042,657.802 604.442,658.402 604.442,659.202 L604.942,719.302 C604.942,720.102 605.542,720.702 606.342,720.702 C606.542,720.702 606.942,720.602 607.142,720.502 C607.542,720.302 614.042,717.102 619.442,711.002 C623.242,706.702 624.742,701.802 624.742,697.702 C624.742,696.802 624.642,696.002 624.542,695.202 M617.642,699.102 C617.642,700.602 617.242,705.202 614.742,709.002 C613.042,711.602 609.642,714.302 607.742,715.802 L608.042,696.302 C608.242,695.402 609.742,692.502 613.742,692.502 C617.342,692.502 617.642,695.902 617.642,698.002 L617.642,699.102 "/>
<path class="Accidental" d="M1112.52,695.202 C1111.92,691.302 1109.52,687.602 1104.42,687.602 C1099.42,687.602 1096.52,690.702 1096.02,691.302 L1096.42,659.202 C1096.42,658.402 1095.82,657.802 1095.02,657.802 L1093.82,657.802 C1093.02,657.802 1092.42,658.402 1092.42,659.202 L1092.92,719.302 C1092.92,720.102 1093.52,720.702 1094.32,720.702 C1094.52,720.702 1094.92,720.602 1095.12,720.502 C1095.52,720.302 1102.02,717.102 1107.42,711.002 C1111.22,706.702 1112.72,701.802 1112.72,697.702 C1112.72,696.802 1112.62,696.002 1112.52,695.202 M1105.62,699.102 C1105.62,700.602 1105.22,705.202 1102.72,709.002 C1101.02,711.602 1097.62,714.302 1095.72,715.802 L1096.02,696.302 C1096.22,695.402 1097.72,692.502 1101.72,692.502 C1105.32,692.502 1105.62,695.902 1105.62,698.002 L1105.62,699.102 "/>
<path class="Accidental" d="M1983.85,607.696 C1983.25,603.796 1980.85,600.096 1975.75,600.096 C1970.75,600.096 1967.85,603.196 1967.35,603.796 L1967.75,571.696 C1967.75,570.896 1967.15,570.296 1966.35,570.296 L1965.15,570.296 C1964.35,570.296 1963.75,570.896 1963.75,571.696 L1964.25,631.796 C1964.25,632.596 1964.85,633.196 1965.65,633.196 C1965.85,633.196 1966.25,633.096 1966.45,632.996 C1966.85,632.796 1973.35,629.596 1978.75,623.496 C1982.55,619.196 1984.05,614.296 1984.05,610.196 C1984.05,609.296 1983.95,608.496 1983.85,607.696 M1976.95,611.596 C1976.95,613.096 1976.55,617.696 1974.05,621.496 C1972.35,624.096 1968.95,626.796 1967.05,628.296 L1967.35,608.796 C1967.55,607.896 1969.05,604.996 1973.05,604.996 C1976.65,604.996 1976.95,608.396 1976.95,610.496 L1976.95,611.596 "/>
<path class="Accidental" d="M2379.54,607.696 C2378.94,603.796 2376.54,600.096 2371.44,600.096 C2366.44,600.096 2363.54,603.196 2363.04,603.796 L2363.44,571.696 C2363.44,570.896 2362.84,570.296 2362.04,570.296 L2360.84,570.296 C2360.04,570.296 2359.44,570.896 2359.44,571.696 L2359.94,631.796 C2359.94,632.596 2360.54,633.196 2361.34,633.196 C2361.54,633.196 2361.94,633.096 2362.14,632.996 C2362.54,632.796 2369.04,629.596 2374.44,623.496 C2378.24,619.196 2379.74,614.296 2379.74,610.196 C2379.74,609.296 2379.64,608.496 2379.54,607.696 M2372.64,611.596 C2372.64,613.096 2372.24,617.696 2369.74,621.496 C2368.04,624.096 2364.64,626.796 2362.74,628.296 L2363.04,608.796 C2363.24,607.896 2364.74,604.996 2368.74,604.996 C2372.34,604.996 2372.64,608.396 2372.64,610.496 L2372.64,611.596 "/>
<path class="Accidental" d="M575.75,1220.23 C575.15,1216.33 572.75,1212.63 567.65,1212.63 C562.65,1212.63 559.75,1215.73 559.25,1216.33 L559.65,1184.23 C559.65,1183.43 559.05,1182.83 558.25,1182.83 L557.05,1182.83 C556.25,1182.83 555.65,1183.43 555.65,1184.23 L556.15,1244.33 C556.15,1245.13 556.75,1245.73 557.55,1245.73 C557.75,1245.73 558.15,1245.63 558.35,1245.53 C558.75,1245.33 565.25,1242.13 570.65,1236.03 C574.45,1231.73 575.95,1226.83 575.95,1222.73 C575.95,1221.83 575.85,1221.03 575.75,1220.23 M568.85,1224.13 C568.85,1225.63 568.45,1230.23 565.95,1234.03 C564.25,1236.63 560.85,1239.33 558.95,1240.83 L559.25,1221.33 C559.45,1220.43 560.95,1217.53 564.95,1217.53 C568.55,1217.53 568.85,1220.93 568.85,1223.03 L568.85,1224.13 "/>
<path class="Accidental" d="M1005.5,1220.23 C1004.9,1216.33 1002.5,1212.63 997.399,1212.63 C992.399,1212.63 989.499,1215.73 988.999,1216.33 L989.399,1184.23 C989.399,1183.43 988.799,1182.83 987.999,1182.83 L986.799,1182.83 C985.999,1182.83 985.399,1183.43 985.399,1184.23 L985.899,1244.33 C985.899,1245.13 986.499,1245.73 987.299,1245.73 C987.499,1245.73 987.899,1245.63 988.099,1245.53 C988.499,1245.33 994.999,1242.13 1000.4,1236.03 C1004.2,1231.73 1005.7,1226.83 1005.7,1222.73 C1005.7,1221.83 1005.6,1221.03 1005.5,1220.23 M998.599,1224.13 C998.599,1225.63 998.199,1230.23 995.699,1234.03 C993.999,1236.63 990.599,1239.33 988.699,1240.83 L988.999,1221.33 C989.199,1220.43 990.699,1217.53 994.699,1217.53 C998.299,1217.53 998.599,1220.93 998.599,1223.03 L998.599,1224.13 "/>
<path class="Accidental" d="M1911.89,1307.74 C1911.29,1303.84 1908.89,1300.14 1903.79,1300.14 C1898.79,1300.14 1895.89,1303.24 1895.39,1303.84 L1895.79,1271.74 C1895.79,1270.94 1895.19,1270.34 1894.39,1270.34 L1893.19,1270.34 C1892.39,1270.34 1891.79,1270.94 1891.79,1271.74 L1892.29,1331.84 C1892.29,1332.64 1892.89,1333.24 1893.69,1333.24 C1893.89,1333.24 1894.29,1333.14 1894.49,1333.04 C1894.89,1332.84 1901.39,1329.64 1906.79,1323.54 C1910.59,1319.24 1912.09,1314.34 1912.09,1310.24 C1912.09,1309.34 1911.99,1308.54 1911.89,1307.74 M1904.99,1311.64 C1904.99,1313.14 1904.59,1317.74 1902.09,1321.54 C1900.39,1324.14 1896.99,1326.84 1895.09,1328.34 L1895.39,1308.84 C1895.59,1307.94 1897.09,1305.04 1901.09,1305.04 C1904.69,1305.04 1904.99,1308.44 1904.99,1310.54 L1904.99,1311.64 "/>
<path class="Accidental" d="M2371.4,1307.74 C2370.8,1303.84 2368.4,1300.14 2363.3,1300.14 C2358.3,1300.14 2355.4,1303.24 2354.9,1303.84 L2355.3,1271.74 C2355.3,1270.94 2354.7,1270.34 2353.9,1270.34 L2352.7,1270.34 C2351.9,1270.34 2351.3,1270.94 2351.3,1271.74 L2351.8,1331.84 C2351.8,1332.64 2352.4,1333.24 2353.2,1333.24 C2353.4,1333.24 2353.8,1333.14 2354,1333.04 C2354.4,1332.84 2360.9,1329.64 2366.3,1323.54 C2370.1,1319.24 2371.6,1314.34 2371.6,1310.24 C2371.6,1309.34 2371.5,1308.54 2371.4,1307.74 M2364.5,1311.64 C2364.5,1313.14 2364.1,1317.74 2361.6,1321.54 C2359.9,1324.14 2356.5,1326.84 2354.6,1328.34 L2354.9,1308.84 C2355.1,1307.94 2356.6,1305.04 2360.6,1305.04 C2364.2,1305.04 2364.5,1308.44 2364.5,1310.54 L2364.5,1311.64 "/>
<polyline class="LedgerLine" stroke="#000000" stroke-width="4.00" stroke-linejoin="bevel" points="798.228,890.613 848.223,890.613"/>
<polyline class="LedgerLine" stroke="#000000" stroke-width="4.00" stroke-linejoin="bevel" points="1110.21,1040.62 1160.21,1040.62"/>
<polyline class="LedgerLine" stroke="#000000" stroke-width="4.00" stroke-linejoin="bevel" points="1909.59,1653.16 1959.58,1653.16"/>
<polyline class="LedgerLine" stroke="#000000" stroke-width="4.00" stroke-linejoin="bevel" points="2191.71,1503.15 2241.7,1503.15"/>
<polyline class="LedgerLine" stroke="#000000" stroke-width="4.00" stroke-linejoin="bevel" points="1990.3,628.097 2040.3,628.097"/>
<polyline class="LedgerLine" stroke="#000000" stroke-width="4.00" stroke-linejoin="bevel" points="2385.99,628.097 2435.98,628.097"/>
<polyline class="LedgerLine" stroke="#000000" stroke-width="4.00" stroke-linejoin="bevel" points="2568.68,628.097 2618.68,628.097"/>
<polyline class="LedgerLine" stroke="#000000" stroke-width="4.00" stroke-linejoin="bevel" points="2568.68,603.095 2618.68,603.095"/>
<polyline class="LedgerLine" stroke="#000000" stroke-width="4.00" stroke-linejoin="bevel" points="398.1,1240.64 448.096,1240.64"/>
<polyline class="LedgerLine" stroke="#000000" stroke-width="4.00" stroke-linejoin="bevel" points="398.1,1215.63 448.096,1215.63"/>
<polyline class="LedgerLine" stroke="#000000" stroke-width="4.00" stroke-linejoin="bevel" points="582.199,1240.64 632.194,1240.64"/>
<polyline class="LedgerLine" stroke="#000000" stroke-width="4.00" stroke-linejoin="bevel" points="1011.95,1240.64 1061.94,1240.64"/>
<polyline class="Stem" stroke="#000000" stroke-width="2.75" stroke-linejoin="bevel" points="456.377,931.636 456.377,1015.62"/>
<polyline class="Stem" stroke="#000000" stroke-width="2.75" stroke-linejoin="bevel" points="632.365,906.634 632.365,990.62"/>
<polyline class="Stem" stroke="#000000" stroke-width="2.75" stroke-linejoin="bevel" points="808.353,881.633 808.353,965.618"/>
<polyline class="Stem" stroke="#000000" stroke-width="2.75" stroke-linejoin="bevel" points="1150.08,1049.76 1150.08,965.618"/>
<polyline class="Stem" stroke="#000000" stroke-width="2.75" stroke-linejoin="bevel" points="1313.79,1024.76 1313.79,940.617"/>
<polyline class="Stem" stroke="#000000" stroke-width="2.75" stroke-linejoin="bevel" points="1477.49,987.26 1477.49,906.239"/>
<polyline class="Stem" stroke="#000000" stroke-width="2.75" stroke-linejoin="bevel" points="1678.19,1024.76 1678.19,940.617"/>
<polyline class="Stem" stroke="#000000" stroke-width="2.75" stroke-linejoin="bevel" points="1854.18,987.26 1854.18,906.239"/>
<polyline class="Stem" stroke="#000000" stroke-width="2.75" stroke-linejoin="bevel" points="2000.43,969.138 2000.43,1043.75"/>
<polyline class="Stem" stroke="#000000" stroke-width="2.75" stroke-linejoin="bevel" points="2243.16,987.26 2243.16,906.239"/>
<polyline class="Stem" stroke="#000000" stroke-width="2.75" stroke-linejoin="bevel" points="2396.11,969.138 2396.11,1043.75"/>
<polyline class="Stem" stroke="#000000" stroke-width="2.75" stroke-linejoin="bevel" points="2578.81,944.137 2578.81,1025"/>
<polyline class="Stem" stroke="#000000" stroke-width="2.75" stroke-linejoin="bevel" points="408.226,1556.68 408.226,1637.54"/>
<polyline class="Stem" stroke="#000000" stroke-width="2.75" stroke-linejoin="bevel" points="592.325,1581.68 592.325,1656.29"/>
<polyline class="Stem" stroke="#000000" stroke-width="2.75" stroke-linejoin="bevel" points="806.167,1599.8 806.167,1518.78"/>
<polyline class="Stem" stroke="#000000" stroke-width="2.75" stroke-linejoin="bevel" points="1022.07,1581.68 1022.07,1656.29"/>
<polyline class="Stem" stroke="#000000" stroke-width="2.75" stroke-linejoin="bevel" points="1219.03,1599.8 1219.03,1518.78"/>
<polyline class="Stem" stroke="#000000" stroke-width="2.75" stroke-linejoin="bevel" points="1386.24,1637.3 1386.24,1553.16"/>
<polyline class="Stem" stroke="#000000" stroke-width="2.75" stroke-linejoin="bevel" points="1590.46,1599.8 1590.46,1518.78"/>
<polyline class="Stem" stroke="#000000" stroke-width="2.75" stroke-linejoin="bevel" points="1769.96,1637.3 1769.96,1553.16"/>
<polyline class="Stem" stroke="#000000" stroke-width="2.75" stroke-linejoin="bevel" points="1949.45,1662.3 1949.45,1578.16"/>
<polyline class="Stem" stroke="#000000" stroke-width="2.75" stroke-linejoin="bevel" points="2201.83,1494.17 2201.83,1578.16"/>
<polyline class="Stem" stroke="#000000" stroke-width="2.75" stroke-linejoin="bevel" points="2379.22,1519.17 2379.22,1603.16"/>
<polyline class="Stem" stroke="#000000" stroke-width="2.75" stroke-linejoin="bevel" points="2556.61,1544.17 2556.61,1628.16"/>
<polyline class="Stem" stroke="#000000" stroke-width="2.75" stroke-linejoin="bevel" points="486.121,724.743 486.121,643.723"/>
<polyline class="Stem" stroke="#000000" stroke-width="2.75" stroke-linejoin="bevel" points="632.365,706.622 632.365,781.232"/>
<polyline class="Stem" stroke="#000000" stroke-width="2.75" stroke-linejoin="bevel" points="808.353,681.62 808.353,762.48"/>
<polyline class="Stem" stroke="#000000" stroke-width="2.75" stroke-linejoin="bevel" points="1120.34,706.622 1120.34,781.232"/>
<polyline class="Stem" stroke="#000000" stroke-width="2.75" stroke-linejoin="bevel" points="1284.04,681.62 1284.04,762.48"/>
<polyline class="Stem" stroke="#000000" stroke-width="2.75" stroke-linejoin="bevel" points="1447.75,644.118 1447.75,728.103"/>
<polyline class="Stem" stroke="#000000" stroke-width="2.75" stroke-linejoin="bevel" points="1648.45,681.62 1648.45,762.48"/>
<polyline class="Stem" stroke="#000000" stroke-width="2.75" stroke-linejoin="bevel" points="1824.44,644.118 1824.44,728.103"/>
<polyline class="Stem" stroke="#000000" stroke-width="2.75" stroke-linejoin="bevel" points="2000.43,619.116 2000.43,703.102"/>
<polyline class="Stem" stroke="#000000" stroke-width="2.75" stroke-linejoin="bevel" points="2213.42,644.118 2213.42,728.103"/>
<polyline class="Stem" stroke="#000000" stroke-width="2.75" stroke-linejoin="bevel" points="2396.11,619.116 2396.11,703.102"/>
<polyline class="Stem" stroke="#000000" stroke-width="2.75" stroke-linejoin="bevel" points="2578.81,594.115 2578.81,703.102"/>
<polyline class="Stem" stroke="#000000" stroke-width="2.75" stroke-linejoin="bevel" points="408.226,1206.65 408.226,1315.64"/>
<polyline class="Stem" stroke="#000000" stroke-width="2.75" stroke-linejoin="bevel" points="592.325,1231.65 592.325,1315.64"/>
<polyline class="Stem" stroke="#000000" stroke-width="2.75" stroke-linejoin="bevel" points="776.423,1256.66 776.423,1340.64"/>
<polyline class="Stem" stroke="#000000" stroke-width="2.75" stroke-linejoin="bevel" points="1022.07,1231.65 1022.07,1315.64"/>
<polyline class="Stem" stroke="#000000" stroke-width="2.75" stroke-linejoin="bevel" points="1189.29,1256.66 1189.29,1340.64"/>
<polyline class="Stem" stroke="#000000" stroke-width="2.75" stroke-linejoin="bevel" points="1356.5,1294.16 1356.5,1375.02"/>
<polyline class="Stem" stroke="#000000" stroke-width="2.75" stroke-linejoin="bevel" points="1560.71,1256.66 1560.71,1340.64"/>
<polyline class="Stem" stroke="#000000" stroke-width="2.75" stroke-linejoin="bevel" points="1740.21,1294.16 1740.21,1375.02"/>
<polyline class="Stem" stroke="#000000" stroke-width="2.75" stroke-linejoin="bevel" points="1919.71,1319.16 1919.71,1393.77"/>
<polyline class="Stem" stroke="#000000" stroke-width="2.75" stroke-linejoin="bevel" points="2201.83,1294.16 2201.83,1375.02"/>
<polyline class="Stem" stroke="#000000" stroke-width="2.75" stroke-linejoin="bevel" points="2379.22,1319.16 2379.22,1393.77"/>
<polyline class="Stem" stroke="#000000" stroke-width="2.75" stroke-linejoin="bevel" points="2586.36,1337.28 2586.36,1256.26"/>
<path class="Note" d="M486.502,919.916 C485.002,917.216 482.102,915.516 478.202,915.116 C477.602,915.016 477.102,915.016 476.502,915.016 C473.002,915.016 469.202,916.016 465.702,917.916 C459.102,921.516 455.002,927.416 455.002,932.516 C455.002,933.916 455.202,935.216 455.902,936.416 C457.402,939.116 460.402,940.816 464.302,941.216 C464.902,941.316 465.402,941.316 466.002,941.316 C469.502,941.316 473.202,940.316 476.702,938.416 C483.302,934.816 487.502,929.016 487.502,923.916 C487.502,922.516 487.202,921.116 486.502,919.916"/>
<path class="Note" d="M662.49,894.914 C660.99,892.214 658.09,890.514 654.19,890.114 C653.59,890.014 653.09,890.014 652.49,890.014 C648.99,890.014 645.19,891.014 641.69,892.914 C635.09,896.514 630.99,902.414 630.99,907.514 C630.99,908.914 631.19,910.214 631.89,911.414 C633.39,914.114 636.39,915.814 640.29,916.214 C640.89,916.314 641.39,916.314 641.99,916.314 C645.49,916.314 649.19,915.314 652.69,913.414 C659.29,909.814 663.49,904.014 663.49,898.914 C663.49,897.514 663.19,896.114 662.49,894.914"/>
<path class="Note" d="M838.478,869.913 C836.978,867.213 834.078,865.513 830.178,865.113 C829.578,865.013 829.078,865.013 828.478,865.013 C824.978,865.013 821.178,866.013 817.678,867.913 C811.078,871.513 806.978,877.413 806.978,882.513 C806.978,883.913 807.178,885.213 807.878,886.413 C809.378,889.113 812.378,890.813 816.278,891.213 C816.878,891.313 817.378,891.313 817.978,891.313 C821.478,891.313 825.178,890.313 828.678,888.413 C835.278,884.813 839.478,879.013 839.478,873.913 C839.478,872.513 839.178,871.113 838.478,869.913"/>
<path class="Note" d="M1150.47,1044.92 C1148.97,1042.22 1146.07,1040.52 1142.17,1040.12 C1141.57,1040.02 1141.07,1040.02 1140.47,1040.02 C1136.97,1040.02 1133.17,1041.02 1129.67,1042.92 C1123.07,1046.52 1118.97,1052.42 1118.97,1057.52 C1118.97,1058.92 1119.17,1060.22 1119.87,1061.42 C1121.37,1064.12 1124.37,1065.82 1128.27,1066.22 C1128.87,1066.32 1129.37,1066.32 1129.97,1066.32 C1133.47,1066.32 1137.17,1065.32 1140.67,1063.42 C1147.27,1059.82 1151.47,1054.02 1151.47,1048.92 C1151.47,1047.52 1151.17,1046.12 1150.47,1044.92"/>
<path class="Note" d="M1314.17,1019.92 C1312.67,1017.22 1309.77,1015.52 1305.87,1015.12 C1305.27,1015.02 1304.77,1015.02 1304.17,1015.02 C1300.67,1015.02 1296.87,1016.02 1293.37,1017.92 C1286.77,1021.52 1282.67,1027.42 1282.67,1032.52 C1282.67,1033.92 1282.87,1035.22 1283.57,1036.42 C1285.07,1039.12 1288.07,1040.82 1291.97,1041.22 C1292.57,1041.32 1293.07,1041.32 1293.67,1041.32 C1297.17,1041.32 1300.87,1040.32 1304.37,1038.42 C1310.97,1034.82 1315.17,1029.02 1315.17,1023.92 C1315.17,1022.52 1314.87,1021.12 1314.17,1019.92"/>
<path class="Note" d="M1477.87,982.42 C1476.37,979.72 1473.47,978.02 1469.57,977.62 C1468.97,977.52 1468.47,977.52 1467.87,977.52 C1464.37,977.52 1460.57,978.52 1457.07,980.42 C1450.47,984.02 1446.37,989.92 1446.37,995.02 C1446.37,996.42 1446.57,997.72 1447.27,998.92 C1448.77,1001.62 1451.77,1003.32 1455.67,1003.72 C1456.27,1003.82 1456.77,1003.82 1457.37,1003.82 C1460.87,1003.82 1464.57,1002.82 1468.07,1000.92 C1474.67,997.32 1478.87,991.52 1478.87,986.42 C1478.87,985.02 1478.57,983.62 1477.87,982.42"/>
<path class="Note" d="M1678.57,1019.92 C1677.07,1017.22 1674.17,1015.52 1670.27,1015.12 C1669.67,1015.02 1669.17,1015.02 1668.57,1015.02 C1665.07,1015.02 1661.27,1016.02 1657.77,1017.92 C1651.17,1021.52 1647.07,1027.42 1647.07,1032.52 C1647.07,1033.92 1647.27,1035.22 1647.97,1036.42 C1649.47,1039.12 1652.47,1040.82 1656.37,1041.22 C1656.97,1041.32 1657.47,1041.32 1658.07,1041.32 C1661.57,1041.32 1665.27,1040.32 1668.77,1038.42 C1675.37,1034.82 1679.57,1029.02 1679.57,1023.92 C1679.57,1022.52 1679.27,1021.12 1678.57,1019.92"/>
<path class="Note" d="M1854.56,982.42 C1853.06,979.72 1850.16,978.02 1846.26,977.62 C1845.66,977.52 1845.16,977.52 1844.56,977.52 C1841.06,977.52 1837.26,978.52 1833.76,980.42 C1827.16,984.02 1823.06,989.92 1823.06,995.02 C1823.06,996.42 1823.26,997.72 1823.96,998.92 C1825.46,1001.62 1828.46,1003.32 1832.36,1003.72 C1832.96,1003.82 1833.46,1003.82 1834.06,1003.82 C1837.56,1003.82 1841.26,1002.82 1844.76,1000.92 C1851.36,997.32 1855.56,991.52 1855.56,986.42 C1855.56,985.02 1855.26,983.62 1854.56,982.42"/>
<path class="Note" d="M2030.55,957.418 C2029.05,954.718 2026.15,953.018 2022.25,952.618 C2021.65,952.518 2021.15,952.518 2020.55,952.518 C2017.05,952.518 2013.25,953.518 2009.75,955.418 C2003.15,959.018 1999.05,964.918 1999.05,970.018 C1999.05,971.418 1999.25,972.718 1999.95,973.918 C2001.45,976.618 2004.45,978.318 2008.35,978.718 C2008.95,978.818 2009.45,978.818 2010.05,978.818 C2013.55,978.818 2017.25,977.818 2020.75,975.918 C2027.35,972.318 2031.55,966.518 2031.55,961.418 C2031.55,960.018 2031.25,958.618 2030.55,957.418"/>
<path class="Note" d="M2243.54,982.42 C2242.04,979.72 2239.14,978.02 2235.24,977.62 C2234.64,977.52 2234.14,977.52 2233.54,977.52 C2230.04,977.52 2226.24,978.52 2222.74,980.42 C2216.14,984.02 2212.04,989.92 2212.04,995.02 C2212.04,996.42 2212.24,997.72 2212.94,998.92 C2214.44,1001.62 2217.44,1003.32 2221.34,1003.72 C2221.94,1003.82 2222.44,1003.82 2223.04,1003.82 C2226.54,1003.82 2230.24,1002.82 2233.74,1000.92 C2240.34,997.32 2244.54,991.52 2244.54,986.42 C2244.54,985.02 2244.24,983.62 2243.54,982.42"/>
<path class="Note" d="M2426.24,957.418 C2424.74,954.718 2421.84,953.018 2417.94,952.618 C2417.34,952.518 2416.84,952.518 2416.24,952.518 C2412.74,952.518 2408.94,953.518 2405.44,955.418 C2398.84,959.018 2394.74,964.918 2394.74,970.018 C2394.74,971.418 2394.94,972.718 2395.64,973.918 C2397.14,976.618 2400.14,978.318 2404.04,978.718 C2404.64,978.818 2405.14,978.818 2405.74,978.818 C2409.24,978.818 2412.94,977.818 2416.44,975.918 C2423.04,972.318 2427.24,966.518 2427.24,961.418 C2427.24,960.018 2426.94,958.618 2426.24,957.418"/>
<path class="Note" d="M2608.93,932.417 C2607.43,929.717 2604.53,928.017 2600.63,927.617 C2600.03,927.517 2599.53,927.517 2598.93,927.517 C2595.43,927.517 2591.63,928.517 2588.13,930.417 C2581.53,934.017 2577.43,939.917 2577.43,945.017 C2577.43,946.417 2577.63,947.717 2578.33,948.917 C2579.83,951.617 2582.83,953.317 2586.73,953.717 C2587.33,953.817 2587.83,953.817 2588.43,953.817 C2591.93,953.817 2595.63,952.817 2599.13,950.917 C2605.73,947.317 2609.93,941.517 2609.93,936.417 C2609.93,935.017 2609.63,933.617 2608.93,932.417"/>
<path class="Note" d="M438.351,1544.96 C436.851,1542.26 433.951,1540.56 430.051,1540.16 C429.451,1540.06 428.951,1540.06 428.351,1540.06 C424.851,1540.06 421.051,1541.06 417.551,1542.96 C410.951,1546.56 406.851,1552.46 406.851,1557.56 C406.851,1558.96 407.051,1560.26 407.751,1561.46 C409.251,1564.16 412.251,1565.86 416.151,1566.26 C416.751,1566.36 417.251,1566.36 417.851,1566.36 C421.351,1566.36 425.051,1565.36 428.551,1563.46 C435.151,1559.86 439.351,1554.06 439.351,1548.96 C439.351,1547.56 439.051,1546.16 438.351,1544.96"/>
<path class="Note" d="M622.45,1569.96 C620.95,1567.26 618.05,1565.56 614.15,1565.16 C613.55,1565.06 613.05,1565.06 612.45,1565.06 C608.95,1565.06 605.15,1566.06 601.65,1567.96 C595.05,1571.56 590.95,1577.46 590.95,1582.56 C590.95,1583.96 591.15,1585.26 591.85,1586.46 C593.35,1589.16 596.35,1590.86 600.25,1591.26 C600.85,1591.36 601.35,1591.36 601.95,1591.36 C605.45,1591.36 609.15,1590.36 612.65,1588.46 C619.25,1584.86 623.45,1579.06 623.45,1573.96 C623.45,1572.56 623.15,1571.16 622.45,1569.96"/>
<path class="Note" d="M806.548,1594.96 C805.048,1592.26 802.148,1590.56 798.248,1590.16 C797.648,1590.06 797.148,1590.06 796.548,1590.06 C793.048,1590.06 789.248,1591.06 785.748,1592.96 C779.148,1596.56 775.048,1602.46 775.048,1607.56 C775.048,1608.96 775.248,1610.26 775.948,1611.46 C777.448,1614.16 780.448,1615.86 784.348,1616.26 C784.948,1616.36 785.448,1616.36 786.048,1616.36 C789.548,1616.36 793.248,1615.36 796.748,1613.46 C803.348,1609.86 807.548,1604.06 807.548,1598.96 C807.548,1597.56 807.248,1596.16 806.548,1594.96"/>
<path class="Note" d="M1052.2,1569.96 C1050.7,1567.26 1047.8,1565.56 1043.9,1565.16 C1043.3,1565.06 1042.8,1565.06 1042.2,1565.06 C1038.7,1565.06 1034.9,1566.06 1031.4,1567.96 C1024.8,1571.56 1020.7,1577.46 1020.7,1582.56 C1020.7,1583.96 1020.9,1585.26 1021.6,1586.46 C1023.1,1589.16 1026.1,1590.86 1030,1591.26 C1030.6,1591.36 1031.1,1591.36 1031.7,1591.36 C1035.2,1591.36 1038.9,1590.36 1042.4,1588.46 C1049,1584.86 1053.2,1579.06 1053.2,1573.96 C1053.2,1572.56 1052.9,1571.16 1052.2,1569.96"/>
<path class="Note" d="M1219.41,1594.96 C1217.91,1592.26 1215.01,1590.56 1211.11,1590.16 C1210.51,1590.06 1210.01,1590.06 1209.41,1590.06 C1205.91,1590.06 1202.11,1591.06 1198.61,1592.96 C1192.01,1596.56 1187.91,1602.46 1187.91,1607.56 C1187.91,1608.96 1188.11,1610.26 1188.81,1611.46 C1190.31,1614.16 1193.31,1615.86 1197.21,1616.26 C1197.81,1616.36 1198.31,1616.36 1198.91,1616.36 C1202.41,1616.36 1206.11,1615.36 1209.61,1613.46 C1216.21,1609.86 1220.41,1604.06 1220.41,1598.96 C1220.41,1597.56 1220.11,1596.16 1219.41,1594.96"/>
<path class="Note" d="M1386.62,1632.46 C1385.12,1629.76 1382.22,1628.06 1378.32,1627.66 C1377.72,1627.56 1377.22,1627.56 1376.62,1627.56 C1373.12,1627.56 1369.32,1628.56 1365.82,1630.46 C1359.22,1634.06 1355.12,1639.96 1355.12,1645.06 C1355.12,1646.46 1355.32,1647.76 1356.02,1648.96 C1357.52,1651.66 1360.52,1653.36 1364.42,1653.76 C1365.02,1653.86 1365.52,1653.86 1366.12,1653.86 C1369.62,1653.86 1373.32,1652.86 1376.82,1650.96 C1383.42,1647.36 1387.62,1641.56 1387.62,1636.46 C1387.62,1635.06 1387.32,1633.66 1386.62,1632.46"/>
<path class="Note" d="M1590.84,1594.96 C1589.34,1592.26 1586.44,1590.56 1582.54,1590.16 C1581.94,1590.06 1581.44,1590.06 1580.84,1590.06 C1577.34,1590.06 1573.54,1591.06 1570.04,1592.96 C1563.44,1596.56 1559.34,1602.46 1559.34,1607.56 C1559.34,1608.96 1559.54,1610.26 1560.24,1611.46 C1561.74,1614.16 1564.74,1615.86 1568.64,1616.26 C1569.24,1616.36 1569.74,1616.36 1570.34,1616.36 C1573.84,1616.36 1577.54,1615.36 1581.04,1613.46 C1587.64,1609.86 1591.84,1604.06 1591.84,1598.96 C1591.84,1597.56 1591.54,1596.16 1590.84,1594.96"/>
<path class="Note" d="M1770.34,1632.46 C1768.84,1629.76 1765.94,1628.06 1762.04,1627.66 C1761.44,1627.56 1760.94,1627.56 1760.34,1627.56 C1756.84,1627.56 1753.04,1628.56 1749.54,1630.46 C1742.94,1634.06 1738.84,1639.96 1738.84,1645.06 C1738.84,1646.46 1739.04,1647.76 1739.74,1648.96 C1741.24,1651.66 1744.24,1653.36 1748.14,1653.76 C1748.74,1653.86 1749.24,1653.86 1749.84,1653.86 C1753.34,1653.86 1757.04,1652.86 1760.54,1650.96 C1767.14,1647.36 1771.34,1641.56 1771.34,1636.46 C1771.34,1635.06 1771.04,1633.66 1770.34,1632.46"/>
<path class="Note" d="M1949.84,1657.46 C1948.34,1654.76 1945.44,1653.06 1941.54,1652.66 C1940.94,1652.56 1940.44,1652.56 1939.84,1652.56 C1936.34,1652.56 1932.54,1653.56 1929.04,1655.46 C1922.44,1659.06 1918.34,1664.96 1918.34,1670.06 C1918.34,1671.46 1918.54,1672.76 1919.24,1673.96 C1920.74,1676.66 1923.74,1678.36 1927.64,1678.76 C1928.24,1678.86 1928.74,1678.86 1929.34,1678.86 C1932.84,1678.86 1936.54,1677.86 1940.04,1675.96 C1946.64,1672.36 1950.84,1666.56 1950.84,1661.46 C1950.84,1660.06 1950.54,1658.66 1949.84,1657.46"/>
<path class="Note" d="M2231.96,1482.45 C2230.46,1479.75 2227.56,1478.05 2223.66,1477.65 C2223.06,1477.55 2222.56,1477.55 2221.96,1477.55 C2218.46,1477.55 2214.66,1478.55 2211.16,1480.45 C2204.56,1484.05 2200.46,1489.95 2200.46,1495.05 C2200.46,1496.45 2200.66,1497.75 2201.36,1498.95 C2202.86,1501.65 2205.86,1503.35 2209.76,1503.75 C2210.36,1503.85 2210.86,1503.85 2211.46,1503.85 C2214.96,1503.85 2218.66,1502.85 2222.16,1500.95 C2228.76,1497.35 2232.96,1491.55 2232.96,1486.45 C2232.96,1485.05 2232.66,1483.65 2231.96,1482.45"/>
<path class="Note" d="M2409.35,1507.45 C2407.85,1504.75 2404.95,1503.05 2401.05,1502.65 C2400.45,1502.55 2399.95,1502.55 2399.35,1502.55 C2395.85,1502.55 2392.05,1503.55 2388.55,1505.45 C2381.95,1509.05 2377.85,1514.95 2377.85,1520.05 C2377.85,1521.45 2378.05,1522.75 2378.75,1523.95 C2380.25,1526.65 2383.25,1528.35 2387.15,1528.75 C2387.75,1528.85 2388.25,1528.85 2388.85,1528.85 C2392.35,1528.85 2396.05,1527.85 2399.55,1525.95 C2406.15,1522.35 2410.35,1516.55 2410.35,1511.45 C2410.35,1510.05 2410.05,1508.65 2409.35,1507.45"/>
<path class="Note" d="M2586.74,1532.45 C2585.24,1529.75 2582.34,1528.05 2578.44,1527.65 C2577.84,1527.55 2577.34,1527.55 2576.74,1527.55 C2573.24,1527.55 2569.44,1528.55 2565.94,1530.45 C2559.34,1534.05 2555.24,1539.95 2555.24,1545.05 C2555.24,1546.45 2555.44,1547.75 2556.14,1548.95 C2557.64,1551.65 2560.64,1553.35 2564.54,1553.75 C2565.14,1553.85 2565.64,1553.85 2566.24,1553.85 C2569.74,1553.85 2573.44,1552.85 2576.94,1550.95 C2583.54,1547.35 2587.74,1541.55 2587.74,1536.45 C2587.74,1535.05 2587.44,1533.65 2586.74,1532.45"/>
<path class="Note" d="M486.502,719.903 C485.002,717.203 482.102,715.503 478.202,715.103 C477.602,715.003 477.102,715.003 476.502,715.003 C473.002,715.003 469.202,716.003 465.702,717.903 C459.102,721.503 455.002,727.403 455.002,732.503 C455.002,733.903 455.202,735.203 455.902,736.403 C457.402,739.103 460.402,740.803 464.302,741.203 C464.902,741.303 465.402,741.303 466.002,741.303 C469.502,741.303 473.202,740.303 476.702,738.403 C483.302,734.803 487.502,729.003 487.502,723.903 C487.502,722.503 487.202,721.103 486.502,719.903"/>
<path class="Note" d="M662.49,694.902 C660.99,692.202 658.09,690.502 654.19,690.102 C653.59,690.002 653.09,690.002 652.49,690.002 C648.99,690.002 645.19,691.002 641.69,692.902 C635.09,696.502 630.99,702.402 630.99,707.502 C630.99,708.902 631.19,710.202 631.89,711.402 C633.39,714.102 636.39,715.802 640.29,716.202 C640.89,716.302 641.39,716.302 641.99,716.302 C645.49,716.302 649.19,715.302 652.69,713.402 C659.29,709.802 663.49,704.002 663.49,698.902 C663.49,697.502 663.19,696.102 662.49,694.902"/>
<path class="Note" d="M838.478,669.9 C836.978,667.2 834.078,665.5 830.178,665.1 C829.578,665 829.078,665 828.478,665 C824.978,665 821.178,666 817.678,667.9 C811.078,671.5 806.978,677.4 806.978,682.5 C806.978,683.9 807.178,685.2 807.878,686.4 C809.378,689.1 812.378,690.8 816.278,691.2 C816.878,691.3 817.378,691.3 817.978,691.3 C821.478,691.3 825.178,690.3 828.678,688.4 C835.278,684.8 839.478,679 839.478,673.9 C839.478,672.5 839.178,671.1 838.478,669.9"/>
<path class="Note" d="M1150.47,694.902 C1148.97,692.202 1146.07,690.502 1142.17,690.102 C1141.57,690.002 1141.07,690.002 1140.47,690.002 C1136.97,690.002 1133.17,691.002 1129.67,692.902 C1123.07,696.502 1118.97,702.402 1118.97,707.502 C1118.97,708.902 1119.17,710.202 1119.87,711.402 C1121.37,714.102 1124.37,715.802 1128.27,716.202 C1128.87,716.302 1129.37,716.302 1129.97,716.302 C1133.47,716.302 1137.17,715.302 1140.67,713.402 C1147.27,709.802 1151.47,704.002 1151.47,698.902 C1151.47,697.502 1151.17,696.102 1150.47,694.902"/>
<path class="Note" d="M1314.17,669.9 C1312.67,667.2 1309.77,665.5 1305.87,665.1 C1305.27,665 1304.77,665 1304.17,665 C1300.67,665 1296.87,666 1293.37,667.9 C1286.77,671.5 1282.67,677.4 1282.67,682.5 C1282.67,683.9 1282.87,685.2 1283.57,686.4 C1285.07,689.1 1288.07,690.8 1291.97,691.2 C1292.57,691.3 1293.07,691.3 1293.67,691.3 C1297.17,691.3 1300.87,690.3 1304.37,688.4 C1310.97,684.8 1315.17,679 1315.17,673.9 C1315.17,672.5 1314.87,671.1 1314.17,669.9"/>
<path class="Note" d="M1477.87,632.398 C1476.37,629.698 1473.47,627.998 1469.57,627.598 C1468.97,627.498 1468.47,627.498 1467.87,627.498 C1464.37,627.498 1460.57,628.498 1457.07,630.398 C1450.47,633.998 1446.37,639.898 1446.37,644.998 C1446.37,646.398 1446.57,647.698 1447.27,648.898 C1448.77,651.598 1451.77,653.298 1455.67,653.698 C1456.27,653.798 1456.77,653.798 1457.37,653.798 C1460.87,653.798 1464.57,652.798 1468.07,650.898 C1474.67,647.298 1478.87,641.498 1478.87,636.398 C1478.87,634.998 1478.57,633.598 1477.87,632.398"/>
<path class="Note" d="M1678.57,669.9 C1677.07,667.2 1674.17,665.5 1670.27,665.1 C1669.67,665 1669.17,665 1668.57,665 C1665.07,665 1661.27,666 1657.77,667.9 C1651.17,671.5 1647.07,677.4 1647.07,682.5 C1647.07,683.9 1647.27,685.2 1647.97,686.4 C1649.47,689.1 1652.47,690.8 1656.37,691.2 C1656.97,691.3 1657.47,691.3 1658.07,691.3 C1661.57,691.3 1665.27,690.3 1668.77,688.4 C1675.37,684.8 1679.57,679 1679.57,673.9 C1679.57,672.5 1679.27,671.1 1678.57,669.9"/>
<path class="Note" d="M1854.56,632.398 C1853.06,629.698 1850.16,627.998 1846.26,627.598 C1845.66,627.498 1845.16,627.498 1844.56,627.498 C1841.06,627.498 1837.26,628.498 1833.76,630.398 C1827.16,633.998 1823.06,639.898 1823.06,644.998 C1823.06,646.398 1823.26,647.698 1823.96,648.898 C1825.46,651.598 1828.46,653.298 1832.36,653.698 C1832.96,653.798 1833.46,653.798 1834.06,653.798 C1837.56,653.798 1841.26,652.798 1844.76,650.898 C1851.36,647.298 1855.56,641.498 1855.56,636.398 C1855.56,634.998 1855.26,633.598 1854.56,632.398"/>
<path class="Note" d="M2030.55,607.396 C2029.05,604.696 2026.15,602.996 2022.25,602.596 C2021.65,602.496 2021.15,602.496 2020.55,602.496 C2017.05,602.496 2013.25,603.496 2009.75,605.396 C2003.15,608.996 1999.05,614.896 1999.05,619.996 C1999.05,621.396 1999.25,622.696 1999.95,623.896 C2001.45,626.596 2004.45,628.296 2008.35,628.696 C2008.95,628.796 2009.45,628.796 2010.05,628.796 C2013.55,628.796 2017.25,627.796 2020.75,625.896 C2027.35,622.296 2031.55,616.496 2031.55,611.396 C2031.55,609.996 2031.25,608.596 2030.55,607.396"/>
<path class="Note" d="M2243.54,632.398 C2242.04,629.698 2239.14,627.998 2235.24,627.598 C2234.64,627.498 2234.14,627.498 2233.54,627.498 C2230.04,627.498 2226.24,628.498 2222.74,630.398 C2216.14,633.998 2212.04,639.898 2212.04,644.998 C2212.04,646.398 2212.24,647.698 2212.94,648.898 C2214.44,651.598 2217.44,653.298 2221.34,653.698 C2221.94,653.798 2222.44,653.798 2223.04,653.798 C2226.54,653.798 2230.24,652.798 2233.74,650.898 C2240.34,647.298 2244.54,641.498 2244.54,636.398 C2244.54,634.998 2244.24,633.598 2243.54,632.398"/>
<path class="Note" d="M2426.24,607.396 C2424.74,604.696 2421.84,602.996 2417.94,602.596 C2417.34,602.496 2416.84,602.496 2416.24,602.496 C2412.74,602.496 2408.94,603.496 2405.44,605.396 C2398.84,608.996 2394.74,614.896 2394.74,619.996 C2394.74,621.396 2394.94,622.696 2395.64,623.896 C2397.14,626.596 2400.14,628.296 2404.04,628.696 C2404.64,628.796 2405.14,628.796 2405.74,628.796 C2409.24,628.796 2412.94,627.796 2416.44,625.896 C2423.04,622.296 2427.24,616.496 2427.24,611.396 C2427.24,609.996 2426.94,608.596 2426.24,607.396"/>
<path class="Note" d="M2608.93,582.395 C2607.43,579.695 2604.53,577.995 2600.63,577.595 C2600.03,577.495 2599.53,577.495 2598.93,577.495 C2595.43,577.495 2591.63,578.495 2588.13,580.395 C2581.53,583.995 2577.43,589.895 2577.43,594.995 C2577.43,596.395 2577.63,597.695 2578.33,598.895 C2579.83,601.595 2582.83,603.295 2586.73,603.695 C2587.33,603.795 2587.83,603.795 2588.43,603.795 C2591.93,603.795 2595.63,602.795 2599.13,600.895 C2605.73,597.295 2609.93,591.495 2609.93,586.395 C2609.93,584.995 2609.63,583.595 2608.93,582.395"/>
<path class="Note" d="M438.351,1194.93 C436.851,1192.23 433.951,1190.53 430.051,1190.13 C429.451,1190.03 428.951,1190.03 428.351,1190.03 C424.851,1190.03 421.051,1191.03 417.551,1192.93 C410.951,1196.53 406.851,1202.43 406.851,1207.53 C406.851,1208.93 407.051,1210.23 407.751,1211.43 C409.251,1214.13 412.251,1215.83 416.151,1216.23 C416.751,1216.33 417.251,1216.33 417.851,1216.33 C421.351,1216.33 425.051,1215.33 428.551,1213.43 C435.151,1209.83 439.351,1204.03 439.351,1198.93 C439.351,1197.53 439.051,1196.13 438.351,1194.93"/>
<path class="Note" d="M622.45,1219.93 C620.95,1217.23 618.05,1215.53 614.15,1215.13 C613.55,1215.03 613.05,1215.03 612.45,1215.03 C608.95,1215.03 605.15,1216.03 601.65,1217.93 C595.05,1221.53 590.95,1227.43 590.95,1232.53 C590.95,1233.93 591.15,1235.23 591.85,1236.43 C593.35,1239.13 596.35,1240.83 600.25,1241.23 C600.85,1241.33 601.35,1241.33 601.95,1241.33 C605.45,1241.33 609.15,1240.33 612.65,1238.43 C619.25,1234.83 623.45,1229.03 623.45,1223.93 C623.45,1222.53 623.15,1221.13 622.45,1219.93"/>
<path class="Note" d="M806.548,1244.94 C805.048,1242.24 802.148,1240.54 798.248,1240.14 C797.648,1240.04 797.148,1240.04 796.548,1240.04 C793.048,1240.04 789.248,1241.04 785.748,1242.94 C779.148,1246.54 775.048,1252.44 775.048,1257.54 C775.048,1258.94 775.248,1260.24 775.948,1261.44 C777.448,1264.14 780.448,1265.84 784.348,1266.24 C784.948,1266.34 785.448,1266.34 786.048,1266.34 C789.548,1266.34 793.248,1265.34 796.748,1263.44 C803.348,1259.84 807.548,1254.04 807.548,1248.94 C807.548,1247.54 807.248,1246.14 806.548,1244.94"/>
<path class="Note" d="M1052.2,1219.93 C1050.7,1217.23 1047.8,1215.53 1043.9,1215.13 C1043.3,1215.03 1042.8,1215.03 1042.2,1215.03 C1038.7,1215.03 1034.9,1216.03 1031.4,1217.93 C1024.8,1221.53 1020.7,1227.43 1020.7,1232.53 C1020.7,1233.93 1020.9,1235.23 1021.6,1236.43 C1023.1,1239.13 1026.1,1240.83 1030,1241.23 C1030.6,1241.33 1031.1,1241.33 1031.7,1241.33 C1035.2,1241.33 1038.9,1240.33 1042.4,1238.43 C1049,1234.83 1053.2,1229.03 1053.2,1223.93 C1053.2,1222.53 1052.9,1221.13 1052.2,1219.93"/>
<path class="Note" d="M1219.41,1244.94 C1217.91,1242.24 1215.01,1240.54 1211.11,1240.14 C1210.51,1240.04 1210.01,1240.04 1209.41,1240.04 C1205.91,1240.04 1202.11,1241.04 1198.61,1242.94 C1192.01,1246.54 1187.91,1252.44 1187.91,1257.54 C1187.91,1258.94 1188.11,1260.24 1188.81,1261.44 C1190.31,1264.14 1193.31,1265.84 1197.21,1266.24 C1197.81,1266.34 1198.31,1266.34 1198.91,1266.34 C1202.41,1266.34 1206.11,1265.34 1209.61,1263.44 C1216.21,1259.84 1220.41,1254.04 1220.41,1248.94 C1220.41,1247.54 1220.11,1246.14 1219.41,1244.94"/>
<path class="Note" d="M1386.62,1282.44 C1385.12,1279.74 1382.22,1278.04 1378.32,1277.64 C1377.72,1277.54 1377.22,1277.54 1376.62,1277.54 C1373.12,1277.54 1369.32,1278.54 1365.82,1280.44 C1359.22,1284.04 1355.12,1289.94 1355.12,1295.04 C1355.12,1296.44 1355.32,1297.74 1356.02,1298.94 C1357.52,1301.64 1360.52,1303.34 1364.42,1303.74 C1365.02,1303.84 1365.52,1303.84 1366.12,1303.84 C1369.62,1303.84 1373.32,1302.84 1376.82,1300.94 C1383.42,1297.34 1387.62,1291.54 1387.62,1286.44 C1387.62,1285.04 1387.32,1283.64 1386.62,1282.44"/>
<path class="Note" d="M1590.84,1244.94 C1589.34,1242.24 1586.44,1240.54 1582.54,1240.14 C1581.94,1240.04 1581.44,1240.04 1580.84,1240.04 C1577.34,1240.04 1573.54,1241.04 1570.04,1242.94 C1563.44,1246.54 1559.34,1252.44 1559.34,1257.54 C1559.34,1258.94 1559.54,1260.24 1560.24,1261.44 C1561.74,1264.14 1564.74,1265.84 1568.64,1266.24 C1569.24,1266.34 1569.74,1266.34 1570.34,1266.34 C1573.84,1266.34 1577.54,1265.34 1581.04,1263.44 C1587.64,1259.84 1591.84,1254.04 1591.84,1248.94 C1591.84,1247.54 1591.54,1246.14 1590.84,1244.94"/>
<path class="Note" d="M1770.34,1282.44 C1768.84,1279.74 1765.94,1278.04 1762.04,1277.64 C1761.44,1277.54 1760.94,1277.54 1760.34,1277.54 C1756.84,1277.54 1753.04,1278.54 1749.54,1280.44 C1742.94,1284.04 1738.84,1289.94 1738.84,1295.04 C1738.84,1296.44 1739.04,1297.74 1739.74,1298.94 C1741.24,1301.64 1744.24,1303.34 1748.14,1303.74 C1748.74,1303.84 1749.24,1303.84 1749.84,1303.84 C1753.34,1303.84 1757.04,1302.84 1760.54,1300.94 C1767.14,1297.34 1771.34,1291.54 1771.34,1286.44 C1771.34,1285.04 1771.04,1283.64 1770.34,1282.44"/>
<path class="Note" d="M1949.84,1307.44 C1948.34,1304.74 1945.44,1303.04 1941.54,1302.64 C1940.94,1302.54 1940.44,1302.54 1939.84,1302.54 C1936.34,1302.54 1932.54,1303.54 1929.04,1305.44 C1922.44,1309.04 1918.34,1314.94 1918.34,1320.04 C1918.34,1321.44 1918.54,1322.74 1919.24,1323.94 C1920.74,1326.64 1923.74,1328.34 1927.64,1328.74 C1928.24,1328.84 1928.74,1328.84 1929.34,1328.84 C1932.84,1328.84 1936.54,1327.84 1940.04,1325.94 C1946.64,1322.34 1950.84,1316.54 1950.84,1311.44 C1950.84,1310.04 1950.54,1308.64 1949.84,1307.44"/>
<path class="Note" d="M2231.96,1282.44 C2230.46,1279.74 2227.56,1278.04 2223.66,1277.64 C2223.06,1277.54 2222.56,1277.54 2221.96,1277.54 C2218.46,1277.54 2214.66,1278.54 2211.16,1280.44 C2204.56,1284.04 2200.46,1289.94 2200.46,1295.04 C2200.46,1296.44 2200.66,1297.74 2201.36,1298.94 C2202.86,1301.64 2205.86,1303.34 2209.76,1303.74 C2210.36,1303.84 2210.86,1303.84 2211.46,1303.84 C2214.96,1303.84 2218.66,1302.84 2222.16,1300.94 C2228.76,1297.34 2232.96,1291.54 2232.96,1286.44 C2232.96,1285.04 2232.66,1283.64 2231.96,1282.44"/>
<path class="Note" d="M2409.35,1307.44 C2407.85,1304.74 2404.95,1303.04 2401.05,1302.64 C2400.45,1302.54 2399.95,1302.54 2399.35,1302.54 C2395.85,1302.54 2392.05,1303.54 2388.55,1305.44 C2381.95,1309.04 2377.85,1314.94 2377.85,1320.04 C2377.85,1321.44 2378.05,1322.74 2378.75,1323.94 C2380.25,1326.64 2383.25,1328.34 2387.15,1328.74 C2387.75,1328.84 2388.25,1328.84 2388.85,1328.84 C2392.35,1328.84 2396.05,1327.84 2399.55,1325.94 C2406.15,1322.34 2410.35,1316.54 2410.35,1311.44 C2410.35,1310.04 2410.05,1308.64 2409.35,1307.44"/>
<path class="Note" d="M2586.74,1332.44 C2585.24,1329.74 2582.34,1328.04 2578.44,1327.64 C2577.84,1327.54 2577.34,1327.54 2576.74,1327.54 C2573.24,1327.54 2569.44,1328.54 2565.94,1330.44 C2559.34,1334.04 2555.24,1339.94 2555.24,1345.04 C2555.24,1346.44 2555.44,1347.74 2556.14,1348.94 C2557.64,1351.64 2560.64,1353.34 2564.54,1353.74 C2565.14,1353.84 2565.64,1353.84 2566.24,1353.84 C2569.74,1353.84 2573.44,1352.84 2576.94,1350.94 C2583.54,1347.34 2587.74,1341.54 2587.74,1336.44 C2587.74,1335.04 2587.44,1333.64 2586.74,1332.44"/>
<path class="Clef" d="M297,915.517 C289.4,915.517 283.3,919.917 283.2,919.917 C277.4,924.217 275.1,929.317 274.2,932.817 C273.7,934.617 273.5,936.417 273.5,938.117 C273.5,940.517 273.9,942.717 274.8,944.617 C276,947.317 278.3,949.217 281.3,950.217 C282.5,950.617 283.8,950.817 285.1,950.817 C287.3,950.817 289.6,950.217 291.5,949.117 C294.6,947.417 296.5,943.817 296.5,939.917 C296.5,936.417 294.7,933.217 291.7,931.317 C289.6,929.917 287.6,929.517 285.9,929.517 C284.7,929.517 283.6,929.717 282.7,930.017 C281.7,930.417 280,931.417 279.2,932.117 C279.5,930.217 280.7,927.317 281.8,925.717 C282.9,924.117 285.1,922.117 286.8,921.217 C289.3,919.817 292.5,919.217 296,919.217 C306.2,919.217 311.2,927.417 311.2,944.217 C311.2,953.517 307.7,962.417 304.7,968.317 C301.4,974.917 297,981.217 293.1,984.717 C282.7,994.217 272.9,998.717 272.8,998.717 C272.8,998.717 271.3,999.617 271.7,1001.12 C272,1002.12 272.9,1002.32 273.5,1002.32 C273.6,1002.32 273.9,1002.22 274,1002.22 C274.1,1002.22 285.5,997.517 294.6,990.417 C299.7,986.717 304.3,982.717 308.3,978.417 C311.9,974.517 315,970.317 317.5,966.117 C321.9,958.617 324.4,950.817 324.4,944.117 C324.4,935.817 322.2,928.917 318.1,924.017 C313.4,918.417 306.3,915.517 297,915.517 M328.4,928.217 C328.4,931.017 330.6,933.217 333.2,933.217 C335.8,933.217 338,931.017 338,928.217 C338,925.417 335.8,923.117 333.2,923.117 C330.6,923.117 328.4,925.417 328.4,928.217 M328.4,952.917 C328.4,955.717 330.6,958.017 333.2,958.017 C335.8,958.017 338,955.717 338,952.917 C338,950.117 335.8,947.817 333.2,947.817 C330.6,947.817 328.4,950.117 328.4,952.917"/>
<path class="Clef" transform="matrix(0.80005,0,0,0.80005,1007.47,990.62)" d="M63.4,-5.9 C62.2,-11.3 59.5,-15.2 58.7,-16.2 C55.5,-20.5 51.5,-23.3 46.8,-24.7 C44.5,-25.4 42.4,-25.6 40.4,-25.6 C39.7,-25.6 39,-25.6 38.3,-25.5 C37.3,-31.5 36.2,-37.4 35.3,-42.8 C40.9,-49 44.6,-54.9 47,-59.3 C50.6,-66 52,-70.7 52.1,-70.9 C53.3,-73.9 54,-77.7 54,-82.2 C54,-84.9 53.7,-87.8 53.3,-90.8 C52.2,-97.9 50,-104.6 47.5,-108.3 C46.2,-110.2 45,-111.3 43.8,-111.3 C42.6,-111.3 40.1,-110.1 37.2,-107.3 C34.9,-105.1 31.6,-101.2 29,-95.2 C26.7,-89.8 26,-82.9 26,-77 C26,-75.2 26.1,-73.5 26.2,-71.9 C26.4,-68.3 27.1,-62.5 27.7,-58.9 C27.7,-58.8 28,-57.3 28.4,-54.7 L27.7,-54 C26.7,-53 25.5,-51.9 24.1,-50.5 C23.2,-49.6 22.3,-48.8 21.3,-47.8 C12.8,-39.6 0,-27.2 0,-8.1 C0,-3.4 0.9,1 2.7,5 C4.3,8.6 6.6,11.9 9.5,14.8 C17,22.2 27.2,25.4 34.3,25.4 L34.9,25.4 C37.8,25.3 40.5,25 42.9,24.6 C44.7,34.2 45.9,41.3 45.9,46.6 C45.9,53.1 44.3,57 40.4,59.8 C38,61.5 35.1,62.6 32,62.7 L31.2,62.7 C29.7,62.7 27.2,62.3 25.7,61.9 C25.7,61.9 25.4,61.8 25.4,61.6 C25.4,61.4 25.8,61.4 25.8,61.4 C27.7,61 31.3,59.7 33.7,56.4 C34.8,54.9 35.5,52.6 35.5,50.1 C35.5,48.5 35.2,46.8 34.5,45.3 C33.4,42.9 30.8,39.9 25.2,39.5 L24.1,39.5 C22,39.5 20.2,40 18.5,41 C16.7,42.1 15.1,43.8 14.1,45.8 C13,47.8 12.5,50 12.5,52.2 C12.5,55.1 13.4,57.8 15.2,60 C18.2,63.6 22.9,65.9 28.3,66.5 C29,66.6 30.1,66.7 30.8,66.7 C35.2,66.7 39.6,65.5 43.2,63.3 C46.9,60.7 49,56.7 49.7,51.1 C49.9,49.8 49.9,48.4 49.9,46.9 C49.9,43 49.4,38.3 48.4,32.5 C48,30.4 47.6,27.4 46.9,23.6 C52.7,21.7 56.8,18 60.6,12.2 C62.9,8.2 64,4.1 64,-0.2 C64,-2.1 63.8,-4 63.4,-5.9 M33.2,-83.8 C35,-89.5 37.7,-92.9 39.7,-94.6 C41.5,-96.1 43.1,-96.8 44,-96.8 C44.1,-96.8 44.3,-96.7 44.4,-96.7 C44.7,-96.6 45.1,-96.1 45.5,-95.4 C46.4,-93.6 47.3,-90.3 47.3,-86.6 C47.3,-84.7 47.1,-82.7 46.5,-80.9 C44.3,-74.1 39.7,-66.8 32.7,-59.1 C32.5,-60.2 32.3,-61.2 32.2,-62.2 C31.7,-65.4 31.4,-68.6 31.4,-71.5 C31.4,-76 32,-80.1 33.2,-83.8 M29.2,20.3 C24.6,19.1 20.1,16.6 16.3,13.1 C15,11.9 13.2,9.7 11.7,6.3 C10.4,3.3 9.7,0.2 9.7,-3.2 L9.7,-3.9 C9.8,-8.6 11.1,-13.4 13.6,-18.2 C16.5,-23.8 21,-29.3 27.1,-34.6 C28.6,-35.9 30,-37.2 31.3,-38.5 C32.1,-34.2 32.8,-29.5 33.7,-24.6 C29.8,-23.3 25.1,-20.3 22,-14.6 C19.6,-10.1 18.9,-6.2 18.9,-3 C18.9,-1.5 19.1,-0.1 19.3,1 C20.2,5.5 22.8,9.2 26.3,11.3 C27.1,11.8 30.4,13.5 32.4,13.5 C32.7,13.5 33,13.5 33.2,13.4 C33.5,13.3 33.8,13.1 33.9,12.8 C34,12.6 34,12.4 34,12.2 C34,11.4 33.2,10.8 31.9,10 C31.3,9.6 30.6,9.2 29.9,8.7 C27.3,6.7 25.8,3.6 25.8,0.2 C25.8,-0.8 26,-1.7 26.2,-2.7 C26.7,-4.7 28.4,-7.5 29.9,-8.9 C31.6,-10.4 33.6,-11.6 36,-12.2 C38,-1 40.1,10.1 41.7,18.5 C41.8,19.2 42,19.9 42.1,20.6 C40.1,21 38.1,21.2 36.2,21.2 C33.8,21.2 31.5,20.9 29.2,20.3 M54.9,10.1 C53.7,13.3 51.2,17.3 46.1,19.4 C46,19 46,18.5 45.9,18.1 C44.4,9.3 42.5,-1.6 40.5,-12.9 L41.5,-12.9 C51.2,-12.9 55.1,-5.7 56,-1.1 C56.2,-0.2 56.3,1 56.3,2.3 C56.3,4.6 55.9,7.4 54.9,10.1"/>
<path class="Clef" d="M335,1597.26 C333.8,1591.86 331.1,1587.96 330.3,1586.96 C327.1,1582.66 323.1,1579.86 318.4,1578.46 C316.1,1577.76 314,1577.56 312,1577.56 C311.3,1577.56 310.6,1577.56 309.9,1577.66 C308.9,1571.66 307.8,1565.76 306.9,1560.36 C312.5,1554.16 316.2,1548.26 318.6,1543.86 C322.2,1537.16 323.6,1532.46 323.7,1532.26 C324.9,1529.26 325.6,1525.46 325.6,1520.96 C325.6,1518.26 325.3,1515.36 324.9,1512.36 C323.8,1505.26 321.6,1498.56 319.1,1494.86 C317.8,1492.96 316.6,1491.86 315.4,1491.86 C314.2,1491.86 311.7,1493.06 308.8,1495.86 C306.5,1498.06 303.2,1501.96 300.6,1507.96 C298.3,1513.36 297.6,1520.26 297.6,1526.16 C297.6,1527.96 297.7,1529.66 297.8,1531.26 C298,1534.86 298.7,1540.66 299.3,1544.26 C299.3,1544.36 299.6,1545.86 300,1548.46 L299.3,1549.16 C298.3,1550.16 297.1,1551.26 295.7,1552.66 C294.8,1553.56 293.9,1554.36 292.9,1555.36 C284.4,1563.56 271.6,1575.96 271.6,1595.06 C271.6,1599.76 272.5,1604.16 274.3,1608.16 C275.9,1611.76 278.2,1615.06 281.1,1617.96 C288.6,1625.36 298.8,1628.56 305.9,1628.56 L306.5,1628.56 C309.4,1628.46 312.1,1628.16 314.5,1627.76 C316.3,1637.36 317.5,1644.46 317.5,1649.76 C317.5,1656.26 315.9,1660.16 312,1662.96 C309.6,1664.66 306.7,1665.76 303.6,1665.86 L302.8,1665.86 C301.3,1665.86 298.8,1665.46 297.3,1665.06 C297.3,1665.06 297,1664.96 297,1664.76 C297,1664.56 297.4,1664.56 297.4,1664.56 C299.3,1664.16 302.9,1662.86 305.3,1659.56 C306.4,1658.06 307.1,1655.76 307.1,1653.26 C307.1,1651.66 306.8,1649.96 306.1,1648.46 C305,1646.06 302.4,1643.06 296.8,1642.66 L295.7,1642.66 C293.6,1642.66 291.8,1643.16 290.1,1644.16 C288.3,1645.26 286.7,1646.96 285.7,1648.96 C284.6,1650.96 284.1,1653.16 284.1,1655.36 C284.1,1658.26 285,1660.96 286.8,1663.16 C289.8,1666.76 294.5,1669.06 299.9,1669.66 C300.6,1669.76 301.7,1669.86 302.4,1669.86 C306.8,1669.86 311.2,1668.66 314.8,1666.46 C318.5,1663.86 320.6,1659.86 321.3,1654.26 C321.5,1652.96 321.5,1651.56 321.5,1650.06 C321.5,1646.16 321,1641.46 320,1635.66 C319.6,1633.56 319.2,1630.56 318.5,1626.76 C324.3,1624.86 328.4,1621.16 332.2,1615.36 C334.5,1611.36 335.6,1607.26 335.6,1602.96 C335.6,1601.06 335.4,1599.16 335,1597.26 M304.8,1519.36 C306.6,1513.66 309.3,1510.26 311.3,1508.56 C313.1,1507.06 314.7,1506.36 315.6,1506.36 C315.7,1506.36 315.9,1506.46 316,1506.46 C316.3,1506.56 316.7,1507.06 317.1,1507.76 C318,1509.56 318.9,1512.86 318.9,1516.56 C318.9,1518.46 318.7,1520.46 318.1,1522.26 C315.9,1529.06 311.3,1536.36 304.3,1544.06 C304.1,1542.96 303.9,1541.96 303.8,1540.96 C303.3,1537.76 303,1534.56 303,1531.66 C303,1527.16 303.6,1523.06 304.8,1519.36 M300.8,1623.46 C296.2,1622.26 291.7,1619.76 287.9,1616.26 C286.6,1615.06 284.8,1612.86 283.3,1609.46 C282,1606.46 281.3,1603.36 281.3,1599.96 L281.3,1599.26 C281.4,1594.56 282.7,1589.76 285.2,1584.96 C288.1,1579.36 292.6,1573.86 298.7,1568.56 C300.2,1567.26 301.6,1565.96 302.9,1564.66 C303.7,1568.96 304.4,1573.66 305.3,1578.56 C301.4,1579.86 296.7,1582.86 293.6,1588.56 C291.2,1593.06 290.5,1596.96 290.5,1600.16 C290.5,1601.66 290.7,1603.06 290.9,1604.16 C291.8,1608.66 294.4,1612.36 297.9,1614.46 C298.7,1614.96 302,1616.66 304,1616.66 C304.3,1616.66 304.6,1616.66 304.8,1616.56 C305.1,1616.46 305.4,1616.26 305.5,1615.96 C305.6,1615.76 305.6,1615.56 305.6,1615.36 C305.6,1614.56 304.8,1613.96 303.5,1613.16 C302.9,1612.76 302.2,1612.36 301.5,1611.86 C298.9,1609.86 297.4,1606.76 297.4,1603.36 C297.4,1602.36 297.6,1601.46 297.8,1600.46 C298.3,1598.46 300,1595.66 301.5,1594.26 C303.2,1592.76 305.2,1591.56 307.6,1590.96 C309.6,1602.16 311.7,1613.26 313.3,1621.66 C313.4,1622.36 313.6,1623.06 313.7,1623.76 C311.7,1624.16 309.7,1624.36 307.8,1624.36 C305.4,1624.36 303.1,1624.06 300.8,1623.46 M326.5,1613.26 C325.3,1616.46 322.8,1620.46 317.7,1622.56 C317.6,1622.16 317.6,1621.66 317.5,1621.26 C316,1612.46 314.1,1601.56 312.1,1590.26 L313.1,1590.26 C322.8,1590.26 326.7,1597.46 327.6,1602.06 C327.8,1602.96 327.9,1604.16 327.9,1605.46 C327.9,1607.76 327.5,1610.56 326.5,1613.26"/>
<path class="Clef" transform="matrix(0.80005,0,0,0.80005,2122.34,1553.16)" d="M25.4,-25.1 C17.8,-25.1 11.7,-20.7 11.6,-20.7 C5.8,-16.4 3.5,-11.3 2.6,-7.8 C2.1,-6 1.9,-4.2 1.9,-2.5 C1.9,-0.1 2.3,2.1 3.2,4 C4.4,6.7 6.7,8.6 9.7,9.6 C10.9,10 12.2,10.2 13.5,10.2 C15.7,10.2 18,9.6 19.9,8.5 C23,6.8 24.9,3.2 24.9,-0.7 C24.9,-4.2 23.1,-7.4 20.1,-9.3 C18,-10.7 16,-11.1 14.3,-11.1 C13.1,-11.1 12,-10.9 11.1,-10.6 C10.1,-10.2 8.4,-9.2 7.6,-8.5 C7.9,-10.4 9.1,-13.3 10.2,-14.9 C11.3,-16.5 13.5,-18.5 15.2,-19.4 C17.7,-20.8 20.9,-21.4 24.4,-21.4 C34.6,-21.4 39.6,-13.2 39.6,3.6 C39.6,12.9 36.1,21.8 33.1,27.7 C29.8,34.3 25.4,40.6 21.5,44.1 C11.1,53.6 1.3,58.1 1.2,58.1 C1.2,58.1 -0.3,59 0.1,60.5 C0.4,61.5 1.3,61.7 1.9,61.7 C2,61.7 2.3,61.6 2.4,61.6 C2.5,61.6 13.9,56.9 23,49.8 C28.1,46.1 32.7,42.1 36.7,37.8 C40.3,33.9 43.4,29.7 45.9,25.5 C50.3,18 52.8,10.2 52.8,3.5 C52.8,-4.8 50.6,-11.7 46.5,-16.6 C41.8,-22.2 34.7,-25.1 25.4,-25.1 M56.8,-12.4 C56.8,-9.6 59,-7.4 61.6,-7.4 C64.2,-7.4 66.4,-9.6 66.4,-12.4 C66.4,-15.2 64.2,-17.5 61.6,-17.5 C59,-17.5 56.8,-15.2 56.8,-12.4 M56.8,12.3 C56.8,15.1 59,17.4 61.6,17.4 C64.2,17.4 66.4,15.1 66.4,12.3 C66.4,9.5 64.2,7.2 61.6,7.2 C59,7.2 56.8,9.5 56.8,12.3"/>
<path class="Clef" d="M335,722.203 C333.8,716.803 331.1,712.903 330.3,711.903 C327.1,707.603 323.1,704.803 318.4,703.403 C316.1,702.703 314,702.503 312,702.503 C311.3,702.503 310.6,702.503 309.9,702.603 C308.9,696.603 307.8,690.703 306.9,685.303 C312.5,679.103 316.2,673.203 318.6,668.803 C322.2,662.103 323.6,657.403 323.7,657.203 C324.9,654.203 325.6,650.403 325.6,645.903 C325.6,643.203 325.3,640.303 324.9,637.303 C323.8,630.203 321.6,623.503 319.1,619.803 C317.8,617.903 316.6,616.803 315.4,616.803 C314.2,616.803 311.7,618.003 308.8,620.803 C306.5,623.003 303.2,626.903 300.6,632.903 C298.3,638.303 297.6,645.203 297.6,651.103 C297.6,652.903 297.7,654.603 297.8,656.203 C298,659.803 298.7,665.603 299.3,669.203 C299.3,669.303 299.6,670.803 300,673.403 L299.3,674.103 C298.3,675.103 297.1,676.203 295.7,677.603 C294.8,678.503 293.9,679.303 292.9,680.303 C284.4,688.503 271.6,700.903 271.6,720.003 C271.6,724.703 272.5,729.103 274.3,733.103 C275.9,736.703 278.2,740.003 281.1,742.903 C288.6,750.303 298.8,753.503 305.9,753.503 L306.5,753.503 C309.4,753.403 312.1,753.103 314.5,752.703 C316.3,762.303 317.5,769.403 317.5,774.703 C317.5,781.203 315.9,785.103 312,787.903 C309.6,789.603 306.7,790.703 303.6,790.803 L302.8,790.803 C301.3,790.803 298.8,790.403 297.3,790.003 C297.3,790.003 297,789.903 297,789.703 C297,789.503 297.4,789.503 297.4,789.503 C299.3,789.103 302.9,787.803 305.3,784.503 C306.4,783.003 307.1,780.703 307.1,778.203 C307.1,776.603 306.8,774.903 306.1,773.403 C305,771.003 302.4,768.003 296.8,767.603 L295.7,767.603 C293.6,767.603 291.8,768.103 290.1,769.103 C288.3,770.203 286.7,771.903 285.7,773.903 C284.6,775.903 284.1,778.103 284.1,780.303 C284.1,783.203 285,785.903 286.8,788.103 C289.8,791.703 294.5,794.003 299.9,794.603 C300.6,794.703 301.7,794.803 302.4,794.803 C306.8,794.803 311.2,793.603 314.8,791.403 C318.5,788.803 320.6,784.803 321.3,779.203 C321.5,777.903 321.5,776.503 321.5,775.003 C321.5,771.103 321,766.403 320,760.603 C319.6,758.503 319.2,755.503 318.5,751.703 C324.3,749.803 328.4,746.103 332.2,740.303 C334.5,736.303 335.6,732.203 335.6,727.903 C335.6,726.003 335.4,724.103 335,722.203 M304.8,644.303 C306.6,638.603 309.3,635.203 311.3,633.503 C313.1,632.003 314.7,631.303 315.6,631.303 C315.7,631.303 315.9,631.403 316,631.403 C316.3,631.503 316.7,632.003 317.1,632.703 C318,634.503 318.9,637.803 318.9,641.503 C318.9,643.403 318.7,645.403 318.1,647.203 C315.9,654.003 311.3,661.303 304.3,669.003 C304.1,667.903 303.9,666.903 303.8,665.903 C303.3,662.703 303,659.503 303,656.603 C303,652.103 303.6,648.003 304.8,644.303 M300.8,748.403 C296.2,747.203 291.7,744.703 287.9,741.203 C286.6,740.003 284.8,737.803 283.3,734.403 C282,731.403 281.3,728.303 281.3,724.903 L281.3,724.203 C281.4,719.503 282.7,714.703 285.2,709.903 C288.1,704.303 292.6,698.803 298.7,693.503 C300.2,692.203 301.6,690.903 302.9,689.603 C303.7,693.903 304.4,698.603 305.3,703.503 C301.4,704.803 296.7,707.803 293.6,713.503 C291.2,718.003 290.5,721.903 290.5,725.103 C290.5,726.603 290.7,728.003 290.9,729.103 C291.8,733.603 294.4,737.303 297.9,739.403 C298.7,739.903 302,741.603 304,741.603 C304.3,741.603 304.6,741.603 304.8,741.503 C305.1,741.403 305.4,741.203 305.5,740.903 C305.6,740.703 305.6,740.503 305.6,740.303 C305.6,739.503 304.8,738.903 303.5,738.103 C302.9,737.703 302.2,737.303 301.5,736.803 C298.9,734.803 297.4,731.703 297.4,728.303 C297.4,727.303 297.6,726.403 297.8,725.403 C298.3,723.403 300,720.603 301.5,719.203 C303.2,717.703 305.2,716.503 307.6,715.903 C309.6,727.103 311.7,738.203 313.3,746.603 C313.4,747.303 313.6,748.003 313.7,748.703 C311.7,749.103 309.7,749.303 307.8,749.303 C305.4,749.303 303.1,749.003 300.8,748.403 M326.5,738.203 C325.3,741.403 322.8,745.403 317.7,747.503 C317.6,747.103 317.6,746.603 317.5,746.203 C316,737.403 314.1,726.503 312.1,715.203 L313.1,715.203 C322.8,715.203 326.7,722.403 327.6,727.003 C327.8,727.903 327.9,729.103 327.9,730.403 C327.9,732.703 327.5,735.503 326.5,738.203"/>
<path class="Clef" d="M335,1334.74 C333.8,1329.34 331.1,1325.44 330.3,1324.44 C327.1,1320.14 323.1,1317.34 318.4,1315.94 C316.1,1315.24 314,1315.04 312,1315.04 C311.3,1315.04 310.6,1315.04 309.9,1315.14 C308.9,1309.14 307.8,1303.24 306.9,1297.84 C312.5,1291.64 316.2,1285.74 318.6,1281.34 C322.2,1274.64 323.6,1269.94 323.7,1269.74 C324.9,1266.74 325.6,1262.94 325.6,1258.44 C325.6,1255.74 325.3,1252.84 324.9,1249.84 C323.8,1242.74 321.6,1236.04 319.1,1232.34 C317.8,1230.44 316.6,1229.34 315.4,1229.34 C314.2,1229.34 311.7,1230.54 308.8,1233.34 C306.5,1235.54 303.2,1239.44 300.6,1245.44 C298.3,1250.84 297.6,1257.74 297.6,1263.64 C297.6,1265.44 297.7,1267.14 297.8,1268.74 C298,1272.34 298.7,1278.14 299.3,1281.74 C299.3,1281.84 299.6,1283.34 300,1285.94 L299.3,1286.64 C298.3,1287.64 297.1,1288.74 295.7,1290.14 C294.8,1291.04 293.9,1291.84 292.9,1292.84 C284.4,1301.04 271.6,1313.44 271.6,1332.54 C271.6,1337.24 272.5,1341.64 274.3,1345.64 C275.9,1349.24 278.2,1352.54 281.1,1355.44 C288.6,1362.84 298.8,1366.04 305.9,1366.04 L306.5,1366.04 C309.4,1365.94 312.1,1365.64 314.5,1365.24 C316.3,1374.84 317.5,1381.94 317.5,1387.24 C317.5,1393.74 315.9,1397.64 312,1400.44 C309.6,1402.14 306.7,1403.24 303.6,1403.34 L302.8,1403.34 C301.3,1403.34 298.8,1402.94 297.3,1402.54 C297.3,1402.54 297,1402.44 297,1402.24 C297,1402.04 297.4,1402.04 297.4,1402.04 C299.3,1401.64 302.9,1400.34 305.3,1397.04 C306.4,1395.54 307.1,1393.24 307.1,1390.74 C307.1,1389.14 306.8,1387.44 306.1,1385.94 C305,1383.54 302.4,1380.54 296.8,1380.14 L295.7,1380.14 C293.6,1380.14 291.8,1380.64 290.1,1381.64 C288.3,1382.74 286.7,1384.44 285.7,1386.44 C284.6,1388.44 284.1,1390.64 284.1,1392.84 C284.1,1395.74 285,1398.44 286.8,1400.64 C289.8,1404.24 294.5,1406.54 299.9,1407.14 C300.6,1407.24 301.7,1407.34 302.4,1407.34 C306.8,1407.34 311.2,1406.14 314.8,1403.94 C318.5,1401.34 320.6,1397.34 321.3,1391.74 C321.5,1390.44 321.5,1389.04 321.5,1387.54 C321.5,1383.64 321,1378.94 320,1373.14 C319.6,1371.04 319.2,1368.04 318.5,1364.24 C324.3,1362.34 328.4,1358.64 332.2,1352.84 C334.5,1348.84 335.6,1344.74 335.6,1340.44 C335.6,1338.54 335.4,1336.64 335,1334.74 M304.8,1256.84 C306.6,1251.14 309.3,1247.74 311.3,1246.04 C313.1,1244.54 314.7,1243.84 315.6,1243.84 C315.7,1243.84 315.9,1243.94 316,1243.94 C316.3,1244.04 316.7,1244.54 317.1,1245.24 C318,1247.04 318.9,1250.34 318.9,1254.04 C318.9,1255.94 318.7,1257.94 318.1,1259.74 C315.9,1266.54 311.3,1273.84 304.3,1281.54 C304.1,1280.44 303.9,1279.44 303.8,1278.44 C303.3,1275.24 303,1272.04 303,1269.14 C303,1264.64 303.6,1260.54 304.8,1256.84 M300.8,1360.94 C296.2,1359.74 291.7,1357.24 287.9,1353.74 C286.6,1352.54 284.8,1350.34 283.3,1346.94 C282,1343.94 281.3,1340.84 281.3,1337.44 L281.3,1336.74 C281.4,1332.04 282.7,1327.24 285.2,1322.44 C288.1,1316.84 292.6,1311.34 298.7,1306.04 C300.2,1304.74 301.6,1303.44 302.9,1302.14 C303.7,1306.44 304.4,1311.14 305.3,1316.04 C301.4,1317.34 296.7,1320.34 293.6,1326.04 C291.2,1330.54 290.5,1334.44 290.5,1337.64 C290.5,1339.14 290.7,1340.54 290.9,1341.64 C291.8,1346.14 294.4,1349.84 297.9,1351.94 C298.7,1352.44 302,1354.14 304,1354.14 C304.3,1354.14 304.6,1354.14 304.8,1354.04 C305.1,1353.94 305.4,1353.74 305.5,1353.44 C305.6,1353.24 305.6,1353.04 305.6,1352.84 C305.6,1352.04 304.8,1351.44 303.5,1350.64 C302.9,1350.24 302.2,1349.84 301.5,1349.34 C298.9,1347.34 297.4,1344.24 297.4,1340.84 C297.4,1339.84 297.6,1338.94 297.8,1337.94 C298.3,1335.94 300,1333.14 301.5,1331.74 C303.2,1330.24 305.2,1329.04 307.6,1328.44 C309.6,1339.64 311.7,1350.74 313.3,1359.14 C313.4,1359.84 313.6,1360.54 313.7,1361.24 C311.7,1361.64 309.7,1361.84 307.8,1361.84 C305.4,1361.84 303.1,1361.54 300.8,1360.94 M326.5,1350.74 C325.3,1353.94 322.8,1357.94 317.7,1360.04 C317.6,1359.64 317.6,1359.14 317.5,1358.74 C316,1349.94 314.1,1339.04 312.1,1327.74 L313.1,1327.74 C322.8,1327.74 326.7,1334.94 327.6,1339.54 C327.8,1340.44 327.9,1341.64 327.9,1342.94 C327.9,1345.24 327.5,1348.04 326.5,1350.74"/>
<path class="TimeSig" d="M392.053,939.517 L392.253,939.517 C400.253,936.417 400.753,931.217 400.753,929.417 L400.753,928.917 C400.753,928.017 400.453,916.717 383.253,916.717 C366.053,916.717 366.553,928.917 366.553,928.917 L366.653,928.917 L366.553,929.117 C366.553,932.717 369.453,935.517 373.053,935.517 C376.653,935.517 379.453,932.717 379.453,929.117 C379.453,926.217 377.253,923.417 374.453,922.817 L374.753,922.517 C376.153,921.517 378.053,921.017 379.953,921.017 C384.153,921.017 388.653,923.517 388.653,928.917 C388.653,935.217 383.953,936.117 382.753,936.317 C381.553,936.517 375.953,936.917 374.753,936.917 C373.553,936.917 373.453,938.317 373.453,938.317 L373.453,940.317 C373.453,940.317 373.653,941.417 374.753,941.517 C376.453,941.617 378.753,941.617 381.953,942.117 C386.353,942.717 388.653,945.717 388.653,952.717 C388.653,959.417 384.153,961.217 379.953,961.217 C377.153,961.217 374.553,960.417 373.453,959.617 C376.753,959.417 379.453,956.517 379.453,953.217 C379.453,949.617 376.653,946.717 373.053,946.717 C369.453,946.717 366.553,949.617 366.553,953.217 C366.553,953.217 366.053,957.717 370.453,961.817 C374.353,965.417 379.253,965.517 381.453,965.517 C391.053,965.517 401.453,962.217 401.453,951.317 C401.453,944.017 396.453,940.917 392.053,939.517"/>
<path class="TimeSig" d="M365.2,1002.62 L382,1002.62 L382,1009.92 L373.9,1009.92 C373.1,1009.92 372.5,1010.52 372.5,1011.32 L372.5,1013.22 C372.5,1014.02 373.1,1014.52 373.9,1014.52 L403.6,1014.52 C404.4,1014.52 405,1014.02 405,1013.22 L405,1011.32 C405,1010.52 404.4,1009.92 403.6,1009.92 L394.8,1009.92 L394.8,1002.62 L403.6,1002.62 C404.4,1002.62 405,1002.02 405,1001.22 L405,999.42 C405,998.62 404.4,998.02 403.6,998.02 L394.8,998.02 L394.8,982.32 C394.8,981.82 394.4,981.32 394,981.12 L392.9,980.52 C392.7,980.42 392.4,980.42 392.2,980.42 C391.9,980.42 391.5,980.52 391.3,980.72 L382.4,988.92 C382.2,989.12 382,989.62 382,989.92 L382,998.02 L370.7,998.02 C370.7,998.02 381.6,986.22 393.2,970.72 C394,969.62 393.6,968.62 393.4,968.42 L391.3,966.22 C391.1,966.02 390.6,965.82 390.3,965.82 L375.7,965.82 C375,965.82 374.5,966.42 374.4,967.02 C374.4,967.02 373.9,974.22 371.3,982.22 C368.7,990.22 365.9,995.02 363.3,998.62 C363.3,998.62 362.8,999.62 363.1,1000.32 C363.4,1001.02 364.1,1002.12 364.1,1002.12 C364.1,1002.12 364.4,1002.62 365.2,1002.62"/>
<path class="TimeSig" d="M392.053,677 L392.253,677 C400.253,673.9 400.753,668.7 400.753,666.9 L400.753,666.4 C400.753,665.5 400.453,654.2 383.253,654.2 C366.053,654.2 366.553,666.4 366.553,666.4 L366.653,666.4 L366.553,666.6 C366.553,670.2 369.453,673 373.053,673 C376.653,673 379.453,670.2 379.453,666.6 C379.453,663.7 377.253,660.9 374.453,660.3 L374.753,660 C376.153,659 378.053,658.5 379.953,658.5 C384.153,658.5 388.653,661 388.653,666.4 C388.653,672.7 383.953,673.6 382.753,673.8 C381.553,674 375.953,674.4 374.753,674.4 C373.553,674.4 373.453,675.8 373.453,675.8 L373.453,677.8 C373.453,677.8 373.653,678.9 374.753,679 C376.453,679.1 378.753,679.1 381.953,679.6 C386.353,680.2 388.653,683.2 388.653,690.2 C388.653,696.9 384.153,698.7 379.953,698.7 C377.153,698.7 374.553,697.9 373.453,697.1 C376.753,696.9 379.453,694 379.453,690.7 C379.453,687.1 376.653,684.2 373.053,684.2 C369.453,684.2 366.553,687.1 366.553,690.7 C366.553,690.7 366.053,695.2 370.453,699.3 C374.353,702.9 379.253,703 381.453,703 C391.053,703 401.453,699.7 401.453,688.8 C401.453,681.5 396.453,678.4 392.053,677"/>
<path class="TimeSig" d="M365.2,740.104 L382,740.104 L382,747.404 L373.9,747.404 C373.1,747.404 372.5,748.004 372.5,748.804 L372.5,750.704 C372.5,751.504 373.1,752.004 373.9,752.004 L403.6,752.004 C404.4,752.004 405,751.504 405,750.704 L405,748.804 C405,748.004 404.4,747.404 403.6,747.404 L394.8,747.404 L394.8,740.104 L403.6,740.104 C404.4,740.104 405,739.504 405,738.704 L405,736.904 C405,736.104 404.4,735.504 403.6,735.504 L394.8,735.504 L394.8,719.804 C394.8,719.304 394.4,718.804 394,718.604 L392.9,718.004 C392.7,717.904 392.4,717.904 392.2,717.904 C391.9,717.904 391.5,718.004 391.3,718.204 L382.4,726.404 C382.2,726.604 382,727.104 382,727.404 L382,735.504 L370.7,735.504 C370.7,735.504 381.6,723.704 393.2,708.204 C394,707.104 393.6,706.104 393.4,705.904 L391.3,703.704 C391.1,703.504 390.6,703.304 390.3,703.304 L375.7,703.304 C375,703.304 374.5,703.904 374.4,704.504 C374.4,704.504 373.9,711.704 371.3,719.704 C368.7,727.704 365.9,732.504 363.3,736.104 C363.3,736.104 362.8,737.104 363.1,737.804 C363.4,738.504 364.1,739.604 364.1,739.604 C364.1,739.604 364.4,740.104 365.2,740.104"/>
<path class="Page" d="M217.604,4050.77 C218.054,4045.14 218.279,4043.66 219.269,4041.36 C220.574,4038.17 222.959,4036.32 225.794,4036.32 C227.369,4036.32 228.314,4036.82 228.314,4037.63 C228.314,4037.81 228.269,4037.94 228.089,4038.26 C227.639,4039.11 227.414,4039.79 227.414,4040.42 C227.414,4041.9 228.584,4043.03 230.159,4043.03 C231.914,4043.03 233.129,4041.68 233.129,4039.79 C233.129,4036.68 230.024,4034.39 225.749,4034.39 C222.059,4034.39 218.594,4036.14 216.434,4039.16 C213.959,4042.62 212.609,4047.3 212.609,4052.21 C212.609,4061.03 216.929,4066.74 223.589,4066.74 C226.514,4066.74 228.944,4065.75 230.834,4063.77 C232.769,4061.79 233.939,4058.87 233.939,4055.99 C233.939,4050.68 230.159,4046.72 225.029,4046.72 C221.969,4046.72 219.719,4047.93 217.604,4050.77 M223.769,4049.46 C227.054,4049.46 229.034,4052.03 229.034,4056.3 C229.034,4061.52 226.964,4064.81 223.679,4064.81 C221.609,4064.81 220.034,4063.73 218.954,4061.52 C218.234,4060.13 217.874,4058.6 217.874,4056.93 C217.874,4052.3 220.124,4049.46 223.769,4049.46 M250.224,4034.39 C248.694,4036.23 244.554,4037.63 240.414,4037.72 L240.414,4039.65 L244.374,4039.65 C246.984,4039.7 247.254,4039.97 247.164,4042.49 L247.164,4060.53 C247.164,4062.83 247.164,4062.92 246.894,4063.32 C246.534,4063.77 245.679,4063.95 243.159,4063.95 L240.234,4063.95 L240.234,4066.07 L258.054,4066.07 L258.054,4063.95 L255.579,4063.95 C253.059,4063.95 252.204,4063.77 251.844,4063.32 C251.529,4062.92 251.529,4062.87 251.529,4060.53 L251.529,4041.95 C251.529,4039.43 251.619,4037.31 251.844,4034.39 L250.224,4034.39 "/>
<path class="Bracket" transform="matrix(3.62523,0,0,3.62523,214.469,1015.62)" d="M0.92002,-50 C2.69004,-51.88 6.2,-55.8 6.2,-63 C6.2,-72.1 2.25996,-81.32 2.25996,-86.97 C2.25996,-93.06 5.84004,-98.84 5.95,-99 C6.05996,-99.16 6.05,-99.39 5.94004,-99.46 C5.82998,-99.53 5.62002,-99.47 5.49004,-99.32 C5.35996,-99.17 0,-93.75 0,-85.6 C0,-76.75 3.5,-70.58 3.5,-59.07 C3.5,-56.89 2.55996,-53.36 0.1,-50.33 C-0.0799805,-50.17 -0.1,-49.89 0.0599609,-49.7 L0.0700195,-49.69 L0.1,-49.66 C2.55996,-46.63 3.5,-43.1 3.5,-40.92 C3.5,-29.4 0,-23.24 0,-14.39 C0,-6.25 5.35996,-0.8 5.49004,-0.659961 C5.62002,-0.52002 5.8,-0.42998 5.94004,-0.52002 C6.07998,-0.609961 6.07998,-0.77998 5.95,-0.97998 C5.82002,-1.17998 2.25996,-6.92002 2.25996,-13.01 C2.25996,-18.66 6.2,-27.9 6.2,-37 C6.2,-44.3 2.69004,-48.12 0.92002,-50"/>
<path class="Bracket" transform="matrix(3.62523,0,0,3.62523,214.469,1628.16)" d="M0.92002,-50 C2.69004,-51.88 6.2,-55.8 6.2,-63 C6.2,-72.1 2.25996,-81.32 2.25996,-86.97 C2.25996,-93.06 5.84004,-98.84 5.95,-99 C6.05996,-99.16 6.05,-99.39 5.94004,-99.46 C5.82998,-99.53 5.62002,-99.47 5.49004,-99.32 C5.35996,-99.17 0,-93.75 0,-85.6 C0,-76.75 3.5,-70.58 3.5,-59.07 C3.5,-56.89 2.55996,-53.36 0.1,-50.33 C-0.0799805,-50.17 -0.1,-49.89 0.0599609,-49.7 L0.0700195,-49.69 L0.1,-49.66 C2.55996,-46.63 3.5,-43.1 3.5,-40.92 C3.5,-29.4 0,-23.24 0,-14.39 C0,-6.25 5.35996,-0.8 5.49004,-0.659961 C5.62002,-0.52002 5.8,-0.42998 5.94004,-0.52002 C6.07998,-0.609961 6.07998,-0.77998 5.95,-0.97998 C5.82002,-1.17998 2.25996,-6.92002 2.25996,-13.01 C2.25996,-18.66 6.2,-27.9 6.2,-37 C6.2,-44.3 2.69004,-48.12 0.92002,-50"/>
</svg>