<?xml version="1.0" encoding="UTF-8" standalone="no"?>
<svg width="1000px" height="500px" viewBox="150 650 2700 1000" xmlns="http://www.w3.org/2000/svg" xmlns:xlink="http://www.w3.org/1999/xlink" version="1.2" baseProfile="tiny">
 xmlns="http://www.w3.org/2000/svg" xmlns:xlink="http://www.w3.org/1999/xlink" version="1.2" baseProfile="tiny">
<title>exercises_scores (49)</title>
<desc>Generated by MuseScore 3.6.0</desc>
<polyline class="StaffLines" fill="none" stroke="#000000" stroke-width="2.75" stroke-linejoin="bevel" points="247.099,656.536 2764.63,656.536"/>
<polyline class="StaffLines" fill="none" stroke="#000000" stroke-width="2.75" stroke-linejoin="bevel" points="247.099,681.538 2764.63,681.538"/>
<polyline class="StaffLines" fill="none" stroke="#000000" stroke-width="2.75" stroke-linejoin="bevel" points="247.099,706.539 2764.63,706.539"/>
<polyline class="StaffLines" fill="none" stroke="#000000" stroke-width="2.75" stroke-linejoin="bevel" points="247.099,731.541 2764.63,731.541"/>
<polyline class="StaffLines" fill="none" stroke="#000000" stroke-width="2.75" stroke-linejoin="bevel" points="247.099,756.542 2764.63,756.542"/>
<polyline class="StaffLines" fill="none" stroke="#000000" stroke-width="2.75" stroke-linejoin="bevel" points="247.099,919.053 2764.63,919.053"/>
<polyline class="StaffLines" fill="none" stroke="#000000" stroke-width="2.75" stroke-linejoin="bevel" points="247.099,944.054 2764.63,944.054"/>
<polyline class="StaffLines" fill="none" stroke="#000000" stroke-width="2.75" stroke-linejoin="bevel" points="247.099,969.056 2764.63,969.056"/>
<polyline class="StaffLines" fill="none" stroke="#000000" stroke-width="2.75" stroke-linejoin="bevel" points="247.099,994.057 2764.63,994.057"/>
<polyline class="StaffLines" fill="none" stroke="#000000" stroke-width="2.75" stroke-linejoin="bevel" points="247.099,1019.06 2764.63,1019.06"/>
<polyline class="StaffLines" fill="none" stroke="#000000" stroke-width="2.75" stroke-linejoin="bevel" points="247.099,1269.07 2764.63,1269.07"/>
<polyline class="StaffLines" fill="none" stroke="#000000" stroke-width="2.75" stroke-linejoin="bevel" points="247.099,1294.08 2764.63,1294.08"/>
<polyline class="StaffLines" fill="none" stroke="#000000" stroke-width="2.75" stroke-linejoin="bevel" points="247.099,1319.08 2764.63,1319.08"/>
<polyline class="StaffLines" fill="none" stroke="#000000" stroke-width="2.75" stroke-linejoin="bevel" points="247.099,1344.08 2764.63,1344.08"/>
<polyline class="StaffLines" fill="none" stroke="#000000" stroke-width="2.75" stroke-linejoin="bevel" points="247.099,1369.08 2764.63,1369.08"/>
<polyline class="StaffLines" fill="none" stroke="#000000" stroke-width="2.75" stroke-linejoin="bevel" points="247.099,1531.59 2764.63,1531.59"/>
<polyline class="StaffLines" fill="none" stroke="#000000" stroke-width="2.75" stroke-linejoin="bevel" points="247.099,1556.59 2764.63,1556.59"/>
<polyline class="StaffLines" fill="none" stroke="#000000" stroke-width="2.75" stroke-linejoin="bevel" points="247.099,1581.59 2764.63,1581.59"/>
<polyline class="StaffLines" fill="none" stroke="#000000" stroke-width="2.75" stroke-linejoin="bevel" points="247.099,1606.6 2764.63,1606.6"/>
<polyline class="StaffLines" fill="none" stroke="#000000" stroke-width="2.75" stroke-linejoin="bevel" points="247.099,1631.6 2764.63,1631.6"/>
<path class="Text" d="M212.602,213.497 L212.602,216.317 L213.682,216.317 C217.102,216.377 218.242,216.557 218.722,217.157 C219.082,217.697 219.082,217.817 219.082,220.877 L219.082,249.437 C219.082,252.497 219.082,252.617 218.722,253.157 C218.242,253.757 217.102,253.997 213.682,253.997 L212.602,253.997 L212.602,256.817 L234.382,256.817 C244.762,256.817 251.002,252.437 251.002,245.057 C251.002,239.057 247.222,235.637 239.002,234.197 C241.882,233.597 243.202,233.057 244.762,231.917 C247.222,230.057 248.722,227.117 248.722,224.117 C248.722,220.217 246.322,216.437 242.842,214.937 C240.682,213.977 237.682,213.497 234.142,213.497 L212.602,213.497 M225.802,232.997 L225.802,219.317 C225.802,216.977 226.582,216.377 229.762,216.317 L232.162,216.317 C234.922,216.317 237.202,216.797 238.462,217.577 C240.622,218.897 241.762,221.417 241.762,224.777 C241.762,230.717 238.882,232.997 231.142,232.997 L225.802,232.997 M225.802,235.817 L231.082,235.817 C240.262,235.817 243.622,238.277 243.622,244.877 C243.622,248.717 242.302,251.477 239.962,252.617 C238.102,253.577 235.582,253.997 231.802,253.997 L229.282,253.997 C226.282,253.997 225.682,253.397 225.802,250.217 L225.802,235.817 M265.994,228.857 L255.374,229.517 L255.374,232.097 L257.834,232.097 C260.114,232.157 260.414,232.517 260.414,235.097 L260.414,249.437 L260.414,252.257 C260.354,253.157 260.294,253.517 260.054,253.817 C259.634,254.357 258.434,254.597 255.854,254.657 L255.614,254.657 L255.614,256.817 L271.634,256.817 L271.634,254.657 L270.554,254.657 C266.534,254.537 265.994,254.237 265.994,252.077 L265.994,249.437 L265.994,248.837 C266.054,238.757 269.654,231.077 274.334,230.837 C273.494,231.797 273.254,232.397 273.254,233.537 C273.254,235.457 274.634,236.837 276.554,236.837 C278.774,236.837 280.214,235.217 280.214,232.817 C280.214,229.877 278.174,227.957 274.994,227.957 C271.214,227.957 267.974,230.957 265.994,236.297 L265.994,228.857 M295.562,227.957 C288.182,227.957 282.482,234.497 282.482,242.897 C282.482,251.117 288.242,257.717 295.442,257.717 C302.642,257.717 308.402,251.117 308.402,242.837 C308.402,234.617 302.642,227.957 295.562,227.957 M295.562,230.537 C299.762,230.537 302.102,234.917 302.102,242.837 C302.102,250.817 299.762,255.137 295.442,255.137 C291.122,255.137 288.782,250.817 288.782,242.897 C288.782,234.737 291.062,230.537 295.562,230.537 M322.382,242.297 L322.382,212.597 L311.282,213.257 L311.282,215.837 L314.162,215.837 C316.442,215.897 316.742,216.257 316.742,218.837 L316.742,249.437 L316.742,252.317 C316.682,253.157 316.622,253.517 316.382,253.817 C315.962,254.357 314.822,254.597 312.242,254.657 L312.002,254.657 L312.002,256.817 L327.182,256.817 L327.182,254.657 L326.942,254.657 C322.922,254.537 322.382,254.237 322.382,252.077 L322.382,249.437 L322.382,246.017 L326.042,242.537 L333.182,252.557 C333.482,253.037 333.602,253.337 333.602,253.577 C333.602,254.417 332.942,254.657 330.962,254.657 L329.822,254.657 L329.822,256.817 L345.662,256.817 L345.662,254.657 C342.302,254.357 341.102,253.637 338.642,250.517 L330.122,238.877 L332.822,236.237 C336.362,232.817 338.882,231.497 342.962,231.017 L342.962,228.857 L327.182,228.857 L327.182,231.017 L329.042,231.017 C330.962,231.017 331.862,231.377 331.862,232.157 C331.862,232.817 331.442,233.537 330.482,234.497 L322.382,242.297 M372.842,243.317 C372.902,234.317 367.802,227.957 360.482,227.957 C352.802,227.957 347.042,234.617 347.042,243.617 C347.042,252.077 352.502,257.717 360.602,257.717 C366.362,257.717 370.382,254.897 372.842,249.197 L370.742,248.057 C368.282,252.677 365.762,254.477 361.742,254.477 C358.682,254.477 356.462,253.217 354.902,250.517 C353.822,248.717 353.342,246.617 353.402,243.317 L372.842,243.317 M353.462,240.737 C353.462,238.877 353.702,237.557 354.302,235.877 C355.562,232.277 357.482,230.537 360.422,230.537 C364.022,230.537 366.422,233.717 366.422,238.577 C366.422,240.257 365.882,240.737 363.962,240.737 L353.462,240.737 M386.942,228.857 L376.562,229.517 L376.562,232.097 L378.722,232.097 C381.002,232.157 381.302,232.517 381.302,235.097 L381.302,249.437 L381.302,250.877 L381.302,252.257 C381.242,253.157 381.182,253.517 380.942,253.817 C380.522,254.357 379.382,254.597 376.802,254.657 L376.562,254.657 L376.562,256.817 L391.742,256.817 L391.742,254.657 L391.502,254.657 C387.482,254.537 386.942,254.237 386.942,252.077 L386.942,249.437 L386.942,243.197 C386.942,240.257 387.362,237.557 388.022,236.177 C389.282,233.477 391.982,231.617 394.562,231.617 C396.122,231.617 397.922,232.457 398.822,233.717 C399.722,235.037 400.142,236.837 400.142,239.717 L400.142,249.437 L400.142,252.257 C400.082,253.157 400.022,253.517 399.782,253.817 C399.362,254.357 398.162,254.597 395.582,254.657 L395.342,254.657 L395.342,256.817 L410.522,256.817 L410.522,254.657 L410.282,254.657 C406.322,254.537 405.782,254.237 405.782,252.077 L405.782,249.437 L405.782,240.017 C405.782,235.697 405.602,234.617 404.522,232.577 C403.022,229.697 400.022,227.957 396.422,227.957 C392.522,227.957 389.582,229.757 386.942,233.717 L386.942,228.857 M466.61,213.077 L464.33,213.077 L461.93,216.617 C457.55,213.437 455.33,212.597 451.19,212.597 C445.49,212.597 440.63,214.997 436.61,219.797 C432.77,224.357 430.97,229.397 430.97,235.577 C430.97,248.537 439.43,257.717 451.25,257.717 C460.85,257.717 466.97,252.077 468.35,241.997 L465.53,241.517 C463.91,250.457 459.35,254.897 451.97,254.897 C443.09,254.897 438.89,248.777 438.89,235.817 C438.89,228.977 439.79,224.477 441.83,220.877 C443.69,217.517 447.35,215.417 451.25,215.417 C455.45,215.417 459.17,217.637 461.45,221.477 C462.59,223.457 463.43,225.677 464.87,230.417 L467.51,230.417 L466.61,213.077 M483.583,212.597 L472.483,213.257 L472.483,215.837 L475.363,215.837 C477.643,215.897 477.943,216.257 477.943,218.837 L477.943,249.437 L477.943,250.877 L477.943,252.317 C477.883,253.157 477.823,253.517 477.583,253.817 C477.163,254.357 476.023,254.597 473.443,254.657 L473.203,254.657 L473.203,256.817 L488.383,256.817 L488.383,254.657 L488.143,254.657 C484.123,254.537 483.583,254.237 483.583,252.077 L483.583,249.437 L483.583,243.197 C483.583,240.257 484.003,237.557 484.663,236.177 C485.983,233.477 488.623,231.617 491.203,231.617 C492.763,231.617 494.563,232.517 495.403,233.717 C496.363,235.037 496.783,236.837 496.783,239.777 L496.783,249.437 L496.783,252.317 C496.723,253.157 496.663,253.517 496.423,253.817 C496.003,254.357 494.803,254.597 492.223,254.657 L491.983,254.657 L491.983,256.817 L507.163,256.817 L507.163,254.657 L506.923,254.657 C502.963,254.537 502.423,254.237 502.423,252.077 L502.423,249.437 L502.423,240.017 C502.423,235.697 502.243,234.617 501.163,232.577 C499.663,229.637 496.663,227.957 493.063,227.957 C489.163,227.957 486.283,229.697 483.583,233.717 L483.583,212.597 M523.359,227.957 C515.979,227.957 510.279,234.497 510.279,242.897 C510.279,251.117 516.039,257.717 523.239,257.717 C530.439,257.717 536.199,251.117 536.199,242.837 C536.199,234.617 530.439,227.957 523.359,227.957 M523.359,230.537 C527.559,230.537 529.899,234.917 529.899,242.837 C529.899,250.817 527.559,255.137 523.239,255.137 C518.919,255.137 516.579,250.817 516.579,242.897 C516.579,234.737 518.859,230.537 523.359,230.537 M550.119,228.857 L539.499,229.517 L539.499,232.097 L541.959,232.097 C544.239,232.157 544.539,232.517 544.539,235.097 L544.539,249.437 L544.539,252.257 C544.479,253.157 544.419,253.517 544.179,253.817 C543.759,254.357 542.559,254.597 539.979,254.657 L539.739,254.657 L539.739,256.817 L555.759,256.817 L555.759,254.657 L554.679,254.657 C550.659,254.537 550.119,254.237 550.119,252.077 L550.119,249.437 L550.119,248.837 C550.179,238.757 553.779,231.077 558.459,230.837 C557.619,231.797 557.379,232.397 557.379,233.537 C557.379,235.457 558.759,236.837 560.679,236.837 C562.899,236.837 564.339,235.217 564.339,232.817 C564.339,229.877 562.299,227.957 559.119,227.957 C555.339,227.957 552.099,230.957 550.119,236.297 L550.119,228.857 M587.18,257.237 L597.62,256.817 L597.62,254.237 L596.54,254.237 C593.12,254.057 592.82,253.697 592.82,249.857 L592.82,212.597 L581.06,213.257 L581.06,215.837 L584.6,215.837 C586.88,215.897 587.18,216.257 587.18,218.837 L587.18,232.397 C584.96,229.337 582.38,227.957 578.9,227.957 C572.12,227.957 566.96,234.497 566.96,243.137 C566.96,251.657 571.94,257.717 578.9,257.717 C582.68,257.717 585.26,256.097 587.18,252.497 L587.18,257.237 M580.1,231.197 C582.56,231.197 584.9,232.997 585.98,235.757 C586.76,237.557 587.12,240.017 587.12,242.957 C587.12,249.977 584.36,254.477 580.04,254.477 C575.78,254.477 573.26,250.517 573.26,243.857 C573.26,240.257 573.62,237.557 574.4,235.577 C575.42,232.877 577.64,231.197 580.1,231.197 M607.757,250.157 C605.657,250.157 603.977,251.837 603.977,253.877 C603.977,255.977 605.657,257.657 607.697,257.657 C609.797,257.657 611.477,255.977 611.477,253.877 C611.477,251.837 609.797,250.157 607.757,250.157 M607.757,228.437 C605.657,228.437 603.977,230.117 603.977,232.217 C603.977,234.257 605.657,235.937 607.697,235.937 C609.797,235.937 611.477,234.257 611.477,232.157 C611.477,230.117 609.797,228.437 607.757,228.437 M671.161,213.077 L668.881,213.077 L666.541,216.677 C662.641,213.617 660.001,212.597 655.621,212.597 C650.881,212.597 647.161,213.917 643.381,216.977 C637.441,221.777 634.681,227.837 634.681,235.937 C634.681,242.057 636.421,247.157 639.961,251.057 C643.681,255.257 649.201,257.717 654.961,257.717 C660.001,257.717 663.541,256.157 667.441,252.257 L669.661,257.657 L672.181,257.657 L672.181,244.457 C672.181,241.397 672.181,241.277 672.541,240.737 C673.081,240.077 674.161,239.897 677.581,239.897 L678.481,239.897 L678.481,237.077 L659.401,237.077 L659.401,239.897 L660.541,239.897 C665.581,239.897 666.001,240.197 666.001,243.557 C666.001,246.137 665.581,248.477 664.801,249.917 C663.301,252.857 659.461,254.897 655.561,254.897 C651.661,254.897 647.821,252.917 645.781,249.917 C643.561,246.557 642.601,242.357 642.601,235.937 C642.601,222.557 647.041,215.417 655.381,215.417 C662.221,215.417 666.961,220.337 669.421,229.937 L672.001,229.937 L671.161,213.077 M707.565,228.857 L696.885,229.517 L696.885,232.097 L699.345,232.097 C701.625,232.157 701.925,232.517 701.925,235.097 L701.925,249.437 L701.925,251.777 L701.925,252.257 C701.865,253.157 701.805,253.517 701.565,253.817 C701.145,254.357 700.005,254.597 697.425,254.657 L697.185,254.657 L697.185,256.817 L712.305,256.817 L712.305,254.657 L712.065,254.657 C708.105,254.537 707.565,254.237 707.565,252.017 L707.565,249.437 L707.565,240.917 C707.565,235.577 710.505,231.617 714.405,231.617 C717.825,231.617 719.565,234.077 719.565,238.937 L719.565,249.437 L719.565,252.317 C719.505,253.097 719.445,253.517 719.145,253.817 C718.785,254.357 717.585,254.597 715.005,254.657 L714.765,254.657 L714.765,256.817 L729.945,256.817 L729.945,254.657 L729.705,254.657 C725.745,254.537 725.205,254.237 725.205,252.077 L725.205,249.437 L725.205,241.457 C725.205,235.457 727.905,231.617 732.105,231.617 C735.525,231.617 737.205,234.197 737.205,239.597 L737.205,249.437 L737.205,252.257 C737.145,253.097 737.085,253.517 736.785,253.817 C736.425,254.357 735.225,254.597 732.645,254.657 L732.405,254.657 L732.405,256.817 L747.585,256.817 L747.585,254.657 L747.345,254.657 C743.385,254.537 742.845,254.237 742.845,252.017 L742.845,249.437 L742.845,238.397 C742.845,234.677 742.485,233.417 740.925,231.377 C739.185,229.157 736.725,227.957 733.845,227.957 C729.945,227.957 727.065,229.817 724.485,233.957 C723.465,230.357 720.225,227.957 716.205,227.957 C712.545,227.957 709.905,229.697 707.565,233.477 L707.565,228.857 M775.953,237.497 C775.953,233.717 775.293,231.797 773.553,230.357 C771.573,228.737 768.633,227.957 764.793,227.957 C758.013,227.957 753.093,231.137 753.093,235.517 C753.093,237.737 754.473,239.177 756.573,239.177 C758.493,239.177 759.813,237.917 759.813,236.117 C759.813,235.337 759.513,234.497 758.913,233.657 C758.553,233.237 758.493,233.117 758.493,232.817 C758.493,231.617 760.893,230.537 763.773,230.537 C765.693,230.537 767.793,231.137 768.753,232.037 C769.893,232.997 770.313,234.437 770.313,237.137 L770.313,239.477 C764.073,240.557 762.093,241.037 759.153,242.177 C753.933,244.097 751.473,246.857 751.473,250.697 C751.473,255.017 754.833,257.717 760.173,257.717 C764.313,257.717 768.033,256.037 770.613,252.977 C771.573,256.037 773.073,257.237 775.893,257.237 C778.593,257.237 781.413,255.497 781.413,253.757 C781.413,253.337 781.173,253.037 780.813,253.037 C780.573,253.037 780.333,253.097 779.913,253.277 C779.073,253.637 778.713,253.697 778.233,253.697 C776.553,253.697 775.953,252.617 775.953,249.557 L775.953,237.497 M770.313,244.817 C770.313,248.417 770.133,249.257 769.113,250.817 C767.613,253.037 764.913,254.537 762.273,254.537 C759.513,254.537 757.533,252.557 757.533,249.857 C757.533,247.337 758.793,245.537 761.433,244.277 C763.293,243.437 765.633,242.837 770.313,242.057 L770.313,244.817 M792.878,228.857 L781.178,229.517 L781.178,232.097 L784.658,232.097 C786.938,232.157 787.238,232.517 787.238,235.097 L787.238,255.437 C787.238,260.297 786.938,262.577 786.098,264.317 C785.498,265.517 784.118,266.417 782.798,266.417 C781.958,266.417 781.298,266.057 781.298,265.637 C781.298,265.397 781.358,265.277 781.598,264.677 C781.898,264.077 782.018,263.657 782.018,263.237 C782.018,261.737 780.578,260.417 778.898,260.417 C776.978,260.417 775.538,261.917 775.538,264.017 C775.538,266.957 778.238,268.937 782.258,268.937 C785.618,268.937 788.678,267.497 790.418,265.037 C792.278,262.397 792.878,259.337 792.878,252.557 L792.878,228.857 M790.058,213.917 C788.138,213.917 786.578,215.477 786.578,217.397 C786.578,219.317 788.138,220.877 789.998,220.877 C791.978,220.877 793.538,219.317 793.538,217.397 C793.538,215.477 791.978,213.917 790.058,213.917 M813.328,227.957 C805.948,227.957 800.248,234.497 800.248,242.897 C800.248,251.117 806.008,257.717 813.208,257.717 C820.408,257.717 826.168,251.117 826.168,242.837 C826.168,234.617 820.408,227.957 813.328,227.957 M813.328,230.537 C817.528,230.537 819.868,234.917 819.868,242.837 C819.868,250.817 817.528,255.137 813.208,255.137 C808.888,255.137 806.548,250.817 806.548,242.897 C806.548,234.737 808.828,230.537 813.328,230.537 M840.088,228.857 L829.468,229.517 L829.468,232.097 L831.928,232.097 C834.208,232.157 834.508,232.517 834.508,235.097 L834.508,249.437 L834.508,252.257 C834.448,253.157 834.388,253.517 834.148,253.817 C833.728,254.357 832.528,254.597 829.948,254.657 L829.708,254.657 L829.708,256.817 L845.728,256.817 L845.728,254.657 L844.648,254.657 C840.628,254.537 840.088,254.237 840.088,252.077 L840.088,249.437 L840.088,248.837 C840.148,238.757 843.748,231.077 848.428,230.837 C847.588,231.797 847.348,232.397 847.348,233.537 C847.348,235.457 848.728,236.837 850.648,236.837 C852.868,236.837 854.308,235.217 854.308,232.817 C854.308,229.877 852.268,227.957 849.088,227.957 C845.308,227.957 842.068,230.957 840.088,236.297 L840.088,228.857 "/>
<path class="TieSegment" stroke="#000000" stroke-width="1.75" stroke-linecap="round" stroke-linejoin="round" fill-rule="evenodd" d="M2601.11,925.303 C2633.81,896.947 2731.93,896.947 2764.63,925.303 C2731.93,903.947 2633.81,903.947 2601.11,925.303"/>
<path class="TieSegment" stroke="#000000" stroke-width="1.75" stroke-linecap="round" stroke-linejoin="round" fill-rule="evenodd" d="M335.596,1531.14 C352.122,1515.08 401.698,1515.08 418.224,1531.14 C401.698,1522.08 352.122,1522.08 335.596,1531.14"/>
<path class="TieSegment" stroke="#000000" stroke-width="1.75" stroke-linecap="round" stroke-linejoin="round" fill-rule="evenodd" d="M2601.11,575.281 C2633.81,546.925 2731.93,546.925 2764.63,575.281 C2731.93,553.925 2633.81,553.925 2601.11,575.281"/>
<path class="TieSegment" stroke="#000000" stroke-width="1.75" stroke-linecap="round" stroke-linejoin="round" fill-rule="evenodd" d="M335.596,1187.82 C352.122,1171.76 401.698,1171.76 418.224,1187.82 C401.698,1178.76 352.122,1178.76 335.596,1187.82"/>
<polyline class="BarLine" stroke="#000000" stroke-width="4.50" stroke-linejoin="bevel" points="249.349,917.677 249.349,1020.43"/>
<polyline class="BarLine" stroke="#000000" stroke-width="4.50" stroke-linejoin="bevel" points="977.564,917.677 977.564,1020.43"/>
<polyline class="BarLine" stroke="#000000" stroke-width="4.50" stroke-linejoin="bevel" points="1627.63,917.677 1627.63,1020.43"/>
<polyline class="BarLine" stroke="#000000" stroke-width="4.50" stroke-linejoin="bevel" points="2184.94,917.677 2184.94,1020.43"/>
<polyline class="BarLine" stroke="#000000" stroke-width="4.50" stroke-linejoin="bevel" points="2762.38,917.677 2762.38,1020.43"/>
<polyline class="BarLine" stroke="#000000" stroke-width="4.50" stroke-linejoin="bevel" points="249.349,1530.22 249.349,1632.97"/>
<polyline class="BarLine" stroke="#000000" stroke-width="4.50" stroke-linejoin="bevel" points="988.012,1530.22 988.012,1632.97"/>
<polyline class="BarLine" stroke="#000000" stroke-width="4.50" stroke-linejoin="bevel" points="1592.55,1530.22 1592.55,1632.97"/>
<polyline class="BarLine" stroke="#000000" stroke-width="4.50" stroke-linejoin="bevel" points="2165.59,1530.22 2165.59,1632.97"/>
<polyline class="BarLine" stroke="#000000" stroke-width="4.50" stroke-linejoin="bevel" points="2734.88,1530.22 2734.88,1632.97"/>
<polyline class="BarLine" stroke="#000000" stroke-width="13.75" stroke-linejoin="bevel" points="2757.76,1530.22 2757.76,1632.97"/>
<polyline class="BarLine" stroke="#000000" stroke-width="4.50" stroke-linejoin="bevel" points="249.349,655.161 249.349,919.053"/>
<polyline class="BarLine" stroke="#000000" stroke-width="4.50" stroke-linejoin="bevel" points="977.564,655.161 977.564,919.053"/>
<polyline class="BarLine" stroke="#000000" stroke-width="4.50" stroke-linejoin="bevel" points="1627.63,655.161 1627.63,919.053"/>
<polyline class="BarLine" stroke="#000000" stroke-width="4.50" stroke-linejoin="bevel" points="2184.94,655.161 2184.94,919.053"/>
<polyline class="BarLine" stroke="#000000" stroke-width="4.50" stroke-linejoin="bevel" points="2762.38,655.161 2762.38,919.053"/>
<polyline class="BarLine" stroke="#000000" stroke-width="4.50" stroke-linejoin="bevel" points="249.349,1267.7 249.349,1531.59"/>
<polyline class="BarLine" stroke="#000000" stroke-width="4.50" stroke-linejoin="bevel" points="988.012,1267.7 988.012,1531.59"/>
<polyline class="BarLine" stroke="#000000" stroke-width="4.50" stroke-linejoin="bevel" points="1592.55,1267.7 1592.55,1531.59"/>
<polyline class="BarLine" stroke="#000000" stroke-width="4.50" stroke-linejoin="bevel" points="2165.59,1267.7 2165.59,1531.59"/>
<polyline class="BarLine" stroke="#000000" stroke-width="4.50" stroke-linejoin="bevel" points="2734.88,1267.7 2734.88,1531.59"/>
<polyline class="BarLine" stroke="#000000" stroke-width="13.75" stroke-linejoin="bevel" points="2757.76,1267.7 2757.76,1531.59"/>
<path class="Accidental" d="M785.441,1608.5 C786.041,1608.4 786.541,1607.7 786.541,1607.1 L786.541,1601.2 C786.541,1600.4 785.941,1599.8 785.141,1599.8 L784.941,1599.8 L781.641,1600.5 L781.641,1585.6 L778.841,1585.6 L778.841,1601.1 L769.941,1602.9 L769.941,1588.8 L767.141,1588.8 L767.141,1603.5 L763.241,1604.3 C762.641,1604.4 762.141,1605.1 762.141,1605.7 L762.141,1605.9 L762.141,1611.7 L762.141,1611.5 C762.141,1612.3 762.741,1612.9 763.541,1612.9 L763.841,1612.9 L767.141,1612.2 L767.141,1628.7 L763.241,1629.5 C762.641,1629.6 762.141,1630.3 762.141,1630.9 L762.141,1636.7 C762.141,1637.5 762.741,1638.1 763.541,1638.1 L763.841,1638.1 L767.141,1637.4 L767.141,1652.3 L769.941,1652.3 L769.941,1636.8 L778.841,1635 L778.841,1649.1 L781.641,1649.1 L781.641,1634.4 L785.441,1633.7 C786.041,1633.6 786.541,1632.9 786.541,1632.3 L786.541,1626.4 C786.541,1625.6 785.941,1625 785.141,1625 L784.941,1625 L781.641,1625.7 L781.641,1609.2 L785.441,1608.5 M769.941,1628.2 L769.941,1611.6 L778.841,1609.8 L778.841,1626.3 L769.941,1628.2 "/>
<path class="Accidental" d="M1210.43,1608.5 C1211.03,1608.4 1211.53,1607.7 1211.53,1607.1 L1211.53,1601.2 C1211.53,1600.4 1210.93,1599.8 1210.13,1599.8 L1209.93,1599.8 L1206.63,1600.5 L1206.63,1585.6 L1203.83,1585.6 L1203.83,1601.1 L1194.93,1602.9 L1194.93,1588.8 L1192.13,1588.8 L1192.13,1603.5 L1188.23,1604.3 C1187.63,1604.4 1187.13,1605.1 1187.13,1605.7 L1187.13,1605.9 L1187.13,1611.7 L1187.13,1611.5 C1187.13,1612.3 1187.73,1612.9 1188.53,1612.9 L1188.83,1612.9 L1192.13,1612.2 L1192.13,1628.7 L1188.23,1629.5 C1187.63,1629.6 1187.13,1630.3 1187.13,1630.9 L1187.13,1636.7 C1187.13,1637.5 1187.73,1638.1 1188.53,1638.1 L1188.83,1638.1 L1192.13,1637.4 L1192.13,1652.3 L1194.93,1652.3 L1194.93,1636.8 L1203.83,1635 L1203.83,1649.1 L1206.63,1649.1 L1206.63,1634.4 L1210.43,1633.7 C1211.03,1633.6 1211.53,1632.9 1211.53,1632.3 L1211.53,1626.4 C1211.53,1625.6 1210.93,1625 1210.13,1625 L1209.93,1625 L1206.63,1625.7 L1206.63,1609.2 L1210.43,1608.5 M1194.93,1628.2 L1194.93,1611.6 L1203.83,1609.8 L1203.83,1626.3 L1194.93,1628.2 "/>
<path class="Accidental" d="M785.441,1258.47 C786.041,1258.37 786.541,1257.67 786.541,1257.07 L786.541,1251.17 C786.541,1250.37 785.941,1249.77 785.141,1249.77 L784.941,1249.77 L781.641,1250.47 L781.641,1235.57 L778.841,1235.57 L778.841,1251.07 L769.941,1252.87 L769.941,1238.77 L767.141,1238.77 L767.141,1253.47 L763.241,1254.27 C762.641,1254.37 762.141,1255.07 762.141,1255.67 L762.141,1255.87 L762.141,1261.67 L762.141,1261.47 C762.141,1262.27 762.741,1262.87 763.541,1262.87 L763.841,1262.87 L767.141,1262.17 L767.141,1278.67 L763.241,1279.47 C762.641,1279.57 762.141,1280.27 762.141,1280.87 L762.141,1286.67 C762.141,1287.47 762.741,1288.07 763.541,1288.07 L763.841,1288.07 L767.141,1287.37 L767.141,1302.27 L769.941,1302.27 L769.941,1286.77 L778.841,1284.97 L778.841,1299.07 L781.641,1299.07 L781.641,1284.37 L785.441,1283.67 C786.041,1283.57 786.541,1282.87 786.541,1282.27 L786.541,1276.37 C786.541,1275.57 785.941,1274.97 785.141,1274.97 L784.941,1274.97 L781.641,1275.67 L781.641,1259.17 L785.441,1258.47 M769.941,1278.17 L769.941,1261.57 L778.841,1259.77 L778.841,1276.27 L769.941,1278.17 "/>
<path class="Accidental" d="M1210.43,1258.47 C1211.03,1258.37 1211.53,1257.67 1211.53,1257.07 L1211.53,1251.17 C1211.53,1250.37 1210.93,1249.77 1210.13,1249.77 L1209.93,1249.77 L1206.63,1250.47 L1206.63,1235.57 L1203.83,1235.57 L1203.83,1251.07 L1194.93,1252.87 L1194.93,1238.77 L1192.13,1238.77 L1192.13,1253.47 L1188.23,1254.27 C1187.63,1254.37 1187.13,1255.07 1187.13,1255.67 L1187.13,1255.87 L1187.13,1261.67 L1187.13,1261.47 C1187.13,1262.27 1187.73,1262.87 1188.53,1262.87 L1188.83,1262.87 L1192.13,1262.17 L1192.13,1278.67 L1188.23,1279.47 C1187.63,1279.57 1187.13,1280.27 1187.13,1280.87 L1187.13,1286.67 C1187.13,1287.47 1187.73,1288.07 1188.53,1288.07 L1188.83,1288.07 L1192.13,1287.37 L1192.13,1302.27 L1194.93,1302.27 L1194.93,1286.77 L1203.83,1284.97 L1203.83,1299.07 L1206.63,1299.07 L1206.63,1284.37 L1210.43,1283.67 C1211.03,1283.57 1211.53,1282.87 1211.53,1282.27 L1211.53,1276.37 C1211.53,1275.57 1210.93,1274.97 1210.13,1274.97 L1209.93,1274.97 L1206.63,1275.67 L1206.63,1259.17 L1210.43,1258.47 M1194.93,1278.17 L1194.93,1261.57 L1203.83,1259.77 L1203.83,1276.27 L1194.93,1278.17 "/>
<polyline class="LedgerLine" stroke="#000000" stroke-width="4.00" stroke-linejoin="bevel" points="793.126,894.051 843.122,894.051"/>
<polyline class="LedgerLine" stroke="#000000" stroke-width="4.00" stroke-linejoin="bevel" points="1096.31,1044.06 1146.31,1044.06"/>
<polyline class="LedgerLine" stroke="#000000" stroke-width="4.00" stroke-linejoin="bevel" points="1967.58,1656.6 2017.57,1656.6"/>
<polyline class="LedgerLine" stroke="#000000" stroke-width="4.00" stroke-linejoin="bevel" points="2200.34,1506.59 2250.34,1506.59"/>
<polyline class="LedgerLine" stroke="#000000" stroke-width="4.00" stroke-linejoin="bevel" points="2000.5,631.534 2050.5,631.534"/>
<polyline class="LedgerLine" stroke="#000000" stroke-width="4.00" stroke-linejoin="bevel" points="2391.09,631.534 2441.08,631.534"/>
<polyline class="LedgerLine" stroke="#000000" stroke-width="4.00" stroke-linejoin="bevel" points="2571.23,631.534 2621.23,631.534"/>
<polyline class="LedgerLine" stroke="#000000" stroke-width="4.00" stroke-linejoin="bevel" points="2571.23,606.533 2621.23,606.533"/>
<polyline class="LedgerLine" stroke="#000000" stroke-width="4.00" stroke-linejoin="bevel" points="398.1,1244.07 448.096,1244.07"/>
<polyline class="LedgerLine" stroke="#000000" stroke-width="4.00" stroke-linejoin="bevel" points="398.1,1219.07 448.096,1219.07"/>
<polyline class="LedgerLine" stroke="#000000" stroke-width="4.00" stroke-linejoin="bevel" points="591.071,1244.07 641.066,1244.07"/>
<polyline class="LedgerLine" stroke="#000000" stroke-width="4.00" stroke-linejoin="bevel" points="1022.76,1244.07 1072.76,1244.07"/>
<polyline class="Stem" stroke="#000000" stroke-width="2.75" stroke-linejoin="bevel" points="456.377,935.074 456.377,1019.06"/>
<polyline class="Stem" stroke="#000000" stroke-width="2.75" stroke-linejoin="bevel" points="629.815,910.072 629.815,994.057"/>
<polyline class="Stem" stroke="#000000" stroke-width="2.75" stroke-linejoin="bevel" points="803.252,885.07 803.252,969.056"/>
<polyline class="Stem" stroke="#000000" stroke-width="2.75" stroke-linejoin="bevel" points="1136.18,1053.2 1136.18,969.056"/>
<polyline class="Stem" stroke="#000000" stroke-width="2.75" stroke-linejoin="bevel" points="1309.62,1028.2 1309.62,944.054"/>
<polyline class="Stem" stroke="#000000" stroke-width="2.75" stroke-linejoin="bevel" points="1483.06,990.697 1483.06,909.677"/>
<polyline class="Stem" stroke="#000000" stroke-width="2.75" stroke-linejoin="bevel" points="1693.5,1028.2 1693.5,944.054"/>
<polyline class="Stem" stroke="#000000" stroke-width="2.75" stroke-linejoin="bevel" points="1866.94,990.697 1866.94,909.677"/>
<polyline class="Stem" stroke="#000000" stroke-width="2.75" stroke-linejoin="bevel" points="2010.63,972.576 2010.63,1047.19"/>
<polyline class="Stem" stroke="#000000" stroke-width="2.75" stroke-linejoin="bevel" points="2250.81,990.697 2250.81,909.677"/>
<polyline class="Stem" stroke="#000000" stroke-width="2.75" stroke-linejoin="bevel" points="2401.21,972.576 2401.21,1047.19"/>
<polyline class="Stem" stroke="#000000" stroke-width="2.75" stroke-linejoin="bevel" points="2581.36,947.574 2581.36,1028.43"/>
<polyline class="Stem" stroke="#000000" stroke-width="2.75" stroke-linejoin="bevel" points="408.226,1560.11 408.226,1640.97"/>
<polyline class="Stem" stroke="#000000" stroke-width="2.75" stroke-linejoin="bevel" points="630.94,1590.73 630.94,1512.84"/>
<polyline class="Stem" stroke="#000000" stroke-width="2.75" stroke-linejoin="bevel" points="823.911,1615.74 823.911,1531.59"/>
<polyline class="Stem" stroke="#000000" stroke-width="2.75" stroke-linejoin="bevel" points="1062.63,1590.73 1062.63,1512.84"/>
<polyline class="Stem" stroke="#000000" stroke-width="2.75" stroke-linejoin="bevel" points="1248.9,1615.74 1248.9,1531.59"/>
<polyline class="Stem" stroke="#000000" stroke-width="2.75" stroke-linejoin="bevel" points="1435.16,1640.74 1435.16,1556.59"/>
<polyline class="Stem" stroke="#000000" stroke-width="2.75" stroke-linejoin="bevel" points="1658.42,1603.24 1658.42,1522.22"/>
<polyline class="Stem" stroke="#000000" stroke-width="2.75" stroke-linejoin="bevel" points="1832.93,1640.74 1832.93,1556.59"/>
<polyline class="Stem" stroke="#000000" stroke-width="2.75" stroke-linejoin="bevel" points="2007.45,1665.74 2007.45,1581.59"/>
<polyline class="Stem" stroke="#000000" stroke-width="2.75" stroke-linejoin="bevel" points="2210.47,1497.61 2210.47,1581.59"/>
<polyline class="Stem" stroke="#000000" stroke-width="2.75" stroke-linejoin="bevel" points="2384.98,1522.61 2384.98,1606.6"/>
<polyline class="Stem" stroke="#000000" stroke-width="2.75" stroke-linejoin="bevel" points="2559.49,1547.61 2559.49,1631.6"/>
<polyline class="Stem" stroke="#000000" stroke-width="2.75" stroke-linejoin="bevel" points="486.121,728.181 486.121,647.16"/>
<polyline class="Stem" stroke="#000000" stroke-width="2.75" stroke-linejoin="bevel" points="629.815,710.059 629.815,784.669"/>
<polyline class="Stem" stroke="#000000" stroke-width="2.75" stroke-linejoin="bevel" points="803.252,685.058 803.252,765.918"/>
<polyline class="Stem" stroke="#000000" stroke-width="2.75" stroke-linejoin="bevel" points="1106.44,710.059 1106.44,784.669"/>
<polyline class="Stem" stroke="#000000" stroke-width="2.75" stroke-linejoin="bevel" points="1279.88,685.058 1279.88,765.918"/>
<polyline class="Stem" stroke="#000000" stroke-width="2.75" stroke-linejoin="bevel" points="1453.31,647.555 1453.31,731.541"/>
<polyline class="Stem" stroke="#000000" stroke-width="2.75" stroke-linejoin="bevel" points="1663.75,685.058 1663.75,765.918"/>
<polyline class="Stem" stroke="#000000" stroke-width="2.75" stroke-linejoin="bevel" points="1837.19,647.555 1837.19,731.541"/>
<polyline class="Stem" stroke="#000000" stroke-width="2.75" stroke-linejoin="bevel" points="2010.63,622.554 2010.63,706.539"/>
<polyline class="Stem" stroke="#000000" stroke-width="2.75" stroke-linejoin="bevel" points="2221.07,647.555 2221.07,731.541"/>
<polyline class="Stem" stroke="#000000" stroke-width="2.75" stroke-linejoin="bevel" points="2401.21,622.554 2401.21,706.539"/>
<polyline class="Stem" stroke="#000000" stroke-width="2.75" stroke-linejoin="bevel" points="2581.36,597.552 2581.36,706.539"/>
<polyline class="Stem" stroke="#000000" stroke-width="2.75" stroke-linejoin="bevel" points="408.226,1210.09 408.226,1319.08"/>
<polyline class="Stem" stroke="#000000" stroke-width="2.75" stroke-linejoin="bevel" points="601.196,1247.59 601.196,1331.58"/>
<polyline class="Stem" stroke="#000000" stroke-width="2.75" stroke-linejoin="bevel" points="794.167,1272.59 794.167,1356.58"/>
<polyline class="Stem" stroke="#000000" stroke-width="2.75" stroke-linejoin="bevel" points="1032.89,1247.59 1032.89,1331.58"/>
<polyline class="Stem" stroke="#000000" stroke-width="2.75" stroke-linejoin="bevel" points="1219.15,1272.59 1219.15,1356.58"/>
<polyline class="Stem" stroke="#000000" stroke-width="2.75" stroke-linejoin="bevel" points="1405.41,1297.6 1405.41,1378.46"/>
<polyline class="Stem" stroke="#000000" stroke-width="2.75" stroke-linejoin="bevel" points="1628.68,1260.09 1628.68,1344.08"/>
<polyline class="Stem" stroke="#000000" stroke-width="2.75" stroke-linejoin="bevel" points="1803.19,1297.6 1803.19,1378.46"/>
<polyline class="Stem" stroke="#000000" stroke-width="2.75" stroke-linejoin="bevel" points="1977.7,1322.6 1977.7,1397.21"/>
<polyline class="Stem" stroke="#000000" stroke-width="2.75" stroke-linejoin="bevel" points="2210.47,1297.6 2210.47,1378.46"/>
<polyline class="Stem" stroke="#000000" stroke-width="2.75" stroke-linejoin="bevel" points="2384.98,1322.6 2384.98,1397.21"/>
<polyline class="Stem" stroke="#000000" stroke-width="2.75" stroke-linejoin="bevel" points="2589.24,1340.72 2589.24,1259.7"/>
<path class="Note" d="M486.502,923.353 C485.002,920.653 482.102,918.953 478.202,918.553 C477.602,918.453 477.102,918.453 476.502,918.453 C473.002,918.453 469.202,919.453 465.702,921.353 C459.102,924.953 455.002,930.853 455.002,935.953 C455.002,937.353 455.202,938.653 455.902,939.853 C457.402,942.553 460.402,944.253 464.302,944.653 C464.902,944.753 465.402,944.753 466.002,944.753 C469.502,944.753 473.202,943.753 476.702,941.853 C483.302,938.253 487.502,932.453 487.502,927.353 C487.502,925.953 487.202,924.553 486.502,923.353"/>
<path class="Note" d="M659.94,898.352 C658.44,895.652 655.54,893.952 651.64,893.552 C651.04,893.452 650.54,893.452 649.94,893.452 C646.44,893.452 642.64,894.452 639.14,896.352 C632.54,899.952 628.44,905.852 628.44,910.952 C628.44,912.352 628.64,913.652 629.34,914.852 C630.84,917.552 633.84,919.252 637.74,919.652 C638.34,919.752 638.84,919.752 639.44,919.752 C642.94,919.752 646.64,918.752 650.14,916.852 C656.74,913.252 660.94,907.452 660.94,902.352 C660.94,900.952 660.64,899.552 659.94,898.352"/>
<path class="Note" d="M833.377,873.35 C831.877,870.65 828.977,868.95 825.077,868.55 C824.477,868.45 823.977,868.45 823.377,868.45 C819.877,868.45 816.077,869.45 812.577,871.35 C805.977,874.95 801.877,880.85 801.877,885.95 C801.877,887.35 802.077,888.65 802.777,889.85 C804.277,892.55 807.277,894.25 811.177,894.65 C811.777,894.75 812.277,894.75 812.877,894.75 C816.377,894.75 820.077,893.75 823.577,891.85 C830.177,888.25 834.377,882.45 834.377,877.35 C834.377,875.95 834.077,874.55 833.377,873.35"/>
<path class="Note" d="M1136.56,1048.36 C1135.06,1045.66 1132.16,1043.96 1128.26,1043.56 C1127.66,1043.46 1127.16,1043.46 1126.56,1043.46 C1123.06,1043.46 1119.26,1044.46 1115.76,1046.36 C1109.16,1049.96 1105.06,1055.86 1105.06,1060.96 C1105.06,1062.36 1105.26,1063.66 1105.96,1064.86 C1107.46,1067.56 1110.46,1069.26 1114.36,1069.66 C1114.96,1069.76 1115.46,1069.76 1116.06,1069.76 C1119.56,1069.76 1123.26,1068.76 1126.76,1066.86 C1133.36,1063.26 1137.56,1057.46 1137.56,1052.36 C1137.56,1050.96 1137.26,1049.56 1136.56,1048.36"/>
<path class="Note" d="M1310,1023.36 C1308.5,1020.66 1305.6,1018.96 1301.7,1018.56 C1301.1,1018.46 1300.6,1018.46 1300,1018.46 C1296.5,1018.46 1292.7,1019.46 1289.2,1021.36 C1282.6,1024.96 1278.5,1030.86 1278.5,1035.96 C1278.5,1037.36 1278.7,1038.66 1279.4,1039.86 C1280.9,1042.56 1283.9,1044.26 1287.8,1044.66 C1288.4,1044.76 1288.9,1044.76 1289.5,1044.76 C1293,1044.76 1296.7,1043.76 1300.2,1041.86 C1306.8,1038.26 1311,1032.46 1311,1027.36 C1311,1025.96 1310.7,1024.56 1310,1023.36"/>
<path class="Note" d="M1483.44,985.857 C1481.94,983.157 1479.04,981.457 1475.14,981.057 C1474.54,980.957 1474.04,980.957 1473.44,980.957 C1469.94,980.957 1466.14,981.957 1462.64,983.857 C1456.04,987.457 1451.94,993.357 1451.94,998.457 C1451.94,999.857 1452.14,1001.16 1452.84,1002.36 C1454.34,1005.06 1457.34,1006.76 1461.24,1007.16 C1461.84,1007.26 1462.34,1007.26 1462.94,1007.26 C1466.44,1007.26 1470.14,1006.26 1473.64,1004.36 C1480.24,1000.76 1484.44,994.957 1484.44,989.857 C1484.44,988.457 1484.14,987.057 1483.44,985.857"/>
<path class="Note" d="M1693.88,1023.36 C1692.38,1020.66 1689.48,1018.96 1685.58,1018.56 C1684.98,1018.46 1684.48,1018.46 1683.88,1018.46 C1680.38,1018.46 1676.58,1019.46 1673.08,1021.36 C1666.48,1024.96 1662.38,1030.86 1662.38,1035.96 C1662.38,1037.36 1662.58,1038.66 1663.28,1039.86 C1664.78,1042.56 1667.78,1044.26 1671.68,1044.66 C1672.28,1044.76 1672.78,1044.76 1673.38,1044.76 C1676.88,1044.76 1680.58,1043.76 1684.08,1041.86 C1690.68,1038.26 1694.88,1032.46 1694.88,1027.36 C1694.88,1025.96 1694.58,1024.56 1693.88,1023.36"/>
<path class="Note" d="M1867.32,985.857 C1865.82,983.157 1862.92,981.457 1859.02,981.057 C1858.42,980.957 1857.92,980.957 1857.32,980.957 C1853.82,980.957 1850.02,981.957 1846.52,983.857 C1839.92,987.457 1835.82,993.357 1835.82,998.457 C1835.82,999.857 1836.02,1001.16 1836.72,1002.36 C1838.22,1005.06 1841.22,1006.76 1845.12,1007.16 C1845.72,1007.26 1846.22,1007.26 1846.82,1007.26 C1850.32,1007.26 1854.02,1006.26 1857.52,1004.36 C1864.12,1000.76 1868.32,994.957 1868.32,989.857 C1868.32,988.457 1868.02,987.057 1867.32,985.857"/>
<path class="Note" d="M2040.75,960.856 C2039.25,958.156 2036.35,956.456 2032.45,956.056 C2031.85,955.956 2031.35,955.956 2030.75,955.956 C2027.25,955.956 2023.45,956.956 2019.95,958.856 C2013.35,962.456 2009.25,968.356 2009.25,973.456 C2009.25,974.856 2009.45,976.156 2010.15,977.356 C2011.65,980.056 2014.65,981.756 2018.55,982.156 C2019.15,982.256 2019.65,982.256 2020.25,982.256 C2023.75,982.256 2027.45,981.256 2030.95,979.356 C2037.55,975.756 2041.75,969.956 2041.75,964.856 C2041.75,963.456 2041.45,962.056 2040.75,960.856"/>
<path class="Note" d="M2251.19,985.857 C2249.69,983.157 2246.79,981.457 2242.89,981.057 C2242.29,980.957 2241.79,980.957 2241.19,980.957 C2237.69,980.957 2233.89,981.957 2230.39,983.857 C2223.79,987.457 2219.69,993.357 2219.69,998.457 C2219.69,999.857 2219.89,1001.16 2220.59,1002.36 C2222.09,1005.06 2225.09,1006.76 2228.99,1007.16 C2229.59,1007.26 2230.09,1007.26 2230.69,1007.26 C2234.19,1007.26 2237.89,1006.26 2241.39,1004.36 C2247.99,1000.76 2252.19,994.957 2252.19,989.857 C2252.19,988.457 2251.89,987.057 2251.19,985.857"/>
<path class="Note" d="M2431.34,960.856 C2429.84,958.156 2426.94,956.456 2423.04,956.056 C2422.44,955.956 2421.94,955.956 2421.34,955.956 C2417.84,955.956 2414.04,956.956 2410.54,958.856 C2403.94,962.456 2399.84,968.356 2399.84,973.456 C2399.84,974.856 2400.04,976.156 2400.74,977.356 C2402.24,980.056 2405.24,981.756 2409.14,982.156 C2409.74,982.256 2410.24,982.256 2410.84,982.256 C2414.34,982.256 2418.04,981.256 2421.54,979.356 C2428.14,975.756 2432.34,969.956 2432.34,964.856 C2432.34,963.456 2432.04,962.056 2431.34,960.856"/>
<path class="Note" d="M2611.48,935.854 C2609.98,933.154 2607.08,931.454 2603.18,931.054 C2602.58,930.954 2602.08,930.954 2601.48,930.954 C2597.98,930.954 2594.18,931.954 2590.68,933.854 C2584.08,937.454 2579.98,943.354 2579.98,948.454 C2579.98,949.854 2580.18,951.154 2580.88,952.354 C2582.38,955.054 2585.38,956.754 2589.28,957.154 C2589.88,957.254 2590.38,957.254 2590.98,957.254 C2594.48,957.254 2598.18,956.254 2601.68,954.354 C2608.28,950.754 2612.48,944.954 2612.48,939.854 C2612.48,938.454 2612.18,937.054 2611.48,935.854"/>
<path class="Note" d="M438.351,1548.39 C436.851,1545.69 433.951,1543.99 430.051,1543.59 C429.451,1543.49 428.951,1543.49 428.351,1543.49 C424.851,1543.49 421.051,1544.49 417.551,1546.39 C410.951,1549.99 406.851,1555.89 406.851,1560.99 C406.851,1562.39 407.051,1563.69 407.751,1564.89 C409.251,1567.59 412.251,1569.29 416.151,1569.69 C416.751,1569.79 417.251,1569.79 417.851,1569.79 C421.351,1569.79 425.051,1568.79 428.551,1566.89 C435.151,1563.29 439.351,1557.49 439.351,1552.39 C439.351,1550.99 439.051,1549.59 438.351,1548.39"/>
<path class="Note" d="M631.321,1585.9 C629.821,1583.2 626.921,1581.5 623.021,1581.1 C622.421,1581 621.921,1581 621.321,1581 C617.821,1581 614.021,1582 610.521,1583.9 C603.921,1587.5 599.821,1593.4 599.821,1598.5 C599.821,1599.9 600.021,1601.2 600.721,1602.4 C602.221,1605.1 605.221,1606.8 609.121,1607.2 C609.721,1607.3 610.221,1607.3 610.821,1607.3 C614.321,1607.3 618.021,1606.3 621.521,1604.4 C628.121,1600.8 632.321,1595 632.321,1589.9 C632.321,1588.5 632.021,1587.1 631.321,1585.9"/>
<path class="Note" d="M824.292,1610.9 C822.792,1608.2 819.892,1606.5 815.992,1606.1 C815.392,1606 814.892,1606 814.292,1606 C810.792,1606 806.992,1607 803.492,1608.9 C796.892,1612.5 792.792,1618.4 792.792,1623.5 C792.792,1624.9 792.992,1626.2 793.692,1627.4 C795.192,1630.1 798.192,1631.8 802.092,1632.2 C802.692,1632.3 803.192,1632.3 803.792,1632.3 C807.292,1632.3 810.992,1631.3 814.492,1629.4 C821.092,1625.8 825.292,1620 825.292,1614.9 C825.292,1613.5 824.992,1612.1 824.292,1610.9"/>
<path class="Note" d="M1063.01,1585.9 C1061.51,1583.2 1058.61,1581.5 1054.71,1581.1 C1054.11,1581 1053.61,1581 1053.01,1581 C1049.51,1581 1045.71,1582 1042.21,1583.9 C1035.61,1587.5 1031.51,1593.4 1031.51,1598.5 C1031.51,1599.9 1031.71,1601.2 1032.41,1602.4 C1033.91,1605.1 1036.91,1606.8 1040.81,1607.2 C1041.41,1607.3 1041.91,1607.3 1042.51,1607.3 C1046.01,1607.3 1049.71,1606.3 1053.21,1604.4 C1059.81,1600.8 1064.01,1595 1064.01,1589.9 C1064.01,1588.5 1063.71,1587.1 1063.01,1585.9"/>
<path class="Note" d="M1249.28,1610.9 C1247.78,1608.2 1244.88,1606.5 1240.98,1606.1 C1240.38,1606 1239.88,1606 1239.28,1606 C1235.78,1606 1231.98,1607 1228.48,1608.9 C1221.88,1612.5 1217.78,1618.4 1217.78,1623.5 C1217.78,1624.9 1217.98,1626.2 1218.68,1627.4 C1220.18,1630.1 1223.18,1631.8 1227.08,1632.2 C1227.68,1632.3 1228.18,1632.3 1228.78,1632.3 C1232.28,1632.3 1235.98,1631.3 1239.48,1629.4 C1246.08,1625.8 1250.28,1620 1250.28,1614.9 C1250.28,1613.5 1249.98,1612.1 1249.28,1610.9"/>
<path class="Note" d="M1435.54,1635.9 C1434.04,1633.2 1431.14,1631.5 1427.24,1631.1 C1426.64,1631 1426.14,1631 1425.54,1631 C1422.04,1631 1418.24,1632 1414.74,1633.9 C1408.14,1637.5 1404.04,1643.4 1404.04,1648.5 C1404.04,1649.9 1404.24,1651.2 1404.94,1652.4 C1406.44,1655.1 1409.44,1656.8 1413.34,1657.2 C1413.94,1657.3 1414.44,1657.3 1415.04,1657.3 C1418.54,1657.3 1422.24,1656.3 1425.74,1654.4 C1432.34,1650.8 1436.54,1645 1436.54,1639.9 C1436.54,1638.5 1436.24,1637.1 1435.54,1635.9"/>
<path class="Note" d="M1658.8,1598.4 C1657.3,1595.7 1654.4,1594 1650.5,1593.6 C1649.9,1593.5 1649.4,1593.5 1648.8,1593.5 C1645.3,1593.5 1641.5,1594.5 1638,1596.4 C1631.4,1600 1627.3,1605.9 1627.3,1611 C1627.3,1612.4 1627.5,1613.7 1628.2,1614.9 C1629.7,1617.6 1632.7,1619.3 1636.6,1619.7 C1637.2,1619.8 1637.7,1619.8 1638.3,1619.8 C1641.8,1619.8 1645.5,1618.8 1649,1616.9 C1655.6,1613.3 1659.8,1607.5 1659.8,1602.4 C1659.8,1601 1659.5,1599.6 1658.8,1598.4"/>
<path class="Note" d="M1833.31,1635.9 C1831.81,1633.2 1828.91,1631.5 1825.01,1631.1 C1824.41,1631 1823.91,1631 1823.31,1631 C1819.81,1631 1816.01,1632 1812.51,1633.9 C1805.91,1637.5 1801.81,1643.4 1801.81,1648.5 C1801.81,1649.9 1802.01,1651.2 1802.71,1652.4 C1804.21,1655.1 1807.21,1656.8 1811.11,1657.2 C1811.71,1657.3 1812.21,1657.3 1812.81,1657.3 C1816.31,1657.3 1820.01,1656.3 1823.51,1654.4 C1830.11,1650.8 1834.31,1645 1834.31,1639.9 C1834.31,1638.5 1834.01,1637.1 1833.31,1635.9"/>
<path class="Note" d="M2007.83,1660.9 C2006.33,1658.2 2003.43,1656.5 1999.53,1656.1 C1998.93,1656 1998.43,1656 1997.83,1656 C1994.33,1656 1990.53,1657 1987.03,1658.9 C1980.43,1662.5 1976.33,1668.4 1976.33,1673.5 C1976.33,1674.9 1976.53,1676.2 1977.23,1677.4 C1978.73,1680.1 1981.73,1681.8 1985.63,1682.2 C1986.23,1682.3 1986.73,1682.3 1987.33,1682.3 C1990.83,1682.3 1994.53,1681.3 1998.03,1679.4 C2004.63,1675.8 2008.83,1670 2008.83,1664.9 C2008.83,1663.5 2008.53,1662.1 2007.83,1660.9"/>
<path class="Note" d="M2240.59,1485.89 C2239.09,1483.19 2236.19,1481.49 2232.29,1481.09 C2231.69,1480.99 2231.19,1480.99 2230.59,1480.99 C2227.09,1480.99 2223.29,1481.99 2219.79,1483.89 C2213.19,1487.49 2209.09,1493.39 2209.09,1498.49 C2209.09,1499.89 2209.29,1501.19 2209.99,1502.39 C2211.49,1505.09 2214.49,1506.79 2218.39,1507.19 C2218.99,1507.29 2219.49,1507.29 2220.09,1507.29 C2223.59,1507.29 2227.29,1506.29 2230.79,1504.39 C2237.39,1500.79 2241.59,1494.99 2241.59,1489.89 C2241.59,1488.49 2241.29,1487.09 2240.59,1485.89"/>
<path class="Note" d="M2415.1,1510.89 C2413.6,1508.19 2410.7,1506.49 2406.8,1506.09 C2406.2,1505.99 2405.7,1505.99 2405.1,1505.99 C2401.6,1505.99 2397.8,1506.99 2394.3,1508.89 C2387.7,1512.49 2383.6,1518.39 2383.6,1523.49 C2383.6,1524.89 2383.8,1526.19 2384.5,1527.39 C2386,1530.09 2389,1531.79 2392.9,1532.19 C2393.5,1532.29 2394,1532.29 2394.6,1532.29 C2398.1,1532.29 2401.8,1531.29 2405.3,1529.39 C2411.9,1525.79 2416.1,1519.99 2416.1,1514.89 C2416.1,1513.49 2415.8,1512.09 2415.1,1510.89"/>
<path class="Note" d="M2589.62,1535.89 C2588.12,1533.19 2585.22,1531.49 2581.32,1531.09 C2580.72,1530.99 2580.22,1530.99 2579.62,1530.99 C2576.12,1530.99 2572.32,1531.99 2568.82,1533.89 C2562.22,1537.49 2558.12,1543.39 2558.12,1548.49 C2558.12,1549.89 2558.32,1551.19 2559.02,1552.39 C2560.52,1555.09 2563.52,1556.79 2567.42,1557.19 C2568.02,1557.29 2568.52,1557.29 2569.12,1557.29 C2572.62,1557.29 2576.32,1556.29 2579.82,1554.39 C2586.42,1550.79 2590.62,1544.99 2590.62,1539.89 C2590.62,1538.49 2590.32,1537.09 2589.62,1535.89"/>
<path class="Note" d="M486.502,723.341 C485.002,720.641 482.102,718.941 478.202,718.541 C477.602,718.441 477.102,718.441 476.502,718.441 C473.002,718.441 469.202,719.441 465.702,721.341 C459.102,724.941 455.002,730.841 455.002,735.941 C455.002,737.341 455.202,738.641 455.902,739.841 C457.402,742.541 460.402,744.241 464.302,744.641 C464.902,744.741 465.402,744.741 466.002,744.741 C469.502,744.741 473.202,743.741 476.702,741.841 C483.302,738.241 487.502,732.441 487.502,727.341 C487.502,725.941 487.202,724.541 486.502,723.341"/>
<path class="Note" d="M659.94,698.339 C658.44,695.639 655.54,693.939 651.64,693.539 C651.04,693.439 650.54,693.439 649.94,693.439 C646.44,693.439 642.64,694.439 639.14,696.339 C632.54,699.939 628.44,705.839 628.44,710.939 C628.44,712.339 628.64,713.639 629.34,714.839 C630.84,717.539 633.84,719.239 637.74,719.639 C638.34,719.739 638.84,719.739 639.44,719.739 C642.94,719.739 646.64,718.739 650.14,716.839 C656.74,713.239 660.94,707.439 660.94,702.339 C660.94,700.939 660.64,699.539 659.94,698.339"/>
<path class="Note" d="M833.377,673.338 C831.877,670.638 828.977,668.938 825.077,668.538 C824.477,668.438 823.977,668.438 823.377,668.438 C819.877,668.438 816.077,669.438 812.577,671.338 C805.977,674.938 801.877,680.838 801.877,685.938 C801.877,687.338 802.077,688.638 802.777,689.838 C804.277,692.538 807.277,694.238 811.177,694.638 C811.777,694.738 812.277,694.738 812.877,694.738 C816.377,694.738 820.077,693.738 823.577,691.838 C830.177,688.238 834.377,682.438 834.377,677.338 C834.377,675.938 834.077,674.538 833.377,673.338"/>
<path class="Note" d="M1136.56,698.339 C1135.06,695.639 1132.16,693.939 1128.26,693.539 C1127.66,693.439 1127.16,693.439 1126.56,693.439 C1123.06,693.439 1119.26,694.439 1115.76,696.339 C1109.16,699.939 1105.06,705.839 1105.06,710.939 C1105.06,712.339 1105.26,713.639 1105.96,714.839 C1107.46,717.539 1110.46,719.239 1114.36,719.639 C1114.96,719.739 1115.46,719.739 1116.06,719.739 C1119.56,719.739 1123.26,718.739 1126.76,716.839 C1133.36,713.239 1137.56,707.439 1137.56,702.339 C1137.56,700.939 1137.26,699.539 1136.56,698.339"/>
<path class="Note" d="M1310,673.338 C1308.5,670.638 1305.6,668.938 1301.7,668.538 C1301.1,668.438 1300.6,668.438 1300,668.438 C1296.5,668.438 1292.7,669.438 1289.2,671.338 C1282.6,674.938 1278.5,680.838 1278.5,685.938 C1278.5,687.338 1278.7,688.638 1279.4,689.838 C1280.9,692.538 1283.9,694.238 1287.8,694.638 C1288.4,694.738 1288.9,694.738 1289.5,694.738 C1293,694.738 1296.7,693.738 1300.2,691.838 C1306.8,688.238 1311,682.438 1311,677.338 C1311,675.938 1310.7,674.538 1310,673.338"/>
<path class="Note" d="M1483.44,635.835 C1481.94,633.135 1479.04,631.435 1475.14,631.035 C1474.54,630.935 1474.04,630.935 1473.44,630.935 C1469.94,630.935 1466.14,631.935 1462.64,633.835 C1456.04,637.435 1451.94,643.335 1451.94,648.435 C1451.94,649.835 1452.14,651.135 1452.84,652.335 C1454.34,655.035 1457.34,656.735 1461.24,657.135 C1461.84,657.235 1462.34,657.235 1462.94,657.235 C1466.44,657.235 1470.14,656.235 1473.64,654.335 C1480.24,650.735 1484.44,644.935 1484.44,639.835 C1484.44,638.435 1484.14,637.035 1483.44,635.835"/>
<path class="Note" d="M1693.88,673.338 C1692.38,670.638 1689.48,668.938 1685.58,668.538 C1684.98,668.438 1684.48,668.438 1683.88,668.438 C1680.38,668.438 1676.58,669.438 1673.08,671.338 C1666.48,674.938 1662.38,680.838 1662.38,685.938 C1662.38,687.338 1662.58,688.638 1663.28,689.838 C1664.78,692.538 1667.78,694.238 1671.68,694.638 C1672.28,694.738 1672.78,694.738 1673.38,694.738 C1676.88,694.738 1680.58,693.738 1684.08,691.838 C1690.68,688.238 1694.88,682.438 1694.88,677.338 C1694.88,675.938 1694.58,674.538 1693.88,673.338"/>
<path class="Note" d="M1867.32,635.835 C1865.82,633.135 1862.92,631.435 1859.02,631.035 C1858.42,630.935 1857.92,630.935 1857.32,630.935 C1853.82,630.935 1850.02,631.935 1846.52,633.835 C1839.92,637.435 1835.82,643.335 1835.82,648.435 C1835.82,649.835 1836.02,651.135 1836.72,652.335 C1838.22,655.035 1841.22,656.735 1845.12,657.135 C1845.72,657.235 1846.22,657.235 1846.82,657.235 C1850.32,657.235 1854.02,656.235 1857.52,654.335 C1864.12,650.735 1868.32,644.935 1868.32,639.835 C1868.32,638.435 1868.02,637.035 1867.32,635.835"/>
<path class="Note" d="M2040.75,610.834 C2039.25,608.134 2036.35,606.434 2032.45,606.034 C2031.85,605.934 2031.35,605.934 2030.75,605.934 C2027.25,605.934 2023.45,606.934 2019.95,608.834 C2013.35,612.434 2009.25,618.334 2009.25,623.434 C2009.25,624.834 2009.45,626.134 2010.15,627.334 C2011.65,630.034 2014.65,631.734 2018.55,632.134 C2019.15,632.234 2019.65,632.234 2020.25,632.234 C2023.75,632.234 2027.45,631.234 2030.95,629.334 C2037.55,625.734 2041.75,619.934 2041.75,614.834 C2041.75,613.434 2041.45,612.034 2040.75,610.834"/>
<path class="Note" d="M2251.19,635.835 C2249.69,633.135 2246.79,631.435 2242.89,631.035 C2242.29,630.935 2241.79,630.935 2241.19,630.935 C2237.69,630.935 2233.89,631.935 2230.39,633.835 C2223.79,637.435 2219.69,643.335 2219.69,648.435 C2219.69,649.835 2219.89,651.135 2220.59,652.335 C2222.09,655.035 2225.09,656.735 2228.99,657.135 C2229.59,657.235 2230.09,657.235 2230.69,657.235 C2234.19,657.235 2237.89,656.235 2241.39,654.335 C2247.99,650.735 2252.19,644.935 2252.19,639.835 C2252.19,638.435 2251.89,637.035 2251.19,635.835"/>
<path class="Note" d="M2431.34,610.834 C2429.84,608.134 2426.94,606.434 2423.04,606.034 C2422.44,605.934 2421.94,605.934 2421.34,605.934 C2417.84,605.934 2414.04,606.934 2410.54,608.834 C2403.94,612.434 2399.84,618.334 2399.84,623.434 C2399.84,624.834 2400.04,626.134 2400.74,627.334 C2402.24,630.034 2405.24,631.734 2409.14,632.134 C2409.74,632.234 2410.24,632.234 2410.84,632.234 C2414.34,632.234 2418.04,631.234 2421.54,629.334 C2428.14,625.734 2432.34,619.934 2432.34,614.834 C2432.34,613.434 2432.04,612.034 2431.34,610.834"/>
<path class="Note" d="M2611.48,585.832 C2609.98,583.132 2607.08,581.432 2603.18,581.032 C2602.58,580.932 2602.08,580.932 2601.48,580.932 C2597.98,580.932 2594.18,581.932 2590.68,583.832 C2584.08,587.432 2579.98,593.332 2579.98,598.432 C2579.98,599.832 2580.18,601.132 2580.88,602.332 C2582.38,605.032 2585.38,606.732 2589.28,607.132 C2589.88,607.232 2590.38,607.232 2590.98,607.232 C2594.48,607.232 2598.18,606.232 2601.68,604.332 C2608.28,600.732 2612.48,594.932 2612.48,589.832 C2612.48,588.432 2612.18,587.032 2611.48,585.832"/>
<path class="Note" d="M438.351,1198.37 C436.851,1195.67 433.951,1193.97 430.051,1193.57 C429.451,1193.47 428.951,1193.47 428.351,1193.47 C424.851,1193.47 421.051,1194.47 417.551,1196.37 C410.951,1199.97 406.851,1205.87 406.851,1210.97 C406.851,1212.37 407.051,1213.67 407.751,1214.87 C409.251,1217.57 412.251,1219.27 416.151,1219.67 C416.751,1219.77 417.251,1219.77 417.851,1219.77 C421.351,1219.77 425.051,1218.77 428.551,1216.87 C435.151,1213.27 439.351,1207.47 439.351,1202.37 C439.351,1200.97 439.051,1199.57 438.351,1198.37"/>
<path class="Note" d="M631.321,1235.87 C629.821,1233.17 626.921,1231.47 623.021,1231.07 C622.421,1230.97 621.921,1230.97 621.321,1230.97 C617.821,1230.97 614.021,1231.97 610.521,1233.87 C603.921,1237.47 599.821,1243.37 599.821,1248.47 C599.821,1249.87 600.021,1251.17 600.721,1252.37 C602.221,1255.07 605.221,1256.77 609.121,1257.17 C609.721,1257.27 610.221,1257.27 610.821,1257.27 C614.321,1257.27 618.021,1256.27 621.521,1254.37 C628.121,1250.77 632.321,1244.97 632.321,1239.87 C632.321,1238.47 632.021,1237.07 631.321,1235.87"/>
<path class="Note" d="M824.292,1260.87 C822.792,1258.17 819.892,1256.47 815.992,1256.07 C815.392,1255.97 814.892,1255.97 814.292,1255.97 C810.792,1255.97 806.992,1256.97 803.492,1258.87 C796.892,1262.47 792.792,1268.37 792.792,1273.47 C792.792,1274.87 792.992,1276.17 793.692,1277.37 C795.192,1280.07 798.192,1281.77 802.092,1282.17 C802.692,1282.27 803.192,1282.27 803.792,1282.27 C807.292,1282.27 810.992,1281.27 814.492,1279.37 C821.092,1275.77 825.292,1269.97 825.292,1264.87 C825.292,1263.47 824.992,1262.07 824.292,1260.87"/>
<path class="Note" d="M1063.01,1235.87 C1061.51,1233.17 1058.61,1231.47 1054.71,1231.07 C1054.11,1230.97 1053.61,1230.97 1053.01,1230.97 C1049.51,1230.97 1045.71,1231.97 1042.21,1233.87 C1035.61,1237.47 1031.51,1243.37 1031.51,1248.47 C1031.51,1249.87 1031.71,1251.17 1032.41,1252.37 C1033.91,1255.07 1036.91,1256.77 1040.81,1257.17 C1041.41,1257.27 1041.91,1257.27 1042.51,1257.27 C1046.01,1257.27 1049.71,1256.27 1053.21,1254.37 C1059.81,1250.77 1064.01,1244.97 1064.01,1239.87 C1064.01,1238.47 1063.71,1237.07 1063.01,1235.87"/>
<path class="Note" d="M1249.28,1260.87 C1247.78,1258.17 1244.88,1256.47 1240.98,1256.07 C1240.38,1255.97 1239.88,1255.97 1239.28,1255.97 C1235.78,1255.97 1231.98,1256.97 1228.48,1258.87 C1221.88,1262.47 1217.78,1268.37 1217.78,1273.47 C1217.78,1274.87 1217.98,1276.17 1218.68,1277.37 C1220.18,1280.07 1223.18,1281.77 1227.08,1282.17 C1227.68,1282.27 1228.18,1282.27 1228.78,1282.27 C1232.28,1282.27 1235.98,1281.27 1239.48,1279.37 C1246.08,1275.77 1250.28,1269.97 1250.28,1264.87 C1250.28,1263.47 1249.98,1262.07 1249.28,1260.87"/>
<path class="Note" d="M1435.54,1285.88 C1434.04,1283.18 1431.14,1281.48 1427.24,1281.08 C1426.64,1280.98 1426.14,1280.98 1425.54,1280.98 C1422.04,1280.98 1418.24,1281.98 1414.74,1283.88 C1408.14,1287.48 1404.04,1293.38 1404.04,1298.48 C1404.04,1299.88 1404.24,1301.18 1404.94,1302.38 C1406.44,1305.08 1409.44,1306.78 1413.34,1307.18 C1413.94,1307.28 1414.44,1307.28 1415.04,1307.28 C1418.54,1307.28 1422.24,1306.28 1425.74,1304.38 C1432.34,1300.78 1436.54,1294.98 1436.54,1289.88 C1436.54,1288.48 1436.24,1287.08 1435.54,1285.88"/>
<path class="Note" d="M1658.8,1248.37 C1657.3,1245.67 1654.4,1243.97 1650.5,1243.57 C1649.9,1243.47 1649.4,1243.47 1648.8,1243.47 C1645.3,1243.47 1641.5,1244.47 1638,1246.37 C1631.4,1249.97 1627.3,1255.87 1627.3,1260.97 C1627.3,1262.37 1627.5,1263.67 1628.2,1264.87 C1629.7,1267.57 1632.7,1269.27 1636.6,1269.67 C1637.2,1269.77 1637.7,1269.77 1638.3,1269.77 C1641.8,1269.77 1645.5,1268.77 1649,1266.87 C1655.6,1263.27 1659.8,1257.47 1659.8,1252.37 C1659.8,1250.97 1659.5,1249.57 1658.8,1248.37"/>
<path class="Note" d="M1833.31,1285.88 C1831.81,1283.18 1828.91,1281.48 1825.01,1281.08 C1824.41,1280.98 1823.91,1280.98 1823.31,1280.98 C1819.81,1280.98 1816.01,1281.98 1812.51,1283.88 C1805.91,1287.48 1801.81,1293.38 1801.81,1298.48 C1801.81,1299.88 1802.01,1301.18 1802.71,1302.38 C1804.21,1305.08 1807.21,1306.78 1811.11,1307.18 C1811.71,1307.28 1812.21,1307.28 1812.81,1307.28 C1816.31,1307.28 1820.01,1306.28 1823.51,1304.38 C1830.11,1300.78 1834.31,1294.98 1834.31,1289.88 C1834.31,1288.48 1834.01,1287.08 1833.31,1285.88"/>
<path class="Note" d="M2007.83,1310.88 C2006.33,1308.18 2003.43,1306.48 1999.53,1306.08 C1998.93,1305.98 1998.43,1305.98 1997.83,1305.98 C1994.33,1305.98 1990.53,1306.98 1987.03,1308.88 C1980.43,1312.48 1976.33,1318.38 1976.33,1323.48 C1976.33,1324.88 1976.53,1326.18 1977.23,1327.38 C1978.73,1330.08 1981.73,1331.78 1985.63,1332.18 C1986.23,1332.28 1986.73,1332.28 1987.33,1332.28 C1990.83,1332.28 1994.53,1331.28 1998.03,1329.38 C2004.63,1325.78 2008.83,1319.98 2008.83,1314.88 C2008.83,1313.48 2008.53,1312.08 2007.83,1310.88"/>
<path class="Note" d="M2240.59,1285.88 C2239.09,1283.18 2236.19,1281.48 2232.29,1281.08 C2231.69,1280.98 2231.19,1280.98 2230.59,1280.98 C2227.09,1280.98 2223.29,1281.98 2219.79,1283.88 C2213.19,1287.48 2209.09,1293.38 2209.09,1298.48 C2209.09,1299.88 2209.29,1301.18 2209.99,1302.38 C2211.49,1305.08 2214.49,1306.78 2218.39,1307.18 C2218.99,1307.28 2219.49,1307.28 2220.09,1307.28 C2223.59,1307.28 2227.29,1306.28 2230.79,1304.38 C2237.39,1300.78 2241.59,1294.98 2241.59,1289.88 C2241.59,1288.48 2241.29,1287.08 2240.59,1285.88"/>
<path class="Note" d="M2415.1,1310.88 C2413.6,1308.18 2410.7,1306.48 2406.8,1306.08 C2406.2,1305.98 2405.7,1305.98 2405.1,1305.98 C2401.6,1305.98 2397.8,1306.98 2394.3,1308.88 C2387.7,1312.48 2383.6,1318.38 2383.6,1323.48 C2383.6,1324.88 2383.8,1326.18 2384.5,1327.38 C2386,1330.08 2389,1331.78 2392.9,1332.18 C2393.5,1332.28 2394,1332.28 2394.6,1332.28 C2398.1,1332.28 2401.8,1331.28 2405.3,1329.38 C2411.9,1325.78 2416.1,1319.98 2416.1,1314.88 C2416.1,1313.48 2415.8,1312.08 2415.1,1310.88"/>
<path class="Note" d="M2589.62,1335.88 C2588.12,1333.18 2585.22,1331.48 2581.32,1331.08 C2580.72,1330.98 2580.22,1330.98 2579.62,1330.98 C2576.12,1330.98 2572.32,1331.98 2568.82,1333.88 C2562.22,1337.48 2558.12,1343.38 2558.12,1348.48 C2558.12,1349.88 2558.32,1351.18 2559.02,1352.38 C2560.52,1355.08 2563.52,1356.78 2567.42,1357.18 C2568.02,1357.28 2568.52,1357.28 2569.12,1357.28 C2572.62,1357.28 2576.32,1356.28 2579.82,1354.38 C2586.42,1350.78 2590.62,1344.98 2590.62,1339.88 C2590.62,1338.48 2590.32,1337.08 2589.62,1335.88"/>
<path class="Clef" d="M297,918.954 C289.4,918.954 283.3,923.354 283.2,923.354 C277.4,927.654 275.1,932.754 274.2,936.254 C273.7,938.054 273.5,939.854 273.5,941.554 C273.5,943.954 273.9,946.154 274.8,948.054 C276,950.754 278.3,952.654 281.3,953.654 C282.5,954.054 283.8,954.254 285.1,954.254 C287.3,954.254 289.6,953.654 291.5,952.554 C294.6,950.854 296.5,947.254 296.5,943.354 C296.5,939.854 294.7,936.654 291.7,934.754 C289.6,933.354 287.6,932.954 285.9,932.954 C284.7,932.954 283.6,933.154 282.7,933.454 C281.7,933.854 280,934.854 279.2,935.554 C279.5,933.654 280.7,930.754 281.8,929.154 C282.9,927.554 285.1,925.554 286.8,924.654 C289.3,923.254 292.5,922.654 296,922.654 C306.2,922.654 311.2,930.854 311.2,947.654 C311.2,956.954 307.7,965.854 304.7,971.754 C301.4,978.354 297,984.654 293.1,988.154 C282.7,997.654 272.9,1002.15 272.8,1002.15 C272.8,1002.15 271.3,1003.05 271.7,1004.55 C272,1005.55 272.9,1005.75 273.5,1005.75 C273.6,1005.75 273.9,1005.65 274,1005.65 C274.1,1005.65 285.5,1000.95 294.6,993.854 C299.7,990.154 304.3,986.154 308.3,981.854 C311.9,977.954 315,973.754 317.5,969.554 C321.9,962.054 324.4,954.254 324.4,947.554 C324.4,939.254 322.2,932.354 318.1,927.454 C313.4,921.854 306.3,918.954 297,918.954 M328.4,931.654 C328.4,934.454 330.6,936.654 333.2,936.654 C335.8,936.654 338,934.454 338,931.654 C338,928.854 335.8,926.554 333.2,926.554 C330.6,926.554 328.4,928.854 328.4,931.654 M328.4,956.354 C328.4,959.154 330.6,961.454 333.2,961.454 C335.8,961.454 338,959.154 338,956.354 C338,953.554 335.8,951.254 333.2,951.254 C330.6,951.254 328.4,953.554 328.4,956.354"/>
<path class="Clef" d="M1063.22,988.157 C1062.02,982.757 1059.32,978.857 1058.52,977.857 C1055.32,973.557 1051.32,970.757 1046.62,969.357 C1044.32,968.657 1042.22,968.457 1040.22,968.457 C1039.52,968.457 1038.82,968.457 1038.12,968.557 C1037.12,962.557 1036.02,956.657 1035.12,951.257 C1040.72,945.057 1044.42,939.157 1046.82,934.757 C1050.42,928.057 1051.82,923.357 1051.92,923.157 C1053.12,920.157 1053.82,916.357 1053.82,911.857 C1053.82,909.157 1053.52,906.257 1053.12,903.257 C1052.02,896.157 1049.82,889.457 1047.32,885.757 C1046.02,883.857 1044.82,882.757 1043.62,882.757 C1042.42,882.757 1039.92,883.957 1037.02,886.757 C1034.72,888.957 1031.42,892.857 1028.82,898.857 C1026.52,904.257 1025.82,911.157 1025.82,917.057 C1025.82,918.857 1025.92,920.557 1026.02,922.157 C1026.22,925.757 1026.92,931.557 1027.52,935.157 C1027.52,935.257 1027.82,936.757 1028.22,939.357 L1027.52,940.057 C1026.52,941.057 1025.32,942.157 1023.92,943.557 C1023.02,944.457 1022.12,945.257 1021.12,946.257 C1012.62,954.457 999.816,966.857 999.816,985.957 C999.816,990.657 1000.72,995.057 1002.52,999.057 C1004.12,1002.66 1006.42,1005.96 1009.32,1008.86 C1016.82,1016.26 1027.02,1019.46 1034.12,1019.46 L1034.72,1019.46 C1037.62,1019.36 1040.32,1019.06 1042.72,1018.66 C1044.52,1028.26 1045.72,1035.36 1045.72,1040.66 C1045.72,1047.16 1044.12,1051.06 1040.22,1053.86 C1037.82,1055.56 1034.92,1056.66 1031.82,1056.76 L1031.02,1056.76 C1029.52,1056.76 1027.02,1056.36 1025.52,1055.96 C1025.52,1055.96 1025.22,1055.86 1025.22,1055.66 C1025.22,1055.46 1025.62,1055.46 1025.62,1055.46 C1027.52,1055.06 1031.12,1053.76 1033.52,1050.46 C1034.62,1048.96 1035.32,1046.66 1035.32,1044.16 C1035.32,1042.56 1035.02,1040.86 1034.32,1039.36 C1033.22,1036.96 1030.62,1033.96 1025.02,1033.56 L1023.92,1033.56 C1021.82,1033.56 1020.02,1034.06 1018.32,1035.06 C1016.52,1036.16 1014.92,1037.86 1013.92,1039.86 C1012.82,1041.86 1012.32,1044.06 1012.32,1046.26 C1012.32,1049.16 1013.22,1051.86 1015.02,1054.06 C1018.02,1057.66 1022.72,1059.96 1028.12,1060.56 C1028.82,1060.66 1029.92,1060.76 1030.62,1060.76 C1035.02,1060.76 1039.42,1059.56 1043.02,1057.36 C1046.72,1054.76 1048.82,1050.76 1049.52,1045.16 C1049.72,1043.86 1049.72,1042.46 1049.72,1040.96 C1049.72,1037.06 1049.22,1032.36 1048.22,1026.56 C1047.82,1024.46 1047.42,1021.46 1046.72,1017.66 C1052.52,1015.76 1056.62,1012.06 1060.42,1006.26 C1062.72,1002.26 1063.82,998.157 1063.82,993.857 C1063.82,991.957 1063.62,990.057 1063.22,988.157 M1033.02,910.257 C1034.82,904.557 1037.52,901.157 1039.52,899.457 C1041.32,897.957 1042.92,897.257 1043.82,897.257 C1043.92,897.257 1044.12,897.357 1044.22,897.357 C1044.52,897.457 1044.92,897.957 1045.32,898.657 C1046.22,900.457 1047.12,903.757 1047.12,907.457 C1047.12,909.357 1046.92,911.357 1046.32,913.157 C1044.12,919.957 1039.52,927.257 1032.52,934.957 C1032.32,933.857 1032.12,932.857 1032.02,931.857 C1031.52,928.657 1031.22,925.457 1031.22,922.557 C1031.22,918.057 1031.82,913.957 1033.02,910.257 M1029.02,1014.36 C1024.42,1013.16 1019.92,1010.66 1016.12,1007.16 C1014.82,1005.96 1013.02,1003.76 1011.52,1000.36 C1010.22,997.357 1009.52,994.257 1009.52,990.857 L1009.52,990.157 C1009.62,985.457 1010.92,980.657 1013.42,975.857 C1016.32,970.257 1020.82,964.757 1026.92,959.457 C1028.42,958.157 1029.82,956.857 1031.12,955.557 C1031.92,959.857 1032.62,964.557 1033.52,969.457 C1029.62,970.757 1024.92,973.757 1021.82,979.457 C1019.42,983.957 1018.72,987.857 1018.72,991.057 C1018.72,992.557 1018.92,993.957 1019.12,995.057 C1020.02,999.557 1022.62,1003.26 1026.12,1005.36 C1026.92,1005.86 1030.22,1007.56 1032.22,1007.56 C1032.52,1007.56 1032.82,1007.56 1033.02,1007.46 C1033.32,1007.36 1033.62,1007.16 1033.72,1006.86 C1033.82,1006.66 1033.82,1006.46 1033.82,1006.26 C1033.82,1005.46 1033.02,1004.86 1031.72,1004.06 C1031.12,1003.66 1030.42,1003.26 1029.72,1002.76 C1027.12,1000.76 1025.62,997.657 1025.62,994.257 C1025.62,993.257 1025.82,992.357 1026.02,991.357 C1026.52,989.357 1028.22,986.557 1029.72,985.157 C1031.42,983.657 1033.42,982.457 1035.82,981.857 C1037.82,993.057 1039.92,1004.16 1041.52,1012.56 C1041.62,1013.26 1041.82,1013.96 1041.92,1014.66 C1039.92,1015.06 1037.92,1015.26 1036.02,1015.26 C1033.62,1015.26 1031.32,1014.96 1029.02,1014.36 M1054.72,1004.16 C1053.52,1007.36 1051.02,1011.36 1045.92,1013.46 C1045.82,1013.06 1045.82,1012.56 1045.72,1012.16 C1044.22,1003.36 1042.32,992.457 1040.32,981.157 L1041.32,981.157 C1051.02,981.157 1054.92,988.357 1055.82,992.957 C1056.02,993.857 1056.12,995.057 1056.12,996.357 C1056.12,998.657 1055.72,1001.46 1054.72,1004.16"/>
<path class="Clef" d="M335,1600.7 C333.8,1595.3 331.1,1591.4 330.3,1590.4 C327.1,1586.1 323.1,1583.3 318.4,1581.9 C316.1,1581.2 314,1581 312,1581 C311.3,1581 310.6,1581 309.9,1581.1 C308.9,1575.1 307.8,1569.2 306.9,1563.8 C312.5,1557.6 316.2,1551.7 318.6,1547.3 C322.2,1540.6 323.6,1535.9 323.7,1535.7 C324.9,1532.7 325.6,1528.9 325.6,1524.4 C325.6,1521.7 325.3,1518.8 324.9,1515.8 C323.8,1508.7 321.6,1502 319.1,1498.3 C317.8,1496.4 316.6,1495.3 315.4,1495.3 C314.2,1495.3 311.7,1496.5 308.8,1499.3 C306.5,1501.5 303.2,1505.4 300.6,1511.4 C298.3,1516.8 297.6,1523.7 297.6,1529.6 C297.6,1531.4 297.7,1533.1 297.8,1534.7 C298,1538.3 298.7,1544.1 299.3,1547.7 C299.3,1547.8 299.6,1549.3 300,1551.9 L299.3,1552.6 C298.3,1553.6 297.1,1554.7 295.7,1556.1 C294.8,1557 293.9,1557.8 292.9,1558.8 C284.4,1567 271.6,1579.4 271.6,1598.5 C271.6,1603.2 272.5,1607.6 274.3,1611.6 C275.9,1615.2 278.2,1618.5 281.1,1621.4 C288.6,1628.8 298.8,1632 305.9,1632 L306.5,1632 C309.4,1631.9 312.1,1631.6 314.5,1631.2 C316.3,1640.8 317.5,1647.9 317.5,1653.2 C317.5,1659.7 315.9,1663.6 312,1666.4 C309.6,1668.1 306.7,1669.2 303.6,1669.3 L302.8,1669.3 C301.3,1669.3 298.8,1668.9 297.3,1668.5 C297.3,1668.5 297,1668.4 297,1668.2 C297,1668 297.4,1668 297.4,1668 C299.3,1667.6 302.9,1666.3 305.3,1663 C306.4,1661.5 307.1,1659.2 307.1,1656.7 C307.1,1655.1 306.8,1653.4 306.1,1651.9 C305,1649.5 302.4,1646.5 296.8,1646.1 L295.7,1646.1 C293.6,1646.1 291.8,1646.6 290.1,1647.6 C288.3,1648.7 286.7,1650.4 285.7,1652.4 C284.6,1654.4 284.1,1656.6 284.1,1658.8 C284.1,1661.7 285,1664.4 286.8,1666.6 C289.8,1670.2 294.5,1672.5 299.9,1673.1 C300.6,1673.2 301.7,1673.3 302.4,1673.3 C306.8,1673.3 311.2,1672.1 314.8,1669.9 C318.5,1667.3 320.6,1663.3 321.3,1657.7 C321.5,1656.4 321.5,1655 321.5,1653.5 C321.5,1649.6 321,1644.9 320,1639.1 C319.6,1637 319.2,1634 318.5,1630.2 C324.3,1628.3 328.4,1624.6 332.2,1618.8 C334.5,1614.8 335.6,1610.7 335.6,1606.4 C335.6,1604.5 335.4,1602.6 335,1600.7 M304.8,1522.8 C306.6,1517.1 309.3,1513.7 311.3,1512 C313.1,1510.5 314.7,1509.8 315.6,1509.8 C315.7,1509.8 315.9,1509.9 316,1509.9 C316.3,1510 316.7,1510.5 317.1,1511.2 C318,1513 318.9,1516.3 318.9,1520 C318.9,1521.9 318.7,1523.9 318.1,1525.7 C315.9,1532.5 311.3,1539.8 304.3,1547.5 C304.1,1546.4 303.9,1545.4 303.8,1544.4 C303.3,1541.2 303,1538 303,1535.1 C303,1530.6 303.6,1526.5 304.8,1522.8 M300.8,1626.9 C296.2,1625.7 291.7,1623.2 287.9,1619.7 C286.6,1618.5 284.8,1616.3 283.3,1612.9 C282,1609.9 281.3,1606.8 281.3,1603.4 L281.3,1602.7 C281.4,1598 282.7,1593.2 285.2,1588.4 C288.1,1582.8 292.6,1577.3 298.7,1572 C300.2,1570.7 301.6,1569.4 302.9,1568.1 C303.7,1572.4 304.4,1577.1 305.3,1582 C301.4,1583.3 296.7,1586.3 293.6,1592 C291.2,1596.5 290.5,1600.4 290.5,1603.6 C290.5,1605.1 290.7,1606.5 290.9,1607.6 C291.8,1612.1 294.4,1615.8 297.9,1617.9 C298.7,1618.4 302,1620.1 304,1620.1 C304.3,1620.1 304.6,1620.1 304.8,1620 C305.1,1619.9 305.4,1619.7 305.5,1619.4 C305.6,1619.2 305.6,1619 305.6,1618.8 C305.6,1618 304.8,1617.4 303.5,1616.6 C302.9,1616.2 302.2,1615.8 301.5,1615.3 C298.9,1613.3 297.4,1610.2 297.4,1606.8 C297.4,1605.8 297.6,1604.9 297.8,1603.9 C298.3,1601.9 300,1599.1 301.5,1597.7 C303.2,1596.2 305.2,1595 307.6,1594.4 C309.6,1605.6 311.7,1616.7 313.3,1625.1 C313.4,1625.8 313.6,1626.5 313.7,1627.2 C311.7,1627.6 309.7,1627.8 307.8,1627.8 C305.4,1627.8 303.1,1627.5 300.8,1626.9 M326.5,1616.7 C325.3,1619.9 322.8,1623.9 317.7,1626 C317.6,1625.6 317.6,1625.1 317.5,1624.7 C316,1615.9 314.1,1605 312.1,1593.7 L313.1,1593.7 C322.8,1593.7 326.7,1600.9 327.6,1605.5 C327.8,1606.4 327.9,1607.6 327.9,1608.9 C327.9,1611.2 327.5,1614 326.5,1616.7"/>
<path class="Clef" transform="matrix(0.80005,0,0,0.80005,2097.72,1556.59)" d="M25.4,-25.1 C17.8,-25.1 11.7,-20.7 11.6,-20.7 C5.8,-16.4 3.5,-11.3 2.6,-7.8 C2.1,-6 1.9,-4.2 1.9,-2.5 C1.9,-0.1 2.3,2.1 3.2,4 C4.4,6.7 6.7,8.6 9.7,9.6 C10.9,10 12.2,10.2 13.5,10.2 C15.7,10.2 18,9.6 19.9,8.5 C23,6.8 24.9,3.2 24.9,-0.7 C24.9,-4.2 23.1,-7.4 20.1,-9.3 C18,-10.7 16,-11.1 14.3,-11.1 C13.1,-11.1 12,-10.9 11.1,-10.6 C10.1,-10.2 8.4,-9.2 7.6,-8.5 C7.9,-10.4 9.1,-13.3 10.2,-14.9 C11.3,-16.5 13.5,-18.5 15.2,-19.4 C17.7,-20.8 20.9,-21.4 24.4,-21.4 C34.6,-21.4 39.6,-13.2 39.6,3.6 C39.6,12.9 36.1,21.8 33.1,27.7 C29.8,34.3 25.4,40.6 21.5,44.1 C11.1,53.6 1.3,58.1 1.2,58.1 C1.2,58.1 -0.3,59 0.1,60.5 C0.4,61.5 1.3,61.7 1.9,61.7 C2,61.7 2.3,61.6 2.4,61.6 C2.5,61.6 13.9,56.9 23,49.8 C28.1,46.1 32.7,42.1 36.7,37.8 C40.3,33.9 43.4,29.7 45.9,25.5 C50.3,18 52.8,10.2 52.8,3.5 C52.8,-4.8 50.6,-11.7 46.5,-16.6 C41.8,-22.2 34.7,-25.1 25.4,-25.1 M56.8,-12.4 C56.8,-9.6 59,-7.4 61.6,-7.4 C64.2,-7.4 66.4,-9.6 66.4,-12.4 C66.4,-15.2 64.2,-17.5 61.6,-17.5 C59,-17.5 56.8,-15.2 56.8,-12.4 M56.8,12.3 C56.8,15.1 59,17.4 61.6,17.4 C64.2,17.4 66.4,15.1 66.4,12.3 C66.4,9.5 64.2,7.2 61.6,7.2 C59,7.2 56.8,9.5 56.8,12.3"/>
<path class="Clef" d="M335,725.641 C333.8,720.241 331.1,716.341 330.3,715.341 C327.1,711.041 323.1,708.241 318.4,706.841 C316.1,706.141 314,705.941 312,705.941 C311.3,705.941 310.6,705.941 309.9,706.041 C308.9,700.041 307.8,694.141 306.9,688.741 C312.5,682.541 316.2,676.641 318.6,672.241 C322.2,665.541 323.6,660.841 323.7,660.641 C324.9,657.641 325.6,653.841 325.6,649.341 C325.6,646.641 325.3,643.741 324.9,640.741 C323.8,633.641 321.6,626.941 319.1,623.241 C317.8,621.341 316.6,620.241 315.4,620.241 C314.2,620.241 311.7,621.441 308.8,624.241 C306.5,626.441 303.2,630.341 300.6,636.341 C298.3,641.741 297.6,648.641 297.6,654.541 C297.6,656.341 297.7,658.041 297.8,659.641 C298,663.241 298.7,669.041 299.3,672.641 C299.3,672.741 299.6,674.241 300,676.841 L299.3,677.541 C298.3,678.541 297.1,679.641 295.7,681.041 C294.8,681.941 293.9,682.741 292.9,683.741 C284.4,691.941 271.6,704.341 271.6,723.441 C271.6,728.141 272.5,732.541 274.3,736.541 C275.9,740.141 278.2,743.441 281.1,746.341 C288.6,753.741 298.8,756.941 305.9,756.941 L306.5,756.941 C309.4,756.841 312.1,756.541 314.5,756.141 C316.3,765.741 317.5,772.841 317.5,778.141 C317.5,784.641 315.9,788.541 312,791.341 C309.6,793.041 306.7,794.141 303.6,794.241 L302.8,794.241 C301.3,794.241 298.8,793.841 297.3,793.441 C297.3,793.441 297,793.341 297,793.141 C297,792.941 297.4,792.941 297.4,792.941 C299.3,792.541 302.9,791.241 305.3,787.941 C306.4,786.441 307.1,784.141 307.1,781.641 C307.1,780.041 306.8,778.341 306.1,776.841 C305,774.441 302.4,771.441 296.8,771.041 L295.7,771.041 C293.6,771.041 291.8,771.541 290.1,772.541 C288.3,773.641 286.7,775.341 285.7,777.341 C284.6,779.341 284.1,781.541 284.1,783.741 C284.1,786.641 285,789.341 286.8,791.541 C289.8,795.141 294.5,797.441 299.9,798.041 C300.6,798.141 301.7,798.241 302.4,798.241 C306.8,798.241 311.2,797.041 314.8,794.841 C318.5,792.241 320.6,788.241 321.3,782.641 C321.5,781.341 321.5,779.941 321.5,778.441 C321.5,774.541 321,769.841 320,764.041 C319.6,761.941 319.2,758.941 318.5,755.141 C324.3,753.241 328.4,749.541 332.2,743.741 C334.5,739.741 335.6,735.641 335.6,731.341 C335.6,729.441 335.4,727.541 335,725.641 M304.8,647.741 C306.6,642.041 309.3,638.641 311.3,636.941 C313.1,635.441 314.7,634.741 315.6,634.741 C315.7,634.741 315.9,634.841 316,634.841 C316.3,634.941 316.7,635.441 317.1,636.141 C318,637.941 318.9,641.241 318.9,644.941 C318.9,646.841 318.7,648.841 318.1,650.641 C315.9,657.441 311.3,664.741 304.3,672.441 C304.1,671.341 303.9,670.341 303.8,669.341 C303.3,666.141 303,662.941 303,660.041 C303,655.541 303.6,651.441 304.8,647.741 M300.8,751.841 C296.2,750.641 291.7,748.141 287.9,744.641 C286.6,743.441 284.8,741.241 283.3,737.841 C282,734.841 281.3,731.741 281.3,728.341 L281.3,727.641 C281.4,722.941 282.7,718.141 285.2,713.341 C288.1,707.741 292.6,702.241 298.7,696.941 C300.2,695.641 301.6,694.341 302.9,693.041 C303.7,697.341 304.4,702.041 305.3,706.941 C301.4,708.241 296.7,711.241 293.6,716.941 C291.2,721.441 290.5,725.341 290.5,728.541 C290.5,730.041 290.7,731.441 290.9,732.541 C291.8,737.041 294.4,740.741 297.9,742.841 C298.7,743.341 302,745.041 304,745.041 C304.3,745.041 304.6,745.041 304.8,744.941 C305.1,744.841 305.4,744.641 305.5,744.341 C305.6,744.141 305.6,743.941 305.6,743.741 C305.6,742.941 304.8,742.341 303.5,741.541 C302.9,741.141 302.2,740.741 301.5,740.241 C298.9,738.241 297.4,735.141 297.4,731.741 C297.4,730.741 297.6,729.841 297.8,728.841 C298.3,726.841 300,724.041 301.5,722.641 C303.2,721.141 305.2,719.941 307.6,719.341 C309.6,730.541 311.7,741.641 313.3,750.041 C313.4,750.741 313.6,751.441 313.7,752.141 C311.7,752.541 309.7,752.741 307.8,752.741 C305.4,752.741 303.1,752.441 300.8,751.841 M326.5,741.641 C325.3,744.841 322.8,748.841 317.7,750.941 C317.6,750.541 317.6,750.041 317.5,749.641 C316,740.841 314.1,729.941 312.1,718.641 L313.1,718.641 C322.8,718.641 326.7,725.841 327.6,730.441 C327.8,731.341 327.9,732.541 327.9,733.841 C327.9,736.141 327.5,738.941 326.5,741.641"/>
<path class="Clef" d="M335,1338.18 C333.8,1332.78 331.1,1328.88 330.3,1327.88 C327.1,1323.58 323.1,1320.78 318.4,1319.38 C316.1,1318.68 314,1318.48 312,1318.48 C311.3,1318.48 310.6,1318.48 309.9,1318.58 C308.9,1312.58 307.8,1306.68 306.9,1301.28 C312.5,1295.08 316.2,1289.18 318.6,1284.78 C322.2,1278.08 323.6,1273.38 323.7,1273.18 C324.9,1270.18 325.6,1266.38 325.6,1261.88 C325.6,1259.18 325.3,1256.28 324.9,1253.28 C323.8,1246.18 321.6,1239.48 319.1,1235.78 C317.8,1233.88 316.6,1232.78 315.4,1232.78 C314.2,1232.78 311.7,1233.98 308.8,1236.78 C306.5,1238.98 303.2,1242.88 300.6,1248.88 C298.3,1254.28 297.6,1261.18 297.6,1267.08 C297.6,1268.88 297.7,1270.58 297.8,1272.18 C298,1275.78 298.7,1281.58 299.3,1285.18 C299.3,1285.28 299.6,1286.78 300,1289.38 L299.3,1290.08 C298.3,1291.08 297.1,1292.18 295.7,1293.58 C294.8,1294.48 293.9,1295.28 292.9,1296.28 C284.4,1304.48 271.6,1316.88 271.6,1335.98 C271.6,1340.68 272.5,1345.08 274.3,1349.08 C275.9,1352.68 278.2,1355.98 281.1,1358.88 C288.6,1366.28 298.8,1369.48 305.9,1369.48 L306.5,1369.48 C309.4,1369.38 312.1,1369.08 314.5,1368.68 C316.3,1378.28 317.5,1385.38 317.5,1390.68 C317.5,1397.18 315.9,1401.08 312,1403.88 C309.6,1405.58 306.7,1406.68 303.6,1406.78 L302.8,1406.78 C301.3,1406.78 298.8,1406.38 297.3,1405.98 C297.3,1405.98 297,1405.88 297,1405.68 C297,1405.48 297.4,1405.48 297.4,1405.48 C299.3,1405.08 302.9,1403.78 305.3,1400.48 C306.4,1398.98 307.1,1396.68 307.1,1394.18 C307.1,1392.58 306.8,1390.88 306.1,1389.38 C305,1386.98 302.4,1383.98 296.8,1383.58 L295.7,1383.58 C293.6,1383.58 291.8,1384.08 290.1,1385.08 C288.3,1386.18 286.7,1387.88 285.7,1389.88 C284.6,1391.88 284.1,1394.08 284.1,1396.28 C284.1,1399.18 285,1401.88 286.8,1404.08 C289.8,1407.68 294.5,1409.98 299.9,1410.58 C300.6,1410.68 301.7,1410.78 302.4,1410.78 C306.8,1410.78 311.2,1409.58 314.8,1407.38 C318.5,1404.78 320.6,1400.78 321.3,1395.18 C321.5,1393.88 321.5,1392.48 321.5,1390.98 C321.5,1387.08 321,1382.38 320,1376.58 C319.6,1374.48 319.2,1371.48 318.5,1367.68 C324.3,1365.78 328.4,1362.08 332.2,1356.28 C334.5,1352.28 335.6,1348.18 335.6,1343.88 C335.6,1341.98 335.4,1340.08 335,1338.18 M304.8,1260.28 C306.6,1254.58 309.3,1251.18 311.3,1249.48 C313.1,1247.98 314.7,1247.28 315.6,1247.28 C315.7,1247.28 315.9,1247.38 316,1247.38 C316.3,1247.48 316.7,1247.98 317.1,1248.68 C318,1250.48 318.9,1253.78 318.9,1257.48 C318.9,1259.38 318.7,1261.38 318.1,1263.18 C315.9,1269.98 311.3,1277.28 304.3,1284.98 C304.1,1283.88 303.9,1282.88 303.8,1281.88 C303.3,1278.68 303,1275.48 303,1272.58 C303,1268.08 303.6,1263.98 304.8,1260.28 M300.8,1364.38 C296.2,1363.18 291.7,1360.68 287.9,1357.18 C286.6,1355.98 284.8,1353.78 283.3,1350.38 C282,1347.38 281.3,1344.28 281.3,1340.88 L281.3,1340.18 C281.4,1335.48 282.7,1330.68 285.2,1325.88 C288.1,1320.28 292.6,1314.78 298.7,1309.48 C300.2,1308.18 301.6,1306.88 302.9,1305.58 C303.7,1309.88 304.4,1314.58 305.3,1319.48 C301.4,1320.78 296.7,1323.78 293.6,1329.48 C291.2,1333.98 290.5,1337.88 290.5,1341.08 C290.5,1342.58 290.7,1343.98 290.9,1345.08 C291.8,1349.58 294.4,1353.28 297.9,1355.38 C298.7,1355.88 302,1357.58 304,1357.58 C304.3,1357.58 304.6,1357.58 304.8,1357.48 C305.1,1357.38 305.4,1357.18 305.5,1356.88 C305.6,1356.68 305.6,1356.48 305.6,1356.28 C305.6,1355.48 304.8,1354.88 303.5,1354.08 C302.9,1353.68 302.2,1353.28 301.5,1352.78 C298.9,1350.78 297.4,1347.68 297.4,1344.28 C297.4,1343.28 297.6,1342.38 297.8,1341.38 C298.3,1339.38 300,1336.58 301.5,1335.18 C303.2,1333.68 305.2,1332.48 307.6,1331.88 C309.6,1343.08 311.7,1354.18 313.3,1362.58 C313.4,1363.28 313.6,1363.98 313.7,1364.68 C311.7,1365.08 309.7,1365.28 307.8,1365.28 C305.4,1365.28 303.1,1364.98 300.8,1364.38 M326.5,1354.18 C325.3,1357.38 322.8,1361.38 317.7,1363.48 C317.6,1363.08 317.6,1362.58 317.5,1362.18 C316,1353.38 314.1,1342.48 312.1,1331.18 L313.1,1331.18 C322.8,1331.18 326.7,1338.38 327.6,1342.98 C327.8,1343.88 327.9,1345.08 327.9,1346.38 C327.9,1348.68 327.5,1351.48 326.5,1354.18"/>
<path class="TimeSig" d="M392.053,942.954 L392.253,942.954 C400.253,939.854 400.753,934.654 400.753,932.854 L400.753,932.354 C400.753,931.454 400.453,920.154 383.253,920.154 C366.053,920.154 366.553,932.354 366.553,932.354 L366.653,932.354 L366.553,932.554 C366.553,936.154 369.453,938.954 373.053,938.954 C376.653,938.954 379.453,936.154 379.453,932.554 C379.453,929.654 377.253,926.854 374.453,926.254 L374.753,925.954 C376.153,924.954 378.053,924.454 379.953,924.454 C384.153,924.454 388.653,926.954 388.653,932.354 C388.653,938.654 383.953,939.554 382.753,939.754 C381.553,939.954 375.953,940.354 374.753,940.354 C373.553,940.354 373.453,941.754 373.453,941.754 L373.453,943.754 C373.453,943.754 373.653,944.854 374.753,944.954 C376.453,945.054 378.753,945.054 381.953,945.554 C386.353,946.154 388.653,949.154 388.653,956.154 C388.653,962.854 384.153,964.654 379.953,964.654 C377.153,964.654 374.553,963.854 373.453,963.054 C376.753,962.854 379.453,959.954 379.453,956.654 C379.453,953.054 376.653,950.154 373.053,950.154 C369.453,950.154 366.553,953.054 366.553,956.654 C366.553,956.654 366.053,961.154 370.453,965.254 C374.353,968.854 379.253,968.954 381.453,968.954 C391.053,968.954 401.453,965.654 401.453,954.754 C401.453,947.454 396.453,944.354 392.053,942.954"/>
<path class="TimeSig" d="M365.2,1006.06 L382,1006.06 L382,1013.36 L373.9,1013.36 C373.1,1013.36 372.5,1013.96 372.5,1014.76 L372.5,1016.66 C372.5,1017.46 373.1,1017.96 373.9,1017.96 L403.6,1017.96 C404.4,1017.96 405,1017.46 405,1016.66 L405,1014.76 C405,1013.96 404.4,1013.36 403.6,1013.36 L394.8,1013.36 L394.8,1006.06 L403.6,1006.06 C404.4,1006.06 405,1005.46 405,1004.66 L405,1002.86 C405,1002.06 404.4,1001.46 403.6,1001.46 L394.8,1001.46 L394.8,985.758 C394.8,985.258 394.4,984.758 394,984.558 L392.9,983.958 C392.7,983.858 392.4,983.858 392.2,983.858 C391.9,983.858 391.5,983.958 391.3,984.158 L382.4,992.358 C382.2,992.558 382,993.058 382,993.358 L382,1001.46 L370.7,1001.46 C370.7,1001.46 381.6,989.658 393.2,974.158 C394,973.058 393.6,972.058 393.4,971.858 L391.3,969.658 C391.1,969.458 390.6,969.258 390.3,969.258 L375.7,969.258 C375,969.258 374.5,969.858 374.4,970.458 C374.4,970.458 373.9,977.658 371.3,985.658 C368.7,993.658 365.9,998.458 363.3,1002.06 C363.3,1002.06 362.8,1003.06 363.1,1003.76 C363.4,1004.46 364.1,1005.56 364.1,1005.56 C364.1,1005.56 364.4,1006.06 365.2,1006.06"/>
<path class="TimeSig" d="M392.053,680.438 L392.253,680.438 C400.253,677.338 400.753,672.138 400.753,670.338 L400.753,669.838 C400.753,668.938 400.453,657.638 383.253,657.638 C366.053,657.638 366.553,669.838 366.553,669.838 L366.653,669.838 L366.553,670.038 C366.553,673.638 369.453,676.438 373.053,676.438 C376.653,676.438 379.453,673.638 379.453,670.038 C379.453,667.138 377.253,664.338 374.453,663.738 L374.753,663.438 C376.153,662.438 378.053,661.938 379.953,661.938 C384.153,661.938 388.653,664.438 388.653,669.838 C388.653,676.138 383.953,677.038 382.753,677.238 C381.553,677.438 375.953,677.838 374.753,677.838 C373.553,677.838 373.453,679.238 373.453,679.238 L373.453,681.238 C373.453,681.238 373.653,682.338 374.753,682.438 C376.453,682.538 378.753,682.538 381.953,683.038 C386.353,683.638 388.653,686.638 388.653,693.638 C388.653,700.338 384.153,702.138 379.953,702.138 C377.153,702.138 374.553,701.338 373.453,700.538 C376.753,700.338 379.453,697.438 379.453,694.138 C379.453,690.538 376.653,687.638 373.053,687.638 C369.453,687.638 366.553,690.538 366.553,694.138 C366.553,694.138 366.053,698.638 370.453,702.738 C374.353,706.338 379.253,706.438 381.453,706.438 C391.053,706.438 401.453,703.138 401.453,692.238 C401.453,684.938 396.453,681.838 392.053,680.438"/>
<path class="TimeSig" d="M365.2,743.541 L382,743.541 L382,750.841 L373.9,750.841 C373.1,750.841 372.5,751.441 372.5,752.241 L372.5,754.141 C372.5,754.941 373.1,755.441 373.9,755.441 L403.6,755.441 C404.4,755.441 405,754.941 405,754.141 L405,752.241 C405,751.441 404.4,750.841 403.6,750.841 L394.8,750.841 L394.8,743.541 L403.6,743.541 C404.4,743.541 405,742.941 405,742.141 L405,740.341 C405,739.541 404.4,738.941 403.6,738.941 L394.8,738.941 L394.8,723.241 C394.8,722.741 394.4,722.241 394,722.041 L392.9,721.441 C392.7,721.341 392.4,721.341 392.2,721.341 C391.9,721.341 391.5,721.441 391.3,721.641 L382.4,729.841 C382.2,730.041 382,730.541 382,730.841 L382,738.941 L370.7,738.941 C370.7,738.941 381.6,727.141 393.2,711.641 C394,710.541 393.6,709.541 393.4,709.341 L391.3,707.141 C391.1,706.941 390.6,706.741 390.3,706.741 L375.7,706.741 C375,706.741 374.5,707.341 374.4,707.941 C374.4,707.941 373.9,715.141 371.3,723.141 C368.7,731.141 365.9,735.941 363.3,739.541 C363.3,739.541 362.8,740.541 363.1,741.241 C363.4,741.941 364.1,743.041 364.1,743.041 C364.1,743.041 364.4,743.541 365.2,743.541"/>
<path class="Page" d="M227.904,4034.39 L212.604,4055.67 L212.604,4058.19 L225.249,4058.19 L225.249,4060.53 C225.249,4062.83 225.249,4062.92 224.979,4063.32 C224.619,4063.82 223.764,4063.95 221.199,4063.95 L220.704,4063.95 L220.704,4066.07 L233.844,4066.07 L233.844,4063.95 L233.664,4063.95 C231.099,4063.95 230.244,4063.82 229.884,4063.32 C229.614,4062.92 229.614,4062.87 229.614,4060.53 L229.614,4058.19 L235.059,4058.19 L235.059,4055.67 L229.614,4055.67 L229.614,4043.39 C229.614,4037.76 229.614,4037.63 229.839,4034.39 L227.904,4034.39 M225.249,4055.67 L215.349,4055.67 L225.249,4042.04 L225.249,4055.67 M254.539,4050.45 C253.999,4055.72 253.729,4057.29 252.919,4059.54 C251.749,4062.87 249.319,4064.81 246.259,4064.81 C244.774,4064.81 243.784,4064.36 243.784,4063.68 C243.784,4063.5 243.874,4063.28 244.054,4062.92 C244.549,4061.88 244.639,4061.57 244.639,4060.94 C244.639,4059.41 243.514,4058.28 241.984,4058.28 C240.274,4058.28 238.924,4059.72 238.924,4061.52 C238.924,4064.49 242.074,4066.74 246.214,4066.74 C250.309,4066.74 253.819,4064.9 256.024,4061.57 C258.229,4058.24 259.444,4053.92 259.444,4049.24 C259.444,4040.19 255.169,4034.39 248.419,4034.39 C242.614,4034.39 238.114,4039.16 238.114,4045.23 C238.114,4050.63 241.849,4054.55 247.024,4054.55 C250.219,4054.55 252.109,4053.51 254.539,4050.45 M248.599,4036.32 C251.929,4036.32 254.134,4039.61 254.134,4044.69 C254.134,4046.54 253.774,4048.2 253.099,4049.24 C252.064,4050.86 250.309,4051.85 248.374,4051.85 C244.954,4051.85 243.019,4049.19 243.019,4044.42 C243.019,4042.26 243.514,4040.15 244.369,4038.75 C245.404,4037.04 246.619,4036.32 248.599,4036.32"/>
<path class="Bracket" transform="matrix(3.62523,0,0,3.62523,214.469,1019.06)" d="M0.92002,-50 C2.69004,-51.88 6.2,-55.8 6.2,-63 C6.2,-72.1 2.25996,-81.32 2.25996,-86.97 C2.25996,-93.06 5.84004,-98.84 5.95,-99 C6.05996,-99.16 6.05,-99.39 5.94004,-99.46 C5.82998,-99.53 5.62002,-99.47 5.49004,-99.32 C5.35996,-99.17 0,-93.75 0,-85.6 C0,-76.75 3.5,-70.58 3.5,-59.07 C3.5,-56.89 2.55996,-53.36 0.1,-50.33 C-0.0799805,-50.17 -0.1,-49.89 0.0599609,-49.7 L0.0700195,-49.69 L0.1,-49.66 C2.55996,-46.63 3.5,-43.1 3.5,-40.92 C3.5,-29.4 0,-23.24 0,-14.39 C0,-6.25 5.35996,-0.8 5.49004,-0.659961 C5.62002,-0.52002 5.8,-0.42998 5.94004,-0.52002 C6.07998,-0.609961 6.07998,-0.77998 5.95,-0.97998 C5.82002,-1.17998 2.25996,-6.92002 2.25996,-13.01 C2.25996,-18.66 6.2,-27.9 6.2,-37 C6.2,-44.3 2.69004,-48.12 0.92002,-50"/>
<path class="Bracket" transform="matrix(3.62523,0,0,3.62523,214.469,1631.6)" d="M0.92002,-50 C2.69004,-51.88 6.2,-55.8 6.2,-63 C6.2,-72.1 2.25996,-81.32 2.25996,-86.97 C2.25996,-93.06 5.84004,-98.84 5.95,-99 C6.05996,-99.16 6.05,-99.39 5.94004,-99.46 C5.82998,-99.53 5.62002,-99.47 5.49004,-99.32 C5.35996,-99.17 0,-93.75 0,-85.6 C0,-76.75 3.5,-70.58 3.5,-59.07 C3.5,-56.89 2.55996,-53.36 0.1,-50.33 C-0.0799805,-50.17 -0.1,-49.89 0.0599609,-49.7 L0.0700195,-49.69 L0.1,-49.66 C2.55996,-46.63 3.5,-43.1 3.5,-40.92 C3.5,-29.4 0,-23.24 0,-14.39 C0,-6.25 5.35996,-0.8 5.49004,-0.659961 C5.62002,-0.52002 5.8,-0.42998 5.94004,-0.52002 C6.07998,-0.609961 6.07998,-0.77998 5.95,-0.97998 C5.82002,-1.17998 2.25996,-6.92002 2.25996,-13.01 C2.25996,-18.66 6.2,-27.9 6.2,-37 C6.2,-44.3 2.69004,-48.12 0.92002,-50"/>
</svg>