<?xml version="1.0" encoding="UTF-8" standalone="no"?>
<svg width="1000px" height="300px" viewBox="0 400 3040 900" xmlns="http://www.w3.org/2000/svg" xmlns:xlink="http://www.w3.org/1999/xlink" version="1.2" baseProfile="tiny">
 xmlns="http://www.w3.org/2000/svg" xmlns:xlink="http://www.w3.org/1999/xlink" version="1.2" baseProfile="tiny">
<title>exercises_scores (19)</title>
<desc>Generated by MuseScore 3.6.0</desc>
<polyline class="StaffLines" fill="none" stroke="#000000" stroke-width="2.75" stroke-linejoin="bevel" points="247.099,653.005 2764.63,653.005"/>
<polyline class="StaffLines" fill="none" stroke="#000000" stroke-width="2.75" stroke-linejoin="bevel" points="247.099,678.006 2764.63,678.006"/>
<polyline class="StaffLines" fill="none" stroke="#000000" stroke-width="2.75" stroke-linejoin="bevel" points="247.099,703.008 2764.63,703.008"/>
<polyline class="StaffLines" fill="none" stroke="#000000" stroke-width="2.75" stroke-linejoin="bevel" points="247.099,728.009 2764.63,728.009"/>
<polyline class="StaffLines" fill="none" stroke="#000000" stroke-width="2.75" stroke-linejoin="bevel" points="247.099,753.011 2764.63,753.011"/>
<polyline class="StaffLines" fill="none" stroke="#000000" stroke-width="2.75" stroke-linejoin="bevel" points="247.099,915.521 2764.63,915.521"/>
<polyline class="StaffLines" fill="none" stroke="#000000" stroke-width="2.75" stroke-linejoin="bevel" points="247.099,940.523 2764.63,940.523"/>
<polyline class="StaffLines" fill="none" stroke="#000000" stroke-width="2.75" stroke-linejoin="bevel" points="247.099,965.524 2764.63,965.524"/>
<polyline class="StaffLines" fill="none" stroke="#000000" stroke-width="2.75" stroke-linejoin="bevel" points="247.099,990.526 2764.63,990.526"/>
<polyline class="StaffLines" fill="none" stroke="#000000" stroke-width="2.75" stroke-linejoin="bevel" points="247.099,1015.53 2764.63,1015.53"/>
<path class="Text" d="M248.304,217.466 L212.604,217.466 L212.604,220.286 L213.684,220.286 C217.104,220.346 218.244,220.526 218.724,221.126 C219.084,221.666 219.084,221.786 219.084,224.846 L219.084,253.406 C219.084,256.466 219.084,256.586 218.724,257.126 C218.244,257.726 217.104,257.966 213.684,257.966 L212.604,257.966 L212.604,260.786 L233.184,260.786 L233.184,257.966 L231.204,257.966 C227.784,257.966 226.644,257.726 226.164,257.126 C225.804,256.586 225.804,256.406 225.804,253.406 L225.804,239.786 L227.004,239.786 C233.184,239.546 235.404,241.766 235.644,248.426 L238.464,248.426 L238.464,228.746 L235.644,228.746 C235.284,234.626 232.944,236.906 227.244,236.966 L225.804,236.966 L225.804,223.286 C225.744,220.766 226.344,220.346 229.584,220.286 L232.344,220.286 C242.184,220.226 244.644,222.446 246.504,232.766 L249.144,232.766 L248.304,217.466 M273.398,230.708 C273.885,230.613 274.28,230.132 274.28,229.636 L274.28,229.634 L274.28,224.954 C274.279,224.665 274.096,224.283 273.872,224.102 C273.706,223.966 273.398,223.857 273.184,223.857 C273.121,223.857 273.021,223.867 272.96,223.88 L270.374,224.414 L270.374,212.606 L268.178,212.606 L268.178,224.87 L261.08,226.34 L261.08,215.102 L258.884,215.102 L258.884,226.796 L255.776,227.438 C255.292,227.54 254.9,228.024 254.9,228.518 L254.9,233.114 C254.9,233.401 255.08,233.783 255.302,233.966 C255.469,234.102 255.779,234.212 255.994,234.212 L255.998,234.212 C256.059,234.212 256.159,234.204 256.22,234.194 L258.884,233.654 L258.884,246.764 L255.776,247.406 C255.293,247.506 254.9,247.987 254.9,248.48 L254.9,253.082 C254.9,253.369 255.08,253.751 255.302,253.934 C255.469,254.07 255.779,254.18 255.994,254.18 L255.998,254.18 C256.001,254.18 256.006,254.18 256.009,254.18 C256.068,254.18 256.162,254.169 256.22,254.156 L258.884,253.616 L258.884,265.406 L261.08,265.406 L261.08,253.172 L268.178,251.732 L268.178,262.91 L270.374,262.91 L270.374,251.288 L273.398,250.676 C273.885,250.581 274.28,250.1 274.28,249.604 L274.28,249.602 L274.28,244.922 C274.279,244.633 274.096,244.251 273.872,244.07 C273.708,243.933 273.403,243.823 273.19,243.823 C273.126,243.823 273.023,243.834 272.96,243.848 L270.374,244.382 L270.374,231.326 L273.398,230.708 M261.08,246.308 L261.08,233.204 L268.178,231.77 L268.178,244.838 L261.08,246.308 M307.08,232.826 L296.4,233.486 L296.4,236.066 L298.86,236.066 C301.14,236.126 301.44,236.486 301.44,239.066 L301.44,253.406 L301.44,255.746 L301.44,256.226 C301.38,257.126 301.32,257.486 301.08,257.786 C300.66,258.326 299.52,258.566 296.94,258.626 L296.7,258.626 L296.7,260.786 L311.82,260.786 L311.82,258.626 L311.58,258.626 C307.62,258.506 307.08,258.206 307.08,255.986 L307.08,253.406 L307.08,244.886 C307.08,239.546 310.02,235.586 313.92,235.586 C317.34,235.586 319.08,238.046 319.08,242.906 L319.08,253.406 L319.08,256.286 C319.02,257.066 318.96,257.486 318.66,257.786 C318.3,258.326 317.1,258.566 314.52,258.626 L314.28,258.626 L314.28,260.786 L329.46,260.786 L329.46,258.626 L329.22,258.626 C325.26,258.506 324.72,258.206 324.72,256.046 L324.72,253.406 L324.72,245.426 C324.72,239.426 327.42,235.586 331.62,235.586 C335.04,235.586 336.72,238.166 336.72,243.566 L336.72,253.406 L336.72,256.226 C336.66,257.066 336.6,257.486 336.3,257.786 C335.94,258.326 334.74,258.566 332.16,258.626 L331.92,258.626 L331.92,260.786 L347.1,260.786 L347.1,258.626 L346.86,258.626 C342.9,258.506 342.36,258.206 342.36,255.986 L342.36,253.406 L342.36,242.366 C342.36,238.646 342,237.386 340.44,235.346 C338.7,233.126 336.24,231.926 333.36,231.926 C329.46,231.926 326.58,233.786 324,237.926 C322.98,234.326 319.74,231.926 315.72,231.926 C312.06,231.926 309.42,233.666 307.08,237.446 L307.08,232.826 M360.708,232.826 L349.428,233.486 L349.428,236.066 L352.488,236.066 C354.768,236.126 355.068,236.486 355.068,239.066 L355.068,253.406 L355.068,256.226 C355.008,257.126 354.948,257.486 354.708,257.786 C354.288,258.326 353.148,258.566 350.568,258.626 L350.148,258.626 L350.148,260.786 L365.688,260.786 L365.688,258.626 L365.268,258.626 C361.248,258.506 360.708,258.206 360.708,256.046 L360.708,253.406 L360.708,232.826 M357.888,217.886 C355.968,217.886 354.408,219.446 354.408,221.366 C354.408,223.286 355.968,224.846 357.828,224.846 C359.808,224.846 361.368,223.286 361.368,221.366 C361.368,219.446 359.808,217.886 357.888,217.886 M379.239,232.826 L368.859,233.486 L368.859,236.066 L371.019,236.066 C373.299,236.126 373.599,236.486 373.599,239.066 L373.599,253.406 L373.599,254.846 L373.599,256.226 C373.539,257.126 373.479,257.486 373.239,257.786 C372.819,258.326 371.679,258.566 369.099,258.626 L368.859,258.626 L368.859,260.786 L384.039,260.786 L384.039,258.626 L383.799,258.626 C379.779,258.506 379.239,258.206 379.239,256.046 L379.239,253.406 L379.239,247.166 C379.239,244.226 379.659,241.526 380.319,240.146 C381.579,237.446 384.279,235.586 386.859,235.586 C388.419,235.586 390.219,236.426 391.119,237.686 C392.019,239.006 392.439,240.806 392.439,243.686 L392.439,253.406 L392.439,256.226 C392.379,257.126 392.319,257.486 392.079,257.786 C391.659,258.326 390.459,258.566 387.879,258.626 L387.639,258.626 L387.639,260.786 L402.819,260.786 L402.819,258.626 L402.579,258.626 C398.619,258.506 398.079,258.206 398.079,256.046 L398.079,253.406 L398.079,243.986 C398.079,239.666 397.899,238.586 396.819,236.546 C395.319,233.666 392.319,231.926 388.719,231.926 C384.819,231.926 381.879,233.726 379.239,237.686 L379.239,232.826 M419.015,231.926 C411.635,231.926 405.935,238.466 405.935,246.866 C405.935,255.086 411.695,261.686 418.895,261.686 C426.095,261.686 431.855,255.086 431.855,246.806 C431.855,238.586 426.095,231.926 419.015,231.926 M419.015,234.506 C423.215,234.506 425.555,238.886 425.555,246.806 C425.555,254.786 423.215,259.106 418.895,259.106 C414.575,259.106 412.235,254.786 412.235,246.866 C412.235,238.706 414.515,234.506 419.015,234.506 M445.775,232.826 L435.155,233.486 L435.155,236.066 L437.615,236.066 C439.895,236.126 440.195,236.486 440.195,239.066 L440.195,253.406 L440.195,256.226 C440.135,257.126 440.075,257.486 439.835,257.786 C439.415,258.326 438.215,258.566 435.635,258.626 L435.395,258.626 L435.395,260.786 L451.415,260.786 L451.415,258.626 L450.335,258.626 C446.315,258.506 445.775,258.206 445.775,256.046 L445.775,253.406 L445.775,252.806 C445.835,242.726 449.435,235.046 454.115,234.806 C453.275,235.766 453.035,236.366 453.035,237.506 C453.035,239.426 454.415,240.806 456.335,240.806 C458.555,240.806 459.995,239.186 459.995,236.786 C459.995,233.846 457.955,231.926 454.775,231.926 C450.995,231.926 447.755,234.926 445.775,240.266 L445.775,232.826 "/>
<polyline class="BarLine" fill="none" stroke="#000000" stroke-width="4.50" stroke-linejoin="bevel" points="249.349,914.146 249.349,1016.9"/>
<polyline class="BarLine" fill="none" stroke="#000000" stroke-width="4.50" stroke-linejoin="bevel" points="986.996,914.146 986.996,1016.9"/>
<polyline class="BarLine" fill="none" stroke="#000000" stroke-width="4.50" stroke-linejoin="bevel" points="1608.15,914.146 1608.15,1016.9"/>
<polyline class="BarLine" fill="none" stroke="#000000" stroke-width="4.50" stroke-linejoin="bevel" points="2198.89,914.146 2198.89,1016.9"/>
<polyline class="BarLine" fill="none" stroke="#000000" stroke-width="4.50" stroke-linejoin="bevel" points="2734.88,914.146 2734.88,1016.9"/>
<polyline class="BarLine" fill="none" stroke="#000000" stroke-width="13.75" stroke-linejoin="bevel" points="2757.75,914.146 2757.75,1016.9"/>
<polyline class="BarLine" fill="none" stroke="#000000" stroke-width="4.50" stroke-linejoin="bevel" points="249.349,651.63 249.349,915.521"/>
<polyline class="BarLine" fill="none" stroke="#000000" stroke-width="4.50" stroke-linejoin="bevel" points="986.996,651.63 986.996,915.521"/>
<polyline class="BarLine" fill="none" stroke="#000000" stroke-width="4.50" stroke-linejoin="bevel" points="1608.15,651.63 1608.15,915.521"/>
<polyline class="BarLine" fill="none" stroke="#000000" stroke-width="4.50" stroke-linejoin="bevel" points="2198.89,651.63 2198.89,915.521"/>
<polyline class="BarLine" fill="none" stroke="#000000" stroke-width="4.50" stroke-linejoin="bevel" points="2734.88,651.63 2734.88,915.521"/>
<polyline class="BarLine" fill="none" stroke="#000000" stroke-width="13.75" stroke-linejoin="bevel" points="2757.75,651.63 2757.75,915.521"/>
<path class="Accidental" d="M478.302,929.923 C478.902,929.823 479.402,929.123 479.402,928.523 L479.402,922.623 C479.402,921.823 478.802,921.223 478.002,921.223 L477.802,921.223 L474.502,921.923 L474.502,907.023 L471.702,907.023 L471.702,922.523 L462.802,924.323 L462.802,910.223 L460.002,910.223 L460.002,924.923 L456.102,925.723 C455.502,925.823 455.002,926.523 455.002,927.123 L455.002,927.323 L455.002,933.123 L455.002,932.923 C455.002,933.723 455.602,934.323 456.402,934.323 L456.702,934.323 L460.002,933.623 L460.002,950.123 L456.102,950.923 C455.502,951.023 455.002,951.723 455.002,952.323 L455.002,958.123 C455.002,958.923 455.602,959.523 456.402,959.523 L456.702,959.523 L460.002,958.823 L460.002,973.723 L462.802,973.723 L462.802,958.223 L471.702,956.423 L471.702,970.523 L474.502,970.523 L474.502,955.823 L478.302,955.123 C478.902,955.023 479.402,954.323 479.402,953.723 L479.402,947.823 C479.402,947.023 478.802,946.423 478.002,946.423 L477.802,946.423 L474.502,947.123 L474.502,930.623 L478.302,929.923 M462.802,949.623 L462.802,933.023 L471.702,931.223 L471.702,947.723 L462.802,949.623 "/>
<path class="Accidental" d="M603.076,917.422 C603.676,917.322 604.176,916.622 604.176,916.022 L604.176,910.122 C604.176,909.322 603.576,908.722 602.776,908.722 L602.576,908.722 L599.276,909.422 L599.276,894.522 L596.476,894.522 L596.476,910.022 L587.576,911.822 L587.576,897.722 L584.776,897.722 L584.776,912.422 L580.876,913.222 C580.276,913.322 579.776,914.022 579.776,914.622 L579.776,914.822 L579.776,920.622 L579.776,920.422 C579.776,921.222 580.376,921.822 581.176,921.822 L581.476,921.822 L584.776,921.122 L584.776,937.622 L580.876,938.422 C580.276,938.522 579.776,939.222 579.776,939.822 L579.776,945.622 C579.776,946.422 580.376,947.022 581.176,947.022 L581.476,947.022 L584.776,946.322 L584.776,961.222 L587.576,961.222 L587.576,945.722 L596.476,943.922 L596.476,958.022 L599.276,958.022 L599.276,943.322 L603.076,942.622 C603.676,942.522 604.176,941.822 604.176,941.222 L604.176,935.322 C604.176,934.522 603.576,933.922 602.776,933.922 L602.576,933.922 L599.276,934.622 L599.276,918.122 L603.076,917.422 M587.576,937.122 L587.576,920.522 L596.476,918.722 L596.476,935.222 L587.576,937.122 "/>
<path class="Accidental" d="M1034.3,879.92 C1034.9,879.82 1035.4,879.12 1035.4,878.52 L1035.4,872.62 C1035.4,871.82 1034.8,871.22 1034,871.22 L1033.8,871.22 L1030.5,871.92 L1030.5,857.02 L1027.7,857.02 L1027.7,872.52 L1018.8,874.32 L1018.8,860.22 L1016,860.22 L1016,874.92 L1012.1,875.72 C1011.5,875.82 1011,876.52 1011,877.12 L1011,877.32 L1011,883.12 L1011,882.92 C1011,883.72 1011.6,884.32 1012.4,884.32 L1012.7,884.32 L1016,883.62 L1016,900.12 L1012.1,900.92 C1011.5,901.02 1011,901.72 1011,902.32 L1011,908.12 C1011,908.92 1011.6,909.52 1012.4,909.52 L1012.7,909.52 L1016,908.82 L1016,923.72 L1018.8,923.72 L1018.8,908.22 L1027.7,906.42 L1027.7,920.52 L1030.5,920.52 L1030.5,905.82 L1034.3,905.12 C1034.9,905.02 1035.4,904.32 1035.4,903.72 L1035.4,897.82 C1035.4,897.02 1034.8,896.42 1034,896.42 L1033.8,896.42 L1030.5,897.12 L1030.5,880.62 L1034.3,879.92 M1018.8,899.62 L1018.8,883.02 L1027.7,881.22 L1027.7,897.72 L1018.8,899.62 "/>
<path class="Accidental" d="M1450.92,842.417 C1451.52,842.317 1452.02,841.617 1452.02,841.017 L1452.02,835.117 C1452.02,834.317 1451.42,833.717 1450.62,833.717 L1450.42,833.717 L1447.12,834.417 L1447.12,819.517 L1444.32,819.517 L1444.32,835.017 L1435.42,836.817 L1435.42,822.717 L1432.62,822.717 L1432.62,837.417 L1428.72,838.217 C1428.12,838.317 1427.62,839.017 1427.62,839.617 L1427.62,839.817 L1427.62,845.617 L1427.62,845.417 C1427.62,846.217 1428.22,846.817 1429.02,846.817 L1429.32,846.817 L1432.62,846.117 L1432.62,862.617 L1428.72,863.417 C1428.12,863.517 1427.62,864.217 1427.62,864.817 L1427.62,870.617 C1427.62,871.417 1428.22,872.017 1429.02,872.017 L1429.32,872.017 L1432.62,871.317 L1432.62,886.217 L1435.42,886.217 L1435.42,870.717 L1444.32,868.917 L1444.32,883.017 L1447.12,883.017 L1447.12,868.317 L1450.92,867.617 C1451.52,867.517 1452.02,866.817 1452.02,866.217 L1452.02,860.317 C1452.02,859.517 1451.42,858.917 1450.62,858.917 L1450.42,858.917 L1447.12,859.617 L1447.12,843.117 L1450.92,842.417 M1435.42,862.117 L1435.42,845.517 L1444.32,843.717 L1444.32,860.217 L1435.42,862.117 "/>
<path class="Accidental" d="M1908.05,879.92 C1908.65,879.82 1909.15,879.12 1909.15,878.52 L1909.15,872.62 C1909.15,871.82 1908.55,871.22 1907.75,871.22 L1907.55,871.22 L1904.25,871.92 L1904.25,857.02 L1901.45,857.02 L1901.45,872.52 L1892.55,874.32 L1892.55,860.22 L1889.75,860.22 L1889.75,874.92 L1885.85,875.72 C1885.25,875.82 1884.75,876.52 1884.75,877.12 L1884.75,877.32 L1884.75,883.12 L1884.75,882.92 C1884.75,883.72 1885.35,884.32 1886.15,884.32 L1886.45,884.32 L1889.75,883.62 L1889.75,900.12 L1885.85,900.92 C1885.25,901.02 1884.75,901.72 1884.75,902.32 L1884.75,908.12 C1884.75,908.92 1885.35,909.52 1886.15,909.52 L1886.45,909.52 L1889.75,908.82 L1889.75,923.72 L1892.55,923.72 L1892.55,908.22 L1901.45,906.42 L1901.45,920.52 L1904.25,920.52 L1904.25,905.82 L1908.05,905.12 C1908.65,905.02 1909.15,904.32 1909.15,903.72 L1909.15,897.82 C1909.15,897.02 1908.55,896.42 1907.75,896.42 L1907.55,896.42 L1904.25,897.12 L1904.25,880.62 L1908.05,879.92 M1892.55,899.62 L1892.55,883.02 L1901.45,881.22 L1901.45,897.72 L1892.55,899.62 "/>
<path class="Accidental" d="M2364.9,917.422 C2365.5,917.322 2366,916.622 2366,916.022 L2366,910.122 C2366,909.322 2365.4,908.722 2364.6,908.722 L2364.4,908.722 L2361.1,909.422 L2361.1,894.522 L2358.3,894.522 L2358.3,910.022 L2349.4,911.822 L2349.4,897.722 L2346.6,897.722 L2346.6,912.422 L2342.7,913.222 C2342.1,913.322 2341.6,914.022 2341.6,914.622 L2341.6,914.822 L2341.6,920.622 L2341.6,920.422 C2341.6,921.222 2342.2,921.822 2343,921.822 L2343.3,921.822 L2346.6,921.122 L2346.6,937.622 L2342.7,938.422 C2342.1,938.522 2341.6,939.222 2341.6,939.822 L2341.6,945.622 C2341.6,946.422 2342.2,947.022 2343,947.022 L2343.3,947.022 L2346.6,946.322 L2346.6,961.222 L2349.4,961.222 L2349.4,945.722 L2358.3,943.922 L2358.3,958.022 L2361.1,958.022 L2361.1,943.322 L2364.9,942.622 C2365.5,942.522 2366,941.822 2366,941.222 L2366,935.322 C2366,934.522 2365.4,933.922 2364.6,933.922 L2364.4,933.922 L2361.1,934.622 L2361.1,918.122 L2364.9,917.422 M2349.4,937.122 L2349.4,920.522 L2358.3,918.722 L2358.3,935.222 L2349.4,937.122 "/>
<path class="Accidental" d="M2503.51,929.923 C2504.11,929.823 2504.61,929.123 2504.61,928.523 L2504.61,922.623 C2504.61,921.823 2504.01,921.223 2503.21,921.223 L2503.01,921.223 L2499.71,921.923 L2499.71,907.023 L2496.91,907.023 L2496.91,922.523 L2488.01,924.323 L2488.01,910.223 L2485.21,910.223 L2485.21,924.923 L2481.31,925.723 C2480.71,925.823 2480.21,926.523 2480.21,927.123 L2480.21,927.323 L2480.21,933.123 L2480.21,932.923 C2480.21,933.723 2480.81,934.323 2481.61,934.323 L2481.91,934.323 L2485.21,933.623 L2485.21,950.123 L2481.31,950.923 C2480.71,951.023 2480.21,951.723 2480.21,952.323 L2480.21,958.123 C2480.21,958.923 2480.81,959.523 2481.61,959.523 L2481.91,959.523 L2485.21,958.823 L2485.21,973.723 L2488.01,973.723 L2488.01,958.223 L2496.91,956.423 L2496.91,970.523 L2499.71,970.523 L2499.71,955.823 L2503.51,955.123 C2504.11,955.023 2504.61,954.323 2504.61,953.723 L2504.61,947.823 C2504.61,947.023 2504.01,946.423 2503.21,946.423 L2503.01,946.423 L2499.71,947.123 L2499.71,930.623 L2503.51,929.923 M2488.01,949.623 L2488.01,933.023 L2496.91,931.223 L2496.91,947.723 L2488.01,949.623 "/>
<path class="Accidental" d="M478.302,729.91 C478.902,729.81 479.402,729.11 479.402,728.51 L479.402,722.61 C479.402,721.81 478.802,721.21 478.002,721.21 L477.802,721.21 L474.502,721.91 L474.502,707.01 L471.702,707.01 L471.702,722.51 L462.802,724.31 L462.802,710.21 L460.002,710.21 L460.002,724.91 L456.102,725.71 C455.502,725.81 455.002,726.51 455.002,727.11 L455.002,727.31 L455.002,733.11 L455.002,732.91 C455.002,733.71 455.602,734.31 456.402,734.31 L456.702,734.31 L460.002,733.61 L460.002,750.11 L456.102,750.91 C455.502,751.01 455.002,751.71 455.002,752.31 L455.002,758.11 C455.002,758.91 455.602,759.51 456.402,759.51 L456.702,759.51 L460.002,758.81 L460.002,773.71 L462.802,773.71 L462.802,758.21 L471.702,756.41 L471.702,770.51 L474.502,770.51 L474.502,755.81 L478.302,755.11 C478.902,755.01 479.402,754.31 479.402,753.71 L479.402,747.81 C479.402,747.01 478.802,746.41 478.002,746.41 L477.802,746.41 L474.502,747.11 L474.502,730.61 L478.302,729.91 M462.802,749.61 L462.802,733.01 L471.702,731.21 L471.702,747.71 L462.802,749.61 "/>
<path class="Accidental" d="M603.076,717.409 C603.676,717.309 604.176,716.609 604.176,716.009 L604.176,710.109 C604.176,709.309 603.576,708.709 602.776,708.709 L602.576,708.709 L599.276,709.409 L599.276,694.509 L596.476,694.509 L596.476,710.009 L587.576,711.809 L587.576,697.709 L584.776,697.709 L584.776,712.409 L580.876,713.209 C580.276,713.309 579.776,714.009 579.776,714.609 L579.776,714.809 L579.776,720.609 L579.776,720.409 C579.776,721.209 580.376,721.809 581.176,721.809 L581.476,721.809 L584.776,721.109 L584.776,737.609 L580.876,738.409 C580.276,738.509 579.776,739.209 579.776,739.809 L579.776,745.609 C579.776,746.409 580.376,747.009 581.176,747.009 L581.476,747.009 L584.776,746.309 L584.776,761.209 L587.576,761.209 L587.576,745.709 L596.476,743.909 L596.476,758.009 L599.276,758.009 L599.276,743.309 L603.076,742.609 C603.676,742.509 604.176,741.809 604.176,741.209 L604.176,735.309 C604.176,734.509 603.576,733.909 602.776,733.909 L602.576,733.909 L599.276,734.609 L599.276,718.109 L603.076,717.409 M587.576,737.109 L587.576,720.509 L596.476,718.709 L596.476,735.209 L587.576,737.109 "/>
<path class="Accidental" d="M1043.05,679.907 C1043.65,679.807 1044.15,679.107 1044.15,678.507 L1044.15,672.607 C1044.15,671.807 1043.55,671.207 1042.75,671.207 L1042.55,671.207 L1039.25,671.907 L1039.25,657.007 L1036.45,657.007 L1036.45,672.507 L1027.55,674.307 L1027.55,660.207 L1024.75,660.207 L1024.75,674.907 L1020.85,675.707 C1020.25,675.807 1019.75,676.507 1019.75,677.107 L1019.75,677.307 L1019.75,683.107 L1019.75,682.907 C1019.75,683.707 1020.35,684.307 1021.15,684.307 L1021.45,684.307 L1024.75,683.607 L1024.75,700.107 L1020.85,700.907 C1020.25,701.007 1019.75,701.707 1019.75,702.307 L1019.75,708.107 C1019.75,708.907 1020.35,709.507 1021.15,709.507 L1021.45,709.507 L1024.75,708.807 L1024.75,723.707 L1027.55,723.707 L1027.55,708.207 L1036.45,706.407 L1036.45,720.507 L1039.25,720.507 L1039.25,705.807 L1043.05,705.107 C1043.65,705.007 1044.15,704.307 1044.15,703.707 L1044.15,697.807 C1044.15,697.007 1043.55,696.407 1042.75,696.407 L1042.55,696.407 L1039.25,697.107 L1039.25,680.607 L1043.05,679.907 M1027.55,699.607 L1027.55,683.007 L1036.45,681.207 L1036.45,697.707 L1027.55,699.607 "/>
<path class="Accidental" d="M1459.67,642.405 C1460.27,642.305 1460.77,641.605 1460.77,641.005 L1460.77,635.105 C1460.77,634.305 1460.17,633.705 1459.37,633.705 L1459.17,633.705 L1455.87,634.405 L1455.87,619.505 L1453.07,619.505 L1453.07,635.005 L1444.17,636.805 L1444.17,622.705 L1441.37,622.705 L1441.37,637.405 L1437.47,638.205 C1436.87,638.305 1436.37,639.005 1436.37,639.605 L1436.37,639.805 L1436.37,645.605 L1436.37,645.405 C1436.37,646.205 1436.97,646.805 1437.77,646.805 L1438.07,646.805 L1441.37,646.105 L1441.37,662.605 L1437.47,663.405 C1436.87,663.505 1436.37,664.205 1436.37,664.805 L1436.37,670.605 C1436.37,671.405 1436.97,672.005 1437.77,672.005 L1438.07,672.005 L1441.37,671.305 L1441.37,686.205 L1444.17,686.205 L1444.17,670.705 L1453.07,668.905 L1453.07,683.005 L1455.87,683.005 L1455.87,668.305 L1459.67,667.605 C1460.27,667.505 1460.77,666.805 1460.77,666.205 L1460.77,660.305 C1460.77,659.505 1460.17,658.905 1459.37,658.905 L1459.17,658.905 L1455.87,659.605 L1455.87,643.105 L1459.67,642.405 M1444.17,662.105 L1444.17,645.505 L1453.07,643.705 L1453.07,660.205 L1444.17,662.105 "/>
<path class="Accidental" d="M1916.8,679.907 C1917.4,679.807 1917.9,679.107 1917.9,678.507 L1917.9,672.607 C1917.9,671.807 1917.3,671.207 1916.5,671.207 L1916.3,671.207 L1913,671.907 L1913,657.007 L1910.2,657.007 L1910.2,672.507 L1901.3,674.307 L1901.3,660.207 L1898.5,660.207 L1898.5,674.907 L1894.6,675.707 C1894,675.807 1893.5,676.507 1893.5,677.107 L1893.5,677.307 L1893.5,683.107 L1893.5,682.907 C1893.5,683.707 1894.1,684.307 1894.9,684.307 L1895.2,684.307 L1898.5,683.607 L1898.5,700.107 L1894.6,700.907 C1894,701.007 1893.5,701.707 1893.5,702.307 L1893.5,708.107 C1893.5,708.907 1894.1,709.507 1894.9,709.507 L1895.2,709.507 L1898.5,708.807 L1898.5,723.707 L1901.3,723.707 L1901.3,708.207 L1910.2,706.407 L1910.2,720.507 L1913,720.507 L1913,705.807 L1916.8,705.107 C1917.4,705.007 1917.9,704.307 1917.9,703.707 L1917.9,697.807 C1917.9,697.007 1917.3,696.407 1916.5,696.407 L1916.3,696.407 L1913,697.107 L1913,680.607 L1916.8,679.907 M1901.3,699.607 L1901.3,683.007 L1910.2,681.207 L1910.2,697.707 L1901.3,699.607 "/>
<path class="Accidental" d="M2364.9,717.409 C2365.5,717.309 2366,716.609 2366,716.009 L2366,710.109 C2366,709.309 2365.4,708.709 2364.6,708.709 L2364.4,708.709 L2361.1,709.409 L2361.1,694.509 L2358.3,694.509 L2358.3,710.009 L2349.4,711.809 L2349.4,697.709 L2346.6,697.709 L2346.6,712.409 L2342.7,713.209 C2342.1,713.309 2341.6,714.009 2341.6,714.609 L2341.6,714.809 L2341.6,720.609 L2341.6,720.409 C2341.6,721.209 2342.2,721.809 2343,721.809 L2343.3,721.809 L2346.6,721.109 L2346.6,737.609 L2342.7,738.409 C2342.1,738.509 2341.6,739.209 2341.6,739.809 L2341.6,745.609 C2341.6,746.409 2342.2,747.009 2343,747.009 L2343.3,747.009 L2346.6,746.309 L2346.6,761.209 L2349.4,761.209 L2349.4,745.709 L2358.3,743.909 L2358.3,758.009 L2361.1,758.009 L2361.1,743.309 L2364.9,742.609 C2365.5,742.509 2366,741.809 2366,741.209 L2366,735.309 C2366,734.509 2365.4,733.909 2364.6,733.909 L2364.4,733.909 L2361.1,734.609 L2361.1,718.109 L2364.9,717.409 M2349.4,737.109 L2349.4,720.509 L2358.3,718.709 L2358.3,735.209 L2349.4,737.109 "/>
<path class="Accidental" d="M2503.51,729.91 C2504.11,729.81 2504.61,729.11 2504.61,728.51 L2504.61,722.61 C2504.61,721.81 2504.01,721.21 2503.21,721.21 L2503.01,721.21 L2499.71,721.91 L2499.71,707.01 L2496.91,707.01 L2496.91,722.51 L2488.01,724.31 L2488.01,710.21 L2485.21,710.21 L2485.21,724.91 L2481.31,725.71 C2480.71,725.81 2480.21,726.51 2480.21,727.11 L2480.21,727.31 L2480.21,733.11 L2480.21,732.91 C2480.21,733.71 2480.81,734.31 2481.61,734.31 L2481.91,734.31 L2485.21,733.61 L2485.21,750.11 L2481.31,750.91 C2480.71,751.01 2480.21,751.71 2480.21,752.31 L2480.21,758.11 C2480.21,758.91 2480.81,759.51 2481.61,759.51 L2481.91,759.51 L2485.21,758.81 L2485.21,773.71 L2488.01,773.71 L2488.01,758.21 L2496.91,756.41 L2496.91,770.51 L2499.71,770.51 L2499.71,755.81 L2503.51,755.11 C2504.11,755.01 2504.61,754.31 2504.61,753.71 L2504.61,747.81 C2504.61,747.01 2504.01,746.41 2503.21,746.41 L2503.01,746.41 L2499.71,747.11 L2499.71,730.61 L2503.51,729.91 M2488.01,749.61 L2488.01,733.01 L2496.91,731.21 L2496.91,747.71 L2488.01,749.61 "/>
<polyline class="LedgerLine" fill="none" stroke="#000000" stroke-width="4.00" stroke-linejoin="bevel" points="1041.65,890.52 1091.64,890.52"/>
<polyline class="LedgerLine" fill="none" stroke="#000000" stroke-width="4.00" stroke-linejoin="bevel" points="1180.52,890.52 1230.52,890.52"/>
<polyline class="LedgerLine" fill="none" stroke="#000000" stroke-width="4.00" stroke-linejoin="bevel" points="1319.4,890.52 1369.39,890.52"/>
<polyline class="LedgerLine" fill="none" stroke="#000000" stroke-width="4.00" stroke-linejoin="bevel" points="1319.4,865.518 1369.39,865.518"/>
<polyline class="LedgerLine" fill="none" stroke="#000000" stroke-width="4.00" stroke-linejoin="bevel" points="1458.27,890.52 1508.27,890.52"/>
<polyline class="LedgerLine" fill="none" stroke="#000000" stroke-width="4.00" stroke-linejoin="bevel" points="1458.27,865.518 1508.27,865.518"/>
<polyline class="LedgerLine" fill="none" stroke="#000000" stroke-width="4.00" stroke-linejoin="bevel" points="1642.9,890.52 1692.89,890.52"/>
<polyline class="LedgerLine" fill="none" stroke="#000000" stroke-width="4.00" stroke-linejoin="bevel" points="1642.9,865.518 1692.89,865.518"/>
<polyline class="LedgerLine" fill="none" stroke="#000000" stroke-width="4.00" stroke-linejoin="bevel" points="1779.15,890.52 1829.14,890.52"/>
<polyline class="LedgerLine" fill="none" stroke="#000000" stroke-width="4.00" stroke-linejoin="bevel" points="1915.4,890.52 1965.39,890.52"/>
<polyline class="Stem" fill="none" stroke="#000000" stroke-width="2.75" stroke-linejoin="bevel" points="487.028,944.043 487.028,1024.9"/>
<polyline class="Stem" fill="none" stroke="#000000" stroke-width="2.75" stroke-linejoin="bevel" points="611.801,931.542 611.801,1015.53"/>
<polyline class="Stem" fill="none" stroke="#000000" stroke-width="2.75" stroke-linejoin="bevel" points="736.574,919.042 736.574,1003.03"/>
<polyline class="Stem" fill="none" stroke="#000000" stroke-width="2.75" stroke-linejoin="bevel" points="861.348,906.541 861.348,990.526"/>
<polyline class="Stem" fill="none" stroke="#000000" stroke-width="2.75" stroke-linejoin="bevel" points="1051.77,894.04 1051.77,978.025"/>
<polyline class="Stem" fill="none" stroke="#000000" stroke-width="2.75" stroke-linejoin="bevel" points="1190.65,881.539 1190.65,965.524"/>
<polyline class="Stem" fill="none" stroke="#000000" stroke-width="2.75" stroke-linejoin="bevel" points="1329.52,869.038 1329.52,965.524"/>
<polyline class="Stem" fill="none" stroke="#000000" stroke-width="2.75" stroke-linejoin="bevel" points="1468.4,856.538 1468.4,965.524"/>
<polyline class="Stem" fill="none" stroke="#000000" stroke-width="2.75" stroke-linejoin="bevel" points="1653.02,869.038 1653.02,965.524"/>
<polyline class="Stem" fill="none" stroke="#000000" stroke-width="2.75" stroke-linejoin="bevel" points="1789.27,881.539 1789.27,965.524"/>
<polyline class="Stem" fill="none" stroke="#000000" stroke-width="2.75" stroke-linejoin="bevel" points="1925.52,894.04 1925.52,978.025"/>
<polyline class="Stem" fill="none" stroke="#000000" stroke-width="2.75" stroke-linejoin="bevel" points="2061.77,906.541 2061.77,990.526"/>
<polyline class="Stem" fill="none" stroke="#000000" stroke-width="2.75" stroke-linejoin="bevel" points="2235.02,919.042 2235.02,1003.03"/>
<polyline class="Stem" fill="none" stroke="#000000" stroke-width="2.75" stroke-linejoin="bevel" points="2373.63,931.542 2373.63,1015.53"/>
<polyline class="Stem" fill="none" stroke="#000000" stroke-width="2.75" stroke-linejoin="bevel" points="2512.23,943.963 2512.23,1024.9"/>
<polyline class="Stem" fill="none" stroke="#000000" stroke-width="2.75" stroke-linejoin="bevel" points="516.772,737.15 516.772,653.005"/>
<polyline class="Stem" fill="none" stroke="#000000" stroke-width="2.75" stroke-linejoin="bevel" points="641.545,724.649 641.545,643.629"/>
<polyline class="Stem" fill="none" stroke="#000000" stroke-width="2.75" stroke-linejoin="bevel" points="766.319,712.148 766.319,634.254"/>
<polyline class="Stem" fill="none" stroke="#000000" stroke-width="2.75" stroke-linejoin="bevel" points="861.348,706.528 861.348,781.138"/>
<polyline class="Stem" fill="none" stroke="#000000" stroke-width="2.75" stroke-linejoin="bevel" points="1051.77,694.027 1051.77,771.762"/>
<polyline class="Stem" fill="none" stroke="#000000" stroke-width="2.75" stroke-linejoin="bevel" points="1190.65,681.527 1190.65,762.387"/>
<polyline class="Stem" fill="none" stroke="#000000" stroke-width="2.75" stroke-linejoin="bevel" points="1329.52,669.026 1329.52,753.011"/>
<polyline class="Stem" fill="none" stroke="#000000" stroke-width="2.75" stroke-linejoin="bevel" points="1468.4,656.525 1468.4,740.51"/>
<polyline class="Stem" fill="none" stroke="#000000" stroke-width="2.75" stroke-linejoin="bevel" points="1653.02,669.026 1653.02,753.011"/>
<polyline class="Stem" fill="none" stroke="#000000" stroke-width="2.75" stroke-linejoin="bevel" points="1789.27,681.527 1789.27,762.387"/>
<polyline class="Stem" fill="none" stroke="#000000" stroke-width="2.75" stroke-linejoin="bevel" points="1925.52,694.027 1925.52,771.762"/>
<polyline class="Stem" fill="none" stroke="#000000" stroke-width="2.75" stroke-linejoin="bevel" points="2061.77,706.528 2061.77,781.138"/>
<polyline class="Stem" fill="none" stroke="#000000" stroke-width="2.75" stroke-linejoin="bevel" points="2264.77,712.148 2264.77,634.254"/>
<polyline class="Stem" fill="none" stroke="#000000" stroke-width="2.75" stroke-linejoin="bevel" points="2403.37,724.649 2403.37,643.629"/>
<polyline class="Stem" fill="none" stroke="#000000" stroke-width="2.75" stroke-linejoin="bevel" points="2541.98,737.07 2541.98,653.005"/>
<path class="Note" d="M517.153,932.323 C515.653,929.623 512.753,927.923 508.853,927.523 C508.253,927.423 507.753,927.423 507.153,927.423 C503.653,927.423 499.853,928.423 496.353,930.323 C489.753,933.923 485.653,939.823 485.653,944.923 C485.653,946.323 485.853,947.623 486.553,948.823 C488.053,951.523 491.053,953.223 494.953,953.623 C495.553,953.723 496.053,953.723 496.653,953.723 C500.153,953.723 503.853,952.723 507.353,950.823 C513.953,947.223 518.153,941.423 518.153,936.323 C518.153,934.923 517.853,933.523 517.153,932.323"/>
<path class="Note" d="M641.926,919.822 C640.426,917.122 637.526,915.422 633.626,915.022 C633.026,914.922 632.526,914.922 631.926,914.922 C628.426,914.922 624.626,915.922 621.126,917.822 C614.526,921.422 610.426,927.322 610.426,932.422 C610.426,933.822 610.626,935.122 611.326,936.322 C612.826,939.022 615.826,940.722 619.726,941.122 C620.326,941.222 620.826,941.222 621.426,941.222 C624.926,941.222 628.626,940.222 632.126,938.322 C638.726,934.722 642.926,928.922 642.926,923.822 C642.926,922.422 642.626,921.022 641.926,919.822"/>
<path class="Note" d="M766.699,907.321 C765.199,904.621 762.299,902.921 758.399,902.521 C757.799,902.421 757.299,902.421 756.699,902.421 C753.199,902.421 749.399,903.421 745.899,905.321 C739.299,908.921 735.199,914.821 735.199,919.921 C735.199,921.321 735.399,922.621 736.099,923.821 C737.599,926.521 740.599,928.221 744.499,928.621 C745.099,928.721 745.599,928.721 746.199,928.721 C749.699,928.721 753.399,927.721 756.899,925.821 C763.499,922.221 767.699,916.421 767.699,911.321 C767.699,909.921 767.399,908.521 766.699,907.321"/>
<path class="Note" d="M891.473,894.82 C889.973,892.12 887.073,890.42 883.173,890.02 C882.573,889.92 882.073,889.92 881.473,889.92 C877.973,889.92 874.173,890.92 870.673,892.82 C864.073,896.42 859.973,902.32 859.973,907.42 C859.973,908.82 860.173,910.12 860.873,911.32 C862.373,914.02 865.373,915.72 869.273,916.12 C869.873,916.22 870.373,916.22 870.973,916.22 C874.473,916.22 878.173,915.22 881.673,913.32 C888.273,909.72 892.473,903.92 892.473,898.82 C892.473,897.42 892.173,896.02 891.473,894.82"/>
<path class="Note" d="M1081.9,882.32 C1080.4,879.62 1077.5,877.92 1073.6,877.52 C1073,877.42 1072.5,877.42 1071.9,877.42 C1068.4,877.42 1064.6,878.42 1061.1,880.32 C1054.5,883.92 1050.4,889.82 1050.4,894.92 C1050.4,896.32 1050.6,897.62 1051.3,898.82 C1052.8,901.52 1055.8,903.22 1059.7,903.62 C1060.3,903.72 1060.8,903.72 1061.4,903.72 C1064.9,903.72 1068.6,902.72 1072.1,900.82 C1078.7,897.22 1082.9,891.42 1082.9,886.32 C1082.9,884.92 1082.6,883.52 1081.9,882.32"/>
<path class="Note" d="M1220.77,869.819 C1219.27,867.119 1216.37,865.419 1212.47,865.019 C1211.87,864.919 1211.37,864.919 1210.77,864.919 C1207.27,864.919 1203.47,865.919 1199.97,867.819 C1193.37,871.419 1189.27,877.319 1189.27,882.419 C1189.27,883.819 1189.47,885.119 1190.17,886.319 C1191.67,889.019 1194.67,890.719 1198.57,891.119 C1199.17,891.219 1199.67,891.219 1200.27,891.219 C1203.77,891.219 1207.47,890.219 1210.97,888.319 C1217.57,884.719 1221.77,878.919 1221.77,873.819 C1221.77,872.419 1221.47,871.019 1220.77,869.819"/>
<path class="Note" d="M1359.65,857.318 C1358.15,854.618 1355.25,852.918 1351.35,852.518 C1350.75,852.418 1350.25,852.418 1349.65,852.418 C1346.15,852.418 1342.35,853.418 1338.85,855.318 C1332.25,858.918 1328.15,864.818 1328.15,869.918 C1328.15,871.318 1328.35,872.618 1329.05,873.818 C1330.55,876.518 1333.55,878.218 1337.45,878.618 C1338.05,878.718 1338.55,878.718 1339.15,878.718 C1342.65,878.718 1346.35,877.718 1349.85,875.818 C1356.45,872.218 1360.65,866.418 1360.65,861.318 C1360.65,859.918 1360.35,858.518 1359.65,857.318"/>
<path class="Note" d="M1498.52,844.817 C1497.02,842.117 1494.12,840.417 1490.22,840.017 C1489.62,839.917 1489.12,839.917 1488.52,839.917 C1485.02,839.917 1481.22,840.917 1477.72,842.817 C1471.12,846.417 1467.02,852.317 1467.02,857.417 C1467.02,858.817 1467.22,860.117 1467.92,861.317 C1469.42,864.017 1472.42,865.717 1476.32,866.117 C1476.92,866.217 1477.42,866.217 1478.02,866.217 C1481.52,866.217 1485.22,865.217 1488.72,863.317 C1495.32,859.717 1499.52,853.917 1499.52,848.817 C1499.52,847.417 1499.22,846.017 1498.52,844.817"/>
<path class="Note" d="M1683.15,857.318 C1681.65,854.618 1678.75,852.918 1674.85,852.518 C1674.25,852.418 1673.75,852.418 1673.15,852.418 C1669.65,852.418 1665.85,853.418 1662.35,855.318 C1655.75,858.918 1651.65,864.818 1651.65,869.918 C1651.65,871.318 1651.85,872.618 1652.55,873.818 C1654.05,876.518 1657.05,878.218 1660.95,878.618 C1661.55,878.718 1662.05,878.718 1662.65,878.718 C1666.15,878.718 1669.85,877.718 1673.35,875.818 C1679.95,872.218 1684.15,866.418 1684.15,861.318 C1684.15,859.918 1683.85,858.518 1683.15,857.318"/>
<path class="Note" d="M1819.4,869.819 C1817.9,867.119 1815,865.419 1811.1,865.019 C1810.5,864.919 1810,864.919 1809.4,864.919 C1805.9,864.919 1802.1,865.919 1798.6,867.819 C1792,871.419 1787.9,877.319 1787.9,882.419 C1787.9,883.819 1788.1,885.119 1788.8,886.319 C1790.3,889.019 1793.3,890.719 1797.2,891.119 C1797.8,891.219 1798.3,891.219 1798.9,891.219 C1802.4,891.219 1806.1,890.219 1809.6,888.319 C1816.2,884.719 1820.4,878.919 1820.4,873.819 C1820.4,872.419 1820.1,871.019 1819.4,869.819"/>
<path class="Note" d="M1955.65,882.32 C1954.15,879.62 1951.25,877.92 1947.35,877.52 C1946.75,877.42 1946.25,877.42 1945.65,877.42 C1942.15,877.42 1938.35,878.42 1934.85,880.32 C1928.25,883.92 1924.15,889.82 1924.15,894.92 C1924.15,896.32 1924.35,897.62 1925.05,898.82 C1926.55,901.52 1929.55,903.22 1933.45,903.62 C1934.05,903.72 1934.55,903.72 1935.15,903.72 C1938.65,903.72 1942.35,902.72 1945.85,900.82 C1952.45,897.22 1956.65,891.42 1956.65,886.32 C1956.65,884.92 1956.35,883.52 1955.65,882.32"/>
<path class="Note" d="M2091.9,894.82 C2090.4,892.12 2087.5,890.42 2083.6,890.02 C2083,889.92 2082.5,889.92 2081.9,889.92 C2078.4,889.92 2074.6,890.92 2071.1,892.82 C2064.5,896.42 2060.4,902.32 2060.4,907.42 C2060.4,908.82 2060.6,910.12 2061.3,911.32 C2062.8,914.02 2065.8,915.72 2069.7,916.12 C2070.3,916.22 2070.8,916.22 2071.4,916.22 C2074.9,916.22 2078.6,915.22 2082.1,913.32 C2088.7,909.72 2092.9,903.92 2092.9,898.82 C2092.9,897.42 2092.6,896.02 2091.9,894.82"/>
<path class="Note" d="M2265.15,907.321 C2263.65,904.621 2260.75,902.921 2256.85,902.521 C2256.25,902.421 2255.75,902.421 2255.15,902.421 C2251.65,902.421 2247.85,903.421 2244.35,905.321 C2237.75,908.921 2233.65,914.821 2233.65,919.921 C2233.65,921.321 2233.85,922.621 2234.55,923.821 C2236.05,926.521 2239.05,928.221 2242.95,928.621 C2243.55,928.721 2244.05,928.721 2244.65,928.721 C2248.15,928.721 2251.85,927.721 2255.35,925.821 C2261.95,922.221 2266.15,916.421 2266.15,911.321 C2266.15,909.921 2265.85,908.521 2265.15,907.321"/>
<path class="Note" d="M2403.75,919.822 C2402.25,917.122 2399.35,915.422 2395.45,915.022 C2394.85,914.922 2394.35,914.922 2393.75,914.922 C2390.25,914.922 2386.45,915.922 2382.95,917.822 C2376.35,921.422 2372.25,927.322 2372.25,932.422 C2372.25,933.822 2372.45,935.122 2373.15,936.322 C2374.65,939.022 2377.65,940.722 2381.55,941.122 C2382.15,941.222 2382.65,941.222 2383.25,941.222 C2386.75,941.222 2390.45,940.222 2393.95,938.322 C2400.55,934.722 2404.75,928.922 2404.75,923.822 C2404.75,922.422 2404.45,921.022 2403.75,919.822"/>
<path class="Note" d="M2542.36,932.323 C2540.86,929.623 2537.96,927.923 2534.06,927.523 C2533.46,927.423 2532.96,927.423 2532.36,927.423 C2528.86,927.423 2525.06,928.423 2521.56,930.323 C2514.96,933.923 2510.86,939.723 2510.86,944.823 C2510.86,946.223 2511.26,947.623 2511.96,948.823 C2513.46,951.623 2516.26,953.223 2520.16,953.623 C2520.76,953.723 2521.26,953.723 2521.86,953.723 C2525.36,953.723 2529.16,952.723 2532.66,950.823 C2539.26,947.223 2543.36,941.323 2543.36,936.223 C2543.36,934.823 2543.06,933.523 2542.36,932.323 M2538.16,938.623 C2536.46,940.423 2533.26,942.723 2529.66,944.823 C2526.06,946.923 2522.36,948.623 2520.06,949.323 C2519.56,949.423 2518.96,949.523 2518.46,949.523 C2516.96,949.523 2515.66,948.823 2514.96,947.723 C2514.66,947.123 2514.46,946.523 2514.46,945.923 C2514.46,944.823 2514.96,943.723 2516.06,942.523 C2517.76,940.723 2520.96,938.323 2524.56,936.223 C2528.16,934.123 2531.86,932.423 2534.26,931.823 L2534.46,931.823 C2535.06,931.623 2535.56,931.523 2536.06,931.523 C2537.46,931.523 2538.56,932.123 2539.26,933.423 C2539.56,934.023 2539.76,934.523 2539.76,935.123 C2539.76,936.423 2539.06,937.723 2538.16,938.623"/>
<path class="Note" d="M517.153,732.31 C515.653,729.61 512.753,727.91 508.853,727.51 C508.253,727.41 507.753,727.41 507.153,727.41 C503.653,727.41 499.853,728.41 496.353,730.31 C489.753,733.91 485.653,739.81 485.653,744.91 C485.653,746.31 485.853,747.61 486.553,748.81 C488.053,751.51 491.053,753.21 494.953,753.61 C495.553,753.71 496.053,753.71 496.653,753.71 C500.153,753.71 503.853,752.71 507.353,750.81 C513.953,747.21 518.153,741.41 518.153,736.31 C518.153,734.91 517.853,733.51 517.153,732.31"/>
<path class="Note" d="M641.926,719.809 C640.426,717.109 637.526,715.409 633.626,715.009 C633.026,714.909 632.526,714.909 631.926,714.909 C628.426,714.909 624.626,715.909 621.126,717.809 C614.526,721.409 610.426,727.309 610.426,732.409 C610.426,733.809 610.626,735.109 611.326,736.309 C612.826,739.009 615.826,740.709 619.726,741.109 C620.326,741.209 620.826,741.209 621.426,741.209 C624.926,741.209 628.626,740.209 632.126,738.309 C638.726,734.709 642.926,728.909 642.926,723.809 C642.926,722.409 642.626,721.009 641.926,719.809"/>
<path class="Note" d="M766.699,707.309 C765.199,704.609 762.299,702.909 758.399,702.509 C757.799,702.409 757.299,702.409 756.699,702.409 C753.199,702.409 749.399,703.409 745.899,705.309 C739.299,708.909 735.199,714.809 735.199,719.909 C735.199,721.309 735.399,722.609 736.099,723.809 C737.599,726.509 740.599,728.209 744.499,728.609 C745.099,728.709 745.599,728.709 746.199,728.709 C749.699,728.709 753.399,727.709 756.899,725.809 C763.499,722.209 767.699,716.409 767.699,711.309 C767.699,709.909 767.399,708.509 766.699,707.309"/>
<path class="Note" d="M891.473,694.808 C889.973,692.108 887.073,690.408 883.173,690.008 C882.573,689.908 882.073,689.908 881.473,689.908 C877.973,689.908 874.173,690.908 870.673,692.808 C864.073,696.408 859.973,702.308 859.973,707.408 C859.973,708.808 860.173,710.108 860.873,711.308 C862.373,714.008 865.373,715.708 869.273,716.108 C869.873,716.208 870.373,716.208 870.973,716.208 C874.473,716.208 878.173,715.208 881.673,713.308 C888.273,709.708 892.473,703.908 892.473,698.808 C892.473,697.408 892.173,696.008 891.473,694.808"/>
<path class="Note" d="M1081.9,682.307 C1080.4,679.607 1077.5,677.907 1073.6,677.507 C1073,677.407 1072.5,677.407 1071.9,677.407 C1068.4,677.407 1064.6,678.407 1061.1,680.307 C1054.5,683.907 1050.4,689.807 1050.4,694.907 C1050.4,696.307 1050.6,697.607 1051.3,698.807 C1052.8,701.507 1055.8,703.207 1059.7,703.607 C1060.3,703.707 1060.8,703.707 1061.4,703.707 C1064.9,703.707 1068.6,702.707 1072.1,700.807 C1078.7,697.207 1082.9,691.407 1082.9,686.307 C1082.9,684.907 1082.6,683.507 1081.9,682.307"/>
<path class="Note" d="M1220.77,669.806 C1219.27,667.106 1216.37,665.406 1212.47,665.006 C1211.87,664.906 1211.37,664.906 1210.77,664.906 C1207.27,664.906 1203.47,665.906 1199.97,667.806 C1193.37,671.406 1189.27,677.306 1189.27,682.406 C1189.27,683.806 1189.47,685.106 1190.17,686.306 C1191.67,689.006 1194.67,690.706 1198.57,691.106 C1199.17,691.206 1199.67,691.206 1200.27,691.206 C1203.77,691.206 1207.47,690.206 1210.97,688.306 C1217.57,684.706 1221.77,678.906 1221.77,673.806 C1221.77,672.406 1221.47,671.006 1220.77,669.806"/>
<path class="Note" d="M1359.65,657.306 C1358.15,654.606 1355.25,652.906 1351.35,652.506 C1350.75,652.406 1350.25,652.406 1349.65,652.406 C1346.15,652.406 1342.35,653.406 1338.85,655.306 C1332.25,658.906 1328.15,664.806 1328.15,669.906 C1328.15,671.306 1328.35,672.606 1329.05,673.806 C1330.55,676.506 1333.55,678.206 1337.45,678.606 C1338.05,678.706 1338.55,678.706 1339.15,678.706 C1342.65,678.706 1346.35,677.706 1349.85,675.806 C1356.45,672.206 1360.65,666.406 1360.65,661.306 C1360.65,659.906 1360.35,658.506 1359.65,657.306"/>
<path class="Note" d="M1498.52,644.805 C1497.02,642.105 1494.12,640.405 1490.22,640.005 C1489.62,639.905 1489.12,639.905 1488.52,639.905 C1485.02,639.905 1481.22,640.905 1477.72,642.805 C1471.12,646.405 1467.02,652.305 1467.02,657.405 C1467.02,658.805 1467.22,660.105 1467.92,661.305 C1469.42,664.005 1472.42,665.705 1476.32,666.105 C1476.92,666.205 1477.42,666.205 1478.02,666.205 C1481.52,666.205 1485.22,665.205 1488.72,663.305 C1495.32,659.705 1499.52,653.905 1499.52,648.805 C1499.52,647.405 1499.22,646.005 1498.52,644.805"/>
<path class="Note" d="M1683.15,657.306 C1681.65,654.606 1678.75,652.906 1674.85,652.506 C1674.25,652.406 1673.75,652.406 1673.15,652.406 C1669.65,652.406 1665.85,653.406 1662.35,655.306 C1655.75,658.906 1651.65,664.806 1651.65,669.906 C1651.65,671.306 1651.85,672.606 1652.55,673.806 C1654.05,676.506 1657.05,678.206 1660.95,678.606 C1661.55,678.706 1662.05,678.706 1662.65,678.706 C1666.15,678.706 1669.85,677.706 1673.35,675.806 C1679.95,672.206 1684.15,666.406 1684.15,661.306 C1684.15,659.906 1683.85,658.506 1683.15,657.306"/>
<path class="Note" d="M1819.4,669.806 C1817.9,667.106 1815,665.406 1811.1,665.006 C1810.5,664.906 1810,664.906 1809.4,664.906 C1805.9,664.906 1802.1,665.906 1798.6,667.806 C1792,671.406 1787.9,677.306 1787.9,682.406 C1787.9,683.806 1788.1,685.106 1788.8,686.306 C1790.3,689.006 1793.3,690.706 1797.2,691.106 C1797.8,691.206 1798.3,691.206 1798.9,691.206 C1802.4,691.206 1806.1,690.206 1809.6,688.306 C1816.2,684.706 1820.4,678.906 1820.4,673.806 C1820.4,672.406 1820.1,671.006 1819.4,669.806"/>
<path class="Note" d="M1955.65,682.307 C1954.15,679.607 1951.25,677.907 1947.35,677.507 C1946.75,677.407 1946.25,677.407 1945.65,677.407 C1942.15,677.407 1938.35,678.407 1934.85,680.307 C1928.25,683.907 1924.15,689.807 1924.15,694.907 C1924.15,696.307 1924.35,697.607 1925.05,698.807 C1926.55,701.507 1929.55,703.207 1933.45,703.607 C1934.05,703.707 1934.55,703.707 1935.15,703.707 C1938.65,703.707 1942.35,702.707 1945.85,700.807 C1952.45,697.207 1956.65,691.407 1956.65,686.307 C1956.65,684.907 1956.35,683.507 1955.65,682.307"/>
<path class="Note" d="M2091.9,694.808 C2090.4,692.108 2087.5,690.408 2083.6,690.008 C2083,689.908 2082.5,689.908 2081.9,689.908 C2078.4,689.908 2074.6,690.908 2071.1,692.808 C2064.5,696.408 2060.4,702.308 2060.4,707.408 C2060.4,708.808 2060.6,710.108 2061.3,711.308 C2062.8,714.008 2065.8,715.708 2069.7,716.108 C2070.3,716.208 2070.8,716.208 2071.4,716.208 C2074.9,716.208 2078.6,715.208 2082.1,713.308 C2088.7,709.708 2092.9,703.908 2092.9,698.808 C2092.9,697.408 2092.6,696.008 2091.9,694.808"/>
<path class="Note" d="M2265.15,707.309 C2263.65,704.609 2260.75,702.909 2256.85,702.509 C2256.25,702.409 2255.75,702.409 2255.15,702.409 C2251.65,702.409 2247.85,703.409 2244.35,705.309 C2237.75,708.909 2233.65,714.809 2233.65,719.909 C2233.65,721.309 2233.85,722.609 2234.55,723.809 C2236.05,726.509 2239.05,728.209 2242.95,728.609 C2243.55,728.709 2244.05,728.709 2244.65,728.709 C2248.15,728.709 2251.85,727.709 2255.35,725.809 C2261.95,722.209 2266.15,716.409 2266.15,711.309 C2266.15,709.909 2265.85,708.509 2265.15,707.309"/>
<path class="Note" d="M2403.75,719.809 C2402.25,717.109 2399.35,715.409 2395.45,715.009 C2394.85,714.909 2394.35,714.909 2393.75,714.909 C2390.25,714.909 2386.45,715.909 2382.95,717.809 C2376.35,721.409 2372.25,727.309 2372.25,732.409 C2372.25,733.809 2372.45,735.109 2373.15,736.309 C2374.65,739.009 2377.65,740.709 2381.55,741.109 C2382.15,741.209 2382.65,741.209 2383.25,741.209 C2386.75,741.209 2390.45,740.209 2393.95,738.309 C2400.55,734.709 2404.75,728.909 2404.75,723.809 C2404.75,722.409 2404.45,721.009 2403.75,719.809"/>
<path class="Note" d="M2542.36,732.31 C2540.86,729.61 2537.96,727.91 2534.06,727.51 C2533.46,727.41 2532.96,727.41 2532.36,727.41 C2528.86,727.41 2525.06,728.41 2521.56,730.31 C2514.96,733.91 2510.86,739.71 2510.86,744.81 C2510.86,746.21 2511.26,747.61 2511.96,748.81 C2513.46,751.61 2516.26,753.21 2520.16,753.61 C2520.76,753.71 2521.26,753.71 2521.86,753.71 C2525.36,753.71 2529.16,752.71 2532.66,750.81 C2539.26,747.21 2543.36,741.31 2543.36,736.21 C2543.36,734.81 2543.06,733.51 2542.36,732.31 M2538.16,738.61 C2536.46,740.41 2533.26,742.71 2529.66,744.81 C2526.06,746.91 2522.36,748.61 2520.06,749.31 C2519.56,749.41 2518.96,749.51 2518.46,749.51 C2516.96,749.51 2515.66,748.81 2514.96,747.71 C2514.66,747.11 2514.46,746.51 2514.46,745.91 C2514.46,744.81 2514.96,743.71 2516.06,742.51 C2517.76,740.71 2520.96,738.31 2524.56,736.21 C2528.16,734.11 2531.86,732.41 2534.26,731.81 L2534.46,731.81 C2535.06,731.61 2535.56,731.51 2536.06,731.51 C2537.46,731.51 2538.56,732.11 2539.26,733.41 C2539.56,734.01 2539.76,734.51 2539.76,735.11 C2539.76,736.41 2539.06,737.71 2538.16,738.61"/>
<path class="Clef" d="M297,915.423 C289.4,915.423 283.3,919.823 283.2,919.823 C277.4,924.123 275.1,929.223 274.2,932.723 C273.7,934.523 273.5,936.323 273.5,938.023 C273.5,940.423 273.9,942.623 274.8,944.523 C276,947.223 278.3,949.123 281.3,950.123 C282.5,950.523 283.8,950.723 285.1,950.723 C287.3,950.723 289.6,950.123 291.5,949.023 C294.6,947.323 296.5,943.723 296.5,939.823 C296.5,936.323 294.7,933.123 291.7,931.223 C289.6,929.823 287.6,929.423 285.9,929.423 C284.7,929.423 283.6,929.623 282.7,929.923 C281.7,930.323 280,931.323 279.2,932.023 C279.5,930.123 280.7,927.223 281.8,925.623 C282.9,924.023 285.1,922.023 286.8,921.123 C289.3,919.723 292.5,919.123 296,919.123 C306.2,919.123 311.2,927.323 311.2,944.123 C311.2,953.423 307.7,962.323 304.7,968.223 C301.4,974.823 297,981.123 293.1,984.623 C282.7,994.123 272.9,998.623 272.8,998.623 C272.8,998.623 271.3,999.523 271.7,1001.02 C272,1002.02 272.9,1002.22 273.5,1002.22 C273.6,1002.22 273.9,1002.12 274,1002.12 C274.1,1002.12 285.5,997.423 294.6,990.323 C299.7,986.623 304.3,982.623 308.3,978.323 C311.9,974.423 315,970.223 317.5,966.023 C321.9,958.523 324.4,950.723 324.4,944.023 C324.4,935.723 322.2,928.823 318.1,923.923 C313.4,918.323 306.3,915.423 297,915.423 M328.4,928.123 C328.4,930.923 330.6,933.123 333.2,933.123 C335.8,933.123 338,930.923 338,928.123 C338,925.323 335.8,923.023 333.2,923.023 C330.6,923.023 328.4,925.323 328.4,928.123 M328.4,952.823 C328.4,955.623 330.6,957.923 333.2,957.923 C335.8,957.923 338,955.623 338,952.823 C338,950.023 335.8,947.723 333.2,947.723 C330.6,947.723 328.4,950.023 328.4,952.823"/>
<path class="Clef" d="M335,722.109 C333.8,716.709 331.1,712.809 330.3,711.809 C327.1,707.509 323.1,704.709 318.4,703.309 C316.1,702.609 314,702.409 312,702.409 C311.3,702.409 310.6,702.409 309.9,702.509 C308.9,696.509 307.8,690.609 306.9,685.209 C312.5,679.009 316.2,673.109 318.6,668.709 C322.2,662.009 323.6,657.309 323.7,657.109 C324.9,654.109 325.6,650.309 325.6,645.809 C325.6,643.109 325.3,640.209 324.9,637.209 C323.8,630.109 321.6,623.409 319.1,619.709 C317.8,617.809 316.6,616.709 315.4,616.709 C314.2,616.709 311.7,617.909 308.8,620.709 C306.5,622.909 303.2,626.809 300.6,632.809 C298.3,638.209 297.6,645.109 297.6,651.009 C297.6,652.809 297.7,654.509 297.8,656.109 C298,659.709 298.7,665.509 299.3,669.109 C299.3,669.209 299.6,670.709 300,673.309 L299.3,674.009 C298.3,675.009 297.1,676.109 295.7,677.509 C294.8,678.409 293.9,679.209 292.9,680.209 C284.4,688.409 271.6,700.809 271.6,719.909 C271.6,724.609 272.5,729.009 274.3,733.009 C275.9,736.609 278.2,739.909 281.1,742.809 C288.6,750.209 298.8,753.409 305.9,753.409 L306.5,753.409 C309.4,753.309 312.1,753.009 314.5,752.609 C316.3,762.209 317.5,769.309 317.5,774.609 C317.5,781.109 315.9,785.009 312,787.809 C309.6,789.509 306.7,790.609 303.6,790.709 L302.8,790.709 C301.3,790.709 298.8,790.309 297.3,789.909 C297.3,789.909 297,789.809 297,789.609 C297,789.409 297.4,789.409 297.4,789.409 C299.3,789.009 302.9,787.709 305.3,784.409 C306.4,782.909 307.1,780.609 307.1,778.109 C307.1,776.509 306.8,774.809 306.1,773.309 C305,770.909 302.4,767.909 296.8,767.509 L295.7,767.509 C293.6,767.509 291.8,768.009 290.1,769.009 C288.3,770.109 286.7,771.809 285.7,773.809 C284.6,775.809 284.1,778.009 284.1,780.209 C284.1,783.109 285,785.809 286.8,788.009 C289.8,791.609 294.5,793.909 299.9,794.509 C300.6,794.609 301.7,794.709 302.4,794.709 C306.8,794.709 311.2,793.509 314.8,791.309 C318.5,788.709 320.6,784.709 321.3,779.109 C321.5,777.809 321.5,776.409 321.5,774.909 C321.5,771.009 321,766.309 320,760.509 C319.6,758.409 319.2,755.409 318.5,751.609 C324.3,749.709 328.4,746.009 332.2,740.209 C334.5,736.209 335.6,732.109 335.6,727.809 C335.6,725.909 335.4,724.009 335,722.109 M304.8,644.209 C306.6,638.509 309.3,635.109 311.3,633.409 C313.1,631.909 314.7,631.209 315.6,631.209 C315.7,631.209 315.9,631.309 316,631.309 C316.3,631.409 316.7,631.909 317.1,632.609 C318,634.409 318.9,637.709 318.9,641.409 C318.9,643.309 318.7,645.309 318.1,647.109 C315.9,653.909 311.3,661.209 304.3,668.909 C304.1,667.809 303.9,666.809 303.8,665.809 C303.3,662.609 303,659.409 303,656.509 C303,652.009 303.6,647.909 304.8,644.209 M300.8,748.309 C296.2,747.109 291.7,744.609 287.9,741.109 C286.6,739.909 284.8,737.709 283.3,734.309 C282,731.309 281.3,728.209 281.3,724.809 L281.3,724.109 C281.4,719.409 282.7,714.609 285.2,709.809 C288.1,704.209 292.6,698.709 298.7,693.409 C300.2,692.109 301.6,690.809 302.9,689.509 C303.7,693.809 304.4,698.509 305.3,703.409 C301.4,704.709 296.7,707.709 293.6,713.409 C291.2,717.909 290.5,721.809 290.5,725.009 C290.5,726.509 290.7,727.909 290.9,729.009 C291.8,733.509 294.4,737.209 297.9,739.309 C298.7,739.809 302,741.509 304,741.509 C304.3,741.509 304.6,741.509 304.8,741.409 C305.1,741.309 305.4,741.109 305.5,740.809 C305.6,740.609 305.6,740.409 305.6,740.209 C305.6,739.409 304.8,738.809 303.5,738.009 C302.9,737.609 302.2,737.209 301.5,736.709 C298.9,734.709 297.4,731.609 297.4,728.209 C297.4,727.209 297.6,726.309 297.8,725.309 C298.3,723.309 300,720.509 301.5,719.109 C303.2,717.609 305.2,716.409 307.6,715.809 C309.6,727.009 311.7,738.109 313.3,746.509 C313.4,747.209 313.6,747.909 313.7,748.609 C311.7,749.009 309.7,749.209 307.8,749.209 C305.4,749.209 303.1,748.909 300.8,748.309 M326.5,738.109 C325.3,741.309 322.8,745.309 317.7,747.409 C317.6,747.009 317.6,746.509 317.5,746.109 C316,737.309 314.1,726.409 312.1,715.109 L313.1,715.109 C322.8,715.109 326.7,722.309 327.6,726.909 C327.8,727.809 327.9,729.009 327.9,730.309 C327.9,732.609 327.5,735.409 326.5,738.109"/>
<path class="TimeSig" d="M365.2,953.922 L382,953.922 L382,961.222 L373.9,961.222 C373.1,961.222 372.5,961.822 372.5,962.622 L372.5,964.522 C372.5,965.322 373.1,965.822 373.9,965.822 L403.6,965.822 C404.4,965.822 405,965.322 405,964.522 L405,962.622 C405,961.822 404.4,961.222 403.6,961.222 L394.8,961.222 L394.8,953.922 L403.6,953.922 C404.4,953.922 405,953.322 405,952.522 L405,950.722 C405,949.922 404.4,949.322 403.6,949.322 L394.8,949.322 L394.8,933.622 C394.8,933.122 394.4,932.622 394,932.422 L392.9,931.822 C392.7,931.722 392.4,931.722 392.2,931.722 C391.9,931.722 391.5,931.822 391.3,932.022 L382.4,940.222 C382.2,940.422 382,940.922 382,941.222 L382,949.322 L370.7,949.322 C370.7,949.322 381.6,937.522 393.2,922.022 C394,920.922 393.6,919.922 393.4,919.722 L391.3,917.522 C391.1,917.322 390.6,917.122 390.3,917.122 L375.7,917.122 C375,917.122 374.5,917.722 374.4,918.322 C374.4,918.322 373.9,925.522 371.3,933.522 C368.7,941.522 365.9,946.322 363.3,949.922 C363.3,949.922 362.8,950.922 363.1,951.622 C363.4,952.322 364.1,953.422 364.1,953.422 C364.1,953.422 364.4,953.922 365.2,953.922"/>
<path class="TimeSig" d="M365.2,1002.53 L382,1002.53 L382,1009.83 L373.9,1009.83 C373.1,1009.83 372.5,1010.43 372.5,1011.23 L372.5,1013.13 C372.5,1013.93 373.1,1014.43 373.9,1014.43 L403.6,1014.43 C404.4,1014.43 405,1013.93 405,1013.13 L405,1011.23 C405,1010.43 404.4,1009.83 403.6,1009.83 L394.8,1009.83 L394.8,1002.53 L403.6,1002.53 C404.4,1002.53 405,1001.93 405,1001.13 L405,999.327 C405,998.527 404.4,997.927 403.6,997.927 L394.8,997.927 L394.8,982.227 C394.8,981.727 394.4,981.227 394,981.027 L392.9,980.427 C392.7,980.327 392.4,980.327 392.2,980.327 C391.9,980.327 391.5,980.427 391.3,980.627 L382.4,988.827 C382.2,989.027 382,989.527 382,989.827 L382,997.927 L370.7,997.927 C370.7,997.927 381.6,986.127 393.2,970.627 C394,969.527 393.6,968.527 393.4,968.327 L391.3,966.127 C391.1,965.927 390.6,965.727 390.3,965.727 L375.7,965.727 C375,965.727 374.5,966.327 374.4,966.927 C374.4,966.927 373.9,974.127 371.3,982.127 C368.7,990.127 365.9,994.927 363.3,998.527 C363.3,998.527 362.8,999.527 363.1,1000.23 C363.4,1000.93 364.1,1002.03 364.1,1002.03 C364.1,1002.03 364.4,1002.53 365.2,1002.53"/>
<path class="TimeSig" d="M365.2,691.406 L382,691.406 L382,698.706 L373.9,698.706 C373.1,698.706 372.5,699.306 372.5,700.106 L372.5,702.006 C372.5,702.806 373.1,703.306 373.9,703.306 L403.6,703.306 C404.4,703.306 405,702.806 405,702.006 L405,700.106 C405,699.306 404.4,698.706 403.6,698.706 L394.8,698.706 L394.8,691.406 L403.6,691.406 C404.4,691.406 405,690.806 405,690.006 L405,688.206 C405,687.406 404.4,686.806 403.6,686.806 L394.8,686.806 L394.8,671.106 C394.8,670.606 394.4,670.106 394,669.906 L392.9,669.306 C392.7,669.206 392.4,669.206 392.2,669.206 C391.9,669.206 391.5,669.306 391.3,669.506 L382.4,677.706 C382.2,677.906 382,678.406 382,678.706 L382,686.806 L370.7,686.806 C370.7,686.806 381.6,675.006 393.2,659.506 C394,658.406 393.6,657.406 393.4,657.206 L391.3,655.006 C391.1,654.806 390.6,654.606 390.3,654.606 L375.7,654.606 C375,654.606 374.5,655.206 374.4,655.806 C374.4,655.806 373.9,663.006 371.3,671.006 C368.7,679.006 365.9,683.806 363.3,687.406 C363.3,687.406 362.8,688.406 363.1,689.106 C363.4,689.806 364.1,690.906 364.1,690.906 C364.1,690.906 364.4,691.406 365.2,691.406"/>
<path class="TimeSig" d="M365.2,740.01 L382,740.01 L382,747.31 L373.9,747.31 C373.1,747.31 372.5,747.91 372.5,748.71 L372.5,750.61 C372.5,751.41 373.1,751.91 373.9,751.91 L403.6,751.91 C404.4,751.91 405,751.41 405,750.61 L405,748.71 C405,747.91 404.4,747.31 403.6,747.31 L394.8,747.31 L394.8,740.01 L403.6,740.01 C404.4,740.01 405,739.41 405,738.61 L405,736.81 C405,736.01 404.4,735.41 403.6,735.41 L394.8,735.41 L394.8,719.71 C394.8,719.21 394.4,718.71 394,718.51 L392.9,717.91 C392.7,717.81 392.4,717.81 392.2,717.81 C391.9,717.81 391.5,717.91 391.3,718.11 L382.4,726.31 C382.2,726.51 382,727.01 382,727.31 L382,735.41 L370.7,735.41 C370.7,735.41 381.6,723.61 393.2,708.11 C394,707.01 393.6,706.01 393.4,705.81 L391.3,703.61 C391.1,703.41 390.6,703.21 390.3,703.21 L375.7,703.21 C375,703.21 374.5,703.81 374.4,704.41 C374.4,704.41 373.9,711.61 371.3,719.61 C368.7,727.61 365.9,732.41 363.3,736.01 C363.3,736.01 362.8,737.01 363.1,737.71 C363.4,738.41 364.1,739.51 364.1,739.51 C364.1,739.51 364.4,740.01 365.2,740.01"/>
<path class="Page" d="M222.584,4034.37 C221.054,4036.22 216.914,4037.61 212.774,4037.7 L212.774,4039.64 L216.734,4039.64 C219.344,4039.68 219.614,4039.95 219.524,4042.47 L219.524,4060.52 C219.524,4062.81 219.524,4062.9 219.254,4063.31 C218.894,4063.76 218.039,4063.94 215.519,4063.94 L212.594,4063.94 L212.594,4066.05 L230.414,4066.05 L230.414,4063.94 L227.939,4063.94 C225.419,4063.94 224.564,4063.76 224.204,4063.31 C223.889,4062.9 223.889,4062.86 223.889,4060.52 L223.889,4041.93 C223.889,4039.41 223.979,4037.3 224.204,4034.37 L222.584,4034.37 M251.289,4050.44 C250.749,4055.7 250.479,4057.28 249.669,4059.53 C248.499,4062.86 246.069,4064.79 243.009,4064.79 C241.524,4064.79 240.534,4064.34 240.534,4063.67 C240.534,4063.49 240.624,4063.26 240.804,4062.9 C241.299,4061.87 241.389,4061.55 241.389,4060.92 C241.389,4059.39 240.264,4058.27 238.734,4058.27 C237.024,4058.27 235.674,4059.71 235.674,4061.51 C235.674,4064.48 238.824,4066.73 242.964,4066.73 C247.059,4066.73 250.569,4064.88 252.774,4061.55 C254.979,4058.22 256.194,4053.9 256.194,4049.22 C256.194,4040.18 251.919,4034.37 245.169,4034.37 C239.364,4034.37 234.864,4039.14 234.864,4045.22 C234.864,4050.62 238.599,4054.53 243.774,4054.53 C246.969,4054.53 248.859,4053.5 251.289,4050.44 M245.349,4036.31 C248.679,4036.31 250.884,4039.59 250.884,4044.68 C250.884,4046.52 250.524,4048.19 249.849,4049.22 C248.814,4050.84 247.059,4051.83 245.124,4051.83 C241.704,4051.83 239.769,4049.18 239.769,4044.41 C239.769,4042.25 240.264,4040.13 241.119,4038.74 C242.154,4037.03 243.369,4036.31 245.349,4036.31"/>
<path class="Bracket" transform="matrix(3.62523,0,0,3.62523,214.469,1015.53)" d="M0.92002,-50 C2.69004,-51.88 6.2,-55.8 6.2,-63 C6.2,-72.1 2.25996,-81.32 2.25996,-86.97 C2.25996,-93.06 5.84004,-98.84 5.95,-99 C6.05996,-99.16 6.05,-99.39 5.94004,-99.46 C5.82998,-99.53 5.62002,-99.47 5.49004,-99.32 C5.35996,-99.17 0,-93.75 0,-85.6 C0,-76.75 3.5,-70.58 3.5,-59.07 C3.5,-56.89 2.55996,-53.36 0.1,-50.33 C-0.0799805,-50.17 -0.1,-49.89 0.0599609,-49.7 L0.0700195,-49.69 L0.1,-49.66 C2.55996,-46.63 3.5,-43.1 3.5,-40.92 C3.5,-29.4 0,-23.24 0,-14.39 C0,-6.25 5.35996,-0.8 5.49004,-0.659961 C5.62002,-0.52002 5.8,-0.42998 5.94004,-0.52002 C6.07998,-0.609961 6.07998,-0.77998 5.95,-0.97998 C5.82002,-1.17998 2.25996,-6.92002 2.25996,-13.01 C2.25996,-18.66 6.2,-27.9 6.2,-37 C6.2,-44.3 2.69004,-48.12 0.92002,-50"/>
</svg>