<?xml version="1.0" encoding="UTF-8" standalone="no"?>
<svg width="1000px" height="300px" viewBox="0 400 3040 900" xmlns="http://www.w3.org/2000/svg" xmlns:xlink="http://www.w3.org/1999/xlink" version="1.2" baseProfile="tiny">
 xmlns="http://www.w3.org/2000/svg" xmlns:xlink="http://www.w3.org/1999/xlink" version="1.2" baseProfile="tiny">
<title>exercises_scores (29)</title>
<desc>Generated by MuseScore 3.6.0</desc>
<polyline class="StaffLines" fill="none" stroke="#000000" stroke-width="2.75" stroke-linejoin="bevel" points="247.099,645.317 2764.63,645.317"/>
<polyline class="StaffLines" fill="none" stroke="#000000" stroke-width="2.75" stroke-linejoin="bevel" points="247.099,670.319 2764.63,670.319"/>
<polyline class="StaffLines" fill="none" stroke="#000000" stroke-width="2.75" stroke-linejoin="bevel" points="247.099,695.32 2764.63,695.32"/>
<polyline class="StaffLines" fill="none" stroke="#000000" stroke-width="2.75" stroke-linejoin="bevel" points="247.099,720.322 2764.63,720.322"/>
<polyline class="StaffLines" fill="none" stroke="#000000" stroke-width="2.75" stroke-linejoin="bevel" points="247.099,745.324 2764.63,745.324"/>
<polyline class="StaffLines" fill="none" stroke="#000000" stroke-width="2.75" stroke-linejoin="bevel" points="247.099,907.834 2764.63,907.834"/>
<polyline class="StaffLines" fill="none" stroke="#000000" stroke-width="2.75" stroke-linejoin="bevel" points="247.099,932.835 2764.63,932.835"/>
<polyline class="StaffLines" fill="none" stroke="#000000" stroke-width="2.75" stroke-linejoin="bevel" points="247.099,957.837 2764.63,957.837"/>
<polyline class="StaffLines" fill="none" stroke="#000000" stroke-width="2.75" stroke-linejoin="bevel" points="247.099,982.839 2764.63,982.839"/>
<polyline class="StaffLines" fill="none" stroke="#000000" stroke-width="2.75" stroke-linejoin="bevel" points="247.099,1007.84 2764.63,1007.84"/>
<path class="Text" d="M235.747,212.657 L233.227,212.657 L219.427,247.637 C217.807,252.317 216.247,253.757 212.827,253.997 L212.587,253.997 L212.587,256.817 L228.487,256.817 L228.487,253.997 L227.287,253.997 C224.047,253.997 222.427,252.857 222.427,250.577 C222.427,249.797 222.607,249.077 222.967,248.057 L224.947,242.777 L240.847,242.777 L244.087,250.817 C244.447,251.777 244.567,252.137 244.567,252.437 C244.567,253.397 243.067,253.997 240.847,253.997 L238.327,253.997 L238.327,256.817 L256.927,256.817 L256.927,253.997 L256.087,253.997 C252.967,253.937 252.427,253.577 251.047,250.157 L235.747,212.657 M232.807,222.497 L239.587,239.537 L226.147,239.537 L232.807,222.497 M285.052,212.597 L273.952,213.257 L273.952,215.837 L276.832,215.837 C279.112,215.897 279.412,216.257 279.412,218.837 L279.412,249.437 L279.412,250.877 L279.412,252.317 C279.352,253.157 279.292,253.517 279.052,253.817 C278.632,254.357 277.492,254.597 274.912,254.657 L274.672,254.657 L274.672,256.817 L289.852,256.817 L289.852,254.657 L289.612,254.657 C285.592,254.537 285.052,254.237 285.052,252.077 L285.052,249.437 L285.052,243.197 C285.052,240.257 285.472,237.557 286.132,236.177 C287.452,233.477 290.092,231.617 292.672,231.617 C294.232,231.617 296.032,232.517 296.872,233.717 C297.832,235.037 298.252,236.837 298.252,239.777 L298.252,249.437 L298.252,252.317 C298.192,253.157 298.132,253.517 297.892,253.817 C297.472,254.357 296.272,254.597 293.692,254.657 L293.452,254.657 L293.452,256.817 L308.632,256.817 L308.632,254.657 L308.392,254.657 C304.432,254.537 303.892,254.237 303.892,252.077 L303.892,249.437 L303.892,240.017 C303.892,235.697 303.712,234.617 302.632,232.577 C301.132,229.637 298.132,227.957 294.532,227.957 C290.632,227.957 287.752,229.697 285.052,233.717 L285.052,212.597 M336.828,237.497 C336.828,233.717 336.168,231.797 334.428,230.357 C332.448,228.737 329.508,227.957 325.668,227.957 C318.888,227.957 313.968,231.137 313.968,235.517 C313.968,237.737 315.348,239.177 317.448,239.177 C319.368,239.177 320.688,237.917 320.688,236.117 C320.688,235.337 320.388,234.497 319.788,233.657 C319.428,233.237 319.368,233.117 319.368,232.817 C319.368,231.617 321.768,230.537 324.648,230.537 C326.568,230.537 328.668,231.137 329.628,232.037 C330.768,232.997 331.188,234.437 331.188,237.137 L331.188,239.477 C324.948,240.557 322.968,241.037 320.028,242.177 C314.808,244.097 312.348,246.857 312.348,250.697 C312.348,255.017 315.708,257.717 321.048,257.717 C325.188,257.717 328.908,256.037 331.488,252.977 C332.448,256.037 333.948,257.237 336.768,257.237 C339.468,257.237 342.288,255.497 342.288,253.757 C342.288,253.337 342.048,253.037 341.688,253.037 C341.448,253.037 341.208,253.097 340.788,253.277 C339.948,253.637 339.588,253.697 339.108,253.697 C337.428,253.697 336.828,252.617 336.828,249.557 L336.828,237.497 M331.188,244.817 C331.188,248.417 331.008,249.257 329.988,250.817 C328.488,253.037 325.788,254.537 323.148,254.537 C320.388,254.537 318.408,252.557 318.408,249.857 C318.408,247.337 319.668,245.537 322.308,244.277 C324.168,243.437 326.508,242.837 331.188,242.057 L331.188,244.817 M354.947,228.857 L344.327,229.517 L344.327,232.097 L346.787,232.097 C349.067,232.157 349.367,232.517 349.367,235.097 L349.367,249.437 L349.367,252.257 C349.307,253.157 349.247,253.517 349.007,253.817 C348.587,254.357 347.387,254.597 344.807,254.657 L344.567,254.657 L344.567,256.817 L360.587,256.817 L360.587,254.657 L359.507,254.657 C355.487,254.537 354.947,254.237 354.947,252.077 L354.947,249.437 L354.947,248.837 C355.007,238.757 358.607,231.077 363.287,230.837 C362.447,231.797 362.207,232.397 362.207,233.537 C362.207,235.457 363.587,236.837 365.507,236.837 C367.727,236.837 369.167,235.217 369.167,232.817 C369.167,229.877 367.127,227.957 363.947,227.957 C360.167,227.957 356.927,230.957 354.947,236.297 L354.947,228.857 M382.768,228.857 L372.088,229.517 L372.088,232.097 L374.548,232.097 C376.828,232.157 377.128,232.517 377.128,235.097 L377.128,249.437 L377.128,251.777 L377.128,252.257 C377.068,253.157 377.008,253.517 376.768,253.817 C376.348,254.357 375.208,254.597 372.628,254.657 L372.388,254.657 L372.388,256.817 L387.508,256.817 L387.508,254.657 L387.268,254.657 C383.308,254.537 382.768,254.237 382.768,252.017 L382.768,249.437 L382.768,240.917 C382.768,235.577 385.708,231.617 389.608,231.617 C393.028,231.617 394.768,234.077 394.768,238.937 L394.768,249.437 L394.768,252.317 C394.708,253.097 394.648,253.517 394.348,253.817 C393.988,254.357 392.788,254.597 390.208,254.657 L389.968,254.657 L389.968,256.817 L405.148,256.817 L405.148,254.657 L404.908,254.657 C400.948,254.537 400.408,254.237 400.408,252.077 L400.408,249.437 L400.408,241.457 C400.408,235.457 403.108,231.617 407.308,231.617 C410.728,231.617 412.408,234.197 412.408,239.597 L412.408,249.437 L412.408,252.257 C412.348,253.097 412.288,253.517 411.988,253.817 C411.628,254.357 410.428,254.597 407.848,254.657 L407.608,254.657 L407.608,256.817 L422.788,256.817 L422.788,254.657 L422.548,254.657 C418.588,254.537 418.048,254.237 418.048,252.017 L418.048,249.437 L418.048,238.397 C418.048,234.677 417.688,233.417 416.128,231.377 C414.388,229.157 411.928,227.957 409.048,227.957 C405.148,227.957 402.268,229.817 399.688,233.957 C398.668,230.357 395.428,227.957 391.408,227.957 C387.748,227.957 385.108,229.697 382.768,233.477 L382.768,228.857 M439.156,227.957 C431.776,227.957 426.076,234.497 426.076,242.897 C426.076,251.117 431.836,257.717 439.036,257.717 C446.236,257.717 451.996,251.117 451.996,242.837 C451.996,234.617 446.236,227.957 439.156,227.957 M439.156,230.537 C443.356,230.537 445.696,234.917 445.696,242.837 C445.696,250.817 443.356,255.137 439.036,255.137 C434.716,255.137 432.376,250.817 432.376,242.897 C432.376,234.737 434.656,230.537 439.156,230.537 M466.036,228.857 L455.656,229.517 L455.656,232.097 L457.816,232.097 C460.096,232.157 460.396,232.517 460.396,235.097 L460.396,249.437 L460.396,250.877 L460.396,252.257 C460.336,253.157 460.276,253.517 460.036,253.817 C459.616,254.357 458.476,254.597 455.896,254.657 L455.656,254.657 L455.656,256.817 L470.836,256.817 L470.836,254.657 L470.596,254.657 C466.576,254.537 466.036,254.237 466.036,252.077 L466.036,249.437 L466.036,243.197 C466.036,240.257 466.456,237.557 467.116,236.177 C468.376,233.477 471.076,231.617 473.656,231.617 C475.216,231.617 477.016,232.457 477.916,233.717 C478.816,235.037 479.236,236.837 479.236,239.717 L479.236,249.437 L479.236,252.257 C479.176,253.157 479.116,253.517 478.876,253.817 C478.456,254.357 477.256,254.597 474.676,254.657 L474.436,254.657 L474.436,256.817 L489.616,256.817 L489.616,254.657 L489.376,254.657 C485.416,254.537 484.876,254.237 484.876,252.077 L484.876,249.437 L484.876,240.017 C484.876,235.697 484.696,234.617 483.616,232.577 C482.116,229.697 479.116,227.957 475.516,227.957 C471.616,227.957 468.676,229.757 466.036,233.717 L466.036,228.857 M503.052,228.857 L491.772,229.517 L491.772,232.097 L494.832,232.097 C497.112,232.157 497.412,232.517 497.412,235.097 L497.412,249.437 L497.412,252.257 C497.352,253.157 497.292,253.517 497.052,253.817 C496.632,254.357 495.492,254.597 492.912,254.657 L492.492,254.657 L492.492,256.817 L508.032,256.817 L508.032,254.657 L507.612,254.657 C503.592,254.537 503.052,254.237 503.052,252.077 L503.052,249.437 L503.052,228.857 M500.232,213.917 C498.312,213.917 496.752,215.477 496.752,217.397 C496.752,219.317 498.312,220.877 500.172,220.877 C502.152,220.877 503.712,219.317 503.712,217.397 C503.712,215.477 502.152,213.917 500.232,213.917 M532.803,247.997 C530.883,252.317 528.843,254.057 525.723,254.057 C520.923,254.057 517.923,249.677 517.923,242.657 C517.923,235.337 520.863,230.537 525.303,230.537 C527.103,230.537 528.663,231.377 528.663,232.337 C528.663,232.517 528.603,232.697 528.303,233.057 C527.343,234.197 527.103,234.797 527.103,235.817 C527.103,237.797 528.603,239.177 530.703,239.177 C532.863,239.177 534.363,237.497 534.363,235.097 C534.363,231.017 530.343,227.957 525.003,227.957 C517.203,227.957 511.623,234.317 511.623,243.317 C511.623,251.837 516.723,257.717 524.163,257.717 C529.503,257.717 532.563,255.257 535.143,248.897 L532.803,247.997 M564.94,228.857 L554.26,229.517 L554.26,232.097 L556.72,232.097 C559,232.157 559.3,232.517 559.3,235.097 L559.3,249.437 L559.3,251.777 L559.3,252.257 C559.24,253.157 559.18,253.517 558.94,253.817 C558.52,254.357 557.38,254.597 554.8,254.657 L554.56,254.657 L554.56,256.817 L569.68,256.817 L569.68,254.657 L569.44,254.657 C565.48,254.537 564.94,254.237 564.94,252.017 L564.94,249.437 L564.94,240.917 C564.94,235.577 567.88,231.617 571.78,231.617 C575.2,231.617 576.94,234.077 576.94,238.937 L576.94,249.437 L576.94,252.317 C576.88,253.097 576.82,253.517 576.52,253.817 C576.16,254.357 574.96,254.597 572.38,254.657 L572.14,254.657 L572.14,256.817 L587.32,256.817 L587.32,254.657 L587.08,254.657 C583.12,254.537 582.58,254.237 582.58,252.077 L582.58,249.437 L582.58,241.457 C582.58,235.457 585.28,231.617 589.48,231.617 C592.9,231.617 594.58,234.197 594.58,239.597 L594.58,249.437 L594.58,252.257 C594.52,253.097 594.46,253.517 594.16,253.817 C593.8,254.357 592.6,254.597 590.02,254.657 L589.78,254.657 L589.78,256.817 L604.96,256.817 L604.96,254.657 L604.72,254.657 C600.76,254.537 600.22,254.237 600.22,252.017 L600.22,249.437 L600.22,238.397 C600.22,234.677 599.86,233.417 598.3,231.377 C596.56,229.157 594.1,227.957 591.22,227.957 C587.32,227.957 584.44,229.817 581.86,233.957 C580.84,230.357 577.6,227.957 573.58,227.957 C569.92,227.957 567.28,229.697 564.94,233.477 L564.94,228.857 M618.568,228.857 L607.288,229.517 L607.288,232.097 L610.348,232.097 C612.628,232.157 612.928,232.517 612.928,235.097 L612.928,249.437 L612.928,252.257 C612.868,253.157 612.808,253.517 612.568,253.817 C612.148,254.357 611.008,254.597 608.428,254.657 L608.008,254.657 L608.008,256.817 L623.548,256.817 L623.548,254.657 L623.128,254.657 C619.108,254.537 618.568,254.237 618.568,252.077 L618.568,249.437 L618.568,228.857 M615.748,213.917 C613.828,213.917 612.268,215.477 612.268,217.397 C612.268,219.317 613.828,220.877 615.688,220.877 C617.668,220.877 619.228,219.317 619.228,217.397 C619.228,215.477 617.668,213.917 615.748,213.917 M637.098,228.857 L626.718,229.517 L626.718,232.097 L628.878,232.097 C631.158,232.157 631.458,232.517 631.458,235.097 L631.458,249.437 L631.458,250.877 L631.458,252.257 C631.398,253.157 631.338,253.517 631.098,253.817 C630.678,254.357 629.538,254.597 626.958,254.657 L626.718,254.657 L626.718,256.817 L641.898,256.817 L641.898,254.657 L641.658,254.657 C637.638,254.537 637.098,254.237 637.098,252.077 L637.098,249.437 L637.098,243.197 C637.098,240.257 637.518,237.557 638.178,236.177 C639.438,233.477 642.138,231.617 644.718,231.617 C646.278,231.617 648.078,232.457 648.978,233.717 C649.878,235.037 650.298,236.837 650.298,239.717 L650.298,249.437 L650.298,252.257 C650.238,253.157 650.178,253.517 649.938,253.817 C649.518,254.357 648.318,254.597 645.738,254.657 L645.498,254.657 L645.498,256.817 L660.678,256.817 L660.678,254.657 L660.438,254.657 C656.478,254.537 655.938,254.237 655.938,252.077 L655.938,249.437 L655.938,240.017 C655.938,235.697 655.758,234.617 654.678,232.577 C653.178,229.697 650.178,227.957 646.578,227.957 C642.678,227.957 639.738,229.757 637.098,233.717 L637.098,228.857 M676.875,227.957 C669.495,227.957 663.795,234.497 663.795,242.897 C663.795,251.117 669.555,257.717 676.755,257.717 C683.955,257.717 689.715,251.117 689.715,242.837 C689.715,234.617 683.955,227.957 676.875,227.957 M676.875,230.537 C681.075,230.537 683.415,234.917 683.415,242.837 C683.415,250.817 681.075,255.137 676.755,255.137 C672.435,255.137 670.095,250.817 670.095,242.897 C670.095,234.737 672.375,230.537 676.875,230.537 M703.635,228.857 L693.015,229.517 L693.015,232.097 L695.475,232.097 C697.755,232.157 698.055,232.517 698.055,235.097 L698.055,249.437 L698.055,252.257 C697.995,253.157 697.935,253.517 697.695,253.817 C697.275,254.357 696.075,254.597 693.495,254.657 L693.255,254.657 L693.255,256.817 L709.275,256.817 L709.275,254.657 L708.195,254.657 C704.175,254.537 703.635,254.237 703.635,252.077 L703.635,249.437 L703.635,248.837 C703.695,238.757 707.295,231.077 711.975,230.837 C711.135,231.797 710.895,232.397 710.895,233.537 C710.895,235.457 712.275,236.837 714.195,236.837 C716.415,236.837 717.855,235.217 717.855,232.817 C717.855,229.877 715.815,227.957 712.635,227.957 C708.855,227.957 705.615,230.957 703.635,236.297 L703.635,228.857 "/>
<polyline class="BarLine" fill="none" stroke="#000000" stroke-width="4.50" stroke-linejoin="bevel" points="249.349,906.459 249.349,1009.22"/>
<polyline class="BarLine" fill="none" stroke="#000000" stroke-width="4.50" stroke-linejoin="bevel" points="1027.21,906.459 1027.21,1009.22"/>
<polyline class="BarLine" fill="none" stroke="#000000" stroke-width="4.50" stroke-linejoin="bevel" points="1616.3,906.459 1616.3,1009.22"/>
<polyline class="BarLine" fill="none" stroke="#000000" stroke-width="4.50" stroke-linejoin="bevel" points="2181.91,906.459 2181.91,1009.22"/>
<polyline class="BarLine" fill="none" stroke="#000000" stroke-width="4.50" stroke-linejoin="bevel" points="2734.88,906.459 2734.88,1009.22"/>
<polyline class="BarLine" fill="none" stroke="#000000" stroke-width="13.75" stroke-linejoin="bevel" points="2757.75,906.459 2757.75,1009.22"/>
<polyline class="BarLine" fill="none" stroke="#000000" stroke-width="4.50" stroke-linejoin="bevel" points="249.349,643.942 249.349,907.834"/>
<polyline class="BarLine" fill="none" stroke="#000000" stroke-width="4.50" stroke-linejoin="bevel" points="1027.21,643.942 1027.21,907.834"/>
<polyline class="BarLine" fill="none" stroke="#000000" stroke-width="4.50" stroke-linejoin="bevel" points="1616.3,643.942 1616.3,907.834"/>
<polyline class="BarLine" fill="none" stroke="#000000" stroke-width="4.50" stroke-linejoin="bevel" points="2181.91,643.942 2181.91,907.834"/>
<polyline class="BarLine" fill="none" stroke="#000000" stroke-width="4.50" stroke-linejoin="bevel" points="2734.88,643.942 2734.88,907.834"/>
<polyline class="BarLine" fill="none" stroke="#000000" stroke-width="13.75" stroke-linejoin="bevel" points="2757.75,643.942 2757.75,907.834"/>
<path class="Accidental" d="M1330.66,909.735 C1331.26,909.635 1331.76,908.935 1331.76,908.335 L1331.76,902.435 C1331.76,901.635 1331.16,901.035 1330.36,901.035 L1330.16,901.035 L1326.86,901.735 L1326.86,886.835 L1324.06,886.835 L1324.06,902.335 L1315.16,904.135 L1315.16,890.035 L1312.36,890.035 L1312.36,904.735 L1308.46,905.535 C1307.86,905.635 1307.36,906.335 1307.36,906.935 L1307.36,907.135 L1307.36,912.935 L1307.36,912.735 C1307.36,913.535 1307.96,914.135 1308.76,914.135 L1309.06,914.135 L1312.36,913.435 L1312.36,929.935 L1308.46,930.735 C1307.86,930.835 1307.36,931.535 1307.36,932.135 L1307.36,937.935 C1307.36,938.735 1307.96,939.335 1308.76,939.335 L1309.06,939.335 L1312.36,938.635 L1312.36,953.535 L1315.16,953.535 L1315.16,938.035 L1324.06,936.235 L1324.06,950.335 L1326.86,950.335 L1326.86,935.635 L1330.66,934.935 C1331.26,934.835 1331.76,934.135 1331.76,933.535 L1331.76,927.635 C1331.76,926.835 1331.16,926.235 1330.36,926.235 L1330.16,926.235 L1326.86,926.935 L1326.86,910.435 L1330.66,909.735 M1315.16,929.435 L1315.16,912.835 L1324.06,911.035 L1324.06,927.535 L1315.16,929.435 "/>
<path class="Accidental" d="M1663.6,909.735 C1664.2,909.635 1664.7,908.935 1664.7,908.335 L1664.7,902.435 C1664.7,901.635 1664.1,901.035 1663.3,901.035 L1663.1,901.035 L1659.8,901.735 L1659.8,886.835 L1657,886.835 L1657,902.335 L1648.1,904.135 L1648.1,890.035 L1645.3,890.035 L1645.3,904.735 L1641.4,905.535 C1640.8,905.635 1640.3,906.335 1640.3,906.935 L1640.3,907.135 L1640.3,912.935 L1640.3,912.735 C1640.3,913.535 1640.9,914.135 1641.7,914.135 L1642,914.135 L1645.3,913.435 L1645.3,929.935 L1641.4,930.735 C1640.8,930.835 1640.3,931.535 1640.3,932.135 L1640.3,937.935 C1640.3,938.735 1640.9,939.335 1641.7,939.335 L1642,939.335 L1645.3,938.635 L1645.3,953.535 L1648.1,953.535 L1648.1,938.035 L1657,936.235 L1657,950.335 L1659.8,950.335 L1659.8,935.635 L1663.6,934.935 C1664.2,934.835 1664.7,934.135 1664.7,933.535 L1664.7,927.635 C1664.7,926.835 1664.1,926.235 1663.3,926.235 L1663.1,926.235 L1659.8,926.935 L1659.8,910.435 L1663.6,909.735 M1648.1,929.435 L1648.1,912.835 L1657,911.035 L1657,927.535 L1648.1,929.435 "/>
<path class="Accidental" d="M1330.66,709.722 C1331.26,709.622 1331.76,708.922 1331.76,708.322 L1331.76,702.422 C1331.76,701.622 1331.16,701.022 1330.36,701.022 L1330.16,701.022 L1326.86,701.722 L1326.86,686.822 L1324.06,686.822 L1324.06,702.322 L1315.16,704.122 L1315.16,690.022 L1312.36,690.022 L1312.36,704.722 L1308.46,705.522 C1307.86,705.622 1307.36,706.322 1307.36,706.922 L1307.36,707.122 L1307.36,712.922 L1307.36,712.722 C1307.36,713.522 1307.96,714.122 1308.76,714.122 L1309.06,714.122 L1312.36,713.422 L1312.36,729.922 L1308.46,730.722 C1307.86,730.822 1307.36,731.522 1307.36,732.122 L1307.36,737.922 C1307.36,738.722 1307.96,739.322 1308.76,739.322 L1309.06,739.322 L1312.36,738.622 L1312.36,753.522 L1315.16,753.522 L1315.16,738.022 L1324.06,736.222 L1324.06,750.322 L1326.86,750.322 L1326.86,735.622 L1330.66,734.922 C1331.26,734.822 1331.76,734.122 1331.76,733.522 L1331.76,727.622 C1331.76,726.822 1331.16,726.222 1330.36,726.222 L1330.16,726.222 L1326.86,726.922 L1326.86,710.422 L1330.66,709.722 M1315.16,729.422 L1315.16,712.822 L1324.06,711.022 L1324.06,727.522 L1315.16,729.422 "/>
<path class="Accidental" d="M1663.6,709.722 C1664.2,709.622 1664.7,708.922 1664.7,708.322 L1664.7,702.422 C1664.7,701.622 1664.1,701.022 1663.3,701.022 L1663.1,701.022 L1659.8,701.722 L1659.8,686.822 L1657,686.822 L1657,702.322 L1648.1,704.122 L1648.1,690.022 L1645.3,690.022 L1645.3,704.722 L1641.4,705.522 C1640.8,705.622 1640.3,706.322 1640.3,706.922 L1640.3,707.122 L1640.3,712.922 L1640.3,712.722 C1640.3,713.522 1640.9,714.122 1641.7,714.122 L1642,714.122 L1645.3,713.422 L1645.3,729.922 L1641.4,730.722 C1640.8,730.822 1640.3,731.522 1640.3,732.122 L1640.3,737.922 C1640.3,738.722 1640.9,739.322 1641.7,739.322 L1642,739.322 L1645.3,738.622 L1645.3,753.522 L1648.1,753.522 L1648.1,738.022 L1657,736.222 L1657,750.322 L1659.8,750.322 L1659.8,735.622 L1663.6,734.922 C1664.2,734.822 1664.7,734.122 1664.7,733.522 L1664.7,727.622 C1664.7,726.822 1664.1,726.222 1663.3,726.222 L1663.1,726.222 L1659.8,726.922 L1659.8,710.422 L1663.6,709.722 M1648.1,729.422 L1648.1,712.822 L1657,711.022 L1657,727.522 L1648.1,729.422 "/>
<polyline class="LedgerLine" fill="none" stroke="#000000" stroke-width="4.00" stroke-linejoin="bevel" points="455.002,795.327 504.998,795.327"/>
<polyline class="LedgerLine" fill="none" stroke="#000000" stroke-width="4.00" stroke-linejoin="bevel" points="455.002,770.325 504.998,770.325"/>
<polyline class="LedgerLine" fill="none" stroke="#000000" stroke-width="4.00" stroke-linejoin="bevel" points="595.305,770.325 645.3,770.325"/>
<polyline class="LedgerLine" fill="none" stroke="#000000" stroke-width="4.00" stroke-linejoin="bevel" points="735.607,770.325 785.602,770.325"/>
<polyline class="LedgerLine" fill="none" stroke="#000000" stroke-width="4.00" stroke-linejoin="bevel" points="2216.66,770.325 2266.66,770.325"/>
<polyline class="LedgerLine" fill="none" stroke="#000000" stroke-width="4.00" stroke-linejoin="bevel" points="2357.56,770.325 2407.55,770.325"/>
<polyline class="LedgerLine" fill="none" stroke="#000000" stroke-width="4.00" stroke-linejoin="bevel" points="2498.45,795.327 2548.44,795.327"/>
<polyline class="LedgerLine" fill="none" stroke="#000000" stroke-width="4.00" stroke-linejoin="bevel" points="2498.45,770.325 2548.44,770.325"/>
<polyline class="Stem" fill="none" stroke="#000000" stroke-width="2.75" stroke-linejoin="bevel" points="494.872,991.979 494.872,907.834"/>
<polyline class="Stem" fill="none" stroke="#000000" stroke-width="2.75" stroke-linejoin="bevel" points="635.174,979.478 635.174,898.458"/>
<polyline class="Stem" fill="none" stroke="#000000" stroke-width="2.75" stroke-linejoin="bevel" points="775.477,966.978 775.477,889.083"/>
<polyline class="Stem" fill="none" stroke="#000000" stroke-width="2.75" stroke-linejoin="bevel" points="886.035,961.357 886.035,1035.97"/>
<polyline class="Stem" fill="none" stroke="#000000" stroke-width="2.75" stroke-linejoin="bevel" points="1063.34,948.856 1063.34,1026.59"/>
<polyline class="Stem" fill="none" stroke="#000000" stroke-width="2.75" stroke-linejoin="bevel" points="1201.36,936.356 1201.36,1017.22"/>
<polyline class="Stem" fill="none" stroke="#000000" stroke-width="2.75" stroke-linejoin="bevel" points="1339.38,923.855 1339.38,1007.84"/>
<polyline class="Stem" fill="none" stroke="#000000" stroke-width="2.75" stroke-linejoin="bevel" points="1477.4,911.354 1477.4,995.339"/>
<polyline class="Stem" fill="none" stroke="#000000" stroke-width="2.75" stroke-linejoin="bevel" points="1672.33,923.855 1672.33,1007.84"/>
<polyline class="Stem" fill="none" stroke="#000000" stroke-width="2.75" stroke-linejoin="bevel" points="1799.51,936.356 1799.51,1017.22"/>
<polyline class="Stem" fill="none" stroke="#000000" stroke-width="2.75" stroke-linejoin="bevel" points="1926.68,948.856 1926.68,1026.59"/>
<polyline class="Stem" fill="none" stroke="#000000" stroke-width="2.75" stroke-linejoin="bevel" points="2053.86,961.357 2053.86,1035.97"/>
<polyline class="Stem" fill="none" stroke="#000000" stroke-width="2.75" stroke-linejoin="bevel" points="2256.53,966.978 2256.53,889.083"/>
<polyline class="Stem" fill="none" stroke="#000000" stroke-width="2.75" stroke-linejoin="bevel" points="2397.42,979.478 2397.42,898.458"/>
<polyline class="Stem" fill="none" stroke="#000000" stroke-width="2.75" stroke-linejoin="bevel" points="2538.32,991.899 2538.32,907.834"/>
<polyline class="Stem" fill="none" stroke="#000000" stroke-width="2.75" stroke-linejoin="bevel" points="494.872,791.966 494.872,695.32"/>
<polyline class="Stem" fill="none" stroke="#000000" stroke-width="2.75" stroke-linejoin="bevel" points="635.174,779.466 635.174,695.32"/>
<polyline class="Stem" fill="none" stroke="#000000" stroke-width="2.75" stroke-linejoin="bevel" points="775.477,766.965 775.477,682.82"/>
<polyline class="Stem" fill="none" stroke="#000000" stroke-width="2.75" stroke-linejoin="bevel" points="915.779,754.464 915.779,670.319"/>
<polyline class="Stem" fill="none" stroke="#000000" stroke-width="2.75" stroke-linejoin="bevel" points="1093.08,741.963 1093.08,657.818"/>
<polyline class="Stem" fill="none" stroke="#000000" stroke-width="2.75" stroke-linejoin="bevel" points="1231.11,729.463 1231.11,645.317"/>
<polyline class="Stem" fill="none" stroke="#000000" stroke-width="2.75" stroke-linejoin="bevel" points="1369.13,716.962 1369.13,635.942"/>
<polyline class="Stem" fill="none" stroke="#000000" stroke-width="2.75" stroke-linejoin="bevel" points="1507.15,704.461 1507.15,626.566"/>
<polyline class="Stem" fill="none" stroke="#000000" stroke-width="2.75" stroke-linejoin="bevel" points="1702.07,716.962 1702.07,635.942"/>
<polyline class="Stem" fill="none" stroke="#000000" stroke-width="2.75" stroke-linejoin="bevel" points="1829.25,729.463 1829.25,645.317"/>
<polyline class="Stem" fill="none" stroke="#000000" stroke-width="2.75" stroke-linejoin="bevel" points="1956.43,741.963 1956.43,657.818"/>
<polyline class="Stem" fill="none" stroke="#000000" stroke-width="2.75" stroke-linejoin="bevel" points="2083.6,754.464 2083.6,670.319"/>
<polyline class="Stem" fill="none" stroke="#000000" stroke-width="2.75" stroke-linejoin="bevel" points="2256.53,766.965 2256.53,682.82"/>
<polyline class="Stem" fill="none" stroke="#000000" stroke-width="2.75" stroke-linejoin="bevel" points="2397.42,779.466 2397.42,695.32"/>
<polyline class="Stem" fill="none" stroke="#000000" stroke-width="2.75" stroke-linejoin="bevel" points="2538.32,791.886 2538.32,695.32"/>
<path class="Note" d="M495.253,987.139 C493.753,984.439 490.853,982.739 486.953,982.339 C486.353,982.239 485.853,982.239 485.253,982.239 C481.753,982.239 477.953,983.239 474.453,985.139 C467.853,988.739 463.753,994.639 463.753,999.739 C463.753,1001.14 463.953,1002.44 464.653,1003.64 C466.153,1006.34 469.153,1008.04 473.053,1008.44 C473.653,1008.54 474.153,1008.54 474.753,1008.54 C478.253,1008.54 481.953,1007.54 485.453,1005.64 C492.053,1002.04 496.253,996.239 496.253,991.139 C496.253,989.739 495.953,988.339 495.253,987.139"/>
<path class="Note" d="M635.555,974.639 C634.055,971.939 631.155,970.239 627.255,969.839 C626.655,969.739 626.155,969.739 625.555,969.739 C622.055,969.739 618.255,970.739 614.755,972.639 C608.155,976.239 604.055,982.139 604.055,987.239 C604.055,988.639 604.255,989.939 604.955,991.139 C606.455,993.839 609.455,995.539 613.355,995.939 C613.955,996.039 614.455,996.039 615.055,996.039 C618.555,996.039 622.255,995.039 625.755,993.139 C632.355,989.539 636.555,983.739 636.555,978.639 C636.555,977.239 636.255,975.839 635.555,974.639"/>
<path class="Note" d="M775.858,962.138 C774.358,959.438 771.458,957.738 767.558,957.338 C766.958,957.238 766.458,957.238 765.858,957.238 C762.358,957.238 758.558,958.238 755.058,960.138 C748.458,963.738 744.358,969.638 744.358,974.738 C744.358,976.138 744.558,977.438 745.258,978.638 C746.758,981.338 749.758,983.038 753.658,983.438 C754.258,983.538 754.758,983.538 755.358,983.538 C758.858,983.538 762.558,982.538 766.058,980.638 C772.658,977.038 776.858,971.238 776.858,966.138 C776.858,964.738 776.558,963.338 775.858,962.138"/>
<path class="Note" d="M916.16,949.637 C914.66,946.937 911.76,945.237 907.86,944.837 C907.26,944.737 906.76,944.737 906.16,944.737 C902.66,944.737 898.86,945.737 895.36,947.637 C888.76,951.237 884.66,957.137 884.66,962.237 C884.66,963.637 884.86,964.937 885.56,966.137 C887.06,968.837 890.06,970.537 893.96,970.937 C894.56,971.037 895.06,971.037 895.66,971.037 C899.16,971.037 902.86,970.037 906.36,968.137 C912.96,964.537 917.16,958.737 917.16,953.637 C917.16,952.237 916.86,950.837 916.16,949.637"/>
<path class="Note" d="M1093.46,937.136 C1091.96,934.436 1089.06,932.736 1085.16,932.336 C1084.56,932.236 1084.06,932.236 1083.46,932.236 C1079.96,932.236 1076.16,933.236 1072.66,935.136 C1066.06,938.736 1061.96,944.636 1061.96,949.736 C1061.96,951.136 1062.16,952.436 1062.86,953.636 C1064.36,956.336 1067.36,958.036 1071.26,958.436 C1071.86,958.536 1072.36,958.536 1072.96,958.536 C1076.46,958.536 1080.16,957.536 1083.66,955.636 C1090.26,952.036 1094.46,946.236 1094.46,941.136 C1094.46,939.736 1094.16,938.336 1093.46,937.136"/>
<path class="Note" d="M1231.49,924.635 C1229.99,921.935 1227.09,920.235 1223.19,919.835 C1222.59,919.735 1222.09,919.735 1221.49,919.735 C1217.99,919.735 1214.19,920.735 1210.69,922.635 C1204.09,926.235 1199.99,932.135 1199.99,937.235 C1199.99,938.635 1200.19,939.935 1200.89,941.135 C1202.39,943.835 1205.39,945.535 1209.29,945.935 C1209.89,946.035 1210.39,946.035 1210.99,946.035 C1214.49,946.035 1218.19,945.035 1221.69,943.135 C1228.29,939.535 1232.49,933.735 1232.49,928.635 C1232.49,927.235 1232.19,925.835 1231.49,924.635"/>
<path class="Note" d="M1369.51,912.135 C1368.01,909.435 1365.11,907.735 1361.21,907.335 C1360.61,907.235 1360.11,907.235 1359.51,907.235 C1356.01,907.235 1352.21,908.235 1348.71,910.135 C1342.11,913.735 1338.01,919.635 1338.01,924.735 C1338.01,926.135 1338.21,927.435 1338.91,928.635 C1340.41,931.335 1343.41,933.035 1347.31,933.435 C1347.91,933.535 1348.41,933.535 1349.01,933.535 C1352.51,933.535 1356.21,932.535 1359.71,930.635 C1366.31,927.035 1370.51,921.235 1370.51,916.135 C1370.51,914.735 1370.21,913.335 1369.51,912.135"/>
<path class="Note" d="M1507.53,899.634 C1506.03,896.934 1503.13,895.234 1499.23,894.834 C1498.63,894.734 1498.13,894.734 1497.53,894.734 C1494.03,894.734 1490.23,895.734 1486.73,897.634 C1480.13,901.234 1476.03,907.134 1476.03,912.234 C1476.03,913.634 1476.23,914.934 1476.93,916.134 C1478.43,918.834 1481.43,920.534 1485.33,920.934 C1485.93,921.034 1486.43,921.034 1487.03,921.034 C1490.53,921.034 1494.23,920.034 1497.73,918.134 C1504.33,914.534 1508.53,908.734 1508.53,903.634 C1508.53,902.234 1508.23,900.834 1507.53,899.634"/>
<path class="Note" d="M1702.45,912.135 C1700.95,909.435 1698.05,907.735 1694.15,907.335 C1693.55,907.235 1693.05,907.235 1692.45,907.235 C1688.95,907.235 1685.15,908.235 1681.65,910.135 C1675.05,913.735 1670.95,919.635 1670.95,924.735 C1670.95,926.135 1671.15,927.435 1671.85,928.635 C1673.35,931.335 1676.35,933.035 1680.25,933.435 C1680.85,933.535 1681.35,933.535 1681.95,933.535 C1685.45,933.535 1689.15,932.535 1692.65,930.635 C1699.25,927.035 1703.45,921.235 1703.45,916.135 C1703.45,914.735 1703.15,913.335 1702.45,912.135"/>
<path class="Note" d="M1829.63,924.635 C1828.13,921.935 1825.23,920.235 1821.33,919.835 C1820.73,919.735 1820.23,919.735 1819.63,919.735 C1816.13,919.735 1812.33,920.735 1808.83,922.635 C1802.23,926.235 1798.13,932.135 1798.13,937.235 C1798.13,938.635 1798.33,939.935 1799.03,941.135 C1800.53,943.835 1803.53,945.535 1807.43,945.935 C1808.03,946.035 1808.53,946.035 1809.13,946.035 C1812.63,946.035 1816.33,945.035 1819.83,943.135 C1826.43,939.535 1830.63,933.735 1830.63,928.635 C1830.63,927.235 1830.33,925.835 1829.63,924.635"/>
<path class="Note" d="M1956.81,937.136 C1955.31,934.436 1952.41,932.736 1948.51,932.336 C1947.91,932.236 1947.41,932.236 1946.81,932.236 C1943.31,932.236 1939.51,933.236 1936.01,935.136 C1929.41,938.736 1925.31,944.636 1925.31,949.736 C1925.31,951.136 1925.51,952.436 1926.21,953.636 C1927.71,956.336 1930.71,958.036 1934.61,958.436 C1935.21,958.536 1935.71,958.536 1936.31,958.536 C1939.81,958.536 1943.51,957.536 1947.01,955.636 C1953.61,952.036 1957.81,946.236 1957.81,941.136 C1957.81,939.736 1957.51,938.336 1956.81,937.136"/>
<path class="Note" d="M2083.98,949.637 C2082.48,946.937 2079.58,945.237 2075.68,944.837 C2075.08,944.737 2074.58,944.737 2073.98,944.737 C2070.48,944.737 2066.68,945.737 2063.18,947.637 C2056.58,951.237 2052.48,957.137 2052.48,962.237 C2052.48,963.637 2052.68,964.937 2053.38,966.137 C2054.88,968.837 2057.88,970.537 2061.78,970.937 C2062.38,971.037 2062.88,971.037 2063.48,971.037 C2066.98,971.037 2070.68,970.037 2074.18,968.137 C2080.78,964.537 2084.98,958.737 2084.98,953.637 C2084.98,952.237 2084.68,950.837 2083.98,949.637"/>
<path class="Note" d="M2256.91,962.138 C2255.41,959.438 2252.51,957.738 2248.61,957.338 C2248.01,957.238 2247.51,957.238 2246.91,957.238 C2243.41,957.238 2239.61,958.238 2236.11,960.138 C2229.51,963.738 2225.41,969.638 2225.41,974.738 C2225.41,976.138 2225.61,977.438 2226.31,978.638 C2227.81,981.338 2230.81,983.038 2234.71,983.438 C2235.31,983.538 2235.81,983.538 2236.41,983.538 C2239.91,983.538 2243.61,982.538 2247.11,980.638 C2253.71,977.038 2257.91,971.238 2257.91,966.138 C2257.91,964.738 2257.61,963.338 2256.91,962.138"/>
<path class="Note" d="M2397.81,974.639 C2396.31,971.939 2393.41,970.239 2389.51,969.839 C2388.91,969.739 2388.41,969.739 2387.81,969.739 C2384.31,969.739 2380.51,970.739 2377.01,972.639 C2370.41,976.239 2366.31,982.139 2366.31,987.239 C2366.31,988.639 2366.51,989.939 2367.21,991.139 C2368.71,993.839 2371.71,995.539 2375.61,995.939 C2376.21,996.039 2376.71,996.039 2377.31,996.039 C2380.81,996.039 2384.51,995.039 2388.01,993.139 C2394.61,989.539 2398.81,983.739 2398.81,978.639 C2398.81,977.239 2398.51,975.839 2397.81,974.639"/>
<path class="Note" d="M2538.7,987.139 C2537.2,984.439 2534.3,982.739 2530.4,982.339 C2529.8,982.239 2529.3,982.239 2528.7,982.239 C2525.2,982.239 2521.4,983.239 2517.9,985.139 C2511.3,988.739 2507.2,994.539 2507.2,999.639 C2507.2,1001.04 2507.6,1002.44 2508.3,1003.64 C2509.8,1006.44 2512.6,1008.04 2516.5,1008.44 C2517.1,1008.54 2517.6,1008.54 2518.2,1008.54 C2521.7,1008.54 2525.5,1007.54 2529,1005.64 C2535.6,1002.04 2539.7,996.139 2539.7,991.039 C2539.7,989.639 2539.4,988.339 2538.7,987.139 M2534.5,993.439 C2532.8,995.239 2529.6,997.539 2526,999.639 C2522.4,1001.74 2518.7,1003.44 2516.4,1004.14 C2515.9,1004.24 2515.3,1004.34 2514.8,1004.34 C2513.3,1004.34 2512,1003.64 2511.3,1002.54 C2511,1001.94 2510.8,1001.34 2510.8,1000.74 C2510.8,999.639 2511.3,998.539 2512.4,997.339 C2514.1,995.539 2517.3,993.139 2520.9,991.039 C2524.5,988.939 2528.2,987.239 2530.6,986.639 L2530.8,986.639 C2531.4,986.439 2531.9,986.339 2532.4,986.339 C2533.8,986.339 2534.9,986.939 2535.6,988.239 C2535.9,988.839 2536.1,989.339 2536.1,989.939 C2536.1,991.239 2535.4,992.539 2534.5,993.439"/>
<path class="Note" d="M495.253,787.127 C493.753,784.427 490.853,782.727 486.953,782.327 C486.353,782.227 485.853,782.227 485.253,782.227 C481.753,782.227 477.953,783.227 474.453,785.127 C467.853,788.727 463.753,794.627 463.753,799.727 C463.753,801.127 463.953,802.427 464.653,803.627 C466.153,806.327 469.153,808.027 473.053,808.427 C473.653,808.527 474.153,808.527 474.753,808.527 C478.253,808.527 481.953,807.527 485.453,805.627 C492.053,802.027 496.253,796.227 496.253,791.127 C496.253,789.727 495.953,788.327 495.253,787.127"/>
<path class="Note" d="M635.555,774.626 C634.055,771.926 631.155,770.226 627.255,769.826 C626.655,769.726 626.155,769.726 625.555,769.726 C622.055,769.726 618.255,770.726 614.755,772.626 C608.155,776.226 604.055,782.126 604.055,787.226 C604.055,788.626 604.255,789.926 604.955,791.126 C606.455,793.826 609.455,795.526 613.355,795.926 C613.955,796.026 614.455,796.026 615.055,796.026 C618.555,796.026 622.255,795.026 625.755,793.126 C632.355,789.526 636.555,783.726 636.555,778.626 C636.555,777.226 636.255,775.826 635.555,774.626"/>
<path class="Note" d="M775.858,762.125 C774.358,759.425 771.458,757.725 767.558,757.325 C766.958,757.225 766.458,757.225 765.858,757.225 C762.358,757.225 758.558,758.225 755.058,760.125 C748.458,763.725 744.358,769.625 744.358,774.725 C744.358,776.125 744.558,777.425 745.258,778.625 C746.758,781.325 749.758,783.025 753.658,783.425 C754.258,783.525 754.758,783.525 755.358,783.525 C758.858,783.525 762.558,782.525 766.058,780.625 C772.658,777.025 776.858,771.225 776.858,766.125 C776.858,764.725 776.558,763.325 775.858,762.125"/>
<path class="Note" d="M916.16,749.624 C914.66,746.924 911.76,745.224 907.86,744.824 C907.26,744.724 906.76,744.724 906.16,744.724 C902.66,744.724 898.86,745.724 895.36,747.624 C888.76,751.224 884.66,757.124 884.66,762.224 C884.66,763.624 884.86,764.924 885.56,766.124 C887.06,768.824 890.06,770.524 893.96,770.924 C894.56,771.024 895.06,771.024 895.66,771.024 C899.16,771.024 902.86,770.024 906.36,768.124 C912.96,764.524 917.16,758.724 917.16,753.624 C917.16,752.224 916.86,750.824 916.16,749.624"/>
<path class="Note" d="M1093.46,737.124 C1091.96,734.424 1089.06,732.724 1085.16,732.324 C1084.56,732.224 1084.06,732.224 1083.46,732.224 C1079.96,732.224 1076.16,733.224 1072.66,735.124 C1066.06,738.724 1061.96,744.624 1061.96,749.724 C1061.96,751.124 1062.16,752.424 1062.86,753.624 C1064.36,756.324 1067.36,758.024 1071.26,758.424 C1071.86,758.524 1072.36,758.524 1072.96,758.524 C1076.46,758.524 1080.16,757.524 1083.66,755.624 C1090.26,752.024 1094.46,746.224 1094.46,741.124 C1094.46,739.724 1094.16,738.324 1093.46,737.124"/>
<path class="Note" d="M1231.49,724.623 C1229.99,721.923 1227.09,720.223 1223.19,719.823 C1222.59,719.723 1222.09,719.723 1221.49,719.723 C1217.99,719.723 1214.19,720.723 1210.69,722.623 C1204.09,726.223 1199.99,732.123 1199.99,737.223 C1199.99,738.623 1200.19,739.923 1200.89,741.123 C1202.39,743.823 1205.39,745.523 1209.29,745.923 C1209.89,746.023 1210.39,746.023 1210.99,746.023 C1214.49,746.023 1218.19,745.023 1221.69,743.123 C1228.29,739.523 1232.49,733.723 1232.49,728.623 C1232.49,727.223 1232.19,725.823 1231.49,724.623"/>
<path class="Note" d="M1369.51,712.122 C1368.01,709.422 1365.11,707.722 1361.21,707.322 C1360.61,707.222 1360.11,707.222 1359.51,707.222 C1356.01,707.222 1352.21,708.222 1348.71,710.122 C1342.11,713.722 1338.01,719.622 1338.01,724.722 C1338.01,726.122 1338.21,727.422 1338.91,728.622 C1340.41,731.322 1343.41,733.022 1347.31,733.422 C1347.91,733.522 1348.41,733.522 1349.01,733.522 C1352.51,733.522 1356.21,732.522 1359.71,730.622 C1366.31,727.022 1370.51,721.222 1370.51,716.122 C1370.51,714.722 1370.21,713.322 1369.51,712.122"/>
<path class="Note" d="M1507.53,699.621 C1506.03,696.921 1503.13,695.221 1499.23,694.821 C1498.63,694.721 1498.13,694.721 1497.53,694.721 C1494.03,694.721 1490.23,695.721 1486.73,697.621 C1480.13,701.221 1476.03,707.121 1476.03,712.221 C1476.03,713.621 1476.23,714.921 1476.93,716.121 C1478.43,718.821 1481.43,720.521 1485.33,720.921 C1485.93,721.021 1486.43,721.021 1487.03,721.021 C1490.53,721.021 1494.23,720.021 1497.73,718.121 C1504.33,714.521 1508.53,708.721 1508.53,703.621 C1508.53,702.221 1508.23,700.821 1507.53,699.621"/>
<path class="Note" d="M1702.45,712.122 C1700.95,709.422 1698.05,707.722 1694.15,707.322 C1693.55,707.222 1693.05,707.222 1692.45,707.222 C1688.95,707.222 1685.15,708.222 1681.65,710.122 C1675.05,713.722 1670.95,719.622 1670.95,724.722 C1670.95,726.122 1671.15,727.422 1671.85,728.622 C1673.35,731.322 1676.35,733.022 1680.25,733.422 C1680.85,733.522 1681.35,733.522 1681.95,733.522 C1685.45,733.522 1689.15,732.522 1692.65,730.622 C1699.25,727.022 1703.45,721.222 1703.45,716.122 C1703.45,714.722 1703.15,713.322 1702.45,712.122"/>
<path class="Note" d="M1829.63,724.623 C1828.13,721.923 1825.23,720.223 1821.33,719.823 C1820.73,719.723 1820.23,719.723 1819.63,719.723 C1816.13,719.723 1812.33,720.723 1808.83,722.623 C1802.23,726.223 1798.13,732.123 1798.13,737.223 C1798.13,738.623 1798.33,739.923 1799.03,741.123 C1800.53,743.823 1803.53,745.523 1807.43,745.923 C1808.03,746.023 1808.53,746.023 1809.13,746.023 C1812.63,746.023 1816.33,745.023 1819.83,743.123 C1826.43,739.523 1830.63,733.723 1830.63,728.623 C1830.63,727.223 1830.33,725.823 1829.63,724.623"/>
<path class="Note" d="M1956.81,737.124 C1955.31,734.424 1952.41,732.724 1948.51,732.324 C1947.91,732.224 1947.41,732.224 1946.81,732.224 C1943.31,732.224 1939.51,733.224 1936.01,735.124 C1929.41,738.724 1925.31,744.624 1925.31,749.724 C1925.31,751.124 1925.51,752.424 1926.21,753.624 C1927.71,756.324 1930.71,758.024 1934.61,758.424 C1935.21,758.524 1935.71,758.524 1936.31,758.524 C1939.81,758.524 1943.51,757.524 1947.01,755.624 C1953.61,752.024 1957.81,746.224 1957.81,741.124 C1957.81,739.724 1957.51,738.324 1956.81,737.124"/>
<path class="Note" d="M2083.98,749.624 C2082.48,746.924 2079.58,745.224 2075.68,744.824 C2075.08,744.724 2074.58,744.724 2073.98,744.724 C2070.48,744.724 2066.68,745.724 2063.18,747.624 C2056.58,751.224 2052.48,757.124 2052.48,762.224 C2052.48,763.624 2052.68,764.924 2053.38,766.124 C2054.88,768.824 2057.88,770.524 2061.78,770.924 C2062.38,771.024 2062.88,771.024 2063.48,771.024 C2066.98,771.024 2070.68,770.024 2074.18,768.124 C2080.78,764.524 2084.98,758.724 2084.98,753.624 C2084.98,752.224 2084.68,750.824 2083.98,749.624"/>
<path class="Note" d="M2256.91,762.125 C2255.41,759.425 2252.51,757.725 2248.61,757.325 C2248.01,757.225 2247.51,757.225 2246.91,757.225 C2243.41,757.225 2239.61,758.225 2236.11,760.125 C2229.51,763.725 2225.41,769.625 2225.41,774.725 C2225.41,776.125 2225.61,777.425 2226.31,778.625 C2227.81,781.325 2230.81,783.025 2234.71,783.425 C2235.31,783.525 2235.81,783.525 2236.41,783.525 C2239.91,783.525 2243.61,782.525 2247.11,780.625 C2253.71,777.025 2257.91,771.225 2257.91,766.125 C2257.91,764.725 2257.61,763.325 2256.91,762.125"/>
<path class="Note" d="M2397.81,774.626 C2396.31,771.926 2393.41,770.226 2389.51,769.826 C2388.91,769.726 2388.41,769.726 2387.81,769.726 C2384.31,769.726 2380.51,770.726 2377.01,772.626 C2370.41,776.226 2366.31,782.126 2366.31,787.226 C2366.31,788.626 2366.51,789.926 2367.21,791.126 C2368.71,793.826 2371.71,795.526 2375.61,795.926 C2376.21,796.026 2376.71,796.026 2377.31,796.026 C2380.81,796.026 2384.51,795.026 2388.01,793.126 C2394.61,789.526 2398.81,783.726 2398.81,778.626 C2398.81,777.226 2398.51,775.826 2397.81,774.626"/>
<path class="Note" d="M2538.7,787.127 C2537.2,784.427 2534.3,782.727 2530.4,782.327 C2529.8,782.227 2529.3,782.227 2528.7,782.227 C2525.2,782.227 2521.4,783.227 2517.9,785.127 C2511.3,788.727 2507.2,794.527 2507.2,799.627 C2507.2,801.027 2507.6,802.427 2508.3,803.627 C2509.8,806.427 2512.6,808.027 2516.5,808.427 C2517.1,808.527 2517.6,808.527 2518.2,808.527 C2521.7,808.527 2525.5,807.527 2529,805.627 C2535.6,802.027 2539.7,796.127 2539.7,791.027 C2539.7,789.627 2539.4,788.327 2538.7,787.127 M2534.5,793.427 C2532.8,795.227 2529.6,797.527 2526,799.627 C2522.4,801.727 2518.7,803.427 2516.4,804.127 C2515.9,804.227 2515.3,804.327 2514.8,804.327 C2513.3,804.327 2512,803.627 2511.3,802.527 C2511,801.927 2510.8,801.327 2510.8,800.727 C2510.8,799.627 2511.3,798.527 2512.4,797.327 C2514.1,795.527 2517.3,793.127 2520.9,791.027 C2524.5,788.927 2528.2,787.227 2530.6,786.627 L2530.8,786.627 C2531.4,786.427 2531.9,786.327 2532.4,786.327 C2533.8,786.327 2534.9,786.927 2535.6,788.227 C2535.9,788.827 2536.1,789.327 2536.1,789.927 C2536.1,791.227 2535.4,792.527 2534.5,793.427"/>
<path class="Clef" d="M297,907.735 C289.4,907.735 283.3,912.135 283.2,912.135 C277.4,916.435 275.1,921.535 274.2,925.035 C273.7,926.835 273.5,928.635 273.5,930.335 C273.5,932.735 273.9,934.935 274.8,936.835 C276,939.535 278.3,941.435 281.3,942.435 C282.5,942.835 283.8,943.035 285.1,943.035 C287.3,943.035 289.6,942.435 291.5,941.335 C294.6,939.635 296.5,936.035 296.5,932.135 C296.5,928.635 294.7,925.435 291.7,923.535 C289.6,922.135 287.6,921.735 285.9,921.735 C284.7,921.735 283.6,921.935 282.7,922.235 C281.7,922.635 280,923.635 279.2,924.335 C279.5,922.435 280.7,919.535 281.8,917.935 C282.9,916.335 285.1,914.335 286.8,913.435 C289.3,912.035 292.5,911.435 296,911.435 C306.2,911.435 311.2,919.635 311.2,936.435 C311.2,945.735 307.7,954.635 304.7,960.535 C301.4,967.135 297,973.435 293.1,976.935 C282.7,986.435 272.9,990.935 272.8,990.935 C272.8,990.935 271.3,991.835 271.7,993.335 C272,994.335 272.9,994.535 273.5,994.535 C273.6,994.535 273.9,994.435 274,994.435 C274.1,994.435 285.5,989.735 294.6,982.635 C299.7,978.935 304.3,974.935 308.3,970.635 C311.9,966.735 315,962.535 317.5,958.335 C321.9,950.835 324.4,943.035 324.4,936.335 C324.4,928.035 322.2,921.135 318.1,916.235 C313.4,910.635 306.3,907.735 297,907.735 M328.4,920.435 C328.4,923.235 330.6,925.435 333.2,925.435 C335.8,925.435 338,923.235 338,920.435 C338,917.635 335.8,915.335 333.2,915.335 C330.6,915.335 328.4,917.635 328.4,920.435 M328.4,945.135 C328.4,947.935 330.6,950.235 333.2,950.235 C335.8,950.235 338,947.935 338,945.135 C338,942.335 335.8,940.035 333.2,940.035 C330.6,940.035 328.4,942.335 328.4,945.135"/>
<path class="Clef" d="M335,714.422 C333.8,709.022 331.1,705.122 330.3,704.122 C327.1,699.822 323.1,697.022 318.4,695.622 C316.1,694.922 314,694.722 312,694.722 C311.3,694.722 310.6,694.722 309.9,694.822 C308.9,688.822 307.8,682.922 306.9,677.522 C312.5,671.322 316.2,665.422 318.6,661.022 C322.2,654.322 323.6,649.622 323.7,649.422 C324.9,646.422 325.6,642.622 325.6,638.122 C325.6,635.422 325.3,632.522 324.9,629.522 C323.8,622.422 321.6,615.722 319.1,612.022 C317.8,610.122 316.6,609.022 315.4,609.022 C314.2,609.022 311.7,610.222 308.8,613.022 C306.5,615.222 303.2,619.122 300.6,625.122 C298.3,630.522 297.6,637.422 297.6,643.322 C297.6,645.122 297.7,646.822 297.8,648.422 C298,652.022 298.7,657.822 299.3,661.422 C299.3,661.522 299.6,663.022 300,665.622 L299.3,666.322 C298.3,667.322 297.1,668.422 295.7,669.822 C294.8,670.722 293.9,671.522 292.9,672.522 C284.4,680.722 271.6,693.122 271.6,712.222 C271.6,716.922 272.5,721.322 274.3,725.322 C275.9,728.922 278.2,732.222 281.1,735.122 C288.6,742.522 298.8,745.722 305.9,745.722 L306.5,745.722 C309.4,745.622 312.1,745.322 314.5,744.922 C316.3,754.522 317.5,761.622 317.5,766.922 C317.5,773.422 315.9,777.322 312,780.122 C309.6,781.822 306.7,782.922 303.6,783.022 L302.8,783.022 C301.3,783.022 298.8,782.622 297.3,782.222 C297.3,782.222 297,782.122 297,781.922 C297,781.722 297.4,781.722 297.4,781.722 C299.3,781.322 302.9,780.022 305.3,776.722 C306.4,775.222 307.1,772.922 307.1,770.422 C307.1,768.822 306.8,767.122 306.1,765.622 C305,763.222 302.4,760.222 296.8,759.822 L295.7,759.822 C293.6,759.822 291.8,760.322 290.1,761.322 C288.3,762.422 286.7,764.122 285.7,766.122 C284.6,768.122 284.1,770.322 284.1,772.522 C284.1,775.422 285,778.122 286.8,780.322 C289.8,783.922 294.5,786.222 299.9,786.822 C300.6,786.922 301.7,787.022 302.4,787.022 C306.8,787.022 311.2,785.822 314.8,783.622 C318.5,781.022 320.6,777.022 321.3,771.422 C321.5,770.122 321.5,768.722 321.5,767.222 C321.5,763.322 321,758.622 320,752.822 C319.6,750.722 319.2,747.722 318.5,743.922 C324.3,742.022 328.4,738.322 332.2,732.522 C334.5,728.522 335.6,724.422 335.6,720.122 C335.6,718.222 335.4,716.322 335,714.422 M304.8,636.522 C306.6,630.822 309.3,627.422 311.3,625.722 C313.1,624.222 314.7,623.522 315.6,623.522 C315.7,623.522 315.9,623.622 316,623.622 C316.3,623.722 316.7,624.222 317.1,624.922 C318,626.722 318.9,630.022 318.9,633.722 C318.9,635.622 318.7,637.622 318.1,639.422 C315.9,646.222 311.3,653.522 304.3,661.222 C304.1,660.122 303.9,659.122 303.8,658.122 C303.3,654.922 303,651.722 303,648.822 C303,644.322 303.6,640.222 304.8,636.522 M300.8,740.622 C296.2,739.422 291.7,736.922 287.9,733.422 C286.6,732.222 284.8,730.022 283.3,726.622 C282,723.622 281.3,720.522 281.3,717.122 L281.3,716.422 C281.4,711.722 282.7,706.922 285.2,702.122 C288.1,696.522 292.6,691.022 298.7,685.722 C300.2,684.422 301.6,683.122 302.9,681.822 C303.7,686.122 304.4,690.822 305.3,695.722 C301.4,697.022 296.7,700.022 293.6,705.722 C291.2,710.222 290.5,714.122 290.5,717.322 C290.5,718.822 290.7,720.222 290.9,721.322 C291.8,725.822 294.4,729.522 297.9,731.622 C298.7,732.122 302,733.822 304,733.822 C304.3,733.822 304.6,733.822 304.8,733.722 C305.1,733.622 305.4,733.422 305.5,733.122 C305.6,732.922 305.6,732.722 305.6,732.522 C305.6,731.722 304.8,731.122 303.5,730.322 C302.9,729.922 302.2,729.522 301.5,729.022 C298.9,727.022 297.4,723.922 297.4,720.522 C297.4,719.522 297.6,718.622 297.8,717.622 C298.3,715.622 300,712.822 301.5,711.422 C303.2,709.922 305.2,708.722 307.6,708.122 C309.6,719.322 311.7,730.422 313.3,738.822 C313.4,739.522 313.6,740.222 313.7,740.922 C311.7,741.322 309.7,741.522 307.8,741.522 C305.4,741.522 303.1,741.222 300.8,740.622 M326.5,730.422 C325.3,733.622 322.8,737.622 317.7,739.722 C317.6,739.322 317.6,738.822 317.5,738.422 C316,729.622 314.1,718.722 312.1,707.422 L313.1,707.422 C322.8,707.422 326.7,714.622 327.6,719.222 C327.8,720.122 327.9,721.322 327.9,722.622 C327.9,724.922 327.5,727.722 326.5,730.422"/>
<path class="TimeSig" d="M365.2,946.235 L382,946.235 L382,953.535 L373.9,953.535 C373.1,953.535 372.5,954.135 372.5,954.935 L372.5,956.835 C372.5,957.635 373.1,958.135 373.9,958.135 L403.6,958.135 C404.4,958.135 405,957.635 405,956.835 L405,954.935 C405,954.135 404.4,953.535 403.6,953.535 L394.8,953.535 L394.8,946.235 L403.6,946.235 C404.4,946.235 405,945.635 405,944.835 L405,943.035 C405,942.235 404.4,941.635 403.6,941.635 L394.8,941.635 L394.8,925.935 C394.8,925.435 394.4,924.935 394,924.735 L392.9,924.135 C392.7,924.035 392.4,924.035 392.2,924.035 C391.9,924.035 391.5,924.135 391.3,924.335 L382.4,932.535 C382.2,932.735 382,933.235 382,933.535 L382,941.635 L370.7,941.635 C370.7,941.635 381.6,929.835 393.2,914.335 C394,913.235 393.6,912.235 393.4,912.035 L391.3,909.835 C391.1,909.635 390.6,909.435 390.3,909.435 L375.7,909.435 C375,909.435 374.5,910.035 374.4,910.635 C374.4,910.635 373.9,917.835 371.3,925.835 C368.7,933.835 365.9,938.635 363.3,942.235 C363.3,942.235 362.8,943.235 363.1,943.935 C363.4,944.635 364.1,945.735 364.1,945.735 C364.1,945.735 364.4,946.235 365.2,946.235"/>
<path class="TimeSig" d="M365.2,994.839 L382,994.839 L382,1002.14 L373.9,1002.14 C373.1,1002.14 372.5,1002.74 372.5,1003.54 L372.5,1005.44 C372.5,1006.24 373.1,1006.74 373.9,1006.74 L403.6,1006.74 C404.4,1006.74 405,1006.24 405,1005.44 L405,1003.54 C405,1002.74 404.4,1002.14 403.6,1002.14 L394.8,1002.14 L394.8,994.839 L403.6,994.839 C404.4,994.839 405,994.239 405,993.439 L405,991.639 C405,990.839 404.4,990.239 403.6,990.239 L394.8,990.239 L394.8,974.539 C394.8,974.039 394.4,973.539 394,973.339 L392.9,972.739 C392.7,972.639 392.4,972.639 392.2,972.639 C391.9,972.639 391.5,972.739 391.3,972.939 L382.4,981.139 C382.2,981.339 382,981.839 382,982.139 L382,990.239 L370.7,990.239 C370.7,990.239 381.6,978.439 393.2,962.939 C394,961.839 393.6,960.839 393.4,960.639 L391.3,958.439 C391.1,958.239 390.6,958.039 390.3,958.039 L375.7,958.039 C375,958.039 374.5,958.639 374.4,959.239 C374.4,959.239 373.9,966.439 371.3,974.439 C368.7,982.439 365.9,987.239 363.3,990.839 C363.3,990.839 362.8,991.839 363.1,992.539 C363.4,993.239 364.1,994.339 364.1,994.339 C364.1,994.339 364.4,994.839 365.2,994.839"/>
<path class="TimeSig" d="M365.2,683.718 L382,683.718 L382,691.018 L373.9,691.018 C373.1,691.018 372.5,691.618 372.5,692.418 L372.5,694.318 C372.5,695.118 373.1,695.618 373.9,695.618 L403.6,695.618 C404.4,695.618 405,695.118 405,694.318 L405,692.418 C405,691.618 404.4,691.018 403.6,691.018 L394.8,691.018 L394.8,683.718 L403.6,683.718 C404.4,683.718 405,683.118 405,682.318 L405,680.518 C405,679.718 404.4,679.118 403.6,679.118 L394.8,679.118 L394.8,663.418 C394.8,662.918 394.4,662.418 394,662.218 L392.9,661.618 C392.7,661.518 392.4,661.518 392.2,661.518 C391.9,661.518 391.5,661.618 391.3,661.818 L382.4,670.018 C382.2,670.218 382,670.718 382,671.018 L382,679.118 L370.7,679.118 C370.7,679.118 381.6,667.318 393.2,651.818 C394,650.718 393.6,649.718 393.4,649.518 L391.3,647.318 C391.1,647.118 390.6,646.918 390.3,646.918 L375.7,646.918 C375,646.918 374.5,647.518 374.4,648.118 C374.4,648.118 373.9,655.318 371.3,663.318 C368.7,671.318 365.9,676.118 363.3,679.718 C363.3,679.718 362.8,680.718 363.1,681.418 C363.4,682.118 364.1,683.218 364.1,683.218 C364.1,683.218 364.4,683.718 365.2,683.718"/>
<path class="TimeSig" d="M365.2,732.323 L382,732.323 L382,739.623 L373.9,739.623 C373.1,739.623 372.5,740.223 372.5,741.023 L372.5,742.923 C372.5,743.723 373.1,744.223 373.9,744.223 L403.6,744.223 C404.4,744.223 405,743.723 405,742.923 L405,741.023 C405,740.223 404.4,739.623 403.6,739.623 L394.8,739.623 L394.8,732.323 L403.6,732.323 C404.4,732.323 405,731.723 405,730.923 L405,729.123 C405,728.323 404.4,727.723 403.6,727.723 L394.8,727.723 L394.8,712.023 C394.8,711.523 394.4,711.023 394,710.823 L392.9,710.223 C392.7,710.123 392.4,710.123 392.2,710.123 C391.9,710.123 391.5,710.223 391.3,710.423 L382.4,718.623 C382.2,718.823 382,719.323 382,719.623 L382,727.723 L370.7,727.723 C370.7,727.723 381.6,715.923 393.2,700.423 C394,699.323 393.6,698.323 393.4,698.123 L391.3,695.923 C391.1,695.723 390.6,695.523 390.3,695.523 L375.7,695.523 C375,695.523 374.5,696.123 374.4,696.723 C374.4,696.723 373.9,703.923 371.3,711.923 C368.7,719.923 365.9,724.723 363.3,728.323 C363.3,728.323 362.8,729.323 363.1,730.023 C363.4,730.723 364.1,731.823 364.1,731.823 C364.1,731.823 364.4,732.323 365.2,732.323"/>
<path class="Page" d="M233.756,4056.33 L231.776,4056.33 L231.326,4058.63 C230.741,4061.55 230.381,4061.82 227.591,4061.82 L217.511,4061.82 C220.616,4058.58 221.651,4057.64 224.531,4055.39 C228.626,4052.24 230.381,4050.66 231.416,4049.31 C232.856,4047.33 233.576,4045.35 233.576,4043.15 C233.576,4038.02 229.346,4034.37 223.451,4034.37 C217.736,4034.37 213.371,4038.02 213.371,4042.83 C213.371,4045.67 214.811,4047.6 216.926,4047.6 C218.591,4047.6 219.716,4046.48 219.716,4044.86 C219.716,4043.73 219.086,4042.7 218.141,4042.29 C216.476,4041.62 216.386,4041.53 216.386,4040.94 C216.386,4040.27 216.836,4039.23 217.466,4038.47 C218.591,4037.07 220.436,4036.31 222.551,4036.31 C226.286,4036.31 228.491,4038.6 228.491,4042.38 C228.491,4045.71 226.916,4048.73 223.181,4052.69 C219.851,4056.2 217.781,4058.4 217.016,4059.26 C215.396,4061.15 214.586,4062.18 212.606,4064.79 L212.606,4066.05 L232.901,4066.05 L233.756,4056.33 M254.227,4050.44 C253.687,4055.7 253.417,4057.28 252.607,4059.53 C251.437,4062.86 249.007,4064.79 245.947,4064.79 C244.462,4064.79 243.472,4064.34 243.472,4063.67 C243.472,4063.49 243.562,4063.26 243.742,4062.9 C244.237,4061.87 244.327,4061.55 244.327,4060.92 C244.327,4059.39 243.202,4058.27 241.672,4058.27 C239.962,4058.27 238.612,4059.71 238.612,4061.51 C238.612,4064.48 241.762,4066.73 245.902,4066.73 C249.997,4066.73 253.507,4064.88 255.712,4061.55 C257.917,4058.22 259.132,4053.9 259.132,4049.22 C259.132,4040.18 254.857,4034.37 248.107,4034.37 C242.302,4034.37 237.802,4039.14 237.802,4045.22 C237.802,4050.62 241.537,4054.53 246.712,4054.53 C249.907,4054.53 251.797,4053.5 254.227,4050.44 M248.287,4036.31 C251.617,4036.31 253.822,4039.59 253.822,4044.68 C253.822,4046.52 253.462,4048.19 252.787,4049.22 C251.752,4050.84 249.997,4051.83 248.062,4051.83 C244.642,4051.83 242.707,4049.18 242.707,4044.41 C242.707,4042.25 243.202,4040.13 244.057,4038.74 C245.092,4037.03 246.307,4036.31 248.287,4036.31"/>
<path class="Bracket" transform="matrix(3.62523,0,0,3.62523,214.469,1007.84)" d="M0.92002,-50 C2.69004,-51.88 6.2,-55.8 6.2,-63 C6.2,-72.1 2.25996,-81.32 2.25996,-86.97 C2.25996,-93.06 5.84004,-98.84 5.95,-99 C6.05996,-99.16 6.05,-99.39 5.94004,-99.46 C5.82998,-99.53 5.62002,-99.47 5.49004,-99.32 C5.35996,-99.17 0,-93.75 0,-85.6 C0,-76.75 3.5,-70.58 3.5,-59.07 C3.5,-56.89 2.55996,-53.36 0.1,-50.33 C-0.0799805,-50.17 -0.1,-49.89 0.0599609,-49.7 L0.0700195,-49.69 L0.1,-49.66 C2.55996,-46.63 3.5,-43.1 3.5,-40.92 C3.5,-29.4 0,-23.24 0,-14.39 C0,-6.25 5.35996,-0.8 5.49004,-0.659961 C5.62002,-0.52002 5.8,-0.42998 5.94004,-0.52002 C6.07998,-0.609961 6.07998,-0.77998 5.95,-0.97998 C5.82002,-1.17998 2.25996,-6.92002 2.25996,-13.01 C2.25996,-18.66 6.2,-27.9 6.2,-37 C6.2,-44.3 2.69004,-48.12 0.92002,-50"/>
</svg>