<?xml version="1.0" encoding="UTF-8" standalone="no"?>
<svg width="1000px" height="300px" viewBox="0 400 3040 900" xmlns="http://www.w3.org/2000/svg" xmlns:xlink="http://www.w3.org/1999/xlink" version="1.2" baseProfile="tiny">
 xmlns="http://www.w3.org/2000/svg" xmlns:xlink="http://www.w3.org/1999/xlink" version="1.2" baseProfile="tiny">
<title>exercises_scores (15)</title>
<desc>Generated by MuseScore 3.6.0</desc>
<polyline class="StaffLines" fill="none" stroke="#000000" stroke-width="2.75" stroke-linejoin="bevel" points="247.099,656.536 2764.63,656.536"/>
<polyline class="StaffLines" fill="none" stroke="#000000" stroke-width="2.75" stroke-linejoin="bevel" points="247.099,681.538 2764.63,681.538"/>
<polyline class="StaffLines" fill="none" stroke="#000000" stroke-width="2.75" stroke-linejoin="bevel" points="247.099,706.539 2764.63,706.539"/>
<polyline class="StaffLines" fill="none" stroke="#000000" stroke-width="2.75" stroke-linejoin="bevel" points="247.099,731.541 2764.63,731.541"/>
<polyline class="StaffLines" fill="none" stroke="#000000" stroke-width="2.75" stroke-linejoin="bevel" points="247.099,756.542 2764.63,756.542"/>
<polyline class="StaffLines" fill="none" stroke="#000000" stroke-width="2.75" stroke-linejoin="bevel" points="247.099,919.053 2764.63,919.053"/>
<polyline class="StaffLines" fill="none" stroke="#000000" stroke-width="2.75" stroke-linejoin="bevel" points="247.099,944.054 2764.63,944.054"/>
<polyline class="StaffLines" fill="none" stroke="#000000" stroke-width="2.75" stroke-linejoin="bevel" points="247.099,969.056 2764.63,969.056"/>
<polyline class="StaffLines" fill="none" stroke="#000000" stroke-width="2.75" stroke-linejoin="bevel" points="247.099,994.057 2764.63,994.057"/>
<polyline class="StaffLines" fill="none" stroke="#000000" stroke-width="2.75" stroke-linejoin="bevel" points="247.099,1019.06 2764.63,1019.06"/>
<path class="Text" d="M242.312,213.137 L240.092,213.137 L237.692,216.737 C234.812,214.037 231.032,212.597 226.772,212.597 C218.852,212.597 213.632,217.577 213.632,225.137 C213.632,231.677 216.872,234.917 225.692,237.197 L231.392,238.637 C235.832,239.777 236.252,239.897 237.512,240.857 C239.312,242.237 240.272,244.217 240.272,246.557 C240.272,248.957 239.372,250.937 237.572,252.617 C235.592,254.297 233.612,254.957 230.312,254.957 C225.872,254.957 222.692,253.577 219.872,250.457 C217.352,247.697 216.092,244.817 215.192,240.197 L212.612,240.197 L212.852,257.297 L215.192,257.297 L217.892,253.217 C221.912,256.517 225.212,257.717 230.492,257.717 C239.312,257.717 244.952,252.557 244.952,244.517 C244.952,240.737 243.752,237.617 241.352,235.337 C239.732,233.777 237.392,232.757 232.592,231.557 L226.172,229.937 C220.832,228.557 218.312,226.217 218.312,222.557 C218.312,218.357 221.732,215.477 226.832,215.477 C231.032,215.477 234.452,217.277 236.852,220.697 C238.592,223.157 239.732,225.677 240.452,228.737 L243.032,228.737 L242.312,213.137 M271.162,247.997 C269.242,252.317 267.202,254.057 264.082,254.057 C259.282,254.057 256.282,249.677 256.282,242.657 C256.282,235.337 259.222,230.537 263.662,230.537 C265.462,230.537 267.022,231.377 267.022,232.337 C267.022,232.517 266.962,232.697 266.662,233.057 C265.702,234.197 265.462,234.797 265.462,235.817 C265.462,237.797 266.962,239.177 269.062,239.177 C271.222,239.177 272.722,237.497 272.722,235.097 C272.722,231.017 268.702,227.957 263.362,227.957 C255.562,227.957 249.982,234.317 249.982,243.317 C249.982,251.837 255.082,257.717 262.522,257.717 C267.862,257.717 270.922,255.257 273.502,248.897 L271.162,247.997 M301.75,237.497 C301.75,233.717 301.09,231.797 299.35,230.357 C297.37,228.737 294.43,227.957 290.59,227.957 C283.81,227.957 278.89,231.137 278.89,235.517 C278.89,237.737 280.27,239.177 282.37,239.177 C284.29,239.177 285.61,237.917 285.61,236.117 C285.61,235.337 285.31,234.497 284.71,233.657 C284.35,233.237 284.29,233.117 284.29,232.817 C284.29,231.617 286.69,230.537 289.57,230.537 C291.49,230.537 293.59,231.137 294.55,232.037 C295.69,232.997 296.11,234.437 296.11,237.137 L296.11,239.477 C289.87,240.557 287.89,241.037 284.95,242.177 C279.73,244.097 277.27,246.857 277.27,250.697 C277.27,255.017 280.63,257.717 285.97,257.717 C290.11,257.717 293.83,256.037 296.41,252.977 C297.37,256.037 298.87,257.237 301.69,257.237 C304.39,257.237 307.21,255.497 307.21,253.757 C307.21,253.337 306.97,253.037 306.61,253.037 C306.37,253.037 306.13,253.097 305.71,253.277 C304.87,253.637 304.51,253.697 304.03,253.697 C302.35,253.697 301.75,252.617 301.75,249.557 L301.75,237.497 M296.11,244.817 C296.11,248.417 295.93,249.257 294.91,250.817 C293.41,253.037 290.71,254.537 288.07,254.537 C285.31,254.537 283.33,252.557 283.33,249.857 C283.33,247.337 284.59,245.537 287.23,244.277 C289.09,243.437 291.43,242.837 296.11,242.057 L296.11,244.817 M320.229,212.597 L309.129,213.257 L309.129,215.837 L312.069,215.837 C314.289,215.897 314.589,216.257 314.589,218.837 L314.589,249.437 L314.589,252.257 C314.529,253.157 314.469,253.517 314.229,253.817 C313.809,254.357 312.669,254.597 310.089,254.657 L309.669,254.657 L309.669,256.817 L325.209,256.817 L325.209,254.657 L324.789,254.657 C320.769,254.537 320.229,254.237 320.229,252.077 L320.229,249.437 L320.229,212.597 M354.78,243.317 C354.84,234.317 349.74,227.957 342.42,227.957 C334.74,227.957 328.98,234.617 328.98,243.617 C328.98,252.077 334.44,257.717 342.54,257.717 C348.3,257.717 352.32,254.897 354.78,249.197 L352.68,248.057 C350.22,252.677 347.7,254.477 343.68,254.477 C340.62,254.477 338.4,253.217 336.84,250.517 C335.76,248.717 335.28,246.617 335.34,243.317 L354.78,243.317 M335.4,240.737 C335.4,238.877 335.64,237.557 336.24,235.877 C337.5,232.277 339.42,230.537 342.36,230.537 C345.96,230.537 348.36,233.717 348.36,238.577 C348.36,240.257 347.82,240.737 345.9,240.737 L335.4,240.737 M366.601,250.157 C364.501,250.157 362.821,251.837 362.821,253.877 C362.821,255.977 364.501,257.657 366.541,257.657 C368.641,257.657 370.321,255.977 370.321,253.877 C370.321,251.837 368.641,250.157 366.601,250.157 M366.601,228.437 C364.501,228.437 362.821,230.117 362.821,232.217 C362.821,234.257 364.501,235.937 366.541,235.937 C368.641,235.937 370.321,234.257 370.321,232.157 C370.321,230.117 368.641,228.437 366.601,228.437 M428.445,213.497 L392.745,213.497 L392.745,216.317 L393.825,216.317 C397.245,216.377 398.385,216.557 398.865,217.157 C399.225,217.697 399.225,217.817 399.225,220.877 L399.225,249.437 C399.225,252.497 399.225,252.617 398.865,253.157 C398.385,253.757 397.245,253.997 393.825,253.997 L392.745,253.997 L392.745,256.817 L413.325,256.817 L413.325,253.997 L411.345,253.997 C407.925,253.997 406.785,253.757 406.305,253.157 C405.945,252.617 405.945,252.437 405.945,249.437 L405.945,235.817 L407.145,235.817 C413.325,235.577 415.545,237.797 415.785,244.457 L418.605,244.457 L418.605,224.777 L415.785,224.777 C415.425,230.657 413.085,232.937 407.385,232.997 L405.945,232.997 L405.945,219.317 C405.885,216.797 406.485,216.377 409.725,216.317 L412.485,216.317 C422.325,216.257 424.785,218.477 426.645,228.797 L429.285,228.797 L428.445,213.497 M459.752,228.857 L449.072,229.517 L449.072,232.097 L451.532,232.097 C453.812,232.157 454.112,232.517 454.112,235.097 L454.112,249.437 L454.112,251.777 L454.112,252.257 C454.052,253.157 453.992,253.517 453.752,253.817 C453.332,254.357 452.192,254.597 449.612,254.657 L449.372,254.657 L449.372,256.817 L464.492,256.817 L464.492,254.657 L464.252,254.657 C460.292,254.537 459.752,254.237 459.752,252.017 L459.752,249.437 L459.752,240.917 C459.752,235.577 462.692,231.617 466.592,231.617 C470.012,231.617 471.752,234.077 471.752,238.937 L471.752,249.437 L471.752,252.317 C471.692,253.097 471.632,253.517 471.332,253.817 C470.972,254.357 469.772,254.597 467.192,254.657 L466.952,254.657 L466.952,256.817 L482.132,256.817 L482.132,254.657 L481.892,254.657 C477.932,254.537 477.392,254.237 477.392,252.077 L477.392,249.437 L477.392,241.457 C477.392,235.457 480.092,231.617 484.292,231.617 C487.712,231.617 489.392,234.197 489.392,239.597 L489.392,249.437 L489.392,252.257 C489.332,253.097 489.272,253.517 488.972,253.817 C488.612,254.357 487.412,254.597 484.832,254.657 L484.592,254.657 L484.592,256.817 L499.772,256.817 L499.772,254.657 L499.532,254.657 C495.572,254.537 495.032,254.237 495.032,252.017 L495.032,249.437 L495.032,238.397 C495.032,234.677 494.672,233.417 493.112,231.377 C491.372,229.157 488.912,227.957 486.032,227.957 C482.132,227.957 479.252,229.817 476.672,233.957 C475.652,230.357 472.412,227.957 468.392,227.957 C464.732,227.957 462.092,229.697 459.752,233.477 L459.752,228.857 M528.14,237.497 C528.14,233.717 527.48,231.797 525.74,230.357 C523.76,228.737 520.82,227.957 516.98,227.957 C510.2,227.957 505.28,231.137 505.28,235.517 C505.28,237.737 506.66,239.177 508.76,239.177 C510.68,239.177 512,237.917 512,236.117 C512,235.337 511.7,234.497 511.1,233.657 C510.74,233.237 510.68,233.117 510.68,232.817 C510.68,231.617 513.08,230.537 515.96,230.537 C517.88,230.537 519.98,231.137 520.94,232.037 C522.08,232.997 522.5,234.437 522.5,237.137 L522.5,239.477 C516.26,240.557 514.28,241.037 511.34,242.177 C506.12,244.097 503.66,246.857 503.66,250.697 C503.66,255.017 507.02,257.717 512.36,257.717 C516.5,257.717 520.22,256.037 522.8,252.977 C523.76,256.037 525.26,257.237 528.08,257.237 C530.78,257.237 533.6,255.497 533.6,253.757 C533.6,253.337 533.36,253.037 533,253.037 C532.76,253.037 532.52,253.097 532.1,253.277 C531.26,253.637 530.9,253.697 530.42,253.697 C528.74,253.697 528.14,252.617 528.14,249.557 L528.14,237.497 M522.5,244.817 C522.5,248.417 522.32,249.257 521.3,250.817 C519.8,253.037 517.1,254.537 514.46,254.537 C511.7,254.537 509.72,252.557 509.72,249.857 C509.72,247.337 510.98,245.537 513.62,244.277 C515.48,243.437 517.82,242.837 522.5,242.057 L522.5,244.817 M545.065,228.857 L533.365,229.517 L533.365,232.097 L536.845,232.097 C539.125,232.157 539.425,232.517 539.425,235.097 L539.425,255.437 C539.425,260.297 539.125,262.577 538.285,264.317 C537.685,265.517 536.305,266.417 534.985,266.417 C534.145,266.417 533.485,266.057 533.485,265.637 C533.485,265.397 533.545,265.277 533.785,264.677 C534.085,264.077 534.205,263.657 534.205,263.237 C534.205,261.737 532.765,260.417 531.085,260.417 C529.165,260.417 527.725,261.917 527.725,264.017 C527.725,266.957 530.425,268.937 534.445,268.937 C537.805,268.937 540.865,267.497 542.605,265.037 C544.465,262.397 545.065,259.337 545.065,252.557 L545.065,228.857 M542.245,213.917 C540.325,213.917 538.765,215.477 538.765,217.397 C538.765,219.317 540.325,220.877 542.185,220.877 C544.165,220.877 545.725,219.317 545.725,217.397 C545.725,215.477 544.165,213.917 542.245,213.917 M565.515,227.957 C558.135,227.957 552.435,234.497 552.435,242.897 C552.435,251.117 558.195,257.717 565.395,257.717 C572.595,257.717 578.355,251.117 578.355,242.837 C578.355,234.617 572.595,227.957 565.515,227.957 M565.515,230.537 C569.715,230.537 572.055,234.917 572.055,242.837 C572.055,250.817 569.715,255.137 565.395,255.137 C561.075,255.137 558.735,250.817 558.735,242.897 C558.735,234.737 561.015,230.537 565.515,230.537 M592.275,228.857 L581.655,229.517 L581.655,232.097 L584.115,232.097 C586.395,232.157 586.695,232.517 586.695,235.097 L586.695,249.437 L586.695,252.257 C586.635,253.157 586.575,253.517 586.335,253.817 C585.915,254.357 584.715,254.597 582.135,254.657 L581.895,254.657 L581.895,256.817 L597.915,256.817 L597.915,254.657 L596.835,254.657 C592.815,254.537 592.275,254.237 592.275,252.077 L592.275,249.437 L592.275,248.837 C592.335,238.757 595.935,231.077 600.615,230.837 C599.775,231.797 599.535,232.397 599.535,233.537 C599.535,235.457 600.915,236.837 602.835,236.837 C605.055,236.837 606.495,235.217 606.495,232.817 C606.495,229.877 604.455,227.957 601.275,227.957 C597.495,227.957 594.255,230.957 592.275,236.297 L592.275,228.857 "/>
<polyline class="BarLine" fill="none" stroke="#000000" stroke-width="4.50" stroke-linejoin="bevel" points="249.349,917.677 249.349,1020.43"/>
<polyline class="BarLine" fill="none" stroke="#000000" stroke-width="4.50" stroke-linejoin="bevel" points="997.408,917.677 997.408,1020.43"/>
<polyline class="BarLine" fill="none" stroke="#000000" stroke-width="4.50" stroke-linejoin="bevel" points="1607.86,917.677 1607.86,1020.43"/>
<polyline class="BarLine" fill="none" stroke="#000000" stroke-width="4.50" stroke-linejoin="bevel" points="2239.67,917.677 2239.67,1020.43"/>
<polyline class="BarLine" fill="none" stroke="#000000" stroke-width="4.50" stroke-linejoin="bevel" points="2734.88,917.677 2734.88,1020.43"/>
<polyline class="BarLine" fill="none" stroke="#000000" stroke-width="13.75" stroke-linejoin="bevel" points="2757.75,917.677 2757.75,1020.43"/>
<polyline class="BarLine" fill="none" stroke="#000000" stroke-width="4.50" stroke-linejoin="bevel" points="249.349,655.161 249.349,919.053"/>
<polyline class="BarLine" fill="none" stroke="#000000" stroke-width="4.50" stroke-linejoin="bevel" points="997.408,655.161 997.408,919.053"/>
<polyline class="BarLine" fill="none" stroke="#000000" stroke-width="4.50" stroke-linejoin="bevel" points="1607.86,655.161 1607.86,919.053"/>
<polyline class="BarLine" fill="none" stroke="#000000" stroke-width="4.50" stroke-linejoin="bevel" points="2239.67,655.161 2239.67,919.053"/>
<polyline class="BarLine" fill="none" stroke="#000000" stroke-width="4.50" stroke-linejoin="bevel" points="2734.88,655.161 2734.88,919.053"/>
<polyline class="BarLine" fill="none" stroke="#000000" stroke-width="13.75" stroke-linejoin="bevel" points="2757.75,655.161 2757.75,919.053"/>
<path class="Accidental" d="M853.67,898.652 C853.07,894.752 850.67,891.052 845.57,891.052 C840.57,891.052 837.67,894.152 837.17,894.752 L837.57,862.652 C837.57,861.852 836.97,861.252 836.17,861.252 L834.97,861.252 C834.17,861.252 833.57,861.852 833.57,862.652 L834.07,922.752 C834.07,923.552 834.67,924.152 835.47,924.152 C835.67,924.152 836.07,924.052 836.27,923.952 C836.67,923.752 843.17,920.552 848.57,914.452 C852.37,910.152 853.87,905.252 853.87,901.152 C853.87,900.252 853.77,899.452 853.67,898.652 M846.77,902.552 C846.77,904.052 846.37,908.652 843.87,912.452 C842.17,915.052 838.77,917.752 836.87,919.252 L837.17,899.752 C837.37,898.852 838.87,895.952 842.87,895.952 C846.47,895.952 846.77,899.352 846.77,901.452 L846.77,902.552 "/>
<path class="Accidental" d="M2084.46,898.652 C2083.86,894.752 2081.46,891.052 2076.36,891.052 C2071.36,891.052 2068.46,894.152 2067.96,894.752 L2068.36,862.652 C2068.36,861.852 2067.76,861.252 2066.96,861.252 L2065.76,861.252 C2064.96,861.252 2064.36,861.852 2064.36,862.652 L2064.86,922.752 C2064.86,923.552 2065.46,924.152 2066.26,924.152 C2066.46,924.152 2066.86,924.052 2067.06,923.952 C2067.46,923.752 2073.96,920.552 2079.36,914.452 C2083.16,910.152 2084.66,905.252 2084.66,901.152 C2084.66,900.252 2084.56,899.452 2084.46,898.652 M2077.56,902.552 C2077.56,904.052 2077.16,908.652 2074.66,912.452 C2072.96,915.052 2069.56,917.752 2067.66,919.252 L2067.96,899.752 C2068.16,898.852 2069.66,895.952 2073.66,895.952 C2077.26,895.952 2077.56,899.352 2077.56,901.452 L2077.56,902.552 "/>
<path class="Accidental" d="M853.67,698.639 C853.07,694.739 850.67,691.039 845.57,691.039 C840.57,691.039 837.67,694.139 837.17,694.739 L837.57,662.639 C837.57,661.839 836.97,661.239 836.17,661.239 L834.97,661.239 C834.17,661.239 833.57,661.839 833.57,662.639 L834.07,722.739 C834.07,723.539 834.67,724.139 835.47,724.139 C835.67,724.139 836.07,724.039 836.27,723.939 C836.67,723.739 843.17,720.539 848.57,714.439 C852.37,710.139 853.87,705.239 853.87,701.139 C853.87,700.239 853.77,699.439 853.67,698.639 M846.77,702.539 C846.77,704.039 846.37,708.639 843.87,712.439 C842.17,715.039 838.77,717.739 836.87,719.239 L837.17,699.739 C837.37,698.839 838.87,695.939 842.87,695.939 C846.47,695.939 846.77,699.339 846.77,701.439 L846.77,702.539 "/>
<path class="Accidental" d="M2084.46,698.639 C2083.86,694.739 2081.46,691.039 2076.36,691.039 C2071.36,691.039 2068.46,694.139 2067.96,694.739 L2068.36,662.639 C2068.36,661.839 2067.76,661.239 2066.96,661.239 L2065.76,661.239 C2064.96,661.239 2064.36,661.839 2064.36,662.639 L2064.86,722.739 C2064.86,723.539 2065.46,724.139 2066.26,724.139 C2066.46,724.139 2066.86,724.039 2067.06,723.939 C2067.46,723.739 2073.96,720.539 2079.36,714.439 C2083.16,710.139 2084.66,705.239 2084.66,701.139 C2084.66,700.239 2084.56,699.439 2084.46,698.639 M2077.56,702.539 C2077.56,704.039 2077.16,708.639 2074.66,712.439 C2072.96,715.039 2069.56,717.739 2067.66,719.239 L2067.96,699.739 C2068.16,698.839 2069.66,695.939 2073.66,695.939 C2077.26,695.939 2077.56,699.339 2077.56,701.439 L2077.56,702.539 "/>
<polyline class="LedgerLine" fill="none" stroke="#000000" stroke-width="4.00" stroke-linejoin="bevel" points="1032.16,894.051 1082.16,894.051"/>
<polyline class="LedgerLine" fill="none" stroke="#000000" stroke-width="4.00" stroke-linejoin="bevel" points="1173.34,894.051 1223.33,894.051"/>
<polyline class="LedgerLine" fill="none" stroke="#000000" stroke-width="4.00" stroke-linejoin="bevel" points="1314.51,894.051 1364.51,894.051"/>
<polyline class="LedgerLine" fill="none" stroke="#000000" stroke-width="4.00" stroke-linejoin="bevel" points="1314.51,869.049 1364.51,869.049"/>
<polyline class="LedgerLine" fill="none" stroke="#000000" stroke-width="4.00" stroke-linejoin="bevel" points="1455.69,894.051 1505.68,894.051"/>
<polyline class="LedgerLine" fill="none" stroke="#000000" stroke-width="4.00" stroke-linejoin="bevel" points="1455.69,869.049 1505.68,869.049"/>
<polyline class="LedgerLine" fill="none" stroke="#000000" stroke-width="4.00" stroke-linejoin="bevel" points="1642.61,894.051 1692.61,894.051"/>
<polyline class="LedgerLine" fill="none" stroke="#000000" stroke-width="4.00" stroke-linejoin="bevel" points="1642.61,869.049 1692.61,869.049"/>
<polyline class="LedgerLine" fill="none" stroke="#000000" stroke-width="4.00" stroke-linejoin="bevel" points="1789.13,894.051 1839.12,894.051"/>
<polyline class="LedgerLine" fill="none" stroke="#000000" stroke-width="4.00" stroke-linejoin="bevel" points="1935.64,894.051 1985.64,894.051"/>
<polyline class="Stem" fill="none" stroke="#000000" stroke-width="2.75" stroke-linejoin="bevel" points="456.377,947.574 456.377,1028.43"/>
<polyline class="Stem" fill="none" stroke="#000000" stroke-width="2.75" stroke-linejoin="bevel" points="591.416,935.074 591.416,1019.06"/>
<polyline class="Stem" fill="none" stroke="#000000" stroke-width="2.75" stroke-linejoin="bevel" points="726.455,922.573 726.455,1006.56"/>
<polyline class="Stem" fill="none" stroke="#000000" stroke-width="2.75" stroke-linejoin="bevel" points="861.494,910.072 861.494,994.057"/>
<polyline class="Stem" fill="none" stroke="#000000" stroke-width="2.75" stroke-linejoin="bevel" points="1042.29,897.571 1042.29,981.556"/>
<polyline class="Stem" fill="none" stroke="#000000" stroke-width="2.75" stroke-linejoin="bevel" points="1183.46,885.07 1183.46,969.056"/>
<polyline class="Stem" fill="none" stroke="#000000" stroke-width="2.75" stroke-linejoin="bevel" points="1324.64,860.069 1324.64,969.056"/>
<polyline class="Stem" fill="none" stroke="#000000" stroke-width="2.75" stroke-linejoin="bevel" points="1465.81,860.069 1465.81,969.056"/>
<polyline class="Stem" fill="none" stroke="#000000" stroke-width="2.75" stroke-linejoin="bevel" points="1652.74,860.069 1652.74,969.056"/>
<polyline class="Stem" fill="none" stroke="#000000" stroke-width="2.75" stroke-linejoin="bevel" points="1799.25,885.07 1799.25,969.056"/>
<polyline class="Stem" fill="none" stroke="#000000" stroke-width="2.75" stroke-linejoin="bevel" points="1945.77,897.571 1945.77,981.556"/>
<polyline class="Stem" fill="none" stroke="#000000" stroke-width="2.75" stroke-linejoin="bevel" points="2092.28,910.072 2092.28,994.057"/>
<polyline class="Stem" fill="none" stroke="#000000" stroke-width="2.75" stroke-linejoin="bevel" points="2275.8,922.573 2275.8,1006.56"/>
<polyline class="Stem" fill="none" stroke="#000000" stroke-width="2.75" stroke-linejoin="bevel" points="2403.08,935.074 2403.08,1019.06"/>
<polyline class="Stem" fill="none" stroke="#000000" stroke-width="2.75" stroke-linejoin="bevel" points="2530.36,947.494 2530.36,1028.43"/>
<polyline class="Stem" fill="none" stroke="#000000" stroke-width="2.75" stroke-linejoin="bevel" points="486.121,740.681 486.121,656.536"/>
<polyline class="Stem" fill="none" stroke="#000000" stroke-width="2.75" stroke-linejoin="bevel" points="621.16,728.181 621.16,647.16"/>
<polyline class="Stem" fill="none" stroke="#000000" stroke-width="2.75" stroke-linejoin="bevel" points="756.199,715.68 756.199,637.785"/>
<polyline class="Stem" fill="none" stroke="#000000" stroke-width="2.75" stroke-linejoin="bevel" points="861.494,710.059 861.494,784.669"/>
<polyline class="Stem" fill="none" stroke="#000000" stroke-width="2.75" stroke-linejoin="bevel" points="1042.29,697.559 1042.29,775.293"/>
<polyline class="Stem" fill="none" stroke="#000000" stroke-width="2.75" stroke-linejoin="bevel" points="1183.46,685.058 1183.46,765.918"/>
<polyline class="Stem" fill="none" stroke="#000000" stroke-width="2.75" stroke-linejoin="bevel" points="1324.64,660.056 1324.64,744.042"/>
<polyline class="Stem" fill="none" stroke="#000000" stroke-width="2.75" stroke-linejoin="bevel" points="1465.81,660.056 1465.81,744.042"/>
<polyline class="Stem" fill="none" stroke="#000000" stroke-width="2.75" stroke-linejoin="bevel" points="1652.74,660.056 1652.74,744.042"/>
<polyline class="Stem" fill="none" stroke="#000000" stroke-width="2.75" stroke-linejoin="bevel" points="1799.25,685.058 1799.25,765.918"/>
<polyline class="Stem" fill="none" stroke="#000000" stroke-width="2.75" stroke-linejoin="bevel" points="1945.77,697.559 1945.77,775.293"/>
<polyline class="Stem" fill="none" stroke="#000000" stroke-width="2.75" stroke-linejoin="bevel" points="2092.28,710.059 2092.28,784.669"/>
<polyline class="Stem" fill="none" stroke="#000000" stroke-width="2.75" stroke-linejoin="bevel" points="2305.54,715.68 2305.54,637.785"/>
<polyline class="Stem" fill="none" stroke="#000000" stroke-width="2.75" stroke-linejoin="bevel" points="2432.82,728.181 2432.82,647.16"/>
<polyline class="Stem" fill="none" stroke="#000000" stroke-width="2.75" stroke-linejoin="bevel" points="2560.1,740.601 2560.1,656.536"/>
<path class="Note" d="M486.502,935.854 C485.002,933.154 482.102,931.454 478.202,931.054 C477.602,930.954 477.102,930.954 476.502,930.954 C473.002,930.954 469.202,931.954 465.702,933.854 C459.102,937.454 455.002,943.354 455.002,948.454 C455.002,949.854 455.202,951.154 455.902,952.354 C457.402,955.054 460.402,956.754 464.302,957.154 C464.902,957.254 465.402,957.254 466.002,957.254 C469.502,957.254 473.202,956.254 476.702,954.354 C483.302,950.754 487.502,944.954 487.502,939.854 C487.502,938.454 487.202,937.054 486.502,935.854"/>
<path class="Note" d="M621.541,923.353 C620.041,920.653 617.141,918.953 613.241,918.553 C612.641,918.453 612.141,918.453 611.541,918.453 C608.041,918.453 604.241,919.453 600.741,921.353 C594.141,924.953 590.041,930.853 590.041,935.953 C590.041,937.353 590.241,938.653 590.941,939.853 C592.441,942.553 595.441,944.253 599.341,944.653 C599.941,944.753 600.441,944.753 601.041,944.753 C604.541,944.753 608.241,943.753 611.741,941.853 C618.341,938.253 622.541,932.453 622.541,927.353 C622.541,925.953 622.241,924.553 621.541,923.353"/>
<path class="Note" d="M756.58,910.853 C755.08,908.153 752.18,906.453 748.28,906.053 C747.68,905.953 747.18,905.953 746.58,905.953 C743.08,905.953 739.28,906.953 735.78,908.853 C729.18,912.453 725.08,918.353 725.08,923.453 C725.08,924.853 725.28,926.153 725.98,927.353 C727.48,930.053 730.48,931.753 734.38,932.153 C734.98,932.253 735.48,932.253 736.08,932.253 C739.58,932.253 743.28,931.253 746.78,929.353 C753.38,925.753 757.58,919.953 757.58,914.853 C757.58,913.453 757.28,912.053 756.58,910.853"/>
<path class="Note" d="M891.619,898.352 C890.119,895.652 887.219,893.952 883.319,893.552 C882.719,893.452 882.219,893.452 881.619,893.452 C878.119,893.452 874.319,894.452 870.819,896.352 C864.219,899.952 860.119,905.852 860.119,910.952 C860.119,912.352 860.319,913.652 861.019,914.852 C862.519,917.552 865.519,919.252 869.419,919.652 C870.019,919.752 870.519,919.752 871.119,919.752 C874.619,919.752 878.319,918.752 881.819,916.852 C888.419,913.252 892.619,907.452 892.619,902.352 C892.619,900.952 892.319,899.552 891.619,898.352"/>
<path class="Note" d="M1072.41,885.851 C1070.91,883.151 1068.01,881.451 1064.11,881.051 C1063.51,880.951 1063.01,880.951 1062.41,880.951 C1058.91,880.951 1055.11,881.951 1051.61,883.851 C1045.01,887.451 1040.91,893.351 1040.91,898.451 C1040.91,899.851 1041.11,901.151 1041.81,902.351 C1043.31,905.051 1046.31,906.751 1050.21,907.151 C1050.81,907.251 1051.31,907.251 1051.91,907.251 C1055.41,907.251 1059.11,906.251 1062.61,904.351 C1069.21,900.751 1073.41,894.951 1073.41,889.851 C1073.41,888.451 1073.11,887.051 1072.41,885.851"/>
<path class="Note" d="M1213.59,873.35 C1212.09,870.65 1209.19,868.95 1205.29,868.55 C1204.69,868.45 1204.19,868.45 1203.59,868.45 C1200.09,868.45 1196.29,869.45 1192.79,871.35 C1186.19,874.95 1182.09,880.85 1182.09,885.95 C1182.09,887.35 1182.29,888.65 1182.99,889.85 C1184.49,892.55 1187.49,894.25 1191.39,894.65 C1191.99,894.75 1192.49,894.75 1193.09,894.75 C1196.59,894.75 1200.29,893.75 1203.79,891.85 C1210.39,888.25 1214.59,882.45 1214.59,877.35 C1214.59,875.95 1214.29,874.55 1213.59,873.35"/>
<path class="Note" d="M1354.76,848.349 C1353.26,845.649 1350.36,843.949 1346.46,843.549 C1345.86,843.449 1345.36,843.449 1344.76,843.449 C1341.26,843.449 1337.46,844.449 1333.96,846.349 C1327.36,849.949 1323.26,855.849 1323.26,860.949 C1323.26,862.349 1323.46,863.649 1324.16,864.849 C1325.66,867.549 1328.66,869.249 1332.56,869.649 C1333.16,869.749 1333.66,869.749 1334.26,869.749 C1337.76,869.749 1341.46,868.749 1344.96,866.849 C1351.56,863.249 1355.76,857.449 1355.76,852.349 C1355.76,850.949 1355.46,849.549 1354.76,848.349"/>
<path class="Note" d="M1495.94,848.349 C1494.44,845.649 1491.54,843.949 1487.64,843.549 C1487.04,843.449 1486.54,843.449 1485.94,843.449 C1482.44,843.449 1478.64,844.449 1475.14,846.349 C1468.54,849.949 1464.44,855.849 1464.44,860.949 C1464.44,862.349 1464.64,863.649 1465.34,864.849 C1466.84,867.549 1469.84,869.249 1473.74,869.649 C1474.34,869.749 1474.84,869.749 1475.44,869.749 C1478.94,869.749 1482.64,868.749 1486.14,866.849 C1492.74,863.249 1496.94,857.449 1496.94,852.349 C1496.94,850.949 1496.64,849.549 1495.94,848.349"/>
<path class="Note" d="M1682.86,848.349 C1681.36,845.649 1678.46,843.949 1674.56,843.549 C1673.96,843.449 1673.46,843.449 1672.86,843.449 C1669.36,843.449 1665.56,844.449 1662.06,846.349 C1655.46,849.949 1651.36,855.849 1651.36,860.949 C1651.36,862.349 1651.56,863.649 1652.26,864.849 C1653.76,867.549 1656.76,869.249 1660.66,869.649 C1661.26,869.749 1661.76,869.749 1662.36,869.749 C1665.86,869.749 1669.56,868.749 1673.06,866.849 C1679.66,863.249 1683.86,857.449 1683.86,852.349 C1683.86,850.949 1683.56,849.549 1682.86,848.349"/>
<path class="Note" d="M1829.38,873.35 C1827.88,870.65 1824.98,868.95 1821.08,868.55 C1820.48,868.45 1819.98,868.45 1819.38,868.45 C1815.88,868.45 1812.08,869.45 1808.58,871.35 C1801.98,874.95 1797.88,880.85 1797.88,885.95 C1797.88,887.35 1798.08,888.65 1798.78,889.85 C1800.28,892.55 1803.28,894.25 1807.18,894.65 C1807.78,894.75 1808.28,894.75 1808.88,894.75 C1812.38,894.75 1816.08,893.75 1819.58,891.85 C1826.18,888.25 1830.38,882.45 1830.38,877.35 C1830.38,875.95 1830.08,874.55 1829.38,873.35"/>
<path class="Note" d="M1975.89,885.851 C1974.39,883.151 1971.49,881.451 1967.59,881.051 C1966.99,880.951 1966.49,880.951 1965.89,880.951 C1962.39,880.951 1958.59,881.951 1955.09,883.851 C1948.49,887.451 1944.39,893.351 1944.39,898.451 C1944.39,899.851 1944.59,901.151 1945.29,902.351 C1946.79,905.051 1949.79,906.751 1953.69,907.151 C1954.29,907.251 1954.79,907.251 1955.39,907.251 C1958.89,907.251 1962.59,906.251 1966.09,904.351 C1972.69,900.751 1976.89,894.951 1976.89,889.851 C1976.89,888.451 1976.59,887.051 1975.89,885.851"/>
<path class="Note" d="M2122.41,898.352 C2120.91,895.652 2118.01,893.952 2114.11,893.552 C2113.51,893.452 2113.01,893.452 2112.41,893.452 C2108.91,893.452 2105.11,894.452 2101.61,896.352 C2095.01,899.952 2090.91,905.852 2090.91,910.952 C2090.91,912.352 2091.11,913.652 2091.81,914.852 C2093.31,917.552 2096.31,919.252 2100.21,919.652 C2100.81,919.752 2101.31,919.752 2101.91,919.752 C2105.41,919.752 2109.11,918.752 2112.61,916.852 C2119.21,913.252 2123.41,907.452 2123.41,902.352 C2123.41,900.952 2123.11,899.552 2122.41,898.352"/>
<path class="Note" d="M2305.92,910.853 C2304.42,908.153 2301.52,906.453 2297.62,906.053 C2297.02,905.953 2296.52,905.953 2295.92,905.953 C2292.42,905.953 2288.62,906.953 2285.12,908.853 C2278.52,912.453 2274.42,918.353 2274.42,923.453 C2274.42,924.853 2274.62,926.153 2275.32,927.353 C2276.82,930.053 2279.82,931.753 2283.72,932.153 C2284.32,932.253 2284.82,932.253 2285.42,932.253 C2288.92,932.253 2292.62,931.253 2296.12,929.353 C2302.72,925.753 2306.92,919.953 2306.92,914.853 C2306.92,913.453 2306.62,912.053 2305.92,910.853"/>
<path class="Note" d="M2433.2,923.353 C2431.7,920.653 2428.8,918.953 2424.9,918.553 C2424.3,918.453 2423.8,918.453 2423.2,918.453 C2419.7,918.453 2415.9,919.453 2412.4,921.353 C2405.8,924.953 2401.7,930.853 2401.7,935.953 C2401.7,937.353 2401.9,938.653 2402.6,939.853 C2404.1,942.553 2407.1,944.253 2411,944.653 C2411.6,944.753 2412.1,944.753 2412.7,944.753 C2416.2,944.753 2419.9,943.753 2423.4,941.853 C2430,938.253 2434.2,932.453 2434.2,927.353 C2434.2,925.953 2433.9,924.553 2433.2,923.353"/>
<path class="Note" d="M2560.48,935.854 C2558.98,933.154 2556.08,931.454 2552.18,931.054 C2551.58,930.954 2551.08,930.954 2550.48,930.954 C2546.98,930.954 2543.18,931.954 2539.68,933.854 C2533.08,937.454 2528.98,943.254 2528.98,948.354 C2528.98,949.754 2529.38,951.154 2530.08,952.354 C2531.58,955.154 2534.38,956.754 2538.28,957.154 C2538.88,957.254 2539.38,957.254 2539.98,957.254 C2543.48,957.254 2547.28,956.254 2550.78,954.354 C2557.38,950.754 2561.48,944.854 2561.48,939.754 C2561.48,938.354 2561.18,937.054 2560.48,935.854 M2556.28,942.154 C2554.58,943.954 2551.38,946.254 2547.78,948.354 C2544.18,950.454 2540.48,952.154 2538.18,952.854 C2537.68,952.954 2537.08,953.054 2536.58,953.054 C2535.08,953.054 2533.78,952.354 2533.08,951.254 C2532.78,950.654 2532.58,950.054 2532.58,949.454 C2532.58,948.354 2533.08,947.254 2534.18,946.054 C2535.88,944.254 2539.08,941.854 2542.68,939.754 C2546.28,937.654 2549.98,935.954 2552.38,935.354 L2552.58,935.354 C2553.18,935.154 2553.68,935.054 2554.18,935.054 C2555.58,935.054 2556.68,935.654 2557.38,936.954 C2557.68,937.554 2557.88,938.054 2557.88,938.654 C2557.88,939.954 2557.18,941.254 2556.28,942.154"/>
<path class="Note" d="M486.502,735.842 C485.002,733.142 482.102,731.442 478.202,731.042 C477.602,730.942 477.102,730.942 476.502,730.942 C473.002,730.942 469.202,731.942 465.702,733.842 C459.102,737.442 455.002,743.342 455.002,748.442 C455.002,749.842 455.202,751.142 455.902,752.342 C457.402,755.042 460.402,756.742 464.302,757.142 C464.902,757.242 465.402,757.242 466.002,757.242 C469.502,757.242 473.202,756.242 476.702,754.342 C483.302,750.742 487.502,744.942 487.502,739.842 C487.502,738.442 487.202,737.042 486.502,735.842"/>
<path class="Note" d="M621.541,723.341 C620.041,720.641 617.141,718.941 613.241,718.541 C612.641,718.441 612.141,718.441 611.541,718.441 C608.041,718.441 604.241,719.441 600.741,721.341 C594.141,724.941 590.041,730.841 590.041,735.941 C590.041,737.341 590.241,738.641 590.941,739.841 C592.441,742.541 595.441,744.241 599.341,744.641 C599.941,744.741 600.441,744.741 601.041,744.741 C604.541,744.741 608.241,743.741 611.741,741.841 C618.341,738.241 622.541,732.441 622.541,727.341 C622.541,725.941 622.241,724.541 621.541,723.341"/>
<path class="Note" d="M756.58,710.84 C755.08,708.14 752.18,706.44 748.28,706.04 C747.68,705.94 747.18,705.94 746.58,705.94 C743.08,705.94 739.28,706.94 735.78,708.84 C729.18,712.44 725.08,718.34 725.08,723.44 C725.08,724.84 725.28,726.14 725.98,727.34 C727.48,730.04 730.48,731.74 734.38,732.14 C734.98,732.24 735.48,732.24 736.08,732.24 C739.58,732.24 743.28,731.24 746.78,729.34 C753.38,725.74 757.58,719.94 757.58,714.84 C757.58,713.44 757.28,712.04 756.58,710.84"/>
<path class="Note" d="M891.619,698.339 C890.119,695.639 887.219,693.939 883.319,693.539 C882.719,693.439 882.219,693.439 881.619,693.439 C878.119,693.439 874.319,694.439 870.819,696.339 C864.219,699.939 860.119,705.839 860.119,710.939 C860.119,712.339 860.319,713.639 861.019,714.839 C862.519,717.539 865.519,719.239 869.419,719.639 C870.019,719.739 870.519,719.739 871.119,719.739 C874.619,719.739 878.319,718.739 881.819,716.839 C888.419,713.239 892.619,707.439 892.619,702.339 C892.619,700.939 892.319,699.539 891.619,698.339"/>
<path class="Note" d="M1072.41,685.838 C1070.91,683.138 1068.01,681.438 1064.11,681.038 C1063.51,680.938 1063.01,680.938 1062.41,680.938 C1058.91,680.938 1055.11,681.938 1051.61,683.838 C1045.01,687.438 1040.91,693.338 1040.91,698.438 C1040.91,699.838 1041.11,701.138 1041.81,702.338 C1043.31,705.038 1046.31,706.738 1050.21,707.138 C1050.81,707.238 1051.31,707.238 1051.91,707.238 C1055.41,707.238 1059.11,706.238 1062.61,704.338 C1069.21,700.738 1073.41,694.938 1073.41,689.838 C1073.41,688.438 1073.11,687.038 1072.41,685.838"/>
<path class="Note" d="M1213.59,673.338 C1212.09,670.638 1209.19,668.938 1205.29,668.538 C1204.69,668.438 1204.19,668.438 1203.59,668.438 C1200.09,668.438 1196.29,669.438 1192.79,671.338 C1186.19,674.938 1182.09,680.838 1182.09,685.938 C1182.09,687.338 1182.29,688.638 1182.99,689.838 C1184.49,692.538 1187.49,694.238 1191.39,694.638 C1191.99,694.738 1192.49,694.738 1193.09,694.738 C1196.59,694.738 1200.29,693.738 1203.79,691.838 C1210.39,688.238 1214.59,682.438 1214.59,677.338 C1214.59,675.938 1214.29,674.538 1213.59,673.338"/>
<path class="Note" d="M1354.76,648.336 C1353.26,645.636 1350.36,643.936 1346.46,643.536 C1345.86,643.436 1345.36,643.436 1344.76,643.436 C1341.26,643.436 1337.46,644.436 1333.96,646.336 C1327.36,649.936 1323.26,655.836 1323.26,660.936 C1323.26,662.336 1323.46,663.636 1324.16,664.836 C1325.66,667.536 1328.66,669.236 1332.56,669.636 C1333.16,669.736 1333.66,669.736 1334.26,669.736 C1337.76,669.736 1341.46,668.736 1344.96,666.836 C1351.56,663.236 1355.76,657.436 1355.76,652.336 C1355.76,650.936 1355.46,649.536 1354.76,648.336"/>
<path class="Note" d="M1495.94,648.336 C1494.44,645.636 1491.54,643.936 1487.64,643.536 C1487.04,643.436 1486.54,643.436 1485.94,643.436 C1482.44,643.436 1478.64,644.436 1475.14,646.336 C1468.54,649.936 1464.44,655.836 1464.44,660.936 C1464.44,662.336 1464.64,663.636 1465.34,664.836 C1466.84,667.536 1469.84,669.236 1473.74,669.636 C1474.34,669.736 1474.84,669.736 1475.44,669.736 C1478.94,669.736 1482.64,668.736 1486.14,666.836 C1492.74,663.236 1496.94,657.436 1496.94,652.336 C1496.94,650.936 1496.64,649.536 1495.94,648.336"/>
<path class="Note" d="M1682.86,648.336 C1681.36,645.636 1678.46,643.936 1674.56,643.536 C1673.96,643.436 1673.46,643.436 1672.86,643.436 C1669.36,643.436 1665.56,644.436 1662.06,646.336 C1655.46,649.936 1651.36,655.836 1651.36,660.936 C1651.36,662.336 1651.56,663.636 1652.26,664.836 C1653.76,667.536 1656.76,669.236 1660.66,669.636 C1661.26,669.736 1661.76,669.736 1662.36,669.736 C1665.86,669.736 1669.56,668.736 1673.06,666.836 C1679.66,663.236 1683.86,657.436 1683.86,652.336 C1683.86,650.936 1683.56,649.536 1682.86,648.336"/>
<path class="Note" d="M1829.38,673.338 C1827.88,670.638 1824.98,668.938 1821.08,668.538 C1820.48,668.438 1819.98,668.438 1819.38,668.438 C1815.88,668.438 1812.08,669.438 1808.58,671.338 C1801.98,674.938 1797.88,680.838 1797.88,685.938 C1797.88,687.338 1798.08,688.638 1798.78,689.838 C1800.28,692.538 1803.28,694.238 1807.18,694.638 C1807.78,694.738 1808.28,694.738 1808.88,694.738 C1812.38,694.738 1816.08,693.738 1819.58,691.838 C1826.18,688.238 1830.38,682.438 1830.38,677.338 C1830.38,675.938 1830.08,674.538 1829.38,673.338"/>
<path class="Note" d="M1975.89,685.838 C1974.39,683.138 1971.49,681.438 1967.59,681.038 C1966.99,680.938 1966.49,680.938 1965.89,680.938 C1962.39,680.938 1958.59,681.938 1955.09,683.838 C1948.49,687.438 1944.39,693.338 1944.39,698.438 C1944.39,699.838 1944.59,701.138 1945.29,702.338 C1946.79,705.038 1949.79,706.738 1953.69,707.138 C1954.29,707.238 1954.79,707.238 1955.39,707.238 C1958.89,707.238 1962.59,706.238 1966.09,704.338 C1972.69,700.738 1976.89,694.938 1976.89,689.838 C1976.89,688.438 1976.59,687.038 1975.89,685.838"/>
<path class="Note" d="M2122.41,698.339 C2120.91,695.639 2118.01,693.939 2114.11,693.539 C2113.51,693.439 2113.01,693.439 2112.41,693.439 C2108.91,693.439 2105.11,694.439 2101.61,696.339 C2095.01,699.939 2090.91,705.839 2090.91,710.939 C2090.91,712.339 2091.11,713.639 2091.81,714.839 C2093.31,717.539 2096.31,719.239 2100.21,719.639 C2100.81,719.739 2101.31,719.739 2101.91,719.739 C2105.41,719.739 2109.11,718.739 2112.61,716.839 C2119.21,713.239 2123.41,707.439 2123.41,702.339 C2123.41,700.939 2123.11,699.539 2122.41,698.339"/>
<path class="Note" d="M2305.92,710.84 C2304.42,708.14 2301.52,706.44 2297.62,706.04 C2297.02,705.94 2296.52,705.94 2295.92,705.94 C2292.42,705.94 2288.62,706.94 2285.12,708.84 C2278.52,712.44 2274.42,718.34 2274.42,723.44 C2274.42,724.84 2274.62,726.14 2275.32,727.34 C2276.82,730.04 2279.82,731.74 2283.72,732.14 C2284.32,732.24 2284.82,732.24 2285.42,732.24 C2288.92,732.24 2292.62,731.24 2296.12,729.34 C2302.72,725.74 2306.92,719.94 2306.92,714.84 C2306.92,713.44 2306.62,712.04 2305.92,710.84"/>
<path class="Note" d="M2433.2,723.341 C2431.7,720.641 2428.8,718.941 2424.9,718.541 C2424.3,718.441 2423.8,718.441 2423.2,718.441 C2419.7,718.441 2415.9,719.441 2412.4,721.341 C2405.8,724.941 2401.7,730.841 2401.7,735.941 C2401.7,737.341 2401.9,738.641 2402.6,739.841 C2404.1,742.541 2407.1,744.241 2411,744.641 C2411.6,744.741 2412.1,744.741 2412.7,744.741 C2416.2,744.741 2419.9,743.741 2423.4,741.841 C2430,738.241 2434.2,732.441 2434.2,727.341 C2434.2,725.941 2433.9,724.541 2433.2,723.341"/>
<path class="Note" d="M2560.48,735.842 C2558.98,733.142 2556.08,731.442 2552.18,731.042 C2551.58,730.942 2551.08,730.942 2550.48,730.942 C2546.98,730.942 2543.18,731.942 2539.68,733.842 C2533.08,737.442 2528.98,743.242 2528.98,748.342 C2528.98,749.742 2529.38,751.142 2530.08,752.342 C2531.58,755.142 2534.38,756.742 2538.28,757.142 C2538.88,757.242 2539.38,757.242 2539.98,757.242 C2543.48,757.242 2547.28,756.242 2550.78,754.342 C2557.38,750.742 2561.48,744.842 2561.48,739.742 C2561.48,738.342 2561.18,737.042 2560.48,735.842 M2556.28,742.142 C2554.58,743.942 2551.38,746.242 2547.78,748.342 C2544.18,750.442 2540.48,752.142 2538.18,752.842 C2537.68,752.942 2537.08,753.042 2536.58,753.042 C2535.08,753.042 2533.78,752.342 2533.08,751.242 C2532.78,750.642 2532.58,750.042 2532.58,749.442 C2532.58,748.342 2533.08,747.242 2534.18,746.042 C2535.88,744.242 2539.08,741.842 2542.68,739.742 C2546.28,737.642 2549.98,735.942 2552.38,735.342 L2552.58,735.342 C2553.18,735.142 2553.68,735.042 2554.18,735.042 C2555.58,735.042 2556.68,735.642 2557.38,736.942 C2557.68,737.542 2557.88,738.042 2557.88,738.642 C2557.88,739.942 2557.18,741.242 2556.28,742.142"/>
<path class="Clef" d="M297,918.954 C289.4,918.954 283.3,923.354 283.2,923.354 C277.4,927.654 275.1,932.754 274.2,936.254 C273.7,938.054 273.5,939.854 273.5,941.554 C273.5,943.954 273.9,946.154 274.8,948.054 C276,950.754 278.3,952.654 281.3,953.654 C282.5,954.054 283.8,954.254 285.1,954.254 C287.3,954.254 289.6,953.654 291.5,952.554 C294.6,950.854 296.5,947.254 296.5,943.354 C296.5,939.854 294.7,936.654 291.7,934.754 C289.6,933.354 287.6,932.954 285.9,932.954 C284.7,932.954 283.6,933.154 282.7,933.454 C281.7,933.854 280,934.854 279.2,935.554 C279.5,933.654 280.7,930.754 281.8,929.154 C282.9,927.554 285.1,925.554 286.8,924.654 C289.3,923.254 292.5,922.654 296,922.654 C306.2,922.654 311.2,930.854 311.2,947.654 C311.2,956.954 307.7,965.854 304.7,971.754 C301.4,978.354 297,984.654 293.1,988.154 C282.7,997.654 272.9,1002.15 272.8,1002.15 C272.8,1002.15 271.3,1003.05 271.7,1004.55 C272,1005.55 272.9,1005.75 273.5,1005.75 C273.6,1005.75 273.9,1005.65 274,1005.65 C274.1,1005.65 285.5,1000.95 294.6,993.854 C299.7,990.154 304.3,986.154 308.3,981.854 C311.9,977.954 315,973.754 317.5,969.554 C321.9,962.054 324.4,954.254 324.4,947.554 C324.4,939.254 322.2,932.354 318.1,927.454 C313.4,921.854 306.3,918.954 297,918.954 M328.4,931.654 C328.4,934.454 330.6,936.654 333.2,936.654 C335.8,936.654 338,934.454 338,931.654 C338,928.854 335.8,926.554 333.2,926.554 C330.6,926.554 328.4,928.854 328.4,931.654 M328.4,956.354 C328.4,959.154 330.6,961.454 333.2,961.454 C335.8,961.454 338,959.154 338,956.354 C338,953.554 335.8,951.254 333.2,951.254 C330.6,951.254 328.4,953.554 328.4,956.354"/>
<path class="Clef" d="M335,725.641 C333.8,720.241 331.1,716.341 330.3,715.341 C327.1,711.041 323.1,708.241 318.4,706.841 C316.1,706.141 314,705.941 312,705.941 C311.3,705.941 310.6,705.941 309.9,706.041 C308.9,700.041 307.8,694.141 306.9,688.741 C312.5,682.541 316.2,676.641 318.6,672.241 C322.2,665.541 323.6,660.841 323.7,660.641 C324.9,657.641 325.6,653.841 325.6,649.341 C325.6,646.641 325.3,643.741 324.9,640.741 C323.8,633.641 321.6,626.941 319.1,623.241 C317.8,621.341 316.6,620.241 315.4,620.241 C314.2,620.241 311.7,621.441 308.8,624.241 C306.5,626.441 303.2,630.341 300.6,636.341 C298.3,641.741 297.6,648.641 297.6,654.541 C297.6,656.341 297.7,658.041 297.8,659.641 C298,663.241 298.7,669.041 299.3,672.641 C299.3,672.741 299.6,674.241 300,676.841 L299.3,677.541 C298.3,678.541 297.1,679.641 295.7,681.041 C294.8,681.941 293.9,682.741 292.9,683.741 C284.4,691.941 271.6,704.341 271.6,723.441 C271.6,728.141 272.5,732.541 274.3,736.541 C275.9,740.141 278.2,743.441 281.1,746.341 C288.6,753.741 298.8,756.941 305.9,756.941 L306.5,756.941 C309.4,756.841 312.1,756.541 314.5,756.141 C316.3,765.741 317.5,772.841 317.5,778.141 C317.5,784.641 315.9,788.541 312,791.341 C309.6,793.041 306.7,794.141 303.6,794.241 L302.8,794.241 C301.3,794.241 298.8,793.841 297.3,793.441 C297.3,793.441 297,793.341 297,793.141 C297,792.941 297.4,792.941 297.4,792.941 C299.3,792.541 302.9,791.241 305.3,787.941 C306.4,786.441 307.1,784.141 307.1,781.641 C307.1,780.041 306.8,778.341 306.1,776.841 C305,774.441 302.4,771.441 296.8,771.041 L295.7,771.041 C293.6,771.041 291.8,771.541 290.1,772.541 C288.3,773.641 286.7,775.341 285.7,777.341 C284.6,779.341 284.1,781.541 284.1,783.741 C284.1,786.641 285,789.341 286.8,791.541 C289.8,795.141 294.5,797.441 299.9,798.041 C300.6,798.141 301.7,798.241 302.4,798.241 C306.8,798.241 311.2,797.041 314.8,794.841 C318.5,792.241 320.6,788.241 321.3,782.641 C321.5,781.341 321.5,779.941 321.5,778.441 C321.5,774.541 321,769.841 320,764.041 C319.6,761.941 319.2,758.941 318.5,755.141 C324.3,753.241 328.4,749.541 332.2,743.741 C334.5,739.741 335.6,735.641 335.6,731.341 C335.6,729.441 335.4,727.541 335,725.641 M304.8,647.741 C306.6,642.041 309.3,638.641 311.3,636.941 C313.1,635.441 314.7,634.741 315.6,634.741 C315.7,634.741 315.9,634.841 316,634.841 C316.3,634.941 316.7,635.441 317.1,636.141 C318,637.941 318.9,641.241 318.9,644.941 C318.9,646.841 318.7,648.841 318.1,650.641 C315.9,657.441 311.3,664.741 304.3,672.441 C304.1,671.341 303.9,670.341 303.8,669.341 C303.3,666.141 303,662.941 303,660.041 C303,655.541 303.6,651.441 304.8,647.741 M300.8,751.841 C296.2,750.641 291.7,748.141 287.9,744.641 C286.6,743.441 284.8,741.241 283.3,737.841 C282,734.841 281.3,731.741 281.3,728.341 L281.3,727.641 C281.4,722.941 282.7,718.141 285.2,713.341 C288.1,707.741 292.6,702.241 298.7,696.941 C300.2,695.641 301.6,694.341 302.9,693.041 C303.7,697.341 304.4,702.041 305.3,706.941 C301.4,708.241 296.7,711.241 293.6,716.941 C291.2,721.441 290.5,725.341 290.5,728.541 C290.5,730.041 290.7,731.441 290.9,732.541 C291.8,737.041 294.4,740.741 297.9,742.841 C298.7,743.341 302,745.041 304,745.041 C304.3,745.041 304.6,745.041 304.8,744.941 C305.1,744.841 305.4,744.641 305.5,744.341 C305.6,744.141 305.6,743.941 305.6,743.741 C305.6,742.941 304.8,742.341 303.5,741.541 C302.9,741.141 302.2,740.741 301.5,740.241 C298.9,738.241 297.4,735.141 297.4,731.741 C297.4,730.741 297.6,729.841 297.8,728.841 C298.3,726.841 300,724.041 301.5,722.641 C303.2,721.141 305.2,719.941 307.6,719.341 C309.6,730.541 311.7,741.641 313.3,750.041 C313.4,750.741 313.6,751.441 313.7,752.141 C311.7,752.541 309.7,752.741 307.8,752.741 C305.4,752.741 303.1,752.441 300.8,751.841 M326.5,741.641 C325.3,744.841 322.8,748.841 317.7,750.941 C317.6,750.541 317.6,750.041 317.5,749.641 C316,740.841 314.1,729.941 312.1,718.641 L313.1,718.641 C322.8,718.641 326.7,725.841 327.6,730.441 C327.8,731.341 327.9,732.541 327.9,733.841 C327.9,736.141 327.5,738.941 326.5,741.641"/>
<path class="TimeSig" d="M365.2,957.453 L382,957.453 L382,964.753 L373.9,964.753 C373.1,964.753 372.5,965.353 372.5,966.153 L372.5,968.053 C372.5,968.853 373.1,969.353 373.9,969.353 L403.6,969.353 C404.4,969.353 405,968.853 405,968.053 L405,966.153 C405,965.353 404.4,964.753 403.6,964.753 L394.8,964.753 L394.8,957.453 L403.6,957.453 C404.4,957.453 405,956.853 405,956.053 L405,954.253 C405,953.453 404.4,952.853 403.6,952.853 L394.8,952.853 L394.8,937.153 C394.8,936.653 394.4,936.153 394,935.953 L392.9,935.353 C392.7,935.253 392.4,935.253 392.2,935.253 C391.9,935.253 391.5,935.353 391.3,935.553 L382.4,943.753 C382.2,943.953 382,944.453 382,944.753 L382,952.853 L370.7,952.853 C370.7,952.853 381.6,941.053 393.2,925.553 C394,924.453 393.6,923.453 393.4,923.253 L391.3,921.053 C391.1,920.853 390.6,920.653 390.3,920.653 L375.7,920.653 C375,920.653 374.5,921.253 374.4,921.853 C374.4,921.853 373.9,929.053 371.3,937.053 C368.7,945.053 365.9,949.853 363.3,953.453 C363.3,953.453 362.8,954.453 363.1,955.153 C363.4,955.853 364.1,956.953 364.1,956.953 C364.1,956.953 364.4,957.453 365.2,957.453"/>
<path class="TimeSig" d="M365.2,1006.06 L382,1006.06 L382,1013.36 L373.9,1013.36 C373.1,1013.36 372.5,1013.96 372.5,1014.76 L372.5,1016.66 C372.5,1017.46 373.1,1017.96 373.9,1017.96 L403.6,1017.96 C404.4,1017.96 405,1017.46 405,1016.66 L405,1014.76 C405,1013.96 404.4,1013.36 403.6,1013.36 L394.8,1013.36 L394.8,1006.06 L403.6,1006.06 C404.4,1006.06 405,1005.46 405,1004.66 L405,1002.86 C405,1002.06 404.4,1001.46 403.6,1001.46 L394.8,1001.46 L394.8,985.758 C394.8,985.258 394.4,984.758 394,984.558 L392.9,983.958 C392.7,983.858 392.4,983.858 392.2,983.858 C391.9,983.858 391.5,983.958 391.3,984.158 L382.4,992.358 C382.2,992.558 382,993.058 382,993.358 L382,1001.46 L370.7,1001.46 C370.7,1001.46 381.6,989.658 393.2,974.158 C394,973.058 393.6,972.058 393.4,971.858 L391.3,969.658 C391.1,969.458 390.6,969.258 390.3,969.258 L375.7,969.258 C375,969.258 374.5,969.858 374.4,970.458 C374.4,970.458 373.9,977.658 371.3,985.658 C368.7,993.658 365.9,998.458 363.3,1002.06 C363.3,1002.06 362.8,1003.06 363.1,1003.76 C363.4,1004.46 364.1,1005.56 364.1,1005.56 C364.1,1005.56 364.4,1006.06 365.2,1006.06"/>
<path class="TimeSig" d="M365.2,694.937 L382,694.937 L382,702.237 L373.9,702.237 C373.1,702.237 372.5,702.837 372.5,703.637 L372.5,705.537 C372.5,706.337 373.1,706.837 373.9,706.837 L403.6,706.837 C404.4,706.837 405,706.337 405,705.537 L405,703.637 C405,702.837 404.4,702.237 403.6,702.237 L394.8,702.237 L394.8,694.937 L403.6,694.937 C404.4,694.937 405,694.337 405,693.537 L405,691.737 C405,690.937 404.4,690.337 403.6,690.337 L394.8,690.337 L394.8,674.637 C394.8,674.137 394.4,673.637 394,673.437 L392.9,672.837 C392.7,672.737 392.4,672.737 392.2,672.737 C391.9,672.737 391.5,672.837 391.3,673.037 L382.4,681.237 C382.2,681.437 382,681.937 382,682.237 L382,690.337 L370.7,690.337 C370.7,690.337 381.6,678.537 393.2,663.037 C394,661.937 393.6,660.937 393.4,660.737 L391.3,658.537 C391.1,658.337 390.6,658.137 390.3,658.137 L375.7,658.137 C375,658.137 374.5,658.737 374.4,659.337 C374.4,659.337 373.9,666.537 371.3,674.537 C368.7,682.537 365.9,687.337 363.3,690.937 C363.3,690.937 362.8,691.937 363.1,692.637 C363.4,693.337 364.1,694.437 364.1,694.437 C364.1,694.437 364.4,694.937 365.2,694.937"/>
<path class="TimeSig" d="M365.2,743.541 L382,743.541 L382,750.841 L373.9,750.841 C373.1,750.841 372.5,751.441 372.5,752.241 L372.5,754.141 C372.5,754.941 373.1,755.441 373.9,755.441 L403.6,755.441 C404.4,755.441 405,754.941 405,754.141 L405,752.241 C405,751.441 404.4,750.841 403.6,750.841 L394.8,750.841 L394.8,743.541 L403.6,743.541 C404.4,743.541 405,742.941 405,742.141 L405,740.341 C405,739.541 404.4,738.941 403.6,738.941 L394.8,738.941 L394.8,723.241 C394.8,722.741 394.4,722.241 394,722.041 L392.9,721.441 C392.7,721.341 392.4,721.341 392.2,721.341 C391.9,721.341 391.5,721.441 391.3,721.641 L382.4,729.841 C382.2,730.041 382,730.541 382,730.841 L382,738.941 L370.7,738.941 C370.7,738.941 381.6,727.141 393.2,711.641 C394,710.541 393.6,709.541 393.4,709.341 L391.3,707.141 C391.1,706.941 390.6,706.741 390.3,706.741 L375.7,706.741 C375,706.741 374.5,707.341 374.4,707.941 C374.4,707.941 373.9,715.141 371.3,723.141 C368.7,731.141 365.9,735.941 363.3,739.541 C363.3,739.541 362.8,740.541 363.1,741.241 C363.4,741.941 364.1,743.041 364.1,743.041 C364.1,743.041 364.4,743.541 365.2,743.541"/>
<path class="Page" d="M222.584,4034.37 C221.054,4036.22 216.914,4037.61 212.774,4037.7 L212.774,4039.64 L216.734,4039.64 C219.344,4039.68 219.614,4039.95 219.524,4042.47 L219.524,4060.52 C219.524,4062.81 219.524,4062.9 219.254,4063.31 C218.894,4063.76 218.039,4063.94 215.519,4063.94 L212.594,4063.94 L212.594,4066.05 L230.414,4066.05 L230.414,4063.94 L227.939,4063.94 C225.419,4063.94 224.564,4063.76 224.204,4063.31 C223.889,4062.9 223.889,4062.86 223.889,4060.52 L223.889,4041.93 C223.889,4039.41 223.979,4037.3 224.204,4034.37 L222.584,4034.37 M240.489,4039.46 C242.919,4040.04 244.134,4040.22 245.934,4040.22 C249.759,4040.22 252.549,4038.92 254.034,4036.4 C254.529,4035.59 254.709,4035.14 254.709,4034.78 C254.709,4034.51 254.619,4034.37 254.349,4034.37 C254.214,4034.37 254.034,4034.42 253.764,4034.55 C251.559,4035.5 250.389,4035.72 247.779,4035.72 C244.899,4035.72 243.099,4035.45 238.509,4034.37 C238.329,4038.15 237.924,4042.97 237.294,4048.55 C236.349,4049.54 236.034,4050.12 236.034,4050.84 C236.034,4051.79 236.619,4052.37 237.474,4052.37 C238.644,4052.37 239.319,4051.43 239.499,4049.63 C241.074,4048.5 242.559,4048.01 244.359,4048.01 C248.409,4048.01 250.794,4051.07 250.794,4056.24 C250.794,4059.26 250.029,4061.82 248.679,4063.22 C247.779,4064.16 245.934,4064.79 244.089,4064.79 C241.389,4064.79 238.599,4063.4 238.599,4062 C238.599,4061.69 238.869,4061.33 239.409,4061.01 C240.804,4060.16 241.209,4059.57 241.209,4058.36 C241.209,4056.78 239.994,4055.57 238.374,4055.57 C236.574,4055.57 235.134,4057.23 235.134,4059.35 C235.134,4061.6 236.439,4063.85 238.464,4065.24 C239.994,4066.23 241.794,4066.73 244.179,4066.73 C251.244,4066.73 255.699,4062.59 255.699,4055.97 C255.699,4049.85 251.649,4045.76 245.529,4045.76 C243.594,4045.76 242.199,4046.07 239.724,4047.11 L240.489,4039.46 "/>
<path class="Bracket" transform="matrix(3.62523,0,0,3.62523,214.469,1019.06)" d="M0.92002,-50 C2.69004,-51.88 6.2,-55.8 6.2,-63 C6.2,-72.1 2.25996,-81.32 2.25996,-86.97 C2.25996,-93.06 5.84004,-98.84 5.95,-99 C6.05996,-99.16 6.05,-99.39 5.94004,-99.46 C5.82998,-99.53 5.62002,-99.47 5.49004,-99.32 C5.35996,-99.17 0,-93.75 0,-85.6 C0,-76.75 3.5,-70.58 3.5,-59.07 C3.5,-56.89 2.55996,-53.36 0.1,-50.33 C-0.0799805,-50.17 -0.1,-49.89 0.0599609,-49.7 L0.0700195,-49.69 L0.1,-49.66 C2.55996,-46.63 3.5,-43.1 3.5,-40.92 C3.5,-29.4 0,-23.24 0,-14.39 C0,-6.25 5.35996,-0.8 5.49004,-0.659961 C5.62002,-0.52002 5.8,-0.42998 5.94004,-0.52002 C6.07998,-0.609961 6.07998,-0.77998 5.95,-0.97998 C5.82002,-1.17998 2.25996,-6.92002 2.25996,-13.01 C2.25996,-18.66 6.2,-27.9 6.2,-37 C6.2,-44.3 2.69004,-48.12 0.92002,-50"/>
</svg>