<?xml version="1.0" encoding="UTF-8" standalone="no"?>
<svg width="1000px" height="500px" viewBox="150 650 2700 1000" xmlns="http://www.w3.org/2000/svg" xmlns:xlink="http://www.w3.org/1999/xlink" version="1.2" baseProfile="tiny">
 xmlns="http://www.w3.org/2000/svg" xmlns:xlink="http://www.w3.org/1999/xlink" version="1.2" baseProfile="tiny">
<title>exercises_scores (17)</title>
<desc>Generated by MuseScore 3.6.0</desc>
<polyline class="StaffLines" fill="none" stroke="#000000" stroke-width="2.75" stroke-linejoin="bevel" points="247.099,645.317 2764.63,645.317"/>
<polyline class="StaffLines" fill="none" stroke="#000000" stroke-width="2.75" stroke-linejoin="bevel" points="247.099,670.319 2764.63,670.319"/>
<polyline class="StaffLines" fill="none" stroke="#000000" stroke-width="2.75" stroke-linejoin="bevel" points="247.099,695.32 2764.63,695.32"/>
<polyline class="StaffLines" fill="none" stroke="#000000" stroke-width="2.75" stroke-linejoin="bevel" points="247.099,720.322 2764.63,720.322"/>
<polyline class="StaffLines" fill="none" stroke="#000000" stroke-width="2.75" stroke-linejoin="bevel" points="247.099,745.324 2764.63,745.324"/>
<polyline class="StaffLines" fill="none" stroke="#000000" stroke-width="2.75" stroke-linejoin="bevel" points="247.099,907.834 2764.63,907.834"/>
<polyline class="StaffLines" fill="none" stroke="#000000" stroke-width="2.75" stroke-linejoin="bevel" points="247.099,932.835 2764.63,932.835"/>
<polyline class="StaffLines" fill="none" stroke="#000000" stroke-width="2.75" stroke-linejoin="bevel" points="247.099,957.837 2764.63,957.837"/>
<polyline class="StaffLines" fill="none" stroke="#000000" stroke-width="2.75" stroke-linejoin="bevel" points="247.099,982.839 2764.63,982.839"/>
<polyline class="StaffLines" fill="none" stroke="#000000" stroke-width="2.75" stroke-linejoin="bevel" points="247.099,1007.84 2764.63,1007.84"/>
<polyline class="StaffLines" fill="none" stroke="#000000" stroke-width="2.75" stroke-linejoin="bevel" points="247.099,1257.86 2764.63,1257.86"/>
<polyline class="StaffLines" fill="none" stroke="#000000" stroke-width="2.75" stroke-linejoin="bevel" points="247.099,1282.86 2764.63,1282.86"/>
<polyline class="StaffLines" fill="none" stroke="#000000" stroke-width="2.75" stroke-linejoin="bevel" points="247.099,1307.86 2764.63,1307.86"/>
<polyline class="StaffLines" fill="none" stroke="#000000" stroke-width="2.75" stroke-linejoin="bevel" points="247.099,1332.86 2764.63,1332.86"/>
<polyline class="StaffLines" fill="none" stroke="#000000" stroke-width="2.75" stroke-linejoin="bevel" points="247.099,1357.86 2764.63,1357.86"/>
<polyline class="StaffLines" fill="none" stroke="#000000" stroke-width="2.75" stroke-linejoin="bevel" points="247.099,1520.37 2764.63,1520.37"/>
<polyline class="StaffLines" fill="none" stroke="#000000" stroke-width="2.75" stroke-linejoin="bevel" points="247.099,1545.37 2764.63,1545.37"/>
<polyline class="StaffLines" fill="none" stroke="#000000" stroke-width="2.75" stroke-linejoin="bevel" points="247.099,1570.38 2764.63,1570.38"/>
<polyline class="StaffLines" fill="none" stroke="#000000" stroke-width="2.75" stroke-linejoin="bevel" points="247.099,1595.38 2764.63,1595.38"/>
<polyline class="StaffLines" fill="none" stroke="#000000" stroke-width="2.75" stroke-linejoin="bevel" points="247.099,1620.38 2764.63,1620.38"/>
<path class="Text" d="M242.312,213.137 L240.092,213.137 L237.692,216.737 C234.812,214.037 231.032,212.597 226.772,212.597 C218.852,212.597 213.632,217.577 213.632,225.137 C213.632,231.677 216.872,234.917 225.692,237.197 L231.392,238.637 C235.832,239.777 236.252,239.897 237.512,240.857 C239.312,242.237 240.272,244.217 240.272,246.557 C240.272,248.957 239.372,250.937 237.572,252.617 C235.592,254.297 233.612,254.957 230.312,254.957 C225.872,254.957 222.692,253.577 219.872,250.457 C217.352,247.697 216.092,244.817 215.192,240.197 L212.612,240.197 L212.852,257.297 L215.192,257.297 L217.892,253.217 C221.912,256.517 225.212,257.717 230.492,257.717 C239.312,257.717 244.952,252.557 244.952,244.517 C244.952,240.737 243.752,237.617 241.352,235.337 C239.732,233.777 237.392,232.757 232.592,231.557 L226.172,229.937 C220.832,228.557 218.312,226.217 218.312,222.557 C218.312,218.357 221.732,215.477 226.832,215.477 C231.032,215.477 234.452,217.277 236.852,220.697 C238.592,223.157 239.732,225.677 240.452,228.737 L243.032,228.737 L242.312,213.137 M271.162,247.997 C269.242,252.317 267.202,254.057 264.082,254.057 C259.282,254.057 256.282,249.677 256.282,242.657 C256.282,235.337 259.222,230.537 263.662,230.537 C265.462,230.537 267.022,231.377 267.022,232.337 C267.022,232.517 266.962,232.697 266.662,233.057 C265.702,234.197 265.462,234.797 265.462,235.817 C265.462,237.797 266.962,239.177 269.062,239.177 C271.222,239.177 272.722,237.497 272.722,235.097 C272.722,231.017 268.702,227.957 263.362,227.957 C255.562,227.957 249.982,234.317 249.982,243.317 C249.982,251.837 255.082,257.717 262.522,257.717 C267.862,257.717 270.922,255.257 273.502,248.897 L271.162,247.997 M301.75,237.497 C301.75,233.717 301.09,231.797 299.35,230.357 C297.37,228.737 294.43,227.957 290.59,227.957 C283.81,227.957 278.89,231.137 278.89,235.517 C278.89,237.737 280.27,239.177 282.37,239.177 C284.29,239.177 285.61,237.917 285.61,236.117 C285.61,235.337 285.31,234.497 284.71,233.657 C284.35,233.237 284.29,233.117 284.29,232.817 C284.29,231.617 286.69,230.537 289.57,230.537 C291.49,230.537 293.59,231.137 294.55,232.037 C295.69,232.997 296.11,234.437 296.11,237.137 L296.11,239.477 C289.87,240.557 287.89,241.037 284.95,242.177 C279.73,244.097 277.27,246.857 277.27,250.697 C277.27,255.017 280.63,257.717 285.97,257.717 C290.11,257.717 293.83,256.037 296.41,252.977 C297.37,256.037 298.87,257.237 301.69,257.237 C304.39,257.237 307.21,255.497 307.21,253.757 C307.21,253.337 306.97,253.037 306.61,253.037 C306.37,253.037 306.13,253.097 305.71,253.277 C304.87,253.637 304.51,253.697 304.03,253.697 C302.35,253.697 301.75,252.617 301.75,249.557 L301.75,237.497 M296.11,244.817 C296.11,248.417 295.93,249.257 294.91,250.817 C293.41,253.037 290.71,254.537 288.07,254.537 C285.31,254.537 283.33,252.557 283.33,249.857 C283.33,247.337 284.59,245.537 287.23,244.277 C289.09,243.437 291.43,242.837 296.11,242.057 L296.11,244.817 M320.229,212.597 L309.129,213.257 L309.129,215.837 L312.069,215.837 C314.289,215.897 314.589,216.257 314.589,218.837 L314.589,249.437 L314.589,252.257 C314.529,253.157 314.469,253.517 314.229,253.817 C313.809,254.357 312.669,254.597 310.089,254.657 L309.669,254.657 L309.669,256.817 L325.209,256.817 L325.209,254.657 L324.789,254.657 C320.769,254.537 320.229,254.237 320.229,252.077 L320.229,249.437 L320.229,212.597 M354.78,243.317 C354.84,234.317 349.74,227.957 342.42,227.957 C334.74,227.957 328.98,234.617 328.98,243.617 C328.98,252.077 334.44,257.717 342.54,257.717 C348.3,257.717 352.32,254.897 354.78,249.197 L352.68,248.057 C350.22,252.677 347.7,254.477 343.68,254.477 C340.62,254.477 338.4,253.217 336.84,250.517 C335.76,248.717 335.28,246.617 335.34,243.317 L354.78,243.317 M335.4,240.737 C335.4,238.877 335.64,237.557 336.24,235.877 C337.5,232.277 339.42,230.537 342.36,230.537 C345.96,230.537 348.36,233.717 348.36,238.577 C348.36,240.257 347.82,240.737 345.9,240.737 L335.4,240.737 M366.601,250.157 C364.501,250.157 362.821,251.837 362.821,253.877 C362.821,255.977 364.501,257.657 366.541,257.657 C368.641,257.657 370.321,255.977 370.321,253.877 C370.321,251.837 368.641,250.157 366.601,250.157 M366.601,228.437 C364.501,228.437 362.821,230.117 362.821,232.217 C362.821,234.257 364.501,235.937 366.541,235.937 C368.641,235.937 370.321,234.257 370.321,232.157 C370.321,230.117 368.641,228.437 366.601,228.437 M428.805,213.497 L392.745,213.497 L392.745,216.317 L393.825,216.317 C397.245,216.377 398.385,216.557 398.865,217.157 C399.225,217.697 399.225,217.817 399.225,220.877 L399.225,249.437 C399.225,252.497 399.225,252.617 398.865,253.157 C398.385,253.757 397.245,253.997 393.825,253.997 L392.745,253.997 L392.745,256.817 L429.585,256.817 L430.785,240.797 L428.145,240.797 C425.865,251.477 423.405,253.757 414.225,253.997 L410.265,253.997 C406.665,253.877 405.765,253.277 405.945,251.117 L405.945,235.817 L407.145,235.817 C413.325,235.577 415.545,237.797 415.785,244.457 L418.605,244.457 L418.605,224.777 L415.785,224.777 C415.425,230.657 413.085,232.997 407.385,232.997 L405.945,232.997 L405.945,219.317 C405.885,216.797 406.485,216.377 409.725,216.317 L412.845,216.317 C422.685,216.257 425.145,218.417 427.065,228.797 L429.645,228.797 L428.805,213.497 M463.049,228.857 L452.369,229.517 L452.369,232.097 L454.829,232.097 C457.109,232.157 457.409,232.517 457.409,235.097 L457.409,249.437 L457.409,251.777 L457.409,252.257 C457.349,253.157 457.289,253.517 457.049,253.817 C456.629,254.357 455.489,254.597 452.909,254.657 L452.669,254.657 L452.669,256.817 L467.789,256.817 L467.789,254.657 L467.549,254.657 C463.589,254.537 463.049,254.237 463.049,252.017 L463.049,249.437 L463.049,240.917 C463.049,235.577 465.989,231.617 469.889,231.617 C473.309,231.617 475.049,234.077 475.049,238.937 L475.049,249.437 L475.049,252.317 C474.989,253.097 474.929,253.517 474.629,253.817 C474.269,254.357 473.069,254.597 470.489,254.657 L470.249,254.657 L470.249,256.817 L485.429,256.817 L485.429,254.657 L485.189,254.657 C481.229,254.537 480.689,254.237 480.689,252.077 L480.689,249.437 L480.689,241.457 C480.689,235.457 483.389,231.617 487.589,231.617 C491.009,231.617 492.689,234.197 492.689,239.597 L492.689,249.437 L492.689,252.257 C492.629,253.097 492.569,253.517 492.269,253.817 C491.909,254.357 490.709,254.597 488.129,254.657 L487.889,254.657 L487.889,256.817 L503.069,256.817 L503.069,254.657 L502.829,254.657 C498.869,254.537 498.329,254.237 498.329,252.017 L498.329,249.437 L498.329,238.397 C498.329,234.677 497.969,233.417 496.409,231.377 C494.669,229.157 492.209,227.957 489.329,227.957 C485.429,227.957 482.549,229.817 479.969,233.957 C478.949,230.357 475.709,227.957 471.689,227.957 C468.029,227.957 465.389,229.697 463.049,233.477 L463.049,228.857 M516.677,228.857 L505.397,229.517 L505.397,232.097 L508.457,232.097 C510.737,232.157 511.037,232.517 511.037,235.097 L511.037,249.437 L511.037,252.257 C510.977,253.157 510.917,253.517 510.677,253.817 C510.257,254.357 509.117,254.597 506.537,254.657 L506.117,254.657 L506.117,256.817 L521.657,256.817 L521.657,254.657 L521.237,254.657 C517.217,254.537 516.677,254.237 516.677,252.077 L516.677,249.437 L516.677,228.857 M513.857,213.917 C511.937,213.917 510.377,215.477 510.377,217.397 C510.377,219.317 511.937,220.877 513.797,220.877 C515.777,220.877 517.337,219.317 517.337,217.397 C517.337,215.477 515.777,213.917 513.857,213.917 M535.208,228.857 L524.828,229.517 L524.828,232.097 L526.988,232.097 C529.268,232.157 529.568,232.517 529.568,235.097 L529.568,249.437 L529.568,250.877 L529.568,252.257 C529.508,253.157 529.448,253.517 529.208,253.817 C528.788,254.357 527.648,254.597 525.068,254.657 L524.828,254.657 L524.828,256.817 L540.008,256.817 L540.008,254.657 L539.768,254.657 C535.748,254.537 535.208,254.237 535.208,252.077 L535.208,249.437 L535.208,243.197 C535.208,240.257 535.628,237.557 536.288,236.177 C537.548,233.477 540.248,231.617 542.828,231.617 C544.388,231.617 546.188,232.457 547.088,233.717 C547.988,235.037 548.408,236.837 548.408,239.717 L548.408,249.437 L548.408,252.257 C548.348,253.157 548.288,253.517 548.048,253.817 C547.628,254.357 546.428,254.597 543.848,254.657 L543.608,254.657 L543.608,256.817 L558.788,256.817 L558.788,254.657 L558.548,254.657 C554.588,254.537 554.048,254.237 554.048,252.077 L554.048,249.437 L554.048,240.017 C554.048,235.697 553.868,234.617 552.788,232.577 C551.288,229.697 548.288,227.957 544.688,227.957 C540.788,227.957 537.848,229.757 535.208,233.717 L535.208,228.857 M574.984,227.957 C567.604,227.957 561.904,234.497 561.904,242.897 C561.904,251.117 567.664,257.717 574.864,257.717 C582.064,257.717 587.824,251.117 587.824,242.837 C587.824,234.617 582.064,227.957 574.984,227.957 M574.984,230.537 C579.184,230.537 581.524,234.917 581.524,242.837 C581.524,250.817 579.184,255.137 574.864,255.137 C570.544,255.137 568.204,250.817 568.204,242.897 C568.204,234.737 570.484,230.537 574.984,230.537 M601.744,228.857 L591.124,229.517 L591.124,232.097 L593.584,232.097 C595.864,232.157 596.164,232.517 596.164,235.097 L596.164,249.437 L596.164,252.257 C596.104,253.157 596.044,253.517 595.804,253.817 C595.384,254.357 594.184,254.597 591.604,254.657 L591.364,254.657 L591.364,256.817 L607.384,256.817 L607.384,254.657 L606.304,254.657 C602.284,254.537 601.744,254.237 601.744,252.077 L601.744,249.437 L601.744,248.837 C601.804,238.757 605.404,231.077 610.084,230.837 C609.244,231.797 609.004,232.397 609.004,233.537 C609.004,235.457 610.384,236.837 612.304,236.837 C614.524,236.837 615.964,235.217 615.964,232.817 C615.964,229.877 613.924,227.957 610.744,227.957 C606.964,227.957 603.724,230.957 601.744,236.297 L601.744,228.857 "/>
<polyline class="BarLine" fill="none" stroke="#000000" stroke-width="4.50" stroke-linejoin="bevel" points="249.349,906.459 249.349,1009.22"/>
<polyline class="BarLine" fill="none" stroke="#000000" stroke-width="4.50" stroke-linejoin="bevel" points="991.915,906.459 991.915,1009.22"/>
<polyline class="BarLine" fill="none" stroke="#000000" stroke-width="4.50" stroke-linejoin="bevel" points="1572.7,906.459 1572.7,1009.22"/>
<polyline class="BarLine" fill="none" stroke="#000000" stroke-width="4.50" stroke-linejoin="bevel" points="2226.84,906.459 2226.84,1009.22"/>
<polyline class="BarLine" fill="none" stroke="#000000" stroke-width="4.50" stroke-linejoin="bevel" points="2762.38,906.459 2762.38,1009.22"/>
<polyline class="BarLine" fill="none" stroke="#000000" stroke-width="4.50" stroke-linejoin="bevel" points="249.349,1519 249.349,1621.75"/>
<polyline class="BarLine" fill="none" stroke="#000000" stroke-width="4.50" stroke-linejoin="bevel" points="990.373,1519 990.373,1621.75"/>
<polyline class="BarLine" fill="none" stroke="#000000" stroke-width="4.50" stroke-linejoin="bevel" points="1589.02,1519 1589.02,1621.75"/>
<polyline class="BarLine" fill="none" stroke="#000000" stroke-width="4.50" stroke-linejoin="bevel" points="2220.42,1519 2220.42,1621.75"/>
<polyline class="BarLine" fill="none" stroke="#000000" stroke-width="4.50" stroke-linejoin="bevel" points="2734.88,1519 2734.88,1621.75"/>
<polyline class="BarLine" fill="none" stroke="#000000" stroke-width="13.75" stroke-linejoin="bevel" points="2757.76,1519 2757.76,1621.75"/>
<polyline class="BarLine" fill="none" stroke="#000000" stroke-width="4.50" stroke-linejoin="bevel" points="249.349,643.942 249.349,907.834"/>
<polyline class="BarLine" fill="none" stroke="#000000" stroke-width="4.50" stroke-linejoin="bevel" points="991.915,643.942 991.915,907.834"/>
<polyline class="BarLine" fill="none" stroke="#000000" stroke-width="4.50" stroke-linejoin="bevel" points="1572.7,643.942 1572.7,907.834"/>
<polyline class="BarLine" fill="none" stroke="#000000" stroke-width="4.50" stroke-linejoin="bevel" points="2226.84,643.942 2226.84,907.834"/>
<polyline class="BarLine" fill="none" stroke="#000000" stroke-width="4.50" stroke-linejoin="bevel" points="2762.38,643.942 2762.38,907.834"/>
<polyline class="BarLine" fill="none" stroke="#000000" stroke-width="4.50" stroke-linejoin="bevel" points="249.349,1256.48 249.349,1520.37"/>
<polyline class="BarLine" fill="none" stroke="#000000" stroke-width="4.50" stroke-linejoin="bevel" points="990.373,1256.48 990.373,1520.37"/>
<polyline class="BarLine" fill="none" stroke="#000000" stroke-width="4.50" stroke-linejoin="bevel" points="1589.02,1256.48 1589.02,1520.37"/>
<polyline class="BarLine" fill="none" stroke="#000000" stroke-width="4.50" stroke-linejoin="bevel" points="2220.42,1256.48 2220.42,1520.37"/>
<polyline class="BarLine" fill="none" stroke="#000000" stroke-width="4.50" stroke-linejoin="bevel" points="2734.88,1256.48 2734.88,1520.37"/>
<polyline class="BarLine" fill="none" stroke="#000000" stroke-width="13.75" stroke-linejoin="bevel" points="2757.76,1256.48 2757.76,1520.37"/>
<path class="Accidental" d="M581.318,922.235 C581.918,922.135 582.418,921.435 582.418,920.835 L582.418,914.935 C582.418,914.135 581.818,913.535 581.018,913.535 L580.818,913.535 L577.518,914.235 L577.518,899.335 L574.718,899.335 L574.718,914.835 L565.818,916.635 L565.818,902.535 L563.018,902.535 L563.018,917.235 L559.118,918.035 C558.518,918.135 558.018,918.835 558.018,919.435 L558.018,919.635 L558.018,925.435 L558.018,925.235 C558.018,926.035 558.618,926.635 559.418,926.635 L559.718,926.635 L563.018,925.935 L563.018,942.435 L559.118,943.235 C558.518,943.335 558.018,944.035 558.018,944.635 L558.018,950.435 C558.018,951.235 558.618,951.835 559.418,951.835 L559.718,951.835 L563.018,951.135 L563.018,966.035 L565.818,966.035 L565.818,950.535 L574.718,948.735 L574.718,962.835 L577.518,962.835 L577.518,948.135 L581.318,947.435 C581.918,947.335 582.418,946.635 582.418,946.035 L582.418,940.135 C582.418,939.335 581.818,938.735 581.018,938.735 L580.818,938.735 L577.518,939.435 L577.518,922.935 L581.318,922.235 M565.818,941.935 L565.818,925.335 L574.718,923.535 L574.718,940.035 L565.818,941.935 "/>
<path class="Accidental" d="M1694.45,984.739 C1695.05,984.639 1695.55,983.939 1695.55,983.339 L1695.55,977.439 C1695.55,976.639 1694.95,976.039 1694.15,976.039 L1693.95,976.039 L1690.65,976.739 L1690.65,961.839 L1687.85,961.839 L1687.85,977.339 L1678.95,979.139 L1678.95,965.039 L1676.15,965.039 L1676.15,979.739 L1672.25,980.539 C1671.65,980.639 1671.15,981.339 1671.15,981.939 L1671.15,982.139 L1671.15,987.939 L1671.15,987.739 C1671.15,988.539 1671.75,989.139 1672.55,989.139 L1672.85,989.139 L1676.15,988.439 L1676.15,1004.94 L1672.25,1005.74 C1671.65,1005.84 1671.15,1006.54 1671.15,1007.14 L1671.15,1012.94 C1671.15,1013.74 1671.75,1014.34 1672.55,1014.34 L1672.85,1014.34 L1676.15,1013.64 L1676.15,1028.54 L1678.95,1028.54 L1678.95,1013.04 L1687.85,1011.24 L1687.85,1025.34 L1690.65,1025.34 L1690.65,1010.64 L1694.45,1009.94 C1695.05,1009.84 1695.55,1009.14 1695.55,1008.54 L1695.55,1002.64 C1695.55,1001.84 1694.95,1001.24 1694.15,1001.24 L1693.95,1001.24 L1690.65,1001.94 L1690.65,985.439 L1694.45,984.739 M1678.95,1004.44 L1678.95,987.839 L1687.85,986.039 L1687.85,1002.54 L1678.95,1004.44 "/>
<path class="Accidental" d="M1158.19,1597.28 C1158.79,1597.18 1159.29,1596.48 1159.29,1595.88 L1159.29,1589.98 C1159.29,1589.18 1158.69,1588.58 1157.89,1588.58 L1157.69,1588.58 L1154.39,1589.28 L1154.39,1574.38 L1151.59,1574.38 L1151.59,1589.88 L1142.69,1591.68 L1142.69,1577.58 L1139.89,1577.58 L1139.89,1592.28 L1135.99,1593.08 C1135.39,1593.18 1134.89,1593.88 1134.89,1594.48 L1134.89,1594.68 L1134.89,1600.48 L1134.89,1600.28 C1134.89,1601.08 1135.49,1601.68 1136.29,1601.68 L1136.59,1601.68 L1139.89,1600.98 L1139.89,1617.48 L1135.99,1618.28 C1135.39,1618.38 1134.89,1619.08 1134.89,1619.68 L1134.89,1625.48 C1134.89,1626.28 1135.49,1626.88 1136.29,1626.88 L1136.59,1626.88 L1139.89,1626.18 L1139.89,1641.08 L1142.69,1641.08 L1142.69,1625.58 L1151.59,1623.78 L1151.59,1637.88 L1154.39,1637.88 L1154.39,1623.18 L1158.19,1622.48 C1158.79,1622.38 1159.29,1621.68 1159.29,1621.08 L1159.29,1615.18 C1159.29,1614.38 1158.69,1613.78 1157.89,1613.78 L1157.69,1613.78 L1154.39,1614.48 L1154.39,1597.98 L1158.19,1597.28 M1142.69,1616.98 L1142.69,1600.38 L1151.59,1598.58 L1151.59,1615.08 L1142.69,1616.98 "/>
<path class="Accidental" d="M2267.72,1534.77 C2268.32,1534.67 2268.82,1533.97 2268.82,1533.37 L2268.82,1527.47 C2268.82,1526.67 2268.22,1526.07 2267.42,1526.07 L2267.22,1526.07 L2263.92,1526.77 L2263.92,1511.87 L2261.12,1511.87 L2261.12,1527.37 L2252.22,1529.17 L2252.22,1515.07 L2249.42,1515.07 L2249.42,1529.77 L2245.52,1530.57 C2244.92,1530.67 2244.42,1531.37 2244.42,1531.97 L2244.42,1532.17 L2244.42,1537.97 L2244.42,1537.77 C2244.42,1538.57 2245.02,1539.17 2245.82,1539.17 L2246.12,1539.17 L2249.42,1538.47 L2249.42,1554.97 L2245.52,1555.77 C2244.92,1555.87 2244.42,1556.57 2244.42,1557.17 L2244.42,1562.97 C2244.42,1563.77 2245.02,1564.37 2245.82,1564.37 L2246.12,1564.37 L2249.42,1563.67 L2249.42,1578.57 L2252.22,1578.57 L2252.22,1563.07 L2261.12,1561.27 L2261.12,1575.37 L2263.92,1575.37 L2263.92,1560.67 L2267.72,1559.97 C2268.32,1559.87 2268.82,1559.17 2268.82,1558.57 L2268.82,1552.67 C2268.82,1551.87 2268.22,1551.27 2267.42,1551.27 L2267.22,1551.27 L2263.92,1551.97 L2263.92,1535.47 L2267.72,1534.77 M2252.22,1554.47 L2252.22,1537.87 L2261.12,1536.07 L2261.12,1552.57 L2252.22,1554.47 "/>
<path class="Accidental" d="M581.318,722.223 C581.918,722.123 582.418,721.423 582.418,720.823 L582.418,714.923 C582.418,714.123 581.818,713.523 581.018,713.523 L580.818,713.523 L577.518,714.223 L577.518,699.323 L574.718,699.323 L574.718,714.823 L565.818,716.623 L565.818,702.523 L563.018,702.523 L563.018,717.223 L559.118,718.023 C558.518,718.123 558.018,718.823 558.018,719.423 L558.018,719.623 L558.018,725.423 L558.018,725.223 C558.018,726.023 558.618,726.623 559.418,726.623 L559.718,726.623 L563.018,725.923 L563.018,742.423 L559.118,743.223 C558.518,743.323 558.018,744.023 558.018,744.623 L558.018,750.423 C558.018,751.223 558.618,751.823 559.418,751.823 L559.718,751.823 L563.018,751.123 L563.018,766.023 L565.818,766.023 L565.818,750.523 L574.718,748.723 L574.718,762.823 L577.518,762.823 L577.518,748.123 L581.318,747.423 C581.918,747.323 582.418,746.623 582.418,746.023 L582.418,740.123 C582.418,739.323 581.818,738.723 581.018,738.723 L580.818,738.723 L577.518,739.423 L577.518,722.923 L581.318,722.223 M565.818,741.923 L565.818,725.323 L574.718,723.523 L574.718,740.023 L565.818,741.923 "/>
<path class="Accidental" d="M1694.45,634.717 C1695.05,634.617 1695.55,633.917 1695.55,633.317 L1695.55,627.417 C1695.55,626.617 1694.95,626.017 1694.15,626.017 L1693.95,626.017 L1690.65,626.717 L1690.65,611.817 L1687.85,611.817 L1687.85,627.317 L1678.95,629.117 L1678.95,615.017 L1676.15,615.017 L1676.15,629.717 L1672.25,630.517 C1671.65,630.617 1671.15,631.317 1671.15,631.917 L1671.15,632.117 L1671.15,637.917 L1671.15,637.717 C1671.15,638.517 1671.75,639.117 1672.55,639.117 L1672.85,639.117 L1676.15,638.417 L1676.15,654.917 L1672.25,655.717 C1671.65,655.817 1671.15,656.517 1671.15,657.117 L1671.15,662.917 C1671.15,663.717 1671.75,664.317 1672.55,664.317 L1672.85,664.317 L1676.15,663.617 L1676.15,678.517 L1678.95,678.517 L1678.95,663.017 L1687.85,661.217 L1687.85,675.317 L1690.65,675.317 L1690.65,660.617 L1694.45,659.917 C1695.05,659.817 1695.55,659.117 1695.55,658.517 L1695.55,652.617 C1695.55,651.817 1694.95,651.217 1694.15,651.217 L1693.95,651.217 L1690.65,651.917 L1690.65,635.417 L1694.45,634.717 M1678.95,654.417 L1678.95,637.817 L1687.85,636.017 L1687.85,652.517 L1678.95,654.417 "/>
<path class="Accidental" d="M1158.19,1247.26 C1158.79,1247.16 1159.29,1246.46 1159.29,1245.86 L1159.29,1239.96 C1159.29,1239.16 1158.69,1238.56 1157.89,1238.56 L1157.69,1238.56 L1154.39,1239.26 L1154.39,1224.36 L1151.59,1224.36 L1151.59,1239.86 L1142.69,1241.66 L1142.69,1227.56 L1139.89,1227.56 L1139.89,1242.26 L1135.99,1243.06 C1135.39,1243.16 1134.89,1243.86 1134.89,1244.46 L1134.89,1244.66 L1134.89,1250.46 L1134.89,1250.26 C1134.89,1251.06 1135.49,1251.66 1136.29,1251.66 L1136.59,1251.66 L1139.89,1250.96 L1139.89,1267.46 L1135.99,1268.26 C1135.39,1268.36 1134.89,1269.06 1134.89,1269.66 L1134.89,1275.46 C1134.89,1276.26 1135.49,1276.86 1136.29,1276.86 L1136.59,1276.86 L1139.89,1276.16 L1139.89,1291.06 L1142.69,1291.06 L1142.69,1275.56 L1151.59,1273.76 L1151.59,1287.86 L1154.39,1287.86 L1154.39,1273.16 L1158.19,1272.46 C1158.79,1272.36 1159.29,1271.66 1159.29,1271.06 L1159.29,1265.16 C1159.29,1264.36 1158.69,1263.76 1157.89,1263.76 L1157.69,1263.76 L1154.39,1264.46 L1154.39,1247.96 L1158.19,1247.26 M1142.69,1266.96 L1142.69,1250.36 L1151.59,1248.56 L1151.59,1265.06 L1142.69,1266.96 "/>
<path class="Accidental" d="M2267.72,1334.76 C2268.32,1334.66 2268.82,1333.96 2268.82,1333.36 L2268.82,1327.46 C2268.82,1326.66 2268.22,1326.06 2267.42,1326.06 L2267.22,1326.06 L2263.92,1326.76 L2263.92,1311.86 L2261.12,1311.86 L2261.12,1327.36 L2252.22,1329.16 L2252.22,1315.06 L2249.42,1315.06 L2249.42,1329.76 L2245.52,1330.56 C2244.92,1330.66 2244.42,1331.36 2244.42,1331.96 L2244.42,1332.16 L2244.42,1337.96 L2244.42,1337.76 C2244.42,1338.56 2245.02,1339.16 2245.82,1339.16 L2246.12,1339.16 L2249.42,1338.46 L2249.42,1354.96 L2245.52,1355.76 C2244.92,1355.86 2244.42,1356.56 2244.42,1357.16 L2244.42,1362.96 C2244.42,1363.76 2245.02,1364.36 2245.82,1364.36 L2246.12,1364.36 L2249.42,1363.66 L2249.42,1378.56 L2252.22,1378.56 L2252.22,1363.06 L2261.12,1361.26 L2261.12,1375.36 L2263.92,1375.36 L2263.92,1360.66 L2267.72,1359.96 C2268.32,1359.86 2268.82,1359.16 2268.82,1358.56 L2268.82,1352.66 C2268.82,1351.86 2268.22,1351.26 2267.42,1351.26 L2267.22,1351.26 L2263.92,1351.96 L2263.92,1335.46 L2267.72,1334.76 M2252.22,1354.46 L2252.22,1337.86 L2261.12,1336.06 L2261.12,1352.56 L2252.22,1354.46 "/>
<polyline class="LedgerLine" fill="none" stroke="#000000" stroke-width="4.00" stroke-linejoin="bevel" points="1153.86,882.832 1203.86,882.832"/>
<polyline class="LedgerLine" fill="none" stroke="#000000" stroke-width="4.00" stroke-linejoin="bevel" points="1289.81,882.832 1339.8,882.832"/>
<polyline class="LedgerLine" fill="none" stroke="#000000" stroke-width="4.00" stroke-linejoin="bevel" points="1425.76,882.832 1475.75,882.832"/>
<polyline class="LedgerLine" fill="none" stroke="#000000" stroke-width="4.00" stroke-linejoin="bevel" points="1425.76,857.831 1475.75,857.831"/>
<polyline class="LedgerLine" fill="none" stroke="#000000" stroke-width="4.00" stroke-linejoin="bevel" points="1680.65,1495.37 1730.64,1495.37"/>
<polyline class="LedgerLine" fill="none" stroke="#000000" stroke-width="4.00" stroke-linejoin="bevel" points="1954.44,620.316 2004.44,620.316"/>
<polyline class="LedgerLine" fill="none" stroke="#000000" stroke-width="4.00" stroke-linejoin="bevel" points="2085.14,620.316 2135.14,620.316"/>
<polyline class="LedgerLine" fill="none" stroke="#000000" stroke-width="4.00" stroke-linejoin="bevel" points="2261.59,620.316 2311.58,620.316"/>
<polyline class="LedgerLine" fill="none" stroke="#000000" stroke-width="4.00" stroke-linejoin="bevel" points="2261.59,595.314 2311.58,595.314"/>
<polyline class="LedgerLine" fill="none" stroke="#000000" stroke-width="4.00" stroke-linejoin="bevel" points="2397.64,620.316 2447.64,620.316"/>
<polyline class="LedgerLine" fill="none" stroke="#000000" stroke-width="4.00" stroke-linejoin="bevel" points="2397.64,595.314 2447.64,595.314"/>
<polyline class="LedgerLine" fill="none" stroke="#000000" stroke-width="4.00" stroke-linejoin="bevel" points="2533.7,620.316 2583.69,620.316"/>
<polyline class="LedgerLine" fill="none" stroke="#000000" stroke-width="4.00" stroke-linejoin="bevel" points="2533.7,595.314 2583.69,595.314"/>
<polyline class="LedgerLine" fill="none" stroke="#000000" stroke-width="4.00" stroke-linejoin="bevel" points="2533.7,570.313 2583.69,570.313"/>
<polyline class="LedgerLine" fill="none" stroke="#000000" stroke-width="4.00" stroke-linejoin="bevel" points="398.1,1232.85 448.096,1232.85"/>
<polyline class="LedgerLine" fill="none" stroke="#000000" stroke-width="4.00" stroke-linejoin="bevel" points="398.1,1207.85 448.096,1207.85"/>
<polyline class="LedgerLine" fill="none" stroke="#000000" stroke-width="4.00" stroke-linejoin="bevel" points="543.418,1232.85 593.414,1232.85"/>
<polyline class="LedgerLine" fill="none" stroke="#000000" stroke-width="4.00" stroke-linejoin="bevel" points="543.418,1207.85 593.414,1207.85"/>
<polyline class="LedgerLine" fill="none" stroke="#000000" stroke-width="4.00" stroke-linejoin="bevel" points="688.736,1232.85 738.731,1232.85"/>
<polyline class="LedgerLine" fill="none" stroke="#000000" stroke-width="4.00" stroke-linejoin="bevel" points="834.054,1232.85 884.049,1232.85"/>
<polyline class="Stem" fill="none" stroke="#000000" stroke-width="2.75" stroke-linejoin="bevel" points="456.377,948.856 456.377,1026.59"/>
<polyline class="Stem" fill="none" stroke="#000000" stroke-width="2.75" stroke-linejoin="bevel" points="590.043,936.356 590.043,1017.22"/>
<polyline class="Stem" fill="none" stroke="#000000" stroke-width="2.75" stroke-linejoin="bevel" points="723.709,923.855 723.709,1007.84"/>
<polyline class="Stem" fill="none" stroke="#000000" stroke-width="2.75" stroke-linejoin="bevel" points="857.374,911.354 857.374,995.339"/>
<polyline class="Stem" fill="none" stroke="#000000" stroke-width="2.75" stroke-linejoin="bevel" points="1028.04,898.853 1028.04,982.839"/>
<polyline class="Stem" fill="none" stroke="#000000" stroke-width="2.75" stroke-linejoin="bevel" points="1163.99,886.352 1163.99,970.338"/>
<polyline class="Stem" fill="none" stroke="#000000" stroke-width="2.75" stroke-linejoin="bevel" points="1299.94,873.852 1299.94,957.837"/>
<polyline class="Stem" fill="none" stroke="#000000" stroke-width="2.75" stroke-linejoin="bevel" points="1435.88,861.351 1435.88,957.837"/>
<polyline class="Stem" fill="none" stroke="#000000" stroke-width="2.75" stroke-linejoin="bevel" points="1732.92,991.979 1732.92,907.834"/>
<polyline class="Stem" fill="none" stroke="#000000" stroke-width="2.75" stroke-linejoin="bevel" points="1863.62,979.478 1863.62,898.458"/>
<polyline class="Stem" fill="none" stroke="#000000" stroke-width="2.75" stroke-linejoin="bevel" points="1994.31,966.978 1994.31,889.083"/>
<polyline class="Stem" fill="none" stroke="#000000" stroke-width="2.75" stroke-linejoin="bevel" points="2095.27,961.357 2095.27,1035.97"/>
<polyline class="Stem" fill="none" stroke="#000000" stroke-width="2.75" stroke-linejoin="bevel" points="2271.71,948.856 2271.71,1026.59"/>
<polyline class="Stem" fill="none" stroke="#000000" stroke-width="2.75" stroke-linejoin="bevel" points="2407.77,936.356 2407.77,1017.22"/>
<polyline class="Stem" fill="none" stroke="#000000" stroke-width="2.75" stroke-linejoin="bevel" points="2543.82,923.775 2543.82,1007.84"/>
<polyline class="Stem" fill="none" stroke="#000000" stroke-width="2.75" stroke-linejoin="bevel" points="408.226,1548.89 408.226,1629.75"/>
<polyline class="Stem" fill="none" stroke="#000000" stroke-width="2.75" stroke-linejoin="bevel" points="553.544,1561.39 553.544,1639.13"/>
<polyline class="Stem" fill="none" stroke="#000000" stroke-width="2.75" stroke-linejoin="bevel" points="698.862,1573.9 698.862,1648.51"/>
<polyline class="Stem" fill="none" stroke="#000000" stroke-width="2.75" stroke-linejoin="bevel" points="873.924,1579.52 873.924,1501.62"/>
<polyline class="Stem" fill="none" stroke="#000000" stroke-width="2.75" stroke-linejoin="bevel" points="1056.24,1592.02 1056.24,1511"/>
<polyline class="Stem" fill="none" stroke="#000000" stroke-width="2.75" stroke-linejoin="bevel" points="1196.66,1604.52 1196.66,1520.37"/>
<polyline class="Stem" fill="none" stroke="#000000" stroke-width="2.75" stroke-linejoin="bevel" points="1337.07,1617.02 1337.07,1532.87"/>
<polyline class="Stem" fill="none" stroke="#000000" stroke-width="2.75" stroke-linejoin="bevel" points="1477.48,1629.52 1477.48,1545.37"/>
<polyline class="Stem" fill="none" stroke="#000000" stroke-width="2.75" stroke-linejoin="bevel" points="1690.77,1498.89 1690.77,1582.88"/>
<polyline class="Stem" fill="none" stroke="#000000" stroke-width="2.75" stroke-linejoin="bevel" points="1822.97,1511.39 1822.97,1595.38"/>
<polyline class="Stem" fill="none" stroke="#000000" stroke-width="2.75" stroke-linejoin="bevel" points="1955.16,1523.89 1955.16,1607.88"/>
<polyline class="Stem" fill="none" stroke="#000000" stroke-width="2.75" stroke-linejoin="bevel" points="2087.35,1536.39 2087.35,1620.38"/>
<polyline class="Stem" fill="none" stroke="#000000" stroke-width="2.75" stroke-linejoin="bevel" points="2276.44,1548.89 2276.44,1629.75"/>
<polyline class="Stem" fill="none" stroke="#000000" stroke-width="2.75" stroke-linejoin="bevel" points="2431.5,1561.31 2431.5,1639.13"/>
<polyline class="Stem" fill="none" stroke="#000000" stroke-width="2.75" stroke-linejoin="bevel" points="486.121,741.963 486.121,657.818"/>
<polyline class="Stem" fill="none" stroke="#000000" stroke-width="2.75" stroke-linejoin="bevel" points="619.787,729.463 619.787,645.317"/>
<polyline class="Stem" fill="none" stroke="#000000" stroke-width="2.75" stroke-linejoin="bevel" points="753.453,716.962 753.453,635.942"/>
<polyline class="Stem" fill="none" stroke="#000000" stroke-width="2.75" stroke-linejoin="bevel" points="887.119,704.461 887.119,626.566"/>
<polyline class="Stem" fill="none" stroke="#000000" stroke-width="2.75" stroke-linejoin="bevel" points="1028.04,698.841 1028.04,773.45"/>
<polyline class="Stem" fill="none" stroke="#000000" stroke-width="2.75" stroke-linejoin="bevel" points="1163.99,686.34 1163.99,764.075"/>
<polyline class="Stem" fill="none" stroke="#000000" stroke-width="2.75" stroke-linejoin="bevel" points="1299.94,673.839 1299.94,754.699"/>
<polyline class="Stem" fill="none" stroke="#000000" stroke-width="2.75" stroke-linejoin="bevel" points="1435.88,661.338 1435.88,745.324"/>
<polyline class="Stem" fill="none" stroke="#000000" stroke-width="2.75" stroke-linejoin="bevel" points="1703.18,648.837 1703.18,732.823"/>
<polyline class="Stem" fill="none" stroke="#000000" stroke-width="2.75" stroke-linejoin="bevel" points="1833.87,636.337 1833.87,720.322"/>
<polyline class="Stem" fill="none" stroke="#000000" stroke-width="2.75" stroke-linejoin="bevel" points="1964.57,623.836 1964.57,707.821"/>
<polyline class="Stem" fill="none" stroke="#000000" stroke-width="2.75" stroke-linejoin="bevel" points="2095.27,611.335 2095.27,695.32"/>
<polyline class="Stem" fill="none" stroke="#000000" stroke-width="2.75" stroke-linejoin="bevel" points="2271.71,598.834 2271.71,695.32"/>
<polyline class="Stem" fill="none" stroke="#000000" stroke-width="2.75" stroke-linejoin="bevel" points="2407.77,586.334 2407.77,695.32"/>
<polyline class="Stem" fill="none" stroke="#000000" stroke-width="2.75" stroke-linejoin="bevel" points="2543.82,573.753 2543.82,695.32"/>
<polyline class="Stem" fill="none" stroke="#000000" stroke-width="2.75" stroke-linejoin="bevel" points="408.226,1198.87 408.226,1307.86"/>
<polyline class="Stem" fill="none" stroke="#000000" stroke-width="2.75" stroke-linejoin="bevel" points="553.544,1211.37 553.544,1307.86"/>
<polyline class="Stem" fill="none" stroke="#000000" stroke-width="2.75" stroke-linejoin="bevel" points="698.862,1223.87 698.862,1307.86"/>
<polyline class="Stem" fill="none" stroke="#000000" stroke-width="2.75" stroke-linejoin="bevel" points="844.18,1236.37 844.18,1320.36"/>
<polyline class="Stem" fill="none" stroke="#000000" stroke-width="2.75" stroke-linejoin="bevel" points="1026.5,1248.88 1026.5,1332.86"/>
<polyline class="Stem" fill="none" stroke="#000000" stroke-width="2.75" stroke-linejoin="bevel" points="1166.91,1261.38 1166.91,1345.36"/>
<polyline class="Stem" fill="none" stroke="#000000" stroke-width="2.75" stroke-linejoin="bevel" points="1307.32,1273.88 1307.32,1357.86"/>
<polyline class="Stem" fill="none" stroke="#000000" stroke-width="2.75" stroke-linejoin="bevel" points="1447.74,1286.38 1447.74,1367.24"/>
<polyline class="Stem" fill="none" stroke="#000000" stroke-width="2.75" stroke-linejoin="bevel" points="1690.77,1298.88 1690.77,1376.61"/>
<polyline class="Stem" fill="none" stroke="#000000" stroke-width="2.75" stroke-linejoin="bevel" points="1822.97,1311.38 1822.97,1385.99"/>
<polyline class="Stem" fill="none" stroke="#000000" stroke-width="2.75" stroke-linejoin="bevel" points="1984.9,1317 1984.9,1239.1"/>
<polyline class="Stem" fill="none" stroke="#000000" stroke-width="2.75" stroke-linejoin="bevel" points="2117.09,1329.5 2117.09,1248.48"/>
<polyline class="Stem" fill="none" stroke="#000000" stroke-width="2.75" stroke-linejoin="bevel" points="2306.19,1342 2306.19,1257.86"/>
<polyline class="Stem" fill="none" stroke="#000000" stroke-width="2.75" stroke-linejoin="bevel" points="2461.24,1354.42 2461.24,1270.36"/>
<path class="Note" d="M486.502,937.136 C485.002,934.436 482.102,932.736 478.202,932.336 C477.602,932.236 477.102,932.236 476.502,932.236 C473.002,932.236 469.202,933.236 465.702,935.136 C459.102,938.736 455.002,944.636 455.002,949.736 C455.002,951.136 455.202,952.436 455.902,953.636 C457.402,956.336 460.402,958.036 464.302,958.436 C464.902,958.536 465.402,958.536 466.002,958.536 C469.502,958.536 473.202,957.536 476.702,955.636 C483.302,952.036 487.502,946.236 487.502,941.136 C487.502,939.736 487.202,938.336 486.502,937.136"/>
<path class="Note" d="M620.168,924.635 C618.668,921.935 615.768,920.235 611.868,919.835 C611.268,919.735 610.768,919.735 610.168,919.735 C606.668,919.735 602.868,920.735 599.368,922.635 C592.768,926.235 588.668,932.135 588.668,937.235 C588.668,938.635 588.868,939.935 589.568,941.135 C591.068,943.835 594.068,945.535 597.968,945.935 C598.568,946.035 599.068,946.035 599.668,946.035 C603.168,946.035 606.868,945.035 610.368,943.135 C616.968,939.535 621.168,933.735 621.168,928.635 C621.168,927.235 620.868,925.835 620.168,924.635"/>
<path class="Note" d="M753.834,912.135 C752.334,909.435 749.434,907.735 745.534,907.335 C744.934,907.235 744.434,907.235 743.834,907.235 C740.334,907.235 736.534,908.235 733.034,910.135 C726.434,913.735 722.334,919.635 722.334,924.735 C722.334,926.135 722.534,927.435 723.234,928.635 C724.734,931.335 727.734,933.035 731.634,933.435 C732.234,933.535 732.734,933.535 733.334,933.535 C736.834,933.535 740.534,932.535 744.034,930.635 C750.634,927.035 754.834,921.235 754.834,916.135 C754.834,914.735 754.534,913.335 753.834,912.135"/>
<path class="Note" d="M887.499,899.634 C885.999,896.934 883.099,895.234 879.199,894.834 C878.599,894.734 878.099,894.734 877.499,894.734 C873.999,894.734 870.199,895.734 866.699,897.634 C860.099,901.234 855.999,907.134 855.999,912.234 C855.999,913.634 856.199,914.934 856.899,916.134 C858.399,918.834 861.399,920.534 865.299,920.934 C865.899,921.034 866.399,921.034 866.999,921.034 C870.499,921.034 874.199,920.034 877.699,918.134 C884.299,914.534 888.499,908.734 888.499,903.634 C888.499,902.234 888.199,900.834 887.499,899.634"/>
<path class="Note" d="M1058.17,887.133 C1056.67,884.433 1053.77,882.733 1049.87,882.333 C1049.27,882.233 1048.77,882.233 1048.17,882.233 C1044.67,882.233 1040.87,883.233 1037.37,885.133 C1030.77,888.733 1026.67,894.633 1026.67,899.733 C1026.67,901.133 1026.87,902.433 1027.57,903.633 C1029.07,906.333 1032.07,908.033 1035.97,908.433 C1036.57,908.533 1037.07,908.533 1037.67,908.533 C1041.17,908.533 1044.87,907.533 1048.37,905.633 C1054.97,902.033 1059.17,896.233 1059.17,891.133 C1059.17,889.733 1058.87,888.333 1058.17,887.133"/>
<path class="Note" d="M1194.11,874.632 C1192.61,871.932 1189.71,870.232 1185.81,869.832 C1185.21,869.732 1184.71,869.732 1184.11,869.732 C1180.61,869.732 1176.81,870.732 1173.31,872.632 C1166.71,876.232 1162.61,882.132 1162.61,887.232 C1162.61,888.632 1162.81,889.932 1163.51,891.132 C1165.01,893.832 1168.01,895.532 1171.91,895.932 C1172.51,896.032 1173.01,896.032 1173.61,896.032 C1177.11,896.032 1180.81,895.032 1184.31,893.132 C1190.91,889.532 1195.11,883.732 1195.11,878.632 C1195.11,877.232 1194.81,875.832 1194.11,874.632"/>
<path class="Note" d="M1330.06,862.131 C1328.56,859.431 1325.66,857.731 1321.76,857.331 C1321.16,857.231 1320.66,857.231 1320.06,857.231 C1316.56,857.231 1312.76,858.231 1309.26,860.131 C1302.66,863.731 1298.56,869.631 1298.56,874.731 C1298.56,876.131 1298.76,877.431 1299.46,878.631 C1300.96,881.331 1303.96,883.031 1307.86,883.431 C1308.46,883.531 1308.96,883.531 1309.56,883.531 C1313.06,883.531 1316.76,882.531 1320.26,880.631 C1326.86,877.031 1331.06,871.231 1331.06,866.131 C1331.06,864.731 1330.76,863.331 1330.06,862.131"/>
<path class="Note" d="M1466.01,849.631 C1464.51,846.931 1461.61,845.231 1457.71,844.831 C1457.11,844.731 1456.61,844.731 1456.01,844.731 C1452.51,844.731 1448.71,845.731 1445.21,847.631 C1438.61,851.231 1434.51,857.131 1434.51,862.231 C1434.51,863.631 1434.71,864.931 1435.41,866.131 C1436.91,868.831 1439.91,870.531 1443.81,870.931 C1444.41,871.031 1444.91,871.031 1445.51,871.031 C1449.01,871.031 1452.71,870.031 1456.21,868.131 C1462.81,864.531 1467.01,858.731 1467.01,853.631 C1467.01,852.231 1466.71,850.831 1466.01,849.631"/>
<path class="Note" d="M1733.3,987.139 C1731.8,984.439 1728.9,982.739 1725,982.339 C1724.4,982.239 1723.9,982.239 1723.3,982.239 C1719.8,982.239 1716,983.239 1712.5,985.139 C1705.9,988.739 1701.8,994.639 1701.8,999.739 C1701.8,1001.14 1702,1002.44 1702.7,1003.64 C1704.2,1006.34 1707.2,1008.04 1711.1,1008.44 C1711.7,1008.54 1712.2,1008.54 1712.8,1008.54 C1716.3,1008.54 1720,1007.54 1723.5,1005.64 C1730.1,1002.04 1734.3,996.239 1734.3,991.139 C1734.3,989.739 1734,988.339 1733.3,987.139"/>
<path class="Note" d="M1864,974.639 C1862.5,971.939 1859.6,970.239 1855.7,969.839 C1855.1,969.739 1854.6,969.739 1854,969.739 C1850.5,969.739 1846.7,970.739 1843.2,972.639 C1836.6,976.239 1832.5,982.139 1832.5,987.239 C1832.5,988.639 1832.7,989.939 1833.4,991.139 C1834.9,993.839 1837.9,995.539 1841.8,995.939 C1842.4,996.039 1842.9,996.039 1843.5,996.039 C1847,996.039 1850.7,995.039 1854.2,993.139 C1860.8,989.539 1865,983.739 1865,978.639 C1865,977.239 1864.7,975.839 1864,974.639"/>
<path class="Note" d="M1994.69,962.138 C1993.19,959.438 1990.29,957.738 1986.39,957.338 C1985.79,957.238 1985.29,957.238 1984.69,957.238 C1981.19,957.238 1977.39,958.238 1973.89,960.138 C1967.29,963.738 1963.19,969.638 1963.19,974.738 C1963.19,976.138 1963.39,977.438 1964.09,978.638 C1965.59,981.338 1968.59,983.038 1972.49,983.438 C1973.09,983.538 1973.59,983.538 1974.19,983.538 C1977.69,983.538 1981.39,982.538 1984.89,980.638 C1991.49,977.038 1995.69,971.238 1995.69,966.138 C1995.69,964.738 1995.39,963.338 1994.69,962.138"/>
<path class="Note" d="M2125.39,949.637 C2123.89,946.937 2120.99,945.237 2117.09,944.837 C2116.49,944.737 2115.99,944.737 2115.39,944.737 C2111.89,944.737 2108.09,945.737 2104.59,947.637 C2097.99,951.237 2093.89,957.137 2093.89,962.237 C2093.89,963.637 2094.09,964.937 2094.79,966.137 C2096.29,968.837 2099.29,970.537 2103.19,970.937 C2103.79,971.037 2104.29,971.037 2104.89,971.037 C2108.39,971.037 2112.09,970.037 2115.59,968.137 C2122.19,964.537 2126.39,958.737 2126.39,953.637 C2126.39,952.237 2126.09,950.837 2125.39,949.637"/>
<path class="Note" d="M2301.84,937.136 C2300.34,934.436 2297.44,932.736 2293.54,932.336 C2292.94,932.236 2292.44,932.236 2291.84,932.236 C2288.34,932.236 2284.54,933.236 2281.04,935.136 C2274.44,938.736 2270.34,944.636 2270.34,949.736 C2270.34,951.136 2270.54,952.436 2271.24,953.636 C2272.74,956.336 2275.74,958.036 2279.64,958.436 C2280.24,958.536 2280.74,958.536 2281.34,958.536 C2284.84,958.536 2288.54,957.536 2292.04,955.636 C2298.64,952.036 2302.84,946.236 2302.84,941.136 C2302.84,939.736 2302.54,938.336 2301.84,937.136"/>
<path class="Note" d="M2437.89,924.635 C2436.39,921.935 2433.49,920.235 2429.59,919.835 C2428.99,919.735 2428.49,919.735 2427.89,919.735 C2424.39,919.735 2420.59,920.735 2417.09,922.635 C2410.49,926.235 2406.39,932.135 2406.39,937.235 C2406.39,938.635 2406.59,939.935 2407.29,941.135 C2408.79,943.835 2411.79,945.535 2415.69,945.935 C2416.29,946.035 2416.79,946.035 2417.39,946.035 C2420.89,946.035 2424.59,945.035 2428.09,943.135 C2434.69,939.535 2438.89,933.735 2438.89,928.635 C2438.89,927.235 2438.59,925.835 2437.89,924.635"/>
<path class="Note" d="M2573.95,912.135 C2572.45,909.435 2569.55,907.735 2565.65,907.335 C2565.05,907.235 2564.55,907.235 2563.95,907.235 C2560.45,907.235 2556.65,908.235 2553.15,910.135 C2546.55,913.735 2542.45,919.535 2542.45,924.635 C2542.45,926.035 2542.85,927.435 2543.55,928.635 C2545.05,931.435 2547.85,933.035 2551.75,933.435 C2552.35,933.535 2552.85,933.535 2553.45,933.535 C2556.95,933.535 2560.75,932.535 2564.25,930.635 C2570.85,927.035 2574.95,921.135 2574.95,916.035 C2574.95,914.635 2574.65,913.335 2573.95,912.135 M2569.75,918.435 C2568.05,920.235 2564.85,922.535 2561.25,924.635 C2557.65,926.735 2553.95,928.435 2551.65,929.135 C2551.15,929.235 2550.55,929.335 2550.05,929.335 C2548.55,929.335 2547.25,928.635 2546.55,927.535 C2546.25,926.935 2546.05,926.335 2546.05,925.735 C2546.05,924.635 2546.55,923.535 2547.65,922.335 C2549.35,920.535 2552.55,918.135 2556.15,916.035 C2559.75,913.935 2563.45,912.235 2565.85,911.635 L2566.05,911.635 C2566.65,911.435 2567.15,911.335 2567.65,911.335 C2569.05,911.335 2570.15,911.935 2570.85,913.235 C2571.15,913.835 2571.35,914.335 2571.35,914.935 C2571.35,916.235 2570.65,917.535 2569.75,918.435"/>
<path class="Note" d="M438.351,1537.17 C436.851,1534.47 433.951,1532.77 430.051,1532.37 C429.451,1532.27 428.951,1532.27 428.351,1532.27 C424.851,1532.27 421.051,1533.27 417.551,1535.17 C410.951,1538.77 406.851,1544.67 406.851,1549.77 C406.851,1551.17 407.051,1552.47 407.751,1553.67 C409.251,1556.37 412.251,1558.07 416.151,1558.47 C416.751,1558.57 417.251,1558.57 417.851,1558.57 C421.351,1558.57 425.051,1557.57 428.551,1555.67 C435.151,1552.07 439.351,1546.27 439.351,1541.17 C439.351,1539.77 439.051,1538.37 438.351,1537.17"/>
<path class="Note" d="M583.669,1549.67 C582.169,1546.97 579.269,1545.27 575.369,1544.87 C574.769,1544.77 574.269,1544.77 573.669,1544.77 C570.169,1544.77 566.369,1545.77 562.869,1547.67 C556.269,1551.27 552.169,1557.17 552.169,1562.27 C552.169,1563.67 552.369,1564.97 553.069,1566.17 C554.569,1568.87 557.569,1570.57 561.469,1570.97 C562.069,1571.07 562.569,1571.07 563.169,1571.07 C566.669,1571.07 570.369,1570.07 573.869,1568.17 C580.469,1564.57 584.669,1558.77 584.669,1553.67 C584.669,1552.27 584.369,1550.87 583.669,1549.67"/>
<path class="Note" d="M728.987,1562.18 C727.487,1559.48 724.587,1557.78 720.687,1557.38 C720.087,1557.28 719.587,1557.28 718.987,1557.28 C715.487,1557.28 711.687,1558.28 708.187,1560.18 C701.587,1563.78 697.487,1569.68 697.487,1574.78 C697.487,1576.18 697.687,1577.48 698.387,1578.68 C699.887,1581.38 702.887,1583.08 706.787,1583.48 C707.387,1583.58 707.887,1583.58 708.487,1583.58 C711.987,1583.58 715.687,1582.58 719.187,1580.68 C725.787,1577.08 729.987,1571.28 729.987,1566.18 C729.987,1564.78 729.687,1563.38 728.987,1562.18"/>
<path class="Note" d="M874.304,1574.68 C872.804,1571.98 869.904,1570.28 866.004,1569.88 C865.404,1569.78 864.904,1569.78 864.304,1569.78 C860.804,1569.78 857.004,1570.78 853.504,1572.68 C846.904,1576.28 842.804,1582.18 842.804,1587.28 C842.804,1588.68 843.004,1589.98 843.704,1591.18 C845.204,1593.88 848.204,1595.58 852.104,1595.98 C852.704,1596.08 853.204,1596.08 853.804,1596.08 C857.304,1596.08 861.004,1595.08 864.504,1593.18 C871.104,1589.58 875.304,1583.78 875.304,1578.68 C875.304,1577.28 875.004,1575.88 874.304,1574.68"/>
<path class="Note" d="M1056.62,1587.18 C1055.12,1584.48 1052.22,1582.78 1048.32,1582.38 C1047.72,1582.28 1047.22,1582.28 1046.62,1582.28 C1043.12,1582.28 1039.32,1583.28 1035.82,1585.18 C1029.22,1588.78 1025.12,1594.68 1025.12,1599.78 C1025.12,1601.18 1025.32,1602.48 1026.02,1603.68 C1027.52,1606.38 1030.52,1608.08 1034.42,1608.48 C1035.02,1608.58 1035.52,1608.58 1036.12,1608.58 C1039.62,1608.58 1043.32,1607.58 1046.82,1605.68 C1053.42,1602.08 1057.62,1596.28 1057.62,1591.18 C1057.62,1589.78 1057.32,1588.38 1056.62,1587.18"/>
<path class="Note" d="M1197.04,1599.68 C1195.54,1596.98 1192.64,1595.28 1188.74,1594.88 C1188.14,1594.78 1187.64,1594.78 1187.04,1594.78 C1183.54,1594.78 1179.74,1595.78 1176.24,1597.68 C1169.64,1601.28 1165.54,1607.18 1165.54,1612.28 C1165.54,1613.68 1165.74,1614.98 1166.44,1616.18 C1167.94,1618.88 1170.94,1620.58 1174.84,1620.98 C1175.44,1621.08 1175.94,1621.08 1176.54,1621.08 C1180.04,1621.08 1183.74,1620.08 1187.24,1618.18 C1193.84,1614.58 1198.04,1608.78 1198.04,1603.68 C1198.04,1602.28 1197.74,1600.88 1197.04,1599.68"/>
<path class="Note" d="M1337.45,1612.18 C1335.95,1609.48 1333.05,1607.78 1329.15,1607.38 C1328.55,1607.28 1328.05,1607.28 1327.45,1607.28 C1323.95,1607.28 1320.15,1608.28 1316.65,1610.18 C1310.05,1613.78 1305.95,1619.68 1305.95,1624.78 C1305.95,1626.18 1306.15,1627.48 1306.85,1628.68 C1308.35,1631.38 1311.35,1633.08 1315.25,1633.48 C1315.85,1633.58 1316.35,1633.58 1316.95,1633.58 C1320.45,1633.58 1324.15,1632.58 1327.65,1630.68 C1334.25,1627.08 1338.45,1621.28 1338.45,1616.18 C1338.45,1614.78 1338.15,1613.38 1337.45,1612.18"/>
<path class="Note" d="M1477.86,1624.68 C1476.36,1621.98 1473.46,1620.28 1469.56,1619.88 C1468.96,1619.78 1468.46,1619.78 1467.86,1619.78 C1464.36,1619.78 1460.56,1620.78 1457.06,1622.68 C1450.46,1626.28 1446.36,1632.18 1446.36,1637.28 C1446.36,1638.68 1446.56,1639.98 1447.26,1641.18 C1448.76,1643.88 1451.76,1645.58 1455.66,1645.98 C1456.26,1646.08 1456.76,1646.08 1457.36,1646.08 C1460.86,1646.08 1464.56,1645.08 1468.06,1643.18 C1474.66,1639.58 1478.86,1633.78 1478.86,1628.68 C1478.86,1627.28 1478.56,1625.88 1477.86,1624.68"/>
<path class="Note" d="M1720.9,1487.17 C1719.4,1484.47 1716.5,1482.77 1712.6,1482.37 C1712,1482.27 1711.5,1482.27 1710.9,1482.27 C1707.4,1482.27 1703.6,1483.27 1700.1,1485.17 C1693.5,1488.77 1689.4,1494.67 1689.4,1499.77 C1689.4,1501.17 1689.6,1502.47 1690.3,1503.67 C1691.8,1506.37 1694.8,1508.07 1698.7,1508.47 C1699.3,1508.57 1699.8,1508.57 1700.4,1508.57 C1703.9,1508.57 1707.6,1507.57 1711.1,1505.67 C1717.7,1502.07 1721.9,1496.27 1721.9,1491.17 C1721.9,1489.77 1721.6,1488.37 1720.9,1487.17"/>
<path class="Note" d="M1853.09,1499.67 C1851.59,1496.97 1848.69,1495.27 1844.79,1494.87 C1844.19,1494.77 1843.69,1494.77 1843.09,1494.77 C1839.59,1494.77 1835.79,1495.77 1832.29,1497.67 C1825.69,1501.27 1821.59,1507.17 1821.59,1512.27 C1821.59,1513.67 1821.79,1514.97 1822.49,1516.17 C1823.99,1518.87 1826.99,1520.57 1830.89,1520.97 C1831.49,1521.07 1831.99,1521.07 1832.59,1521.07 C1836.09,1521.07 1839.79,1520.07 1843.29,1518.17 C1849.89,1514.57 1854.09,1508.77 1854.09,1503.67 C1854.09,1502.27 1853.79,1500.87 1853.09,1499.67"/>
<path class="Note" d="M1985.28,1512.17 C1983.78,1509.47 1980.88,1507.77 1976.98,1507.37 C1976.38,1507.27 1975.88,1507.27 1975.28,1507.27 C1971.78,1507.27 1967.98,1508.27 1964.48,1510.17 C1957.88,1513.77 1953.78,1519.67 1953.78,1524.77 C1953.78,1526.17 1953.98,1527.47 1954.68,1528.67 C1956.18,1531.37 1959.18,1533.07 1963.08,1533.47 C1963.68,1533.57 1964.18,1533.57 1964.78,1533.57 C1968.28,1533.57 1971.98,1532.57 1975.48,1530.67 C1982.08,1527.07 1986.28,1521.27 1986.28,1516.17 C1986.28,1514.77 1985.98,1513.37 1985.28,1512.17"/>
<path class="Note" d="M2117.47,1524.67 C2115.97,1521.97 2113.07,1520.27 2109.17,1519.87 C2108.57,1519.77 2108.07,1519.77 2107.47,1519.77 C2103.97,1519.77 2100.17,1520.77 2096.67,1522.67 C2090.07,1526.27 2085.97,1532.17 2085.97,1537.27 C2085.97,1538.67 2086.17,1539.97 2086.87,1541.17 C2088.37,1543.87 2091.37,1545.57 2095.27,1545.97 C2095.87,1546.07 2096.37,1546.07 2096.97,1546.07 C2100.47,1546.07 2104.17,1545.07 2107.67,1543.17 C2114.27,1539.57 2118.47,1533.77 2118.47,1528.67 C2118.47,1527.27 2118.17,1525.87 2117.47,1524.67"/>
<path class="Note" d="M2306.57,1537.17 C2305.07,1534.47 2302.17,1532.77 2298.27,1532.37 C2297.67,1532.27 2297.17,1532.27 2296.57,1532.27 C2293.07,1532.27 2289.27,1533.27 2285.77,1535.17 C2279.17,1538.77 2275.07,1544.67 2275.07,1549.77 C2275.07,1551.17 2275.27,1552.47 2275.97,1553.67 C2277.47,1556.37 2280.47,1558.07 2284.37,1558.47 C2284.97,1558.57 2285.47,1558.57 2286.07,1558.57 C2289.57,1558.57 2293.27,1557.57 2296.77,1555.67 C2303.37,1552.07 2307.57,1546.27 2307.57,1541.17 C2307.57,1539.77 2307.27,1538.37 2306.57,1537.17"/>
<path class="Note" d="M2461.62,1549.67 C2460.12,1546.97 2457.22,1545.27 2453.32,1544.87 C2452.72,1544.77 2452.22,1544.77 2451.62,1544.77 C2448.12,1544.77 2444.32,1545.77 2440.82,1547.67 C2434.22,1551.27 2430.12,1557.07 2430.12,1562.17 C2430.12,1563.57 2430.52,1564.97 2431.22,1566.17 C2432.72,1568.97 2435.52,1570.57 2439.42,1570.97 C2440.02,1571.07 2440.52,1571.07 2441.12,1571.07 C2444.62,1571.07 2448.42,1570.07 2451.92,1568.17 C2458.52,1564.57 2462.62,1558.67 2462.62,1553.57 C2462.62,1552.17 2462.32,1550.87 2461.62,1549.67 M2457.42,1555.97 C2455.72,1557.77 2452.52,1560.07 2448.92,1562.17 C2445.32,1564.27 2441.62,1565.97 2439.32,1566.67 C2438.82,1566.77 2438.22,1566.87 2437.72,1566.87 C2436.22,1566.87 2434.92,1566.17 2434.22,1565.07 C2433.92,1564.47 2433.72,1563.87 2433.72,1563.27 C2433.72,1562.17 2434.22,1561.07 2435.32,1559.87 C2437.02,1558.07 2440.22,1555.67 2443.82,1553.57 C2447.42,1551.47 2451.12,1549.77 2453.52,1549.17 L2453.72,1549.17 C2454.32,1548.97 2454.82,1548.87 2455.32,1548.87 C2456.72,1548.87 2457.82,1549.47 2458.52,1550.77 C2458.82,1551.37 2459.02,1551.87 2459.02,1552.47 C2459.02,1553.77 2458.32,1555.07 2457.42,1555.97"/>
<path class="Note" d="M486.502,737.124 C485.002,734.424 482.102,732.724 478.202,732.324 C477.602,732.224 477.102,732.224 476.502,732.224 C473.002,732.224 469.202,733.224 465.702,735.124 C459.102,738.724 455.002,744.624 455.002,749.724 C455.002,751.124 455.202,752.424 455.902,753.624 C457.402,756.324 460.402,758.024 464.302,758.424 C464.902,758.524 465.402,758.524 466.002,758.524 C469.502,758.524 473.202,757.524 476.702,755.624 C483.302,752.024 487.502,746.224 487.502,741.124 C487.502,739.724 487.202,738.324 486.502,737.124"/>
<path class="Note" d="M620.168,724.623 C618.668,721.923 615.768,720.223 611.868,719.823 C611.268,719.723 610.768,719.723 610.168,719.723 C606.668,719.723 602.868,720.723 599.368,722.623 C592.768,726.223 588.668,732.123 588.668,737.223 C588.668,738.623 588.868,739.923 589.568,741.123 C591.068,743.823 594.068,745.523 597.968,745.923 C598.568,746.023 599.068,746.023 599.668,746.023 C603.168,746.023 606.868,745.023 610.368,743.123 C616.968,739.523 621.168,733.723 621.168,728.623 C621.168,727.223 620.868,725.823 620.168,724.623"/>
<path class="Note" d="M753.834,712.122 C752.334,709.422 749.434,707.722 745.534,707.322 C744.934,707.222 744.434,707.222 743.834,707.222 C740.334,707.222 736.534,708.222 733.034,710.122 C726.434,713.722 722.334,719.622 722.334,724.722 C722.334,726.122 722.534,727.422 723.234,728.622 C724.734,731.322 727.734,733.022 731.634,733.422 C732.234,733.522 732.734,733.522 733.334,733.522 C736.834,733.522 740.534,732.522 744.034,730.622 C750.634,727.022 754.834,721.222 754.834,716.122 C754.834,714.722 754.534,713.322 753.834,712.122"/>
<path class="Note" d="M887.499,699.621 C885.999,696.921 883.099,695.221 879.199,694.821 C878.599,694.721 878.099,694.721 877.499,694.721 C873.999,694.721 870.199,695.721 866.699,697.621 C860.099,701.221 855.999,707.121 855.999,712.221 C855.999,713.621 856.199,714.921 856.899,716.121 C858.399,718.821 861.399,720.521 865.299,720.921 C865.899,721.021 866.399,721.021 866.999,721.021 C870.499,721.021 874.199,720.021 877.699,718.121 C884.299,714.521 888.499,708.721 888.499,703.621 C888.499,702.221 888.199,700.821 887.499,699.621"/>
<path class="Note" d="M1058.17,687.12 C1056.67,684.42 1053.77,682.72 1049.87,682.32 C1049.27,682.22 1048.77,682.22 1048.17,682.22 C1044.67,682.22 1040.87,683.22 1037.37,685.12 C1030.77,688.72 1026.67,694.62 1026.67,699.72 C1026.67,701.12 1026.87,702.42 1027.57,703.62 C1029.07,706.32 1032.07,708.02 1035.97,708.42 C1036.57,708.52 1037.07,708.52 1037.67,708.52 C1041.17,708.52 1044.87,707.52 1048.37,705.62 C1054.97,702.02 1059.17,696.22 1059.17,691.12 C1059.17,689.72 1058.87,688.32 1058.17,687.12"/>
<path class="Note" d="M1194.11,674.62 C1192.61,671.92 1189.71,670.22 1185.81,669.82 C1185.21,669.72 1184.71,669.72 1184.11,669.72 C1180.61,669.72 1176.81,670.72 1173.31,672.62 C1166.71,676.22 1162.61,682.12 1162.61,687.22 C1162.61,688.62 1162.81,689.92 1163.51,691.12 C1165.01,693.82 1168.01,695.52 1171.91,695.92 C1172.51,696.02 1173.01,696.02 1173.61,696.02 C1177.11,696.02 1180.81,695.02 1184.31,693.12 C1190.91,689.52 1195.11,683.72 1195.11,678.62 C1195.11,677.22 1194.81,675.82 1194.11,674.62"/>
<path class="Note" d="M1330.06,662.119 C1328.56,659.419 1325.66,657.719 1321.76,657.319 C1321.16,657.219 1320.66,657.219 1320.06,657.219 C1316.56,657.219 1312.76,658.219 1309.26,660.119 C1302.66,663.719 1298.56,669.619 1298.56,674.719 C1298.56,676.119 1298.76,677.419 1299.46,678.619 C1300.96,681.319 1303.96,683.019 1307.86,683.419 C1308.46,683.519 1308.96,683.519 1309.56,683.519 C1313.06,683.519 1316.76,682.519 1320.26,680.619 C1326.86,677.019 1331.06,671.219 1331.06,666.119 C1331.06,664.719 1330.76,663.319 1330.06,662.119"/>
<path class="Note" d="M1466.01,649.618 C1464.51,646.918 1461.61,645.218 1457.71,644.818 C1457.11,644.718 1456.61,644.718 1456.01,644.718 C1452.51,644.718 1448.71,645.718 1445.21,647.618 C1438.61,651.218 1434.51,657.118 1434.51,662.218 C1434.51,663.618 1434.71,664.918 1435.41,666.118 C1436.91,668.818 1439.91,670.518 1443.81,670.918 C1444.41,671.018 1444.91,671.018 1445.51,671.018 C1449.01,671.018 1452.71,670.018 1456.21,668.118 C1462.81,664.518 1467.01,658.718 1467.01,653.618 C1467.01,652.218 1466.71,650.818 1466.01,649.618"/>
<path class="Note" d="M1733.3,637.117 C1731.8,634.417 1728.9,632.717 1725,632.317 C1724.4,632.217 1723.9,632.217 1723.3,632.217 C1719.8,632.217 1716,633.217 1712.5,635.117 C1705.9,638.717 1701.8,644.617 1701.8,649.717 C1701.8,651.117 1702,652.417 1702.7,653.617 C1704.2,656.317 1707.2,658.017 1711.1,658.417 C1711.7,658.517 1712.2,658.517 1712.8,658.517 C1716.3,658.517 1720,657.517 1723.5,655.617 C1730.1,652.017 1734.3,646.217 1734.3,641.117 C1734.3,639.717 1734,638.317 1733.3,637.117"/>
<path class="Note" d="M1864,624.616 C1862.5,621.916 1859.6,620.216 1855.7,619.816 C1855.1,619.716 1854.6,619.716 1854,619.716 C1850.5,619.716 1846.7,620.716 1843.2,622.616 C1836.6,626.216 1832.5,632.116 1832.5,637.216 C1832.5,638.616 1832.7,639.916 1833.4,641.116 C1834.9,643.816 1837.9,645.516 1841.8,645.916 C1842.4,646.016 1842.9,646.016 1843.5,646.016 C1847,646.016 1850.7,645.016 1854.2,643.116 C1860.8,639.516 1865,633.716 1865,628.616 C1865,627.216 1864.7,625.816 1864,624.616"/>
<path class="Note" d="M1994.69,612.116 C1993.19,609.416 1990.29,607.716 1986.39,607.316 C1985.79,607.216 1985.29,607.216 1984.69,607.216 C1981.19,607.216 1977.39,608.216 1973.89,610.116 C1967.29,613.716 1963.19,619.616 1963.19,624.716 C1963.19,626.116 1963.39,627.416 1964.09,628.616 C1965.59,631.316 1968.59,633.016 1972.49,633.416 C1973.09,633.516 1973.59,633.516 1974.19,633.516 C1977.69,633.516 1981.39,632.516 1984.89,630.616 C1991.49,627.016 1995.69,621.216 1995.69,616.116 C1995.69,614.716 1995.39,613.316 1994.69,612.116"/>
<path class="Note" d="M2125.39,599.615 C2123.89,596.915 2120.99,595.215 2117.09,594.815 C2116.49,594.715 2115.99,594.715 2115.39,594.715 C2111.89,594.715 2108.09,595.715 2104.59,597.615 C2097.99,601.215 2093.89,607.115 2093.89,612.215 C2093.89,613.615 2094.09,614.915 2094.79,616.115 C2096.29,618.815 2099.29,620.515 2103.19,620.915 C2103.79,621.015 2104.29,621.015 2104.89,621.015 C2108.39,621.015 2112.09,620.015 2115.59,618.115 C2122.19,614.515 2126.39,608.715 2126.39,603.615 C2126.39,602.215 2126.09,600.815 2125.39,599.615"/>
<path class="Note" d="M2301.84,587.114 C2300.34,584.414 2297.44,582.714 2293.54,582.314 C2292.94,582.214 2292.44,582.214 2291.84,582.214 C2288.34,582.214 2284.54,583.214 2281.04,585.114 C2274.44,588.714 2270.34,594.614 2270.34,599.714 C2270.34,601.114 2270.54,602.414 2271.24,603.614 C2272.74,606.314 2275.74,608.014 2279.64,608.414 C2280.24,608.514 2280.74,608.514 2281.34,608.514 C2284.84,608.514 2288.54,607.514 2292.04,605.614 C2298.64,602.014 2302.84,596.214 2302.84,591.114 C2302.84,589.714 2302.54,588.314 2301.84,587.114"/>
<path class="Note" d="M2437.89,574.613 C2436.39,571.913 2433.49,570.213 2429.59,569.813 C2428.99,569.713 2428.49,569.713 2427.89,569.713 C2424.39,569.713 2420.59,570.713 2417.09,572.613 C2410.49,576.213 2406.39,582.113 2406.39,587.213 C2406.39,588.613 2406.59,589.913 2407.29,591.113 C2408.79,593.813 2411.79,595.513 2415.69,595.913 C2416.29,596.013 2416.79,596.013 2417.39,596.013 C2420.89,596.013 2424.59,595.013 2428.09,593.113 C2434.69,589.513 2438.89,583.713 2438.89,578.613 C2438.89,577.213 2438.59,575.813 2437.89,574.613"/>
<path class="Note" d="M2573.95,562.113 C2572.45,559.413 2569.55,557.713 2565.65,557.313 C2565.05,557.213 2564.55,557.213 2563.95,557.213 C2560.45,557.213 2556.65,558.213 2553.15,560.113 C2546.55,563.713 2542.45,569.513 2542.45,574.613 C2542.45,576.013 2542.85,577.413 2543.55,578.613 C2545.05,581.413 2547.85,583.013 2551.75,583.413 C2552.35,583.513 2552.85,583.513 2553.45,583.513 C2556.95,583.513 2560.75,582.513 2564.25,580.613 C2570.85,577.013 2574.95,571.113 2574.95,566.013 C2574.95,564.613 2574.65,563.313 2573.95,562.113 M2569.75,568.413 C2568.05,570.213 2564.85,572.513 2561.25,574.613 C2557.65,576.713 2553.95,578.413 2551.65,579.113 C2551.15,579.213 2550.55,579.313 2550.05,579.313 C2548.55,579.313 2547.25,578.613 2546.55,577.513 C2546.25,576.913 2546.05,576.313 2546.05,575.713 C2546.05,574.613 2546.55,573.513 2547.65,572.313 C2549.35,570.513 2552.55,568.113 2556.15,566.013 C2559.75,563.913 2563.45,562.213 2565.85,561.613 L2566.05,561.613 C2566.65,561.413 2567.15,561.313 2567.65,561.313 C2569.05,561.313 2570.15,561.913 2570.85,563.213 C2571.15,563.813 2571.35,564.313 2571.35,564.913 C2571.35,566.213 2570.65,567.513 2569.75,568.413"/>
<path class="Note" d="M438.351,1187.15 C436.851,1184.45 433.951,1182.75 430.051,1182.35 C429.451,1182.25 428.951,1182.25 428.351,1182.25 C424.851,1182.25 421.051,1183.25 417.551,1185.15 C410.951,1188.75 406.851,1194.65 406.851,1199.75 C406.851,1201.15 407.051,1202.45 407.751,1203.65 C409.251,1206.35 412.251,1208.05 416.151,1208.45 C416.751,1208.55 417.251,1208.55 417.851,1208.55 C421.351,1208.55 425.051,1207.55 428.551,1205.65 C435.151,1202.05 439.351,1196.25 439.351,1191.15 C439.351,1189.75 439.051,1188.35 438.351,1187.15"/>
<path class="Note" d="M583.669,1199.65 C582.169,1196.95 579.269,1195.25 575.369,1194.85 C574.769,1194.75 574.269,1194.75 573.669,1194.75 C570.169,1194.75 566.369,1195.75 562.869,1197.65 C556.269,1201.25 552.169,1207.15 552.169,1212.25 C552.169,1213.65 552.369,1214.95 553.069,1216.15 C554.569,1218.85 557.569,1220.55 561.469,1220.95 C562.069,1221.05 562.569,1221.05 563.169,1221.05 C566.669,1221.05 570.369,1220.05 573.869,1218.15 C580.469,1214.55 584.669,1208.75 584.669,1203.65 C584.669,1202.25 584.369,1200.85 583.669,1199.65"/>
<path class="Note" d="M728.987,1212.15 C727.487,1209.45 724.587,1207.75 720.687,1207.35 C720.087,1207.25 719.587,1207.25 718.987,1207.25 C715.487,1207.25 711.687,1208.25 708.187,1210.15 C701.587,1213.75 697.487,1219.65 697.487,1224.75 C697.487,1226.15 697.687,1227.45 698.387,1228.65 C699.887,1231.35 702.887,1233.05 706.787,1233.45 C707.387,1233.55 707.887,1233.55 708.487,1233.55 C711.987,1233.55 715.687,1232.55 719.187,1230.65 C725.787,1227.05 729.987,1221.25 729.987,1216.15 C729.987,1214.75 729.687,1213.35 728.987,1212.15"/>
<path class="Note" d="M874.304,1224.65 C872.804,1221.95 869.904,1220.25 866.004,1219.85 C865.404,1219.75 864.904,1219.75 864.304,1219.75 C860.804,1219.75 857.004,1220.75 853.504,1222.65 C846.904,1226.25 842.804,1232.15 842.804,1237.25 C842.804,1238.65 843.004,1239.95 843.704,1241.15 C845.204,1243.85 848.204,1245.55 852.104,1245.95 C852.704,1246.05 853.204,1246.05 853.804,1246.05 C857.304,1246.05 861.004,1245.05 864.504,1243.15 C871.104,1239.55 875.304,1233.75 875.304,1228.65 C875.304,1227.25 875.004,1225.85 874.304,1224.65"/>
<path class="Note" d="M1056.62,1237.16 C1055.12,1234.46 1052.22,1232.76 1048.32,1232.36 C1047.72,1232.26 1047.22,1232.26 1046.62,1232.26 C1043.12,1232.26 1039.32,1233.26 1035.82,1235.16 C1029.22,1238.76 1025.12,1244.66 1025.12,1249.76 C1025.12,1251.16 1025.32,1252.46 1026.02,1253.66 C1027.52,1256.36 1030.52,1258.06 1034.42,1258.46 C1035.02,1258.56 1035.52,1258.56 1036.12,1258.56 C1039.62,1258.56 1043.32,1257.56 1046.82,1255.66 C1053.42,1252.06 1057.62,1246.26 1057.62,1241.16 C1057.62,1239.76 1057.32,1238.36 1056.62,1237.16"/>
<path class="Note" d="M1197.04,1249.66 C1195.54,1246.96 1192.64,1245.26 1188.74,1244.86 C1188.14,1244.76 1187.64,1244.76 1187.04,1244.76 C1183.54,1244.76 1179.74,1245.76 1176.24,1247.66 C1169.64,1251.26 1165.54,1257.16 1165.54,1262.26 C1165.54,1263.66 1165.74,1264.96 1166.44,1266.16 C1167.94,1268.86 1170.94,1270.56 1174.84,1270.96 C1175.44,1271.06 1175.94,1271.06 1176.54,1271.06 C1180.04,1271.06 1183.74,1270.06 1187.24,1268.16 C1193.84,1264.56 1198.04,1258.76 1198.04,1253.66 C1198.04,1252.26 1197.74,1250.86 1197.04,1249.66"/>
<path class="Note" d="M1337.45,1262.16 C1335.95,1259.46 1333.05,1257.76 1329.15,1257.36 C1328.55,1257.26 1328.05,1257.26 1327.45,1257.26 C1323.95,1257.26 1320.15,1258.26 1316.65,1260.16 C1310.05,1263.76 1305.95,1269.66 1305.95,1274.76 C1305.95,1276.16 1306.15,1277.46 1306.85,1278.66 C1308.35,1281.36 1311.35,1283.06 1315.25,1283.46 C1315.85,1283.56 1316.35,1283.56 1316.95,1283.56 C1320.45,1283.56 1324.15,1282.56 1327.65,1280.66 C1334.25,1277.06 1338.45,1271.26 1338.45,1266.16 C1338.45,1264.76 1338.15,1263.36 1337.45,1262.16"/>
<path class="Note" d="M1477.86,1274.66 C1476.36,1271.96 1473.46,1270.26 1469.56,1269.86 C1468.96,1269.76 1468.46,1269.76 1467.86,1269.76 C1464.36,1269.76 1460.56,1270.76 1457.06,1272.66 C1450.46,1276.26 1446.36,1282.16 1446.36,1287.26 C1446.36,1288.66 1446.56,1289.96 1447.26,1291.16 C1448.76,1293.86 1451.76,1295.56 1455.66,1295.96 C1456.26,1296.06 1456.76,1296.06 1457.36,1296.06 C1460.86,1296.06 1464.56,1295.06 1468.06,1293.16 C1474.66,1289.56 1478.86,1283.76 1478.86,1278.66 C1478.86,1277.26 1478.56,1275.86 1477.86,1274.66"/>
<path class="Note" d="M1720.9,1287.16 C1719.4,1284.46 1716.5,1282.76 1712.6,1282.36 C1712,1282.26 1711.5,1282.26 1710.9,1282.26 C1707.4,1282.26 1703.6,1283.26 1700.1,1285.16 C1693.5,1288.76 1689.4,1294.66 1689.4,1299.76 C1689.4,1301.16 1689.6,1302.46 1690.3,1303.66 C1691.8,1306.36 1694.8,1308.06 1698.7,1308.46 C1699.3,1308.56 1699.8,1308.56 1700.4,1308.56 C1703.9,1308.56 1707.6,1307.56 1711.1,1305.66 C1717.7,1302.06 1721.9,1296.26 1721.9,1291.16 C1721.9,1289.76 1721.6,1288.36 1720.9,1287.16"/>
<path class="Note" d="M1853.09,1299.66 C1851.59,1296.96 1848.69,1295.26 1844.79,1294.86 C1844.19,1294.76 1843.69,1294.76 1843.09,1294.76 C1839.59,1294.76 1835.79,1295.76 1832.29,1297.66 C1825.69,1301.26 1821.59,1307.16 1821.59,1312.26 C1821.59,1313.66 1821.79,1314.96 1822.49,1316.16 C1823.99,1318.86 1826.99,1320.56 1830.89,1320.96 C1831.49,1321.06 1831.99,1321.06 1832.59,1321.06 C1836.09,1321.06 1839.79,1320.06 1843.29,1318.16 C1849.89,1314.56 1854.09,1308.76 1854.09,1303.66 C1854.09,1302.26 1853.79,1300.86 1853.09,1299.66"/>
<path class="Note" d="M1985.28,1312.16 C1983.78,1309.46 1980.88,1307.76 1976.98,1307.36 C1976.38,1307.26 1975.88,1307.26 1975.28,1307.26 C1971.78,1307.26 1967.98,1308.26 1964.48,1310.16 C1957.88,1313.76 1953.78,1319.66 1953.78,1324.76 C1953.78,1326.16 1953.98,1327.46 1954.68,1328.66 C1956.18,1331.36 1959.18,1333.06 1963.08,1333.46 C1963.68,1333.56 1964.18,1333.56 1964.78,1333.56 C1968.28,1333.56 1971.98,1332.56 1975.48,1330.66 C1982.08,1327.06 1986.28,1321.26 1986.28,1316.16 C1986.28,1314.76 1985.98,1313.36 1985.28,1312.16"/>
<path class="Note" d="M2117.47,1324.66 C2115.97,1321.96 2113.07,1320.26 2109.17,1319.86 C2108.57,1319.76 2108.07,1319.76 2107.47,1319.76 C2103.97,1319.76 2100.17,1320.76 2096.67,1322.66 C2090.07,1326.26 2085.97,1332.16 2085.97,1337.26 C2085.97,1338.66 2086.17,1339.96 2086.87,1341.16 C2088.37,1343.86 2091.37,1345.56 2095.27,1345.96 C2095.87,1346.06 2096.37,1346.06 2096.97,1346.06 C2100.47,1346.06 2104.17,1345.06 2107.67,1343.16 C2114.27,1339.56 2118.47,1333.76 2118.47,1328.66 C2118.47,1327.26 2118.17,1325.86 2117.47,1324.66"/>
<path class="Note" d="M2306.57,1337.16 C2305.07,1334.46 2302.17,1332.76 2298.27,1332.36 C2297.67,1332.26 2297.17,1332.26 2296.57,1332.26 C2293.07,1332.26 2289.27,1333.26 2285.77,1335.16 C2279.17,1338.76 2275.07,1344.66 2275.07,1349.76 C2275.07,1351.16 2275.27,1352.46 2275.97,1353.66 C2277.47,1356.36 2280.47,1358.06 2284.37,1358.46 C2284.97,1358.56 2285.47,1358.56 2286.07,1358.56 C2289.57,1358.56 2293.27,1357.56 2296.77,1355.66 C2303.37,1352.06 2307.57,1346.26 2307.57,1341.16 C2307.57,1339.76 2307.27,1338.36 2306.57,1337.16"/>
<path class="Note" d="M2461.62,1349.66 C2460.12,1346.96 2457.22,1345.26 2453.32,1344.86 C2452.72,1344.76 2452.22,1344.76 2451.62,1344.76 C2448.12,1344.76 2444.32,1345.76 2440.82,1347.66 C2434.22,1351.26 2430.12,1357.06 2430.12,1362.16 C2430.12,1363.56 2430.52,1364.96 2431.22,1366.16 C2432.72,1368.96 2435.52,1370.56 2439.42,1370.96 C2440.02,1371.06 2440.52,1371.06 2441.12,1371.06 C2444.62,1371.06 2448.42,1370.06 2451.92,1368.16 C2458.52,1364.56 2462.62,1358.66 2462.62,1353.56 C2462.62,1352.16 2462.32,1350.86 2461.62,1349.66 M2457.42,1355.96 C2455.72,1357.76 2452.52,1360.06 2448.92,1362.16 C2445.32,1364.26 2441.62,1365.96 2439.32,1366.66 C2438.82,1366.76 2438.22,1366.86 2437.72,1366.86 C2436.22,1366.86 2434.92,1366.16 2434.22,1365.06 C2433.92,1364.46 2433.72,1363.86 2433.72,1363.26 C2433.72,1362.16 2434.22,1361.06 2435.32,1359.86 C2437.02,1358.06 2440.22,1355.66 2443.82,1353.56 C2447.42,1351.46 2451.12,1349.76 2453.52,1349.16 L2453.72,1349.16 C2454.32,1348.96 2454.82,1348.86 2455.32,1348.86 C2456.72,1348.86 2457.82,1349.46 2458.52,1350.76 C2458.82,1351.36 2459.02,1351.86 2459.02,1352.46 C2459.02,1353.76 2458.32,1355.06 2457.42,1355.96"/>
<path class="Clef" d="M297,907.735 C289.4,907.735 283.3,912.135 283.2,912.135 C277.4,916.435 275.1,921.535 274.2,925.035 C273.7,926.835 273.5,928.635 273.5,930.335 C273.5,932.735 273.9,934.935 274.8,936.835 C276,939.535 278.3,941.435 281.3,942.435 C282.5,942.835 283.8,943.035 285.1,943.035 C287.3,943.035 289.6,942.435 291.5,941.335 C294.6,939.635 296.5,936.035 296.5,932.135 C296.5,928.635 294.7,925.435 291.7,923.535 C289.6,922.135 287.6,921.735 285.9,921.735 C284.7,921.735 283.6,921.935 282.7,922.235 C281.7,922.635 280,923.635 279.2,924.335 C279.5,922.435 280.7,919.535 281.8,917.935 C282.9,916.335 285.1,914.335 286.8,913.435 C289.3,912.035 292.5,911.435 296,911.435 C306.2,911.435 311.2,919.635 311.2,936.435 C311.2,945.735 307.7,954.635 304.7,960.535 C301.4,967.135 297,973.435 293.1,976.935 C282.7,986.435 272.9,990.935 272.8,990.935 C272.8,990.935 271.3,991.835 271.7,993.335 C272,994.335 272.9,994.535 273.5,994.535 C273.6,994.535 273.9,994.435 274,994.435 C274.1,994.435 285.5,989.735 294.6,982.635 C299.7,978.935 304.3,974.935 308.3,970.635 C311.9,966.735 315,962.535 317.5,958.335 C321.9,950.835 324.4,943.035 324.4,936.335 C324.4,928.035 322.2,921.135 318.1,916.235 C313.4,910.635 306.3,907.735 297,907.735 M328.4,920.435 C328.4,923.235 330.6,925.435 333.2,925.435 C335.8,925.435 338,923.235 338,920.435 C338,917.635 335.8,915.335 333.2,915.335 C330.6,915.335 328.4,917.635 328.4,920.435 M328.4,945.135 C328.4,947.935 330.6,950.235 333.2,950.235 C335.8,950.235 338,947.935 338,945.135 C338,942.335 335.8,940.035 333.2,940.035 C330.6,940.035 328.4,942.335 328.4,945.135"/>
<path class="Clef" transform="matrix(0.80005,0,0,0.80005,1594.95,982.839)" d="M63.4,-5.9 C62.2,-11.3 59.5,-15.2 58.7,-16.2 C55.5,-20.5 51.5,-23.3 46.8,-24.7 C44.5,-25.4 42.4,-25.6 40.4,-25.6 C39.7,-25.6 39,-25.6 38.3,-25.5 C37.3,-31.5 36.2,-37.4 35.3,-42.8 C40.9,-49 44.6,-54.9 47,-59.3 C50.6,-66 52,-70.7 52.1,-70.9 C53.3,-73.9 54,-77.7 54,-82.2 C54,-84.9 53.7,-87.8 53.3,-90.8 C52.2,-97.9 50,-104.6 47.5,-108.3 C46.2,-110.2 45,-111.3 43.8,-111.3 C42.6,-111.3 40.1,-110.1 37.2,-107.3 C34.9,-105.1 31.6,-101.2 29,-95.2 C26.7,-89.8 26,-82.9 26,-77 C26,-75.2 26.1,-73.5 26.2,-71.9 C26.4,-68.3 27.1,-62.5 27.7,-58.9 C27.7,-58.8 28,-57.3 28.4,-54.7 L27.7,-54 C26.7,-53 25.5,-51.9 24.1,-50.5 C23.2,-49.6 22.3,-48.8 21.3,-47.8 C12.8,-39.6 0,-27.2 0,-8.1 C0,-3.4 0.9,1 2.7,5 C4.3,8.6 6.6,11.9 9.5,14.8 C17,22.2 27.2,25.4 34.3,25.4 L34.9,25.4 C37.8,25.3 40.5,25 42.9,24.6 C44.7,34.2 45.9,41.3 45.9,46.6 C45.9,53.1 44.3,57 40.4,59.8 C38,61.5 35.1,62.6 32,62.7 L31.2,62.7 C29.7,62.7 27.2,62.3 25.7,61.9 C25.7,61.9 25.4,61.8 25.4,61.6 C25.4,61.4 25.8,61.4 25.8,61.4 C27.7,61 31.3,59.7 33.7,56.4 C34.8,54.9 35.5,52.6 35.5,50.1 C35.5,48.5 35.2,46.8 34.5,45.3 C33.4,42.9 30.8,39.9 25.2,39.5 L24.1,39.5 C22,39.5 20.2,40 18.5,41 C16.7,42.1 15.1,43.8 14.1,45.8 C13,47.8 12.5,50 12.5,52.2 C12.5,55.1 13.4,57.8 15.2,60 C18.2,63.6 22.9,65.9 28.3,66.5 C29,66.6 30.1,66.7 30.8,66.7 C35.2,66.7 39.6,65.5 43.2,63.3 C46.9,60.7 49,56.7 49.7,51.1 C49.9,49.8 49.9,48.4 49.9,46.9 C49.9,43 49.4,38.3 48.4,32.5 C48,30.4 47.6,27.4 46.9,23.6 C52.7,21.7 56.8,18 60.6,12.2 C62.9,8.2 64,4.1 64,-0.2 C64,-2.1 63.8,-4 63.4,-5.9 M33.2,-83.8 C35,-89.5 37.7,-92.9 39.7,-94.6 C41.5,-96.1 43.1,-96.8 44,-96.8 C44.1,-96.8 44.3,-96.7 44.4,-96.7 C44.7,-96.6 45.1,-96.1 45.5,-95.4 C46.4,-93.6 47.3,-90.3 47.3,-86.6 C47.3,-84.7 47.1,-82.7 46.5,-80.9 C44.3,-74.1 39.7,-66.8 32.7,-59.1 C32.5,-60.2 32.3,-61.2 32.2,-62.2 C31.7,-65.4 31.4,-68.6 31.4,-71.5 C31.4,-76 32,-80.1 33.2,-83.8 M29.2,20.3 C24.6,19.1 20.1,16.6 16.3,13.1 C15,11.9 13.2,9.7 11.7,6.3 C10.4,3.3 9.7,0.2 9.7,-3.2 L9.7,-3.9 C9.8,-8.6 11.1,-13.4 13.6,-18.2 C16.5,-23.8 21,-29.3 27.1,-34.6 C28.6,-35.9 30,-37.2 31.3,-38.5 C32.1,-34.2 32.8,-29.5 33.7,-24.6 C29.8,-23.3 25.1,-20.3 22,-14.6 C19.6,-10.1 18.9,-6.2 18.9,-3 C18.9,-1.5 19.1,-0.1 19.3,1 C20.2,5.5 22.8,9.2 26.3,11.3 C27.1,11.8 30.4,13.5 32.4,13.5 C32.7,13.5 33,13.5 33.2,13.4 C33.5,13.3 33.8,13.1 33.9,12.8 C34,12.6 34,12.4 34,12.2 C34,11.4 33.2,10.8 31.9,10 C31.3,9.6 30.6,9.2 29.9,8.7 C27.3,6.7 25.8,3.6 25.8,0.2 C25.8,-0.8 26,-1.7 26.2,-2.7 C26.7,-4.7 28.4,-7.5 29.9,-8.9 C31.6,-10.4 33.6,-11.6 36,-12.2 C38,-1 40.1,10.1 41.7,18.5 C41.8,19.2 42,19.9 42.1,20.6 C40.1,21 38.1,21.2 36.2,21.2 C33.8,21.2 31.5,20.9 29.2,20.3 M54.9,10.1 C53.7,13.3 51.2,17.3 46.1,19.4 C46,19 46,18.5 45.9,18.1 C44.4,9.3 42.5,-1.6 40.5,-12.9 L41.5,-12.9 C51.2,-12.9 55.1,-5.7 56,-1.1 C56.2,-0.2 56.3,1 56.3,2.3 C56.3,4.6 55.9,7.4 54.9,10.1"/>
<path class="Clef" d="M335,1589.48 C333.8,1584.08 331.1,1580.18 330.3,1579.18 C327.1,1574.88 323.1,1572.08 318.4,1570.68 C316.1,1569.98 314,1569.78 312,1569.78 C311.3,1569.78 310.6,1569.78 309.9,1569.88 C308.9,1563.88 307.8,1557.98 306.9,1552.58 C312.5,1546.38 316.2,1540.48 318.6,1536.08 C322.2,1529.38 323.6,1524.68 323.7,1524.48 C324.9,1521.48 325.6,1517.68 325.6,1513.18 C325.6,1510.48 325.3,1507.58 324.9,1504.58 C323.8,1497.48 321.6,1490.78 319.1,1487.08 C317.8,1485.18 316.6,1484.08 315.4,1484.08 C314.2,1484.08 311.7,1485.28 308.8,1488.08 C306.5,1490.28 303.2,1494.18 300.6,1500.18 C298.3,1505.58 297.6,1512.48 297.6,1518.38 C297.6,1520.18 297.7,1521.88 297.8,1523.48 C298,1527.08 298.7,1532.88 299.3,1536.48 C299.3,1536.58 299.6,1538.08 300,1540.68 L299.3,1541.38 C298.3,1542.38 297.1,1543.48 295.7,1544.88 C294.8,1545.78 293.9,1546.58 292.9,1547.58 C284.4,1555.78 271.6,1568.18 271.6,1587.28 C271.6,1591.98 272.5,1596.38 274.3,1600.38 C275.9,1603.98 278.2,1607.28 281.1,1610.18 C288.6,1617.58 298.8,1620.78 305.9,1620.78 L306.5,1620.78 C309.4,1620.68 312.1,1620.38 314.5,1619.98 C316.3,1629.58 317.5,1636.68 317.5,1641.98 C317.5,1648.48 315.9,1652.38 312,1655.18 C309.6,1656.88 306.7,1657.98 303.6,1658.08 L302.8,1658.08 C301.3,1658.08 298.8,1657.68 297.3,1657.28 C297.3,1657.28 297,1657.18 297,1656.98 C297,1656.78 297.4,1656.78 297.4,1656.78 C299.3,1656.38 302.9,1655.08 305.3,1651.78 C306.4,1650.28 307.1,1647.98 307.1,1645.48 C307.1,1643.88 306.8,1642.18 306.1,1640.68 C305,1638.28 302.4,1635.28 296.8,1634.88 L295.7,1634.88 C293.6,1634.88 291.8,1635.38 290.1,1636.38 C288.3,1637.48 286.7,1639.18 285.7,1641.18 C284.6,1643.18 284.1,1645.38 284.1,1647.58 C284.1,1650.48 285,1653.18 286.8,1655.38 C289.8,1658.98 294.5,1661.28 299.9,1661.88 C300.6,1661.98 301.7,1662.08 302.4,1662.08 C306.8,1662.08 311.2,1660.88 314.8,1658.68 C318.5,1656.08 320.6,1652.08 321.3,1646.48 C321.5,1645.18 321.5,1643.78 321.5,1642.28 C321.5,1638.38 321,1633.68 320,1627.88 C319.6,1625.78 319.2,1622.78 318.5,1618.98 C324.3,1617.08 328.4,1613.38 332.2,1607.58 C334.5,1603.58 335.6,1599.48 335.6,1595.18 C335.6,1593.28 335.4,1591.38 335,1589.48 M304.8,1511.58 C306.6,1505.88 309.3,1502.48 311.3,1500.78 C313.1,1499.28 314.7,1498.58 315.6,1498.58 C315.7,1498.58 315.9,1498.68 316,1498.68 C316.3,1498.78 316.7,1499.28 317.1,1499.98 C318,1501.78 318.9,1505.08 318.9,1508.78 C318.9,1510.68 318.7,1512.68 318.1,1514.48 C315.9,1521.28 311.3,1528.58 304.3,1536.28 C304.1,1535.18 303.9,1534.18 303.8,1533.18 C303.3,1529.98 303,1526.78 303,1523.88 C303,1519.38 303.6,1515.28 304.8,1511.58 M300.8,1615.68 C296.2,1614.48 291.7,1611.98 287.9,1608.48 C286.6,1607.28 284.8,1605.08 283.3,1601.68 C282,1598.68 281.3,1595.58 281.3,1592.18 L281.3,1591.48 C281.4,1586.78 282.7,1581.98 285.2,1577.18 C288.1,1571.58 292.6,1566.08 298.7,1560.78 C300.2,1559.48 301.6,1558.18 302.9,1556.88 C303.7,1561.18 304.4,1565.88 305.3,1570.78 C301.4,1572.08 296.7,1575.08 293.6,1580.78 C291.2,1585.28 290.5,1589.18 290.5,1592.38 C290.5,1593.88 290.7,1595.28 290.9,1596.38 C291.8,1600.88 294.4,1604.58 297.9,1606.68 C298.7,1607.18 302,1608.88 304,1608.88 C304.3,1608.88 304.6,1608.88 304.8,1608.78 C305.1,1608.68 305.4,1608.48 305.5,1608.18 C305.6,1607.98 305.6,1607.78 305.6,1607.58 C305.6,1606.78 304.8,1606.18 303.5,1605.38 C302.9,1604.98 302.2,1604.58 301.5,1604.08 C298.9,1602.08 297.4,1598.98 297.4,1595.58 C297.4,1594.58 297.6,1593.68 297.8,1592.68 C298.3,1590.68 300,1587.88 301.5,1586.48 C303.2,1584.98 305.2,1583.78 307.6,1583.18 C309.6,1594.38 311.7,1605.48 313.3,1613.88 C313.4,1614.58 313.6,1615.28 313.7,1615.98 C311.7,1616.38 309.7,1616.58 307.8,1616.58 C305.4,1616.58 303.1,1616.28 300.8,1615.68 M326.5,1605.48 C325.3,1608.68 322.8,1612.68 317.7,1614.78 C317.6,1614.38 317.6,1613.88 317.5,1613.48 C316,1604.68 314.1,1593.78 312.1,1582.48 L313.1,1582.48 C322.8,1582.48 326.7,1589.68 327.6,1594.28 C327.8,1595.18 327.9,1596.38 327.9,1597.68 C327.9,1599.98 327.5,1602.78 326.5,1605.48"/>
<path class="Clef" transform="matrix(0.80005,0,0,0.80005,1611.27,1545.37)" d="M25.4,-25.1 C17.8,-25.1 11.7,-20.7 11.6,-20.7 C5.8,-16.4 3.5,-11.3 2.6,-7.8 C2.1,-6 1.9,-4.2 1.9,-2.5 C1.9,-0.1 2.3,2.1 3.2,4 C4.4,6.7 6.7,8.6 9.7,9.6 C10.9,10 12.2,10.2 13.5,10.2 C15.7,10.2 18,9.6 19.9,8.5 C23,6.8 24.9,3.2 24.9,-0.7 C24.9,-4.2 23.1,-7.4 20.1,-9.3 C18,-10.7 16,-11.1 14.3,-11.1 C13.1,-11.1 12,-10.9 11.1,-10.6 C10.1,-10.2 8.4,-9.2 7.6,-8.5 C7.9,-10.4 9.1,-13.3 10.2,-14.9 C11.3,-16.5 13.5,-18.5 15.2,-19.4 C17.7,-20.8 20.9,-21.4 24.4,-21.4 C34.6,-21.4 39.6,-13.2 39.6,3.6 C39.6,12.9 36.1,21.8 33.1,27.7 C29.8,34.3 25.4,40.6 21.5,44.1 C11.1,53.6 1.3,58.1 1.2,58.1 C1.2,58.1 -0.3,59 0.1,60.5 C0.4,61.5 1.3,61.7 1.9,61.7 C2,61.7 2.3,61.6 2.4,61.6 C2.5,61.6 13.9,56.9 23,49.8 C28.1,46.1 32.7,42.1 36.7,37.8 C40.3,33.9 43.4,29.7 45.9,25.5 C50.3,18 52.8,10.2 52.8,3.5 C52.8,-4.8 50.6,-11.7 46.5,-16.6 C41.8,-22.2 34.7,-25.1 25.4,-25.1 M56.8,-12.4 C56.8,-9.6 59,-7.4 61.6,-7.4 C64.2,-7.4 66.4,-9.6 66.4,-12.4 C66.4,-15.2 64.2,-17.5 61.6,-17.5 C59,-17.5 56.8,-15.2 56.8,-12.4 M56.8,12.3 C56.8,15.1 59,17.4 61.6,17.4 C64.2,17.4 66.4,15.1 66.4,12.3 C66.4,9.5 64.2,7.2 61.6,7.2 C59,7.2 56.8,9.5 56.8,12.3"/>
<path class="Clef" d="M335,714.422 C333.8,709.022 331.1,705.122 330.3,704.122 C327.1,699.822 323.1,697.022 318.4,695.622 C316.1,694.922 314,694.722 312,694.722 C311.3,694.722 310.6,694.722 309.9,694.822 C308.9,688.822 307.8,682.922 306.9,677.522 C312.5,671.322 316.2,665.422 318.6,661.022 C322.2,654.322 323.6,649.622 323.7,649.422 C324.9,646.422 325.6,642.622 325.6,638.122 C325.6,635.422 325.3,632.522 324.9,629.522 C323.8,622.422 321.6,615.722 319.1,612.022 C317.8,610.122 316.6,609.022 315.4,609.022 C314.2,609.022 311.7,610.222 308.8,613.022 C306.5,615.222 303.2,619.122 300.6,625.122 C298.3,630.522 297.6,637.422 297.6,643.322 C297.6,645.122 297.7,646.822 297.8,648.422 C298,652.022 298.7,657.822 299.3,661.422 C299.3,661.522 299.6,663.022 300,665.622 L299.3,666.322 C298.3,667.322 297.1,668.422 295.7,669.822 C294.8,670.722 293.9,671.522 292.9,672.522 C284.4,680.722 271.6,693.122 271.6,712.222 C271.6,716.922 272.5,721.322 274.3,725.322 C275.9,728.922 278.2,732.222 281.1,735.122 C288.6,742.522 298.8,745.722 305.9,745.722 L306.5,745.722 C309.4,745.622 312.1,745.322 314.5,744.922 C316.3,754.522 317.5,761.622 317.5,766.922 C317.5,773.422 315.9,777.322 312,780.122 C309.6,781.822 306.7,782.922 303.6,783.022 L302.8,783.022 C301.3,783.022 298.8,782.622 297.3,782.222 C297.3,782.222 297,782.122 297,781.922 C297,781.722 297.4,781.722 297.4,781.722 C299.3,781.322 302.9,780.022 305.3,776.722 C306.4,775.222 307.1,772.922 307.1,770.422 C307.1,768.822 306.8,767.122 306.1,765.622 C305,763.222 302.4,760.222 296.8,759.822 L295.7,759.822 C293.6,759.822 291.8,760.322 290.1,761.322 C288.3,762.422 286.7,764.122 285.7,766.122 C284.6,768.122 284.1,770.322 284.1,772.522 C284.1,775.422 285,778.122 286.8,780.322 C289.8,783.922 294.5,786.222 299.9,786.822 C300.6,786.922 301.7,787.022 302.4,787.022 C306.8,787.022 311.2,785.822 314.8,783.622 C318.5,781.022 320.6,777.022 321.3,771.422 C321.5,770.122 321.5,768.722 321.5,767.222 C321.5,763.322 321,758.622 320,752.822 C319.6,750.722 319.2,747.722 318.5,743.922 C324.3,742.022 328.4,738.322 332.2,732.522 C334.5,728.522 335.6,724.422 335.6,720.122 C335.6,718.222 335.4,716.322 335,714.422 M304.8,636.522 C306.6,630.822 309.3,627.422 311.3,625.722 C313.1,624.222 314.7,623.522 315.6,623.522 C315.7,623.522 315.9,623.622 316,623.622 C316.3,623.722 316.7,624.222 317.1,624.922 C318,626.722 318.9,630.022 318.9,633.722 C318.9,635.622 318.7,637.622 318.1,639.422 C315.9,646.222 311.3,653.522 304.3,661.222 C304.1,660.122 303.9,659.122 303.8,658.122 C303.3,654.922 303,651.722 303,648.822 C303,644.322 303.6,640.222 304.8,636.522 M300.8,740.622 C296.2,739.422 291.7,736.922 287.9,733.422 C286.6,732.222 284.8,730.022 283.3,726.622 C282,723.622 281.3,720.522 281.3,717.122 L281.3,716.422 C281.4,711.722 282.7,706.922 285.2,702.122 C288.1,696.522 292.6,691.022 298.7,685.722 C300.2,684.422 301.6,683.122 302.9,681.822 C303.7,686.122 304.4,690.822 305.3,695.722 C301.4,697.022 296.7,700.022 293.6,705.722 C291.2,710.222 290.5,714.122 290.5,717.322 C290.5,718.822 290.7,720.222 290.9,721.322 C291.8,725.822 294.4,729.522 297.9,731.622 C298.7,732.122 302,733.822 304,733.822 C304.3,733.822 304.6,733.822 304.8,733.722 C305.1,733.622 305.4,733.422 305.5,733.122 C305.6,732.922 305.6,732.722 305.6,732.522 C305.6,731.722 304.8,731.122 303.5,730.322 C302.9,729.922 302.2,729.522 301.5,729.022 C298.9,727.022 297.4,723.922 297.4,720.522 C297.4,719.522 297.6,718.622 297.8,717.622 C298.3,715.622 300,712.822 301.5,711.422 C303.2,709.922 305.2,708.722 307.6,708.122 C309.6,719.322 311.7,730.422 313.3,738.822 C313.4,739.522 313.6,740.222 313.7,740.922 C311.7,741.322 309.7,741.522 307.8,741.522 C305.4,741.522 303.1,741.222 300.8,740.622 M326.5,730.422 C325.3,733.622 322.8,737.622 317.7,739.722 C317.6,739.322 317.6,738.822 317.5,738.422 C316,729.622 314.1,718.722 312.1,707.422 L313.1,707.422 C322.8,707.422 326.7,714.622 327.6,719.222 C327.8,720.122 327.9,721.322 327.9,722.622 C327.9,724.922 327.5,727.722 326.5,730.422"/>
<path class="Clef" d="M335,1326.96 C333.8,1321.56 331.1,1317.66 330.3,1316.66 C327.1,1312.36 323.1,1309.56 318.4,1308.16 C316.1,1307.46 314,1307.26 312,1307.26 C311.3,1307.26 310.6,1307.26 309.9,1307.36 C308.9,1301.36 307.8,1295.46 306.9,1290.06 C312.5,1283.86 316.2,1277.96 318.6,1273.56 C322.2,1266.86 323.6,1262.16 323.7,1261.96 C324.9,1258.96 325.6,1255.16 325.6,1250.66 C325.6,1247.96 325.3,1245.06 324.9,1242.06 C323.8,1234.96 321.6,1228.26 319.1,1224.56 C317.8,1222.66 316.6,1221.56 315.4,1221.56 C314.2,1221.56 311.7,1222.76 308.8,1225.56 C306.5,1227.76 303.2,1231.66 300.6,1237.66 C298.3,1243.06 297.6,1249.96 297.6,1255.86 C297.6,1257.66 297.7,1259.36 297.8,1260.96 C298,1264.56 298.7,1270.36 299.3,1273.96 C299.3,1274.06 299.6,1275.56 300,1278.16 L299.3,1278.86 C298.3,1279.86 297.1,1280.96 295.7,1282.36 C294.8,1283.26 293.9,1284.06 292.9,1285.06 C284.4,1293.26 271.6,1305.66 271.6,1324.76 C271.6,1329.46 272.5,1333.86 274.3,1337.86 C275.9,1341.46 278.2,1344.76 281.1,1347.66 C288.6,1355.06 298.8,1358.26 305.9,1358.26 L306.5,1358.26 C309.4,1358.16 312.1,1357.86 314.5,1357.46 C316.3,1367.06 317.5,1374.16 317.5,1379.46 C317.5,1385.96 315.9,1389.86 312,1392.66 C309.6,1394.36 306.7,1395.46 303.6,1395.56 L302.8,1395.56 C301.3,1395.56 298.8,1395.16 297.3,1394.76 C297.3,1394.76 297,1394.66 297,1394.46 C297,1394.26 297.4,1394.26 297.4,1394.26 C299.3,1393.86 302.9,1392.56 305.3,1389.26 C306.4,1387.76 307.1,1385.46 307.1,1382.96 C307.1,1381.36 306.8,1379.66 306.1,1378.16 C305,1375.76 302.4,1372.76 296.8,1372.36 L295.7,1372.36 C293.6,1372.36 291.8,1372.86 290.1,1373.86 C288.3,1374.96 286.7,1376.66 285.7,1378.66 C284.6,1380.66 284.1,1382.86 284.1,1385.06 C284.1,1387.96 285,1390.66 286.8,1392.86 C289.8,1396.46 294.5,1398.76 299.9,1399.36 C300.6,1399.46 301.7,1399.56 302.4,1399.56 C306.8,1399.56 311.2,1398.36 314.8,1396.16 C318.5,1393.56 320.6,1389.56 321.3,1383.96 C321.5,1382.66 321.5,1381.26 321.5,1379.76 C321.5,1375.86 321,1371.16 320,1365.36 C319.6,1363.26 319.2,1360.26 318.5,1356.46 C324.3,1354.56 328.4,1350.86 332.2,1345.06 C334.5,1341.06 335.6,1336.96 335.6,1332.66 C335.6,1330.76 335.4,1328.86 335,1326.96 M304.8,1249.06 C306.6,1243.36 309.3,1239.96 311.3,1238.26 C313.1,1236.76 314.7,1236.06 315.6,1236.06 C315.7,1236.06 315.9,1236.16 316,1236.16 C316.3,1236.26 316.7,1236.76 317.1,1237.46 C318,1239.26 318.9,1242.56 318.9,1246.26 C318.9,1248.16 318.7,1250.16 318.1,1251.96 C315.9,1258.76 311.3,1266.06 304.3,1273.76 C304.1,1272.66 303.9,1271.66 303.8,1270.66 C303.3,1267.46 303,1264.26 303,1261.36 C303,1256.86 303.6,1252.76 304.8,1249.06 M300.8,1353.16 C296.2,1351.96 291.7,1349.46 287.9,1345.96 C286.6,1344.76 284.8,1342.56 283.3,1339.16 C282,1336.16 281.3,1333.06 281.3,1329.66 L281.3,1328.96 C281.4,1324.26 282.7,1319.46 285.2,1314.66 C288.1,1309.06 292.6,1303.56 298.7,1298.26 C300.2,1296.96 301.6,1295.66 302.9,1294.36 C303.7,1298.66 304.4,1303.36 305.3,1308.26 C301.4,1309.56 296.7,1312.56 293.6,1318.26 C291.2,1322.76 290.5,1326.66 290.5,1329.86 C290.5,1331.36 290.7,1332.76 290.9,1333.86 C291.8,1338.36 294.4,1342.06 297.9,1344.16 C298.7,1344.66 302,1346.36 304,1346.36 C304.3,1346.36 304.6,1346.36 304.8,1346.26 C305.1,1346.16 305.4,1345.96 305.5,1345.66 C305.6,1345.46 305.6,1345.26 305.6,1345.06 C305.6,1344.26 304.8,1343.66 303.5,1342.86 C302.9,1342.46 302.2,1342.06 301.5,1341.56 C298.9,1339.56 297.4,1336.46 297.4,1333.06 C297.4,1332.06 297.6,1331.16 297.8,1330.16 C298.3,1328.16 300,1325.36 301.5,1323.96 C303.2,1322.46 305.2,1321.26 307.6,1320.66 C309.6,1331.86 311.7,1342.96 313.3,1351.36 C313.4,1352.06 313.6,1352.76 313.7,1353.46 C311.7,1353.86 309.7,1354.06 307.8,1354.06 C305.4,1354.06 303.1,1353.76 300.8,1353.16 M326.5,1342.96 C325.3,1346.16 322.8,1350.16 317.7,1352.26 C317.6,1351.86 317.6,1351.36 317.5,1350.96 C316,1342.16 314.1,1331.26 312.1,1319.96 L313.1,1319.96 C322.8,1319.96 326.7,1327.16 327.6,1331.76 C327.8,1332.66 327.9,1333.86 327.9,1335.16 C327.9,1337.46 327.5,1340.26 326.5,1342.96"/>
<path class="TimeSig" d="M365.2,946.235 L382,946.235 L382,953.535 L373.9,953.535 C373.1,953.535 372.5,954.135 372.5,954.935 L372.5,956.835 C372.5,957.635 373.1,958.135 373.9,958.135 L403.6,958.135 C404.4,958.135 405,957.635 405,956.835 L405,954.935 C405,954.135 404.4,953.535 403.6,953.535 L394.8,953.535 L394.8,946.235 L403.6,946.235 C404.4,946.235 405,945.635 405,944.835 L405,943.035 C405,942.235 404.4,941.635 403.6,941.635 L394.8,941.635 L394.8,925.935 C394.8,925.435 394.4,924.935 394,924.735 L392.9,924.135 C392.7,924.035 392.4,924.035 392.2,924.035 C391.9,924.035 391.5,924.135 391.3,924.335 L382.4,932.535 C382.2,932.735 382,933.235 382,933.535 L382,941.635 L370.7,941.635 C370.7,941.635 381.6,929.835 393.2,914.335 C394,913.235 393.6,912.235 393.4,912.035 L391.3,909.835 C391.1,909.635 390.6,909.435 390.3,909.435 L375.7,909.435 C375,909.435 374.5,910.035 374.4,910.635 C374.4,910.635 373.9,917.835 371.3,925.835 C368.7,933.835 365.9,938.635 363.3,942.235 C363.3,942.235 362.8,943.235 363.1,943.935 C363.4,944.635 364.1,945.735 364.1,945.735 C364.1,945.735 364.4,946.235 365.2,946.235"/>
<path class="TimeSig" d="M365.2,994.839 L382,994.839 L382,1002.14 L373.9,1002.14 C373.1,1002.14 372.5,1002.74 372.5,1003.54 L372.5,1005.44 C372.5,1006.24 373.1,1006.74 373.9,1006.74 L403.6,1006.74 C404.4,1006.74 405,1006.24 405,1005.44 L405,1003.54 C405,1002.74 404.4,1002.14 403.6,1002.14 L394.8,1002.14 L394.8,994.839 L403.6,994.839 C404.4,994.839 405,994.239 405,993.439 L405,991.639 C405,990.839 404.4,990.239 403.6,990.239 L394.8,990.239 L394.8,974.539 C394.8,974.039 394.4,973.539 394,973.339 L392.9,972.739 C392.7,972.639 392.4,972.639 392.2,972.639 C391.9,972.639 391.5,972.739 391.3,972.939 L382.4,981.139 C382.2,981.339 382,981.839 382,982.139 L382,990.239 L370.7,990.239 C370.7,990.239 381.6,978.439 393.2,962.939 C394,961.839 393.6,960.839 393.4,960.639 L391.3,958.439 C391.1,958.239 390.6,958.039 390.3,958.039 L375.7,958.039 C375,958.039 374.5,958.639 374.4,959.239 C374.4,959.239 373.9,966.439 371.3,974.439 C368.7,982.439 365.9,987.239 363.3,990.839 C363.3,990.839 362.8,991.839 363.1,992.539 C363.4,993.239 364.1,994.339 364.1,994.339 C364.1,994.339 364.4,994.839 365.2,994.839"/>
<path class="TimeSig" d="M365.2,683.718 L382,683.718 L382,691.018 L373.9,691.018 C373.1,691.018 372.5,691.618 372.5,692.418 L372.5,694.318 C372.5,695.118 373.1,695.618 373.9,695.618 L403.6,695.618 C404.4,695.618 405,695.118 405,694.318 L405,692.418 C405,691.618 404.4,691.018 403.6,691.018 L394.8,691.018 L394.8,683.718 L403.6,683.718 C404.4,683.718 405,683.118 405,682.318 L405,680.518 C405,679.718 404.4,679.118 403.6,679.118 L394.8,679.118 L394.8,663.418 C394.8,662.918 394.4,662.418 394,662.218 L392.9,661.618 C392.7,661.518 392.4,661.518 392.2,661.518 C391.9,661.518 391.5,661.618 391.3,661.818 L382.4,670.018 C382.2,670.218 382,670.718 382,671.018 L382,679.118 L370.7,679.118 C370.7,679.118 381.6,667.318 393.2,651.818 C394,650.718 393.6,649.718 393.4,649.518 L391.3,647.318 C391.1,647.118 390.6,646.918 390.3,646.918 L375.7,646.918 C375,646.918 374.5,647.518 374.4,648.118 C374.4,648.118 373.9,655.318 371.3,663.318 C368.7,671.318 365.9,676.118 363.3,679.718 C363.3,679.718 362.8,680.718 363.1,681.418 C363.4,682.118 364.1,683.218 364.1,683.218 C364.1,683.218 364.4,683.718 365.2,683.718"/>
<path class="TimeSig" d="M365.2,732.323 L382,732.323 L382,739.623 L373.9,739.623 C373.1,739.623 372.5,740.223 372.5,741.023 L372.5,742.923 C372.5,743.723 373.1,744.223 373.9,744.223 L403.6,744.223 C404.4,744.223 405,743.723 405,742.923 L405,741.023 C405,740.223 404.4,739.623 403.6,739.623 L394.8,739.623 L394.8,732.323 L403.6,732.323 C404.4,732.323 405,731.723 405,730.923 L405,729.123 C405,728.323 404.4,727.723 403.6,727.723 L394.8,727.723 L394.8,712.023 C394.8,711.523 394.4,711.023 394,710.823 L392.9,710.223 C392.7,710.123 392.4,710.123 392.2,710.123 C391.9,710.123 391.5,710.223 391.3,710.423 L382.4,718.623 C382.2,718.823 382,719.323 382,719.623 L382,727.723 L370.7,727.723 C370.7,727.723 381.6,715.923 393.2,700.423 C394,699.323 393.6,698.323 393.4,698.123 L391.3,695.923 C391.1,695.723 390.6,695.523 390.3,695.523 L375.7,695.523 C375,695.523 374.5,696.123 374.4,696.723 C374.4,696.723 373.9,703.923 371.3,711.923 C368.7,719.923 365.9,724.723 363.3,728.323 C363.3,728.323 362.8,729.323 363.1,730.023 C363.4,730.723 364.1,731.823 364.1,731.823 C364.1,731.823 364.4,732.323 365.2,732.323"/>
<path class="NoteDot" d="M2475.12,1557.87 C2475.12,1560.47 2477.22,1562.57 2479.82,1562.57 C2482.41,1562.57 2484.52,1560.47 2484.52,1557.87 C2484.52,1555.28 2482.41,1553.17 2479.82,1553.17 C2477.22,1553.17 2475.12,1555.28 2475.12,1557.87"/>
<path class="NoteDot" d="M2475.12,1345.36 C2475.12,1347.96 2477.22,1350.06 2479.82,1350.06 C2482.41,1350.06 2484.52,1347.96 2484.52,1345.36 C2484.52,1342.77 2482.41,1340.66 2479.82,1340.66 C2477.22,1340.66 2475.12,1342.77 2475.12,1345.36"/>
<path class="Page" d="M222.584,4034.43 C221.054,4036.28 216.914,4037.67 212.774,4037.76 L212.774,4039.7 L216.734,4039.7 C219.344,4039.74 219.614,4040.01 219.524,4042.53 L219.524,4060.58 C219.524,4062.87 219.524,4062.96 219.254,4063.37 C218.894,4063.82 218.039,4064 215.519,4064 L212.594,4064 L212.594,4066.11 L230.414,4066.11 L230.414,4064 L227.939,4064 C225.419,4064 224.564,4063.82 224.204,4063.37 C223.889,4062.96 223.889,4062.92 223.889,4060.58 L223.889,4041.99 C223.889,4039.47 223.979,4037.36 224.204,4034.43 L222.584,4034.43 M235.764,4045.32 L237.744,4045.64 L238.554,4042.08 C239.229,4039.11 239.544,4038.66 240.849,4038.66 C241.074,4038.66 241.434,4038.66 241.839,4038.71 C247.374,4038.98 247.374,4038.98 249.444,4038.98 C250.029,4038.98 251.064,4038.98 252.324,4038.93 L249.264,4045.1 C245.934,4051.71 245.529,4052.52 244.404,4055.31 C243.009,4058.69 242.289,4061.52 242.289,4063.41 C242.289,4065.48 243.369,4066.74 245.124,4066.74 C247.284,4066.74 248.139,4065.3 248.094,4061.39 C247.869,4054.91 248.679,4051.76 253.494,4041.23 C254.169,4039.79 254.844,4038.39 255.519,4037 C255.564,4036.91 255.699,4036.5 255.969,4035.92 L255.969,4034.61 C253.269,4034.84 251.829,4034.93 249.039,4034.93 C245.124,4034.93 242.019,4034.79 237.159,4034.43 L235.764,4045.32 "/>
<path class="Bracket" transform="matrix(3.62523,0,0,3.62523,214.469,1007.84)" d="M0.92002,-50 C2.69004,-51.88 6.2,-55.8 6.2,-63 C6.2,-72.1 2.25996,-81.32 2.25996,-86.97 C2.25996,-93.06 5.84004,-98.84 5.95,-99 C6.05996,-99.16 6.05,-99.39 5.94004,-99.46 C5.82998,-99.53 5.62002,-99.47 5.49004,-99.32 C5.35996,-99.17 0,-93.75 0,-85.6 C0,-76.75 3.5,-70.58 3.5,-59.07 C3.5,-56.89 2.55996,-53.36 0.1,-50.33 C-0.0799805,-50.17 -0.1,-49.89 0.0599609,-49.7 L0.0700195,-49.69 L0.1,-49.66 C2.55996,-46.63 3.5,-43.1 3.5,-40.92 C3.5,-29.4 0,-23.24 0,-14.39 C0,-6.25 5.35996,-0.8 5.49004,-0.659961 C5.62002,-0.52002 5.8,-0.42998 5.94004,-0.52002 C6.07998,-0.609961 6.07998,-0.77998 5.95,-0.97998 C5.82002,-1.17998 2.25996,-6.92002 2.25996,-13.01 C2.25996,-18.66 6.2,-27.9 6.2,-37 C6.2,-44.3 2.69004,-48.12 0.92002,-50"/>
<path class="Bracket" transform="matrix(3.62523,0,0,3.62523,214.469,1620.38)" d="M0.92002,-50 C2.69004,-51.88 6.2,-55.8 6.2,-63 C6.2,-72.1 2.25996,-81.32 2.25996,-86.97 C2.25996,-93.06 5.84004,-98.84 5.95,-99 C6.05996,-99.16 6.05,-99.39 5.94004,-99.46 C5.82998,-99.53 5.62002,-99.47 5.49004,-99.32 C5.35996,-99.17 0,-93.75 0,-85.6 C0,-76.75 3.5,-70.58 3.5,-59.07 C3.5,-56.89 2.55996,-53.36 0.1,-50.33 C-0.0799805,-50.17 -0.1,-49.89 0.0599609,-49.7 L0.0700195,-49.69 L0.1,-49.66 C2.55996,-46.63 3.5,-43.1 3.5,-40.92 C3.5,-29.4 0,-23.24 0,-14.39 C0,-6.25 5.35996,-0.8 5.49004,-0.659961 C5.62002,-0.52002 5.8,-0.42998 5.94004,-0.52002 C6.07998,-0.609961 6.07998,-0.77998 5.95,-0.97998 C5.82002,-1.17998 2.25996,-6.92002 2.25996,-13.01 C2.25996,-18.66 6.2,-27.9 6.2,-37 C6.2,-44.3 2.69004,-48.12 0.92002,-50"/>
</svg>