<?xml version="1.0" encoding="UTF-8" standalone="no"?>
<svg width="1000px" height="220px" viewBox="150 600 2700 500" xmlns="http://www.w3.org/2000/svg" xmlns:xlink="http://www.w3.org/1999/xlink" version="1.2" baseProfile="tiny">
 xmlns="http://www.w3.org/2000/svg" xmlns:xlink="http://www.w3.org/1999/xlink" version="1.2" baseProfile="tiny">
<title>exercises_scores (40)</title>
<desc>Generated by MuseScore 3.6.0</desc>
<polyline class="StaffLines" fill="none" stroke="#000000" stroke-width="2.75" stroke-linejoin="bevel" points="247.099,645.317 2764.63,645.317"/>
<polyline class="StaffLines" fill="none" stroke="#000000" stroke-width="2.75" stroke-linejoin="bevel" points="247.099,670.319 2764.63,670.319"/>
<polyline class="StaffLines" fill="none" stroke="#000000" stroke-width="2.75" stroke-linejoin="bevel" points="247.099,695.32 2764.63,695.32"/>
<polyline class="StaffLines" fill="none" stroke="#000000" stroke-width="2.75" stroke-linejoin="bevel" points="247.099,720.322 2764.63,720.322"/>
<polyline class="StaffLines" fill="none" stroke="#000000" stroke-width="2.75" stroke-linejoin="bevel" points="247.099,745.324 2764.63,745.324"/>
<polyline class="StaffLines" fill="none" stroke="#000000" stroke-width="2.75" stroke-linejoin="bevel" points="247.099,907.834 2764.63,907.834"/>
<polyline class="StaffLines" fill="none" stroke="#000000" stroke-width="2.75" stroke-linejoin="bevel" points="247.099,932.835 2764.63,932.835"/>
<polyline class="StaffLines" fill="none" stroke="#000000" stroke-width="2.75" stroke-linejoin="bevel" points="247.099,957.837 2764.63,957.837"/>
<polyline class="StaffLines" fill="none" stroke="#000000" stroke-width="2.75" stroke-linejoin="bevel" points="247.099,982.839 2764.63,982.839"/>
<polyline class="StaffLines" fill="none" stroke="#000000" stroke-width="2.75" stroke-linejoin="bevel" points="247.099,1007.84 2764.63,1007.84"/>
<path class="Text" d="M249.083,213.077 L246.803,213.077 L244.463,216.677 C240.563,213.617 237.923,212.597 233.543,212.597 C228.803,212.597 225.083,213.917 221.303,216.977 C215.363,221.777 212.603,227.837 212.603,235.937 C212.603,242.057 214.343,247.157 217.883,251.057 C221.603,255.257 227.123,257.717 232.883,257.717 C237.923,257.717 241.463,256.157 245.363,252.257 L247.583,257.657 L250.103,257.657 L250.103,244.457 C250.103,241.397 250.103,241.277 250.463,240.737 C251.003,240.077 252.083,239.897 255.503,239.897 L256.403,239.897 L256.403,237.077 L237.323,237.077 L237.323,239.897 L238.463,239.897 C243.503,239.897 243.923,240.197 243.923,243.557 C243.923,246.137 243.503,248.477 242.723,249.917 C241.223,252.857 237.383,254.897 233.483,254.897 C229.583,254.897 225.743,252.917 223.703,249.917 C221.483,246.557 220.523,242.357 220.523,235.937 C220.523,222.557 224.963,215.417 233.303,215.417 C240.143,215.417 244.883,220.337 247.343,229.937 L249.923,229.937 L249.083,213.077 M285.427,212.597 L274.327,213.257 L274.327,215.837 L277.207,215.837 C279.487,215.897 279.787,216.257 279.787,218.837 L279.787,249.437 L279.787,250.877 L279.787,252.317 C279.727,253.157 279.667,253.517 279.427,253.817 C279.007,254.357 277.867,254.597 275.287,254.657 L275.047,254.657 L275.047,256.817 L290.227,256.817 L290.227,254.657 L289.987,254.657 C285.967,254.537 285.427,254.237 285.427,252.077 L285.427,249.437 L285.427,243.197 C285.427,240.257 285.847,237.557 286.507,236.177 C287.827,233.477 290.467,231.617 293.047,231.617 C294.607,231.617 296.407,232.517 297.247,233.717 C298.207,235.037 298.627,236.837 298.627,239.777 L298.627,249.437 L298.627,252.317 C298.567,253.157 298.507,253.517 298.267,253.817 C297.847,254.357 296.647,254.597 294.067,254.657 L293.827,254.657 L293.827,256.817 L309.007,256.817 L309.007,254.657 L308.767,254.657 C304.807,254.537 304.267,254.237 304.267,252.077 L304.267,249.437 L304.267,240.017 C304.267,235.697 304.087,234.617 303.007,232.577 C301.507,229.637 298.507,227.957 294.907,227.957 C291.007,227.957 288.127,229.697 285.427,233.717 L285.427,212.597 M337.203,237.497 C337.203,233.717 336.543,231.797 334.803,230.357 C332.823,228.737 329.883,227.957 326.043,227.957 C319.263,227.957 314.343,231.137 314.343,235.517 C314.343,237.737 315.723,239.177 317.823,239.177 C319.743,239.177 321.063,237.917 321.063,236.117 C321.063,235.337 320.763,234.497 320.163,233.657 C319.803,233.237 319.743,233.117 319.743,232.817 C319.743,231.617 322.143,230.537 325.023,230.537 C326.943,230.537 329.043,231.137 330.003,232.037 C331.143,232.997 331.563,234.437 331.563,237.137 L331.563,239.477 C325.323,240.557 323.343,241.037 320.403,242.177 C315.183,244.097 312.723,246.857 312.723,250.697 C312.723,255.017 316.083,257.717 321.423,257.717 C325.563,257.717 329.283,256.037 331.863,252.977 C332.823,256.037 334.323,257.237 337.143,257.237 C339.843,257.237 342.663,255.497 342.663,253.757 C342.663,253.337 342.423,253.037 342.063,253.037 C341.823,253.037 341.583,253.097 341.163,253.277 C340.323,253.637 339.963,253.697 339.483,253.697 C337.803,253.697 337.203,252.617 337.203,249.557 L337.203,237.497 M331.563,244.817 C331.563,248.417 331.383,249.257 330.363,250.817 C328.863,253.037 326.163,254.537 323.523,254.537 C320.763,254.537 318.783,252.557 318.783,249.857 C318.783,247.337 320.043,245.537 322.683,244.277 C324.543,243.437 326.883,242.837 331.563,242.057 L331.563,244.817 M355.322,228.857 L344.702,229.517 L344.702,232.097 L347.162,232.097 C349.442,232.157 349.742,232.517 349.742,235.097 L349.742,249.437 L349.742,252.257 C349.682,253.157 349.622,253.517 349.382,253.817 C348.962,254.357 347.762,254.597 345.182,254.657 L344.942,254.657 L344.942,256.817 L360.962,256.817 L360.962,254.657 L359.882,254.657 C355.862,254.537 355.322,254.237 355.322,252.077 L355.322,249.437 L355.322,248.837 C355.382,238.757 358.982,231.077 363.662,230.837 C362.822,231.797 362.582,232.397 362.582,233.537 C362.582,235.457 363.962,236.837 365.882,236.837 C368.102,236.837 369.542,235.217 369.542,232.817 C369.542,229.877 367.502,227.957 364.322,227.957 C360.542,227.957 357.302,230.957 355.322,236.297 L355.322,228.857 M383.143,228.857 L372.463,229.517 L372.463,232.097 L374.923,232.097 C377.203,232.157 377.503,232.517 377.503,235.097 L377.503,249.437 L377.503,251.777 L377.503,252.257 C377.443,253.157 377.383,253.517 377.143,253.817 C376.723,254.357 375.583,254.597 373.003,254.657 L372.763,254.657 L372.763,256.817 L387.883,256.817 L387.883,254.657 L387.643,254.657 C383.683,254.537 383.143,254.237 383.143,252.017 L383.143,249.437 L383.143,240.917 C383.143,235.577 386.083,231.617 389.983,231.617 C393.403,231.617 395.143,234.077 395.143,238.937 L395.143,249.437 L395.143,252.317 C395.083,253.097 395.023,253.517 394.723,253.817 C394.363,254.357 393.163,254.597 390.583,254.657 L390.343,254.657 L390.343,256.817 L405.523,256.817 L405.523,254.657 L405.283,254.657 C401.323,254.537 400.783,254.237 400.783,252.077 L400.783,249.437 L400.783,241.457 C400.783,235.457 403.483,231.617 407.683,231.617 C411.103,231.617 412.783,234.197 412.783,239.597 L412.783,249.437 L412.783,252.257 C412.723,253.097 412.663,253.517 412.363,253.817 C412.003,254.357 410.803,254.597 408.223,254.657 L407.983,254.657 L407.983,256.817 L423.163,256.817 L423.163,254.657 L422.923,254.657 C418.963,254.537 418.423,254.237 418.423,252.017 L418.423,249.437 L418.423,238.397 C418.423,234.677 418.063,233.417 416.503,231.377 C414.763,229.157 412.303,227.957 409.423,227.957 C405.523,227.957 402.643,229.817 400.063,233.957 C399.043,230.357 395.803,227.957 391.783,227.957 C388.123,227.957 385.483,229.697 383.143,233.477 L383.143,228.857 M439.531,227.957 C432.151,227.957 426.451,234.497 426.451,242.897 C426.451,251.117 432.211,257.717 439.411,257.717 C446.611,257.717 452.371,251.117 452.371,242.837 C452.371,234.617 446.611,227.957 439.531,227.957 M439.531,230.537 C443.731,230.537 446.071,234.917 446.071,242.837 C446.071,250.817 443.731,255.137 439.411,255.137 C435.091,255.137 432.751,250.817 432.751,242.897 C432.751,234.737 435.031,230.537 439.531,230.537 M466.411,228.857 L456.031,229.517 L456.031,232.097 L458.191,232.097 C460.471,232.157 460.771,232.517 460.771,235.097 L460.771,249.437 L460.771,250.877 L460.771,252.257 C460.711,253.157 460.651,253.517 460.411,253.817 C459.991,254.357 458.851,254.597 456.271,254.657 L456.031,254.657 L456.031,256.817 L471.211,256.817 L471.211,254.657 L470.971,254.657 C466.951,254.537 466.411,254.237 466.411,252.077 L466.411,249.437 L466.411,243.197 C466.411,240.257 466.831,237.557 467.491,236.177 C468.751,233.477 471.451,231.617 474.031,231.617 C475.591,231.617 477.391,232.457 478.291,233.717 C479.191,235.037 479.611,236.837 479.611,239.717 L479.611,249.437 L479.611,252.257 C479.551,253.157 479.491,253.517 479.251,253.817 C478.831,254.357 477.631,254.597 475.051,254.657 L474.811,254.657 L474.811,256.817 L489.991,256.817 L489.991,254.657 L489.751,254.657 C485.791,254.537 485.251,254.237 485.251,252.077 L485.251,249.437 L485.251,240.017 C485.251,235.697 485.071,234.617 483.991,232.577 C482.491,229.697 479.491,227.957 475.891,227.957 C471.991,227.957 469.051,229.757 466.411,233.717 L466.411,228.857 M503.427,228.857 L492.147,229.517 L492.147,232.097 L495.207,232.097 C497.487,232.157 497.787,232.517 497.787,235.097 L497.787,249.437 L497.787,252.257 C497.727,253.157 497.667,253.517 497.427,253.817 C497.007,254.357 495.867,254.597 493.287,254.657 L492.867,254.657 L492.867,256.817 L508.407,256.817 L508.407,254.657 L507.987,254.657 C503.967,254.537 503.427,254.237 503.427,252.077 L503.427,249.437 L503.427,228.857 M500.607,213.917 C498.687,213.917 497.127,215.477 497.127,217.397 C497.127,219.317 498.687,220.877 500.547,220.877 C502.527,220.877 504.087,219.317 504.087,217.397 C504.087,215.477 502.527,213.917 500.607,213.917 M533.178,247.997 C531.258,252.317 529.218,254.057 526.098,254.057 C521.298,254.057 518.298,249.677 518.298,242.657 C518.298,235.337 521.238,230.537 525.678,230.537 C527.478,230.537 529.038,231.377 529.038,232.337 C529.038,232.517 528.978,232.697 528.678,233.057 C527.718,234.197 527.478,234.797 527.478,235.817 C527.478,237.797 528.978,239.177 531.078,239.177 C533.238,239.177 534.738,237.497 534.738,235.097 C534.738,231.017 530.718,227.957 525.378,227.957 C517.578,227.957 511.998,234.317 511.998,243.317 C511.998,251.837 517.098,257.717 524.538,257.717 C529.878,257.717 532.938,255.257 535.518,248.897 L533.178,247.997 M565.315,228.857 L554.635,229.517 L554.635,232.097 L557.095,232.097 C559.375,232.157 559.675,232.517 559.675,235.097 L559.675,249.437 L559.675,251.777 L559.675,252.257 C559.615,253.157 559.555,253.517 559.315,253.817 C558.895,254.357 557.755,254.597 555.175,254.657 L554.935,254.657 L554.935,256.817 L570.055,256.817 L570.055,254.657 L569.815,254.657 C565.855,254.537 565.315,254.237 565.315,252.017 L565.315,249.437 L565.315,240.917 C565.315,235.577 568.255,231.617 572.155,231.617 C575.575,231.617 577.315,234.077 577.315,238.937 L577.315,249.437 L577.315,252.317 C577.255,253.097 577.195,253.517 576.895,253.817 C576.535,254.357 575.335,254.597 572.755,254.657 L572.515,254.657 L572.515,256.817 L587.695,256.817 L587.695,254.657 L587.455,254.657 C583.495,254.537 582.955,254.237 582.955,252.077 L582.955,249.437 L582.955,241.457 C582.955,235.457 585.655,231.617 589.855,231.617 C593.275,231.617 594.955,234.197 594.955,239.597 L594.955,249.437 L594.955,252.257 C594.895,253.097 594.835,253.517 594.535,253.817 C594.175,254.357 592.975,254.597 590.395,254.657 L590.155,254.657 L590.155,256.817 L605.335,256.817 L605.335,254.657 L605.095,254.657 C601.135,254.537 600.595,254.237 600.595,252.017 L600.595,249.437 L600.595,238.397 C600.595,234.677 600.235,233.417 598.675,231.377 C596.935,229.157 594.475,227.957 591.595,227.957 C587.695,227.957 584.815,229.817 582.235,233.957 C581.215,230.357 577.975,227.957 573.955,227.957 C570.295,227.957 567.655,229.697 565.315,233.477 L565.315,228.857 M618.943,228.857 L607.663,229.517 L607.663,232.097 L610.723,232.097 C613.003,232.157 613.303,232.517 613.303,235.097 L613.303,249.437 L613.303,252.257 C613.243,253.157 613.183,253.517 612.943,253.817 C612.523,254.357 611.383,254.597 608.803,254.657 L608.383,254.657 L608.383,256.817 L623.923,256.817 L623.923,254.657 L623.503,254.657 C619.483,254.537 618.943,254.237 618.943,252.077 L618.943,249.437 L618.943,228.857 M616.123,213.917 C614.203,213.917 612.643,215.477 612.643,217.397 C612.643,219.317 614.203,220.877 616.063,220.877 C618.043,220.877 619.603,219.317 619.603,217.397 C619.603,215.477 618.043,213.917 616.123,213.917 M637.473,228.857 L627.093,229.517 L627.093,232.097 L629.253,232.097 C631.533,232.157 631.833,232.517 631.833,235.097 L631.833,249.437 L631.833,250.877 L631.833,252.257 C631.773,253.157 631.713,253.517 631.473,253.817 C631.053,254.357 629.913,254.597 627.333,254.657 L627.093,254.657 L627.093,256.817 L642.273,256.817 L642.273,254.657 L642.033,254.657 C638.013,254.537 637.473,254.237 637.473,252.077 L637.473,249.437 L637.473,243.197 C637.473,240.257 637.893,237.557 638.553,236.177 C639.813,233.477 642.513,231.617 645.093,231.617 C646.653,231.617 648.453,232.457 649.353,233.717 C650.253,235.037 650.673,236.837 650.673,239.717 L650.673,249.437 L650.673,252.257 C650.613,253.157 650.553,253.517 650.313,253.817 C649.893,254.357 648.693,254.597 646.113,254.657 L645.873,254.657 L645.873,256.817 L661.053,256.817 L661.053,254.657 L660.813,254.657 C656.853,254.537 656.313,254.237 656.313,252.077 L656.313,249.437 L656.313,240.017 C656.313,235.697 656.133,234.617 655.053,232.577 C653.553,229.697 650.553,227.957 646.953,227.957 C643.053,227.957 640.113,229.757 637.473,233.717 L637.473,228.857 M677.25,227.957 C669.87,227.957 664.17,234.497 664.17,242.897 C664.17,251.117 669.93,257.717 677.13,257.717 C684.33,257.717 690.09,251.117 690.09,242.837 C690.09,234.617 684.33,227.957 677.25,227.957 M677.25,230.537 C681.45,230.537 683.79,234.917 683.79,242.837 C683.79,250.817 681.45,255.137 677.13,255.137 C672.81,255.137 670.47,250.817 670.47,242.897 C670.47,234.737 672.75,230.537 677.25,230.537 M704.01,228.857 L693.39,229.517 L693.39,232.097 L695.85,232.097 C698.13,232.157 698.43,232.517 698.43,235.097 L698.43,249.437 L698.43,252.257 C698.37,253.157 698.31,253.517 698.07,253.817 C697.65,254.357 696.45,254.597 693.87,254.657 L693.63,254.657 L693.63,256.817 L709.65,256.817 L709.65,254.657 L708.57,254.657 C704.55,254.537 704.01,254.237 704.01,252.077 L704.01,249.437 L704.01,248.837 C704.07,238.757 707.67,231.077 712.35,230.837 C711.51,231.797 711.27,232.397 711.27,233.537 C711.27,235.457 712.65,236.837 714.57,236.837 C716.79,236.837 718.23,235.217 718.23,232.817 C718.23,229.877 716.19,227.957 713.01,227.957 C709.23,227.957 705.99,230.957 704.01,236.297 L704.01,228.857 "/>
<polyline class="BarLine" fill="none" stroke="#000000" stroke-width="4.50" stroke-linejoin="bevel" points="249.349,906.459 249.349,1009.22"/>
<polyline class="BarLine" fill="none" stroke="#000000" stroke-width="4.50" stroke-linejoin="bevel" points="977.549,906.459 977.549,1009.22"/>
<polyline class="BarLine" fill="none" stroke="#000000" stroke-width="4.50" stroke-linejoin="bevel" points="1622.38,906.459 1622.38,1009.22"/>
<polyline class="BarLine" fill="none" stroke="#000000" stroke-width="4.50" stroke-linejoin="bevel" points="2254.23,906.459 2254.23,1009.22"/>
<polyline class="BarLine" fill="none" stroke="#000000" stroke-width="4.50" stroke-linejoin="bevel" points="2734.88,906.459 2734.88,1009.22"/>
<polyline class="BarLine" fill="none" stroke="#000000" stroke-width="13.75" stroke-linejoin="bevel" points="2757.75,906.459 2757.75,1009.22"/>
<polyline class="BarLine" fill="none" stroke="#000000" stroke-width="4.50" stroke-linejoin="bevel" points="249.349,643.942 249.349,907.834"/>
<polyline class="BarLine" fill="none" stroke="#000000" stroke-width="4.50" stroke-linejoin="bevel" points="977.549,643.942 977.549,907.834"/>
<polyline class="BarLine" fill="none" stroke="#000000" stroke-width="4.50" stroke-linejoin="bevel" points="1622.38,643.942 1622.38,907.834"/>
<polyline class="BarLine" fill="none" stroke="#000000" stroke-width="4.50" stroke-linejoin="bevel" points="2254.23,643.942 2254.23,907.834"/>
<polyline class="BarLine" fill="none" stroke="#000000" stroke-width="4.50" stroke-linejoin="bevel" points="2734.88,643.942 2734.88,907.834"/>
<polyline class="BarLine" fill="none" stroke="#000000" stroke-width="13.75" stroke-linejoin="bevel" points="2757.75,643.942 2757.75,907.834"/>
<path class="Accidental" d="M708.702,887.433 C708.102,883.533 705.702,879.833 700.602,879.833 C695.602,879.833 692.702,882.933 692.202,883.533 L692.602,851.433 C692.602,850.633 692.002,850.033 691.202,850.033 L690.002,850.033 C689.202,850.033 688.602,850.633 688.602,851.433 L689.102,911.533 C689.102,912.333 689.702,912.933 690.502,912.933 C690.702,912.933 691.102,912.833 691.302,912.733 C691.702,912.533 698.202,909.333 703.602,903.233 C707.402,898.933 708.902,894.033 708.902,889.933 C708.902,889.033 708.802,888.233 708.702,887.433 M701.802,891.333 C701.802,892.833 701.402,897.433 698.902,901.233 C697.202,903.833 693.802,906.533 691.902,908.033 L692.202,888.533 C692.402,887.633 693.902,884.733 697.902,884.733 C701.502,884.733 701.802,888.133 701.802,890.233 L701.802,891.333 "/>
<path class="Accidental" d="M1155.62,849.931 C1155.02,846.031 1152.62,842.331 1147.52,842.331 C1142.52,842.331 1139.62,845.431 1139.12,846.031 L1139.52,813.931 C1139.52,813.131 1138.92,812.531 1138.12,812.531 L1136.92,812.531 C1136.12,812.531 1135.52,813.131 1135.52,813.931 L1136.02,874.031 C1136.02,874.831 1136.62,875.431 1137.42,875.431 C1137.62,875.431 1138.02,875.331 1138.22,875.231 C1138.62,875.031 1145.12,871.831 1150.52,865.731 C1154.32,861.431 1155.82,856.531 1155.82,852.431 C1155.82,851.531 1155.72,850.731 1155.62,849.931 M1148.72,853.831 C1148.72,855.331 1148.32,859.931 1145.82,863.731 C1144.12,866.331 1140.72,869.031 1138.82,870.531 L1139.12,851.031 C1139.32,850.131 1140.82,847.231 1144.82,847.231 C1148.42,847.231 1148.72,850.631 1148.72,852.731 L1148.72,853.831 "/>
<path class="Accidental" d="M1304.49,834.73 C1305.09,834.63 1305.59,833.93 1305.59,833.33 L1305.59,827.43 C1305.59,826.63 1304.99,826.03 1304.19,826.03 L1303.99,826.03 L1300.69,826.73 L1300.69,811.83 L1297.89,811.83 L1297.89,827.33 L1288.99,829.13 L1288.99,815.03 L1286.19,815.03 L1286.19,829.73 L1282.29,830.53 C1281.69,830.63 1281.19,831.33 1281.19,831.93 L1281.19,832.13 L1281.19,837.93 L1281.19,837.73 C1281.19,838.53 1281.79,839.13 1282.59,839.13 L1282.89,839.13 L1286.19,838.43 L1286.19,854.93 L1282.29,855.73 C1281.69,855.83 1281.19,856.53 1281.19,857.13 L1281.19,862.93 C1281.19,863.73 1281.79,864.33 1282.59,864.33 L1282.89,864.33 L1286.19,863.63 L1286.19,878.53 L1288.99,878.53 L1288.99,863.03 L1297.89,861.23 L1297.89,875.33 L1300.69,875.33 L1300.69,860.63 L1304.49,859.93 C1305.09,859.83 1305.59,859.13 1305.59,858.53 L1305.59,852.63 C1305.59,851.83 1304.99,851.23 1304.19,851.23 L1303.99,851.23 L1300.69,851.93 L1300.69,835.43 L1304.49,834.73 M1288.99,854.43 L1288.99,837.83 L1297.89,836.03 L1297.89,852.53 L1288.99,854.43 "/>
<path class="Accidental" d="M1669.68,834.73 C1670.28,834.63 1670.78,833.93 1670.78,833.33 L1670.78,827.43 C1670.78,826.63 1670.18,826.03 1669.38,826.03 L1669.18,826.03 L1665.88,826.73 L1665.88,811.83 L1663.08,811.83 L1663.08,827.33 L1654.18,829.13 L1654.18,815.03 L1651.38,815.03 L1651.38,829.73 L1647.48,830.53 C1646.88,830.63 1646.38,831.33 1646.38,831.93 L1646.38,832.13 L1646.38,837.93 L1646.38,837.73 C1646.38,838.53 1646.98,839.13 1647.78,839.13 L1648.08,839.13 L1651.38,838.43 L1651.38,854.93 L1647.48,855.73 C1646.88,855.83 1646.38,856.53 1646.38,857.13 L1646.38,862.93 C1646.38,863.73 1646.98,864.33 1647.78,864.33 L1648.08,864.33 L1651.38,863.63 L1651.38,878.53 L1654.18,878.53 L1654.18,863.03 L1663.08,861.23 L1663.08,875.33 L1665.88,875.33 L1665.88,860.63 L1669.68,859.93 C1670.28,859.83 1670.78,859.13 1670.78,858.53 L1670.78,852.63 C1670.78,851.83 1670.18,851.23 1669.38,851.23 L1669.18,851.23 L1665.88,851.93 L1665.88,835.43 L1669.68,834.73 M1654.18,854.43 L1654.18,837.83 L1663.08,836.03 L1663.08,852.53 L1654.18,854.43 "/>
<path class="Accidental" d="M1812.13,849.931 C1811.53,846.031 1809.13,842.331 1804.03,842.331 C1799.03,842.331 1796.13,845.431 1795.63,846.031 L1796.03,813.931 C1796.03,813.131 1795.43,812.531 1794.63,812.531 L1793.43,812.531 C1792.63,812.531 1792.03,813.131 1792.03,813.931 L1792.53,874.031 C1792.53,874.831 1793.13,875.431 1793.93,875.431 C1794.13,875.431 1794.53,875.331 1794.73,875.231 C1795.13,875.031 1801.63,871.831 1807.03,865.731 C1810.83,861.431 1812.33,856.531 1812.33,852.431 C1812.33,851.531 1812.23,850.731 1812.13,849.931 M1805.23,853.831 C1805.23,855.331 1804.83,859.931 1802.33,863.731 C1800.63,866.331 1797.23,869.031 1795.33,870.531 L1795.63,851.031 C1795.83,850.131 1797.33,847.231 1801.33,847.231 C1804.93,847.231 1805.23,850.631 1805.23,852.731 L1805.23,853.831 "/>
<path class="Accidental" d="M2298.34,887.433 C2297.74,883.533 2295.34,879.833 2290.24,879.833 C2285.24,879.833 2282.34,882.933 2281.84,883.533 L2282.24,851.433 C2282.24,850.633 2281.64,850.033 2280.84,850.033 L2279.64,850.033 C2278.84,850.033 2278.24,850.633 2278.24,851.433 L2278.74,911.533 C2278.74,912.333 2279.34,912.933 2280.14,912.933 C2280.34,912.933 2280.74,912.833 2280.94,912.733 C2281.34,912.533 2287.84,909.333 2293.24,903.233 C2297.04,898.933 2298.54,894.033 2298.54,889.933 C2298.54,889.033 2298.44,888.233 2298.34,887.433 M2291.44,891.333 C2291.44,892.833 2291.04,897.433 2288.54,901.233 C2286.84,903.833 2283.44,906.533 2281.54,908.033 L2281.84,888.533 C2282.04,887.633 2283.54,884.733 2287.54,884.733 C2291.14,884.733 2291.44,888.133 2291.44,890.233 L2291.44,891.333 "/>
<path class="Accidental" d="M708.702,687.42 C708.102,683.52 705.702,679.82 700.602,679.82 C695.602,679.82 692.702,682.92 692.202,683.52 L692.602,651.42 C692.602,650.62 692.002,650.02 691.202,650.02 L690.002,650.02 C689.202,650.02 688.602,650.62 688.602,651.42 L689.102,711.52 C689.102,712.32 689.702,712.92 690.502,712.92 C690.702,712.92 691.102,712.82 691.302,712.72 C691.702,712.52 698.202,709.32 703.602,703.22 C707.402,698.92 708.902,694.02 708.902,689.92 C708.902,689.02 708.802,688.22 708.702,687.42 M701.802,691.32 C701.802,692.82 701.402,697.42 698.902,701.22 C697.202,703.82 693.802,706.52 691.902,708.02 L692.202,688.52 C692.402,687.62 693.902,684.72 697.902,684.72 C701.502,684.72 701.802,688.12 701.802,690.22 L701.802,691.32 "/>
<path class="Accidental" d="M1164.37,649.918 C1163.77,646.018 1161.37,642.318 1156.27,642.318 C1151.27,642.318 1148.37,645.418 1147.87,646.018 L1148.27,613.918 C1148.27,613.118 1147.67,612.518 1146.87,612.518 L1145.67,612.518 C1144.87,612.518 1144.27,613.118 1144.27,613.918 L1144.77,674.018 C1144.77,674.818 1145.37,675.418 1146.17,675.418 C1146.37,675.418 1146.77,675.318 1146.97,675.218 C1147.37,675.018 1153.87,671.818 1159.27,665.718 C1163.07,661.418 1164.57,656.518 1164.57,652.418 C1164.57,651.518 1164.47,650.718 1164.37,649.918 M1157.47,653.818 C1157.47,655.318 1157.07,659.918 1154.57,663.718 C1152.87,666.318 1149.47,669.018 1147.57,670.518 L1147.87,651.018 C1148.07,650.118 1149.57,647.218 1153.57,647.218 C1157.17,647.218 1157.47,650.618 1157.47,652.718 L1157.47,653.818 "/>
<path class="Accidental" d="M1313.24,634.717 C1313.84,634.617 1314.34,633.917 1314.34,633.317 L1314.34,627.417 C1314.34,626.617 1313.74,626.017 1312.94,626.017 L1312.74,626.017 L1309.44,626.717 L1309.44,611.817 L1306.64,611.817 L1306.64,627.317 L1297.74,629.117 L1297.74,615.017 L1294.94,615.017 L1294.94,629.717 L1291.04,630.517 C1290.44,630.617 1289.94,631.317 1289.94,631.917 L1289.94,632.117 L1289.94,637.917 L1289.94,637.717 C1289.94,638.517 1290.54,639.117 1291.34,639.117 L1291.64,639.117 L1294.94,638.417 L1294.94,654.917 L1291.04,655.717 C1290.44,655.817 1289.94,656.517 1289.94,657.117 L1289.94,662.917 C1289.94,663.717 1290.54,664.317 1291.34,664.317 L1291.64,664.317 L1294.94,663.617 L1294.94,678.517 L1297.74,678.517 L1297.74,663.017 L1306.64,661.217 L1306.64,675.317 L1309.44,675.317 L1309.44,660.617 L1313.24,659.917 C1313.84,659.817 1314.34,659.117 1314.34,658.517 L1314.34,652.617 C1314.34,651.817 1313.74,651.217 1312.94,651.217 L1312.74,651.217 L1309.44,651.917 L1309.44,635.417 L1313.24,634.717 M1297.74,654.417 L1297.74,637.817 L1306.64,636.017 L1306.64,652.517 L1297.74,654.417 "/>
<path class="Accidental" d="M1678.43,634.717 C1679.03,634.617 1679.53,633.917 1679.53,633.317 L1679.53,627.417 C1679.53,626.617 1678.93,626.017 1678.13,626.017 L1677.93,626.017 L1674.63,626.717 L1674.63,611.817 L1671.83,611.817 L1671.83,627.317 L1662.93,629.117 L1662.93,615.017 L1660.13,615.017 L1660.13,629.717 L1656.23,630.517 C1655.63,630.617 1655.13,631.317 1655.13,631.917 L1655.13,632.117 L1655.13,637.917 L1655.13,637.717 C1655.13,638.517 1655.73,639.117 1656.53,639.117 L1656.83,639.117 L1660.13,638.417 L1660.13,654.917 L1656.23,655.717 C1655.63,655.817 1655.13,656.517 1655.13,657.117 L1655.13,662.917 C1655.13,663.717 1655.73,664.317 1656.53,664.317 L1656.83,664.317 L1660.13,663.617 L1660.13,678.517 L1662.93,678.517 L1662.93,663.017 L1671.83,661.217 L1671.83,675.317 L1674.63,675.317 L1674.63,660.617 L1678.43,659.917 C1679.03,659.817 1679.53,659.117 1679.53,658.517 L1679.53,652.617 C1679.53,651.817 1678.93,651.217 1678.13,651.217 L1677.93,651.217 L1674.63,651.917 L1674.63,635.417 L1678.43,634.717 M1662.93,654.417 L1662.93,637.817 L1671.83,636.017 L1671.83,652.517 L1662.93,654.417 "/>
<path class="Accidental" d="M1820.89,649.918 C1820.29,646.018 1817.89,642.318 1812.79,642.318 C1807.79,642.318 1804.89,645.418 1804.39,646.018 L1804.79,613.918 C1804.79,613.118 1804.19,612.518 1803.39,612.518 L1802.19,612.518 C1801.39,612.518 1800.79,613.118 1800.79,613.918 L1801.29,674.018 C1801.29,674.818 1801.89,675.418 1802.69,675.418 C1802.89,675.418 1803.29,675.318 1803.49,675.218 C1803.89,675.018 1810.39,671.818 1815.79,665.718 C1819.59,661.418 1821.09,656.518 1821.09,652.418 C1821.09,651.518 1820.99,650.718 1820.89,649.918 M1813.99,653.818 C1813.99,655.318 1813.59,659.918 1811.09,663.718 C1809.39,666.318 1805.99,669.018 1804.09,670.518 L1804.39,651.018 C1804.59,650.118 1806.09,647.218 1810.09,647.218 C1813.69,647.218 1813.99,650.618 1813.99,652.718 L1813.99,653.818 "/>
<path class="Accidental" d="M2298.34,687.42 C2297.74,683.52 2295.34,679.82 2290.24,679.82 C2285.24,679.82 2282.34,682.92 2281.84,683.52 L2282.24,651.42 C2282.24,650.62 2281.64,650.02 2280.84,650.02 L2279.64,650.02 C2278.84,650.02 2278.24,650.62 2278.24,651.42 L2278.74,711.52 C2278.74,712.32 2279.34,712.92 2280.14,712.92 C2280.34,712.92 2280.74,712.82 2280.94,712.72 C2281.34,712.52 2287.84,709.32 2293.24,703.22 C2297.04,698.92 2298.54,694.02 2298.54,689.92 C2298.54,689.02 2298.44,688.22 2298.34,687.42 M2291.44,691.32 C2291.44,692.82 2291.04,697.42 2288.54,701.22 C2286.84,703.82 2283.44,706.52 2281.54,708.02 L2281.84,688.52 C2282.04,687.62 2283.54,684.72 2287.54,684.72 C2291.14,684.72 2291.44,688.12 2291.44,690.22 L2291.44,691.32 "/>
<polyline class="LedgerLine" fill="none" stroke="#000000" stroke-width="4.00" stroke-linejoin="bevel" points="836.474,882.832 886.47,882.832"/>
<polyline class="LedgerLine" fill="none" stroke="#000000" stroke-width="4.00" stroke-linejoin="bevel" points="1012.3,882.832 1062.3,882.832"/>
<polyline class="LedgerLine" fill="none" stroke="#000000" stroke-width="4.00" stroke-linejoin="bevel" points="1162.07,882.832 1212.07,882.832"/>
<polyline class="LedgerLine" fill="none" stroke="#000000" stroke-width="4.00" stroke-linejoin="bevel" points="1162.07,857.831 1212.07,857.831"/>
<polyline class="LedgerLine" fill="none" stroke="#000000" stroke-width="4.00" stroke-linejoin="bevel" points="1311.84,882.832 1361.84,882.832"/>
<polyline class="LedgerLine" fill="none" stroke="#000000" stroke-width="4.00" stroke-linejoin="bevel" points="1311.84,857.831 1361.84,857.831"/>
<polyline class="LedgerLine" fill="none" stroke="#000000" stroke-width="4.00" stroke-linejoin="bevel" points="1461.61,882.832 1511.61,882.832"/>
<polyline class="LedgerLine" fill="none" stroke="#000000" stroke-width="4.00" stroke-linejoin="bevel" points="1461.61,857.831 1511.61,857.831"/>
<polyline class="LedgerLine" fill="none" stroke="#000000" stroke-width="4.00" stroke-linejoin="bevel" points="1461.61,832.829 1511.61,832.829"/>
<polyline class="LedgerLine" fill="none" stroke="#000000" stroke-width="4.00" stroke-linejoin="bevel" points="1677.03,882.832 1727.03,882.832"/>
<polyline class="LedgerLine" fill="none" stroke="#000000" stroke-width="4.00" stroke-linejoin="bevel" points="1677.03,857.831 1727.03,857.831"/>
<polyline class="LedgerLine" fill="none" stroke="#000000" stroke-width="4.00" stroke-linejoin="bevel" points="1818.58,882.832 1868.58,882.832"/>
<polyline class="LedgerLine" fill="none" stroke="#000000" stroke-width="4.00" stroke-linejoin="bevel" points="1818.58,857.831 1868.58,857.831"/>
<polyline class="LedgerLine" fill="none" stroke="#000000" stroke-width="4.00" stroke-linejoin="bevel" points="1960.13,882.832 2010.13,882.832"/>
<polyline class="LedgerLine" fill="none" stroke="#000000" stroke-width="4.00" stroke-linejoin="bevel" points="2101.68,882.832 2151.68,882.832"/>
<polyline class="Stem" fill="none" stroke="#000000" stroke-width="2.75" stroke-linejoin="bevel" points="456.377,923.855 456.377,1007.84"/>
<polyline class="Stem" fill="none" stroke="#000000" stroke-width="2.75" stroke-linejoin="bevel" points="586.452,911.354 586.452,995.339"/>
<polyline class="Stem" fill="none" stroke="#000000" stroke-width="2.75" stroke-linejoin="bevel" points="716.526,898.853 716.526,982.839"/>
<polyline class="Stem" fill="none" stroke="#000000" stroke-width="2.75" stroke-linejoin="bevel" points="846.6,886.352 846.6,970.338"/>
<polyline class="Stem" fill="none" stroke="#000000" stroke-width="2.75" stroke-linejoin="bevel" points="1022.43,873.852 1022.43,957.837"/>
<polyline class="Stem" fill="none" stroke="#000000" stroke-width="2.75" stroke-linejoin="bevel" points="1172.2,861.351 1172.2,957.837"/>
<polyline class="Stem" fill="none" stroke="#000000" stroke-width="2.75" stroke-linejoin="bevel" points="1321.97,848.85 1321.97,957.837"/>
<polyline class="Stem" fill="none" stroke="#000000" stroke-width="2.75" stroke-linejoin="bevel" points="1471.74,836.349 1471.74,957.837"/>
<polyline class="Stem" fill="none" stroke="#000000" stroke-width="2.75" stroke-linejoin="bevel" points="1687.16,848.85 1687.16,957.837"/>
<polyline class="Stem" fill="none" stroke="#000000" stroke-width="2.75" stroke-linejoin="bevel" points="1828.71,861.351 1828.71,957.837"/>
<polyline class="Stem" fill="none" stroke="#000000" stroke-width="2.75" stroke-linejoin="bevel" points="1970.26,873.852 1970.26,957.837"/>
<polyline class="Stem" fill="none" stroke="#000000" stroke-width="2.75" stroke-linejoin="bevel" points="2111.81,886.352 2111.81,970.338"/>
<polyline class="Stem" fill="none" stroke="#000000" stroke-width="2.75" stroke-linejoin="bevel" points="2306.16,898.853 2306.16,982.839"/>
<polyline class="Stem" fill="none" stroke="#000000" stroke-width="2.75" stroke-linejoin="bevel" points="2425,911.354 2425,995.339"/>
<polyline class="Stem" fill="none" stroke="#000000" stroke-width="2.75" stroke-linejoin="bevel" points="2543.85,923.775 2543.85,1007.84"/>
<polyline class="Stem" fill="none" stroke="#000000" stroke-width="2.75" stroke-linejoin="bevel" points="486.121,716.962 486.121,635.942"/>
<polyline class="Stem" fill="none" stroke="#000000" stroke-width="2.75" stroke-linejoin="bevel" points="616.196,704.461 616.196,626.566"/>
<polyline class="Stem" fill="none" stroke="#000000" stroke-width="2.75" stroke-linejoin="bevel" points="716.526,698.841 716.526,773.45"/>
<polyline class="Stem" fill="none" stroke="#000000" stroke-width="2.75" stroke-linejoin="bevel" points="846.6,686.34 846.6,764.075"/>
<polyline class="Stem" fill="none" stroke="#000000" stroke-width="2.75" stroke-linejoin="bevel" points="1022.43,673.839 1022.43,754.699"/>
<polyline class="Stem" fill="none" stroke="#000000" stroke-width="2.75" stroke-linejoin="bevel" points="1172.2,661.338 1172.2,745.324"/>
<polyline class="Stem" fill="none" stroke="#000000" stroke-width="2.75" stroke-linejoin="bevel" points="1321.97,648.837 1321.97,732.823"/>
<polyline class="Stem" fill="none" stroke="#000000" stroke-width="2.75" stroke-linejoin="bevel" points="1471.74,636.337 1471.74,720.322"/>
<polyline class="Stem" fill="none" stroke="#000000" stroke-width="2.75" stroke-linejoin="bevel" points="1687.16,648.837 1687.16,732.823"/>
<polyline class="Stem" fill="none" stroke="#000000" stroke-width="2.75" stroke-linejoin="bevel" points="1828.71,661.338 1828.71,745.324"/>
<polyline class="Stem" fill="none" stroke="#000000" stroke-width="2.75" stroke-linejoin="bevel" points="1970.26,673.839 1970.26,754.699"/>
<polyline class="Stem" fill="none" stroke="#000000" stroke-width="2.75" stroke-linejoin="bevel" points="2111.81,686.34 2111.81,764.075"/>
<polyline class="Stem" fill="none" stroke="#000000" stroke-width="2.75" stroke-linejoin="bevel" points="2306.16,698.841 2306.16,773.45"/>
<polyline class="Stem" fill="none" stroke="#000000" stroke-width="2.75" stroke-linejoin="bevel" points="2454.75,704.461 2454.75,626.566"/>
<polyline class="Stem" fill="none" stroke="#000000" stroke-width="2.75" stroke-linejoin="bevel" points="2573.59,716.882 2573.59,635.942"/>
<path class="Note" d="M486.502,912.135 C485.002,909.435 482.102,907.735 478.202,907.335 C477.602,907.235 477.102,907.235 476.502,907.235 C473.002,907.235 469.202,908.235 465.702,910.135 C459.102,913.735 455.002,919.635 455.002,924.735 C455.002,926.135 455.202,927.435 455.902,928.635 C457.402,931.335 460.402,933.035 464.302,933.435 C464.902,933.535 465.402,933.535 466.002,933.535 C469.502,933.535 473.202,932.535 476.702,930.635 C483.302,927.035 487.502,921.235 487.502,916.135 C487.502,914.735 487.202,913.335 486.502,912.135"/>
<path class="Note" d="M616.576,899.634 C615.076,896.934 612.176,895.234 608.276,894.834 C607.676,894.734 607.176,894.734 606.576,894.734 C603.076,894.734 599.276,895.734 595.776,897.634 C589.176,901.234 585.076,907.134 585.076,912.234 C585.076,913.634 585.276,914.934 585.976,916.134 C587.476,918.834 590.476,920.534 594.376,920.934 C594.976,921.034 595.476,921.034 596.076,921.034 C599.576,921.034 603.276,920.034 606.776,918.134 C613.376,914.534 617.576,908.734 617.576,903.634 C617.576,902.234 617.276,900.834 616.576,899.634"/>
<path class="Note" d="M746.651,887.133 C745.151,884.433 742.251,882.733 738.351,882.333 C737.751,882.233 737.251,882.233 736.651,882.233 C733.151,882.233 729.351,883.233 725.851,885.133 C719.251,888.733 715.151,894.633 715.151,899.733 C715.151,901.133 715.351,902.433 716.051,903.633 C717.551,906.333 720.551,908.033 724.451,908.433 C725.051,908.533 725.551,908.533 726.151,908.533 C729.651,908.533 733.351,907.533 736.851,905.633 C743.451,902.033 747.651,896.233 747.651,891.133 C747.651,889.733 747.351,888.333 746.651,887.133"/>
<path class="Note" d="M876.725,874.632 C875.225,871.932 872.325,870.232 868.425,869.832 C867.825,869.732 867.325,869.732 866.725,869.732 C863.225,869.732 859.425,870.732 855.925,872.632 C849.325,876.232 845.225,882.132 845.225,887.232 C845.225,888.632 845.425,889.932 846.125,891.132 C847.625,893.832 850.625,895.532 854.525,895.932 C855.125,896.032 855.625,896.032 856.225,896.032 C859.725,896.032 863.425,895.032 866.925,893.132 C873.525,889.532 877.725,883.732 877.725,878.632 C877.725,877.232 877.425,875.832 876.725,874.632"/>
<path class="Note" d="M1052.55,862.131 C1051.05,859.431 1048.15,857.731 1044.25,857.331 C1043.65,857.231 1043.15,857.231 1042.55,857.231 C1039.05,857.231 1035.25,858.231 1031.75,860.131 C1025.15,863.731 1021.05,869.631 1021.05,874.731 C1021.05,876.131 1021.25,877.431 1021.95,878.631 C1023.45,881.331 1026.45,883.031 1030.35,883.431 C1030.95,883.531 1031.45,883.531 1032.05,883.531 C1035.55,883.531 1039.25,882.531 1042.75,880.631 C1049.35,877.031 1053.55,871.231 1053.55,866.131 C1053.55,864.731 1053.25,863.331 1052.55,862.131"/>
<path class="Note" d="M1202.32,849.631 C1200.82,846.931 1197.92,845.231 1194.02,844.831 C1193.42,844.731 1192.92,844.731 1192.32,844.731 C1188.82,844.731 1185.02,845.731 1181.52,847.631 C1174.92,851.231 1170.82,857.131 1170.82,862.231 C1170.82,863.631 1171.02,864.931 1171.72,866.131 C1173.22,868.831 1176.22,870.531 1180.12,870.931 C1180.72,871.031 1181.22,871.031 1181.82,871.031 C1185.32,871.031 1189.02,870.031 1192.52,868.131 C1199.12,864.531 1203.32,858.731 1203.32,853.631 C1203.32,852.231 1203.02,850.831 1202.32,849.631"/>
<path class="Note" d="M1352.09,837.13 C1350.59,834.43 1347.69,832.73 1343.79,832.33 C1343.19,832.23 1342.69,832.23 1342.09,832.23 C1338.59,832.23 1334.79,833.23 1331.29,835.13 C1324.69,838.73 1320.59,844.63 1320.59,849.73 C1320.59,851.13 1320.79,852.43 1321.49,853.63 C1322.99,856.33 1325.99,858.03 1329.89,858.43 C1330.49,858.53 1330.99,858.53 1331.59,858.53 C1335.09,858.53 1338.79,857.53 1342.29,855.63 C1348.89,852.03 1353.09,846.23 1353.09,841.13 C1353.09,839.73 1352.79,838.33 1352.09,837.13"/>
<path class="Note" d="M1501.86,824.629 C1500.36,821.929 1497.46,820.229 1493.56,819.829 C1492.96,819.729 1492.46,819.729 1491.86,819.729 C1488.36,819.729 1484.56,820.729 1481.06,822.629 C1474.46,826.229 1470.36,832.129 1470.36,837.229 C1470.36,838.629 1470.56,839.929 1471.26,841.129 C1472.76,843.829 1475.76,845.529 1479.66,845.929 C1480.26,846.029 1480.76,846.029 1481.36,846.029 C1484.86,846.029 1488.56,845.029 1492.06,843.129 C1498.66,839.529 1502.86,833.729 1502.86,828.629 C1502.86,827.229 1502.56,825.829 1501.86,824.629"/>
<path class="Note" d="M1717.28,837.13 C1715.78,834.43 1712.88,832.73 1708.98,832.33 C1708.38,832.23 1707.88,832.23 1707.28,832.23 C1703.78,832.23 1699.98,833.23 1696.48,835.13 C1689.88,838.73 1685.78,844.63 1685.78,849.73 C1685.78,851.13 1685.98,852.43 1686.68,853.63 C1688.18,856.33 1691.18,858.03 1695.08,858.43 C1695.68,858.53 1696.18,858.53 1696.78,858.53 C1700.28,858.53 1703.98,857.53 1707.48,855.63 C1714.08,852.03 1718.28,846.23 1718.28,841.13 C1718.28,839.73 1717.98,838.33 1717.28,837.13"/>
<path class="Note" d="M1858.83,849.631 C1857.33,846.931 1854.43,845.231 1850.53,844.831 C1849.93,844.731 1849.43,844.731 1848.83,844.731 C1845.33,844.731 1841.53,845.731 1838.03,847.631 C1831.43,851.231 1827.33,857.131 1827.33,862.231 C1827.33,863.631 1827.53,864.931 1828.23,866.131 C1829.73,868.831 1832.73,870.531 1836.63,870.931 C1837.23,871.031 1837.73,871.031 1838.33,871.031 C1841.83,871.031 1845.53,870.031 1849.03,868.131 C1855.63,864.531 1859.83,858.731 1859.83,853.631 C1859.83,852.231 1859.53,850.831 1858.83,849.631"/>
<path class="Note" d="M2000.38,862.131 C1998.88,859.431 1995.98,857.731 1992.08,857.331 C1991.48,857.231 1990.98,857.231 1990.38,857.231 C1986.88,857.231 1983.08,858.231 1979.58,860.131 C1972.98,863.731 1968.88,869.631 1968.88,874.731 C1968.88,876.131 1969.08,877.431 1969.78,878.631 C1971.28,881.331 1974.28,883.031 1978.18,883.431 C1978.78,883.531 1979.28,883.531 1979.88,883.531 C1983.38,883.531 1987.08,882.531 1990.58,880.631 C1997.18,877.031 2001.38,871.231 2001.38,866.131 C2001.38,864.731 2001.08,863.331 2000.38,862.131"/>
<path class="Note" d="M2141.93,874.632 C2140.43,871.932 2137.53,870.232 2133.63,869.832 C2133.03,869.732 2132.53,869.732 2131.93,869.732 C2128.43,869.732 2124.63,870.732 2121.13,872.632 C2114.53,876.232 2110.43,882.132 2110.43,887.232 C2110.43,888.632 2110.63,889.932 2111.33,891.132 C2112.83,893.832 2115.83,895.532 2119.73,895.932 C2120.33,896.032 2120.83,896.032 2121.43,896.032 C2124.93,896.032 2128.63,895.032 2132.13,893.132 C2138.73,889.532 2142.93,883.732 2142.93,878.632 C2142.93,877.232 2142.63,875.832 2141.93,874.632"/>
<path class="Note" d="M2336.28,887.133 C2334.78,884.433 2331.88,882.733 2327.98,882.333 C2327.38,882.233 2326.88,882.233 2326.28,882.233 C2322.78,882.233 2318.98,883.233 2315.48,885.133 C2308.88,888.733 2304.78,894.633 2304.78,899.733 C2304.78,901.133 2304.98,902.433 2305.68,903.633 C2307.18,906.333 2310.18,908.033 2314.08,908.433 C2314.68,908.533 2315.18,908.533 2315.78,908.533 C2319.28,908.533 2322.98,907.533 2326.48,905.633 C2333.08,902.033 2337.28,896.233 2337.28,891.133 C2337.28,889.733 2336.98,888.333 2336.28,887.133"/>
<path class="Note" d="M2455.13,899.634 C2453.63,896.934 2450.73,895.234 2446.83,894.834 C2446.23,894.734 2445.73,894.734 2445.13,894.734 C2441.63,894.734 2437.83,895.734 2434.33,897.634 C2427.73,901.234 2423.63,907.134 2423.63,912.234 C2423.63,913.634 2423.83,914.934 2424.53,916.134 C2426.03,918.834 2429.03,920.534 2432.93,920.934 C2433.53,921.034 2434.03,921.034 2434.63,921.034 C2438.13,921.034 2441.83,920.034 2445.33,918.134 C2451.93,914.534 2456.13,908.734 2456.13,903.634 C2456.13,902.234 2455.83,900.834 2455.13,899.634"/>
<path class="Note" d="M2573.98,912.135 C2572.48,909.435 2569.58,907.735 2565.68,907.335 C2565.08,907.235 2564.58,907.235 2563.98,907.235 C2560.48,907.235 2556.68,908.235 2553.18,910.135 C2546.58,913.735 2542.48,919.535 2542.48,924.635 C2542.48,926.035 2542.88,927.435 2543.58,928.635 C2545.08,931.435 2547.88,933.035 2551.78,933.435 C2552.38,933.535 2552.88,933.535 2553.48,933.535 C2556.98,933.535 2560.78,932.535 2564.28,930.635 C2570.88,927.035 2574.98,921.135 2574.98,916.035 C2574.98,914.635 2574.68,913.335 2573.98,912.135 M2569.78,918.435 C2568.08,920.235 2564.88,922.535 2561.28,924.635 C2557.68,926.735 2553.98,928.435 2551.68,929.135 C2551.18,929.235 2550.58,929.335 2550.08,929.335 C2548.58,929.335 2547.28,928.635 2546.58,927.535 C2546.28,926.935 2546.08,926.335 2546.08,925.735 C2546.08,924.635 2546.58,923.535 2547.68,922.335 C2549.38,920.535 2552.58,918.135 2556.18,916.035 C2559.78,913.935 2563.48,912.235 2565.88,911.635 L2566.08,911.635 C2566.68,911.435 2567.18,911.335 2567.68,911.335 C2569.08,911.335 2570.18,911.935 2570.88,913.235 C2571.18,913.835 2571.38,914.335 2571.38,914.935 C2571.38,916.235 2570.68,917.535 2569.78,918.435"/>
<path class="Note" d="M486.502,712.122 C485.002,709.422 482.102,707.722 478.202,707.322 C477.602,707.222 477.102,707.222 476.502,707.222 C473.002,707.222 469.202,708.222 465.702,710.122 C459.102,713.722 455.002,719.622 455.002,724.722 C455.002,726.122 455.202,727.422 455.902,728.622 C457.402,731.322 460.402,733.022 464.302,733.422 C464.902,733.522 465.402,733.522 466.002,733.522 C469.502,733.522 473.202,732.522 476.702,730.622 C483.302,727.022 487.502,721.222 487.502,716.122 C487.502,714.722 487.202,713.322 486.502,712.122"/>
<path class="Note" d="M616.576,699.621 C615.076,696.921 612.176,695.221 608.276,694.821 C607.676,694.721 607.176,694.721 606.576,694.721 C603.076,694.721 599.276,695.721 595.776,697.621 C589.176,701.221 585.076,707.121 585.076,712.221 C585.076,713.621 585.276,714.921 585.976,716.121 C587.476,718.821 590.476,720.521 594.376,720.921 C594.976,721.021 595.476,721.021 596.076,721.021 C599.576,721.021 603.276,720.021 606.776,718.121 C613.376,714.521 617.576,708.721 617.576,703.621 C617.576,702.221 617.276,700.821 616.576,699.621"/>
<path class="Note" d="M746.651,687.12 C745.151,684.42 742.251,682.72 738.351,682.32 C737.751,682.22 737.251,682.22 736.651,682.22 C733.151,682.22 729.351,683.22 725.851,685.12 C719.251,688.72 715.151,694.62 715.151,699.72 C715.151,701.12 715.351,702.42 716.051,703.62 C717.551,706.32 720.551,708.02 724.451,708.42 C725.051,708.52 725.551,708.52 726.151,708.52 C729.651,708.52 733.351,707.52 736.851,705.62 C743.451,702.02 747.651,696.22 747.651,691.12 C747.651,689.72 747.351,688.32 746.651,687.12"/>
<path class="Note" d="M876.725,674.62 C875.225,671.92 872.325,670.22 868.425,669.82 C867.825,669.72 867.325,669.72 866.725,669.72 C863.225,669.72 859.425,670.72 855.925,672.62 C849.325,676.22 845.225,682.12 845.225,687.22 C845.225,688.62 845.425,689.92 846.125,691.12 C847.625,693.82 850.625,695.52 854.525,695.92 C855.125,696.02 855.625,696.02 856.225,696.02 C859.725,696.02 863.425,695.02 866.925,693.12 C873.525,689.52 877.725,683.72 877.725,678.62 C877.725,677.22 877.425,675.82 876.725,674.62"/>
<path class="Note" d="M1052.55,662.119 C1051.05,659.419 1048.15,657.719 1044.25,657.319 C1043.65,657.219 1043.15,657.219 1042.55,657.219 C1039.05,657.219 1035.25,658.219 1031.75,660.119 C1025.15,663.719 1021.05,669.619 1021.05,674.719 C1021.05,676.119 1021.25,677.419 1021.95,678.619 C1023.45,681.319 1026.45,683.019 1030.35,683.419 C1030.95,683.519 1031.45,683.519 1032.05,683.519 C1035.55,683.519 1039.25,682.519 1042.75,680.619 C1049.35,677.019 1053.55,671.219 1053.55,666.119 C1053.55,664.719 1053.25,663.319 1052.55,662.119"/>
<path class="Note" d="M1202.32,649.618 C1200.82,646.918 1197.92,645.218 1194.02,644.818 C1193.42,644.718 1192.92,644.718 1192.32,644.718 C1188.82,644.718 1185.02,645.718 1181.52,647.618 C1174.92,651.218 1170.82,657.118 1170.82,662.218 C1170.82,663.618 1171.02,664.918 1171.72,666.118 C1173.22,668.818 1176.22,670.518 1180.12,670.918 C1180.72,671.018 1181.22,671.018 1181.82,671.018 C1185.32,671.018 1189.02,670.018 1192.52,668.118 C1199.12,664.518 1203.32,658.718 1203.32,653.618 C1203.32,652.218 1203.02,650.818 1202.32,649.618"/>
<path class="Note" d="M1352.09,637.117 C1350.59,634.417 1347.69,632.717 1343.79,632.317 C1343.19,632.217 1342.69,632.217 1342.09,632.217 C1338.59,632.217 1334.79,633.217 1331.29,635.117 C1324.69,638.717 1320.59,644.617 1320.59,649.717 C1320.59,651.117 1320.79,652.417 1321.49,653.617 C1322.99,656.317 1325.99,658.017 1329.89,658.417 C1330.49,658.517 1330.99,658.517 1331.59,658.517 C1335.09,658.517 1338.79,657.517 1342.29,655.617 C1348.89,652.017 1353.09,646.217 1353.09,641.117 C1353.09,639.717 1352.79,638.317 1352.09,637.117"/>
<path class="Note" d="M1501.86,624.616 C1500.36,621.916 1497.46,620.216 1493.56,619.816 C1492.96,619.716 1492.46,619.716 1491.86,619.716 C1488.36,619.716 1484.56,620.716 1481.06,622.616 C1474.46,626.216 1470.36,632.116 1470.36,637.216 C1470.36,638.616 1470.56,639.916 1471.26,641.116 C1472.76,643.816 1475.76,645.516 1479.66,645.916 C1480.26,646.016 1480.76,646.016 1481.36,646.016 C1484.86,646.016 1488.56,645.016 1492.06,643.116 C1498.66,639.516 1502.86,633.716 1502.86,628.616 C1502.86,627.216 1502.56,625.816 1501.86,624.616"/>
<path class="Note" d="M1717.28,637.117 C1715.78,634.417 1712.88,632.717 1708.98,632.317 C1708.38,632.217 1707.88,632.217 1707.28,632.217 C1703.78,632.217 1699.98,633.217 1696.48,635.117 C1689.88,638.717 1685.78,644.617 1685.78,649.717 C1685.78,651.117 1685.98,652.417 1686.68,653.617 C1688.18,656.317 1691.18,658.017 1695.08,658.417 C1695.68,658.517 1696.18,658.517 1696.78,658.517 C1700.28,658.517 1703.98,657.517 1707.48,655.617 C1714.08,652.017 1718.28,646.217 1718.28,641.117 C1718.28,639.717 1717.98,638.317 1717.28,637.117"/>
<path class="Note" d="M1858.83,649.618 C1857.33,646.918 1854.43,645.218 1850.53,644.818 C1849.93,644.718 1849.43,644.718 1848.83,644.718 C1845.33,644.718 1841.53,645.718 1838.03,647.618 C1831.43,651.218 1827.33,657.118 1827.33,662.218 C1827.33,663.618 1827.53,664.918 1828.23,666.118 C1829.73,668.818 1832.73,670.518 1836.63,670.918 C1837.23,671.018 1837.73,671.018 1838.33,671.018 C1841.83,671.018 1845.53,670.018 1849.03,668.118 C1855.63,664.518 1859.83,658.718 1859.83,653.618 C1859.83,652.218 1859.53,650.818 1858.83,649.618"/>
<path class="Note" d="M2000.38,662.119 C1998.88,659.419 1995.98,657.719 1992.08,657.319 C1991.48,657.219 1990.98,657.219 1990.38,657.219 C1986.88,657.219 1983.08,658.219 1979.58,660.119 C1972.98,663.719 1968.88,669.619 1968.88,674.719 C1968.88,676.119 1969.08,677.419 1969.78,678.619 C1971.28,681.319 1974.28,683.019 1978.18,683.419 C1978.78,683.519 1979.28,683.519 1979.88,683.519 C1983.38,683.519 1987.08,682.519 1990.58,680.619 C1997.18,677.019 2001.38,671.219 2001.38,666.119 C2001.38,664.719 2001.08,663.319 2000.38,662.119"/>
<path class="Note" d="M2141.93,674.62 C2140.43,671.92 2137.53,670.22 2133.63,669.82 C2133.03,669.72 2132.53,669.72 2131.93,669.72 C2128.43,669.72 2124.63,670.72 2121.13,672.62 C2114.53,676.22 2110.43,682.12 2110.43,687.22 C2110.43,688.62 2110.63,689.92 2111.33,691.12 C2112.83,693.82 2115.83,695.52 2119.73,695.92 C2120.33,696.02 2120.83,696.02 2121.43,696.02 C2124.93,696.02 2128.63,695.02 2132.13,693.12 C2138.73,689.52 2142.93,683.72 2142.93,678.62 C2142.93,677.22 2142.63,675.82 2141.93,674.62"/>
<path class="Note" d="M2336.28,687.12 C2334.78,684.42 2331.88,682.72 2327.98,682.32 C2327.38,682.22 2326.88,682.22 2326.28,682.22 C2322.78,682.22 2318.98,683.22 2315.48,685.12 C2308.88,688.72 2304.78,694.62 2304.78,699.72 C2304.78,701.12 2304.98,702.42 2305.68,703.62 C2307.18,706.32 2310.18,708.02 2314.08,708.42 C2314.68,708.52 2315.18,708.52 2315.78,708.52 C2319.28,708.52 2322.98,707.52 2326.48,705.62 C2333.08,702.02 2337.28,696.22 2337.28,691.12 C2337.28,689.72 2336.98,688.32 2336.28,687.12"/>
<path class="Note" d="M2455.13,699.621 C2453.63,696.921 2450.73,695.221 2446.83,694.821 C2446.23,694.721 2445.73,694.721 2445.13,694.721 C2441.63,694.721 2437.83,695.721 2434.33,697.621 C2427.73,701.221 2423.63,707.121 2423.63,712.221 C2423.63,713.621 2423.83,714.921 2424.53,716.121 C2426.03,718.821 2429.03,720.521 2432.93,720.921 C2433.53,721.021 2434.03,721.021 2434.63,721.021 C2438.13,721.021 2441.83,720.021 2445.33,718.121 C2451.93,714.521 2456.13,708.721 2456.13,703.621 C2456.13,702.221 2455.83,700.821 2455.13,699.621"/>
<path class="Note" d="M2573.98,712.122 C2572.48,709.422 2569.58,707.722 2565.68,707.322 C2565.08,707.222 2564.58,707.222 2563.98,707.222 C2560.48,707.222 2556.68,708.222 2553.18,710.122 C2546.58,713.722 2542.48,719.522 2542.48,724.622 C2542.48,726.022 2542.88,727.422 2543.58,728.622 C2545.08,731.422 2547.88,733.022 2551.78,733.422 C2552.38,733.522 2552.88,733.522 2553.48,733.522 C2556.98,733.522 2560.78,732.522 2564.28,730.622 C2570.88,727.022 2574.98,721.122 2574.98,716.022 C2574.98,714.622 2574.68,713.322 2573.98,712.122 M2569.78,718.422 C2568.08,720.222 2564.88,722.522 2561.28,724.622 C2557.68,726.722 2553.98,728.422 2551.68,729.122 C2551.18,729.222 2550.58,729.322 2550.08,729.322 C2548.58,729.322 2547.28,728.622 2546.58,727.522 C2546.28,726.922 2546.08,726.322 2546.08,725.722 C2546.08,724.622 2546.58,723.522 2547.68,722.322 C2549.38,720.522 2552.58,718.122 2556.18,716.022 C2559.78,713.922 2563.48,712.222 2565.88,711.622 L2566.08,711.622 C2566.68,711.422 2567.18,711.322 2567.68,711.322 C2569.08,711.322 2570.18,711.922 2570.88,713.222 C2571.18,713.822 2571.38,714.322 2571.38,714.922 C2571.38,716.222 2570.68,717.522 2569.78,718.422"/>
<path class="Clef" d="M297,907.735 C289.4,907.735 283.3,912.135 283.2,912.135 C277.4,916.435 275.1,921.535 274.2,925.035 C273.7,926.835 273.5,928.635 273.5,930.335 C273.5,932.735 273.9,934.935 274.8,936.835 C276,939.535 278.3,941.435 281.3,942.435 C282.5,942.835 283.8,943.035 285.1,943.035 C287.3,943.035 289.6,942.435 291.5,941.335 C294.6,939.635 296.5,936.035 296.5,932.135 C296.5,928.635 294.7,925.435 291.7,923.535 C289.6,922.135 287.6,921.735 285.9,921.735 C284.7,921.735 283.6,921.935 282.7,922.235 C281.7,922.635 280,923.635 279.2,924.335 C279.5,922.435 280.7,919.535 281.8,917.935 C282.9,916.335 285.1,914.335 286.8,913.435 C289.3,912.035 292.5,911.435 296,911.435 C306.2,911.435 311.2,919.635 311.2,936.435 C311.2,945.735 307.7,954.635 304.7,960.535 C301.4,967.135 297,973.435 293.1,976.935 C282.7,986.435 272.9,990.935 272.8,990.935 C272.8,990.935 271.3,991.835 271.7,993.335 C272,994.335 272.9,994.535 273.5,994.535 C273.6,994.535 273.9,994.435 274,994.435 C274.1,994.435 285.5,989.735 294.6,982.635 C299.7,978.935 304.3,974.935 308.3,970.635 C311.9,966.735 315,962.535 317.5,958.335 C321.9,950.835 324.4,943.035 324.4,936.335 C324.4,928.035 322.2,921.135 318.1,916.235 C313.4,910.635 306.3,907.735 297,907.735 M328.4,920.435 C328.4,923.235 330.6,925.435 333.2,925.435 C335.8,925.435 338,923.235 338,920.435 C338,917.635 335.8,915.335 333.2,915.335 C330.6,915.335 328.4,917.635 328.4,920.435 M328.4,945.135 C328.4,947.935 330.6,950.235 333.2,950.235 C335.8,950.235 338,947.935 338,945.135 C338,942.335 335.8,940.035 333.2,940.035 C330.6,940.035 328.4,942.335 328.4,945.135"/>
<path class="Clef" d="M335,714.422 C333.8,709.022 331.1,705.122 330.3,704.122 C327.1,699.822 323.1,697.022 318.4,695.622 C316.1,694.922 314,694.722 312,694.722 C311.3,694.722 310.6,694.722 309.9,694.822 C308.9,688.822 307.8,682.922 306.9,677.522 C312.5,671.322 316.2,665.422 318.6,661.022 C322.2,654.322 323.6,649.622 323.7,649.422 C324.9,646.422 325.6,642.622 325.6,638.122 C325.6,635.422 325.3,632.522 324.9,629.522 C323.8,622.422 321.6,615.722 319.1,612.022 C317.8,610.122 316.6,609.022 315.4,609.022 C314.2,609.022 311.7,610.222 308.8,613.022 C306.5,615.222 303.2,619.122 300.6,625.122 C298.3,630.522 297.6,637.422 297.6,643.322 C297.6,645.122 297.7,646.822 297.8,648.422 C298,652.022 298.7,657.822 299.3,661.422 C299.3,661.522 299.6,663.022 300,665.622 L299.3,666.322 C298.3,667.322 297.1,668.422 295.7,669.822 C294.8,670.722 293.9,671.522 292.9,672.522 C284.4,680.722 271.6,693.122 271.6,712.222 C271.6,716.922 272.5,721.322 274.3,725.322 C275.9,728.922 278.2,732.222 281.1,735.122 C288.6,742.522 298.8,745.722 305.9,745.722 L306.5,745.722 C309.4,745.622 312.1,745.322 314.5,744.922 C316.3,754.522 317.5,761.622 317.5,766.922 C317.5,773.422 315.9,777.322 312,780.122 C309.6,781.822 306.7,782.922 303.6,783.022 L302.8,783.022 C301.3,783.022 298.8,782.622 297.3,782.222 C297.3,782.222 297,782.122 297,781.922 C297,781.722 297.4,781.722 297.4,781.722 C299.3,781.322 302.9,780.022 305.3,776.722 C306.4,775.222 307.1,772.922 307.1,770.422 C307.1,768.822 306.8,767.122 306.1,765.622 C305,763.222 302.4,760.222 296.8,759.822 L295.7,759.822 C293.6,759.822 291.8,760.322 290.1,761.322 C288.3,762.422 286.7,764.122 285.7,766.122 C284.6,768.122 284.1,770.322 284.1,772.522 C284.1,775.422 285,778.122 286.8,780.322 C289.8,783.922 294.5,786.222 299.9,786.822 C300.6,786.922 301.7,787.022 302.4,787.022 C306.8,787.022 311.2,785.822 314.8,783.622 C318.5,781.022 320.6,777.022 321.3,771.422 C321.5,770.122 321.5,768.722 321.5,767.222 C321.5,763.322 321,758.622 320,752.822 C319.6,750.722 319.2,747.722 318.5,743.922 C324.3,742.022 328.4,738.322 332.2,732.522 C334.5,728.522 335.6,724.422 335.6,720.122 C335.6,718.222 335.4,716.322 335,714.422 M304.8,636.522 C306.6,630.822 309.3,627.422 311.3,625.722 C313.1,624.222 314.7,623.522 315.6,623.522 C315.7,623.522 315.9,623.622 316,623.622 C316.3,623.722 316.7,624.222 317.1,624.922 C318,626.722 318.9,630.022 318.9,633.722 C318.9,635.622 318.7,637.622 318.1,639.422 C315.9,646.222 311.3,653.522 304.3,661.222 C304.1,660.122 303.9,659.122 303.8,658.122 C303.3,654.922 303,651.722 303,648.822 C303,644.322 303.6,640.222 304.8,636.522 M300.8,740.622 C296.2,739.422 291.7,736.922 287.9,733.422 C286.6,732.222 284.8,730.022 283.3,726.622 C282,723.622 281.3,720.522 281.3,717.122 L281.3,716.422 C281.4,711.722 282.7,706.922 285.2,702.122 C288.1,696.522 292.6,691.022 298.7,685.722 C300.2,684.422 301.6,683.122 302.9,681.822 C303.7,686.122 304.4,690.822 305.3,695.722 C301.4,697.022 296.7,700.022 293.6,705.722 C291.2,710.222 290.5,714.122 290.5,717.322 C290.5,718.822 290.7,720.222 290.9,721.322 C291.8,725.822 294.4,729.522 297.9,731.622 C298.7,732.122 302,733.822 304,733.822 C304.3,733.822 304.6,733.822 304.8,733.722 C305.1,733.622 305.4,733.422 305.5,733.122 C305.6,732.922 305.6,732.722 305.6,732.522 C305.6,731.722 304.8,731.122 303.5,730.322 C302.9,729.922 302.2,729.522 301.5,729.022 C298.9,727.022 297.4,723.922 297.4,720.522 C297.4,719.522 297.6,718.622 297.8,717.622 C298.3,715.622 300,712.822 301.5,711.422 C303.2,709.922 305.2,708.722 307.6,708.122 C309.6,719.322 311.7,730.422 313.3,738.822 C313.4,739.522 313.6,740.222 313.7,740.922 C311.7,741.322 309.7,741.522 307.8,741.522 C305.4,741.522 303.1,741.222 300.8,740.622 M326.5,730.422 C325.3,733.622 322.8,737.622 317.7,739.722 C317.6,739.322 317.6,738.822 317.5,738.422 C316,729.622 314.1,718.722 312.1,707.422 L313.1,707.422 C322.8,707.422 326.7,714.622 327.6,719.222 C327.8,720.122 327.9,721.322 327.9,722.622 C327.9,724.922 327.5,727.722 326.5,730.422"/>
<path class="TimeSig" d="M365.2,946.235 L382,946.235 L382,953.535 L373.9,953.535 C373.1,953.535 372.5,954.135 372.5,954.935 L372.5,956.835 C372.5,957.635 373.1,958.135 373.9,958.135 L403.6,958.135 C404.4,958.135 405,957.635 405,956.835 L405,954.935 C405,954.135 404.4,953.535 403.6,953.535 L394.8,953.535 L394.8,946.235 L403.6,946.235 C404.4,946.235 405,945.635 405,944.835 L405,943.035 C405,942.235 404.4,941.635 403.6,941.635 L394.8,941.635 L394.8,925.935 C394.8,925.435 394.4,924.935 394,924.735 L392.9,924.135 C392.7,924.035 392.4,924.035 392.2,924.035 C391.9,924.035 391.5,924.135 391.3,924.335 L382.4,932.535 C382.2,932.735 382,933.235 382,933.535 L382,941.635 L370.7,941.635 C370.7,941.635 381.6,929.835 393.2,914.335 C394,913.235 393.6,912.235 393.4,912.035 L391.3,909.835 C391.1,909.635 390.6,909.435 390.3,909.435 L375.7,909.435 C375,909.435 374.5,910.035 374.4,910.635 C374.4,910.635 373.9,917.835 371.3,925.835 C368.7,933.835 365.9,938.635 363.3,942.235 C363.3,942.235 362.8,943.235 363.1,943.935 C363.4,944.635 364.1,945.735 364.1,945.735 C364.1,945.735 364.4,946.235 365.2,946.235"/>
<path class="TimeSig" d="M365.2,994.839 L382,994.839 L382,1002.14 L373.9,1002.14 C373.1,1002.14 372.5,1002.74 372.5,1003.54 L372.5,1005.44 C372.5,1006.24 373.1,1006.74 373.9,1006.74 L403.6,1006.74 C404.4,1006.74 405,1006.24 405,1005.44 L405,1003.54 C405,1002.74 404.4,1002.14 403.6,1002.14 L394.8,1002.14 L394.8,994.839 L403.6,994.839 C404.4,994.839 405,994.239 405,993.439 L405,991.639 C405,990.839 404.4,990.239 403.6,990.239 L394.8,990.239 L394.8,974.539 C394.8,974.039 394.4,973.539 394,973.339 L392.9,972.739 C392.7,972.639 392.4,972.639 392.2,972.639 C391.9,972.639 391.5,972.739 391.3,972.939 L382.4,981.139 C382.2,981.339 382,981.839 382,982.139 L382,990.239 L370.7,990.239 C370.7,990.239 381.6,978.439 393.2,962.939 C394,961.839 393.6,960.839 393.4,960.639 L391.3,958.439 C391.1,958.239 390.6,958.039 390.3,958.039 L375.7,958.039 C375,958.039 374.5,958.639 374.4,959.239 C374.4,959.239 373.9,966.439 371.3,974.439 C368.7,982.439 365.9,987.239 363.3,990.839 C363.3,990.839 362.8,991.839 363.1,992.539 C363.4,993.239 364.1,994.339 364.1,994.339 C364.1,994.339 364.4,994.839 365.2,994.839"/>
<path class="TimeSig" d="M365.2,683.718 L382,683.718 L382,691.018 L373.9,691.018 C373.1,691.018 372.5,691.618 372.5,692.418 L372.5,694.318 C372.5,695.118 373.1,695.618 373.9,695.618 L403.6,695.618 C404.4,695.618 405,695.118 405,694.318 L405,692.418 C405,691.618 404.4,691.018 403.6,691.018 L394.8,691.018 L394.8,683.718 L403.6,683.718 C404.4,683.718 405,683.118 405,682.318 L405,680.518 C405,679.718 404.4,679.118 403.6,679.118 L394.8,679.118 L394.8,663.418 C394.8,662.918 394.4,662.418 394,662.218 L392.9,661.618 C392.7,661.518 392.4,661.518 392.2,661.518 C391.9,661.518 391.5,661.618 391.3,661.818 L382.4,670.018 C382.2,670.218 382,670.718 382,671.018 L382,679.118 L370.7,679.118 C370.7,679.118 381.6,667.318 393.2,651.818 C394,650.718 393.6,649.718 393.4,649.518 L391.3,647.318 C391.1,647.118 390.6,646.918 390.3,646.918 L375.7,646.918 C375,646.918 374.5,647.518 374.4,648.118 C374.4,648.118 373.9,655.318 371.3,663.318 C368.7,671.318 365.9,676.118 363.3,679.718 C363.3,679.718 362.8,680.718 363.1,681.418 C363.4,682.118 364.1,683.218 364.1,683.218 C364.1,683.218 364.4,683.718 365.2,683.718"/>
<path class="TimeSig" d="M365.2,732.323 L382,732.323 L382,739.623 L373.9,739.623 C373.1,739.623 372.5,740.223 372.5,741.023 L372.5,742.923 C372.5,743.723 373.1,744.223 373.9,744.223 L403.6,744.223 C404.4,744.223 405,743.723 405,742.923 L405,741.023 C405,740.223 404.4,739.623 403.6,739.623 L394.8,739.623 L394.8,732.323 L403.6,732.323 C404.4,732.323 405,731.723 405,730.923 L405,729.123 C405,728.323 404.4,727.723 403.6,727.723 L394.8,727.723 L394.8,712.023 C394.8,711.523 394.4,711.023 394,710.823 L392.9,710.223 C392.7,710.123 392.4,710.123 392.2,710.123 C391.9,710.123 391.5,710.223 391.3,710.423 L382.4,718.623 C382.2,718.823 382,719.323 382,719.623 L382,727.723 L370.7,727.723 C370.7,727.723 381.6,715.923 393.2,700.423 C394,699.323 393.6,698.323 393.4,698.123 L391.3,695.923 C391.1,695.723 390.6,695.523 390.3,695.523 L375.7,695.523 C375,695.523 374.5,696.123 374.4,696.723 C374.4,696.723 373.9,703.923 371.3,711.923 C368.7,719.923 365.9,724.723 363.3,728.323 C363.3,728.323 362.8,729.323 363.1,730.023 C363.4,730.723 364.1,731.823 364.1,731.823 C364.1,731.823 364.4,732.323 365.2,732.323"/>
<path class="Page" d="M227.904,4034.37 L212.604,4055.66 L212.604,4058.18 L225.249,4058.18 L225.249,4060.52 C225.249,4062.81 225.249,4062.9 224.979,4063.31 C224.619,4063.8 223.764,4063.94 221.199,4063.94 L220.704,4063.94 L220.704,4066.05 L233.844,4066.05 L233.844,4063.94 L233.664,4063.94 C231.099,4063.94 230.244,4063.8 229.884,4063.31 C229.614,4062.9 229.614,4062.86 229.614,4060.52 L229.614,4058.18 L235.059,4058.18 L235.059,4055.66 L229.614,4055.66 L229.614,4043.37 C229.614,4037.75 229.614,4037.61 229.839,4034.37 L227.904,4034.37 M225.249,4055.66 L215.349,4055.66 L225.249,4042.02 L225.249,4055.66 M249.139,4034.37 C242.839,4034.37 238.249,4041.21 238.249,4050.66 C238.249,4059.93 242.704,4066.73 248.779,4066.73 C255.079,4066.73 259.489,4060.16 259.489,4050.8 C259.489,4046.03 258.499,4042.07 256.609,4038.96 C254.854,4036.13 251.974,4034.37 249.139,4034.37 M248.824,4036.31 C250.309,4036.31 251.749,4037.3 252.829,4039.1 C254.044,4041.21 254.449,4043.78 254.449,4049.94 C254.449,4056.29 254.134,4059.26 253.234,4061.24 C252.199,4063.44 250.579,4064.79 248.869,4064.79 C247.339,4064.79 245.944,4063.8 244.864,4062 C243.604,4059.89 243.244,4057.1 243.244,4049.72 C243.244,4044.45 243.559,4041.84 244.459,4039.86 C245.494,4037.61 247.114,4036.31 248.824,4036.31"/>
<path class="Bracket" transform="matrix(3.62523,0,0,3.62523,214.469,1007.84)" d="M0.92002,-50 C2.69004,-51.88 6.2,-55.8 6.2,-63 C6.2,-72.1 2.25996,-81.32 2.25996,-86.97 C2.25996,-93.06 5.84004,-98.84 5.95,-99 C6.05996,-99.16 6.05,-99.39 5.94004,-99.46 C5.82998,-99.53 5.62002,-99.47 5.49004,-99.32 C5.35996,-99.17 0,-93.75 0,-85.6 C0,-76.75 3.5,-70.58 3.5,-59.07 C3.5,-56.89 2.55996,-53.36 0.1,-50.33 C-0.0799805,-50.17 -0.1,-49.89 0.0599609,-49.7 L0.0700195,-49.69 L0.1,-49.66 C2.55996,-46.63 3.5,-43.1 3.5,-40.92 C3.5,-29.4 0,-23.24 0,-14.39 C0,-6.25 5.35996,-0.8 5.49004,-0.659961 C5.62002,-0.52002 5.8,-0.42998 5.94004,-0.52002 C6.07998,-0.609961 6.07998,-0.77998 5.95,-0.97998 C5.82002,-1.17998 2.25996,-6.92002 2.25996,-13.01 C2.25996,-18.66 6.2,-27.9 6.2,-37 C6.2,-44.3 2.69004,-48.12 0.92002,-50"/>
</svg>