<?xml version="1.0" encoding="UTF-8" standalone="no"?>
<svg width="1000px" height="220px" viewBox="150 600 2700 500" xmlns="http://www.w3.org/2000/svg" xmlns:xlink="http://www.w3.org/1999/xlink" version="1.2" baseProfile="tiny">
 xmlns="http://www.w3.org/2000/svg" xmlns:xlink="http://www.w3.org/1999/xlink" version="1.2" baseProfile="tiny">
<title>exercises_scores (9)</title>
<desc>Generated by MuseScore 3.6.0</desc>
<polyline class="StaffLines" fill="none" stroke="#000000" stroke-width="2.75" stroke-linejoin="bevel" points="247.099,659.598 2764.63,659.598"/>
<polyline class="StaffLines" fill="none" stroke="#000000" stroke-width="2.75" stroke-linejoin="bevel" points="247.099,684.6 2764.63,684.6"/>
<polyline class="StaffLines" fill="none" stroke="#000000" stroke-width="2.75" stroke-linejoin="bevel" points="247.099,709.602 2764.63,709.602"/>
<polyline class="StaffLines" fill="none" stroke="#000000" stroke-width="2.75" stroke-linejoin="bevel" points="247.099,734.603 2764.63,734.603"/>
<polyline class="StaffLines" fill="none" stroke="#000000" stroke-width="2.75" stroke-linejoin="bevel" points="247.099,759.605 2764.63,759.605"/>
<polyline class="StaffLines" fill="none" stroke="#000000" stroke-width="2.75" stroke-linejoin="bevel" points="247.099,922.115 2764.63,922.115"/>
<polyline class="StaffLines" fill="none" stroke="#000000" stroke-width="2.75" stroke-linejoin="bevel" points="247.099,947.117 2764.63,947.117"/>
<polyline class="StaffLines" fill="none" stroke="#000000" stroke-width="2.75" stroke-linejoin="bevel" points="247.099,972.118 2764.63,972.118"/>
<polyline class="StaffLines" fill="none" stroke="#000000" stroke-width="2.75" stroke-linejoin="bevel" points="247.099,997.12 2764.63,997.12"/>
<polyline class="StaffLines" fill="none" stroke="#000000" stroke-width="2.75" stroke-linejoin="bevel" points="247.099,1022.12 2764.63,1022.12"/>
<path class="Text" d="M242.312,216.2 L240.092,216.2 L237.692,219.8 C234.812,217.1 231.032,215.66 226.772,215.66 C218.852,215.66 213.632,220.64 213.632,228.2 C213.632,234.74 216.872,237.98 225.692,240.26 L231.392,241.7 C235.832,242.84 236.252,242.96 237.512,243.92 C239.312,245.3 240.272,247.28 240.272,249.62 C240.272,252.02 239.372,254 237.572,255.68 C235.592,257.36 233.612,258.02 230.312,258.02 C225.872,258.02 222.692,256.64 219.872,253.52 C217.352,250.76 216.092,247.88 215.192,243.26 L212.612,243.26 L212.852,260.36 L215.192,260.36 L217.892,256.28 C221.912,259.58 225.212,260.78 230.492,260.78 C239.312,260.78 244.952,255.62 244.952,247.58 C244.952,243.8 243.752,240.68 241.352,238.4 C239.732,236.84 237.392,235.82 232.592,234.62 L226.172,233 C220.832,231.62 218.312,229.28 218.312,225.62 C218.312,221.42 221.732,218.54 226.832,218.54 C231.032,218.54 234.452,220.34 236.852,223.76 C238.592,226.22 239.732,228.74 240.452,231.8 L243.032,231.8 L242.312,216.2 M271.162,251.06 C269.242,255.38 267.202,257.12 264.082,257.12 C259.282,257.12 256.282,252.74 256.282,245.72 C256.282,238.4 259.222,233.6 263.662,233.6 C265.462,233.6 267.022,234.44 267.022,235.4 C267.022,235.58 266.962,235.76 266.662,236.12 C265.702,237.26 265.462,237.86 265.462,238.88 C265.462,240.86 266.962,242.24 269.062,242.24 C271.222,242.24 272.722,240.56 272.722,238.16 C272.722,234.08 268.702,231.02 263.362,231.02 C255.562,231.02 249.982,237.38 249.982,246.38 C249.982,254.9 255.082,260.78 262.522,260.78 C267.862,260.78 270.922,258.32 273.502,251.96 L271.162,251.06 M301.75,240.56 C301.75,236.78 301.09,234.86 299.35,233.42 C297.37,231.8 294.43,231.02 290.59,231.02 C283.81,231.02 278.89,234.2 278.89,238.58 C278.89,240.8 280.27,242.24 282.37,242.24 C284.29,242.24 285.61,240.98 285.61,239.18 C285.61,238.4 285.31,237.56 284.71,236.72 C284.35,236.3 284.29,236.18 284.29,235.88 C284.29,234.68 286.69,233.6 289.57,233.6 C291.49,233.6 293.59,234.2 294.55,235.1 C295.69,236.06 296.11,237.5 296.11,240.2 L296.11,242.54 C289.87,243.62 287.89,244.1 284.95,245.24 C279.73,247.16 277.27,249.92 277.27,253.76 C277.27,258.08 280.63,260.78 285.97,260.78 C290.11,260.78 293.83,259.1 296.41,256.04 C297.37,259.1 298.87,260.3 301.69,260.3 C304.39,260.3 307.21,258.56 307.21,256.82 C307.21,256.4 306.97,256.1 306.61,256.1 C306.37,256.1 306.13,256.16 305.71,256.34 C304.87,256.7 304.51,256.76 304.03,256.76 C302.35,256.76 301.75,255.68 301.75,252.62 L301.75,240.56 M296.11,247.88 C296.11,251.48 295.93,252.32 294.91,253.88 C293.41,256.1 290.71,257.6 288.07,257.6 C285.31,257.6 283.33,255.62 283.33,252.92 C283.33,250.4 284.59,248.6 287.23,247.34 C289.09,246.5 291.43,245.9 296.11,245.12 L296.11,247.88 M320.229,215.66 L309.129,216.32 L309.129,218.9 L312.069,218.9 C314.289,218.96 314.589,219.32 314.589,221.9 L314.589,252.5 L314.589,255.32 C314.529,256.22 314.469,256.58 314.229,256.88 C313.809,257.42 312.669,257.66 310.089,257.72 L309.669,257.72 L309.669,259.88 L325.209,259.88 L325.209,257.72 L324.789,257.72 C320.769,257.6 320.229,257.3 320.229,255.14 L320.229,252.5 L320.229,215.66 M354.78,246.38 C354.84,237.38 349.74,231.02 342.42,231.02 C334.74,231.02 328.98,237.68 328.98,246.68 C328.98,255.14 334.44,260.78 342.54,260.78 C348.3,260.78 352.32,257.96 354.78,252.26 L352.68,251.12 C350.22,255.74 347.7,257.54 343.68,257.54 C340.62,257.54 338.4,256.28 336.84,253.58 C335.76,251.78 335.28,249.68 335.34,246.38 L354.78,246.38 M335.4,243.8 C335.4,241.94 335.64,240.62 336.24,238.94 C337.5,235.34 339.42,233.6 342.36,233.6 C345.96,233.6 348.36,236.78 348.36,241.64 C348.36,243.32 347.82,243.8 345.9,243.8 L335.4,243.8 M366.601,253.22 C364.501,253.22 362.821,254.9 362.821,256.94 C362.821,259.04 364.501,260.72 366.541,260.72 C368.641,260.72 370.321,259.04 370.321,256.94 C370.321,254.9 368.641,253.22 366.601,253.22 M366.601,231.5 C364.501,231.5 362.821,233.18 362.821,235.28 C362.821,237.32 364.501,239 366.541,239 C368.641,239 370.321,237.32 370.321,235.22 C370.321,233.18 368.641,231.5 366.601,231.5 M430.005,216.14 L427.725,216.14 L425.385,219.74 C421.485,216.68 418.845,215.66 414.465,215.66 C409.725,215.66 406.005,216.98 402.225,220.04 C396.285,224.84 393.525,230.9 393.525,239 C393.525,245.12 395.265,250.22 398.805,254.12 C402.525,258.32 408.045,260.78 413.805,260.78 C418.845,260.78 422.385,259.22 426.285,255.32 L428.505,260.72 L431.025,260.72 L431.025,247.52 C431.025,244.46 431.025,244.34 431.385,243.8 C431.925,243.14 433.005,242.96 436.425,242.96 L437.325,242.96 L437.325,240.14 L418.245,240.14 L418.245,242.96 L419.385,242.96 C424.425,242.96 424.845,243.26 424.845,246.62 C424.845,249.2 424.425,251.54 423.645,252.98 C422.145,255.92 418.305,257.96 414.405,257.96 C410.505,257.96 406.665,255.98 404.625,252.98 C402.405,249.62 401.445,245.42 401.445,239 C401.445,225.62 405.885,218.48 414.225,218.48 C421.065,218.48 425.805,223.4 428.265,233 L430.845,233 L430.005,216.14 M457.597,242.18 C457.117,239.06 455.269,236.18 451.189,236.18 C447.109,236.18 444.955,238.622 444.559,239.096 L444.829,213.71 C444.829,213.706 444.829,213.701 444.829,213.698 C444.829,213.092 444.337,212.6 443.731,212.6 L443.731,212.6 L442.795,212.6 C442.542,212.601 442.193,212.746 442.015,212.924 C441.839,213.098 441.696,213.441 441.696,213.689 C441.696,213.695 441.696,213.704 441.697,213.71 L442.123,261.314 C442.129,261.913 442.621,262.4 443.22,262.4 L443.221,262.4 C443.414,262.399 443.699,262.308 443.857,262.196 C444.169,262.046 449.245,259.55 453.553,254.702 C457.231,250.568 458.197,245.72 457.597,242.18 M452.167,245.324 C452.161,246.482 451.873,250.166 449.869,253.166 C448.495,255.224 445.861,257.396 444.349,258.554 L444.517,243.104 C444.697,242.36 445.891,240.086 449.071,240.098 C452.545,240.11 452.167,244.166 452.167,245.324 M490.408,231.92 L479.728,232.58 L479.728,235.16 L482.188,235.16 C484.468,235.22 484.768,235.58 484.768,238.16 L484.768,252.5 L484.768,254.84 L484.768,255.32 C484.708,256.22 484.648,256.58 484.408,256.88 C483.988,257.42 482.848,257.66 480.268,257.72 L480.028,257.72 L480.028,259.88 L495.148,259.88 L495.148,257.72 L494.908,257.72 C490.948,257.6 490.408,257.3 490.408,255.08 L490.408,252.5 L490.408,243.98 C490.408,238.64 493.348,234.68 497.248,234.68 C500.668,234.68 502.408,237.14 502.408,242 L502.408,252.5 L502.408,255.38 C502.348,256.16 502.288,256.58 501.988,256.88 C501.628,257.42 500.428,257.66 497.848,257.72 L497.608,257.72 L497.608,259.88 L512.788,259.88 L512.788,257.72 L512.548,257.72 C508.588,257.6 508.048,257.3 508.048,255.14 L508.048,252.5 L508.048,244.52 C508.048,238.52 510.748,234.68 514.948,234.68 C518.368,234.68 520.048,237.26 520.048,242.66 L520.048,252.5 L520.048,255.32 C519.988,256.16 519.928,256.58 519.628,256.88 C519.268,257.42 518.068,257.66 515.488,257.72 L515.248,257.72 L515.248,259.88 L530.428,259.88 L530.428,257.72 L530.188,257.72 C526.228,257.6 525.688,257.3 525.688,255.08 L525.688,252.5 L525.688,241.46 C525.688,237.74 525.328,236.48 523.768,234.44 C522.028,232.22 519.568,231.02 516.688,231.02 C512.788,231.02 509.908,232.88 507.328,237.02 C506.308,233.42 503.068,231.02 499.048,231.02 C495.388,231.02 492.748,232.76 490.408,236.54 L490.408,231.92 M558.797,240.56 C558.797,236.78 558.137,234.86 556.397,233.42 C554.417,231.8 551.477,231.02 547.637,231.02 C540.857,231.02 535.937,234.2 535.937,238.58 C535.937,240.8 537.317,242.24 539.417,242.24 C541.337,242.24 542.657,240.98 542.657,239.18 C542.657,238.4 542.357,237.56 541.757,236.72 C541.397,236.3 541.337,236.18 541.337,235.88 C541.337,234.68 543.737,233.6 546.617,233.6 C548.537,233.6 550.637,234.2 551.597,235.1 C552.737,236.06 553.157,237.5 553.157,240.2 L553.157,242.54 C546.917,243.62 544.937,244.1 541.997,245.24 C536.777,247.16 534.317,249.92 534.317,253.76 C534.317,258.08 537.677,260.78 543.017,260.78 C547.157,260.78 550.877,259.1 553.457,256.04 C554.417,259.1 555.917,260.3 558.737,260.3 C561.437,260.3 564.257,258.56 564.257,256.82 C564.257,256.4 564.017,256.1 563.657,256.1 C563.417,256.1 563.177,256.16 562.757,256.34 C561.917,256.7 561.557,256.76 561.077,256.76 C559.397,256.76 558.797,255.68 558.797,252.62 L558.797,240.56 M553.157,247.88 C553.157,251.48 552.977,252.32 551.957,253.88 C550.457,256.1 547.757,257.6 545.117,257.6 C542.357,257.6 540.377,255.62 540.377,252.92 C540.377,250.4 541.637,248.6 544.277,247.34 C546.137,246.5 548.477,245.9 553.157,245.12 L553.157,247.88 M575.722,231.92 L564.022,232.58 L564.022,235.16 L567.502,235.16 C569.782,235.22 570.082,235.58 570.082,238.16 L570.082,258.5 C570.082,263.36 569.782,265.64 568.942,267.38 C568.342,268.58 566.962,269.48 565.642,269.48 C564.802,269.48 564.142,269.12 564.142,268.7 C564.142,268.46 564.202,268.34 564.442,267.74 C564.742,267.14 564.862,266.72 564.862,266.3 C564.862,264.8 563.422,263.48 561.742,263.48 C559.822,263.48 558.382,264.98 558.382,267.08 C558.382,270.02 561.082,272 565.102,272 C568.462,272 571.522,270.56 573.262,268.1 C575.122,265.46 575.722,262.4 575.722,255.62 L575.722,231.92 M572.902,216.98 C570.982,216.98 569.422,218.54 569.422,220.46 C569.422,222.38 570.982,223.94 572.842,223.94 C574.822,223.94 576.382,222.38 576.382,220.46 C576.382,218.54 574.822,216.98 572.902,216.98 M596.172,231.02 C588.792,231.02 583.092,237.56 583.092,245.96 C583.092,254.18 588.852,260.78 596.052,260.78 C603.252,260.78 609.012,254.18 609.012,245.9 C609.012,237.68 603.252,231.02 596.172,231.02 M596.172,233.6 C600.372,233.6 602.712,237.98 602.712,245.9 C602.712,253.88 600.372,258.2 596.052,258.2 C591.732,258.2 589.392,253.88 589.392,245.96 C589.392,237.8 591.672,233.6 596.172,233.6 M622.932,231.92 L612.312,232.58 L612.312,235.16 L614.772,235.16 C617.052,235.22 617.352,235.58 617.352,238.16 L617.352,252.5 L617.352,255.32 C617.292,256.22 617.232,256.58 616.992,256.88 C616.572,257.42 615.372,257.66 612.792,257.72 L612.552,257.72 L612.552,259.88 L628.572,259.88 L628.572,257.72 L627.492,257.72 C623.472,257.6 622.932,257.3 622.932,255.14 L622.932,252.5 L622.932,251.9 C622.992,241.82 626.592,234.14 631.272,233.9 C630.432,234.86 630.192,235.46 630.192,236.6 C630.192,238.52 631.572,239.9 633.492,239.9 C635.712,239.9 637.152,238.28 637.152,235.88 C637.152,232.94 635.112,231.02 631.932,231.02 C628.152,231.02 624.912,234.02 622.932,239.36 L622.932,231.92 "/>
<polyline class="BarLine" fill="none" stroke="#000000" stroke-width="4.50" stroke-linejoin="bevel" points="249.349,920.74 249.349,1023.5"/>
<polyline class="BarLine" fill="none" stroke="#000000" stroke-width="4.50" stroke-linejoin="bevel" points="1023.05,920.74 1023.05,1023.5"/>
<polyline class="BarLine" fill="none" stroke="#000000" stroke-width="4.50" stroke-linejoin="bevel" points="1631.24,920.74 1631.24,1023.5"/>
<polyline class="BarLine" fill="none" stroke="#000000" stroke-width="4.50" stroke-linejoin="bevel" points="2220.93,920.74 2220.93,1023.5"/>
<polyline class="BarLine" fill="none" stroke="#000000" stroke-width="4.50" stroke-linejoin="bevel" points="2734.88,920.74 2734.88,1023.5"/>
<polyline class="BarLine" fill="none" stroke="#000000" stroke-width="13.75" stroke-linejoin="bevel" points="2757.75,920.74 2757.75,1023.5"/>
<polyline class="BarLine" fill="none" stroke="#000000" stroke-width="4.50" stroke-linejoin="bevel" points="249.349,658.223 249.349,922.115"/>
<polyline class="BarLine" fill="none" stroke="#000000" stroke-width="4.50" stroke-linejoin="bevel" points="1023.05,658.223 1023.05,922.115"/>
<polyline class="BarLine" fill="none" stroke="#000000" stroke-width="4.50" stroke-linejoin="bevel" points="1631.24,658.223 1631.24,922.115"/>
<polyline class="BarLine" fill="none" stroke="#000000" stroke-width="4.50" stroke-linejoin="bevel" points="2220.93,658.223 2220.93,922.115"/>
<polyline class="BarLine" fill="none" stroke="#000000" stroke-width="4.50" stroke-linejoin="bevel" points="2734.88,658.223 2734.88,922.115"/>
<polyline class="BarLine" fill="none" stroke="#000000" stroke-width="13.75" stroke-linejoin="bevel" points="2757.75,658.223 2757.75,922.115"/>
<path class="Accidental" d="M475.102,926.716 C474.502,922.816 472.102,919.116 467.002,919.116 C462.002,919.116 459.102,922.216 458.602,922.816 L459.002,890.716 C459.002,889.916 458.402,889.316 457.602,889.316 L456.402,889.316 C455.602,889.316 455.002,889.916 455.002,890.716 L455.502,950.816 C455.502,951.616 456.102,952.216 456.902,952.216 C457.102,952.216 457.502,952.116 457.702,952.016 C458.102,951.816 464.602,948.616 470.002,942.516 C473.802,938.216 475.302,933.316 475.302,929.216 C475.302,928.316 475.202,927.516 475.102,926.716 M468.202,930.616 C468.202,932.116 467.802,936.716 465.302,940.516 C463.602,943.116 460.202,945.816 458.302,947.316 L458.602,927.816 C458.802,926.916 460.302,924.016 464.302,924.016 C467.902,924.016 468.202,927.416 468.202,929.516 L468.202,930.616 "/>
<path class="Accidental" d="M609.915,914.215 C609.315,910.315 606.915,906.615 601.815,906.615 C596.815,906.615 593.915,909.715 593.415,910.315 L593.815,878.215 C593.815,877.415 593.215,876.815 592.415,876.815 L591.215,876.815 C590.415,876.815 589.815,877.415 589.815,878.215 L590.315,938.315 C590.315,939.115 590.915,939.715 591.715,939.715 C591.915,939.715 592.315,939.615 592.515,939.515 C592.915,939.315 599.415,936.115 604.815,930.015 C608.615,925.715 610.115,920.815 610.115,916.715 C610.115,915.815 610.015,915.015 609.915,914.215 M603.015,918.115 C603.015,919.615 602.615,924.215 600.115,928.015 C598.415,930.615 595.015,933.315 593.115,934.815 L593.415,915.315 C593.615,914.415 595.115,911.515 599.115,911.515 C602.715,911.515 603.015,914.915 603.015,917.015 L603.015,918.115 "/>
<path class="Accidental" d="M744.728,901.714 C744.128,897.814 741.728,894.114 736.628,894.114 C731.628,894.114 728.728,897.214 728.228,897.814 L728.628,865.714 C728.628,864.914 728.028,864.314 727.228,864.314 L726.028,864.314 C725.228,864.314 724.628,864.914 724.628,865.714 L725.128,925.814 C725.128,926.614 725.728,927.214 726.528,927.214 C726.728,927.214 727.128,927.114 727.328,927.014 C727.728,926.814 734.228,923.614 739.628,917.514 C743.428,913.214 744.928,908.314 744.928,904.214 C744.928,903.314 744.828,902.514 744.728,901.714 M737.828,905.614 C737.828,907.114 737.428,911.714 734.928,915.514 C733.228,918.114 729.828,920.814 727.928,922.314 L728.228,902.814 C728.428,901.914 729.928,899.014 733.928,899.014 C737.528,899.014 737.828,902.414 737.828,904.514 L737.828,905.614 "/>
<path class="Accidental" d="M879.244,891.314 C879.044,891.114 878.744,891.014 878.444,891.014 C878.344,891.014 878.144,891.114 878.044,891.114 L865.444,894.614 L865.444,877.114 L862.644,877.114 L862.644,926.614 C862.644,927.414 863.244,927.914 864.044,927.914 L864.444,927.914 L877.044,924.414 L877.044,941.914 L879.744,941.914 L879.744,892.414 C879.744,892.014 879.544,891.514 879.244,891.314 M877.044,916.114 L865.444,919.314 L865.444,902.914 L877.044,899.614 L877.044,916.114 "/>
<path class="Accidental" d="M1067.15,876.713 C1066.55,872.813 1064.15,869.113 1059.05,869.113 C1054.05,869.113 1051.15,872.213 1050.65,872.813 L1051.05,840.713 C1051.05,839.913 1050.45,839.313 1049.65,839.313 L1048.45,839.313 C1047.65,839.313 1047.05,839.913 1047.05,840.713 L1047.55,900.813 C1047.55,901.613 1048.15,902.213 1048.95,902.213 C1049.15,902.213 1049.55,902.113 1049.75,902.013 C1050.15,901.813 1056.65,898.613 1062.05,892.513 C1065.85,888.213 1067.35,883.313 1067.35,879.213 C1067.35,878.313 1067.25,877.513 1067.15,876.713 M1060.25,880.613 C1060.25,882.113 1059.85,886.713 1057.35,890.513 C1055.65,893.113 1052.25,895.813 1050.35,897.313 L1050.65,877.813 C1050.85,876.913 1052.35,874.013 1056.35,874.013 C1059.95,874.013 1060.25,877.413 1060.25,879.513 L1060.25,880.613 "/>
<path class="Accidental" d="M1203.81,864.212 C1203.21,860.312 1200.81,856.612 1195.71,856.612 C1190.71,856.612 1187.81,859.712 1187.31,860.312 L1187.71,828.212 C1187.71,827.412 1187.11,826.812 1186.31,826.812 L1185.11,826.812 C1184.31,826.812 1183.71,827.412 1183.71,828.212 L1184.21,888.312 C1184.21,889.112 1184.81,889.712 1185.61,889.712 C1185.81,889.712 1186.21,889.612 1186.41,889.512 C1186.81,889.312 1193.31,886.112 1198.71,880.012 C1202.51,875.712 1204.01,870.812 1204.01,866.712 C1204.01,865.812 1203.91,865.012 1203.81,864.212 M1196.91,868.112 C1196.91,869.612 1196.51,874.212 1194.01,878.012 C1192.31,880.612 1188.91,883.312 1187.01,884.812 L1187.31,865.312 C1187.51,864.412 1189.01,861.512 1193.01,861.512 C1196.61,861.512 1196.91,864.912 1196.91,867.012 L1196.91,868.112 "/>
<path class="Accidental" d="M1477.13,839.21 C1476.53,835.31 1474.13,831.61 1469.03,831.61 C1464.03,831.61 1461.13,834.71 1460.63,835.31 L1461.03,803.21 C1461.03,802.41 1460.43,801.81 1459.63,801.81 L1458.43,801.81 C1457.63,801.81 1457.03,802.41 1457.03,803.21 L1457.53,863.31 C1457.53,864.11 1458.13,864.71 1458.93,864.71 C1459.13,864.71 1459.53,864.61 1459.73,864.51 C1460.13,864.31 1466.63,861.11 1472.03,855.01 C1475.83,850.71 1477.33,845.81 1477.33,841.71 C1477.33,840.81 1477.23,840.01 1477.13,839.21 M1470.23,843.11 C1470.23,844.61 1469.83,849.21 1467.33,853.01 C1465.63,855.61 1462.23,858.31 1460.33,859.81 L1460.63,840.31 C1460.83,839.41 1462.33,836.51 1466.33,836.51 C1469.93,836.51 1470.23,839.91 1470.23,842.01 L1470.23,843.11 "/>
<path class="Accidental" d="M1795.53,864.212 C1794.93,860.312 1792.53,856.612 1787.43,856.612 C1782.43,856.612 1779.53,859.712 1779.03,860.312 L1779.43,828.212 C1779.43,827.412 1778.83,826.812 1778.03,826.812 L1776.83,826.812 C1776.03,826.812 1775.43,827.412 1775.43,828.212 L1775.93,888.312 C1775.93,889.112 1776.53,889.712 1777.33,889.712 C1777.53,889.712 1777.93,889.612 1778.13,889.512 C1778.53,889.312 1785.03,886.112 1790.43,880.012 C1794.23,875.712 1795.73,870.812 1795.73,866.712 C1795.73,865.812 1795.63,865.012 1795.53,864.212 M1788.63,868.112 C1788.63,869.612 1788.23,874.212 1785.73,878.012 C1784.03,880.612 1780.63,883.312 1778.73,884.812 L1779.03,865.312 C1779.23,864.412 1780.73,861.512 1784.73,861.512 C1788.33,861.512 1788.63,864.912 1788.63,867.012 L1788.63,868.112 "/>
<path class="Accidental" d="M1931.52,876.713 C1930.92,872.813 1928.52,869.113 1923.42,869.113 C1918.42,869.113 1915.52,872.213 1915.02,872.813 L1915.42,840.713 C1915.42,839.913 1914.82,839.313 1914.02,839.313 L1912.82,839.313 C1912.02,839.313 1911.42,839.913 1911.42,840.713 L1911.92,900.813 C1911.92,901.613 1912.52,902.213 1913.32,902.213 C1913.52,902.213 1913.92,902.113 1914.12,902.013 C1914.52,901.813 1921.02,898.613 1926.42,892.513 C1930.22,888.213 1931.72,883.313 1931.72,879.213 C1931.72,878.313 1931.62,877.513 1931.52,876.713 M1924.62,880.613 C1924.62,882.113 1924.22,886.713 1921.72,890.513 C1920.02,893.113 1916.62,895.813 1914.72,897.313 L1915.02,877.813 C1915.22,876.913 1916.72,874.013 1920.72,874.013 C1924.32,874.013 1924.62,877.413 1924.62,879.513 L1924.62,880.613 "/>
<path class="Accidental" d="M2265.04,901.714 C2264.44,897.814 2262.04,894.114 2256.94,894.114 C2251.94,894.114 2249.04,897.214 2248.54,897.814 L2248.94,865.714 C2248.94,864.914 2248.34,864.314 2247.54,864.314 L2246.34,864.314 C2245.54,864.314 2244.94,864.914 2244.94,865.714 L2245.44,925.814 C2245.44,926.614 2246.04,927.214 2246.84,927.214 C2247.04,927.214 2247.44,927.114 2247.64,927.014 C2248.04,926.814 2254.54,923.614 2259.94,917.514 C2263.74,913.214 2265.24,908.314 2265.24,904.214 C2265.24,903.314 2265.14,902.514 2265.04,901.714 M2258.14,905.614 C2258.14,907.114 2257.74,911.714 2255.24,915.514 C2253.54,918.114 2250.14,920.814 2248.24,922.314 L2248.54,902.814 C2248.74,901.914 2250.24,899.014 2254.24,899.014 C2257.84,899.014 2258.14,902.414 2258.14,904.514 L2258.14,905.614 "/>
<path class="Accidental" d="M2393.13,914.215 C2392.53,910.315 2390.13,906.615 2385.03,906.615 C2380.03,906.615 2377.13,909.715 2376.63,910.315 L2377.03,878.215 C2377.03,877.415 2376.43,876.815 2375.63,876.815 L2374.43,876.815 C2373.63,876.815 2373.03,877.415 2373.03,878.215 L2373.53,938.315 C2373.53,939.115 2374.13,939.715 2374.93,939.715 C2375.13,939.715 2375.53,939.615 2375.73,939.515 C2376.13,939.315 2382.63,936.115 2388.03,930.015 C2391.83,925.715 2393.33,920.815 2393.33,916.715 C2393.33,915.815 2393.23,915.015 2393.13,914.215 M2386.23,918.115 C2386.23,919.615 2385.83,924.215 2383.33,928.015 C2381.63,930.615 2378.23,933.315 2376.33,934.815 L2376.63,915.315 C2376.83,914.415 2378.33,911.515 2382.33,911.515 C2385.93,911.515 2386.23,914.915 2386.23,917.015 L2386.23,918.115 "/>
<path class="Accidental" d="M2521.23,926.716 C2520.63,922.816 2518.23,919.116 2513.13,919.116 C2508.13,919.116 2505.23,922.216 2504.73,922.816 L2505.13,890.716 C2505.13,889.916 2504.53,889.316 2503.73,889.316 L2502.53,889.316 C2501.73,889.316 2501.13,889.916 2501.13,890.716 L2501.63,950.816 C2501.63,951.616 2502.23,952.216 2503.03,952.216 C2503.23,952.216 2503.63,952.116 2503.83,952.016 C2504.23,951.816 2510.73,948.616 2516.13,942.516 C2519.93,938.216 2521.43,933.316 2521.43,929.216 C2521.43,928.316 2521.33,927.516 2521.23,926.716 M2514.33,930.616 C2514.33,932.116 2513.93,936.716 2511.43,940.516 C2509.73,943.116 2506.33,945.816 2504.43,947.316 L2504.73,927.816 C2504.93,926.916 2506.43,924.016 2510.43,924.016 C2514.03,924.016 2514.33,927.416 2514.33,929.516 L2514.33,930.616 "/>
<path class="Accidental" d="M475.102,726.703 C474.502,722.803 472.102,719.103 467.002,719.103 C462.002,719.103 459.102,722.203 458.602,722.803 L459.002,690.703 C459.002,689.903 458.402,689.303 457.602,689.303 L456.402,689.303 C455.602,689.303 455.002,689.903 455.002,690.703 L455.502,750.803 C455.502,751.603 456.102,752.203 456.902,752.203 C457.102,752.203 457.502,752.103 457.702,752.003 C458.102,751.803 464.602,748.603 470.002,742.503 C473.802,738.203 475.302,733.303 475.302,729.203 C475.302,728.303 475.202,727.503 475.102,726.703 M468.202,730.603 C468.202,732.103 467.802,736.703 465.302,740.503 C463.602,743.103 460.202,745.803 458.302,747.303 L458.602,727.803 C458.802,726.903 460.302,724.003 464.302,724.003 C467.902,724.003 468.202,727.403 468.202,729.503 L468.202,730.603 "/>
<path class="Accidental" d="M609.915,714.202 C609.315,710.302 606.915,706.602 601.815,706.602 C596.815,706.602 593.915,709.702 593.415,710.302 L593.815,678.202 C593.815,677.402 593.215,676.802 592.415,676.802 L591.215,676.802 C590.415,676.802 589.815,677.402 589.815,678.202 L590.315,738.302 C590.315,739.102 590.915,739.702 591.715,739.702 C591.915,739.702 592.315,739.602 592.515,739.502 C592.915,739.302 599.415,736.102 604.815,730.002 C608.615,725.702 610.115,720.802 610.115,716.702 C610.115,715.802 610.015,715.002 609.915,714.202 M603.015,718.102 C603.015,719.602 602.615,724.202 600.115,728.002 C598.415,730.602 595.015,733.302 593.115,734.802 L593.415,715.302 C593.615,714.402 595.115,711.502 599.115,711.502 C602.715,711.502 603.015,714.902 603.015,717.002 L603.015,718.102 "/>
<path class="Accidental" d="M744.728,701.702 C744.128,697.802 741.728,694.102 736.628,694.102 C731.628,694.102 728.728,697.202 728.228,697.802 L728.628,665.702 C728.628,664.902 728.028,664.302 727.228,664.302 L726.028,664.302 C725.228,664.302 724.628,664.902 724.628,665.702 L725.128,725.802 C725.128,726.602 725.728,727.202 726.528,727.202 C726.728,727.202 727.128,727.102 727.328,727.002 C727.728,726.802 734.228,723.602 739.628,717.502 C743.428,713.202 744.928,708.302 744.928,704.202 C744.928,703.302 744.828,702.502 744.728,701.702 M737.828,705.602 C737.828,707.102 737.428,711.702 734.928,715.502 C733.228,718.102 729.828,720.802 727.928,722.302 L728.228,702.802 C728.428,701.902 729.928,699.002 733.928,699.002 C737.528,699.002 737.828,702.402 737.828,704.502 L737.828,705.602 "/>
<path class="Accidental" d="M879.244,691.302 C879.044,691.102 878.744,691.002 878.444,691.002 C878.344,691.002 878.144,691.102 878.044,691.102 L865.444,694.602 L865.444,677.102 L862.644,677.102 L862.644,726.602 C862.644,727.402 863.244,727.902 864.044,727.902 L864.444,727.902 L877.044,724.402 L877.044,741.902 L879.744,741.902 L879.744,692.402 C879.744,692.002 879.544,691.502 879.244,691.302 M877.044,716.102 L865.444,719.302 L865.444,702.902 L877.044,699.602 L877.044,716.102 "/>
<path class="Accidental" d="M1075.9,676.7 C1075.3,672.8 1072.9,669.1 1067.8,669.1 C1062.8,669.1 1059.9,672.2 1059.4,672.8 L1059.8,640.7 C1059.8,639.9 1059.2,639.3 1058.4,639.3 L1057.2,639.3 C1056.4,639.3 1055.8,639.9 1055.8,640.7 L1056.3,700.8 C1056.3,701.6 1056.9,702.2 1057.7,702.2 C1057.9,702.2 1058.3,702.1 1058.5,702 C1058.9,701.8 1065.4,698.6 1070.8,692.5 C1074.6,688.2 1076.1,683.3 1076.1,679.2 C1076.1,678.3 1076,677.5 1075.9,676.7 M1069,680.6 C1069,682.1 1068.6,686.7 1066.1,690.5 C1064.4,693.1 1061,695.8 1059.1,697.3 L1059.4,677.8 C1059.6,676.9 1061.1,674 1065.1,674 C1068.7,674 1069,677.4 1069,679.5 L1069,680.6 "/>
<path class="Accidental" d="M1212.56,664.199 C1211.96,660.299 1209.56,656.599 1204.46,656.599 C1199.46,656.599 1196.56,659.699 1196.06,660.299 L1196.46,628.199 C1196.46,627.399 1195.86,626.799 1195.06,626.799 L1193.86,626.799 C1193.06,626.799 1192.46,627.399 1192.46,628.199 L1192.96,688.299 C1192.96,689.099 1193.56,689.699 1194.36,689.699 C1194.56,689.699 1194.96,689.599 1195.16,689.499 C1195.56,689.299 1202.06,686.099 1207.46,679.999 C1211.26,675.699 1212.76,670.799 1212.76,666.699 C1212.76,665.799 1212.66,664.999 1212.56,664.199 M1205.66,668.099 C1205.66,669.599 1205.26,674.199 1202.76,677.999 C1201.06,680.599 1197.66,683.299 1195.76,684.799 L1196.06,665.299 C1196.26,664.399 1197.76,661.499 1201.76,661.499 C1205.36,661.499 1205.66,664.899 1205.66,666.999 L1205.66,668.099 "/>
<path class="Accidental" d="M1485.88,639.198 C1485.28,635.298 1482.88,631.598 1477.78,631.598 C1472.78,631.598 1469.88,634.698 1469.38,635.298 L1469.78,603.198 C1469.78,602.398 1469.18,601.798 1468.38,601.798 L1467.18,601.798 C1466.38,601.798 1465.78,602.398 1465.78,603.198 L1466.28,663.298 C1466.28,664.098 1466.88,664.698 1467.68,664.698 C1467.88,664.698 1468.28,664.598 1468.48,664.498 C1468.88,664.298 1475.38,661.098 1480.78,654.998 C1484.58,650.698 1486.08,645.798 1486.08,641.698 C1486.08,640.798 1485.98,639.998 1485.88,639.198 M1478.98,643.098 C1478.98,644.598 1478.58,649.198 1476.08,652.998 C1474.38,655.598 1470.98,658.298 1469.08,659.798 L1469.38,640.298 C1469.58,639.398 1471.08,636.498 1475.08,636.498 C1478.68,636.498 1478.98,639.898 1478.98,641.998 L1478.98,643.098 "/>
<path class="Accidental" d="M1804.28,664.199 C1803.68,660.299 1801.28,656.599 1796.18,656.599 C1791.18,656.599 1788.28,659.699 1787.78,660.299 L1788.18,628.199 C1788.18,627.399 1787.58,626.799 1786.78,626.799 L1785.58,626.799 C1784.78,626.799 1784.18,627.399 1784.18,628.199 L1784.68,688.299 C1784.68,689.099 1785.28,689.699 1786.08,689.699 C1786.28,689.699 1786.68,689.599 1786.88,689.499 C1787.28,689.299 1793.78,686.099 1799.18,679.999 C1802.98,675.699 1804.48,670.799 1804.48,666.699 C1804.48,665.799 1804.38,664.999 1804.28,664.199 M1797.38,668.099 C1797.38,669.599 1796.98,674.199 1794.48,677.999 C1792.78,680.599 1789.38,683.299 1787.48,684.799 L1787.78,665.299 C1787.98,664.399 1789.48,661.499 1793.48,661.499 C1797.08,661.499 1797.38,664.899 1797.38,666.999 L1797.38,668.099 "/>
<path class="Accidental" d="M1940.27,676.7 C1939.67,672.8 1937.27,669.1 1932.17,669.1 C1927.17,669.1 1924.27,672.2 1923.77,672.8 L1924.17,640.7 C1924.17,639.9 1923.57,639.3 1922.77,639.3 L1921.57,639.3 C1920.77,639.3 1920.17,639.9 1920.17,640.7 L1920.67,700.8 C1920.67,701.6 1921.27,702.2 1922.07,702.2 C1922.27,702.2 1922.67,702.1 1922.87,702 C1923.27,701.8 1929.77,698.6 1935.17,692.5 C1938.97,688.2 1940.47,683.3 1940.47,679.2 C1940.47,678.3 1940.37,677.5 1940.27,676.7 M1933.37,680.6 C1933.37,682.1 1932.97,686.7 1930.47,690.5 C1928.77,693.1 1925.37,695.8 1923.47,697.3 L1923.77,677.8 C1923.97,676.9 1925.47,674 1929.47,674 C1933.07,674 1933.37,677.4 1933.37,679.5 L1933.37,680.6 "/>
<path class="Accidental" d="M2265.04,701.702 C2264.44,697.802 2262.04,694.102 2256.94,694.102 C2251.94,694.102 2249.04,697.202 2248.54,697.802 L2248.94,665.702 C2248.94,664.902 2248.34,664.302 2247.54,664.302 L2246.34,664.302 C2245.54,664.302 2244.94,664.902 2244.94,665.702 L2245.44,725.802 C2245.44,726.602 2246.04,727.202 2246.84,727.202 C2247.04,727.202 2247.44,727.102 2247.64,727.002 C2248.04,726.802 2254.54,723.602 2259.94,717.502 C2263.74,713.202 2265.24,708.302 2265.24,704.202 C2265.24,703.302 2265.14,702.502 2265.04,701.702 M2258.14,705.602 C2258.14,707.102 2257.74,711.702 2255.24,715.502 C2253.54,718.102 2250.14,720.802 2248.24,722.302 L2248.54,702.802 C2248.74,701.902 2250.24,699.002 2254.24,699.002 C2257.84,699.002 2258.14,702.402 2258.14,704.502 L2258.14,705.602 "/>
<path class="Accidental" d="M2393.13,714.202 C2392.53,710.302 2390.13,706.602 2385.03,706.602 C2380.03,706.602 2377.13,709.702 2376.63,710.302 L2377.03,678.202 C2377.03,677.402 2376.43,676.802 2375.63,676.802 L2374.43,676.802 C2373.63,676.802 2373.03,677.402 2373.03,678.202 L2373.53,738.302 C2373.53,739.102 2374.13,739.702 2374.93,739.702 C2375.13,739.702 2375.53,739.602 2375.73,739.502 C2376.13,739.302 2382.63,736.102 2388.03,730.002 C2391.83,725.702 2393.33,720.802 2393.33,716.702 C2393.33,715.802 2393.23,715.002 2393.13,714.202 M2386.23,718.102 C2386.23,719.602 2385.83,724.202 2383.33,728.002 C2381.63,730.602 2378.23,733.302 2376.33,734.802 L2376.63,715.302 C2376.83,714.402 2378.33,711.502 2382.33,711.502 C2385.93,711.502 2386.23,714.902 2386.23,717.002 L2386.23,718.102 "/>
<path class="Accidental" d="M2521.23,726.703 C2520.63,722.803 2518.23,719.103 2513.13,719.103 C2508.13,719.103 2505.23,722.203 2504.73,722.803 L2505.13,690.703 C2505.13,689.903 2504.53,689.303 2503.73,689.303 L2502.53,689.303 C2501.73,689.303 2501.13,689.903 2501.13,690.703 L2501.63,750.803 C2501.63,751.603 2502.23,752.203 2503.03,752.203 C2503.23,752.203 2503.63,752.103 2503.83,752.003 C2504.23,751.803 2510.73,748.603 2516.13,742.503 C2519.93,738.203 2521.43,733.303 2521.43,729.203 C2521.43,728.303 2521.33,727.503 2521.23,726.703 M2514.33,730.603 C2514.33,732.103 2513.93,736.703 2511.43,740.503 C2509.73,743.103 2506.33,745.803 2504.43,747.303 L2504.73,727.803 C2504.93,726.903 2506.43,724.003 2510.43,724.003 C2514.03,724.003 2514.33,727.403 2514.33,729.503 L2514.33,730.603 "/>
<polyline class="LedgerLine" fill="none" stroke="#000000" stroke-width="4.00" stroke-linejoin="bevel" points="1073.6,897.113 1123.6,897.113"/>
<polyline class="LedgerLine" fill="none" stroke="#000000" stroke-width="4.00" stroke-linejoin="bevel" points="1210.26,897.113 1260.26,897.113"/>
<polyline class="LedgerLine" fill="none" stroke="#000000" stroke-width="4.00" stroke-linejoin="bevel" points="1210.26,872.112 1260.26,872.112"/>
<polyline class="LedgerLine" fill="none" stroke="#000000" stroke-width="4.00" stroke-linejoin="bevel" points="1346.92,897.113 1396.92,897.113"/>
<polyline class="LedgerLine" fill="none" stroke="#000000" stroke-width="4.00" stroke-linejoin="bevel" points="1346.92,872.112 1396.92,872.112"/>
<polyline class="LedgerLine" fill="none" stroke="#000000" stroke-width="4.00" stroke-linejoin="bevel" points="1483.58,897.113 1533.58,897.113"/>
<polyline class="LedgerLine" fill="none" stroke="#000000" stroke-width="4.00" stroke-linejoin="bevel" points="1483.58,872.112 1533.58,872.112"/>
<polyline class="LedgerLine" fill="none" stroke="#000000" stroke-width="4.00" stroke-linejoin="bevel" points="1483.58,847.11 1533.58,847.11"/>
<polyline class="LedgerLine" fill="none" stroke="#000000" stroke-width="4.00" stroke-linejoin="bevel" points="1665.99,897.113 1715.99,897.113"/>
<polyline class="LedgerLine" fill="none" stroke="#000000" stroke-width="4.00" stroke-linejoin="bevel" points="1665.99,872.112 1715.99,872.112"/>
<polyline class="LedgerLine" fill="none" stroke="#000000" stroke-width="4.00" stroke-linejoin="bevel" points="1801.98,897.113 1851.97,897.113"/>
<polyline class="LedgerLine" fill="none" stroke="#000000" stroke-width="4.00" stroke-linejoin="bevel" points="1801.98,872.112 1851.97,872.112"/>
<polyline class="LedgerLine" fill="none" stroke="#000000" stroke-width="4.00" stroke-linejoin="bevel" points="1937.96,897.113 1987.96,897.113"/>
<polyline class="Stem" fill="none" stroke="#000000" stroke-width="2.75" stroke-linejoin="bevel" points="482.926,938.136 482.926,1022.12"/>
<polyline class="Stem" fill="none" stroke="#000000" stroke-width="2.75" stroke-linejoin="bevel" points="617.739,925.635 617.739,1009.62"/>
<polyline class="Stem" fill="none" stroke="#000000" stroke-width="2.75" stroke-linejoin="bevel" points="752.552,913.134 752.552,997.12"/>
<polyline class="Stem" fill="none" stroke="#000000" stroke-width="2.75" stroke-linejoin="bevel" points="887.364,913.134 887.364,997.12"/>
<polyline class="Stem" fill="none" stroke="#000000" stroke-width="2.75" stroke-linejoin="bevel" points="1083.73,888.133 1083.73,972.118"/>
<polyline class="Stem" fill="none" stroke="#000000" stroke-width="2.75" stroke-linejoin="bevel" points="1220.39,875.632 1220.39,972.118"/>
<polyline class="Stem" fill="none" stroke="#000000" stroke-width="2.75" stroke-linejoin="bevel" points="1357.05,863.131 1357.05,972.118"/>
<polyline class="Stem" fill="none" stroke="#000000" stroke-width="2.75" stroke-linejoin="bevel" points="1493.71,850.631 1493.71,972.118"/>
<polyline class="Stem" fill="none" stroke="#000000" stroke-width="2.75" stroke-linejoin="bevel" points="1676.12,863.131 1676.12,972.118"/>
<polyline class="Stem" fill="none" stroke="#000000" stroke-width="2.75" stroke-linejoin="bevel" points="1812.11,875.632 1812.11,972.118"/>
<polyline class="Stem" fill="none" stroke="#000000" stroke-width="2.75" stroke-linejoin="bevel" points="1948.09,888.133 1948.09,972.118"/>
<polyline class="Stem" fill="none" stroke="#000000" stroke-width="2.75" stroke-linejoin="bevel" points="2084.07,913.134 2084.07,997.12"/>
<polyline class="Stem" fill="none" stroke="#000000" stroke-width="2.75" stroke-linejoin="bevel" points="2272.86,913.134 2272.86,997.12"/>
<polyline class="Stem" fill="none" stroke="#000000" stroke-width="2.75" stroke-linejoin="bevel" points="2400.96,925.635 2400.96,1009.62"/>
<polyline class="Stem" fill="none" stroke="#000000" stroke-width="2.75" stroke-linejoin="bevel" points="2529.05,938.056 2529.05,1022.12"/>
<polyline class="Stem" fill="none" stroke="#000000" stroke-width="2.75" stroke-linejoin="bevel" points="512.67,731.243 512.67,650.223"/>
<polyline class="Stem" fill="none" stroke="#000000" stroke-width="2.75" stroke-linejoin="bevel" points="647.483,718.742 647.483,640.847"/>
<polyline class="Stem" fill="none" stroke="#000000" stroke-width="2.75" stroke-linejoin="bevel" points="752.552,713.122 752.552,787.732"/>
<polyline class="Stem" fill="none" stroke="#000000" stroke-width="2.75" stroke-linejoin="bevel" points="887.364,713.122 887.364,787.732"/>
<polyline class="Stem" fill="none" stroke="#000000" stroke-width="2.75" stroke-linejoin="bevel" points="1083.73,688.12 1083.73,768.98"/>
<polyline class="Stem" fill="none" stroke="#000000" stroke-width="2.75" stroke-linejoin="bevel" points="1220.39,675.62 1220.39,759.605"/>
<polyline class="Stem" fill="none" stroke="#000000" stroke-width="2.75" stroke-linejoin="bevel" points="1357.05,663.119 1357.05,747.104"/>
<polyline class="Stem" fill="none" stroke="#000000" stroke-width="2.75" stroke-linejoin="bevel" points="1493.71,650.618 1493.71,734.603"/>
<polyline class="Stem" fill="none" stroke="#000000" stroke-width="2.75" stroke-linejoin="bevel" points="1676.12,663.119 1676.12,747.104"/>
<polyline class="Stem" fill="none" stroke="#000000" stroke-width="2.75" stroke-linejoin="bevel" points="1812.11,675.62 1812.11,759.605"/>
<polyline class="Stem" fill="none" stroke="#000000" stroke-width="2.75" stroke-linejoin="bevel" points="1948.09,688.12 1948.09,768.98"/>
<polyline class="Stem" fill="none" stroke="#000000" stroke-width="2.75" stroke-linejoin="bevel" points="2084.07,713.122 2084.07,787.732"/>
<polyline class="Stem" fill="none" stroke="#000000" stroke-width="2.75" stroke-linejoin="bevel" points="2272.86,713.122 2272.86,787.732"/>
<polyline class="Stem" fill="none" stroke="#000000" stroke-width="2.75" stroke-linejoin="bevel" points="2430.7,718.742 2430.7,640.847"/>
<polyline class="Stem" fill="none" stroke="#000000" stroke-width="2.75" stroke-linejoin="bevel" points="2558.79,731.163 2558.79,650.223"/>
<path class="Note" d="M513.051,926.416 C511.551,923.716 508.651,922.016 504.751,921.616 C504.151,921.516 503.651,921.516 503.051,921.516 C499.551,921.516 495.751,922.516 492.251,924.416 C485.651,928.016 481.551,933.916 481.551,939.016 C481.551,940.416 481.751,941.716 482.451,942.916 C483.951,945.616 486.951,947.316 490.851,947.716 C491.451,947.816 491.951,947.816 492.551,947.816 C496.051,947.816 499.751,946.816 503.251,944.916 C509.851,941.316 514.051,935.516 514.051,930.416 C514.051,929.016 513.751,927.616 513.051,926.416"/>
<path class="Note" d="M647.864,913.915 C646.364,911.215 643.464,909.515 639.564,909.115 C638.964,909.015 638.464,909.015 637.864,909.015 C634.364,909.015 630.564,910.015 627.064,911.915 C620.464,915.515 616.364,921.415 616.364,926.515 C616.364,927.915 616.564,929.215 617.264,930.415 C618.764,933.115 621.764,934.815 625.664,935.215 C626.264,935.315 626.764,935.315 627.364,935.315 C630.864,935.315 634.564,934.315 638.064,932.415 C644.664,928.815 648.864,923.015 648.864,917.915 C648.864,916.515 648.564,915.115 647.864,913.915"/>
<path class="Note" d="M782.677,901.414 C781.177,898.714 778.277,897.014 774.377,896.614 C773.777,896.514 773.277,896.514 772.677,896.514 C769.177,896.514 765.377,897.514 761.877,899.414 C755.277,903.014 751.177,908.914 751.177,914.014 C751.177,915.414 751.377,916.714 752.077,917.914 C753.577,920.614 756.577,922.314 760.477,922.714 C761.077,922.814 761.577,922.814 762.177,922.814 C765.677,922.814 769.377,921.814 772.877,919.914 C779.477,916.314 783.677,910.514 783.677,905.414 C783.677,904.014 783.377,902.614 782.677,901.414"/>
<path class="Note" d="M917.489,901.414 C915.989,898.714 913.089,897.014 909.189,896.614 C908.589,896.514 908.089,896.514 907.489,896.514 C903.989,896.514 900.189,897.514 896.689,899.414 C890.089,903.014 885.989,908.914 885.989,914.014 C885.989,915.414 886.189,916.714 886.889,917.914 C888.389,920.614 891.389,922.314 895.289,922.714 C895.889,922.814 896.389,922.814 896.989,922.814 C900.489,922.814 904.189,921.814 907.689,919.914 C914.289,916.314 918.489,910.514 918.489,905.414 C918.489,904.014 918.189,902.614 917.489,901.414"/>
<path class="Note" d="M1113.85,876.413 C1112.35,873.713 1109.45,872.013 1105.55,871.613 C1104.95,871.513 1104.45,871.513 1103.85,871.513 C1100.35,871.513 1096.55,872.513 1093.05,874.413 C1086.45,878.013 1082.35,883.913 1082.35,889.013 C1082.35,890.413 1082.55,891.713 1083.25,892.913 C1084.75,895.613 1087.75,897.313 1091.65,897.713 C1092.25,897.813 1092.75,897.813 1093.35,897.813 C1096.85,897.813 1100.55,896.813 1104.05,894.913 C1110.65,891.313 1114.85,885.513 1114.85,880.413 C1114.85,879.013 1114.55,877.613 1113.85,876.413"/>
<path class="Note" d="M1250.51,863.912 C1249.01,861.212 1246.11,859.512 1242.21,859.112 C1241.61,859.012 1241.11,859.012 1240.51,859.012 C1237.01,859.012 1233.21,860.012 1229.71,861.912 C1223.11,865.512 1219.01,871.412 1219.01,876.512 C1219.01,877.912 1219.21,879.212 1219.91,880.412 C1221.41,883.112 1224.41,884.812 1228.31,885.212 C1228.91,885.312 1229.41,885.312 1230.01,885.312 C1233.51,885.312 1237.21,884.312 1240.71,882.412 C1247.31,878.812 1251.51,873.012 1251.51,867.912 C1251.51,866.512 1251.21,865.112 1250.51,863.912"/>
<path class="Note" d="M1387.17,851.411 C1385.67,848.711 1382.77,847.011 1378.87,846.611 C1378.27,846.511 1377.77,846.511 1377.17,846.511 C1373.67,846.511 1369.87,847.511 1366.37,849.411 C1359.77,853.011 1355.67,858.911 1355.67,864.011 C1355.67,865.411 1355.87,866.711 1356.57,867.911 C1358.07,870.611 1361.07,872.311 1364.97,872.711 C1365.57,872.811 1366.07,872.811 1366.67,872.811 C1370.17,872.811 1373.87,871.811 1377.37,869.911 C1383.97,866.311 1388.17,860.511 1388.17,855.411 C1388.17,854.011 1387.87,852.611 1387.17,851.411"/>
<path class="Note" d="M1523.83,838.91 C1522.33,836.21 1519.43,834.51 1515.53,834.11 C1514.93,834.01 1514.43,834.01 1513.83,834.01 C1510.33,834.01 1506.53,835.01 1503.03,836.91 C1496.43,840.51 1492.33,846.41 1492.33,851.51 C1492.33,852.91 1492.53,854.21 1493.23,855.41 C1494.73,858.11 1497.73,859.81 1501.63,860.21 C1502.23,860.31 1502.73,860.31 1503.33,860.31 C1506.83,860.31 1510.53,859.31 1514.03,857.41 C1520.63,853.81 1524.83,848.01 1524.83,842.91 C1524.83,841.51 1524.53,840.11 1523.83,838.91"/>
<path class="Note" d="M1706.25,851.411 C1704.75,848.711 1701.85,847.011 1697.95,846.611 C1697.35,846.511 1696.85,846.511 1696.25,846.511 C1692.75,846.511 1688.95,847.511 1685.45,849.411 C1678.85,853.011 1674.75,858.911 1674.75,864.011 C1674.75,865.411 1674.95,866.711 1675.65,867.911 C1677.15,870.611 1680.15,872.311 1684.05,872.711 C1684.65,872.811 1685.15,872.811 1685.75,872.811 C1689.25,872.811 1692.95,871.811 1696.45,869.911 C1703.05,866.311 1707.25,860.511 1707.25,855.411 C1707.25,854.011 1706.95,852.611 1706.25,851.411"/>
<path class="Note" d="M1842.23,863.912 C1840.73,861.212 1837.83,859.512 1833.93,859.112 C1833.33,859.012 1832.83,859.012 1832.23,859.012 C1828.73,859.012 1824.93,860.012 1821.43,861.912 C1814.83,865.512 1810.73,871.412 1810.73,876.512 C1810.73,877.912 1810.93,879.212 1811.63,880.412 C1813.13,883.112 1816.13,884.812 1820.03,885.212 C1820.63,885.312 1821.13,885.312 1821.73,885.312 C1825.23,885.312 1828.93,884.312 1832.43,882.412 C1839.03,878.812 1843.23,873.012 1843.23,867.912 C1843.23,866.512 1842.93,865.112 1842.23,863.912"/>
<path class="Note" d="M1978.21,876.413 C1976.71,873.713 1973.81,872.013 1969.91,871.613 C1969.31,871.513 1968.81,871.513 1968.21,871.513 C1964.71,871.513 1960.91,872.513 1957.41,874.413 C1950.81,878.013 1946.71,883.913 1946.71,889.013 C1946.71,890.413 1946.91,891.713 1947.61,892.913 C1949.11,895.613 1952.11,897.313 1956.01,897.713 C1956.61,897.813 1957.11,897.813 1957.71,897.813 C1961.21,897.813 1964.91,896.813 1968.41,894.913 C1975.01,891.313 1979.21,885.513 1979.21,880.413 C1979.21,879.013 1978.91,877.613 1978.21,876.413"/>
<path class="Note" d="M2114.2,901.414 C2112.7,898.714 2109.8,897.014 2105.9,896.614 C2105.3,896.514 2104.8,896.514 2104.2,896.514 C2100.7,896.514 2096.9,897.514 2093.4,899.414 C2086.8,903.014 2082.7,908.914 2082.7,914.014 C2082.7,915.414 2082.9,916.714 2083.6,917.914 C2085.1,920.614 2088.1,922.314 2092,922.714 C2092.6,922.814 2093.1,922.814 2093.7,922.814 C2097.2,922.814 2100.9,921.814 2104.4,919.914 C2111,916.314 2115.2,910.514 2115.2,905.414 C2115.2,904.014 2114.9,902.614 2114.2,901.414"/>
<path class="Note" d="M2302.98,901.414 C2301.48,898.714 2298.58,897.014 2294.68,896.614 C2294.08,896.514 2293.58,896.514 2292.98,896.514 C2289.48,896.514 2285.68,897.514 2282.18,899.414 C2275.58,903.014 2271.48,908.914 2271.48,914.014 C2271.48,915.414 2271.68,916.714 2272.38,917.914 C2273.88,920.614 2276.88,922.314 2280.78,922.714 C2281.38,922.814 2281.88,922.814 2282.48,922.814 C2285.98,922.814 2289.68,921.814 2293.18,919.914 C2299.78,916.314 2303.98,910.514 2303.98,905.414 C2303.98,904.014 2303.68,902.614 2302.98,901.414"/>
<path class="Note" d="M2431.08,913.915 C2429.58,911.215 2426.68,909.515 2422.78,909.115 C2422.18,909.015 2421.68,909.015 2421.08,909.015 C2417.58,909.015 2413.78,910.015 2410.28,911.915 C2403.68,915.515 2399.58,921.415 2399.58,926.515 C2399.58,927.915 2399.78,929.215 2400.48,930.415 C2401.98,933.115 2404.98,934.815 2408.88,935.215 C2409.48,935.315 2409.98,935.315 2410.58,935.315 C2414.08,935.315 2417.78,934.315 2421.28,932.415 C2427.88,928.815 2432.08,923.015 2432.08,917.915 C2432.08,916.515 2431.78,915.115 2431.08,913.915"/>
<path class="Note" d="M2559.18,926.416 C2557.68,923.716 2554.78,922.016 2550.88,921.616 C2550.28,921.516 2549.78,921.516 2549.18,921.516 C2545.68,921.516 2541.88,922.516 2538.38,924.416 C2531.78,928.016 2527.68,933.816 2527.68,938.916 C2527.68,940.316 2528.08,941.716 2528.78,942.916 C2530.28,945.716 2533.08,947.316 2536.98,947.716 C2537.58,947.816 2538.08,947.816 2538.68,947.816 C2542.18,947.816 2545.98,946.816 2549.48,944.916 C2556.08,941.316 2560.18,935.416 2560.18,930.316 C2560.18,928.916 2559.88,927.616 2559.18,926.416 M2554.98,932.716 C2553.28,934.516 2550.08,936.816 2546.48,938.916 C2542.88,941.016 2539.18,942.716 2536.88,943.416 C2536.38,943.516 2535.78,943.616 2535.28,943.616 C2533.78,943.616 2532.48,942.916 2531.78,941.816 C2531.48,941.216 2531.28,940.616 2531.28,940.016 C2531.28,938.916 2531.78,937.816 2532.88,936.616 C2534.58,934.816 2537.78,932.416 2541.38,930.316 C2544.98,928.216 2548.68,926.516 2551.08,925.916 L2551.28,925.916 C2551.88,925.716 2552.38,925.616 2552.88,925.616 C2554.28,925.616 2555.38,926.216 2556.08,927.516 C2556.38,928.116 2556.58,928.616 2556.58,929.216 C2556.58,930.516 2555.88,931.816 2554.98,932.716"/>
<path class="Note" d="M513.051,726.403 C511.551,723.703 508.651,722.003 504.751,721.603 C504.151,721.503 503.651,721.503 503.051,721.503 C499.551,721.503 495.751,722.503 492.251,724.403 C485.651,728.003 481.551,733.903 481.551,739.003 C481.551,740.403 481.751,741.703 482.451,742.903 C483.951,745.603 486.951,747.303 490.851,747.703 C491.451,747.803 491.951,747.803 492.551,747.803 C496.051,747.803 499.751,746.803 503.251,744.903 C509.851,741.303 514.051,735.503 514.051,730.403 C514.051,729.003 513.751,727.603 513.051,726.403"/>
<path class="Note" d="M647.864,713.902 C646.364,711.202 643.464,709.502 639.564,709.102 C638.964,709.002 638.464,709.002 637.864,709.002 C634.364,709.002 630.564,710.002 627.064,711.902 C620.464,715.502 616.364,721.402 616.364,726.502 C616.364,727.902 616.564,729.202 617.264,730.402 C618.764,733.102 621.764,734.802 625.664,735.202 C626.264,735.302 626.764,735.302 627.364,735.302 C630.864,735.302 634.564,734.302 638.064,732.402 C644.664,728.802 648.864,723.002 648.864,717.902 C648.864,716.502 648.564,715.102 647.864,713.902"/>
<path class="Note" d="M782.677,701.402 C781.177,698.702 778.277,697.002 774.377,696.602 C773.777,696.502 773.277,696.502 772.677,696.502 C769.177,696.502 765.377,697.502 761.877,699.402 C755.277,703.002 751.177,708.902 751.177,714.002 C751.177,715.402 751.377,716.702 752.077,717.902 C753.577,720.602 756.577,722.302 760.477,722.702 C761.077,722.802 761.577,722.802 762.177,722.802 C765.677,722.802 769.377,721.802 772.877,719.902 C779.477,716.302 783.677,710.502 783.677,705.402 C783.677,704.002 783.377,702.602 782.677,701.402"/>
<path class="Note" d="M917.489,701.402 C915.989,698.702 913.089,697.002 909.189,696.602 C908.589,696.502 908.089,696.502 907.489,696.502 C903.989,696.502 900.189,697.502 896.689,699.402 C890.089,703.002 885.989,708.902 885.989,714.002 C885.989,715.402 886.189,716.702 886.889,717.902 C888.389,720.602 891.389,722.302 895.289,722.702 C895.889,722.802 896.389,722.802 896.989,722.802 C900.489,722.802 904.189,721.802 907.689,719.902 C914.289,716.302 918.489,710.502 918.489,705.402 C918.489,704.002 918.189,702.602 917.489,701.402"/>
<path class="Note" d="M1113.85,676.4 C1112.35,673.7 1109.45,672 1105.55,671.6 C1104.95,671.5 1104.45,671.5 1103.85,671.5 C1100.35,671.5 1096.55,672.5 1093.05,674.4 C1086.45,678 1082.35,683.9 1082.35,689 C1082.35,690.4 1082.55,691.7 1083.25,692.9 C1084.75,695.6 1087.75,697.3 1091.65,697.7 C1092.25,697.8 1092.75,697.8 1093.35,697.8 C1096.85,697.8 1100.55,696.8 1104.05,694.9 C1110.65,691.3 1114.85,685.5 1114.85,680.4 C1114.85,679 1114.55,677.6 1113.85,676.4"/>
<path class="Note" d="M1250.51,663.899 C1249.01,661.199 1246.11,659.499 1242.21,659.099 C1241.61,658.999 1241.11,658.999 1240.51,658.999 C1237.01,658.999 1233.21,659.999 1229.71,661.899 C1223.11,665.499 1219.01,671.399 1219.01,676.499 C1219.01,677.899 1219.21,679.199 1219.91,680.399 C1221.41,683.099 1224.41,684.799 1228.31,685.199 C1228.91,685.299 1229.41,685.299 1230.01,685.299 C1233.51,685.299 1237.21,684.299 1240.71,682.399 C1247.31,678.799 1251.51,672.999 1251.51,667.899 C1251.51,666.499 1251.21,665.099 1250.51,663.899"/>
<path class="Note" d="M1387.17,651.398 C1385.67,648.698 1382.77,646.998 1378.87,646.598 C1378.27,646.498 1377.77,646.498 1377.17,646.498 C1373.67,646.498 1369.87,647.498 1366.37,649.398 C1359.77,652.998 1355.67,658.898 1355.67,663.998 C1355.67,665.398 1355.87,666.698 1356.57,667.898 C1358.07,670.598 1361.07,672.298 1364.97,672.698 C1365.57,672.798 1366.07,672.798 1366.67,672.798 C1370.17,672.798 1373.87,671.798 1377.37,669.898 C1383.97,666.298 1388.17,660.498 1388.17,655.398 C1388.17,653.998 1387.87,652.598 1387.17,651.398"/>
<path class="Note" d="M1523.83,638.898 C1522.33,636.198 1519.43,634.498 1515.53,634.098 C1514.93,633.998 1514.43,633.998 1513.83,633.998 C1510.33,633.998 1506.53,634.998 1503.03,636.898 C1496.43,640.498 1492.33,646.398 1492.33,651.498 C1492.33,652.898 1492.53,654.198 1493.23,655.398 C1494.73,658.098 1497.73,659.798 1501.63,660.198 C1502.23,660.298 1502.73,660.298 1503.33,660.298 C1506.83,660.298 1510.53,659.298 1514.03,657.398 C1520.63,653.798 1524.83,647.998 1524.83,642.898 C1524.83,641.498 1524.53,640.098 1523.83,638.898"/>
<path class="Note" d="M1706.25,651.398 C1704.75,648.698 1701.85,646.998 1697.95,646.598 C1697.35,646.498 1696.85,646.498 1696.25,646.498 C1692.75,646.498 1688.95,647.498 1685.45,649.398 C1678.85,652.998 1674.75,658.898 1674.75,663.998 C1674.75,665.398 1674.95,666.698 1675.65,667.898 C1677.15,670.598 1680.15,672.298 1684.05,672.698 C1684.65,672.798 1685.15,672.798 1685.75,672.798 C1689.25,672.798 1692.95,671.798 1696.45,669.898 C1703.05,666.298 1707.25,660.498 1707.25,655.398 C1707.25,653.998 1706.95,652.598 1706.25,651.398"/>
<path class="Note" d="M1842.23,663.899 C1840.73,661.199 1837.83,659.499 1833.93,659.099 C1833.33,658.999 1832.83,658.999 1832.23,658.999 C1828.73,658.999 1824.93,659.999 1821.43,661.899 C1814.83,665.499 1810.73,671.399 1810.73,676.499 C1810.73,677.899 1810.93,679.199 1811.63,680.399 C1813.13,683.099 1816.13,684.799 1820.03,685.199 C1820.63,685.299 1821.13,685.299 1821.73,685.299 C1825.23,685.299 1828.93,684.299 1832.43,682.399 C1839.03,678.799 1843.23,672.999 1843.23,667.899 C1843.23,666.499 1842.93,665.099 1842.23,663.899"/>
<path class="Note" d="M1978.21,676.4 C1976.71,673.7 1973.81,672 1969.91,671.6 C1969.31,671.5 1968.81,671.5 1968.21,671.5 C1964.71,671.5 1960.91,672.5 1957.41,674.4 C1950.81,678 1946.71,683.9 1946.71,689 C1946.71,690.4 1946.91,691.7 1947.61,692.9 C1949.11,695.6 1952.11,697.3 1956.01,697.7 C1956.61,697.8 1957.11,697.8 1957.71,697.8 C1961.21,697.8 1964.91,696.8 1968.41,694.9 C1975.01,691.3 1979.21,685.5 1979.21,680.4 C1979.21,679 1978.91,677.6 1978.21,676.4"/>
<path class="Note" d="M2114.2,701.402 C2112.7,698.702 2109.8,697.002 2105.9,696.602 C2105.3,696.502 2104.8,696.502 2104.2,696.502 C2100.7,696.502 2096.9,697.502 2093.4,699.402 C2086.8,703.002 2082.7,708.902 2082.7,714.002 C2082.7,715.402 2082.9,716.702 2083.6,717.902 C2085.1,720.602 2088.1,722.302 2092,722.702 C2092.6,722.802 2093.1,722.802 2093.7,722.802 C2097.2,722.802 2100.9,721.802 2104.4,719.902 C2111,716.302 2115.2,710.502 2115.2,705.402 C2115.2,704.002 2114.9,702.602 2114.2,701.402"/>
<path class="Note" d="M2302.98,701.402 C2301.48,698.702 2298.58,697.002 2294.68,696.602 C2294.08,696.502 2293.58,696.502 2292.98,696.502 C2289.48,696.502 2285.68,697.502 2282.18,699.402 C2275.58,703.002 2271.48,708.902 2271.48,714.002 C2271.48,715.402 2271.68,716.702 2272.38,717.902 C2273.88,720.602 2276.88,722.302 2280.78,722.702 C2281.38,722.802 2281.88,722.802 2282.48,722.802 C2285.98,722.802 2289.68,721.802 2293.18,719.902 C2299.78,716.302 2303.98,710.502 2303.98,705.402 C2303.98,704.002 2303.68,702.602 2302.98,701.402"/>
<path class="Note" d="M2431.08,713.902 C2429.58,711.202 2426.68,709.502 2422.78,709.102 C2422.18,709.002 2421.68,709.002 2421.08,709.002 C2417.58,709.002 2413.78,710.002 2410.28,711.902 C2403.68,715.502 2399.58,721.402 2399.58,726.502 C2399.58,727.902 2399.78,729.202 2400.48,730.402 C2401.98,733.102 2404.98,734.802 2408.88,735.202 C2409.48,735.302 2409.98,735.302 2410.58,735.302 C2414.08,735.302 2417.78,734.302 2421.28,732.402 C2427.88,728.802 2432.08,723.002 2432.08,717.902 C2432.08,716.502 2431.78,715.102 2431.08,713.902"/>
<path class="Note" d="M2559.18,726.403 C2557.68,723.703 2554.78,722.003 2550.88,721.603 C2550.28,721.503 2549.78,721.503 2549.18,721.503 C2545.68,721.503 2541.88,722.503 2538.38,724.403 C2531.78,728.003 2527.68,733.803 2527.68,738.903 C2527.68,740.303 2528.08,741.703 2528.78,742.903 C2530.28,745.703 2533.08,747.303 2536.98,747.703 C2537.58,747.803 2538.08,747.803 2538.68,747.803 C2542.18,747.803 2545.98,746.803 2549.48,744.903 C2556.08,741.303 2560.18,735.403 2560.18,730.303 C2560.18,728.903 2559.88,727.603 2559.18,726.403 M2554.98,732.703 C2553.28,734.503 2550.08,736.803 2546.48,738.903 C2542.88,741.003 2539.18,742.703 2536.88,743.403 C2536.38,743.503 2535.78,743.603 2535.28,743.603 C2533.78,743.603 2532.48,742.903 2531.78,741.803 C2531.48,741.203 2531.28,740.603 2531.28,740.003 C2531.28,738.903 2531.78,737.803 2532.88,736.603 C2534.58,734.803 2537.78,732.403 2541.38,730.303 C2544.98,728.203 2548.68,726.503 2551.08,725.903 L2551.28,725.903 C2551.88,725.703 2552.38,725.603 2552.88,725.603 C2554.28,725.603 2555.38,726.203 2556.08,727.503 C2556.38,728.103 2556.58,728.603 2556.58,729.203 C2556.58,730.503 2555.88,731.803 2554.98,732.703"/>
<path class="Clef" d="M297,922.017 C289.4,922.017 283.3,926.417 283.2,926.417 C277.4,930.717 275.1,935.817 274.2,939.317 C273.7,941.117 273.5,942.917 273.5,944.617 C273.5,947.017 273.9,949.217 274.8,951.117 C276,953.817 278.3,955.717 281.3,956.717 C282.5,957.117 283.8,957.317 285.1,957.317 C287.3,957.317 289.6,956.717 291.5,955.617 C294.6,953.917 296.5,950.317 296.5,946.417 C296.5,942.917 294.7,939.717 291.7,937.817 C289.6,936.417 287.6,936.017 285.9,936.017 C284.7,936.017 283.6,936.217 282.7,936.517 C281.7,936.917 280,937.917 279.2,938.617 C279.5,936.717 280.7,933.817 281.8,932.217 C282.9,930.617 285.1,928.617 286.8,927.717 C289.3,926.317 292.5,925.717 296,925.717 C306.2,925.717 311.2,933.917 311.2,950.717 C311.2,960.017 307.7,968.917 304.7,974.817 C301.4,981.417 297,987.717 293.1,991.217 C282.7,1000.72 272.9,1005.22 272.8,1005.22 C272.8,1005.22 271.3,1006.12 271.7,1007.62 C272,1008.62 272.9,1008.82 273.5,1008.82 C273.6,1008.82 273.9,1008.72 274,1008.72 C274.1,1008.72 285.5,1004.02 294.6,996.917 C299.7,993.217 304.3,989.217 308.3,984.917 C311.9,981.017 315,976.817 317.5,972.617 C321.9,965.117 324.4,957.317 324.4,950.617 C324.4,942.317 322.2,935.417 318.1,930.517 C313.4,924.917 306.3,922.017 297,922.017 M328.4,934.717 C328.4,937.517 330.6,939.717 333.2,939.717 C335.8,939.717 338,937.517 338,934.717 C338,931.917 335.8,929.617 333.2,929.617 C330.6,929.617 328.4,931.917 328.4,934.717 M328.4,959.417 C328.4,962.217 330.6,964.517 333.2,964.517 C335.8,964.517 338,962.217 338,959.417 C338,956.617 335.8,954.317 333.2,954.317 C330.6,954.317 328.4,956.617 328.4,959.417"/>
<path class="Clef" d="M335,728.703 C333.8,723.303 331.1,719.403 330.3,718.403 C327.1,714.103 323.1,711.303 318.4,709.903 C316.1,709.203 314,709.003 312,709.003 C311.3,709.003 310.6,709.003 309.9,709.103 C308.9,703.103 307.8,697.203 306.9,691.803 C312.5,685.603 316.2,679.703 318.6,675.303 C322.2,668.603 323.6,663.903 323.7,663.703 C324.9,660.703 325.6,656.903 325.6,652.403 C325.6,649.703 325.3,646.803 324.9,643.803 C323.8,636.703 321.6,630.003 319.1,626.303 C317.8,624.403 316.6,623.303 315.4,623.303 C314.2,623.303 311.7,624.503 308.8,627.303 C306.5,629.503 303.2,633.403 300.6,639.403 C298.3,644.803 297.6,651.703 297.6,657.603 C297.6,659.403 297.7,661.103 297.8,662.703 C298,666.303 298.7,672.103 299.3,675.703 C299.3,675.803 299.6,677.303 300,679.903 L299.3,680.603 C298.3,681.603 297.1,682.703 295.7,684.103 C294.8,685.003 293.9,685.803 292.9,686.803 C284.4,695.003 271.6,707.403 271.6,726.503 C271.6,731.203 272.5,735.603 274.3,739.603 C275.9,743.203 278.2,746.503 281.1,749.403 C288.6,756.803 298.8,760.003 305.9,760.003 L306.5,760.003 C309.4,759.903 312.1,759.603 314.5,759.203 C316.3,768.803 317.5,775.903 317.5,781.203 C317.5,787.703 315.9,791.603 312,794.403 C309.6,796.103 306.7,797.203 303.6,797.303 L302.8,797.303 C301.3,797.303 298.8,796.903 297.3,796.503 C297.3,796.503 297,796.403 297,796.203 C297,796.003 297.4,796.003 297.4,796.003 C299.3,795.603 302.9,794.303 305.3,791.003 C306.4,789.503 307.1,787.203 307.1,784.703 C307.1,783.103 306.8,781.403 306.1,779.903 C305,777.503 302.4,774.503 296.8,774.103 L295.7,774.103 C293.6,774.103 291.8,774.603 290.1,775.603 C288.3,776.703 286.7,778.403 285.7,780.403 C284.6,782.403 284.1,784.603 284.1,786.803 C284.1,789.703 285,792.403 286.8,794.603 C289.8,798.203 294.5,800.503 299.9,801.103 C300.6,801.203 301.7,801.303 302.4,801.303 C306.8,801.303 311.2,800.103 314.8,797.903 C318.5,795.303 320.6,791.303 321.3,785.703 C321.5,784.403 321.5,783.003 321.5,781.503 C321.5,777.603 321,772.903 320,767.103 C319.6,765.003 319.2,762.003 318.5,758.203 C324.3,756.303 328.4,752.603 332.2,746.803 C334.5,742.803 335.6,738.703 335.6,734.403 C335.6,732.503 335.4,730.603 335,728.703 M304.8,650.803 C306.6,645.103 309.3,641.703 311.3,640.003 C313.1,638.503 314.7,637.803 315.6,637.803 C315.7,637.803 315.9,637.903 316,637.903 C316.3,638.003 316.7,638.503 317.1,639.203 C318,641.003 318.9,644.303 318.9,648.003 C318.9,649.903 318.7,651.903 318.1,653.703 C315.9,660.503 311.3,667.803 304.3,675.503 C304.1,674.403 303.9,673.403 303.8,672.403 C303.3,669.203 303,666.003 303,663.103 C303,658.603 303.6,654.503 304.8,650.803 M300.8,754.903 C296.2,753.703 291.7,751.203 287.9,747.703 C286.6,746.503 284.8,744.303 283.3,740.903 C282,737.903 281.3,734.803 281.3,731.403 L281.3,730.703 C281.4,726.003 282.7,721.203 285.2,716.403 C288.1,710.803 292.6,705.303 298.7,700.003 C300.2,698.703 301.6,697.403 302.9,696.103 C303.7,700.403 304.4,705.103 305.3,710.003 C301.4,711.303 296.7,714.303 293.6,720.003 C291.2,724.503 290.5,728.403 290.5,731.603 C290.5,733.103 290.7,734.503 290.9,735.603 C291.8,740.103 294.4,743.803 297.9,745.903 C298.7,746.403 302,748.103 304,748.103 C304.3,748.103 304.6,748.103 304.8,748.003 C305.1,747.903 305.4,747.703 305.5,747.403 C305.6,747.203 305.6,747.003 305.6,746.803 C305.6,746.003 304.8,745.403 303.5,744.603 C302.9,744.203 302.2,743.803 301.5,743.303 C298.9,741.303 297.4,738.203 297.4,734.803 C297.4,733.803 297.6,732.903 297.8,731.903 C298.3,729.903 300,727.103 301.5,725.703 C303.2,724.203 305.2,723.003 307.6,722.403 C309.6,733.603 311.7,744.703 313.3,753.103 C313.4,753.803 313.6,754.503 313.7,755.203 C311.7,755.603 309.7,755.803 307.8,755.803 C305.4,755.803 303.1,755.503 300.8,754.903 M326.5,744.703 C325.3,747.903 322.8,751.903 317.7,754.003 C317.6,753.603 317.6,753.103 317.5,752.703 C316,743.903 314.1,733.003 312.1,721.703 L313.1,721.703 C322.8,721.703 326.7,728.903 327.6,733.503 C327.8,734.403 327.9,735.603 327.9,736.903 C327.9,739.203 327.5,742.003 326.5,744.703"/>
<path class="TimeSig" d="M365.2,960.516 L382,960.516 L382,967.816 L373.9,967.816 C373.1,967.816 372.5,968.416 372.5,969.216 L372.5,971.116 C372.5,971.916 373.1,972.416 373.9,972.416 L403.6,972.416 C404.4,972.416 405,971.916 405,971.116 L405,969.216 C405,968.416 404.4,967.816 403.6,967.816 L394.8,967.816 L394.8,960.516 L403.6,960.516 C404.4,960.516 405,959.916 405,959.116 L405,957.316 C405,956.516 404.4,955.916 403.6,955.916 L394.8,955.916 L394.8,940.216 C394.8,939.716 394.4,939.216 394,939.016 L392.9,938.416 C392.7,938.316 392.4,938.316 392.2,938.316 C391.9,938.316 391.5,938.416 391.3,938.616 L382.4,946.816 C382.2,947.016 382,947.516 382,947.816 L382,955.916 L370.7,955.916 C370.7,955.916 381.6,944.116 393.2,928.616 C394,927.516 393.6,926.516 393.4,926.316 L391.3,924.116 C391.1,923.916 390.6,923.716 390.3,923.716 L375.7,923.716 C375,923.716 374.5,924.316 374.4,924.916 C374.4,924.916 373.9,932.116 371.3,940.116 C368.7,948.116 365.9,952.916 363.3,956.516 C363.3,956.516 362.8,957.516 363.1,958.216 C363.4,958.916 364.1,960.016 364.1,960.016 C364.1,960.016 364.4,960.516 365.2,960.516"/>
<path class="TimeSig" d="M365.2,1009.12 L382,1009.12 L382,1016.42 L373.9,1016.42 C373.1,1016.42 372.5,1017.02 372.5,1017.82 L372.5,1019.72 C372.5,1020.52 373.1,1021.02 373.9,1021.02 L403.6,1021.02 C404.4,1021.02 405,1020.52 405,1019.72 L405,1017.82 C405,1017.02 404.4,1016.42 403.6,1016.42 L394.8,1016.42 L394.8,1009.12 L403.6,1009.12 C404.4,1009.12 405,1008.52 405,1007.72 L405,1005.92 C405,1005.12 404.4,1004.52 403.6,1004.52 L394.8,1004.52 L394.8,988.82 C394.8,988.32 394.4,987.82 394,987.62 L392.9,987.02 C392.7,986.92 392.4,986.92 392.2,986.92 C391.9,986.92 391.5,987.02 391.3,987.22 L382.4,995.42 C382.2,995.62 382,996.12 382,996.42 L382,1004.52 L370.7,1004.52 C370.7,1004.52 381.6,992.72 393.2,977.22 C394,976.12 393.6,975.12 393.4,974.92 L391.3,972.72 C391.1,972.52 390.6,972.32 390.3,972.32 L375.7,972.32 C375,972.32 374.5,972.92 374.4,973.52 C374.4,973.52 373.9,980.72 371.3,988.72 C368.7,996.72 365.9,1001.52 363.3,1005.12 C363.3,1005.12 362.8,1006.12 363.1,1006.82 C363.4,1007.52 364.1,1008.62 364.1,1008.62 C364.1,1008.62 364.4,1009.12 365.2,1009.12"/>
<path class="TimeSig" d="M365.2,697.999 L382,697.999 L382,705.299 L373.9,705.299 C373.1,705.299 372.5,705.899 372.5,706.699 L372.5,708.599 C372.5,709.399 373.1,709.899 373.9,709.899 L403.6,709.899 C404.4,709.899 405,709.399 405,708.599 L405,706.699 C405,705.899 404.4,705.299 403.6,705.299 L394.8,705.299 L394.8,697.999 L403.6,697.999 C404.4,697.999 405,697.399 405,696.599 L405,694.799 C405,693.999 404.4,693.399 403.6,693.399 L394.8,693.399 L394.8,677.699 C394.8,677.199 394.4,676.699 394,676.499 L392.9,675.899 C392.7,675.799 392.4,675.799 392.2,675.799 C391.9,675.799 391.5,675.899 391.3,676.099 L382.4,684.299 C382.2,684.499 382,684.999 382,685.299 L382,693.399 L370.7,693.399 C370.7,693.399 381.6,681.599 393.2,666.099 C394,664.999 393.6,663.999 393.4,663.799 L391.3,661.599 C391.1,661.399 390.6,661.199 390.3,661.199 L375.7,661.199 C375,661.199 374.5,661.799 374.4,662.399 C374.4,662.399 373.9,669.599 371.3,677.599 C368.7,685.599 365.9,690.399 363.3,693.999 C363.3,693.999 362.8,694.999 363.1,695.699 C363.4,696.399 364.1,697.499 364.1,697.499 C364.1,697.499 364.4,697.999 365.2,697.999"/>
<path class="TimeSig" d="M365.2,746.604 L382,746.604 L382,753.904 L373.9,753.904 C373.1,753.904 372.5,754.504 372.5,755.304 L372.5,757.204 C372.5,758.004 373.1,758.504 373.9,758.504 L403.6,758.504 C404.4,758.504 405,758.004 405,757.204 L405,755.304 C405,754.504 404.4,753.904 403.6,753.904 L394.8,753.904 L394.8,746.604 L403.6,746.604 C404.4,746.604 405,746.004 405,745.204 L405,743.404 C405,742.604 404.4,742.004 403.6,742.004 L394.8,742.004 L394.8,726.304 C394.8,725.804 394.4,725.304 394,725.104 L392.9,724.504 C392.7,724.404 392.4,724.404 392.2,724.404 C391.9,724.404 391.5,724.504 391.3,724.704 L382.4,732.904 C382.2,733.104 382,733.604 382,733.904 L382,742.004 L370.7,742.004 C370.7,742.004 381.6,730.204 393.2,714.704 C394,713.604 393.6,712.604 393.4,712.404 L391.3,710.204 C391.1,710.004 390.6,709.804 390.3,709.804 L375.7,709.804 C375,709.804 374.5,710.404 374.4,711.004 C374.4,711.004 373.9,718.204 371.3,726.204 C368.7,734.204 365.9,739.004 363.3,742.604 C363.3,742.604 362.8,743.604 363.1,744.304 C363.4,745.004 364.1,746.104 364.1,746.104 C364.1,746.104 364.4,746.604 365.2,746.604"/>
<path class="Page" d="M229.024,4050.44 C228.484,4055.7 228.214,4057.28 227.404,4059.53 C226.234,4062.86 223.804,4064.79 220.744,4064.79 C219.259,4064.79 218.269,4064.34 218.269,4063.67 C218.269,4063.49 218.359,4063.26 218.539,4062.9 C219.034,4061.87 219.124,4061.55 219.124,4060.92 C219.124,4059.39 217.999,4058.27 216.469,4058.27 C214.759,4058.27 213.409,4059.71 213.409,4061.51 C213.409,4064.48 216.559,4066.73 220.699,4066.73 C224.794,4066.73 228.304,4064.88 230.509,4061.55 C232.714,4058.22 233.929,4053.9 233.929,4049.22 C233.929,4040.18 229.654,4034.37 222.904,4034.37 C217.099,4034.37 212.599,4039.14 212.599,4045.22 C212.599,4050.62 216.334,4054.53 221.509,4054.53 C224.704,4054.53 226.594,4053.5 229.024,4050.44 M223.084,4036.31 C226.414,4036.31 228.619,4039.59 228.619,4044.68 C228.619,4046.52 228.259,4048.19 227.584,4049.22 C226.549,4050.84 224.794,4051.83 222.859,4051.83 C219.439,4051.83 217.504,4049.18 217.504,4044.41 C217.504,4042.25 217.999,4040.13 218.854,4038.74 C219.889,4037.03 221.104,4036.31 223.084,4036.31"/>
<path class="Bracket" transform="matrix(3.62523,0,0,3.62523,214.469,1022.12)" d="M0.92002,-50 C2.69004,-51.88 6.2,-55.8 6.2,-63 C6.2,-72.1 2.25996,-81.32 2.25996,-86.97 C2.25996,-93.06 5.84004,-98.84 5.95,-99 C6.05996,-99.16 6.05,-99.39 5.94004,-99.46 C5.82998,-99.53 5.62002,-99.47 5.49004,-99.32 C5.35996,-99.17 0,-93.75 0,-85.6 C0,-76.75 3.5,-70.58 3.5,-59.07 C3.5,-56.89 2.55996,-53.36 0.1,-50.33 C-0.0799805,-50.17 -0.1,-49.89 0.0599609,-49.7 L0.0700195,-49.69 L0.1,-49.66 C2.55996,-46.63 3.5,-43.1 3.5,-40.92 C3.5,-29.4 0,-23.24 0,-14.39 C0,-6.25 5.35996,-0.8 5.49004,-0.659961 C5.62002,-0.52002 5.8,-0.42998 5.94004,-0.52002 C6.07998,-0.609961 6.07998,-0.77998 5.95,-0.97998 C5.82002,-1.17998 2.25996,-6.92002 2.25996,-13.01 C2.25996,-18.66 6.2,-27.9 6.2,-37 C6.2,-44.3 2.69004,-48.12 0.92002,-50"/>
</svg>