<?xml version="1.0" encoding="UTF-8" standalone="no"?>
<svg width="1000px" height="500px" viewBox="150 650 2700 1000" xmlns="http://www.w3.org/2000/svg" xmlns:xlink="http://www.w3.org/1999/xlink" version="1.2" baseProfile="tiny">
 xmlns="http://www.w3.org/2000/svg" xmlns:xlink="http://www.w3.org/1999/xlink" version="1.2" baseProfile="tiny">
<title>exercises_scores (2)</title>
<desc>Generated by MuseScore 3.6.0</desc>
<polyline class="StaffLines" fill="none" stroke="#000000" stroke-width="2.75" stroke-linejoin="bevel" points="247.099,656.536 2764.63,656.536"/>
<polyline class="StaffLines" fill="none" stroke="#000000" stroke-width="2.75" stroke-linejoin="bevel" points="247.099,681.538 2764.63,681.538"/>
<polyline class="StaffLines" fill="none" stroke="#000000" stroke-width="2.75" stroke-linejoin="bevel" points="247.099,706.539 2764.63,706.539"/>
<polyline class="StaffLines" fill="none" stroke="#000000" stroke-width="2.75" stroke-linejoin="bevel" points="247.099,731.541 2764.63,731.541"/>
<polyline class="StaffLines" fill="none" stroke="#000000" stroke-width="2.75" stroke-linejoin="bevel" points="247.099,756.542 2764.63,756.542"/>
<polyline class="StaffLines" fill="none" stroke="#000000" stroke-width="2.75" stroke-linejoin="bevel" points="247.099,919.053 2764.63,919.053"/>
<polyline class="StaffLines" fill="none" stroke="#000000" stroke-width="2.75" stroke-linejoin="bevel" points="247.099,944.054 2764.63,944.054"/>
<polyline class="StaffLines" fill="none" stroke="#000000" stroke-width="2.75" stroke-linejoin="bevel" points="247.099,969.056 2764.63,969.056"/>
<polyline class="StaffLines" fill="none" stroke="#000000" stroke-width="2.75" stroke-linejoin="bevel" points="247.099,994.057 2764.63,994.057"/>
<polyline class="StaffLines" fill="none" stroke="#000000" stroke-width="2.75" stroke-linejoin="bevel" points="247.099,1019.06 2764.63,1019.06"/>
<polyline class="StaffLines" fill="none" stroke="#000000" stroke-width="2.75" stroke-linejoin="bevel" points="247.099,1269.07 2764.63,1269.07"/>
<polyline class="StaffLines" fill="none" stroke="#000000" stroke-width="2.75" stroke-linejoin="bevel" points="247.099,1294.08 2764.63,1294.08"/>
<polyline class="StaffLines" fill="none" stroke="#000000" stroke-width="2.75" stroke-linejoin="bevel" points="247.099,1319.08 2764.63,1319.08"/>
<polyline class="StaffLines" fill="none" stroke="#000000" stroke-width="2.75" stroke-linejoin="bevel" points="247.099,1344.08 2764.63,1344.08"/>
<polyline class="StaffLines" fill="none" stroke="#000000" stroke-width="2.75" stroke-linejoin="bevel" points="247.099,1369.08 2764.63,1369.08"/>
<polyline class="StaffLines" fill="none" stroke="#000000" stroke-width="2.75" stroke-linejoin="bevel" points="247.099,1531.59 2764.63,1531.59"/>
<polyline class="StaffLines" fill="none" stroke="#000000" stroke-width="2.75" stroke-linejoin="bevel" points="247.099,1556.59 2764.63,1556.59"/>
<polyline class="StaffLines" fill="none" stroke="#000000" stroke-width="2.75" stroke-linejoin="bevel" points="247.099,1581.59 2764.63,1581.59"/>
<polyline class="StaffLines" fill="none" stroke="#000000" stroke-width="2.75" stroke-linejoin="bevel" points="247.099,1606.6 2764.63,1606.6"/>
<polyline class="StaffLines" fill="none" stroke="#000000" stroke-width="2.75" stroke-linejoin="bevel" points="247.099,1631.6 2764.63,1631.6"/>
<path class="Text" d="M242.312,213.137 L240.092,213.137 L237.692,216.737 C234.812,214.037 231.032,212.597 226.772,212.597 C218.852,212.597 213.632,217.577 213.632,225.137 C213.632,231.677 216.872,234.917 225.692,237.197 L231.392,238.637 C235.832,239.777 236.252,239.897 237.512,240.857 C239.312,242.237 240.272,244.217 240.272,246.557 C240.272,248.957 239.372,250.937 237.572,252.617 C235.592,254.297 233.612,254.957 230.312,254.957 C225.872,254.957 222.692,253.577 219.872,250.457 C217.352,247.697 216.092,244.817 215.192,240.197 L212.612,240.197 L212.852,257.297 L215.192,257.297 L217.892,253.217 C221.912,256.517 225.212,257.717 230.492,257.717 C239.312,257.717 244.952,252.557 244.952,244.517 C244.952,240.737 243.752,237.617 241.352,235.337 C239.732,233.777 237.392,232.757 232.592,231.557 L226.172,229.937 C220.832,228.557 218.312,226.217 218.312,222.557 C218.312,218.357 221.732,215.477 226.832,215.477 C231.032,215.477 234.452,217.277 236.852,220.697 C238.592,223.157 239.732,225.677 240.452,228.737 L243.032,228.737 L242.312,213.137 M271.162,247.997 C269.242,252.317 267.202,254.057 264.082,254.057 C259.282,254.057 256.282,249.677 256.282,242.657 C256.282,235.337 259.222,230.537 263.662,230.537 C265.462,230.537 267.022,231.377 267.022,232.337 C267.022,232.517 266.962,232.697 266.662,233.057 C265.702,234.197 265.462,234.797 265.462,235.817 C265.462,237.797 266.962,239.177 269.062,239.177 C271.222,239.177 272.722,237.497 272.722,235.097 C272.722,231.017 268.702,227.957 263.362,227.957 C255.562,227.957 249.982,234.317 249.982,243.317 C249.982,251.837 255.082,257.717 262.522,257.717 C267.862,257.717 270.922,255.257 273.502,248.897 L271.162,247.997 M301.75,237.497 C301.75,233.717 301.09,231.797 299.35,230.357 C297.37,228.737 294.43,227.957 290.59,227.957 C283.81,227.957 278.89,231.137 278.89,235.517 C278.89,237.737 280.27,239.177 282.37,239.177 C284.29,239.177 285.61,237.917 285.61,236.117 C285.61,235.337 285.31,234.497 284.71,233.657 C284.35,233.237 284.29,233.117 284.29,232.817 C284.29,231.617 286.69,230.537 289.57,230.537 C291.49,230.537 293.59,231.137 294.55,232.037 C295.69,232.997 296.11,234.437 296.11,237.137 L296.11,239.477 C289.87,240.557 287.89,241.037 284.95,242.177 C279.73,244.097 277.27,246.857 277.27,250.697 C277.27,255.017 280.63,257.717 285.97,257.717 C290.11,257.717 293.83,256.037 296.41,252.977 C297.37,256.037 298.87,257.237 301.69,257.237 C304.39,257.237 307.21,255.497 307.21,253.757 C307.21,253.337 306.97,253.037 306.61,253.037 C306.37,253.037 306.13,253.097 305.71,253.277 C304.87,253.637 304.51,253.697 304.03,253.697 C302.35,253.697 301.75,252.617 301.75,249.557 L301.75,237.497 M296.11,244.817 C296.11,248.417 295.93,249.257 294.91,250.817 C293.41,253.037 290.71,254.537 288.07,254.537 C285.31,254.537 283.33,252.557 283.33,249.857 C283.33,247.337 284.59,245.537 287.23,244.277 C289.09,243.437 291.43,242.837 296.11,242.057 L296.11,244.817 M320.229,212.597 L309.129,213.257 L309.129,215.837 L312.069,215.837 C314.289,215.897 314.589,216.257 314.589,218.837 L314.589,249.437 L314.589,252.257 C314.529,253.157 314.469,253.517 314.229,253.817 C313.809,254.357 312.669,254.597 310.089,254.657 L309.669,254.657 L309.669,256.817 L325.209,256.817 L325.209,254.657 L324.789,254.657 C320.769,254.537 320.229,254.237 320.229,252.077 L320.229,249.437 L320.229,212.597 M354.78,243.317 C354.84,234.317 349.74,227.957 342.42,227.957 C334.74,227.957 328.98,234.617 328.98,243.617 C328.98,252.077 334.44,257.717 342.54,257.717 C348.3,257.717 352.32,254.897 354.78,249.197 L352.68,248.057 C350.22,252.677 347.7,254.477 343.68,254.477 C340.62,254.477 338.4,253.217 336.84,250.517 C335.76,248.717 335.28,246.617 335.34,243.317 L354.78,243.317 M335.4,240.737 C335.4,238.877 335.64,237.557 336.24,235.877 C337.5,232.277 339.42,230.537 342.36,230.537 C345.96,230.537 348.36,233.717 348.36,238.577 C348.36,240.257 347.82,240.737 345.9,240.737 L335.4,240.737 M366.601,250.157 C364.501,250.157 362.821,251.837 362.821,253.877 C362.821,255.977 364.501,257.657 366.541,257.657 C368.641,257.657 370.321,255.977 370.321,253.877 C370.321,251.837 368.641,250.157 366.601,250.157 M366.601,228.437 C364.501,228.437 362.821,230.117 362.821,232.217 C362.821,234.257 364.501,235.937 366.541,235.937 C368.641,235.937 370.321,234.257 370.321,232.157 C370.321,230.117 368.641,228.437 366.601,228.437 M430.005,213.077 L427.725,213.077 L425.385,216.677 C421.485,213.617 418.845,212.597 414.465,212.597 C409.725,212.597 406.005,213.917 402.225,216.977 C396.285,221.777 393.525,227.837 393.525,235.937 C393.525,242.057 395.265,247.157 398.805,251.057 C402.525,255.257 408.045,257.717 413.805,257.717 C418.845,257.717 422.385,256.157 426.285,252.257 L428.505,257.657 L431.025,257.657 L431.025,244.457 C431.025,241.397 431.025,241.277 431.385,240.737 C431.925,240.077 433.005,239.897 436.425,239.897 L437.325,239.897 L437.325,237.077 L418.245,237.077 L418.245,239.897 L419.385,239.897 C424.425,239.897 424.845,240.197 424.845,243.557 C424.845,246.137 424.425,248.477 423.645,249.917 C422.145,252.857 418.305,254.897 414.405,254.897 C410.505,254.897 406.665,252.917 404.625,249.917 C402.405,246.557 401.445,242.357 401.445,235.937 C401.445,222.557 405.885,215.417 414.225,215.417 C421.065,215.417 425.805,220.337 428.265,229.937 L430.845,229.937 L430.005,213.077 M466.408,228.857 L455.728,229.517 L455.728,232.097 L458.188,232.097 C460.468,232.157 460.768,232.517 460.768,235.097 L460.768,249.437 L460.768,251.777 L460.768,252.257 C460.708,253.157 460.648,253.517 460.408,253.817 C459.988,254.357 458.848,254.597 456.268,254.657 L456.028,254.657 L456.028,256.817 L471.148,256.817 L471.148,254.657 L470.908,254.657 C466.948,254.537 466.408,254.237 466.408,252.017 L466.408,249.437 L466.408,240.917 C466.408,235.577 469.348,231.617 473.248,231.617 C476.668,231.617 478.408,234.077 478.408,238.937 L478.408,249.437 L478.408,252.317 C478.348,253.097 478.288,253.517 477.988,253.817 C477.628,254.357 476.428,254.597 473.848,254.657 L473.608,254.657 L473.608,256.817 L488.788,256.817 L488.788,254.657 L488.548,254.657 C484.588,254.537 484.048,254.237 484.048,252.077 L484.048,249.437 L484.048,241.457 C484.048,235.457 486.748,231.617 490.948,231.617 C494.368,231.617 496.048,234.197 496.048,239.597 L496.048,249.437 L496.048,252.257 C495.988,253.097 495.928,253.517 495.628,253.817 C495.268,254.357 494.068,254.597 491.488,254.657 L491.248,254.657 L491.248,256.817 L506.428,256.817 L506.428,254.657 L506.188,254.657 C502.228,254.537 501.688,254.237 501.688,252.017 L501.688,249.437 L501.688,238.397 C501.688,234.677 501.328,233.417 499.768,231.377 C498.028,229.157 495.568,227.957 492.688,227.957 C488.788,227.957 485.908,229.817 483.328,233.957 C482.308,230.357 479.068,227.957 475.048,227.957 C471.388,227.957 468.748,229.697 466.408,233.477 L466.408,228.857 M534.797,237.497 C534.797,233.717 534.137,231.797 532.397,230.357 C530.417,228.737 527.477,227.957 523.637,227.957 C516.857,227.957 511.937,231.137 511.937,235.517 C511.937,237.737 513.317,239.177 515.417,239.177 C517.337,239.177 518.657,237.917 518.657,236.117 C518.657,235.337 518.357,234.497 517.757,233.657 C517.397,233.237 517.337,233.117 517.337,232.817 C517.337,231.617 519.737,230.537 522.617,230.537 C524.537,230.537 526.637,231.137 527.597,232.037 C528.737,232.997 529.157,234.437 529.157,237.137 L529.157,239.477 C522.917,240.557 520.937,241.037 517.997,242.177 C512.777,244.097 510.317,246.857 510.317,250.697 C510.317,255.017 513.677,257.717 519.017,257.717 C523.157,257.717 526.877,256.037 529.457,252.977 C530.417,256.037 531.917,257.237 534.737,257.237 C537.437,257.237 540.257,255.497 540.257,253.757 C540.257,253.337 540.017,253.037 539.657,253.037 C539.417,253.037 539.177,253.097 538.757,253.277 C537.917,253.637 537.557,253.697 537.077,253.697 C535.397,253.697 534.797,252.617 534.797,249.557 L534.797,237.497 M529.157,244.817 C529.157,248.417 528.977,249.257 527.957,250.817 C526.457,253.037 523.757,254.537 521.117,254.537 C518.357,254.537 516.377,252.557 516.377,249.857 C516.377,247.337 517.637,245.537 520.277,244.277 C522.137,243.437 524.477,242.837 529.157,242.057 L529.157,244.817 M551.722,228.857 L540.022,229.517 L540.022,232.097 L543.502,232.097 C545.782,232.157 546.082,232.517 546.082,235.097 L546.082,255.437 C546.082,260.297 545.782,262.577 544.942,264.317 C544.342,265.517 542.962,266.417 541.642,266.417 C540.802,266.417 540.142,266.057 540.142,265.637 C540.142,265.397 540.202,265.277 540.442,264.677 C540.742,264.077 540.862,263.657 540.862,263.237 C540.862,261.737 539.422,260.417 537.742,260.417 C535.822,260.417 534.382,261.917 534.382,264.017 C534.382,266.957 537.082,268.937 541.102,268.937 C544.462,268.937 547.522,267.497 549.262,265.037 C551.122,262.397 551.722,259.337 551.722,252.557 L551.722,228.857 M548.902,213.917 C546.982,213.917 545.422,215.477 545.422,217.397 C545.422,219.317 546.982,220.877 548.842,220.877 C550.822,220.877 552.382,219.317 552.382,217.397 C552.382,215.477 550.822,213.917 548.902,213.917 M572.172,227.957 C564.792,227.957 559.092,234.497 559.092,242.897 C559.092,251.117 564.852,257.717 572.052,257.717 C579.252,257.717 585.012,251.117 585.012,242.837 C585.012,234.617 579.252,227.957 572.172,227.957 M572.172,230.537 C576.372,230.537 578.712,234.917 578.712,242.837 C578.712,250.817 576.372,255.137 572.052,255.137 C567.732,255.137 565.392,250.817 565.392,242.897 C565.392,234.737 567.672,230.537 572.172,230.537 M598.932,228.857 L588.312,229.517 L588.312,232.097 L590.772,232.097 C593.052,232.157 593.352,232.517 593.352,235.097 L593.352,249.437 L593.352,252.257 C593.292,253.157 593.232,253.517 592.992,253.817 C592.572,254.357 591.372,254.597 588.792,254.657 L588.552,254.657 L588.552,256.817 L604.572,256.817 L604.572,254.657 L603.492,254.657 C599.472,254.537 598.932,254.237 598.932,252.077 L598.932,249.437 L598.932,248.837 C598.992,238.757 602.592,231.077 607.272,230.837 C606.432,231.797 606.192,232.397 606.192,233.537 C606.192,235.457 607.572,236.837 609.492,236.837 C611.712,236.837 613.152,235.217 613.152,232.817 C613.152,229.877 611.112,227.957 607.932,227.957 C604.152,227.957 600.912,230.957 598.932,236.297 L598.932,228.857 "/>
<polyline class="BarLine" fill="none" stroke="#000000" stroke-width="4.50" stroke-linejoin="bevel" points="249.349,917.677 249.349,1020.43"/>
<polyline class="BarLine" fill="none" stroke="#000000" stroke-width="4.50" stroke-linejoin="bevel" points="1024.98,917.677 1024.98,1020.43"/>
<polyline class="BarLine" fill="none" stroke="#000000" stroke-width="4.50" stroke-linejoin="bevel" points="1601.34,917.677 1601.34,1020.43"/>
<polyline class="BarLine" fill="none" stroke="#000000" stroke-width="4.50" stroke-linejoin="bevel" points="2165.82,917.677 2165.82,1020.43"/>
<polyline class="BarLine" fill="none" stroke="#000000" stroke-width="4.50" stroke-linejoin="bevel" points="2762.38,917.677 2762.38,1020.43"/>
<polyline class="BarLine" fill="none" stroke="#000000" stroke-width="4.50" stroke-linejoin="bevel" points="249.349,1530.22 249.349,1632.97"/>
<polyline class="BarLine" fill="none" stroke="#000000" stroke-width="4.50" stroke-linejoin="bevel" points="959.707,1530.22 959.707,1632.97"/>
<polyline class="BarLine" fill="none" stroke="#000000" stroke-width="4.50" stroke-linejoin="bevel" points="1623.92,1530.22 1623.92,1632.97"/>
<polyline class="BarLine" fill="none" stroke="#000000" stroke-width="4.50" stroke-linejoin="bevel" points="2210.63,1530.22 2210.63,1632.97"/>
<polyline class="BarLine" fill="none" stroke="#000000" stroke-width="4.50" stroke-linejoin="bevel" points="2734.88,1530.22 2734.88,1632.97"/>
<polyline class="BarLine" fill="none" stroke="#000000" stroke-width="13.75" stroke-linejoin="bevel" points="2757.76,1530.22 2757.76,1632.97"/>
<polyline class="BarLine" fill="none" stroke="#000000" stroke-width="4.50" stroke-linejoin="bevel" points="249.349,655.161 249.349,919.053"/>
<polyline class="BarLine" fill="none" stroke="#000000" stroke-width="4.50" stroke-linejoin="bevel" points="1024.98,655.161 1024.98,919.053"/>
<polyline class="BarLine" fill="none" stroke="#000000" stroke-width="4.50" stroke-linejoin="bevel" points="1601.34,655.161 1601.34,919.053"/>
<polyline class="BarLine" fill="none" stroke="#000000" stroke-width="4.50" stroke-linejoin="bevel" points="2165.82,655.161 2165.82,919.053"/>
<polyline class="BarLine" fill="none" stroke="#000000" stroke-width="4.50" stroke-linejoin="bevel" points="2762.38,655.161 2762.38,919.053"/>
<polyline class="BarLine" fill="none" stroke="#000000" stroke-width="4.50" stroke-linejoin="bevel" points="249.349,1267.7 249.349,1531.59"/>
<polyline class="BarLine" fill="none" stroke="#000000" stroke-width="4.50" stroke-linejoin="bevel" points="959.707,1267.7 959.707,1531.59"/>
<polyline class="BarLine" fill="none" stroke="#000000" stroke-width="4.50" stroke-linejoin="bevel" points="1623.92,1267.7 1623.92,1531.59"/>
<polyline class="BarLine" fill="none" stroke="#000000" stroke-width="4.50" stroke-linejoin="bevel" points="2210.63,1267.7 2210.63,1531.59"/>
<polyline class="BarLine" fill="none" stroke="#000000" stroke-width="4.50" stroke-linejoin="bevel" points="2734.88,1267.7 2734.88,1531.59"/>
<polyline class="BarLine" fill="none" stroke="#000000" stroke-width="13.75" stroke-linejoin="bevel" points="2757.76,1267.7 2757.76,1531.59"/>
<path class="Accidental" d="M1322.06,933.454 C1322.66,933.354 1323.16,932.654 1323.16,932.054 L1323.16,926.154 C1323.16,925.354 1322.56,924.754 1321.76,924.754 L1321.56,924.754 L1318.26,925.454 L1318.26,910.554 L1315.46,910.554 L1315.46,926.054 L1306.56,927.854 L1306.56,913.754 L1303.76,913.754 L1303.76,928.454 L1299.86,929.254 C1299.26,929.354 1298.76,930.054 1298.76,930.654 L1298.76,930.854 L1298.76,936.654 L1298.76,936.454 C1298.76,937.254 1299.36,937.854 1300.16,937.854 L1300.46,937.854 L1303.76,937.154 L1303.76,953.654 L1299.86,954.454 C1299.26,954.554 1298.76,955.254 1298.76,955.854 L1298.76,961.654 C1298.76,962.454 1299.36,963.054 1300.16,963.054 L1300.46,963.054 L1303.76,962.354 L1303.76,977.254 L1306.56,977.254 L1306.56,961.754 L1315.46,959.954 L1315.46,974.054 L1318.26,974.054 L1318.26,959.354 L1322.06,958.654 C1322.66,958.554 1323.16,957.854 1323.16,957.254 L1323.16,951.354 C1323.16,950.554 1322.56,949.954 1321.76,949.954 L1321.56,949.954 L1318.26,950.654 L1318.26,934.154 L1322.06,933.454 M1306.56,953.154 L1306.56,936.554 L1315.46,934.754 L1315.46,951.254 L1306.56,953.154 "/>
<path class="Accidental" d="M2394.66,995.958 C2395.26,995.858 2395.76,995.158 2395.76,994.558 L2395.76,988.658 C2395.76,987.858 2395.16,987.258 2394.36,987.258 L2394.16,987.258 L2390.86,987.958 L2390.86,973.058 L2388.06,973.058 L2388.06,988.558 L2379.16,990.358 L2379.16,976.258 L2376.36,976.258 L2376.36,990.958 L2372.46,991.758 C2371.86,991.858 2371.36,992.558 2371.36,993.158 L2371.36,993.358 L2371.36,999.158 L2371.36,998.958 C2371.36,999.758 2371.96,1000.36 2372.76,1000.36 L2373.06,1000.36 L2376.36,999.658 L2376.36,1016.16 L2372.46,1016.96 C2371.86,1017.06 2371.36,1017.76 2371.36,1018.36 L2371.36,1024.16 C2371.36,1024.96 2371.96,1025.56 2372.76,1025.56 L2373.06,1025.56 L2376.36,1024.86 L2376.36,1039.76 L2379.16,1039.76 L2379.16,1024.26 L2388.06,1022.46 L2388.06,1036.56 L2390.86,1036.56 L2390.86,1021.86 L2394.66,1021.16 C2395.26,1021.06 2395.76,1020.36 2395.76,1019.76 L2395.76,1013.86 C2395.76,1013.06 2395.16,1012.46 2394.36,1012.46 L2394.16,1012.46 L2390.86,1013.16 L2390.86,996.658 L2394.66,995.958 M2379.16,1015.66 L2379.16,999.058 L2388.06,997.258 L2388.06,1013.76 L2379.16,1015.66 "/>
<path class="Accidental" d="M421.4,1608.5 C422,1608.4 422.5,1607.7 422.5,1607.1 L422.5,1601.2 C422.5,1600.4 421.9,1599.8 421.1,1599.8 L420.9,1599.8 L417.6,1600.5 L417.6,1585.6 L414.8,1585.6 L414.8,1601.1 L405.9,1602.9 L405.9,1588.8 L403.1,1588.8 L403.1,1603.5 L399.2,1604.3 C398.6,1604.4 398.1,1605.1 398.1,1605.7 L398.1,1605.9 L398.1,1611.7 L398.1,1611.5 C398.1,1612.3 398.7,1612.9 399.5,1612.9 L399.8,1612.9 L403.1,1612.2 L403.1,1628.7 L399.2,1629.5 C398.6,1629.6 398.1,1630.3 398.1,1630.9 L398.1,1636.7 C398.1,1637.5 398.7,1638.1 399.5,1638.1 L399.8,1638.1 L403.1,1637.4 L403.1,1652.3 L405.9,1652.3 L405.9,1636.8 L414.8,1635 L414.8,1649.1 L417.6,1649.1 L417.6,1634.4 L421.4,1633.7 C422,1633.6 422.5,1632.9 422.5,1632.3 L422.5,1626.4 C422.5,1625.6 421.9,1625 421.1,1625 L420.9,1625 L417.6,1625.7 L417.6,1609.2 L421.4,1608.5 M405.9,1628.2 L405.9,1611.6 L414.8,1609.8 L414.8,1626.3 L405.9,1628.2 "/>
<path class="Accidental" d="M1473.92,1545.99 C1474.52,1545.89 1475.02,1545.19 1475.02,1544.59 L1475.02,1538.69 C1475.02,1537.89 1474.42,1537.29 1473.62,1537.29 L1473.42,1537.29 L1470.12,1537.99 L1470.12,1523.09 L1467.32,1523.09 L1467.32,1538.59 L1458.42,1540.39 L1458.42,1526.29 L1455.62,1526.29 L1455.62,1540.99 L1451.72,1541.79 C1451.12,1541.89 1450.62,1542.59 1450.62,1543.19 L1450.62,1543.39 L1450.62,1549.19 L1450.62,1548.99 C1450.62,1549.79 1451.22,1550.39 1452.02,1550.39 L1452.32,1550.39 L1455.62,1549.69 L1455.62,1566.19 L1451.72,1566.99 C1451.12,1567.09 1450.62,1567.79 1450.62,1568.39 L1450.62,1574.19 C1450.62,1574.99 1451.22,1575.59 1452.02,1575.59 L1452.32,1575.59 L1455.62,1574.89 L1455.62,1589.79 L1458.42,1589.79 L1458.42,1574.29 L1467.32,1572.49 L1467.32,1586.59 L1470.12,1586.59 L1470.12,1571.89 L1473.92,1571.19 C1474.52,1571.09 1475.02,1570.39 1475.02,1569.79 L1475.02,1563.89 C1475.02,1563.09 1474.42,1562.49 1473.62,1562.49 L1473.42,1562.49 L1470.12,1563.19 L1470.12,1546.69 L1473.92,1545.99 M1458.42,1565.69 L1458.42,1549.09 L1467.32,1547.29 L1467.32,1563.79 L1458.42,1565.69 "/>
<path class="Accidental" d="M1322.06,733.442 C1322.66,733.342 1323.16,732.642 1323.16,732.042 L1323.16,726.142 C1323.16,725.342 1322.56,724.742 1321.76,724.742 L1321.56,724.742 L1318.26,725.442 L1318.26,710.542 L1315.46,710.542 L1315.46,726.042 L1306.56,727.842 L1306.56,713.742 L1303.76,713.742 L1303.76,728.442 L1299.86,729.242 C1299.26,729.342 1298.76,730.042 1298.76,730.642 L1298.76,730.842 L1298.76,736.642 L1298.76,736.442 C1298.76,737.242 1299.36,737.842 1300.16,737.842 L1300.46,737.842 L1303.76,737.142 L1303.76,753.642 L1299.86,754.442 C1299.26,754.542 1298.76,755.242 1298.76,755.842 L1298.76,761.642 C1298.76,762.442 1299.36,763.042 1300.16,763.042 L1300.46,763.042 L1303.76,762.342 L1303.76,777.242 L1306.56,777.242 L1306.56,761.742 L1315.46,759.942 L1315.46,774.042 L1318.26,774.042 L1318.26,759.342 L1322.06,758.642 C1322.66,758.542 1323.16,757.842 1323.16,757.242 L1323.16,751.342 C1323.16,750.542 1322.56,749.942 1321.76,749.942 L1321.56,749.942 L1318.26,750.642 L1318.26,734.142 L1322.06,733.442 M1306.56,753.142 L1306.56,736.542 L1315.46,734.742 L1315.46,751.242 L1306.56,753.142 "/>
<path class="Accidental" d="M2394.66,645.936 C2395.26,645.836 2395.76,645.136 2395.76,644.536 L2395.76,638.636 C2395.76,637.836 2395.16,637.236 2394.36,637.236 L2394.16,637.236 L2390.86,637.936 L2390.86,623.036 L2388.06,623.036 L2388.06,638.536 L2379.16,640.336 L2379.16,626.236 L2376.36,626.236 L2376.36,640.936 L2372.46,641.736 C2371.86,641.836 2371.36,642.536 2371.36,643.136 L2371.36,643.336 L2371.36,649.136 L2371.36,648.936 C2371.36,649.736 2371.96,650.336 2372.76,650.336 L2373.06,650.336 L2376.36,649.636 L2376.36,666.136 L2372.46,666.936 C2371.86,667.036 2371.36,667.736 2371.36,668.336 L2371.36,674.136 C2371.36,674.936 2371.96,675.536 2372.76,675.536 L2373.06,675.536 L2376.36,674.836 L2376.36,689.736 L2379.16,689.736 L2379.16,674.236 L2388.06,672.436 L2388.06,686.536 L2390.86,686.536 L2390.86,671.836 L2394.66,671.136 C2395.26,671.036 2395.76,670.336 2395.76,669.736 L2395.76,663.836 C2395.76,663.036 2395.16,662.436 2394.36,662.436 L2394.16,662.436 L2390.86,663.136 L2390.86,646.636 L2394.66,645.936 M2379.16,665.636 L2379.16,649.036 L2388.06,647.236 L2388.06,663.736 L2379.16,665.636 "/>
<path class="Accidental" d="M421.4,1258.47 C422,1258.37 422.5,1257.67 422.5,1257.07 L422.5,1251.17 C422.5,1250.37 421.9,1249.77 421.1,1249.77 L420.9,1249.77 L417.6,1250.47 L417.6,1235.57 L414.8,1235.57 L414.8,1251.07 L405.9,1252.87 L405.9,1238.77 L403.1,1238.77 L403.1,1253.47 L399.2,1254.27 C398.6,1254.37 398.1,1255.07 398.1,1255.67 L398.1,1255.87 L398.1,1261.67 L398.1,1261.47 C398.1,1262.27 398.7,1262.87 399.5,1262.87 L399.8,1262.87 L403.1,1262.17 L403.1,1278.67 L399.2,1279.47 C398.6,1279.57 398.1,1280.27 398.1,1280.87 L398.1,1286.67 C398.1,1287.47 398.7,1288.07 399.5,1288.07 L399.8,1288.07 L403.1,1287.37 L403.1,1302.27 L405.9,1302.27 L405.9,1286.77 L414.8,1284.97 L414.8,1299.07 L417.6,1299.07 L417.6,1284.37 L421.4,1283.67 C422,1283.57 422.5,1282.87 422.5,1282.27 L422.5,1276.37 C422.5,1275.57 421.9,1274.97 421.1,1274.97 L420.9,1274.97 L417.6,1275.67 L417.6,1259.17 L421.4,1258.47 M405.9,1278.17 L405.9,1261.57 L414.8,1259.77 L414.8,1276.27 L405.9,1278.17 "/>
<path class="Accidental" d="M1473.92,1345.98 C1474.52,1345.88 1475.02,1345.18 1475.02,1344.58 L1475.02,1338.68 C1475.02,1337.88 1474.42,1337.28 1473.62,1337.28 L1473.42,1337.28 L1470.12,1337.98 L1470.12,1323.08 L1467.32,1323.08 L1467.32,1338.58 L1458.42,1340.38 L1458.42,1326.28 L1455.62,1326.28 L1455.62,1340.98 L1451.72,1341.78 C1451.12,1341.88 1450.62,1342.58 1450.62,1343.18 L1450.62,1343.38 L1450.62,1349.18 L1450.62,1348.98 C1450.62,1349.78 1451.22,1350.38 1452.02,1350.38 L1452.32,1350.38 L1455.62,1349.68 L1455.62,1366.18 L1451.72,1366.98 C1451.12,1367.08 1450.62,1367.78 1450.62,1368.38 L1450.62,1374.18 C1450.62,1374.98 1451.22,1375.58 1452.02,1375.58 L1452.32,1375.58 L1455.62,1374.88 L1455.62,1389.78 L1458.42,1389.78 L1458.42,1374.28 L1467.32,1372.48 L1467.32,1386.58 L1470.12,1386.58 L1470.12,1371.88 L1473.92,1371.18 C1474.52,1371.08 1475.02,1370.38 1475.02,1369.78 L1475.02,1363.88 C1475.02,1363.08 1474.42,1362.48 1473.62,1362.48 L1473.42,1362.48 L1470.12,1363.18 L1470.12,1346.68 L1473.92,1345.98 M1458.42,1365.68 L1458.42,1349.08 L1467.32,1347.28 L1467.32,1363.78 L1458.42,1365.68 "/>
<polyline class="LedgerLine" fill="none" stroke="#000000" stroke-width="4.00" stroke-linejoin="bevel" points="1891.08,894.051 1941.08,894.051"/>
<polyline class="LedgerLine" fill="none" stroke="#000000" stroke-width="4.00" stroke-linejoin="bevel" points="2022.95,894.051 2072.94,894.051"/>
<polyline class="LedgerLine" fill="none" stroke="#000000" stroke-width="4.00" stroke-linejoin="bevel" points="816.529,1656.6 866.525,1656.6"/>
<polyline class="LedgerLine" fill="none" stroke="#000000" stroke-width="4.00" stroke-linejoin="bevel" points="455.002,806.545 504.998,806.545"/>
<polyline class="LedgerLine" fill="none" stroke="#000000" stroke-width="4.00" stroke-linejoin="bevel" points="455.002,781.544 504.998,781.544"/>
<polyline class="LedgerLine" fill="none" stroke="#000000" stroke-width="4.00" stroke-linejoin="bevel" points="594.747,806.545 644.742,806.545"/>
<polyline class="LedgerLine" fill="none" stroke="#000000" stroke-width="4.00" stroke-linejoin="bevel" points="594.747,781.544 644.742,781.544"/>
<polyline class="LedgerLine" fill="none" stroke="#000000" stroke-width="4.00" stroke-linejoin="bevel" points="734.492,781.544 784.487,781.544"/>
<polyline class="LedgerLine" fill="none" stroke="#000000" stroke-width="4.00" stroke-linejoin="bevel" points="874.236,781.544 924.232,781.544"/>
<polyline class="LedgerLine" fill="none" stroke="#000000" stroke-width="4.00" stroke-linejoin="bevel" points="1924.77,1394.08 1974.77,1394.08"/>
<polyline class="LedgerLine" fill="none" stroke="#000000" stroke-width="4.00" stroke-linejoin="bevel" points="2062.2,1394.08 2112.19,1394.08"/>
<polyline class="LedgerLine" fill="none" stroke="#000000" stroke-width="4.00" stroke-linejoin="bevel" points="2245.38,1419.08 2295.37,1419.08"/>
<polyline class="LedgerLine" fill="none" stroke="#000000" stroke-width="4.00" stroke-linejoin="bevel" points="2245.38,1394.08 2295.37,1394.08"/>
<polyline class="LedgerLine" fill="none" stroke="#000000" stroke-width="4.00" stroke-linejoin="bevel" points="2407.53,1419.08 2457.52,1419.08"/>
<polyline class="LedgerLine" fill="none" stroke="#000000" stroke-width="4.00" stroke-linejoin="bevel" points="2407.53,1394.08 2457.52,1394.08"/>
<polyline class="Stem" fill="none" stroke="#000000" stroke-width="2.75" stroke-linejoin="bevel" points="494.872,1015.7 494.872,931.553"/>
<polyline class="Stem" fill="none" stroke="#000000" stroke-width="2.75" stroke-linejoin="bevel" points="634.617,1003.2 634.617,919.053"/>
<polyline class="Stem" fill="none" stroke="#000000" stroke-width="2.75" stroke-linejoin="bevel" points="774.361,990.697 774.361,909.677"/>
<polyline class="Stem" fill="none" stroke="#000000" stroke-width="2.75" stroke-linejoin="bevel" points="914.106,978.196 914.106,900.301"/>
<polyline class="Stem" fill="none" stroke="#000000" stroke-width="2.75" stroke-linejoin="bevel" points="1061.11,972.576 1061.11,1047.19"/>
<polyline class="Stem" fill="none" stroke="#000000" stroke-width="2.75" stroke-linejoin="bevel" points="1195.95,960.075 1195.95,1037.81"/>
<polyline class="Stem" fill="none" stroke="#000000" stroke-width="2.75" stroke-linejoin="bevel" points="1330.79,947.574 1330.79,1028.43"/>
<polyline class="Stem" fill="none" stroke="#000000" stroke-width="2.75" stroke-linejoin="bevel" points="1465.63,935.074 1465.63,1019.06"/>
<polyline class="Stem" fill="none" stroke="#000000" stroke-width="2.75" stroke-linejoin="bevel" points="1637.47,922.573 1637.47,1006.56"/>
<polyline class="Stem" fill="none" stroke="#000000" stroke-width="2.75" stroke-linejoin="bevel" points="1769.34,910.072 1769.34,994.057"/>
<polyline class="Stem" fill="none" stroke="#000000" stroke-width="2.75" stroke-linejoin="bevel" points="1901.21,897.571 1901.21,981.556"/>
<polyline class="Stem" fill="none" stroke="#000000" stroke-width="2.75" stroke-linejoin="bevel" points="2033.07,885.07 2033.07,969.056"/>
<polyline class="Stem" fill="none" stroke="#000000" stroke-width="2.75" stroke-linejoin="bevel" points="2295.39,1015.7 2295.39,931.553"/>
<polyline class="Stem" fill="none" stroke="#000000" stroke-width="2.75" stroke-linejoin="bevel" points="2433.13,1003.2 2433.13,919.053"/>
<polyline class="Stem" fill="none" stroke="#000000" stroke-width="2.75" stroke-linejoin="bevel" points="2570.87,990.617 2570.87,909.677"/>
<polyline class="Stem" fill="none" stroke="#000000" stroke-width="2.75" stroke-linejoin="bevel" points="459.87,1615.74 459.87,1531.59"/>
<polyline class="Stem" fill="none" stroke="#000000" stroke-width="2.75" stroke-linejoin="bevel" points="592.046,1628.24 592.046,1544.09"/>
<polyline class="Stem" fill="none" stroke="#000000" stroke-width="2.75" stroke-linejoin="bevel" points="724.223,1640.74 724.223,1556.59"/>
<polyline class="Stem" fill="none" stroke="#000000" stroke-width="2.75" stroke-linejoin="bevel" points="856.399,1653.24 856.399,1569.09"/>
<polyline class="Stem" fill="none" stroke="#000000" stroke-width="2.75" stroke-linejoin="bevel" points="1061.46,1522.61 1061.46,1606.6"/>
<polyline class="Stem" fill="none" stroke="#000000" stroke-width="2.75" stroke-linejoin="bevel" points="1201.85,1535.11 1201.85,1619.1"/>
<polyline class="Stem" fill="none" stroke="#000000" stroke-width="2.75" stroke-linejoin="bevel" points="1342.25,1547.61 1342.25,1631.6"/>
<polyline class="Stem" fill="none" stroke="#000000" stroke-width="2.75" stroke-linejoin="bevel" points="1482.65,1560.11 1482.65,1640.97"/>
<polyline class="Stem" fill="none" stroke="#000000" stroke-width="2.75" stroke-linejoin="bevel" points="1660.04,1572.61 1660.04,1650.35"/>
<polyline class="Stem" fill="none" stroke="#000000" stroke-width="2.75" stroke-linejoin="bevel" points="1797.47,1585.11 1797.47,1659.72"/>
<polyline class="Stem" fill="none" stroke="#000000" stroke-width="2.75" stroke-linejoin="bevel" points="1964.64,1590.73 1964.64,1512.84"/>
<polyline class="Stem" fill="none" stroke="#000000" stroke-width="2.75" stroke-linejoin="bevel" points="2102.07,1603.24 2102.07,1522.22"/>
<polyline class="Stem" fill="none" stroke="#000000" stroke-width="2.75" stroke-linejoin="bevel" points="2285.25,1615.74 2285.25,1531.59"/>
<polyline class="Stem" fill="none" stroke="#000000" stroke-width="2.75" stroke-linejoin="bevel" points="2447.4,1628.16 2447.4,1544.09"/>
<polyline class="Stem" fill="none" stroke="#000000" stroke-width="2.75" stroke-linejoin="bevel" points="494.872,815.686 494.872,706.539"/>
<polyline class="Stem" fill="none" stroke="#000000" stroke-width="2.75" stroke-linejoin="bevel" points="634.617,803.185 634.617,706.539"/>
<polyline class="Stem" fill="none" stroke="#000000" stroke-width="2.75" stroke-linejoin="bevel" points="774.361,790.684 774.361,706.539"/>
<polyline class="Stem" fill="none" stroke="#000000" stroke-width="2.75" stroke-linejoin="bevel" points="914.106,778.184 914.106,694.038"/>
<polyline class="Stem" fill="none" stroke="#000000" stroke-width="2.75" stroke-linejoin="bevel" points="1090.85,765.683 1090.85,681.538"/>
<polyline class="Stem" fill="none" stroke="#000000" stroke-width="2.75" stroke-linejoin="bevel" points="1225.69,753.182 1225.69,669.037"/>
<polyline class="Stem" fill="none" stroke="#000000" stroke-width="2.75" stroke-linejoin="bevel" points="1360.53,740.681 1360.53,656.536"/>
<polyline class="Stem" fill="none" stroke="#000000" stroke-width="2.75" stroke-linejoin="bevel" points="1495.37,728.181 1495.37,647.16"/>
<polyline class="Stem" fill="none" stroke="#000000" stroke-width="2.75" stroke-linejoin="bevel" points="1667.21,715.68 1667.21,637.785"/>
<polyline class="Stem" fill="none" stroke="#000000" stroke-width="2.75" stroke-linejoin="bevel" points="1769.34,710.059 1769.34,784.669"/>
<polyline class="Stem" fill="none" stroke="#000000" stroke-width="2.75" stroke-linejoin="bevel" points="1901.21,697.559 1901.21,775.293"/>
<polyline class="Stem" fill="none" stroke="#000000" stroke-width="2.75" stroke-linejoin="bevel" points="2033.07,685.058 2033.07,765.918"/>
<polyline class="Stem" fill="none" stroke="#000000" stroke-width="2.75" stroke-linejoin="bevel" points="2265.64,672.557 2265.64,756.542"/>
<polyline class="Stem" fill="none" stroke="#000000" stroke-width="2.75" stroke-linejoin="bevel" points="2403.38,660.056 2403.38,744.042"/>
<polyline class="Stem" fill="none" stroke="#000000" stroke-width="2.75" stroke-linejoin="bevel" points="2541.12,647.475 2541.12,731.541"/>
<polyline class="Stem" fill="none" stroke="#000000" stroke-width="2.75" stroke-linejoin="bevel" points="430.126,1272.59 430.126,1356.58"/>
<polyline class="Stem" fill="none" stroke="#000000" stroke-width="2.75" stroke-linejoin="bevel" points="562.302,1285.1 562.302,1369.08"/>
<polyline class="Stem" fill="none" stroke="#000000" stroke-width="2.75" stroke-linejoin="bevel" points="694.479,1297.6 694.479,1378.46"/>
<polyline class="Stem" fill="none" stroke="#000000" stroke-width="2.75" stroke-linejoin="bevel" points="826.655,1310.1 826.655,1387.83"/>
<polyline class="Stem" fill="none" stroke="#000000" stroke-width="2.75" stroke-linejoin="bevel" points="1061.46,1322.6 1061.46,1397.21"/>
<polyline class="Stem" fill="none" stroke="#000000" stroke-width="2.75" stroke-linejoin="bevel" points="1231.6,1328.22 1231.6,1250.32"/>
<polyline class="Stem" fill="none" stroke="#000000" stroke-width="2.75" stroke-linejoin="bevel" points="1371.99,1340.72 1371.99,1259.7"/>
<polyline class="Stem" fill="none" stroke="#000000" stroke-width="2.75" stroke-linejoin="bevel" points="1512.39,1353.22 1512.39,1269.07"/>
<polyline class="Stem" fill="none" stroke="#000000" stroke-width="2.75" stroke-linejoin="bevel" points="1689.79,1365.72 1689.79,1281.58"/>
<polyline class="Stem" fill="none" stroke="#000000" stroke-width="2.75" stroke-linejoin="bevel" points="1827.22,1378.22 1827.22,1294.08"/>
<polyline class="Stem" fill="none" stroke="#000000" stroke-width="2.75" stroke-linejoin="bevel" points="1964.64,1390.72 1964.64,1306.58"/>
<polyline class="Stem" fill="none" stroke="#000000" stroke-width="2.75" stroke-linejoin="bevel" points="2102.07,1403.22 2102.07,1319.08"/>
<polyline class="Stem" fill="none" stroke="#000000" stroke-width="2.75" stroke-linejoin="bevel" points="2285.25,1415.72 2285.25,1319.08"/>
<polyline class="Stem" fill="none" stroke="#000000" stroke-width="2.75" stroke-linejoin="bevel" points="2447.4,1428.14 2447.4,1319.08"/>
<path class="Note" d="M495.253,1010.86 C493.753,1008.16 490.853,1006.46 486.953,1006.06 C486.353,1005.96 485.853,1005.96 485.253,1005.96 C481.753,1005.96 477.953,1006.96 474.453,1008.86 C467.853,1012.46 463.753,1018.36 463.753,1023.46 C463.753,1024.86 463.953,1026.16 464.653,1027.36 C466.153,1030.06 469.153,1031.76 473.053,1032.16 C473.653,1032.26 474.153,1032.26 474.753,1032.26 C478.253,1032.26 481.953,1031.26 485.453,1029.36 C492.053,1025.76 496.253,1019.96 496.253,1014.86 C496.253,1013.46 495.953,1012.06 495.253,1010.86"/>
<path class="Note" d="M634.998,998.358 C633.498,995.658 630.598,993.958 626.698,993.558 C626.098,993.458 625.598,993.458 624.998,993.458 C621.498,993.458 617.698,994.458 614.198,996.358 C607.598,999.958 603.498,1005.86 603.498,1010.96 C603.498,1012.36 603.698,1013.66 604.398,1014.86 C605.898,1017.56 608.898,1019.26 612.798,1019.66 C613.398,1019.76 613.898,1019.76 614.498,1019.76 C617.998,1019.76 621.698,1018.76 625.198,1016.86 C631.798,1013.26 635.998,1007.46 635.998,1002.36 C635.998,1000.96 635.698,999.558 634.998,998.358"/>
<path class="Note" d="M774.742,985.857 C773.242,983.157 770.342,981.457 766.442,981.057 C765.842,980.957 765.342,980.957 764.742,980.957 C761.242,980.957 757.442,981.957 753.942,983.857 C747.342,987.457 743.242,993.357 743.242,998.457 C743.242,999.857 743.442,1001.16 744.142,1002.36 C745.642,1005.06 748.642,1006.76 752.542,1007.16 C753.142,1007.26 753.642,1007.26 754.242,1007.26 C757.742,1007.26 761.442,1006.26 764.942,1004.36 C771.542,1000.76 775.742,994.957 775.742,989.857 C775.742,988.457 775.442,987.057 774.742,985.857"/>
<path class="Note" d="M914.487,973.356 C912.987,970.656 910.087,968.956 906.187,968.556 C905.587,968.456 905.087,968.456 904.487,968.456 C900.987,968.456 897.187,969.456 893.687,971.356 C887.087,974.956 882.987,980.856 882.987,985.956 C882.987,987.356 883.187,988.656 883.887,989.856 C885.387,992.556 888.387,994.256 892.287,994.656 C892.887,994.756 893.387,994.756 893.987,994.756 C897.487,994.756 901.187,993.756 904.687,991.856 C911.287,988.256 915.487,982.456 915.487,977.356 C915.487,975.956 915.187,974.556 914.487,973.356"/>
<path class="Note" d="M1091.23,960.856 C1089.73,958.156 1086.83,956.456 1082.93,956.056 C1082.33,955.956 1081.83,955.956 1081.23,955.956 C1077.73,955.956 1073.93,956.956 1070.43,958.856 C1063.83,962.456 1059.73,968.356 1059.73,973.456 C1059.73,974.856 1059.93,976.156 1060.63,977.356 C1062.13,980.056 1065.13,981.756 1069.03,982.156 C1069.63,982.256 1070.13,982.256 1070.73,982.256 C1074.23,982.256 1077.93,981.256 1081.43,979.356 C1088.03,975.756 1092.23,969.956 1092.23,964.856 C1092.23,963.456 1091.93,962.056 1091.23,960.856"/>
<path class="Note" d="M1226.07,948.355 C1224.57,945.655 1221.67,943.955 1217.77,943.555 C1217.17,943.455 1216.67,943.455 1216.07,943.455 C1212.57,943.455 1208.77,944.455 1205.27,946.355 C1198.67,949.955 1194.57,955.855 1194.57,960.955 C1194.57,962.355 1194.77,963.655 1195.47,964.855 C1196.97,967.555 1199.97,969.255 1203.87,969.655 C1204.47,969.755 1204.97,969.755 1205.57,969.755 C1209.07,969.755 1212.77,968.755 1216.27,966.855 C1222.87,963.255 1227.07,957.455 1227.07,952.355 C1227.07,950.955 1226.77,949.555 1226.07,948.355"/>
<path class="Note" d="M1360.91,935.854 C1359.41,933.154 1356.51,931.454 1352.61,931.054 C1352.01,930.954 1351.51,930.954 1350.91,930.954 C1347.41,930.954 1343.61,931.954 1340.11,933.854 C1333.51,937.454 1329.41,943.354 1329.41,948.454 C1329.41,949.854 1329.61,951.154 1330.31,952.354 C1331.81,955.054 1334.81,956.754 1338.71,957.154 C1339.31,957.254 1339.81,957.254 1340.41,957.254 C1343.91,957.254 1347.61,956.254 1351.11,954.354 C1357.71,950.754 1361.91,944.954 1361.91,939.854 C1361.91,938.454 1361.61,937.054 1360.91,935.854"/>
<path class="Note" d="M1495.75,923.353 C1494.25,920.653 1491.35,918.953 1487.45,918.553 C1486.85,918.453 1486.35,918.453 1485.75,918.453 C1482.25,918.453 1478.45,919.453 1474.95,921.353 C1468.35,924.953 1464.25,930.853 1464.25,935.953 C1464.25,937.353 1464.45,938.653 1465.15,939.853 C1466.65,942.553 1469.65,944.253 1473.55,944.653 C1474.15,944.753 1474.65,944.753 1475.25,944.753 C1478.75,944.753 1482.45,943.753 1485.95,941.853 C1492.55,938.253 1496.75,932.453 1496.75,927.353 C1496.75,925.953 1496.45,924.553 1495.75,923.353"/>
<path class="Note" d="M1667.59,910.853 C1666.09,908.153 1663.19,906.453 1659.29,906.053 C1658.69,905.953 1658.19,905.953 1657.59,905.953 C1654.09,905.953 1650.29,906.953 1646.79,908.853 C1640.19,912.453 1636.09,918.353 1636.09,923.453 C1636.09,924.853 1636.29,926.153 1636.99,927.353 C1638.49,930.053 1641.49,931.753 1645.39,932.153 C1645.99,932.253 1646.49,932.253 1647.09,932.253 C1650.59,932.253 1654.29,931.253 1657.79,929.353 C1664.39,925.753 1668.59,919.953 1668.59,914.853 C1668.59,913.453 1668.29,912.053 1667.59,910.853"/>
<path class="Note" d="M1799.46,898.352 C1797.96,895.652 1795.06,893.952 1791.16,893.552 C1790.56,893.452 1790.06,893.452 1789.46,893.452 C1785.96,893.452 1782.16,894.452 1778.66,896.352 C1772.06,899.952 1767.96,905.852 1767.96,910.952 C1767.96,912.352 1768.16,913.652 1768.86,914.852 C1770.36,917.552 1773.36,919.252 1777.26,919.652 C1777.86,919.752 1778.36,919.752 1778.96,919.752 C1782.46,919.752 1786.16,918.752 1789.66,916.852 C1796.26,913.252 1800.46,907.452 1800.46,902.352 C1800.46,900.952 1800.16,899.552 1799.46,898.352"/>
<path class="Note" d="M1931.33,885.851 C1929.83,883.151 1926.93,881.451 1923.03,881.051 C1922.43,880.951 1921.93,880.951 1921.33,880.951 C1917.83,880.951 1914.03,881.951 1910.53,883.851 C1903.93,887.451 1899.83,893.351 1899.83,898.451 C1899.83,899.851 1900.03,901.151 1900.73,902.351 C1902.23,905.051 1905.23,906.751 1909.13,907.151 C1909.73,907.251 1910.23,907.251 1910.83,907.251 C1914.33,907.251 1918.03,906.251 1921.53,904.351 C1928.13,900.751 1932.33,894.951 1932.33,889.851 C1932.33,888.451 1932.03,887.051 1931.33,885.851"/>
<path class="Note" d="M2063.2,873.35 C2061.7,870.65 2058.8,868.95 2054.9,868.55 C2054.3,868.45 2053.8,868.45 2053.2,868.45 C2049.7,868.45 2045.9,869.45 2042.4,871.35 C2035.8,874.95 2031.7,880.85 2031.7,885.95 C2031.7,887.35 2031.9,888.65 2032.6,889.85 C2034.1,892.55 2037.1,894.25 2041,894.65 C2041.6,894.75 2042.1,894.75 2042.7,894.75 C2046.2,894.75 2049.9,893.75 2053.4,891.85 C2060,888.25 2064.2,882.45 2064.2,877.35 C2064.2,875.95 2063.9,874.55 2063.2,873.35"/>
<path class="Note" d="M2295.77,1010.86 C2294.27,1008.16 2291.37,1006.46 2287.47,1006.06 C2286.87,1005.96 2286.37,1005.96 2285.77,1005.96 C2282.27,1005.96 2278.47,1006.96 2274.97,1008.86 C2268.37,1012.46 2264.27,1018.36 2264.27,1023.46 C2264.27,1024.86 2264.47,1026.16 2265.17,1027.36 C2266.67,1030.06 2269.67,1031.76 2273.57,1032.16 C2274.17,1032.26 2274.67,1032.26 2275.27,1032.26 C2278.77,1032.26 2282.47,1031.26 2285.97,1029.36 C2292.57,1025.76 2296.77,1019.96 2296.77,1014.86 C2296.77,1013.46 2296.47,1012.06 2295.77,1010.86"/>
<path class="Note" d="M2433.51,998.358 C2432.01,995.658 2429.11,993.958 2425.21,993.558 C2424.61,993.458 2424.11,993.458 2423.51,993.458 C2420.01,993.458 2416.21,994.458 2412.71,996.358 C2406.11,999.958 2402.01,1005.86 2402.01,1010.96 C2402.01,1012.36 2402.21,1013.66 2402.91,1014.86 C2404.41,1017.56 2407.41,1019.26 2411.31,1019.66 C2411.91,1019.76 2412.41,1019.76 2413.01,1019.76 C2416.51,1019.76 2420.21,1018.76 2423.71,1016.86 C2430.31,1013.26 2434.51,1007.46 2434.51,1002.36 C2434.51,1000.96 2434.21,999.558 2433.51,998.358"/>
<path class="Note" d="M2571.25,985.857 C2569.75,983.157 2566.85,981.457 2562.95,981.057 C2562.35,980.957 2561.85,980.957 2561.25,980.957 C2557.75,980.957 2553.95,981.957 2550.45,983.857 C2543.85,987.457 2539.75,993.257 2539.75,998.357 C2539.75,999.757 2540.15,1001.16 2540.85,1002.36 C2542.35,1005.16 2545.15,1006.76 2549.05,1007.16 C2549.65,1007.26 2550.15,1007.26 2550.75,1007.26 C2554.25,1007.26 2558.05,1006.26 2561.55,1004.36 C2568.15,1000.76 2572.25,994.857 2572.25,989.757 C2572.25,988.357 2571.95,987.057 2571.25,985.857 M2567.05,992.157 C2565.35,993.957 2562.15,996.257 2558.55,998.357 C2554.95,1000.46 2551.25,1002.16 2548.95,1002.86 C2548.45,1002.96 2547.85,1003.06 2547.35,1003.06 C2545.85,1003.06 2544.55,1002.36 2543.85,1001.26 C2543.55,1000.66 2543.35,1000.06 2543.35,999.457 C2543.35,998.357 2543.85,997.257 2544.95,996.057 C2546.65,994.257 2549.85,991.857 2553.45,989.757 C2557.05,987.657 2560.75,985.957 2563.15,985.357 L2563.35,985.357 C2563.95,985.157 2564.45,985.057 2564.95,985.057 C2566.35,985.057 2567.45,985.657 2568.15,986.957 C2568.45,987.557 2568.65,988.057 2568.65,988.657 C2568.65,989.957 2567.95,991.257 2567.05,992.157"/>
<path class="Note" d="M460.251,1610.9 C458.751,1608.2 455.851,1606.5 451.951,1606.1 C451.351,1606 450.851,1606 450.251,1606 C446.751,1606 442.951,1607 439.451,1608.9 C432.851,1612.5 428.751,1618.4 428.751,1623.5 C428.751,1624.9 428.951,1626.2 429.651,1627.4 C431.151,1630.1 434.151,1631.8 438.051,1632.2 C438.651,1632.3 439.151,1632.3 439.751,1632.3 C443.251,1632.3 446.951,1631.3 450.451,1629.4 C457.051,1625.8 461.251,1620 461.251,1614.9 C461.251,1613.5 460.951,1612.1 460.251,1610.9"/>
<path class="Note" d="M592.427,1623.4 C590.927,1620.7 588.027,1619 584.127,1618.6 C583.527,1618.5 583.027,1618.5 582.427,1618.5 C578.927,1618.5 575.127,1619.5 571.627,1621.4 C565.027,1625 560.927,1630.9 560.927,1636 C560.927,1637.4 561.127,1638.7 561.827,1639.9 C563.327,1642.6 566.327,1644.3 570.227,1644.7 C570.827,1644.8 571.327,1644.8 571.927,1644.8 C575.427,1644.8 579.127,1643.8 582.627,1641.9 C589.227,1638.3 593.427,1632.5 593.427,1627.4 C593.427,1626 593.127,1624.6 592.427,1623.4"/>
<path class="Note" d="M724.604,1635.9 C723.104,1633.2 720.204,1631.5 716.304,1631.1 C715.704,1631 715.204,1631 714.604,1631 C711.104,1631 707.304,1632 703.804,1633.9 C697.204,1637.5 693.104,1643.4 693.104,1648.5 C693.104,1649.9 693.304,1651.2 694.004,1652.4 C695.504,1655.1 698.504,1656.8 702.404,1657.2 C703.004,1657.3 703.504,1657.3 704.104,1657.3 C707.604,1657.3 711.304,1656.3 714.804,1654.4 C721.404,1650.8 725.604,1645 725.604,1639.9 C725.604,1638.5 725.304,1637.1 724.604,1635.9"/>
<path class="Note" d="M856.78,1648.4 C855.28,1645.7 852.38,1644 848.48,1643.6 C847.88,1643.5 847.38,1643.5 846.78,1643.5 C843.28,1643.5 839.48,1644.5 835.98,1646.4 C829.38,1650 825.28,1655.9 825.28,1661 C825.28,1662.4 825.48,1663.7 826.18,1664.9 C827.68,1667.6 830.68,1669.3 834.58,1669.7 C835.18,1669.8 835.68,1669.8 836.28,1669.8 C839.78,1669.8 843.48,1668.8 846.98,1666.9 C853.58,1663.3 857.78,1657.5 857.78,1652.4 C857.78,1651 857.48,1649.6 856.78,1648.4"/>
<path class="Note" d="M1091.58,1510.89 C1090.08,1508.19 1087.18,1506.49 1083.28,1506.09 C1082.68,1505.99 1082.18,1505.99 1081.58,1505.99 C1078.08,1505.99 1074.28,1506.99 1070.78,1508.89 C1064.18,1512.49 1060.08,1518.39 1060.08,1523.49 C1060.08,1524.89 1060.28,1526.19 1060.98,1527.39 C1062.48,1530.09 1065.48,1531.79 1069.38,1532.19 C1069.98,1532.29 1070.48,1532.29 1071.08,1532.29 C1074.58,1532.29 1078.28,1531.29 1081.78,1529.39 C1088.38,1525.79 1092.58,1519.99 1092.58,1514.89 C1092.58,1513.49 1092.28,1512.09 1091.58,1510.89"/>
<path class="Note" d="M1231.98,1523.39 C1230.48,1520.69 1227.58,1518.99 1223.68,1518.59 C1223.08,1518.49 1222.58,1518.49 1221.98,1518.49 C1218.48,1518.49 1214.68,1519.49 1211.18,1521.39 C1204.58,1524.99 1200.48,1530.89 1200.48,1535.99 C1200.48,1537.39 1200.68,1538.69 1201.38,1539.89 C1202.88,1542.59 1205.88,1544.29 1209.78,1544.69 C1210.38,1544.79 1210.88,1544.79 1211.48,1544.79 C1214.98,1544.79 1218.68,1543.79 1222.18,1541.89 C1228.78,1538.29 1232.98,1532.49 1232.98,1527.39 C1232.98,1525.99 1232.68,1524.59 1231.98,1523.39"/>
<path class="Note" d="M1372.37,1535.89 C1370.87,1533.19 1367.97,1531.49 1364.07,1531.09 C1363.47,1530.99 1362.97,1530.99 1362.37,1530.99 C1358.87,1530.99 1355.07,1531.99 1351.57,1533.89 C1344.97,1537.49 1340.87,1543.39 1340.87,1548.49 C1340.87,1549.89 1341.07,1551.19 1341.77,1552.39 C1343.27,1555.09 1346.27,1556.79 1350.17,1557.19 C1350.77,1557.29 1351.27,1557.29 1351.87,1557.29 C1355.37,1557.29 1359.07,1556.29 1362.57,1554.39 C1369.17,1550.79 1373.37,1544.99 1373.37,1539.89 C1373.37,1538.49 1373.07,1537.09 1372.37,1535.89"/>
<path class="Note" d="M1512.77,1548.39 C1511.27,1545.69 1508.37,1543.99 1504.47,1543.59 C1503.87,1543.49 1503.37,1543.49 1502.77,1543.49 C1499.27,1543.49 1495.47,1544.49 1491.97,1546.39 C1485.37,1549.99 1481.27,1555.89 1481.27,1560.99 C1481.27,1562.39 1481.47,1563.69 1482.17,1564.89 C1483.67,1567.59 1486.67,1569.29 1490.57,1569.69 C1491.17,1569.79 1491.67,1569.79 1492.27,1569.79 C1495.77,1569.79 1499.47,1568.79 1502.97,1566.89 C1509.57,1563.29 1513.77,1557.49 1513.77,1552.39 C1513.77,1550.99 1513.47,1549.59 1512.77,1548.39"/>
<path class="Note" d="M1690.17,1560.89 C1688.67,1558.19 1685.77,1556.49 1681.87,1556.09 C1681.27,1555.99 1680.77,1555.99 1680.17,1555.99 C1676.67,1555.99 1672.87,1556.99 1669.37,1558.89 C1662.77,1562.49 1658.67,1568.39 1658.67,1573.49 C1658.67,1574.89 1658.87,1576.19 1659.57,1577.39 C1661.07,1580.09 1664.07,1581.79 1667.97,1582.19 C1668.57,1582.29 1669.07,1582.29 1669.67,1582.29 C1673.17,1582.29 1676.87,1581.29 1680.37,1579.39 C1686.97,1575.79 1691.17,1569.99 1691.17,1564.89 C1691.17,1563.49 1690.87,1562.09 1690.17,1560.89"/>
<path class="Note" d="M1827.6,1573.39 C1826.1,1570.69 1823.2,1568.99 1819.3,1568.59 C1818.7,1568.49 1818.2,1568.49 1817.6,1568.49 C1814.1,1568.49 1810.3,1569.49 1806.8,1571.39 C1800.2,1574.99 1796.1,1580.89 1796.1,1585.99 C1796.1,1587.39 1796.3,1588.69 1797,1589.89 C1798.5,1592.59 1801.5,1594.29 1805.4,1594.69 C1806,1594.79 1806.5,1594.79 1807.1,1594.79 C1810.6,1594.79 1814.3,1593.79 1817.8,1591.89 C1824.4,1588.29 1828.6,1582.49 1828.6,1577.39 C1828.6,1575.99 1828.3,1574.59 1827.6,1573.39"/>
<path class="Note" d="M1965.02,1585.9 C1963.52,1583.2 1960.62,1581.5 1956.72,1581.1 C1956.12,1581 1955.62,1581 1955.02,1581 C1951.52,1581 1947.72,1582 1944.22,1583.9 C1937.62,1587.5 1933.52,1593.4 1933.52,1598.5 C1933.52,1599.9 1933.72,1601.2 1934.42,1602.4 C1935.92,1605.1 1938.92,1606.8 1942.82,1607.2 C1943.42,1607.3 1943.92,1607.3 1944.52,1607.3 C1948.02,1607.3 1951.72,1606.3 1955.22,1604.4 C1961.82,1600.8 1966.02,1595 1966.02,1589.9 C1966.02,1588.5 1965.72,1587.1 1965.02,1585.9"/>
<path class="Note" d="M2102.45,1598.4 C2100.95,1595.7 2098.05,1594 2094.15,1593.6 C2093.55,1593.5 2093.05,1593.5 2092.45,1593.5 C2088.95,1593.5 2085.15,1594.5 2081.65,1596.4 C2075.05,1600 2070.95,1605.9 2070.95,1611 C2070.95,1612.4 2071.15,1613.7 2071.85,1614.9 C2073.35,1617.6 2076.35,1619.3 2080.25,1619.7 C2080.85,1619.8 2081.35,1619.8 2081.95,1619.8 C2085.45,1619.8 2089.15,1618.8 2092.65,1616.9 C2099.25,1613.3 2103.45,1607.5 2103.45,1602.4 C2103.45,1601 2103.15,1599.6 2102.45,1598.4"/>
<path class="Note" d="M2285.63,1610.9 C2284.13,1608.2 2281.23,1606.5 2277.33,1606.1 C2276.73,1606 2276.23,1606 2275.63,1606 C2272.13,1606 2268.33,1607 2264.83,1608.9 C2258.23,1612.5 2254.13,1618.4 2254.13,1623.5 C2254.13,1624.9 2254.33,1626.2 2255.03,1627.4 C2256.53,1630.1 2259.53,1631.8 2263.43,1632.2 C2264.03,1632.3 2264.53,1632.3 2265.13,1632.3 C2268.63,1632.3 2272.33,1631.3 2275.83,1629.4 C2282.43,1625.8 2286.63,1620 2286.63,1614.9 C2286.63,1613.5 2286.33,1612.1 2285.63,1610.9"/>
<path class="Note" d="M2447.78,1623.4 C2446.28,1620.7 2443.38,1619 2439.48,1618.6 C2438.88,1618.5 2438.38,1618.5 2437.78,1618.5 C2434.28,1618.5 2430.48,1619.5 2426.98,1621.4 C2420.38,1625 2416.28,1630.8 2416.28,1635.9 C2416.28,1637.3 2416.68,1638.7 2417.38,1639.9 C2418.88,1642.7 2421.68,1644.3 2425.58,1644.7 C2426.18,1644.8 2426.68,1644.8 2427.28,1644.8 C2430.78,1644.8 2434.58,1643.8 2438.08,1641.9 C2444.68,1638.3 2448.78,1632.4 2448.78,1627.3 C2448.78,1625.9 2448.48,1624.6 2447.78,1623.4 M2443.58,1629.7 C2441.88,1631.5 2438.68,1633.8 2435.08,1635.9 C2431.48,1638 2427.78,1639.7 2425.48,1640.4 C2424.98,1640.5 2424.38,1640.6 2423.88,1640.6 C2422.38,1640.6 2421.08,1639.9 2420.38,1638.8 C2420.08,1638.2 2419.88,1637.6 2419.88,1637 C2419.88,1635.9 2420.38,1634.8 2421.48,1633.6 C2423.18,1631.8 2426.38,1629.4 2429.98,1627.3 C2433.58,1625.2 2437.28,1623.5 2439.68,1622.9 L2439.88,1622.9 C2440.48,1622.7 2440.98,1622.6 2441.48,1622.6 C2442.88,1622.6 2443.98,1623.2 2444.68,1624.5 C2444.98,1625.1 2445.18,1625.6 2445.18,1626.2 C2445.18,1627.5 2444.48,1628.8 2443.58,1629.7"/>
<path class="Note" d="M495.253,810.846 C493.753,808.146 490.853,806.446 486.953,806.046 C486.353,805.946 485.853,805.946 485.253,805.946 C481.753,805.946 477.953,806.946 474.453,808.846 C467.853,812.446 463.753,818.346 463.753,823.446 C463.753,824.846 463.953,826.146 464.653,827.346 C466.153,830.046 469.153,831.746 473.053,832.146 C473.653,832.246 474.153,832.246 474.753,832.246 C478.253,832.246 481.953,831.246 485.453,829.346 C492.053,825.746 496.253,819.946 496.253,814.846 C496.253,813.446 495.953,812.046 495.253,810.846"/>
<path class="Note" d="M634.998,798.345 C633.498,795.645 630.598,793.945 626.698,793.545 C626.098,793.445 625.598,793.445 624.998,793.445 C621.498,793.445 617.698,794.445 614.198,796.345 C607.598,799.945 603.498,805.845 603.498,810.945 C603.498,812.345 603.698,813.645 604.398,814.845 C605.898,817.545 608.898,819.245 612.798,819.645 C613.398,819.745 613.898,819.745 614.498,819.745 C617.998,819.745 621.698,818.745 625.198,816.845 C631.798,813.245 635.998,807.445 635.998,802.345 C635.998,800.945 635.698,799.545 634.998,798.345"/>
<path class="Note" d="M774.742,785.845 C773.242,783.145 770.342,781.445 766.442,781.045 C765.842,780.945 765.342,780.945 764.742,780.945 C761.242,780.945 757.442,781.945 753.942,783.845 C747.342,787.445 743.242,793.345 743.242,798.445 C743.242,799.845 743.442,801.145 744.142,802.345 C745.642,805.045 748.642,806.745 752.542,807.145 C753.142,807.245 753.642,807.245 754.242,807.245 C757.742,807.245 761.442,806.245 764.942,804.345 C771.542,800.745 775.742,794.945 775.742,789.845 C775.742,788.445 775.442,787.045 774.742,785.845"/>
<path class="Note" d="M914.487,773.344 C912.987,770.644 910.087,768.944 906.187,768.544 C905.587,768.444 905.087,768.444 904.487,768.444 C900.987,768.444 897.187,769.444 893.687,771.344 C887.087,774.944 882.987,780.844 882.987,785.944 C882.987,787.344 883.187,788.644 883.887,789.844 C885.387,792.544 888.387,794.244 892.287,794.644 C892.887,794.744 893.387,794.744 893.987,794.744 C897.487,794.744 901.187,793.744 904.687,791.844 C911.287,788.244 915.487,782.444 915.487,777.344 C915.487,775.944 915.187,774.544 914.487,773.344"/>
<path class="Note" d="M1091.23,760.843 C1089.73,758.143 1086.83,756.443 1082.93,756.043 C1082.33,755.943 1081.83,755.943 1081.23,755.943 C1077.73,755.943 1073.93,756.943 1070.43,758.843 C1063.83,762.443 1059.73,768.343 1059.73,773.443 C1059.73,774.843 1059.93,776.143 1060.63,777.343 C1062.13,780.043 1065.13,781.743 1069.03,782.143 C1069.63,782.243 1070.13,782.243 1070.73,782.243 C1074.23,782.243 1077.93,781.243 1081.43,779.343 C1088.03,775.743 1092.23,769.943 1092.23,764.843 C1092.23,763.443 1091.93,762.043 1091.23,760.843"/>
<path class="Note" d="M1226.07,748.342 C1224.57,745.642 1221.67,743.942 1217.77,743.542 C1217.17,743.442 1216.67,743.442 1216.07,743.442 C1212.57,743.442 1208.77,744.442 1205.27,746.342 C1198.67,749.942 1194.57,755.842 1194.57,760.942 C1194.57,762.342 1194.77,763.642 1195.47,764.842 C1196.97,767.542 1199.97,769.242 1203.87,769.642 C1204.47,769.742 1204.97,769.742 1205.57,769.742 C1209.07,769.742 1212.77,768.742 1216.27,766.842 C1222.87,763.242 1227.07,757.442 1227.07,752.342 C1227.07,750.942 1226.77,749.542 1226.07,748.342"/>
<path class="Note" d="M1360.91,735.842 C1359.41,733.142 1356.51,731.442 1352.61,731.042 C1352.01,730.942 1351.51,730.942 1350.91,730.942 C1347.41,730.942 1343.61,731.942 1340.11,733.842 C1333.51,737.442 1329.41,743.342 1329.41,748.442 C1329.41,749.842 1329.61,751.142 1330.31,752.342 C1331.81,755.042 1334.81,756.742 1338.71,757.142 C1339.31,757.242 1339.81,757.242 1340.41,757.242 C1343.91,757.242 1347.61,756.242 1351.11,754.342 C1357.71,750.742 1361.91,744.942 1361.91,739.842 C1361.91,738.442 1361.61,737.042 1360.91,735.842"/>
<path class="Note" d="M1495.75,723.341 C1494.25,720.641 1491.35,718.941 1487.45,718.541 C1486.85,718.441 1486.35,718.441 1485.75,718.441 C1482.25,718.441 1478.45,719.441 1474.95,721.341 C1468.35,724.941 1464.25,730.841 1464.25,735.941 C1464.25,737.341 1464.45,738.641 1465.15,739.841 C1466.65,742.541 1469.65,744.241 1473.55,744.641 C1474.15,744.741 1474.65,744.741 1475.25,744.741 C1478.75,744.741 1482.45,743.741 1485.95,741.841 C1492.55,738.241 1496.75,732.441 1496.75,727.341 C1496.75,725.941 1496.45,724.541 1495.75,723.341"/>
<path class="Note" d="M1667.59,710.84 C1666.09,708.14 1663.19,706.44 1659.29,706.04 C1658.69,705.94 1658.19,705.94 1657.59,705.94 C1654.09,705.94 1650.29,706.94 1646.79,708.84 C1640.19,712.44 1636.09,718.34 1636.09,723.44 C1636.09,724.84 1636.29,726.14 1636.99,727.34 C1638.49,730.04 1641.49,731.74 1645.39,732.14 C1645.99,732.24 1646.49,732.24 1647.09,732.24 C1650.59,732.24 1654.29,731.24 1657.79,729.34 C1664.39,725.74 1668.59,719.94 1668.59,714.84 C1668.59,713.44 1668.29,712.04 1667.59,710.84"/>
<path class="Note" d="M1799.46,698.339 C1797.96,695.639 1795.06,693.939 1791.16,693.539 C1790.56,693.439 1790.06,693.439 1789.46,693.439 C1785.96,693.439 1782.16,694.439 1778.66,696.339 C1772.06,699.939 1767.96,705.839 1767.96,710.939 C1767.96,712.339 1768.16,713.639 1768.86,714.839 C1770.36,717.539 1773.36,719.239 1777.26,719.639 C1777.86,719.739 1778.36,719.739 1778.96,719.739 C1782.46,719.739 1786.16,718.739 1789.66,716.839 C1796.26,713.239 1800.46,707.439 1800.46,702.339 C1800.46,700.939 1800.16,699.539 1799.46,698.339"/>
<path class="Note" d="M1931.33,685.838 C1929.83,683.138 1926.93,681.438 1923.03,681.038 C1922.43,680.938 1921.93,680.938 1921.33,680.938 C1917.83,680.938 1914.03,681.938 1910.53,683.838 C1903.93,687.438 1899.83,693.338 1899.83,698.438 C1899.83,699.838 1900.03,701.138 1900.73,702.338 C1902.23,705.038 1905.23,706.738 1909.13,707.138 C1909.73,707.238 1910.23,707.238 1910.83,707.238 C1914.33,707.238 1918.03,706.238 1921.53,704.338 C1928.13,700.738 1932.33,694.938 1932.33,689.838 C1932.33,688.438 1932.03,687.038 1931.33,685.838"/>
<path class="Note" d="M2063.2,673.338 C2061.7,670.638 2058.8,668.938 2054.9,668.538 C2054.3,668.438 2053.8,668.438 2053.2,668.438 C2049.7,668.438 2045.9,669.438 2042.4,671.338 C2035.8,674.938 2031.7,680.838 2031.7,685.938 C2031.7,687.338 2031.9,688.638 2032.6,689.838 C2034.1,692.538 2037.1,694.238 2041,694.638 C2041.6,694.738 2042.1,694.738 2042.7,694.738 C2046.2,694.738 2049.9,693.738 2053.4,691.838 C2060,688.238 2064.2,682.438 2064.2,677.338 C2064.2,675.938 2063.9,674.538 2063.2,673.338"/>
<path class="Note" d="M2295.77,660.837 C2294.27,658.137 2291.37,656.437 2287.47,656.037 C2286.87,655.937 2286.37,655.937 2285.77,655.937 C2282.27,655.937 2278.47,656.937 2274.97,658.837 C2268.37,662.437 2264.27,668.337 2264.27,673.437 C2264.27,674.837 2264.47,676.137 2265.17,677.337 C2266.67,680.037 2269.67,681.737 2273.57,682.137 C2274.17,682.237 2274.67,682.237 2275.27,682.237 C2278.77,682.237 2282.47,681.237 2285.97,679.337 C2292.57,675.737 2296.77,669.937 2296.77,664.837 C2296.77,663.437 2296.47,662.037 2295.77,660.837"/>
<path class="Note" d="M2433.51,648.336 C2432.01,645.636 2429.11,643.936 2425.21,643.536 C2424.61,643.436 2424.11,643.436 2423.51,643.436 C2420.01,643.436 2416.21,644.436 2412.71,646.336 C2406.11,649.936 2402.01,655.836 2402.01,660.936 C2402.01,662.336 2402.21,663.636 2402.91,664.836 C2404.41,667.536 2407.41,669.236 2411.31,669.636 C2411.91,669.736 2412.41,669.736 2413.01,669.736 C2416.51,669.736 2420.21,668.736 2423.71,666.836 C2430.31,663.236 2434.51,657.436 2434.51,652.336 C2434.51,650.936 2434.21,649.536 2433.51,648.336"/>
<path class="Note" d="M2571.25,635.835 C2569.75,633.135 2566.85,631.435 2562.95,631.035 C2562.35,630.935 2561.85,630.935 2561.25,630.935 C2557.75,630.935 2553.95,631.935 2550.45,633.835 C2543.85,637.435 2539.75,643.235 2539.75,648.335 C2539.75,649.735 2540.15,651.135 2540.85,652.335 C2542.35,655.135 2545.15,656.735 2549.05,657.135 C2549.65,657.235 2550.15,657.235 2550.75,657.235 C2554.25,657.235 2558.05,656.235 2561.55,654.335 C2568.15,650.735 2572.25,644.835 2572.25,639.735 C2572.25,638.335 2571.95,637.035 2571.25,635.835 M2567.05,642.135 C2565.35,643.935 2562.15,646.235 2558.55,648.335 C2554.95,650.435 2551.25,652.135 2548.95,652.835 C2548.45,652.935 2547.85,653.035 2547.35,653.035 C2545.85,653.035 2544.55,652.335 2543.85,651.235 C2543.55,650.635 2543.35,650.035 2543.35,649.435 C2543.35,648.335 2543.85,647.235 2544.95,646.035 C2546.65,644.235 2549.85,641.835 2553.45,639.735 C2557.05,637.635 2560.75,635.935 2563.15,635.335 L2563.35,635.335 C2563.95,635.135 2564.45,635.035 2564.95,635.035 C2566.35,635.035 2567.45,635.635 2568.15,636.935 C2568.45,637.535 2568.65,638.035 2568.65,638.635 C2568.65,639.935 2567.95,641.235 2567.05,642.135"/>
<path class="Note" d="M460.251,1260.87 C458.751,1258.17 455.851,1256.47 451.951,1256.07 C451.351,1255.97 450.851,1255.97 450.251,1255.97 C446.751,1255.97 442.951,1256.97 439.451,1258.87 C432.851,1262.47 428.751,1268.37 428.751,1273.47 C428.751,1274.87 428.951,1276.17 429.651,1277.37 C431.151,1280.07 434.151,1281.77 438.051,1282.17 C438.651,1282.27 439.151,1282.27 439.751,1282.27 C443.251,1282.27 446.951,1281.27 450.451,1279.37 C457.051,1275.77 461.251,1269.97 461.251,1264.87 C461.251,1263.47 460.951,1262.07 460.251,1260.87"/>
<path class="Note" d="M592.427,1273.38 C590.927,1270.68 588.027,1268.98 584.127,1268.58 C583.527,1268.48 583.027,1268.48 582.427,1268.48 C578.927,1268.48 575.127,1269.48 571.627,1271.38 C565.027,1274.98 560.927,1280.88 560.927,1285.98 C560.927,1287.38 561.127,1288.68 561.827,1289.88 C563.327,1292.58 566.327,1294.28 570.227,1294.68 C570.827,1294.78 571.327,1294.78 571.927,1294.78 C575.427,1294.78 579.127,1293.78 582.627,1291.88 C589.227,1288.28 593.427,1282.48 593.427,1277.38 C593.427,1275.98 593.127,1274.58 592.427,1273.38"/>
<path class="Note" d="M724.604,1285.88 C723.104,1283.18 720.204,1281.48 716.304,1281.08 C715.704,1280.98 715.204,1280.98 714.604,1280.98 C711.104,1280.98 707.304,1281.98 703.804,1283.88 C697.204,1287.48 693.104,1293.38 693.104,1298.48 C693.104,1299.88 693.304,1301.18 694.004,1302.38 C695.504,1305.08 698.504,1306.78 702.404,1307.18 C703.004,1307.28 703.504,1307.28 704.104,1307.28 C707.604,1307.28 711.304,1306.28 714.804,1304.38 C721.404,1300.78 725.604,1294.98 725.604,1289.88 C725.604,1288.48 725.304,1287.08 724.604,1285.88"/>
<path class="Note" d="M856.78,1298.38 C855.28,1295.68 852.38,1293.98 848.48,1293.58 C847.88,1293.48 847.38,1293.48 846.78,1293.48 C843.28,1293.48 839.48,1294.48 835.98,1296.38 C829.38,1299.98 825.28,1305.88 825.28,1310.98 C825.28,1312.38 825.48,1313.68 826.18,1314.88 C827.68,1317.58 830.68,1319.28 834.58,1319.68 C835.18,1319.78 835.68,1319.78 836.28,1319.78 C839.78,1319.78 843.48,1318.78 846.98,1316.88 C853.58,1313.28 857.78,1307.48 857.78,1302.38 C857.78,1300.98 857.48,1299.58 856.78,1298.38"/>
<path class="Note" d="M1091.58,1310.88 C1090.08,1308.18 1087.18,1306.48 1083.28,1306.08 C1082.68,1305.98 1082.18,1305.98 1081.58,1305.98 C1078.08,1305.98 1074.28,1306.98 1070.78,1308.88 C1064.18,1312.48 1060.08,1318.38 1060.08,1323.48 C1060.08,1324.88 1060.28,1326.18 1060.98,1327.38 C1062.48,1330.08 1065.48,1331.78 1069.38,1332.18 C1069.98,1332.28 1070.48,1332.28 1071.08,1332.28 C1074.58,1332.28 1078.28,1331.28 1081.78,1329.38 C1088.38,1325.78 1092.58,1319.98 1092.58,1314.88 C1092.58,1313.48 1092.28,1312.08 1091.58,1310.88"/>
<path class="Note" d="M1231.98,1323.38 C1230.48,1320.68 1227.58,1318.98 1223.68,1318.58 C1223.08,1318.48 1222.58,1318.48 1221.98,1318.48 C1218.48,1318.48 1214.68,1319.48 1211.18,1321.38 C1204.58,1324.98 1200.48,1330.88 1200.48,1335.98 C1200.48,1337.38 1200.68,1338.68 1201.38,1339.88 C1202.88,1342.58 1205.88,1344.28 1209.78,1344.68 C1210.38,1344.78 1210.88,1344.78 1211.48,1344.78 C1214.98,1344.78 1218.68,1343.78 1222.18,1341.88 C1228.78,1338.28 1232.98,1332.48 1232.98,1327.38 C1232.98,1325.98 1232.68,1324.58 1231.98,1323.38"/>
<path class="Note" d="M1372.37,1335.88 C1370.87,1333.18 1367.97,1331.48 1364.07,1331.08 C1363.47,1330.98 1362.97,1330.98 1362.37,1330.98 C1358.87,1330.98 1355.07,1331.98 1351.57,1333.88 C1344.97,1337.48 1340.87,1343.38 1340.87,1348.48 C1340.87,1349.88 1341.07,1351.18 1341.77,1352.38 C1343.27,1355.08 1346.27,1356.78 1350.17,1357.18 C1350.77,1357.28 1351.27,1357.28 1351.87,1357.28 C1355.37,1357.28 1359.07,1356.28 1362.57,1354.38 C1369.17,1350.78 1373.37,1344.98 1373.37,1339.88 C1373.37,1338.48 1373.07,1337.08 1372.37,1335.88"/>
<path class="Note" d="M1512.77,1348.38 C1511.27,1345.68 1508.37,1343.98 1504.47,1343.58 C1503.87,1343.48 1503.37,1343.48 1502.77,1343.48 C1499.27,1343.48 1495.47,1344.48 1491.97,1346.38 C1485.37,1349.98 1481.27,1355.88 1481.27,1360.98 C1481.27,1362.38 1481.47,1363.68 1482.17,1364.88 C1483.67,1367.58 1486.67,1369.28 1490.57,1369.68 C1491.17,1369.78 1491.67,1369.78 1492.27,1369.78 C1495.77,1369.78 1499.47,1368.78 1502.97,1366.88 C1509.57,1363.28 1513.77,1357.48 1513.77,1352.38 C1513.77,1350.98 1513.47,1349.58 1512.77,1348.38"/>
<path class="Note" d="M1690.17,1360.88 C1688.67,1358.18 1685.77,1356.48 1681.87,1356.08 C1681.27,1355.98 1680.77,1355.98 1680.17,1355.98 C1676.67,1355.98 1672.87,1356.98 1669.37,1358.88 C1662.77,1362.48 1658.67,1368.38 1658.67,1373.48 C1658.67,1374.88 1658.87,1376.18 1659.57,1377.38 C1661.07,1380.08 1664.07,1381.78 1667.97,1382.18 C1668.57,1382.28 1669.07,1382.28 1669.67,1382.28 C1673.17,1382.28 1676.87,1381.28 1680.37,1379.38 C1686.97,1375.78 1691.17,1369.98 1691.17,1364.88 C1691.17,1363.48 1690.87,1362.08 1690.17,1360.88"/>
<path class="Note" d="M1827.6,1373.38 C1826.1,1370.68 1823.2,1368.98 1819.3,1368.58 C1818.7,1368.48 1818.2,1368.48 1817.6,1368.48 C1814.1,1368.48 1810.3,1369.48 1806.8,1371.38 C1800.2,1374.98 1796.1,1380.88 1796.1,1385.98 C1796.1,1387.38 1796.3,1388.68 1797,1389.88 C1798.5,1392.58 1801.5,1394.28 1805.4,1394.68 C1806,1394.78 1806.5,1394.78 1807.1,1394.78 C1810.6,1394.78 1814.3,1393.78 1817.8,1391.88 C1824.4,1388.28 1828.6,1382.48 1828.6,1377.38 C1828.6,1375.98 1828.3,1374.58 1827.6,1373.38"/>
<path class="Note" d="M1965.02,1385.88 C1963.52,1383.18 1960.62,1381.48 1956.72,1381.08 C1956.12,1380.98 1955.62,1380.98 1955.02,1380.98 C1951.52,1380.98 1947.72,1381.98 1944.22,1383.88 C1937.62,1387.48 1933.52,1393.38 1933.52,1398.48 C1933.52,1399.88 1933.72,1401.18 1934.42,1402.38 C1935.92,1405.08 1938.92,1406.78 1942.82,1407.18 C1943.42,1407.28 1943.92,1407.28 1944.52,1407.28 C1948.02,1407.28 1951.72,1406.28 1955.22,1404.38 C1961.82,1400.78 1966.02,1394.98 1966.02,1389.88 C1966.02,1388.48 1965.72,1387.08 1965.02,1385.88"/>
<path class="Note" d="M2102.45,1398.38 C2100.95,1395.68 2098.05,1393.98 2094.15,1393.58 C2093.55,1393.48 2093.05,1393.48 2092.45,1393.48 C2088.95,1393.48 2085.15,1394.48 2081.65,1396.38 C2075.05,1399.98 2070.95,1405.88 2070.95,1410.98 C2070.95,1412.38 2071.15,1413.68 2071.85,1414.88 C2073.35,1417.58 2076.35,1419.28 2080.25,1419.68 C2080.85,1419.78 2081.35,1419.78 2081.95,1419.78 C2085.45,1419.78 2089.15,1418.78 2092.65,1416.88 C2099.25,1413.28 2103.45,1407.48 2103.45,1402.38 C2103.45,1400.98 2103.15,1399.58 2102.45,1398.38"/>
<path class="Note" d="M2285.63,1410.88 C2284.13,1408.18 2281.23,1406.48 2277.33,1406.08 C2276.73,1405.98 2276.23,1405.98 2275.63,1405.98 C2272.13,1405.98 2268.33,1406.98 2264.83,1408.88 C2258.23,1412.48 2254.13,1418.38 2254.13,1423.48 C2254.13,1424.88 2254.33,1426.18 2255.03,1427.38 C2256.53,1430.08 2259.53,1431.78 2263.43,1432.18 C2264.03,1432.28 2264.53,1432.28 2265.13,1432.28 C2268.63,1432.28 2272.33,1431.28 2275.83,1429.38 C2282.43,1425.78 2286.63,1419.98 2286.63,1414.88 C2286.63,1413.48 2286.33,1412.08 2285.63,1410.88"/>
<path class="Note" d="M2447.78,1423.38 C2446.28,1420.68 2443.38,1418.98 2439.48,1418.58 C2438.88,1418.48 2438.38,1418.48 2437.78,1418.48 C2434.28,1418.48 2430.48,1419.48 2426.98,1421.38 C2420.38,1424.98 2416.28,1430.78 2416.28,1435.88 C2416.28,1437.28 2416.68,1438.68 2417.38,1439.88 C2418.88,1442.68 2421.68,1444.28 2425.58,1444.68 C2426.18,1444.78 2426.68,1444.78 2427.28,1444.78 C2430.78,1444.78 2434.58,1443.78 2438.08,1441.88 C2444.68,1438.28 2448.78,1432.38 2448.78,1427.28 C2448.78,1425.88 2448.48,1424.58 2447.78,1423.38 M2443.58,1429.68 C2441.88,1431.48 2438.68,1433.78 2435.08,1435.88 C2431.48,1437.98 2427.78,1439.68 2425.48,1440.38 C2424.98,1440.48 2424.38,1440.58 2423.88,1440.58 C2422.38,1440.58 2421.08,1439.88 2420.38,1438.78 C2420.08,1438.18 2419.88,1437.58 2419.88,1436.98 C2419.88,1435.88 2420.38,1434.78 2421.48,1433.58 C2423.18,1431.78 2426.38,1429.38 2429.98,1427.28 C2433.58,1425.18 2437.28,1423.48 2439.68,1422.88 L2439.88,1422.88 C2440.48,1422.68 2440.98,1422.58 2441.48,1422.58 C2442.88,1422.58 2443.98,1423.18 2444.68,1424.48 C2444.98,1425.08 2445.18,1425.58 2445.18,1426.18 C2445.18,1427.48 2444.48,1428.78 2443.58,1429.68"/>
<path class="Clef" d="M297,918.954 C289.4,918.954 283.3,923.354 283.2,923.354 C277.4,927.654 275.1,932.754 274.2,936.254 C273.7,938.054 273.5,939.854 273.5,941.554 C273.5,943.954 273.9,946.154 274.8,948.054 C276,950.754 278.3,952.654 281.3,953.654 C282.5,954.054 283.8,954.254 285.1,954.254 C287.3,954.254 289.6,953.654 291.5,952.554 C294.6,950.854 296.5,947.254 296.5,943.354 C296.5,939.854 294.7,936.654 291.7,934.754 C289.6,933.354 287.6,932.954 285.9,932.954 C284.7,932.954 283.6,933.154 282.7,933.454 C281.7,933.854 280,934.854 279.2,935.554 C279.5,933.654 280.7,930.754 281.8,929.154 C282.9,927.554 285.1,925.554 286.8,924.654 C289.3,923.254 292.5,922.654 296,922.654 C306.2,922.654 311.2,930.854 311.2,947.654 C311.2,956.954 307.7,965.854 304.7,971.754 C301.4,978.354 297,984.654 293.1,988.154 C282.7,997.654 272.9,1002.15 272.8,1002.15 C272.8,1002.15 271.3,1003.05 271.7,1004.55 C272,1005.55 272.9,1005.75 273.5,1005.75 C273.6,1005.75 273.9,1005.65 274,1005.65 C274.1,1005.65 285.5,1000.95 294.6,993.854 C299.7,990.154 304.3,986.154 308.3,981.854 C311.9,977.954 315,973.754 317.5,969.554 C321.9,962.054 324.4,954.254 324.4,947.554 C324.4,939.254 322.2,932.354 318.1,927.454 C313.4,921.854 306.3,918.954 297,918.954 M328.4,931.654 C328.4,934.454 330.6,936.654 333.2,936.654 C335.8,936.654 338,934.454 338,931.654 C338,928.854 335.8,926.554 333.2,926.554 C330.6,926.554 328.4,928.854 328.4,931.654 M328.4,956.354 C328.4,959.154 330.6,961.454 333.2,961.454 C335.8,961.454 338,959.154 338,956.354 C338,953.554 335.8,951.254 333.2,951.254 C330.6,951.254 328.4,953.554 328.4,956.354"/>
<path class="Clef" transform="matrix(0.80005,0,0,0.80005,2188.07,994.057)" d="M63.4,-5.9 C62.2,-11.3 59.5,-15.2 58.7,-16.2 C55.5,-20.5 51.5,-23.3 46.8,-24.7 C44.5,-25.4 42.4,-25.6 40.4,-25.6 C39.7,-25.6 39,-25.6 38.3,-25.5 C37.3,-31.5 36.2,-37.4 35.3,-42.8 C40.9,-49 44.6,-54.9 47,-59.3 C50.6,-66 52,-70.7 52.1,-70.9 C53.3,-73.9 54,-77.7 54,-82.2 C54,-84.9 53.7,-87.8 53.3,-90.8 C52.2,-97.9 50,-104.6 47.5,-108.3 C46.2,-110.2 45,-111.3 43.8,-111.3 C42.6,-111.3 40.1,-110.1 37.2,-107.3 C34.9,-105.1 31.6,-101.2 29,-95.2 C26.7,-89.8 26,-82.9 26,-77 C26,-75.2 26.1,-73.5 26.2,-71.9 C26.4,-68.3 27.1,-62.5 27.7,-58.9 C27.7,-58.8 28,-57.3 28.4,-54.7 L27.7,-54 C26.7,-53 25.5,-51.9 24.1,-50.5 C23.2,-49.6 22.3,-48.8 21.3,-47.8 C12.8,-39.6 0,-27.2 0,-8.1 C0,-3.4 0.9,1 2.7,5 C4.3,8.6 6.6,11.9 9.5,14.8 C17,22.2 27.2,25.4 34.3,25.4 L34.9,25.4 C37.8,25.3 40.5,25 42.9,24.6 C44.7,34.2 45.9,41.3 45.9,46.6 C45.9,53.1 44.3,57 40.4,59.8 C38,61.5 35.1,62.6 32,62.7 L31.2,62.7 C29.7,62.7 27.2,62.3 25.7,61.9 C25.7,61.9 25.4,61.8 25.4,61.6 C25.4,61.4 25.8,61.4 25.8,61.4 C27.7,61 31.3,59.7 33.7,56.4 C34.8,54.9 35.5,52.6 35.5,50.1 C35.5,48.5 35.2,46.8 34.5,45.3 C33.4,42.9 30.8,39.9 25.2,39.5 L24.1,39.5 C22,39.5 20.2,40 18.5,41 C16.7,42.1 15.1,43.8 14.1,45.8 C13,47.8 12.5,50 12.5,52.2 C12.5,55.1 13.4,57.8 15.2,60 C18.2,63.6 22.9,65.9 28.3,66.5 C29,66.6 30.1,66.7 30.8,66.7 C35.2,66.7 39.6,65.5 43.2,63.3 C46.9,60.7 49,56.7 49.7,51.1 C49.9,49.8 49.9,48.4 49.9,46.9 C49.9,43 49.4,38.3 48.4,32.5 C48,30.4 47.6,27.4 46.9,23.6 C52.7,21.7 56.8,18 60.6,12.2 C62.9,8.2 64,4.1 64,-0.2 C64,-2.1 63.8,-4 63.4,-5.9 M33.2,-83.8 C35,-89.5 37.7,-92.9 39.7,-94.6 C41.5,-96.1 43.1,-96.8 44,-96.8 C44.1,-96.8 44.3,-96.7 44.4,-96.7 C44.7,-96.6 45.1,-96.1 45.5,-95.4 C46.4,-93.6 47.3,-90.3 47.3,-86.6 C47.3,-84.7 47.1,-82.7 46.5,-80.9 C44.3,-74.1 39.7,-66.8 32.7,-59.1 C32.5,-60.2 32.3,-61.2 32.2,-62.2 C31.7,-65.4 31.4,-68.6 31.4,-71.5 C31.4,-76 32,-80.1 33.2,-83.8 M29.2,20.3 C24.6,19.1 20.1,16.6 16.3,13.1 C15,11.9 13.2,9.7 11.7,6.3 C10.4,3.3 9.7,0.2 9.7,-3.2 L9.7,-3.9 C9.8,-8.6 11.1,-13.4 13.6,-18.2 C16.5,-23.8 21,-29.3 27.1,-34.6 C28.6,-35.9 30,-37.2 31.3,-38.5 C32.1,-34.2 32.8,-29.5 33.7,-24.6 C29.8,-23.3 25.1,-20.3 22,-14.6 C19.6,-10.1 18.9,-6.2 18.9,-3 C18.9,-1.5 19.1,-0.1 19.3,1 C20.2,5.5 22.8,9.2 26.3,11.3 C27.1,11.8 30.4,13.5 32.4,13.5 C32.7,13.5 33,13.5 33.2,13.4 C33.5,13.3 33.8,13.1 33.9,12.8 C34,12.6 34,12.4 34,12.2 C34,11.4 33.2,10.8 31.9,10 C31.3,9.6 30.6,9.2 29.9,8.7 C27.3,6.7 25.8,3.6 25.8,0.2 C25.8,-0.8 26,-1.7 26.2,-2.7 C26.7,-4.7 28.4,-7.5 29.9,-8.9 C31.6,-10.4 33.6,-11.6 36,-12.2 C38,-1 40.1,10.1 41.7,18.5 C41.8,19.2 42,19.9 42.1,20.6 C40.1,21 38.1,21.2 36.2,21.2 C33.8,21.2 31.5,20.9 29.2,20.3 M54.9,10.1 C53.7,13.3 51.2,17.3 46.1,19.4 C46,19 46,18.5 45.9,18.1 C44.4,9.3 42.5,-1.6 40.5,-12.9 L41.5,-12.9 C51.2,-12.9 55.1,-5.7 56,-1.1 C56.2,-0.2 56.3,1 56.3,2.3 C56.3,4.6 55.9,7.4 54.9,10.1"/>
<path class="Clef" d="M335,1600.7 C333.8,1595.3 331.1,1591.4 330.3,1590.4 C327.1,1586.1 323.1,1583.3 318.4,1581.9 C316.1,1581.2 314,1581 312,1581 C311.3,1581 310.6,1581 309.9,1581.1 C308.9,1575.1 307.8,1569.2 306.9,1563.8 C312.5,1557.6 316.2,1551.7 318.6,1547.3 C322.2,1540.6 323.6,1535.9 323.7,1535.7 C324.9,1532.7 325.6,1528.9 325.6,1524.4 C325.6,1521.7 325.3,1518.8 324.9,1515.8 C323.8,1508.7 321.6,1502 319.1,1498.3 C317.8,1496.4 316.6,1495.3 315.4,1495.3 C314.2,1495.3 311.7,1496.5 308.8,1499.3 C306.5,1501.5 303.2,1505.4 300.6,1511.4 C298.3,1516.8 297.6,1523.7 297.6,1529.6 C297.6,1531.4 297.7,1533.1 297.8,1534.7 C298,1538.3 298.7,1544.1 299.3,1547.7 C299.3,1547.8 299.6,1549.3 300,1551.9 L299.3,1552.6 C298.3,1553.6 297.1,1554.7 295.7,1556.1 C294.8,1557 293.9,1557.8 292.9,1558.8 C284.4,1567 271.6,1579.4 271.6,1598.5 C271.6,1603.2 272.5,1607.6 274.3,1611.6 C275.9,1615.2 278.2,1618.5 281.1,1621.4 C288.6,1628.8 298.8,1632 305.9,1632 L306.5,1632 C309.4,1631.9 312.1,1631.6 314.5,1631.2 C316.3,1640.8 317.5,1647.9 317.5,1653.2 C317.5,1659.7 315.9,1663.6 312,1666.4 C309.6,1668.1 306.7,1669.2 303.6,1669.3 L302.8,1669.3 C301.3,1669.3 298.8,1668.9 297.3,1668.5 C297.3,1668.5 297,1668.4 297,1668.2 C297,1668 297.4,1668 297.4,1668 C299.3,1667.6 302.9,1666.3 305.3,1663 C306.4,1661.5 307.1,1659.2 307.1,1656.7 C307.1,1655.1 306.8,1653.4 306.1,1651.9 C305,1649.5 302.4,1646.5 296.8,1646.1 L295.7,1646.1 C293.6,1646.1 291.8,1646.6 290.1,1647.6 C288.3,1648.7 286.7,1650.4 285.7,1652.4 C284.6,1654.4 284.1,1656.6 284.1,1658.8 C284.1,1661.7 285,1664.4 286.8,1666.6 C289.8,1670.2 294.5,1672.5 299.9,1673.1 C300.6,1673.2 301.7,1673.3 302.4,1673.3 C306.8,1673.3 311.2,1672.1 314.8,1669.9 C318.5,1667.3 320.6,1663.3 321.3,1657.7 C321.5,1656.4 321.5,1655 321.5,1653.5 C321.5,1649.6 321,1644.9 320,1639.1 C319.6,1637 319.2,1634 318.5,1630.2 C324.3,1628.3 328.4,1624.6 332.2,1618.8 C334.5,1614.8 335.6,1610.7 335.6,1606.4 C335.6,1604.5 335.4,1602.6 335,1600.7 M304.8,1522.8 C306.6,1517.1 309.3,1513.7 311.3,1512 C313.1,1510.5 314.7,1509.8 315.6,1509.8 C315.7,1509.8 315.9,1509.9 316,1509.9 C316.3,1510 316.7,1510.5 317.1,1511.2 C318,1513 318.9,1516.3 318.9,1520 C318.9,1521.9 318.7,1523.9 318.1,1525.7 C315.9,1532.5 311.3,1539.8 304.3,1547.5 C304.1,1546.4 303.9,1545.4 303.8,1544.4 C303.3,1541.2 303,1538 303,1535.1 C303,1530.6 303.6,1526.5 304.8,1522.8 M300.8,1626.9 C296.2,1625.7 291.7,1623.2 287.9,1619.7 C286.6,1618.5 284.8,1616.3 283.3,1612.9 C282,1609.9 281.3,1606.8 281.3,1603.4 L281.3,1602.7 C281.4,1598 282.7,1593.2 285.2,1588.4 C288.1,1582.8 292.6,1577.3 298.7,1572 C300.2,1570.7 301.6,1569.4 302.9,1568.1 C303.7,1572.4 304.4,1577.1 305.3,1582 C301.4,1583.3 296.7,1586.3 293.6,1592 C291.2,1596.5 290.5,1600.4 290.5,1603.6 C290.5,1605.1 290.7,1606.5 290.9,1607.6 C291.8,1612.1 294.4,1615.8 297.9,1617.9 C298.7,1618.4 302,1620.1 304,1620.1 C304.3,1620.1 304.6,1620.1 304.8,1620 C305.1,1619.9 305.4,1619.7 305.5,1619.4 C305.6,1619.2 305.6,1619 305.6,1618.8 C305.6,1618 304.8,1617.4 303.5,1616.6 C302.9,1616.2 302.2,1615.8 301.5,1615.3 C298.9,1613.3 297.4,1610.2 297.4,1606.8 C297.4,1605.8 297.6,1604.9 297.8,1603.9 C298.3,1601.9 300,1599.1 301.5,1597.7 C303.2,1596.2 305.2,1595 307.6,1594.4 C309.6,1605.6 311.7,1616.7 313.3,1625.1 C313.4,1625.8 313.6,1626.5 313.7,1627.2 C311.7,1627.6 309.7,1627.8 307.8,1627.8 C305.4,1627.8 303.1,1627.5 300.8,1626.9 M326.5,1616.7 C325.3,1619.9 322.8,1623.9 317.7,1626 C317.6,1625.6 317.6,1625.1 317.5,1624.7 C316,1615.9 314.1,1605 312.1,1593.7 L313.1,1593.7 C322.8,1593.7 326.7,1600.9 327.6,1605.5 C327.8,1606.4 327.9,1607.6 327.9,1608.9 C327.9,1611.2 327.5,1614 326.5,1616.7"/>
<path class="Clef" transform="matrix(0.80005,0,0,0.80005,981.958,1556.59)" d="M25.4,-25.1 C17.8,-25.1 11.7,-20.7 11.6,-20.7 C5.8,-16.4 3.5,-11.3 2.6,-7.8 C2.1,-6 1.9,-4.2 1.9,-2.5 C1.9,-0.1 2.3,2.1 3.2,4 C4.4,6.7 6.7,8.6 9.7,9.6 C10.9,10 12.2,10.2 13.5,10.2 C15.7,10.2 18,9.6 19.9,8.5 C23,6.8 24.9,3.2 24.9,-0.7 C24.9,-4.2 23.1,-7.4 20.1,-9.3 C18,-10.7 16,-11.1 14.3,-11.1 C13.1,-11.1 12,-10.9 11.1,-10.6 C10.1,-10.2 8.4,-9.2 7.6,-8.5 C7.9,-10.4 9.1,-13.3 10.2,-14.9 C11.3,-16.5 13.5,-18.5 15.2,-19.4 C17.7,-20.8 20.9,-21.4 24.4,-21.4 C34.6,-21.4 39.6,-13.2 39.6,3.6 C39.6,12.9 36.1,21.8 33.1,27.7 C29.8,34.3 25.4,40.6 21.5,44.1 C11.1,53.6 1.3,58.1 1.2,58.1 C1.2,58.1 -0.3,59 0.1,60.5 C0.4,61.5 1.3,61.7 1.9,61.7 C2,61.7 2.3,61.6 2.4,61.6 C2.5,61.6 13.9,56.9 23,49.8 C28.1,46.1 32.7,42.1 36.7,37.8 C40.3,33.9 43.4,29.7 45.9,25.5 C50.3,18 52.8,10.2 52.8,3.5 C52.8,-4.8 50.6,-11.7 46.5,-16.6 C41.8,-22.2 34.7,-25.1 25.4,-25.1 M56.8,-12.4 C56.8,-9.6 59,-7.4 61.6,-7.4 C64.2,-7.4 66.4,-9.6 66.4,-12.4 C66.4,-15.2 64.2,-17.5 61.6,-17.5 C59,-17.5 56.8,-15.2 56.8,-12.4 M56.8,12.3 C56.8,15.1 59,17.4 61.6,17.4 C64.2,17.4 66.4,15.1 66.4,12.3 C66.4,9.5 64.2,7.2 61.6,7.2 C59,7.2 56.8,9.5 56.8,12.3"/>
<path class="Clef" d="M335,725.641 C333.8,720.241 331.1,716.341 330.3,715.341 C327.1,711.041 323.1,708.241 318.4,706.841 C316.1,706.141 314,705.941 312,705.941 C311.3,705.941 310.6,705.941 309.9,706.041 C308.9,700.041 307.8,694.141 306.9,688.741 C312.5,682.541 316.2,676.641 318.6,672.241 C322.2,665.541 323.6,660.841 323.7,660.641 C324.9,657.641 325.6,653.841 325.6,649.341 C325.6,646.641 325.3,643.741 324.9,640.741 C323.8,633.641 321.6,626.941 319.1,623.241 C317.8,621.341 316.6,620.241 315.4,620.241 C314.2,620.241 311.7,621.441 308.8,624.241 C306.5,626.441 303.2,630.341 300.6,636.341 C298.3,641.741 297.6,648.641 297.6,654.541 C297.6,656.341 297.7,658.041 297.8,659.641 C298,663.241 298.7,669.041 299.3,672.641 C299.3,672.741 299.6,674.241 300,676.841 L299.3,677.541 C298.3,678.541 297.1,679.641 295.7,681.041 C294.8,681.941 293.9,682.741 292.9,683.741 C284.4,691.941 271.6,704.341 271.6,723.441 C271.6,728.141 272.5,732.541 274.3,736.541 C275.9,740.141 278.2,743.441 281.1,746.341 C288.6,753.741 298.8,756.941 305.9,756.941 L306.5,756.941 C309.4,756.841 312.1,756.541 314.5,756.141 C316.3,765.741 317.5,772.841 317.5,778.141 C317.5,784.641 315.9,788.541 312,791.341 C309.6,793.041 306.7,794.141 303.6,794.241 L302.8,794.241 C301.3,794.241 298.8,793.841 297.3,793.441 C297.3,793.441 297,793.341 297,793.141 C297,792.941 297.4,792.941 297.4,792.941 C299.3,792.541 302.9,791.241 305.3,787.941 C306.4,786.441 307.1,784.141 307.1,781.641 C307.1,780.041 306.8,778.341 306.1,776.841 C305,774.441 302.4,771.441 296.8,771.041 L295.7,771.041 C293.6,771.041 291.8,771.541 290.1,772.541 C288.3,773.641 286.7,775.341 285.7,777.341 C284.6,779.341 284.1,781.541 284.1,783.741 C284.1,786.641 285,789.341 286.8,791.541 C289.8,795.141 294.5,797.441 299.9,798.041 C300.6,798.141 301.7,798.241 302.4,798.241 C306.8,798.241 311.2,797.041 314.8,794.841 C318.5,792.241 320.6,788.241 321.3,782.641 C321.5,781.341 321.5,779.941 321.5,778.441 C321.5,774.541 321,769.841 320,764.041 C319.6,761.941 319.2,758.941 318.5,755.141 C324.3,753.241 328.4,749.541 332.2,743.741 C334.5,739.741 335.6,735.641 335.6,731.341 C335.6,729.441 335.4,727.541 335,725.641 M304.8,647.741 C306.6,642.041 309.3,638.641 311.3,636.941 C313.1,635.441 314.7,634.741 315.6,634.741 C315.7,634.741 315.9,634.841 316,634.841 C316.3,634.941 316.7,635.441 317.1,636.141 C318,637.941 318.9,641.241 318.9,644.941 C318.9,646.841 318.7,648.841 318.1,650.641 C315.9,657.441 311.3,664.741 304.3,672.441 C304.1,671.341 303.9,670.341 303.8,669.341 C303.3,666.141 303,662.941 303,660.041 C303,655.541 303.6,651.441 304.8,647.741 M300.8,751.841 C296.2,750.641 291.7,748.141 287.9,744.641 C286.6,743.441 284.8,741.241 283.3,737.841 C282,734.841 281.3,731.741 281.3,728.341 L281.3,727.641 C281.4,722.941 282.7,718.141 285.2,713.341 C288.1,707.741 292.6,702.241 298.7,696.941 C300.2,695.641 301.6,694.341 302.9,693.041 C303.7,697.341 304.4,702.041 305.3,706.941 C301.4,708.241 296.7,711.241 293.6,716.941 C291.2,721.441 290.5,725.341 290.5,728.541 C290.5,730.041 290.7,731.441 290.9,732.541 C291.8,737.041 294.4,740.741 297.9,742.841 C298.7,743.341 302,745.041 304,745.041 C304.3,745.041 304.6,745.041 304.8,744.941 C305.1,744.841 305.4,744.641 305.5,744.341 C305.6,744.141 305.6,743.941 305.6,743.741 C305.6,742.941 304.8,742.341 303.5,741.541 C302.9,741.141 302.2,740.741 301.5,740.241 C298.9,738.241 297.4,735.141 297.4,731.741 C297.4,730.741 297.6,729.841 297.8,728.841 C298.3,726.841 300,724.041 301.5,722.641 C303.2,721.141 305.2,719.941 307.6,719.341 C309.6,730.541 311.7,741.641 313.3,750.041 C313.4,750.741 313.6,751.441 313.7,752.141 C311.7,752.541 309.7,752.741 307.8,752.741 C305.4,752.741 303.1,752.441 300.8,751.841 M326.5,741.641 C325.3,744.841 322.8,748.841 317.7,750.941 C317.6,750.541 317.6,750.041 317.5,749.641 C316,740.841 314.1,729.941 312.1,718.641 L313.1,718.641 C322.8,718.641 326.7,725.841 327.6,730.441 C327.8,731.341 327.9,732.541 327.9,733.841 C327.9,736.141 327.5,738.941 326.5,741.641"/>
<path class="Clef" d="M335,1338.18 C333.8,1332.78 331.1,1328.88 330.3,1327.88 C327.1,1323.58 323.1,1320.78 318.4,1319.38 C316.1,1318.68 314,1318.48 312,1318.48 C311.3,1318.48 310.6,1318.48 309.9,1318.58 C308.9,1312.58 307.8,1306.68 306.9,1301.28 C312.5,1295.08 316.2,1289.18 318.6,1284.78 C322.2,1278.08 323.6,1273.38 323.7,1273.18 C324.9,1270.18 325.6,1266.38 325.6,1261.88 C325.6,1259.18 325.3,1256.28 324.9,1253.28 C323.8,1246.18 321.6,1239.48 319.1,1235.78 C317.8,1233.88 316.6,1232.78 315.4,1232.78 C314.2,1232.78 311.7,1233.98 308.8,1236.78 C306.5,1238.98 303.2,1242.88 300.6,1248.88 C298.3,1254.28 297.6,1261.18 297.6,1267.08 C297.6,1268.88 297.7,1270.58 297.8,1272.18 C298,1275.78 298.7,1281.58 299.3,1285.18 C299.3,1285.28 299.6,1286.78 300,1289.38 L299.3,1290.08 C298.3,1291.08 297.1,1292.18 295.7,1293.58 C294.8,1294.48 293.9,1295.28 292.9,1296.28 C284.4,1304.48 271.6,1316.88 271.6,1335.98 C271.6,1340.68 272.5,1345.08 274.3,1349.08 C275.9,1352.68 278.2,1355.98 281.1,1358.88 C288.6,1366.28 298.8,1369.48 305.9,1369.48 L306.5,1369.48 C309.4,1369.38 312.1,1369.08 314.5,1368.68 C316.3,1378.28 317.5,1385.38 317.5,1390.68 C317.5,1397.18 315.9,1401.08 312,1403.88 C309.6,1405.58 306.7,1406.68 303.6,1406.78 L302.8,1406.78 C301.3,1406.78 298.8,1406.38 297.3,1405.98 C297.3,1405.98 297,1405.88 297,1405.68 C297,1405.48 297.4,1405.48 297.4,1405.48 C299.3,1405.08 302.9,1403.78 305.3,1400.48 C306.4,1398.98 307.1,1396.68 307.1,1394.18 C307.1,1392.58 306.8,1390.88 306.1,1389.38 C305,1386.98 302.4,1383.98 296.8,1383.58 L295.7,1383.58 C293.6,1383.58 291.8,1384.08 290.1,1385.08 C288.3,1386.18 286.7,1387.88 285.7,1389.88 C284.6,1391.88 284.1,1394.08 284.1,1396.28 C284.1,1399.18 285,1401.88 286.8,1404.08 C289.8,1407.68 294.5,1409.98 299.9,1410.58 C300.6,1410.68 301.7,1410.78 302.4,1410.78 C306.8,1410.78 311.2,1409.58 314.8,1407.38 C318.5,1404.78 320.6,1400.78 321.3,1395.18 C321.5,1393.88 321.5,1392.48 321.5,1390.98 C321.5,1387.08 321,1382.38 320,1376.58 C319.6,1374.48 319.2,1371.48 318.5,1367.68 C324.3,1365.78 328.4,1362.08 332.2,1356.28 C334.5,1352.28 335.6,1348.18 335.6,1343.88 C335.6,1341.98 335.4,1340.08 335,1338.18 M304.8,1260.28 C306.6,1254.58 309.3,1251.18 311.3,1249.48 C313.1,1247.98 314.7,1247.28 315.6,1247.28 C315.7,1247.28 315.9,1247.38 316,1247.38 C316.3,1247.48 316.7,1247.98 317.1,1248.68 C318,1250.48 318.9,1253.78 318.9,1257.48 C318.9,1259.38 318.7,1261.38 318.1,1263.18 C315.9,1269.98 311.3,1277.28 304.3,1284.98 C304.1,1283.88 303.9,1282.88 303.8,1281.88 C303.3,1278.68 303,1275.48 303,1272.58 C303,1268.08 303.6,1263.98 304.8,1260.28 M300.8,1364.38 C296.2,1363.18 291.7,1360.68 287.9,1357.18 C286.6,1355.98 284.8,1353.78 283.3,1350.38 C282,1347.38 281.3,1344.28 281.3,1340.88 L281.3,1340.18 C281.4,1335.48 282.7,1330.68 285.2,1325.88 C288.1,1320.28 292.6,1314.78 298.7,1309.48 C300.2,1308.18 301.6,1306.88 302.9,1305.58 C303.7,1309.88 304.4,1314.58 305.3,1319.48 C301.4,1320.78 296.7,1323.78 293.6,1329.48 C291.2,1333.98 290.5,1337.88 290.5,1341.08 C290.5,1342.58 290.7,1343.98 290.9,1345.08 C291.8,1349.58 294.4,1353.28 297.9,1355.38 C298.7,1355.88 302,1357.58 304,1357.58 C304.3,1357.58 304.6,1357.58 304.8,1357.48 C305.1,1357.38 305.4,1357.18 305.5,1356.88 C305.6,1356.68 305.6,1356.48 305.6,1356.28 C305.6,1355.48 304.8,1354.88 303.5,1354.08 C302.9,1353.68 302.2,1353.28 301.5,1352.78 C298.9,1350.78 297.4,1347.68 297.4,1344.28 C297.4,1343.28 297.6,1342.38 297.8,1341.38 C298.3,1339.38 300,1336.58 301.5,1335.18 C303.2,1333.68 305.2,1332.48 307.6,1331.88 C309.6,1343.08 311.7,1354.18 313.3,1362.58 C313.4,1363.28 313.6,1363.98 313.7,1364.68 C311.7,1365.08 309.7,1365.28 307.8,1365.28 C305.4,1365.28 303.1,1364.98 300.8,1364.38 M326.5,1354.18 C325.3,1357.38 322.8,1361.38 317.7,1363.48 C317.6,1363.08 317.6,1362.58 317.5,1362.18 C316,1353.38 314.1,1342.48 312.1,1331.18 L313.1,1331.18 C322.8,1331.18 326.7,1338.38 327.6,1342.98 C327.8,1343.88 327.9,1345.08 327.9,1346.38 C327.9,1348.68 327.5,1351.48 326.5,1354.18"/>
<path class="TimeSig" d="M365.2,957.453 L382,957.453 L382,964.753 L373.9,964.753 C373.1,964.753 372.5,965.353 372.5,966.153 L372.5,968.053 C372.5,968.853 373.1,969.353 373.9,969.353 L403.6,969.353 C404.4,969.353 405,968.853 405,968.053 L405,966.153 C405,965.353 404.4,964.753 403.6,964.753 L394.8,964.753 L394.8,957.453 L403.6,957.453 C404.4,957.453 405,956.853 405,956.053 L405,954.253 C405,953.453 404.4,952.853 403.6,952.853 L394.8,952.853 L394.8,937.153 C394.8,936.653 394.4,936.153 394,935.953 L392.9,935.353 C392.7,935.253 392.4,935.253 392.2,935.253 C391.9,935.253 391.5,935.353 391.3,935.553 L382.4,943.753 C382.2,943.953 382,944.453 382,944.753 L382,952.853 L370.7,952.853 C370.7,952.853 381.6,941.053 393.2,925.553 C394,924.453 393.6,923.453 393.4,923.253 L391.3,921.053 C391.1,920.853 390.6,920.653 390.3,920.653 L375.7,920.653 C375,920.653 374.5,921.253 374.4,921.853 C374.4,921.853 373.9,929.053 371.3,937.053 C368.7,945.053 365.9,949.853 363.3,953.453 C363.3,953.453 362.8,954.453 363.1,955.153 C363.4,955.853 364.1,956.953 364.1,956.953 C364.1,956.953 364.4,957.453 365.2,957.453"/>
<path class="TimeSig" d="M365.2,1006.06 L382,1006.06 L382,1013.36 L373.9,1013.36 C373.1,1013.36 372.5,1013.96 372.5,1014.76 L372.5,1016.66 C372.5,1017.46 373.1,1017.96 373.9,1017.96 L403.6,1017.96 C404.4,1017.96 405,1017.46 405,1016.66 L405,1014.76 C405,1013.96 404.4,1013.36 403.6,1013.36 L394.8,1013.36 L394.8,1006.06 L403.6,1006.06 C404.4,1006.06 405,1005.46 405,1004.66 L405,1002.86 C405,1002.06 404.4,1001.46 403.6,1001.46 L394.8,1001.46 L394.8,985.758 C394.8,985.258 394.4,984.758 394,984.558 L392.9,983.958 C392.7,983.858 392.4,983.858 392.2,983.858 C391.9,983.858 391.5,983.958 391.3,984.158 L382.4,992.358 C382.2,992.558 382,993.058 382,993.358 L382,1001.46 L370.7,1001.46 C370.7,1001.46 381.6,989.658 393.2,974.158 C394,973.058 393.6,972.058 393.4,971.858 L391.3,969.658 C391.1,969.458 390.6,969.258 390.3,969.258 L375.7,969.258 C375,969.258 374.5,969.858 374.4,970.458 C374.4,970.458 373.9,977.658 371.3,985.658 C368.7,993.658 365.9,998.458 363.3,1002.06 C363.3,1002.06 362.8,1003.06 363.1,1003.76 C363.4,1004.46 364.1,1005.56 364.1,1005.56 C364.1,1005.56 364.4,1006.06 365.2,1006.06"/>
<path class="TimeSig" d="M365.2,694.937 L382,694.937 L382,702.237 L373.9,702.237 C373.1,702.237 372.5,702.837 372.5,703.637 L372.5,705.537 C372.5,706.337 373.1,706.837 373.9,706.837 L403.6,706.837 C404.4,706.837 405,706.337 405,705.537 L405,703.637 C405,702.837 404.4,702.237 403.6,702.237 L394.8,702.237 L394.8,694.937 L403.6,694.937 C404.4,694.937 405,694.337 405,693.537 L405,691.737 C405,690.937 404.4,690.337 403.6,690.337 L394.8,690.337 L394.8,674.637 C394.8,674.137 394.4,673.637 394,673.437 L392.9,672.837 C392.7,672.737 392.4,672.737 392.2,672.737 C391.9,672.737 391.5,672.837 391.3,673.037 L382.4,681.237 C382.2,681.437 382,681.937 382,682.237 L382,690.337 L370.7,690.337 C370.7,690.337 381.6,678.537 393.2,663.037 C394,661.937 393.6,660.937 393.4,660.737 L391.3,658.537 C391.1,658.337 390.6,658.137 390.3,658.137 L375.7,658.137 C375,658.137 374.5,658.737 374.4,659.337 C374.4,659.337 373.9,666.537 371.3,674.537 C368.7,682.537 365.9,687.337 363.3,690.937 C363.3,690.937 362.8,691.937 363.1,692.637 C363.4,693.337 364.1,694.437 364.1,694.437 C364.1,694.437 364.4,694.937 365.2,694.937"/>
<path class="TimeSig" d="M365.2,743.541 L382,743.541 L382,750.841 L373.9,750.841 C373.1,750.841 372.5,751.441 372.5,752.241 L372.5,754.141 C372.5,754.941 373.1,755.441 373.9,755.441 L403.6,755.441 C404.4,755.441 405,754.941 405,754.141 L405,752.241 C405,751.441 404.4,750.841 403.6,750.841 L394.8,750.841 L394.8,743.541 L403.6,743.541 C404.4,743.541 405,742.941 405,742.141 L405,740.341 C405,739.541 404.4,738.941 403.6,738.941 L394.8,738.941 L394.8,723.241 C394.8,722.741 394.4,722.241 394,722.041 L392.9,721.441 C392.7,721.341 392.4,721.341 392.2,721.341 C391.9,721.341 391.5,721.441 391.3,721.641 L382.4,729.841 C382.2,730.041 382,730.541 382,730.841 L382,738.941 L370.7,738.941 C370.7,738.941 381.6,727.141 393.2,711.641 C394,710.541 393.6,709.541 393.4,709.341 L391.3,707.141 C391.1,706.941 390.6,706.741 390.3,706.741 L375.7,706.741 C375,706.741 374.5,707.341 374.4,707.941 C374.4,707.941 373.9,715.141 371.3,723.141 C368.7,731.141 365.9,735.941 363.3,739.541 C363.3,739.541 362.8,740.541 363.1,741.241 C363.4,741.941 364.1,743.041 364.1,743.041 C364.1,743.041 364.4,743.541 365.2,743.541"/>
<path class="NoteDot" d="M2461.27,1619.1 C2461.27,1621.69 2463.38,1623.8 2465.97,1623.8 C2468.57,1623.8 2470.67,1621.69 2470.67,1619.1 C2470.67,1616.5 2468.57,1614.4 2465.97,1614.4 C2463.38,1614.4 2461.27,1616.5 2461.27,1619.1"/>
<path class="NoteDot" d="M2461.27,1431.58 C2461.27,1434.18 2463.38,1436.28 2465.97,1436.28 C2468.57,1436.28 2470.67,1434.18 2470.67,1431.58 C2470.67,1428.99 2468.57,1426.88 2465.97,1426.88 C2463.38,1426.88 2461.27,1428.99 2461.27,1431.58"/>
<path class="Page" d="M233.756,4057.02 L231.776,4057.02 L231.326,4059.31 C230.741,4062.24 230.381,4062.51 227.591,4062.51 L217.511,4062.51 C220.616,4059.27 221.651,4058.32 224.531,4056.07 C228.626,4052.92 230.381,4051.35 231.416,4050 C232.856,4048.02 233.576,4046.04 233.576,4043.83 C233.576,4038.7 229.346,4035.06 223.451,4035.06 C217.736,4035.06 213.371,4038.7 213.371,4043.52 C213.371,4046.35 214.811,4048.29 216.926,4048.29 C218.591,4048.29 219.716,4047.16 219.716,4045.54 C219.716,4044.42 219.086,4043.38 218.141,4042.98 C216.476,4042.3 216.386,4042.21 216.386,4041.63 C216.386,4040.95 216.836,4039.92 217.466,4039.15 C218.591,4037.76 220.436,4036.99 222.551,4036.99 C226.286,4036.99 228.491,4039.29 228.491,4043.07 C228.491,4046.4 226.916,4049.41 223.181,4053.37 C219.851,4056.88 217.781,4059.09 217.016,4059.94 C215.396,4061.83 214.586,4062.87 212.606,4065.48 L212.606,4066.74 L232.901,4066.74 L233.756,4057.02 "/>
<path class="Bracket" transform="matrix(3.62523,0,0,3.62523,214.469,1019.06)" d="M0.92002,-50 C2.69004,-51.88 6.2,-55.8 6.2,-63 C6.2,-72.1 2.25996,-81.32 2.25996,-86.97 C2.25996,-93.06 5.84004,-98.84 5.95,-99 C6.05996,-99.16 6.05,-99.39 5.94004,-99.46 C5.82998,-99.53 5.62002,-99.47 5.49004,-99.32 C5.35996,-99.17 0,-93.75 0,-85.6 C0,-76.75 3.5,-70.58 3.5,-59.07 C3.5,-56.89 2.55996,-53.36 0.1,-50.33 C-0.0799805,-50.17 -0.1,-49.89 0.0599609,-49.7 L0.0700195,-49.69 L0.1,-49.66 C2.55996,-46.63 3.5,-43.1 3.5,-40.92 C3.5,-29.4 0,-23.24 0,-14.39 C0,-6.25 5.35996,-0.8 5.49004,-0.659961 C5.62002,-0.52002 5.8,-0.42998 5.94004,-0.52002 C6.07998,-0.609961 6.07998,-0.77998 5.95,-0.97998 C5.82002,-1.17998 2.25996,-6.92002 2.25996,-13.01 C2.25996,-18.66 6.2,-27.9 6.2,-37 C6.2,-44.3 2.69004,-48.12 0.92002,-50"/>
<path class="Bracket" transform="matrix(3.62523,0,0,3.62523,214.469,1631.6)" d="M0.92002,-50 C2.69004,-51.88 6.2,-55.8 6.2,-63 C6.2,-72.1 2.25996,-81.32 2.25996,-86.97 C2.25996,-93.06 5.84004,-98.84 5.95,-99 C6.05996,-99.16 6.05,-99.39 5.94004,-99.46 C5.82998,-99.53 5.62002,-99.47 5.49004,-99.32 C5.35996,-99.17 0,-93.75 0,-85.6 C0,-76.75 3.5,-70.58 3.5,-59.07 C3.5,-56.89 2.55996,-53.36 0.1,-50.33 C-0.0799805,-50.17 -0.1,-49.89 0.0599609,-49.7 L0.0700195,-49.69 L0.1,-49.66 C2.55996,-46.63 3.5,-43.1 3.5,-40.92 C3.5,-29.4 0,-23.24 0,-14.39 C0,-6.25 5.35996,-0.8 5.49004,-0.659961 C5.62002,-0.52002 5.8,-0.42998 5.94004,-0.52002 C6.07998,-0.609961 6.07998,-0.77998 5.95,-0.97998 C5.82002,-1.17998 2.25996,-6.92002 2.25996,-13.01 C2.25996,-18.66 6.2,-27.9 6.2,-37 C6.2,-44.3 2.69004,-48.12 0.92002,-50"/>
</svg>