<?xml version="1.0" encoding="UTF-8" standalone="no"?>
<svg width="1000px" height="220px" viewBox="150 600 2700 500" xmlns="http://www.w3.org/2000/svg" xmlns:xlink="http://www.w3.org/1999/xlink" version="1.2" baseProfile="tiny">
 xmlns="http://www.w3.org/2000/svg" xmlns:xlink="http://www.w3.org/1999/xlink" version="1.2" baseProfile="tiny">
<title>exercises_scores (10)</title>
<desc>Generated by MuseScore 3.6.0</desc>
<polyline class="StaffLines" fill="none" stroke="#000000" stroke-width="2.75" stroke-linejoin="bevel" points="247.099,659.598 2764.63,659.598"/>
<polyline class="StaffLines" fill="none" stroke="#000000" stroke-width="2.75" stroke-linejoin="bevel" points="247.099,684.6 2764.63,684.6"/>
<polyline class="StaffLines" fill="none" stroke="#000000" stroke-width="2.75" stroke-linejoin="bevel" points="247.099,709.602 2764.63,709.602"/>
<polyline class="StaffLines" fill="none" stroke="#000000" stroke-width="2.75" stroke-linejoin="bevel" points="247.099,734.603 2764.63,734.603"/>
<polyline class="StaffLines" fill="none" stroke="#000000" stroke-width="2.75" stroke-linejoin="bevel" points="247.099,759.605 2764.63,759.605"/>
<polyline class="StaffLines" fill="none" stroke="#000000" stroke-width="2.75" stroke-linejoin="bevel" points="247.099,922.115 2764.63,922.115"/>
<polyline class="StaffLines" fill="none" stroke="#000000" stroke-width="2.75" stroke-linejoin="bevel" points="247.099,947.117 2764.63,947.117"/>
<polyline class="StaffLines" fill="none" stroke="#000000" stroke-width="2.75" stroke-linejoin="bevel" points="247.099,972.118 2764.63,972.118"/>
<polyline class="StaffLines" fill="none" stroke="#000000" stroke-width="2.75" stroke-linejoin="bevel" points="247.099,997.12 2764.63,997.12"/>
<polyline class="StaffLines" fill="none" stroke="#000000" stroke-width="2.75" stroke-linejoin="bevel" points="247.099,1022.12 2764.63,1022.12"/>
<path class="Text" d="M242.312,216.2 L240.092,216.2 L237.692,219.8 C234.812,217.1 231.032,215.66 226.772,215.66 C218.852,215.66 213.632,220.64 213.632,228.2 C213.632,234.74 216.872,237.98 225.692,240.26 L231.392,241.7 C235.832,242.84 236.252,242.96 237.512,243.92 C239.312,245.3 240.272,247.28 240.272,249.62 C240.272,252.02 239.372,254 237.572,255.68 C235.592,257.36 233.612,258.02 230.312,258.02 C225.872,258.02 222.692,256.64 219.872,253.52 C217.352,250.76 216.092,247.88 215.192,243.26 L212.612,243.26 L212.852,260.36 L215.192,260.36 L217.892,256.28 C221.912,259.58 225.212,260.78 230.492,260.78 C239.312,260.78 244.952,255.62 244.952,247.58 C244.952,243.8 243.752,240.68 241.352,238.4 C239.732,236.84 237.392,235.82 232.592,234.62 L226.172,233 C220.832,231.62 218.312,229.28 218.312,225.62 C218.312,221.42 221.732,218.54 226.832,218.54 C231.032,218.54 234.452,220.34 236.852,223.76 C238.592,226.22 239.732,228.74 240.452,231.8 L243.032,231.8 L242.312,216.2 M271.162,251.06 C269.242,255.38 267.202,257.12 264.082,257.12 C259.282,257.12 256.282,252.74 256.282,245.72 C256.282,238.4 259.222,233.6 263.662,233.6 C265.462,233.6 267.022,234.44 267.022,235.4 C267.022,235.58 266.962,235.76 266.662,236.12 C265.702,237.26 265.462,237.86 265.462,238.88 C265.462,240.86 266.962,242.24 269.062,242.24 C271.222,242.24 272.722,240.56 272.722,238.16 C272.722,234.08 268.702,231.02 263.362,231.02 C255.562,231.02 249.982,237.38 249.982,246.38 C249.982,254.9 255.082,260.78 262.522,260.78 C267.862,260.78 270.922,258.32 273.502,251.96 L271.162,251.06 M301.75,240.56 C301.75,236.78 301.09,234.86 299.35,233.42 C297.37,231.8 294.43,231.02 290.59,231.02 C283.81,231.02 278.89,234.2 278.89,238.58 C278.89,240.8 280.27,242.24 282.37,242.24 C284.29,242.24 285.61,240.98 285.61,239.18 C285.61,238.4 285.31,237.56 284.71,236.72 C284.35,236.3 284.29,236.18 284.29,235.88 C284.29,234.68 286.69,233.6 289.57,233.6 C291.49,233.6 293.59,234.2 294.55,235.1 C295.69,236.06 296.11,237.5 296.11,240.2 L296.11,242.54 C289.87,243.62 287.89,244.1 284.95,245.24 C279.73,247.16 277.27,249.92 277.27,253.76 C277.27,258.08 280.63,260.78 285.97,260.78 C290.11,260.78 293.83,259.1 296.41,256.04 C297.37,259.1 298.87,260.3 301.69,260.3 C304.39,260.3 307.21,258.56 307.21,256.82 C307.21,256.4 306.97,256.1 306.61,256.1 C306.37,256.1 306.13,256.16 305.71,256.34 C304.87,256.7 304.51,256.76 304.03,256.76 C302.35,256.76 301.75,255.68 301.75,252.62 L301.75,240.56 M296.11,247.88 C296.11,251.48 295.93,252.32 294.91,253.88 C293.41,256.1 290.71,257.6 288.07,257.6 C285.31,257.6 283.33,255.62 283.33,252.92 C283.33,250.4 284.59,248.6 287.23,247.34 C289.09,246.5 291.43,245.9 296.11,245.12 L296.11,247.88 M320.229,215.66 L309.129,216.32 L309.129,218.9 L312.069,218.9 C314.289,218.96 314.589,219.32 314.589,221.9 L314.589,252.5 L314.589,255.32 C314.529,256.22 314.469,256.58 314.229,256.88 C313.809,257.42 312.669,257.66 310.089,257.72 L309.669,257.72 L309.669,259.88 L325.209,259.88 L325.209,257.72 L324.789,257.72 C320.769,257.6 320.229,257.3 320.229,255.14 L320.229,252.5 L320.229,215.66 M354.78,246.38 C354.84,237.38 349.74,231.02 342.42,231.02 C334.74,231.02 328.98,237.68 328.98,246.68 C328.98,255.14 334.44,260.78 342.54,260.78 C348.3,260.78 352.32,257.96 354.78,252.26 L352.68,251.12 C350.22,255.74 347.7,257.54 343.68,257.54 C340.62,257.54 338.4,256.28 336.84,253.58 C335.76,251.78 335.28,249.68 335.34,246.38 L354.78,246.38 M335.4,243.8 C335.4,241.94 335.64,240.62 336.24,238.94 C337.5,235.34 339.42,233.6 342.36,233.6 C345.96,233.6 348.36,236.78 348.36,241.64 C348.36,243.32 347.82,243.8 345.9,243.8 L335.4,243.8 M366.601,253.22 C364.501,253.22 362.821,254.9 362.821,256.94 C362.821,259.04 364.501,260.72 366.541,260.72 C368.641,260.72 370.321,259.04 370.321,256.94 C370.321,254.9 368.641,253.22 366.601,253.22 M366.601,231.5 C364.501,231.5 362.821,233.18 362.821,235.28 C362.821,237.32 364.501,239 366.541,239 C368.641,239 370.321,237.32 370.321,235.22 C370.321,233.18 368.641,231.5 366.601,231.5 M392.745,259.88 L412.905,259.88 C418.245,259.88 422.325,259.04 425.505,257.24 C431.565,253.82 434.925,246.98 434.925,237.98 C434.925,229.7 431.925,223.22 426.405,219.62 C423.105,217.52 418.665,216.56 411.825,216.56 L392.745,216.56 L392.745,219.38 L393.885,219.38 C397.245,219.44 398.385,219.62 398.865,220.22 C399.225,220.76 399.225,220.88 399.225,223.94 L399.225,252.5 C399.225,255.56 399.225,255.68 398.865,256.22 C398.385,256.82 397.245,257 393.885,257.06 L392.745,257.06 L392.745,259.88 M409.365,257.06 C406.305,257.06 405.945,256.7 405.945,253.76 L405.945,222.74 C405.945,219.8 406.365,219.38 409.365,219.38 L412.485,219.38 C422.745,219.38 427.005,224.96 427.005,238.22 C427.005,251.66 423.165,257.06 413.445,257.06 L409.365,257.06 M457.597,242.18 C457.117,239.06 455.269,236.18 451.189,236.18 C447.109,236.18 444.955,238.622 444.559,239.096 L444.829,213.71 C444.829,213.706 444.829,213.701 444.829,213.698 C444.829,213.092 444.337,212.6 443.731,212.6 L443.731,212.6 L442.795,212.6 C442.542,212.601 442.193,212.746 442.015,212.924 C441.839,213.098 441.696,213.441 441.696,213.689 C441.696,213.695 441.696,213.704 441.697,213.71 L442.123,261.314 C442.129,261.913 442.621,262.4 443.22,262.4 L443.221,262.4 C443.414,262.399 443.699,262.308 443.857,262.196 C444.169,262.046 449.245,259.55 453.553,254.702 C457.231,250.568 458.197,245.72 457.597,242.18 M452.167,245.324 C452.161,246.482 451.873,250.166 449.869,253.166 C448.495,255.224 445.861,257.396 444.349,258.554 L444.517,243.104 C444.697,242.36 445.891,240.086 449.071,240.098 C452.545,240.11 452.167,244.166 452.167,245.324 M490.408,231.92 L479.728,232.58 L479.728,235.16 L482.188,235.16 C484.468,235.22 484.768,235.58 484.768,238.16 L484.768,252.5 L484.768,254.84 L484.768,255.32 C484.708,256.22 484.648,256.58 484.408,256.88 C483.988,257.42 482.848,257.66 480.268,257.72 L480.028,257.72 L480.028,259.88 L495.148,259.88 L495.148,257.72 L494.908,257.72 C490.948,257.6 490.408,257.3 490.408,255.08 L490.408,252.5 L490.408,243.98 C490.408,238.64 493.348,234.68 497.248,234.68 C500.668,234.68 502.408,237.14 502.408,242 L502.408,252.5 L502.408,255.38 C502.348,256.16 502.288,256.58 501.988,256.88 C501.628,257.42 500.428,257.66 497.848,257.72 L497.608,257.72 L497.608,259.88 L512.788,259.88 L512.788,257.72 L512.548,257.72 C508.588,257.6 508.048,257.3 508.048,255.14 L508.048,252.5 L508.048,244.52 C508.048,238.52 510.748,234.68 514.948,234.68 C518.368,234.68 520.048,237.26 520.048,242.66 L520.048,252.5 L520.048,255.32 C519.988,256.16 519.928,256.58 519.628,256.88 C519.268,257.42 518.068,257.66 515.488,257.72 L515.248,257.72 L515.248,259.88 L530.428,259.88 L530.428,257.72 L530.188,257.72 C526.228,257.6 525.688,257.3 525.688,255.08 L525.688,252.5 L525.688,241.46 C525.688,237.74 525.328,236.48 523.768,234.44 C522.028,232.22 519.568,231.02 516.688,231.02 C512.788,231.02 509.908,232.88 507.328,237.02 C506.308,233.42 503.068,231.02 499.048,231.02 C495.388,231.02 492.748,232.76 490.408,236.54 L490.408,231.92 M558.797,240.56 C558.797,236.78 558.137,234.86 556.397,233.42 C554.417,231.8 551.477,231.02 547.637,231.02 C540.857,231.02 535.937,234.2 535.937,238.58 C535.937,240.8 537.317,242.24 539.417,242.24 C541.337,242.24 542.657,240.98 542.657,239.18 C542.657,238.4 542.357,237.56 541.757,236.72 C541.397,236.3 541.337,236.18 541.337,235.88 C541.337,234.68 543.737,233.6 546.617,233.6 C548.537,233.6 550.637,234.2 551.597,235.1 C552.737,236.06 553.157,237.5 553.157,240.2 L553.157,242.54 C546.917,243.62 544.937,244.1 541.997,245.24 C536.777,247.16 534.317,249.92 534.317,253.76 C534.317,258.08 537.677,260.78 543.017,260.78 C547.157,260.78 550.877,259.1 553.457,256.04 C554.417,259.1 555.917,260.3 558.737,260.3 C561.437,260.3 564.257,258.56 564.257,256.82 C564.257,256.4 564.017,256.1 563.657,256.1 C563.417,256.1 563.177,256.16 562.757,256.34 C561.917,256.7 561.557,256.76 561.077,256.76 C559.397,256.76 558.797,255.68 558.797,252.62 L558.797,240.56 M553.157,247.88 C553.157,251.48 552.977,252.32 551.957,253.88 C550.457,256.1 547.757,257.6 545.117,257.6 C542.357,257.6 540.377,255.62 540.377,252.92 C540.377,250.4 541.637,248.6 544.277,247.34 C546.137,246.5 548.477,245.9 553.157,245.12 L553.157,247.88 M575.722,231.92 L564.022,232.58 L564.022,235.16 L567.502,235.16 C569.782,235.22 570.082,235.58 570.082,238.16 L570.082,258.5 C570.082,263.36 569.782,265.64 568.942,267.38 C568.342,268.58 566.962,269.48 565.642,269.48 C564.802,269.48 564.142,269.12 564.142,268.7 C564.142,268.46 564.202,268.34 564.442,267.74 C564.742,267.14 564.862,266.72 564.862,266.3 C564.862,264.8 563.422,263.48 561.742,263.48 C559.822,263.48 558.382,264.98 558.382,267.08 C558.382,270.02 561.082,272 565.102,272 C568.462,272 571.522,270.56 573.262,268.1 C575.122,265.46 575.722,262.4 575.722,255.62 L575.722,231.92 M572.902,216.98 C570.982,216.98 569.422,218.54 569.422,220.46 C569.422,222.38 570.982,223.94 572.842,223.94 C574.822,223.94 576.382,222.38 576.382,220.46 C576.382,218.54 574.822,216.98 572.902,216.98 M596.172,231.02 C588.792,231.02 583.092,237.56 583.092,245.96 C583.092,254.18 588.852,260.78 596.052,260.78 C603.252,260.78 609.012,254.18 609.012,245.9 C609.012,237.68 603.252,231.02 596.172,231.02 M596.172,233.6 C600.372,233.6 602.712,237.98 602.712,245.9 C602.712,253.88 600.372,258.2 596.052,258.2 C591.732,258.2 589.392,253.88 589.392,245.96 C589.392,237.8 591.672,233.6 596.172,233.6 M622.932,231.92 L612.312,232.58 L612.312,235.16 L614.772,235.16 C617.052,235.22 617.352,235.58 617.352,238.16 L617.352,252.5 L617.352,255.32 C617.292,256.22 617.232,256.58 616.992,256.88 C616.572,257.42 615.372,257.66 612.792,257.72 L612.552,257.72 L612.552,259.88 L628.572,259.88 L628.572,257.72 L627.492,257.72 C623.472,257.6 622.932,257.3 622.932,255.14 L622.932,252.5 L622.932,251.9 C622.992,241.82 626.592,234.14 631.272,233.9 C630.432,234.86 630.192,235.46 630.192,236.6 C630.192,238.52 631.572,239.9 633.492,239.9 C635.712,239.9 637.152,238.28 637.152,235.88 C637.152,232.94 635.112,231.02 631.932,231.02 C628.152,231.02 624.912,234.02 622.932,239.36 L622.932,231.92 "/>
<polyline class="BarLine" fill="none" stroke="#000000" stroke-width="4.50" stroke-linejoin="bevel" points="249.349,920.74 249.349,1023.5"/>
<polyline class="BarLine" fill="none" stroke="#000000" stroke-width="4.50" stroke-linejoin="bevel" points="1006.74,920.74 1006.74,1023.5"/>
<polyline class="BarLine" fill="none" stroke="#000000" stroke-width="4.50" stroke-linejoin="bevel" points="1607.38,920.74 1607.38,1023.5"/>
<polyline class="BarLine" fill="none" stroke="#000000" stroke-width="4.50" stroke-linejoin="bevel" points="2218.43,920.74 2218.43,1023.5"/>
<polyline class="BarLine" fill="none" stroke="#000000" stroke-width="4.50" stroke-linejoin="bevel" points="2734.88,920.74 2734.88,1023.5"/>
<polyline class="BarLine" fill="none" stroke="#000000" stroke-width="13.75" stroke-linejoin="bevel" points="2757.75,920.74 2757.75,1023.5"/>
<polyline class="BarLine" fill="none" stroke="#000000" stroke-width="4.50" stroke-linejoin="bevel" points="249.349,658.223 249.349,922.115"/>
<polyline class="BarLine" fill="none" stroke="#000000" stroke-width="4.50" stroke-linejoin="bevel" points="1006.74,658.223 1006.74,922.115"/>
<polyline class="BarLine" fill="none" stroke="#000000" stroke-width="4.50" stroke-linejoin="bevel" points="1607.38,658.223 1607.38,922.115"/>
<polyline class="BarLine" fill="none" stroke="#000000" stroke-width="4.50" stroke-linejoin="bevel" points="2218.43,658.223 2218.43,922.115"/>
<polyline class="BarLine" fill="none" stroke="#000000" stroke-width="4.50" stroke-linejoin="bevel" points="2734.88,658.223 2734.88,922.115"/>
<polyline class="BarLine" fill="none" stroke="#000000" stroke-width="13.75" stroke-linejoin="bevel" points="2757.75,658.223 2757.75,922.115"/>
<path class="Accidental" d="M475.102,964.218 C474.502,960.318 472.102,956.618 467.002,956.618 C462.002,956.618 459.102,959.718 458.602,960.318 L459.002,928.218 C459.002,927.418 458.402,926.818 457.602,926.818 L456.402,926.818 C455.602,926.818 455.002,927.418 455.002,928.218 L455.502,988.318 C455.502,989.118 456.102,989.718 456.902,989.718 C457.102,989.718 457.502,989.618 457.702,989.518 C458.102,989.318 464.602,986.118 470.002,980.018 C473.802,975.718 475.302,970.818 475.302,966.718 C475.302,965.818 475.202,965.018 475.102,964.218 M468.202,968.118 C468.202,969.618 467.802,974.218 465.302,978.018 C463.602,980.618 460.202,983.318 458.302,984.818 L458.602,965.318 C458.802,964.418 460.302,961.518 464.302,961.518 C467.902,961.518 468.202,964.918 468.202,967.018 L468.202,968.118 "/>
<path class="Accidental" d="M605.837,951.717 C605.237,947.817 602.837,944.117 597.737,944.117 C592.737,944.117 589.837,947.217 589.337,947.817 L589.737,915.717 C589.737,914.917 589.137,914.317 588.337,914.317 L587.137,914.317 C586.337,914.317 585.737,914.917 585.737,915.717 L586.237,975.817 C586.237,976.617 586.837,977.217 587.637,977.217 C587.837,977.217 588.237,977.117 588.437,977.017 C588.837,976.817 595.337,973.617 600.737,967.517 C604.537,963.217 606.037,958.317 606.037,954.217 C606.037,953.317 605.937,952.517 605.837,951.717 M598.937,955.617 C598.937,957.117 598.537,961.717 596.037,965.517 C594.337,968.117 590.937,970.817 589.037,972.317 L589.337,952.817 C589.537,951.917 591.037,949.017 595.037,949.017 C598.637,949.017 598.937,952.417 598.937,954.517 L598.937,955.617 "/>
<path class="Accidental" d="M867.306,926.716 C866.706,922.816 864.306,919.116 859.206,919.116 C854.206,919.116 851.306,922.216 850.806,922.816 L851.206,890.716 C851.206,889.916 850.606,889.316 849.806,889.316 L848.606,889.316 C847.806,889.316 847.206,889.916 847.206,890.716 L847.706,950.816 C847.706,951.616 848.306,952.216 849.106,952.216 C849.306,952.216 849.706,952.116 849.906,952.016 C850.306,951.816 856.806,948.616 862.206,942.516 C866.006,938.216 867.506,933.316 867.506,929.216 C867.506,928.316 867.406,927.516 867.306,926.716 M860.406,930.616 C860.406,932.116 860.006,936.716 857.506,940.516 C855.806,943.116 852.406,945.816 850.506,947.316 L850.806,927.816 C851.006,926.916 852.506,924.016 856.506,924.016 C860.106,924.016 860.406,927.416 860.406,929.516 L860.406,930.616 "/>
<path class="Accidental" d="M1050.84,914.215 C1050.24,910.315 1047.84,906.615 1042.74,906.615 C1037.74,906.615 1034.84,909.715 1034.34,910.315 L1034.74,878.215 C1034.74,877.415 1034.14,876.815 1033.34,876.815 L1032.14,876.815 C1031.34,876.815 1030.74,877.415 1030.74,878.215 L1031.24,938.315 C1031.24,939.115 1031.84,939.715 1032.64,939.715 C1032.84,939.715 1033.24,939.615 1033.44,939.515 C1033.84,939.315 1040.34,936.115 1045.74,930.015 C1049.54,925.715 1051.04,920.815 1051.04,916.715 C1051.04,915.815 1050.94,915.015 1050.84,914.215 M1043.94,918.115 C1043.94,919.615 1043.54,924.215 1041.04,928.015 C1039.34,930.615 1035.94,933.315 1034.04,934.815 L1034.34,915.315 C1034.54,914.415 1036.04,911.515 1040.04,911.515 C1043.64,911.515 1043.94,914.915 1043.94,917.015 L1043.94,918.115 "/>
<path class="Accidental" d="M1187.8,901.714 C1187.2,897.814 1184.8,894.114 1179.7,894.114 C1174.7,894.114 1171.8,897.214 1171.3,897.814 L1171.7,865.714 C1171.7,864.914 1171.1,864.314 1170.3,864.314 L1169.1,864.314 C1168.3,864.314 1167.7,864.914 1167.7,865.714 L1168.2,925.814 C1168.2,926.614 1168.8,927.214 1169.6,927.214 C1169.8,927.214 1170.2,927.114 1170.4,927.014 C1170.8,926.814 1177.3,923.614 1182.7,917.514 C1186.5,913.214 1188,908.314 1188,904.214 C1188,903.314 1187.9,902.514 1187.8,901.714 M1180.9,905.614 C1180.9,907.114 1180.5,911.714 1178,915.514 C1176.3,918.114 1172.9,920.814 1171,922.314 L1171.3,902.814 C1171.5,901.914 1173,899.014 1177,899.014 C1180.6,899.014 1180.9,902.414 1180.9,904.514 L1180.9,905.614 "/>
<path class="Accidental" d="M1452.97,876.713 C1452.37,872.813 1449.97,869.113 1444.87,869.113 C1439.87,869.113 1436.97,872.213 1436.47,872.813 L1436.87,840.713 C1436.87,839.913 1436.27,839.313 1435.47,839.313 L1434.27,839.313 C1433.47,839.313 1432.87,839.913 1432.87,840.713 L1433.37,900.813 C1433.37,901.613 1433.97,902.213 1434.77,902.213 C1434.97,902.213 1435.37,902.113 1435.57,902.013 C1435.97,901.813 1442.47,898.613 1447.87,892.513 C1451.67,888.213 1453.17,883.313 1453.17,879.213 C1453.17,878.313 1453.07,877.513 1452.97,876.713 M1446.07,880.613 C1446.07,882.113 1445.67,886.713 1443.17,890.513 C1441.47,893.113 1438.07,895.813 1436.17,897.313 L1436.47,877.813 C1436.67,876.913 1438.17,874.013 1442.17,874.013 C1445.77,874.013 1446.07,877.413 1446.07,879.513 L1446.07,880.613 "/>
<path class="Accidental" d="M1785.76,901.714 C1785.16,897.814 1782.76,894.114 1777.66,894.114 C1772.66,894.114 1769.76,897.214 1769.26,897.814 L1769.66,865.714 C1769.66,864.914 1769.06,864.314 1768.26,864.314 L1767.06,864.314 C1766.26,864.314 1765.66,864.914 1765.66,865.714 L1766.16,925.814 C1766.16,926.614 1766.76,927.214 1767.56,927.214 C1767.76,927.214 1768.16,927.114 1768.36,927.014 C1768.76,926.814 1775.26,923.614 1780.66,917.514 C1784.46,913.214 1785.96,908.314 1785.96,904.214 C1785.96,903.314 1785.86,902.514 1785.76,901.714 M1778.86,905.614 C1778.86,907.114 1778.46,911.714 1775.96,915.514 C1774.26,918.114 1770.86,920.814 1768.96,922.314 L1769.26,902.814 C1769.46,901.914 1770.96,899.014 1774.96,899.014 C1778.56,899.014 1778.86,902.414 1778.86,904.514 L1778.86,905.614 "/>
<path class="Accidental" d="M1927.08,914.215 C1926.48,910.315 1924.08,906.615 1918.98,906.615 C1913.98,906.615 1911.08,909.715 1910.58,910.315 L1910.98,878.215 C1910.98,877.415 1910.38,876.815 1909.58,876.815 L1908.38,876.815 C1907.58,876.815 1906.98,877.415 1906.98,878.215 L1907.48,938.315 C1907.48,939.115 1908.08,939.715 1908.88,939.715 C1909.08,939.715 1909.48,939.615 1909.68,939.515 C1910.08,939.315 1916.58,936.115 1921.98,930.015 C1925.78,925.715 1927.28,920.815 1927.28,916.715 C1927.28,915.815 1927.18,915.015 1927.08,914.215 M1920.18,918.115 C1920.18,919.615 1919.78,924.215 1917.28,928.015 C1915.58,930.615 1912.18,933.315 1910.28,934.815 L1910.58,915.315 C1910.78,914.415 1912.28,911.515 1916.28,911.515 C1919.88,911.515 1920.18,914.915 1920.18,917.015 L1920.18,918.115 "/>
<path class="Accidental" d="M2068.41,926.716 C2067.81,922.816 2065.41,919.116 2060.31,919.116 C2055.31,919.116 2052.41,922.216 2051.91,922.816 L2052.31,890.716 C2052.31,889.916 2051.71,889.316 2050.91,889.316 L2049.71,889.316 C2048.91,889.316 2048.31,889.916 2048.31,890.716 L2048.81,950.816 C2048.81,951.616 2049.41,952.216 2050.21,952.216 C2050.41,952.216 2050.81,952.116 2051.01,952.016 C2051.41,951.816 2057.91,948.616 2063.31,942.516 C2067.11,938.216 2068.61,933.316 2068.61,929.216 C2068.61,928.316 2068.51,927.516 2068.41,926.716 M2061.51,930.616 C2061.51,932.116 2061.11,936.716 2058.61,940.516 C2056.91,943.116 2053.51,945.816 2051.61,947.316 L2051.91,927.816 C2052.11,926.916 2053.61,924.016 2057.61,924.016 C2061.21,924.016 2061.51,927.416 2061.51,929.516 L2061.51,930.616 "/>
<path class="Accidental" d="M2379.91,951.717 C2379.31,947.817 2376.91,944.117 2371.81,944.117 C2366.81,944.117 2363.91,947.217 2363.41,947.817 L2363.81,915.717 C2363.81,914.917 2363.21,914.317 2362.41,914.317 L2361.21,914.317 C2360.41,914.317 2359.81,914.917 2359.81,915.717 L2360.31,975.817 C2360.31,976.617 2360.91,977.217 2361.71,977.217 C2361.91,977.217 2362.31,977.117 2362.51,977.017 C2362.91,976.817 2369.41,973.617 2374.81,967.517 C2378.61,963.217 2380.11,958.317 2380.11,954.217 C2380.11,953.317 2380.01,952.517 2379.91,951.717 M2373.01,955.617 C2373.01,957.117 2372.61,961.717 2370.11,965.517 C2368.41,968.117 2365.01,970.817 2363.11,972.317 L2363.41,952.817 C2363.61,951.917 2365.11,949.017 2369.11,949.017 C2372.71,949.017 2373.01,952.417 2373.01,954.517 L2373.01,955.617 "/>
<path class="Accidental" d="M2513.09,964.218 C2512.49,960.318 2510.09,956.618 2504.99,956.618 C2499.99,956.618 2497.09,959.718 2496.59,960.318 L2496.99,928.218 C2496.99,927.418 2496.39,926.818 2495.59,926.818 L2494.39,926.818 C2493.59,926.818 2492.99,927.418 2492.99,928.218 L2493.49,988.318 C2493.49,989.118 2494.09,989.718 2494.89,989.718 C2495.09,989.718 2495.49,989.618 2495.69,989.518 C2496.09,989.318 2502.59,986.118 2507.99,980.018 C2511.79,975.718 2513.29,970.818 2513.29,966.718 C2513.29,965.818 2513.19,965.018 2513.09,964.218 M2506.19,968.118 C2506.19,969.618 2505.79,974.218 2503.29,978.018 C2501.59,980.618 2498.19,983.318 2496.29,984.818 L2496.59,965.318 C2496.79,964.418 2498.29,961.518 2502.29,961.518 C2505.89,961.518 2506.19,964.918 2506.19,967.018 L2506.19,968.118 "/>
<path class="Accidental" d="M475.102,764.206 C474.502,760.306 472.102,756.606 467.002,756.606 C462.002,756.606 459.102,759.706 458.602,760.306 L459.002,728.206 C459.002,727.406 458.402,726.806 457.602,726.806 L456.402,726.806 C455.602,726.806 455.002,727.406 455.002,728.206 L455.502,788.306 C455.502,789.106 456.102,789.706 456.902,789.706 C457.102,789.706 457.502,789.606 457.702,789.506 C458.102,789.306 464.602,786.106 470.002,780.006 C473.802,775.706 475.302,770.806 475.302,766.706 C475.302,765.806 475.202,765.006 475.102,764.206 M468.202,768.106 C468.202,769.606 467.802,774.206 465.302,778.006 C463.602,780.606 460.202,783.306 458.302,784.806 L458.602,765.306 C458.802,764.406 460.302,761.506 464.302,761.506 C467.902,761.506 468.202,764.906 468.202,767.006 L468.202,768.106 "/>
<path class="Accidental" d="M605.837,751.705 C605.237,747.805 602.837,744.105 597.737,744.105 C592.737,744.105 589.837,747.205 589.337,747.805 L589.737,715.705 C589.737,714.905 589.137,714.305 588.337,714.305 L587.137,714.305 C586.337,714.305 585.737,714.905 585.737,715.705 L586.237,775.805 C586.237,776.605 586.837,777.205 587.637,777.205 C587.837,777.205 588.237,777.105 588.437,777.005 C588.837,776.805 595.337,773.605 600.737,767.505 C604.537,763.205 606.037,758.305 606.037,754.205 C606.037,753.305 605.937,752.505 605.837,751.705 M598.937,755.605 C598.937,757.105 598.537,761.705 596.037,765.505 C594.337,768.105 590.937,770.805 589.037,772.305 L589.337,752.805 C589.537,751.905 591.037,749.005 595.037,749.005 C598.637,749.005 598.937,752.405 598.937,754.505 L598.937,755.605 "/>
<path class="Accidental" d="M867.306,726.703 C866.706,722.803 864.306,719.103 859.206,719.103 C854.206,719.103 851.306,722.203 850.806,722.803 L851.206,690.703 C851.206,689.903 850.606,689.303 849.806,689.303 L848.606,689.303 C847.806,689.303 847.206,689.903 847.206,690.703 L847.706,750.803 C847.706,751.603 848.306,752.203 849.106,752.203 C849.306,752.203 849.706,752.103 849.906,752.003 C850.306,751.803 856.806,748.603 862.206,742.503 C866.006,738.203 867.506,733.303 867.506,729.203 C867.506,728.303 867.406,727.503 867.306,726.703 M860.406,730.603 C860.406,732.103 860.006,736.703 857.506,740.503 C855.806,743.103 852.406,745.803 850.506,747.303 L850.806,727.803 C851.006,726.903 852.506,724.003 856.506,724.003 C860.106,724.003 860.406,727.403 860.406,729.503 L860.406,730.603 "/>
<path class="Accidental" d="M1050.84,714.202 C1050.24,710.302 1047.84,706.602 1042.74,706.602 C1037.74,706.602 1034.84,709.702 1034.34,710.302 L1034.74,678.202 C1034.74,677.402 1034.14,676.802 1033.34,676.802 L1032.14,676.802 C1031.34,676.802 1030.74,677.402 1030.74,678.202 L1031.24,738.302 C1031.24,739.102 1031.84,739.702 1032.64,739.702 C1032.84,739.702 1033.24,739.602 1033.44,739.502 C1033.84,739.302 1040.34,736.102 1045.74,730.002 C1049.54,725.702 1051.04,720.802 1051.04,716.702 C1051.04,715.802 1050.94,715.002 1050.84,714.202 M1043.94,718.102 C1043.94,719.602 1043.54,724.202 1041.04,728.002 C1039.34,730.602 1035.94,733.302 1034.04,734.802 L1034.34,715.302 C1034.54,714.402 1036.04,711.502 1040.04,711.502 C1043.64,711.502 1043.94,714.902 1043.94,717.002 L1043.94,718.102 "/>
<path class="Accidental" d="M1187.8,701.702 C1187.2,697.802 1184.8,694.102 1179.7,694.102 C1174.7,694.102 1171.8,697.202 1171.3,697.802 L1171.7,665.702 C1171.7,664.902 1171.1,664.302 1170.3,664.302 L1169.1,664.302 C1168.3,664.302 1167.7,664.902 1167.7,665.702 L1168.2,725.802 C1168.2,726.602 1168.8,727.202 1169.6,727.202 C1169.8,727.202 1170.2,727.102 1170.4,727.002 C1170.8,726.802 1177.3,723.602 1182.7,717.502 C1186.5,713.202 1188,708.302 1188,704.202 C1188,703.302 1187.9,702.502 1187.8,701.702 M1180.9,705.602 C1180.9,707.102 1180.5,711.702 1178,715.502 C1176.3,718.102 1172.9,720.802 1171,722.302 L1171.3,702.802 C1171.5,701.902 1173,699.002 1177,699.002 C1180.6,699.002 1180.9,702.402 1180.9,704.502 L1180.9,705.602 "/>
<path class="Accidental" d="M1461.72,676.7 C1461.12,672.8 1458.72,669.1 1453.62,669.1 C1448.62,669.1 1445.72,672.2 1445.22,672.8 L1445.62,640.7 C1445.62,639.9 1445.02,639.3 1444.22,639.3 L1443.02,639.3 C1442.22,639.3 1441.62,639.9 1441.62,640.7 L1442.12,700.8 C1442.12,701.6 1442.72,702.2 1443.52,702.2 C1443.72,702.2 1444.12,702.1 1444.32,702 C1444.72,701.8 1451.22,698.6 1456.62,692.5 C1460.42,688.2 1461.92,683.3 1461.92,679.2 C1461.92,678.3 1461.82,677.5 1461.72,676.7 M1454.82,680.6 C1454.82,682.1 1454.42,686.7 1451.92,690.5 C1450.22,693.1 1446.82,695.8 1444.92,697.3 L1445.22,677.8 C1445.42,676.9 1446.92,674 1450.92,674 C1454.52,674 1454.82,677.4 1454.82,679.5 L1454.82,680.6 "/>
<path class="Accidental" d="M1785.76,701.702 C1785.16,697.802 1782.76,694.102 1777.66,694.102 C1772.66,694.102 1769.76,697.202 1769.26,697.802 L1769.66,665.702 C1769.66,664.902 1769.06,664.302 1768.26,664.302 L1767.06,664.302 C1766.26,664.302 1765.66,664.902 1765.66,665.702 L1766.16,725.802 C1766.16,726.602 1766.76,727.202 1767.56,727.202 C1767.76,727.202 1768.16,727.102 1768.36,727.002 C1768.76,726.802 1775.26,723.602 1780.66,717.502 C1784.46,713.202 1785.96,708.302 1785.96,704.202 C1785.96,703.302 1785.86,702.502 1785.76,701.702 M1778.86,705.602 C1778.86,707.102 1778.46,711.702 1775.96,715.502 C1774.26,718.102 1770.86,720.802 1768.96,722.302 L1769.26,702.802 C1769.46,701.902 1770.96,699.002 1774.96,699.002 C1778.56,699.002 1778.86,702.402 1778.86,704.502 L1778.86,705.602 "/>
<path class="Accidental" d="M1927.08,714.202 C1926.48,710.302 1924.08,706.602 1918.98,706.602 C1913.98,706.602 1911.08,709.702 1910.58,710.302 L1910.98,678.202 C1910.98,677.402 1910.38,676.802 1909.58,676.802 L1908.38,676.802 C1907.58,676.802 1906.98,677.402 1906.98,678.202 L1907.48,738.302 C1907.48,739.102 1908.08,739.702 1908.88,739.702 C1909.08,739.702 1909.48,739.602 1909.68,739.502 C1910.08,739.302 1916.58,736.102 1921.98,730.002 C1925.78,725.702 1927.28,720.802 1927.28,716.702 C1927.28,715.802 1927.18,715.002 1927.08,714.202 M1920.18,718.102 C1920.18,719.602 1919.78,724.202 1917.28,728.002 C1915.58,730.602 1912.18,733.302 1910.28,734.802 L1910.58,715.302 C1910.78,714.402 1912.28,711.502 1916.28,711.502 C1919.88,711.502 1920.18,714.902 1920.18,717.002 L1920.18,718.102 "/>
<path class="Accidental" d="M2068.41,726.703 C2067.81,722.803 2065.41,719.103 2060.31,719.103 C2055.31,719.103 2052.41,722.203 2051.91,722.803 L2052.31,690.703 C2052.31,689.903 2051.71,689.303 2050.91,689.303 L2049.71,689.303 C2048.91,689.303 2048.31,689.903 2048.31,690.703 L2048.81,750.803 C2048.81,751.603 2049.41,752.203 2050.21,752.203 C2050.41,752.203 2050.81,752.103 2051.01,752.003 C2051.41,751.803 2057.91,748.603 2063.31,742.503 C2067.11,738.203 2068.61,733.303 2068.61,729.203 C2068.61,728.303 2068.51,727.503 2068.41,726.703 M2061.51,730.603 C2061.51,732.103 2061.11,736.703 2058.61,740.503 C2056.91,743.103 2053.51,745.803 2051.61,747.303 L2051.91,727.803 C2052.11,726.903 2053.61,724.003 2057.61,724.003 C2061.21,724.003 2061.51,727.403 2061.51,729.503 L2061.51,730.603 "/>
<path class="Accidental" d="M2379.91,751.705 C2379.31,747.805 2376.91,744.105 2371.81,744.105 C2366.81,744.105 2363.91,747.205 2363.41,747.805 L2363.81,715.705 C2363.81,714.905 2363.21,714.305 2362.41,714.305 L2361.21,714.305 C2360.41,714.305 2359.81,714.905 2359.81,715.705 L2360.31,775.805 C2360.31,776.605 2360.91,777.205 2361.71,777.205 C2361.91,777.205 2362.31,777.105 2362.51,777.005 C2362.91,776.805 2369.41,773.605 2374.81,767.505 C2378.61,763.205 2380.11,758.305 2380.11,754.205 C2380.11,753.305 2380.01,752.505 2379.91,751.705 M2373.01,755.605 C2373.01,757.105 2372.61,761.705 2370.11,765.505 C2368.41,768.105 2365.01,770.805 2363.11,772.305 L2363.41,752.805 C2363.61,751.905 2365.11,749.005 2369.11,749.005 C2372.71,749.005 2373.01,752.405 2373.01,754.505 L2373.01,755.605 "/>
<path class="Accidental" d="M2513.09,764.206 C2512.49,760.306 2510.09,756.606 2504.99,756.606 C2499.99,756.606 2497.09,759.706 2496.59,760.306 L2496.99,728.206 C2496.99,727.406 2496.39,726.806 2495.59,726.806 L2494.39,726.806 C2493.59,726.806 2492.99,727.406 2492.99,728.206 L2493.49,788.306 C2493.49,789.106 2494.09,789.706 2494.89,789.706 C2495.09,789.706 2495.49,789.606 2495.69,789.506 C2496.09,789.306 2502.59,786.106 2507.99,780.006 C2511.79,775.706 2513.29,770.806 2513.29,766.706 C2513.29,765.806 2513.19,765.006 2513.09,764.206 M2506.19,768.106 C2506.19,769.606 2505.79,774.206 2503.29,778.006 C2501.59,780.606 2498.19,783.306 2496.29,784.806 L2496.59,765.306 C2496.79,764.406 2498.29,761.506 2502.29,761.506 C2505.89,761.506 2506.19,764.906 2506.19,767.006 L2506.19,768.106 "/>
<polyline class="LedgerLine" fill="none" stroke="#000000" stroke-width="4.00" stroke-linejoin="bevel" points="1322.46,897.113 1372.45,897.113"/>
<polyline class="LedgerLine" fill="none" stroke="#000000" stroke-width="4.00" stroke-linejoin="bevel" points="1459.42,897.113 1509.41,897.113"/>
<polyline class="LedgerLine" fill="none" stroke="#000000" stroke-width="4.00" stroke-linejoin="bevel" points="1642.13,897.113 1692.13,897.113"/>
<polyline class="Stem" fill="none" stroke="#000000" stroke-width="2.75" stroke-linejoin="bevel" points="482.926,975.638 482.926,1050.25"/>
<polyline class="Stem" fill="none" stroke="#000000" stroke-width="2.75" stroke-linejoin="bevel" points="613.661,963.138 613.661,1040.87"/>
<polyline class="Stem" fill="none" stroke="#000000" stroke-width="2.75" stroke-linejoin="bevel" points="744.395,950.637 744.395,1031.5"/>
<polyline class="Stem" fill="none" stroke="#000000" stroke-width="2.75" stroke-linejoin="bevel" points="875.13,938.136 875.13,1022.12"/>
<polyline class="Stem" fill="none" stroke="#000000" stroke-width="2.75" stroke-linejoin="bevel" points="1058.66,925.635 1058.66,1009.62"/>
<polyline class="Stem" fill="none" stroke="#000000" stroke-width="2.75" stroke-linejoin="bevel" points="1195.62,913.134 1195.62,997.12"/>
<polyline class="Stem" fill="none" stroke="#000000" stroke-width="2.75" stroke-linejoin="bevel" points="1332.58,900.634 1332.58,984.619"/>
<polyline class="Stem" fill="none" stroke="#000000" stroke-width="2.75" stroke-linejoin="bevel" points="1469.54,888.133 1469.54,972.118"/>
<polyline class="Stem" fill="none" stroke="#000000" stroke-width="2.75" stroke-linejoin="bevel" points="1652.26,900.634 1652.26,984.619"/>
<polyline class="Stem" fill="none" stroke="#000000" stroke-width="2.75" stroke-linejoin="bevel" points="1793.58,913.134 1793.58,997.12"/>
<polyline class="Stem" fill="none" stroke="#000000" stroke-width="2.75" stroke-linejoin="bevel" points="1934.91,925.635 1934.91,1009.62"/>
<polyline class="Stem" fill="none" stroke="#000000" stroke-width="2.75" stroke-linejoin="bevel" points="2076.23,938.136 2076.23,1022.12"/>
<polyline class="Stem" fill="none" stroke="#000000" stroke-width="2.75" stroke-linejoin="bevel" points="2254.56,950.637 2254.56,1031.5"/>
<polyline class="Stem" fill="none" stroke="#000000" stroke-width="2.75" stroke-linejoin="bevel" points="2387.74,963.138 2387.74,1040.87"/>
<polyline class="Stem" fill="none" stroke="#000000" stroke-width="2.75" stroke-linejoin="bevel" points="2520.92,975.558 2520.92,1050.25"/>
<polyline class="Stem" fill="none" stroke="#000000" stroke-width="2.75" stroke-linejoin="bevel" points="512.67,768.745 512.67,684.6"/>
<polyline class="Stem" fill="none" stroke="#000000" stroke-width="2.75" stroke-linejoin="bevel" points="643.405,756.245 643.405,672.099"/>
<polyline class="Stem" fill="none" stroke="#000000" stroke-width="2.75" stroke-linejoin="bevel" points="774.139,743.744 774.139,659.598"/>
<polyline class="Stem" fill="none" stroke="#000000" stroke-width="2.75" stroke-linejoin="bevel" points="904.874,731.243 904.874,650.223"/>
<polyline class="Stem" fill="none" stroke="#000000" stroke-width="2.75" stroke-linejoin="bevel" points="1088.41,718.742 1088.41,640.847"/>
<polyline class="Stem" fill="none" stroke="#000000" stroke-width="2.75" stroke-linejoin="bevel" points="1195.62,713.122 1195.62,787.732"/>
<polyline class="Stem" fill="none" stroke="#000000" stroke-width="2.75" stroke-linejoin="bevel" points="1332.58,700.621 1332.58,778.356"/>
<polyline class="Stem" fill="none" stroke="#000000" stroke-width="2.75" stroke-linejoin="bevel" points="1469.54,688.12 1469.54,768.98"/>
<polyline class="Stem" fill="none" stroke="#000000" stroke-width="2.75" stroke-linejoin="bevel" points="1652.26,700.621 1652.26,778.356"/>
<polyline class="Stem" fill="none" stroke="#000000" stroke-width="2.75" stroke-linejoin="bevel" points="1793.58,713.122 1793.58,787.732"/>
<polyline class="Stem" fill="none" stroke="#000000" stroke-width="2.75" stroke-linejoin="bevel" points="1964.65,718.742 1964.65,640.847"/>
<polyline class="Stem" fill="none" stroke="#000000" stroke-width="2.75" stroke-linejoin="bevel" points="2105.98,731.243 2105.98,650.223"/>
<polyline class="Stem" fill="none" stroke="#000000" stroke-width="2.75" stroke-linejoin="bevel" points="2284.3,743.744 2284.3,659.598"/>
<polyline class="Stem" fill="none" stroke="#000000" stroke-width="2.75" stroke-linejoin="bevel" points="2417.48,756.245 2417.48,672.099"/>
<polyline class="Stem" fill="none" stroke="#000000" stroke-width="2.75" stroke-linejoin="bevel" points="2550.66,768.665 2550.66,684.6"/>
<path class="Note" d="M513.051,963.918 C511.551,961.218 508.651,959.518 504.751,959.118 C504.151,959.018 503.651,959.018 503.051,959.018 C499.551,959.018 495.751,960.018 492.251,961.918 C485.651,965.518 481.551,971.418 481.551,976.518 C481.551,977.918 481.751,979.218 482.451,980.418 C483.951,983.118 486.951,984.818 490.851,985.218 C491.451,985.318 491.951,985.318 492.551,985.318 C496.051,985.318 499.751,984.318 503.251,982.418 C509.851,978.818 514.051,973.018 514.051,967.918 C514.051,966.518 513.751,965.118 513.051,963.918"/>
<path class="Note" d="M643.786,951.417 C642.286,948.717 639.386,947.017 635.486,946.617 C634.886,946.517 634.386,946.517 633.786,946.517 C630.286,946.517 626.486,947.517 622.986,949.417 C616.386,953.017 612.286,958.917 612.286,964.017 C612.286,965.417 612.486,966.717 613.186,967.917 C614.686,970.617 617.686,972.317 621.586,972.717 C622.186,972.817 622.686,972.817 623.286,972.817 C626.786,972.817 630.486,971.817 633.986,969.917 C640.586,966.317 644.786,960.517 644.786,955.417 C644.786,954.017 644.486,952.617 643.786,951.417"/>
<path class="Note" d="M774.52,938.917 C773.02,936.217 770.12,934.517 766.22,934.117 C765.62,934.017 765.12,934.017 764.52,934.017 C761.02,934.017 757.22,935.017 753.72,936.917 C747.12,940.517 743.02,946.417 743.02,951.517 C743.02,952.917 743.22,954.217 743.92,955.417 C745.42,958.117 748.42,959.817 752.32,960.217 C752.92,960.317 753.42,960.317 754.02,960.317 C757.52,960.317 761.22,959.317 764.72,957.417 C771.32,953.817 775.52,948.017 775.52,942.917 C775.52,941.517 775.22,940.117 774.52,938.917"/>
<path class="Note" d="M905.255,926.416 C903.755,923.716 900.855,922.016 896.955,921.616 C896.355,921.516 895.855,921.516 895.255,921.516 C891.755,921.516 887.955,922.516 884.455,924.416 C877.855,928.016 873.755,933.916 873.755,939.016 C873.755,940.416 873.955,941.716 874.655,942.916 C876.155,945.616 879.155,947.316 883.055,947.716 C883.655,947.816 884.155,947.816 884.755,947.816 C888.255,947.816 891.955,946.816 895.455,944.916 C902.055,941.316 906.255,935.516 906.255,930.416 C906.255,929.016 905.955,927.616 905.255,926.416"/>
<path class="Note" d="M1088.79,913.915 C1087.29,911.215 1084.39,909.515 1080.49,909.115 C1079.89,909.015 1079.39,909.015 1078.79,909.015 C1075.29,909.015 1071.49,910.015 1067.99,911.915 C1061.39,915.515 1057.29,921.415 1057.29,926.515 C1057.29,927.915 1057.49,929.215 1058.19,930.415 C1059.69,933.115 1062.69,934.815 1066.59,935.215 C1067.19,935.315 1067.69,935.315 1068.29,935.315 C1071.79,935.315 1075.49,934.315 1078.99,932.415 C1085.59,928.815 1089.79,923.015 1089.79,917.915 C1089.79,916.515 1089.49,915.115 1088.79,913.915"/>
<path class="Note" d="M1225.75,901.414 C1224.25,898.714 1221.35,897.014 1217.45,896.614 C1216.85,896.514 1216.35,896.514 1215.75,896.514 C1212.25,896.514 1208.45,897.514 1204.95,899.414 C1198.35,903.014 1194.25,908.914 1194.25,914.014 C1194.25,915.414 1194.45,916.714 1195.15,917.914 C1196.65,920.614 1199.65,922.314 1203.55,922.714 C1204.15,922.814 1204.65,922.814 1205.25,922.814 C1208.75,922.814 1212.45,921.814 1215.95,919.914 C1222.55,916.314 1226.75,910.514 1226.75,905.414 C1226.75,904.014 1226.45,902.614 1225.75,901.414"/>
<path class="Note" d="M1362.71,888.913 C1361.21,886.213 1358.31,884.513 1354.41,884.113 C1353.81,884.013 1353.31,884.013 1352.71,884.013 C1349.21,884.013 1345.41,885.013 1341.91,886.913 C1335.31,890.513 1331.21,896.413 1331.21,901.513 C1331.21,902.913 1331.41,904.213 1332.11,905.413 C1333.61,908.113 1336.61,909.813 1340.51,910.213 C1341.11,910.313 1341.61,910.313 1342.21,910.313 C1345.71,910.313 1349.41,909.313 1352.91,907.413 C1359.51,903.813 1363.71,898.013 1363.71,892.913 C1363.71,891.513 1363.41,890.113 1362.71,888.913"/>
<path class="Note" d="M1499.67,876.413 C1498.17,873.713 1495.27,872.013 1491.37,871.613 C1490.77,871.513 1490.27,871.513 1489.67,871.513 C1486.17,871.513 1482.37,872.513 1478.87,874.413 C1472.27,878.013 1468.17,883.913 1468.17,889.013 C1468.17,890.413 1468.37,891.713 1469.07,892.913 C1470.57,895.613 1473.57,897.313 1477.47,897.713 C1478.07,897.813 1478.57,897.813 1479.17,897.813 C1482.67,897.813 1486.37,896.813 1489.87,894.913 C1496.47,891.313 1500.67,885.513 1500.67,880.413 C1500.67,879.013 1500.37,877.613 1499.67,876.413"/>
<path class="Note" d="M1682.38,888.913 C1680.88,886.213 1677.98,884.513 1674.08,884.113 C1673.48,884.013 1672.98,884.013 1672.38,884.013 C1668.88,884.013 1665.08,885.013 1661.58,886.913 C1654.98,890.513 1650.88,896.413 1650.88,901.513 C1650.88,902.913 1651.08,904.213 1651.78,905.413 C1653.28,908.113 1656.28,909.813 1660.18,910.213 C1660.78,910.313 1661.28,910.313 1661.88,910.313 C1665.38,910.313 1669.08,909.313 1672.58,907.413 C1679.18,903.813 1683.38,898.013 1683.38,892.913 C1683.38,891.513 1683.08,890.113 1682.38,888.913"/>
<path class="Note" d="M1823.71,901.414 C1822.21,898.714 1819.31,897.014 1815.41,896.614 C1814.81,896.514 1814.31,896.514 1813.71,896.514 C1810.21,896.514 1806.41,897.514 1802.91,899.414 C1796.31,903.014 1792.21,908.914 1792.21,914.014 C1792.21,915.414 1792.41,916.714 1793.11,917.914 C1794.61,920.614 1797.61,922.314 1801.51,922.714 C1802.11,922.814 1802.61,922.814 1803.21,922.814 C1806.71,922.814 1810.41,921.814 1813.91,919.914 C1820.51,916.314 1824.71,910.514 1824.71,905.414 C1824.71,904.014 1824.41,902.614 1823.71,901.414"/>
<path class="Note" d="M1965.03,913.915 C1963.53,911.215 1960.63,909.515 1956.73,909.115 C1956.13,909.015 1955.63,909.015 1955.03,909.015 C1951.53,909.015 1947.73,910.015 1944.23,911.915 C1937.63,915.515 1933.53,921.415 1933.53,926.515 C1933.53,927.915 1933.73,929.215 1934.43,930.415 C1935.93,933.115 1938.93,934.815 1942.83,935.215 C1943.43,935.315 1943.93,935.315 1944.53,935.315 C1948.03,935.315 1951.73,934.315 1955.23,932.415 C1961.83,928.815 1966.03,923.015 1966.03,917.915 C1966.03,916.515 1965.73,915.115 1965.03,913.915"/>
<path class="Note" d="M2106.36,926.416 C2104.86,923.716 2101.96,922.016 2098.06,921.616 C2097.46,921.516 2096.96,921.516 2096.36,921.516 C2092.86,921.516 2089.06,922.516 2085.56,924.416 C2078.96,928.016 2074.86,933.916 2074.86,939.016 C2074.86,940.416 2075.06,941.716 2075.76,942.916 C2077.26,945.616 2080.26,947.316 2084.16,947.716 C2084.76,947.816 2085.26,947.816 2085.86,947.816 C2089.36,947.816 2093.06,946.816 2096.56,944.916 C2103.16,941.316 2107.36,935.516 2107.36,930.416 C2107.36,929.016 2107.06,927.616 2106.36,926.416"/>
<path class="Note" d="M2284.68,938.917 C2283.18,936.217 2280.28,934.517 2276.38,934.117 C2275.78,934.017 2275.28,934.017 2274.68,934.017 C2271.18,934.017 2267.38,935.017 2263.88,936.917 C2257.28,940.517 2253.18,946.417 2253.18,951.517 C2253.18,952.917 2253.38,954.217 2254.08,955.417 C2255.58,958.117 2258.58,959.817 2262.48,960.217 C2263.08,960.317 2263.58,960.317 2264.18,960.317 C2267.68,960.317 2271.38,959.317 2274.88,957.417 C2281.48,953.817 2285.68,948.017 2285.68,942.917 C2285.68,941.517 2285.38,940.117 2284.68,938.917"/>
<path class="Note" d="M2417.86,951.417 C2416.36,948.717 2413.46,947.017 2409.56,946.617 C2408.96,946.517 2408.46,946.517 2407.86,946.517 C2404.36,946.517 2400.56,947.517 2397.06,949.417 C2390.46,953.017 2386.36,958.917 2386.36,964.017 C2386.36,965.417 2386.56,966.717 2387.26,967.917 C2388.76,970.617 2391.76,972.317 2395.66,972.717 C2396.26,972.817 2396.76,972.817 2397.36,972.817 C2400.86,972.817 2404.56,971.817 2408.06,969.917 C2414.66,966.317 2418.86,960.517 2418.86,955.417 C2418.86,954.017 2418.56,952.617 2417.86,951.417"/>
<path class="Note" d="M2551.04,963.918 C2549.54,961.218 2546.64,959.518 2542.74,959.118 C2542.14,959.018 2541.64,959.018 2541.04,959.018 C2537.54,959.018 2533.74,960.018 2530.24,961.918 C2523.64,965.518 2519.54,971.318 2519.54,976.418 C2519.54,977.818 2519.94,979.218 2520.64,980.418 C2522.14,983.218 2524.94,984.818 2528.84,985.218 C2529.44,985.318 2529.94,985.318 2530.54,985.318 C2534.04,985.318 2537.84,984.318 2541.34,982.418 C2547.94,978.818 2552.04,972.918 2552.04,967.818 C2552.04,966.418 2551.74,965.118 2551.04,963.918 M2546.84,970.218 C2545.14,972.018 2541.94,974.318 2538.34,976.418 C2534.74,978.518 2531.04,980.218 2528.74,980.918 C2528.24,981.018 2527.64,981.118 2527.14,981.118 C2525.64,981.118 2524.34,980.418 2523.64,979.318 C2523.34,978.718 2523.14,978.118 2523.14,977.518 C2523.14,976.418 2523.64,975.318 2524.74,974.118 C2526.44,972.318 2529.64,969.918 2533.24,967.818 C2536.84,965.718 2540.54,964.018 2542.94,963.418 L2543.14,963.418 C2543.74,963.218 2544.24,963.118 2544.74,963.118 C2546.14,963.118 2547.24,963.718 2547.94,965.018 C2548.24,965.618 2548.44,966.118 2548.44,966.718 C2548.44,968.018 2547.74,969.318 2546.84,970.218"/>
<path class="Note" d="M513.051,763.906 C511.551,761.206 508.651,759.506 504.751,759.106 C504.151,759.006 503.651,759.006 503.051,759.006 C499.551,759.006 495.751,760.006 492.251,761.906 C485.651,765.506 481.551,771.406 481.551,776.506 C481.551,777.906 481.751,779.206 482.451,780.406 C483.951,783.106 486.951,784.806 490.851,785.206 C491.451,785.306 491.951,785.306 492.551,785.306 C496.051,785.306 499.751,784.306 503.251,782.406 C509.851,778.806 514.051,773.006 514.051,767.906 C514.051,766.506 513.751,765.106 513.051,763.906"/>
<path class="Note" d="M643.786,751.405 C642.286,748.705 639.386,747.005 635.486,746.605 C634.886,746.505 634.386,746.505 633.786,746.505 C630.286,746.505 626.486,747.505 622.986,749.405 C616.386,753.005 612.286,758.905 612.286,764.005 C612.286,765.405 612.486,766.705 613.186,767.905 C614.686,770.605 617.686,772.305 621.586,772.705 C622.186,772.805 622.686,772.805 623.286,772.805 C626.786,772.805 630.486,771.805 633.986,769.905 C640.586,766.305 644.786,760.505 644.786,755.405 C644.786,754.005 644.486,752.605 643.786,751.405"/>
<path class="Note" d="M774.52,738.904 C773.02,736.204 770.12,734.504 766.22,734.104 C765.62,734.004 765.12,734.004 764.52,734.004 C761.02,734.004 757.22,735.004 753.72,736.904 C747.12,740.504 743.02,746.404 743.02,751.504 C743.02,752.904 743.22,754.204 743.92,755.404 C745.42,758.104 748.42,759.804 752.32,760.204 C752.92,760.304 753.42,760.304 754.02,760.304 C757.52,760.304 761.22,759.304 764.72,757.404 C771.32,753.804 775.52,748.004 775.52,742.904 C775.52,741.504 775.22,740.104 774.52,738.904"/>
<path class="Note" d="M905.255,726.403 C903.755,723.703 900.855,722.003 896.955,721.603 C896.355,721.503 895.855,721.503 895.255,721.503 C891.755,721.503 887.955,722.503 884.455,724.403 C877.855,728.003 873.755,733.903 873.755,739.003 C873.755,740.403 873.955,741.703 874.655,742.903 C876.155,745.603 879.155,747.303 883.055,747.703 C883.655,747.803 884.155,747.803 884.755,747.803 C888.255,747.803 891.955,746.803 895.455,744.903 C902.055,741.303 906.255,735.503 906.255,730.403 C906.255,729.003 905.955,727.603 905.255,726.403"/>
<path class="Note" d="M1088.79,713.902 C1087.29,711.202 1084.39,709.502 1080.49,709.102 C1079.89,709.002 1079.39,709.002 1078.79,709.002 C1075.29,709.002 1071.49,710.002 1067.99,711.902 C1061.39,715.502 1057.29,721.402 1057.29,726.502 C1057.29,727.902 1057.49,729.202 1058.19,730.402 C1059.69,733.102 1062.69,734.802 1066.59,735.202 C1067.19,735.302 1067.69,735.302 1068.29,735.302 C1071.79,735.302 1075.49,734.302 1078.99,732.402 C1085.59,728.802 1089.79,723.002 1089.79,717.902 C1089.79,716.502 1089.49,715.102 1088.79,713.902"/>
<path class="Note" d="M1225.75,701.402 C1224.25,698.702 1221.35,697.002 1217.45,696.602 C1216.85,696.502 1216.35,696.502 1215.75,696.502 C1212.25,696.502 1208.45,697.502 1204.95,699.402 C1198.35,703.002 1194.25,708.902 1194.25,714.002 C1194.25,715.402 1194.45,716.702 1195.15,717.902 C1196.65,720.602 1199.65,722.302 1203.55,722.702 C1204.15,722.802 1204.65,722.802 1205.25,722.802 C1208.75,722.802 1212.45,721.802 1215.95,719.902 C1222.55,716.302 1226.75,710.502 1226.75,705.402 C1226.75,704.002 1226.45,702.602 1225.75,701.402"/>
<path class="Note" d="M1362.71,688.901 C1361.21,686.201 1358.31,684.501 1354.41,684.101 C1353.81,684.001 1353.31,684.001 1352.71,684.001 C1349.21,684.001 1345.41,685.001 1341.91,686.901 C1335.31,690.501 1331.21,696.401 1331.21,701.501 C1331.21,702.901 1331.41,704.201 1332.11,705.401 C1333.61,708.101 1336.61,709.801 1340.51,710.201 C1341.11,710.301 1341.61,710.301 1342.21,710.301 C1345.71,710.301 1349.41,709.301 1352.91,707.401 C1359.51,703.801 1363.71,698.001 1363.71,692.901 C1363.71,691.501 1363.41,690.101 1362.71,688.901"/>
<path class="Note" d="M1499.67,676.4 C1498.17,673.7 1495.27,672 1491.37,671.6 C1490.77,671.5 1490.27,671.5 1489.67,671.5 C1486.17,671.5 1482.37,672.5 1478.87,674.4 C1472.27,678 1468.17,683.9 1468.17,689 C1468.17,690.4 1468.37,691.7 1469.07,692.9 C1470.57,695.6 1473.57,697.3 1477.47,697.7 C1478.07,697.8 1478.57,697.8 1479.17,697.8 C1482.67,697.8 1486.37,696.8 1489.87,694.9 C1496.47,691.3 1500.67,685.5 1500.67,680.4 C1500.67,679 1500.37,677.6 1499.67,676.4"/>
<path class="Note" d="M1682.38,688.901 C1680.88,686.201 1677.98,684.501 1674.08,684.101 C1673.48,684.001 1672.98,684.001 1672.38,684.001 C1668.88,684.001 1665.08,685.001 1661.58,686.901 C1654.98,690.501 1650.88,696.401 1650.88,701.501 C1650.88,702.901 1651.08,704.201 1651.78,705.401 C1653.28,708.101 1656.28,709.801 1660.18,710.201 C1660.78,710.301 1661.28,710.301 1661.88,710.301 C1665.38,710.301 1669.08,709.301 1672.58,707.401 C1679.18,703.801 1683.38,698.001 1683.38,692.901 C1683.38,691.501 1683.08,690.101 1682.38,688.901"/>
<path class="Note" d="M1823.71,701.402 C1822.21,698.702 1819.31,697.002 1815.41,696.602 C1814.81,696.502 1814.31,696.502 1813.71,696.502 C1810.21,696.502 1806.41,697.502 1802.91,699.402 C1796.31,703.002 1792.21,708.902 1792.21,714.002 C1792.21,715.402 1792.41,716.702 1793.11,717.902 C1794.61,720.602 1797.61,722.302 1801.51,722.702 C1802.11,722.802 1802.61,722.802 1803.21,722.802 C1806.71,722.802 1810.41,721.802 1813.91,719.902 C1820.51,716.302 1824.71,710.502 1824.71,705.402 C1824.71,704.002 1824.41,702.602 1823.71,701.402"/>
<path class="Note" d="M1965.03,713.902 C1963.53,711.202 1960.63,709.502 1956.73,709.102 C1956.13,709.002 1955.63,709.002 1955.03,709.002 C1951.53,709.002 1947.73,710.002 1944.23,711.902 C1937.63,715.502 1933.53,721.402 1933.53,726.502 C1933.53,727.902 1933.73,729.202 1934.43,730.402 C1935.93,733.102 1938.93,734.802 1942.83,735.202 C1943.43,735.302 1943.93,735.302 1944.53,735.302 C1948.03,735.302 1951.73,734.302 1955.23,732.402 C1961.83,728.802 1966.03,723.002 1966.03,717.902 C1966.03,716.502 1965.73,715.102 1965.03,713.902"/>
<path class="Note" d="M2106.36,726.403 C2104.86,723.703 2101.96,722.003 2098.06,721.603 C2097.46,721.503 2096.96,721.503 2096.36,721.503 C2092.86,721.503 2089.06,722.503 2085.56,724.403 C2078.96,728.003 2074.86,733.903 2074.86,739.003 C2074.86,740.403 2075.06,741.703 2075.76,742.903 C2077.26,745.603 2080.26,747.303 2084.16,747.703 C2084.76,747.803 2085.26,747.803 2085.86,747.803 C2089.36,747.803 2093.06,746.803 2096.56,744.903 C2103.16,741.303 2107.36,735.503 2107.36,730.403 C2107.36,729.003 2107.06,727.603 2106.36,726.403"/>
<path class="Note" d="M2284.68,738.904 C2283.18,736.204 2280.28,734.504 2276.38,734.104 C2275.78,734.004 2275.28,734.004 2274.68,734.004 C2271.18,734.004 2267.38,735.004 2263.88,736.904 C2257.28,740.504 2253.18,746.404 2253.18,751.504 C2253.18,752.904 2253.38,754.204 2254.08,755.404 C2255.58,758.104 2258.58,759.804 2262.48,760.204 C2263.08,760.304 2263.58,760.304 2264.18,760.304 C2267.68,760.304 2271.38,759.304 2274.88,757.404 C2281.48,753.804 2285.68,748.004 2285.68,742.904 C2285.68,741.504 2285.38,740.104 2284.68,738.904"/>
<path class="Note" d="M2417.86,751.405 C2416.36,748.705 2413.46,747.005 2409.56,746.605 C2408.96,746.505 2408.46,746.505 2407.86,746.505 C2404.36,746.505 2400.56,747.505 2397.06,749.405 C2390.46,753.005 2386.36,758.905 2386.36,764.005 C2386.36,765.405 2386.56,766.705 2387.26,767.905 C2388.76,770.605 2391.76,772.305 2395.66,772.705 C2396.26,772.805 2396.76,772.805 2397.36,772.805 C2400.86,772.805 2404.56,771.805 2408.06,769.905 C2414.66,766.305 2418.86,760.505 2418.86,755.405 C2418.86,754.005 2418.56,752.605 2417.86,751.405"/>
<path class="Note" d="M2551.04,763.906 C2549.54,761.206 2546.64,759.506 2542.74,759.106 C2542.14,759.006 2541.64,759.006 2541.04,759.006 C2537.54,759.006 2533.74,760.006 2530.24,761.906 C2523.64,765.506 2519.54,771.306 2519.54,776.406 C2519.54,777.806 2519.94,779.206 2520.64,780.406 C2522.14,783.206 2524.94,784.806 2528.84,785.206 C2529.44,785.306 2529.94,785.306 2530.54,785.306 C2534.04,785.306 2537.84,784.306 2541.34,782.406 C2547.94,778.806 2552.04,772.906 2552.04,767.806 C2552.04,766.406 2551.74,765.106 2551.04,763.906 M2546.84,770.206 C2545.14,772.006 2541.94,774.306 2538.34,776.406 C2534.74,778.506 2531.04,780.206 2528.74,780.906 C2528.24,781.006 2527.64,781.106 2527.14,781.106 C2525.64,781.106 2524.34,780.406 2523.64,779.306 C2523.34,778.706 2523.14,778.106 2523.14,777.506 C2523.14,776.406 2523.64,775.306 2524.74,774.106 C2526.44,772.306 2529.64,769.906 2533.24,767.806 C2536.84,765.706 2540.54,764.006 2542.94,763.406 L2543.14,763.406 C2543.74,763.206 2544.24,763.106 2544.74,763.106 C2546.14,763.106 2547.24,763.706 2547.94,765.006 C2548.24,765.606 2548.44,766.106 2548.44,766.706 C2548.44,768.006 2547.74,769.306 2546.84,770.206"/>
<path class="Clef" d="M297,922.017 C289.4,922.017 283.3,926.417 283.2,926.417 C277.4,930.717 275.1,935.817 274.2,939.317 C273.7,941.117 273.5,942.917 273.5,944.617 C273.5,947.017 273.9,949.217 274.8,951.117 C276,953.817 278.3,955.717 281.3,956.717 C282.5,957.117 283.8,957.317 285.1,957.317 C287.3,957.317 289.6,956.717 291.5,955.617 C294.6,953.917 296.5,950.317 296.5,946.417 C296.5,942.917 294.7,939.717 291.7,937.817 C289.6,936.417 287.6,936.017 285.9,936.017 C284.7,936.017 283.6,936.217 282.7,936.517 C281.7,936.917 280,937.917 279.2,938.617 C279.5,936.717 280.7,933.817 281.8,932.217 C282.9,930.617 285.1,928.617 286.8,927.717 C289.3,926.317 292.5,925.717 296,925.717 C306.2,925.717 311.2,933.917 311.2,950.717 C311.2,960.017 307.7,968.917 304.7,974.817 C301.4,981.417 297,987.717 293.1,991.217 C282.7,1000.72 272.9,1005.22 272.8,1005.22 C272.8,1005.22 271.3,1006.12 271.7,1007.62 C272,1008.62 272.9,1008.82 273.5,1008.82 C273.6,1008.82 273.9,1008.72 274,1008.72 C274.1,1008.72 285.5,1004.02 294.6,996.917 C299.7,993.217 304.3,989.217 308.3,984.917 C311.9,981.017 315,976.817 317.5,972.617 C321.9,965.117 324.4,957.317 324.4,950.617 C324.4,942.317 322.2,935.417 318.1,930.517 C313.4,924.917 306.3,922.017 297,922.017 M328.4,934.717 C328.4,937.517 330.6,939.717 333.2,939.717 C335.8,939.717 338,937.517 338,934.717 C338,931.917 335.8,929.617 333.2,929.617 C330.6,929.617 328.4,931.917 328.4,934.717 M328.4,959.417 C328.4,962.217 330.6,964.517 333.2,964.517 C335.8,964.517 338,962.217 338,959.417 C338,956.617 335.8,954.317 333.2,954.317 C330.6,954.317 328.4,956.617 328.4,959.417"/>
<path class="Clef" d="M335,728.703 C333.8,723.303 331.1,719.403 330.3,718.403 C327.1,714.103 323.1,711.303 318.4,709.903 C316.1,709.203 314,709.003 312,709.003 C311.3,709.003 310.6,709.003 309.9,709.103 C308.9,703.103 307.8,697.203 306.9,691.803 C312.5,685.603 316.2,679.703 318.6,675.303 C322.2,668.603 323.6,663.903 323.7,663.703 C324.9,660.703 325.6,656.903 325.6,652.403 C325.6,649.703 325.3,646.803 324.9,643.803 C323.8,636.703 321.6,630.003 319.1,626.303 C317.8,624.403 316.6,623.303 315.4,623.303 C314.2,623.303 311.7,624.503 308.8,627.303 C306.5,629.503 303.2,633.403 300.6,639.403 C298.3,644.803 297.6,651.703 297.6,657.603 C297.6,659.403 297.7,661.103 297.8,662.703 C298,666.303 298.7,672.103 299.3,675.703 C299.3,675.803 299.6,677.303 300,679.903 L299.3,680.603 C298.3,681.603 297.1,682.703 295.7,684.103 C294.8,685.003 293.9,685.803 292.9,686.803 C284.4,695.003 271.6,707.403 271.6,726.503 C271.6,731.203 272.5,735.603 274.3,739.603 C275.9,743.203 278.2,746.503 281.1,749.403 C288.6,756.803 298.8,760.003 305.9,760.003 L306.5,760.003 C309.4,759.903 312.1,759.603 314.5,759.203 C316.3,768.803 317.5,775.903 317.5,781.203 C317.5,787.703 315.9,791.603 312,794.403 C309.6,796.103 306.7,797.203 303.6,797.303 L302.8,797.303 C301.3,797.303 298.8,796.903 297.3,796.503 C297.3,796.503 297,796.403 297,796.203 C297,796.003 297.4,796.003 297.4,796.003 C299.3,795.603 302.9,794.303 305.3,791.003 C306.4,789.503 307.1,787.203 307.1,784.703 C307.1,783.103 306.8,781.403 306.1,779.903 C305,777.503 302.4,774.503 296.8,774.103 L295.7,774.103 C293.6,774.103 291.8,774.603 290.1,775.603 C288.3,776.703 286.7,778.403 285.7,780.403 C284.6,782.403 284.1,784.603 284.1,786.803 C284.1,789.703 285,792.403 286.8,794.603 C289.8,798.203 294.5,800.503 299.9,801.103 C300.6,801.203 301.7,801.303 302.4,801.303 C306.8,801.303 311.2,800.103 314.8,797.903 C318.5,795.303 320.6,791.303 321.3,785.703 C321.5,784.403 321.5,783.003 321.5,781.503 C321.5,777.603 321,772.903 320,767.103 C319.6,765.003 319.2,762.003 318.5,758.203 C324.3,756.303 328.4,752.603 332.2,746.803 C334.5,742.803 335.6,738.703 335.6,734.403 C335.6,732.503 335.4,730.603 335,728.703 M304.8,650.803 C306.6,645.103 309.3,641.703 311.3,640.003 C313.1,638.503 314.7,637.803 315.6,637.803 C315.7,637.803 315.9,637.903 316,637.903 C316.3,638.003 316.7,638.503 317.1,639.203 C318,641.003 318.9,644.303 318.9,648.003 C318.9,649.903 318.7,651.903 318.1,653.703 C315.9,660.503 311.3,667.803 304.3,675.503 C304.1,674.403 303.9,673.403 303.8,672.403 C303.3,669.203 303,666.003 303,663.103 C303,658.603 303.6,654.503 304.8,650.803 M300.8,754.903 C296.2,753.703 291.7,751.203 287.9,747.703 C286.6,746.503 284.8,744.303 283.3,740.903 C282,737.903 281.3,734.803 281.3,731.403 L281.3,730.703 C281.4,726.003 282.7,721.203 285.2,716.403 C288.1,710.803 292.6,705.303 298.7,700.003 C300.2,698.703 301.6,697.403 302.9,696.103 C303.7,700.403 304.4,705.103 305.3,710.003 C301.4,711.303 296.7,714.303 293.6,720.003 C291.2,724.503 290.5,728.403 290.5,731.603 C290.5,733.103 290.7,734.503 290.9,735.603 C291.8,740.103 294.4,743.803 297.9,745.903 C298.7,746.403 302,748.103 304,748.103 C304.3,748.103 304.6,748.103 304.8,748.003 C305.1,747.903 305.4,747.703 305.5,747.403 C305.6,747.203 305.6,747.003 305.6,746.803 C305.6,746.003 304.8,745.403 303.5,744.603 C302.9,744.203 302.2,743.803 301.5,743.303 C298.9,741.303 297.4,738.203 297.4,734.803 C297.4,733.803 297.6,732.903 297.8,731.903 C298.3,729.903 300,727.103 301.5,725.703 C303.2,724.203 305.2,723.003 307.6,722.403 C309.6,733.603 311.7,744.703 313.3,753.103 C313.4,753.803 313.6,754.503 313.7,755.203 C311.7,755.603 309.7,755.803 307.8,755.803 C305.4,755.803 303.1,755.503 300.8,754.903 M326.5,744.703 C325.3,747.903 322.8,751.903 317.7,754.003 C317.6,753.603 317.6,753.103 317.5,752.703 C316,743.903 314.1,733.003 312.1,721.703 L313.1,721.703 C322.8,721.703 326.7,728.903 327.6,733.503 C327.8,734.403 327.9,735.603 327.9,736.903 C327.9,739.203 327.5,742.003 326.5,744.703"/>
<path class="TimeSig" d="M365.2,960.516 L382,960.516 L382,967.816 L373.9,967.816 C373.1,967.816 372.5,968.416 372.5,969.216 L372.5,971.116 C372.5,971.916 373.1,972.416 373.9,972.416 L403.6,972.416 C404.4,972.416 405,971.916 405,971.116 L405,969.216 C405,968.416 404.4,967.816 403.6,967.816 L394.8,967.816 L394.8,960.516 L403.6,960.516 C404.4,960.516 405,959.916 405,959.116 L405,957.316 C405,956.516 404.4,955.916 403.6,955.916 L394.8,955.916 L394.8,940.216 C394.8,939.716 394.4,939.216 394,939.016 L392.9,938.416 C392.7,938.316 392.4,938.316 392.2,938.316 C391.9,938.316 391.5,938.416 391.3,938.616 L382.4,946.816 C382.2,947.016 382,947.516 382,947.816 L382,955.916 L370.7,955.916 C370.7,955.916 381.6,944.116 393.2,928.616 C394,927.516 393.6,926.516 393.4,926.316 L391.3,924.116 C391.1,923.916 390.6,923.716 390.3,923.716 L375.7,923.716 C375,923.716 374.5,924.316 374.4,924.916 C374.4,924.916 373.9,932.116 371.3,940.116 C368.7,948.116 365.9,952.916 363.3,956.516 C363.3,956.516 362.8,957.516 363.1,958.216 C363.4,958.916 364.1,960.016 364.1,960.016 C364.1,960.016 364.4,960.516 365.2,960.516"/>
<path class="TimeSig" d="M365.2,1009.12 L382,1009.12 L382,1016.42 L373.9,1016.42 C373.1,1016.42 372.5,1017.02 372.5,1017.82 L372.5,1019.72 C372.5,1020.52 373.1,1021.02 373.9,1021.02 L403.6,1021.02 C404.4,1021.02 405,1020.52 405,1019.72 L405,1017.82 C405,1017.02 404.4,1016.42 403.6,1016.42 L394.8,1016.42 L394.8,1009.12 L403.6,1009.12 C404.4,1009.12 405,1008.52 405,1007.72 L405,1005.92 C405,1005.12 404.4,1004.52 403.6,1004.52 L394.8,1004.52 L394.8,988.82 C394.8,988.32 394.4,987.82 394,987.62 L392.9,987.02 C392.7,986.92 392.4,986.92 392.2,986.92 C391.9,986.92 391.5,987.02 391.3,987.22 L382.4,995.42 C382.2,995.62 382,996.12 382,996.42 L382,1004.52 L370.7,1004.52 C370.7,1004.52 381.6,992.72 393.2,977.22 C394,976.12 393.6,975.12 393.4,974.92 L391.3,972.72 C391.1,972.52 390.6,972.32 390.3,972.32 L375.7,972.32 C375,972.32 374.5,972.92 374.4,973.52 C374.4,973.52 373.9,980.72 371.3,988.72 C368.7,996.72 365.9,1001.52 363.3,1005.12 C363.3,1005.12 362.8,1006.12 363.1,1006.82 C363.4,1007.52 364.1,1008.62 364.1,1008.62 C364.1,1008.62 364.4,1009.12 365.2,1009.12"/>
<path class="TimeSig" d="M365.2,697.999 L382,697.999 L382,705.299 L373.9,705.299 C373.1,705.299 372.5,705.899 372.5,706.699 L372.5,708.599 C372.5,709.399 373.1,709.899 373.9,709.899 L403.6,709.899 C404.4,709.899 405,709.399 405,708.599 L405,706.699 C405,705.899 404.4,705.299 403.6,705.299 L394.8,705.299 L394.8,697.999 L403.6,697.999 C404.4,697.999 405,697.399 405,696.599 L405,694.799 C405,693.999 404.4,693.399 403.6,693.399 L394.8,693.399 L394.8,677.699 C394.8,677.199 394.4,676.699 394,676.499 L392.9,675.899 C392.7,675.799 392.4,675.799 392.2,675.799 C391.9,675.799 391.5,675.899 391.3,676.099 L382.4,684.299 C382.2,684.499 382,684.999 382,685.299 L382,693.399 L370.7,693.399 C370.7,693.399 381.6,681.599 393.2,666.099 C394,664.999 393.6,663.999 393.4,663.799 L391.3,661.599 C391.1,661.399 390.6,661.199 390.3,661.199 L375.7,661.199 C375,661.199 374.5,661.799 374.4,662.399 C374.4,662.399 373.9,669.599 371.3,677.599 C368.7,685.599 365.9,690.399 363.3,693.999 C363.3,693.999 362.8,694.999 363.1,695.699 C363.4,696.399 364.1,697.499 364.1,697.499 C364.1,697.499 364.4,697.999 365.2,697.999"/>
<path class="TimeSig" d="M365.2,746.604 L382,746.604 L382,753.904 L373.9,753.904 C373.1,753.904 372.5,754.504 372.5,755.304 L372.5,757.204 C372.5,758.004 373.1,758.504 373.9,758.504 L403.6,758.504 C404.4,758.504 405,758.004 405,757.204 L405,755.304 C405,754.504 404.4,753.904 403.6,753.904 L394.8,753.904 L394.8,746.604 L403.6,746.604 C404.4,746.604 405,746.004 405,745.204 L405,743.404 C405,742.604 404.4,742.004 403.6,742.004 L394.8,742.004 L394.8,726.304 C394.8,725.804 394.4,725.304 394,725.104 L392.9,724.504 C392.7,724.404 392.4,724.404 392.2,724.404 C391.9,724.404 391.5,724.504 391.3,724.704 L382.4,732.904 C382.2,733.104 382,733.604 382,733.904 L382,742.004 L370.7,742.004 C370.7,742.004 381.6,730.204 393.2,714.704 C394,713.604 393.6,712.604 393.4,712.404 L391.3,710.204 C391.1,710.004 390.6,709.804 390.3,709.804 L375.7,709.804 C375,709.804 374.5,710.404 374.4,711.004 C374.4,711.004 373.9,718.204 371.3,726.204 C368.7,734.204 365.9,739.004 363.3,742.604 C363.3,742.604 362.8,743.604 363.1,744.304 C363.4,745.004 364.1,746.104 364.1,746.104 C364.1,746.104 364.4,746.604 365.2,746.604"/>
<path class="Page" d="M222.584,4034.37 C221.054,4036.22 216.914,4037.61 212.774,4037.7 L212.774,4039.64 L216.734,4039.64 C219.344,4039.68 219.614,4039.95 219.524,4042.47 L219.524,4060.52 C219.524,4062.81 219.524,4062.9 219.254,4063.31 C218.894,4063.76 218.039,4063.94 215.519,4063.94 L212.594,4063.94 L212.594,4066.05 L230.414,4066.05 L230.414,4063.94 L227.939,4063.94 C225.419,4063.94 224.564,4063.76 224.204,4063.31 C223.889,4062.9 223.889,4062.86 223.889,4060.52 L223.889,4041.93 C223.889,4039.41 223.979,4037.3 224.204,4034.37 L222.584,4034.37 M245.889,4034.37 C239.589,4034.37 234.999,4041.21 234.999,4050.66 C234.999,4059.93 239.454,4066.73 245.529,4066.73 C251.829,4066.73 256.239,4060.16 256.239,4050.8 C256.239,4046.03 255.249,4042.07 253.359,4038.96 C251.604,4036.13 248.724,4034.37 245.889,4034.37 M245.574,4036.31 C247.059,4036.31 248.499,4037.3 249.579,4039.1 C250.794,4041.21 251.199,4043.78 251.199,4049.94 C251.199,4056.29 250.884,4059.26 249.984,4061.24 C248.949,4063.44 247.329,4064.79 245.619,4064.79 C244.089,4064.79 242.694,4063.8 241.614,4062 C240.354,4059.89 239.994,4057.1 239.994,4049.72 C239.994,4044.45 240.309,4041.84 241.209,4039.86 C242.244,4037.61 243.864,4036.31 245.574,4036.31"/>
<path class="Bracket" transform="matrix(3.62523,0,0,3.62523,214.469,1022.12)" d="M0.92002,-50 C2.69004,-51.88 6.2,-55.8 6.2,-63 C6.2,-72.1 2.25996,-81.32 2.25996,-86.97 C2.25996,-93.06 5.84004,-98.84 5.95,-99 C6.05996,-99.16 6.05,-99.39 5.94004,-99.46 C5.82998,-99.53 5.62002,-99.47 5.49004,-99.32 C5.35996,-99.17 0,-93.75 0,-85.6 C0,-76.75 3.5,-70.58 3.5,-59.07 C3.5,-56.89 2.55996,-53.36 0.1,-50.33 C-0.0799805,-50.17 -0.1,-49.89 0.0599609,-49.7 L0.0700195,-49.69 L0.1,-49.66 C2.55996,-46.63 3.5,-43.1 3.5,-40.92 C3.5,-29.4 0,-23.24 0,-14.39 C0,-6.25 5.35996,-0.8 5.49004,-0.659961 C5.62002,-0.52002 5.8,-0.42998 5.94004,-0.52002 C6.07998,-0.609961 6.07998,-0.77998 5.95,-0.97998 C5.82002,-1.17998 2.25996,-6.92002 2.25996,-13.01 C2.25996,-18.66 6.2,-27.9 6.2,-37 C6.2,-44.3 2.69004,-48.12 0.92002,-50"/>
</svg>