<?xml version="1.0" encoding="UTF-8" standalone="no"?>
<svg width="1000px" height="500px" viewBox="150 650 2700 1000" xmlns="http://www.w3.org/2000/svg" xmlns:xlink="http://www.w3.org/1999/xlink" version="1.2" baseProfile="tiny">
 xmlns="http://www.w3.org/2000/svg" xmlns:xlink="http://www.w3.org/1999/xlink" version="1.2" baseProfile="tiny">
<title>exercises_scores (13)</title>
<desc>Generated by MuseScore 3.6.0</desc>
<polyline class="StaffLines" fill="none" stroke="#000000" stroke-width="2.75" stroke-linejoin="bevel" points="247.099,659.598 2764.63,659.598"/>
<polyline class="StaffLines" fill="none" stroke="#000000" stroke-width="2.75" stroke-linejoin="bevel" points="247.099,684.6 2764.63,684.6"/>
<polyline class="StaffLines" fill="none" stroke="#000000" stroke-width="2.75" stroke-linejoin="bevel" points="247.099,709.602 2764.63,709.602"/>
<polyline class="StaffLines" fill="none" stroke="#000000" stroke-width="2.75" stroke-linejoin="bevel" points="247.099,734.603 2764.63,734.603"/>
<polyline class="StaffLines" fill="none" stroke="#000000" stroke-width="2.75" stroke-linejoin="bevel" points="247.099,759.605 2764.63,759.605"/>
<polyline class="StaffLines" fill="none" stroke="#000000" stroke-width="2.75" stroke-linejoin="bevel" points="247.099,922.115 2764.63,922.115"/>
<polyline class="StaffLines" fill="none" stroke="#000000" stroke-width="2.75" stroke-linejoin="bevel" points="247.099,947.117 2764.63,947.117"/>
<polyline class="StaffLines" fill="none" stroke="#000000" stroke-width="2.75" stroke-linejoin="bevel" points="247.099,972.118 2764.63,972.118"/>
<polyline class="StaffLines" fill="none" stroke="#000000" stroke-width="2.75" stroke-linejoin="bevel" points="247.099,997.12 2764.63,997.12"/>
<polyline class="StaffLines" fill="none" stroke="#000000" stroke-width="2.75" stroke-linejoin="bevel" points="247.099,1022.12 2764.63,1022.12"/>
<polyline class="StaffLines" fill="none" stroke="#000000" stroke-width="2.75" stroke-linejoin="bevel" points="247.099,1272.14 2764.63,1272.14"/>
<polyline class="StaffLines" fill="none" stroke="#000000" stroke-width="2.75" stroke-linejoin="bevel" points="247.099,1297.14 2764.63,1297.14"/>
<polyline class="StaffLines" fill="none" stroke="#000000" stroke-width="2.75" stroke-linejoin="bevel" points="247.099,1322.14 2764.63,1322.14"/>
<polyline class="StaffLines" fill="none" stroke="#000000" stroke-width="2.75" stroke-linejoin="bevel" points="247.099,1347.14 2764.63,1347.14"/>
<polyline class="StaffLines" fill="none" stroke="#000000" stroke-width="2.75" stroke-linejoin="bevel" points="247.099,1372.14 2764.63,1372.14"/>
<polyline class="StaffLines" fill="none" stroke="#000000" stroke-width="2.75" stroke-linejoin="bevel" points="247.099,1534.65 2764.63,1534.65"/>
<polyline class="StaffLines" fill="none" stroke="#000000" stroke-width="2.75" stroke-linejoin="bevel" points="247.099,1559.66 2764.63,1559.66"/>
<polyline class="StaffLines" fill="none" stroke="#000000" stroke-width="2.75" stroke-linejoin="bevel" points="247.099,1584.66 2764.63,1584.66"/>
<polyline class="StaffLines" fill="none" stroke="#000000" stroke-width="2.75" stroke-linejoin="bevel" points="247.099,1609.66 2764.63,1609.66"/>
<polyline class="StaffLines" fill="none" stroke="#000000" stroke-width="2.75" stroke-linejoin="bevel" points="247.099,1634.66 2764.63,1634.66"/>
<path class="Text" d="M242.312,216.2 L240.092,216.2 L237.692,219.8 C234.812,217.1 231.032,215.66 226.772,215.66 C218.852,215.66 213.632,220.64 213.632,228.2 C213.632,234.74 216.872,237.98 225.692,240.26 L231.392,241.7 C235.832,242.84 236.252,242.96 237.512,243.92 C239.312,245.3 240.272,247.28 240.272,249.62 C240.272,252.02 239.372,254 237.572,255.68 C235.592,257.36 233.612,258.02 230.312,258.02 C225.872,258.02 222.692,256.64 219.872,253.52 C217.352,250.76 216.092,247.88 215.192,243.26 L212.612,243.26 L212.852,260.36 L215.192,260.36 L217.892,256.28 C221.912,259.58 225.212,260.78 230.492,260.78 C239.312,260.78 244.952,255.62 244.952,247.58 C244.952,243.8 243.752,240.68 241.352,238.4 C239.732,236.84 237.392,235.82 232.592,234.62 L226.172,233 C220.832,231.62 218.312,229.28 218.312,225.62 C218.312,221.42 221.732,218.54 226.832,218.54 C231.032,218.54 234.452,220.34 236.852,223.76 C238.592,226.22 239.732,228.74 240.452,231.8 L243.032,231.8 L242.312,216.2 M271.162,251.06 C269.242,255.38 267.202,257.12 264.082,257.12 C259.282,257.12 256.282,252.74 256.282,245.72 C256.282,238.4 259.222,233.6 263.662,233.6 C265.462,233.6 267.022,234.44 267.022,235.4 C267.022,235.58 266.962,235.76 266.662,236.12 C265.702,237.26 265.462,237.86 265.462,238.88 C265.462,240.86 266.962,242.24 269.062,242.24 C271.222,242.24 272.722,240.56 272.722,238.16 C272.722,234.08 268.702,231.02 263.362,231.02 C255.562,231.02 249.982,237.38 249.982,246.38 C249.982,254.9 255.082,260.78 262.522,260.78 C267.862,260.78 270.922,258.32 273.502,251.96 L271.162,251.06 M301.75,240.56 C301.75,236.78 301.09,234.86 299.35,233.42 C297.37,231.8 294.43,231.02 290.59,231.02 C283.81,231.02 278.89,234.2 278.89,238.58 C278.89,240.8 280.27,242.24 282.37,242.24 C284.29,242.24 285.61,240.98 285.61,239.18 C285.61,238.4 285.31,237.56 284.71,236.72 C284.35,236.3 284.29,236.18 284.29,235.88 C284.29,234.68 286.69,233.6 289.57,233.6 C291.49,233.6 293.59,234.2 294.55,235.1 C295.69,236.06 296.11,237.5 296.11,240.2 L296.11,242.54 C289.87,243.62 287.89,244.1 284.95,245.24 C279.73,247.16 277.27,249.92 277.27,253.76 C277.27,258.08 280.63,260.78 285.97,260.78 C290.11,260.78 293.83,259.1 296.41,256.04 C297.37,259.1 298.87,260.3 301.69,260.3 C304.39,260.3 307.21,258.56 307.21,256.82 C307.21,256.4 306.97,256.1 306.61,256.1 C306.37,256.1 306.13,256.16 305.71,256.34 C304.87,256.7 304.51,256.76 304.03,256.76 C302.35,256.76 301.75,255.68 301.75,252.62 L301.75,240.56 M296.11,247.88 C296.11,251.48 295.93,252.32 294.91,253.88 C293.41,256.1 290.71,257.6 288.07,257.6 C285.31,257.6 283.33,255.62 283.33,252.92 C283.33,250.4 284.59,248.6 287.23,247.34 C289.09,246.5 291.43,245.9 296.11,245.12 L296.11,247.88 M320.229,215.66 L309.129,216.32 L309.129,218.9 L312.069,218.9 C314.289,218.96 314.589,219.32 314.589,221.9 L314.589,252.5 L314.589,255.32 C314.529,256.22 314.469,256.58 314.229,256.88 C313.809,257.42 312.669,257.66 310.089,257.72 L309.669,257.72 L309.669,259.88 L325.209,259.88 L325.209,257.72 L324.789,257.72 C320.769,257.6 320.229,257.3 320.229,255.14 L320.229,252.5 L320.229,215.66 M354.78,246.38 C354.84,237.38 349.74,231.02 342.42,231.02 C334.74,231.02 328.98,237.68 328.98,246.68 C328.98,255.14 334.44,260.78 342.54,260.78 C348.3,260.78 352.32,257.96 354.78,252.26 L352.68,251.12 C350.22,255.74 347.7,257.54 343.68,257.54 C340.62,257.54 338.4,256.28 336.84,253.58 C335.76,251.78 335.28,249.68 335.34,246.38 L354.78,246.38 M335.4,243.8 C335.4,241.94 335.64,240.62 336.24,238.94 C337.5,235.34 339.42,233.6 342.36,233.6 C345.96,233.6 348.36,236.78 348.36,241.64 C348.36,243.32 347.82,243.8 345.9,243.8 L335.4,243.8 M366.601,253.22 C364.501,253.22 362.821,254.9 362.821,256.94 C362.821,259.04 364.501,260.72 366.541,260.72 C368.641,260.72 370.321,259.04 370.321,256.94 C370.321,254.9 368.641,253.22 366.601,253.22 M366.601,231.5 C364.501,231.5 362.821,233.18 362.821,235.28 C362.821,237.32 364.501,239 366.541,239 C368.641,239 370.321,237.32 370.321,235.22 C370.321,233.18 368.641,231.5 366.601,231.5 M428.805,216.56 L392.745,216.56 L392.745,219.38 L393.825,219.38 C397.245,219.44 398.385,219.62 398.865,220.22 C399.225,220.76 399.225,220.88 399.225,223.94 L399.225,252.5 C399.225,255.56 399.225,255.68 398.865,256.22 C398.385,256.82 397.245,257.06 393.825,257.06 L392.745,257.06 L392.745,259.88 L429.585,259.88 L430.785,243.86 L428.145,243.86 C425.865,254.54 423.405,256.82 414.225,257.06 L410.265,257.06 C406.665,256.94 405.765,256.34 405.945,254.18 L405.945,238.88 L407.145,238.88 C413.325,238.64 415.545,240.86 415.785,247.52 L418.605,247.52 L418.605,227.84 L415.785,227.84 C415.425,233.72 413.085,236.06 407.385,236.06 L405.945,236.06 L405.945,222.38 C405.885,219.86 406.485,219.44 409.725,219.38 L412.845,219.38 C422.685,219.32 425.145,221.48 427.065,231.86 L429.645,231.86 L428.805,216.56 M454.237,242.18 C453.757,239.06 451.909,236.18 447.829,236.18 C443.749,236.18 441.595,238.622 441.199,239.096 L441.469,213.71 C441.469,213.706 441.469,213.701 441.469,213.698 C441.469,213.092 440.977,212.6 440.371,212.6 L440.371,212.6 L439.435,212.6 C439.183,212.601 438.834,212.746 438.655,212.924 C438.48,213.098 438.337,213.441 438.337,213.689 C438.337,213.695 438.337,213.704 438.337,213.71 L438.763,261.314 C438.77,261.913 439.262,262.4 439.861,262.4 L439.861,262.4 C440.055,262.399 440.34,262.308 440.497,262.196 C440.809,262.046 445.885,259.55 450.193,254.702 C453.871,250.568 454.837,245.72 454.237,242.18 M448.807,245.324 C448.801,246.482 448.513,250.166 446.509,253.166 C445.135,255.224 442.501,257.396 440.989,258.554 L441.157,243.104 C441.337,242.36 442.531,240.086 445.711,240.098 C449.185,240.11 448.807,244.166 448.807,245.324 M487.049,231.92 L476.369,232.58 L476.369,235.16 L478.829,235.16 C481.109,235.22 481.409,235.58 481.409,238.16 L481.409,252.5 L481.409,254.84 L481.409,255.32 C481.349,256.22 481.289,256.58 481.049,256.88 C480.629,257.42 479.489,257.66 476.909,257.72 L476.669,257.72 L476.669,259.88 L491.789,259.88 L491.789,257.72 L491.549,257.72 C487.589,257.6 487.049,257.3 487.049,255.08 L487.049,252.5 L487.049,243.98 C487.049,238.64 489.989,234.68 493.889,234.68 C497.309,234.68 499.049,237.14 499.049,242 L499.049,252.5 L499.049,255.38 C498.989,256.16 498.929,256.58 498.629,256.88 C498.269,257.42 497.069,257.66 494.489,257.72 L494.249,257.72 L494.249,259.88 L509.429,259.88 L509.429,257.72 L509.189,257.72 C505.229,257.6 504.689,257.3 504.689,255.14 L504.689,252.5 L504.689,244.52 C504.689,238.52 507.389,234.68 511.589,234.68 C515.009,234.68 516.689,237.26 516.689,242.66 L516.689,252.5 L516.689,255.32 C516.629,256.16 516.569,256.58 516.269,256.88 C515.909,257.42 514.709,257.66 512.129,257.72 L511.889,257.72 L511.889,259.88 L527.069,259.88 L527.069,257.72 L526.829,257.72 C522.869,257.6 522.329,257.3 522.329,255.08 L522.329,252.5 L522.329,241.46 C522.329,237.74 521.969,236.48 520.409,234.44 C518.669,232.22 516.209,231.02 513.329,231.02 C509.429,231.02 506.549,232.88 503.969,237.02 C502.949,233.42 499.709,231.02 495.689,231.02 C492.029,231.02 489.389,232.76 487.049,236.54 L487.049,231.92 M555.437,240.56 C555.437,236.78 554.777,234.86 553.037,233.42 C551.057,231.8 548.117,231.02 544.277,231.02 C537.497,231.02 532.577,234.2 532.577,238.58 C532.577,240.8 533.957,242.24 536.057,242.24 C537.977,242.24 539.297,240.98 539.297,239.18 C539.297,238.4 538.997,237.56 538.397,236.72 C538.037,236.3 537.977,236.18 537.977,235.88 C537.977,234.68 540.377,233.6 543.257,233.6 C545.177,233.6 547.277,234.2 548.237,235.1 C549.377,236.06 549.797,237.5 549.797,240.2 L549.797,242.54 C543.557,243.62 541.577,244.1 538.637,245.24 C533.417,247.16 530.957,249.92 530.957,253.76 C530.957,258.08 534.317,260.78 539.657,260.78 C543.797,260.78 547.517,259.1 550.097,256.04 C551.057,259.1 552.557,260.3 555.377,260.3 C558.077,260.3 560.897,258.56 560.897,256.82 C560.897,256.4 560.657,256.1 560.297,256.1 C560.057,256.1 559.817,256.16 559.397,256.34 C558.557,256.7 558.197,256.76 557.717,256.76 C556.037,256.76 555.437,255.68 555.437,252.62 L555.437,240.56 M549.797,247.88 C549.797,251.48 549.617,252.32 548.597,253.88 C547.097,256.1 544.397,257.6 541.757,257.6 C538.997,257.6 537.017,255.62 537.017,252.92 C537.017,250.4 538.277,248.6 540.917,247.34 C542.777,246.5 545.117,245.9 549.797,245.12 L549.797,247.88 M572.362,231.92 L560.662,232.58 L560.662,235.16 L564.142,235.16 C566.422,235.22 566.722,235.58 566.722,238.16 L566.722,258.5 C566.722,263.36 566.422,265.64 565.582,267.38 C564.982,268.58 563.602,269.48 562.282,269.48 C561.442,269.48 560.782,269.12 560.782,268.7 C560.782,268.46 560.842,268.34 561.082,267.74 C561.382,267.14 561.502,266.72 561.502,266.3 C561.502,264.8 560.062,263.48 558.382,263.48 C556.462,263.48 555.022,264.98 555.022,267.08 C555.022,270.02 557.722,272 561.742,272 C565.102,272 568.162,270.56 569.902,268.1 C571.762,265.46 572.362,262.4 572.362,255.62 L572.362,231.92 M569.542,216.98 C567.622,216.98 566.062,218.54 566.062,220.46 C566.062,222.38 567.622,223.94 569.482,223.94 C571.462,223.94 573.022,222.38 573.022,220.46 C573.022,218.54 571.462,216.98 569.542,216.98 M592.812,231.02 C585.432,231.02 579.732,237.56 579.732,245.96 C579.732,254.18 585.492,260.78 592.692,260.78 C599.892,260.78 605.652,254.18 605.652,245.9 C605.652,237.68 599.892,231.02 592.812,231.02 M592.812,233.6 C597.012,233.6 599.352,237.98 599.352,245.9 C599.352,253.88 597.012,258.2 592.692,258.2 C588.372,258.2 586.032,253.88 586.032,245.96 C586.032,237.8 588.312,233.6 592.812,233.6 M619.572,231.92 L608.952,232.58 L608.952,235.16 L611.412,235.16 C613.692,235.22 613.992,235.58 613.992,238.16 L613.992,252.5 L613.992,255.32 C613.932,256.22 613.872,256.58 613.632,256.88 C613.212,257.42 612.012,257.66 609.432,257.72 L609.192,257.72 L609.192,259.88 L625.212,259.88 L625.212,257.72 L624.132,257.72 C620.112,257.6 619.572,257.3 619.572,255.14 L619.572,252.5 L619.572,251.9 C619.632,241.82 623.232,234.14 627.912,233.9 C627.072,234.86 626.832,235.46 626.832,236.6 C626.832,238.52 628.212,239.9 630.132,239.9 C632.352,239.9 633.792,238.28 633.792,235.88 C633.792,232.94 631.752,231.02 628.572,231.02 C624.792,231.02 621.552,234.02 619.572,239.36 L619.572,231.92 "/>
<polyline class="BarLine" fill="none" stroke="#000000" stroke-width="4.50" stroke-linejoin="bevel" points="249.349,920.74 249.349,1023.5"/>
<polyline class="BarLine" fill="none" stroke="#000000" stroke-width="4.50" stroke-linejoin="bevel" points="1033.44,920.74 1033.44,1023.5"/>
<polyline class="BarLine" fill="none" stroke="#000000" stroke-width="4.50" stroke-linejoin="bevel" points="1603.84,920.74 1603.84,1023.5"/>
<polyline class="BarLine" fill="none" stroke="#000000" stroke-width="4.50" stroke-linejoin="bevel" points="2237.23,920.74 2237.23,1023.5"/>
<polyline class="BarLine" fill="none" stroke="#000000" stroke-width="4.50" stroke-linejoin="bevel" points="2762.38,920.74 2762.38,1023.5"/>
<polyline class="BarLine" fill="none" stroke="#000000" stroke-width="4.50" stroke-linejoin="bevel" points="249.349,1533.28 249.349,1636.04"/>
<polyline class="BarLine" fill="none" stroke="#000000" stroke-width="4.50" stroke-linejoin="bevel" points="1072.47,1533.28 1072.47,1636.04"/>
<polyline class="BarLine" fill="none" stroke="#000000" stroke-width="4.50" stroke-linejoin="bevel" points="1614.54,1533.28 1614.54,1636.04"/>
<polyline class="BarLine" fill="none" stroke="#000000" stroke-width="4.50" stroke-linejoin="bevel" points="2253.52,1533.28 2253.52,1636.04"/>
<polyline class="BarLine" fill="none" stroke="#000000" stroke-width="4.50" stroke-linejoin="bevel" points="2734.88,1533.28 2734.88,1636.04"/>
<polyline class="BarLine" fill="none" stroke="#000000" stroke-width="13.75" stroke-linejoin="bevel" points="2757.76,1533.28 2757.76,1636.04"/>
<polyline class="BarLine" fill="none" stroke="#000000" stroke-width="4.50" stroke-linejoin="bevel" points="249.349,658.223 249.349,922.115"/>
<polyline class="BarLine" fill="none" stroke="#000000" stroke-width="4.50" stroke-linejoin="bevel" points="1033.44,658.223 1033.44,922.115"/>
<polyline class="BarLine" fill="none" stroke="#000000" stroke-width="4.50" stroke-linejoin="bevel" points="1603.84,658.223 1603.84,922.115"/>
<polyline class="BarLine" fill="none" stroke="#000000" stroke-width="4.50" stroke-linejoin="bevel" points="2237.23,658.223 2237.23,922.115"/>
<polyline class="BarLine" fill="none" stroke="#000000" stroke-width="4.50" stroke-linejoin="bevel" points="2762.38,658.223 2762.38,922.115"/>
<polyline class="BarLine" fill="none" stroke="#000000" stroke-width="4.50" stroke-linejoin="bevel" points="249.349,1270.76 249.349,1534.65"/>
<polyline class="BarLine" fill="none" stroke="#000000" stroke-width="4.50" stroke-linejoin="bevel" points="1072.47,1270.76 1072.47,1534.65"/>
<polyline class="BarLine" fill="none" stroke="#000000" stroke-width="4.50" stroke-linejoin="bevel" points="1614.54,1270.76 1614.54,1534.65"/>
<polyline class="BarLine" fill="none" stroke="#000000" stroke-width="4.50" stroke-linejoin="bevel" points="2253.52,1270.76 2253.52,1534.65"/>
<polyline class="BarLine" fill="none" stroke="#000000" stroke-width="4.50" stroke-linejoin="bevel" points="2734.88,1270.76 2734.88,1534.65"/>
<polyline class="BarLine" fill="none" stroke="#000000" stroke-width="13.75" stroke-linejoin="bevel" points="2757.76,1270.76 2757.76,1534.65"/>
<polyline class="LedgerLine" fill="none" stroke="#000000" stroke-width="4.00" stroke-linejoin="bevel" points="1192.79,897.113 1242.79,897.113"/>
<polyline class="LedgerLine" fill="none" stroke="#000000" stroke-width="4.00" stroke-linejoin="bevel" points="1326.14,897.113 1376.14,897.113"/>
<polyline class="LedgerLine" fill="none" stroke="#000000" stroke-width="4.00" stroke-linejoin="bevel" points="1459.49,897.113 1509.49,897.113"/>
<polyline class="LedgerLine" fill="none" stroke="#000000" stroke-width="4.00" stroke-linejoin="bevel" points="1459.49,872.112 1509.49,872.112"/>
<polyline class="LedgerLine" fill="none" stroke="#000000" stroke-width="4.00" stroke-linejoin="bevel" points="1726.95,1509.65 1776.94,1509.65"/>
<polyline class="LedgerLine" fill="none" stroke="#000000" stroke-width="4.00" stroke-linejoin="bevel" points="1970.03,634.597 2020.03,634.597"/>
<polyline class="LedgerLine" fill="none" stroke="#000000" stroke-width="4.00" stroke-linejoin="bevel" points="2098.13,634.597 2148.13,634.597"/>
<polyline class="LedgerLine" fill="none" stroke="#000000" stroke-width="4.00" stroke-linejoin="bevel" points="2271.98,634.597 2321.98,634.597"/>
<polyline class="LedgerLine" fill="none" stroke="#000000" stroke-width="4.00" stroke-linejoin="bevel" points="2271.98,609.595 2321.98,609.595"/>
<polyline class="LedgerLine" fill="none" stroke="#000000" stroke-width="4.00" stroke-linejoin="bevel" points="2405.15,634.597 2455.14,634.597"/>
<polyline class="LedgerLine" fill="none" stroke="#000000" stroke-width="4.00" stroke-linejoin="bevel" points="2405.15,609.595 2455.14,609.595"/>
<polyline class="LedgerLine" fill="none" stroke="#000000" stroke-width="4.00" stroke-linejoin="bevel" points="2538.31,634.597 2588.31,634.597"/>
<polyline class="LedgerLine" fill="none" stroke="#000000" stroke-width="4.00" stroke-linejoin="bevel" points="2538.31,609.595 2588.31,609.595"/>
<polyline class="LedgerLine" fill="none" stroke="#000000" stroke-width="4.00" stroke-linejoin="bevel" points="2538.31,584.594 2588.31,584.594"/>
<polyline class="LedgerLine" fill="none" stroke="#000000" stroke-width="4.00" stroke-linejoin="bevel" points="493.403,1247.14 543.398,1247.14"/>
<polyline class="LedgerLine" fill="none" stroke="#000000" stroke-width="4.00" stroke-linejoin="bevel" points="493.403,1222.13 543.398,1222.13"/>
<polyline class="LedgerLine" fill="none" stroke="#000000" stroke-width="4.00" stroke-linejoin="bevel" points="635.421,1247.14 685.416,1247.14"/>
<polyline class="LedgerLine" fill="none" stroke="#000000" stroke-width="4.00" stroke-linejoin="bevel" points="635.421,1222.13 685.416,1222.13"/>
<polyline class="LedgerLine" fill="none" stroke="#000000" stroke-width="4.00" stroke-linejoin="bevel" points="777.439,1247.14 827.434,1247.14"/>
<polyline class="LedgerLine" fill="none" stroke="#000000" stroke-width="4.00" stroke-linejoin="bevel" points="919.456,1247.14 969.452,1247.14"/>
<polyline class="Stem" fill="none" stroke="#000000" stroke-width="2.75" stroke-linejoin="bevel" points="551.68,963.138 551.68,1040.87"/>
<polyline class="Stem" fill="none" stroke="#000000" stroke-width="2.75" stroke-linejoin="bevel" points="671.903,950.637 671.903,1031.5"/>
<polyline class="Stem" fill="none" stroke="#000000" stroke-width="2.75" stroke-linejoin="bevel" points="792.125,938.136 792.125,1022.12"/>
<polyline class="Stem" fill="none" stroke="#000000" stroke-width="2.75" stroke-linejoin="bevel" points="912.347,925.635 912.347,1009.62"/>
<polyline class="Stem" fill="none" stroke="#000000" stroke-width="2.75" stroke-linejoin="bevel" points="1069.57,913.134 1069.57,997.12"/>
<polyline class="Stem" fill="none" stroke="#000000" stroke-width="2.75" stroke-linejoin="bevel" points="1202.92,900.634 1202.92,984.619"/>
<polyline class="Stem" fill="none" stroke="#000000" stroke-width="2.75" stroke-linejoin="bevel" points="1336.27,888.133 1336.27,972.118"/>
<polyline class="Stem" fill="none" stroke="#000000" stroke-width="2.75" stroke-linejoin="bevel" points="1469.62,875.632 1469.62,972.118"/>
<polyline class="Stem" fill="none" stroke="#000000" stroke-width="2.75" stroke-linejoin="bevel" points="1753.71,1006.26 1753.71,922.115"/>
<polyline class="Stem" fill="none" stroke="#000000" stroke-width="2.75" stroke-linejoin="bevel" points="1881.81,993.76 1881.81,912.739"/>
<polyline class="Stem" fill="none" stroke="#000000" stroke-width="2.75" stroke-linejoin="bevel" points="2009.9,981.259 2009.9,903.364"/>
<polyline class="Stem" fill="none" stroke="#000000" stroke-width="2.75" stroke-linejoin="bevel" points="2108.26,975.638 2108.26,1050.25"/>
<polyline class="Stem" fill="none" stroke="#000000" stroke-width="2.75" stroke-linejoin="bevel" points="2282.11,963.138 2282.11,1040.87"/>
<polyline class="Stem" fill="none" stroke="#000000" stroke-width="2.75" stroke-linejoin="bevel" points="2415.27,950.637 2415.27,1031.5"/>
<polyline class="Stem" fill="none" stroke="#000000" stroke-width="2.75" stroke-linejoin="bevel" points="2548.44,938.056 2548.44,1022.12"/>
<polyline class="Stem" fill="none" stroke="#000000" stroke-width="2.75" stroke-linejoin="bevel" points="503.529,1563.18 503.529,1644.04"/>
<polyline class="Stem" fill="none" stroke="#000000" stroke-width="2.75" stroke-linejoin="bevel" points="645.546,1575.68 645.546,1653.41"/>
<polyline class="Stem" fill="none" stroke="#000000" stroke-width="2.75" stroke-linejoin="bevel" points="787.564,1588.18 787.564,1662.79"/>
<polyline class="Stem" fill="none" stroke="#000000" stroke-width="2.75" stroke-linejoin="bevel" points="959.326,1593.8 959.326,1515.9"/>
<polyline class="Stem" fill="none" stroke="#000000" stroke-width="2.75" stroke-linejoin="bevel" points="1138.35,1606.3 1138.35,1525.28"/>
<polyline class="Stem" fill="none" stroke="#000000" stroke-width="2.75" stroke-linejoin="bevel" points="1264.61,1618.8 1264.61,1534.65"/>
<polyline class="Stem" fill="none" stroke="#000000" stroke-width="2.75" stroke-linejoin="bevel" points="1390.88,1631.3 1390.88,1547.15"/>
<polyline class="Stem" fill="none" stroke="#000000" stroke-width="2.75" stroke-linejoin="bevel" points="1517.15,1643.8 1517.15,1559.66"/>
<polyline class="Stem" fill="none" stroke="#000000" stroke-width="2.75" stroke-linejoin="bevel" points="1737.07,1513.17 1737.07,1597.16"/>
<polyline class="Stem" fill="none" stroke="#000000" stroke-width="2.75" stroke-linejoin="bevel" points="1865.97,1525.67 1865.97,1609.66"/>
<polyline class="Stem" fill="none" stroke="#000000" stroke-width="2.75" stroke-linejoin="bevel" points="1994.86,1538.17 1994.86,1622.16"/>
<polyline class="Stem" fill="none" stroke="#000000" stroke-width="2.75" stroke-linejoin="bevel" points="2123.75,1550.67 2123.75,1634.66"/>
<polyline class="Stem" fill="none" stroke="#000000" stroke-width="2.75" stroke-linejoin="bevel" points="2289.64,1563.18 2289.64,1644.04"/>
<polyline class="Stem" fill="none" stroke="#000000" stroke-width="2.75" stroke-linejoin="bevel" points="2440.23,1575.6 2440.23,1653.41"/>
<polyline class="Stem" fill="none" stroke="#000000" stroke-width="2.75" stroke-linejoin="bevel" points="581.424,756.245 581.424,672.099"/>
<polyline class="Stem" fill="none" stroke="#000000" stroke-width="2.75" stroke-linejoin="bevel" points="701.647,743.744 701.647,659.598"/>
<polyline class="Stem" fill="none" stroke="#000000" stroke-width="2.75" stroke-linejoin="bevel" points="821.869,731.243 821.869,650.223"/>
<polyline class="Stem" fill="none" stroke="#000000" stroke-width="2.75" stroke-linejoin="bevel" points="942.091,718.742 942.091,640.847"/>
<polyline class="Stem" fill="none" stroke="#000000" stroke-width="2.75" stroke-linejoin="bevel" points="1069.57,713.122 1069.57,787.732"/>
<polyline class="Stem" fill="none" stroke="#000000" stroke-width="2.75" stroke-linejoin="bevel" points="1202.92,700.621 1202.92,778.356"/>
<polyline class="Stem" fill="none" stroke="#000000" stroke-width="2.75" stroke-linejoin="bevel" points="1336.27,688.12 1336.27,768.98"/>
<polyline class="Stem" fill="none" stroke="#000000" stroke-width="2.75" stroke-linejoin="bevel" points="1469.62,675.62 1469.62,759.605"/>
<polyline class="Stem" fill="none" stroke="#000000" stroke-width="2.75" stroke-linejoin="bevel" points="1723.96,663.119 1723.96,747.104"/>
<polyline class="Stem" fill="none" stroke="#000000" stroke-width="2.75" stroke-linejoin="bevel" points="1852.06,650.618 1852.06,734.603"/>
<polyline class="Stem" fill="none" stroke="#000000" stroke-width="2.75" stroke-linejoin="bevel" points="1980.16,638.117 1980.16,722.102"/>
<polyline class="Stem" fill="none" stroke="#000000" stroke-width="2.75" stroke-linejoin="bevel" points="2108.26,625.616 2108.26,709.602"/>
<polyline class="Stem" fill="none" stroke="#000000" stroke-width="2.75" stroke-linejoin="bevel" points="2282.11,613.116 2282.11,709.602"/>
<polyline class="Stem" fill="none" stroke="#000000" stroke-width="2.75" stroke-linejoin="bevel" points="2415.27,600.615 2415.27,709.602"/>
<polyline class="Stem" fill="none" stroke="#000000" stroke-width="2.75" stroke-linejoin="bevel" points="2548.44,588.034 2548.44,709.602"/>
<polyline class="Stem" fill="none" stroke="#000000" stroke-width="2.75" stroke-linejoin="bevel" points="503.529,1213.15 503.529,1322.14"/>
<polyline class="Stem" fill="none" stroke="#000000" stroke-width="2.75" stroke-linejoin="bevel" points="645.546,1225.65 645.546,1322.14"/>
<polyline class="Stem" fill="none" stroke="#000000" stroke-width="2.75" stroke-linejoin="bevel" points="787.564,1238.15 787.564,1322.14"/>
<polyline class="Stem" fill="none" stroke="#000000" stroke-width="2.75" stroke-linejoin="bevel" points="929.582,1250.66 929.582,1334.64"/>
<polyline class="Stem" fill="none" stroke="#000000" stroke-width="2.75" stroke-linejoin="bevel" points="1108.6,1263.16 1108.6,1347.14"/>
<polyline class="Stem" fill="none" stroke="#000000" stroke-width="2.75" stroke-linejoin="bevel" points="1234.87,1275.66 1234.87,1359.64"/>
<polyline class="Stem" fill="none" stroke="#000000" stroke-width="2.75" stroke-linejoin="bevel" points="1361.14,1288.16 1361.14,1372.14"/>
<polyline class="Stem" fill="none" stroke="#000000" stroke-width="2.75" stroke-linejoin="bevel" points="1487.4,1300.66 1487.4,1381.52"/>
<polyline class="Stem" fill="none" stroke="#000000" stroke-width="2.75" stroke-linejoin="bevel" points="1737.07,1313.16 1737.07,1390.89"/>
<polyline class="Stem" fill="none" stroke="#000000" stroke-width="2.75" stroke-linejoin="bevel" points="1865.97,1325.66 1865.97,1400.27"/>
<polyline class="Stem" fill="none" stroke="#000000" stroke-width="2.75" stroke-linejoin="bevel" points="2024.6,1331.28 2024.6,1253.39"/>
<polyline class="Stem" fill="none" stroke="#000000" stroke-width="2.75" stroke-linejoin="bevel" points="2153.49,1343.78 2153.49,1262.76"/>
<polyline class="Stem" fill="none" stroke="#000000" stroke-width="2.75" stroke-linejoin="bevel" points="2319.39,1356.28 2319.39,1272.14"/>
<polyline class="Stem" fill="none" stroke="#000000" stroke-width="2.75" stroke-linejoin="bevel" points="2469.97,1368.7 2469.97,1284.64"/>
<path class="Note" d="M581.805,951.417 C580.305,948.717 577.405,947.017 573.505,946.617 C572.905,946.517 572.405,946.517 571.805,946.517 C568.305,946.517 564.505,947.517 561.005,949.417 C554.405,953.017 550.305,958.917 550.305,964.017 C550.305,965.417 550.505,966.717 551.205,967.917 C552.705,970.617 555.705,972.317 559.605,972.717 C560.205,972.817 560.705,972.817 561.305,972.817 C564.805,972.817 568.505,971.817 572.005,969.917 C578.605,966.317 582.805,960.517 582.805,955.417 C582.805,954.017 582.505,952.617 581.805,951.417"/>
<path class="Note" d="M702.027,938.917 C700.527,936.217 697.627,934.517 693.727,934.117 C693.127,934.017 692.627,934.017 692.027,934.017 C688.527,934.017 684.727,935.017 681.227,936.917 C674.627,940.517 670.527,946.417 670.527,951.517 C670.527,952.917 670.727,954.217 671.427,955.417 C672.927,958.117 675.927,959.817 679.827,960.217 C680.427,960.317 680.927,960.317 681.527,960.317 C685.027,960.317 688.727,959.317 692.227,957.417 C698.827,953.817 703.027,948.017 703.027,942.917 C703.027,941.517 702.727,940.117 702.027,938.917"/>
<path class="Note" d="M822.25,926.416 C820.75,923.716 817.85,922.016 813.95,921.616 C813.35,921.516 812.85,921.516 812.25,921.516 C808.75,921.516 804.95,922.516 801.45,924.416 C794.85,928.016 790.75,933.916 790.75,939.016 C790.75,940.416 790.95,941.716 791.65,942.916 C793.15,945.616 796.15,947.316 800.05,947.716 C800.65,947.816 801.15,947.816 801.75,947.816 C805.25,947.816 808.95,946.816 812.45,944.916 C819.05,941.316 823.25,935.516 823.25,930.416 C823.25,929.016 822.95,927.616 822.25,926.416"/>
<path class="Note" d="M942.472,913.915 C940.972,911.215 938.072,909.515 934.172,909.115 C933.572,909.015 933.072,909.015 932.472,909.015 C928.972,909.015 925.172,910.015 921.672,911.915 C915.072,915.515 910.972,921.415 910.972,926.515 C910.972,927.915 911.172,929.215 911.872,930.415 C913.372,933.115 916.372,934.815 920.272,935.215 C920.872,935.315 921.372,935.315 921.972,935.315 C925.472,935.315 929.172,934.315 932.672,932.415 C939.272,928.815 943.472,923.015 943.472,917.915 C943.472,916.515 943.172,915.115 942.472,913.915"/>
<path class="Note" d="M1099.7,901.414 C1098.2,898.714 1095.3,897.014 1091.4,896.614 C1090.8,896.514 1090.3,896.514 1089.7,896.514 C1086.2,896.514 1082.4,897.514 1078.9,899.414 C1072.3,903.014 1068.2,908.914 1068.2,914.014 C1068.2,915.414 1068.4,916.714 1069.1,917.914 C1070.6,920.614 1073.6,922.314 1077.5,922.714 C1078.1,922.814 1078.6,922.814 1079.2,922.814 C1082.7,922.814 1086.4,921.814 1089.9,919.914 C1096.5,916.314 1100.7,910.514 1100.7,905.414 C1100.7,904.014 1100.4,902.614 1099.7,901.414"/>
<path class="Note" d="M1233.04,888.913 C1231.54,886.213 1228.64,884.513 1224.74,884.113 C1224.14,884.013 1223.64,884.013 1223.04,884.013 C1219.54,884.013 1215.74,885.013 1212.24,886.913 C1205.64,890.513 1201.54,896.413 1201.54,901.513 C1201.54,902.913 1201.74,904.213 1202.44,905.413 C1203.94,908.113 1206.94,909.813 1210.84,910.213 C1211.44,910.313 1211.94,910.313 1212.54,910.313 C1216.04,910.313 1219.74,909.313 1223.24,907.413 C1229.84,903.813 1234.04,898.013 1234.04,892.913 C1234.04,891.513 1233.74,890.113 1233.04,888.913"/>
<path class="Note" d="M1366.39,876.413 C1364.89,873.713 1361.99,872.013 1358.09,871.613 C1357.49,871.513 1356.99,871.513 1356.39,871.513 C1352.89,871.513 1349.09,872.513 1345.59,874.413 C1338.99,878.013 1334.89,883.913 1334.89,889.013 C1334.89,890.413 1335.09,891.713 1335.79,892.913 C1337.29,895.613 1340.29,897.313 1344.19,897.713 C1344.79,897.813 1345.29,897.813 1345.89,897.813 C1349.39,897.813 1353.09,896.813 1356.59,894.913 C1363.19,891.313 1367.39,885.513 1367.39,880.413 C1367.39,879.013 1367.09,877.613 1366.39,876.413"/>
<path class="Note" d="M1499.74,863.912 C1498.24,861.212 1495.34,859.512 1491.44,859.112 C1490.84,859.012 1490.34,859.012 1489.74,859.012 C1486.24,859.012 1482.44,860.012 1478.94,861.912 C1472.34,865.512 1468.24,871.412 1468.24,876.512 C1468.24,877.912 1468.44,879.212 1469.14,880.412 C1470.64,883.112 1473.64,884.812 1477.54,885.212 C1478.14,885.312 1478.64,885.312 1479.24,885.312 C1482.74,885.312 1486.44,884.312 1489.94,882.412 C1496.54,878.812 1500.74,873.012 1500.74,867.912 C1500.74,866.512 1500.44,865.112 1499.74,863.912"/>
<path class="Note" d="M1754.09,1001.42 C1752.59,998.721 1749.69,997.021 1745.79,996.621 C1745.19,996.521 1744.69,996.521 1744.09,996.521 C1740.59,996.521 1736.79,997.521 1733.29,999.421 C1726.69,1003.02 1722.59,1008.92 1722.59,1014.02 C1722.59,1015.42 1722.79,1016.72 1723.49,1017.92 C1724.99,1020.62 1727.99,1022.32 1731.89,1022.72 C1732.49,1022.82 1732.99,1022.82 1733.59,1022.82 C1737.09,1022.82 1740.79,1021.82 1744.29,1019.92 C1750.89,1016.32 1755.09,1010.52 1755.09,1005.42 C1755.09,1004.02 1754.79,1002.62 1754.09,1001.42"/>
<path class="Note" d="M1882.19,988.92 C1880.69,986.22 1877.79,984.52 1873.89,984.12 C1873.29,984.02 1872.79,984.02 1872.19,984.02 C1868.69,984.02 1864.89,985.02 1861.39,986.92 C1854.79,990.52 1850.69,996.42 1850.69,1001.52 C1850.69,1002.92 1850.89,1004.22 1851.59,1005.42 C1853.09,1008.12 1856.09,1009.82 1859.99,1010.22 C1860.59,1010.32 1861.09,1010.32 1861.69,1010.32 C1865.19,1010.32 1868.89,1009.32 1872.39,1007.42 C1878.99,1003.82 1883.19,998.02 1883.19,992.92 C1883.19,991.52 1882.89,990.12 1882.19,988.92"/>
<path class="Note" d="M2010.28,976.419 C2008.78,973.719 2005.88,972.019 2001.98,971.619 C2001.38,971.519 2000.88,971.519 2000.28,971.519 C1996.78,971.519 1992.98,972.519 1989.48,974.419 C1982.88,978.019 1978.78,983.919 1978.78,989.019 C1978.78,990.419 1978.98,991.719 1979.68,992.919 C1981.18,995.619 1984.18,997.319 1988.08,997.719 C1988.68,997.819 1989.18,997.819 1989.78,997.819 C1993.28,997.819 1996.98,996.819 2000.48,994.919 C2007.08,991.319 2011.28,985.519 2011.28,980.419 C2011.28,979.019 2010.98,977.619 2010.28,976.419"/>
<path class="Note" d="M2138.38,963.918 C2136.88,961.218 2133.98,959.518 2130.08,959.118 C2129.48,959.018 2128.98,959.018 2128.38,959.018 C2124.88,959.018 2121.08,960.018 2117.58,961.918 C2110.98,965.518 2106.88,971.418 2106.88,976.518 C2106.88,977.918 2107.08,979.218 2107.78,980.418 C2109.28,983.118 2112.28,984.818 2116.18,985.218 C2116.78,985.318 2117.28,985.318 2117.88,985.318 C2121.38,985.318 2125.08,984.318 2128.58,982.418 C2135.18,978.818 2139.38,973.018 2139.38,967.918 C2139.38,966.518 2139.08,965.118 2138.38,963.918"/>
<path class="Note" d="M2312.23,951.417 C2310.73,948.717 2307.83,947.017 2303.93,946.617 C2303.33,946.517 2302.83,946.517 2302.23,946.517 C2298.73,946.517 2294.93,947.517 2291.43,949.417 C2284.83,953.017 2280.73,958.917 2280.73,964.017 C2280.73,965.417 2280.93,966.717 2281.63,967.917 C2283.13,970.617 2286.13,972.317 2290.03,972.717 C2290.63,972.817 2291.13,972.817 2291.73,972.817 C2295.23,972.817 2298.93,971.817 2302.43,969.917 C2309.03,966.317 2313.23,960.517 2313.23,955.417 C2313.23,954.017 2312.93,952.617 2312.23,951.417"/>
<path class="Note" d="M2445.4,938.917 C2443.9,936.217 2441,934.517 2437.1,934.117 C2436.5,934.017 2436,934.017 2435.4,934.017 C2431.9,934.017 2428.1,935.017 2424.6,936.917 C2418,940.517 2413.9,946.417 2413.9,951.517 C2413.9,952.917 2414.1,954.217 2414.8,955.417 C2416.3,958.117 2419.3,959.817 2423.2,960.217 C2423.8,960.317 2424.3,960.317 2424.9,960.317 C2428.4,960.317 2432.1,959.317 2435.6,957.417 C2442.2,953.817 2446.4,948.017 2446.4,942.917 C2446.4,941.517 2446.1,940.117 2445.4,938.917"/>
<path class="Note" d="M2578.57,926.416 C2577.07,923.716 2574.17,922.016 2570.27,921.616 C2569.67,921.516 2569.17,921.516 2568.57,921.516 C2565.07,921.516 2561.27,922.516 2557.77,924.416 C2551.17,928.016 2547.07,933.816 2547.07,938.916 C2547.07,940.316 2547.47,941.716 2548.17,942.916 C2549.67,945.716 2552.47,947.316 2556.37,947.716 C2556.97,947.816 2557.47,947.816 2558.07,947.816 C2561.57,947.816 2565.37,946.816 2568.87,944.916 C2575.47,941.316 2579.57,935.416 2579.57,930.316 C2579.57,928.916 2579.27,927.616 2578.57,926.416 M2574.37,932.716 C2572.67,934.516 2569.47,936.816 2565.87,938.916 C2562.27,941.016 2558.57,942.716 2556.27,943.416 C2555.77,943.516 2555.17,943.616 2554.67,943.616 C2553.17,943.616 2551.87,942.916 2551.17,941.816 C2550.87,941.216 2550.67,940.616 2550.67,940.016 C2550.67,938.916 2551.17,937.816 2552.27,936.616 C2553.97,934.816 2557.17,932.416 2560.77,930.316 C2564.37,928.216 2568.07,926.516 2570.47,925.916 L2570.67,925.916 C2571.27,925.716 2571.77,925.616 2572.27,925.616 C2573.67,925.616 2574.77,926.216 2575.47,927.516 C2575.77,928.116 2575.97,928.616 2575.97,929.216 C2575.97,930.516 2575.27,931.816 2574.37,932.716"/>
<path class="Note" d="M533.654,1551.46 C532.154,1548.76 529.254,1547.06 525.354,1546.66 C524.754,1546.56 524.254,1546.56 523.654,1546.56 C520.154,1546.56 516.354,1547.56 512.854,1549.46 C506.254,1553.06 502.154,1558.96 502.154,1564.06 C502.154,1565.46 502.354,1566.76 503.054,1567.96 C504.554,1570.66 507.554,1572.36 511.454,1572.76 C512.054,1572.86 512.554,1572.86 513.154,1572.86 C516.654,1572.86 520.354,1571.86 523.854,1569.96 C530.454,1566.36 534.654,1560.56 534.654,1555.46 C534.654,1554.06 534.354,1552.66 533.654,1551.46"/>
<path class="Note" d="M675.671,1563.96 C674.171,1561.26 671.271,1559.56 667.371,1559.16 C666.771,1559.06 666.271,1559.06 665.671,1559.06 C662.171,1559.06 658.371,1560.06 654.871,1561.96 C648.271,1565.56 644.171,1571.46 644.171,1576.56 C644.171,1577.96 644.371,1579.26 645.071,1580.46 C646.571,1583.16 649.571,1584.86 653.471,1585.26 C654.071,1585.36 654.571,1585.36 655.171,1585.36 C658.671,1585.36 662.371,1584.36 665.871,1582.46 C672.471,1578.86 676.671,1573.06 676.671,1567.96 C676.671,1566.56 676.371,1565.16 675.671,1563.96"/>
<path class="Note" d="M817.689,1576.46 C816.189,1573.76 813.289,1572.06 809.389,1571.66 C808.789,1571.56 808.289,1571.56 807.689,1571.56 C804.189,1571.56 800.389,1572.56 796.889,1574.46 C790.289,1578.06 786.189,1583.96 786.189,1589.06 C786.189,1590.46 786.389,1591.76 787.089,1592.96 C788.589,1595.66 791.589,1597.36 795.489,1597.76 C796.089,1597.86 796.589,1597.86 797.189,1597.86 C800.689,1597.86 804.389,1596.86 807.889,1594.96 C814.489,1591.36 818.689,1585.56 818.689,1580.46 C818.689,1579.06 818.389,1577.66 817.689,1576.46"/>
<path class="Note" d="M959.707,1588.96 C958.207,1586.26 955.307,1584.56 951.407,1584.16 C950.807,1584.06 950.307,1584.06 949.707,1584.06 C946.207,1584.06 942.407,1585.06 938.907,1586.96 C932.307,1590.56 928.207,1596.46 928.207,1601.56 C928.207,1602.96 928.407,1604.26 929.107,1605.46 C930.607,1608.16 933.607,1609.86 937.507,1610.26 C938.107,1610.36 938.607,1610.36 939.207,1610.36 C942.707,1610.36 946.407,1609.36 949.907,1607.46 C956.507,1603.86 960.707,1598.06 960.707,1592.96 C960.707,1591.56 960.407,1590.16 959.707,1588.96"/>
<path class="Note" d="M1138.73,1601.46 C1137.23,1598.76 1134.33,1597.06 1130.43,1596.66 C1129.83,1596.56 1129.33,1596.56 1128.73,1596.56 C1125.23,1596.56 1121.43,1597.56 1117.93,1599.46 C1111.33,1603.06 1107.23,1608.96 1107.23,1614.06 C1107.23,1615.46 1107.43,1616.76 1108.13,1617.96 C1109.63,1620.66 1112.63,1622.36 1116.53,1622.76 C1117.13,1622.86 1117.63,1622.86 1118.23,1622.86 C1121.73,1622.86 1125.43,1621.86 1128.93,1619.96 C1135.53,1616.36 1139.73,1610.56 1139.73,1605.46 C1139.73,1604.06 1139.43,1602.66 1138.73,1601.46"/>
<path class="Note" d="M1264.99,1613.96 C1263.49,1611.26 1260.59,1609.56 1256.69,1609.16 C1256.09,1609.06 1255.59,1609.06 1254.99,1609.06 C1251.49,1609.06 1247.69,1610.06 1244.19,1611.96 C1237.59,1615.56 1233.49,1621.46 1233.49,1626.56 C1233.49,1627.96 1233.69,1629.26 1234.39,1630.46 C1235.89,1633.16 1238.89,1634.86 1242.79,1635.26 C1243.39,1635.36 1243.89,1635.36 1244.49,1635.36 C1247.99,1635.36 1251.69,1634.36 1255.19,1632.46 C1261.79,1628.86 1265.99,1623.06 1265.99,1617.96 C1265.99,1616.56 1265.69,1615.16 1264.99,1613.96"/>
<path class="Note" d="M1391.26,1626.46 C1389.76,1623.76 1386.86,1622.06 1382.96,1621.66 C1382.36,1621.56 1381.86,1621.56 1381.26,1621.56 C1377.76,1621.56 1373.96,1622.56 1370.46,1624.46 C1363.86,1628.06 1359.76,1633.96 1359.76,1639.06 C1359.76,1640.46 1359.96,1641.76 1360.66,1642.96 C1362.16,1645.66 1365.16,1647.36 1369.06,1647.76 C1369.66,1647.86 1370.16,1647.86 1370.76,1647.86 C1374.26,1647.86 1377.96,1646.86 1381.46,1644.96 C1388.06,1641.36 1392.26,1635.56 1392.26,1630.46 C1392.26,1629.06 1391.96,1627.66 1391.26,1626.46"/>
<path class="Note" d="M1517.53,1638.96 C1516.03,1636.26 1513.13,1634.56 1509.23,1634.16 C1508.63,1634.06 1508.13,1634.06 1507.53,1634.06 C1504.03,1634.06 1500.23,1635.06 1496.73,1636.96 C1490.13,1640.56 1486.03,1646.46 1486.03,1651.56 C1486.03,1652.96 1486.23,1654.26 1486.93,1655.46 C1488.43,1658.16 1491.43,1659.86 1495.33,1660.26 C1495.93,1660.36 1496.43,1660.36 1497.03,1660.36 C1500.53,1660.36 1504.23,1659.36 1507.73,1657.46 C1514.33,1653.86 1518.53,1648.06 1518.53,1642.96 C1518.53,1641.56 1518.23,1640.16 1517.53,1638.96"/>
<path class="Note" d="M1767.2,1501.45 C1765.7,1498.75 1762.8,1497.05 1758.9,1496.65 C1758.3,1496.55 1757.8,1496.55 1757.2,1496.55 C1753.7,1496.55 1749.9,1497.55 1746.4,1499.45 C1739.8,1503.05 1735.7,1508.95 1735.7,1514.05 C1735.7,1515.45 1735.9,1516.75 1736.6,1517.95 C1738.1,1520.65 1741.1,1522.35 1745,1522.75 C1745.6,1522.85 1746.1,1522.85 1746.7,1522.85 C1750.2,1522.85 1753.9,1521.85 1757.4,1519.95 C1764,1516.35 1768.2,1510.55 1768.2,1505.45 C1768.2,1504.05 1767.9,1502.65 1767.2,1501.45"/>
<path class="Note" d="M1896.09,1513.95 C1894.59,1511.25 1891.69,1509.55 1887.79,1509.15 C1887.19,1509.05 1886.69,1509.05 1886.09,1509.05 C1882.59,1509.05 1878.79,1510.05 1875.29,1511.95 C1868.69,1515.55 1864.59,1521.45 1864.59,1526.55 C1864.59,1527.95 1864.79,1529.25 1865.49,1530.45 C1866.99,1533.15 1869.99,1534.85 1873.89,1535.25 C1874.49,1535.35 1874.99,1535.35 1875.59,1535.35 C1879.09,1535.35 1882.79,1534.35 1886.29,1532.45 C1892.89,1528.85 1897.09,1523.05 1897.09,1517.95 C1897.09,1516.55 1896.79,1515.15 1896.09,1513.95"/>
<path class="Note" d="M2024.98,1526.45 C2023.48,1523.75 2020.58,1522.05 2016.68,1521.65 C2016.08,1521.55 2015.58,1521.55 2014.98,1521.55 C2011.48,1521.55 2007.68,1522.55 2004.18,1524.45 C1997.58,1528.05 1993.48,1533.95 1993.48,1539.05 C1993.48,1540.45 1993.68,1541.75 1994.38,1542.95 C1995.88,1545.65 1998.88,1547.35 2002.78,1547.75 C2003.38,1547.85 2003.88,1547.85 2004.48,1547.85 C2007.98,1547.85 2011.68,1546.85 2015.18,1544.95 C2021.78,1541.35 2025.98,1535.55 2025.98,1530.45 C2025.98,1529.05 2025.68,1527.65 2024.98,1526.45"/>
<path class="Note" d="M2153.88,1538.95 C2152.38,1536.25 2149.48,1534.55 2145.58,1534.15 C2144.98,1534.05 2144.48,1534.05 2143.88,1534.05 C2140.38,1534.05 2136.58,1535.05 2133.08,1536.95 C2126.48,1540.55 2122.38,1546.45 2122.38,1551.55 C2122.38,1552.95 2122.58,1554.25 2123.28,1555.45 C2124.78,1558.15 2127.78,1559.85 2131.68,1560.25 C2132.28,1560.35 2132.78,1560.35 2133.38,1560.35 C2136.88,1560.35 2140.58,1559.35 2144.08,1557.45 C2150.68,1553.85 2154.88,1548.05 2154.88,1542.95 C2154.88,1541.55 2154.58,1540.15 2153.88,1538.95"/>
<path class="Note" d="M2319.77,1551.46 C2318.27,1548.76 2315.37,1547.06 2311.47,1546.66 C2310.87,1546.56 2310.37,1546.56 2309.77,1546.56 C2306.27,1546.56 2302.47,1547.56 2298.97,1549.46 C2292.37,1553.06 2288.27,1558.96 2288.27,1564.06 C2288.27,1565.46 2288.47,1566.76 2289.17,1567.96 C2290.67,1570.66 2293.67,1572.36 2297.57,1572.76 C2298.17,1572.86 2298.67,1572.86 2299.27,1572.86 C2302.77,1572.86 2306.47,1571.86 2309.97,1569.96 C2316.57,1566.36 2320.77,1560.56 2320.77,1555.46 C2320.77,1554.06 2320.47,1552.66 2319.77,1551.46"/>
<path class="Note" d="M2470.35,1563.96 C2468.85,1561.26 2465.95,1559.56 2462.05,1559.16 C2461.45,1559.06 2460.95,1559.06 2460.35,1559.06 C2456.85,1559.06 2453.05,1560.06 2449.55,1561.96 C2442.95,1565.56 2438.85,1571.36 2438.85,1576.46 C2438.85,1577.86 2439.25,1579.26 2439.95,1580.46 C2441.45,1583.26 2444.25,1584.86 2448.15,1585.26 C2448.75,1585.36 2449.25,1585.36 2449.85,1585.36 C2453.35,1585.36 2457.15,1584.36 2460.65,1582.46 C2467.25,1578.86 2471.35,1572.96 2471.35,1567.86 C2471.35,1566.46 2471.05,1565.16 2470.35,1563.96 M2466.15,1570.26 C2464.45,1572.06 2461.25,1574.36 2457.65,1576.46 C2454.05,1578.56 2450.35,1580.26 2448.05,1580.96 C2447.55,1581.06 2446.95,1581.16 2446.45,1581.16 C2444.95,1581.16 2443.65,1580.46 2442.95,1579.36 C2442.65,1578.76 2442.45,1578.16 2442.45,1577.56 C2442.45,1576.46 2442.95,1575.36 2444.05,1574.16 C2445.75,1572.36 2448.95,1569.96 2452.55,1567.86 C2456.15,1565.76 2459.85,1564.06 2462.25,1563.46 L2462.45,1563.46 C2463.05,1563.26 2463.55,1563.16 2464.05,1563.16 C2465.45,1563.16 2466.55,1563.76 2467.25,1565.06 C2467.55,1565.66 2467.75,1566.16 2467.75,1566.76 C2467.75,1568.06 2467.05,1569.36 2466.15,1570.26"/>
<path class="Note" d="M581.805,751.405 C580.305,748.705 577.405,747.005 573.505,746.605 C572.905,746.505 572.405,746.505 571.805,746.505 C568.305,746.505 564.505,747.505 561.005,749.405 C554.405,753.005 550.305,758.905 550.305,764.005 C550.305,765.405 550.505,766.705 551.205,767.905 C552.705,770.605 555.705,772.305 559.605,772.705 C560.205,772.805 560.705,772.805 561.305,772.805 C564.805,772.805 568.505,771.805 572.005,769.905 C578.605,766.305 582.805,760.505 582.805,755.405 C582.805,754.005 582.505,752.605 581.805,751.405"/>
<path class="Note" d="M702.027,738.904 C700.527,736.204 697.627,734.504 693.727,734.104 C693.127,734.004 692.627,734.004 692.027,734.004 C688.527,734.004 684.727,735.004 681.227,736.904 C674.627,740.504 670.527,746.404 670.527,751.504 C670.527,752.904 670.727,754.204 671.427,755.404 C672.927,758.104 675.927,759.804 679.827,760.204 C680.427,760.304 680.927,760.304 681.527,760.304 C685.027,760.304 688.727,759.304 692.227,757.404 C698.827,753.804 703.027,748.004 703.027,742.904 C703.027,741.504 702.727,740.104 702.027,738.904"/>
<path class="Note" d="M822.25,726.403 C820.75,723.703 817.85,722.003 813.95,721.603 C813.35,721.503 812.85,721.503 812.25,721.503 C808.75,721.503 804.95,722.503 801.45,724.403 C794.85,728.003 790.75,733.903 790.75,739.003 C790.75,740.403 790.95,741.703 791.65,742.903 C793.15,745.603 796.15,747.303 800.05,747.703 C800.65,747.803 801.15,747.803 801.75,747.803 C805.25,747.803 808.95,746.803 812.45,744.903 C819.05,741.303 823.25,735.503 823.25,730.403 C823.25,729.003 822.95,727.603 822.25,726.403"/>
<path class="Note" d="M942.472,713.902 C940.972,711.202 938.072,709.502 934.172,709.102 C933.572,709.002 933.072,709.002 932.472,709.002 C928.972,709.002 925.172,710.002 921.672,711.902 C915.072,715.502 910.972,721.402 910.972,726.502 C910.972,727.902 911.172,729.202 911.872,730.402 C913.372,733.102 916.372,734.802 920.272,735.202 C920.872,735.302 921.372,735.302 921.972,735.302 C925.472,735.302 929.172,734.302 932.672,732.402 C939.272,728.802 943.472,723.002 943.472,717.902 C943.472,716.502 943.172,715.102 942.472,713.902"/>
<path class="Note" d="M1099.7,701.402 C1098.2,698.702 1095.3,697.002 1091.4,696.602 C1090.8,696.502 1090.3,696.502 1089.7,696.502 C1086.2,696.502 1082.4,697.502 1078.9,699.402 C1072.3,703.002 1068.2,708.902 1068.2,714.002 C1068.2,715.402 1068.4,716.702 1069.1,717.902 C1070.6,720.602 1073.6,722.302 1077.5,722.702 C1078.1,722.802 1078.6,722.802 1079.2,722.802 C1082.7,722.802 1086.4,721.802 1089.9,719.902 C1096.5,716.302 1100.7,710.502 1100.7,705.402 C1100.7,704.002 1100.4,702.602 1099.7,701.402"/>
<path class="Note" d="M1233.04,688.901 C1231.54,686.201 1228.64,684.501 1224.74,684.101 C1224.14,684.001 1223.64,684.001 1223.04,684.001 C1219.54,684.001 1215.74,685.001 1212.24,686.901 C1205.64,690.501 1201.54,696.401 1201.54,701.501 C1201.54,702.901 1201.74,704.201 1202.44,705.401 C1203.94,708.101 1206.94,709.801 1210.84,710.201 C1211.44,710.301 1211.94,710.301 1212.54,710.301 C1216.04,710.301 1219.74,709.301 1223.24,707.401 C1229.84,703.801 1234.04,698.001 1234.04,692.901 C1234.04,691.501 1233.74,690.101 1233.04,688.901"/>
<path class="Note" d="M1366.39,676.4 C1364.89,673.7 1361.99,672 1358.09,671.6 C1357.49,671.5 1356.99,671.5 1356.39,671.5 C1352.89,671.5 1349.09,672.5 1345.59,674.4 C1338.99,678 1334.89,683.9 1334.89,689 C1334.89,690.4 1335.09,691.7 1335.79,692.9 C1337.29,695.6 1340.29,697.3 1344.19,697.7 C1344.79,697.8 1345.29,697.8 1345.89,697.8 C1349.39,697.8 1353.09,696.8 1356.59,694.9 C1363.19,691.3 1367.39,685.5 1367.39,680.4 C1367.39,679 1367.09,677.6 1366.39,676.4"/>
<path class="Note" d="M1499.74,663.899 C1498.24,661.199 1495.34,659.499 1491.44,659.099 C1490.84,658.999 1490.34,658.999 1489.74,658.999 C1486.24,658.999 1482.44,659.999 1478.94,661.899 C1472.34,665.499 1468.24,671.399 1468.24,676.499 C1468.24,677.899 1468.44,679.199 1469.14,680.399 C1470.64,683.099 1473.64,684.799 1477.54,685.199 C1478.14,685.299 1478.64,685.299 1479.24,685.299 C1482.74,685.299 1486.44,684.299 1489.94,682.399 C1496.54,678.799 1500.74,672.999 1500.74,667.899 C1500.74,666.499 1500.44,665.099 1499.74,663.899"/>
<path class="Note" d="M1754.09,651.398 C1752.59,648.698 1749.69,646.998 1745.79,646.598 C1745.19,646.498 1744.69,646.498 1744.09,646.498 C1740.59,646.498 1736.79,647.498 1733.29,649.398 C1726.69,652.998 1722.59,658.898 1722.59,663.998 C1722.59,665.398 1722.79,666.698 1723.49,667.898 C1724.99,670.598 1727.99,672.298 1731.89,672.698 C1732.49,672.798 1732.99,672.798 1733.59,672.798 C1737.09,672.798 1740.79,671.798 1744.29,669.898 C1750.89,666.298 1755.09,660.498 1755.09,655.398 C1755.09,653.998 1754.79,652.598 1754.09,651.398"/>
<path class="Note" d="M1882.19,638.898 C1880.69,636.198 1877.79,634.498 1873.89,634.098 C1873.29,633.998 1872.79,633.998 1872.19,633.998 C1868.69,633.998 1864.89,634.998 1861.39,636.898 C1854.79,640.498 1850.69,646.398 1850.69,651.498 C1850.69,652.898 1850.89,654.198 1851.59,655.398 C1853.09,658.098 1856.09,659.798 1859.99,660.198 C1860.59,660.298 1861.09,660.298 1861.69,660.298 C1865.19,660.298 1868.89,659.298 1872.39,657.398 C1878.99,653.798 1883.19,647.998 1883.19,642.898 C1883.19,641.498 1882.89,640.098 1882.19,638.898"/>
<path class="Note" d="M2010.28,626.397 C2008.78,623.697 2005.88,621.997 2001.98,621.597 C2001.38,621.497 2000.88,621.497 2000.28,621.497 C1996.78,621.497 1992.98,622.497 1989.48,624.397 C1982.88,627.997 1978.78,633.897 1978.78,638.997 C1978.78,640.397 1978.98,641.697 1979.68,642.897 C1981.18,645.597 1984.18,647.297 1988.08,647.697 C1988.68,647.797 1989.18,647.797 1989.78,647.797 C1993.28,647.797 1996.98,646.797 2000.48,644.897 C2007.08,641.297 2011.28,635.497 2011.28,630.397 C2011.28,628.997 2010.98,627.597 2010.28,626.397"/>
<path class="Note" d="M2138.38,613.896 C2136.88,611.196 2133.98,609.496 2130.08,609.096 C2129.48,608.996 2128.98,608.996 2128.38,608.996 C2124.88,608.996 2121.08,609.996 2117.58,611.896 C2110.98,615.496 2106.88,621.396 2106.88,626.496 C2106.88,627.896 2107.08,629.196 2107.78,630.396 C2109.28,633.096 2112.28,634.796 2116.18,635.196 C2116.78,635.296 2117.28,635.296 2117.88,635.296 C2121.38,635.296 2125.08,634.296 2128.58,632.396 C2135.18,628.796 2139.38,622.996 2139.38,617.896 C2139.38,616.496 2139.08,615.096 2138.38,613.896"/>
<path class="Note" d="M2312.23,601.395 C2310.73,598.695 2307.83,596.995 2303.93,596.595 C2303.33,596.495 2302.83,596.495 2302.23,596.495 C2298.73,596.495 2294.93,597.495 2291.43,599.395 C2284.83,602.995 2280.73,608.895 2280.73,613.995 C2280.73,615.395 2280.93,616.695 2281.63,617.895 C2283.13,620.595 2286.13,622.295 2290.03,622.695 C2290.63,622.795 2291.13,622.795 2291.73,622.795 C2295.23,622.795 2298.93,621.795 2302.43,619.895 C2309.03,616.295 2313.23,610.495 2313.23,605.395 C2313.23,603.995 2312.93,602.595 2312.23,601.395"/>
<path class="Note" d="M2445.4,588.895 C2443.9,586.195 2441,584.495 2437.1,584.095 C2436.5,583.995 2436,583.995 2435.4,583.995 C2431.9,583.995 2428.1,584.995 2424.6,586.895 C2418,590.495 2413.9,596.395 2413.9,601.495 C2413.9,602.895 2414.1,604.195 2414.8,605.395 C2416.3,608.095 2419.3,609.795 2423.2,610.195 C2423.8,610.295 2424.3,610.295 2424.9,610.295 C2428.4,610.295 2432.1,609.295 2435.6,607.395 C2442.2,603.795 2446.4,597.995 2446.4,592.895 C2446.4,591.495 2446.1,590.095 2445.4,588.895"/>
<path class="Note" d="M2578.57,576.394 C2577.07,573.694 2574.17,571.994 2570.27,571.594 C2569.67,571.494 2569.17,571.494 2568.57,571.494 C2565.07,571.494 2561.27,572.494 2557.77,574.394 C2551.17,577.994 2547.07,583.794 2547.07,588.894 C2547.07,590.294 2547.47,591.694 2548.17,592.894 C2549.67,595.694 2552.47,597.294 2556.37,597.694 C2556.97,597.794 2557.47,597.794 2558.07,597.794 C2561.57,597.794 2565.37,596.794 2568.87,594.894 C2575.47,591.294 2579.57,585.394 2579.57,580.294 C2579.57,578.894 2579.27,577.594 2578.57,576.394 M2574.37,582.694 C2572.67,584.494 2569.47,586.794 2565.87,588.894 C2562.27,590.994 2558.57,592.694 2556.27,593.394 C2555.77,593.494 2555.17,593.594 2554.67,593.594 C2553.17,593.594 2551.87,592.894 2551.17,591.794 C2550.87,591.194 2550.67,590.594 2550.67,589.994 C2550.67,588.894 2551.17,587.794 2552.27,586.594 C2553.97,584.794 2557.17,582.394 2560.77,580.294 C2564.37,578.194 2568.07,576.494 2570.47,575.894 L2570.67,575.894 C2571.27,575.694 2571.77,575.594 2572.27,575.594 C2573.67,575.594 2574.77,576.194 2575.47,577.494 C2575.77,578.094 2575.97,578.594 2575.97,579.194 C2575.97,580.494 2575.27,581.794 2574.37,582.694"/>
<path class="Note" d="M533.654,1201.43 C532.154,1198.73 529.254,1197.03 525.354,1196.63 C524.754,1196.53 524.254,1196.53 523.654,1196.53 C520.154,1196.53 516.354,1197.53 512.854,1199.43 C506.254,1203.03 502.154,1208.93 502.154,1214.03 C502.154,1215.43 502.354,1216.73 503.054,1217.93 C504.554,1220.63 507.554,1222.33 511.454,1222.73 C512.054,1222.83 512.554,1222.83 513.154,1222.83 C516.654,1222.83 520.354,1221.83 523.854,1219.93 C530.454,1216.33 534.654,1210.53 534.654,1205.43 C534.654,1204.03 534.354,1202.63 533.654,1201.43"/>
<path class="Note" d="M675.671,1213.93 C674.171,1211.23 671.271,1209.53 667.371,1209.13 C666.771,1209.03 666.271,1209.03 665.671,1209.03 C662.171,1209.03 658.371,1210.03 654.871,1211.93 C648.271,1215.53 644.171,1221.43 644.171,1226.53 C644.171,1227.93 644.371,1229.23 645.071,1230.43 C646.571,1233.13 649.571,1234.83 653.471,1235.23 C654.071,1235.33 654.571,1235.33 655.171,1235.33 C658.671,1235.33 662.371,1234.33 665.871,1232.43 C672.471,1228.83 676.671,1223.03 676.671,1217.93 C676.671,1216.53 676.371,1215.13 675.671,1213.93"/>
<path class="Note" d="M817.689,1226.43 C816.189,1223.73 813.289,1222.03 809.389,1221.63 C808.789,1221.53 808.289,1221.53 807.689,1221.53 C804.189,1221.53 800.389,1222.53 796.889,1224.43 C790.289,1228.03 786.189,1233.93 786.189,1239.03 C786.189,1240.43 786.389,1241.73 787.089,1242.93 C788.589,1245.63 791.589,1247.33 795.489,1247.73 C796.089,1247.83 796.589,1247.83 797.189,1247.83 C800.689,1247.83 804.389,1246.83 807.889,1244.93 C814.489,1241.33 818.689,1235.53 818.689,1230.43 C818.689,1229.03 818.389,1227.63 817.689,1226.43"/>
<path class="Note" d="M959.707,1238.94 C958.207,1236.24 955.307,1234.54 951.407,1234.14 C950.807,1234.04 950.307,1234.04 949.707,1234.04 C946.207,1234.04 942.407,1235.04 938.907,1236.94 C932.307,1240.54 928.207,1246.44 928.207,1251.54 C928.207,1252.94 928.407,1254.24 929.107,1255.44 C930.607,1258.14 933.607,1259.84 937.507,1260.24 C938.107,1260.34 938.607,1260.34 939.207,1260.34 C942.707,1260.34 946.407,1259.34 949.907,1257.44 C956.507,1253.84 960.707,1248.04 960.707,1242.94 C960.707,1241.54 960.407,1240.14 959.707,1238.94"/>
<path class="Note" d="M1138.73,1251.44 C1137.23,1248.74 1134.33,1247.04 1130.43,1246.64 C1129.83,1246.54 1129.33,1246.54 1128.73,1246.54 C1125.23,1246.54 1121.43,1247.54 1117.93,1249.44 C1111.33,1253.04 1107.23,1258.94 1107.23,1264.04 C1107.23,1265.44 1107.43,1266.74 1108.13,1267.94 C1109.63,1270.64 1112.63,1272.34 1116.53,1272.74 C1117.13,1272.84 1117.63,1272.84 1118.23,1272.84 C1121.73,1272.84 1125.43,1271.84 1128.93,1269.94 C1135.53,1266.34 1139.73,1260.54 1139.73,1255.44 C1139.73,1254.04 1139.43,1252.64 1138.73,1251.44"/>
<path class="Note" d="M1264.99,1263.94 C1263.49,1261.24 1260.59,1259.54 1256.69,1259.14 C1256.09,1259.04 1255.59,1259.04 1254.99,1259.04 C1251.49,1259.04 1247.69,1260.04 1244.19,1261.94 C1237.59,1265.54 1233.49,1271.44 1233.49,1276.54 C1233.49,1277.94 1233.69,1279.24 1234.39,1280.44 C1235.89,1283.14 1238.89,1284.84 1242.79,1285.24 C1243.39,1285.34 1243.89,1285.34 1244.49,1285.34 C1247.99,1285.34 1251.69,1284.34 1255.19,1282.44 C1261.79,1278.84 1265.99,1273.04 1265.99,1267.94 C1265.99,1266.54 1265.69,1265.14 1264.99,1263.94"/>
<path class="Note" d="M1391.26,1276.44 C1389.76,1273.74 1386.86,1272.04 1382.96,1271.64 C1382.36,1271.54 1381.86,1271.54 1381.26,1271.54 C1377.76,1271.54 1373.96,1272.54 1370.46,1274.44 C1363.86,1278.04 1359.76,1283.94 1359.76,1289.04 C1359.76,1290.44 1359.96,1291.74 1360.66,1292.94 C1362.16,1295.64 1365.16,1297.34 1369.06,1297.74 C1369.66,1297.84 1370.16,1297.84 1370.76,1297.84 C1374.26,1297.84 1377.96,1296.84 1381.46,1294.94 C1388.06,1291.34 1392.26,1285.54 1392.26,1280.44 C1392.26,1279.04 1391.96,1277.64 1391.26,1276.44"/>
<path class="Note" d="M1517.53,1288.94 C1516.03,1286.24 1513.13,1284.54 1509.23,1284.14 C1508.63,1284.04 1508.13,1284.04 1507.53,1284.04 C1504.03,1284.04 1500.23,1285.04 1496.73,1286.94 C1490.13,1290.54 1486.03,1296.44 1486.03,1301.54 C1486.03,1302.94 1486.23,1304.24 1486.93,1305.44 C1488.43,1308.14 1491.43,1309.84 1495.33,1310.24 C1495.93,1310.34 1496.43,1310.34 1497.03,1310.34 C1500.53,1310.34 1504.23,1309.34 1507.73,1307.44 C1514.33,1303.84 1518.53,1298.04 1518.53,1292.94 C1518.53,1291.54 1518.23,1290.14 1517.53,1288.94"/>
<path class="Note" d="M1767.2,1301.44 C1765.7,1298.74 1762.8,1297.04 1758.9,1296.64 C1758.3,1296.54 1757.8,1296.54 1757.2,1296.54 C1753.7,1296.54 1749.9,1297.54 1746.4,1299.44 C1739.8,1303.04 1735.7,1308.94 1735.7,1314.04 C1735.7,1315.44 1735.9,1316.74 1736.6,1317.94 C1738.1,1320.64 1741.1,1322.34 1745,1322.74 C1745.6,1322.84 1746.1,1322.84 1746.7,1322.84 C1750.2,1322.84 1753.9,1321.84 1757.4,1319.94 C1764,1316.34 1768.2,1310.54 1768.2,1305.44 C1768.2,1304.04 1767.9,1302.64 1767.2,1301.44"/>
<path class="Note" d="M1896.09,1313.94 C1894.59,1311.24 1891.69,1309.54 1887.79,1309.14 C1887.19,1309.04 1886.69,1309.04 1886.09,1309.04 C1882.59,1309.04 1878.79,1310.04 1875.29,1311.94 C1868.69,1315.54 1864.59,1321.44 1864.59,1326.54 C1864.59,1327.94 1864.79,1329.24 1865.49,1330.44 C1866.99,1333.14 1869.99,1334.84 1873.89,1335.24 C1874.49,1335.34 1874.99,1335.34 1875.59,1335.34 C1879.09,1335.34 1882.79,1334.34 1886.29,1332.44 C1892.89,1328.84 1897.09,1323.04 1897.09,1317.94 C1897.09,1316.54 1896.79,1315.14 1896.09,1313.94"/>
<path class="Note" d="M2024.98,1326.44 C2023.48,1323.74 2020.58,1322.04 2016.68,1321.64 C2016.08,1321.54 2015.58,1321.54 2014.98,1321.54 C2011.48,1321.54 2007.68,1322.54 2004.18,1324.44 C1997.58,1328.04 1993.48,1333.94 1993.48,1339.04 C1993.48,1340.44 1993.68,1341.74 1994.38,1342.94 C1995.88,1345.64 1998.88,1347.34 2002.78,1347.74 C2003.38,1347.84 2003.88,1347.84 2004.48,1347.84 C2007.98,1347.84 2011.68,1346.84 2015.18,1344.94 C2021.78,1341.34 2025.98,1335.54 2025.98,1330.44 C2025.98,1329.04 2025.68,1327.64 2024.98,1326.44"/>
<path class="Note" d="M2153.88,1338.94 C2152.38,1336.24 2149.48,1334.54 2145.58,1334.14 C2144.98,1334.04 2144.48,1334.04 2143.88,1334.04 C2140.38,1334.04 2136.58,1335.04 2133.08,1336.94 C2126.48,1340.54 2122.38,1346.44 2122.38,1351.54 C2122.38,1352.94 2122.58,1354.24 2123.28,1355.44 C2124.78,1358.14 2127.78,1359.84 2131.68,1360.24 C2132.28,1360.34 2132.78,1360.34 2133.38,1360.34 C2136.88,1360.34 2140.58,1359.34 2144.08,1357.44 C2150.68,1353.84 2154.88,1348.04 2154.88,1342.94 C2154.88,1341.54 2154.58,1340.14 2153.88,1338.94"/>
<path class="Note" d="M2319.77,1351.44 C2318.27,1348.74 2315.37,1347.04 2311.47,1346.64 C2310.87,1346.54 2310.37,1346.54 2309.77,1346.54 C2306.27,1346.54 2302.47,1347.54 2298.97,1349.44 C2292.37,1353.04 2288.27,1358.94 2288.27,1364.04 C2288.27,1365.44 2288.47,1366.74 2289.17,1367.94 C2290.67,1370.64 2293.67,1372.34 2297.57,1372.74 C2298.17,1372.84 2298.67,1372.84 2299.27,1372.84 C2302.77,1372.84 2306.47,1371.84 2309.97,1369.94 C2316.57,1366.34 2320.77,1360.54 2320.77,1355.44 C2320.77,1354.04 2320.47,1352.64 2319.77,1351.44"/>
<path class="Note" d="M2470.35,1363.94 C2468.85,1361.24 2465.95,1359.54 2462.05,1359.14 C2461.45,1359.04 2460.95,1359.04 2460.35,1359.04 C2456.85,1359.04 2453.05,1360.04 2449.55,1361.94 C2442.95,1365.54 2438.85,1371.34 2438.85,1376.44 C2438.85,1377.84 2439.25,1379.24 2439.95,1380.44 C2441.45,1383.24 2444.25,1384.84 2448.15,1385.24 C2448.75,1385.34 2449.25,1385.34 2449.85,1385.34 C2453.35,1385.34 2457.15,1384.34 2460.65,1382.44 C2467.25,1378.84 2471.35,1372.94 2471.35,1367.84 C2471.35,1366.44 2471.05,1365.14 2470.35,1363.94 M2466.15,1370.24 C2464.45,1372.04 2461.25,1374.34 2457.65,1376.44 C2454.05,1378.54 2450.35,1380.24 2448.05,1380.94 C2447.55,1381.04 2446.95,1381.14 2446.45,1381.14 C2444.95,1381.14 2443.65,1380.44 2442.95,1379.34 C2442.65,1378.74 2442.45,1378.14 2442.45,1377.54 C2442.45,1376.44 2442.95,1375.34 2444.05,1374.14 C2445.75,1372.34 2448.95,1369.94 2452.55,1367.84 C2456.15,1365.74 2459.85,1364.04 2462.25,1363.44 L2462.45,1363.44 C2463.05,1363.24 2463.55,1363.14 2464.05,1363.14 C2465.45,1363.14 2466.55,1363.74 2467.25,1365.04 C2467.55,1365.64 2467.75,1366.14 2467.75,1366.74 C2467.75,1368.04 2467.05,1369.34 2466.15,1370.24"/>
<path class="Clef" d="M297,922.017 C289.4,922.017 283.3,926.417 283.2,926.417 C277.4,930.717 275.1,935.817 274.2,939.317 C273.7,941.117 273.5,942.917 273.5,944.617 C273.5,947.017 273.9,949.217 274.8,951.117 C276,953.817 278.3,955.717 281.3,956.717 C282.5,957.117 283.8,957.317 285.1,957.317 C287.3,957.317 289.6,956.717 291.5,955.617 C294.6,953.917 296.5,950.317 296.5,946.417 C296.5,942.917 294.7,939.717 291.7,937.817 C289.6,936.417 287.6,936.017 285.9,936.017 C284.7,936.017 283.6,936.217 282.7,936.517 C281.7,936.917 280,937.917 279.2,938.617 C279.5,936.717 280.7,933.817 281.8,932.217 C282.9,930.617 285.1,928.617 286.8,927.717 C289.3,926.317 292.5,925.717 296,925.717 C306.2,925.717 311.2,933.917 311.2,950.717 C311.2,960.017 307.7,968.917 304.7,974.817 C301.4,981.417 297,987.717 293.1,991.217 C282.7,1000.72 272.9,1005.22 272.8,1005.22 C272.8,1005.22 271.3,1006.12 271.7,1007.62 C272,1008.62 272.9,1008.82 273.5,1008.82 C273.6,1008.82 273.9,1008.72 274,1008.72 C274.1,1008.72 285.5,1004.02 294.6,996.917 C299.7,993.217 304.3,989.217 308.3,984.917 C311.9,981.017 315,976.817 317.5,972.617 C321.9,965.117 324.4,957.317 324.4,950.617 C324.4,942.317 322.2,935.417 318.1,930.517 C313.4,924.917 306.3,922.017 297,922.017 M328.4,934.717 C328.4,937.517 330.6,939.717 333.2,939.717 C335.8,939.717 338,937.517 338,934.717 C338,931.917 335.8,929.617 333.2,929.617 C330.6,929.617 328.4,931.917 328.4,934.717 M328.4,959.417 C328.4,962.217 330.6,964.517 333.2,964.517 C335.8,964.517 338,962.217 338,959.417 C338,956.617 335.8,954.317 333.2,954.317 C330.6,954.317 328.4,956.617 328.4,959.417"/>
<path class="Clef" d="M1689.49,991.22 C1688.29,985.82 1685.59,981.92 1684.79,980.92 C1681.59,976.62 1677.59,973.82 1672.89,972.42 C1670.59,971.72 1668.49,971.52 1666.49,971.52 C1665.79,971.52 1665.09,971.52 1664.39,971.62 C1663.39,965.62 1662.29,959.72 1661.39,954.32 C1666.99,948.12 1670.69,942.22 1673.09,937.82 C1676.69,931.12 1678.09,926.42 1678.19,926.22 C1679.39,923.22 1680.09,919.42 1680.09,914.92 C1680.09,912.22 1679.79,909.32 1679.39,906.32 C1678.29,899.22 1676.09,892.52 1673.59,888.82 C1672.29,886.92 1671.09,885.82 1669.89,885.82 C1668.69,885.82 1666.19,887.02 1663.29,889.82 C1660.99,892.02 1657.69,895.92 1655.09,901.92 C1652.79,907.32 1652.09,914.22 1652.09,920.12 C1652.09,921.92 1652.19,923.62 1652.29,925.22 C1652.49,928.82 1653.19,934.62 1653.79,938.22 C1653.79,938.32 1654.09,939.82 1654.49,942.42 L1653.79,943.12 C1652.79,944.12 1651.59,945.22 1650.19,946.62 C1649.29,947.52 1648.39,948.32 1647.39,949.32 C1638.89,957.52 1626.09,969.92 1626.09,989.02 C1626.09,993.72 1626.99,998.12 1628.79,1002.12 C1630.39,1005.72 1632.69,1009.02 1635.59,1011.92 C1643.09,1019.32 1653.29,1022.52 1660.39,1022.52 L1660.99,1022.52 C1663.89,1022.42 1666.59,1022.12 1668.99,1021.72 C1670.79,1031.32 1671.99,1038.42 1671.99,1043.72 C1671.99,1050.22 1670.39,1054.12 1666.49,1056.92 C1664.09,1058.62 1661.19,1059.72 1658.09,1059.82 L1657.29,1059.82 C1655.79,1059.82 1653.29,1059.42 1651.79,1059.02 C1651.79,1059.02 1651.49,1058.92 1651.49,1058.72 C1651.49,1058.52 1651.89,1058.52 1651.89,1058.52 C1653.79,1058.12 1657.39,1056.82 1659.79,1053.52 C1660.89,1052.02 1661.59,1049.72 1661.59,1047.22 C1661.59,1045.62 1661.29,1043.92 1660.59,1042.42 C1659.49,1040.02 1656.89,1037.02 1651.29,1036.62 L1650.19,1036.62 C1648.09,1036.62 1646.29,1037.12 1644.59,1038.12 C1642.79,1039.22 1641.19,1040.92 1640.19,1042.92 C1639.09,1044.92 1638.59,1047.12 1638.59,1049.32 C1638.59,1052.22 1639.49,1054.92 1641.29,1057.12 C1644.29,1060.72 1648.99,1063.02 1654.39,1063.62 C1655.09,1063.72 1656.19,1063.82 1656.89,1063.82 C1661.29,1063.82 1665.69,1062.62 1669.29,1060.42 C1672.99,1057.82 1675.09,1053.82 1675.79,1048.22 C1675.99,1046.92 1675.99,1045.52 1675.99,1044.02 C1675.99,1040.12 1675.49,1035.42 1674.49,1029.62 C1674.09,1027.52 1673.69,1024.52 1672.99,1020.72 C1678.79,1018.82 1682.89,1015.12 1686.69,1009.32 C1688.99,1005.32 1690.09,1001.22 1690.09,996.92 C1690.09,995.02 1689.89,993.12 1689.49,991.22 M1659.29,913.32 C1661.09,907.62 1663.79,904.22 1665.79,902.52 C1667.59,901.02 1669.19,900.32 1670.09,900.32 C1670.19,900.32 1670.39,900.42 1670.49,900.42 C1670.79,900.52 1671.19,901.02 1671.59,901.72 C1672.49,903.52 1673.39,906.82 1673.39,910.52 C1673.39,912.42 1673.19,914.42 1672.59,916.22 C1670.39,923.02 1665.79,930.32 1658.79,938.02 C1658.59,936.92 1658.39,935.92 1658.29,934.92 C1657.79,931.72 1657.49,928.52 1657.49,925.62 C1657.49,921.12 1658.09,917.02 1659.29,913.32 M1655.29,1017.42 C1650.69,1016.22 1646.19,1013.72 1642.39,1010.22 C1641.09,1009.02 1639.29,1006.82 1637.79,1003.42 C1636.49,1000.42 1635.79,997.32 1635.79,993.92 L1635.79,993.22 C1635.89,988.52 1637.19,983.72 1639.69,978.92 C1642.59,973.32 1647.09,967.82 1653.19,962.52 C1654.69,961.22 1656.09,959.92 1657.39,958.62 C1658.19,962.92 1658.89,967.62 1659.79,972.52 C1655.89,973.82 1651.19,976.82 1648.09,982.52 C1645.69,987.02 1644.99,990.92 1644.99,994.12 C1644.99,995.62 1645.19,997.02 1645.39,998.12 C1646.29,1002.62 1648.89,1006.32 1652.39,1008.42 C1653.19,1008.92 1656.49,1010.62 1658.49,1010.62 C1658.79,1010.62 1659.09,1010.62 1659.29,1010.52 C1659.59,1010.42 1659.89,1010.22 1659.99,1009.92 C1660.09,1009.72 1660.09,1009.52 1660.09,1009.32 C1660.09,1008.52 1659.29,1007.92 1657.99,1007.12 C1657.39,1006.72 1656.69,1006.32 1655.99,1005.82 C1653.39,1003.82 1651.89,1000.72 1651.89,997.32 C1651.89,996.32 1652.09,995.42 1652.29,994.42 C1652.79,992.42 1654.49,989.62 1655.99,988.22 C1657.69,986.72 1659.69,985.52 1662.09,984.92 C1664.09,996.12 1666.19,1007.22 1667.79,1015.62 C1667.89,1016.32 1668.09,1017.02 1668.19,1017.72 C1666.19,1018.12 1664.19,1018.32 1662.29,1018.32 C1659.89,1018.32 1657.59,1018.02 1655.29,1017.42 M1680.99,1007.22 C1679.79,1010.42 1677.29,1014.42 1672.19,1016.52 C1672.09,1016.12 1672.09,1015.62 1671.99,1015.22 C1670.49,1006.42 1668.59,995.52 1666.59,984.22 L1667.59,984.22 C1677.29,984.22 1681.19,991.42 1682.09,996.02 C1682.29,996.92 1682.39,998.12 1682.39,999.42 C1682.39,1001.72 1681.99,1004.52 1680.99,1007.22"/>
<path class="Clef" d="M335,1603.76 C333.8,1598.36 331.1,1594.46 330.3,1593.46 C327.1,1589.16 323.1,1586.36 318.4,1584.96 C316.1,1584.26 314,1584.06 312,1584.06 C311.3,1584.06 310.6,1584.06 309.9,1584.16 C308.9,1578.16 307.8,1572.26 306.9,1566.86 C312.5,1560.66 316.2,1554.76 318.6,1550.36 C322.2,1543.66 323.6,1538.96 323.7,1538.76 C324.9,1535.76 325.6,1531.96 325.6,1527.46 C325.6,1524.76 325.3,1521.86 324.9,1518.86 C323.8,1511.76 321.6,1505.06 319.1,1501.36 C317.8,1499.46 316.6,1498.36 315.4,1498.36 C314.2,1498.36 311.7,1499.56 308.8,1502.36 C306.5,1504.56 303.2,1508.46 300.6,1514.46 C298.3,1519.86 297.6,1526.76 297.6,1532.66 C297.6,1534.46 297.7,1536.16 297.8,1537.76 C298,1541.36 298.7,1547.16 299.3,1550.76 C299.3,1550.86 299.6,1552.36 300,1554.96 L299.3,1555.66 C298.3,1556.66 297.1,1557.76 295.7,1559.16 C294.8,1560.06 293.9,1560.86 292.9,1561.86 C284.4,1570.06 271.6,1582.46 271.6,1601.56 C271.6,1606.26 272.5,1610.66 274.3,1614.66 C275.9,1618.26 278.2,1621.56 281.1,1624.46 C288.6,1631.86 298.8,1635.06 305.9,1635.06 L306.5,1635.06 C309.4,1634.96 312.1,1634.66 314.5,1634.26 C316.3,1643.86 317.5,1650.96 317.5,1656.26 C317.5,1662.76 315.9,1666.66 312,1669.46 C309.6,1671.16 306.7,1672.26 303.6,1672.36 L302.8,1672.36 C301.3,1672.36 298.8,1671.96 297.3,1671.56 C297.3,1671.56 297,1671.46 297,1671.26 C297,1671.06 297.4,1671.06 297.4,1671.06 C299.3,1670.66 302.9,1669.36 305.3,1666.06 C306.4,1664.56 307.1,1662.26 307.1,1659.76 C307.1,1658.16 306.8,1656.46 306.1,1654.96 C305,1652.56 302.4,1649.56 296.8,1649.16 L295.7,1649.16 C293.6,1649.16 291.8,1649.66 290.1,1650.66 C288.3,1651.76 286.7,1653.46 285.7,1655.46 C284.6,1657.46 284.1,1659.66 284.1,1661.86 C284.1,1664.76 285,1667.46 286.8,1669.66 C289.8,1673.26 294.5,1675.56 299.9,1676.16 C300.6,1676.26 301.7,1676.36 302.4,1676.36 C306.8,1676.36 311.2,1675.16 314.8,1672.96 C318.5,1670.36 320.6,1666.36 321.3,1660.76 C321.5,1659.46 321.5,1658.06 321.5,1656.56 C321.5,1652.66 321,1647.96 320,1642.16 C319.6,1640.06 319.2,1637.06 318.5,1633.26 C324.3,1631.36 328.4,1627.66 332.2,1621.86 C334.5,1617.86 335.6,1613.76 335.6,1609.46 C335.6,1607.56 335.4,1605.66 335,1603.76 M304.8,1525.86 C306.6,1520.16 309.3,1516.76 311.3,1515.06 C313.1,1513.56 314.7,1512.86 315.6,1512.86 C315.7,1512.86 315.9,1512.96 316,1512.96 C316.3,1513.06 316.7,1513.56 317.1,1514.26 C318,1516.06 318.9,1519.36 318.9,1523.06 C318.9,1524.96 318.7,1526.96 318.1,1528.76 C315.9,1535.56 311.3,1542.86 304.3,1550.56 C304.1,1549.46 303.9,1548.46 303.8,1547.46 C303.3,1544.26 303,1541.06 303,1538.16 C303,1533.66 303.6,1529.56 304.8,1525.86 M300.8,1629.96 C296.2,1628.76 291.7,1626.26 287.9,1622.76 C286.6,1621.56 284.8,1619.36 283.3,1615.96 C282,1612.96 281.3,1609.86 281.3,1606.46 L281.3,1605.76 C281.4,1601.06 282.7,1596.26 285.2,1591.46 C288.1,1585.86 292.6,1580.36 298.7,1575.06 C300.2,1573.76 301.6,1572.46 302.9,1571.16 C303.7,1575.46 304.4,1580.16 305.3,1585.06 C301.4,1586.36 296.7,1589.36 293.6,1595.06 C291.2,1599.56 290.5,1603.46 290.5,1606.66 C290.5,1608.16 290.7,1609.56 290.9,1610.66 C291.8,1615.16 294.4,1618.86 297.9,1620.96 C298.7,1621.46 302,1623.16 304,1623.16 C304.3,1623.16 304.6,1623.16 304.8,1623.06 C305.1,1622.96 305.4,1622.76 305.5,1622.46 C305.6,1622.26 305.6,1622.06 305.6,1621.86 C305.6,1621.06 304.8,1620.46 303.5,1619.66 C302.9,1619.26 302.2,1618.86 301.5,1618.36 C298.9,1616.36 297.4,1613.26 297.4,1609.86 C297.4,1608.86 297.6,1607.96 297.8,1606.96 C298.3,1604.96 300,1602.16 301.5,1600.76 C303.2,1599.26 305.2,1598.06 307.6,1597.46 C309.6,1608.66 311.7,1619.76 313.3,1628.16 C313.4,1628.86 313.6,1629.56 313.7,1630.26 C311.7,1630.66 309.7,1630.86 307.8,1630.86 C305.4,1630.86 303.1,1630.56 300.8,1629.96 M326.5,1619.76 C325.3,1622.96 322.8,1626.96 317.7,1629.06 C317.6,1628.66 317.6,1628.16 317.5,1627.76 C316,1618.96 314.1,1608.06 312.1,1596.76 L313.1,1596.76 C322.8,1596.76 326.7,1603.96 327.6,1608.56 C327.8,1609.46 327.9,1610.66 327.9,1611.96 C327.9,1614.26 327.5,1617.06 326.5,1619.76"/>
<path class="Clef" d="M1662.2,1534.56 C1654.6,1534.56 1648.5,1538.96 1648.4,1538.96 C1642.6,1543.26 1640.3,1548.36 1639.4,1551.86 C1638.9,1553.66 1638.7,1555.46 1638.7,1557.16 C1638.7,1559.56 1639.1,1561.76 1640,1563.66 C1641.2,1566.36 1643.5,1568.26 1646.5,1569.26 C1647.7,1569.66 1649,1569.86 1650.3,1569.86 C1652.5,1569.86 1654.8,1569.26 1656.7,1568.16 C1659.8,1566.46 1661.7,1562.86 1661.7,1558.96 C1661.7,1555.46 1659.9,1552.26 1656.9,1550.36 C1654.8,1548.96 1652.8,1548.56 1651.1,1548.56 C1649.9,1548.56 1648.8,1548.76 1647.9,1549.06 C1646.9,1549.46 1645.2,1550.46 1644.4,1551.16 C1644.7,1549.26 1645.9,1546.36 1647,1544.76 C1648.1,1543.16 1650.3,1541.16 1652,1540.26 C1654.5,1538.86 1657.7,1538.26 1661.2,1538.26 C1671.4,1538.26 1676.4,1546.46 1676.4,1563.26 C1676.4,1572.56 1672.9,1581.46 1669.9,1587.36 C1666.6,1593.96 1662.2,1600.26 1658.3,1603.76 C1647.9,1613.26 1638.1,1617.76 1638,1617.76 C1638,1617.76 1636.5,1618.66 1636.9,1620.16 C1637.2,1621.16 1638.1,1621.36 1638.7,1621.36 C1638.8,1621.36 1639.1,1621.26 1639.2,1621.26 C1639.3,1621.26 1650.7,1616.56 1659.8,1609.46 C1664.9,1605.76 1669.5,1601.76 1673.5,1597.46 C1677.1,1593.56 1680.2,1589.36 1682.7,1585.16 C1687.1,1577.66 1689.6,1569.86 1689.6,1563.16 C1689.6,1554.86 1687.4,1547.96 1683.3,1543.06 C1678.6,1537.46 1671.5,1534.56 1662.2,1534.56 M1693.6,1547.26 C1693.6,1550.06 1695.8,1552.26 1698.4,1552.26 C1701,1552.26 1703.2,1550.06 1703.2,1547.26 C1703.2,1544.46 1701,1542.16 1698.4,1542.16 C1695.8,1542.16 1693.6,1544.46 1693.6,1547.26 M1693.6,1571.96 C1693.6,1574.76 1695.8,1577.06 1698.4,1577.06 C1701,1577.06 1703.2,1574.76 1703.2,1571.96 C1703.2,1569.16 1701,1566.86 1698.4,1566.86 C1695.8,1566.86 1693.6,1569.16 1693.6,1571.96"/>
<path class="Clef" d="M335,728.703 C333.8,723.303 331.1,719.403 330.3,718.403 C327.1,714.103 323.1,711.303 318.4,709.903 C316.1,709.203 314,709.003 312,709.003 C311.3,709.003 310.6,709.003 309.9,709.103 C308.9,703.103 307.8,697.203 306.9,691.803 C312.5,685.603 316.2,679.703 318.6,675.303 C322.2,668.603 323.6,663.903 323.7,663.703 C324.9,660.703 325.6,656.903 325.6,652.403 C325.6,649.703 325.3,646.803 324.9,643.803 C323.8,636.703 321.6,630.003 319.1,626.303 C317.8,624.403 316.6,623.303 315.4,623.303 C314.2,623.303 311.7,624.503 308.8,627.303 C306.5,629.503 303.2,633.403 300.6,639.403 C298.3,644.803 297.6,651.703 297.6,657.603 C297.6,659.403 297.7,661.103 297.8,662.703 C298,666.303 298.7,672.103 299.3,675.703 C299.3,675.803 299.6,677.303 300,679.903 L299.3,680.603 C298.3,681.603 297.1,682.703 295.7,684.103 C294.8,685.003 293.9,685.803 292.9,686.803 C284.4,695.003 271.6,707.403 271.6,726.503 C271.6,731.203 272.5,735.603 274.3,739.603 C275.9,743.203 278.2,746.503 281.1,749.403 C288.6,756.803 298.8,760.003 305.9,760.003 L306.5,760.003 C309.4,759.903 312.1,759.603 314.5,759.203 C316.3,768.803 317.5,775.903 317.5,781.203 C317.5,787.703 315.9,791.603 312,794.403 C309.6,796.103 306.7,797.203 303.6,797.303 L302.8,797.303 C301.3,797.303 298.8,796.903 297.3,796.503 C297.3,796.503 297,796.403 297,796.203 C297,796.003 297.4,796.003 297.4,796.003 C299.3,795.603 302.9,794.303 305.3,791.003 C306.4,789.503 307.1,787.203 307.1,784.703 C307.1,783.103 306.8,781.403 306.1,779.903 C305,777.503 302.4,774.503 296.8,774.103 L295.7,774.103 C293.6,774.103 291.8,774.603 290.1,775.603 C288.3,776.703 286.7,778.403 285.7,780.403 C284.6,782.403 284.1,784.603 284.1,786.803 C284.1,789.703 285,792.403 286.8,794.603 C289.8,798.203 294.5,800.503 299.9,801.103 C300.6,801.203 301.7,801.303 302.4,801.303 C306.8,801.303 311.2,800.103 314.8,797.903 C318.5,795.303 320.6,791.303 321.3,785.703 C321.5,784.403 321.5,783.003 321.5,781.503 C321.5,777.603 321,772.903 320,767.103 C319.6,765.003 319.2,762.003 318.5,758.203 C324.3,756.303 328.4,752.603 332.2,746.803 C334.5,742.803 335.6,738.703 335.6,734.403 C335.6,732.503 335.4,730.603 335,728.703 M304.8,650.803 C306.6,645.103 309.3,641.703 311.3,640.003 C313.1,638.503 314.7,637.803 315.6,637.803 C315.7,637.803 315.9,637.903 316,637.903 C316.3,638.003 316.7,638.503 317.1,639.203 C318,641.003 318.9,644.303 318.9,648.003 C318.9,649.903 318.7,651.903 318.1,653.703 C315.9,660.503 311.3,667.803 304.3,675.503 C304.1,674.403 303.9,673.403 303.8,672.403 C303.3,669.203 303,666.003 303,663.103 C303,658.603 303.6,654.503 304.8,650.803 M300.8,754.903 C296.2,753.703 291.7,751.203 287.9,747.703 C286.6,746.503 284.8,744.303 283.3,740.903 C282,737.903 281.3,734.803 281.3,731.403 L281.3,730.703 C281.4,726.003 282.7,721.203 285.2,716.403 C288.1,710.803 292.6,705.303 298.7,700.003 C300.2,698.703 301.6,697.403 302.9,696.103 C303.7,700.403 304.4,705.103 305.3,710.003 C301.4,711.303 296.7,714.303 293.6,720.003 C291.2,724.503 290.5,728.403 290.5,731.603 C290.5,733.103 290.7,734.503 290.9,735.603 C291.8,740.103 294.4,743.803 297.9,745.903 C298.7,746.403 302,748.103 304,748.103 C304.3,748.103 304.6,748.103 304.8,748.003 C305.1,747.903 305.4,747.703 305.5,747.403 C305.6,747.203 305.6,747.003 305.6,746.803 C305.6,746.003 304.8,745.403 303.5,744.603 C302.9,744.203 302.2,743.803 301.5,743.303 C298.9,741.303 297.4,738.203 297.4,734.803 C297.4,733.803 297.6,732.903 297.8,731.903 C298.3,729.903 300,727.103 301.5,725.703 C303.2,724.203 305.2,723.003 307.6,722.403 C309.6,733.603 311.7,744.703 313.3,753.103 C313.4,753.803 313.6,754.503 313.7,755.203 C311.7,755.603 309.7,755.803 307.8,755.803 C305.4,755.803 303.1,755.503 300.8,754.903 M326.5,744.703 C325.3,747.903 322.8,751.903 317.7,754.003 C317.6,753.603 317.6,753.103 317.5,752.703 C316,743.903 314.1,733.003 312.1,721.703 L313.1,721.703 C322.8,721.703 326.7,728.903 327.6,733.503 C327.8,734.403 327.9,735.603 327.9,736.903 C327.9,739.203 327.5,742.003 326.5,744.703"/>
<path class="Clef" d="M335,1341.24 C333.8,1335.84 331.1,1331.94 330.3,1330.94 C327.1,1326.64 323.1,1323.84 318.4,1322.44 C316.1,1321.74 314,1321.54 312,1321.54 C311.3,1321.54 310.6,1321.54 309.9,1321.64 C308.9,1315.64 307.8,1309.74 306.9,1304.34 C312.5,1298.14 316.2,1292.24 318.6,1287.84 C322.2,1281.14 323.6,1276.44 323.7,1276.24 C324.9,1273.24 325.6,1269.44 325.6,1264.94 C325.6,1262.24 325.3,1259.34 324.9,1256.34 C323.8,1249.24 321.6,1242.54 319.1,1238.84 C317.8,1236.94 316.6,1235.84 315.4,1235.84 C314.2,1235.84 311.7,1237.04 308.8,1239.84 C306.5,1242.04 303.2,1245.94 300.6,1251.94 C298.3,1257.34 297.6,1264.24 297.6,1270.14 C297.6,1271.94 297.7,1273.64 297.8,1275.24 C298,1278.84 298.7,1284.64 299.3,1288.24 C299.3,1288.34 299.6,1289.84 300,1292.44 L299.3,1293.14 C298.3,1294.14 297.1,1295.24 295.7,1296.64 C294.8,1297.54 293.9,1298.34 292.9,1299.34 C284.4,1307.54 271.6,1319.94 271.6,1339.04 C271.6,1343.74 272.5,1348.14 274.3,1352.14 C275.9,1355.74 278.2,1359.04 281.1,1361.94 C288.6,1369.34 298.8,1372.54 305.9,1372.54 L306.5,1372.54 C309.4,1372.44 312.1,1372.14 314.5,1371.74 C316.3,1381.34 317.5,1388.44 317.5,1393.74 C317.5,1400.24 315.9,1404.14 312,1406.94 C309.6,1408.64 306.7,1409.74 303.6,1409.84 L302.8,1409.84 C301.3,1409.84 298.8,1409.44 297.3,1409.04 C297.3,1409.04 297,1408.94 297,1408.74 C297,1408.54 297.4,1408.54 297.4,1408.54 C299.3,1408.14 302.9,1406.84 305.3,1403.54 C306.4,1402.04 307.1,1399.74 307.1,1397.24 C307.1,1395.64 306.8,1393.94 306.1,1392.44 C305,1390.04 302.4,1387.04 296.8,1386.64 L295.7,1386.64 C293.6,1386.64 291.8,1387.14 290.1,1388.14 C288.3,1389.24 286.7,1390.94 285.7,1392.94 C284.6,1394.94 284.1,1397.14 284.1,1399.34 C284.1,1402.24 285,1404.94 286.8,1407.14 C289.8,1410.74 294.5,1413.04 299.9,1413.64 C300.6,1413.74 301.7,1413.84 302.4,1413.84 C306.8,1413.84 311.2,1412.64 314.8,1410.44 C318.5,1407.84 320.6,1403.84 321.3,1398.24 C321.5,1396.94 321.5,1395.54 321.5,1394.04 C321.5,1390.14 321,1385.44 320,1379.64 C319.6,1377.54 319.2,1374.54 318.5,1370.74 C324.3,1368.84 328.4,1365.14 332.2,1359.34 C334.5,1355.34 335.6,1351.24 335.6,1346.94 C335.6,1345.04 335.4,1343.14 335,1341.24 M304.8,1263.34 C306.6,1257.64 309.3,1254.24 311.3,1252.54 C313.1,1251.04 314.7,1250.34 315.6,1250.34 C315.7,1250.34 315.9,1250.44 316,1250.44 C316.3,1250.54 316.7,1251.04 317.1,1251.74 C318,1253.54 318.9,1256.84 318.9,1260.54 C318.9,1262.44 318.7,1264.44 318.1,1266.24 C315.9,1273.04 311.3,1280.34 304.3,1288.04 C304.1,1286.94 303.9,1285.94 303.8,1284.94 C303.3,1281.74 303,1278.54 303,1275.64 C303,1271.14 303.6,1267.04 304.8,1263.34 M300.8,1367.44 C296.2,1366.24 291.7,1363.74 287.9,1360.24 C286.6,1359.04 284.8,1356.84 283.3,1353.44 C282,1350.44 281.3,1347.34 281.3,1343.94 L281.3,1343.24 C281.4,1338.54 282.7,1333.74 285.2,1328.94 C288.1,1323.34 292.6,1317.84 298.7,1312.54 C300.2,1311.24 301.6,1309.94 302.9,1308.64 C303.7,1312.94 304.4,1317.64 305.3,1322.54 C301.4,1323.84 296.7,1326.84 293.6,1332.54 C291.2,1337.04 290.5,1340.94 290.5,1344.14 C290.5,1345.64 290.7,1347.04 290.9,1348.14 C291.8,1352.64 294.4,1356.34 297.9,1358.44 C298.7,1358.94 302,1360.64 304,1360.64 C304.3,1360.64 304.6,1360.64 304.8,1360.54 C305.1,1360.44 305.4,1360.24 305.5,1359.94 C305.6,1359.74 305.6,1359.54 305.6,1359.34 C305.6,1358.54 304.8,1357.94 303.5,1357.14 C302.9,1356.74 302.2,1356.34 301.5,1355.84 C298.9,1353.84 297.4,1350.74 297.4,1347.34 C297.4,1346.34 297.6,1345.44 297.8,1344.44 C298.3,1342.44 300,1339.64 301.5,1338.24 C303.2,1336.74 305.2,1335.54 307.6,1334.94 C309.6,1346.14 311.7,1357.24 313.3,1365.64 C313.4,1366.34 313.6,1367.04 313.7,1367.74 C311.7,1368.14 309.7,1368.34 307.8,1368.34 C305.4,1368.34 303.1,1368.04 300.8,1367.44 M326.5,1357.24 C325.3,1360.44 322.8,1364.44 317.7,1366.54 C317.6,1366.14 317.6,1365.64 317.5,1365.24 C316,1356.44 314.1,1345.54 312.1,1334.24 L313.1,1334.24 C322.8,1334.24 326.7,1341.44 327.6,1346.04 C327.8,1346.94 327.9,1348.14 327.9,1349.44 C327.9,1351.74 327.5,1354.54 326.5,1357.24"/>
<path class="KeySig" d="M433.107,1001.72 C432.507,997.821 430.107,994.121 425.007,994.121 C420.007,994.121 417.107,997.221 416.607,997.821 L417.007,965.721 C417.007,964.921 416.407,964.321 415.607,964.321 L414.407,964.321 C413.607,964.321 413.007,964.921 413.007,965.721 L413.507,1025.82 C413.507,1026.62 414.107,1027.22 414.907,1027.22 C415.107,1027.22 415.507,1027.12 415.707,1027.02 C416.107,1026.82 422.607,1023.62 428.007,1017.52 C431.807,1013.22 433.307,1008.32 433.307,1004.22 C433.307,1003.32 433.207,1002.52 433.107,1001.72 M426.207,1005.62 C426.207,1007.12 425.807,1011.72 423.307,1015.52 C421.607,1018.12 418.207,1020.82 416.307,1022.32 L416.607,1002.82 C416.807,1001.92 418.307,999.021 422.307,999.021 C425.907,999.021 426.207,1002.42 426.207,1004.52 L426.207,1005.62 "/>
<path class="KeySig" d="M408.106,951.717 C407.506,947.817 405.106,944.117 400.006,944.117 C395.006,944.117 392.106,947.217 391.606,947.817 L392.006,915.717 C392.006,914.917 391.406,914.317 390.606,914.317 L389.406,914.317 C388.606,914.317 388.006,914.917 388.006,915.717 L388.506,975.817 C388.506,976.617 389.106,977.217 389.906,977.217 C390.106,977.217 390.506,977.117 390.706,977.017 C391.106,976.817 397.606,973.617 403.006,967.517 C406.806,963.217 408.306,958.317 408.306,954.217 C408.306,953.317 408.206,952.517 408.106,951.717 M401.206,955.617 C401.206,957.117 400.806,961.717 398.306,965.517 C396.606,968.117 393.206,970.817 391.306,972.317 L391.606,952.817 C391.806,951.917 393.306,949.017 397.306,949.017 C400.906,949.017 401.206,952.417 401.206,954.517 L401.206,955.617 "/>
<path class="KeySig" d="M383.104,989.22 C382.504,985.32 380.104,981.62 375.004,981.62 C370.004,981.62 367.104,984.72 366.604,985.32 L367.004,953.22 C367.004,952.42 366.404,951.82 365.604,951.82 L364.404,951.82 C363.604,951.82 363.004,952.42 363.004,953.22 L363.504,1013.32 C363.504,1014.12 364.104,1014.72 364.904,1014.72 C365.104,1014.72 365.504,1014.62 365.704,1014.52 C366.104,1014.32 372.604,1011.12 378.004,1005.02 C381.804,1000.72 383.304,995.82 383.304,991.72 C383.304,990.82 383.204,990.02 383.104,989.22 M376.204,993.12 C376.204,994.62 375.804,999.22 373.304,1003.02 C371.604,1005.62 368.204,1008.32 366.304,1009.82 L366.604,990.32 C366.804,989.42 368.304,986.52 372.304,986.52 C375.904,986.52 376.204,989.92 376.204,992.02 L376.204,993.12 "/>
<path class="KeySig" d="M430.701,1589.26 C430.101,1585.36 427.701,1581.66 422.601,1581.66 C417.601,1581.66 414.701,1584.76 414.201,1585.36 L414.601,1553.26 C414.601,1552.46 414.001,1551.86 413.201,1551.86 L412.001,1551.86 C411.201,1551.86 410.601,1552.46 410.601,1553.26 L411.101,1613.36 C411.101,1614.16 411.701,1614.76 412.501,1614.76 C412.701,1614.76 413.101,1614.66 413.301,1614.56 C413.701,1614.36 420.201,1611.16 425.601,1605.06 C429.401,1600.76 430.901,1595.86 430.901,1591.76 C430.901,1590.86 430.801,1590.06 430.701,1589.26 M423.801,1593.16 C423.801,1594.66 423.401,1599.26 420.901,1603.06 C419.201,1605.66 415.801,1608.36 413.901,1609.86 L414.201,1590.36 C414.401,1589.46 415.901,1586.56 419.901,1586.56 C423.501,1586.56 423.801,1589.96 423.801,1592.06 L423.801,1593.16 "/>
<path class="KeySig" d="M405.699,1539.25 C405.099,1535.35 402.699,1531.65 397.599,1531.65 C392.599,1531.65 389.699,1534.75 389.199,1535.35 L389.599,1503.25 C389.599,1502.45 388.999,1501.85 388.199,1501.85 L386.999,1501.85 C386.199,1501.85 385.599,1502.45 385.599,1503.25 L386.099,1563.35 C386.099,1564.15 386.699,1564.75 387.499,1564.75 C387.699,1564.75 388.099,1564.65 388.299,1564.55 C388.699,1564.35 395.199,1561.15 400.599,1555.05 C404.399,1550.75 405.899,1545.85 405.899,1541.75 C405.899,1540.85 405.799,1540.05 405.699,1539.25 M398.799,1543.15 C398.799,1544.65 398.399,1549.25 395.899,1553.05 C394.199,1555.65 390.799,1558.35 388.899,1559.85 L389.199,1540.35 C389.399,1539.45 390.899,1536.55 394.899,1536.55 C398.499,1536.55 398.799,1539.95 398.799,1542.05 L398.799,1543.15 "/>
<path class="KeySig" d="M380.698,1576.76 C380.098,1572.86 377.698,1569.16 372.598,1569.16 C367.598,1569.16 364.698,1572.26 364.198,1572.86 L364.598,1540.76 C364.598,1539.96 363.998,1539.36 363.198,1539.36 L361.998,1539.36 C361.198,1539.36 360.598,1539.96 360.598,1540.76 L361.098,1600.86 C361.098,1601.66 361.698,1602.26 362.498,1602.26 C362.698,1602.26 363.098,1602.16 363.298,1602.06 C363.698,1601.86 370.198,1598.66 375.598,1592.56 C379.398,1588.26 380.898,1583.36 380.898,1579.26 C380.898,1578.36 380.798,1577.56 380.698,1576.76 M373.798,1580.66 C373.798,1582.16 373.398,1586.76 370.898,1590.56 C369.198,1593.16 365.798,1595.86 363.898,1597.36 L364.198,1577.86 C364.398,1576.96 365.898,1574.06 369.898,1574.06 C373.498,1574.06 373.798,1577.46 373.798,1579.56 L373.798,1580.66 "/>
<path class="KeySig" d="M433.107,714.202 C432.507,710.302 430.107,706.602 425.007,706.602 C420.007,706.602 417.107,709.702 416.607,710.302 L417.007,678.202 C417.007,677.402 416.407,676.802 415.607,676.802 L414.407,676.802 C413.607,676.802 413.007,677.402 413.007,678.202 L413.507,738.302 C413.507,739.102 414.107,739.702 414.907,739.702 C415.107,739.702 415.507,739.602 415.707,739.502 C416.107,739.302 422.607,736.102 428.007,730.002 C431.807,725.702 433.307,720.802 433.307,716.702 C433.307,715.802 433.207,715.002 433.107,714.202 M426.207,718.102 C426.207,719.602 425.807,724.202 423.307,728.002 C421.607,730.602 418.207,733.302 416.307,734.802 L416.607,715.302 C416.807,714.402 418.307,711.502 422.307,711.502 C425.907,711.502 426.207,714.902 426.207,717.002 L426.207,718.102 "/>
<path class="KeySig" d="M408.106,664.199 C407.506,660.299 405.106,656.599 400.006,656.599 C395.006,656.599 392.106,659.699 391.606,660.299 L392.006,628.199 C392.006,627.399 391.406,626.799 390.606,626.799 L389.406,626.799 C388.606,626.799 388.006,627.399 388.006,628.199 L388.506,688.299 C388.506,689.099 389.106,689.699 389.906,689.699 C390.106,689.699 390.506,689.599 390.706,689.499 C391.106,689.299 397.606,686.099 403.006,679.999 C406.806,675.699 408.306,670.799 408.306,666.699 C408.306,665.799 408.206,664.999 408.106,664.199 M401.206,668.099 C401.206,669.599 400.806,674.199 398.306,677.999 C396.606,680.599 393.206,683.299 391.306,684.799 L391.606,665.299 C391.806,664.399 393.306,661.499 397.306,661.499 C400.906,661.499 401.206,664.899 401.206,666.999 L401.206,668.099 "/>
<path class="KeySig" d="M383.104,701.702 C382.504,697.802 380.104,694.102 375.004,694.102 C370.004,694.102 367.104,697.202 366.604,697.802 L367.004,665.702 C367.004,664.902 366.404,664.302 365.604,664.302 L364.404,664.302 C363.604,664.302 363.004,664.902 363.004,665.702 L363.504,725.802 C363.504,726.602 364.104,727.202 364.904,727.202 C365.104,727.202 365.504,727.102 365.704,727.002 C366.104,726.802 372.604,723.602 378.004,717.502 C381.804,713.202 383.304,708.302 383.304,704.202 C383.304,703.302 383.204,702.502 383.104,701.702 M376.204,705.602 C376.204,707.102 375.804,711.702 373.304,715.502 C371.604,718.102 368.204,720.802 366.304,722.302 L366.604,702.802 C366.804,701.902 368.304,699.002 372.304,699.002 C375.904,699.002 376.204,702.402 376.204,704.502 L376.204,705.602 "/>
<path class="KeySig" d="M430.701,1326.74 C430.101,1322.84 427.701,1319.14 422.601,1319.14 C417.601,1319.14 414.701,1322.24 414.201,1322.84 L414.601,1290.74 C414.601,1289.94 414.001,1289.34 413.201,1289.34 L412.001,1289.34 C411.201,1289.34 410.601,1289.94 410.601,1290.74 L411.101,1350.84 C411.101,1351.64 411.701,1352.24 412.501,1352.24 C412.701,1352.24 413.101,1352.14 413.301,1352.04 C413.701,1351.84 420.201,1348.64 425.601,1342.54 C429.401,1338.24 430.901,1333.34 430.901,1329.24 C430.901,1328.34 430.801,1327.54 430.701,1326.74 M423.801,1330.64 C423.801,1332.14 423.401,1336.74 420.901,1340.54 C419.201,1343.14 415.801,1345.84 413.901,1347.34 L414.201,1327.84 C414.401,1326.94 415.901,1324.04 419.901,1324.04 C423.501,1324.04 423.801,1327.44 423.801,1329.54 L423.801,1330.64 "/>
<path class="KeySig" d="M405.699,1276.74 C405.099,1272.84 402.699,1269.14 397.599,1269.14 C392.599,1269.14 389.699,1272.24 389.199,1272.84 L389.599,1240.74 C389.599,1239.94 388.999,1239.34 388.199,1239.34 L386.999,1239.34 C386.199,1239.34 385.599,1239.94 385.599,1240.74 L386.099,1300.84 C386.099,1301.64 386.699,1302.24 387.499,1302.24 C387.699,1302.24 388.099,1302.14 388.299,1302.04 C388.699,1301.84 395.199,1298.64 400.599,1292.54 C404.399,1288.24 405.899,1283.34 405.899,1279.24 C405.899,1278.34 405.799,1277.54 405.699,1276.74 M398.799,1280.64 C398.799,1282.14 398.399,1286.74 395.899,1290.54 C394.199,1293.14 390.799,1295.84 388.899,1297.34 L389.199,1277.84 C389.399,1276.94 390.899,1274.04 394.899,1274.04 C398.499,1274.04 398.799,1277.44 398.799,1279.54 L398.799,1280.64 "/>
<path class="KeySig" d="M380.698,1314.24 C380.098,1310.34 377.698,1306.64 372.598,1306.64 C367.598,1306.64 364.698,1309.74 364.198,1310.34 L364.598,1278.24 C364.598,1277.44 363.998,1276.84 363.198,1276.84 L361.998,1276.84 C361.198,1276.84 360.598,1277.44 360.598,1278.24 L361.098,1338.34 C361.098,1339.14 361.698,1339.74 362.498,1339.74 C362.698,1339.74 363.098,1339.64 363.298,1339.54 C363.698,1339.34 370.198,1336.14 375.598,1330.04 C379.398,1325.74 380.898,1320.84 380.898,1316.74 C380.898,1315.84 380.798,1315.04 380.698,1314.24 M373.798,1318.14 C373.798,1319.64 373.398,1324.24 370.898,1328.04 C369.198,1330.64 365.798,1333.34 363.898,1334.84 L364.198,1315.34 C364.398,1314.44 365.898,1311.54 369.898,1311.54 C373.498,1311.54 373.798,1314.94 373.798,1317.04 L373.798,1318.14 "/>
<path class="TimeSig" d="M460.503,960.516 L477.303,960.516 L477.303,967.816 L469.203,967.816 C468.403,967.816 467.803,968.416 467.803,969.216 L467.803,971.116 C467.803,971.916 468.403,972.416 469.203,972.416 L498.903,972.416 C499.703,972.416 500.303,971.916 500.303,971.116 L500.303,969.216 C500.303,968.416 499.703,967.816 498.903,967.816 L490.103,967.816 L490.103,960.516 L498.903,960.516 C499.703,960.516 500.303,959.916 500.303,959.116 L500.303,957.316 C500.303,956.516 499.703,955.916 498.903,955.916 L490.103,955.916 L490.103,940.216 C490.103,939.716 489.703,939.216 489.303,939.016 L488.203,938.416 C488.003,938.316 487.703,938.316 487.503,938.316 C487.203,938.316 486.803,938.416 486.603,938.616 L477.703,946.816 C477.503,947.016 477.303,947.516 477.303,947.816 L477.303,955.916 L466.003,955.916 C466.003,955.916 476.903,944.116 488.503,928.616 C489.303,927.516 488.903,926.516 488.703,926.316 L486.603,924.116 C486.403,923.916 485.903,923.716 485.603,923.716 L471.003,923.716 C470.303,923.716 469.803,924.316 469.703,924.916 C469.703,924.916 469.203,932.116 466.603,940.116 C464.003,948.116 461.203,952.916 458.603,956.516 C458.603,956.516 458.103,957.516 458.403,958.216 C458.703,958.916 459.403,960.016 459.403,960.016 C459.403,960.016 459.703,960.516 460.503,960.516"/>
<path class="TimeSig" d="M460.503,1009.12 L477.303,1009.12 L477.303,1016.42 L469.203,1016.42 C468.403,1016.42 467.803,1017.02 467.803,1017.82 L467.803,1019.72 C467.803,1020.52 468.403,1021.02 469.203,1021.02 L498.903,1021.02 C499.703,1021.02 500.303,1020.52 500.303,1019.72 L500.303,1017.82 C500.303,1017.02 499.703,1016.42 498.903,1016.42 L490.103,1016.42 L490.103,1009.12 L498.903,1009.12 C499.703,1009.12 500.303,1008.52 500.303,1007.72 L500.303,1005.92 C500.303,1005.12 499.703,1004.52 498.903,1004.52 L490.103,1004.52 L490.103,988.82 C490.103,988.32 489.703,987.82 489.303,987.62 L488.203,987.02 C488.003,986.92 487.703,986.92 487.503,986.92 C487.203,986.92 486.803,987.02 486.603,987.22 L477.703,995.42 C477.503,995.62 477.303,996.12 477.303,996.42 L477.303,1004.52 L466.003,1004.52 C466.003,1004.52 476.903,992.72 488.503,977.22 C489.303,976.12 488.903,975.12 488.703,974.92 L486.603,972.72 C486.403,972.52 485.903,972.32 485.603,972.32 L471.003,972.32 C470.303,972.32 469.803,972.92 469.703,973.52 C469.703,973.52 469.203,980.72 466.603,988.72 C464.003,996.72 461.203,1001.52 458.603,1005.12 C458.603,1005.12 458.103,1006.12 458.403,1006.82 C458.703,1007.52 459.403,1008.62 459.403,1008.62 C459.403,1008.62 459.703,1009.12 460.503,1009.12"/>
<path class="TimeSig" d="M460.503,697.999 L477.303,697.999 L477.303,705.299 L469.203,705.299 C468.403,705.299 467.803,705.899 467.803,706.699 L467.803,708.599 C467.803,709.399 468.403,709.899 469.203,709.899 L498.903,709.899 C499.703,709.899 500.303,709.399 500.303,708.599 L500.303,706.699 C500.303,705.899 499.703,705.299 498.903,705.299 L490.103,705.299 L490.103,697.999 L498.903,697.999 C499.703,697.999 500.303,697.399 500.303,696.599 L500.303,694.799 C500.303,693.999 499.703,693.399 498.903,693.399 L490.103,693.399 L490.103,677.699 C490.103,677.199 489.703,676.699 489.303,676.499 L488.203,675.899 C488.003,675.799 487.703,675.799 487.503,675.799 C487.203,675.799 486.803,675.899 486.603,676.099 L477.703,684.299 C477.503,684.499 477.303,684.999 477.303,685.299 L477.303,693.399 L466.003,693.399 C466.003,693.399 476.903,681.599 488.503,666.099 C489.303,664.999 488.903,663.999 488.703,663.799 L486.603,661.599 C486.403,661.399 485.903,661.199 485.603,661.199 L471.003,661.199 C470.303,661.199 469.803,661.799 469.703,662.399 C469.703,662.399 469.203,669.599 466.603,677.599 C464.003,685.599 461.203,690.399 458.603,693.999 C458.603,693.999 458.103,694.999 458.403,695.699 C458.703,696.399 459.403,697.499 459.403,697.499 C459.403,697.499 459.703,697.999 460.503,697.999"/>
<path class="TimeSig" d="M460.503,746.604 L477.303,746.604 L477.303,753.904 L469.203,753.904 C468.403,753.904 467.803,754.504 467.803,755.304 L467.803,757.204 C467.803,758.004 468.403,758.504 469.203,758.504 L498.903,758.504 C499.703,758.504 500.303,758.004 500.303,757.204 L500.303,755.304 C500.303,754.504 499.703,753.904 498.903,753.904 L490.103,753.904 L490.103,746.604 L498.903,746.604 C499.703,746.604 500.303,746.004 500.303,745.204 L500.303,743.404 C500.303,742.604 499.703,742.004 498.903,742.004 L490.103,742.004 L490.103,726.304 C490.103,725.804 489.703,725.304 489.303,725.104 L488.203,724.504 C488.003,724.404 487.703,724.404 487.503,724.404 C487.203,724.404 486.803,724.504 486.603,724.704 L477.703,732.904 C477.503,733.104 477.303,733.604 477.303,733.904 L477.303,742.004 L466.003,742.004 C466.003,742.004 476.903,730.204 488.503,714.704 C489.303,713.604 488.903,712.604 488.703,712.404 L486.603,710.204 C486.403,710.004 485.903,709.804 485.603,709.804 L471.003,709.804 C470.303,709.804 469.803,710.404 469.703,711.004 C469.703,711.004 469.203,718.204 466.603,726.204 C464.003,734.204 461.203,739.004 458.603,742.604 C458.603,742.604 458.103,743.604 458.403,744.304 C458.703,745.004 459.403,746.104 459.403,746.104 C459.403,746.104 459.703,746.604 460.503,746.604"/>
<path class="NoteDot" d="M2483.84,1572.16 C2483.84,1574.75 2485.95,1576.86 2488.54,1576.86 C2491.14,1576.86 2493.24,1574.75 2493.24,1572.16 C2493.24,1569.56 2491.14,1567.46 2488.54,1567.46 C2485.95,1567.46 2483.84,1569.56 2483.84,1572.16"/>
<path class="NoteDot" d="M2483.84,1359.64 C2483.84,1362.24 2485.95,1364.34 2488.54,1364.34 C2491.14,1364.34 2493.24,1362.24 2493.24,1359.64 C2493.24,1357.05 2491.14,1354.94 2488.54,1354.94 C2485.95,1354.94 2483.84,1357.05 2483.84,1359.64"/>
<path class="Page" d="M222.584,4034.39 C221.054,4036.23 216.914,4037.63 212.774,4037.72 L212.774,4039.65 L216.734,4039.65 C219.344,4039.7 219.614,4039.97 219.524,4042.49 L219.524,4060.53 C219.524,4062.83 219.524,4062.92 219.254,4063.32 C218.894,4063.77 218.039,4063.95 215.519,4063.95 L212.594,4063.95 L212.594,4066.07 L230.414,4066.07 L230.414,4063.95 L227.939,4063.95 C225.419,4063.95 224.564,4063.77 224.204,4063.32 C223.889,4062.92 223.889,4062.87 223.889,4060.53 L223.889,4041.95 C223.889,4039.43 223.979,4037.31 224.204,4034.39 L222.584,4034.39 M248.679,4049.51 C252.774,4048.02 254.664,4045.73 254.664,4042.13 C254.664,4037.4 251.064,4034.39 245.484,4034.39 C240.219,4034.39 236.214,4037.49 236.214,4041.59 C236.214,4043.43 237.429,4044.74 239.184,4044.74 C240.759,4044.74 241.839,4043.66 241.839,4042.04 C241.839,4041.05 241.479,4040.46 240.444,4039.74 C239.994,4039.43 239.859,4039.25 239.859,4038.93 C239.859,4037.67 242.469,4036.32 245.034,4036.32 C248.274,4036.32 249.984,4038.35 249.984,4042.17 C249.984,4046.36 248.274,4048.56 245.079,4048.56 C244.674,4048.56 243.909,4048.52 243.234,4048.47 C242.874,4048.43 242.514,4048.43 242.244,4048.43 C241.299,4048.43 240.804,4048.83 240.804,4049.64 C240.804,4050.41 241.254,4050.77 242.244,4050.77 C242.514,4050.77 242.874,4050.77 243.279,4050.72 C244.179,4050.68 244.899,4050.68 245.394,4050.68 C248.724,4050.68 250.524,4053.06 250.524,4057.52 C250.524,4062.2 248.274,4064.81 244.224,4064.81 C241.389,4064.81 238.329,4063.28 238.329,4061.88 C238.329,4061.48 238.419,4061.39 239.274,4060.89 C240.534,4060.13 241.029,4059.36 241.029,4058.24 C241.029,4056.62 239.814,4055.4 238.194,4055.4 C236.259,4055.4 234.999,4056.98 234.999,4059.36 C234.999,4063.73 239.004,4066.74 244.764,4066.74 C251.289,4066.74 255.519,4063.14 255.519,4057.61 C255.519,4053.38 253.359,4050.81 248.679,4049.51"/>
<path class="Bracket" transform="matrix(3.62523,0,0,3.62523,214.469,1022.12)" d="M0.92002,-50 C2.69004,-51.88 6.2,-55.8 6.2,-63 C6.2,-72.1 2.25996,-81.32 2.25996,-86.97 C2.25996,-93.06 5.84004,-98.84 5.95,-99 C6.05996,-99.16 6.05,-99.39 5.94004,-99.46 C5.82998,-99.53 5.62002,-99.47 5.49004,-99.32 C5.35996,-99.17 0,-93.75 0,-85.6 C0,-76.75 3.5,-70.58 3.5,-59.07 C3.5,-56.89 2.55996,-53.36 0.1,-50.33 C-0.0799805,-50.17 -0.1,-49.89 0.0599609,-49.7 L0.0700195,-49.69 L0.1,-49.66 C2.55996,-46.63 3.5,-43.1 3.5,-40.92 C3.5,-29.4 0,-23.24 0,-14.39 C0,-6.25 5.35996,-0.8 5.49004,-0.659961 C5.62002,-0.52002 5.8,-0.42998 5.94004,-0.52002 C6.07998,-0.609961 6.07998,-0.77998 5.95,-0.97998 C5.82002,-1.17998 2.25996,-6.92002 2.25996,-13.01 C2.25996,-18.66 6.2,-27.9 6.2,-37 C6.2,-44.3 2.69004,-48.12 0.92002,-50"/>
<path class="Bracket" transform="matrix(3.62523,0,0,3.62523,214.469,1634.66)" d="M0.92002,-50 C2.69004,-51.88 6.2,-55.8 6.2,-63 C6.2,-72.1 2.25996,-81.32 2.25996,-86.97 C2.25996,-93.06 5.84004,-98.84 5.95,-99 C6.05996,-99.16 6.05,-99.39 5.94004,-99.46 C5.82998,-99.53 5.62002,-99.47 5.49004,-99.32 C5.35996,-99.17 0,-93.75 0,-85.6 C0,-76.75 3.5,-70.58 3.5,-59.07 C3.5,-56.89 2.55996,-53.36 0.1,-50.33 C-0.0799805,-50.17 -0.1,-49.89 0.0599609,-49.7 L0.0700195,-49.69 L0.1,-49.66 C2.55996,-46.63 3.5,-43.1 3.5,-40.92 C3.5,-29.4 0,-23.24 0,-14.39 C0,-6.25 5.35996,-0.8 5.49004,-0.659961 C5.62002,-0.52002 5.8,-0.42998 5.94004,-0.52002 C6.07998,-0.609961 6.07998,-0.77998 5.95,-0.97998 C5.82002,-1.17998 2.25996,-6.92002 2.25996,-13.01 C2.25996,-18.66 6.2,-27.9 6.2,-37 C6.2,-44.3 2.69004,-48.12 0.92002,-50"/>
</svg>