<?xml version="1.0" encoding="UTF-8" standalone="no"?>
<svg width="1000px" height="220px" viewBox="150 600 2700 500" xmlns="http://www.w3.org/2000/svg" xmlns:xlink="http://www.w3.org/1999/xlink" version="1.2" baseProfile="tiny">
 xmlns="http://www.w3.org/2000/svg" xmlns:xlink="http://www.w3.org/1999/xlink" version="1.2" baseProfile="tiny">
<title>exercises_scores (23)</title>
<desc>Generated by MuseScore 3.6.0</desc>
<polyline class="StaffLines" fill="none" stroke="#000000" stroke-width="2.75" stroke-linejoin="bevel" points="247.099,650.005 2764.63,650.005"/>
<polyline class="StaffLines" fill="none" stroke="#000000" stroke-width="2.75" stroke-linejoin="bevel" points="247.099,675.006 2764.63,675.006"/>
<polyline class="StaffLines" fill="none" stroke="#000000" stroke-width="2.75" stroke-linejoin="bevel" points="247.099,700.008 2764.63,700.008"/>
<polyline class="StaffLines" fill="none" stroke="#000000" stroke-width="2.75" stroke-linejoin="bevel" points="247.099,725.009 2764.63,725.009"/>
<polyline class="StaffLines" fill="none" stroke="#000000" stroke-width="2.75" stroke-linejoin="bevel" points="247.099,750.011 2764.63,750.011"/>
<polyline class="StaffLines" fill="none" stroke="#000000" stroke-width="2.75" stroke-linejoin="bevel" points="247.099,912.521 2764.63,912.521"/>
<polyline class="StaffLines" fill="none" stroke="#000000" stroke-width="2.75" stroke-linejoin="bevel" points="247.099,937.523 2764.63,937.523"/>
<polyline class="StaffLines" fill="none" stroke="#000000" stroke-width="2.75" stroke-linejoin="bevel" points="247.099,962.524 2764.63,962.524"/>
<polyline class="StaffLines" fill="none" stroke="#000000" stroke-width="2.75" stroke-linejoin="bevel" points="247.099,987.526 2764.63,987.526"/>
<polyline class="StaffLines" fill="none" stroke="#000000" stroke-width="2.75" stroke-linejoin="bevel" points="247.099,1012.53 2764.63,1012.53"/>
<path class="Text" d="M248.664,216.56 L212.604,216.56 L212.604,219.38 L213.684,219.38 C217.104,219.44 218.244,219.62 218.724,220.22 C219.084,220.76 219.084,220.88 219.084,223.94 L219.084,252.5 C219.084,255.56 219.084,255.68 218.724,256.22 C218.244,256.82 217.104,257.06 213.684,257.06 L212.604,257.06 L212.604,259.88 L249.444,259.88 L250.644,243.86 L248.004,243.86 C245.724,254.54 243.264,256.82 234.084,257.06 L230.124,257.06 C226.524,256.94 225.624,256.34 225.804,254.18 L225.804,238.88 L227.004,238.88 C233.184,238.64 235.404,240.86 235.644,247.52 L238.464,247.52 L238.464,227.84 L235.644,227.84 C235.284,233.72 232.944,236.06 227.244,236.06 L225.804,236.06 L225.804,222.38 C225.744,219.86 226.344,219.44 229.584,219.38 L232.704,219.38 C242.544,219.32 245.004,221.48 246.924,231.86 L249.504,231.86 L248.664,216.56 M274.097,242.18 C273.617,239.06 271.769,236.18 267.689,236.18 C263.609,236.18 261.455,238.622 261.059,239.096 L261.329,213.71 C261.329,213.706 261.329,213.701 261.329,213.698 C261.329,213.092 260.837,212.6 260.231,212.6 L260.231,212.6 L259.295,212.6 C259.042,212.601 258.693,212.746 258.515,212.924 C258.339,213.098 258.196,213.441 258.196,213.689 C258.196,213.695 258.196,213.704 258.197,213.71 L258.623,261.314 C258.629,261.913 259.121,262.4 259.72,262.4 L259.721,262.4 C259.914,262.399 260.199,262.308 260.357,262.196 C260.669,262.046 265.745,259.55 270.053,254.702 C273.731,250.568 274.697,245.72 274.097,242.18 M268.667,245.324 C268.661,246.482 268.373,250.166 266.369,253.166 C264.995,255.224 262.361,257.396 260.849,258.554 L261.017,243.104 C261.197,242.36 262.391,240.086 265.571,240.098 C269.045,240.11 268.667,244.166 268.667,245.324 M306.908,231.92 L296.228,232.58 L296.228,235.16 L298.688,235.16 C300.968,235.22 301.268,235.58 301.268,238.16 L301.268,252.5 L301.268,254.84 L301.268,255.32 C301.208,256.22 301.148,256.58 300.908,256.88 C300.488,257.42 299.348,257.66 296.768,257.72 L296.528,257.72 L296.528,259.88 L311.648,259.88 L311.648,257.72 L311.408,257.72 C307.448,257.6 306.908,257.3 306.908,255.08 L306.908,252.5 L306.908,243.98 C306.908,238.64 309.848,234.68 313.748,234.68 C317.168,234.68 318.908,237.14 318.908,242 L318.908,252.5 L318.908,255.38 C318.848,256.16 318.788,256.58 318.488,256.88 C318.128,257.42 316.928,257.66 314.348,257.72 L314.108,257.72 L314.108,259.88 L329.288,259.88 L329.288,257.72 L329.048,257.72 C325.088,257.6 324.548,257.3 324.548,255.14 L324.548,252.5 L324.548,244.52 C324.548,238.52 327.248,234.68 331.448,234.68 C334.868,234.68 336.548,237.26 336.548,242.66 L336.548,252.5 L336.548,255.32 C336.488,256.16 336.428,256.58 336.128,256.88 C335.768,257.42 334.568,257.66 331.988,257.72 L331.748,257.72 L331.748,259.88 L346.928,259.88 L346.928,257.72 L346.688,257.72 C342.728,257.6 342.188,257.3 342.188,255.08 L342.188,252.5 L342.188,241.46 C342.188,237.74 341.828,236.48 340.268,234.44 C338.528,232.22 336.068,231.02 333.188,231.02 C329.288,231.02 326.408,232.88 323.828,237.02 C322.808,233.42 319.568,231.02 315.548,231.02 C311.888,231.02 309.248,232.76 306.908,236.54 L306.908,231.92 M360.537,231.92 L349.257,232.58 L349.257,235.16 L352.317,235.16 C354.597,235.22 354.897,235.58 354.897,238.16 L354.897,252.5 L354.897,255.32 C354.837,256.22 354.777,256.58 354.537,256.88 C354.117,257.42 352.977,257.66 350.397,257.72 L349.977,257.72 L349.977,259.88 L365.517,259.88 L365.517,257.72 L365.097,257.72 C361.077,257.6 360.537,257.3 360.537,255.14 L360.537,252.5 L360.537,231.92 M357.717,216.98 C355.797,216.98 354.237,218.54 354.237,220.46 C354.237,222.38 355.797,223.94 357.657,223.94 C359.637,223.94 361.197,222.38 361.197,220.46 C361.197,218.54 359.637,216.98 357.717,216.98 M379.067,231.92 L368.687,232.58 L368.687,235.16 L370.847,235.16 C373.127,235.22 373.427,235.58 373.427,238.16 L373.427,252.5 L373.427,253.94 L373.427,255.32 C373.367,256.22 373.307,256.58 373.067,256.88 C372.647,257.42 371.507,257.66 368.927,257.72 L368.687,257.72 L368.687,259.88 L383.867,259.88 L383.867,257.72 L383.627,257.72 C379.607,257.6 379.067,257.3 379.067,255.14 L379.067,252.5 L379.067,246.26 C379.067,243.32 379.487,240.62 380.147,239.24 C381.407,236.54 384.107,234.68 386.687,234.68 C388.247,234.68 390.047,235.52 390.947,236.78 C391.847,238.1 392.267,239.9 392.267,242.78 L392.267,252.5 L392.267,255.32 C392.207,256.22 392.147,256.58 391.907,256.88 C391.487,257.42 390.287,257.66 387.707,257.72 L387.467,257.72 L387.467,259.88 L402.647,259.88 L402.647,257.72 L402.407,257.72 C398.447,257.6 397.907,257.3 397.907,255.14 L397.907,252.5 L397.907,243.08 C397.907,238.76 397.727,237.68 396.647,235.64 C395.147,232.76 392.147,231.02 388.547,231.02 C384.647,231.02 381.707,232.82 379.067,236.78 L379.067,231.92 M418.843,231.02 C411.463,231.02 405.763,237.56 405.763,245.96 C405.763,254.18 411.523,260.78 418.723,260.78 C425.923,260.78 431.683,254.18 431.683,245.9 C431.683,237.68 425.923,231.02 418.843,231.02 M418.843,233.6 C423.043,233.6 425.383,237.98 425.383,245.9 C425.383,253.88 423.043,258.2 418.723,258.2 C414.403,258.2 412.063,253.88 412.063,245.96 C412.063,237.8 414.343,233.6 418.843,233.6 M445.603,231.92 L434.983,232.58 L434.983,235.16 L437.443,235.16 C439.723,235.22 440.023,235.58 440.023,238.16 L440.023,252.5 L440.023,255.32 C439.963,256.22 439.903,256.58 439.663,256.88 C439.243,257.42 438.043,257.66 435.463,257.72 L435.223,257.72 L435.223,259.88 L451.243,259.88 L451.243,257.72 L450.163,257.72 C446.143,257.6 445.603,257.3 445.603,255.14 L445.603,252.5 L445.603,251.9 C445.663,241.82 449.263,234.14 453.943,233.9 C453.103,234.86 452.863,235.46 452.863,236.6 C452.863,238.52 454.243,239.9 456.163,239.9 C458.383,239.9 459.823,238.28 459.823,235.88 C459.823,232.94 457.783,231.02 454.603,231.02 C450.823,231.02 447.583,234.02 445.603,239.36 L445.603,231.92 "/>
<polyline class="BarLine" fill="none" stroke="#000000" stroke-width="4.50" stroke-linejoin="bevel" points="249.349,911.146 249.349,1013.9"/>
<polyline class="BarLine" fill="none" stroke="#000000" stroke-width="4.50" stroke-linejoin="bevel" points="1008.74,911.146 1008.74,1013.9"/>
<polyline class="BarLine" fill="none" stroke="#000000" stroke-width="4.50" stroke-linejoin="bevel" points="1642.1,911.146 1642.1,1013.9"/>
<polyline class="BarLine" fill="none" stroke="#000000" stroke-width="4.50" stroke-linejoin="bevel" points="2239.09,911.146 2239.09,1013.9"/>
<polyline class="BarLine" fill="none" stroke="#000000" stroke-width="4.50" stroke-linejoin="bevel" points="2734.88,911.146 2734.88,1013.9"/>
<polyline class="BarLine" fill="none" stroke="#000000" stroke-width="13.75" stroke-linejoin="bevel" points="2757.75,911.146 2757.75,1013.9"/>
<polyline class="BarLine" fill="none" stroke="#000000" stroke-width="4.50" stroke-linejoin="bevel" points="249.349,648.63 249.349,912.521"/>
<polyline class="BarLine" fill="none" stroke="#000000" stroke-width="4.50" stroke-linejoin="bevel" points="1008.74,648.63 1008.74,912.521"/>
<polyline class="BarLine" fill="none" stroke="#000000" stroke-width="4.50" stroke-linejoin="bevel" points="1642.1,648.63 1642.1,912.521"/>
<polyline class="BarLine" fill="none" stroke="#000000" stroke-width="4.50" stroke-linejoin="bevel" points="2239.09,648.63 2239.09,912.521"/>
<polyline class="BarLine" fill="none" stroke="#000000" stroke-width="4.50" stroke-linejoin="bevel" points="2734.88,648.63 2734.88,912.521"/>
<polyline class="BarLine" fill="none" stroke="#000000" stroke-width="13.75" stroke-linejoin="bevel" points="2757.75,648.63 2757.75,912.521"/>
<path class="Accidental" d="M475.102,942.124 C474.502,938.224 472.102,934.524 467.002,934.524 C462.002,934.524 459.102,937.624 458.602,938.224 L459.002,906.124 C459.002,905.324 458.402,904.724 457.602,904.724 L456.402,904.724 C455.602,904.724 455.002,905.324 455.002,906.124 L455.502,966.224 C455.502,967.024 456.102,967.624 456.902,967.624 C457.102,967.624 457.502,967.524 457.702,967.424 C458.102,967.224 464.602,964.024 470.002,957.924 C473.802,953.624 475.302,948.724 475.302,944.624 C475.302,943.724 475.202,942.924 475.102,942.124 M468.202,946.024 C468.202,947.524 467.802,952.124 465.302,955.924 C463.602,958.524 460.202,961.224 458.302,962.724 L458.602,943.224 C458.802,942.324 460.302,939.424 464.302,939.424 C467.902,939.424 468.202,942.824 468.202,944.924 L468.202,946.024 "/>
<path class="Accidental" d="M737.572,917.122 C736.972,913.222 734.572,909.522 729.472,909.522 C724.472,909.522 721.572,912.622 721.072,913.222 L721.472,881.122 C721.472,880.322 720.872,879.722 720.072,879.722 L718.872,879.722 C718.072,879.722 717.472,880.322 717.472,881.122 L717.972,941.222 C717.972,942.022 718.572,942.622 719.372,942.622 C719.572,942.622 719.972,942.522 720.172,942.422 C720.572,942.222 727.072,939.022 732.472,932.922 C736.272,928.622 737.772,923.722 737.772,919.622 C737.772,918.722 737.672,917.922 737.572,917.122 M730.672,921.022 C730.672,922.522 730.272,927.122 727.772,930.922 C726.072,933.522 722.672,936.222 720.772,937.722 L721.072,918.222 C721.272,917.322 722.772,914.422 726.772,914.422 C730.372,914.422 730.672,917.822 730.672,919.922 L730.672,921.022 "/>
<path class="Accidental" d="M868.808,904.621 C868.208,900.721 865.808,897.021 860.708,897.021 C855.708,897.021 852.808,900.121 852.308,900.721 L852.708,868.621 C852.708,867.821 852.108,867.221 851.308,867.221 L850.108,867.221 C849.308,867.221 848.708,867.821 848.708,868.621 L849.208,928.721 C849.208,929.521 849.808,930.121 850.608,930.121 C850.808,930.121 851.208,930.021 851.408,929.921 C851.808,929.721 858.308,926.521 863.708,920.421 C867.508,916.121 869.008,911.221 869.008,907.121 C869.008,906.221 868.908,905.421 868.808,904.621 M861.908,908.521 C861.908,910.021 861.508,914.621 859.008,918.421 C857.308,921.021 853.908,923.721 852.008,925.221 L852.308,905.721 C852.508,904.821 854.008,901.921 858.008,901.921 C861.608,901.921 861.908,905.321 861.908,907.421 L861.908,908.521 "/>
<path class="Accidental" d="M1052.84,892.12 C1052.24,888.22 1049.84,884.52 1044.74,884.52 C1039.74,884.52 1036.84,887.62 1036.34,888.22 L1036.74,856.12 C1036.74,855.32 1036.14,854.72 1035.34,854.72 L1034.14,854.72 C1033.34,854.72 1032.74,855.32 1032.74,856.12 L1033.24,916.22 C1033.24,917.02 1033.84,917.62 1034.64,917.62 C1034.84,917.62 1035.24,917.52 1035.44,917.42 C1035.84,917.22 1042.34,914.02 1047.74,907.92 C1051.54,903.62 1053.04,898.72 1053.04,894.62 C1053.04,893.72 1052.94,892.92 1052.84,892.12 M1045.94,896.02 C1045.94,897.52 1045.54,902.12 1043.04,905.92 C1041.34,908.52 1037.94,911.22 1036.04,912.72 L1036.34,893.22 C1036.54,892.32 1038.04,889.42 1042.04,889.42 C1045.64,889.42 1045.94,892.82 1045.94,894.92 L1045.94,896.02 "/>
<path class="Accidental" d="M1197.69,881.72 C1197.49,881.52 1197.19,881.42 1196.89,881.42 C1196.79,881.42 1196.59,881.52 1196.49,881.52 L1183.89,885.02 L1183.89,867.52 L1181.09,867.52 L1181.09,917.02 C1181.09,917.82 1181.69,918.32 1182.49,918.32 L1182.89,918.32 L1195.49,914.82 L1195.49,932.32 L1198.19,932.32 L1198.19,882.82 C1198.19,882.42 1197.99,881.92 1197.69,881.72 M1195.49,906.52 L1183.89,909.72 L1183.89,893.32 L1195.49,890.02 L1195.49,906.52 "/>
<path class="Accidental" d="M1334.37,867.119 C1333.77,863.219 1331.37,859.519 1326.27,859.519 C1321.27,859.519 1318.37,862.619 1317.87,863.219 L1318.27,831.119 C1318.27,830.319 1317.67,829.719 1316.87,829.719 L1315.67,829.719 C1314.87,829.719 1314.27,830.319 1314.27,831.119 L1314.77,891.219 C1314.77,892.019 1315.37,892.619 1316.17,892.619 C1316.37,892.619 1316.77,892.519 1316.97,892.419 C1317.37,892.219 1323.87,889.019 1329.27,882.919 C1333.07,878.619 1334.57,873.719 1334.57,869.619 C1334.57,868.719 1334.47,867.919 1334.37,867.119 M1327.47,871.019 C1327.47,872.519 1327.07,877.119 1324.57,880.919 C1322.87,883.519 1319.47,886.219 1317.57,887.719 L1317.87,868.219 C1318.07,867.319 1319.57,864.419 1323.57,864.419 C1327.17,864.419 1327.47,867.819 1327.47,869.919 L1327.47,871.019 "/>
<path class="Accidental" d="M1479.51,854.618 C1478.91,850.718 1476.51,847.018 1471.41,847.018 C1466.41,847.018 1463.51,850.118 1463.01,850.718 L1463.41,818.618 C1463.41,817.818 1462.81,817.218 1462.01,817.218 L1460.81,817.218 C1460.01,817.218 1459.41,817.818 1459.41,818.618 L1459.91,878.718 C1459.91,879.518 1460.51,880.118 1461.31,880.118 C1461.51,880.118 1461.91,880.018 1462.11,879.918 C1462.51,879.718 1469.01,876.518 1474.41,870.418 C1478.21,866.118 1479.71,861.218 1479.71,857.118 C1479.71,856.218 1479.61,855.418 1479.51,854.618 M1472.61,858.518 C1472.61,860.018 1472.21,864.618 1469.71,868.418 C1468.01,871.018 1464.61,873.718 1462.71,875.218 L1463.01,855.718 C1463.21,854.818 1464.71,851.918 1468.71,851.918 C1472.31,851.918 1472.61,855.318 1472.61,857.418 L1472.61,858.518 "/>
<path class="Accidental" d="M1686.2,867.119 C1685.6,863.219 1683.2,859.519 1678.1,859.519 C1673.1,859.519 1670.2,862.619 1669.7,863.219 L1670.1,831.119 C1670.1,830.319 1669.5,829.719 1668.7,829.719 L1667.5,829.719 C1666.7,829.719 1666.1,830.319 1666.1,831.119 L1666.6,891.219 C1666.6,892.019 1667.2,892.619 1668,892.619 C1668.2,892.619 1668.6,892.519 1668.8,892.419 C1669.2,892.219 1675.7,889.019 1681.1,882.919 C1684.9,878.619 1686.4,873.719 1686.4,869.619 C1686.4,868.719 1686.3,867.919 1686.2,867.119 M1679.3,871.019 C1679.3,872.519 1678.9,877.119 1676.4,880.919 C1674.7,883.519 1671.3,886.219 1669.4,887.719 L1669.7,868.219 C1669.9,867.319 1671.4,864.419 1675.4,864.419 C1679,864.419 1679.3,867.819 1679.3,869.919 L1679.3,871.019 "/>
<path class="Accidental" d="M1962.67,892.12 C1962.07,888.22 1959.67,884.52 1954.57,884.52 C1949.57,884.52 1946.67,887.62 1946.17,888.22 L1946.57,856.12 C1946.57,855.32 1945.97,854.72 1945.17,854.72 L1943.97,854.72 C1943.17,854.72 1942.57,855.32 1942.57,856.12 L1943.07,916.22 C1943.07,917.02 1943.67,917.62 1944.47,917.62 C1944.67,917.62 1945.07,917.52 1945.27,917.42 C1945.67,917.22 1952.17,914.02 1957.57,907.92 C1961.37,903.62 1962.87,898.72 1962.87,894.62 C1962.87,893.72 1962.77,892.92 1962.67,892.12 M1955.77,896.02 C1955.77,897.52 1955.37,902.12 1952.87,905.92 C1951.17,908.52 1947.77,911.22 1945.87,912.72 L1946.17,893.22 C1946.37,892.32 1947.87,889.42 1951.87,889.42 C1955.47,889.42 1955.77,892.82 1955.77,894.92 L1955.77,896.02 "/>
<path class="Accidental" d="M2096.53,904.621 C2095.93,900.721 2093.53,897.021 2088.43,897.021 C2083.43,897.021 2080.53,900.121 2080.03,900.721 L2080.43,868.621 C2080.43,867.821 2079.83,867.221 2079.03,867.221 L2077.83,867.221 C2077.03,867.221 2076.43,867.821 2076.43,868.621 L2076.93,928.721 C2076.93,929.521 2077.53,930.121 2078.33,930.121 C2078.53,930.121 2078.93,930.021 2079.13,929.921 C2079.53,929.721 2086.03,926.521 2091.43,920.421 C2095.23,916.121 2096.73,911.221 2096.73,907.121 C2096.73,906.221 2096.63,905.421 2096.53,904.621 M2089.63,908.521 C2089.63,910.021 2089.23,914.621 2086.73,918.421 C2085.03,921.021 2081.63,923.721 2079.73,925.221 L2080.03,905.721 C2080.23,904.821 2081.73,901.921 2085.73,901.921 C2089.33,901.921 2089.63,905.321 2089.63,907.421 L2089.63,908.521 "/>
<path class="Accidental" d="M2283.19,917.122 C2282.59,913.222 2280.19,909.522 2275.09,909.522 C2270.09,909.522 2267.19,912.622 2266.69,913.222 L2267.09,881.122 C2267.09,880.322 2266.49,879.722 2265.69,879.722 L2264.49,879.722 C2263.69,879.722 2263.09,880.322 2263.09,881.122 L2263.59,941.222 C2263.59,942.022 2264.19,942.622 2264.99,942.622 C2265.19,942.622 2265.59,942.522 2265.79,942.422 C2266.19,942.222 2272.69,939.022 2278.09,932.922 C2281.89,928.622 2283.39,923.722 2283.39,919.622 C2283.39,918.722 2283.29,917.922 2283.19,917.122 M2276.29,921.022 C2276.29,922.522 2275.89,927.122 2273.39,930.922 C2271.69,933.522 2268.29,936.222 2266.39,937.722 L2266.69,918.222 C2266.89,917.322 2268.39,914.422 2272.39,914.422 C2275.99,914.422 2276.29,917.822 2276.29,919.922 L2276.29,921.022 "/>
<path class="Accidental" d="M2529.3,942.124 C2528.7,938.224 2526.3,934.524 2521.2,934.524 C2516.2,934.524 2513.3,937.624 2512.8,938.224 L2513.2,906.124 C2513.2,905.324 2512.6,904.724 2511.8,904.724 L2510.6,904.724 C2509.8,904.724 2509.2,905.324 2509.2,906.124 L2509.7,966.224 C2509.7,967.024 2510.3,967.624 2511.1,967.624 C2511.3,967.624 2511.7,967.524 2511.9,967.424 C2512.3,967.224 2518.8,964.024 2524.2,957.924 C2528,953.624 2529.5,948.724 2529.5,944.624 C2529.5,943.724 2529.4,942.924 2529.3,942.124 M2522.4,946.024 C2522.4,947.524 2522,952.124 2519.5,955.924 C2517.8,958.524 2514.4,961.224 2512.5,962.724 L2512.8,943.224 C2513,942.324 2514.5,939.424 2518.5,939.424 C2522.1,939.424 2522.4,942.824 2522.4,944.924 L2522.4,946.024 "/>
<path class="Accidental" d="M475.102,742.111 C474.502,738.211 472.102,734.511 467.002,734.511 C462.002,734.511 459.102,737.611 458.602,738.211 L459.002,706.111 C459.002,705.311 458.402,704.711 457.602,704.711 L456.402,704.711 C455.602,704.711 455.002,705.311 455.002,706.111 L455.502,766.211 C455.502,767.011 456.102,767.611 456.902,767.611 C457.102,767.611 457.502,767.511 457.702,767.411 C458.102,767.211 464.602,764.011 470.002,757.911 C473.802,753.611 475.302,748.711 475.302,744.611 C475.302,743.711 475.202,742.911 475.102,742.111 M468.202,746.011 C468.202,747.511 467.802,752.111 465.302,755.911 C463.602,758.511 460.202,761.211 458.302,762.711 L458.602,743.211 C458.802,742.311 460.302,739.411 464.302,739.411 C467.902,739.411 468.202,742.811 468.202,744.911 L468.202,746.011 "/>
<path class="Accidental" d="M737.572,717.109 C736.972,713.209 734.572,709.509 729.472,709.509 C724.472,709.509 721.572,712.609 721.072,713.209 L721.472,681.109 C721.472,680.309 720.872,679.709 720.072,679.709 L718.872,679.709 C718.072,679.709 717.472,680.309 717.472,681.109 L717.972,741.209 C717.972,742.009 718.572,742.609 719.372,742.609 C719.572,742.609 719.972,742.509 720.172,742.409 C720.572,742.209 727.072,739.009 732.472,732.909 C736.272,728.609 737.772,723.709 737.772,719.609 C737.772,718.709 737.672,717.909 737.572,717.109 M730.672,721.009 C730.672,722.509 730.272,727.109 727.772,730.909 C726.072,733.509 722.672,736.209 720.772,737.709 L721.072,718.209 C721.272,717.309 722.772,714.409 726.772,714.409 C730.372,714.409 730.672,717.809 730.672,719.909 L730.672,721.009 "/>
<path class="Accidental" d="M868.808,704.609 C868.208,700.709 865.808,697.009 860.708,697.009 C855.708,697.009 852.808,700.109 852.308,700.709 L852.708,668.609 C852.708,667.809 852.108,667.209 851.308,667.209 L850.108,667.209 C849.308,667.209 848.708,667.809 848.708,668.609 L849.208,728.709 C849.208,729.509 849.808,730.109 850.608,730.109 C850.808,730.109 851.208,730.009 851.408,729.909 C851.808,729.709 858.308,726.509 863.708,720.409 C867.508,716.109 869.008,711.209 869.008,707.109 C869.008,706.209 868.908,705.409 868.808,704.609 M861.908,708.509 C861.908,710.009 861.508,714.609 859.008,718.409 C857.308,721.009 853.908,723.709 852.008,725.209 L852.308,705.709 C852.508,704.809 854.008,701.909 858.008,701.909 C861.608,701.909 861.908,705.309 861.908,707.409 L861.908,708.509 "/>
<path class="Accidental" d="M1052.84,692.108 C1052.24,688.208 1049.84,684.508 1044.74,684.508 C1039.74,684.508 1036.84,687.608 1036.34,688.208 L1036.74,656.108 C1036.74,655.308 1036.14,654.708 1035.34,654.708 L1034.14,654.708 C1033.34,654.708 1032.74,655.308 1032.74,656.108 L1033.24,716.208 C1033.24,717.008 1033.84,717.608 1034.64,717.608 C1034.84,717.608 1035.24,717.508 1035.44,717.408 C1035.84,717.208 1042.34,714.008 1047.74,707.908 C1051.54,703.608 1053.04,698.708 1053.04,694.608 C1053.04,693.708 1052.94,692.908 1052.84,692.108 M1045.94,696.008 C1045.94,697.508 1045.54,702.108 1043.04,705.908 C1041.34,708.508 1037.94,711.208 1036.04,712.708 L1036.34,693.208 C1036.54,692.308 1038.04,689.408 1042.04,689.408 C1045.64,689.408 1045.94,692.808 1045.94,694.908 L1045.94,696.008 "/>
<path class="Accidental" d="M1197.69,681.708 C1197.49,681.508 1197.19,681.408 1196.89,681.408 C1196.79,681.408 1196.59,681.508 1196.49,681.508 L1183.89,685.008 L1183.89,667.508 L1181.09,667.508 L1181.09,717.008 C1181.09,717.808 1181.69,718.308 1182.49,718.308 L1182.89,718.308 L1195.49,714.808 L1195.49,732.308 L1198.19,732.308 L1198.19,682.808 C1198.19,682.408 1197.99,681.908 1197.69,681.708 M1195.49,706.508 L1183.89,709.708 L1183.89,693.308 L1195.49,690.008 L1195.49,706.508 "/>
<path class="Accidental" d="M1343.12,667.106 C1342.52,663.206 1340.12,659.506 1335.02,659.506 C1330.02,659.506 1327.12,662.606 1326.62,663.206 L1327.02,631.106 C1327.02,630.306 1326.42,629.706 1325.62,629.706 L1324.42,629.706 C1323.62,629.706 1323.02,630.306 1323.02,631.106 L1323.52,691.206 C1323.52,692.006 1324.12,692.606 1324.92,692.606 C1325.12,692.606 1325.52,692.506 1325.72,692.406 C1326.12,692.206 1332.62,689.006 1338.02,682.906 C1341.82,678.606 1343.32,673.706 1343.32,669.606 C1343.32,668.706 1343.22,667.906 1343.12,667.106 M1336.22,671.006 C1336.22,672.506 1335.82,677.106 1333.32,680.906 C1331.62,683.506 1328.22,686.206 1326.32,687.706 L1326.62,668.206 C1326.82,667.306 1328.32,664.406 1332.32,664.406 C1335.92,664.406 1336.22,667.806 1336.22,669.906 L1336.22,671.006 "/>
<path class="Accidental" d="M1488.26,654.606 C1487.66,650.706 1485.26,647.006 1480.16,647.006 C1475.16,647.006 1472.26,650.106 1471.76,650.706 L1472.16,618.606 C1472.16,617.806 1471.56,617.206 1470.76,617.206 L1469.56,617.206 C1468.76,617.206 1468.16,617.806 1468.16,618.606 L1468.66,678.706 C1468.66,679.506 1469.26,680.106 1470.06,680.106 C1470.26,680.106 1470.66,680.006 1470.86,679.906 C1471.26,679.706 1477.76,676.506 1483.16,670.406 C1486.96,666.106 1488.46,661.206 1488.46,657.106 C1488.46,656.206 1488.36,655.406 1488.26,654.606 M1481.36,658.506 C1481.36,660.006 1480.96,664.606 1478.46,668.406 C1476.76,671.006 1473.36,673.706 1471.46,675.206 L1471.76,655.706 C1471.96,654.806 1473.46,651.906 1477.46,651.906 C1481.06,651.906 1481.36,655.306 1481.36,657.406 L1481.36,658.506 "/>
<path class="Accidental" d="M1694.95,667.106 C1694.35,663.206 1691.95,659.506 1686.85,659.506 C1681.85,659.506 1678.95,662.606 1678.45,663.206 L1678.85,631.106 C1678.85,630.306 1678.25,629.706 1677.45,629.706 L1676.25,629.706 C1675.45,629.706 1674.85,630.306 1674.85,631.106 L1675.35,691.206 C1675.35,692.006 1675.95,692.606 1676.75,692.606 C1676.95,692.606 1677.35,692.506 1677.55,692.406 C1677.95,692.206 1684.45,689.006 1689.85,682.906 C1693.65,678.606 1695.15,673.706 1695.15,669.606 C1695.15,668.706 1695.05,667.906 1694.95,667.106 M1688.05,671.006 C1688.05,672.506 1687.65,677.106 1685.15,680.906 C1683.45,683.506 1680.05,686.206 1678.15,687.706 L1678.45,668.206 C1678.65,667.306 1680.15,664.406 1684.15,664.406 C1687.75,664.406 1688.05,667.806 1688.05,669.906 L1688.05,671.006 "/>
<path class="Accidental" d="M1962.67,692.108 C1962.07,688.208 1959.67,684.508 1954.57,684.508 C1949.57,684.508 1946.67,687.608 1946.17,688.208 L1946.57,656.108 C1946.57,655.308 1945.97,654.708 1945.17,654.708 L1943.97,654.708 C1943.17,654.708 1942.57,655.308 1942.57,656.108 L1943.07,716.208 C1943.07,717.008 1943.67,717.608 1944.47,717.608 C1944.67,717.608 1945.07,717.508 1945.27,717.408 C1945.67,717.208 1952.17,714.008 1957.57,707.908 C1961.37,703.608 1962.87,698.708 1962.87,694.608 C1962.87,693.708 1962.77,692.908 1962.67,692.108 M1955.77,696.008 C1955.77,697.508 1955.37,702.108 1952.87,705.908 C1951.17,708.508 1947.77,711.208 1945.87,712.708 L1946.17,693.208 C1946.37,692.308 1947.87,689.408 1951.87,689.408 C1955.47,689.408 1955.77,692.808 1955.77,694.908 L1955.77,696.008 "/>
<path class="Accidental" d="M2096.53,704.609 C2095.93,700.709 2093.53,697.009 2088.43,697.009 C2083.43,697.009 2080.53,700.109 2080.03,700.709 L2080.43,668.609 C2080.43,667.809 2079.83,667.209 2079.03,667.209 L2077.83,667.209 C2077.03,667.209 2076.43,667.809 2076.43,668.609 L2076.93,728.709 C2076.93,729.509 2077.53,730.109 2078.33,730.109 C2078.53,730.109 2078.93,730.009 2079.13,729.909 C2079.53,729.709 2086.03,726.509 2091.43,720.409 C2095.23,716.109 2096.73,711.209 2096.73,707.109 C2096.73,706.209 2096.63,705.409 2096.53,704.609 M2089.63,708.509 C2089.63,710.009 2089.23,714.609 2086.73,718.409 C2085.03,721.009 2081.63,723.709 2079.73,725.209 L2080.03,705.709 C2080.23,704.809 2081.73,701.909 2085.73,701.909 C2089.33,701.909 2089.63,705.309 2089.63,707.409 L2089.63,708.509 "/>
<path class="Accidental" d="M2283.19,717.109 C2282.59,713.209 2280.19,709.509 2275.09,709.509 C2270.09,709.509 2267.19,712.609 2266.69,713.209 L2267.09,681.109 C2267.09,680.309 2266.49,679.709 2265.69,679.709 L2264.49,679.709 C2263.69,679.709 2263.09,680.309 2263.09,681.109 L2263.59,741.209 C2263.59,742.009 2264.19,742.609 2264.99,742.609 C2265.19,742.609 2265.59,742.509 2265.79,742.409 C2266.19,742.209 2272.69,739.009 2278.09,732.909 C2281.89,728.609 2283.39,723.709 2283.39,719.609 C2283.39,718.709 2283.29,717.909 2283.19,717.109 M2276.29,721.009 C2276.29,722.509 2275.89,727.109 2273.39,730.909 C2271.69,733.509 2268.29,736.209 2266.39,737.709 L2266.69,718.209 C2266.89,717.309 2268.39,714.409 2272.39,714.409 C2275.99,714.409 2276.29,717.809 2276.29,719.909 L2276.29,721.009 "/>
<path class="Accidental" d="M2529.3,742.111 C2528.7,738.211 2526.3,734.511 2521.2,734.511 C2516.2,734.511 2513.3,737.611 2512.8,738.211 L2513.2,706.111 C2513.2,705.311 2512.6,704.711 2511.8,704.711 L2510.6,704.711 C2509.8,704.711 2509.2,705.311 2509.2,706.111 L2509.7,766.211 C2509.7,767.011 2510.3,767.611 2511.1,767.611 C2511.3,767.611 2511.7,767.511 2511.9,767.411 C2512.3,767.211 2518.8,764.011 2524.2,757.911 C2528,753.611 2529.5,748.711 2529.5,744.611 C2529.5,743.711 2529.4,742.911 2529.3,742.111 M2522.4,746.011 C2522.4,747.511 2522,752.111 2519.5,755.911 C2517.8,758.511 2514.4,761.211 2512.5,762.711 L2512.8,743.211 C2513,742.311 2514.5,739.411 2518.5,739.411 C2522.1,739.411 2522.4,742.811 2522.4,744.911 L2522.4,746.011 "/>
<polyline class="LedgerLine" fill="none" stroke="#000000" stroke-width="4.00" stroke-linejoin="bevel" points="1340.82,887.52 1390.81,887.52"/>
<polyline class="LedgerLine" fill="none" stroke="#000000" stroke-width="4.00" stroke-linejoin="bevel" points="1485.96,887.52 1535.95,887.52"/>
<polyline class="LedgerLine" fill="none" stroke="#000000" stroke-width="4.00" stroke-linejoin="bevel" points="1485.96,862.518 1535.95,862.518"/>
<polyline class="LedgerLine" fill="none" stroke="#000000" stroke-width="4.00" stroke-linejoin="bevel" points="1692.65,887.52 1742.64,887.52"/>
<polyline class="Stem" fill="none" stroke="#000000" stroke-width="2.75" stroke-linejoin="bevel" points="482.926,953.544 482.926,1031.28"/>
<polyline class="Stem" fill="none" stroke="#000000" stroke-width="2.75" stroke-linejoin="bevel" points="614.161,941.043 614.161,1021.9"/>
<polyline class="Stem" fill="none" stroke="#000000" stroke-width="2.75" stroke-linejoin="bevel" points="745.396,928.542 745.396,1012.53"/>
<polyline class="Stem" fill="none" stroke="#000000" stroke-width="2.75" stroke-linejoin="bevel" points="876.631,916.042 876.631,1000.03"/>
<polyline class="Stem" fill="none" stroke="#000000" stroke-width="2.75" stroke-linejoin="bevel" points="1060.67,903.541 1060.67,987.526"/>
<polyline class="Stem" fill="none" stroke="#000000" stroke-width="2.75" stroke-linejoin="bevel" points="1205.81,903.541 1205.81,987.526"/>
<polyline class="Stem" fill="none" stroke="#000000" stroke-width="2.75" stroke-linejoin="bevel" points="1350.94,878.539 1350.94,962.524"/>
<polyline class="Stem" fill="none" stroke="#000000" stroke-width="2.75" stroke-linejoin="bevel" points="1496.08,866.038 1496.08,962.524"/>
<polyline class="Stem" fill="none" stroke="#000000" stroke-width="2.75" stroke-linejoin="bevel" points="1702.77,878.539 1702.77,962.524"/>
<polyline class="Stem" fill="none" stroke="#000000" stroke-width="2.75" stroke-linejoin="bevel" points="1836.63,903.541 1836.63,987.526"/>
<polyline class="Stem" fill="none" stroke="#000000" stroke-width="2.75" stroke-linejoin="bevel" points="1970.49,903.541 1970.49,987.526"/>
<polyline class="Stem" fill="none" stroke="#000000" stroke-width="2.75" stroke-linejoin="bevel" points="2104.35,916.042 2104.35,1000.03"/>
<polyline class="Stem" fill="none" stroke="#000000" stroke-width="2.75" stroke-linejoin="bevel" points="2291.01,928.542 2291.01,1012.53"/>
<polyline class="Stem" fill="none" stroke="#000000" stroke-width="2.75" stroke-linejoin="bevel" points="2414.07,941.043 2414.07,1021.9"/>
<polyline class="Stem" fill="none" stroke="#000000" stroke-width="2.75" stroke-linejoin="bevel" points="2537.12,953.464 2537.12,1031.28"/>
<polyline class="Stem" fill="none" stroke="#000000" stroke-width="2.75" stroke-linejoin="bevel" points="512.67,746.651 512.67,662.506"/>
<polyline class="Stem" fill="none" stroke="#000000" stroke-width="2.75" stroke-linejoin="bevel" points="643.905,734.15 643.905,650.005"/>
<polyline class="Stem" fill="none" stroke="#000000" stroke-width="2.75" stroke-linejoin="bevel" points="775.14,721.649 775.14,640.629"/>
<polyline class="Stem" fill="none" stroke="#000000" stroke-width="2.75" stroke-linejoin="bevel" points="906.375,709.148 906.375,631.254"/>
<polyline class="Stem" fill="none" stroke="#000000" stroke-width="2.75" stroke-linejoin="bevel" points="1060.67,703.528 1060.67,778.138"/>
<polyline class="Stem" fill="none" stroke="#000000" stroke-width="2.75" stroke-linejoin="bevel" points="1205.81,703.528 1205.81,778.138"/>
<polyline class="Stem" fill="none" stroke="#000000" stroke-width="2.75" stroke-linejoin="bevel" points="1350.94,678.527 1350.94,759.387"/>
<polyline class="Stem" fill="none" stroke="#000000" stroke-width="2.75" stroke-linejoin="bevel" points="1496.08,666.026 1496.08,750.011"/>
<polyline class="Stem" fill="none" stroke="#000000" stroke-width="2.75" stroke-linejoin="bevel" points="1702.77,678.527 1702.77,759.387"/>
<polyline class="Stem" fill="none" stroke="#000000" stroke-width="2.75" stroke-linejoin="bevel" points="1836.63,703.528 1836.63,778.138"/>
<polyline class="Stem" fill="none" stroke="#000000" stroke-width="2.75" stroke-linejoin="bevel" points="1970.49,703.528 1970.49,778.138"/>
<polyline class="Stem" fill="none" stroke="#000000" stroke-width="2.75" stroke-linejoin="bevel" points="2134.1,709.148 2134.1,631.254"/>
<polyline class="Stem" fill="none" stroke="#000000" stroke-width="2.75" stroke-linejoin="bevel" points="2320.76,721.649 2320.76,640.629"/>
<polyline class="Stem" fill="none" stroke="#000000" stroke-width="2.75" stroke-linejoin="bevel" points="2443.81,734.15 2443.81,650.005"/>
<polyline class="Stem" fill="none" stroke="#000000" stroke-width="2.75" stroke-linejoin="bevel" points="2566.86,746.571 2566.86,662.506"/>
<path class="Note" d="M513.051,941.824 C511.551,939.124 508.651,937.424 504.751,937.024 C504.151,936.924 503.651,936.924 503.051,936.924 C499.551,936.924 495.751,937.924 492.251,939.824 C485.651,943.424 481.551,949.324 481.551,954.424 C481.551,955.824 481.751,957.124 482.451,958.324 C483.951,961.024 486.951,962.724 490.851,963.124 C491.451,963.224 491.951,963.224 492.551,963.224 C496.051,963.224 499.751,962.224 503.251,960.324 C509.851,956.724 514.051,950.924 514.051,945.824 C514.051,944.424 513.751,943.024 513.051,941.824"/>
<path class="Note" d="M644.286,929.323 C642.786,926.623 639.886,924.923 635.986,924.523 C635.386,924.423 634.886,924.423 634.286,924.423 C630.786,924.423 626.986,925.423 623.486,927.323 C616.886,930.923 612.786,936.823 612.786,941.923 C612.786,943.323 612.986,944.623 613.686,945.823 C615.186,948.523 618.186,950.223 622.086,950.623 C622.686,950.723 623.186,950.723 623.786,950.723 C627.286,950.723 630.986,949.723 634.486,947.823 C641.086,944.223 645.286,938.423 645.286,933.323 C645.286,931.923 644.986,930.523 644.286,929.323"/>
<path class="Note" d="M775.521,916.822 C774.021,914.122 771.121,912.422 767.221,912.022 C766.621,911.922 766.121,911.922 765.521,911.922 C762.021,911.922 758.221,912.922 754.721,914.822 C748.121,918.422 744.021,924.322 744.021,929.422 C744.021,930.822 744.221,932.122 744.921,933.322 C746.421,936.022 749.421,937.722 753.321,938.122 C753.921,938.222 754.421,938.222 755.021,938.222 C758.521,938.222 762.221,937.222 765.721,935.322 C772.321,931.722 776.521,925.922 776.521,920.822 C776.521,919.422 776.221,918.022 775.521,916.822"/>
<path class="Note" d="M906.756,904.321 C905.256,901.621 902.356,899.921 898.456,899.521 C897.856,899.421 897.356,899.421 896.756,899.421 C893.256,899.421 889.456,900.421 885.956,902.321 C879.356,905.921 875.256,911.821 875.256,916.921 C875.256,918.321 875.456,919.621 876.156,920.821 C877.656,923.521 880.656,925.221 884.556,925.621 C885.156,925.721 885.656,925.721 886.256,925.721 C889.756,925.721 893.456,924.721 896.956,922.821 C903.556,919.221 907.756,913.421 907.756,908.321 C907.756,906.921 907.456,905.521 906.756,904.321"/>
<path class="Note" d="M1090.79,891.82 C1089.29,889.12 1086.39,887.42 1082.49,887.02 C1081.89,886.92 1081.39,886.92 1080.79,886.92 C1077.29,886.92 1073.49,887.92 1069.99,889.82 C1063.39,893.42 1059.29,899.32 1059.29,904.42 C1059.29,905.82 1059.49,907.12 1060.19,908.32 C1061.69,911.02 1064.69,912.72 1068.59,913.12 C1069.19,913.22 1069.69,913.22 1070.29,913.22 C1073.79,913.22 1077.49,912.22 1080.99,910.32 C1087.59,906.72 1091.79,900.92 1091.79,895.82 C1091.79,894.42 1091.49,893.02 1090.79,891.82"/>
<path class="Note" d="M1235.93,891.82 C1234.43,889.12 1231.53,887.42 1227.63,887.02 C1227.03,886.92 1226.53,886.92 1225.93,886.92 C1222.43,886.92 1218.63,887.92 1215.13,889.82 C1208.53,893.42 1204.43,899.32 1204.43,904.42 C1204.43,905.82 1204.63,907.12 1205.33,908.32 C1206.83,911.02 1209.83,912.72 1213.73,913.12 C1214.33,913.22 1214.83,913.22 1215.43,913.22 C1218.93,913.22 1222.63,912.22 1226.13,910.32 C1232.73,906.72 1236.93,900.92 1236.93,895.82 C1236.93,894.42 1236.63,893.02 1235.93,891.82"/>
<path class="Note" d="M1381.07,866.819 C1379.57,864.119 1376.67,862.419 1372.77,862.019 C1372.17,861.919 1371.67,861.919 1371.07,861.919 C1367.57,861.919 1363.77,862.919 1360.27,864.819 C1353.67,868.419 1349.57,874.319 1349.57,879.419 C1349.57,880.819 1349.77,882.119 1350.47,883.319 C1351.97,886.019 1354.97,887.719 1358.87,888.119 C1359.47,888.219 1359.97,888.219 1360.57,888.219 C1364.07,888.219 1367.77,887.219 1371.27,885.319 C1377.87,881.719 1382.07,875.919 1382.07,870.819 C1382.07,869.419 1381.77,868.019 1381.07,866.819"/>
<path class="Note" d="M1526.21,854.318 C1524.71,851.618 1521.81,849.918 1517.91,849.518 C1517.31,849.418 1516.81,849.418 1516.21,849.418 C1512.71,849.418 1508.91,850.418 1505.41,852.318 C1498.81,855.918 1494.71,861.818 1494.71,866.918 C1494.71,868.318 1494.91,869.618 1495.61,870.818 C1497.11,873.518 1500.11,875.218 1504.01,875.618 C1504.61,875.718 1505.11,875.718 1505.71,875.718 C1509.21,875.718 1512.91,874.718 1516.41,872.818 C1523.01,869.218 1527.21,863.418 1527.21,858.318 C1527.21,856.918 1526.91,855.518 1526.21,854.318"/>
<path class="Note" d="M1732.9,866.819 C1731.4,864.119 1728.5,862.419 1724.6,862.019 C1724,861.919 1723.5,861.919 1722.9,861.919 C1719.4,861.919 1715.6,862.919 1712.1,864.819 C1705.5,868.419 1701.4,874.319 1701.4,879.419 C1701.4,880.819 1701.6,882.119 1702.3,883.319 C1703.8,886.019 1706.8,887.719 1710.7,888.119 C1711.3,888.219 1711.8,888.219 1712.4,888.219 C1715.9,888.219 1719.6,887.219 1723.1,885.319 C1729.7,881.719 1733.9,875.919 1733.9,870.819 C1733.9,869.419 1733.6,868.019 1732.9,866.819"/>
<path class="Note" d="M1866.76,891.82 C1865.26,889.12 1862.36,887.42 1858.46,887.02 C1857.86,886.92 1857.36,886.92 1856.76,886.92 C1853.26,886.92 1849.46,887.92 1845.96,889.82 C1839.36,893.42 1835.26,899.32 1835.26,904.42 C1835.26,905.82 1835.46,907.12 1836.16,908.32 C1837.66,911.02 1840.66,912.72 1844.56,913.12 C1845.16,913.22 1845.66,913.22 1846.26,913.22 C1849.76,913.22 1853.46,912.22 1856.96,910.32 C1863.56,906.72 1867.76,900.92 1867.76,895.82 C1867.76,894.42 1867.46,893.02 1866.76,891.82"/>
<path class="Note" d="M2000.62,891.82 C1999.12,889.12 1996.22,887.42 1992.32,887.02 C1991.72,886.92 1991.22,886.92 1990.62,886.92 C1987.12,886.92 1983.32,887.92 1979.82,889.82 C1973.22,893.42 1969.12,899.32 1969.12,904.42 C1969.12,905.82 1969.32,907.12 1970.02,908.32 C1971.52,911.02 1974.52,912.72 1978.42,913.12 C1979.02,913.22 1979.52,913.22 1980.12,913.22 C1983.62,913.22 1987.32,912.22 1990.82,910.32 C1997.42,906.72 2001.62,900.92 2001.62,895.82 C2001.62,894.42 2001.32,893.02 2000.62,891.82"/>
<path class="Note" d="M2134.48,904.321 C2132.98,901.621 2130.08,899.921 2126.18,899.521 C2125.58,899.421 2125.08,899.421 2124.48,899.421 C2120.98,899.421 2117.18,900.421 2113.68,902.321 C2107.08,905.921 2102.98,911.821 2102.98,916.921 C2102.98,918.321 2103.18,919.621 2103.88,920.821 C2105.38,923.521 2108.38,925.221 2112.28,925.621 C2112.88,925.721 2113.38,925.721 2113.98,925.721 C2117.48,925.721 2121.18,924.721 2124.68,922.821 C2131.28,919.221 2135.48,913.421 2135.48,908.321 C2135.48,906.921 2135.18,905.521 2134.48,904.321"/>
<path class="Note" d="M2321.14,916.822 C2319.64,914.122 2316.74,912.422 2312.84,912.022 C2312.24,911.922 2311.74,911.922 2311.14,911.922 C2307.64,911.922 2303.84,912.922 2300.34,914.822 C2293.74,918.422 2289.64,924.322 2289.64,929.422 C2289.64,930.822 2289.84,932.122 2290.54,933.322 C2292.04,936.022 2295.04,937.722 2298.94,938.122 C2299.54,938.222 2300.04,938.222 2300.64,938.222 C2304.14,938.222 2307.84,937.222 2311.34,935.322 C2317.94,931.722 2322.14,925.922 2322.14,920.822 C2322.14,919.422 2321.84,918.022 2321.14,916.822"/>
<path class="Note" d="M2444.19,929.323 C2442.69,926.623 2439.79,924.923 2435.89,924.523 C2435.29,924.423 2434.79,924.423 2434.19,924.423 C2430.69,924.423 2426.89,925.423 2423.39,927.323 C2416.79,930.923 2412.69,936.823 2412.69,941.923 C2412.69,943.323 2412.89,944.623 2413.59,945.823 C2415.09,948.523 2418.09,950.223 2421.99,950.623 C2422.59,950.723 2423.09,950.723 2423.69,950.723 C2427.19,950.723 2430.89,949.723 2434.39,947.823 C2440.99,944.223 2445.19,938.423 2445.19,933.323 C2445.19,931.923 2444.89,930.523 2444.19,929.323"/>
<path class="Note" d="M2567.24,941.824 C2565.74,939.124 2562.84,937.424 2558.94,937.024 C2558.34,936.924 2557.84,936.924 2557.24,936.924 C2553.74,936.924 2549.94,937.924 2546.44,939.824 C2539.84,943.424 2535.74,949.224 2535.74,954.324 C2535.74,955.724 2536.14,957.124 2536.84,958.324 C2538.34,961.124 2541.14,962.724 2545.04,963.124 C2545.64,963.224 2546.14,963.224 2546.74,963.224 C2550.24,963.224 2554.04,962.224 2557.54,960.324 C2564.14,956.724 2568.24,950.824 2568.24,945.724 C2568.24,944.324 2567.94,943.024 2567.24,941.824 M2563.04,948.124 C2561.34,949.924 2558.14,952.224 2554.54,954.324 C2550.94,956.424 2547.24,958.124 2544.94,958.824 C2544.44,958.924 2543.84,959.024 2543.34,959.024 C2541.84,959.024 2540.54,958.324 2539.84,957.224 C2539.54,956.624 2539.34,956.024 2539.34,955.424 C2539.34,954.324 2539.84,953.224 2540.94,952.024 C2542.64,950.224 2545.84,947.824 2549.44,945.724 C2553.04,943.624 2556.74,941.924 2559.14,941.324 L2559.34,941.324 C2559.94,941.124 2560.44,941.024 2560.94,941.024 C2562.34,941.024 2563.44,941.624 2564.14,942.924 C2564.44,943.524 2564.64,944.024 2564.64,944.624 C2564.64,945.924 2563.94,947.224 2563.04,948.124"/>
<path class="Note" d="M513.051,741.811 C511.551,739.111 508.651,737.411 504.751,737.011 C504.151,736.911 503.651,736.911 503.051,736.911 C499.551,736.911 495.751,737.911 492.251,739.811 C485.651,743.411 481.551,749.311 481.551,754.411 C481.551,755.811 481.751,757.111 482.451,758.311 C483.951,761.011 486.951,762.711 490.851,763.111 C491.451,763.211 491.951,763.211 492.551,763.211 C496.051,763.211 499.751,762.211 503.251,760.311 C509.851,756.711 514.051,750.911 514.051,745.811 C514.051,744.411 513.751,743.011 513.051,741.811"/>
<path class="Note" d="M644.286,729.31 C642.786,726.61 639.886,724.91 635.986,724.51 C635.386,724.41 634.886,724.41 634.286,724.41 C630.786,724.41 626.986,725.41 623.486,727.31 C616.886,730.91 612.786,736.81 612.786,741.91 C612.786,743.31 612.986,744.61 613.686,745.81 C615.186,748.51 618.186,750.21 622.086,750.61 C622.686,750.71 623.186,750.71 623.786,750.71 C627.286,750.71 630.986,749.71 634.486,747.81 C641.086,744.21 645.286,738.41 645.286,733.31 C645.286,731.91 644.986,730.51 644.286,729.31"/>
<path class="Note" d="M775.521,716.809 C774.021,714.109 771.121,712.409 767.221,712.009 C766.621,711.909 766.121,711.909 765.521,711.909 C762.021,711.909 758.221,712.909 754.721,714.809 C748.121,718.409 744.021,724.309 744.021,729.409 C744.021,730.809 744.221,732.109 744.921,733.309 C746.421,736.009 749.421,737.709 753.321,738.109 C753.921,738.209 754.421,738.209 755.021,738.209 C758.521,738.209 762.221,737.209 765.721,735.309 C772.321,731.709 776.521,725.909 776.521,720.809 C776.521,719.409 776.221,718.009 775.521,716.809"/>
<path class="Note" d="M906.756,704.309 C905.256,701.609 902.356,699.909 898.456,699.509 C897.856,699.409 897.356,699.409 896.756,699.409 C893.256,699.409 889.456,700.409 885.956,702.309 C879.356,705.909 875.256,711.809 875.256,716.909 C875.256,718.309 875.456,719.609 876.156,720.809 C877.656,723.509 880.656,725.209 884.556,725.609 C885.156,725.709 885.656,725.709 886.256,725.709 C889.756,725.709 893.456,724.709 896.956,722.809 C903.556,719.209 907.756,713.409 907.756,708.309 C907.756,706.909 907.456,705.509 906.756,704.309"/>
<path class="Note" d="M1090.79,691.808 C1089.29,689.108 1086.39,687.408 1082.49,687.008 C1081.89,686.908 1081.39,686.908 1080.79,686.908 C1077.29,686.908 1073.49,687.908 1069.99,689.808 C1063.39,693.408 1059.29,699.308 1059.29,704.408 C1059.29,705.808 1059.49,707.108 1060.19,708.308 C1061.69,711.008 1064.69,712.708 1068.59,713.108 C1069.19,713.208 1069.69,713.208 1070.29,713.208 C1073.79,713.208 1077.49,712.208 1080.99,710.308 C1087.59,706.708 1091.79,700.908 1091.79,695.808 C1091.79,694.408 1091.49,693.008 1090.79,691.808"/>
<path class="Note" d="M1235.93,691.808 C1234.43,689.108 1231.53,687.408 1227.63,687.008 C1227.03,686.908 1226.53,686.908 1225.93,686.908 C1222.43,686.908 1218.63,687.908 1215.13,689.808 C1208.53,693.408 1204.43,699.308 1204.43,704.408 C1204.43,705.808 1204.63,707.108 1205.33,708.308 C1206.83,711.008 1209.83,712.708 1213.73,713.108 C1214.33,713.208 1214.83,713.208 1215.43,713.208 C1218.93,713.208 1222.63,712.208 1226.13,710.308 C1232.73,706.708 1236.93,700.908 1236.93,695.808 C1236.93,694.408 1236.63,693.008 1235.93,691.808"/>
<path class="Note" d="M1381.07,666.806 C1379.57,664.106 1376.67,662.406 1372.77,662.006 C1372.17,661.906 1371.67,661.906 1371.07,661.906 C1367.57,661.906 1363.77,662.906 1360.27,664.806 C1353.67,668.406 1349.57,674.306 1349.57,679.406 C1349.57,680.806 1349.77,682.106 1350.47,683.306 C1351.97,686.006 1354.97,687.706 1358.87,688.106 C1359.47,688.206 1359.97,688.206 1360.57,688.206 C1364.07,688.206 1367.77,687.206 1371.27,685.306 C1377.87,681.706 1382.07,675.906 1382.07,670.806 C1382.07,669.406 1381.77,668.006 1381.07,666.806"/>
<path class="Note" d="M1526.21,654.306 C1524.71,651.606 1521.81,649.906 1517.91,649.506 C1517.31,649.406 1516.81,649.406 1516.21,649.406 C1512.71,649.406 1508.91,650.406 1505.41,652.306 C1498.81,655.906 1494.71,661.806 1494.71,666.906 C1494.71,668.306 1494.91,669.606 1495.61,670.806 C1497.11,673.506 1500.11,675.206 1504.01,675.606 C1504.61,675.706 1505.11,675.706 1505.71,675.706 C1509.21,675.706 1512.91,674.706 1516.41,672.806 C1523.01,669.206 1527.21,663.406 1527.21,658.306 C1527.21,656.906 1526.91,655.506 1526.21,654.306"/>
<path class="Note" d="M1732.9,666.806 C1731.4,664.106 1728.5,662.406 1724.6,662.006 C1724,661.906 1723.5,661.906 1722.9,661.906 C1719.4,661.906 1715.6,662.906 1712.1,664.806 C1705.5,668.406 1701.4,674.306 1701.4,679.406 C1701.4,680.806 1701.6,682.106 1702.3,683.306 C1703.8,686.006 1706.8,687.706 1710.7,688.106 C1711.3,688.206 1711.8,688.206 1712.4,688.206 C1715.9,688.206 1719.6,687.206 1723.1,685.306 C1729.7,681.706 1733.9,675.906 1733.9,670.806 C1733.9,669.406 1733.6,668.006 1732.9,666.806"/>
<path class="Note" d="M1866.76,691.808 C1865.26,689.108 1862.36,687.408 1858.46,687.008 C1857.86,686.908 1857.36,686.908 1856.76,686.908 C1853.26,686.908 1849.46,687.908 1845.96,689.808 C1839.36,693.408 1835.26,699.308 1835.26,704.408 C1835.26,705.808 1835.46,707.108 1836.16,708.308 C1837.66,711.008 1840.66,712.708 1844.56,713.108 C1845.16,713.208 1845.66,713.208 1846.26,713.208 C1849.76,713.208 1853.46,712.208 1856.96,710.308 C1863.56,706.708 1867.76,700.908 1867.76,695.808 C1867.76,694.408 1867.46,693.008 1866.76,691.808"/>
<path class="Note" d="M2000.62,691.808 C1999.12,689.108 1996.22,687.408 1992.32,687.008 C1991.72,686.908 1991.22,686.908 1990.62,686.908 C1987.12,686.908 1983.32,687.908 1979.82,689.808 C1973.22,693.408 1969.12,699.308 1969.12,704.408 C1969.12,705.808 1969.32,707.108 1970.02,708.308 C1971.52,711.008 1974.52,712.708 1978.42,713.108 C1979.02,713.208 1979.52,713.208 1980.12,713.208 C1983.62,713.208 1987.32,712.208 1990.82,710.308 C1997.42,706.708 2001.62,700.908 2001.62,695.808 C2001.62,694.408 2001.32,693.008 2000.62,691.808"/>
<path class="Note" d="M2134.48,704.309 C2132.98,701.609 2130.08,699.909 2126.18,699.509 C2125.58,699.409 2125.08,699.409 2124.48,699.409 C2120.98,699.409 2117.18,700.409 2113.68,702.309 C2107.08,705.909 2102.98,711.809 2102.98,716.909 C2102.98,718.309 2103.18,719.609 2103.88,720.809 C2105.38,723.509 2108.38,725.209 2112.28,725.609 C2112.88,725.709 2113.38,725.709 2113.98,725.709 C2117.48,725.709 2121.18,724.709 2124.68,722.809 C2131.28,719.209 2135.48,713.409 2135.48,708.309 C2135.48,706.909 2135.18,705.509 2134.48,704.309"/>
<path class="Note" d="M2321.14,716.809 C2319.64,714.109 2316.74,712.409 2312.84,712.009 C2312.24,711.909 2311.74,711.909 2311.14,711.909 C2307.64,711.909 2303.84,712.909 2300.34,714.809 C2293.74,718.409 2289.64,724.309 2289.64,729.409 C2289.64,730.809 2289.84,732.109 2290.54,733.309 C2292.04,736.009 2295.04,737.709 2298.94,738.109 C2299.54,738.209 2300.04,738.209 2300.64,738.209 C2304.14,738.209 2307.84,737.209 2311.34,735.309 C2317.94,731.709 2322.14,725.909 2322.14,720.809 C2322.14,719.409 2321.84,718.009 2321.14,716.809"/>
<path class="Note" d="M2444.19,729.31 C2442.69,726.61 2439.79,724.91 2435.89,724.51 C2435.29,724.41 2434.79,724.41 2434.19,724.41 C2430.69,724.41 2426.89,725.41 2423.39,727.31 C2416.79,730.91 2412.69,736.81 2412.69,741.91 C2412.69,743.31 2412.89,744.61 2413.59,745.81 C2415.09,748.51 2418.09,750.21 2421.99,750.61 C2422.59,750.71 2423.09,750.71 2423.69,750.71 C2427.19,750.71 2430.89,749.71 2434.39,747.81 C2440.99,744.21 2445.19,738.41 2445.19,733.31 C2445.19,731.91 2444.89,730.51 2444.19,729.31"/>
<path class="Note" d="M2567.24,741.811 C2565.74,739.111 2562.84,737.411 2558.94,737.011 C2558.34,736.911 2557.84,736.911 2557.24,736.911 C2553.74,736.911 2549.94,737.911 2546.44,739.811 C2539.84,743.411 2535.74,749.211 2535.74,754.311 C2535.74,755.711 2536.14,757.111 2536.84,758.311 C2538.34,761.111 2541.14,762.711 2545.04,763.111 C2545.64,763.211 2546.14,763.211 2546.74,763.211 C2550.24,763.211 2554.04,762.211 2557.54,760.311 C2564.14,756.711 2568.24,750.811 2568.24,745.711 C2568.24,744.311 2567.94,743.011 2567.24,741.811 M2563.04,748.111 C2561.34,749.911 2558.14,752.211 2554.54,754.311 C2550.94,756.411 2547.24,758.111 2544.94,758.811 C2544.44,758.911 2543.84,759.011 2543.34,759.011 C2541.84,759.011 2540.54,758.311 2539.84,757.211 C2539.54,756.611 2539.34,756.011 2539.34,755.411 C2539.34,754.311 2539.84,753.211 2540.94,752.011 C2542.64,750.211 2545.84,747.811 2549.44,745.711 C2553.04,743.611 2556.74,741.911 2559.14,741.311 L2559.34,741.311 C2559.94,741.111 2560.44,741.011 2560.94,741.011 C2562.34,741.011 2563.44,741.611 2564.14,742.911 C2564.44,743.511 2564.64,744.011 2564.64,744.611 C2564.64,745.911 2563.94,747.211 2563.04,748.111"/>
<path class="Clef" d="M297,912.423 C289.4,912.423 283.3,916.823 283.2,916.823 C277.4,921.123 275.1,926.223 274.2,929.723 C273.7,931.523 273.5,933.323 273.5,935.023 C273.5,937.423 273.9,939.623 274.8,941.523 C276,944.223 278.3,946.123 281.3,947.123 C282.5,947.523 283.8,947.723 285.1,947.723 C287.3,947.723 289.6,947.123 291.5,946.023 C294.6,944.323 296.5,940.723 296.5,936.823 C296.5,933.323 294.7,930.123 291.7,928.223 C289.6,926.823 287.6,926.423 285.9,926.423 C284.7,926.423 283.6,926.623 282.7,926.923 C281.7,927.323 280,928.323 279.2,929.023 C279.5,927.123 280.7,924.223 281.8,922.623 C282.9,921.023 285.1,919.023 286.8,918.123 C289.3,916.723 292.5,916.123 296,916.123 C306.2,916.123 311.2,924.323 311.2,941.123 C311.2,950.423 307.7,959.323 304.7,965.223 C301.4,971.823 297,978.123 293.1,981.623 C282.7,991.123 272.9,995.623 272.8,995.623 C272.8,995.623 271.3,996.523 271.7,998.023 C272,999.023 272.9,999.223 273.5,999.223 C273.6,999.223 273.9,999.123 274,999.123 C274.1,999.123 285.5,994.423 294.6,987.323 C299.7,983.623 304.3,979.623 308.3,975.323 C311.9,971.423 315,967.223 317.5,963.023 C321.9,955.523 324.4,947.723 324.4,941.023 C324.4,932.723 322.2,925.823 318.1,920.923 C313.4,915.323 306.3,912.423 297,912.423 M328.4,925.123 C328.4,927.923 330.6,930.123 333.2,930.123 C335.8,930.123 338,927.923 338,925.123 C338,922.323 335.8,920.023 333.2,920.023 C330.6,920.023 328.4,922.323 328.4,925.123 M328.4,949.823 C328.4,952.623 330.6,954.923 333.2,954.923 C335.8,954.923 338,952.623 338,949.823 C338,947.023 335.8,944.723 333.2,944.723 C330.6,944.723 328.4,947.023 328.4,949.823"/>
<path class="Clef" d="M335,719.109 C333.8,713.709 331.1,709.809 330.3,708.809 C327.1,704.509 323.1,701.709 318.4,700.309 C316.1,699.609 314,699.409 312,699.409 C311.3,699.409 310.6,699.409 309.9,699.509 C308.9,693.509 307.8,687.609 306.9,682.209 C312.5,676.009 316.2,670.109 318.6,665.709 C322.2,659.009 323.6,654.309 323.7,654.109 C324.9,651.109 325.6,647.309 325.6,642.809 C325.6,640.109 325.3,637.209 324.9,634.209 C323.8,627.109 321.6,620.409 319.1,616.709 C317.8,614.809 316.6,613.709 315.4,613.709 C314.2,613.709 311.7,614.909 308.8,617.709 C306.5,619.909 303.2,623.809 300.6,629.809 C298.3,635.209 297.6,642.109 297.6,648.009 C297.6,649.809 297.7,651.509 297.8,653.109 C298,656.709 298.7,662.509 299.3,666.109 C299.3,666.209 299.6,667.709 300,670.309 L299.3,671.009 C298.3,672.009 297.1,673.109 295.7,674.509 C294.8,675.409 293.9,676.209 292.9,677.209 C284.4,685.409 271.6,697.809 271.6,716.909 C271.6,721.609 272.5,726.009 274.3,730.009 C275.9,733.609 278.2,736.909 281.1,739.809 C288.6,747.209 298.8,750.409 305.9,750.409 L306.5,750.409 C309.4,750.309 312.1,750.009 314.5,749.609 C316.3,759.209 317.5,766.309 317.5,771.609 C317.5,778.109 315.9,782.009 312,784.809 C309.6,786.509 306.7,787.609 303.6,787.709 L302.8,787.709 C301.3,787.709 298.8,787.309 297.3,786.909 C297.3,786.909 297,786.809 297,786.609 C297,786.409 297.4,786.409 297.4,786.409 C299.3,786.009 302.9,784.709 305.3,781.409 C306.4,779.909 307.1,777.609 307.1,775.109 C307.1,773.509 306.8,771.809 306.1,770.309 C305,767.909 302.4,764.909 296.8,764.509 L295.7,764.509 C293.6,764.509 291.8,765.009 290.1,766.009 C288.3,767.109 286.7,768.809 285.7,770.809 C284.6,772.809 284.1,775.009 284.1,777.209 C284.1,780.109 285,782.809 286.8,785.009 C289.8,788.609 294.5,790.909 299.9,791.509 C300.6,791.609 301.7,791.709 302.4,791.709 C306.8,791.709 311.2,790.509 314.8,788.309 C318.5,785.709 320.6,781.709 321.3,776.109 C321.5,774.809 321.5,773.409 321.5,771.909 C321.5,768.009 321,763.309 320,757.509 C319.6,755.409 319.2,752.409 318.5,748.609 C324.3,746.709 328.4,743.009 332.2,737.209 C334.5,733.209 335.6,729.109 335.6,724.809 C335.6,722.909 335.4,721.009 335,719.109 M304.8,641.209 C306.6,635.509 309.3,632.109 311.3,630.409 C313.1,628.909 314.7,628.209 315.6,628.209 C315.7,628.209 315.9,628.309 316,628.309 C316.3,628.409 316.7,628.909 317.1,629.609 C318,631.409 318.9,634.709 318.9,638.409 C318.9,640.309 318.7,642.309 318.1,644.109 C315.9,650.909 311.3,658.209 304.3,665.909 C304.1,664.809 303.9,663.809 303.8,662.809 C303.3,659.609 303,656.409 303,653.509 C303,649.009 303.6,644.909 304.8,641.209 M300.8,745.309 C296.2,744.109 291.7,741.609 287.9,738.109 C286.6,736.909 284.8,734.709 283.3,731.309 C282,728.309 281.3,725.209 281.3,721.809 L281.3,721.109 C281.4,716.409 282.7,711.609 285.2,706.809 C288.1,701.209 292.6,695.709 298.7,690.409 C300.2,689.109 301.6,687.809 302.9,686.509 C303.7,690.809 304.4,695.509 305.3,700.409 C301.4,701.709 296.7,704.709 293.6,710.409 C291.2,714.909 290.5,718.809 290.5,722.009 C290.5,723.509 290.7,724.909 290.9,726.009 C291.8,730.509 294.4,734.209 297.9,736.309 C298.7,736.809 302,738.509 304,738.509 C304.3,738.509 304.6,738.509 304.8,738.409 C305.1,738.309 305.4,738.109 305.5,737.809 C305.6,737.609 305.6,737.409 305.6,737.209 C305.6,736.409 304.8,735.809 303.5,735.009 C302.9,734.609 302.2,734.209 301.5,733.709 C298.9,731.709 297.4,728.609 297.4,725.209 C297.4,724.209 297.6,723.309 297.8,722.309 C298.3,720.309 300,717.509 301.5,716.109 C303.2,714.609 305.2,713.409 307.6,712.809 C309.6,724.009 311.7,735.109 313.3,743.509 C313.4,744.209 313.6,744.909 313.7,745.609 C311.7,746.009 309.7,746.209 307.8,746.209 C305.4,746.209 303.1,745.909 300.8,745.309 M326.5,735.109 C325.3,738.309 322.8,742.309 317.7,744.409 C317.6,744.009 317.6,743.509 317.5,743.109 C316,734.309 314.1,723.409 312.1,712.109 L313.1,712.109 C322.8,712.109 326.7,719.309 327.6,723.909 C327.8,724.809 327.9,726.009 327.9,727.309 C327.9,729.609 327.5,732.409 326.5,735.109"/>
<path class="TimeSig" d="M365.2,950.922 L382,950.922 L382,958.222 L373.9,958.222 C373.1,958.222 372.5,958.822 372.5,959.622 L372.5,961.522 C372.5,962.322 373.1,962.822 373.9,962.822 L403.6,962.822 C404.4,962.822 405,962.322 405,961.522 L405,959.622 C405,958.822 404.4,958.222 403.6,958.222 L394.8,958.222 L394.8,950.922 L403.6,950.922 C404.4,950.922 405,950.322 405,949.522 L405,947.722 C405,946.922 404.4,946.322 403.6,946.322 L394.8,946.322 L394.8,930.622 C394.8,930.122 394.4,929.622 394,929.422 L392.9,928.822 C392.7,928.722 392.4,928.722 392.2,928.722 C391.9,928.722 391.5,928.822 391.3,929.022 L382.4,937.222 C382.2,937.422 382,937.922 382,938.222 L382,946.322 L370.7,946.322 C370.7,946.322 381.6,934.522 393.2,919.022 C394,917.922 393.6,916.922 393.4,916.722 L391.3,914.522 C391.1,914.322 390.6,914.122 390.3,914.122 L375.7,914.122 C375,914.122 374.5,914.722 374.4,915.322 C374.4,915.322 373.9,922.522 371.3,930.522 C368.7,938.522 365.9,943.322 363.3,946.922 C363.3,946.922 362.8,947.922 363.1,948.622 C363.4,949.322 364.1,950.422 364.1,950.422 C364.1,950.422 364.4,950.922 365.2,950.922"/>
<path class="TimeSig" d="M365.2,999.527 L382,999.527 L382,1006.83 L373.9,1006.83 C373.1,1006.83 372.5,1007.43 372.5,1008.23 L372.5,1010.13 C372.5,1010.93 373.1,1011.43 373.9,1011.43 L403.6,1011.43 C404.4,1011.43 405,1010.93 405,1010.13 L405,1008.23 C405,1007.43 404.4,1006.83 403.6,1006.83 L394.8,1006.83 L394.8,999.527 L403.6,999.527 C404.4,999.527 405,998.927 405,998.127 L405,996.327 C405,995.527 404.4,994.927 403.6,994.927 L394.8,994.927 L394.8,979.227 C394.8,978.727 394.4,978.227 394,978.027 L392.9,977.427 C392.7,977.327 392.4,977.327 392.2,977.327 C391.9,977.327 391.5,977.427 391.3,977.627 L382.4,985.827 C382.2,986.027 382,986.527 382,986.827 L382,994.927 L370.7,994.927 C370.7,994.927 381.6,983.127 393.2,967.627 C394,966.527 393.6,965.527 393.4,965.327 L391.3,963.127 C391.1,962.927 390.6,962.727 390.3,962.727 L375.7,962.727 C375,962.727 374.5,963.327 374.4,963.927 C374.4,963.927 373.9,971.127 371.3,979.127 C368.7,987.127 365.9,991.927 363.3,995.527 C363.3,995.527 362.8,996.527 363.1,997.227 C363.4,997.927 364.1,999.027 364.1,999.027 C364.1,999.027 364.4,999.527 365.2,999.527"/>
<path class="TimeSig" d="M365.2,688.406 L382,688.406 L382,695.706 L373.9,695.706 C373.1,695.706 372.5,696.306 372.5,697.106 L372.5,699.006 C372.5,699.806 373.1,700.306 373.9,700.306 L403.6,700.306 C404.4,700.306 405,699.806 405,699.006 L405,697.106 C405,696.306 404.4,695.706 403.6,695.706 L394.8,695.706 L394.8,688.406 L403.6,688.406 C404.4,688.406 405,687.806 405,687.006 L405,685.206 C405,684.406 404.4,683.806 403.6,683.806 L394.8,683.806 L394.8,668.106 C394.8,667.606 394.4,667.106 394,666.906 L392.9,666.306 C392.7,666.206 392.4,666.206 392.2,666.206 C391.9,666.206 391.5,666.306 391.3,666.506 L382.4,674.706 C382.2,674.906 382,675.406 382,675.706 L382,683.806 L370.7,683.806 C370.7,683.806 381.6,672.006 393.2,656.506 C394,655.406 393.6,654.406 393.4,654.206 L391.3,652.006 C391.1,651.806 390.6,651.606 390.3,651.606 L375.7,651.606 C375,651.606 374.5,652.206 374.4,652.806 C374.4,652.806 373.9,660.006 371.3,668.006 C368.7,676.006 365.9,680.806 363.3,684.406 C363.3,684.406 362.8,685.406 363.1,686.106 C363.4,686.806 364.1,687.906 364.1,687.906 C364.1,687.906 364.4,688.406 365.2,688.406"/>
<path class="TimeSig" d="M365.2,737.01 L382,737.01 L382,744.31 L373.9,744.31 C373.1,744.31 372.5,744.91 372.5,745.71 L372.5,747.61 C372.5,748.41 373.1,748.91 373.9,748.91 L403.6,748.91 C404.4,748.91 405,748.41 405,747.61 L405,745.71 C405,744.91 404.4,744.31 403.6,744.31 L394.8,744.31 L394.8,737.01 L403.6,737.01 C404.4,737.01 405,736.41 405,735.61 L405,733.81 C405,733.01 404.4,732.41 403.6,732.41 L394.8,732.41 L394.8,716.71 C394.8,716.21 394.4,715.71 394,715.51 L392.9,714.91 C392.7,714.81 392.4,714.81 392.2,714.81 C391.9,714.81 391.5,714.91 391.3,715.11 L382.4,723.31 C382.2,723.51 382,724.01 382,724.31 L382,732.41 L370.7,732.41 C370.7,732.41 381.6,720.61 393.2,705.11 C394,704.01 393.6,703.01 393.4,702.81 L391.3,700.61 C391.1,700.41 390.6,700.21 390.3,700.21 L375.7,700.21 C375,700.21 374.5,700.81 374.4,701.41 C374.4,701.41 373.9,708.61 371.3,716.61 C368.7,724.61 365.9,729.41 363.3,733.01 C363.3,733.01 362.8,734.01 363.1,734.71 C363.4,735.41 364.1,736.51 364.1,736.51 C364.1,736.51 364.4,737.01 365.2,737.01"/>
<path class="Page" d="M233.756,4056.33 L231.776,4056.33 L231.326,4058.63 C230.741,4061.55 230.381,4061.82 227.591,4061.82 L217.511,4061.82 C220.616,4058.58 221.651,4057.64 224.531,4055.39 C228.626,4052.24 230.381,4050.66 231.416,4049.31 C232.856,4047.33 233.576,4045.35 233.576,4043.15 C233.576,4038.02 229.346,4034.37 223.451,4034.37 C217.736,4034.37 213.371,4038.02 213.371,4042.83 C213.371,4045.67 214.811,4047.6 216.926,4047.6 C218.591,4047.6 219.716,4046.48 219.716,4044.86 C219.716,4043.73 219.086,4042.7 218.141,4042.29 C216.476,4041.62 216.386,4041.53 216.386,4040.94 C216.386,4040.27 216.836,4039.23 217.466,4038.47 C218.591,4037.07 220.436,4036.31 222.551,4036.31 C226.286,4036.31 228.491,4038.6 228.491,4042.38 C228.491,4045.71 226.916,4048.73 223.181,4052.69 C219.851,4056.2 217.781,4058.4 217.016,4059.26 C215.396,4061.15 214.586,4062.18 212.606,4064.79 L212.606,4066.05 L232.901,4066.05 L233.756,4056.33 M251.617,4049.49 C255.712,4048.01 257.602,4045.71 257.602,4042.11 C257.602,4037.39 254.002,4034.37 248.422,4034.37 C243.157,4034.37 239.152,4037.48 239.152,4041.57 C239.152,4043.42 240.367,4044.72 242.122,4044.72 C243.697,4044.72 244.777,4043.64 244.777,4042.02 C244.777,4041.03 244.417,4040.45 243.382,4039.73 C242.932,4039.41 242.797,4039.23 242.797,4038.92 C242.797,4037.66 245.407,4036.31 247.972,4036.31 C251.212,4036.31 252.922,4038.33 252.922,4042.16 C252.922,4046.34 251.212,4048.55 248.017,4048.55 C247.612,4048.55 246.847,4048.5 246.172,4048.46 C245.812,4048.41 245.452,4048.41 245.182,4048.41 C244.237,4048.41 243.742,4048.82 243.742,4049.63 C243.742,4050.39 244.192,4050.75 245.182,4050.75 C245.452,4050.75 245.812,4050.75 246.217,4050.71 C247.117,4050.66 247.837,4050.66 248.332,4050.66 C251.662,4050.66 253.462,4053.05 253.462,4057.5 C253.462,4062.18 251.212,4064.79 247.162,4064.79 C244.327,4064.79 241.267,4063.26 241.267,4061.87 C241.267,4061.46 241.357,4061.37 242.212,4060.88 C243.472,4060.11 243.967,4059.35 243.967,4058.22 C243.967,4056.6 242.752,4055.39 241.132,4055.39 C239.197,4055.39 237.937,4056.96 237.937,4059.35 C237.937,4063.71 241.942,4066.73 247.702,4066.73 C254.227,4066.73 258.457,4063.13 258.457,4057.59 C258.457,4053.36 256.297,4050.8 251.617,4049.49"/>
<path class="Bracket" transform="matrix(3.62523,0,0,3.62523,214.469,1012.53)" d="M0.92002,-50 C2.69004,-51.88 6.2,-55.8 6.2,-63 C6.2,-72.1 2.25996,-81.32 2.25996,-86.97 C2.25996,-93.06 5.84004,-98.84 5.95,-99 C6.05996,-99.16 6.05,-99.39 5.94004,-99.46 C5.82998,-99.53 5.62002,-99.47 5.49004,-99.32 C5.35996,-99.17 0,-93.75 0,-85.6 C0,-76.75 3.5,-70.58 3.5,-59.07 C3.5,-56.89 2.55996,-53.36 0.1,-50.33 C-0.0799805,-50.17 -0.1,-49.89 0.0599609,-49.7 L0.0700195,-49.69 L0.1,-49.66 C2.55996,-46.63 3.5,-43.1 3.5,-40.92 C3.5,-29.4 0,-23.24 0,-14.39 C0,-6.25 5.35996,-0.8 5.49004,-0.659961 C5.62002,-0.52002 5.8,-0.42998 5.94004,-0.52002 C6.07998,-0.609961 6.07998,-0.77998 5.95,-0.97998 C5.82002,-1.17998 2.25996,-6.92002 2.25996,-13.01 C2.25996,-18.66 6.2,-27.9 6.2,-37 C6.2,-44.3 2.69004,-48.12 0.92002,-50"/>
</svg>