<?xml version="1.0" encoding="UTF-8" standalone="no"?>
<svg width="1000px" height="300px" viewBox="0 400 3040 900" xmlns="http://www.w3.org/2000/svg" xmlns:xlink="http://www.w3.org/1999/xlink" version="1.2" baseProfile="tiny">
 xmlns="http://www.w3.org/2000/svg" xmlns:xlink="http://www.w3.org/1999/xlink" version="1.2" baseProfile="tiny">
<title>exercises_scores (33)</title>
<desc>Generated by MuseScore 3.6.0</desc>
<polyline class="StaffLines" fill="none" stroke="#000000" stroke-width="2.75" stroke-linejoin="bevel" points="247.099,653.005 2764.63,653.005"/>
<polyline class="StaffLines" fill="none" stroke="#000000" stroke-width="2.75" stroke-linejoin="bevel" points="247.099,678.006 2764.63,678.006"/>
<polyline class="StaffLines" fill="none" stroke="#000000" stroke-width="2.75" stroke-linejoin="bevel" points="247.099,703.008 2764.63,703.008"/>
<polyline class="StaffLines" fill="none" stroke="#000000" stroke-width="2.75" stroke-linejoin="bevel" points="247.099,728.009 2764.63,728.009"/>
<polyline class="StaffLines" fill="none" stroke="#000000" stroke-width="2.75" stroke-linejoin="bevel" points="247.099,753.011 2764.63,753.011"/>
<polyline class="StaffLines" fill="none" stroke="#000000" stroke-width="2.75" stroke-linejoin="bevel" points="247.099,915.521 2764.63,915.521"/>
<polyline class="StaffLines" fill="none" stroke="#000000" stroke-width="2.75" stroke-linejoin="bevel" points="247.099,940.523 2764.63,940.523"/>
<polyline class="StaffLines" fill="none" stroke="#000000" stroke-width="2.75" stroke-linejoin="bevel" points="247.099,965.524 2764.63,965.524"/>
<polyline class="StaffLines" fill="none" stroke="#000000" stroke-width="2.75" stroke-linejoin="bevel" points="247.099,990.526 2764.63,990.526"/>
<polyline class="StaffLines" fill="none" stroke="#000000" stroke-width="2.75" stroke-linejoin="bevel" points="247.099,1015.53 2764.63,1015.53"/>
<path class="Text" d="M248.251,217.046 L245.971,217.046 L243.571,220.586 C239.191,217.406 236.971,216.566 232.831,216.566 C227.131,216.566 222.271,218.966 218.251,223.766 C214.411,228.326 212.611,233.366 212.611,239.546 C212.611,252.506 221.071,261.686 232.891,261.686 C242.491,261.686 248.611,256.046 249.991,245.966 L247.171,245.486 C245.551,254.426 240.991,258.866 233.611,258.866 C224.731,258.866 220.531,252.746 220.531,239.786 C220.531,232.946 221.431,228.446 223.471,224.846 C225.331,221.486 228.991,219.386 232.891,219.386 C237.091,219.386 240.811,221.606 243.091,225.446 C244.231,227.426 245.071,229.646 246.511,234.386 L249.151,234.386 L248.251,217.046 M275.741,230.708 C276.228,230.613 276.623,230.132 276.623,229.636 L276.623,229.634 L276.623,224.954 C276.623,224.665 276.44,224.283 276.215,224.102 C276.05,223.966 275.742,223.857 275.528,223.857 C275.465,223.857 275.365,223.867 275.303,223.88 L272.717,224.414 L272.717,212.606 L270.521,212.606 L270.521,224.87 L263.423,226.34 L263.423,215.102 L261.227,215.102 L261.227,226.796 L258.119,227.438 C257.636,227.54 257.244,228.024 257.243,228.518 L257.243,233.114 C257.244,233.401 257.424,233.783 257.645,233.966 C257.812,234.102 258.123,234.212 258.338,234.212 L258.341,234.212 C258.403,234.212 258.503,234.204 258.563,234.194 L261.227,233.654 L261.227,246.764 L258.119,247.406 C257.636,247.506 257.244,247.987 257.243,248.48 L257.243,253.082 C257.244,253.369 257.424,253.751 257.645,253.934 C257.812,254.07 258.123,254.18 258.338,254.18 L258.341,254.18 C258.345,254.18 258.35,254.18 258.353,254.18 C258.412,254.18 258.506,254.169 258.563,254.156 L261.227,253.616 L261.227,265.406 L263.423,265.406 L263.423,253.172 L270.521,251.732 L270.521,262.91 L272.717,262.91 L272.717,251.288 L275.741,250.676 C276.228,250.581 276.623,250.1 276.623,249.604 L276.623,249.602 L276.623,244.922 C276.623,244.633 276.44,244.251 276.215,244.07 C276.052,243.933 275.747,243.823 275.534,243.823 C275.47,243.823 275.366,243.834 275.303,243.848 L272.717,244.382 L272.717,231.326 L275.741,230.708 M263.423,246.308 L263.423,233.204 L270.521,231.77 L270.521,244.838 L263.423,246.308 M309.364,216.566 L298.264,217.226 L298.264,219.806 L301.144,219.806 C303.424,219.866 303.724,220.226 303.724,222.806 L303.724,253.406 L303.724,254.846 L303.724,256.286 C303.664,257.126 303.604,257.486 303.364,257.786 C302.944,258.326 301.804,258.566 299.224,258.626 L298.984,258.626 L298.984,260.786 L314.164,260.786 L314.164,258.626 L313.924,258.626 C309.904,258.506 309.364,258.206 309.364,256.046 L309.364,253.406 L309.364,247.166 C309.364,244.226 309.784,241.526 310.444,240.146 C311.764,237.446 314.404,235.586 316.984,235.586 C318.544,235.586 320.344,236.486 321.184,237.686 C322.144,239.006 322.564,240.806 322.564,243.746 L322.564,253.406 L322.564,256.286 C322.504,257.126 322.444,257.486 322.204,257.786 C321.784,258.326 320.584,258.566 318.004,258.626 L317.764,258.626 L317.764,260.786 L332.944,260.786 L332.944,258.626 L332.704,258.626 C328.744,258.506 328.204,258.206 328.204,256.046 L328.204,253.406 L328.204,243.986 C328.204,239.666 328.024,238.586 326.944,236.546 C325.444,233.606 322.444,231.926 318.844,231.926 C314.944,231.926 312.064,233.666 309.364,237.686 L309.364,216.566 M361.14,241.466 C361.14,237.686 360.48,235.766 358.74,234.326 C356.76,232.706 353.82,231.926 349.98,231.926 C343.2,231.926 338.28,235.106 338.28,239.486 C338.28,241.706 339.66,243.146 341.76,243.146 C343.68,243.146 345,241.886 345,240.086 C345,239.306 344.7,238.466 344.1,237.626 C343.74,237.206 343.68,237.086 343.68,236.786 C343.68,235.586 346.08,234.506 348.96,234.506 C350.88,234.506 352.98,235.106 353.94,236.006 C355.08,236.966 355.5,238.406 355.5,241.106 L355.5,243.446 C349.26,244.526 347.28,245.006 344.34,246.146 C339.12,248.066 336.66,250.826 336.66,254.666 C336.66,258.986 340.02,261.686 345.36,261.686 C349.5,261.686 353.22,260.006 355.8,256.946 C356.76,260.006 358.26,261.206 361.08,261.206 C363.78,261.206 366.6,259.466 366.6,257.726 C366.6,257.306 366.36,257.006 366,257.006 C365.76,257.006 365.52,257.066 365.1,257.246 C364.26,257.606 363.9,257.666 363.42,257.666 C361.74,257.666 361.14,256.586 361.14,253.526 L361.14,241.466 M355.5,248.786 C355.5,252.386 355.32,253.226 354.3,254.786 C352.8,257.006 350.1,258.506 347.46,258.506 C344.7,258.506 342.72,256.526 342.72,253.826 C342.72,251.306 343.98,249.506 346.62,248.246 C348.48,247.406 350.82,246.806 355.5,246.026 L355.5,248.786 M379.26,232.826 L368.64,233.486 L368.64,236.066 L371.1,236.066 C373.38,236.126 373.68,236.486 373.68,239.066 L373.68,253.406 L373.68,256.226 C373.62,257.126 373.56,257.486 373.32,257.786 C372.9,258.326 371.7,258.566 369.12,258.626 L368.88,258.626 L368.88,260.786 L384.9,260.786 L384.9,258.626 L383.82,258.626 C379.8,258.506 379.26,258.206 379.26,256.046 L379.26,253.406 L379.26,252.806 C379.32,242.726 382.92,235.046 387.6,234.806 C386.76,235.766 386.52,236.366 386.52,237.506 C386.52,239.426 387.9,240.806 389.82,240.806 C392.04,240.806 393.48,239.186 393.48,236.786 C393.48,233.846 391.44,231.926 388.26,231.926 C384.48,231.926 381.24,234.926 379.26,240.266 L379.26,232.826 M407.08,232.826 L396.4,233.486 L396.4,236.066 L398.86,236.066 C401.14,236.126 401.44,236.486 401.44,239.066 L401.44,253.406 L401.44,255.746 L401.44,256.226 C401.38,257.126 401.32,257.486 401.08,257.786 C400.66,258.326 399.52,258.566 396.94,258.626 L396.7,258.626 L396.7,260.786 L411.82,260.786 L411.82,258.626 L411.58,258.626 C407.62,258.506 407.08,258.206 407.08,255.986 L407.08,253.406 L407.08,244.886 C407.08,239.546 410.02,235.586 413.92,235.586 C417.34,235.586 419.08,238.046 419.08,242.906 L419.08,253.406 L419.08,256.286 C419.02,257.066 418.96,257.486 418.66,257.786 C418.3,258.326 417.1,258.566 414.52,258.626 L414.28,258.626 L414.28,260.786 L429.46,260.786 L429.46,258.626 L429.22,258.626 C425.26,258.506 424.72,258.206 424.72,256.046 L424.72,253.406 L424.72,245.426 C424.72,239.426 427.42,235.586 431.62,235.586 C435.04,235.586 436.72,238.166 436.72,243.566 L436.72,253.406 L436.72,256.226 C436.66,257.066 436.6,257.486 436.3,257.786 C435.94,258.326 434.74,258.566 432.16,258.626 L431.92,258.626 L431.92,260.786 L447.1,260.786 L447.1,258.626 L446.86,258.626 C442.9,258.506 442.36,258.206 442.36,255.986 L442.36,253.406 L442.36,242.366 C442.36,238.646 442,237.386 440.44,235.346 C438.7,233.126 436.24,231.926 433.36,231.926 C429.46,231.926 426.58,233.786 424,237.926 C422.98,234.326 419.74,231.926 415.72,231.926 C412.06,231.926 409.42,233.666 407.08,237.446 L407.08,232.826 M463.468,231.926 C456.088,231.926 450.388,238.466 450.388,246.866 C450.388,255.086 456.148,261.686 463.348,261.686 C470.548,261.686 476.308,255.086 476.308,246.806 C476.308,238.586 470.548,231.926 463.468,231.926 M463.468,234.506 C467.668,234.506 470.008,238.886 470.008,246.806 C470.008,254.786 467.668,259.106 463.348,259.106 C459.028,259.106 456.688,254.786 456.688,246.866 C456.688,238.706 458.968,234.506 463.468,234.506 M490.348,232.826 L479.968,233.486 L479.968,236.066 L482.128,236.066 C484.408,236.126 484.708,236.486 484.708,239.066 L484.708,253.406 L484.708,254.846 L484.708,256.226 C484.648,257.126 484.588,257.486 484.348,257.786 C483.928,258.326 482.788,258.566 480.208,258.626 L479.968,258.626 L479.968,260.786 L495.148,260.786 L495.148,258.626 L494.908,258.626 C490.888,258.506 490.348,258.206 490.348,256.046 L490.348,253.406 L490.348,247.166 C490.348,244.226 490.768,241.526 491.428,240.146 C492.688,237.446 495.388,235.586 497.968,235.586 C499.528,235.586 501.328,236.426 502.228,237.686 C503.128,239.006 503.548,240.806 503.548,243.686 L503.548,253.406 L503.548,256.226 C503.488,257.126 503.428,257.486 503.188,257.786 C502.768,258.326 501.568,258.566 498.988,258.626 L498.748,258.626 L498.748,260.786 L513.928,260.786 L513.928,258.626 L513.688,258.626 C509.728,258.506 509.188,258.206 509.188,256.046 L509.188,253.406 L509.188,243.986 C509.188,239.666 509.008,238.586 507.928,236.546 C506.428,233.666 503.428,231.926 499.828,231.926 C495.928,231.926 492.988,233.726 490.348,237.686 L490.348,232.826 M527.365,232.826 L516.085,233.486 L516.085,236.066 L519.145,236.066 C521.425,236.126 521.725,236.486 521.725,239.066 L521.725,253.406 L521.725,256.226 C521.665,257.126 521.605,257.486 521.365,257.786 C520.945,258.326 519.805,258.566 517.225,258.626 L516.805,258.626 L516.805,260.786 L532.345,260.786 L532.345,258.626 L531.925,258.626 C527.905,258.506 527.365,258.206 527.365,256.046 L527.365,253.406 L527.365,232.826 M524.545,217.886 C522.625,217.886 521.065,219.446 521.065,221.366 C521.065,223.286 522.625,224.846 524.485,224.846 C526.465,224.846 528.025,223.286 528.025,221.366 C528.025,219.446 526.465,217.886 524.545,217.886 M557.115,251.966 C555.195,256.286 553.155,258.026 550.035,258.026 C545.235,258.026 542.235,253.646 542.235,246.626 C542.235,239.306 545.175,234.506 549.615,234.506 C551.415,234.506 552.975,235.346 552.975,236.306 C552.975,236.486 552.915,236.666 552.615,237.026 C551.655,238.166 551.415,238.766 551.415,239.786 C551.415,241.766 552.915,243.146 555.015,243.146 C557.175,243.146 558.675,241.466 558.675,239.066 C558.675,234.986 554.655,231.926 549.315,231.926 C541.515,231.926 535.935,238.286 535.935,247.286 C535.935,255.806 541.035,261.686 548.475,261.686 C553.815,261.686 556.875,259.226 559.455,252.866 L557.115,251.966 M589.252,232.826 L578.572,233.486 L578.572,236.066 L581.032,236.066 C583.312,236.126 583.612,236.486 583.612,239.066 L583.612,253.406 L583.612,255.746 L583.612,256.226 C583.552,257.126 583.492,257.486 583.252,257.786 C582.832,258.326 581.692,258.566 579.112,258.626 L578.872,258.626 L578.872,260.786 L593.992,260.786 L593.992,258.626 L593.752,258.626 C589.792,258.506 589.252,258.206 589.252,255.986 L589.252,253.406 L589.252,244.886 C589.252,239.546 592.192,235.586 596.092,235.586 C599.512,235.586 601.252,238.046 601.252,242.906 L601.252,253.406 L601.252,256.286 C601.192,257.066 601.132,257.486 600.832,257.786 C600.472,258.326 599.272,258.566 596.692,258.626 L596.452,258.626 L596.452,260.786 L611.632,260.786 L611.632,258.626 L611.392,258.626 C607.432,258.506 606.892,258.206 606.892,256.046 L606.892,253.406 L606.892,245.426 C606.892,239.426 609.592,235.586 613.792,235.586 C617.212,235.586 618.892,238.166 618.892,243.566 L618.892,253.406 L618.892,256.226 C618.832,257.066 618.772,257.486 618.472,257.786 C618.112,258.326 616.912,258.566 614.332,258.626 L614.092,258.626 L614.092,260.786 L629.272,260.786 L629.272,258.626 L629.032,258.626 C625.072,258.506 624.532,258.206 624.532,255.986 L624.532,253.406 L624.532,242.366 C624.532,238.646 624.172,237.386 622.612,235.346 C620.872,233.126 618.412,231.926 615.532,231.926 C611.632,231.926 608.752,233.786 606.172,237.926 C605.152,234.326 601.912,231.926 597.892,231.926 C594.232,231.926 591.592,233.666 589.252,237.446 L589.252,232.826 M642.88,232.826 L631.6,233.486 L631.6,236.066 L634.66,236.066 C636.94,236.126 637.24,236.486 637.24,239.066 L637.24,253.406 L637.24,256.226 C637.18,257.126 637.12,257.486 636.88,257.786 C636.46,258.326 635.32,258.566 632.74,258.626 L632.32,258.626 L632.32,260.786 L647.86,260.786 L647.86,258.626 L647.44,258.626 C643.42,258.506 642.88,258.206 642.88,256.046 L642.88,253.406 L642.88,232.826 M640.06,217.886 C638.14,217.886 636.58,219.446 636.58,221.366 C636.58,223.286 638.14,224.846 640,224.846 C641.98,224.846 643.54,223.286 643.54,221.366 C643.54,219.446 641.98,217.886 640.06,217.886 M661.411,232.826 L651.031,233.486 L651.031,236.066 L653.191,236.066 C655.471,236.126 655.771,236.486 655.771,239.066 L655.771,253.406 L655.771,254.846 L655.771,256.226 C655.711,257.126 655.651,257.486 655.411,257.786 C654.991,258.326 653.851,258.566 651.271,258.626 L651.031,258.626 L651.031,260.786 L666.211,260.786 L666.211,258.626 L665.971,258.626 C661.951,258.506 661.411,258.206 661.411,256.046 L661.411,253.406 L661.411,247.166 C661.411,244.226 661.831,241.526 662.491,240.146 C663.751,237.446 666.451,235.586 669.031,235.586 C670.591,235.586 672.391,236.426 673.291,237.686 C674.191,239.006 674.611,240.806 674.611,243.686 L674.611,253.406 L674.611,256.226 C674.551,257.126 674.491,257.486 674.251,257.786 C673.831,258.326 672.631,258.566 670.051,258.626 L669.811,258.626 L669.811,260.786 L684.991,260.786 L684.991,258.626 L684.751,258.626 C680.791,258.506 680.251,258.206 680.251,256.046 L680.251,253.406 L680.251,243.986 C680.251,239.666 680.071,238.586 678.991,236.546 C677.491,233.666 674.491,231.926 670.891,231.926 C666.991,231.926 664.051,233.726 661.411,237.686 L661.411,232.826 M701.187,231.926 C693.807,231.926 688.107,238.466 688.107,246.866 C688.107,255.086 693.867,261.686 701.067,261.686 C708.267,261.686 714.027,255.086 714.027,246.806 C714.027,238.586 708.267,231.926 701.187,231.926 M701.187,234.506 C705.387,234.506 707.727,238.886 707.727,246.806 C707.727,254.786 705.387,259.106 701.067,259.106 C696.747,259.106 694.407,254.786 694.407,246.866 C694.407,238.706 696.687,234.506 701.187,234.506 M727.947,232.826 L717.327,233.486 L717.327,236.066 L719.787,236.066 C722.067,236.126 722.367,236.486 722.367,239.066 L722.367,253.406 L722.367,256.226 C722.307,257.126 722.247,257.486 722.007,257.786 C721.587,258.326 720.387,258.566 717.807,258.626 L717.567,258.626 L717.567,260.786 L733.587,260.786 L733.587,258.626 L732.507,258.626 C728.487,258.506 727.947,258.206 727.947,256.046 L727.947,253.406 L727.947,252.806 C728.007,242.726 731.607,235.046 736.287,234.806 C735.447,235.766 735.207,236.366 735.207,237.506 C735.207,239.426 736.587,240.806 738.507,240.806 C740.727,240.806 742.167,239.186 742.167,236.786 C742.167,233.846 740.127,231.926 736.947,231.926 C733.167,231.926 729.927,234.926 727.947,240.266 L727.947,232.826 "/>
<polyline class="BarLine" fill="none" stroke="#000000" stroke-width="4.50" stroke-linejoin="bevel" points="249.349,914.146 249.349,1016.9"/>
<polyline class="BarLine" fill="none" stroke="#000000" stroke-width="4.50" stroke-linejoin="bevel" points="1027.06,914.146 1027.06,1016.9"/>
<polyline class="BarLine" fill="none" stroke="#000000" stroke-width="4.50" stroke-linejoin="bevel" points="1620.96,914.146 1620.96,1016.9"/>
<polyline class="BarLine" fill="none" stroke="#000000" stroke-width="4.50" stroke-linejoin="bevel" points="2204.37,914.146 2204.37,1016.9"/>
<polyline class="BarLine" fill="none" stroke="#000000" stroke-width="4.50" stroke-linejoin="bevel" points="2734.88,914.146 2734.88,1016.9"/>
<polyline class="BarLine" fill="none" stroke="#000000" stroke-width="13.75" stroke-linejoin="bevel" points="2757.75,914.146 2757.75,1016.9"/>
<polyline class="BarLine" fill="none" stroke="#000000" stroke-width="4.50" stroke-linejoin="bevel" points="249.349,651.63 249.349,915.521"/>
<polyline class="BarLine" fill="none" stroke="#000000" stroke-width="4.50" stroke-linejoin="bevel" points="1027.06,651.63 1027.06,915.521"/>
<polyline class="BarLine" fill="none" stroke="#000000" stroke-width="4.50" stroke-linejoin="bevel" points="1620.96,651.63 1620.96,915.521"/>
<polyline class="BarLine" fill="none" stroke="#000000" stroke-width="4.50" stroke-linejoin="bevel" points="2204.37,651.63 2204.37,915.521"/>
<polyline class="BarLine" fill="none" stroke="#000000" stroke-width="4.50" stroke-linejoin="bevel" points="2734.88,651.63 2734.88,915.521"/>
<polyline class="BarLine" fill="none" stroke="#000000" stroke-width="13.75" stroke-linejoin="bevel" points="2757.75,651.63 2757.75,915.521"/>
<path class="Accidental" d="M487.053,967.425 C487.653,967.325 488.153,966.625 488.153,966.025 L488.153,960.125 C488.153,959.325 487.553,958.725 486.753,958.725 L486.553,958.725 L483.253,959.425 L483.253,944.525 L480.453,944.525 L480.453,960.025 L471.553,961.825 L471.553,947.725 L468.753,947.725 L468.753,962.425 L464.853,963.225 C464.253,963.325 463.753,964.025 463.753,964.625 L463.753,964.825 L463.753,970.625 L463.753,970.425 C463.753,971.225 464.353,971.825 465.153,971.825 L465.453,971.825 L468.753,971.125 L468.753,987.625 L464.853,988.425 C464.253,988.525 463.753,989.225 463.753,989.825 L463.753,995.625 C463.753,996.425 464.353,997.025 465.153,997.025 L465.453,997.025 L468.753,996.325 L468.753,1011.23 L471.553,1011.23 L471.553,995.725 L480.453,993.925 L480.453,1008.03 L483.253,1008.03 L483.253,993.325 L487.053,992.625 C487.653,992.525 488.153,991.825 488.153,991.225 L488.153,985.325 C488.153,984.525 487.553,983.925 486.753,983.925 L486.553,983.925 L483.253,984.625 L483.253,968.125 L487.053,967.425 M471.553,987.125 L471.553,970.525 L480.453,968.725 L480.453,985.225 L471.553,987.125 "/>
<path class="Accidental" d="M619.654,954.924 C620.254,954.824 620.754,954.124 620.754,953.524 L620.754,947.624 C620.754,946.824 620.154,946.224 619.354,946.224 L619.154,946.224 L615.854,946.924 L615.854,932.024 L613.054,932.024 L613.054,947.524 L604.154,949.324 L604.154,935.224 L601.354,935.224 L601.354,949.924 L597.454,950.724 C596.854,950.824 596.354,951.524 596.354,952.124 L596.354,952.324 L596.354,958.124 L596.354,957.924 C596.354,958.724 596.954,959.324 597.754,959.324 L598.054,959.324 L601.354,958.624 L601.354,975.124 L597.454,975.924 C596.854,976.024 596.354,976.724 596.354,977.324 L596.354,983.124 C596.354,983.924 596.954,984.524 597.754,984.524 L598.054,984.524 L601.354,983.824 L601.354,998.724 L604.154,998.724 L604.154,983.224 L613.054,981.424 L613.054,995.524 L615.854,995.524 L615.854,980.824 L619.654,980.124 C620.254,980.024 620.754,979.324 620.754,978.724 L620.754,972.824 C620.754,972.024 620.154,971.424 619.354,971.424 L619.154,971.424 L615.854,972.124 L615.854,955.624 L619.654,954.924 M604.154,974.624 L604.154,958.024 L613.054,956.224 L613.054,972.724 L604.154,974.624 "/>
<path class="Accidental" d="M884.855,929.923 C885.455,929.823 885.955,929.123 885.955,928.523 L885.955,922.623 C885.955,921.823 885.355,921.223 884.555,921.223 L884.355,921.223 L881.055,921.923 L881.055,907.023 L878.255,907.023 L878.255,922.523 L869.355,924.323 L869.355,910.223 L866.555,910.223 L866.555,924.923 L862.655,925.723 C862.055,925.823 861.555,926.523 861.555,927.123 L861.555,927.323 L861.555,933.123 L861.555,932.923 C861.555,933.723 862.155,934.323 862.955,934.323 L863.255,934.323 L866.555,933.623 L866.555,950.123 L862.655,950.923 C862.055,951.023 861.555,951.723 861.555,952.323 L861.555,958.123 C861.555,958.923 862.155,959.523 862.955,959.523 L863.255,959.523 L866.555,958.823 L866.555,973.723 L869.355,973.723 L869.355,958.223 L878.255,956.423 L878.255,970.523 L881.055,970.523 L881.055,955.823 L884.855,955.123 C885.455,955.023 885.955,954.323 885.955,953.723 L885.955,947.823 C885.955,947.023 885.355,946.423 884.555,946.423 L884.355,946.423 L881.055,947.123 L881.055,930.623 L884.855,929.923 M869.355,949.623 L869.355,933.023 L878.255,931.223 L878.255,947.723 L869.355,949.623 "/>
<path class="Accidental" d="M1074.36,917.422 C1074.96,917.322 1075.46,916.622 1075.46,916.022 L1075.46,910.122 C1075.46,909.322 1074.86,908.722 1074.06,908.722 L1073.86,908.722 L1070.56,909.422 L1070.56,894.522 L1067.76,894.522 L1067.76,910.022 L1058.86,911.822 L1058.86,897.722 L1056.06,897.722 L1056.06,912.422 L1052.16,913.222 C1051.56,913.322 1051.06,914.022 1051.06,914.622 L1051.06,914.822 L1051.06,920.622 L1051.06,920.422 C1051.06,921.222 1051.66,921.822 1052.46,921.822 L1052.76,921.822 L1056.06,921.122 L1056.06,937.622 L1052.16,938.422 C1051.56,938.522 1051.06,939.222 1051.06,939.822 L1051.06,945.622 C1051.06,946.422 1051.66,947.022 1052.46,947.022 L1052.76,947.022 L1056.06,946.322 L1056.06,961.222 L1058.86,961.222 L1058.86,945.722 L1067.76,943.922 L1067.76,958.022 L1070.56,958.022 L1070.56,943.322 L1074.36,942.622 C1074.96,942.522 1075.46,941.822 1075.46,941.222 L1075.46,935.322 C1075.46,934.522 1074.86,933.922 1074.06,933.922 L1073.86,933.922 L1070.56,934.622 L1070.56,918.122 L1074.36,917.422 M1058.86,937.122 L1058.86,920.522 L1067.76,918.722 L1067.76,935.222 L1058.86,937.122 "/>
<path class="Accidental" d="M1342.86,892.42 C1343.46,892.32 1343.96,891.62 1343.96,891.02 L1343.96,885.12 C1343.96,884.32 1343.36,883.72 1342.56,883.72 L1342.36,883.72 L1339.06,884.42 L1339.06,869.52 L1336.26,869.52 L1336.26,885.02 L1327.36,886.82 L1327.36,872.72 L1324.56,872.72 L1324.56,887.42 L1320.66,888.22 C1320.06,888.32 1319.56,889.02 1319.56,889.62 L1319.56,889.82 L1319.56,895.62 L1319.56,895.42 C1319.56,896.22 1320.16,896.82 1320.96,896.82 L1321.26,896.82 L1324.56,896.12 L1324.56,912.62 L1320.66,913.42 C1320.06,913.52 1319.56,914.22 1319.56,914.82 L1319.56,920.62 C1319.56,921.42 1320.16,922.02 1320.96,922.02 L1321.26,922.02 L1324.56,921.32 L1324.56,936.22 L1327.36,936.22 L1327.36,920.72 L1336.26,918.92 L1336.26,933.02 L1339.06,933.02 L1339.06,918.32 L1342.86,917.62 C1343.46,917.52 1343.96,916.82 1343.96,916.22 L1343.96,910.32 C1343.96,909.52 1343.36,908.92 1342.56,908.92 L1342.36,908.92 L1339.06,909.62 L1339.06,893.12 L1342.86,892.42 M1327.36,912.12 L1327.36,895.52 L1336.26,893.72 L1336.26,910.22 L1327.36,912.12 "/>
<path class="Accidental" d="M1468.36,879.92 C1468.96,879.82 1469.46,879.12 1469.46,878.52 L1469.46,872.62 C1469.46,871.82 1468.86,871.22 1468.06,871.22 L1467.86,871.22 L1464.56,871.92 L1464.56,857.02 L1461.76,857.02 L1461.76,872.52 L1452.86,874.32 L1452.86,860.22 L1450.06,860.22 L1450.06,874.92 L1446.16,875.72 C1445.56,875.82 1445.06,876.52 1445.06,877.12 L1445.06,877.32 L1445.06,883.12 L1445.06,882.92 C1445.06,883.72 1445.66,884.32 1446.46,884.32 L1446.76,884.32 L1450.06,883.62 L1450.06,900.12 L1446.16,900.92 C1445.56,901.02 1445.06,901.72 1445.06,902.32 L1445.06,908.12 C1445.06,908.92 1445.66,909.52 1446.46,909.52 L1446.76,909.52 L1450.06,908.82 L1450.06,923.72 L1452.86,923.72 L1452.86,908.22 L1461.76,906.42 L1461.76,920.52 L1464.56,920.52 L1464.56,905.82 L1468.36,905.12 C1468.96,905.02 1469.46,904.32 1469.46,903.72 L1469.46,897.82 C1469.46,897.02 1468.86,896.42 1468.06,896.42 L1467.86,896.42 L1464.56,897.12 L1464.56,880.62 L1468.36,879.92 M1452.86,899.62 L1452.86,883.02 L1461.76,881.22 L1461.76,897.72 L1452.86,899.62 "/>
<path class="Accidental" d="M1668.26,892.42 C1668.86,892.32 1669.36,891.62 1669.36,891.02 L1669.36,885.12 C1669.36,884.32 1668.76,883.72 1667.96,883.72 L1667.76,883.72 L1664.46,884.42 L1664.46,869.52 L1661.66,869.52 L1661.66,885.02 L1652.76,886.82 L1652.76,872.72 L1649.96,872.72 L1649.96,887.42 L1646.06,888.22 C1645.46,888.32 1644.96,889.02 1644.96,889.62 L1644.96,889.82 L1644.96,895.62 L1644.96,895.42 C1644.96,896.22 1645.56,896.82 1646.36,896.82 L1646.66,896.82 L1649.96,896.12 L1649.96,912.62 L1646.06,913.42 C1645.46,913.52 1644.96,914.22 1644.96,914.82 L1644.96,920.62 C1644.96,921.42 1645.56,922.02 1646.36,922.02 L1646.66,922.02 L1649.96,921.32 L1649.96,936.22 L1652.76,936.22 L1652.76,920.72 L1661.66,918.92 L1661.66,933.02 L1664.46,933.02 L1664.46,918.32 L1668.26,917.62 C1668.86,917.52 1669.36,916.82 1669.36,916.22 L1669.36,910.32 C1669.36,909.52 1668.76,908.92 1667.96,908.92 L1667.76,908.92 L1664.46,909.62 L1664.46,893.12 L1668.26,892.42 M1652.76,912.12 L1652.76,895.52 L1661.66,893.72 L1661.66,910.22 L1652.76,912.12 "/>
<path class="Accidental" d="M1931.51,917.422 C1932.11,917.322 1932.61,916.622 1932.61,916.022 L1932.61,910.122 C1932.61,909.322 1932.01,908.722 1931.21,908.722 L1931.01,908.722 L1927.71,909.422 L1927.71,894.522 L1924.91,894.522 L1924.91,910.022 L1916.01,911.822 L1916.01,897.722 L1913.21,897.722 L1913.21,912.422 L1909.31,913.222 C1908.71,913.322 1908.21,914.022 1908.21,914.622 L1908.21,914.822 L1908.21,920.622 L1908.21,920.422 C1908.21,921.222 1908.81,921.822 1909.61,921.822 L1909.91,921.822 L1913.21,921.122 L1913.21,937.622 L1909.31,938.422 C1908.71,938.522 1908.21,939.222 1908.21,939.822 L1908.21,945.622 C1908.21,946.422 1908.81,947.022 1909.61,947.022 L1909.91,947.022 L1913.21,946.322 L1913.21,961.222 L1916.01,961.222 L1916.01,945.722 L1924.91,943.922 L1924.91,958.022 L1927.71,958.022 L1927.71,943.322 L1931.51,942.622 C1932.11,942.522 1932.61,941.822 1932.61,941.222 L1932.61,935.322 C1932.61,934.522 1932.01,933.922 1931.21,933.922 L1931.01,933.922 L1927.71,934.622 L1927.71,918.122 L1931.51,917.422 M1916.01,937.122 L1916.01,920.522 L1924.91,918.722 L1924.91,935.222 L1916.01,937.122 "/>
<path class="Accidental" d="M2063.14,929.923 C2063.74,929.823 2064.24,929.123 2064.24,928.523 L2064.24,922.623 C2064.24,921.823 2063.64,921.223 2062.84,921.223 L2062.64,921.223 L2059.34,921.923 L2059.34,907.023 L2056.54,907.023 L2056.54,922.523 L2047.64,924.323 L2047.64,910.223 L2044.84,910.223 L2044.84,924.923 L2040.94,925.723 C2040.34,925.823 2039.84,926.523 2039.84,927.123 L2039.84,927.323 L2039.84,933.123 L2039.84,932.923 C2039.84,933.723 2040.44,934.323 2041.24,934.323 L2041.54,934.323 L2044.84,933.623 L2044.84,950.123 L2040.94,950.923 C2040.34,951.023 2039.84,951.723 2039.84,952.323 L2039.84,958.123 C2039.84,958.923 2040.44,959.523 2041.24,959.523 L2041.54,959.523 L2044.84,958.823 L2044.84,973.723 L2047.64,973.723 L2047.64,958.223 L2056.54,956.423 L2056.54,970.523 L2059.34,970.523 L2059.34,955.823 L2063.14,955.123 C2063.74,955.023 2064.24,954.323 2064.24,953.723 L2064.24,947.823 C2064.24,947.023 2063.64,946.423 2062.84,946.423 L2062.64,946.423 L2059.34,947.123 L2059.34,930.623 L2063.14,929.923 M2047.64,949.623 L2047.64,933.023 L2056.54,931.223 L2056.54,947.723 L2047.64,949.623 "/>
<path class="Accidental" d="M2368.85,954.924 C2369.45,954.824 2369.95,954.124 2369.95,953.524 L2369.95,947.624 C2369.95,946.824 2369.35,946.224 2368.55,946.224 L2368.35,946.224 L2365.05,946.924 L2365.05,932.024 L2362.25,932.024 L2362.25,947.524 L2353.35,949.324 L2353.35,935.224 L2350.55,935.224 L2350.55,949.924 L2346.65,950.724 C2346.05,950.824 2345.55,951.524 2345.55,952.124 L2345.55,952.324 L2345.55,958.124 L2345.55,957.924 C2345.55,958.724 2346.15,959.324 2346.95,959.324 L2347.25,959.324 L2350.55,958.624 L2350.55,975.124 L2346.65,975.924 C2346.05,976.024 2345.55,976.724 2345.55,977.324 L2345.55,983.124 C2345.55,983.924 2346.15,984.524 2346.95,984.524 L2347.25,984.524 L2350.55,983.824 L2350.55,998.724 L2353.35,998.724 L2353.35,983.224 L2362.25,981.424 L2362.25,995.524 L2365.05,995.524 L2365.05,980.824 L2368.85,980.124 C2369.45,980.024 2369.95,979.324 2369.95,978.724 L2369.95,972.824 C2369.95,972.024 2369.35,971.424 2368.55,971.424 L2368.35,971.424 L2365.05,972.124 L2365.05,955.624 L2368.85,954.924 M2353.35,974.624 L2353.35,958.024 L2362.25,956.224 L2362.25,972.724 L2353.35,974.624 "/>
<path class="Accidental" d="M2505.94,967.425 C2506.54,967.325 2507.04,966.625 2507.04,966.025 L2507.04,960.125 C2507.04,959.325 2506.44,958.725 2505.64,958.725 L2505.44,958.725 L2502.14,959.425 L2502.14,944.525 L2499.34,944.525 L2499.34,960.025 L2490.44,961.825 L2490.44,947.725 L2487.64,947.725 L2487.64,962.425 L2483.74,963.225 C2483.14,963.325 2482.64,964.025 2482.64,964.625 L2482.64,964.825 L2482.64,970.625 L2482.64,970.425 C2482.64,971.225 2483.24,971.825 2484.04,971.825 L2484.34,971.825 L2487.64,971.125 L2487.64,987.625 L2483.74,988.425 C2483.14,988.525 2482.64,989.225 2482.64,989.825 L2482.64,995.625 C2482.64,996.425 2483.24,997.025 2484.04,997.025 L2484.34,997.025 L2487.64,996.325 L2487.64,1011.23 L2490.44,1011.23 L2490.44,995.725 L2499.34,993.925 L2499.34,1008.03 L2502.14,1008.03 L2502.14,993.325 L2505.94,992.625 C2506.54,992.525 2507.04,991.825 2507.04,991.225 L2507.04,985.325 C2507.04,984.525 2506.44,983.925 2505.64,983.925 L2505.44,983.925 L2502.14,984.625 L2502.14,968.125 L2505.94,967.425 M2490.44,987.125 L2490.44,970.525 L2499.34,968.725 L2499.34,985.225 L2490.44,987.125 "/>
<path class="Accidental" d="M478.302,767.413 C478.902,767.313 479.402,766.613 479.402,766.013 L479.402,760.113 C479.402,759.313 478.802,758.713 478.002,758.713 L477.802,758.713 L474.502,759.413 L474.502,744.513 L471.702,744.513 L471.702,760.013 L462.802,761.813 L462.802,747.713 L460.002,747.713 L460.002,762.413 L456.102,763.213 C455.502,763.313 455.002,764.013 455.002,764.613 L455.002,764.813 L455.002,770.613 L455.002,770.413 C455.002,771.213 455.602,771.813 456.402,771.813 L456.702,771.813 L460.002,771.113 L460.002,787.613 L456.102,788.413 C455.502,788.513 455.002,789.213 455.002,789.813 L455.002,795.613 C455.002,796.413 455.602,797.013 456.402,797.013 L456.702,797.013 L460.002,796.313 L460.002,811.213 L462.802,811.213 L462.802,795.713 L471.702,793.913 L471.702,808.013 L474.502,808.013 L474.502,793.313 L478.302,792.613 C478.902,792.513 479.402,791.813 479.402,791.213 L479.402,785.313 C479.402,784.513 478.802,783.913 478.002,783.913 L477.802,783.913 L474.502,784.613 L474.502,768.113 L478.302,767.413 M462.802,787.113 L462.802,770.513 L471.702,768.713 L471.702,785.213 L462.802,787.113 "/>
<path class="Accidental" d="M619.654,754.912 C620.254,754.812 620.754,754.112 620.754,753.512 L620.754,747.612 C620.754,746.812 620.154,746.212 619.354,746.212 L619.154,746.212 L615.854,746.912 L615.854,732.012 L613.054,732.012 L613.054,747.512 L604.154,749.312 L604.154,735.212 L601.354,735.212 L601.354,749.912 L597.454,750.712 C596.854,750.812 596.354,751.512 596.354,752.112 L596.354,752.312 L596.354,758.112 L596.354,757.912 C596.354,758.712 596.954,759.312 597.754,759.312 L598.054,759.312 L601.354,758.612 L601.354,775.112 L597.454,775.912 C596.854,776.012 596.354,776.712 596.354,777.312 L596.354,783.112 C596.354,783.912 596.954,784.512 597.754,784.512 L598.054,784.512 L601.354,783.812 L601.354,798.712 L604.154,798.712 L604.154,783.212 L613.054,781.412 L613.054,795.512 L615.854,795.512 L615.854,780.812 L619.654,780.112 C620.254,780.012 620.754,779.312 620.754,778.712 L620.754,772.812 C620.754,772.012 620.154,771.412 619.354,771.412 L619.154,771.412 L615.854,772.112 L615.854,755.612 L619.654,754.912 M604.154,774.612 L604.154,758.012 L613.054,756.212 L613.054,772.712 L604.154,774.612 "/>
<path class="Accidental" d="M884.855,729.91 C885.455,729.81 885.955,729.11 885.955,728.51 L885.955,722.61 C885.955,721.81 885.355,721.21 884.555,721.21 L884.355,721.21 L881.055,721.91 L881.055,707.01 L878.255,707.01 L878.255,722.51 L869.355,724.31 L869.355,710.21 L866.555,710.21 L866.555,724.91 L862.655,725.71 C862.055,725.81 861.555,726.51 861.555,727.11 L861.555,727.31 L861.555,733.11 L861.555,732.91 C861.555,733.71 862.155,734.31 862.955,734.31 L863.255,734.31 L866.555,733.61 L866.555,750.11 L862.655,750.91 C862.055,751.01 861.555,751.71 861.555,752.31 L861.555,758.11 C861.555,758.91 862.155,759.51 862.955,759.51 L863.255,759.51 L866.555,758.81 L866.555,773.71 L869.355,773.71 L869.355,758.21 L878.255,756.41 L878.255,770.51 L881.055,770.51 L881.055,755.81 L884.855,755.11 C885.455,755.01 885.955,754.31 885.955,753.71 L885.955,747.81 C885.955,747.01 885.355,746.41 884.555,746.41 L884.355,746.41 L881.055,747.11 L881.055,730.61 L884.855,729.91 M869.355,749.61 L869.355,733.01 L878.255,731.21 L878.255,747.71 L869.355,749.61 "/>
<path class="Accidental" d="M1074.36,717.409 C1074.96,717.309 1075.46,716.609 1075.46,716.009 L1075.46,710.109 C1075.46,709.309 1074.86,708.709 1074.06,708.709 L1073.86,708.709 L1070.56,709.409 L1070.56,694.509 L1067.76,694.509 L1067.76,710.009 L1058.86,711.809 L1058.86,697.709 L1056.06,697.709 L1056.06,712.409 L1052.16,713.209 C1051.56,713.309 1051.06,714.009 1051.06,714.609 L1051.06,714.809 L1051.06,720.609 L1051.06,720.409 C1051.06,721.209 1051.66,721.809 1052.46,721.809 L1052.76,721.809 L1056.06,721.109 L1056.06,737.609 L1052.16,738.409 C1051.56,738.509 1051.06,739.209 1051.06,739.809 L1051.06,745.609 C1051.06,746.409 1051.66,747.009 1052.46,747.009 L1052.76,747.009 L1056.06,746.309 L1056.06,761.209 L1058.86,761.209 L1058.86,745.709 L1067.76,743.909 L1067.76,758.009 L1070.56,758.009 L1070.56,743.309 L1074.36,742.609 C1074.96,742.509 1075.46,741.809 1075.46,741.209 L1075.46,735.309 C1075.46,734.509 1074.86,733.909 1074.06,733.909 L1073.86,733.909 L1070.56,734.609 L1070.56,718.109 L1074.36,717.409 M1058.86,737.109 L1058.86,720.509 L1067.76,718.709 L1067.76,735.209 L1058.86,737.109 "/>
<path class="Accidental" d="M1342.86,692.408 C1343.46,692.308 1343.96,691.608 1343.96,691.008 L1343.96,685.108 C1343.96,684.308 1343.36,683.708 1342.56,683.708 L1342.36,683.708 L1339.06,684.408 L1339.06,669.508 L1336.26,669.508 L1336.26,685.008 L1327.36,686.808 L1327.36,672.708 L1324.56,672.708 L1324.56,687.408 L1320.66,688.208 C1320.06,688.308 1319.56,689.008 1319.56,689.608 L1319.56,689.808 L1319.56,695.608 L1319.56,695.408 C1319.56,696.208 1320.16,696.808 1320.96,696.808 L1321.26,696.808 L1324.56,696.108 L1324.56,712.608 L1320.66,713.408 C1320.06,713.508 1319.56,714.208 1319.56,714.808 L1319.56,720.608 C1319.56,721.408 1320.16,722.008 1320.96,722.008 L1321.26,722.008 L1324.56,721.308 L1324.56,736.208 L1327.36,736.208 L1327.36,720.708 L1336.26,718.908 L1336.26,733.008 L1339.06,733.008 L1339.06,718.308 L1342.86,717.608 C1343.46,717.508 1343.96,716.808 1343.96,716.208 L1343.96,710.308 C1343.96,709.508 1343.36,708.908 1342.56,708.908 L1342.36,708.908 L1339.06,709.608 L1339.06,693.108 L1342.86,692.408 M1327.36,712.108 L1327.36,695.508 L1336.26,693.708 L1336.26,710.208 L1327.36,712.108 "/>
<path class="Accidental" d="M1477.11,679.907 C1477.71,679.807 1478.21,679.107 1478.21,678.507 L1478.21,672.607 C1478.21,671.807 1477.61,671.207 1476.81,671.207 L1476.61,671.207 L1473.31,671.907 L1473.31,657.007 L1470.51,657.007 L1470.51,672.507 L1461.61,674.307 L1461.61,660.207 L1458.81,660.207 L1458.81,674.907 L1454.91,675.707 C1454.31,675.807 1453.81,676.507 1453.81,677.107 L1453.81,677.307 L1453.81,683.107 L1453.81,682.907 C1453.81,683.707 1454.41,684.307 1455.21,684.307 L1455.51,684.307 L1458.81,683.607 L1458.81,700.107 L1454.91,700.907 C1454.31,701.007 1453.81,701.707 1453.81,702.307 L1453.81,708.107 C1453.81,708.907 1454.41,709.507 1455.21,709.507 L1455.51,709.507 L1458.81,708.807 L1458.81,723.707 L1461.61,723.707 L1461.61,708.207 L1470.51,706.407 L1470.51,720.507 L1473.31,720.507 L1473.31,705.807 L1477.11,705.107 C1477.71,705.007 1478.21,704.307 1478.21,703.707 L1478.21,697.807 C1478.21,697.007 1477.61,696.407 1476.81,696.407 L1476.61,696.407 L1473.31,697.107 L1473.31,680.607 L1477.11,679.907 M1461.61,699.607 L1461.61,683.007 L1470.51,681.207 L1470.51,697.707 L1461.61,699.607 "/>
<path class="Accidental" d="M1668.26,692.408 C1668.86,692.308 1669.36,691.608 1669.36,691.008 L1669.36,685.108 C1669.36,684.308 1668.76,683.708 1667.96,683.708 L1667.76,683.708 L1664.46,684.408 L1664.46,669.508 L1661.66,669.508 L1661.66,685.008 L1652.76,686.808 L1652.76,672.708 L1649.96,672.708 L1649.96,687.408 L1646.06,688.208 C1645.46,688.308 1644.96,689.008 1644.96,689.608 L1644.96,689.808 L1644.96,695.608 L1644.96,695.408 C1644.96,696.208 1645.56,696.808 1646.36,696.808 L1646.66,696.808 L1649.96,696.108 L1649.96,712.608 L1646.06,713.408 C1645.46,713.508 1644.96,714.208 1644.96,714.808 L1644.96,720.608 C1644.96,721.408 1645.56,722.008 1646.36,722.008 L1646.66,722.008 L1649.96,721.308 L1649.96,736.208 L1652.76,736.208 L1652.76,720.708 L1661.66,718.908 L1661.66,733.008 L1664.46,733.008 L1664.46,718.308 L1668.26,717.608 C1668.86,717.508 1669.36,716.808 1669.36,716.208 L1669.36,710.308 C1669.36,709.508 1668.76,708.908 1667.96,708.908 L1667.76,708.908 L1664.46,709.608 L1664.46,693.108 L1668.26,692.408 M1652.76,712.108 L1652.76,695.508 L1661.66,693.708 L1661.66,710.208 L1652.76,712.108 "/>
<path class="Accidental" d="M1931.51,717.409 C1932.11,717.309 1932.61,716.609 1932.61,716.009 L1932.61,710.109 C1932.61,709.309 1932.01,708.709 1931.21,708.709 L1931.01,708.709 L1927.71,709.409 L1927.71,694.509 L1924.91,694.509 L1924.91,710.009 L1916.01,711.809 L1916.01,697.709 L1913.21,697.709 L1913.21,712.409 L1909.31,713.209 C1908.71,713.309 1908.21,714.009 1908.21,714.609 L1908.21,714.809 L1908.21,720.609 L1908.21,720.409 C1908.21,721.209 1908.81,721.809 1909.61,721.809 L1909.91,721.809 L1913.21,721.109 L1913.21,737.609 L1909.31,738.409 C1908.71,738.509 1908.21,739.209 1908.21,739.809 L1908.21,745.609 C1908.21,746.409 1908.81,747.009 1909.61,747.009 L1909.91,747.009 L1913.21,746.309 L1913.21,761.209 L1916.01,761.209 L1916.01,745.709 L1924.91,743.909 L1924.91,758.009 L1927.71,758.009 L1927.71,743.309 L1931.51,742.609 C1932.11,742.509 1932.61,741.809 1932.61,741.209 L1932.61,735.309 C1932.61,734.509 1932.01,733.909 1931.21,733.909 L1931.01,733.909 L1927.71,734.609 L1927.71,718.109 L1931.51,717.409 M1916.01,737.109 L1916.01,720.509 L1924.91,718.709 L1924.91,735.209 L1916.01,737.109 "/>
<path class="Accidental" d="M2063.14,729.91 C2063.74,729.81 2064.24,729.11 2064.24,728.51 L2064.24,722.61 C2064.24,721.81 2063.64,721.21 2062.84,721.21 L2062.64,721.21 L2059.34,721.91 L2059.34,707.01 L2056.54,707.01 L2056.54,722.51 L2047.64,724.31 L2047.64,710.21 L2044.84,710.21 L2044.84,724.91 L2040.94,725.71 C2040.34,725.81 2039.84,726.51 2039.84,727.11 L2039.84,727.31 L2039.84,733.11 L2039.84,732.91 C2039.84,733.71 2040.44,734.31 2041.24,734.31 L2041.54,734.31 L2044.84,733.61 L2044.84,750.11 L2040.94,750.91 C2040.34,751.01 2039.84,751.71 2039.84,752.31 L2039.84,758.11 C2039.84,758.91 2040.44,759.51 2041.24,759.51 L2041.54,759.51 L2044.84,758.81 L2044.84,773.71 L2047.64,773.71 L2047.64,758.21 L2056.54,756.41 L2056.54,770.51 L2059.34,770.51 L2059.34,755.81 L2063.14,755.11 C2063.74,755.01 2064.24,754.31 2064.24,753.71 L2064.24,747.81 C2064.24,747.01 2063.64,746.41 2062.84,746.41 L2062.64,746.41 L2059.34,747.11 L2059.34,730.61 L2063.14,729.91 M2047.64,749.61 L2047.64,733.01 L2056.54,731.21 L2056.54,747.71 L2047.64,749.61 "/>
<path class="Accidental" d="M2368.85,754.912 C2369.45,754.812 2369.95,754.112 2369.95,753.512 L2369.95,747.612 C2369.95,746.812 2369.35,746.212 2368.55,746.212 L2368.35,746.212 L2365.05,746.912 L2365.05,732.012 L2362.25,732.012 L2362.25,747.512 L2353.35,749.312 L2353.35,735.212 L2350.55,735.212 L2350.55,749.912 L2346.65,750.712 C2346.05,750.812 2345.55,751.512 2345.55,752.112 L2345.55,752.312 L2345.55,758.112 L2345.55,757.912 C2345.55,758.712 2346.15,759.312 2346.95,759.312 L2347.25,759.312 L2350.55,758.612 L2350.55,775.112 L2346.65,775.912 C2346.05,776.012 2345.55,776.712 2345.55,777.312 L2345.55,783.112 C2345.55,783.912 2346.15,784.512 2346.95,784.512 L2347.25,784.512 L2350.55,783.812 L2350.55,798.712 L2353.35,798.712 L2353.35,783.212 L2362.25,781.412 L2362.25,795.512 L2365.05,795.512 L2365.05,780.812 L2368.85,780.112 C2369.45,780.012 2369.95,779.312 2369.95,778.712 L2369.95,772.812 C2369.95,772.012 2369.35,771.412 2368.55,771.412 L2368.35,771.412 L2365.05,772.112 L2365.05,755.612 L2368.85,754.912 M2353.35,774.612 L2353.35,758.012 L2362.25,756.212 L2362.25,772.712 L2353.35,774.612 "/>
<path class="Accidental" d="M2497.19,767.413 C2497.79,767.313 2498.29,766.613 2498.29,766.013 L2498.29,760.113 C2498.29,759.313 2497.69,758.713 2496.89,758.713 L2496.69,758.713 L2493.39,759.413 L2493.39,744.513 L2490.59,744.513 L2490.59,760.013 L2481.69,761.813 L2481.69,747.713 L2478.89,747.713 L2478.89,762.413 L2474.99,763.213 C2474.39,763.313 2473.89,764.013 2473.89,764.613 L2473.89,764.813 L2473.89,770.613 L2473.89,770.413 C2473.89,771.213 2474.49,771.813 2475.29,771.813 L2475.59,771.813 L2478.89,771.113 L2478.89,787.613 L2474.99,788.413 C2474.39,788.513 2473.89,789.213 2473.89,789.813 L2473.89,795.613 C2473.89,796.413 2474.49,797.013 2475.29,797.013 L2475.59,797.013 L2478.89,796.313 L2478.89,811.213 L2481.69,811.213 L2481.69,795.713 L2490.59,793.913 L2490.59,808.013 L2493.39,808.013 L2493.39,793.313 L2497.19,792.613 C2497.79,792.513 2498.29,791.813 2498.29,791.213 L2498.29,785.313 C2498.29,784.513 2497.69,783.913 2496.89,783.913 L2496.69,783.913 L2493.39,784.613 L2493.39,768.113 L2497.19,767.413 M2481.69,787.113 L2481.69,770.513 L2490.59,768.713 L2490.59,785.213 L2481.69,787.113 "/>
<polyline class="LedgerLine" fill="none" stroke="#000000" stroke-width="4.00" stroke-linejoin="bevel" points="1475.71,890.52 1525.71,890.52"/>
<polyline class="LedgerLine" fill="none" stroke="#000000" stroke-width="4.00" stroke-linejoin="bevel" points="485.653,778.013 535.648,778.013"/>
<polyline class="LedgerLine" fill="none" stroke="#000000" stroke-width="4.00" stroke-linejoin="bevel" points="2504.54,778.013 2554.53,778.013"/>
<polyline class="Stem" fill="none" stroke="#000000" stroke-width="2.75" stroke-linejoin="bevel" points="525.522,974.665 525.522,896.77"/>
<polyline class="Stem" fill="none" stroke="#000000" stroke-width="2.75" stroke-linejoin="bevel" points="628.379,969.045 628.379,1043.65"/>
<polyline class="Stem" fill="none" stroke="#000000" stroke-width="2.75" stroke-linejoin="bevel" points="760.98,956.544 760.98,1034.28"/>
<polyline class="Stem" fill="none" stroke="#000000" stroke-width="2.75" stroke-linejoin="bevel" points="893.58,944.043 893.58,1024.9"/>
<polyline class="Stem" fill="none" stroke="#000000" stroke-width="2.75" stroke-linejoin="bevel" points="1083.08,931.542 1083.08,1015.53"/>
<polyline class="Stem" fill="none" stroke="#000000" stroke-width="2.75" stroke-linejoin="bevel" points="1217.33,919.042 1217.33,1003.03"/>
<polyline class="Stem" fill="none" stroke="#000000" stroke-width="2.75" stroke-linejoin="bevel" points="1351.58,906.541 1351.58,990.526"/>
<polyline class="Stem" fill="none" stroke="#000000" stroke-width="2.75" stroke-linejoin="bevel" points="1485.84,894.04 1485.84,978.025"/>
<polyline class="Stem" fill="none" stroke="#000000" stroke-width="2.75" stroke-linejoin="bevel" points="1676.99,906.541 1676.99,990.526"/>
<polyline class="Stem" fill="none" stroke="#000000" stroke-width="2.75" stroke-linejoin="bevel" points="1808.61,919.042 1808.61,1003.03"/>
<polyline class="Stem" fill="none" stroke="#000000" stroke-width="2.75" stroke-linejoin="bevel" points="1940.24,931.542 1940.24,1015.53"/>
<polyline class="Stem" fill="none" stroke="#000000" stroke-width="2.75" stroke-linejoin="bevel" points="2071.87,944.043 2071.87,1024.9"/>
<polyline class="Stem" fill="none" stroke="#000000" stroke-width="2.75" stroke-linejoin="bevel" points="2240.49,956.544 2240.49,1034.28"/>
<polyline class="Stem" fill="none" stroke="#000000" stroke-width="2.75" stroke-linejoin="bevel" points="2377.58,969.045 2377.58,1043.65"/>
<polyline class="Stem" fill="none" stroke="#000000" stroke-width="2.75" stroke-linejoin="bevel" points="2544.41,974.585 2544.41,896.77"/>
<polyline class="Stem" fill="none" stroke="#000000" stroke-width="2.75" stroke-linejoin="bevel" points="525.522,774.652 525.522,690.507"/>
<polyline class="Stem" fill="none" stroke="#000000" stroke-width="2.75" stroke-linejoin="bevel" points="658.123,762.152 658.123,678.006"/>
<polyline class="Stem" fill="none" stroke="#000000" stroke-width="2.75" stroke-linejoin="bevel" points="790.724,749.651 790.724,665.506"/>
<polyline class="Stem" fill="none" stroke="#000000" stroke-width="2.75" stroke-linejoin="bevel" points="923.324,737.15 923.324,653.005"/>
<polyline class="Stem" fill="none" stroke="#000000" stroke-width="2.75" stroke-linejoin="bevel" points="1112.83,724.649 1112.83,643.629"/>
<polyline class="Stem" fill="none" stroke="#000000" stroke-width="2.75" stroke-linejoin="bevel" points="1247.08,712.148 1247.08,634.254"/>
<polyline class="Stem" fill="none" stroke="#000000" stroke-width="2.75" stroke-linejoin="bevel" points="1351.58,706.528 1351.58,781.138"/>
<polyline class="Stem" fill="none" stroke="#000000" stroke-width="2.75" stroke-linejoin="bevel" points="1485.84,694.027 1485.84,771.762"/>
<polyline class="Stem" fill="none" stroke="#000000" stroke-width="2.75" stroke-linejoin="bevel" points="1676.99,706.528 1676.99,781.138"/>
<polyline class="Stem" fill="none" stroke="#000000" stroke-width="2.75" stroke-linejoin="bevel" points="1838.36,712.148 1838.36,634.254"/>
<polyline class="Stem" fill="none" stroke="#000000" stroke-width="2.75" stroke-linejoin="bevel" points="1969.98,724.649 1969.98,643.629"/>
<polyline class="Stem" fill="none" stroke="#000000" stroke-width="2.75" stroke-linejoin="bevel" points="2101.61,737.15 2101.61,653.005"/>
<polyline class="Stem" fill="none" stroke="#000000" stroke-width="2.75" stroke-linejoin="bevel" points="2270.24,749.651 2270.24,665.506"/>
<polyline class="Stem" fill="none" stroke="#000000" stroke-width="2.75" stroke-linejoin="bevel" points="2407.32,762.152 2407.32,678.006"/>
<polyline class="Stem" fill="none" stroke="#000000" stroke-width="2.75" stroke-linejoin="bevel" points="2544.41,774.572 2544.41,690.507"/>
<path class="Note" d="M525.903,969.825 C524.403,967.125 521.503,965.425 517.603,965.025 C517.003,964.925 516.503,964.925 515.903,964.925 C512.403,964.925 508.603,965.925 505.103,967.825 C498.503,971.425 494.403,977.325 494.403,982.425 C494.403,983.825 494.603,985.125 495.303,986.325 C496.803,989.025 499.803,990.725 503.703,991.125 C504.303,991.225 504.803,991.225 505.403,991.225 C508.903,991.225 512.603,990.225 516.103,988.325 C522.703,984.725 526.903,978.925 526.903,973.825 C526.903,972.425 526.603,971.025 525.903,969.825"/>
<path class="Note" d="M658.504,957.324 C657.004,954.624 654.104,952.924 650.204,952.524 C649.604,952.424 649.104,952.424 648.504,952.424 C645.004,952.424 641.204,953.424 637.704,955.324 C631.104,958.924 627.004,964.824 627.004,969.924 C627.004,971.324 627.204,972.624 627.904,973.824 C629.404,976.524 632.404,978.224 636.304,978.624 C636.904,978.724 637.404,978.724 638.004,978.724 C641.504,978.724 645.204,977.724 648.704,975.824 C655.304,972.224 659.504,966.424 659.504,961.324 C659.504,959.924 659.204,958.524 658.504,957.324"/>
<path class="Note" d="M791.105,944.824 C789.605,942.124 786.705,940.424 782.805,940.024 C782.205,939.924 781.705,939.924 781.105,939.924 C777.605,939.924 773.805,940.924 770.305,942.824 C763.705,946.424 759.605,952.324 759.605,957.424 C759.605,958.824 759.805,960.124 760.505,961.324 C762.005,964.024 765.005,965.724 768.905,966.124 C769.505,966.224 770.005,966.224 770.605,966.224 C774.105,966.224 777.805,965.224 781.305,963.324 C787.905,959.724 792.105,953.924 792.105,948.824 C792.105,947.424 791.805,946.024 791.105,944.824"/>
<path class="Note" d="M923.705,932.323 C922.205,929.623 919.305,927.923 915.405,927.523 C914.805,927.423 914.305,927.423 913.705,927.423 C910.205,927.423 906.405,928.423 902.905,930.323 C896.305,933.923 892.205,939.823 892.205,944.923 C892.205,946.323 892.405,947.623 893.105,948.823 C894.605,951.523 897.605,953.223 901.505,953.623 C902.105,953.723 902.605,953.723 903.205,953.723 C906.705,953.723 910.405,952.723 913.905,950.823 C920.505,947.223 924.705,941.423 924.705,936.323 C924.705,934.923 924.405,933.523 923.705,932.323"/>
<path class="Note" d="M1113.21,919.822 C1111.71,917.122 1108.81,915.422 1104.91,915.022 C1104.31,914.922 1103.81,914.922 1103.21,914.922 C1099.71,914.922 1095.91,915.922 1092.41,917.822 C1085.81,921.422 1081.71,927.322 1081.71,932.422 C1081.71,933.822 1081.91,935.122 1082.61,936.322 C1084.11,939.022 1087.11,940.722 1091.01,941.122 C1091.61,941.222 1092.11,941.222 1092.71,941.222 C1096.21,941.222 1099.91,940.222 1103.41,938.322 C1110.01,934.722 1114.21,928.922 1114.21,923.822 C1114.21,922.422 1113.91,921.022 1113.21,919.822"/>
<path class="Note" d="M1247.46,907.321 C1245.96,904.621 1243.06,902.921 1239.16,902.521 C1238.56,902.421 1238.06,902.421 1237.46,902.421 C1233.96,902.421 1230.16,903.421 1226.66,905.321 C1220.06,908.921 1215.96,914.821 1215.96,919.921 C1215.96,921.321 1216.16,922.621 1216.86,923.821 C1218.36,926.521 1221.36,928.221 1225.26,928.621 C1225.86,928.721 1226.36,928.721 1226.96,928.721 C1230.46,928.721 1234.16,927.721 1237.66,925.821 C1244.26,922.221 1248.46,916.421 1248.46,911.321 C1248.46,909.921 1248.16,908.521 1247.46,907.321"/>
<path class="Note" d="M1381.71,894.82 C1380.21,892.12 1377.31,890.42 1373.41,890.02 C1372.81,889.92 1372.31,889.92 1371.71,889.92 C1368.21,889.92 1364.41,890.92 1360.91,892.82 C1354.31,896.42 1350.21,902.32 1350.21,907.42 C1350.21,908.82 1350.41,910.12 1351.11,911.32 C1352.61,914.02 1355.61,915.72 1359.51,916.12 C1360.11,916.22 1360.61,916.22 1361.21,916.22 C1364.71,916.22 1368.41,915.22 1371.91,913.32 C1378.51,909.72 1382.71,903.92 1382.71,898.82 C1382.71,897.42 1382.41,896.02 1381.71,894.82"/>
<path class="Note" d="M1515.96,882.32 C1514.46,879.62 1511.56,877.92 1507.66,877.52 C1507.06,877.42 1506.56,877.42 1505.96,877.42 C1502.46,877.42 1498.66,878.42 1495.16,880.32 C1488.56,883.92 1484.46,889.82 1484.46,894.92 C1484.46,896.32 1484.66,897.62 1485.36,898.82 C1486.86,901.52 1489.86,903.22 1493.76,903.62 C1494.36,903.72 1494.86,903.72 1495.46,903.72 C1498.96,903.72 1502.66,902.72 1506.16,900.82 C1512.76,897.22 1516.96,891.42 1516.96,886.32 C1516.96,884.92 1516.66,883.52 1515.96,882.32"/>
<path class="Note" d="M1707.11,894.82 C1705.61,892.12 1702.71,890.42 1698.81,890.02 C1698.21,889.92 1697.71,889.92 1697.11,889.92 C1693.61,889.92 1689.81,890.92 1686.31,892.82 C1679.71,896.42 1675.61,902.32 1675.61,907.42 C1675.61,908.82 1675.81,910.12 1676.51,911.32 C1678.01,914.02 1681.01,915.72 1684.91,916.12 C1685.51,916.22 1686.01,916.22 1686.61,916.22 C1690.11,916.22 1693.81,915.22 1697.31,913.32 C1703.91,909.72 1708.11,903.92 1708.11,898.82 C1708.11,897.42 1707.81,896.02 1707.11,894.82"/>
<path class="Note" d="M1838.74,907.321 C1837.24,904.621 1834.34,902.921 1830.44,902.521 C1829.84,902.421 1829.34,902.421 1828.74,902.421 C1825.24,902.421 1821.44,903.421 1817.94,905.321 C1811.34,908.921 1807.24,914.821 1807.24,919.921 C1807.24,921.321 1807.44,922.621 1808.14,923.821 C1809.64,926.521 1812.64,928.221 1816.54,928.621 C1817.14,928.721 1817.64,928.721 1818.24,928.721 C1821.74,928.721 1825.44,927.721 1828.94,925.821 C1835.54,922.221 1839.74,916.421 1839.74,911.321 C1839.74,909.921 1839.44,908.521 1838.74,907.321"/>
<path class="Note" d="M1970.36,919.822 C1968.86,917.122 1965.96,915.422 1962.06,915.022 C1961.46,914.922 1960.96,914.922 1960.36,914.922 C1956.86,914.922 1953.06,915.922 1949.56,917.822 C1942.96,921.422 1938.86,927.322 1938.86,932.422 C1938.86,933.822 1939.06,935.122 1939.76,936.322 C1941.26,939.022 1944.26,940.722 1948.16,941.122 C1948.76,941.222 1949.26,941.222 1949.86,941.222 C1953.36,941.222 1957.06,940.222 1960.56,938.322 C1967.16,934.722 1971.36,928.922 1971.36,923.822 C1971.36,922.422 1971.06,921.022 1970.36,919.822"/>
<path class="Note" d="M2101.99,932.323 C2100.49,929.623 2097.59,927.923 2093.69,927.523 C2093.09,927.423 2092.59,927.423 2091.99,927.423 C2088.49,927.423 2084.69,928.423 2081.19,930.323 C2074.59,933.923 2070.49,939.823 2070.49,944.923 C2070.49,946.323 2070.69,947.623 2071.39,948.823 C2072.89,951.523 2075.89,953.223 2079.79,953.623 C2080.39,953.723 2080.89,953.723 2081.49,953.723 C2084.99,953.723 2088.69,952.723 2092.19,950.823 C2098.79,947.223 2102.99,941.423 2102.99,936.323 C2102.99,934.923 2102.69,933.523 2101.99,932.323"/>
<path class="Note" d="M2270.62,944.824 C2269.12,942.124 2266.22,940.424 2262.32,940.024 C2261.72,939.924 2261.22,939.924 2260.62,939.924 C2257.12,939.924 2253.32,940.924 2249.82,942.824 C2243.22,946.424 2239.12,952.324 2239.12,957.424 C2239.12,958.824 2239.32,960.124 2240.02,961.324 C2241.52,964.024 2244.52,965.724 2248.42,966.124 C2249.02,966.224 2249.52,966.224 2250.12,966.224 C2253.62,966.224 2257.32,965.224 2260.82,963.324 C2267.42,959.724 2271.62,953.924 2271.62,948.824 C2271.62,947.424 2271.32,946.024 2270.62,944.824"/>
<path class="Note" d="M2407.7,957.324 C2406.2,954.624 2403.3,952.924 2399.4,952.524 C2398.8,952.424 2398.3,952.424 2397.7,952.424 C2394.2,952.424 2390.4,953.424 2386.9,955.324 C2380.3,958.924 2376.2,964.824 2376.2,969.924 C2376.2,971.324 2376.4,972.624 2377.1,973.824 C2378.6,976.524 2381.6,978.224 2385.5,978.624 C2386.1,978.724 2386.6,978.724 2387.2,978.724 C2390.7,978.724 2394.4,977.724 2397.9,975.824 C2404.5,972.224 2408.7,966.424 2408.7,961.324 C2408.7,959.924 2408.4,958.524 2407.7,957.324"/>
<path class="Note" d="M2544.79,969.825 C2543.29,967.125 2540.39,965.425 2536.49,965.025 C2535.89,964.925 2535.39,964.925 2534.79,964.925 C2531.29,964.925 2527.49,965.925 2523.99,967.825 C2517.39,971.425 2513.29,977.225 2513.29,982.325 C2513.29,983.725 2513.69,985.125 2514.39,986.325 C2515.89,989.125 2518.69,990.725 2522.59,991.125 C2523.19,991.225 2523.69,991.225 2524.29,991.225 C2527.79,991.225 2531.59,990.225 2535.09,988.325 C2541.69,984.725 2545.79,978.825 2545.79,973.725 C2545.79,972.325 2545.49,971.025 2544.79,969.825 M2540.59,976.125 C2538.89,977.925 2535.69,980.225 2532.09,982.325 C2528.49,984.425 2524.79,986.125 2522.49,986.825 C2521.99,986.925 2521.39,987.025 2520.89,987.025 C2519.39,987.025 2518.09,986.325 2517.39,985.225 C2517.09,984.625 2516.89,984.025 2516.89,983.425 C2516.89,982.325 2517.39,981.225 2518.49,980.025 C2520.19,978.225 2523.39,975.825 2526.99,973.725 C2530.59,971.625 2534.29,969.925 2536.69,969.325 L2536.89,969.325 C2537.49,969.125 2537.99,969.025 2538.49,969.025 C2539.89,969.025 2540.99,969.625 2541.69,970.925 C2541.99,971.525 2542.19,972.025 2542.19,972.625 C2542.19,973.925 2541.49,975.225 2540.59,976.125"/>
<path class="Note" d="M525.903,769.813 C524.403,767.113 521.503,765.413 517.603,765.013 C517.003,764.913 516.503,764.913 515.903,764.913 C512.403,764.913 508.603,765.913 505.103,767.813 C498.503,771.413 494.403,777.313 494.403,782.413 C494.403,783.813 494.603,785.113 495.303,786.313 C496.803,789.013 499.803,790.713 503.703,791.113 C504.303,791.213 504.803,791.213 505.403,791.213 C508.903,791.213 512.603,790.213 516.103,788.313 C522.703,784.713 526.903,778.913 526.903,773.813 C526.903,772.413 526.603,771.013 525.903,769.813"/>
<path class="Note" d="M658.504,757.312 C657.004,754.612 654.104,752.912 650.204,752.512 C649.604,752.412 649.104,752.412 648.504,752.412 C645.004,752.412 641.204,753.412 637.704,755.312 C631.104,758.912 627.004,764.812 627.004,769.912 C627.004,771.312 627.204,772.612 627.904,773.812 C629.404,776.512 632.404,778.212 636.304,778.612 C636.904,778.712 637.404,778.712 638.004,778.712 C641.504,778.712 645.204,777.712 648.704,775.812 C655.304,772.212 659.504,766.412 659.504,761.312 C659.504,759.912 659.204,758.512 658.504,757.312"/>
<path class="Note" d="M791.105,744.811 C789.605,742.111 786.705,740.411 782.805,740.011 C782.205,739.911 781.705,739.911 781.105,739.911 C777.605,739.911 773.805,740.911 770.305,742.811 C763.705,746.411 759.605,752.311 759.605,757.411 C759.605,758.811 759.805,760.111 760.505,761.311 C762.005,764.011 765.005,765.711 768.905,766.111 C769.505,766.211 770.005,766.211 770.605,766.211 C774.105,766.211 777.805,765.211 781.305,763.311 C787.905,759.711 792.105,753.911 792.105,748.811 C792.105,747.411 791.805,746.011 791.105,744.811"/>
<path class="Note" d="M923.705,732.31 C922.205,729.61 919.305,727.91 915.405,727.51 C914.805,727.41 914.305,727.41 913.705,727.41 C910.205,727.41 906.405,728.41 902.905,730.31 C896.305,733.91 892.205,739.81 892.205,744.91 C892.205,746.31 892.405,747.61 893.105,748.81 C894.605,751.51 897.605,753.21 901.505,753.61 C902.105,753.71 902.605,753.71 903.205,753.71 C906.705,753.71 910.405,752.71 913.905,750.81 C920.505,747.21 924.705,741.41 924.705,736.31 C924.705,734.91 924.405,733.51 923.705,732.31"/>
<path class="Note" d="M1113.21,719.809 C1111.71,717.109 1108.81,715.409 1104.91,715.009 C1104.31,714.909 1103.81,714.909 1103.21,714.909 C1099.71,714.909 1095.91,715.909 1092.41,717.809 C1085.81,721.409 1081.71,727.309 1081.71,732.409 C1081.71,733.809 1081.91,735.109 1082.61,736.309 C1084.11,739.009 1087.11,740.709 1091.01,741.109 C1091.61,741.209 1092.11,741.209 1092.71,741.209 C1096.21,741.209 1099.91,740.209 1103.41,738.309 C1110.01,734.709 1114.21,728.909 1114.21,723.809 C1114.21,722.409 1113.91,721.009 1113.21,719.809"/>
<path class="Note" d="M1247.46,707.309 C1245.96,704.609 1243.06,702.909 1239.16,702.509 C1238.56,702.409 1238.06,702.409 1237.46,702.409 C1233.96,702.409 1230.16,703.409 1226.66,705.309 C1220.06,708.909 1215.96,714.809 1215.96,719.909 C1215.96,721.309 1216.16,722.609 1216.86,723.809 C1218.36,726.509 1221.36,728.209 1225.26,728.609 C1225.86,728.709 1226.36,728.709 1226.96,728.709 C1230.46,728.709 1234.16,727.709 1237.66,725.809 C1244.26,722.209 1248.46,716.409 1248.46,711.309 C1248.46,709.909 1248.16,708.509 1247.46,707.309"/>
<path class="Note" d="M1381.71,694.808 C1380.21,692.108 1377.31,690.408 1373.41,690.008 C1372.81,689.908 1372.31,689.908 1371.71,689.908 C1368.21,689.908 1364.41,690.908 1360.91,692.808 C1354.31,696.408 1350.21,702.308 1350.21,707.408 C1350.21,708.808 1350.41,710.108 1351.11,711.308 C1352.61,714.008 1355.61,715.708 1359.51,716.108 C1360.11,716.208 1360.61,716.208 1361.21,716.208 C1364.71,716.208 1368.41,715.208 1371.91,713.308 C1378.51,709.708 1382.71,703.908 1382.71,698.808 C1382.71,697.408 1382.41,696.008 1381.71,694.808"/>
<path class="Note" d="M1515.96,682.307 C1514.46,679.607 1511.56,677.907 1507.66,677.507 C1507.06,677.407 1506.56,677.407 1505.96,677.407 C1502.46,677.407 1498.66,678.407 1495.16,680.307 C1488.56,683.907 1484.46,689.807 1484.46,694.907 C1484.46,696.307 1484.66,697.607 1485.36,698.807 C1486.86,701.507 1489.86,703.207 1493.76,703.607 C1494.36,703.707 1494.86,703.707 1495.46,703.707 C1498.96,703.707 1502.66,702.707 1506.16,700.807 C1512.76,697.207 1516.96,691.407 1516.96,686.307 C1516.96,684.907 1516.66,683.507 1515.96,682.307"/>
<path class="Note" d="M1707.11,694.808 C1705.61,692.108 1702.71,690.408 1698.81,690.008 C1698.21,689.908 1697.71,689.908 1697.11,689.908 C1693.61,689.908 1689.81,690.908 1686.31,692.808 C1679.71,696.408 1675.61,702.308 1675.61,707.408 C1675.61,708.808 1675.81,710.108 1676.51,711.308 C1678.01,714.008 1681.01,715.708 1684.91,716.108 C1685.51,716.208 1686.01,716.208 1686.61,716.208 C1690.11,716.208 1693.81,715.208 1697.31,713.308 C1703.91,709.708 1708.11,703.908 1708.11,698.808 C1708.11,697.408 1707.81,696.008 1707.11,694.808"/>
<path class="Note" d="M1838.74,707.309 C1837.24,704.609 1834.34,702.909 1830.44,702.509 C1829.84,702.409 1829.34,702.409 1828.74,702.409 C1825.24,702.409 1821.44,703.409 1817.94,705.309 C1811.34,708.909 1807.24,714.809 1807.24,719.909 C1807.24,721.309 1807.44,722.609 1808.14,723.809 C1809.64,726.509 1812.64,728.209 1816.54,728.609 C1817.14,728.709 1817.64,728.709 1818.24,728.709 C1821.74,728.709 1825.44,727.709 1828.94,725.809 C1835.54,722.209 1839.74,716.409 1839.74,711.309 C1839.74,709.909 1839.44,708.509 1838.74,707.309"/>
<path class="Note" d="M1970.36,719.809 C1968.86,717.109 1965.96,715.409 1962.06,715.009 C1961.46,714.909 1960.96,714.909 1960.36,714.909 C1956.86,714.909 1953.06,715.909 1949.56,717.809 C1942.96,721.409 1938.86,727.309 1938.86,732.409 C1938.86,733.809 1939.06,735.109 1939.76,736.309 C1941.26,739.009 1944.26,740.709 1948.16,741.109 C1948.76,741.209 1949.26,741.209 1949.86,741.209 C1953.36,741.209 1957.06,740.209 1960.56,738.309 C1967.16,734.709 1971.36,728.909 1971.36,723.809 C1971.36,722.409 1971.06,721.009 1970.36,719.809"/>
<path class="Note" d="M2101.99,732.31 C2100.49,729.61 2097.59,727.91 2093.69,727.51 C2093.09,727.41 2092.59,727.41 2091.99,727.41 C2088.49,727.41 2084.69,728.41 2081.19,730.31 C2074.59,733.91 2070.49,739.81 2070.49,744.91 C2070.49,746.31 2070.69,747.61 2071.39,748.81 C2072.89,751.51 2075.89,753.21 2079.79,753.61 C2080.39,753.71 2080.89,753.71 2081.49,753.71 C2084.99,753.71 2088.69,752.71 2092.19,750.81 C2098.79,747.21 2102.99,741.41 2102.99,736.31 C2102.99,734.91 2102.69,733.51 2101.99,732.31"/>
<path class="Note" d="M2270.62,744.811 C2269.12,742.111 2266.22,740.411 2262.32,740.011 C2261.72,739.911 2261.22,739.911 2260.62,739.911 C2257.12,739.911 2253.32,740.911 2249.82,742.811 C2243.22,746.411 2239.12,752.311 2239.12,757.411 C2239.12,758.811 2239.32,760.111 2240.02,761.311 C2241.52,764.011 2244.52,765.711 2248.42,766.111 C2249.02,766.211 2249.52,766.211 2250.12,766.211 C2253.62,766.211 2257.32,765.211 2260.82,763.311 C2267.42,759.711 2271.62,753.911 2271.62,748.811 C2271.62,747.411 2271.32,746.011 2270.62,744.811"/>
<path class="Note" d="M2407.7,757.312 C2406.2,754.612 2403.3,752.912 2399.4,752.512 C2398.8,752.412 2398.3,752.412 2397.7,752.412 C2394.2,752.412 2390.4,753.412 2386.9,755.312 C2380.3,758.912 2376.2,764.812 2376.2,769.912 C2376.2,771.312 2376.4,772.612 2377.1,773.812 C2378.6,776.512 2381.6,778.212 2385.5,778.612 C2386.1,778.712 2386.6,778.712 2387.2,778.712 C2390.7,778.712 2394.4,777.712 2397.9,775.812 C2404.5,772.212 2408.7,766.412 2408.7,761.312 C2408.7,759.912 2408.4,758.512 2407.7,757.312"/>
<path class="Note" d="M2544.79,769.813 C2543.29,767.113 2540.39,765.413 2536.49,765.013 C2535.89,764.913 2535.39,764.913 2534.79,764.913 C2531.29,764.913 2527.49,765.913 2523.99,767.813 C2517.39,771.413 2513.29,777.213 2513.29,782.313 C2513.29,783.713 2513.69,785.113 2514.39,786.313 C2515.89,789.113 2518.69,790.713 2522.59,791.113 C2523.19,791.213 2523.69,791.213 2524.29,791.213 C2527.79,791.213 2531.59,790.213 2535.09,788.313 C2541.69,784.713 2545.79,778.813 2545.79,773.713 C2545.79,772.313 2545.49,771.013 2544.79,769.813 M2540.59,776.113 C2538.89,777.913 2535.69,780.213 2532.09,782.313 C2528.49,784.413 2524.79,786.113 2522.49,786.813 C2521.99,786.913 2521.39,787.013 2520.89,787.013 C2519.39,787.013 2518.09,786.313 2517.39,785.213 C2517.09,784.613 2516.89,784.013 2516.89,783.413 C2516.89,782.313 2517.39,781.213 2518.49,780.013 C2520.19,778.213 2523.39,775.813 2526.99,773.713 C2530.59,771.613 2534.29,769.913 2536.69,769.313 L2536.89,769.313 C2537.49,769.113 2537.99,769.013 2538.49,769.013 C2539.89,769.013 2540.99,769.613 2541.69,770.913 C2541.99,771.513 2542.19,772.013 2542.19,772.613 C2542.19,773.913 2541.49,775.213 2540.59,776.113"/>
<path class="Clef" d="M297,915.423 C289.4,915.423 283.3,919.823 283.2,919.823 C277.4,924.123 275.1,929.223 274.2,932.723 C273.7,934.523 273.5,936.323 273.5,938.023 C273.5,940.423 273.9,942.623 274.8,944.523 C276,947.223 278.3,949.123 281.3,950.123 C282.5,950.523 283.8,950.723 285.1,950.723 C287.3,950.723 289.6,950.123 291.5,949.023 C294.6,947.323 296.5,943.723 296.5,939.823 C296.5,936.323 294.7,933.123 291.7,931.223 C289.6,929.823 287.6,929.423 285.9,929.423 C284.7,929.423 283.6,929.623 282.7,929.923 C281.7,930.323 280,931.323 279.2,932.023 C279.5,930.123 280.7,927.223 281.8,925.623 C282.9,924.023 285.1,922.023 286.8,921.123 C289.3,919.723 292.5,919.123 296,919.123 C306.2,919.123 311.2,927.323 311.2,944.123 C311.2,953.423 307.7,962.323 304.7,968.223 C301.4,974.823 297,981.123 293.1,984.623 C282.7,994.123 272.9,998.623 272.8,998.623 C272.8,998.623 271.3,999.523 271.7,1001.02 C272,1002.02 272.9,1002.22 273.5,1002.22 C273.6,1002.22 273.9,1002.12 274,1002.12 C274.1,1002.12 285.5,997.423 294.6,990.323 C299.7,986.623 304.3,982.623 308.3,978.323 C311.9,974.423 315,970.223 317.5,966.023 C321.9,958.523 324.4,950.723 324.4,944.023 C324.4,935.723 322.2,928.823 318.1,923.923 C313.4,918.323 306.3,915.423 297,915.423 M328.4,928.123 C328.4,930.923 330.6,933.123 333.2,933.123 C335.8,933.123 338,930.923 338,928.123 C338,925.323 335.8,923.023 333.2,923.023 C330.6,923.023 328.4,925.323 328.4,928.123 M328.4,952.823 C328.4,955.623 330.6,957.923 333.2,957.923 C335.8,957.923 338,955.623 338,952.823 C338,950.023 335.8,947.723 333.2,947.723 C330.6,947.723 328.4,950.023 328.4,952.823"/>
<path class="Clef" d="M335,722.109 C333.8,716.709 331.1,712.809 330.3,711.809 C327.1,707.509 323.1,704.709 318.4,703.309 C316.1,702.609 314,702.409 312,702.409 C311.3,702.409 310.6,702.409 309.9,702.509 C308.9,696.509 307.8,690.609 306.9,685.209 C312.5,679.009 316.2,673.109 318.6,668.709 C322.2,662.009 323.6,657.309 323.7,657.109 C324.9,654.109 325.6,650.309 325.6,645.809 C325.6,643.109 325.3,640.209 324.9,637.209 C323.8,630.109 321.6,623.409 319.1,619.709 C317.8,617.809 316.6,616.709 315.4,616.709 C314.2,616.709 311.7,617.909 308.8,620.709 C306.5,622.909 303.2,626.809 300.6,632.809 C298.3,638.209 297.6,645.109 297.6,651.009 C297.6,652.809 297.7,654.509 297.8,656.109 C298,659.709 298.7,665.509 299.3,669.109 C299.3,669.209 299.6,670.709 300,673.309 L299.3,674.009 C298.3,675.009 297.1,676.109 295.7,677.509 C294.8,678.409 293.9,679.209 292.9,680.209 C284.4,688.409 271.6,700.809 271.6,719.909 C271.6,724.609 272.5,729.009 274.3,733.009 C275.9,736.609 278.2,739.909 281.1,742.809 C288.6,750.209 298.8,753.409 305.9,753.409 L306.5,753.409 C309.4,753.309 312.1,753.009 314.5,752.609 C316.3,762.209 317.5,769.309 317.5,774.609 C317.5,781.109 315.9,785.009 312,787.809 C309.6,789.509 306.7,790.609 303.6,790.709 L302.8,790.709 C301.3,790.709 298.8,790.309 297.3,789.909 C297.3,789.909 297,789.809 297,789.609 C297,789.409 297.4,789.409 297.4,789.409 C299.3,789.009 302.9,787.709 305.3,784.409 C306.4,782.909 307.1,780.609 307.1,778.109 C307.1,776.509 306.8,774.809 306.1,773.309 C305,770.909 302.4,767.909 296.8,767.509 L295.7,767.509 C293.6,767.509 291.8,768.009 290.1,769.009 C288.3,770.109 286.7,771.809 285.7,773.809 C284.6,775.809 284.1,778.009 284.1,780.209 C284.1,783.109 285,785.809 286.8,788.009 C289.8,791.609 294.5,793.909 299.9,794.509 C300.6,794.609 301.7,794.709 302.4,794.709 C306.8,794.709 311.2,793.509 314.8,791.309 C318.5,788.709 320.6,784.709 321.3,779.109 C321.5,777.809 321.5,776.409 321.5,774.909 C321.5,771.009 321,766.309 320,760.509 C319.6,758.409 319.2,755.409 318.5,751.609 C324.3,749.709 328.4,746.009 332.2,740.209 C334.5,736.209 335.6,732.109 335.6,727.809 C335.6,725.909 335.4,724.009 335,722.109 M304.8,644.209 C306.6,638.509 309.3,635.109 311.3,633.409 C313.1,631.909 314.7,631.209 315.6,631.209 C315.7,631.209 315.9,631.309 316,631.309 C316.3,631.409 316.7,631.909 317.1,632.609 C318,634.409 318.9,637.709 318.9,641.409 C318.9,643.309 318.7,645.309 318.1,647.109 C315.9,653.909 311.3,661.209 304.3,668.909 C304.1,667.809 303.9,666.809 303.8,665.809 C303.3,662.609 303,659.409 303,656.509 C303,652.009 303.6,647.909 304.8,644.209 M300.8,748.309 C296.2,747.109 291.7,744.609 287.9,741.109 C286.6,739.909 284.8,737.709 283.3,734.309 C282,731.309 281.3,728.209 281.3,724.809 L281.3,724.109 C281.4,719.409 282.7,714.609 285.2,709.809 C288.1,704.209 292.6,698.709 298.7,693.409 C300.2,692.109 301.6,690.809 302.9,689.509 C303.7,693.809 304.4,698.509 305.3,703.409 C301.4,704.709 296.7,707.709 293.6,713.409 C291.2,717.909 290.5,721.809 290.5,725.009 C290.5,726.509 290.7,727.909 290.9,729.009 C291.8,733.509 294.4,737.209 297.9,739.309 C298.7,739.809 302,741.509 304,741.509 C304.3,741.509 304.6,741.509 304.8,741.409 C305.1,741.309 305.4,741.109 305.5,740.809 C305.6,740.609 305.6,740.409 305.6,740.209 C305.6,739.409 304.8,738.809 303.5,738.009 C302.9,737.609 302.2,737.209 301.5,736.709 C298.9,734.709 297.4,731.609 297.4,728.209 C297.4,727.209 297.6,726.309 297.8,725.309 C298.3,723.309 300,720.509 301.5,719.109 C303.2,717.609 305.2,716.409 307.6,715.809 C309.6,727.009 311.7,738.109 313.3,746.509 C313.4,747.209 313.6,747.909 313.7,748.609 C311.7,749.009 309.7,749.209 307.8,749.209 C305.4,749.209 303.1,748.909 300.8,748.309 M326.5,738.109 C325.3,741.309 322.8,745.309 317.7,747.409 C317.6,747.009 317.6,746.509 317.5,746.109 C316,737.309 314.1,726.409 312.1,715.109 L313.1,715.109 C322.8,715.109 326.7,722.309 327.6,726.909 C327.8,727.809 327.9,729.009 327.9,730.309 C327.9,732.609 327.5,735.409 326.5,738.109"/>
<path class="TimeSig" d="M365.2,953.922 L382,953.922 L382,961.222 L373.9,961.222 C373.1,961.222 372.5,961.822 372.5,962.622 L372.5,964.522 C372.5,965.322 373.1,965.822 373.9,965.822 L403.6,965.822 C404.4,965.822 405,965.322 405,964.522 L405,962.622 C405,961.822 404.4,961.222 403.6,961.222 L394.8,961.222 L394.8,953.922 L403.6,953.922 C404.4,953.922 405,953.322 405,952.522 L405,950.722 C405,949.922 404.4,949.322 403.6,949.322 L394.8,949.322 L394.8,933.622 C394.8,933.122 394.4,932.622 394,932.422 L392.9,931.822 C392.7,931.722 392.4,931.722 392.2,931.722 C391.9,931.722 391.5,931.822 391.3,932.022 L382.4,940.222 C382.2,940.422 382,940.922 382,941.222 L382,949.322 L370.7,949.322 C370.7,949.322 381.6,937.522 393.2,922.022 C394,920.922 393.6,919.922 393.4,919.722 L391.3,917.522 C391.1,917.322 390.6,917.122 390.3,917.122 L375.7,917.122 C375,917.122 374.5,917.722 374.4,918.322 C374.4,918.322 373.9,925.522 371.3,933.522 C368.7,941.522 365.9,946.322 363.3,949.922 C363.3,949.922 362.8,950.922 363.1,951.622 C363.4,952.322 364.1,953.422 364.1,953.422 C364.1,953.422 364.4,953.922 365.2,953.922"/>
<path class="TimeSig" d="M365.2,1002.53 L382,1002.53 L382,1009.83 L373.9,1009.83 C373.1,1009.83 372.5,1010.43 372.5,1011.23 L372.5,1013.13 C372.5,1013.93 373.1,1014.43 373.9,1014.43 L403.6,1014.43 C404.4,1014.43 405,1013.93 405,1013.13 L405,1011.23 C405,1010.43 404.4,1009.83 403.6,1009.83 L394.8,1009.83 L394.8,1002.53 L403.6,1002.53 C404.4,1002.53 405,1001.93 405,1001.13 L405,999.327 C405,998.527 404.4,997.927 403.6,997.927 L394.8,997.927 L394.8,982.227 C394.8,981.727 394.4,981.227 394,981.027 L392.9,980.427 C392.7,980.327 392.4,980.327 392.2,980.327 C391.9,980.327 391.5,980.427 391.3,980.627 L382.4,988.827 C382.2,989.027 382,989.527 382,989.827 L382,997.927 L370.7,997.927 C370.7,997.927 381.6,986.127 393.2,970.627 C394,969.527 393.6,968.527 393.4,968.327 L391.3,966.127 C391.1,965.927 390.6,965.727 390.3,965.727 L375.7,965.727 C375,965.727 374.5,966.327 374.4,966.927 C374.4,966.927 373.9,974.127 371.3,982.127 C368.7,990.127 365.9,994.927 363.3,998.527 C363.3,998.527 362.8,999.527 363.1,1000.23 C363.4,1000.93 364.1,1002.03 364.1,1002.03 C364.1,1002.03 364.4,1002.53 365.2,1002.53"/>
<path class="TimeSig" d="M365.2,691.406 L382,691.406 L382,698.706 L373.9,698.706 C373.1,698.706 372.5,699.306 372.5,700.106 L372.5,702.006 C372.5,702.806 373.1,703.306 373.9,703.306 L403.6,703.306 C404.4,703.306 405,702.806 405,702.006 L405,700.106 C405,699.306 404.4,698.706 403.6,698.706 L394.8,698.706 L394.8,691.406 L403.6,691.406 C404.4,691.406 405,690.806 405,690.006 L405,688.206 C405,687.406 404.4,686.806 403.6,686.806 L394.8,686.806 L394.8,671.106 C394.8,670.606 394.4,670.106 394,669.906 L392.9,669.306 C392.7,669.206 392.4,669.206 392.2,669.206 C391.9,669.206 391.5,669.306 391.3,669.506 L382.4,677.706 C382.2,677.906 382,678.406 382,678.706 L382,686.806 L370.7,686.806 C370.7,686.806 381.6,675.006 393.2,659.506 C394,658.406 393.6,657.406 393.4,657.206 L391.3,655.006 C391.1,654.806 390.6,654.606 390.3,654.606 L375.7,654.606 C375,654.606 374.5,655.206 374.4,655.806 C374.4,655.806 373.9,663.006 371.3,671.006 C368.7,679.006 365.9,683.806 363.3,687.406 C363.3,687.406 362.8,688.406 363.1,689.106 C363.4,689.806 364.1,690.906 364.1,690.906 C364.1,690.906 364.4,691.406 365.2,691.406"/>
<path class="TimeSig" d="M365.2,740.01 L382,740.01 L382,747.31 L373.9,747.31 C373.1,747.31 372.5,747.91 372.5,748.71 L372.5,750.61 C372.5,751.41 373.1,751.91 373.9,751.91 L403.6,751.91 C404.4,751.91 405,751.41 405,750.61 L405,748.71 C405,747.91 404.4,747.31 403.6,747.31 L394.8,747.31 L394.8,740.01 L403.6,740.01 C404.4,740.01 405,739.41 405,738.61 L405,736.81 C405,736.01 404.4,735.41 403.6,735.41 L394.8,735.41 L394.8,719.71 C394.8,719.21 394.4,718.71 394,718.51 L392.9,717.91 C392.7,717.81 392.4,717.81 392.2,717.81 C391.9,717.81 391.5,717.91 391.3,718.11 L382.4,726.31 C382.2,726.51 382,727.01 382,727.31 L382,735.41 L370.7,735.41 C370.7,735.41 381.6,723.61 393.2,708.11 C394,707.01 393.6,706.01 393.4,705.81 L391.3,703.61 C391.1,703.41 390.6,703.21 390.3,703.21 L375.7,703.21 C375,703.21 374.5,703.81 374.4,704.41 C374.4,704.41 373.9,711.61 371.3,719.61 C368.7,727.61 365.9,732.41 363.3,736.01 C363.3,736.01 362.8,737.01 363.1,737.71 C363.4,738.41 364.1,739.51 364.1,739.51 C364.1,739.51 364.4,740.01 365.2,740.01"/>
<path class="Page" d="M226.289,4049.49 C230.384,4048.01 232.274,4045.71 232.274,4042.11 C232.274,4037.39 228.674,4034.37 223.094,4034.37 C217.829,4034.37 213.824,4037.48 213.824,4041.57 C213.824,4043.42 215.039,4044.72 216.794,4044.72 C218.369,4044.72 219.449,4043.64 219.449,4042.02 C219.449,4041.03 219.089,4040.45 218.054,4039.73 C217.604,4039.41 217.469,4039.23 217.469,4038.92 C217.469,4037.66 220.079,4036.31 222.644,4036.31 C225.884,4036.31 227.594,4038.33 227.594,4042.16 C227.594,4046.34 225.884,4048.55 222.689,4048.55 C222.284,4048.55 221.519,4048.5 220.844,4048.46 C220.484,4048.41 220.124,4048.41 219.854,4048.41 C218.909,4048.41 218.414,4048.82 218.414,4049.63 C218.414,4050.39 218.864,4050.75 219.854,4050.75 C220.124,4050.75 220.484,4050.75 220.889,4050.71 C221.789,4050.66 222.509,4050.66 223.004,4050.66 C226.334,4050.66 228.134,4053.05 228.134,4057.5 C228.134,4062.18 225.884,4064.79 221.834,4064.79 C218.999,4064.79 215.939,4063.26 215.939,4061.87 C215.939,4061.46 216.029,4061.37 216.884,4060.88 C218.144,4060.11 218.639,4059.35 218.639,4058.22 C218.639,4056.6 217.424,4055.39 215.804,4055.39 C213.869,4055.39 212.609,4056.96 212.609,4059.35 C212.609,4063.71 216.614,4066.73 222.374,4066.73 C228.899,4066.73 233.129,4063.13 233.129,4057.59 C233.129,4053.36 230.969,4050.8 226.289,4049.49 M251.304,4049.49 C255.399,4048.01 257.289,4045.71 257.289,4042.11 C257.289,4037.39 253.689,4034.37 248.109,4034.37 C242.844,4034.37 238.839,4037.48 238.839,4041.57 C238.839,4043.42 240.054,4044.72 241.809,4044.72 C243.384,4044.72 244.464,4043.64 244.464,4042.02 C244.464,4041.03 244.104,4040.45 243.069,4039.73 C242.619,4039.41 242.484,4039.23 242.484,4038.92 C242.484,4037.66 245.094,4036.31 247.659,4036.31 C250.899,4036.31 252.609,4038.33 252.609,4042.16 C252.609,4046.34 250.899,4048.55 247.704,4048.55 C247.299,4048.55 246.534,4048.5 245.859,4048.46 C245.499,4048.41 245.139,4048.41 244.869,4048.41 C243.924,4048.41 243.429,4048.82 243.429,4049.63 C243.429,4050.39 243.879,4050.75 244.869,4050.75 C245.139,4050.75 245.499,4050.75 245.904,4050.71 C246.804,4050.66 247.524,4050.66 248.019,4050.66 C251.349,4050.66 253.149,4053.05 253.149,4057.5 C253.149,4062.18 250.899,4064.79 246.849,4064.79 C244.014,4064.79 240.954,4063.26 240.954,4061.87 C240.954,4061.46 241.044,4061.37 241.899,4060.88 C243.159,4060.11 243.654,4059.35 243.654,4058.22 C243.654,4056.6 242.439,4055.39 240.819,4055.39 C238.884,4055.39 237.624,4056.96 237.624,4059.35 C237.624,4063.71 241.629,4066.73 247.389,4066.73 C253.914,4066.73 258.144,4063.13 258.144,4057.59 C258.144,4053.36 255.984,4050.8 251.304,4049.49"/>
<path class="Bracket" transform="matrix(3.62523,0,0,3.62523,214.469,1015.53)" d="M0.92002,-50 C2.69004,-51.88 6.2,-55.8 6.2,-63 C6.2,-72.1 2.25996,-81.32 2.25996,-86.97 C2.25996,-93.06 5.84004,-98.84 5.95,-99 C6.05996,-99.16 6.05,-99.39 5.94004,-99.46 C5.82998,-99.53 5.62002,-99.47 5.49004,-99.32 C5.35996,-99.17 0,-93.75 0,-85.6 C0,-76.75 3.5,-70.58 3.5,-59.07 C3.5,-56.89 2.55996,-53.36 0.1,-50.33 C-0.0799805,-50.17 -0.1,-49.89 0.0599609,-49.7 L0.0700195,-49.69 L0.1,-49.66 C2.55996,-46.63 3.5,-43.1 3.5,-40.92 C3.5,-29.4 0,-23.24 0,-14.39 C0,-6.25 5.35996,-0.8 5.49004,-0.659961 C5.62002,-0.52002 5.8,-0.42998 5.94004,-0.52002 C6.07998,-0.609961 6.07998,-0.77998 5.95,-0.97998 C5.82002,-1.17998 2.25996,-6.92002 2.25996,-13.01 C2.25996,-18.66 6.2,-27.9 6.2,-37 C6.2,-44.3 2.69004,-48.12 0.92002,-50"/>
</svg>