<?xml version="1.0" encoding="UTF-8" standalone="no"?>
<svg width="1000px" height="220px" viewBox="150 600 2700 500" xmlns="http://www.w3.org/2000/svg" xmlns:xlink="http://www.w3.org/1999/xlink" version="1.2" baseProfile="tiny">
 xmlns="http://www.w3.org/2000/svg" xmlns:xlink="http://www.w3.org/1999/xlink" version="1.2" baseProfile="tiny">
<title>exercises_scores (7)</title>
<desc>Generated by MuseScore 3.6.0</desc>
<polyline class="StaffLines" fill="none" stroke="#000000" stroke-width="2.75" stroke-linejoin="bevel" points="247.099,659.598 2764.63,659.598"/>
<polyline class="StaffLines" fill="none" stroke="#000000" stroke-width="2.75" stroke-linejoin="bevel" points="247.099,684.6 2764.63,684.6"/>
<polyline class="StaffLines" fill="none" stroke="#000000" stroke-width="2.75" stroke-linejoin="bevel" points="247.099,709.602 2764.63,709.602"/>
<polyline class="StaffLines" fill="none" stroke="#000000" stroke-width="2.75" stroke-linejoin="bevel" points="247.099,734.603 2764.63,734.603"/>
<polyline class="StaffLines" fill="none" stroke="#000000" stroke-width="2.75" stroke-linejoin="bevel" points="247.099,759.605 2764.63,759.605"/>
<polyline class="StaffLines" fill="none" stroke="#000000" stroke-width="2.75" stroke-linejoin="bevel" points="247.099,922.115 2764.63,922.115"/>
<polyline class="StaffLines" fill="none" stroke="#000000" stroke-width="2.75" stroke-linejoin="bevel" points="247.099,947.117 2764.63,947.117"/>
<polyline class="StaffLines" fill="none" stroke="#000000" stroke-width="2.75" stroke-linejoin="bevel" points="247.099,972.118 2764.63,972.118"/>
<polyline class="StaffLines" fill="none" stroke="#000000" stroke-width="2.75" stroke-linejoin="bevel" points="247.099,997.12 2764.63,997.12"/>
<polyline class="StaffLines" fill="none" stroke="#000000" stroke-width="2.75" stroke-linejoin="bevel" points="247.099,1022.12 2764.63,1022.12"/>
<path class="Text" d="M242.312,216.2 L240.092,216.2 L237.692,219.8 C234.812,217.1 231.032,215.66 226.772,215.66 C218.852,215.66 213.632,220.64 213.632,228.2 C213.632,234.74 216.872,237.98 225.692,240.26 L231.392,241.7 C235.832,242.84 236.252,242.96 237.512,243.92 C239.312,245.3 240.272,247.28 240.272,249.62 C240.272,252.02 239.372,254 237.572,255.68 C235.592,257.36 233.612,258.02 230.312,258.02 C225.872,258.02 222.692,256.64 219.872,253.52 C217.352,250.76 216.092,247.88 215.192,243.26 L212.612,243.26 L212.852,260.36 L215.192,260.36 L217.892,256.28 C221.912,259.58 225.212,260.78 230.492,260.78 C239.312,260.78 244.952,255.62 244.952,247.58 C244.952,243.8 243.752,240.68 241.352,238.4 C239.732,236.84 237.392,235.82 232.592,234.62 L226.172,233 C220.832,231.62 218.312,229.28 218.312,225.62 C218.312,221.42 221.732,218.54 226.832,218.54 C231.032,218.54 234.452,220.34 236.852,223.76 C238.592,226.22 239.732,228.74 240.452,231.8 L243.032,231.8 L242.312,216.2 M271.162,251.06 C269.242,255.38 267.202,257.12 264.082,257.12 C259.282,257.12 256.282,252.74 256.282,245.72 C256.282,238.4 259.222,233.6 263.662,233.6 C265.462,233.6 267.022,234.44 267.022,235.4 C267.022,235.58 266.962,235.76 266.662,236.12 C265.702,237.26 265.462,237.86 265.462,238.88 C265.462,240.86 266.962,242.24 269.062,242.24 C271.222,242.24 272.722,240.56 272.722,238.16 C272.722,234.08 268.702,231.02 263.362,231.02 C255.562,231.02 249.982,237.38 249.982,246.38 C249.982,254.9 255.082,260.78 262.522,260.78 C267.862,260.78 270.922,258.32 273.502,251.96 L271.162,251.06 M301.75,240.56 C301.75,236.78 301.09,234.86 299.35,233.42 C297.37,231.8 294.43,231.02 290.59,231.02 C283.81,231.02 278.89,234.2 278.89,238.58 C278.89,240.8 280.27,242.24 282.37,242.24 C284.29,242.24 285.61,240.98 285.61,239.18 C285.61,238.4 285.31,237.56 284.71,236.72 C284.35,236.3 284.29,236.18 284.29,235.88 C284.29,234.68 286.69,233.6 289.57,233.6 C291.49,233.6 293.59,234.2 294.55,235.1 C295.69,236.06 296.11,237.5 296.11,240.2 L296.11,242.54 C289.87,243.62 287.89,244.1 284.95,245.24 C279.73,247.16 277.27,249.92 277.27,253.76 C277.27,258.08 280.63,260.78 285.97,260.78 C290.11,260.78 293.83,259.1 296.41,256.04 C297.37,259.1 298.87,260.3 301.69,260.3 C304.39,260.3 307.21,258.56 307.21,256.82 C307.21,256.4 306.97,256.1 306.61,256.1 C306.37,256.1 306.13,256.16 305.71,256.34 C304.87,256.7 304.51,256.76 304.03,256.76 C302.35,256.76 301.75,255.68 301.75,252.62 L301.75,240.56 M296.11,247.88 C296.11,251.48 295.93,252.32 294.91,253.88 C293.41,256.1 290.71,257.6 288.07,257.6 C285.31,257.6 283.33,255.62 283.33,252.92 C283.33,250.4 284.59,248.6 287.23,247.34 C289.09,246.5 291.43,245.9 296.11,245.12 L296.11,247.88 M320.229,215.66 L309.129,216.32 L309.129,218.9 L312.069,218.9 C314.289,218.96 314.589,219.32 314.589,221.9 L314.589,252.5 L314.589,255.32 C314.529,256.22 314.469,256.58 314.229,256.88 C313.809,257.42 312.669,257.66 310.089,257.72 L309.669,257.72 L309.669,259.88 L325.209,259.88 L325.209,257.72 L324.789,257.72 C320.769,257.6 320.229,257.3 320.229,255.14 L320.229,252.5 L320.229,215.66 M354.78,246.38 C354.84,237.38 349.74,231.02 342.42,231.02 C334.74,231.02 328.98,237.68 328.98,246.68 C328.98,255.14 334.44,260.78 342.54,260.78 C348.3,260.78 352.32,257.96 354.78,252.26 L352.68,251.12 C350.22,255.74 347.7,257.54 343.68,257.54 C340.62,257.54 338.4,256.28 336.84,253.58 C335.76,251.78 335.28,249.68 335.34,246.38 L354.78,246.38 M335.4,243.8 C335.4,241.94 335.64,240.62 336.24,238.94 C337.5,235.34 339.42,233.6 342.36,233.6 C345.96,233.6 348.36,236.78 348.36,241.64 C348.36,243.32 347.82,243.8 345.9,243.8 L335.4,243.8 M366.601,253.22 C364.501,253.22 362.821,254.9 362.821,256.94 C362.821,259.04 364.501,260.72 366.541,260.72 C368.641,260.72 370.321,259.04 370.321,256.94 C370.321,254.9 368.641,253.22 366.601,253.22 M366.601,231.5 C364.501,231.5 362.821,233.18 362.821,235.28 C362.821,237.32 364.501,239 366.541,239 C368.641,239 370.321,237.32 370.321,235.22 C370.321,233.18 368.641,231.5 366.601,231.5 M429.345,216.14 L427.065,216.14 L424.665,219.68 C420.285,216.5 418.065,215.66 413.925,215.66 C408.225,215.66 403.365,218.06 399.345,222.86 C395.505,227.42 393.705,232.46 393.705,238.64 C393.705,251.6 402.165,260.78 413.985,260.78 C423.585,260.78 429.705,255.14 431.085,245.06 L428.265,244.58 C426.645,253.52 422.085,257.96 414.705,257.96 C405.825,257.96 401.625,251.84 401.625,238.88 C401.625,232.04 402.525,227.54 404.565,223.94 C406.425,220.58 410.085,218.48 413.985,218.48 C418.185,218.48 421.905,220.7 424.185,224.54 C425.325,226.52 426.165,228.74 427.605,233.48 L430.245,233.48 L429.345,216.14 M454.237,242.18 C453.757,239.06 451.909,236.18 447.829,236.18 C443.749,236.18 441.595,238.622 441.199,239.096 L441.469,213.71 C441.469,213.706 441.469,213.701 441.469,213.698 C441.469,213.092 440.977,212.6 440.371,212.6 L440.371,212.6 L439.435,212.6 C439.183,212.601 438.834,212.746 438.655,212.924 C438.48,213.098 438.337,213.441 438.337,213.689 C438.337,213.695 438.337,213.704 438.337,213.71 L438.763,261.314 C438.77,261.913 439.262,262.4 439.861,262.4 L439.861,262.4 C440.055,262.399 440.34,262.308 440.497,262.196 C440.809,262.046 445.885,259.55 450.193,254.702 C453.871,250.568 454.837,245.72 454.237,242.18 M448.807,245.324 C448.801,246.482 448.513,250.166 446.509,253.166 C445.135,255.224 442.501,257.396 440.989,258.554 L441.157,243.104 C441.337,242.36 442.531,240.086 445.711,240.098 C449.185,240.11 448.807,244.166 448.807,245.324 M487.049,231.92 L476.369,232.58 L476.369,235.16 L478.829,235.16 C481.109,235.22 481.409,235.58 481.409,238.16 L481.409,252.5 L481.409,254.84 L481.409,255.32 C481.349,256.22 481.289,256.58 481.049,256.88 C480.629,257.42 479.489,257.66 476.909,257.72 L476.669,257.72 L476.669,259.88 L491.789,259.88 L491.789,257.72 L491.549,257.72 C487.589,257.6 487.049,257.3 487.049,255.08 L487.049,252.5 L487.049,243.98 C487.049,238.64 489.989,234.68 493.889,234.68 C497.309,234.68 499.049,237.14 499.049,242 L499.049,252.5 L499.049,255.38 C498.989,256.16 498.929,256.58 498.629,256.88 C498.269,257.42 497.069,257.66 494.489,257.72 L494.249,257.72 L494.249,259.88 L509.429,259.88 L509.429,257.72 L509.189,257.72 C505.229,257.6 504.689,257.3 504.689,255.14 L504.689,252.5 L504.689,244.52 C504.689,238.52 507.389,234.68 511.589,234.68 C515.009,234.68 516.689,237.26 516.689,242.66 L516.689,252.5 L516.689,255.32 C516.629,256.16 516.569,256.58 516.269,256.88 C515.909,257.42 514.709,257.66 512.129,257.72 L511.889,257.72 L511.889,259.88 L527.069,259.88 L527.069,257.72 L526.829,257.72 C522.869,257.6 522.329,257.3 522.329,255.08 L522.329,252.5 L522.329,241.46 C522.329,237.74 521.969,236.48 520.409,234.44 C518.669,232.22 516.209,231.02 513.329,231.02 C509.429,231.02 506.549,232.88 503.969,237.02 C502.949,233.42 499.709,231.02 495.689,231.02 C492.029,231.02 489.389,232.76 487.049,236.54 L487.049,231.92 M555.437,240.56 C555.437,236.78 554.777,234.86 553.037,233.42 C551.057,231.8 548.117,231.02 544.277,231.02 C537.497,231.02 532.577,234.2 532.577,238.58 C532.577,240.8 533.957,242.24 536.057,242.24 C537.977,242.24 539.297,240.98 539.297,239.18 C539.297,238.4 538.997,237.56 538.397,236.72 C538.037,236.3 537.977,236.18 537.977,235.88 C537.977,234.68 540.377,233.6 543.257,233.6 C545.177,233.6 547.277,234.2 548.237,235.1 C549.377,236.06 549.797,237.5 549.797,240.2 L549.797,242.54 C543.557,243.62 541.577,244.1 538.637,245.24 C533.417,247.16 530.957,249.92 530.957,253.76 C530.957,258.08 534.317,260.78 539.657,260.78 C543.797,260.78 547.517,259.1 550.097,256.04 C551.057,259.1 552.557,260.3 555.377,260.3 C558.077,260.3 560.897,258.56 560.897,256.82 C560.897,256.4 560.657,256.1 560.297,256.1 C560.057,256.1 559.817,256.16 559.397,256.34 C558.557,256.7 558.197,256.76 557.717,256.76 C556.037,256.76 555.437,255.68 555.437,252.62 L555.437,240.56 M549.797,247.88 C549.797,251.48 549.617,252.32 548.597,253.88 C547.097,256.1 544.397,257.6 541.757,257.6 C538.997,257.6 537.017,255.62 537.017,252.92 C537.017,250.4 538.277,248.6 540.917,247.34 C542.777,246.5 545.117,245.9 549.797,245.12 L549.797,247.88 M572.362,231.92 L560.662,232.58 L560.662,235.16 L564.142,235.16 C566.422,235.22 566.722,235.58 566.722,238.16 L566.722,258.5 C566.722,263.36 566.422,265.64 565.582,267.38 C564.982,268.58 563.602,269.48 562.282,269.48 C561.442,269.48 560.782,269.12 560.782,268.7 C560.782,268.46 560.842,268.34 561.082,267.74 C561.382,267.14 561.502,266.72 561.502,266.3 C561.502,264.8 560.062,263.48 558.382,263.48 C556.462,263.48 555.022,264.98 555.022,267.08 C555.022,270.02 557.722,272 561.742,272 C565.102,272 568.162,270.56 569.902,268.1 C571.762,265.46 572.362,262.4 572.362,255.62 L572.362,231.92 M569.542,216.98 C567.622,216.98 566.062,218.54 566.062,220.46 C566.062,222.38 567.622,223.94 569.482,223.94 C571.462,223.94 573.022,222.38 573.022,220.46 C573.022,218.54 571.462,216.98 569.542,216.98 M592.812,231.02 C585.432,231.02 579.732,237.56 579.732,245.96 C579.732,254.18 585.492,260.78 592.692,260.78 C599.892,260.78 605.652,254.18 605.652,245.9 C605.652,237.68 599.892,231.02 592.812,231.02 M592.812,233.6 C597.012,233.6 599.352,237.98 599.352,245.9 C599.352,253.88 597.012,258.2 592.692,258.2 C588.372,258.2 586.032,253.88 586.032,245.96 C586.032,237.8 588.312,233.6 592.812,233.6 M619.572,231.92 L608.952,232.58 L608.952,235.16 L611.412,235.16 C613.692,235.22 613.992,235.58 613.992,238.16 L613.992,252.5 L613.992,255.32 C613.932,256.22 613.872,256.58 613.632,256.88 C613.212,257.42 612.012,257.66 609.432,257.72 L609.192,257.72 L609.192,259.88 L625.212,259.88 L625.212,257.72 L624.132,257.72 C620.112,257.6 619.572,257.3 619.572,255.14 L619.572,252.5 L619.572,251.9 C619.632,241.82 623.232,234.14 627.912,233.9 C627.072,234.86 626.832,235.46 626.832,236.6 C626.832,238.52 628.212,239.9 630.132,239.9 C632.352,239.9 633.792,238.28 633.792,235.88 C633.792,232.94 631.752,231.02 628.572,231.02 C624.792,231.02 621.552,234.02 619.572,239.36 L619.572,231.92 "/>
<polyline class="BarLine" fill="none" stroke="#000000" stroke-width="4.50" stroke-linejoin="bevel" points="249.349,920.74 249.349,1023.5"/>
<polyline class="BarLine" fill="none" stroke="#000000" stroke-width="4.50" stroke-linejoin="bevel" points="1031.7,920.74 1031.7,1023.5"/>
<polyline class="BarLine" fill="none" stroke="#000000" stroke-width="4.50" stroke-linejoin="bevel" points="1630.24,920.74 1630.24,1023.5"/>
<polyline class="BarLine" fill="none" stroke="#000000" stroke-width="4.50" stroke-linejoin="bevel" points="2218.29,920.74 2218.29,1023.5"/>
<polyline class="BarLine" fill="none" stroke="#000000" stroke-width="4.50" stroke-linejoin="bevel" points="2734.88,920.74 2734.88,1023.5"/>
<polyline class="BarLine" fill="none" stroke="#000000" stroke-width="13.75" stroke-linejoin="bevel" points="2757.75,920.74 2757.75,1023.5"/>
<polyline class="BarLine" fill="none" stroke="#000000" stroke-width="4.50" stroke-linejoin="bevel" points="249.349,658.223 249.349,922.115"/>
<polyline class="BarLine" fill="none" stroke="#000000" stroke-width="4.50" stroke-linejoin="bevel" points="1031.7,658.223 1031.7,922.115"/>
<polyline class="BarLine" fill="none" stroke="#000000" stroke-width="4.50" stroke-linejoin="bevel" points="1630.24,658.223 1630.24,922.115"/>
<polyline class="BarLine" fill="none" stroke="#000000" stroke-width="4.50" stroke-linejoin="bevel" points="2218.29,658.223 2218.29,922.115"/>
<polyline class="BarLine" fill="none" stroke="#000000" stroke-width="4.50" stroke-linejoin="bevel" points="2734.88,658.223 2734.88,922.115"/>
<polyline class="BarLine" fill="none" stroke="#000000" stroke-width="13.75" stroke-linejoin="bevel" points="2757.75,658.223 2757.75,922.115"/>
<path class="Accidental" d="M483.853,976.719 C483.253,972.819 480.853,969.119 475.753,969.119 C470.753,969.119 467.853,972.219 467.353,972.819 L467.753,940.719 C467.753,939.919 467.153,939.319 466.353,939.319 L465.153,939.319 C464.353,939.319 463.753,939.919 463.753,940.719 L464.253,1000.82 C464.253,1001.62 464.853,1002.22 465.653,1002.22 C465.853,1002.22 466.253,1002.12 466.453,1002.02 C466.853,1001.82 473.353,998.619 478.753,992.519 C482.553,988.219 484.053,983.319 484.053,979.219 C484.053,978.319 483.953,977.519 483.853,976.719 M476.953,980.619 C476.953,982.119 476.553,986.719 474.053,990.519 C472.353,993.119 468.953,995.819 467.053,997.319 L467.353,977.819 C467.553,976.919 469.053,974.019 473.053,974.019 C476.653,974.019 476.953,977.419 476.953,979.519 L476.953,980.619 "/>
<path class="Accidental" d="M618.639,964.218 C618.039,960.318 615.639,956.618 610.539,956.618 C605.539,956.618 602.639,959.718 602.139,960.318 L602.539,928.218 C602.539,927.418 601.939,926.818 601.139,926.818 L599.939,926.818 C599.139,926.818 598.539,927.418 598.539,928.218 L599.039,988.318 C599.039,989.118 599.639,989.718 600.439,989.718 C600.639,989.718 601.039,989.618 601.239,989.518 C601.639,989.318 608.139,986.118 613.539,980.018 C617.339,975.718 618.839,970.818 618.839,966.718 C618.839,965.818 618.739,965.018 618.639,964.218 M611.739,968.118 C611.739,969.618 611.339,974.218 608.839,978.018 C607.139,980.618 603.739,983.318 601.839,984.818 L602.139,965.318 C602.339,964.418 603.839,961.518 607.839,961.518 C611.439,961.518 611.739,964.918 611.739,967.018 L611.739,968.118 "/>
<path class="Accidental" d="M753.425,951.717 C752.825,947.817 750.425,944.117 745.325,944.117 C740.325,944.117 737.425,947.217 736.925,947.817 L737.325,915.717 C737.325,914.917 736.725,914.317 735.925,914.317 L734.725,914.317 C733.925,914.317 733.325,914.917 733.325,915.717 L733.825,975.817 C733.825,976.617 734.425,977.217 735.225,977.217 C735.425,977.217 735.825,977.117 736.025,977.017 C736.425,976.817 742.925,973.617 748.325,967.517 C752.125,963.217 753.625,958.317 753.625,954.217 C753.625,953.317 753.525,952.517 753.425,951.717 M746.525,955.617 C746.525,957.117 746.125,961.717 743.625,965.517 C741.925,968.117 738.525,970.817 736.625,972.317 L736.925,952.817 C737.125,951.917 738.625,949.017 742.625,949.017 C746.225,949.017 746.525,952.417 746.525,954.517 L746.525,955.617 "/>
<path class="Accidental" d="M888.211,939.217 C887.611,935.317 885.211,931.617 880.111,931.617 C875.111,931.617 872.211,934.717 871.711,935.317 L872.111,903.217 C872.111,902.417 871.511,901.817 870.711,901.817 L869.511,901.817 C868.711,901.817 868.111,902.417 868.111,903.217 L868.611,963.317 C868.611,964.117 869.211,964.717 870.011,964.717 C870.211,964.717 870.611,964.617 870.811,964.517 C871.211,964.317 877.711,961.117 883.111,955.017 C886.911,950.717 888.411,945.817 888.411,941.717 C888.411,940.817 888.311,940.017 888.211,939.217 M881.311,943.117 C881.311,944.617 880.911,949.217 878.411,953.017 C876.711,955.617 873.311,958.317 871.411,959.817 L871.711,940.317 C871.911,939.417 873.411,936.517 877.411,936.517 C881.011,936.517 881.311,939.917 881.311,942.017 L881.311,943.117 "/>
<path class="Accidental" d="M1075.8,926.716 C1075.2,922.816 1072.8,919.116 1067.7,919.116 C1062.7,919.116 1059.8,922.216 1059.3,922.816 L1059.7,890.716 C1059.7,889.916 1059.1,889.316 1058.3,889.316 L1057.1,889.316 C1056.3,889.316 1055.7,889.916 1055.7,890.716 L1056.2,950.816 C1056.2,951.616 1056.8,952.216 1057.6,952.216 C1057.8,952.216 1058.2,952.116 1058.4,952.016 C1058.8,951.816 1065.3,948.616 1070.7,942.516 C1074.5,938.216 1076,933.316 1076,929.216 C1076,928.316 1075.9,927.516 1075.8,926.716 M1068.9,930.616 C1068.9,932.116 1068.5,936.716 1066,940.516 C1064.3,943.116 1060.9,945.816 1059,947.316 L1059.3,927.816 C1059.5,926.916 1061,924.016 1065,924.016 C1068.6,924.016 1068.9,927.416 1068.9,929.516 L1068.9,930.616 "/>
<path class="Accidental" d="M1212.23,914.215 C1211.63,910.315 1209.23,906.615 1204.13,906.615 C1199.13,906.615 1196.23,909.715 1195.73,910.315 L1196.13,878.215 C1196.13,877.415 1195.53,876.815 1194.73,876.815 L1193.53,876.815 C1192.73,876.815 1192.13,877.415 1192.13,878.215 L1192.63,938.315 C1192.63,939.115 1193.23,939.715 1194.03,939.715 C1194.23,939.715 1194.63,939.615 1194.83,939.515 C1195.23,939.315 1201.73,936.115 1207.13,930.015 C1210.93,925.715 1212.43,920.815 1212.43,916.715 C1212.43,915.815 1212.33,915.015 1212.23,914.215 M1205.33,918.115 C1205.33,919.615 1204.93,924.215 1202.43,928.015 C1200.73,930.615 1197.33,933.315 1195.43,934.815 L1195.73,915.315 C1195.93,914.415 1197.43,911.515 1201.43,911.515 C1205.03,911.515 1205.33,914.915 1205.33,917.015 L1205.33,918.115 "/>
<path class="Accidental" d="M1348.67,901.714 C1348.07,897.814 1345.67,894.114 1340.57,894.114 C1335.57,894.114 1332.67,897.214 1332.17,897.814 L1332.57,865.714 C1332.57,864.914 1331.97,864.314 1331.17,864.314 L1329.97,864.314 C1329.17,864.314 1328.57,864.914 1328.57,865.714 L1329.07,925.814 C1329.07,926.614 1329.67,927.214 1330.47,927.214 C1330.67,927.214 1331.07,927.114 1331.27,927.014 C1331.67,926.814 1338.17,923.614 1343.57,917.514 C1347.37,913.214 1348.87,908.314 1348.87,904.214 C1348.87,903.314 1348.77,902.514 1348.67,901.714 M1341.77,905.614 C1341.77,907.114 1341.37,911.714 1338.87,915.514 C1337.17,918.114 1333.77,920.814 1331.87,922.314 L1332.17,902.814 C1332.37,901.914 1333.87,899.014 1337.87,899.014 C1341.47,899.014 1341.77,902.414 1341.77,904.514 L1341.77,905.614 "/>
<path class="Accidental" d="M1476.36,889.213 C1475.76,885.313 1473.36,881.613 1468.26,881.613 C1463.26,881.613 1460.36,884.713 1459.86,885.313 L1460.26,853.213 C1460.26,852.413 1459.66,851.813 1458.86,851.813 L1457.66,851.813 C1456.86,851.813 1456.26,852.413 1456.26,853.213 L1456.76,913.313 C1456.76,914.113 1457.36,914.713 1458.16,914.713 C1458.36,914.713 1458.76,914.613 1458.96,914.513 C1459.36,914.313 1465.86,911.113 1471.26,905.013 C1475.06,900.713 1476.56,895.813 1476.56,891.713 C1476.56,890.813 1476.46,890.013 1476.36,889.213 M1469.46,893.113 C1469.46,894.613 1469.06,899.213 1466.56,903.013 C1464.86,905.613 1461.46,908.313 1459.56,909.813 L1459.86,890.313 C1460.06,889.413 1461.56,886.513 1465.56,886.513 C1469.16,886.513 1469.46,889.913 1469.46,892.013 L1469.46,893.113 "/>
<path class="Accidental" d="M1674.34,901.714 C1673.74,897.814 1671.34,894.114 1666.24,894.114 C1661.24,894.114 1658.34,897.214 1657.84,897.814 L1658.24,865.714 C1658.24,864.914 1657.64,864.314 1656.84,864.314 L1655.64,864.314 C1654.84,864.314 1654.24,864.914 1654.24,865.714 L1654.74,925.814 C1654.74,926.614 1655.34,927.214 1656.14,927.214 C1656.34,927.214 1656.74,927.114 1656.94,927.014 C1657.34,926.814 1663.84,923.614 1669.24,917.514 C1673.04,913.214 1674.54,908.314 1674.54,904.214 C1674.54,903.314 1674.44,902.514 1674.34,901.714 M1667.44,905.614 C1667.44,907.114 1667.04,911.714 1664.54,915.514 C1662.84,918.114 1659.44,920.814 1657.54,922.314 L1657.84,902.814 C1658.04,901.914 1659.54,899.014 1663.54,899.014 C1667.14,899.014 1667.44,902.414 1667.44,904.514 L1667.44,905.614 "/>
<path class="Accidental" d="M1808.15,914.215 C1807.55,910.315 1805.15,906.615 1800.05,906.615 C1795.05,906.615 1792.15,909.715 1791.65,910.315 L1792.05,878.215 C1792.05,877.415 1791.45,876.815 1790.65,876.815 L1789.45,876.815 C1788.65,876.815 1788.05,877.415 1788.05,878.215 L1788.55,938.315 C1788.55,939.115 1789.15,939.715 1789.95,939.715 C1790.15,939.715 1790.55,939.615 1790.75,939.515 C1791.15,939.315 1797.65,936.115 1803.05,930.015 C1806.85,925.715 1808.35,920.815 1808.35,916.715 C1808.35,915.815 1808.25,915.015 1808.15,914.215 M1801.25,918.115 C1801.25,919.615 1800.85,924.215 1798.35,928.015 C1796.65,930.615 1793.25,933.315 1791.35,934.815 L1791.65,915.315 C1791.85,914.415 1793.35,911.515 1797.35,911.515 C1800.95,911.515 1801.25,914.915 1801.25,917.015 L1801.25,918.115 "/>
<path class="Accidental" d="M1941.96,926.716 C1941.36,922.816 1938.96,919.116 1933.86,919.116 C1928.86,919.116 1925.96,922.216 1925.46,922.816 L1925.86,890.716 C1925.86,889.916 1925.26,889.316 1924.46,889.316 L1923.26,889.316 C1922.46,889.316 1921.86,889.916 1921.86,890.716 L1922.36,950.816 C1922.36,951.616 1922.96,952.216 1923.76,952.216 C1923.96,952.216 1924.36,952.116 1924.56,952.016 C1924.96,951.816 1931.46,948.616 1936.86,942.516 C1940.66,938.216 1942.16,933.316 1942.16,929.216 C1942.16,928.316 1942.06,927.516 1941.96,926.716 M1935.06,930.616 C1935.06,932.116 1934.66,936.716 1932.16,940.516 C1930.46,943.116 1927.06,945.816 1925.16,947.316 L1925.46,927.816 C1925.66,926.916 1927.16,924.016 1931.16,924.016 C1934.76,924.016 1935.06,927.416 1935.06,929.516 L1935.06,930.616 "/>
<path class="Accidental" d="M2075.78,939.217 C2075.18,935.317 2072.78,931.617 2067.68,931.617 C2062.68,931.617 2059.78,934.717 2059.28,935.317 L2059.68,903.217 C2059.68,902.417 2059.08,901.817 2058.28,901.817 L2057.08,901.817 C2056.28,901.817 2055.68,902.417 2055.68,903.217 L2056.18,963.317 C2056.18,964.117 2056.78,964.717 2057.58,964.717 C2057.78,964.717 2058.18,964.617 2058.38,964.517 C2058.78,964.317 2065.28,961.117 2070.68,955.017 C2074.48,950.717 2075.98,945.817 2075.98,941.717 C2075.98,940.817 2075.88,940.017 2075.78,939.217 M2068.88,943.117 C2068.88,944.617 2068.48,949.217 2065.98,953.017 C2064.28,955.617 2060.88,958.317 2058.98,959.817 L2059.28,940.317 C2059.48,939.417 2060.98,936.517 2064.98,936.517 C2068.58,936.517 2068.88,939.917 2068.88,942.017 L2068.88,943.117 "/>
<path class="Accidental" d="M2262.39,951.717 C2261.79,947.817 2259.39,944.117 2254.29,944.117 C2249.29,944.117 2246.39,947.217 2245.89,947.817 L2246.29,915.717 C2246.29,914.917 2245.69,914.317 2244.89,914.317 L2243.69,914.317 C2242.89,914.317 2242.29,914.917 2242.29,915.717 L2242.79,975.817 C2242.79,976.617 2243.39,977.217 2244.19,977.217 C2244.39,977.217 2244.79,977.117 2244.99,977.017 C2245.39,976.817 2251.89,973.617 2257.29,967.517 C2261.09,963.217 2262.59,958.317 2262.59,954.217 C2262.59,953.317 2262.49,952.517 2262.39,951.717 M2255.49,955.617 C2255.49,957.117 2255.09,961.717 2252.59,965.517 C2250.89,968.117 2247.49,970.817 2245.59,972.317 L2245.89,952.817 C2246.09,951.917 2247.59,949.017 2251.59,949.017 C2255.19,949.017 2255.49,952.417 2255.49,954.517 L2255.49,955.617 "/>
<path class="Accidental" d="M2391.22,964.218 C2390.62,960.318 2388.22,956.618 2383.12,956.618 C2378.12,956.618 2375.22,959.718 2374.72,960.318 L2375.12,928.218 C2375.12,927.418 2374.52,926.818 2373.72,926.818 L2372.52,926.818 C2371.72,926.818 2371.12,927.418 2371.12,928.218 L2371.62,988.318 C2371.62,989.118 2372.22,989.718 2373.02,989.718 C2373.22,989.718 2373.62,989.618 2373.82,989.518 C2374.22,989.318 2380.72,986.118 2386.12,980.018 C2389.92,975.718 2391.42,970.818 2391.42,966.718 C2391.42,965.818 2391.32,965.018 2391.22,964.218 M2384.32,968.118 C2384.32,969.618 2383.92,974.218 2381.42,978.018 C2379.72,980.618 2376.32,983.318 2374.42,984.818 L2374.72,965.318 C2374.92,964.418 2376.42,961.518 2380.42,961.518 C2384.02,961.518 2384.32,964.918 2384.32,967.018 L2384.32,968.118 "/>
<path class="Accidental" d="M2520.05,976.719 C2519.45,972.819 2517.05,969.119 2511.95,969.119 C2506.95,969.119 2504.05,972.219 2503.55,972.819 L2503.95,940.719 C2503.95,939.919 2503.35,939.319 2502.55,939.319 L2501.35,939.319 C2500.55,939.319 2499.95,939.919 2499.95,940.719 L2500.45,1000.82 C2500.45,1001.62 2501.05,1002.22 2501.85,1002.22 C2502.05,1002.22 2502.45,1002.12 2502.65,1002.02 C2503.05,1001.82 2509.55,998.619 2514.95,992.519 C2518.75,988.219 2520.25,983.319 2520.25,979.219 C2520.25,978.319 2520.15,977.519 2520.05,976.719 M2513.15,980.619 C2513.15,982.119 2512.75,986.719 2510.25,990.519 C2508.55,993.119 2505.15,995.819 2503.25,997.319 L2503.55,977.819 C2503.75,976.919 2505.25,974.019 2509.25,974.019 C2512.85,974.019 2513.15,977.419 2513.15,979.519 L2513.15,980.619 "/>
<path class="Accidental" d="M475.102,776.706 C474.502,772.806 472.102,769.106 467.002,769.106 C462.002,769.106 459.102,772.206 458.602,772.806 L459.002,740.706 C459.002,739.906 458.402,739.306 457.602,739.306 L456.402,739.306 C455.602,739.306 455.002,739.906 455.002,740.706 L455.502,800.806 C455.502,801.606 456.102,802.206 456.902,802.206 C457.102,802.206 457.502,802.106 457.702,802.006 C458.102,801.806 464.602,798.606 470.002,792.506 C473.802,788.206 475.302,783.306 475.302,779.206 C475.302,778.306 475.202,777.506 475.102,776.706 M468.202,780.606 C468.202,782.106 467.802,786.706 465.302,790.506 C463.602,793.106 460.202,795.806 458.302,797.306 L458.602,777.806 C458.802,776.906 460.302,774.006 464.302,774.006 C467.902,774.006 468.202,777.406 468.202,779.506 L468.202,780.606 "/>
<path class="Accidental" d="M618.639,764.206 C618.039,760.306 615.639,756.606 610.539,756.606 C605.539,756.606 602.639,759.706 602.139,760.306 L602.539,728.206 C602.539,727.406 601.939,726.806 601.139,726.806 L599.939,726.806 C599.139,726.806 598.539,727.406 598.539,728.206 L599.039,788.306 C599.039,789.106 599.639,789.706 600.439,789.706 C600.639,789.706 601.039,789.606 601.239,789.506 C601.639,789.306 608.139,786.106 613.539,780.006 C617.339,775.706 618.839,770.806 618.839,766.706 C618.839,765.806 618.739,765.006 618.639,764.206 M611.739,768.106 C611.739,769.606 611.339,774.206 608.839,778.006 C607.139,780.606 603.739,783.306 601.839,784.806 L602.139,765.306 C602.339,764.406 603.839,761.506 607.839,761.506 C611.439,761.506 611.739,764.906 611.739,767.006 L611.739,768.106 "/>
<path class="Accidental" d="M753.425,751.705 C752.825,747.805 750.425,744.105 745.325,744.105 C740.325,744.105 737.425,747.205 736.925,747.805 L737.325,715.705 C737.325,714.905 736.725,714.305 735.925,714.305 L734.725,714.305 C733.925,714.305 733.325,714.905 733.325,715.705 L733.825,775.805 C733.825,776.605 734.425,777.205 735.225,777.205 C735.425,777.205 735.825,777.105 736.025,777.005 C736.425,776.805 742.925,773.605 748.325,767.505 C752.125,763.205 753.625,758.305 753.625,754.205 C753.625,753.305 753.525,752.505 753.425,751.705 M746.525,755.605 C746.525,757.105 746.125,761.705 743.625,765.505 C741.925,768.105 738.525,770.805 736.625,772.305 L736.925,752.805 C737.125,751.905 738.625,749.005 742.625,749.005 C746.225,749.005 746.525,752.405 746.525,754.505 L746.525,755.605 "/>
<path class="Accidental" d="M888.211,739.204 C887.611,735.304 885.211,731.604 880.111,731.604 C875.111,731.604 872.211,734.704 871.711,735.304 L872.111,703.204 C872.111,702.404 871.511,701.804 870.711,701.804 L869.511,701.804 C868.711,701.804 868.111,702.404 868.111,703.204 L868.611,763.304 C868.611,764.104 869.211,764.704 870.011,764.704 C870.211,764.704 870.611,764.604 870.811,764.504 C871.211,764.304 877.711,761.104 883.111,755.004 C886.911,750.704 888.411,745.804 888.411,741.704 C888.411,740.804 888.311,740.004 888.211,739.204 M881.311,743.104 C881.311,744.604 880.911,749.204 878.411,753.004 C876.711,755.604 873.311,758.304 871.411,759.804 L871.711,740.304 C871.911,739.404 873.411,736.504 877.411,736.504 C881.011,736.504 881.311,739.904 881.311,742.004 L881.311,743.104 "/>
<path class="Accidental" d="M1075.8,726.703 C1075.2,722.803 1072.8,719.103 1067.7,719.103 C1062.7,719.103 1059.8,722.203 1059.3,722.803 L1059.7,690.703 C1059.7,689.903 1059.1,689.303 1058.3,689.303 L1057.1,689.303 C1056.3,689.303 1055.7,689.903 1055.7,690.703 L1056.2,750.803 C1056.2,751.603 1056.8,752.203 1057.6,752.203 C1057.8,752.203 1058.2,752.103 1058.4,752.003 C1058.8,751.803 1065.3,748.603 1070.7,742.503 C1074.5,738.203 1076,733.303 1076,729.203 C1076,728.303 1075.9,727.503 1075.8,726.703 M1068.9,730.603 C1068.9,732.103 1068.5,736.703 1066,740.503 C1064.3,743.103 1060.9,745.803 1059,747.303 L1059.3,727.803 C1059.5,726.903 1061,724.003 1065,724.003 C1068.6,724.003 1068.9,727.403 1068.9,729.503 L1068.9,730.603 "/>
<path class="Accidental" d="M1212.23,714.202 C1211.63,710.302 1209.23,706.602 1204.13,706.602 C1199.13,706.602 1196.23,709.702 1195.73,710.302 L1196.13,678.202 C1196.13,677.402 1195.53,676.802 1194.73,676.802 L1193.53,676.802 C1192.73,676.802 1192.13,677.402 1192.13,678.202 L1192.63,738.302 C1192.63,739.102 1193.23,739.702 1194.03,739.702 C1194.23,739.702 1194.63,739.602 1194.83,739.502 C1195.23,739.302 1201.73,736.102 1207.13,730.002 C1210.93,725.702 1212.43,720.802 1212.43,716.702 C1212.43,715.802 1212.33,715.002 1212.23,714.202 M1205.33,718.102 C1205.33,719.602 1204.93,724.202 1202.43,728.002 C1200.73,730.602 1197.33,733.302 1195.43,734.802 L1195.73,715.302 C1195.93,714.402 1197.43,711.502 1201.43,711.502 C1205.03,711.502 1205.33,714.902 1205.33,717.002 L1205.33,718.102 "/>
<path class="Accidental" d="M1348.67,701.702 C1348.07,697.802 1345.67,694.102 1340.57,694.102 C1335.57,694.102 1332.67,697.202 1332.17,697.802 L1332.57,665.702 C1332.57,664.902 1331.97,664.302 1331.17,664.302 L1329.97,664.302 C1329.17,664.302 1328.57,664.902 1328.57,665.702 L1329.07,725.802 C1329.07,726.602 1329.67,727.202 1330.47,727.202 C1330.67,727.202 1331.07,727.102 1331.27,727.002 C1331.67,726.802 1338.17,723.602 1343.57,717.502 C1347.37,713.202 1348.87,708.302 1348.87,704.202 C1348.87,703.302 1348.77,702.502 1348.67,701.702 M1341.77,705.602 C1341.77,707.102 1341.37,711.702 1338.87,715.502 C1337.17,718.102 1333.77,720.802 1331.87,722.302 L1332.17,702.802 C1332.37,701.902 1333.87,699.002 1337.87,699.002 C1341.47,699.002 1341.77,702.402 1341.77,704.502 L1341.77,705.602 "/>
<path class="Accidental" d="M1485.11,689.201 C1484.51,685.301 1482.11,681.601 1477.01,681.601 C1472.01,681.601 1469.11,684.701 1468.61,685.301 L1469.01,653.201 C1469.01,652.401 1468.41,651.801 1467.61,651.801 L1466.41,651.801 C1465.61,651.801 1465.01,652.401 1465.01,653.201 L1465.51,713.301 C1465.51,714.101 1466.11,714.701 1466.91,714.701 C1467.11,714.701 1467.51,714.601 1467.71,714.501 C1468.11,714.301 1474.61,711.101 1480.01,705.001 C1483.81,700.701 1485.31,695.801 1485.31,691.701 C1485.31,690.801 1485.21,690.001 1485.11,689.201 M1478.21,693.101 C1478.21,694.601 1477.81,699.201 1475.31,703.001 C1473.61,705.601 1470.21,708.301 1468.31,709.801 L1468.61,690.301 C1468.81,689.401 1470.31,686.501 1474.31,686.501 C1477.91,686.501 1478.21,689.901 1478.21,692.001 L1478.21,693.101 "/>
<path class="Accidental" d="M1674.34,701.702 C1673.74,697.802 1671.34,694.102 1666.24,694.102 C1661.24,694.102 1658.34,697.202 1657.84,697.802 L1658.24,665.702 C1658.24,664.902 1657.64,664.302 1656.84,664.302 L1655.64,664.302 C1654.84,664.302 1654.24,664.902 1654.24,665.702 L1654.74,725.802 C1654.74,726.602 1655.34,727.202 1656.14,727.202 C1656.34,727.202 1656.74,727.102 1656.94,727.002 C1657.34,726.802 1663.84,723.602 1669.24,717.502 C1673.04,713.202 1674.54,708.302 1674.54,704.202 C1674.54,703.302 1674.44,702.502 1674.34,701.702 M1667.44,705.602 C1667.44,707.102 1667.04,711.702 1664.54,715.502 C1662.84,718.102 1659.44,720.802 1657.54,722.302 L1657.84,702.802 C1658.04,701.902 1659.54,699.002 1663.54,699.002 C1667.14,699.002 1667.44,702.402 1667.44,704.502 L1667.44,705.602 "/>
<path class="Accidental" d="M1808.15,714.202 C1807.55,710.302 1805.15,706.602 1800.05,706.602 C1795.05,706.602 1792.15,709.702 1791.65,710.302 L1792.05,678.202 C1792.05,677.402 1791.45,676.802 1790.65,676.802 L1789.45,676.802 C1788.65,676.802 1788.05,677.402 1788.05,678.202 L1788.55,738.302 C1788.55,739.102 1789.15,739.702 1789.95,739.702 C1790.15,739.702 1790.55,739.602 1790.75,739.502 C1791.15,739.302 1797.65,736.102 1803.05,730.002 C1806.85,725.702 1808.35,720.802 1808.35,716.702 C1808.35,715.802 1808.25,715.002 1808.15,714.202 M1801.25,718.102 C1801.25,719.602 1800.85,724.202 1798.35,728.002 C1796.65,730.602 1793.25,733.302 1791.35,734.802 L1791.65,715.302 C1791.85,714.402 1793.35,711.502 1797.35,711.502 C1800.95,711.502 1801.25,714.902 1801.25,717.002 L1801.25,718.102 "/>
<path class="Accidental" d="M1941.96,726.703 C1941.36,722.803 1938.96,719.103 1933.86,719.103 C1928.86,719.103 1925.96,722.203 1925.46,722.803 L1925.86,690.703 C1925.86,689.903 1925.26,689.303 1924.46,689.303 L1923.26,689.303 C1922.46,689.303 1921.86,689.903 1921.86,690.703 L1922.36,750.803 C1922.36,751.603 1922.96,752.203 1923.76,752.203 C1923.96,752.203 1924.36,752.103 1924.56,752.003 C1924.96,751.803 1931.46,748.603 1936.86,742.503 C1940.66,738.203 1942.16,733.303 1942.16,729.203 C1942.16,728.303 1942.06,727.503 1941.96,726.703 M1935.06,730.603 C1935.06,732.103 1934.66,736.703 1932.16,740.503 C1930.46,743.103 1927.06,745.803 1925.16,747.303 L1925.46,727.803 C1925.66,726.903 1927.16,724.003 1931.16,724.003 C1934.76,724.003 1935.06,727.403 1935.06,729.503 L1935.06,730.603 "/>
<path class="Accidental" d="M2075.78,739.204 C2075.18,735.304 2072.78,731.604 2067.68,731.604 C2062.68,731.604 2059.78,734.704 2059.28,735.304 L2059.68,703.204 C2059.68,702.404 2059.08,701.804 2058.28,701.804 L2057.08,701.804 C2056.28,701.804 2055.68,702.404 2055.68,703.204 L2056.18,763.304 C2056.18,764.104 2056.78,764.704 2057.58,764.704 C2057.78,764.704 2058.18,764.604 2058.38,764.504 C2058.78,764.304 2065.28,761.104 2070.68,755.004 C2074.48,750.704 2075.98,745.804 2075.98,741.704 C2075.98,740.804 2075.88,740.004 2075.78,739.204 M2068.88,743.104 C2068.88,744.604 2068.48,749.204 2065.98,753.004 C2064.28,755.604 2060.88,758.304 2058.98,759.804 L2059.28,740.304 C2059.48,739.404 2060.98,736.504 2064.98,736.504 C2068.58,736.504 2068.88,739.904 2068.88,742.004 L2068.88,743.104 "/>
<path class="Accidental" d="M2262.39,751.705 C2261.79,747.805 2259.39,744.105 2254.29,744.105 C2249.29,744.105 2246.39,747.205 2245.89,747.805 L2246.29,715.705 C2246.29,714.905 2245.69,714.305 2244.89,714.305 L2243.69,714.305 C2242.89,714.305 2242.29,714.905 2242.29,715.705 L2242.79,775.805 C2242.79,776.605 2243.39,777.205 2244.19,777.205 C2244.39,777.205 2244.79,777.105 2244.99,777.005 C2245.39,776.805 2251.89,773.605 2257.29,767.505 C2261.09,763.205 2262.59,758.305 2262.59,754.205 C2262.59,753.305 2262.49,752.505 2262.39,751.705 M2255.49,755.605 C2255.49,757.105 2255.09,761.705 2252.59,765.505 C2250.89,768.105 2247.49,770.805 2245.59,772.305 L2245.89,752.805 C2246.09,751.905 2247.59,749.005 2251.59,749.005 C2255.19,749.005 2255.49,752.405 2255.49,754.505 L2255.49,755.605 "/>
<path class="Accidental" d="M2391.22,764.206 C2390.62,760.306 2388.22,756.606 2383.12,756.606 C2378.12,756.606 2375.22,759.706 2374.72,760.306 L2375.12,728.206 C2375.12,727.406 2374.52,726.806 2373.72,726.806 L2372.52,726.806 C2371.72,726.806 2371.12,727.406 2371.12,728.206 L2371.62,788.306 C2371.62,789.106 2372.22,789.706 2373.02,789.706 C2373.22,789.706 2373.62,789.606 2373.82,789.506 C2374.22,789.306 2380.72,786.106 2386.12,780.006 C2389.92,775.706 2391.42,770.806 2391.42,766.706 C2391.42,765.806 2391.32,765.006 2391.22,764.206 M2384.32,768.106 C2384.32,769.606 2383.92,774.206 2381.42,778.006 C2379.72,780.606 2376.32,783.306 2374.42,784.806 L2374.72,765.306 C2374.92,764.406 2376.42,761.506 2380.42,761.506 C2384.02,761.506 2384.32,764.906 2384.32,767.006 L2384.32,768.106 "/>
<path class="Accidental" d="M2511.3,776.706 C2510.7,772.806 2508.3,769.106 2503.2,769.106 C2498.2,769.106 2495.3,772.206 2494.8,772.806 L2495.2,740.706 C2495.2,739.906 2494.6,739.306 2493.8,739.306 L2492.6,739.306 C2491.8,739.306 2491.2,739.906 2491.2,740.706 L2491.7,800.806 C2491.7,801.606 2492.3,802.206 2493.1,802.206 C2493.3,802.206 2493.7,802.106 2493.9,802.006 C2494.3,801.806 2500.8,798.606 2506.2,792.506 C2510,788.206 2511.5,783.306 2511.5,779.206 C2511.5,778.306 2511.4,777.506 2511.3,776.706 M2504.4,780.606 C2504.4,782.106 2504,786.706 2501.5,790.506 C2499.8,793.106 2496.4,795.806 2494.5,797.306 L2494.8,777.806 C2495,776.906 2496.5,774.006 2500.5,774.006 C2504.1,774.006 2504.4,777.406 2504.4,779.506 L2504.4,780.606 "/>
<polyline class="LedgerLine" fill="none" stroke="#000000" stroke-width="4.00" stroke-linejoin="bevel" points="1482.8,897.113 1532.8,897.113"/>
<polyline class="LedgerLine" fill="none" stroke="#000000" stroke-width="4.00" stroke-linejoin="bevel" points="481.551,784.606 531.546,784.606"/>
<polyline class="LedgerLine" fill="none" stroke="#000000" stroke-width="4.00" stroke-linejoin="bevel" points="2517.75,784.606 2567.74,784.606"/>
<polyline class="Stem" fill="none" stroke="#000000" stroke-width="2.75" stroke-linejoin="bevel" points="521.421,981.259 521.421,903.364"/>
<polyline class="Stem" fill="none" stroke="#000000" stroke-width="2.75" stroke-linejoin="bevel" points="626.463,975.638 626.463,1050.25"/>
<polyline class="Stem" fill="none" stroke="#000000" stroke-width="2.75" stroke-linejoin="bevel" points="761.249,963.138 761.249,1040.87"/>
<polyline class="Stem" fill="none" stroke="#000000" stroke-width="2.75" stroke-linejoin="bevel" points="896.035,950.637 896.035,1031.5"/>
<polyline class="Stem" fill="none" stroke="#000000" stroke-width="2.75" stroke-linejoin="bevel" points="1083.62,938.136 1083.62,1022.12"/>
<polyline class="Stem" fill="none" stroke="#000000" stroke-width="2.75" stroke-linejoin="bevel" points="1220.06,925.635 1220.06,1009.62"/>
<polyline class="Stem" fill="none" stroke="#000000" stroke-width="2.75" stroke-linejoin="bevel" points="1356.49,913.134 1356.49,997.12"/>
<polyline class="Stem" fill="none" stroke="#000000" stroke-width="2.75" stroke-linejoin="bevel" points="1492.93,900.634 1492.93,984.619"/>
<polyline class="Stem" fill="none" stroke="#000000" stroke-width="2.75" stroke-linejoin="bevel" points="1682.17,913.134 1682.17,997.12"/>
<polyline class="Stem" fill="none" stroke="#000000" stroke-width="2.75" stroke-linejoin="bevel" points="1815.98,925.635 1815.98,1009.62"/>
<polyline class="Stem" fill="none" stroke="#000000" stroke-width="2.75" stroke-linejoin="bevel" points="1949.79,938.136 1949.79,1022.12"/>
<polyline class="Stem" fill="none" stroke="#000000" stroke-width="2.75" stroke-linejoin="bevel" points="2083.6,950.637 2083.6,1031.5"/>
<polyline class="Stem" fill="none" stroke="#000000" stroke-width="2.75" stroke-linejoin="bevel" points="2270.21,963.138 2270.21,1040.87"/>
<polyline class="Stem" fill="none" stroke="#000000" stroke-width="2.75" stroke-linejoin="bevel" points="2399.04,975.638 2399.04,1050.25"/>
<polyline class="Stem" fill="none" stroke="#000000" stroke-width="2.75" stroke-linejoin="bevel" points="2557.62,981.179 2557.62,903.364"/>
<polyline class="Stem" fill="none" stroke="#000000" stroke-width="2.75" stroke-linejoin="bevel" points="521.421,781.246 521.421,697.101"/>
<polyline class="Stem" fill="none" stroke="#000000" stroke-width="2.75" stroke-linejoin="bevel" points="656.207,768.745 656.207,684.6"/>
<polyline class="Stem" fill="none" stroke="#000000" stroke-width="2.75" stroke-linejoin="bevel" points="790.993,756.245 790.993,672.099"/>
<polyline class="Stem" fill="none" stroke="#000000" stroke-width="2.75" stroke-linejoin="bevel" points="925.779,743.744 925.779,659.598"/>
<polyline class="Stem" fill="none" stroke="#000000" stroke-width="2.75" stroke-linejoin="bevel" points="1113.37,731.243 1113.37,650.223"/>
<polyline class="Stem" fill="none" stroke="#000000" stroke-width="2.75" stroke-linejoin="bevel" points="1249.8,718.742 1249.8,640.847"/>
<polyline class="Stem" fill="none" stroke="#000000" stroke-width="2.75" stroke-linejoin="bevel" points="1356.49,713.122 1356.49,787.732"/>
<polyline class="Stem" fill="none" stroke="#000000" stroke-width="2.75" stroke-linejoin="bevel" points="1492.93,700.621 1492.93,778.356"/>
<polyline class="Stem" fill="none" stroke="#000000" stroke-width="2.75" stroke-linejoin="bevel" points="1682.17,713.122 1682.17,787.732"/>
<polyline class="Stem" fill="none" stroke="#000000" stroke-width="2.75" stroke-linejoin="bevel" points="1845.72,718.742 1845.72,640.847"/>
<polyline class="Stem" fill="none" stroke="#000000" stroke-width="2.75" stroke-linejoin="bevel" points="1979.53,731.243 1979.53,650.223"/>
<polyline class="Stem" fill="none" stroke="#000000" stroke-width="2.75" stroke-linejoin="bevel" points="2113.34,743.744 2113.34,659.598"/>
<polyline class="Stem" fill="none" stroke="#000000" stroke-width="2.75" stroke-linejoin="bevel" points="2299.95,756.245 2299.95,672.099"/>
<polyline class="Stem" fill="none" stroke="#000000" stroke-width="2.75" stroke-linejoin="bevel" points="2428.79,768.745 2428.79,684.6"/>
<polyline class="Stem" fill="none" stroke="#000000" stroke-width="2.75" stroke-linejoin="bevel" points="2557.62,781.166 2557.62,697.101"/>
<path class="Note" d="M521.801,976.419 C520.301,973.719 517.401,972.019 513.501,971.619 C512.901,971.519 512.401,971.519 511.801,971.519 C508.301,971.519 504.501,972.519 501.001,974.419 C494.401,978.019 490.301,983.919 490.301,989.019 C490.301,990.419 490.501,991.719 491.201,992.919 C492.701,995.619 495.701,997.319 499.601,997.719 C500.201,997.819 500.701,997.819 501.301,997.819 C504.801,997.819 508.501,996.819 512.001,994.919 C518.601,991.319 522.801,985.519 522.801,980.419 C522.801,979.019 522.501,977.619 521.801,976.419"/>
<path class="Note" d="M656.587,963.918 C655.087,961.218 652.187,959.518 648.287,959.118 C647.687,959.018 647.187,959.018 646.587,959.018 C643.087,959.018 639.287,960.018 635.787,961.918 C629.187,965.518 625.087,971.418 625.087,976.518 C625.087,977.918 625.287,979.218 625.987,980.418 C627.487,983.118 630.487,984.818 634.387,985.218 C634.987,985.318 635.487,985.318 636.087,985.318 C639.587,985.318 643.287,984.318 646.787,982.418 C653.387,978.818 657.587,973.018 657.587,967.918 C657.587,966.518 657.287,965.118 656.587,963.918"/>
<path class="Note" d="M791.374,951.417 C789.874,948.717 786.974,947.017 783.074,946.617 C782.474,946.517 781.974,946.517 781.374,946.517 C777.874,946.517 774.074,947.517 770.574,949.417 C763.974,953.017 759.874,958.917 759.874,964.017 C759.874,965.417 760.074,966.717 760.774,967.917 C762.274,970.617 765.274,972.317 769.174,972.717 C769.774,972.817 770.274,972.817 770.874,972.817 C774.374,972.817 778.074,971.817 781.574,969.917 C788.174,966.317 792.374,960.517 792.374,955.417 C792.374,954.017 792.074,952.617 791.374,951.417"/>
<path class="Note" d="M926.16,938.917 C924.66,936.217 921.76,934.517 917.86,934.117 C917.26,934.017 916.76,934.017 916.16,934.017 C912.66,934.017 908.86,935.017 905.36,936.917 C898.76,940.517 894.66,946.417 894.66,951.517 C894.66,952.917 894.86,954.217 895.56,955.417 C897.06,958.117 900.06,959.817 903.96,960.217 C904.56,960.317 905.06,960.317 905.66,960.317 C909.16,960.317 912.86,959.317 916.36,957.417 C922.96,953.817 927.16,948.017 927.16,942.917 C927.16,941.517 926.86,940.117 926.16,938.917"/>
<path class="Note" d="M1113.75,926.416 C1112.25,923.716 1109.35,922.016 1105.45,921.616 C1104.85,921.516 1104.35,921.516 1103.75,921.516 C1100.25,921.516 1096.45,922.516 1092.95,924.416 C1086.35,928.016 1082.25,933.916 1082.25,939.016 C1082.25,940.416 1082.45,941.716 1083.15,942.916 C1084.65,945.616 1087.65,947.316 1091.55,947.716 C1092.15,947.816 1092.65,947.816 1093.25,947.816 C1096.75,947.816 1100.45,946.816 1103.95,944.916 C1110.55,941.316 1114.75,935.516 1114.75,930.416 C1114.75,929.016 1114.45,927.616 1113.75,926.416"/>
<path class="Note" d="M1250.18,913.915 C1248.68,911.215 1245.78,909.515 1241.88,909.115 C1241.28,909.015 1240.78,909.015 1240.18,909.015 C1236.68,909.015 1232.88,910.015 1229.38,911.915 C1222.78,915.515 1218.68,921.415 1218.68,926.515 C1218.68,927.915 1218.88,929.215 1219.58,930.415 C1221.08,933.115 1224.08,934.815 1227.98,935.215 C1228.58,935.315 1229.08,935.315 1229.68,935.315 C1233.18,935.315 1236.88,934.315 1240.38,932.415 C1246.98,928.815 1251.18,923.015 1251.18,917.915 C1251.18,916.515 1250.88,915.115 1250.18,913.915"/>
<path class="Note" d="M1386.62,901.414 C1385.12,898.714 1382.22,897.014 1378.32,896.614 C1377.72,896.514 1377.22,896.514 1376.62,896.514 C1373.12,896.514 1369.32,897.514 1365.82,899.414 C1359.22,903.014 1355.12,908.914 1355.12,914.014 C1355.12,915.414 1355.32,916.714 1356.02,917.914 C1357.52,920.614 1360.52,922.314 1364.42,922.714 C1365.02,922.814 1365.52,922.814 1366.12,922.814 C1369.62,922.814 1373.32,921.814 1376.82,919.914 C1383.42,916.314 1387.62,910.514 1387.62,905.414 C1387.62,904.014 1387.32,902.614 1386.62,901.414"/>
<path class="Note" d="M1523.05,888.913 C1521.55,886.213 1518.65,884.513 1514.75,884.113 C1514.15,884.013 1513.65,884.013 1513.05,884.013 C1509.55,884.013 1505.75,885.013 1502.25,886.913 C1495.65,890.513 1491.55,896.413 1491.55,901.513 C1491.55,902.913 1491.75,904.213 1492.45,905.413 C1493.95,908.113 1496.95,909.813 1500.85,910.213 C1501.45,910.313 1501.95,910.313 1502.55,910.313 C1506.05,910.313 1509.75,909.313 1513.25,907.413 C1519.85,903.813 1524.05,898.013 1524.05,892.913 C1524.05,891.513 1523.75,890.113 1523.05,888.913"/>
<path class="Note" d="M1712.29,901.414 C1710.79,898.714 1707.89,897.014 1703.99,896.614 C1703.39,896.514 1702.89,896.514 1702.29,896.514 C1698.79,896.514 1694.99,897.514 1691.49,899.414 C1684.89,903.014 1680.79,908.914 1680.79,914.014 C1680.79,915.414 1680.99,916.714 1681.69,917.914 C1683.19,920.614 1686.19,922.314 1690.09,922.714 C1690.69,922.814 1691.19,922.814 1691.79,922.814 C1695.29,922.814 1698.99,921.814 1702.49,919.914 C1709.09,916.314 1713.29,910.514 1713.29,905.414 C1713.29,904.014 1712.99,902.614 1712.29,901.414"/>
<path class="Note" d="M1846.1,913.915 C1844.6,911.215 1841.7,909.515 1837.8,909.115 C1837.2,909.015 1836.7,909.015 1836.1,909.015 C1832.6,909.015 1828.8,910.015 1825.3,911.915 C1818.7,915.515 1814.6,921.415 1814.6,926.515 C1814.6,927.915 1814.8,929.215 1815.5,930.415 C1817,933.115 1820,934.815 1823.9,935.215 C1824.5,935.315 1825,935.315 1825.6,935.315 C1829.1,935.315 1832.8,934.315 1836.3,932.415 C1842.9,928.815 1847.1,923.015 1847.1,917.915 C1847.1,916.515 1846.8,915.115 1846.1,913.915"/>
<path class="Note" d="M1979.91,926.416 C1978.41,923.716 1975.51,922.016 1971.61,921.616 C1971.01,921.516 1970.51,921.516 1969.91,921.516 C1966.41,921.516 1962.61,922.516 1959.11,924.416 C1952.51,928.016 1948.41,933.916 1948.41,939.016 C1948.41,940.416 1948.61,941.716 1949.31,942.916 C1950.81,945.616 1953.81,947.316 1957.71,947.716 C1958.31,947.816 1958.81,947.816 1959.41,947.816 C1962.91,947.816 1966.61,946.816 1970.11,944.916 C1976.71,941.316 1980.91,935.516 1980.91,930.416 C1980.91,929.016 1980.61,927.616 1979.91,926.416"/>
<path class="Note" d="M2113.72,938.917 C2112.22,936.217 2109.32,934.517 2105.42,934.117 C2104.82,934.017 2104.32,934.017 2103.72,934.017 C2100.22,934.017 2096.42,935.017 2092.92,936.917 C2086.32,940.517 2082.22,946.417 2082.22,951.517 C2082.22,952.917 2082.42,954.217 2083.12,955.417 C2084.62,958.117 2087.62,959.817 2091.52,960.217 C2092.12,960.317 2092.62,960.317 2093.22,960.317 C2096.72,960.317 2100.42,959.317 2103.92,957.417 C2110.52,953.817 2114.72,948.017 2114.72,942.917 C2114.72,941.517 2114.42,940.117 2113.72,938.917"/>
<path class="Note" d="M2300.34,951.417 C2298.84,948.717 2295.94,947.017 2292.04,946.617 C2291.44,946.517 2290.94,946.517 2290.34,946.517 C2286.84,946.517 2283.04,947.517 2279.54,949.417 C2272.94,953.017 2268.84,958.917 2268.84,964.017 C2268.84,965.417 2269.04,966.717 2269.74,967.917 C2271.24,970.617 2274.24,972.317 2278.14,972.717 C2278.74,972.817 2279.24,972.817 2279.84,972.817 C2283.34,972.817 2287.04,971.817 2290.54,969.917 C2297.14,966.317 2301.34,960.517 2301.34,955.417 C2301.34,954.017 2301.04,952.617 2300.34,951.417"/>
<path class="Note" d="M2429.17,963.918 C2427.67,961.218 2424.77,959.518 2420.87,959.118 C2420.27,959.018 2419.77,959.018 2419.17,959.018 C2415.67,959.018 2411.87,960.018 2408.37,961.918 C2401.77,965.518 2397.67,971.418 2397.67,976.518 C2397.67,977.918 2397.87,979.218 2398.57,980.418 C2400.07,983.118 2403.07,984.818 2406.97,985.218 C2407.57,985.318 2408.07,985.318 2408.67,985.318 C2412.17,985.318 2415.87,984.318 2419.37,982.418 C2425.97,978.818 2430.17,973.018 2430.17,967.918 C2430.17,966.518 2429.87,965.118 2429.17,963.918"/>
<path class="Note" d="M2558,976.419 C2556.5,973.719 2553.6,972.019 2549.7,971.619 C2549.1,971.519 2548.6,971.519 2548,971.519 C2544.5,971.519 2540.7,972.519 2537.2,974.419 C2530.6,978.019 2526.5,983.819 2526.5,988.919 C2526.5,990.319 2526.9,991.719 2527.6,992.919 C2529.1,995.719 2531.9,997.319 2535.8,997.719 C2536.4,997.819 2536.9,997.819 2537.5,997.819 C2541,997.819 2544.8,996.819 2548.3,994.919 C2554.9,991.319 2559,985.419 2559,980.319 C2559,978.919 2558.7,977.619 2558,976.419 M2553.8,982.719 C2552.1,984.519 2548.9,986.819 2545.3,988.919 C2541.7,991.019 2538,992.719 2535.7,993.419 C2535.2,993.519 2534.6,993.619 2534.1,993.619 C2532.6,993.619 2531.3,992.919 2530.6,991.819 C2530.3,991.219 2530.1,990.619 2530.1,990.019 C2530.1,988.919 2530.6,987.819 2531.7,986.619 C2533.4,984.819 2536.6,982.419 2540.2,980.319 C2543.8,978.219 2547.5,976.519 2549.9,975.919 L2550.1,975.919 C2550.7,975.719 2551.2,975.619 2551.7,975.619 C2553.1,975.619 2554.2,976.219 2554.9,977.519 C2555.2,978.119 2555.4,978.619 2555.4,979.219 C2555.4,980.519 2554.7,981.819 2553.8,982.719"/>
<path class="Note" d="M521.801,776.406 C520.301,773.706 517.401,772.006 513.501,771.606 C512.901,771.506 512.401,771.506 511.801,771.506 C508.301,771.506 504.501,772.506 501.001,774.406 C494.401,778.006 490.301,783.906 490.301,789.006 C490.301,790.406 490.501,791.706 491.201,792.906 C492.701,795.606 495.701,797.306 499.601,797.706 C500.201,797.806 500.701,797.806 501.301,797.806 C504.801,797.806 508.501,796.806 512.001,794.906 C518.601,791.306 522.801,785.506 522.801,780.406 C522.801,779.006 522.501,777.606 521.801,776.406"/>
<path class="Note" d="M656.587,763.906 C655.087,761.206 652.187,759.506 648.287,759.106 C647.687,759.006 647.187,759.006 646.587,759.006 C643.087,759.006 639.287,760.006 635.787,761.906 C629.187,765.506 625.087,771.406 625.087,776.506 C625.087,777.906 625.287,779.206 625.987,780.406 C627.487,783.106 630.487,784.806 634.387,785.206 C634.987,785.306 635.487,785.306 636.087,785.306 C639.587,785.306 643.287,784.306 646.787,782.406 C653.387,778.806 657.587,773.006 657.587,767.906 C657.587,766.506 657.287,765.106 656.587,763.906"/>
<path class="Note" d="M791.374,751.405 C789.874,748.705 786.974,747.005 783.074,746.605 C782.474,746.505 781.974,746.505 781.374,746.505 C777.874,746.505 774.074,747.505 770.574,749.405 C763.974,753.005 759.874,758.905 759.874,764.005 C759.874,765.405 760.074,766.705 760.774,767.905 C762.274,770.605 765.274,772.305 769.174,772.705 C769.774,772.805 770.274,772.805 770.874,772.805 C774.374,772.805 778.074,771.805 781.574,769.905 C788.174,766.305 792.374,760.505 792.374,755.405 C792.374,754.005 792.074,752.605 791.374,751.405"/>
<path class="Note" d="M926.16,738.904 C924.66,736.204 921.76,734.504 917.86,734.104 C917.26,734.004 916.76,734.004 916.16,734.004 C912.66,734.004 908.86,735.004 905.36,736.904 C898.76,740.504 894.66,746.404 894.66,751.504 C894.66,752.904 894.86,754.204 895.56,755.404 C897.06,758.104 900.06,759.804 903.96,760.204 C904.56,760.304 905.06,760.304 905.66,760.304 C909.16,760.304 912.86,759.304 916.36,757.404 C922.96,753.804 927.16,748.004 927.16,742.904 C927.16,741.504 926.86,740.104 926.16,738.904"/>
<path class="Note" d="M1113.75,726.403 C1112.25,723.703 1109.35,722.003 1105.45,721.603 C1104.85,721.503 1104.35,721.503 1103.75,721.503 C1100.25,721.503 1096.45,722.503 1092.95,724.403 C1086.35,728.003 1082.25,733.903 1082.25,739.003 C1082.25,740.403 1082.45,741.703 1083.15,742.903 C1084.65,745.603 1087.65,747.303 1091.55,747.703 C1092.15,747.803 1092.65,747.803 1093.25,747.803 C1096.75,747.803 1100.45,746.803 1103.95,744.903 C1110.55,741.303 1114.75,735.503 1114.75,730.403 C1114.75,729.003 1114.45,727.603 1113.75,726.403"/>
<path class="Note" d="M1250.18,713.902 C1248.68,711.202 1245.78,709.502 1241.88,709.102 C1241.28,709.002 1240.78,709.002 1240.18,709.002 C1236.68,709.002 1232.88,710.002 1229.38,711.902 C1222.78,715.502 1218.68,721.402 1218.68,726.502 C1218.68,727.902 1218.88,729.202 1219.58,730.402 C1221.08,733.102 1224.08,734.802 1227.98,735.202 C1228.58,735.302 1229.08,735.302 1229.68,735.302 C1233.18,735.302 1236.88,734.302 1240.38,732.402 C1246.98,728.802 1251.18,723.002 1251.18,717.902 C1251.18,716.502 1250.88,715.102 1250.18,713.902"/>
<path class="Note" d="M1386.62,701.402 C1385.12,698.702 1382.22,697.002 1378.32,696.602 C1377.72,696.502 1377.22,696.502 1376.62,696.502 C1373.12,696.502 1369.32,697.502 1365.82,699.402 C1359.22,703.002 1355.12,708.902 1355.12,714.002 C1355.12,715.402 1355.32,716.702 1356.02,717.902 C1357.52,720.602 1360.52,722.302 1364.42,722.702 C1365.02,722.802 1365.52,722.802 1366.12,722.802 C1369.62,722.802 1373.32,721.802 1376.82,719.902 C1383.42,716.302 1387.62,710.502 1387.62,705.402 C1387.62,704.002 1387.32,702.602 1386.62,701.402"/>
<path class="Note" d="M1523.05,688.901 C1521.55,686.201 1518.65,684.501 1514.75,684.101 C1514.15,684.001 1513.65,684.001 1513.05,684.001 C1509.55,684.001 1505.75,685.001 1502.25,686.901 C1495.65,690.501 1491.55,696.401 1491.55,701.501 C1491.55,702.901 1491.75,704.201 1492.45,705.401 C1493.95,708.101 1496.95,709.801 1500.85,710.201 C1501.45,710.301 1501.95,710.301 1502.55,710.301 C1506.05,710.301 1509.75,709.301 1513.25,707.401 C1519.85,703.801 1524.05,698.001 1524.05,692.901 C1524.05,691.501 1523.75,690.101 1523.05,688.901"/>
<path class="Note" d="M1712.29,701.402 C1710.79,698.702 1707.89,697.002 1703.99,696.602 C1703.39,696.502 1702.89,696.502 1702.29,696.502 C1698.79,696.502 1694.99,697.502 1691.49,699.402 C1684.89,703.002 1680.79,708.902 1680.79,714.002 C1680.79,715.402 1680.99,716.702 1681.69,717.902 C1683.19,720.602 1686.19,722.302 1690.09,722.702 C1690.69,722.802 1691.19,722.802 1691.79,722.802 C1695.29,722.802 1698.99,721.802 1702.49,719.902 C1709.09,716.302 1713.29,710.502 1713.29,705.402 C1713.29,704.002 1712.99,702.602 1712.29,701.402"/>
<path class="Note" d="M1846.1,713.902 C1844.6,711.202 1841.7,709.502 1837.8,709.102 C1837.2,709.002 1836.7,709.002 1836.1,709.002 C1832.6,709.002 1828.8,710.002 1825.3,711.902 C1818.7,715.502 1814.6,721.402 1814.6,726.502 C1814.6,727.902 1814.8,729.202 1815.5,730.402 C1817,733.102 1820,734.802 1823.9,735.202 C1824.5,735.302 1825,735.302 1825.6,735.302 C1829.1,735.302 1832.8,734.302 1836.3,732.402 C1842.9,728.802 1847.1,723.002 1847.1,717.902 C1847.1,716.502 1846.8,715.102 1846.1,713.902"/>
<path class="Note" d="M1979.91,726.403 C1978.41,723.703 1975.51,722.003 1971.61,721.603 C1971.01,721.503 1970.51,721.503 1969.91,721.503 C1966.41,721.503 1962.61,722.503 1959.11,724.403 C1952.51,728.003 1948.41,733.903 1948.41,739.003 C1948.41,740.403 1948.61,741.703 1949.31,742.903 C1950.81,745.603 1953.81,747.303 1957.71,747.703 C1958.31,747.803 1958.81,747.803 1959.41,747.803 C1962.91,747.803 1966.61,746.803 1970.11,744.903 C1976.71,741.303 1980.91,735.503 1980.91,730.403 C1980.91,729.003 1980.61,727.603 1979.91,726.403"/>
<path class="Note" d="M2113.72,738.904 C2112.22,736.204 2109.32,734.504 2105.42,734.104 C2104.82,734.004 2104.32,734.004 2103.72,734.004 C2100.22,734.004 2096.42,735.004 2092.92,736.904 C2086.32,740.504 2082.22,746.404 2082.22,751.504 C2082.22,752.904 2082.42,754.204 2083.12,755.404 C2084.62,758.104 2087.62,759.804 2091.52,760.204 C2092.12,760.304 2092.62,760.304 2093.22,760.304 C2096.72,760.304 2100.42,759.304 2103.92,757.404 C2110.52,753.804 2114.72,748.004 2114.72,742.904 C2114.72,741.504 2114.42,740.104 2113.72,738.904"/>
<path class="Note" d="M2300.34,751.405 C2298.84,748.705 2295.94,747.005 2292.04,746.605 C2291.44,746.505 2290.94,746.505 2290.34,746.505 C2286.84,746.505 2283.04,747.505 2279.54,749.405 C2272.94,753.005 2268.84,758.905 2268.84,764.005 C2268.84,765.405 2269.04,766.705 2269.74,767.905 C2271.24,770.605 2274.24,772.305 2278.14,772.705 C2278.74,772.805 2279.24,772.805 2279.84,772.805 C2283.34,772.805 2287.04,771.805 2290.54,769.905 C2297.14,766.305 2301.34,760.505 2301.34,755.405 C2301.34,754.005 2301.04,752.605 2300.34,751.405"/>
<path class="Note" d="M2429.17,763.906 C2427.67,761.206 2424.77,759.506 2420.87,759.106 C2420.27,759.006 2419.77,759.006 2419.17,759.006 C2415.67,759.006 2411.87,760.006 2408.37,761.906 C2401.77,765.506 2397.67,771.406 2397.67,776.506 C2397.67,777.906 2397.87,779.206 2398.57,780.406 C2400.07,783.106 2403.07,784.806 2406.97,785.206 C2407.57,785.306 2408.07,785.306 2408.67,785.306 C2412.17,785.306 2415.87,784.306 2419.37,782.406 C2425.97,778.806 2430.17,773.006 2430.17,767.906 C2430.17,766.506 2429.87,765.106 2429.17,763.906"/>
<path class="Note" d="M2558,776.406 C2556.5,773.706 2553.6,772.006 2549.7,771.606 C2549.1,771.506 2548.6,771.506 2548,771.506 C2544.5,771.506 2540.7,772.506 2537.2,774.406 C2530.6,778.006 2526.5,783.806 2526.5,788.906 C2526.5,790.306 2526.9,791.706 2527.6,792.906 C2529.1,795.706 2531.9,797.306 2535.8,797.706 C2536.4,797.806 2536.9,797.806 2537.5,797.806 C2541,797.806 2544.8,796.806 2548.3,794.906 C2554.9,791.306 2559,785.406 2559,780.306 C2559,778.906 2558.7,777.606 2558,776.406 M2553.8,782.706 C2552.1,784.506 2548.9,786.806 2545.3,788.906 C2541.7,791.006 2538,792.706 2535.7,793.406 C2535.2,793.506 2534.6,793.606 2534.1,793.606 C2532.6,793.606 2531.3,792.906 2530.6,791.806 C2530.3,791.206 2530.1,790.606 2530.1,790.006 C2530.1,788.906 2530.6,787.806 2531.7,786.606 C2533.4,784.806 2536.6,782.406 2540.2,780.306 C2543.8,778.206 2547.5,776.506 2549.9,775.906 L2550.1,775.906 C2550.7,775.706 2551.2,775.606 2551.7,775.606 C2553.1,775.606 2554.2,776.206 2554.9,777.506 C2555.2,778.106 2555.4,778.606 2555.4,779.206 C2555.4,780.506 2554.7,781.806 2553.8,782.706"/>
<path class="Clef" d="M297,922.017 C289.4,922.017 283.3,926.417 283.2,926.417 C277.4,930.717 275.1,935.817 274.2,939.317 C273.7,941.117 273.5,942.917 273.5,944.617 C273.5,947.017 273.9,949.217 274.8,951.117 C276,953.817 278.3,955.717 281.3,956.717 C282.5,957.117 283.8,957.317 285.1,957.317 C287.3,957.317 289.6,956.717 291.5,955.617 C294.6,953.917 296.5,950.317 296.5,946.417 C296.5,942.917 294.7,939.717 291.7,937.817 C289.6,936.417 287.6,936.017 285.9,936.017 C284.7,936.017 283.6,936.217 282.7,936.517 C281.7,936.917 280,937.917 279.2,938.617 C279.5,936.717 280.7,933.817 281.8,932.217 C282.9,930.617 285.1,928.617 286.8,927.717 C289.3,926.317 292.5,925.717 296,925.717 C306.2,925.717 311.2,933.917 311.2,950.717 C311.2,960.017 307.7,968.917 304.7,974.817 C301.4,981.417 297,987.717 293.1,991.217 C282.7,1000.72 272.9,1005.22 272.8,1005.22 C272.8,1005.22 271.3,1006.12 271.7,1007.62 C272,1008.62 272.9,1008.82 273.5,1008.82 C273.6,1008.82 273.9,1008.72 274,1008.72 C274.1,1008.72 285.5,1004.02 294.6,996.917 C299.7,993.217 304.3,989.217 308.3,984.917 C311.9,981.017 315,976.817 317.5,972.617 C321.9,965.117 324.4,957.317 324.4,950.617 C324.4,942.317 322.2,935.417 318.1,930.517 C313.4,924.917 306.3,922.017 297,922.017 M328.4,934.717 C328.4,937.517 330.6,939.717 333.2,939.717 C335.8,939.717 338,937.517 338,934.717 C338,931.917 335.8,929.617 333.2,929.617 C330.6,929.617 328.4,931.917 328.4,934.717 M328.4,959.417 C328.4,962.217 330.6,964.517 333.2,964.517 C335.8,964.517 338,962.217 338,959.417 C338,956.617 335.8,954.317 333.2,954.317 C330.6,954.317 328.4,956.617 328.4,959.417"/>
<path class="Clef" d="M335,728.703 C333.8,723.303 331.1,719.403 330.3,718.403 C327.1,714.103 323.1,711.303 318.4,709.903 C316.1,709.203 314,709.003 312,709.003 C311.3,709.003 310.6,709.003 309.9,709.103 C308.9,703.103 307.8,697.203 306.9,691.803 C312.5,685.603 316.2,679.703 318.6,675.303 C322.2,668.603 323.6,663.903 323.7,663.703 C324.9,660.703 325.6,656.903 325.6,652.403 C325.6,649.703 325.3,646.803 324.9,643.803 C323.8,636.703 321.6,630.003 319.1,626.303 C317.8,624.403 316.6,623.303 315.4,623.303 C314.2,623.303 311.7,624.503 308.8,627.303 C306.5,629.503 303.2,633.403 300.6,639.403 C298.3,644.803 297.6,651.703 297.6,657.603 C297.6,659.403 297.7,661.103 297.8,662.703 C298,666.303 298.7,672.103 299.3,675.703 C299.3,675.803 299.6,677.303 300,679.903 L299.3,680.603 C298.3,681.603 297.1,682.703 295.7,684.103 C294.8,685.003 293.9,685.803 292.9,686.803 C284.4,695.003 271.6,707.403 271.6,726.503 C271.6,731.203 272.5,735.603 274.3,739.603 C275.9,743.203 278.2,746.503 281.1,749.403 C288.6,756.803 298.8,760.003 305.9,760.003 L306.5,760.003 C309.4,759.903 312.1,759.603 314.5,759.203 C316.3,768.803 317.5,775.903 317.5,781.203 C317.5,787.703 315.9,791.603 312,794.403 C309.6,796.103 306.7,797.203 303.6,797.303 L302.8,797.303 C301.3,797.303 298.8,796.903 297.3,796.503 C297.3,796.503 297,796.403 297,796.203 C297,796.003 297.4,796.003 297.4,796.003 C299.3,795.603 302.9,794.303 305.3,791.003 C306.4,789.503 307.1,787.203 307.1,784.703 C307.1,783.103 306.8,781.403 306.1,779.903 C305,777.503 302.4,774.503 296.8,774.103 L295.7,774.103 C293.6,774.103 291.8,774.603 290.1,775.603 C288.3,776.703 286.7,778.403 285.7,780.403 C284.6,782.403 284.1,784.603 284.1,786.803 C284.1,789.703 285,792.403 286.8,794.603 C289.8,798.203 294.5,800.503 299.9,801.103 C300.6,801.203 301.7,801.303 302.4,801.303 C306.8,801.303 311.2,800.103 314.8,797.903 C318.5,795.303 320.6,791.303 321.3,785.703 C321.5,784.403 321.5,783.003 321.5,781.503 C321.5,777.603 321,772.903 320,767.103 C319.6,765.003 319.2,762.003 318.5,758.203 C324.3,756.303 328.4,752.603 332.2,746.803 C334.5,742.803 335.6,738.703 335.6,734.403 C335.6,732.503 335.4,730.603 335,728.703 M304.8,650.803 C306.6,645.103 309.3,641.703 311.3,640.003 C313.1,638.503 314.7,637.803 315.6,637.803 C315.7,637.803 315.9,637.903 316,637.903 C316.3,638.003 316.7,638.503 317.1,639.203 C318,641.003 318.9,644.303 318.9,648.003 C318.9,649.903 318.7,651.903 318.1,653.703 C315.9,660.503 311.3,667.803 304.3,675.503 C304.1,674.403 303.9,673.403 303.8,672.403 C303.3,669.203 303,666.003 303,663.103 C303,658.603 303.6,654.503 304.8,650.803 M300.8,754.903 C296.2,753.703 291.7,751.203 287.9,747.703 C286.6,746.503 284.8,744.303 283.3,740.903 C282,737.903 281.3,734.803 281.3,731.403 L281.3,730.703 C281.4,726.003 282.7,721.203 285.2,716.403 C288.1,710.803 292.6,705.303 298.7,700.003 C300.2,698.703 301.6,697.403 302.9,696.103 C303.7,700.403 304.4,705.103 305.3,710.003 C301.4,711.303 296.7,714.303 293.6,720.003 C291.2,724.503 290.5,728.403 290.5,731.603 C290.5,733.103 290.7,734.503 290.9,735.603 C291.8,740.103 294.4,743.803 297.9,745.903 C298.7,746.403 302,748.103 304,748.103 C304.3,748.103 304.6,748.103 304.8,748.003 C305.1,747.903 305.4,747.703 305.5,747.403 C305.6,747.203 305.6,747.003 305.6,746.803 C305.6,746.003 304.8,745.403 303.5,744.603 C302.9,744.203 302.2,743.803 301.5,743.303 C298.9,741.303 297.4,738.203 297.4,734.803 C297.4,733.803 297.6,732.903 297.8,731.903 C298.3,729.903 300,727.103 301.5,725.703 C303.2,724.203 305.2,723.003 307.6,722.403 C309.6,733.603 311.7,744.703 313.3,753.103 C313.4,753.803 313.6,754.503 313.7,755.203 C311.7,755.603 309.7,755.803 307.8,755.803 C305.4,755.803 303.1,755.503 300.8,754.903 M326.5,744.703 C325.3,747.903 322.8,751.903 317.7,754.003 C317.6,753.603 317.6,753.103 317.5,752.703 C316,743.903 314.1,733.003 312.1,721.703 L313.1,721.703 C322.8,721.703 326.7,728.903 327.6,733.503 C327.8,734.403 327.9,735.603 327.9,736.903 C327.9,739.203 327.5,742.003 326.5,744.703"/>
<path class="TimeSig" d="M365.2,960.516 L382,960.516 L382,967.816 L373.9,967.816 C373.1,967.816 372.5,968.416 372.5,969.216 L372.5,971.116 C372.5,971.916 373.1,972.416 373.9,972.416 L403.6,972.416 C404.4,972.416 405,971.916 405,971.116 L405,969.216 C405,968.416 404.4,967.816 403.6,967.816 L394.8,967.816 L394.8,960.516 L403.6,960.516 C404.4,960.516 405,959.916 405,959.116 L405,957.316 C405,956.516 404.4,955.916 403.6,955.916 L394.8,955.916 L394.8,940.216 C394.8,939.716 394.4,939.216 394,939.016 L392.9,938.416 C392.7,938.316 392.4,938.316 392.2,938.316 C391.9,938.316 391.5,938.416 391.3,938.616 L382.4,946.816 C382.2,947.016 382,947.516 382,947.816 L382,955.916 L370.7,955.916 C370.7,955.916 381.6,944.116 393.2,928.616 C394,927.516 393.6,926.516 393.4,926.316 L391.3,924.116 C391.1,923.916 390.6,923.716 390.3,923.716 L375.7,923.716 C375,923.716 374.5,924.316 374.4,924.916 C374.4,924.916 373.9,932.116 371.3,940.116 C368.7,948.116 365.9,952.916 363.3,956.516 C363.3,956.516 362.8,957.516 363.1,958.216 C363.4,958.916 364.1,960.016 364.1,960.016 C364.1,960.016 364.4,960.516 365.2,960.516"/>
<path class="TimeSig" d="M365.2,1009.12 L382,1009.12 L382,1016.42 L373.9,1016.42 C373.1,1016.42 372.5,1017.02 372.5,1017.82 L372.5,1019.72 C372.5,1020.52 373.1,1021.02 373.9,1021.02 L403.6,1021.02 C404.4,1021.02 405,1020.52 405,1019.72 L405,1017.82 C405,1017.02 404.4,1016.42 403.6,1016.42 L394.8,1016.42 L394.8,1009.12 L403.6,1009.12 C404.4,1009.12 405,1008.52 405,1007.72 L405,1005.92 C405,1005.12 404.4,1004.52 403.6,1004.52 L394.8,1004.52 L394.8,988.82 C394.8,988.32 394.4,987.82 394,987.62 L392.9,987.02 C392.7,986.92 392.4,986.92 392.2,986.92 C391.9,986.92 391.5,987.02 391.3,987.22 L382.4,995.42 C382.2,995.62 382,996.12 382,996.42 L382,1004.52 L370.7,1004.52 C370.7,1004.52 381.6,992.72 393.2,977.22 C394,976.12 393.6,975.12 393.4,974.92 L391.3,972.72 C391.1,972.52 390.6,972.32 390.3,972.32 L375.7,972.32 C375,972.32 374.5,972.92 374.4,973.52 C374.4,973.52 373.9,980.72 371.3,988.72 C368.7,996.72 365.9,1001.52 363.3,1005.12 C363.3,1005.12 362.8,1006.12 363.1,1006.82 C363.4,1007.52 364.1,1008.62 364.1,1008.62 C364.1,1008.62 364.4,1009.12 365.2,1009.12"/>
<path class="TimeSig" d="M365.2,697.999 L382,697.999 L382,705.299 L373.9,705.299 C373.1,705.299 372.5,705.899 372.5,706.699 L372.5,708.599 C372.5,709.399 373.1,709.899 373.9,709.899 L403.6,709.899 C404.4,709.899 405,709.399 405,708.599 L405,706.699 C405,705.899 404.4,705.299 403.6,705.299 L394.8,705.299 L394.8,697.999 L403.6,697.999 C404.4,697.999 405,697.399 405,696.599 L405,694.799 C405,693.999 404.4,693.399 403.6,693.399 L394.8,693.399 L394.8,677.699 C394.8,677.199 394.4,676.699 394,676.499 L392.9,675.899 C392.7,675.799 392.4,675.799 392.2,675.799 C391.9,675.799 391.5,675.899 391.3,676.099 L382.4,684.299 C382.2,684.499 382,684.999 382,685.299 L382,693.399 L370.7,693.399 C370.7,693.399 381.6,681.599 393.2,666.099 C394,664.999 393.6,663.999 393.4,663.799 L391.3,661.599 C391.1,661.399 390.6,661.199 390.3,661.199 L375.7,661.199 C375,661.199 374.5,661.799 374.4,662.399 C374.4,662.399 373.9,669.599 371.3,677.599 C368.7,685.599 365.9,690.399 363.3,693.999 C363.3,693.999 362.8,694.999 363.1,695.699 C363.4,696.399 364.1,697.499 364.1,697.499 C364.1,697.499 364.4,697.999 365.2,697.999"/>
<path class="TimeSig" d="M365.2,746.604 L382,746.604 L382,753.904 L373.9,753.904 C373.1,753.904 372.5,754.504 372.5,755.304 L372.5,757.204 C372.5,758.004 373.1,758.504 373.9,758.504 L403.6,758.504 C404.4,758.504 405,758.004 405,757.204 L405,755.304 C405,754.504 404.4,753.904 403.6,753.904 L394.8,753.904 L394.8,746.604 L403.6,746.604 C404.4,746.604 405,746.004 405,745.204 L405,743.404 C405,742.604 404.4,742.004 403.6,742.004 L394.8,742.004 L394.8,726.304 C394.8,725.804 394.4,725.304 394,725.104 L392.9,724.504 C392.7,724.404 392.4,724.404 392.2,724.404 C391.9,724.404 391.5,724.504 391.3,724.704 L382.4,732.904 C382.2,733.104 382,733.604 382,733.904 L382,742.004 L370.7,742.004 C370.7,742.004 381.6,730.204 393.2,714.704 C394,713.604 393.6,712.604 393.4,712.404 L391.3,710.204 C391.1,710.004 390.6,709.804 390.3,709.804 L375.7,709.804 C375,709.804 374.5,710.404 374.4,711.004 C374.4,711.004 373.9,718.204 371.3,726.204 C368.7,734.204 365.9,739.004 363.3,742.604 C363.3,742.604 362.8,743.604 363.1,744.304 C363.4,745.004 364.1,746.104 364.1,746.104 C364.1,746.104 364.4,746.604 365.2,746.604"/>
<path class="Page" d="M212.608,4045.31 L214.588,4045.62 L215.398,4042.07 C216.073,4039.1 216.388,4038.65 217.693,4038.65 C217.918,4038.65 218.278,4038.65 218.683,4038.69 C224.218,4038.96 224.218,4038.96 226.288,4038.96 C226.873,4038.96 227.908,4038.96 229.168,4038.92 L226.108,4045.08 C222.778,4051.7 222.373,4052.51 221.248,4055.3 C219.853,4058.67 219.133,4061.51 219.133,4063.4 C219.133,4065.47 220.213,4066.73 221.968,4066.73 C224.128,4066.73 224.983,4065.29 224.938,4061.37 C224.713,4054.89 225.523,4051.74 230.338,4041.21 C231.013,4039.77 231.688,4038.38 232.363,4036.98 C232.408,4036.89 232.543,4036.49 232.813,4035.9 L232.813,4034.6 C230.113,4034.82 228.673,4034.91 225.883,4034.91 C221.968,4034.91 218.863,4034.78 214.003,4034.42 L212.608,4045.31 "/>
<path class="Bracket" transform="matrix(3.62523,0,0,3.62523,214.469,1022.12)" d="M0.92002,-50 C2.69004,-51.88 6.2,-55.8 6.2,-63 C6.2,-72.1 2.25996,-81.32 2.25996,-86.97 C2.25996,-93.06 5.84004,-98.84 5.95,-99 C6.05996,-99.16 6.05,-99.39 5.94004,-99.46 C5.82998,-99.53 5.62002,-99.47 5.49004,-99.32 C5.35996,-99.17 0,-93.75 0,-85.6 C0,-76.75 3.5,-70.58 3.5,-59.07 C3.5,-56.89 2.55996,-53.36 0.1,-50.33 C-0.0799805,-50.17 -0.1,-49.89 0.0599609,-49.7 L0.0700195,-49.69 L0.1,-49.66 C2.55996,-46.63 3.5,-43.1 3.5,-40.92 C3.5,-29.4 0,-23.24 0,-14.39 C0,-6.25 5.35996,-0.8 5.49004,-0.659961 C5.62002,-0.52002 5.8,-0.42998 5.94004,-0.52002 C6.07998,-0.609961 6.07998,-0.77998 5.95,-0.97998 C5.82002,-1.17998 2.25996,-6.92002 2.25996,-13.01 C2.25996,-18.66 6.2,-27.9 6.2,-37 C6.2,-44.3 2.69004,-48.12 0.92002,-50"/>
</svg>