<?xml version="1.0" encoding="UTF-8" standalone="no"?>
<svg width="1000px" height="300px" viewBox="0 400 3040 900" xmlns="http://www.w3.org/2000/svg" xmlns:xlink="http://www.w3.org/1999/xlink" version="1.2" baseProfile="tiny">
 xmlns="http://www.w3.org/2000/svg" xmlns:xlink="http://www.w3.org/1999/xlink" version="1.2" baseProfile="tiny">
<title>exercises_scores (14)</title>
<desc>Generated by MuseScore 3.6.0</desc>
<polyline class="StaffLines" fill="none" stroke="#000000" stroke-width="2.75" stroke-linejoin="bevel" points="247.099,659.598 2764.63,659.598"/>
<polyline class="StaffLines" fill="none" stroke="#000000" stroke-width="2.75" stroke-linejoin="bevel" points="247.099,684.6 2764.63,684.6"/>
<polyline class="StaffLines" fill="none" stroke="#000000" stroke-width="2.75" stroke-linejoin="bevel" points="247.099,709.602 2764.63,709.602"/>
<polyline class="StaffLines" fill="none" stroke="#000000" stroke-width="2.75" stroke-linejoin="bevel" points="247.099,734.603 2764.63,734.603"/>
<polyline class="StaffLines" fill="none" stroke="#000000" stroke-width="2.75" stroke-linejoin="bevel" points="247.099,759.605 2764.63,759.605"/>
<polyline class="StaffLines" fill="none" stroke="#000000" stroke-width="2.75" stroke-linejoin="bevel" points="247.099,922.115 2764.63,922.115"/>
<polyline class="StaffLines" fill="none" stroke="#000000" stroke-width="2.75" stroke-linejoin="bevel" points="247.099,947.117 2764.63,947.117"/>
<polyline class="StaffLines" fill="none" stroke="#000000" stroke-width="2.75" stroke-linejoin="bevel" points="247.099,972.118 2764.63,972.118"/>
<polyline class="StaffLines" fill="none" stroke="#000000" stroke-width="2.75" stroke-linejoin="bevel" points="247.099,997.12 2764.63,997.12"/>
<polyline class="StaffLines" fill="none" stroke="#000000" stroke-width="2.75" stroke-linejoin="bevel" points="247.099,1022.12 2764.63,1022.12"/>
<path class="Text" d="M242.312,216.2 L240.092,216.2 L237.692,219.8 C234.812,217.1 231.032,215.66 226.772,215.66 C218.852,215.66 213.632,220.64 213.632,228.2 C213.632,234.74 216.872,237.98 225.692,240.26 L231.392,241.7 C235.832,242.84 236.252,242.96 237.512,243.92 C239.312,245.3 240.272,247.28 240.272,249.62 C240.272,252.02 239.372,254 237.572,255.68 C235.592,257.36 233.612,258.02 230.312,258.02 C225.872,258.02 222.692,256.64 219.872,253.52 C217.352,250.76 216.092,247.88 215.192,243.26 L212.612,243.26 L212.852,260.36 L215.192,260.36 L217.892,256.28 C221.912,259.58 225.212,260.78 230.492,260.78 C239.312,260.78 244.952,255.62 244.952,247.58 C244.952,243.8 243.752,240.68 241.352,238.4 C239.732,236.84 237.392,235.82 232.592,234.62 L226.172,233 C220.832,231.62 218.312,229.28 218.312,225.62 C218.312,221.42 221.732,218.54 226.832,218.54 C231.032,218.54 234.452,220.34 236.852,223.76 C238.592,226.22 239.732,228.74 240.452,231.8 L243.032,231.8 L242.312,216.2 M271.162,251.06 C269.242,255.38 267.202,257.12 264.082,257.12 C259.282,257.12 256.282,252.74 256.282,245.72 C256.282,238.4 259.222,233.6 263.662,233.6 C265.462,233.6 267.022,234.44 267.022,235.4 C267.022,235.58 266.962,235.76 266.662,236.12 C265.702,237.26 265.462,237.86 265.462,238.88 C265.462,240.86 266.962,242.24 269.062,242.24 C271.222,242.24 272.722,240.56 272.722,238.16 C272.722,234.08 268.702,231.02 263.362,231.02 C255.562,231.02 249.982,237.38 249.982,246.38 C249.982,254.9 255.082,260.78 262.522,260.78 C267.862,260.78 270.922,258.32 273.502,251.96 L271.162,251.06 M301.75,240.56 C301.75,236.78 301.09,234.86 299.35,233.42 C297.37,231.8 294.43,231.02 290.59,231.02 C283.81,231.02 278.89,234.2 278.89,238.58 C278.89,240.8 280.27,242.24 282.37,242.24 C284.29,242.24 285.61,240.98 285.61,239.18 C285.61,238.4 285.31,237.56 284.71,236.72 C284.35,236.3 284.29,236.18 284.29,235.88 C284.29,234.68 286.69,233.6 289.57,233.6 C291.49,233.6 293.59,234.2 294.55,235.1 C295.69,236.06 296.11,237.5 296.11,240.2 L296.11,242.54 C289.87,243.62 287.89,244.1 284.95,245.24 C279.73,247.16 277.27,249.92 277.27,253.76 C277.27,258.08 280.63,260.78 285.97,260.78 C290.11,260.78 293.83,259.1 296.41,256.04 C297.37,259.1 298.87,260.3 301.69,260.3 C304.39,260.3 307.21,258.56 307.21,256.82 C307.21,256.4 306.97,256.1 306.61,256.1 C306.37,256.1 306.13,256.16 305.71,256.34 C304.87,256.7 304.51,256.76 304.03,256.76 C302.35,256.76 301.75,255.68 301.75,252.62 L301.75,240.56 M296.11,247.88 C296.11,251.48 295.93,252.32 294.91,253.88 C293.41,256.1 290.71,257.6 288.07,257.6 C285.31,257.6 283.33,255.62 283.33,252.92 C283.33,250.4 284.59,248.6 287.23,247.34 C289.09,246.5 291.43,245.9 296.11,245.12 L296.11,247.88 M320.229,215.66 L309.129,216.32 L309.129,218.9 L312.069,218.9 C314.289,218.96 314.589,219.32 314.589,221.9 L314.589,252.5 L314.589,255.32 C314.529,256.22 314.469,256.58 314.229,256.88 C313.809,257.42 312.669,257.66 310.089,257.72 L309.669,257.72 L309.669,259.88 L325.209,259.88 L325.209,257.72 L324.789,257.72 C320.769,257.6 320.229,257.3 320.229,255.14 L320.229,252.5 L320.229,215.66 M354.78,246.38 C354.84,237.38 349.74,231.02 342.42,231.02 C334.74,231.02 328.98,237.68 328.98,246.68 C328.98,255.14 334.44,260.78 342.54,260.78 C348.3,260.78 352.32,257.96 354.78,252.26 L352.68,251.12 C350.22,255.74 347.7,257.54 343.68,257.54 C340.62,257.54 338.4,256.28 336.84,253.58 C335.76,251.78 335.28,249.68 335.34,246.38 L354.78,246.38 M335.4,243.8 C335.4,241.94 335.64,240.62 336.24,238.94 C337.5,235.34 339.42,233.6 342.36,233.6 C345.96,233.6 348.36,236.78 348.36,241.64 C348.36,243.32 347.82,243.8 345.9,243.8 L335.4,243.8 M366.601,253.22 C364.501,253.22 362.821,254.9 362.821,256.94 C362.821,259.04 364.501,260.72 366.541,260.72 C368.641,260.72 370.321,259.04 370.321,256.94 C370.321,254.9 368.641,253.22 366.601,253.22 M366.601,231.5 C364.501,231.5 362.821,233.18 362.821,235.28 C362.821,237.32 364.501,239 366.541,239 C368.641,239 370.321,237.32 370.321,235.22 C370.321,233.18 368.641,231.5 366.601,231.5 M392.805,216.56 L392.805,219.38 L393.885,219.38 C397.305,219.44 398.445,219.62 398.925,220.22 C399.285,220.76 399.285,220.88 399.285,223.94 L399.285,252.5 C399.285,255.56 399.285,255.68 398.925,256.22 C398.445,256.82 397.305,257.06 393.885,257.06 L392.805,257.06 L392.805,259.88 L414.585,259.88 C424.965,259.88 431.205,255.5 431.205,248.12 C431.205,242.12 427.425,238.7 419.205,237.26 C422.085,236.66 423.405,236.12 424.965,234.98 C427.425,233.12 428.925,230.18 428.925,227.18 C428.925,223.28 426.525,219.5 423.045,218 C420.885,217.04 417.885,216.56 414.345,216.56 L392.805,216.56 M406.005,236.06 L406.005,222.38 C406.005,220.04 406.785,219.44 409.965,219.38 L412.365,219.38 C415.125,219.38 417.405,219.86 418.665,220.64 C420.825,221.96 421.965,224.48 421.965,227.84 C421.965,233.78 419.085,236.06 411.345,236.06 L406.005,236.06 M406.005,238.88 L411.285,238.88 C420.465,238.88 423.825,241.34 423.825,247.94 C423.825,251.78 422.505,254.54 420.165,255.68 C418.305,256.64 415.785,257.06 412.005,257.06 L409.485,257.06 C406.485,257.06 405.885,256.46 406.005,253.28 L406.005,238.88 M454.237,242.18 C453.757,239.06 451.909,236.18 447.829,236.18 C443.749,236.18 441.595,238.622 441.199,239.096 L441.469,213.71 C441.469,213.706 441.469,213.701 441.469,213.698 C441.469,213.092 440.977,212.6 440.371,212.6 L440.371,212.6 L439.435,212.6 C439.183,212.601 438.834,212.746 438.655,212.924 C438.48,213.098 438.337,213.441 438.337,213.689 C438.337,213.695 438.337,213.704 438.337,213.71 L438.763,261.314 C438.77,261.913 439.262,262.4 439.861,262.4 L439.861,262.4 C440.055,262.399 440.34,262.308 440.497,262.196 C440.809,262.046 445.885,259.55 450.193,254.702 C453.871,250.568 454.837,245.72 454.237,242.18 M448.807,245.324 C448.801,246.482 448.513,250.166 446.509,253.166 C445.135,255.224 442.501,257.396 440.989,258.554 L441.157,243.104 C441.337,242.36 442.531,240.086 445.711,240.098 C449.185,240.11 448.807,244.166 448.807,245.324 M487.049,231.92 L476.369,232.58 L476.369,235.16 L478.829,235.16 C481.109,235.22 481.409,235.58 481.409,238.16 L481.409,252.5 L481.409,254.84 L481.409,255.32 C481.349,256.22 481.289,256.58 481.049,256.88 C480.629,257.42 479.489,257.66 476.909,257.72 L476.669,257.72 L476.669,259.88 L491.789,259.88 L491.789,257.72 L491.549,257.72 C487.589,257.6 487.049,257.3 487.049,255.08 L487.049,252.5 L487.049,243.98 C487.049,238.64 489.989,234.68 493.889,234.68 C497.309,234.68 499.049,237.14 499.049,242 L499.049,252.5 L499.049,255.38 C498.989,256.16 498.929,256.58 498.629,256.88 C498.269,257.42 497.069,257.66 494.489,257.72 L494.249,257.72 L494.249,259.88 L509.429,259.88 L509.429,257.72 L509.189,257.72 C505.229,257.6 504.689,257.3 504.689,255.14 L504.689,252.5 L504.689,244.52 C504.689,238.52 507.389,234.68 511.589,234.68 C515.009,234.68 516.689,237.26 516.689,242.66 L516.689,252.5 L516.689,255.32 C516.629,256.16 516.569,256.58 516.269,256.88 C515.909,257.42 514.709,257.66 512.129,257.72 L511.889,257.72 L511.889,259.88 L527.069,259.88 L527.069,257.72 L526.829,257.72 C522.869,257.6 522.329,257.3 522.329,255.08 L522.329,252.5 L522.329,241.46 C522.329,237.74 521.969,236.48 520.409,234.44 C518.669,232.22 516.209,231.02 513.329,231.02 C509.429,231.02 506.549,232.88 503.969,237.02 C502.949,233.42 499.709,231.02 495.689,231.02 C492.029,231.02 489.389,232.76 487.049,236.54 L487.049,231.92 M555.437,240.56 C555.437,236.78 554.777,234.86 553.037,233.42 C551.057,231.8 548.117,231.02 544.277,231.02 C537.497,231.02 532.577,234.2 532.577,238.58 C532.577,240.8 533.957,242.24 536.057,242.24 C537.977,242.24 539.297,240.98 539.297,239.18 C539.297,238.4 538.997,237.56 538.397,236.72 C538.037,236.3 537.977,236.18 537.977,235.88 C537.977,234.68 540.377,233.6 543.257,233.6 C545.177,233.6 547.277,234.2 548.237,235.1 C549.377,236.06 549.797,237.5 549.797,240.2 L549.797,242.54 C543.557,243.62 541.577,244.1 538.637,245.24 C533.417,247.16 530.957,249.92 530.957,253.76 C530.957,258.08 534.317,260.78 539.657,260.78 C543.797,260.78 547.517,259.1 550.097,256.04 C551.057,259.1 552.557,260.3 555.377,260.3 C558.077,260.3 560.897,258.56 560.897,256.82 C560.897,256.4 560.657,256.1 560.297,256.1 C560.057,256.1 559.817,256.16 559.397,256.34 C558.557,256.7 558.197,256.76 557.717,256.76 C556.037,256.76 555.437,255.68 555.437,252.62 L555.437,240.56 M549.797,247.88 C549.797,251.48 549.617,252.32 548.597,253.88 C547.097,256.1 544.397,257.6 541.757,257.6 C538.997,257.6 537.017,255.62 537.017,252.92 C537.017,250.4 538.277,248.6 540.917,247.34 C542.777,246.5 545.117,245.9 549.797,245.12 L549.797,247.88 M572.362,231.92 L560.662,232.58 L560.662,235.16 L564.142,235.16 C566.422,235.22 566.722,235.58 566.722,238.16 L566.722,258.5 C566.722,263.36 566.422,265.64 565.582,267.38 C564.982,268.58 563.602,269.48 562.282,269.48 C561.442,269.48 560.782,269.12 560.782,268.7 C560.782,268.46 560.842,268.34 561.082,267.74 C561.382,267.14 561.502,266.72 561.502,266.3 C561.502,264.8 560.062,263.48 558.382,263.48 C556.462,263.48 555.022,264.98 555.022,267.08 C555.022,270.02 557.722,272 561.742,272 C565.102,272 568.162,270.56 569.902,268.1 C571.762,265.46 572.362,262.4 572.362,255.62 L572.362,231.92 M569.542,216.98 C567.622,216.98 566.062,218.54 566.062,220.46 C566.062,222.38 567.622,223.94 569.482,223.94 C571.462,223.94 573.022,222.38 573.022,220.46 C573.022,218.54 571.462,216.98 569.542,216.98 M592.812,231.02 C585.432,231.02 579.732,237.56 579.732,245.96 C579.732,254.18 585.492,260.78 592.692,260.78 C599.892,260.78 605.652,254.18 605.652,245.9 C605.652,237.68 599.892,231.02 592.812,231.02 M592.812,233.6 C597.012,233.6 599.352,237.98 599.352,245.9 C599.352,253.88 597.012,258.2 592.692,258.2 C588.372,258.2 586.032,253.88 586.032,245.96 C586.032,237.8 588.312,233.6 592.812,233.6 M619.572,231.92 L608.952,232.58 L608.952,235.16 L611.412,235.16 C613.692,235.22 613.992,235.58 613.992,238.16 L613.992,252.5 L613.992,255.32 C613.932,256.22 613.872,256.58 613.632,256.88 C613.212,257.42 612.012,257.66 609.432,257.72 L609.192,257.72 L609.192,259.88 L625.212,259.88 L625.212,257.72 L624.132,257.72 C620.112,257.6 619.572,257.3 619.572,255.14 L619.572,252.5 L619.572,251.9 C619.632,241.82 623.232,234.14 627.912,233.9 C627.072,234.86 626.832,235.46 626.832,236.6 C626.832,238.52 628.212,239.9 630.132,239.9 C632.352,239.9 633.792,238.28 633.792,235.88 C633.792,232.94 631.752,231.02 628.572,231.02 C624.792,231.02 621.552,234.02 619.572,239.36 L619.572,231.92 "/>
<polyline class="BarLine" fill="none" stroke="#000000" stroke-width="4.50" stroke-linejoin="bevel" points="249.349,920.74 249.349,1023.5"/>
<polyline class="BarLine" fill="none" stroke="#000000" stroke-width="4.50" stroke-linejoin="bevel" points="1053.66,920.74 1053.66,1023.5"/>
<polyline class="BarLine" fill="none" stroke="#000000" stroke-width="4.50" stroke-linejoin="bevel" points="1620.26,920.74 1620.26,1023.5"/>
<polyline class="BarLine" fill="none" stroke="#000000" stroke-width="4.50" stroke-linejoin="bevel" points="2186.87,920.74 2186.87,1023.5"/>
<polyline class="BarLine" fill="none" stroke="#000000" stroke-width="4.50" stroke-linejoin="bevel" points="2734.88,920.74 2734.88,1023.5"/>
<polyline class="BarLine" fill="none" stroke="#000000" stroke-width="13.75" stroke-linejoin="bevel" points="2757.75,920.74 2757.75,1023.5"/>
<polyline class="BarLine" fill="none" stroke="#000000" stroke-width="4.50" stroke-linejoin="bevel" points="249.349,658.223 249.349,922.115"/>
<polyline class="BarLine" fill="none" stroke="#000000" stroke-width="4.50" stroke-linejoin="bevel" points="1053.66,658.223 1053.66,922.115"/>
<polyline class="BarLine" fill="none" stroke="#000000" stroke-width="4.50" stroke-linejoin="bevel" points="1620.26,658.223 1620.26,922.115"/>
<polyline class="BarLine" fill="none" stroke="#000000" stroke-width="4.50" stroke-linejoin="bevel" points="2186.87,658.223 2186.87,922.115"/>
<polyline class="BarLine" fill="none" stroke="#000000" stroke-width="4.50" stroke-linejoin="bevel" points="2734.88,658.223 2734.88,922.115"/>
<polyline class="BarLine" fill="none" stroke="#000000" stroke-width="13.75" stroke-linejoin="bevel" points="2757.75,658.223 2757.75,922.115"/>
<path class="Accidental" d="M483.853,989.22 C483.253,985.32 480.853,981.62 475.753,981.62 C470.753,981.62 467.853,984.72 467.353,985.32 L467.753,953.22 C467.753,952.42 467.153,951.82 466.353,951.82 L465.153,951.82 C464.353,951.82 463.753,952.42 463.753,953.22 L464.253,1013.32 C464.253,1014.12 464.853,1014.72 465.653,1014.72 C465.853,1014.72 466.253,1014.62 466.453,1014.52 C466.853,1014.32 473.353,1011.12 478.753,1005.02 C482.553,1000.72 484.053,995.82 484.053,991.72 C484.053,990.82 483.953,990.02 483.853,989.22 M476.953,993.12 C476.953,994.62 476.553,999.22 474.053,1003.02 C472.353,1005.62 468.953,1008.32 467.053,1009.82 L467.353,990.32 C467.553,989.42 469.053,986.52 473.053,986.52 C476.653,986.52 476.953,989.92 476.953,992.02 L476.953,993.12 "/>
<path class="Accidental" d="M904.681,951.717 C904.081,947.817 901.681,944.117 896.581,944.117 C891.581,944.117 888.681,947.217 888.181,947.817 L888.581,915.717 C888.581,914.917 887.981,914.317 887.181,914.317 L885.981,914.317 C885.181,914.317 884.581,914.917 884.581,915.717 L885.081,975.817 C885.081,976.617 885.681,977.217 886.481,977.217 C886.681,977.217 887.081,977.117 887.281,977.017 C887.681,976.817 894.181,973.617 899.581,967.517 C903.381,963.217 904.881,958.317 904.881,954.217 C904.881,953.317 904.781,952.517 904.681,951.717 M897.781,955.617 C897.781,957.117 897.381,961.717 894.881,965.517 C893.181,968.117 889.781,970.817 887.881,972.317 L888.181,952.817 C888.381,951.917 889.881,949.017 893.881,949.017 C897.481,949.017 897.781,952.417 897.781,954.517 L897.781,955.617 "/>
<path class="Accidental" d="M1479.16,901.714 C1478.56,897.814 1476.16,894.114 1471.06,894.114 C1466.06,894.114 1463.16,897.214 1462.66,897.814 L1463.06,865.714 C1463.06,864.914 1462.46,864.314 1461.66,864.314 L1460.46,864.314 C1459.66,864.314 1459.06,864.914 1459.06,865.714 L1459.56,925.814 C1459.56,926.614 1460.16,927.214 1460.96,927.214 C1461.16,927.214 1461.56,927.114 1461.76,927.014 C1462.16,926.814 1468.66,923.614 1474.06,917.514 C1477.86,913.214 1479.36,908.314 1479.36,904.214 C1479.36,903.314 1479.26,902.514 1479.16,901.714 M1472.26,905.614 C1472.26,907.114 1471.86,911.714 1469.36,915.514 C1467.66,918.114 1464.26,920.814 1462.36,922.314 L1462.66,902.814 C1462.86,901.914 1464.36,899.014 1468.36,899.014 C1471.96,899.014 1472.26,902.414 1472.26,904.514 L1472.26,905.614 "/>
<path class="Accidental" d="M2045.77,951.717 C2045.17,947.817 2042.77,944.117 2037.67,944.117 C2032.67,944.117 2029.77,947.217 2029.27,947.817 L2029.67,915.717 C2029.67,914.917 2029.07,914.317 2028.27,914.317 L2027.07,914.317 C2026.27,914.317 2025.67,914.917 2025.67,915.717 L2026.17,975.817 C2026.17,976.617 2026.77,977.217 2027.57,977.217 C2027.77,977.217 2028.17,977.117 2028.37,977.017 C2028.77,976.817 2035.27,973.617 2040.67,967.517 C2044.47,963.217 2045.97,958.317 2045.97,954.217 C2045.97,953.317 2045.87,952.517 2045.77,951.717 M2038.87,955.617 C2038.87,957.117 2038.47,961.717 2035.97,965.517 C2034.27,968.117 2030.87,970.817 2028.97,972.317 L2029.27,952.817 C2029.47,951.917 2030.97,949.017 2034.97,949.017 C2038.57,949.017 2038.87,952.417 2038.87,954.517 L2038.87,955.617 "/>
<path class="Accidental" d="M2499.06,989.22 C2498.46,985.32 2496.06,981.62 2490.96,981.62 C2485.96,981.62 2483.06,984.72 2482.56,985.32 L2482.96,953.22 C2482.96,952.42 2482.36,951.82 2481.56,951.82 L2480.36,951.82 C2479.56,951.82 2478.96,952.42 2478.96,953.22 L2479.46,1013.32 C2479.46,1014.12 2480.06,1014.72 2480.86,1014.72 C2481.06,1014.72 2481.46,1014.62 2481.66,1014.52 C2482.06,1014.32 2488.56,1011.12 2493.96,1005.02 C2497.76,1000.72 2499.26,995.82 2499.26,991.72 C2499.26,990.82 2499.16,990.02 2499.06,989.22 M2492.16,993.12 C2492.16,994.62 2491.76,999.22 2489.26,1003.02 C2487.56,1005.62 2484.16,1008.32 2482.26,1009.82 L2482.56,990.32 C2482.76,989.42 2484.26,986.52 2488.26,986.52 C2491.86,986.52 2492.16,989.92 2492.16,992.02 L2492.16,993.12 "/>
<path class="Accidental" d="M475.102,789.207 C474.502,785.307 472.102,781.607 467.002,781.607 C462.002,781.607 459.102,784.707 458.602,785.307 L459.002,753.207 C459.002,752.407 458.402,751.807 457.602,751.807 L456.402,751.807 C455.602,751.807 455.002,752.407 455.002,753.207 L455.502,813.307 C455.502,814.107 456.102,814.707 456.902,814.707 C457.102,814.707 457.502,814.607 457.702,814.507 C458.102,814.307 464.602,811.107 470.002,805.007 C473.802,800.707 475.302,795.807 475.302,791.707 C475.302,790.807 475.202,790.007 475.102,789.207 M468.202,793.107 C468.202,794.607 467.802,799.207 465.302,803.007 C463.602,805.607 460.202,808.307 458.302,809.807 L458.602,790.307 C458.802,789.407 460.302,786.507 464.302,786.507 C467.902,786.507 468.202,789.907 468.202,792.007 L468.202,793.107 "/>
<path class="Accidental" d="M904.681,751.705 C904.081,747.805 901.681,744.105 896.581,744.105 C891.581,744.105 888.681,747.205 888.181,747.805 L888.581,715.705 C888.581,714.905 887.981,714.305 887.181,714.305 L885.981,714.305 C885.181,714.305 884.581,714.905 884.581,715.705 L885.081,775.805 C885.081,776.605 885.681,777.205 886.481,777.205 C886.681,777.205 887.081,777.105 887.281,777.005 C887.681,776.805 894.181,773.605 899.581,767.505 C903.381,763.205 904.881,758.305 904.881,754.205 C904.881,753.305 904.781,752.505 904.681,751.705 M897.781,755.605 C897.781,757.105 897.381,761.705 894.881,765.505 C893.181,768.105 889.781,770.805 887.881,772.305 L888.181,752.805 C888.381,751.905 889.881,749.005 893.881,749.005 C897.481,749.005 897.781,752.405 897.781,754.505 L897.781,755.605 "/>
<path class="Accidental" d="M1479.16,701.702 C1478.56,697.802 1476.16,694.102 1471.06,694.102 C1466.06,694.102 1463.16,697.202 1462.66,697.802 L1463.06,665.702 C1463.06,664.902 1462.46,664.302 1461.66,664.302 L1460.46,664.302 C1459.66,664.302 1459.06,664.902 1459.06,665.702 L1459.56,725.802 C1459.56,726.602 1460.16,727.202 1460.96,727.202 C1461.16,727.202 1461.56,727.102 1461.76,727.002 C1462.16,726.802 1468.66,723.602 1474.06,717.502 C1477.86,713.202 1479.36,708.302 1479.36,704.202 C1479.36,703.302 1479.26,702.502 1479.16,701.702 M1472.26,705.602 C1472.26,707.102 1471.86,711.702 1469.36,715.502 C1467.66,718.102 1464.26,720.802 1462.36,722.302 L1462.66,702.802 C1462.86,701.902 1464.36,699.002 1468.36,699.002 C1471.96,699.002 1472.26,702.402 1472.26,704.502 L1472.26,705.602 "/>
<path class="Accidental" d="M2045.77,751.705 C2045.17,747.805 2042.77,744.105 2037.67,744.105 C2032.67,744.105 2029.77,747.205 2029.27,747.805 L2029.67,715.705 C2029.67,714.905 2029.07,714.305 2028.27,714.305 L2027.07,714.305 C2026.27,714.305 2025.67,714.905 2025.67,715.705 L2026.17,775.805 C2026.17,776.605 2026.77,777.205 2027.57,777.205 C2027.77,777.205 2028.17,777.105 2028.37,777.005 C2028.77,776.805 2035.27,773.605 2040.67,767.505 C2044.47,763.205 2045.97,758.305 2045.97,754.205 C2045.97,753.305 2045.87,752.505 2045.77,751.705 M2038.87,755.605 C2038.87,757.105 2038.47,761.705 2035.97,765.505 C2034.27,768.105 2030.87,770.805 2028.97,772.305 L2029.27,752.805 C2029.47,751.905 2030.97,749.005 2034.97,749.005 C2038.57,749.005 2038.87,752.405 2038.87,754.505 L2038.87,755.605 "/>
<path class="Accidental" d="M2490.31,789.207 C2489.71,785.307 2487.31,781.607 2482.21,781.607 C2477.21,781.607 2474.31,784.707 2473.81,785.307 L2474.21,753.207 C2474.21,752.407 2473.61,751.807 2472.81,751.807 L2471.61,751.807 C2470.81,751.807 2470.21,752.407 2470.21,753.207 L2470.71,813.307 C2470.71,814.107 2471.31,814.707 2472.11,814.707 C2472.31,814.707 2472.71,814.607 2472.91,814.507 C2473.31,814.307 2479.81,811.107 2485.21,805.007 C2489.01,800.707 2490.51,795.807 2490.51,791.707 C2490.51,790.807 2490.41,790.007 2490.31,789.207 M2483.41,793.107 C2483.41,794.607 2483.01,799.207 2480.51,803.007 C2478.81,805.607 2475.41,808.307 2473.51,809.807 L2473.81,790.307 C2474.01,789.407 2475.51,786.507 2479.51,786.507 C2483.11,786.507 2483.41,789.907 2483.41,792.007 L2483.41,793.107 "/>
<polyline class="LedgerLine" fill="none" stroke="#000000" stroke-width="4.00" stroke-linejoin="bevel" points="481.551,784.606 531.546,784.606"/>
<polyline class="LedgerLine" fill="none" stroke="#000000" stroke-width="4.00" stroke-linejoin="bevel" points="621.827,784.606 671.822,784.606"/>
<polyline class="LedgerLine" fill="none" stroke="#000000" stroke-width="4.00" stroke-linejoin="bevel" points="2354.81,784.606 2404.81,784.606"/>
<polyline class="LedgerLine" fill="none" stroke="#000000" stroke-width="4.00" stroke-linejoin="bevel" points="2496.76,784.606 2546.76,784.606"/>
<polyline class="Stem" fill="none" stroke="#000000" stroke-width="2.75" stroke-linejoin="bevel" points="521.421,993.76 521.421,912.739"/>
<polyline class="Stem" fill="none" stroke="#000000" stroke-width="2.75" stroke-linejoin="bevel" points="661.697,981.259 661.697,903.364"/>
<polyline class="Stem" fill="none" stroke="#000000" stroke-width="2.75" stroke-linejoin="bevel" points="772.229,975.638 772.229,1050.25"/>
<polyline class="Stem" fill="none" stroke="#000000" stroke-width="2.75" stroke-linejoin="bevel" points="912.505,963.138 912.505,1040.87"/>
<polyline class="Stem" fill="none" stroke="#000000" stroke-width="2.75" stroke-linejoin="bevel" points="1089.78,950.637 1089.78,1031.5"/>
<polyline class="Stem" fill="none" stroke="#000000" stroke-width="2.75" stroke-linejoin="bevel" points="1222.18,938.136 1222.18,1022.12"/>
<polyline class="Stem" fill="none" stroke="#000000" stroke-width="2.75" stroke-linejoin="bevel" points="1354.58,925.635 1354.58,1009.62"/>
<polyline class="Stem" fill="none" stroke="#000000" stroke-width="2.75" stroke-linejoin="bevel" points="1486.98,913.134 1486.98,997.12"/>
<polyline class="Stem" fill="none" stroke="#000000" stroke-width="2.75" stroke-linejoin="bevel" points="1656.39,925.635 1656.39,1009.62"/>
<polyline class="Stem" fill="none" stroke="#000000" stroke-width="2.75" stroke-linejoin="bevel" points="1788.79,938.136 1788.79,1022.12"/>
<polyline class="Stem" fill="none" stroke="#000000" stroke-width="2.75" stroke-linejoin="bevel" points="1921.19,950.637 1921.19,1031.5"/>
<polyline class="Stem" fill="none" stroke="#000000" stroke-width="2.75" stroke-linejoin="bevel" points="2053.59,963.138 2053.59,1040.87"/>
<polyline class="Stem" fill="none" stroke="#000000" stroke-width="2.75" stroke-linejoin="bevel" points="2222.99,975.638 2222.99,1050.25"/>
<polyline class="Stem" fill="none" stroke="#000000" stroke-width="2.75" stroke-linejoin="bevel" points="2394.68,981.259 2394.68,903.364"/>
<polyline class="Stem" fill="none" stroke="#000000" stroke-width="2.75" stroke-linejoin="bevel" points="2536.63,993.68 2536.63,912.739"/>
<polyline class="Stem" fill="none" stroke="#000000" stroke-width="2.75" stroke-linejoin="bevel" points="521.421,793.747 521.421,709.602"/>
<polyline class="Stem" fill="none" stroke="#000000" stroke-width="2.75" stroke-linejoin="bevel" points="661.697,781.246 661.697,697.101"/>
<polyline class="Stem" fill="none" stroke="#000000" stroke-width="2.75" stroke-linejoin="bevel" points="801.973,768.745 801.973,684.6"/>
<polyline class="Stem" fill="none" stroke="#000000" stroke-width="2.75" stroke-linejoin="bevel" points="942.249,756.245 942.249,672.099"/>
<polyline class="Stem" fill="none" stroke="#000000" stroke-width="2.75" stroke-linejoin="bevel" points="1119.53,743.744 1119.53,659.598"/>
<polyline class="Stem" fill="none" stroke="#000000" stroke-width="2.75" stroke-linejoin="bevel" points="1251.93,731.243 1251.93,650.223"/>
<polyline class="Stem" fill="none" stroke="#000000" stroke-width="2.75" stroke-linejoin="bevel" points="1384.33,718.742 1384.33,640.847"/>
<polyline class="Stem" fill="none" stroke="#000000" stroke-width="2.75" stroke-linejoin="bevel" points="1486.98,713.122 1486.98,787.732"/>
<polyline class="Stem" fill="none" stroke="#000000" stroke-width="2.75" stroke-linejoin="bevel" points="1686.13,718.742 1686.13,640.847"/>
<polyline class="Stem" fill="none" stroke="#000000" stroke-width="2.75" stroke-linejoin="bevel" points="1818.53,731.243 1818.53,650.223"/>
<polyline class="Stem" fill="none" stroke="#000000" stroke-width="2.75" stroke-linejoin="bevel" points="1950.93,743.744 1950.93,659.598"/>
<polyline class="Stem" fill="none" stroke="#000000" stroke-width="2.75" stroke-linejoin="bevel" points="2083.33,756.245 2083.33,672.099"/>
<polyline class="Stem" fill="none" stroke="#000000" stroke-width="2.75" stroke-linejoin="bevel" points="2252.74,768.745 2252.74,684.6"/>
<polyline class="Stem" fill="none" stroke="#000000" stroke-width="2.75" stroke-linejoin="bevel" points="2394.68,781.246 2394.68,697.101"/>
<polyline class="Stem" fill="none" stroke="#000000" stroke-width="2.75" stroke-linejoin="bevel" points="2536.63,793.667 2536.63,709.602"/>
<path class="Note" d="M521.801,988.92 C520.301,986.22 517.401,984.52 513.501,984.12 C512.901,984.02 512.401,984.02 511.801,984.02 C508.301,984.02 504.501,985.02 501.001,986.92 C494.401,990.52 490.301,996.42 490.301,1001.52 C490.301,1002.92 490.501,1004.22 491.201,1005.42 C492.701,1008.12 495.701,1009.82 499.601,1010.22 C500.201,1010.32 500.701,1010.32 501.301,1010.32 C504.801,1010.32 508.501,1009.32 512.001,1007.42 C518.601,1003.82 522.801,998.02 522.801,992.92 C522.801,991.52 522.501,990.12 521.801,988.92"/>
<path class="Note" d="M662.077,976.419 C660.577,973.719 657.677,972.019 653.777,971.619 C653.177,971.519 652.677,971.519 652.077,971.519 C648.577,971.519 644.777,972.519 641.277,974.419 C634.677,978.019 630.577,983.919 630.577,989.019 C630.577,990.419 630.777,991.719 631.477,992.919 C632.977,995.619 635.977,997.319 639.877,997.719 C640.477,997.819 640.977,997.819 641.577,997.819 C645.077,997.819 648.777,996.819 652.277,994.919 C658.877,991.319 663.077,985.519 663.077,980.419 C663.077,979.019 662.777,977.619 662.077,976.419"/>
<path class="Note" d="M802.354,963.918 C800.854,961.218 797.954,959.518 794.054,959.118 C793.454,959.018 792.954,959.018 792.354,959.018 C788.854,959.018 785.054,960.018 781.554,961.918 C774.954,965.518 770.854,971.418 770.854,976.518 C770.854,977.918 771.054,979.218 771.754,980.418 C773.254,983.118 776.254,984.818 780.154,985.218 C780.754,985.318 781.254,985.318 781.854,985.318 C785.354,985.318 789.054,984.318 792.554,982.418 C799.154,978.818 803.354,973.018 803.354,967.918 C803.354,966.518 803.054,965.118 802.354,963.918"/>
<path class="Note" d="M942.63,951.417 C941.13,948.717 938.23,947.017 934.33,946.617 C933.73,946.517 933.23,946.517 932.63,946.517 C929.13,946.517 925.33,947.517 921.83,949.417 C915.23,953.017 911.13,958.917 911.13,964.017 C911.13,965.417 911.33,966.717 912.03,967.917 C913.53,970.617 916.53,972.317 920.43,972.717 C921.03,972.817 921.53,972.817 922.13,972.817 C925.63,972.817 929.33,971.817 932.83,969.917 C939.43,966.317 943.63,960.517 943.63,955.417 C943.63,954.017 943.33,952.617 942.63,951.417"/>
<path class="Note" d="M1119.91,938.917 C1118.41,936.217 1115.51,934.517 1111.61,934.117 C1111.01,934.017 1110.51,934.017 1109.91,934.017 C1106.41,934.017 1102.61,935.017 1099.11,936.917 C1092.51,940.517 1088.41,946.417 1088.41,951.517 C1088.41,952.917 1088.61,954.217 1089.31,955.417 C1090.81,958.117 1093.81,959.817 1097.71,960.217 C1098.31,960.317 1098.81,960.317 1099.41,960.317 C1102.91,960.317 1106.61,959.317 1110.11,957.417 C1116.71,953.817 1120.91,948.017 1120.91,942.917 C1120.91,941.517 1120.61,940.117 1119.91,938.917"/>
<path class="Note" d="M1252.31,926.416 C1250.81,923.716 1247.91,922.016 1244.01,921.616 C1243.41,921.516 1242.91,921.516 1242.31,921.516 C1238.81,921.516 1235.01,922.516 1231.51,924.416 C1224.91,928.016 1220.81,933.916 1220.81,939.016 C1220.81,940.416 1221.01,941.716 1221.71,942.916 C1223.21,945.616 1226.21,947.316 1230.11,947.716 C1230.71,947.816 1231.21,947.816 1231.81,947.816 C1235.31,947.816 1239.01,946.816 1242.51,944.916 C1249.11,941.316 1253.31,935.516 1253.31,930.416 C1253.31,929.016 1253.01,927.616 1252.31,926.416"/>
<path class="Note" d="M1384.71,913.915 C1383.21,911.215 1380.31,909.515 1376.41,909.115 C1375.81,909.015 1375.31,909.015 1374.71,909.015 C1371.21,909.015 1367.41,910.015 1363.91,911.915 C1357.31,915.515 1353.21,921.415 1353.21,926.515 C1353.21,927.915 1353.41,929.215 1354.11,930.415 C1355.61,933.115 1358.61,934.815 1362.51,935.215 C1363.11,935.315 1363.61,935.315 1364.21,935.315 C1367.71,935.315 1371.41,934.315 1374.91,932.415 C1381.51,928.815 1385.71,923.015 1385.71,917.915 C1385.71,916.515 1385.41,915.115 1384.71,913.915"/>
<path class="Note" d="M1517.11,901.414 C1515.61,898.714 1512.71,897.014 1508.81,896.614 C1508.21,896.514 1507.71,896.514 1507.11,896.514 C1503.61,896.514 1499.81,897.514 1496.31,899.414 C1489.71,903.014 1485.61,908.914 1485.61,914.014 C1485.61,915.414 1485.81,916.714 1486.51,917.914 C1488.01,920.614 1491.01,922.314 1494.91,922.714 C1495.51,922.814 1496.01,922.814 1496.61,922.814 C1500.11,922.814 1503.81,921.814 1507.31,919.914 C1513.91,916.314 1518.11,910.514 1518.11,905.414 C1518.11,904.014 1517.81,902.614 1517.11,901.414"/>
<path class="Note" d="M1686.51,913.915 C1685.01,911.215 1682.11,909.515 1678.21,909.115 C1677.61,909.015 1677.11,909.015 1676.51,909.015 C1673.01,909.015 1669.21,910.015 1665.71,911.915 C1659.11,915.515 1655.01,921.415 1655.01,926.515 C1655.01,927.915 1655.21,929.215 1655.91,930.415 C1657.41,933.115 1660.41,934.815 1664.31,935.215 C1664.91,935.315 1665.41,935.315 1666.01,935.315 C1669.51,935.315 1673.21,934.315 1676.71,932.415 C1683.31,928.815 1687.51,923.015 1687.51,917.915 C1687.51,916.515 1687.21,915.115 1686.51,913.915"/>
<path class="Note" d="M1818.91,926.416 C1817.41,923.716 1814.51,922.016 1810.61,921.616 C1810.01,921.516 1809.51,921.516 1808.91,921.516 C1805.41,921.516 1801.61,922.516 1798.11,924.416 C1791.51,928.016 1787.41,933.916 1787.41,939.016 C1787.41,940.416 1787.61,941.716 1788.31,942.916 C1789.81,945.616 1792.81,947.316 1796.71,947.716 C1797.31,947.816 1797.81,947.816 1798.41,947.816 C1801.91,947.816 1805.61,946.816 1809.11,944.916 C1815.71,941.316 1819.91,935.516 1819.91,930.416 C1819.91,929.016 1819.61,927.616 1818.91,926.416"/>
<path class="Note" d="M1951.31,938.917 C1949.81,936.217 1946.91,934.517 1943.01,934.117 C1942.41,934.017 1941.91,934.017 1941.31,934.017 C1937.81,934.017 1934.01,935.017 1930.51,936.917 C1923.91,940.517 1919.81,946.417 1919.81,951.517 C1919.81,952.917 1920.01,954.217 1920.71,955.417 C1922.21,958.117 1925.21,959.817 1929.11,960.217 C1929.71,960.317 1930.21,960.317 1930.81,960.317 C1934.31,960.317 1938.01,959.317 1941.51,957.417 C1948.11,953.817 1952.31,948.017 1952.31,942.917 C1952.31,941.517 1952.01,940.117 1951.31,938.917"/>
<path class="Note" d="M2083.71,951.417 C2082.21,948.717 2079.31,947.017 2075.41,946.617 C2074.81,946.517 2074.31,946.517 2073.71,946.517 C2070.21,946.517 2066.41,947.517 2062.91,949.417 C2056.31,953.017 2052.21,958.917 2052.21,964.017 C2052.21,965.417 2052.41,966.717 2053.11,967.917 C2054.61,970.617 2057.61,972.317 2061.51,972.717 C2062.11,972.817 2062.61,972.817 2063.21,972.817 C2066.71,972.817 2070.41,971.817 2073.91,969.917 C2080.51,966.317 2084.71,960.517 2084.71,955.417 C2084.71,954.017 2084.41,952.617 2083.71,951.417"/>
<path class="Note" d="M2253.12,963.918 C2251.62,961.218 2248.72,959.518 2244.82,959.118 C2244.22,959.018 2243.72,959.018 2243.12,959.018 C2239.62,959.018 2235.82,960.018 2232.32,961.918 C2225.72,965.518 2221.62,971.418 2221.62,976.518 C2221.62,977.918 2221.82,979.218 2222.52,980.418 C2224.02,983.118 2227.02,984.818 2230.92,985.218 C2231.52,985.318 2232.02,985.318 2232.62,985.318 C2236.12,985.318 2239.82,984.318 2243.32,982.418 C2249.92,978.818 2254.12,973.018 2254.12,967.918 C2254.12,966.518 2253.82,965.118 2253.12,963.918"/>
<path class="Note" d="M2395.06,976.419 C2393.56,973.719 2390.66,972.019 2386.76,971.619 C2386.16,971.519 2385.66,971.519 2385.06,971.519 C2381.56,971.519 2377.76,972.519 2374.26,974.419 C2367.66,978.019 2363.56,983.919 2363.56,989.019 C2363.56,990.419 2363.76,991.719 2364.46,992.919 C2365.96,995.619 2368.96,997.319 2372.86,997.719 C2373.46,997.819 2373.96,997.819 2374.56,997.819 C2378.06,997.819 2381.76,996.819 2385.26,994.919 C2391.86,991.319 2396.06,985.519 2396.06,980.419 C2396.06,979.019 2395.76,977.619 2395.06,976.419"/>
<path class="Note" d="M2537.01,988.92 C2535.51,986.22 2532.61,984.52 2528.71,984.12 C2528.11,984.02 2527.61,984.02 2527.01,984.02 C2523.51,984.02 2519.71,985.02 2516.21,986.92 C2509.61,990.52 2505.51,996.32 2505.51,1001.42 C2505.51,1002.82 2505.91,1004.22 2506.61,1005.42 C2508.11,1008.22 2510.91,1009.82 2514.81,1010.22 C2515.41,1010.32 2515.91,1010.32 2516.51,1010.32 C2520.01,1010.32 2523.81,1009.32 2527.31,1007.42 C2533.91,1003.82 2538.01,997.92 2538.01,992.82 C2538.01,991.42 2537.71,990.12 2537.01,988.92 M2532.81,995.22 C2531.11,997.02 2527.91,999.32 2524.31,1001.42 C2520.71,1003.52 2517.01,1005.22 2514.71,1005.92 C2514.21,1006.02 2513.61,1006.12 2513.11,1006.12 C2511.61,1006.12 2510.31,1005.42 2509.61,1004.32 C2509.31,1003.72 2509.11,1003.12 2509.11,1002.52 C2509.11,1001.42 2509.61,1000.32 2510.71,999.12 C2512.41,997.32 2515.61,994.92 2519.21,992.82 C2522.81,990.72 2526.51,989.02 2528.91,988.42 L2529.11,988.42 C2529.71,988.22 2530.21,988.12 2530.71,988.12 C2532.11,988.12 2533.21,988.72 2533.91,990.02 C2534.21,990.62 2534.41,991.12 2534.41,991.72 C2534.41,993.02 2533.71,994.32 2532.81,995.22"/>
<path class="Note" d="M521.801,788.907 C520.301,786.207 517.401,784.507 513.501,784.107 C512.901,784.007 512.401,784.007 511.801,784.007 C508.301,784.007 504.501,785.007 501.001,786.907 C494.401,790.507 490.301,796.407 490.301,801.507 C490.301,802.907 490.501,804.207 491.201,805.407 C492.701,808.107 495.701,809.807 499.601,810.207 C500.201,810.307 500.701,810.307 501.301,810.307 C504.801,810.307 508.501,809.307 512.001,807.407 C518.601,803.807 522.801,798.007 522.801,792.907 C522.801,791.507 522.501,790.107 521.801,788.907"/>
<path class="Note" d="M662.077,776.406 C660.577,773.706 657.677,772.006 653.777,771.606 C653.177,771.506 652.677,771.506 652.077,771.506 C648.577,771.506 644.777,772.506 641.277,774.406 C634.677,778.006 630.577,783.906 630.577,789.006 C630.577,790.406 630.777,791.706 631.477,792.906 C632.977,795.606 635.977,797.306 639.877,797.706 C640.477,797.806 640.977,797.806 641.577,797.806 C645.077,797.806 648.777,796.806 652.277,794.906 C658.877,791.306 663.077,785.506 663.077,780.406 C663.077,779.006 662.777,777.606 662.077,776.406"/>
<path class="Note" d="M802.354,763.906 C800.854,761.206 797.954,759.506 794.054,759.106 C793.454,759.006 792.954,759.006 792.354,759.006 C788.854,759.006 785.054,760.006 781.554,761.906 C774.954,765.506 770.854,771.406 770.854,776.506 C770.854,777.906 771.054,779.206 771.754,780.406 C773.254,783.106 776.254,784.806 780.154,785.206 C780.754,785.306 781.254,785.306 781.854,785.306 C785.354,785.306 789.054,784.306 792.554,782.406 C799.154,778.806 803.354,773.006 803.354,767.906 C803.354,766.506 803.054,765.106 802.354,763.906"/>
<path class="Note" d="M942.63,751.405 C941.13,748.705 938.23,747.005 934.33,746.605 C933.73,746.505 933.23,746.505 932.63,746.505 C929.13,746.505 925.33,747.505 921.83,749.405 C915.23,753.005 911.13,758.905 911.13,764.005 C911.13,765.405 911.33,766.705 912.03,767.905 C913.53,770.605 916.53,772.305 920.43,772.705 C921.03,772.805 921.53,772.805 922.13,772.805 C925.63,772.805 929.33,771.805 932.83,769.905 C939.43,766.305 943.63,760.505 943.63,755.405 C943.63,754.005 943.33,752.605 942.63,751.405"/>
<path class="Note" d="M1119.91,738.904 C1118.41,736.204 1115.51,734.504 1111.61,734.104 C1111.01,734.004 1110.51,734.004 1109.91,734.004 C1106.41,734.004 1102.61,735.004 1099.11,736.904 C1092.51,740.504 1088.41,746.404 1088.41,751.504 C1088.41,752.904 1088.61,754.204 1089.31,755.404 C1090.81,758.104 1093.81,759.804 1097.71,760.204 C1098.31,760.304 1098.81,760.304 1099.41,760.304 C1102.91,760.304 1106.61,759.304 1110.11,757.404 C1116.71,753.804 1120.91,748.004 1120.91,742.904 C1120.91,741.504 1120.61,740.104 1119.91,738.904"/>
<path class="Note" d="M1252.31,726.403 C1250.81,723.703 1247.91,722.003 1244.01,721.603 C1243.41,721.503 1242.91,721.503 1242.31,721.503 C1238.81,721.503 1235.01,722.503 1231.51,724.403 C1224.91,728.003 1220.81,733.903 1220.81,739.003 C1220.81,740.403 1221.01,741.703 1221.71,742.903 C1223.21,745.603 1226.21,747.303 1230.11,747.703 C1230.71,747.803 1231.21,747.803 1231.81,747.803 C1235.31,747.803 1239.01,746.803 1242.51,744.903 C1249.11,741.303 1253.31,735.503 1253.31,730.403 C1253.31,729.003 1253.01,727.603 1252.31,726.403"/>
<path class="Note" d="M1384.71,713.902 C1383.21,711.202 1380.31,709.502 1376.41,709.102 C1375.81,709.002 1375.31,709.002 1374.71,709.002 C1371.21,709.002 1367.41,710.002 1363.91,711.902 C1357.31,715.502 1353.21,721.402 1353.21,726.502 C1353.21,727.902 1353.41,729.202 1354.11,730.402 C1355.61,733.102 1358.61,734.802 1362.51,735.202 C1363.11,735.302 1363.61,735.302 1364.21,735.302 C1367.71,735.302 1371.41,734.302 1374.91,732.402 C1381.51,728.802 1385.71,723.002 1385.71,717.902 C1385.71,716.502 1385.41,715.102 1384.71,713.902"/>
<path class="Note" d="M1517.11,701.402 C1515.61,698.702 1512.71,697.002 1508.81,696.602 C1508.21,696.502 1507.71,696.502 1507.11,696.502 C1503.61,696.502 1499.81,697.502 1496.31,699.402 C1489.71,703.002 1485.61,708.902 1485.61,714.002 C1485.61,715.402 1485.81,716.702 1486.51,717.902 C1488.01,720.602 1491.01,722.302 1494.91,722.702 C1495.51,722.802 1496.01,722.802 1496.61,722.802 C1500.11,722.802 1503.81,721.802 1507.31,719.902 C1513.91,716.302 1518.11,710.502 1518.11,705.402 C1518.11,704.002 1517.81,702.602 1517.11,701.402"/>
<path class="Note" d="M1686.51,713.902 C1685.01,711.202 1682.11,709.502 1678.21,709.102 C1677.61,709.002 1677.11,709.002 1676.51,709.002 C1673.01,709.002 1669.21,710.002 1665.71,711.902 C1659.11,715.502 1655.01,721.402 1655.01,726.502 C1655.01,727.902 1655.21,729.202 1655.91,730.402 C1657.41,733.102 1660.41,734.802 1664.31,735.202 C1664.91,735.302 1665.41,735.302 1666.01,735.302 C1669.51,735.302 1673.21,734.302 1676.71,732.402 C1683.31,728.802 1687.51,723.002 1687.51,717.902 C1687.51,716.502 1687.21,715.102 1686.51,713.902"/>
<path class="Note" d="M1818.91,726.403 C1817.41,723.703 1814.51,722.003 1810.61,721.603 C1810.01,721.503 1809.51,721.503 1808.91,721.503 C1805.41,721.503 1801.61,722.503 1798.11,724.403 C1791.51,728.003 1787.41,733.903 1787.41,739.003 C1787.41,740.403 1787.61,741.703 1788.31,742.903 C1789.81,745.603 1792.81,747.303 1796.71,747.703 C1797.31,747.803 1797.81,747.803 1798.41,747.803 C1801.91,747.803 1805.61,746.803 1809.11,744.903 C1815.71,741.303 1819.91,735.503 1819.91,730.403 C1819.91,729.003 1819.61,727.603 1818.91,726.403"/>
<path class="Note" d="M1951.31,738.904 C1949.81,736.204 1946.91,734.504 1943.01,734.104 C1942.41,734.004 1941.91,734.004 1941.31,734.004 C1937.81,734.004 1934.01,735.004 1930.51,736.904 C1923.91,740.504 1919.81,746.404 1919.81,751.504 C1919.81,752.904 1920.01,754.204 1920.71,755.404 C1922.21,758.104 1925.21,759.804 1929.11,760.204 C1929.71,760.304 1930.21,760.304 1930.81,760.304 C1934.31,760.304 1938.01,759.304 1941.51,757.404 C1948.11,753.804 1952.31,748.004 1952.31,742.904 C1952.31,741.504 1952.01,740.104 1951.31,738.904"/>
<path class="Note" d="M2083.71,751.405 C2082.21,748.705 2079.31,747.005 2075.41,746.605 C2074.81,746.505 2074.31,746.505 2073.71,746.505 C2070.21,746.505 2066.41,747.505 2062.91,749.405 C2056.31,753.005 2052.21,758.905 2052.21,764.005 C2052.21,765.405 2052.41,766.705 2053.11,767.905 C2054.61,770.605 2057.61,772.305 2061.51,772.705 C2062.11,772.805 2062.61,772.805 2063.21,772.805 C2066.71,772.805 2070.41,771.805 2073.91,769.905 C2080.51,766.305 2084.71,760.505 2084.71,755.405 C2084.71,754.005 2084.41,752.605 2083.71,751.405"/>
<path class="Note" d="M2253.12,763.906 C2251.62,761.206 2248.72,759.506 2244.82,759.106 C2244.22,759.006 2243.72,759.006 2243.12,759.006 C2239.62,759.006 2235.82,760.006 2232.32,761.906 C2225.72,765.506 2221.62,771.406 2221.62,776.506 C2221.62,777.906 2221.82,779.206 2222.52,780.406 C2224.02,783.106 2227.02,784.806 2230.92,785.206 C2231.52,785.306 2232.02,785.306 2232.62,785.306 C2236.12,785.306 2239.82,784.306 2243.32,782.406 C2249.92,778.806 2254.12,773.006 2254.12,767.906 C2254.12,766.506 2253.82,765.106 2253.12,763.906"/>
<path class="Note" d="M2395.06,776.406 C2393.56,773.706 2390.66,772.006 2386.76,771.606 C2386.16,771.506 2385.66,771.506 2385.06,771.506 C2381.56,771.506 2377.76,772.506 2374.26,774.406 C2367.66,778.006 2363.56,783.906 2363.56,789.006 C2363.56,790.406 2363.76,791.706 2364.46,792.906 C2365.96,795.606 2368.96,797.306 2372.86,797.706 C2373.46,797.806 2373.96,797.806 2374.56,797.806 C2378.06,797.806 2381.76,796.806 2385.26,794.906 C2391.86,791.306 2396.06,785.506 2396.06,780.406 C2396.06,779.006 2395.76,777.606 2395.06,776.406"/>
<path class="Note" d="M2537.01,788.907 C2535.51,786.207 2532.61,784.507 2528.71,784.107 C2528.11,784.007 2527.61,784.007 2527.01,784.007 C2523.51,784.007 2519.71,785.007 2516.21,786.907 C2509.61,790.507 2505.51,796.307 2505.51,801.407 C2505.51,802.807 2505.91,804.207 2506.61,805.407 C2508.11,808.207 2510.91,809.807 2514.81,810.207 C2515.41,810.307 2515.91,810.307 2516.51,810.307 C2520.01,810.307 2523.81,809.307 2527.31,807.407 C2533.91,803.807 2538.01,797.907 2538.01,792.807 C2538.01,791.407 2537.71,790.107 2537.01,788.907 M2532.81,795.207 C2531.11,797.007 2527.91,799.307 2524.31,801.407 C2520.71,803.507 2517.01,805.207 2514.71,805.907 C2514.21,806.007 2513.61,806.107 2513.11,806.107 C2511.61,806.107 2510.31,805.407 2509.61,804.307 C2509.31,803.707 2509.11,803.107 2509.11,802.507 C2509.11,801.407 2509.61,800.307 2510.71,799.107 C2512.41,797.307 2515.61,794.907 2519.21,792.807 C2522.81,790.707 2526.51,789.007 2528.91,788.407 L2529.11,788.407 C2529.71,788.207 2530.21,788.107 2530.71,788.107 C2532.11,788.107 2533.21,788.707 2533.91,790.007 C2534.21,790.607 2534.41,791.107 2534.41,791.707 C2534.41,793.007 2533.71,794.307 2532.81,795.207"/>
<path class="Clef" d="M297,922.017 C289.4,922.017 283.3,926.417 283.2,926.417 C277.4,930.717 275.1,935.817 274.2,939.317 C273.7,941.117 273.5,942.917 273.5,944.617 C273.5,947.017 273.9,949.217 274.8,951.117 C276,953.817 278.3,955.717 281.3,956.717 C282.5,957.117 283.8,957.317 285.1,957.317 C287.3,957.317 289.6,956.717 291.5,955.617 C294.6,953.917 296.5,950.317 296.5,946.417 C296.5,942.917 294.7,939.717 291.7,937.817 C289.6,936.417 287.6,936.017 285.9,936.017 C284.7,936.017 283.6,936.217 282.7,936.517 C281.7,936.917 280,937.917 279.2,938.617 C279.5,936.717 280.7,933.817 281.8,932.217 C282.9,930.617 285.1,928.617 286.8,927.717 C289.3,926.317 292.5,925.717 296,925.717 C306.2,925.717 311.2,933.917 311.2,950.717 C311.2,960.017 307.7,968.917 304.7,974.817 C301.4,981.417 297,987.717 293.1,991.217 C282.7,1000.72 272.9,1005.22 272.8,1005.22 C272.8,1005.22 271.3,1006.12 271.7,1007.62 C272,1008.62 272.9,1008.82 273.5,1008.82 C273.6,1008.82 273.9,1008.72 274,1008.72 C274.1,1008.72 285.5,1004.02 294.6,996.917 C299.7,993.217 304.3,989.217 308.3,984.917 C311.9,981.017 315,976.817 317.5,972.617 C321.9,965.117 324.4,957.317 324.4,950.617 C324.4,942.317 322.2,935.417 318.1,930.517 C313.4,924.917 306.3,922.017 297,922.017 M328.4,934.717 C328.4,937.517 330.6,939.717 333.2,939.717 C335.8,939.717 338,937.517 338,934.717 C338,931.917 335.8,929.617 333.2,929.617 C330.6,929.617 328.4,931.917 328.4,934.717 M328.4,959.417 C328.4,962.217 330.6,964.517 333.2,964.517 C335.8,964.517 338,962.217 338,959.417 C338,956.617 335.8,954.317 333.2,954.317 C330.6,954.317 328.4,956.617 328.4,959.417"/>
<path class="Clef" d="M335,728.703 C333.8,723.303 331.1,719.403 330.3,718.403 C327.1,714.103 323.1,711.303 318.4,709.903 C316.1,709.203 314,709.003 312,709.003 C311.3,709.003 310.6,709.003 309.9,709.103 C308.9,703.103 307.8,697.203 306.9,691.803 C312.5,685.603 316.2,679.703 318.6,675.303 C322.2,668.603 323.6,663.903 323.7,663.703 C324.9,660.703 325.6,656.903 325.6,652.403 C325.6,649.703 325.3,646.803 324.9,643.803 C323.8,636.703 321.6,630.003 319.1,626.303 C317.8,624.403 316.6,623.303 315.4,623.303 C314.2,623.303 311.7,624.503 308.8,627.303 C306.5,629.503 303.2,633.403 300.6,639.403 C298.3,644.803 297.6,651.703 297.6,657.603 C297.6,659.403 297.7,661.103 297.8,662.703 C298,666.303 298.7,672.103 299.3,675.703 C299.3,675.803 299.6,677.303 300,679.903 L299.3,680.603 C298.3,681.603 297.1,682.703 295.7,684.103 C294.8,685.003 293.9,685.803 292.9,686.803 C284.4,695.003 271.6,707.403 271.6,726.503 C271.6,731.203 272.5,735.603 274.3,739.603 C275.9,743.203 278.2,746.503 281.1,749.403 C288.6,756.803 298.8,760.003 305.9,760.003 L306.5,760.003 C309.4,759.903 312.1,759.603 314.5,759.203 C316.3,768.803 317.5,775.903 317.5,781.203 C317.5,787.703 315.9,791.603 312,794.403 C309.6,796.103 306.7,797.203 303.6,797.303 L302.8,797.303 C301.3,797.303 298.8,796.903 297.3,796.503 C297.3,796.503 297,796.403 297,796.203 C297,796.003 297.4,796.003 297.4,796.003 C299.3,795.603 302.9,794.303 305.3,791.003 C306.4,789.503 307.1,787.203 307.1,784.703 C307.1,783.103 306.8,781.403 306.1,779.903 C305,777.503 302.4,774.503 296.8,774.103 L295.7,774.103 C293.6,774.103 291.8,774.603 290.1,775.603 C288.3,776.703 286.7,778.403 285.7,780.403 C284.6,782.403 284.1,784.603 284.1,786.803 C284.1,789.703 285,792.403 286.8,794.603 C289.8,798.203 294.5,800.503 299.9,801.103 C300.6,801.203 301.7,801.303 302.4,801.303 C306.8,801.303 311.2,800.103 314.8,797.903 C318.5,795.303 320.6,791.303 321.3,785.703 C321.5,784.403 321.5,783.003 321.5,781.503 C321.5,777.603 321,772.903 320,767.103 C319.6,765.003 319.2,762.003 318.5,758.203 C324.3,756.303 328.4,752.603 332.2,746.803 C334.5,742.803 335.6,738.703 335.6,734.403 C335.6,732.503 335.4,730.603 335,728.703 M304.8,650.803 C306.6,645.103 309.3,641.703 311.3,640.003 C313.1,638.503 314.7,637.803 315.6,637.803 C315.7,637.803 315.9,637.903 316,637.903 C316.3,638.003 316.7,638.503 317.1,639.203 C318,641.003 318.9,644.303 318.9,648.003 C318.9,649.903 318.7,651.903 318.1,653.703 C315.9,660.503 311.3,667.803 304.3,675.503 C304.1,674.403 303.9,673.403 303.8,672.403 C303.3,669.203 303,666.003 303,663.103 C303,658.603 303.6,654.503 304.8,650.803 M300.8,754.903 C296.2,753.703 291.7,751.203 287.9,747.703 C286.6,746.503 284.8,744.303 283.3,740.903 C282,737.903 281.3,734.803 281.3,731.403 L281.3,730.703 C281.4,726.003 282.7,721.203 285.2,716.403 C288.1,710.803 292.6,705.303 298.7,700.003 C300.2,698.703 301.6,697.403 302.9,696.103 C303.7,700.403 304.4,705.103 305.3,710.003 C301.4,711.303 296.7,714.303 293.6,720.003 C291.2,724.503 290.5,728.403 290.5,731.603 C290.5,733.103 290.7,734.503 290.9,735.603 C291.8,740.103 294.4,743.803 297.9,745.903 C298.7,746.403 302,748.103 304,748.103 C304.3,748.103 304.6,748.103 304.8,748.003 C305.1,747.903 305.4,747.703 305.5,747.403 C305.6,747.203 305.6,747.003 305.6,746.803 C305.6,746.003 304.8,745.403 303.5,744.603 C302.9,744.203 302.2,743.803 301.5,743.303 C298.9,741.303 297.4,738.203 297.4,734.803 C297.4,733.803 297.6,732.903 297.8,731.903 C298.3,729.903 300,727.103 301.5,725.703 C303.2,724.203 305.2,723.003 307.6,722.403 C309.6,733.603 311.7,744.703 313.3,753.103 C313.4,753.803 313.6,754.503 313.7,755.203 C311.7,755.603 309.7,755.803 307.8,755.803 C305.4,755.803 303.1,755.503 300.8,754.903 M326.5,744.703 C325.3,747.903 322.8,751.903 317.7,754.003 C317.6,753.603 317.6,753.103 317.5,752.703 C316,743.903 314.1,733.003 312.1,721.703 L313.1,721.703 C322.8,721.703 326.7,728.903 327.6,733.503 C327.8,734.403 327.9,735.603 327.9,736.903 C327.9,739.203 327.5,742.003 326.5,744.703"/>
<path class="TimeSig" d="M365.2,960.516 L382,960.516 L382,967.816 L373.9,967.816 C373.1,967.816 372.5,968.416 372.5,969.216 L372.5,971.116 C372.5,971.916 373.1,972.416 373.9,972.416 L403.6,972.416 C404.4,972.416 405,971.916 405,971.116 L405,969.216 C405,968.416 404.4,967.816 403.6,967.816 L394.8,967.816 L394.8,960.516 L403.6,960.516 C404.4,960.516 405,959.916 405,959.116 L405,957.316 C405,956.516 404.4,955.916 403.6,955.916 L394.8,955.916 L394.8,940.216 C394.8,939.716 394.4,939.216 394,939.016 L392.9,938.416 C392.7,938.316 392.4,938.316 392.2,938.316 C391.9,938.316 391.5,938.416 391.3,938.616 L382.4,946.816 C382.2,947.016 382,947.516 382,947.816 L382,955.916 L370.7,955.916 C370.7,955.916 381.6,944.116 393.2,928.616 C394,927.516 393.6,926.516 393.4,926.316 L391.3,924.116 C391.1,923.916 390.6,923.716 390.3,923.716 L375.7,923.716 C375,923.716 374.5,924.316 374.4,924.916 C374.4,924.916 373.9,932.116 371.3,940.116 C368.7,948.116 365.9,952.916 363.3,956.516 C363.3,956.516 362.8,957.516 363.1,958.216 C363.4,958.916 364.1,960.016 364.1,960.016 C364.1,960.016 364.4,960.516 365.2,960.516"/>
<path class="TimeSig" d="M365.2,1009.12 L382,1009.12 L382,1016.42 L373.9,1016.42 C373.1,1016.42 372.5,1017.02 372.5,1017.82 L372.5,1019.72 C372.5,1020.52 373.1,1021.02 373.9,1021.02 L403.6,1021.02 C404.4,1021.02 405,1020.52 405,1019.72 L405,1017.82 C405,1017.02 404.4,1016.42 403.6,1016.42 L394.8,1016.42 L394.8,1009.12 L403.6,1009.12 C404.4,1009.12 405,1008.52 405,1007.72 L405,1005.92 C405,1005.12 404.4,1004.52 403.6,1004.52 L394.8,1004.52 L394.8,988.82 C394.8,988.32 394.4,987.82 394,987.62 L392.9,987.02 C392.7,986.92 392.4,986.92 392.2,986.92 C391.9,986.92 391.5,987.02 391.3,987.22 L382.4,995.42 C382.2,995.62 382,996.12 382,996.42 L382,1004.52 L370.7,1004.52 C370.7,1004.52 381.6,992.72 393.2,977.22 C394,976.12 393.6,975.12 393.4,974.92 L391.3,972.72 C391.1,972.52 390.6,972.32 390.3,972.32 L375.7,972.32 C375,972.32 374.5,972.92 374.4,973.52 C374.4,973.52 373.9,980.72 371.3,988.72 C368.7,996.72 365.9,1001.52 363.3,1005.12 C363.3,1005.12 362.8,1006.12 363.1,1006.82 C363.4,1007.52 364.1,1008.62 364.1,1008.62 C364.1,1008.62 364.4,1009.12 365.2,1009.12"/>
<path class="TimeSig" d="M365.2,697.999 L382,697.999 L382,705.299 L373.9,705.299 C373.1,705.299 372.5,705.899 372.5,706.699 L372.5,708.599 C372.5,709.399 373.1,709.899 373.9,709.899 L403.6,709.899 C404.4,709.899 405,709.399 405,708.599 L405,706.699 C405,705.899 404.4,705.299 403.6,705.299 L394.8,705.299 L394.8,697.999 L403.6,697.999 C404.4,697.999 405,697.399 405,696.599 L405,694.799 C405,693.999 404.4,693.399 403.6,693.399 L394.8,693.399 L394.8,677.699 C394.8,677.199 394.4,676.699 394,676.499 L392.9,675.899 C392.7,675.799 392.4,675.799 392.2,675.799 C391.9,675.799 391.5,675.899 391.3,676.099 L382.4,684.299 C382.2,684.499 382,684.999 382,685.299 L382,693.399 L370.7,693.399 C370.7,693.399 381.6,681.599 393.2,666.099 C394,664.999 393.6,663.999 393.4,663.799 L391.3,661.599 C391.1,661.399 390.6,661.199 390.3,661.199 L375.7,661.199 C375,661.199 374.5,661.799 374.4,662.399 C374.4,662.399 373.9,669.599 371.3,677.599 C368.7,685.599 365.9,690.399 363.3,693.999 C363.3,693.999 362.8,694.999 363.1,695.699 C363.4,696.399 364.1,697.499 364.1,697.499 C364.1,697.499 364.4,697.999 365.2,697.999"/>
<path class="TimeSig" d="M365.2,746.604 L382,746.604 L382,753.904 L373.9,753.904 C373.1,753.904 372.5,754.504 372.5,755.304 L372.5,757.204 C372.5,758.004 373.1,758.504 373.9,758.504 L403.6,758.504 C404.4,758.504 405,758.004 405,757.204 L405,755.304 C405,754.504 404.4,753.904 403.6,753.904 L394.8,753.904 L394.8,746.604 L403.6,746.604 C404.4,746.604 405,746.004 405,745.204 L405,743.404 C405,742.604 404.4,742.004 403.6,742.004 L394.8,742.004 L394.8,726.304 C394.8,725.804 394.4,725.304 394,725.104 L392.9,724.504 C392.7,724.404 392.4,724.404 392.2,724.404 C391.9,724.404 391.5,724.504 391.3,724.704 L382.4,732.904 C382.2,733.104 382,733.604 382,733.904 L382,742.004 L370.7,742.004 C370.7,742.004 381.6,730.204 393.2,714.704 C394,713.604 393.6,712.604 393.4,712.404 L391.3,710.204 C391.1,710.004 390.6,709.804 390.3,709.804 L375.7,709.804 C375,709.804 374.5,710.404 374.4,711.004 C374.4,711.004 373.9,718.204 371.3,726.204 C368.7,734.204 365.9,739.004 363.3,742.604 C363.3,742.604 362.8,743.604 363.1,744.304 C363.4,745.004 364.1,746.104 364.1,746.104 C364.1,746.104 364.4,746.604 365.2,746.604"/>
<path class="Page" d="M222.584,4035.04 C221.054,4036.89 216.914,4038.28 212.774,4038.37 L212.774,4040.31 L216.734,4040.31 C219.344,4040.35 219.614,4040.62 219.524,4043.14 L219.524,4061.19 C219.524,4063.48 219.524,4063.57 219.254,4063.98 C218.894,4064.43 218.039,4064.61 215.519,4064.61 L212.594,4064.61 L212.594,4066.72 L230.414,4066.72 L230.414,4064.61 L227.939,4064.61 C225.419,4064.61 224.564,4064.43 224.204,4063.98 C223.889,4063.57 223.889,4063.53 223.889,4061.19 L223.889,4042.6 C223.889,4040.08 223.979,4037.97 224.204,4035.04 L222.584,4035.04 M249.669,4035.04 L234.369,4056.33 L234.369,4058.85 L247.014,4058.85 L247.014,4061.19 C247.014,4063.48 247.014,4063.57 246.744,4063.98 C246.384,4064.47 245.529,4064.61 242.964,4064.61 L242.469,4064.61 L242.469,4066.72 L255.609,4066.72 L255.609,4064.61 L255.429,4064.61 C252.864,4064.61 252.009,4064.47 251.649,4063.98 C251.379,4063.57 251.379,4063.53 251.379,4061.19 L251.379,4058.85 L256.824,4058.85 L256.824,4056.33 L251.379,4056.33 L251.379,4044.04 C251.379,4038.42 251.379,4038.28 251.604,4035.04 L249.669,4035.04 M247.014,4056.33 L237.114,4056.33 L247.014,4042.69 L247.014,4056.33 "/>
<path class="Bracket" transform="matrix(3.62523,0,0,3.62523,214.469,1022.12)" d="M0.92002,-50 C2.69004,-51.88 6.2,-55.8 6.2,-63 C6.2,-72.1 2.25996,-81.32 2.25996,-86.97 C2.25996,-93.06 5.84004,-98.84 5.95,-99 C6.05996,-99.16 6.05,-99.39 5.94004,-99.46 C5.82998,-99.53 5.62002,-99.47 5.49004,-99.32 C5.35996,-99.17 0,-93.75 0,-85.6 C0,-76.75 3.5,-70.58 3.5,-59.07 C3.5,-56.89 2.55996,-53.36 0.1,-50.33 C-0.0799805,-50.17 -0.1,-49.89 0.0599609,-49.7 L0.0700195,-49.69 L0.1,-49.66 C2.55996,-46.63 3.5,-43.1 3.5,-40.92 C3.5,-29.4 0,-23.24 0,-14.39 C0,-6.25 5.35996,-0.8 5.49004,-0.659961 C5.62002,-0.52002 5.8,-0.42998 5.94004,-0.52002 C6.07998,-0.609961 6.07998,-0.77998 5.95,-0.97998 C5.82002,-1.17998 2.25996,-6.92002 2.25996,-13.01 C2.25996,-18.66 6.2,-27.9 6.2,-37 C6.2,-44.3 2.69004,-48.12 0.92002,-50"/>
</svg>