<?xml version="1.0" encoding="UTF-8" standalone="no"?>
<svg width="1000px" height="500px" viewBox="150 650 2700 1000" xmlns="http://www.w3.org/2000/svg" xmlns:xlink="http://www.w3.org/1999/xlink" version="1.2" baseProfile="tiny">
 xmlns="http://www.w3.org/2000/svg" xmlns:xlink="http://www.w3.org/1999/xlink" version="1.2" baseProfile="tiny">
<title>exercises_scores (17)</title>
<desc>Generated by MuseScore 3.6.0</desc>
<polyline class="StaffLines" fill="none" stroke="#000000" stroke-width="2.75" stroke-linejoin="bevel" points="247.099,645.317 2764.63,645.317"/>
<polyline class="StaffLines" fill="none" stroke="#000000" stroke-width="2.75" stroke-linejoin="bevel" points="247.099,670.319 2764.63,670.319"/>
<polyline class="StaffLines" fill="none" stroke="#000000" stroke-width="2.75" stroke-linejoin="bevel" points="247.099,695.32 2764.63,695.32"/>
<polyline class="StaffLines" fill="none" stroke="#000000" stroke-width="2.75" stroke-linejoin="bevel" points="247.099,720.322 2764.63,720.322"/>
<polyline class="StaffLines" fill="none" stroke="#000000" stroke-width="2.75" stroke-linejoin="bevel" points="247.099,745.324 2764.63,745.324"/>
<polyline class="StaffLines" fill="none" stroke="#000000" stroke-width="2.75" stroke-linejoin="bevel" points="247.099,907.834 2764.63,907.834"/>
<polyline class="StaffLines" fill="none" stroke="#000000" stroke-width="2.75" stroke-linejoin="bevel" points="247.099,932.835 2764.63,932.835"/>
<polyline class="StaffLines" fill="none" stroke="#000000" stroke-width="2.75" stroke-linejoin="bevel" points="247.099,957.837 2764.63,957.837"/>
<polyline class="StaffLines" fill="none" stroke="#000000" stroke-width="2.75" stroke-linejoin="bevel" points="247.099,982.839 2764.63,982.839"/>
<polyline class="StaffLines" fill="none" stroke="#000000" stroke-width="2.75" stroke-linejoin="bevel" points="247.099,1007.84 2764.63,1007.84"/>
<polyline class="StaffLines" fill="none" stroke="#000000" stroke-width="2.75" stroke-linejoin="bevel" points="247.099,1257.86 2764.63,1257.86"/>
<polyline class="StaffLines" fill="none" stroke="#000000" stroke-width="2.75" stroke-linejoin="bevel" points="247.099,1282.86 2764.63,1282.86"/>
<polyline class="StaffLines" fill="none" stroke="#000000" stroke-width="2.75" stroke-linejoin="bevel" points="247.099,1307.86 2764.63,1307.86"/>
<polyline class="StaffLines" fill="none" stroke="#000000" stroke-width="2.75" stroke-linejoin="bevel" points="247.099,1332.86 2764.63,1332.86"/>
<polyline class="StaffLines" fill="none" stroke="#000000" stroke-width="2.75" stroke-linejoin="bevel" points="247.099,1357.86 2764.63,1357.86"/>
<polyline class="StaffLines" fill="none" stroke="#000000" stroke-width="2.75" stroke-linejoin="bevel" points="247.099,1520.37 2764.63,1520.37"/>
<polyline class="StaffLines" fill="none" stroke="#000000" stroke-width="2.75" stroke-linejoin="bevel" points="247.099,1545.37 2764.63,1545.37"/>
<polyline class="StaffLines" fill="none" stroke="#000000" stroke-width="2.75" stroke-linejoin="bevel" points="247.099,1570.38 2764.63,1570.38"/>
<polyline class="StaffLines" fill="none" stroke="#000000" stroke-width="2.75" stroke-linejoin="bevel" points="247.099,1595.38 2764.63,1595.38"/>
<polyline class="StaffLines" fill="none" stroke="#000000" stroke-width="2.75" stroke-linejoin="bevel" points="247.099,1620.38 2764.63,1620.38"/>
<path class="Text" d="M242.312,213.137 L240.092,213.137 L237.692,216.737 C234.812,214.037 231.032,212.597 226.772,212.597 C218.852,212.597 213.632,217.577 213.632,225.137 C213.632,231.677 216.872,234.917 225.692,237.197 L231.392,238.637 C235.832,239.777 236.252,239.897 237.512,240.857 C239.312,242.237 240.272,244.217 240.272,246.557 C240.272,248.957 239.372,250.937 237.572,252.617 C235.592,254.297 233.612,254.957 230.312,254.957 C225.872,254.957 222.692,253.577 219.872,250.457 C217.352,247.697 216.092,244.817 215.192,240.197 L212.612,240.197 L212.852,257.297 L215.192,257.297 L217.892,253.217 C221.912,256.517 225.212,257.717 230.492,257.717 C239.312,257.717 244.952,252.557 244.952,244.517 C244.952,240.737 243.752,237.617 241.352,235.337 C239.732,233.777 237.392,232.757 232.592,231.557 L226.172,229.937 C220.832,228.557 218.312,226.217 218.312,222.557 C218.312,218.357 221.732,215.477 226.832,215.477 C231.032,215.477 234.452,217.277 236.852,220.697 C238.592,223.157 239.732,225.677 240.452,228.737 L243.032,228.737 L242.312,213.137 M271.162,247.997 C269.242,252.317 267.202,254.057 264.082,254.057 C259.282,254.057 256.282,249.677 256.282,242.657 C256.282,235.337 259.222,230.537 263.662,230.537 C265.462,230.537 267.022,231.377 267.022,232.337 C267.022,232.517 266.962,232.697 266.662,233.057 C265.702,234.197 265.462,234.797 265.462,235.817 C265.462,237.797 266.962,239.177 269.062,239.177 C271.222,239.177 272.722,237.497 272.722,235.097 C272.722,231.017 268.702,227.957 263.362,227.957 C255.562,227.957 249.982,234.317 249.982,243.317 C249.982,251.837 255.082,257.717 262.522,257.717 C267.862,257.717 270.922,255.257 273.502,248.897 L271.162,247.997 M301.75,237.497 C301.75,233.717 301.09,231.797 299.35,230.357 C297.37,228.737 294.43,227.957 290.59,227.957 C283.81,227.957 278.89,231.137 278.89,235.517 C278.89,237.737 280.27,239.177 282.37,239.177 C284.29,239.177 285.61,237.917 285.61,236.117 C285.61,235.337 285.31,234.497 284.71,233.657 C284.35,233.237 284.29,233.117 284.29,232.817 C284.29,231.617 286.69,230.537 289.57,230.537 C291.49,230.537 293.59,231.137 294.55,232.037 C295.69,232.997 296.11,234.437 296.11,237.137 L296.11,239.477 C289.87,240.557 287.89,241.037 284.95,242.177 C279.73,244.097 277.27,246.857 277.27,250.697 C277.27,255.017 280.63,257.717 285.97,257.717 C290.11,257.717 293.83,256.037 296.41,252.977 C297.37,256.037 298.87,257.237 301.69,257.237 C304.39,257.237 307.21,255.497 307.21,253.757 C307.21,253.337 306.97,253.037 306.61,253.037 C306.37,253.037 306.13,253.097 305.71,253.277 C304.87,253.637 304.51,253.697 304.03,253.697 C302.35,253.697 301.75,252.617 301.75,249.557 L301.75,237.497 M296.11,244.817 C296.11,248.417 295.93,249.257 294.91,250.817 C293.41,253.037 290.71,254.537 288.07,254.537 C285.31,254.537 283.33,252.557 283.33,249.857 C283.33,247.337 284.59,245.537 287.23,244.277 C289.09,243.437 291.43,242.837 296.11,242.057 L296.11,244.817 M320.229,212.597 L309.129,213.257 L309.129,215.837 L312.069,215.837 C314.289,215.897 314.589,216.257 314.589,218.837 L314.589,249.437 L314.589,252.257 C314.529,253.157 314.469,253.517 314.229,253.817 C313.809,254.357 312.669,254.597 310.089,254.657 L309.669,254.657 L309.669,256.817 L325.209,256.817 L325.209,254.657 L324.789,254.657 C320.769,254.537 320.229,254.237 320.229,252.077 L320.229,249.437 L320.229,212.597 M354.78,243.317 C354.84,234.317 349.74,227.957 342.42,227.957 C334.74,227.957 328.98,234.617 328.98,243.617 C328.98,252.077 334.44,257.717 342.54,257.717 C348.3,257.717 352.32,254.897 354.78,249.197 L352.68,248.057 C350.22,252.677 347.7,254.477 343.68,254.477 C340.62,254.477 338.4,253.217 336.84,250.517 C335.76,248.717 335.28,246.617 335.34,243.317 L354.78,243.317 M335.4,240.737 C335.4,238.877 335.64,237.557 336.24,235.877 C337.5,232.277 339.42,230.537 342.36,230.537 C345.96,230.537 348.36,233.717 348.36,238.577 C348.36,240.257 347.82,240.737 345.9,240.737 L335.4,240.737 M366.601,250.157 C364.501,250.157 362.821,251.837 362.821,253.877 C362.821,255.977 364.501,257.657 366.541,257.657 C368.641,257.657 370.321,255.977 370.321,253.877 C370.321,251.837 368.641,250.157 366.601,250.157 M366.601,228.437 C364.501,228.437 362.821,230.117 362.821,232.217 C362.821,234.257 364.501,235.937 366.541,235.937 C368.641,235.937 370.321,234.257 370.321,232.157 C370.321,230.117 368.641,228.437 366.601,228.437 M428.805,213.497 L392.745,213.497 L392.745,216.317 L393.825,216.317 C397.245,216.377 398.385,216.557 398.865,217.157 C399.225,217.697 399.225,217.817 399.225,220.877 L399.225,249.437 C399.225,252.497 399.225,252.617 398.865,253.157 C398.385,253.757 397.245,253.997 393.825,253.997 L392.745,253.997 L392.745,256.817 L429.585,256.817 L430.785,240.797 L428.145,240.797 C425.865,251.477 423.405,253.757 414.225,253.997 L410.265,253.997 C406.665,253.877 405.765,253.277 405.945,251.117 L405.945,235.817 L407.145,235.817 C413.325,235.577 415.545,237.797 415.785,244.457 L418.605,244.457 L418.605,224.777 L415.785,224.777 C415.425,230.657 413.085,232.997 407.385,232.997 L405.945,232.997 L405.945,219.317 C405.885,216.797 406.485,216.377 409.725,216.317 L412.845,216.317 C422.685,216.257 425.145,218.417 427.065,228.797 L429.645,228.797 L428.805,213.497 M463.049,228.857 L452.369,229.517 L452.369,232.097 L454.829,232.097 C457.109,232.157 457.409,232.517 457.409,235.097 L457.409,249.437 L457.409,251.777 L457.409,252.257 C457.349,253.157 457.289,253.517 457.049,253.817 C456.629,254.357 455.489,254.597 452.909,254.657 L452.669,254.657 L452.669,256.817 L467.789,256.817 L467.789,254.657 L467.549,254.657 C463.589,254.537 463.049,254.237 463.049,252.017 L463.049,249.437 L463.049,240.917 C463.049,235.577 465.989,231.617 469.889,231.617 C473.309,231.617 475.049,234.077 475.049,238.937 L475.049,249.437 L475.049,252.317 C474.989,253.097 474.929,253.517 474.629,253.817 C474.269,254.357 473.069,254.597 470.489,254.657 L470.249,254.657 L470.249,256.817 L485.429,256.817 L485.429,254.657 L485.189,254.657 C481.229,254.537 480.689,254.237 480.689,252.077 L480.689,249.437 L480.689,241.457 C480.689,235.457 483.389,231.617 487.589,231.617 C491.009,231.617 492.689,234.197 492.689,239.597 L492.689,249.437 L492.689,252.257 C492.629,253.097 492.569,253.517 492.269,253.817 C491.909,254.357 490.709,254.597 488.129,254.657 L487.889,254.657 L487.889,256.817 L503.069,256.817 L503.069,254.657 L502.829,254.657 C498.869,254.537 498.329,254.237 498.329,252.017 L498.329,249.437 L498.329,238.397 C498.329,234.677 497.969,233.417 496.409,231.377 C494.669,229.157 492.209,227.957 489.329,227.957 C485.429,227.957 482.549,229.817 479.969,233.957 C478.949,230.357 475.709,227.957 471.689,227.957 C468.029,227.957 465.389,229.697 463.049,233.477 L463.049,228.857 M516.677,228.857 L505.397,229.517 L505.397,232.097 L508.457,232.097 C510.737,232.157 511.037,232.517 511.037,235.097 L511.037,249.437 L511.037,252.257 C510.977,253.157 510.917,253.517 510.677,253.817 C510.257,254.357 509.117,254.597 506.537,254.657 L506.117,254.657 L506.117,256.817 L521.657,256.817 L521.657,254.657 L521.237,254.657 C517.217,254.537 516.677,254.237 516.677,252.077 L516.677,249.437 L516.677,228.857 M513.857,213.917 C511.937,213.917 510.377,215.477 510.377,217.397 C510.377,219.317 511.937,220.877 513.797,220.877 C515.777,220.877 517.337,219.317 517.337,217.397 C517.337,215.477 515.777,213.917 513.857,213.917 M535.208,228.857 L524.828,229.517 L524.828,232.097 L526.988,232.097 C529.268,232.157 529.568,232.517 529.568,235.097 L529.568,249.437 L529.568,250.877 L529.568,252.257 C529.508,253.157 529.448,253.517 529.208,253.817 C528.788,254.357 527.648,254.597 525.068,254.657 L524.828,254.657 L524.828,256.817 L540.008,256.817 L540.008,254.657 L539.768,254.657 C535.748,254.537 535.208,254.237 535.208,252.077 L535.208,249.437 L535.208,243.197 C535.208,240.257 535.628,237.557 536.288,236.177 C537.548,233.477 540.248,231.617 542.828,231.617 C544.388,231.617 546.188,232.457 547.088,233.717 C547.988,235.037 548.408,236.837 548.408,239.717 L548.408,249.437 L548.408,252.257 C548.348,253.157 548.288,253.517 548.048,253.817 C547.628,254.357 546.428,254.597 543.848,254.657 L543.608,254.657 L543.608,256.817 L558.788,256.817 L558.788,254.657 L558.548,254.657 C554.588,254.537 554.048,254.237 554.048,252.077 L554.048,249.437 L554.048,240.017 C554.048,235.697 553.868,234.617 552.788,232.577 C551.288,229.697 548.288,227.957 544.688,227.957 C540.788,227.957 537.848,229.757 535.208,233.717 L535.208,228.857 M574.984,227.957 C567.604,227.957 561.904,234.497 561.904,242.897 C561.904,251.117 567.664,257.717 574.864,257.717 C582.064,257.717 587.824,251.117 587.824,242.837 C587.824,234.617 582.064,227.957 574.984,227.957 M574.984,230.537 C579.184,230.537 581.524,234.917 581.524,242.837 C581.524,250.817 579.184,255.137 574.864,255.137 C570.544,255.137 568.204,250.817 568.204,242.897 C568.204,234.737 570.484,230.537 574.984,230.537 M601.744,228.857 L591.124,229.517 L591.124,232.097 L593.584,232.097 C595.864,232.157 596.164,232.517 596.164,235.097 L596.164,249.437 L596.164,252.257 C596.104,253.157 596.044,253.517 595.804,253.817 C595.384,254.357 594.184,254.597 591.604,254.657 L591.364,254.657 L591.364,256.817 L607.384,256.817 L607.384,254.657 L606.304,254.657 C602.284,254.537 601.744,254.237 601.744,252.077 L601.744,249.437 L601.744,248.837 C601.804,238.757 605.404,231.077 610.084,230.837 C609.244,231.797 609.004,232.397 609.004,233.537 C609.004,235.457 610.384,236.837 612.304,236.837 C614.524,236.837 615.964,235.217 615.964,232.817 C615.964,229.877 613.924,227.957 610.744,227.957 C606.964,227.957 603.724,230.957 601.744,236.297 L601.744,228.857 "/>
<polyline class="BarLine" fill="none" stroke="#000000" stroke-width="4.50" stroke-linejoin="bevel" points="249.349,906.459 249.349,1009.22"/>
<polyline class="BarLine" fill="none" stroke="#000000" stroke-width="4.50" stroke-linejoin="bevel" points="999.018,906.459 999.018,1009.22"/>
<polyline class="BarLine" fill="none" stroke="#000000" stroke-width="4.50" stroke-linejoin="bevel" points="1580.89,906.459 1580.89,1009.22"/>
<polyline class="BarLine" fill="none" stroke="#000000" stroke-width="4.50" stroke-linejoin="bevel" points="2225.75,906.459 2225.75,1009.22"/>
<polyline class="BarLine" fill="none" stroke="#000000" stroke-width="4.50" stroke-linejoin="bevel" points="2762.38,906.459 2762.38,1009.22"/>
<polyline class="BarLine" fill="none" stroke="#000000" stroke-width="4.50" stroke-linejoin="bevel" points="249.349,1519 249.349,1621.75"/>
<polyline class="BarLine" fill="none" stroke="#000000" stroke-width="4.50" stroke-linejoin="bevel" points="1038.05,1519 1038.05,1621.75"/>
<polyline class="BarLine" fill="none" stroke="#000000" stroke-width="4.50" stroke-linejoin="bevel" points="1591.59,1519 1591.59,1621.75"/>
<polyline class="BarLine" fill="none" stroke="#000000" stroke-width="4.50" stroke-linejoin="bevel" points="2242.04,1519 2242.04,1621.75"/>
<polyline class="BarLine" fill="none" stroke="#000000" stroke-width="4.50" stroke-linejoin="bevel" points="2734.88,1519 2734.88,1621.75"/>
<polyline class="BarLine" fill="none" stroke="#000000" stroke-width="13.75" stroke-linejoin="bevel" points="2757.76,1519 2757.76,1621.75"/>
<polyline class="BarLine" fill="none" stroke="#000000" stroke-width="4.50" stroke-linejoin="bevel" points="249.349,643.942 249.349,907.834"/>
<polyline class="BarLine" fill="none" stroke="#000000" stroke-width="4.50" stroke-linejoin="bevel" points="999.018,643.942 999.018,907.834"/>
<polyline class="BarLine" fill="none" stroke="#000000" stroke-width="4.50" stroke-linejoin="bevel" points="1580.89,643.942 1580.89,907.834"/>
<polyline class="BarLine" fill="none" stroke="#000000" stroke-width="4.50" stroke-linejoin="bevel" points="2225.75,643.942 2225.75,907.834"/>
<polyline class="BarLine" fill="none" stroke="#000000" stroke-width="4.50" stroke-linejoin="bevel" points="2762.38,643.942 2762.38,907.834"/>
<polyline class="BarLine" fill="none" stroke="#000000" stroke-width="4.50" stroke-linejoin="bevel" points="249.349,1256.48 249.349,1520.37"/>
<polyline class="BarLine" fill="none" stroke="#000000" stroke-width="4.50" stroke-linejoin="bevel" points="1038.05,1256.48 1038.05,1520.37"/>
<polyline class="BarLine" fill="none" stroke="#000000" stroke-width="4.50" stroke-linejoin="bevel" points="1591.59,1256.48 1591.59,1520.37"/>
<polyline class="BarLine" fill="none" stroke="#000000" stroke-width="4.50" stroke-linejoin="bevel" points="2242.04,1256.48 2242.04,1520.37"/>
<polyline class="BarLine" fill="none" stroke="#000000" stroke-width="4.50" stroke-linejoin="bevel" points="2734.88,1256.48 2734.88,1520.37"/>
<polyline class="BarLine" fill="none" stroke="#000000" stroke-width="13.75" stroke-linejoin="bevel" points="2757.76,1256.48 2757.76,1520.37"/>
<polyline class="LedgerLine" fill="none" stroke="#000000" stroke-width="4.00" stroke-linejoin="bevel" points="1161.24,882.832 1211.23,882.832"/>
<polyline class="LedgerLine" fill="none" stroke="#000000" stroke-width="4.00" stroke-linejoin="bevel" points="1297.45,882.832 1347.45,882.832"/>
<polyline class="LedgerLine" fill="none" stroke="#000000" stroke-width="4.00" stroke-linejoin="bevel" points="1433.67,882.832 1483.67,882.832"/>
<polyline class="LedgerLine" fill="none" stroke="#000000" stroke-width="4.00" stroke-linejoin="bevel" points="1433.67,857.831 1483.67,857.831"/>
<polyline class="LedgerLine" fill="none" stroke="#000000" stroke-width="4.00" stroke-linejoin="bevel" points="1704,1495.37 1753.99,1495.37"/>
<polyline class="LedgerLine" fill="none" stroke="#000000" stroke-width="4.00" stroke-linejoin="bevel" points="1952.82,620.316 2002.82,620.316"/>
<polyline class="LedgerLine" fill="none" stroke="#000000" stroke-width="4.00" stroke-linejoin="bevel" points="2083.79,620.316 2133.78,620.316"/>
<polyline class="LedgerLine" fill="none" stroke="#000000" stroke-width="4.00" stroke-linejoin="bevel" points="2260.51,620.316 2310.5,620.316"/>
<polyline class="LedgerLine" fill="none" stroke="#000000" stroke-width="4.00" stroke-linejoin="bevel" points="2260.51,595.314 2310.5,595.314"/>
<polyline class="LedgerLine" fill="none" stroke="#000000" stroke-width="4.00" stroke-linejoin="bevel" points="2396.86,620.316 2446.86,620.316"/>
<polyline class="LedgerLine" fill="none" stroke="#000000" stroke-width="4.00" stroke-linejoin="bevel" points="2396.86,595.314 2446.86,595.314"/>
<polyline class="LedgerLine" fill="none" stroke="#000000" stroke-width="4.00" stroke-linejoin="bevel" points="2533.21,620.316 2583.21,620.316"/>
<polyline class="LedgerLine" fill="none" stroke="#000000" stroke-width="4.00" stroke-linejoin="bevel" points="2533.21,595.314 2583.21,595.314"/>
<polyline class="LedgerLine" fill="none" stroke="#000000" stroke-width="4.00" stroke-linejoin="bevel" points="2533.21,570.313 2583.21,570.313"/>
<polyline class="LedgerLine" fill="none" stroke="#000000" stroke-width="4.00" stroke-linejoin="bevel" points="447.502,1232.85 497.497,1232.85"/>
<polyline class="LedgerLine" fill="none" stroke="#000000" stroke-width="4.00" stroke-linejoin="bevel" points="447.502,1207.85 497.497,1207.85"/>
<polyline class="LedgerLine" fill="none" stroke="#000000" stroke-width="4.00" stroke-linejoin="bevel" points="592.388,1232.85 642.384,1232.85"/>
<polyline class="LedgerLine" fill="none" stroke="#000000" stroke-width="4.00" stroke-linejoin="bevel" points="592.388,1207.85 642.384,1207.85"/>
<polyline class="LedgerLine" fill="none" stroke="#000000" stroke-width="4.00" stroke-linejoin="bevel" points="737.275,1232.85 787.27,1232.85"/>
<polyline class="LedgerLine" fill="none" stroke="#000000" stroke-width="4.00" stroke-linejoin="bevel" points="882.161,1232.85 932.157,1232.85"/>
<polyline class="Stem" fill="none" stroke="#000000" stroke-width="2.75" stroke-linejoin="bevel" points="505.779,948.856 505.779,1026.59"/>
<polyline class="Stem" fill="none" stroke="#000000" stroke-width="2.75" stroke-linejoin="bevel" points="628.87,936.356 628.87,1017.22"/>
<polyline class="Stem" fill="none" stroke="#000000" stroke-width="2.75" stroke-linejoin="bevel" points="751.961,923.855 751.961,1007.84"/>
<polyline class="Stem" fill="none" stroke="#000000" stroke-width="2.75" stroke-linejoin="bevel" points="875.052,911.354 875.052,995.339"/>
<polyline class="Stem" fill="none" stroke="#000000" stroke-width="2.75" stroke-linejoin="bevel" points="1035.15,898.853 1035.15,982.839"/>
<polyline class="Stem" fill="none" stroke="#000000" stroke-width="2.75" stroke-linejoin="bevel" points="1171.36,886.352 1171.36,970.338"/>
<polyline class="Stem" fill="none" stroke="#000000" stroke-width="2.75" stroke-linejoin="bevel" points="1307.58,873.852 1307.58,957.837"/>
<polyline class="Stem" fill="none" stroke="#000000" stroke-width="2.75" stroke-linejoin="bevel" points="1443.8,861.351 1443.8,957.837"/>
<polyline class="Stem" fill="none" stroke="#000000" stroke-width="2.75" stroke-linejoin="bevel" points="1730.76,991.979 1730.76,907.834"/>
<polyline class="Stem" fill="none" stroke="#000000" stroke-width="2.75" stroke-linejoin="bevel" points="1861.72,979.478 1861.72,898.458"/>
<polyline class="Stem" fill="none" stroke="#000000" stroke-width="2.75" stroke-linejoin="bevel" points="1992.69,966.978 1992.69,889.083"/>
<polyline class="Stem" fill="none" stroke="#000000" stroke-width="2.75" stroke-linejoin="bevel" points="2093.91,961.357 2093.91,1035.97"/>
<polyline class="Stem" fill="none" stroke="#000000" stroke-width="2.75" stroke-linejoin="bevel" points="2270.63,948.856 2270.63,1026.59"/>
<polyline class="Stem" fill="none" stroke="#000000" stroke-width="2.75" stroke-linejoin="bevel" points="2406.99,936.356 2406.99,1017.22"/>
<polyline class="Stem" fill="none" stroke="#000000" stroke-width="2.75" stroke-linejoin="bevel" points="2543.34,923.775 2543.34,1007.84"/>
<polyline class="Stem" fill="none" stroke="#000000" stroke-width="2.75" stroke-linejoin="bevel" points="457.627,1548.89 457.627,1629.75"/>
<polyline class="Stem" fill="none" stroke="#000000" stroke-width="2.75" stroke-linejoin="bevel" points="602.514,1561.39 602.514,1639.13"/>
<polyline class="Stem" fill="none" stroke="#000000" stroke-width="2.75" stroke-linejoin="bevel" points="747.4,1573.9 747.4,1648.51"/>
<polyline class="Stem" fill="none" stroke="#000000" stroke-width="2.75" stroke-linejoin="bevel" points="922.031,1579.52 922.031,1501.62"/>
<polyline class="Stem" fill="none" stroke="#000000" stroke-width="2.75" stroke-linejoin="bevel" points="1103.92,1592.02 1103.92,1511"/>
<polyline class="Stem" fill="none" stroke="#000000" stroke-width="2.75" stroke-linejoin="bevel" points="1233.06,1604.52 1233.06,1520.37"/>
<polyline class="Stem" fill="none" stroke="#000000" stroke-width="2.75" stroke-linejoin="bevel" points="1362.19,1617.02 1362.19,1532.87"/>
<polyline class="Stem" fill="none" stroke="#000000" stroke-width="2.75" stroke-linejoin="bevel" points="1491.33,1629.52 1491.33,1545.37"/>
<polyline class="Stem" fill="none" stroke="#000000" stroke-width="2.75" stroke-linejoin="bevel" points="1714.12,1498.89 1714.12,1582.88"/>
<polyline class="Stem" fill="none" stroke="#000000" stroke-width="2.75" stroke-linejoin="bevel" points="1845.88,1511.39 1845.88,1595.38"/>
<polyline class="Stem" fill="none" stroke="#000000" stroke-width="2.75" stroke-linejoin="bevel" points="1977.65,1523.89 1977.65,1607.88"/>
<polyline class="Stem" fill="none" stroke="#000000" stroke-width="2.75" stroke-linejoin="bevel" points="2109.41,1536.39 2109.41,1620.38"/>
<polyline class="Stem" fill="none" stroke="#000000" stroke-width="2.75" stroke-linejoin="bevel" points="2278.17,1548.89 2278.17,1629.75"/>
<polyline class="Stem" fill="none" stroke="#000000" stroke-width="2.75" stroke-linejoin="bevel" points="2432.64,1561.31 2432.64,1639.13"/>
<polyline class="Stem" fill="none" stroke="#000000" stroke-width="2.75" stroke-linejoin="bevel" points="535.523,741.963 535.523,657.818"/>
<polyline class="Stem" fill="none" stroke="#000000" stroke-width="2.75" stroke-linejoin="bevel" points="658.614,729.463 658.614,645.317"/>
<polyline class="Stem" fill="none" stroke="#000000" stroke-width="2.75" stroke-linejoin="bevel" points="781.705,716.962 781.705,635.942"/>
<polyline class="Stem" fill="none" stroke="#000000" stroke-width="2.75" stroke-linejoin="bevel" points="904.796,704.461 904.796,626.566"/>
<polyline class="Stem" fill="none" stroke="#000000" stroke-width="2.75" stroke-linejoin="bevel" points="1035.15,698.841 1035.15,773.45"/>
<polyline class="Stem" fill="none" stroke="#000000" stroke-width="2.75" stroke-linejoin="bevel" points="1171.36,686.34 1171.36,764.075"/>
<polyline class="Stem" fill="none" stroke="#000000" stroke-width="2.75" stroke-linejoin="bevel" points="1307.58,673.839 1307.58,754.699"/>
<polyline class="Stem" fill="none" stroke="#000000" stroke-width="2.75" stroke-linejoin="bevel" points="1443.8,661.338 1443.8,745.324"/>
<polyline class="Stem" fill="none" stroke="#000000" stroke-width="2.75" stroke-linejoin="bevel" points="1701.01,648.837 1701.01,732.823"/>
<polyline class="Stem" fill="none" stroke="#000000" stroke-width="2.75" stroke-linejoin="bevel" points="1831.98,636.337 1831.98,720.322"/>
<polyline class="Stem" fill="none" stroke="#000000" stroke-width="2.75" stroke-linejoin="bevel" points="1962.95,623.836 1962.95,707.821"/>
<polyline class="Stem" fill="none" stroke="#000000" stroke-width="2.75" stroke-linejoin="bevel" points="2093.91,611.335 2093.91,695.32"/>
<polyline class="Stem" fill="none" stroke="#000000" stroke-width="2.75" stroke-linejoin="bevel" points="2270.63,598.834 2270.63,695.32"/>
<polyline class="Stem" fill="none" stroke="#000000" stroke-width="2.75" stroke-linejoin="bevel" points="2406.99,586.334 2406.99,695.32"/>
<polyline class="Stem" fill="none" stroke="#000000" stroke-width="2.75" stroke-linejoin="bevel" points="2543.34,573.753 2543.34,695.32"/>
<polyline class="Stem" fill="none" stroke="#000000" stroke-width="2.75" stroke-linejoin="bevel" points="457.627,1198.87 457.627,1307.86"/>
<polyline class="Stem" fill="none" stroke="#000000" stroke-width="2.75" stroke-linejoin="bevel" points="602.514,1211.37 602.514,1307.86"/>
<polyline class="Stem" fill="none" stroke="#000000" stroke-width="2.75" stroke-linejoin="bevel" points="747.4,1223.87 747.4,1307.86"/>
<polyline class="Stem" fill="none" stroke="#000000" stroke-width="2.75" stroke-linejoin="bevel" points="892.287,1236.37 892.287,1320.36"/>
<polyline class="Stem" fill="none" stroke="#000000" stroke-width="2.75" stroke-linejoin="bevel" points="1074.18,1248.88 1074.18,1332.86"/>
<polyline class="Stem" fill="none" stroke="#000000" stroke-width="2.75" stroke-linejoin="bevel" points="1203.31,1261.38 1203.31,1345.36"/>
<polyline class="Stem" fill="none" stroke="#000000" stroke-width="2.75" stroke-linejoin="bevel" points="1332.45,1273.88 1332.45,1357.86"/>
<polyline class="Stem" fill="none" stroke="#000000" stroke-width="2.75" stroke-linejoin="bevel" points="1461.58,1286.38 1461.58,1367.24"/>
<polyline class="Stem" fill="none" stroke="#000000" stroke-width="2.75" stroke-linejoin="bevel" points="1714.12,1298.88 1714.12,1376.61"/>
<polyline class="Stem" fill="none" stroke="#000000" stroke-width="2.75" stroke-linejoin="bevel" points="1845.88,1311.38 1845.88,1385.99"/>
<polyline class="Stem" fill="none" stroke="#000000" stroke-width="2.75" stroke-linejoin="bevel" points="2007.39,1317 2007.39,1239.1"/>
<polyline class="Stem" fill="none" stroke="#000000" stroke-width="2.75" stroke-linejoin="bevel" points="2139.15,1329.5 2139.15,1248.48"/>
<polyline class="Stem" fill="none" stroke="#000000" stroke-width="2.75" stroke-linejoin="bevel" points="2307.91,1342 2307.91,1257.86"/>
<polyline class="Stem" fill="none" stroke="#000000" stroke-width="2.75" stroke-linejoin="bevel" points="2462.38,1354.42 2462.38,1270.36"/>
<path class="Note" d="M535.904,937.136 C534.404,934.436 531.504,932.736 527.604,932.336 C527.004,932.236 526.504,932.236 525.904,932.236 C522.404,932.236 518.604,933.236 515.104,935.136 C508.504,938.736 504.404,944.636 504.404,949.736 C504.404,951.136 504.604,952.436 505.304,953.636 C506.804,956.336 509.804,958.036 513.704,958.436 C514.304,958.536 514.804,958.536 515.404,958.536 C518.904,958.536 522.604,957.536 526.104,955.636 C532.704,952.036 536.904,946.236 536.904,941.136 C536.904,939.736 536.604,938.336 535.904,937.136"/>
<path class="Note" d="M658.995,924.635 C657.495,921.935 654.595,920.235 650.695,919.835 C650.095,919.735 649.595,919.735 648.995,919.735 C645.495,919.735 641.695,920.735 638.195,922.635 C631.595,926.235 627.495,932.135 627.495,937.235 C627.495,938.635 627.695,939.935 628.395,941.135 C629.895,943.835 632.895,945.535 636.795,945.935 C637.395,946.035 637.895,946.035 638.495,946.035 C641.995,946.035 645.695,945.035 649.195,943.135 C655.795,939.535 659.995,933.735 659.995,928.635 C659.995,927.235 659.695,925.835 658.995,924.635"/>
<path class="Note" d="M782.086,912.135 C780.586,909.435 777.686,907.735 773.786,907.335 C773.186,907.235 772.686,907.235 772.086,907.235 C768.586,907.235 764.786,908.235 761.286,910.135 C754.686,913.735 750.586,919.635 750.586,924.735 C750.586,926.135 750.786,927.435 751.486,928.635 C752.986,931.335 755.986,933.035 759.886,933.435 C760.486,933.535 760.986,933.535 761.586,933.535 C765.086,933.535 768.786,932.535 772.286,930.635 C778.886,927.035 783.086,921.235 783.086,916.135 C783.086,914.735 782.786,913.335 782.086,912.135"/>
<path class="Note" d="M905.177,899.634 C903.677,896.934 900.777,895.234 896.877,894.834 C896.277,894.734 895.777,894.734 895.177,894.734 C891.677,894.734 887.877,895.734 884.377,897.634 C877.777,901.234 873.677,907.134 873.677,912.234 C873.677,913.634 873.877,914.934 874.577,916.134 C876.077,918.834 879.077,920.534 882.977,920.934 C883.577,921.034 884.077,921.034 884.677,921.034 C888.177,921.034 891.877,920.034 895.377,918.134 C901.977,914.534 906.177,908.734 906.177,903.634 C906.177,902.234 905.877,900.834 905.177,899.634"/>
<path class="Note" d="M1065.27,887.133 C1063.77,884.433 1060.87,882.733 1056.97,882.333 C1056.37,882.233 1055.87,882.233 1055.27,882.233 C1051.77,882.233 1047.97,883.233 1044.47,885.133 C1037.87,888.733 1033.77,894.633 1033.77,899.733 C1033.77,901.133 1033.97,902.433 1034.67,903.633 C1036.17,906.333 1039.17,908.033 1043.07,908.433 C1043.67,908.533 1044.17,908.533 1044.77,908.533 C1048.27,908.533 1051.97,907.533 1055.47,905.633 C1062.07,902.033 1066.27,896.233 1066.27,891.133 C1066.27,889.733 1065.97,888.333 1065.27,887.133"/>
<path class="Note" d="M1201.49,874.632 C1199.99,871.932 1197.09,870.232 1193.19,869.832 C1192.59,869.732 1192.09,869.732 1191.49,869.732 C1187.99,869.732 1184.19,870.732 1180.69,872.632 C1174.09,876.232 1169.99,882.132 1169.99,887.232 C1169.99,888.632 1170.19,889.932 1170.89,891.132 C1172.39,893.832 1175.39,895.532 1179.29,895.932 C1179.89,896.032 1180.39,896.032 1180.99,896.032 C1184.49,896.032 1188.19,895.032 1191.69,893.132 C1198.29,889.532 1202.49,883.732 1202.49,878.632 C1202.49,877.232 1202.19,875.832 1201.49,874.632"/>
<path class="Note" d="M1337.7,862.131 C1336.2,859.431 1333.3,857.731 1329.4,857.331 C1328.8,857.231 1328.3,857.231 1327.7,857.231 C1324.2,857.231 1320.4,858.231 1316.9,860.131 C1310.3,863.731 1306.2,869.631 1306.2,874.731 C1306.2,876.131 1306.4,877.431 1307.1,878.631 C1308.6,881.331 1311.6,883.031 1315.5,883.431 C1316.1,883.531 1316.6,883.531 1317.2,883.531 C1320.7,883.531 1324.4,882.531 1327.9,880.631 C1334.5,877.031 1338.7,871.231 1338.7,866.131 C1338.7,864.731 1338.4,863.331 1337.7,862.131"/>
<path class="Note" d="M1473.92,849.631 C1472.42,846.931 1469.52,845.231 1465.62,844.831 C1465.02,844.731 1464.52,844.731 1463.92,844.731 C1460.42,844.731 1456.62,845.731 1453.12,847.631 C1446.52,851.231 1442.42,857.131 1442.42,862.231 C1442.42,863.631 1442.62,864.931 1443.32,866.131 C1444.82,868.831 1447.82,870.531 1451.72,870.931 C1452.32,871.031 1452.82,871.031 1453.42,871.031 C1456.92,871.031 1460.62,870.031 1464.12,868.131 C1470.72,864.531 1474.92,858.731 1474.92,853.631 C1474.92,852.231 1474.62,850.831 1473.92,849.631"/>
<path class="Note" d="M1731.14,987.139 C1729.64,984.439 1726.74,982.739 1722.84,982.339 C1722.24,982.239 1721.74,982.239 1721.14,982.239 C1717.64,982.239 1713.84,983.239 1710.34,985.139 C1703.74,988.739 1699.64,994.639 1699.64,999.739 C1699.64,1001.14 1699.84,1002.44 1700.54,1003.64 C1702.04,1006.34 1705.04,1008.04 1708.94,1008.44 C1709.54,1008.54 1710.04,1008.54 1710.64,1008.54 C1714.14,1008.54 1717.84,1007.54 1721.34,1005.64 C1727.94,1002.04 1732.14,996.239 1732.14,991.139 C1732.14,989.739 1731.84,988.339 1731.14,987.139"/>
<path class="Note" d="M1862.1,974.639 C1860.6,971.939 1857.7,970.239 1853.8,969.839 C1853.2,969.739 1852.7,969.739 1852.1,969.739 C1848.6,969.739 1844.8,970.739 1841.3,972.639 C1834.7,976.239 1830.6,982.139 1830.6,987.239 C1830.6,988.639 1830.8,989.939 1831.5,991.139 C1833,993.839 1836,995.539 1839.9,995.939 C1840.5,996.039 1841,996.039 1841.6,996.039 C1845.1,996.039 1848.8,995.039 1852.3,993.139 C1858.9,989.539 1863.1,983.739 1863.1,978.639 C1863.1,977.239 1862.8,975.839 1862.1,974.639"/>
<path class="Note" d="M1993.07,962.138 C1991.57,959.438 1988.67,957.738 1984.77,957.338 C1984.17,957.238 1983.67,957.238 1983.07,957.238 C1979.57,957.238 1975.77,958.238 1972.27,960.138 C1965.67,963.738 1961.57,969.638 1961.57,974.738 C1961.57,976.138 1961.77,977.438 1962.47,978.638 C1963.97,981.338 1966.97,983.038 1970.87,983.438 C1971.47,983.538 1971.97,983.538 1972.57,983.538 C1976.07,983.538 1979.77,982.538 1983.27,980.638 C1989.87,977.038 1994.07,971.238 1994.07,966.138 C1994.07,964.738 1993.77,963.338 1993.07,962.138"/>
<path class="Note" d="M2124.04,949.637 C2122.54,946.937 2119.64,945.237 2115.74,944.837 C2115.14,944.737 2114.64,944.737 2114.04,944.737 C2110.54,944.737 2106.74,945.737 2103.24,947.637 C2096.64,951.237 2092.54,957.137 2092.54,962.237 C2092.54,963.637 2092.74,964.937 2093.44,966.137 C2094.94,968.837 2097.94,970.537 2101.84,970.937 C2102.44,971.037 2102.94,971.037 2103.54,971.037 C2107.04,971.037 2110.74,970.037 2114.24,968.137 C2120.84,964.537 2125.04,958.737 2125.04,953.637 C2125.04,952.237 2124.74,950.837 2124.04,949.637"/>
<path class="Note" d="M2300.76,937.136 C2299.26,934.436 2296.36,932.736 2292.46,932.336 C2291.86,932.236 2291.36,932.236 2290.76,932.236 C2287.26,932.236 2283.46,933.236 2279.96,935.136 C2273.36,938.736 2269.26,944.636 2269.26,949.736 C2269.26,951.136 2269.46,952.436 2270.16,953.636 C2271.66,956.336 2274.66,958.036 2278.56,958.436 C2279.16,958.536 2279.66,958.536 2280.26,958.536 C2283.76,958.536 2287.46,957.536 2290.96,955.636 C2297.56,952.036 2301.76,946.236 2301.76,941.136 C2301.76,939.736 2301.46,938.336 2300.76,937.136"/>
<path class="Note" d="M2437.11,924.635 C2435.61,921.935 2432.71,920.235 2428.81,919.835 C2428.21,919.735 2427.71,919.735 2427.11,919.735 C2423.61,919.735 2419.81,920.735 2416.31,922.635 C2409.71,926.235 2405.61,932.135 2405.61,937.235 C2405.61,938.635 2405.81,939.935 2406.51,941.135 C2408.01,943.835 2411.01,945.535 2414.91,945.935 C2415.51,946.035 2416.01,946.035 2416.61,946.035 C2420.11,946.035 2423.81,945.035 2427.31,943.135 C2433.91,939.535 2438.11,933.735 2438.11,928.635 C2438.11,927.235 2437.81,925.835 2437.11,924.635"/>
<path class="Note" d="M2573.46,912.135 C2571.96,909.435 2569.06,907.735 2565.16,907.335 C2564.56,907.235 2564.06,907.235 2563.46,907.235 C2559.96,907.235 2556.16,908.235 2552.66,910.135 C2546.06,913.735 2541.96,919.535 2541.96,924.635 C2541.96,926.035 2542.36,927.435 2543.06,928.635 C2544.56,931.435 2547.36,933.035 2551.26,933.435 C2551.86,933.535 2552.36,933.535 2552.96,933.535 C2556.46,933.535 2560.26,932.535 2563.76,930.635 C2570.36,927.035 2574.46,921.135 2574.46,916.035 C2574.46,914.635 2574.16,913.335 2573.46,912.135 M2569.26,918.435 C2567.56,920.235 2564.36,922.535 2560.76,924.635 C2557.16,926.735 2553.46,928.435 2551.16,929.135 C2550.66,929.235 2550.06,929.335 2549.56,929.335 C2548.06,929.335 2546.76,928.635 2546.06,927.535 C2545.76,926.935 2545.56,926.335 2545.56,925.735 C2545.56,924.635 2546.06,923.535 2547.16,922.335 C2548.86,920.535 2552.06,918.135 2555.66,916.035 C2559.26,913.935 2562.96,912.235 2565.36,911.635 L2565.56,911.635 C2566.16,911.435 2566.66,911.335 2567.16,911.335 C2568.56,911.335 2569.66,911.935 2570.36,913.235 C2570.66,913.835 2570.86,914.335 2570.86,914.935 C2570.86,916.235 2570.16,917.535 2569.26,918.435"/>
<path class="Note" d="M487.752,1537.17 C486.252,1534.47 483.352,1532.77 479.452,1532.37 C478.852,1532.27 478.352,1532.27 477.752,1532.27 C474.252,1532.27 470.452,1533.27 466.952,1535.17 C460.352,1538.77 456.252,1544.67 456.252,1549.77 C456.252,1551.17 456.452,1552.47 457.152,1553.67 C458.652,1556.37 461.652,1558.07 465.552,1558.47 C466.152,1558.57 466.652,1558.57 467.252,1558.57 C470.752,1558.57 474.452,1557.57 477.952,1555.67 C484.552,1552.07 488.752,1546.27 488.752,1541.17 C488.752,1539.77 488.452,1538.37 487.752,1537.17"/>
<path class="Note" d="M632.639,1549.67 C631.139,1546.97 628.239,1545.27 624.339,1544.87 C623.739,1544.77 623.239,1544.77 622.639,1544.77 C619.139,1544.77 615.339,1545.77 611.839,1547.67 C605.239,1551.27 601.139,1557.17 601.139,1562.27 C601.139,1563.67 601.339,1564.97 602.039,1566.17 C603.539,1568.87 606.539,1570.57 610.439,1570.97 C611.039,1571.07 611.539,1571.07 612.139,1571.07 C615.639,1571.07 619.339,1570.07 622.839,1568.17 C629.439,1564.57 633.639,1558.77 633.639,1553.67 C633.639,1552.27 633.339,1550.87 632.639,1549.67"/>
<path class="Note" d="M777.525,1562.18 C776.025,1559.48 773.125,1557.78 769.225,1557.38 C768.625,1557.28 768.125,1557.28 767.525,1557.28 C764.025,1557.28 760.225,1558.28 756.725,1560.18 C750.125,1563.78 746.025,1569.68 746.025,1574.78 C746.025,1576.18 746.225,1577.48 746.925,1578.68 C748.425,1581.38 751.425,1583.08 755.325,1583.48 C755.925,1583.58 756.425,1583.58 757.025,1583.58 C760.525,1583.58 764.225,1582.58 767.725,1580.68 C774.325,1577.08 778.525,1571.28 778.525,1566.18 C778.525,1564.78 778.225,1563.38 777.525,1562.18"/>
<path class="Note" d="M922.412,1574.68 C920.912,1571.98 918.012,1570.28 914.112,1569.88 C913.512,1569.78 913.012,1569.78 912.412,1569.78 C908.912,1569.78 905.112,1570.78 901.612,1572.68 C895.012,1576.28 890.912,1582.18 890.912,1587.28 C890.912,1588.68 891.112,1589.98 891.812,1591.18 C893.312,1593.88 896.312,1595.58 900.212,1595.98 C900.812,1596.08 901.312,1596.08 901.912,1596.08 C905.412,1596.08 909.112,1595.08 912.612,1593.18 C919.212,1589.58 923.412,1583.78 923.412,1578.68 C923.412,1577.28 923.112,1575.88 922.412,1574.68"/>
<path class="Note" d="M1104.3,1587.18 C1102.8,1584.48 1099.9,1582.78 1096,1582.38 C1095.4,1582.28 1094.9,1582.28 1094.3,1582.28 C1090.8,1582.28 1087,1583.28 1083.5,1585.18 C1076.9,1588.78 1072.8,1594.68 1072.8,1599.78 C1072.8,1601.18 1073,1602.48 1073.7,1603.68 C1075.2,1606.38 1078.2,1608.08 1082.1,1608.48 C1082.7,1608.58 1083.2,1608.58 1083.8,1608.58 C1087.3,1608.58 1091,1607.58 1094.5,1605.68 C1101.1,1602.08 1105.3,1596.28 1105.3,1591.18 C1105.3,1589.78 1105,1588.38 1104.3,1587.18"/>
<path class="Note" d="M1233.44,1599.68 C1231.94,1596.98 1229.04,1595.28 1225.14,1594.88 C1224.54,1594.78 1224.04,1594.78 1223.44,1594.78 C1219.94,1594.78 1216.14,1595.78 1212.64,1597.68 C1206.04,1601.28 1201.94,1607.18 1201.94,1612.28 C1201.94,1613.68 1202.14,1614.98 1202.84,1616.18 C1204.34,1618.88 1207.34,1620.58 1211.24,1620.98 C1211.84,1621.08 1212.34,1621.08 1212.94,1621.08 C1216.44,1621.08 1220.14,1620.08 1223.64,1618.18 C1230.24,1614.58 1234.44,1608.78 1234.44,1603.68 C1234.44,1602.28 1234.14,1600.88 1233.44,1599.68"/>
<path class="Note" d="M1362.57,1612.18 C1361.07,1609.48 1358.17,1607.78 1354.27,1607.38 C1353.67,1607.28 1353.17,1607.28 1352.57,1607.28 C1349.07,1607.28 1345.27,1608.28 1341.77,1610.18 C1335.17,1613.78 1331.07,1619.68 1331.07,1624.78 C1331.07,1626.18 1331.27,1627.48 1331.97,1628.68 C1333.47,1631.38 1336.47,1633.08 1340.37,1633.48 C1340.97,1633.58 1341.47,1633.58 1342.07,1633.58 C1345.57,1633.58 1349.27,1632.58 1352.77,1630.68 C1359.37,1627.08 1363.57,1621.28 1363.57,1616.18 C1363.57,1614.78 1363.27,1613.38 1362.57,1612.18"/>
<path class="Note" d="M1491.71,1624.68 C1490.21,1621.98 1487.31,1620.28 1483.41,1619.88 C1482.81,1619.78 1482.31,1619.78 1481.71,1619.78 C1478.21,1619.78 1474.41,1620.78 1470.91,1622.68 C1464.31,1626.28 1460.21,1632.18 1460.21,1637.28 C1460.21,1638.68 1460.41,1639.98 1461.11,1641.18 C1462.61,1643.88 1465.61,1645.58 1469.51,1645.98 C1470.11,1646.08 1470.61,1646.08 1471.21,1646.08 C1474.71,1646.08 1478.41,1645.08 1481.91,1643.18 C1488.51,1639.58 1492.71,1633.78 1492.71,1628.68 C1492.71,1627.28 1492.41,1625.88 1491.71,1624.68"/>
<path class="Note" d="M1744.25,1487.17 C1742.75,1484.47 1739.85,1482.77 1735.95,1482.37 C1735.35,1482.27 1734.85,1482.27 1734.25,1482.27 C1730.75,1482.27 1726.95,1483.27 1723.45,1485.17 C1716.85,1488.77 1712.75,1494.67 1712.75,1499.77 C1712.75,1501.17 1712.95,1502.47 1713.65,1503.67 C1715.15,1506.37 1718.15,1508.07 1722.05,1508.47 C1722.65,1508.57 1723.15,1508.57 1723.75,1508.57 C1727.25,1508.57 1730.95,1507.57 1734.45,1505.67 C1741.05,1502.07 1745.25,1496.27 1745.25,1491.17 C1745.25,1489.77 1744.95,1488.37 1744.25,1487.17"/>
<path class="Note" d="M1876.01,1499.67 C1874.51,1496.97 1871.61,1495.27 1867.71,1494.87 C1867.11,1494.77 1866.61,1494.77 1866.01,1494.77 C1862.51,1494.77 1858.71,1495.77 1855.21,1497.67 C1848.61,1501.27 1844.51,1507.17 1844.51,1512.27 C1844.51,1513.67 1844.71,1514.97 1845.41,1516.17 C1846.91,1518.87 1849.91,1520.57 1853.81,1520.97 C1854.41,1521.07 1854.91,1521.07 1855.51,1521.07 C1859.01,1521.07 1862.71,1520.07 1866.21,1518.17 C1872.81,1514.57 1877.01,1508.77 1877.01,1503.67 C1877.01,1502.27 1876.71,1500.87 1876.01,1499.67"/>
<path class="Note" d="M2007.77,1512.17 C2006.27,1509.47 2003.37,1507.77 1999.47,1507.37 C1998.87,1507.27 1998.37,1507.27 1997.77,1507.27 C1994.27,1507.27 1990.47,1508.27 1986.97,1510.17 C1980.37,1513.77 1976.27,1519.67 1976.27,1524.77 C1976.27,1526.17 1976.47,1527.47 1977.17,1528.67 C1978.67,1531.37 1981.67,1533.07 1985.57,1533.47 C1986.17,1533.57 1986.67,1533.57 1987.27,1533.57 C1990.77,1533.57 1994.47,1532.57 1997.97,1530.67 C2004.57,1527.07 2008.77,1521.27 2008.77,1516.17 C2008.77,1514.77 2008.47,1513.37 2007.77,1512.17"/>
<path class="Note" d="M2139.53,1524.67 C2138.03,1521.97 2135.13,1520.27 2131.23,1519.87 C2130.63,1519.77 2130.13,1519.77 2129.53,1519.77 C2126.03,1519.77 2122.23,1520.77 2118.73,1522.67 C2112.13,1526.27 2108.03,1532.17 2108.03,1537.27 C2108.03,1538.67 2108.23,1539.97 2108.93,1541.17 C2110.43,1543.87 2113.43,1545.57 2117.33,1545.97 C2117.93,1546.07 2118.43,1546.07 2119.03,1546.07 C2122.53,1546.07 2126.23,1545.07 2129.73,1543.17 C2136.33,1539.57 2140.53,1533.77 2140.53,1528.67 C2140.53,1527.27 2140.23,1525.87 2139.53,1524.67"/>
<path class="Note" d="M2308.29,1537.17 C2306.79,1534.47 2303.89,1532.77 2299.99,1532.37 C2299.39,1532.27 2298.89,1532.27 2298.29,1532.27 C2294.79,1532.27 2290.99,1533.27 2287.49,1535.17 C2280.89,1538.77 2276.79,1544.67 2276.79,1549.77 C2276.79,1551.17 2276.99,1552.47 2277.69,1553.67 C2279.19,1556.37 2282.19,1558.07 2286.09,1558.47 C2286.69,1558.57 2287.19,1558.57 2287.79,1558.57 C2291.29,1558.57 2294.99,1557.57 2298.49,1555.67 C2305.09,1552.07 2309.29,1546.27 2309.29,1541.17 C2309.29,1539.77 2308.99,1538.37 2308.29,1537.17"/>
<path class="Note" d="M2462.76,1549.67 C2461.26,1546.97 2458.36,1545.27 2454.46,1544.87 C2453.86,1544.77 2453.36,1544.77 2452.76,1544.77 C2449.26,1544.77 2445.46,1545.77 2441.96,1547.67 C2435.36,1551.27 2431.26,1557.07 2431.26,1562.17 C2431.26,1563.57 2431.66,1564.97 2432.36,1566.17 C2433.86,1568.97 2436.66,1570.57 2440.56,1570.97 C2441.16,1571.07 2441.66,1571.07 2442.26,1571.07 C2445.76,1571.07 2449.56,1570.07 2453.06,1568.17 C2459.66,1564.57 2463.76,1558.67 2463.76,1553.57 C2463.76,1552.17 2463.46,1550.87 2462.76,1549.67 M2458.56,1555.97 C2456.86,1557.77 2453.66,1560.07 2450.06,1562.17 C2446.46,1564.27 2442.76,1565.97 2440.46,1566.67 C2439.96,1566.77 2439.36,1566.87 2438.86,1566.87 C2437.36,1566.87 2436.06,1566.17 2435.36,1565.07 C2435.06,1564.47 2434.86,1563.87 2434.86,1563.27 C2434.86,1562.17 2435.36,1561.07 2436.46,1559.87 C2438.16,1558.07 2441.36,1555.67 2444.96,1553.57 C2448.56,1551.47 2452.26,1549.77 2454.66,1549.17 L2454.86,1549.17 C2455.46,1548.97 2455.96,1548.87 2456.46,1548.87 C2457.86,1548.87 2458.96,1549.47 2459.66,1550.77 C2459.96,1551.37 2460.16,1551.87 2460.16,1552.47 C2460.16,1553.77 2459.46,1555.07 2458.56,1555.97"/>
<path class="Note" d="M535.904,737.124 C534.404,734.424 531.504,732.724 527.604,732.324 C527.004,732.224 526.504,732.224 525.904,732.224 C522.404,732.224 518.604,733.224 515.104,735.124 C508.504,738.724 504.404,744.624 504.404,749.724 C504.404,751.124 504.604,752.424 505.304,753.624 C506.804,756.324 509.804,758.024 513.704,758.424 C514.304,758.524 514.804,758.524 515.404,758.524 C518.904,758.524 522.604,757.524 526.104,755.624 C532.704,752.024 536.904,746.224 536.904,741.124 C536.904,739.724 536.604,738.324 535.904,737.124"/>
<path class="Note" d="M658.995,724.623 C657.495,721.923 654.595,720.223 650.695,719.823 C650.095,719.723 649.595,719.723 648.995,719.723 C645.495,719.723 641.695,720.723 638.195,722.623 C631.595,726.223 627.495,732.123 627.495,737.223 C627.495,738.623 627.695,739.923 628.395,741.123 C629.895,743.823 632.895,745.523 636.795,745.923 C637.395,746.023 637.895,746.023 638.495,746.023 C641.995,746.023 645.695,745.023 649.195,743.123 C655.795,739.523 659.995,733.723 659.995,728.623 C659.995,727.223 659.695,725.823 658.995,724.623"/>
<path class="Note" d="M782.086,712.122 C780.586,709.422 777.686,707.722 773.786,707.322 C773.186,707.222 772.686,707.222 772.086,707.222 C768.586,707.222 764.786,708.222 761.286,710.122 C754.686,713.722 750.586,719.622 750.586,724.722 C750.586,726.122 750.786,727.422 751.486,728.622 C752.986,731.322 755.986,733.022 759.886,733.422 C760.486,733.522 760.986,733.522 761.586,733.522 C765.086,733.522 768.786,732.522 772.286,730.622 C778.886,727.022 783.086,721.222 783.086,716.122 C783.086,714.722 782.786,713.322 782.086,712.122"/>
<path class="Note" d="M905.177,699.621 C903.677,696.921 900.777,695.221 896.877,694.821 C896.277,694.721 895.777,694.721 895.177,694.721 C891.677,694.721 887.877,695.721 884.377,697.621 C877.777,701.221 873.677,707.121 873.677,712.221 C873.677,713.621 873.877,714.921 874.577,716.121 C876.077,718.821 879.077,720.521 882.977,720.921 C883.577,721.021 884.077,721.021 884.677,721.021 C888.177,721.021 891.877,720.021 895.377,718.121 C901.977,714.521 906.177,708.721 906.177,703.621 C906.177,702.221 905.877,700.821 905.177,699.621"/>
<path class="Note" d="M1065.27,687.12 C1063.77,684.42 1060.87,682.72 1056.97,682.32 C1056.37,682.22 1055.87,682.22 1055.27,682.22 C1051.77,682.22 1047.97,683.22 1044.47,685.12 C1037.87,688.72 1033.77,694.62 1033.77,699.72 C1033.77,701.12 1033.97,702.42 1034.67,703.62 C1036.17,706.32 1039.17,708.02 1043.07,708.42 C1043.67,708.52 1044.17,708.52 1044.77,708.52 C1048.27,708.52 1051.97,707.52 1055.47,705.62 C1062.07,702.02 1066.27,696.22 1066.27,691.12 C1066.27,689.72 1065.97,688.32 1065.27,687.12"/>
<path class="Note" d="M1201.49,674.62 C1199.99,671.92 1197.09,670.22 1193.19,669.82 C1192.59,669.72 1192.09,669.72 1191.49,669.72 C1187.99,669.72 1184.19,670.72 1180.69,672.62 C1174.09,676.22 1169.99,682.12 1169.99,687.22 C1169.99,688.62 1170.19,689.92 1170.89,691.12 C1172.39,693.82 1175.39,695.52 1179.29,695.92 C1179.89,696.02 1180.39,696.02 1180.99,696.02 C1184.49,696.02 1188.19,695.02 1191.69,693.12 C1198.29,689.52 1202.49,683.72 1202.49,678.62 C1202.49,677.22 1202.19,675.82 1201.49,674.62"/>
<path class="Note" d="M1337.7,662.119 C1336.2,659.419 1333.3,657.719 1329.4,657.319 C1328.8,657.219 1328.3,657.219 1327.7,657.219 C1324.2,657.219 1320.4,658.219 1316.9,660.119 C1310.3,663.719 1306.2,669.619 1306.2,674.719 C1306.2,676.119 1306.4,677.419 1307.1,678.619 C1308.6,681.319 1311.6,683.019 1315.5,683.419 C1316.1,683.519 1316.6,683.519 1317.2,683.519 C1320.7,683.519 1324.4,682.519 1327.9,680.619 C1334.5,677.019 1338.7,671.219 1338.7,666.119 C1338.7,664.719 1338.4,663.319 1337.7,662.119"/>
<path class="Note" d="M1473.92,649.618 C1472.42,646.918 1469.52,645.218 1465.62,644.818 C1465.02,644.718 1464.52,644.718 1463.92,644.718 C1460.42,644.718 1456.62,645.718 1453.12,647.618 C1446.52,651.218 1442.42,657.118 1442.42,662.218 C1442.42,663.618 1442.62,664.918 1443.32,666.118 C1444.82,668.818 1447.82,670.518 1451.72,670.918 C1452.32,671.018 1452.82,671.018 1453.42,671.018 C1456.92,671.018 1460.62,670.018 1464.12,668.118 C1470.72,664.518 1474.92,658.718 1474.92,653.618 C1474.92,652.218 1474.62,650.818 1473.92,649.618"/>
<path class="Note" d="M1731.14,637.117 C1729.64,634.417 1726.74,632.717 1722.84,632.317 C1722.24,632.217 1721.74,632.217 1721.14,632.217 C1717.64,632.217 1713.84,633.217 1710.34,635.117 C1703.74,638.717 1699.64,644.617 1699.64,649.717 C1699.64,651.117 1699.84,652.417 1700.54,653.617 C1702.04,656.317 1705.04,658.017 1708.94,658.417 C1709.54,658.517 1710.04,658.517 1710.64,658.517 C1714.14,658.517 1717.84,657.517 1721.34,655.617 C1727.94,652.017 1732.14,646.217 1732.14,641.117 C1732.14,639.717 1731.84,638.317 1731.14,637.117"/>
<path class="Note" d="M1862.1,624.616 C1860.6,621.916 1857.7,620.216 1853.8,619.816 C1853.2,619.716 1852.7,619.716 1852.1,619.716 C1848.6,619.716 1844.8,620.716 1841.3,622.616 C1834.7,626.216 1830.6,632.116 1830.6,637.216 C1830.6,638.616 1830.8,639.916 1831.5,641.116 C1833,643.816 1836,645.516 1839.9,645.916 C1840.5,646.016 1841,646.016 1841.6,646.016 C1845.1,646.016 1848.8,645.016 1852.3,643.116 C1858.9,639.516 1863.1,633.716 1863.1,628.616 C1863.1,627.216 1862.8,625.816 1862.1,624.616"/>
<path class="Note" d="M1993.07,612.116 C1991.57,609.416 1988.67,607.716 1984.77,607.316 C1984.17,607.216 1983.67,607.216 1983.07,607.216 C1979.57,607.216 1975.77,608.216 1972.27,610.116 C1965.67,613.716 1961.57,619.616 1961.57,624.716 C1961.57,626.116 1961.77,627.416 1962.47,628.616 C1963.97,631.316 1966.97,633.016 1970.87,633.416 C1971.47,633.516 1971.97,633.516 1972.57,633.516 C1976.07,633.516 1979.77,632.516 1983.27,630.616 C1989.87,627.016 1994.07,621.216 1994.07,616.116 C1994.07,614.716 1993.77,613.316 1993.07,612.116"/>
<path class="Note" d="M2124.04,599.615 C2122.54,596.915 2119.64,595.215 2115.74,594.815 C2115.14,594.715 2114.64,594.715 2114.04,594.715 C2110.54,594.715 2106.74,595.715 2103.24,597.615 C2096.64,601.215 2092.54,607.115 2092.54,612.215 C2092.54,613.615 2092.74,614.915 2093.44,616.115 C2094.94,618.815 2097.94,620.515 2101.84,620.915 C2102.44,621.015 2102.94,621.015 2103.54,621.015 C2107.04,621.015 2110.74,620.015 2114.24,618.115 C2120.84,614.515 2125.04,608.715 2125.04,603.615 C2125.04,602.215 2124.74,600.815 2124.04,599.615"/>
<path class="Note" d="M2300.76,587.114 C2299.26,584.414 2296.36,582.714 2292.46,582.314 C2291.86,582.214 2291.36,582.214 2290.76,582.214 C2287.26,582.214 2283.46,583.214 2279.96,585.114 C2273.36,588.714 2269.26,594.614 2269.26,599.714 C2269.26,601.114 2269.46,602.414 2270.16,603.614 C2271.66,606.314 2274.66,608.014 2278.56,608.414 C2279.16,608.514 2279.66,608.514 2280.26,608.514 C2283.76,608.514 2287.46,607.514 2290.96,605.614 C2297.56,602.014 2301.76,596.214 2301.76,591.114 C2301.76,589.714 2301.46,588.314 2300.76,587.114"/>
<path class="Note" d="M2437.11,574.613 C2435.61,571.913 2432.71,570.213 2428.81,569.813 C2428.21,569.713 2427.71,569.713 2427.11,569.713 C2423.61,569.713 2419.81,570.713 2416.31,572.613 C2409.71,576.213 2405.61,582.113 2405.61,587.213 C2405.61,588.613 2405.81,589.913 2406.51,591.113 C2408.01,593.813 2411.01,595.513 2414.91,595.913 C2415.51,596.013 2416.01,596.013 2416.61,596.013 C2420.11,596.013 2423.81,595.013 2427.31,593.113 C2433.91,589.513 2438.11,583.713 2438.11,578.613 C2438.11,577.213 2437.81,575.813 2437.11,574.613"/>
<path class="Note" d="M2573.46,562.113 C2571.96,559.413 2569.06,557.713 2565.16,557.313 C2564.56,557.213 2564.06,557.213 2563.46,557.213 C2559.96,557.213 2556.16,558.213 2552.66,560.113 C2546.06,563.713 2541.96,569.513 2541.96,574.613 C2541.96,576.013 2542.36,577.413 2543.06,578.613 C2544.56,581.413 2547.36,583.013 2551.26,583.413 C2551.86,583.513 2552.36,583.513 2552.96,583.513 C2556.46,583.513 2560.26,582.513 2563.76,580.613 C2570.36,577.013 2574.46,571.113 2574.46,566.013 C2574.46,564.613 2574.16,563.313 2573.46,562.113 M2569.26,568.413 C2567.56,570.213 2564.36,572.513 2560.76,574.613 C2557.16,576.713 2553.46,578.413 2551.16,579.113 C2550.66,579.213 2550.06,579.313 2549.56,579.313 C2548.06,579.313 2546.76,578.613 2546.06,577.513 C2545.76,576.913 2545.56,576.313 2545.56,575.713 C2545.56,574.613 2546.06,573.513 2547.16,572.313 C2548.86,570.513 2552.06,568.113 2555.66,566.013 C2559.26,563.913 2562.96,562.213 2565.36,561.613 L2565.56,561.613 C2566.16,561.413 2566.66,561.313 2567.16,561.313 C2568.56,561.313 2569.66,561.913 2570.36,563.213 C2570.66,563.813 2570.86,564.313 2570.86,564.913 C2570.86,566.213 2570.16,567.513 2569.26,568.413"/>
<path class="Note" d="M487.752,1187.15 C486.252,1184.45 483.352,1182.75 479.452,1182.35 C478.852,1182.25 478.352,1182.25 477.752,1182.25 C474.252,1182.25 470.452,1183.25 466.952,1185.15 C460.352,1188.75 456.252,1194.65 456.252,1199.75 C456.252,1201.15 456.452,1202.45 457.152,1203.65 C458.652,1206.35 461.652,1208.05 465.552,1208.45 C466.152,1208.55 466.652,1208.55 467.252,1208.55 C470.752,1208.55 474.452,1207.55 477.952,1205.65 C484.552,1202.05 488.752,1196.25 488.752,1191.15 C488.752,1189.75 488.452,1188.35 487.752,1187.15"/>
<path class="Note" d="M632.639,1199.65 C631.139,1196.95 628.239,1195.25 624.339,1194.85 C623.739,1194.75 623.239,1194.75 622.639,1194.75 C619.139,1194.75 615.339,1195.75 611.839,1197.65 C605.239,1201.25 601.139,1207.15 601.139,1212.25 C601.139,1213.65 601.339,1214.95 602.039,1216.15 C603.539,1218.85 606.539,1220.55 610.439,1220.95 C611.039,1221.05 611.539,1221.05 612.139,1221.05 C615.639,1221.05 619.339,1220.05 622.839,1218.15 C629.439,1214.55 633.639,1208.75 633.639,1203.65 C633.639,1202.25 633.339,1200.85 632.639,1199.65"/>
<path class="Note" d="M777.525,1212.15 C776.025,1209.45 773.125,1207.75 769.225,1207.35 C768.625,1207.25 768.125,1207.25 767.525,1207.25 C764.025,1207.25 760.225,1208.25 756.725,1210.15 C750.125,1213.75 746.025,1219.65 746.025,1224.75 C746.025,1226.15 746.225,1227.45 746.925,1228.65 C748.425,1231.35 751.425,1233.05 755.325,1233.45 C755.925,1233.55 756.425,1233.55 757.025,1233.55 C760.525,1233.55 764.225,1232.55 767.725,1230.65 C774.325,1227.05 778.525,1221.25 778.525,1216.15 C778.525,1214.75 778.225,1213.35 777.525,1212.15"/>
<path class="Note" d="M922.412,1224.65 C920.912,1221.95 918.012,1220.25 914.112,1219.85 C913.512,1219.75 913.012,1219.75 912.412,1219.75 C908.912,1219.75 905.112,1220.75 901.612,1222.65 C895.012,1226.25 890.912,1232.15 890.912,1237.25 C890.912,1238.65 891.112,1239.95 891.812,1241.15 C893.312,1243.85 896.312,1245.55 900.212,1245.95 C900.812,1246.05 901.312,1246.05 901.912,1246.05 C905.412,1246.05 909.112,1245.05 912.612,1243.15 C919.212,1239.55 923.412,1233.75 923.412,1228.65 C923.412,1227.25 923.112,1225.85 922.412,1224.65"/>
<path class="Note" d="M1104.3,1237.16 C1102.8,1234.46 1099.9,1232.76 1096,1232.36 C1095.4,1232.26 1094.9,1232.26 1094.3,1232.26 C1090.8,1232.26 1087,1233.26 1083.5,1235.16 C1076.9,1238.76 1072.8,1244.66 1072.8,1249.76 C1072.8,1251.16 1073,1252.46 1073.7,1253.66 C1075.2,1256.36 1078.2,1258.06 1082.1,1258.46 C1082.7,1258.56 1083.2,1258.56 1083.8,1258.56 C1087.3,1258.56 1091,1257.56 1094.5,1255.66 C1101.1,1252.06 1105.3,1246.26 1105.3,1241.16 C1105.3,1239.76 1105,1238.36 1104.3,1237.16"/>
<path class="Note" d="M1233.44,1249.66 C1231.94,1246.96 1229.04,1245.26 1225.14,1244.86 C1224.54,1244.76 1224.04,1244.76 1223.44,1244.76 C1219.94,1244.76 1216.14,1245.76 1212.64,1247.66 C1206.04,1251.26 1201.94,1257.16 1201.94,1262.26 C1201.94,1263.66 1202.14,1264.96 1202.84,1266.16 C1204.34,1268.86 1207.34,1270.56 1211.24,1270.96 C1211.84,1271.06 1212.34,1271.06 1212.94,1271.06 C1216.44,1271.06 1220.14,1270.06 1223.64,1268.16 C1230.24,1264.56 1234.44,1258.76 1234.44,1253.66 C1234.44,1252.26 1234.14,1250.86 1233.44,1249.66"/>
<path class="Note" d="M1362.57,1262.16 C1361.07,1259.46 1358.17,1257.76 1354.27,1257.36 C1353.67,1257.26 1353.17,1257.26 1352.57,1257.26 C1349.07,1257.26 1345.27,1258.26 1341.77,1260.16 C1335.17,1263.76 1331.07,1269.66 1331.07,1274.76 C1331.07,1276.16 1331.27,1277.46 1331.97,1278.66 C1333.47,1281.36 1336.47,1283.06 1340.37,1283.46 C1340.97,1283.56 1341.47,1283.56 1342.07,1283.56 C1345.57,1283.56 1349.27,1282.56 1352.77,1280.66 C1359.37,1277.06 1363.57,1271.26 1363.57,1266.16 C1363.57,1264.76 1363.27,1263.36 1362.57,1262.16"/>
<path class="Note" d="M1491.71,1274.66 C1490.21,1271.96 1487.31,1270.26 1483.41,1269.86 C1482.81,1269.76 1482.31,1269.76 1481.71,1269.76 C1478.21,1269.76 1474.41,1270.76 1470.91,1272.66 C1464.31,1276.26 1460.21,1282.16 1460.21,1287.26 C1460.21,1288.66 1460.41,1289.96 1461.11,1291.16 C1462.61,1293.86 1465.61,1295.56 1469.51,1295.96 C1470.11,1296.06 1470.61,1296.06 1471.21,1296.06 C1474.71,1296.06 1478.41,1295.06 1481.91,1293.16 C1488.51,1289.56 1492.71,1283.76 1492.71,1278.66 C1492.71,1277.26 1492.41,1275.86 1491.71,1274.66"/>
<path class="Note" d="M1744.25,1287.16 C1742.75,1284.46 1739.85,1282.76 1735.95,1282.36 C1735.35,1282.26 1734.85,1282.26 1734.25,1282.26 C1730.75,1282.26 1726.95,1283.26 1723.45,1285.16 C1716.85,1288.76 1712.75,1294.66 1712.75,1299.76 C1712.75,1301.16 1712.95,1302.46 1713.65,1303.66 C1715.15,1306.36 1718.15,1308.06 1722.05,1308.46 C1722.65,1308.56 1723.15,1308.56 1723.75,1308.56 C1727.25,1308.56 1730.95,1307.56 1734.45,1305.66 C1741.05,1302.06 1745.25,1296.26 1745.25,1291.16 C1745.25,1289.76 1744.95,1288.36 1744.25,1287.16"/>
<path class="Note" d="M1876.01,1299.66 C1874.51,1296.96 1871.61,1295.26 1867.71,1294.86 C1867.11,1294.76 1866.61,1294.76 1866.01,1294.76 C1862.51,1294.76 1858.71,1295.76 1855.21,1297.66 C1848.61,1301.26 1844.51,1307.16 1844.51,1312.26 C1844.51,1313.66 1844.71,1314.96 1845.41,1316.16 C1846.91,1318.86 1849.91,1320.56 1853.81,1320.96 C1854.41,1321.06 1854.91,1321.06 1855.51,1321.06 C1859.01,1321.06 1862.71,1320.06 1866.21,1318.16 C1872.81,1314.56 1877.01,1308.76 1877.01,1303.66 C1877.01,1302.26 1876.71,1300.86 1876.01,1299.66"/>
<path class="Note" d="M2007.77,1312.16 C2006.27,1309.46 2003.37,1307.76 1999.47,1307.36 C1998.87,1307.26 1998.37,1307.26 1997.77,1307.26 C1994.27,1307.26 1990.47,1308.26 1986.97,1310.16 C1980.37,1313.76 1976.27,1319.66 1976.27,1324.76 C1976.27,1326.16 1976.47,1327.46 1977.17,1328.66 C1978.67,1331.36 1981.67,1333.06 1985.57,1333.46 C1986.17,1333.56 1986.67,1333.56 1987.27,1333.56 C1990.77,1333.56 1994.47,1332.56 1997.97,1330.66 C2004.57,1327.06 2008.77,1321.26 2008.77,1316.16 C2008.77,1314.76 2008.47,1313.36 2007.77,1312.16"/>
<path class="Note" d="M2139.53,1324.66 C2138.03,1321.96 2135.13,1320.26 2131.23,1319.86 C2130.63,1319.76 2130.13,1319.76 2129.53,1319.76 C2126.03,1319.76 2122.23,1320.76 2118.73,1322.66 C2112.13,1326.26 2108.03,1332.16 2108.03,1337.26 C2108.03,1338.66 2108.23,1339.96 2108.93,1341.16 C2110.43,1343.86 2113.43,1345.56 2117.33,1345.96 C2117.93,1346.06 2118.43,1346.06 2119.03,1346.06 C2122.53,1346.06 2126.23,1345.06 2129.73,1343.16 C2136.33,1339.56 2140.53,1333.76 2140.53,1328.66 C2140.53,1327.26 2140.23,1325.86 2139.53,1324.66"/>
<path class="Note" d="M2308.29,1337.16 C2306.79,1334.46 2303.89,1332.76 2299.99,1332.36 C2299.39,1332.26 2298.89,1332.26 2298.29,1332.26 C2294.79,1332.26 2290.99,1333.26 2287.49,1335.16 C2280.89,1338.76 2276.79,1344.66 2276.79,1349.76 C2276.79,1351.16 2276.99,1352.46 2277.69,1353.66 C2279.19,1356.36 2282.19,1358.06 2286.09,1358.46 C2286.69,1358.56 2287.19,1358.56 2287.79,1358.56 C2291.29,1358.56 2294.99,1357.56 2298.49,1355.66 C2305.09,1352.06 2309.29,1346.26 2309.29,1341.16 C2309.29,1339.76 2308.99,1338.36 2308.29,1337.16"/>
<path class="Note" d="M2462.76,1349.66 C2461.26,1346.96 2458.36,1345.26 2454.46,1344.86 C2453.86,1344.76 2453.36,1344.76 2452.76,1344.76 C2449.26,1344.76 2445.46,1345.76 2441.96,1347.66 C2435.36,1351.26 2431.26,1357.06 2431.26,1362.16 C2431.26,1363.56 2431.66,1364.96 2432.36,1366.16 C2433.86,1368.96 2436.66,1370.56 2440.56,1370.96 C2441.16,1371.06 2441.66,1371.06 2442.26,1371.06 C2445.76,1371.06 2449.56,1370.06 2453.06,1368.16 C2459.66,1364.56 2463.76,1358.66 2463.76,1353.56 C2463.76,1352.16 2463.46,1350.86 2462.76,1349.66 M2458.56,1355.96 C2456.86,1357.76 2453.66,1360.06 2450.06,1362.16 C2446.46,1364.26 2442.76,1365.96 2440.46,1366.66 C2439.96,1366.76 2439.36,1366.86 2438.86,1366.86 C2437.36,1366.86 2436.06,1366.16 2435.36,1365.06 C2435.06,1364.46 2434.86,1363.86 2434.86,1363.26 C2434.86,1362.16 2435.36,1361.06 2436.46,1359.86 C2438.16,1358.06 2441.36,1355.66 2444.96,1353.56 C2448.56,1351.46 2452.26,1349.76 2454.66,1349.16 L2454.86,1349.16 C2455.46,1348.96 2455.96,1348.86 2456.46,1348.86 C2457.86,1348.86 2458.96,1349.46 2459.66,1350.76 C2459.96,1351.36 2460.16,1351.86 2460.16,1352.46 C2460.16,1353.76 2459.46,1355.06 2458.56,1355.96"/>
<path class="Clef" d="M297,907.735 C289.4,907.735 283.3,912.135 283.2,912.135 C277.4,916.435 275.1,921.535 274.2,925.035 C273.7,926.835 273.5,928.635 273.5,930.335 C273.5,932.735 273.9,934.935 274.8,936.835 C276,939.535 278.3,941.435 281.3,942.435 C282.5,942.835 283.8,943.035 285.1,943.035 C287.3,943.035 289.6,942.435 291.5,941.335 C294.6,939.635 296.5,936.035 296.5,932.135 C296.5,928.635 294.7,925.435 291.7,923.535 C289.6,922.135 287.6,921.735 285.9,921.735 C284.7,921.735 283.6,921.935 282.7,922.235 C281.7,922.635 280,923.635 279.2,924.335 C279.5,922.435 280.7,919.535 281.8,917.935 C282.9,916.335 285.1,914.335 286.8,913.435 C289.3,912.035 292.5,911.435 296,911.435 C306.2,911.435 311.2,919.635 311.2,936.435 C311.2,945.735 307.7,954.635 304.7,960.535 C301.4,967.135 297,973.435 293.1,976.935 C282.7,986.435 272.9,990.935 272.8,990.935 C272.8,990.935 271.3,991.835 271.7,993.335 C272,994.335 272.9,994.535 273.5,994.535 C273.6,994.535 273.9,994.435 274,994.435 C274.1,994.435 285.5,989.735 294.6,982.635 C299.7,978.935 304.3,974.935 308.3,970.635 C311.9,966.735 315,962.535 317.5,958.335 C321.9,950.835 324.4,943.035 324.4,936.335 C324.4,928.035 322.2,921.135 318.1,916.235 C313.4,910.635 306.3,907.735 297,907.735 M328.4,920.435 C328.4,923.235 330.6,925.435 333.2,925.435 C335.8,925.435 338,923.235 338,920.435 C338,917.635 335.8,915.335 333.2,915.335 C330.6,915.335 328.4,917.635 328.4,920.435 M328.4,945.135 C328.4,947.935 330.6,950.235 333.2,950.235 C335.8,950.235 338,947.935 338,945.135 C338,942.335 335.8,940.035 333.2,940.035 C330.6,940.035 328.4,942.335 328.4,945.135"/>
<path class="Clef" d="M1666.54,976.939 C1665.34,971.539 1662.64,967.639 1661.84,966.639 C1658.64,962.339 1654.64,959.539 1649.94,958.139 C1647.64,957.439 1645.54,957.239 1643.54,957.239 C1642.84,957.239 1642.14,957.239 1641.44,957.339 C1640.44,951.339 1639.34,945.439 1638.44,940.039 C1644.04,933.839 1647.74,927.939 1650.14,923.539 C1653.74,916.839 1655.14,912.139 1655.24,911.939 C1656.44,908.939 1657.14,905.139 1657.14,900.639 C1657.14,897.939 1656.84,895.039 1656.44,892.039 C1655.34,884.939 1653.14,878.239 1650.64,874.539 C1649.34,872.639 1648.14,871.539 1646.94,871.539 C1645.74,871.539 1643.24,872.739 1640.34,875.539 C1638.04,877.739 1634.74,881.639 1632.14,887.639 C1629.84,893.039 1629.14,899.939 1629.14,905.839 C1629.14,907.639 1629.24,909.339 1629.34,910.939 C1629.54,914.539 1630.24,920.339 1630.84,923.939 C1630.84,924.039 1631.14,925.539 1631.54,928.139 L1630.84,928.839 C1629.84,929.839 1628.64,930.939 1627.24,932.339 C1626.34,933.239 1625.44,934.039 1624.44,935.039 C1615.94,943.239 1603.14,955.639 1603.14,974.739 C1603.14,979.439 1604.04,983.839 1605.84,987.839 C1607.44,991.439 1609.74,994.739 1612.64,997.639 C1620.14,1005.04 1630.34,1008.24 1637.44,1008.24 L1638.04,1008.24 C1640.94,1008.14 1643.64,1007.84 1646.04,1007.44 C1647.84,1017.04 1649.04,1024.14 1649.04,1029.44 C1649.04,1035.94 1647.44,1039.84 1643.54,1042.64 C1641.14,1044.34 1638.24,1045.44 1635.14,1045.54 L1634.34,1045.54 C1632.84,1045.54 1630.34,1045.14 1628.84,1044.74 C1628.84,1044.74 1628.54,1044.64 1628.54,1044.44 C1628.54,1044.24 1628.94,1044.24 1628.94,1044.24 C1630.84,1043.84 1634.44,1042.54 1636.84,1039.24 C1637.94,1037.74 1638.64,1035.44 1638.64,1032.94 C1638.64,1031.34 1638.34,1029.64 1637.64,1028.14 C1636.54,1025.74 1633.94,1022.74 1628.34,1022.34 L1627.24,1022.34 C1625.14,1022.34 1623.34,1022.84 1621.64,1023.84 C1619.84,1024.94 1618.24,1026.64 1617.24,1028.64 C1616.14,1030.64 1615.64,1032.84 1615.64,1035.04 C1615.64,1037.94 1616.54,1040.64 1618.34,1042.84 C1621.34,1046.44 1626.04,1048.74 1631.44,1049.34 C1632.14,1049.44 1633.24,1049.54 1633.94,1049.54 C1638.34,1049.54 1642.74,1048.34 1646.34,1046.14 C1650.04,1043.54 1652.14,1039.54 1652.84,1033.94 C1653.04,1032.64 1653.04,1031.24 1653.04,1029.74 C1653.04,1025.84 1652.54,1021.14 1651.54,1015.34 C1651.14,1013.24 1650.74,1010.24 1650.04,1006.44 C1655.84,1004.54 1659.94,1000.84 1663.74,995.039 C1666.04,991.039 1667.14,986.939 1667.14,982.639 C1667.14,980.739 1666.94,978.839 1666.54,976.939 M1636.34,899.039 C1638.14,893.339 1640.84,889.939 1642.84,888.239 C1644.64,886.739 1646.24,886.039 1647.14,886.039 C1647.24,886.039 1647.44,886.139 1647.54,886.139 C1647.84,886.239 1648.24,886.739 1648.64,887.439 C1649.54,889.239 1650.44,892.539 1650.44,896.239 C1650.44,898.139 1650.24,900.139 1649.64,901.939 C1647.44,908.739 1642.84,916.039 1635.84,923.739 C1635.64,922.639 1635.44,921.639 1635.34,920.639 C1634.84,917.439 1634.54,914.239 1634.54,911.339 C1634.54,906.839 1635.14,902.739 1636.34,899.039 M1632.34,1003.14 C1627.74,1001.94 1623.24,999.439 1619.44,995.939 C1618.14,994.739 1616.34,992.539 1614.84,989.139 C1613.54,986.139 1612.84,983.039 1612.84,979.639 L1612.84,978.939 C1612.94,974.239 1614.24,969.439 1616.74,964.639 C1619.64,959.039 1624.14,953.539 1630.24,948.239 C1631.74,946.939 1633.14,945.639 1634.44,944.339 C1635.24,948.639 1635.94,953.339 1636.84,958.239 C1632.94,959.539 1628.24,962.539 1625.14,968.239 C1622.74,972.739 1622.04,976.639 1622.04,979.839 C1622.04,981.339 1622.24,982.739 1622.44,983.839 C1623.34,988.339 1625.94,992.039 1629.44,994.139 C1630.24,994.639 1633.54,996.339 1635.54,996.339 C1635.84,996.339 1636.14,996.339 1636.34,996.239 C1636.64,996.139 1636.94,995.939 1637.04,995.639 C1637.14,995.439 1637.14,995.239 1637.14,995.039 C1637.14,994.239 1636.34,993.639 1635.04,992.839 C1634.44,992.439 1633.74,992.039 1633.04,991.539 C1630.44,989.539 1628.94,986.439 1628.94,983.039 C1628.94,982.039 1629.14,981.139 1629.34,980.139 C1629.84,978.139 1631.54,975.339 1633.04,973.939 C1634.74,972.439 1636.74,971.239 1639.14,970.639 C1641.14,981.839 1643.24,992.939 1644.84,1001.34 C1644.94,1002.04 1645.14,1002.74 1645.24,1003.44 C1643.24,1003.84 1641.24,1004.04 1639.34,1004.04 C1636.94,1004.04 1634.64,1003.74 1632.34,1003.14 M1658.04,992.939 C1656.84,996.139 1654.34,1000.14 1649.24,1002.24 C1649.14,1001.84 1649.14,1001.34 1649.04,1000.94 C1647.54,992.139 1645.64,981.239 1643.64,969.939 L1644.64,969.939 C1654.34,969.939 1658.24,977.139 1659.14,981.739 C1659.34,982.639 1659.44,983.839 1659.44,985.139 C1659.44,987.439 1659.04,990.239 1658.04,992.939"/>
<path class="Clef" d="M335,1589.48 C333.8,1584.08 331.1,1580.18 330.3,1579.18 C327.1,1574.88 323.1,1572.08 318.4,1570.68 C316.1,1569.98 314,1569.78 312,1569.78 C311.3,1569.78 310.6,1569.78 309.9,1569.88 C308.9,1563.88 307.8,1557.98 306.9,1552.58 C312.5,1546.38 316.2,1540.48 318.6,1536.08 C322.2,1529.38 323.6,1524.68 323.7,1524.48 C324.9,1521.48 325.6,1517.68 325.6,1513.18 C325.6,1510.48 325.3,1507.58 324.9,1504.58 C323.8,1497.48 321.6,1490.78 319.1,1487.08 C317.8,1485.18 316.6,1484.08 315.4,1484.08 C314.2,1484.08 311.7,1485.28 308.8,1488.08 C306.5,1490.28 303.2,1494.18 300.6,1500.18 C298.3,1505.58 297.6,1512.48 297.6,1518.38 C297.6,1520.18 297.7,1521.88 297.8,1523.48 C298,1527.08 298.7,1532.88 299.3,1536.48 C299.3,1536.58 299.6,1538.08 300,1540.68 L299.3,1541.38 C298.3,1542.38 297.1,1543.48 295.7,1544.88 C294.8,1545.78 293.9,1546.58 292.9,1547.58 C284.4,1555.78 271.6,1568.18 271.6,1587.28 C271.6,1591.98 272.5,1596.38 274.3,1600.38 C275.9,1603.98 278.2,1607.28 281.1,1610.18 C288.6,1617.58 298.8,1620.78 305.9,1620.78 L306.5,1620.78 C309.4,1620.68 312.1,1620.38 314.5,1619.98 C316.3,1629.58 317.5,1636.68 317.5,1641.98 C317.5,1648.48 315.9,1652.38 312,1655.18 C309.6,1656.88 306.7,1657.98 303.6,1658.08 L302.8,1658.08 C301.3,1658.08 298.8,1657.68 297.3,1657.28 C297.3,1657.28 297,1657.18 297,1656.98 C297,1656.78 297.4,1656.78 297.4,1656.78 C299.3,1656.38 302.9,1655.08 305.3,1651.78 C306.4,1650.28 307.1,1647.98 307.1,1645.48 C307.1,1643.88 306.8,1642.18 306.1,1640.68 C305,1638.28 302.4,1635.28 296.8,1634.88 L295.7,1634.88 C293.6,1634.88 291.8,1635.38 290.1,1636.38 C288.3,1637.48 286.7,1639.18 285.7,1641.18 C284.6,1643.18 284.1,1645.38 284.1,1647.58 C284.1,1650.48 285,1653.18 286.8,1655.38 C289.8,1658.98 294.5,1661.28 299.9,1661.88 C300.6,1661.98 301.7,1662.08 302.4,1662.08 C306.8,1662.08 311.2,1660.88 314.8,1658.68 C318.5,1656.08 320.6,1652.08 321.3,1646.48 C321.5,1645.18 321.5,1643.78 321.5,1642.28 C321.5,1638.38 321,1633.68 320,1627.88 C319.6,1625.78 319.2,1622.78 318.5,1618.98 C324.3,1617.08 328.4,1613.38 332.2,1607.58 C334.5,1603.58 335.6,1599.48 335.6,1595.18 C335.6,1593.28 335.4,1591.38 335,1589.48 M304.8,1511.58 C306.6,1505.88 309.3,1502.48 311.3,1500.78 C313.1,1499.28 314.7,1498.58 315.6,1498.58 C315.7,1498.58 315.9,1498.68 316,1498.68 C316.3,1498.78 316.7,1499.28 317.1,1499.98 C318,1501.78 318.9,1505.08 318.9,1508.78 C318.9,1510.68 318.7,1512.68 318.1,1514.48 C315.9,1521.28 311.3,1528.58 304.3,1536.28 C304.1,1535.18 303.9,1534.18 303.8,1533.18 C303.3,1529.98 303,1526.78 303,1523.88 C303,1519.38 303.6,1515.28 304.8,1511.58 M300.8,1615.68 C296.2,1614.48 291.7,1611.98 287.9,1608.48 C286.6,1607.28 284.8,1605.08 283.3,1601.68 C282,1598.68 281.3,1595.58 281.3,1592.18 L281.3,1591.48 C281.4,1586.78 282.7,1581.98 285.2,1577.18 C288.1,1571.58 292.6,1566.08 298.7,1560.78 C300.2,1559.48 301.6,1558.18 302.9,1556.88 C303.7,1561.18 304.4,1565.88 305.3,1570.78 C301.4,1572.08 296.7,1575.08 293.6,1580.78 C291.2,1585.28 290.5,1589.18 290.5,1592.38 C290.5,1593.88 290.7,1595.28 290.9,1596.38 C291.8,1600.88 294.4,1604.58 297.9,1606.68 C298.7,1607.18 302,1608.88 304,1608.88 C304.3,1608.88 304.6,1608.88 304.8,1608.78 C305.1,1608.68 305.4,1608.48 305.5,1608.18 C305.6,1607.98 305.6,1607.78 305.6,1607.58 C305.6,1606.78 304.8,1606.18 303.5,1605.38 C302.9,1604.98 302.2,1604.58 301.5,1604.08 C298.9,1602.08 297.4,1598.98 297.4,1595.58 C297.4,1594.58 297.6,1593.68 297.8,1592.68 C298.3,1590.68 300,1587.88 301.5,1586.48 C303.2,1584.98 305.2,1583.78 307.6,1583.18 C309.6,1594.38 311.7,1605.48 313.3,1613.88 C313.4,1614.58 313.6,1615.28 313.7,1615.98 C311.7,1616.38 309.7,1616.58 307.8,1616.58 C305.4,1616.58 303.1,1616.28 300.8,1615.68 M326.5,1605.48 C325.3,1608.68 322.8,1612.68 317.7,1614.78 C317.6,1614.38 317.6,1613.88 317.5,1613.48 C316,1604.68 314.1,1593.78 312.1,1582.48 L313.1,1582.48 C322.8,1582.48 326.7,1589.68 327.6,1594.28 C327.8,1595.18 327.9,1596.38 327.9,1597.68 C327.9,1599.98 327.5,1602.78 326.5,1605.48"/>
<path class="Clef" d="M1639.24,1520.27 C1631.64,1520.27 1625.54,1524.67 1625.44,1524.67 C1619.64,1528.97 1617.34,1534.07 1616.44,1537.57 C1615.94,1539.37 1615.74,1541.17 1615.74,1542.87 C1615.74,1545.27 1616.14,1547.47 1617.04,1549.37 C1618.24,1552.07 1620.54,1553.97 1623.54,1554.97 C1624.74,1555.37 1626.04,1555.57 1627.34,1555.57 C1629.54,1555.57 1631.84,1554.97 1633.74,1553.87 C1636.84,1552.17 1638.74,1548.57 1638.74,1544.67 C1638.74,1541.17 1636.94,1537.97 1633.94,1536.07 C1631.84,1534.67 1629.84,1534.27 1628.14,1534.27 C1626.94,1534.27 1625.84,1534.47 1624.94,1534.77 C1623.94,1535.17 1622.24,1536.17 1621.44,1536.87 C1621.74,1534.97 1622.94,1532.07 1624.04,1530.47 C1625.14,1528.87 1627.34,1526.87 1629.04,1525.97 C1631.54,1524.57 1634.74,1523.97 1638.24,1523.97 C1648.44,1523.97 1653.44,1532.17 1653.44,1548.97 C1653.44,1558.27 1649.94,1567.17 1646.94,1573.07 C1643.64,1579.67 1639.24,1585.97 1635.34,1589.47 C1624.94,1598.97 1615.14,1603.47 1615.04,1603.47 C1615.04,1603.47 1613.54,1604.37 1613.94,1605.87 C1614.24,1606.87 1615.14,1607.07 1615.74,1607.07 C1615.84,1607.07 1616.14,1606.97 1616.24,1606.97 C1616.34,1606.97 1627.74,1602.27 1636.84,1595.17 C1641.94,1591.47 1646.54,1587.47 1650.54,1583.17 C1654.14,1579.27 1657.24,1575.07 1659.74,1570.87 C1664.14,1563.37 1666.64,1555.57 1666.64,1548.87 C1666.64,1540.57 1664.44,1533.67 1660.34,1528.77 C1655.64,1523.17 1648.54,1520.27 1639.24,1520.27 M1670.64,1532.97 C1670.64,1535.77 1672.84,1537.97 1675.44,1537.97 C1678.04,1537.97 1680.24,1535.77 1680.24,1532.97 C1680.24,1530.17 1678.04,1527.87 1675.44,1527.87 C1672.84,1527.87 1670.64,1530.17 1670.64,1532.97 M1670.64,1557.67 C1670.64,1560.47 1672.84,1562.77 1675.44,1562.77 C1678.04,1562.77 1680.24,1560.47 1680.24,1557.67 C1680.24,1554.87 1678.04,1552.57 1675.44,1552.57 C1672.84,1552.57 1670.64,1554.87 1670.64,1557.67"/>
<path class="Clef" d="M335,714.422 C333.8,709.022 331.1,705.122 330.3,704.122 C327.1,699.822 323.1,697.022 318.4,695.622 C316.1,694.922 314,694.722 312,694.722 C311.3,694.722 310.6,694.722 309.9,694.822 C308.9,688.822 307.8,682.922 306.9,677.522 C312.5,671.322 316.2,665.422 318.6,661.022 C322.2,654.322 323.6,649.622 323.7,649.422 C324.9,646.422 325.6,642.622 325.6,638.122 C325.6,635.422 325.3,632.522 324.9,629.522 C323.8,622.422 321.6,615.722 319.1,612.022 C317.8,610.122 316.6,609.022 315.4,609.022 C314.2,609.022 311.7,610.222 308.8,613.022 C306.5,615.222 303.2,619.122 300.6,625.122 C298.3,630.522 297.6,637.422 297.6,643.322 C297.6,645.122 297.7,646.822 297.8,648.422 C298,652.022 298.7,657.822 299.3,661.422 C299.3,661.522 299.6,663.022 300,665.622 L299.3,666.322 C298.3,667.322 297.1,668.422 295.7,669.822 C294.8,670.722 293.9,671.522 292.9,672.522 C284.4,680.722 271.6,693.122 271.6,712.222 C271.6,716.922 272.5,721.322 274.3,725.322 C275.9,728.922 278.2,732.222 281.1,735.122 C288.6,742.522 298.8,745.722 305.9,745.722 L306.5,745.722 C309.4,745.622 312.1,745.322 314.5,744.922 C316.3,754.522 317.5,761.622 317.5,766.922 C317.5,773.422 315.9,777.322 312,780.122 C309.6,781.822 306.7,782.922 303.6,783.022 L302.8,783.022 C301.3,783.022 298.8,782.622 297.3,782.222 C297.3,782.222 297,782.122 297,781.922 C297,781.722 297.4,781.722 297.4,781.722 C299.3,781.322 302.9,780.022 305.3,776.722 C306.4,775.222 307.1,772.922 307.1,770.422 C307.1,768.822 306.8,767.122 306.1,765.622 C305,763.222 302.4,760.222 296.8,759.822 L295.7,759.822 C293.6,759.822 291.8,760.322 290.1,761.322 C288.3,762.422 286.7,764.122 285.7,766.122 C284.6,768.122 284.1,770.322 284.1,772.522 C284.1,775.422 285,778.122 286.8,780.322 C289.8,783.922 294.5,786.222 299.9,786.822 C300.6,786.922 301.7,787.022 302.4,787.022 C306.8,787.022 311.2,785.822 314.8,783.622 C318.5,781.022 320.6,777.022 321.3,771.422 C321.5,770.122 321.5,768.722 321.5,767.222 C321.5,763.322 321,758.622 320,752.822 C319.6,750.722 319.2,747.722 318.5,743.922 C324.3,742.022 328.4,738.322 332.2,732.522 C334.5,728.522 335.6,724.422 335.6,720.122 C335.6,718.222 335.4,716.322 335,714.422 M304.8,636.522 C306.6,630.822 309.3,627.422 311.3,625.722 C313.1,624.222 314.7,623.522 315.6,623.522 C315.7,623.522 315.9,623.622 316,623.622 C316.3,623.722 316.7,624.222 317.1,624.922 C318,626.722 318.9,630.022 318.9,633.722 C318.9,635.622 318.7,637.622 318.1,639.422 C315.9,646.222 311.3,653.522 304.3,661.222 C304.1,660.122 303.9,659.122 303.8,658.122 C303.3,654.922 303,651.722 303,648.822 C303,644.322 303.6,640.222 304.8,636.522 M300.8,740.622 C296.2,739.422 291.7,736.922 287.9,733.422 C286.6,732.222 284.8,730.022 283.3,726.622 C282,723.622 281.3,720.522 281.3,717.122 L281.3,716.422 C281.4,711.722 282.7,706.922 285.2,702.122 C288.1,696.522 292.6,691.022 298.7,685.722 C300.2,684.422 301.6,683.122 302.9,681.822 C303.7,686.122 304.4,690.822 305.3,695.722 C301.4,697.022 296.7,700.022 293.6,705.722 C291.2,710.222 290.5,714.122 290.5,717.322 C290.5,718.822 290.7,720.222 290.9,721.322 C291.8,725.822 294.4,729.522 297.9,731.622 C298.7,732.122 302,733.822 304,733.822 C304.3,733.822 304.6,733.822 304.8,733.722 C305.1,733.622 305.4,733.422 305.5,733.122 C305.6,732.922 305.6,732.722 305.6,732.522 C305.6,731.722 304.8,731.122 303.5,730.322 C302.9,729.922 302.2,729.522 301.5,729.022 C298.9,727.022 297.4,723.922 297.4,720.522 C297.4,719.522 297.6,718.622 297.8,717.622 C298.3,715.622 300,712.822 301.5,711.422 C303.2,709.922 305.2,708.722 307.6,708.122 C309.6,719.322 311.7,730.422 313.3,738.822 C313.4,739.522 313.6,740.222 313.7,740.922 C311.7,741.322 309.7,741.522 307.8,741.522 C305.4,741.522 303.1,741.222 300.8,740.622 M326.5,730.422 C325.3,733.622 322.8,737.622 317.7,739.722 C317.6,739.322 317.6,738.822 317.5,738.422 C316,729.622 314.1,718.722 312.1,707.422 L313.1,707.422 C322.8,707.422 326.7,714.622 327.6,719.222 C327.8,720.122 327.9,721.322 327.9,722.622 C327.9,724.922 327.5,727.722 326.5,730.422"/>
<path class="Clef" d="M335,1326.96 C333.8,1321.56 331.1,1317.66 330.3,1316.66 C327.1,1312.36 323.1,1309.56 318.4,1308.16 C316.1,1307.46 314,1307.26 312,1307.26 C311.3,1307.26 310.6,1307.26 309.9,1307.36 C308.9,1301.36 307.8,1295.46 306.9,1290.06 C312.5,1283.86 316.2,1277.96 318.6,1273.56 C322.2,1266.86 323.6,1262.16 323.7,1261.96 C324.9,1258.96 325.6,1255.16 325.6,1250.66 C325.6,1247.96 325.3,1245.06 324.9,1242.06 C323.8,1234.96 321.6,1228.26 319.1,1224.56 C317.8,1222.66 316.6,1221.56 315.4,1221.56 C314.2,1221.56 311.7,1222.76 308.8,1225.56 C306.5,1227.76 303.2,1231.66 300.6,1237.66 C298.3,1243.06 297.6,1249.96 297.6,1255.86 C297.6,1257.66 297.7,1259.36 297.8,1260.96 C298,1264.56 298.7,1270.36 299.3,1273.96 C299.3,1274.06 299.6,1275.56 300,1278.16 L299.3,1278.86 C298.3,1279.86 297.1,1280.96 295.7,1282.36 C294.8,1283.26 293.9,1284.06 292.9,1285.06 C284.4,1293.26 271.6,1305.66 271.6,1324.76 C271.6,1329.46 272.5,1333.86 274.3,1337.86 C275.9,1341.46 278.2,1344.76 281.1,1347.66 C288.6,1355.06 298.8,1358.26 305.9,1358.26 L306.5,1358.26 C309.4,1358.16 312.1,1357.86 314.5,1357.46 C316.3,1367.06 317.5,1374.16 317.5,1379.46 C317.5,1385.96 315.9,1389.86 312,1392.66 C309.6,1394.36 306.7,1395.46 303.6,1395.56 L302.8,1395.56 C301.3,1395.56 298.8,1395.16 297.3,1394.76 C297.3,1394.76 297,1394.66 297,1394.46 C297,1394.26 297.4,1394.26 297.4,1394.26 C299.3,1393.86 302.9,1392.56 305.3,1389.26 C306.4,1387.76 307.1,1385.46 307.1,1382.96 C307.1,1381.36 306.8,1379.66 306.1,1378.16 C305,1375.76 302.4,1372.76 296.8,1372.36 L295.7,1372.36 C293.6,1372.36 291.8,1372.86 290.1,1373.86 C288.3,1374.96 286.7,1376.66 285.7,1378.66 C284.6,1380.66 284.1,1382.86 284.1,1385.06 C284.1,1387.96 285,1390.66 286.8,1392.86 C289.8,1396.46 294.5,1398.76 299.9,1399.36 C300.6,1399.46 301.7,1399.56 302.4,1399.56 C306.8,1399.56 311.2,1398.36 314.8,1396.16 C318.5,1393.56 320.6,1389.56 321.3,1383.96 C321.5,1382.66 321.5,1381.26 321.5,1379.76 C321.5,1375.86 321,1371.16 320,1365.36 C319.6,1363.26 319.2,1360.26 318.5,1356.46 C324.3,1354.56 328.4,1350.86 332.2,1345.06 C334.5,1341.06 335.6,1336.96 335.6,1332.66 C335.6,1330.76 335.4,1328.86 335,1326.96 M304.8,1249.06 C306.6,1243.36 309.3,1239.96 311.3,1238.26 C313.1,1236.76 314.7,1236.06 315.6,1236.06 C315.7,1236.06 315.9,1236.16 316,1236.16 C316.3,1236.26 316.7,1236.76 317.1,1237.46 C318,1239.26 318.9,1242.56 318.9,1246.26 C318.9,1248.16 318.7,1250.16 318.1,1251.96 C315.9,1258.76 311.3,1266.06 304.3,1273.76 C304.1,1272.66 303.9,1271.66 303.8,1270.66 C303.3,1267.46 303,1264.26 303,1261.36 C303,1256.86 303.6,1252.76 304.8,1249.06 M300.8,1353.16 C296.2,1351.96 291.7,1349.46 287.9,1345.96 C286.6,1344.76 284.8,1342.56 283.3,1339.16 C282,1336.16 281.3,1333.06 281.3,1329.66 L281.3,1328.96 C281.4,1324.26 282.7,1319.46 285.2,1314.66 C288.1,1309.06 292.6,1303.56 298.7,1298.26 C300.2,1296.96 301.6,1295.66 302.9,1294.36 C303.7,1298.66 304.4,1303.36 305.3,1308.26 C301.4,1309.56 296.7,1312.56 293.6,1318.26 C291.2,1322.76 290.5,1326.66 290.5,1329.86 C290.5,1331.36 290.7,1332.76 290.9,1333.86 C291.8,1338.36 294.4,1342.06 297.9,1344.16 C298.7,1344.66 302,1346.36 304,1346.36 C304.3,1346.36 304.6,1346.36 304.8,1346.26 C305.1,1346.16 305.4,1345.96 305.5,1345.66 C305.6,1345.46 305.6,1345.26 305.6,1345.06 C305.6,1344.26 304.8,1343.66 303.5,1342.86 C302.9,1342.46 302.2,1342.06 301.5,1341.56 C298.9,1339.56 297.4,1336.46 297.4,1333.06 C297.4,1332.06 297.6,1331.16 297.8,1330.16 C298.3,1328.16 300,1325.36 301.5,1323.96 C303.2,1322.46 305.2,1321.26 307.6,1320.66 C309.6,1331.86 311.7,1342.96 313.3,1351.36 C313.4,1352.06 313.6,1352.76 313.7,1353.46 C311.7,1353.86 309.7,1354.06 307.8,1354.06 C305.4,1354.06 303.1,1353.76 300.8,1353.16 M326.5,1342.96 C325.3,1346.16 322.8,1350.16 317.7,1352.26 C317.6,1351.86 317.6,1351.36 317.5,1350.96 C316,1342.16 314.1,1331.26 312.1,1319.96 L313.1,1319.96 C322.8,1319.96 326.7,1327.16 327.6,1331.76 C327.8,1332.66 327.9,1333.86 327.9,1335.16 C327.9,1337.46 327.5,1340.26 326.5,1342.96"/>
<path class="KeySig" d="M386.304,922.235 C386.904,922.135 387.404,921.435 387.404,920.835 L387.404,914.935 C387.404,914.135 386.804,913.535 386.004,913.535 L385.804,913.535 L382.504,914.235 L382.504,899.335 L379.704,899.335 L379.704,914.835 L370.804,916.635 L370.804,902.535 L368.004,902.535 L368.004,917.235 L364.104,918.035 C363.504,918.135 363.004,918.835 363.004,919.435 L363.004,919.635 L363.004,925.435 L363.004,925.235 C363.004,926.035 363.604,926.635 364.404,926.635 L364.704,926.635 L368.004,925.935 L368.004,942.435 L364.104,943.235 C363.504,943.335 363.004,944.035 363.004,944.635 L363.004,950.435 C363.004,951.235 363.604,951.835 364.404,951.835 L364.704,951.835 L368.004,951.135 L368.004,966.035 L370.804,966.035 L370.804,950.535 L379.704,948.735 L379.704,962.835 L382.504,962.835 L382.504,948.135 L386.304,947.435 C386.904,947.335 387.404,946.635 387.404,946.035 L387.404,940.135 C387.404,939.335 386.804,938.735 386.004,938.735 L385.804,938.735 L382.504,939.435 L382.504,922.935 L386.304,922.235 M370.804,941.935 L370.804,925.335 L379.704,923.535 L379.704,940.035 L370.804,941.935 "/>
<path class="KeySig" d="M383.898,1509.77 C384.498,1509.67 384.998,1508.97 384.998,1508.37 L384.998,1502.47 C384.998,1501.67 384.398,1501.07 383.598,1501.07 L383.398,1501.07 L380.098,1501.77 L380.098,1486.87 L377.298,1486.87 L377.298,1502.37 L368.398,1504.17 L368.398,1490.07 L365.598,1490.07 L365.598,1504.77 L361.698,1505.57 C361.098,1505.67 360.598,1506.37 360.598,1506.97 L360.598,1507.17 L360.598,1512.97 L360.598,1512.77 C360.598,1513.57 361.198,1514.17 361.998,1514.17 L362.298,1514.17 L365.598,1513.47 L365.598,1529.97 L361.698,1530.77 C361.098,1530.87 360.598,1531.57 360.598,1532.17 L360.598,1537.97 C360.598,1538.77 361.198,1539.37 361.998,1539.37 L362.298,1539.37 L365.598,1538.67 L365.598,1553.57 L368.398,1553.57 L368.398,1538.07 L377.298,1536.27 L377.298,1550.37 L380.098,1550.37 L380.098,1535.67 L383.898,1534.97 C384.498,1534.87 384.998,1534.17 384.998,1533.57 L384.998,1527.67 C384.998,1526.87 384.398,1526.27 383.598,1526.27 L383.398,1526.27 L380.098,1526.97 L380.098,1510.47 L383.898,1509.77 M368.398,1529.47 L368.398,1512.87 L377.298,1511.07 L377.298,1527.57 L368.398,1529.47 "/>
<path class="KeySig" d="M386.304,634.717 C386.904,634.617 387.404,633.917 387.404,633.317 L387.404,627.417 C387.404,626.617 386.804,626.017 386.004,626.017 L385.804,626.017 L382.504,626.717 L382.504,611.817 L379.704,611.817 L379.704,627.317 L370.804,629.117 L370.804,615.017 L368.004,615.017 L368.004,629.717 L364.104,630.517 C363.504,630.617 363.004,631.317 363.004,631.917 L363.004,632.117 L363.004,637.917 L363.004,637.717 C363.004,638.517 363.604,639.117 364.404,639.117 L364.704,639.117 L368.004,638.417 L368.004,654.917 L364.104,655.717 C363.504,655.817 363.004,656.517 363.004,657.117 L363.004,662.917 C363.004,663.717 363.604,664.317 364.404,664.317 L364.704,664.317 L368.004,663.617 L368.004,678.517 L370.804,678.517 L370.804,663.017 L379.704,661.217 L379.704,675.317 L382.504,675.317 L382.504,660.617 L386.304,659.917 C386.904,659.817 387.404,659.117 387.404,658.517 L387.404,652.617 C387.404,651.817 386.804,651.217 386.004,651.217 L385.804,651.217 L382.504,651.917 L382.504,635.417 L386.304,634.717 M370.804,654.417 L370.804,637.817 L379.704,636.017 L379.704,652.517 L370.804,654.417 "/>
<path class="KeySig" d="M383.898,1247.26 C384.498,1247.16 384.998,1246.46 384.998,1245.86 L384.998,1239.96 C384.998,1239.16 384.398,1238.56 383.598,1238.56 L383.398,1238.56 L380.098,1239.26 L380.098,1224.36 L377.298,1224.36 L377.298,1239.86 L368.398,1241.66 L368.398,1227.56 L365.598,1227.56 L365.598,1242.26 L361.698,1243.06 C361.098,1243.16 360.598,1243.86 360.598,1244.46 L360.598,1244.66 L360.598,1250.46 L360.598,1250.26 C360.598,1251.06 361.198,1251.66 361.998,1251.66 L362.298,1251.66 L365.598,1250.96 L365.598,1267.46 L361.698,1268.26 C361.098,1268.36 360.598,1269.06 360.598,1269.66 L360.598,1275.46 C360.598,1276.26 361.198,1276.86 361.998,1276.86 L362.298,1276.86 L365.598,1276.16 L365.598,1291.06 L368.398,1291.06 L368.398,1275.56 L377.298,1273.76 L377.298,1287.86 L380.098,1287.86 L380.098,1273.16 L383.898,1272.46 C384.498,1272.36 384.998,1271.66 384.998,1271.06 L384.998,1265.16 C384.998,1264.36 384.398,1263.76 383.598,1263.76 L383.398,1263.76 L380.098,1264.46 L380.098,1247.96 L383.898,1247.26 M368.398,1266.96 L368.398,1250.36 L377.298,1248.56 L377.298,1265.06 L368.398,1266.96 "/>
<path class="TimeSig" d="M414.602,946.235 L431.402,946.235 L431.402,953.535 L423.302,953.535 C422.502,953.535 421.902,954.135 421.902,954.935 L421.902,956.835 C421.902,957.635 422.502,958.135 423.302,958.135 L453.002,958.135 C453.802,958.135 454.402,957.635 454.402,956.835 L454.402,954.935 C454.402,954.135 453.802,953.535 453.002,953.535 L444.202,953.535 L444.202,946.235 L453.002,946.235 C453.802,946.235 454.402,945.635 454.402,944.835 L454.402,943.035 C454.402,942.235 453.802,941.635 453.002,941.635 L444.202,941.635 L444.202,925.935 C444.202,925.435 443.802,924.935 443.402,924.735 L442.302,924.135 C442.102,924.035 441.802,924.035 441.602,924.035 C441.302,924.035 440.902,924.135 440.702,924.335 L431.802,932.535 C431.602,932.735 431.402,933.235 431.402,933.535 L431.402,941.635 L420.102,941.635 C420.102,941.635 431.002,929.835 442.602,914.335 C443.402,913.235 443.002,912.235 442.802,912.035 L440.702,909.835 C440.502,909.635 440.002,909.435 439.702,909.435 L425.102,909.435 C424.402,909.435 423.902,910.035 423.802,910.635 C423.802,910.635 423.302,917.835 420.702,925.835 C418.102,933.835 415.302,938.635 412.702,942.235 C412.702,942.235 412.202,943.235 412.502,943.935 C412.802,944.635 413.502,945.735 413.502,945.735 C413.502,945.735 413.802,946.235 414.602,946.235"/>
<path class="TimeSig" d="M414.602,994.839 L431.402,994.839 L431.402,1002.14 L423.302,1002.14 C422.502,1002.14 421.902,1002.74 421.902,1003.54 L421.902,1005.44 C421.902,1006.24 422.502,1006.74 423.302,1006.74 L453.002,1006.74 C453.802,1006.74 454.402,1006.24 454.402,1005.44 L454.402,1003.54 C454.402,1002.74 453.802,1002.14 453.002,1002.14 L444.202,1002.14 L444.202,994.839 L453.002,994.839 C453.802,994.839 454.402,994.239 454.402,993.439 L454.402,991.639 C454.402,990.839 453.802,990.239 453.002,990.239 L444.202,990.239 L444.202,974.539 C444.202,974.039 443.802,973.539 443.402,973.339 L442.302,972.739 C442.102,972.639 441.802,972.639 441.602,972.639 C441.302,972.639 440.902,972.739 440.702,972.939 L431.802,981.139 C431.602,981.339 431.402,981.839 431.402,982.139 L431.402,990.239 L420.102,990.239 C420.102,990.239 431.002,978.439 442.602,962.939 C443.402,961.839 443.002,960.839 442.802,960.639 L440.702,958.439 C440.502,958.239 440.002,958.039 439.702,958.039 L425.102,958.039 C424.402,958.039 423.902,958.639 423.802,959.239 C423.802,959.239 423.302,966.439 420.702,974.439 C418.102,982.439 415.302,987.239 412.702,990.839 C412.702,990.839 412.202,991.839 412.502,992.539 C412.802,993.239 413.502,994.339 413.502,994.339 C413.502,994.339 413.802,994.839 414.602,994.839"/>
<path class="TimeSig" d="M414.602,683.718 L431.402,683.718 L431.402,691.018 L423.302,691.018 C422.502,691.018 421.902,691.618 421.902,692.418 L421.902,694.318 C421.902,695.118 422.502,695.618 423.302,695.618 L453.002,695.618 C453.802,695.618 454.402,695.118 454.402,694.318 L454.402,692.418 C454.402,691.618 453.802,691.018 453.002,691.018 L444.202,691.018 L444.202,683.718 L453.002,683.718 C453.802,683.718 454.402,683.118 454.402,682.318 L454.402,680.518 C454.402,679.718 453.802,679.118 453.002,679.118 L444.202,679.118 L444.202,663.418 C444.202,662.918 443.802,662.418 443.402,662.218 L442.302,661.618 C442.102,661.518 441.802,661.518 441.602,661.518 C441.302,661.518 440.902,661.618 440.702,661.818 L431.802,670.018 C431.602,670.218 431.402,670.718 431.402,671.018 L431.402,679.118 L420.102,679.118 C420.102,679.118 431.002,667.318 442.602,651.818 C443.402,650.718 443.002,649.718 442.802,649.518 L440.702,647.318 C440.502,647.118 440.002,646.918 439.702,646.918 L425.102,646.918 C424.402,646.918 423.902,647.518 423.802,648.118 C423.802,648.118 423.302,655.318 420.702,663.318 C418.102,671.318 415.302,676.118 412.702,679.718 C412.702,679.718 412.202,680.718 412.502,681.418 C412.802,682.118 413.502,683.218 413.502,683.218 C413.502,683.218 413.802,683.718 414.602,683.718"/>
<path class="TimeSig" d="M414.602,732.323 L431.402,732.323 L431.402,739.623 L423.302,739.623 C422.502,739.623 421.902,740.223 421.902,741.023 L421.902,742.923 C421.902,743.723 422.502,744.223 423.302,744.223 L453.002,744.223 C453.802,744.223 454.402,743.723 454.402,742.923 L454.402,741.023 C454.402,740.223 453.802,739.623 453.002,739.623 L444.202,739.623 L444.202,732.323 L453.002,732.323 C453.802,732.323 454.402,731.723 454.402,730.923 L454.402,729.123 C454.402,728.323 453.802,727.723 453.002,727.723 L444.202,727.723 L444.202,712.023 C444.202,711.523 443.802,711.023 443.402,710.823 L442.302,710.223 C442.102,710.123 441.802,710.123 441.602,710.123 C441.302,710.123 440.902,710.223 440.702,710.423 L431.802,718.623 C431.602,718.823 431.402,719.323 431.402,719.623 L431.402,727.723 L420.102,727.723 C420.102,727.723 431.002,715.923 442.602,700.423 C443.402,699.323 443.002,698.323 442.802,698.123 L440.702,695.923 C440.502,695.723 440.002,695.523 439.702,695.523 L425.102,695.523 C424.402,695.523 423.902,696.123 423.802,696.723 C423.802,696.723 423.302,703.923 420.702,711.923 C418.102,719.923 415.302,724.723 412.702,728.323 C412.702,728.323 412.202,729.323 412.502,730.023 C412.802,730.723 413.502,731.823 413.502,731.823 C413.502,731.823 413.802,732.323 414.602,732.323"/>
<path class="NoteDot" d="M2476.26,1557.87 C2476.26,1560.47 2478.36,1562.57 2480.96,1562.57 C2483.55,1562.57 2485.66,1560.47 2485.66,1557.87 C2485.66,1555.28 2483.55,1553.17 2480.96,1553.17 C2478.36,1553.17 2476.26,1555.28 2476.26,1557.87"/>
<path class="NoteDot" d="M2476.26,1345.36 C2476.26,1347.96 2478.36,1350.06 2480.96,1350.06 C2483.55,1350.06 2485.66,1347.96 2485.66,1345.36 C2485.66,1342.77 2483.55,1340.66 2480.96,1340.66 C2478.36,1340.66 2476.26,1342.77 2476.26,1345.36"/>
<path class="Page" d="M222.584,4034.43 C221.054,4036.28 216.914,4037.67 212.774,4037.76 L212.774,4039.7 L216.734,4039.7 C219.344,4039.74 219.614,4040.01 219.524,4042.53 L219.524,4060.58 C219.524,4062.87 219.524,4062.96 219.254,4063.37 C218.894,4063.82 218.039,4064 215.519,4064 L212.594,4064 L212.594,4066.11 L230.414,4066.11 L230.414,4064 L227.939,4064 C225.419,4064 224.564,4063.82 224.204,4063.37 C223.889,4062.96 223.889,4062.92 223.889,4060.58 L223.889,4041.99 C223.889,4039.47 223.979,4037.36 224.204,4034.43 L222.584,4034.43 M235.764,4045.32 L237.744,4045.64 L238.554,4042.08 C239.229,4039.11 239.544,4038.66 240.849,4038.66 C241.074,4038.66 241.434,4038.66 241.839,4038.71 C247.374,4038.98 247.374,4038.98 249.444,4038.98 C250.029,4038.98 251.064,4038.98 252.324,4038.93 L249.264,4045.1 C245.934,4051.71 245.529,4052.52 244.404,4055.31 C243.009,4058.69 242.289,4061.52 242.289,4063.41 C242.289,4065.48 243.369,4066.74 245.124,4066.74 C247.284,4066.74 248.139,4065.3 248.094,4061.39 C247.869,4054.91 248.679,4051.76 253.494,4041.23 C254.169,4039.79 254.844,4038.39 255.519,4037 C255.564,4036.91 255.699,4036.5 255.969,4035.92 L255.969,4034.61 C253.269,4034.84 251.829,4034.93 249.039,4034.93 C245.124,4034.93 242.019,4034.79 237.159,4034.43 L235.764,4045.32 "/>
<path class="Bracket" transform="matrix(3.62523,0,0,3.62523,214.469,1007.84)" d="M0.92002,-50 C2.69004,-51.88 6.2,-55.8 6.2,-63 C6.2,-72.1 2.25996,-81.32 2.25996,-86.97 C2.25996,-93.06 5.84004,-98.84 5.95,-99 C6.05996,-99.16 6.05,-99.39 5.94004,-99.46 C5.82998,-99.53 5.62002,-99.47 5.49004,-99.32 C5.35996,-99.17 0,-93.75 0,-85.6 C0,-76.75 3.5,-70.58 3.5,-59.07 C3.5,-56.89 2.55996,-53.36 0.1,-50.33 C-0.0799805,-50.17 -0.1,-49.89 0.0599609,-49.7 L0.0700195,-49.69 L0.1,-49.66 C2.55996,-46.63 3.5,-43.1 3.5,-40.92 C3.5,-29.4 0,-23.24 0,-14.39 C0,-6.25 5.35996,-0.8 5.49004,-0.659961 C5.62002,-0.52002 5.8,-0.42998 5.94004,-0.52002 C6.07998,-0.609961 6.07998,-0.77998 5.95,-0.97998 C5.82002,-1.17998 2.25996,-6.92002 2.25996,-13.01 C2.25996,-18.66 6.2,-27.9 6.2,-37 C6.2,-44.3 2.69004,-48.12 0.92002,-50"/>
<path class="Bracket" transform="matrix(3.62523,0,0,3.62523,214.469,1620.38)" d="M0.92002,-50 C2.69004,-51.88 6.2,-55.8 6.2,-63 C6.2,-72.1 2.25996,-81.32 2.25996,-86.97 C2.25996,-93.06 5.84004,-98.84 5.95,-99 C6.05996,-99.16 6.05,-99.39 5.94004,-99.46 C5.82998,-99.53 5.62002,-99.47 5.49004,-99.32 C5.35996,-99.17 0,-93.75 0,-85.6 C0,-76.75 3.5,-70.58 3.5,-59.07 C3.5,-56.89 2.55996,-53.36 0.1,-50.33 C-0.0799805,-50.17 -0.1,-49.89 0.0599609,-49.7 L0.0700195,-49.69 L0.1,-49.66 C2.55996,-46.63 3.5,-43.1 3.5,-40.92 C3.5,-29.4 0,-23.24 0,-14.39 C0,-6.25 5.35996,-0.8 5.49004,-0.659961 C5.62002,-0.52002 5.8,-0.42998 5.94004,-0.52002 C6.07998,-0.609961 6.07998,-0.77998 5.95,-0.97998 C5.82002,-1.17998 2.25996,-6.92002 2.25996,-13.01 C2.25996,-18.66 6.2,-27.9 6.2,-37 C6.2,-44.3 2.69004,-48.12 0.92002,-50"/>
</svg>