<?xml version="1.0" encoding="UTF-8" standalone="no"?>
<svg width="1000px" height="500px" viewBox="150 650 2700 1000" xmlns="http://www.w3.org/2000/svg" xmlns:xlink="http://www.w3.org/1999/xlink" version="1.2" baseProfile="tiny">
 xmlns="http://www.w3.org/2000/svg" xmlns:xlink="http://www.w3.org/1999/xlink" version="1.2" baseProfile="tiny">
<title>exercises_scores (12)</title>
<desc>Generated by MuseScore 3.6.0</desc>
<polyline class="StaffLines" fill="none" stroke="#000000" stroke-width="2.75" stroke-linejoin="bevel" points="247.099,659.598 2764.63,659.598"/>
<polyline class="StaffLines" fill="none" stroke="#000000" stroke-width="2.75" stroke-linejoin="bevel" points="247.099,684.6 2764.63,684.6"/>
<polyline class="StaffLines" fill="none" stroke="#000000" stroke-width="2.75" stroke-linejoin="bevel" points="247.099,709.602 2764.63,709.602"/>
<polyline class="StaffLines" fill="none" stroke="#000000" stroke-width="2.75" stroke-linejoin="bevel" points="247.099,734.603 2764.63,734.603"/>
<polyline class="StaffLines" fill="none" stroke="#000000" stroke-width="2.75" stroke-linejoin="bevel" points="247.099,759.605 2764.63,759.605"/>
<polyline class="StaffLines" fill="none" stroke="#000000" stroke-width="2.75" stroke-linejoin="bevel" points="247.099,922.115 2764.63,922.115"/>
<polyline class="StaffLines" fill="none" stroke="#000000" stroke-width="2.75" stroke-linejoin="bevel" points="247.099,947.117 2764.63,947.117"/>
<polyline class="StaffLines" fill="none" stroke="#000000" stroke-width="2.75" stroke-linejoin="bevel" points="247.099,972.118 2764.63,972.118"/>
<polyline class="StaffLines" fill="none" stroke="#000000" stroke-width="2.75" stroke-linejoin="bevel" points="247.099,997.12 2764.63,997.12"/>
<polyline class="StaffLines" fill="none" stroke="#000000" stroke-width="2.75" stroke-linejoin="bevel" points="247.099,1022.12 2764.63,1022.12"/>
<polyline class="StaffLines" fill="none" stroke="#000000" stroke-width="2.75" stroke-linejoin="bevel" points="247.099,1272.14 2764.63,1272.14"/>
<polyline class="StaffLines" fill="none" stroke="#000000" stroke-width="2.75" stroke-linejoin="bevel" points="247.099,1297.14 2764.63,1297.14"/>
<polyline class="StaffLines" fill="none" stroke="#000000" stroke-width="2.75" stroke-linejoin="bevel" points="247.099,1322.14 2764.63,1322.14"/>
<polyline class="StaffLines" fill="none" stroke="#000000" stroke-width="2.75" stroke-linejoin="bevel" points="247.099,1347.14 2764.63,1347.14"/>
<polyline class="StaffLines" fill="none" stroke="#000000" stroke-width="2.75" stroke-linejoin="bevel" points="247.099,1372.14 2764.63,1372.14"/>
<polyline class="StaffLines" fill="none" stroke="#000000" stroke-width="2.75" stroke-linejoin="bevel" points="247.099,1534.65 2764.63,1534.65"/>
<polyline class="StaffLines" fill="none" stroke="#000000" stroke-width="2.75" stroke-linejoin="bevel" points="247.099,1559.66 2764.63,1559.66"/>
<polyline class="StaffLines" fill="none" stroke="#000000" stroke-width="2.75" stroke-linejoin="bevel" points="247.099,1584.66 2764.63,1584.66"/>
<polyline class="StaffLines" fill="none" stroke="#000000" stroke-width="2.75" stroke-linejoin="bevel" points="247.099,1609.66 2764.63,1609.66"/>
<polyline class="StaffLines" fill="none" stroke="#000000" stroke-width="2.75" stroke-linejoin="bevel" points="247.099,1634.66 2764.63,1634.66"/>
<path class="Text" d="M242.312,216.2 L240.092,216.2 L237.692,219.8 C234.812,217.1 231.032,215.66 226.772,215.66 C218.852,215.66 213.632,220.64 213.632,228.2 C213.632,234.74 216.872,237.98 225.692,240.26 L231.392,241.7 C235.832,242.84 236.252,242.96 237.512,243.92 C239.312,245.3 240.272,247.28 240.272,249.62 C240.272,252.02 239.372,254 237.572,255.68 C235.592,257.36 233.612,258.02 230.312,258.02 C225.872,258.02 222.692,256.64 219.872,253.52 C217.352,250.76 216.092,247.88 215.192,243.26 L212.612,243.26 L212.852,260.36 L215.192,260.36 L217.892,256.28 C221.912,259.58 225.212,260.78 230.492,260.78 C239.312,260.78 244.952,255.62 244.952,247.58 C244.952,243.8 243.752,240.68 241.352,238.4 C239.732,236.84 237.392,235.82 232.592,234.62 L226.172,233 C220.832,231.62 218.312,229.28 218.312,225.62 C218.312,221.42 221.732,218.54 226.832,218.54 C231.032,218.54 234.452,220.34 236.852,223.76 C238.592,226.22 239.732,228.74 240.452,231.8 L243.032,231.8 L242.312,216.2 M271.162,251.06 C269.242,255.38 267.202,257.12 264.082,257.12 C259.282,257.12 256.282,252.74 256.282,245.72 C256.282,238.4 259.222,233.6 263.662,233.6 C265.462,233.6 267.022,234.44 267.022,235.4 C267.022,235.58 266.962,235.76 266.662,236.12 C265.702,237.26 265.462,237.86 265.462,238.88 C265.462,240.86 266.962,242.24 269.062,242.24 C271.222,242.24 272.722,240.56 272.722,238.16 C272.722,234.08 268.702,231.02 263.362,231.02 C255.562,231.02 249.982,237.38 249.982,246.38 C249.982,254.9 255.082,260.78 262.522,260.78 C267.862,260.78 270.922,258.32 273.502,251.96 L271.162,251.06 M301.75,240.56 C301.75,236.78 301.09,234.86 299.35,233.42 C297.37,231.8 294.43,231.02 290.59,231.02 C283.81,231.02 278.89,234.2 278.89,238.58 C278.89,240.8 280.27,242.24 282.37,242.24 C284.29,242.24 285.61,240.98 285.61,239.18 C285.61,238.4 285.31,237.56 284.71,236.72 C284.35,236.3 284.29,236.18 284.29,235.88 C284.29,234.68 286.69,233.6 289.57,233.6 C291.49,233.6 293.59,234.2 294.55,235.1 C295.69,236.06 296.11,237.5 296.11,240.2 L296.11,242.54 C289.87,243.62 287.89,244.1 284.95,245.24 C279.73,247.16 277.27,249.92 277.27,253.76 C277.27,258.08 280.63,260.78 285.97,260.78 C290.11,260.78 293.83,259.1 296.41,256.04 C297.37,259.1 298.87,260.3 301.69,260.3 C304.39,260.3 307.21,258.56 307.21,256.82 C307.21,256.4 306.97,256.1 306.61,256.1 C306.37,256.1 306.13,256.16 305.71,256.34 C304.87,256.7 304.51,256.76 304.03,256.76 C302.35,256.76 301.75,255.68 301.75,252.62 L301.75,240.56 M296.11,247.88 C296.11,251.48 295.93,252.32 294.91,253.88 C293.41,256.1 290.71,257.6 288.07,257.6 C285.31,257.6 283.33,255.62 283.33,252.92 C283.33,250.4 284.59,248.6 287.23,247.34 C289.09,246.5 291.43,245.9 296.11,245.12 L296.11,247.88 M320.229,215.66 L309.129,216.32 L309.129,218.9 L312.069,218.9 C314.289,218.96 314.589,219.32 314.589,221.9 L314.589,252.5 L314.589,255.32 C314.529,256.22 314.469,256.58 314.229,256.88 C313.809,257.42 312.669,257.66 310.089,257.72 L309.669,257.72 L309.669,259.88 L325.209,259.88 L325.209,257.72 L324.789,257.72 C320.769,257.6 320.229,257.3 320.229,255.14 L320.229,252.5 L320.229,215.66 M354.78,246.38 C354.84,237.38 349.74,231.02 342.42,231.02 C334.74,231.02 328.98,237.68 328.98,246.68 C328.98,255.14 334.44,260.78 342.54,260.78 C348.3,260.78 352.32,257.96 354.78,252.26 L352.68,251.12 C350.22,255.74 347.7,257.54 343.68,257.54 C340.62,257.54 338.4,256.28 336.84,253.58 C335.76,251.78 335.28,249.68 335.34,246.38 L354.78,246.38 M335.4,243.8 C335.4,241.94 335.64,240.62 336.24,238.94 C337.5,235.34 339.42,233.6 342.36,233.6 C345.96,233.6 348.36,236.78 348.36,241.64 C348.36,243.32 347.82,243.8 345.9,243.8 L335.4,243.8 M366.601,253.22 C364.501,253.22 362.821,254.9 362.821,256.94 C362.821,259.04 364.501,260.72 366.541,260.72 C368.641,260.72 370.321,259.04 370.321,256.94 C370.321,254.9 368.641,253.22 366.601,253.22 M366.601,231.5 C364.501,231.5 362.821,233.18 362.821,235.28 C362.821,237.32 364.501,239 366.541,239 C368.641,239 370.321,237.32 370.321,235.22 C370.321,233.18 368.641,231.5 366.601,231.5 M413.685,215.72 L411.165,215.72 L397.365,250.7 C395.745,255.38 394.185,256.82 390.765,257.06 L390.525,257.06 L390.525,259.88 L406.425,259.88 L406.425,257.06 L405.225,257.06 C401.985,257.06 400.365,255.92 400.365,253.64 C400.365,252.86 400.545,252.14 400.905,251.12 L402.885,245.84 L418.785,245.84 L422.025,253.88 C422.385,254.84 422.505,255.2 422.505,255.5 C422.505,256.46 421.005,257.06 418.785,257.06 L416.265,257.06 L416.265,259.88 L434.865,259.88 L434.865,257.06 L434.025,257.06 C430.905,257 430.365,256.64 428.985,253.22 L413.685,215.72 M410.745,225.56 L417.525,242.6 L404.085,242.6 L410.745,225.56 M454.237,242.18 C453.757,239.06 451.909,236.18 447.829,236.18 C443.749,236.18 441.595,238.622 441.199,239.096 L441.469,213.71 C441.469,213.706 441.469,213.701 441.469,213.698 C441.469,213.092 440.977,212.6 440.371,212.6 L440.371,212.6 L439.435,212.6 C439.183,212.601 438.834,212.746 438.655,212.924 C438.48,213.098 438.337,213.441 438.337,213.689 C438.337,213.695 438.337,213.704 438.337,213.71 L438.763,261.314 C438.77,261.913 439.262,262.4 439.861,262.4 L439.861,262.4 C440.055,262.399 440.34,262.308 440.497,262.196 C440.809,262.046 445.885,259.55 450.193,254.702 C453.871,250.568 454.837,245.72 454.237,242.18 M448.807,245.324 C448.801,246.482 448.513,250.166 446.509,253.166 C445.135,255.224 442.501,257.396 440.989,258.554 L441.157,243.104 C441.337,242.36 442.531,240.086 445.711,240.098 C449.185,240.11 448.807,244.166 448.807,245.324 M487.049,231.92 L476.369,232.58 L476.369,235.16 L478.829,235.16 C481.109,235.22 481.409,235.58 481.409,238.16 L481.409,252.5 L481.409,254.84 L481.409,255.32 C481.349,256.22 481.289,256.58 481.049,256.88 C480.629,257.42 479.489,257.66 476.909,257.72 L476.669,257.72 L476.669,259.88 L491.789,259.88 L491.789,257.72 L491.549,257.72 C487.589,257.6 487.049,257.3 487.049,255.08 L487.049,252.5 L487.049,243.98 C487.049,238.64 489.989,234.68 493.889,234.68 C497.309,234.68 499.049,237.14 499.049,242 L499.049,252.5 L499.049,255.38 C498.989,256.16 498.929,256.58 498.629,256.88 C498.269,257.42 497.069,257.66 494.489,257.72 L494.249,257.72 L494.249,259.88 L509.429,259.88 L509.429,257.72 L509.189,257.72 C505.229,257.6 504.689,257.3 504.689,255.14 L504.689,252.5 L504.689,244.52 C504.689,238.52 507.389,234.68 511.589,234.68 C515.009,234.68 516.689,237.26 516.689,242.66 L516.689,252.5 L516.689,255.32 C516.629,256.16 516.569,256.58 516.269,256.88 C515.909,257.42 514.709,257.66 512.129,257.72 L511.889,257.72 L511.889,259.88 L527.069,259.88 L527.069,257.72 L526.829,257.72 C522.869,257.6 522.329,257.3 522.329,255.08 L522.329,252.5 L522.329,241.46 C522.329,237.74 521.969,236.48 520.409,234.44 C518.669,232.22 516.209,231.02 513.329,231.02 C509.429,231.02 506.549,232.88 503.969,237.02 C502.949,233.42 499.709,231.02 495.689,231.02 C492.029,231.02 489.389,232.76 487.049,236.54 L487.049,231.92 M555.437,240.56 C555.437,236.78 554.777,234.86 553.037,233.42 C551.057,231.8 548.117,231.02 544.277,231.02 C537.497,231.02 532.577,234.2 532.577,238.58 C532.577,240.8 533.957,242.24 536.057,242.24 C537.977,242.24 539.297,240.98 539.297,239.18 C539.297,238.4 538.997,237.56 538.397,236.72 C538.037,236.3 537.977,236.18 537.977,235.88 C537.977,234.68 540.377,233.6 543.257,233.6 C545.177,233.6 547.277,234.2 548.237,235.1 C549.377,236.06 549.797,237.5 549.797,240.2 L549.797,242.54 C543.557,243.62 541.577,244.1 538.637,245.24 C533.417,247.16 530.957,249.92 530.957,253.76 C530.957,258.08 534.317,260.78 539.657,260.78 C543.797,260.78 547.517,259.1 550.097,256.04 C551.057,259.1 552.557,260.3 555.377,260.3 C558.077,260.3 560.897,258.56 560.897,256.82 C560.897,256.4 560.657,256.1 560.297,256.1 C560.057,256.1 559.817,256.16 559.397,256.34 C558.557,256.7 558.197,256.76 557.717,256.76 C556.037,256.76 555.437,255.68 555.437,252.62 L555.437,240.56 M549.797,247.88 C549.797,251.48 549.617,252.32 548.597,253.88 C547.097,256.1 544.397,257.6 541.757,257.6 C538.997,257.6 537.017,255.62 537.017,252.92 C537.017,250.4 538.277,248.6 540.917,247.34 C542.777,246.5 545.117,245.9 549.797,245.12 L549.797,247.88 M572.362,231.92 L560.662,232.58 L560.662,235.16 L564.142,235.16 C566.422,235.22 566.722,235.58 566.722,238.16 L566.722,258.5 C566.722,263.36 566.422,265.64 565.582,267.38 C564.982,268.58 563.602,269.48 562.282,269.48 C561.442,269.48 560.782,269.12 560.782,268.7 C560.782,268.46 560.842,268.34 561.082,267.74 C561.382,267.14 561.502,266.72 561.502,266.3 C561.502,264.8 560.062,263.48 558.382,263.48 C556.462,263.48 555.022,264.98 555.022,267.08 C555.022,270.02 557.722,272 561.742,272 C565.102,272 568.162,270.56 569.902,268.1 C571.762,265.46 572.362,262.4 572.362,255.62 L572.362,231.92 M569.542,216.98 C567.622,216.98 566.062,218.54 566.062,220.46 C566.062,222.38 567.622,223.94 569.482,223.94 C571.462,223.94 573.022,222.38 573.022,220.46 C573.022,218.54 571.462,216.98 569.542,216.98 M592.812,231.02 C585.432,231.02 579.732,237.56 579.732,245.96 C579.732,254.18 585.492,260.78 592.692,260.78 C599.892,260.78 605.652,254.18 605.652,245.9 C605.652,237.68 599.892,231.02 592.812,231.02 M592.812,233.6 C597.012,233.6 599.352,237.98 599.352,245.9 C599.352,253.88 597.012,258.2 592.692,258.2 C588.372,258.2 586.032,253.88 586.032,245.96 C586.032,237.8 588.312,233.6 592.812,233.6 M619.572,231.92 L608.952,232.58 L608.952,235.16 L611.412,235.16 C613.692,235.22 613.992,235.58 613.992,238.16 L613.992,252.5 L613.992,255.32 C613.932,256.22 613.872,256.58 613.632,256.88 C613.212,257.42 612.012,257.66 609.432,257.72 L609.192,257.72 L609.192,259.88 L625.212,259.88 L625.212,257.72 L624.132,257.72 C620.112,257.6 619.572,257.3 619.572,255.14 L619.572,252.5 L619.572,251.9 C619.632,241.82 623.232,234.14 627.912,233.9 C627.072,234.86 626.832,235.46 626.832,236.6 C626.832,238.52 628.212,239.9 630.132,239.9 C632.352,239.9 633.792,238.28 633.792,235.88 C633.792,232.94 631.752,231.02 628.572,231.02 C624.792,231.02 621.552,234.02 619.572,239.36 L619.572,231.92 "/>
<polyline class="BarLine" fill="none" stroke="#000000" stroke-width="4.50" stroke-linejoin="bevel" points="249.349,920.74 249.349,1023.5"/>
<polyline class="BarLine" fill="none" stroke="#000000" stroke-width="4.50" stroke-linejoin="bevel" points="1119.14,920.74 1119.14,1023.5"/>
<polyline class="BarLine" fill="none" stroke="#000000" stroke-width="4.50" stroke-linejoin="bevel" points="1636.47,920.74 1636.47,1023.5"/>
<polyline class="BarLine" fill="none" stroke="#000000" stroke-width="4.50" stroke-linejoin="bevel" points="2278.04,920.74 2278.04,1023.5"/>
<polyline class="BarLine" fill="none" stroke="#000000" stroke-width="4.50" stroke-linejoin="bevel" points="2762.38,920.74 2762.38,1023.5"/>
<polyline class="BarLine" fill="none" stroke="#000000" stroke-width="4.50" stroke-linejoin="bevel" points="249.349,1533.28 249.349,1636.04"/>
<polyline class="BarLine" fill="none" stroke="#000000" stroke-width="4.50" stroke-linejoin="bevel" points="1027.35,1533.28 1027.35,1636.04"/>
<polyline class="BarLine" fill="none" stroke="#000000" stroke-width="4.50" stroke-linejoin="bevel" points="1667.95,1533.28 1667.95,1636.04"/>
<polyline class="BarLine" fill="none" stroke="#000000" stroke-width="4.50" stroke-linejoin="bevel" points="2222.14,1533.28 2222.14,1636.04"/>
<polyline class="BarLine" fill="none" stroke="#000000" stroke-width="4.50" stroke-linejoin="bevel" points="2734.88,1533.28 2734.88,1636.04"/>
<polyline class="BarLine" fill="none" stroke="#000000" stroke-width="13.75" stroke-linejoin="bevel" points="2757.76,1533.28 2757.76,1636.04"/>
<polyline class="BarLine" fill="none" stroke="#000000" stroke-width="4.50" stroke-linejoin="bevel" points="249.349,658.223 249.349,922.115"/>
<polyline class="BarLine" fill="none" stroke="#000000" stroke-width="4.50" stroke-linejoin="bevel" points="1119.14,658.223 1119.14,922.115"/>
<polyline class="BarLine" fill="none" stroke="#000000" stroke-width="4.50" stroke-linejoin="bevel" points="1636.47,658.223 1636.47,922.115"/>
<polyline class="BarLine" fill="none" stroke="#000000" stroke-width="4.50" stroke-linejoin="bevel" points="2278.04,658.223 2278.04,922.115"/>
<polyline class="BarLine" fill="none" stroke="#000000" stroke-width="4.50" stroke-linejoin="bevel" points="2762.38,658.223 2762.38,922.115"/>
<polyline class="BarLine" fill="none" stroke="#000000" stroke-width="4.50" stroke-linejoin="bevel" points="249.349,1270.76 249.349,1534.65"/>
<polyline class="BarLine" fill="none" stroke="#000000" stroke-width="4.50" stroke-linejoin="bevel" points="1027.35,1270.76 1027.35,1534.65"/>
<polyline class="BarLine" fill="none" stroke="#000000" stroke-width="4.50" stroke-linejoin="bevel" points="1667.95,1270.76 1667.95,1534.65"/>
<polyline class="BarLine" fill="none" stroke="#000000" stroke-width="4.50" stroke-linejoin="bevel" points="2222.14,1270.76 2222.14,1534.65"/>
<polyline class="BarLine" fill="none" stroke="#000000" stroke-width="4.50" stroke-linejoin="bevel" points="2734.88,1270.76 2734.88,1534.65"/>
<polyline class="BarLine" fill="none" stroke="#000000" stroke-width="13.75" stroke-linejoin="bevel" points="2757.76,1270.76 2757.76,1534.65"/>
<polyline class="LedgerLine" fill="none" stroke="#000000" stroke-width="4.00" stroke-linejoin="bevel" points="1755.22,1047.12 1805.21,1047.12"/>
<polyline class="LedgerLine" fill="none" stroke="#000000" stroke-width="4.00" stroke-linejoin="bevel" points="1883.17,1047.12 1933.17,1047.12"/>
<polyline class="LedgerLine" fill="none" stroke="#000000" stroke-width="4.00" stroke-linejoin="bevel" points="1139.75,1509.65 1189.75,1509.65"/>
<polyline class="LedgerLine" fill="none" stroke="#000000" stroke-width="4.00" stroke-linejoin="bevel" points="575.307,809.608 625.302,809.608"/>
<polyline class="LedgerLine" fill="none" stroke="#000000" stroke-width="4.00" stroke-linejoin="bevel" points="575.307,784.606 625.302,784.606"/>
<polyline class="LedgerLine" fill="none" stroke="#000000" stroke-width="4.00" stroke-linejoin="bevel" points="708.514,784.606 758.51,784.606"/>
<polyline class="LedgerLine" fill="none" stroke="#000000" stroke-width="4.00" stroke-linejoin="bevel" points="841.722,784.606 891.717,784.606"/>
<polyline class="LedgerLine" fill="none" stroke="#000000" stroke-width="4.00" stroke-linejoin="bevel" points="2552.57,634.597 2602.56,634.597"/>
<polyline class="LedgerLine" fill="none" stroke="#000000" stroke-width="4.00" stroke-linejoin="bevel" points="2081.84,1397.14 2131.84,1397.14"/>
<polyline class="LedgerLine" fill="none" stroke="#000000" stroke-width="4.00" stroke-linejoin="bevel" points="2256.89,1397.14 2306.89,1397.14"/>
<polyline class="LedgerLine" fill="none" stroke="#000000" stroke-width="4.00" stroke-linejoin="bevel" points="2415.14,1422.15 2465.14,1422.15"/>
<polyline class="LedgerLine" fill="none" stroke="#000000" stroke-width="4.00" stroke-linejoin="bevel" points="2415.14,1397.14 2465.14,1397.14"/>
<polyline class="Stem" fill="none" stroke="#000000" stroke-width="2.75" stroke-linejoin="bevel" points="615.176,1006.26 615.176,922.115"/>
<polyline class="Stem" fill="none" stroke="#000000" stroke-width="2.75" stroke-linejoin="bevel" points="748.384,993.76 748.384,912.739"/>
<polyline class="Stem" fill="none" stroke="#000000" stroke-width="2.75" stroke-linejoin="bevel" points="881.591,981.259 881.591,903.364"/>
<polyline class="Stem" fill="none" stroke="#000000" stroke-width="2.75" stroke-linejoin="bevel" points="985.055,975.638 985.055,1050.25"/>
<polyline class="Stem" fill="none" stroke="#000000" stroke-width="2.75" stroke-linejoin="bevel" points="1155.26,963.138 1155.26,1040.87"/>
<polyline class="Stem" fill="none" stroke="#000000" stroke-width="2.75" stroke-linejoin="bevel" points="1275.35,950.637 1275.35,1031.5"/>
<polyline class="Stem" fill="none" stroke="#000000" stroke-width="2.75" stroke-linejoin="bevel" points="1395.43,938.136 1395.43,1022.12"/>
<polyline class="Stem" fill="none" stroke="#000000" stroke-width="2.75" stroke-linejoin="bevel" points="1515.51,925.635 1515.51,1009.62"/>
<polyline class="Stem" fill="none" stroke="#000000" stroke-width="2.75" stroke-linejoin="bevel" points="1795.09,1056.26 1795.09,972.118"/>
<polyline class="Stem" fill="none" stroke="#000000" stroke-width="2.75" stroke-linejoin="bevel" points="1923.04,1043.76 1923.04,959.617"/>
<polyline class="Stem" fill="none" stroke="#000000" stroke-width="2.75" stroke-linejoin="bevel" points="2051,1031.26 2051,947.117"/>
<polyline class="Stem" fill="none" stroke="#000000" stroke-width="2.75" stroke-linejoin="bevel" points="2178.96,1018.76 2178.96,934.616"/>
<polyline class="Stem" fill="none" stroke="#000000" stroke-width="2.75" stroke-linejoin="bevel" points="2343.92,1006.26 2343.92,922.115"/>
<polyline class="Stem" fill="none" stroke="#000000" stroke-width="2.75" stroke-linejoin="bevel" points="2468.18,993.76 2468.18,912.739"/>
<polyline class="Stem" fill="none" stroke="#000000" stroke-width="2.75" stroke-linejoin="bevel" points="2592.44,981.179 2592.44,903.364"/>
<polyline class="Stem" fill="none" stroke="#000000" stroke-width="2.75" stroke-linejoin="bevel" points="549.524,1606.3 549.524,1525.28"/>
<polyline class="Stem" fill="none" stroke="#000000" stroke-width="2.75" stroke-linejoin="bevel" points="676.197,1618.8 676.197,1534.65"/>
<polyline class="Stem" fill="none" stroke="#000000" stroke-width="2.75" stroke-linejoin="bevel" points="802.87,1631.3 802.87,1547.15"/>
<polyline class="Stem" fill="none" stroke="#000000" stroke-width="2.75" stroke-linejoin="bevel" points="929.543,1643.8 929.543,1559.66"/>
<polyline class="Stem" fill="none" stroke="#000000" stroke-width="2.75" stroke-linejoin="bevel" points="1149.88,1513.17 1149.88,1597.16"/>
<polyline class="Stem" fill="none" stroke="#000000" stroke-width="2.75" stroke-linejoin="bevel" points="1279.18,1525.67 1279.18,1609.66"/>
<polyline class="Stem" fill="none" stroke="#000000" stroke-width="2.75" stroke-linejoin="bevel" points="1408.47,1538.17 1408.47,1622.16"/>
<polyline class="Stem" fill="none" stroke="#000000" stroke-width="2.75" stroke-linejoin="bevel" points="1537.77,1550.67 1537.77,1634.66"/>
<polyline class="Stem" fill="none" stroke="#000000" stroke-width="2.75" stroke-linejoin="bevel" points="1704.07,1563.18 1704.07,1644.04"/>
<polyline class="Stem" fill="none" stroke="#000000" stroke-width="2.75" stroke-linejoin="bevel" points="1833.37,1575.68 1833.37,1653.41"/>
<polyline class="Stem" fill="none" stroke="#000000" stroke-width="2.75" stroke-linejoin="bevel" points="1962.67,1588.18 1962.67,1662.79"/>
<polyline class="Stem" fill="none" stroke="#000000" stroke-width="2.75" stroke-linejoin="bevel" points="2121.71,1593.8 2121.71,1515.9"/>
<polyline class="Stem" fill="none" stroke="#000000" stroke-width="2.75" stroke-linejoin="bevel" points="2296.76,1606.3 2296.76,1525.28"/>
<polyline class="Stem" fill="none" stroke="#000000" stroke-width="2.75" stroke-linejoin="bevel" points="2455.01,1618.72 2455.01,1534.65"/>
<polyline class="Stem" fill="none" stroke="#000000" stroke-width="2.75" stroke-linejoin="bevel" points="615.176,806.248 615.176,709.602"/>
<polyline class="Stem" fill="none" stroke="#000000" stroke-width="2.75" stroke-linejoin="bevel" points="748.384,793.747 748.384,709.602"/>
<polyline class="Stem" fill="none" stroke="#000000" stroke-width="2.75" stroke-linejoin="bevel" points="881.591,781.246 881.591,697.101"/>
<polyline class="Stem" fill="none" stroke="#000000" stroke-width="2.75" stroke-linejoin="bevel" points="1014.8,768.745 1014.8,684.6"/>
<polyline class="Stem" fill="none" stroke="#000000" stroke-width="2.75" stroke-linejoin="bevel" points="1185.01,756.245 1185.01,672.099"/>
<polyline class="Stem" fill="none" stroke="#000000" stroke-width="2.75" stroke-linejoin="bevel" points="1305.09,743.744 1305.09,659.598"/>
<polyline class="Stem" fill="none" stroke="#000000" stroke-width="2.75" stroke-linejoin="bevel" points="1425.17,731.243 1425.17,650.223"/>
<polyline class="Stem" fill="none" stroke="#000000" stroke-width="2.75" stroke-linejoin="bevel" points="1545.25,718.742 1545.25,640.847"/>
<polyline class="Stem" fill="none" stroke="#000000" stroke-width="2.75" stroke-linejoin="bevel" points="1765.34,713.122 1765.34,787.732"/>
<polyline class="Stem" fill="none" stroke="#000000" stroke-width="2.75" stroke-linejoin="bevel" points="1893.3,700.621 1893.3,778.356"/>
<polyline class="Stem" fill="none" stroke="#000000" stroke-width="2.75" stroke-linejoin="bevel" points="2021.26,688.12 2021.26,768.98"/>
<polyline class="Stem" fill="none" stroke="#000000" stroke-width="2.75" stroke-linejoin="bevel" points="2149.21,675.62 2149.21,759.605"/>
<polyline class="Stem" fill="none" stroke="#000000" stroke-width="2.75" stroke-linejoin="bevel" points="2314.17,663.119 2314.17,747.104"/>
<polyline class="Stem" fill="none" stroke="#000000" stroke-width="2.75" stroke-linejoin="bevel" points="2438.43,650.618 2438.43,734.603"/>
<polyline class="Stem" fill="none" stroke="#000000" stroke-width="2.75" stroke-linejoin="bevel" points="2562.69,638.037 2562.69,722.102"/>
<polyline class="Stem" fill="none" stroke="#000000" stroke-width="2.75" stroke-linejoin="bevel" points="519.78,1263.16 519.78,1347.14"/>
<polyline class="Stem" fill="none" stroke="#000000" stroke-width="2.75" stroke-linejoin="bevel" points="646.453,1275.66 646.453,1359.64"/>
<polyline class="Stem" fill="none" stroke="#000000" stroke-width="2.75" stroke-linejoin="bevel" points="773.126,1288.16 773.126,1372.14"/>
<polyline class="Stem" fill="none" stroke="#000000" stroke-width="2.75" stroke-linejoin="bevel" points="899.799,1300.66 899.799,1381.52"/>
<polyline class="Stem" fill="none" stroke="#000000" stroke-width="2.75" stroke-linejoin="bevel" points="1149.88,1313.16 1149.88,1390.89"/>
<polyline class="Stem" fill="none" stroke="#000000" stroke-width="2.75" stroke-linejoin="bevel" points="1279.18,1325.66 1279.18,1400.27"/>
<polyline class="Stem" fill="none" stroke="#000000" stroke-width="2.75" stroke-linejoin="bevel" points="1438.22,1331.28 1438.22,1253.39"/>
<polyline class="Stem" fill="none" stroke="#000000" stroke-width="2.75" stroke-linejoin="bevel" points="1567.52,1343.78 1567.52,1262.76"/>
<polyline class="Stem" fill="none" stroke="#000000" stroke-width="2.75" stroke-linejoin="bevel" points="1733.82,1356.28 1733.82,1272.14"/>
<polyline class="Stem" fill="none" stroke="#000000" stroke-width="2.75" stroke-linejoin="bevel" points="1863.11,1368.78 1863.11,1284.64"/>
<polyline class="Stem" fill="none" stroke="#000000" stroke-width="2.75" stroke-linejoin="bevel" points="1992.41,1381.28 1992.41,1297.14"/>
<polyline class="Stem" fill="none" stroke="#000000" stroke-width="2.75" stroke-linejoin="bevel" points="2121.71,1393.78 2121.71,1309.64"/>
<polyline class="Stem" fill="none" stroke="#000000" stroke-width="2.75" stroke-linejoin="bevel" points="2296.76,1406.29 2296.76,1322.14"/>
<polyline class="Stem" fill="none" stroke="#000000" stroke-width="2.75" stroke-linejoin="bevel" points="2455.01,1418.71 2455.01,1322.14"/>
<path class="Note" d="M615.557,1001.42 C614.057,998.721 611.157,997.021 607.257,996.621 C606.657,996.521 606.157,996.521 605.557,996.521 C602.057,996.521 598.257,997.521 594.757,999.421 C588.157,1003.02 584.057,1008.92 584.057,1014.02 C584.057,1015.42 584.257,1016.72 584.957,1017.92 C586.457,1020.62 589.457,1022.32 593.357,1022.72 C593.957,1022.82 594.457,1022.82 595.057,1022.82 C598.557,1022.82 602.257,1021.82 605.757,1019.92 C612.357,1016.32 616.557,1010.52 616.557,1005.42 C616.557,1004.02 616.257,1002.62 615.557,1001.42"/>
<path class="Note" d="M748.765,988.92 C747.265,986.22 744.365,984.52 740.465,984.12 C739.865,984.02 739.365,984.02 738.765,984.02 C735.265,984.02 731.465,985.02 727.965,986.92 C721.365,990.52 717.265,996.42 717.265,1001.52 C717.265,1002.92 717.465,1004.22 718.165,1005.42 C719.665,1008.12 722.665,1009.82 726.565,1010.22 C727.165,1010.32 727.665,1010.32 728.265,1010.32 C731.765,1010.32 735.465,1009.32 738.965,1007.42 C745.565,1003.82 749.765,998.02 749.765,992.92 C749.765,991.52 749.465,990.12 748.765,988.92"/>
<path class="Note" d="M881.972,976.419 C880.472,973.719 877.572,972.019 873.672,971.619 C873.072,971.519 872.572,971.519 871.972,971.519 C868.472,971.519 864.672,972.519 861.172,974.419 C854.572,978.019 850.472,983.919 850.472,989.019 C850.472,990.419 850.672,991.719 851.372,992.919 C852.872,995.619 855.872,997.319 859.772,997.719 C860.372,997.819 860.872,997.819 861.472,997.819 C864.972,997.819 868.672,996.819 872.172,994.919 C878.772,991.319 882.972,985.519 882.972,980.419 C882.972,979.019 882.672,977.619 881.972,976.419"/>
<path class="Note" d="M1015.18,963.918 C1013.68,961.218 1010.78,959.518 1006.88,959.118 C1006.28,959.018 1005.78,959.018 1005.18,959.018 C1001.68,959.018 997.88,960.018 994.38,961.918 C987.78,965.518 983.68,971.418 983.68,976.518 C983.68,977.918 983.88,979.218 984.58,980.418 C986.08,983.118 989.08,984.818 992.98,985.218 C993.58,985.318 994.08,985.318 994.68,985.318 C998.18,985.318 1001.88,984.318 1005.38,982.418 C1011.98,978.818 1016.18,973.018 1016.18,967.918 C1016.18,966.518 1015.88,965.118 1015.18,963.918"/>
<path class="Note" d="M1185.39,951.417 C1183.89,948.717 1180.99,947.017 1177.09,946.617 C1176.49,946.517 1175.99,946.517 1175.39,946.517 C1171.89,946.517 1168.09,947.517 1164.59,949.417 C1157.99,953.017 1153.89,958.917 1153.89,964.017 C1153.89,965.417 1154.09,966.717 1154.79,967.917 C1156.29,970.617 1159.29,972.317 1163.19,972.717 C1163.79,972.817 1164.29,972.817 1164.89,972.817 C1168.39,972.817 1172.09,971.817 1175.59,969.917 C1182.19,966.317 1186.39,960.517 1186.39,955.417 C1186.39,954.017 1186.09,952.617 1185.39,951.417"/>
<path class="Note" d="M1305.47,938.917 C1303.97,936.217 1301.07,934.517 1297.17,934.117 C1296.57,934.017 1296.07,934.017 1295.47,934.017 C1291.97,934.017 1288.17,935.017 1284.67,936.917 C1278.07,940.517 1273.97,946.417 1273.97,951.517 C1273.97,952.917 1274.17,954.217 1274.87,955.417 C1276.37,958.117 1279.37,959.817 1283.27,960.217 C1283.87,960.317 1284.37,960.317 1284.97,960.317 C1288.47,960.317 1292.17,959.317 1295.67,957.417 C1302.27,953.817 1306.47,948.017 1306.47,942.917 C1306.47,941.517 1306.17,940.117 1305.47,938.917"/>
<path class="Note" d="M1425.55,926.416 C1424.05,923.716 1421.15,922.016 1417.25,921.616 C1416.65,921.516 1416.15,921.516 1415.55,921.516 C1412.05,921.516 1408.25,922.516 1404.75,924.416 C1398.15,928.016 1394.05,933.916 1394.05,939.016 C1394.05,940.416 1394.25,941.716 1394.95,942.916 C1396.45,945.616 1399.45,947.316 1403.35,947.716 C1403.95,947.816 1404.45,947.816 1405.05,947.816 C1408.55,947.816 1412.25,946.816 1415.75,944.916 C1422.35,941.316 1426.55,935.516 1426.55,930.416 C1426.55,929.016 1426.25,927.616 1425.55,926.416"/>
<path class="Note" d="M1545.63,913.915 C1544.13,911.215 1541.23,909.515 1537.33,909.115 C1536.73,909.015 1536.23,909.015 1535.63,909.015 C1532.13,909.015 1528.33,910.015 1524.83,911.915 C1518.23,915.515 1514.13,921.415 1514.13,926.515 C1514.13,927.915 1514.33,929.215 1515.03,930.415 C1516.53,933.115 1519.53,934.815 1523.43,935.215 C1524.03,935.315 1524.53,935.315 1525.13,935.315 C1528.63,935.315 1532.33,934.315 1535.83,932.415 C1542.43,928.815 1546.63,923.015 1546.63,917.915 C1546.63,916.515 1546.33,915.115 1545.63,913.915"/>
<path class="Note" d="M1795.47,1051.42 C1793.97,1048.72 1791.07,1047.02 1787.17,1046.62 C1786.57,1046.52 1786.07,1046.52 1785.47,1046.52 C1781.97,1046.52 1778.17,1047.52 1774.67,1049.42 C1768.07,1053.02 1763.97,1058.92 1763.97,1064.02 C1763.97,1065.42 1764.17,1066.72 1764.87,1067.92 C1766.37,1070.62 1769.37,1072.32 1773.27,1072.72 C1773.87,1072.82 1774.37,1072.82 1774.97,1072.82 C1778.47,1072.82 1782.17,1071.82 1785.67,1069.92 C1792.27,1066.32 1796.47,1060.52 1796.47,1055.42 C1796.47,1054.02 1796.17,1052.62 1795.47,1051.42"/>
<path class="Note" d="M1923.42,1038.92 C1921.92,1036.22 1919.02,1034.52 1915.12,1034.12 C1914.52,1034.02 1914.02,1034.02 1913.42,1034.02 C1909.92,1034.02 1906.12,1035.02 1902.62,1036.92 C1896.02,1040.52 1891.92,1046.42 1891.92,1051.52 C1891.92,1052.92 1892.12,1054.22 1892.82,1055.42 C1894.32,1058.12 1897.32,1059.82 1901.22,1060.22 C1901.82,1060.32 1902.32,1060.32 1902.92,1060.32 C1906.42,1060.32 1910.12,1059.32 1913.62,1057.42 C1920.22,1053.82 1924.42,1048.02 1924.42,1042.92 C1924.42,1041.52 1924.12,1040.12 1923.42,1038.92"/>
<path class="Note" d="M2051.38,1026.42 C2049.88,1023.72 2046.98,1022.02 2043.08,1021.62 C2042.48,1021.52 2041.98,1021.52 2041.38,1021.52 C2037.88,1021.52 2034.08,1022.52 2030.58,1024.42 C2023.98,1028.02 2019.88,1033.92 2019.88,1039.02 C2019.88,1040.42 2020.08,1041.72 2020.78,1042.92 C2022.28,1045.62 2025.28,1047.32 2029.18,1047.72 C2029.78,1047.82 2030.28,1047.82 2030.88,1047.82 C2034.38,1047.82 2038.08,1046.82 2041.58,1044.92 C2048.18,1041.32 2052.38,1035.52 2052.38,1030.42 C2052.38,1029.02 2052.08,1027.62 2051.38,1026.42"/>
<path class="Note" d="M2179.34,1013.92 C2177.84,1011.22 2174.94,1009.52 2171.04,1009.12 C2170.44,1009.02 2169.94,1009.02 2169.34,1009.02 C2165.84,1009.02 2162.04,1010.02 2158.54,1011.92 C2151.94,1015.52 2147.84,1021.42 2147.84,1026.52 C2147.84,1027.92 2148.04,1029.22 2148.74,1030.42 C2150.24,1033.12 2153.24,1034.82 2157.14,1035.22 C2157.74,1035.32 2158.24,1035.32 2158.84,1035.32 C2162.34,1035.32 2166.04,1034.32 2169.54,1032.42 C2176.14,1028.82 2180.34,1023.02 2180.34,1017.92 C2180.34,1016.52 2180.04,1015.12 2179.34,1013.92"/>
<path class="Note" d="M2344.3,1001.42 C2342.8,998.721 2339.9,997.021 2336,996.621 C2335.4,996.521 2334.9,996.521 2334.3,996.521 C2330.8,996.521 2327,997.521 2323.5,999.421 C2316.9,1003.02 2312.8,1008.92 2312.8,1014.02 C2312.8,1015.42 2313,1016.72 2313.7,1017.92 C2315.2,1020.62 2318.2,1022.32 2322.1,1022.72 C2322.7,1022.82 2323.2,1022.82 2323.8,1022.82 C2327.3,1022.82 2331,1021.82 2334.5,1019.92 C2341.1,1016.32 2345.3,1010.52 2345.3,1005.42 C2345.3,1004.02 2345,1002.62 2344.3,1001.42"/>
<path class="Note" d="M2468.56,988.92 C2467.06,986.22 2464.16,984.52 2460.26,984.12 C2459.66,984.02 2459.16,984.02 2458.56,984.02 C2455.06,984.02 2451.26,985.02 2447.76,986.92 C2441.16,990.52 2437.06,996.42 2437.06,1001.52 C2437.06,1002.92 2437.26,1004.22 2437.96,1005.42 C2439.46,1008.12 2442.46,1009.82 2446.36,1010.22 C2446.96,1010.32 2447.46,1010.32 2448.06,1010.32 C2451.56,1010.32 2455.26,1009.32 2458.76,1007.42 C2465.36,1003.82 2469.56,998.02 2469.56,992.92 C2469.56,991.52 2469.26,990.12 2468.56,988.92"/>
<path class="Note" d="M2592.82,976.419 C2591.32,973.719 2588.42,972.019 2584.52,971.619 C2583.92,971.519 2583.42,971.519 2582.82,971.519 C2579.32,971.519 2575.52,972.519 2572.02,974.419 C2565.42,978.019 2561.32,983.819 2561.32,988.919 C2561.32,990.319 2561.72,991.719 2562.42,992.919 C2563.92,995.719 2566.72,997.319 2570.62,997.719 C2571.22,997.819 2571.72,997.819 2572.32,997.819 C2575.82,997.819 2579.62,996.819 2583.12,994.919 C2589.72,991.319 2593.82,985.419 2593.82,980.319 C2593.82,978.919 2593.52,977.619 2592.82,976.419 M2588.62,982.719 C2586.92,984.519 2583.72,986.819 2580.12,988.919 C2576.52,991.019 2572.82,992.719 2570.52,993.419 C2570.02,993.519 2569.42,993.619 2568.92,993.619 C2567.42,993.619 2566.12,992.919 2565.42,991.819 C2565.12,991.219 2564.92,990.619 2564.92,990.019 C2564.92,988.919 2565.42,987.819 2566.52,986.619 C2568.22,984.819 2571.42,982.419 2575.02,980.319 C2578.62,978.219 2582.32,976.519 2584.72,975.919 L2584.92,975.919 C2585.52,975.719 2586.02,975.619 2586.52,975.619 C2587.92,975.619 2589.02,976.219 2589.72,977.519 C2590.02,978.119 2590.22,978.619 2590.22,979.219 C2590.22,980.519 2589.52,981.819 2588.62,982.719"/>
<path class="Note" d="M549.905,1601.46 C548.405,1598.76 545.505,1597.06 541.605,1596.66 C541.005,1596.56 540.505,1596.56 539.905,1596.56 C536.405,1596.56 532.605,1597.56 529.105,1599.46 C522.505,1603.06 518.405,1608.96 518.405,1614.06 C518.405,1615.46 518.605,1616.76 519.305,1617.96 C520.805,1620.66 523.805,1622.36 527.705,1622.76 C528.305,1622.86 528.805,1622.86 529.405,1622.86 C532.905,1622.86 536.605,1621.86 540.105,1619.96 C546.705,1616.36 550.905,1610.56 550.905,1605.46 C550.905,1604.06 550.605,1602.66 549.905,1601.46"/>
<path class="Note" d="M676.578,1613.96 C675.078,1611.26 672.178,1609.56 668.278,1609.16 C667.678,1609.06 667.178,1609.06 666.578,1609.06 C663.078,1609.06 659.278,1610.06 655.778,1611.96 C649.178,1615.56 645.078,1621.46 645.078,1626.56 C645.078,1627.96 645.278,1629.26 645.978,1630.46 C647.478,1633.16 650.478,1634.86 654.378,1635.26 C654.978,1635.36 655.478,1635.36 656.078,1635.36 C659.578,1635.36 663.278,1634.36 666.778,1632.46 C673.378,1628.86 677.578,1623.06 677.578,1617.96 C677.578,1616.56 677.278,1615.16 676.578,1613.96"/>
<path class="Note" d="M803.251,1626.46 C801.751,1623.76 798.851,1622.06 794.951,1621.66 C794.351,1621.56 793.851,1621.56 793.251,1621.56 C789.751,1621.56 785.951,1622.56 782.451,1624.46 C775.851,1628.06 771.751,1633.96 771.751,1639.06 C771.751,1640.46 771.951,1641.76 772.651,1642.96 C774.151,1645.66 777.151,1647.36 781.051,1647.76 C781.651,1647.86 782.151,1647.86 782.751,1647.86 C786.251,1647.86 789.951,1646.86 793.451,1644.96 C800.051,1641.36 804.251,1635.56 804.251,1630.46 C804.251,1629.06 803.951,1627.66 803.251,1626.46"/>
<path class="Note" d="M929.924,1638.96 C928.424,1636.26 925.524,1634.56 921.624,1634.16 C921.024,1634.06 920.524,1634.06 919.924,1634.06 C916.424,1634.06 912.624,1635.06 909.124,1636.96 C902.524,1640.56 898.424,1646.46 898.424,1651.56 C898.424,1652.96 898.624,1654.26 899.324,1655.46 C900.824,1658.16 903.824,1659.86 907.724,1660.26 C908.324,1660.36 908.824,1660.36 909.424,1660.36 C912.924,1660.36 916.624,1659.36 920.124,1657.46 C926.724,1653.86 930.924,1648.06 930.924,1642.96 C930.924,1641.56 930.624,1640.16 929.924,1638.96"/>
<path class="Note" d="M1180,1501.45 C1178.5,1498.75 1175.6,1497.05 1171.7,1496.65 C1171.1,1496.55 1170.6,1496.55 1170,1496.55 C1166.5,1496.55 1162.7,1497.55 1159.2,1499.45 C1152.6,1503.05 1148.5,1508.95 1148.5,1514.05 C1148.5,1515.45 1148.7,1516.75 1149.4,1517.95 C1150.9,1520.65 1153.9,1522.35 1157.8,1522.75 C1158.4,1522.85 1158.9,1522.85 1159.5,1522.85 C1163,1522.85 1166.7,1521.85 1170.2,1519.95 C1176.8,1516.35 1181,1510.55 1181,1505.45 C1181,1504.05 1180.7,1502.65 1180,1501.45"/>
<path class="Note" d="M1309.3,1513.95 C1307.8,1511.25 1304.9,1509.55 1301,1509.15 C1300.4,1509.05 1299.9,1509.05 1299.3,1509.05 C1295.8,1509.05 1292,1510.05 1288.5,1511.95 C1281.9,1515.55 1277.8,1521.45 1277.8,1526.55 C1277.8,1527.95 1278,1529.25 1278.7,1530.45 C1280.2,1533.15 1283.2,1534.85 1287.1,1535.25 C1287.7,1535.35 1288.2,1535.35 1288.8,1535.35 C1292.3,1535.35 1296,1534.35 1299.5,1532.45 C1306.1,1528.85 1310.3,1523.05 1310.3,1517.95 C1310.3,1516.55 1310,1515.15 1309.3,1513.95"/>
<path class="Note" d="M1438.6,1526.45 C1437.1,1523.75 1434.2,1522.05 1430.3,1521.65 C1429.7,1521.55 1429.2,1521.55 1428.6,1521.55 C1425.1,1521.55 1421.3,1522.55 1417.8,1524.45 C1411.2,1528.05 1407.1,1533.95 1407.1,1539.05 C1407.1,1540.45 1407.3,1541.75 1408,1542.95 C1409.5,1545.65 1412.5,1547.35 1416.4,1547.75 C1417,1547.85 1417.5,1547.85 1418.1,1547.85 C1421.6,1547.85 1425.3,1546.85 1428.8,1544.95 C1435.4,1541.35 1439.6,1535.55 1439.6,1530.45 C1439.6,1529.05 1439.3,1527.65 1438.6,1526.45"/>
<path class="Note" d="M1567.9,1538.95 C1566.4,1536.25 1563.5,1534.55 1559.6,1534.15 C1559,1534.05 1558.5,1534.05 1557.9,1534.05 C1554.4,1534.05 1550.6,1535.05 1547.1,1536.95 C1540.5,1540.55 1536.4,1546.45 1536.4,1551.55 C1536.4,1552.95 1536.6,1554.25 1537.3,1555.45 C1538.8,1558.15 1541.8,1559.85 1545.7,1560.25 C1546.3,1560.35 1546.8,1560.35 1547.4,1560.35 C1550.9,1560.35 1554.6,1559.35 1558.1,1557.45 C1564.7,1553.85 1568.9,1548.05 1568.9,1542.95 C1568.9,1541.55 1568.6,1540.15 1567.9,1538.95"/>
<path class="Note" d="M1734.2,1551.46 C1732.7,1548.76 1729.8,1547.06 1725.9,1546.66 C1725.3,1546.56 1724.8,1546.56 1724.2,1546.56 C1720.7,1546.56 1716.9,1547.56 1713.4,1549.46 C1706.8,1553.06 1702.7,1558.96 1702.7,1564.06 C1702.7,1565.46 1702.9,1566.76 1703.6,1567.96 C1705.1,1570.66 1708.1,1572.36 1712,1572.76 C1712.6,1572.86 1713.1,1572.86 1713.7,1572.86 C1717.2,1572.86 1720.9,1571.86 1724.4,1569.96 C1731,1566.36 1735.2,1560.56 1735.2,1555.46 C1735.2,1554.06 1734.9,1552.66 1734.2,1551.46"/>
<path class="Note" d="M1863.5,1563.96 C1862,1561.26 1859.1,1559.56 1855.2,1559.16 C1854.6,1559.06 1854.1,1559.06 1853.5,1559.06 C1850,1559.06 1846.2,1560.06 1842.7,1561.96 C1836.1,1565.56 1832,1571.46 1832,1576.56 C1832,1577.96 1832.2,1579.26 1832.9,1580.46 C1834.4,1583.16 1837.4,1584.86 1841.3,1585.26 C1841.9,1585.36 1842.4,1585.36 1843,1585.36 C1846.5,1585.36 1850.2,1584.36 1853.7,1582.46 C1860.3,1578.86 1864.5,1573.06 1864.5,1567.96 C1864.5,1566.56 1864.2,1565.16 1863.5,1563.96"/>
<path class="Note" d="M1992.79,1576.46 C1991.29,1573.76 1988.39,1572.06 1984.49,1571.66 C1983.89,1571.56 1983.39,1571.56 1982.79,1571.56 C1979.29,1571.56 1975.49,1572.56 1971.99,1574.46 C1965.39,1578.06 1961.29,1583.96 1961.29,1589.06 C1961.29,1590.46 1961.49,1591.76 1962.19,1592.96 C1963.69,1595.66 1966.69,1597.36 1970.59,1597.76 C1971.19,1597.86 1971.69,1597.86 1972.29,1597.86 C1975.79,1597.86 1979.49,1596.86 1982.99,1594.96 C1989.59,1591.36 1993.79,1585.56 1993.79,1580.46 C1993.79,1579.06 1993.49,1577.66 1992.79,1576.46"/>
<path class="Note" d="M2122.09,1588.96 C2120.59,1586.26 2117.69,1584.56 2113.79,1584.16 C2113.19,1584.06 2112.69,1584.06 2112.09,1584.06 C2108.59,1584.06 2104.79,1585.06 2101.29,1586.96 C2094.69,1590.56 2090.59,1596.46 2090.59,1601.56 C2090.59,1602.96 2090.79,1604.26 2091.49,1605.46 C2092.99,1608.16 2095.99,1609.86 2099.89,1610.26 C2100.49,1610.36 2100.99,1610.36 2101.59,1610.36 C2105.09,1610.36 2108.79,1609.36 2112.29,1607.46 C2118.89,1603.86 2123.09,1598.06 2123.09,1592.96 C2123.09,1591.56 2122.79,1590.16 2122.09,1588.96"/>
<path class="Note" d="M2297.14,1601.46 C2295.64,1598.76 2292.74,1597.06 2288.84,1596.66 C2288.24,1596.56 2287.74,1596.56 2287.14,1596.56 C2283.64,1596.56 2279.84,1597.56 2276.34,1599.46 C2269.74,1603.06 2265.64,1608.96 2265.64,1614.06 C2265.64,1615.46 2265.84,1616.76 2266.54,1617.96 C2268.04,1620.66 2271.04,1622.36 2274.94,1622.76 C2275.54,1622.86 2276.04,1622.86 2276.64,1622.86 C2280.14,1622.86 2283.84,1621.86 2287.34,1619.96 C2293.94,1616.36 2298.14,1610.56 2298.14,1605.46 C2298.14,1604.06 2297.84,1602.66 2297.14,1601.46"/>
<path class="Note" d="M2455.39,1613.96 C2453.89,1611.26 2450.99,1609.56 2447.09,1609.16 C2446.49,1609.06 2445.99,1609.06 2445.39,1609.06 C2441.89,1609.06 2438.09,1610.06 2434.59,1611.96 C2427.99,1615.56 2423.89,1621.36 2423.89,1626.46 C2423.89,1627.86 2424.29,1629.26 2424.99,1630.46 C2426.49,1633.26 2429.29,1634.86 2433.19,1635.26 C2433.79,1635.36 2434.29,1635.36 2434.89,1635.36 C2438.39,1635.36 2442.19,1634.36 2445.69,1632.46 C2452.29,1628.86 2456.39,1622.96 2456.39,1617.86 C2456.39,1616.46 2456.09,1615.16 2455.39,1613.96 M2451.19,1620.26 C2449.49,1622.06 2446.29,1624.36 2442.69,1626.46 C2439.09,1628.56 2435.39,1630.26 2433.09,1630.96 C2432.59,1631.06 2431.99,1631.16 2431.49,1631.16 C2429.99,1631.16 2428.69,1630.46 2427.99,1629.36 C2427.69,1628.76 2427.49,1628.16 2427.49,1627.56 C2427.49,1626.46 2427.99,1625.36 2429.09,1624.16 C2430.79,1622.36 2433.99,1619.96 2437.59,1617.86 C2441.19,1615.76 2444.89,1614.06 2447.29,1613.46 L2447.49,1613.46 C2448.09,1613.26 2448.59,1613.16 2449.09,1613.16 C2450.49,1613.16 2451.59,1613.76 2452.29,1615.06 C2452.59,1615.66 2452.79,1616.16 2452.79,1616.76 C2452.79,1618.06 2452.09,1619.36 2451.19,1620.26"/>
<path class="Note" d="M615.557,801.408 C614.057,798.708 611.157,797.008 607.257,796.608 C606.657,796.508 606.157,796.508 605.557,796.508 C602.057,796.508 598.257,797.508 594.757,799.408 C588.157,803.008 584.057,808.908 584.057,814.008 C584.057,815.408 584.257,816.708 584.957,817.908 C586.457,820.608 589.457,822.308 593.357,822.708 C593.957,822.808 594.457,822.808 595.057,822.808 C598.557,822.808 602.257,821.808 605.757,819.908 C612.357,816.308 616.557,810.508 616.557,805.408 C616.557,804.008 616.257,802.608 615.557,801.408"/>
<path class="Note" d="M748.765,788.907 C747.265,786.207 744.365,784.507 740.465,784.107 C739.865,784.007 739.365,784.007 738.765,784.007 C735.265,784.007 731.465,785.007 727.965,786.907 C721.365,790.507 717.265,796.407 717.265,801.507 C717.265,802.907 717.465,804.207 718.165,805.407 C719.665,808.107 722.665,809.807 726.565,810.207 C727.165,810.307 727.665,810.307 728.265,810.307 C731.765,810.307 735.465,809.307 738.965,807.407 C745.565,803.807 749.765,798.007 749.765,792.907 C749.765,791.507 749.465,790.107 748.765,788.907"/>
<path class="Note" d="M881.972,776.406 C880.472,773.706 877.572,772.006 873.672,771.606 C873.072,771.506 872.572,771.506 871.972,771.506 C868.472,771.506 864.672,772.506 861.172,774.406 C854.572,778.006 850.472,783.906 850.472,789.006 C850.472,790.406 850.672,791.706 851.372,792.906 C852.872,795.606 855.872,797.306 859.772,797.706 C860.372,797.806 860.872,797.806 861.472,797.806 C864.972,797.806 868.672,796.806 872.172,794.906 C878.772,791.306 882.972,785.506 882.972,780.406 C882.972,779.006 882.672,777.606 881.972,776.406"/>
<path class="Note" d="M1015.18,763.906 C1013.68,761.206 1010.78,759.506 1006.88,759.106 C1006.28,759.006 1005.78,759.006 1005.18,759.006 C1001.68,759.006 997.88,760.006 994.38,761.906 C987.78,765.506 983.68,771.406 983.68,776.506 C983.68,777.906 983.88,779.206 984.58,780.406 C986.08,783.106 989.08,784.806 992.98,785.206 C993.58,785.306 994.08,785.306 994.68,785.306 C998.18,785.306 1001.88,784.306 1005.38,782.406 C1011.98,778.806 1016.18,773.006 1016.18,767.906 C1016.18,766.506 1015.88,765.106 1015.18,763.906"/>
<path class="Note" d="M1185.39,751.405 C1183.89,748.705 1180.99,747.005 1177.09,746.605 C1176.49,746.505 1175.99,746.505 1175.39,746.505 C1171.89,746.505 1168.09,747.505 1164.59,749.405 C1157.99,753.005 1153.89,758.905 1153.89,764.005 C1153.89,765.405 1154.09,766.705 1154.79,767.905 C1156.29,770.605 1159.29,772.305 1163.19,772.705 C1163.79,772.805 1164.29,772.805 1164.89,772.805 C1168.39,772.805 1172.09,771.805 1175.59,769.905 C1182.19,766.305 1186.39,760.505 1186.39,755.405 C1186.39,754.005 1186.09,752.605 1185.39,751.405"/>
<path class="Note" d="M1305.47,738.904 C1303.97,736.204 1301.07,734.504 1297.17,734.104 C1296.57,734.004 1296.07,734.004 1295.47,734.004 C1291.97,734.004 1288.17,735.004 1284.67,736.904 C1278.07,740.504 1273.97,746.404 1273.97,751.504 C1273.97,752.904 1274.17,754.204 1274.87,755.404 C1276.37,758.104 1279.37,759.804 1283.27,760.204 C1283.87,760.304 1284.37,760.304 1284.97,760.304 C1288.47,760.304 1292.17,759.304 1295.67,757.404 C1302.27,753.804 1306.47,748.004 1306.47,742.904 C1306.47,741.504 1306.17,740.104 1305.47,738.904"/>
<path class="Note" d="M1425.55,726.403 C1424.05,723.703 1421.15,722.003 1417.25,721.603 C1416.65,721.503 1416.15,721.503 1415.55,721.503 C1412.05,721.503 1408.25,722.503 1404.75,724.403 C1398.15,728.003 1394.05,733.903 1394.05,739.003 C1394.05,740.403 1394.25,741.703 1394.95,742.903 C1396.45,745.603 1399.45,747.303 1403.35,747.703 C1403.95,747.803 1404.45,747.803 1405.05,747.803 C1408.55,747.803 1412.25,746.803 1415.75,744.903 C1422.35,741.303 1426.55,735.503 1426.55,730.403 C1426.55,729.003 1426.25,727.603 1425.55,726.403"/>
<path class="Note" d="M1545.63,713.902 C1544.13,711.202 1541.23,709.502 1537.33,709.102 C1536.73,709.002 1536.23,709.002 1535.63,709.002 C1532.13,709.002 1528.33,710.002 1524.83,711.902 C1518.23,715.502 1514.13,721.402 1514.13,726.502 C1514.13,727.902 1514.33,729.202 1515.03,730.402 C1516.53,733.102 1519.53,734.802 1523.43,735.202 C1524.03,735.302 1524.53,735.302 1525.13,735.302 C1528.63,735.302 1532.33,734.302 1535.83,732.402 C1542.43,728.802 1546.63,723.002 1546.63,717.902 C1546.63,716.502 1546.33,715.102 1545.63,713.902"/>
<path class="Note" d="M1795.47,701.402 C1793.97,698.702 1791.07,697.002 1787.17,696.602 C1786.57,696.502 1786.07,696.502 1785.47,696.502 C1781.97,696.502 1778.17,697.502 1774.67,699.402 C1768.07,703.002 1763.97,708.902 1763.97,714.002 C1763.97,715.402 1764.17,716.702 1764.87,717.902 C1766.37,720.602 1769.37,722.302 1773.27,722.702 C1773.87,722.802 1774.37,722.802 1774.97,722.802 C1778.47,722.802 1782.17,721.802 1785.67,719.902 C1792.27,716.302 1796.47,710.502 1796.47,705.402 C1796.47,704.002 1796.17,702.602 1795.47,701.402"/>
<path class="Note" d="M1923.42,688.901 C1921.92,686.201 1919.02,684.501 1915.12,684.101 C1914.52,684.001 1914.02,684.001 1913.42,684.001 C1909.92,684.001 1906.12,685.001 1902.62,686.901 C1896.02,690.501 1891.92,696.401 1891.92,701.501 C1891.92,702.901 1892.12,704.201 1892.82,705.401 C1894.32,708.101 1897.32,709.801 1901.22,710.201 C1901.82,710.301 1902.32,710.301 1902.92,710.301 C1906.42,710.301 1910.12,709.301 1913.62,707.401 C1920.22,703.801 1924.42,698.001 1924.42,692.901 C1924.42,691.501 1924.12,690.101 1923.42,688.901"/>
<path class="Note" d="M2051.38,676.4 C2049.88,673.7 2046.98,672 2043.08,671.6 C2042.48,671.5 2041.98,671.5 2041.38,671.5 C2037.88,671.5 2034.08,672.5 2030.58,674.4 C2023.98,678 2019.88,683.9 2019.88,689 C2019.88,690.4 2020.08,691.7 2020.78,692.9 C2022.28,695.6 2025.28,697.3 2029.18,697.7 C2029.78,697.8 2030.28,697.8 2030.88,697.8 C2034.38,697.8 2038.08,696.8 2041.58,694.9 C2048.18,691.3 2052.38,685.5 2052.38,680.4 C2052.38,679 2052.08,677.6 2051.38,676.4"/>
<path class="Note" d="M2179.34,663.899 C2177.84,661.199 2174.94,659.499 2171.04,659.099 C2170.44,658.999 2169.94,658.999 2169.34,658.999 C2165.84,658.999 2162.04,659.999 2158.54,661.899 C2151.94,665.499 2147.84,671.399 2147.84,676.499 C2147.84,677.899 2148.04,679.199 2148.74,680.399 C2150.24,683.099 2153.24,684.799 2157.14,685.199 C2157.74,685.299 2158.24,685.299 2158.84,685.299 C2162.34,685.299 2166.04,684.299 2169.54,682.399 C2176.14,678.799 2180.34,672.999 2180.34,667.899 C2180.34,666.499 2180.04,665.099 2179.34,663.899"/>
<path class="Note" d="M2344.3,651.398 C2342.8,648.698 2339.9,646.998 2336,646.598 C2335.4,646.498 2334.9,646.498 2334.3,646.498 C2330.8,646.498 2327,647.498 2323.5,649.398 C2316.9,652.998 2312.8,658.898 2312.8,663.998 C2312.8,665.398 2313,666.698 2313.7,667.898 C2315.2,670.598 2318.2,672.298 2322.1,672.698 C2322.7,672.798 2323.2,672.798 2323.8,672.798 C2327.3,672.798 2331,671.798 2334.5,669.898 C2341.1,666.298 2345.3,660.498 2345.3,655.398 C2345.3,653.998 2345,652.598 2344.3,651.398"/>
<path class="Note" d="M2468.56,638.898 C2467.06,636.198 2464.16,634.498 2460.26,634.098 C2459.66,633.998 2459.16,633.998 2458.56,633.998 C2455.06,633.998 2451.26,634.998 2447.76,636.898 C2441.16,640.498 2437.06,646.398 2437.06,651.498 C2437.06,652.898 2437.26,654.198 2437.96,655.398 C2439.46,658.098 2442.46,659.798 2446.36,660.198 C2446.96,660.298 2447.46,660.298 2448.06,660.298 C2451.56,660.298 2455.26,659.298 2458.76,657.398 C2465.36,653.798 2469.56,647.998 2469.56,642.898 C2469.56,641.498 2469.26,640.098 2468.56,638.898"/>
<path class="Note" d="M2592.82,626.397 C2591.32,623.697 2588.42,621.997 2584.52,621.597 C2583.92,621.497 2583.42,621.497 2582.82,621.497 C2579.32,621.497 2575.52,622.497 2572.02,624.397 C2565.42,627.997 2561.32,633.797 2561.32,638.897 C2561.32,640.297 2561.72,641.697 2562.42,642.897 C2563.92,645.697 2566.72,647.297 2570.62,647.697 C2571.22,647.797 2571.72,647.797 2572.32,647.797 C2575.82,647.797 2579.62,646.797 2583.12,644.897 C2589.72,641.297 2593.82,635.397 2593.82,630.297 C2593.82,628.897 2593.52,627.597 2592.82,626.397 M2588.62,632.697 C2586.92,634.497 2583.72,636.797 2580.12,638.897 C2576.52,640.997 2572.82,642.697 2570.52,643.397 C2570.02,643.497 2569.42,643.597 2568.92,643.597 C2567.42,643.597 2566.12,642.897 2565.42,641.797 C2565.12,641.197 2564.92,640.597 2564.92,639.997 C2564.92,638.897 2565.42,637.797 2566.52,636.597 C2568.22,634.797 2571.42,632.397 2575.02,630.297 C2578.62,628.197 2582.32,626.497 2584.72,625.897 L2584.92,625.897 C2585.52,625.697 2586.02,625.597 2586.52,625.597 C2587.92,625.597 2589.02,626.197 2589.72,627.497 C2590.02,628.097 2590.22,628.597 2590.22,629.197 C2590.22,630.497 2589.52,631.797 2588.62,632.697"/>
<path class="Note" d="M549.905,1251.44 C548.405,1248.74 545.505,1247.04 541.605,1246.64 C541.005,1246.54 540.505,1246.54 539.905,1246.54 C536.405,1246.54 532.605,1247.54 529.105,1249.44 C522.505,1253.04 518.405,1258.94 518.405,1264.04 C518.405,1265.44 518.605,1266.74 519.305,1267.94 C520.805,1270.64 523.805,1272.34 527.705,1272.74 C528.305,1272.84 528.805,1272.84 529.405,1272.84 C532.905,1272.84 536.605,1271.84 540.105,1269.94 C546.705,1266.34 550.905,1260.54 550.905,1255.44 C550.905,1254.04 550.605,1252.64 549.905,1251.44"/>
<path class="Note" d="M676.578,1263.94 C675.078,1261.24 672.178,1259.54 668.278,1259.14 C667.678,1259.04 667.178,1259.04 666.578,1259.04 C663.078,1259.04 659.278,1260.04 655.778,1261.94 C649.178,1265.54 645.078,1271.44 645.078,1276.54 C645.078,1277.94 645.278,1279.24 645.978,1280.44 C647.478,1283.14 650.478,1284.84 654.378,1285.24 C654.978,1285.34 655.478,1285.34 656.078,1285.34 C659.578,1285.34 663.278,1284.34 666.778,1282.44 C673.378,1278.84 677.578,1273.04 677.578,1267.94 C677.578,1266.54 677.278,1265.14 676.578,1263.94"/>
<path class="Note" d="M803.251,1276.44 C801.751,1273.74 798.851,1272.04 794.951,1271.64 C794.351,1271.54 793.851,1271.54 793.251,1271.54 C789.751,1271.54 785.951,1272.54 782.451,1274.44 C775.851,1278.04 771.751,1283.94 771.751,1289.04 C771.751,1290.44 771.951,1291.74 772.651,1292.94 C774.151,1295.64 777.151,1297.34 781.051,1297.74 C781.651,1297.84 782.151,1297.84 782.751,1297.84 C786.251,1297.84 789.951,1296.84 793.451,1294.94 C800.051,1291.34 804.251,1285.54 804.251,1280.44 C804.251,1279.04 803.951,1277.64 803.251,1276.44"/>
<path class="Note" d="M929.924,1288.94 C928.424,1286.24 925.524,1284.54 921.624,1284.14 C921.024,1284.04 920.524,1284.04 919.924,1284.04 C916.424,1284.04 912.624,1285.04 909.124,1286.94 C902.524,1290.54 898.424,1296.44 898.424,1301.54 C898.424,1302.94 898.624,1304.24 899.324,1305.44 C900.824,1308.14 903.824,1309.84 907.724,1310.24 C908.324,1310.34 908.824,1310.34 909.424,1310.34 C912.924,1310.34 916.624,1309.34 920.124,1307.44 C926.724,1303.84 930.924,1298.04 930.924,1292.94 C930.924,1291.54 930.624,1290.14 929.924,1288.94"/>
<path class="Note" d="M1180,1301.44 C1178.5,1298.74 1175.6,1297.04 1171.7,1296.64 C1171.1,1296.54 1170.6,1296.54 1170,1296.54 C1166.5,1296.54 1162.7,1297.54 1159.2,1299.44 C1152.6,1303.04 1148.5,1308.94 1148.5,1314.04 C1148.5,1315.44 1148.7,1316.74 1149.4,1317.94 C1150.9,1320.64 1153.9,1322.34 1157.8,1322.74 C1158.4,1322.84 1158.9,1322.84 1159.5,1322.84 C1163,1322.84 1166.7,1321.84 1170.2,1319.94 C1176.8,1316.34 1181,1310.54 1181,1305.44 C1181,1304.04 1180.7,1302.64 1180,1301.44"/>
<path class="Note" d="M1309.3,1313.94 C1307.8,1311.24 1304.9,1309.54 1301,1309.14 C1300.4,1309.04 1299.9,1309.04 1299.3,1309.04 C1295.8,1309.04 1292,1310.04 1288.5,1311.94 C1281.9,1315.54 1277.8,1321.44 1277.8,1326.54 C1277.8,1327.94 1278,1329.24 1278.7,1330.44 C1280.2,1333.14 1283.2,1334.84 1287.1,1335.24 C1287.7,1335.34 1288.2,1335.34 1288.8,1335.34 C1292.3,1335.34 1296,1334.34 1299.5,1332.44 C1306.1,1328.84 1310.3,1323.04 1310.3,1317.94 C1310.3,1316.54 1310,1315.14 1309.3,1313.94"/>
<path class="Note" d="M1438.6,1326.44 C1437.1,1323.74 1434.2,1322.04 1430.3,1321.64 C1429.7,1321.54 1429.2,1321.54 1428.6,1321.54 C1425.1,1321.54 1421.3,1322.54 1417.8,1324.44 C1411.2,1328.04 1407.1,1333.94 1407.1,1339.04 C1407.1,1340.44 1407.3,1341.74 1408,1342.94 C1409.5,1345.64 1412.5,1347.34 1416.4,1347.74 C1417,1347.84 1417.5,1347.84 1418.1,1347.84 C1421.6,1347.84 1425.3,1346.84 1428.8,1344.94 C1435.4,1341.34 1439.6,1335.54 1439.6,1330.44 C1439.6,1329.04 1439.3,1327.64 1438.6,1326.44"/>
<path class="Note" d="M1567.9,1338.94 C1566.4,1336.24 1563.5,1334.54 1559.6,1334.14 C1559,1334.04 1558.5,1334.04 1557.9,1334.04 C1554.4,1334.04 1550.6,1335.04 1547.1,1336.94 C1540.5,1340.54 1536.4,1346.44 1536.4,1351.54 C1536.4,1352.94 1536.6,1354.24 1537.3,1355.44 C1538.8,1358.14 1541.8,1359.84 1545.7,1360.24 C1546.3,1360.34 1546.8,1360.34 1547.4,1360.34 C1550.9,1360.34 1554.6,1359.34 1558.1,1357.44 C1564.7,1353.84 1568.9,1348.04 1568.9,1342.94 C1568.9,1341.54 1568.6,1340.14 1567.9,1338.94"/>
<path class="Note" d="M1734.2,1351.44 C1732.7,1348.74 1729.8,1347.04 1725.9,1346.64 C1725.3,1346.54 1724.8,1346.54 1724.2,1346.54 C1720.7,1346.54 1716.9,1347.54 1713.4,1349.44 C1706.8,1353.04 1702.7,1358.94 1702.7,1364.04 C1702.7,1365.44 1702.9,1366.74 1703.6,1367.94 C1705.1,1370.64 1708.1,1372.34 1712,1372.74 C1712.6,1372.84 1713.1,1372.84 1713.7,1372.84 C1717.2,1372.84 1720.9,1371.84 1724.4,1369.94 C1731,1366.34 1735.2,1360.54 1735.2,1355.44 C1735.2,1354.04 1734.9,1352.64 1734.2,1351.44"/>
<path class="Note" d="M1863.5,1363.94 C1862,1361.24 1859.1,1359.54 1855.2,1359.14 C1854.6,1359.04 1854.1,1359.04 1853.5,1359.04 C1850,1359.04 1846.2,1360.04 1842.7,1361.94 C1836.1,1365.54 1832,1371.44 1832,1376.54 C1832,1377.94 1832.2,1379.24 1832.9,1380.44 C1834.4,1383.14 1837.4,1384.84 1841.3,1385.24 C1841.9,1385.34 1842.4,1385.34 1843,1385.34 C1846.5,1385.34 1850.2,1384.34 1853.7,1382.44 C1860.3,1378.84 1864.5,1373.04 1864.5,1367.94 C1864.5,1366.54 1864.2,1365.14 1863.5,1363.94"/>
<path class="Note" d="M1992.79,1376.44 C1991.29,1373.74 1988.39,1372.04 1984.49,1371.64 C1983.89,1371.54 1983.39,1371.54 1982.79,1371.54 C1979.29,1371.54 1975.49,1372.54 1971.99,1374.44 C1965.39,1378.04 1961.29,1383.94 1961.29,1389.04 C1961.29,1390.44 1961.49,1391.74 1962.19,1392.94 C1963.69,1395.64 1966.69,1397.34 1970.59,1397.74 C1971.19,1397.84 1971.69,1397.84 1972.29,1397.84 C1975.79,1397.84 1979.49,1396.84 1982.99,1394.94 C1989.59,1391.34 1993.79,1385.54 1993.79,1380.44 C1993.79,1379.04 1993.49,1377.64 1992.79,1376.44"/>
<path class="Note" d="M2122.09,1388.94 C2120.59,1386.24 2117.69,1384.54 2113.79,1384.14 C2113.19,1384.04 2112.69,1384.04 2112.09,1384.04 C2108.59,1384.04 2104.79,1385.04 2101.29,1386.94 C2094.69,1390.54 2090.59,1396.44 2090.59,1401.54 C2090.59,1402.94 2090.79,1404.24 2091.49,1405.44 C2092.99,1408.14 2095.99,1409.84 2099.89,1410.24 C2100.49,1410.34 2100.99,1410.34 2101.59,1410.34 C2105.09,1410.34 2108.79,1409.34 2112.29,1407.44 C2118.89,1403.84 2123.09,1398.04 2123.09,1392.94 C2123.09,1391.54 2122.79,1390.14 2122.09,1388.94"/>
<path class="Note" d="M2297.14,1401.45 C2295.64,1398.75 2292.74,1397.05 2288.84,1396.65 C2288.24,1396.55 2287.74,1396.55 2287.14,1396.55 C2283.64,1396.55 2279.84,1397.55 2276.34,1399.45 C2269.74,1403.05 2265.64,1408.95 2265.64,1414.05 C2265.64,1415.45 2265.84,1416.75 2266.54,1417.95 C2268.04,1420.65 2271.04,1422.35 2274.94,1422.75 C2275.54,1422.85 2276.04,1422.85 2276.64,1422.85 C2280.14,1422.85 2283.84,1421.85 2287.34,1419.95 C2293.94,1416.35 2298.14,1410.55 2298.14,1405.45 C2298.14,1404.05 2297.84,1402.65 2297.14,1401.45"/>
<path class="Note" d="M2455.39,1413.95 C2453.89,1411.25 2450.99,1409.55 2447.09,1409.15 C2446.49,1409.05 2445.99,1409.05 2445.39,1409.05 C2441.89,1409.05 2438.09,1410.05 2434.59,1411.95 C2427.99,1415.55 2423.89,1421.35 2423.89,1426.45 C2423.89,1427.85 2424.29,1429.25 2424.99,1430.45 C2426.49,1433.25 2429.29,1434.85 2433.19,1435.25 C2433.79,1435.35 2434.29,1435.35 2434.89,1435.35 C2438.39,1435.35 2442.19,1434.35 2445.69,1432.45 C2452.29,1428.85 2456.39,1422.95 2456.39,1417.85 C2456.39,1416.45 2456.09,1415.15 2455.39,1413.95 M2451.19,1420.25 C2449.49,1422.05 2446.29,1424.35 2442.69,1426.45 C2439.09,1428.55 2435.39,1430.25 2433.09,1430.95 C2432.59,1431.05 2431.99,1431.15 2431.49,1431.15 C2429.99,1431.15 2428.69,1430.45 2427.99,1429.35 C2427.69,1428.75 2427.49,1428.15 2427.49,1427.55 C2427.49,1426.45 2427.99,1425.35 2429.09,1424.15 C2430.79,1422.35 2433.99,1419.95 2437.59,1417.85 C2441.19,1415.75 2444.89,1414.05 2447.29,1413.45 L2447.49,1413.45 C2448.09,1413.25 2448.59,1413.15 2449.09,1413.15 C2450.49,1413.15 2451.59,1413.75 2452.29,1415.05 C2452.59,1415.65 2452.79,1416.15 2452.79,1416.75 C2452.79,1418.05 2452.09,1419.35 2451.19,1420.25"/>
<path class="Clef" d="M297,922.017 C289.4,922.017 283.3,926.417 283.2,926.417 C277.4,930.717 275.1,935.817 274.2,939.317 C273.7,941.117 273.5,942.917 273.5,944.617 C273.5,947.017 273.9,949.217 274.8,951.117 C276,953.817 278.3,955.717 281.3,956.717 C282.5,957.117 283.8,957.317 285.1,957.317 C287.3,957.317 289.6,956.717 291.5,955.617 C294.6,953.917 296.5,950.317 296.5,946.417 C296.5,942.917 294.7,939.717 291.7,937.817 C289.6,936.417 287.6,936.017 285.9,936.017 C284.7,936.017 283.6,936.217 282.7,936.517 C281.7,936.917 280,937.917 279.2,938.617 C279.5,936.717 280.7,933.817 281.8,932.217 C282.9,930.617 285.1,928.617 286.8,927.717 C289.3,926.317 292.5,925.717 296,925.717 C306.2,925.717 311.2,933.917 311.2,950.717 C311.2,960.017 307.7,968.917 304.7,974.817 C301.4,981.417 297,987.717 293.1,991.217 C282.7,1000.72 272.9,1005.22 272.8,1005.22 C272.8,1005.22 271.3,1006.12 271.7,1007.62 C272,1008.62 272.9,1008.82 273.5,1008.82 C273.6,1008.82 273.9,1008.72 274,1008.72 C274.1,1008.72 285.5,1004.02 294.6,996.917 C299.7,993.217 304.3,989.217 308.3,984.917 C311.9,981.017 315,976.817 317.5,972.617 C321.9,965.117 324.4,957.317 324.4,950.617 C324.4,942.317 322.2,935.417 318.1,930.517 C313.4,924.917 306.3,922.017 297,922.017 M328.4,934.717 C328.4,937.517 330.6,939.717 333.2,939.717 C335.8,939.717 338,937.517 338,934.717 C338,931.917 335.8,929.617 333.2,929.617 C330.6,929.617 328.4,931.917 328.4,934.717 M328.4,959.417 C328.4,962.217 330.6,964.517 333.2,964.517 C335.8,964.517 338,962.217 338,959.417 C338,956.617 335.8,954.317 333.2,954.317 C330.6,954.317 328.4,956.617 328.4,959.417"/>
<path class="Clef" d="M1722.12,991.22 C1720.92,985.82 1718.22,981.92 1717.42,980.92 C1714.22,976.62 1710.22,973.82 1705.52,972.42 C1703.22,971.72 1701.12,971.52 1699.12,971.52 C1698.42,971.52 1697.72,971.52 1697.02,971.62 C1696.02,965.62 1694.92,959.72 1694.02,954.32 C1699.62,948.12 1703.32,942.22 1705.72,937.82 C1709.32,931.12 1710.72,926.42 1710.82,926.22 C1712.02,923.22 1712.72,919.42 1712.72,914.92 C1712.72,912.22 1712.42,909.32 1712.02,906.32 C1710.92,899.22 1708.72,892.52 1706.22,888.82 C1704.92,886.92 1703.72,885.82 1702.52,885.82 C1701.32,885.82 1698.82,887.02 1695.92,889.82 C1693.62,892.02 1690.32,895.92 1687.72,901.92 C1685.42,907.32 1684.72,914.22 1684.72,920.12 C1684.72,921.92 1684.82,923.62 1684.92,925.22 C1685.12,928.82 1685.82,934.62 1686.42,938.22 C1686.42,938.32 1686.72,939.82 1687.12,942.42 L1686.42,943.12 C1685.42,944.12 1684.22,945.22 1682.82,946.62 C1681.92,947.52 1681.02,948.32 1680.02,949.32 C1671.52,957.52 1658.72,969.92 1658.72,989.02 C1658.72,993.72 1659.62,998.12 1661.42,1002.12 C1663.02,1005.72 1665.32,1009.02 1668.22,1011.92 C1675.72,1019.32 1685.92,1022.52 1693.02,1022.52 L1693.62,1022.52 C1696.52,1022.42 1699.22,1022.12 1701.62,1021.72 C1703.42,1031.32 1704.62,1038.42 1704.62,1043.72 C1704.62,1050.22 1703.02,1054.12 1699.12,1056.92 C1696.72,1058.62 1693.82,1059.72 1690.72,1059.82 L1689.92,1059.82 C1688.42,1059.82 1685.92,1059.42 1684.42,1059.02 C1684.42,1059.02 1684.12,1058.92 1684.12,1058.72 C1684.12,1058.52 1684.52,1058.52 1684.52,1058.52 C1686.42,1058.12 1690.02,1056.82 1692.42,1053.52 C1693.52,1052.02 1694.22,1049.72 1694.22,1047.22 C1694.22,1045.62 1693.92,1043.92 1693.22,1042.42 C1692.12,1040.02 1689.52,1037.02 1683.92,1036.62 L1682.82,1036.62 C1680.72,1036.62 1678.92,1037.12 1677.22,1038.12 C1675.42,1039.22 1673.82,1040.92 1672.82,1042.92 C1671.72,1044.92 1671.22,1047.12 1671.22,1049.32 C1671.22,1052.22 1672.12,1054.92 1673.92,1057.12 C1676.92,1060.72 1681.62,1063.02 1687.02,1063.62 C1687.72,1063.72 1688.82,1063.82 1689.52,1063.82 C1693.92,1063.82 1698.32,1062.62 1701.92,1060.42 C1705.62,1057.82 1707.72,1053.82 1708.42,1048.22 C1708.62,1046.92 1708.62,1045.52 1708.62,1044.02 C1708.62,1040.12 1708.12,1035.42 1707.12,1029.62 C1706.72,1027.52 1706.32,1024.52 1705.62,1020.72 C1711.42,1018.82 1715.52,1015.12 1719.32,1009.32 C1721.62,1005.32 1722.72,1001.22 1722.72,996.92 C1722.72,995.02 1722.52,993.12 1722.12,991.22 M1691.92,913.32 C1693.72,907.62 1696.42,904.22 1698.42,902.52 C1700.22,901.02 1701.82,900.32 1702.72,900.32 C1702.82,900.32 1703.02,900.42 1703.12,900.42 C1703.42,900.52 1703.82,901.02 1704.22,901.72 C1705.12,903.52 1706.02,906.82 1706.02,910.52 C1706.02,912.42 1705.82,914.42 1705.22,916.22 C1703.02,923.02 1698.42,930.32 1691.42,938.02 C1691.22,936.92 1691.02,935.92 1690.92,934.92 C1690.42,931.72 1690.12,928.52 1690.12,925.62 C1690.12,921.12 1690.72,917.02 1691.92,913.32 M1687.92,1017.42 C1683.32,1016.22 1678.82,1013.72 1675.02,1010.22 C1673.72,1009.02 1671.92,1006.82 1670.42,1003.42 C1669.12,1000.42 1668.42,997.32 1668.42,993.92 L1668.42,993.22 C1668.52,988.52 1669.82,983.72 1672.32,978.92 C1675.22,973.32 1679.72,967.82 1685.82,962.52 C1687.32,961.22 1688.72,959.92 1690.02,958.62 C1690.82,962.92 1691.52,967.62 1692.42,972.52 C1688.52,973.82 1683.82,976.82 1680.72,982.52 C1678.32,987.02 1677.62,990.92 1677.62,994.12 C1677.62,995.62 1677.82,997.02 1678.02,998.12 C1678.92,1002.62 1681.52,1006.32 1685.02,1008.42 C1685.82,1008.92 1689.12,1010.62 1691.12,1010.62 C1691.42,1010.62 1691.72,1010.62 1691.92,1010.52 C1692.22,1010.42 1692.52,1010.22 1692.62,1009.92 C1692.72,1009.72 1692.72,1009.52 1692.72,1009.32 C1692.72,1008.52 1691.92,1007.92 1690.62,1007.12 C1690.02,1006.72 1689.32,1006.32 1688.62,1005.82 C1686.02,1003.82 1684.52,1000.72 1684.52,997.32 C1684.52,996.32 1684.72,995.42 1684.92,994.42 C1685.42,992.42 1687.12,989.62 1688.62,988.22 C1690.32,986.72 1692.32,985.52 1694.72,984.92 C1696.72,996.12 1698.82,1007.22 1700.42,1015.62 C1700.52,1016.32 1700.72,1017.02 1700.82,1017.72 C1698.82,1018.12 1696.82,1018.32 1694.92,1018.32 C1692.52,1018.32 1690.22,1018.02 1687.92,1017.42 M1713.62,1007.22 C1712.42,1010.42 1709.92,1014.42 1704.82,1016.52 C1704.72,1016.12 1704.72,1015.62 1704.62,1015.22 C1703.12,1006.42 1701.22,995.52 1699.22,984.22 L1700.22,984.22 C1709.92,984.22 1713.82,991.42 1714.72,996.02 C1714.92,996.92 1715.02,998.12 1715.02,999.42 C1715.02,1001.72 1714.62,1004.52 1713.62,1007.22"/>
<path class="Clef" d="M335,1603.76 C333.8,1598.36 331.1,1594.46 330.3,1593.46 C327.1,1589.16 323.1,1586.36 318.4,1584.96 C316.1,1584.26 314,1584.06 312,1584.06 C311.3,1584.06 310.6,1584.06 309.9,1584.16 C308.9,1578.16 307.8,1572.26 306.9,1566.86 C312.5,1560.66 316.2,1554.76 318.6,1550.36 C322.2,1543.66 323.6,1538.96 323.7,1538.76 C324.9,1535.76 325.6,1531.96 325.6,1527.46 C325.6,1524.76 325.3,1521.86 324.9,1518.86 C323.8,1511.76 321.6,1505.06 319.1,1501.36 C317.8,1499.46 316.6,1498.36 315.4,1498.36 C314.2,1498.36 311.7,1499.56 308.8,1502.36 C306.5,1504.56 303.2,1508.46 300.6,1514.46 C298.3,1519.86 297.6,1526.76 297.6,1532.66 C297.6,1534.46 297.7,1536.16 297.8,1537.76 C298,1541.36 298.7,1547.16 299.3,1550.76 C299.3,1550.86 299.6,1552.36 300,1554.96 L299.3,1555.66 C298.3,1556.66 297.1,1557.76 295.7,1559.16 C294.8,1560.06 293.9,1560.86 292.9,1561.86 C284.4,1570.06 271.6,1582.46 271.6,1601.56 C271.6,1606.26 272.5,1610.66 274.3,1614.66 C275.9,1618.26 278.2,1621.56 281.1,1624.46 C288.6,1631.86 298.8,1635.06 305.9,1635.06 L306.5,1635.06 C309.4,1634.96 312.1,1634.66 314.5,1634.26 C316.3,1643.86 317.5,1650.96 317.5,1656.26 C317.5,1662.76 315.9,1666.66 312,1669.46 C309.6,1671.16 306.7,1672.26 303.6,1672.36 L302.8,1672.36 C301.3,1672.36 298.8,1671.96 297.3,1671.56 C297.3,1671.56 297,1671.46 297,1671.26 C297,1671.06 297.4,1671.06 297.4,1671.06 C299.3,1670.66 302.9,1669.36 305.3,1666.06 C306.4,1664.56 307.1,1662.26 307.1,1659.76 C307.1,1658.16 306.8,1656.46 306.1,1654.96 C305,1652.56 302.4,1649.56 296.8,1649.16 L295.7,1649.16 C293.6,1649.16 291.8,1649.66 290.1,1650.66 C288.3,1651.76 286.7,1653.46 285.7,1655.46 C284.6,1657.46 284.1,1659.66 284.1,1661.86 C284.1,1664.76 285,1667.46 286.8,1669.66 C289.8,1673.26 294.5,1675.56 299.9,1676.16 C300.6,1676.26 301.7,1676.36 302.4,1676.36 C306.8,1676.36 311.2,1675.16 314.8,1672.96 C318.5,1670.36 320.6,1666.36 321.3,1660.76 C321.5,1659.46 321.5,1658.06 321.5,1656.56 C321.5,1652.66 321,1647.96 320,1642.16 C319.6,1640.06 319.2,1637.06 318.5,1633.26 C324.3,1631.36 328.4,1627.66 332.2,1621.86 C334.5,1617.86 335.6,1613.76 335.6,1609.46 C335.6,1607.56 335.4,1605.66 335,1603.76 M304.8,1525.86 C306.6,1520.16 309.3,1516.76 311.3,1515.06 C313.1,1513.56 314.7,1512.86 315.6,1512.86 C315.7,1512.86 315.9,1512.96 316,1512.96 C316.3,1513.06 316.7,1513.56 317.1,1514.26 C318,1516.06 318.9,1519.36 318.9,1523.06 C318.9,1524.96 318.7,1526.96 318.1,1528.76 C315.9,1535.56 311.3,1542.86 304.3,1550.56 C304.1,1549.46 303.9,1548.46 303.8,1547.46 C303.3,1544.26 303,1541.06 303,1538.16 C303,1533.66 303.6,1529.56 304.8,1525.86 M300.8,1629.96 C296.2,1628.76 291.7,1626.26 287.9,1622.76 C286.6,1621.56 284.8,1619.36 283.3,1615.96 C282,1612.96 281.3,1609.86 281.3,1606.46 L281.3,1605.76 C281.4,1601.06 282.7,1596.26 285.2,1591.46 C288.1,1585.86 292.6,1580.36 298.7,1575.06 C300.2,1573.76 301.6,1572.46 302.9,1571.16 C303.7,1575.46 304.4,1580.16 305.3,1585.06 C301.4,1586.36 296.7,1589.36 293.6,1595.06 C291.2,1599.56 290.5,1603.46 290.5,1606.66 C290.5,1608.16 290.7,1609.56 290.9,1610.66 C291.8,1615.16 294.4,1618.86 297.9,1620.96 C298.7,1621.46 302,1623.16 304,1623.16 C304.3,1623.16 304.6,1623.16 304.8,1623.06 C305.1,1622.96 305.4,1622.76 305.5,1622.46 C305.6,1622.26 305.6,1622.06 305.6,1621.86 C305.6,1621.06 304.8,1620.46 303.5,1619.66 C302.9,1619.26 302.2,1618.86 301.5,1618.36 C298.9,1616.36 297.4,1613.26 297.4,1609.86 C297.4,1608.86 297.6,1607.96 297.8,1606.96 C298.3,1604.96 300,1602.16 301.5,1600.76 C303.2,1599.26 305.2,1598.06 307.6,1597.46 C309.6,1608.66 311.7,1619.76 313.3,1628.16 C313.4,1628.86 313.6,1629.56 313.7,1630.26 C311.7,1630.66 309.7,1630.86 307.8,1630.86 C305.4,1630.86 303.1,1630.56 300.8,1629.96 M326.5,1619.76 C325.3,1622.96 322.8,1626.96 317.7,1629.06 C317.6,1628.66 317.6,1628.16 317.5,1627.76 C316,1618.96 314.1,1608.06 312.1,1596.76 L313.1,1596.76 C322.8,1596.76 326.7,1603.96 327.6,1608.56 C327.8,1609.46 327.9,1610.66 327.9,1611.96 C327.9,1614.26 327.5,1617.06 326.5,1619.76"/>
<path class="Clef" d="M1075,1534.56 C1067.4,1534.56 1061.3,1538.96 1061.2,1538.96 C1055.4,1543.26 1053.1,1548.36 1052.2,1551.86 C1051.7,1553.66 1051.5,1555.46 1051.5,1557.16 C1051.5,1559.56 1051.9,1561.76 1052.8,1563.66 C1054,1566.36 1056.3,1568.26 1059.3,1569.26 C1060.5,1569.66 1061.8,1569.86 1063.1,1569.86 C1065.3,1569.86 1067.6,1569.26 1069.5,1568.16 C1072.6,1566.46 1074.5,1562.86 1074.5,1558.96 C1074.5,1555.46 1072.7,1552.26 1069.7,1550.36 C1067.6,1548.96 1065.6,1548.56 1063.9,1548.56 C1062.7,1548.56 1061.6,1548.76 1060.7,1549.06 C1059.7,1549.46 1058,1550.46 1057.2,1551.16 C1057.5,1549.26 1058.7,1546.36 1059.8,1544.76 C1060.9,1543.16 1063.1,1541.16 1064.8,1540.26 C1067.3,1538.86 1070.5,1538.26 1074,1538.26 C1084.2,1538.26 1089.2,1546.46 1089.2,1563.26 C1089.2,1572.56 1085.7,1581.46 1082.7,1587.36 C1079.4,1593.96 1075,1600.26 1071.1,1603.76 C1060.7,1613.26 1050.9,1617.76 1050.8,1617.76 C1050.8,1617.76 1049.3,1618.66 1049.7,1620.16 C1050,1621.16 1050.9,1621.36 1051.5,1621.36 C1051.6,1621.36 1051.9,1621.26 1052,1621.26 C1052.1,1621.26 1063.5,1616.56 1072.6,1609.46 C1077.7,1605.76 1082.3,1601.76 1086.3,1597.46 C1089.9,1593.56 1093,1589.36 1095.5,1585.16 C1099.9,1577.66 1102.4,1569.86 1102.4,1563.16 C1102.4,1554.86 1100.2,1547.96 1096.1,1543.06 C1091.4,1537.46 1084.3,1534.56 1075,1534.56 M1106.4,1547.26 C1106.4,1550.06 1108.6,1552.26 1111.2,1552.26 C1113.8,1552.26 1116,1550.06 1116,1547.26 C1116,1544.46 1113.8,1542.16 1111.2,1542.16 C1108.6,1542.16 1106.4,1544.46 1106.4,1547.26 M1106.4,1571.96 C1106.4,1574.76 1108.6,1577.06 1111.2,1577.06 C1113.8,1577.06 1116,1574.76 1116,1571.96 C1116,1569.16 1113.8,1566.86 1111.2,1566.86 C1108.6,1566.86 1106.4,1569.16 1106.4,1571.96"/>
<path class="Clef" d="M335,728.703 C333.8,723.303 331.1,719.403 330.3,718.403 C327.1,714.103 323.1,711.303 318.4,709.903 C316.1,709.203 314,709.003 312,709.003 C311.3,709.003 310.6,709.003 309.9,709.103 C308.9,703.103 307.8,697.203 306.9,691.803 C312.5,685.603 316.2,679.703 318.6,675.303 C322.2,668.603 323.6,663.903 323.7,663.703 C324.9,660.703 325.6,656.903 325.6,652.403 C325.6,649.703 325.3,646.803 324.9,643.803 C323.8,636.703 321.6,630.003 319.1,626.303 C317.8,624.403 316.6,623.303 315.4,623.303 C314.2,623.303 311.7,624.503 308.8,627.303 C306.5,629.503 303.2,633.403 300.6,639.403 C298.3,644.803 297.6,651.703 297.6,657.603 C297.6,659.403 297.7,661.103 297.8,662.703 C298,666.303 298.7,672.103 299.3,675.703 C299.3,675.803 299.6,677.303 300,679.903 L299.3,680.603 C298.3,681.603 297.1,682.703 295.7,684.103 C294.8,685.003 293.9,685.803 292.9,686.803 C284.4,695.003 271.6,707.403 271.6,726.503 C271.6,731.203 272.5,735.603 274.3,739.603 C275.9,743.203 278.2,746.503 281.1,749.403 C288.6,756.803 298.8,760.003 305.9,760.003 L306.5,760.003 C309.4,759.903 312.1,759.603 314.5,759.203 C316.3,768.803 317.5,775.903 317.5,781.203 C317.5,787.703 315.9,791.603 312,794.403 C309.6,796.103 306.7,797.203 303.6,797.303 L302.8,797.303 C301.3,797.303 298.8,796.903 297.3,796.503 C297.3,796.503 297,796.403 297,796.203 C297,796.003 297.4,796.003 297.4,796.003 C299.3,795.603 302.9,794.303 305.3,791.003 C306.4,789.503 307.1,787.203 307.1,784.703 C307.1,783.103 306.8,781.403 306.1,779.903 C305,777.503 302.4,774.503 296.8,774.103 L295.7,774.103 C293.6,774.103 291.8,774.603 290.1,775.603 C288.3,776.703 286.7,778.403 285.7,780.403 C284.6,782.403 284.1,784.603 284.1,786.803 C284.1,789.703 285,792.403 286.8,794.603 C289.8,798.203 294.5,800.503 299.9,801.103 C300.6,801.203 301.7,801.303 302.4,801.303 C306.8,801.303 311.2,800.103 314.8,797.903 C318.5,795.303 320.6,791.303 321.3,785.703 C321.5,784.403 321.5,783.003 321.5,781.503 C321.5,777.603 321,772.903 320,767.103 C319.6,765.003 319.2,762.003 318.5,758.203 C324.3,756.303 328.4,752.603 332.2,746.803 C334.5,742.803 335.6,738.703 335.6,734.403 C335.6,732.503 335.4,730.603 335,728.703 M304.8,650.803 C306.6,645.103 309.3,641.703 311.3,640.003 C313.1,638.503 314.7,637.803 315.6,637.803 C315.7,637.803 315.9,637.903 316,637.903 C316.3,638.003 316.7,638.503 317.1,639.203 C318,641.003 318.9,644.303 318.9,648.003 C318.9,649.903 318.7,651.903 318.1,653.703 C315.9,660.503 311.3,667.803 304.3,675.503 C304.1,674.403 303.9,673.403 303.8,672.403 C303.3,669.203 303,666.003 303,663.103 C303,658.603 303.6,654.503 304.8,650.803 M300.8,754.903 C296.2,753.703 291.7,751.203 287.9,747.703 C286.6,746.503 284.8,744.303 283.3,740.903 C282,737.903 281.3,734.803 281.3,731.403 L281.3,730.703 C281.4,726.003 282.7,721.203 285.2,716.403 C288.1,710.803 292.6,705.303 298.7,700.003 C300.2,698.703 301.6,697.403 302.9,696.103 C303.7,700.403 304.4,705.103 305.3,710.003 C301.4,711.303 296.7,714.303 293.6,720.003 C291.2,724.503 290.5,728.403 290.5,731.603 C290.5,733.103 290.7,734.503 290.9,735.603 C291.8,740.103 294.4,743.803 297.9,745.903 C298.7,746.403 302,748.103 304,748.103 C304.3,748.103 304.6,748.103 304.8,748.003 C305.1,747.903 305.4,747.703 305.5,747.403 C305.6,747.203 305.6,747.003 305.6,746.803 C305.6,746.003 304.8,745.403 303.5,744.603 C302.9,744.203 302.2,743.803 301.5,743.303 C298.9,741.303 297.4,738.203 297.4,734.803 C297.4,733.803 297.6,732.903 297.8,731.903 C298.3,729.903 300,727.103 301.5,725.703 C303.2,724.203 305.2,723.003 307.6,722.403 C309.6,733.603 311.7,744.703 313.3,753.103 C313.4,753.803 313.6,754.503 313.7,755.203 C311.7,755.603 309.7,755.803 307.8,755.803 C305.4,755.803 303.1,755.503 300.8,754.903 M326.5,744.703 C325.3,747.903 322.8,751.903 317.7,754.003 C317.6,753.603 317.6,753.103 317.5,752.703 C316,743.903 314.1,733.003 312.1,721.703 L313.1,721.703 C322.8,721.703 326.7,728.903 327.6,733.503 C327.8,734.403 327.9,735.603 327.9,736.903 C327.9,739.203 327.5,742.003 326.5,744.703"/>
<path class="Clef" d="M335,1341.24 C333.8,1335.84 331.1,1331.94 330.3,1330.94 C327.1,1326.64 323.1,1323.84 318.4,1322.44 C316.1,1321.74 314,1321.54 312,1321.54 C311.3,1321.54 310.6,1321.54 309.9,1321.64 C308.9,1315.64 307.8,1309.74 306.9,1304.34 C312.5,1298.14 316.2,1292.24 318.6,1287.84 C322.2,1281.14 323.6,1276.44 323.7,1276.24 C324.9,1273.24 325.6,1269.44 325.6,1264.94 C325.6,1262.24 325.3,1259.34 324.9,1256.34 C323.8,1249.24 321.6,1242.54 319.1,1238.84 C317.8,1236.94 316.6,1235.84 315.4,1235.84 C314.2,1235.84 311.7,1237.04 308.8,1239.84 C306.5,1242.04 303.2,1245.94 300.6,1251.94 C298.3,1257.34 297.6,1264.24 297.6,1270.14 C297.6,1271.94 297.7,1273.64 297.8,1275.24 C298,1278.84 298.7,1284.64 299.3,1288.24 C299.3,1288.34 299.6,1289.84 300,1292.44 L299.3,1293.14 C298.3,1294.14 297.1,1295.24 295.7,1296.64 C294.8,1297.54 293.9,1298.34 292.9,1299.34 C284.4,1307.54 271.6,1319.94 271.6,1339.04 C271.6,1343.74 272.5,1348.14 274.3,1352.14 C275.9,1355.74 278.2,1359.04 281.1,1361.94 C288.6,1369.34 298.8,1372.54 305.9,1372.54 L306.5,1372.54 C309.4,1372.44 312.1,1372.14 314.5,1371.74 C316.3,1381.34 317.5,1388.44 317.5,1393.74 C317.5,1400.24 315.9,1404.14 312,1406.94 C309.6,1408.64 306.7,1409.74 303.6,1409.84 L302.8,1409.84 C301.3,1409.84 298.8,1409.44 297.3,1409.04 C297.3,1409.04 297,1408.94 297,1408.74 C297,1408.54 297.4,1408.54 297.4,1408.54 C299.3,1408.14 302.9,1406.84 305.3,1403.54 C306.4,1402.04 307.1,1399.74 307.1,1397.24 C307.1,1395.64 306.8,1393.94 306.1,1392.44 C305,1390.04 302.4,1387.04 296.8,1386.64 L295.7,1386.64 C293.6,1386.64 291.8,1387.14 290.1,1388.14 C288.3,1389.24 286.7,1390.94 285.7,1392.94 C284.6,1394.94 284.1,1397.14 284.1,1399.34 C284.1,1402.24 285,1404.94 286.8,1407.14 C289.8,1410.74 294.5,1413.04 299.9,1413.64 C300.6,1413.74 301.7,1413.84 302.4,1413.84 C306.8,1413.84 311.2,1412.64 314.8,1410.44 C318.5,1407.84 320.6,1403.84 321.3,1398.24 C321.5,1396.94 321.5,1395.54 321.5,1394.04 C321.5,1390.14 321,1385.44 320,1379.64 C319.6,1377.54 319.2,1374.54 318.5,1370.74 C324.3,1368.84 328.4,1365.14 332.2,1359.34 C334.5,1355.34 335.6,1351.24 335.6,1346.94 C335.6,1345.04 335.4,1343.14 335,1341.24 M304.8,1263.34 C306.6,1257.64 309.3,1254.24 311.3,1252.54 C313.1,1251.04 314.7,1250.34 315.6,1250.34 C315.7,1250.34 315.9,1250.44 316,1250.44 C316.3,1250.54 316.7,1251.04 317.1,1251.74 C318,1253.54 318.9,1256.84 318.9,1260.54 C318.9,1262.44 318.7,1264.44 318.1,1266.24 C315.9,1273.04 311.3,1280.34 304.3,1288.04 C304.1,1286.94 303.9,1285.94 303.8,1284.94 C303.3,1281.74 303,1278.54 303,1275.64 C303,1271.14 303.6,1267.04 304.8,1263.34 M300.8,1367.44 C296.2,1366.24 291.7,1363.74 287.9,1360.24 C286.6,1359.04 284.8,1356.84 283.3,1353.44 C282,1350.44 281.3,1347.34 281.3,1343.94 L281.3,1343.24 C281.4,1338.54 282.7,1333.74 285.2,1328.94 C288.1,1323.34 292.6,1317.84 298.7,1312.54 C300.2,1311.24 301.6,1309.94 302.9,1308.64 C303.7,1312.94 304.4,1317.64 305.3,1322.54 C301.4,1323.84 296.7,1326.84 293.6,1332.54 C291.2,1337.04 290.5,1340.94 290.5,1344.14 C290.5,1345.64 290.7,1347.04 290.9,1348.14 C291.8,1352.64 294.4,1356.34 297.9,1358.44 C298.7,1358.94 302,1360.64 304,1360.64 C304.3,1360.64 304.6,1360.64 304.8,1360.54 C305.1,1360.44 305.4,1360.24 305.5,1359.94 C305.6,1359.74 305.6,1359.54 305.6,1359.34 C305.6,1358.54 304.8,1357.94 303.5,1357.14 C302.9,1356.74 302.2,1356.34 301.5,1355.84 C298.9,1353.84 297.4,1350.74 297.4,1347.34 C297.4,1346.34 297.6,1345.44 297.8,1344.44 C298.3,1342.44 300,1339.64 301.5,1338.24 C303.2,1336.74 305.2,1335.54 307.6,1334.94 C309.6,1346.14 311.7,1357.24 313.3,1365.64 C313.4,1366.34 313.6,1367.04 313.7,1367.74 C311.7,1368.14 309.7,1368.34 307.8,1368.34 C305.4,1368.34 303.1,1368.04 300.8,1367.44 M326.5,1357.24 C325.3,1360.44 322.8,1364.44 317.7,1366.54 C317.6,1366.14 317.6,1365.64 317.5,1365.24 C316,1356.44 314.1,1345.54 312.1,1334.24 L313.1,1334.24 C322.8,1334.24 326.7,1341.44 327.6,1346.04 C327.8,1346.94 327.9,1348.14 327.9,1349.44 C327.9,1351.74 327.5,1354.54 326.5,1357.24"/>
<path class="KeySig" d="M458.109,964.218 C457.509,960.318 455.109,956.618 450.009,956.618 C445.009,956.618 442.109,959.718 441.609,960.318 L442.009,928.218 C442.009,927.418 441.409,926.818 440.609,926.818 L439.409,926.818 C438.609,926.818 438.009,927.418 438.009,928.218 L438.509,988.318 C438.509,989.118 439.109,989.718 439.909,989.718 C440.109,989.718 440.509,989.618 440.709,989.518 C441.109,989.318 447.609,986.118 453.009,980.018 C456.809,975.718 458.309,970.818 458.309,966.718 C458.309,965.818 458.209,965.018 458.109,964.218 M451.209,968.118 C451.209,969.618 450.809,974.218 448.309,978.018 C446.609,980.618 443.209,983.318 441.309,984.818 L441.609,965.318 C441.809,964.418 443.309,961.518 447.309,961.518 C450.909,961.518 451.209,964.918 451.209,967.018 L451.209,968.118 "/>
<path class="KeySig" d="M433.107,1001.72 C432.507,997.821 430.107,994.121 425.007,994.121 C420.007,994.121 417.107,997.221 416.607,997.821 L417.007,965.721 C417.007,964.921 416.407,964.321 415.607,964.321 L414.407,964.321 C413.607,964.321 413.007,964.921 413.007,965.721 L413.507,1025.82 C413.507,1026.62 414.107,1027.22 414.907,1027.22 C415.107,1027.22 415.507,1027.12 415.707,1027.02 C416.107,1026.82 422.607,1023.62 428.007,1017.52 C431.807,1013.22 433.307,1008.32 433.307,1004.22 C433.307,1003.32 433.207,1002.52 433.107,1001.72 M426.207,1005.62 C426.207,1007.12 425.807,1011.72 423.307,1015.52 C421.607,1018.12 418.207,1020.82 416.307,1022.32 L416.607,1002.82 C416.807,1001.92 418.307,999.021 422.307,999.021 C425.907,999.021 426.207,1002.42 426.207,1004.52 L426.207,1005.62 "/>
<path class="KeySig" d="M408.106,951.717 C407.506,947.817 405.106,944.117 400.006,944.117 C395.006,944.117 392.106,947.217 391.606,947.817 L392.006,915.717 C392.006,914.917 391.406,914.317 390.606,914.317 L389.406,914.317 C388.606,914.317 388.006,914.917 388.006,915.717 L388.506,975.817 C388.506,976.617 389.106,977.217 389.906,977.217 C390.106,977.217 390.506,977.117 390.706,977.017 C391.106,976.817 397.606,973.617 403.006,967.517 C406.806,963.217 408.306,958.317 408.306,954.217 C408.306,953.317 408.206,952.517 408.106,951.717 M401.206,955.617 C401.206,957.117 400.806,961.717 398.306,965.517 C396.606,968.117 393.206,970.817 391.306,972.317 L391.606,952.817 C391.806,951.917 393.306,949.017 397.306,949.017 C400.906,949.017 401.206,952.417 401.206,954.517 L401.206,955.617 "/>
<path class="KeySig" d="M383.104,989.22 C382.504,985.32 380.104,981.62 375.004,981.62 C370.004,981.62 367.104,984.72 366.604,985.32 L367.004,953.22 C367.004,952.42 366.404,951.82 365.604,951.82 L364.404,951.82 C363.604,951.82 363.004,952.42 363.004,953.22 L363.504,1013.32 C363.504,1014.12 364.104,1014.72 364.904,1014.72 C365.104,1014.72 365.504,1014.62 365.704,1014.52 C366.104,1014.32 372.604,1011.12 378.004,1005.02 C381.804,1000.72 383.304,995.82 383.304,991.72 C383.304,990.82 383.204,990.02 383.104,989.22 M376.204,993.12 C376.204,994.62 375.804,999.22 373.304,1003.02 C371.604,1005.62 368.204,1008.32 366.304,1009.82 L366.604,990.32 C366.804,989.42 368.304,986.52 372.304,986.52 C375.904,986.52 376.204,989.92 376.204,992.02 L376.204,993.12 "/>
<path class="KeySig" d="M455.703,1551.76 C455.103,1547.86 452.703,1544.16 447.603,1544.16 C442.603,1544.16 439.703,1547.26 439.203,1547.86 L439.603,1515.76 C439.603,1514.96 439.003,1514.36 438.203,1514.36 L437.003,1514.36 C436.203,1514.36 435.603,1514.96 435.603,1515.76 L436.103,1575.86 C436.103,1576.66 436.703,1577.26 437.503,1577.26 C437.703,1577.26 438.103,1577.16 438.303,1577.06 C438.703,1576.86 445.203,1573.66 450.603,1567.56 C454.403,1563.26 455.903,1558.36 455.903,1554.26 C455.903,1553.36 455.803,1552.56 455.703,1551.76 M448.803,1555.66 C448.803,1557.16 448.403,1561.76 445.903,1565.56 C444.203,1568.16 440.803,1570.86 438.903,1572.36 L439.203,1552.86 C439.403,1551.96 440.903,1549.06 444.903,1549.06 C448.503,1549.06 448.803,1552.46 448.803,1554.56 L448.803,1555.66 "/>
<path class="KeySig" d="M430.701,1589.26 C430.101,1585.36 427.701,1581.66 422.601,1581.66 C417.601,1581.66 414.701,1584.76 414.201,1585.36 L414.601,1553.26 C414.601,1552.46 414.001,1551.86 413.201,1551.86 L412.001,1551.86 C411.201,1551.86 410.601,1552.46 410.601,1553.26 L411.101,1613.36 C411.101,1614.16 411.701,1614.76 412.501,1614.76 C412.701,1614.76 413.101,1614.66 413.301,1614.56 C413.701,1614.36 420.201,1611.16 425.601,1605.06 C429.401,1600.76 430.901,1595.86 430.901,1591.76 C430.901,1590.86 430.801,1590.06 430.701,1589.26 M423.801,1593.16 C423.801,1594.66 423.401,1599.26 420.901,1603.06 C419.201,1605.66 415.801,1608.36 413.901,1609.86 L414.201,1590.36 C414.401,1589.46 415.901,1586.56 419.901,1586.56 C423.501,1586.56 423.801,1589.96 423.801,1592.06 L423.801,1593.16 "/>
<path class="KeySig" d="M405.699,1539.25 C405.099,1535.35 402.699,1531.65 397.599,1531.65 C392.599,1531.65 389.699,1534.75 389.199,1535.35 L389.599,1503.25 C389.599,1502.45 388.999,1501.85 388.199,1501.85 L386.999,1501.85 C386.199,1501.85 385.599,1502.45 385.599,1503.25 L386.099,1563.35 C386.099,1564.15 386.699,1564.75 387.499,1564.75 C387.699,1564.75 388.099,1564.65 388.299,1564.55 C388.699,1564.35 395.199,1561.15 400.599,1555.05 C404.399,1550.75 405.899,1545.85 405.899,1541.75 C405.899,1540.85 405.799,1540.05 405.699,1539.25 M398.799,1543.15 C398.799,1544.65 398.399,1549.25 395.899,1553.05 C394.199,1555.65 390.799,1558.35 388.899,1559.85 L389.199,1540.35 C389.399,1539.45 390.899,1536.55 394.899,1536.55 C398.499,1536.55 398.799,1539.95 398.799,1542.05 L398.799,1543.15 "/>
<path class="KeySig" d="M380.698,1576.76 C380.098,1572.86 377.698,1569.16 372.598,1569.16 C367.598,1569.16 364.698,1572.26 364.198,1572.86 L364.598,1540.76 C364.598,1539.96 363.998,1539.36 363.198,1539.36 L361.998,1539.36 C361.198,1539.36 360.598,1539.96 360.598,1540.76 L361.098,1600.86 C361.098,1601.66 361.698,1602.26 362.498,1602.26 C362.698,1602.26 363.098,1602.16 363.298,1602.06 C363.698,1601.86 370.198,1598.66 375.598,1592.56 C379.398,1588.26 380.898,1583.36 380.898,1579.26 C380.898,1578.36 380.798,1577.56 380.698,1576.76 M373.798,1580.66 C373.798,1582.16 373.398,1586.76 370.898,1590.56 C369.198,1593.16 365.798,1595.86 363.898,1597.36 L364.198,1577.86 C364.398,1576.96 365.898,1574.06 369.898,1574.06 C373.498,1574.06 373.798,1577.46 373.798,1579.56 L373.798,1580.66 "/>
<path class="KeySig" d="M458.109,676.7 C457.509,672.8 455.109,669.1 450.009,669.1 C445.009,669.1 442.109,672.2 441.609,672.8 L442.009,640.7 C442.009,639.9 441.409,639.3 440.609,639.3 L439.409,639.3 C438.609,639.3 438.009,639.9 438.009,640.7 L438.509,700.8 C438.509,701.6 439.109,702.2 439.909,702.2 C440.109,702.2 440.509,702.1 440.709,702 C441.109,701.8 447.609,698.6 453.009,692.5 C456.809,688.2 458.309,683.3 458.309,679.2 C458.309,678.3 458.209,677.5 458.109,676.7 M451.209,680.6 C451.209,682.1 450.809,686.7 448.309,690.5 C446.609,693.1 443.209,695.8 441.309,697.3 L441.609,677.8 C441.809,676.9 443.309,674 447.309,674 C450.909,674 451.209,677.4 451.209,679.5 L451.209,680.6 "/>
<path class="KeySig" d="M433.107,714.202 C432.507,710.302 430.107,706.602 425.007,706.602 C420.007,706.602 417.107,709.702 416.607,710.302 L417.007,678.202 C417.007,677.402 416.407,676.802 415.607,676.802 L414.407,676.802 C413.607,676.802 413.007,677.402 413.007,678.202 L413.507,738.302 C413.507,739.102 414.107,739.702 414.907,739.702 C415.107,739.702 415.507,739.602 415.707,739.502 C416.107,739.302 422.607,736.102 428.007,730.002 C431.807,725.702 433.307,720.802 433.307,716.702 C433.307,715.802 433.207,715.002 433.107,714.202 M426.207,718.102 C426.207,719.602 425.807,724.202 423.307,728.002 C421.607,730.602 418.207,733.302 416.307,734.802 L416.607,715.302 C416.807,714.402 418.307,711.502 422.307,711.502 C425.907,711.502 426.207,714.902 426.207,717.002 L426.207,718.102 "/>
<path class="KeySig" d="M408.106,664.199 C407.506,660.299 405.106,656.599 400.006,656.599 C395.006,656.599 392.106,659.699 391.606,660.299 L392.006,628.199 C392.006,627.399 391.406,626.799 390.606,626.799 L389.406,626.799 C388.606,626.799 388.006,627.399 388.006,628.199 L388.506,688.299 C388.506,689.099 389.106,689.699 389.906,689.699 C390.106,689.699 390.506,689.599 390.706,689.499 C391.106,689.299 397.606,686.099 403.006,679.999 C406.806,675.699 408.306,670.799 408.306,666.699 C408.306,665.799 408.206,664.999 408.106,664.199 M401.206,668.099 C401.206,669.599 400.806,674.199 398.306,677.999 C396.606,680.599 393.206,683.299 391.306,684.799 L391.606,665.299 C391.806,664.399 393.306,661.499 397.306,661.499 C400.906,661.499 401.206,664.899 401.206,666.999 L401.206,668.099 "/>
<path class="KeySig" d="M383.104,701.702 C382.504,697.802 380.104,694.102 375.004,694.102 C370.004,694.102 367.104,697.202 366.604,697.802 L367.004,665.702 C367.004,664.902 366.404,664.302 365.604,664.302 L364.404,664.302 C363.604,664.302 363.004,664.902 363.004,665.702 L363.504,725.802 C363.504,726.602 364.104,727.202 364.904,727.202 C365.104,727.202 365.504,727.102 365.704,727.002 C366.104,726.802 372.604,723.602 378.004,717.502 C381.804,713.202 383.304,708.302 383.304,704.202 C383.304,703.302 383.204,702.502 383.104,701.702 M376.204,705.602 C376.204,707.102 375.804,711.702 373.304,715.502 C371.604,718.102 368.204,720.802 366.304,722.302 L366.604,702.802 C366.804,701.902 368.304,699.002 372.304,699.002 C375.904,699.002 376.204,702.402 376.204,704.502 L376.204,705.602 "/>
<path class="KeySig" d="M455.703,1289.24 C455.103,1285.34 452.703,1281.64 447.603,1281.64 C442.603,1281.64 439.703,1284.74 439.203,1285.34 L439.603,1253.24 C439.603,1252.44 439.003,1251.84 438.203,1251.84 L437.003,1251.84 C436.203,1251.84 435.603,1252.44 435.603,1253.24 L436.103,1313.34 C436.103,1314.14 436.703,1314.74 437.503,1314.74 C437.703,1314.74 438.103,1314.64 438.303,1314.54 C438.703,1314.34 445.203,1311.14 450.603,1305.04 C454.403,1300.74 455.903,1295.84 455.903,1291.74 C455.903,1290.84 455.803,1290.04 455.703,1289.24 M448.803,1293.14 C448.803,1294.64 448.403,1299.24 445.903,1303.04 C444.203,1305.64 440.803,1308.34 438.903,1309.84 L439.203,1290.34 C439.403,1289.44 440.903,1286.54 444.903,1286.54 C448.503,1286.54 448.803,1289.94 448.803,1292.04 L448.803,1293.14 "/>
<path class="KeySig" d="M430.701,1326.74 C430.101,1322.84 427.701,1319.14 422.601,1319.14 C417.601,1319.14 414.701,1322.24 414.201,1322.84 L414.601,1290.74 C414.601,1289.94 414.001,1289.34 413.201,1289.34 L412.001,1289.34 C411.201,1289.34 410.601,1289.94 410.601,1290.74 L411.101,1350.84 C411.101,1351.64 411.701,1352.24 412.501,1352.24 C412.701,1352.24 413.101,1352.14 413.301,1352.04 C413.701,1351.84 420.201,1348.64 425.601,1342.54 C429.401,1338.24 430.901,1333.34 430.901,1329.24 C430.901,1328.34 430.801,1327.54 430.701,1326.74 M423.801,1330.64 C423.801,1332.14 423.401,1336.74 420.901,1340.54 C419.201,1343.14 415.801,1345.84 413.901,1347.34 L414.201,1327.84 C414.401,1326.94 415.901,1324.04 419.901,1324.04 C423.501,1324.04 423.801,1327.44 423.801,1329.54 L423.801,1330.64 "/>
<path class="KeySig" d="M405.699,1276.74 C405.099,1272.84 402.699,1269.14 397.599,1269.14 C392.599,1269.14 389.699,1272.24 389.199,1272.84 L389.599,1240.74 C389.599,1239.94 388.999,1239.34 388.199,1239.34 L386.999,1239.34 C386.199,1239.34 385.599,1239.94 385.599,1240.74 L386.099,1300.84 C386.099,1301.64 386.699,1302.24 387.499,1302.24 C387.699,1302.24 388.099,1302.14 388.299,1302.04 C388.699,1301.84 395.199,1298.64 400.599,1292.54 C404.399,1288.24 405.899,1283.34 405.899,1279.24 C405.899,1278.34 405.799,1277.54 405.699,1276.74 M398.799,1280.64 C398.799,1282.14 398.399,1286.74 395.899,1290.54 C394.199,1293.14 390.799,1295.84 388.899,1297.34 L389.199,1277.84 C389.399,1276.94 390.899,1274.04 394.899,1274.04 C398.499,1274.04 398.799,1277.44 398.799,1279.54 L398.799,1280.64 "/>
<path class="KeySig" d="M380.698,1314.24 C380.098,1310.34 377.698,1306.64 372.598,1306.64 C367.598,1306.64 364.698,1309.74 364.198,1310.34 L364.598,1278.24 C364.598,1277.44 363.998,1276.84 363.198,1276.84 L361.998,1276.84 C361.198,1276.84 360.598,1277.44 360.598,1278.24 L361.098,1338.34 C361.098,1339.14 361.698,1339.74 362.498,1339.74 C362.698,1339.74 363.098,1339.64 363.298,1339.54 C363.698,1339.34 370.198,1336.14 375.598,1330.04 C379.398,1325.74 380.898,1320.84 380.898,1316.74 C380.898,1315.84 380.798,1315.04 380.698,1314.24 M373.798,1318.14 C373.798,1319.64 373.398,1324.24 370.898,1328.04 C369.198,1330.64 365.798,1333.34 363.898,1334.84 L364.198,1315.34 C364.398,1314.44 365.898,1311.54 369.898,1311.54 C373.498,1311.54 373.798,1314.94 373.798,1317.04 L373.798,1318.14 "/>
<path class="TimeSig" d="M485.505,960.516 L502.305,960.516 L502.305,967.816 L494.205,967.816 C493.405,967.816 492.805,968.416 492.805,969.216 L492.805,971.116 C492.805,971.916 493.405,972.416 494.205,972.416 L523.905,972.416 C524.705,972.416 525.305,971.916 525.305,971.116 L525.305,969.216 C525.305,968.416 524.705,967.816 523.905,967.816 L515.105,967.816 L515.105,960.516 L523.905,960.516 C524.705,960.516 525.305,959.916 525.305,959.116 L525.305,957.316 C525.305,956.516 524.705,955.916 523.905,955.916 L515.105,955.916 L515.105,940.216 C515.105,939.716 514.705,939.216 514.305,939.016 L513.205,938.416 C513.005,938.316 512.705,938.316 512.505,938.316 C512.205,938.316 511.805,938.416 511.605,938.616 L502.705,946.816 C502.505,947.016 502.305,947.516 502.305,947.816 L502.305,955.916 L491.005,955.916 C491.005,955.916 501.905,944.116 513.505,928.616 C514.305,927.516 513.905,926.516 513.705,926.316 L511.605,924.116 C511.405,923.916 510.905,923.716 510.605,923.716 L496.005,923.716 C495.305,923.716 494.805,924.316 494.705,924.916 C494.705,924.916 494.205,932.116 491.605,940.116 C489.005,948.116 486.205,952.916 483.605,956.516 C483.605,956.516 483.105,957.516 483.405,958.216 C483.705,958.916 484.405,960.016 484.405,960.016 C484.405,960.016 484.705,960.516 485.505,960.516"/>
<path class="TimeSig" d="M485.505,1009.12 L502.305,1009.12 L502.305,1016.42 L494.205,1016.42 C493.405,1016.42 492.805,1017.02 492.805,1017.82 L492.805,1019.72 C492.805,1020.52 493.405,1021.02 494.205,1021.02 L523.905,1021.02 C524.705,1021.02 525.305,1020.52 525.305,1019.72 L525.305,1017.82 C525.305,1017.02 524.705,1016.42 523.905,1016.42 L515.105,1016.42 L515.105,1009.12 L523.905,1009.12 C524.705,1009.12 525.305,1008.52 525.305,1007.72 L525.305,1005.92 C525.305,1005.12 524.705,1004.52 523.905,1004.52 L515.105,1004.52 L515.105,988.82 C515.105,988.32 514.705,987.82 514.305,987.62 L513.205,987.02 C513.005,986.92 512.705,986.92 512.505,986.92 C512.205,986.92 511.805,987.02 511.605,987.22 L502.705,995.42 C502.505,995.62 502.305,996.12 502.305,996.42 L502.305,1004.52 L491.005,1004.52 C491.005,1004.52 501.905,992.72 513.505,977.22 C514.305,976.12 513.905,975.12 513.705,974.92 L511.605,972.72 C511.405,972.52 510.905,972.32 510.605,972.32 L496.005,972.32 C495.305,972.32 494.805,972.92 494.705,973.52 C494.705,973.52 494.205,980.72 491.605,988.72 C489.005,996.72 486.205,1001.52 483.605,1005.12 C483.605,1005.12 483.105,1006.12 483.405,1006.82 C483.705,1007.52 484.405,1008.62 484.405,1008.62 C484.405,1008.62 484.705,1009.12 485.505,1009.12"/>
<path class="TimeSig" d="M485.505,697.999 L502.305,697.999 L502.305,705.299 L494.205,705.299 C493.405,705.299 492.805,705.899 492.805,706.699 L492.805,708.599 C492.805,709.399 493.405,709.899 494.205,709.899 L523.905,709.899 C524.705,709.899 525.305,709.399 525.305,708.599 L525.305,706.699 C525.305,705.899 524.705,705.299 523.905,705.299 L515.105,705.299 L515.105,697.999 L523.905,697.999 C524.705,697.999 525.305,697.399 525.305,696.599 L525.305,694.799 C525.305,693.999 524.705,693.399 523.905,693.399 L515.105,693.399 L515.105,677.699 C515.105,677.199 514.705,676.699 514.305,676.499 L513.205,675.899 C513.005,675.799 512.705,675.799 512.505,675.799 C512.205,675.799 511.805,675.899 511.605,676.099 L502.705,684.299 C502.505,684.499 502.305,684.999 502.305,685.299 L502.305,693.399 L491.005,693.399 C491.005,693.399 501.905,681.599 513.505,666.099 C514.305,664.999 513.905,663.999 513.705,663.799 L511.605,661.599 C511.405,661.399 510.905,661.199 510.605,661.199 L496.005,661.199 C495.305,661.199 494.805,661.799 494.705,662.399 C494.705,662.399 494.205,669.599 491.605,677.599 C489.005,685.599 486.205,690.399 483.605,693.999 C483.605,693.999 483.105,694.999 483.405,695.699 C483.705,696.399 484.405,697.499 484.405,697.499 C484.405,697.499 484.705,697.999 485.505,697.999"/>
<path class="TimeSig" d="M485.505,746.604 L502.305,746.604 L502.305,753.904 L494.205,753.904 C493.405,753.904 492.805,754.504 492.805,755.304 L492.805,757.204 C492.805,758.004 493.405,758.504 494.205,758.504 L523.905,758.504 C524.705,758.504 525.305,758.004 525.305,757.204 L525.305,755.304 C525.305,754.504 524.705,753.904 523.905,753.904 L515.105,753.904 L515.105,746.604 L523.905,746.604 C524.705,746.604 525.305,746.004 525.305,745.204 L525.305,743.404 C525.305,742.604 524.705,742.004 523.905,742.004 L515.105,742.004 L515.105,726.304 C515.105,725.804 514.705,725.304 514.305,725.104 L513.205,724.504 C513.005,724.404 512.705,724.404 512.505,724.404 C512.205,724.404 511.805,724.504 511.605,724.704 L502.705,732.904 C502.505,733.104 502.305,733.604 502.305,733.904 L502.305,742.004 L491.005,742.004 C491.005,742.004 501.905,730.204 513.505,714.704 C514.305,713.604 513.905,712.604 513.705,712.404 L511.605,710.204 C511.405,710.004 510.905,709.804 510.605,709.804 L496.005,709.804 C495.305,709.804 494.805,710.404 494.705,711.004 C494.705,711.004 494.205,718.204 491.605,726.204 C489.005,734.204 486.205,739.004 483.605,742.604 C483.605,742.604 483.105,743.604 483.405,744.304 C483.705,745.004 484.405,746.104 484.405,746.104 C484.405,746.104 484.705,746.604 485.505,746.604"/>
<path class="NoteDot" d="M2468.89,1622.16 C2468.89,1624.75 2470.99,1626.86 2473.59,1626.86 C2476.18,1626.86 2478.29,1624.75 2478.29,1622.16 C2478.29,1619.56 2476.18,1617.46 2473.59,1617.46 C2470.99,1617.46 2468.89,1619.56 2468.89,1622.16"/>
<path class="NoteDot" d="M2468.89,1409.65 C2468.89,1412.24 2470.99,1414.35 2473.59,1414.35 C2476.18,1414.35 2478.29,1412.24 2478.29,1409.65 C2478.29,1407.05 2476.18,1404.95 2473.59,1404.95 C2470.99,1404.95 2468.89,1407.05 2468.89,1409.65"/>
<path class="Page" d="M222.584,4035.06 C221.054,4036.9 216.914,4038.3 212.774,4038.39 L212.774,4040.32 L216.734,4040.32 C219.344,4040.37 219.614,4040.64 219.524,4043.16 L219.524,4061.2 C219.524,4063.5 219.524,4063.59 219.254,4063.99 C218.894,4064.44 218.039,4064.62 215.519,4064.62 L212.594,4064.62 L212.594,4066.74 L230.414,4066.74 L230.414,4064.62 L227.939,4064.62 C225.419,4064.62 224.564,4064.44 224.204,4063.99 C223.889,4063.59 223.889,4063.54 223.889,4061.2 L223.889,4042.62 C223.889,4040.1 223.979,4037.98 224.204,4035.06 L222.584,4035.06 M255.834,4057.02 L253.854,4057.02 L253.404,4059.31 C252.819,4062.24 252.459,4062.51 249.669,4062.51 L239.589,4062.51 C242.694,4059.27 243.729,4058.32 246.609,4056.07 C250.704,4052.92 252.459,4051.35 253.494,4050 C254.934,4048.02 255.654,4046.04 255.654,4043.83 C255.654,4038.7 251.424,4035.06 245.529,4035.06 C239.814,4035.06 235.449,4038.7 235.449,4043.52 C235.449,4046.35 236.889,4048.29 239.004,4048.29 C240.669,4048.29 241.794,4047.16 241.794,4045.54 C241.794,4044.42 241.164,4043.38 240.219,4042.98 C238.554,4042.3 238.464,4042.21 238.464,4041.63 C238.464,4040.95 238.914,4039.92 239.544,4039.15 C240.669,4037.76 242.514,4036.99 244.629,4036.99 C248.364,4036.99 250.569,4039.29 250.569,4043.07 C250.569,4046.4 248.994,4049.41 245.259,4053.37 C241.929,4056.88 239.859,4059.09 239.094,4059.94 C237.474,4061.83 236.664,4062.87 234.684,4065.48 L234.684,4066.74 L254.979,4066.74 L255.834,4057.02 "/>
<path class="Bracket" transform="matrix(3.62523,0,0,3.62523,214.469,1022.12)" d="M0.92002,-50 C2.69004,-51.88 6.2,-55.8 6.2,-63 C6.2,-72.1 2.25996,-81.32 2.25996,-86.97 C2.25996,-93.06 5.84004,-98.84 5.95,-99 C6.05996,-99.16 6.05,-99.39 5.94004,-99.46 C5.82998,-99.53 5.62002,-99.47 5.49004,-99.32 C5.35996,-99.17 0,-93.75 0,-85.6 C0,-76.75 3.5,-70.58 3.5,-59.07 C3.5,-56.89 2.55996,-53.36 0.1,-50.33 C-0.0799805,-50.17 -0.1,-49.89 0.0599609,-49.7 L0.0700195,-49.69 L0.1,-49.66 C2.55996,-46.63 3.5,-43.1 3.5,-40.92 C3.5,-29.4 0,-23.24 0,-14.39 C0,-6.25 5.35996,-0.8 5.49004,-0.659961 C5.62002,-0.52002 5.8,-0.42998 5.94004,-0.52002 C6.07998,-0.609961 6.07998,-0.77998 5.95,-0.97998 C5.82002,-1.17998 2.25996,-6.92002 2.25996,-13.01 C2.25996,-18.66 6.2,-27.9 6.2,-37 C6.2,-44.3 2.69004,-48.12 0.92002,-50"/>
<path class="Bracket" transform="matrix(3.62523,0,0,3.62523,214.469,1634.66)" d="M0.92002,-50 C2.69004,-51.88 6.2,-55.8 6.2,-63 C6.2,-72.1 2.25996,-81.32 2.25996,-86.97 C2.25996,-93.06 5.84004,-98.84 5.95,-99 C6.05996,-99.16 6.05,-99.39 5.94004,-99.46 C5.82998,-99.53 5.62002,-99.47 5.49004,-99.32 C5.35996,-99.17 0,-93.75 0,-85.6 C0,-76.75 3.5,-70.58 3.5,-59.07 C3.5,-56.89 2.55996,-53.36 0.1,-50.33 C-0.0799805,-50.17 -0.1,-49.89 0.0599609,-49.7 L0.0700195,-49.69 L0.1,-49.66 C2.55996,-46.63 3.5,-43.1 3.5,-40.92 C3.5,-29.4 0,-23.24 0,-14.39 C0,-6.25 5.35996,-0.8 5.49004,-0.659961 C5.62002,-0.52002 5.8,-0.42998 5.94004,-0.52002 C6.07998,-0.609961 6.07998,-0.77998 5.95,-0.97998 C5.82002,-1.17998 2.25996,-6.92002 2.25996,-13.01 C2.25996,-18.66 6.2,-27.9 6.2,-37 C6.2,-44.3 2.69004,-48.12 0.92002,-50"/>
</svg>