<?xml version="1.0" encoding="UTF-8" standalone="no"?>
<svg width="1000px" height="300px" viewBox="0 400 3040 900" xmlns="http://www.w3.org/2000/svg" xmlns:xlink="http://www.w3.org/1999/xlink" version="1.2" baseProfile="tiny">
 xmlns="http://www.w3.org/2000/svg" xmlns:xlink="http://www.w3.org/1999/xlink" version="1.2" baseProfile="tiny">
<title>exercises_scores (27)</title>
<desc>Generated by MuseScore 3.6.0</desc>
<polyline class="StaffLines" fill="none" stroke="#000000" stroke-width="2.75" stroke-linejoin="bevel" points="247.099,645.317 2764.63,645.317"/>
<polyline class="StaffLines" fill="none" stroke="#000000" stroke-width="2.75" stroke-linejoin="bevel" points="247.099,670.319 2764.63,670.319"/>
<polyline class="StaffLines" fill="none" stroke="#000000" stroke-width="2.75" stroke-linejoin="bevel" points="247.099,695.32 2764.63,695.32"/>
<polyline class="StaffLines" fill="none" stroke="#000000" stroke-width="2.75" stroke-linejoin="bevel" points="247.099,720.322 2764.63,720.322"/>
<polyline class="StaffLines" fill="none" stroke="#000000" stroke-width="2.75" stroke-linejoin="bevel" points="247.099,745.324 2764.63,745.324"/>
<polyline class="StaffLines" fill="none" stroke="#000000" stroke-width="2.75" stroke-linejoin="bevel" points="247.099,907.834 2764.63,907.834"/>
<polyline class="StaffLines" fill="none" stroke="#000000" stroke-width="2.75" stroke-linejoin="bevel" points="247.099,932.835 2764.63,932.835"/>
<polyline class="StaffLines" fill="none" stroke="#000000" stroke-width="2.75" stroke-linejoin="bevel" points="247.099,957.837 2764.63,957.837"/>
<polyline class="StaffLines" fill="none" stroke="#000000" stroke-width="2.75" stroke-linejoin="bevel" points="247.099,982.839 2764.63,982.839"/>
<polyline class="StaffLines" fill="none" stroke="#000000" stroke-width="2.75" stroke-linejoin="bevel" points="247.099,1007.84 2764.63,1007.84"/>
<path class="Text" d="M249.083,213.077 L246.803,213.077 L244.463,216.677 C240.563,213.617 237.923,212.597 233.543,212.597 C228.803,212.597 225.083,213.917 221.303,216.977 C215.363,221.777 212.603,227.837 212.603,235.937 C212.603,242.057 214.343,247.157 217.883,251.057 C221.603,255.257 227.123,257.717 232.883,257.717 C237.923,257.717 241.463,256.157 245.363,252.257 L247.583,257.657 L250.103,257.657 L250.103,244.457 C250.103,241.397 250.103,241.277 250.463,240.737 C251.003,240.077 252.083,239.897 255.503,239.897 L256.403,239.897 L256.403,237.077 L237.323,237.077 L237.323,239.897 L238.463,239.897 C243.503,239.897 243.923,240.197 243.923,243.557 C243.923,246.137 243.503,248.477 242.723,249.917 C241.223,252.857 237.383,254.897 233.483,254.897 C229.583,254.897 225.743,252.917 223.703,249.917 C221.483,246.557 220.523,242.357 220.523,235.937 C220.523,222.557 224.963,215.417 233.303,215.417 C240.143,215.417 244.883,220.337 247.343,229.937 L249.923,229.937 L249.083,213.077 M285.487,228.857 L274.807,229.517 L274.807,232.097 L277.267,232.097 C279.547,232.157 279.847,232.517 279.847,235.097 L279.847,249.437 L279.847,251.777 L279.847,252.257 C279.787,253.157 279.727,253.517 279.487,253.817 C279.067,254.357 277.927,254.597 275.347,254.657 L275.107,254.657 L275.107,256.817 L290.227,256.817 L290.227,254.657 L289.987,254.657 C286.027,254.537 285.487,254.237 285.487,252.017 L285.487,249.437 L285.487,240.917 C285.487,235.577 288.427,231.617 292.327,231.617 C295.747,231.617 297.487,234.077 297.487,238.937 L297.487,249.437 L297.487,252.317 C297.427,253.097 297.367,253.517 297.067,253.817 C296.707,254.357 295.507,254.597 292.927,254.657 L292.687,254.657 L292.687,256.817 L307.867,256.817 L307.867,254.657 L307.627,254.657 C303.667,254.537 303.127,254.237 303.127,252.077 L303.127,249.437 L303.127,241.457 C303.127,235.457 305.827,231.617 310.027,231.617 C313.447,231.617 315.127,234.197 315.127,239.597 L315.127,249.437 L315.127,252.257 C315.067,253.097 315.007,253.517 314.707,253.817 C314.347,254.357 313.147,254.597 310.567,254.657 L310.327,254.657 L310.327,256.817 L325.507,256.817 L325.507,254.657 L325.267,254.657 C321.307,254.537 320.767,254.237 320.767,252.017 L320.767,249.437 L320.767,238.397 C320.767,234.677 320.407,233.417 318.847,231.377 C317.107,229.157 314.647,227.957 311.767,227.957 C307.867,227.957 304.987,229.817 302.407,233.957 C301.387,230.357 298.147,227.957 294.127,227.957 C290.467,227.957 287.827,229.697 285.487,233.477 L285.487,228.857 M339.115,228.857 L327.835,229.517 L327.835,232.097 L330.895,232.097 C333.175,232.157 333.475,232.517 333.475,235.097 L333.475,249.437 L333.475,252.257 C333.415,253.157 333.355,253.517 333.115,253.817 C332.695,254.357 331.555,254.597 328.975,254.657 L328.555,254.657 L328.555,256.817 L344.095,256.817 L344.095,254.657 L343.675,254.657 C339.655,254.537 339.115,254.237 339.115,252.077 L339.115,249.437 L339.115,228.857 M336.295,213.917 C334.375,213.917 332.815,215.477 332.815,217.397 C332.815,219.317 334.375,220.877 336.235,220.877 C338.215,220.877 339.775,219.317 339.775,217.397 C339.775,215.477 338.215,213.917 336.295,213.917 M357.645,228.857 L347.265,229.517 L347.265,232.097 L349.425,232.097 C351.705,232.157 352.005,232.517 352.005,235.097 L352.005,249.437 L352.005,250.877 L352.005,252.257 C351.945,253.157 351.885,253.517 351.645,253.817 C351.225,254.357 350.085,254.597 347.505,254.657 L347.265,254.657 L347.265,256.817 L362.445,256.817 L362.445,254.657 L362.205,254.657 C358.185,254.537 357.645,254.237 357.645,252.077 L357.645,249.437 L357.645,243.197 C357.645,240.257 358.065,237.557 358.725,236.177 C359.985,233.477 362.685,231.617 365.265,231.617 C366.825,231.617 368.625,232.457 369.525,233.717 C370.425,235.037 370.845,236.837 370.845,239.717 L370.845,249.437 L370.845,252.257 C370.785,253.157 370.725,253.517 370.485,253.817 C370.065,254.357 368.865,254.597 366.285,254.657 L366.045,254.657 L366.045,256.817 L381.225,256.817 L381.225,254.657 L380.985,254.657 C377.025,254.537 376.485,254.237 376.485,252.077 L376.485,249.437 L376.485,240.017 C376.485,235.697 376.305,234.617 375.225,232.577 C373.725,229.697 370.725,227.957 367.125,227.957 C363.225,227.957 360.285,229.757 357.645,233.717 L357.645,228.857 M397.422,227.957 C390.042,227.957 384.342,234.497 384.342,242.897 C384.342,251.117 390.102,257.717 397.302,257.717 C404.502,257.717 410.262,251.117 410.262,242.837 C410.262,234.617 404.502,227.957 397.422,227.957 M397.422,230.537 C401.622,230.537 403.962,234.917 403.962,242.837 C403.962,250.817 401.622,255.137 397.302,255.137 C392.982,255.137 390.642,250.817 390.642,242.897 C390.642,234.737 392.922,230.537 397.422,230.537 M424.182,228.857 L413.562,229.517 L413.562,232.097 L416.022,232.097 C418.302,232.157 418.602,232.517 418.602,235.097 L418.602,249.437 L418.602,252.257 C418.542,253.157 418.482,253.517 418.242,253.817 C417.822,254.357 416.622,254.597 414.042,254.657 L413.802,254.657 L413.802,256.817 L429.822,256.817 L429.822,254.657 L428.742,254.657 C424.722,254.537 424.182,254.237 424.182,252.077 L424.182,249.437 L424.182,248.837 C424.242,238.757 427.842,231.077 432.522,230.837 C431.682,231.797 431.442,232.397 431.442,233.537 C431.442,235.457 432.822,236.837 434.742,236.837 C436.962,236.837 438.402,235.217 438.402,232.817 C438.402,229.877 436.362,227.957 433.182,227.957 C429.402,227.957 426.162,230.957 424.182,236.297 L424.182,228.857 "/>
<polyline class="BarLine" fill="none" stroke="#000000" stroke-width="4.50" stroke-linejoin="bevel" points="249.349,906.459 249.349,1009.22"/>
<polyline class="BarLine" fill="none" stroke="#000000" stroke-width="4.50" stroke-linejoin="bevel" points="991.719,906.459 991.719,1009.22"/>
<polyline class="BarLine" fill="none" stroke="#000000" stroke-width="4.50" stroke-linejoin="bevel" points="1613.94,906.459 1613.94,1009.22"/>
<polyline class="BarLine" fill="none" stroke="#000000" stroke-width="4.50" stroke-linejoin="bevel" points="2240.06,906.459 2240.06,1009.22"/>
<polyline class="BarLine" fill="none" stroke="#000000" stroke-width="4.50" stroke-linejoin="bevel" points="2734.88,906.459 2734.88,1009.22"/>
<polyline class="BarLine" fill="none" stroke="#000000" stroke-width="13.75" stroke-linejoin="bevel" points="2757.75,906.459 2757.75,1009.22"/>
<polyline class="BarLine" fill="none" stroke="#000000" stroke-width="4.50" stroke-linejoin="bevel" points="249.349,643.942 249.349,907.834"/>
<polyline class="BarLine" fill="none" stroke="#000000" stroke-width="4.50" stroke-linejoin="bevel" points="991.719,643.942 991.719,907.834"/>
<polyline class="BarLine" fill="none" stroke="#000000" stroke-width="4.50" stroke-linejoin="bevel" points="1613.94,643.942 1613.94,907.834"/>
<polyline class="BarLine" fill="none" stroke="#000000" stroke-width="4.50" stroke-linejoin="bevel" points="2240.06,643.942 2240.06,907.834"/>
<polyline class="BarLine" fill="none" stroke="#000000" stroke-width="4.50" stroke-linejoin="bevel" points="2734.88,643.942 2734.88,907.834"/>
<polyline class="BarLine" fill="none" stroke="#000000" stroke-width="13.75" stroke-linejoin="bevel" points="2757.75,643.942 2757.75,907.834"/>
<path class="Accidental" d="M715.787,887.433 C715.187,883.533 712.787,879.833 707.687,879.833 C702.687,879.833 699.787,882.933 699.287,883.533 L699.687,851.433 C699.687,850.633 699.087,850.033 698.287,850.033 L697.087,850.033 C696.287,850.033 695.687,850.633 695.687,851.433 L696.187,911.533 C696.187,912.333 696.787,912.933 697.587,912.933 C697.787,912.933 698.187,912.833 698.387,912.733 C698.787,912.533 705.287,909.333 710.687,903.233 C714.487,898.933 715.987,894.033 715.987,889.933 C715.987,889.033 715.887,888.233 715.787,887.433 M708.887,891.333 C708.887,892.833 708.487,897.433 705.987,901.233 C704.287,903.833 700.887,906.533 698.987,908.033 L699.287,888.533 C699.487,887.633 700.987,884.733 704.987,884.733 C708.587,884.733 708.887,888.133 708.887,890.233 L708.887,891.333 "/>
<path class="Accidental" d="M1164.14,849.931 C1163.54,846.031 1161.14,842.331 1156.04,842.331 C1151.04,842.331 1148.14,845.431 1147.64,846.031 L1148.04,813.931 C1148.04,813.131 1147.44,812.531 1146.64,812.531 L1145.44,812.531 C1144.64,812.531 1144.04,813.131 1144.04,813.931 L1144.54,874.031 C1144.54,874.831 1145.14,875.431 1145.94,875.431 C1146.14,875.431 1146.54,875.331 1146.74,875.231 C1147.14,875.031 1153.64,871.831 1159.04,865.731 C1162.84,861.431 1164.34,856.531 1164.34,852.431 C1164.34,851.531 1164.24,850.731 1164.14,849.931 M1157.24,853.831 C1157.24,855.331 1156.84,859.931 1154.34,863.731 C1152.64,866.331 1149.24,869.031 1147.34,870.531 L1147.64,851.031 C1147.84,850.131 1149.34,847.231 1153.34,847.231 C1156.94,847.231 1157.24,850.631 1157.24,852.731 L1157.24,853.831 "/>
<path class="Accidental" d="M1787.34,849.931 C1786.74,846.031 1784.34,842.331 1779.24,842.331 C1774.24,842.331 1771.34,845.431 1770.84,846.031 L1771.24,813.931 C1771.24,813.131 1770.64,812.531 1769.84,812.531 L1768.64,812.531 C1767.84,812.531 1767.24,813.131 1767.24,813.931 L1767.74,874.031 C1767.74,874.831 1768.34,875.431 1769.14,875.431 C1769.34,875.431 1769.74,875.331 1769.94,875.231 C1770.34,875.031 1776.84,871.831 1782.24,865.731 C1786.04,861.431 1787.54,856.531 1787.54,852.431 C1787.54,851.531 1787.44,850.731 1787.34,849.931 M1780.44,853.831 C1780.44,855.331 1780.04,859.931 1777.54,863.731 C1775.84,866.331 1772.44,869.031 1770.54,870.531 L1770.84,851.031 C1771.04,850.131 1772.54,847.231 1776.54,847.231 C1780.14,847.231 1780.44,850.631 1780.44,852.731 L1780.44,853.831 "/>
<path class="Accidental" d="M2284.17,887.433 C2283.57,883.533 2281.17,879.833 2276.07,879.833 C2271.07,879.833 2268.17,882.933 2267.67,883.533 L2268.07,851.433 C2268.07,850.633 2267.47,850.033 2266.67,850.033 L2265.47,850.033 C2264.67,850.033 2264.07,850.633 2264.07,851.433 L2264.57,911.533 C2264.57,912.333 2265.17,912.933 2265.97,912.933 C2266.17,912.933 2266.57,912.833 2266.77,912.733 C2267.17,912.533 2273.67,909.333 2279.07,903.233 C2282.87,898.933 2284.37,894.033 2284.37,889.933 C2284.37,889.033 2284.27,888.233 2284.17,887.433 M2277.27,891.333 C2277.27,892.833 2276.87,897.433 2274.37,901.233 C2272.67,903.833 2269.27,906.533 2267.37,908.033 L2267.67,888.533 C2267.87,887.633 2269.37,884.733 2273.37,884.733 C2276.97,884.733 2277.27,888.133 2277.27,890.233 L2277.27,891.333 "/>
<path class="Accidental" d="M715.787,687.42 C715.187,683.52 712.787,679.82 707.687,679.82 C702.687,679.82 699.787,682.92 699.287,683.52 L699.687,651.42 C699.687,650.62 699.087,650.02 698.287,650.02 L697.087,650.02 C696.287,650.02 695.687,650.62 695.687,651.42 L696.187,711.52 C696.187,712.32 696.787,712.92 697.587,712.92 C697.787,712.92 698.187,712.82 698.387,712.72 C698.787,712.52 705.287,709.32 710.687,703.22 C714.487,698.92 715.987,694.02 715.987,689.92 C715.987,689.02 715.887,688.22 715.787,687.42 M708.887,691.32 C708.887,692.82 708.487,697.42 705.987,701.22 C704.287,703.82 700.887,706.52 698.987,708.02 L699.287,688.52 C699.487,687.62 700.987,684.72 704.987,684.72 C708.587,684.72 708.887,688.12 708.887,690.22 L708.887,691.32 "/>
<path class="Accidental" d="M1172.89,649.918 C1172.29,646.018 1169.89,642.318 1164.79,642.318 C1159.79,642.318 1156.89,645.418 1156.39,646.018 L1156.79,613.918 C1156.79,613.118 1156.19,612.518 1155.39,612.518 L1154.19,612.518 C1153.39,612.518 1152.79,613.118 1152.79,613.918 L1153.29,674.018 C1153.29,674.818 1153.89,675.418 1154.69,675.418 C1154.89,675.418 1155.29,675.318 1155.49,675.218 C1155.89,675.018 1162.39,671.818 1167.79,665.718 C1171.59,661.418 1173.09,656.518 1173.09,652.418 C1173.09,651.518 1172.99,650.718 1172.89,649.918 M1165.99,653.818 C1165.99,655.318 1165.59,659.918 1163.09,663.718 C1161.39,666.318 1157.99,669.018 1156.09,670.518 L1156.39,651.018 C1156.59,650.118 1158.09,647.218 1162.09,647.218 C1165.69,647.218 1165.99,650.618 1165.99,652.718 L1165.99,653.818 "/>
<path class="Accidental" d="M1796.09,649.918 C1795.49,646.018 1793.09,642.318 1787.99,642.318 C1782.99,642.318 1780.09,645.418 1779.59,646.018 L1779.99,613.918 C1779.99,613.118 1779.39,612.518 1778.59,612.518 L1777.39,612.518 C1776.59,612.518 1775.99,613.118 1775.99,613.918 L1776.49,674.018 C1776.49,674.818 1777.09,675.418 1777.89,675.418 C1778.09,675.418 1778.49,675.318 1778.69,675.218 C1779.09,675.018 1785.59,671.818 1790.99,665.718 C1794.79,661.418 1796.29,656.518 1796.29,652.418 C1796.29,651.518 1796.19,650.718 1796.09,649.918 M1789.19,653.818 C1789.19,655.318 1788.79,659.918 1786.29,663.718 C1784.59,666.318 1781.19,669.018 1779.29,670.518 L1779.59,651.018 C1779.79,650.118 1781.29,647.218 1785.29,647.218 C1788.89,647.218 1789.19,650.618 1789.19,652.718 L1789.19,653.818 "/>
<path class="Accidental" d="M2284.17,687.42 C2283.57,683.52 2281.17,679.82 2276.07,679.82 C2271.07,679.82 2268.17,682.92 2267.67,683.52 L2268.07,651.42 C2268.07,650.62 2267.47,650.02 2266.67,650.02 L2265.47,650.02 C2264.67,650.02 2264.07,650.62 2264.07,651.42 L2264.57,711.52 C2264.57,712.32 2265.17,712.92 2265.97,712.92 C2266.17,712.92 2266.57,712.82 2266.77,712.72 C2267.17,712.52 2273.67,709.32 2279.07,703.22 C2282.87,698.92 2284.37,694.02 2284.37,689.92 C2284.37,689.02 2284.27,688.22 2284.17,687.42 M2277.27,691.32 C2277.27,692.82 2276.87,697.42 2274.37,701.22 C2272.67,703.82 2269.27,706.52 2267.37,708.02 L2267.67,688.52 C2267.87,687.62 2269.37,684.72 2273.37,684.72 C2276.97,684.72 2277.27,688.12 2277.27,690.22 L2277.27,691.32 "/>
<polyline class="LedgerLine" fill="none" stroke="#000000" stroke-width="4.00" stroke-linejoin="bevel" points="847.102,882.832 897.097,882.832"/>
<polyline class="LedgerLine" fill="none" stroke="#000000" stroke-width="4.00" stroke-linejoin="bevel" points="1026.47,882.832 1076.47,882.832"/>
<polyline class="LedgerLine" fill="none" stroke="#000000" stroke-width="4.00" stroke-linejoin="bevel" points="1170.59,882.832 1220.58,882.832"/>
<polyline class="LedgerLine" fill="none" stroke="#000000" stroke-width="4.00" stroke-linejoin="bevel" points="1170.59,857.831 1220.58,857.831"/>
<polyline class="LedgerLine" fill="none" stroke="#000000" stroke-width="4.00" stroke-linejoin="bevel" points="1314.71,882.832 1364.7,882.832"/>
<polyline class="LedgerLine" fill="none" stroke="#000000" stroke-width="4.00" stroke-linejoin="bevel" points="1314.71,857.831 1364.7,857.831"/>
<polyline class="LedgerLine" fill="none" stroke="#000000" stroke-width="4.00" stroke-linejoin="bevel" points="1458.82,882.832 1508.82,882.832"/>
<polyline class="LedgerLine" fill="none" stroke="#000000" stroke-width="4.00" stroke-linejoin="bevel" points="1458.82,857.831 1508.82,857.831"/>
<polyline class="LedgerLine" fill="none" stroke="#000000" stroke-width="4.00" stroke-linejoin="bevel" points="1458.82,832.829 1508.82,832.829"/>
<polyline class="LedgerLine" fill="none" stroke="#000000" stroke-width="4.00" stroke-linejoin="bevel" points="1648.69,882.832 1698.69,882.832"/>
<polyline class="LedgerLine" fill="none" stroke="#000000" stroke-width="4.00" stroke-linejoin="bevel" points="1648.69,857.831 1698.69,857.831"/>
<polyline class="LedgerLine" fill="none" stroke="#000000" stroke-width="4.00" stroke-linejoin="bevel" points="1793.79,882.832 1843.78,882.832"/>
<polyline class="LedgerLine" fill="none" stroke="#000000" stroke-width="4.00" stroke-linejoin="bevel" points="1793.79,857.831 1843.78,857.831"/>
<polyline class="LedgerLine" fill="none" stroke="#000000" stroke-width="4.00" stroke-linejoin="bevel" points="1938.88,882.832 1988.87,882.832"/>
<polyline class="LedgerLine" fill="none" stroke="#000000" stroke-width="4.00" stroke-linejoin="bevel" points="2083.97,882.832 2133.97,882.832"/>
<polyline class="Stem" fill="none" stroke="#000000" stroke-width="2.75" stroke-linejoin="bevel" points="456.377,923.855 456.377,1007.84"/>
<polyline class="Stem" fill="none" stroke="#000000" stroke-width="2.75" stroke-linejoin="bevel" points="589.994,911.354 589.994,995.339"/>
<polyline class="Stem" fill="none" stroke="#000000" stroke-width="2.75" stroke-linejoin="bevel" points="723.611,898.853 723.611,982.839"/>
<polyline class="Stem" fill="none" stroke="#000000" stroke-width="2.75" stroke-linejoin="bevel" points="857.227,886.352 857.227,970.338"/>
<polyline class="Stem" fill="none" stroke="#000000" stroke-width="2.75" stroke-linejoin="bevel" points="1036.6,873.852 1036.6,957.837"/>
<polyline class="Stem" fill="none" stroke="#000000" stroke-width="2.75" stroke-linejoin="bevel" points="1180.71,861.351 1180.71,957.837"/>
<polyline class="Stem" fill="none" stroke="#000000" stroke-width="2.75" stroke-linejoin="bevel" points="1324.83,848.85 1324.83,957.837"/>
<polyline class="Stem" fill="none" stroke="#000000" stroke-width="2.75" stroke-linejoin="bevel" points="1468.95,836.349 1468.95,957.837"/>
<polyline class="Stem" fill="none" stroke="#000000" stroke-width="2.75" stroke-linejoin="bevel" points="1658.82,848.85 1658.82,957.837"/>
<polyline class="Stem" fill="none" stroke="#000000" stroke-width="2.75" stroke-linejoin="bevel" points="1803.91,861.351 1803.91,957.837"/>
<polyline class="Stem" fill="none" stroke="#000000" stroke-width="2.75" stroke-linejoin="bevel" points="1949,873.852 1949,957.837"/>
<polyline class="Stem" fill="none" stroke="#000000" stroke-width="2.75" stroke-linejoin="bevel" points="2094.1,886.352 2094.1,970.338"/>
<polyline class="Stem" fill="none" stroke="#000000" stroke-width="2.75" stroke-linejoin="bevel" points="2291.99,898.853 2291.99,982.839"/>
<polyline class="Stem" fill="none" stroke="#000000" stroke-width="2.75" stroke-linejoin="bevel" points="2414.77,911.354 2414.77,995.339"/>
<polyline class="Stem" fill="none" stroke="#000000" stroke-width="2.75" stroke-linejoin="bevel" points="2537.55,923.775 2537.55,1007.84"/>
<polyline class="Stem" fill="none" stroke="#000000" stroke-width="2.75" stroke-linejoin="bevel" points="486.121,716.962 486.121,635.942"/>
<polyline class="Stem" fill="none" stroke="#000000" stroke-width="2.75" stroke-linejoin="bevel" points="619.738,704.461 619.738,626.566"/>
<polyline class="Stem" fill="none" stroke="#000000" stroke-width="2.75" stroke-linejoin="bevel" points="723.611,698.841 723.611,773.45"/>
<polyline class="Stem" fill="none" stroke="#000000" stroke-width="2.75" stroke-linejoin="bevel" points="857.227,686.34 857.227,764.075"/>
<polyline class="Stem" fill="none" stroke="#000000" stroke-width="2.75" stroke-linejoin="bevel" points="1036.6,673.839 1036.6,754.699"/>
<polyline class="Stem" fill="none" stroke="#000000" stroke-width="2.75" stroke-linejoin="bevel" points="1180.71,661.338 1180.71,745.324"/>
<polyline class="Stem" fill="none" stroke="#000000" stroke-width="2.75" stroke-linejoin="bevel" points="1324.83,648.837 1324.83,732.823"/>
<polyline class="Stem" fill="none" stroke="#000000" stroke-width="2.75" stroke-linejoin="bevel" points="1468.95,636.337 1468.95,720.322"/>
<polyline class="Stem" fill="none" stroke="#000000" stroke-width="2.75" stroke-linejoin="bevel" points="1658.82,648.837 1658.82,732.823"/>
<polyline class="Stem" fill="none" stroke="#000000" stroke-width="2.75" stroke-linejoin="bevel" points="1803.91,661.338 1803.91,745.324"/>
<polyline class="Stem" fill="none" stroke="#000000" stroke-width="2.75" stroke-linejoin="bevel" points="1949,673.839 1949,754.699"/>
<polyline class="Stem" fill="none" stroke="#000000" stroke-width="2.75" stroke-linejoin="bevel" points="2094.1,686.34 2094.1,764.075"/>
<polyline class="Stem" fill="none" stroke="#000000" stroke-width="2.75" stroke-linejoin="bevel" points="2291.99,698.841 2291.99,773.45"/>
<polyline class="Stem" fill="none" stroke="#000000" stroke-width="2.75" stroke-linejoin="bevel" points="2444.51,704.461 2444.51,626.566"/>
<polyline class="Stem" fill="none" stroke="#000000" stroke-width="2.75" stroke-linejoin="bevel" points="2567.3,716.882 2567.3,635.942"/>
<path class="Note" d="M486.502,912.135 C485.002,909.435 482.102,907.735 478.202,907.335 C477.602,907.235 477.102,907.235 476.502,907.235 C473.002,907.235 469.202,908.235 465.702,910.135 C459.102,913.735 455.002,919.635 455.002,924.735 C455.002,926.135 455.202,927.435 455.902,928.635 C457.402,931.335 460.402,933.035 464.302,933.435 C464.902,933.535 465.402,933.535 466.002,933.535 C469.502,933.535 473.202,932.535 476.702,930.635 C483.302,927.035 487.502,921.235 487.502,916.135 C487.502,914.735 487.202,913.335 486.502,912.135"/>
<path class="Note" d="M620.119,899.634 C618.619,896.934 615.719,895.234 611.819,894.834 C611.219,894.734 610.719,894.734 610.119,894.734 C606.619,894.734 602.819,895.734 599.319,897.634 C592.719,901.234 588.619,907.134 588.619,912.234 C588.619,913.634 588.819,914.934 589.519,916.134 C591.019,918.834 594.019,920.534 597.919,920.934 C598.519,921.034 599.019,921.034 599.619,921.034 C603.119,921.034 606.819,920.034 610.319,918.134 C616.919,914.534 621.119,908.734 621.119,903.634 C621.119,902.234 620.819,900.834 620.119,899.634"/>
<path class="Note" d="M753.736,887.133 C752.236,884.433 749.336,882.733 745.436,882.333 C744.836,882.233 744.336,882.233 743.736,882.233 C740.236,882.233 736.436,883.233 732.936,885.133 C726.336,888.733 722.236,894.633 722.236,899.733 C722.236,901.133 722.436,902.433 723.136,903.633 C724.636,906.333 727.636,908.033 731.536,908.433 C732.136,908.533 732.636,908.533 733.236,908.533 C736.736,908.533 740.436,907.533 743.936,905.633 C750.536,902.033 754.736,896.233 754.736,891.133 C754.736,889.733 754.436,888.333 753.736,887.133"/>
<path class="Note" d="M887.352,874.632 C885.852,871.932 882.952,870.232 879.052,869.832 C878.452,869.732 877.952,869.732 877.352,869.732 C873.852,869.732 870.052,870.732 866.552,872.632 C859.952,876.232 855.852,882.132 855.852,887.232 C855.852,888.632 856.052,889.932 856.752,891.132 C858.252,893.832 861.252,895.532 865.152,895.932 C865.752,896.032 866.252,896.032 866.852,896.032 C870.352,896.032 874.052,895.032 877.552,893.132 C884.152,889.532 888.352,883.732 888.352,878.632 C888.352,877.232 888.052,875.832 887.352,874.632"/>
<path class="Note" d="M1066.72,862.131 C1065.22,859.431 1062.32,857.731 1058.42,857.331 C1057.82,857.231 1057.32,857.231 1056.72,857.231 C1053.22,857.231 1049.42,858.231 1045.92,860.131 C1039.32,863.731 1035.22,869.631 1035.22,874.731 C1035.22,876.131 1035.42,877.431 1036.12,878.631 C1037.62,881.331 1040.62,883.031 1044.52,883.431 C1045.12,883.531 1045.62,883.531 1046.22,883.531 C1049.72,883.531 1053.42,882.531 1056.92,880.631 C1063.52,877.031 1067.72,871.231 1067.72,866.131 C1067.72,864.731 1067.42,863.331 1066.72,862.131"/>
<path class="Note" d="M1210.84,849.631 C1209.34,846.931 1206.44,845.231 1202.54,844.831 C1201.94,844.731 1201.44,844.731 1200.84,844.731 C1197.34,844.731 1193.54,845.731 1190.04,847.631 C1183.44,851.231 1179.34,857.131 1179.34,862.231 C1179.34,863.631 1179.54,864.931 1180.24,866.131 C1181.74,868.831 1184.74,870.531 1188.64,870.931 C1189.24,871.031 1189.74,871.031 1190.34,871.031 C1193.84,871.031 1197.54,870.031 1201.04,868.131 C1207.64,864.531 1211.84,858.731 1211.84,853.631 C1211.84,852.231 1211.54,850.831 1210.84,849.631"/>
<path class="Note" d="M1354.96,837.13 C1353.46,834.43 1350.56,832.73 1346.66,832.33 C1346.06,832.23 1345.56,832.23 1344.96,832.23 C1341.46,832.23 1337.66,833.23 1334.16,835.13 C1327.56,838.73 1323.46,844.63 1323.46,849.73 C1323.46,851.13 1323.66,852.43 1324.36,853.63 C1325.86,856.33 1328.86,858.03 1332.76,858.43 C1333.36,858.53 1333.86,858.53 1334.46,858.53 C1337.96,858.53 1341.66,857.53 1345.16,855.63 C1351.76,852.03 1355.96,846.23 1355.96,841.13 C1355.96,839.73 1355.66,838.33 1354.96,837.13"/>
<path class="Note" d="M1499.07,824.629 C1497.57,821.929 1494.67,820.229 1490.77,819.829 C1490.17,819.729 1489.67,819.729 1489.07,819.729 C1485.57,819.729 1481.77,820.729 1478.27,822.629 C1471.67,826.229 1467.57,832.129 1467.57,837.229 C1467.57,838.629 1467.77,839.929 1468.47,841.129 C1469.97,843.829 1472.97,845.529 1476.87,845.929 C1477.47,846.029 1477.97,846.029 1478.57,846.029 C1482.07,846.029 1485.77,845.029 1489.27,843.129 C1495.87,839.529 1500.07,833.729 1500.07,828.629 C1500.07,827.229 1499.77,825.829 1499.07,824.629"/>
<path class="Note" d="M1688.94,837.13 C1687.44,834.43 1684.54,832.73 1680.64,832.33 C1680.04,832.23 1679.54,832.23 1678.94,832.23 C1675.44,832.23 1671.64,833.23 1668.14,835.13 C1661.54,838.73 1657.44,844.63 1657.44,849.73 C1657.44,851.13 1657.64,852.43 1658.34,853.63 C1659.84,856.33 1662.84,858.03 1666.74,858.43 C1667.34,858.53 1667.84,858.53 1668.44,858.53 C1671.94,858.53 1675.64,857.53 1679.14,855.63 C1685.74,852.03 1689.94,846.23 1689.94,841.13 C1689.94,839.73 1689.64,838.33 1688.94,837.13"/>
<path class="Note" d="M1834.04,849.631 C1832.54,846.931 1829.64,845.231 1825.74,844.831 C1825.14,844.731 1824.64,844.731 1824.04,844.731 C1820.54,844.731 1816.74,845.731 1813.24,847.631 C1806.64,851.231 1802.54,857.131 1802.54,862.231 C1802.54,863.631 1802.74,864.931 1803.44,866.131 C1804.94,868.831 1807.94,870.531 1811.84,870.931 C1812.44,871.031 1812.94,871.031 1813.54,871.031 C1817.04,871.031 1820.74,870.031 1824.24,868.131 C1830.84,864.531 1835.04,858.731 1835.04,853.631 C1835.04,852.231 1834.74,850.831 1834.04,849.631"/>
<path class="Note" d="M1979.13,862.131 C1977.63,859.431 1974.73,857.731 1970.83,857.331 C1970.23,857.231 1969.73,857.231 1969.13,857.231 C1965.63,857.231 1961.83,858.231 1958.33,860.131 C1951.73,863.731 1947.63,869.631 1947.63,874.731 C1947.63,876.131 1947.83,877.431 1948.53,878.631 C1950.03,881.331 1953.03,883.031 1956.93,883.431 C1957.53,883.531 1958.03,883.531 1958.63,883.531 C1962.13,883.531 1965.83,882.531 1969.33,880.631 C1975.93,877.031 1980.13,871.231 1980.13,866.131 C1980.13,864.731 1979.83,863.331 1979.13,862.131"/>
<path class="Note" d="M2124.22,874.632 C2122.72,871.932 2119.82,870.232 2115.92,869.832 C2115.32,869.732 2114.82,869.732 2114.22,869.732 C2110.72,869.732 2106.92,870.732 2103.42,872.632 C2096.82,876.232 2092.72,882.132 2092.72,887.232 C2092.72,888.632 2092.92,889.932 2093.62,891.132 C2095.12,893.832 2098.12,895.532 2102.02,895.932 C2102.62,896.032 2103.12,896.032 2103.72,896.032 C2107.22,896.032 2110.92,895.032 2114.42,893.132 C2121.02,889.532 2125.22,883.732 2125.22,878.632 C2125.22,877.232 2124.92,875.832 2124.22,874.632"/>
<path class="Note" d="M2322.11,887.133 C2320.61,884.433 2317.71,882.733 2313.81,882.333 C2313.21,882.233 2312.71,882.233 2312.11,882.233 C2308.61,882.233 2304.81,883.233 2301.31,885.133 C2294.71,888.733 2290.61,894.633 2290.61,899.733 C2290.61,901.133 2290.81,902.433 2291.51,903.633 C2293.01,906.333 2296.01,908.033 2299.91,908.433 C2300.51,908.533 2301.01,908.533 2301.61,908.533 C2305.11,908.533 2308.81,907.533 2312.31,905.633 C2318.91,902.033 2323.11,896.233 2323.11,891.133 C2323.11,889.733 2322.81,888.333 2322.11,887.133"/>
<path class="Note" d="M2444.9,899.634 C2443.4,896.934 2440.5,895.234 2436.6,894.834 C2436,894.734 2435.5,894.734 2434.9,894.734 C2431.4,894.734 2427.6,895.734 2424.1,897.634 C2417.5,901.234 2413.4,907.134 2413.4,912.234 C2413.4,913.634 2413.6,914.934 2414.3,916.134 C2415.8,918.834 2418.8,920.534 2422.7,920.934 C2423.3,921.034 2423.8,921.034 2424.4,921.034 C2427.9,921.034 2431.6,920.034 2435.1,918.134 C2441.7,914.534 2445.9,908.734 2445.9,903.634 C2445.9,902.234 2445.6,900.834 2444.9,899.634"/>
<path class="Note" d="M2567.68,912.135 C2566.18,909.435 2563.28,907.735 2559.38,907.335 C2558.78,907.235 2558.28,907.235 2557.68,907.235 C2554.18,907.235 2550.38,908.235 2546.88,910.135 C2540.28,913.735 2536.18,919.535 2536.18,924.635 C2536.18,926.035 2536.58,927.435 2537.28,928.635 C2538.78,931.435 2541.58,933.035 2545.48,933.435 C2546.08,933.535 2546.58,933.535 2547.18,933.535 C2550.68,933.535 2554.48,932.535 2557.98,930.635 C2564.58,927.035 2568.68,921.135 2568.68,916.035 C2568.68,914.635 2568.38,913.335 2567.68,912.135 M2563.48,918.435 C2561.78,920.235 2558.58,922.535 2554.98,924.635 C2551.38,926.735 2547.68,928.435 2545.38,929.135 C2544.88,929.235 2544.28,929.335 2543.78,929.335 C2542.28,929.335 2540.98,928.635 2540.28,927.535 C2539.98,926.935 2539.78,926.335 2539.78,925.735 C2539.78,924.635 2540.28,923.535 2541.38,922.335 C2543.08,920.535 2546.28,918.135 2549.88,916.035 C2553.48,913.935 2557.18,912.235 2559.58,911.635 L2559.78,911.635 C2560.38,911.435 2560.88,911.335 2561.38,911.335 C2562.78,911.335 2563.88,911.935 2564.58,913.235 C2564.88,913.835 2565.08,914.335 2565.08,914.935 C2565.08,916.235 2564.38,917.535 2563.48,918.435"/>
<path class="Note" d="M486.502,712.122 C485.002,709.422 482.102,707.722 478.202,707.322 C477.602,707.222 477.102,707.222 476.502,707.222 C473.002,707.222 469.202,708.222 465.702,710.122 C459.102,713.722 455.002,719.622 455.002,724.722 C455.002,726.122 455.202,727.422 455.902,728.622 C457.402,731.322 460.402,733.022 464.302,733.422 C464.902,733.522 465.402,733.522 466.002,733.522 C469.502,733.522 473.202,732.522 476.702,730.622 C483.302,727.022 487.502,721.222 487.502,716.122 C487.502,714.722 487.202,713.322 486.502,712.122"/>
<path class="Note" d="M620.119,699.621 C618.619,696.921 615.719,695.221 611.819,694.821 C611.219,694.721 610.719,694.721 610.119,694.721 C606.619,694.721 602.819,695.721 599.319,697.621 C592.719,701.221 588.619,707.121 588.619,712.221 C588.619,713.621 588.819,714.921 589.519,716.121 C591.019,718.821 594.019,720.521 597.919,720.921 C598.519,721.021 599.019,721.021 599.619,721.021 C603.119,721.021 606.819,720.021 610.319,718.121 C616.919,714.521 621.119,708.721 621.119,703.621 C621.119,702.221 620.819,700.821 620.119,699.621"/>
<path class="Note" d="M753.736,687.12 C752.236,684.42 749.336,682.72 745.436,682.32 C744.836,682.22 744.336,682.22 743.736,682.22 C740.236,682.22 736.436,683.22 732.936,685.12 C726.336,688.72 722.236,694.62 722.236,699.72 C722.236,701.12 722.436,702.42 723.136,703.62 C724.636,706.32 727.636,708.02 731.536,708.42 C732.136,708.52 732.636,708.52 733.236,708.52 C736.736,708.52 740.436,707.52 743.936,705.62 C750.536,702.02 754.736,696.22 754.736,691.12 C754.736,689.72 754.436,688.32 753.736,687.12"/>
<path class="Note" d="M887.352,674.62 C885.852,671.92 882.952,670.22 879.052,669.82 C878.452,669.72 877.952,669.72 877.352,669.72 C873.852,669.72 870.052,670.72 866.552,672.62 C859.952,676.22 855.852,682.12 855.852,687.22 C855.852,688.62 856.052,689.92 856.752,691.12 C858.252,693.82 861.252,695.52 865.152,695.92 C865.752,696.02 866.252,696.02 866.852,696.02 C870.352,696.02 874.052,695.02 877.552,693.12 C884.152,689.52 888.352,683.72 888.352,678.62 C888.352,677.22 888.052,675.82 887.352,674.62"/>
<path class="Note" d="M1066.72,662.119 C1065.22,659.419 1062.32,657.719 1058.42,657.319 C1057.82,657.219 1057.32,657.219 1056.72,657.219 C1053.22,657.219 1049.42,658.219 1045.92,660.119 C1039.32,663.719 1035.22,669.619 1035.22,674.719 C1035.22,676.119 1035.42,677.419 1036.12,678.619 C1037.62,681.319 1040.62,683.019 1044.52,683.419 C1045.12,683.519 1045.62,683.519 1046.22,683.519 C1049.72,683.519 1053.42,682.519 1056.92,680.619 C1063.52,677.019 1067.72,671.219 1067.72,666.119 C1067.72,664.719 1067.42,663.319 1066.72,662.119"/>
<path class="Note" d="M1210.84,649.618 C1209.34,646.918 1206.44,645.218 1202.54,644.818 C1201.94,644.718 1201.44,644.718 1200.84,644.718 C1197.34,644.718 1193.54,645.718 1190.04,647.618 C1183.44,651.218 1179.34,657.118 1179.34,662.218 C1179.34,663.618 1179.54,664.918 1180.24,666.118 C1181.74,668.818 1184.74,670.518 1188.64,670.918 C1189.24,671.018 1189.74,671.018 1190.34,671.018 C1193.84,671.018 1197.54,670.018 1201.04,668.118 C1207.64,664.518 1211.84,658.718 1211.84,653.618 C1211.84,652.218 1211.54,650.818 1210.84,649.618"/>
<path class="Note" d="M1354.96,637.117 C1353.46,634.417 1350.56,632.717 1346.66,632.317 C1346.06,632.217 1345.56,632.217 1344.96,632.217 C1341.46,632.217 1337.66,633.217 1334.16,635.117 C1327.56,638.717 1323.46,644.617 1323.46,649.717 C1323.46,651.117 1323.66,652.417 1324.36,653.617 C1325.86,656.317 1328.86,658.017 1332.76,658.417 C1333.36,658.517 1333.86,658.517 1334.46,658.517 C1337.96,658.517 1341.66,657.517 1345.16,655.617 C1351.76,652.017 1355.96,646.217 1355.96,641.117 C1355.96,639.717 1355.66,638.317 1354.96,637.117"/>
<path class="Note" d="M1499.07,624.616 C1497.57,621.916 1494.67,620.216 1490.77,619.816 C1490.17,619.716 1489.67,619.716 1489.07,619.716 C1485.57,619.716 1481.77,620.716 1478.27,622.616 C1471.67,626.216 1467.57,632.116 1467.57,637.216 C1467.57,638.616 1467.77,639.916 1468.47,641.116 C1469.97,643.816 1472.97,645.516 1476.87,645.916 C1477.47,646.016 1477.97,646.016 1478.57,646.016 C1482.07,646.016 1485.77,645.016 1489.27,643.116 C1495.87,639.516 1500.07,633.716 1500.07,628.616 C1500.07,627.216 1499.77,625.816 1499.07,624.616"/>
<path class="Note" d="M1688.94,637.117 C1687.44,634.417 1684.54,632.717 1680.64,632.317 C1680.04,632.217 1679.54,632.217 1678.94,632.217 C1675.44,632.217 1671.64,633.217 1668.14,635.117 C1661.54,638.717 1657.44,644.617 1657.44,649.717 C1657.44,651.117 1657.64,652.417 1658.34,653.617 C1659.84,656.317 1662.84,658.017 1666.74,658.417 C1667.34,658.517 1667.84,658.517 1668.44,658.517 C1671.94,658.517 1675.64,657.517 1679.14,655.617 C1685.74,652.017 1689.94,646.217 1689.94,641.117 C1689.94,639.717 1689.64,638.317 1688.94,637.117"/>
<path class="Note" d="M1834.04,649.618 C1832.54,646.918 1829.64,645.218 1825.74,644.818 C1825.14,644.718 1824.64,644.718 1824.04,644.718 C1820.54,644.718 1816.74,645.718 1813.24,647.618 C1806.64,651.218 1802.54,657.118 1802.54,662.218 C1802.54,663.618 1802.74,664.918 1803.44,666.118 C1804.94,668.818 1807.94,670.518 1811.84,670.918 C1812.44,671.018 1812.94,671.018 1813.54,671.018 C1817.04,671.018 1820.74,670.018 1824.24,668.118 C1830.84,664.518 1835.04,658.718 1835.04,653.618 C1835.04,652.218 1834.74,650.818 1834.04,649.618"/>
<path class="Note" d="M1979.13,662.119 C1977.63,659.419 1974.73,657.719 1970.83,657.319 C1970.23,657.219 1969.73,657.219 1969.13,657.219 C1965.63,657.219 1961.83,658.219 1958.33,660.119 C1951.73,663.719 1947.63,669.619 1947.63,674.719 C1947.63,676.119 1947.83,677.419 1948.53,678.619 C1950.03,681.319 1953.03,683.019 1956.93,683.419 C1957.53,683.519 1958.03,683.519 1958.63,683.519 C1962.13,683.519 1965.83,682.519 1969.33,680.619 C1975.93,677.019 1980.13,671.219 1980.13,666.119 C1980.13,664.719 1979.83,663.319 1979.13,662.119"/>
<path class="Note" d="M2124.22,674.62 C2122.72,671.92 2119.82,670.22 2115.92,669.82 C2115.32,669.72 2114.82,669.72 2114.22,669.72 C2110.72,669.72 2106.92,670.72 2103.42,672.62 C2096.82,676.22 2092.72,682.12 2092.72,687.22 C2092.72,688.62 2092.92,689.92 2093.62,691.12 C2095.12,693.82 2098.12,695.52 2102.02,695.92 C2102.62,696.02 2103.12,696.02 2103.72,696.02 C2107.22,696.02 2110.92,695.02 2114.42,693.12 C2121.02,689.52 2125.22,683.72 2125.22,678.62 C2125.22,677.22 2124.92,675.82 2124.22,674.62"/>
<path class="Note" d="M2322.11,687.12 C2320.61,684.42 2317.71,682.72 2313.81,682.32 C2313.21,682.22 2312.71,682.22 2312.11,682.22 C2308.61,682.22 2304.81,683.22 2301.31,685.12 C2294.71,688.72 2290.61,694.62 2290.61,699.72 C2290.61,701.12 2290.81,702.42 2291.51,703.62 C2293.01,706.32 2296.01,708.02 2299.91,708.42 C2300.51,708.52 2301.01,708.52 2301.61,708.52 C2305.11,708.52 2308.81,707.52 2312.31,705.62 C2318.91,702.02 2323.11,696.22 2323.11,691.12 C2323.11,689.72 2322.81,688.32 2322.11,687.12"/>
<path class="Note" d="M2444.9,699.621 C2443.4,696.921 2440.5,695.221 2436.6,694.821 C2436,694.721 2435.5,694.721 2434.9,694.721 C2431.4,694.721 2427.6,695.721 2424.1,697.621 C2417.5,701.221 2413.4,707.121 2413.4,712.221 C2413.4,713.621 2413.6,714.921 2414.3,716.121 C2415.8,718.821 2418.8,720.521 2422.7,720.921 C2423.3,721.021 2423.8,721.021 2424.4,721.021 C2427.9,721.021 2431.6,720.021 2435.1,718.121 C2441.7,714.521 2445.9,708.721 2445.9,703.621 C2445.9,702.221 2445.6,700.821 2444.9,699.621"/>
<path class="Note" d="M2567.68,712.122 C2566.18,709.422 2563.28,707.722 2559.38,707.322 C2558.78,707.222 2558.28,707.222 2557.68,707.222 C2554.18,707.222 2550.38,708.222 2546.88,710.122 C2540.28,713.722 2536.18,719.522 2536.18,724.622 C2536.18,726.022 2536.58,727.422 2537.28,728.622 C2538.78,731.422 2541.58,733.022 2545.48,733.422 C2546.08,733.522 2546.58,733.522 2547.18,733.522 C2550.68,733.522 2554.48,732.522 2557.98,730.622 C2564.58,727.022 2568.68,721.122 2568.68,716.022 C2568.68,714.622 2568.38,713.322 2567.68,712.122 M2563.48,718.422 C2561.78,720.222 2558.58,722.522 2554.98,724.622 C2551.38,726.722 2547.68,728.422 2545.38,729.122 C2544.88,729.222 2544.28,729.322 2543.78,729.322 C2542.28,729.322 2540.98,728.622 2540.28,727.522 C2539.98,726.922 2539.78,726.322 2539.78,725.722 C2539.78,724.622 2540.28,723.522 2541.38,722.322 C2543.08,720.522 2546.28,718.122 2549.88,716.022 C2553.48,713.922 2557.18,712.222 2559.58,711.622 L2559.78,711.622 C2560.38,711.422 2560.88,711.322 2561.38,711.322 C2562.78,711.322 2563.88,711.922 2564.58,713.222 C2564.88,713.822 2565.08,714.322 2565.08,714.922 C2565.08,716.222 2564.38,717.522 2563.48,718.422"/>
<path class="Clef" d="M297,907.735 C289.4,907.735 283.3,912.135 283.2,912.135 C277.4,916.435 275.1,921.535 274.2,925.035 C273.7,926.835 273.5,928.635 273.5,930.335 C273.5,932.735 273.9,934.935 274.8,936.835 C276,939.535 278.3,941.435 281.3,942.435 C282.5,942.835 283.8,943.035 285.1,943.035 C287.3,943.035 289.6,942.435 291.5,941.335 C294.6,939.635 296.5,936.035 296.5,932.135 C296.5,928.635 294.7,925.435 291.7,923.535 C289.6,922.135 287.6,921.735 285.9,921.735 C284.7,921.735 283.6,921.935 282.7,922.235 C281.7,922.635 280,923.635 279.2,924.335 C279.5,922.435 280.7,919.535 281.8,917.935 C282.9,916.335 285.1,914.335 286.8,913.435 C289.3,912.035 292.5,911.435 296,911.435 C306.2,911.435 311.2,919.635 311.2,936.435 C311.2,945.735 307.7,954.635 304.7,960.535 C301.4,967.135 297,973.435 293.1,976.935 C282.7,986.435 272.9,990.935 272.8,990.935 C272.8,990.935 271.3,991.835 271.7,993.335 C272,994.335 272.9,994.535 273.5,994.535 C273.6,994.535 273.9,994.435 274,994.435 C274.1,994.435 285.5,989.735 294.6,982.635 C299.7,978.935 304.3,974.935 308.3,970.635 C311.9,966.735 315,962.535 317.5,958.335 C321.9,950.835 324.4,943.035 324.4,936.335 C324.4,928.035 322.2,921.135 318.1,916.235 C313.4,910.635 306.3,907.735 297,907.735 M328.4,920.435 C328.4,923.235 330.6,925.435 333.2,925.435 C335.8,925.435 338,923.235 338,920.435 C338,917.635 335.8,915.335 333.2,915.335 C330.6,915.335 328.4,917.635 328.4,920.435 M328.4,945.135 C328.4,947.935 330.6,950.235 333.2,950.235 C335.8,950.235 338,947.935 338,945.135 C338,942.335 335.8,940.035 333.2,940.035 C330.6,940.035 328.4,942.335 328.4,945.135"/>
<path class="Clef" d="M335,714.422 C333.8,709.022 331.1,705.122 330.3,704.122 C327.1,699.822 323.1,697.022 318.4,695.622 C316.1,694.922 314,694.722 312,694.722 C311.3,694.722 310.6,694.722 309.9,694.822 C308.9,688.822 307.8,682.922 306.9,677.522 C312.5,671.322 316.2,665.422 318.6,661.022 C322.2,654.322 323.6,649.622 323.7,649.422 C324.9,646.422 325.6,642.622 325.6,638.122 C325.6,635.422 325.3,632.522 324.9,629.522 C323.8,622.422 321.6,615.722 319.1,612.022 C317.8,610.122 316.6,609.022 315.4,609.022 C314.2,609.022 311.7,610.222 308.8,613.022 C306.5,615.222 303.2,619.122 300.6,625.122 C298.3,630.522 297.6,637.422 297.6,643.322 C297.6,645.122 297.7,646.822 297.8,648.422 C298,652.022 298.7,657.822 299.3,661.422 C299.3,661.522 299.6,663.022 300,665.622 L299.3,666.322 C298.3,667.322 297.1,668.422 295.7,669.822 C294.8,670.722 293.9,671.522 292.9,672.522 C284.4,680.722 271.6,693.122 271.6,712.222 C271.6,716.922 272.5,721.322 274.3,725.322 C275.9,728.922 278.2,732.222 281.1,735.122 C288.6,742.522 298.8,745.722 305.9,745.722 L306.5,745.722 C309.4,745.622 312.1,745.322 314.5,744.922 C316.3,754.522 317.5,761.622 317.5,766.922 C317.5,773.422 315.9,777.322 312,780.122 C309.6,781.822 306.7,782.922 303.6,783.022 L302.8,783.022 C301.3,783.022 298.8,782.622 297.3,782.222 C297.3,782.222 297,782.122 297,781.922 C297,781.722 297.4,781.722 297.4,781.722 C299.3,781.322 302.9,780.022 305.3,776.722 C306.4,775.222 307.1,772.922 307.1,770.422 C307.1,768.822 306.8,767.122 306.1,765.622 C305,763.222 302.4,760.222 296.8,759.822 L295.7,759.822 C293.6,759.822 291.8,760.322 290.1,761.322 C288.3,762.422 286.7,764.122 285.7,766.122 C284.6,768.122 284.1,770.322 284.1,772.522 C284.1,775.422 285,778.122 286.8,780.322 C289.8,783.922 294.5,786.222 299.9,786.822 C300.6,786.922 301.7,787.022 302.4,787.022 C306.8,787.022 311.2,785.822 314.8,783.622 C318.5,781.022 320.6,777.022 321.3,771.422 C321.5,770.122 321.5,768.722 321.5,767.222 C321.5,763.322 321,758.622 320,752.822 C319.6,750.722 319.2,747.722 318.5,743.922 C324.3,742.022 328.4,738.322 332.2,732.522 C334.5,728.522 335.6,724.422 335.6,720.122 C335.6,718.222 335.4,716.322 335,714.422 M304.8,636.522 C306.6,630.822 309.3,627.422 311.3,625.722 C313.1,624.222 314.7,623.522 315.6,623.522 C315.7,623.522 315.9,623.622 316,623.622 C316.3,623.722 316.7,624.222 317.1,624.922 C318,626.722 318.9,630.022 318.9,633.722 C318.9,635.622 318.7,637.622 318.1,639.422 C315.9,646.222 311.3,653.522 304.3,661.222 C304.1,660.122 303.9,659.122 303.8,658.122 C303.3,654.922 303,651.722 303,648.822 C303,644.322 303.6,640.222 304.8,636.522 M300.8,740.622 C296.2,739.422 291.7,736.922 287.9,733.422 C286.6,732.222 284.8,730.022 283.3,726.622 C282,723.622 281.3,720.522 281.3,717.122 L281.3,716.422 C281.4,711.722 282.7,706.922 285.2,702.122 C288.1,696.522 292.6,691.022 298.7,685.722 C300.2,684.422 301.6,683.122 302.9,681.822 C303.7,686.122 304.4,690.822 305.3,695.722 C301.4,697.022 296.7,700.022 293.6,705.722 C291.2,710.222 290.5,714.122 290.5,717.322 C290.5,718.822 290.7,720.222 290.9,721.322 C291.8,725.822 294.4,729.522 297.9,731.622 C298.7,732.122 302,733.822 304,733.822 C304.3,733.822 304.6,733.822 304.8,733.722 C305.1,733.622 305.4,733.422 305.5,733.122 C305.6,732.922 305.6,732.722 305.6,732.522 C305.6,731.722 304.8,731.122 303.5,730.322 C302.9,729.922 302.2,729.522 301.5,729.022 C298.9,727.022 297.4,723.922 297.4,720.522 C297.4,719.522 297.6,718.622 297.8,717.622 C298.3,715.622 300,712.822 301.5,711.422 C303.2,709.922 305.2,708.722 307.6,708.122 C309.6,719.322 311.7,730.422 313.3,738.822 C313.4,739.522 313.6,740.222 313.7,740.922 C311.7,741.322 309.7,741.522 307.8,741.522 C305.4,741.522 303.1,741.222 300.8,740.622 M326.5,730.422 C325.3,733.622 322.8,737.622 317.7,739.722 C317.6,739.322 317.6,738.822 317.5,738.422 C316,729.622 314.1,718.722 312.1,707.422 L313.1,707.422 C322.8,707.422 326.7,714.622 327.6,719.222 C327.8,720.122 327.9,721.322 327.9,722.622 C327.9,724.922 327.5,727.722 326.5,730.422"/>
<path class="TimeSig" d="M365.2,946.235 L382,946.235 L382,953.535 L373.9,953.535 C373.1,953.535 372.5,954.135 372.5,954.935 L372.5,956.835 C372.5,957.635 373.1,958.135 373.9,958.135 L403.6,958.135 C404.4,958.135 405,957.635 405,956.835 L405,954.935 C405,954.135 404.4,953.535 403.6,953.535 L394.8,953.535 L394.8,946.235 L403.6,946.235 C404.4,946.235 405,945.635 405,944.835 L405,943.035 C405,942.235 404.4,941.635 403.6,941.635 L394.8,941.635 L394.8,925.935 C394.8,925.435 394.4,924.935 394,924.735 L392.9,924.135 C392.7,924.035 392.4,924.035 392.2,924.035 C391.9,924.035 391.5,924.135 391.3,924.335 L382.4,932.535 C382.2,932.735 382,933.235 382,933.535 L382,941.635 L370.7,941.635 C370.7,941.635 381.6,929.835 393.2,914.335 C394,913.235 393.6,912.235 393.4,912.035 L391.3,909.835 C391.1,909.635 390.6,909.435 390.3,909.435 L375.7,909.435 C375,909.435 374.5,910.035 374.4,910.635 C374.4,910.635 373.9,917.835 371.3,925.835 C368.7,933.835 365.9,938.635 363.3,942.235 C363.3,942.235 362.8,943.235 363.1,943.935 C363.4,944.635 364.1,945.735 364.1,945.735 C364.1,945.735 364.4,946.235 365.2,946.235"/>
<path class="TimeSig" d="M365.2,994.839 L382,994.839 L382,1002.14 L373.9,1002.14 C373.1,1002.14 372.5,1002.74 372.5,1003.54 L372.5,1005.44 C372.5,1006.24 373.1,1006.74 373.9,1006.74 L403.6,1006.74 C404.4,1006.74 405,1006.24 405,1005.44 L405,1003.54 C405,1002.74 404.4,1002.14 403.6,1002.14 L394.8,1002.14 L394.8,994.839 L403.6,994.839 C404.4,994.839 405,994.239 405,993.439 L405,991.639 C405,990.839 404.4,990.239 403.6,990.239 L394.8,990.239 L394.8,974.539 C394.8,974.039 394.4,973.539 394,973.339 L392.9,972.739 C392.7,972.639 392.4,972.639 392.2,972.639 C391.9,972.639 391.5,972.739 391.3,972.939 L382.4,981.139 C382.2,981.339 382,981.839 382,982.139 L382,990.239 L370.7,990.239 C370.7,990.239 381.6,978.439 393.2,962.939 C394,961.839 393.6,960.839 393.4,960.639 L391.3,958.439 C391.1,958.239 390.6,958.039 390.3,958.039 L375.7,958.039 C375,958.039 374.5,958.639 374.4,959.239 C374.4,959.239 373.9,966.439 371.3,974.439 C368.7,982.439 365.9,987.239 363.3,990.839 C363.3,990.839 362.8,991.839 363.1,992.539 C363.4,993.239 364.1,994.339 364.1,994.339 C364.1,994.339 364.4,994.839 365.2,994.839"/>
<path class="TimeSig" d="M365.2,683.718 L382,683.718 L382,691.018 L373.9,691.018 C373.1,691.018 372.5,691.618 372.5,692.418 L372.5,694.318 C372.5,695.118 373.1,695.618 373.9,695.618 L403.6,695.618 C404.4,695.618 405,695.118 405,694.318 L405,692.418 C405,691.618 404.4,691.018 403.6,691.018 L394.8,691.018 L394.8,683.718 L403.6,683.718 C404.4,683.718 405,683.118 405,682.318 L405,680.518 C405,679.718 404.4,679.118 403.6,679.118 L394.8,679.118 L394.8,663.418 C394.8,662.918 394.4,662.418 394,662.218 L392.9,661.618 C392.7,661.518 392.4,661.518 392.2,661.518 C391.9,661.518 391.5,661.618 391.3,661.818 L382.4,670.018 C382.2,670.218 382,670.718 382,671.018 L382,679.118 L370.7,679.118 C370.7,679.118 381.6,667.318 393.2,651.818 C394,650.718 393.6,649.718 393.4,649.518 L391.3,647.318 C391.1,647.118 390.6,646.918 390.3,646.918 L375.7,646.918 C375,646.918 374.5,647.518 374.4,648.118 C374.4,648.118 373.9,655.318 371.3,663.318 C368.7,671.318 365.9,676.118 363.3,679.718 C363.3,679.718 362.8,680.718 363.1,681.418 C363.4,682.118 364.1,683.218 364.1,683.218 C364.1,683.218 364.4,683.718 365.2,683.718"/>
<path class="TimeSig" d="M365.2,732.323 L382,732.323 L382,739.623 L373.9,739.623 C373.1,739.623 372.5,740.223 372.5,741.023 L372.5,742.923 C372.5,743.723 373.1,744.223 373.9,744.223 L403.6,744.223 C404.4,744.223 405,743.723 405,742.923 L405,741.023 C405,740.223 404.4,739.623 403.6,739.623 L394.8,739.623 L394.8,732.323 L403.6,732.323 C404.4,732.323 405,731.723 405,730.923 L405,729.123 C405,728.323 404.4,727.723 403.6,727.723 L394.8,727.723 L394.8,712.023 C394.8,711.523 394.4,711.023 394,710.823 L392.9,710.223 C392.7,710.123 392.4,710.123 392.2,710.123 C391.9,710.123 391.5,710.223 391.3,710.423 L382.4,718.623 C382.2,718.823 382,719.323 382,719.623 L382,727.723 L370.7,727.723 C370.7,727.723 381.6,715.923 393.2,700.423 C394,699.323 393.6,698.323 393.4,698.123 L391.3,695.923 C391.1,695.723 390.6,695.523 390.3,695.523 L375.7,695.523 C375,695.523 374.5,696.123 374.4,696.723 C374.4,696.723 373.9,703.923 371.3,711.923 C368.7,719.923 365.9,724.723 363.3,728.323 C363.3,728.323 362.8,729.323 363.1,730.023 C363.4,730.723 364.1,731.823 364.1,731.823 C364.1,731.823 364.4,732.323 365.2,732.323"/>
<path class="Page" d="M233.756,4056.38 L231.776,4056.38 L231.326,4058.67 C230.741,4061.6 230.381,4061.87 227.591,4061.87 L217.511,4061.87 C220.616,4058.63 221.651,4057.68 224.531,4055.43 C228.626,4052.28 230.381,4050.71 231.416,4049.36 C232.856,4047.38 233.576,4045.4 233.576,4043.19 C233.576,4038.06 229.346,4034.42 223.451,4034.42 C217.736,4034.42 213.371,4038.06 213.371,4042.88 C213.371,4045.71 214.811,4047.65 216.926,4047.65 C218.591,4047.65 219.716,4046.52 219.716,4044.9 C219.716,4043.78 219.086,4042.74 218.141,4042.34 C216.476,4041.66 216.386,4041.57 216.386,4040.99 C216.386,4040.31 216.836,4039.28 217.466,4038.51 C218.591,4037.12 220.436,4036.35 222.551,4036.35 C226.286,4036.35 228.491,4038.65 228.491,4042.43 C228.491,4045.76 226.916,4048.77 223.181,4052.73 C219.851,4056.24 217.781,4058.45 217.016,4059.3 C215.396,4061.19 214.586,4062.23 212.606,4064.84 L212.606,4066.1 L232.901,4066.1 L233.756,4056.38 M238.702,4045.31 L240.682,4045.62 L241.492,4042.07 C242.167,4039.1 242.482,4038.65 243.787,4038.65 C244.012,4038.65 244.372,4038.65 244.777,4038.69 C250.312,4038.96 250.312,4038.96 252.382,4038.96 C252.967,4038.96 254.002,4038.96 255.262,4038.92 L252.202,4045.08 C248.872,4051.7 248.467,4052.51 247.342,4055.3 C245.947,4058.67 245.227,4061.51 245.227,4063.4 C245.227,4065.47 246.307,4066.73 248.062,4066.73 C250.222,4066.73 251.077,4065.29 251.032,4061.37 C250.807,4054.89 251.617,4051.74 256.432,4041.21 C257.107,4039.77 257.782,4038.38 258.457,4036.98 C258.502,4036.89 258.637,4036.49 258.907,4035.9 L258.907,4034.6 C256.207,4034.82 254.767,4034.91 251.977,4034.91 C248.062,4034.91 244.957,4034.78 240.097,4034.42 L238.702,4045.31 "/>
<path class="Bracket" transform="matrix(3.62523,0,0,3.62523,214.469,1007.84)" d="M0.92002,-50 C2.69004,-51.88 6.2,-55.8 6.2,-63 C6.2,-72.1 2.25996,-81.32 2.25996,-86.97 C2.25996,-93.06 5.84004,-98.84 5.95,-99 C6.05996,-99.16 6.05,-99.39 5.94004,-99.46 C5.82998,-99.53 5.62002,-99.47 5.49004,-99.32 C5.35996,-99.17 0,-93.75 0,-85.6 C0,-76.75 3.5,-70.58 3.5,-59.07 C3.5,-56.89 2.55996,-53.36 0.1,-50.33 C-0.0799805,-50.17 -0.1,-49.89 0.0599609,-49.7 L0.0700195,-49.69 L0.1,-49.66 C2.55996,-46.63 3.5,-43.1 3.5,-40.92 C3.5,-29.4 0,-23.24 0,-14.39 C0,-6.25 5.35996,-0.8 5.49004,-0.659961 C5.62002,-0.52002 5.8,-0.42998 5.94004,-0.52002 C6.07998,-0.609961 6.07998,-0.77998 5.95,-0.97998 C5.82002,-1.17998 2.25996,-6.92002 2.25996,-13.01 C2.25996,-18.66 6.2,-27.9 6.2,-37 C6.2,-44.3 2.69004,-48.12 0.92002,-50"/>
</svg>