<?xml version="1.0" encoding="UTF-8" standalone="no"?>
<svg width="1000px" height="300px" viewBox="0 400 3040 900" xmlns="http://www.w3.org/2000/svg" xmlns:xlink="http://www.w3.org/1999/xlink" version="1.2" baseProfile="tiny">
 xmlns="http://www.w3.org/2000/svg" xmlns:xlink="http://www.w3.org/1999/xlink" version="1.2" baseProfile="tiny">
<title>exercises_scores (2)</title>
<desc>Generated by MuseScore 3.6.0</desc>
<polyline class="StaffLines" fill="none" stroke="#000000" stroke-width="2.75" stroke-linejoin="bevel" points="247.099,656.536 2764.63,656.536"/>
<polyline class="StaffLines" fill="none" stroke="#000000" stroke-width="2.75" stroke-linejoin="bevel" points="247.099,681.538 2764.63,681.538"/>
<polyline class="StaffLines" fill="none" stroke="#000000" stroke-width="2.75" stroke-linejoin="bevel" points="247.099,706.539 2764.63,706.539"/>
<polyline class="StaffLines" fill="none" stroke="#000000" stroke-width="2.75" stroke-linejoin="bevel" points="247.099,731.541 2764.63,731.541"/>
<polyline class="StaffLines" fill="none" stroke="#000000" stroke-width="2.75" stroke-linejoin="bevel" points="247.099,756.542 2764.63,756.542"/>
<polyline class="StaffLines" fill="none" stroke="#000000" stroke-width="2.75" stroke-linejoin="bevel" points="247.099,919.053 2764.63,919.053"/>
<polyline class="StaffLines" fill="none" stroke="#000000" stroke-width="2.75" stroke-linejoin="bevel" points="247.099,944.054 2764.63,944.054"/>
<polyline class="StaffLines" fill="none" stroke="#000000" stroke-width="2.75" stroke-linejoin="bevel" points="247.099,969.056 2764.63,969.056"/>
<polyline class="StaffLines" fill="none" stroke="#000000" stroke-width="2.75" stroke-linejoin="bevel" points="247.099,994.057 2764.63,994.057"/>
<polyline class="StaffLines" fill="none" stroke="#000000" stroke-width="2.75" stroke-linejoin="bevel" points="247.099,1019.06 2764.63,1019.06"/>
<path class="Text" d="M242.312,213.137 L240.092,213.137 L237.692,216.737 C234.812,214.037 231.032,212.597 226.772,212.597 C218.852,212.597 213.632,217.577 213.632,225.137 C213.632,231.677 216.872,234.917 225.692,237.197 L231.392,238.637 C235.832,239.777 236.252,239.897 237.512,240.857 C239.312,242.237 240.272,244.217 240.272,246.557 C240.272,248.957 239.372,250.937 237.572,252.617 C235.592,254.297 233.612,254.957 230.312,254.957 C225.872,254.957 222.692,253.577 219.872,250.457 C217.352,247.697 216.092,244.817 215.192,240.197 L212.612,240.197 L212.852,257.297 L215.192,257.297 L217.892,253.217 C221.912,256.517 225.212,257.717 230.492,257.717 C239.312,257.717 244.952,252.557 244.952,244.517 C244.952,240.737 243.752,237.617 241.352,235.337 C239.732,233.777 237.392,232.757 232.592,231.557 L226.172,229.937 C220.832,228.557 218.312,226.217 218.312,222.557 C218.312,218.357 221.732,215.477 226.832,215.477 C231.032,215.477 234.452,217.277 236.852,220.697 C238.592,223.157 239.732,225.677 240.452,228.737 L243.032,228.737 L242.312,213.137 M271.162,247.997 C269.242,252.317 267.202,254.057 264.082,254.057 C259.282,254.057 256.282,249.677 256.282,242.657 C256.282,235.337 259.222,230.537 263.662,230.537 C265.462,230.537 267.022,231.377 267.022,232.337 C267.022,232.517 266.962,232.697 266.662,233.057 C265.702,234.197 265.462,234.797 265.462,235.817 C265.462,237.797 266.962,239.177 269.062,239.177 C271.222,239.177 272.722,237.497 272.722,235.097 C272.722,231.017 268.702,227.957 263.362,227.957 C255.562,227.957 249.982,234.317 249.982,243.317 C249.982,251.837 255.082,257.717 262.522,257.717 C267.862,257.717 270.922,255.257 273.502,248.897 L271.162,247.997 M301.75,237.497 C301.75,233.717 301.09,231.797 299.35,230.357 C297.37,228.737 294.43,227.957 290.59,227.957 C283.81,227.957 278.89,231.137 278.89,235.517 C278.89,237.737 280.27,239.177 282.37,239.177 C284.29,239.177 285.61,237.917 285.61,236.117 C285.61,235.337 285.31,234.497 284.71,233.657 C284.35,233.237 284.29,233.117 284.29,232.817 C284.29,231.617 286.69,230.537 289.57,230.537 C291.49,230.537 293.59,231.137 294.55,232.037 C295.69,232.997 296.11,234.437 296.11,237.137 L296.11,239.477 C289.87,240.557 287.89,241.037 284.95,242.177 C279.73,244.097 277.27,246.857 277.27,250.697 C277.27,255.017 280.63,257.717 285.97,257.717 C290.11,257.717 293.83,256.037 296.41,252.977 C297.37,256.037 298.87,257.237 301.69,257.237 C304.39,257.237 307.21,255.497 307.21,253.757 C307.21,253.337 306.97,253.037 306.61,253.037 C306.37,253.037 306.13,253.097 305.71,253.277 C304.87,253.637 304.51,253.697 304.03,253.697 C302.35,253.697 301.75,252.617 301.75,249.557 L301.75,237.497 M296.11,244.817 C296.11,248.417 295.93,249.257 294.91,250.817 C293.41,253.037 290.71,254.537 288.07,254.537 C285.31,254.537 283.33,252.557 283.33,249.857 C283.33,247.337 284.59,245.537 287.23,244.277 C289.09,243.437 291.43,242.837 296.11,242.057 L296.11,244.817 M320.229,212.597 L309.129,213.257 L309.129,215.837 L312.069,215.837 C314.289,215.897 314.589,216.257 314.589,218.837 L314.589,249.437 L314.589,252.257 C314.529,253.157 314.469,253.517 314.229,253.817 C313.809,254.357 312.669,254.597 310.089,254.657 L309.669,254.657 L309.669,256.817 L325.209,256.817 L325.209,254.657 L324.789,254.657 C320.769,254.537 320.229,254.237 320.229,252.077 L320.229,249.437 L320.229,212.597 M354.78,243.317 C354.84,234.317 349.74,227.957 342.42,227.957 C334.74,227.957 328.98,234.617 328.98,243.617 C328.98,252.077 334.44,257.717 342.54,257.717 C348.3,257.717 352.32,254.897 354.78,249.197 L352.68,248.057 C350.22,252.677 347.7,254.477 343.68,254.477 C340.62,254.477 338.4,253.217 336.84,250.517 C335.76,248.717 335.28,246.617 335.34,243.317 L354.78,243.317 M335.4,240.737 C335.4,238.877 335.64,237.557 336.24,235.877 C337.5,232.277 339.42,230.537 342.36,230.537 C345.96,230.537 348.36,233.717 348.36,238.577 C348.36,240.257 347.82,240.737 345.9,240.737 L335.4,240.737 M366.601,250.157 C364.501,250.157 362.821,251.837 362.821,253.877 C362.821,255.977 364.501,257.657 366.541,257.657 C368.641,257.657 370.321,255.977 370.321,253.877 C370.321,251.837 368.641,250.157 366.601,250.157 M366.601,228.437 C364.501,228.437 362.821,230.117 362.821,232.217 C362.821,234.257 364.501,235.937 366.541,235.937 C368.641,235.937 370.321,234.257 370.321,232.157 C370.321,230.117 368.641,228.437 366.601,228.437 M430.005,213.077 L427.725,213.077 L425.385,216.677 C421.485,213.617 418.845,212.597 414.465,212.597 C409.725,212.597 406.005,213.917 402.225,216.977 C396.285,221.777 393.525,227.837 393.525,235.937 C393.525,242.057 395.265,247.157 398.805,251.057 C402.525,255.257 408.045,257.717 413.805,257.717 C418.845,257.717 422.385,256.157 426.285,252.257 L428.505,257.657 L431.025,257.657 L431.025,244.457 C431.025,241.397 431.025,241.277 431.385,240.737 C431.925,240.077 433.005,239.897 436.425,239.897 L437.325,239.897 L437.325,237.077 L418.245,237.077 L418.245,239.897 L419.385,239.897 C424.425,239.897 424.845,240.197 424.845,243.557 C424.845,246.137 424.425,248.477 423.645,249.917 C422.145,252.857 418.305,254.897 414.405,254.897 C410.505,254.897 406.665,252.917 404.625,249.917 C402.405,246.557 401.445,242.357 401.445,235.937 C401.445,222.557 405.885,215.417 414.225,215.417 C421.065,215.417 425.805,220.337 428.265,229.937 L430.845,229.937 L430.005,213.077 M466.408,228.857 L455.728,229.517 L455.728,232.097 L458.188,232.097 C460.468,232.157 460.768,232.517 460.768,235.097 L460.768,249.437 L460.768,251.777 L460.768,252.257 C460.708,253.157 460.648,253.517 460.408,253.817 C459.988,254.357 458.848,254.597 456.268,254.657 L456.028,254.657 L456.028,256.817 L471.148,256.817 L471.148,254.657 L470.908,254.657 C466.948,254.537 466.408,254.237 466.408,252.017 L466.408,249.437 L466.408,240.917 C466.408,235.577 469.348,231.617 473.248,231.617 C476.668,231.617 478.408,234.077 478.408,238.937 L478.408,249.437 L478.408,252.317 C478.348,253.097 478.288,253.517 477.988,253.817 C477.628,254.357 476.428,254.597 473.848,254.657 L473.608,254.657 L473.608,256.817 L488.788,256.817 L488.788,254.657 L488.548,254.657 C484.588,254.537 484.048,254.237 484.048,252.077 L484.048,249.437 L484.048,241.457 C484.048,235.457 486.748,231.617 490.948,231.617 C494.368,231.617 496.048,234.197 496.048,239.597 L496.048,249.437 L496.048,252.257 C495.988,253.097 495.928,253.517 495.628,253.817 C495.268,254.357 494.068,254.597 491.488,254.657 L491.248,254.657 L491.248,256.817 L506.428,256.817 L506.428,254.657 L506.188,254.657 C502.228,254.537 501.688,254.237 501.688,252.017 L501.688,249.437 L501.688,238.397 C501.688,234.677 501.328,233.417 499.768,231.377 C498.028,229.157 495.568,227.957 492.688,227.957 C488.788,227.957 485.908,229.817 483.328,233.957 C482.308,230.357 479.068,227.957 475.048,227.957 C471.388,227.957 468.748,229.697 466.408,233.477 L466.408,228.857 M534.797,237.497 C534.797,233.717 534.137,231.797 532.397,230.357 C530.417,228.737 527.477,227.957 523.637,227.957 C516.857,227.957 511.937,231.137 511.937,235.517 C511.937,237.737 513.317,239.177 515.417,239.177 C517.337,239.177 518.657,237.917 518.657,236.117 C518.657,235.337 518.357,234.497 517.757,233.657 C517.397,233.237 517.337,233.117 517.337,232.817 C517.337,231.617 519.737,230.537 522.617,230.537 C524.537,230.537 526.637,231.137 527.597,232.037 C528.737,232.997 529.157,234.437 529.157,237.137 L529.157,239.477 C522.917,240.557 520.937,241.037 517.997,242.177 C512.777,244.097 510.317,246.857 510.317,250.697 C510.317,255.017 513.677,257.717 519.017,257.717 C523.157,257.717 526.877,256.037 529.457,252.977 C530.417,256.037 531.917,257.237 534.737,257.237 C537.437,257.237 540.257,255.497 540.257,253.757 C540.257,253.337 540.017,253.037 539.657,253.037 C539.417,253.037 539.177,253.097 538.757,253.277 C537.917,253.637 537.557,253.697 537.077,253.697 C535.397,253.697 534.797,252.617 534.797,249.557 L534.797,237.497 M529.157,244.817 C529.157,248.417 528.977,249.257 527.957,250.817 C526.457,253.037 523.757,254.537 521.117,254.537 C518.357,254.537 516.377,252.557 516.377,249.857 C516.377,247.337 517.637,245.537 520.277,244.277 C522.137,243.437 524.477,242.837 529.157,242.057 L529.157,244.817 M551.722,228.857 L540.022,229.517 L540.022,232.097 L543.502,232.097 C545.782,232.157 546.082,232.517 546.082,235.097 L546.082,255.437 C546.082,260.297 545.782,262.577 544.942,264.317 C544.342,265.517 542.962,266.417 541.642,266.417 C540.802,266.417 540.142,266.057 540.142,265.637 C540.142,265.397 540.202,265.277 540.442,264.677 C540.742,264.077 540.862,263.657 540.862,263.237 C540.862,261.737 539.422,260.417 537.742,260.417 C535.822,260.417 534.382,261.917 534.382,264.017 C534.382,266.957 537.082,268.937 541.102,268.937 C544.462,268.937 547.522,267.497 549.262,265.037 C551.122,262.397 551.722,259.337 551.722,252.557 L551.722,228.857 M548.902,213.917 C546.982,213.917 545.422,215.477 545.422,217.397 C545.422,219.317 546.982,220.877 548.842,220.877 C550.822,220.877 552.382,219.317 552.382,217.397 C552.382,215.477 550.822,213.917 548.902,213.917 M572.172,227.957 C564.792,227.957 559.092,234.497 559.092,242.897 C559.092,251.117 564.852,257.717 572.052,257.717 C579.252,257.717 585.012,251.117 585.012,242.837 C585.012,234.617 579.252,227.957 572.172,227.957 M572.172,230.537 C576.372,230.537 578.712,234.917 578.712,242.837 C578.712,250.817 576.372,255.137 572.052,255.137 C567.732,255.137 565.392,250.817 565.392,242.897 C565.392,234.737 567.672,230.537 572.172,230.537 M598.932,228.857 L588.312,229.517 L588.312,232.097 L590.772,232.097 C593.052,232.157 593.352,232.517 593.352,235.097 L593.352,249.437 L593.352,252.257 C593.292,253.157 593.232,253.517 592.992,253.817 C592.572,254.357 591.372,254.597 588.792,254.657 L588.552,254.657 L588.552,256.817 L604.572,256.817 L604.572,254.657 L603.492,254.657 C599.472,254.537 598.932,254.237 598.932,252.077 L598.932,249.437 L598.932,248.837 C598.992,238.757 602.592,231.077 607.272,230.837 C606.432,231.797 606.192,232.397 606.192,233.537 C606.192,235.457 607.572,236.837 609.492,236.837 C611.712,236.837 613.152,235.217 613.152,232.817 C613.152,229.877 611.112,227.957 607.932,227.957 C604.152,227.957 600.912,230.957 598.932,236.297 L598.932,228.857 "/>
<polyline class="BarLine" fill="none" stroke="#000000" stroke-width="4.50" stroke-linejoin="bevel" points="249.349,917.677 249.349,1020.43"/>
<polyline class="BarLine" fill="none" stroke="#000000" stroke-width="4.50" stroke-linejoin="bevel" points="967.609,917.677 967.609,1020.43"/>
<polyline class="BarLine" fill="none" stroke="#000000" stroke-width="4.50" stroke-linejoin="bevel" points="1613,917.677 1613,1020.43"/>
<polyline class="BarLine" fill="none" stroke="#000000" stroke-width="4.50" stroke-linejoin="bevel" points="2241.51,917.677 2241.51,1020.43"/>
<polyline class="BarLine" fill="none" stroke="#000000" stroke-width="4.50" stroke-linejoin="bevel" points="2734.88,917.677 2734.88,1020.43"/>
<polyline class="BarLine" fill="none" stroke="#000000" stroke-width="13.75" stroke-linejoin="bevel" points="2757.75,917.677 2757.75,1020.43"/>
<polyline class="BarLine" fill="none" stroke="#000000" stroke-width="4.50" stroke-linejoin="bevel" points="249.349,655.161 249.349,919.053"/>
<polyline class="BarLine" fill="none" stroke="#000000" stroke-width="4.50" stroke-linejoin="bevel" points="967.609,655.161 967.609,919.053"/>
<polyline class="BarLine" fill="none" stroke="#000000" stroke-width="4.50" stroke-linejoin="bevel" points="1613,655.161 1613,919.053"/>
<polyline class="BarLine" fill="none" stroke="#000000" stroke-width="4.50" stroke-linejoin="bevel" points="2241.51,655.161 2241.51,919.053"/>
<polyline class="BarLine" fill="none" stroke="#000000" stroke-width="4.50" stroke-linejoin="bevel" points="2734.88,655.161 2734.88,919.053"/>
<polyline class="BarLine" fill="none" stroke="#000000" stroke-width="13.75" stroke-linejoin="bevel" points="2757.75,655.161 2757.75,919.053"/>
<path class="Accidental" d="M1294.83,845.949 C1295.43,845.849 1295.93,845.149 1295.93,844.549 L1295.93,838.649 C1295.93,837.849 1295.33,837.249 1294.53,837.249 L1294.33,837.249 L1291.03,837.949 L1291.03,823.049 L1288.23,823.049 L1288.23,838.549 L1279.33,840.349 L1279.33,826.249 L1276.53,826.249 L1276.53,840.949 L1272.63,841.749 C1272.03,841.849 1271.53,842.549 1271.53,843.149 L1271.53,843.349 L1271.53,849.149 L1271.53,848.949 C1271.53,849.749 1272.13,850.349 1272.93,850.349 L1273.23,850.349 L1276.53,849.649 L1276.53,866.149 L1272.63,866.949 C1272.03,867.049 1271.53,867.749 1271.53,868.349 L1271.53,874.149 C1271.53,874.949 1272.13,875.549 1272.93,875.549 L1273.23,875.549 L1276.53,874.849 L1276.53,889.749 L1279.33,889.749 L1279.33,874.249 L1288.23,872.449 L1288.23,886.549 L1291.03,886.549 L1291.03,871.849 L1294.83,871.149 C1295.43,871.049 1295.93,870.349 1295.93,869.749 L1295.93,863.849 C1295.93,863.049 1295.33,862.449 1294.53,862.449 L1294.33,862.449 L1291.03,863.149 L1291.03,846.649 L1294.83,845.949 M1279.33,865.649 L1279.33,849.049 L1288.23,847.249 L1288.23,863.749 L1279.33,865.649 "/>
<path class="Accidental" d="M1660.3,845.949 C1660.9,845.849 1661.4,845.149 1661.4,844.549 L1661.4,838.649 C1661.4,837.849 1660.8,837.249 1660,837.249 L1659.8,837.249 L1656.5,837.949 L1656.5,823.049 L1653.7,823.049 L1653.7,838.549 L1644.8,840.349 L1644.8,826.249 L1642,826.249 L1642,840.949 L1638.1,841.749 C1637.5,841.849 1637,842.549 1637,843.149 L1637,843.349 L1637,849.149 L1637,848.949 C1637,849.749 1637.6,850.349 1638.4,850.349 L1638.7,850.349 L1642,849.649 L1642,866.149 L1638.1,866.949 C1637.5,867.049 1637,867.749 1637,868.349 L1637,874.149 C1637,874.949 1637.6,875.549 1638.4,875.549 L1638.7,875.549 L1642,874.849 L1642,889.749 L1644.8,889.749 L1644.8,874.249 L1653.7,872.449 L1653.7,886.549 L1656.5,886.549 L1656.5,871.849 L1660.3,871.149 C1660.9,871.049 1661.4,870.349 1661.4,869.749 L1661.4,863.849 C1661.4,863.049 1660.8,862.449 1660,862.449 L1659.8,862.449 L1656.5,863.149 L1656.5,846.649 L1660.3,845.949 M1644.8,865.649 L1644.8,849.049 L1653.7,847.249 L1653.7,863.749 L1644.8,865.649 "/>
<path class="Accidental" d="M1303.58,645.936 C1304.18,645.836 1304.68,645.136 1304.68,644.536 L1304.68,638.636 C1304.68,637.836 1304.08,637.236 1303.28,637.236 L1303.08,637.236 L1299.78,637.936 L1299.78,623.036 L1296.98,623.036 L1296.98,638.536 L1288.08,640.336 L1288.08,626.236 L1285.28,626.236 L1285.28,640.936 L1281.38,641.736 C1280.78,641.836 1280.28,642.536 1280.28,643.136 L1280.28,643.336 L1280.28,649.136 L1280.28,648.936 C1280.28,649.736 1280.88,650.336 1281.68,650.336 L1281.98,650.336 L1285.28,649.636 L1285.28,666.136 L1281.38,666.936 C1280.78,667.036 1280.28,667.736 1280.28,668.336 L1280.28,674.136 C1280.28,674.936 1280.88,675.536 1281.68,675.536 L1281.98,675.536 L1285.28,674.836 L1285.28,689.736 L1288.08,689.736 L1288.08,674.236 L1296.98,672.436 L1296.98,686.536 L1299.78,686.536 L1299.78,671.836 L1303.58,671.136 C1304.18,671.036 1304.68,670.336 1304.68,669.736 L1304.68,663.836 C1304.68,663.036 1304.08,662.436 1303.28,662.436 L1303.08,662.436 L1299.78,663.136 L1299.78,646.636 L1303.58,645.936 M1288.08,665.636 L1288.08,649.036 L1296.98,647.236 L1296.98,663.736 L1288.08,665.636 "/>
<path class="Accidental" d="M1669.05,645.936 C1669.65,645.836 1670.15,645.136 1670.15,644.536 L1670.15,638.636 C1670.15,637.836 1669.55,637.236 1668.75,637.236 L1668.55,637.236 L1665.25,637.936 L1665.25,623.036 L1662.45,623.036 L1662.45,638.536 L1653.55,640.336 L1653.55,626.236 L1650.75,626.236 L1650.75,640.936 L1646.85,641.736 C1646.25,641.836 1645.75,642.536 1645.75,643.136 L1645.75,643.336 L1645.75,649.136 L1645.75,648.936 C1645.75,649.736 1646.35,650.336 1647.15,650.336 L1647.45,650.336 L1650.75,649.636 L1650.75,666.136 L1646.85,666.936 C1646.25,667.036 1645.75,667.736 1645.75,668.336 L1645.75,674.136 C1645.75,674.936 1646.35,675.536 1647.15,675.536 L1647.45,675.536 L1650.75,674.836 L1650.75,689.736 L1653.55,689.736 L1653.55,674.236 L1662.45,672.436 L1662.45,686.536 L1665.25,686.536 L1665.25,671.836 L1669.05,671.136 C1669.65,671.036 1670.15,670.336 1670.15,669.736 L1670.15,663.836 C1670.15,663.036 1669.55,662.436 1668.75,662.436 L1668.55,662.436 L1665.25,663.136 L1665.25,646.636 L1669.05,645.936 M1653.55,665.636 L1653.55,649.036 L1662.45,647.236 L1662.45,663.736 L1653.55,665.636 "/>
<polyline class="LedgerLine" fill="none" stroke="#000000" stroke-width="4.00" stroke-linejoin="bevel" points="829.019,894.051 879.014,894.051"/>
<polyline class="LedgerLine" fill="none" stroke="#000000" stroke-width="4.00" stroke-linejoin="bevel" points="1002.36,894.051 1052.36,894.051"/>
<polyline class="LedgerLine" fill="none" stroke="#000000" stroke-width="4.00" stroke-linejoin="bevel" points="1152.27,894.051 1202.27,894.051"/>
<polyline class="LedgerLine" fill="none" stroke="#000000" stroke-width="4.00" stroke-linejoin="bevel" points="1152.27,869.049 1202.27,869.049"/>
<polyline class="LedgerLine" fill="none" stroke="#000000" stroke-width="4.00" stroke-linejoin="bevel" points="1302.18,894.051 1352.18,894.051"/>
<polyline class="LedgerLine" fill="none" stroke="#000000" stroke-width="4.00" stroke-linejoin="bevel" points="1302.18,869.049 1352.18,869.049"/>
<polyline class="LedgerLine" fill="none" stroke="#000000" stroke-width="4.00" stroke-linejoin="bevel" points="1452.09,894.051 1502.09,894.051"/>
<polyline class="LedgerLine" fill="none" stroke="#000000" stroke-width="4.00" stroke-linejoin="bevel" points="1452.09,869.049 1502.09,869.049"/>
<polyline class="LedgerLine" fill="none" stroke="#000000" stroke-width="4.00" stroke-linejoin="bevel" points="1452.09,844.048 1502.09,844.048"/>
<polyline class="LedgerLine" fill="none" stroke="#000000" stroke-width="4.00" stroke-linejoin="bevel" points="1667.65,894.051 1717.65,894.051"/>
<polyline class="LedgerLine" fill="none" stroke="#000000" stroke-width="4.00" stroke-linejoin="bevel" points="1667.65,869.049 1717.65,869.049"/>
<polyline class="LedgerLine" fill="none" stroke="#000000" stroke-width="4.00" stroke-linejoin="bevel" points="1808.37,894.051 1858.36,894.051"/>
<polyline class="LedgerLine" fill="none" stroke="#000000" stroke-width="4.00" stroke-linejoin="bevel" points="1808.37,869.049 1858.36,869.049"/>
<polyline class="LedgerLine" fill="none" stroke="#000000" stroke-width="4.00" stroke-linejoin="bevel" points="1949.08,894.051 1999.08,894.051"/>
<polyline class="LedgerLine" fill="none" stroke="#000000" stroke-width="4.00" stroke-linejoin="bevel" points="2089.8,894.051 2139.79,894.051"/>
<polyline class="Stem" fill="none" stroke="#000000" stroke-width="2.75" stroke-linejoin="bevel" points="456.377,935.074 456.377,1019.06"/>
<polyline class="Stem" fill="none" stroke="#000000" stroke-width="2.75" stroke-linejoin="bevel" points="583.966,922.573 583.966,1006.56"/>
<polyline class="Stem" fill="none" stroke="#000000" stroke-width="2.75" stroke-linejoin="bevel" points="711.555,910.072 711.555,994.057"/>
<polyline class="Stem" fill="none" stroke="#000000" stroke-width="2.75" stroke-linejoin="bevel" points="839.145,897.571 839.145,981.556"/>
<polyline class="Stem" fill="none" stroke="#000000" stroke-width="2.75" stroke-linejoin="bevel" points="1012.49,885.07 1012.49,969.056"/>
<polyline class="Stem" fill="none" stroke="#000000" stroke-width="2.75" stroke-linejoin="bevel" points="1162.4,872.57 1162.4,969.056"/>
<polyline class="Stem" fill="none" stroke="#000000" stroke-width="2.75" stroke-linejoin="bevel" points="1312.31,860.069 1312.31,969.056"/>
<polyline class="Stem" fill="none" stroke="#000000" stroke-width="2.75" stroke-linejoin="bevel" points="1462.22,847.568 1462.22,969.056"/>
<polyline class="Stem" fill="none" stroke="#000000" stroke-width="2.75" stroke-linejoin="bevel" points="1677.78,860.069 1677.78,969.056"/>
<polyline class="Stem" fill="none" stroke="#000000" stroke-width="2.75" stroke-linejoin="bevel" points="1818.49,872.57 1818.49,969.056"/>
<polyline class="Stem" fill="none" stroke="#000000" stroke-width="2.75" stroke-linejoin="bevel" points="1959.21,885.07 1959.21,969.056"/>
<polyline class="Stem" fill="none" stroke="#000000" stroke-width="2.75" stroke-linejoin="bevel" points="2099.92,897.571 2099.92,981.556"/>
<polyline class="Stem" fill="none" stroke="#000000" stroke-width="2.75" stroke-linejoin="bevel" points="2277.64,910.072 2277.64,994.057"/>
<polyline class="Stem" fill="none" stroke="#000000" stroke-width="2.75" stroke-linejoin="bevel" points="2404.41,922.573 2404.41,1006.56"/>
<polyline class="Stem" fill="none" stroke="#000000" stroke-width="2.75" stroke-linejoin="bevel" points="2531.18,934.994 2531.18,1019.06"/>
<polyline class="Stem" fill="none" stroke="#000000" stroke-width="2.75" stroke-linejoin="bevel" points="486.121,728.181 486.121,647.16"/>
<polyline class="Stem" fill="none" stroke="#000000" stroke-width="2.75" stroke-linejoin="bevel" points="613.71,715.68 613.71,637.785"/>
<polyline class="Stem" fill="none" stroke="#000000" stroke-width="2.75" stroke-linejoin="bevel" points="711.555,710.059 711.555,784.669"/>
<polyline class="Stem" fill="none" stroke="#000000" stroke-width="2.75" stroke-linejoin="bevel" points="839.145,697.559 839.145,775.293"/>
<polyline class="Stem" fill="none" stroke="#000000" stroke-width="2.75" stroke-linejoin="bevel" points="1012.49,685.058 1012.49,765.918"/>
<polyline class="Stem" fill="none" stroke="#000000" stroke-width="2.75" stroke-linejoin="bevel" points="1162.4,672.557 1162.4,756.542"/>
<polyline class="Stem" fill="none" stroke="#000000" stroke-width="2.75" stroke-linejoin="bevel" points="1312.31,660.056 1312.31,744.042"/>
<polyline class="Stem" fill="none" stroke="#000000" stroke-width="2.75" stroke-linejoin="bevel" points="1462.22,647.555 1462.22,731.541"/>
<polyline class="Stem" fill="none" stroke="#000000" stroke-width="2.75" stroke-linejoin="bevel" points="1677.78,660.056 1677.78,744.042"/>
<polyline class="Stem" fill="none" stroke="#000000" stroke-width="2.75" stroke-linejoin="bevel" points="1818.49,672.557 1818.49,756.542"/>
<polyline class="Stem" fill="none" stroke="#000000" stroke-width="2.75" stroke-linejoin="bevel" points="1959.21,685.058 1959.21,765.918"/>
<polyline class="Stem" fill="none" stroke="#000000" stroke-width="2.75" stroke-linejoin="bevel" points="2099.92,697.559 2099.92,775.293"/>
<polyline class="Stem" fill="none" stroke="#000000" stroke-width="2.75" stroke-linejoin="bevel" points="2277.64,710.059 2277.64,784.669"/>
<polyline class="Stem" fill="none" stroke="#000000" stroke-width="2.75" stroke-linejoin="bevel" points="2434.15,715.68 2434.15,637.785"/>
<polyline class="Stem" fill="none" stroke="#000000" stroke-width="2.75" stroke-linejoin="bevel" points="2560.92,728.101 2560.92,647.16"/>
<path class="Note" d="M486.502,923.353 C485.002,920.653 482.102,918.953 478.202,918.553 C477.602,918.453 477.102,918.453 476.502,918.453 C473.002,918.453 469.202,919.453 465.702,921.353 C459.102,924.953 455.002,930.853 455.002,935.953 C455.002,937.353 455.202,938.653 455.902,939.853 C457.402,942.553 460.402,944.253 464.302,944.653 C464.902,944.753 465.402,944.753 466.002,944.753 C469.502,944.753 473.202,943.753 476.702,941.853 C483.302,938.253 487.502,932.453 487.502,927.353 C487.502,925.953 487.202,924.553 486.502,923.353"/>
<path class="Note" d="M614.091,910.853 C612.591,908.153 609.691,906.453 605.791,906.053 C605.191,905.953 604.691,905.953 604.091,905.953 C600.591,905.953 596.791,906.953 593.291,908.853 C586.691,912.453 582.591,918.353 582.591,923.453 C582.591,924.853 582.791,926.153 583.491,927.353 C584.991,930.053 587.991,931.753 591.891,932.153 C592.491,932.253 592.991,932.253 593.591,932.253 C597.091,932.253 600.791,931.253 604.291,929.353 C610.891,925.753 615.091,919.953 615.091,914.853 C615.091,913.453 614.791,912.053 614.091,910.853"/>
<path class="Note" d="M741.68,898.352 C740.18,895.652 737.28,893.952 733.38,893.552 C732.78,893.452 732.28,893.452 731.68,893.452 C728.18,893.452 724.38,894.452 720.88,896.352 C714.28,899.952 710.18,905.852 710.18,910.952 C710.18,912.352 710.38,913.652 711.08,914.852 C712.58,917.552 715.58,919.252 719.48,919.652 C720.08,919.752 720.58,919.752 721.18,919.752 C724.68,919.752 728.38,918.752 731.88,916.852 C738.48,913.252 742.68,907.452 742.68,902.352 C742.68,900.952 742.38,899.552 741.68,898.352"/>
<path class="Note" d="M869.269,885.851 C867.769,883.151 864.869,881.451 860.969,881.051 C860.369,880.951 859.869,880.951 859.269,880.951 C855.769,880.951 851.969,881.951 848.469,883.851 C841.869,887.451 837.769,893.351 837.769,898.451 C837.769,899.851 837.969,901.151 838.669,902.351 C840.169,905.051 843.169,906.751 847.069,907.151 C847.669,907.251 848.169,907.251 848.769,907.251 C852.269,907.251 855.969,906.251 859.469,904.351 C866.069,900.751 870.269,894.951 870.269,889.851 C870.269,888.451 869.969,887.051 869.269,885.851"/>
<path class="Note" d="M1042.61,873.35 C1041.11,870.65 1038.21,868.95 1034.31,868.55 C1033.71,868.45 1033.21,868.45 1032.61,868.45 C1029.11,868.45 1025.31,869.45 1021.81,871.35 C1015.21,874.95 1011.11,880.85 1011.11,885.95 C1011.11,887.35 1011.31,888.65 1012.01,889.85 C1013.51,892.55 1016.51,894.25 1020.41,894.65 C1021.01,894.75 1021.51,894.75 1022.11,894.75 C1025.61,894.75 1029.31,893.75 1032.81,891.85 C1039.41,888.25 1043.61,882.45 1043.61,877.35 C1043.61,875.95 1043.31,874.55 1042.61,873.35"/>
<path class="Note" d="M1192.52,860.849 C1191.02,858.149 1188.12,856.449 1184.22,856.049 C1183.62,855.949 1183.12,855.949 1182.52,855.949 C1179.02,855.949 1175.22,856.949 1171.72,858.849 C1165.12,862.449 1161.02,868.349 1161.02,873.449 C1161.02,874.849 1161.22,876.149 1161.92,877.349 C1163.42,880.049 1166.42,881.749 1170.32,882.149 C1170.92,882.249 1171.42,882.249 1172.02,882.249 C1175.52,882.249 1179.22,881.249 1182.72,879.349 C1189.32,875.749 1193.52,869.949 1193.52,864.849 C1193.52,863.449 1193.22,862.049 1192.52,860.849"/>
<path class="Note" d="M1342.43,848.349 C1340.93,845.649 1338.03,843.949 1334.13,843.549 C1333.53,843.449 1333.03,843.449 1332.43,843.449 C1328.93,843.449 1325.13,844.449 1321.63,846.349 C1315.03,849.949 1310.93,855.849 1310.93,860.949 C1310.93,862.349 1311.13,863.649 1311.83,864.849 C1313.33,867.549 1316.33,869.249 1320.23,869.649 C1320.83,869.749 1321.33,869.749 1321.93,869.749 C1325.43,869.749 1329.13,868.749 1332.63,866.849 C1339.23,863.249 1343.43,857.449 1343.43,852.349 C1343.43,850.949 1343.13,849.549 1342.43,848.349"/>
<path class="Note" d="M1492.34,835.848 C1490.84,833.148 1487.94,831.448 1484.04,831.048 C1483.44,830.948 1482.94,830.948 1482.34,830.948 C1478.84,830.948 1475.04,831.948 1471.54,833.848 C1464.94,837.448 1460.84,843.348 1460.84,848.448 C1460.84,849.848 1461.04,851.148 1461.74,852.348 C1463.24,855.048 1466.24,856.748 1470.14,857.148 C1470.74,857.248 1471.24,857.248 1471.84,857.248 C1475.34,857.248 1479.04,856.248 1482.54,854.348 C1489.14,850.748 1493.34,844.948 1493.34,839.848 C1493.34,838.448 1493.04,837.048 1492.34,835.848"/>
<path class="Note" d="M1707.9,848.349 C1706.4,845.649 1703.5,843.949 1699.6,843.549 C1699,843.449 1698.5,843.449 1697.9,843.449 C1694.4,843.449 1690.6,844.449 1687.1,846.349 C1680.5,849.949 1676.4,855.849 1676.4,860.949 C1676.4,862.349 1676.6,863.649 1677.3,864.849 C1678.8,867.549 1681.8,869.249 1685.7,869.649 C1686.3,869.749 1686.8,869.749 1687.4,869.749 C1690.9,869.749 1694.6,868.749 1698.1,866.849 C1704.7,863.249 1708.9,857.449 1708.9,852.349 C1708.9,850.949 1708.6,849.549 1707.9,848.349"/>
<path class="Note" d="M1848.62,860.849 C1847.12,858.149 1844.22,856.449 1840.32,856.049 C1839.72,855.949 1839.22,855.949 1838.62,855.949 C1835.12,855.949 1831.32,856.949 1827.82,858.849 C1821.22,862.449 1817.12,868.349 1817.12,873.449 C1817.12,874.849 1817.32,876.149 1818.02,877.349 C1819.52,880.049 1822.52,881.749 1826.42,882.149 C1827.02,882.249 1827.52,882.249 1828.12,882.249 C1831.62,882.249 1835.32,881.249 1838.82,879.349 C1845.42,875.749 1849.62,869.949 1849.62,864.849 C1849.62,863.449 1849.32,862.049 1848.62,860.849"/>
<path class="Note" d="M1989.33,873.35 C1987.83,870.65 1984.93,868.95 1981.03,868.55 C1980.43,868.45 1979.93,868.45 1979.33,868.45 C1975.83,868.45 1972.03,869.45 1968.53,871.35 C1961.93,874.95 1957.83,880.85 1957.83,885.95 C1957.83,887.35 1958.03,888.65 1958.73,889.85 C1960.23,892.55 1963.23,894.25 1967.13,894.65 C1967.73,894.75 1968.23,894.75 1968.83,894.75 C1972.33,894.75 1976.03,893.75 1979.53,891.85 C1986.13,888.25 1990.33,882.45 1990.33,877.35 C1990.33,875.95 1990.03,874.55 1989.33,873.35"/>
<path class="Note" d="M2130.05,885.851 C2128.55,883.151 2125.65,881.451 2121.75,881.051 C2121.15,880.951 2120.65,880.951 2120.05,880.951 C2116.55,880.951 2112.75,881.951 2109.25,883.851 C2102.65,887.451 2098.55,893.351 2098.55,898.451 C2098.55,899.851 2098.75,901.151 2099.45,902.351 C2100.95,905.051 2103.95,906.751 2107.85,907.151 C2108.45,907.251 2108.95,907.251 2109.55,907.251 C2113.05,907.251 2116.75,906.251 2120.25,904.351 C2126.85,900.751 2131.05,894.951 2131.05,889.851 C2131.05,888.451 2130.75,887.051 2130.05,885.851"/>
<path class="Note" d="M2307.77,898.352 C2306.27,895.652 2303.37,893.952 2299.47,893.552 C2298.87,893.452 2298.37,893.452 2297.77,893.452 C2294.27,893.452 2290.47,894.452 2286.97,896.352 C2280.37,899.952 2276.27,905.852 2276.27,910.952 C2276.27,912.352 2276.47,913.652 2277.17,914.852 C2278.67,917.552 2281.67,919.252 2285.57,919.652 C2286.17,919.752 2286.67,919.752 2287.27,919.752 C2290.77,919.752 2294.47,918.752 2297.97,916.852 C2304.57,913.252 2308.77,907.452 2308.77,902.352 C2308.77,900.952 2308.47,899.552 2307.77,898.352"/>
<path class="Note" d="M2434.53,910.853 C2433.03,908.153 2430.13,906.453 2426.23,906.053 C2425.63,905.953 2425.13,905.953 2424.53,905.953 C2421.03,905.953 2417.23,906.953 2413.73,908.853 C2407.13,912.453 2403.03,918.353 2403.03,923.453 C2403.03,924.853 2403.23,926.153 2403.93,927.353 C2405.43,930.053 2408.43,931.753 2412.33,932.153 C2412.93,932.253 2413.43,932.253 2414.03,932.253 C2417.53,932.253 2421.23,931.253 2424.73,929.353 C2431.33,925.753 2435.53,919.953 2435.53,914.853 C2435.53,913.453 2435.23,912.053 2434.53,910.853"/>
<path class="Note" d="M2561.3,923.353 C2559.8,920.653 2556.9,918.953 2553,918.553 C2552.4,918.453 2551.9,918.453 2551.3,918.453 C2547.8,918.453 2544,919.453 2540.5,921.353 C2533.9,924.953 2529.8,930.753 2529.8,935.853 C2529.8,937.253 2530.2,938.653 2530.9,939.853 C2532.4,942.653 2535.2,944.253 2539.1,944.653 C2539.7,944.753 2540.2,944.753 2540.8,944.753 C2544.3,944.753 2548.1,943.753 2551.6,941.853 C2558.2,938.253 2562.3,932.353 2562.3,927.253 C2562.3,925.853 2562,924.553 2561.3,923.353 M2557.1,929.653 C2555.4,931.453 2552.2,933.753 2548.6,935.853 C2545,937.953 2541.3,939.653 2539,940.353 C2538.5,940.453 2537.9,940.553 2537.4,940.553 C2535.9,940.553 2534.6,939.853 2533.9,938.753 C2533.6,938.153 2533.4,937.553 2533.4,936.953 C2533.4,935.853 2533.9,934.753 2535,933.553 C2536.7,931.753 2539.9,929.353 2543.5,927.253 C2547.1,925.153 2550.8,923.453 2553.2,922.853 L2553.4,922.853 C2554,922.653 2554.5,922.553 2555,922.553 C2556.4,922.553 2557.5,923.153 2558.2,924.453 C2558.5,925.053 2558.7,925.553 2558.7,926.153 C2558.7,927.453 2558,928.753 2557.1,929.653"/>
<path class="Note" d="M486.502,723.341 C485.002,720.641 482.102,718.941 478.202,718.541 C477.602,718.441 477.102,718.441 476.502,718.441 C473.002,718.441 469.202,719.441 465.702,721.341 C459.102,724.941 455.002,730.841 455.002,735.941 C455.002,737.341 455.202,738.641 455.902,739.841 C457.402,742.541 460.402,744.241 464.302,744.641 C464.902,744.741 465.402,744.741 466.002,744.741 C469.502,744.741 473.202,743.741 476.702,741.841 C483.302,738.241 487.502,732.441 487.502,727.341 C487.502,725.941 487.202,724.541 486.502,723.341"/>
<path class="Note" d="M614.091,710.84 C612.591,708.14 609.691,706.44 605.791,706.04 C605.191,705.94 604.691,705.94 604.091,705.94 C600.591,705.94 596.791,706.94 593.291,708.84 C586.691,712.44 582.591,718.34 582.591,723.44 C582.591,724.84 582.791,726.14 583.491,727.34 C584.991,730.04 587.991,731.74 591.891,732.14 C592.491,732.24 592.991,732.24 593.591,732.24 C597.091,732.24 600.791,731.24 604.291,729.34 C610.891,725.74 615.091,719.94 615.091,714.84 C615.091,713.44 614.791,712.04 614.091,710.84"/>
<path class="Note" d="M741.68,698.339 C740.18,695.639 737.28,693.939 733.38,693.539 C732.78,693.439 732.28,693.439 731.68,693.439 C728.18,693.439 724.38,694.439 720.88,696.339 C714.28,699.939 710.18,705.839 710.18,710.939 C710.18,712.339 710.38,713.639 711.08,714.839 C712.58,717.539 715.58,719.239 719.48,719.639 C720.08,719.739 720.58,719.739 721.18,719.739 C724.68,719.739 728.38,718.739 731.88,716.839 C738.48,713.239 742.68,707.439 742.68,702.339 C742.68,700.939 742.38,699.539 741.68,698.339"/>
<path class="Note" d="M869.269,685.838 C867.769,683.138 864.869,681.438 860.969,681.038 C860.369,680.938 859.869,680.938 859.269,680.938 C855.769,680.938 851.969,681.938 848.469,683.838 C841.869,687.438 837.769,693.338 837.769,698.438 C837.769,699.838 837.969,701.138 838.669,702.338 C840.169,705.038 843.169,706.738 847.069,707.138 C847.669,707.238 848.169,707.238 848.769,707.238 C852.269,707.238 855.969,706.238 859.469,704.338 C866.069,700.738 870.269,694.938 870.269,689.838 C870.269,688.438 869.969,687.038 869.269,685.838"/>
<path class="Note" d="M1042.61,673.338 C1041.11,670.638 1038.21,668.938 1034.31,668.538 C1033.71,668.438 1033.21,668.438 1032.61,668.438 C1029.11,668.438 1025.31,669.438 1021.81,671.338 C1015.21,674.938 1011.11,680.838 1011.11,685.938 C1011.11,687.338 1011.31,688.638 1012.01,689.838 C1013.51,692.538 1016.51,694.238 1020.41,694.638 C1021.01,694.738 1021.51,694.738 1022.11,694.738 C1025.61,694.738 1029.31,693.738 1032.81,691.838 C1039.41,688.238 1043.61,682.438 1043.61,677.338 C1043.61,675.938 1043.31,674.538 1042.61,673.338"/>
<path class="Note" d="M1192.52,660.837 C1191.02,658.137 1188.12,656.437 1184.22,656.037 C1183.62,655.937 1183.12,655.937 1182.52,655.937 C1179.02,655.937 1175.22,656.937 1171.72,658.837 C1165.12,662.437 1161.02,668.337 1161.02,673.437 C1161.02,674.837 1161.22,676.137 1161.92,677.337 C1163.42,680.037 1166.42,681.737 1170.32,682.137 C1170.92,682.237 1171.42,682.237 1172.02,682.237 C1175.52,682.237 1179.22,681.237 1182.72,679.337 C1189.32,675.737 1193.52,669.937 1193.52,664.837 C1193.52,663.437 1193.22,662.037 1192.52,660.837"/>
<path class="Note" d="M1342.43,648.336 C1340.93,645.636 1338.03,643.936 1334.13,643.536 C1333.53,643.436 1333.03,643.436 1332.43,643.436 C1328.93,643.436 1325.13,644.436 1321.63,646.336 C1315.03,649.936 1310.93,655.836 1310.93,660.936 C1310.93,662.336 1311.13,663.636 1311.83,664.836 C1313.33,667.536 1316.33,669.236 1320.23,669.636 C1320.83,669.736 1321.33,669.736 1321.93,669.736 C1325.43,669.736 1329.13,668.736 1332.63,666.836 C1339.23,663.236 1343.43,657.436 1343.43,652.336 C1343.43,650.936 1343.13,649.536 1342.43,648.336"/>
<path class="Note" d="M1492.34,635.835 C1490.84,633.135 1487.94,631.435 1484.04,631.035 C1483.44,630.935 1482.94,630.935 1482.34,630.935 C1478.84,630.935 1475.04,631.935 1471.54,633.835 C1464.94,637.435 1460.84,643.335 1460.84,648.435 C1460.84,649.835 1461.04,651.135 1461.74,652.335 C1463.24,655.035 1466.24,656.735 1470.14,657.135 C1470.74,657.235 1471.24,657.235 1471.84,657.235 C1475.34,657.235 1479.04,656.235 1482.54,654.335 C1489.14,650.735 1493.34,644.935 1493.34,639.835 C1493.34,638.435 1493.04,637.035 1492.34,635.835"/>
<path class="Note" d="M1707.9,648.336 C1706.4,645.636 1703.5,643.936 1699.6,643.536 C1699,643.436 1698.5,643.436 1697.9,643.436 C1694.4,643.436 1690.6,644.436 1687.1,646.336 C1680.5,649.936 1676.4,655.836 1676.4,660.936 C1676.4,662.336 1676.6,663.636 1677.3,664.836 C1678.8,667.536 1681.8,669.236 1685.7,669.636 C1686.3,669.736 1686.8,669.736 1687.4,669.736 C1690.9,669.736 1694.6,668.736 1698.1,666.836 C1704.7,663.236 1708.9,657.436 1708.9,652.336 C1708.9,650.936 1708.6,649.536 1707.9,648.336"/>
<path class="Note" d="M1848.62,660.837 C1847.12,658.137 1844.22,656.437 1840.32,656.037 C1839.72,655.937 1839.22,655.937 1838.62,655.937 C1835.12,655.937 1831.32,656.937 1827.82,658.837 C1821.22,662.437 1817.12,668.337 1817.12,673.437 C1817.12,674.837 1817.32,676.137 1818.02,677.337 C1819.52,680.037 1822.52,681.737 1826.42,682.137 C1827.02,682.237 1827.52,682.237 1828.12,682.237 C1831.62,682.237 1835.32,681.237 1838.82,679.337 C1845.42,675.737 1849.62,669.937 1849.62,664.837 C1849.62,663.437 1849.32,662.037 1848.62,660.837"/>
<path class="Note" d="M1989.33,673.338 C1987.83,670.638 1984.93,668.938 1981.03,668.538 C1980.43,668.438 1979.93,668.438 1979.33,668.438 C1975.83,668.438 1972.03,669.438 1968.53,671.338 C1961.93,674.938 1957.83,680.838 1957.83,685.938 C1957.83,687.338 1958.03,688.638 1958.73,689.838 C1960.23,692.538 1963.23,694.238 1967.13,694.638 C1967.73,694.738 1968.23,694.738 1968.83,694.738 C1972.33,694.738 1976.03,693.738 1979.53,691.838 C1986.13,688.238 1990.33,682.438 1990.33,677.338 C1990.33,675.938 1990.03,674.538 1989.33,673.338"/>
<path class="Note" d="M2130.05,685.838 C2128.55,683.138 2125.65,681.438 2121.75,681.038 C2121.15,680.938 2120.65,680.938 2120.05,680.938 C2116.55,680.938 2112.75,681.938 2109.25,683.838 C2102.65,687.438 2098.55,693.338 2098.55,698.438 C2098.55,699.838 2098.75,701.138 2099.45,702.338 C2100.95,705.038 2103.95,706.738 2107.85,707.138 C2108.45,707.238 2108.95,707.238 2109.55,707.238 C2113.05,707.238 2116.75,706.238 2120.25,704.338 C2126.85,700.738 2131.05,694.938 2131.05,689.838 C2131.05,688.438 2130.75,687.038 2130.05,685.838"/>
<path class="Note" d="M2307.77,698.339 C2306.27,695.639 2303.37,693.939 2299.47,693.539 C2298.87,693.439 2298.37,693.439 2297.77,693.439 C2294.27,693.439 2290.47,694.439 2286.97,696.339 C2280.37,699.939 2276.27,705.839 2276.27,710.939 C2276.27,712.339 2276.47,713.639 2277.17,714.839 C2278.67,717.539 2281.67,719.239 2285.57,719.639 C2286.17,719.739 2286.67,719.739 2287.27,719.739 C2290.77,719.739 2294.47,718.739 2297.97,716.839 C2304.57,713.239 2308.77,707.439 2308.77,702.339 C2308.77,700.939 2308.47,699.539 2307.77,698.339"/>
<path class="Note" d="M2434.53,710.84 C2433.03,708.14 2430.13,706.44 2426.23,706.04 C2425.63,705.94 2425.13,705.94 2424.53,705.94 C2421.03,705.94 2417.23,706.94 2413.73,708.84 C2407.13,712.44 2403.03,718.34 2403.03,723.44 C2403.03,724.84 2403.23,726.14 2403.93,727.34 C2405.43,730.04 2408.43,731.74 2412.33,732.14 C2412.93,732.24 2413.43,732.24 2414.03,732.24 C2417.53,732.24 2421.23,731.24 2424.73,729.34 C2431.33,725.74 2435.53,719.94 2435.53,714.84 C2435.53,713.44 2435.23,712.04 2434.53,710.84"/>
<path class="Note" d="M2561.3,723.341 C2559.8,720.641 2556.9,718.941 2553,718.541 C2552.4,718.441 2551.9,718.441 2551.3,718.441 C2547.8,718.441 2544,719.441 2540.5,721.341 C2533.9,724.941 2529.8,730.741 2529.8,735.841 C2529.8,737.241 2530.2,738.641 2530.9,739.841 C2532.4,742.641 2535.2,744.241 2539.1,744.641 C2539.7,744.741 2540.2,744.741 2540.8,744.741 C2544.3,744.741 2548.1,743.741 2551.6,741.841 C2558.2,738.241 2562.3,732.341 2562.3,727.241 C2562.3,725.841 2562,724.541 2561.3,723.341 M2557.1,729.641 C2555.4,731.441 2552.2,733.741 2548.6,735.841 C2545,737.941 2541.3,739.641 2539,740.341 C2538.5,740.441 2537.9,740.541 2537.4,740.541 C2535.9,740.541 2534.6,739.841 2533.9,738.741 C2533.6,738.141 2533.4,737.541 2533.4,736.941 C2533.4,735.841 2533.9,734.741 2535,733.541 C2536.7,731.741 2539.9,729.341 2543.5,727.241 C2547.1,725.141 2550.8,723.441 2553.2,722.841 L2553.4,722.841 C2554,722.641 2554.5,722.541 2555,722.541 C2556.4,722.541 2557.5,723.141 2558.2,724.441 C2558.5,725.041 2558.7,725.541 2558.7,726.141 C2558.7,727.441 2558,728.741 2557.1,729.641"/>
<path class="Clef" d="M297,918.954 C289.4,918.954 283.3,923.354 283.2,923.354 C277.4,927.654 275.1,932.754 274.2,936.254 C273.7,938.054 273.5,939.854 273.5,941.554 C273.5,943.954 273.9,946.154 274.8,948.054 C276,950.754 278.3,952.654 281.3,953.654 C282.5,954.054 283.8,954.254 285.1,954.254 C287.3,954.254 289.6,953.654 291.5,952.554 C294.6,950.854 296.5,947.254 296.5,943.354 C296.5,939.854 294.7,936.654 291.7,934.754 C289.6,933.354 287.6,932.954 285.9,932.954 C284.7,932.954 283.6,933.154 282.7,933.454 C281.7,933.854 280,934.854 279.2,935.554 C279.5,933.654 280.7,930.754 281.8,929.154 C282.9,927.554 285.1,925.554 286.8,924.654 C289.3,923.254 292.5,922.654 296,922.654 C306.2,922.654 311.2,930.854 311.2,947.654 C311.2,956.954 307.7,965.854 304.7,971.754 C301.4,978.354 297,984.654 293.1,988.154 C282.7,997.654 272.9,1002.15 272.8,1002.15 C272.8,1002.15 271.3,1003.05 271.7,1004.55 C272,1005.55 272.9,1005.75 273.5,1005.75 C273.6,1005.75 273.9,1005.65 274,1005.65 C274.1,1005.65 285.5,1000.95 294.6,993.854 C299.7,990.154 304.3,986.154 308.3,981.854 C311.9,977.954 315,973.754 317.5,969.554 C321.9,962.054 324.4,954.254 324.4,947.554 C324.4,939.254 322.2,932.354 318.1,927.454 C313.4,921.854 306.3,918.954 297,918.954 M328.4,931.654 C328.4,934.454 330.6,936.654 333.2,936.654 C335.8,936.654 338,934.454 338,931.654 C338,928.854 335.8,926.554 333.2,926.554 C330.6,926.554 328.4,928.854 328.4,931.654 M328.4,956.354 C328.4,959.154 330.6,961.454 333.2,961.454 C335.8,961.454 338,959.154 338,956.354 C338,953.554 335.8,951.254 333.2,951.254 C330.6,951.254 328.4,953.554 328.4,956.354"/>
<path class="Clef" d="M335,725.641 C333.8,720.241 331.1,716.341 330.3,715.341 C327.1,711.041 323.1,708.241 318.4,706.841 C316.1,706.141 314,705.941 312,705.941 C311.3,705.941 310.6,705.941 309.9,706.041 C308.9,700.041 307.8,694.141 306.9,688.741 C312.5,682.541 316.2,676.641 318.6,672.241 C322.2,665.541 323.6,660.841 323.7,660.641 C324.9,657.641 325.6,653.841 325.6,649.341 C325.6,646.641 325.3,643.741 324.9,640.741 C323.8,633.641 321.6,626.941 319.1,623.241 C317.8,621.341 316.6,620.241 315.4,620.241 C314.2,620.241 311.7,621.441 308.8,624.241 C306.5,626.441 303.2,630.341 300.6,636.341 C298.3,641.741 297.6,648.641 297.6,654.541 C297.6,656.341 297.7,658.041 297.8,659.641 C298,663.241 298.7,669.041 299.3,672.641 C299.3,672.741 299.6,674.241 300,676.841 L299.3,677.541 C298.3,678.541 297.1,679.641 295.7,681.041 C294.8,681.941 293.9,682.741 292.9,683.741 C284.4,691.941 271.6,704.341 271.6,723.441 C271.6,728.141 272.5,732.541 274.3,736.541 C275.9,740.141 278.2,743.441 281.1,746.341 C288.6,753.741 298.8,756.941 305.9,756.941 L306.5,756.941 C309.4,756.841 312.1,756.541 314.5,756.141 C316.3,765.741 317.5,772.841 317.5,778.141 C317.5,784.641 315.9,788.541 312,791.341 C309.6,793.041 306.7,794.141 303.6,794.241 L302.8,794.241 C301.3,794.241 298.8,793.841 297.3,793.441 C297.3,793.441 297,793.341 297,793.141 C297,792.941 297.4,792.941 297.4,792.941 C299.3,792.541 302.9,791.241 305.3,787.941 C306.4,786.441 307.1,784.141 307.1,781.641 C307.1,780.041 306.8,778.341 306.1,776.841 C305,774.441 302.4,771.441 296.8,771.041 L295.7,771.041 C293.6,771.041 291.8,771.541 290.1,772.541 C288.3,773.641 286.7,775.341 285.7,777.341 C284.6,779.341 284.1,781.541 284.1,783.741 C284.1,786.641 285,789.341 286.8,791.541 C289.8,795.141 294.5,797.441 299.9,798.041 C300.6,798.141 301.7,798.241 302.4,798.241 C306.8,798.241 311.2,797.041 314.8,794.841 C318.5,792.241 320.6,788.241 321.3,782.641 C321.5,781.341 321.5,779.941 321.5,778.441 C321.5,774.541 321,769.841 320,764.041 C319.6,761.941 319.2,758.941 318.5,755.141 C324.3,753.241 328.4,749.541 332.2,743.741 C334.5,739.741 335.6,735.641 335.6,731.341 C335.6,729.441 335.4,727.541 335,725.641 M304.8,647.741 C306.6,642.041 309.3,638.641 311.3,636.941 C313.1,635.441 314.7,634.741 315.6,634.741 C315.7,634.741 315.9,634.841 316,634.841 C316.3,634.941 316.7,635.441 317.1,636.141 C318,637.941 318.9,641.241 318.9,644.941 C318.9,646.841 318.7,648.841 318.1,650.641 C315.9,657.441 311.3,664.741 304.3,672.441 C304.1,671.341 303.9,670.341 303.8,669.341 C303.3,666.141 303,662.941 303,660.041 C303,655.541 303.6,651.441 304.8,647.741 M300.8,751.841 C296.2,750.641 291.7,748.141 287.9,744.641 C286.6,743.441 284.8,741.241 283.3,737.841 C282,734.841 281.3,731.741 281.3,728.341 L281.3,727.641 C281.4,722.941 282.7,718.141 285.2,713.341 C288.1,707.741 292.6,702.241 298.7,696.941 C300.2,695.641 301.6,694.341 302.9,693.041 C303.7,697.341 304.4,702.041 305.3,706.941 C301.4,708.241 296.7,711.241 293.6,716.941 C291.2,721.441 290.5,725.341 290.5,728.541 C290.5,730.041 290.7,731.441 290.9,732.541 C291.8,737.041 294.4,740.741 297.9,742.841 C298.7,743.341 302,745.041 304,745.041 C304.3,745.041 304.6,745.041 304.8,744.941 C305.1,744.841 305.4,744.641 305.5,744.341 C305.6,744.141 305.6,743.941 305.6,743.741 C305.6,742.941 304.8,742.341 303.5,741.541 C302.9,741.141 302.2,740.741 301.5,740.241 C298.9,738.241 297.4,735.141 297.4,731.741 C297.4,730.741 297.6,729.841 297.8,728.841 C298.3,726.841 300,724.041 301.5,722.641 C303.2,721.141 305.2,719.941 307.6,719.341 C309.6,730.541 311.7,741.641 313.3,750.041 C313.4,750.741 313.6,751.441 313.7,752.141 C311.7,752.541 309.7,752.741 307.8,752.741 C305.4,752.741 303.1,752.441 300.8,751.841 M326.5,741.641 C325.3,744.841 322.8,748.841 317.7,750.941 C317.6,750.541 317.6,750.041 317.5,749.641 C316,740.841 314.1,729.941 312.1,718.641 L313.1,718.641 C322.8,718.641 326.7,725.841 327.6,730.441 C327.8,731.341 327.9,732.541 327.9,733.841 C327.9,736.141 327.5,738.941 326.5,741.641"/>
<path class="TimeSig" d="M365.2,957.453 L382,957.453 L382,964.753 L373.9,964.753 C373.1,964.753 372.5,965.353 372.5,966.153 L372.5,968.053 C372.5,968.853 373.1,969.353 373.9,969.353 L403.6,969.353 C404.4,969.353 405,968.853 405,968.053 L405,966.153 C405,965.353 404.4,964.753 403.6,964.753 L394.8,964.753 L394.8,957.453 L403.6,957.453 C404.4,957.453 405,956.853 405,956.053 L405,954.253 C405,953.453 404.4,952.853 403.6,952.853 L394.8,952.853 L394.8,937.153 C394.8,936.653 394.4,936.153 394,935.953 L392.9,935.353 C392.7,935.253 392.4,935.253 392.2,935.253 C391.9,935.253 391.5,935.353 391.3,935.553 L382.4,943.753 C382.2,943.953 382,944.453 382,944.753 L382,952.853 L370.7,952.853 C370.7,952.853 381.6,941.053 393.2,925.553 C394,924.453 393.6,923.453 393.4,923.253 L391.3,921.053 C391.1,920.853 390.6,920.653 390.3,920.653 L375.7,920.653 C375,920.653 374.5,921.253 374.4,921.853 C374.4,921.853 373.9,929.053 371.3,937.053 C368.7,945.053 365.9,949.853 363.3,953.453 C363.3,953.453 362.8,954.453 363.1,955.153 C363.4,955.853 364.1,956.953 364.1,956.953 C364.1,956.953 364.4,957.453 365.2,957.453"/>
<path class="TimeSig" d="M365.2,1006.06 L382,1006.06 L382,1013.36 L373.9,1013.36 C373.1,1013.36 372.5,1013.96 372.5,1014.76 L372.5,1016.66 C372.5,1017.46 373.1,1017.96 373.9,1017.96 L403.6,1017.96 C404.4,1017.96 405,1017.46 405,1016.66 L405,1014.76 C405,1013.96 404.4,1013.36 403.6,1013.36 L394.8,1013.36 L394.8,1006.06 L403.6,1006.06 C404.4,1006.06 405,1005.46 405,1004.66 L405,1002.86 C405,1002.06 404.4,1001.46 403.6,1001.46 L394.8,1001.46 L394.8,985.758 C394.8,985.258 394.4,984.758 394,984.558 L392.9,983.958 C392.7,983.858 392.4,983.858 392.2,983.858 C391.9,983.858 391.5,983.958 391.3,984.158 L382.4,992.358 C382.2,992.558 382,993.058 382,993.358 L382,1001.46 L370.7,1001.46 C370.7,1001.46 381.6,989.658 393.2,974.158 C394,973.058 393.6,972.058 393.4,971.858 L391.3,969.658 C391.1,969.458 390.6,969.258 390.3,969.258 L375.7,969.258 C375,969.258 374.5,969.858 374.4,970.458 C374.4,970.458 373.9,977.658 371.3,985.658 C368.7,993.658 365.9,998.458 363.3,1002.06 C363.3,1002.06 362.8,1003.06 363.1,1003.76 C363.4,1004.46 364.1,1005.56 364.1,1005.56 C364.1,1005.56 364.4,1006.06 365.2,1006.06"/>
<path class="TimeSig" d="M365.2,694.937 L382,694.937 L382,702.237 L373.9,702.237 C373.1,702.237 372.5,702.837 372.5,703.637 L372.5,705.537 C372.5,706.337 373.1,706.837 373.9,706.837 L403.6,706.837 C404.4,706.837 405,706.337 405,705.537 L405,703.637 C405,702.837 404.4,702.237 403.6,702.237 L394.8,702.237 L394.8,694.937 L403.6,694.937 C404.4,694.937 405,694.337 405,693.537 L405,691.737 C405,690.937 404.4,690.337 403.6,690.337 L394.8,690.337 L394.8,674.637 C394.8,674.137 394.4,673.637 394,673.437 L392.9,672.837 C392.7,672.737 392.4,672.737 392.2,672.737 C391.9,672.737 391.5,672.837 391.3,673.037 L382.4,681.237 C382.2,681.437 382,681.937 382,682.237 L382,690.337 L370.7,690.337 C370.7,690.337 381.6,678.537 393.2,663.037 C394,661.937 393.6,660.937 393.4,660.737 L391.3,658.537 C391.1,658.337 390.6,658.137 390.3,658.137 L375.7,658.137 C375,658.137 374.5,658.737 374.4,659.337 C374.4,659.337 373.9,666.537 371.3,674.537 C368.7,682.537 365.9,687.337 363.3,690.937 C363.3,690.937 362.8,691.937 363.1,692.637 C363.4,693.337 364.1,694.437 364.1,694.437 C364.1,694.437 364.4,694.937 365.2,694.937"/>
<path class="TimeSig" d="M365.2,743.541 L382,743.541 L382,750.841 L373.9,750.841 C373.1,750.841 372.5,751.441 372.5,752.241 L372.5,754.141 C372.5,754.941 373.1,755.441 373.9,755.441 L403.6,755.441 C404.4,755.441 405,754.941 405,754.141 L405,752.241 C405,751.441 404.4,750.841 403.6,750.841 L394.8,750.841 L394.8,743.541 L403.6,743.541 C404.4,743.541 405,742.941 405,742.141 L405,740.341 C405,739.541 404.4,738.941 403.6,738.941 L394.8,738.941 L394.8,723.241 C394.8,722.741 394.4,722.241 394,722.041 L392.9,721.441 C392.7,721.341 392.4,721.341 392.2,721.341 C391.9,721.341 391.5,721.441 391.3,721.641 L382.4,729.841 C382.2,730.041 382,730.541 382,730.841 L382,738.941 L370.7,738.941 C370.7,738.941 381.6,727.141 393.2,711.641 C394,710.541 393.6,709.541 393.4,709.341 L391.3,707.141 C391.1,706.941 390.6,706.741 390.3,706.741 L375.7,706.741 C375,706.741 374.5,707.341 374.4,707.941 C374.4,707.941 373.9,715.141 371.3,723.141 C368.7,731.141 365.9,735.941 363.3,739.541 C363.3,739.541 362.8,740.541 363.1,741.241 C363.4,741.941 364.1,743.041 364.1,743.041 C364.1,743.041 364.4,743.541 365.2,743.541"/>
<path class="Page" d="M233.756,4057 L231.776,4057 L231.326,4059.3 C230.741,4062.22 230.381,4062.49 227.591,4062.49 L217.511,4062.49 C220.616,4059.25 221.651,4058.31 224.531,4056.06 C228.626,4052.91 230.381,4051.33 231.416,4049.98 C232.856,4048 233.576,4046.02 233.576,4043.82 C233.576,4038.69 229.346,4035.04 223.451,4035.04 C217.736,4035.04 213.371,4038.69 213.371,4043.5 C213.371,4046.34 214.811,4048.27 216.926,4048.27 C218.591,4048.27 219.716,4047.15 219.716,4045.53 C219.716,4044.4 219.086,4043.37 218.141,4042.96 C216.476,4042.29 216.386,4042.2 216.386,4041.61 C216.386,4040.94 216.836,4039.9 217.466,4039.14 C218.591,4037.74 220.436,4036.98 222.551,4036.98 C226.286,4036.98 228.491,4039.27 228.491,4043.05 C228.491,4046.38 226.916,4049.4 223.181,4053.36 C219.851,4056.87 217.781,4059.07 217.016,4059.93 C215.396,4061.82 214.586,4062.85 212.606,4065.46 L212.606,4066.72 L232.901,4066.72 L233.756,4057 "/>
<path class="Bracket" transform="matrix(3.62523,0,0,3.62523,214.469,1019.06)" d="M0.92002,-50 C2.69004,-51.88 6.2,-55.8 6.2,-63 C6.2,-72.1 2.25996,-81.32 2.25996,-86.97 C2.25996,-93.06 5.84004,-98.84 5.95,-99 C6.05996,-99.16 6.05,-99.39 5.94004,-99.46 C5.82998,-99.53 5.62002,-99.47 5.49004,-99.32 C5.35996,-99.17 0,-93.75 0,-85.6 C0,-76.75 3.5,-70.58 3.5,-59.07 C3.5,-56.89 2.55996,-53.36 0.1,-50.33 C-0.0799805,-50.17 -0.1,-49.89 0.0599609,-49.7 L0.0700195,-49.69 L0.1,-49.66 C2.55996,-46.63 3.5,-43.1 3.5,-40.92 C3.5,-29.4 0,-23.24 0,-14.39 C0,-6.25 5.35996,-0.8 5.49004,-0.659961 C5.62002,-0.52002 5.8,-0.42998 5.94004,-0.52002 C6.07998,-0.609961 6.07998,-0.77998 5.95,-0.97998 C5.82002,-1.17998 2.25996,-6.92002 2.25996,-13.01 C2.25996,-18.66 6.2,-27.9 6.2,-37 C6.2,-44.3 2.69004,-48.12 0.92002,-50"/>
</svg>