<?xml version="1.0" encoding="UTF-8" standalone="no"?>
<svg width="1000px" height="220px" viewBox="150 600 2700 500" xmlns="http://www.w3.org/2000/svg" xmlns:xlink="http://www.w3.org/1999/xlink" version="1.2" baseProfile="tiny">
 xmlns="http://www.w3.org/2000/svg" xmlns:xlink="http://www.w3.org/1999/xlink" version="1.2" baseProfile="tiny">
<title>exercises_scores (8)</title>
<desc>Generated by MuseScore 3.6.0</desc>
<polyline class="StaffLines" fill="none" stroke="#000000" stroke-width="2.75" stroke-linejoin="bevel" points="247.099,660.505 2764.63,660.505"/>
<polyline class="StaffLines" fill="none" stroke="#000000" stroke-width="2.75" stroke-linejoin="bevel" points="247.099,685.506 2764.63,685.506"/>
<polyline class="StaffLines" fill="none" stroke="#000000" stroke-width="2.75" stroke-linejoin="bevel" points="247.099,710.508 2764.63,710.508"/>
<polyline class="StaffLines" fill="none" stroke="#000000" stroke-width="2.75" stroke-linejoin="bevel" points="247.099,735.509 2764.63,735.509"/>
<polyline class="StaffLines" fill="none" stroke="#000000" stroke-width="2.75" stroke-linejoin="bevel" points="247.099,760.511 2764.63,760.511"/>
<polyline class="StaffLines" fill="none" stroke="#000000" stroke-width="2.75" stroke-linejoin="bevel" points="247.099,923.021 2764.63,923.021"/>
<polyline class="StaffLines" fill="none" stroke="#000000" stroke-width="2.75" stroke-linejoin="bevel" points="247.099,948.023 2764.63,948.023"/>
<polyline class="StaffLines" fill="none" stroke="#000000" stroke-width="2.75" stroke-linejoin="bevel" points="247.099,973.024 2764.63,973.024"/>
<polyline class="StaffLines" fill="none" stroke="#000000" stroke-width="2.75" stroke-linejoin="bevel" points="247.099,998.026 2764.63,998.026"/>
<polyline class="StaffLines" fill="none" stroke="#000000" stroke-width="2.75" stroke-linejoin="bevel" points="247.099,1023.03 2764.63,1023.03"/>
<path class="Text" d="M242.312,217.106 L240.092,217.106 L237.692,220.706 C234.812,218.006 231.032,216.566 226.772,216.566 C218.852,216.566 213.632,221.546 213.632,229.106 C213.632,235.646 216.872,238.886 225.692,241.166 L231.392,242.606 C235.832,243.746 236.252,243.866 237.512,244.826 C239.312,246.206 240.272,248.186 240.272,250.526 C240.272,252.926 239.372,254.906 237.572,256.586 C235.592,258.266 233.612,258.926 230.312,258.926 C225.872,258.926 222.692,257.546 219.872,254.426 C217.352,251.666 216.092,248.786 215.192,244.166 L212.612,244.166 L212.852,261.266 L215.192,261.266 L217.892,257.186 C221.912,260.486 225.212,261.686 230.492,261.686 C239.312,261.686 244.952,256.526 244.952,248.486 C244.952,244.706 243.752,241.586 241.352,239.306 C239.732,237.746 237.392,236.726 232.592,235.526 L226.172,233.906 C220.832,232.526 218.312,230.186 218.312,226.526 C218.312,222.326 221.732,219.446 226.832,219.446 C231.032,219.446 234.452,221.246 236.852,224.666 C238.592,227.126 239.732,229.646 240.452,232.706 L243.032,232.706 L242.312,217.106 M271.162,251.966 C269.242,256.286 267.202,258.026 264.082,258.026 C259.282,258.026 256.282,253.646 256.282,246.626 C256.282,239.306 259.222,234.506 263.662,234.506 C265.462,234.506 267.022,235.346 267.022,236.306 C267.022,236.486 266.962,236.666 266.662,237.026 C265.702,238.166 265.462,238.766 265.462,239.786 C265.462,241.766 266.962,243.146 269.062,243.146 C271.222,243.146 272.722,241.466 272.722,239.066 C272.722,234.986 268.702,231.926 263.362,231.926 C255.562,231.926 249.982,238.286 249.982,247.286 C249.982,255.806 255.082,261.686 262.522,261.686 C267.862,261.686 270.922,259.226 273.502,252.866 L271.162,251.966 M301.75,241.466 C301.75,237.686 301.09,235.766 299.35,234.326 C297.37,232.706 294.43,231.926 290.59,231.926 C283.81,231.926 278.89,235.106 278.89,239.486 C278.89,241.706 280.27,243.146 282.37,243.146 C284.29,243.146 285.61,241.886 285.61,240.086 C285.61,239.306 285.31,238.466 284.71,237.626 C284.35,237.206 284.29,237.086 284.29,236.786 C284.29,235.586 286.69,234.506 289.57,234.506 C291.49,234.506 293.59,235.106 294.55,236.006 C295.69,236.966 296.11,238.406 296.11,241.106 L296.11,243.446 C289.87,244.526 287.89,245.006 284.95,246.146 C279.73,248.066 277.27,250.826 277.27,254.666 C277.27,258.986 280.63,261.686 285.97,261.686 C290.11,261.686 293.83,260.006 296.41,256.946 C297.37,260.006 298.87,261.206 301.69,261.206 C304.39,261.206 307.21,259.466 307.21,257.726 C307.21,257.306 306.97,257.006 306.61,257.006 C306.37,257.006 306.13,257.066 305.71,257.246 C304.87,257.606 304.51,257.666 304.03,257.666 C302.35,257.666 301.75,256.586 301.75,253.526 L301.75,241.466 M296.11,248.786 C296.11,252.386 295.93,253.226 294.91,254.786 C293.41,257.006 290.71,258.506 288.07,258.506 C285.31,258.506 283.33,256.526 283.33,253.826 C283.33,251.306 284.59,249.506 287.23,248.246 C289.09,247.406 291.43,246.806 296.11,246.026 L296.11,248.786 M320.229,216.566 L309.129,217.226 L309.129,219.806 L312.069,219.806 C314.289,219.866 314.589,220.226 314.589,222.806 L314.589,253.406 L314.589,256.226 C314.529,257.126 314.469,257.486 314.229,257.786 C313.809,258.326 312.669,258.566 310.089,258.626 L309.669,258.626 L309.669,260.786 L325.209,260.786 L325.209,258.626 L324.789,258.626 C320.769,258.506 320.229,258.206 320.229,256.046 L320.229,253.406 L320.229,216.566 M354.78,247.286 C354.84,238.286 349.74,231.926 342.42,231.926 C334.74,231.926 328.98,238.586 328.98,247.586 C328.98,256.046 334.44,261.686 342.54,261.686 C348.3,261.686 352.32,258.866 354.78,253.166 L352.68,252.026 C350.22,256.646 347.7,258.446 343.68,258.446 C340.62,258.446 338.4,257.186 336.84,254.486 C335.76,252.686 335.28,250.586 335.34,247.286 L354.78,247.286 M335.4,244.706 C335.4,242.846 335.64,241.526 336.24,239.846 C337.5,236.246 339.42,234.506 342.36,234.506 C345.96,234.506 348.36,237.686 348.36,242.546 C348.36,244.226 347.82,244.706 345.9,244.706 L335.4,244.706 M366.601,254.126 C364.501,254.126 362.821,255.806 362.821,257.846 C362.821,259.946 364.501,261.626 366.541,261.626 C368.641,261.626 370.321,259.946 370.321,257.846 C370.321,255.806 368.641,254.126 366.601,254.126 M366.601,232.406 C364.501,232.406 362.821,234.086 362.821,236.186 C362.821,238.226 364.501,239.906 366.541,239.906 C368.641,239.906 370.321,238.226 370.321,236.126 C370.321,234.086 368.641,232.406 366.601,232.406 M428.445,217.466 L392.745,217.466 L392.745,220.286 L393.825,220.286 C397.245,220.346 398.385,220.526 398.865,221.126 C399.225,221.666 399.225,221.786 399.225,224.846 L399.225,253.406 C399.225,256.466 399.225,256.586 398.865,257.126 C398.385,257.726 397.245,257.966 393.825,257.966 L392.745,257.966 L392.745,260.786 L413.325,260.786 L413.325,257.966 L411.345,257.966 C407.925,257.966 406.785,257.726 406.305,257.126 C405.945,256.586 405.945,256.406 405.945,253.406 L405.945,239.786 L407.145,239.786 C413.325,239.546 415.545,241.766 415.785,248.426 L418.605,248.426 L418.605,228.746 L415.785,228.746 C415.425,234.626 413.085,236.906 407.385,236.966 L405.945,236.966 L405.945,223.286 C405.885,220.766 406.485,220.346 409.725,220.286 L412.485,220.286 C422.325,220.226 424.785,222.446 426.645,232.766 L429.285,232.766 L428.445,217.466 M453.538,230.708 C454.025,230.613 454.42,230.132 454.42,229.636 L454.42,229.634 L454.42,224.954 C454.42,224.665 454.237,224.283 454.012,224.102 C453.847,223.966 453.539,223.857 453.325,223.857 C453.262,223.857 453.162,223.867 453.1,223.88 L450.514,224.414 L450.514,212.606 L448.318,212.606 L448.318,224.87 L441.22,226.34 L441.22,215.102 L439.024,215.102 L439.024,226.796 L435.916,227.438 C435.433,227.54 435.04,228.024 435.04,228.518 L435.04,233.114 C435.041,233.401 435.221,233.783 435.442,233.966 C435.609,234.102 435.92,234.212 436.135,234.212 L436.138,234.212 C436.2,234.212 436.299,234.204 436.36,234.194 L439.024,233.654 L439.024,246.764 L435.916,247.406 C435.433,247.506 435.041,247.987 435.04,248.48 L435.04,253.082 C435.041,253.369 435.221,253.751 435.442,253.934 C435.609,254.07 435.92,254.18 436.135,254.18 L436.138,254.18 C436.142,254.18 436.147,254.18 436.15,254.18 C436.209,254.18 436.303,254.169 436.36,254.156 L439.024,253.616 L439.024,265.406 L441.22,265.406 L441.22,253.172 L448.318,251.732 L448.318,262.91 L450.514,262.91 L450.514,251.288 L453.538,250.676 C454.025,250.581 454.42,250.1 454.42,249.604 L454.42,249.602 L454.42,244.922 C454.42,244.633 454.237,244.251 454.012,244.07 C453.849,243.933 453.544,243.823 453.331,243.823 C453.267,243.823 453.163,243.834 453.1,243.848 L450.514,244.382 L450.514,231.326 L453.538,230.708 M441.22,246.308 L441.22,233.204 L448.318,231.77 L448.318,244.838 L441.22,246.308 M487.221,232.826 L476.541,233.486 L476.541,236.066 L479.001,236.066 C481.281,236.126 481.581,236.486 481.581,239.066 L481.581,253.406 L481.581,255.746 L481.581,256.226 C481.521,257.126 481.461,257.486 481.221,257.786 C480.801,258.326 479.661,258.566 477.081,258.626 L476.841,258.626 L476.841,260.786 L491.961,260.786 L491.961,258.626 L491.721,258.626 C487.761,258.506 487.221,258.206 487.221,255.986 L487.221,253.406 L487.221,244.886 C487.221,239.546 490.161,235.586 494.061,235.586 C497.481,235.586 499.221,238.046 499.221,242.906 L499.221,253.406 L499.221,256.286 C499.161,257.066 499.101,257.486 498.801,257.786 C498.441,258.326 497.241,258.566 494.661,258.626 L494.421,258.626 L494.421,260.786 L509.601,260.786 L509.601,258.626 L509.361,258.626 C505.401,258.506 504.861,258.206 504.861,256.046 L504.861,253.406 L504.861,245.426 C504.861,239.426 507.561,235.586 511.761,235.586 C515.181,235.586 516.861,238.166 516.861,243.566 L516.861,253.406 L516.861,256.226 C516.801,257.066 516.741,257.486 516.441,257.786 C516.081,258.326 514.881,258.566 512.301,258.626 L512.061,258.626 L512.061,260.786 L527.241,260.786 L527.241,258.626 L527.001,258.626 C523.041,258.506 522.501,258.206 522.501,255.986 L522.501,253.406 L522.501,242.366 C522.501,238.646 522.141,237.386 520.581,235.346 C518.841,233.126 516.381,231.926 513.501,231.926 C509.601,231.926 506.721,233.786 504.141,237.926 C503.121,234.326 499.881,231.926 495.861,231.926 C492.201,231.926 489.561,233.666 487.221,237.446 L487.221,232.826 M555.609,241.466 C555.609,237.686 554.949,235.766 553.209,234.326 C551.229,232.706 548.289,231.926 544.449,231.926 C537.669,231.926 532.749,235.106 532.749,239.486 C532.749,241.706 534.129,243.146 536.229,243.146 C538.149,243.146 539.469,241.886 539.469,240.086 C539.469,239.306 539.169,238.466 538.569,237.626 C538.209,237.206 538.149,237.086 538.149,236.786 C538.149,235.586 540.549,234.506 543.429,234.506 C545.349,234.506 547.449,235.106 548.409,236.006 C549.549,236.966 549.969,238.406 549.969,241.106 L549.969,243.446 C543.729,244.526 541.749,245.006 538.809,246.146 C533.589,248.066 531.129,250.826 531.129,254.666 C531.129,258.986 534.489,261.686 539.829,261.686 C543.969,261.686 547.689,260.006 550.269,256.946 C551.229,260.006 552.729,261.206 555.549,261.206 C558.249,261.206 561.069,259.466 561.069,257.726 C561.069,257.306 560.829,257.006 560.469,257.006 C560.229,257.006 559.989,257.066 559.569,257.246 C558.729,257.606 558.369,257.666 557.889,257.666 C556.209,257.666 555.609,256.586 555.609,253.526 L555.609,241.466 M549.969,248.786 C549.969,252.386 549.789,253.226 548.769,254.786 C547.269,257.006 544.569,258.506 541.929,258.506 C539.169,258.506 537.189,256.526 537.189,253.826 C537.189,251.306 538.449,249.506 541.089,248.246 C542.949,247.406 545.289,246.806 549.969,246.026 L549.969,248.786 M572.534,232.826 L560.834,233.486 L560.834,236.066 L564.314,236.066 C566.594,236.126 566.894,236.486 566.894,239.066 L566.894,259.406 C566.894,264.266 566.594,266.546 565.754,268.286 C565.154,269.486 563.774,270.386 562.454,270.386 C561.614,270.386 560.954,270.026 560.954,269.606 C560.954,269.366 561.014,269.246 561.254,268.646 C561.554,268.046 561.674,267.626 561.674,267.206 C561.674,265.706 560.234,264.386 558.554,264.386 C556.634,264.386 555.194,265.886 555.194,267.986 C555.194,270.926 557.894,272.906 561.914,272.906 C565.274,272.906 568.334,271.466 570.074,269.006 C571.934,266.366 572.534,263.306 572.534,256.526 L572.534,232.826 M569.714,217.886 C567.794,217.886 566.234,219.446 566.234,221.366 C566.234,223.286 567.794,224.846 569.654,224.846 C571.634,224.846 573.194,223.286 573.194,221.366 C573.194,219.446 571.634,217.886 569.714,217.886 M592.984,231.926 C585.604,231.926 579.904,238.466 579.904,246.866 C579.904,255.086 585.664,261.686 592.864,261.686 C600.064,261.686 605.824,255.086 605.824,246.806 C605.824,238.586 600.064,231.926 592.984,231.926 M592.984,234.506 C597.184,234.506 599.524,238.886 599.524,246.806 C599.524,254.786 597.184,259.106 592.864,259.106 C588.544,259.106 586.204,254.786 586.204,246.866 C586.204,238.706 588.484,234.506 592.984,234.506 M619.744,232.826 L609.124,233.486 L609.124,236.066 L611.584,236.066 C613.864,236.126 614.164,236.486 614.164,239.066 L614.164,253.406 L614.164,256.226 C614.104,257.126 614.044,257.486 613.804,257.786 C613.384,258.326 612.184,258.566 609.604,258.626 L609.364,258.626 L609.364,260.786 L625.384,260.786 L625.384,258.626 L624.304,258.626 C620.284,258.506 619.744,258.206 619.744,256.046 L619.744,253.406 L619.744,252.806 C619.804,242.726 623.404,235.046 628.084,234.806 C627.244,235.766 627.004,236.366 627.004,237.506 C627.004,239.426 628.384,240.806 630.304,240.806 C632.524,240.806 633.964,239.186 633.964,236.786 C633.964,233.846 631.924,231.926 628.744,231.926 C624.964,231.926 621.724,234.926 619.744,240.266 L619.744,232.826 "/>
<polyline class="BarLine" fill="none" stroke="#000000" stroke-width="4.50" stroke-linejoin="bevel" points="249.349,921.646 249.349,1024.4"/>
<polyline class="BarLine" fill="none" stroke="#000000" stroke-width="4.50" stroke-linejoin="bevel" points="996.167,921.646 996.167,1024.4"/>
<polyline class="BarLine" fill="none" stroke="#000000" stroke-width="4.50" stroke-linejoin="bevel" points="1619.89,921.646 1619.89,1024.4"/>
<polyline class="BarLine" fill="none" stroke="#000000" stroke-width="4.50" stroke-linejoin="bevel" points="2213.21,921.646 2213.21,1024.4"/>
<polyline class="BarLine" fill="none" stroke="#000000" stroke-width="4.50" stroke-linejoin="bevel" points="2734.88,921.646 2734.88,1024.4"/>
<polyline class="BarLine" fill="none" stroke="#000000" stroke-width="13.75" stroke-linejoin="bevel" points="2757.75,921.646 2757.75,1024.4"/>
<polyline class="BarLine" fill="none" stroke="#000000" stroke-width="4.50" stroke-linejoin="bevel" points="249.349,659.13 249.349,923.021"/>
<polyline class="BarLine" fill="none" stroke="#000000" stroke-width="4.50" stroke-linejoin="bevel" points="996.167,659.13 996.167,923.021"/>
<polyline class="BarLine" fill="none" stroke="#000000" stroke-width="4.50" stroke-linejoin="bevel" points="1619.89,659.13 1619.89,923.021"/>
<polyline class="BarLine" fill="none" stroke="#000000" stroke-width="4.50" stroke-linejoin="bevel" points="2213.21,659.13 2213.21,923.021"/>
<polyline class="BarLine" fill="none" stroke="#000000" stroke-width="4.50" stroke-linejoin="bevel" points="2734.88,659.13 2734.88,923.021"/>
<polyline class="BarLine" fill="none" stroke="#000000" stroke-width="13.75" stroke-linejoin="bevel" points="2757.75,659.13 2757.75,923.021"/>
<path class="Accidental" d="M478.302,937.423 C478.902,937.323 479.402,936.623 479.402,936.023 L479.402,930.123 C479.402,929.323 478.802,928.723 478.002,928.723 L477.802,928.723 L474.502,929.423 L474.502,914.523 L471.702,914.523 L471.702,930.023 L462.802,931.823 L462.802,917.723 L460.002,917.723 L460.002,932.423 L456.102,933.223 C455.502,933.323 455.002,934.023 455.002,934.623 L455.002,934.823 L455.002,940.623 L455.002,940.423 C455.002,941.223 455.602,941.823 456.402,941.823 L456.702,941.823 L460.002,941.123 L460.002,957.623 L456.102,958.423 C455.502,958.523 455.002,959.223 455.002,959.823 L455.002,965.623 C455.002,966.423 455.602,967.023 456.402,967.023 L456.702,967.023 L460.002,966.323 L460.002,981.223 L462.802,981.223 L462.802,965.723 L471.702,963.923 L471.702,978.023 L474.502,978.023 L474.502,963.323 L478.302,962.623 C478.902,962.523 479.402,961.823 479.402,961.223 L479.402,955.323 C479.402,954.523 478.802,953.923 478.002,953.923 L477.802,953.923 L474.502,954.623 L474.502,938.123 L478.302,937.423 M462.802,957.123 L462.802,940.523 L471.702,938.723 L471.702,955.223 L462.802,957.123 "/>
<path class="Accidental" d="M605.368,924.922 C605.968,924.822 606.468,924.122 606.468,923.522 L606.468,917.622 C606.468,916.822 605.868,916.222 605.068,916.222 L604.868,916.222 L601.568,916.922 L601.568,902.022 L598.768,902.022 L598.768,917.522 L589.868,919.322 L589.868,905.222 L587.068,905.222 L587.068,919.922 L583.168,920.722 C582.568,920.822 582.068,921.522 582.068,922.122 L582.068,922.322 L582.068,928.122 L582.068,927.922 C582.068,928.722 582.668,929.322 583.468,929.322 L583.768,929.322 L587.068,928.622 L587.068,945.122 L583.168,945.922 C582.568,946.022 582.068,946.722 582.068,947.322 L582.068,953.122 C582.068,953.922 582.668,954.522 583.468,954.522 L583.768,954.522 L587.068,953.822 L587.068,968.722 L589.868,968.722 L589.868,953.222 L598.768,951.422 L598.768,965.522 L601.568,965.522 L601.568,950.822 L605.368,950.122 C605.968,950.022 606.468,949.322 606.468,948.722 L606.468,942.822 C606.468,942.022 605.868,941.422 605.068,941.422 L604.868,941.422 L601.568,942.122 L601.568,925.622 L605.368,924.922 M589.868,944.622 L589.868,928.022 L598.768,926.222 L598.768,942.722 L589.868,944.622 "/>
<path class="Accidental" d="M732.434,912.421 C733.034,912.321 733.534,911.621 733.534,911.021 L733.534,905.121 C733.534,904.321 732.934,903.721 732.134,903.721 L731.934,903.721 L728.634,904.421 L728.634,889.521 L725.834,889.521 L725.834,905.021 L716.934,906.821 L716.934,892.721 L714.134,892.721 L714.134,907.421 L710.234,908.221 C709.634,908.321 709.134,909.021 709.134,909.621 L709.134,909.821 L709.134,915.621 L709.134,915.421 C709.134,916.221 709.734,916.821 710.534,916.821 L710.834,916.821 L714.134,916.121 L714.134,932.621 L710.234,933.421 C709.634,933.521 709.134,934.221 709.134,934.821 L709.134,940.621 C709.134,941.421 709.734,942.021 710.534,942.021 L710.834,942.021 L714.134,941.321 L714.134,956.221 L716.934,956.221 L716.934,940.721 L725.834,938.921 L725.834,953.021 L728.634,953.021 L728.634,938.321 L732.434,937.621 C733.034,937.521 733.534,936.821 733.534,936.221 L733.534,930.321 C733.534,929.521 732.934,928.921 732.134,928.921 L731.934,928.921 L728.634,929.621 L728.634,913.121 L732.434,912.421 M716.934,932.121 L716.934,915.521 L725.834,913.721 L725.834,930.221 L716.934,932.121 "/>
<path class="Accidental" d="M1043.47,887.42 C1044.07,887.32 1044.57,886.62 1044.57,886.02 L1044.57,880.12 C1044.57,879.32 1043.97,878.72 1043.17,878.72 L1042.97,878.72 L1039.67,879.42 L1039.67,864.52 L1036.87,864.52 L1036.87,880.02 L1027.97,881.82 L1027.97,867.72 L1025.17,867.72 L1025.17,882.42 L1021.27,883.22 C1020.67,883.32 1020.17,884.02 1020.17,884.62 L1020.17,884.82 L1020.17,890.62 L1020.17,890.42 C1020.17,891.22 1020.77,891.82 1021.57,891.82 L1021.87,891.82 L1025.17,891.12 L1025.17,907.62 L1021.27,908.42 C1020.67,908.52 1020.17,909.22 1020.17,909.82 L1020.17,915.62 C1020.17,916.42 1020.77,917.02 1021.57,917.02 L1021.87,917.02 L1025.17,916.32 L1025.17,931.22 L1027.97,931.22 L1027.97,915.72 L1036.87,913.92 L1036.87,928.02 L1039.67,928.02 L1039.67,913.32 L1043.47,912.62 C1044.07,912.52 1044.57,911.82 1044.57,911.22 L1044.57,905.32 C1044.57,904.52 1043.97,903.92 1043.17,903.92 L1042.97,903.92 L1039.67,904.62 L1039.67,888.12 L1043.47,887.42 M1027.97,907.12 L1027.97,890.52 L1036.87,888.72 L1036.87,905.22 L1027.97,907.12 "/>
<path class="Accidental" d="M1182.98,874.919 C1183.58,874.819 1184.08,874.119 1184.08,873.519 L1184.08,867.619 C1184.08,866.819 1183.48,866.219 1182.68,866.219 L1182.48,866.219 L1179.18,866.919 L1179.18,852.019 L1176.38,852.019 L1176.38,867.519 L1167.48,869.319 L1167.48,855.219 L1164.68,855.219 L1164.68,869.919 L1160.78,870.719 C1160.18,870.819 1159.68,871.519 1159.68,872.119 L1159.68,872.319 L1159.68,878.119 L1159.68,877.919 C1159.68,878.719 1160.28,879.319 1161.08,879.319 L1161.38,879.319 L1164.68,878.619 L1164.68,895.119 L1160.78,895.919 C1160.18,896.019 1159.68,896.719 1159.68,897.319 L1159.68,903.119 C1159.68,903.919 1160.28,904.519 1161.08,904.519 L1161.38,904.519 L1164.68,903.819 L1164.68,918.719 L1167.48,918.719 L1167.48,903.219 L1176.38,901.419 L1176.38,915.519 L1179.18,915.519 L1179.18,900.819 L1182.98,900.119 C1183.58,900.019 1184.08,899.319 1184.08,898.719 L1184.08,892.819 C1184.08,892.019 1183.48,891.419 1182.68,891.419 L1182.48,891.419 L1179.18,892.119 L1179.18,875.619 L1182.98,874.919 M1167.48,894.619 L1167.48,878.019 L1176.38,876.219 L1176.38,892.719 L1167.48,894.619 "/>
<path class="Accidental" d="M1462.02,849.917 C1462.62,849.817 1463.12,849.117 1463.12,848.517 L1463.12,842.617 C1463.12,841.817 1462.52,841.217 1461.72,841.217 L1461.52,841.217 L1458.22,841.917 L1458.22,827.017 L1455.42,827.017 L1455.42,842.517 L1446.52,844.317 L1446.52,830.217 L1443.72,830.217 L1443.72,844.917 L1439.82,845.717 C1439.22,845.817 1438.72,846.517 1438.72,847.117 L1438.72,847.317 L1438.72,853.117 L1438.72,852.917 C1438.72,853.717 1439.32,854.317 1440.12,854.317 L1440.42,854.317 L1443.72,853.617 L1443.72,870.117 L1439.82,870.917 C1439.22,871.017 1438.72,871.717 1438.72,872.317 L1438.72,878.117 C1438.72,878.917 1439.32,879.517 1440.12,879.517 L1440.42,879.517 L1443.72,878.817 L1443.72,893.717 L1446.52,893.717 L1446.52,878.217 L1455.42,876.417 L1455.42,890.517 L1458.22,890.517 L1458.22,875.817 L1462.02,875.117 C1462.62,875.017 1463.12,874.317 1463.12,873.717 L1463.12,867.817 C1463.12,867.017 1462.52,866.417 1461.72,866.417 L1461.52,866.417 L1458.22,867.117 L1458.22,850.617 L1462.02,849.917 M1446.52,869.617 L1446.52,853.017 L1455.42,851.217 L1455.42,867.717 L1446.52,869.617 "/>
<path class="Accidental" d="M1784.18,874.919 C1784.78,874.819 1785.28,874.119 1785.28,873.519 L1785.28,867.619 C1785.28,866.819 1784.68,866.219 1783.88,866.219 L1783.68,866.219 L1780.38,866.919 L1780.38,852.019 L1777.58,852.019 L1777.58,867.519 L1768.68,869.319 L1768.68,855.219 L1765.88,855.219 L1765.88,869.919 L1761.98,870.719 C1761.38,870.819 1760.88,871.519 1760.88,872.119 L1760.88,872.319 L1760.88,878.119 L1760.88,877.919 C1760.88,878.719 1761.48,879.319 1762.28,879.319 L1762.58,879.319 L1765.88,878.619 L1765.88,895.119 L1761.98,895.919 C1761.38,896.019 1760.88,896.719 1760.88,897.319 L1760.88,903.119 C1760.88,903.919 1761.48,904.519 1762.28,904.519 L1762.58,904.519 L1765.88,903.819 L1765.88,918.719 L1768.68,918.719 L1768.68,903.219 L1777.58,901.419 L1777.58,915.519 L1780.38,915.519 L1780.38,900.819 L1784.18,900.119 C1784.78,900.019 1785.28,899.319 1785.28,898.719 L1785.28,892.819 C1785.28,892.019 1784.68,891.419 1783.88,891.419 L1783.68,891.419 L1780.38,892.119 L1780.38,875.619 L1784.18,874.919 M1768.68,894.619 L1768.68,878.019 L1777.58,876.219 L1777.58,892.719 L1768.68,894.619 "/>
<path class="Accidental" d="M1921.07,887.42 C1921.67,887.32 1922.17,886.62 1922.17,886.02 L1922.17,880.12 C1922.17,879.32 1921.57,878.72 1920.77,878.72 L1920.57,878.72 L1917.27,879.42 L1917.27,864.52 L1914.47,864.52 L1914.47,880.02 L1905.57,881.82 L1905.57,867.72 L1902.77,867.72 L1902.77,882.42 L1898.87,883.22 C1898.27,883.32 1897.77,884.02 1897.77,884.62 L1897.77,884.82 L1897.77,890.62 L1897.77,890.42 C1897.77,891.22 1898.37,891.82 1899.17,891.82 L1899.47,891.82 L1902.77,891.12 L1902.77,907.62 L1898.87,908.42 C1898.27,908.52 1897.77,909.22 1897.77,909.82 L1897.77,915.62 C1897.77,916.42 1898.37,917.02 1899.17,917.02 L1899.47,917.02 L1902.77,916.32 L1902.77,931.22 L1905.57,931.22 L1905.57,915.72 L1914.47,913.92 L1914.47,928.02 L1917.27,928.02 L1917.27,913.32 L1921.07,912.62 C1921.67,912.52 1922.17,911.82 1922.17,911.22 L1922.17,905.32 C1922.17,904.52 1921.57,903.92 1920.77,903.92 L1920.57,903.92 L1917.27,904.62 L1917.27,888.12 L1921.07,887.42 M1905.57,907.12 L1905.57,890.52 L1914.47,888.72 L1914.47,905.22 L1905.57,907.12 "/>
<path class="Accidental" d="M2260.51,912.421 C2261.11,912.321 2261.61,911.621 2261.61,911.021 L2261.61,905.121 C2261.61,904.321 2261.01,903.721 2260.21,903.721 L2260.01,903.721 L2256.71,904.421 L2256.71,889.521 L2253.91,889.521 L2253.91,905.021 L2245.01,906.821 L2245.01,892.721 L2242.21,892.721 L2242.21,907.421 L2238.31,908.221 C2237.71,908.321 2237.21,909.021 2237.21,909.621 L2237.21,909.821 L2237.21,915.621 L2237.21,915.421 C2237.21,916.221 2237.81,916.821 2238.61,916.821 L2238.91,916.821 L2242.21,916.121 L2242.21,932.621 L2238.31,933.421 C2237.71,933.521 2237.21,934.221 2237.21,934.821 L2237.21,940.621 C2237.21,941.421 2237.81,942.021 2238.61,942.021 L2238.91,942.021 L2242.21,941.321 L2242.21,956.221 L2245.01,956.221 L2245.01,940.721 L2253.91,938.921 L2253.91,953.021 L2256.71,953.021 L2256.71,938.321 L2260.51,937.621 C2261.11,937.521 2261.61,936.821 2261.61,936.221 L2261.61,930.321 C2261.61,929.521 2261.01,928.921 2260.21,928.921 L2260.01,928.921 L2256.71,929.621 L2256.71,913.121 L2260.51,912.421 M2245.01,932.121 L2245.01,915.521 L2253.91,913.721 L2253.91,930.221 L2245.01,932.121 "/>
<path class="Accidental" d="M2389.61,924.922 C2390.21,924.822 2390.71,924.122 2390.71,923.522 L2390.71,917.622 C2390.71,916.822 2390.11,916.222 2389.31,916.222 L2389.11,916.222 L2385.81,916.922 L2385.81,902.022 L2383.01,902.022 L2383.01,917.522 L2374.11,919.322 L2374.11,905.222 L2371.31,905.222 L2371.31,919.922 L2367.41,920.722 C2366.81,920.822 2366.31,921.522 2366.31,922.122 L2366.31,922.322 L2366.31,928.122 L2366.31,927.922 C2366.31,928.722 2366.91,929.322 2367.71,929.322 L2368.01,929.322 L2371.31,928.622 L2371.31,945.122 L2367.41,945.922 C2366.81,946.022 2366.31,946.722 2366.31,947.322 L2366.31,953.122 C2366.31,953.922 2366.91,954.522 2367.71,954.522 L2368.01,954.522 L2371.31,953.822 L2371.31,968.722 L2374.11,968.722 L2374.11,953.222 L2383.01,951.422 L2383.01,965.522 L2385.81,965.522 L2385.81,950.822 L2389.61,950.122 C2390.21,950.022 2390.71,949.322 2390.71,948.722 L2390.71,942.822 C2390.71,942.022 2390.11,941.422 2389.31,941.422 L2389.11,941.422 L2385.81,942.122 L2385.81,925.622 L2389.61,924.922 M2374.11,944.622 L2374.11,928.022 L2383.01,926.222 L2383.01,942.722 L2374.11,944.622 "/>
<path class="Accidental" d="M2518.71,937.423 C2519.31,937.323 2519.81,936.623 2519.81,936.023 L2519.81,930.123 C2519.81,929.323 2519.21,928.723 2518.41,928.723 L2518.21,928.723 L2514.91,929.423 L2514.91,914.523 L2512.11,914.523 L2512.11,930.023 L2503.21,931.823 L2503.21,917.723 L2500.41,917.723 L2500.41,932.423 L2496.51,933.223 C2495.91,933.323 2495.41,934.023 2495.41,934.623 L2495.41,934.823 L2495.41,940.623 L2495.41,940.423 C2495.41,941.223 2496.01,941.823 2496.81,941.823 L2497.11,941.823 L2500.41,941.123 L2500.41,957.623 L2496.51,958.423 C2495.91,958.523 2495.41,959.223 2495.41,959.823 L2495.41,965.623 C2495.41,966.423 2496.01,967.023 2496.81,967.023 L2497.11,967.023 L2500.41,966.323 L2500.41,981.223 L2503.21,981.223 L2503.21,965.723 L2512.11,963.923 L2512.11,978.023 L2514.91,978.023 L2514.91,963.323 L2518.71,962.623 C2519.31,962.523 2519.81,961.823 2519.81,961.223 L2519.81,955.323 C2519.81,954.523 2519.21,953.923 2518.41,953.923 L2518.21,953.923 L2514.91,954.623 L2514.91,938.123 L2518.71,937.423 M2503.21,957.123 L2503.21,940.523 L2512.11,938.723 L2512.11,955.223 L2503.21,957.123 "/>
<path class="Accidental" d="M478.302,737.41 C478.902,737.31 479.402,736.61 479.402,736.01 L479.402,730.11 C479.402,729.31 478.802,728.71 478.002,728.71 L477.802,728.71 L474.502,729.41 L474.502,714.51 L471.702,714.51 L471.702,730.01 L462.802,731.81 L462.802,717.71 L460.002,717.71 L460.002,732.41 L456.102,733.21 C455.502,733.31 455.002,734.01 455.002,734.61 L455.002,734.81 L455.002,740.61 L455.002,740.41 C455.002,741.21 455.602,741.81 456.402,741.81 L456.702,741.81 L460.002,741.11 L460.002,757.61 L456.102,758.41 C455.502,758.51 455.002,759.21 455.002,759.81 L455.002,765.61 C455.002,766.41 455.602,767.01 456.402,767.01 L456.702,767.01 L460.002,766.31 L460.002,781.21 L462.802,781.21 L462.802,765.71 L471.702,763.91 L471.702,778.01 L474.502,778.01 L474.502,763.31 L478.302,762.61 C478.902,762.51 479.402,761.81 479.402,761.21 L479.402,755.31 C479.402,754.51 478.802,753.91 478.002,753.91 L477.802,753.91 L474.502,754.61 L474.502,738.11 L478.302,737.41 M462.802,757.11 L462.802,740.51 L471.702,738.71 L471.702,755.21 L462.802,757.11 "/>
<path class="Accidental" d="M605.368,724.909 C605.968,724.809 606.468,724.109 606.468,723.509 L606.468,717.609 C606.468,716.809 605.868,716.209 605.068,716.209 L604.868,716.209 L601.568,716.909 L601.568,702.009 L598.768,702.009 L598.768,717.509 L589.868,719.309 L589.868,705.209 L587.068,705.209 L587.068,719.909 L583.168,720.709 C582.568,720.809 582.068,721.509 582.068,722.109 L582.068,722.309 L582.068,728.109 L582.068,727.909 C582.068,728.709 582.668,729.309 583.468,729.309 L583.768,729.309 L587.068,728.609 L587.068,745.109 L583.168,745.909 C582.568,746.009 582.068,746.709 582.068,747.309 L582.068,753.109 C582.068,753.909 582.668,754.509 583.468,754.509 L583.768,754.509 L587.068,753.809 L587.068,768.709 L589.868,768.709 L589.868,753.209 L598.768,751.409 L598.768,765.509 L601.568,765.509 L601.568,750.809 L605.368,750.109 C605.968,750.009 606.468,749.309 606.468,748.709 L606.468,742.809 C606.468,742.009 605.868,741.409 605.068,741.409 L604.868,741.409 L601.568,742.109 L601.568,725.609 L605.368,724.909 M589.868,744.609 L589.868,728.009 L598.768,726.209 L598.768,742.709 L589.868,744.609 "/>
<path class="Accidental" d="M732.434,712.409 C733.034,712.309 733.534,711.609 733.534,711.009 L733.534,705.109 C733.534,704.309 732.934,703.709 732.134,703.709 L731.934,703.709 L728.634,704.409 L728.634,689.509 L725.834,689.509 L725.834,705.009 L716.934,706.809 L716.934,692.709 L714.134,692.709 L714.134,707.409 L710.234,708.209 C709.634,708.309 709.134,709.009 709.134,709.609 L709.134,709.809 L709.134,715.609 L709.134,715.409 C709.134,716.209 709.734,716.809 710.534,716.809 L710.834,716.809 L714.134,716.109 L714.134,732.609 L710.234,733.409 C709.634,733.509 709.134,734.209 709.134,734.809 L709.134,740.609 C709.134,741.409 709.734,742.009 710.534,742.009 L710.834,742.009 L714.134,741.309 L714.134,756.209 L716.934,756.209 L716.934,740.709 L725.834,738.909 L725.834,753.009 L728.634,753.009 L728.634,738.309 L732.434,737.609 C733.034,737.509 733.534,736.809 733.534,736.209 L733.534,730.309 C733.534,729.509 732.934,728.909 732.134,728.909 L731.934,728.909 L728.634,729.609 L728.634,713.109 L732.434,712.409 M716.934,732.109 L716.934,715.509 L725.834,713.709 L725.834,730.209 L716.934,732.109 "/>
<path class="Accidental" d="M1052.22,687.407 C1052.82,687.307 1053.32,686.607 1053.32,686.007 L1053.32,680.107 C1053.32,679.307 1052.72,678.707 1051.92,678.707 L1051.72,678.707 L1048.42,679.407 L1048.42,664.507 L1045.62,664.507 L1045.62,680.007 L1036.72,681.807 L1036.72,667.707 L1033.92,667.707 L1033.92,682.407 L1030.02,683.207 C1029.42,683.307 1028.92,684.007 1028.92,684.607 L1028.92,684.807 L1028.92,690.607 L1028.92,690.407 C1028.92,691.207 1029.52,691.807 1030.32,691.807 L1030.62,691.807 L1033.92,691.107 L1033.92,707.607 L1030.02,708.407 C1029.42,708.507 1028.92,709.207 1028.92,709.807 L1028.92,715.607 C1028.92,716.407 1029.52,717.007 1030.32,717.007 L1030.62,717.007 L1033.92,716.307 L1033.92,731.207 L1036.72,731.207 L1036.72,715.707 L1045.62,713.907 L1045.62,728.007 L1048.42,728.007 L1048.42,713.307 L1052.22,712.607 C1052.82,712.507 1053.32,711.807 1053.32,711.207 L1053.32,705.307 C1053.32,704.507 1052.72,703.907 1051.92,703.907 L1051.72,703.907 L1048.42,704.607 L1048.42,688.107 L1052.22,687.407 M1036.72,707.107 L1036.72,690.507 L1045.62,688.707 L1045.62,705.207 L1036.72,707.107 "/>
<path class="Accidental" d="M1191.74,674.906 C1192.34,674.806 1192.84,674.106 1192.84,673.506 L1192.84,667.606 C1192.84,666.806 1192.24,666.206 1191.44,666.206 L1191.24,666.206 L1187.94,666.906 L1187.94,652.006 L1185.14,652.006 L1185.14,667.506 L1176.24,669.306 L1176.24,655.206 L1173.44,655.206 L1173.44,669.906 L1169.54,670.706 C1168.94,670.806 1168.44,671.506 1168.44,672.106 L1168.44,672.306 L1168.44,678.106 L1168.44,677.906 C1168.44,678.706 1169.04,679.306 1169.84,679.306 L1170.14,679.306 L1173.44,678.606 L1173.44,695.106 L1169.54,695.906 C1168.94,696.006 1168.44,696.706 1168.44,697.306 L1168.44,703.106 C1168.44,703.906 1169.04,704.506 1169.84,704.506 L1170.14,704.506 L1173.44,703.806 L1173.44,718.706 L1176.24,718.706 L1176.24,703.206 L1185.14,701.406 L1185.14,715.506 L1187.94,715.506 L1187.94,700.806 L1191.74,700.106 C1192.34,700.006 1192.84,699.306 1192.84,698.706 L1192.84,692.806 C1192.84,692.006 1192.24,691.406 1191.44,691.406 L1191.24,691.406 L1187.94,692.106 L1187.94,675.606 L1191.74,674.906 M1176.24,694.606 L1176.24,678.006 L1185.14,676.206 L1185.14,692.706 L1176.24,694.606 "/>
<path class="Accidental" d="M1470.77,649.905 C1471.37,649.805 1471.87,649.105 1471.87,648.505 L1471.87,642.605 C1471.87,641.805 1471.27,641.205 1470.47,641.205 L1470.27,641.205 L1466.97,641.905 L1466.97,627.005 L1464.17,627.005 L1464.17,642.505 L1455.27,644.305 L1455.27,630.205 L1452.47,630.205 L1452.47,644.905 L1448.57,645.705 C1447.97,645.805 1447.47,646.505 1447.47,647.105 L1447.47,647.305 L1447.47,653.105 L1447.47,652.905 C1447.47,653.705 1448.07,654.305 1448.87,654.305 L1449.17,654.305 L1452.47,653.605 L1452.47,670.105 L1448.57,670.905 C1447.97,671.005 1447.47,671.705 1447.47,672.305 L1447.47,678.105 C1447.47,678.905 1448.07,679.505 1448.87,679.505 L1449.17,679.505 L1452.47,678.805 L1452.47,693.705 L1455.27,693.705 L1455.27,678.205 L1464.17,676.405 L1464.17,690.505 L1466.97,690.505 L1466.97,675.805 L1470.77,675.105 C1471.37,675.005 1471.87,674.305 1471.87,673.705 L1471.87,667.805 C1471.87,667.005 1471.27,666.405 1470.47,666.405 L1470.27,666.405 L1466.97,667.105 L1466.97,650.605 L1470.77,649.905 M1455.27,669.605 L1455.27,653.005 L1464.17,651.205 L1464.17,667.705 L1455.27,669.605 "/>
<path class="Accidental" d="M1792.93,674.906 C1793.53,674.806 1794.03,674.106 1794.03,673.506 L1794.03,667.606 C1794.03,666.806 1793.43,666.206 1792.63,666.206 L1792.43,666.206 L1789.13,666.906 L1789.13,652.006 L1786.33,652.006 L1786.33,667.506 L1777.43,669.306 L1777.43,655.206 L1774.63,655.206 L1774.63,669.906 L1770.73,670.706 C1770.13,670.806 1769.63,671.506 1769.63,672.106 L1769.63,672.306 L1769.63,678.106 L1769.63,677.906 C1769.63,678.706 1770.23,679.306 1771.03,679.306 L1771.33,679.306 L1774.63,678.606 L1774.63,695.106 L1770.73,695.906 C1770.13,696.006 1769.63,696.706 1769.63,697.306 L1769.63,703.106 C1769.63,703.906 1770.23,704.506 1771.03,704.506 L1771.33,704.506 L1774.63,703.806 L1774.63,718.706 L1777.43,718.706 L1777.43,703.206 L1786.33,701.406 L1786.33,715.506 L1789.13,715.506 L1789.13,700.806 L1792.93,700.106 C1793.53,700.006 1794.03,699.306 1794.03,698.706 L1794.03,692.806 C1794.03,692.006 1793.43,691.406 1792.63,691.406 L1792.43,691.406 L1789.13,692.106 L1789.13,675.606 L1792.93,674.906 M1777.43,694.606 L1777.43,678.006 L1786.33,676.206 L1786.33,692.706 L1777.43,694.606 "/>
<path class="Accidental" d="M1929.82,687.407 C1930.42,687.307 1930.92,686.607 1930.92,686.007 L1930.92,680.107 C1930.92,679.307 1930.32,678.707 1929.52,678.707 L1929.32,678.707 L1926.02,679.407 L1926.02,664.507 L1923.22,664.507 L1923.22,680.007 L1914.32,681.807 L1914.32,667.707 L1911.52,667.707 L1911.52,682.407 L1907.62,683.207 C1907.02,683.307 1906.52,684.007 1906.52,684.607 L1906.52,684.807 L1906.52,690.607 L1906.52,690.407 C1906.52,691.207 1907.12,691.807 1907.92,691.807 L1908.22,691.807 L1911.52,691.107 L1911.52,707.607 L1907.62,708.407 C1907.02,708.507 1906.52,709.207 1906.52,709.807 L1906.52,715.607 C1906.52,716.407 1907.12,717.007 1907.92,717.007 L1908.22,717.007 L1911.52,716.307 L1911.52,731.207 L1914.32,731.207 L1914.32,715.707 L1923.22,713.907 L1923.22,728.007 L1926.02,728.007 L1926.02,713.307 L1929.82,712.607 C1930.42,712.507 1930.92,711.807 1930.92,711.207 L1930.92,705.307 C1930.92,704.507 1930.32,703.907 1929.52,703.907 L1929.32,703.907 L1926.02,704.607 L1926.02,688.107 L1929.82,687.407 M1914.32,707.107 L1914.32,690.507 L1923.22,688.707 L1923.22,705.207 L1914.32,707.107 "/>
<path class="Accidental" d="M2260.51,712.409 C2261.11,712.309 2261.61,711.609 2261.61,711.009 L2261.61,705.109 C2261.61,704.309 2261.01,703.709 2260.21,703.709 L2260.01,703.709 L2256.71,704.409 L2256.71,689.509 L2253.91,689.509 L2253.91,705.009 L2245.01,706.809 L2245.01,692.709 L2242.21,692.709 L2242.21,707.409 L2238.31,708.209 C2237.71,708.309 2237.21,709.009 2237.21,709.609 L2237.21,709.809 L2237.21,715.609 L2237.21,715.409 C2237.21,716.209 2237.81,716.809 2238.61,716.809 L2238.91,716.809 L2242.21,716.109 L2242.21,732.609 L2238.31,733.409 C2237.71,733.509 2237.21,734.209 2237.21,734.809 L2237.21,740.609 C2237.21,741.409 2237.81,742.009 2238.61,742.009 L2238.91,742.009 L2242.21,741.309 L2242.21,756.209 L2245.01,756.209 L2245.01,740.709 L2253.91,738.909 L2253.91,753.009 L2256.71,753.009 L2256.71,738.309 L2260.51,737.609 C2261.11,737.509 2261.61,736.809 2261.61,736.209 L2261.61,730.309 C2261.61,729.509 2261.01,728.909 2260.21,728.909 L2260.01,728.909 L2256.71,729.609 L2256.71,713.109 L2260.51,712.409 M2245.01,732.109 L2245.01,715.509 L2253.91,713.709 L2253.91,730.209 L2245.01,732.109 "/>
<path class="Accidental" d="M2389.61,724.909 C2390.21,724.809 2390.71,724.109 2390.71,723.509 L2390.71,717.609 C2390.71,716.809 2390.11,716.209 2389.31,716.209 L2389.11,716.209 L2385.81,716.909 L2385.81,702.009 L2383.01,702.009 L2383.01,717.509 L2374.11,719.309 L2374.11,705.209 L2371.31,705.209 L2371.31,719.909 L2367.41,720.709 C2366.81,720.809 2366.31,721.509 2366.31,722.109 L2366.31,722.309 L2366.31,728.109 L2366.31,727.909 C2366.31,728.709 2366.91,729.309 2367.71,729.309 L2368.01,729.309 L2371.31,728.609 L2371.31,745.109 L2367.41,745.909 C2366.81,746.009 2366.31,746.709 2366.31,747.309 L2366.31,753.109 C2366.31,753.909 2366.91,754.509 2367.71,754.509 L2368.01,754.509 L2371.31,753.809 L2371.31,768.709 L2374.11,768.709 L2374.11,753.209 L2383.01,751.409 L2383.01,765.509 L2385.81,765.509 L2385.81,750.809 L2389.61,750.109 C2390.21,750.009 2390.71,749.309 2390.71,748.709 L2390.71,742.809 C2390.71,742.009 2390.11,741.409 2389.31,741.409 L2389.11,741.409 L2385.81,742.109 L2385.81,725.609 L2389.61,724.909 M2374.11,744.609 L2374.11,728.009 L2383.01,726.209 L2383.01,742.709 L2374.11,744.609 "/>
<path class="Accidental" d="M2518.71,737.41 C2519.31,737.31 2519.81,736.61 2519.81,736.01 L2519.81,730.11 C2519.81,729.31 2519.21,728.71 2518.41,728.71 L2518.21,728.71 L2514.91,729.41 L2514.91,714.51 L2512.11,714.51 L2512.11,730.01 L2503.21,731.81 L2503.21,717.71 L2500.41,717.71 L2500.41,732.41 L2496.51,733.21 C2495.91,733.31 2495.41,734.01 2495.41,734.61 L2495.41,734.81 L2495.41,740.61 L2495.41,740.41 C2495.41,741.21 2496.01,741.81 2496.81,741.81 L2497.11,741.81 L2500.41,741.11 L2500.41,757.61 L2496.51,758.41 C2495.91,758.51 2495.41,759.21 2495.41,759.81 L2495.41,765.61 C2495.41,766.41 2496.01,767.01 2496.81,767.01 L2497.11,767.01 L2500.41,766.31 L2500.41,781.21 L2503.21,781.21 L2503.21,765.71 L2512.11,763.91 L2512.11,778.01 L2514.91,778.01 L2514.91,763.31 L2518.71,762.61 C2519.31,762.51 2519.81,761.81 2519.81,761.21 L2519.81,755.31 C2519.81,754.51 2519.21,753.91 2518.41,753.91 L2518.21,753.91 L2514.91,754.61 L2514.91,738.11 L2518.71,737.41 M2503.21,757.11 L2503.21,740.51 L2512.11,738.71 L2512.11,755.21 L2503.21,757.11 "/>
<polyline class="LedgerLine" fill="none" stroke="#000000" stroke-width="4.00" stroke-linejoin="bevel" points="1050.82,898.02 1100.81,898.02"/>
<polyline class="LedgerLine" fill="none" stroke="#000000" stroke-width="4.00" stroke-linejoin="bevel" points="1190.34,898.02 1240.33,898.02"/>
<polyline class="LedgerLine" fill="none" stroke="#000000" stroke-width="4.00" stroke-linejoin="bevel" points="1329.85,898.02 1379.85,898.02"/>
<polyline class="LedgerLine" fill="none" stroke="#000000" stroke-width="4.00" stroke-linejoin="bevel" points="1329.85,873.018 1379.85,873.018"/>
<polyline class="LedgerLine" fill="none" stroke="#000000" stroke-width="4.00" stroke-linejoin="bevel" points="1469.37,898.02 1519.36,898.02"/>
<polyline class="LedgerLine" fill="none" stroke="#000000" stroke-width="4.00" stroke-linejoin="bevel" points="1469.37,873.018 1519.36,873.018"/>
<polyline class="LedgerLine" fill="none" stroke="#000000" stroke-width="4.00" stroke-linejoin="bevel" points="1654.64,898.02 1704.63,898.02"/>
<polyline class="LedgerLine" fill="none" stroke="#000000" stroke-width="4.00" stroke-linejoin="bevel" points="1654.64,873.018 1704.63,873.018"/>
<polyline class="LedgerLine" fill="none" stroke="#000000" stroke-width="4.00" stroke-linejoin="bevel" points="1791.53,898.02 1841.53,898.02"/>
<polyline class="LedgerLine" fill="none" stroke="#000000" stroke-width="4.00" stroke-linejoin="bevel" points="1928.42,898.02 1978.42,898.02"/>
<polyline class="Stem" fill="none" stroke="#000000" stroke-width="2.75" stroke-linejoin="bevel" points="487.028,951.543 487.028,1032.4"/>
<polyline class="Stem" fill="none" stroke="#000000" stroke-width="2.75" stroke-linejoin="bevel" points="614.094,939.042 614.094,1023.03"/>
<polyline class="Stem" fill="none" stroke="#000000" stroke-width="2.75" stroke-linejoin="bevel" points="741.16,926.542 741.16,1010.53"/>
<polyline class="Stem" fill="none" stroke="#000000" stroke-width="2.75" stroke-linejoin="bevel" points="868.226,914.041 868.226,998.026"/>
<polyline class="Stem" fill="none" stroke="#000000" stroke-width="2.75" stroke-linejoin="bevel" points="1060.94,901.54 1060.94,985.525"/>
<polyline class="Stem" fill="none" stroke="#000000" stroke-width="2.75" stroke-linejoin="bevel" points="1200.46,889.039 1200.46,973.024"/>
<polyline class="Stem" fill="none" stroke="#000000" stroke-width="2.75" stroke-linejoin="bevel" points="1339.98,864.038 1339.98,973.024"/>
<polyline class="Stem" fill="none" stroke="#000000" stroke-width="2.75" stroke-linejoin="bevel" points="1479.49,864.038 1479.49,973.024"/>
<polyline class="Stem" fill="none" stroke="#000000" stroke-width="2.75" stroke-linejoin="bevel" points="1664.76,864.038 1664.76,973.024"/>
<polyline class="Stem" fill="none" stroke="#000000" stroke-width="2.75" stroke-linejoin="bevel" points="1801.66,889.039 1801.66,973.024"/>
<polyline class="Stem" fill="none" stroke="#000000" stroke-width="2.75" stroke-linejoin="bevel" points="1938.55,901.54 1938.55,985.525"/>
<polyline class="Stem" fill="none" stroke="#000000" stroke-width="2.75" stroke-linejoin="bevel" points="2075.44,914.041 2075.44,998.026"/>
<polyline class="Stem" fill="none" stroke="#000000" stroke-width="2.75" stroke-linejoin="bevel" points="2269.23,926.542 2269.23,1010.53"/>
<polyline class="Stem" fill="none" stroke="#000000" stroke-width="2.75" stroke-linejoin="bevel" points="2398.34,939.042 2398.34,1023.03"/>
<polyline class="Stem" fill="none" stroke="#000000" stroke-width="2.75" stroke-linejoin="bevel" points="2527.44,951.463 2527.44,1032.4"/>
<polyline class="Stem" fill="none" stroke="#000000" stroke-width="2.75" stroke-linejoin="bevel" points="516.772,744.65 516.772,660.505"/>
<polyline class="Stem" fill="none" stroke="#000000" stroke-width="2.75" stroke-linejoin="bevel" points="643.838,732.149 643.838,651.129"/>
<polyline class="Stem" fill="none" stroke="#000000" stroke-width="2.75" stroke-linejoin="bevel" points="770.904,719.648 770.904,641.754"/>
<polyline class="Stem" fill="none" stroke="#000000" stroke-width="2.75" stroke-linejoin="bevel" points="868.226,714.028 868.226,788.638"/>
<polyline class="Stem" fill="none" stroke="#000000" stroke-width="2.75" stroke-linejoin="bevel" points="1060.94,701.527 1060.94,779.262"/>
<polyline class="Stem" fill="none" stroke="#000000" stroke-width="2.75" stroke-linejoin="bevel" points="1200.46,689.027 1200.46,769.887"/>
<polyline class="Stem" fill="none" stroke="#000000" stroke-width="2.75" stroke-linejoin="bevel" points="1339.98,664.025 1339.98,748.01"/>
<polyline class="Stem" fill="none" stroke="#000000" stroke-width="2.75" stroke-linejoin="bevel" points="1479.49,664.025 1479.49,748.01"/>
<polyline class="Stem" fill="none" stroke="#000000" stroke-width="2.75" stroke-linejoin="bevel" points="1664.76,664.025 1664.76,748.01"/>
<polyline class="Stem" fill="none" stroke="#000000" stroke-width="2.75" stroke-linejoin="bevel" points="1801.66,689.027 1801.66,769.887"/>
<polyline class="Stem" fill="none" stroke="#000000" stroke-width="2.75" stroke-linejoin="bevel" points="1938.55,701.527 1938.55,779.262"/>
<polyline class="Stem" fill="none" stroke="#000000" stroke-width="2.75" stroke-linejoin="bevel" points="2075.44,714.028 2075.44,788.638"/>
<polyline class="Stem" fill="none" stroke="#000000" stroke-width="2.75" stroke-linejoin="bevel" points="2298.98,719.648 2298.98,641.754"/>
<polyline class="Stem" fill="none" stroke="#000000" stroke-width="2.75" stroke-linejoin="bevel" points="2428.08,732.149 2428.08,651.129"/>
<polyline class="Stem" fill="none" stroke="#000000" stroke-width="2.75" stroke-linejoin="bevel" points="2557.18,744.57 2557.18,660.505"/>
<path class="Note" d="M517.153,939.823 C515.653,937.123 512.753,935.423 508.853,935.023 C508.253,934.923 507.753,934.923 507.153,934.923 C503.653,934.923 499.853,935.923 496.353,937.823 C489.753,941.423 485.653,947.323 485.653,952.423 C485.653,953.823 485.853,955.123 486.553,956.323 C488.053,959.023 491.053,960.723 494.953,961.123 C495.553,961.223 496.053,961.223 496.653,961.223 C500.153,961.223 503.853,960.223 507.353,958.323 C513.953,954.723 518.153,948.923 518.153,943.823 C518.153,942.423 517.853,941.023 517.153,939.823"/>
<path class="Note" d="M644.219,927.322 C642.719,924.622 639.819,922.922 635.919,922.522 C635.319,922.422 634.819,922.422 634.219,922.422 C630.719,922.422 626.919,923.422 623.419,925.322 C616.819,928.922 612.719,934.822 612.719,939.922 C612.719,941.322 612.919,942.622 613.619,943.822 C615.119,946.522 618.119,948.222 622.019,948.622 C622.619,948.722 623.119,948.722 623.719,948.722 C627.219,948.722 630.919,947.722 634.419,945.822 C641.019,942.222 645.219,936.422 645.219,931.322 C645.219,929.922 644.919,928.522 644.219,927.322"/>
<path class="Note" d="M771.285,914.821 C769.785,912.121 766.885,910.421 762.985,910.021 C762.385,909.921 761.885,909.921 761.285,909.921 C757.785,909.921 753.985,910.921 750.485,912.821 C743.885,916.421 739.785,922.321 739.785,927.421 C739.785,928.821 739.985,930.121 740.685,931.321 C742.185,934.021 745.185,935.721 749.085,936.121 C749.685,936.221 750.185,936.221 750.785,936.221 C754.285,936.221 757.985,935.221 761.485,933.321 C768.085,929.721 772.285,923.921 772.285,918.821 C772.285,917.421 771.985,916.021 771.285,914.821"/>
<path class="Note" d="M898.351,902.32 C896.851,899.62 893.951,897.92 890.051,897.52 C889.451,897.42 888.951,897.42 888.351,897.42 C884.851,897.42 881.051,898.42 877.551,900.32 C870.951,903.92 866.851,909.82 866.851,914.92 C866.851,916.32 867.051,917.62 867.751,918.82 C869.251,921.52 872.251,923.22 876.151,923.62 C876.751,923.72 877.251,923.72 877.851,923.72 C881.351,923.72 885.051,922.72 888.551,920.82 C895.151,917.22 899.351,911.42 899.351,906.32 C899.351,904.92 899.051,903.52 898.351,902.32"/>
<path class="Note" d="M1091.07,889.82 C1089.57,887.12 1086.67,885.42 1082.77,885.02 C1082.17,884.92 1081.67,884.92 1081.07,884.92 C1077.57,884.92 1073.77,885.92 1070.27,887.82 C1063.67,891.42 1059.57,897.32 1059.57,902.42 C1059.57,903.82 1059.77,905.12 1060.47,906.32 C1061.97,909.02 1064.97,910.72 1068.87,911.12 C1069.47,911.22 1069.97,911.22 1070.57,911.22 C1074.07,911.22 1077.77,910.22 1081.27,908.32 C1087.87,904.72 1092.07,898.92 1092.07,893.82 C1092.07,892.42 1091.77,891.02 1091.07,889.82"/>
<path class="Note" d="M1230.59,877.319 C1229.09,874.619 1226.19,872.919 1222.29,872.519 C1221.69,872.419 1221.19,872.419 1220.59,872.419 C1217.09,872.419 1213.29,873.419 1209.79,875.319 C1203.19,878.919 1199.09,884.819 1199.09,889.919 C1199.09,891.319 1199.29,892.619 1199.99,893.819 C1201.49,896.519 1204.49,898.219 1208.39,898.619 C1208.99,898.719 1209.49,898.719 1210.09,898.719 C1213.59,898.719 1217.29,897.719 1220.79,895.819 C1227.39,892.219 1231.59,886.419 1231.59,881.319 C1231.59,879.919 1231.29,878.519 1230.59,877.319"/>
<path class="Note" d="M1370.1,852.317 C1368.6,849.617 1365.7,847.917 1361.8,847.517 C1361.2,847.417 1360.7,847.417 1360.1,847.417 C1356.6,847.417 1352.8,848.417 1349.3,850.317 C1342.7,853.917 1338.6,859.817 1338.6,864.917 C1338.6,866.317 1338.8,867.617 1339.5,868.817 C1341,871.517 1344,873.217 1347.9,873.617 C1348.5,873.717 1349,873.717 1349.6,873.717 C1353.1,873.717 1356.8,872.717 1360.3,870.817 C1366.9,867.217 1371.1,861.417 1371.1,856.317 C1371.1,854.917 1370.8,853.517 1370.1,852.317"/>
<path class="Note" d="M1509.62,852.317 C1508.12,849.617 1505.22,847.917 1501.32,847.517 C1500.72,847.417 1500.22,847.417 1499.62,847.417 C1496.12,847.417 1492.32,848.417 1488.82,850.317 C1482.22,853.917 1478.12,859.817 1478.12,864.917 C1478.12,866.317 1478.32,867.617 1479.02,868.817 C1480.52,871.517 1483.52,873.217 1487.42,873.617 C1488.02,873.717 1488.52,873.717 1489.12,873.717 C1492.62,873.717 1496.32,872.717 1499.82,870.817 C1506.42,867.217 1510.62,861.417 1510.62,856.317 C1510.62,854.917 1510.32,853.517 1509.62,852.317"/>
<path class="Note" d="M1694.89,852.317 C1693.39,849.617 1690.49,847.917 1686.59,847.517 C1685.99,847.417 1685.49,847.417 1684.89,847.417 C1681.39,847.417 1677.59,848.417 1674.09,850.317 C1667.49,853.917 1663.39,859.817 1663.39,864.917 C1663.39,866.317 1663.59,867.617 1664.29,868.817 C1665.79,871.517 1668.79,873.217 1672.69,873.617 C1673.29,873.717 1673.79,873.717 1674.39,873.717 C1677.89,873.717 1681.59,872.717 1685.09,870.817 C1691.69,867.217 1695.89,861.417 1695.89,856.317 C1695.89,854.917 1695.59,853.517 1694.89,852.317"/>
<path class="Note" d="M1831.78,877.319 C1830.28,874.619 1827.38,872.919 1823.48,872.519 C1822.88,872.419 1822.38,872.419 1821.78,872.419 C1818.28,872.419 1814.48,873.419 1810.98,875.319 C1804.38,878.919 1800.28,884.819 1800.28,889.919 C1800.28,891.319 1800.48,892.619 1801.18,893.819 C1802.68,896.519 1805.68,898.219 1809.58,898.619 C1810.18,898.719 1810.68,898.719 1811.28,898.719 C1814.78,898.719 1818.48,897.719 1821.98,895.819 C1828.58,892.219 1832.78,886.419 1832.78,881.319 C1832.78,879.919 1832.48,878.519 1831.78,877.319"/>
<path class="Note" d="M1968.67,889.82 C1967.17,887.12 1964.27,885.42 1960.37,885.02 C1959.77,884.92 1959.27,884.92 1958.67,884.92 C1955.17,884.92 1951.37,885.92 1947.87,887.82 C1941.27,891.42 1937.17,897.32 1937.17,902.42 C1937.17,903.82 1937.37,905.12 1938.07,906.32 C1939.57,909.02 1942.57,910.72 1946.47,911.12 C1947.07,911.22 1947.57,911.22 1948.17,911.22 C1951.67,911.22 1955.37,910.22 1958.87,908.32 C1965.47,904.72 1969.67,898.92 1969.67,893.82 C1969.67,892.42 1969.37,891.02 1968.67,889.82"/>
<path class="Note" d="M2105.56,902.32 C2104.06,899.62 2101.16,897.92 2097.26,897.52 C2096.66,897.42 2096.16,897.42 2095.56,897.42 C2092.06,897.42 2088.26,898.42 2084.76,900.32 C2078.16,903.92 2074.06,909.82 2074.06,914.92 C2074.06,916.32 2074.26,917.62 2074.96,918.82 C2076.46,921.52 2079.46,923.22 2083.36,923.62 C2083.96,923.72 2084.46,923.72 2085.06,923.72 C2088.56,923.72 2092.26,922.72 2095.76,920.82 C2102.36,917.22 2106.56,911.42 2106.56,906.32 C2106.56,904.92 2106.26,903.52 2105.56,902.32"/>
<path class="Note" d="M2299.36,914.821 C2297.86,912.121 2294.96,910.421 2291.06,910.021 C2290.46,909.921 2289.96,909.921 2289.36,909.921 C2285.86,909.921 2282.06,910.921 2278.56,912.821 C2271.96,916.421 2267.86,922.321 2267.86,927.421 C2267.86,928.821 2268.06,930.121 2268.76,931.321 C2270.26,934.021 2273.26,935.721 2277.16,936.121 C2277.76,936.221 2278.26,936.221 2278.86,936.221 C2282.36,936.221 2286.06,935.221 2289.56,933.321 C2296.16,929.721 2300.36,923.921 2300.36,918.821 C2300.36,917.421 2300.06,916.021 2299.36,914.821"/>
<path class="Note" d="M2428.46,927.322 C2426.96,924.622 2424.06,922.922 2420.16,922.522 C2419.56,922.422 2419.06,922.422 2418.46,922.422 C2414.96,922.422 2411.16,923.422 2407.66,925.322 C2401.06,928.922 2396.96,934.822 2396.96,939.922 C2396.96,941.322 2397.16,942.622 2397.86,943.822 C2399.36,946.522 2402.36,948.222 2406.26,948.622 C2406.86,948.722 2407.36,948.722 2407.96,948.722 C2411.46,948.722 2415.16,947.722 2418.66,945.822 C2425.26,942.222 2429.46,936.422 2429.46,931.322 C2429.46,929.922 2429.16,928.522 2428.46,927.322"/>
<path class="Note" d="M2557.56,939.823 C2556.06,937.123 2553.16,935.423 2549.26,935.023 C2548.66,934.923 2548.16,934.923 2547.56,934.923 C2544.06,934.923 2540.26,935.923 2536.76,937.823 C2530.16,941.423 2526.06,947.223 2526.06,952.323 C2526.06,953.723 2526.46,955.123 2527.16,956.323 C2528.66,959.123 2531.46,960.723 2535.36,961.123 C2535.96,961.223 2536.46,961.223 2537.06,961.223 C2540.56,961.223 2544.36,960.223 2547.86,958.323 C2554.46,954.723 2558.56,948.823 2558.56,943.723 C2558.56,942.323 2558.26,941.023 2557.56,939.823 M2553.36,946.123 C2551.66,947.923 2548.46,950.223 2544.86,952.323 C2541.26,954.423 2537.56,956.123 2535.26,956.823 C2534.76,956.923 2534.16,957.023 2533.66,957.023 C2532.16,957.023 2530.86,956.323 2530.16,955.223 C2529.86,954.623 2529.66,954.023 2529.66,953.423 C2529.66,952.323 2530.16,951.223 2531.26,950.023 C2532.96,948.223 2536.16,945.823 2539.76,943.723 C2543.36,941.623 2547.06,939.923 2549.46,939.323 L2549.66,939.323 C2550.26,939.123 2550.76,939.023 2551.26,939.023 C2552.66,939.023 2553.76,939.623 2554.46,940.923 C2554.76,941.523 2554.96,942.023 2554.96,942.623 C2554.96,943.923 2554.26,945.223 2553.36,946.123"/>
<path class="Note" d="M517.153,739.81 C515.653,737.11 512.753,735.41 508.853,735.01 C508.253,734.91 507.753,734.91 507.153,734.91 C503.653,734.91 499.853,735.91 496.353,737.81 C489.753,741.41 485.653,747.31 485.653,752.41 C485.653,753.81 485.853,755.11 486.553,756.31 C488.053,759.01 491.053,760.71 494.953,761.11 C495.553,761.21 496.053,761.21 496.653,761.21 C500.153,761.21 503.853,760.21 507.353,758.31 C513.953,754.71 518.153,748.91 518.153,743.81 C518.153,742.41 517.853,741.01 517.153,739.81"/>
<path class="Note" d="M644.219,727.309 C642.719,724.609 639.819,722.909 635.919,722.509 C635.319,722.409 634.819,722.409 634.219,722.409 C630.719,722.409 626.919,723.409 623.419,725.309 C616.819,728.909 612.719,734.809 612.719,739.909 C612.719,741.309 612.919,742.609 613.619,743.809 C615.119,746.509 618.119,748.209 622.019,748.609 C622.619,748.709 623.119,748.709 623.719,748.709 C627.219,748.709 630.919,747.709 634.419,745.809 C641.019,742.209 645.219,736.409 645.219,731.309 C645.219,729.909 644.919,728.509 644.219,727.309"/>
<path class="Note" d="M771.285,714.809 C769.785,712.109 766.885,710.409 762.985,710.009 C762.385,709.909 761.885,709.909 761.285,709.909 C757.785,709.909 753.985,710.909 750.485,712.809 C743.885,716.409 739.785,722.309 739.785,727.409 C739.785,728.809 739.985,730.109 740.685,731.309 C742.185,734.009 745.185,735.709 749.085,736.109 C749.685,736.209 750.185,736.209 750.785,736.209 C754.285,736.209 757.985,735.209 761.485,733.309 C768.085,729.709 772.285,723.909 772.285,718.809 C772.285,717.409 771.985,716.009 771.285,714.809"/>
<path class="Note" d="M898.351,702.308 C896.851,699.608 893.951,697.908 890.051,697.508 C889.451,697.408 888.951,697.408 888.351,697.408 C884.851,697.408 881.051,698.408 877.551,700.308 C870.951,703.908 866.851,709.808 866.851,714.908 C866.851,716.308 867.051,717.608 867.751,718.808 C869.251,721.508 872.251,723.208 876.151,723.608 C876.751,723.708 877.251,723.708 877.851,723.708 C881.351,723.708 885.051,722.708 888.551,720.808 C895.151,717.208 899.351,711.408 899.351,706.308 C899.351,704.908 899.051,703.508 898.351,702.308"/>
<path class="Note" d="M1091.07,689.807 C1089.57,687.107 1086.67,685.407 1082.77,685.007 C1082.17,684.907 1081.67,684.907 1081.07,684.907 C1077.57,684.907 1073.77,685.907 1070.27,687.807 C1063.67,691.407 1059.57,697.307 1059.57,702.407 C1059.57,703.807 1059.77,705.107 1060.47,706.307 C1061.97,709.007 1064.97,710.707 1068.87,711.107 C1069.47,711.207 1069.97,711.207 1070.57,711.207 C1074.07,711.207 1077.77,710.207 1081.27,708.307 C1087.87,704.707 1092.07,698.907 1092.07,693.807 C1092.07,692.407 1091.77,691.007 1091.07,689.807"/>
<path class="Note" d="M1230.59,677.306 C1229.09,674.606 1226.19,672.906 1222.29,672.506 C1221.69,672.406 1221.19,672.406 1220.59,672.406 C1217.09,672.406 1213.29,673.406 1209.79,675.306 C1203.19,678.906 1199.09,684.806 1199.09,689.906 C1199.09,691.306 1199.29,692.606 1199.99,693.806 C1201.49,696.506 1204.49,698.206 1208.39,698.606 C1208.99,698.706 1209.49,698.706 1210.09,698.706 C1213.59,698.706 1217.29,697.706 1220.79,695.806 C1227.39,692.206 1231.59,686.406 1231.59,681.306 C1231.59,679.906 1231.29,678.506 1230.59,677.306"/>
<path class="Note" d="M1370.1,652.305 C1368.6,649.605 1365.7,647.905 1361.8,647.505 C1361.2,647.405 1360.7,647.405 1360.1,647.405 C1356.6,647.405 1352.8,648.405 1349.3,650.305 C1342.7,653.905 1338.6,659.805 1338.6,664.905 C1338.6,666.305 1338.8,667.605 1339.5,668.805 C1341,671.505 1344,673.205 1347.9,673.605 C1348.5,673.705 1349,673.705 1349.6,673.705 C1353.1,673.705 1356.8,672.705 1360.3,670.805 C1366.9,667.205 1371.1,661.405 1371.1,656.305 C1371.1,654.905 1370.8,653.505 1370.1,652.305"/>
<path class="Note" d="M1509.62,652.305 C1508.12,649.605 1505.22,647.905 1501.32,647.505 C1500.72,647.405 1500.22,647.405 1499.62,647.405 C1496.12,647.405 1492.32,648.405 1488.82,650.305 C1482.22,653.905 1478.12,659.805 1478.12,664.905 C1478.12,666.305 1478.32,667.605 1479.02,668.805 C1480.52,671.505 1483.52,673.205 1487.42,673.605 C1488.02,673.705 1488.52,673.705 1489.12,673.705 C1492.62,673.705 1496.32,672.705 1499.82,670.805 C1506.42,667.205 1510.62,661.405 1510.62,656.305 C1510.62,654.905 1510.32,653.505 1509.62,652.305"/>
<path class="Note" d="M1694.89,652.305 C1693.39,649.605 1690.49,647.905 1686.59,647.505 C1685.99,647.405 1685.49,647.405 1684.89,647.405 C1681.39,647.405 1677.59,648.405 1674.09,650.305 C1667.49,653.905 1663.39,659.805 1663.39,664.905 C1663.39,666.305 1663.59,667.605 1664.29,668.805 C1665.79,671.505 1668.79,673.205 1672.69,673.605 C1673.29,673.705 1673.79,673.705 1674.39,673.705 C1677.89,673.705 1681.59,672.705 1685.09,670.805 C1691.69,667.205 1695.89,661.405 1695.89,656.305 C1695.89,654.905 1695.59,653.505 1694.89,652.305"/>
<path class="Note" d="M1831.78,677.306 C1830.28,674.606 1827.38,672.906 1823.48,672.506 C1822.88,672.406 1822.38,672.406 1821.78,672.406 C1818.28,672.406 1814.48,673.406 1810.98,675.306 C1804.38,678.906 1800.28,684.806 1800.28,689.906 C1800.28,691.306 1800.48,692.606 1801.18,693.806 C1802.68,696.506 1805.68,698.206 1809.58,698.606 C1810.18,698.706 1810.68,698.706 1811.28,698.706 C1814.78,698.706 1818.48,697.706 1821.98,695.806 C1828.58,692.206 1832.78,686.406 1832.78,681.306 C1832.78,679.906 1832.48,678.506 1831.78,677.306"/>
<path class="Note" d="M1968.67,689.807 C1967.17,687.107 1964.27,685.407 1960.37,685.007 C1959.77,684.907 1959.27,684.907 1958.67,684.907 C1955.17,684.907 1951.37,685.907 1947.87,687.807 C1941.27,691.407 1937.17,697.307 1937.17,702.407 C1937.17,703.807 1937.37,705.107 1938.07,706.307 C1939.57,709.007 1942.57,710.707 1946.47,711.107 C1947.07,711.207 1947.57,711.207 1948.17,711.207 C1951.67,711.207 1955.37,710.207 1958.87,708.307 C1965.47,704.707 1969.67,698.907 1969.67,693.807 C1969.67,692.407 1969.37,691.007 1968.67,689.807"/>
<path class="Note" d="M2105.56,702.308 C2104.06,699.608 2101.16,697.908 2097.26,697.508 C2096.66,697.408 2096.16,697.408 2095.56,697.408 C2092.06,697.408 2088.26,698.408 2084.76,700.308 C2078.16,703.908 2074.06,709.808 2074.06,714.908 C2074.06,716.308 2074.26,717.608 2074.96,718.808 C2076.46,721.508 2079.46,723.208 2083.36,723.608 C2083.96,723.708 2084.46,723.708 2085.06,723.708 C2088.56,723.708 2092.26,722.708 2095.76,720.808 C2102.36,717.208 2106.56,711.408 2106.56,706.308 C2106.56,704.908 2106.26,703.508 2105.56,702.308"/>
<path class="Note" d="M2299.36,714.809 C2297.86,712.109 2294.96,710.409 2291.06,710.009 C2290.46,709.909 2289.96,709.909 2289.36,709.909 C2285.86,709.909 2282.06,710.909 2278.56,712.809 C2271.96,716.409 2267.86,722.309 2267.86,727.409 C2267.86,728.809 2268.06,730.109 2268.76,731.309 C2270.26,734.009 2273.26,735.709 2277.16,736.109 C2277.76,736.209 2278.26,736.209 2278.86,736.209 C2282.36,736.209 2286.06,735.209 2289.56,733.309 C2296.16,729.709 2300.36,723.909 2300.36,718.809 C2300.36,717.409 2300.06,716.009 2299.36,714.809"/>
<path class="Note" d="M2428.46,727.309 C2426.96,724.609 2424.06,722.909 2420.16,722.509 C2419.56,722.409 2419.06,722.409 2418.46,722.409 C2414.96,722.409 2411.16,723.409 2407.66,725.309 C2401.06,728.909 2396.96,734.809 2396.96,739.909 C2396.96,741.309 2397.16,742.609 2397.86,743.809 C2399.36,746.509 2402.36,748.209 2406.26,748.609 C2406.86,748.709 2407.36,748.709 2407.96,748.709 C2411.46,748.709 2415.16,747.709 2418.66,745.809 C2425.26,742.209 2429.46,736.409 2429.46,731.309 C2429.46,729.909 2429.16,728.509 2428.46,727.309"/>
<path class="Note" d="M2557.56,739.81 C2556.06,737.11 2553.16,735.41 2549.26,735.01 C2548.66,734.91 2548.16,734.91 2547.56,734.91 C2544.06,734.91 2540.26,735.91 2536.76,737.81 C2530.16,741.41 2526.06,747.21 2526.06,752.31 C2526.06,753.71 2526.46,755.11 2527.16,756.31 C2528.66,759.11 2531.46,760.71 2535.36,761.11 C2535.96,761.21 2536.46,761.21 2537.06,761.21 C2540.56,761.21 2544.36,760.21 2547.86,758.31 C2554.46,754.71 2558.56,748.81 2558.56,743.71 C2558.56,742.31 2558.26,741.01 2557.56,739.81 M2553.36,746.11 C2551.66,747.91 2548.46,750.21 2544.86,752.31 C2541.26,754.41 2537.56,756.11 2535.26,756.81 C2534.76,756.91 2534.16,757.01 2533.66,757.01 C2532.16,757.01 2530.86,756.31 2530.16,755.21 C2529.86,754.61 2529.66,754.01 2529.66,753.41 C2529.66,752.31 2530.16,751.21 2531.26,750.01 C2532.96,748.21 2536.16,745.81 2539.76,743.71 C2543.36,741.61 2547.06,739.91 2549.46,739.31 L2549.66,739.31 C2550.26,739.11 2550.76,739.01 2551.26,739.01 C2552.66,739.01 2553.76,739.61 2554.46,740.91 C2554.76,741.51 2554.96,742.01 2554.96,742.61 C2554.96,743.91 2554.26,745.21 2553.36,746.11"/>
<path class="Clef" d="M297,922.923 C289.4,922.923 283.3,927.323 283.2,927.323 C277.4,931.623 275.1,936.723 274.2,940.223 C273.7,942.023 273.5,943.823 273.5,945.523 C273.5,947.923 273.9,950.123 274.8,952.023 C276,954.723 278.3,956.623 281.3,957.623 C282.5,958.023 283.8,958.223 285.1,958.223 C287.3,958.223 289.6,957.623 291.5,956.523 C294.6,954.823 296.5,951.223 296.5,947.323 C296.5,943.823 294.7,940.623 291.7,938.723 C289.6,937.323 287.6,936.923 285.9,936.923 C284.7,936.923 283.6,937.123 282.7,937.423 C281.7,937.823 280,938.823 279.2,939.523 C279.5,937.623 280.7,934.723 281.8,933.123 C282.9,931.523 285.1,929.523 286.8,928.623 C289.3,927.223 292.5,926.623 296,926.623 C306.2,926.623 311.2,934.823 311.2,951.623 C311.2,960.923 307.7,969.823 304.7,975.723 C301.4,982.323 297,988.623 293.1,992.123 C282.7,1001.62 272.9,1006.12 272.8,1006.12 C272.8,1006.12 271.3,1007.02 271.7,1008.52 C272,1009.52 272.9,1009.72 273.5,1009.72 C273.6,1009.72 273.9,1009.62 274,1009.62 C274.1,1009.62 285.5,1004.92 294.6,997.823 C299.7,994.123 304.3,990.123 308.3,985.823 C311.9,981.923 315,977.723 317.5,973.523 C321.9,966.023 324.4,958.223 324.4,951.523 C324.4,943.223 322.2,936.323 318.1,931.423 C313.4,925.823 306.3,922.923 297,922.923 M328.4,935.623 C328.4,938.423 330.6,940.623 333.2,940.623 C335.8,940.623 338,938.423 338,935.623 C338,932.823 335.8,930.523 333.2,930.523 C330.6,930.523 328.4,932.823 328.4,935.623 M328.4,960.323 C328.4,963.123 330.6,965.423 333.2,965.423 C335.8,965.423 338,963.123 338,960.323 C338,957.523 335.8,955.223 333.2,955.223 C330.6,955.223 328.4,957.523 328.4,960.323"/>
<path class="Clef" d="M335,729.609 C333.8,724.209 331.1,720.309 330.3,719.309 C327.1,715.009 323.1,712.209 318.4,710.809 C316.1,710.109 314,709.909 312,709.909 C311.3,709.909 310.6,709.909 309.9,710.009 C308.9,704.009 307.8,698.109 306.9,692.709 C312.5,686.509 316.2,680.609 318.6,676.209 C322.2,669.509 323.6,664.809 323.7,664.609 C324.9,661.609 325.6,657.809 325.6,653.309 C325.6,650.609 325.3,647.709 324.9,644.709 C323.8,637.609 321.6,630.909 319.1,627.209 C317.8,625.309 316.6,624.209 315.4,624.209 C314.2,624.209 311.7,625.409 308.8,628.209 C306.5,630.409 303.2,634.309 300.6,640.309 C298.3,645.709 297.6,652.609 297.6,658.509 C297.6,660.309 297.7,662.009 297.8,663.609 C298,667.209 298.7,673.009 299.3,676.609 C299.3,676.709 299.6,678.209 300,680.809 L299.3,681.509 C298.3,682.509 297.1,683.609 295.7,685.009 C294.8,685.909 293.9,686.709 292.9,687.709 C284.4,695.909 271.6,708.309 271.6,727.409 C271.6,732.109 272.5,736.509 274.3,740.509 C275.9,744.109 278.2,747.409 281.1,750.309 C288.6,757.709 298.8,760.909 305.9,760.909 L306.5,760.909 C309.4,760.809 312.1,760.509 314.5,760.109 C316.3,769.709 317.5,776.809 317.5,782.109 C317.5,788.609 315.9,792.509 312,795.309 C309.6,797.009 306.7,798.109 303.6,798.209 L302.8,798.209 C301.3,798.209 298.8,797.809 297.3,797.409 C297.3,797.409 297,797.309 297,797.109 C297,796.909 297.4,796.909 297.4,796.909 C299.3,796.509 302.9,795.209 305.3,791.909 C306.4,790.409 307.1,788.109 307.1,785.609 C307.1,784.009 306.8,782.309 306.1,780.809 C305,778.409 302.4,775.409 296.8,775.009 L295.7,775.009 C293.6,775.009 291.8,775.509 290.1,776.509 C288.3,777.609 286.7,779.309 285.7,781.309 C284.6,783.309 284.1,785.509 284.1,787.709 C284.1,790.609 285,793.309 286.8,795.509 C289.8,799.109 294.5,801.409 299.9,802.009 C300.6,802.109 301.7,802.209 302.4,802.209 C306.8,802.209 311.2,801.009 314.8,798.809 C318.5,796.209 320.6,792.209 321.3,786.609 C321.5,785.309 321.5,783.909 321.5,782.409 C321.5,778.509 321,773.809 320,768.009 C319.6,765.909 319.2,762.909 318.5,759.109 C324.3,757.209 328.4,753.509 332.2,747.709 C334.5,743.709 335.6,739.609 335.6,735.309 C335.6,733.409 335.4,731.509 335,729.609 M304.8,651.709 C306.6,646.009 309.3,642.609 311.3,640.909 C313.1,639.409 314.7,638.709 315.6,638.709 C315.7,638.709 315.9,638.809 316,638.809 C316.3,638.909 316.7,639.409 317.1,640.109 C318,641.909 318.9,645.209 318.9,648.909 C318.9,650.809 318.7,652.809 318.1,654.609 C315.9,661.409 311.3,668.709 304.3,676.409 C304.1,675.309 303.9,674.309 303.8,673.309 C303.3,670.109 303,666.909 303,664.009 C303,659.509 303.6,655.409 304.8,651.709 M300.8,755.809 C296.2,754.609 291.7,752.109 287.9,748.609 C286.6,747.409 284.8,745.209 283.3,741.809 C282,738.809 281.3,735.709 281.3,732.309 L281.3,731.609 C281.4,726.909 282.7,722.109 285.2,717.309 C288.1,711.709 292.6,706.209 298.7,700.909 C300.2,699.609 301.6,698.309 302.9,697.009 C303.7,701.309 304.4,706.009 305.3,710.909 C301.4,712.209 296.7,715.209 293.6,720.909 C291.2,725.409 290.5,729.309 290.5,732.509 C290.5,734.009 290.7,735.409 290.9,736.509 C291.8,741.009 294.4,744.709 297.9,746.809 C298.7,747.309 302,749.009 304,749.009 C304.3,749.009 304.6,749.009 304.8,748.909 C305.1,748.809 305.4,748.609 305.5,748.309 C305.6,748.109 305.6,747.909 305.6,747.709 C305.6,746.909 304.8,746.309 303.5,745.509 C302.9,745.109 302.2,744.709 301.5,744.209 C298.9,742.209 297.4,739.109 297.4,735.709 C297.4,734.709 297.6,733.809 297.8,732.809 C298.3,730.809 300,728.009 301.5,726.609 C303.2,725.109 305.2,723.909 307.6,723.309 C309.6,734.509 311.7,745.609 313.3,754.009 C313.4,754.709 313.6,755.409 313.7,756.109 C311.7,756.509 309.7,756.709 307.8,756.709 C305.4,756.709 303.1,756.409 300.8,755.809 M326.5,745.609 C325.3,748.809 322.8,752.809 317.7,754.909 C317.6,754.509 317.6,754.009 317.5,753.609 C316,744.809 314.1,733.909 312.1,722.609 L313.1,722.609 C322.8,722.609 326.7,729.809 327.6,734.409 C327.8,735.309 327.9,736.509 327.9,737.809 C327.9,740.109 327.5,742.909 326.5,745.609"/>
<path class="TimeSig" d="M365.2,961.422 L382,961.422 L382,968.722 L373.9,968.722 C373.1,968.722 372.5,969.322 372.5,970.122 L372.5,972.022 C372.5,972.822 373.1,973.322 373.9,973.322 L403.6,973.322 C404.4,973.322 405,972.822 405,972.022 L405,970.122 C405,969.322 404.4,968.722 403.6,968.722 L394.8,968.722 L394.8,961.422 L403.6,961.422 C404.4,961.422 405,960.822 405,960.022 L405,958.222 C405,957.422 404.4,956.822 403.6,956.822 L394.8,956.822 L394.8,941.122 C394.8,940.622 394.4,940.122 394,939.922 L392.9,939.322 C392.7,939.222 392.4,939.222 392.2,939.222 C391.9,939.222 391.5,939.322 391.3,939.522 L382.4,947.722 C382.2,947.922 382,948.422 382,948.722 L382,956.822 L370.7,956.822 C370.7,956.822 381.6,945.022 393.2,929.522 C394,928.422 393.6,927.422 393.4,927.222 L391.3,925.022 C391.1,924.822 390.6,924.622 390.3,924.622 L375.7,924.622 C375,924.622 374.5,925.222 374.4,925.822 C374.4,925.822 373.9,933.022 371.3,941.022 C368.7,949.022 365.9,953.822 363.3,957.422 C363.3,957.422 362.8,958.422 363.1,959.122 C363.4,959.822 364.1,960.922 364.1,960.922 C364.1,960.922 364.4,961.422 365.2,961.422"/>
<path class="TimeSig" d="M365.2,1010.03 L382,1010.03 L382,1017.33 L373.9,1017.33 C373.1,1017.33 372.5,1017.93 372.5,1018.73 L372.5,1020.63 C372.5,1021.43 373.1,1021.93 373.9,1021.93 L403.6,1021.93 C404.4,1021.93 405,1021.43 405,1020.63 L405,1018.73 C405,1017.93 404.4,1017.33 403.6,1017.33 L394.8,1017.33 L394.8,1010.03 L403.6,1010.03 C404.4,1010.03 405,1009.43 405,1008.63 L405,1006.83 C405,1006.03 404.4,1005.43 403.6,1005.43 L394.8,1005.43 L394.8,989.727 C394.8,989.227 394.4,988.727 394,988.527 L392.9,987.927 C392.7,987.827 392.4,987.827 392.2,987.827 C391.9,987.827 391.5,987.927 391.3,988.127 L382.4,996.327 C382.2,996.527 382,997.027 382,997.327 L382,1005.43 L370.7,1005.43 C370.7,1005.43 381.6,993.627 393.2,978.127 C394,977.027 393.6,976.027 393.4,975.827 L391.3,973.627 C391.1,973.427 390.6,973.227 390.3,973.227 L375.7,973.227 C375,973.227 374.5,973.827 374.4,974.427 C374.4,974.427 373.9,981.627 371.3,989.627 C368.7,997.627 365.9,1002.43 363.3,1006.03 C363.3,1006.03 362.8,1007.03 363.1,1007.73 C363.4,1008.43 364.1,1009.53 364.1,1009.53 C364.1,1009.53 364.4,1010.03 365.2,1010.03"/>
<path class="TimeSig" d="M365.2,698.906 L382,698.906 L382,706.206 L373.9,706.206 C373.1,706.206 372.5,706.806 372.5,707.606 L372.5,709.506 C372.5,710.306 373.1,710.806 373.9,710.806 L403.6,710.806 C404.4,710.806 405,710.306 405,709.506 L405,707.606 C405,706.806 404.4,706.206 403.6,706.206 L394.8,706.206 L394.8,698.906 L403.6,698.906 C404.4,698.906 405,698.306 405,697.506 L405,695.706 C405,694.906 404.4,694.306 403.6,694.306 L394.8,694.306 L394.8,678.606 C394.8,678.106 394.4,677.606 394,677.406 L392.9,676.806 C392.7,676.706 392.4,676.706 392.2,676.706 C391.9,676.706 391.5,676.806 391.3,677.006 L382.4,685.206 C382.2,685.406 382,685.906 382,686.206 L382,694.306 L370.7,694.306 C370.7,694.306 381.6,682.506 393.2,667.006 C394,665.906 393.6,664.906 393.4,664.706 L391.3,662.506 C391.1,662.306 390.6,662.106 390.3,662.106 L375.7,662.106 C375,662.106 374.5,662.706 374.4,663.306 C374.4,663.306 373.9,670.506 371.3,678.506 C368.7,686.506 365.9,691.306 363.3,694.906 C363.3,694.906 362.8,695.906 363.1,696.606 C363.4,697.306 364.1,698.406 364.1,698.406 C364.1,698.406 364.4,698.906 365.2,698.906"/>
<path class="TimeSig" d="M365.2,747.51 L382,747.51 L382,754.81 L373.9,754.81 C373.1,754.81 372.5,755.41 372.5,756.21 L372.5,758.11 C372.5,758.91 373.1,759.41 373.9,759.41 L403.6,759.41 C404.4,759.41 405,758.91 405,758.11 L405,756.21 C405,755.41 404.4,754.81 403.6,754.81 L394.8,754.81 L394.8,747.51 L403.6,747.51 C404.4,747.51 405,746.91 405,746.11 L405,744.31 C405,743.51 404.4,742.91 403.6,742.91 L394.8,742.91 L394.8,727.21 C394.8,726.71 394.4,726.21 394,726.01 L392.9,725.41 C392.7,725.31 392.4,725.31 392.2,725.31 C391.9,725.31 391.5,725.41 391.3,725.61 L382.4,733.81 C382.2,734.01 382,734.51 382,734.81 L382,742.91 L370.7,742.91 C370.7,742.91 381.6,731.11 393.2,715.61 C394,714.51 393.6,713.51 393.4,713.31 L391.3,711.11 C391.1,710.91 390.6,710.71 390.3,710.71 L375.7,710.71 C375,710.71 374.5,711.31 374.4,711.91 C374.4,711.91 373.9,719.11 371.3,727.11 C368.7,735.11 365.9,739.91 363.3,743.51 C363.3,743.51 362.8,744.51 363.1,745.21 C363.4,745.91 364.1,747.01 364.1,747.01 C364.1,747.01 364.4,747.51 365.2,747.51"/>
<path class="Page" d="M227.58,4048.5 C230.91,4046.7 232.53,4044.45 232.53,4041.53 C232.53,4037.39 228.795,4034.37 223.575,4034.37 C218.085,4034.37 214.08,4037.97 214.08,4042.97 C214.08,4044.9 214.8,4046.93 216.06,4048.32 C216.825,4049.22 217.545,4049.72 219.165,4050.57 C217.185,4051.34 216.33,4051.79 215.34,4052.6 C213.585,4054.04 212.595,4056.2 212.595,4058.49 C212.595,4060.97 213.81,4063.4 215.7,4064.79 C217.455,4066.05 219.885,4066.73 222.765,4066.73 C226.095,4066.73 228.885,4065.83 230.775,4064.21 C232.665,4062.5 233.835,4059.75 233.835,4057.01 C233.835,4054.44 232.845,4052.15 231,4050.53 C230.1,4049.72 229.29,4049.27 227.58,4048.5 M222.765,4046.7 C219.12,4045.4 217.545,4043.69 217.545,4041.08 C217.545,4038.2 219.885,4036.31 223.44,4036.31 C226.905,4036.31 229.2,4038.51 229.2,4041.8 C229.2,4044.14 228.3,4045.67 225.735,4047.83 L222.765,4046.7 M225.375,4052.96 C228.795,4054.17 230.235,4055.93 230.235,4058.9 C230.235,4062.5 227.4,4064.79 222.99,4064.79 C218.76,4064.79 216.33,4062.5 216.33,4058.49 C216.33,4055.12 217.725,4053.09 221.235,4051.47 L225.375,4052.96 "/>
<path class="Bracket" transform="matrix(3.62523,0,0,3.62523,214.469,1023.03)" d="M0.92002,-50 C2.69004,-51.88 6.2,-55.8 6.2,-63 C6.2,-72.1 2.25996,-81.32 2.25996,-86.97 C2.25996,-93.06 5.84004,-98.84 5.95,-99 C6.05996,-99.16 6.05,-99.39 5.94004,-99.46 C5.82998,-99.53 5.62002,-99.47 5.49004,-99.32 C5.35996,-99.17 0,-93.75 0,-85.6 C0,-76.75 3.5,-70.58 3.5,-59.07 C3.5,-56.89 2.55996,-53.36 0.1,-50.33 C-0.0799805,-50.17 -0.1,-49.89 0.0599609,-49.7 L0.0700195,-49.69 L0.1,-49.66 C2.55996,-46.63 3.5,-43.1 3.5,-40.92 C3.5,-29.4 0,-23.24 0,-14.39 C0,-6.25 5.35996,-0.8 5.49004,-0.659961 C5.62002,-0.52002 5.8,-0.42998 5.94004,-0.52002 C6.07998,-0.609961 6.07998,-0.77998 5.95,-0.97998 C5.82002,-1.17998 2.25996,-6.92002 2.25996,-13.01 C2.25996,-18.66 6.2,-27.9 6.2,-37 C6.2,-44.3 2.69004,-48.12 0.92002,-50"/>
</svg>