<?xml version="1.0" encoding="UTF-8" standalone="no"?>
<svg width="1000px" height="500px" viewBox="150 650 2700 1000" xmlns="http://www.w3.org/2000/svg" xmlns:xlink="http://www.w3.org/1999/xlink" version="1.2" baseProfile="tiny">
 xmlns="http://www.w3.org/2000/svg" xmlns:xlink="http://www.w3.org/1999/xlink" version="1.2" baseProfile="tiny">
<title>exercises_scores (16)</title>
<desc>Generated by MuseScore 3.6.0</desc>
<polyline class="StaffLines" fill="none" stroke="#000000" stroke-width="2.75" stroke-linejoin="bevel" points="247.099,645.317 2764.63,645.317"/>
<polyline class="StaffLines" fill="none" stroke="#000000" stroke-width="2.75" stroke-linejoin="bevel" points="247.099,670.319 2764.63,670.319"/>
<polyline class="StaffLines" fill="none" stroke="#000000" stroke-width="2.75" stroke-linejoin="bevel" points="247.099,695.32 2764.63,695.32"/>
<polyline class="StaffLines" fill="none" stroke="#000000" stroke-width="2.75" stroke-linejoin="bevel" points="247.099,720.322 2764.63,720.322"/>
<polyline class="StaffLines" fill="none" stroke="#000000" stroke-width="2.75" stroke-linejoin="bevel" points="247.099,745.324 2764.63,745.324"/>
<polyline class="StaffLines" fill="none" stroke="#000000" stroke-width="2.75" stroke-linejoin="bevel" points="247.099,907.834 2764.63,907.834"/>
<polyline class="StaffLines" fill="none" stroke="#000000" stroke-width="2.75" stroke-linejoin="bevel" points="247.099,932.835 2764.63,932.835"/>
<polyline class="StaffLines" fill="none" stroke="#000000" stroke-width="2.75" stroke-linejoin="bevel" points="247.099,957.837 2764.63,957.837"/>
<polyline class="StaffLines" fill="none" stroke="#000000" stroke-width="2.75" stroke-linejoin="bevel" points="247.099,982.839 2764.63,982.839"/>
<polyline class="StaffLines" fill="none" stroke="#000000" stroke-width="2.75" stroke-linejoin="bevel" points="247.099,1007.84 2764.63,1007.84"/>
<polyline class="StaffLines" fill="none" stroke="#000000" stroke-width="2.75" stroke-linejoin="bevel" points="247.099,1257.86 2764.63,1257.86"/>
<polyline class="StaffLines" fill="none" stroke="#000000" stroke-width="2.75" stroke-linejoin="bevel" points="247.099,1282.86 2764.63,1282.86"/>
<polyline class="StaffLines" fill="none" stroke="#000000" stroke-width="2.75" stroke-linejoin="bevel" points="247.099,1307.86 2764.63,1307.86"/>
<polyline class="StaffLines" fill="none" stroke="#000000" stroke-width="2.75" stroke-linejoin="bevel" points="247.099,1332.86 2764.63,1332.86"/>
<polyline class="StaffLines" fill="none" stroke="#000000" stroke-width="2.75" stroke-linejoin="bevel" points="247.099,1357.86 2764.63,1357.86"/>
<polyline class="StaffLines" fill="none" stroke="#000000" stroke-width="2.75" stroke-linejoin="bevel" points="247.099,1520.37 2764.63,1520.37"/>
<polyline class="StaffLines" fill="none" stroke="#000000" stroke-width="2.75" stroke-linejoin="bevel" points="247.099,1545.37 2764.63,1545.37"/>
<polyline class="StaffLines" fill="none" stroke="#000000" stroke-width="2.75" stroke-linejoin="bevel" points="247.099,1570.38 2764.63,1570.38"/>
<polyline class="StaffLines" fill="none" stroke="#000000" stroke-width="2.75" stroke-linejoin="bevel" points="247.099,1595.38 2764.63,1595.38"/>
<polyline class="StaffLines" fill="none" stroke="#000000" stroke-width="2.75" stroke-linejoin="bevel" points="247.099,1620.38 2764.63,1620.38"/>
<path class="Text" d="M242.312,213.137 L240.092,213.137 L237.692,216.737 C234.812,214.037 231.032,212.597 226.772,212.597 C218.852,212.597 213.632,217.577 213.632,225.137 C213.632,231.677 216.872,234.917 225.692,237.197 L231.392,238.637 C235.832,239.777 236.252,239.897 237.512,240.857 C239.312,242.237 240.272,244.217 240.272,246.557 C240.272,248.957 239.372,250.937 237.572,252.617 C235.592,254.297 233.612,254.957 230.312,254.957 C225.872,254.957 222.692,253.577 219.872,250.457 C217.352,247.697 216.092,244.817 215.192,240.197 L212.612,240.197 L212.852,257.297 L215.192,257.297 L217.892,253.217 C221.912,256.517 225.212,257.717 230.492,257.717 C239.312,257.717 244.952,252.557 244.952,244.517 C244.952,240.737 243.752,237.617 241.352,235.337 C239.732,233.777 237.392,232.757 232.592,231.557 L226.172,229.937 C220.832,228.557 218.312,226.217 218.312,222.557 C218.312,218.357 221.732,215.477 226.832,215.477 C231.032,215.477 234.452,217.277 236.852,220.697 C238.592,223.157 239.732,225.677 240.452,228.737 L243.032,228.737 L242.312,213.137 M271.162,247.997 C269.242,252.317 267.202,254.057 264.082,254.057 C259.282,254.057 256.282,249.677 256.282,242.657 C256.282,235.337 259.222,230.537 263.662,230.537 C265.462,230.537 267.022,231.377 267.022,232.337 C267.022,232.517 266.962,232.697 266.662,233.057 C265.702,234.197 265.462,234.797 265.462,235.817 C265.462,237.797 266.962,239.177 269.062,239.177 C271.222,239.177 272.722,237.497 272.722,235.097 C272.722,231.017 268.702,227.957 263.362,227.957 C255.562,227.957 249.982,234.317 249.982,243.317 C249.982,251.837 255.082,257.717 262.522,257.717 C267.862,257.717 270.922,255.257 273.502,248.897 L271.162,247.997 M301.75,237.497 C301.75,233.717 301.09,231.797 299.35,230.357 C297.37,228.737 294.43,227.957 290.59,227.957 C283.81,227.957 278.89,231.137 278.89,235.517 C278.89,237.737 280.27,239.177 282.37,239.177 C284.29,239.177 285.61,237.917 285.61,236.117 C285.61,235.337 285.31,234.497 284.71,233.657 C284.35,233.237 284.29,233.117 284.29,232.817 C284.29,231.617 286.69,230.537 289.57,230.537 C291.49,230.537 293.59,231.137 294.55,232.037 C295.69,232.997 296.11,234.437 296.11,237.137 L296.11,239.477 C289.87,240.557 287.89,241.037 284.95,242.177 C279.73,244.097 277.27,246.857 277.27,250.697 C277.27,255.017 280.63,257.717 285.97,257.717 C290.11,257.717 293.83,256.037 296.41,252.977 C297.37,256.037 298.87,257.237 301.69,257.237 C304.39,257.237 307.21,255.497 307.21,253.757 C307.21,253.337 306.97,253.037 306.61,253.037 C306.37,253.037 306.13,253.097 305.71,253.277 C304.87,253.637 304.51,253.697 304.03,253.697 C302.35,253.697 301.75,252.617 301.75,249.557 L301.75,237.497 M296.11,244.817 C296.11,248.417 295.93,249.257 294.91,250.817 C293.41,253.037 290.71,254.537 288.07,254.537 C285.31,254.537 283.33,252.557 283.33,249.857 C283.33,247.337 284.59,245.537 287.23,244.277 C289.09,243.437 291.43,242.837 296.11,242.057 L296.11,244.817 M320.229,212.597 L309.129,213.257 L309.129,215.837 L312.069,215.837 C314.289,215.897 314.589,216.257 314.589,218.837 L314.589,249.437 L314.589,252.257 C314.529,253.157 314.469,253.517 314.229,253.817 C313.809,254.357 312.669,254.597 310.089,254.657 L309.669,254.657 L309.669,256.817 L325.209,256.817 L325.209,254.657 L324.789,254.657 C320.769,254.537 320.229,254.237 320.229,252.077 L320.229,249.437 L320.229,212.597 M354.78,243.317 C354.84,234.317 349.74,227.957 342.42,227.957 C334.74,227.957 328.98,234.617 328.98,243.617 C328.98,252.077 334.44,257.717 342.54,257.717 C348.3,257.717 352.32,254.897 354.78,249.197 L352.68,248.057 C350.22,252.677 347.7,254.477 343.68,254.477 C340.62,254.477 338.4,253.217 336.84,250.517 C335.76,248.717 335.28,246.617 335.34,243.317 L354.78,243.317 M335.4,240.737 C335.4,238.877 335.64,237.557 336.24,235.877 C337.5,232.277 339.42,230.537 342.36,230.537 C345.96,230.537 348.36,233.717 348.36,238.577 C348.36,240.257 347.82,240.737 345.9,240.737 L335.4,240.737 M366.601,250.157 C364.501,250.157 362.821,251.837 362.821,253.877 C362.821,255.977 364.501,257.657 366.541,257.657 C368.641,257.657 370.321,255.977 370.321,253.877 C370.321,251.837 368.641,250.157 366.601,250.157 M366.601,228.437 C364.501,228.437 362.821,230.117 362.821,232.217 C362.821,234.257 364.501,235.937 366.541,235.937 C368.641,235.937 370.321,234.257 370.321,232.157 C370.321,230.117 368.641,228.437 366.601,228.437 M413.685,212.657 L411.165,212.657 L397.365,247.637 C395.745,252.317 394.185,253.757 390.765,253.997 L390.525,253.997 L390.525,256.817 L406.425,256.817 L406.425,253.997 L405.225,253.997 C401.985,253.997 400.365,252.857 400.365,250.577 C400.365,249.797 400.545,249.077 400.905,248.057 L402.885,242.777 L418.785,242.777 L422.025,250.817 C422.385,251.777 422.505,252.137 422.505,252.437 C422.505,253.397 421.005,253.997 418.785,253.997 L416.265,253.997 L416.265,256.817 L434.865,256.817 L434.865,253.997 L434.025,253.997 C430.905,253.937 430.365,253.577 428.985,250.157 L413.685,212.657 M410.745,222.497 L417.525,239.537 L404.085,239.537 L410.745,222.497 M463.049,228.857 L452.369,229.517 L452.369,232.097 L454.829,232.097 C457.109,232.157 457.409,232.517 457.409,235.097 L457.409,249.437 L457.409,251.777 L457.409,252.257 C457.349,253.157 457.289,253.517 457.049,253.817 C456.629,254.357 455.489,254.597 452.909,254.657 L452.669,254.657 L452.669,256.817 L467.789,256.817 L467.789,254.657 L467.549,254.657 C463.589,254.537 463.049,254.237 463.049,252.017 L463.049,249.437 L463.049,240.917 C463.049,235.577 465.989,231.617 469.889,231.617 C473.309,231.617 475.049,234.077 475.049,238.937 L475.049,249.437 L475.049,252.317 C474.989,253.097 474.929,253.517 474.629,253.817 C474.269,254.357 473.069,254.597 470.489,254.657 L470.249,254.657 L470.249,256.817 L485.429,256.817 L485.429,254.657 L485.189,254.657 C481.229,254.537 480.689,254.237 480.689,252.077 L480.689,249.437 L480.689,241.457 C480.689,235.457 483.389,231.617 487.589,231.617 C491.009,231.617 492.689,234.197 492.689,239.597 L492.689,249.437 L492.689,252.257 C492.629,253.097 492.569,253.517 492.269,253.817 C491.909,254.357 490.709,254.597 488.129,254.657 L487.889,254.657 L487.889,256.817 L503.069,256.817 L503.069,254.657 L502.829,254.657 C498.869,254.537 498.329,254.237 498.329,252.017 L498.329,249.437 L498.329,238.397 C498.329,234.677 497.969,233.417 496.409,231.377 C494.669,229.157 492.209,227.957 489.329,227.957 C485.429,227.957 482.549,229.817 479.969,233.957 C478.949,230.357 475.709,227.957 471.689,227.957 C468.029,227.957 465.389,229.697 463.049,233.477 L463.049,228.857 M516.677,228.857 L505.397,229.517 L505.397,232.097 L508.457,232.097 C510.737,232.157 511.037,232.517 511.037,235.097 L511.037,249.437 L511.037,252.257 C510.977,253.157 510.917,253.517 510.677,253.817 C510.257,254.357 509.117,254.597 506.537,254.657 L506.117,254.657 L506.117,256.817 L521.657,256.817 L521.657,254.657 L521.237,254.657 C517.217,254.537 516.677,254.237 516.677,252.077 L516.677,249.437 L516.677,228.857 M513.857,213.917 C511.937,213.917 510.377,215.477 510.377,217.397 C510.377,219.317 511.937,220.877 513.797,220.877 C515.777,220.877 517.337,219.317 517.337,217.397 C517.337,215.477 515.777,213.917 513.857,213.917 M535.208,228.857 L524.828,229.517 L524.828,232.097 L526.988,232.097 C529.268,232.157 529.568,232.517 529.568,235.097 L529.568,249.437 L529.568,250.877 L529.568,252.257 C529.508,253.157 529.448,253.517 529.208,253.817 C528.788,254.357 527.648,254.597 525.068,254.657 L524.828,254.657 L524.828,256.817 L540.008,256.817 L540.008,254.657 L539.768,254.657 C535.748,254.537 535.208,254.237 535.208,252.077 L535.208,249.437 L535.208,243.197 C535.208,240.257 535.628,237.557 536.288,236.177 C537.548,233.477 540.248,231.617 542.828,231.617 C544.388,231.617 546.188,232.457 547.088,233.717 C547.988,235.037 548.408,236.837 548.408,239.717 L548.408,249.437 L548.408,252.257 C548.348,253.157 548.288,253.517 548.048,253.817 C547.628,254.357 546.428,254.597 543.848,254.657 L543.608,254.657 L543.608,256.817 L558.788,256.817 L558.788,254.657 L558.548,254.657 C554.588,254.537 554.048,254.237 554.048,252.077 L554.048,249.437 L554.048,240.017 C554.048,235.697 553.868,234.617 552.788,232.577 C551.288,229.697 548.288,227.957 544.688,227.957 C540.788,227.957 537.848,229.757 535.208,233.717 L535.208,228.857 M574.984,227.957 C567.604,227.957 561.904,234.497 561.904,242.897 C561.904,251.117 567.664,257.717 574.864,257.717 C582.064,257.717 587.824,251.117 587.824,242.837 C587.824,234.617 582.064,227.957 574.984,227.957 M574.984,230.537 C579.184,230.537 581.524,234.917 581.524,242.837 C581.524,250.817 579.184,255.137 574.864,255.137 C570.544,255.137 568.204,250.817 568.204,242.897 C568.204,234.737 570.484,230.537 574.984,230.537 M601.744,228.857 L591.124,229.517 L591.124,232.097 L593.584,232.097 C595.864,232.157 596.164,232.517 596.164,235.097 L596.164,249.437 L596.164,252.257 C596.104,253.157 596.044,253.517 595.804,253.817 C595.384,254.357 594.184,254.597 591.604,254.657 L591.364,254.657 L591.364,256.817 L607.384,256.817 L607.384,254.657 L606.304,254.657 C602.284,254.537 601.744,254.237 601.744,252.077 L601.744,249.437 L601.744,248.837 C601.804,238.757 605.404,231.077 610.084,230.837 C609.244,231.797 609.004,232.397 609.004,233.537 C609.004,235.457 610.384,236.837 612.304,236.837 C614.524,236.837 615.964,235.217 615.964,232.817 C615.964,229.877 613.924,227.957 610.744,227.957 C606.964,227.957 603.724,230.957 601.744,236.297 L601.744,228.857 "/>
<polyline class="BarLine" fill="none" stroke="#000000" stroke-width="4.50" stroke-linejoin="bevel" points="249.349,906.459 249.349,1009.22"/>
<polyline class="BarLine" fill="none" stroke="#000000" stroke-width="4.50" stroke-linejoin="bevel" points="1030.92,906.459 1030.92,1009.22"/>
<polyline class="BarLine" fill="none" stroke="#000000" stroke-width="4.50" stroke-linejoin="bevel" points="1580.34,906.459 1580.34,1009.22"/>
<polyline class="BarLine" fill="none" stroke="#000000" stroke-width="4.50" stroke-linejoin="bevel" points="2182.26,906.459 2182.26,1009.22"/>
<polyline class="BarLine" fill="none" stroke="#000000" stroke-width="4.50" stroke-linejoin="bevel" points="2762.38,906.459 2762.38,1009.22"/>
<polyline class="BarLine" fill="none" stroke="#000000" stroke-width="4.50" stroke-linejoin="bevel" points="249.349,1519 249.349,1621.75"/>
<polyline class="BarLine" fill="none" stroke="#000000" stroke-width="4.50" stroke-linejoin="bevel" points="942.314,1519 942.314,1621.75"/>
<polyline class="BarLine" fill="none" stroke="#000000" stroke-width="4.50" stroke-linejoin="bevel" points="1597.4,1519 1597.4,1621.75"/>
<polyline class="BarLine" fill="none" stroke="#000000" stroke-width="4.50" stroke-linejoin="bevel" points="2186.87,1519 2186.87,1621.75"/>
<polyline class="BarLine" fill="none" stroke="#000000" stroke-width="4.50" stroke-linejoin="bevel" points="2734.88,1519 2734.88,1621.75"/>
<polyline class="BarLine" fill="none" stroke="#000000" stroke-width="13.75" stroke-linejoin="bevel" points="2757.76,1519 2757.76,1621.75"/>
<polyline class="BarLine" fill="none" stroke="#000000" stroke-width="4.50" stroke-linejoin="bevel" points="249.349,643.942 249.349,907.834"/>
<polyline class="BarLine" fill="none" stroke="#000000" stroke-width="4.50" stroke-linejoin="bevel" points="1030.92,643.942 1030.92,907.834"/>
<polyline class="BarLine" fill="none" stroke="#000000" stroke-width="4.50" stroke-linejoin="bevel" points="1580.34,643.942 1580.34,907.834"/>
<polyline class="BarLine" fill="none" stroke="#000000" stroke-width="4.50" stroke-linejoin="bevel" points="2182.26,643.942 2182.26,907.834"/>
<polyline class="BarLine" fill="none" stroke="#000000" stroke-width="4.50" stroke-linejoin="bevel" points="2762.38,643.942 2762.38,907.834"/>
<polyline class="BarLine" fill="none" stroke="#000000" stroke-width="4.50" stroke-linejoin="bevel" points="249.349,1256.48 249.349,1520.37"/>
<polyline class="BarLine" fill="none" stroke="#000000" stroke-width="4.50" stroke-linejoin="bevel" points="942.314,1256.48 942.314,1520.37"/>
<polyline class="BarLine" fill="none" stroke="#000000" stroke-width="4.50" stroke-linejoin="bevel" points="1597.4,1256.48 1597.4,1520.37"/>
<polyline class="BarLine" fill="none" stroke="#000000" stroke-width="4.50" stroke-linejoin="bevel" points="2186.87,1256.48 2186.87,1520.37"/>
<polyline class="BarLine" fill="none" stroke="#000000" stroke-width="4.50" stroke-linejoin="bevel" points="2734.88,1256.48 2734.88,1520.37"/>
<polyline class="BarLine" fill="none" stroke="#000000" stroke-width="13.75" stroke-linejoin="bevel" points="2757.76,1256.48 2757.76,1520.37"/>
<polyline class="LedgerLine" fill="none" stroke="#000000" stroke-width="4.00" stroke-linejoin="bevel" points="1747.57,882.832 1797.56,882.832"/>
<polyline class="LedgerLine" fill="none" stroke="#000000" stroke-width="4.00" stroke-linejoin="bevel" points="1888.8,882.832 1938.79,882.832"/>
<polyline class="LedgerLine" fill="none" stroke="#000000" stroke-width="4.00" stroke-linejoin="bevel" points="2030.03,882.832 2080.02,882.832"/>
<polyline class="LedgerLine" fill="none" stroke="#000000" stroke-width="4.00" stroke-linejoin="bevel" points="2030.03,857.831 2080.02,857.831"/>
<polyline class="LedgerLine" fill="none" stroke="#000000" stroke-width="4.00" stroke-linejoin="bevel" points="1033.94,1495.37 1083.93,1495.37"/>
<polyline class="LedgerLine" fill="none" stroke="#000000" stroke-width="4.00" stroke-linejoin="bevel" points="455.002,795.327 504.998,795.327"/>
<polyline class="LedgerLine" fill="none" stroke="#000000" stroke-width="4.00" stroke-linejoin="bevel" points="455.002,770.325 504.998,770.325"/>
<polyline class="LedgerLine" fill="none" stroke="#000000" stroke-width="4.00" stroke-linejoin="bevel" points="596.232,770.325 646.227,770.325"/>
<polyline class="LedgerLine" fill="none" stroke="#000000" stroke-width="4.00" stroke-linejoin="bevel" points="737.461,770.325 787.457,770.325"/>
<polyline class="LedgerLine" fill="none" stroke="#000000" stroke-width="4.00" stroke-linejoin="bevel" points="2538.3,620.316 2588.3,620.316"/>
<polyline class="LedgerLine" fill="none" stroke="#000000" stroke-width="4.00" stroke-linejoin="bevel" points="2037.75,1382.86 2087.75,1382.86"/>
<polyline class="LedgerLine" fill="none" stroke="#000000" stroke-width="4.00" stroke-linejoin="bevel" points="2221.62,1382.86 2271.62,1382.86"/>
<polyline class="LedgerLine" fill="none" stroke="#000000" stroke-width="4.00" stroke-linejoin="bevel" points="2391.82,1407.87 2441.82,1407.87"/>
<polyline class="LedgerLine" fill="none" stroke="#000000" stroke-width="4.00" stroke-linejoin="bevel" points="2391.82,1382.86 2441.82,1382.86"/>
<polyline class="Stem" fill="none" stroke="#000000" stroke-width="2.75" stroke-linejoin="bevel" points="494.872,991.979 494.872,907.834"/>
<polyline class="Stem" fill="none" stroke="#000000" stroke-width="2.75" stroke-linejoin="bevel" points="636.102,979.478 636.102,898.458"/>
<polyline class="Stem" fill="none" stroke="#000000" stroke-width="2.75" stroke-linejoin="bevel" points="777.331,966.978 777.331,889.083"/>
<polyline class="Stem" fill="none" stroke="#000000" stroke-width="2.75" stroke-linejoin="bevel" points="888.817,961.357 888.817,1035.97"/>
<polyline class="Stem" fill="none" stroke="#000000" stroke-width="2.75" stroke-linejoin="bevel" points="1067.05,948.856 1067.05,1026.59"/>
<polyline class="Stem" fill="none" stroke="#000000" stroke-width="2.75" stroke-linejoin="bevel" points="1195.15,936.356 1195.15,1017.22"/>
<polyline class="Stem" fill="none" stroke="#000000" stroke-width="2.75" stroke-linejoin="bevel" points="1323.26,923.855 1323.26,1007.84"/>
<polyline class="Stem" fill="none" stroke="#000000" stroke-width="2.75" stroke-linejoin="bevel" points="1451.36,911.354 1451.36,995.339"/>
<polyline class="Stem" fill="none" stroke="#000000" stroke-width="2.75" stroke-linejoin="bevel" points="1616.47,898.853 1616.47,982.839"/>
<polyline class="Stem" fill="none" stroke="#000000" stroke-width="2.75" stroke-linejoin="bevel" points="1757.7,886.352 1757.7,970.338"/>
<polyline class="Stem" fill="none" stroke="#000000" stroke-width="2.75" stroke-linejoin="bevel" points="1898.92,873.852 1898.92,957.837"/>
<polyline class="Stem" fill="none" stroke="#000000" stroke-width="2.75" stroke-linejoin="bevel" points="2040.15,861.351 2040.15,957.837"/>
<polyline class="Stem" fill="none" stroke="#000000" stroke-width="2.75" stroke-linejoin="bevel" points="2311.83,991.979 2311.83,907.834"/>
<polyline class="Stem" fill="none" stroke="#000000" stroke-width="2.75" stroke-linejoin="bevel" points="2445,979.478 2445,898.458"/>
<polyline class="Stem" fill="none" stroke="#000000" stroke-width="2.75" stroke-linejoin="bevel" points="2578.17,966.898 2578.17,889.083"/>
<polyline class="Stem" fill="none" stroke="#000000" stroke-width="2.75" stroke-linejoin="bevel" points="429.219,1592.02 429.219,1511"/>
<polyline class="Stem" fill="none" stroke="#000000" stroke-width="2.75" stroke-linejoin="bevel" points="564.71,1604.52 564.71,1520.37"/>
<polyline class="Stem" fill="none" stroke="#000000" stroke-width="2.75" stroke-linejoin="bevel" points="700.201,1617.02 700.201,1532.87"/>
<polyline class="Stem" fill="none" stroke="#000000" stroke-width="2.75" stroke-linejoin="bevel" points="835.692,1629.52 835.692,1545.37"/>
<polyline class="Stem" fill="none" stroke="#000000" stroke-width="2.75" stroke-linejoin="bevel" points="1044.06,1498.89 1044.06,1582.88"/>
<polyline class="Stem" fill="none" stroke="#000000" stroke-width="2.75" stroke-linejoin="bevel" points="1182.18,1511.39 1182.18,1595.38"/>
<polyline class="Stem" fill="none" stroke="#000000" stroke-width="2.75" stroke-linejoin="bevel" points="1320.3,1523.89 1320.3,1607.88"/>
<polyline class="Stem" fill="none" stroke="#000000" stroke-width="2.75" stroke-linejoin="bevel" points="1458.41,1536.39 1458.41,1620.38"/>
<polyline class="Stem" fill="none" stroke="#000000" stroke-width="2.75" stroke-linejoin="bevel" points="1633.53,1548.89 1633.53,1629.75"/>
<polyline class="Stem" fill="none" stroke="#000000" stroke-width="2.75" stroke-linejoin="bevel" points="1771.65,1561.39 1771.65,1639.13"/>
<polyline class="Stem" fill="none" stroke="#000000" stroke-width="2.75" stroke-linejoin="bevel" points="1909.76,1573.9 1909.76,1648.51"/>
<polyline class="Stem" fill="none" stroke="#000000" stroke-width="2.75" stroke-linejoin="bevel" points="2077.62,1579.52 2077.62,1501.62"/>
<polyline class="Stem" fill="none" stroke="#000000" stroke-width="2.75" stroke-linejoin="bevel" points="2261.49,1592.02 2261.49,1511"/>
<polyline class="Stem" fill="none" stroke="#000000" stroke-width="2.75" stroke-linejoin="bevel" points="2431.69,1604.44 2431.69,1520.37"/>
<polyline class="Stem" fill="none" stroke="#000000" stroke-width="2.75" stroke-linejoin="bevel" points="494.872,791.966 494.872,695.32"/>
<polyline class="Stem" fill="none" stroke="#000000" stroke-width="2.75" stroke-linejoin="bevel" points="636.102,779.466 636.102,695.32"/>
<polyline class="Stem" fill="none" stroke="#000000" stroke-width="2.75" stroke-linejoin="bevel" points="777.331,766.965 777.331,682.82"/>
<polyline class="Stem" fill="none" stroke="#000000" stroke-width="2.75" stroke-linejoin="bevel" points="918.561,754.464 918.561,670.319"/>
<polyline class="Stem" fill="none" stroke="#000000" stroke-width="2.75" stroke-linejoin="bevel" points="1096.79,741.963 1096.79,657.818"/>
<polyline class="Stem" fill="none" stroke="#000000" stroke-width="2.75" stroke-linejoin="bevel" points="1224.9,729.463 1224.9,645.317"/>
<polyline class="Stem" fill="none" stroke="#000000" stroke-width="2.75" stroke-linejoin="bevel" points="1353,716.962 1353,635.942"/>
<polyline class="Stem" fill="none" stroke="#000000" stroke-width="2.75" stroke-linejoin="bevel" points="1481.1,704.461 1481.1,626.566"/>
<polyline class="Stem" fill="none" stroke="#000000" stroke-width="2.75" stroke-linejoin="bevel" points="1616.47,698.841 1616.47,773.45"/>
<polyline class="Stem" fill="none" stroke="#000000" stroke-width="2.75" stroke-linejoin="bevel" points="1757.7,686.34 1757.7,764.075"/>
<polyline class="Stem" fill="none" stroke="#000000" stroke-width="2.75" stroke-linejoin="bevel" points="1898.92,673.839 1898.92,754.699"/>
<polyline class="Stem" fill="none" stroke="#000000" stroke-width="2.75" stroke-linejoin="bevel" points="2040.15,661.338 2040.15,745.324"/>
<polyline class="Stem" fill="none" stroke="#000000" stroke-width="2.75" stroke-linejoin="bevel" points="2282.08,648.837 2282.08,732.823"/>
<polyline class="Stem" fill="none" stroke="#000000" stroke-width="2.75" stroke-linejoin="bevel" points="2415.26,636.337 2415.26,720.322"/>
<polyline class="Stem" fill="none" stroke="#000000" stroke-width="2.75" stroke-linejoin="bevel" points="2548.43,623.756 2548.43,707.821"/>
<polyline class="Stem" fill="none" stroke="#000000" stroke-width="2.75" stroke-linejoin="bevel" points="399.475,1248.88 399.475,1332.86"/>
<polyline class="Stem" fill="none" stroke="#000000" stroke-width="2.75" stroke-linejoin="bevel" points="534.966,1261.38 534.966,1345.36"/>
<polyline class="Stem" fill="none" stroke="#000000" stroke-width="2.75" stroke-linejoin="bevel" points="670.457,1273.88 670.457,1357.86"/>
<polyline class="Stem" fill="none" stroke="#000000" stroke-width="2.75" stroke-linejoin="bevel" points="805.948,1286.38 805.948,1367.24"/>
<polyline class="Stem" fill="none" stroke="#000000" stroke-width="2.75" stroke-linejoin="bevel" points="1044.06,1298.88 1044.06,1376.61"/>
<polyline class="Stem" fill="none" stroke="#000000" stroke-width="2.75" stroke-linejoin="bevel" points="1182.18,1311.38 1182.18,1385.99"/>
<polyline class="Stem" fill="none" stroke="#000000" stroke-width="2.75" stroke-linejoin="bevel" points="1350.04,1317 1350.04,1239.1"/>
<polyline class="Stem" fill="none" stroke="#000000" stroke-width="2.75" stroke-linejoin="bevel" points="1488.16,1329.5 1488.16,1248.48"/>
<polyline class="Stem" fill="none" stroke="#000000" stroke-width="2.75" stroke-linejoin="bevel" points="1663.27,1342 1663.27,1257.86"/>
<polyline class="Stem" fill="none" stroke="#000000" stroke-width="2.75" stroke-linejoin="bevel" points="1801.39,1354.5 1801.39,1270.36"/>
<polyline class="Stem" fill="none" stroke="#000000" stroke-width="2.75" stroke-linejoin="bevel" points="1939.51,1367 1939.51,1282.86"/>
<polyline class="Stem" fill="none" stroke="#000000" stroke-width="2.75" stroke-linejoin="bevel" points="2077.62,1379.5 2077.62,1295.36"/>
<polyline class="Stem" fill="none" stroke="#000000" stroke-width="2.75" stroke-linejoin="bevel" points="2261.49,1392 2261.49,1307.86"/>
<polyline class="Stem" fill="none" stroke="#000000" stroke-width="2.75" stroke-linejoin="bevel" points="2431.69,1404.43 2431.69,1307.86"/>
<path class="Note" d="M495.253,987.139 C493.753,984.439 490.853,982.739 486.953,982.339 C486.353,982.239 485.853,982.239 485.253,982.239 C481.753,982.239 477.953,983.239 474.453,985.139 C467.853,988.739 463.753,994.639 463.753,999.739 C463.753,1001.14 463.953,1002.44 464.653,1003.64 C466.153,1006.34 469.153,1008.04 473.053,1008.44 C473.653,1008.54 474.153,1008.54 474.753,1008.54 C478.253,1008.54 481.953,1007.54 485.453,1005.64 C492.053,1002.04 496.253,996.239 496.253,991.139 C496.253,989.739 495.953,988.339 495.253,987.139"/>
<path class="Note" d="M636.482,974.639 C634.982,971.939 632.082,970.239 628.182,969.839 C627.582,969.739 627.082,969.739 626.482,969.739 C622.982,969.739 619.182,970.739 615.682,972.639 C609.082,976.239 604.982,982.139 604.982,987.239 C604.982,988.639 605.182,989.939 605.882,991.139 C607.382,993.839 610.382,995.539 614.282,995.939 C614.882,996.039 615.382,996.039 615.982,996.039 C619.482,996.039 623.182,995.039 626.682,993.139 C633.282,989.539 637.482,983.739 637.482,978.639 C637.482,977.239 637.182,975.839 636.482,974.639"/>
<path class="Note" d="M777.712,962.138 C776.212,959.438 773.312,957.738 769.412,957.338 C768.812,957.238 768.312,957.238 767.712,957.238 C764.212,957.238 760.412,958.238 756.912,960.138 C750.312,963.738 746.212,969.638 746.212,974.738 C746.212,976.138 746.412,977.438 747.112,978.638 C748.612,981.338 751.612,983.038 755.512,983.438 C756.112,983.538 756.612,983.538 757.212,983.538 C760.712,983.538 764.412,982.538 767.912,980.638 C774.512,977.038 778.712,971.238 778.712,966.138 C778.712,964.738 778.412,963.338 777.712,962.138"/>
<path class="Note" d="M918.941,949.637 C917.441,946.937 914.541,945.237 910.641,944.837 C910.041,944.737 909.541,944.737 908.941,944.737 C905.441,944.737 901.641,945.737 898.141,947.637 C891.541,951.237 887.441,957.137 887.441,962.237 C887.441,963.637 887.641,964.937 888.341,966.137 C889.841,968.837 892.841,970.537 896.741,970.937 C897.341,971.037 897.841,971.037 898.441,971.037 C901.941,971.037 905.641,970.037 909.141,968.137 C915.741,964.537 919.941,958.737 919.941,953.637 C919.941,952.237 919.641,950.837 918.941,949.637"/>
<path class="Note" d="M1097.17,937.136 C1095.67,934.436 1092.77,932.736 1088.87,932.336 C1088.27,932.236 1087.77,932.236 1087.17,932.236 C1083.67,932.236 1079.87,933.236 1076.37,935.136 C1069.77,938.736 1065.67,944.636 1065.67,949.736 C1065.67,951.136 1065.87,952.436 1066.57,953.636 C1068.07,956.336 1071.07,958.036 1074.97,958.436 C1075.57,958.536 1076.07,958.536 1076.67,958.536 C1080.17,958.536 1083.87,957.536 1087.37,955.636 C1093.97,952.036 1098.17,946.236 1098.17,941.136 C1098.17,939.736 1097.87,938.336 1097.17,937.136"/>
<path class="Note" d="M1225.28,924.635 C1223.78,921.935 1220.88,920.235 1216.98,919.835 C1216.38,919.735 1215.88,919.735 1215.28,919.735 C1211.78,919.735 1207.98,920.735 1204.48,922.635 C1197.88,926.235 1193.78,932.135 1193.78,937.235 C1193.78,938.635 1193.98,939.935 1194.68,941.135 C1196.18,943.835 1199.18,945.535 1203.08,945.935 C1203.68,946.035 1204.18,946.035 1204.78,946.035 C1208.28,946.035 1211.98,945.035 1215.48,943.135 C1222.08,939.535 1226.28,933.735 1226.28,928.635 C1226.28,927.235 1225.98,925.835 1225.28,924.635"/>
<path class="Note" d="M1353.38,912.135 C1351.88,909.435 1348.98,907.735 1345.08,907.335 C1344.48,907.235 1343.98,907.235 1343.38,907.235 C1339.88,907.235 1336.08,908.235 1332.58,910.135 C1325.98,913.735 1321.88,919.635 1321.88,924.735 C1321.88,926.135 1322.08,927.435 1322.78,928.635 C1324.28,931.335 1327.28,933.035 1331.18,933.435 C1331.78,933.535 1332.28,933.535 1332.88,933.535 C1336.38,933.535 1340.08,932.535 1343.58,930.635 C1350.18,927.035 1354.38,921.235 1354.38,916.135 C1354.38,914.735 1354.08,913.335 1353.38,912.135"/>
<path class="Note" d="M1481.48,899.634 C1479.98,896.934 1477.08,895.234 1473.18,894.834 C1472.58,894.734 1472.08,894.734 1471.48,894.734 C1467.98,894.734 1464.18,895.734 1460.68,897.634 C1454.08,901.234 1449.98,907.134 1449.98,912.234 C1449.98,913.634 1450.18,914.934 1450.88,916.134 C1452.38,918.834 1455.38,920.534 1459.28,920.934 C1459.88,921.034 1460.38,921.034 1460.98,921.034 C1464.48,921.034 1468.18,920.034 1471.68,918.134 C1478.28,914.534 1482.48,908.734 1482.48,903.634 C1482.48,902.234 1482.18,900.834 1481.48,899.634"/>
<path class="Note" d="M1646.59,887.133 C1645.09,884.433 1642.19,882.733 1638.29,882.333 C1637.69,882.233 1637.19,882.233 1636.59,882.233 C1633.09,882.233 1629.29,883.233 1625.79,885.133 C1619.19,888.733 1615.09,894.633 1615.09,899.733 C1615.09,901.133 1615.29,902.433 1615.99,903.633 C1617.49,906.333 1620.49,908.033 1624.39,908.433 C1624.99,908.533 1625.49,908.533 1626.09,908.533 C1629.59,908.533 1633.29,907.533 1636.79,905.633 C1643.39,902.033 1647.59,896.233 1647.59,891.133 C1647.59,889.733 1647.29,888.333 1646.59,887.133"/>
<path class="Note" d="M1787.82,874.632 C1786.32,871.932 1783.42,870.232 1779.52,869.832 C1778.92,869.732 1778.42,869.732 1777.82,869.732 C1774.32,869.732 1770.52,870.732 1767.02,872.632 C1760.42,876.232 1756.32,882.132 1756.32,887.232 C1756.32,888.632 1756.52,889.932 1757.22,891.132 C1758.72,893.832 1761.72,895.532 1765.62,895.932 C1766.22,896.032 1766.72,896.032 1767.32,896.032 C1770.82,896.032 1774.52,895.032 1778.02,893.132 C1784.62,889.532 1788.82,883.732 1788.82,878.632 C1788.82,877.232 1788.52,875.832 1787.82,874.632"/>
<path class="Note" d="M1929.05,862.131 C1927.55,859.431 1924.65,857.731 1920.75,857.331 C1920.15,857.231 1919.65,857.231 1919.05,857.231 C1915.55,857.231 1911.75,858.231 1908.25,860.131 C1901.65,863.731 1897.55,869.631 1897.55,874.731 C1897.55,876.131 1897.75,877.431 1898.45,878.631 C1899.95,881.331 1902.95,883.031 1906.85,883.431 C1907.45,883.531 1907.95,883.531 1908.55,883.531 C1912.05,883.531 1915.75,882.531 1919.25,880.631 C1925.85,877.031 1930.05,871.231 1930.05,866.131 C1930.05,864.731 1929.75,863.331 1929.05,862.131"/>
<path class="Note" d="M2070.28,849.631 C2068.78,846.931 2065.88,845.231 2061.98,844.831 C2061.38,844.731 2060.88,844.731 2060.28,844.731 C2056.78,844.731 2052.98,845.731 2049.48,847.631 C2042.88,851.231 2038.78,857.131 2038.78,862.231 C2038.78,863.631 2038.98,864.931 2039.68,866.131 C2041.18,868.831 2044.18,870.531 2048.08,870.931 C2048.68,871.031 2049.18,871.031 2049.78,871.031 C2053.28,871.031 2056.98,870.031 2060.48,868.131 C2067.08,864.531 2071.28,858.731 2071.28,853.631 C2071.28,852.231 2070.98,850.831 2070.28,849.631"/>
<path class="Note" d="M2312.21,987.139 C2310.71,984.439 2307.81,982.739 2303.91,982.339 C2303.31,982.239 2302.81,982.239 2302.21,982.239 C2298.71,982.239 2294.91,983.239 2291.41,985.139 C2284.81,988.739 2280.71,994.639 2280.71,999.739 C2280.71,1001.14 2280.91,1002.44 2281.61,1003.64 C2283.11,1006.34 2286.11,1008.04 2290.01,1008.44 C2290.61,1008.54 2291.11,1008.54 2291.71,1008.54 C2295.21,1008.54 2298.91,1007.54 2302.41,1005.64 C2309.01,1002.04 2313.21,996.239 2313.21,991.139 C2313.21,989.739 2312.91,988.339 2312.21,987.139"/>
<path class="Note" d="M2445.38,974.639 C2443.88,971.939 2440.98,970.239 2437.08,969.839 C2436.48,969.739 2435.98,969.739 2435.38,969.739 C2431.88,969.739 2428.08,970.739 2424.58,972.639 C2417.98,976.239 2413.88,982.139 2413.88,987.239 C2413.88,988.639 2414.08,989.939 2414.78,991.139 C2416.28,993.839 2419.28,995.539 2423.18,995.939 C2423.78,996.039 2424.28,996.039 2424.88,996.039 C2428.38,996.039 2432.08,995.039 2435.58,993.139 C2442.18,989.539 2446.38,983.739 2446.38,978.639 C2446.38,977.239 2446.08,975.839 2445.38,974.639"/>
<path class="Note" d="M2578.55,962.138 C2577.05,959.438 2574.15,957.738 2570.25,957.338 C2569.65,957.238 2569.15,957.238 2568.55,957.238 C2565.05,957.238 2561.25,958.238 2557.75,960.138 C2551.15,963.738 2547.05,969.538 2547.05,974.638 C2547.05,976.038 2547.45,977.438 2548.15,978.638 C2549.65,981.438 2552.45,983.038 2556.35,983.438 C2556.95,983.538 2557.45,983.538 2558.05,983.538 C2561.55,983.538 2565.35,982.538 2568.85,980.638 C2575.45,977.038 2579.55,971.138 2579.55,966.038 C2579.55,964.638 2579.25,963.338 2578.55,962.138 M2574.35,968.438 C2572.65,970.238 2569.45,972.538 2565.85,974.638 C2562.25,976.738 2558.55,978.438 2556.25,979.138 C2555.75,979.238 2555.15,979.338 2554.65,979.338 C2553.15,979.338 2551.85,978.638 2551.15,977.538 C2550.85,976.938 2550.65,976.338 2550.65,975.738 C2550.65,974.638 2551.15,973.538 2552.25,972.338 C2553.95,970.538 2557.15,968.138 2560.75,966.038 C2564.35,963.938 2568.05,962.238 2570.45,961.638 L2570.65,961.638 C2571.25,961.438 2571.75,961.338 2572.25,961.338 C2573.65,961.338 2574.75,961.938 2575.45,963.238 C2575.75,963.838 2575.95,964.338 2575.95,964.938 C2575.95,966.238 2575.25,967.538 2574.35,968.438"/>
<path class="Note" d="M429.6,1587.18 C428.1,1584.48 425.2,1582.78 421.3,1582.38 C420.7,1582.28 420.2,1582.28 419.6,1582.28 C416.1,1582.28 412.3,1583.28 408.8,1585.18 C402.2,1588.78 398.1,1594.68 398.1,1599.78 C398.1,1601.18 398.3,1602.48 399,1603.68 C400.5,1606.38 403.5,1608.08 407.4,1608.48 C408,1608.58 408.5,1608.58 409.1,1608.58 C412.6,1608.58 416.3,1607.58 419.8,1605.68 C426.4,1602.08 430.6,1596.28 430.6,1591.18 C430.6,1589.78 430.3,1588.38 429.6,1587.18"/>
<path class="Note" d="M565.091,1599.68 C563.591,1596.98 560.691,1595.28 556.791,1594.88 C556.191,1594.78 555.691,1594.78 555.091,1594.78 C551.591,1594.78 547.791,1595.78 544.291,1597.68 C537.691,1601.28 533.591,1607.18 533.591,1612.28 C533.591,1613.68 533.791,1614.98 534.491,1616.18 C535.991,1618.88 538.991,1620.58 542.891,1620.98 C543.491,1621.08 543.991,1621.08 544.591,1621.08 C548.091,1621.08 551.791,1620.08 555.291,1618.18 C561.891,1614.58 566.091,1608.78 566.091,1603.68 C566.091,1602.28 565.791,1600.88 565.091,1599.68"/>
<path class="Note" d="M700.582,1612.18 C699.082,1609.48 696.182,1607.78 692.282,1607.38 C691.682,1607.28 691.182,1607.28 690.582,1607.28 C687.082,1607.28 683.282,1608.28 679.782,1610.18 C673.182,1613.78 669.082,1619.68 669.082,1624.78 C669.082,1626.18 669.282,1627.48 669.982,1628.68 C671.482,1631.38 674.482,1633.08 678.382,1633.48 C678.982,1633.58 679.482,1633.58 680.082,1633.58 C683.582,1633.58 687.282,1632.58 690.782,1630.68 C697.382,1627.08 701.582,1621.28 701.582,1616.18 C701.582,1614.78 701.282,1613.38 700.582,1612.18"/>
<path class="Note" d="M836.073,1624.68 C834.573,1621.98 831.673,1620.28 827.773,1619.88 C827.173,1619.78 826.673,1619.78 826.073,1619.78 C822.573,1619.78 818.773,1620.78 815.273,1622.68 C808.673,1626.28 804.573,1632.18 804.573,1637.28 C804.573,1638.68 804.773,1639.98 805.473,1641.18 C806.973,1643.88 809.973,1645.58 813.873,1645.98 C814.473,1646.08 814.973,1646.08 815.573,1646.08 C819.073,1646.08 822.773,1645.08 826.273,1643.18 C832.873,1639.58 837.073,1633.78 837.073,1628.68 C837.073,1627.28 836.773,1625.88 836.073,1624.68"/>
<path class="Note" d="M1074.19,1487.17 C1072.69,1484.47 1069.79,1482.77 1065.89,1482.37 C1065.29,1482.27 1064.79,1482.27 1064.19,1482.27 C1060.69,1482.27 1056.89,1483.27 1053.39,1485.17 C1046.79,1488.77 1042.69,1494.67 1042.69,1499.77 C1042.69,1501.17 1042.89,1502.47 1043.59,1503.67 C1045.09,1506.37 1048.09,1508.07 1051.99,1508.47 C1052.59,1508.57 1053.09,1508.57 1053.69,1508.57 C1057.19,1508.57 1060.89,1507.57 1064.39,1505.67 C1070.99,1502.07 1075.19,1496.27 1075.19,1491.17 C1075.19,1489.77 1074.89,1488.37 1074.19,1487.17"/>
<path class="Note" d="M1212.3,1499.67 C1210.8,1496.97 1207.9,1495.27 1204,1494.87 C1203.4,1494.77 1202.9,1494.77 1202.3,1494.77 C1198.8,1494.77 1195,1495.77 1191.5,1497.67 C1184.9,1501.27 1180.8,1507.17 1180.8,1512.27 C1180.8,1513.67 1181,1514.97 1181.7,1516.17 C1183.2,1518.87 1186.2,1520.57 1190.1,1520.97 C1190.7,1521.07 1191.2,1521.07 1191.8,1521.07 C1195.3,1521.07 1199,1520.07 1202.5,1518.17 C1209.1,1514.57 1213.3,1508.77 1213.3,1503.67 C1213.3,1502.27 1213,1500.87 1212.3,1499.67"/>
<path class="Note" d="M1350.42,1512.17 C1348.92,1509.47 1346.02,1507.77 1342.12,1507.37 C1341.52,1507.27 1341.02,1507.27 1340.42,1507.27 C1336.92,1507.27 1333.12,1508.27 1329.62,1510.17 C1323.02,1513.77 1318.92,1519.67 1318.92,1524.77 C1318.92,1526.17 1319.12,1527.47 1319.82,1528.67 C1321.32,1531.37 1324.32,1533.07 1328.22,1533.47 C1328.82,1533.57 1329.32,1533.57 1329.92,1533.57 C1333.42,1533.57 1337.12,1532.57 1340.62,1530.67 C1347.22,1527.07 1351.42,1521.27 1351.42,1516.17 C1351.42,1514.77 1351.12,1513.37 1350.42,1512.17"/>
<path class="Note" d="M1488.54,1524.67 C1487.04,1521.97 1484.14,1520.27 1480.24,1519.87 C1479.64,1519.77 1479.14,1519.77 1478.54,1519.77 C1475.04,1519.77 1471.24,1520.77 1467.74,1522.67 C1461.14,1526.27 1457.04,1532.17 1457.04,1537.27 C1457.04,1538.67 1457.24,1539.97 1457.94,1541.17 C1459.44,1543.87 1462.44,1545.57 1466.34,1545.97 C1466.94,1546.07 1467.44,1546.07 1468.04,1546.07 C1471.54,1546.07 1475.24,1545.07 1478.74,1543.17 C1485.34,1539.57 1489.54,1533.77 1489.54,1528.67 C1489.54,1527.27 1489.24,1525.87 1488.54,1524.67"/>
<path class="Note" d="M1663.65,1537.17 C1662.15,1534.47 1659.25,1532.77 1655.35,1532.37 C1654.75,1532.27 1654.25,1532.27 1653.65,1532.27 C1650.15,1532.27 1646.35,1533.27 1642.85,1535.17 C1636.25,1538.77 1632.15,1544.67 1632.15,1549.77 C1632.15,1551.17 1632.35,1552.47 1633.05,1553.67 C1634.55,1556.37 1637.55,1558.07 1641.45,1558.47 C1642.05,1558.57 1642.55,1558.57 1643.15,1558.57 C1646.65,1558.57 1650.35,1557.57 1653.85,1555.67 C1660.45,1552.07 1664.65,1546.27 1664.65,1541.17 C1664.65,1539.77 1664.35,1538.37 1663.65,1537.17"/>
<path class="Note" d="M1801.77,1549.67 C1800.27,1546.97 1797.37,1545.27 1793.47,1544.87 C1792.87,1544.77 1792.37,1544.77 1791.77,1544.77 C1788.27,1544.77 1784.47,1545.77 1780.97,1547.67 C1774.37,1551.27 1770.27,1557.17 1770.27,1562.27 C1770.27,1563.67 1770.47,1564.97 1771.17,1566.17 C1772.67,1568.87 1775.67,1570.57 1779.57,1570.97 C1780.17,1571.07 1780.67,1571.07 1781.27,1571.07 C1784.77,1571.07 1788.47,1570.07 1791.97,1568.17 C1798.57,1564.57 1802.77,1558.77 1802.77,1553.67 C1802.77,1552.27 1802.47,1550.87 1801.77,1549.67"/>
<path class="Note" d="M1939.89,1562.18 C1938.39,1559.48 1935.49,1557.78 1931.59,1557.38 C1930.99,1557.28 1930.49,1557.28 1929.89,1557.28 C1926.39,1557.28 1922.59,1558.28 1919.09,1560.18 C1912.49,1563.78 1908.39,1569.68 1908.39,1574.78 C1908.39,1576.18 1908.59,1577.48 1909.29,1578.68 C1910.79,1581.38 1913.79,1583.08 1917.69,1583.48 C1918.29,1583.58 1918.79,1583.58 1919.39,1583.58 C1922.89,1583.58 1926.59,1582.58 1930.09,1580.68 C1936.69,1577.08 1940.89,1571.28 1940.89,1566.18 C1940.89,1564.78 1940.59,1563.38 1939.89,1562.18"/>
<path class="Note" d="M2078,1574.68 C2076.5,1571.98 2073.6,1570.28 2069.7,1569.88 C2069.1,1569.78 2068.6,1569.78 2068,1569.78 C2064.5,1569.78 2060.7,1570.78 2057.2,1572.68 C2050.6,1576.28 2046.5,1582.18 2046.5,1587.28 C2046.5,1588.68 2046.7,1589.98 2047.4,1591.18 C2048.9,1593.88 2051.9,1595.58 2055.8,1595.98 C2056.4,1596.08 2056.9,1596.08 2057.5,1596.08 C2061,1596.08 2064.7,1595.08 2068.2,1593.18 C2074.8,1589.58 2079,1583.78 2079,1578.68 C2079,1577.28 2078.7,1575.88 2078,1574.68"/>
<path class="Note" d="M2261.87,1587.18 C2260.37,1584.48 2257.47,1582.78 2253.57,1582.38 C2252.97,1582.28 2252.47,1582.28 2251.87,1582.28 C2248.37,1582.28 2244.57,1583.28 2241.07,1585.18 C2234.47,1588.78 2230.37,1594.68 2230.37,1599.78 C2230.37,1601.18 2230.57,1602.48 2231.27,1603.68 C2232.77,1606.38 2235.77,1608.08 2239.67,1608.48 C2240.27,1608.58 2240.77,1608.58 2241.37,1608.58 C2244.87,1608.58 2248.57,1607.58 2252.07,1605.68 C2258.67,1602.08 2262.87,1596.28 2262.87,1591.18 C2262.87,1589.78 2262.57,1588.38 2261.87,1587.18"/>
<path class="Note" d="M2432.07,1599.68 C2430.57,1596.98 2427.67,1595.28 2423.77,1594.88 C2423.17,1594.78 2422.67,1594.78 2422.07,1594.78 C2418.57,1594.78 2414.77,1595.78 2411.27,1597.68 C2404.67,1601.28 2400.57,1607.08 2400.57,1612.18 C2400.57,1613.58 2400.97,1614.98 2401.67,1616.18 C2403.17,1618.98 2405.97,1620.58 2409.87,1620.98 C2410.47,1621.08 2410.97,1621.08 2411.57,1621.08 C2415.07,1621.08 2418.87,1620.08 2422.37,1618.18 C2428.97,1614.58 2433.07,1608.68 2433.07,1603.58 C2433.07,1602.18 2432.77,1600.88 2432.07,1599.68 M2427.87,1605.98 C2426.17,1607.78 2422.97,1610.08 2419.37,1612.18 C2415.77,1614.28 2412.07,1615.98 2409.77,1616.68 C2409.27,1616.78 2408.67,1616.88 2408.17,1616.88 C2406.67,1616.88 2405.37,1616.18 2404.67,1615.08 C2404.37,1614.48 2404.17,1613.88 2404.17,1613.28 C2404.17,1612.18 2404.67,1611.08 2405.77,1609.88 C2407.47,1608.08 2410.67,1605.68 2414.27,1603.58 C2417.87,1601.48 2421.57,1599.78 2423.97,1599.18 L2424.17,1599.18 C2424.77,1598.98 2425.27,1598.88 2425.77,1598.88 C2427.17,1598.88 2428.27,1599.48 2428.97,1600.78 C2429.27,1601.38 2429.47,1601.88 2429.47,1602.48 C2429.47,1603.78 2428.77,1605.08 2427.87,1605.98"/>
<path class="Note" d="M495.253,787.127 C493.753,784.427 490.853,782.727 486.953,782.327 C486.353,782.227 485.853,782.227 485.253,782.227 C481.753,782.227 477.953,783.227 474.453,785.127 C467.853,788.727 463.753,794.627 463.753,799.727 C463.753,801.127 463.953,802.427 464.653,803.627 C466.153,806.327 469.153,808.027 473.053,808.427 C473.653,808.527 474.153,808.527 474.753,808.527 C478.253,808.527 481.953,807.527 485.453,805.627 C492.053,802.027 496.253,796.227 496.253,791.127 C496.253,789.727 495.953,788.327 495.253,787.127"/>
<path class="Note" d="M636.482,774.626 C634.982,771.926 632.082,770.226 628.182,769.826 C627.582,769.726 627.082,769.726 626.482,769.726 C622.982,769.726 619.182,770.726 615.682,772.626 C609.082,776.226 604.982,782.126 604.982,787.226 C604.982,788.626 605.182,789.926 605.882,791.126 C607.382,793.826 610.382,795.526 614.282,795.926 C614.882,796.026 615.382,796.026 615.982,796.026 C619.482,796.026 623.182,795.026 626.682,793.126 C633.282,789.526 637.482,783.726 637.482,778.626 C637.482,777.226 637.182,775.826 636.482,774.626"/>
<path class="Note" d="M777.712,762.125 C776.212,759.425 773.312,757.725 769.412,757.325 C768.812,757.225 768.312,757.225 767.712,757.225 C764.212,757.225 760.412,758.225 756.912,760.125 C750.312,763.725 746.212,769.625 746.212,774.725 C746.212,776.125 746.412,777.425 747.112,778.625 C748.612,781.325 751.612,783.025 755.512,783.425 C756.112,783.525 756.612,783.525 757.212,783.525 C760.712,783.525 764.412,782.525 767.912,780.625 C774.512,777.025 778.712,771.225 778.712,766.125 C778.712,764.725 778.412,763.325 777.712,762.125"/>
<path class="Note" d="M918.941,749.624 C917.441,746.924 914.541,745.224 910.641,744.824 C910.041,744.724 909.541,744.724 908.941,744.724 C905.441,744.724 901.641,745.724 898.141,747.624 C891.541,751.224 887.441,757.124 887.441,762.224 C887.441,763.624 887.641,764.924 888.341,766.124 C889.841,768.824 892.841,770.524 896.741,770.924 C897.341,771.024 897.841,771.024 898.441,771.024 C901.941,771.024 905.641,770.024 909.141,768.124 C915.741,764.524 919.941,758.724 919.941,753.624 C919.941,752.224 919.641,750.824 918.941,749.624"/>
<path class="Note" d="M1097.17,737.124 C1095.67,734.424 1092.77,732.724 1088.87,732.324 C1088.27,732.224 1087.77,732.224 1087.17,732.224 C1083.67,732.224 1079.87,733.224 1076.37,735.124 C1069.77,738.724 1065.67,744.624 1065.67,749.724 C1065.67,751.124 1065.87,752.424 1066.57,753.624 C1068.07,756.324 1071.07,758.024 1074.97,758.424 C1075.57,758.524 1076.07,758.524 1076.67,758.524 C1080.17,758.524 1083.87,757.524 1087.37,755.624 C1093.97,752.024 1098.17,746.224 1098.17,741.124 C1098.17,739.724 1097.87,738.324 1097.17,737.124"/>
<path class="Note" d="M1225.28,724.623 C1223.78,721.923 1220.88,720.223 1216.98,719.823 C1216.38,719.723 1215.88,719.723 1215.28,719.723 C1211.78,719.723 1207.98,720.723 1204.48,722.623 C1197.88,726.223 1193.78,732.123 1193.78,737.223 C1193.78,738.623 1193.98,739.923 1194.68,741.123 C1196.18,743.823 1199.18,745.523 1203.08,745.923 C1203.68,746.023 1204.18,746.023 1204.78,746.023 C1208.28,746.023 1211.98,745.023 1215.48,743.123 C1222.08,739.523 1226.28,733.723 1226.28,728.623 C1226.28,727.223 1225.98,725.823 1225.28,724.623"/>
<path class="Note" d="M1353.38,712.122 C1351.88,709.422 1348.98,707.722 1345.08,707.322 C1344.48,707.222 1343.98,707.222 1343.38,707.222 C1339.88,707.222 1336.08,708.222 1332.58,710.122 C1325.98,713.722 1321.88,719.622 1321.88,724.722 C1321.88,726.122 1322.08,727.422 1322.78,728.622 C1324.28,731.322 1327.28,733.022 1331.18,733.422 C1331.78,733.522 1332.28,733.522 1332.88,733.522 C1336.38,733.522 1340.08,732.522 1343.58,730.622 C1350.18,727.022 1354.38,721.222 1354.38,716.122 C1354.38,714.722 1354.08,713.322 1353.38,712.122"/>
<path class="Note" d="M1481.48,699.621 C1479.98,696.921 1477.08,695.221 1473.18,694.821 C1472.58,694.721 1472.08,694.721 1471.48,694.721 C1467.98,694.721 1464.18,695.721 1460.68,697.621 C1454.08,701.221 1449.98,707.121 1449.98,712.221 C1449.98,713.621 1450.18,714.921 1450.88,716.121 C1452.38,718.821 1455.38,720.521 1459.28,720.921 C1459.88,721.021 1460.38,721.021 1460.98,721.021 C1464.48,721.021 1468.18,720.021 1471.68,718.121 C1478.28,714.521 1482.48,708.721 1482.48,703.621 C1482.48,702.221 1482.18,700.821 1481.48,699.621"/>
<path class="Note" d="M1646.59,687.12 C1645.09,684.42 1642.19,682.72 1638.29,682.32 C1637.69,682.22 1637.19,682.22 1636.59,682.22 C1633.09,682.22 1629.29,683.22 1625.79,685.12 C1619.19,688.72 1615.09,694.62 1615.09,699.72 C1615.09,701.12 1615.29,702.42 1615.99,703.62 C1617.49,706.32 1620.49,708.02 1624.39,708.42 C1624.99,708.52 1625.49,708.52 1626.09,708.52 C1629.59,708.52 1633.29,707.52 1636.79,705.62 C1643.39,702.02 1647.59,696.22 1647.59,691.12 C1647.59,689.72 1647.29,688.32 1646.59,687.12"/>
<path class="Note" d="M1787.82,674.62 C1786.32,671.92 1783.42,670.22 1779.52,669.82 C1778.92,669.72 1778.42,669.72 1777.82,669.72 C1774.32,669.72 1770.52,670.72 1767.02,672.62 C1760.42,676.22 1756.32,682.12 1756.32,687.22 C1756.32,688.62 1756.52,689.92 1757.22,691.12 C1758.72,693.82 1761.72,695.52 1765.62,695.92 C1766.22,696.02 1766.72,696.02 1767.32,696.02 C1770.82,696.02 1774.52,695.02 1778.02,693.12 C1784.62,689.52 1788.82,683.72 1788.82,678.62 C1788.82,677.22 1788.52,675.82 1787.82,674.62"/>
<path class="Note" d="M1929.05,662.119 C1927.55,659.419 1924.65,657.719 1920.75,657.319 C1920.15,657.219 1919.65,657.219 1919.05,657.219 C1915.55,657.219 1911.75,658.219 1908.25,660.119 C1901.65,663.719 1897.55,669.619 1897.55,674.719 C1897.55,676.119 1897.75,677.419 1898.45,678.619 C1899.95,681.319 1902.95,683.019 1906.85,683.419 C1907.45,683.519 1907.95,683.519 1908.55,683.519 C1912.05,683.519 1915.75,682.519 1919.25,680.619 C1925.85,677.019 1930.05,671.219 1930.05,666.119 C1930.05,664.719 1929.75,663.319 1929.05,662.119"/>
<path class="Note" d="M2070.28,649.618 C2068.78,646.918 2065.88,645.218 2061.98,644.818 C2061.38,644.718 2060.88,644.718 2060.28,644.718 C2056.78,644.718 2052.98,645.718 2049.48,647.618 C2042.88,651.218 2038.78,657.118 2038.78,662.218 C2038.78,663.618 2038.98,664.918 2039.68,666.118 C2041.18,668.818 2044.18,670.518 2048.08,670.918 C2048.68,671.018 2049.18,671.018 2049.78,671.018 C2053.28,671.018 2056.98,670.018 2060.48,668.118 C2067.08,664.518 2071.28,658.718 2071.28,653.618 C2071.28,652.218 2070.98,650.818 2070.28,649.618"/>
<path class="Note" d="M2312.21,637.117 C2310.71,634.417 2307.81,632.717 2303.91,632.317 C2303.31,632.217 2302.81,632.217 2302.21,632.217 C2298.71,632.217 2294.91,633.217 2291.41,635.117 C2284.81,638.717 2280.71,644.617 2280.71,649.717 C2280.71,651.117 2280.91,652.417 2281.61,653.617 C2283.11,656.317 2286.11,658.017 2290.01,658.417 C2290.61,658.517 2291.11,658.517 2291.71,658.517 C2295.21,658.517 2298.91,657.517 2302.41,655.617 C2309.01,652.017 2313.21,646.217 2313.21,641.117 C2313.21,639.717 2312.91,638.317 2312.21,637.117"/>
<path class="Note" d="M2445.38,624.616 C2443.88,621.916 2440.98,620.216 2437.08,619.816 C2436.48,619.716 2435.98,619.716 2435.38,619.716 C2431.88,619.716 2428.08,620.716 2424.58,622.616 C2417.98,626.216 2413.88,632.116 2413.88,637.216 C2413.88,638.616 2414.08,639.916 2414.78,641.116 C2416.28,643.816 2419.28,645.516 2423.18,645.916 C2423.78,646.016 2424.28,646.016 2424.88,646.016 C2428.38,646.016 2432.08,645.016 2435.58,643.116 C2442.18,639.516 2446.38,633.716 2446.38,628.616 C2446.38,627.216 2446.08,625.816 2445.38,624.616"/>
<path class="Note" d="M2578.55,612.116 C2577.05,609.416 2574.15,607.716 2570.25,607.316 C2569.65,607.216 2569.15,607.216 2568.55,607.216 C2565.05,607.216 2561.25,608.216 2557.75,610.116 C2551.15,613.716 2547.05,619.516 2547.05,624.616 C2547.05,626.016 2547.45,627.416 2548.15,628.616 C2549.65,631.416 2552.45,633.016 2556.35,633.416 C2556.95,633.516 2557.45,633.516 2558.05,633.516 C2561.55,633.516 2565.35,632.516 2568.85,630.616 C2575.45,627.016 2579.55,621.116 2579.55,616.016 C2579.55,614.616 2579.25,613.316 2578.55,612.116 M2574.35,618.416 C2572.65,620.216 2569.45,622.516 2565.85,624.616 C2562.25,626.716 2558.55,628.416 2556.25,629.116 C2555.75,629.216 2555.15,629.316 2554.65,629.316 C2553.15,629.316 2551.85,628.616 2551.15,627.516 C2550.85,626.916 2550.65,626.316 2550.65,625.716 C2550.65,624.616 2551.15,623.516 2552.25,622.316 C2553.95,620.516 2557.15,618.116 2560.75,616.016 C2564.35,613.916 2568.05,612.216 2570.45,611.616 L2570.65,611.616 C2571.25,611.416 2571.75,611.316 2572.25,611.316 C2573.65,611.316 2574.75,611.916 2575.45,613.216 C2575.75,613.816 2575.95,614.316 2575.95,614.916 C2575.95,616.216 2575.25,617.516 2574.35,618.416"/>
<path class="Note" d="M429.6,1237.16 C428.1,1234.46 425.2,1232.76 421.3,1232.36 C420.7,1232.26 420.2,1232.26 419.6,1232.26 C416.1,1232.26 412.3,1233.26 408.8,1235.16 C402.2,1238.76 398.1,1244.66 398.1,1249.76 C398.1,1251.16 398.3,1252.46 399,1253.66 C400.5,1256.36 403.5,1258.06 407.4,1258.46 C408,1258.56 408.5,1258.56 409.1,1258.56 C412.6,1258.56 416.3,1257.56 419.8,1255.66 C426.4,1252.06 430.6,1246.26 430.6,1241.16 C430.6,1239.76 430.3,1238.36 429.6,1237.16"/>
<path class="Note" d="M565.091,1249.66 C563.591,1246.96 560.691,1245.26 556.791,1244.86 C556.191,1244.76 555.691,1244.76 555.091,1244.76 C551.591,1244.76 547.791,1245.76 544.291,1247.66 C537.691,1251.26 533.591,1257.16 533.591,1262.26 C533.591,1263.66 533.791,1264.96 534.491,1266.16 C535.991,1268.86 538.991,1270.56 542.891,1270.96 C543.491,1271.06 543.991,1271.06 544.591,1271.06 C548.091,1271.06 551.791,1270.06 555.291,1268.16 C561.891,1264.56 566.091,1258.76 566.091,1253.66 C566.091,1252.26 565.791,1250.86 565.091,1249.66"/>
<path class="Note" d="M700.582,1262.16 C699.082,1259.46 696.182,1257.76 692.282,1257.36 C691.682,1257.26 691.182,1257.26 690.582,1257.26 C687.082,1257.26 683.282,1258.26 679.782,1260.16 C673.182,1263.76 669.082,1269.66 669.082,1274.76 C669.082,1276.16 669.282,1277.46 669.982,1278.66 C671.482,1281.36 674.482,1283.06 678.382,1283.46 C678.982,1283.56 679.482,1283.56 680.082,1283.56 C683.582,1283.56 687.282,1282.56 690.782,1280.66 C697.382,1277.06 701.582,1271.26 701.582,1266.16 C701.582,1264.76 701.282,1263.36 700.582,1262.16"/>
<path class="Note" d="M836.073,1274.66 C834.573,1271.96 831.673,1270.26 827.773,1269.86 C827.173,1269.76 826.673,1269.76 826.073,1269.76 C822.573,1269.76 818.773,1270.76 815.273,1272.66 C808.673,1276.26 804.573,1282.16 804.573,1287.26 C804.573,1288.66 804.773,1289.96 805.473,1291.16 C806.973,1293.86 809.973,1295.56 813.873,1295.96 C814.473,1296.06 814.973,1296.06 815.573,1296.06 C819.073,1296.06 822.773,1295.06 826.273,1293.16 C832.873,1289.56 837.073,1283.76 837.073,1278.66 C837.073,1277.26 836.773,1275.86 836.073,1274.66"/>
<path class="Note" d="M1074.19,1287.16 C1072.69,1284.46 1069.79,1282.76 1065.89,1282.36 C1065.29,1282.26 1064.79,1282.26 1064.19,1282.26 C1060.69,1282.26 1056.89,1283.26 1053.39,1285.16 C1046.79,1288.76 1042.69,1294.66 1042.69,1299.76 C1042.69,1301.16 1042.89,1302.46 1043.59,1303.66 C1045.09,1306.36 1048.09,1308.06 1051.99,1308.46 C1052.59,1308.56 1053.09,1308.56 1053.69,1308.56 C1057.19,1308.56 1060.89,1307.56 1064.39,1305.66 C1070.99,1302.06 1075.19,1296.26 1075.19,1291.16 C1075.19,1289.76 1074.89,1288.36 1074.19,1287.16"/>
<path class="Note" d="M1212.3,1299.66 C1210.8,1296.96 1207.9,1295.26 1204,1294.86 C1203.4,1294.76 1202.9,1294.76 1202.3,1294.76 C1198.8,1294.76 1195,1295.76 1191.5,1297.66 C1184.9,1301.26 1180.8,1307.16 1180.8,1312.26 C1180.8,1313.66 1181,1314.96 1181.7,1316.16 C1183.2,1318.86 1186.2,1320.56 1190.1,1320.96 C1190.7,1321.06 1191.2,1321.06 1191.8,1321.06 C1195.3,1321.06 1199,1320.06 1202.5,1318.16 C1209.1,1314.56 1213.3,1308.76 1213.3,1303.66 C1213.3,1302.26 1213,1300.86 1212.3,1299.66"/>
<path class="Note" d="M1350.42,1312.16 C1348.92,1309.46 1346.02,1307.76 1342.12,1307.36 C1341.52,1307.26 1341.02,1307.26 1340.42,1307.26 C1336.92,1307.26 1333.12,1308.26 1329.62,1310.16 C1323.02,1313.76 1318.92,1319.66 1318.92,1324.76 C1318.92,1326.16 1319.12,1327.46 1319.82,1328.66 C1321.32,1331.36 1324.32,1333.06 1328.22,1333.46 C1328.82,1333.56 1329.32,1333.56 1329.92,1333.56 C1333.42,1333.56 1337.12,1332.56 1340.62,1330.66 C1347.22,1327.06 1351.42,1321.26 1351.42,1316.16 C1351.42,1314.76 1351.12,1313.36 1350.42,1312.16"/>
<path class="Note" d="M1488.54,1324.66 C1487.04,1321.96 1484.14,1320.26 1480.24,1319.86 C1479.64,1319.76 1479.14,1319.76 1478.54,1319.76 C1475.04,1319.76 1471.24,1320.76 1467.74,1322.66 C1461.14,1326.26 1457.04,1332.16 1457.04,1337.26 C1457.04,1338.66 1457.24,1339.96 1457.94,1341.16 C1459.44,1343.86 1462.44,1345.56 1466.34,1345.96 C1466.94,1346.06 1467.44,1346.06 1468.04,1346.06 C1471.54,1346.06 1475.24,1345.06 1478.74,1343.16 C1485.34,1339.56 1489.54,1333.76 1489.54,1328.66 C1489.54,1327.26 1489.24,1325.86 1488.54,1324.66"/>
<path class="Note" d="M1663.65,1337.16 C1662.15,1334.46 1659.25,1332.76 1655.35,1332.36 C1654.75,1332.26 1654.25,1332.26 1653.65,1332.26 C1650.15,1332.26 1646.35,1333.26 1642.85,1335.16 C1636.25,1338.76 1632.15,1344.66 1632.15,1349.76 C1632.15,1351.16 1632.35,1352.46 1633.05,1353.66 C1634.55,1356.36 1637.55,1358.06 1641.45,1358.46 C1642.05,1358.56 1642.55,1358.56 1643.15,1358.56 C1646.65,1358.56 1650.35,1357.56 1653.85,1355.66 C1660.45,1352.06 1664.65,1346.26 1664.65,1341.16 C1664.65,1339.76 1664.35,1338.36 1663.65,1337.16"/>
<path class="Note" d="M1801.77,1349.66 C1800.27,1346.96 1797.37,1345.26 1793.47,1344.86 C1792.87,1344.76 1792.37,1344.76 1791.77,1344.76 C1788.27,1344.76 1784.47,1345.76 1780.97,1347.66 C1774.37,1351.26 1770.27,1357.16 1770.27,1362.26 C1770.27,1363.66 1770.47,1364.96 1771.17,1366.16 C1772.67,1368.86 1775.67,1370.56 1779.57,1370.96 C1780.17,1371.06 1780.67,1371.06 1781.27,1371.06 C1784.77,1371.06 1788.47,1370.06 1791.97,1368.16 C1798.57,1364.56 1802.77,1358.76 1802.77,1353.66 C1802.77,1352.26 1802.47,1350.86 1801.77,1349.66"/>
<path class="Note" d="M1939.89,1362.16 C1938.39,1359.46 1935.49,1357.76 1931.59,1357.36 C1930.99,1357.26 1930.49,1357.26 1929.89,1357.26 C1926.39,1357.26 1922.59,1358.26 1919.09,1360.16 C1912.49,1363.76 1908.39,1369.66 1908.39,1374.76 C1908.39,1376.16 1908.59,1377.46 1909.29,1378.66 C1910.79,1381.36 1913.79,1383.06 1917.69,1383.46 C1918.29,1383.56 1918.79,1383.56 1919.39,1383.56 C1922.89,1383.56 1926.59,1382.56 1930.09,1380.66 C1936.69,1377.06 1940.89,1371.26 1940.89,1366.16 C1940.89,1364.76 1940.59,1363.36 1939.89,1362.16"/>
<path class="Note" d="M2078,1374.66 C2076.5,1371.96 2073.6,1370.26 2069.7,1369.86 C2069.1,1369.76 2068.6,1369.76 2068,1369.76 C2064.5,1369.76 2060.7,1370.76 2057.2,1372.66 C2050.6,1376.26 2046.5,1382.16 2046.5,1387.26 C2046.5,1388.66 2046.7,1389.96 2047.4,1391.16 C2048.9,1393.86 2051.9,1395.56 2055.8,1395.96 C2056.4,1396.06 2056.9,1396.06 2057.5,1396.06 C2061,1396.06 2064.7,1395.06 2068.2,1393.16 C2074.8,1389.56 2079,1383.76 2079,1378.66 C2079,1377.26 2078.7,1375.86 2078,1374.66"/>
<path class="Note" d="M2261.87,1387.16 C2260.37,1384.46 2257.47,1382.76 2253.57,1382.36 C2252.97,1382.26 2252.47,1382.26 2251.87,1382.26 C2248.37,1382.26 2244.57,1383.26 2241.07,1385.16 C2234.47,1388.76 2230.37,1394.66 2230.37,1399.76 C2230.37,1401.16 2230.57,1402.46 2231.27,1403.66 C2232.77,1406.36 2235.77,1408.06 2239.67,1408.46 C2240.27,1408.56 2240.77,1408.56 2241.37,1408.56 C2244.87,1408.56 2248.57,1407.56 2252.07,1405.66 C2258.67,1402.06 2262.87,1396.26 2262.87,1391.16 C2262.87,1389.76 2262.57,1388.36 2261.87,1387.16"/>
<path class="Note" d="M2432.07,1399.67 C2430.57,1396.97 2427.67,1395.27 2423.77,1394.87 C2423.17,1394.77 2422.67,1394.77 2422.07,1394.77 C2418.57,1394.77 2414.77,1395.77 2411.27,1397.67 C2404.67,1401.27 2400.57,1407.07 2400.57,1412.17 C2400.57,1413.57 2400.97,1414.97 2401.67,1416.17 C2403.17,1418.97 2405.97,1420.57 2409.87,1420.97 C2410.47,1421.07 2410.97,1421.07 2411.57,1421.07 C2415.07,1421.07 2418.87,1420.07 2422.37,1418.17 C2428.97,1414.57 2433.07,1408.67 2433.07,1403.57 C2433.07,1402.17 2432.77,1400.87 2432.07,1399.67 M2427.87,1405.97 C2426.17,1407.77 2422.97,1410.07 2419.37,1412.17 C2415.77,1414.27 2412.07,1415.97 2409.77,1416.67 C2409.27,1416.77 2408.67,1416.87 2408.17,1416.87 C2406.67,1416.87 2405.37,1416.17 2404.67,1415.07 C2404.37,1414.47 2404.17,1413.87 2404.17,1413.27 C2404.17,1412.17 2404.67,1411.07 2405.77,1409.87 C2407.47,1408.07 2410.67,1405.67 2414.27,1403.57 C2417.87,1401.47 2421.57,1399.77 2423.97,1399.17 L2424.17,1399.17 C2424.77,1398.97 2425.27,1398.87 2425.77,1398.87 C2427.17,1398.87 2428.27,1399.47 2428.97,1400.77 C2429.27,1401.37 2429.47,1401.87 2429.47,1402.47 C2429.47,1403.77 2428.77,1405.07 2427.87,1405.97"/>
<path class="Clef" d="M297,907.735 C289.4,907.735 283.3,912.135 283.2,912.135 C277.4,916.435 275.1,921.535 274.2,925.035 C273.7,926.835 273.5,928.635 273.5,930.335 C273.5,932.735 273.9,934.935 274.8,936.835 C276,939.535 278.3,941.435 281.3,942.435 C282.5,942.835 283.8,943.035 285.1,943.035 C287.3,943.035 289.6,942.435 291.5,941.335 C294.6,939.635 296.5,936.035 296.5,932.135 C296.5,928.635 294.7,925.435 291.7,923.535 C289.6,922.135 287.6,921.735 285.9,921.735 C284.7,921.735 283.6,921.935 282.7,922.235 C281.7,922.635 280,923.635 279.2,924.335 C279.5,922.435 280.7,919.535 281.8,917.935 C282.9,916.335 285.1,914.335 286.8,913.435 C289.3,912.035 292.5,911.435 296,911.435 C306.2,911.435 311.2,919.635 311.2,936.435 C311.2,945.735 307.7,954.635 304.7,960.535 C301.4,967.135 297,973.435 293.1,976.935 C282.7,986.435 272.9,990.935 272.8,990.935 C272.8,990.935 271.3,991.835 271.7,993.335 C272,994.335 272.9,994.535 273.5,994.535 C273.6,994.535 273.9,994.435 274,994.435 C274.1,994.435 285.5,989.735 294.6,982.635 C299.7,978.935 304.3,974.935 308.3,970.635 C311.9,966.735 315,962.535 317.5,958.335 C321.9,950.835 324.4,943.035 324.4,936.335 C324.4,928.035 322.2,921.135 318.1,916.235 C313.4,910.635 306.3,907.735 297,907.735 M328.4,920.435 C328.4,923.235 330.6,925.435 333.2,925.435 C335.8,925.435 338,923.235 338,920.435 C338,917.635 335.8,915.335 333.2,915.335 C330.6,915.335 328.4,917.635 328.4,920.435 M328.4,945.135 C328.4,947.935 330.6,950.235 333.2,950.235 C335.8,950.235 338,947.935 338,945.135 C338,942.335 335.8,940.035 333.2,940.035 C330.6,940.035 328.4,942.335 328.4,945.135"/>
<path class="Clef" transform="matrix(0.80005,0,0,0.80005,2204.51,982.839)" d="M63.4,-5.9 C62.2,-11.3 59.5,-15.2 58.7,-16.2 C55.5,-20.5 51.5,-23.3 46.8,-24.7 C44.5,-25.4 42.4,-25.6 40.4,-25.6 C39.7,-25.6 39,-25.6 38.3,-25.5 C37.3,-31.5 36.2,-37.4 35.3,-42.8 C40.9,-49 44.6,-54.9 47,-59.3 C50.6,-66 52,-70.7 52.1,-70.9 C53.3,-73.9 54,-77.7 54,-82.2 C54,-84.9 53.7,-87.8 53.3,-90.8 C52.2,-97.9 50,-104.6 47.5,-108.3 C46.2,-110.2 45,-111.3 43.8,-111.3 C42.6,-111.3 40.1,-110.1 37.2,-107.3 C34.9,-105.1 31.6,-101.2 29,-95.2 C26.7,-89.8 26,-82.9 26,-77 C26,-75.2 26.1,-73.5 26.2,-71.9 C26.4,-68.3 27.1,-62.5 27.7,-58.9 C27.7,-58.8 28,-57.3 28.4,-54.7 L27.7,-54 C26.7,-53 25.5,-51.9 24.1,-50.5 C23.2,-49.6 22.3,-48.8 21.3,-47.8 C12.8,-39.6 0,-27.2 0,-8.1 C0,-3.4 0.9,1 2.7,5 C4.3,8.6 6.6,11.9 9.5,14.8 C17,22.2 27.2,25.4 34.3,25.4 L34.9,25.4 C37.8,25.3 40.5,25 42.9,24.6 C44.7,34.2 45.9,41.3 45.9,46.6 C45.9,53.1 44.3,57 40.4,59.8 C38,61.5 35.1,62.6 32,62.7 L31.2,62.7 C29.7,62.7 27.2,62.3 25.7,61.9 C25.7,61.9 25.4,61.8 25.4,61.6 C25.4,61.4 25.8,61.4 25.8,61.4 C27.7,61 31.3,59.7 33.7,56.4 C34.8,54.9 35.5,52.6 35.5,50.1 C35.5,48.5 35.2,46.8 34.5,45.3 C33.4,42.9 30.8,39.9 25.2,39.5 L24.1,39.5 C22,39.5 20.2,40 18.5,41 C16.7,42.1 15.1,43.8 14.1,45.8 C13,47.8 12.5,50 12.5,52.2 C12.5,55.1 13.4,57.8 15.2,60 C18.2,63.6 22.9,65.9 28.3,66.5 C29,66.6 30.1,66.7 30.8,66.7 C35.2,66.7 39.6,65.5 43.2,63.3 C46.9,60.7 49,56.7 49.7,51.1 C49.9,49.8 49.9,48.4 49.9,46.9 C49.9,43 49.4,38.3 48.4,32.5 C48,30.4 47.6,27.4 46.9,23.6 C52.7,21.7 56.8,18 60.6,12.2 C62.9,8.2 64,4.1 64,-0.2 C64,-2.1 63.8,-4 63.4,-5.9 M33.2,-83.8 C35,-89.5 37.7,-92.9 39.7,-94.6 C41.5,-96.1 43.1,-96.8 44,-96.8 C44.1,-96.8 44.3,-96.7 44.4,-96.7 C44.7,-96.6 45.1,-96.1 45.5,-95.4 C46.4,-93.6 47.3,-90.3 47.3,-86.6 C47.3,-84.7 47.1,-82.7 46.5,-80.9 C44.3,-74.1 39.7,-66.8 32.7,-59.1 C32.5,-60.2 32.3,-61.2 32.2,-62.2 C31.7,-65.4 31.4,-68.6 31.4,-71.5 C31.4,-76 32,-80.1 33.2,-83.8 M29.2,20.3 C24.6,19.1 20.1,16.6 16.3,13.1 C15,11.9 13.2,9.7 11.7,6.3 C10.4,3.3 9.7,0.2 9.7,-3.2 L9.7,-3.9 C9.8,-8.6 11.1,-13.4 13.6,-18.2 C16.5,-23.8 21,-29.3 27.1,-34.6 C28.6,-35.9 30,-37.2 31.3,-38.5 C32.1,-34.2 32.8,-29.5 33.7,-24.6 C29.8,-23.3 25.1,-20.3 22,-14.6 C19.6,-10.1 18.9,-6.2 18.9,-3 C18.9,-1.5 19.1,-0.1 19.3,1 C20.2,5.5 22.8,9.2 26.3,11.3 C27.1,11.8 30.4,13.5 32.4,13.5 C32.7,13.5 33,13.5 33.2,13.4 C33.5,13.3 33.8,13.1 33.9,12.8 C34,12.6 34,12.4 34,12.2 C34,11.4 33.2,10.8 31.9,10 C31.3,9.6 30.6,9.2 29.9,8.7 C27.3,6.7 25.8,3.6 25.8,0.2 C25.8,-0.8 26,-1.7 26.2,-2.7 C26.7,-4.7 28.4,-7.5 29.9,-8.9 C31.6,-10.4 33.6,-11.6 36,-12.2 C38,-1 40.1,10.1 41.7,18.5 C41.8,19.2 42,19.9 42.1,20.6 C40.1,21 38.1,21.2 36.2,21.2 C33.8,21.2 31.5,20.9 29.2,20.3 M54.9,10.1 C53.7,13.3 51.2,17.3 46.1,19.4 C46,19 46,18.5 45.9,18.1 C44.4,9.3 42.5,-1.6 40.5,-12.9 L41.5,-12.9 C51.2,-12.9 55.1,-5.7 56,-1.1 C56.2,-0.2 56.3,1 56.3,2.3 C56.3,4.6 55.9,7.4 54.9,10.1"/>
<path class="Clef" d="M335,1589.48 C333.8,1584.08 331.1,1580.18 330.3,1579.18 C327.1,1574.88 323.1,1572.08 318.4,1570.68 C316.1,1569.98 314,1569.78 312,1569.78 C311.3,1569.78 310.6,1569.78 309.9,1569.88 C308.9,1563.88 307.8,1557.98 306.9,1552.58 C312.5,1546.38 316.2,1540.48 318.6,1536.08 C322.2,1529.38 323.6,1524.68 323.7,1524.48 C324.9,1521.48 325.6,1517.68 325.6,1513.18 C325.6,1510.48 325.3,1507.58 324.9,1504.58 C323.8,1497.48 321.6,1490.78 319.1,1487.08 C317.8,1485.18 316.6,1484.08 315.4,1484.08 C314.2,1484.08 311.7,1485.28 308.8,1488.08 C306.5,1490.28 303.2,1494.18 300.6,1500.18 C298.3,1505.58 297.6,1512.48 297.6,1518.38 C297.6,1520.18 297.7,1521.88 297.8,1523.48 C298,1527.08 298.7,1532.88 299.3,1536.48 C299.3,1536.58 299.6,1538.08 300,1540.68 L299.3,1541.38 C298.3,1542.38 297.1,1543.48 295.7,1544.88 C294.8,1545.78 293.9,1546.58 292.9,1547.58 C284.4,1555.78 271.6,1568.18 271.6,1587.28 C271.6,1591.98 272.5,1596.38 274.3,1600.38 C275.9,1603.98 278.2,1607.28 281.1,1610.18 C288.6,1617.58 298.8,1620.78 305.9,1620.78 L306.5,1620.78 C309.4,1620.68 312.1,1620.38 314.5,1619.98 C316.3,1629.58 317.5,1636.68 317.5,1641.98 C317.5,1648.48 315.9,1652.38 312,1655.18 C309.6,1656.88 306.7,1657.98 303.6,1658.08 L302.8,1658.08 C301.3,1658.08 298.8,1657.68 297.3,1657.28 C297.3,1657.28 297,1657.18 297,1656.98 C297,1656.78 297.4,1656.78 297.4,1656.78 C299.3,1656.38 302.9,1655.08 305.3,1651.78 C306.4,1650.28 307.1,1647.98 307.1,1645.48 C307.1,1643.88 306.8,1642.18 306.1,1640.68 C305,1638.28 302.4,1635.28 296.8,1634.88 L295.7,1634.88 C293.6,1634.88 291.8,1635.38 290.1,1636.38 C288.3,1637.48 286.7,1639.18 285.7,1641.18 C284.6,1643.18 284.1,1645.38 284.1,1647.58 C284.1,1650.48 285,1653.18 286.8,1655.38 C289.8,1658.98 294.5,1661.28 299.9,1661.88 C300.6,1661.98 301.7,1662.08 302.4,1662.08 C306.8,1662.08 311.2,1660.88 314.8,1658.68 C318.5,1656.08 320.6,1652.08 321.3,1646.48 C321.5,1645.18 321.5,1643.78 321.5,1642.28 C321.5,1638.38 321,1633.68 320,1627.88 C319.6,1625.78 319.2,1622.78 318.5,1618.98 C324.3,1617.08 328.4,1613.38 332.2,1607.58 C334.5,1603.58 335.6,1599.48 335.6,1595.18 C335.6,1593.28 335.4,1591.38 335,1589.48 M304.8,1511.58 C306.6,1505.88 309.3,1502.48 311.3,1500.78 C313.1,1499.28 314.7,1498.58 315.6,1498.58 C315.7,1498.58 315.9,1498.68 316,1498.68 C316.3,1498.78 316.7,1499.28 317.1,1499.98 C318,1501.78 318.9,1505.08 318.9,1508.78 C318.9,1510.68 318.7,1512.68 318.1,1514.48 C315.9,1521.28 311.3,1528.58 304.3,1536.28 C304.1,1535.18 303.9,1534.18 303.8,1533.18 C303.3,1529.98 303,1526.78 303,1523.88 C303,1519.38 303.6,1515.28 304.8,1511.58 M300.8,1615.68 C296.2,1614.48 291.7,1611.98 287.9,1608.48 C286.6,1607.28 284.8,1605.08 283.3,1601.68 C282,1598.68 281.3,1595.58 281.3,1592.18 L281.3,1591.48 C281.4,1586.78 282.7,1581.98 285.2,1577.18 C288.1,1571.58 292.6,1566.08 298.7,1560.78 C300.2,1559.48 301.6,1558.18 302.9,1556.88 C303.7,1561.18 304.4,1565.88 305.3,1570.78 C301.4,1572.08 296.7,1575.08 293.6,1580.78 C291.2,1585.28 290.5,1589.18 290.5,1592.38 C290.5,1593.88 290.7,1595.28 290.9,1596.38 C291.8,1600.88 294.4,1604.58 297.9,1606.68 C298.7,1607.18 302,1608.88 304,1608.88 C304.3,1608.88 304.6,1608.88 304.8,1608.78 C305.1,1608.68 305.4,1608.48 305.5,1608.18 C305.6,1607.98 305.6,1607.78 305.6,1607.58 C305.6,1606.78 304.8,1606.18 303.5,1605.38 C302.9,1604.98 302.2,1604.58 301.5,1604.08 C298.9,1602.08 297.4,1598.98 297.4,1595.58 C297.4,1594.58 297.6,1593.68 297.8,1592.68 C298.3,1590.68 300,1587.88 301.5,1586.48 C303.2,1584.98 305.2,1583.78 307.6,1583.18 C309.6,1594.38 311.7,1605.48 313.3,1613.88 C313.4,1614.58 313.6,1615.28 313.7,1615.98 C311.7,1616.38 309.7,1616.58 307.8,1616.58 C305.4,1616.58 303.1,1616.28 300.8,1615.68 M326.5,1605.48 C325.3,1608.68 322.8,1612.68 317.7,1614.78 C317.6,1614.38 317.6,1613.88 317.5,1613.48 C316,1604.68 314.1,1593.78 312.1,1582.48 L313.1,1582.48 C322.8,1582.48 326.7,1589.68 327.6,1594.28 C327.8,1595.18 327.9,1596.38 327.9,1597.68 C327.9,1599.98 327.5,1602.78 326.5,1605.48"/>
<path class="Clef" transform="matrix(0.80005,0,0,0.80005,964.565,1545.37)" d="M25.4,-25.1 C17.8,-25.1 11.7,-20.7 11.6,-20.7 C5.8,-16.4 3.5,-11.3 2.6,-7.8 C2.1,-6 1.9,-4.2 1.9,-2.5 C1.9,-0.1 2.3,2.1 3.2,4 C4.4,6.7 6.7,8.6 9.7,9.6 C10.9,10 12.2,10.2 13.5,10.2 C15.7,10.2 18,9.6 19.9,8.5 C23,6.8 24.9,3.2 24.9,-0.7 C24.9,-4.2 23.1,-7.4 20.1,-9.3 C18,-10.7 16,-11.1 14.3,-11.1 C13.1,-11.1 12,-10.9 11.1,-10.6 C10.1,-10.2 8.4,-9.2 7.6,-8.5 C7.9,-10.4 9.1,-13.3 10.2,-14.9 C11.3,-16.5 13.5,-18.5 15.2,-19.4 C17.7,-20.8 20.9,-21.4 24.4,-21.4 C34.6,-21.4 39.6,-13.2 39.6,3.6 C39.6,12.9 36.1,21.8 33.1,27.7 C29.8,34.3 25.4,40.6 21.5,44.1 C11.1,53.6 1.3,58.1 1.2,58.1 C1.2,58.1 -0.3,59 0.1,60.5 C0.4,61.5 1.3,61.7 1.9,61.7 C2,61.7 2.3,61.6 2.4,61.6 C2.5,61.6 13.9,56.9 23,49.8 C28.1,46.1 32.7,42.1 36.7,37.8 C40.3,33.9 43.4,29.7 45.9,25.5 C50.3,18 52.8,10.2 52.8,3.5 C52.8,-4.8 50.6,-11.7 46.5,-16.6 C41.8,-22.2 34.7,-25.1 25.4,-25.1 M56.8,-12.4 C56.8,-9.6 59,-7.4 61.6,-7.4 C64.2,-7.4 66.4,-9.6 66.4,-12.4 C66.4,-15.2 64.2,-17.5 61.6,-17.5 C59,-17.5 56.8,-15.2 56.8,-12.4 M56.8,12.3 C56.8,15.1 59,17.4 61.6,17.4 C64.2,17.4 66.4,15.1 66.4,12.3 C66.4,9.5 64.2,7.2 61.6,7.2 C59,7.2 56.8,9.5 56.8,12.3"/>
<path class="Clef" d="M335,714.422 C333.8,709.022 331.1,705.122 330.3,704.122 C327.1,699.822 323.1,697.022 318.4,695.622 C316.1,694.922 314,694.722 312,694.722 C311.3,694.722 310.6,694.722 309.9,694.822 C308.9,688.822 307.8,682.922 306.9,677.522 C312.5,671.322 316.2,665.422 318.6,661.022 C322.2,654.322 323.6,649.622 323.7,649.422 C324.9,646.422 325.6,642.622 325.6,638.122 C325.6,635.422 325.3,632.522 324.9,629.522 C323.8,622.422 321.6,615.722 319.1,612.022 C317.8,610.122 316.6,609.022 315.4,609.022 C314.2,609.022 311.7,610.222 308.8,613.022 C306.5,615.222 303.2,619.122 300.6,625.122 C298.3,630.522 297.6,637.422 297.6,643.322 C297.6,645.122 297.7,646.822 297.8,648.422 C298,652.022 298.7,657.822 299.3,661.422 C299.3,661.522 299.6,663.022 300,665.622 L299.3,666.322 C298.3,667.322 297.1,668.422 295.7,669.822 C294.8,670.722 293.9,671.522 292.9,672.522 C284.4,680.722 271.6,693.122 271.6,712.222 C271.6,716.922 272.5,721.322 274.3,725.322 C275.9,728.922 278.2,732.222 281.1,735.122 C288.6,742.522 298.8,745.722 305.9,745.722 L306.5,745.722 C309.4,745.622 312.1,745.322 314.5,744.922 C316.3,754.522 317.5,761.622 317.5,766.922 C317.5,773.422 315.9,777.322 312,780.122 C309.6,781.822 306.7,782.922 303.6,783.022 L302.8,783.022 C301.3,783.022 298.8,782.622 297.3,782.222 C297.3,782.222 297,782.122 297,781.922 C297,781.722 297.4,781.722 297.4,781.722 C299.3,781.322 302.9,780.022 305.3,776.722 C306.4,775.222 307.1,772.922 307.1,770.422 C307.1,768.822 306.8,767.122 306.1,765.622 C305,763.222 302.4,760.222 296.8,759.822 L295.7,759.822 C293.6,759.822 291.8,760.322 290.1,761.322 C288.3,762.422 286.7,764.122 285.7,766.122 C284.6,768.122 284.1,770.322 284.1,772.522 C284.1,775.422 285,778.122 286.8,780.322 C289.8,783.922 294.5,786.222 299.9,786.822 C300.6,786.922 301.7,787.022 302.4,787.022 C306.8,787.022 311.2,785.822 314.8,783.622 C318.5,781.022 320.6,777.022 321.3,771.422 C321.5,770.122 321.5,768.722 321.5,767.222 C321.5,763.322 321,758.622 320,752.822 C319.6,750.722 319.2,747.722 318.5,743.922 C324.3,742.022 328.4,738.322 332.2,732.522 C334.5,728.522 335.6,724.422 335.6,720.122 C335.6,718.222 335.4,716.322 335,714.422 M304.8,636.522 C306.6,630.822 309.3,627.422 311.3,625.722 C313.1,624.222 314.7,623.522 315.6,623.522 C315.7,623.522 315.9,623.622 316,623.622 C316.3,623.722 316.7,624.222 317.1,624.922 C318,626.722 318.9,630.022 318.9,633.722 C318.9,635.622 318.7,637.622 318.1,639.422 C315.9,646.222 311.3,653.522 304.3,661.222 C304.1,660.122 303.9,659.122 303.8,658.122 C303.3,654.922 303,651.722 303,648.822 C303,644.322 303.6,640.222 304.8,636.522 M300.8,740.622 C296.2,739.422 291.7,736.922 287.9,733.422 C286.6,732.222 284.8,730.022 283.3,726.622 C282,723.622 281.3,720.522 281.3,717.122 L281.3,716.422 C281.4,711.722 282.7,706.922 285.2,702.122 C288.1,696.522 292.6,691.022 298.7,685.722 C300.2,684.422 301.6,683.122 302.9,681.822 C303.7,686.122 304.4,690.822 305.3,695.722 C301.4,697.022 296.7,700.022 293.6,705.722 C291.2,710.222 290.5,714.122 290.5,717.322 C290.5,718.822 290.7,720.222 290.9,721.322 C291.8,725.822 294.4,729.522 297.9,731.622 C298.7,732.122 302,733.822 304,733.822 C304.3,733.822 304.6,733.822 304.8,733.722 C305.1,733.622 305.4,733.422 305.5,733.122 C305.6,732.922 305.6,732.722 305.6,732.522 C305.6,731.722 304.8,731.122 303.5,730.322 C302.9,729.922 302.2,729.522 301.5,729.022 C298.9,727.022 297.4,723.922 297.4,720.522 C297.4,719.522 297.6,718.622 297.8,717.622 C298.3,715.622 300,712.822 301.5,711.422 C303.2,709.922 305.2,708.722 307.6,708.122 C309.6,719.322 311.7,730.422 313.3,738.822 C313.4,739.522 313.6,740.222 313.7,740.922 C311.7,741.322 309.7,741.522 307.8,741.522 C305.4,741.522 303.1,741.222 300.8,740.622 M326.5,730.422 C325.3,733.622 322.8,737.622 317.7,739.722 C317.6,739.322 317.6,738.822 317.5,738.422 C316,729.622 314.1,718.722 312.1,707.422 L313.1,707.422 C322.8,707.422 326.7,714.622 327.6,719.222 C327.8,720.122 327.9,721.322 327.9,722.622 C327.9,724.922 327.5,727.722 326.5,730.422"/>
<path class="Clef" d="M335,1326.96 C333.8,1321.56 331.1,1317.66 330.3,1316.66 C327.1,1312.36 323.1,1309.56 318.4,1308.16 C316.1,1307.46 314,1307.26 312,1307.26 C311.3,1307.26 310.6,1307.26 309.9,1307.36 C308.9,1301.36 307.8,1295.46 306.9,1290.06 C312.5,1283.86 316.2,1277.96 318.6,1273.56 C322.2,1266.86 323.6,1262.16 323.7,1261.96 C324.9,1258.96 325.6,1255.16 325.6,1250.66 C325.6,1247.96 325.3,1245.06 324.9,1242.06 C323.8,1234.96 321.6,1228.26 319.1,1224.56 C317.8,1222.66 316.6,1221.56 315.4,1221.56 C314.2,1221.56 311.7,1222.76 308.8,1225.56 C306.5,1227.76 303.2,1231.66 300.6,1237.66 C298.3,1243.06 297.6,1249.96 297.6,1255.86 C297.6,1257.66 297.7,1259.36 297.8,1260.96 C298,1264.56 298.7,1270.36 299.3,1273.96 C299.3,1274.06 299.6,1275.56 300,1278.16 L299.3,1278.86 C298.3,1279.86 297.1,1280.96 295.7,1282.36 C294.8,1283.26 293.9,1284.06 292.9,1285.06 C284.4,1293.26 271.6,1305.66 271.6,1324.76 C271.6,1329.46 272.5,1333.86 274.3,1337.86 C275.9,1341.46 278.2,1344.76 281.1,1347.66 C288.6,1355.06 298.8,1358.26 305.9,1358.26 L306.5,1358.26 C309.4,1358.16 312.1,1357.86 314.5,1357.46 C316.3,1367.06 317.5,1374.16 317.5,1379.46 C317.5,1385.96 315.9,1389.86 312,1392.66 C309.6,1394.36 306.7,1395.46 303.6,1395.56 L302.8,1395.56 C301.3,1395.56 298.8,1395.16 297.3,1394.76 C297.3,1394.76 297,1394.66 297,1394.46 C297,1394.26 297.4,1394.26 297.4,1394.26 C299.3,1393.86 302.9,1392.56 305.3,1389.26 C306.4,1387.76 307.1,1385.46 307.1,1382.96 C307.1,1381.36 306.8,1379.66 306.1,1378.16 C305,1375.76 302.4,1372.76 296.8,1372.36 L295.7,1372.36 C293.6,1372.36 291.8,1372.86 290.1,1373.86 C288.3,1374.96 286.7,1376.66 285.7,1378.66 C284.6,1380.66 284.1,1382.86 284.1,1385.06 C284.1,1387.96 285,1390.66 286.8,1392.86 C289.8,1396.46 294.5,1398.76 299.9,1399.36 C300.6,1399.46 301.7,1399.56 302.4,1399.56 C306.8,1399.56 311.2,1398.36 314.8,1396.16 C318.5,1393.56 320.6,1389.56 321.3,1383.96 C321.5,1382.66 321.5,1381.26 321.5,1379.76 C321.5,1375.86 321,1371.16 320,1365.36 C319.6,1363.26 319.2,1360.26 318.5,1356.46 C324.3,1354.56 328.4,1350.86 332.2,1345.06 C334.5,1341.06 335.6,1336.96 335.6,1332.66 C335.6,1330.76 335.4,1328.86 335,1326.96 M304.8,1249.06 C306.6,1243.36 309.3,1239.96 311.3,1238.26 C313.1,1236.76 314.7,1236.06 315.6,1236.06 C315.7,1236.06 315.9,1236.16 316,1236.16 C316.3,1236.26 316.7,1236.76 317.1,1237.46 C318,1239.26 318.9,1242.56 318.9,1246.26 C318.9,1248.16 318.7,1250.16 318.1,1251.96 C315.9,1258.76 311.3,1266.06 304.3,1273.76 C304.1,1272.66 303.9,1271.66 303.8,1270.66 C303.3,1267.46 303,1264.26 303,1261.36 C303,1256.86 303.6,1252.76 304.8,1249.06 M300.8,1353.16 C296.2,1351.96 291.7,1349.46 287.9,1345.96 C286.6,1344.76 284.8,1342.56 283.3,1339.16 C282,1336.16 281.3,1333.06 281.3,1329.66 L281.3,1328.96 C281.4,1324.26 282.7,1319.46 285.2,1314.66 C288.1,1309.06 292.6,1303.56 298.7,1298.26 C300.2,1296.96 301.6,1295.66 302.9,1294.36 C303.7,1298.66 304.4,1303.36 305.3,1308.26 C301.4,1309.56 296.7,1312.56 293.6,1318.26 C291.2,1322.76 290.5,1326.66 290.5,1329.86 C290.5,1331.36 290.7,1332.76 290.9,1333.86 C291.8,1338.36 294.4,1342.06 297.9,1344.16 C298.7,1344.66 302,1346.36 304,1346.36 C304.3,1346.36 304.6,1346.36 304.8,1346.26 C305.1,1346.16 305.4,1345.96 305.5,1345.66 C305.6,1345.46 305.6,1345.26 305.6,1345.06 C305.6,1344.26 304.8,1343.66 303.5,1342.86 C302.9,1342.46 302.2,1342.06 301.5,1341.56 C298.9,1339.56 297.4,1336.46 297.4,1333.06 C297.4,1332.06 297.6,1331.16 297.8,1330.16 C298.3,1328.16 300,1325.36 301.5,1323.96 C303.2,1322.46 305.2,1321.26 307.6,1320.66 C309.6,1331.86 311.7,1342.96 313.3,1351.36 C313.4,1352.06 313.6,1352.76 313.7,1353.46 C311.7,1353.86 309.7,1354.06 307.8,1354.06 C305.4,1354.06 303.1,1353.76 300.8,1353.16 M326.5,1342.96 C325.3,1346.16 322.8,1350.16 317.7,1352.26 C317.6,1351.86 317.6,1351.36 317.5,1350.96 C316,1342.16 314.1,1331.26 312.1,1319.96 L313.1,1319.96 C322.8,1319.96 326.7,1327.16 327.6,1331.76 C327.8,1332.66 327.9,1333.86 327.9,1335.16 C327.9,1337.46 327.5,1340.26 326.5,1342.96"/>
<path class="TimeSig" d="M365.2,946.235 L382,946.235 L382,953.535 L373.9,953.535 C373.1,953.535 372.5,954.135 372.5,954.935 L372.5,956.835 C372.5,957.635 373.1,958.135 373.9,958.135 L403.6,958.135 C404.4,958.135 405,957.635 405,956.835 L405,954.935 C405,954.135 404.4,953.535 403.6,953.535 L394.8,953.535 L394.8,946.235 L403.6,946.235 C404.4,946.235 405,945.635 405,944.835 L405,943.035 C405,942.235 404.4,941.635 403.6,941.635 L394.8,941.635 L394.8,925.935 C394.8,925.435 394.4,924.935 394,924.735 L392.9,924.135 C392.7,924.035 392.4,924.035 392.2,924.035 C391.9,924.035 391.5,924.135 391.3,924.335 L382.4,932.535 C382.2,932.735 382,933.235 382,933.535 L382,941.635 L370.7,941.635 C370.7,941.635 381.6,929.835 393.2,914.335 C394,913.235 393.6,912.235 393.4,912.035 L391.3,909.835 C391.1,909.635 390.6,909.435 390.3,909.435 L375.7,909.435 C375,909.435 374.5,910.035 374.4,910.635 C374.4,910.635 373.9,917.835 371.3,925.835 C368.7,933.835 365.9,938.635 363.3,942.235 C363.3,942.235 362.8,943.235 363.1,943.935 C363.4,944.635 364.1,945.735 364.1,945.735 C364.1,945.735 364.4,946.235 365.2,946.235"/>
<path class="TimeSig" d="M365.2,994.839 L382,994.839 L382,1002.14 L373.9,1002.14 C373.1,1002.14 372.5,1002.74 372.5,1003.54 L372.5,1005.44 C372.5,1006.24 373.1,1006.74 373.9,1006.74 L403.6,1006.74 C404.4,1006.74 405,1006.24 405,1005.44 L405,1003.54 C405,1002.74 404.4,1002.14 403.6,1002.14 L394.8,1002.14 L394.8,994.839 L403.6,994.839 C404.4,994.839 405,994.239 405,993.439 L405,991.639 C405,990.839 404.4,990.239 403.6,990.239 L394.8,990.239 L394.8,974.539 C394.8,974.039 394.4,973.539 394,973.339 L392.9,972.739 C392.7,972.639 392.4,972.639 392.2,972.639 C391.9,972.639 391.5,972.739 391.3,972.939 L382.4,981.139 C382.2,981.339 382,981.839 382,982.139 L382,990.239 L370.7,990.239 C370.7,990.239 381.6,978.439 393.2,962.939 C394,961.839 393.6,960.839 393.4,960.639 L391.3,958.439 C391.1,958.239 390.6,958.039 390.3,958.039 L375.7,958.039 C375,958.039 374.5,958.639 374.4,959.239 C374.4,959.239 373.9,966.439 371.3,974.439 C368.7,982.439 365.9,987.239 363.3,990.839 C363.3,990.839 362.8,991.839 363.1,992.539 C363.4,993.239 364.1,994.339 364.1,994.339 C364.1,994.339 364.4,994.839 365.2,994.839"/>
<path class="TimeSig" d="M365.2,683.718 L382,683.718 L382,691.018 L373.9,691.018 C373.1,691.018 372.5,691.618 372.5,692.418 L372.5,694.318 C372.5,695.118 373.1,695.618 373.9,695.618 L403.6,695.618 C404.4,695.618 405,695.118 405,694.318 L405,692.418 C405,691.618 404.4,691.018 403.6,691.018 L394.8,691.018 L394.8,683.718 L403.6,683.718 C404.4,683.718 405,683.118 405,682.318 L405,680.518 C405,679.718 404.4,679.118 403.6,679.118 L394.8,679.118 L394.8,663.418 C394.8,662.918 394.4,662.418 394,662.218 L392.9,661.618 C392.7,661.518 392.4,661.518 392.2,661.518 C391.9,661.518 391.5,661.618 391.3,661.818 L382.4,670.018 C382.2,670.218 382,670.718 382,671.018 L382,679.118 L370.7,679.118 C370.7,679.118 381.6,667.318 393.2,651.818 C394,650.718 393.6,649.718 393.4,649.518 L391.3,647.318 C391.1,647.118 390.6,646.918 390.3,646.918 L375.7,646.918 C375,646.918 374.5,647.518 374.4,648.118 C374.4,648.118 373.9,655.318 371.3,663.318 C368.7,671.318 365.9,676.118 363.3,679.718 C363.3,679.718 362.8,680.718 363.1,681.418 C363.4,682.118 364.1,683.218 364.1,683.218 C364.1,683.218 364.4,683.718 365.2,683.718"/>
<path class="TimeSig" d="M365.2,732.323 L382,732.323 L382,739.623 L373.9,739.623 C373.1,739.623 372.5,740.223 372.5,741.023 L372.5,742.923 C372.5,743.723 373.1,744.223 373.9,744.223 L403.6,744.223 C404.4,744.223 405,743.723 405,742.923 L405,741.023 C405,740.223 404.4,739.623 403.6,739.623 L394.8,739.623 L394.8,732.323 L403.6,732.323 C404.4,732.323 405,731.723 405,730.923 L405,729.123 C405,728.323 404.4,727.723 403.6,727.723 L394.8,727.723 L394.8,712.023 C394.8,711.523 394.4,711.023 394,710.823 L392.9,710.223 C392.7,710.123 392.4,710.123 392.2,710.123 C391.9,710.123 391.5,710.223 391.3,710.423 L382.4,718.623 C382.2,718.823 382,719.323 382,719.623 L382,727.723 L370.7,727.723 C370.7,727.723 381.6,715.923 393.2,700.423 C394,699.323 393.6,698.323 393.4,698.123 L391.3,695.923 C391.1,695.723 390.6,695.523 390.3,695.523 L375.7,695.523 C375,695.523 374.5,696.123 374.4,696.723 C374.4,696.723 373.9,703.923 371.3,711.923 C368.7,719.923 365.9,724.723 363.3,728.323 C363.3,728.323 362.8,729.323 363.1,730.023 C363.4,730.723 364.1,731.823 364.1,731.823 C364.1,731.823 364.4,732.323 365.2,732.323"/>
<path class="NoteDot" d="M2445.57,1607.88 C2445.57,1610.47 2447.67,1612.58 2450.27,1612.58 C2452.86,1612.58 2454.97,1610.47 2454.97,1607.88 C2454.97,1605.28 2452.86,1603.18 2450.27,1603.18 C2447.67,1603.18 2445.57,1605.28 2445.57,1607.88"/>
<path class="NoteDot" d="M2445.57,1395.36 C2445.57,1397.96 2447.67,1400.06 2450.27,1400.06 C2452.86,1400.06 2454.97,1397.96 2454.97,1395.36 C2454.97,1392.77 2452.86,1390.66 2450.27,1390.66 C2447.67,1390.66 2445.57,1392.77 2445.57,1395.36"/>
<path class="Page" d="M222.584,4034.39 C221.054,4036.23 216.914,4037.63 212.774,4037.72 L212.774,4039.65 L216.734,4039.65 C219.344,4039.7 219.614,4039.97 219.524,4042.49 L219.524,4060.53 C219.524,4062.83 219.524,4062.92 219.254,4063.32 C218.894,4063.77 218.039,4063.95 215.519,4063.95 L212.594,4063.95 L212.594,4066.07 L230.414,4066.07 L230.414,4063.95 L227.939,4063.95 C225.419,4063.95 224.564,4063.77 224.204,4063.32 C223.889,4062.92 223.889,4062.87 223.889,4060.53 L223.889,4041.95 C223.889,4039.43 223.979,4037.31 224.204,4034.39 L222.584,4034.39 M239.994,4050.77 C240.444,4045.14 240.669,4043.66 241.659,4041.36 C242.964,4038.17 245.349,4036.32 248.184,4036.32 C249.759,4036.32 250.704,4036.82 250.704,4037.63 C250.704,4037.81 250.659,4037.94 250.479,4038.26 C250.029,4039.11 249.804,4039.79 249.804,4040.42 C249.804,4041.9 250.974,4043.03 252.549,4043.03 C254.304,4043.03 255.519,4041.68 255.519,4039.79 C255.519,4036.68 252.414,4034.39 248.139,4034.39 C244.449,4034.39 240.984,4036.14 238.824,4039.16 C236.349,4042.62 234.999,4047.3 234.999,4052.21 C234.999,4061.03 239.319,4066.74 245.979,4066.74 C248.904,4066.74 251.334,4065.75 253.224,4063.77 C255.159,4061.79 256.329,4058.87 256.329,4055.99 C256.329,4050.68 252.549,4046.72 247.419,4046.72 C244.359,4046.72 242.109,4047.93 239.994,4050.77 M246.159,4049.46 C249.444,4049.46 251.424,4052.03 251.424,4056.3 C251.424,4061.52 249.354,4064.81 246.069,4064.81 C243.999,4064.81 242.424,4063.73 241.344,4061.52 C240.624,4060.13 240.264,4058.6 240.264,4056.93 C240.264,4052.3 242.514,4049.46 246.159,4049.46"/>
<path class="Bracket" transform="matrix(3.62523,0,0,3.62523,214.469,1007.84)" d="M0.92002,-50 C2.69004,-51.88 6.2,-55.8 6.2,-63 C6.2,-72.1 2.25996,-81.32 2.25996,-86.97 C2.25996,-93.06 5.84004,-98.84 5.95,-99 C6.05996,-99.16 6.05,-99.39 5.94004,-99.46 C5.82998,-99.53 5.62002,-99.47 5.49004,-99.32 C5.35996,-99.17 0,-93.75 0,-85.6 C0,-76.75 3.5,-70.58 3.5,-59.07 C3.5,-56.89 2.55996,-53.36 0.1,-50.33 C-0.0799805,-50.17 -0.1,-49.89 0.0599609,-49.7 L0.0700195,-49.69 L0.1,-49.66 C2.55996,-46.63 3.5,-43.1 3.5,-40.92 C3.5,-29.4 0,-23.24 0,-14.39 C0,-6.25 5.35996,-0.8 5.49004,-0.659961 C5.62002,-0.52002 5.8,-0.42998 5.94004,-0.52002 C6.07998,-0.609961 6.07998,-0.77998 5.95,-0.97998 C5.82002,-1.17998 2.25996,-6.92002 2.25996,-13.01 C2.25996,-18.66 6.2,-27.9 6.2,-37 C6.2,-44.3 2.69004,-48.12 0.92002,-50"/>
<path class="Bracket" transform="matrix(3.62523,0,0,3.62523,214.469,1620.38)" d="M0.92002,-50 C2.69004,-51.88 6.2,-55.8 6.2,-63 C6.2,-72.1 2.25996,-81.32 2.25996,-86.97 C2.25996,-93.06 5.84004,-98.84 5.95,-99 C6.05996,-99.16 6.05,-99.39 5.94004,-99.46 C5.82998,-99.53 5.62002,-99.47 5.49004,-99.32 C5.35996,-99.17 0,-93.75 0,-85.6 C0,-76.75 3.5,-70.58 3.5,-59.07 C3.5,-56.89 2.55996,-53.36 0.1,-50.33 C-0.0799805,-50.17 -0.1,-49.89 0.0599609,-49.7 L0.0700195,-49.69 L0.1,-49.66 C2.55996,-46.63 3.5,-43.1 3.5,-40.92 C3.5,-29.4 0,-23.24 0,-14.39 C0,-6.25 5.35996,-0.8 5.49004,-0.659961 C5.62002,-0.52002 5.8,-0.42998 5.94004,-0.52002 C6.07998,-0.609961 6.07998,-0.77998 5.95,-0.97998 C5.82002,-1.17998 2.25996,-6.92002 2.25996,-13.01 C2.25996,-18.66 6.2,-27.9 6.2,-37 C6.2,-44.3 2.69004,-48.12 0.92002,-50"/>
</svg>