<?xml version="1.0" encoding="UTF-8" standalone="no"?>
<svg width="1000px" height="220px" viewBox="150 600 2700 500" xmlns="http://www.w3.org/2000/svg" xmlns:xlink="http://www.w3.org/1999/xlink" version="1.2" baseProfile="tiny">
 xmlns="http://www.w3.org/2000/svg" xmlns:xlink="http://www.w3.org/1999/xlink" version="1.2" baseProfile="tiny">
<title>exercises_scores (36)</title>
<desc>Generated by MuseScore 3.6.0</desc>
<polyline class="StaffLines" fill="none" stroke="#000000" stroke-width="2.75" stroke-linejoin="bevel" points="247.099,650.005 2764.63,650.005"/>
<polyline class="StaffLines" fill="none" stroke="#000000" stroke-width="2.75" stroke-linejoin="bevel" points="247.099,675.006 2764.63,675.006"/>
<polyline class="StaffLines" fill="none" stroke="#000000" stroke-width="2.75" stroke-linejoin="bevel" points="247.099,700.008 2764.63,700.008"/>
<polyline class="StaffLines" fill="none" stroke="#000000" stroke-width="2.75" stroke-linejoin="bevel" points="247.099,725.009 2764.63,725.009"/>
<polyline class="StaffLines" fill="none" stroke="#000000" stroke-width="2.75" stroke-linejoin="bevel" points="247.099,750.011 2764.63,750.011"/>
<polyline class="StaffLines" fill="none" stroke="#000000" stroke-width="2.75" stroke-linejoin="bevel" points="247.099,912.521 2764.63,912.521"/>
<polyline class="StaffLines" fill="none" stroke="#000000" stroke-width="2.75" stroke-linejoin="bevel" points="247.099,937.523 2764.63,937.523"/>
<polyline class="StaffLines" fill="none" stroke="#000000" stroke-width="2.75" stroke-linejoin="bevel" points="247.099,962.524 2764.63,962.524"/>
<polyline class="StaffLines" fill="none" stroke="#000000" stroke-width="2.75" stroke-linejoin="bevel" points="247.099,987.526 2764.63,987.526"/>
<polyline class="StaffLines" fill="none" stroke="#000000" stroke-width="2.75" stroke-linejoin="bevel" points="247.099,1012.53 2764.63,1012.53"/>
<path class="Text" d="M248.664,216.56 L212.604,216.56 L212.604,219.38 L213.684,219.38 C217.104,219.44 218.244,219.62 218.724,220.22 C219.084,220.76 219.084,220.88 219.084,223.94 L219.084,252.5 C219.084,255.56 219.084,255.68 218.724,256.22 C218.244,256.82 217.104,257.06 213.684,257.06 L212.604,257.06 L212.604,259.88 L249.444,259.88 L250.644,243.86 L248.004,243.86 C245.724,254.54 243.264,256.82 234.084,257.06 L230.124,257.06 C226.524,256.94 225.624,256.34 225.804,254.18 L225.804,238.88 L227.004,238.88 C233.184,238.64 235.404,240.86 235.644,247.52 L238.464,247.52 L238.464,227.84 L235.644,227.84 C235.284,233.72 232.944,236.06 227.244,236.06 L225.804,236.06 L225.804,222.38 C225.744,219.86 226.344,219.44 229.584,219.38 L232.704,219.38 C242.544,219.32 245.004,221.48 246.924,231.86 L249.504,231.86 L248.664,216.56 M274.097,242.18 C273.617,239.06 271.769,236.18 267.689,236.18 C263.609,236.18 261.455,238.622 261.059,239.096 L261.329,213.71 C261.329,213.706 261.329,213.701 261.329,213.698 C261.329,213.092 260.837,212.6 260.231,212.6 L260.231,212.6 L259.295,212.6 C259.042,212.601 258.693,212.746 258.515,212.924 C258.339,213.098 258.196,213.441 258.196,213.689 C258.196,213.695 258.196,213.704 258.197,213.71 L258.623,261.314 C258.629,261.913 259.121,262.4 259.72,262.4 L259.721,262.4 C259.914,262.399 260.199,262.308 260.357,262.196 C260.669,262.046 265.745,259.55 270.053,254.702 C273.731,250.568 274.697,245.72 274.097,242.18 M268.667,245.324 C268.661,246.482 268.373,250.166 266.369,253.166 C264.995,255.224 262.361,257.396 260.849,258.554 L261.017,243.104 C261.197,242.36 262.391,240.086 265.571,240.098 C269.045,240.11 268.667,244.166 268.667,245.324 M306.848,215.66 L295.748,216.32 L295.748,218.9 L298.628,218.9 C300.908,218.96 301.208,219.32 301.208,221.9 L301.208,252.5 L301.208,253.94 L301.208,255.38 C301.148,256.22 301.088,256.58 300.848,256.88 C300.428,257.42 299.288,257.66 296.708,257.72 L296.468,257.72 L296.468,259.88 L311.648,259.88 L311.648,257.72 L311.408,257.72 C307.388,257.6 306.848,257.3 306.848,255.14 L306.848,252.5 L306.848,246.26 C306.848,243.32 307.268,240.62 307.928,239.24 C309.248,236.54 311.888,234.68 314.468,234.68 C316.028,234.68 317.828,235.58 318.668,236.78 C319.628,238.1 320.048,239.9 320.048,242.84 L320.048,252.5 L320.048,255.38 C319.988,256.22 319.928,256.58 319.688,256.88 C319.268,257.42 318.068,257.66 315.488,257.72 L315.248,257.72 L315.248,259.88 L330.428,259.88 L330.428,257.72 L330.188,257.72 C326.228,257.6 325.688,257.3 325.688,255.14 L325.688,252.5 L325.688,243.08 C325.688,238.76 325.508,237.68 324.428,235.64 C322.928,232.7 319.928,231.02 316.328,231.02 C312.428,231.02 309.548,232.76 306.848,236.78 L306.848,215.66 M358.625,240.56 C358.625,236.78 357.965,234.86 356.225,233.42 C354.245,231.8 351.305,231.02 347.465,231.02 C340.685,231.02 335.765,234.2 335.765,238.58 C335.765,240.8 337.145,242.24 339.245,242.24 C341.165,242.24 342.485,240.98 342.485,239.18 C342.485,238.4 342.185,237.56 341.585,236.72 C341.225,236.3 341.165,236.18 341.165,235.88 C341.165,234.68 343.565,233.6 346.445,233.6 C348.365,233.6 350.465,234.2 351.425,235.1 C352.565,236.06 352.985,237.5 352.985,240.2 L352.985,242.54 C346.745,243.62 344.765,244.1 341.825,245.24 C336.605,247.16 334.145,249.92 334.145,253.76 C334.145,258.08 337.505,260.78 342.845,260.78 C346.985,260.78 350.705,259.1 353.285,256.04 C354.245,259.1 355.745,260.3 358.565,260.3 C361.265,260.3 364.085,258.56 364.085,256.82 C364.085,256.4 363.845,256.1 363.485,256.1 C363.245,256.1 363.005,256.16 362.585,256.34 C361.745,256.7 361.385,256.76 360.905,256.76 C359.225,256.76 358.625,255.68 358.625,252.62 L358.625,240.56 M352.985,247.88 C352.985,251.48 352.805,252.32 351.785,253.88 C350.285,256.1 347.585,257.6 344.945,257.6 C342.185,257.6 340.205,255.62 340.205,252.92 C340.205,250.4 341.465,248.6 344.105,247.34 C345.965,246.5 348.305,245.9 352.985,245.12 L352.985,247.88 M376.744,231.92 L366.124,232.58 L366.124,235.16 L368.584,235.16 C370.864,235.22 371.164,235.58 371.164,238.16 L371.164,252.5 L371.164,255.32 C371.104,256.22 371.044,256.58 370.804,256.88 C370.384,257.42 369.184,257.66 366.604,257.72 L366.364,257.72 L366.364,259.88 L382.384,259.88 L382.384,257.72 L381.304,257.72 C377.284,257.6 376.744,257.3 376.744,255.14 L376.744,252.5 L376.744,251.9 C376.804,241.82 380.404,234.14 385.084,233.9 C384.244,234.86 384.004,235.46 384.004,236.6 C384.004,238.52 385.384,239.9 387.304,239.9 C389.524,239.9 390.964,238.28 390.964,235.88 C390.964,232.94 388.924,231.02 385.744,231.02 C381.964,231.02 378.724,234.02 376.744,239.36 L376.744,231.92 M404.565,231.92 L393.885,232.58 L393.885,235.16 L396.345,235.16 C398.625,235.22 398.925,235.58 398.925,238.16 L398.925,252.5 L398.925,254.84 L398.925,255.32 C398.865,256.22 398.805,256.58 398.565,256.88 C398.145,257.42 397.005,257.66 394.425,257.72 L394.185,257.72 L394.185,259.88 L409.305,259.88 L409.305,257.72 L409.065,257.72 C405.105,257.6 404.565,257.3 404.565,255.08 L404.565,252.5 L404.565,243.98 C404.565,238.64 407.505,234.68 411.405,234.68 C414.825,234.68 416.565,237.14 416.565,242 L416.565,252.5 L416.565,255.38 C416.505,256.16 416.445,256.58 416.145,256.88 C415.785,257.42 414.585,257.66 412.005,257.72 L411.765,257.72 L411.765,259.88 L426.945,259.88 L426.945,257.72 L426.705,257.72 C422.745,257.6 422.205,257.3 422.205,255.14 L422.205,252.5 L422.205,244.52 C422.205,238.52 424.905,234.68 429.105,234.68 C432.525,234.68 434.205,237.26 434.205,242.66 L434.205,252.5 L434.205,255.32 C434.145,256.16 434.085,256.58 433.785,256.88 C433.425,257.42 432.225,257.66 429.645,257.72 L429.405,257.72 L429.405,259.88 L444.585,259.88 L444.585,257.72 L444.345,257.72 C440.385,257.6 439.845,257.3 439.845,255.08 L439.845,252.5 L439.845,241.46 C439.845,237.74 439.485,236.48 437.925,234.44 C436.185,232.22 433.725,231.02 430.845,231.02 C426.945,231.02 424.065,232.88 421.485,237.02 C420.465,233.42 417.225,231.02 413.205,231.02 C409.545,231.02 406.905,232.76 404.565,236.54 L404.565,231.92 M460.953,231.02 C453.573,231.02 447.873,237.56 447.873,245.96 C447.873,254.18 453.633,260.78 460.833,260.78 C468.033,260.78 473.793,254.18 473.793,245.9 C473.793,237.68 468.033,231.02 460.953,231.02 M460.953,233.6 C465.153,233.6 467.493,237.98 467.493,245.9 C467.493,253.88 465.153,258.2 460.833,258.2 C456.513,258.2 454.173,253.88 454.173,245.96 C454.173,237.8 456.453,233.6 460.953,233.6 M487.833,231.92 L477.453,232.58 L477.453,235.16 L479.613,235.16 C481.893,235.22 482.193,235.58 482.193,238.16 L482.193,252.5 L482.193,253.94 L482.193,255.32 C482.133,256.22 482.073,256.58 481.833,256.88 C481.413,257.42 480.273,257.66 477.693,257.72 L477.453,257.72 L477.453,259.88 L492.633,259.88 L492.633,257.72 L492.393,257.72 C488.373,257.6 487.833,257.3 487.833,255.14 L487.833,252.5 L487.833,246.26 C487.833,243.32 488.253,240.62 488.913,239.24 C490.173,236.54 492.873,234.68 495.453,234.68 C497.013,234.68 498.813,235.52 499.713,236.78 C500.613,238.1 501.033,239.9 501.033,242.78 L501.033,252.5 L501.033,255.32 C500.973,256.22 500.913,256.58 500.673,256.88 C500.253,257.42 499.053,257.66 496.473,257.72 L496.233,257.72 L496.233,259.88 L511.413,259.88 L511.413,257.72 L511.173,257.72 C507.213,257.6 506.673,257.3 506.673,255.14 L506.673,252.5 L506.673,243.08 C506.673,238.76 506.493,237.68 505.413,235.64 C503.913,232.76 500.913,231.02 497.313,231.02 C493.413,231.02 490.473,232.82 487.833,236.78 L487.833,231.92 M524.849,231.92 L513.569,232.58 L513.569,235.16 L516.629,235.16 C518.909,235.22 519.209,235.58 519.209,238.16 L519.209,252.5 L519.209,255.32 C519.149,256.22 519.089,256.58 518.849,256.88 C518.429,257.42 517.289,257.66 514.709,257.72 L514.289,257.72 L514.289,259.88 L529.829,259.88 L529.829,257.72 L529.409,257.72 C525.389,257.6 524.849,257.3 524.849,255.14 L524.849,252.5 L524.849,231.92 M522.029,216.98 C520.109,216.98 518.549,218.54 518.549,220.46 C518.549,222.38 520.109,223.94 521.969,223.94 C523.949,223.94 525.509,222.38 525.509,220.46 C525.509,218.54 523.949,216.98 522.029,216.98 M554.6,251.06 C552.68,255.38 550.64,257.12 547.52,257.12 C542.72,257.12 539.72,252.74 539.72,245.72 C539.72,238.4 542.66,233.6 547.1,233.6 C548.9,233.6 550.46,234.44 550.46,235.4 C550.46,235.58 550.4,235.76 550.1,236.12 C549.14,237.26 548.9,237.86 548.9,238.88 C548.9,240.86 550.4,242.24 552.5,242.24 C554.66,242.24 556.16,240.56 556.16,238.16 C556.16,234.08 552.14,231.02 546.8,231.02 C539,231.02 533.42,237.38 533.42,246.38 C533.42,254.9 538.52,260.78 545.96,260.78 C551.3,260.78 554.36,258.32 556.94,251.96 L554.6,251.06 M586.737,231.92 L576.057,232.58 L576.057,235.16 L578.517,235.16 C580.797,235.22 581.097,235.58 581.097,238.16 L581.097,252.5 L581.097,254.84 L581.097,255.32 C581.037,256.22 580.977,256.58 580.737,256.88 C580.317,257.42 579.177,257.66 576.597,257.72 L576.357,257.72 L576.357,259.88 L591.477,259.88 L591.477,257.72 L591.237,257.72 C587.277,257.6 586.737,257.3 586.737,255.08 L586.737,252.5 L586.737,243.98 C586.737,238.64 589.677,234.68 593.577,234.68 C596.997,234.68 598.737,237.14 598.737,242 L598.737,252.5 L598.737,255.38 C598.677,256.16 598.617,256.58 598.317,256.88 C597.957,257.42 596.757,257.66 594.177,257.72 L593.937,257.72 L593.937,259.88 L609.117,259.88 L609.117,257.72 L608.877,257.72 C604.917,257.6 604.377,257.3 604.377,255.14 L604.377,252.5 L604.377,244.52 C604.377,238.52 607.077,234.68 611.277,234.68 C614.697,234.68 616.377,237.26 616.377,242.66 L616.377,252.5 L616.377,255.32 C616.317,256.16 616.257,256.58 615.957,256.88 C615.597,257.42 614.397,257.66 611.817,257.72 L611.577,257.72 L611.577,259.88 L626.757,259.88 L626.757,257.72 L626.517,257.72 C622.557,257.6 622.017,257.3 622.017,255.08 L622.017,252.5 L622.017,241.46 C622.017,237.74 621.657,236.48 620.097,234.44 C618.357,232.22 615.897,231.02 613.017,231.02 C609.117,231.02 606.237,232.88 603.657,237.02 C602.637,233.42 599.397,231.02 595.377,231.02 C591.717,231.02 589.077,232.76 586.737,236.54 L586.737,231.92 M640.365,231.92 L629.085,232.58 L629.085,235.16 L632.145,235.16 C634.425,235.22 634.725,235.58 634.725,238.16 L634.725,252.5 L634.725,255.32 C634.665,256.22 634.605,256.58 634.365,256.88 C633.945,257.42 632.805,257.66 630.225,257.72 L629.805,257.72 L629.805,259.88 L645.345,259.88 L645.345,257.72 L644.925,257.72 C640.905,257.6 640.365,257.3 640.365,255.14 L640.365,252.5 L640.365,231.92 M637.545,216.98 C635.625,216.98 634.065,218.54 634.065,220.46 C634.065,222.38 635.625,223.94 637.485,223.94 C639.465,223.94 641.025,222.38 641.025,220.46 C641.025,218.54 639.465,216.98 637.545,216.98 M658.895,231.92 L648.515,232.58 L648.515,235.16 L650.675,235.16 C652.955,235.22 653.255,235.58 653.255,238.16 L653.255,252.5 L653.255,253.94 L653.255,255.32 C653.195,256.22 653.135,256.58 652.895,256.88 C652.475,257.42 651.335,257.66 648.755,257.72 L648.515,257.72 L648.515,259.88 L663.695,259.88 L663.695,257.72 L663.455,257.72 C659.435,257.6 658.895,257.3 658.895,255.14 L658.895,252.5 L658.895,246.26 C658.895,243.32 659.315,240.62 659.975,239.24 C661.235,236.54 663.935,234.68 666.515,234.68 C668.075,234.68 669.875,235.52 670.775,236.78 C671.675,238.1 672.095,239.9 672.095,242.78 L672.095,252.5 L672.095,255.32 C672.035,256.22 671.975,256.58 671.735,256.88 C671.315,257.42 670.115,257.66 667.535,257.72 L667.295,257.72 L667.295,259.88 L682.475,259.88 L682.475,257.72 L682.235,257.72 C678.275,257.6 677.735,257.3 677.735,255.14 L677.735,252.5 L677.735,243.08 C677.735,238.76 677.555,237.68 676.475,235.64 C674.975,232.76 671.975,231.02 668.375,231.02 C664.475,231.02 661.535,232.82 658.895,236.78 L658.895,231.92 M698.672,231.02 C691.292,231.02 685.592,237.56 685.592,245.96 C685.592,254.18 691.352,260.78 698.552,260.78 C705.752,260.78 711.512,254.18 711.512,245.9 C711.512,237.68 705.752,231.02 698.672,231.02 M698.672,233.6 C702.872,233.6 705.212,237.98 705.212,245.9 C705.212,253.88 702.872,258.2 698.552,258.2 C694.232,258.2 691.892,253.88 691.892,245.96 C691.892,237.8 694.172,233.6 698.672,233.6 M725.432,231.92 L714.812,232.58 L714.812,235.16 L717.272,235.16 C719.552,235.22 719.852,235.58 719.852,238.16 L719.852,252.5 L719.852,255.32 C719.792,256.22 719.732,256.58 719.492,256.88 C719.072,257.42 717.872,257.66 715.292,257.72 L715.052,257.72 L715.052,259.88 L731.072,259.88 L731.072,257.72 L729.992,257.72 C725.972,257.6 725.432,257.3 725.432,255.14 L725.432,252.5 L725.432,251.9 C725.492,241.82 729.092,234.14 733.772,233.9 C732.932,234.86 732.692,235.46 732.692,236.6 C732.692,238.52 734.072,239.9 735.992,239.9 C738.212,239.9 739.652,238.28 739.652,235.88 C739.652,232.94 737.612,231.02 734.432,231.02 C730.652,231.02 727.412,234.02 725.432,239.36 L725.432,231.92 "/>
<polyline class="BarLine" fill="none" stroke="#000000" stroke-width="4.50" stroke-linejoin="bevel" points="249.349,911.146 249.349,1013.9"/>
<polyline class="BarLine" fill="none" stroke="#000000" stroke-width="4.50" stroke-linejoin="bevel" points="1022.31,911.146 1022.31,1013.9"/>
<polyline class="BarLine" fill="none" stroke="#000000" stroke-width="4.50" stroke-linejoin="bevel" points="1630.77,911.146 1630.77,1013.9"/>
<polyline class="BarLine" fill="none" stroke="#000000" stroke-width="4.50" stroke-linejoin="bevel" points="2225.53,911.146 2225.53,1013.9"/>
<polyline class="BarLine" fill="none" stroke="#000000" stroke-width="4.50" stroke-linejoin="bevel" points="2734.88,911.146 2734.88,1013.9"/>
<polyline class="BarLine" fill="none" stroke="#000000" stroke-width="13.75" stroke-linejoin="bevel" points="2757.75,911.146 2757.75,1013.9"/>
<polyline class="BarLine" fill="none" stroke="#000000" stroke-width="4.50" stroke-linejoin="bevel" points="249.349,648.63 249.349,912.521"/>
<polyline class="BarLine" fill="none" stroke="#000000" stroke-width="4.50" stroke-linejoin="bevel" points="1022.31,648.63 1022.31,912.521"/>
<polyline class="BarLine" fill="none" stroke="#000000" stroke-width="4.50" stroke-linejoin="bevel" points="1630.77,648.63 1630.77,912.521"/>
<polyline class="BarLine" fill="none" stroke="#000000" stroke-width="4.50" stroke-linejoin="bevel" points="2225.53,648.63 2225.53,912.521"/>
<polyline class="BarLine" fill="none" stroke="#000000" stroke-width="4.50" stroke-linejoin="bevel" points="2734.88,648.63 2734.88,912.521"/>
<polyline class="BarLine" fill="none" stroke="#000000" stroke-width="13.75" stroke-linejoin="bevel" points="2757.75,648.63 2757.75,912.521"/>
<path class="Accidental" d="M475.102,942.124 C474.502,938.224 472.102,934.524 467.002,934.524 C462.002,934.524 459.102,937.624 458.602,938.224 L459.002,906.124 C459.002,905.324 458.402,904.724 457.602,904.724 L456.402,904.724 C455.602,904.724 455.002,905.324 455.002,906.124 L455.502,966.224 C455.502,967.024 456.102,967.624 456.902,967.624 C457.102,967.624 457.502,967.524 457.702,967.424 C458.102,967.224 464.602,964.024 470.002,957.924 C473.802,953.624 475.302,948.724 475.302,944.624 C475.302,943.724 475.202,942.924 475.102,942.124 M468.202,946.024 C468.202,947.524 467.802,952.124 465.302,955.924 C463.602,958.524 460.202,961.224 458.302,962.724 L458.602,943.224 C458.802,942.324 460.302,939.424 464.302,939.424 C467.902,939.424 468.202,942.824 468.202,944.924 L468.202,946.024 "/>
<path class="Accidental" d="M744.355,917.122 C743.755,913.222 741.355,909.522 736.255,909.522 C731.255,909.522 728.355,912.622 727.855,913.222 L728.255,881.122 C728.255,880.322 727.655,879.722 726.855,879.722 L725.655,879.722 C724.855,879.722 724.255,880.322 724.255,881.122 L724.755,941.222 C724.755,942.022 725.355,942.622 726.155,942.622 C726.355,942.622 726.755,942.522 726.955,942.422 C727.355,942.222 733.855,939.022 739.255,932.922 C743.055,928.622 744.555,923.722 744.555,919.622 C744.555,918.722 744.455,917.922 744.355,917.122 M737.455,921.022 C737.455,922.522 737.055,927.122 734.555,930.922 C732.855,933.522 729.455,936.222 727.555,937.722 L727.855,918.222 C728.055,917.322 729.555,914.422 733.555,914.422 C737.155,914.422 737.455,917.822 737.455,919.922 L737.455,921.022 "/>
<path class="Accidental" d="M878.981,904.621 C878.381,900.721 875.981,897.021 870.881,897.021 C865.881,897.021 862.981,900.121 862.481,900.721 L862.881,868.621 C862.881,867.821 862.281,867.221 861.481,867.221 L860.281,867.221 C859.481,867.221 858.881,867.821 858.881,868.621 L859.381,928.721 C859.381,929.521 859.981,930.121 860.781,930.121 C860.981,930.121 861.381,930.021 861.581,929.921 C861.981,929.721 868.481,926.521 873.881,920.421 C877.681,916.121 879.181,911.221 879.181,907.121 C879.181,906.221 879.081,905.421 878.981,904.621 M872.081,908.521 C872.081,910.021 871.681,914.621 869.181,918.421 C867.481,921.021 864.081,923.721 862.181,925.221 L862.481,905.721 C862.681,904.821 864.181,901.921 868.181,901.921 C871.781,901.921 872.081,905.321 872.081,907.421 L872.081,908.521 "/>
<path class="Accidental" d="M1066.41,892.12 C1065.81,888.22 1063.41,884.52 1058.31,884.52 C1053.31,884.52 1050.41,887.62 1049.91,888.22 L1050.31,856.12 C1050.31,855.32 1049.71,854.72 1048.91,854.72 L1047.71,854.72 C1046.91,854.72 1046.31,855.32 1046.31,856.12 L1046.81,916.22 C1046.81,917.02 1047.41,917.62 1048.21,917.62 C1048.41,917.62 1048.81,917.52 1049.01,917.42 C1049.41,917.22 1055.91,914.02 1061.31,907.92 C1065.11,903.62 1066.61,898.72 1066.61,894.62 C1066.61,893.72 1066.51,892.92 1066.41,892.12 M1059.51,896.02 C1059.51,897.52 1059.11,902.12 1056.61,905.92 C1054.91,908.52 1051.51,911.22 1049.61,912.72 L1049.91,893.22 C1050.11,892.32 1051.61,889.42 1055.61,889.42 C1059.21,889.42 1059.51,892.82 1059.51,894.92 L1059.51,896.02 "/>
<path class="Accidental" d="M1205.03,881.72 C1204.83,881.52 1204.53,881.42 1204.23,881.42 C1204.13,881.42 1203.93,881.52 1203.83,881.52 L1191.23,885.02 L1191.23,867.52 L1188.43,867.52 L1188.43,917.02 C1188.43,917.82 1189.03,918.32 1189.83,918.32 L1190.23,918.32 L1202.83,914.82 L1202.83,932.32 L1205.53,932.32 L1205.53,882.82 C1205.53,882.42 1205.33,881.92 1205.03,881.72 M1202.83,906.52 L1191.23,909.72 L1191.23,893.32 L1202.83,890.02 L1202.83,906.52 "/>
<path class="Accidental" d="M1474.4,854.618 C1473.8,850.718 1471.4,847.018 1466.3,847.018 C1461.3,847.018 1458.4,850.118 1457.9,850.718 L1458.3,818.618 C1458.3,817.818 1457.7,817.218 1456.9,817.218 L1455.7,817.218 C1454.9,817.218 1454.3,817.818 1454.3,818.618 L1454.8,878.718 C1454.8,879.518 1455.4,880.118 1456.2,880.118 C1456.4,880.118 1456.8,880.018 1457,879.918 C1457.4,879.718 1463.9,876.518 1469.3,870.418 C1473.1,866.118 1474.6,861.218 1474.6,857.118 C1474.6,856.218 1474.5,855.418 1474.4,854.618 M1467.5,858.518 C1467.5,860.018 1467.1,864.618 1464.6,868.418 C1462.9,871.018 1459.5,873.718 1457.6,875.218 L1457.9,855.718 C1458.1,854.818 1459.6,851.918 1463.6,851.918 C1467.2,851.918 1467.5,855.318 1467.5,857.418 L1467.5,858.518 "/>
<path class="Accidental" d="M1942.32,892.12 C1941.72,888.22 1939.32,884.52 1934.22,884.52 C1929.22,884.52 1926.32,887.62 1925.82,888.22 L1926.22,856.12 C1926.22,855.32 1925.62,854.72 1924.82,854.72 L1923.62,854.72 C1922.82,854.72 1922.22,855.32 1922.22,856.12 L1922.72,916.22 C1922.72,917.02 1923.32,917.62 1924.12,917.62 C1924.32,917.62 1924.72,917.52 1924.92,917.42 C1925.32,917.22 1931.82,914.02 1937.22,907.92 C1941.02,903.62 1942.52,898.72 1942.52,894.62 C1942.52,893.72 1942.42,892.92 1942.32,892.12 M1935.42,896.02 C1935.42,897.52 1935.02,902.12 1932.52,905.92 C1930.82,908.52 1927.42,911.22 1925.52,912.72 L1925.82,893.22 C1926.02,892.32 1927.52,889.42 1931.52,889.42 C1935.12,889.42 1935.42,892.82 1935.42,894.92 L1935.42,896.02 "/>
<path class="Accidental" d="M2079.58,904.621 C2078.98,900.721 2076.58,897.021 2071.48,897.021 C2066.48,897.021 2063.58,900.121 2063.08,900.721 L2063.48,868.621 C2063.48,867.821 2062.88,867.221 2062.08,867.221 L2060.88,867.221 C2060.08,867.221 2059.48,867.821 2059.48,868.621 L2059.98,928.721 C2059.98,929.521 2060.58,930.121 2061.38,930.121 C2061.58,930.121 2061.98,930.021 2062.18,929.921 C2062.58,929.721 2069.08,926.521 2074.48,920.421 C2078.28,916.121 2079.78,911.221 2079.78,907.121 C2079.78,906.221 2079.68,905.421 2079.58,904.621 M2072.68,908.521 C2072.68,910.021 2072.28,914.621 2069.78,918.421 C2068.08,921.021 2064.68,923.721 2062.78,925.221 L2063.08,905.721 C2063.28,904.821 2064.78,901.921 2068.78,901.921 C2072.38,901.921 2072.68,905.321 2072.68,907.421 L2072.68,908.521 "/>
<path class="Accidental" d="M2269.63,917.122 C2269.03,913.222 2266.63,909.522 2261.53,909.522 C2256.53,909.522 2253.63,912.622 2253.13,913.222 L2253.53,881.122 C2253.53,880.322 2252.93,879.722 2252.13,879.722 L2250.93,879.722 C2250.13,879.722 2249.53,880.322 2249.53,881.122 L2250.03,941.222 C2250.03,942.022 2250.63,942.622 2251.43,942.622 C2251.63,942.622 2252.03,942.522 2252.23,942.422 C2252.63,942.222 2259.13,939.022 2264.53,932.922 C2268.33,928.622 2269.83,923.722 2269.83,919.622 C2269.83,918.722 2269.73,917.922 2269.63,917.122 M2262.73,921.022 C2262.73,922.522 2262.33,927.122 2259.83,930.922 C2258.13,933.522 2254.73,936.222 2252.83,937.722 L2253.13,918.222 C2253.33,917.322 2254.83,914.422 2258.83,914.422 C2262.43,914.422 2262.73,917.822 2262.73,919.922 L2262.73,921.022 "/>
<path class="Accidental" d="M2523.27,942.124 C2522.67,938.224 2520.27,934.524 2515.17,934.524 C2510.17,934.524 2507.27,937.624 2506.77,938.224 L2507.17,906.124 C2507.17,905.324 2506.57,904.724 2505.77,904.724 L2504.57,904.724 C2503.77,904.724 2503.17,905.324 2503.17,906.124 L2503.67,966.224 C2503.67,967.024 2504.27,967.624 2505.07,967.624 C2505.27,967.624 2505.67,967.524 2505.87,967.424 C2506.27,967.224 2512.77,964.024 2518.17,957.924 C2521.97,953.624 2523.47,948.724 2523.47,944.624 C2523.47,943.724 2523.37,942.924 2523.27,942.124 M2516.37,946.024 C2516.37,947.524 2515.97,952.124 2513.47,955.924 C2511.77,958.524 2508.37,961.224 2506.47,962.724 L2506.77,943.224 C2506.97,942.324 2508.47,939.424 2512.47,939.424 C2516.07,939.424 2516.37,942.824 2516.37,944.924 L2516.37,946.024 "/>
<path class="Accidental" d="M475.102,742.111 C474.502,738.211 472.102,734.511 467.002,734.511 C462.002,734.511 459.102,737.611 458.602,738.211 L459.002,706.111 C459.002,705.311 458.402,704.711 457.602,704.711 L456.402,704.711 C455.602,704.711 455.002,705.311 455.002,706.111 L455.502,766.211 C455.502,767.011 456.102,767.611 456.902,767.611 C457.102,767.611 457.502,767.511 457.702,767.411 C458.102,767.211 464.602,764.011 470.002,757.911 C473.802,753.611 475.302,748.711 475.302,744.611 C475.302,743.711 475.202,742.911 475.102,742.111 M468.202,746.011 C468.202,747.511 467.802,752.111 465.302,755.911 C463.602,758.511 460.202,761.211 458.302,762.711 L458.602,743.211 C458.802,742.311 460.302,739.411 464.302,739.411 C467.902,739.411 468.202,742.811 468.202,744.911 L468.202,746.011 "/>
<path class="Accidental" d="M744.355,717.109 C743.755,713.209 741.355,709.509 736.255,709.509 C731.255,709.509 728.355,712.609 727.855,713.209 L728.255,681.109 C728.255,680.309 727.655,679.709 726.855,679.709 L725.655,679.709 C724.855,679.709 724.255,680.309 724.255,681.109 L724.755,741.209 C724.755,742.009 725.355,742.609 726.155,742.609 C726.355,742.609 726.755,742.509 726.955,742.409 C727.355,742.209 733.855,739.009 739.255,732.909 C743.055,728.609 744.555,723.709 744.555,719.609 C744.555,718.709 744.455,717.909 744.355,717.109 M737.455,721.009 C737.455,722.509 737.055,727.109 734.555,730.909 C732.855,733.509 729.455,736.209 727.555,737.709 L727.855,718.209 C728.055,717.309 729.555,714.409 733.555,714.409 C737.155,714.409 737.455,717.809 737.455,719.909 L737.455,721.009 "/>
<path class="Accidental" d="M878.981,704.609 C878.381,700.709 875.981,697.009 870.881,697.009 C865.881,697.009 862.981,700.109 862.481,700.709 L862.881,668.609 C862.881,667.809 862.281,667.209 861.481,667.209 L860.281,667.209 C859.481,667.209 858.881,667.809 858.881,668.609 L859.381,728.709 C859.381,729.509 859.981,730.109 860.781,730.109 C860.981,730.109 861.381,730.009 861.581,729.909 C861.981,729.709 868.481,726.509 873.881,720.409 C877.681,716.109 879.181,711.209 879.181,707.109 C879.181,706.209 879.081,705.409 878.981,704.609 M872.081,708.509 C872.081,710.009 871.681,714.609 869.181,718.409 C867.481,721.009 864.081,723.709 862.181,725.209 L862.481,705.709 C862.681,704.809 864.181,701.909 868.181,701.909 C871.781,701.909 872.081,705.309 872.081,707.409 L872.081,708.509 "/>
<path class="Accidental" d="M1066.41,692.108 C1065.81,688.208 1063.41,684.508 1058.31,684.508 C1053.31,684.508 1050.41,687.608 1049.91,688.208 L1050.31,656.108 C1050.31,655.308 1049.71,654.708 1048.91,654.708 L1047.71,654.708 C1046.91,654.708 1046.31,655.308 1046.31,656.108 L1046.81,716.208 C1046.81,717.008 1047.41,717.608 1048.21,717.608 C1048.41,717.608 1048.81,717.508 1049.01,717.408 C1049.41,717.208 1055.91,714.008 1061.31,707.908 C1065.11,703.608 1066.61,698.708 1066.61,694.608 C1066.61,693.708 1066.51,692.908 1066.41,692.108 M1059.51,696.008 C1059.51,697.508 1059.11,702.108 1056.61,705.908 C1054.91,708.508 1051.51,711.208 1049.61,712.708 L1049.91,693.208 C1050.11,692.308 1051.61,689.408 1055.61,689.408 C1059.21,689.408 1059.51,692.808 1059.51,694.908 L1059.51,696.008 "/>
<path class="Accidental" d="M1205.03,681.708 C1204.83,681.508 1204.53,681.408 1204.23,681.408 C1204.13,681.408 1203.93,681.508 1203.83,681.508 L1191.23,685.008 L1191.23,667.508 L1188.43,667.508 L1188.43,717.008 C1188.43,717.808 1189.03,718.308 1189.83,718.308 L1190.23,718.308 L1202.83,714.808 L1202.83,732.308 L1205.53,732.308 L1205.53,682.808 C1205.53,682.408 1205.33,681.908 1205.03,681.708 M1202.83,706.508 L1191.23,709.708 L1191.23,693.308 L1202.83,690.008 L1202.83,706.508 "/>
<path class="Accidental" d="M1483.15,654.606 C1482.55,650.706 1480.15,647.006 1475.05,647.006 C1470.05,647.006 1467.15,650.106 1466.65,650.706 L1467.05,618.606 C1467.05,617.806 1466.45,617.206 1465.65,617.206 L1464.45,617.206 C1463.65,617.206 1463.05,617.806 1463.05,618.606 L1463.55,678.706 C1463.55,679.506 1464.15,680.106 1464.95,680.106 C1465.15,680.106 1465.55,680.006 1465.75,679.906 C1466.15,679.706 1472.65,676.506 1478.05,670.406 C1481.85,666.106 1483.35,661.206 1483.35,657.106 C1483.35,656.206 1483.25,655.406 1483.15,654.606 M1476.25,658.506 C1476.25,660.006 1475.85,664.606 1473.35,668.406 C1471.65,671.006 1468.25,673.706 1466.35,675.206 L1466.65,655.706 C1466.85,654.806 1468.35,651.906 1472.35,651.906 C1475.95,651.906 1476.25,655.306 1476.25,657.406 L1476.25,658.506 "/>
<path class="Accidental" d="M1942.32,692.108 C1941.72,688.208 1939.32,684.508 1934.22,684.508 C1929.22,684.508 1926.32,687.608 1925.82,688.208 L1926.22,656.108 C1926.22,655.308 1925.62,654.708 1924.82,654.708 L1923.62,654.708 C1922.82,654.708 1922.22,655.308 1922.22,656.108 L1922.72,716.208 C1922.72,717.008 1923.32,717.608 1924.12,717.608 C1924.32,717.608 1924.72,717.508 1924.92,717.408 C1925.32,717.208 1931.82,714.008 1937.22,707.908 C1941.02,703.608 1942.52,698.708 1942.52,694.608 C1942.52,693.708 1942.42,692.908 1942.32,692.108 M1935.42,696.008 C1935.42,697.508 1935.02,702.108 1932.52,705.908 C1930.82,708.508 1927.42,711.208 1925.52,712.708 L1925.82,693.208 C1926.02,692.308 1927.52,689.408 1931.52,689.408 C1935.12,689.408 1935.42,692.808 1935.42,694.908 L1935.42,696.008 "/>
<path class="Accidental" d="M2079.58,704.609 C2078.98,700.709 2076.58,697.009 2071.48,697.009 C2066.48,697.009 2063.58,700.109 2063.08,700.709 L2063.48,668.609 C2063.48,667.809 2062.88,667.209 2062.08,667.209 L2060.88,667.209 C2060.08,667.209 2059.48,667.809 2059.48,668.609 L2059.98,728.709 C2059.98,729.509 2060.58,730.109 2061.38,730.109 C2061.58,730.109 2061.98,730.009 2062.18,729.909 C2062.58,729.709 2069.08,726.509 2074.48,720.409 C2078.28,716.109 2079.78,711.209 2079.78,707.109 C2079.78,706.209 2079.68,705.409 2079.58,704.609 M2072.68,708.509 C2072.68,710.009 2072.28,714.609 2069.78,718.409 C2068.08,721.009 2064.68,723.709 2062.78,725.209 L2063.08,705.709 C2063.28,704.809 2064.78,701.909 2068.78,701.909 C2072.38,701.909 2072.68,705.309 2072.68,707.409 L2072.68,708.509 "/>
<path class="Accidental" d="M2269.63,717.109 C2269.03,713.209 2266.63,709.509 2261.53,709.509 C2256.53,709.509 2253.63,712.609 2253.13,713.209 L2253.53,681.109 C2253.53,680.309 2252.93,679.709 2252.13,679.709 L2250.93,679.709 C2250.13,679.709 2249.53,680.309 2249.53,681.109 L2250.03,741.209 C2250.03,742.009 2250.63,742.609 2251.43,742.609 C2251.63,742.609 2252.03,742.509 2252.23,742.409 C2252.63,742.209 2259.13,739.009 2264.53,732.909 C2268.33,728.609 2269.83,723.709 2269.83,719.609 C2269.83,718.709 2269.73,717.909 2269.63,717.109 M2262.73,721.009 C2262.73,722.509 2262.33,727.109 2259.83,730.909 C2258.13,733.509 2254.73,736.209 2252.83,737.709 L2253.13,718.209 C2253.33,717.309 2254.83,714.409 2258.83,714.409 C2262.43,714.409 2262.73,717.809 2262.73,719.909 L2262.73,721.009 "/>
<path class="Accidental" d="M2523.27,742.111 C2522.67,738.211 2520.27,734.511 2515.17,734.511 C2510.17,734.511 2507.27,737.611 2506.77,738.211 L2507.17,706.111 C2507.17,705.311 2506.57,704.711 2505.77,704.711 L2504.57,704.711 C2503.77,704.711 2503.17,705.311 2503.17,706.111 L2503.67,766.211 C2503.67,767.011 2504.27,767.611 2505.07,767.611 C2505.27,767.611 2505.67,767.511 2505.87,767.411 C2506.27,767.211 2512.77,764.011 2518.17,757.911 C2521.97,753.611 2523.47,748.711 2523.47,744.611 C2523.47,743.711 2523.37,742.911 2523.27,742.111 M2516.37,746.011 C2516.37,747.511 2515.97,752.111 2513.47,755.911 C2511.77,758.511 2508.37,761.211 2506.47,762.711 L2506.77,743.211 C2506.97,742.311 2508.47,739.411 2512.47,739.411 C2516.07,739.411 2516.37,742.811 2516.37,744.911 L2516.37,746.011 "/>
<polyline class="LedgerLine" fill="none" stroke="#000000" stroke-width="4.00" stroke-linejoin="bevel" points="1341.94,887.52 1391.93,887.52"/>
<polyline class="LedgerLine" fill="none" stroke="#000000" stroke-width="4.00" stroke-linejoin="bevel" points="1480.85,887.52 1530.85,887.52"/>
<polyline class="LedgerLine" fill="none" stroke="#000000" stroke-width="4.00" stroke-linejoin="bevel" points="1480.85,862.518 1530.85,862.518"/>
<polyline class="LedgerLine" fill="none" stroke="#000000" stroke-width="4.00" stroke-linejoin="bevel" points="1665.52,887.52 1715.51,887.52"/>
<polyline class="Stem" fill="none" stroke="#000000" stroke-width="2.75" stroke-linejoin="bevel" points="482.926,953.544 482.926,1031.28"/>
<polyline class="Stem" fill="none" stroke="#000000" stroke-width="2.75" stroke-linejoin="bevel" points="617.552,941.043 617.552,1021.9"/>
<polyline class="Stem" fill="none" stroke="#000000" stroke-width="2.75" stroke-linejoin="bevel" points="752.178,928.542 752.178,1012.53"/>
<polyline class="Stem" fill="none" stroke="#000000" stroke-width="2.75" stroke-linejoin="bevel" points="886.804,916.042 886.804,1000.03"/>
<polyline class="Stem" fill="none" stroke="#000000" stroke-width="2.75" stroke-linejoin="bevel" points="1074.23,903.541 1074.23,987.526"/>
<polyline class="Stem" fill="none" stroke="#000000" stroke-width="2.75" stroke-linejoin="bevel" points="1213.15,903.541 1213.15,987.526"/>
<polyline class="Stem" fill="none" stroke="#000000" stroke-width="2.75" stroke-linejoin="bevel" points="1352.06,878.539 1352.06,962.524"/>
<polyline class="Stem" fill="none" stroke="#000000" stroke-width="2.75" stroke-linejoin="bevel" points="1490.98,866.038 1490.98,962.524"/>
<polyline class="Stem" fill="none" stroke="#000000" stroke-width="2.75" stroke-linejoin="bevel" points="1675.65,878.539 1675.65,962.524"/>
<polyline class="Stem" fill="none" stroke="#000000" stroke-width="2.75" stroke-linejoin="bevel" points="1812.9,903.541 1812.9,987.526"/>
<polyline class="Stem" fill="none" stroke="#000000" stroke-width="2.75" stroke-linejoin="bevel" points="1950.15,903.541 1950.15,987.526"/>
<polyline class="Stem" fill="none" stroke="#000000" stroke-width="2.75" stroke-linejoin="bevel" points="2087.4,916.042 2087.4,1000.03"/>
<polyline class="Stem" fill="none" stroke="#000000" stroke-width="2.75" stroke-linejoin="bevel" points="2277.45,928.542 2277.45,1012.53"/>
<polyline class="Stem" fill="none" stroke="#000000" stroke-width="2.75" stroke-linejoin="bevel" points="2404.27,941.043 2404.27,1021.9"/>
<polyline class="Stem" fill="none" stroke="#000000" stroke-width="2.75" stroke-linejoin="bevel" points="2531.09,953.464 2531.09,1031.28"/>
<polyline class="Stem" fill="none" stroke="#000000" stroke-width="2.75" stroke-linejoin="bevel" points="512.67,746.651 512.67,662.506"/>
<polyline class="Stem" fill="none" stroke="#000000" stroke-width="2.75" stroke-linejoin="bevel" points="647.296,734.15 647.296,650.005"/>
<polyline class="Stem" fill="none" stroke="#000000" stroke-width="2.75" stroke-linejoin="bevel" points="781.922,721.649 781.922,640.629"/>
<polyline class="Stem" fill="none" stroke="#000000" stroke-width="2.75" stroke-linejoin="bevel" points="916.548,709.148 916.548,631.254"/>
<polyline class="Stem" fill="none" stroke="#000000" stroke-width="2.75" stroke-linejoin="bevel" points="1074.23,703.528 1074.23,778.138"/>
<polyline class="Stem" fill="none" stroke="#000000" stroke-width="2.75" stroke-linejoin="bevel" points="1213.15,703.528 1213.15,778.138"/>
<polyline class="Stem" fill="none" stroke="#000000" stroke-width="2.75" stroke-linejoin="bevel" points="1352.06,678.527 1352.06,759.387"/>
<polyline class="Stem" fill="none" stroke="#000000" stroke-width="2.75" stroke-linejoin="bevel" points="1490.98,666.026 1490.98,750.011"/>
<polyline class="Stem" fill="none" stroke="#000000" stroke-width="2.75" stroke-linejoin="bevel" points="1675.65,678.527 1675.65,759.387"/>
<polyline class="Stem" fill="none" stroke="#000000" stroke-width="2.75" stroke-linejoin="bevel" points="1812.9,703.528 1812.9,778.138"/>
<polyline class="Stem" fill="none" stroke="#000000" stroke-width="2.75" stroke-linejoin="bevel" points="1950.15,703.528 1950.15,778.138"/>
<polyline class="Stem" fill="none" stroke="#000000" stroke-width="2.75" stroke-linejoin="bevel" points="2117.14,709.148 2117.14,631.254"/>
<polyline class="Stem" fill="none" stroke="#000000" stroke-width="2.75" stroke-linejoin="bevel" points="2307.19,721.649 2307.19,640.629"/>
<polyline class="Stem" fill="none" stroke="#000000" stroke-width="2.75" stroke-linejoin="bevel" points="2434.01,734.15 2434.01,650.005"/>
<polyline class="Stem" fill="none" stroke="#000000" stroke-width="2.75" stroke-linejoin="bevel" points="2560.83,746.571 2560.83,662.506"/>
<path class="Note" d="M513.051,941.824 C511.551,939.124 508.651,937.424 504.751,937.024 C504.151,936.924 503.651,936.924 503.051,936.924 C499.551,936.924 495.751,937.924 492.251,939.824 C485.651,943.424 481.551,949.324 481.551,954.424 C481.551,955.824 481.751,957.124 482.451,958.324 C483.951,961.024 486.951,962.724 490.851,963.124 C491.451,963.224 491.951,963.224 492.551,963.224 C496.051,963.224 499.751,962.224 503.251,960.324 C509.851,956.724 514.051,950.924 514.051,945.824 C514.051,944.424 513.751,943.024 513.051,941.824"/>
<path class="Note" d="M647.677,929.323 C646.177,926.623 643.277,924.923 639.377,924.523 C638.777,924.423 638.277,924.423 637.677,924.423 C634.177,924.423 630.377,925.423 626.877,927.323 C620.277,930.923 616.177,936.823 616.177,941.923 C616.177,943.323 616.377,944.623 617.077,945.823 C618.577,948.523 621.577,950.223 625.477,950.623 C626.077,950.723 626.577,950.723 627.177,950.723 C630.677,950.723 634.377,949.723 637.877,947.823 C644.477,944.223 648.677,938.423 648.677,933.323 C648.677,931.923 648.377,930.523 647.677,929.323"/>
<path class="Note" d="M782.303,916.822 C780.803,914.122 777.903,912.422 774.003,912.022 C773.403,911.922 772.903,911.922 772.303,911.922 C768.803,911.922 765.003,912.922 761.503,914.822 C754.903,918.422 750.803,924.322 750.803,929.422 C750.803,930.822 751.003,932.122 751.703,933.322 C753.203,936.022 756.203,937.722 760.103,938.122 C760.703,938.222 761.203,938.222 761.803,938.222 C765.303,938.222 769.003,937.222 772.503,935.322 C779.103,931.722 783.303,925.922 783.303,920.822 C783.303,919.422 783.003,918.022 782.303,916.822"/>
<path class="Note" d="M916.929,904.321 C915.429,901.621 912.529,899.921 908.629,899.521 C908.029,899.421 907.529,899.421 906.929,899.421 C903.429,899.421 899.629,900.421 896.129,902.321 C889.529,905.921 885.429,911.821 885.429,916.921 C885.429,918.321 885.629,919.621 886.329,920.821 C887.829,923.521 890.829,925.221 894.729,925.621 C895.329,925.721 895.829,925.721 896.429,925.721 C899.929,925.721 903.629,924.721 907.129,922.821 C913.729,919.221 917.929,913.421 917.929,908.321 C917.929,906.921 917.629,905.521 916.929,904.321"/>
<path class="Note" d="M1104.36,891.82 C1102.86,889.12 1099.96,887.42 1096.06,887.02 C1095.46,886.92 1094.96,886.92 1094.36,886.92 C1090.86,886.92 1087.06,887.92 1083.56,889.82 C1076.96,893.42 1072.86,899.32 1072.86,904.42 C1072.86,905.82 1073.06,907.12 1073.76,908.32 C1075.26,911.02 1078.26,912.72 1082.16,913.12 C1082.76,913.22 1083.26,913.22 1083.86,913.22 C1087.36,913.22 1091.06,912.22 1094.56,910.32 C1101.16,906.72 1105.36,900.92 1105.36,895.82 C1105.36,894.42 1105.06,893.02 1104.36,891.82"/>
<path class="Note" d="M1243.27,891.82 C1241.77,889.12 1238.87,887.42 1234.97,887.02 C1234.37,886.92 1233.87,886.92 1233.27,886.92 C1229.77,886.92 1225.97,887.92 1222.47,889.82 C1215.87,893.42 1211.77,899.32 1211.77,904.42 C1211.77,905.82 1211.97,907.12 1212.67,908.32 C1214.17,911.02 1217.17,912.72 1221.07,913.12 C1221.67,913.22 1222.17,913.22 1222.77,913.22 C1226.27,913.22 1229.97,912.22 1233.47,910.32 C1240.07,906.72 1244.27,900.92 1244.27,895.82 C1244.27,894.42 1243.97,893.02 1243.27,891.82"/>
<path class="Note" d="M1382.19,866.819 C1380.69,864.119 1377.79,862.419 1373.89,862.019 C1373.29,861.919 1372.79,861.919 1372.19,861.919 C1368.69,861.919 1364.89,862.919 1361.39,864.819 C1354.79,868.419 1350.69,874.319 1350.69,879.419 C1350.69,880.819 1350.89,882.119 1351.59,883.319 C1353.09,886.019 1356.09,887.719 1359.99,888.119 C1360.59,888.219 1361.09,888.219 1361.69,888.219 C1365.19,888.219 1368.89,887.219 1372.39,885.319 C1378.99,881.719 1383.19,875.919 1383.19,870.819 C1383.19,869.419 1382.89,868.019 1382.19,866.819"/>
<path class="Note" d="M1521.1,854.318 C1519.6,851.618 1516.7,849.918 1512.8,849.518 C1512.2,849.418 1511.7,849.418 1511.1,849.418 C1507.6,849.418 1503.8,850.418 1500.3,852.318 C1493.7,855.918 1489.6,861.818 1489.6,866.918 C1489.6,868.318 1489.8,869.618 1490.5,870.818 C1492,873.518 1495,875.218 1498.9,875.618 C1499.5,875.718 1500,875.718 1500.6,875.718 C1504.1,875.718 1507.8,874.718 1511.3,872.818 C1517.9,869.218 1522.1,863.418 1522.1,858.318 C1522.1,856.918 1521.8,855.518 1521.1,854.318"/>
<path class="Note" d="M1705.77,866.819 C1704.27,864.119 1701.37,862.419 1697.47,862.019 C1696.87,861.919 1696.37,861.919 1695.77,861.919 C1692.27,861.919 1688.47,862.919 1684.97,864.819 C1678.37,868.419 1674.27,874.319 1674.27,879.419 C1674.27,880.819 1674.47,882.119 1675.17,883.319 C1676.67,886.019 1679.67,887.719 1683.57,888.119 C1684.17,888.219 1684.67,888.219 1685.27,888.219 C1688.77,888.219 1692.47,887.219 1695.97,885.319 C1702.57,881.719 1706.77,875.919 1706.77,870.819 C1706.77,869.419 1706.47,868.019 1705.77,866.819"/>
<path class="Note" d="M1843.02,891.82 C1841.52,889.12 1838.62,887.42 1834.72,887.02 C1834.12,886.92 1833.62,886.92 1833.02,886.92 C1829.52,886.92 1825.72,887.92 1822.22,889.82 C1815.62,893.42 1811.52,899.32 1811.52,904.42 C1811.52,905.82 1811.72,907.12 1812.42,908.32 C1813.92,911.02 1816.92,912.72 1820.82,913.12 C1821.42,913.22 1821.92,913.22 1822.52,913.22 C1826.02,913.22 1829.72,912.22 1833.22,910.32 C1839.82,906.72 1844.02,900.92 1844.02,895.82 C1844.02,894.42 1843.72,893.02 1843.02,891.82"/>
<path class="Note" d="M1980.27,891.82 C1978.77,889.12 1975.87,887.42 1971.97,887.02 C1971.37,886.92 1970.87,886.92 1970.27,886.92 C1966.77,886.92 1962.97,887.92 1959.47,889.82 C1952.87,893.42 1948.77,899.32 1948.77,904.42 C1948.77,905.82 1948.97,907.12 1949.67,908.32 C1951.17,911.02 1954.17,912.72 1958.07,913.12 C1958.67,913.22 1959.17,913.22 1959.77,913.22 C1963.27,913.22 1966.97,912.22 1970.47,910.32 C1977.07,906.72 1981.27,900.92 1981.27,895.82 C1981.27,894.42 1980.97,893.02 1980.27,891.82"/>
<path class="Note" d="M2117.52,904.321 C2116.02,901.621 2113.12,899.921 2109.22,899.521 C2108.62,899.421 2108.12,899.421 2107.52,899.421 C2104.02,899.421 2100.22,900.421 2096.72,902.321 C2090.12,905.921 2086.02,911.821 2086.02,916.921 C2086.02,918.321 2086.22,919.621 2086.92,920.821 C2088.42,923.521 2091.42,925.221 2095.32,925.621 C2095.92,925.721 2096.42,925.721 2097.02,925.721 C2100.52,925.721 2104.22,924.721 2107.72,922.821 C2114.32,919.221 2118.52,913.421 2118.52,908.321 C2118.52,906.921 2118.22,905.521 2117.52,904.321"/>
<path class="Note" d="M2307.58,916.822 C2306.08,914.122 2303.18,912.422 2299.28,912.022 C2298.68,911.922 2298.18,911.922 2297.58,911.922 C2294.08,911.922 2290.28,912.922 2286.78,914.822 C2280.18,918.422 2276.08,924.322 2276.08,929.422 C2276.08,930.822 2276.28,932.122 2276.98,933.322 C2278.48,936.022 2281.48,937.722 2285.38,938.122 C2285.98,938.222 2286.48,938.222 2287.08,938.222 C2290.58,938.222 2294.28,937.222 2297.78,935.322 C2304.38,931.722 2308.58,925.922 2308.58,920.822 C2308.58,919.422 2308.28,918.022 2307.58,916.822"/>
<path class="Note" d="M2434.4,929.323 C2432.9,926.623 2430,924.923 2426.1,924.523 C2425.5,924.423 2425,924.423 2424.4,924.423 C2420.9,924.423 2417.1,925.423 2413.6,927.323 C2407,930.923 2402.9,936.823 2402.9,941.923 C2402.9,943.323 2403.1,944.623 2403.8,945.823 C2405.3,948.523 2408.3,950.223 2412.2,950.623 C2412.8,950.723 2413.3,950.723 2413.9,950.723 C2417.4,950.723 2421.1,949.723 2424.6,947.823 C2431.2,944.223 2435.4,938.423 2435.4,933.323 C2435.4,931.923 2435.1,930.523 2434.4,929.323"/>
<path class="Note" d="M2561.22,941.824 C2559.72,939.124 2556.82,937.424 2552.92,937.024 C2552.32,936.924 2551.82,936.924 2551.22,936.924 C2547.72,936.924 2543.92,937.924 2540.42,939.824 C2533.82,943.424 2529.72,949.224 2529.72,954.324 C2529.72,955.724 2530.12,957.124 2530.82,958.324 C2532.32,961.124 2535.12,962.724 2539.02,963.124 C2539.62,963.224 2540.12,963.224 2540.72,963.224 C2544.22,963.224 2548.02,962.224 2551.52,960.324 C2558.12,956.724 2562.22,950.824 2562.22,945.724 C2562.22,944.324 2561.92,943.024 2561.22,941.824 M2557.02,948.124 C2555.32,949.924 2552.12,952.224 2548.52,954.324 C2544.92,956.424 2541.22,958.124 2538.92,958.824 C2538.42,958.924 2537.82,959.024 2537.32,959.024 C2535.82,959.024 2534.52,958.324 2533.82,957.224 C2533.52,956.624 2533.32,956.024 2533.32,955.424 C2533.32,954.324 2533.82,953.224 2534.92,952.024 C2536.62,950.224 2539.82,947.824 2543.42,945.724 C2547.02,943.624 2550.72,941.924 2553.12,941.324 L2553.32,941.324 C2553.92,941.124 2554.42,941.024 2554.92,941.024 C2556.32,941.024 2557.42,941.624 2558.12,942.924 C2558.42,943.524 2558.62,944.024 2558.62,944.624 C2558.62,945.924 2557.92,947.224 2557.02,948.124"/>
<path class="Note" d="M513.051,741.811 C511.551,739.111 508.651,737.411 504.751,737.011 C504.151,736.911 503.651,736.911 503.051,736.911 C499.551,736.911 495.751,737.911 492.251,739.811 C485.651,743.411 481.551,749.311 481.551,754.411 C481.551,755.811 481.751,757.111 482.451,758.311 C483.951,761.011 486.951,762.711 490.851,763.111 C491.451,763.211 491.951,763.211 492.551,763.211 C496.051,763.211 499.751,762.211 503.251,760.311 C509.851,756.711 514.051,750.911 514.051,745.811 C514.051,744.411 513.751,743.011 513.051,741.811"/>
<path class="Note" d="M647.677,729.31 C646.177,726.61 643.277,724.91 639.377,724.51 C638.777,724.41 638.277,724.41 637.677,724.41 C634.177,724.41 630.377,725.41 626.877,727.31 C620.277,730.91 616.177,736.81 616.177,741.91 C616.177,743.31 616.377,744.61 617.077,745.81 C618.577,748.51 621.577,750.21 625.477,750.61 C626.077,750.71 626.577,750.71 627.177,750.71 C630.677,750.71 634.377,749.71 637.877,747.81 C644.477,744.21 648.677,738.41 648.677,733.31 C648.677,731.91 648.377,730.51 647.677,729.31"/>
<path class="Note" d="M782.303,716.809 C780.803,714.109 777.903,712.409 774.003,712.009 C773.403,711.909 772.903,711.909 772.303,711.909 C768.803,711.909 765.003,712.909 761.503,714.809 C754.903,718.409 750.803,724.309 750.803,729.409 C750.803,730.809 751.003,732.109 751.703,733.309 C753.203,736.009 756.203,737.709 760.103,738.109 C760.703,738.209 761.203,738.209 761.803,738.209 C765.303,738.209 769.003,737.209 772.503,735.309 C779.103,731.709 783.303,725.909 783.303,720.809 C783.303,719.409 783.003,718.009 782.303,716.809"/>
<path class="Note" d="M916.929,704.309 C915.429,701.609 912.529,699.909 908.629,699.509 C908.029,699.409 907.529,699.409 906.929,699.409 C903.429,699.409 899.629,700.409 896.129,702.309 C889.529,705.909 885.429,711.809 885.429,716.909 C885.429,718.309 885.629,719.609 886.329,720.809 C887.829,723.509 890.829,725.209 894.729,725.609 C895.329,725.709 895.829,725.709 896.429,725.709 C899.929,725.709 903.629,724.709 907.129,722.809 C913.729,719.209 917.929,713.409 917.929,708.309 C917.929,706.909 917.629,705.509 916.929,704.309"/>
<path class="Note" d="M1104.36,691.808 C1102.86,689.108 1099.96,687.408 1096.06,687.008 C1095.46,686.908 1094.96,686.908 1094.36,686.908 C1090.86,686.908 1087.06,687.908 1083.56,689.808 C1076.96,693.408 1072.86,699.308 1072.86,704.408 C1072.86,705.808 1073.06,707.108 1073.76,708.308 C1075.26,711.008 1078.26,712.708 1082.16,713.108 C1082.76,713.208 1083.26,713.208 1083.86,713.208 C1087.36,713.208 1091.06,712.208 1094.56,710.308 C1101.16,706.708 1105.36,700.908 1105.36,695.808 C1105.36,694.408 1105.06,693.008 1104.36,691.808"/>
<path class="Note" d="M1243.27,691.808 C1241.77,689.108 1238.87,687.408 1234.97,687.008 C1234.37,686.908 1233.87,686.908 1233.27,686.908 C1229.77,686.908 1225.97,687.908 1222.47,689.808 C1215.87,693.408 1211.77,699.308 1211.77,704.408 C1211.77,705.808 1211.97,707.108 1212.67,708.308 C1214.17,711.008 1217.17,712.708 1221.07,713.108 C1221.67,713.208 1222.17,713.208 1222.77,713.208 C1226.27,713.208 1229.97,712.208 1233.47,710.308 C1240.07,706.708 1244.27,700.908 1244.27,695.808 C1244.27,694.408 1243.97,693.008 1243.27,691.808"/>
<path class="Note" d="M1382.19,666.806 C1380.69,664.106 1377.79,662.406 1373.89,662.006 C1373.29,661.906 1372.79,661.906 1372.19,661.906 C1368.69,661.906 1364.89,662.906 1361.39,664.806 C1354.79,668.406 1350.69,674.306 1350.69,679.406 C1350.69,680.806 1350.89,682.106 1351.59,683.306 C1353.09,686.006 1356.09,687.706 1359.99,688.106 C1360.59,688.206 1361.09,688.206 1361.69,688.206 C1365.19,688.206 1368.89,687.206 1372.39,685.306 C1378.99,681.706 1383.19,675.906 1383.19,670.806 C1383.19,669.406 1382.89,668.006 1382.19,666.806"/>
<path class="Note" d="M1521.1,654.306 C1519.6,651.606 1516.7,649.906 1512.8,649.506 C1512.2,649.406 1511.7,649.406 1511.1,649.406 C1507.6,649.406 1503.8,650.406 1500.3,652.306 C1493.7,655.906 1489.6,661.806 1489.6,666.906 C1489.6,668.306 1489.8,669.606 1490.5,670.806 C1492,673.506 1495,675.206 1498.9,675.606 C1499.5,675.706 1500,675.706 1500.6,675.706 C1504.1,675.706 1507.8,674.706 1511.3,672.806 C1517.9,669.206 1522.1,663.406 1522.1,658.306 C1522.1,656.906 1521.8,655.506 1521.1,654.306"/>
<path class="Note" d="M1705.77,666.806 C1704.27,664.106 1701.37,662.406 1697.47,662.006 C1696.87,661.906 1696.37,661.906 1695.77,661.906 C1692.27,661.906 1688.47,662.906 1684.97,664.806 C1678.37,668.406 1674.27,674.306 1674.27,679.406 C1674.27,680.806 1674.47,682.106 1675.17,683.306 C1676.67,686.006 1679.67,687.706 1683.57,688.106 C1684.17,688.206 1684.67,688.206 1685.27,688.206 C1688.77,688.206 1692.47,687.206 1695.97,685.306 C1702.57,681.706 1706.77,675.906 1706.77,670.806 C1706.77,669.406 1706.47,668.006 1705.77,666.806"/>
<path class="Note" d="M1843.02,691.808 C1841.52,689.108 1838.62,687.408 1834.72,687.008 C1834.12,686.908 1833.62,686.908 1833.02,686.908 C1829.52,686.908 1825.72,687.908 1822.22,689.808 C1815.62,693.408 1811.52,699.308 1811.52,704.408 C1811.52,705.808 1811.72,707.108 1812.42,708.308 C1813.92,711.008 1816.92,712.708 1820.82,713.108 C1821.42,713.208 1821.92,713.208 1822.52,713.208 C1826.02,713.208 1829.72,712.208 1833.22,710.308 C1839.82,706.708 1844.02,700.908 1844.02,695.808 C1844.02,694.408 1843.72,693.008 1843.02,691.808"/>
<path class="Note" d="M1980.27,691.808 C1978.77,689.108 1975.87,687.408 1971.97,687.008 C1971.37,686.908 1970.87,686.908 1970.27,686.908 C1966.77,686.908 1962.97,687.908 1959.47,689.808 C1952.87,693.408 1948.77,699.308 1948.77,704.408 C1948.77,705.808 1948.97,707.108 1949.67,708.308 C1951.17,711.008 1954.17,712.708 1958.07,713.108 C1958.67,713.208 1959.17,713.208 1959.77,713.208 C1963.27,713.208 1966.97,712.208 1970.47,710.308 C1977.07,706.708 1981.27,700.908 1981.27,695.808 C1981.27,694.408 1980.97,693.008 1980.27,691.808"/>
<path class="Note" d="M2117.52,704.309 C2116.02,701.609 2113.12,699.909 2109.22,699.509 C2108.62,699.409 2108.12,699.409 2107.52,699.409 C2104.02,699.409 2100.22,700.409 2096.72,702.309 C2090.12,705.909 2086.02,711.809 2086.02,716.909 C2086.02,718.309 2086.22,719.609 2086.92,720.809 C2088.42,723.509 2091.42,725.209 2095.32,725.609 C2095.92,725.709 2096.42,725.709 2097.02,725.709 C2100.52,725.709 2104.22,724.709 2107.72,722.809 C2114.32,719.209 2118.52,713.409 2118.52,708.309 C2118.52,706.909 2118.22,705.509 2117.52,704.309"/>
<path class="Note" d="M2307.58,716.809 C2306.08,714.109 2303.18,712.409 2299.28,712.009 C2298.68,711.909 2298.18,711.909 2297.58,711.909 C2294.08,711.909 2290.28,712.909 2286.78,714.809 C2280.18,718.409 2276.08,724.309 2276.08,729.409 C2276.08,730.809 2276.28,732.109 2276.98,733.309 C2278.48,736.009 2281.48,737.709 2285.38,738.109 C2285.98,738.209 2286.48,738.209 2287.08,738.209 C2290.58,738.209 2294.28,737.209 2297.78,735.309 C2304.38,731.709 2308.58,725.909 2308.58,720.809 C2308.58,719.409 2308.28,718.009 2307.58,716.809"/>
<path class="Note" d="M2434.4,729.31 C2432.9,726.61 2430,724.91 2426.1,724.51 C2425.5,724.41 2425,724.41 2424.4,724.41 C2420.9,724.41 2417.1,725.41 2413.6,727.31 C2407,730.91 2402.9,736.81 2402.9,741.91 C2402.9,743.31 2403.1,744.61 2403.8,745.81 C2405.3,748.51 2408.3,750.21 2412.2,750.61 C2412.8,750.71 2413.3,750.71 2413.9,750.71 C2417.4,750.71 2421.1,749.71 2424.6,747.81 C2431.2,744.21 2435.4,738.41 2435.4,733.31 C2435.4,731.91 2435.1,730.51 2434.4,729.31"/>
<path class="Note" d="M2561.22,741.811 C2559.72,739.111 2556.82,737.411 2552.92,737.011 C2552.32,736.911 2551.82,736.911 2551.22,736.911 C2547.72,736.911 2543.92,737.911 2540.42,739.811 C2533.82,743.411 2529.72,749.211 2529.72,754.311 C2529.72,755.711 2530.12,757.111 2530.82,758.311 C2532.32,761.111 2535.12,762.711 2539.02,763.111 C2539.62,763.211 2540.12,763.211 2540.72,763.211 C2544.22,763.211 2548.02,762.211 2551.52,760.311 C2558.12,756.711 2562.22,750.811 2562.22,745.711 C2562.22,744.311 2561.92,743.011 2561.22,741.811 M2557.02,748.111 C2555.32,749.911 2552.12,752.211 2548.52,754.311 C2544.92,756.411 2541.22,758.111 2538.92,758.811 C2538.42,758.911 2537.82,759.011 2537.32,759.011 C2535.82,759.011 2534.52,758.311 2533.82,757.211 C2533.52,756.611 2533.32,756.011 2533.32,755.411 C2533.32,754.311 2533.82,753.211 2534.92,752.011 C2536.62,750.211 2539.82,747.811 2543.42,745.711 C2547.02,743.611 2550.72,741.911 2553.12,741.311 L2553.32,741.311 C2553.92,741.111 2554.42,741.011 2554.92,741.011 C2556.32,741.011 2557.42,741.611 2558.12,742.911 C2558.42,743.511 2558.62,744.011 2558.62,744.611 C2558.62,745.911 2557.92,747.211 2557.02,748.111"/>
<path class="Clef" d="M297,912.423 C289.4,912.423 283.3,916.823 283.2,916.823 C277.4,921.123 275.1,926.223 274.2,929.723 C273.7,931.523 273.5,933.323 273.5,935.023 C273.5,937.423 273.9,939.623 274.8,941.523 C276,944.223 278.3,946.123 281.3,947.123 C282.5,947.523 283.8,947.723 285.1,947.723 C287.3,947.723 289.6,947.123 291.5,946.023 C294.6,944.323 296.5,940.723 296.5,936.823 C296.5,933.323 294.7,930.123 291.7,928.223 C289.6,926.823 287.6,926.423 285.9,926.423 C284.7,926.423 283.6,926.623 282.7,926.923 C281.7,927.323 280,928.323 279.2,929.023 C279.5,927.123 280.7,924.223 281.8,922.623 C282.9,921.023 285.1,919.023 286.8,918.123 C289.3,916.723 292.5,916.123 296,916.123 C306.2,916.123 311.2,924.323 311.2,941.123 C311.2,950.423 307.7,959.323 304.7,965.223 C301.4,971.823 297,978.123 293.1,981.623 C282.7,991.123 272.9,995.623 272.8,995.623 C272.8,995.623 271.3,996.523 271.7,998.023 C272,999.023 272.9,999.223 273.5,999.223 C273.6,999.223 273.9,999.123 274,999.123 C274.1,999.123 285.5,994.423 294.6,987.323 C299.7,983.623 304.3,979.623 308.3,975.323 C311.9,971.423 315,967.223 317.5,963.023 C321.9,955.523 324.4,947.723 324.4,941.023 C324.4,932.723 322.2,925.823 318.1,920.923 C313.4,915.323 306.3,912.423 297,912.423 M328.4,925.123 C328.4,927.923 330.6,930.123 333.2,930.123 C335.8,930.123 338,927.923 338,925.123 C338,922.323 335.8,920.023 333.2,920.023 C330.6,920.023 328.4,922.323 328.4,925.123 M328.4,949.823 C328.4,952.623 330.6,954.923 333.2,954.923 C335.8,954.923 338,952.623 338,949.823 C338,947.023 335.8,944.723 333.2,944.723 C330.6,944.723 328.4,947.023 328.4,949.823"/>
<path class="Clef" d="M335,719.109 C333.8,713.709 331.1,709.809 330.3,708.809 C327.1,704.509 323.1,701.709 318.4,700.309 C316.1,699.609 314,699.409 312,699.409 C311.3,699.409 310.6,699.409 309.9,699.509 C308.9,693.509 307.8,687.609 306.9,682.209 C312.5,676.009 316.2,670.109 318.6,665.709 C322.2,659.009 323.6,654.309 323.7,654.109 C324.9,651.109 325.6,647.309 325.6,642.809 C325.6,640.109 325.3,637.209 324.9,634.209 C323.8,627.109 321.6,620.409 319.1,616.709 C317.8,614.809 316.6,613.709 315.4,613.709 C314.2,613.709 311.7,614.909 308.8,617.709 C306.5,619.909 303.2,623.809 300.6,629.809 C298.3,635.209 297.6,642.109 297.6,648.009 C297.6,649.809 297.7,651.509 297.8,653.109 C298,656.709 298.7,662.509 299.3,666.109 C299.3,666.209 299.6,667.709 300,670.309 L299.3,671.009 C298.3,672.009 297.1,673.109 295.7,674.509 C294.8,675.409 293.9,676.209 292.9,677.209 C284.4,685.409 271.6,697.809 271.6,716.909 C271.6,721.609 272.5,726.009 274.3,730.009 C275.9,733.609 278.2,736.909 281.1,739.809 C288.6,747.209 298.8,750.409 305.9,750.409 L306.5,750.409 C309.4,750.309 312.1,750.009 314.5,749.609 C316.3,759.209 317.5,766.309 317.5,771.609 C317.5,778.109 315.9,782.009 312,784.809 C309.6,786.509 306.7,787.609 303.6,787.709 L302.8,787.709 C301.3,787.709 298.8,787.309 297.3,786.909 C297.3,786.909 297,786.809 297,786.609 C297,786.409 297.4,786.409 297.4,786.409 C299.3,786.009 302.9,784.709 305.3,781.409 C306.4,779.909 307.1,777.609 307.1,775.109 C307.1,773.509 306.8,771.809 306.1,770.309 C305,767.909 302.4,764.909 296.8,764.509 L295.7,764.509 C293.6,764.509 291.8,765.009 290.1,766.009 C288.3,767.109 286.7,768.809 285.7,770.809 C284.6,772.809 284.1,775.009 284.1,777.209 C284.1,780.109 285,782.809 286.8,785.009 C289.8,788.609 294.5,790.909 299.9,791.509 C300.6,791.609 301.7,791.709 302.4,791.709 C306.8,791.709 311.2,790.509 314.8,788.309 C318.5,785.709 320.6,781.709 321.3,776.109 C321.5,774.809 321.5,773.409 321.5,771.909 C321.5,768.009 321,763.309 320,757.509 C319.6,755.409 319.2,752.409 318.5,748.609 C324.3,746.709 328.4,743.009 332.2,737.209 C334.5,733.209 335.6,729.109 335.6,724.809 C335.6,722.909 335.4,721.009 335,719.109 M304.8,641.209 C306.6,635.509 309.3,632.109 311.3,630.409 C313.1,628.909 314.7,628.209 315.6,628.209 C315.7,628.209 315.9,628.309 316,628.309 C316.3,628.409 316.7,628.909 317.1,629.609 C318,631.409 318.9,634.709 318.9,638.409 C318.9,640.309 318.7,642.309 318.1,644.109 C315.9,650.909 311.3,658.209 304.3,665.909 C304.1,664.809 303.9,663.809 303.8,662.809 C303.3,659.609 303,656.409 303,653.509 C303,649.009 303.6,644.909 304.8,641.209 M300.8,745.309 C296.2,744.109 291.7,741.609 287.9,738.109 C286.6,736.909 284.8,734.709 283.3,731.309 C282,728.309 281.3,725.209 281.3,721.809 L281.3,721.109 C281.4,716.409 282.7,711.609 285.2,706.809 C288.1,701.209 292.6,695.709 298.7,690.409 C300.2,689.109 301.6,687.809 302.9,686.509 C303.7,690.809 304.4,695.509 305.3,700.409 C301.4,701.709 296.7,704.709 293.6,710.409 C291.2,714.909 290.5,718.809 290.5,722.009 C290.5,723.509 290.7,724.909 290.9,726.009 C291.8,730.509 294.4,734.209 297.9,736.309 C298.7,736.809 302,738.509 304,738.509 C304.3,738.509 304.6,738.509 304.8,738.409 C305.1,738.309 305.4,738.109 305.5,737.809 C305.6,737.609 305.6,737.409 305.6,737.209 C305.6,736.409 304.8,735.809 303.5,735.009 C302.9,734.609 302.2,734.209 301.5,733.709 C298.9,731.709 297.4,728.609 297.4,725.209 C297.4,724.209 297.6,723.309 297.8,722.309 C298.3,720.309 300,717.509 301.5,716.109 C303.2,714.609 305.2,713.409 307.6,712.809 C309.6,724.009 311.7,735.109 313.3,743.509 C313.4,744.209 313.6,744.909 313.7,745.609 C311.7,746.009 309.7,746.209 307.8,746.209 C305.4,746.209 303.1,745.909 300.8,745.309 M326.5,735.109 C325.3,738.309 322.8,742.309 317.7,744.409 C317.6,744.009 317.6,743.509 317.5,743.109 C316,734.309 314.1,723.409 312.1,712.109 L313.1,712.109 C322.8,712.109 326.7,719.309 327.6,723.909 C327.8,724.809 327.9,726.009 327.9,727.309 C327.9,729.609 327.5,732.409 326.5,735.109"/>
<path class="TimeSig" d="M365.2,950.922 L382,950.922 L382,958.222 L373.9,958.222 C373.1,958.222 372.5,958.822 372.5,959.622 L372.5,961.522 C372.5,962.322 373.1,962.822 373.9,962.822 L403.6,962.822 C404.4,962.822 405,962.322 405,961.522 L405,959.622 C405,958.822 404.4,958.222 403.6,958.222 L394.8,958.222 L394.8,950.922 L403.6,950.922 C404.4,950.922 405,950.322 405,949.522 L405,947.722 C405,946.922 404.4,946.322 403.6,946.322 L394.8,946.322 L394.8,930.622 C394.8,930.122 394.4,929.622 394,929.422 L392.9,928.822 C392.7,928.722 392.4,928.722 392.2,928.722 C391.9,928.722 391.5,928.822 391.3,929.022 L382.4,937.222 C382.2,937.422 382,937.922 382,938.222 L382,946.322 L370.7,946.322 C370.7,946.322 381.6,934.522 393.2,919.022 C394,917.922 393.6,916.922 393.4,916.722 L391.3,914.522 C391.1,914.322 390.6,914.122 390.3,914.122 L375.7,914.122 C375,914.122 374.5,914.722 374.4,915.322 C374.4,915.322 373.9,922.522 371.3,930.522 C368.7,938.522 365.9,943.322 363.3,946.922 C363.3,946.922 362.8,947.922 363.1,948.622 C363.4,949.322 364.1,950.422 364.1,950.422 C364.1,950.422 364.4,950.922 365.2,950.922"/>
<path class="TimeSig" d="M365.2,999.527 L382,999.527 L382,1006.83 L373.9,1006.83 C373.1,1006.83 372.5,1007.43 372.5,1008.23 L372.5,1010.13 C372.5,1010.93 373.1,1011.43 373.9,1011.43 L403.6,1011.43 C404.4,1011.43 405,1010.93 405,1010.13 L405,1008.23 C405,1007.43 404.4,1006.83 403.6,1006.83 L394.8,1006.83 L394.8,999.527 L403.6,999.527 C404.4,999.527 405,998.927 405,998.127 L405,996.327 C405,995.527 404.4,994.927 403.6,994.927 L394.8,994.927 L394.8,979.227 C394.8,978.727 394.4,978.227 394,978.027 L392.9,977.427 C392.7,977.327 392.4,977.327 392.2,977.327 C391.9,977.327 391.5,977.427 391.3,977.627 L382.4,985.827 C382.2,986.027 382,986.527 382,986.827 L382,994.927 L370.7,994.927 C370.7,994.927 381.6,983.127 393.2,967.627 C394,966.527 393.6,965.527 393.4,965.327 L391.3,963.127 C391.1,962.927 390.6,962.727 390.3,962.727 L375.7,962.727 C375,962.727 374.5,963.327 374.4,963.927 C374.4,963.927 373.9,971.127 371.3,979.127 C368.7,987.127 365.9,991.927 363.3,995.527 C363.3,995.527 362.8,996.527 363.1,997.227 C363.4,997.927 364.1,999.027 364.1,999.027 C364.1,999.027 364.4,999.527 365.2,999.527"/>
<path class="TimeSig" d="M365.2,688.406 L382,688.406 L382,695.706 L373.9,695.706 C373.1,695.706 372.5,696.306 372.5,697.106 L372.5,699.006 C372.5,699.806 373.1,700.306 373.9,700.306 L403.6,700.306 C404.4,700.306 405,699.806 405,699.006 L405,697.106 C405,696.306 404.4,695.706 403.6,695.706 L394.8,695.706 L394.8,688.406 L403.6,688.406 C404.4,688.406 405,687.806 405,687.006 L405,685.206 C405,684.406 404.4,683.806 403.6,683.806 L394.8,683.806 L394.8,668.106 C394.8,667.606 394.4,667.106 394,666.906 L392.9,666.306 C392.7,666.206 392.4,666.206 392.2,666.206 C391.9,666.206 391.5,666.306 391.3,666.506 L382.4,674.706 C382.2,674.906 382,675.406 382,675.706 L382,683.806 L370.7,683.806 C370.7,683.806 381.6,672.006 393.2,656.506 C394,655.406 393.6,654.406 393.4,654.206 L391.3,652.006 C391.1,651.806 390.6,651.606 390.3,651.606 L375.7,651.606 C375,651.606 374.5,652.206 374.4,652.806 C374.4,652.806 373.9,660.006 371.3,668.006 C368.7,676.006 365.9,680.806 363.3,684.406 C363.3,684.406 362.8,685.406 363.1,686.106 C363.4,686.806 364.1,687.906 364.1,687.906 C364.1,687.906 364.4,688.406 365.2,688.406"/>
<path class="TimeSig" d="M365.2,737.01 L382,737.01 L382,744.31 L373.9,744.31 C373.1,744.31 372.5,744.91 372.5,745.71 L372.5,747.61 C372.5,748.41 373.1,748.91 373.9,748.91 L403.6,748.91 C404.4,748.91 405,748.41 405,747.61 L405,745.71 C405,744.91 404.4,744.31 403.6,744.31 L394.8,744.31 L394.8,737.01 L403.6,737.01 C404.4,737.01 405,736.41 405,735.61 L405,733.81 C405,733.01 404.4,732.41 403.6,732.41 L394.8,732.41 L394.8,716.71 C394.8,716.21 394.4,715.71 394,715.51 L392.9,714.91 C392.7,714.81 392.4,714.81 392.2,714.81 C391.9,714.81 391.5,714.91 391.3,715.11 L382.4,723.31 C382.2,723.51 382,724.01 382,724.31 L382,732.41 L370.7,732.41 C370.7,732.41 381.6,720.61 393.2,705.11 C394,704.01 393.6,703.01 393.4,702.81 L391.3,700.61 C391.1,700.41 390.6,700.21 390.3,700.21 L375.7,700.21 C375,700.21 374.5,700.81 374.4,701.41 C374.4,701.41 373.9,708.61 371.3,716.61 C368.7,724.61 365.9,729.41 363.3,733.01 C363.3,733.01 362.8,734.01 363.1,734.71 C363.4,735.41 364.1,736.51 364.1,736.51 C364.1,736.51 364.4,737.01 365.2,737.01"/>
<path class="Page" d="M226.289,4049.49 C230.384,4048.01 232.274,4045.71 232.274,4042.11 C232.274,4037.39 228.674,4034.37 223.094,4034.37 C217.829,4034.37 213.824,4037.48 213.824,4041.57 C213.824,4043.42 215.039,4044.72 216.794,4044.72 C218.369,4044.72 219.449,4043.64 219.449,4042.02 C219.449,4041.03 219.089,4040.45 218.054,4039.73 C217.604,4039.41 217.469,4039.23 217.469,4038.92 C217.469,4037.66 220.079,4036.31 222.644,4036.31 C225.884,4036.31 227.594,4038.33 227.594,4042.16 C227.594,4046.34 225.884,4048.55 222.689,4048.55 C222.284,4048.55 221.519,4048.5 220.844,4048.46 C220.484,4048.41 220.124,4048.41 219.854,4048.41 C218.909,4048.41 218.414,4048.82 218.414,4049.63 C218.414,4050.39 218.864,4050.75 219.854,4050.75 C220.124,4050.75 220.484,4050.75 220.889,4050.71 C221.789,4050.66 222.509,4050.66 223.004,4050.66 C226.334,4050.66 228.134,4053.05 228.134,4057.5 C228.134,4062.18 225.884,4064.79 221.834,4064.79 C218.999,4064.79 215.939,4063.26 215.939,4061.87 C215.939,4061.46 216.029,4061.37 216.884,4060.88 C218.144,4060.11 218.639,4059.35 218.639,4058.22 C218.639,4056.6 217.424,4055.39 215.804,4055.39 C213.869,4055.39 212.609,4056.96 212.609,4059.35 C212.609,4063.71 216.614,4066.73 222.374,4066.73 C228.899,4066.73 233.129,4063.13 233.129,4057.59 C233.129,4053.36 230.969,4050.8 226.289,4049.49 M242.619,4050.75 C243.069,4045.13 243.294,4043.64 244.284,4041.35 C245.589,4038.15 247.974,4036.31 250.809,4036.31 C252.384,4036.31 253.329,4036.8 253.329,4037.61 C253.329,4037.79 253.284,4037.93 253.104,4038.24 C252.654,4039.1 252.429,4039.77 252.429,4040.4 C252.429,4041.89 253.599,4043.01 255.174,4043.01 C256.929,4043.01 258.144,4041.66 258.144,4039.77 C258.144,4036.67 255.039,4034.37 250.764,4034.37 C247.074,4034.37 243.609,4036.13 241.449,4039.14 C238.974,4042.61 237.624,4047.29 237.624,4052.19 C237.624,4061.01 241.944,4066.73 248.604,4066.73 C251.529,4066.73 253.959,4065.74 255.849,4063.76 C257.784,4061.78 258.954,4058.85 258.954,4055.97 C258.954,4050.66 255.174,4046.7 250.044,4046.7 C246.984,4046.7 244.734,4047.92 242.619,4050.75 M248.784,4049.45 C252.069,4049.45 254.049,4052.01 254.049,4056.29 C254.049,4061.51 251.979,4064.79 248.694,4064.79 C246.624,4064.79 245.049,4063.71 243.969,4061.51 C243.249,4060.11 242.889,4058.58 242.889,4056.92 C242.889,4052.28 245.139,4049.45 248.784,4049.45"/>
<path class="Bracket" transform="matrix(3.62523,0,0,3.62523,214.469,1012.53)" d="M0.92002,-50 C2.69004,-51.88 6.2,-55.8 6.2,-63 C6.2,-72.1 2.25996,-81.32 2.25996,-86.97 C2.25996,-93.06 5.84004,-98.84 5.95,-99 C6.05996,-99.16 6.05,-99.39 5.94004,-99.46 C5.82998,-99.53 5.62002,-99.47 5.49004,-99.32 C5.35996,-99.17 0,-93.75 0,-85.6 C0,-76.75 3.5,-70.58 3.5,-59.07 C3.5,-56.89 2.55996,-53.36 0.1,-50.33 C-0.0799805,-50.17 -0.1,-49.89 0.0599609,-49.7 L0.0700195,-49.69 L0.1,-49.66 C2.55996,-46.63 3.5,-43.1 3.5,-40.92 C3.5,-29.4 0,-23.24 0,-14.39 C0,-6.25 5.35996,-0.8 5.49004,-0.659961 C5.62002,-0.52002 5.8,-0.42998 5.94004,-0.52002 C6.07998,-0.609961 6.07998,-0.77998 5.95,-0.97998 C5.82002,-1.17998 2.25996,-6.92002 2.25996,-13.01 C2.25996,-18.66 6.2,-27.9 6.2,-37 C6.2,-44.3 2.69004,-48.12 0.92002,-50"/>
</svg>