<?xml version="1.0" encoding="UTF-8" standalone="no"?>
<svg width="1000px" height="300px" viewBox="0 400 3040 900" xmlns="http://www.w3.org/2000/svg" xmlns:xlink="http://www.w3.org/1999/xlink" version="1.2" baseProfile="tiny">
 xmlns="http://www.w3.org/2000/svg" xmlns:xlink="http://www.w3.org/1999/xlink" version="1.2" baseProfile="tiny">
<title>exercises_scores (32)</title>
<desc>Generated by MuseScore 3.6.0</desc>
<polyline class="StaffLines" fill="none" stroke="#000000" stroke-width="2.75" stroke-linejoin="bevel" points="247.099,653.005 2764.63,653.005"/>
<polyline class="StaffLines" fill="none" stroke="#000000" stroke-width="2.75" stroke-linejoin="bevel" points="247.099,678.006 2764.63,678.006"/>
<polyline class="StaffLines" fill="none" stroke="#000000" stroke-width="2.75" stroke-linejoin="bevel" points="247.099,703.008 2764.63,703.008"/>
<polyline class="StaffLines" fill="none" stroke="#000000" stroke-width="2.75" stroke-linejoin="bevel" points="247.099,728.009 2764.63,728.009"/>
<polyline class="StaffLines" fill="none" stroke="#000000" stroke-width="2.75" stroke-linejoin="bevel" points="247.099,753.011 2764.63,753.011"/>
<polyline class="StaffLines" fill="none" stroke="#000000" stroke-width="2.75" stroke-linejoin="bevel" points="247.099,915.521 2764.63,915.521"/>
<polyline class="StaffLines" fill="none" stroke="#000000" stroke-width="2.75" stroke-linejoin="bevel" points="247.099,940.523 2764.63,940.523"/>
<polyline class="StaffLines" fill="none" stroke="#000000" stroke-width="2.75" stroke-linejoin="bevel" points="247.099,965.524 2764.63,965.524"/>
<polyline class="StaffLines" fill="none" stroke="#000000" stroke-width="2.75" stroke-linejoin="bevel" points="247.099,990.526 2764.63,990.526"/>
<polyline class="StaffLines" fill="none" stroke="#000000" stroke-width="2.75" stroke-linejoin="bevel" points="247.099,1015.53 2764.63,1015.53"/>
<path class="Text" d="M248.304,217.466 L212.604,217.466 L212.604,220.286 L213.684,220.286 C217.104,220.346 218.244,220.526 218.724,221.126 C219.084,221.666 219.084,221.786 219.084,224.846 L219.084,253.406 C219.084,256.466 219.084,256.586 218.724,257.126 C218.244,257.726 217.104,257.966 213.684,257.966 L212.604,257.966 L212.604,260.786 L233.184,260.786 L233.184,257.966 L231.204,257.966 C227.784,257.966 226.644,257.726 226.164,257.126 C225.804,256.586 225.804,256.406 225.804,253.406 L225.804,239.786 L227.004,239.786 C233.184,239.546 235.404,241.766 235.644,248.426 L238.464,248.426 L238.464,228.746 L235.644,228.746 C235.284,234.626 232.944,236.906 227.244,236.966 L225.804,236.966 L225.804,223.286 C225.744,220.766 226.344,220.346 229.584,220.286 L232.344,220.286 C242.184,220.226 244.644,222.446 246.504,232.766 L249.144,232.766 L248.304,217.466 M273.398,230.708 C273.885,230.613 274.28,230.132 274.28,229.636 L274.28,229.634 L274.28,224.954 C274.279,224.665 274.096,224.283 273.872,224.102 C273.706,223.966 273.398,223.857 273.184,223.857 C273.121,223.857 273.021,223.867 272.96,223.88 L270.374,224.414 L270.374,212.606 L268.178,212.606 L268.178,224.87 L261.08,226.34 L261.08,215.102 L258.884,215.102 L258.884,226.796 L255.776,227.438 C255.292,227.54 254.9,228.024 254.9,228.518 L254.9,233.114 C254.9,233.401 255.08,233.783 255.302,233.966 C255.469,234.102 255.779,234.212 255.994,234.212 L255.998,234.212 C256.059,234.212 256.159,234.204 256.22,234.194 L258.884,233.654 L258.884,246.764 L255.776,247.406 C255.293,247.506 254.9,247.987 254.9,248.48 L254.9,253.082 C254.9,253.369 255.08,253.751 255.302,253.934 C255.469,254.07 255.779,254.18 255.994,254.18 L255.998,254.18 C256.001,254.18 256.006,254.18 256.009,254.18 C256.068,254.18 256.162,254.169 256.22,254.156 L258.884,253.616 L258.884,265.406 L261.08,265.406 L261.08,253.172 L268.178,251.732 L268.178,262.91 L270.374,262.91 L270.374,251.288 L273.398,250.676 C273.885,250.581 274.28,250.1 274.28,249.604 L274.28,249.602 L274.28,244.922 C274.279,244.633 274.096,244.251 273.872,244.07 C273.708,243.933 273.403,243.823 273.19,243.823 C273.126,243.823 273.023,243.834 272.96,243.848 L270.374,244.382 L270.374,231.326 L273.398,230.708 M261.08,246.308 L261.08,233.204 L268.178,231.77 L268.178,244.838 L261.08,246.308 M307.02,216.566 L295.92,217.226 L295.92,219.806 L298.8,219.806 C301.08,219.866 301.38,220.226 301.38,222.806 L301.38,253.406 L301.38,254.846 L301.38,256.286 C301.32,257.126 301.26,257.486 301.02,257.786 C300.6,258.326 299.46,258.566 296.88,258.626 L296.64,258.626 L296.64,260.786 L311.82,260.786 L311.82,258.626 L311.58,258.626 C307.56,258.506 307.02,258.206 307.02,256.046 L307.02,253.406 L307.02,247.166 C307.02,244.226 307.44,241.526 308.1,240.146 C309.42,237.446 312.06,235.586 314.64,235.586 C316.2,235.586 318,236.486 318.84,237.686 C319.8,239.006 320.22,240.806 320.22,243.746 L320.22,253.406 L320.22,256.286 C320.16,257.126 320.1,257.486 319.86,257.786 C319.44,258.326 318.24,258.566 315.66,258.626 L315.42,258.626 L315.42,260.786 L330.6,260.786 L330.6,258.626 L330.36,258.626 C326.4,258.506 325.86,258.206 325.86,256.046 L325.86,253.406 L325.86,243.986 C325.86,239.666 325.68,238.586 324.6,236.546 C323.1,233.606 320.1,231.926 316.5,231.926 C312.6,231.926 309.72,233.666 307.02,237.686 L307.02,216.566 M358.797,241.466 C358.797,237.686 358.137,235.766 356.397,234.326 C354.417,232.706 351.477,231.926 347.637,231.926 C340.857,231.926 335.937,235.106 335.937,239.486 C335.937,241.706 337.317,243.146 339.417,243.146 C341.337,243.146 342.657,241.886 342.657,240.086 C342.657,239.306 342.357,238.466 341.757,237.626 C341.397,237.206 341.337,237.086 341.337,236.786 C341.337,235.586 343.737,234.506 346.617,234.506 C348.537,234.506 350.637,235.106 351.597,236.006 C352.737,236.966 353.157,238.406 353.157,241.106 L353.157,243.446 C346.917,244.526 344.937,245.006 341.997,246.146 C336.777,248.066 334.317,250.826 334.317,254.666 C334.317,258.986 337.677,261.686 343.017,261.686 C347.157,261.686 350.877,260.006 353.457,256.946 C354.417,260.006 355.917,261.206 358.737,261.206 C361.437,261.206 364.257,259.466 364.257,257.726 C364.257,257.306 364.017,257.006 363.657,257.006 C363.417,257.006 363.177,257.066 362.757,257.246 C361.917,257.606 361.557,257.666 361.077,257.666 C359.397,257.666 358.797,256.586 358.797,253.526 L358.797,241.466 M353.157,248.786 C353.157,252.386 352.977,253.226 351.957,254.786 C350.457,257.006 347.757,258.506 345.117,258.506 C342.357,258.506 340.377,256.526 340.377,253.826 C340.377,251.306 341.637,249.506 344.277,248.246 C346.137,247.406 348.477,246.806 353.157,246.026 L353.157,248.786 M376.916,232.826 L366.296,233.486 L366.296,236.066 L368.756,236.066 C371.036,236.126 371.336,236.486 371.336,239.066 L371.336,253.406 L371.336,256.226 C371.276,257.126 371.216,257.486 370.976,257.786 C370.556,258.326 369.356,258.566 366.776,258.626 L366.536,258.626 L366.536,260.786 L382.556,260.786 L382.556,258.626 L381.476,258.626 C377.456,258.506 376.916,258.206 376.916,256.046 L376.916,253.406 L376.916,252.806 C376.976,242.726 380.576,235.046 385.256,234.806 C384.416,235.766 384.176,236.366 384.176,237.506 C384.176,239.426 385.556,240.806 387.476,240.806 C389.696,240.806 391.136,239.186 391.136,236.786 C391.136,233.846 389.096,231.926 385.916,231.926 C382.136,231.926 378.896,234.926 376.916,240.266 L376.916,232.826 M404.737,232.826 L394.057,233.486 L394.057,236.066 L396.517,236.066 C398.797,236.126 399.097,236.486 399.097,239.066 L399.097,253.406 L399.097,255.746 L399.097,256.226 C399.037,257.126 398.977,257.486 398.737,257.786 C398.317,258.326 397.177,258.566 394.597,258.626 L394.357,258.626 L394.357,260.786 L409.477,260.786 L409.477,258.626 L409.237,258.626 C405.277,258.506 404.737,258.206 404.737,255.986 L404.737,253.406 L404.737,244.886 C404.737,239.546 407.677,235.586 411.577,235.586 C414.997,235.586 416.737,238.046 416.737,242.906 L416.737,253.406 L416.737,256.286 C416.677,257.066 416.617,257.486 416.317,257.786 C415.957,258.326 414.757,258.566 412.177,258.626 L411.937,258.626 L411.937,260.786 L427.117,260.786 L427.117,258.626 L426.877,258.626 C422.917,258.506 422.377,258.206 422.377,256.046 L422.377,253.406 L422.377,245.426 C422.377,239.426 425.077,235.586 429.277,235.586 C432.697,235.586 434.377,238.166 434.377,243.566 L434.377,253.406 L434.377,256.226 C434.317,257.066 434.257,257.486 433.957,257.786 C433.597,258.326 432.397,258.566 429.817,258.626 L429.577,258.626 L429.577,260.786 L444.757,260.786 L444.757,258.626 L444.517,258.626 C440.557,258.506 440.017,258.206 440.017,255.986 L440.017,253.406 L440.017,242.366 C440.017,238.646 439.657,237.386 438.097,235.346 C436.357,233.126 433.897,231.926 431.017,231.926 C427.117,231.926 424.237,233.786 421.657,237.926 C420.637,234.326 417.397,231.926 413.377,231.926 C409.717,231.926 407.077,233.666 404.737,237.446 L404.737,232.826 M461.125,231.926 C453.745,231.926 448.045,238.466 448.045,246.866 C448.045,255.086 453.805,261.686 461.005,261.686 C468.205,261.686 473.965,255.086 473.965,246.806 C473.965,238.586 468.205,231.926 461.125,231.926 M461.125,234.506 C465.325,234.506 467.665,238.886 467.665,246.806 C467.665,254.786 465.325,259.106 461.005,259.106 C456.685,259.106 454.345,254.786 454.345,246.866 C454.345,238.706 456.625,234.506 461.125,234.506 M488.005,232.826 L477.625,233.486 L477.625,236.066 L479.785,236.066 C482.065,236.126 482.365,236.486 482.365,239.066 L482.365,253.406 L482.365,254.846 L482.365,256.226 C482.305,257.126 482.245,257.486 482.005,257.786 C481.585,258.326 480.445,258.566 477.865,258.626 L477.625,258.626 L477.625,260.786 L492.805,260.786 L492.805,258.626 L492.565,258.626 C488.545,258.506 488.005,258.206 488.005,256.046 L488.005,253.406 L488.005,247.166 C488.005,244.226 488.425,241.526 489.085,240.146 C490.345,237.446 493.045,235.586 495.625,235.586 C497.185,235.586 498.985,236.426 499.885,237.686 C500.785,239.006 501.205,240.806 501.205,243.686 L501.205,253.406 L501.205,256.226 C501.145,257.126 501.085,257.486 500.845,257.786 C500.425,258.326 499.225,258.566 496.645,258.626 L496.405,258.626 L496.405,260.786 L511.585,260.786 L511.585,258.626 L511.345,258.626 C507.385,258.506 506.845,258.206 506.845,256.046 L506.845,253.406 L506.845,243.986 C506.845,239.666 506.665,238.586 505.585,236.546 C504.085,233.666 501.085,231.926 497.485,231.926 C493.585,231.926 490.645,233.726 488.005,237.686 L488.005,232.826 M525.021,232.826 L513.741,233.486 L513.741,236.066 L516.801,236.066 C519.081,236.126 519.381,236.486 519.381,239.066 L519.381,253.406 L519.381,256.226 C519.321,257.126 519.261,257.486 519.021,257.786 C518.601,258.326 517.461,258.566 514.881,258.626 L514.461,258.626 L514.461,260.786 L530.001,260.786 L530.001,258.626 L529.581,258.626 C525.561,258.506 525.021,258.206 525.021,256.046 L525.021,253.406 L525.021,232.826 M522.201,217.886 C520.281,217.886 518.721,219.446 518.721,221.366 C518.721,223.286 520.281,224.846 522.141,224.846 C524.121,224.846 525.681,223.286 525.681,221.366 C525.681,219.446 524.121,217.886 522.201,217.886 M554.772,251.966 C552.852,256.286 550.812,258.026 547.692,258.026 C542.892,258.026 539.892,253.646 539.892,246.626 C539.892,239.306 542.832,234.506 547.272,234.506 C549.072,234.506 550.632,235.346 550.632,236.306 C550.632,236.486 550.572,236.666 550.272,237.026 C549.312,238.166 549.072,238.766 549.072,239.786 C549.072,241.766 550.572,243.146 552.672,243.146 C554.832,243.146 556.332,241.466 556.332,239.066 C556.332,234.986 552.312,231.926 546.972,231.926 C539.172,231.926 533.592,238.286 533.592,247.286 C533.592,255.806 538.692,261.686 546.132,261.686 C551.472,261.686 554.532,259.226 557.112,252.866 L554.772,251.966 M586.908,232.826 L576.228,233.486 L576.228,236.066 L578.688,236.066 C580.968,236.126 581.268,236.486 581.268,239.066 L581.268,253.406 L581.268,255.746 L581.268,256.226 C581.208,257.126 581.148,257.486 580.908,257.786 C580.488,258.326 579.348,258.566 576.768,258.626 L576.528,258.626 L576.528,260.786 L591.648,260.786 L591.648,258.626 L591.408,258.626 C587.448,258.506 586.908,258.206 586.908,255.986 L586.908,253.406 L586.908,244.886 C586.908,239.546 589.848,235.586 593.748,235.586 C597.168,235.586 598.908,238.046 598.908,242.906 L598.908,253.406 L598.908,256.286 C598.848,257.066 598.788,257.486 598.488,257.786 C598.128,258.326 596.928,258.566 594.348,258.626 L594.108,258.626 L594.108,260.786 L609.288,260.786 L609.288,258.626 L609.048,258.626 C605.088,258.506 604.548,258.206 604.548,256.046 L604.548,253.406 L604.548,245.426 C604.548,239.426 607.248,235.586 611.448,235.586 C614.868,235.586 616.548,238.166 616.548,243.566 L616.548,253.406 L616.548,256.226 C616.488,257.066 616.428,257.486 616.128,257.786 C615.768,258.326 614.568,258.566 611.988,258.626 L611.748,258.626 L611.748,260.786 L626.928,260.786 L626.928,258.626 L626.688,258.626 C622.728,258.506 622.188,258.206 622.188,255.986 L622.188,253.406 L622.188,242.366 C622.188,238.646 621.828,237.386 620.268,235.346 C618.528,233.126 616.068,231.926 613.188,231.926 C609.288,231.926 606.408,233.786 603.828,237.926 C602.808,234.326 599.568,231.926 595.548,231.926 C591.888,231.926 589.248,233.666 586.908,237.446 L586.908,232.826 M640.537,232.826 L629.257,233.486 L629.257,236.066 L632.317,236.066 C634.597,236.126 634.897,236.486 634.897,239.066 L634.897,253.406 L634.897,256.226 C634.837,257.126 634.777,257.486 634.537,257.786 C634.117,258.326 632.977,258.566 630.397,258.626 L629.977,258.626 L629.977,260.786 L645.517,260.786 L645.517,258.626 L645.097,258.626 C641.077,258.506 640.537,258.206 640.537,256.046 L640.537,253.406 L640.537,232.826 M637.717,217.886 C635.797,217.886 634.237,219.446 634.237,221.366 C634.237,223.286 635.797,224.846 637.657,224.846 C639.637,224.846 641.197,223.286 641.197,221.366 C641.197,219.446 639.637,217.886 637.717,217.886 M659.067,232.826 L648.687,233.486 L648.687,236.066 L650.847,236.066 C653.127,236.126 653.427,236.486 653.427,239.066 L653.427,253.406 L653.427,254.846 L653.427,256.226 C653.367,257.126 653.307,257.486 653.067,257.786 C652.647,258.326 651.507,258.566 648.927,258.626 L648.687,258.626 L648.687,260.786 L663.867,260.786 L663.867,258.626 L663.627,258.626 C659.607,258.506 659.067,258.206 659.067,256.046 L659.067,253.406 L659.067,247.166 C659.067,244.226 659.487,241.526 660.147,240.146 C661.407,237.446 664.107,235.586 666.687,235.586 C668.247,235.586 670.047,236.426 670.947,237.686 C671.847,239.006 672.267,240.806 672.267,243.686 L672.267,253.406 L672.267,256.226 C672.207,257.126 672.147,257.486 671.907,257.786 C671.487,258.326 670.287,258.566 667.707,258.626 L667.467,258.626 L667.467,260.786 L682.647,260.786 L682.647,258.626 L682.407,258.626 C678.447,258.506 677.907,258.206 677.907,256.046 L677.907,253.406 L677.907,243.986 C677.907,239.666 677.727,238.586 676.647,236.546 C675.147,233.666 672.147,231.926 668.547,231.926 C664.647,231.926 661.707,233.726 659.067,237.686 L659.067,232.826 M698.843,231.926 C691.463,231.926 685.763,238.466 685.763,246.866 C685.763,255.086 691.523,261.686 698.723,261.686 C705.923,261.686 711.683,255.086 711.683,246.806 C711.683,238.586 705.923,231.926 698.843,231.926 M698.843,234.506 C703.043,234.506 705.383,238.886 705.383,246.806 C705.383,254.786 703.043,259.106 698.723,259.106 C694.403,259.106 692.063,254.786 692.063,246.866 C692.063,238.706 694.343,234.506 698.843,234.506 M725.603,232.826 L714.983,233.486 L714.983,236.066 L717.443,236.066 C719.723,236.126 720.023,236.486 720.023,239.066 L720.023,253.406 L720.023,256.226 C719.963,257.126 719.903,257.486 719.663,257.786 C719.243,258.326 718.043,258.566 715.463,258.626 L715.223,258.626 L715.223,260.786 L731.243,260.786 L731.243,258.626 L730.163,258.626 C726.143,258.506 725.603,258.206 725.603,256.046 L725.603,253.406 L725.603,252.806 C725.663,242.726 729.263,235.046 733.943,234.806 C733.103,235.766 732.863,236.366 732.863,237.506 C732.863,239.426 734.243,240.806 736.163,240.806 C738.383,240.806 739.823,239.186 739.823,236.786 C739.823,233.846 737.783,231.926 734.603,231.926 C730.823,231.926 727.583,234.926 725.603,240.266 L725.603,232.826 "/>
<polyline class="BarLine" fill="none" stroke="#000000" stroke-width="4.50" stroke-linejoin="bevel" points="249.349,914.146 249.349,1016.9"/>
<polyline class="BarLine" fill="none" stroke="#000000" stroke-width="4.50" stroke-linejoin="bevel" points="972.826,914.146 972.826,1016.9"/>
<polyline class="BarLine" fill="none" stroke="#000000" stroke-width="4.50" stroke-linejoin="bevel" points="1616.59,914.146 1616.59,1016.9"/>
<polyline class="BarLine" fill="none" stroke="#000000" stroke-width="4.50" stroke-linejoin="bevel" points="2213.06,914.146 2213.06,1016.9"/>
<polyline class="BarLine" fill="none" stroke="#000000" stroke-width="4.50" stroke-linejoin="bevel" points="2734.88,914.146 2734.88,1016.9"/>
<polyline class="BarLine" fill="none" stroke="#000000" stroke-width="13.75" stroke-linejoin="bevel" points="2757.75,914.146 2757.75,1016.9"/>
<polyline class="BarLine" fill="none" stroke="#000000" stroke-width="4.50" stroke-linejoin="bevel" points="249.349,651.63 249.349,915.521"/>
<polyline class="BarLine" fill="none" stroke="#000000" stroke-width="4.50" stroke-linejoin="bevel" points="972.826,651.63 972.826,915.521"/>
<polyline class="BarLine" fill="none" stroke="#000000" stroke-width="4.50" stroke-linejoin="bevel" points="1616.59,651.63 1616.59,915.521"/>
<polyline class="BarLine" fill="none" stroke="#000000" stroke-width="4.50" stroke-linejoin="bevel" points="2213.06,651.63 2213.06,915.521"/>
<polyline class="BarLine" fill="none" stroke="#000000" stroke-width="4.50" stroke-linejoin="bevel" points="2734.88,651.63 2734.88,915.521"/>
<polyline class="BarLine" fill="none" stroke="#000000" stroke-width="13.75" stroke-linejoin="bevel" points="2757.75,651.63 2757.75,915.521"/>
<path class="Accidental" d="M478.302,929.923 C478.902,929.823 479.402,929.123 479.402,928.523 L479.402,922.623 C479.402,921.823 478.802,921.223 478.002,921.223 L477.802,921.223 L474.502,921.923 L474.502,907.023 L471.702,907.023 L471.702,922.523 L462.802,924.323 L462.802,910.223 L460.002,910.223 L460.002,924.923 L456.102,925.723 C455.502,925.823 455.002,926.523 455.002,927.123 L455.002,927.323 L455.002,933.123 L455.002,932.923 C455.002,933.723 455.602,934.323 456.402,934.323 L456.702,934.323 L460.002,933.623 L460.002,950.123 L456.102,950.923 C455.502,951.023 455.002,951.723 455.002,952.323 L455.002,958.123 C455.002,958.923 455.602,959.523 456.402,959.523 L456.702,959.523 L460.002,958.823 L460.002,973.723 L462.802,973.723 L462.802,958.223 L471.702,956.423 L471.702,970.523 L474.502,970.523 L474.502,955.823 L478.302,955.123 C478.902,955.023 479.402,954.323 479.402,953.723 L479.402,947.823 C479.402,947.023 478.802,946.423 478.002,946.423 L477.802,946.423 L474.502,947.123 L474.502,930.623 L478.302,929.923 M462.802,949.623 L462.802,933.023 L471.702,931.223 L471.702,947.723 L462.802,949.623 "/>
<path class="Accidental" d="M599.533,917.422 C600.133,917.322 600.633,916.622 600.633,916.022 L600.633,910.122 C600.633,909.322 600.033,908.722 599.233,908.722 L599.033,908.722 L595.733,909.422 L595.733,894.522 L592.933,894.522 L592.933,910.022 L584.033,911.822 L584.033,897.722 L581.233,897.722 L581.233,912.422 L577.333,913.222 C576.733,913.322 576.233,914.022 576.233,914.622 L576.233,914.822 L576.233,920.622 L576.233,920.422 C576.233,921.222 576.833,921.822 577.633,921.822 L577.933,921.822 L581.233,921.122 L581.233,937.622 L577.333,938.422 C576.733,938.522 576.233,939.222 576.233,939.822 L576.233,945.622 C576.233,946.422 576.833,947.022 577.633,947.022 L577.933,947.022 L581.233,946.322 L581.233,961.222 L584.033,961.222 L584.033,945.722 L592.933,943.922 L592.933,958.022 L595.733,958.022 L595.733,943.322 L599.533,942.622 C600.133,942.522 600.633,941.822 600.633,941.222 L600.633,935.322 C600.633,934.522 600.033,933.922 599.233,933.922 L599.033,933.922 L595.733,934.622 L595.733,918.122 L599.533,917.422 M584.033,937.122 L584.033,920.522 L592.933,918.722 L592.933,935.222 L584.033,937.122 "/>
<path class="Accidental" d="M1020.13,879.92 C1020.73,879.82 1021.23,879.12 1021.23,878.52 L1021.23,872.62 C1021.23,871.82 1020.63,871.22 1019.83,871.22 L1019.63,871.22 L1016.33,871.92 L1016.33,857.02 L1013.53,857.02 L1013.53,872.52 L1004.63,874.32 L1004.63,860.22 L1001.83,860.22 L1001.83,874.92 L997.928,875.72 C997.328,875.82 996.828,876.52 996.828,877.12 L996.828,877.32 L996.828,883.12 L996.828,882.92 C996.828,883.72 997.428,884.32 998.228,884.32 L998.528,884.32 L1001.83,883.62 L1001.83,900.12 L997.928,900.92 C997.328,901.02 996.828,901.72 996.828,902.32 L996.828,908.12 C996.828,908.92 997.428,909.52 998.228,909.52 L998.528,909.52 L1001.83,908.82 L1001.83,923.72 L1004.63,923.72 L1004.63,908.22 L1013.53,906.42 L1013.53,920.52 L1016.33,920.52 L1016.33,905.82 L1020.13,905.12 C1020.73,905.02 1021.23,904.32 1021.23,903.72 L1021.23,897.82 C1021.23,897.02 1020.63,896.42 1019.83,896.42 L1019.63,896.42 L1016.33,897.12 L1016.33,880.62 L1020.13,879.92 M1004.63,899.62 L1004.63,883.02 L1013.53,881.22 L1013.53,897.72 L1004.63,899.62 "/>
<path class="Accidental" d="M1309.18,854.918 C1309.78,854.818 1310.28,854.118 1310.28,853.518 L1310.28,847.618 C1310.28,846.818 1309.68,846.218 1308.88,846.218 L1308.68,846.218 L1305.38,846.918 L1305.38,832.018 L1302.58,832.018 L1302.58,847.518 L1293.68,849.318 L1293.68,835.218 L1290.88,835.218 L1290.88,849.918 L1286.98,850.718 C1286.38,850.818 1285.88,851.518 1285.88,852.118 L1285.88,852.318 L1285.88,858.118 L1285.88,857.918 C1285.88,858.718 1286.48,859.318 1287.28,859.318 L1287.58,859.318 L1290.88,858.618 L1290.88,875.118 L1286.98,875.918 C1286.38,876.018 1285.88,876.718 1285.88,877.318 L1285.88,883.118 C1285.88,883.918 1286.48,884.518 1287.28,884.518 L1287.58,884.518 L1290.88,883.818 L1290.88,898.718 L1293.68,898.718 L1293.68,883.218 L1302.58,881.418 L1302.58,895.518 L1305.38,895.518 L1305.38,880.818 L1309.18,880.118 C1309.78,880.018 1310.28,879.318 1310.28,878.718 L1310.28,872.818 C1310.28,872.018 1309.68,871.418 1308.88,871.418 L1308.68,871.418 L1305.38,872.118 L1305.38,855.618 L1309.18,854.918 M1293.68,874.618 L1293.68,858.018 L1302.58,856.218 L1302.58,872.718 L1293.68,874.618 "/>
<path class="Accidental" d="M1453.71,842.417 C1454.31,842.317 1454.81,841.617 1454.81,841.017 L1454.81,835.117 C1454.81,834.317 1454.21,833.717 1453.41,833.717 L1453.21,833.717 L1449.91,834.417 L1449.91,819.517 L1447.11,819.517 L1447.11,835.017 L1438.21,836.817 L1438.21,822.717 L1435.41,822.717 L1435.41,837.417 L1431.51,838.217 C1430.91,838.317 1430.41,839.017 1430.41,839.617 L1430.41,839.817 L1430.41,845.617 L1430.41,845.417 C1430.41,846.217 1431.01,846.817 1431.81,846.817 L1432.11,846.817 L1435.41,846.117 L1435.41,862.617 L1431.51,863.417 C1430.91,863.517 1430.41,864.217 1430.41,864.817 L1430.41,870.617 C1430.41,871.417 1431.01,872.017 1431.81,872.017 L1432.11,872.017 L1435.41,871.317 L1435.41,886.217 L1438.21,886.217 L1438.21,870.717 L1447.11,868.917 L1447.11,883.017 L1449.91,883.017 L1449.91,868.317 L1453.71,867.617 C1454.31,867.517 1454.81,866.817 1454.81,866.217 L1454.81,860.317 C1454.81,859.517 1454.21,858.917 1453.41,858.917 L1453.21,858.917 L1449.91,859.617 L1449.91,843.117 L1453.71,842.417 M1438.21,862.117 L1438.21,845.517 L1447.11,843.717 L1447.11,860.217 L1438.21,862.117 "/>
<path class="Accidental" d="M1663.89,854.918 C1664.49,854.818 1664.99,854.118 1664.99,853.518 L1664.99,847.618 C1664.99,846.818 1664.39,846.218 1663.59,846.218 L1663.39,846.218 L1660.09,846.918 L1660.09,832.018 L1657.29,832.018 L1657.29,847.518 L1648.39,849.318 L1648.39,835.218 L1645.59,835.218 L1645.59,849.918 L1641.69,850.718 C1641.09,850.818 1640.59,851.518 1640.59,852.118 L1640.59,852.318 L1640.59,858.118 L1640.59,857.918 C1640.59,858.718 1641.19,859.318 1641.99,859.318 L1642.29,859.318 L1645.59,858.618 L1645.59,875.118 L1641.69,875.918 C1641.09,876.018 1640.59,876.718 1640.59,877.318 L1640.59,883.118 C1640.59,883.918 1641.19,884.518 1641.99,884.518 L1642.29,884.518 L1645.59,883.818 L1645.59,898.718 L1648.39,898.718 L1648.39,883.218 L1657.29,881.418 L1657.29,895.518 L1660.09,895.518 L1660.09,880.818 L1663.89,880.118 C1664.49,880.018 1664.99,879.318 1664.99,878.718 L1664.99,872.818 C1664.99,872.018 1664.39,871.418 1663.59,871.418 L1663.39,871.418 L1660.09,872.118 L1660.09,855.618 L1663.89,854.918 M1648.39,874.618 L1648.39,858.018 L1657.29,856.218 L1657.29,872.718 L1648.39,874.618 "/>
<path class="Accidental" d="M1929.3,879.92 C1929.9,879.82 1930.4,879.12 1930.4,878.52 L1930.4,872.62 C1930.4,871.82 1929.8,871.22 1929,871.22 L1928.8,871.22 L1925.5,871.92 L1925.5,857.02 L1922.7,857.02 L1922.7,872.52 L1913.8,874.32 L1913.8,860.22 L1911,860.22 L1911,874.92 L1907.1,875.72 C1906.5,875.82 1906,876.52 1906,877.12 L1906,877.32 L1906,883.12 L1906,882.92 C1906,883.72 1906.6,884.32 1907.4,884.32 L1907.7,884.32 L1911,883.62 L1911,900.12 L1907.1,900.92 C1906.5,901.02 1906,901.72 1906,902.32 L1906,908.12 C1906,908.92 1906.6,909.52 1907.4,909.52 L1907.7,909.52 L1911,908.82 L1911,923.72 L1913.8,923.72 L1913.8,908.22 L1922.7,906.42 L1922.7,920.52 L1925.5,920.52 L1925.5,905.82 L1929.3,905.12 C1929.9,905.02 1930.4,904.32 1930.4,903.72 L1930.4,897.82 C1930.4,897.02 1929.8,896.42 1929,896.42 L1928.8,896.42 L1925.5,897.12 L1925.5,880.62 L1929.3,879.92 M1913.8,899.62 L1913.8,883.02 L1922.7,881.22 L1922.7,897.72 L1913.8,899.62 "/>
<path class="Accidental" d="M2375.14,917.422 C2375.74,917.322 2376.24,916.622 2376.24,916.022 L2376.24,910.122 C2376.24,909.322 2375.64,908.722 2374.84,908.722 L2374.64,908.722 L2371.34,909.422 L2371.34,894.522 L2368.54,894.522 L2368.54,910.022 L2359.64,911.822 L2359.64,897.722 L2356.84,897.722 L2356.84,912.422 L2352.94,913.222 C2352.34,913.322 2351.84,914.022 2351.84,914.622 L2351.84,914.822 L2351.84,920.622 L2351.84,920.422 C2351.84,921.222 2352.44,921.822 2353.24,921.822 L2353.54,921.822 L2356.84,921.122 L2356.84,937.622 L2352.94,938.422 C2352.34,938.522 2351.84,939.222 2351.84,939.822 L2351.84,945.622 C2351.84,946.422 2352.44,947.022 2353.24,947.022 L2353.54,947.022 L2356.84,946.322 L2356.84,961.222 L2359.64,961.222 L2359.64,945.722 L2368.54,943.922 L2368.54,958.022 L2371.34,958.022 L2371.34,943.322 L2375.14,942.622 C2375.74,942.522 2376.24,941.822 2376.24,941.222 L2376.24,935.322 C2376.24,934.522 2375.64,933.922 2374.84,933.922 L2374.64,933.922 L2371.34,934.622 L2371.34,918.122 L2375.14,917.422 M2359.64,937.122 L2359.64,920.522 L2368.54,918.722 L2368.54,935.222 L2359.64,937.122 "/>
<path class="Accidental" d="M2509.81,929.923 C2510.41,929.823 2510.91,929.123 2510.91,928.523 L2510.91,922.623 C2510.91,921.823 2510.31,921.223 2509.51,921.223 L2509.31,921.223 L2506.01,921.923 L2506.01,907.023 L2503.21,907.023 L2503.21,922.523 L2494.31,924.323 L2494.31,910.223 L2491.51,910.223 L2491.51,924.923 L2487.61,925.723 C2487.01,925.823 2486.51,926.523 2486.51,927.123 L2486.51,927.323 L2486.51,933.123 L2486.51,932.923 C2486.51,933.723 2487.11,934.323 2487.91,934.323 L2488.21,934.323 L2491.51,933.623 L2491.51,950.123 L2487.61,950.923 C2487.01,951.023 2486.51,951.723 2486.51,952.323 L2486.51,958.123 C2486.51,958.923 2487.11,959.523 2487.91,959.523 L2488.21,959.523 L2491.51,958.823 L2491.51,973.723 L2494.31,973.723 L2494.31,958.223 L2503.21,956.423 L2503.21,970.523 L2506.01,970.523 L2506.01,955.823 L2509.81,955.123 C2510.41,955.023 2510.91,954.323 2510.91,953.723 L2510.91,947.823 C2510.91,947.023 2510.31,946.423 2509.51,946.423 L2509.31,946.423 L2506.01,947.123 L2506.01,930.623 L2509.81,929.923 M2494.31,949.623 L2494.31,933.023 L2503.21,931.223 L2503.21,947.723 L2494.31,949.623 "/>
<path class="Accidental" d="M478.302,729.91 C478.902,729.81 479.402,729.11 479.402,728.51 L479.402,722.61 C479.402,721.81 478.802,721.21 478.002,721.21 L477.802,721.21 L474.502,721.91 L474.502,707.01 L471.702,707.01 L471.702,722.51 L462.802,724.31 L462.802,710.21 L460.002,710.21 L460.002,724.91 L456.102,725.71 C455.502,725.81 455.002,726.51 455.002,727.11 L455.002,727.31 L455.002,733.11 L455.002,732.91 C455.002,733.71 455.602,734.31 456.402,734.31 L456.702,734.31 L460.002,733.61 L460.002,750.11 L456.102,750.91 C455.502,751.01 455.002,751.71 455.002,752.31 L455.002,758.11 C455.002,758.91 455.602,759.51 456.402,759.51 L456.702,759.51 L460.002,758.81 L460.002,773.71 L462.802,773.71 L462.802,758.21 L471.702,756.41 L471.702,770.51 L474.502,770.51 L474.502,755.81 L478.302,755.11 C478.902,755.01 479.402,754.31 479.402,753.71 L479.402,747.81 C479.402,747.01 478.802,746.41 478.002,746.41 L477.802,746.41 L474.502,747.11 L474.502,730.61 L478.302,729.91 M462.802,749.61 L462.802,733.01 L471.702,731.21 L471.702,747.71 L462.802,749.61 "/>
<path class="Accidental" d="M599.533,717.409 C600.133,717.309 600.633,716.609 600.633,716.009 L600.633,710.109 C600.633,709.309 600.033,708.709 599.233,708.709 L599.033,708.709 L595.733,709.409 L595.733,694.509 L592.933,694.509 L592.933,710.009 L584.033,711.809 L584.033,697.709 L581.233,697.709 L581.233,712.409 L577.333,713.209 C576.733,713.309 576.233,714.009 576.233,714.609 L576.233,714.809 L576.233,720.609 L576.233,720.409 C576.233,721.209 576.833,721.809 577.633,721.809 L577.933,721.809 L581.233,721.109 L581.233,737.609 L577.333,738.409 C576.733,738.509 576.233,739.209 576.233,739.809 L576.233,745.609 C576.233,746.409 576.833,747.009 577.633,747.009 L577.933,747.009 L581.233,746.309 L581.233,761.209 L584.033,761.209 L584.033,745.709 L592.933,743.909 L592.933,758.009 L595.733,758.009 L595.733,743.309 L599.533,742.609 C600.133,742.509 600.633,741.809 600.633,741.209 L600.633,735.309 C600.633,734.509 600.033,733.909 599.233,733.909 L599.033,733.909 L595.733,734.609 L595.733,718.109 L599.533,717.409 M584.033,737.109 L584.033,720.509 L592.933,718.709 L592.933,735.209 L584.033,737.109 "/>
<path class="Accidental" d="M1028.88,679.907 C1029.48,679.807 1029.98,679.107 1029.98,678.507 L1029.98,672.607 C1029.98,671.807 1029.38,671.207 1028.58,671.207 L1028.38,671.207 L1025.08,671.907 L1025.08,657.007 L1022.28,657.007 L1022.28,672.507 L1013.38,674.307 L1013.38,660.207 L1010.58,660.207 L1010.58,674.907 L1006.68,675.707 C1006.08,675.807 1005.58,676.507 1005.58,677.107 L1005.58,677.307 L1005.58,683.107 L1005.58,682.907 C1005.58,683.707 1006.18,684.307 1006.98,684.307 L1007.28,684.307 L1010.58,683.607 L1010.58,700.107 L1006.68,700.907 C1006.08,701.007 1005.58,701.707 1005.58,702.307 L1005.58,708.107 C1005.58,708.907 1006.18,709.507 1006.98,709.507 L1007.28,709.507 L1010.58,708.807 L1010.58,723.707 L1013.38,723.707 L1013.38,708.207 L1022.28,706.407 L1022.28,720.507 L1025.08,720.507 L1025.08,705.807 L1028.88,705.107 C1029.48,705.007 1029.98,704.307 1029.98,703.707 L1029.98,697.807 C1029.98,697.007 1029.38,696.407 1028.58,696.407 L1028.38,696.407 L1025.08,697.107 L1025.08,680.607 L1028.88,679.907 M1013.38,699.607 L1013.38,683.007 L1022.28,681.207 L1022.28,697.707 L1013.38,699.607 "/>
<path class="Accidental" d="M1317.93,654.906 C1318.53,654.806 1319.03,654.106 1319.03,653.506 L1319.03,647.606 C1319.03,646.806 1318.43,646.206 1317.63,646.206 L1317.43,646.206 L1314.13,646.906 L1314.13,632.006 L1311.33,632.006 L1311.33,647.506 L1302.43,649.306 L1302.43,635.206 L1299.63,635.206 L1299.63,649.906 L1295.73,650.706 C1295.13,650.806 1294.63,651.506 1294.63,652.106 L1294.63,652.306 L1294.63,658.106 L1294.63,657.906 C1294.63,658.706 1295.23,659.306 1296.03,659.306 L1296.33,659.306 L1299.63,658.606 L1299.63,675.106 L1295.73,675.906 C1295.13,676.006 1294.63,676.706 1294.63,677.306 L1294.63,683.106 C1294.63,683.906 1295.23,684.506 1296.03,684.506 L1296.33,684.506 L1299.63,683.806 L1299.63,698.706 L1302.43,698.706 L1302.43,683.206 L1311.33,681.406 L1311.33,695.506 L1314.13,695.506 L1314.13,680.806 L1317.93,680.106 C1318.53,680.006 1319.03,679.306 1319.03,678.706 L1319.03,672.806 C1319.03,672.006 1318.43,671.406 1317.63,671.406 L1317.43,671.406 L1314.13,672.106 L1314.13,655.606 L1317.93,654.906 M1302.43,674.606 L1302.43,658.006 L1311.33,656.206 L1311.33,672.706 L1302.43,674.606 "/>
<path class="Accidental" d="M1462.46,642.405 C1463.06,642.305 1463.56,641.605 1463.56,641.005 L1463.56,635.105 C1463.56,634.305 1462.96,633.705 1462.16,633.705 L1461.96,633.705 L1458.66,634.405 L1458.66,619.505 L1455.86,619.505 L1455.86,635.005 L1446.96,636.805 L1446.96,622.705 L1444.16,622.705 L1444.16,637.405 L1440.26,638.205 C1439.66,638.305 1439.16,639.005 1439.16,639.605 L1439.16,639.805 L1439.16,645.605 L1439.16,645.405 C1439.16,646.205 1439.76,646.805 1440.56,646.805 L1440.86,646.805 L1444.16,646.105 L1444.16,662.605 L1440.26,663.405 C1439.66,663.505 1439.16,664.205 1439.16,664.805 L1439.16,670.605 C1439.16,671.405 1439.76,672.005 1440.56,672.005 L1440.86,672.005 L1444.16,671.305 L1444.16,686.205 L1446.96,686.205 L1446.96,670.705 L1455.86,668.905 L1455.86,683.005 L1458.66,683.005 L1458.66,668.305 L1462.46,667.605 C1463.06,667.505 1463.56,666.805 1463.56,666.205 L1463.56,660.305 C1463.56,659.505 1462.96,658.905 1462.16,658.905 L1461.96,658.905 L1458.66,659.605 L1458.66,643.105 L1462.46,642.405 M1446.96,662.105 L1446.96,645.505 L1455.86,643.705 L1455.86,660.205 L1446.96,662.105 "/>
<path class="Accidental" d="M1672.64,654.906 C1673.24,654.806 1673.74,654.106 1673.74,653.506 L1673.74,647.606 C1673.74,646.806 1673.14,646.206 1672.34,646.206 L1672.14,646.206 L1668.84,646.906 L1668.84,632.006 L1666.04,632.006 L1666.04,647.506 L1657.14,649.306 L1657.14,635.206 L1654.34,635.206 L1654.34,649.906 L1650.44,650.706 C1649.84,650.806 1649.34,651.506 1649.34,652.106 L1649.34,652.306 L1649.34,658.106 L1649.34,657.906 C1649.34,658.706 1649.94,659.306 1650.74,659.306 L1651.04,659.306 L1654.34,658.606 L1654.34,675.106 L1650.44,675.906 C1649.84,676.006 1649.34,676.706 1649.34,677.306 L1649.34,683.106 C1649.34,683.906 1649.94,684.506 1650.74,684.506 L1651.04,684.506 L1654.34,683.806 L1654.34,698.706 L1657.14,698.706 L1657.14,683.206 L1666.04,681.406 L1666.04,695.506 L1668.84,695.506 L1668.84,680.806 L1672.64,680.106 C1673.24,680.006 1673.74,679.306 1673.74,678.706 L1673.74,672.806 C1673.74,672.006 1673.14,671.406 1672.34,671.406 L1672.14,671.406 L1668.84,672.106 L1668.84,655.606 L1672.64,654.906 M1657.14,674.606 L1657.14,658.006 L1666.04,656.206 L1666.04,672.706 L1657.14,674.606 "/>
<path class="Accidental" d="M1938.05,679.907 C1938.65,679.807 1939.15,679.107 1939.15,678.507 L1939.15,672.607 C1939.15,671.807 1938.55,671.207 1937.75,671.207 L1937.55,671.207 L1934.25,671.907 L1934.25,657.007 L1931.45,657.007 L1931.45,672.507 L1922.55,674.307 L1922.55,660.207 L1919.75,660.207 L1919.75,674.907 L1915.85,675.707 C1915.25,675.807 1914.75,676.507 1914.75,677.107 L1914.75,677.307 L1914.75,683.107 L1914.75,682.907 C1914.75,683.707 1915.35,684.307 1916.15,684.307 L1916.45,684.307 L1919.75,683.607 L1919.75,700.107 L1915.85,700.907 C1915.25,701.007 1914.75,701.707 1914.75,702.307 L1914.75,708.107 C1914.75,708.907 1915.35,709.507 1916.15,709.507 L1916.45,709.507 L1919.75,708.807 L1919.75,723.707 L1922.55,723.707 L1922.55,708.207 L1931.45,706.407 L1931.45,720.507 L1934.25,720.507 L1934.25,705.807 L1938.05,705.107 C1938.65,705.007 1939.15,704.307 1939.15,703.707 L1939.15,697.807 C1939.15,697.007 1938.55,696.407 1937.75,696.407 L1937.55,696.407 L1934.25,697.107 L1934.25,680.607 L1938.05,679.907 M1922.55,699.607 L1922.55,683.007 L1931.45,681.207 L1931.45,697.707 L1922.55,699.607 "/>
<path class="Accidental" d="M2375.14,717.409 C2375.74,717.309 2376.24,716.609 2376.24,716.009 L2376.24,710.109 C2376.24,709.309 2375.64,708.709 2374.84,708.709 L2374.64,708.709 L2371.34,709.409 L2371.34,694.509 L2368.54,694.509 L2368.54,710.009 L2359.64,711.809 L2359.64,697.709 L2356.84,697.709 L2356.84,712.409 L2352.94,713.209 C2352.34,713.309 2351.84,714.009 2351.84,714.609 L2351.84,714.809 L2351.84,720.609 L2351.84,720.409 C2351.84,721.209 2352.44,721.809 2353.24,721.809 L2353.54,721.809 L2356.84,721.109 L2356.84,737.609 L2352.94,738.409 C2352.34,738.509 2351.84,739.209 2351.84,739.809 L2351.84,745.609 C2351.84,746.409 2352.44,747.009 2353.24,747.009 L2353.54,747.009 L2356.84,746.309 L2356.84,761.209 L2359.64,761.209 L2359.64,745.709 L2368.54,743.909 L2368.54,758.009 L2371.34,758.009 L2371.34,743.309 L2375.14,742.609 C2375.74,742.509 2376.24,741.809 2376.24,741.209 L2376.24,735.309 C2376.24,734.509 2375.64,733.909 2374.84,733.909 L2374.64,733.909 L2371.34,734.609 L2371.34,718.109 L2375.14,717.409 M2359.64,737.109 L2359.64,720.509 L2368.54,718.709 L2368.54,735.209 L2359.64,737.109 "/>
<path class="Accidental" d="M2509.81,729.91 C2510.41,729.81 2510.91,729.11 2510.91,728.51 L2510.91,722.61 C2510.91,721.81 2510.31,721.21 2509.51,721.21 L2509.31,721.21 L2506.01,721.91 L2506.01,707.01 L2503.21,707.01 L2503.21,722.51 L2494.31,724.31 L2494.31,710.21 L2491.51,710.21 L2491.51,724.91 L2487.61,725.71 C2487.01,725.81 2486.51,726.51 2486.51,727.11 L2486.51,727.31 L2486.51,733.11 L2486.51,732.91 C2486.51,733.71 2487.11,734.31 2487.91,734.31 L2488.21,734.31 L2491.51,733.61 L2491.51,750.11 L2487.61,750.91 C2487.01,751.01 2486.51,751.71 2486.51,752.31 L2486.51,758.11 C2486.51,758.91 2487.11,759.51 2487.91,759.51 L2488.21,759.51 L2491.51,758.81 L2491.51,773.71 L2494.31,773.71 L2494.31,758.21 L2503.21,756.41 L2503.21,770.51 L2506.01,770.51 L2506.01,755.81 L2509.81,755.11 C2510.41,755.01 2510.91,754.31 2510.91,753.71 L2510.91,747.81 C2510.91,747.01 2510.31,746.41 2509.51,746.41 L2509.31,746.41 L2506.01,747.11 L2506.01,730.61 L2509.81,729.91 M2494.31,749.61 L2494.31,733.01 L2503.21,731.21 L2503.21,747.71 L2494.31,749.61 "/>
<polyline class="LedgerLine" fill="none" stroke="#000000" stroke-width="4.00" stroke-linejoin="bevel" points="1027.48,890.52 1077.47,890.52"/>
<polyline class="LedgerLine" fill="none" stroke="#000000" stroke-width="4.00" stroke-linejoin="bevel" points="1172,890.52 1222,890.52"/>
<polyline class="LedgerLine" fill="none" stroke="#000000" stroke-width="4.00" stroke-linejoin="bevel" points="1316.53,890.52 1366.53,890.52"/>
<polyline class="LedgerLine" fill="none" stroke="#000000" stroke-width="4.00" stroke-linejoin="bevel" points="1316.53,865.518 1366.53,865.518"/>
<polyline class="LedgerLine" fill="none" stroke="#000000" stroke-width="4.00" stroke-linejoin="bevel" points="1461.06,890.52 1511.05,890.52"/>
<polyline class="LedgerLine" fill="none" stroke="#000000" stroke-width="4.00" stroke-linejoin="bevel" points="1461.06,865.518 1511.05,865.518"/>
<polyline class="LedgerLine" fill="none" stroke="#000000" stroke-width="4.00" stroke-linejoin="bevel" points="1671.24,890.52 1721.23,890.52"/>
<polyline class="LedgerLine" fill="none" stroke="#000000" stroke-width="4.00" stroke-linejoin="bevel" points="1671.24,865.518 1721.23,865.518"/>
<polyline class="LedgerLine" fill="none" stroke="#000000" stroke-width="4.00" stroke-linejoin="bevel" points="1803.94,890.52 1853.94,890.52"/>
<polyline class="LedgerLine" fill="none" stroke="#000000" stroke-width="4.00" stroke-linejoin="bevel" points="1936.65,890.52 1986.65,890.52"/>
<polyline class="Stem" fill="none" stroke="#000000" stroke-width="2.75" stroke-linejoin="bevel" points="487.028,944.043 487.028,1024.9"/>
<polyline class="Stem" fill="none" stroke="#000000" stroke-width="2.75" stroke-linejoin="bevel" points="608.259,931.542 608.259,1015.53"/>
<polyline class="Stem" fill="none" stroke="#000000" stroke-width="2.75" stroke-linejoin="bevel" points="729.489,919.042 729.489,1003.03"/>
<polyline class="Stem" fill="none" stroke="#000000" stroke-width="2.75" stroke-linejoin="bevel" points="850.72,906.541 850.72,990.526"/>
<polyline class="Stem" fill="none" stroke="#000000" stroke-width="2.75" stroke-linejoin="bevel" points="1037.6,894.04 1037.6,978.025"/>
<polyline class="Stem" fill="none" stroke="#000000" stroke-width="2.75" stroke-linejoin="bevel" points="1182.13,881.539 1182.13,965.524"/>
<polyline class="Stem" fill="none" stroke="#000000" stroke-width="2.75" stroke-linejoin="bevel" points="1326.66,869.038 1326.66,965.524"/>
<polyline class="Stem" fill="none" stroke="#000000" stroke-width="2.75" stroke-linejoin="bevel" points="1471.18,856.538 1471.18,965.524"/>
<polyline class="Stem" fill="none" stroke="#000000" stroke-width="2.75" stroke-linejoin="bevel" points="1681.36,869.038 1681.36,965.524"/>
<polyline class="Stem" fill="none" stroke="#000000" stroke-width="2.75" stroke-linejoin="bevel" points="1814.07,881.539 1814.07,965.524"/>
<polyline class="Stem" fill="none" stroke="#000000" stroke-width="2.75" stroke-linejoin="bevel" points="1946.78,894.04 1946.78,978.025"/>
<polyline class="Stem" fill="none" stroke="#000000" stroke-width="2.75" stroke-linejoin="bevel" points="2079.48,906.541 2079.48,990.526"/>
<polyline class="Stem" fill="none" stroke="#000000" stroke-width="2.75" stroke-linejoin="bevel" points="2249.19,919.042 2249.19,1003.03"/>
<polyline class="Stem" fill="none" stroke="#000000" stroke-width="2.75" stroke-linejoin="bevel" points="2383.86,931.542 2383.86,1015.53"/>
<polyline class="Stem" fill="none" stroke="#000000" stroke-width="2.75" stroke-linejoin="bevel" points="2518.53,943.963 2518.53,1024.9"/>
<polyline class="Stem" fill="none" stroke="#000000" stroke-width="2.75" stroke-linejoin="bevel" points="516.772,737.15 516.772,653.005"/>
<polyline class="Stem" fill="none" stroke="#000000" stroke-width="2.75" stroke-linejoin="bevel" points="638.003,724.649 638.003,643.629"/>
<polyline class="Stem" fill="none" stroke="#000000" stroke-width="2.75" stroke-linejoin="bevel" points="759.233,712.148 759.233,634.254"/>
<polyline class="Stem" fill="none" stroke="#000000" stroke-width="2.75" stroke-linejoin="bevel" points="850.72,706.528 850.72,781.138"/>
<polyline class="Stem" fill="none" stroke="#000000" stroke-width="2.75" stroke-linejoin="bevel" points="1037.6,694.027 1037.6,771.762"/>
<polyline class="Stem" fill="none" stroke="#000000" stroke-width="2.75" stroke-linejoin="bevel" points="1182.13,681.527 1182.13,762.387"/>
<polyline class="Stem" fill="none" stroke="#000000" stroke-width="2.75" stroke-linejoin="bevel" points="1326.66,669.026 1326.66,753.011"/>
<polyline class="Stem" fill="none" stroke="#000000" stroke-width="2.75" stroke-linejoin="bevel" points="1471.18,656.525 1471.18,740.51"/>
<polyline class="Stem" fill="none" stroke="#000000" stroke-width="2.75" stroke-linejoin="bevel" points="1681.36,669.026 1681.36,753.011"/>
<polyline class="Stem" fill="none" stroke="#000000" stroke-width="2.75" stroke-linejoin="bevel" points="1814.07,681.527 1814.07,762.387"/>
<polyline class="Stem" fill="none" stroke="#000000" stroke-width="2.75" stroke-linejoin="bevel" points="1946.78,694.027 1946.78,771.762"/>
<polyline class="Stem" fill="none" stroke="#000000" stroke-width="2.75" stroke-linejoin="bevel" points="2079.48,706.528 2079.48,781.138"/>
<polyline class="Stem" fill="none" stroke="#000000" stroke-width="2.75" stroke-linejoin="bevel" points="2278.94,712.148 2278.94,634.254"/>
<polyline class="Stem" fill="none" stroke="#000000" stroke-width="2.75" stroke-linejoin="bevel" points="2413.61,724.649 2413.61,643.629"/>
<polyline class="Stem" fill="none" stroke="#000000" stroke-width="2.75" stroke-linejoin="bevel" points="2548.28,737.07 2548.28,653.005"/>
<path class="Note" d="M517.153,932.323 C515.653,929.623 512.753,927.923 508.853,927.523 C508.253,927.423 507.753,927.423 507.153,927.423 C503.653,927.423 499.853,928.423 496.353,930.323 C489.753,933.923 485.653,939.823 485.653,944.923 C485.653,946.323 485.853,947.623 486.553,948.823 C488.053,951.523 491.053,953.223 494.953,953.623 C495.553,953.723 496.053,953.723 496.653,953.723 C500.153,953.723 503.853,952.723 507.353,950.823 C513.953,947.223 518.153,941.423 518.153,936.323 C518.153,934.923 517.853,933.523 517.153,932.323"/>
<path class="Note" d="M638.384,919.822 C636.884,917.122 633.984,915.422 630.084,915.022 C629.484,914.922 628.984,914.922 628.384,914.922 C624.884,914.922 621.084,915.922 617.584,917.822 C610.984,921.422 606.884,927.322 606.884,932.422 C606.884,933.822 607.084,935.122 607.784,936.322 C609.284,939.022 612.284,940.722 616.184,941.122 C616.784,941.222 617.284,941.222 617.884,941.222 C621.384,941.222 625.084,940.222 628.584,938.322 C635.184,934.722 639.384,928.922 639.384,923.822 C639.384,922.422 639.084,921.022 638.384,919.822"/>
<path class="Note" d="M759.614,907.321 C758.114,904.621 755.214,902.921 751.314,902.521 C750.714,902.421 750.214,902.421 749.614,902.421 C746.114,902.421 742.314,903.421 738.814,905.321 C732.214,908.921 728.114,914.821 728.114,919.921 C728.114,921.321 728.314,922.621 729.014,923.821 C730.514,926.521 733.514,928.221 737.414,928.621 C738.014,928.721 738.514,928.721 739.114,928.721 C742.614,928.721 746.314,927.721 749.814,925.821 C756.414,922.221 760.614,916.421 760.614,911.321 C760.614,909.921 760.314,908.521 759.614,907.321"/>
<path class="Note" d="M880.845,894.82 C879.345,892.12 876.445,890.42 872.545,890.02 C871.945,889.92 871.445,889.92 870.845,889.92 C867.345,889.92 863.545,890.92 860.045,892.82 C853.445,896.42 849.345,902.32 849.345,907.42 C849.345,908.82 849.545,910.12 850.245,911.32 C851.745,914.02 854.745,915.72 858.645,916.12 C859.245,916.22 859.745,916.22 860.345,916.22 C863.845,916.22 867.545,915.22 871.045,913.32 C877.645,909.72 881.845,903.92 881.845,898.82 C881.845,897.42 881.545,896.02 880.845,894.82"/>
<path class="Note" d="M1067.73,882.32 C1066.23,879.62 1063.33,877.92 1059.43,877.52 C1058.83,877.42 1058.33,877.42 1057.73,877.42 C1054.23,877.42 1050.43,878.42 1046.93,880.32 C1040.33,883.92 1036.23,889.82 1036.23,894.92 C1036.23,896.32 1036.43,897.62 1037.13,898.82 C1038.63,901.52 1041.63,903.22 1045.53,903.62 C1046.13,903.72 1046.63,903.72 1047.23,903.72 C1050.73,903.72 1054.43,902.72 1057.93,900.82 C1064.53,897.22 1068.73,891.42 1068.73,886.32 C1068.73,884.92 1068.43,883.52 1067.73,882.32"/>
<path class="Note" d="M1212.26,869.819 C1210.76,867.119 1207.86,865.419 1203.96,865.019 C1203.36,864.919 1202.86,864.919 1202.26,864.919 C1198.76,864.919 1194.96,865.919 1191.46,867.819 C1184.86,871.419 1180.76,877.319 1180.76,882.419 C1180.76,883.819 1180.96,885.119 1181.66,886.319 C1183.16,889.019 1186.16,890.719 1190.06,891.119 C1190.66,891.219 1191.16,891.219 1191.76,891.219 C1195.26,891.219 1198.96,890.219 1202.46,888.319 C1209.06,884.719 1213.26,878.919 1213.26,873.819 C1213.26,872.419 1212.96,871.019 1212.26,869.819"/>
<path class="Note" d="M1356.78,857.318 C1355.28,854.618 1352.38,852.918 1348.48,852.518 C1347.88,852.418 1347.38,852.418 1346.78,852.418 C1343.28,852.418 1339.48,853.418 1335.98,855.318 C1329.38,858.918 1325.28,864.818 1325.28,869.918 C1325.28,871.318 1325.48,872.618 1326.18,873.818 C1327.68,876.518 1330.68,878.218 1334.58,878.618 C1335.18,878.718 1335.68,878.718 1336.28,878.718 C1339.78,878.718 1343.48,877.718 1346.98,875.818 C1353.58,872.218 1357.78,866.418 1357.78,861.318 C1357.78,859.918 1357.48,858.518 1356.78,857.318"/>
<path class="Note" d="M1501.31,844.817 C1499.81,842.117 1496.91,840.417 1493.01,840.017 C1492.41,839.917 1491.91,839.917 1491.31,839.917 C1487.81,839.917 1484.01,840.917 1480.51,842.817 C1473.91,846.417 1469.81,852.317 1469.81,857.417 C1469.81,858.817 1470.01,860.117 1470.71,861.317 C1472.21,864.017 1475.21,865.717 1479.11,866.117 C1479.71,866.217 1480.21,866.217 1480.81,866.217 C1484.31,866.217 1488.01,865.217 1491.51,863.317 C1498.11,859.717 1502.31,853.917 1502.31,848.817 C1502.31,847.417 1502.01,846.017 1501.31,844.817"/>
<path class="Note" d="M1711.49,857.318 C1709.99,854.618 1707.09,852.918 1703.19,852.518 C1702.59,852.418 1702.09,852.418 1701.49,852.418 C1697.99,852.418 1694.19,853.418 1690.69,855.318 C1684.09,858.918 1679.99,864.818 1679.99,869.918 C1679.99,871.318 1680.19,872.618 1680.89,873.818 C1682.39,876.518 1685.39,878.218 1689.29,878.618 C1689.89,878.718 1690.39,878.718 1690.99,878.718 C1694.49,878.718 1698.19,877.718 1701.69,875.818 C1708.29,872.218 1712.49,866.418 1712.49,861.318 C1712.49,859.918 1712.19,858.518 1711.49,857.318"/>
<path class="Note" d="M1844.2,869.819 C1842.7,867.119 1839.8,865.419 1835.9,865.019 C1835.3,864.919 1834.8,864.919 1834.2,864.919 C1830.7,864.919 1826.9,865.919 1823.4,867.819 C1816.8,871.419 1812.7,877.319 1812.7,882.419 C1812.7,883.819 1812.9,885.119 1813.6,886.319 C1815.1,889.019 1818.1,890.719 1822,891.119 C1822.6,891.219 1823.1,891.219 1823.7,891.219 C1827.2,891.219 1830.9,890.219 1834.4,888.319 C1841,884.719 1845.2,878.919 1845.2,873.819 C1845.2,872.419 1844.9,871.019 1844.2,869.819"/>
<path class="Note" d="M1976.9,882.32 C1975.4,879.62 1972.5,877.92 1968.6,877.52 C1968,877.42 1967.5,877.42 1966.9,877.42 C1963.4,877.42 1959.6,878.42 1956.1,880.32 C1949.5,883.92 1945.4,889.82 1945.4,894.92 C1945.4,896.32 1945.6,897.62 1946.3,898.82 C1947.8,901.52 1950.8,903.22 1954.7,903.62 C1955.3,903.72 1955.8,903.72 1956.4,903.72 C1959.9,903.72 1963.6,902.72 1967.1,900.82 C1973.7,897.22 1977.9,891.42 1977.9,886.32 C1977.9,884.92 1977.6,883.52 1976.9,882.32"/>
<path class="Note" d="M2109.61,894.82 C2108.11,892.12 2105.21,890.42 2101.31,890.02 C2100.71,889.92 2100.21,889.92 2099.61,889.92 C2096.11,889.92 2092.31,890.92 2088.81,892.82 C2082.21,896.42 2078.11,902.32 2078.11,907.42 C2078.11,908.82 2078.31,910.12 2079.01,911.32 C2080.51,914.02 2083.51,915.72 2087.41,916.12 C2088.01,916.22 2088.51,916.22 2089.11,916.22 C2092.61,916.22 2096.31,915.22 2099.81,913.32 C2106.41,909.72 2110.61,903.92 2110.61,898.82 C2110.61,897.42 2110.31,896.02 2109.61,894.82"/>
<path class="Note" d="M2279.32,907.321 C2277.82,904.621 2274.92,902.921 2271.02,902.521 C2270.42,902.421 2269.92,902.421 2269.32,902.421 C2265.82,902.421 2262.02,903.421 2258.52,905.321 C2251.92,908.921 2247.82,914.821 2247.82,919.921 C2247.82,921.321 2248.02,922.621 2248.72,923.821 C2250.22,926.521 2253.22,928.221 2257.12,928.621 C2257.72,928.721 2258.22,928.721 2258.82,928.721 C2262.32,928.721 2266.02,927.721 2269.52,925.821 C2276.12,922.221 2280.32,916.421 2280.32,911.321 C2280.32,909.921 2280.02,908.521 2279.32,907.321"/>
<path class="Note" d="M2413.99,919.822 C2412.49,917.122 2409.59,915.422 2405.69,915.022 C2405.09,914.922 2404.59,914.922 2403.99,914.922 C2400.49,914.922 2396.69,915.922 2393.19,917.822 C2386.59,921.422 2382.49,927.322 2382.49,932.422 C2382.49,933.822 2382.69,935.122 2383.39,936.322 C2384.89,939.022 2387.89,940.722 2391.79,941.122 C2392.39,941.222 2392.89,941.222 2393.49,941.222 C2396.99,941.222 2400.69,940.222 2404.19,938.322 C2410.79,934.722 2414.99,928.922 2414.99,923.822 C2414.99,922.422 2414.69,921.022 2413.99,919.822"/>
<path class="Note" d="M2548.66,932.323 C2547.16,929.623 2544.26,927.923 2540.36,927.523 C2539.76,927.423 2539.26,927.423 2538.66,927.423 C2535.16,927.423 2531.36,928.423 2527.86,930.323 C2521.26,933.923 2517.16,939.723 2517.16,944.823 C2517.16,946.223 2517.56,947.623 2518.26,948.823 C2519.76,951.623 2522.56,953.223 2526.46,953.623 C2527.06,953.723 2527.56,953.723 2528.16,953.723 C2531.66,953.723 2535.46,952.723 2538.96,950.823 C2545.56,947.223 2549.66,941.323 2549.66,936.223 C2549.66,934.823 2549.36,933.523 2548.66,932.323 M2544.46,938.623 C2542.76,940.423 2539.56,942.723 2535.96,944.823 C2532.36,946.923 2528.66,948.623 2526.36,949.323 C2525.86,949.423 2525.26,949.523 2524.76,949.523 C2523.26,949.523 2521.96,948.823 2521.26,947.723 C2520.96,947.123 2520.76,946.523 2520.76,945.923 C2520.76,944.823 2521.26,943.723 2522.36,942.523 C2524.06,940.723 2527.26,938.323 2530.86,936.223 C2534.46,934.123 2538.16,932.423 2540.56,931.823 L2540.76,931.823 C2541.36,931.623 2541.86,931.523 2542.36,931.523 C2543.76,931.523 2544.86,932.123 2545.56,933.423 C2545.86,934.023 2546.06,934.523 2546.06,935.123 C2546.06,936.423 2545.36,937.723 2544.46,938.623"/>
<path class="Note" d="M517.153,732.31 C515.653,729.61 512.753,727.91 508.853,727.51 C508.253,727.41 507.753,727.41 507.153,727.41 C503.653,727.41 499.853,728.41 496.353,730.31 C489.753,733.91 485.653,739.81 485.653,744.91 C485.653,746.31 485.853,747.61 486.553,748.81 C488.053,751.51 491.053,753.21 494.953,753.61 C495.553,753.71 496.053,753.71 496.653,753.71 C500.153,753.71 503.853,752.71 507.353,750.81 C513.953,747.21 518.153,741.41 518.153,736.31 C518.153,734.91 517.853,733.51 517.153,732.31"/>
<path class="Note" d="M638.384,719.809 C636.884,717.109 633.984,715.409 630.084,715.009 C629.484,714.909 628.984,714.909 628.384,714.909 C624.884,714.909 621.084,715.909 617.584,717.809 C610.984,721.409 606.884,727.309 606.884,732.409 C606.884,733.809 607.084,735.109 607.784,736.309 C609.284,739.009 612.284,740.709 616.184,741.109 C616.784,741.209 617.284,741.209 617.884,741.209 C621.384,741.209 625.084,740.209 628.584,738.309 C635.184,734.709 639.384,728.909 639.384,723.809 C639.384,722.409 639.084,721.009 638.384,719.809"/>
<path class="Note" d="M759.614,707.309 C758.114,704.609 755.214,702.909 751.314,702.509 C750.714,702.409 750.214,702.409 749.614,702.409 C746.114,702.409 742.314,703.409 738.814,705.309 C732.214,708.909 728.114,714.809 728.114,719.909 C728.114,721.309 728.314,722.609 729.014,723.809 C730.514,726.509 733.514,728.209 737.414,728.609 C738.014,728.709 738.514,728.709 739.114,728.709 C742.614,728.709 746.314,727.709 749.814,725.809 C756.414,722.209 760.614,716.409 760.614,711.309 C760.614,709.909 760.314,708.509 759.614,707.309"/>
<path class="Note" d="M880.845,694.808 C879.345,692.108 876.445,690.408 872.545,690.008 C871.945,689.908 871.445,689.908 870.845,689.908 C867.345,689.908 863.545,690.908 860.045,692.808 C853.445,696.408 849.345,702.308 849.345,707.408 C849.345,708.808 849.545,710.108 850.245,711.308 C851.745,714.008 854.745,715.708 858.645,716.108 C859.245,716.208 859.745,716.208 860.345,716.208 C863.845,716.208 867.545,715.208 871.045,713.308 C877.645,709.708 881.845,703.908 881.845,698.808 C881.845,697.408 881.545,696.008 880.845,694.808"/>
<path class="Note" d="M1067.73,682.307 C1066.23,679.607 1063.33,677.907 1059.43,677.507 C1058.83,677.407 1058.33,677.407 1057.73,677.407 C1054.23,677.407 1050.43,678.407 1046.93,680.307 C1040.33,683.907 1036.23,689.807 1036.23,694.907 C1036.23,696.307 1036.43,697.607 1037.13,698.807 C1038.63,701.507 1041.63,703.207 1045.53,703.607 C1046.13,703.707 1046.63,703.707 1047.23,703.707 C1050.73,703.707 1054.43,702.707 1057.93,700.807 C1064.53,697.207 1068.73,691.407 1068.73,686.307 C1068.73,684.907 1068.43,683.507 1067.73,682.307"/>
<path class="Note" d="M1212.26,669.806 C1210.76,667.106 1207.86,665.406 1203.96,665.006 C1203.36,664.906 1202.86,664.906 1202.26,664.906 C1198.76,664.906 1194.96,665.906 1191.46,667.806 C1184.86,671.406 1180.76,677.306 1180.76,682.406 C1180.76,683.806 1180.96,685.106 1181.66,686.306 C1183.16,689.006 1186.16,690.706 1190.06,691.106 C1190.66,691.206 1191.16,691.206 1191.76,691.206 C1195.26,691.206 1198.96,690.206 1202.46,688.306 C1209.06,684.706 1213.26,678.906 1213.26,673.806 C1213.26,672.406 1212.96,671.006 1212.26,669.806"/>
<path class="Note" d="M1356.78,657.306 C1355.28,654.606 1352.38,652.906 1348.48,652.506 C1347.88,652.406 1347.38,652.406 1346.78,652.406 C1343.28,652.406 1339.48,653.406 1335.98,655.306 C1329.38,658.906 1325.28,664.806 1325.28,669.906 C1325.28,671.306 1325.48,672.606 1326.18,673.806 C1327.68,676.506 1330.68,678.206 1334.58,678.606 C1335.18,678.706 1335.68,678.706 1336.28,678.706 C1339.78,678.706 1343.48,677.706 1346.98,675.806 C1353.58,672.206 1357.78,666.406 1357.78,661.306 C1357.78,659.906 1357.48,658.506 1356.78,657.306"/>
<path class="Note" d="M1501.31,644.805 C1499.81,642.105 1496.91,640.405 1493.01,640.005 C1492.41,639.905 1491.91,639.905 1491.31,639.905 C1487.81,639.905 1484.01,640.905 1480.51,642.805 C1473.91,646.405 1469.81,652.305 1469.81,657.405 C1469.81,658.805 1470.01,660.105 1470.71,661.305 C1472.21,664.005 1475.21,665.705 1479.11,666.105 C1479.71,666.205 1480.21,666.205 1480.81,666.205 C1484.31,666.205 1488.01,665.205 1491.51,663.305 C1498.11,659.705 1502.31,653.905 1502.31,648.805 C1502.31,647.405 1502.01,646.005 1501.31,644.805"/>
<path class="Note" d="M1711.49,657.306 C1709.99,654.606 1707.09,652.906 1703.19,652.506 C1702.59,652.406 1702.09,652.406 1701.49,652.406 C1697.99,652.406 1694.19,653.406 1690.69,655.306 C1684.09,658.906 1679.99,664.806 1679.99,669.906 C1679.99,671.306 1680.19,672.606 1680.89,673.806 C1682.39,676.506 1685.39,678.206 1689.29,678.606 C1689.89,678.706 1690.39,678.706 1690.99,678.706 C1694.49,678.706 1698.19,677.706 1701.69,675.806 C1708.29,672.206 1712.49,666.406 1712.49,661.306 C1712.49,659.906 1712.19,658.506 1711.49,657.306"/>
<path class="Note" d="M1844.2,669.806 C1842.7,667.106 1839.8,665.406 1835.9,665.006 C1835.3,664.906 1834.8,664.906 1834.2,664.906 C1830.7,664.906 1826.9,665.906 1823.4,667.806 C1816.8,671.406 1812.7,677.306 1812.7,682.406 C1812.7,683.806 1812.9,685.106 1813.6,686.306 C1815.1,689.006 1818.1,690.706 1822,691.106 C1822.6,691.206 1823.1,691.206 1823.7,691.206 C1827.2,691.206 1830.9,690.206 1834.4,688.306 C1841,684.706 1845.2,678.906 1845.2,673.806 C1845.2,672.406 1844.9,671.006 1844.2,669.806"/>
<path class="Note" d="M1976.9,682.307 C1975.4,679.607 1972.5,677.907 1968.6,677.507 C1968,677.407 1967.5,677.407 1966.9,677.407 C1963.4,677.407 1959.6,678.407 1956.1,680.307 C1949.5,683.907 1945.4,689.807 1945.4,694.907 C1945.4,696.307 1945.6,697.607 1946.3,698.807 C1947.8,701.507 1950.8,703.207 1954.7,703.607 C1955.3,703.707 1955.8,703.707 1956.4,703.707 C1959.9,703.707 1963.6,702.707 1967.1,700.807 C1973.7,697.207 1977.9,691.407 1977.9,686.307 C1977.9,684.907 1977.6,683.507 1976.9,682.307"/>
<path class="Note" d="M2109.61,694.808 C2108.11,692.108 2105.21,690.408 2101.31,690.008 C2100.71,689.908 2100.21,689.908 2099.61,689.908 C2096.11,689.908 2092.31,690.908 2088.81,692.808 C2082.21,696.408 2078.11,702.308 2078.11,707.408 C2078.11,708.808 2078.31,710.108 2079.01,711.308 C2080.51,714.008 2083.51,715.708 2087.41,716.108 C2088.01,716.208 2088.51,716.208 2089.11,716.208 C2092.61,716.208 2096.31,715.208 2099.81,713.308 C2106.41,709.708 2110.61,703.908 2110.61,698.808 C2110.61,697.408 2110.31,696.008 2109.61,694.808"/>
<path class="Note" d="M2279.32,707.309 C2277.82,704.609 2274.92,702.909 2271.02,702.509 C2270.42,702.409 2269.92,702.409 2269.32,702.409 C2265.82,702.409 2262.02,703.409 2258.52,705.309 C2251.92,708.909 2247.82,714.809 2247.82,719.909 C2247.82,721.309 2248.02,722.609 2248.72,723.809 C2250.22,726.509 2253.22,728.209 2257.12,728.609 C2257.72,728.709 2258.22,728.709 2258.82,728.709 C2262.32,728.709 2266.02,727.709 2269.52,725.809 C2276.12,722.209 2280.32,716.409 2280.32,711.309 C2280.32,709.909 2280.02,708.509 2279.32,707.309"/>
<path class="Note" d="M2413.99,719.809 C2412.49,717.109 2409.59,715.409 2405.69,715.009 C2405.09,714.909 2404.59,714.909 2403.99,714.909 C2400.49,714.909 2396.69,715.909 2393.19,717.809 C2386.59,721.409 2382.49,727.309 2382.49,732.409 C2382.49,733.809 2382.69,735.109 2383.39,736.309 C2384.89,739.009 2387.89,740.709 2391.79,741.109 C2392.39,741.209 2392.89,741.209 2393.49,741.209 C2396.99,741.209 2400.69,740.209 2404.19,738.309 C2410.79,734.709 2414.99,728.909 2414.99,723.809 C2414.99,722.409 2414.69,721.009 2413.99,719.809"/>
<path class="Note" d="M2548.66,732.31 C2547.16,729.61 2544.26,727.91 2540.36,727.51 C2539.76,727.41 2539.26,727.41 2538.66,727.41 C2535.16,727.41 2531.36,728.41 2527.86,730.31 C2521.26,733.91 2517.16,739.71 2517.16,744.81 C2517.16,746.21 2517.56,747.61 2518.26,748.81 C2519.76,751.61 2522.56,753.21 2526.46,753.61 C2527.06,753.71 2527.56,753.71 2528.16,753.71 C2531.66,753.71 2535.46,752.71 2538.96,750.81 C2545.56,747.21 2549.66,741.31 2549.66,736.21 C2549.66,734.81 2549.36,733.51 2548.66,732.31 M2544.46,738.61 C2542.76,740.41 2539.56,742.71 2535.96,744.81 C2532.36,746.91 2528.66,748.61 2526.36,749.31 C2525.86,749.41 2525.26,749.51 2524.76,749.51 C2523.26,749.51 2521.96,748.81 2521.26,747.71 C2520.96,747.11 2520.76,746.51 2520.76,745.91 C2520.76,744.81 2521.26,743.71 2522.36,742.51 C2524.06,740.71 2527.26,738.31 2530.86,736.21 C2534.46,734.11 2538.16,732.41 2540.56,731.81 L2540.76,731.81 C2541.36,731.61 2541.86,731.51 2542.36,731.51 C2543.76,731.51 2544.86,732.11 2545.56,733.41 C2545.86,734.01 2546.06,734.51 2546.06,735.11 C2546.06,736.41 2545.36,737.71 2544.46,738.61"/>
<path class="Clef" d="M297,915.423 C289.4,915.423 283.3,919.823 283.2,919.823 C277.4,924.123 275.1,929.223 274.2,932.723 C273.7,934.523 273.5,936.323 273.5,938.023 C273.5,940.423 273.9,942.623 274.8,944.523 C276,947.223 278.3,949.123 281.3,950.123 C282.5,950.523 283.8,950.723 285.1,950.723 C287.3,950.723 289.6,950.123 291.5,949.023 C294.6,947.323 296.5,943.723 296.5,939.823 C296.5,936.323 294.7,933.123 291.7,931.223 C289.6,929.823 287.6,929.423 285.9,929.423 C284.7,929.423 283.6,929.623 282.7,929.923 C281.7,930.323 280,931.323 279.2,932.023 C279.5,930.123 280.7,927.223 281.8,925.623 C282.9,924.023 285.1,922.023 286.8,921.123 C289.3,919.723 292.5,919.123 296,919.123 C306.2,919.123 311.2,927.323 311.2,944.123 C311.2,953.423 307.7,962.323 304.7,968.223 C301.4,974.823 297,981.123 293.1,984.623 C282.7,994.123 272.9,998.623 272.8,998.623 C272.8,998.623 271.3,999.523 271.7,1001.02 C272,1002.02 272.9,1002.22 273.5,1002.22 C273.6,1002.22 273.9,1002.12 274,1002.12 C274.1,1002.12 285.5,997.423 294.6,990.323 C299.7,986.623 304.3,982.623 308.3,978.323 C311.9,974.423 315,970.223 317.5,966.023 C321.9,958.523 324.4,950.723 324.4,944.023 C324.4,935.723 322.2,928.823 318.1,923.923 C313.4,918.323 306.3,915.423 297,915.423 M328.4,928.123 C328.4,930.923 330.6,933.123 333.2,933.123 C335.8,933.123 338,930.923 338,928.123 C338,925.323 335.8,923.023 333.2,923.023 C330.6,923.023 328.4,925.323 328.4,928.123 M328.4,952.823 C328.4,955.623 330.6,957.923 333.2,957.923 C335.8,957.923 338,955.623 338,952.823 C338,950.023 335.8,947.723 333.2,947.723 C330.6,947.723 328.4,950.023 328.4,952.823"/>
<path class="Clef" d="M335,722.109 C333.8,716.709 331.1,712.809 330.3,711.809 C327.1,707.509 323.1,704.709 318.4,703.309 C316.1,702.609 314,702.409 312,702.409 C311.3,702.409 310.6,702.409 309.9,702.509 C308.9,696.509 307.8,690.609 306.9,685.209 C312.5,679.009 316.2,673.109 318.6,668.709 C322.2,662.009 323.6,657.309 323.7,657.109 C324.9,654.109 325.6,650.309 325.6,645.809 C325.6,643.109 325.3,640.209 324.9,637.209 C323.8,630.109 321.6,623.409 319.1,619.709 C317.8,617.809 316.6,616.709 315.4,616.709 C314.2,616.709 311.7,617.909 308.8,620.709 C306.5,622.909 303.2,626.809 300.6,632.809 C298.3,638.209 297.6,645.109 297.6,651.009 C297.6,652.809 297.7,654.509 297.8,656.109 C298,659.709 298.7,665.509 299.3,669.109 C299.3,669.209 299.6,670.709 300,673.309 L299.3,674.009 C298.3,675.009 297.1,676.109 295.7,677.509 C294.8,678.409 293.9,679.209 292.9,680.209 C284.4,688.409 271.6,700.809 271.6,719.909 C271.6,724.609 272.5,729.009 274.3,733.009 C275.9,736.609 278.2,739.909 281.1,742.809 C288.6,750.209 298.8,753.409 305.9,753.409 L306.5,753.409 C309.4,753.309 312.1,753.009 314.5,752.609 C316.3,762.209 317.5,769.309 317.5,774.609 C317.5,781.109 315.9,785.009 312,787.809 C309.6,789.509 306.7,790.609 303.6,790.709 L302.8,790.709 C301.3,790.709 298.8,790.309 297.3,789.909 C297.3,789.909 297,789.809 297,789.609 C297,789.409 297.4,789.409 297.4,789.409 C299.3,789.009 302.9,787.709 305.3,784.409 C306.4,782.909 307.1,780.609 307.1,778.109 C307.1,776.509 306.8,774.809 306.1,773.309 C305,770.909 302.4,767.909 296.8,767.509 L295.7,767.509 C293.6,767.509 291.8,768.009 290.1,769.009 C288.3,770.109 286.7,771.809 285.7,773.809 C284.6,775.809 284.1,778.009 284.1,780.209 C284.1,783.109 285,785.809 286.8,788.009 C289.8,791.609 294.5,793.909 299.9,794.509 C300.6,794.609 301.7,794.709 302.4,794.709 C306.8,794.709 311.2,793.509 314.8,791.309 C318.5,788.709 320.6,784.709 321.3,779.109 C321.5,777.809 321.5,776.409 321.5,774.909 C321.5,771.009 321,766.309 320,760.509 C319.6,758.409 319.2,755.409 318.5,751.609 C324.3,749.709 328.4,746.009 332.2,740.209 C334.5,736.209 335.6,732.109 335.6,727.809 C335.6,725.909 335.4,724.009 335,722.109 M304.8,644.209 C306.6,638.509 309.3,635.109 311.3,633.409 C313.1,631.909 314.7,631.209 315.6,631.209 C315.7,631.209 315.9,631.309 316,631.309 C316.3,631.409 316.7,631.909 317.1,632.609 C318,634.409 318.9,637.709 318.9,641.409 C318.9,643.309 318.7,645.309 318.1,647.109 C315.9,653.909 311.3,661.209 304.3,668.909 C304.1,667.809 303.9,666.809 303.8,665.809 C303.3,662.609 303,659.409 303,656.509 C303,652.009 303.6,647.909 304.8,644.209 M300.8,748.309 C296.2,747.109 291.7,744.609 287.9,741.109 C286.6,739.909 284.8,737.709 283.3,734.309 C282,731.309 281.3,728.209 281.3,724.809 L281.3,724.109 C281.4,719.409 282.7,714.609 285.2,709.809 C288.1,704.209 292.6,698.709 298.7,693.409 C300.2,692.109 301.6,690.809 302.9,689.509 C303.7,693.809 304.4,698.509 305.3,703.409 C301.4,704.709 296.7,707.709 293.6,713.409 C291.2,717.909 290.5,721.809 290.5,725.009 C290.5,726.509 290.7,727.909 290.9,729.009 C291.8,733.509 294.4,737.209 297.9,739.309 C298.7,739.809 302,741.509 304,741.509 C304.3,741.509 304.6,741.509 304.8,741.409 C305.1,741.309 305.4,741.109 305.5,740.809 C305.6,740.609 305.6,740.409 305.6,740.209 C305.6,739.409 304.8,738.809 303.5,738.009 C302.9,737.609 302.2,737.209 301.5,736.709 C298.9,734.709 297.4,731.609 297.4,728.209 C297.4,727.209 297.6,726.309 297.8,725.309 C298.3,723.309 300,720.509 301.5,719.109 C303.2,717.609 305.2,716.409 307.6,715.809 C309.6,727.009 311.7,738.109 313.3,746.509 C313.4,747.209 313.6,747.909 313.7,748.609 C311.7,749.009 309.7,749.209 307.8,749.209 C305.4,749.209 303.1,748.909 300.8,748.309 M326.5,738.109 C325.3,741.309 322.8,745.309 317.7,747.409 C317.6,747.009 317.6,746.509 317.5,746.109 C316,737.309 314.1,726.409 312.1,715.109 L313.1,715.109 C322.8,715.109 326.7,722.309 327.6,726.909 C327.8,727.809 327.9,729.009 327.9,730.309 C327.9,732.609 327.5,735.409 326.5,738.109"/>
<path class="TimeSig" d="M365.2,953.922 L382,953.922 L382,961.222 L373.9,961.222 C373.1,961.222 372.5,961.822 372.5,962.622 L372.5,964.522 C372.5,965.322 373.1,965.822 373.9,965.822 L403.6,965.822 C404.4,965.822 405,965.322 405,964.522 L405,962.622 C405,961.822 404.4,961.222 403.6,961.222 L394.8,961.222 L394.8,953.922 L403.6,953.922 C404.4,953.922 405,953.322 405,952.522 L405,950.722 C405,949.922 404.4,949.322 403.6,949.322 L394.8,949.322 L394.8,933.622 C394.8,933.122 394.4,932.622 394,932.422 L392.9,931.822 C392.7,931.722 392.4,931.722 392.2,931.722 C391.9,931.722 391.5,931.822 391.3,932.022 L382.4,940.222 C382.2,940.422 382,940.922 382,941.222 L382,949.322 L370.7,949.322 C370.7,949.322 381.6,937.522 393.2,922.022 C394,920.922 393.6,919.922 393.4,919.722 L391.3,917.522 C391.1,917.322 390.6,917.122 390.3,917.122 L375.7,917.122 C375,917.122 374.5,917.722 374.4,918.322 C374.4,918.322 373.9,925.522 371.3,933.522 C368.7,941.522 365.9,946.322 363.3,949.922 C363.3,949.922 362.8,950.922 363.1,951.622 C363.4,952.322 364.1,953.422 364.1,953.422 C364.1,953.422 364.4,953.922 365.2,953.922"/>
<path class="TimeSig" d="M365.2,1002.53 L382,1002.53 L382,1009.83 L373.9,1009.83 C373.1,1009.83 372.5,1010.43 372.5,1011.23 L372.5,1013.13 C372.5,1013.93 373.1,1014.43 373.9,1014.43 L403.6,1014.43 C404.4,1014.43 405,1013.93 405,1013.13 L405,1011.23 C405,1010.43 404.4,1009.83 403.6,1009.83 L394.8,1009.83 L394.8,1002.53 L403.6,1002.53 C404.4,1002.53 405,1001.93 405,1001.13 L405,999.327 C405,998.527 404.4,997.927 403.6,997.927 L394.8,997.927 L394.8,982.227 C394.8,981.727 394.4,981.227 394,981.027 L392.9,980.427 C392.7,980.327 392.4,980.327 392.2,980.327 C391.9,980.327 391.5,980.427 391.3,980.627 L382.4,988.827 C382.2,989.027 382,989.527 382,989.827 L382,997.927 L370.7,997.927 C370.7,997.927 381.6,986.127 393.2,970.627 C394,969.527 393.6,968.527 393.4,968.327 L391.3,966.127 C391.1,965.927 390.6,965.727 390.3,965.727 L375.7,965.727 C375,965.727 374.5,966.327 374.4,966.927 C374.4,966.927 373.9,974.127 371.3,982.127 C368.7,990.127 365.9,994.927 363.3,998.527 C363.3,998.527 362.8,999.527 363.1,1000.23 C363.4,1000.93 364.1,1002.03 364.1,1002.03 C364.1,1002.03 364.4,1002.53 365.2,1002.53"/>
<path class="TimeSig" d="M365.2,691.406 L382,691.406 L382,698.706 L373.9,698.706 C373.1,698.706 372.5,699.306 372.5,700.106 L372.5,702.006 C372.5,702.806 373.1,703.306 373.9,703.306 L403.6,703.306 C404.4,703.306 405,702.806 405,702.006 L405,700.106 C405,699.306 404.4,698.706 403.6,698.706 L394.8,698.706 L394.8,691.406 L403.6,691.406 C404.4,691.406 405,690.806 405,690.006 L405,688.206 C405,687.406 404.4,686.806 403.6,686.806 L394.8,686.806 L394.8,671.106 C394.8,670.606 394.4,670.106 394,669.906 L392.9,669.306 C392.7,669.206 392.4,669.206 392.2,669.206 C391.9,669.206 391.5,669.306 391.3,669.506 L382.4,677.706 C382.2,677.906 382,678.406 382,678.706 L382,686.806 L370.7,686.806 C370.7,686.806 381.6,675.006 393.2,659.506 C394,658.406 393.6,657.406 393.4,657.206 L391.3,655.006 C391.1,654.806 390.6,654.606 390.3,654.606 L375.7,654.606 C375,654.606 374.5,655.206 374.4,655.806 C374.4,655.806 373.9,663.006 371.3,671.006 C368.7,679.006 365.9,683.806 363.3,687.406 C363.3,687.406 362.8,688.406 363.1,689.106 C363.4,689.806 364.1,690.906 364.1,690.906 C364.1,690.906 364.4,691.406 365.2,691.406"/>
<path class="TimeSig" d="M365.2,740.01 L382,740.01 L382,747.31 L373.9,747.31 C373.1,747.31 372.5,747.91 372.5,748.71 L372.5,750.61 C372.5,751.41 373.1,751.91 373.9,751.91 L403.6,751.91 C404.4,751.91 405,751.41 405,750.61 L405,748.71 C405,747.91 404.4,747.31 403.6,747.31 L394.8,747.31 L394.8,740.01 L403.6,740.01 C404.4,740.01 405,739.41 405,738.61 L405,736.81 C405,736.01 404.4,735.41 403.6,735.41 L394.8,735.41 L394.8,719.71 C394.8,719.21 394.4,718.71 394,718.51 L392.9,717.91 C392.7,717.81 392.4,717.81 392.2,717.81 C391.9,717.81 391.5,717.91 391.3,718.11 L382.4,726.31 C382.2,726.51 382,727.01 382,727.31 L382,735.41 L370.7,735.41 C370.7,735.41 381.6,723.61 393.2,708.11 C394,707.01 393.6,706.01 393.4,705.81 L391.3,703.61 C391.1,703.41 390.6,703.21 390.3,703.21 L375.7,703.21 C375,703.21 374.5,703.81 374.4,704.41 C374.4,704.41 373.9,711.61 371.3,719.61 C368.7,727.61 365.9,732.41 363.3,736.01 C363.3,736.01 362.8,737.01 363.1,737.71 C363.4,738.41 364.1,739.51 364.1,739.51 C364.1,739.51 364.4,740.01 365.2,740.01"/>
<path class="Page" d="M226.289,4049.49 C230.384,4048.01 232.274,4045.71 232.274,4042.11 C232.274,4037.39 228.674,4034.37 223.094,4034.37 C217.829,4034.37 213.824,4037.48 213.824,4041.57 C213.824,4043.42 215.039,4044.72 216.794,4044.72 C218.369,4044.72 219.449,4043.64 219.449,4042.02 C219.449,4041.03 219.089,4040.45 218.054,4039.73 C217.604,4039.41 217.469,4039.23 217.469,4038.92 C217.469,4037.66 220.079,4036.31 222.644,4036.31 C225.884,4036.31 227.594,4038.33 227.594,4042.16 C227.594,4046.34 225.884,4048.55 222.689,4048.55 C222.284,4048.55 221.519,4048.5 220.844,4048.46 C220.484,4048.41 220.124,4048.41 219.854,4048.41 C218.909,4048.41 218.414,4048.82 218.414,4049.63 C218.414,4050.39 218.864,4050.75 219.854,4050.75 C220.124,4050.75 220.484,4050.75 220.889,4050.71 C221.789,4050.66 222.509,4050.66 223.004,4050.66 C226.334,4050.66 228.134,4053.05 228.134,4057.5 C228.134,4062.18 225.884,4064.79 221.834,4064.79 C218.999,4064.79 215.939,4063.26 215.939,4061.87 C215.939,4061.46 216.029,4061.37 216.884,4060.88 C218.144,4060.11 218.639,4059.35 218.639,4058.22 C218.639,4056.6 217.424,4055.39 215.804,4055.39 C213.869,4055.39 212.609,4056.96 212.609,4059.35 C212.609,4063.71 216.614,4066.73 222.374,4066.73 C228.899,4066.73 233.129,4063.13 233.129,4057.59 C233.129,4053.36 230.969,4050.8 226.289,4049.49 M258.459,4056.33 L256.479,4056.33 L256.029,4058.63 C255.444,4061.55 255.084,4061.82 252.294,4061.82 L242.214,4061.82 C245.319,4058.58 246.354,4057.64 249.234,4055.39 C253.329,4052.24 255.084,4050.66 256.119,4049.31 C257.559,4047.33 258.279,4045.35 258.279,4043.15 C258.279,4038.02 254.049,4034.37 248.154,4034.37 C242.439,4034.37 238.074,4038.02 238.074,4042.83 C238.074,4045.67 239.514,4047.6 241.629,4047.6 C243.294,4047.6 244.419,4046.48 244.419,4044.86 C244.419,4043.73 243.789,4042.7 242.844,4042.29 C241.179,4041.62 241.089,4041.53 241.089,4040.94 C241.089,4040.27 241.539,4039.23 242.169,4038.47 C243.294,4037.07 245.139,4036.31 247.254,4036.31 C250.989,4036.31 253.194,4038.6 253.194,4042.38 C253.194,4045.71 251.619,4048.73 247.884,4052.69 C244.554,4056.2 242.484,4058.4 241.719,4059.26 C240.099,4061.15 239.289,4062.18 237.309,4064.79 L237.309,4066.05 L257.604,4066.05 L258.459,4056.33 "/>
<path class="Bracket" transform="matrix(3.62523,0,0,3.62523,214.469,1015.53)" d="M0.92002,-50 C2.69004,-51.88 6.2,-55.8 6.2,-63 C6.2,-72.1 2.25996,-81.32 2.25996,-86.97 C2.25996,-93.06 5.84004,-98.84 5.95,-99 C6.05996,-99.16 6.05,-99.39 5.94004,-99.46 C5.82998,-99.53 5.62002,-99.47 5.49004,-99.32 C5.35996,-99.17 0,-93.75 0,-85.6 C0,-76.75 3.5,-70.58 3.5,-59.07 C3.5,-56.89 2.55996,-53.36 0.1,-50.33 C-0.0799805,-50.17 -0.1,-49.89 0.0599609,-49.7 L0.0700195,-49.69 L0.1,-49.66 C2.55996,-46.63 3.5,-43.1 3.5,-40.92 C3.5,-29.4 0,-23.24 0,-14.39 C0,-6.25 5.35996,-0.8 5.49004,-0.659961 C5.62002,-0.52002 5.8,-0.42998 5.94004,-0.52002 C6.07998,-0.609961 6.07998,-0.77998 5.95,-0.97998 C5.82002,-1.17998 2.25996,-6.92002 2.25996,-13.01 C2.25996,-18.66 6.2,-27.9 6.2,-37 C6.2,-44.3 2.69004,-48.12 0.92002,-50"/>
</svg>