<?xml version="1.0" encoding="UTF-8" standalone="no"?>
<svg width="1000px" height="300px" viewBox="0 400 3040 900" xmlns="http://www.w3.org/2000/svg" xmlns:xlink="http://www.w3.org/1999/xlink" version="1.2" baseProfile="tiny">
 xmlns="http://www.w3.org/2000/svg" xmlns:xlink="http://www.w3.org/1999/xlink" version="1.2" baseProfile="tiny">
<title>exercises_scores (41)</title>
<desc>Generated by MuseScore 3.6.0</desc>
<polyline class="StaffLines" fill="none" stroke="#000000" stroke-width="2.75" stroke-linejoin="bevel" points="247.099,645.317 2764.63,645.317"/>
<polyline class="StaffLines" fill="none" stroke="#000000" stroke-width="2.75" stroke-linejoin="bevel" points="247.099,670.319 2764.63,670.319"/>
<polyline class="StaffLines" fill="none" stroke="#000000" stroke-width="2.75" stroke-linejoin="bevel" points="247.099,695.32 2764.63,695.32"/>
<polyline class="StaffLines" fill="none" stroke="#000000" stroke-width="2.75" stroke-linejoin="bevel" points="247.099,720.322 2764.63,720.322"/>
<polyline class="StaffLines" fill="none" stroke="#000000" stroke-width="2.75" stroke-linejoin="bevel" points="247.099,745.324 2764.63,745.324"/>
<polyline class="StaffLines" fill="none" stroke="#000000" stroke-width="2.75" stroke-linejoin="bevel" points="247.099,907.834 2764.63,907.834"/>
<polyline class="StaffLines" fill="none" stroke="#000000" stroke-width="2.75" stroke-linejoin="bevel" points="247.099,932.835 2764.63,932.835"/>
<polyline class="StaffLines" fill="none" stroke="#000000" stroke-width="2.75" stroke-linejoin="bevel" points="247.099,957.837 2764.63,957.837"/>
<polyline class="StaffLines" fill="none" stroke="#000000" stroke-width="2.75" stroke-linejoin="bevel" points="247.099,982.839 2764.63,982.839"/>
<polyline class="StaffLines" fill="none" stroke="#000000" stroke-width="2.75" stroke-linejoin="bevel" points="247.099,1007.84 2764.63,1007.84"/>
<path class="Text" d="M212.604,256.817 L232.764,256.817 C238.104,256.817 242.184,255.977 245.364,254.177 C251.424,250.757 254.784,243.917 254.784,234.917 C254.784,226.637 251.784,220.157 246.264,216.557 C242.964,214.457 238.524,213.497 231.684,213.497 L212.604,213.497 L212.604,216.317 L213.744,216.317 C217.104,216.377 218.244,216.557 218.724,217.157 C219.084,217.697 219.084,217.817 219.084,220.877 L219.084,249.437 C219.084,252.497 219.084,252.617 218.724,253.157 C218.244,253.757 217.104,253.937 213.744,253.997 L212.604,253.997 L212.604,256.817 M229.224,253.997 C226.164,253.997 225.804,253.637 225.804,250.697 L225.804,219.677 C225.804,216.737 226.224,216.317 229.224,216.317 L232.344,216.317 C242.604,216.317 246.864,221.897 246.864,235.157 C246.864,248.597 243.024,253.997 233.304,253.997 L229.224,253.997 M286.208,212.597 L275.108,213.257 L275.108,215.837 L277.988,215.837 C280.268,215.897 280.568,216.257 280.568,218.837 L280.568,249.437 L280.568,250.877 L280.568,252.317 C280.508,253.157 280.448,253.517 280.208,253.817 C279.788,254.357 278.648,254.597 276.068,254.657 L275.828,254.657 L275.828,256.817 L291.008,256.817 L291.008,254.657 L290.768,254.657 C286.748,254.537 286.208,254.237 286.208,252.077 L286.208,249.437 L286.208,243.197 C286.208,240.257 286.628,237.557 287.288,236.177 C288.608,233.477 291.248,231.617 293.828,231.617 C295.388,231.617 297.188,232.517 298.028,233.717 C298.988,235.037 299.408,236.837 299.408,239.777 L299.408,249.437 L299.408,252.317 C299.348,253.157 299.288,253.517 299.048,253.817 C298.628,254.357 297.428,254.597 294.848,254.657 L294.608,254.657 L294.608,256.817 L309.788,256.817 L309.788,254.657 L309.548,254.657 C305.588,254.537 305.048,254.237 305.048,252.077 L305.048,249.437 L305.048,240.017 C305.048,235.697 304.868,234.617 303.788,232.577 C302.288,229.637 299.288,227.957 295.688,227.957 C291.788,227.957 288.908,229.697 286.208,233.717 L286.208,212.597 M337.984,237.497 C337.984,233.717 337.324,231.797 335.584,230.357 C333.604,228.737 330.664,227.957 326.824,227.957 C320.044,227.957 315.124,231.137 315.124,235.517 C315.124,237.737 316.504,239.177 318.604,239.177 C320.524,239.177 321.844,237.917 321.844,236.117 C321.844,235.337 321.544,234.497 320.944,233.657 C320.584,233.237 320.524,233.117 320.524,232.817 C320.524,231.617 322.924,230.537 325.804,230.537 C327.724,230.537 329.824,231.137 330.784,232.037 C331.924,232.997 332.344,234.437 332.344,237.137 L332.344,239.477 C326.104,240.557 324.124,241.037 321.184,242.177 C315.964,244.097 313.504,246.857 313.504,250.697 C313.504,255.017 316.864,257.717 322.204,257.717 C326.344,257.717 330.064,256.037 332.644,252.977 C333.604,256.037 335.104,257.237 337.924,257.237 C340.624,257.237 343.444,255.497 343.444,253.757 C343.444,253.337 343.204,253.037 342.844,253.037 C342.604,253.037 342.364,253.097 341.944,253.277 C341.104,253.637 340.744,253.697 340.264,253.697 C338.584,253.697 337.984,252.617 337.984,249.557 L337.984,237.497 M332.344,244.817 C332.344,248.417 332.164,249.257 331.144,250.817 C329.644,253.037 326.944,254.537 324.304,254.537 C321.544,254.537 319.564,252.557 319.564,249.857 C319.564,247.337 320.824,245.537 323.464,244.277 C325.324,243.437 327.664,242.837 332.344,242.057 L332.344,244.817 M356.103,228.857 L345.483,229.517 L345.483,232.097 L347.943,232.097 C350.223,232.157 350.523,232.517 350.523,235.097 L350.523,249.437 L350.523,252.257 C350.463,253.157 350.403,253.517 350.163,253.817 C349.743,254.357 348.543,254.597 345.963,254.657 L345.723,254.657 L345.723,256.817 L361.743,256.817 L361.743,254.657 L360.663,254.657 C356.643,254.537 356.103,254.237 356.103,252.077 L356.103,249.437 L356.103,248.837 C356.163,238.757 359.763,231.077 364.443,230.837 C363.603,231.797 363.363,232.397 363.363,233.537 C363.363,235.457 364.743,236.837 366.663,236.837 C368.883,236.837 370.323,235.217 370.323,232.817 C370.323,229.877 368.283,227.957 365.103,227.957 C361.323,227.957 358.083,230.957 356.103,236.297 L356.103,228.857 M383.924,228.857 L373.244,229.517 L373.244,232.097 L375.704,232.097 C377.984,232.157 378.284,232.517 378.284,235.097 L378.284,249.437 L378.284,251.777 L378.284,252.257 C378.224,253.157 378.164,253.517 377.924,253.817 C377.504,254.357 376.364,254.597 373.784,254.657 L373.544,254.657 L373.544,256.817 L388.664,256.817 L388.664,254.657 L388.424,254.657 C384.464,254.537 383.924,254.237 383.924,252.017 L383.924,249.437 L383.924,240.917 C383.924,235.577 386.864,231.617 390.764,231.617 C394.184,231.617 395.924,234.077 395.924,238.937 L395.924,249.437 L395.924,252.317 C395.864,253.097 395.804,253.517 395.504,253.817 C395.144,254.357 393.944,254.597 391.364,254.657 L391.124,254.657 L391.124,256.817 L406.304,256.817 L406.304,254.657 L406.064,254.657 C402.104,254.537 401.564,254.237 401.564,252.077 L401.564,249.437 L401.564,241.457 C401.564,235.457 404.264,231.617 408.464,231.617 C411.884,231.617 413.564,234.197 413.564,239.597 L413.564,249.437 L413.564,252.257 C413.504,253.097 413.444,253.517 413.144,253.817 C412.784,254.357 411.584,254.597 409.004,254.657 L408.764,254.657 L408.764,256.817 L423.944,256.817 L423.944,254.657 L423.704,254.657 C419.744,254.537 419.204,254.237 419.204,252.017 L419.204,249.437 L419.204,238.397 C419.204,234.677 418.844,233.417 417.284,231.377 C415.544,229.157 413.084,227.957 410.204,227.957 C406.304,227.957 403.424,229.817 400.844,233.957 C399.824,230.357 396.584,227.957 392.564,227.957 C388.904,227.957 386.264,229.697 383.924,233.477 L383.924,228.857 M440.312,227.957 C432.932,227.957 427.232,234.497 427.232,242.897 C427.232,251.117 432.992,257.717 440.192,257.717 C447.392,257.717 453.152,251.117 453.152,242.837 C453.152,234.617 447.392,227.957 440.312,227.957 M440.312,230.537 C444.512,230.537 446.852,234.917 446.852,242.837 C446.852,250.817 444.512,255.137 440.192,255.137 C435.872,255.137 433.532,250.817 433.532,242.897 C433.532,234.737 435.812,230.537 440.312,230.537 M467.192,228.857 L456.812,229.517 L456.812,232.097 L458.972,232.097 C461.252,232.157 461.552,232.517 461.552,235.097 L461.552,249.437 L461.552,250.877 L461.552,252.257 C461.492,253.157 461.432,253.517 461.192,253.817 C460.772,254.357 459.632,254.597 457.052,254.657 L456.812,254.657 L456.812,256.817 L471.992,256.817 L471.992,254.657 L471.752,254.657 C467.732,254.537 467.192,254.237 467.192,252.077 L467.192,249.437 L467.192,243.197 C467.192,240.257 467.612,237.557 468.272,236.177 C469.532,233.477 472.232,231.617 474.812,231.617 C476.372,231.617 478.172,232.457 479.072,233.717 C479.972,235.037 480.392,236.837 480.392,239.717 L480.392,249.437 L480.392,252.257 C480.332,253.157 480.272,253.517 480.032,253.817 C479.612,254.357 478.412,254.597 475.832,254.657 L475.592,254.657 L475.592,256.817 L490.772,256.817 L490.772,254.657 L490.532,254.657 C486.572,254.537 486.032,254.237 486.032,252.077 L486.032,249.437 L486.032,240.017 C486.032,235.697 485.852,234.617 484.772,232.577 C483.272,229.697 480.272,227.957 476.672,227.957 C472.772,227.957 469.832,229.757 467.192,233.717 L467.192,228.857 M504.208,228.857 L492.928,229.517 L492.928,232.097 L495.988,232.097 C498.268,232.157 498.568,232.517 498.568,235.097 L498.568,249.437 L498.568,252.257 C498.508,253.157 498.448,253.517 498.208,253.817 C497.788,254.357 496.648,254.597 494.068,254.657 L493.648,254.657 L493.648,256.817 L509.188,256.817 L509.188,254.657 L508.768,254.657 C504.748,254.537 504.208,254.237 504.208,252.077 L504.208,249.437 L504.208,228.857 M501.388,213.917 C499.468,213.917 497.908,215.477 497.908,217.397 C497.908,219.317 499.468,220.877 501.328,220.877 C503.308,220.877 504.868,219.317 504.868,217.397 C504.868,215.477 503.308,213.917 501.388,213.917 M533.959,247.997 C532.039,252.317 529.999,254.057 526.879,254.057 C522.079,254.057 519.079,249.677 519.079,242.657 C519.079,235.337 522.019,230.537 526.459,230.537 C528.259,230.537 529.819,231.377 529.819,232.337 C529.819,232.517 529.759,232.697 529.459,233.057 C528.499,234.197 528.259,234.797 528.259,235.817 C528.259,237.797 529.759,239.177 531.859,239.177 C534.019,239.177 535.519,237.497 535.519,235.097 C535.519,231.017 531.499,227.957 526.159,227.957 C518.359,227.957 512.779,234.317 512.779,243.317 C512.779,251.837 517.879,257.717 525.319,257.717 C530.659,257.717 533.719,255.257 536.299,248.897 L533.959,247.997 M566.096,228.857 L555.416,229.517 L555.416,232.097 L557.876,232.097 C560.156,232.157 560.456,232.517 560.456,235.097 L560.456,249.437 L560.456,251.777 L560.456,252.257 C560.396,253.157 560.336,253.517 560.096,253.817 C559.676,254.357 558.536,254.597 555.956,254.657 L555.716,254.657 L555.716,256.817 L570.836,256.817 L570.836,254.657 L570.596,254.657 C566.636,254.537 566.096,254.237 566.096,252.017 L566.096,249.437 L566.096,240.917 C566.096,235.577 569.036,231.617 572.936,231.617 C576.356,231.617 578.096,234.077 578.096,238.937 L578.096,249.437 L578.096,252.317 C578.036,253.097 577.976,253.517 577.676,253.817 C577.316,254.357 576.116,254.597 573.536,254.657 L573.296,254.657 L573.296,256.817 L588.476,256.817 L588.476,254.657 L588.236,254.657 C584.276,254.537 583.736,254.237 583.736,252.077 L583.736,249.437 L583.736,241.457 C583.736,235.457 586.436,231.617 590.636,231.617 C594.056,231.617 595.736,234.197 595.736,239.597 L595.736,249.437 L595.736,252.257 C595.676,253.097 595.616,253.517 595.316,253.817 C594.956,254.357 593.756,254.597 591.176,254.657 L590.936,254.657 L590.936,256.817 L606.116,256.817 L606.116,254.657 L605.876,254.657 C601.916,254.537 601.376,254.237 601.376,252.017 L601.376,249.437 L601.376,238.397 C601.376,234.677 601.016,233.417 599.456,231.377 C597.716,229.157 595.256,227.957 592.376,227.957 C588.476,227.957 585.596,229.817 583.016,233.957 C581.996,230.357 578.756,227.957 574.736,227.957 C571.076,227.957 568.436,229.697 566.096,233.477 L566.096,228.857 M619.724,228.857 L608.444,229.517 L608.444,232.097 L611.504,232.097 C613.784,232.157 614.084,232.517 614.084,235.097 L614.084,249.437 L614.084,252.257 C614.024,253.157 613.964,253.517 613.724,253.817 C613.304,254.357 612.164,254.597 609.584,254.657 L609.164,254.657 L609.164,256.817 L624.704,256.817 L624.704,254.657 L624.284,254.657 C620.264,254.537 619.724,254.237 619.724,252.077 L619.724,249.437 L619.724,228.857 M616.904,213.917 C614.984,213.917 613.424,215.477 613.424,217.397 C613.424,219.317 614.984,220.877 616.844,220.877 C618.824,220.877 620.384,219.317 620.384,217.397 C620.384,215.477 618.824,213.917 616.904,213.917 M638.255,228.857 L627.875,229.517 L627.875,232.097 L630.035,232.097 C632.315,232.157 632.615,232.517 632.615,235.097 L632.615,249.437 L632.615,250.877 L632.615,252.257 C632.555,253.157 632.495,253.517 632.255,253.817 C631.835,254.357 630.695,254.597 628.115,254.657 L627.875,254.657 L627.875,256.817 L643.055,256.817 L643.055,254.657 L642.815,254.657 C638.795,254.537 638.255,254.237 638.255,252.077 L638.255,249.437 L638.255,243.197 C638.255,240.257 638.675,237.557 639.335,236.177 C640.595,233.477 643.295,231.617 645.875,231.617 C647.435,231.617 649.235,232.457 650.135,233.717 C651.035,235.037 651.455,236.837 651.455,239.717 L651.455,249.437 L651.455,252.257 C651.395,253.157 651.335,253.517 651.095,253.817 C650.675,254.357 649.475,254.597 646.895,254.657 L646.655,254.657 L646.655,256.817 L661.835,256.817 L661.835,254.657 L661.595,254.657 C657.635,254.537 657.095,254.237 657.095,252.077 L657.095,249.437 L657.095,240.017 C657.095,235.697 656.915,234.617 655.835,232.577 C654.335,229.697 651.335,227.957 647.735,227.957 C643.835,227.957 640.895,229.757 638.255,233.717 L638.255,228.857 M678.031,227.957 C670.651,227.957 664.951,234.497 664.951,242.897 C664.951,251.117 670.711,257.717 677.911,257.717 C685.111,257.717 690.871,251.117 690.871,242.837 C690.871,234.617 685.111,227.957 678.031,227.957 M678.031,230.537 C682.231,230.537 684.571,234.917 684.571,242.837 C684.571,250.817 682.231,255.137 677.911,255.137 C673.591,255.137 671.251,250.817 671.251,242.897 C671.251,234.737 673.531,230.537 678.031,230.537 M704.791,228.857 L694.171,229.517 L694.171,232.097 L696.631,232.097 C698.911,232.157 699.211,232.517 699.211,235.097 L699.211,249.437 L699.211,252.257 C699.151,253.157 699.091,253.517 698.851,253.817 C698.431,254.357 697.231,254.597 694.651,254.657 L694.411,254.657 L694.411,256.817 L710.431,256.817 L710.431,254.657 L709.351,254.657 C705.331,254.537 704.791,254.237 704.791,252.077 L704.791,249.437 L704.791,248.837 C704.851,238.757 708.451,231.077 713.131,230.837 C712.291,231.797 712.051,232.397 712.051,233.537 C712.051,235.457 713.431,236.837 715.351,236.837 C717.571,236.837 719.011,235.217 719.011,232.817 C719.011,229.877 716.971,227.957 713.791,227.957 C710.011,227.957 706.771,230.957 704.791,236.297 L704.791,228.857 "/>
<polyline class="BarLine" fill="none" stroke="#000000" stroke-width="4.50" stroke-linejoin="bevel" points="249.349,906.459 249.349,1009.22"/>
<polyline class="BarLine" fill="none" stroke="#000000" stroke-width="4.50" stroke-linejoin="bevel" points="963.693,906.459 963.693,1009.22"/>
<polyline class="BarLine" fill="none" stroke="#000000" stroke-width="4.50" stroke-linejoin="bevel" points="1620.48,906.459 1620.48,1009.22"/>
<polyline class="BarLine" fill="none" stroke="#000000" stroke-width="4.50" stroke-linejoin="bevel" points="2234.93,906.459 2234.93,1009.22"/>
<polyline class="BarLine" fill="none" stroke="#000000" stroke-width="4.50" stroke-linejoin="bevel" points="2734.88,906.459 2734.88,1009.22"/>
<polyline class="BarLine" fill="none" stroke="#000000" stroke-width="13.75" stroke-linejoin="bevel" points="2757.75,906.459 2757.75,1009.22"/>
<polyline class="BarLine" fill="none" stroke="#000000" stroke-width="4.50" stroke-linejoin="bevel" points="249.349,643.942 249.349,907.834"/>
<polyline class="BarLine" fill="none" stroke="#000000" stroke-width="4.50" stroke-linejoin="bevel" points="963.693,643.942 963.693,907.834"/>
<polyline class="BarLine" fill="none" stroke="#000000" stroke-width="4.50" stroke-linejoin="bevel" points="1620.48,643.942 1620.48,907.834"/>
<polyline class="BarLine" fill="none" stroke="#000000" stroke-width="4.50" stroke-linejoin="bevel" points="2234.93,643.942 2234.93,907.834"/>
<polyline class="BarLine" fill="none" stroke="#000000" stroke-width="4.50" stroke-linejoin="bevel" points="2734.88,643.942 2734.88,907.834"/>
<polyline class="BarLine" fill="none" stroke="#000000" stroke-width="13.75" stroke-linejoin="bevel" points="2757.75,643.942 2757.75,907.834"/>
<path class="Accidental" d="M1146.94,887.433 C1146.34,883.533 1143.94,879.833 1138.84,879.833 C1133.84,879.833 1130.94,882.933 1130.44,883.533 L1130.84,851.433 C1130.84,850.633 1130.24,850.033 1129.44,850.033 L1128.24,850.033 C1127.44,850.033 1126.84,850.633 1126.84,851.433 L1127.34,911.533 C1127.34,912.333 1127.94,912.933 1128.74,912.933 C1128.94,912.933 1129.34,912.833 1129.54,912.733 C1129.94,912.533 1136.44,909.333 1141.84,903.233 C1145.64,898.933 1147.14,894.033 1147.14,889.933 C1147.14,889.033 1147.04,888.233 1146.94,887.433 M1140.04,891.333 C1140.04,892.833 1139.64,897.433 1137.14,901.233 C1135.44,903.833 1132.04,906.533 1130.14,908.033 L1130.44,888.533 C1130.64,887.633 1132.14,884.733 1136.14,884.733 C1139.74,884.733 1140.04,888.133 1140.04,890.233 L1140.04,891.333 "/>
<path class="Accidental" d="M1292.23,872.232 C1292.83,872.132 1293.33,871.432 1293.33,870.832 L1293.33,864.932 C1293.33,864.132 1292.73,863.532 1291.93,863.532 L1291.73,863.532 L1288.43,864.232 L1288.43,849.332 L1285.63,849.332 L1285.63,864.832 L1276.73,866.632 L1276.73,852.532 L1273.93,852.532 L1273.93,867.232 L1270.03,868.032 C1269.43,868.132 1268.93,868.832 1268.93,869.432 L1268.93,869.632 L1268.93,875.432 L1268.93,875.232 C1268.93,876.032 1269.53,876.632 1270.33,876.632 L1270.63,876.632 L1273.93,875.932 L1273.93,892.432 L1270.03,893.232 C1269.43,893.332 1268.93,894.032 1268.93,894.632 L1268.93,900.432 C1268.93,901.232 1269.53,901.832 1270.33,901.832 L1270.63,901.832 L1273.93,901.132 L1273.93,916.032 L1276.73,916.032 L1276.73,900.532 L1285.63,898.732 L1285.63,912.832 L1288.43,912.832 L1288.43,898.132 L1292.23,897.432 C1292.83,897.332 1293.33,896.632 1293.33,896.032 L1293.33,890.132 C1293.33,889.332 1292.73,888.732 1291.93,888.732 L1291.73,888.732 L1288.43,889.432 L1288.43,872.932 L1292.23,872.232 M1276.73,891.932 L1276.73,875.332 L1285.63,873.532 L1285.63,890.032 L1276.73,891.932 "/>
<path class="Accidental" d="M1667.78,872.232 C1668.38,872.132 1668.88,871.432 1668.88,870.832 L1668.88,864.932 C1668.88,864.132 1668.28,863.532 1667.48,863.532 L1667.28,863.532 L1663.98,864.232 L1663.98,849.332 L1661.18,849.332 L1661.18,864.832 L1652.28,866.632 L1652.28,852.532 L1649.48,852.532 L1649.48,867.232 L1645.58,868.032 C1644.98,868.132 1644.48,868.832 1644.48,869.432 L1644.48,869.632 L1644.48,875.432 L1644.48,875.232 C1644.48,876.032 1645.08,876.632 1645.88,876.632 L1646.18,876.632 L1649.48,875.932 L1649.48,892.432 L1645.58,893.232 C1644.98,893.332 1644.48,894.032 1644.48,894.632 L1644.48,900.432 C1644.48,901.232 1645.08,901.832 1645.88,901.832 L1646.18,901.832 L1649.48,901.132 L1649.48,916.032 L1652.28,916.032 L1652.28,900.532 L1661.18,898.732 L1661.18,912.832 L1663.98,912.832 L1663.98,898.132 L1667.78,897.432 C1668.38,897.332 1668.88,896.632 1668.88,896.032 L1668.88,890.132 C1668.88,889.332 1668.28,888.732 1667.48,888.732 L1667.28,888.732 L1663.98,889.432 L1663.98,872.932 L1667.78,872.232 M1652.28,891.932 L1652.28,875.332 L1661.18,873.532 L1661.18,890.032 L1652.28,891.932 "/>
<path class="Accidental" d="M1814.63,887.433 C1814.03,883.533 1811.63,879.833 1806.53,879.833 C1801.53,879.833 1798.63,882.933 1798.13,883.533 L1798.53,851.433 C1798.53,850.633 1797.93,850.033 1797.13,850.033 L1795.93,850.033 C1795.13,850.033 1794.53,850.633 1794.53,851.433 L1795.03,911.533 C1795.03,912.333 1795.63,912.933 1796.43,912.933 C1796.63,912.933 1797.03,912.833 1797.23,912.733 C1797.63,912.533 1804.13,909.333 1809.53,903.233 C1813.33,898.933 1814.83,894.033 1814.83,889.933 C1814.83,889.033 1814.73,888.233 1814.63,887.433 M1807.73,891.333 C1807.73,892.833 1807.33,897.433 1804.83,901.233 C1803.13,903.833 1799.73,906.533 1797.83,908.033 L1798.13,888.533 C1798.33,887.633 1799.83,884.733 1803.83,884.733 C1807.43,884.733 1807.73,888.133 1807.73,890.233 L1807.73,891.333 "/>
<path class="Accidental" d="M1146.94,687.42 C1146.34,683.52 1143.94,679.82 1138.84,679.82 C1133.84,679.82 1130.94,682.92 1130.44,683.52 L1130.84,651.42 C1130.84,650.62 1130.24,650.02 1129.44,650.02 L1128.24,650.02 C1127.44,650.02 1126.84,650.62 1126.84,651.42 L1127.34,711.52 C1127.34,712.32 1127.94,712.92 1128.74,712.92 C1128.94,712.92 1129.34,712.82 1129.54,712.72 C1129.94,712.52 1136.44,709.32 1141.84,703.22 C1145.64,698.92 1147.14,694.02 1147.14,689.92 C1147.14,689.02 1147.04,688.22 1146.94,687.42 M1140.04,691.32 C1140.04,692.82 1139.64,697.42 1137.14,701.22 C1135.44,703.82 1132.04,706.52 1130.14,708.02 L1130.44,688.52 C1130.64,687.62 1132.14,684.72 1136.14,684.72 C1139.74,684.72 1140.04,688.12 1140.04,690.22 L1140.04,691.32 "/>
<path class="Accidental" d="M1300.99,672.22 C1301.59,672.12 1302.09,671.42 1302.09,670.82 L1302.09,664.92 C1302.09,664.12 1301.49,663.52 1300.69,663.52 L1300.49,663.52 L1297.19,664.22 L1297.19,649.32 L1294.39,649.32 L1294.39,664.82 L1285.49,666.62 L1285.49,652.52 L1282.69,652.52 L1282.69,667.22 L1278.79,668.02 C1278.19,668.12 1277.69,668.82 1277.69,669.42 L1277.69,669.62 L1277.69,675.42 L1277.69,675.22 C1277.69,676.02 1278.29,676.62 1279.09,676.62 L1279.39,676.62 L1282.69,675.92 L1282.69,692.42 L1278.79,693.22 C1278.19,693.32 1277.69,694.02 1277.69,694.62 L1277.69,700.42 C1277.69,701.22 1278.29,701.82 1279.09,701.82 L1279.39,701.82 L1282.69,701.12 L1282.69,716.02 L1285.49,716.02 L1285.49,700.52 L1294.39,698.72 L1294.39,712.82 L1297.19,712.82 L1297.19,698.12 L1300.99,697.42 C1301.59,697.32 1302.09,696.62 1302.09,696.02 L1302.09,690.12 C1302.09,689.32 1301.49,688.72 1300.69,688.72 L1300.49,688.72 L1297.19,689.42 L1297.19,672.92 L1300.99,672.22 M1285.49,691.92 L1285.49,675.32 L1294.39,673.52 L1294.39,690.02 L1285.49,691.92 "/>
<path class="Accidental" d="M1676.53,672.22 C1677.13,672.12 1677.63,671.42 1677.63,670.82 L1677.63,664.92 C1677.63,664.12 1677.03,663.52 1676.23,663.52 L1676.03,663.52 L1672.73,664.22 L1672.73,649.32 L1669.93,649.32 L1669.93,664.82 L1661.03,666.62 L1661.03,652.52 L1658.23,652.52 L1658.23,667.22 L1654.33,668.02 C1653.73,668.12 1653.23,668.82 1653.23,669.42 L1653.23,669.62 L1653.23,675.42 L1653.23,675.22 C1653.23,676.02 1653.83,676.62 1654.63,676.62 L1654.93,676.62 L1658.23,675.92 L1658.23,692.42 L1654.33,693.22 C1653.73,693.32 1653.23,694.02 1653.23,694.62 L1653.23,700.42 C1653.23,701.22 1653.83,701.82 1654.63,701.82 L1654.93,701.82 L1658.23,701.12 L1658.23,716.02 L1661.03,716.02 L1661.03,700.52 L1669.93,698.72 L1669.93,712.82 L1672.73,712.82 L1672.73,698.12 L1676.53,697.42 C1677.13,697.32 1677.63,696.62 1677.63,696.02 L1677.63,690.12 C1677.63,689.32 1677.03,688.72 1676.23,688.72 L1676.03,688.72 L1672.73,689.42 L1672.73,672.92 L1676.53,672.22 M1661.03,691.92 L1661.03,675.32 L1669.93,673.52 L1669.93,690.02 L1661.03,691.92 "/>
<path class="Accidental" d="M1814.63,687.42 C1814.03,683.52 1811.63,679.82 1806.53,679.82 C1801.53,679.82 1798.63,682.92 1798.13,683.52 L1798.53,651.42 C1798.53,650.62 1797.93,650.02 1797.13,650.02 L1795.93,650.02 C1795.13,650.02 1794.53,650.62 1794.53,651.42 L1795.03,711.52 C1795.03,712.32 1795.63,712.92 1796.43,712.92 C1796.63,712.92 1797.03,712.82 1797.23,712.72 C1797.63,712.52 1804.13,709.32 1809.53,703.22 C1813.33,698.92 1814.83,694.02 1814.83,689.92 C1814.83,689.02 1814.73,688.22 1814.63,687.42 M1807.73,691.32 C1807.73,692.82 1807.33,697.42 1804.83,701.22 C1803.13,703.82 1799.73,706.52 1797.83,708.02 L1798.13,688.52 C1798.33,687.62 1799.83,684.72 1803.83,684.72 C1807.43,684.72 1807.73,688.12 1807.73,690.22 L1807.73,691.32 "/>
<polyline class="LedgerLine" fill="none" stroke="#000000" stroke-width="4.00" stroke-linejoin="bevel" points="1299.59,882.832 1349.58,882.832"/>
<polyline class="LedgerLine" fill="none" stroke="#000000" stroke-width="4.00" stroke-linejoin="bevel" points="1454.53,882.832 1504.53,882.832"/>
<polyline class="LedgerLine" fill="none" stroke="#000000" stroke-width="4.00" stroke-linejoin="bevel" points="1675.13,882.832 1725.12,882.832"/>
<polyline class="Stem" fill="none" stroke="#000000" stroke-width="2.75" stroke-linejoin="bevel" points="456.377,961.357 456.377,1035.97"/>
<polyline class="Stem" fill="none" stroke="#000000" stroke-width="2.75" stroke-linejoin="bevel" points="582.987,948.856 582.987,1026.59"/>
<polyline class="Stem" fill="none" stroke="#000000" stroke-width="2.75" stroke-linejoin="bevel" points="709.598,936.356 709.598,1017.22"/>
<polyline class="Stem" fill="none" stroke="#000000" stroke-width="2.75" stroke-linejoin="bevel" points="836.208,923.855 836.208,1007.84"/>
<polyline class="Stem" fill="none" stroke="#000000" stroke-width="2.75" stroke-linejoin="bevel" points="999.82,911.354 999.82,995.339"/>
<polyline class="Stem" fill="none" stroke="#000000" stroke-width="2.75" stroke-linejoin="bevel" points="1154.77,898.853 1154.77,982.839"/>
<polyline class="Stem" fill="none" stroke="#000000" stroke-width="2.75" stroke-linejoin="bevel" points="1309.71,886.352 1309.71,970.338"/>
<polyline class="Stem" fill="none" stroke="#000000" stroke-width="2.75" stroke-linejoin="bevel" points="1464.66,873.852 1464.66,957.837"/>
<polyline class="Stem" fill="none" stroke="#000000" stroke-width="2.75" stroke-linejoin="bevel" points="1685.25,886.352 1685.25,970.338"/>
<polyline class="Stem" fill="none" stroke="#000000" stroke-width="2.75" stroke-linejoin="bevel" points="1822.45,898.853 1822.45,982.839"/>
<polyline class="Stem" fill="none" stroke="#000000" stroke-width="2.75" stroke-linejoin="bevel" points="1959.65,911.354 1959.65,995.339"/>
<polyline class="Stem" fill="none" stroke="#000000" stroke-width="2.75" stroke-linejoin="bevel" points="2096.85,923.855 2096.85,1007.84"/>
<polyline class="Stem" fill="none" stroke="#000000" stroke-width="2.75" stroke-linejoin="bevel" points="2271.06,936.356 2271.06,1017.22"/>
<polyline class="Stem" fill="none" stroke="#000000" stroke-width="2.75" stroke-linejoin="bevel" points="2399.65,948.856 2399.65,1026.59"/>
<polyline class="Stem" fill="none" stroke="#000000" stroke-width="2.75" stroke-linejoin="bevel" points="2528.25,961.277 2528.25,1035.97"/>
<polyline class="Stem" fill="none" stroke="#000000" stroke-width="2.75" stroke-linejoin="bevel" points="486.121,754.464 486.121,670.319"/>
<polyline class="Stem" fill="none" stroke="#000000" stroke-width="2.75" stroke-linejoin="bevel" points="612.732,741.963 612.732,657.818"/>
<polyline class="Stem" fill="none" stroke="#000000" stroke-width="2.75" stroke-linejoin="bevel" points="739.342,729.463 739.342,645.317"/>
<polyline class="Stem" fill="none" stroke="#000000" stroke-width="2.75" stroke-linejoin="bevel" points="865.952,716.962 865.952,635.942"/>
<polyline class="Stem" fill="none" stroke="#000000" stroke-width="2.75" stroke-linejoin="bevel" points="1029.56,704.461 1029.56,626.566"/>
<polyline class="Stem" fill="none" stroke="#000000" stroke-width="2.75" stroke-linejoin="bevel" points="1154.77,698.841 1154.77,773.45"/>
<polyline class="Stem" fill="none" stroke="#000000" stroke-width="2.75" stroke-linejoin="bevel" points="1309.71,686.34 1309.71,764.075"/>
<polyline class="Stem" fill="none" stroke="#000000" stroke-width="2.75" stroke-linejoin="bevel" points="1464.66,673.839 1464.66,754.699"/>
<polyline class="Stem" fill="none" stroke="#000000" stroke-width="2.75" stroke-linejoin="bevel" points="1685.25,686.34 1685.25,764.075"/>
<polyline class="Stem" fill="none" stroke="#000000" stroke-width="2.75" stroke-linejoin="bevel" points="1822.45,698.841 1822.45,773.45"/>
<polyline class="Stem" fill="none" stroke="#000000" stroke-width="2.75" stroke-linejoin="bevel" points="1989.4,704.461 1989.4,626.566"/>
<polyline class="Stem" fill="none" stroke="#000000" stroke-width="2.75" stroke-linejoin="bevel" points="2126.6,716.962 2126.6,635.942"/>
<polyline class="Stem" fill="none" stroke="#000000" stroke-width="2.75" stroke-linejoin="bevel" points="2300.8,729.463 2300.8,645.317"/>
<polyline class="Stem" fill="none" stroke="#000000" stroke-width="2.75" stroke-linejoin="bevel" points="2429.4,741.963 2429.4,657.818"/>
<polyline class="Stem" fill="none" stroke="#000000" stroke-width="2.75" stroke-linejoin="bevel" points="2557.99,754.384 2557.99,670.319"/>
<path class="Note" d="M486.502,949.637 C485.002,946.937 482.102,945.237 478.202,944.837 C477.602,944.737 477.102,944.737 476.502,944.737 C473.002,944.737 469.202,945.737 465.702,947.637 C459.102,951.237 455.002,957.137 455.002,962.237 C455.002,963.637 455.202,964.937 455.902,966.137 C457.402,968.837 460.402,970.537 464.302,970.937 C464.902,971.037 465.402,971.037 466.002,971.037 C469.502,971.037 473.202,970.037 476.702,968.137 C483.302,964.537 487.502,958.737 487.502,953.637 C487.502,952.237 487.202,950.837 486.502,949.637"/>
<path class="Note" d="M613.112,937.136 C611.612,934.436 608.712,932.736 604.812,932.336 C604.212,932.236 603.712,932.236 603.112,932.236 C599.612,932.236 595.812,933.236 592.312,935.136 C585.712,938.736 581.612,944.636 581.612,949.736 C581.612,951.136 581.812,952.436 582.512,953.636 C584.012,956.336 587.012,958.036 590.912,958.436 C591.512,958.536 592.012,958.536 592.612,958.536 C596.112,958.536 599.812,957.536 603.312,955.636 C609.912,952.036 614.112,946.236 614.112,941.136 C614.112,939.736 613.812,938.336 613.112,937.136"/>
<path class="Note" d="M739.722,924.635 C738.222,921.935 735.322,920.235 731.422,919.835 C730.822,919.735 730.322,919.735 729.722,919.735 C726.222,919.735 722.422,920.735 718.922,922.635 C712.322,926.235 708.222,932.135 708.222,937.235 C708.222,938.635 708.422,939.935 709.122,941.135 C710.622,943.835 713.622,945.535 717.522,945.935 C718.122,946.035 718.622,946.035 719.222,946.035 C722.722,946.035 726.422,945.035 729.922,943.135 C736.522,939.535 740.722,933.735 740.722,928.635 C740.722,927.235 740.422,925.835 739.722,924.635"/>
<path class="Note" d="M866.333,912.135 C864.833,909.435 861.933,907.735 858.033,907.335 C857.433,907.235 856.933,907.235 856.333,907.235 C852.833,907.235 849.033,908.235 845.533,910.135 C838.933,913.735 834.833,919.635 834.833,924.735 C834.833,926.135 835.033,927.435 835.733,928.635 C837.233,931.335 840.233,933.035 844.133,933.435 C844.733,933.535 845.233,933.535 845.833,933.535 C849.333,933.535 853.033,932.535 856.533,930.635 C863.133,927.035 867.333,921.235 867.333,916.135 C867.333,914.735 867.033,913.335 866.333,912.135"/>
<path class="Note" d="M1029.94,899.634 C1028.44,896.934 1025.54,895.234 1021.64,894.834 C1021.04,894.734 1020.54,894.734 1019.94,894.734 C1016.44,894.734 1012.64,895.734 1009.14,897.634 C1002.54,901.234 998.445,907.134 998.445,912.234 C998.445,913.634 998.645,914.934 999.345,916.134 C1000.84,918.834 1003.84,920.534 1007.74,920.934 C1008.34,921.034 1008.84,921.034 1009.44,921.034 C1012.94,921.034 1016.64,920.034 1020.14,918.134 C1026.74,914.534 1030.94,908.734 1030.94,903.634 C1030.94,902.234 1030.64,900.834 1029.94,899.634"/>
<path class="Note" d="M1184.89,887.133 C1183.39,884.433 1180.49,882.733 1176.59,882.333 C1175.99,882.233 1175.49,882.233 1174.89,882.233 C1171.39,882.233 1167.59,883.233 1164.09,885.133 C1157.49,888.733 1153.39,894.633 1153.39,899.733 C1153.39,901.133 1153.59,902.433 1154.29,903.633 C1155.79,906.333 1158.79,908.033 1162.69,908.433 C1163.29,908.533 1163.79,908.533 1164.39,908.533 C1167.89,908.533 1171.59,907.533 1175.09,905.633 C1181.69,902.033 1185.89,896.233 1185.89,891.133 C1185.89,889.733 1185.59,888.333 1184.89,887.133"/>
<path class="Note" d="M1339.84,874.632 C1338.34,871.932 1335.44,870.232 1331.54,869.832 C1330.94,869.732 1330.44,869.732 1329.84,869.732 C1326.34,869.732 1322.54,870.732 1319.04,872.632 C1312.44,876.232 1308.34,882.132 1308.34,887.232 C1308.34,888.632 1308.54,889.932 1309.24,891.132 C1310.74,893.832 1313.74,895.532 1317.64,895.932 C1318.24,896.032 1318.74,896.032 1319.34,896.032 C1322.84,896.032 1326.54,895.032 1330.04,893.132 C1336.64,889.532 1340.84,883.732 1340.84,878.632 C1340.84,877.232 1340.54,875.832 1339.84,874.632"/>
<path class="Note" d="M1494.78,862.131 C1493.28,859.431 1490.38,857.731 1486.48,857.331 C1485.88,857.231 1485.38,857.231 1484.78,857.231 C1481.28,857.231 1477.48,858.231 1473.98,860.131 C1467.38,863.731 1463.28,869.631 1463.28,874.731 C1463.28,876.131 1463.48,877.431 1464.18,878.631 C1465.68,881.331 1468.68,883.031 1472.58,883.431 C1473.18,883.531 1473.68,883.531 1474.28,883.531 C1477.78,883.531 1481.48,882.531 1484.98,880.631 C1491.58,877.031 1495.78,871.231 1495.78,866.131 C1495.78,864.731 1495.48,863.331 1494.78,862.131"/>
<path class="Note" d="M1715.38,874.632 C1713.88,871.932 1710.98,870.232 1707.08,869.832 C1706.48,869.732 1705.98,869.732 1705.38,869.732 C1701.88,869.732 1698.08,870.732 1694.58,872.632 C1687.98,876.232 1683.88,882.132 1683.88,887.232 C1683.88,888.632 1684.08,889.932 1684.78,891.132 C1686.28,893.832 1689.28,895.532 1693.18,895.932 C1693.78,896.032 1694.28,896.032 1694.88,896.032 C1698.38,896.032 1702.08,895.032 1705.58,893.132 C1712.18,889.532 1716.38,883.732 1716.38,878.632 C1716.38,877.232 1716.08,875.832 1715.38,874.632"/>
<path class="Note" d="M1852.58,887.133 C1851.08,884.433 1848.18,882.733 1844.28,882.333 C1843.68,882.233 1843.18,882.233 1842.58,882.233 C1839.08,882.233 1835.28,883.233 1831.78,885.133 C1825.18,888.733 1821.08,894.633 1821.08,899.733 C1821.08,901.133 1821.28,902.433 1821.98,903.633 C1823.48,906.333 1826.48,908.033 1830.38,908.433 C1830.98,908.533 1831.48,908.533 1832.08,908.533 C1835.58,908.533 1839.28,907.533 1842.78,905.633 C1849.38,902.033 1853.58,896.233 1853.58,891.133 C1853.58,889.733 1853.28,888.333 1852.58,887.133"/>
<path class="Note" d="M1989.78,899.634 C1988.28,896.934 1985.38,895.234 1981.48,894.834 C1980.88,894.734 1980.38,894.734 1979.78,894.734 C1976.28,894.734 1972.48,895.734 1968.98,897.634 C1962.38,901.234 1958.28,907.134 1958.28,912.234 C1958.28,913.634 1958.48,914.934 1959.18,916.134 C1960.68,918.834 1963.68,920.534 1967.58,920.934 C1968.18,921.034 1968.68,921.034 1969.28,921.034 C1972.78,921.034 1976.48,920.034 1979.98,918.134 C1986.58,914.534 1990.78,908.734 1990.78,903.634 C1990.78,902.234 1990.48,900.834 1989.78,899.634"/>
<path class="Note" d="M2126.98,912.135 C2125.48,909.435 2122.58,907.735 2118.68,907.335 C2118.08,907.235 2117.58,907.235 2116.98,907.235 C2113.48,907.235 2109.68,908.235 2106.18,910.135 C2099.58,913.735 2095.48,919.635 2095.48,924.735 C2095.48,926.135 2095.68,927.435 2096.38,928.635 C2097.88,931.335 2100.88,933.035 2104.78,933.435 C2105.38,933.535 2105.88,933.535 2106.48,933.535 C2109.98,933.535 2113.68,932.535 2117.18,930.635 C2123.78,927.035 2127.98,921.235 2127.98,916.135 C2127.98,914.735 2127.68,913.335 2126.98,912.135"/>
<path class="Note" d="M2301.18,924.635 C2299.68,921.935 2296.78,920.235 2292.88,919.835 C2292.28,919.735 2291.78,919.735 2291.18,919.735 C2287.68,919.735 2283.88,920.735 2280.38,922.635 C2273.78,926.235 2269.68,932.135 2269.68,937.235 C2269.68,938.635 2269.88,939.935 2270.58,941.135 C2272.08,943.835 2275.08,945.535 2278.98,945.935 C2279.58,946.035 2280.08,946.035 2280.68,946.035 C2284.18,946.035 2287.88,945.035 2291.38,943.135 C2297.98,939.535 2302.18,933.735 2302.18,928.635 C2302.18,927.235 2301.88,925.835 2301.18,924.635"/>
<path class="Note" d="M2429.78,937.136 C2428.28,934.436 2425.38,932.736 2421.48,932.336 C2420.88,932.236 2420.38,932.236 2419.78,932.236 C2416.28,932.236 2412.48,933.236 2408.98,935.136 C2402.38,938.736 2398.28,944.636 2398.28,949.736 C2398.28,951.136 2398.48,952.436 2399.18,953.636 C2400.68,956.336 2403.68,958.036 2407.58,958.436 C2408.18,958.536 2408.68,958.536 2409.28,958.536 C2412.78,958.536 2416.48,957.536 2419.98,955.636 C2426.58,952.036 2430.78,946.236 2430.78,941.136 C2430.78,939.736 2430.48,938.336 2429.78,937.136"/>
<path class="Note" d="M2558.37,949.637 C2556.87,946.937 2553.97,945.237 2550.07,944.837 C2549.47,944.737 2548.97,944.737 2548.37,944.737 C2544.87,944.737 2541.07,945.737 2537.57,947.637 C2530.97,951.237 2526.87,957.037 2526.87,962.137 C2526.87,963.537 2527.27,964.937 2527.97,966.137 C2529.47,968.937 2532.27,970.537 2536.17,970.937 C2536.77,971.037 2537.27,971.037 2537.87,971.037 C2541.37,971.037 2545.17,970.037 2548.67,968.137 C2555.27,964.537 2559.37,958.637 2559.37,953.537 C2559.37,952.137 2559.07,950.837 2558.37,949.637 M2554.17,955.937 C2552.47,957.737 2549.27,960.037 2545.67,962.137 C2542.07,964.237 2538.37,965.937 2536.07,966.637 C2535.57,966.737 2534.97,966.837 2534.47,966.837 C2532.97,966.837 2531.67,966.137 2530.97,965.037 C2530.67,964.437 2530.47,963.837 2530.47,963.237 C2530.47,962.137 2530.97,961.037 2532.07,959.837 C2533.77,958.037 2536.97,955.637 2540.57,953.537 C2544.17,951.437 2547.87,949.737 2550.27,949.137 L2550.47,949.137 C2551.07,948.937 2551.57,948.837 2552.07,948.837 C2553.47,948.837 2554.57,949.437 2555.27,950.737 C2555.57,951.337 2555.77,951.837 2555.77,952.437 C2555.77,953.737 2555.07,955.037 2554.17,955.937"/>
<path class="Note" d="M486.502,749.624 C485.002,746.924 482.102,745.224 478.202,744.824 C477.602,744.724 477.102,744.724 476.502,744.724 C473.002,744.724 469.202,745.724 465.702,747.624 C459.102,751.224 455.002,757.124 455.002,762.224 C455.002,763.624 455.202,764.924 455.902,766.124 C457.402,768.824 460.402,770.524 464.302,770.924 C464.902,771.024 465.402,771.024 466.002,771.024 C469.502,771.024 473.202,770.024 476.702,768.124 C483.302,764.524 487.502,758.724 487.502,753.624 C487.502,752.224 487.202,750.824 486.502,749.624"/>
<path class="Note" d="M613.112,737.124 C611.612,734.424 608.712,732.724 604.812,732.324 C604.212,732.224 603.712,732.224 603.112,732.224 C599.612,732.224 595.812,733.224 592.312,735.124 C585.712,738.724 581.612,744.624 581.612,749.724 C581.612,751.124 581.812,752.424 582.512,753.624 C584.012,756.324 587.012,758.024 590.912,758.424 C591.512,758.524 592.012,758.524 592.612,758.524 C596.112,758.524 599.812,757.524 603.312,755.624 C609.912,752.024 614.112,746.224 614.112,741.124 C614.112,739.724 613.812,738.324 613.112,737.124"/>
<path class="Note" d="M739.722,724.623 C738.222,721.923 735.322,720.223 731.422,719.823 C730.822,719.723 730.322,719.723 729.722,719.723 C726.222,719.723 722.422,720.723 718.922,722.623 C712.322,726.223 708.222,732.123 708.222,737.223 C708.222,738.623 708.422,739.923 709.122,741.123 C710.622,743.823 713.622,745.523 717.522,745.923 C718.122,746.023 718.622,746.023 719.222,746.023 C722.722,746.023 726.422,745.023 729.922,743.123 C736.522,739.523 740.722,733.723 740.722,728.623 C740.722,727.223 740.422,725.823 739.722,724.623"/>
<path class="Note" d="M866.333,712.122 C864.833,709.422 861.933,707.722 858.033,707.322 C857.433,707.222 856.933,707.222 856.333,707.222 C852.833,707.222 849.033,708.222 845.533,710.122 C838.933,713.722 834.833,719.622 834.833,724.722 C834.833,726.122 835.033,727.422 835.733,728.622 C837.233,731.322 840.233,733.022 844.133,733.422 C844.733,733.522 845.233,733.522 845.833,733.522 C849.333,733.522 853.033,732.522 856.533,730.622 C863.133,727.022 867.333,721.222 867.333,716.122 C867.333,714.722 867.033,713.322 866.333,712.122"/>
<path class="Note" d="M1029.94,699.621 C1028.44,696.921 1025.54,695.221 1021.64,694.821 C1021.04,694.721 1020.54,694.721 1019.94,694.721 C1016.44,694.721 1012.64,695.721 1009.14,697.621 C1002.54,701.221 998.445,707.121 998.445,712.221 C998.445,713.621 998.645,714.921 999.345,716.121 C1000.84,718.821 1003.84,720.521 1007.74,720.921 C1008.34,721.021 1008.84,721.021 1009.44,721.021 C1012.94,721.021 1016.64,720.021 1020.14,718.121 C1026.74,714.521 1030.94,708.721 1030.94,703.621 C1030.94,702.221 1030.64,700.821 1029.94,699.621"/>
<path class="Note" d="M1184.89,687.12 C1183.39,684.42 1180.49,682.72 1176.59,682.32 C1175.99,682.22 1175.49,682.22 1174.89,682.22 C1171.39,682.22 1167.59,683.22 1164.09,685.12 C1157.49,688.72 1153.39,694.62 1153.39,699.72 C1153.39,701.12 1153.59,702.42 1154.29,703.62 C1155.79,706.32 1158.79,708.02 1162.69,708.42 C1163.29,708.52 1163.79,708.52 1164.39,708.52 C1167.89,708.52 1171.59,707.52 1175.09,705.62 C1181.69,702.02 1185.89,696.22 1185.89,691.12 C1185.89,689.72 1185.59,688.32 1184.89,687.12"/>
<path class="Note" d="M1339.84,674.62 C1338.34,671.92 1335.44,670.22 1331.54,669.82 C1330.94,669.72 1330.44,669.72 1329.84,669.72 C1326.34,669.72 1322.54,670.72 1319.04,672.62 C1312.44,676.22 1308.34,682.12 1308.34,687.22 C1308.34,688.62 1308.54,689.92 1309.24,691.12 C1310.74,693.82 1313.74,695.52 1317.64,695.92 C1318.24,696.02 1318.74,696.02 1319.34,696.02 C1322.84,696.02 1326.54,695.02 1330.04,693.12 C1336.64,689.52 1340.84,683.72 1340.84,678.62 C1340.84,677.22 1340.54,675.82 1339.84,674.62"/>
<path class="Note" d="M1494.78,662.119 C1493.28,659.419 1490.38,657.719 1486.48,657.319 C1485.88,657.219 1485.38,657.219 1484.78,657.219 C1481.28,657.219 1477.48,658.219 1473.98,660.119 C1467.38,663.719 1463.28,669.619 1463.28,674.719 C1463.28,676.119 1463.48,677.419 1464.18,678.619 C1465.68,681.319 1468.68,683.019 1472.58,683.419 C1473.18,683.519 1473.68,683.519 1474.28,683.519 C1477.78,683.519 1481.48,682.519 1484.98,680.619 C1491.58,677.019 1495.78,671.219 1495.78,666.119 C1495.78,664.719 1495.48,663.319 1494.78,662.119"/>
<path class="Note" d="M1715.38,674.62 C1713.88,671.92 1710.98,670.22 1707.08,669.82 C1706.48,669.72 1705.98,669.72 1705.38,669.72 C1701.88,669.72 1698.08,670.72 1694.58,672.62 C1687.98,676.22 1683.88,682.12 1683.88,687.22 C1683.88,688.62 1684.08,689.92 1684.78,691.12 C1686.28,693.82 1689.28,695.52 1693.18,695.92 C1693.78,696.02 1694.28,696.02 1694.88,696.02 C1698.38,696.02 1702.08,695.02 1705.58,693.12 C1712.18,689.52 1716.38,683.72 1716.38,678.62 C1716.38,677.22 1716.08,675.82 1715.38,674.62"/>
<path class="Note" d="M1852.58,687.12 C1851.08,684.42 1848.18,682.72 1844.28,682.32 C1843.68,682.22 1843.18,682.22 1842.58,682.22 C1839.08,682.22 1835.28,683.22 1831.78,685.12 C1825.18,688.72 1821.08,694.62 1821.08,699.72 C1821.08,701.12 1821.28,702.42 1821.98,703.62 C1823.48,706.32 1826.48,708.02 1830.38,708.42 C1830.98,708.52 1831.48,708.52 1832.08,708.52 C1835.58,708.52 1839.28,707.52 1842.78,705.62 C1849.38,702.02 1853.58,696.22 1853.58,691.12 C1853.58,689.72 1853.28,688.32 1852.58,687.12"/>
<path class="Note" d="M1989.78,699.621 C1988.28,696.921 1985.38,695.221 1981.48,694.821 C1980.88,694.721 1980.38,694.721 1979.78,694.721 C1976.28,694.721 1972.48,695.721 1968.98,697.621 C1962.38,701.221 1958.28,707.121 1958.28,712.221 C1958.28,713.621 1958.48,714.921 1959.18,716.121 C1960.68,718.821 1963.68,720.521 1967.58,720.921 C1968.18,721.021 1968.68,721.021 1969.28,721.021 C1972.78,721.021 1976.48,720.021 1979.98,718.121 C1986.58,714.521 1990.78,708.721 1990.78,703.621 C1990.78,702.221 1990.48,700.821 1989.78,699.621"/>
<path class="Note" d="M2126.98,712.122 C2125.48,709.422 2122.58,707.722 2118.68,707.322 C2118.08,707.222 2117.58,707.222 2116.98,707.222 C2113.48,707.222 2109.68,708.222 2106.18,710.122 C2099.58,713.722 2095.48,719.622 2095.48,724.722 C2095.48,726.122 2095.68,727.422 2096.38,728.622 C2097.88,731.322 2100.88,733.022 2104.78,733.422 C2105.38,733.522 2105.88,733.522 2106.48,733.522 C2109.98,733.522 2113.68,732.522 2117.18,730.622 C2123.78,727.022 2127.98,721.222 2127.98,716.122 C2127.98,714.722 2127.68,713.322 2126.98,712.122"/>
<path class="Note" d="M2301.18,724.623 C2299.68,721.923 2296.78,720.223 2292.88,719.823 C2292.28,719.723 2291.78,719.723 2291.18,719.723 C2287.68,719.723 2283.88,720.723 2280.38,722.623 C2273.78,726.223 2269.68,732.123 2269.68,737.223 C2269.68,738.623 2269.88,739.923 2270.58,741.123 C2272.08,743.823 2275.08,745.523 2278.98,745.923 C2279.58,746.023 2280.08,746.023 2280.68,746.023 C2284.18,746.023 2287.88,745.023 2291.38,743.123 C2297.98,739.523 2302.18,733.723 2302.18,728.623 C2302.18,727.223 2301.88,725.823 2301.18,724.623"/>
<path class="Note" d="M2429.78,737.124 C2428.28,734.424 2425.38,732.724 2421.48,732.324 C2420.88,732.224 2420.38,732.224 2419.78,732.224 C2416.28,732.224 2412.48,733.224 2408.98,735.124 C2402.38,738.724 2398.28,744.624 2398.28,749.724 C2398.28,751.124 2398.48,752.424 2399.18,753.624 C2400.68,756.324 2403.68,758.024 2407.58,758.424 C2408.18,758.524 2408.68,758.524 2409.28,758.524 C2412.78,758.524 2416.48,757.524 2419.98,755.624 C2426.58,752.024 2430.78,746.224 2430.78,741.124 C2430.78,739.724 2430.48,738.324 2429.78,737.124"/>
<path class="Note" d="M2558.37,749.624 C2556.87,746.924 2553.97,745.224 2550.07,744.824 C2549.47,744.724 2548.97,744.724 2548.37,744.724 C2544.87,744.724 2541.07,745.724 2537.57,747.624 C2530.97,751.224 2526.87,757.024 2526.87,762.124 C2526.87,763.524 2527.27,764.924 2527.97,766.124 C2529.47,768.924 2532.27,770.524 2536.17,770.924 C2536.77,771.024 2537.27,771.024 2537.87,771.024 C2541.37,771.024 2545.17,770.024 2548.67,768.124 C2555.27,764.524 2559.37,758.624 2559.37,753.524 C2559.37,752.124 2559.07,750.824 2558.37,749.624 M2554.17,755.924 C2552.47,757.724 2549.27,760.024 2545.67,762.124 C2542.07,764.224 2538.37,765.924 2536.07,766.624 C2535.57,766.724 2534.97,766.824 2534.47,766.824 C2532.97,766.824 2531.67,766.124 2530.97,765.024 C2530.67,764.424 2530.47,763.824 2530.47,763.224 C2530.47,762.124 2530.97,761.024 2532.07,759.824 C2533.77,758.024 2536.97,755.624 2540.57,753.524 C2544.17,751.424 2547.87,749.724 2550.27,749.124 L2550.47,749.124 C2551.07,748.924 2551.57,748.824 2552.07,748.824 C2553.47,748.824 2554.57,749.424 2555.27,750.724 C2555.57,751.324 2555.77,751.824 2555.77,752.424 C2555.77,753.724 2555.07,755.024 2554.17,755.924"/>
<path class="Clef" d="M297,907.735 C289.4,907.735 283.3,912.135 283.2,912.135 C277.4,916.435 275.1,921.535 274.2,925.035 C273.7,926.835 273.5,928.635 273.5,930.335 C273.5,932.735 273.9,934.935 274.8,936.835 C276,939.535 278.3,941.435 281.3,942.435 C282.5,942.835 283.8,943.035 285.1,943.035 C287.3,943.035 289.6,942.435 291.5,941.335 C294.6,939.635 296.5,936.035 296.5,932.135 C296.5,928.635 294.7,925.435 291.7,923.535 C289.6,922.135 287.6,921.735 285.9,921.735 C284.7,921.735 283.6,921.935 282.7,922.235 C281.7,922.635 280,923.635 279.2,924.335 C279.5,922.435 280.7,919.535 281.8,917.935 C282.9,916.335 285.1,914.335 286.8,913.435 C289.3,912.035 292.5,911.435 296,911.435 C306.2,911.435 311.2,919.635 311.2,936.435 C311.2,945.735 307.7,954.635 304.7,960.535 C301.4,967.135 297,973.435 293.1,976.935 C282.7,986.435 272.9,990.935 272.8,990.935 C272.8,990.935 271.3,991.835 271.7,993.335 C272,994.335 272.9,994.535 273.5,994.535 C273.6,994.535 273.9,994.435 274,994.435 C274.1,994.435 285.5,989.735 294.6,982.635 C299.7,978.935 304.3,974.935 308.3,970.635 C311.9,966.735 315,962.535 317.5,958.335 C321.9,950.835 324.4,943.035 324.4,936.335 C324.4,928.035 322.2,921.135 318.1,916.235 C313.4,910.635 306.3,907.735 297,907.735 M328.4,920.435 C328.4,923.235 330.6,925.435 333.2,925.435 C335.8,925.435 338,923.235 338,920.435 C338,917.635 335.8,915.335 333.2,915.335 C330.6,915.335 328.4,917.635 328.4,920.435 M328.4,945.135 C328.4,947.935 330.6,950.235 333.2,950.235 C335.8,950.235 338,947.935 338,945.135 C338,942.335 335.8,940.035 333.2,940.035 C330.6,940.035 328.4,942.335 328.4,945.135"/>
<path class="Clef" d="M335,714.422 C333.8,709.022 331.1,705.122 330.3,704.122 C327.1,699.822 323.1,697.022 318.4,695.622 C316.1,694.922 314,694.722 312,694.722 C311.3,694.722 310.6,694.722 309.9,694.822 C308.9,688.822 307.8,682.922 306.9,677.522 C312.5,671.322 316.2,665.422 318.6,661.022 C322.2,654.322 323.6,649.622 323.7,649.422 C324.9,646.422 325.6,642.622 325.6,638.122 C325.6,635.422 325.3,632.522 324.9,629.522 C323.8,622.422 321.6,615.722 319.1,612.022 C317.8,610.122 316.6,609.022 315.4,609.022 C314.2,609.022 311.7,610.222 308.8,613.022 C306.5,615.222 303.2,619.122 300.6,625.122 C298.3,630.522 297.6,637.422 297.6,643.322 C297.6,645.122 297.7,646.822 297.8,648.422 C298,652.022 298.7,657.822 299.3,661.422 C299.3,661.522 299.6,663.022 300,665.622 L299.3,666.322 C298.3,667.322 297.1,668.422 295.7,669.822 C294.8,670.722 293.9,671.522 292.9,672.522 C284.4,680.722 271.6,693.122 271.6,712.222 C271.6,716.922 272.5,721.322 274.3,725.322 C275.9,728.922 278.2,732.222 281.1,735.122 C288.6,742.522 298.8,745.722 305.9,745.722 L306.5,745.722 C309.4,745.622 312.1,745.322 314.5,744.922 C316.3,754.522 317.5,761.622 317.5,766.922 C317.5,773.422 315.9,777.322 312,780.122 C309.6,781.822 306.7,782.922 303.6,783.022 L302.8,783.022 C301.3,783.022 298.8,782.622 297.3,782.222 C297.3,782.222 297,782.122 297,781.922 C297,781.722 297.4,781.722 297.4,781.722 C299.3,781.322 302.9,780.022 305.3,776.722 C306.4,775.222 307.1,772.922 307.1,770.422 C307.1,768.822 306.8,767.122 306.1,765.622 C305,763.222 302.4,760.222 296.8,759.822 L295.7,759.822 C293.6,759.822 291.8,760.322 290.1,761.322 C288.3,762.422 286.7,764.122 285.7,766.122 C284.6,768.122 284.1,770.322 284.1,772.522 C284.1,775.422 285,778.122 286.8,780.322 C289.8,783.922 294.5,786.222 299.9,786.822 C300.6,786.922 301.7,787.022 302.4,787.022 C306.8,787.022 311.2,785.822 314.8,783.622 C318.5,781.022 320.6,777.022 321.3,771.422 C321.5,770.122 321.5,768.722 321.5,767.222 C321.5,763.322 321,758.622 320,752.822 C319.6,750.722 319.2,747.722 318.5,743.922 C324.3,742.022 328.4,738.322 332.2,732.522 C334.5,728.522 335.6,724.422 335.6,720.122 C335.6,718.222 335.4,716.322 335,714.422 M304.8,636.522 C306.6,630.822 309.3,627.422 311.3,625.722 C313.1,624.222 314.7,623.522 315.6,623.522 C315.7,623.522 315.9,623.622 316,623.622 C316.3,623.722 316.7,624.222 317.1,624.922 C318,626.722 318.9,630.022 318.9,633.722 C318.9,635.622 318.7,637.622 318.1,639.422 C315.9,646.222 311.3,653.522 304.3,661.222 C304.1,660.122 303.9,659.122 303.8,658.122 C303.3,654.922 303,651.722 303,648.822 C303,644.322 303.6,640.222 304.8,636.522 M300.8,740.622 C296.2,739.422 291.7,736.922 287.9,733.422 C286.6,732.222 284.8,730.022 283.3,726.622 C282,723.622 281.3,720.522 281.3,717.122 L281.3,716.422 C281.4,711.722 282.7,706.922 285.2,702.122 C288.1,696.522 292.6,691.022 298.7,685.722 C300.2,684.422 301.6,683.122 302.9,681.822 C303.7,686.122 304.4,690.822 305.3,695.722 C301.4,697.022 296.7,700.022 293.6,705.722 C291.2,710.222 290.5,714.122 290.5,717.322 C290.5,718.822 290.7,720.222 290.9,721.322 C291.8,725.822 294.4,729.522 297.9,731.622 C298.7,732.122 302,733.822 304,733.822 C304.3,733.822 304.6,733.822 304.8,733.722 C305.1,733.622 305.4,733.422 305.5,733.122 C305.6,732.922 305.6,732.722 305.6,732.522 C305.6,731.722 304.8,731.122 303.5,730.322 C302.9,729.922 302.2,729.522 301.5,729.022 C298.9,727.022 297.4,723.922 297.4,720.522 C297.4,719.522 297.6,718.622 297.8,717.622 C298.3,715.622 300,712.822 301.5,711.422 C303.2,709.922 305.2,708.722 307.6,708.122 C309.6,719.322 311.7,730.422 313.3,738.822 C313.4,739.522 313.6,740.222 313.7,740.922 C311.7,741.322 309.7,741.522 307.8,741.522 C305.4,741.522 303.1,741.222 300.8,740.622 M326.5,730.422 C325.3,733.622 322.8,737.622 317.7,739.722 C317.6,739.322 317.6,738.822 317.5,738.422 C316,729.622 314.1,718.722 312.1,707.422 L313.1,707.422 C322.8,707.422 326.7,714.622 327.6,719.222 C327.8,720.122 327.9,721.322 327.9,722.622 C327.9,724.922 327.5,727.722 326.5,730.422"/>
<path class="TimeSig" d="M365.2,946.235 L382,946.235 L382,953.535 L373.9,953.535 C373.1,953.535 372.5,954.135 372.5,954.935 L372.5,956.835 C372.5,957.635 373.1,958.135 373.9,958.135 L403.6,958.135 C404.4,958.135 405,957.635 405,956.835 L405,954.935 C405,954.135 404.4,953.535 403.6,953.535 L394.8,953.535 L394.8,946.235 L403.6,946.235 C404.4,946.235 405,945.635 405,944.835 L405,943.035 C405,942.235 404.4,941.635 403.6,941.635 L394.8,941.635 L394.8,925.935 C394.8,925.435 394.4,924.935 394,924.735 L392.9,924.135 C392.7,924.035 392.4,924.035 392.2,924.035 C391.9,924.035 391.5,924.135 391.3,924.335 L382.4,932.535 C382.2,932.735 382,933.235 382,933.535 L382,941.635 L370.7,941.635 C370.7,941.635 381.6,929.835 393.2,914.335 C394,913.235 393.6,912.235 393.4,912.035 L391.3,909.835 C391.1,909.635 390.6,909.435 390.3,909.435 L375.7,909.435 C375,909.435 374.5,910.035 374.4,910.635 C374.4,910.635 373.9,917.835 371.3,925.835 C368.7,933.835 365.9,938.635 363.3,942.235 C363.3,942.235 362.8,943.235 363.1,943.935 C363.4,944.635 364.1,945.735 364.1,945.735 C364.1,945.735 364.4,946.235 365.2,946.235"/>
<path class="TimeSig" d="M365.2,994.839 L382,994.839 L382,1002.14 L373.9,1002.14 C373.1,1002.14 372.5,1002.74 372.5,1003.54 L372.5,1005.44 C372.5,1006.24 373.1,1006.74 373.9,1006.74 L403.6,1006.74 C404.4,1006.74 405,1006.24 405,1005.44 L405,1003.54 C405,1002.74 404.4,1002.14 403.6,1002.14 L394.8,1002.14 L394.8,994.839 L403.6,994.839 C404.4,994.839 405,994.239 405,993.439 L405,991.639 C405,990.839 404.4,990.239 403.6,990.239 L394.8,990.239 L394.8,974.539 C394.8,974.039 394.4,973.539 394,973.339 L392.9,972.739 C392.7,972.639 392.4,972.639 392.2,972.639 C391.9,972.639 391.5,972.739 391.3,972.939 L382.4,981.139 C382.2,981.339 382,981.839 382,982.139 L382,990.239 L370.7,990.239 C370.7,990.239 381.6,978.439 393.2,962.939 C394,961.839 393.6,960.839 393.4,960.639 L391.3,958.439 C391.1,958.239 390.6,958.039 390.3,958.039 L375.7,958.039 C375,958.039 374.5,958.639 374.4,959.239 C374.4,959.239 373.9,966.439 371.3,974.439 C368.7,982.439 365.9,987.239 363.3,990.839 C363.3,990.839 362.8,991.839 363.1,992.539 C363.4,993.239 364.1,994.339 364.1,994.339 C364.1,994.339 364.4,994.839 365.2,994.839"/>
<path class="TimeSig" d="M365.2,683.718 L382,683.718 L382,691.018 L373.9,691.018 C373.1,691.018 372.5,691.618 372.5,692.418 L372.5,694.318 C372.5,695.118 373.1,695.618 373.9,695.618 L403.6,695.618 C404.4,695.618 405,695.118 405,694.318 L405,692.418 C405,691.618 404.4,691.018 403.6,691.018 L394.8,691.018 L394.8,683.718 L403.6,683.718 C404.4,683.718 405,683.118 405,682.318 L405,680.518 C405,679.718 404.4,679.118 403.6,679.118 L394.8,679.118 L394.8,663.418 C394.8,662.918 394.4,662.418 394,662.218 L392.9,661.618 C392.7,661.518 392.4,661.518 392.2,661.518 C391.9,661.518 391.5,661.618 391.3,661.818 L382.4,670.018 C382.2,670.218 382,670.718 382,671.018 L382,679.118 L370.7,679.118 C370.7,679.118 381.6,667.318 393.2,651.818 C394,650.718 393.6,649.718 393.4,649.518 L391.3,647.318 C391.1,647.118 390.6,646.918 390.3,646.918 L375.7,646.918 C375,646.918 374.5,647.518 374.4,648.118 C374.4,648.118 373.9,655.318 371.3,663.318 C368.7,671.318 365.9,676.118 363.3,679.718 C363.3,679.718 362.8,680.718 363.1,681.418 C363.4,682.118 364.1,683.218 364.1,683.218 C364.1,683.218 364.4,683.718 365.2,683.718"/>
<path class="TimeSig" d="M365.2,732.323 L382,732.323 L382,739.623 L373.9,739.623 C373.1,739.623 372.5,740.223 372.5,741.023 L372.5,742.923 C372.5,743.723 373.1,744.223 373.9,744.223 L403.6,744.223 C404.4,744.223 405,743.723 405,742.923 L405,741.023 C405,740.223 404.4,739.623 403.6,739.623 L394.8,739.623 L394.8,732.323 L403.6,732.323 C404.4,732.323 405,731.723 405,730.923 L405,729.123 C405,728.323 404.4,727.723 403.6,727.723 L394.8,727.723 L394.8,712.023 C394.8,711.523 394.4,711.023 394,710.823 L392.9,710.223 C392.7,710.123 392.4,710.123 392.2,710.123 C391.9,710.123 391.5,710.223 391.3,710.423 L382.4,718.623 C382.2,718.823 382,719.323 382,719.623 L382,727.723 L370.7,727.723 C370.7,727.723 381.6,715.923 393.2,700.423 C394,699.323 393.6,698.323 393.4,698.123 L391.3,695.923 C391.1,695.723 390.6,695.523 390.3,695.523 L375.7,695.523 C375,695.523 374.5,696.123 374.4,696.723 C374.4,696.723 373.9,703.923 371.3,711.923 C368.7,719.923 365.9,724.723 363.3,728.323 C363.3,728.323 362.8,729.323 363.1,730.023 C363.4,730.723 364.1,731.823 364.1,731.823 C364.1,731.823 364.4,732.323 365.2,732.323"/>
<path class="Page" d="M227.904,4035.04 L212.604,4056.33 L212.604,4058.85 L225.249,4058.85 L225.249,4061.19 C225.249,4063.48 225.249,4063.57 224.979,4063.98 C224.619,4064.47 223.764,4064.61 221.199,4064.61 L220.704,4064.61 L220.704,4066.72 L233.844,4066.72 L233.844,4064.61 L233.664,4064.61 C231.099,4064.61 230.244,4064.47 229.884,4063.98 C229.614,4063.57 229.614,4063.53 229.614,4061.19 L229.614,4058.85 L235.059,4058.85 L235.059,4056.33 L229.614,4056.33 L229.614,4044.04 C229.614,4038.42 229.614,4038.28 229.839,4035.04 L227.904,4035.04 M225.249,4056.33 L215.349,4056.33 L225.249,4042.69 L225.249,4056.33 M250.849,4035.04 C249.319,4036.89 245.179,4038.28 241.039,4038.37 L241.039,4040.31 L244.999,4040.31 C247.609,4040.35 247.879,4040.62 247.789,4043.14 L247.789,4061.19 C247.789,4063.48 247.789,4063.57 247.519,4063.98 C247.159,4064.43 246.304,4064.61 243.784,4064.61 L240.859,4064.61 L240.859,4066.72 L258.679,4066.72 L258.679,4064.61 L256.204,4064.61 C253.684,4064.61 252.829,4064.43 252.469,4063.98 C252.154,4063.57 252.154,4063.53 252.154,4061.19 L252.154,4042.6 C252.154,4040.08 252.244,4037.97 252.469,4035.04 L250.849,4035.04 "/>
<path class="Bracket" transform="matrix(3.62523,0,0,3.62523,214.469,1007.84)" d="M0.92002,-50 C2.69004,-51.88 6.2,-55.8 6.2,-63 C6.2,-72.1 2.25996,-81.32 2.25996,-86.97 C2.25996,-93.06 5.84004,-98.84 5.95,-99 C6.05996,-99.16 6.05,-99.39 5.94004,-99.46 C5.82998,-99.53 5.62002,-99.47 5.49004,-99.32 C5.35996,-99.17 0,-93.75 0,-85.6 C0,-76.75 3.5,-70.58 3.5,-59.07 C3.5,-56.89 2.55996,-53.36 0.1,-50.33 C-0.0799805,-50.17 -0.1,-49.89 0.0599609,-49.7 L0.0700195,-49.69 L0.1,-49.66 C2.55996,-46.63 3.5,-43.1 3.5,-40.92 C3.5,-29.4 0,-23.24 0,-14.39 C0,-6.25 5.35996,-0.8 5.49004,-0.659961 C5.62002,-0.52002 5.8,-0.42998 5.94004,-0.52002 C6.07998,-0.609961 6.07998,-0.77998 5.95,-0.97998 C5.82002,-1.17998 2.25996,-6.92002 2.25996,-13.01 C2.25996,-18.66 6.2,-27.9 6.2,-37 C6.2,-44.3 2.69004,-48.12 0.92002,-50"/>
</svg>