<?xml version="1.0" encoding="UTF-8" standalone="no"?>
<svg width="1000px" height="300px" viewBox="0 400 3040 900" xmlns="http://www.w3.org/2000/svg" xmlns:xlink="http://www.w3.org/1999/xlink" version="1.2" baseProfile="tiny">
 xmlns="http://www.w3.org/2000/svg" xmlns:xlink="http://www.w3.org/1999/xlink" version="1.2" baseProfile="tiny">
<title>exercises_scores (16)</title>
<desc>Generated by MuseScore 3.6.0</desc>
<polyline class="StaffLines" fill="none" stroke="#000000" stroke-width="2.75" stroke-linejoin="bevel" points="247.099,645.255 2764.63,645.255"/>
<polyline class="StaffLines" fill="none" stroke="#000000" stroke-width="2.75" stroke-linejoin="bevel" points="247.099,670.256 2764.63,670.256"/>
<polyline class="StaffLines" fill="none" stroke="#000000" stroke-width="2.75" stroke-linejoin="bevel" points="247.099,695.258 2764.63,695.258"/>
<polyline class="StaffLines" fill="none" stroke="#000000" stroke-width="2.75" stroke-linejoin="bevel" points="247.099,720.259 2764.63,720.259"/>
<polyline class="StaffLines" fill="none" stroke="#000000" stroke-width="2.75" stroke-linejoin="bevel" points="247.099,745.261 2764.63,745.261"/>
<polyline class="StaffLines" fill="none" stroke="#000000" stroke-width="2.75" stroke-linejoin="bevel" points="247.099,907.771 2764.63,907.771"/>
<polyline class="StaffLines" fill="none" stroke="#000000" stroke-width="2.75" stroke-linejoin="bevel" points="247.099,932.773 2764.63,932.773"/>
<polyline class="StaffLines" fill="none" stroke="#000000" stroke-width="2.75" stroke-linejoin="bevel" points="247.099,957.774 2764.63,957.774"/>
<polyline class="StaffLines" fill="none" stroke="#000000" stroke-width="2.75" stroke-linejoin="bevel" points="247.099,982.776 2764.63,982.776"/>
<polyline class="StaffLines" fill="none" stroke="#000000" stroke-width="2.75" stroke-linejoin="bevel" points="247.099,1007.78 2764.63,1007.78"/>
<path class="Text" d="M235.747,212.595 L233.227,212.595 L219.427,247.575 C217.807,252.255 216.247,253.695 212.827,253.935 L212.587,253.935 L212.587,256.755 L228.487,256.755 L228.487,253.935 L227.287,253.935 C224.047,253.935 222.427,252.795 222.427,250.515 C222.427,249.735 222.607,249.015 222.967,247.995 L224.947,242.715 L240.847,242.715 L244.087,250.755 C244.447,251.715 244.567,252.075 244.567,252.375 C244.567,253.335 243.067,253.935 240.847,253.935 L238.327,253.935 L238.327,256.755 L256.927,256.755 L256.927,253.935 L256.087,253.935 C252.967,253.875 252.427,253.515 251.047,250.095 L235.747,212.595 M232.807,222.435 L239.587,239.475 L226.147,239.475 L232.807,222.435 M285.112,228.795 L274.432,229.455 L274.432,232.035 L276.892,232.035 C279.172,232.095 279.472,232.455 279.472,235.035 L279.472,249.375 L279.472,251.715 L279.472,252.195 C279.412,253.095 279.352,253.455 279.112,253.755 C278.692,254.295 277.552,254.535 274.972,254.595 L274.732,254.595 L274.732,256.755 L289.852,256.755 L289.852,254.595 L289.612,254.595 C285.652,254.475 285.112,254.175 285.112,251.955 L285.112,249.375 L285.112,240.855 C285.112,235.515 288.052,231.555 291.952,231.555 C295.372,231.555 297.112,234.015 297.112,238.875 L297.112,249.375 L297.112,252.255 C297.052,253.035 296.992,253.455 296.692,253.755 C296.332,254.295 295.132,254.535 292.552,254.595 L292.312,254.595 L292.312,256.755 L307.492,256.755 L307.492,254.595 L307.252,254.595 C303.292,254.475 302.752,254.175 302.752,252.015 L302.752,249.375 L302.752,241.395 C302.752,235.395 305.452,231.555 309.652,231.555 C313.072,231.555 314.752,234.135 314.752,239.535 L314.752,249.375 L314.752,252.195 C314.692,253.035 314.632,253.455 314.332,253.755 C313.972,254.295 312.772,254.535 310.192,254.595 L309.952,254.595 L309.952,256.755 L325.132,256.755 L325.132,254.595 L324.892,254.595 C320.932,254.475 320.392,254.175 320.392,251.955 L320.392,249.375 L320.392,238.335 C320.392,234.615 320.032,233.355 318.472,231.315 C316.732,229.095 314.272,227.895 311.392,227.895 C307.492,227.895 304.612,229.755 302.032,233.895 C301.012,230.295 297.772,227.895 293.752,227.895 C290.092,227.895 287.452,229.635 285.112,233.415 L285.112,228.795 M338.74,228.795 L327.46,229.455 L327.46,232.035 L330.52,232.035 C332.8,232.095 333.1,232.455 333.1,235.035 L333.1,249.375 L333.1,252.195 C333.04,253.095 332.98,253.455 332.74,253.755 C332.32,254.295 331.18,254.535 328.6,254.595 L328.18,254.595 L328.18,256.755 L343.72,256.755 L343.72,254.595 L343.3,254.595 C339.28,254.475 338.74,254.175 338.74,252.015 L338.74,249.375 L338.74,228.795 M335.92,213.855 C334,213.855 332.44,215.415 332.44,217.335 C332.44,219.255 334,220.815 335.86,220.815 C337.84,220.815 339.4,219.255 339.4,217.335 C339.4,215.415 337.84,213.855 335.92,213.855 M357.27,228.795 L346.89,229.455 L346.89,232.035 L349.05,232.035 C351.33,232.095 351.63,232.455 351.63,235.035 L351.63,249.375 L351.63,250.815 L351.63,252.195 C351.57,253.095 351.51,253.455 351.27,253.755 C350.85,254.295 349.71,254.535 347.13,254.595 L346.89,254.595 L346.89,256.755 L362.07,256.755 L362.07,254.595 L361.83,254.595 C357.81,254.475 357.27,254.175 357.27,252.015 L357.27,249.375 L357.27,243.135 C357.27,240.195 357.69,237.495 358.35,236.115 C359.61,233.415 362.31,231.555 364.89,231.555 C366.45,231.555 368.25,232.395 369.15,233.655 C370.05,234.975 370.47,236.775 370.47,239.655 L370.47,249.375 L370.47,252.195 C370.41,253.095 370.35,253.455 370.11,253.755 C369.69,254.295 368.49,254.535 365.91,254.595 L365.67,254.595 L365.67,256.755 L380.85,256.755 L380.85,254.595 L380.61,254.595 C376.65,254.475 376.11,254.175 376.11,252.015 L376.11,249.375 L376.11,239.955 C376.11,235.635 375.93,234.555 374.85,232.515 C373.35,229.635 370.35,227.895 366.75,227.895 C362.85,227.895 359.91,229.695 357.27,233.655 L357.27,228.795 M397.047,227.895 C389.667,227.895 383.967,234.435 383.967,242.835 C383.967,251.055 389.727,257.655 396.927,257.655 C404.127,257.655 409.887,251.055 409.887,242.775 C409.887,234.555 404.127,227.895 397.047,227.895 M397.047,230.475 C401.247,230.475 403.587,234.855 403.587,242.775 C403.587,250.755 401.247,255.075 396.927,255.075 C392.607,255.075 390.267,250.755 390.267,242.835 C390.267,234.675 392.547,230.475 397.047,230.475 M423.807,228.795 L413.187,229.455 L413.187,232.035 L415.647,232.035 C417.927,232.095 418.227,232.455 418.227,235.035 L418.227,249.375 L418.227,252.195 C418.167,253.095 418.107,253.455 417.867,253.755 C417.447,254.295 416.247,254.535 413.667,254.595 L413.427,254.595 L413.427,256.755 L429.447,256.755 L429.447,254.595 L428.367,254.595 C424.347,254.475 423.807,254.175 423.807,252.015 L423.807,249.375 L423.807,248.775 C423.867,238.695 427.467,231.015 432.147,230.775 C431.307,231.735 431.067,232.335 431.067,233.475 C431.067,235.395 432.447,236.775 434.367,236.775 C436.587,236.775 438.027,235.155 438.027,232.755 C438.027,229.815 435.987,227.895 432.807,227.895 C429.027,227.895 425.787,230.895 423.807,236.235 L423.807,228.795 "/>
<polyline class="BarLine" fill="none" stroke="#000000" stroke-width="4.50" stroke-linejoin="bevel" points="249.349,906.396 249.349,1009.15"/>
<polyline class="BarLine" fill="none" stroke="#000000" stroke-width="4.50" stroke-linejoin="bevel" points="1043.03,906.396 1043.03,1009.15"/>
<polyline class="BarLine" fill="none" stroke="#000000" stroke-width="4.50" stroke-linejoin="bevel" points="1604.56,906.396 1604.56,1009.15"/>
<polyline class="BarLine" fill="none" stroke="#000000" stroke-width="4.50" stroke-linejoin="bevel" points="2166.09,906.396 2166.09,1009.15"/>
<polyline class="BarLine" fill="none" stroke="#000000" stroke-width="4.50" stroke-linejoin="bevel" points="2734.88,906.396 2734.88,1009.15"/>
<polyline class="BarLine" fill="none" stroke="#000000" stroke-width="13.75" stroke-linejoin="bevel" points="2757.75,906.396 2757.75,1009.15"/>
<polyline class="BarLine" fill="none" stroke="#000000" stroke-width="4.50" stroke-linejoin="bevel" points="249.349,643.88 249.349,907.771"/>
<polyline class="BarLine" fill="none" stroke="#000000" stroke-width="4.50" stroke-linejoin="bevel" points="1043.03,643.88 1043.03,907.771"/>
<polyline class="BarLine" fill="none" stroke="#000000" stroke-width="4.50" stroke-linejoin="bevel" points="1604.56,643.88 1604.56,907.771"/>
<polyline class="BarLine" fill="none" stroke="#000000" stroke-width="4.50" stroke-linejoin="bevel" points="2166.09,643.88 2166.09,907.771"/>
<polyline class="BarLine" fill="none" stroke="#000000" stroke-width="4.50" stroke-linejoin="bevel" points="2734.88,643.88 2734.88,907.771"/>
<polyline class="BarLine" fill="none" stroke="#000000" stroke-width="13.75" stroke-linejoin="bevel" points="2757.75,643.88 2757.75,907.771"/>
<polyline class="LedgerLine" fill="none" stroke="#000000" stroke-width="4.00" stroke-linejoin="bevel" points="455.002,795.264 504.998,795.264"/>
<polyline class="LedgerLine" fill="none" stroke="#000000" stroke-width="4.00" stroke-linejoin="bevel" points="455.002,770.263 504.998,770.263"/>
<polyline class="LedgerLine" fill="none" stroke="#000000" stroke-width="4.00" stroke-linejoin="bevel" points="599.26,770.263 649.255,770.263"/>
<polyline class="LedgerLine" fill="none" stroke="#000000" stroke-width="4.00" stroke-linejoin="bevel" points="743.517,770.263 793.512,770.263"/>
<polyline class="LedgerLine" fill="none" stroke="#000000" stroke-width="4.00" stroke-linejoin="bevel" points="2200.84,770.263 2250.84,770.263"/>
<polyline class="LedgerLine" fill="none" stroke="#000000" stroke-width="4.00" stroke-linejoin="bevel" points="2346.13,770.263 2396.12,770.263"/>
<polyline class="LedgerLine" fill="none" stroke="#000000" stroke-width="4.00" stroke-linejoin="bevel" points="2491.42,795.264 2541.41,795.264"/>
<polyline class="LedgerLine" fill="none" stroke="#000000" stroke-width="4.00" stroke-linejoin="bevel" points="2491.42,770.263 2541.41,770.263"/>
<polyline class="Stem" fill="none" stroke="#000000" stroke-width="2.75" stroke-linejoin="bevel" points="494.872,991.917 494.872,907.771"/>
<polyline class="Stem" fill="none" stroke="#000000" stroke-width="2.75" stroke-linejoin="bevel" points="639.129,979.416 639.129,898.396"/>
<polyline class="Stem" fill="none" stroke="#000000" stroke-width="2.75" stroke-linejoin="bevel" points="783.387,966.915 783.387,889.02"/>
<polyline class="Stem" fill="none" stroke="#000000" stroke-width="2.75" stroke-linejoin="bevel" points="897.9,961.295 897.9,1035.9"/>
<polyline class="Stem" fill="none" stroke="#000000" stroke-width="2.75" stroke-linejoin="bevel" points="1079.16,948.794 1079.16,1026.53"/>
<polyline class="Stem" fill="none" stroke="#000000" stroke-width="2.75" stroke-linejoin="bevel" points="1210.29,936.293 1210.29,1017.15"/>
<polyline class="Stem" fill="none" stroke="#000000" stroke-width="2.75" stroke-linejoin="bevel" points="1341.42,923.792 1341.42,1007.78"/>
<polyline class="Stem" fill="none" stroke="#000000" stroke-width="2.75" stroke-linejoin="bevel" points="1472.55,911.292 1472.55,995.277"/>
<polyline class="Stem" fill="none" stroke="#000000" stroke-width="2.75" stroke-linejoin="bevel" points="1640.69,923.792 1640.69,1007.78"/>
<polyline class="Stem" fill="none" stroke="#000000" stroke-width="2.75" stroke-linejoin="bevel" points="1771.82,936.293 1771.82,1017.15"/>
<polyline class="Stem" fill="none" stroke="#000000" stroke-width="2.75" stroke-linejoin="bevel" points="1902.95,948.794 1902.95,1026.53"/>
<polyline class="Stem" fill="none" stroke="#000000" stroke-width="2.75" stroke-linejoin="bevel" points="2034.08,961.295 2034.08,1035.9"/>
<polyline class="Stem" fill="none" stroke="#000000" stroke-width="2.75" stroke-linejoin="bevel" points="2240.71,966.915 2240.71,889.02"/>
<polyline class="Stem" fill="none" stroke="#000000" stroke-width="2.75" stroke-linejoin="bevel" points="2386,979.416 2386,898.396"/>
<polyline class="Stem" fill="none" stroke="#000000" stroke-width="2.75" stroke-linejoin="bevel" points="2531.29,991.837 2531.29,907.771"/>
<polyline class="Stem" fill="none" stroke="#000000" stroke-width="2.75" stroke-linejoin="bevel" points="494.872,791.904 494.872,695.258"/>
<polyline class="Stem" fill="none" stroke="#000000" stroke-width="2.75" stroke-linejoin="bevel" points="639.129,779.403 639.129,695.258"/>
<polyline class="Stem" fill="none" stroke="#000000" stroke-width="2.75" stroke-linejoin="bevel" points="783.387,766.902 783.387,682.757"/>
<polyline class="Stem" fill="none" stroke="#000000" stroke-width="2.75" stroke-linejoin="bevel" points="927.644,754.402 927.644,670.256"/>
<polyline class="Stem" fill="none" stroke="#000000" stroke-width="2.75" stroke-linejoin="bevel" points="1108.9,741.901 1108.9,657.756"/>
<polyline class="Stem" fill="none" stroke="#000000" stroke-width="2.75" stroke-linejoin="bevel" points="1240.04,729.4 1240.04,645.255"/>
<polyline class="Stem" fill="none" stroke="#000000" stroke-width="2.75" stroke-linejoin="bevel" points="1371.17,716.899 1371.17,635.879"/>
<polyline class="Stem" fill="none" stroke="#000000" stroke-width="2.75" stroke-linejoin="bevel" points="1502.3,704.398 1502.3,626.504"/>
<polyline class="Stem" fill="none" stroke="#000000" stroke-width="2.75" stroke-linejoin="bevel" points="1670.43,716.899 1670.43,635.879"/>
<polyline class="Stem" fill="none" stroke="#000000" stroke-width="2.75" stroke-linejoin="bevel" points="1801.56,729.4 1801.56,645.255"/>
<polyline class="Stem" fill="none" stroke="#000000" stroke-width="2.75" stroke-linejoin="bevel" points="1932.7,741.901 1932.7,657.756"/>
<polyline class="Stem" fill="none" stroke="#000000" stroke-width="2.75" stroke-linejoin="bevel" points="2063.83,754.402 2063.83,670.256"/>
<polyline class="Stem" fill="none" stroke="#000000" stroke-width="2.75" stroke-linejoin="bevel" points="2240.71,766.902 2240.71,682.757"/>
<polyline class="Stem" fill="none" stroke="#000000" stroke-width="2.75" stroke-linejoin="bevel" points="2386,779.403 2386,695.258"/>
<polyline class="Stem" fill="none" stroke="#000000" stroke-width="2.75" stroke-linejoin="bevel" points="2531.29,791.824 2531.29,695.258"/>
<path class="Note" d="M495.253,987.077 C493.753,984.377 490.853,982.677 486.953,982.277 C486.353,982.177 485.853,982.177 485.253,982.177 C481.753,982.177 477.953,983.177 474.453,985.077 C467.853,988.677 463.753,994.577 463.753,999.677 C463.753,1001.08 463.953,1002.38 464.653,1003.58 C466.153,1006.28 469.153,1007.98 473.053,1008.38 C473.653,1008.48 474.153,1008.48 474.753,1008.48 C478.253,1008.48 481.953,1007.48 485.453,1005.58 C492.053,1001.98 496.253,996.177 496.253,991.077 C496.253,989.677 495.953,988.277 495.253,987.077"/>
<path class="Note" d="M639.51,974.576 C638.01,971.876 635.11,970.176 631.21,969.776 C630.61,969.676 630.11,969.676 629.51,969.676 C626.01,969.676 622.21,970.676 618.71,972.576 C612.11,976.176 608.01,982.076 608.01,987.176 C608.01,988.576 608.21,989.876 608.91,991.076 C610.41,993.776 613.41,995.476 617.31,995.876 C617.91,995.976 618.41,995.976 619.01,995.976 C622.51,995.976 626.21,994.976 629.71,993.076 C636.31,989.476 640.51,983.676 640.51,978.576 C640.51,977.176 640.21,975.776 639.51,974.576"/>
<path class="Note" d="M783.768,962.075 C782.268,959.375 779.368,957.675 775.468,957.275 C774.868,957.175 774.368,957.175 773.768,957.175 C770.268,957.175 766.468,958.175 762.968,960.075 C756.368,963.675 752.268,969.575 752.268,974.675 C752.268,976.075 752.468,977.375 753.168,978.575 C754.668,981.275 757.668,982.975 761.568,983.375 C762.168,983.475 762.668,983.475 763.268,983.475 C766.768,983.475 770.468,982.475 773.968,980.575 C780.568,976.975 784.768,971.175 784.768,966.075 C784.768,964.675 784.468,963.275 783.768,962.075"/>
<path class="Note" d="M928.025,949.574 C926.525,946.874 923.625,945.174 919.725,944.774 C919.125,944.674 918.625,944.674 918.025,944.674 C914.525,944.674 910.725,945.674 907.225,947.574 C900.625,951.174 896.525,957.074 896.525,962.174 C896.525,963.574 896.725,964.874 897.425,966.074 C898.925,968.774 901.925,970.474 905.825,970.874 C906.425,970.974 906.925,970.974 907.525,970.974 C911.025,970.974 914.725,969.974 918.225,968.074 C924.825,964.474 929.025,958.674 929.025,953.574 C929.025,952.174 928.725,950.774 928.025,949.574"/>
<path class="Note" d="M1109.28,937.074 C1107.78,934.374 1104.88,932.674 1100.98,932.274 C1100.38,932.174 1099.88,932.174 1099.28,932.174 C1095.78,932.174 1091.98,933.174 1088.48,935.074 C1081.88,938.674 1077.78,944.574 1077.78,949.674 C1077.78,951.074 1077.98,952.374 1078.68,953.574 C1080.18,956.274 1083.18,957.974 1087.08,958.374 C1087.68,958.474 1088.18,958.474 1088.78,958.474 C1092.28,958.474 1095.98,957.474 1099.48,955.574 C1106.08,951.974 1110.28,946.174 1110.28,941.074 C1110.28,939.674 1109.98,938.274 1109.28,937.074"/>
<path class="Note" d="M1240.42,924.573 C1238.92,921.873 1236.02,920.173 1232.12,919.773 C1231.52,919.673 1231.02,919.673 1230.42,919.673 C1226.92,919.673 1223.12,920.673 1219.62,922.573 C1213.02,926.173 1208.92,932.073 1208.92,937.173 C1208.92,938.573 1209.12,939.873 1209.82,941.073 C1211.32,943.773 1214.32,945.473 1218.22,945.873 C1218.82,945.973 1219.32,945.973 1219.92,945.973 C1223.42,945.973 1227.12,944.973 1230.62,943.073 C1237.22,939.473 1241.42,933.673 1241.42,928.573 C1241.42,927.173 1241.12,925.773 1240.42,924.573"/>
<path class="Note" d="M1371.55,912.072 C1370.05,909.372 1367.15,907.672 1363.25,907.272 C1362.65,907.172 1362.15,907.172 1361.55,907.172 C1358.05,907.172 1354.25,908.172 1350.75,910.072 C1344.15,913.672 1340.05,919.572 1340.05,924.672 C1340.05,926.072 1340.25,927.372 1340.95,928.572 C1342.45,931.272 1345.45,932.972 1349.35,933.372 C1349.95,933.472 1350.45,933.472 1351.05,933.472 C1354.55,933.472 1358.25,932.472 1361.75,930.572 C1368.35,926.972 1372.55,921.172 1372.55,916.072 C1372.55,914.672 1372.25,913.272 1371.55,912.072"/>
<path class="Note" d="M1502.68,899.571 C1501.18,896.871 1498.28,895.171 1494.38,894.771 C1493.78,894.671 1493.28,894.671 1492.68,894.671 C1489.18,894.671 1485.38,895.671 1481.88,897.571 C1475.28,901.171 1471.18,907.071 1471.18,912.171 C1471.18,913.571 1471.38,914.871 1472.08,916.071 C1473.58,918.771 1476.58,920.471 1480.48,920.871 C1481.08,920.971 1481.58,920.971 1482.18,920.971 C1485.68,920.971 1489.38,919.971 1492.88,918.071 C1499.48,914.471 1503.68,908.671 1503.68,903.571 C1503.68,902.171 1503.38,900.771 1502.68,899.571"/>
<path class="Note" d="M1670.81,912.072 C1669.31,909.372 1666.41,907.672 1662.51,907.272 C1661.91,907.172 1661.41,907.172 1660.81,907.172 C1657.31,907.172 1653.51,908.172 1650.01,910.072 C1643.41,913.672 1639.31,919.572 1639.31,924.672 C1639.31,926.072 1639.51,927.372 1640.21,928.572 C1641.71,931.272 1644.71,932.972 1648.61,933.372 C1649.21,933.472 1649.71,933.472 1650.31,933.472 C1653.81,933.472 1657.51,932.472 1661.01,930.572 C1667.61,926.972 1671.81,921.172 1671.81,916.072 C1671.81,914.672 1671.51,913.272 1670.81,912.072"/>
<path class="Note" d="M1801.94,924.573 C1800.44,921.873 1797.54,920.173 1793.64,919.773 C1793.04,919.673 1792.54,919.673 1791.94,919.673 C1788.44,919.673 1784.64,920.673 1781.14,922.573 C1774.54,926.173 1770.44,932.073 1770.44,937.173 C1770.44,938.573 1770.64,939.873 1771.34,941.073 C1772.84,943.773 1775.84,945.473 1779.74,945.873 C1780.34,945.973 1780.84,945.973 1781.44,945.973 C1784.94,945.973 1788.64,944.973 1792.14,943.073 C1798.74,939.473 1802.94,933.673 1802.94,928.573 C1802.94,927.173 1802.64,925.773 1801.94,924.573"/>
<path class="Note" d="M1933.08,937.074 C1931.58,934.374 1928.68,932.674 1924.78,932.274 C1924.18,932.174 1923.68,932.174 1923.08,932.174 C1919.58,932.174 1915.78,933.174 1912.28,935.074 C1905.68,938.674 1901.58,944.574 1901.58,949.674 C1901.58,951.074 1901.78,952.374 1902.48,953.574 C1903.98,956.274 1906.98,957.974 1910.88,958.374 C1911.48,958.474 1911.98,958.474 1912.58,958.474 C1916.08,958.474 1919.78,957.474 1923.28,955.574 C1929.88,951.974 1934.08,946.174 1934.08,941.074 C1934.08,939.674 1933.78,938.274 1933.08,937.074"/>
<path class="Note" d="M2064.21,949.574 C2062.71,946.874 2059.81,945.174 2055.91,944.774 C2055.31,944.674 2054.81,944.674 2054.21,944.674 C2050.71,944.674 2046.91,945.674 2043.41,947.574 C2036.81,951.174 2032.71,957.074 2032.71,962.174 C2032.71,963.574 2032.91,964.874 2033.61,966.074 C2035.11,968.774 2038.11,970.474 2042.01,970.874 C2042.61,970.974 2043.11,970.974 2043.71,970.974 C2047.21,970.974 2050.91,969.974 2054.41,968.074 C2061.01,964.474 2065.21,958.674 2065.21,953.574 C2065.21,952.174 2064.91,950.774 2064.21,949.574"/>
<path class="Note" d="M2241.09,962.075 C2239.59,959.375 2236.69,957.675 2232.79,957.275 C2232.19,957.175 2231.69,957.175 2231.09,957.175 C2227.59,957.175 2223.79,958.175 2220.29,960.075 C2213.69,963.675 2209.59,969.575 2209.59,974.675 C2209.59,976.075 2209.79,977.375 2210.49,978.575 C2211.99,981.275 2214.99,982.975 2218.89,983.375 C2219.49,983.475 2219.99,983.475 2220.59,983.475 C2224.09,983.475 2227.79,982.475 2231.29,980.575 C2237.89,976.975 2242.09,971.175 2242.09,966.075 C2242.09,964.675 2241.79,963.275 2241.09,962.075"/>
<path class="Note" d="M2386.38,974.576 C2384.88,971.876 2381.98,970.176 2378.08,969.776 C2377.48,969.676 2376.98,969.676 2376.38,969.676 C2372.88,969.676 2369.08,970.676 2365.58,972.576 C2358.98,976.176 2354.88,982.076 2354.88,987.176 C2354.88,988.576 2355.08,989.876 2355.78,991.076 C2357.28,993.776 2360.28,995.476 2364.18,995.876 C2364.78,995.976 2365.28,995.976 2365.88,995.976 C2369.38,995.976 2373.08,994.976 2376.58,993.076 C2383.18,989.476 2387.38,983.676 2387.38,978.576 C2387.38,977.176 2387.08,975.776 2386.38,974.576"/>
<path class="Note" d="M2531.67,987.077 C2530.17,984.377 2527.27,982.677 2523.37,982.277 C2522.77,982.177 2522.27,982.177 2521.67,982.177 C2518.17,982.177 2514.37,983.177 2510.87,985.077 C2504.27,988.677 2500.17,994.477 2500.17,999.577 C2500.17,1000.98 2500.57,1002.38 2501.27,1003.58 C2502.77,1006.38 2505.57,1007.98 2509.47,1008.38 C2510.07,1008.48 2510.57,1008.48 2511.17,1008.48 C2514.67,1008.48 2518.47,1007.48 2521.97,1005.58 C2528.57,1001.98 2532.67,996.077 2532.67,990.977 C2532.67,989.577 2532.37,988.277 2531.67,987.077 M2527.47,993.377 C2525.77,995.177 2522.57,997.477 2518.97,999.577 C2515.37,1001.68 2511.67,1003.38 2509.37,1004.08 C2508.87,1004.18 2508.27,1004.28 2507.77,1004.28 C2506.27,1004.28 2504.97,1003.58 2504.27,1002.48 C2503.97,1001.88 2503.77,1001.28 2503.77,1000.68 C2503.77,999.577 2504.27,998.477 2505.37,997.277 C2507.07,995.477 2510.27,993.077 2513.87,990.977 C2517.47,988.877 2521.17,987.177 2523.57,986.577 L2523.77,986.577 C2524.37,986.377 2524.87,986.277 2525.37,986.277 C2526.77,986.277 2527.87,986.877 2528.57,988.177 C2528.87,988.777 2529.07,989.277 2529.07,989.877 C2529.07,991.177 2528.37,992.477 2527.47,993.377"/>
<path class="Note" d="M495.253,787.064 C493.753,784.364 490.853,782.664 486.953,782.264 C486.353,782.164 485.853,782.164 485.253,782.164 C481.753,782.164 477.953,783.164 474.453,785.064 C467.853,788.664 463.753,794.564 463.753,799.664 C463.753,801.064 463.953,802.364 464.653,803.564 C466.153,806.264 469.153,807.964 473.053,808.364 C473.653,808.464 474.153,808.464 474.753,808.464 C478.253,808.464 481.953,807.464 485.453,805.564 C492.053,801.964 496.253,796.164 496.253,791.064 C496.253,789.664 495.953,788.264 495.253,787.064"/>
<path class="Note" d="M639.51,774.563 C638.01,771.863 635.11,770.163 631.21,769.763 C630.61,769.663 630.11,769.663 629.51,769.663 C626.01,769.663 622.21,770.663 618.71,772.563 C612.11,776.163 608.01,782.063 608.01,787.163 C608.01,788.563 608.21,789.863 608.91,791.063 C610.41,793.763 613.41,795.463 617.31,795.863 C617.91,795.963 618.41,795.963 619.01,795.963 C622.51,795.963 626.21,794.963 629.71,793.063 C636.31,789.463 640.51,783.663 640.51,778.563 C640.51,777.163 640.21,775.763 639.51,774.563"/>
<path class="Note" d="M783.768,762.063 C782.268,759.363 779.368,757.663 775.468,757.263 C774.868,757.163 774.368,757.163 773.768,757.163 C770.268,757.163 766.468,758.163 762.968,760.063 C756.368,763.663 752.268,769.563 752.268,774.663 C752.268,776.063 752.468,777.363 753.168,778.563 C754.668,781.263 757.668,782.963 761.568,783.363 C762.168,783.463 762.668,783.463 763.268,783.463 C766.768,783.463 770.468,782.463 773.968,780.563 C780.568,776.963 784.768,771.163 784.768,766.063 C784.768,764.663 784.468,763.263 783.768,762.063"/>
<path class="Note" d="M928.025,749.562 C926.525,746.862 923.625,745.162 919.725,744.762 C919.125,744.662 918.625,744.662 918.025,744.662 C914.525,744.662 910.725,745.662 907.225,747.562 C900.625,751.162 896.525,757.062 896.525,762.162 C896.525,763.562 896.725,764.862 897.425,766.062 C898.925,768.762 901.925,770.462 905.825,770.862 C906.425,770.962 906.925,770.962 907.525,770.962 C911.025,770.962 914.725,769.962 918.225,768.062 C924.825,764.462 929.025,758.662 929.025,753.562 C929.025,752.162 928.725,750.762 928.025,749.562"/>
<path class="Note" d="M1109.28,737.061 C1107.78,734.361 1104.88,732.661 1100.98,732.261 C1100.38,732.161 1099.88,732.161 1099.28,732.161 C1095.78,732.161 1091.98,733.161 1088.48,735.061 C1081.88,738.661 1077.78,744.561 1077.78,749.661 C1077.78,751.061 1077.98,752.361 1078.68,753.561 C1080.18,756.261 1083.18,757.961 1087.08,758.361 C1087.68,758.461 1088.18,758.461 1088.78,758.461 C1092.28,758.461 1095.98,757.461 1099.48,755.561 C1106.08,751.961 1110.28,746.161 1110.28,741.061 C1110.28,739.661 1109.98,738.261 1109.28,737.061"/>
<path class="Note" d="M1240.42,724.56 C1238.92,721.86 1236.02,720.16 1232.12,719.76 C1231.52,719.66 1231.02,719.66 1230.42,719.66 C1226.92,719.66 1223.12,720.66 1219.62,722.56 C1213.02,726.16 1208.92,732.06 1208.92,737.16 C1208.92,738.56 1209.12,739.86 1209.82,741.06 C1211.32,743.76 1214.32,745.46 1218.22,745.86 C1218.82,745.96 1219.32,745.96 1219.92,745.96 C1223.42,745.96 1227.12,744.96 1230.62,743.06 C1237.22,739.46 1241.42,733.66 1241.42,728.56 C1241.42,727.16 1241.12,725.76 1240.42,724.56"/>
<path class="Note" d="M1371.55,712.059 C1370.05,709.359 1367.15,707.659 1363.25,707.259 C1362.65,707.159 1362.15,707.159 1361.55,707.159 C1358.05,707.159 1354.25,708.159 1350.75,710.059 C1344.15,713.659 1340.05,719.559 1340.05,724.659 C1340.05,726.059 1340.25,727.359 1340.95,728.559 C1342.45,731.259 1345.45,732.959 1349.35,733.359 C1349.95,733.459 1350.45,733.459 1351.05,733.459 C1354.55,733.459 1358.25,732.459 1361.75,730.559 C1368.35,726.959 1372.55,721.159 1372.55,716.059 C1372.55,714.659 1372.25,713.259 1371.55,712.059"/>
<path class="Note" d="M1502.68,699.559 C1501.18,696.859 1498.28,695.159 1494.38,694.759 C1493.78,694.659 1493.28,694.659 1492.68,694.659 C1489.18,694.659 1485.38,695.659 1481.88,697.559 C1475.28,701.159 1471.18,707.059 1471.18,712.159 C1471.18,713.559 1471.38,714.859 1472.08,716.059 C1473.58,718.759 1476.58,720.459 1480.48,720.859 C1481.08,720.959 1481.58,720.959 1482.18,720.959 C1485.68,720.959 1489.38,719.959 1492.88,718.059 C1499.48,714.459 1503.68,708.659 1503.68,703.559 C1503.68,702.159 1503.38,700.759 1502.68,699.559"/>
<path class="Note" d="M1670.81,712.059 C1669.31,709.359 1666.41,707.659 1662.51,707.259 C1661.91,707.159 1661.41,707.159 1660.81,707.159 C1657.31,707.159 1653.51,708.159 1650.01,710.059 C1643.41,713.659 1639.31,719.559 1639.31,724.659 C1639.31,726.059 1639.51,727.359 1640.21,728.559 C1641.71,731.259 1644.71,732.959 1648.61,733.359 C1649.21,733.459 1649.71,733.459 1650.31,733.459 C1653.81,733.459 1657.51,732.459 1661.01,730.559 C1667.61,726.959 1671.81,721.159 1671.81,716.059 C1671.81,714.659 1671.51,713.259 1670.81,712.059"/>
<path class="Note" d="M1801.94,724.56 C1800.44,721.86 1797.54,720.16 1793.64,719.76 C1793.04,719.66 1792.54,719.66 1791.94,719.66 C1788.44,719.66 1784.64,720.66 1781.14,722.56 C1774.54,726.16 1770.44,732.06 1770.44,737.16 C1770.44,738.56 1770.64,739.86 1771.34,741.06 C1772.84,743.76 1775.84,745.46 1779.74,745.86 C1780.34,745.96 1780.84,745.96 1781.44,745.96 C1784.94,745.96 1788.64,744.96 1792.14,743.06 C1798.74,739.46 1802.94,733.66 1802.94,728.56 C1802.94,727.16 1802.64,725.76 1801.94,724.56"/>
<path class="Note" d="M1933.08,737.061 C1931.58,734.361 1928.68,732.661 1924.78,732.261 C1924.18,732.161 1923.68,732.161 1923.08,732.161 C1919.58,732.161 1915.78,733.161 1912.28,735.061 C1905.68,738.661 1901.58,744.561 1901.58,749.661 C1901.58,751.061 1901.78,752.361 1902.48,753.561 C1903.98,756.261 1906.98,757.961 1910.88,758.361 C1911.48,758.461 1911.98,758.461 1912.58,758.461 C1916.08,758.461 1919.78,757.461 1923.28,755.561 C1929.88,751.961 1934.08,746.161 1934.08,741.061 C1934.08,739.661 1933.78,738.261 1933.08,737.061"/>
<path class="Note" d="M2064.21,749.562 C2062.71,746.862 2059.81,745.162 2055.91,744.762 C2055.31,744.662 2054.81,744.662 2054.21,744.662 C2050.71,744.662 2046.91,745.662 2043.41,747.562 C2036.81,751.162 2032.71,757.062 2032.71,762.162 C2032.71,763.562 2032.91,764.862 2033.61,766.062 C2035.11,768.762 2038.11,770.462 2042.01,770.862 C2042.61,770.962 2043.11,770.962 2043.71,770.962 C2047.21,770.962 2050.91,769.962 2054.41,768.062 C2061.01,764.462 2065.21,758.662 2065.21,753.562 C2065.21,752.162 2064.91,750.762 2064.21,749.562"/>
<path class="Note" d="M2241.09,762.063 C2239.59,759.363 2236.69,757.663 2232.79,757.263 C2232.19,757.163 2231.69,757.163 2231.09,757.163 C2227.59,757.163 2223.79,758.163 2220.29,760.063 C2213.69,763.663 2209.59,769.563 2209.59,774.663 C2209.59,776.063 2209.79,777.363 2210.49,778.563 C2211.99,781.263 2214.99,782.963 2218.89,783.363 C2219.49,783.463 2219.99,783.463 2220.59,783.463 C2224.09,783.463 2227.79,782.463 2231.29,780.563 C2237.89,776.963 2242.09,771.163 2242.09,766.063 C2242.09,764.663 2241.79,763.263 2241.09,762.063"/>
<path class="Note" d="M2386.38,774.563 C2384.88,771.863 2381.98,770.163 2378.08,769.763 C2377.48,769.663 2376.98,769.663 2376.38,769.663 C2372.88,769.663 2369.08,770.663 2365.58,772.563 C2358.98,776.163 2354.88,782.063 2354.88,787.163 C2354.88,788.563 2355.08,789.863 2355.78,791.063 C2357.28,793.763 2360.28,795.463 2364.18,795.863 C2364.78,795.963 2365.28,795.963 2365.88,795.963 C2369.38,795.963 2373.08,794.963 2376.58,793.063 C2383.18,789.463 2387.38,783.663 2387.38,778.563 C2387.38,777.163 2387.08,775.763 2386.38,774.563"/>
<path class="Note" d="M2531.67,787.064 C2530.17,784.364 2527.27,782.664 2523.37,782.264 C2522.77,782.164 2522.27,782.164 2521.67,782.164 C2518.17,782.164 2514.37,783.164 2510.87,785.064 C2504.27,788.664 2500.17,794.464 2500.17,799.564 C2500.17,800.964 2500.57,802.364 2501.27,803.564 C2502.77,806.364 2505.57,807.964 2509.47,808.364 C2510.07,808.464 2510.57,808.464 2511.17,808.464 C2514.67,808.464 2518.47,807.464 2521.97,805.564 C2528.57,801.964 2532.67,796.064 2532.67,790.964 C2532.67,789.564 2532.37,788.264 2531.67,787.064 M2527.47,793.364 C2525.77,795.164 2522.57,797.464 2518.97,799.564 C2515.37,801.664 2511.67,803.364 2509.37,804.064 C2508.87,804.164 2508.27,804.264 2507.77,804.264 C2506.27,804.264 2504.97,803.564 2504.27,802.464 C2503.97,801.864 2503.77,801.264 2503.77,800.664 C2503.77,799.564 2504.27,798.464 2505.37,797.264 C2507.07,795.464 2510.27,793.064 2513.87,790.964 C2517.47,788.864 2521.17,787.164 2523.57,786.564 L2523.77,786.564 C2524.37,786.364 2524.87,786.264 2525.37,786.264 C2526.77,786.264 2527.87,786.864 2528.57,788.164 C2528.87,788.764 2529.07,789.264 2529.07,789.864 C2529.07,791.164 2528.37,792.464 2527.47,793.364"/>
<path class="Clef" d="M297,907.673 C289.4,907.673 283.3,912.073 283.2,912.073 C277.4,916.373 275.1,921.473 274.2,924.973 C273.7,926.773 273.5,928.573 273.5,930.273 C273.5,932.673 273.9,934.873 274.8,936.773 C276,939.473 278.3,941.373 281.3,942.373 C282.5,942.773 283.8,942.973 285.1,942.973 C287.3,942.973 289.6,942.373 291.5,941.273 C294.6,939.573 296.5,935.973 296.5,932.073 C296.5,928.573 294.7,925.373 291.7,923.473 C289.6,922.073 287.6,921.673 285.9,921.673 C284.7,921.673 283.6,921.873 282.7,922.173 C281.7,922.573 280,923.573 279.2,924.273 C279.5,922.373 280.7,919.473 281.8,917.873 C282.9,916.273 285.1,914.273 286.8,913.373 C289.3,911.973 292.5,911.373 296,911.373 C306.2,911.373 311.2,919.573 311.2,936.373 C311.2,945.673 307.7,954.573 304.7,960.473 C301.4,967.073 297,973.373 293.1,976.873 C282.7,986.373 272.9,990.873 272.8,990.873 C272.8,990.873 271.3,991.773 271.7,993.273 C272,994.273 272.9,994.473 273.5,994.473 C273.6,994.473 273.9,994.373 274,994.373 C274.1,994.373 285.5,989.673 294.6,982.573 C299.7,978.873 304.3,974.873 308.3,970.573 C311.9,966.673 315,962.473 317.5,958.273 C321.9,950.773 324.4,942.973 324.4,936.273 C324.4,927.973 322.2,921.073 318.1,916.173 C313.4,910.573 306.3,907.673 297,907.673 M328.4,920.373 C328.4,923.173 330.6,925.373 333.2,925.373 C335.8,925.373 338,923.173 338,920.373 C338,917.573 335.8,915.273 333.2,915.273 C330.6,915.273 328.4,917.573 328.4,920.373 M328.4,945.073 C328.4,947.873 330.6,950.173 333.2,950.173 C335.8,950.173 338,947.873 338,945.073 C338,942.273 335.8,939.973 333.2,939.973 C330.6,939.973 328.4,942.273 328.4,945.073"/>
<path class="Clef" d="M335,714.359 C333.8,708.959 331.1,705.059 330.3,704.059 C327.1,699.759 323.1,696.959 318.4,695.559 C316.1,694.859 314,694.659 312,694.659 C311.3,694.659 310.6,694.659 309.9,694.759 C308.9,688.759 307.8,682.859 306.9,677.459 C312.5,671.259 316.2,665.359 318.6,660.959 C322.2,654.259 323.6,649.559 323.7,649.359 C324.9,646.359 325.6,642.559 325.6,638.059 C325.6,635.359 325.3,632.459 324.9,629.459 C323.8,622.359 321.6,615.659 319.1,611.959 C317.8,610.059 316.6,608.959 315.4,608.959 C314.2,608.959 311.7,610.159 308.8,612.959 C306.5,615.159 303.2,619.059 300.6,625.059 C298.3,630.459 297.6,637.359 297.6,643.259 C297.6,645.059 297.7,646.759 297.8,648.359 C298,651.959 298.7,657.759 299.3,661.359 C299.3,661.459 299.6,662.959 300,665.559 L299.3,666.259 C298.3,667.259 297.1,668.359 295.7,669.759 C294.8,670.659 293.9,671.459 292.9,672.459 C284.4,680.659 271.6,693.059 271.6,712.159 C271.6,716.859 272.5,721.259 274.3,725.259 C275.9,728.859 278.2,732.159 281.1,735.059 C288.6,742.459 298.8,745.659 305.9,745.659 L306.5,745.659 C309.4,745.559 312.1,745.259 314.5,744.859 C316.3,754.459 317.5,761.559 317.5,766.859 C317.5,773.359 315.9,777.259 312,780.059 C309.6,781.759 306.7,782.859 303.6,782.959 L302.8,782.959 C301.3,782.959 298.8,782.559 297.3,782.159 C297.3,782.159 297,782.059 297,781.859 C297,781.659 297.4,781.659 297.4,781.659 C299.3,781.259 302.9,779.959 305.3,776.659 C306.4,775.159 307.1,772.859 307.1,770.359 C307.1,768.759 306.8,767.059 306.1,765.559 C305,763.159 302.4,760.159 296.8,759.759 L295.7,759.759 C293.6,759.759 291.8,760.259 290.1,761.259 C288.3,762.359 286.7,764.059 285.7,766.059 C284.6,768.059 284.1,770.259 284.1,772.459 C284.1,775.359 285,778.059 286.8,780.259 C289.8,783.859 294.5,786.159 299.9,786.759 C300.6,786.859 301.7,786.959 302.4,786.959 C306.8,786.959 311.2,785.759 314.8,783.559 C318.5,780.959 320.6,776.959 321.3,771.359 C321.5,770.059 321.5,768.659 321.5,767.159 C321.5,763.259 321,758.559 320,752.759 C319.6,750.659 319.2,747.659 318.5,743.859 C324.3,741.959 328.4,738.259 332.2,732.459 C334.5,728.459 335.6,724.359 335.6,720.059 C335.6,718.159 335.4,716.259 335,714.359 M304.8,636.459 C306.6,630.759 309.3,627.359 311.3,625.659 C313.1,624.159 314.7,623.459 315.6,623.459 C315.7,623.459 315.9,623.559 316,623.559 C316.3,623.659 316.7,624.159 317.1,624.859 C318,626.659 318.9,629.959 318.9,633.659 C318.9,635.559 318.7,637.559 318.1,639.359 C315.9,646.159 311.3,653.459 304.3,661.159 C304.1,660.059 303.9,659.059 303.8,658.059 C303.3,654.859 303,651.659 303,648.759 C303,644.259 303.6,640.159 304.8,636.459 M300.8,740.559 C296.2,739.359 291.7,736.859 287.9,733.359 C286.6,732.159 284.8,729.959 283.3,726.559 C282,723.559 281.3,720.459 281.3,717.059 L281.3,716.359 C281.4,711.659 282.7,706.859 285.2,702.059 C288.1,696.459 292.6,690.959 298.7,685.659 C300.2,684.359 301.6,683.059 302.9,681.759 C303.7,686.059 304.4,690.759 305.3,695.659 C301.4,696.959 296.7,699.959 293.6,705.659 C291.2,710.159 290.5,714.059 290.5,717.259 C290.5,718.759 290.7,720.159 290.9,721.259 C291.8,725.759 294.4,729.459 297.9,731.559 C298.7,732.059 302,733.759 304,733.759 C304.3,733.759 304.6,733.759 304.8,733.659 C305.1,733.559 305.4,733.359 305.5,733.059 C305.6,732.859 305.6,732.659 305.6,732.459 C305.6,731.659 304.8,731.059 303.5,730.259 C302.9,729.859 302.2,729.459 301.5,728.959 C298.9,726.959 297.4,723.859 297.4,720.459 C297.4,719.459 297.6,718.559 297.8,717.559 C298.3,715.559 300,712.759 301.5,711.359 C303.2,709.859 305.2,708.659 307.6,708.059 C309.6,719.259 311.7,730.359 313.3,738.759 C313.4,739.459 313.6,740.159 313.7,740.859 C311.7,741.259 309.7,741.459 307.8,741.459 C305.4,741.459 303.1,741.159 300.8,740.559 M326.5,730.359 C325.3,733.559 322.8,737.559 317.7,739.659 C317.6,739.259 317.6,738.759 317.5,738.359 C316,729.559 314.1,718.659 312.1,707.359 L313.1,707.359 C322.8,707.359 326.7,714.559 327.6,719.159 C327.8,720.059 327.9,721.259 327.9,722.559 C327.9,724.859 327.5,727.659 326.5,730.359"/>
<path class="TimeSig" d="M365.2,946.172 L382,946.172 L382,953.472 L373.9,953.472 C373.1,953.472 372.5,954.072 372.5,954.872 L372.5,956.772 C372.5,957.572 373.1,958.072 373.9,958.072 L403.6,958.072 C404.4,958.072 405,957.572 405,956.772 L405,954.872 C405,954.072 404.4,953.472 403.6,953.472 L394.8,953.472 L394.8,946.172 L403.6,946.172 C404.4,946.172 405,945.572 405,944.772 L405,942.972 C405,942.172 404.4,941.572 403.6,941.572 L394.8,941.572 L394.8,925.872 C394.8,925.372 394.4,924.872 394,924.672 L392.9,924.072 C392.7,923.972 392.4,923.972 392.2,923.972 C391.9,923.972 391.5,924.072 391.3,924.272 L382.4,932.472 C382.2,932.672 382,933.172 382,933.472 L382,941.572 L370.7,941.572 C370.7,941.572 381.6,929.772 393.2,914.272 C394,913.172 393.6,912.172 393.4,911.972 L391.3,909.772 C391.1,909.572 390.6,909.372 390.3,909.372 L375.7,909.372 C375,909.372 374.5,909.972 374.4,910.572 C374.4,910.572 373.9,917.772 371.3,925.772 C368.7,933.772 365.9,938.572 363.3,942.172 C363.3,942.172 362.8,943.172 363.1,943.872 C363.4,944.572 364.1,945.672 364.1,945.672 C364.1,945.672 364.4,946.172 365.2,946.172"/>
<path class="TimeSig" d="M365.2,994.777 L382,994.777 L382,1002.08 L373.9,1002.08 C373.1,1002.08 372.5,1002.68 372.5,1003.48 L372.5,1005.38 C372.5,1006.18 373.1,1006.68 373.9,1006.68 L403.6,1006.68 C404.4,1006.68 405,1006.18 405,1005.38 L405,1003.48 C405,1002.68 404.4,1002.08 403.6,1002.08 L394.8,1002.08 L394.8,994.777 L403.6,994.777 C404.4,994.777 405,994.177 405,993.377 L405,991.577 C405,990.777 404.4,990.177 403.6,990.177 L394.8,990.177 L394.8,974.477 C394.8,973.977 394.4,973.477 394,973.277 L392.9,972.677 C392.7,972.577 392.4,972.577 392.2,972.577 C391.9,972.577 391.5,972.677 391.3,972.877 L382.4,981.077 C382.2,981.277 382,981.777 382,982.077 L382,990.177 L370.7,990.177 C370.7,990.177 381.6,978.377 393.2,962.877 C394,961.777 393.6,960.777 393.4,960.577 L391.3,958.377 C391.1,958.177 390.6,957.977 390.3,957.977 L375.7,957.977 C375,957.977 374.5,958.577 374.4,959.177 C374.4,959.177 373.9,966.377 371.3,974.377 C368.7,982.377 365.9,987.177 363.3,990.777 C363.3,990.777 362.8,991.777 363.1,992.477 C363.4,993.177 364.1,994.277 364.1,994.277 C364.1,994.277 364.4,994.777 365.2,994.777"/>
<path class="TimeSig" d="M365.2,683.656 L382,683.656 L382,690.956 L373.9,690.956 C373.1,690.956 372.5,691.556 372.5,692.356 L372.5,694.256 C372.5,695.056 373.1,695.556 373.9,695.556 L403.6,695.556 C404.4,695.556 405,695.056 405,694.256 L405,692.356 C405,691.556 404.4,690.956 403.6,690.956 L394.8,690.956 L394.8,683.656 L403.6,683.656 C404.4,683.656 405,683.056 405,682.256 L405,680.456 C405,679.656 404.4,679.056 403.6,679.056 L394.8,679.056 L394.8,663.356 C394.8,662.856 394.4,662.356 394,662.156 L392.9,661.556 C392.7,661.456 392.4,661.456 392.2,661.456 C391.9,661.456 391.5,661.556 391.3,661.756 L382.4,669.956 C382.2,670.156 382,670.656 382,670.956 L382,679.056 L370.7,679.056 C370.7,679.056 381.6,667.256 393.2,651.756 C394,650.656 393.6,649.656 393.4,649.456 L391.3,647.256 C391.1,647.056 390.6,646.856 390.3,646.856 L375.7,646.856 C375,646.856 374.5,647.456 374.4,648.056 C374.4,648.056 373.9,655.256 371.3,663.256 C368.7,671.256 365.9,676.056 363.3,679.656 C363.3,679.656 362.8,680.656 363.1,681.356 C363.4,682.056 364.1,683.156 364.1,683.156 C364.1,683.156 364.4,683.656 365.2,683.656"/>
<path class="TimeSig" d="M365.2,732.26 L382,732.26 L382,739.56 L373.9,739.56 C373.1,739.56 372.5,740.16 372.5,740.96 L372.5,742.86 C372.5,743.66 373.1,744.16 373.9,744.16 L403.6,744.16 C404.4,744.16 405,743.66 405,742.86 L405,740.96 C405,740.16 404.4,739.56 403.6,739.56 L394.8,739.56 L394.8,732.26 L403.6,732.26 C404.4,732.26 405,731.66 405,730.86 L405,729.06 C405,728.26 404.4,727.66 403.6,727.66 L394.8,727.66 L394.8,711.96 C394.8,711.46 394.4,710.96 394,710.76 L392.9,710.16 C392.7,710.06 392.4,710.06 392.2,710.06 C391.9,710.06 391.5,710.16 391.3,710.36 L382.4,718.56 C382.2,718.76 382,719.26 382,719.56 L382,727.66 L370.7,727.66 C370.7,727.66 381.6,715.86 393.2,700.36 C394,699.26 393.6,698.26 393.4,698.06 L391.3,695.86 C391.1,695.66 390.6,695.46 390.3,695.46 L375.7,695.46 C375,695.46 374.5,696.06 374.4,696.66 C374.4,696.66 373.9,703.86 371.3,711.86 C368.7,719.86 365.9,724.66 363.3,728.26 C363.3,728.26 362.8,729.26 363.1,729.96 C363.4,730.66 364.1,731.76 364.1,731.76 C364.1,731.76 364.4,732.26 365.2,732.26"/>
<path class="Page" d="M222.584,4034.37 C221.054,4036.22 216.914,4037.61 212.774,4037.7 L212.774,4039.64 L216.734,4039.64 C219.344,4039.68 219.614,4039.95 219.524,4042.47 L219.524,4060.52 C219.524,4062.81 219.524,4062.9 219.254,4063.31 C218.894,4063.76 218.039,4063.94 215.519,4063.94 L212.594,4063.94 L212.594,4066.05 L230.414,4066.05 L230.414,4063.94 L227.939,4063.94 C225.419,4063.94 224.564,4063.76 224.204,4063.31 C223.889,4062.9 223.889,4062.86 223.889,4060.52 L223.889,4041.93 C223.889,4039.41 223.979,4037.3 224.204,4034.37 L222.584,4034.37 M239.994,4050.75 C240.444,4045.13 240.669,4043.64 241.659,4041.35 C242.964,4038.15 245.349,4036.31 248.184,4036.31 C249.759,4036.31 250.704,4036.8 250.704,4037.61 C250.704,4037.79 250.659,4037.93 250.479,4038.24 C250.029,4039.1 249.804,4039.77 249.804,4040.4 C249.804,4041.89 250.974,4043.01 252.549,4043.01 C254.304,4043.01 255.519,4041.66 255.519,4039.77 C255.519,4036.67 252.414,4034.37 248.139,4034.37 C244.449,4034.37 240.984,4036.13 238.824,4039.14 C236.349,4042.61 234.999,4047.29 234.999,4052.19 C234.999,4061.01 239.319,4066.73 245.979,4066.73 C248.904,4066.73 251.334,4065.74 253.224,4063.76 C255.159,4061.78 256.329,4058.85 256.329,4055.97 C256.329,4050.66 252.549,4046.7 247.419,4046.7 C244.359,4046.7 242.109,4047.92 239.994,4050.75 M246.159,4049.45 C249.444,4049.45 251.424,4052.01 251.424,4056.29 C251.424,4061.51 249.354,4064.79 246.069,4064.79 C243.999,4064.79 242.424,4063.71 241.344,4061.51 C240.624,4060.11 240.264,4058.58 240.264,4056.92 C240.264,4052.28 242.514,4049.45 246.159,4049.45"/>
<path class="Bracket" transform="matrix(3.62523,0,0,3.62523,214.469,1007.78)" d="M0.92002,-50 C2.69004,-51.88 6.2,-55.8 6.2,-63 C6.2,-72.1 2.25996,-81.32 2.25996,-86.97 C2.25996,-93.06 5.84004,-98.84 5.95,-99 C6.05996,-99.16 6.05,-99.39 5.94004,-99.46 C5.82998,-99.53 5.62002,-99.47 5.49004,-99.32 C5.35996,-99.17 0,-93.75 0,-85.6 C0,-76.75 3.5,-70.58 3.5,-59.07 C3.5,-56.89 2.55996,-53.36 0.1,-50.33 C-0.0799805,-50.17 -0.1,-49.89 0.0599609,-49.7 L0.0700195,-49.69 L0.1,-49.66 C2.55996,-46.63 3.5,-43.1 3.5,-40.92 C3.5,-29.4 0,-23.24 0,-14.39 C0,-6.25 5.35996,-0.8 5.49004,-0.659961 C5.62002,-0.52002 5.8,-0.42998 5.94004,-0.52002 C6.07998,-0.609961 6.07998,-0.77998 5.95,-0.97998 C5.82002,-1.17998 2.25996,-6.92002 2.25996,-13.01 C2.25996,-18.66 6.2,-27.9 6.2,-37 C6.2,-44.3 2.69004,-48.12 0.92002,-50"/>
</svg>