<?xml version="1.0" encoding="UTF-8" standalone="no"?>
<svg width="1000px" height="300px" viewBox="0 400 3040 900" xmlns="http://www.w3.org/2000/svg" xmlns:xlink="http://www.w3.org/1999/xlink" version="1.2" baseProfile="tiny">
 xmlns="http://www.w3.org/2000/svg" xmlns:xlink="http://www.w3.org/1999/xlink" version="1.2" baseProfile="tiny">
<title>exercises_scores (38)</title>
<desc>Generated by MuseScore 3.6.0</desc>
<polyline class="StaffLines" fill="none" stroke="#000000" stroke-width="2.75" stroke-linejoin="bevel" points="247.099,645.317 2764.63,645.317"/>
<polyline class="StaffLines" fill="none" stroke="#000000" stroke-width="2.75" stroke-linejoin="bevel" points="247.099,670.319 2764.63,670.319"/>
<polyline class="StaffLines" fill="none" stroke="#000000" stroke-width="2.75" stroke-linejoin="bevel" points="247.099,695.32 2764.63,695.32"/>
<polyline class="StaffLines" fill="none" stroke="#000000" stroke-width="2.75" stroke-linejoin="bevel" points="247.099,720.322 2764.63,720.322"/>
<polyline class="StaffLines" fill="none" stroke="#000000" stroke-width="2.75" stroke-linejoin="bevel" points="247.099,745.324 2764.63,745.324"/>
<polyline class="StaffLines" fill="none" stroke="#000000" stroke-width="2.75" stroke-linejoin="bevel" points="247.099,907.834 2764.63,907.834"/>
<polyline class="StaffLines" fill="none" stroke="#000000" stroke-width="2.75" stroke-linejoin="bevel" points="247.099,932.835 2764.63,932.835"/>
<polyline class="StaffLines" fill="none" stroke="#000000" stroke-width="2.75" stroke-linejoin="bevel" points="247.099,957.837 2764.63,957.837"/>
<polyline class="StaffLines" fill="none" stroke="#000000" stroke-width="2.75" stroke-linejoin="bevel" points="247.099,982.839 2764.63,982.839"/>
<polyline class="StaffLines" fill="none" stroke="#000000" stroke-width="2.75" stroke-linejoin="bevel" points="247.099,1007.84 2764.63,1007.84"/>
<path class="Text" d="M248.304,213.497 L212.604,213.497 L212.604,216.317 L213.684,216.317 C217.104,216.377 218.244,216.557 218.724,217.157 C219.084,217.697 219.084,217.817 219.084,220.877 L219.084,249.437 C219.084,252.497 219.084,252.617 218.724,253.157 C218.244,253.757 217.104,253.997 213.684,253.997 L212.604,253.997 L212.604,256.817 L233.184,256.817 L233.184,253.997 L231.204,253.997 C227.784,253.997 226.644,253.757 226.164,253.157 C225.804,252.617 225.804,252.437 225.804,249.437 L225.804,235.817 L227.004,235.817 C233.184,235.577 235.404,237.797 235.644,244.457 L238.464,244.457 L238.464,224.777 L235.644,224.777 C235.284,230.657 232.944,232.937 227.244,232.997 L225.804,232.997 L225.804,219.317 C225.744,216.797 226.344,216.377 229.584,216.317 L232.344,216.317 C242.184,216.257 244.644,218.477 246.504,228.797 L249.144,228.797 L248.304,213.497 M279.552,212.597 L268.452,213.257 L268.452,215.837 L271.332,215.837 C273.612,215.897 273.912,216.257 273.912,218.837 L273.912,249.437 L273.912,250.877 L273.912,252.317 C273.852,253.157 273.792,253.517 273.552,253.817 C273.132,254.357 271.992,254.597 269.412,254.657 L269.172,254.657 L269.172,256.817 L284.352,256.817 L284.352,254.657 L284.112,254.657 C280.092,254.537 279.552,254.237 279.552,252.077 L279.552,249.437 L279.552,243.197 C279.552,240.257 279.972,237.557 280.632,236.177 C281.952,233.477 284.592,231.617 287.172,231.617 C288.732,231.617 290.532,232.517 291.372,233.717 C292.332,235.037 292.752,236.837 292.752,239.777 L292.752,249.437 L292.752,252.317 C292.692,253.157 292.632,253.517 292.392,253.817 C291.972,254.357 290.772,254.597 288.192,254.657 L287.952,254.657 L287.952,256.817 L303.132,256.817 L303.132,254.657 L302.892,254.657 C298.932,254.537 298.392,254.237 298.392,252.077 L298.392,249.437 L298.392,240.017 C298.392,235.697 298.212,234.617 297.132,232.577 C295.632,229.637 292.632,227.957 289.032,227.957 C285.132,227.957 282.252,229.697 279.552,233.717 L279.552,212.597 M331.328,237.497 C331.328,233.717 330.668,231.797 328.928,230.357 C326.948,228.737 324.008,227.957 320.168,227.957 C313.388,227.957 308.468,231.137 308.468,235.517 C308.468,237.737 309.848,239.177 311.948,239.177 C313.868,239.177 315.188,237.917 315.188,236.117 C315.188,235.337 314.888,234.497 314.288,233.657 C313.928,233.237 313.868,233.117 313.868,232.817 C313.868,231.617 316.268,230.537 319.148,230.537 C321.068,230.537 323.168,231.137 324.128,232.037 C325.268,232.997 325.688,234.437 325.688,237.137 L325.688,239.477 C319.448,240.557 317.468,241.037 314.528,242.177 C309.308,244.097 306.848,246.857 306.848,250.697 C306.848,255.017 310.208,257.717 315.548,257.717 C319.688,257.717 323.408,256.037 325.988,252.977 C326.948,256.037 328.448,257.237 331.268,257.237 C333.968,257.237 336.788,255.497 336.788,253.757 C336.788,253.337 336.548,253.037 336.188,253.037 C335.948,253.037 335.708,253.097 335.288,253.277 C334.448,253.637 334.088,253.697 333.608,253.697 C331.928,253.697 331.328,252.617 331.328,249.557 L331.328,237.497 M325.688,244.817 C325.688,248.417 325.508,249.257 324.488,250.817 C322.988,253.037 320.288,254.537 317.648,254.537 C314.888,254.537 312.908,252.557 312.908,249.857 C312.908,247.337 314.168,245.537 316.808,244.277 C318.668,243.437 321.008,242.837 325.688,242.057 L325.688,244.817 M349.447,228.857 L338.827,229.517 L338.827,232.097 L341.287,232.097 C343.567,232.157 343.867,232.517 343.867,235.097 L343.867,249.437 L343.867,252.257 C343.807,253.157 343.747,253.517 343.507,253.817 C343.087,254.357 341.887,254.597 339.307,254.657 L339.067,254.657 L339.067,256.817 L355.087,256.817 L355.087,254.657 L354.007,254.657 C349.987,254.537 349.447,254.237 349.447,252.077 L349.447,249.437 L349.447,248.837 C349.507,238.757 353.107,231.077 357.787,230.837 C356.947,231.797 356.707,232.397 356.707,233.537 C356.707,235.457 358.087,236.837 360.007,236.837 C362.227,236.837 363.667,235.217 363.667,232.817 C363.667,229.877 361.627,227.957 358.447,227.957 C354.667,227.957 351.427,230.957 349.447,236.297 L349.447,228.857 M377.268,228.857 L366.588,229.517 L366.588,232.097 L369.048,232.097 C371.328,232.157 371.628,232.517 371.628,235.097 L371.628,249.437 L371.628,251.777 L371.628,252.257 C371.568,253.157 371.508,253.517 371.268,253.817 C370.848,254.357 369.708,254.597 367.128,254.657 L366.888,254.657 L366.888,256.817 L382.008,256.817 L382.008,254.657 L381.768,254.657 C377.808,254.537 377.268,254.237 377.268,252.017 L377.268,249.437 L377.268,240.917 C377.268,235.577 380.208,231.617 384.108,231.617 C387.528,231.617 389.268,234.077 389.268,238.937 L389.268,249.437 L389.268,252.317 C389.208,253.097 389.148,253.517 388.848,253.817 C388.488,254.357 387.288,254.597 384.708,254.657 L384.468,254.657 L384.468,256.817 L399.648,256.817 L399.648,254.657 L399.408,254.657 C395.448,254.537 394.908,254.237 394.908,252.077 L394.908,249.437 L394.908,241.457 C394.908,235.457 397.608,231.617 401.808,231.617 C405.228,231.617 406.908,234.197 406.908,239.597 L406.908,249.437 L406.908,252.257 C406.848,253.097 406.788,253.517 406.488,253.817 C406.128,254.357 404.928,254.597 402.348,254.657 L402.108,254.657 L402.108,256.817 L417.288,256.817 L417.288,254.657 L417.048,254.657 C413.088,254.537 412.548,254.237 412.548,252.017 L412.548,249.437 L412.548,238.397 C412.548,234.677 412.188,233.417 410.628,231.377 C408.888,229.157 406.428,227.957 403.548,227.957 C399.648,227.957 396.768,229.817 394.188,233.957 C393.168,230.357 389.928,227.957 385.908,227.957 C382.248,227.957 379.608,229.697 377.268,233.477 L377.268,228.857 M433.656,227.957 C426.276,227.957 420.576,234.497 420.576,242.897 C420.576,251.117 426.336,257.717 433.536,257.717 C440.736,257.717 446.496,251.117 446.496,242.837 C446.496,234.617 440.736,227.957 433.656,227.957 M433.656,230.537 C437.856,230.537 440.196,234.917 440.196,242.837 C440.196,250.817 437.856,255.137 433.536,255.137 C429.216,255.137 426.876,250.817 426.876,242.897 C426.876,234.737 429.156,230.537 433.656,230.537 M460.536,228.857 L450.156,229.517 L450.156,232.097 L452.316,232.097 C454.596,232.157 454.896,232.517 454.896,235.097 L454.896,249.437 L454.896,250.877 L454.896,252.257 C454.836,253.157 454.776,253.517 454.536,253.817 C454.116,254.357 452.976,254.597 450.396,254.657 L450.156,254.657 L450.156,256.817 L465.336,256.817 L465.336,254.657 L465.096,254.657 C461.076,254.537 460.536,254.237 460.536,252.077 L460.536,249.437 L460.536,243.197 C460.536,240.257 460.956,237.557 461.616,236.177 C462.876,233.477 465.576,231.617 468.156,231.617 C469.716,231.617 471.516,232.457 472.416,233.717 C473.316,235.037 473.736,236.837 473.736,239.717 L473.736,249.437 L473.736,252.257 C473.676,253.157 473.616,253.517 473.376,253.817 C472.956,254.357 471.756,254.597 469.176,254.657 L468.936,254.657 L468.936,256.817 L484.116,256.817 L484.116,254.657 L483.876,254.657 C479.916,254.537 479.376,254.237 479.376,252.077 L479.376,249.437 L479.376,240.017 C479.376,235.697 479.196,234.617 478.116,232.577 C476.616,229.697 473.616,227.957 470.016,227.957 C466.116,227.957 463.176,229.757 460.536,233.717 L460.536,228.857 M497.552,228.857 L486.272,229.517 L486.272,232.097 L489.332,232.097 C491.612,232.157 491.912,232.517 491.912,235.097 L491.912,249.437 L491.912,252.257 C491.852,253.157 491.792,253.517 491.552,253.817 C491.132,254.357 489.992,254.597 487.412,254.657 L486.992,254.657 L486.992,256.817 L502.532,256.817 L502.532,254.657 L502.112,254.657 C498.092,254.537 497.552,254.237 497.552,252.077 L497.552,249.437 L497.552,228.857 M494.732,213.917 C492.812,213.917 491.252,215.477 491.252,217.397 C491.252,219.317 492.812,220.877 494.672,220.877 C496.652,220.877 498.212,219.317 498.212,217.397 C498.212,215.477 496.652,213.917 494.732,213.917 M527.303,247.997 C525.383,252.317 523.343,254.057 520.223,254.057 C515.423,254.057 512.423,249.677 512.423,242.657 C512.423,235.337 515.363,230.537 519.803,230.537 C521.603,230.537 523.163,231.377 523.163,232.337 C523.163,232.517 523.103,232.697 522.803,233.057 C521.843,234.197 521.603,234.797 521.603,235.817 C521.603,237.797 523.103,239.177 525.203,239.177 C527.363,239.177 528.863,237.497 528.863,235.097 C528.863,231.017 524.843,227.957 519.503,227.957 C511.703,227.957 506.123,234.317 506.123,243.317 C506.123,251.837 511.223,257.717 518.663,257.717 C524.003,257.717 527.063,255.257 529.643,248.897 L527.303,247.997 M559.44,228.857 L548.76,229.517 L548.76,232.097 L551.22,232.097 C553.5,232.157 553.8,232.517 553.8,235.097 L553.8,249.437 L553.8,251.777 L553.8,252.257 C553.74,253.157 553.68,253.517 553.44,253.817 C553.02,254.357 551.88,254.597 549.3,254.657 L549.06,254.657 L549.06,256.817 L564.18,256.817 L564.18,254.657 L563.94,254.657 C559.98,254.537 559.44,254.237 559.44,252.017 L559.44,249.437 L559.44,240.917 C559.44,235.577 562.38,231.617 566.28,231.617 C569.7,231.617 571.44,234.077 571.44,238.937 L571.44,249.437 L571.44,252.317 C571.38,253.097 571.32,253.517 571.02,253.817 C570.66,254.357 569.46,254.597 566.88,254.657 L566.64,254.657 L566.64,256.817 L581.82,256.817 L581.82,254.657 L581.58,254.657 C577.62,254.537 577.08,254.237 577.08,252.077 L577.08,249.437 L577.08,241.457 C577.08,235.457 579.78,231.617 583.98,231.617 C587.4,231.617 589.08,234.197 589.08,239.597 L589.08,249.437 L589.08,252.257 C589.02,253.097 588.96,253.517 588.66,253.817 C588.3,254.357 587.1,254.597 584.52,254.657 L584.28,254.657 L584.28,256.817 L599.46,256.817 L599.46,254.657 L599.22,254.657 C595.26,254.537 594.72,254.237 594.72,252.017 L594.72,249.437 L594.72,238.397 C594.72,234.677 594.36,233.417 592.8,231.377 C591.06,229.157 588.6,227.957 585.72,227.957 C581.82,227.957 578.94,229.817 576.36,233.957 C575.34,230.357 572.1,227.957 568.08,227.957 C564.42,227.957 561.78,229.697 559.44,233.477 L559.44,228.857 M613.068,228.857 L601.788,229.517 L601.788,232.097 L604.848,232.097 C607.128,232.157 607.428,232.517 607.428,235.097 L607.428,249.437 L607.428,252.257 C607.368,253.157 607.308,253.517 607.068,253.817 C606.648,254.357 605.508,254.597 602.928,254.657 L602.508,254.657 L602.508,256.817 L618.048,256.817 L618.048,254.657 L617.628,254.657 C613.608,254.537 613.068,254.237 613.068,252.077 L613.068,249.437 L613.068,228.857 M610.248,213.917 C608.328,213.917 606.768,215.477 606.768,217.397 C606.768,219.317 608.328,220.877 610.188,220.877 C612.168,220.877 613.728,219.317 613.728,217.397 C613.728,215.477 612.168,213.917 610.248,213.917 M631.598,228.857 L621.218,229.517 L621.218,232.097 L623.378,232.097 C625.658,232.157 625.958,232.517 625.958,235.097 L625.958,249.437 L625.958,250.877 L625.958,252.257 C625.898,253.157 625.838,253.517 625.598,253.817 C625.178,254.357 624.038,254.597 621.458,254.657 L621.218,254.657 L621.218,256.817 L636.398,256.817 L636.398,254.657 L636.158,254.657 C632.138,254.537 631.598,254.237 631.598,252.077 L631.598,249.437 L631.598,243.197 C631.598,240.257 632.018,237.557 632.678,236.177 C633.938,233.477 636.638,231.617 639.218,231.617 C640.778,231.617 642.578,232.457 643.478,233.717 C644.378,235.037 644.798,236.837 644.798,239.717 L644.798,249.437 L644.798,252.257 C644.738,253.157 644.678,253.517 644.438,253.817 C644.018,254.357 642.818,254.597 640.238,254.657 L639.998,254.657 L639.998,256.817 L655.178,256.817 L655.178,254.657 L654.938,254.657 C650.978,254.537 650.438,254.237 650.438,252.077 L650.438,249.437 L650.438,240.017 C650.438,235.697 650.258,234.617 649.178,232.577 C647.678,229.697 644.678,227.957 641.078,227.957 C637.178,227.957 634.238,229.757 631.598,233.717 L631.598,228.857 M671.375,227.957 C663.995,227.957 658.295,234.497 658.295,242.897 C658.295,251.117 664.055,257.717 671.255,257.717 C678.455,257.717 684.215,251.117 684.215,242.837 C684.215,234.617 678.455,227.957 671.375,227.957 M671.375,230.537 C675.575,230.537 677.915,234.917 677.915,242.837 C677.915,250.817 675.575,255.137 671.255,255.137 C666.935,255.137 664.595,250.817 664.595,242.897 C664.595,234.737 666.875,230.537 671.375,230.537 M698.135,228.857 L687.515,229.517 L687.515,232.097 L689.975,232.097 C692.255,232.157 692.555,232.517 692.555,235.097 L692.555,249.437 L692.555,252.257 C692.495,253.157 692.435,253.517 692.195,253.817 C691.775,254.357 690.575,254.597 687.995,254.657 L687.755,254.657 L687.755,256.817 L703.775,256.817 L703.775,254.657 L702.695,254.657 C698.675,254.537 698.135,254.237 698.135,252.077 L698.135,249.437 L698.135,248.837 C698.195,238.757 701.795,231.077 706.475,230.837 C705.635,231.797 705.395,232.397 705.395,233.537 C705.395,235.457 706.775,236.837 708.695,236.837 C710.915,236.837 712.355,235.217 712.355,232.817 C712.355,229.877 710.315,227.957 707.135,227.957 C703.355,227.957 700.115,230.957 698.135,236.297 L698.135,228.857 "/>
<polyline class="BarLine" fill="none" stroke="#000000" stroke-width="4.50" stroke-linejoin="bevel" points="249.349,906.459 249.349,1009.22"/>
<polyline class="BarLine" fill="none" stroke="#000000" stroke-width="4.50" stroke-linejoin="bevel" points="1006.37,906.459 1006.37,1009.22"/>
<polyline class="BarLine" fill="none" stroke="#000000" stroke-width="4.50" stroke-linejoin="bevel" points="1619.19,906.459 1619.19,1009.22"/>
<polyline class="BarLine" fill="none" stroke="#000000" stroke-width="4.50" stroke-linejoin="bevel" points="2253.37,906.459 2253.37,1009.22"/>
<polyline class="BarLine" fill="none" stroke="#000000" stroke-width="4.50" stroke-linejoin="bevel" points="2734.88,906.459 2734.88,1009.22"/>
<polyline class="BarLine" fill="none" stroke="#000000" stroke-width="13.75" stroke-linejoin="bevel" points="2757.75,906.459 2757.75,1009.22"/>
<polyline class="BarLine" fill="none" stroke="#000000" stroke-width="4.50" stroke-linejoin="bevel" points="249.349,643.942 249.349,907.834"/>
<polyline class="BarLine" fill="none" stroke="#000000" stroke-width="4.50" stroke-linejoin="bevel" points="1006.37,643.942 1006.37,907.834"/>
<polyline class="BarLine" fill="none" stroke="#000000" stroke-width="4.50" stroke-linejoin="bevel" points="1619.19,643.942 1619.19,907.834"/>
<polyline class="BarLine" fill="none" stroke="#000000" stroke-width="4.50" stroke-linejoin="bevel" points="2253.37,643.942 2253.37,907.834"/>
<polyline class="BarLine" fill="none" stroke="#000000" stroke-width="4.50" stroke-linejoin="bevel" points="2734.88,643.942 2734.88,907.834"/>
<polyline class="BarLine" fill="none" stroke="#000000" stroke-width="13.75" stroke-linejoin="bevel" points="2757.75,643.942 2757.75,907.834"/>
<path class="Accidental" d="M723.114,899.934 C722.514,896.034 720.114,892.334 715.014,892.334 C710.014,892.334 707.114,895.434 706.614,896.034 L707.014,863.934 C707.014,863.134 706.414,862.534 705.614,862.534 L704.414,862.534 C703.614,862.534 703.014,863.134 703.014,863.934 L703.514,924.034 C703.514,924.834 704.114,925.434 704.914,925.434 C705.114,925.434 705.514,925.334 705.714,925.234 C706.114,925.034 712.614,921.834 718.014,915.734 C721.814,911.434 723.314,906.534 723.314,902.434 C723.314,901.534 723.214,900.734 723.114,899.934 M716.214,903.834 C716.214,905.334 715.814,909.934 713.314,913.734 C711.614,916.334 708.214,919.034 706.314,920.534 L706.614,901.034 C706.814,900.134 708.314,897.234 712.314,897.234 C715.914,897.234 716.214,900.634 716.214,902.734 L716.214,903.834 "/>
<path class="Accidental" d="M860.394,887.433 C859.794,883.533 857.394,879.833 852.294,879.833 C847.294,879.833 844.394,882.933 843.894,883.533 L844.294,851.433 C844.294,850.633 843.694,850.033 842.894,850.033 L841.694,850.033 C840.894,850.033 840.294,850.633 840.294,851.433 L840.794,911.533 C840.794,912.333 841.394,912.933 842.194,912.933 C842.394,912.933 842.794,912.833 842.994,912.733 C843.394,912.533 849.894,909.333 855.294,903.233 C859.094,898.933 860.594,894.033 860.594,889.933 C860.594,889.033 860.494,888.233 860.394,887.433 M853.494,891.333 C853.494,892.833 853.094,897.433 850.594,901.233 C848.894,903.833 845.494,906.533 843.594,908.033 L843.894,888.533 C844.094,887.633 845.594,884.733 849.594,884.733 C853.194,884.733 853.494,888.133 853.494,890.233 L853.494,891.333 "/>
<path class="Accidental" d="M1176.44,862.431 C1175.84,858.531 1173.44,854.831 1168.34,854.831 C1163.34,854.831 1160.44,857.931 1159.94,858.531 L1160.34,826.431 C1160.34,825.631 1159.74,825.031 1158.94,825.031 L1157.74,825.031 C1156.94,825.031 1156.34,825.631 1156.34,826.431 L1156.84,886.531 C1156.84,887.331 1157.44,887.931 1158.24,887.931 C1158.44,887.931 1158.84,887.831 1159.04,887.731 C1159.44,887.531 1165.94,884.331 1171.34,878.231 C1175.14,873.931 1176.64,869.031 1176.64,864.931 C1176.64,864.031 1176.54,863.231 1176.44,862.431 M1169.54,866.331 C1169.54,867.831 1169.14,872.431 1166.64,876.231 C1164.94,878.831 1161.54,881.531 1159.64,883.031 L1159.94,863.531 C1160.14,862.631 1161.64,859.731 1165.64,859.731 C1169.24,859.731 1169.54,863.131 1169.54,865.231 L1169.54,866.331 "/>
<path class="Accidental" d="M1794.6,862.431 C1794,858.531 1791.6,854.831 1786.5,854.831 C1781.5,854.831 1778.6,857.931 1778.1,858.531 L1778.5,826.431 C1778.5,825.631 1777.9,825.031 1777.1,825.031 L1775.9,825.031 C1775.1,825.031 1774.5,825.631 1774.5,826.431 L1775,886.531 C1775,887.331 1775.6,887.931 1776.4,887.931 C1776.6,887.931 1777,887.831 1777.2,887.731 C1777.6,887.531 1784.1,884.331 1789.5,878.231 C1793.3,873.931 1794.8,869.031 1794.8,864.931 C1794.8,864.031 1794.7,863.231 1794.6,862.431 M1787.7,866.331 C1787.7,867.831 1787.3,872.431 1784.8,876.231 C1783.1,878.831 1779.7,881.531 1777.8,883.031 L1778.1,863.531 C1778.3,862.631 1779.8,859.731 1783.8,859.731 C1787.4,859.731 1787.7,863.131 1787.7,865.231 L1787.7,866.331 "/>
<path class="Accidental" d="M2097.56,887.433 C2096.96,883.533 2094.56,879.833 2089.46,879.833 C2084.46,879.833 2081.56,882.933 2081.06,883.533 L2081.46,851.433 C2081.46,850.633 2080.86,850.033 2080.06,850.033 L2078.86,850.033 C2078.06,850.033 2077.46,850.633 2077.46,851.433 L2077.96,911.533 C2077.96,912.333 2078.56,912.933 2079.36,912.933 C2079.56,912.933 2079.96,912.833 2080.16,912.733 C2080.56,912.533 2087.06,909.333 2092.46,903.233 C2096.26,898.933 2097.76,894.033 2097.76,889.933 C2097.76,889.033 2097.66,888.233 2097.56,887.433 M2090.66,891.333 C2090.66,892.833 2090.26,897.433 2087.76,901.233 C2086.06,903.833 2082.66,906.533 2080.76,908.033 L2081.06,888.533 C2081.26,887.633 2082.76,884.733 2086.76,884.733 C2090.36,884.733 2090.66,888.133 2090.66,890.233 L2090.66,891.333 "/>
<path class="Accidental" d="M2297.47,899.934 C2296.87,896.034 2294.47,892.334 2289.37,892.334 C2284.37,892.334 2281.47,895.434 2280.97,896.034 L2281.37,863.934 C2281.37,863.134 2280.77,862.534 2279.97,862.534 L2278.77,862.534 C2277.97,862.534 2277.37,863.134 2277.37,863.934 L2277.87,924.034 C2277.87,924.834 2278.47,925.434 2279.27,925.434 C2279.47,925.434 2279.87,925.334 2280.07,925.234 C2280.47,925.034 2286.97,921.834 2292.37,915.734 C2296.17,911.434 2297.67,906.534 2297.67,902.434 C2297.67,901.534 2297.57,900.734 2297.47,899.934 M2290.57,903.834 C2290.57,905.334 2290.17,909.934 2287.67,913.734 C2285.97,916.334 2282.57,919.034 2280.67,920.534 L2280.97,901.034 C2281.17,900.134 2282.67,897.234 2286.67,897.234 C2290.27,897.234 2290.57,900.634 2290.57,902.734 L2290.57,903.834 "/>
<path class="Accidental" d="M723.114,699.921 C722.514,696.021 720.114,692.321 715.014,692.321 C710.014,692.321 707.114,695.421 706.614,696.021 L707.014,663.921 C707.014,663.121 706.414,662.521 705.614,662.521 L704.414,662.521 C703.614,662.521 703.014,663.121 703.014,663.921 L703.514,724.021 C703.514,724.821 704.114,725.421 704.914,725.421 C705.114,725.421 705.514,725.321 705.714,725.221 C706.114,725.021 712.614,721.821 718.014,715.721 C721.814,711.421 723.314,706.521 723.314,702.421 C723.314,701.521 723.214,700.721 723.114,699.921 M716.214,703.821 C716.214,705.321 715.814,709.921 713.314,713.721 C711.614,716.321 708.214,719.021 706.314,720.521 L706.614,701.021 C706.814,700.121 708.314,697.221 712.314,697.221 C715.914,697.221 716.214,700.621 716.214,702.721 L716.214,703.821 "/>
<path class="Accidental" d="M860.394,687.42 C859.794,683.52 857.394,679.82 852.294,679.82 C847.294,679.82 844.394,682.92 843.894,683.52 L844.294,651.42 C844.294,650.62 843.694,650.02 842.894,650.02 L841.694,650.02 C840.894,650.02 840.294,650.62 840.294,651.42 L840.794,711.52 C840.794,712.32 841.394,712.92 842.194,712.92 C842.394,712.92 842.794,712.82 842.994,712.72 C843.394,712.52 849.894,709.32 855.294,703.22 C859.094,698.92 860.594,694.02 860.594,689.92 C860.594,689.02 860.494,688.22 860.394,687.42 M853.494,691.32 C853.494,692.82 853.094,697.42 850.594,701.22 C848.894,703.82 845.494,706.52 843.594,708.02 L843.894,688.52 C844.094,687.62 845.594,684.72 849.594,684.72 C853.194,684.72 853.494,688.12 853.494,690.22 L853.494,691.32 "/>
<path class="Accidental" d="M1185.19,662.419 C1184.59,658.519 1182.19,654.819 1177.09,654.819 C1172.09,654.819 1169.19,657.919 1168.69,658.519 L1169.09,626.419 C1169.09,625.619 1168.49,625.019 1167.69,625.019 L1166.49,625.019 C1165.69,625.019 1165.09,625.619 1165.09,626.419 L1165.59,686.519 C1165.59,687.319 1166.19,687.919 1166.99,687.919 C1167.19,687.919 1167.59,687.819 1167.79,687.719 C1168.19,687.519 1174.69,684.319 1180.09,678.219 C1183.89,673.919 1185.39,669.019 1185.39,664.919 C1185.39,664.019 1185.29,663.219 1185.19,662.419 M1178.29,666.319 C1178.29,667.819 1177.89,672.419 1175.39,676.219 C1173.69,678.819 1170.29,681.519 1168.39,683.019 L1168.69,663.519 C1168.89,662.619 1170.39,659.719 1174.39,659.719 C1177.99,659.719 1178.29,663.119 1178.29,665.219 L1178.29,666.319 "/>
<path class="Accidental" d="M1803.35,662.419 C1802.75,658.519 1800.35,654.819 1795.25,654.819 C1790.25,654.819 1787.35,657.919 1786.85,658.519 L1787.25,626.419 C1787.25,625.619 1786.65,625.019 1785.85,625.019 L1784.65,625.019 C1783.85,625.019 1783.25,625.619 1783.25,626.419 L1783.75,686.519 C1783.75,687.319 1784.35,687.919 1785.15,687.919 C1785.35,687.919 1785.75,687.819 1785.95,687.719 C1786.35,687.519 1792.85,684.319 1798.25,678.219 C1802.05,673.919 1803.55,669.019 1803.55,664.919 C1803.55,664.019 1803.45,663.219 1803.35,662.419 M1796.45,666.319 C1796.45,667.819 1796.05,672.419 1793.55,676.219 C1791.85,678.819 1788.45,681.519 1786.55,683.019 L1786.85,663.519 C1787.05,662.619 1788.55,659.719 1792.55,659.719 C1796.15,659.719 1796.45,663.119 1796.45,665.219 L1796.45,666.319 "/>
<path class="Accidental" d="M2097.56,687.42 C2096.96,683.52 2094.56,679.82 2089.46,679.82 C2084.46,679.82 2081.56,682.92 2081.06,683.52 L2081.46,651.42 C2081.46,650.62 2080.86,650.02 2080.06,650.02 L2078.86,650.02 C2078.06,650.02 2077.46,650.62 2077.46,651.42 L2077.96,711.52 C2077.96,712.32 2078.56,712.92 2079.36,712.92 C2079.56,712.92 2079.96,712.82 2080.16,712.72 C2080.56,712.52 2087.06,709.32 2092.46,703.22 C2096.26,698.92 2097.76,694.02 2097.76,689.92 C2097.76,689.02 2097.66,688.22 2097.56,687.42 M2090.66,691.32 C2090.66,692.82 2090.26,697.42 2087.76,701.22 C2086.06,703.82 2082.66,706.52 2080.76,708.02 L2081.06,688.52 C2081.26,687.62 2082.76,684.72 2086.76,684.72 C2090.36,684.72 2090.66,688.12 2090.66,690.22 L2090.66,691.32 "/>
<path class="Accidental" d="M2297.47,699.921 C2296.87,696.021 2294.47,692.321 2289.37,692.321 C2284.37,692.321 2281.47,695.421 2280.97,696.021 L2281.37,663.921 C2281.37,663.121 2280.77,662.521 2279.97,662.521 L2278.77,662.521 C2277.97,662.521 2277.37,663.121 2277.37,663.921 L2277.87,724.021 C2277.87,724.821 2278.47,725.421 2279.27,725.421 C2279.47,725.421 2279.87,725.321 2280.07,725.221 C2280.47,725.021 2286.97,721.821 2292.37,715.721 C2296.17,711.421 2297.67,706.521 2297.67,702.421 C2297.67,701.521 2297.57,700.721 2297.47,699.921 M2290.57,703.821 C2290.57,705.321 2290.17,709.921 2287.67,713.721 C2285.97,716.321 2282.57,719.021 2280.67,720.521 L2280.97,701.021 C2281.17,700.121 2282.67,697.221 2286.67,697.221 C2290.27,697.221 2290.57,700.621 2290.57,702.721 L2290.57,703.821 "/>
<polyline class="LedgerLine" fill="none" stroke="#000000" stroke-width="4.00" stroke-linejoin="bevel" points="1041.13,882.832 1091.12,882.832"/>
<polyline class="LedgerLine" fill="none" stroke="#000000" stroke-width="4.00" stroke-linejoin="bevel" points="1182.89,882.832 1232.89,882.832"/>
<polyline class="LedgerLine" fill="none" stroke="#000000" stroke-width="4.00" stroke-linejoin="bevel" points="1324.66,882.832 1374.65,882.832"/>
<polyline class="LedgerLine" fill="none" stroke="#000000" stroke-width="4.00" stroke-linejoin="bevel" points="1324.66,857.831 1374.65,857.831"/>
<polyline class="LedgerLine" fill="none" stroke="#000000" stroke-width="4.00" stroke-linejoin="bevel" points="1466.42,882.832 1516.42,882.832"/>
<polyline class="LedgerLine" fill="none" stroke="#000000" stroke-width="4.00" stroke-linejoin="bevel" points="1466.42,857.831 1516.42,857.831"/>
<polyline class="LedgerLine" fill="none" stroke="#000000" stroke-width="4.00" stroke-linejoin="bevel" points="1653.94,882.832 1703.94,882.832"/>
<polyline class="LedgerLine" fill="none" stroke="#000000" stroke-width="4.00" stroke-linejoin="bevel" points="1653.94,857.831 1703.94,857.831"/>
<polyline class="LedgerLine" fill="none" stroke="#000000" stroke-width="4.00" stroke-linejoin="bevel" points="1801.05,882.832 1851.05,882.832"/>
<polyline class="LedgerLine" fill="none" stroke="#000000" stroke-width="4.00" stroke-linejoin="bevel" points="1948.16,882.832 1998.15,882.832"/>
<polyline class="Stem" fill="none" stroke="#000000" stroke-width="2.75" stroke-linejoin="bevel" points="456.377,936.356 456.377,1017.22"/>
<polyline class="Stem" fill="none" stroke="#000000" stroke-width="2.75" stroke-linejoin="bevel" points="593.658,923.855 593.658,1007.84"/>
<polyline class="Stem" fill="none" stroke="#000000" stroke-width="2.75" stroke-linejoin="bevel" points="730.938,911.354 730.938,995.339"/>
<polyline class="Stem" fill="none" stroke="#000000" stroke-width="2.75" stroke-linejoin="bevel" points="868.218,898.853 868.218,982.839"/>
<polyline class="Stem" fill="none" stroke="#000000" stroke-width="2.75" stroke-linejoin="bevel" points="1051.25,886.352 1051.25,970.338"/>
<polyline class="Stem" fill="none" stroke="#000000" stroke-width="2.75" stroke-linejoin="bevel" points="1193.02,873.852 1193.02,957.837"/>
<polyline class="Stem" fill="none" stroke="#000000" stroke-width="2.75" stroke-linejoin="bevel" points="1334.78,861.351 1334.78,957.837"/>
<polyline class="Stem" fill="none" stroke="#000000" stroke-width="2.75" stroke-linejoin="bevel" points="1476.55,848.85 1476.55,957.837"/>
<polyline class="Stem" fill="none" stroke="#000000" stroke-width="2.75" stroke-linejoin="bevel" points="1664.07,861.351 1664.07,957.837"/>
<polyline class="Stem" fill="none" stroke="#000000" stroke-width="2.75" stroke-linejoin="bevel" points="1811.18,873.852 1811.18,957.837"/>
<polyline class="Stem" fill="none" stroke="#000000" stroke-width="2.75" stroke-linejoin="bevel" points="1958.28,886.352 1958.28,970.338"/>
<polyline class="Stem" fill="none" stroke="#000000" stroke-width="2.75" stroke-linejoin="bevel" points="2105.39,898.853 2105.39,982.839"/>
<polyline class="Stem" fill="none" stroke="#000000" stroke-width="2.75" stroke-linejoin="bevel" points="2305.29,911.354 2305.29,995.339"/>
<polyline class="Stem" fill="none" stroke="#000000" stroke-width="2.75" stroke-linejoin="bevel" points="2424.38,923.855 2424.38,1007.84"/>
<polyline class="Stem" fill="none" stroke="#000000" stroke-width="2.75" stroke-linejoin="bevel" points="2543.47,936.276 2543.47,1017.22"/>
<polyline class="Stem" fill="none" stroke="#000000" stroke-width="2.75" stroke-linejoin="bevel" points="486.121,729.463 486.121,645.317"/>
<polyline class="Stem" fill="none" stroke="#000000" stroke-width="2.75" stroke-linejoin="bevel" points="623.402,716.962 623.402,635.942"/>
<polyline class="Stem" fill="none" stroke="#000000" stroke-width="2.75" stroke-linejoin="bevel" points="760.682,704.461 760.682,626.566"/>
<polyline class="Stem" fill="none" stroke="#000000" stroke-width="2.75" stroke-linejoin="bevel" points="868.218,698.841 868.218,773.45"/>
<polyline class="Stem" fill="none" stroke="#000000" stroke-width="2.75" stroke-linejoin="bevel" points="1051.25,686.34 1051.25,764.075"/>
<polyline class="Stem" fill="none" stroke="#000000" stroke-width="2.75" stroke-linejoin="bevel" points="1193.02,673.839 1193.02,754.699"/>
<polyline class="Stem" fill="none" stroke="#000000" stroke-width="2.75" stroke-linejoin="bevel" points="1334.78,661.338 1334.78,745.324"/>
<polyline class="Stem" fill="none" stroke="#000000" stroke-width="2.75" stroke-linejoin="bevel" points="1476.55,648.837 1476.55,732.823"/>
<polyline class="Stem" fill="none" stroke="#000000" stroke-width="2.75" stroke-linejoin="bevel" points="1664.07,661.338 1664.07,745.324"/>
<polyline class="Stem" fill="none" stroke="#000000" stroke-width="2.75" stroke-linejoin="bevel" points="1811.18,673.839 1811.18,754.699"/>
<polyline class="Stem" fill="none" stroke="#000000" stroke-width="2.75" stroke-linejoin="bevel" points="1958.28,686.34 1958.28,764.075"/>
<polyline class="Stem" fill="none" stroke="#000000" stroke-width="2.75" stroke-linejoin="bevel" points="2105.39,698.841 2105.39,773.45"/>
<polyline class="Stem" fill="none" stroke="#000000" stroke-width="2.75" stroke-linejoin="bevel" points="2335.04,704.461 2335.04,626.566"/>
<polyline class="Stem" fill="none" stroke="#000000" stroke-width="2.75" stroke-linejoin="bevel" points="2454.12,716.962 2454.12,635.942"/>
<polyline class="Stem" fill="none" stroke="#000000" stroke-width="2.75" stroke-linejoin="bevel" points="2573.21,729.383 2573.21,645.317"/>
<path class="Note" d="M486.502,924.635 C485.002,921.935 482.102,920.235 478.202,919.835 C477.602,919.735 477.102,919.735 476.502,919.735 C473.002,919.735 469.202,920.735 465.702,922.635 C459.102,926.235 455.002,932.135 455.002,937.235 C455.002,938.635 455.202,939.935 455.902,941.135 C457.402,943.835 460.402,945.535 464.302,945.935 C464.902,946.035 465.402,946.035 466.002,946.035 C469.502,946.035 473.202,945.035 476.702,943.135 C483.302,939.535 487.502,933.735 487.502,928.635 C487.502,927.235 487.202,925.835 486.502,924.635"/>
<path class="Note" d="M623.782,912.135 C622.282,909.435 619.382,907.735 615.482,907.335 C614.882,907.235 614.382,907.235 613.782,907.235 C610.282,907.235 606.482,908.235 602.982,910.135 C596.382,913.735 592.282,919.635 592.282,924.735 C592.282,926.135 592.482,927.435 593.182,928.635 C594.682,931.335 597.682,933.035 601.582,933.435 C602.182,933.535 602.682,933.535 603.282,933.535 C606.782,933.535 610.482,932.535 613.982,930.635 C620.582,927.035 624.782,921.235 624.782,916.135 C624.782,914.735 624.482,913.335 623.782,912.135"/>
<path class="Note" d="M761.063,899.634 C759.563,896.934 756.663,895.234 752.763,894.834 C752.163,894.734 751.663,894.734 751.063,894.734 C747.563,894.734 743.763,895.734 740.263,897.634 C733.663,901.234 729.563,907.134 729.563,912.234 C729.563,913.634 729.763,914.934 730.463,916.134 C731.963,918.834 734.963,920.534 738.863,920.934 C739.463,921.034 739.963,921.034 740.563,921.034 C744.063,921.034 747.763,920.034 751.263,918.134 C757.863,914.534 762.063,908.734 762.063,903.634 C762.063,902.234 761.763,900.834 761.063,899.634"/>
<path class="Note" d="M898.343,887.133 C896.843,884.433 893.943,882.733 890.043,882.333 C889.443,882.233 888.943,882.233 888.343,882.233 C884.843,882.233 881.043,883.233 877.543,885.133 C870.943,888.733 866.843,894.633 866.843,899.733 C866.843,901.133 867.043,902.433 867.743,903.633 C869.243,906.333 872.243,908.033 876.143,908.433 C876.743,908.533 877.243,908.533 877.843,908.533 C881.343,908.533 885.043,907.533 888.543,905.633 C895.143,902.033 899.343,896.233 899.343,891.133 C899.343,889.733 899.043,888.333 898.343,887.133"/>
<path class="Note" d="M1081.38,874.632 C1079.88,871.932 1076.98,870.232 1073.08,869.832 C1072.48,869.732 1071.98,869.732 1071.38,869.732 C1067.88,869.732 1064.08,870.732 1060.58,872.632 C1053.98,876.232 1049.88,882.132 1049.88,887.232 C1049.88,888.632 1050.08,889.932 1050.78,891.132 C1052.28,893.832 1055.28,895.532 1059.18,895.932 C1059.78,896.032 1060.28,896.032 1060.88,896.032 C1064.38,896.032 1068.08,895.032 1071.58,893.132 C1078.18,889.532 1082.38,883.732 1082.38,878.632 C1082.38,877.232 1082.08,875.832 1081.38,874.632"/>
<path class="Note" d="M1223.14,862.131 C1221.64,859.431 1218.74,857.731 1214.84,857.331 C1214.24,857.231 1213.74,857.231 1213.14,857.231 C1209.64,857.231 1205.84,858.231 1202.34,860.131 C1195.74,863.731 1191.64,869.631 1191.64,874.731 C1191.64,876.131 1191.84,877.431 1192.54,878.631 C1194.04,881.331 1197.04,883.031 1200.94,883.431 C1201.54,883.531 1202.04,883.531 1202.64,883.531 C1206.14,883.531 1209.84,882.531 1213.34,880.631 C1219.94,877.031 1224.14,871.231 1224.14,866.131 C1224.14,864.731 1223.84,863.331 1223.14,862.131"/>
<path class="Note" d="M1364.91,849.631 C1363.41,846.931 1360.51,845.231 1356.61,844.831 C1356.01,844.731 1355.51,844.731 1354.91,844.731 C1351.41,844.731 1347.61,845.731 1344.11,847.631 C1337.51,851.231 1333.41,857.131 1333.41,862.231 C1333.41,863.631 1333.61,864.931 1334.31,866.131 C1335.81,868.831 1338.81,870.531 1342.71,870.931 C1343.31,871.031 1343.81,871.031 1344.41,871.031 C1347.91,871.031 1351.61,870.031 1355.11,868.131 C1361.71,864.531 1365.91,858.731 1365.91,853.631 C1365.91,852.231 1365.61,850.831 1364.91,849.631"/>
<path class="Note" d="M1506.68,837.13 C1505.18,834.43 1502.28,832.73 1498.38,832.33 C1497.78,832.23 1497.28,832.23 1496.68,832.23 C1493.18,832.23 1489.38,833.23 1485.88,835.13 C1479.28,838.73 1475.18,844.63 1475.18,849.73 C1475.18,851.13 1475.38,852.43 1476.08,853.63 C1477.58,856.33 1480.58,858.03 1484.48,858.43 C1485.08,858.53 1485.58,858.53 1486.18,858.53 C1489.68,858.53 1493.38,857.53 1496.88,855.63 C1503.48,852.03 1507.68,846.23 1507.68,841.13 C1507.68,839.73 1507.38,838.33 1506.68,837.13"/>
<path class="Note" d="M1694.19,849.631 C1692.69,846.931 1689.79,845.231 1685.89,844.831 C1685.29,844.731 1684.79,844.731 1684.19,844.731 C1680.69,844.731 1676.89,845.731 1673.39,847.631 C1666.79,851.231 1662.69,857.131 1662.69,862.231 C1662.69,863.631 1662.89,864.931 1663.59,866.131 C1665.09,868.831 1668.09,870.531 1671.99,870.931 C1672.59,871.031 1673.09,871.031 1673.69,871.031 C1677.19,871.031 1680.89,870.031 1684.39,868.131 C1690.99,864.531 1695.19,858.731 1695.19,853.631 C1695.19,852.231 1694.89,850.831 1694.19,849.631"/>
<path class="Note" d="M1841.3,862.131 C1839.8,859.431 1836.9,857.731 1833,857.331 C1832.4,857.231 1831.9,857.231 1831.3,857.231 C1827.8,857.231 1824,858.231 1820.5,860.131 C1813.9,863.731 1809.8,869.631 1809.8,874.731 C1809.8,876.131 1810,877.431 1810.7,878.631 C1812.2,881.331 1815.2,883.031 1819.1,883.431 C1819.7,883.531 1820.2,883.531 1820.8,883.531 C1824.3,883.531 1828,882.531 1831.5,880.631 C1838.1,877.031 1842.3,871.231 1842.3,866.131 C1842.3,864.731 1842,863.331 1841.3,862.131"/>
<path class="Note" d="M1988.41,874.632 C1986.91,871.932 1984.01,870.232 1980.11,869.832 C1979.51,869.732 1979.01,869.732 1978.41,869.732 C1974.91,869.732 1971.11,870.732 1967.61,872.632 C1961.01,876.232 1956.91,882.132 1956.91,887.232 C1956.91,888.632 1957.11,889.932 1957.81,891.132 C1959.31,893.832 1962.31,895.532 1966.21,895.932 C1966.81,896.032 1967.31,896.032 1967.91,896.032 C1971.41,896.032 1975.11,895.032 1978.61,893.132 C1985.21,889.532 1989.41,883.732 1989.41,878.632 C1989.41,877.232 1989.11,875.832 1988.41,874.632"/>
<path class="Note" d="M2135.51,887.133 C2134.01,884.433 2131.11,882.733 2127.21,882.333 C2126.61,882.233 2126.11,882.233 2125.51,882.233 C2122.01,882.233 2118.21,883.233 2114.71,885.133 C2108.11,888.733 2104.01,894.633 2104.01,899.733 C2104.01,901.133 2104.21,902.433 2104.91,903.633 C2106.41,906.333 2109.41,908.033 2113.31,908.433 C2113.91,908.533 2114.41,908.533 2115.01,908.533 C2118.51,908.533 2122.21,907.533 2125.71,905.633 C2132.31,902.033 2136.51,896.233 2136.51,891.133 C2136.51,889.733 2136.21,888.333 2135.51,887.133"/>
<path class="Note" d="M2335.42,899.634 C2333.92,896.934 2331.02,895.234 2327.12,894.834 C2326.52,894.734 2326.02,894.734 2325.42,894.734 C2321.92,894.734 2318.12,895.734 2314.62,897.634 C2308.02,901.234 2303.92,907.134 2303.92,912.234 C2303.92,913.634 2304.12,914.934 2304.82,916.134 C2306.32,918.834 2309.32,920.534 2313.22,920.934 C2313.82,921.034 2314.32,921.034 2314.92,921.034 C2318.42,921.034 2322.12,920.034 2325.62,918.134 C2332.22,914.534 2336.42,908.734 2336.42,903.634 C2336.42,902.234 2336.12,900.834 2335.42,899.634"/>
<path class="Note" d="M2454.5,912.135 C2453,909.435 2450.1,907.735 2446.2,907.335 C2445.6,907.235 2445.1,907.235 2444.5,907.235 C2441,907.235 2437.2,908.235 2433.7,910.135 C2427.1,913.735 2423,919.635 2423,924.735 C2423,926.135 2423.2,927.435 2423.9,928.635 C2425.4,931.335 2428.4,933.035 2432.3,933.435 C2432.9,933.535 2433.4,933.535 2434,933.535 C2437.5,933.535 2441.2,932.535 2444.7,930.635 C2451.3,927.035 2455.5,921.235 2455.5,916.135 C2455.5,914.735 2455.2,913.335 2454.5,912.135"/>
<path class="Note" d="M2573.59,924.635 C2572.09,921.935 2569.19,920.235 2565.29,919.835 C2564.69,919.735 2564.19,919.735 2563.59,919.735 C2560.09,919.735 2556.29,920.735 2552.79,922.635 C2546.19,926.235 2542.09,932.035 2542.09,937.135 C2542.09,938.535 2542.49,939.935 2543.19,941.135 C2544.69,943.935 2547.49,945.535 2551.39,945.935 C2551.99,946.035 2552.49,946.035 2553.09,946.035 C2556.59,946.035 2560.39,945.035 2563.89,943.135 C2570.49,939.535 2574.59,933.635 2574.59,928.535 C2574.59,927.135 2574.29,925.835 2573.59,924.635 M2569.39,930.935 C2567.69,932.735 2564.49,935.035 2560.89,937.135 C2557.29,939.235 2553.59,940.935 2551.29,941.635 C2550.79,941.735 2550.19,941.835 2549.69,941.835 C2548.19,941.835 2546.89,941.135 2546.19,940.035 C2545.89,939.435 2545.69,938.835 2545.69,938.235 C2545.69,937.135 2546.19,936.035 2547.29,934.835 C2548.99,933.035 2552.19,930.635 2555.79,928.535 C2559.39,926.435 2563.09,924.735 2565.49,924.135 L2565.69,924.135 C2566.29,923.935 2566.79,923.835 2567.29,923.835 C2568.69,923.835 2569.79,924.435 2570.49,925.735 C2570.79,926.335 2570.99,926.835 2570.99,927.435 C2570.99,928.735 2570.29,930.035 2569.39,930.935"/>
<path class="Note" d="M486.502,724.623 C485.002,721.923 482.102,720.223 478.202,719.823 C477.602,719.723 477.102,719.723 476.502,719.723 C473.002,719.723 469.202,720.723 465.702,722.623 C459.102,726.223 455.002,732.123 455.002,737.223 C455.002,738.623 455.202,739.923 455.902,741.123 C457.402,743.823 460.402,745.523 464.302,745.923 C464.902,746.023 465.402,746.023 466.002,746.023 C469.502,746.023 473.202,745.023 476.702,743.123 C483.302,739.523 487.502,733.723 487.502,728.623 C487.502,727.223 487.202,725.823 486.502,724.623"/>
<path class="Note" d="M623.782,712.122 C622.282,709.422 619.382,707.722 615.482,707.322 C614.882,707.222 614.382,707.222 613.782,707.222 C610.282,707.222 606.482,708.222 602.982,710.122 C596.382,713.722 592.282,719.622 592.282,724.722 C592.282,726.122 592.482,727.422 593.182,728.622 C594.682,731.322 597.682,733.022 601.582,733.422 C602.182,733.522 602.682,733.522 603.282,733.522 C606.782,733.522 610.482,732.522 613.982,730.622 C620.582,727.022 624.782,721.222 624.782,716.122 C624.782,714.722 624.482,713.322 623.782,712.122"/>
<path class="Note" d="M761.063,699.621 C759.563,696.921 756.663,695.221 752.763,694.821 C752.163,694.721 751.663,694.721 751.063,694.721 C747.563,694.721 743.763,695.721 740.263,697.621 C733.663,701.221 729.563,707.121 729.563,712.221 C729.563,713.621 729.763,714.921 730.463,716.121 C731.963,718.821 734.963,720.521 738.863,720.921 C739.463,721.021 739.963,721.021 740.563,721.021 C744.063,721.021 747.763,720.021 751.263,718.121 C757.863,714.521 762.063,708.721 762.063,703.621 C762.063,702.221 761.763,700.821 761.063,699.621"/>
<path class="Note" d="M898.343,687.12 C896.843,684.42 893.943,682.72 890.043,682.32 C889.443,682.22 888.943,682.22 888.343,682.22 C884.843,682.22 881.043,683.22 877.543,685.12 C870.943,688.72 866.843,694.62 866.843,699.72 C866.843,701.12 867.043,702.42 867.743,703.62 C869.243,706.32 872.243,708.02 876.143,708.42 C876.743,708.52 877.243,708.52 877.843,708.52 C881.343,708.52 885.043,707.52 888.543,705.62 C895.143,702.02 899.343,696.22 899.343,691.12 C899.343,689.72 899.043,688.32 898.343,687.12"/>
<path class="Note" d="M1081.38,674.62 C1079.88,671.92 1076.98,670.22 1073.08,669.82 C1072.48,669.72 1071.98,669.72 1071.38,669.72 C1067.88,669.72 1064.08,670.72 1060.58,672.62 C1053.98,676.22 1049.88,682.12 1049.88,687.22 C1049.88,688.62 1050.08,689.92 1050.78,691.12 C1052.28,693.82 1055.28,695.52 1059.18,695.92 C1059.78,696.02 1060.28,696.02 1060.88,696.02 C1064.38,696.02 1068.08,695.02 1071.58,693.12 C1078.18,689.52 1082.38,683.72 1082.38,678.62 C1082.38,677.22 1082.08,675.82 1081.38,674.62"/>
<path class="Note" d="M1223.14,662.119 C1221.64,659.419 1218.74,657.719 1214.84,657.319 C1214.24,657.219 1213.74,657.219 1213.14,657.219 C1209.64,657.219 1205.84,658.219 1202.34,660.119 C1195.74,663.719 1191.64,669.619 1191.64,674.719 C1191.64,676.119 1191.84,677.419 1192.54,678.619 C1194.04,681.319 1197.04,683.019 1200.94,683.419 C1201.54,683.519 1202.04,683.519 1202.64,683.519 C1206.14,683.519 1209.84,682.519 1213.34,680.619 C1219.94,677.019 1224.14,671.219 1224.14,666.119 C1224.14,664.719 1223.84,663.319 1223.14,662.119"/>
<path class="Note" d="M1364.91,649.618 C1363.41,646.918 1360.51,645.218 1356.61,644.818 C1356.01,644.718 1355.51,644.718 1354.91,644.718 C1351.41,644.718 1347.61,645.718 1344.11,647.618 C1337.51,651.218 1333.41,657.118 1333.41,662.218 C1333.41,663.618 1333.61,664.918 1334.31,666.118 C1335.81,668.818 1338.81,670.518 1342.71,670.918 C1343.31,671.018 1343.81,671.018 1344.41,671.018 C1347.91,671.018 1351.61,670.018 1355.11,668.118 C1361.71,664.518 1365.91,658.718 1365.91,653.618 C1365.91,652.218 1365.61,650.818 1364.91,649.618"/>
<path class="Note" d="M1506.68,637.117 C1505.18,634.417 1502.28,632.717 1498.38,632.317 C1497.78,632.217 1497.28,632.217 1496.68,632.217 C1493.18,632.217 1489.38,633.217 1485.88,635.117 C1479.28,638.717 1475.18,644.617 1475.18,649.717 C1475.18,651.117 1475.38,652.417 1476.08,653.617 C1477.58,656.317 1480.58,658.017 1484.48,658.417 C1485.08,658.517 1485.58,658.517 1486.18,658.517 C1489.68,658.517 1493.38,657.517 1496.88,655.617 C1503.48,652.017 1507.68,646.217 1507.68,641.117 C1507.68,639.717 1507.38,638.317 1506.68,637.117"/>
<path class="Note" d="M1694.19,649.618 C1692.69,646.918 1689.79,645.218 1685.89,644.818 C1685.29,644.718 1684.79,644.718 1684.19,644.718 C1680.69,644.718 1676.89,645.718 1673.39,647.618 C1666.79,651.218 1662.69,657.118 1662.69,662.218 C1662.69,663.618 1662.89,664.918 1663.59,666.118 C1665.09,668.818 1668.09,670.518 1671.99,670.918 C1672.59,671.018 1673.09,671.018 1673.69,671.018 C1677.19,671.018 1680.89,670.018 1684.39,668.118 C1690.99,664.518 1695.19,658.718 1695.19,653.618 C1695.19,652.218 1694.89,650.818 1694.19,649.618"/>
<path class="Note" d="M1841.3,662.119 C1839.8,659.419 1836.9,657.719 1833,657.319 C1832.4,657.219 1831.9,657.219 1831.3,657.219 C1827.8,657.219 1824,658.219 1820.5,660.119 C1813.9,663.719 1809.8,669.619 1809.8,674.719 C1809.8,676.119 1810,677.419 1810.7,678.619 C1812.2,681.319 1815.2,683.019 1819.1,683.419 C1819.7,683.519 1820.2,683.519 1820.8,683.519 C1824.3,683.519 1828,682.519 1831.5,680.619 C1838.1,677.019 1842.3,671.219 1842.3,666.119 C1842.3,664.719 1842,663.319 1841.3,662.119"/>
<path class="Note" d="M1988.41,674.62 C1986.91,671.92 1984.01,670.22 1980.11,669.82 C1979.51,669.72 1979.01,669.72 1978.41,669.72 C1974.91,669.72 1971.11,670.72 1967.61,672.62 C1961.01,676.22 1956.91,682.12 1956.91,687.22 C1956.91,688.62 1957.11,689.92 1957.81,691.12 C1959.31,693.82 1962.31,695.52 1966.21,695.92 C1966.81,696.02 1967.31,696.02 1967.91,696.02 C1971.41,696.02 1975.11,695.02 1978.61,693.12 C1985.21,689.52 1989.41,683.72 1989.41,678.62 C1989.41,677.22 1989.11,675.82 1988.41,674.62"/>
<path class="Note" d="M2135.51,687.12 C2134.01,684.42 2131.11,682.72 2127.21,682.32 C2126.61,682.22 2126.11,682.22 2125.51,682.22 C2122.01,682.22 2118.21,683.22 2114.71,685.12 C2108.11,688.72 2104.01,694.62 2104.01,699.72 C2104.01,701.12 2104.21,702.42 2104.91,703.62 C2106.41,706.32 2109.41,708.02 2113.31,708.42 C2113.91,708.52 2114.41,708.52 2115.01,708.52 C2118.51,708.52 2122.21,707.52 2125.71,705.62 C2132.31,702.02 2136.51,696.22 2136.51,691.12 C2136.51,689.72 2136.21,688.32 2135.51,687.12"/>
<path class="Note" d="M2335.42,699.621 C2333.92,696.921 2331.02,695.221 2327.12,694.821 C2326.52,694.721 2326.02,694.721 2325.42,694.721 C2321.92,694.721 2318.12,695.721 2314.62,697.621 C2308.02,701.221 2303.92,707.121 2303.92,712.221 C2303.92,713.621 2304.12,714.921 2304.82,716.121 C2306.32,718.821 2309.32,720.521 2313.22,720.921 C2313.82,721.021 2314.32,721.021 2314.92,721.021 C2318.42,721.021 2322.12,720.021 2325.62,718.121 C2332.22,714.521 2336.42,708.721 2336.42,703.621 C2336.42,702.221 2336.12,700.821 2335.42,699.621"/>
<path class="Note" d="M2454.5,712.122 C2453,709.422 2450.1,707.722 2446.2,707.322 C2445.6,707.222 2445.1,707.222 2444.5,707.222 C2441,707.222 2437.2,708.222 2433.7,710.122 C2427.1,713.722 2423,719.622 2423,724.722 C2423,726.122 2423.2,727.422 2423.9,728.622 C2425.4,731.322 2428.4,733.022 2432.3,733.422 C2432.9,733.522 2433.4,733.522 2434,733.522 C2437.5,733.522 2441.2,732.522 2444.7,730.622 C2451.3,727.022 2455.5,721.222 2455.5,716.122 C2455.5,714.722 2455.2,713.322 2454.5,712.122"/>
<path class="Note" d="M2573.59,724.623 C2572.09,721.923 2569.19,720.223 2565.29,719.823 C2564.69,719.723 2564.19,719.723 2563.59,719.723 C2560.09,719.723 2556.29,720.723 2552.79,722.623 C2546.19,726.223 2542.09,732.023 2542.09,737.123 C2542.09,738.523 2542.49,739.923 2543.19,741.123 C2544.69,743.923 2547.49,745.523 2551.39,745.923 C2551.99,746.023 2552.49,746.023 2553.09,746.023 C2556.59,746.023 2560.39,745.023 2563.89,743.123 C2570.49,739.523 2574.59,733.623 2574.59,728.523 C2574.59,727.123 2574.29,725.823 2573.59,724.623 M2569.39,730.923 C2567.69,732.723 2564.49,735.023 2560.89,737.123 C2557.29,739.223 2553.59,740.923 2551.29,741.623 C2550.79,741.723 2550.19,741.823 2549.69,741.823 C2548.19,741.823 2546.89,741.123 2546.19,740.023 C2545.89,739.423 2545.69,738.823 2545.69,738.223 C2545.69,737.123 2546.19,736.023 2547.29,734.823 C2548.99,733.023 2552.19,730.623 2555.79,728.523 C2559.39,726.423 2563.09,724.723 2565.49,724.123 L2565.69,724.123 C2566.29,723.923 2566.79,723.823 2567.29,723.823 C2568.69,723.823 2569.79,724.423 2570.49,725.723 C2570.79,726.323 2570.99,726.823 2570.99,727.423 C2570.99,728.723 2570.29,730.023 2569.39,730.923"/>
<path class="Clef" d="M297,907.735 C289.4,907.735 283.3,912.135 283.2,912.135 C277.4,916.435 275.1,921.535 274.2,925.035 C273.7,926.835 273.5,928.635 273.5,930.335 C273.5,932.735 273.9,934.935 274.8,936.835 C276,939.535 278.3,941.435 281.3,942.435 C282.5,942.835 283.8,943.035 285.1,943.035 C287.3,943.035 289.6,942.435 291.5,941.335 C294.6,939.635 296.5,936.035 296.5,932.135 C296.5,928.635 294.7,925.435 291.7,923.535 C289.6,922.135 287.6,921.735 285.9,921.735 C284.7,921.735 283.6,921.935 282.7,922.235 C281.7,922.635 280,923.635 279.2,924.335 C279.5,922.435 280.7,919.535 281.8,917.935 C282.9,916.335 285.1,914.335 286.8,913.435 C289.3,912.035 292.5,911.435 296,911.435 C306.2,911.435 311.2,919.635 311.2,936.435 C311.2,945.735 307.7,954.635 304.7,960.535 C301.4,967.135 297,973.435 293.1,976.935 C282.7,986.435 272.9,990.935 272.8,990.935 C272.8,990.935 271.3,991.835 271.7,993.335 C272,994.335 272.9,994.535 273.5,994.535 C273.6,994.535 273.9,994.435 274,994.435 C274.1,994.435 285.5,989.735 294.6,982.635 C299.7,978.935 304.3,974.935 308.3,970.635 C311.9,966.735 315,962.535 317.5,958.335 C321.9,950.835 324.4,943.035 324.4,936.335 C324.4,928.035 322.2,921.135 318.1,916.235 C313.4,910.635 306.3,907.735 297,907.735 M328.4,920.435 C328.4,923.235 330.6,925.435 333.2,925.435 C335.8,925.435 338,923.235 338,920.435 C338,917.635 335.8,915.335 333.2,915.335 C330.6,915.335 328.4,917.635 328.4,920.435 M328.4,945.135 C328.4,947.935 330.6,950.235 333.2,950.235 C335.8,950.235 338,947.935 338,945.135 C338,942.335 335.8,940.035 333.2,940.035 C330.6,940.035 328.4,942.335 328.4,945.135"/>
<path class="Clef" d="M335,714.422 C333.8,709.022 331.1,705.122 330.3,704.122 C327.1,699.822 323.1,697.022 318.4,695.622 C316.1,694.922 314,694.722 312,694.722 C311.3,694.722 310.6,694.722 309.9,694.822 C308.9,688.822 307.8,682.922 306.9,677.522 C312.5,671.322 316.2,665.422 318.6,661.022 C322.2,654.322 323.6,649.622 323.7,649.422 C324.9,646.422 325.6,642.622 325.6,638.122 C325.6,635.422 325.3,632.522 324.9,629.522 C323.8,622.422 321.6,615.722 319.1,612.022 C317.8,610.122 316.6,609.022 315.4,609.022 C314.2,609.022 311.7,610.222 308.8,613.022 C306.5,615.222 303.2,619.122 300.6,625.122 C298.3,630.522 297.6,637.422 297.6,643.322 C297.6,645.122 297.7,646.822 297.8,648.422 C298,652.022 298.7,657.822 299.3,661.422 C299.3,661.522 299.6,663.022 300,665.622 L299.3,666.322 C298.3,667.322 297.1,668.422 295.7,669.822 C294.8,670.722 293.9,671.522 292.9,672.522 C284.4,680.722 271.6,693.122 271.6,712.222 C271.6,716.922 272.5,721.322 274.3,725.322 C275.9,728.922 278.2,732.222 281.1,735.122 C288.6,742.522 298.8,745.722 305.9,745.722 L306.5,745.722 C309.4,745.622 312.1,745.322 314.5,744.922 C316.3,754.522 317.5,761.622 317.5,766.922 C317.5,773.422 315.9,777.322 312,780.122 C309.6,781.822 306.7,782.922 303.6,783.022 L302.8,783.022 C301.3,783.022 298.8,782.622 297.3,782.222 C297.3,782.222 297,782.122 297,781.922 C297,781.722 297.4,781.722 297.4,781.722 C299.3,781.322 302.9,780.022 305.3,776.722 C306.4,775.222 307.1,772.922 307.1,770.422 C307.1,768.822 306.8,767.122 306.1,765.622 C305,763.222 302.4,760.222 296.8,759.822 L295.7,759.822 C293.6,759.822 291.8,760.322 290.1,761.322 C288.3,762.422 286.7,764.122 285.7,766.122 C284.6,768.122 284.1,770.322 284.1,772.522 C284.1,775.422 285,778.122 286.8,780.322 C289.8,783.922 294.5,786.222 299.9,786.822 C300.6,786.922 301.7,787.022 302.4,787.022 C306.8,787.022 311.2,785.822 314.8,783.622 C318.5,781.022 320.6,777.022 321.3,771.422 C321.5,770.122 321.5,768.722 321.5,767.222 C321.5,763.322 321,758.622 320,752.822 C319.6,750.722 319.2,747.722 318.5,743.922 C324.3,742.022 328.4,738.322 332.2,732.522 C334.5,728.522 335.6,724.422 335.6,720.122 C335.6,718.222 335.4,716.322 335,714.422 M304.8,636.522 C306.6,630.822 309.3,627.422 311.3,625.722 C313.1,624.222 314.7,623.522 315.6,623.522 C315.7,623.522 315.9,623.622 316,623.622 C316.3,623.722 316.7,624.222 317.1,624.922 C318,626.722 318.9,630.022 318.9,633.722 C318.9,635.622 318.7,637.622 318.1,639.422 C315.9,646.222 311.3,653.522 304.3,661.222 C304.1,660.122 303.9,659.122 303.8,658.122 C303.3,654.922 303,651.722 303,648.822 C303,644.322 303.6,640.222 304.8,636.522 M300.8,740.622 C296.2,739.422 291.7,736.922 287.9,733.422 C286.6,732.222 284.8,730.022 283.3,726.622 C282,723.622 281.3,720.522 281.3,717.122 L281.3,716.422 C281.4,711.722 282.7,706.922 285.2,702.122 C288.1,696.522 292.6,691.022 298.7,685.722 C300.2,684.422 301.6,683.122 302.9,681.822 C303.7,686.122 304.4,690.822 305.3,695.722 C301.4,697.022 296.7,700.022 293.6,705.722 C291.2,710.222 290.5,714.122 290.5,717.322 C290.5,718.822 290.7,720.222 290.9,721.322 C291.8,725.822 294.4,729.522 297.9,731.622 C298.7,732.122 302,733.822 304,733.822 C304.3,733.822 304.6,733.822 304.8,733.722 C305.1,733.622 305.4,733.422 305.5,733.122 C305.6,732.922 305.6,732.722 305.6,732.522 C305.6,731.722 304.8,731.122 303.5,730.322 C302.9,729.922 302.2,729.522 301.5,729.022 C298.9,727.022 297.4,723.922 297.4,720.522 C297.4,719.522 297.6,718.622 297.8,717.622 C298.3,715.622 300,712.822 301.5,711.422 C303.2,709.922 305.2,708.722 307.6,708.122 C309.6,719.322 311.7,730.422 313.3,738.822 C313.4,739.522 313.6,740.222 313.7,740.922 C311.7,741.322 309.7,741.522 307.8,741.522 C305.4,741.522 303.1,741.222 300.8,740.622 M326.5,730.422 C325.3,733.622 322.8,737.622 317.7,739.722 C317.6,739.322 317.6,738.822 317.5,738.422 C316,729.622 314.1,718.722 312.1,707.422 L313.1,707.422 C322.8,707.422 326.7,714.622 327.6,719.222 C327.8,720.122 327.9,721.322 327.9,722.622 C327.9,724.922 327.5,727.722 326.5,730.422"/>
<path class="TimeSig" d="M365.2,946.235 L382,946.235 L382,953.535 L373.9,953.535 C373.1,953.535 372.5,954.135 372.5,954.935 L372.5,956.835 C372.5,957.635 373.1,958.135 373.9,958.135 L403.6,958.135 C404.4,958.135 405,957.635 405,956.835 L405,954.935 C405,954.135 404.4,953.535 403.6,953.535 L394.8,953.535 L394.8,946.235 L403.6,946.235 C404.4,946.235 405,945.635 405,944.835 L405,943.035 C405,942.235 404.4,941.635 403.6,941.635 L394.8,941.635 L394.8,925.935 C394.8,925.435 394.4,924.935 394,924.735 L392.9,924.135 C392.7,924.035 392.4,924.035 392.2,924.035 C391.9,924.035 391.5,924.135 391.3,924.335 L382.4,932.535 C382.2,932.735 382,933.235 382,933.535 L382,941.635 L370.7,941.635 C370.7,941.635 381.6,929.835 393.2,914.335 C394,913.235 393.6,912.235 393.4,912.035 L391.3,909.835 C391.1,909.635 390.6,909.435 390.3,909.435 L375.7,909.435 C375,909.435 374.5,910.035 374.4,910.635 C374.4,910.635 373.9,917.835 371.3,925.835 C368.7,933.835 365.9,938.635 363.3,942.235 C363.3,942.235 362.8,943.235 363.1,943.935 C363.4,944.635 364.1,945.735 364.1,945.735 C364.1,945.735 364.4,946.235 365.2,946.235"/>
<path class="TimeSig" d="M365.2,994.839 L382,994.839 L382,1002.14 L373.9,1002.14 C373.1,1002.14 372.5,1002.74 372.5,1003.54 L372.5,1005.44 C372.5,1006.24 373.1,1006.74 373.9,1006.74 L403.6,1006.74 C404.4,1006.74 405,1006.24 405,1005.44 L405,1003.54 C405,1002.74 404.4,1002.14 403.6,1002.14 L394.8,1002.14 L394.8,994.839 L403.6,994.839 C404.4,994.839 405,994.239 405,993.439 L405,991.639 C405,990.839 404.4,990.239 403.6,990.239 L394.8,990.239 L394.8,974.539 C394.8,974.039 394.4,973.539 394,973.339 L392.9,972.739 C392.7,972.639 392.4,972.639 392.2,972.639 C391.9,972.639 391.5,972.739 391.3,972.939 L382.4,981.139 C382.2,981.339 382,981.839 382,982.139 L382,990.239 L370.7,990.239 C370.7,990.239 381.6,978.439 393.2,962.939 C394,961.839 393.6,960.839 393.4,960.639 L391.3,958.439 C391.1,958.239 390.6,958.039 390.3,958.039 L375.7,958.039 C375,958.039 374.5,958.639 374.4,959.239 C374.4,959.239 373.9,966.439 371.3,974.439 C368.7,982.439 365.9,987.239 363.3,990.839 C363.3,990.839 362.8,991.839 363.1,992.539 C363.4,993.239 364.1,994.339 364.1,994.339 C364.1,994.339 364.4,994.839 365.2,994.839"/>
<path class="TimeSig" d="M365.2,683.718 L382,683.718 L382,691.018 L373.9,691.018 C373.1,691.018 372.5,691.618 372.5,692.418 L372.5,694.318 C372.5,695.118 373.1,695.618 373.9,695.618 L403.6,695.618 C404.4,695.618 405,695.118 405,694.318 L405,692.418 C405,691.618 404.4,691.018 403.6,691.018 L394.8,691.018 L394.8,683.718 L403.6,683.718 C404.4,683.718 405,683.118 405,682.318 L405,680.518 C405,679.718 404.4,679.118 403.6,679.118 L394.8,679.118 L394.8,663.418 C394.8,662.918 394.4,662.418 394,662.218 L392.9,661.618 C392.7,661.518 392.4,661.518 392.2,661.518 C391.9,661.518 391.5,661.618 391.3,661.818 L382.4,670.018 C382.2,670.218 382,670.718 382,671.018 L382,679.118 L370.7,679.118 C370.7,679.118 381.6,667.318 393.2,651.818 C394,650.718 393.6,649.718 393.4,649.518 L391.3,647.318 C391.1,647.118 390.6,646.918 390.3,646.918 L375.7,646.918 C375,646.918 374.5,647.518 374.4,648.118 C374.4,648.118 373.9,655.318 371.3,663.318 C368.7,671.318 365.9,676.118 363.3,679.718 C363.3,679.718 362.8,680.718 363.1,681.418 C363.4,682.118 364.1,683.218 364.1,683.218 C364.1,683.218 364.4,683.718 365.2,683.718"/>
<path class="TimeSig" d="M365.2,732.323 L382,732.323 L382,739.623 L373.9,739.623 C373.1,739.623 372.5,740.223 372.5,741.023 L372.5,742.923 C372.5,743.723 373.1,744.223 373.9,744.223 L403.6,744.223 C404.4,744.223 405,743.723 405,742.923 L405,741.023 C405,740.223 404.4,739.623 403.6,739.623 L394.8,739.623 L394.8,732.323 L403.6,732.323 C404.4,732.323 405,731.723 405,730.923 L405,729.123 C405,728.323 404.4,727.723 403.6,727.723 L394.8,727.723 L394.8,712.023 C394.8,711.523 394.4,711.023 394,710.823 L392.9,710.223 C392.7,710.123 392.4,710.123 392.2,710.123 C391.9,710.123 391.5,710.223 391.3,710.423 L382.4,718.623 C382.2,718.823 382,719.323 382,719.623 L382,727.723 L370.7,727.723 C370.7,727.723 381.6,715.923 393.2,700.423 C394,699.323 393.6,698.323 393.4,698.123 L391.3,695.923 C391.1,695.723 390.6,695.523 390.3,695.523 L375.7,695.523 C375,695.523 374.5,696.123 374.4,696.723 C374.4,696.723 373.9,703.923 371.3,711.923 C368.7,719.923 365.9,724.723 363.3,728.323 C363.3,728.323 362.8,729.323 363.1,730.023 C363.4,730.723 364.1,731.823 364.1,731.823 C364.1,731.823 364.4,732.323 365.2,732.323"/>
<path class="Page" d="M226.289,4049.49 C230.384,4048.01 232.274,4045.71 232.274,4042.11 C232.274,4037.39 228.674,4034.37 223.094,4034.37 C217.829,4034.37 213.824,4037.48 213.824,4041.57 C213.824,4043.42 215.039,4044.72 216.794,4044.72 C218.369,4044.72 219.449,4043.64 219.449,4042.02 C219.449,4041.03 219.089,4040.45 218.054,4039.73 C217.604,4039.41 217.469,4039.23 217.469,4038.92 C217.469,4037.66 220.079,4036.31 222.644,4036.31 C225.884,4036.31 227.594,4038.33 227.594,4042.16 C227.594,4046.34 225.884,4048.55 222.689,4048.55 C222.284,4048.55 221.519,4048.5 220.844,4048.46 C220.484,4048.41 220.124,4048.41 219.854,4048.41 C218.909,4048.41 218.414,4048.82 218.414,4049.63 C218.414,4050.39 218.864,4050.75 219.854,4050.75 C220.124,4050.75 220.484,4050.75 220.889,4050.71 C221.789,4050.66 222.509,4050.66 223.004,4050.66 C226.334,4050.66 228.134,4053.05 228.134,4057.5 C228.134,4062.18 225.884,4064.79 221.834,4064.79 C218.999,4064.79 215.939,4063.26 215.939,4061.87 C215.939,4061.46 216.029,4061.37 216.884,4060.88 C218.144,4060.11 218.639,4059.35 218.639,4058.22 C218.639,4056.6 217.424,4055.39 215.804,4055.39 C213.869,4055.39 212.609,4056.96 212.609,4059.35 C212.609,4063.71 216.614,4066.73 222.374,4066.73 C228.899,4066.73 233.129,4063.13 233.129,4057.59 C233.129,4053.36 230.969,4050.8 226.289,4049.49 M252.564,4048.5 C255.894,4046.7 257.514,4044.45 257.514,4041.53 C257.514,4037.39 253.779,4034.37 248.559,4034.37 C243.069,4034.37 239.064,4037.97 239.064,4042.97 C239.064,4044.9 239.784,4046.93 241.044,4048.32 C241.809,4049.22 242.529,4049.72 244.149,4050.57 C242.169,4051.34 241.314,4051.79 240.324,4052.6 C238.569,4054.04 237.579,4056.2 237.579,4058.49 C237.579,4060.97 238.794,4063.4 240.684,4064.79 C242.439,4066.05 244.869,4066.73 247.749,4066.73 C251.079,4066.73 253.869,4065.83 255.759,4064.21 C257.649,4062.5 258.819,4059.75 258.819,4057.01 C258.819,4054.44 257.829,4052.15 255.984,4050.53 C255.084,4049.72 254.274,4049.27 252.564,4048.5 M247.749,4046.7 C244.104,4045.4 242.529,4043.69 242.529,4041.08 C242.529,4038.2 244.869,4036.31 248.424,4036.31 C251.889,4036.31 254.184,4038.51 254.184,4041.8 C254.184,4044.14 253.284,4045.67 250.719,4047.83 L247.749,4046.7 M250.359,4052.96 C253.779,4054.17 255.219,4055.93 255.219,4058.9 C255.219,4062.5 252.384,4064.79 247.974,4064.79 C243.744,4064.79 241.314,4062.5 241.314,4058.49 C241.314,4055.12 242.709,4053.09 246.219,4051.47 L250.359,4052.96 "/>
<path class="Bracket" transform="matrix(3.62523,0,0,3.62523,214.469,1007.84)" d="M0.92002,-50 C2.69004,-51.88 6.2,-55.8 6.2,-63 C6.2,-72.1 2.25996,-81.32 2.25996,-86.97 C2.25996,-93.06 5.84004,-98.84 5.95,-99 C6.05996,-99.16 6.05,-99.39 5.94004,-99.46 C5.82998,-99.53 5.62002,-99.47 5.49004,-99.32 C5.35996,-99.17 0,-93.75 0,-85.6 C0,-76.75 3.5,-70.58 3.5,-59.07 C3.5,-56.89 2.55996,-53.36 0.1,-50.33 C-0.0799805,-50.17 -0.1,-49.89 0.0599609,-49.7 L0.0700195,-49.69 L0.1,-49.66 C2.55996,-46.63 3.5,-43.1 3.5,-40.92 C3.5,-29.4 0,-23.24 0,-14.39 C0,-6.25 5.35996,-0.8 5.49004,-0.659961 C5.62002,-0.52002 5.8,-0.42998 5.94004,-0.52002 C6.07998,-0.609961 6.07998,-0.77998 5.95,-0.97998 C5.82002,-1.17998 2.25996,-6.92002 2.25996,-13.01 C2.25996,-18.66 6.2,-27.9 6.2,-37 C6.2,-44.3 2.69004,-48.12 0.92002,-50"/>
</svg>