<?xml version="1.0" encoding="UTF-8" standalone="no"?>
<svg width="1000px" height="500px" viewBox="150 650 2700 1000" xmlns="http://www.w3.org/2000/svg" xmlns:xlink="http://www.w3.org/1999/xlink" version="1.2" baseProfile="tiny">
 xmlns="http://www.w3.org/2000/svg" xmlns:xlink="http://www.w3.org/1999/xlink" version="1.2" baseProfile="tiny">
<title>exercises_scores (17)</title>
<desc>Generated by MuseScore 3.6.0</desc>
<polyline class="StaffLines" fill="none" stroke="#000000" stroke-width="2.75" stroke-linejoin="bevel" points="247.099,645.317 2764.63,645.317"/>
<polyline class="StaffLines" fill="none" stroke="#000000" stroke-width="2.75" stroke-linejoin="bevel" points="247.099,670.319 2764.63,670.319"/>
<polyline class="StaffLines" fill="none" stroke="#000000" stroke-width="2.75" stroke-linejoin="bevel" points="247.099,695.32 2764.63,695.32"/>
<polyline class="StaffLines" fill="none" stroke="#000000" stroke-width="2.75" stroke-linejoin="bevel" points="247.099,720.322 2764.63,720.322"/>
<polyline class="StaffLines" fill="none" stroke="#000000" stroke-width="2.75" stroke-linejoin="bevel" points="247.099,745.324 2764.63,745.324"/>
<polyline class="StaffLines" fill="none" stroke="#000000" stroke-width="2.75" stroke-linejoin="bevel" points="247.099,907.834 2764.63,907.834"/>
<polyline class="StaffLines" fill="none" stroke="#000000" stroke-width="2.75" stroke-linejoin="bevel" points="247.099,932.835 2764.63,932.835"/>
<polyline class="StaffLines" fill="none" stroke="#000000" stroke-width="2.75" stroke-linejoin="bevel" points="247.099,957.837 2764.63,957.837"/>
<polyline class="StaffLines" fill="none" stroke="#000000" stroke-width="2.75" stroke-linejoin="bevel" points="247.099,982.839 2764.63,982.839"/>
<polyline class="StaffLines" fill="none" stroke="#000000" stroke-width="2.75" stroke-linejoin="bevel" points="247.099,1007.84 2764.63,1007.84"/>
<polyline class="StaffLines" fill="none" stroke="#000000" stroke-width="2.75" stroke-linejoin="bevel" points="247.099,1257.86 2764.63,1257.86"/>
<polyline class="StaffLines" fill="none" stroke="#000000" stroke-width="2.75" stroke-linejoin="bevel" points="247.099,1282.86 2764.63,1282.86"/>
<polyline class="StaffLines" fill="none" stroke="#000000" stroke-width="2.75" stroke-linejoin="bevel" points="247.099,1307.86 2764.63,1307.86"/>
<polyline class="StaffLines" fill="none" stroke="#000000" stroke-width="2.75" stroke-linejoin="bevel" points="247.099,1332.86 2764.63,1332.86"/>
<polyline class="StaffLines" fill="none" stroke="#000000" stroke-width="2.75" stroke-linejoin="bevel" points="247.099,1357.86 2764.63,1357.86"/>
<polyline class="StaffLines" fill="none" stroke="#000000" stroke-width="2.75" stroke-linejoin="bevel" points="247.099,1520.37 2764.63,1520.37"/>
<polyline class="StaffLines" fill="none" stroke="#000000" stroke-width="2.75" stroke-linejoin="bevel" points="247.099,1545.37 2764.63,1545.37"/>
<polyline class="StaffLines" fill="none" stroke="#000000" stroke-width="2.75" stroke-linejoin="bevel" points="247.099,1570.38 2764.63,1570.38"/>
<polyline class="StaffLines" fill="none" stroke="#000000" stroke-width="2.75" stroke-linejoin="bevel" points="247.099,1595.38 2764.63,1595.38"/>
<polyline class="StaffLines" fill="none" stroke="#000000" stroke-width="2.75" stroke-linejoin="bevel" points="247.099,1620.38 2764.63,1620.38"/>
<path class="Text" d="M242.312,213.137 L240.092,213.137 L237.692,216.737 C234.812,214.037 231.032,212.597 226.772,212.597 C218.852,212.597 213.632,217.577 213.632,225.137 C213.632,231.677 216.872,234.917 225.692,237.197 L231.392,238.637 C235.832,239.777 236.252,239.897 237.512,240.857 C239.312,242.237 240.272,244.217 240.272,246.557 C240.272,248.957 239.372,250.937 237.572,252.617 C235.592,254.297 233.612,254.957 230.312,254.957 C225.872,254.957 222.692,253.577 219.872,250.457 C217.352,247.697 216.092,244.817 215.192,240.197 L212.612,240.197 L212.852,257.297 L215.192,257.297 L217.892,253.217 C221.912,256.517 225.212,257.717 230.492,257.717 C239.312,257.717 244.952,252.557 244.952,244.517 C244.952,240.737 243.752,237.617 241.352,235.337 C239.732,233.777 237.392,232.757 232.592,231.557 L226.172,229.937 C220.832,228.557 218.312,226.217 218.312,222.557 C218.312,218.357 221.732,215.477 226.832,215.477 C231.032,215.477 234.452,217.277 236.852,220.697 C238.592,223.157 239.732,225.677 240.452,228.737 L243.032,228.737 L242.312,213.137 M271.162,247.997 C269.242,252.317 267.202,254.057 264.082,254.057 C259.282,254.057 256.282,249.677 256.282,242.657 C256.282,235.337 259.222,230.537 263.662,230.537 C265.462,230.537 267.022,231.377 267.022,232.337 C267.022,232.517 266.962,232.697 266.662,233.057 C265.702,234.197 265.462,234.797 265.462,235.817 C265.462,237.797 266.962,239.177 269.062,239.177 C271.222,239.177 272.722,237.497 272.722,235.097 C272.722,231.017 268.702,227.957 263.362,227.957 C255.562,227.957 249.982,234.317 249.982,243.317 C249.982,251.837 255.082,257.717 262.522,257.717 C267.862,257.717 270.922,255.257 273.502,248.897 L271.162,247.997 M301.75,237.497 C301.75,233.717 301.09,231.797 299.35,230.357 C297.37,228.737 294.43,227.957 290.59,227.957 C283.81,227.957 278.89,231.137 278.89,235.517 C278.89,237.737 280.27,239.177 282.37,239.177 C284.29,239.177 285.61,237.917 285.61,236.117 C285.61,235.337 285.31,234.497 284.71,233.657 C284.35,233.237 284.29,233.117 284.29,232.817 C284.29,231.617 286.69,230.537 289.57,230.537 C291.49,230.537 293.59,231.137 294.55,232.037 C295.69,232.997 296.11,234.437 296.11,237.137 L296.11,239.477 C289.87,240.557 287.89,241.037 284.95,242.177 C279.73,244.097 277.27,246.857 277.27,250.697 C277.27,255.017 280.63,257.717 285.97,257.717 C290.11,257.717 293.83,256.037 296.41,252.977 C297.37,256.037 298.87,257.237 301.69,257.237 C304.39,257.237 307.21,255.497 307.21,253.757 C307.21,253.337 306.97,253.037 306.61,253.037 C306.37,253.037 306.13,253.097 305.71,253.277 C304.87,253.637 304.51,253.697 304.03,253.697 C302.35,253.697 301.75,252.617 301.75,249.557 L301.75,237.497 M296.11,244.817 C296.11,248.417 295.93,249.257 294.91,250.817 C293.41,253.037 290.71,254.537 288.07,254.537 C285.31,254.537 283.33,252.557 283.33,249.857 C283.33,247.337 284.59,245.537 287.23,244.277 C289.09,243.437 291.43,242.837 296.11,242.057 L296.11,244.817 M320.229,212.597 L309.129,213.257 L309.129,215.837 L312.069,215.837 C314.289,215.897 314.589,216.257 314.589,218.837 L314.589,249.437 L314.589,252.257 C314.529,253.157 314.469,253.517 314.229,253.817 C313.809,254.357 312.669,254.597 310.089,254.657 L309.669,254.657 L309.669,256.817 L325.209,256.817 L325.209,254.657 L324.789,254.657 C320.769,254.537 320.229,254.237 320.229,252.077 L320.229,249.437 L320.229,212.597 M354.78,243.317 C354.84,234.317 349.74,227.957 342.42,227.957 C334.74,227.957 328.98,234.617 328.98,243.617 C328.98,252.077 334.44,257.717 342.54,257.717 C348.3,257.717 352.32,254.897 354.78,249.197 L352.68,248.057 C350.22,252.677 347.7,254.477 343.68,254.477 C340.62,254.477 338.4,253.217 336.84,250.517 C335.76,248.717 335.28,246.617 335.34,243.317 L354.78,243.317 M335.4,240.737 C335.4,238.877 335.64,237.557 336.24,235.877 C337.5,232.277 339.42,230.537 342.36,230.537 C345.96,230.537 348.36,233.717 348.36,238.577 C348.36,240.257 347.82,240.737 345.9,240.737 L335.4,240.737 M366.601,250.157 C364.501,250.157 362.821,251.837 362.821,253.877 C362.821,255.977 364.501,257.657 366.541,257.657 C368.641,257.657 370.321,255.977 370.321,253.877 C370.321,251.837 368.641,250.157 366.601,250.157 M366.601,228.437 C364.501,228.437 362.821,230.117 362.821,232.217 C362.821,234.257 364.501,235.937 366.541,235.937 C368.641,235.937 370.321,234.257 370.321,232.157 C370.321,230.117 368.641,228.437 366.601,228.437 M428.805,213.497 L392.745,213.497 L392.745,216.317 L393.825,216.317 C397.245,216.377 398.385,216.557 398.865,217.157 C399.225,217.697 399.225,217.817 399.225,220.877 L399.225,249.437 C399.225,252.497 399.225,252.617 398.865,253.157 C398.385,253.757 397.245,253.997 393.825,253.997 L392.745,253.997 L392.745,256.817 L429.585,256.817 L430.785,240.797 L428.145,240.797 C425.865,251.477 423.405,253.757 414.225,253.997 L410.265,253.997 C406.665,253.877 405.765,253.277 405.945,251.117 L405.945,235.817 L407.145,235.817 C413.325,235.577 415.545,237.797 415.785,244.457 L418.605,244.457 L418.605,224.777 L415.785,224.777 C415.425,230.657 413.085,232.997 407.385,232.997 L405.945,232.997 L405.945,219.317 C405.885,216.797 406.485,216.377 409.725,216.317 L412.845,216.317 C422.685,216.257 425.145,218.417 427.065,228.797 L429.645,228.797 L428.805,213.497 M463.049,228.857 L452.369,229.517 L452.369,232.097 L454.829,232.097 C457.109,232.157 457.409,232.517 457.409,235.097 L457.409,249.437 L457.409,251.777 L457.409,252.257 C457.349,253.157 457.289,253.517 457.049,253.817 C456.629,254.357 455.489,254.597 452.909,254.657 L452.669,254.657 L452.669,256.817 L467.789,256.817 L467.789,254.657 L467.549,254.657 C463.589,254.537 463.049,254.237 463.049,252.017 L463.049,249.437 L463.049,240.917 C463.049,235.577 465.989,231.617 469.889,231.617 C473.309,231.617 475.049,234.077 475.049,238.937 L475.049,249.437 L475.049,252.317 C474.989,253.097 474.929,253.517 474.629,253.817 C474.269,254.357 473.069,254.597 470.489,254.657 L470.249,254.657 L470.249,256.817 L485.429,256.817 L485.429,254.657 L485.189,254.657 C481.229,254.537 480.689,254.237 480.689,252.077 L480.689,249.437 L480.689,241.457 C480.689,235.457 483.389,231.617 487.589,231.617 C491.009,231.617 492.689,234.197 492.689,239.597 L492.689,249.437 L492.689,252.257 C492.629,253.097 492.569,253.517 492.269,253.817 C491.909,254.357 490.709,254.597 488.129,254.657 L487.889,254.657 L487.889,256.817 L503.069,256.817 L503.069,254.657 L502.829,254.657 C498.869,254.537 498.329,254.237 498.329,252.017 L498.329,249.437 L498.329,238.397 C498.329,234.677 497.969,233.417 496.409,231.377 C494.669,229.157 492.209,227.957 489.329,227.957 C485.429,227.957 482.549,229.817 479.969,233.957 C478.949,230.357 475.709,227.957 471.689,227.957 C468.029,227.957 465.389,229.697 463.049,233.477 L463.049,228.857 M516.677,228.857 L505.397,229.517 L505.397,232.097 L508.457,232.097 C510.737,232.157 511.037,232.517 511.037,235.097 L511.037,249.437 L511.037,252.257 C510.977,253.157 510.917,253.517 510.677,253.817 C510.257,254.357 509.117,254.597 506.537,254.657 L506.117,254.657 L506.117,256.817 L521.657,256.817 L521.657,254.657 L521.237,254.657 C517.217,254.537 516.677,254.237 516.677,252.077 L516.677,249.437 L516.677,228.857 M513.857,213.917 C511.937,213.917 510.377,215.477 510.377,217.397 C510.377,219.317 511.937,220.877 513.797,220.877 C515.777,220.877 517.337,219.317 517.337,217.397 C517.337,215.477 515.777,213.917 513.857,213.917 M535.208,228.857 L524.828,229.517 L524.828,232.097 L526.988,232.097 C529.268,232.157 529.568,232.517 529.568,235.097 L529.568,249.437 L529.568,250.877 L529.568,252.257 C529.508,253.157 529.448,253.517 529.208,253.817 C528.788,254.357 527.648,254.597 525.068,254.657 L524.828,254.657 L524.828,256.817 L540.008,256.817 L540.008,254.657 L539.768,254.657 C535.748,254.537 535.208,254.237 535.208,252.077 L535.208,249.437 L535.208,243.197 C535.208,240.257 535.628,237.557 536.288,236.177 C537.548,233.477 540.248,231.617 542.828,231.617 C544.388,231.617 546.188,232.457 547.088,233.717 C547.988,235.037 548.408,236.837 548.408,239.717 L548.408,249.437 L548.408,252.257 C548.348,253.157 548.288,253.517 548.048,253.817 C547.628,254.357 546.428,254.597 543.848,254.657 L543.608,254.657 L543.608,256.817 L558.788,256.817 L558.788,254.657 L558.548,254.657 C554.588,254.537 554.048,254.237 554.048,252.077 L554.048,249.437 L554.048,240.017 C554.048,235.697 553.868,234.617 552.788,232.577 C551.288,229.697 548.288,227.957 544.688,227.957 C540.788,227.957 537.848,229.757 535.208,233.717 L535.208,228.857 M574.984,227.957 C567.604,227.957 561.904,234.497 561.904,242.897 C561.904,251.117 567.664,257.717 574.864,257.717 C582.064,257.717 587.824,251.117 587.824,242.837 C587.824,234.617 582.064,227.957 574.984,227.957 M574.984,230.537 C579.184,230.537 581.524,234.917 581.524,242.837 C581.524,250.817 579.184,255.137 574.864,255.137 C570.544,255.137 568.204,250.817 568.204,242.897 C568.204,234.737 570.484,230.537 574.984,230.537 M601.744,228.857 L591.124,229.517 L591.124,232.097 L593.584,232.097 C595.864,232.157 596.164,232.517 596.164,235.097 L596.164,249.437 L596.164,252.257 C596.104,253.157 596.044,253.517 595.804,253.817 C595.384,254.357 594.184,254.597 591.604,254.657 L591.364,254.657 L591.364,256.817 L607.384,256.817 L607.384,254.657 L606.304,254.657 C602.284,254.537 601.744,254.237 601.744,252.077 L601.744,249.437 L601.744,248.837 C601.804,238.757 605.404,231.077 610.084,230.837 C609.244,231.797 609.004,232.397 609.004,233.537 C609.004,235.457 610.384,236.837 612.304,236.837 C614.524,236.837 615.964,235.217 615.964,232.817 C615.964,229.877 613.924,227.957 610.744,227.957 C606.964,227.957 603.724,230.957 601.744,236.297 L601.744,228.857 "/>
<polyline class="BarLine" fill="none" stroke="#000000" stroke-width="4.50" stroke-linejoin="bevel" points="249.349,906.459 249.349,1009.22"/>
<polyline class="BarLine" fill="none" stroke="#000000" stroke-width="4.50" stroke-linejoin="bevel" points="986.84,906.459 986.84,1009.22"/>
<polyline class="BarLine" fill="none" stroke="#000000" stroke-width="4.50" stroke-linejoin="bevel" points="1562.55,906.459 1562.55,1009.22"/>
<polyline class="BarLine" fill="none" stroke="#000000" stroke-width="4.50" stroke-linejoin="bevel" points="2231.91,906.459 2231.91,1009.22"/>
<polyline class="BarLine" fill="none" stroke="#000000" stroke-width="4.50" stroke-linejoin="bevel" points="2762.38,906.459 2762.38,1009.22"/>
<polyline class="BarLine" fill="none" stroke="#000000" stroke-width="4.50" stroke-linejoin="bevel" points="249.349,1519 249.349,1621.75"/>
<polyline class="BarLine" fill="none" stroke="#000000" stroke-width="4.50" stroke-linejoin="bevel" points="985.177,1519 985.177,1621.75"/>
<polyline class="BarLine" fill="none" stroke="#000000" stroke-width="4.50" stroke-linejoin="bevel" points="1578.63,1519 1578.63,1621.75"/>
<polyline class="BarLine" fill="none" stroke="#000000" stroke-width="4.50" stroke-linejoin="bevel" points="2225.61,1519 2225.61,1621.75"/>
<polyline class="BarLine" fill="none" stroke="#000000" stroke-width="4.50" stroke-linejoin="bevel" points="2734.88,1519 2734.88,1621.75"/>
<polyline class="BarLine" fill="none" stroke="#000000" stroke-width="13.75" stroke-linejoin="bevel" points="2757.76,1519 2757.76,1621.75"/>
<polyline class="BarLine" fill="none" stroke="#000000" stroke-width="4.50" stroke-linejoin="bevel" points="249.349,643.942 249.349,907.834"/>
<polyline class="BarLine" fill="none" stroke="#000000" stroke-width="4.50" stroke-linejoin="bevel" points="986.84,643.942 986.84,907.834"/>
<polyline class="BarLine" fill="none" stroke="#000000" stroke-width="4.50" stroke-linejoin="bevel" points="1562.55,643.942 1562.55,907.834"/>
<polyline class="BarLine" fill="none" stroke="#000000" stroke-width="4.50" stroke-linejoin="bevel" points="2231.91,643.942 2231.91,907.834"/>
<polyline class="BarLine" fill="none" stroke="#000000" stroke-width="4.50" stroke-linejoin="bevel" points="2762.38,643.942 2762.38,907.834"/>
<polyline class="BarLine" fill="none" stroke="#000000" stroke-width="4.50" stroke-linejoin="bevel" points="249.349,1256.48 249.349,1520.37"/>
<polyline class="BarLine" fill="none" stroke="#000000" stroke-width="4.50" stroke-linejoin="bevel" points="985.177,1256.48 985.177,1520.37"/>
<polyline class="BarLine" fill="none" stroke="#000000" stroke-width="4.50" stroke-linejoin="bevel" points="1578.63,1256.48 1578.63,1520.37"/>
<polyline class="BarLine" fill="none" stroke="#000000" stroke-width="4.50" stroke-linejoin="bevel" points="2225.61,1256.48 2225.61,1520.37"/>
<polyline class="BarLine" fill="none" stroke="#000000" stroke-width="4.50" stroke-linejoin="bevel" points="2734.88,1256.48 2734.88,1520.37"/>
<polyline class="BarLine" fill="none" stroke="#000000" stroke-width="13.75" stroke-linejoin="bevel" points="2757.76,1256.48 2757.76,1520.37"/>
<path class="Accidental" d="M580.049,922.235 C580.649,922.135 581.149,921.435 581.149,920.835 L581.149,914.935 C581.149,914.135 580.549,913.535 579.749,913.535 L579.549,913.535 L576.249,914.235 L576.249,899.335 L573.449,899.335 L573.449,914.835 L564.549,916.635 L564.549,902.535 L561.749,902.535 L561.749,917.235 L557.849,918.035 C557.249,918.135 556.749,918.835 556.749,919.435 L556.749,919.635 L556.749,925.435 L556.749,925.235 C556.749,926.035 557.349,926.635 558.149,926.635 L558.449,926.635 L561.749,925.935 L561.749,942.435 L557.849,943.235 C557.249,943.335 556.749,944.035 556.749,944.635 L556.749,950.435 C556.749,951.235 557.349,951.835 558.149,951.835 L558.449,951.835 L561.749,951.135 L561.749,966.035 L564.549,966.035 L564.549,950.535 L573.449,948.735 L573.449,962.835 L576.249,962.835 L576.249,948.135 L580.049,947.435 C580.649,947.335 581.149,946.635 581.149,946.035 L581.149,940.135 C581.149,939.335 580.549,938.735 579.749,938.735 L579.549,938.735 L576.249,939.435 L576.249,922.935 L580.049,922.235 M564.549,941.935 L564.549,925.335 L573.449,923.535 L573.449,940.035 L564.549,941.935 "/>
<path class="Accidental" d="M1704.6,984.739 C1705.2,984.639 1705.7,983.939 1705.7,983.339 L1705.7,977.439 C1705.7,976.639 1705.1,976.039 1704.3,976.039 L1704.1,976.039 L1700.8,976.739 L1700.8,961.839 L1698,961.839 L1698,977.339 L1689.1,979.139 L1689.1,965.039 L1686.3,965.039 L1686.3,979.739 L1682.4,980.539 C1681.8,980.639 1681.3,981.339 1681.3,981.939 L1681.3,982.139 L1681.3,987.939 L1681.3,987.739 C1681.3,988.539 1681.9,989.139 1682.7,989.139 L1683,989.139 L1686.3,988.439 L1686.3,1004.94 L1682.4,1005.74 C1681.8,1005.84 1681.3,1006.54 1681.3,1007.14 L1681.3,1012.94 C1681.3,1013.74 1681.9,1014.34 1682.7,1014.34 L1683,1014.34 L1686.3,1013.64 L1686.3,1028.54 L1689.1,1028.54 L1689.1,1013.04 L1698,1011.24 L1698,1025.34 L1700.8,1025.34 L1700.8,1010.64 L1704.6,1009.94 C1705.2,1009.84 1705.7,1009.14 1705.7,1008.54 L1705.7,1002.64 C1705.7,1001.84 1705.1,1001.24 1704.3,1001.24 L1704.1,1001.24 L1700.8,1001.94 L1700.8,985.439 L1704.6,984.739 M1689.1,1004.44 L1689.1,987.839 L1698,986.039 L1698,1002.54 L1689.1,1004.44 "/>
<path class="Accidental" d="M1151.69,1597.28 C1152.29,1597.18 1152.79,1596.48 1152.79,1595.88 L1152.79,1589.98 C1152.79,1589.18 1152.19,1588.58 1151.39,1588.58 L1151.19,1588.58 L1147.89,1589.28 L1147.89,1574.38 L1145.09,1574.38 L1145.09,1589.88 L1136.19,1591.68 L1136.19,1577.58 L1133.39,1577.58 L1133.39,1592.28 L1129.49,1593.08 C1128.89,1593.18 1128.39,1593.88 1128.39,1594.48 L1128.39,1594.68 L1128.39,1600.48 L1128.39,1600.28 C1128.39,1601.08 1128.99,1601.68 1129.79,1601.68 L1130.09,1601.68 L1133.39,1600.98 L1133.39,1617.48 L1129.49,1618.28 C1128.89,1618.38 1128.39,1619.08 1128.39,1619.68 L1128.39,1625.48 C1128.39,1626.28 1128.99,1626.88 1129.79,1626.88 L1130.09,1626.88 L1133.39,1626.18 L1133.39,1641.08 L1136.19,1641.08 L1136.19,1625.58 L1145.09,1623.78 L1145.09,1637.88 L1147.89,1637.88 L1147.89,1623.18 L1151.69,1622.48 C1152.29,1622.38 1152.79,1621.68 1152.79,1621.08 L1152.79,1615.18 C1152.79,1614.38 1152.19,1613.78 1151.39,1613.78 L1151.19,1613.78 L1147.89,1614.48 L1147.89,1597.98 L1151.69,1597.28 M1136.19,1616.98 L1136.19,1600.38 L1145.09,1598.58 L1145.09,1615.08 L1136.19,1616.98 "/>
<path class="Accidental" d="M2272.91,1534.77 C2273.51,1534.67 2274.01,1533.97 2274.01,1533.37 L2274.01,1527.47 C2274.01,1526.67 2273.41,1526.07 2272.61,1526.07 L2272.41,1526.07 L2269.11,1526.77 L2269.11,1511.87 L2266.31,1511.87 L2266.31,1527.37 L2257.41,1529.17 L2257.41,1515.07 L2254.61,1515.07 L2254.61,1529.77 L2250.71,1530.57 C2250.11,1530.67 2249.61,1531.37 2249.61,1531.97 L2249.61,1532.17 L2249.61,1537.97 L2249.61,1537.77 C2249.61,1538.57 2250.21,1539.17 2251.01,1539.17 L2251.31,1539.17 L2254.61,1538.47 L2254.61,1554.97 L2250.71,1555.77 C2250.11,1555.87 2249.61,1556.57 2249.61,1557.17 L2249.61,1562.97 C2249.61,1563.77 2250.21,1564.37 2251.01,1564.37 L2251.31,1564.37 L2254.61,1563.67 L2254.61,1578.57 L2257.41,1578.57 L2257.41,1563.07 L2266.31,1561.27 L2266.31,1575.37 L2269.11,1575.37 L2269.11,1560.67 L2272.91,1559.97 C2273.51,1559.87 2274.01,1559.17 2274.01,1558.57 L2274.01,1552.67 C2274.01,1551.87 2273.41,1551.27 2272.61,1551.27 L2272.41,1551.27 L2269.11,1551.97 L2269.11,1535.47 L2272.91,1534.77 M2257.41,1554.47 L2257.41,1537.87 L2266.31,1536.07 L2266.31,1552.57 L2257.41,1554.47 "/>
<path class="Accidental" d="M580.049,722.223 C580.649,722.123 581.149,721.423 581.149,720.823 L581.149,714.923 C581.149,714.123 580.549,713.523 579.749,713.523 L579.549,713.523 L576.249,714.223 L576.249,699.323 L573.449,699.323 L573.449,714.823 L564.549,716.623 L564.549,702.523 L561.749,702.523 L561.749,717.223 L557.849,718.023 C557.249,718.123 556.749,718.823 556.749,719.423 L556.749,719.623 L556.749,725.423 L556.749,725.223 C556.749,726.023 557.349,726.623 558.149,726.623 L558.449,726.623 L561.749,725.923 L561.749,742.423 L557.849,743.223 C557.249,743.323 556.749,744.023 556.749,744.623 L556.749,750.423 C556.749,751.223 557.349,751.823 558.149,751.823 L558.449,751.823 L561.749,751.123 L561.749,766.023 L564.549,766.023 L564.549,750.523 L573.449,748.723 L573.449,762.823 L576.249,762.823 L576.249,748.123 L580.049,747.423 C580.649,747.323 581.149,746.623 581.149,746.023 L581.149,740.123 C581.149,739.323 580.549,738.723 579.749,738.723 L579.549,738.723 L576.249,739.423 L576.249,722.923 L580.049,722.223 M564.549,741.923 L564.549,725.323 L573.449,723.523 L573.449,740.023 L564.549,741.923 "/>
<path class="Accidental" d="M1704.6,634.717 C1705.2,634.617 1705.7,633.917 1705.7,633.317 L1705.7,627.417 C1705.7,626.617 1705.1,626.017 1704.3,626.017 L1704.1,626.017 L1700.8,626.717 L1700.8,611.817 L1698,611.817 L1698,627.317 L1689.1,629.117 L1689.1,615.017 L1686.3,615.017 L1686.3,629.717 L1682.4,630.517 C1681.8,630.617 1681.3,631.317 1681.3,631.917 L1681.3,632.117 L1681.3,637.917 L1681.3,637.717 C1681.3,638.517 1681.9,639.117 1682.7,639.117 L1683,639.117 L1686.3,638.417 L1686.3,654.917 L1682.4,655.717 C1681.8,655.817 1681.3,656.517 1681.3,657.117 L1681.3,662.917 C1681.3,663.717 1681.9,664.317 1682.7,664.317 L1683,664.317 L1686.3,663.617 L1686.3,678.517 L1689.1,678.517 L1689.1,663.017 L1698,661.217 L1698,675.317 L1700.8,675.317 L1700.8,660.617 L1704.6,659.917 C1705.2,659.817 1705.7,659.117 1705.7,658.517 L1705.7,652.617 C1705.7,651.817 1705.1,651.217 1704.3,651.217 L1704.1,651.217 L1700.8,651.917 L1700.8,635.417 L1704.6,634.717 M1689.1,654.417 L1689.1,637.817 L1698,636.017 L1698,652.517 L1689.1,654.417 "/>
<path class="Accidental" d="M1151.69,1247.26 C1152.29,1247.16 1152.79,1246.46 1152.79,1245.86 L1152.79,1239.96 C1152.79,1239.16 1152.19,1238.56 1151.39,1238.56 L1151.19,1238.56 L1147.89,1239.26 L1147.89,1224.36 L1145.09,1224.36 L1145.09,1239.86 L1136.19,1241.66 L1136.19,1227.56 L1133.39,1227.56 L1133.39,1242.26 L1129.49,1243.06 C1128.89,1243.16 1128.39,1243.86 1128.39,1244.46 L1128.39,1244.66 L1128.39,1250.46 L1128.39,1250.26 C1128.39,1251.06 1128.99,1251.66 1129.79,1251.66 L1130.09,1251.66 L1133.39,1250.96 L1133.39,1267.46 L1129.49,1268.26 C1128.89,1268.36 1128.39,1269.06 1128.39,1269.66 L1128.39,1275.46 C1128.39,1276.26 1128.99,1276.86 1129.79,1276.86 L1130.09,1276.86 L1133.39,1276.16 L1133.39,1291.06 L1136.19,1291.06 L1136.19,1275.56 L1145.09,1273.76 L1145.09,1287.86 L1147.89,1287.86 L1147.89,1273.16 L1151.69,1272.46 C1152.29,1272.36 1152.79,1271.66 1152.79,1271.06 L1152.79,1265.16 C1152.79,1264.36 1152.19,1263.76 1151.39,1263.76 L1151.19,1263.76 L1147.89,1264.46 L1147.89,1247.96 L1151.69,1247.26 M1136.19,1266.96 L1136.19,1250.36 L1145.09,1248.56 L1145.09,1265.06 L1136.19,1266.96 "/>
<path class="Accidental" d="M2272.91,1334.76 C2273.51,1334.66 2274.01,1333.96 2274.01,1333.36 L2274.01,1327.46 C2274.01,1326.66 2273.41,1326.06 2272.61,1326.06 L2272.41,1326.06 L2269.11,1326.76 L2269.11,1311.86 L2266.31,1311.86 L2266.31,1327.36 L2257.41,1329.16 L2257.41,1315.06 L2254.61,1315.06 L2254.61,1329.76 L2250.71,1330.56 C2250.11,1330.66 2249.61,1331.36 2249.61,1331.96 L2249.61,1332.16 L2249.61,1337.96 L2249.61,1337.76 C2249.61,1338.56 2250.21,1339.16 2251.01,1339.16 L2251.31,1339.16 L2254.61,1338.46 L2254.61,1354.96 L2250.71,1355.76 C2250.11,1355.86 2249.61,1356.56 2249.61,1357.16 L2249.61,1362.96 C2249.61,1363.76 2250.21,1364.36 2251.01,1364.36 L2251.31,1364.36 L2254.61,1363.66 L2254.61,1378.56 L2257.41,1378.56 L2257.41,1363.06 L2266.31,1361.26 L2266.31,1375.36 L2269.11,1375.36 L2269.11,1360.66 L2272.91,1359.96 C2273.51,1359.86 2274.01,1359.16 2274.01,1358.56 L2274.01,1352.66 C2274.01,1351.86 2273.41,1351.26 2272.61,1351.26 L2272.41,1351.26 L2269.11,1351.96 L2269.11,1335.46 L2272.91,1334.76 M2257.41,1354.46 L2257.41,1337.86 L2266.31,1336.06 L2266.31,1352.56 L2257.41,1354.46 "/>
<polyline class="LedgerLine" fill="none" stroke="#000000" stroke-width="4.00" stroke-linejoin="bevel" points="1147.52,882.832 1197.51,882.832"/>
<polyline class="LedgerLine" fill="none" stroke="#000000" stroke-width="4.00" stroke-linejoin="bevel" points="1282.2,882.832 1332.19,882.832"/>
<polyline class="LedgerLine" fill="none" stroke="#000000" stroke-width="4.00" stroke-linejoin="bevel" points="1416.87,882.832 1466.87,882.832"/>
<polyline class="LedgerLine" fill="none" stroke="#000000" stroke-width="4.00" stroke-linejoin="bevel" points="1416.87,857.831 1466.87,857.831"/>
<polyline class="LedgerLine" fill="none" stroke="#000000" stroke-width="4.00" stroke-linejoin="bevel" points="1691.04,1495.37 1741.03,1495.37"/>
<polyline class="LedgerLine" fill="none" stroke="#000000" stroke-width="4.00" stroke-linejoin="bevel" points="1962.06,620.316 2012.05,620.316"/>
<polyline class="LedgerLine" fill="none" stroke="#000000" stroke-width="4.00" stroke-linejoin="bevel" points="2091.48,620.316 2141.48,620.316"/>
<polyline class="LedgerLine" fill="none" stroke="#000000" stroke-width="4.00" stroke-linejoin="bevel" points="2266.66,620.316 2316.66,620.316"/>
<polyline class="LedgerLine" fill="none" stroke="#000000" stroke-width="4.00" stroke-linejoin="bevel" points="2266.66,595.314 2316.66,595.314"/>
<polyline class="LedgerLine" fill="none" stroke="#000000" stroke-width="4.00" stroke-linejoin="bevel" points="2401.31,620.316 2451.3,620.316"/>
<polyline class="LedgerLine" fill="none" stroke="#000000" stroke-width="4.00" stroke-linejoin="bevel" points="2401.31,595.314 2451.3,595.314"/>
<polyline class="LedgerLine" fill="none" stroke="#000000" stroke-width="4.00" stroke-linejoin="bevel" points="2535.95,620.316 2585.95,620.316"/>
<polyline class="LedgerLine" fill="none" stroke="#000000" stroke-width="4.00" stroke-linejoin="bevel" points="2535.95,595.314 2585.95,595.314"/>
<polyline class="LedgerLine" fill="none" stroke="#000000" stroke-width="4.00" stroke-linejoin="bevel" points="2535.95,570.313 2585.95,570.313"/>
<polyline class="LedgerLine" fill="none" stroke="#000000" stroke-width="4.00" stroke-linejoin="bevel" points="398.1,1232.85 448.096,1232.85"/>
<polyline class="LedgerLine" fill="none" stroke="#000000" stroke-width="4.00" stroke-linejoin="bevel" points="398.1,1207.85 448.096,1207.85"/>
<polyline class="LedgerLine" fill="none" stroke="#000000" stroke-width="4.00" stroke-linejoin="bevel" points="542.119,1232.85 592.115,1232.85"/>
<polyline class="LedgerLine" fill="none" stroke="#000000" stroke-width="4.00" stroke-linejoin="bevel" points="542.119,1207.85 592.115,1207.85"/>
<polyline class="LedgerLine" fill="none" stroke="#000000" stroke-width="4.00" stroke-linejoin="bevel" points="686.138,1232.85 736.134,1232.85"/>
<polyline class="LedgerLine" fill="none" stroke="#000000" stroke-width="4.00" stroke-linejoin="bevel" points="830.157,1232.85 880.153,1232.85"/>
<polyline class="Stem" fill="none" stroke="#000000" stroke-width="2.75" stroke-linejoin="bevel" points="456.377,948.856 456.377,1026.59"/>
<polyline class="Stem" fill="none" stroke="#000000" stroke-width="2.75" stroke-linejoin="bevel" points="588.774,936.356 588.774,1017.22"/>
<polyline class="Stem" fill="none" stroke="#000000" stroke-width="2.75" stroke-linejoin="bevel" points="721.171,923.855 721.171,1007.84"/>
<polyline class="Stem" fill="none" stroke="#000000" stroke-width="2.75" stroke-linejoin="bevel" points="853.568,911.354 853.568,995.339"/>
<polyline class="Stem" fill="none" stroke="#000000" stroke-width="2.75" stroke-linejoin="bevel" points="1022.97,898.853 1022.97,982.839"/>
<polyline class="Stem" fill="none" stroke="#000000" stroke-width="2.75" stroke-linejoin="bevel" points="1157.65,886.352 1157.65,970.338"/>
<polyline class="Stem" fill="none" stroke="#000000" stroke-width="2.75" stroke-linejoin="bevel" points="1292.32,873.852 1292.32,957.837"/>
<polyline class="Stem" fill="none" stroke="#000000" stroke-width="2.75" stroke-linejoin="bevel" points="1427,861.351 1427,957.837"/>
<polyline class="Stem" fill="none" stroke="#000000" stroke-width="2.75" stroke-linejoin="bevel" points="1743.07,991.979 1743.07,907.834"/>
<polyline class="Stem" fill="none" stroke="#000000" stroke-width="2.75" stroke-linejoin="bevel" points="1872.5,979.478 1872.5,898.458"/>
<polyline class="Stem" fill="none" stroke="#000000" stroke-width="2.75" stroke-linejoin="bevel" points="2001.93,966.978 2001.93,889.083"/>
<polyline class="Stem" fill="none" stroke="#000000" stroke-width="2.75" stroke-linejoin="bevel" points="2101.61,961.357 2101.61,1035.97"/>
<polyline class="Stem" fill="none" stroke="#000000" stroke-width="2.75" stroke-linejoin="bevel" points="2276.79,948.856 2276.79,1026.59"/>
<polyline class="Stem" fill="none" stroke="#000000" stroke-width="2.75" stroke-linejoin="bevel" points="2411.43,936.356 2411.43,1017.22"/>
<polyline class="Stem" fill="none" stroke="#000000" stroke-width="2.75" stroke-linejoin="bevel" points="2546.08,923.775 2546.08,1007.84"/>
<polyline class="Stem" fill="none" stroke="#000000" stroke-width="2.75" stroke-linejoin="bevel" points="408.226,1548.89 408.226,1629.75"/>
<polyline class="Stem" fill="none" stroke="#000000" stroke-width="2.75" stroke-linejoin="bevel" points="552.245,1561.39 552.245,1639.13"/>
<polyline class="Stem" fill="none" stroke="#000000" stroke-width="2.75" stroke-linejoin="bevel" points="696.264,1573.9 696.264,1648.51"/>
<polyline class="Stem" fill="none" stroke="#000000" stroke-width="2.75" stroke-linejoin="bevel" points="870.027,1579.52 870.027,1501.62"/>
<polyline class="Stem" fill="none" stroke="#000000" stroke-width="2.75" stroke-linejoin="bevel" points="1051.05,1592.02 1051.05,1511"/>
<polyline class="Stem" fill="none" stroke="#000000" stroke-width="2.75" stroke-linejoin="bevel" points="1190.16,1604.52 1190.16,1520.37"/>
<polyline class="Stem" fill="none" stroke="#000000" stroke-width="2.75" stroke-linejoin="bevel" points="1329.28,1617.02 1329.28,1532.87"/>
<polyline class="Stem" fill="none" stroke="#000000" stroke-width="2.75" stroke-linejoin="bevel" points="1468.39,1629.52 1468.39,1545.37"/>
<polyline class="Stem" fill="none" stroke="#000000" stroke-width="2.75" stroke-linejoin="bevel" points="1701.16,1498.89 1701.16,1582.88"/>
<polyline class="Stem" fill="none" stroke="#000000" stroke-width="2.75" stroke-linejoin="bevel" points="1832.06,1511.39 1832.06,1595.38"/>
<polyline class="Stem" fill="none" stroke="#000000" stroke-width="2.75" stroke-linejoin="bevel" points="1962.95,1523.89 1962.95,1607.88"/>
<polyline class="Stem" fill="none" stroke="#000000" stroke-width="2.75" stroke-linejoin="bevel" points="2093.84,1536.39 2093.84,1620.38"/>
<polyline class="Stem" fill="none" stroke="#000000" stroke-width="2.75" stroke-linejoin="bevel" points="2281.64,1548.89 2281.64,1629.75"/>
<polyline class="Stem" fill="none" stroke="#000000" stroke-width="2.75" stroke-linejoin="bevel" points="2434.93,1561.31 2434.93,1639.13"/>
<polyline class="Stem" fill="none" stroke="#000000" stroke-width="2.75" stroke-linejoin="bevel" points="486.121,741.963 486.121,657.818"/>
<polyline class="Stem" fill="none" stroke="#000000" stroke-width="2.75" stroke-linejoin="bevel" points="618.518,729.463 618.518,645.317"/>
<polyline class="Stem" fill="none" stroke="#000000" stroke-width="2.75" stroke-linejoin="bevel" points="750.915,716.962 750.915,635.942"/>
<polyline class="Stem" fill="none" stroke="#000000" stroke-width="2.75" stroke-linejoin="bevel" points="883.312,704.461 883.312,626.566"/>
<polyline class="Stem" fill="none" stroke="#000000" stroke-width="2.75" stroke-linejoin="bevel" points="1022.97,698.841 1022.97,773.45"/>
<polyline class="Stem" fill="none" stroke="#000000" stroke-width="2.75" stroke-linejoin="bevel" points="1157.65,686.34 1157.65,764.075"/>
<polyline class="Stem" fill="none" stroke="#000000" stroke-width="2.75" stroke-linejoin="bevel" points="1292.32,673.839 1292.32,754.699"/>
<polyline class="Stem" fill="none" stroke="#000000" stroke-width="2.75" stroke-linejoin="bevel" points="1427,661.338 1427,745.324"/>
<polyline class="Stem" fill="none" stroke="#000000" stroke-width="2.75" stroke-linejoin="bevel" points="1713.33,648.837 1713.33,732.823"/>
<polyline class="Stem" fill="none" stroke="#000000" stroke-width="2.75" stroke-linejoin="bevel" points="1842.76,636.337 1842.76,720.322"/>
<polyline class="Stem" fill="none" stroke="#000000" stroke-width="2.75" stroke-linejoin="bevel" points="1972.18,623.836 1972.18,707.821"/>
<polyline class="Stem" fill="none" stroke="#000000" stroke-width="2.75" stroke-linejoin="bevel" points="2101.61,611.335 2101.61,695.32"/>
<polyline class="Stem" fill="none" stroke="#000000" stroke-width="2.75" stroke-linejoin="bevel" points="2276.79,598.834 2276.79,695.32"/>
<polyline class="Stem" fill="none" stroke="#000000" stroke-width="2.75" stroke-linejoin="bevel" points="2411.43,586.334 2411.43,695.32"/>
<polyline class="Stem" fill="none" stroke="#000000" stroke-width="2.75" stroke-linejoin="bevel" points="2546.08,573.753 2546.08,695.32"/>
<polyline class="Stem" fill="none" stroke="#000000" stroke-width="2.75" stroke-linejoin="bevel" points="408.226,1198.87 408.226,1307.86"/>
<polyline class="Stem" fill="none" stroke="#000000" stroke-width="2.75" stroke-linejoin="bevel" points="552.245,1211.37 552.245,1307.86"/>
<polyline class="Stem" fill="none" stroke="#000000" stroke-width="2.75" stroke-linejoin="bevel" points="696.264,1223.87 696.264,1307.86"/>
<polyline class="Stem" fill="none" stroke="#000000" stroke-width="2.75" stroke-linejoin="bevel" points="840.283,1236.37 840.283,1320.36"/>
<polyline class="Stem" fill="none" stroke="#000000" stroke-width="2.75" stroke-linejoin="bevel" points="1021.3,1248.88 1021.3,1332.86"/>
<polyline class="Stem" fill="none" stroke="#000000" stroke-width="2.75" stroke-linejoin="bevel" points="1160.42,1261.38 1160.42,1345.36"/>
<polyline class="Stem" fill="none" stroke="#000000" stroke-width="2.75" stroke-linejoin="bevel" points="1299.53,1273.88 1299.53,1357.86"/>
<polyline class="Stem" fill="none" stroke="#000000" stroke-width="2.75" stroke-linejoin="bevel" points="1438.64,1286.38 1438.64,1367.24"/>
<polyline class="Stem" fill="none" stroke="#000000" stroke-width="2.75" stroke-linejoin="bevel" points="1701.16,1298.88 1701.16,1376.61"/>
<polyline class="Stem" fill="none" stroke="#000000" stroke-width="2.75" stroke-linejoin="bevel" points="1832.06,1311.38 1832.06,1385.99"/>
<polyline class="Stem" fill="none" stroke="#000000" stroke-width="2.75" stroke-linejoin="bevel" points="1992.69,1317 1992.69,1239.1"/>
<polyline class="Stem" fill="none" stroke="#000000" stroke-width="2.75" stroke-linejoin="bevel" points="2123.59,1329.5 2123.59,1248.48"/>
<polyline class="Stem" fill="none" stroke="#000000" stroke-width="2.75" stroke-linejoin="bevel" points="2311.38,1342 2311.38,1257.86"/>
<polyline class="Stem" fill="none" stroke="#000000" stroke-width="2.75" stroke-linejoin="bevel" points="2464.68,1354.42 2464.68,1270.36"/>
<path class="Note" d="M486.502,937.136 C485.002,934.436 482.102,932.736 478.202,932.336 C477.602,932.236 477.102,932.236 476.502,932.236 C473.002,932.236 469.202,933.236 465.702,935.136 C459.102,938.736 455.002,944.636 455.002,949.736 C455.002,951.136 455.202,952.436 455.902,953.636 C457.402,956.336 460.402,958.036 464.302,958.436 C464.902,958.536 465.402,958.536 466.002,958.536 C469.502,958.536 473.202,957.536 476.702,955.636 C483.302,952.036 487.502,946.236 487.502,941.136 C487.502,939.736 487.202,938.336 486.502,937.136"/>
<path class="Note" d="M618.899,924.635 C617.399,921.935 614.499,920.235 610.599,919.835 C609.999,919.735 609.499,919.735 608.899,919.735 C605.399,919.735 601.599,920.735 598.099,922.635 C591.499,926.235 587.399,932.135 587.399,937.235 C587.399,938.635 587.599,939.935 588.299,941.135 C589.799,943.835 592.799,945.535 596.699,945.935 C597.299,946.035 597.799,946.035 598.399,946.035 C601.899,946.035 605.599,945.035 609.099,943.135 C615.699,939.535 619.899,933.735 619.899,928.635 C619.899,927.235 619.599,925.835 618.899,924.635"/>
<path class="Note" d="M751.296,912.135 C749.796,909.435 746.896,907.735 742.996,907.335 C742.396,907.235 741.896,907.235 741.296,907.235 C737.796,907.235 733.996,908.235 730.496,910.135 C723.896,913.735 719.796,919.635 719.796,924.735 C719.796,926.135 719.996,927.435 720.696,928.635 C722.196,931.335 725.196,933.035 729.096,933.435 C729.696,933.535 730.196,933.535 730.796,933.535 C734.296,933.535 737.996,932.535 741.496,930.635 C748.096,927.035 752.296,921.235 752.296,916.135 C752.296,914.735 751.996,913.335 751.296,912.135"/>
<path class="Note" d="M883.693,899.634 C882.193,896.934 879.293,895.234 875.393,894.834 C874.793,894.734 874.293,894.734 873.693,894.734 C870.193,894.734 866.393,895.734 862.893,897.634 C856.293,901.234 852.193,907.134 852.193,912.234 C852.193,913.634 852.393,914.934 853.093,916.134 C854.593,918.834 857.593,920.534 861.493,920.934 C862.093,921.034 862.593,921.034 863.193,921.034 C866.693,921.034 870.393,920.034 873.893,918.134 C880.493,914.534 884.693,908.734 884.693,903.634 C884.693,902.234 884.393,900.834 883.693,899.634"/>
<path class="Note" d="M1053.09,887.133 C1051.59,884.433 1048.69,882.733 1044.79,882.333 C1044.19,882.233 1043.69,882.233 1043.09,882.233 C1039.59,882.233 1035.79,883.233 1032.29,885.133 C1025.69,888.733 1021.59,894.633 1021.59,899.733 C1021.59,901.133 1021.79,902.433 1022.49,903.633 C1023.99,906.333 1026.99,908.033 1030.89,908.433 C1031.49,908.533 1031.99,908.533 1032.59,908.533 C1036.09,908.533 1039.79,907.533 1043.29,905.633 C1049.89,902.033 1054.09,896.233 1054.09,891.133 C1054.09,889.733 1053.79,888.333 1053.09,887.133"/>
<path class="Note" d="M1187.77,874.632 C1186.27,871.932 1183.37,870.232 1179.47,869.832 C1178.87,869.732 1178.37,869.732 1177.77,869.732 C1174.27,869.732 1170.47,870.732 1166.97,872.632 C1160.37,876.232 1156.27,882.132 1156.27,887.232 C1156.27,888.632 1156.47,889.932 1157.17,891.132 C1158.67,893.832 1161.67,895.532 1165.57,895.932 C1166.17,896.032 1166.67,896.032 1167.27,896.032 C1170.77,896.032 1174.47,895.032 1177.97,893.132 C1184.57,889.532 1188.77,883.732 1188.77,878.632 C1188.77,877.232 1188.47,875.832 1187.77,874.632"/>
<path class="Note" d="M1322.45,862.131 C1320.95,859.431 1318.05,857.731 1314.15,857.331 C1313.55,857.231 1313.05,857.231 1312.45,857.231 C1308.95,857.231 1305.15,858.231 1301.65,860.131 C1295.05,863.731 1290.95,869.631 1290.95,874.731 C1290.95,876.131 1291.15,877.431 1291.85,878.631 C1293.35,881.331 1296.35,883.031 1300.25,883.431 C1300.85,883.531 1301.35,883.531 1301.95,883.531 C1305.45,883.531 1309.15,882.531 1312.65,880.631 C1319.25,877.031 1323.45,871.231 1323.45,866.131 C1323.45,864.731 1323.15,863.331 1322.45,862.131"/>
<path class="Note" d="M1457.13,849.631 C1455.63,846.931 1452.73,845.231 1448.83,844.831 C1448.23,844.731 1447.73,844.731 1447.13,844.731 C1443.63,844.731 1439.83,845.731 1436.33,847.631 C1429.73,851.231 1425.63,857.131 1425.63,862.231 C1425.63,863.631 1425.83,864.931 1426.53,866.131 C1428.03,868.831 1431.03,870.531 1434.93,870.931 C1435.53,871.031 1436.03,871.031 1436.63,871.031 C1440.13,871.031 1443.83,870.031 1447.33,868.131 C1453.93,864.531 1458.13,858.731 1458.13,853.631 C1458.13,852.231 1457.83,850.831 1457.13,849.631"/>
<path class="Note" d="M1743.45,987.139 C1741.95,984.439 1739.05,982.739 1735.15,982.339 C1734.55,982.239 1734.05,982.239 1733.45,982.239 C1729.95,982.239 1726.15,983.239 1722.65,985.139 C1716.05,988.739 1711.95,994.639 1711.95,999.739 C1711.95,1001.14 1712.15,1002.44 1712.85,1003.64 C1714.35,1006.34 1717.35,1008.04 1721.25,1008.44 C1721.85,1008.54 1722.35,1008.54 1722.95,1008.54 C1726.45,1008.54 1730.15,1007.54 1733.65,1005.64 C1740.25,1002.04 1744.45,996.239 1744.45,991.139 C1744.45,989.739 1744.15,988.339 1743.45,987.139"/>
<path class="Note" d="M1872.88,974.639 C1871.38,971.939 1868.48,970.239 1864.58,969.839 C1863.98,969.739 1863.48,969.739 1862.88,969.739 C1859.38,969.739 1855.58,970.739 1852.08,972.639 C1845.48,976.239 1841.38,982.139 1841.38,987.239 C1841.38,988.639 1841.58,989.939 1842.28,991.139 C1843.78,993.839 1846.78,995.539 1850.68,995.939 C1851.28,996.039 1851.78,996.039 1852.38,996.039 C1855.88,996.039 1859.58,995.039 1863.08,993.139 C1869.68,989.539 1873.88,983.739 1873.88,978.639 C1873.88,977.239 1873.58,975.839 1872.88,974.639"/>
<path class="Note" d="M2002.31,962.138 C2000.81,959.438 1997.91,957.738 1994.01,957.338 C1993.41,957.238 1992.91,957.238 1992.31,957.238 C1988.81,957.238 1985.01,958.238 1981.51,960.138 C1974.91,963.738 1970.81,969.638 1970.81,974.738 C1970.81,976.138 1971.01,977.438 1971.71,978.638 C1973.21,981.338 1976.21,983.038 1980.11,983.438 C1980.71,983.538 1981.21,983.538 1981.81,983.538 C1985.31,983.538 1989.01,982.538 1992.51,980.638 C1999.11,977.038 2003.31,971.238 2003.31,966.138 C2003.31,964.738 2003.01,963.338 2002.31,962.138"/>
<path class="Note" d="M2131.73,949.637 C2130.23,946.937 2127.33,945.237 2123.43,944.837 C2122.83,944.737 2122.33,944.737 2121.73,944.737 C2118.23,944.737 2114.43,945.737 2110.93,947.637 C2104.33,951.237 2100.23,957.137 2100.23,962.237 C2100.23,963.637 2100.43,964.937 2101.13,966.137 C2102.63,968.837 2105.63,970.537 2109.53,970.937 C2110.13,971.037 2110.63,971.037 2111.23,971.037 C2114.73,971.037 2118.43,970.037 2121.93,968.137 C2128.53,964.537 2132.73,958.737 2132.73,953.637 C2132.73,952.237 2132.43,950.837 2131.73,949.637"/>
<path class="Note" d="M2306.91,937.136 C2305.41,934.436 2302.51,932.736 2298.61,932.336 C2298.01,932.236 2297.51,932.236 2296.91,932.236 C2293.41,932.236 2289.61,933.236 2286.11,935.136 C2279.51,938.736 2275.41,944.636 2275.41,949.736 C2275.41,951.136 2275.61,952.436 2276.31,953.636 C2277.81,956.336 2280.81,958.036 2284.71,958.436 C2285.31,958.536 2285.81,958.536 2286.41,958.536 C2289.91,958.536 2293.61,957.536 2297.11,955.636 C2303.71,952.036 2307.91,946.236 2307.91,941.136 C2307.91,939.736 2307.61,938.336 2306.91,937.136"/>
<path class="Note" d="M2441.56,924.635 C2440.06,921.935 2437.16,920.235 2433.26,919.835 C2432.66,919.735 2432.16,919.735 2431.56,919.735 C2428.06,919.735 2424.26,920.735 2420.76,922.635 C2414.16,926.235 2410.06,932.135 2410.06,937.235 C2410.06,938.635 2410.26,939.935 2410.96,941.135 C2412.46,943.835 2415.46,945.535 2419.36,945.935 C2419.96,946.035 2420.46,946.035 2421.06,946.035 C2424.56,946.035 2428.26,945.035 2431.76,943.135 C2438.36,939.535 2442.56,933.735 2442.56,928.635 C2442.56,927.235 2442.26,925.835 2441.56,924.635"/>
<path class="Note" d="M2576.2,912.135 C2574.7,909.435 2571.8,907.735 2567.9,907.335 C2567.3,907.235 2566.8,907.235 2566.2,907.235 C2562.7,907.235 2558.9,908.235 2555.4,910.135 C2548.8,913.735 2544.7,919.535 2544.7,924.635 C2544.7,926.035 2545.1,927.435 2545.8,928.635 C2547.3,931.435 2550.1,933.035 2554,933.435 C2554.6,933.535 2555.1,933.535 2555.7,933.535 C2559.2,933.535 2563,932.535 2566.5,930.635 C2573.1,927.035 2577.2,921.135 2577.2,916.035 C2577.2,914.635 2576.9,913.335 2576.2,912.135 M2572,918.435 C2570.3,920.235 2567.1,922.535 2563.5,924.635 C2559.9,926.735 2556.2,928.435 2553.9,929.135 C2553.4,929.235 2552.8,929.335 2552.3,929.335 C2550.8,929.335 2549.5,928.635 2548.8,927.535 C2548.5,926.935 2548.3,926.335 2548.3,925.735 C2548.3,924.635 2548.8,923.535 2549.9,922.335 C2551.6,920.535 2554.8,918.135 2558.4,916.035 C2562,913.935 2565.7,912.235 2568.1,911.635 L2568.3,911.635 C2568.9,911.435 2569.4,911.335 2569.9,911.335 C2571.3,911.335 2572.4,911.935 2573.1,913.235 C2573.4,913.835 2573.6,914.335 2573.6,914.935 C2573.6,916.235 2572.9,917.535 2572,918.435"/>
<path class="Note" d="M438.351,1537.17 C436.851,1534.47 433.951,1532.77 430.051,1532.37 C429.451,1532.27 428.951,1532.27 428.351,1532.27 C424.851,1532.27 421.051,1533.27 417.551,1535.17 C410.951,1538.77 406.851,1544.67 406.851,1549.77 C406.851,1551.17 407.051,1552.47 407.751,1553.67 C409.251,1556.37 412.251,1558.07 416.151,1558.47 C416.751,1558.57 417.251,1558.57 417.851,1558.57 C421.351,1558.57 425.051,1557.57 428.551,1555.67 C435.151,1552.07 439.351,1546.27 439.351,1541.17 C439.351,1539.77 439.051,1538.37 438.351,1537.17"/>
<path class="Note" d="M582.37,1549.67 C580.87,1546.97 577.97,1545.27 574.07,1544.87 C573.47,1544.77 572.97,1544.77 572.37,1544.77 C568.87,1544.77 565.07,1545.77 561.57,1547.67 C554.97,1551.27 550.87,1557.17 550.87,1562.27 C550.87,1563.67 551.07,1564.97 551.77,1566.17 C553.27,1568.87 556.27,1570.57 560.17,1570.97 C560.77,1571.07 561.27,1571.07 561.87,1571.07 C565.37,1571.07 569.07,1570.07 572.57,1568.17 C579.17,1564.57 583.37,1558.77 583.37,1553.67 C583.37,1552.27 583.07,1550.87 582.37,1549.67"/>
<path class="Note" d="M726.389,1562.18 C724.889,1559.48 721.989,1557.78 718.089,1557.38 C717.489,1557.28 716.989,1557.28 716.389,1557.28 C712.889,1557.28 709.089,1558.28 705.589,1560.18 C698.989,1563.78 694.889,1569.68 694.889,1574.78 C694.889,1576.18 695.089,1577.48 695.789,1578.68 C697.289,1581.38 700.289,1583.08 704.189,1583.48 C704.789,1583.58 705.289,1583.58 705.889,1583.58 C709.389,1583.58 713.089,1582.58 716.589,1580.68 C723.189,1577.08 727.389,1571.28 727.389,1566.18 C727.389,1564.78 727.089,1563.38 726.389,1562.18"/>
<path class="Note" d="M870.408,1574.68 C868.908,1571.98 866.008,1570.28 862.108,1569.88 C861.508,1569.78 861.008,1569.78 860.408,1569.78 C856.908,1569.78 853.108,1570.78 849.608,1572.68 C843.008,1576.28 838.908,1582.18 838.908,1587.28 C838.908,1588.68 839.108,1589.98 839.808,1591.18 C841.308,1593.88 844.308,1595.58 848.208,1595.98 C848.808,1596.08 849.308,1596.08 849.908,1596.08 C853.408,1596.08 857.108,1595.08 860.608,1593.18 C867.208,1589.58 871.408,1583.78 871.408,1578.68 C871.408,1577.28 871.108,1575.88 870.408,1574.68"/>
<path class="Note" d="M1051.43,1587.18 C1049.93,1584.48 1047.03,1582.78 1043.13,1582.38 C1042.53,1582.28 1042.03,1582.28 1041.43,1582.28 C1037.93,1582.28 1034.13,1583.28 1030.63,1585.18 C1024.03,1588.78 1019.93,1594.68 1019.93,1599.78 C1019.93,1601.18 1020.13,1602.48 1020.83,1603.68 C1022.33,1606.38 1025.33,1608.08 1029.23,1608.48 C1029.83,1608.58 1030.33,1608.58 1030.93,1608.58 C1034.43,1608.58 1038.13,1607.58 1041.63,1605.68 C1048.23,1602.08 1052.43,1596.28 1052.43,1591.18 C1052.43,1589.78 1052.13,1588.38 1051.43,1587.18"/>
<path class="Note" d="M1190.54,1599.68 C1189.04,1596.98 1186.14,1595.28 1182.24,1594.88 C1181.64,1594.78 1181.14,1594.78 1180.54,1594.78 C1177.04,1594.78 1173.24,1595.78 1169.74,1597.68 C1163.14,1601.28 1159.04,1607.18 1159.04,1612.28 C1159.04,1613.68 1159.24,1614.98 1159.94,1616.18 C1161.44,1618.88 1164.44,1620.58 1168.34,1620.98 C1168.94,1621.08 1169.44,1621.08 1170.04,1621.08 C1173.54,1621.08 1177.24,1620.08 1180.74,1618.18 C1187.34,1614.58 1191.54,1608.78 1191.54,1603.68 C1191.54,1602.28 1191.24,1600.88 1190.54,1599.68"/>
<path class="Note" d="M1329.66,1612.18 C1328.16,1609.48 1325.26,1607.78 1321.36,1607.38 C1320.76,1607.28 1320.26,1607.28 1319.66,1607.28 C1316.16,1607.28 1312.36,1608.28 1308.86,1610.18 C1302.26,1613.78 1298.16,1619.68 1298.16,1624.78 C1298.16,1626.18 1298.36,1627.48 1299.06,1628.68 C1300.56,1631.38 1303.56,1633.08 1307.46,1633.48 C1308.06,1633.58 1308.56,1633.58 1309.16,1633.58 C1312.66,1633.58 1316.36,1632.58 1319.86,1630.68 C1326.46,1627.08 1330.66,1621.28 1330.66,1616.18 C1330.66,1614.78 1330.36,1613.38 1329.66,1612.18"/>
<path class="Note" d="M1468.77,1624.68 C1467.27,1621.98 1464.37,1620.28 1460.47,1619.88 C1459.87,1619.78 1459.37,1619.78 1458.77,1619.78 C1455.27,1619.78 1451.47,1620.78 1447.97,1622.68 C1441.37,1626.28 1437.27,1632.18 1437.27,1637.28 C1437.27,1638.68 1437.47,1639.98 1438.17,1641.18 C1439.67,1643.88 1442.67,1645.58 1446.57,1645.98 C1447.17,1646.08 1447.67,1646.08 1448.27,1646.08 C1451.77,1646.08 1455.47,1645.08 1458.97,1643.18 C1465.57,1639.58 1469.77,1633.78 1469.77,1628.68 C1469.77,1627.28 1469.47,1625.88 1468.77,1624.68"/>
<path class="Note" d="M1731.29,1487.17 C1729.79,1484.47 1726.89,1482.77 1722.99,1482.37 C1722.39,1482.27 1721.89,1482.27 1721.29,1482.27 C1717.79,1482.27 1713.99,1483.27 1710.49,1485.17 C1703.89,1488.77 1699.79,1494.67 1699.79,1499.77 C1699.79,1501.17 1699.99,1502.47 1700.69,1503.67 C1702.19,1506.37 1705.19,1508.07 1709.09,1508.47 C1709.69,1508.57 1710.19,1508.57 1710.79,1508.57 C1714.29,1508.57 1717.99,1507.57 1721.49,1505.67 C1728.09,1502.07 1732.29,1496.27 1732.29,1491.17 C1732.29,1489.77 1731.99,1488.37 1731.29,1487.17"/>
<path class="Note" d="M1862.18,1499.67 C1860.68,1496.97 1857.78,1495.27 1853.88,1494.87 C1853.28,1494.77 1852.78,1494.77 1852.18,1494.77 C1848.68,1494.77 1844.88,1495.77 1841.38,1497.67 C1834.78,1501.27 1830.68,1507.17 1830.68,1512.27 C1830.68,1513.67 1830.88,1514.97 1831.58,1516.17 C1833.08,1518.87 1836.08,1520.57 1839.98,1520.97 C1840.58,1521.07 1841.08,1521.07 1841.68,1521.07 C1845.18,1521.07 1848.88,1520.07 1852.38,1518.17 C1858.98,1514.57 1863.18,1508.77 1863.18,1503.67 C1863.18,1502.27 1862.88,1500.87 1862.18,1499.67"/>
<path class="Note" d="M1993.08,1512.17 C1991.58,1509.47 1988.68,1507.77 1984.78,1507.37 C1984.18,1507.27 1983.68,1507.27 1983.08,1507.27 C1979.58,1507.27 1975.78,1508.27 1972.28,1510.17 C1965.68,1513.77 1961.58,1519.67 1961.58,1524.77 C1961.58,1526.17 1961.78,1527.47 1962.48,1528.67 C1963.98,1531.37 1966.98,1533.07 1970.88,1533.47 C1971.48,1533.57 1971.98,1533.57 1972.58,1533.57 C1976.08,1533.57 1979.78,1532.57 1983.28,1530.67 C1989.88,1527.07 1994.08,1521.27 1994.08,1516.17 C1994.08,1514.77 1993.78,1513.37 1993.08,1512.17"/>
<path class="Note" d="M2123.97,1524.67 C2122.47,1521.97 2119.57,1520.27 2115.67,1519.87 C2115.07,1519.77 2114.57,1519.77 2113.97,1519.77 C2110.47,1519.77 2106.67,1520.77 2103.17,1522.67 C2096.57,1526.27 2092.47,1532.17 2092.47,1537.27 C2092.47,1538.67 2092.67,1539.97 2093.37,1541.17 C2094.87,1543.87 2097.87,1545.57 2101.77,1545.97 C2102.37,1546.07 2102.87,1546.07 2103.47,1546.07 C2106.97,1546.07 2110.67,1545.07 2114.17,1543.17 C2120.77,1539.57 2124.97,1533.77 2124.97,1528.67 C2124.97,1527.27 2124.67,1525.87 2123.97,1524.67"/>
<path class="Note" d="M2311.76,1537.17 C2310.26,1534.47 2307.36,1532.77 2303.46,1532.37 C2302.86,1532.27 2302.36,1532.27 2301.76,1532.27 C2298.26,1532.27 2294.46,1533.27 2290.96,1535.17 C2284.36,1538.77 2280.26,1544.67 2280.26,1549.77 C2280.26,1551.17 2280.46,1552.47 2281.16,1553.67 C2282.66,1556.37 2285.66,1558.07 2289.56,1558.47 C2290.16,1558.57 2290.66,1558.57 2291.26,1558.57 C2294.76,1558.57 2298.46,1557.57 2301.96,1555.67 C2308.56,1552.07 2312.76,1546.27 2312.76,1541.17 C2312.76,1539.77 2312.46,1538.37 2311.76,1537.17"/>
<path class="Note" d="M2465.06,1549.67 C2463.56,1546.97 2460.66,1545.27 2456.76,1544.87 C2456.16,1544.77 2455.66,1544.77 2455.06,1544.77 C2451.56,1544.77 2447.76,1545.77 2444.26,1547.67 C2437.66,1551.27 2433.56,1557.07 2433.56,1562.17 C2433.56,1563.57 2433.96,1564.97 2434.66,1566.17 C2436.16,1568.97 2438.96,1570.57 2442.86,1570.97 C2443.46,1571.07 2443.96,1571.07 2444.56,1571.07 C2448.06,1571.07 2451.86,1570.07 2455.36,1568.17 C2461.96,1564.57 2466.06,1558.67 2466.06,1553.57 C2466.06,1552.17 2465.76,1550.87 2465.06,1549.67 M2460.86,1555.97 C2459.16,1557.77 2455.96,1560.07 2452.36,1562.17 C2448.76,1564.27 2445.06,1565.97 2442.76,1566.67 C2442.26,1566.77 2441.66,1566.87 2441.16,1566.87 C2439.66,1566.87 2438.36,1566.17 2437.66,1565.07 C2437.36,1564.47 2437.16,1563.87 2437.16,1563.27 C2437.16,1562.17 2437.66,1561.07 2438.76,1559.87 C2440.46,1558.07 2443.66,1555.67 2447.26,1553.57 C2450.86,1551.47 2454.56,1549.77 2456.96,1549.17 L2457.16,1549.17 C2457.76,1548.97 2458.26,1548.87 2458.76,1548.87 C2460.16,1548.87 2461.26,1549.47 2461.96,1550.77 C2462.26,1551.37 2462.46,1551.87 2462.46,1552.47 C2462.46,1553.77 2461.76,1555.07 2460.86,1555.97"/>
<path class="Note" d="M486.502,737.124 C485.002,734.424 482.102,732.724 478.202,732.324 C477.602,732.224 477.102,732.224 476.502,732.224 C473.002,732.224 469.202,733.224 465.702,735.124 C459.102,738.724 455.002,744.624 455.002,749.724 C455.002,751.124 455.202,752.424 455.902,753.624 C457.402,756.324 460.402,758.024 464.302,758.424 C464.902,758.524 465.402,758.524 466.002,758.524 C469.502,758.524 473.202,757.524 476.702,755.624 C483.302,752.024 487.502,746.224 487.502,741.124 C487.502,739.724 487.202,738.324 486.502,737.124"/>
<path class="Note" d="M618.899,724.623 C617.399,721.923 614.499,720.223 610.599,719.823 C609.999,719.723 609.499,719.723 608.899,719.723 C605.399,719.723 601.599,720.723 598.099,722.623 C591.499,726.223 587.399,732.123 587.399,737.223 C587.399,738.623 587.599,739.923 588.299,741.123 C589.799,743.823 592.799,745.523 596.699,745.923 C597.299,746.023 597.799,746.023 598.399,746.023 C601.899,746.023 605.599,745.023 609.099,743.123 C615.699,739.523 619.899,733.723 619.899,728.623 C619.899,727.223 619.599,725.823 618.899,724.623"/>
<path class="Note" d="M751.296,712.122 C749.796,709.422 746.896,707.722 742.996,707.322 C742.396,707.222 741.896,707.222 741.296,707.222 C737.796,707.222 733.996,708.222 730.496,710.122 C723.896,713.722 719.796,719.622 719.796,724.722 C719.796,726.122 719.996,727.422 720.696,728.622 C722.196,731.322 725.196,733.022 729.096,733.422 C729.696,733.522 730.196,733.522 730.796,733.522 C734.296,733.522 737.996,732.522 741.496,730.622 C748.096,727.022 752.296,721.222 752.296,716.122 C752.296,714.722 751.996,713.322 751.296,712.122"/>
<path class="Note" d="M883.693,699.621 C882.193,696.921 879.293,695.221 875.393,694.821 C874.793,694.721 874.293,694.721 873.693,694.721 C870.193,694.721 866.393,695.721 862.893,697.621 C856.293,701.221 852.193,707.121 852.193,712.221 C852.193,713.621 852.393,714.921 853.093,716.121 C854.593,718.821 857.593,720.521 861.493,720.921 C862.093,721.021 862.593,721.021 863.193,721.021 C866.693,721.021 870.393,720.021 873.893,718.121 C880.493,714.521 884.693,708.721 884.693,703.621 C884.693,702.221 884.393,700.821 883.693,699.621"/>
<path class="Note" d="M1053.09,687.12 C1051.59,684.42 1048.69,682.72 1044.79,682.32 C1044.19,682.22 1043.69,682.22 1043.09,682.22 C1039.59,682.22 1035.79,683.22 1032.29,685.12 C1025.69,688.72 1021.59,694.62 1021.59,699.72 C1021.59,701.12 1021.79,702.42 1022.49,703.62 C1023.99,706.32 1026.99,708.02 1030.89,708.42 C1031.49,708.52 1031.99,708.52 1032.59,708.52 C1036.09,708.52 1039.79,707.52 1043.29,705.62 C1049.89,702.02 1054.09,696.22 1054.09,691.12 C1054.09,689.72 1053.79,688.32 1053.09,687.12"/>
<path class="Note" d="M1187.77,674.62 C1186.27,671.92 1183.37,670.22 1179.47,669.82 C1178.87,669.72 1178.37,669.72 1177.77,669.72 C1174.27,669.72 1170.47,670.72 1166.97,672.62 C1160.37,676.22 1156.27,682.12 1156.27,687.22 C1156.27,688.62 1156.47,689.92 1157.17,691.12 C1158.67,693.82 1161.67,695.52 1165.57,695.92 C1166.17,696.02 1166.67,696.02 1167.27,696.02 C1170.77,696.02 1174.47,695.02 1177.97,693.12 C1184.57,689.52 1188.77,683.72 1188.77,678.62 C1188.77,677.22 1188.47,675.82 1187.77,674.62"/>
<path class="Note" d="M1322.45,662.119 C1320.95,659.419 1318.05,657.719 1314.15,657.319 C1313.55,657.219 1313.05,657.219 1312.45,657.219 C1308.95,657.219 1305.15,658.219 1301.65,660.119 C1295.05,663.719 1290.95,669.619 1290.95,674.719 C1290.95,676.119 1291.15,677.419 1291.85,678.619 C1293.35,681.319 1296.35,683.019 1300.25,683.419 C1300.85,683.519 1301.35,683.519 1301.95,683.519 C1305.45,683.519 1309.15,682.519 1312.65,680.619 C1319.25,677.019 1323.45,671.219 1323.45,666.119 C1323.45,664.719 1323.15,663.319 1322.45,662.119"/>
<path class="Note" d="M1457.13,649.618 C1455.63,646.918 1452.73,645.218 1448.83,644.818 C1448.23,644.718 1447.73,644.718 1447.13,644.718 C1443.63,644.718 1439.83,645.718 1436.33,647.618 C1429.73,651.218 1425.63,657.118 1425.63,662.218 C1425.63,663.618 1425.83,664.918 1426.53,666.118 C1428.03,668.818 1431.03,670.518 1434.93,670.918 C1435.53,671.018 1436.03,671.018 1436.63,671.018 C1440.13,671.018 1443.83,670.018 1447.33,668.118 C1453.93,664.518 1458.13,658.718 1458.13,653.618 C1458.13,652.218 1457.83,650.818 1457.13,649.618"/>
<path class="Note" d="M1743.45,637.117 C1741.95,634.417 1739.05,632.717 1735.15,632.317 C1734.55,632.217 1734.05,632.217 1733.45,632.217 C1729.95,632.217 1726.15,633.217 1722.65,635.117 C1716.05,638.717 1711.95,644.617 1711.95,649.717 C1711.95,651.117 1712.15,652.417 1712.85,653.617 C1714.35,656.317 1717.35,658.017 1721.25,658.417 C1721.85,658.517 1722.35,658.517 1722.95,658.517 C1726.45,658.517 1730.15,657.517 1733.65,655.617 C1740.25,652.017 1744.45,646.217 1744.45,641.117 C1744.45,639.717 1744.15,638.317 1743.45,637.117"/>
<path class="Note" d="M1872.88,624.616 C1871.38,621.916 1868.48,620.216 1864.58,619.816 C1863.98,619.716 1863.48,619.716 1862.88,619.716 C1859.38,619.716 1855.58,620.716 1852.08,622.616 C1845.48,626.216 1841.38,632.116 1841.38,637.216 C1841.38,638.616 1841.58,639.916 1842.28,641.116 C1843.78,643.816 1846.78,645.516 1850.68,645.916 C1851.28,646.016 1851.78,646.016 1852.38,646.016 C1855.88,646.016 1859.58,645.016 1863.08,643.116 C1869.68,639.516 1873.88,633.716 1873.88,628.616 C1873.88,627.216 1873.58,625.816 1872.88,624.616"/>
<path class="Note" d="M2002.31,612.116 C2000.81,609.416 1997.91,607.716 1994.01,607.316 C1993.41,607.216 1992.91,607.216 1992.31,607.216 C1988.81,607.216 1985.01,608.216 1981.51,610.116 C1974.91,613.716 1970.81,619.616 1970.81,624.716 C1970.81,626.116 1971.01,627.416 1971.71,628.616 C1973.21,631.316 1976.21,633.016 1980.11,633.416 C1980.71,633.516 1981.21,633.516 1981.81,633.516 C1985.31,633.516 1989.01,632.516 1992.51,630.616 C1999.11,627.016 2003.31,621.216 2003.31,616.116 C2003.31,614.716 2003.01,613.316 2002.31,612.116"/>
<path class="Note" d="M2131.73,599.615 C2130.23,596.915 2127.33,595.215 2123.43,594.815 C2122.83,594.715 2122.33,594.715 2121.73,594.715 C2118.23,594.715 2114.43,595.715 2110.93,597.615 C2104.33,601.215 2100.23,607.115 2100.23,612.215 C2100.23,613.615 2100.43,614.915 2101.13,616.115 C2102.63,618.815 2105.63,620.515 2109.53,620.915 C2110.13,621.015 2110.63,621.015 2111.23,621.015 C2114.73,621.015 2118.43,620.015 2121.93,618.115 C2128.53,614.515 2132.73,608.715 2132.73,603.615 C2132.73,602.215 2132.43,600.815 2131.73,599.615"/>
<path class="Note" d="M2306.91,587.114 C2305.41,584.414 2302.51,582.714 2298.61,582.314 C2298.01,582.214 2297.51,582.214 2296.91,582.214 C2293.41,582.214 2289.61,583.214 2286.11,585.114 C2279.51,588.714 2275.41,594.614 2275.41,599.714 C2275.41,601.114 2275.61,602.414 2276.31,603.614 C2277.81,606.314 2280.81,608.014 2284.71,608.414 C2285.31,608.514 2285.81,608.514 2286.41,608.514 C2289.91,608.514 2293.61,607.514 2297.11,605.614 C2303.71,602.014 2307.91,596.214 2307.91,591.114 C2307.91,589.714 2307.61,588.314 2306.91,587.114"/>
<path class="Note" d="M2441.56,574.613 C2440.06,571.913 2437.16,570.213 2433.26,569.813 C2432.66,569.713 2432.16,569.713 2431.56,569.713 C2428.06,569.713 2424.26,570.713 2420.76,572.613 C2414.16,576.213 2410.06,582.113 2410.06,587.213 C2410.06,588.613 2410.26,589.913 2410.96,591.113 C2412.46,593.813 2415.46,595.513 2419.36,595.913 C2419.96,596.013 2420.46,596.013 2421.06,596.013 C2424.56,596.013 2428.26,595.013 2431.76,593.113 C2438.36,589.513 2442.56,583.713 2442.56,578.613 C2442.56,577.213 2442.26,575.813 2441.56,574.613"/>
<path class="Note" d="M2576.2,562.113 C2574.7,559.413 2571.8,557.713 2567.9,557.313 C2567.3,557.213 2566.8,557.213 2566.2,557.213 C2562.7,557.213 2558.9,558.213 2555.4,560.113 C2548.8,563.713 2544.7,569.513 2544.7,574.613 C2544.7,576.013 2545.1,577.413 2545.8,578.613 C2547.3,581.413 2550.1,583.013 2554,583.413 C2554.6,583.513 2555.1,583.513 2555.7,583.513 C2559.2,583.513 2563,582.513 2566.5,580.613 C2573.1,577.013 2577.2,571.113 2577.2,566.013 C2577.2,564.613 2576.9,563.313 2576.2,562.113 M2572,568.413 C2570.3,570.213 2567.1,572.513 2563.5,574.613 C2559.9,576.713 2556.2,578.413 2553.9,579.113 C2553.4,579.213 2552.8,579.313 2552.3,579.313 C2550.8,579.313 2549.5,578.613 2548.8,577.513 C2548.5,576.913 2548.3,576.313 2548.3,575.713 C2548.3,574.613 2548.8,573.513 2549.9,572.313 C2551.6,570.513 2554.8,568.113 2558.4,566.013 C2562,563.913 2565.7,562.213 2568.1,561.613 L2568.3,561.613 C2568.9,561.413 2569.4,561.313 2569.9,561.313 C2571.3,561.313 2572.4,561.913 2573.1,563.213 C2573.4,563.813 2573.6,564.313 2573.6,564.913 C2573.6,566.213 2572.9,567.513 2572,568.413"/>
<path class="Note" d="M438.351,1187.15 C436.851,1184.45 433.951,1182.75 430.051,1182.35 C429.451,1182.25 428.951,1182.25 428.351,1182.25 C424.851,1182.25 421.051,1183.25 417.551,1185.15 C410.951,1188.75 406.851,1194.65 406.851,1199.75 C406.851,1201.15 407.051,1202.45 407.751,1203.65 C409.251,1206.35 412.251,1208.05 416.151,1208.45 C416.751,1208.55 417.251,1208.55 417.851,1208.55 C421.351,1208.55 425.051,1207.55 428.551,1205.65 C435.151,1202.05 439.351,1196.25 439.351,1191.15 C439.351,1189.75 439.051,1188.35 438.351,1187.15"/>
<path class="Note" d="M582.37,1199.65 C580.87,1196.95 577.97,1195.25 574.07,1194.85 C573.47,1194.75 572.97,1194.75 572.37,1194.75 C568.87,1194.75 565.07,1195.75 561.57,1197.65 C554.97,1201.25 550.87,1207.15 550.87,1212.25 C550.87,1213.65 551.07,1214.95 551.77,1216.15 C553.27,1218.85 556.27,1220.55 560.17,1220.95 C560.77,1221.05 561.27,1221.05 561.87,1221.05 C565.37,1221.05 569.07,1220.05 572.57,1218.15 C579.17,1214.55 583.37,1208.75 583.37,1203.65 C583.37,1202.25 583.07,1200.85 582.37,1199.65"/>
<path class="Note" d="M726.389,1212.15 C724.889,1209.45 721.989,1207.75 718.089,1207.35 C717.489,1207.25 716.989,1207.25 716.389,1207.25 C712.889,1207.25 709.089,1208.25 705.589,1210.15 C698.989,1213.75 694.889,1219.65 694.889,1224.75 C694.889,1226.15 695.089,1227.45 695.789,1228.65 C697.289,1231.35 700.289,1233.05 704.189,1233.45 C704.789,1233.55 705.289,1233.55 705.889,1233.55 C709.389,1233.55 713.089,1232.55 716.589,1230.65 C723.189,1227.05 727.389,1221.25 727.389,1216.15 C727.389,1214.75 727.089,1213.35 726.389,1212.15"/>
<path class="Note" d="M870.408,1224.65 C868.908,1221.95 866.008,1220.25 862.108,1219.85 C861.508,1219.75 861.008,1219.75 860.408,1219.75 C856.908,1219.75 853.108,1220.75 849.608,1222.65 C843.008,1226.25 838.908,1232.15 838.908,1237.25 C838.908,1238.65 839.108,1239.95 839.808,1241.15 C841.308,1243.85 844.308,1245.55 848.208,1245.95 C848.808,1246.05 849.308,1246.05 849.908,1246.05 C853.408,1246.05 857.108,1245.05 860.608,1243.15 C867.208,1239.55 871.408,1233.75 871.408,1228.65 C871.408,1227.25 871.108,1225.85 870.408,1224.65"/>
<path class="Note" d="M1051.43,1237.16 C1049.93,1234.46 1047.03,1232.76 1043.13,1232.36 C1042.53,1232.26 1042.03,1232.26 1041.43,1232.26 C1037.93,1232.26 1034.13,1233.26 1030.63,1235.16 C1024.03,1238.76 1019.93,1244.66 1019.93,1249.76 C1019.93,1251.16 1020.13,1252.46 1020.83,1253.66 C1022.33,1256.36 1025.33,1258.06 1029.23,1258.46 C1029.83,1258.56 1030.33,1258.56 1030.93,1258.56 C1034.43,1258.56 1038.13,1257.56 1041.63,1255.66 C1048.23,1252.06 1052.43,1246.26 1052.43,1241.16 C1052.43,1239.76 1052.13,1238.36 1051.43,1237.16"/>
<path class="Note" d="M1190.54,1249.66 C1189.04,1246.96 1186.14,1245.26 1182.24,1244.86 C1181.64,1244.76 1181.14,1244.76 1180.54,1244.76 C1177.04,1244.76 1173.24,1245.76 1169.74,1247.66 C1163.14,1251.26 1159.04,1257.16 1159.04,1262.26 C1159.04,1263.66 1159.24,1264.96 1159.94,1266.16 C1161.44,1268.86 1164.44,1270.56 1168.34,1270.96 C1168.94,1271.06 1169.44,1271.06 1170.04,1271.06 C1173.54,1271.06 1177.24,1270.06 1180.74,1268.16 C1187.34,1264.56 1191.54,1258.76 1191.54,1253.66 C1191.54,1252.26 1191.24,1250.86 1190.54,1249.66"/>
<path class="Note" d="M1329.66,1262.16 C1328.16,1259.46 1325.26,1257.76 1321.36,1257.36 C1320.76,1257.26 1320.26,1257.26 1319.66,1257.26 C1316.16,1257.26 1312.36,1258.26 1308.86,1260.16 C1302.26,1263.76 1298.16,1269.66 1298.16,1274.76 C1298.16,1276.16 1298.36,1277.46 1299.06,1278.66 C1300.56,1281.36 1303.56,1283.06 1307.46,1283.46 C1308.06,1283.56 1308.56,1283.56 1309.16,1283.56 C1312.66,1283.56 1316.36,1282.56 1319.86,1280.66 C1326.46,1277.06 1330.66,1271.26 1330.66,1266.16 C1330.66,1264.76 1330.36,1263.36 1329.66,1262.16"/>
<path class="Note" d="M1468.77,1274.66 C1467.27,1271.96 1464.37,1270.26 1460.47,1269.86 C1459.87,1269.76 1459.37,1269.76 1458.77,1269.76 C1455.27,1269.76 1451.47,1270.76 1447.97,1272.66 C1441.37,1276.26 1437.27,1282.16 1437.27,1287.26 C1437.27,1288.66 1437.47,1289.96 1438.17,1291.16 C1439.67,1293.86 1442.67,1295.56 1446.57,1295.96 C1447.17,1296.06 1447.67,1296.06 1448.27,1296.06 C1451.77,1296.06 1455.47,1295.06 1458.97,1293.16 C1465.57,1289.56 1469.77,1283.76 1469.77,1278.66 C1469.77,1277.26 1469.47,1275.86 1468.77,1274.66"/>
<path class="Note" d="M1731.29,1287.16 C1729.79,1284.46 1726.89,1282.76 1722.99,1282.36 C1722.39,1282.26 1721.89,1282.26 1721.29,1282.26 C1717.79,1282.26 1713.99,1283.26 1710.49,1285.16 C1703.89,1288.76 1699.79,1294.66 1699.79,1299.76 C1699.79,1301.16 1699.99,1302.46 1700.69,1303.66 C1702.19,1306.36 1705.19,1308.06 1709.09,1308.46 C1709.69,1308.56 1710.19,1308.56 1710.79,1308.56 C1714.29,1308.56 1717.99,1307.56 1721.49,1305.66 C1728.09,1302.06 1732.29,1296.26 1732.29,1291.16 C1732.29,1289.76 1731.99,1288.36 1731.29,1287.16"/>
<path class="Note" d="M1862.18,1299.66 C1860.68,1296.96 1857.78,1295.26 1853.88,1294.86 C1853.28,1294.76 1852.78,1294.76 1852.18,1294.76 C1848.68,1294.76 1844.88,1295.76 1841.38,1297.66 C1834.78,1301.26 1830.68,1307.16 1830.68,1312.26 C1830.68,1313.66 1830.88,1314.96 1831.58,1316.16 C1833.08,1318.86 1836.08,1320.56 1839.98,1320.96 C1840.58,1321.06 1841.08,1321.06 1841.68,1321.06 C1845.18,1321.06 1848.88,1320.06 1852.38,1318.16 C1858.98,1314.56 1863.18,1308.76 1863.18,1303.66 C1863.18,1302.26 1862.88,1300.86 1862.18,1299.66"/>
<path class="Note" d="M1993.08,1312.16 C1991.58,1309.46 1988.68,1307.76 1984.78,1307.36 C1984.18,1307.26 1983.68,1307.26 1983.08,1307.26 C1979.58,1307.26 1975.78,1308.26 1972.28,1310.16 C1965.68,1313.76 1961.58,1319.66 1961.58,1324.76 C1961.58,1326.16 1961.78,1327.46 1962.48,1328.66 C1963.98,1331.36 1966.98,1333.06 1970.88,1333.46 C1971.48,1333.56 1971.98,1333.56 1972.58,1333.56 C1976.08,1333.56 1979.78,1332.56 1983.28,1330.66 C1989.88,1327.06 1994.08,1321.26 1994.08,1316.16 C1994.08,1314.76 1993.78,1313.36 1993.08,1312.16"/>
<path class="Note" d="M2123.97,1324.66 C2122.47,1321.96 2119.57,1320.26 2115.67,1319.86 C2115.07,1319.76 2114.57,1319.76 2113.97,1319.76 C2110.47,1319.76 2106.67,1320.76 2103.17,1322.66 C2096.57,1326.26 2092.47,1332.16 2092.47,1337.26 C2092.47,1338.66 2092.67,1339.96 2093.37,1341.16 C2094.87,1343.86 2097.87,1345.56 2101.77,1345.96 C2102.37,1346.06 2102.87,1346.06 2103.47,1346.06 C2106.97,1346.06 2110.67,1345.06 2114.17,1343.16 C2120.77,1339.56 2124.97,1333.76 2124.97,1328.66 C2124.97,1327.26 2124.67,1325.86 2123.97,1324.66"/>
<path class="Note" d="M2311.76,1337.16 C2310.26,1334.46 2307.36,1332.76 2303.46,1332.36 C2302.86,1332.26 2302.36,1332.26 2301.76,1332.26 C2298.26,1332.26 2294.46,1333.26 2290.96,1335.16 C2284.36,1338.76 2280.26,1344.66 2280.26,1349.76 C2280.26,1351.16 2280.46,1352.46 2281.16,1353.66 C2282.66,1356.36 2285.66,1358.06 2289.56,1358.46 C2290.16,1358.56 2290.66,1358.56 2291.26,1358.56 C2294.76,1358.56 2298.46,1357.56 2301.96,1355.66 C2308.56,1352.06 2312.76,1346.26 2312.76,1341.16 C2312.76,1339.76 2312.46,1338.36 2311.76,1337.16"/>
<path class="Note" d="M2465.06,1349.66 C2463.56,1346.96 2460.66,1345.26 2456.76,1344.86 C2456.16,1344.76 2455.66,1344.76 2455.06,1344.76 C2451.56,1344.76 2447.76,1345.76 2444.26,1347.66 C2437.66,1351.26 2433.56,1357.06 2433.56,1362.16 C2433.56,1363.56 2433.96,1364.96 2434.66,1366.16 C2436.16,1368.96 2438.96,1370.56 2442.86,1370.96 C2443.46,1371.06 2443.96,1371.06 2444.56,1371.06 C2448.06,1371.06 2451.86,1370.06 2455.36,1368.16 C2461.96,1364.56 2466.06,1358.66 2466.06,1353.56 C2466.06,1352.16 2465.76,1350.86 2465.06,1349.66 M2460.86,1355.96 C2459.16,1357.76 2455.96,1360.06 2452.36,1362.16 C2448.76,1364.26 2445.06,1365.96 2442.76,1366.66 C2442.26,1366.76 2441.66,1366.86 2441.16,1366.86 C2439.66,1366.86 2438.36,1366.16 2437.66,1365.06 C2437.36,1364.46 2437.16,1363.86 2437.16,1363.26 C2437.16,1362.16 2437.66,1361.06 2438.76,1359.86 C2440.46,1358.06 2443.66,1355.66 2447.26,1353.56 C2450.86,1351.46 2454.56,1349.76 2456.96,1349.16 L2457.16,1349.16 C2457.76,1348.96 2458.26,1348.86 2458.76,1348.86 C2460.16,1348.86 2461.26,1349.46 2461.96,1350.76 C2462.26,1351.36 2462.46,1351.86 2462.46,1352.46 C2462.46,1353.76 2461.76,1355.06 2460.86,1355.96"/>
<path class="Clef" d="M297,907.735 C289.4,907.735 283.3,912.135 283.2,912.135 C277.4,916.435 275.1,921.535 274.2,925.035 C273.7,926.835 273.5,928.635 273.5,930.335 C273.5,932.735 273.9,934.935 274.8,936.835 C276,939.535 278.3,941.435 281.3,942.435 C282.5,942.835 283.8,943.035 285.1,943.035 C287.3,943.035 289.6,942.435 291.5,941.335 C294.6,939.635 296.5,936.035 296.5,932.135 C296.5,928.635 294.7,925.435 291.7,923.535 C289.6,922.135 287.6,921.735 285.9,921.735 C284.7,921.735 283.6,921.935 282.7,922.235 C281.7,922.635 280,923.635 279.2,924.335 C279.5,922.435 280.7,919.535 281.8,917.935 C282.9,916.335 285.1,914.335 286.8,913.435 C289.3,912.035 292.5,911.435 296,911.435 C306.2,911.435 311.2,919.635 311.2,936.435 C311.2,945.735 307.7,954.635 304.7,960.535 C301.4,967.135 297,973.435 293.1,976.935 C282.7,986.435 272.9,990.935 272.8,990.935 C272.8,990.935 271.3,991.835 271.7,993.335 C272,994.335 272.9,994.535 273.5,994.535 C273.6,994.535 273.9,994.435 274,994.435 C274.1,994.435 285.5,989.735 294.6,982.635 C299.7,978.935 304.3,974.935 308.3,970.635 C311.9,966.735 315,962.535 317.5,958.335 C321.9,950.835 324.4,943.035 324.4,936.335 C324.4,928.035 322.2,921.135 318.1,916.235 C313.4,910.635 306.3,907.735 297,907.735 M328.4,920.435 C328.4,923.235 330.6,925.435 333.2,925.435 C335.8,925.435 338,923.235 338,920.435 C338,917.635 335.8,915.335 333.2,915.335 C330.6,915.335 328.4,917.635 328.4,920.435 M328.4,945.135 C328.4,947.935 330.6,950.235 333.2,950.235 C335.8,950.235 338,947.935 338,945.135 C338,942.335 335.8,940.035 333.2,940.035 C330.6,940.035 328.4,942.335 328.4,945.135"/>
<path class="Clef" d="M1648.2,976.939 C1647,971.539 1644.3,967.639 1643.5,966.639 C1640.3,962.339 1636.3,959.539 1631.6,958.139 C1629.3,957.439 1627.2,957.239 1625.2,957.239 C1624.5,957.239 1623.8,957.239 1623.1,957.339 C1622.1,951.339 1621,945.439 1620.1,940.039 C1625.7,933.839 1629.4,927.939 1631.8,923.539 C1635.4,916.839 1636.8,912.139 1636.9,911.939 C1638.1,908.939 1638.8,905.139 1638.8,900.639 C1638.8,897.939 1638.5,895.039 1638.1,892.039 C1637,884.939 1634.8,878.239 1632.3,874.539 C1631,872.639 1629.8,871.539 1628.6,871.539 C1627.4,871.539 1624.9,872.739 1622,875.539 C1619.7,877.739 1616.4,881.639 1613.8,887.639 C1611.5,893.039 1610.8,899.939 1610.8,905.839 C1610.8,907.639 1610.9,909.339 1611,910.939 C1611.2,914.539 1611.9,920.339 1612.5,923.939 C1612.5,924.039 1612.8,925.539 1613.2,928.139 L1612.5,928.839 C1611.5,929.839 1610.3,930.939 1608.9,932.339 C1608,933.239 1607.1,934.039 1606.1,935.039 C1597.6,943.239 1584.8,955.639 1584.8,974.739 C1584.8,979.439 1585.7,983.839 1587.5,987.839 C1589.1,991.439 1591.4,994.739 1594.3,997.639 C1601.8,1005.04 1612,1008.24 1619.1,1008.24 L1619.7,1008.24 C1622.6,1008.14 1625.3,1007.84 1627.7,1007.44 C1629.5,1017.04 1630.7,1024.14 1630.7,1029.44 C1630.7,1035.94 1629.1,1039.84 1625.2,1042.64 C1622.8,1044.34 1619.9,1045.44 1616.8,1045.54 L1616,1045.54 C1614.5,1045.54 1612,1045.14 1610.5,1044.74 C1610.5,1044.74 1610.2,1044.64 1610.2,1044.44 C1610.2,1044.24 1610.6,1044.24 1610.6,1044.24 C1612.5,1043.84 1616.1,1042.54 1618.5,1039.24 C1619.6,1037.74 1620.3,1035.44 1620.3,1032.94 C1620.3,1031.34 1620,1029.64 1619.3,1028.14 C1618.2,1025.74 1615.6,1022.74 1610,1022.34 L1608.9,1022.34 C1606.8,1022.34 1605,1022.84 1603.3,1023.84 C1601.5,1024.94 1599.9,1026.64 1598.9,1028.64 C1597.8,1030.64 1597.3,1032.84 1597.3,1035.04 C1597.3,1037.94 1598.2,1040.64 1600,1042.84 C1603,1046.44 1607.7,1048.74 1613.1,1049.34 C1613.8,1049.44 1614.9,1049.54 1615.6,1049.54 C1620,1049.54 1624.4,1048.34 1628,1046.14 C1631.7,1043.54 1633.8,1039.54 1634.5,1033.94 C1634.7,1032.64 1634.7,1031.24 1634.7,1029.74 C1634.7,1025.84 1634.2,1021.14 1633.2,1015.34 C1632.8,1013.24 1632.4,1010.24 1631.7,1006.44 C1637.5,1004.54 1641.6,1000.84 1645.4,995.039 C1647.7,991.039 1648.8,986.939 1648.8,982.639 C1648.8,980.739 1648.6,978.839 1648.2,976.939 M1618,899.039 C1619.8,893.339 1622.5,889.939 1624.5,888.239 C1626.3,886.739 1627.9,886.039 1628.8,886.039 C1628.9,886.039 1629.1,886.139 1629.2,886.139 C1629.5,886.239 1629.9,886.739 1630.3,887.439 C1631.2,889.239 1632.1,892.539 1632.1,896.239 C1632.1,898.139 1631.9,900.139 1631.3,901.939 C1629.1,908.739 1624.5,916.039 1617.5,923.739 C1617.3,922.639 1617.1,921.639 1617,920.639 C1616.5,917.439 1616.2,914.239 1616.2,911.339 C1616.2,906.839 1616.8,902.739 1618,899.039 M1614,1003.14 C1609.4,1001.94 1604.9,999.439 1601.1,995.939 C1599.8,994.739 1598,992.539 1596.5,989.139 C1595.2,986.139 1594.5,983.039 1594.5,979.639 L1594.5,978.939 C1594.6,974.239 1595.9,969.439 1598.4,964.639 C1601.3,959.039 1605.8,953.539 1611.9,948.239 C1613.4,946.939 1614.8,945.639 1616.1,944.339 C1616.9,948.639 1617.6,953.339 1618.5,958.239 C1614.6,959.539 1609.9,962.539 1606.8,968.239 C1604.4,972.739 1603.7,976.639 1603.7,979.839 C1603.7,981.339 1603.9,982.739 1604.1,983.839 C1605,988.339 1607.6,992.039 1611.1,994.139 C1611.9,994.639 1615.2,996.339 1617.2,996.339 C1617.5,996.339 1617.8,996.339 1618,996.239 C1618.3,996.139 1618.6,995.939 1618.7,995.639 C1618.8,995.439 1618.8,995.239 1618.8,995.039 C1618.8,994.239 1618,993.639 1616.7,992.839 C1616.1,992.439 1615.4,992.039 1614.7,991.539 C1612.1,989.539 1610.6,986.439 1610.6,983.039 C1610.6,982.039 1610.8,981.139 1611,980.139 C1611.5,978.139 1613.2,975.339 1614.7,973.939 C1616.4,972.439 1618.4,971.239 1620.8,970.639 C1622.8,981.839 1624.9,992.939 1626.5,1001.34 C1626.6,1002.04 1626.8,1002.74 1626.9,1003.44 C1624.9,1003.84 1622.9,1004.04 1621,1004.04 C1618.6,1004.04 1616.3,1003.74 1614,1003.14 M1639.7,992.939 C1638.5,996.139 1636,1000.14 1630.9,1002.24 C1630.8,1001.84 1630.8,1001.34 1630.7,1000.94 C1629.2,992.139 1627.3,981.239 1625.3,969.939 L1626.3,969.939 C1636,969.939 1639.9,977.139 1640.8,981.739 C1641,982.639 1641.1,983.839 1641.1,985.139 C1641.1,987.439 1640.7,990.239 1639.7,992.939"/>
<path class="Clef" d="M335,1589.48 C333.8,1584.08 331.1,1580.18 330.3,1579.18 C327.1,1574.88 323.1,1572.08 318.4,1570.68 C316.1,1569.98 314,1569.78 312,1569.78 C311.3,1569.78 310.6,1569.78 309.9,1569.88 C308.9,1563.88 307.8,1557.98 306.9,1552.58 C312.5,1546.38 316.2,1540.48 318.6,1536.08 C322.2,1529.38 323.6,1524.68 323.7,1524.48 C324.9,1521.48 325.6,1517.68 325.6,1513.18 C325.6,1510.48 325.3,1507.58 324.9,1504.58 C323.8,1497.48 321.6,1490.78 319.1,1487.08 C317.8,1485.18 316.6,1484.08 315.4,1484.08 C314.2,1484.08 311.7,1485.28 308.8,1488.08 C306.5,1490.28 303.2,1494.18 300.6,1500.18 C298.3,1505.58 297.6,1512.48 297.6,1518.38 C297.6,1520.18 297.7,1521.88 297.8,1523.48 C298,1527.08 298.7,1532.88 299.3,1536.48 C299.3,1536.58 299.6,1538.08 300,1540.68 L299.3,1541.38 C298.3,1542.38 297.1,1543.48 295.7,1544.88 C294.8,1545.78 293.9,1546.58 292.9,1547.58 C284.4,1555.78 271.6,1568.18 271.6,1587.28 C271.6,1591.98 272.5,1596.38 274.3,1600.38 C275.9,1603.98 278.2,1607.28 281.1,1610.18 C288.6,1617.58 298.8,1620.78 305.9,1620.78 L306.5,1620.78 C309.4,1620.68 312.1,1620.38 314.5,1619.98 C316.3,1629.58 317.5,1636.68 317.5,1641.98 C317.5,1648.48 315.9,1652.38 312,1655.18 C309.6,1656.88 306.7,1657.98 303.6,1658.08 L302.8,1658.08 C301.3,1658.08 298.8,1657.68 297.3,1657.28 C297.3,1657.28 297,1657.18 297,1656.98 C297,1656.78 297.4,1656.78 297.4,1656.78 C299.3,1656.38 302.9,1655.08 305.3,1651.78 C306.4,1650.28 307.1,1647.98 307.1,1645.48 C307.1,1643.88 306.8,1642.18 306.1,1640.68 C305,1638.28 302.4,1635.28 296.8,1634.88 L295.7,1634.88 C293.6,1634.88 291.8,1635.38 290.1,1636.38 C288.3,1637.48 286.7,1639.18 285.7,1641.18 C284.6,1643.18 284.1,1645.38 284.1,1647.58 C284.1,1650.48 285,1653.18 286.8,1655.38 C289.8,1658.98 294.5,1661.28 299.9,1661.88 C300.6,1661.98 301.7,1662.08 302.4,1662.08 C306.8,1662.08 311.2,1660.88 314.8,1658.68 C318.5,1656.08 320.6,1652.08 321.3,1646.48 C321.5,1645.18 321.5,1643.78 321.5,1642.28 C321.5,1638.38 321,1633.68 320,1627.88 C319.6,1625.78 319.2,1622.78 318.5,1618.98 C324.3,1617.08 328.4,1613.38 332.2,1607.58 C334.5,1603.58 335.6,1599.48 335.6,1595.18 C335.6,1593.28 335.4,1591.38 335,1589.48 M304.8,1511.58 C306.6,1505.88 309.3,1502.48 311.3,1500.78 C313.1,1499.28 314.7,1498.58 315.6,1498.58 C315.7,1498.58 315.9,1498.68 316,1498.68 C316.3,1498.78 316.7,1499.28 317.1,1499.98 C318,1501.78 318.9,1505.08 318.9,1508.78 C318.9,1510.68 318.7,1512.68 318.1,1514.48 C315.9,1521.28 311.3,1528.58 304.3,1536.28 C304.1,1535.18 303.9,1534.18 303.8,1533.18 C303.3,1529.98 303,1526.78 303,1523.88 C303,1519.38 303.6,1515.28 304.8,1511.58 M300.8,1615.68 C296.2,1614.48 291.7,1611.98 287.9,1608.48 C286.6,1607.28 284.8,1605.08 283.3,1601.68 C282,1598.68 281.3,1595.58 281.3,1592.18 L281.3,1591.48 C281.4,1586.78 282.7,1581.98 285.2,1577.18 C288.1,1571.58 292.6,1566.08 298.7,1560.78 C300.2,1559.48 301.6,1558.18 302.9,1556.88 C303.7,1561.18 304.4,1565.88 305.3,1570.78 C301.4,1572.08 296.7,1575.08 293.6,1580.78 C291.2,1585.28 290.5,1589.18 290.5,1592.38 C290.5,1593.88 290.7,1595.28 290.9,1596.38 C291.8,1600.88 294.4,1604.58 297.9,1606.68 C298.7,1607.18 302,1608.88 304,1608.88 C304.3,1608.88 304.6,1608.88 304.8,1608.78 C305.1,1608.68 305.4,1608.48 305.5,1608.18 C305.6,1607.98 305.6,1607.78 305.6,1607.58 C305.6,1606.78 304.8,1606.18 303.5,1605.38 C302.9,1604.98 302.2,1604.58 301.5,1604.08 C298.9,1602.08 297.4,1598.98 297.4,1595.58 C297.4,1594.58 297.6,1593.68 297.8,1592.68 C298.3,1590.68 300,1587.88 301.5,1586.48 C303.2,1584.98 305.2,1583.78 307.6,1583.18 C309.6,1594.38 311.7,1605.48 313.3,1613.88 C313.4,1614.58 313.6,1615.28 313.7,1615.98 C311.7,1616.38 309.7,1616.58 307.8,1616.58 C305.4,1616.58 303.1,1616.28 300.8,1615.68 M326.5,1605.48 C325.3,1608.68 322.8,1612.68 317.7,1614.78 C317.6,1614.38 317.6,1613.88 317.5,1613.48 C316,1604.68 314.1,1593.78 312.1,1582.48 L313.1,1582.48 C322.8,1582.48 326.7,1589.68 327.6,1594.28 C327.8,1595.18 327.9,1596.38 327.9,1597.68 C327.9,1599.98 327.5,1602.78 326.5,1605.48"/>
<path class="Clef" d="M1626.28,1520.27 C1618.68,1520.27 1612.58,1524.67 1612.48,1524.67 C1606.68,1528.97 1604.38,1534.07 1603.48,1537.57 C1602.98,1539.37 1602.78,1541.17 1602.78,1542.87 C1602.78,1545.27 1603.18,1547.47 1604.08,1549.37 C1605.28,1552.07 1607.58,1553.97 1610.58,1554.97 C1611.78,1555.37 1613.08,1555.57 1614.38,1555.57 C1616.58,1555.57 1618.88,1554.97 1620.78,1553.87 C1623.88,1552.17 1625.78,1548.57 1625.78,1544.67 C1625.78,1541.17 1623.98,1537.97 1620.98,1536.07 C1618.88,1534.67 1616.88,1534.27 1615.18,1534.27 C1613.98,1534.27 1612.88,1534.47 1611.98,1534.77 C1610.98,1535.17 1609.28,1536.17 1608.48,1536.87 C1608.78,1534.97 1609.98,1532.07 1611.08,1530.47 C1612.18,1528.87 1614.38,1526.87 1616.08,1525.97 C1618.58,1524.57 1621.78,1523.97 1625.28,1523.97 C1635.48,1523.97 1640.48,1532.17 1640.48,1548.97 C1640.48,1558.27 1636.98,1567.17 1633.98,1573.07 C1630.68,1579.67 1626.28,1585.97 1622.38,1589.47 C1611.98,1598.97 1602.18,1603.47 1602.08,1603.47 C1602.08,1603.47 1600.58,1604.37 1600.98,1605.87 C1601.28,1606.87 1602.18,1607.07 1602.78,1607.07 C1602.88,1607.07 1603.18,1606.97 1603.28,1606.97 C1603.38,1606.97 1614.78,1602.27 1623.88,1595.17 C1628.98,1591.47 1633.58,1587.47 1637.58,1583.17 C1641.18,1579.27 1644.28,1575.07 1646.78,1570.87 C1651.18,1563.37 1653.68,1555.57 1653.68,1548.87 C1653.68,1540.57 1651.48,1533.67 1647.38,1528.77 C1642.68,1523.17 1635.58,1520.27 1626.28,1520.27 M1657.68,1532.97 C1657.68,1535.77 1659.88,1537.97 1662.48,1537.97 C1665.08,1537.97 1667.28,1535.77 1667.28,1532.97 C1667.28,1530.17 1665.08,1527.87 1662.48,1527.87 C1659.88,1527.87 1657.68,1530.17 1657.68,1532.97 M1657.68,1557.67 C1657.68,1560.47 1659.88,1562.77 1662.48,1562.77 C1665.08,1562.77 1667.28,1560.47 1667.28,1557.67 C1667.28,1554.87 1665.08,1552.57 1662.48,1552.57 C1659.88,1552.57 1657.68,1554.87 1657.68,1557.67"/>
<path class="Clef" d="M335,714.422 C333.8,709.022 331.1,705.122 330.3,704.122 C327.1,699.822 323.1,697.022 318.4,695.622 C316.1,694.922 314,694.722 312,694.722 C311.3,694.722 310.6,694.722 309.9,694.822 C308.9,688.822 307.8,682.922 306.9,677.522 C312.5,671.322 316.2,665.422 318.6,661.022 C322.2,654.322 323.6,649.622 323.7,649.422 C324.9,646.422 325.6,642.622 325.6,638.122 C325.6,635.422 325.3,632.522 324.9,629.522 C323.8,622.422 321.6,615.722 319.1,612.022 C317.8,610.122 316.6,609.022 315.4,609.022 C314.2,609.022 311.7,610.222 308.8,613.022 C306.5,615.222 303.2,619.122 300.6,625.122 C298.3,630.522 297.6,637.422 297.6,643.322 C297.6,645.122 297.7,646.822 297.8,648.422 C298,652.022 298.7,657.822 299.3,661.422 C299.3,661.522 299.6,663.022 300,665.622 L299.3,666.322 C298.3,667.322 297.1,668.422 295.7,669.822 C294.8,670.722 293.9,671.522 292.9,672.522 C284.4,680.722 271.6,693.122 271.6,712.222 C271.6,716.922 272.5,721.322 274.3,725.322 C275.9,728.922 278.2,732.222 281.1,735.122 C288.6,742.522 298.8,745.722 305.9,745.722 L306.5,745.722 C309.4,745.622 312.1,745.322 314.5,744.922 C316.3,754.522 317.5,761.622 317.5,766.922 C317.5,773.422 315.9,777.322 312,780.122 C309.6,781.822 306.7,782.922 303.6,783.022 L302.8,783.022 C301.3,783.022 298.8,782.622 297.3,782.222 C297.3,782.222 297,782.122 297,781.922 C297,781.722 297.4,781.722 297.4,781.722 C299.3,781.322 302.9,780.022 305.3,776.722 C306.4,775.222 307.1,772.922 307.1,770.422 C307.1,768.822 306.8,767.122 306.1,765.622 C305,763.222 302.4,760.222 296.8,759.822 L295.7,759.822 C293.6,759.822 291.8,760.322 290.1,761.322 C288.3,762.422 286.7,764.122 285.7,766.122 C284.6,768.122 284.1,770.322 284.1,772.522 C284.1,775.422 285,778.122 286.8,780.322 C289.8,783.922 294.5,786.222 299.9,786.822 C300.6,786.922 301.7,787.022 302.4,787.022 C306.8,787.022 311.2,785.822 314.8,783.622 C318.5,781.022 320.6,777.022 321.3,771.422 C321.5,770.122 321.5,768.722 321.5,767.222 C321.5,763.322 321,758.622 320,752.822 C319.6,750.722 319.2,747.722 318.5,743.922 C324.3,742.022 328.4,738.322 332.2,732.522 C334.5,728.522 335.6,724.422 335.6,720.122 C335.6,718.222 335.4,716.322 335,714.422 M304.8,636.522 C306.6,630.822 309.3,627.422 311.3,625.722 C313.1,624.222 314.7,623.522 315.6,623.522 C315.7,623.522 315.9,623.622 316,623.622 C316.3,623.722 316.7,624.222 317.1,624.922 C318,626.722 318.9,630.022 318.9,633.722 C318.9,635.622 318.7,637.622 318.1,639.422 C315.9,646.222 311.3,653.522 304.3,661.222 C304.1,660.122 303.9,659.122 303.8,658.122 C303.3,654.922 303,651.722 303,648.822 C303,644.322 303.6,640.222 304.8,636.522 M300.8,740.622 C296.2,739.422 291.7,736.922 287.9,733.422 C286.6,732.222 284.8,730.022 283.3,726.622 C282,723.622 281.3,720.522 281.3,717.122 L281.3,716.422 C281.4,711.722 282.7,706.922 285.2,702.122 C288.1,696.522 292.6,691.022 298.7,685.722 C300.2,684.422 301.6,683.122 302.9,681.822 C303.7,686.122 304.4,690.822 305.3,695.722 C301.4,697.022 296.7,700.022 293.6,705.722 C291.2,710.222 290.5,714.122 290.5,717.322 C290.5,718.822 290.7,720.222 290.9,721.322 C291.8,725.822 294.4,729.522 297.9,731.622 C298.7,732.122 302,733.822 304,733.822 C304.3,733.822 304.6,733.822 304.8,733.722 C305.1,733.622 305.4,733.422 305.5,733.122 C305.6,732.922 305.6,732.722 305.6,732.522 C305.6,731.722 304.8,731.122 303.5,730.322 C302.9,729.922 302.2,729.522 301.5,729.022 C298.9,727.022 297.4,723.922 297.4,720.522 C297.4,719.522 297.6,718.622 297.8,717.622 C298.3,715.622 300,712.822 301.5,711.422 C303.2,709.922 305.2,708.722 307.6,708.122 C309.6,719.322 311.7,730.422 313.3,738.822 C313.4,739.522 313.6,740.222 313.7,740.922 C311.7,741.322 309.7,741.522 307.8,741.522 C305.4,741.522 303.1,741.222 300.8,740.622 M326.5,730.422 C325.3,733.622 322.8,737.622 317.7,739.722 C317.6,739.322 317.6,738.822 317.5,738.422 C316,729.622 314.1,718.722 312.1,707.422 L313.1,707.422 C322.8,707.422 326.7,714.622 327.6,719.222 C327.8,720.122 327.9,721.322 327.9,722.622 C327.9,724.922 327.5,727.722 326.5,730.422"/>
<path class="Clef" d="M335,1326.96 C333.8,1321.56 331.1,1317.66 330.3,1316.66 C327.1,1312.36 323.1,1309.56 318.4,1308.16 C316.1,1307.46 314,1307.26 312,1307.26 C311.3,1307.26 310.6,1307.26 309.9,1307.36 C308.9,1301.36 307.8,1295.46 306.9,1290.06 C312.5,1283.86 316.2,1277.96 318.6,1273.56 C322.2,1266.86 323.6,1262.16 323.7,1261.96 C324.9,1258.96 325.6,1255.16 325.6,1250.66 C325.6,1247.96 325.3,1245.06 324.9,1242.06 C323.8,1234.96 321.6,1228.26 319.1,1224.56 C317.8,1222.66 316.6,1221.56 315.4,1221.56 C314.2,1221.56 311.7,1222.76 308.8,1225.56 C306.5,1227.76 303.2,1231.66 300.6,1237.66 C298.3,1243.06 297.6,1249.96 297.6,1255.86 C297.6,1257.66 297.7,1259.36 297.8,1260.96 C298,1264.56 298.7,1270.36 299.3,1273.96 C299.3,1274.06 299.6,1275.56 300,1278.16 L299.3,1278.86 C298.3,1279.86 297.1,1280.96 295.7,1282.36 C294.8,1283.26 293.9,1284.06 292.9,1285.06 C284.4,1293.26 271.6,1305.66 271.6,1324.76 C271.6,1329.46 272.5,1333.86 274.3,1337.86 C275.9,1341.46 278.2,1344.76 281.1,1347.66 C288.6,1355.06 298.8,1358.26 305.9,1358.26 L306.5,1358.26 C309.4,1358.16 312.1,1357.86 314.5,1357.46 C316.3,1367.06 317.5,1374.16 317.5,1379.46 C317.5,1385.96 315.9,1389.86 312,1392.66 C309.6,1394.36 306.7,1395.46 303.6,1395.56 L302.8,1395.56 C301.3,1395.56 298.8,1395.16 297.3,1394.76 C297.3,1394.76 297,1394.66 297,1394.46 C297,1394.26 297.4,1394.26 297.4,1394.26 C299.3,1393.86 302.9,1392.56 305.3,1389.26 C306.4,1387.76 307.1,1385.46 307.1,1382.96 C307.1,1381.36 306.8,1379.66 306.1,1378.16 C305,1375.76 302.4,1372.76 296.8,1372.36 L295.7,1372.36 C293.6,1372.36 291.8,1372.86 290.1,1373.86 C288.3,1374.96 286.7,1376.66 285.7,1378.66 C284.6,1380.66 284.1,1382.86 284.1,1385.06 C284.1,1387.96 285,1390.66 286.8,1392.86 C289.8,1396.46 294.5,1398.76 299.9,1399.36 C300.6,1399.46 301.7,1399.56 302.4,1399.56 C306.8,1399.56 311.2,1398.36 314.8,1396.16 C318.5,1393.56 320.6,1389.56 321.3,1383.96 C321.5,1382.66 321.5,1381.26 321.5,1379.76 C321.5,1375.86 321,1371.16 320,1365.36 C319.6,1363.26 319.2,1360.26 318.5,1356.46 C324.3,1354.56 328.4,1350.86 332.2,1345.06 C334.5,1341.06 335.6,1336.96 335.6,1332.66 C335.6,1330.76 335.4,1328.86 335,1326.96 M304.8,1249.06 C306.6,1243.36 309.3,1239.96 311.3,1238.26 C313.1,1236.76 314.7,1236.06 315.6,1236.06 C315.7,1236.06 315.9,1236.16 316,1236.16 C316.3,1236.26 316.7,1236.76 317.1,1237.46 C318,1239.26 318.9,1242.56 318.9,1246.26 C318.9,1248.16 318.7,1250.16 318.1,1251.96 C315.9,1258.76 311.3,1266.06 304.3,1273.76 C304.1,1272.66 303.9,1271.66 303.8,1270.66 C303.3,1267.46 303,1264.26 303,1261.36 C303,1256.86 303.6,1252.76 304.8,1249.06 M300.8,1353.16 C296.2,1351.96 291.7,1349.46 287.9,1345.96 C286.6,1344.76 284.8,1342.56 283.3,1339.16 C282,1336.16 281.3,1333.06 281.3,1329.66 L281.3,1328.96 C281.4,1324.26 282.7,1319.46 285.2,1314.66 C288.1,1309.06 292.6,1303.56 298.7,1298.26 C300.2,1296.96 301.6,1295.66 302.9,1294.36 C303.7,1298.66 304.4,1303.36 305.3,1308.26 C301.4,1309.56 296.7,1312.56 293.6,1318.26 C291.2,1322.76 290.5,1326.66 290.5,1329.86 C290.5,1331.36 290.7,1332.76 290.9,1333.86 C291.8,1338.36 294.4,1342.06 297.9,1344.16 C298.7,1344.66 302,1346.36 304,1346.36 C304.3,1346.36 304.6,1346.36 304.8,1346.26 C305.1,1346.16 305.4,1345.96 305.5,1345.66 C305.6,1345.46 305.6,1345.26 305.6,1345.06 C305.6,1344.26 304.8,1343.66 303.5,1342.86 C302.9,1342.46 302.2,1342.06 301.5,1341.56 C298.9,1339.56 297.4,1336.46 297.4,1333.06 C297.4,1332.06 297.6,1331.16 297.8,1330.16 C298.3,1328.16 300,1325.36 301.5,1323.96 C303.2,1322.46 305.2,1321.26 307.6,1320.66 C309.6,1331.86 311.7,1342.96 313.3,1351.36 C313.4,1352.06 313.6,1352.76 313.7,1353.46 C311.7,1353.86 309.7,1354.06 307.8,1354.06 C305.4,1354.06 303.1,1353.76 300.8,1353.16 M326.5,1342.96 C325.3,1346.16 322.8,1350.16 317.7,1352.26 C317.6,1351.86 317.6,1351.36 317.5,1350.96 C316,1342.16 314.1,1331.26 312.1,1319.96 L313.1,1319.96 C322.8,1319.96 326.7,1327.16 327.6,1331.76 C327.8,1332.66 327.9,1333.86 327.9,1335.16 C327.9,1337.46 327.5,1340.26 326.5,1342.96"/>
<path class="TimeSig" d="M365.2,946.235 L382,946.235 L382,953.535 L373.9,953.535 C373.1,953.535 372.5,954.135 372.5,954.935 L372.5,956.835 C372.5,957.635 373.1,958.135 373.9,958.135 L403.6,958.135 C404.4,958.135 405,957.635 405,956.835 L405,954.935 C405,954.135 404.4,953.535 403.6,953.535 L394.8,953.535 L394.8,946.235 L403.6,946.235 C404.4,946.235 405,945.635 405,944.835 L405,943.035 C405,942.235 404.4,941.635 403.6,941.635 L394.8,941.635 L394.8,925.935 C394.8,925.435 394.4,924.935 394,924.735 L392.9,924.135 C392.7,924.035 392.4,924.035 392.2,924.035 C391.9,924.035 391.5,924.135 391.3,924.335 L382.4,932.535 C382.2,932.735 382,933.235 382,933.535 L382,941.635 L370.7,941.635 C370.7,941.635 381.6,929.835 393.2,914.335 C394,913.235 393.6,912.235 393.4,912.035 L391.3,909.835 C391.1,909.635 390.6,909.435 390.3,909.435 L375.7,909.435 C375,909.435 374.5,910.035 374.4,910.635 C374.4,910.635 373.9,917.835 371.3,925.835 C368.7,933.835 365.9,938.635 363.3,942.235 C363.3,942.235 362.8,943.235 363.1,943.935 C363.4,944.635 364.1,945.735 364.1,945.735 C364.1,945.735 364.4,946.235 365.2,946.235"/>
<path class="TimeSig" d="M365.2,994.839 L382,994.839 L382,1002.14 L373.9,1002.14 C373.1,1002.14 372.5,1002.74 372.5,1003.54 L372.5,1005.44 C372.5,1006.24 373.1,1006.74 373.9,1006.74 L403.6,1006.74 C404.4,1006.74 405,1006.24 405,1005.44 L405,1003.54 C405,1002.74 404.4,1002.14 403.6,1002.14 L394.8,1002.14 L394.8,994.839 L403.6,994.839 C404.4,994.839 405,994.239 405,993.439 L405,991.639 C405,990.839 404.4,990.239 403.6,990.239 L394.8,990.239 L394.8,974.539 C394.8,974.039 394.4,973.539 394,973.339 L392.9,972.739 C392.7,972.639 392.4,972.639 392.2,972.639 C391.9,972.639 391.5,972.739 391.3,972.939 L382.4,981.139 C382.2,981.339 382,981.839 382,982.139 L382,990.239 L370.7,990.239 C370.7,990.239 381.6,978.439 393.2,962.939 C394,961.839 393.6,960.839 393.4,960.639 L391.3,958.439 C391.1,958.239 390.6,958.039 390.3,958.039 L375.7,958.039 C375,958.039 374.5,958.639 374.4,959.239 C374.4,959.239 373.9,966.439 371.3,974.439 C368.7,982.439 365.9,987.239 363.3,990.839 C363.3,990.839 362.8,991.839 363.1,992.539 C363.4,993.239 364.1,994.339 364.1,994.339 C364.1,994.339 364.4,994.839 365.2,994.839"/>
<path class="TimeSig" d="M365.2,683.718 L382,683.718 L382,691.018 L373.9,691.018 C373.1,691.018 372.5,691.618 372.5,692.418 L372.5,694.318 C372.5,695.118 373.1,695.618 373.9,695.618 L403.6,695.618 C404.4,695.618 405,695.118 405,694.318 L405,692.418 C405,691.618 404.4,691.018 403.6,691.018 L394.8,691.018 L394.8,683.718 L403.6,683.718 C404.4,683.718 405,683.118 405,682.318 L405,680.518 C405,679.718 404.4,679.118 403.6,679.118 L394.8,679.118 L394.8,663.418 C394.8,662.918 394.4,662.418 394,662.218 L392.9,661.618 C392.7,661.518 392.4,661.518 392.2,661.518 C391.9,661.518 391.5,661.618 391.3,661.818 L382.4,670.018 C382.2,670.218 382,670.718 382,671.018 L382,679.118 L370.7,679.118 C370.7,679.118 381.6,667.318 393.2,651.818 C394,650.718 393.6,649.718 393.4,649.518 L391.3,647.318 C391.1,647.118 390.6,646.918 390.3,646.918 L375.7,646.918 C375,646.918 374.5,647.518 374.4,648.118 C374.4,648.118 373.9,655.318 371.3,663.318 C368.7,671.318 365.9,676.118 363.3,679.718 C363.3,679.718 362.8,680.718 363.1,681.418 C363.4,682.118 364.1,683.218 364.1,683.218 C364.1,683.218 364.4,683.718 365.2,683.718"/>
<path class="TimeSig" d="M365.2,732.323 L382,732.323 L382,739.623 L373.9,739.623 C373.1,739.623 372.5,740.223 372.5,741.023 L372.5,742.923 C372.5,743.723 373.1,744.223 373.9,744.223 L403.6,744.223 C404.4,744.223 405,743.723 405,742.923 L405,741.023 C405,740.223 404.4,739.623 403.6,739.623 L394.8,739.623 L394.8,732.323 L403.6,732.323 C404.4,732.323 405,731.723 405,730.923 L405,729.123 C405,728.323 404.4,727.723 403.6,727.723 L394.8,727.723 L394.8,712.023 C394.8,711.523 394.4,711.023 394,710.823 L392.9,710.223 C392.7,710.123 392.4,710.123 392.2,710.123 C391.9,710.123 391.5,710.223 391.3,710.423 L382.4,718.623 C382.2,718.823 382,719.323 382,719.623 L382,727.723 L370.7,727.723 C370.7,727.723 381.6,715.923 393.2,700.423 C394,699.323 393.6,698.323 393.4,698.123 L391.3,695.923 C391.1,695.723 390.6,695.523 390.3,695.523 L375.7,695.523 C375,695.523 374.5,696.123 374.4,696.723 C374.4,696.723 373.9,703.923 371.3,711.923 C368.7,719.923 365.9,724.723 363.3,728.323 C363.3,728.323 362.8,729.323 363.1,730.023 C363.4,730.723 364.1,731.823 364.1,731.823 C364.1,731.823 364.4,732.323 365.2,732.323"/>
<path class="NoteDot" d="M2478.55,1557.87 C2478.55,1560.47 2480.66,1562.57 2483.25,1562.57 C2485.85,1562.57 2487.95,1560.47 2487.95,1557.87 C2487.95,1555.28 2485.85,1553.17 2483.25,1553.17 C2480.66,1553.17 2478.55,1555.28 2478.55,1557.87"/>
<path class="NoteDot" d="M2478.55,1345.36 C2478.55,1347.96 2480.66,1350.06 2483.25,1350.06 C2485.85,1350.06 2487.95,1347.96 2487.95,1345.36 C2487.95,1342.77 2485.85,1340.66 2483.25,1340.66 C2480.66,1340.66 2478.55,1342.77 2478.55,1345.36"/>
<path class="Page" d="M222.584,4034.43 C221.054,4036.28 216.914,4037.67 212.774,4037.76 L212.774,4039.7 L216.734,4039.7 C219.344,4039.74 219.614,4040.01 219.524,4042.53 L219.524,4060.58 C219.524,4062.87 219.524,4062.96 219.254,4063.37 C218.894,4063.82 218.039,4064 215.519,4064 L212.594,4064 L212.594,4066.11 L230.414,4066.11 L230.414,4064 L227.939,4064 C225.419,4064 224.564,4063.82 224.204,4063.37 C223.889,4062.96 223.889,4062.92 223.889,4060.58 L223.889,4041.99 C223.889,4039.47 223.979,4037.36 224.204,4034.43 L222.584,4034.43 M235.764,4045.32 L237.744,4045.64 L238.554,4042.08 C239.229,4039.11 239.544,4038.66 240.849,4038.66 C241.074,4038.66 241.434,4038.66 241.839,4038.71 C247.374,4038.98 247.374,4038.98 249.444,4038.98 C250.029,4038.98 251.064,4038.98 252.324,4038.93 L249.264,4045.1 C245.934,4051.71 245.529,4052.52 244.404,4055.31 C243.009,4058.69 242.289,4061.52 242.289,4063.41 C242.289,4065.48 243.369,4066.74 245.124,4066.74 C247.284,4066.74 248.139,4065.3 248.094,4061.39 C247.869,4054.91 248.679,4051.76 253.494,4041.23 C254.169,4039.79 254.844,4038.39 255.519,4037 C255.564,4036.91 255.699,4036.5 255.969,4035.92 L255.969,4034.61 C253.269,4034.84 251.829,4034.93 249.039,4034.93 C245.124,4034.93 242.019,4034.79 237.159,4034.43 L235.764,4045.32 "/>
<path class="Bracket" transform="matrix(3.62523,0,0,3.62523,214.469,1007.84)" d="M0.92002,-50 C2.69004,-51.88 6.2,-55.8 6.2,-63 C6.2,-72.1 2.25996,-81.32 2.25996,-86.97 C2.25996,-93.06 5.84004,-98.84 5.95,-99 C6.05996,-99.16 6.05,-99.39 5.94004,-99.46 C5.82998,-99.53 5.62002,-99.47 5.49004,-99.32 C5.35996,-99.17 0,-93.75 0,-85.6 C0,-76.75 3.5,-70.58 3.5,-59.07 C3.5,-56.89 2.55996,-53.36 0.1,-50.33 C-0.0799805,-50.17 -0.1,-49.89 0.0599609,-49.7 L0.0700195,-49.69 L0.1,-49.66 C2.55996,-46.63 3.5,-43.1 3.5,-40.92 C3.5,-29.4 0,-23.24 0,-14.39 C0,-6.25 5.35996,-0.8 5.49004,-0.659961 C5.62002,-0.52002 5.8,-0.42998 5.94004,-0.52002 C6.07998,-0.609961 6.07998,-0.77998 5.95,-0.97998 C5.82002,-1.17998 2.25996,-6.92002 2.25996,-13.01 C2.25996,-18.66 6.2,-27.9 6.2,-37 C6.2,-44.3 2.69004,-48.12 0.92002,-50"/>
<path class="Bracket" transform="matrix(3.62523,0,0,3.62523,214.469,1620.38)" d="M0.92002,-50 C2.69004,-51.88 6.2,-55.8 6.2,-63 C6.2,-72.1 2.25996,-81.32 2.25996,-86.97 C2.25996,-93.06 5.84004,-98.84 5.95,-99 C6.05996,-99.16 6.05,-99.39 5.94004,-99.46 C5.82998,-99.53 5.62002,-99.47 5.49004,-99.32 C5.35996,-99.17 0,-93.75 0,-85.6 C0,-76.75 3.5,-70.58 3.5,-59.07 C3.5,-56.89 2.55996,-53.36 0.1,-50.33 C-0.0799805,-50.17 -0.1,-49.89 0.0599609,-49.7 L0.0700195,-49.69 L0.1,-49.66 C2.55996,-46.63 3.5,-43.1 3.5,-40.92 C3.5,-29.4 0,-23.24 0,-14.39 C0,-6.25 5.35996,-0.8 5.49004,-0.659961 C5.62002,-0.52002 5.8,-0.42998 5.94004,-0.52002 C6.07998,-0.609961 6.07998,-0.77998 5.95,-0.97998 C5.82002,-1.17998 2.25996,-6.92002 2.25996,-13.01 C2.25996,-18.66 6.2,-27.9 6.2,-37 C6.2,-44.3 2.69004,-48.12 0.92002,-50"/>
</svg>