<?xml version="1.0" encoding="UTF-8" standalone="no"?>
<svg width="1000px" height="300px" viewBox="0 400 3040 900" xmlns="http://www.w3.org/2000/svg" xmlns:xlink="http://www.w3.org/1999/xlink" version="1.2" baseProfile="tiny">
 xmlns="http://www.w3.org/2000/svg" xmlns:xlink="http://www.w3.org/1999/xlink" version="1.2" baseProfile="tiny">
<title>exercises_scores (4)</title>
<desc>Generated by MuseScore 3.6.0</desc>
<polyline class="StaffLines" fill="none" stroke="#000000" stroke-width="2.75" stroke-linejoin="bevel" points="247.099,656.536 2764.63,656.536"/>
<polyline class="StaffLines" fill="none" stroke="#000000" stroke-width="2.75" stroke-linejoin="bevel" points="247.099,681.538 2764.63,681.538"/>
<polyline class="StaffLines" fill="none" stroke="#000000" stroke-width="2.75" stroke-linejoin="bevel" points="247.099,706.539 2764.63,706.539"/>
<polyline class="StaffLines" fill="none" stroke="#000000" stroke-width="2.75" stroke-linejoin="bevel" points="247.099,731.541 2764.63,731.541"/>
<polyline class="StaffLines" fill="none" stroke="#000000" stroke-width="2.75" stroke-linejoin="bevel" points="247.099,756.542 2764.63,756.542"/>
<polyline class="StaffLines" fill="none" stroke="#000000" stroke-width="2.75" stroke-linejoin="bevel" points="247.099,919.053 2764.63,919.053"/>
<polyline class="StaffLines" fill="none" stroke="#000000" stroke-width="2.75" stroke-linejoin="bevel" points="247.099,944.054 2764.63,944.054"/>
<polyline class="StaffLines" fill="none" stroke="#000000" stroke-width="2.75" stroke-linejoin="bevel" points="247.099,969.056 2764.63,969.056"/>
<polyline class="StaffLines" fill="none" stroke="#000000" stroke-width="2.75" stroke-linejoin="bevel" points="247.099,994.057 2764.63,994.057"/>
<polyline class="StaffLines" fill="none" stroke="#000000" stroke-width="2.75" stroke-linejoin="bevel" points="247.099,1019.06 2764.63,1019.06"/>
<path class="Text" d="M242.312,213.137 L240.092,213.137 L237.692,216.737 C234.812,214.037 231.032,212.597 226.772,212.597 C218.852,212.597 213.632,217.577 213.632,225.137 C213.632,231.677 216.872,234.917 225.692,237.197 L231.392,238.637 C235.832,239.777 236.252,239.897 237.512,240.857 C239.312,242.237 240.272,244.217 240.272,246.557 C240.272,248.957 239.372,250.937 237.572,252.617 C235.592,254.297 233.612,254.957 230.312,254.957 C225.872,254.957 222.692,253.577 219.872,250.457 C217.352,247.697 216.092,244.817 215.192,240.197 L212.612,240.197 L212.852,257.297 L215.192,257.297 L217.892,253.217 C221.912,256.517 225.212,257.717 230.492,257.717 C239.312,257.717 244.952,252.557 244.952,244.517 C244.952,240.737 243.752,237.617 241.352,235.337 C239.732,233.777 237.392,232.757 232.592,231.557 L226.172,229.937 C220.832,228.557 218.312,226.217 218.312,222.557 C218.312,218.357 221.732,215.477 226.832,215.477 C231.032,215.477 234.452,217.277 236.852,220.697 C238.592,223.157 239.732,225.677 240.452,228.737 L243.032,228.737 L242.312,213.137 M271.162,247.997 C269.242,252.317 267.202,254.057 264.082,254.057 C259.282,254.057 256.282,249.677 256.282,242.657 C256.282,235.337 259.222,230.537 263.662,230.537 C265.462,230.537 267.022,231.377 267.022,232.337 C267.022,232.517 266.962,232.697 266.662,233.057 C265.702,234.197 265.462,234.797 265.462,235.817 C265.462,237.797 266.962,239.177 269.062,239.177 C271.222,239.177 272.722,237.497 272.722,235.097 C272.722,231.017 268.702,227.957 263.362,227.957 C255.562,227.957 249.982,234.317 249.982,243.317 C249.982,251.837 255.082,257.717 262.522,257.717 C267.862,257.717 270.922,255.257 273.502,248.897 L271.162,247.997 M301.75,237.497 C301.75,233.717 301.09,231.797 299.35,230.357 C297.37,228.737 294.43,227.957 290.59,227.957 C283.81,227.957 278.89,231.137 278.89,235.517 C278.89,237.737 280.27,239.177 282.37,239.177 C284.29,239.177 285.61,237.917 285.61,236.117 C285.61,235.337 285.31,234.497 284.71,233.657 C284.35,233.237 284.29,233.117 284.29,232.817 C284.29,231.617 286.69,230.537 289.57,230.537 C291.49,230.537 293.59,231.137 294.55,232.037 C295.69,232.997 296.11,234.437 296.11,237.137 L296.11,239.477 C289.87,240.557 287.89,241.037 284.95,242.177 C279.73,244.097 277.27,246.857 277.27,250.697 C277.27,255.017 280.63,257.717 285.97,257.717 C290.11,257.717 293.83,256.037 296.41,252.977 C297.37,256.037 298.87,257.237 301.69,257.237 C304.39,257.237 307.21,255.497 307.21,253.757 C307.21,253.337 306.97,253.037 306.61,253.037 C306.37,253.037 306.13,253.097 305.71,253.277 C304.87,253.637 304.51,253.697 304.03,253.697 C302.35,253.697 301.75,252.617 301.75,249.557 L301.75,237.497 M296.11,244.817 C296.11,248.417 295.93,249.257 294.91,250.817 C293.41,253.037 290.71,254.537 288.07,254.537 C285.31,254.537 283.33,252.557 283.33,249.857 C283.33,247.337 284.59,245.537 287.23,244.277 C289.09,243.437 291.43,242.837 296.11,242.057 L296.11,244.817 M320.229,212.597 L309.129,213.257 L309.129,215.837 L312.069,215.837 C314.289,215.897 314.589,216.257 314.589,218.837 L314.589,249.437 L314.589,252.257 C314.529,253.157 314.469,253.517 314.229,253.817 C313.809,254.357 312.669,254.597 310.089,254.657 L309.669,254.657 L309.669,256.817 L325.209,256.817 L325.209,254.657 L324.789,254.657 C320.769,254.537 320.229,254.237 320.229,252.077 L320.229,249.437 L320.229,212.597 M354.78,243.317 C354.84,234.317 349.74,227.957 342.42,227.957 C334.74,227.957 328.98,234.617 328.98,243.617 C328.98,252.077 334.44,257.717 342.54,257.717 C348.3,257.717 352.32,254.897 354.78,249.197 L352.68,248.057 C350.22,252.677 347.7,254.477 343.68,254.477 C340.62,254.477 338.4,253.217 336.84,250.517 C335.76,248.717 335.28,246.617 335.34,243.317 L354.78,243.317 M335.4,240.737 C335.4,238.877 335.64,237.557 336.24,235.877 C337.5,232.277 339.42,230.537 342.36,230.537 C345.96,230.537 348.36,233.717 348.36,238.577 C348.36,240.257 347.82,240.737 345.9,240.737 L335.4,240.737 M366.601,250.157 C364.501,250.157 362.821,251.837 362.821,253.877 C362.821,255.977 364.501,257.657 366.541,257.657 C368.641,257.657 370.321,255.977 370.321,253.877 C370.321,251.837 368.641,250.157 366.601,250.157 M366.601,228.437 C364.501,228.437 362.821,230.117 362.821,232.217 C362.821,234.257 364.501,235.937 366.541,235.937 C368.641,235.937 370.321,234.257 370.321,232.157 C370.321,230.117 368.641,228.437 366.601,228.437 M413.685,212.657 L411.165,212.657 L397.365,247.637 C395.745,252.317 394.185,253.757 390.765,253.997 L390.525,253.997 L390.525,256.817 L406.425,256.817 L406.425,253.997 L405.225,253.997 C401.985,253.997 400.365,252.857 400.365,250.577 C400.365,249.797 400.545,249.077 400.905,248.057 L402.885,242.777 L418.785,242.777 L422.025,250.817 C422.385,251.777 422.505,252.137 422.505,252.437 C422.505,253.397 421.005,253.997 418.785,253.997 L416.265,253.997 L416.265,256.817 L434.865,256.817 L434.865,253.997 L434.025,253.997 C430.905,253.937 430.365,253.577 428.985,250.157 L413.685,212.657 M410.745,222.497 L417.525,239.537 L404.085,239.537 L410.745,222.497 M463.049,228.857 L452.369,229.517 L452.369,232.097 L454.829,232.097 C457.109,232.157 457.409,232.517 457.409,235.097 L457.409,249.437 L457.409,251.777 L457.409,252.257 C457.349,253.157 457.289,253.517 457.049,253.817 C456.629,254.357 455.489,254.597 452.909,254.657 L452.669,254.657 L452.669,256.817 L467.789,256.817 L467.789,254.657 L467.549,254.657 C463.589,254.537 463.049,254.237 463.049,252.017 L463.049,249.437 L463.049,240.917 C463.049,235.577 465.989,231.617 469.889,231.617 C473.309,231.617 475.049,234.077 475.049,238.937 L475.049,249.437 L475.049,252.317 C474.989,253.097 474.929,253.517 474.629,253.817 C474.269,254.357 473.069,254.597 470.489,254.657 L470.249,254.657 L470.249,256.817 L485.429,256.817 L485.429,254.657 L485.189,254.657 C481.229,254.537 480.689,254.237 480.689,252.077 L480.689,249.437 L480.689,241.457 C480.689,235.457 483.389,231.617 487.589,231.617 C491.009,231.617 492.689,234.197 492.689,239.597 L492.689,249.437 L492.689,252.257 C492.629,253.097 492.569,253.517 492.269,253.817 C491.909,254.357 490.709,254.597 488.129,254.657 L487.889,254.657 L487.889,256.817 L503.069,256.817 L503.069,254.657 L502.829,254.657 C498.869,254.537 498.329,254.237 498.329,252.017 L498.329,249.437 L498.329,238.397 C498.329,234.677 497.969,233.417 496.409,231.377 C494.669,229.157 492.209,227.957 489.329,227.957 C485.429,227.957 482.549,229.817 479.969,233.957 C478.949,230.357 475.709,227.957 471.689,227.957 C468.029,227.957 465.389,229.697 463.049,233.477 L463.049,228.857 M531.437,237.497 C531.437,233.717 530.777,231.797 529.037,230.357 C527.057,228.737 524.117,227.957 520.277,227.957 C513.497,227.957 508.577,231.137 508.577,235.517 C508.577,237.737 509.957,239.177 512.057,239.177 C513.977,239.177 515.297,237.917 515.297,236.117 C515.297,235.337 514.997,234.497 514.397,233.657 C514.037,233.237 513.977,233.117 513.977,232.817 C513.977,231.617 516.377,230.537 519.257,230.537 C521.177,230.537 523.277,231.137 524.237,232.037 C525.377,232.997 525.797,234.437 525.797,237.137 L525.797,239.477 C519.557,240.557 517.577,241.037 514.637,242.177 C509.417,244.097 506.957,246.857 506.957,250.697 C506.957,255.017 510.317,257.717 515.657,257.717 C519.797,257.717 523.517,256.037 526.097,252.977 C527.057,256.037 528.557,257.237 531.377,257.237 C534.077,257.237 536.897,255.497 536.897,253.757 C536.897,253.337 536.657,253.037 536.297,253.037 C536.057,253.037 535.817,253.097 535.397,253.277 C534.557,253.637 534.197,253.697 533.717,253.697 C532.037,253.697 531.437,252.617 531.437,249.557 L531.437,237.497 M525.797,244.817 C525.797,248.417 525.617,249.257 524.597,250.817 C523.097,253.037 520.397,254.537 517.757,254.537 C514.997,254.537 513.017,252.557 513.017,249.857 C513.017,247.337 514.277,245.537 516.917,244.277 C518.777,243.437 521.117,242.837 525.797,242.057 L525.797,244.817 M548.362,228.857 L536.662,229.517 L536.662,232.097 L540.142,232.097 C542.422,232.157 542.722,232.517 542.722,235.097 L542.722,255.437 C542.722,260.297 542.422,262.577 541.582,264.317 C540.982,265.517 539.602,266.417 538.282,266.417 C537.442,266.417 536.782,266.057 536.782,265.637 C536.782,265.397 536.842,265.277 537.082,264.677 C537.382,264.077 537.502,263.657 537.502,263.237 C537.502,261.737 536.062,260.417 534.382,260.417 C532.462,260.417 531.022,261.917 531.022,264.017 C531.022,266.957 533.722,268.937 537.742,268.937 C541.102,268.937 544.162,267.497 545.902,265.037 C547.762,262.397 548.362,259.337 548.362,252.557 L548.362,228.857 M545.542,213.917 C543.622,213.917 542.062,215.477 542.062,217.397 C542.062,219.317 543.622,220.877 545.482,220.877 C547.462,220.877 549.022,219.317 549.022,217.397 C549.022,215.477 547.462,213.917 545.542,213.917 M568.812,227.957 C561.432,227.957 555.732,234.497 555.732,242.897 C555.732,251.117 561.492,257.717 568.692,257.717 C575.892,257.717 581.652,251.117 581.652,242.837 C581.652,234.617 575.892,227.957 568.812,227.957 M568.812,230.537 C573.012,230.537 575.352,234.917 575.352,242.837 C575.352,250.817 573.012,255.137 568.692,255.137 C564.372,255.137 562.032,250.817 562.032,242.897 C562.032,234.737 564.312,230.537 568.812,230.537 M595.572,228.857 L584.952,229.517 L584.952,232.097 L587.412,232.097 C589.692,232.157 589.992,232.517 589.992,235.097 L589.992,249.437 L589.992,252.257 C589.932,253.157 589.872,253.517 589.632,253.817 C589.212,254.357 588.012,254.597 585.432,254.657 L585.192,254.657 L585.192,256.817 L601.212,256.817 L601.212,254.657 L600.132,254.657 C596.112,254.537 595.572,254.237 595.572,252.077 L595.572,249.437 L595.572,248.837 C595.632,238.757 599.232,231.077 603.912,230.837 C603.072,231.797 602.832,232.397 602.832,233.537 C602.832,235.457 604.212,236.837 606.132,236.837 C608.352,236.837 609.792,235.217 609.792,232.817 C609.792,229.877 607.752,227.957 604.572,227.957 C600.792,227.957 597.552,230.957 595.572,236.297 L595.572,228.857 "/>
<polyline class="BarLine" fill="none" stroke="#000000" stroke-width="4.50" stroke-linejoin="bevel" points="249.349,917.677 249.349,1020.43"/>
<polyline class="BarLine" fill="none" stroke="#000000" stroke-width="4.50" stroke-linejoin="bevel" points="1028.13,917.677 1028.13,1020.43"/>
<polyline class="BarLine" fill="none" stroke="#000000" stroke-width="4.50" stroke-linejoin="bevel" points="1624.74,917.677 1624.74,1020.43"/>
<polyline class="BarLine" fill="none" stroke="#000000" stroke-width="4.50" stroke-linejoin="bevel" points="2197.87,917.677 2197.87,1020.43"/>
<polyline class="BarLine" fill="none" stroke="#000000" stroke-width="4.50" stroke-linejoin="bevel" points="2734.88,917.677 2734.88,1020.43"/>
<polyline class="BarLine" fill="none" stroke="#000000" stroke-width="13.75" stroke-linejoin="bevel" points="2757.75,917.677 2757.75,1020.43"/>
<polyline class="BarLine" fill="none" stroke="#000000" stroke-width="4.50" stroke-linejoin="bevel" points="249.349,655.161 249.349,919.053"/>
<polyline class="BarLine" fill="none" stroke="#000000" stroke-width="4.50" stroke-linejoin="bevel" points="1028.13,655.161 1028.13,919.053"/>
<polyline class="BarLine" fill="none" stroke="#000000" stroke-width="4.50" stroke-linejoin="bevel" points="1624.74,655.161 1624.74,919.053"/>
<polyline class="BarLine" fill="none" stroke="#000000" stroke-width="4.50" stroke-linejoin="bevel" points="2197.87,655.161 2197.87,919.053"/>
<polyline class="BarLine" fill="none" stroke="#000000" stroke-width="4.50" stroke-linejoin="bevel" points="2734.88,655.161 2734.88,919.053"/>
<polyline class="BarLine" fill="none" stroke="#000000" stroke-width="13.75" stroke-linejoin="bevel" points="2757.75,655.161 2757.75,919.053"/>
<path class="Accidental" d="M737.467,970.956 C738.067,970.856 738.567,970.156 738.567,969.556 L738.567,963.656 C738.567,962.856 737.967,962.256 737.167,962.256 L736.967,962.256 L733.667,962.956 L733.667,948.056 L730.867,948.056 L730.867,963.556 L721.967,965.356 L721.967,951.256 L719.167,951.256 L719.167,965.956 L715.267,966.756 C714.667,966.856 714.167,967.556 714.167,968.156 L714.167,968.356 L714.167,974.156 L714.167,973.956 C714.167,974.756 714.767,975.356 715.567,975.356 L715.867,975.356 L719.167,974.656 L719.167,991.156 L715.267,991.956 C714.667,992.056 714.167,992.756 714.167,993.356 L714.167,999.156 C714.167,999.956 714.767,1000.56 715.567,1000.56 L715.867,1000.56 L719.167,999.856 L719.167,1014.76 L721.967,1014.76 L721.967,999.256 L730.867,997.456 L730.867,1011.56 L733.667,1011.56 L733.667,996.856 L737.467,996.156 C738.067,996.056 738.567,995.356 738.567,994.756 L738.567,988.856 C738.567,988.056 737.967,987.456 737.167,987.456 L736.967,987.456 L733.667,988.156 L733.667,971.656 L737.467,970.956 M721.967,990.656 L721.967,974.056 L730.867,972.256 L730.867,988.756 L721.967,990.656 "/>
<path class="Accidental" d="M1195.44,933.454 C1196.04,933.354 1196.54,932.654 1196.54,932.054 L1196.54,926.154 C1196.54,925.354 1195.94,924.754 1195.14,924.754 L1194.94,924.754 L1191.64,925.454 L1191.64,910.554 L1188.84,910.554 L1188.84,926.054 L1179.94,927.854 L1179.94,913.754 L1177.14,913.754 L1177.14,928.454 L1173.24,929.254 C1172.64,929.354 1172.14,930.054 1172.14,930.654 L1172.14,930.854 L1172.14,936.654 L1172.14,936.454 C1172.14,937.254 1172.74,937.854 1173.54,937.854 L1173.84,937.854 L1177.14,937.154 L1177.14,953.654 L1173.24,954.454 C1172.64,954.554 1172.14,955.254 1172.14,955.854 L1172.14,961.654 C1172.14,962.454 1172.74,963.054 1173.54,963.054 L1173.84,963.054 L1177.14,962.354 L1177.14,977.254 L1179.94,977.254 L1179.94,961.754 L1188.84,959.954 L1188.84,974.054 L1191.64,974.054 L1191.64,959.354 L1195.44,958.654 C1196.04,958.554 1196.54,957.854 1196.54,957.254 L1196.54,951.354 C1196.54,950.554 1195.94,949.954 1195.14,949.954 L1194.94,949.954 L1191.64,950.654 L1191.64,934.154 L1195.44,933.454 M1179.94,953.154 L1179.94,936.554 L1188.84,934.754 L1188.84,951.254 L1179.94,953.154 "/>
<path class="Accidental" d="M1335.34,920.953 C1335.94,920.853 1336.44,920.153 1336.44,919.553 L1336.44,913.653 C1336.44,912.853 1335.84,912.253 1335.04,912.253 L1334.84,912.253 L1331.54,912.953 L1331.54,898.053 L1328.74,898.053 L1328.74,913.553 L1319.84,915.353 L1319.84,901.253 L1317.04,901.253 L1317.04,915.953 L1313.14,916.753 C1312.54,916.853 1312.04,917.553 1312.04,918.153 L1312.04,918.353 L1312.04,924.153 L1312.04,923.953 C1312.04,924.753 1312.64,925.353 1313.44,925.353 L1313.74,925.353 L1317.04,924.653 L1317.04,941.153 L1313.14,941.953 C1312.54,942.053 1312.04,942.753 1312.04,943.353 L1312.04,949.153 C1312.04,949.953 1312.64,950.553 1313.44,950.553 L1313.74,950.553 L1317.04,949.853 L1317.04,964.753 L1319.84,964.753 L1319.84,949.253 L1328.74,947.453 L1328.74,961.553 L1331.54,961.553 L1331.54,946.853 L1335.34,946.153 C1335.94,946.053 1336.44,945.353 1336.44,944.753 L1336.44,938.853 C1336.44,938.053 1335.84,937.453 1335.04,937.453 L1334.84,937.453 L1331.54,938.153 L1331.54,921.653 L1335.34,920.953 M1319.84,940.653 L1319.84,924.053 L1328.74,922.253 L1328.74,938.753 L1319.84,940.653 "/>
<path class="Accidental" d="M1672.04,920.953 C1672.64,920.853 1673.14,920.153 1673.14,919.553 L1673.14,913.653 C1673.14,912.853 1672.54,912.253 1671.74,912.253 L1671.54,912.253 L1668.24,912.953 L1668.24,898.053 L1665.44,898.053 L1665.44,913.553 L1656.54,915.353 L1656.54,901.253 L1653.74,901.253 L1653.74,915.953 L1649.84,916.753 C1649.24,916.853 1648.74,917.553 1648.74,918.153 L1648.74,918.353 L1648.74,924.153 L1648.74,923.953 C1648.74,924.753 1649.34,925.353 1650.14,925.353 L1650.44,925.353 L1653.74,924.653 L1653.74,941.153 L1649.84,941.953 C1649.24,942.053 1648.74,942.753 1648.74,943.353 L1648.74,949.153 C1648.74,949.953 1649.34,950.553 1650.14,950.553 L1650.44,950.553 L1653.74,949.853 L1653.74,964.753 L1656.54,964.753 L1656.54,949.253 L1665.44,947.453 L1665.44,961.553 L1668.24,961.553 L1668.24,946.853 L1672.04,946.153 C1672.64,946.053 1673.14,945.353 1673.14,944.753 L1673.14,938.853 C1673.14,938.053 1672.54,937.453 1671.74,937.453 L1671.54,937.453 L1668.24,938.153 L1668.24,921.653 L1672.04,920.953 M1656.54,940.653 L1656.54,924.053 L1665.44,922.253 L1665.44,938.753 L1656.54,940.653 "/>
<path class="Accidental" d="M1801.1,933.454 C1801.7,933.354 1802.2,932.654 1802.2,932.054 L1802.2,926.154 C1802.2,925.354 1801.6,924.754 1800.8,924.754 L1800.6,924.754 L1797.3,925.454 L1797.3,910.554 L1794.5,910.554 L1794.5,926.054 L1785.6,927.854 L1785.6,913.754 L1782.8,913.754 L1782.8,928.454 L1778.9,929.254 C1778.3,929.354 1777.8,930.054 1777.8,930.654 L1777.8,930.854 L1777.8,936.654 L1777.8,936.454 C1777.8,937.254 1778.4,937.854 1779.2,937.854 L1779.5,937.854 L1782.8,937.154 L1782.8,953.654 L1778.9,954.454 C1778.3,954.554 1777.8,955.254 1777.8,955.854 L1777.8,961.654 C1777.8,962.454 1778.4,963.054 1779.2,963.054 L1779.5,963.054 L1782.8,962.354 L1782.8,977.254 L1785.6,977.254 L1785.6,961.754 L1794.5,959.954 L1794.5,974.054 L1797.3,974.054 L1797.3,959.354 L1801.1,958.654 C1801.7,958.554 1802.2,957.854 1802.2,957.254 L1802.2,951.354 C1802.2,950.554 1801.6,949.954 1800.8,949.954 L1800.6,949.954 L1797.3,950.654 L1797.3,934.154 L1801.1,933.454 M1785.6,953.154 L1785.6,936.554 L1794.5,934.754 L1794.5,951.254 L1785.6,953.154 "/>
<path class="Accidental" d="M2253.92,970.956 C2254.52,970.856 2255.02,970.156 2255.02,969.556 L2255.02,963.656 C2255.02,962.856 2254.42,962.256 2253.62,962.256 L2253.42,962.256 L2250.12,962.956 L2250.12,948.056 L2247.32,948.056 L2247.32,963.556 L2238.42,965.356 L2238.42,951.256 L2235.62,951.256 L2235.62,965.956 L2231.72,966.756 C2231.12,966.856 2230.62,967.556 2230.62,968.156 L2230.62,968.356 L2230.62,974.156 L2230.62,973.956 C2230.62,974.756 2231.22,975.356 2232.02,975.356 L2232.32,975.356 L2235.62,974.656 L2235.62,991.156 L2231.72,991.956 C2231.12,992.056 2230.62,992.756 2230.62,993.356 L2230.62,999.156 C2230.62,999.956 2231.22,1000.56 2232.02,1000.56 L2232.32,1000.56 L2235.62,999.856 L2235.62,1014.76 L2238.42,1014.76 L2238.42,999.256 L2247.32,997.456 L2247.32,1011.56 L2250.12,1011.56 L2250.12,996.856 L2253.92,996.156 C2254.52,996.056 2255.02,995.356 2255.02,994.756 L2255.02,988.856 C2255.02,988.056 2254.42,987.456 2253.62,987.456 L2253.42,987.456 L2250.12,988.156 L2250.12,971.656 L2253.92,970.956 M2238.42,990.656 L2238.42,974.056 L2247.32,972.256 L2247.32,988.756 L2238.42,990.656 "/>
<path class="Accidental" d="M728.717,770.944 C729.317,770.844 729.817,770.144 729.817,769.544 L729.817,763.644 C729.817,762.844 729.217,762.244 728.417,762.244 L728.217,762.244 L724.917,762.944 L724.917,748.044 L722.117,748.044 L722.117,763.544 L713.217,765.344 L713.217,751.244 L710.417,751.244 L710.417,765.944 L706.517,766.744 C705.917,766.844 705.417,767.544 705.417,768.144 L705.417,768.344 L705.417,774.144 L705.417,773.944 C705.417,774.744 706.017,775.344 706.817,775.344 L707.117,775.344 L710.417,774.644 L710.417,791.144 L706.517,791.944 C705.917,792.044 705.417,792.744 705.417,793.344 L705.417,799.144 C705.417,799.944 706.017,800.544 706.817,800.544 L707.117,800.544 L710.417,799.844 L710.417,814.744 L713.217,814.744 L713.217,799.244 L722.117,797.444 L722.117,811.544 L724.917,811.544 L724.917,796.844 L728.717,796.144 C729.317,796.044 729.817,795.344 729.817,794.744 L729.817,788.844 C729.817,788.044 729.217,787.444 728.417,787.444 L728.217,787.444 L724.917,788.144 L724.917,771.644 L728.717,770.944 M713.217,790.644 L713.217,774.044 L722.117,772.244 L722.117,788.744 L713.217,790.644 "/>
<path class="Accidental" d="M1195.44,733.442 C1196.04,733.342 1196.54,732.642 1196.54,732.042 L1196.54,726.142 C1196.54,725.342 1195.94,724.742 1195.14,724.742 L1194.94,724.742 L1191.64,725.442 L1191.64,710.542 L1188.84,710.542 L1188.84,726.042 L1179.94,727.842 L1179.94,713.742 L1177.14,713.742 L1177.14,728.442 L1173.24,729.242 C1172.64,729.342 1172.14,730.042 1172.14,730.642 L1172.14,730.842 L1172.14,736.642 L1172.14,736.442 C1172.14,737.242 1172.74,737.842 1173.54,737.842 L1173.84,737.842 L1177.14,737.142 L1177.14,753.642 L1173.24,754.442 C1172.64,754.542 1172.14,755.242 1172.14,755.842 L1172.14,761.642 C1172.14,762.442 1172.74,763.042 1173.54,763.042 L1173.84,763.042 L1177.14,762.342 L1177.14,777.242 L1179.94,777.242 L1179.94,761.742 L1188.84,759.942 L1188.84,774.042 L1191.64,774.042 L1191.64,759.342 L1195.44,758.642 C1196.04,758.542 1196.54,757.842 1196.54,757.242 L1196.54,751.342 C1196.54,750.542 1195.94,749.942 1195.14,749.942 L1194.94,749.942 L1191.64,750.642 L1191.64,734.142 L1195.44,733.442 M1179.94,753.142 L1179.94,736.542 L1188.84,734.742 L1188.84,751.242 L1179.94,753.142 "/>
<path class="Accidental" d="M1335.34,720.941 C1335.94,720.841 1336.44,720.141 1336.44,719.541 L1336.44,713.641 C1336.44,712.841 1335.84,712.241 1335.04,712.241 L1334.84,712.241 L1331.54,712.941 L1331.54,698.041 L1328.74,698.041 L1328.74,713.541 L1319.84,715.341 L1319.84,701.241 L1317.04,701.241 L1317.04,715.941 L1313.14,716.741 C1312.54,716.841 1312.04,717.541 1312.04,718.141 L1312.04,718.341 L1312.04,724.141 L1312.04,723.941 C1312.04,724.741 1312.64,725.341 1313.44,725.341 L1313.74,725.341 L1317.04,724.641 L1317.04,741.141 L1313.14,741.941 C1312.54,742.041 1312.04,742.741 1312.04,743.341 L1312.04,749.141 C1312.04,749.941 1312.64,750.541 1313.44,750.541 L1313.74,750.541 L1317.04,749.841 L1317.04,764.741 L1319.84,764.741 L1319.84,749.241 L1328.74,747.441 L1328.74,761.541 L1331.54,761.541 L1331.54,746.841 L1335.34,746.141 C1335.94,746.041 1336.44,745.341 1336.44,744.741 L1336.44,738.841 C1336.44,738.041 1335.84,737.441 1335.04,737.441 L1334.84,737.441 L1331.54,738.141 L1331.54,721.641 L1335.34,720.941 M1319.84,740.641 L1319.84,724.041 L1328.74,722.241 L1328.74,738.741 L1319.84,740.641 "/>
<path class="Accidental" d="M1672.04,720.941 C1672.64,720.841 1673.14,720.141 1673.14,719.541 L1673.14,713.641 C1673.14,712.841 1672.54,712.241 1671.74,712.241 L1671.54,712.241 L1668.24,712.941 L1668.24,698.041 L1665.44,698.041 L1665.44,713.541 L1656.54,715.341 L1656.54,701.241 L1653.74,701.241 L1653.74,715.941 L1649.84,716.741 C1649.24,716.841 1648.74,717.541 1648.74,718.141 L1648.74,718.341 L1648.74,724.141 L1648.74,723.941 C1648.74,724.741 1649.34,725.341 1650.14,725.341 L1650.44,725.341 L1653.74,724.641 L1653.74,741.141 L1649.84,741.941 C1649.24,742.041 1648.74,742.741 1648.74,743.341 L1648.74,749.141 C1648.74,749.941 1649.34,750.541 1650.14,750.541 L1650.44,750.541 L1653.74,749.841 L1653.74,764.741 L1656.54,764.741 L1656.54,749.241 L1665.44,747.441 L1665.44,761.541 L1668.24,761.541 L1668.24,746.841 L1672.04,746.141 C1672.64,746.041 1673.14,745.341 1673.14,744.741 L1673.14,738.841 C1673.14,738.041 1672.54,737.441 1671.74,737.441 L1671.54,737.441 L1668.24,738.141 L1668.24,721.641 L1672.04,720.941 M1656.54,740.641 L1656.54,724.041 L1665.44,722.241 L1665.44,738.741 L1656.54,740.641 "/>
<path class="Accidental" d="M1801.1,733.442 C1801.7,733.342 1802.2,732.642 1802.2,732.042 L1802.2,726.142 C1802.2,725.342 1801.6,724.742 1800.8,724.742 L1800.6,724.742 L1797.3,725.442 L1797.3,710.542 L1794.5,710.542 L1794.5,726.042 L1785.6,727.842 L1785.6,713.742 L1782.8,713.742 L1782.8,728.442 L1778.9,729.242 C1778.3,729.342 1777.8,730.042 1777.8,730.642 L1777.8,730.842 L1777.8,736.642 L1777.8,736.442 C1777.8,737.242 1778.4,737.842 1779.2,737.842 L1779.5,737.842 L1782.8,737.142 L1782.8,753.642 L1778.9,754.442 C1778.3,754.542 1777.8,755.242 1777.8,755.842 L1777.8,761.642 C1777.8,762.442 1778.4,763.042 1779.2,763.042 L1779.5,763.042 L1782.8,762.342 L1782.8,777.242 L1785.6,777.242 L1785.6,761.742 L1794.5,759.942 L1794.5,774.042 L1797.3,774.042 L1797.3,759.342 L1801.1,758.642 C1801.7,758.542 1802.2,757.842 1802.2,757.242 L1802.2,751.342 C1802.2,750.542 1801.6,749.942 1800.8,749.942 L1800.6,749.942 L1797.3,750.642 L1797.3,734.142 L1801.1,733.442 M1785.6,753.142 L1785.6,736.542 L1794.5,734.742 L1794.5,751.242 L1785.6,753.142 "/>
<path class="Accidental" d="M2245.17,770.944 C2245.77,770.844 2246.27,770.144 2246.27,769.544 L2246.27,763.644 C2246.27,762.844 2245.67,762.244 2244.87,762.244 L2244.67,762.244 L2241.37,762.944 L2241.37,748.044 L2238.57,748.044 L2238.57,763.544 L2229.67,765.344 L2229.67,751.244 L2226.87,751.244 L2226.87,765.944 L2222.97,766.744 C2222.37,766.844 2221.87,767.544 2221.87,768.144 L2221.87,768.344 L2221.87,774.144 L2221.87,773.944 C2221.87,774.744 2222.47,775.344 2223.27,775.344 L2223.57,775.344 L2226.87,774.644 L2226.87,791.144 L2222.97,791.944 C2222.37,792.044 2221.87,792.744 2221.87,793.344 L2221.87,799.144 C2221.87,799.944 2222.47,800.544 2223.27,800.544 L2223.57,800.544 L2226.87,799.844 L2226.87,814.744 L2229.67,814.744 L2229.67,799.244 L2238.57,797.444 L2238.57,811.544 L2241.37,811.544 L2241.37,796.844 L2245.17,796.144 C2245.77,796.044 2246.27,795.344 2246.27,794.744 L2246.27,788.844 C2246.27,788.044 2245.67,787.444 2244.87,787.444 L2244.67,787.444 L2241.37,788.144 L2241.37,771.644 L2245.17,770.944 M2229.67,790.644 L2229.67,774.044 L2238.57,772.244 L2238.57,788.744 L2229.67,790.644 "/>
<polyline class="LedgerLine" fill="none" stroke="#000000" stroke-width="4.00" stroke-linejoin="bevel" points="455.002,806.545 504.998,806.545"/>
<polyline class="LedgerLine" fill="none" stroke="#000000" stroke-width="4.00" stroke-linejoin="bevel" points="455.002,781.544 504.998,781.544"/>
<polyline class="LedgerLine" fill="none" stroke="#000000" stroke-width="4.00" stroke-linejoin="bevel" points="595.535,781.544 645.53,781.544"/>
<polyline class="LedgerLine" fill="none" stroke="#000000" stroke-width="4.00" stroke-linejoin="bevel" points="736.067,781.544 786.062,781.544"/>
<polyline class="LedgerLine" fill="none" stroke="#000000" stroke-width="4.00" stroke-linejoin="bevel" points="2252.52,781.544 2302.52,781.544"/>
<polyline class="LedgerLine" fill="none" stroke="#000000" stroke-width="4.00" stroke-linejoin="bevel" points="2383.45,781.544 2433.45,781.544"/>
<polyline class="LedgerLine" fill="none" stroke="#000000" stroke-width="4.00" stroke-linejoin="bevel" points="2514.39,806.545 2564.38,806.545"/>
<polyline class="LedgerLine" fill="none" stroke="#000000" stroke-width="4.00" stroke-linejoin="bevel" points="2514.39,781.544 2564.38,781.544"/>
<polyline class="Stem" fill="none" stroke="#000000" stroke-width="2.75" stroke-linejoin="bevel" points="494.872,1003.2 494.872,919.053"/>
<polyline class="Stem" fill="none" stroke="#000000" stroke-width="2.75" stroke-linejoin="bevel" points="635.404,990.697 635.404,909.677"/>
<polyline class="Stem" fill="none" stroke="#000000" stroke-width="2.75" stroke-linejoin="bevel" points="775.937,978.196 775.937,900.301"/>
<polyline class="Stem" fill="none" stroke="#000000" stroke-width="2.75" stroke-linejoin="bevel" points="886.725,972.576 886.725,1047.19"/>
<polyline class="Stem" fill="none" stroke="#000000" stroke-width="2.75" stroke-linejoin="bevel" points="1064.26,960.075 1064.26,1037.81"/>
<polyline class="Stem" fill="none" stroke="#000000" stroke-width="2.75" stroke-linejoin="bevel" points="1204.16,947.574 1204.16,1028.43"/>
<polyline class="Stem" fill="none" stroke="#000000" stroke-width="2.75" stroke-linejoin="bevel" points="1344.06,935.074 1344.06,1019.06"/>
<polyline class="Stem" fill="none" stroke="#000000" stroke-width="2.75" stroke-linejoin="bevel" points="1483.97,922.573 1483.97,1006.56"/>
<polyline class="Stem" fill="none" stroke="#000000" stroke-width="2.75" stroke-linejoin="bevel" points="1680.77,935.074 1680.77,1019.06"/>
<polyline class="Stem" fill="none" stroke="#000000" stroke-width="2.75" stroke-linejoin="bevel" points="1809.83,947.574 1809.83,1028.43"/>
<polyline class="Stem" fill="none" stroke="#000000" stroke-width="2.75" stroke-linejoin="bevel" points="1938.88,960.075 1938.88,1037.81"/>
<polyline class="Stem" fill="none" stroke="#000000" stroke-width="2.75" stroke-linejoin="bevel" points="2067.94,972.576 2067.94,1047.19"/>
<polyline class="Stem" fill="none" stroke="#000000" stroke-width="2.75" stroke-linejoin="bevel" points="2292.39,978.196 2292.39,900.301"/>
<polyline class="Stem" fill="none" stroke="#000000" stroke-width="2.75" stroke-linejoin="bevel" points="2423.32,990.697 2423.32,909.677"/>
<polyline class="Stem" fill="none" stroke="#000000" stroke-width="2.75" stroke-linejoin="bevel" points="2554.26,1003.12 2554.26,919.053"/>
<polyline class="Stem" fill="none" stroke="#000000" stroke-width="2.75" stroke-linejoin="bevel" points="494.872,803.185 494.872,706.539"/>
<polyline class="Stem" fill="none" stroke="#000000" stroke-width="2.75" stroke-linejoin="bevel" points="635.404,790.684 635.404,706.539"/>
<polyline class="Stem" fill="none" stroke="#000000" stroke-width="2.75" stroke-linejoin="bevel" points="775.937,778.184 775.937,694.038"/>
<polyline class="Stem" fill="none" stroke="#000000" stroke-width="2.75" stroke-linejoin="bevel" points="916.469,765.683 916.469,681.538"/>
<polyline class="Stem" fill="none" stroke="#000000" stroke-width="2.75" stroke-linejoin="bevel" points="1094,753.182 1094,669.037"/>
<polyline class="Stem" fill="none" stroke="#000000" stroke-width="2.75" stroke-linejoin="bevel" points="1233.91,740.681 1233.91,656.536"/>
<polyline class="Stem" fill="none" stroke="#000000" stroke-width="2.75" stroke-linejoin="bevel" points="1373.81,728.181 1373.81,647.16"/>
<polyline class="Stem" fill="none" stroke="#000000" stroke-width="2.75" stroke-linejoin="bevel" points="1513.71,715.68 1513.71,637.785"/>
<polyline class="Stem" fill="none" stroke="#000000" stroke-width="2.75" stroke-linejoin="bevel" points="1710.51,728.181 1710.51,647.16"/>
<polyline class="Stem" fill="none" stroke="#000000" stroke-width="2.75" stroke-linejoin="bevel" points="1839.57,740.681 1839.57,656.536"/>
<polyline class="Stem" fill="none" stroke="#000000" stroke-width="2.75" stroke-linejoin="bevel" points="1968.63,753.182 1968.63,669.037"/>
<polyline class="Stem" fill="none" stroke="#000000" stroke-width="2.75" stroke-linejoin="bevel" points="2097.68,765.683 2097.68,681.538"/>
<polyline class="Stem" fill="none" stroke="#000000" stroke-width="2.75" stroke-linejoin="bevel" points="2292.39,778.184 2292.39,694.038"/>
<polyline class="Stem" fill="none" stroke="#000000" stroke-width="2.75" stroke-linejoin="bevel" points="2423.32,790.684 2423.32,706.539"/>
<polyline class="Stem" fill="none" stroke="#000000" stroke-width="2.75" stroke-linejoin="bevel" points="2554.26,803.105 2554.26,706.539"/>
<path class="Note" d="M495.253,998.358 C493.753,995.658 490.853,993.958 486.953,993.558 C486.353,993.458 485.853,993.458 485.253,993.458 C481.753,993.458 477.953,994.458 474.453,996.358 C467.853,999.958 463.753,1005.86 463.753,1010.96 C463.753,1012.36 463.953,1013.66 464.653,1014.86 C466.153,1017.56 469.153,1019.26 473.053,1019.66 C473.653,1019.76 474.153,1019.76 474.753,1019.76 C478.253,1019.76 481.953,1018.76 485.453,1016.86 C492.053,1013.26 496.253,1007.46 496.253,1002.36 C496.253,1000.96 495.953,999.558 495.253,998.358"/>
<path class="Note" d="M635.785,985.857 C634.285,983.157 631.385,981.457 627.485,981.057 C626.885,980.957 626.385,980.957 625.785,980.957 C622.285,980.957 618.485,981.957 614.985,983.857 C608.385,987.457 604.285,993.357 604.285,998.457 C604.285,999.857 604.485,1001.16 605.185,1002.36 C606.685,1005.06 609.685,1006.76 613.585,1007.16 C614.185,1007.26 614.685,1007.26 615.285,1007.26 C618.785,1007.26 622.485,1006.26 625.985,1004.36 C632.585,1000.76 636.785,994.957 636.785,989.857 C636.785,988.457 636.485,987.057 635.785,985.857"/>
<path class="Note" d="M776.318,973.356 C774.818,970.656 771.918,968.956 768.018,968.556 C767.418,968.456 766.918,968.456 766.318,968.456 C762.818,968.456 759.018,969.456 755.518,971.356 C748.918,974.956 744.818,980.856 744.818,985.956 C744.818,987.356 745.018,988.656 745.718,989.856 C747.218,992.556 750.218,994.256 754.118,994.656 C754.718,994.756 755.218,994.756 755.818,994.756 C759.318,994.756 763.018,993.756 766.518,991.856 C773.118,988.256 777.318,982.456 777.318,977.356 C777.318,975.956 777.018,974.556 776.318,973.356"/>
<path class="Note" d="M916.85,960.856 C915.35,958.156 912.45,956.456 908.55,956.056 C907.95,955.956 907.45,955.956 906.85,955.956 C903.35,955.956 899.55,956.956 896.05,958.856 C889.45,962.456 885.35,968.356 885.35,973.456 C885.35,974.856 885.55,976.156 886.25,977.356 C887.75,980.056 890.75,981.756 894.65,982.156 C895.25,982.256 895.75,982.256 896.35,982.256 C899.85,982.256 903.55,981.256 907.05,979.356 C913.65,975.756 917.85,969.956 917.85,964.856 C917.85,963.456 917.55,962.056 916.85,960.856"/>
<path class="Note" d="M1094.38,948.355 C1092.88,945.655 1089.98,943.955 1086.08,943.555 C1085.48,943.455 1084.98,943.455 1084.38,943.455 C1080.88,943.455 1077.08,944.455 1073.58,946.355 C1066.98,949.955 1062.88,955.855 1062.88,960.955 C1062.88,962.355 1063.08,963.655 1063.78,964.855 C1065.28,967.555 1068.28,969.255 1072.18,969.655 C1072.78,969.755 1073.28,969.755 1073.88,969.755 C1077.38,969.755 1081.08,968.755 1084.58,966.855 C1091.18,963.255 1095.38,957.455 1095.38,952.355 C1095.38,950.955 1095.08,949.555 1094.38,948.355"/>
<path class="Note" d="M1234.29,935.854 C1232.79,933.154 1229.89,931.454 1225.99,931.054 C1225.39,930.954 1224.89,930.954 1224.29,930.954 C1220.79,930.954 1216.99,931.954 1213.49,933.854 C1206.89,937.454 1202.79,943.354 1202.79,948.454 C1202.79,949.854 1202.99,951.154 1203.69,952.354 C1205.19,955.054 1208.19,956.754 1212.09,957.154 C1212.69,957.254 1213.19,957.254 1213.79,957.254 C1217.29,957.254 1220.99,956.254 1224.49,954.354 C1231.09,950.754 1235.29,944.954 1235.29,939.854 C1235.29,938.454 1234.99,937.054 1234.29,935.854"/>
<path class="Note" d="M1374.19,923.353 C1372.69,920.653 1369.79,918.953 1365.89,918.553 C1365.29,918.453 1364.79,918.453 1364.19,918.453 C1360.69,918.453 1356.89,919.453 1353.39,921.353 C1346.79,924.953 1342.69,930.853 1342.69,935.953 C1342.69,937.353 1342.89,938.653 1343.59,939.853 C1345.09,942.553 1348.09,944.253 1351.99,944.653 C1352.59,944.753 1353.09,944.753 1353.69,944.753 C1357.19,944.753 1360.89,943.753 1364.39,941.853 C1370.99,938.253 1375.19,932.453 1375.19,927.353 C1375.19,925.953 1374.89,924.553 1374.19,923.353"/>
<path class="Note" d="M1514.09,910.853 C1512.59,908.153 1509.69,906.453 1505.79,906.053 C1505.19,905.953 1504.69,905.953 1504.09,905.953 C1500.59,905.953 1496.79,906.953 1493.29,908.853 C1486.69,912.453 1482.59,918.353 1482.59,923.453 C1482.59,924.853 1482.79,926.153 1483.49,927.353 C1484.99,930.053 1487.99,931.753 1491.89,932.153 C1492.49,932.253 1492.99,932.253 1493.59,932.253 C1497.09,932.253 1500.79,931.253 1504.29,929.353 C1510.89,925.753 1515.09,919.953 1515.09,914.853 C1515.09,913.453 1514.79,912.053 1514.09,910.853"/>
<path class="Note" d="M1710.89,923.353 C1709.39,920.653 1706.49,918.953 1702.59,918.553 C1701.99,918.453 1701.49,918.453 1700.89,918.453 C1697.39,918.453 1693.59,919.453 1690.09,921.353 C1683.49,924.953 1679.39,930.853 1679.39,935.953 C1679.39,937.353 1679.59,938.653 1680.29,939.853 C1681.79,942.553 1684.79,944.253 1688.69,944.653 C1689.29,944.753 1689.79,944.753 1690.39,944.753 C1693.89,944.753 1697.59,943.753 1701.09,941.853 C1707.69,938.253 1711.89,932.453 1711.89,927.353 C1711.89,925.953 1711.59,924.553 1710.89,923.353"/>
<path class="Note" d="M1839.95,935.854 C1838.45,933.154 1835.55,931.454 1831.65,931.054 C1831.05,930.954 1830.55,930.954 1829.95,930.954 C1826.45,930.954 1822.65,931.954 1819.15,933.854 C1812.55,937.454 1808.45,943.354 1808.45,948.454 C1808.45,949.854 1808.65,951.154 1809.35,952.354 C1810.85,955.054 1813.85,956.754 1817.75,957.154 C1818.35,957.254 1818.85,957.254 1819.45,957.254 C1822.95,957.254 1826.65,956.254 1830.15,954.354 C1836.75,950.754 1840.95,944.954 1840.95,939.854 C1840.95,938.454 1840.65,937.054 1839.95,935.854"/>
<path class="Note" d="M1969.01,948.355 C1967.51,945.655 1964.61,943.955 1960.71,943.555 C1960.11,943.455 1959.61,943.455 1959.01,943.455 C1955.51,943.455 1951.71,944.455 1948.21,946.355 C1941.61,949.955 1937.51,955.855 1937.51,960.955 C1937.51,962.355 1937.71,963.655 1938.41,964.855 C1939.91,967.555 1942.91,969.255 1946.81,969.655 C1947.41,969.755 1947.91,969.755 1948.51,969.755 C1952.01,969.755 1955.71,968.755 1959.21,966.855 C1965.81,963.255 1970.01,957.455 1970.01,952.355 C1970.01,950.955 1969.71,949.555 1969.01,948.355"/>
<path class="Note" d="M2098.06,960.856 C2096.56,958.156 2093.66,956.456 2089.76,956.056 C2089.16,955.956 2088.66,955.956 2088.06,955.956 C2084.56,955.956 2080.76,956.956 2077.26,958.856 C2070.66,962.456 2066.56,968.356 2066.56,973.456 C2066.56,974.856 2066.76,976.156 2067.46,977.356 C2068.96,980.056 2071.96,981.756 2075.86,982.156 C2076.46,982.256 2076.96,982.256 2077.56,982.256 C2081.06,982.256 2084.76,981.256 2088.26,979.356 C2094.86,975.756 2099.06,969.956 2099.06,964.856 C2099.06,963.456 2098.76,962.056 2098.06,960.856"/>
<path class="Note" d="M2292.77,973.356 C2291.27,970.656 2288.37,968.956 2284.47,968.556 C2283.87,968.456 2283.37,968.456 2282.77,968.456 C2279.27,968.456 2275.47,969.456 2271.97,971.356 C2265.37,974.956 2261.27,980.856 2261.27,985.956 C2261.27,987.356 2261.47,988.656 2262.17,989.856 C2263.67,992.556 2266.67,994.256 2270.57,994.656 C2271.17,994.756 2271.67,994.756 2272.27,994.756 C2275.77,994.756 2279.47,993.756 2282.97,991.856 C2289.57,988.256 2293.77,982.456 2293.77,977.356 C2293.77,975.956 2293.47,974.556 2292.77,973.356"/>
<path class="Note" d="M2423.7,985.857 C2422.2,983.157 2419.3,981.457 2415.4,981.057 C2414.8,980.957 2414.3,980.957 2413.7,980.957 C2410.2,980.957 2406.4,981.957 2402.9,983.857 C2396.3,987.457 2392.2,993.357 2392.2,998.457 C2392.2,999.857 2392.4,1001.16 2393.1,1002.36 C2394.6,1005.06 2397.6,1006.76 2401.5,1007.16 C2402.1,1007.26 2402.6,1007.26 2403.2,1007.26 C2406.7,1007.26 2410.4,1006.26 2413.9,1004.36 C2420.5,1000.76 2424.7,994.957 2424.7,989.857 C2424.7,988.457 2424.4,987.057 2423.7,985.857"/>
<path class="Note" d="M2554.64,998.358 C2553.14,995.658 2550.24,993.958 2546.34,993.558 C2545.74,993.458 2545.24,993.458 2544.64,993.458 C2541.14,993.458 2537.34,994.458 2533.84,996.358 C2527.24,999.958 2523.14,1005.76 2523.14,1010.86 C2523.14,1012.26 2523.54,1013.66 2524.24,1014.86 C2525.74,1017.66 2528.54,1019.26 2532.44,1019.66 C2533.04,1019.76 2533.54,1019.76 2534.14,1019.76 C2537.64,1019.76 2541.44,1018.76 2544.94,1016.86 C2551.54,1013.26 2555.64,1007.36 2555.64,1002.26 C2555.64,1000.86 2555.34,999.558 2554.64,998.358 M2550.44,1004.66 C2548.74,1006.46 2545.54,1008.76 2541.94,1010.86 C2538.34,1012.96 2534.64,1014.66 2532.34,1015.36 C2531.84,1015.46 2531.24,1015.56 2530.74,1015.56 C2529.24,1015.56 2527.94,1014.86 2527.24,1013.76 C2526.94,1013.16 2526.74,1012.56 2526.74,1011.96 C2526.74,1010.86 2527.24,1009.76 2528.34,1008.56 C2530.04,1006.76 2533.24,1004.36 2536.84,1002.26 C2540.44,1000.16 2544.14,998.458 2546.54,997.858 L2546.74,997.858 C2547.34,997.658 2547.84,997.558 2548.34,997.558 C2549.74,997.558 2550.84,998.158 2551.54,999.458 C2551.84,1000.06 2552.04,1000.56 2552.04,1001.16 C2552.04,1002.46 2551.34,1003.76 2550.44,1004.66"/>
<path class="Note" d="M495.253,798.345 C493.753,795.645 490.853,793.945 486.953,793.545 C486.353,793.445 485.853,793.445 485.253,793.445 C481.753,793.445 477.953,794.445 474.453,796.345 C467.853,799.945 463.753,805.845 463.753,810.945 C463.753,812.345 463.953,813.645 464.653,814.845 C466.153,817.545 469.153,819.245 473.053,819.645 C473.653,819.745 474.153,819.745 474.753,819.745 C478.253,819.745 481.953,818.745 485.453,816.845 C492.053,813.245 496.253,807.445 496.253,802.345 C496.253,800.945 495.953,799.545 495.253,798.345"/>
<path class="Note" d="M635.785,785.845 C634.285,783.145 631.385,781.445 627.485,781.045 C626.885,780.945 626.385,780.945 625.785,780.945 C622.285,780.945 618.485,781.945 614.985,783.845 C608.385,787.445 604.285,793.345 604.285,798.445 C604.285,799.845 604.485,801.145 605.185,802.345 C606.685,805.045 609.685,806.745 613.585,807.145 C614.185,807.245 614.685,807.245 615.285,807.245 C618.785,807.245 622.485,806.245 625.985,804.345 C632.585,800.745 636.785,794.945 636.785,789.845 C636.785,788.445 636.485,787.045 635.785,785.845"/>
<path class="Note" d="M776.318,773.344 C774.818,770.644 771.918,768.944 768.018,768.544 C767.418,768.444 766.918,768.444 766.318,768.444 C762.818,768.444 759.018,769.444 755.518,771.344 C748.918,774.944 744.818,780.844 744.818,785.944 C744.818,787.344 745.018,788.644 745.718,789.844 C747.218,792.544 750.218,794.244 754.118,794.644 C754.718,794.744 755.218,794.744 755.818,794.744 C759.318,794.744 763.018,793.744 766.518,791.844 C773.118,788.244 777.318,782.444 777.318,777.344 C777.318,775.944 777.018,774.544 776.318,773.344"/>
<path class="Note" d="M916.85,760.843 C915.35,758.143 912.45,756.443 908.55,756.043 C907.95,755.943 907.45,755.943 906.85,755.943 C903.35,755.943 899.55,756.943 896.05,758.843 C889.45,762.443 885.35,768.343 885.35,773.443 C885.35,774.843 885.55,776.143 886.25,777.343 C887.75,780.043 890.75,781.743 894.65,782.143 C895.25,782.243 895.75,782.243 896.35,782.243 C899.85,782.243 903.55,781.243 907.05,779.343 C913.65,775.743 917.85,769.943 917.85,764.843 C917.85,763.443 917.55,762.043 916.85,760.843"/>
<path class="Note" d="M1094.38,748.342 C1092.88,745.642 1089.98,743.942 1086.08,743.542 C1085.48,743.442 1084.98,743.442 1084.38,743.442 C1080.88,743.442 1077.08,744.442 1073.58,746.342 C1066.98,749.942 1062.88,755.842 1062.88,760.942 C1062.88,762.342 1063.08,763.642 1063.78,764.842 C1065.28,767.542 1068.28,769.242 1072.18,769.642 C1072.78,769.742 1073.28,769.742 1073.88,769.742 C1077.38,769.742 1081.08,768.742 1084.58,766.842 C1091.18,763.242 1095.38,757.442 1095.38,752.342 C1095.38,750.942 1095.08,749.542 1094.38,748.342"/>
<path class="Note" d="M1234.29,735.842 C1232.79,733.142 1229.89,731.442 1225.99,731.042 C1225.39,730.942 1224.89,730.942 1224.29,730.942 C1220.79,730.942 1216.99,731.942 1213.49,733.842 C1206.89,737.442 1202.79,743.342 1202.79,748.442 C1202.79,749.842 1202.99,751.142 1203.69,752.342 C1205.19,755.042 1208.19,756.742 1212.09,757.142 C1212.69,757.242 1213.19,757.242 1213.79,757.242 C1217.29,757.242 1220.99,756.242 1224.49,754.342 C1231.09,750.742 1235.29,744.942 1235.29,739.842 C1235.29,738.442 1234.99,737.042 1234.29,735.842"/>
<path class="Note" d="M1374.19,723.341 C1372.69,720.641 1369.79,718.941 1365.89,718.541 C1365.29,718.441 1364.79,718.441 1364.19,718.441 C1360.69,718.441 1356.89,719.441 1353.39,721.341 C1346.79,724.941 1342.69,730.841 1342.69,735.941 C1342.69,737.341 1342.89,738.641 1343.59,739.841 C1345.09,742.541 1348.09,744.241 1351.99,744.641 C1352.59,744.741 1353.09,744.741 1353.69,744.741 C1357.19,744.741 1360.89,743.741 1364.39,741.841 C1370.99,738.241 1375.19,732.441 1375.19,727.341 C1375.19,725.941 1374.89,724.541 1374.19,723.341"/>
<path class="Note" d="M1514.09,710.84 C1512.59,708.14 1509.69,706.44 1505.79,706.04 C1505.19,705.94 1504.69,705.94 1504.09,705.94 C1500.59,705.94 1496.79,706.94 1493.29,708.84 C1486.69,712.44 1482.59,718.34 1482.59,723.44 C1482.59,724.84 1482.79,726.14 1483.49,727.34 C1484.99,730.04 1487.99,731.74 1491.89,732.14 C1492.49,732.24 1492.99,732.24 1493.59,732.24 C1497.09,732.24 1500.79,731.24 1504.29,729.34 C1510.89,725.74 1515.09,719.94 1515.09,714.84 C1515.09,713.44 1514.79,712.04 1514.09,710.84"/>
<path class="Note" d="M1710.89,723.341 C1709.39,720.641 1706.49,718.941 1702.59,718.541 C1701.99,718.441 1701.49,718.441 1700.89,718.441 C1697.39,718.441 1693.59,719.441 1690.09,721.341 C1683.49,724.941 1679.39,730.841 1679.39,735.941 C1679.39,737.341 1679.59,738.641 1680.29,739.841 C1681.79,742.541 1684.79,744.241 1688.69,744.641 C1689.29,744.741 1689.79,744.741 1690.39,744.741 C1693.89,744.741 1697.59,743.741 1701.09,741.841 C1707.69,738.241 1711.89,732.441 1711.89,727.341 C1711.89,725.941 1711.59,724.541 1710.89,723.341"/>
<path class="Note" d="M1839.95,735.842 C1838.45,733.142 1835.55,731.442 1831.65,731.042 C1831.05,730.942 1830.55,730.942 1829.95,730.942 C1826.45,730.942 1822.65,731.942 1819.15,733.842 C1812.55,737.442 1808.45,743.342 1808.45,748.442 C1808.45,749.842 1808.65,751.142 1809.35,752.342 C1810.85,755.042 1813.85,756.742 1817.75,757.142 C1818.35,757.242 1818.85,757.242 1819.45,757.242 C1822.95,757.242 1826.65,756.242 1830.15,754.342 C1836.75,750.742 1840.95,744.942 1840.95,739.842 C1840.95,738.442 1840.65,737.042 1839.95,735.842"/>
<path class="Note" d="M1969.01,748.342 C1967.51,745.642 1964.61,743.942 1960.71,743.542 C1960.11,743.442 1959.61,743.442 1959.01,743.442 C1955.51,743.442 1951.71,744.442 1948.21,746.342 C1941.61,749.942 1937.51,755.842 1937.51,760.942 C1937.51,762.342 1937.71,763.642 1938.41,764.842 C1939.91,767.542 1942.91,769.242 1946.81,769.642 C1947.41,769.742 1947.91,769.742 1948.51,769.742 C1952.01,769.742 1955.71,768.742 1959.21,766.842 C1965.81,763.242 1970.01,757.442 1970.01,752.342 C1970.01,750.942 1969.71,749.542 1969.01,748.342"/>
<path class="Note" d="M2098.06,760.843 C2096.56,758.143 2093.66,756.443 2089.76,756.043 C2089.16,755.943 2088.66,755.943 2088.06,755.943 C2084.56,755.943 2080.76,756.943 2077.26,758.843 C2070.66,762.443 2066.56,768.343 2066.56,773.443 C2066.56,774.843 2066.76,776.143 2067.46,777.343 C2068.96,780.043 2071.96,781.743 2075.86,782.143 C2076.46,782.243 2076.96,782.243 2077.56,782.243 C2081.06,782.243 2084.76,781.243 2088.26,779.343 C2094.86,775.743 2099.06,769.943 2099.06,764.843 C2099.06,763.443 2098.76,762.043 2098.06,760.843"/>
<path class="Note" d="M2292.77,773.344 C2291.27,770.644 2288.37,768.944 2284.47,768.544 C2283.87,768.444 2283.37,768.444 2282.77,768.444 C2279.27,768.444 2275.47,769.444 2271.97,771.344 C2265.37,774.944 2261.27,780.844 2261.27,785.944 C2261.27,787.344 2261.47,788.644 2262.17,789.844 C2263.67,792.544 2266.67,794.244 2270.57,794.644 C2271.17,794.744 2271.67,794.744 2272.27,794.744 C2275.77,794.744 2279.47,793.744 2282.97,791.844 C2289.57,788.244 2293.77,782.444 2293.77,777.344 C2293.77,775.944 2293.47,774.544 2292.77,773.344"/>
<path class="Note" d="M2423.7,785.845 C2422.2,783.145 2419.3,781.445 2415.4,781.045 C2414.8,780.945 2414.3,780.945 2413.7,780.945 C2410.2,780.945 2406.4,781.945 2402.9,783.845 C2396.3,787.445 2392.2,793.345 2392.2,798.445 C2392.2,799.845 2392.4,801.145 2393.1,802.345 C2394.6,805.045 2397.6,806.745 2401.5,807.145 C2402.1,807.245 2402.6,807.245 2403.2,807.245 C2406.7,807.245 2410.4,806.245 2413.9,804.345 C2420.5,800.745 2424.7,794.945 2424.7,789.845 C2424.7,788.445 2424.4,787.045 2423.7,785.845"/>
<path class="Note" d="M2554.64,798.345 C2553.14,795.645 2550.24,793.945 2546.34,793.545 C2545.74,793.445 2545.24,793.445 2544.64,793.445 C2541.14,793.445 2537.34,794.445 2533.84,796.345 C2527.24,799.945 2523.14,805.745 2523.14,810.845 C2523.14,812.245 2523.54,813.645 2524.24,814.845 C2525.74,817.645 2528.54,819.245 2532.44,819.645 C2533.04,819.745 2533.54,819.745 2534.14,819.745 C2537.64,819.745 2541.44,818.745 2544.94,816.845 C2551.54,813.245 2555.64,807.345 2555.64,802.245 C2555.64,800.845 2555.34,799.545 2554.64,798.345 M2550.44,804.645 C2548.74,806.445 2545.54,808.745 2541.94,810.845 C2538.34,812.945 2534.64,814.645 2532.34,815.345 C2531.84,815.445 2531.24,815.545 2530.74,815.545 C2529.24,815.545 2527.94,814.845 2527.24,813.745 C2526.94,813.145 2526.74,812.545 2526.74,811.945 C2526.74,810.845 2527.24,809.745 2528.34,808.545 C2530.04,806.745 2533.24,804.345 2536.84,802.245 C2540.44,800.145 2544.14,798.445 2546.54,797.845 L2546.74,797.845 C2547.34,797.645 2547.84,797.545 2548.34,797.545 C2549.74,797.545 2550.84,798.145 2551.54,799.445 C2551.84,800.045 2552.04,800.545 2552.04,801.145 C2552.04,802.445 2551.34,803.745 2550.44,804.645"/>
<path class="Clef" d="M297,918.954 C289.4,918.954 283.3,923.354 283.2,923.354 C277.4,927.654 275.1,932.754 274.2,936.254 C273.7,938.054 273.5,939.854 273.5,941.554 C273.5,943.954 273.9,946.154 274.8,948.054 C276,950.754 278.3,952.654 281.3,953.654 C282.5,954.054 283.8,954.254 285.1,954.254 C287.3,954.254 289.6,953.654 291.5,952.554 C294.6,950.854 296.5,947.254 296.5,943.354 C296.5,939.854 294.7,936.654 291.7,934.754 C289.6,933.354 287.6,932.954 285.9,932.954 C284.7,932.954 283.6,933.154 282.7,933.454 C281.7,933.854 280,934.854 279.2,935.554 C279.5,933.654 280.7,930.754 281.8,929.154 C282.9,927.554 285.1,925.554 286.8,924.654 C289.3,923.254 292.5,922.654 296,922.654 C306.2,922.654 311.2,930.854 311.2,947.654 C311.2,956.954 307.7,965.854 304.7,971.754 C301.4,978.354 297,984.654 293.1,988.154 C282.7,997.654 272.9,1002.15 272.8,1002.15 C272.8,1002.15 271.3,1003.05 271.7,1004.55 C272,1005.55 272.9,1005.75 273.5,1005.75 C273.6,1005.75 273.9,1005.65 274,1005.65 C274.1,1005.65 285.5,1000.95 294.6,993.854 C299.7,990.154 304.3,986.154 308.3,981.854 C311.9,977.954 315,973.754 317.5,969.554 C321.9,962.054 324.4,954.254 324.4,947.554 C324.4,939.254 322.2,932.354 318.1,927.454 C313.4,921.854 306.3,918.954 297,918.954 M328.4,931.654 C328.4,934.454 330.6,936.654 333.2,936.654 C335.8,936.654 338,934.454 338,931.654 C338,928.854 335.8,926.554 333.2,926.554 C330.6,926.554 328.4,928.854 328.4,931.654 M328.4,956.354 C328.4,959.154 330.6,961.454 333.2,961.454 C335.8,961.454 338,959.154 338,956.354 C338,953.554 335.8,951.254 333.2,951.254 C330.6,951.254 328.4,953.554 328.4,956.354"/>
<path class="Clef" d="M335,725.641 C333.8,720.241 331.1,716.341 330.3,715.341 C327.1,711.041 323.1,708.241 318.4,706.841 C316.1,706.141 314,705.941 312,705.941 C311.3,705.941 310.6,705.941 309.9,706.041 C308.9,700.041 307.8,694.141 306.9,688.741 C312.5,682.541 316.2,676.641 318.6,672.241 C322.2,665.541 323.6,660.841 323.7,660.641 C324.9,657.641 325.6,653.841 325.6,649.341 C325.6,646.641 325.3,643.741 324.9,640.741 C323.8,633.641 321.6,626.941 319.1,623.241 C317.8,621.341 316.6,620.241 315.4,620.241 C314.2,620.241 311.7,621.441 308.8,624.241 C306.5,626.441 303.2,630.341 300.6,636.341 C298.3,641.741 297.6,648.641 297.6,654.541 C297.6,656.341 297.7,658.041 297.8,659.641 C298,663.241 298.7,669.041 299.3,672.641 C299.3,672.741 299.6,674.241 300,676.841 L299.3,677.541 C298.3,678.541 297.1,679.641 295.7,681.041 C294.8,681.941 293.9,682.741 292.9,683.741 C284.4,691.941 271.6,704.341 271.6,723.441 C271.6,728.141 272.5,732.541 274.3,736.541 C275.9,740.141 278.2,743.441 281.1,746.341 C288.6,753.741 298.8,756.941 305.9,756.941 L306.5,756.941 C309.4,756.841 312.1,756.541 314.5,756.141 C316.3,765.741 317.5,772.841 317.5,778.141 C317.5,784.641 315.9,788.541 312,791.341 C309.6,793.041 306.7,794.141 303.6,794.241 L302.8,794.241 C301.3,794.241 298.8,793.841 297.3,793.441 C297.3,793.441 297,793.341 297,793.141 C297,792.941 297.4,792.941 297.4,792.941 C299.3,792.541 302.9,791.241 305.3,787.941 C306.4,786.441 307.1,784.141 307.1,781.641 C307.1,780.041 306.8,778.341 306.1,776.841 C305,774.441 302.4,771.441 296.8,771.041 L295.7,771.041 C293.6,771.041 291.8,771.541 290.1,772.541 C288.3,773.641 286.7,775.341 285.7,777.341 C284.6,779.341 284.1,781.541 284.1,783.741 C284.1,786.641 285,789.341 286.8,791.541 C289.8,795.141 294.5,797.441 299.9,798.041 C300.6,798.141 301.7,798.241 302.4,798.241 C306.8,798.241 311.2,797.041 314.8,794.841 C318.5,792.241 320.6,788.241 321.3,782.641 C321.5,781.341 321.5,779.941 321.5,778.441 C321.5,774.541 321,769.841 320,764.041 C319.6,761.941 319.2,758.941 318.5,755.141 C324.3,753.241 328.4,749.541 332.2,743.741 C334.5,739.741 335.6,735.641 335.6,731.341 C335.6,729.441 335.4,727.541 335,725.641 M304.8,647.741 C306.6,642.041 309.3,638.641 311.3,636.941 C313.1,635.441 314.7,634.741 315.6,634.741 C315.7,634.741 315.9,634.841 316,634.841 C316.3,634.941 316.7,635.441 317.1,636.141 C318,637.941 318.9,641.241 318.9,644.941 C318.9,646.841 318.7,648.841 318.1,650.641 C315.9,657.441 311.3,664.741 304.3,672.441 C304.1,671.341 303.9,670.341 303.8,669.341 C303.3,666.141 303,662.941 303,660.041 C303,655.541 303.6,651.441 304.8,647.741 M300.8,751.841 C296.2,750.641 291.7,748.141 287.9,744.641 C286.6,743.441 284.8,741.241 283.3,737.841 C282,734.841 281.3,731.741 281.3,728.341 L281.3,727.641 C281.4,722.941 282.7,718.141 285.2,713.341 C288.1,707.741 292.6,702.241 298.7,696.941 C300.2,695.641 301.6,694.341 302.9,693.041 C303.7,697.341 304.4,702.041 305.3,706.941 C301.4,708.241 296.7,711.241 293.6,716.941 C291.2,721.441 290.5,725.341 290.5,728.541 C290.5,730.041 290.7,731.441 290.9,732.541 C291.8,737.041 294.4,740.741 297.9,742.841 C298.7,743.341 302,745.041 304,745.041 C304.3,745.041 304.6,745.041 304.8,744.941 C305.1,744.841 305.4,744.641 305.5,744.341 C305.6,744.141 305.6,743.941 305.6,743.741 C305.6,742.941 304.8,742.341 303.5,741.541 C302.9,741.141 302.2,740.741 301.5,740.241 C298.9,738.241 297.4,735.141 297.4,731.741 C297.4,730.741 297.6,729.841 297.8,728.841 C298.3,726.841 300,724.041 301.5,722.641 C303.2,721.141 305.2,719.941 307.6,719.341 C309.6,730.541 311.7,741.641 313.3,750.041 C313.4,750.741 313.6,751.441 313.7,752.141 C311.7,752.541 309.7,752.741 307.8,752.741 C305.4,752.741 303.1,752.441 300.8,751.841 M326.5,741.641 C325.3,744.841 322.8,748.841 317.7,750.941 C317.6,750.541 317.6,750.041 317.5,749.641 C316,740.841 314.1,729.941 312.1,718.641 L313.1,718.641 C322.8,718.641 326.7,725.841 327.6,730.441 C327.8,731.341 327.9,732.541 327.9,733.841 C327.9,736.141 327.5,738.941 326.5,741.641"/>
<path class="TimeSig" d="M365.2,957.453 L382,957.453 L382,964.753 L373.9,964.753 C373.1,964.753 372.5,965.353 372.5,966.153 L372.5,968.053 C372.5,968.853 373.1,969.353 373.9,969.353 L403.6,969.353 C404.4,969.353 405,968.853 405,968.053 L405,966.153 C405,965.353 404.4,964.753 403.6,964.753 L394.8,964.753 L394.8,957.453 L403.6,957.453 C404.4,957.453 405,956.853 405,956.053 L405,954.253 C405,953.453 404.4,952.853 403.6,952.853 L394.8,952.853 L394.8,937.153 C394.8,936.653 394.4,936.153 394,935.953 L392.9,935.353 C392.7,935.253 392.4,935.253 392.2,935.253 C391.9,935.253 391.5,935.353 391.3,935.553 L382.4,943.753 C382.2,943.953 382,944.453 382,944.753 L382,952.853 L370.7,952.853 C370.7,952.853 381.6,941.053 393.2,925.553 C394,924.453 393.6,923.453 393.4,923.253 L391.3,921.053 C391.1,920.853 390.6,920.653 390.3,920.653 L375.7,920.653 C375,920.653 374.5,921.253 374.4,921.853 C374.4,921.853 373.9,929.053 371.3,937.053 C368.7,945.053 365.9,949.853 363.3,953.453 C363.3,953.453 362.8,954.453 363.1,955.153 C363.4,955.853 364.1,956.953 364.1,956.953 C364.1,956.953 364.4,957.453 365.2,957.453"/>
<path class="TimeSig" d="M365.2,1006.06 L382,1006.06 L382,1013.36 L373.9,1013.36 C373.1,1013.36 372.5,1013.96 372.5,1014.76 L372.5,1016.66 C372.5,1017.46 373.1,1017.96 373.9,1017.96 L403.6,1017.96 C404.4,1017.96 405,1017.46 405,1016.66 L405,1014.76 C405,1013.96 404.4,1013.36 403.6,1013.36 L394.8,1013.36 L394.8,1006.06 L403.6,1006.06 C404.4,1006.06 405,1005.46 405,1004.66 L405,1002.86 C405,1002.06 404.4,1001.46 403.6,1001.46 L394.8,1001.46 L394.8,985.758 C394.8,985.258 394.4,984.758 394,984.558 L392.9,983.958 C392.7,983.858 392.4,983.858 392.2,983.858 C391.9,983.858 391.5,983.958 391.3,984.158 L382.4,992.358 C382.2,992.558 382,993.058 382,993.358 L382,1001.46 L370.7,1001.46 C370.7,1001.46 381.6,989.658 393.2,974.158 C394,973.058 393.6,972.058 393.4,971.858 L391.3,969.658 C391.1,969.458 390.6,969.258 390.3,969.258 L375.7,969.258 C375,969.258 374.5,969.858 374.4,970.458 C374.4,970.458 373.9,977.658 371.3,985.658 C368.7,993.658 365.9,998.458 363.3,1002.06 C363.3,1002.06 362.8,1003.06 363.1,1003.76 C363.4,1004.46 364.1,1005.56 364.1,1005.56 C364.1,1005.56 364.4,1006.06 365.2,1006.06"/>
<path class="TimeSig" d="M365.2,694.937 L382,694.937 L382,702.237 L373.9,702.237 C373.1,702.237 372.5,702.837 372.5,703.637 L372.5,705.537 C372.5,706.337 373.1,706.837 373.9,706.837 L403.6,706.837 C404.4,706.837 405,706.337 405,705.537 L405,703.637 C405,702.837 404.4,702.237 403.6,702.237 L394.8,702.237 L394.8,694.937 L403.6,694.937 C404.4,694.937 405,694.337 405,693.537 L405,691.737 C405,690.937 404.4,690.337 403.6,690.337 L394.8,690.337 L394.8,674.637 C394.8,674.137 394.4,673.637 394,673.437 L392.9,672.837 C392.7,672.737 392.4,672.737 392.2,672.737 C391.9,672.737 391.5,672.837 391.3,673.037 L382.4,681.237 C382.2,681.437 382,681.937 382,682.237 L382,690.337 L370.7,690.337 C370.7,690.337 381.6,678.537 393.2,663.037 C394,661.937 393.6,660.937 393.4,660.737 L391.3,658.537 C391.1,658.337 390.6,658.137 390.3,658.137 L375.7,658.137 C375,658.137 374.5,658.737 374.4,659.337 C374.4,659.337 373.9,666.537 371.3,674.537 C368.7,682.537 365.9,687.337 363.3,690.937 C363.3,690.937 362.8,691.937 363.1,692.637 C363.4,693.337 364.1,694.437 364.1,694.437 C364.1,694.437 364.4,694.937 365.2,694.937"/>
<path class="TimeSig" d="M365.2,743.541 L382,743.541 L382,750.841 L373.9,750.841 C373.1,750.841 372.5,751.441 372.5,752.241 L372.5,754.141 C372.5,754.941 373.1,755.441 373.9,755.441 L403.6,755.441 C404.4,755.441 405,754.941 405,754.141 L405,752.241 C405,751.441 404.4,750.841 403.6,750.841 L394.8,750.841 L394.8,743.541 L403.6,743.541 C404.4,743.541 405,742.941 405,742.141 L405,740.341 C405,739.541 404.4,738.941 403.6,738.941 L394.8,738.941 L394.8,723.241 C394.8,722.741 394.4,722.241 394,722.041 L392.9,721.441 C392.7,721.341 392.4,721.341 392.2,721.341 C391.9,721.341 391.5,721.441 391.3,721.641 L382.4,729.841 C382.2,730.041 382,730.541 382,730.841 L382,738.941 L370.7,738.941 C370.7,738.941 381.6,727.141 393.2,711.641 C394,710.541 393.6,709.541 393.4,709.341 L391.3,707.141 C391.1,706.941 390.6,706.741 390.3,706.741 L375.7,706.741 C375,706.741 374.5,707.341 374.4,707.941 C374.4,707.941 373.9,715.141 371.3,723.141 C368.7,731.141 365.9,735.941 363.3,739.541 C363.3,739.541 362.8,740.541 363.1,741.241 C363.4,741.941 364.1,743.041 364.1,743.041 C364.1,743.041 364.4,743.541 365.2,743.541"/>
<path class="Page" d="M227.904,4035.04 L212.604,4056.33 L212.604,4058.85 L225.249,4058.85 L225.249,4061.19 C225.249,4063.48 225.249,4063.57 224.979,4063.98 C224.619,4064.47 223.764,4064.61 221.199,4064.61 L220.704,4064.61 L220.704,4066.72 L233.844,4066.72 L233.844,4064.61 L233.664,4064.61 C231.099,4064.61 230.244,4064.47 229.884,4063.98 C229.614,4063.57 229.614,4063.53 229.614,4061.19 L229.614,4058.85 L235.059,4058.85 L235.059,4056.33 L229.614,4056.33 L229.614,4044.04 C229.614,4038.42 229.614,4038.28 229.839,4035.04 L227.904,4035.04 M225.249,4056.33 L215.349,4056.33 L225.249,4042.69 L225.249,4056.33 "/>
<path class="Bracket" transform="matrix(3.62523,0,0,3.62523,214.469,1019.06)" d="M0.92002,-50 C2.69004,-51.88 6.2,-55.8 6.2,-63 C6.2,-72.1 2.25996,-81.32 2.25996,-86.97 C2.25996,-93.06 5.84004,-98.84 5.95,-99 C6.05996,-99.16 6.05,-99.39 5.94004,-99.46 C5.82998,-99.53 5.62002,-99.47 5.49004,-99.32 C5.35996,-99.17 0,-93.75 0,-85.6 C0,-76.75 3.5,-70.58 3.5,-59.07 C3.5,-56.89 2.55996,-53.36 0.1,-50.33 C-0.0799805,-50.17 -0.1,-49.89 0.0599609,-49.7 L0.0700195,-49.69 L0.1,-49.66 C2.55996,-46.63 3.5,-43.1 3.5,-40.92 C3.5,-29.4 0,-23.24 0,-14.39 C0,-6.25 5.35996,-0.8 5.49004,-0.659961 C5.62002,-0.52002 5.8,-0.42998 5.94004,-0.52002 C6.07998,-0.609961 6.07998,-0.77998 5.95,-0.97998 C5.82002,-1.17998 2.25996,-6.92002 2.25996,-13.01 C2.25996,-18.66 6.2,-27.9 6.2,-37 C6.2,-44.3 2.69004,-48.12 0.92002,-50"/>
</svg>