<?xml version="1.0" encoding="UTF-8" standalone="no"?>
<svg width="1000px" height="220px" viewBox="150 600 2700 500" xmlns="http://www.w3.org/2000/svg" xmlns:xlink="http://www.w3.org/1999/xlink" version="1.2" baseProfile="tiny">
 xmlns="http://www.w3.org/2000/svg" xmlns:xlink="http://www.w3.org/1999/xlink" version="1.2" baseProfile="tiny">
<title>exercises_scores (1)</title>
<desc>Generated by MuseScore 3.6.0</desc>
<polyline class="StaffLines" fill="none" stroke="#000000" stroke-width="2.75" stroke-linejoin="bevel" points="247.099,656.536 2764.63,656.536"/>
<polyline class="StaffLines" fill="none" stroke="#000000" stroke-width="2.75" stroke-linejoin="bevel" points="247.099,681.538 2764.63,681.538"/>
<polyline class="StaffLines" fill="none" stroke="#000000" stroke-width="2.75" stroke-linejoin="bevel" points="247.099,706.539 2764.63,706.539"/>
<polyline class="StaffLines" fill="none" stroke="#000000" stroke-width="2.75" stroke-linejoin="bevel" points="247.099,731.541 2764.63,731.541"/>
<polyline class="StaffLines" fill="none" stroke="#000000" stroke-width="2.75" stroke-linejoin="bevel" points="247.099,756.542 2764.63,756.542"/>
<polyline class="StaffLines" fill="none" stroke="#000000" stroke-width="2.75" stroke-linejoin="bevel" points="247.099,919.053 2764.63,919.053"/>
<polyline class="StaffLines" fill="none" stroke="#000000" stroke-width="2.75" stroke-linejoin="bevel" points="247.099,944.054 2764.63,944.054"/>
<polyline class="StaffLines" fill="none" stroke="#000000" stroke-width="2.75" stroke-linejoin="bevel" points="247.099,969.056 2764.63,969.056"/>
<polyline class="StaffLines" fill="none" stroke="#000000" stroke-width="2.75" stroke-linejoin="bevel" points="247.099,994.057 2764.63,994.057"/>
<polyline class="StaffLines" fill="none" stroke="#000000" stroke-width="2.75" stroke-linejoin="bevel" points="247.099,1019.06 2764.63,1019.06"/>
<path class="Text" d="M242.312,213.137 L240.092,213.137 L237.692,216.737 C234.812,214.037 231.032,212.597 226.772,212.597 C218.852,212.597 213.632,217.577 213.632,225.137 C213.632,231.677 216.872,234.917 225.692,237.197 L231.392,238.637 C235.832,239.777 236.252,239.897 237.512,240.857 C239.312,242.237 240.272,244.217 240.272,246.557 C240.272,248.957 239.372,250.937 237.572,252.617 C235.592,254.297 233.612,254.957 230.312,254.957 C225.872,254.957 222.692,253.577 219.872,250.457 C217.352,247.697 216.092,244.817 215.192,240.197 L212.612,240.197 L212.852,257.297 L215.192,257.297 L217.892,253.217 C221.912,256.517 225.212,257.717 230.492,257.717 C239.312,257.717 244.952,252.557 244.952,244.517 C244.952,240.737 243.752,237.617 241.352,235.337 C239.732,233.777 237.392,232.757 232.592,231.557 L226.172,229.937 C220.832,228.557 218.312,226.217 218.312,222.557 C218.312,218.357 221.732,215.477 226.832,215.477 C231.032,215.477 234.452,217.277 236.852,220.697 C238.592,223.157 239.732,225.677 240.452,228.737 L243.032,228.737 L242.312,213.137 M271.162,247.997 C269.242,252.317 267.202,254.057 264.082,254.057 C259.282,254.057 256.282,249.677 256.282,242.657 C256.282,235.337 259.222,230.537 263.662,230.537 C265.462,230.537 267.022,231.377 267.022,232.337 C267.022,232.517 266.962,232.697 266.662,233.057 C265.702,234.197 265.462,234.797 265.462,235.817 C265.462,237.797 266.962,239.177 269.062,239.177 C271.222,239.177 272.722,237.497 272.722,235.097 C272.722,231.017 268.702,227.957 263.362,227.957 C255.562,227.957 249.982,234.317 249.982,243.317 C249.982,251.837 255.082,257.717 262.522,257.717 C267.862,257.717 270.922,255.257 273.502,248.897 L271.162,247.997 M301.75,237.497 C301.75,233.717 301.09,231.797 299.35,230.357 C297.37,228.737 294.43,227.957 290.59,227.957 C283.81,227.957 278.89,231.137 278.89,235.517 C278.89,237.737 280.27,239.177 282.37,239.177 C284.29,239.177 285.61,237.917 285.61,236.117 C285.61,235.337 285.31,234.497 284.71,233.657 C284.35,233.237 284.29,233.117 284.29,232.817 C284.29,231.617 286.69,230.537 289.57,230.537 C291.49,230.537 293.59,231.137 294.55,232.037 C295.69,232.997 296.11,234.437 296.11,237.137 L296.11,239.477 C289.87,240.557 287.89,241.037 284.95,242.177 C279.73,244.097 277.27,246.857 277.27,250.697 C277.27,255.017 280.63,257.717 285.97,257.717 C290.11,257.717 293.83,256.037 296.41,252.977 C297.37,256.037 298.87,257.237 301.69,257.237 C304.39,257.237 307.21,255.497 307.21,253.757 C307.21,253.337 306.97,253.037 306.61,253.037 C306.37,253.037 306.13,253.097 305.71,253.277 C304.87,253.637 304.51,253.697 304.03,253.697 C302.35,253.697 301.75,252.617 301.75,249.557 L301.75,237.497 M296.11,244.817 C296.11,248.417 295.93,249.257 294.91,250.817 C293.41,253.037 290.71,254.537 288.07,254.537 C285.31,254.537 283.33,252.557 283.33,249.857 C283.33,247.337 284.59,245.537 287.23,244.277 C289.09,243.437 291.43,242.837 296.11,242.057 L296.11,244.817 M320.229,212.597 L309.129,213.257 L309.129,215.837 L312.069,215.837 C314.289,215.897 314.589,216.257 314.589,218.837 L314.589,249.437 L314.589,252.257 C314.529,253.157 314.469,253.517 314.229,253.817 C313.809,254.357 312.669,254.597 310.089,254.657 L309.669,254.657 L309.669,256.817 L325.209,256.817 L325.209,254.657 L324.789,254.657 C320.769,254.537 320.229,254.237 320.229,252.077 L320.229,249.437 L320.229,212.597 M354.78,243.317 C354.84,234.317 349.74,227.957 342.42,227.957 C334.74,227.957 328.98,234.617 328.98,243.617 C328.98,252.077 334.44,257.717 342.54,257.717 C348.3,257.717 352.32,254.897 354.78,249.197 L352.68,248.057 C350.22,252.677 347.7,254.477 343.68,254.477 C340.62,254.477 338.4,253.217 336.84,250.517 C335.76,248.717 335.28,246.617 335.34,243.317 L354.78,243.317 M335.4,240.737 C335.4,238.877 335.64,237.557 336.24,235.877 C337.5,232.277 339.42,230.537 342.36,230.537 C345.96,230.537 348.36,233.717 348.36,238.577 C348.36,240.257 347.82,240.737 345.9,240.737 L335.4,240.737 M366.601,250.157 C364.501,250.157 362.821,251.837 362.821,253.877 C362.821,255.977 364.501,257.657 366.541,257.657 C368.641,257.657 370.321,255.977 370.321,253.877 C370.321,251.837 368.641,250.157 366.601,250.157 M366.601,228.437 C364.501,228.437 362.821,230.117 362.821,232.217 C362.821,234.257 364.501,235.937 366.541,235.937 C368.641,235.937 370.321,234.257 370.321,232.157 C370.321,230.117 368.641,228.437 366.601,228.437 M429.345,213.077 L427.065,213.077 L424.665,216.617 C420.285,213.437 418.065,212.597 413.925,212.597 C408.225,212.597 403.365,214.997 399.345,219.797 C395.505,224.357 393.705,229.397 393.705,235.577 C393.705,248.537 402.165,257.717 413.985,257.717 C423.585,257.717 429.705,252.077 431.085,241.997 L428.265,241.517 C426.645,250.457 422.085,254.897 414.705,254.897 C405.825,254.897 401.625,248.777 401.625,235.817 C401.625,228.977 402.525,224.477 404.565,220.877 C406.425,217.517 410.085,215.417 413.985,215.417 C418.185,215.417 421.905,217.637 424.185,221.477 C425.325,223.457 426.165,225.677 427.605,230.417 L430.245,230.417 L429.345,213.077 M463.049,228.857 L452.369,229.517 L452.369,232.097 L454.829,232.097 C457.109,232.157 457.409,232.517 457.409,235.097 L457.409,249.437 L457.409,251.777 L457.409,252.257 C457.349,253.157 457.289,253.517 457.049,253.817 C456.629,254.357 455.489,254.597 452.909,254.657 L452.669,254.657 L452.669,256.817 L467.789,256.817 L467.789,254.657 L467.549,254.657 C463.589,254.537 463.049,254.237 463.049,252.017 L463.049,249.437 L463.049,240.917 C463.049,235.577 465.989,231.617 469.889,231.617 C473.309,231.617 475.049,234.077 475.049,238.937 L475.049,249.437 L475.049,252.317 C474.989,253.097 474.929,253.517 474.629,253.817 C474.269,254.357 473.069,254.597 470.489,254.657 L470.249,254.657 L470.249,256.817 L485.429,256.817 L485.429,254.657 L485.189,254.657 C481.229,254.537 480.689,254.237 480.689,252.077 L480.689,249.437 L480.689,241.457 C480.689,235.457 483.389,231.617 487.589,231.617 C491.009,231.617 492.689,234.197 492.689,239.597 L492.689,249.437 L492.689,252.257 C492.629,253.097 492.569,253.517 492.269,253.817 C491.909,254.357 490.709,254.597 488.129,254.657 L487.889,254.657 L487.889,256.817 L503.069,256.817 L503.069,254.657 L502.829,254.657 C498.869,254.537 498.329,254.237 498.329,252.017 L498.329,249.437 L498.329,238.397 C498.329,234.677 497.969,233.417 496.409,231.377 C494.669,229.157 492.209,227.957 489.329,227.957 C485.429,227.957 482.549,229.817 479.969,233.957 C478.949,230.357 475.709,227.957 471.689,227.957 C468.029,227.957 465.389,229.697 463.049,233.477 L463.049,228.857 M531.437,237.497 C531.437,233.717 530.777,231.797 529.037,230.357 C527.057,228.737 524.117,227.957 520.277,227.957 C513.497,227.957 508.577,231.137 508.577,235.517 C508.577,237.737 509.957,239.177 512.057,239.177 C513.977,239.177 515.297,237.917 515.297,236.117 C515.297,235.337 514.997,234.497 514.397,233.657 C514.037,233.237 513.977,233.117 513.977,232.817 C513.977,231.617 516.377,230.537 519.257,230.537 C521.177,230.537 523.277,231.137 524.237,232.037 C525.377,232.997 525.797,234.437 525.797,237.137 L525.797,239.477 C519.557,240.557 517.577,241.037 514.637,242.177 C509.417,244.097 506.957,246.857 506.957,250.697 C506.957,255.017 510.317,257.717 515.657,257.717 C519.797,257.717 523.517,256.037 526.097,252.977 C527.057,256.037 528.557,257.237 531.377,257.237 C534.077,257.237 536.897,255.497 536.897,253.757 C536.897,253.337 536.657,253.037 536.297,253.037 C536.057,253.037 535.817,253.097 535.397,253.277 C534.557,253.637 534.197,253.697 533.717,253.697 C532.037,253.697 531.437,252.617 531.437,249.557 L531.437,237.497 M525.797,244.817 C525.797,248.417 525.617,249.257 524.597,250.817 C523.097,253.037 520.397,254.537 517.757,254.537 C514.997,254.537 513.017,252.557 513.017,249.857 C513.017,247.337 514.277,245.537 516.917,244.277 C518.777,243.437 521.117,242.837 525.797,242.057 L525.797,244.817 M548.362,228.857 L536.662,229.517 L536.662,232.097 L540.142,232.097 C542.422,232.157 542.722,232.517 542.722,235.097 L542.722,255.437 C542.722,260.297 542.422,262.577 541.582,264.317 C540.982,265.517 539.602,266.417 538.282,266.417 C537.442,266.417 536.782,266.057 536.782,265.637 C536.782,265.397 536.842,265.277 537.082,264.677 C537.382,264.077 537.502,263.657 537.502,263.237 C537.502,261.737 536.062,260.417 534.382,260.417 C532.462,260.417 531.022,261.917 531.022,264.017 C531.022,266.957 533.722,268.937 537.742,268.937 C541.102,268.937 544.162,267.497 545.902,265.037 C547.762,262.397 548.362,259.337 548.362,252.557 L548.362,228.857 M545.542,213.917 C543.622,213.917 542.062,215.477 542.062,217.397 C542.062,219.317 543.622,220.877 545.482,220.877 C547.462,220.877 549.022,219.317 549.022,217.397 C549.022,215.477 547.462,213.917 545.542,213.917 M568.812,227.957 C561.432,227.957 555.732,234.497 555.732,242.897 C555.732,251.117 561.492,257.717 568.692,257.717 C575.892,257.717 581.652,251.117 581.652,242.837 C581.652,234.617 575.892,227.957 568.812,227.957 M568.812,230.537 C573.012,230.537 575.352,234.917 575.352,242.837 C575.352,250.817 573.012,255.137 568.692,255.137 C564.372,255.137 562.032,250.817 562.032,242.897 C562.032,234.737 564.312,230.537 568.812,230.537 M595.572,228.857 L584.952,229.517 L584.952,232.097 L587.412,232.097 C589.692,232.157 589.992,232.517 589.992,235.097 L589.992,249.437 L589.992,252.257 C589.932,253.157 589.872,253.517 589.632,253.817 C589.212,254.357 588.012,254.597 585.432,254.657 L585.192,254.657 L585.192,256.817 L601.212,256.817 L601.212,254.657 L600.132,254.657 C596.112,254.537 595.572,254.237 595.572,252.077 L595.572,249.437 L595.572,248.837 C595.632,238.757 599.232,231.077 603.912,230.837 C603.072,231.797 602.832,232.397 602.832,233.537 C602.832,235.457 604.212,236.837 606.132,236.837 C608.352,236.837 609.792,235.217 609.792,232.817 C609.792,229.877 607.752,227.957 604.572,227.957 C600.792,227.957 597.552,230.957 595.572,236.297 L595.572,228.857 "/>
<polyline class="BarLine" fill="none" stroke="#000000" stroke-width="4.50" stroke-linejoin="bevel" points="249.349,917.677 249.349,1020.43"/>
<polyline class="BarLine" fill="none" stroke="#000000" stroke-width="4.50" stroke-linejoin="bevel" points="1018.97,917.677 1018.97,1020.43"/>
<polyline class="BarLine" fill="none" stroke="#000000" stroke-width="4.50" stroke-linejoin="bevel" points="1608.94,917.677 1608.94,1020.43"/>
<polyline class="BarLine" fill="none" stroke="#000000" stroke-width="4.50" stroke-linejoin="bevel" points="2188.4,917.677 2188.4,1020.43"/>
<polyline class="BarLine" fill="none" stroke="#000000" stroke-width="4.50" stroke-linejoin="bevel" points="2734.88,917.677 2734.88,1020.43"/>
<polyline class="BarLine" fill="none" stroke="#000000" stroke-width="13.75" stroke-linejoin="bevel" points="2757.75,917.677 2757.75,1020.43"/>
<polyline class="BarLine" fill="none" stroke="#000000" stroke-width="4.50" stroke-linejoin="bevel" points="249.349,655.161 249.349,919.053"/>
<polyline class="BarLine" fill="none" stroke="#000000" stroke-width="4.50" stroke-linejoin="bevel" points="1018.97,655.161 1018.97,919.053"/>
<polyline class="BarLine" fill="none" stroke="#000000" stroke-width="4.50" stroke-linejoin="bevel" points="1608.94,655.161 1608.94,919.053"/>
<polyline class="BarLine" fill="none" stroke="#000000" stroke-width="4.50" stroke-linejoin="bevel" points="2188.4,655.161 2188.4,919.053"/>
<polyline class="BarLine" fill="none" stroke="#000000" stroke-width="4.50" stroke-linejoin="bevel" points="2734.88,655.161 2734.88,919.053"/>
<polyline class="BarLine" fill="none" stroke="#000000" stroke-width="13.75" stroke-linejoin="bevel" points="2757.75,655.161 2757.75,919.053"/>
<polyline class="LedgerLine" fill="none" stroke="#000000" stroke-width="4.00" stroke-linejoin="bevel" points="1459.69,894.051 1509.69,894.051"/>
<polyline class="LedgerLine" fill="none" stroke="#000000" stroke-width="4.00" stroke-linejoin="bevel" points="455.002,781.544 504.997,781.544"/>
<polyline class="LedgerLine" fill="none" stroke="#000000" stroke-width="4.00" stroke-linejoin="bevel" points="2497.45,781.544 2547.44,781.544"/>
<polyline class="Stem" fill="none" stroke="#000000" stroke-width="2.75" stroke-linejoin="bevel" points="494.872,978.196 494.872,900.301"/>
<polyline class="Stem" fill="none" stroke="#000000" stroke-width="2.75" stroke-linejoin="bevel" points="603.369,972.576 603.369,1047.19"/>
<polyline class="Stem" fill="none" stroke="#000000" stroke-width="2.75" stroke-linejoin="bevel" points="741.61,960.075 741.61,1037.81"/>
<polyline class="Stem" fill="none" stroke="#000000" stroke-width="2.75" stroke-linejoin="bevel" points="879.852,947.574 879.852,1028.43"/>
<polyline class="Stem" fill="none" stroke="#000000" stroke-width="2.75" stroke-linejoin="bevel" points="1055.1,935.074 1055.1,1019.06"/>
<polyline class="Stem" fill="none" stroke="#000000" stroke-width="2.75" stroke-linejoin="bevel" points="1193.34,922.573 1193.34,1006.56"/>
<polyline class="Stem" fill="none" stroke="#000000" stroke-width="2.75" stroke-linejoin="bevel" points="1331.58,910.072 1331.58,994.057"/>
<polyline class="Stem" fill="none" stroke="#000000" stroke-width="2.75" stroke-linejoin="bevel" points="1469.82,897.571 1469.82,981.556"/>
<polyline class="Stem" fill="none" stroke="#000000" stroke-width="2.75" stroke-linejoin="bevel" points="1645.06,910.072 1645.06,994.057"/>
<polyline class="Stem" fill="none" stroke="#000000" stroke-width="2.75" stroke-linejoin="bevel" points="1780.68,922.573 1780.68,1006.56"/>
<polyline class="Stem" fill="none" stroke="#000000" stroke-width="2.75" stroke-linejoin="bevel" points="1916.3,935.074 1916.3,1019.06"/>
<polyline class="Stem" fill="none" stroke="#000000" stroke-width="2.75" stroke-linejoin="bevel" points="2051.91,947.574 2051.91,1028.43"/>
<polyline class="Stem" fill="none" stroke="#000000" stroke-width="2.75" stroke-linejoin="bevel" points="2224.53,960.075 2224.53,1037.81"/>
<polyline class="Stem" fill="none" stroke="#000000" stroke-width="2.75" stroke-linejoin="bevel" points="2366.05,972.576 2366.05,1047.19"/>
<polyline class="Stem" fill="none" stroke="#000000" stroke-width="2.75" stroke-linejoin="bevel" points="2537.31,978.116 2537.31,900.301"/>
<polyline class="Stem" fill="none" stroke="#000000" stroke-width="2.75" stroke-linejoin="bevel" points="494.872,778.184 494.872,694.038"/>
<polyline class="Stem" fill="none" stroke="#000000" stroke-width="2.75" stroke-linejoin="bevel" points="633.113,765.683 633.113,681.538"/>
<polyline class="Stem" fill="none" stroke="#000000" stroke-width="2.75" stroke-linejoin="bevel" points="771.355,753.182 771.355,669.037"/>
<polyline class="Stem" fill="none" stroke="#000000" stroke-width="2.75" stroke-linejoin="bevel" points="909.596,740.681 909.596,656.536"/>
<polyline class="Stem" fill="none" stroke="#000000" stroke-width="2.75" stroke-linejoin="bevel" points="1084.84,728.181 1084.84,647.16"/>
<polyline class="Stem" fill="none" stroke="#000000" stroke-width="2.75" stroke-linejoin="bevel" points="1223.08,715.68 1223.08,637.785"/>
<polyline class="Stem" fill="none" stroke="#000000" stroke-width="2.75" stroke-linejoin="bevel" points="1331.58,710.059 1331.58,784.669"/>
<polyline class="Stem" fill="none" stroke="#000000" stroke-width="2.75" stroke-linejoin="bevel" points="1469.82,697.559 1469.82,775.293"/>
<polyline class="Stem" fill="none" stroke="#000000" stroke-width="2.75" stroke-linejoin="bevel" points="1645.06,710.059 1645.06,784.669"/>
<polyline class="Stem" fill="none" stroke="#000000" stroke-width="2.75" stroke-linejoin="bevel" points="1810.42,715.68 1810.42,637.785"/>
<polyline class="Stem" fill="none" stroke="#000000" stroke-width="2.75" stroke-linejoin="bevel" points="1946.04,728.181 1946.04,647.16"/>
<polyline class="Stem" fill="none" stroke="#000000" stroke-width="2.75" stroke-linejoin="bevel" points="2081.66,740.681 2081.66,656.536"/>
<polyline class="Stem" fill="none" stroke="#000000" stroke-width="2.75" stroke-linejoin="bevel" points="2254.27,753.182 2254.27,669.037"/>
<polyline class="Stem" fill="none" stroke="#000000" stroke-width="2.75" stroke-linejoin="bevel" points="2395.79,765.683 2395.79,681.538"/>
<polyline class="Stem" fill="none" stroke="#000000" stroke-width="2.75" stroke-linejoin="bevel" points="2537.31,778.104 2537.31,694.038"/>
<path class="Note" d="M495.253,973.356 C493.753,970.656 490.853,968.956 486.953,968.556 C486.353,968.456 485.853,968.456 485.253,968.456 C481.753,968.456 477.953,969.456 474.453,971.356 C467.853,974.956 463.753,980.856 463.753,985.956 C463.753,987.356 463.953,988.656 464.653,989.856 C466.153,992.556 469.153,994.256 473.053,994.656 C473.653,994.756 474.153,994.756 474.753,994.756 C478.253,994.756 481.953,993.756 485.453,991.856 C492.053,988.256 496.253,982.456 496.253,977.356 C496.253,975.956 495.953,974.556 495.253,973.356"/>
<path class="Note" d="M633.494,960.856 C631.994,958.156 629.094,956.456 625.194,956.056 C624.594,955.956 624.094,955.956 623.494,955.956 C619.994,955.956 616.194,956.956 612.694,958.856 C606.094,962.456 601.994,968.356 601.994,973.456 C601.994,974.856 602.194,976.156 602.894,977.356 C604.394,980.056 607.394,981.756 611.294,982.156 C611.894,982.256 612.394,982.256 612.994,982.256 C616.494,982.256 620.194,981.256 623.694,979.356 C630.294,975.756 634.494,969.956 634.494,964.856 C634.494,963.456 634.194,962.056 633.494,960.856"/>
<path class="Note" d="M771.735,948.355 C770.235,945.655 767.335,943.955 763.435,943.555 C762.835,943.455 762.335,943.455 761.735,943.455 C758.235,943.455 754.435,944.455 750.935,946.355 C744.335,949.955 740.235,955.855 740.235,960.955 C740.235,962.355 740.435,963.655 741.135,964.855 C742.635,967.555 745.635,969.255 749.535,969.655 C750.135,969.755 750.635,969.755 751.235,969.755 C754.735,969.755 758.435,968.755 761.935,966.855 C768.535,963.255 772.735,957.455 772.735,952.355 C772.735,950.955 772.435,949.555 771.735,948.355"/>
<path class="Note" d="M909.977,935.854 C908.477,933.154 905.577,931.454 901.677,931.054 C901.077,930.954 900.577,930.954 899.977,930.954 C896.477,930.954 892.677,931.954 889.177,933.854 C882.577,937.454 878.477,943.354 878.477,948.454 C878.477,949.854 878.677,951.154 879.377,952.354 C880.877,955.054 883.877,956.754 887.777,957.154 C888.377,957.254 888.877,957.254 889.477,957.254 C892.977,957.254 896.677,956.254 900.177,954.354 C906.777,950.754 910.977,944.954 910.977,939.854 C910.977,938.454 910.677,937.054 909.977,935.854"/>
<path class="Note" d="M1085.22,923.353 C1083.72,920.653 1080.82,918.953 1076.92,918.553 C1076.32,918.453 1075.82,918.453 1075.22,918.453 C1071.72,918.453 1067.92,919.453 1064.42,921.353 C1057.82,924.953 1053.72,930.853 1053.72,935.953 C1053.72,937.353 1053.92,938.653 1054.62,939.853 C1056.12,942.553 1059.12,944.253 1063.02,944.653 C1063.62,944.753 1064.12,944.753 1064.72,944.753 C1068.22,944.753 1071.92,943.753 1075.42,941.853 C1082.02,938.253 1086.22,932.453 1086.22,927.353 C1086.22,925.953 1085.92,924.553 1085.22,923.353"/>
<path class="Note" d="M1223.46,910.853 C1221.96,908.153 1219.06,906.453 1215.16,906.053 C1214.56,905.953 1214.06,905.953 1213.46,905.953 C1209.96,905.953 1206.16,906.953 1202.66,908.853 C1196.06,912.453 1191.96,918.353 1191.96,923.453 C1191.96,924.853 1192.16,926.153 1192.86,927.353 C1194.36,930.053 1197.36,931.753 1201.26,932.153 C1201.86,932.253 1202.36,932.253 1202.96,932.253 C1206.46,932.253 1210.16,931.253 1213.66,929.353 C1220.26,925.753 1224.46,919.953 1224.46,914.853 C1224.46,913.453 1224.16,912.053 1223.46,910.853"/>
<path class="Note" d="M1361.7,898.352 C1360.2,895.652 1357.3,893.952 1353.4,893.552 C1352.8,893.452 1352.3,893.452 1351.7,893.452 C1348.2,893.452 1344.4,894.452 1340.9,896.352 C1334.3,899.952 1330.2,905.852 1330.2,910.952 C1330.2,912.352 1330.4,913.652 1331.1,914.852 C1332.6,917.552 1335.6,919.252 1339.5,919.652 C1340.1,919.752 1340.6,919.752 1341.2,919.752 C1344.7,919.752 1348.4,918.752 1351.9,916.852 C1358.5,913.252 1362.7,907.452 1362.7,902.352 C1362.7,900.952 1362.4,899.552 1361.7,898.352"/>
<path class="Note" d="M1499.94,885.851 C1498.44,883.151 1495.54,881.451 1491.64,881.051 C1491.04,880.951 1490.54,880.951 1489.94,880.951 C1486.44,880.951 1482.64,881.951 1479.14,883.851 C1472.54,887.451 1468.44,893.351 1468.44,898.451 C1468.44,899.851 1468.64,901.151 1469.34,902.351 C1470.84,905.051 1473.84,906.751 1477.74,907.151 C1478.34,907.251 1478.84,907.251 1479.44,907.251 C1482.94,907.251 1486.64,906.251 1490.14,904.351 C1496.74,900.751 1500.94,894.951 1500.94,889.851 C1500.94,888.451 1500.64,887.051 1499.94,885.851"/>
<path class="Note" d="M1675.19,898.352 C1673.69,895.652 1670.79,893.952 1666.89,893.552 C1666.29,893.452 1665.79,893.452 1665.19,893.452 C1661.69,893.452 1657.89,894.452 1654.39,896.352 C1647.79,899.952 1643.69,905.852 1643.69,910.952 C1643.69,912.352 1643.89,913.652 1644.59,914.852 C1646.09,917.552 1649.09,919.252 1652.99,919.652 C1653.59,919.752 1654.09,919.752 1654.69,919.752 C1658.19,919.752 1661.89,918.752 1665.39,916.852 C1671.99,913.252 1676.19,907.452 1676.19,902.352 C1676.19,900.952 1675.89,899.552 1675.19,898.352"/>
<path class="Note" d="M1810.8,910.853 C1809.3,908.153 1806.4,906.453 1802.5,906.053 C1801.9,905.953 1801.4,905.953 1800.8,905.953 C1797.3,905.953 1793.5,906.953 1790,908.853 C1783.4,912.453 1779.3,918.353 1779.3,923.453 C1779.3,924.853 1779.5,926.153 1780.2,927.353 C1781.7,930.053 1784.7,931.753 1788.6,932.153 C1789.2,932.253 1789.7,932.253 1790.3,932.253 C1793.8,932.253 1797.5,931.253 1801,929.353 C1807.6,925.753 1811.8,919.953 1811.8,914.853 C1811.8,913.453 1811.5,912.053 1810.8,910.853"/>
<path class="Note" d="M1946.42,923.353 C1944.92,920.653 1942.02,918.953 1938.12,918.553 C1937.52,918.453 1937.02,918.453 1936.42,918.453 C1932.92,918.453 1929.12,919.453 1925.62,921.353 C1919.02,924.953 1914.92,930.853 1914.92,935.953 C1914.92,937.353 1915.12,938.653 1915.82,939.853 C1917.32,942.553 1920.32,944.253 1924.22,944.653 C1924.82,944.753 1925.32,944.753 1925.92,944.753 C1929.42,944.753 1933.12,943.753 1936.62,941.853 C1943.22,938.253 1947.42,932.453 1947.42,927.353 C1947.42,925.953 1947.12,924.553 1946.42,923.353"/>
<path class="Note" d="M2082.04,935.854 C2080.54,933.154 2077.64,931.454 2073.74,931.054 C2073.14,930.954 2072.64,930.954 2072.04,930.954 C2068.54,930.954 2064.74,931.954 2061.24,933.854 C2054.64,937.454 2050.54,943.354 2050.54,948.454 C2050.54,949.854 2050.74,951.154 2051.44,952.354 C2052.94,955.054 2055.94,956.754 2059.84,957.154 C2060.44,957.254 2060.94,957.254 2061.54,957.254 C2065.04,957.254 2068.74,956.254 2072.24,954.354 C2078.84,950.754 2083.04,944.954 2083.04,939.854 C2083.04,938.454 2082.74,937.054 2082.04,935.854"/>
<path class="Note" d="M2254.66,948.355 C2253.16,945.655 2250.26,943.955 2246.36,943.555 C2245.76,943.455 2245.26,943.455 2244.66,943.455 C2241.16,943.455 2237.36,944.455 2233.86,946.355 C2227.26,949.955 2223.16,955.855 2223.16,960.955 C2223.16,962.355 2223.36,963.655 2224.06,964.855 C2225.56,967.555 2228.56,969.255 2232.46,969.655 C2233.06,969.755 2233.56,969.755 2234.16,969.755 C2237.66,969.755 2241.36,968.755 2244.86,966.855 C2251.46,963.255 2255.66,957.455 2255.66,952.355 C2255.66,950.955 2255.36,949.555 2254.66,948.355"/>
<path class="Note" d="M2396.18,960.856 C2394.68,958.156 2391.78,956.456 2387.88,956.056 C2387.28,955.956 2386.78,955.956 2386.18,955.956 C2382.68,955.956 2378.88,956.956 2375.38,958.856 C2368.78,962.456 2364.68,968.356 2364.68,973.456 C2364.68,974.856 2364.88,976.156 2365.58,977.356 C2367.08,980.056 2370.08,981.756 2373.98,982.156 C2374.58,982.256 2375.08,982.256 2375.68,982.256 C2379.18,982.256 2382.88,981.256 2386.38,979.356 C2392.98,975.756 2397.18,969.956 2397.18,964.856 C2397.18,963.456 2396.88,962.056 2396.18,960.856"/>
<path class="Note" d="M2537.7,973.356 C2536.2,970.656 2533.3,968.956 2529.4,968.556 C2528.8,968.456 2528.3,968.456 2527.7,968.456 C2524.2,968.456 2520.4,969.456 2516.9,971.356 C2510.3,974.956 2506.2,980.756 2506.2,985.856 C2506.2,987.256 2506.6,988.656 2507.3,989.856 C2508.8,992.656 2511.6,994.256 2515.5,994.656 C2516.1,994.756 2516.6,994.756 2517.2,994.756 C2520.7,994.756 2524.5,993.756 2528,991.856 C2534.6,988.256 2538.7,982.356 2538.7,977.256 C2538.7,975.856 2538.4,974.556 2537.7,973.356 M2533.5,979.656 C2531.8,981.456 2528.6,983.756 2525,985.856 C2521.4,987.956 2517.7,989.656 2515.4,990.356 C2514.9,990.456 2514.3,990.556 2513.8,990.556 C2512.3,990.556 2511,989.856 2510.3,988.756 C2510,988.156 2509.8,987.556 2509.8,986.956 C2509.8,985.856 2510.3,984.756 2511.4,983.556 C2513.1,981.756 2516.3,979.356 2519.9,977.256 C2523.5,975.156 2527.2,973.456 2529.6,972.856 L2529.8,972.856 C2530.4,972.656 2530.9,972.556 2531.4,972.556 C2532.8,972.556 2533.9,973.156 2534.6,974.456 C2534.9,975.056 2535.1,975.556 2535.1,976.156 C2535.1,977.456 2534.4,978.756 2533.5,979.656"/>
<path class="Note" d="M495.253,773.344 C493.753,770.644 490.853,768.944 486.953,768.544 C486.353,768.444 485.853,768.444 485.253,768.444 C481.753,768.444 477.953,769.444 474.453,771.344 C467.853,774.944 463.753,780.844 463.753,785.944 C463.753,787.344 463.953,788.644 464.653,789.844 C466.153,792.544 469.153,794.244 473.053,794.644 C473.653,794.744 474.153,794.744 474.753,794.744 C478.253,794.744 481.953,793.744 485.453,791.844 C492.053,788.244 496.253,782.444 496.253,777.344 C496.253,775.944 495.953,774.544 495.253,773.344"/>
<path class="Note" d="M633.494,760.843 C631.994,758.143 629.094,756.443 625.194,756.043 C624.594,755.943 624.094,755.943 623.494,755.943 C619.994,755.943 616.194,756.943 612.694,758.843 C606.094,762.443 601.994,768.343 601.994,773.443 C601.994,774.843 602.194,776.143 602.894,777.343 C604.394,780.043 607.394,781.743 611.294,782.143 C611.894,782.243 612.394,782.243 612.994,782.243 C616.494,782.243 620.194,781.243 623.694,779.343 C630.294,775.743 634.494,769.943 634.494,764.843 C634.494,763.443 634.194,762.043 633.494,760.843"/>
<path class="Note" d="M771.735,748.342 C770.235,745.642 767.335,743.942 763.435,743.542 C762.835,743.442 762.335,743.442 761.735,743.442 C758.235,743.442 754.435,744.442 750.935,746.342 C744.335,749.942 740.235,755.842 740.235,760.942 C740.235,762.342 740.435,763.642 741.135,764.842 C742.635,767.542 745.635,769.242 749.535,769.642 C750.135,769.742 750.635,769.742 751.235,769.742 C754.735,769.742 758.435,768.742 761.935,766.842 C768.535,763.242 772.735,757.442 772.735,752.342 C772.735,750.942 772.435,749.542 771.735,748.342"/>
<path class="Note" d="M909.977,735.842 C908.477,733.142 905.577,731.442 901.677,731.042 C901.077,730.942 900.577,730.942 899.977,730.942 C896.477,730.942 892.677,731.942 889.177,733.842 C882.577,737.442 878.477,743.342 878.477,748.442 C878.477,749.842 878.677,751.142 879.377,752.342 C880.877,755.042 883.877,756.742 887.777,757.142 C888.377,757.242 888.877,757.242 889.477,757.242 C892.977,757.242 896.677,756.242 900.177,754.342 C906.777,750.742 910.977,744.942 910.977,739.842 C910.977,738.442 910.677,737.042 909.977,735.842"/>
<path class="Note" d="M1085.22,723.341 C1083.72,720.641 1080.82,718.941 1076.92,718.541 C1076.32,718.441 1075.82,718.441 1075.22,718.441 C1071.72,718.441 1067.92,719.441 1064.42,721.341 C1057.82,724.941 1053.72,730.841 1053.72,735.941 C1053.72,737.341 1053.92,738.641 1054.62,739.841 C1056.12,742.541 1059.12,744.241 1063.02,744.641 C1063.62,744.741 1064.12,744.741 1064.72,744.741 C1068.22,744.741 1071.92,743.741 1075.42,741.841 C1082.02,738.241 1086.22,732.441 1086.22,727.341 C1086.22,725.941 1085.92,724.541 1085.22,723.341"/>
<path class="Note" d="M1223.46,710.84 C1221.96,708.14 1219.06,706.44 1215.16,706.04 C1214.56,705.94 1214.06,705.94 1213.46,705.94 C1209.96,705.94 1206.16,706.94 1202.66,708.84 C1196.06,712.44 1191.96,718.34 1191.96,723.44 C1191.96,724.84 1192.16,726.14 1192.86,727.34 C1194.36,730.04 1197.36,731.74 1201.26,732.14 C1201.86,732.24 1202.36,732.24 1202.96,732.24 C1206.46,732.24 1210.16,731.24 1213.66,729.34 C1220.26,725.74 1224.46,719.94 1224.46,714.84 C1224.46,713.44 1224.16,712.04 1223.46,710.84"/>
<path class="Note" d="M1361.7,698.339 C1360.2,695.639 1357.3,693.939 1353.4,693.539 C1352.8,693.439 1352.3,693.439 1351.7,693.439 C1348.2,693.439 1344.4,694.439 1340.9,696.339 C1334.3,699.939 1330.2,705.839 1330.2,710.939 C1330.2,712.339 1330.4,713.639 1331.1,714.839 C1332.6,717.539 1335.6,719.239 1339.5,719.639 C1340.1,719.739 1340.6,719.739 1341.2,719.739 C1344.7,719.739 1348.4,718.739 1351.9,716.839 C1358.5,713.239 1362.7,707.439 1362.7,702.339 C1362.7,700.939 1362.4,699.539 1361.7,698.339"/>
<path class="Note" d="M1499.94,685.838 C1498.44,683.138 1495.54,681.438 1491.64,681.038 C1491.04,680.938 1490.54,680.938 1489.94,680.938 C1486.44,680.938 1482.64,681.938 1479.14,683.838 C1472.54,687.438 1468.44,693.338 1468.44,698.438 C1468.44,699.838 1468.64,701.138 1469.34,702.338 C1470.84,705.038 1473.84,706.738 1477.74,707.138 C1478.34,707.238 1478.84,707.238 1479.44,707.238 C1482.94,707.238 1486.64,706.238 1490.14,704.338 C1496.74,700.738 1500.94,694.938 1500.94,689.838 C1500.94,688.438 1500.64,687.038 1499.94,685.838"/>
<path class="Note" d="M1675.19,698.339 C1673.69,695.639 1670.79,693.939 1666.89,693.539 C1666.29,693.439 1665.79,693.439 1665.19,693.439 C1661.69,693.439 1657.89,694.439 1654.39,696.339 C1647.79,699.939 1643.69,705.839 1643.69,710.939 C1643.69,712.339 1643.89,713.639 1644.59,714.839 C1646.09,717.539 1649.09,719.239 1652.99,719.639 C1653.59,719.739 1654.09,719.739 1654.69,719.739 C1658.19,719.739 1661.89,718.739 1665.39,716.839 C1671.99,713.239 1676.19,707.439 1676.19,702.339 C1676.19,700.939 1675.89,699.539 1675.19,698.339"/>
<path class="Note" d="M1810.8,710.84 C1809.3,708.14 1806.4,706.44 1802.5,706.04 C1801.9,705.94 1801.4,705.94 1800.8,705.94 C1797.3,705.94 1793.5,706.94 1790,708.84 C1783.4,712.44 1779.3,718.34 1779.3,723.44 C1779.3,724.84 1779.5,726.14 1780.2,727.34 C1781.7,730.04 1784.7,731.74 1788.6,732.14 C1789.2,732.24 1789.7,732.24 1790.3,732.24 C1793.8,732.24 1797.5,731.24 1801,729.34 C1807.6,725.74 1811.8,719.94 1811.8,714.84 C1811.8,713.44 1811.5,712.04 1810.8,710.84"/>
<path class="Note" d="M1946.42,723.341 C1944.92,720.641 1942.02,718.941 1938.12,718.541 C1937.52,718.441 1937.02,718.441 1936.42,718.441 C1932.92,718.441 1929.12,719.441 1925.62,721.341 C1919.02,724.941 1914.92,730.841 1914.92,735.941 C1914.92,737.341 1915.12,738.641 1915.82,739.841 C1917.32,742.541 1920.32,744.241 1924.22,744.641 C1924.82,744.741 1925.32,744.741 1925.92,744.741 C1929.42,744.741 1933.12,743.741 1936.62,741.841 C1943.22,738.241 1947.42,732.441 1947.42,727.341 C1947.42,725.941 1947.12,724.541 1946.42,723.341"/>
<path class="Note" d="M2082.04,735.842 C2080.54,733.142 2077.64,731.442 2073.74,731.042 C2073.14,730.942 2072.64,730.942 2072.04,730.942 C2068.54,730.942 2064.74,731.942 2061.24,733.842 C2054.64,737.442 2050.54,743.342 2050.54,748.442 C2050.54,749.842 2050.74,751.142 2051.44,752.342 C2052.94,755.042 2055.94,756.742 2059.84,757.142 C2060.44,757.242 2060.94,757.242 2061.54,757.242 C2065.04,757.242 2068.74,756.242 2072.24,754.342 C2078.84,750.742 2083.04,744.942 2083.04,739.842 C2083.04,738.442 2082.74,737.042 2082.04,735.842"/>
<path class="Note" d="M2254.66,748.342 C2253.16,745.642 2250.26,743.942 2246.36,743.542 C2245.76,743.442 2245.26,743.442 2244.66,743.442 C2241.16,743.442 2237.36,744.442 2233.86,746.342 C2227.26,749.942 2223.16,755.842 2223.16,760.942 C2223.16,762.342 2223.36,763.642 2224.06,764.842 C2225.56,767.542 2228.56,769.242 2232.46,769.642 C2233.06,769.742 2233.56,769.742 2234.16,769.742 C2237.66,769.742 2241.36,768.742 2244.86,766.842 C2251.46,763.242 2255.66,757.442 2255.66,752.342 C2255.66,750.942 2255.36,749.542 2254.66,748.342"/>
<path class="Note" d="M2396.18,760.843 C2394.68,758.143 2391.78,756.443 2387.88,756.043 C2387.28,755.943 2386.78,755.943 2386.18,755.943 C2382.68,755.943 2378.88,756.943 2375.38,758.843 C2368.78,762.443 2364.68,768.343 2364.68,773.443 C2364.68,774.843 2364.88,776.143 2365.58,777.343 C2367.08,780.043 2370.08,781.743 2373.98,782.143 C2374.58,782.243 2375.08,782.243 2375.68,782.243 C2379.18,782.243 2382.88,781.243 2386.38,779.343 C2392.98,775.743 2397.18,769.943 2397.18,764.843 C2397.18,763.443 2396.88,762.043 2396.18,760.843"/>
<path class="Note" d="M2537.7,773.344 C2536.2,770.644 2533.3,768.944 2529.4,768.544 C2528.8,768.444 2528.3,768.444 2527.7,768.444 C2524.2,768.444 2520.4,769.444 2516.9,771.344 C2510.3,774.944 2506.2,780.744 2506.2,785.844 C2506.2,787.244 2506.6,788.644 2507.3,789.844 C2508.8,792.644 2511.6,794.244 2515.5,794.644 C2516.1,794.744 2516.6,794.744 2517.2,794.744 C2520.7,794.744 2524.5,793.744 2528,791.844 C2534.6,788.244 2538.7,782.344 2538.7,777.244 C2538.7,775.844 2538.4,774.544 2537.7,773.344 M2533.5,779.644 C2531.8,781.444 2528.6,783.744 2525,785.844 C2521.4,787.944 2517.7,789.644 2515.4,790.344 C2514.9,790.444 2514.3,790.544 2513.8,790.544 C2512.3,790.544 2511,789.844 2510.3,788.744 C2510,788.144 2509.8,787.544 2509.8,786.944 C2509.8,785.844 2510.3,784.744 2511.4,783.544 C2513.1,781.744 2516.3,779.344 2519.9,777.244 C2523.5,775.144 2527.2,773.444 2529.6,772.844 L2529.8,772.844 C2530.4,772.644 2530.9,772.544 2531.4,772.544 C2532.8,772.544 2533.9,773.144 2534.6,774.444 C2534.9,775.044 2535.1,775.544 2535.1,776.144 C2535.1,777.444 2534.4,778.744 2533.5,779.644"/>
<path class="Clef" d="M297,918.954 C289.4,918.954 283.3,923.354 283.2,923.354 C277.4,927.654 275.1,932.754 274.2,936.254 C273.7,938.054 273.5,939.854 273.5,941.554 C273.5,943.954 273.9,946.154 274.8,948.054 C276,950.754 278.3,952.654 281.3,953.654 C282.5,954.054 283.8,954.254 285.1,954.254 C287.3,954.254 289.6,953.654 291.5,952.554 C294.6,950.854 296.5,947.254 296.5,943.354 C296.5,939.854 294.7,936.654 291.7,934.754 C289.6,933.354 287.6,932.954 285.9,932.954 C284.7,932.954 283.6,933.154 282.7,933.454 C281.7,933.854 280,934.854 279.2,935.554 C279.5,933.654 280.7,930.754 281.8,929.154 C282.9,927.554 285.1,925.554 286.8,924.654 C289.3,923.254 292.5,922.654 296,922.654 C306.2,922.654 311.2,930.854 311.2,947.654 C311.2,956.954 307.7,965.854 304.7,971.754 C301.4,978.354 297,984.654 293.1,988.154 C282.7,997.654 272.9,1002.15 272.8,1002.15 C272.8,1002.15 271.3,1003.05 271.7,1004.55 C272,1005.55 272.9,1005.75 273.5,1005.75 C273.6,1005.75 273.9,1005.65 274,1005.65 C274.1,1005.65 285.5,1000.95 294.6,993.854 C299.7,990.154 304.3,986.154 308.3,981.854 C311.9,977.954 315,973.754 317.5,969.554 C321.9,962.054 324.4,954.254 324.4,947.554 C324.4,939.254 322.2,932.354 318.1,927.454 C313.4,921.854 306.3,918.954 297,918.954 M328.4,931.654 C328.4,934.454 330.6,936.654 333.2,936.654 C335.8,936.654 338,934.454 338,931.654 C338,928.854 335.8,926.554 333.2,926.554 C330.6,926.554 328.4,928.854 328.4,931.654 M328.4,956.354 C328.4,959.154 330.6,961.454 333.2,961.454 C335.8,961.454 338,959.154 338,956.354 C338,953.554 335.8,951.254 333.2,951.254 C330.6,951.254 328.4,953.554 328.4,956.354"/>
<path class="Clef" d="M335,725.641 C333.8,720.241 331.1,716.341 330.3,715.341 C327.1,711.041 323.1,708.241 318.4,706.841 C316.1,706.141 314,705.941 312,705.941 C311.3,705.941 310.6,705.941 309.9,706.041 C308.9,700.041 307.8,694.141 306.9,688.741 C312.5,682.541 316.2,676.641 318.6,672.241 C322.2,665.541 323.6,660.841 323.7,660.641 C324.9,657.641 325.6,653.841 325.6,649.341 C325.6,646.641 325.3,643.741 324.9,640.741 C323.8,633.641 321.6,626.941 319.1,623.241 C317.8,621.341 316.6,620.241 315.4,620.241 C314.2,620.241 311.7,621.441 308.8,624.241 C306.5,626.441 303.2,630.341 300.6,636.341 C298.3,641.741 297.6,648.641 297.6,654.541 C297.6,656.341 297.7,658.041 297.8,659.641 C298,663.241 298.7,669.041 299.3,672.641 C299.3,672.741 299.6,674.241 300,676.841 L299.3,677.541 C298.3,678.541 297.1,679.641 295.7,681.041 C294.8,681.941 293.9,682.741 292.9,683.741 C284.4,691.941 271.6,704.341 271.6,723.441 C271.6,728.141 272.5,732.541 274.3,736.541 C275.9,740.141 278.2,743.441 281.1,746.341 C288.6,753.741 298.8,756.941 305.9,756.941 L306.5,756.941 C309.4,756.841 312.1,756.541 314.5,756.141 C316.3,765.741 317.5,772.841 317.5,778.141 C317.5,784.641 315.9,788.541 312,791.341 C309.6,793.041 306.7,794.141 303.6,794.241 L302.8,794.241 C301.3,794.241 298.8,793.841 297.3,793.441 C297.3,793.441 297,793.341 297,793.141 C297,792.941 297.4,792.941 297.4,792.941 C299.3,792.541 302.9,791.241 305.3,787.941 C306.4,786.441 307.1,784.141 307.1,781.641 C307.1,780.041 306.8,778.341 306.1,776.841 C305,774.441 302.4,771.441 296.8,771.041 L295.7,771.041 C293.6,771.041 291.8,771.541 290.1,772.541 C288.3,773.641 286.7,775.341 285.7,777.341 C284.6,779.341 284.1,781.541 284.1,783.741 C284.1,786.641 285,789.341 286.8,791.541 C289.8,795.141 294.5,797.441 299.9,798.041 C300.6,798.141 301.7,798.241 302.4,798.241 C306.8,798.241 311.2,797.041 314.8,794.841 C318.5,792.241 320.6,788.241 321.3,782.641 C321.5,781.341 321.5,779.941 321.5,778.441 C321.5,774.541 321,769.841 320,764.041 C319.6,761.941 319.2,758.941 318.5,755.141 C324.3,753.241 328.4,749.541 332.2,743.741 C334.5,739.741 335.6,735.641 335.6,731.341 C335.6,729.441 335.4,727.541 335,725.641 M304.8,647.741 C306.6,642.041 309.3,638.641 311.3,636.941 C313.1,635.441 314.7,634.741 315.6,634.741 C315.7,634.741 315.9,634.841 316,634.841 C316.3,634.941 316.7,635.441 317.1,636.141 C318,637.941 318.9,641.241 318.9,644.941 C318.9,646.841 318.7,648.841 318.1,650.641 C315.9,657.441 311.3,664.741 304.3,672.441 C304.1,671.341 303.9,670.341 303.8,669.341 C303.3,666.141 303,662.941 303,660.041 C303,655.541 303.6,651.441 304.8,647.741 M300.8,751.841 C296.2,750.641 291.7,748.141 287.9,744.641 C286.6,743.441 284.8,741.241 283.3,737.841 C282,734.841 281.3,731.741 281.3,728.341 L281.3,727.641 C281.4,722.941 282.7,718.141 285.2,713.341 C288.1,707.741 292.6,702.241 298.7,696.941 C300.2,695.641 301.6,694.341 302.9,693.041 C303.7,697.341 304.4,702.041 305.3,706.941 C301.4,708.241 296.7,711.241 293.6,716.941 C291.2,721.441 290.5,725.341 290.5,728.541 C290.5,730.041 290.7,731.441 290.9,732.541 C291.8,737.041 294.4,740.741 297.9,742.841 C298.7,743.341 302,745.041 304,745.041 C304.3,745.041 304.6,745.041 304.8,744.941 C305.1,744.841 305.4,744.641 305.5,744.341 C305.6,744.141 305.6,743.941 305.6,743.741 C305.6,742.941 304.8,742.341 303.5,741.541 C302.9,741.141 302.2,740.741 301.5,740.241 C298.9,738.241 297.4,735.141 297.4,731.741 C297.4,730.741 297.6,729.841 297.8,728.841 C298.3,726.841 300,724.041 301.5,722.641 C303.2,721.141 305.2,719.941 307.6,719.341 C309.6,730.541 311.7,741.641 313.3,750.041 C313.4,750.741 313.6,751.441 313.7,752.141 C311.7,752.541 309.7,752.741 307.8,752.741 C305.4,752.741 303.1,752.441 300.8,751.841 M326.5,741.641 C325.3,744.841 322.8,748.841 317.7,750.941 C317.6,750.541 317.6,750.041 317.5,749.641 C316,740.841 314.1,729.941 312.1,718.641 L313.1,718.641 C322.8,718.641 326.7,725.841 327.6,730.441 C327.8,731.341 327.9,732.541 327.9,733.841 C327.9,736.141 327.5,738.941 326.5,741.641"/>
<path class="TimeSig" d="M365.2,957.453 L382,957.453 L382,964.753 L373.9,964.753 C373.1,964.753 372.5,965.353 372.5,966.153 L372.5,968.053 C372.5,968.853 373.1,969.353 373.9,969.353 L403.6,969.353 C404.4,969.353 405,968.853 405,968.053 L405,966.153 C405,965.353 404.4,964.753 403.6,964.753 L394.8,964.753 L394.8,957.453 L403.6,957.453 C404.4,957.453 405,956.853 405,956.053 L405,954.253 C405,953.453 404.4,952.853 403.6,952.853 L394.8,952.853 L394.8,937.153 C394.8,936.653 394.4,936.153 394,935.953 L392.9,935.353 C392.7,935.253 392.4,935.253 392.2,935.253 C391.9,935.253 391.5,935.353 391.3,935.553 L382.4,943.753 C382.2,943.953 382,944.453 382,944.753 L382,952.853 L370.7,952.853 C370.7,952.853 381.6,941.053 393.2,925.553 C394,924.453 393.6,923.453 393.4,923.253 L391.3,921.053 C391.1,920.853 390.6,920.653 390.3,920.653 L375.7,920.653 C375,920.653 374.5,921.253 374.4,921.853 C374.4,921.853 373.9,929.053 371.3,937.053 C368.7,945.053 365.9,949.853 363.3,953.453 C363.3,953.453 362.8,954.453 363.1,955.153 C363.4,955.853 364.1,956.953 364.1,956.953 C364.1,956.953 364.4,957.453 365.2,957.453"/>
<path class="TimeSig" d="M365.2,1006.06 L382,1006.06 L382,1013.36 L373.9,1013.36 C373.1,1013.36 372.5,1013.96 372.5,1014.76 L372.5,1016.66 C372.5,1017.46 373.1,1017.96 373.9,1017.96 L403.6,1017.96 C404.4,1017.96 405,1017.46 405,1016.66 L405,1014.76 C405,1013.96 404.4,1013.36 403.6,1013.36 L394.8,1013.36 L394.8,1006.06 L403.6,1006.06 C404.4,1006.06 405,1005.46 405,1004.66 L405,1002.86 C405,1002.06 404.4,1001.46 403.6,1001.46 L394.8,1001.46 L394.8,985.758 C394.8,985.258 394.4,984.758 394,984.558 L392.9,983.958 C392.7,983.858 392.4,983.858 392.2,983.858 C391.9,983.858 391.5,983.958 391.3,984.158 L382.4,992.358 C382.2,992.558 382,993.058 382,993.358 L382,1001.46 L370.7,1001.46 C370.7,1001.46 381.6,989.658 393.2,974.158 C394,973.058 393.6,972.058 393.4,971.858 L391.3,969.658 C391.1,969.458 390.6,969.258 390.3,969.258 L375.7,969.258 C375,969.258 374.5,969.858 374.4,970.458 C374.4,970.458 373.9,977.658 371.3,985.658 C368.7,993.658 365.9,998.458 363.3,1002.06 C363.3,1002.06 362.8,1003.06 363.1,1003.76 C363.4,1004.46 364.1,1005.56 364.1,1005.56 C364.1,1005.56 364.4,1006.06 365.2,1006.06"/>
<path class="TimeSig" d="M365.2,694.937 L382,694.937 L382,702.237 L373.9,702.237 C373.1,702.237 372.5,702.837 372.5,703.637 L372.5,705.537 C372.5,706.337 373.1,706.837 373.9,706.837 L403.6,706.837 C404.4,706.837 405,706.337 405,705.537 L405,703.637 C405,702.837 404.4,702.237 403.6,702.237 L394.8,702.237 L394.8,694.937 L403.6,694.937 C404.4,694.937 405,694.337 405,693.537 L405,691.737 C405,690.937 404.4,690.337 403.6,690.337 L394.8,690.337 L394.8,674.637 C394.8,674.137 394.4,673.637 394,673.437 L392.9,672.837 C392.7,672.737 392.4,672.737 392.2,672.737 C391.9,672.737 391.5,672.837 391.3,673.037 L382.4,681.237 C382.2,681.437 382,681.937 382,682.237 L382,690.337 L370.7,690.337 C370.7,690.337 381.6,678.537 393.2,663.037 C394,661.937 393.6,660.937 393.4,660.737 L391.3,658.537 C391.1,658.337 390.6,658.137 390.3,658.137 L375.7,658.137 C375,658.137 374.5,658.737 374.4,659.337 C374.4,659.337 373.9,666.537 371.3,674.537 C368.7,682.537 365.9,687.337 363.3,690.937 C363.3,690.937 362.8,691.937 363.1,692.637 C363.4,693.337 364.1,694.437 364.1,694.437 C364.1,694.437 364.4,694.937 365.2,694.937"/>
<path class="TimeSig" d="M365.2,743.541 L382,743.541 L382,750.841 L373.9,750.841 C373.1,750.841 372.5,751.441 372.5,752.241 L372.5,754.141 C372.5,754.941 373.1,755.441 373.9,755.441 L403.6,755.441 C404.4,755.441 405,754.941 405,754.141 L405,752.241 C405,751.441 404.4,750.841 403.6,750.841 L394.8,750.841 L394.8,743.541 L403.6,743.541 C404.4,743.541 405,742.941 405,742.141 L405,740.341 C405,739.541 404.4,738.941 403.6,738.941 L394.8,738.941 L394.8,723.241 C394.8,722.741 394.4,722.241 394,722.041 L392.9,721.441 C392.7,721.341 392.4,721.341 392.2,721.341 C391.9,721.341 391.5,721.441 391.3,721.641 L382.4,729.841 C382.2,730.041 382,730.541 382,730.841 L382,738.941 L370.7,738.941 C370.7,738.941 381.6,727.141 393.2,711.641 C394,710.541 393.6,709.541 393.4,709.341 L391.3,707.141 C391.1,706.941 390.6,706.741 390.3,706.741 L375.7,706.741 C375,706.741 374.5,707.341 374.4,707.941 C374.4,707.941 373.9,715.141 371.3,723.141 C368.7,731.141 365.9,735.941 363.3,739.541 C363.3,739.541 362.8,740.541 363.1,741.241 C363.4,741.941 364.1,743.041 364.1,743.041 C364.1,743.041 364.4,743.541 365.2,743.541"/>
<path class="Bracket" transform="matrix(3.62523,0,0,3.62523,214.469,1019.06)" d="M0.92002,-50 C2.69004,-51.88 6.2,-55.8 6.2,-63 C6.2,-72.1 2.25996,-81.32 2.25996,-86.97 C2.25996,-93.06 5.84004,-98.84 5.95,-99 C6.05996,-99.16 6.05,-99.39 5.94004,-99.46 C5.82998,-99.53 5.62002,-99.47 5.49004,-99.32 C5.35996,-99.17 0,-93.75 0,-85.6 C0,-76.75 3.5,-70.58 3.5,-59.07 C3.5,-56.89 2.55996,-53.36 0.1,-50.33 C-0.0799805,-50.17 -0.1,-49.89 0.0599609,-49.7 L0.0700195,-49.69 L0.1,-49.66 C2.55996,-46.63 3.5,-43.1 3.5,-40.92 C3.5,-29.4 0,-23.24 0,-14.39 C0,-6.25 5.35996,-0.8 5.49004,-0.659961 C5.62002,-0.52002 5.8,-0.42998 5.94004,-0.52002 C6.07998,-0.609961 6.07998,-0.77998 5.95,-0.97998 C5.82002,-1.17998 2.25996,-6.92002 2.25996,-13.01 C2.25996,-18.66 6.2,-27.9 6.2,-37 C6.2,-44.3 2.69004,-48.12 0.92002,-50"/>
</svg>