<?xml version="1.0" encoding="UTF-8" standalone="no"?>
<svg width="1000px" height="500px" viewBox="150 650 2700 1000" xmlns="http://www.w3.org/2000/svg" xmlns:xlink="http://www.w3.org/1999/xlink" version="1.2" baseProfile="tiny">
 xmlns="http://www.w3.org/2000/svg" xmlns:xlink="http://www.w3.org/1999/xlink" version="1.2" baseProfile="tiny">
<title>exercises_scores (28)</title>
<desc>Generated by MuseScore 3.6.0</desc>
<polyline class="StaffLines" fill="none" stroke="#000000" stroke-width="2.75" stroke-linejoin="bevel" points="247.099,645.317 2764.63,645.317"/>
<polyline class="StaffLines" fill="none" stroke="#000000" stroke-width="2.75" stroke-linejoin="bevel" points="247.099,670.319 2764.63,670.319"/>
<polyline class="StaffLines" fill="none" stroke="#000000" stroke-width="2.75" stroke-linejoin="bevel" points="247.099,695.32 2764.63,695.32"/>
<polyline class="StaffLines" fill="none" stroke="#000000" stroke-width="2.75" stroke-linejoin="bevel" points="247.099,720.322 2764.63,720.322"/>
<polyline class="StaffLines" fill="none" stroke="#000000" stroke-width="2.75" stroke-linejoin="bevel" points="247.099,745.324 2764.63,745.324"/>
<polyline class="StaffLines" fill="none" stroke="#000000" stroke-width="2.75" stroke-linejoin="bevel" points="247.099,907.834 2764.63,907.834"/>
<polyline class="StaffLines" fill="none" stroke="#000000" stroke-width="2.75" stroke-linejoin="bevel" points="247.099,932.835 2764.63,932.835"/>
<polyline class="StaffLines" fill="none" stroke="#000000" stroke-width="2.75" stroke-linejoin="bevel" points="247.099,957.837 2764.63,957.837"/>
<polyline class="StaffLines" fill="none" stroke="#000000" stroke-width="2.75" stroke-linejoin="bevel" points="247.099,982.839 2764.63,982.839"/>
<polyline class="StaffLines" fill="none" stroke="#000000" stroke-width="2.75" stroke-linejoin="bevel" points="247.099,1007.84 2764.63,1007.84"/>
<polyline class="StaffLines" fill="none" stroke="#000000" stroke-width="2.75" stroke-linejoin="bevel" points="247.099,1257.86 2764.63,1257.86"/>
<polyline class="StaffLines" fill="none" stroke="#000000" stroke-width="2.75" stroke-linejoin="bevel" points="247.099,1282.86 2764.63,1282.86"/>
<polyline class="StaffLines" fill="none" stroke="#000000" stroke-width="2.75" stroke-linejoin="bevel" points="247.099,1307.86 2764.63,1307.86"/>
<polyline class="StaffLines" fill="none" stroke="#000000" stroke-width="2.75" stroke-linejoin="bevel" points="247.099,1332.86 2764.63,1332.86"/>
<polyline class="StaffLines" fill="none" stroke="#000000" stroke-width="2.75" stroke-linejoin="bevel" points="247.099,1357.86 2764.63,1357.86"/>
<polyline class="StaffLines" fill="none" stroke="#000000" stroke-width="2.75" stroke-linejoin="bevel" points="247.099,1520.37 2764.63,1520.37"/>
<polyline class="StaffLines" fill="none" stroke="#000000" stroke-width="2.75" stroke-linejoin="bevel" points="247.099,1545.37 2764.63,1545.37"/>
<polyline class="StaffLines" fill="none" stroke="#000000" stroke-width="2.75" stroke-linejoin="bevel" points="247.099,1570.38 2764.63,1570.38"/>
<polyline class="StaffLines" fill="none" stroke="#000000" stroke-width="2.75" stroke-linejoin="bevel" points="247.099,1595.38 2764.63,1595.38"/>
<polyline class="StaffLines" fill="none" stroke="#000000" stroke-width="2.75" stroke-linejoin="bevel" points="247.099,1620.38 2764.63,1620.38"/>
<path class="Text" d="M242.312,213.137 L240.092,213.137 L237.692,216.737 C234.812,214.037 231.032,212.597 226.772,212.597 C218.852,212.597 213.632,217.577 213.632,225.137 C213.632,231.677 216.872,234.917 225.692,237.197 L231.392,238.637 C235.832,239.777 236.252,239.897 237.512,240.857 C239.312,242.237 240.272,244.217 240.272,246.557 C240.272,248.957 239.372,250.937 237.572,252.617 C235.592,254.297 233.612,254.957 230.312,254.957 C225.872,254.957 222.692,253.577 219.872,250.457 C217.352,247.697 216.092,244.817 215.192,240.197 L212.612,240.197 L212.852,257.297 L215.192,257.297 L217.892,253.217 C221.912,256.517 225.212,257.717 230.492,257.717 C239.312,257.717 244.952,252.557 244.952,244.517 C244.952,240.737 243.752,237.617 241.352,235.337 C239.732,233.777 237.392,232.757 232.592,231.557 L226.172,229.937 C220.832,228.557 218.312,226.217 218.312,222.557 C218.312,218.357 221.732,215.477 226.832,215.477 C231.032,215.477 234.452,217.277 236.852,220.697 C238.592,223.157 239.732,225.677 240.452,228.737 L243.032,228.737 L242.312,213.137 M271.162,247.997 C269.242,252.317 267.202,254.057 264.082,254.057 C259.282,254.057 256.282,249.677 256.282,242.657 C256.282,235.337 259.222,230.537 263.662,230.537 C265.462,230.537 267.022,231.377 267.022,232.337 C267.022,232.517 266.962,232.697 266.662,233.057 C265.702,234.197 265.462,234.797 265.462,235.817 C265.462,237.797 266.962,239.177 269.062,239.177 C271.222,239.177 272.722,237.497 272.722,235.097 C272.722,231.017 268.702,227.957 263.362,227.957 C255.562,227.957 249.982,234.317 249.982,243.317 C249.982,251.837 255.082,257.717 262.522,257.717 C267.862,257.717 270.922,255.257 273.502,248.897 L271.162,247.997 M301.75,237.497 C301.75,233.717 301.09,231.797 299.35,230.357 C297.37,228.737 294.43,227.957 290.59,227.957 C283.81,227.957 278.89,231.137 278.89,235.517 C278.89,237.737 280.27,239.177 282.37,239.177 C284.29,239.177 285.61,237.917 285.61,236.117 C285.61,235.337 285.31,234.497 284.71,233.657 C284.35,233.237 284.29,233.117 284.29,232.817 C284.29,231.617 286.69,230.537 289.57,230.537 C291.49,230.537 293.59,231.137 294.55,232.037 C295.69,232.997 296.11,234.437 296.11,237.137 L296.11,239.477 C289.87,240.557 287.89,241.037 284.95,242.177 C279.73,244.097 277.27,246.857 277.27,250.697 C277.27,255.017 280.63,257.717 285.97,257.717 C290.11,257.717 293.83,256.037 296.41,252.977 C297.37,256.037 298.87,257.237 301.69,257.237 C304.39,257.237 307.21,255.497 307.21,253.757 C307.21,253.337 306.97,253.037 306.61,253.037 C306.37,253.037 306.13,253.097 305.71,253.277 C304.87,253.637 304.51,253.697 304.03,253.697 C302.35,253.697 301.75,252.617 301.75,249.557 L301.75,237.497 M296.11,244.817 C296.11,248.417 295.93,249.257 294.91,250.817 C293.41,253.037 290.71,254.537 288.07,254.537 C285.31,254.537 283.33,252.557 283.33,249.857 C283.33,247.337 284.59,245.537 287.23,244.277 C289.09,243.437 291.43,242.837 296.11,242.057 L296.11,244.817 M320.229,212.597 L309.129,213.257 L309.129,215.837 L312.069,215.837 C314.289,215.897 314.589,216.257 314.589,218.837 L314.589,249.437 L314.589,252.257 C314.529,253.157 314.469,253.517 314.229,253.817 C313.809,254.357 312.669,254.597 310.089,254.657 L309.669,254.657 L309.669,256.817 L325.209,256.817 L325.209,254.657 L324.789,254.657 C320.769,254.537 320.229,254.237 320.229,252.077 L320.229,249.437 L320.229,212.597 M354.78,243.317 C354.84,234.317 349.74,227.957 342.42,227.957 C334.74,227.957 328.98,234.617 328.98,243.617 C328.98,252.077 334.44,257.717 342.54,257.717 C348.3,257.717 352.32,254.897 354.78,249.197 L352.68,248.057 C350.22,252.677 347.7,254.477 343.68,254.477 C340.62,254.477 338.4,253.217 336.84,250.517 C335.76,248.717 335.28,246.617 335.34,243.317 L354.78,243.317 M335.4,240.737 C335.4,238.877 335.64,237.557 336.24,235.877 C337.5,232.277 339.42,230.537 342.36,230.537 C345.96,230.537 348.36,233.717 348.36,238.577 C348.36,240.257 347.82,240.737 345.9,240.737 L335.4,240.737 M366.601,250.157 C364.501,250.157 362.821,251.837 362.821,253.877 C362.821,255.977 364.501,257.657 366.541,257.657 C368.641,257.657 370.321,255.977 370.321,253.877 C370.321,251.837 368.641,250.157 366.601,250.157 M366.601,228.437 C364.501,228.437 362.821,230.117 362.821,232.217 C362.821,234.257 364.501,235.937 366.541,235.937 C368.641,235.937 370.321,234.257 370.321,232.157 C370.321,230.117 368.641,228.437 366.601,228.437 M392.745,256.817 L412.905,256.817 C418.245,256.817 422.325,255.977 425.505,254.177 C431.565,250.757 434.925,243.917 434.925,234.917 C434.925,226.637 431.925,220.157 426.405,216.557 C423.105,214.457 418.665,213.497 411.825,213.497 L392.745,213.497 L392.745,216.317 L393.885,216.317 C397.245,216.377 398.385,216.557 398.865,217.157 C399.225,217.697 399.225,217.817 399.225,220.877 L399.225,249.437 C399.225,252.497 399.225,252.617 398.865,253.157 C398.385,253.757 397.245,253.937 393.885,253.997 L392.745,253.997 L392.745,256.817 M409.365,253.997 C406.305,253.997 405.945,253.637 405.945,250.697 L405.945,219.677 C405.945,216.737 406.365,216.317 409.365,216.317 L412.485,216.317 C422.745,216.317 427.005,221.897 427.005,235.157 C427.005,248.597 423.165,253.997 413.445,253.997 L409.365,253.997 M466.408,228.857 L455.728,229.517 L455.728,232.097 L458.188,232.097 C460.468,232.157 460.768,232.517 460.768,235.097 L460.768,249.437 L460.768,251.777 L460.768,252.257 C460.708,253.157 460.648,253.517 460.408,253.817 C459.988,254.357 458.848,254.597 456.268,254.657 L456.028,254.657 L456.028,256.817 L471.148,256.817 L471.148,254.657 L470.908,254.657 C466.948,254.537 466.408,254.237 466.408,252.017 L466.408,249.437 L466.408,240.917 C466.408,235.577 469.348,231.617 473.248,231.617 C476.668,231.617 478.408,234.077 478.408,238.937 L478.408,249.437 L478.408,252.317 C478.348,253.097 478.288,253.517 477.988,253.817 C477.628,254.357 476.428,254.597 473.848,254.657 L473.608,254.657 L473.608,256.817 L488.788,256.817 L488.788,254.657 L488.548,254.657 C484.588,254.537 484.048,254.237 484.048,252.077 L484.048,249.437 L484.048,241.457 C484.048,235.457 486.748,231.617 490.948,231.617 C494.368,231.617 496.048,234.197 496.048,239.597 L496.048,249.437 L496.048,252.257 C495.988,253.097 495.928,253.517 495.628,253.817 C495.268,254.357 494.068,254.597 491.488,254.657 L491.248,254.657 L491.248,256.817 L506.428,256.817 L506.428,254.657 L506.188,254.657 C502.228,254.537 501.688,254.237 501.688,252.017 L501.688,249.437 L501.688,238.397 C501.688,234.677 501.328,233.417 499.768,231.377 C498.028,229.157 495.568,227.957 492.688,227.957 C488.788,227.957 485.908,229.817 483.328,233.957 C482.308,230.357 479.068,227.957 475.048,227.957 C471.388,227.957 468.748,229.697 466.408,233.477 L466.408,228.857 M520.037,228.857 L508.757,229.517 L508.757,232.097 L511.817,232.097 C514.097,232.157 514.397,232.517 514.397,235.097 L514.397,249.437 L514.397,252.257 C514.337,253.157 514.277,253.517 514.037,253.817 C513.617,254.357 512.477,254.597 509.897,254.657 L509.477,254.657 L509.477,256.817 L525.017,256.817 L525.017,254.657 L524.597,254.657 C520.577,254.537 520.037,254.237 520.037,252.077 L520.037,249.437 L520.037,228.857 M517.217,213.917 C515.297,213.917 513.737,215.477 513.737,217.397 C513.737,219.317 515.297,220.877 517.157,220.877 C519.137,220.877 520.697,219.317 520.697,217.397 C520.697,215.477 519.137,213.917 517.217,213.917 M538.567,228.857 L528.187,229.517 L528.187,232.097 L530.347,232.097 C532.627,232.157 532.927,232.517 532.927,235.097 L532.927,249.437 L532.927,250.877 L532.927,252.257 C532.867,253.157 532.807,253.517 532.567,253.817 C532.147,254.357 531.007,254.597 528.427,254.657 L528.187,254.657 L528.187,256.817 L543.367,256.817 L543.367,254.657 L543.127,254.657 C539.107,254.537 538.567,254.237 538.567,252.077 L538.567,249.437 L538.567,243.197 C538.567,240.257 538.987,237.557 539.647,236.177 C540.907,233.477 543.607,231.617 546.187,231.617 C547.747,231.617 549.547,232.457 550.447,233.717 C551.347,235.037 551.767,236.837 551.767,239.717 L551.767,249.437 L551.767,252.257 C551.707,253.157 551.647,253.517 551.407,253.817 C550.987,254.357 549.787,254.597 547.207,254.657 L546.967,254.657 L546.967,256.817 L562.147,256.817 L562.147,254.657 L561.907,254.657 C557.947,254.537 557.407,254.237 557.407,252.077 L557.407,249.437 L557.407,240.017 C557.407,235.697 557.227,234.617 556.147,232.577 C554.647,229.697 551.647,227.957 548.047,227.957 C544.147,227.957 541.207,229.757 538.567,233.717 L538.567,228.857 M578.343,227.957 C570.963,227.957 565.263,234.497 565.263,242.897 C565.263,251.117 571.023,257.717 578.223,257.717 C585.423,257.717 591.183,251.117 591.183,242.837 C591.183,234.617 585.423,227.957 578.343,227.957 M578.343,230.537 C582.543,230.537 584.883,234.917 584.883,242.837 C584.883,250.817 582.543,255.137 578.223,255.137 C573.903,255.137 571.563,250.817 571.563,242.897 C571.563,234.737 573.843,230.537 578.343,230.537 M605.103,228.857 L594.483,229.517 L594.483,232.097 L596.943,232.097 C599.223,232.157 599.523,232.517 599.523,235.097 L599.523,249.437 L599.523,252.257 C599.463,253.157 599.403,253.517 599.163,253.817 C598.743,254.357 597.543,254.597 594.963,254.657 L594.723,254.657 L594.723,256.817 L610.743,256.817 L610.743,254.657 L609.663,254.657 C605.643,254.537 605.103,254.237 605.103,252.077 L605.103,249.437 L605.103,248.837 C605.163,238.757 608.763,231.077 613.443,230.837 C612.603,231.797 612.363,232.397 612.363,233.537 C612.363,235.457 613.743,236.837 615.663,236.837 C617.883,236.837 619.323,235.217 619.323,232.817 C619.323,229.877 617.283,227.957 614.103,227.957 C610.323,227.957 607.083,230.957 605.103,236.297 L605.103,228.857 "/>
<polyline class="BarLine" fill="none" stroke="#000000" stroke-width="4.50" stroke-linejoin="bevel" points="249.349,906.459 249.349,1009.22"/>
<polyline class="BarLine" fill="none" stroke="#000000" stroke-width="4.50" stroke-linejoin="bevel" points="958.904,906.459 958.904,1009.22"/>
<polyline class="BarLine" fill="none" stroke="#000000" stroke-width="4.50" stroke-linejoin="bevel" points="1567.52,906.459 1567.52,1009.22"/>
<polyline class="BarLine" fill="none" stroke="#000000" stroke-width="4.50" stroke-linejoin="bevel" points="2200.67,906.459 2200.67,1009.22"/>
<polyline class="BarLine" fill="none" stroke="#000000" stroke-width="4.50" stroke-linejoin="bevel" points="2762.38,906.459 2762.38,1009.22"/>
<polyline class="BarLine" fill="none" stroke="#000000" stroke-width="4.50" stroke-linejoin="bevel" points="249.349,1519 249.349,1621.75"/>
<polyline class="BarLine" fill="none" stroke="#000000" stroke-width="4.50" stroke-linejoin="bevel" points="1010.38,1519 1010.38,1621.75"/>
<polyline class="BarLine" fill="none" stroke="#000000" stroke-width="4.50" stroke-linejoin="bevel" points="1574.8,1519 1574.8,1621.75"/>
<polyline class="BarLine" fill="none" stroke="#000000" stroke-width="4.50" stroke-linejoin="bevel" points="2241.67,1519 2241.67,1621.75"/>
<polyline class="BarLine" fill="none" stroke="#000000" stroke-width="4.50" stroke-linejoin="bevel" points="2734.88,1519 2734.88,1621.75"/>
<polyline class="BarLine" fill="none" stroke="#000000" stroke-width="13.75" stroke-linejoin="bevel" points="2757.76,1519 2757.76,1621.75"/>
<polyline class="BarLine" fill="none" stroke="#000000" stroke-width="4.50" stroke-linejoin="bevel" points="249.349,643.942 249.349,907.834"/>
<polyline class="BarLine" fill="none" stroke="#000000" stroke-width="4.50" stroke-linejoin="bevel" points="958.904,643.942 958.904,907.834"/>
<polyline class="BarLine" fill="none" stroke="#000000" stroke-width="4.50" stroke-linejoin="bevel" points="1567.52,643.942 1567.52,907.834"/>
<polyline class="BarLine" fill="none" stroke="#000000" stroke-width="4.50" stroke-linejoin="bevel" points="2200.67,643.942 2200.67,907.834"/>
<polyline class="BarLine" fill="none" stroke="#000000" stroke-width="4.50" stroke-linejoin="bevel" points="2762.38,643.942 2762.38,907.834"/>
<polyline class="BarLine" fill="none" stroke="#000000" stroke-width="4.50" stroke-linejoin="bevel" points="249.349,1256.48 249.349,1520.37"/>
<polyline class="BarLine" fill="none" stroke="#000000" stroke-width="4.50" stroke-linejoin="bevel" points="1010.38,1256.48 1010.38,1520.37"/>
<polyline class="BarLine" fill="none" stroke="#000000" stroke-width="4.50" stroke-linejoin="bevel" points="1574.8,1256.48 1574.8,1520.37"/>
<polyline class="BarLine" fill="none" stroke="#000000" stroke-width="4.50" stroke-linejoin="bevel" points="2241.67,1256.48 2241.67,1520.37"/>
<polyline class="BarLine" fill="none" stroke="#000000" stroke-width="4.50" stroke-linejoin="bevel" points="2734.88,1256.48 2734.88,1520.37"/>
<polyline class="BarLine" fill="none" stroke="#000000" stroke-width="13.75" stroke-linejoin="bevel" points="2757.76,1256.48 2757.76,1520.37"/>
<path class="Accidental" d="M1130.11,887.433 C1129.51,883.533 1127.11,879.833 1122.01,879.833 C1117.01,879.833 1114.11,882.933 1113.61,883.533 L1114.01,851.433 C1114.01,850.633 1113.41,850.033 1112.61,850.033 L1111.41,850.033 C1110.61,850.033 1110.01,850.633 1110.01,851.433 L1110.51,911.533 C1110.51,912.333 1111.11,912.933 1111.91,912.933 C1112.11,912.933 1112.51,912.833 1112.71,912.733 C1113.11,912.533 1119.61,909.333 1125.01,903.233 C1128.81,898.933 1130.31,894.033 1130.31,889.933 C1130.31,889.033 1130.21,888.233 1130.11,887.433 M1123.21,891.333 C1123.21,892.833 1122.81,897.433 1120.31,901.233 C1118.61,903.833 1115.21,906.533 1113.31,908.033 L1113.61,888.533 C1113.81,887.633 1115.31,884.733 1119.31,884.733 C1122.91,884.733 1123.21,888.133 1123.21,890.233 L1123.21,891.333 "/>
<path class="Accidental" d="M2253.52,949.937 C2252.92,946.037 2250.52,942.337 2245.42,942.337 C2240.42,942.337 2237.52,945.437 2237.02,946.037 L2237.42,913.937 C2237.42,913.137 2236.82,912.537 2236.02,912.537 L2234.82,912.537 C2234.02,912.537 2233.42,913.137 2233.42,913.937 L2233.92,974.037 C2233.92,974.837 2234.52,975.437 2235.32,975.437 C2235.52,975.437 2235.92,975.337 2236.12,975.237 C2236.52,975.037 2243.02,971.837 2248.42,965.737 C2252.22,961.437 2253.72,956.537 2253.72,952.437 C2253.72,951.537 2253.62,950.737 2253.52,949.937 M2246.62,953.837 C2246.62,955.337 2246.22,959.937 2243.72,963.737 C2242.02,966.337 2238.62,969.037 2236.72,970.537 L2237.02,951.037 C2237.22,950.137 2238.72,947.237 2242.72,947.237 C2246.32,947.237 2246.62,950.637 2246.62,952.737 L2246.62,953.837 "/>
<path class="Accidental" d="M550.722,1562.48 C550.122,1558.58 547.722,1554.88 542.622,1554.88 C537.622,1554.88 534.722,1557.98 534.222,1558.58 L534.622,1526.48 C534.622,1525.68 534.022,1525.08 533.222,1525.08 L532.022,1525.08 C531.222,1525.08 530.622,1525.68 530.622,1526.48 L531.122,1586.58 C531.122,1587.38 531.722,1587.98 532.522,1587.98 C532.722,1587.98 533.122,1587.88 533.322,1587.78 C533.722,1587.58 540.222,1584.38 545.622,1578.28 C549.422,1573.98 550.922,1569.08 550.922,1564.98 C550.922,1564.08 550.822,1563.28 550.722,1562.48 M543.822,1566.38 C543.822,1567.88 543.422,1572.48 540.922,1576.28 C539.222,1578.88 535.822,1581.58 533.922,1583.08 L534.222,1563.58 C534.422,1562.68 535.922,1559.78 539.922,1559.78 C543.522,1559.78 543.822,1563.18 543.822,1565.28 L543.822,1566.38 "/>
<path class="Accidental" d="M1716.05,1499.97 C1715.45,1496.07 1713.05,1492.37 1707.95,1492.37 C1702.95,1492.37 1700.05,1495.47 1699.55,1496.07 L1699.95,1463.97 C1699.95,1463.17 1699.35,1462.57 1698.55,1462.57 L1697.35,1462.57 C1696.55,1462.57 1695.95,1463.17 1695.95,1463.97 L1696.45,1524.07 C1696.45,1524.87 1697.05,1525.47 1697.85,1525.47 C1698.05,1525.47 1698.45,1525.37 1698.65,1525.27 C1699.05,1525.07 1705.55,1521.87 1710.95,1515.77 C1714.75,1511.47 1716.25,1506.57 1716.25,1502.47 C1716.25,1501.57 1716.15,1500.77 1716.05,1499.97 M1709.15,1503.87 C1709.15,1505.37 1708.75,1509.97 1706.25,1513.77 C1704.55,1516.37 1701.15,1519.07 1699.25,1520.57 L1699.55,1501.07 C1699.75,1500.17 1701.25,1497.27 1705.25,1497.27 C1708.85,1497.27 1709.15,1500.67 1709.15,1502.77 L1709.15,1503.87 "/>
<path class="Accidental" d="M1130.11,687.42 C1129.51,683.52 1127.11,679.82 1122.01,679.82 C1117.01,679.82 1114.11,682.92 1113.61,683.52 L1114.01,651.42 C1114.01,650.62 1113.41,650.02 1112.61,650.02 L1111.41,650.02 C1110.61,650.02 1110.01,650.62 1110.01,651.42 L1110.51,711.52 C1110.51,712.32 1111.11,712.92 1111.91,712.92 C1112.11,712.92 1112.51,712.82 1112.71,712.72 C1113.11,712.52 1119.61,709.32 1125.01,703.22 C1128.81,698.92 1130.31,694.02 1130.31,689.92 C1130.31,689.02 1130.21,688.22 1130.11,687.42 M1123.21,691.32 C1123.21,692.82 1122.81,697.42 1120.31,701.22 C1118.61,703.82 1115.21,706.52 1113.31,708.02 L1113.61,688.52 C1113.81,687.62 1115.31,684.72 1119.31,684.72 C1122.91,684.72 1123.21,688.12 1123.21,690.22 L1123.21,691.32 "/>
<path class="Accidental" d="M2244.77,599.915 C2244.17,596.015 2241.77,592.315 2236.67,592.315 C2231.67,592.315 2228.77,595.415 2228.27,596.015 L2228.67,563.915 C2228.67,563.115 2228.07,562.515 2227.27,562.515 L2226.07,562.515 C2225.27,562.515 2224.67,563.115 2224.67,563.915 L2225.17,624.015 C2225.17,624.815 2225.77,625.415 2226.57,625.415 C2226.77,625.415 2227.17,625.315 2227.37,625.215 C2227.77,625.015 2234.27,621.815 2239.67,615.715 C2243.47,611.415 2244.97,606.515 2244.97,602.415 C2244.97,601.515 2244.87,600.715 2244.77,599.915 M2237.87,603.815 C2237.87,605.315 2237.47,609.915 2234.97,613.715 C2233.27,616.315 2229.87,619.015 2227.97,620.515 L2228.27,601.015 C2228.47,600.115 2229.97,597.215 2233.97,597.215 C2237.57,597.215 2237.87,600.615 2237.87,602.715 L2237.87,603.815 "/>
<path class="Accidental" d="M541.971,1212.45 C541.371,1208.55 538.971,1204.85 533.871,1204.85 C528.871,1204.85 525.971,1207.95 525.471,1208.55 L525.871,1176.45 C525.871,1175.65 525.271,1175.05 524.471,1175.05 L523.271,1175.05 C522.471,1175.05 521.871,1175.65 521.871,1176.45 L522.371,1236.55 C522.371,1237.35 522.971,1237.95 523.771,1237.95 C523.971,1237.95 524.371,1237.85 524.571,1237.75 C524.971,1237.55 531.471,1234.35 536.871,1228.25 C540.671,1223.95 542.171,1219.05 542.171,1214.95 C542.171,1214.05 542.071,1213.25 541.971,1212.45 M535.071,1216.35 C535.071,1217.85 534.671,1222.45 532.171,1226.25 C530.471,1228.85 527.071,1231.55 525.171,1233.05 L525.471,1213.55 C525.671,1212.65 527.171,1209.75 531.171,1209.75 C534.771,1209.75 535.071,1213.15 535.071,1215.25 L535.071,1216.35 "/>
<path class="Accidental" d="M1716.05,1299.96 C1715.45,1296.06 1713.05,1292.36 1707.95,1292.36 C1702.95,1292.36 1700.05,1295.46 1699.55,1296.06 L1699.95,1263.96 C1699.95,1263.16 1699.35,1262.56 1698.55,1262.56 L1697.35,1262.56 C1696.55,1262.56 1695.95,1263.16 1695.95,1263.96 L1696.45,1324.06 C1696.45,1324.86 1697.05,1325.46 1697.85,1325.46 C1698.05,1325.46 1698.45,1325.36 1698.65,1325.26 C1699.05,1325.06 1705.55,1321.86 1710.95,1315.76 C1714.75,1311.46 1716.25,1306.56 1716.25,1302.46 C1716.25,1301.56 1716.15,1300.76 1716.05,1299.96 M1709.15,1303.86 C1709.15,1305.36 1708.75,1309.96 1706.25,1313.76 C1704.55,1316.36 1701.15,1319.06 1699.25,1320.56 L1699.55,1301.06 C1699.75,1300.16 1701.25,1297.26 1705.25,1297.26 C1708.85,1297.26 1709.15,1300.66 1709.15,1302.76 L1709.15,1303.86 "/>
<polyline class="LedgerLine" fill="none" stroke="#000000" stroke-width="4.00" stroke-linejoin="bevel" points="1270.71,882.832 1320.71,882.832"/>
<polyline class="LedgerLine" fill="none" stroke="#000000" stroke-width="4.00" stroke-linejoin="bevel" points="1413.61,882.832 1463.61,882.832"/>
<polyline class="LedgerLine" fill="none" stroke="#000000" stroke-width="4.00" stroke-linejoin="bevel" points="1431.94,1645.38 1481.94,1645.38"/>
<polyline class="LedgerLine" fill="none" stroke="#000000" stroke-width="4.00" stroke-linejoin="bevel" points="2061.63,620.316 2111.63,620.316"/>
<polyline class="LedgerLine" fill="none" stroke="#000000" stroke-width="4.00" stroke-linejoin="bevel" points="2251.22,620.316 2301.22,620.316"/>
<polyline class="LedgerLine" fill="none" stroke="#000000" stroke-width="4.00" stroke-linejoin="bevel" points="2390.15,620.316 2440.15,620.316"/>
<polyline class="LedgerLine" fill="none" stroke="#000000" stroke-width="4.00" stroke-linejoin="bevel" points="2390.15,595.314 2440.15,595.314"/>
<polyline class="LedgerLine" fill="none" stroke="#000000" stroke-width="4.00" stroke-linejoin="bevel" points="2529.09,620.316 2579.08,620.316"/>
<polyline class="LedgerLine" fill="none" stroke="#000000" stroke-width="4.00" stroke-linejoin="bevel" points="2529.09,595.314 2579.08,595.314"/>
<polyline class="LedgerLine" fill="none" stroke="#000000" stroke-width="4.00" stroke-linejoin="bevel" points="398.1,1232.85 448.096,1232.85"/>
<polyline class="LedgerLine" fill="none" stroke="#000000" stroke-width="4.00" stroke-linejoin="bevel" points="398.1,1207.85 448.096,1207.85"/>
<polyline class="LedgerLine" fill="none" stroke="#000000" stroke-width="4.00" stroke-linejoin="bevel" points="548.42,1232.85 598.415,1232.85"/>
<polyline class="LedgerLine" fill="none" stroke="#000000" stroke-width="4.00" stroke-linejoin="bevel" points="698.739,1232.85 748.734,1232.85"/>
<polyline class="Stem" fill="none" stroke="#000000" stroke-width="2.75" stroke-linejoin="bevel" points="456.377,961.357 456.377,1035.97"/>
<polyline class="Stem" fill="none" stroke="#000000" stroke-width="2.75" stroke-linejoin="bevel" points="581.79,948.856 581.79,1026.59"/>
<polyline class="Stem" fill="none" stroke="#000000" stroke-width="2.75" stroke-linejoin="bevel" points="707.203,936.356 707.203,1017.22"/>
<polyline class="Stem" fill="none" stroke="#000000" stroke-width="2.75" stroke-linejoin="bevel" points="832.616,923.855 832.616,1007.84"/>
<polyline class="Stem" fill="none" stroke="#000000" stroke-width="2.75" stroke-linejoin="bevel" points="995.031,911.354 995.031,995.339"/>
<polyline class="Stem" fill="none" stroke="#000000" stroke-width="2.75" stroke-linejoin="bevel" points="1137.93,898.853 1137.93,982.839"/>
<polyline class="Stem" fill="none" stroke="#000000" stroke-width="2.75" stroke-linejoin="bevel" points="1280.84,886.352 1280.84,970.338"/>
<polyline class="Stem" fill="none" stroke="#000000" stroke-width="2.75" stroke-linejoin="bevel" points="1423.74,873.852 1423.74,957.837"/>
<polyline class="Stem" fill="none" stroke="#000000" stroke-width="2.75" stroke-linejoin="bevel" points="1717.39,1004.48 1717.39,920.335"/>
<polyline class="Stem" fill="none" stroke="#000000" stroke-width="2.75" stroke-linejoin="bevel" points="1845.42,991.979 1845.42,907.834"/>
<polyline class="Stem" fill="none" stroke="#000000" stroke-width="2.75" stroke-linejoin="bevel" points="1973.46,979.478 1973.46,898.458"/>
<polyline class="Stem" fill="none" stroke="#000000" stroke-width="2.75" stroke-linejoin="bevel" points="2101.5,966.978 2101.5,889.083"/>
<polyline class="Stem" fill="none" stroke="#000000" stroke-width="2.75" stroke-linejoin="bevel" points="2261.35,961.357 2261.35,1035.97"/>
<polyline class="Stem" fill="none" stroke="#000000" stroke-width="2.75" stroke-linejoin="bevel" points="2400.28,948.856 2400.28,1026.59"/>
<polyline class="Stem" fill="none" stroke="#000000" stroke-width="2.75" stroke-linejoin="bevel" points="2539.21,936.276 2539.21,1017.22"/>
<polyline class="Stem" fill="none" stroke="#000000" stroke-width="2.75" stroke-linejoin="bevel" points="408.226,1561.39 408.226,1639.13"/>
<polyline class="Stem" fill="none" stroke="#000000" stroke-width="2.75" stroke-linejoin="bevel" points="558.545,1573.9 558.545,1648.51"/>
<polyline class="Stem" fill="none" stroke="#000000" stroke-width="2.75" stroke-linejoin="bevel" points="738.609,1579.52 738.609,1501.62"/>
<polyline class="Stem" fill="none" stroke="#000000" stroke-width="2.75" stroke-linejoin="bevel" points="888.928,1592.02 888.928,1511"/>
<polyline class="Stem" fill="none" stroke="#000000" stroke-width="2.75" stroke-linejoin="bevel" points="1076.25,1604.52 1076.25,1520.37"/>
<polyline class="Stem" fill="none" stroke="#000000" stroke-width="2.75" stroke-linejoin="bevel" points="1208.1,1617.02 1208.1,1532.87"/>
<polyline class="Stem" fill="none" stroke="#000000" stroke-width="2.75" stroke-linejoin="bevel" points="1339.96,1629.52 1339.96,1545.37"/>
<polyline class="Stem" fill="none" stroke="#000000" stroke-width="2.75" stroke-linejoin="bevel" points="1471.81,1642.02 1471.81,1557.87"/>
<polyline class="Stem" fill="none" stroke="#000000" stroke-width="2.75" stroke-linejoin="bevel" points="1723.88,1511.39 1723.88,1595.38"/>
<polyline class="Stem" fill="none" stroke="#000000" stroke-width="2.75" stroke-linejoin="bevel" points="1853.11,1523.89 1853.11,1607.88"/>
<polyline class="Stem" fill="none" stroke="#000000" stroke-width="2.75" stroke-linejoin="bevel" points="1982.34,1536.39 1982.34,1620.38"/>
<polyline class="Stem" fill="none" stroke="#000000" stroke-width="2.75" stroke-linejoin="bevel" points="2111.56,1548.89 2111.56,1629.75"/>
<polyline class="Stem" fill="none" stroke="#000000" stroke-width="2.75" stroke-linejoin="bevel" points="2277.8,1561.39 2277.8,1639.13"/>
<polyline class="Stem" fill="none" stroke="#000000" stroke-width="2.75" stroke-linejoin="bevel" points="2432.39,1573.82 2432.39,1648.51"/>
<polyline class="Stem" fill="none" stroke="#000000" stroke-width="2.75" stroke-linejoin="bevel" points="486.121,754.464 486.121,670.319"/>
<polyline class="Stem" fill="none" stroke="#000000" stroke-width="2.75" stroke-linejoin="bevel" points="611.534,741.963 611.534,657.818"/>
<polyline class="Stem" fill="none" stroke="#000000" stroke-width="2.75" stroke-linejoin="bevel" points="736.947,729.463 736.947,645.317"/>
<polyline class="Stem" fill="none" stroke="#000000" stroke-width="2.75" stroke-linejoin="bevel" points="862.36,716.962 862.36,635.942"/>
<polyline class="Stem" fill="none" stroke="#000000" stroke-width="2.75" stroke-linejoin="bevel" points="1024.78,704.461 1024.78,626.566"/>
<polyline class="Stem" fill="none" stroke="#000000" stroke-width="2.75" stroke-linejoin="bevel" points="1137.93,698.841 1137.93,773.45"/>
<polyline class="Stem" fill="none" stroke="#000000" stroke-width="2.75" stroke-linejoin="bevel" points="1280.84,686.34 1280.84,764.075"/>
<polyline class="Stem" fill="none" stroke="#000000" stroke-width="2.75" stroke-linejoin="bevel" points="1423.74,673.839 1423.74,754.699"/>
<polyline class="Stem" fill="none" stroke="#000000" stroke-width="2.75" stroke-linejoin="bevel" points="1687.64,661.338 1687.64,745.324"/>
<polyline class="Stem" fill="none" stroke="#000000" stroke-width="2.75" stroke-linejoin="bevel" points="1815.68,648.837 1815.68,732.823"/>
<polyline class="Stem" fill="none" stroke="#000000" stroke-width="2.75" stroke-linejoin="bevel" points="1943.72,636.337 1943.72,720.322"/>
<polyline class="Stem" fill="none" stroke="#000000" stroke-width="2.75" stroke-linejoin="bevel" points="2071.76,623.836 2071.76,707.821"/>
<polyline class="Stem" fill="none" stroke="#000000" stroke-width="2.75" stroke-linejoin="bevel" points="2261.35,611.335 2261.35,695.32"/>
<polyline class="Stem" fill="none" stroke="#000000" stroke-width="2.75" stroke-linejoin="bevel" points="2400.28,598.834 2400.28,695.32"/>
<polyline class="Stem" fill="none" stroke="#000000" stroke-width="2.75" stroke-linejoin="bevel" points="2539.21,586.254 2539.21,695.32"/>
<polyline class="Stem" fill="none" stroke="#000000" stroke-width="2.75" stroke-linejoin="bevel" points="408.226,1211.37 408.226,1307.86"/>
<polyline class="Stem" fill="none" stroke="#000000" stroke-width="2.75" stroke-linejoin="bevel" points="558.545,1223.87 558.545,1307.86"/>
<polyline class="Stem" fill="none" stroke="#000000" stroke-width="2.75" stroke-linejoin="bevel" points="708.865,1236.37 708.865,1320.36"/>
<polyline class="Stem" fill="none" stroke="#000000" stroke-width="2.75" stroke-linejoin="bevel" points="859.184,1248.88 859.184,1332.86"/>
<polyline class="Stem" fill="none" stroke="#000000" stroke-width="2.75" stroke-linejoin="bevel" points="1046.51,1261.38 1046.51,1345.36"/>
<polyline class="Stem" fill="none" stroke="#000000" stroke-width="2.75" stroke-linejoin="bevel" points="1178.36,1273.88 1178.36,1357.86"/>
<polyline class="Stem" fill="none" stroke="#000000" stroke-width="2.75" stroke-linejoin="bevel" points="1310.21,1286.38 1310.21,1367.24"/>
<polyline class="Stem" fill="none" stroke="#000000" stroke-width="2.75" stroke-linejoin="bevel" points="1442.07,1298.88 1442.07,1376.61"/>
<polyline class="Stem" fill="none" stroke="#000000" stroke-width="2.75" stroke-linejoin="bevel" points="1723.88,1311.38 1723.88,1385.99"/>
<polyline class="Stem" fill="none" stroke="#000000" stroke-width="2.75" stroke-linejoin="bevel" points="1882.85,1317 1882.85,1239.1"/>
<polyline class="Stem" fill="none" stroke="#000000" stroke-width="2.75" stroke-linejoin="bevel" points="2012.08,1329.5 2012.08,1248.48"/>
<polyline class="Stem" fill="none" stroke="#000000" stroke-width="2.75" stroke-linejoin="bevel" points="2141.31,1342 2141.31,1257.86"/>
<polyline class="Stem" fill="none" stroke="#000000" stroke-width="2.75" stroke-linejoin="bevel" points="2307.54,1354.5 2307.54,1270.36"/>
<polyline class="Stem" fill="none" stroke="#000000" stroke-width="2.75" stroke-linejoin="bevel" points="2462.14,1366.92 2462.14,1282.86"/>
<path class="Note" d="M486.502,949.637 C485.002,946.937 482.102,945.237 478.202,944.837 C477.602,944.737 477.102,944.737 476.502,944.737 C473.002,944.737 469.202,945.737 465.702,947.637 C459.102,951.237 455.002,957.137 455.002,962.237 C455.002,963.637 455.202,964.937 455.902,966.137 C457.402,968.837 460.402,970.537 464.302,970.937 C464.902,971.037 465.402,971.037 466.002,971.037 C469.502,971.037 473.202,970.037 476.702,968.137 C483.302,964.537 487.502,958.737 487.502,953.637 C487.502,952.237 487.202,950.837 486.502,949.637"/>
<path class="Note" d="M611.915,937.136 C610.415,934.436 607.515,932.736 603.615,932.336 C603.015,932.236 602.515,932.236 601.915,932.236 C598.415,932.236 594.615,933.236 591.115,935.136 C584.515,938.736 580.415,944.636 580.415,949.736 C580.415,951.136 580.615,952.436 581.315,953.636 C582.815,956.336 585.815,958.036 589.715,958.436 C590.315,958.536 590.815,958.536 591.415,958.536 C594.915,958.536 598.615,957.536 602.115,955.636 C608.715,952.036 612.915,946.236 612.915,941.136 C612.915,939.736 612.615,938.336 611.915,937.136"/>
<path class="Note" d="M737.328,924.635 C735.828,921.935 732.928,920.235 729.028,919.835 C728.428,919.735 727.928,919.735 727.328,919.735 C723.828,919.735 720.028,920.735 716.528,922.635 C709.928,926.235 705.828,932.135 705.828,937.235 C705.828,938.635 706.028,939.935 706.728,941.135 C708.228,943.835 711.228,945.535 715.128,945.935 C715.728,946.035 716.228,946.035 716.828,946.035 C720.328,946.035 724.028,945.035 727.528,943.135 C734.128,939.535 738.328,933.735 738.328,928.635 C738.328,927.235 738.028,925.835 737.328,924.635"/>
<path class="Note" d="M862.741,912.135 C861.241,909.435 858.341,907.735 854.441,907.335 C853.841,907.235 853.341,907.235 852.741,907.235 C849.241,907.235 845.441,908.235 841.941,910.135 C835.341,913.735 831.241,919.635 831.241,924.735 C831.241,926.135 831.441,927.435 832.141,928.635 C833.641,931.335 836.641,933.035 840.541,933.435 C841.141,933.535 841.641,933.535 842.241,933.535 C845.741,933.535 849.441,932.535 852.941,930.635 C859.541,927.035 863.741,921.235 863.741,916.135 C863.741,914.735 863.441,913.335 862.741,912.135"/>
<path class="Note" d="M1025.16,899.634 C1023.66,896.934 1020.76,895.234 1016.86,894.834 C1016.26,894.734 1015.76,894.734 1015.16,894.734 C1011.66,894.734 1007.86,895.734 1004.36,897.634 C997.756,901.234 993.656,907.134 993.656,912.234 C993.656,913.634 993.856,914.934 994.556,916.134 C996.056,918.834 999.056,920.534 1002.96,920.934 C1003.56,921.034 1004.06,921.034 1004.66,921.034 C1008.16,921.034 1011.86,920.034 1015.36,918.134 C1021.96,914.534 1026.16,908.734 1026.16,903.634 C1026.16,902.234 1025.86,900.834 1025.16,899.634"/>
<path class="Note" d="M1168.06,887.133 C1166.56,884.433 1163.66,882.733 1159.76,882.333 C1159.16,882.233 1158.66,882.233 1158.06,882.233 C1154.56,882.233 1150.76,883.233 1147.26,885.133 C1140.66,888.733 1136.56,894.633 1136.56,899.733 C1136.56,901.133 1136.76,902.433 1137.46,903.633 C1138.96,906.333 1141.96,908.033 1145.86,908.433 C1146.46,908.533 1146.96,908.533 1147.56,908.533 C1151.06,908.533 1154.76,907.533 1158.26,905.633 C1164.86,902.033 1169.06,896.233 1169.06,891.133 C1169.06,889.733 1168.76,888.333 1168.06,887.133"/>
<path class="Note" d="M1310.96,874.632 C1309.46,871.932 1306.56,870.232 1302.66,869.832 C1302.06,869.732 1301.56,869.732 1300.96,869.732 C1297.46,869.732 1293.66,870.732 1290.16,872.632 C1283.56,876.232 1279.46,882.132 1279.46,887.232 C1279.46,888.632 1279.66,889.932 1280.36,891.132 C1281.86,893.832 1284.86,895.532 1288.76,895.932 C1289.36,896.032 1289.86,896.032 1290.46,896.032 C1293.96,896.032 1297.66,895.032 1301.16,893.132 C1307.76,889.532 1311.96,883.732 1311.96,878.632 C1311.96,877.232 1311.66,875.832 1310.96,874.632"/>
<path class="Note" d="M1453.86,862.131 C1452.36,859.431 1449.46,857.731 1445.56,857.331 C1444.96,857.231 1444.46,857.231 1443.86,857.231 C1440.36,857.231 1436.56,858.231 1433.06,860.131 C1426.46,863.731 1422.36,869.631 1422.36,874.731 C1422.36,876.131 1422.56,877.431 1423.26,878.631 C1424.76,881.331 1427.76,883.031 1431.66,883.431 C1432.26,883.531 1432.76,883.531 1433.36,883.531 C1436.86,883.531 1440.56,882.531 1444.06,880.631 C1450.66,877.031 1454.86,871.231 1454.86,866.131 C1454.86,864.731 1454.56,863.331 1453.86,862.131"/>
<path class="Note" d="M1717.77,999.64 C1716.27,996.94 1713.37,995.24 1709.47,994.84 C1708.87,994.74 1708.37,994.74 1707.77,994.74 C1704.27,994.74 1700.47,995.74 1696.97,997.64 C1690.37,1001.24 1686.27,1007.14 1686.27,1012.24 C1686.27,1013.64 1686.47,1014.94 1687.17,1016.14 C1688.67,1018.84 1691.67,1020.54 1695.57,1020.94 C1696.17,1021.04 1696.67,1021.04 1697.27,1021.04 C1700.77,1021.04 1704.47,1020.04 1707.97,1018.14 C1714.57,1014.54 1718.77,1008.74 1718.77,1003.64 C1718.77,1002.24 1718.47,1000.84 1717.77,999.64"/>
<path class="Note" d="M1845.81,987.139 C1844.31,984.439 1841.41,982.739 1837.51,982.339 C1836.91,982.239 1836.41,982.239 1835.81,982.239 C1832.31,982.239 1828.51,983.239 1825.01,985.139 C1818.41,988.739 1814.31,994.639 1814.31,999.739 C1814.31,1001.14 1814.51,1002.44 1815.21,1003.64 C1816.71,1006.34 1819.71,1008.04 1823.61,1008.44 C1824.21,1008.54 1824.71,1008.54 1825.31,1008.54 C1828.81,1008.54 1832.51,1007.54 1836.01,1005.64 C1842.61,1002.04 1846.81,996.239 1846.81,991.139 C1846.81,989.739 1846.51,988.339 1845.81,987.139"/>
<path class="Note" d="M1973.84,974.639 C1972.34,971.939 1969.44,970.239 1965.54,969.839 C1964.94,969.739 1964.44,969.739 1963.84,969.739 C1960.34,969.739 1956.54,970.739 1953.04,972.639 C1946.44,976.239 1942.34,982.139 1942.34,987.239 C1942.34,988.639 1942.54,989.939 1943.24,991.139 C1944.74,993.839 1947.74,995.539 1951.64,995.939 C1952.24,996.039 1952.74,996.039 1953.34,996.039 C1956.84,996.039 1960.54,995.039 1964.04,993.139 C1970.64,989.539 1974.84,983.739 1974.84,978.639 C1974.84,977.239 1974.54,975.839 1973.84,974.639"/>
<path class="Note" d="M2101.88,962.138 C2100.38,959.438 2097.48,957.738 2093.58,957.338 C2092.98,957.238 2092.48,957.238 2091.88,957.238 C2088.38,957.238 2084.58,958.238 2081.08,960.138 C2074.48,963.738 2070.38,969.638 2070.38,974.738 C2070.38,976.138 2070.58,977.438 2071.28,978.638 C2072.78,981.338 2075.78,983.038 2079.68,983.438 C2080.28,983.538 2080.78,983.538 2081.38,983.538 C2084.88,983.538 2088.58,982.538 2092.08,980.638 C2098.68,977.038 2102.88,971.238 2102.88,966.138 C2102.88,964.738 2102.58,963.338 2101.88,962.138"/>
<path class="Note" d="M2291.47,949.637 C2289.97,946.937 2287.07,945.237 2283.17,944.837 C2282.57,944.737 2282.07,944.737 2281.47,944.737 C2277.97,944.737 2274.17,945.737 2270.67,947.637 C2264.07,951.237 2259.97,957.137 2259.97,962.237 C2259.97,963.637 2260.17,964.937 2260.87,966.137 C2262.37,968.837 2265.37,970.537 2269.27,970.937 C2269.87,971.037 2270.37,971.037 2270.97,971.037 C2274.47,971.037 2278.17,970.037 2281.67,968.137 C2288.27,964.537 2292.47,958.737 2292.47,953.637 C2292.47,952.237 2292.17,950.837 2291.47,949.637"/>
<path class="Note" d="M2430.4,937.136 C2428.9,934.436 2426,932.736 2422.1,932.336 C2421.5,932.236 2421,932.236 2420.4,932.236 C2416.9,932.236 2413.1,933.236 2409.6,935.136 C2403,938.736 2398.9,944.636 2398.9,949.736 C2398.9,951.136 2399.1,952.436 2399.8,953.636 C2401.3,956.336 2404.3,958.036 2408.2,958.436 C2408.8,958.536 2409.3,958.536 2409.9,958.536 C2413.4,958.536 2417.1,957.536 2420.6,955.636 C2427.2,952.036 2431.4,946.236 2431.4,941.136 C2431.4,939.736 2431.1,938.336 2430.4,937.136"/>
<path class="Note" d="M2569.34,924.635 C2567.84,921.935 2564.94,920.235 2561.04,919.835 C2560.44,919.735 2559.94,919.735 2559.34,919.735 C2555.84,919.735 2552.04,920.735 2548.54,922.635 C2541.94,926.235 2537.84,932.035 2537.84,937.135 C2537.84,938.535 2538.24,939.935 2538.94,941.135 C2540.44,943.935 2543.24,945.535 2547.14,945.935 C2547.74,946.035 2548.24,946.035 2548.84,946.035 C2552.34,946.035 2556.14,945.035 2559.64,943.135 C2566.24,939.535 2570.34,933.635 2570.34,928.535 C2570.34,927.135 2570.04,925.835 2569.34,924.635 M2565.14,930.935 C2563.44,932.735 2560.24,935.035 2556.64,937.135 C2553.04,939.235 2549.34,940.935 2547.04,941.635 C2546.54,941.735 2545.94,941.835 2545.44,941.835 C2543.94,941.835 2542.64,941.135 2541.94,940.035 C2541.64,939.435 2541.44,938.835 2541.44,938.235 C2541.44,937.135 2541.94,936.035 2543.04,934.835 C2544.74,933.035 2547.94,930.635 2551.54,928.535 C2555.14,926.435 2558.84,924.735 2561.24,924.135 L2561.44,924.135 C2562.04,923.935 2562.54,923.835 2563.04,923.835 C2564.44,923.835 2565.54,924.435 2566.24,925.735 C2566.54,926.335 2566.74,926.835 2566.74,927.435 C2566.74,928.735 2566.04,930.035 2565.14,930.935"/>
<path class="Note" d="M438.351,1549.67 C436.851,1546.97 433.951,1545.27 430.051,1544.87 C429.451,1544.77 428.951,1544.77 428.351,1544.77 C424.851,1544.77 421.051,1545.77 417.551,1547.67 C410.951,1551.27 406.851,1557.17 406.851,1562.27 C406.851,1563.67 407.051,1564.97 407.751,1566.17 C409.251,1568.87 412.251,1570.57 416.151,1570.97 C416.751,1571.07 417.251,1571.07 417.851,1571.07 C421.351,1571.07 425.051,1570.07 428.551,1568.17 C435.151,1564.57 439.351,1558.77 439.351,1553.67 C439.351,1552.27 439.051,1550.87 438.351,1549.67"/>
<path class="Note" d="M588.67,1562.18 C587.17,1559.48 584.27,1557.78 580.37,1557.38 C579.77,1557.28 579.27,1557.28 578.67,1557.28 C575.17,1557.28 571.37,1558.28 567.87,1560.18 C561.27,1563.78 557.17,1569.68 557.17,1574.78 C557.17,1576.18 557.37,1577.48 558.07,1578.68 C559.57,1581.38 562.57,1583.08 566.47,1583.48 C567.07,1583.58 567.57,1583.58 568.17,1583.58 C571.67,1583.58 575.37,1582.58 578.87,1580.68 C585.47,1577.08 589.67,1571.28 589.67,1566.18 C589.67,1564.78 589.37,1563.38 588.67,1562.18"/>
<path class="Note" d="M738.99,1574.68 C737.49,1571.98 734.59,1570.28 730.69,1569.88 C730.09,1569.78 729.59,1569.78 728.99,1569.78 C725.49,1569.78 721.69,1570.78 718.19,1572.68 C711.59,1576.28 707.49,1582.18 707.49,1587.28 C707.49,1588.68 707.69,1589.98 708.39,1591.18 C709.89,1593.88 712.89,1595.58 716.79,1595.98 C717.39,1596.08 717.89,1596.08 718.49,1596.08 C721.99,1596.08 725.69,1595.08 729.19,1593.18 C735.79,1589.58 739.99,1583.78 739.99,1578.68 C739.99,1577.28 739.69,1575.88 738.99,1574.68"/>
<path class="Note" d="M889.309,1587.18 C887.809,1584.48 884.909,1582.78 881.009,1582.38 C880.409,1582.28 879.909,1582.28 879.309,1582.28 C875.809,1582.28 872.009,1583.28 868.509,1585.18 C861.909,1588.78 857.809,1594.68 857.809,1599.78 C857.809,1601.18 858.009,1602.48 858.709,1603.68 C860.209,1606.38 863.209,1608.08 867.109,1608.48 C867.709,1608.58 868.209,1608.58 868.809,1608.58 C872.309,1608.58 876.009,1607.58 879.509,1605.68 C886.109,1602.08 890.309,1596.28 890.309,1591.18 C890.309,1589.78 890.009,1588.38 889.309,1587.18"/>
<path class="Note" d="M1076.63,1599.68 C1075.13,1596.98 1072.23,1595.28 1068.33,1594.88 C1067.73,1594.78 1067.23,1594.78 1066.63,1594.78 C1063.13,1594.78 1059.33,1595.78 1055.83,1597.68 C1049.23,1601.28 1045.13,1607.18 1045.13,1612.28 C1045.13,1613.68 1045.33,1614.98 1046.03,1616.18 C1047.53,1618.88 1050.53,1620.58 1054.43,1620.98 C1055.03,1621.08 1055.53,1621.08 1056.13,1621.08 C1059.63,1621.08 1063.33,1620.08 1066.83,1618.18 C1073.43,1614.58 1077.63,1608.78 1077.63,1603.68 C1077.63,1602.28 1077.33,1600.88 1076.63,1599.68"/>
<path class="Note" d="M1208.48,1612.18 C1206.98,1609.48 1204.08,1607.78 1200.18,1607.38 C1199.58,1607.28 1199.08,1607.28 1198.48,1607.28 C1194.98,1607.28 1191.18,1608.28 1187.68,1610.18 C1181.08,1613.78 1176.98,1619.68 1176.98,1624.78 C1176.98,1626.18 1177.18,1627.48 1177.88,1628.68 C1179.38,1631.38 1182.38,1633.08 1186.28,1633.48 C1186.88,1633.58 1187.38,1633.58 1187.98,1633.58 C1191.48,1633.58 1195.18,1632.58 1198.68,1630.68 C1205.28,1627.08 1209.48,1621.28 1209.48,1616.18 C1209.48,1614.78 1209.18,1613.38 1208.48,1612.18"/>
<path class="Note" d="M1340.34,1624.68 C1338.84,1621.98 1335.94,1620.28 1332.04,1619.88 C1331.44,1619.78 1330.94,1619.78 1330.34,1619.78 C1326.84,1619.78 1323.04,1620.78 1319.54,1622.68 C1312.94,1626.28 1308.84,1632.18 1308.84,1637.28 C1308.84,1638.68 1309.04,1639.98 1309.74,1641.18 C1311.24,1643.88 1314.24,1645.58 1318.14,1645.98 C1318.74,1646.08 1319.24,1646.08 1319.84,1646.08 C1323.34,1646.08 1327.04,1645.08 1330.54,1643.18 C1337.14,1639.58 1341.34,1633.78 1341.34,1628.68 C1341.34,1627.28 1341.04,1625.88 1340.34,1624.68"/>
<path class="Note" d="M1472.19,1637.18 C1470.69,1634.48 1467.79,1632.78 1463.89,1632.38 C1463.29,1632.28 1462.79,1632.28 1462.19,1632.28 C1458.69,1632.28 1454.89,1633.28 1451.39,1635.18 C1444.79,1638.78 1440.69,1644.68 1440.69,1649.78 C1440.69,1651.18 1440.89,1652.48 1441.59,1653.68 C1443.09,1656.38 1446.09,1658.08 1449.99,1658.48 C1450.59,1658.58 1451.09,1658.58 1451.69,1658.58 C1455.19,1658.58 1458.89,1657.58 1462.39,1655.68 C1468.99,1652.08 1473.19,1646.28 1473.19,1641.18 C1473.19,1639.78 1472.89,1638.38 1472.19,1637.18"/>
<path class="Note" d="M1754,1499.67 C1752.5,1496.97 1749.6,1495.27 1745.7,1494.87 C1745.1,1494.77 1744.6,1494.77 1744,1494.77 C1740.5,1494.77 1736.7,1495.77 1733.2,1497.67 C1726.6,1501.27 1722.5,1507.17 1722.5,1512.27 C1722.5,1513.67 1722.7,1514.97 1723.4,1516.17 C1724.9,1518.87 1727.9,1520.57 1731.8,1520.97 C1732.4,1521.07 1732.9,1521.07 1733.5,1521.07 C1737,1521.07 1740.7,1520.07 1744.2,1518.17 C1750.8,1514.57 1755,1508.77 1755,1503.67 C1755,1502.27 1754.7,1500.87 1754,1499.67"/>
<path class="Note" d="M1883.23,1512.17 C1881.73,1509.47 1878.83,1507.77 1874.93,1507.37 C1874.33,1507.27 1873.83,1507.27 1873.23,1507.27 C1869.73,1507.27 1865.93,1508.27 1862.43,1510.17 C1855.83,1513.77 1851.73,1519.67 1851.73,1524.77 C1851.73,1526.17 1851.93,1527.47 1852.63,1528.67 C1854.13,1531.37 1857.13,1533.07 1861.03,1533.47 C1861.63,1533.57 1862.13,1533.57 1862.73,1533.57 C1866.23,1533.57 1869.93,1532.57 1873.43,1530.67 C1880.03,1527.07 1884.23,1521.27 1884.23,1516.17 C1884.23,1514.77 1883.93,1513.37 1883.23,1512.17"/>
<path class="Note" d="M2012.46,1524.67 C2010.96,1521.97 2008.06,1520.27 2004.16,1519.87 C2003.56,1519.77 2003.06,1519.77 2002.46,1519.77 C1998.96,1519.77 1995.16,1520.77 1991.66,1522.67 C1985.06,1526.27 1980.96,1532.17 1980.96,1537.27 C1980.96,1538.67 1981.16,1539.97 1981.86,1541.17 C1983.36,1543.87 1986.36,1545.57 1990.26,1545.97 C1990.86,1546.07 1991.36,1546.07 1991.96,1546.07 C1995.46,1546.07 1999.16,1545.07 2002.66,1543.17 C2009.26,1539.57 2013.46,1533.77 2013.46,1528.67 C2013.46,1527.27 2013.16,1525.87 2012.46,1524.67"/>
<path class="Note" d="M2141.69,1537.17 C2140.19,1534.47 2137.29,1532.77 2133.39,1532.37 C2132.79,1532.27 2132.29,1532.27 2131.69,1532.27 C2128.19,1532.27 2124.39,1533.27 2120.89,1535.17 C2114.29,1538.77 2110.19,1544.67 2110.19,1549.77 C2110.19,1551.17 2110.39,1552.47 2111.09,1553.67 C2112.59,1556.37 2115.59,1558.07 2119.49,1558.47 C2120.09,1558.57 2120.59,1558.57 2121.19,1558.57 C2124.69,1558.57 2128.39,1557.57 2131.89,1555.67 C2138.49,1552.07 2142.69,1546.27 2142.69,1541.17 C2142.69,1539.77 2142.39,1538.37 2141.69,1537.17"/>
<path class="Note" d="M2307.92,1549.67 C2306.42,1546.97 2303.52,1545.27 2299.62,1544.87 C2299.02,1544.77 2298.52,1544.77 2297.92,1544.77 C2294.42,1544.77 2290.62,1545.77 2287.12,1547.67 C2280.52,1551.27 2276.42,1557.17 2276.42,1562.27 C2276.42,1563.67 2276.62,1564.97 2277.32,1566.17 C2278.82,1568.87 2281.82,1570.57 2285.72,1570.97 C2286.32,1571.07 2286.82,1571.07 2287.42,1571.07 C2290.92,1571.07 2294.62,1570.07 2298.12,1568.17 C2304.72,1564.57 2308.92,1558.77 2308.92,1553.67 C2308.92,1552.27 2308.62,1550.87 2307.92,1549.67"/>
<path class="Note" d="M2462.52,1562.18 C2461.02,1559.48 2458.12,1557.78 2454.22,1557.38 C2453.62,1557.28 2453.12,1557.28 2452.52,1557.28 C2449.02,1557.28 2445.22,1558.28 2441.72,1560.18 C2435.12,1563.78 2431.02,1569.58 2431.02,1574.68 C2431.02,1576.08 2431.42,1577.48 2432.12,1578.68 C2433.62,1581.48 2436.42,1583.08 2440.32,1583.48 C2440.92,1583.58 2441.42,1583.58 2442.02,1583.58 C2445.52,1583.58 2449.32,1582.58 2452.82,1580.68 C2459.42,1577.08 2463.52,1571.18 2463.52,1566.08 C2463.52,1564.68 2463.22,1563.38 2462.52,1562.18 M2458.32,1568.48 C2456.62,1570.28 2453.42,1572.58 2449.82,1574.68 C2446.22,1576.78 2442.52,1578.48 2440.22,1579.18 C2439.72,1579.28 2439.12,1579.38 2438.62,1579.38 C2437.12,1579.38 2435.82,1578.68 2435.12,1577.58 C2434.82,1576.98 2434.62,1576.38 2434.62,1575.78 C2434.62,1574.68 2435.12,1573.58 2436.22,1572.38 C2437.92,1570.58 2441.12,1568.18 2444.72,1566.08 C2448.32,1563.98 2452.02,1562.28 2454.42,1561.68 L2454.62,1561.68 C2455.22,1561.48 2455.72,1561.38 2456.22,1561.38 C2457.62,1561.38 2458.72,1561.98 2459.42,1563.28 C2459.72,1563.88 2459.92,1564.38 2459.92,1564.98 C2459.92,1566.28 2459.22,1567.58 2458.32,1568.48"/>
<path class="Note" d="M486.502,749.624 C485.002,746.924 482.102,745.224 478.202,744.824 C477.602,744.724 477.102,744.724 476.502,744.724 C473.002,744.724 469.202,745.724 465.702,747.624 C459.102,751.224 455.002,757.124 455.002,762.224 C455.002,763.624 455.202,764.924 455.902,766.124 C457.402,768.824 460.402,770.524 464.302,770.924 C464.902,771.024 465.402,771.024 466.002,771.024 C469.502,771.024 473.202,770.024 476.702,768.124 C483.302,764.524 487.502,758.724 487.502,753.624 C487.502,752.224 487.202,750.824 486.502,749.624"/>
<path class="Note" d="M611.915,737.124 C610.415,734.424 607.515,732.724 603.615,732.324 C603.015,732.224 602.515,732.224 601.915,732.224 C598.415,732.224 594.615,733.224 591.115,735.124 C584.515,738.724 580.415,744.624 580.415,749.724 C580.415,751.124 580.615,752.424 581.315,753.624 C582.815,756.324 585.815,758.024 589.715,758.424 C590.315,758.524 590.815,758.524 591.415,758.524 C594.915,758.524 598.615,757.524 602.115,755.624 C608.715,752.024 612.915,746.224 612.915,741.124 C612.915,739.724 612.615,738.324 611.915,737.124"/>
<path class="Note" d="M737.328,724.623 C735.828,721.923 732.928,720.223 729.028,719.823 C728.428,719.723 727.928,719.723 727.328,719.723 C723.828,719.723 720.028,720.723 716.528,722.623 C709.928,726.223 705.828,732.123 705.828,737.223 C705.828,738.623 706.028,739.923 706.728,741.123 C708.228,743.823 711.228,745.523 715.128,745.923 C715.728,746.023 716.228,746.023 716.828,746.023 C720.328,746.023 724.028,745.023 727.528,743.123 C734.128,739.523 738.328,733.723 738.328,728.623 C738.328,727.223 738.028,725.823 737.328,724.623"/>
<path class="Note" d="M862.741,712.122 C861.241,709.422 858.341,707.722 854.441,707.322 C853.841,707.222 853.341,707.222 852.741,707.222 C849.241,707.222 845.441,708.222 841.941,710.122 C835.341,713.722 831.241,719.622 831.241,724.722 C831.241,726.122 831.441,727.422 832.141,728.622 C833.641,731.322 836.641,733.022 840.541,733.422 C841.141,733.522 841.641,733.522 842.241,733.522 C845.741,733.522 849.441,732.522 852.941,730.622 C859.541,727.022 863.741,721.222 863.741,716.122 C863.741,714.722 863.441,713.322 862.741,712.122"/>
<path class="Note" d="M1025.16,699.621 C1023.66,696.921 1020.76,695.221 1016.86,694.821 C1016.26,694.721 1015.76,694.721 1015.16,694.721 C1011.66,694.721 1007.86,695.721 1004.36,697.621 C997.756,701.221 993.656,707.121 993.656,712.221 C993.656,713.621 993.856,714.921 994.556,716.121 C996.056,718.821 999.056,720.521 1002.96,720.921 C1003.56,721.021 1004.06,721.021 1004.66,721.021 C1008.16,721.021 1011.86,720.021 1015.36,718.121 C1021.96,714.521 1026.16,708.721 1026.16,703.621 C1026.16,702.221 1025.86,700.821 1025.16,699.621"/>
<path class="Note" d="M1168.06,687.12 C1166.56,684.42 1163.66,682.72 1159.76,682.32 C1159.16,682.22 1158.66,682.22 1158.06,682.22 C1154.56,682.22 1150.76,683.22 1147.26,685.12 C1140.66,688.72 1136.56,694.62 1136.56,699.72 C1136.56,701.12 1136.76,702.42 1137.46,703.62 C1138.96,706.32 1141.96,708.02 1145.86,708.42 C1146.46,708.52 1146.96,708.52 1147.56,708.52 C1151.06,708.52 1154.76,707.52 1158.26,705.62 C1164.86,702.02 1169.06,696.22 1169.06,691.12 C1169.06,689.72 1168.76,688.32 1168.06,687.12"/>
<path class="Note" d="M1310.96,674.62 C1309.46,671.92 1306.56,670.22 1302.66,669.82 C1302.06,669.72 1301.56,669.72 1300.96,669.72 C1297.46,669.72 1293.66,670.72 1290.16,672.62 C1283.56,676.22 1279.46,682.12 1279.46,687.22 C1279.46,688.62 1279.66,689.92 1280.36,691.12 C1281.86,693.82 1284.86,695.52 1288.76,695.92 C1289.36,696.02 1289.86,696.02 1290.46,696.02 C1293.96,696.02 1297.66,695.02 1301.16,693.12 C1307.76,689.52 1311.96,683.72 1311.96,678.62 C1311.96,677.22 1311.66,675.82 1310.96,674.62"/>
<path class="Note" d="M1453.86,662.119 C1452.36,659.419 1449.46,657.719 1445.56,657.319 C1444.96,657.219 1444.46,657.219 1443.86,657.219 C1440.36,657.219 1436.56,658.219 1433.06,660.119 C1426.46,663.719 1422.36,669.619 1422.36,674.719 C1422.36,676.119 1422.56,677.419 1423.26,678.619 C1424.76,681.319 1427.76,683.019 1431.66,683.419 C1432.26,683.519 1432.76,683.519 1433.36,683.519 C1436.86,683.519 1440.56,682.519 1444.06,680.619 C1450.66,677.019 1454.86,671.219 1454.86,666.119 C1454.86,664.719 1454.56,663.319 1453.86,662.119"/>
<path class="Note" d="M1717.77,649.618 C1716.27,646.918 1713.37,645.218 1709.47,644.818 C1708.87,644.718 1708.37,644.718 1707.77,644.718 C1704.27,644.718 1700.47,645.718 1696.97,647.618 C1690.37,651.218 1686.27,657.118 1686.27,662.218 C1686.27,663.618 1686.47,664.918 1687.17,666.118 C1688.67,668.818 1691.67,670.518 1695.57,670.918 C1696.17,671.018 1696.67,671.018 1697.27,671.018 C1700.77,671.018 1704.47,670.018 1707.97,668.118 C1714.57,664.518 1718.77,658.718 1718.77,653.618 C1718.77,652.218 1718.47,650.818 1717.77,649.618"/>
<path class="Note" d="M1845.81,637.117 C1844.31,634.417 1841.41,632.717 1837.51,632.317 C1836.91,632.217 1836.41,632.217 1835.81,632.217 C1832.31,632.217 1828.51,633.217 1825.01,635.117 C1818.41,638.717 1814.31,644.617 1814.31,649.717 C1814.31,651.117 1814.51,652.417 1815.21,653.617 C1816.71,656.317 1819.71,658.017 1823.61,658.417 C1824.21,658.517 1824.71,658.517 1825.31,658.517 C1828.81,658.517 1832.51,657.517 1836.01,655.617 C1842.61,652.017 1846.81,646.217 1846.81,641.117 C1846.81,639.717 1846.51,638.317 1845.81,637.117"/>
<path class="Note" d="M1973.84,624.616 C1972.34,621.916 1969.44,620.216 1965.54,619.816 C1964.94,619.716 1964.44,619.716 1963.84,619.716 C1960.34,619.716 1956.54,620.716 1953.04,622.616 C1946.44,626.216 1942.34,632.116 1942.34,637.216 C1942.34,638.616 1942.54,639.916 1943.24,641.116 C1944.74,643.816 1947.74,645.516 1951.64,645.916 C1952.24,646.016 1952.74,646.016 1953.34,646.016 C1956.84,646.016 1960.54,645.016 1964.04,643.116 C1970.64,639.516 1974.84,633.716 1974.84,628.616 C1974.84,627.216 1974.54,625.816 1973.84,624.616"/>
<path class="Note" d="M2101.88,612.116 C2100.38,609.416 2097.48,607.716 2093.58,607.316 C2092.98,607.216 2092.48,607.216 2091.88,607.216 C2088.38,607.216 2084.58,608.216 2081.08,610.116 C2074.48,613.716 2070.38,619.616 2070.38,624.716 C2070.38,626.116 2070.58,627.416 2071.28,628.616 C2072.78,631.316 2075.78,633.016 2079.68,633.416 C2080.28,633.516 2080.78,633.516 2081.38,633.516 C2084.88,633.516 2088.58,632.516 2092.08,630.616 C2098.68,627.016 2102.88,621.216 2102.88,616.116 C2102.88,614.716 2102.58,613.316 2101.88,612.116"/>
<path class="Note" d="M2291.47,599.615 C2289.97,596.915 2287.07,595.215 2283.17,594.815 C2282.57,594.715 2282.07,594.715 2281.47,594.715 C2277.97,594.715 2274.17,595.715 2270.67,597.615 C2264.07,601.215 2259.97,607.115 2259.97,612.215 C2259.97,613.615 2260.17,614.915 2260.87,616.115 C2262.37,618.815 2265.37,620.515 2269.27,620.915 C2269.87,621.015 2270.37,621.015 2270.97,621.015 C2274.47,621.015 2278.17,620.015 2281.67,618.115 C2288.27,614.515 2292.47,608.715 2292.47,603.615 C2292.47,602.215 2292.17,600.815 2291.47,599.615"/>
<path class="Note" d="M2430.4,587.114 C2428.9,584.414 2426,582.714 2422.1,582.314 C2421.5,582.214 2421,582.214 2420.4,582.214 C2416.9,582.214 2413.1,583.214 2409.6,585.114 C2403,588.714 2398.9,594.614 2398.9,599.714 C2398.9,601.114 2399.1,602.414 2399.8,603.614 C2401.3,606.314 2404.3,608.014 2408.2,608.414 C2408.8,608.514 2409.3,608.514 2409.9,608.514 C2413.4,608.514 2417.1,607.514 2420.6,605.614 C2427.2,602.014 2431.4,596.214 2431.4,591.114 C2431.4,589.714 2431.1,588.314 2430.4,587.114"/>
<path class="Note" d="M2569.34,574.613 C2567.84,571.913 2564.94,570.213 2561.04,569.813 C2560.44,569.713 2559.94,569.713 2559.34,569.713 C2555.84,569.713 2552.04,570.713 2548.54,572.613 C2541.94,576.213 2537.84,582.013 2537.84,587.113 C2537.84,588.513 2538.24,589.913 2538.94,591.113 C2540.44,593.913 2543.24,595.513 2547.14,595.913 C2547.74,596.013 2548.24,596.013 2548.84,596.013 C2552.34,596.013 2556.14,595.013 2559.64,593.113 C2566.24,589.513 2570.34,583.613 2570.34,578.513 C2570.34,577.113 2570.04,575.813 2569.34,574.613 M2565.14,580.913 C2563.44,582.713 2560.24,585.013 2556.64,587.113 C2553.04,589.213 2549.34,590.913 2547.04,591.613 C2546.54,591.713 2545.94,591.813 2545.44,591.813 C2543.94,591.813 2542.64,591.113 2541.94,590.013 C2541.64,589.413 2541.44,588.813 2541.44,588.213 C2541.44,587.113 2541.94,586.013 2543.04,584.813 C2544.74,583.013 2547.94,580.613 2551.54,578.513 C2555.14,576.413 2558.84,574.713 2561.24,574.113 L2561.44,574.113 C2562.04,573.913 2562.54,573.813 2563.04,573.813 C2564.44,573.813 2565.54,574.413 2566.24,575.713 C2566.54,576.313 2566.74,576.813 2566.74,577.413 C2566.74,578.713 2566.04,580.013 2565.14,580.913"/>
<path class="Note" d="M438.351,1199.65 C436.851,1196.95 433.951,1195.25 430.051,1194.85 C429.451,1194.75 428.951,1194.75 428.351,1194.75 C424.851,1194.75 421.051,1195.75 417.551,1197.65 C410.951,1201.25 406.851,1207.15 406.851,1212.25 C406.851,1213.65 407.051,1214.95 407.751,1216.15 C409.251,1218.85 412.251,1220.55 416.151,1220.95 C416.751,1221.05 417.251,1221.05 417.851,1221.05 C421.351,1221.05 425.051,1220.05 428.551,1218.15 C435.151,1214.55 439.351,1208.75 439.351,1203.65 C439.351,1202.25 439.051,1200.85 438.351,1199.65"/>
<path class="Note" d="M588.67,1212.15 C587.17,1209.45 584.27,1207.75 580.37,1207.35 C579.77,1207.25 579.27,1207.25 578.67,1207.25 C575.17,1207.25 571.37,1208.25 567.87,1210.15 C561.27,1213.75 557.17,1219.65 557.17,1224.75 C557.17,1226.15 557.37,1227.45 558.07,1228.65 C559.57,1231.35 562.57,1233.05 566.47,1233.45 C567.07,1233.55 567.57,1233.55 568.17,1233.55 C571.67,1233.55 575.37,1232.55 578.87,1230.65 C585.47,1227.05 589.67,1221.25 589.67,1216.15 C589.67,1214.75 589.37,1213.35 588.67,1212.15"/>
<path class="Note" d="M738.99,1224.65 C737.49,1221.95 734.59,1220.25 730.69,1219.85 C730.09,1219.75 729.59,1219.75 728.99,1219.75 C725.49,1219.75 721.69,1220.75 718.19,1222.65 C711.59,1226.25 707.49,1232.15 707.49,1237.25 C707.49,1238.65 707.69,1239.95 708.39,1241.15 C709.89,1243.85 712.89,1245.55 716.79,1245.95 C717.39,1246.05 717.89,1246.05 718.49,1246.05 C721.99,1246.05 725.69,1245.05 729.19,1243.15 C735.79,1239.55 739.99,1233.75 739.99,1228.65 C739.99,1227.25 739.69,1225.85 738.99,1224.65"/>
<path class="Note" d="M889.309,1237.16 C887.809,1234.46 884.909,1232.76 881.009,1232.36 C880.409,1232.26 879.909,1232.26 879.309,1232.26 C875.809,1232.26 872.009,1233.26 868.509,1235.16 C861.909,1238.76 857.809,1244.66 857.809,1249.76 C857.809,1251.16 858.009,1252.46 858.709,1253.66 C860.209,1256.36 863.209,1258.06 867.109,1258.46 C867.709,1258.56 868.209,1258.56 868.809,1258.56 C872.309,1258.56 876.009,1257.56 879.509,1255.66 C886.109,1252.06 890.309,1246.26 890.309,1241.16 C890.309,1239.76 890.009,1238.36 889.309,1237.16"/>
<path class="Note" d="M1076.63,1249.66 C1075.13,1246.96 1072.23,1245.26 1068.33,1244.86 C1067.73,1244.76 1067.23,1244.76 1066.63,1244.76 C1063.13,1244.76 1059.33,1245.76 1055.83,1247.66 C1049.23,1251.26 1045.13,1257.16 1045.13,1262.26 C1045.13,1263.66 1045.33,1264.96 1046.03,1266.16 C1047.53,1268.86 1050.53,1270.56 1054.43,1270.96 C1055.03,1271.06 1055.53,1271.06 1056.13,1271.06 C1059.63,1271.06 1063.33,1270.06 1066.83,1268.16 C1073.43,1264.56 1077.63,1258.76 1077.63,1253.66 C1077.63,1252.26 1077.33,1250.86 1076.63,1249.66"/>
<path class="Note" d="M1208.48,1262.16 C1206.98,1259.46 1204.08,1257.76 1200.18,1257.36 C1199.58,1257.26 1199.08,1257.26 1198.48,1257.26 C1194.98,1257.26 1191.18,1258.26 1187.68,1260.16 C1181.08,1263.76 1176.98,1269.66 1176.98,1274.76 C1176.98,1276.16 1177.18,1277.46 1177.88,1278.66 C1179.38,1281.36 1182.38,1283.06 1186.28,1283.46 C1186.88,1283.56 1187.38,1283.56 1187.98,1283.56 C1191.48,1283.56 1195.18,1282.56 1198.68,1280.66 C1205.28,1277.06 1209.48,1271.26 1209.48,1266.16 C1209.48,1264.76 1209.18,1263.36 1208.48,1262.16"/>
<path class="Note" d="M1340.34,1274.66 C1338.84,1271.96 1335.94,1270.26 1332.04,1269.86 C1331.44,1269.76 1330.94,1269.76 1330.34,1269.76 C1326.84,1269.76 1323.04,1270.76 1319.54,1272.66 C1312.94,1276.26 1308.84,1282.16 1308.84,1287.26 C1308.84,1288.66 1309.04,1289.96 1309.74,1291.16 C1311.24,1293.86 1314.24,1295.56 1318.14,1295.96 C1318.74,1296.06 1319.24,1296.06 1319.84,1296.06 C1323.34,1296.06 1327.04,1295.06 1330.54,1293.16 C1337.14,1289.56 1341.34,1283.76 1341.34,1278.66 C1341.34,1277.26 1341.04,1275.86 1340.34,1274.66"/>
<path class="Note" d="M1472.19,1287.16 C1470.69,1284.46 1467.79,1282.76 1463.89,1282.36 C1463.29,1282.26 1462.79,1282.26 1462.19,1282.26 C1458.69,1282.26 1454.89,1283.26 1451.39,1285.16 C1444.79,1288.76 1440.69,1294.66 1440.69,1299.76 C1440.69,1301.16 1440.89,1302.46 1441.59,1303.66 C1443.09,1306.36 1446.09,1308.06 1449.99,1308.46 C1450.59,1308.56 1451.09,1308.56 1451.69,1308.56 C1455.19,1308.56 1458.89,1307.56 1462.39,1305.66 C1468.99,1302.06 1473.19,1296.26 1473.19,1291.16 C1473.19,1289.76 1472.89,1288.36 1472.19,1287.16"/>
<path class="Note" d="M1754,1299.66 C1752.5,1296.96 1749.6,1295.26 1745.7,1294.86 C1745.1,1294.76 1744.6,1294.76 1744,1294.76 C1740.5,1294.76 1736.7,1295.76 1733.2,1297.66 C1726.6,1301.26 1722.5,1307.16 1722.5,1312.26 C1722.5,1313.66 1722.7,1314.96 1723.4,1316.16 C1724.9,1318.86 1727.9,1320.56 1731.8,1320.96 C1732.4,1321.06 1732.9,1321.06 1733.5,1321.06 C1737,1321.06 1740.7,1320.06 1744.2,1318.16 C1750.8,1314.56 1755,1308.76 1755,1303.66 C1755,1302.26 1754.7,1300.86 1754,1299.66"/>
<path class="Note" d="M1883.23,1312.16 C1881.73,1309.46 1878.83,1307.76 1874.93,1307.36 C1874.33,1307.26 1873.83,1307.26 1873.23,1307.26 C1869.73,1307.26 1865.93,1308.26 1862.43,1310.16 C1855.83,1313.76 1851.73,1319.66 1851.73,1324.76 C1851.73,1326.16 1851.93,1327.46 1852.63,1328.66 C1854.13,1331.36 1857.13,1333.06 1861.03,1333.46 C1861.63,1333.56 1862.13,1333.56 1862.73,1333.56 C1866.23,1333.56 1869.93,1332.56 1873.43,1330.66 C1880.03,1327.06 1884.23,1321.26 1884.23,1316.16 C1884.23,1314.76 1883.93,1313.36 1883.23,1312.16"/>
<path class="Note" d="M2012.46,1324.66 C2010.96,1321.96 2008.06,1320.26 2004.16,1319.86 C2003.56,1319.76 2003.06,1319.76 2002.46,1319.76 C1998.96,1319.76 1995.16,1320.76 1991.66,1322.66 C1985.06,1326.26 1980.96,1332.16 1980.96,1337.26 C1980.96,1338.66 1981.16,1339.96 1981.86,1341.16 C1983.36,1343.86 1986.36,1345.56 1990.26,1345.96 C1990.86,1346.06 1991.36,1346.06 1991.96,1346.06 C1995.46,1346.06 1999.16,1345.06 2002.66,1343.16 C2009.26,1339.56 2013.46,1333.76 2013.46,1328.66 C2013.46,1327.26 2013.16,1325.86 2012.46,1324.66"/>
<path class="Note" d="M2141.69,1337.16 C2140.19,1334.46 2137.29,1332.76 2133.39,1332.36 C2132.79,1332.26 2132.29,1332.26 2131.69,1332.26 C2128.19,1332.26 2124.39,1333.26 2120.89,1335.16 C2114.29,1338.76 2110.19,1344.66 2110.19,1349.76 C2110.19,1351.16 2110.39,1352.46 2111.09,1353.66 C2112.59,1356.36 2115.59,1358.06 2119.49,1358.46 C2120.09,1358.56 2120.59,1358.56 2121.19,1358.56 C2124.69,1358.56 2128.39,1357.56 2131.89,1355.66 C2138.49,1352.06 2142.69,1346.26 2142.69,1341.16 C2142.69,1339.76 2142.39,1338.36 2141.69,1337.16"/>
<path class="Note" d="M2307.92,1349.66 C2306.42,1346.96 2303.52,1345.26 2299.62,1344.86 C2299.02,1344.76 2298.52,1344.76 2297.92,1344.76 C2294.42,1344.76 2290.62,1345.76 2287.12,1347.66 C2280.52,1351.26 2276.42,1357.16 2276.42,1362.26 C2276.42,1363.66 2276.62,1364.96 2277.32,1366.16 C2278.82,1368.86 2281.82,1370.56 2285.72,1370.96 C2286.32,1371.06 2286.82,1371.06 2287.42,1371.06 C2290.92,1371.06 2294.62,1370.06 2298.12,1368.16 C2304.72,1364.56 2308.92,1358.76 2308.92,1353.66 C2308.92,1352.26 2308.62,1350.86 2307.92,1349.66"/>
<path class="Note" d="M2462.52,1362.16 C2461.02,1359.46 2458.12,1357.76 2454.22,1357.36 C2453.62,1357.26 2453.12,1357.26 2452.52,1357.26 C2449.02,1357.26 2445.22,1358.26 2441.72,1360.16 C2435.12,1363.76 2431.02,1369.56 2431.02,1374.66 C2431.02,1376.06 2431.42,1377.46 2432.12,1378.66 C2433.62,1381.46 2436.42,1383.06 2440.32,1383.46 C2440.92,1383.56 2441.42,1383.56 2442.02,1383.56 C2445.52,1383.56 2449.32,1382.56 2452.82,1380.66 C2459.42,1377.06 2463.52,1371.16 2463.52,1366.06 C2463.52,1364.66 2463.22,1363.36 2462.52,1362.16 M2458.32,1368.46 C2456.62,1370.26 2453.42,1372.56 2449.82,1374.66 C2446.22,1376.76 2442.52,1378.46 2440.22,1379.16 C2439.72,1379.26 2439.12,1379.36 2438.62,1379.36 C2437.12,1379.36 2435.82,1378.66 2435.12,1377.56 C2434.82,1376.96 2434.62,1376.36 2434.62,1375.76 C2434.62,1374.66 2435.12,1373.56 2436.22,1372.36 C2437.92,1370.56 2441.12,1368.16 2444.72,1366.06 C2448.32,1363.96 2452.02,1362.26 2454.42,1361.66 L2454.62,1361.66 C2455.22,1361.46 2455.72,1361.36 2456.22,1361.36 C2457.62,1361.36 2458.72,1361.96 2459.42,1363.26 C2459.72,1363.86 2459.92,1364.36 2459.92,1364.96 C2459.92,1366.26 2459.22,1367.56 2458.32,1368.46"/>
<path class="Clef" d="M297,907.735 C289.4,907.735 283.3,912.135 283.2,912.135 C277.4,916.435 275.1,921.535 274.2,925.035 C273.7,926.835 273.5,928.635 273.5,930.335 C273.5,932.735 273.9,934.935 274.8,936.835 C276,939.535 278.3,941.435 281.3,942.435 C282.5,942.835 283.8,943.035 285.1,943.035 C287.3,943.035 289.6,942.435 291.5,941.335 C294.6,939.635 296.5,936.035 296.5,932.135 C296.5,928.635 294.7,925.435 291.7,923.535 C289.6,922.135 287.6,921.735 285.9,921.735 C284.7,921.735 283.6,921.935 282.7,922.235 C281.7,922.635 280,923.635 279.2,924.335 C279.5,922.435 280.7,919.535 281.8,917.935 C282.9,916.335 285.1,914.335 286.8,913.435 C289.3,912.035 292.5,911.435 296,911.435 C306.2,911.435 311.2,919.635 311.2,936.435 C311.2,945.735 307.7,954.635 304.7,960.535 C301.4,967.135 297,973.435 293.1,976.935 C282.7,986.435 272.9,990.935 272.8,990.935 C272.8,990.935 271.3,991.835 271.7,993.335 C272,994.335 272.9,994.535 273.5,994.535 C273.6,994.535 273.9,994.435 274,994.435 C274.1,994.435 285.5,989.735 294.6,982.635 C299.7,978.935 304.3,974.935 308.3,970.635 C311.9,966.735 315,962.535 317.5,958.335 C321.9,950.835 324.4,943.035 324.4,936.335 C324.4,928.035 322.2,921.135 318.1,916.235 C313.4,910.635 306.3,907.735 297,907.735 M328.4,920.435 C328.4,923.235 330.6,925.435 333.2,925.435 C335.8,925.435 338,923.235 338,920.435 C338,917.635 335.8,915.335 333.2,915.335 C330.6,915.335 328.4,917.635 328.4,920.435 M328.4,945.135 C328.4,947.935 330.6,950.235 333.2,950.235 C335.8,950.235 338,947.935 338,945.135 C338,942.335 335.8,940.035 333.2,940.035 C330.6,940.035 328.4,942.335 328.4,945.135"/>
<path class="Clef" d="M1653.17,976.939 C1651.97,971.539 1649.27,967.639 1648.47,966.639 C1645.27,962.339 1641.27,959.539 1636.57,958.139 C1634.27,957.439 1632.17,957.239 1630.17,957.239 C1629.47,957.239 1628.77,957.239 1628.07,957.339 C1627.07,951.339 1625.97,945.439 1625.07,940.039 C1630.67,933.839 1634.37,927.939 1636.77,923.539 C1640.37,916.839 1641.77,912.139 1641.87,911.939 C1643.07,908.939 1643.77,905.139 1643.77,900.639 C1643.77,897.939 1643.47,895.039 1643.07,892.039 C1641.97,884.939 1639.77,878.239 1637.27,874.539 C1635.97,872.639 1634.77,871.539 1633.57,871.539 C1632.37,871.539 1629.87,872.739 1626.97,875.539 C1624.67,877.739 1621.37,881.639 1618.77,887.639 C1616.47,893.039 1615.77,899.939 1615.77,905.839 C1615.77,907.639 1615.87,909.339 1615.97,910.939 C1616.17,914.539 1616.87,920.339 1617.47,923.939 C1617.47,924.039 1617.77,925.539 1618.17,928.139 L1617.47,928.839 C1616.47,929.839 1615.27,930.939 1613.87,932.339 C1612.97,933.239 1612.07,934.039 1611.07,935.039 C1602.57,943.239 1589.77,955.639 1589.77,974.739 C1589.77,979.439 1590.67,983.839 1592.47,987.839 C1594.07,991.439 1596.37,994.739 1599.27,997.639 C1606.77,1005.04 1616.97,1008.24 1624.07,1008.24 L1624.67,1008.24 C1627.57,1008.14 1630.27,1007.84 1632.67,1007.44 C1634.47,1017.04 1635.67,1024.14 1635.67,1029.44 C1635.67,1035.94 1634.07,1039.84 1630.17,1042.64 C1627.77,1044.34 1624.87,1045.44 1621.77,1045.54 L1620.97,1045.54 C1619.47,1045.54 1616.97,1045.14 1615.47,1044.74 C1615.47,1044.74 1615.17,1044.64 1615.17,1044.44 C1615.17,1044.24 1615.57,1044.24 1615.57,1044.24 C1617.47,1043.84 1621.07,1042.54 1623.47,1039.24 C1624.57,1037.74 1625.27,1035.44 1625.27,1032.94 C1625.27,1031.34 1624.97,1029.64 1624.27,1028.14 C1623.17,1025.74 1620.57,1022.74 1614.97,1022.34 L1613.87,1022.34 C1611.77,1022.34 1609.97,1022.84 1608.27,1023.84 C1606.47,1024.94 1604.87,1026.64 1603.87,1028.64 C1602.77,1030.64 1602.27,1032.84 1602.27,1035.04 C1602.27,1037.94 1603.17,1040.64 1604.97,1042.84 C1607.97,1046.44 1612.67,1048.74 1618.07,1049.34 C1618.77,1049.44 1619.87,1049.54 1620.57,1049.54 C1624.97,1049.54 1629.37,1048.34 1632.97,1046.14 C1636.67,1043.54 1638.77,1039.54 1639.47,1033.94 C1639.67,1032.64 1639.67,1031.24 1639.67,1029.74 C1639.67,1025.84 1639.17,1021.14 1638.17,1015.34 C1637.77,1013.24 1637.37,1010.24 1636.67,1006.44 C1642.47,1004.54 1646.57,1000.84 1650.37,995.039 C1652.67,991.039 1653.77,986.939 1653.77,982.639 C1653.77,980.739 1653.57,978.839 1653.17,976.939 M1622.97,899.039 C1624.77,893.339 1627.47,889.939 1629.47,888.239 C1631.27,886.739 1632.87,886.039 1633.77,886.039 C1633.87,886.039 1634.07,886.139 1634.17,886.139 C1634.47,886.239 1634.87,886.739 1635.27,887.439 C1636.17,889.239 1637.07,892.539 1637.07,896.239 C1637.07,898.139 1636.87,900.139 1636.27,901.939 C1634.07,908.739 1629.47,916.039 1622.47,923.739 C1622.27,922.639 1622.07,921.639 1621.97,920.639 C1621.47,917.439 1621.17,914.239 1621.17,911.339 C1621.17,906.839 1621.77,902.739 1622.97,899.039 M1618.97,1003.14 C1614.37,1001.94 1609.87,999.439 1606.07,995.939 C1604.77,994.739 1602.97,992.539 1601.47,989.139 C1600.17,986.139 1599.47,983.039 1599.47,979.639 L1599.47,978.939 C1599.57,974.239 1600.87,969.439 1603.37,964.639 C1606.27,959.039 1610.77,953.539 1616.87,948.239 C1618.37,946.939 1619.77,945.639 1621.07,944.339 C1621.87,948.639 1622.57,953.339 1623.47,958.239 C1619.57,959.539 1614.87,962.539 1611.77,968.239 C1609.37,972.739 1608.67,976.639 1608.67,979.839 C1608.67,981.339 1608.87,982.739 1609.07,983.839 C1609.97,988.339 1612.57,992.039 1616.07,994.139 C1616.87,994.639 1620.17,996.339 1622.17,996.339 C1622.47,996.339 1622.77,996.339 1622.97,996.239 C1623.27,996.139 1623.57,995.939 1623.67,995.639 C1623.77,995.439 1623.77,995.239 1623.77,995.039 C1623.77,994.239 1622.97,993.639 1621.67,992.839 C1621.07,992.439 1620.37,992.039 1619.67,991.539 C1617.07,989.539 1615.57,986.439 1615.57,983.039 C1615.57,982.039 1615.77,981.139 1615.97,980.139 C1616.47,978.139 1618.17,975.339 1619.67,973.939 C1621.37,972.439 1623.37,971.239 1625.77,970.639 C1627.77,981.839 1629.87,992.939 1631.47,1001.34 C1631.57,1002.04 1631.77,1002.74 1631.87,1003.44 C1629.87,1003.84 1627.87,1004.04 1625.97,1004.04 C1623.57,1004.04 1621.27,1003.74 1618.97,1003.14 M1644.67,992.939 C1643.47,996.139 1640.97,1000.14 1635.87,1002.24 C1635.77,1001.84 1635.77,1001.34 1635.67,1000.94 C1634.17,992.139 1632.27,981.239 1630.27,969.939 L1631.27,969.939 C1640.97,969.939 1644.87,977.139 1645.77,981.739 C1645.97,982.639 1646.07,983.839 1646.07,985.139 C1646.07,987.439 1645.67,990.239 1644.67,992.939"/>
<path class="Clef" d="M335,1589.48 C333.8,1584.08 331.1,1580.18 330.3,1579.18 C327.1,1574.88 323.1,1572.08 318.4,1570.68 C316.1,1569.98 314,1569.78 312,1569.78 C311.3,1569.78 310.6,1569.78 309.9,1569.88 C308.9,1563.88 307.8,1557.98 306.9,1552.58 C312.5,1546.38 316.2,1540.48 318.6,1536.08 C322.2,1529.38 323.6,1524.68 323.7,1524.48 C324.9,1521.48 325.6,1517.68 325.6,1513.18 C325.6,1510.48 325.3,1507.58 324.9,1504.58 C323.8,1497.48 321.6,1490.78 319.1,1487.08 C317.8,1485.18 316.6,1484.08 315.4,1484.08 C314.2,1484.08 311.7,1485.28 308.8,1488.08 C306.5,1490.28 303.2,1494.18 300.6,1500.18 C298.3,1505.58 297.6,1512.48 297.6,1518.38 C297.6,1520.18 297.7,1521.88 297.8,1523.48 C298,1527.08 298.7,1532.88 299.3,1536.48 C299.3,1536.58 299.6,1538.08 300,1540.68 L299.3,1541.38 C298.3,1542.38 297.1,1543.48 295.7,1544.88 C294.8,1545.78 293.9,1546.58 292.9,1547.58 C284.4,1555.78 271.6,1568.18 271.6,1587.28 C271.6,1591.98 272.5,1596.38 274.3,1600.38 C275.9,1603.98 278.2,1607.28 281.1,1610.18 C288.6,1617.58 298.8,1620.78 305.9,1620.78 L306.5,1620.78 C309.4,1620.68 312.1,1620.38 314.5,1619.98 C316.3,1629.58 317.5,1636.68 317.5,1641.98 C317.5,1648.48 315.9,1652.38 312,1655.18 C309.6,1656.88 306.7,1657.98 303.6,1658.08 L302.8,1658.08 C301.3,1658.08 298.8,1657.68 297.3,1657.28 C297.3,1657.28 297,1657.18 297,1656.98 C297,1656.78 297.4,1656.78 297.4,1656.78 C299.3,1656.38 302.9,1655.08 305.3,1651.78 C306.4,1650.28 307.1,1647.98 307.1,1645.48 C307.1,1643.88 306.8,1642.18 306.1,1640.68 C305,1638.28 302.4,1635.28 296.8,1634.88 L295.7,1634.88 C293.6,1634.88 291.8,1635.38 290.1,1636.38 C288.3,1637.48 286.7,1639.18 285.7,1641.18 C284.6,1643.18 284.1,1645.38 284.1,1647.58 C284.1,1650.48 285,1653.18 286.8,1655.38 C289.8,1658.98 294.5,1661.28 299.9,1661.88 C300.6,1661.98 301.7,1662.08 302.4,1662.08 C306.8,1662.08 311.2,1660.88 314.8,1658.68 C318.5,1656.08 320.6,1652.08 321.3,1646.48 C321.5,1645.18 321.5,1643.78 321.5,1642.28 C321.5,1638.38 321,1633.68 320,1627.88 C319.6,1625.78 319.2,1622.78 318.5,1618.98 C324.3,1617.08 328.4,1613.38 332.2,1607.58 C334.5,1603.58 335.6,1599.48 335.6,1595.18 C335.6,1593.28 335.4,1591.38 335,1589.48 M304.8,1511.58 C306.6,1505.88 309.3,1502.48 311.3,1500.78 C313.1,1499.28 314.7,1498.58 315.6,1498.58 C315.7,1498.58 315.9,1498.68 316,1498.68 C316.3,1498.78 316.7,1499.28 317.1,1499.98 C318,1501.78 318.9,1505.08 318.9,1508.78 C318.9,1510.68 318.7,1512.68 318.1,1514.48 C315.9,1521.28 311.3,1528.58 304.3,1536.28 C304.1,1535.18 303.9,1534.18 303.8,1533.18 C303.3,1529.98 303,1526.78 303,1523.88 C303,1519.38 303.6,1515.28 304.8,1511.58 M300.8,1615.68 C296.2,1614.48 291.7,1611.98 287.9,1608.48 C286.6,1607.28 284.8,1605.08 283.3,1601.68 C282,1598.68 281.3,1595.58 281.3,1592.18 L281.3,1591.48 C281.4,1586.78 282.7,1581.98 285.2,1577.18 C288.1,1571.58 292.6,1566.08 298.7,1560.78 C300.2,1559.48 301.6,1558.18 302.9,1556.88 C303.7,1561.18 304.4,1565.88 305.3,1570.78 C301.4,1572.08 296.7,1575.08 293.6,1580.78 C291.2,1585.28 290.5,1589.18 290.5,1592.38 C290.5,1593.88 290.7,1595.28 290.9,1596.38 C291.8,1600.88 294.4,1604.58 297.9,1606.68 C298.7,1607.18 302,1608.88 304,1608.88 C304.3,1608.88 304.6,1608.88 304.8,1608.78 C305.1,1608.68 305.4,1608.48 305.5,1608.18 C305.6,1607.98 305.6,1607.78 305.6,1607.58 C305.6,1606.78 304.8,1606.18 303.5,1605.38 C302.9,1604.98 302.2,1604.58 301.5,1604.08 C298.9,1602.08 297.4,1598.98 297.4,1595.58 C297.4,1594.58 297.6,1593.68 297.8,1592.68 C298.3,1590.68 300,1587.88 301.5,1586.48 C303.2,1584.98 305.2,1583.78 307.6,1583.18 C309.6,1594.38 311.7,1605.48 313.3,1613.88 C313.4,1614.58 313.6,1615.28 313.7,1615.98 C311.7,1616.38 309.7,1616.58 307.8,1616.58 C305.4,1616.58 303.1,1616.28 300.8,1615.68 M326.5,1605.48 C325.3,1608.68 322.8,1612.68 317.7,1614.78 C317.6,1614.38 317.6,1613.88 317.5,1613.48 C316,1604.68 314.1,1593.78 312.1,1582.48 L313.1,1582.48 C322.8,1582.48 326.7,1589.68 327.6,1594.28 C327.8,1595.18 327.9,1596.38 327.9,1597.68 C327.9,1599.98 327.5,1602.78 326.5,1605.48"/>
<path class="Clef" d="M1622.45,1520.27 C1614.85,1520.27 1608.75,1524.67 1608.65,1524.67 C1602.85,1528.97 1600.55,1534.07 1599.65,1537.57 C1599.15,1539.37 1598.95,1541.17 1598.95,1542.87 C1598.95,1545.27 1599.35,1547.47 1600.25,1549.37 C1601.45,1552.07 1603.75,1553.97 1606.75,1554.97 C1607.95,1555.37 1609.25,1555.57 1610.55,1555.57 C1612.75,1555.57 1615.05,1554.97 1616.95,1553.87 C1620.05,1552.17 1621.95,1548.57 1621.95,1544.67 C1621.95,1541.17 1620.15,1537.97 1617.15,1536.07 C1615.05,1534.67 1613.05,1534.27 1611.35,1534.27 C1610.15,1534.27 1609.05,1534.47 1608.15,1534.77 C1607.15,1535.17 1605.45,1536.17 1604.65,1536.87 C1604.95,1534.97 1606.15,1532.07 1607.25,1530.47 C1608.35,1528.87 1610.55,1526.87 1612.25,1525.97 C1614.75,1524.57 1617.95,1523.97 1621.45,1523.97 C1631.65,1523.97 1636.65,1532.17 1636.65,1548.97 C1636.65,1558.27 1633.15,1567.17 1630.15,1573.07 C1626.85,1579.67 1622.45,1585.97 1618.55,1589.47 C1608.15,1598.97 1598.35,1603.47 1598.25,1603.47 C1598.25,1603.47 1596.75,1604.37 1597.15,1605.87 C1597.45,1606.87 1598.35,1607.07 1598.95,1607.07 C1599.05,1607.07 1599.35,1606.97 1599.45,1606.97 C1599.55,1606.97 1610.95,1602.27 1620.05,1595.17 C1625.15,1591.47 1629.75,1587.47 1633.75,1583.17 C1637.35,1579.27 1640.45,1575.07 1642.95,1570.87 C1647.35,1563.37 1649.85,1555.57 1649.85,1548.87 C1649.85,1540.57 1647.65,1533.67 1643.55,1528.77 C1638.85,1523.17 1631.75,1520.27 1622.45,1520.27 M1653.85,1532.97 C1653.85,1535.77 1656.05,1537.97 1658.65,1537.97 C1661.25,1537.97 1663.45,1535.77 1663.45,1532.97 C1663.45,1530.17 1661.25,1527.87 1658.65,1527.87 C1656.05,1527.87 1653.85,1530.17 1653.85,1532.97 M1653.85,1557.67 C1653.85,1560.47 1656.05,1562.77 1658.65,1562.77 C1661.25,1562.77 1663.45,1560.47 1663.45,1557.67 C1663.45,1554.87 1661.25,1552.57 1658.65,1552.57 C1656.05,1552.57 1653.85,1554.87 1653.85,1557.67"/>
<path class="Clef" d="M335,714.422 C333.8,709.022 331.1,705.122 330.3,704.122 C327.1,699.822 323.1,697.022 318.4,695.622 C316.1,694.922 314,694.722 312,694.722 C311.3,694.722 310.6,694.722 309.9,694.822 C308.9,688.822 307.8,682.922 306.9,677.522 C312.5,671.322 316.2,665.422 318.6,661.022 C322.2,654.322 323.6,649.622 323.7,649.422 C324.9,646.422 325.6,642.622 325.6,638.122 C325.6,635.422 325.3,632.522 324.9,629.522 C323.8,622.422 321.6,615.722 319.1,612.022 C317.8,610.122 316.6,609.022 315.4,609.022 C314.2,609.022 311.7,610.222 308.8,613.022 C306.5,615.222 303.2,619.122 300.6,625.122 C298.3,630.522 297.6,637.422 297.6,643.322 C297.6,645.122 297.7,646.822 297.8,648.422 C298,652.022 298.7,657.822 299.3,661.422 C299.3,661.522 299.6,663.022 300,665.622 L299.3,666.322 C298.3,667.322 297.1,668.422 295.7,669.822 C294.8,670.722 293.9,671.522 292.9,672.522 C284.4,680.722 271.6,693.122 271.6,712.222 C271.6,716.922 272.5,721.322 274.3,725.322 C275.9,728.922 278.2,732.222 281.1,735.122 C288.6,742.522 298.8,745.722 305.9,745.722 L306.5,745.722 C309.4,745.622 312.1,745.322 314.5,744.922 C316.3,754.522 317.5,761.622 317.5,766.922 C317.5,773.422 315.9,777.322 312,780.122 C309.6,781.822 306.7,782.922 303.6,783.022 L302.8,783.022 C301.3,783.022 298.8,782.622 297.3,782.222 C297.3,782.222 297,782.122 297,781.922 C297,781.722 297.4,781.722 297.4,781.722 C299.3,781.322 302.9,780.022 305.3,776.722 C306.4,775.222 307.1,772.922 307.1,770.422 C307.1,768.822 306.8,767.122 306.1,765.622 C305,763.222 302.4,760.222 296.8,759.822 L295.7,759.822 C293.6,759.822 291.8,760.322 290.1,761.322 C288.3,762.422 286.7,764.122 285.7,766.122 C284.6,768.122 284.1,770.322 284.1,772.522 C284.1,775.422 285,778.122 286.8,780.322 C289.8,783.922 294.5,786.222 299.9,786.822 C300.6,786.922 301.7,787.022 302.4,787.022 C306.8,787.022 311.2,785.822 314.8,783.622 C318.5,781.022 320.6,777.022 321.3,771.422 C321.5,770.122 321.5,768.722 321.5,767.222 C321.5,763.322 321,758.622 320,752.822 C319.6,750.722 319.2,747.722 318.5,743.922 C324.3,742.022 328.4,738.322 332.2,732.522 C334.5,728.522 335.6,724.422 335.6,720.122 C335.6,718.222 335.4,716.322 335,714.422 M304.8,636.522 C306.6,630.822 309.3,627.422 311.3,625.722 C313.1,624.222 314.7,623.522 315.6,623.522 C315.7,623.522 315.9,623.622 316,623.622 C316.3,623.722 316.7,624.222 317.1,624.922 C318,626.722 318.9,630.022 318.9,633.722 C318.9,635.622 318.7,637.622 318.1,639.422 C315.9,646.222 311.3,653.522 304.3,661.222 C304.1,660.122 303.9,659.122 303.8,658.122 C303.3,654.922 303,651.722 303,648.822 C303,644.322 303.6,640.222 304.8,636.522 M300.8,740.622 C296.2,739.422 291.7,736.922 287.9,733.422 C286.6,732.222 284.8,730.022 283.3,726.622 C282,723.622 281.3,720.522 281.3,717.122 L281.3,716.422 C281.4,711.722 282.7,706.922 285.2,702.122 C288.1,696.522 292.6,691.022 298.7,685.722 C300.2,684.422 301.6,683.122 302.9,681.822 C303.7,686.122 304.4,690.822 305.3,695.722 C301.4,697.022 296.7,700.022 293.6,705.722 C291.2,710.222 290.5,714.122 290.5,717.322 C290.5,718.822 290.7,720.222 290.9,721.322 C291.8,725.822 294.4,729.522 297.9,731.622 C298.7,732.122 302,733.822 304,733.822 C304.3,733.822 304.6,733.822 304.8,733.722 C305.1,733.622 305.4,733.422 305.5,733.122 C305.6,732.922 305.6,732.722 305.6,732.522 C305.6,731.722 304.8,731.122 303.5,730.322 C302.9,729.922 302.2,729.522 301.5,729.022 C298.9,727.022 297.4,723.922 297.4,720.522 C297.4,719.522 297.6,718.622 297.8,717.622 C298.3,715.622 300,712.822 301.5,711.422 C303.2,709.922 305.2,708.722 307.6,708.122 C309.6,719.322 311.7,730.422 313.3,738.822 C313.4,739.522 313.6,740.222 313.7,740.922 C311.7,741.322 309.7,741.522 307.8,741.522 C305.4,741.522 303.1,741.222 300.8,740.622 M326.5,730.422 C325.3,733.622 322.8,737.622 317.7,739.722 C317.6,739.322 317.6,738.822 317.5,738.422 C316,729.622 314.1,718.722 312.1,707.422 L313.1,707.422 C322.8,707.422 326.7,714.622 327.6,719.222 C327.8,720.122 327.9,721.322 327.9,722.622 C327.9,724.922 327.5,727.722 326.5,730.422"/>
<path class="Clef" d="M335,1326.96 C333.8,1321.56 331.1,1317.66 330.3,1316.66 C327.1,1312.36 323.1,1309.56 318.4,1308.16 C316.1,1307.46 314,1307.26 312,1307.26 C311.3,1307.26 310.6,1307.26 309.9,1307.36 C308.9,1301.36 307.8,1295.46 306.9,1290.06 C312.5,1283.86 316.2,1277.96 318.6,1273.56 C322.2,1266.86 323.6,1262.16 323.7,1261.96 C324.9,1258.96 325.6,1255.16 325.6,1250.66 C325.6,1247.96 325.3,1245.06 324.9,1242.06 C323.8,1234.96 321.6,1228.26 319.1,1224.56 C317.8,1222.66 316.6,1221.56 315.4,1221.56 C314.2,1221.56 311.7,1222.76 308.8,1225.56 C306.5,1227.76 303.2,1231.66 300.6,1237.66 C298.3,1243.06 297.6,1249.96 297.6,1255.86 C297.6,1257.66 297.7,1259.36 297.8,1260.96 C298,1264.56 298.7,1270.36 299.3,1273.96 C299.3,1274.06 299.6,1275.56 300,1278.16 L299.3,1278.86 C298.3,1279.86 297.1,1280.96 295.7,1282.36 C294.8,1283.26 293.9,1284.06 292.9,1285.06 C284.4,1293.26 271.6,1305.66 271.6,1324.76 C271.6,1329.46 272.5,1333.86 274.3,1337.86 C275.9,1341.46 278.2,1344.76 281.1,1347.66 C288.6,1355.06 298.8,1358.26 305.9,1358.26 L306.5,1358.26 C309.4,1358.16 312.1,1357.86 314.5,1357.46 C316.3,1367.06 317.5,1374.16 317.5,1379.46 C317.5,1385.96 315.9,1389.86 312,1392.66 C309.6,1394.36 306.7,1395.46 303.6,1395.56 L302.8,1395.56 C301.3,1395.56 298.8,1395.16 297.3,1394.76 C297.3,1394.76 297,1394.66 297,1394.46 C297,1394.26 297.4,1394.26 297.4,1394.26 C299.3,1393.86 302.9,1392.56 305.3,1389.26 C306.4,1387.76 307.1,1385.46 307.1,1382.96 C307.1,1381.36 306.8,1379.66 306.1,1378.16 C305,1375.76 302.4,1372.76 296.8,1372.36 L295.7,1372.36 C293.6,1372.36 291.8,1372.86 290.1,1373.86 C288.3,1374.96 286.7,1376.66 285.7,1378.66 C284.6,1380.66 284.1,1382.86 284.1,1385.06 C284.1,1387.96 285,1390.66 286.8,1392.86 C289.8,1396.46 294.5,1398.76 299.9,1399.36 C300.6,1399.46 301.7,1399.56 302.4,1399.56 C306.8,1399.56 311.2,1398.36 314.8,1396.16 C318.5,1393.56 320.6,1389.56 321.3,1383.96 C321.5,1382.66 321.5,1381.26 321.5,1379.76 C321.5,1375.86 321,1371.16 320,1365.36 C319.6,1363.26 319.2,1360.26 318.5,1356.46 C324.3,1354.56 328.4,1350.86 332.2,1345.06 C334.5,1341.06 335.6,1336.96 335.6,1332.66 C335.6,1330.76 335.4,1328.86 335,1326.96 M304.8,1249.06 C306.6,1243.36 309.3,1239.96 311.3,1238.26 C313.1,1236.76 314.7,1236.06 315.6,1236.06 C315.7,1236.06 315.9,1236.16 316,1236.16 C316.3,1236.26 316.7,1236.76 317.1,1237.46 C318,1239.26 318.9,1242.56 318.9,1246.26 C318.9,1248.16 318.7,1250.16 318.1,1251.96 C315.9,1258.76 311.3,1266.06 304.3,1273.76 C304.1,1272.66 303.9,1271.66 303.8,1270.66 C303.3,1267.46 303,1264.26 303,1261.36 C303,1256.86 303.6,1252.76 304.8,1249.06 M300.8,1353.16 C296.2,1351.96 291.7,1349.46 287.9,1345.96 C286.6,1344.76 284.8,1342.56 283.3,1339.16 C282,1336.16 281.3,1333.06 281.3,1329.66 L281.3,1328.96 C281.4,1324.26 282.7,1319.46 285.2,1314.66 C288.1,1309.06 292.6,1303.56 298.7,1298.26 C300.2,1296.96 301.6,1295.66 302.9,1294.36 C303.7,1298.66 304.4,1303.36 305.3,1308.26 C301.4,1309.56 296.7,1312.56 293.6,1318.26 C291.2,1322.76 290.5,1326.66 290.5,1329.86 C290.5,1331.36 290.7,1332.76 290.9,1333.86 C291.8,1338.36 294.4,1342.06 297.9,1344.16 C298.7,1344.66 302,1346.36 304,1346.36 C304.3,1346.36 304.6,1346.36 304.8,1346.26 C305.1,1346.16 305.4,1345.96 305.5,1345.66 C305.6,1345.46 305.6,1345.26 305.6,1345.06 C305.6,1344.26 304.8,1343.66 303.5,1342.86 C302.9,1342.46 302.2,1342.06 301.5,1341.56 C298.9,1339.56 297.4,1336.46 297.4,1333.06 C297.4,1332.06 297.6,1331.16 297.8,1330.16 C298.3,1328.16 300,1325.36 301.5,1323.96 C303.2,1322.46 305.2,1321.26 307.6,1320.66 C309.6,1331.86 311.7,1342.96 313.3,1351.36 C313.4,1352.06 313.6,1352.76 313.7,1353.46 C311.7,1353.86 309.7,1354.06 307.8,1354.06 C305.4,1354.06 303.1,1353.76 300.8,1353.16 M326.5,1342.96 C325.3,1346.16 322.8,1350.16 317.7,1352.26 C317.6,1351.86 317.6,1351.36 317.5,1350.96 C316,1342.16 314.1,1331.26 312.1,1319.96 L313.1,1319.96 C322.8,1319.96 326.7,1327.16 327.6,1331.76 C327.8,1332.66 327.9,1333.86 327.9,1335.16 C327.9,1337.46 327.5,1340.26 326.5,1342.96"/>
<path class="TimeSig" d="M365.2,946.235 L382,946.235 L382,953.535 L373.9,953.535 C373.1,953.535 372.5,954.135 372.5,954.935 L372.5,956.835 C372.5,957.635 373.1,958.135 373.9,958.135 L403.6,958.135 C404.4,958.135 405,957.635 405,956.835 L405,954.935 C405,954.135 404.4,953.535 403.6,953.535 L394.8,953.535 L394.8,946.235 L403.6,946.235 C404.4,946.235 405,945.635 405,944.835 L405,943.035 C405,942.235 404.4,941.635 403.6,941.635 L394.8,941.635 L394.8,925.935 C394.8,925.435 394.4,924.935 394,924.735 L392.9,924.135 C392.7,924.035 392.4,924.035 392.2,924.035 C391.9,924.035 391.5,924.135 391.3,924.335 L382.4,932.535 C382.2,932.735 382,933.235 382,933.535 L382,941.635 L370.7,941.635 C370.7,941.635 381.6,929.835 393.2,914.335 C394,913.235 393.6,912.235 393.4,912.035 L391.3,909.835 C391.1,909.635 390.6,909.435 390.3,909.435 L375.7,909.435 C375,909.435 374.5,910.035 374.4,910.635 C374.4,910.635 373.9,917.835 371.3,925.835 C368.7,933.835 365.9,938.635 363.3,942.235 C363.3,942.235 362.8,943.235 363.1,943.935 C363.4,944.635 364.1,945.735 364.1,945.735 C364.1,945.735 364.4,946.235 365.2,946.235"/>
<path class="TimeSig" d="M365.2,994.839 L382,994.839 L382,1002.14 L373.9,1002.14 C373.1,1002.14 372.5,1002.74 372.5,1003.54 L372.5,1005.44 C372.5,1006.24 373.1,1006.74 373.9,1006.74 L403.6,1006.74 C404.4,1006.74 405,1006.24 405,1005.44 L405,1003.54 C405,1002.74 404.4,1002.14 403.6,1002.14 L394.8,1002.14 L394.8,994.839 L403.6,994.839 C404.4,994.839 405,994.239 405,993.439 L405,991.639 C405,990.839 404.4,990.239 403.6,990.239 L394.8,990.239 L394.8,974.539 C394.8,974.039 394.4,973.539 394,973.339 L392.9,972.739 C392.7,972.639 392.4,972.639 392.2,972.639 C391.9,972.639 391.5,972.739 391.3,972.939 L382.4,981.139 C382.2,981.339 382,981.839 382,982.139 L382,990.239 L370.7,990.239 C370.7,990.239 381.6,978.439 393.2,962.939 C394,961.839 393.6,960.839 393.4,960.639 L391.3,958.439 C391.1,958.239 390.6,958.039 390.3,958.039 L375.7,958.039 C375,958.039 374.5,958.639 374.4,959.239 C374.4,959.239 373.9,966.439 371.3,974.439 C368.7,982.439 365.9,987.239 363.3,990.839 C363.3,990.839 362.8,991.839 363.1,992.539 C363.4,993.239 364.1,994.339 364.1,994.339 C364.1,994.339 364.4,994.839 365.2,994.839"/>
<path class="TimeSig" d="M365.2,683.718 L382,683.718 L382,691.018 L373.9,691.018 C373.1,691.018 372.5,691.618 372.5,692.418 L372.5,694.318 C372.5,695.118 373.1,695.618 373.9,695.618 L403.6,695.618 C404.4,695.618 405,695.118 405,694.318 L405,692.418 C405,691.618 404.4,691.018 403.6,691.018 L394.8,691.018 L394.8,683.718 L403.6,683.718 C404.4,683.718 405,683.118 405,682.318 L405,680.518 C405,679.718 404.4,679.118 403.6,679.118 L394.8,679.118 L394.8,663.418 C394.8,662.918 394.4,662.418 394,662.218 L392.9,661.618 C392.7,661.518 392.4,661.518 392.2,661.518 C391.9,661.518 391.5,661.618 391.3,661.818 L382.4,670.018 C382.2,670.218 382,670.718 382,671.018 L382,679.118 L370.7,679.118 C370.7,679.118 381.6,667.318 393.2,651.818 C394,650.718 393.6,649.718 393.4,649.518 L391.3,647.318 C391.1,647.118 390.6,646.918 390.3,646.918 L375.7,646.918 C375,646.918 374.5,647.518 374.4,648.118 C374.4,648.118 373.9,655.318 371.3,663.318 C368.7,671.318 365.9,676.118 363.3,679.718 C363.3,679.718 362.8,680.718 363.1,681.418 C363.4,682.118 364.1,683.218 364.1,683.218 C364.1,683.218 364.4,683.718 365.2,683.718"/>
<path class="TimeSig" d="M365.2,732.323 L382,732.323 L382,739.623 L373.9,739.623 C373.1,739.623 372.5,740.223 372.5,741.023 L372.5,742.923 C372.5,743.723 373.1,744.223 373.9,744.223 L403.6,744.223 C404.4,744.223 405,743.723 405,742.923 L405,741.023 C405,740.223 404.4,739.623 403.6,739.623 L394.8,739.623 L394.8,732.323 L403.6,732.323 C404.4,732.323 405,731.723 405,730.923 L405,729.123 C405,728.323 404.4,727.723 403.6,727.723 L394.8,727.723 L394.8,712.023 C394.8,711.523 394.4,711.023 394,710.823 L392.9,710.223 C392.7,710.123 392.4,710.123 392.2,710.123 C391.9,710.123 391.5,710.223 391.3,710.423 L382.4,718.623 C382.2,718.823 382,719.323 382,719.623 L382,727.723 L370.7,727.723 C370.7,727.723 381.6,715.923 393.2,700.423 C394,699.323 393.6,698.323 393.4,698.123 L391.3,695.923 C391.1,695.723 390.6,695.523 390.3,695.523 L375.7,695.523 C375,695.523 374.5,696.123 374.4,696.723 C374.4,696.723 373.9,703.923 371.3,711.923 C368.7,719.923 365.9,724.723 363.3,728.323 C363.3,728.323 362.8,729.323 363.1,730.023 C363.4,730.723 364.1,731.823 364.1,731.823 C364.1,731.823 364.4,732.323 365.2,732.323"/>
<path class="NoteDot" d="M2476.01,1557.87 C2476.01,1560.47 2478.12,1562.57 2480.71,1562.57 C2483.31,1562.57 2485.41,1560.47 2485.41,1557.87 C2485.41,1555.28 2483.31,1553.17 2480.71,1553.17 C2478.12,1553.17 2476.01,1555.28 2476.01,1557.87"/>
<path class="NoteDot" d="M2476.01,1370.36 C2476.01,1372.96 2478.12,1375.06 2480.71,1375.06 C2483.31,1375.06 2485.41,1372.96 2485.41,1370.36 C2485.41,1367.77 2483.31,1365.66 2480.71,1365.66 C2478.12,1365.66 2476.01,1367.77 2476.01,1370.36"/>
<path class="Page" d="M233.756,4056.35 L231.776,4056.35 L231.326,4058.64 C230.741,4061.57 230.381,4061.84 227.591,4061.84 L217.511,4061.84 C220.616,4058.6 221.651,4057.65 224.531,4055.4 C228.626,4052.25 230.381,4050.68 231.416,4049.33 C232.856,4047.35 233.576,4045.37 233.576,4043.16 C233.576,4038.03 229.346,4034.39 223.451,4034.39 C217.736,4034.39 213.371,4038.03 213.371,4042.85 C213.371,4045.68 214.811,4047.62 216.926,4047.62 C218.591,4047.62 219.716,4046.49 219.716,4044.87 C219.716,4043.75 219.086,4042.71 218.141,4042.31 C216.476,4041.63 216.386,4041.54 216.386,4040.96 C216.386,4040.28 216.836,4039.25 217.466,4038.48 C218.591,4037.09 220.436,4036.32 222.551,4036.32 C226.286,4036.32 228.491,4038.62 228.491,4042.4 C228.491,4045.73 226.916,4048.74 223.181,4052.7 C219.851,4056.21 217.781,4058.42 217.016,4059.27 C215.396,4061.16 214.586,4062.2 212.606,4064.81 L212.606,4066.07 L232.901,4066.07 L233.756,4056.35 M252.877,4048.52 C256.207,4046.72 257.827,4044.47 257.827,4041.54 C257.827,4037.4 254.092,4034.39 248.872,4034.39 C243.382,4034.39 239.377,4037.99 239.377,4042.98 C239.377,4044.92 240.097,4046.94 241.357,4048.34 C242.122,4049.24 242.842,4049.73 244.462,4050.59 C242.482,4051.35 241.627,4051.8 240.637,4052.61 C238.882,4054.05 237.892,4056.21 237.892,4058.51 C237.892,4060.98 239.107,4063.41 240.997,4064.81 C242.752,4066.07 245.182,4066.74 248.062,4066.74 C251.392,4066.74 254.182,4065.84 256.072,4064.22 C257.962,4062.51 259.132,4059.77 259.132,4057.02 C259.132,4054.46 258.142,4052.16 256.297,4050.54 C255.397,4049.73 254.587,4049.28 252.877,4048.52 M248.062,4046.72 C244.417,4045.41 242.842,4043.7 242.842,4041.09 C242.842,4038.21 245.182,4036.32 248.737,4036.32 C252.202,4036.32 254.497,4038.53 254.497,4041.81 C254.497,4044.15 253.597,4045.68 251.032,4047.84 L248.062,4046.72 M250.672,4052.97 C254.092,4054.19 255.532,4055.94 255.532,4058.91 C255.532,4062.51 252.697,4064.81 248.287,4064.81 C244.057,4064.81 241.627,4062.51 241.627,4058.51 C241.627,4055.13 243.022,4053.11 246.532,4051.49 L250.672,4052.97 "/>
<path class="Bracket" transform="matrix(3.62523,0,0,3.62523,214.469,1007.84)" d="M0.92002,-50 C2.69004,-51.88 6.2,-55.8 6.2,-63 C6.2,-72.1 2.25996,-81.32 2.25996,-86.97 C2.25996,-93.06 5.84004,-98.84 5.95,-99 C6.05996,-99.16 6.05,-99.39 5.94004,-99.46 C5.82998,-99.53 5.62002,-99.47 5.49004,-99.32 C5.35996,-99.17 0,-93.75 0,-85.6 C0,-76.75 3.5,-70.58 3.5,-59.07 C3.5,-56.89 2.55996,-53.36 0.1,-50.33 C-0.0799805,-50.17 -0.1,-49.89 0.0599609,-49.7 L0.0700195,-49.69 L0.1,-49.66 C2.55996,-46.63 3.5,-43.1 3.5,-40.92 C3.5,-29.4 0,-23.24 0,-14.39 C0,-6.25 5.35996,-0.8 5.49004,-0.659961 C5.62002,-0.52002 5.8,-0.42998 5.94004,-0.52002 C6.07998,-0.609961 6.07998,-0.77998 5.95,-0.97998 C5.82002,-1.17998 2.25996,-6.92002 2.25996,-13.01 C2.25996,-18.66 6.2,-27.9 6.2,-37 C6.2,-44.3 2.69004,-48.12 0.92002,-50"/>
<path class="Bracket" transform="matrix(3.62523,0,0,3.62523,214.469,1620.38)" d="M0.92002,-50 C2.69004,-51.88 6.2,-55.8 6.2,-63 C6.2,-72.1 2.25996,-81.32 2.25996,-86.97 C2.25996,-93.06 5.84004,-98.84 5.95,-99 C6.05996,-99.16 6.05,-99.39 5.94004,-99.46 C5.82998,-99.53 5.62002,-99.47 5.49004,-99.32 C5.35996,-99.17 0,-93.75 0,-85.6 C0,-76.75 3.5,-70.58 3.5,-59.07 C3.5,-56.89 2.55996,-53.36 0.1,-50.33 C-0.0799805,-50.17 -0.1,-49.89 0.0599609,-49.7 L0.0700195,-49.69 L0.1,-49.66 C2.55996,-46.63 3.5,-43.1 3.5,-40.92 C3.5,-29.4 0,-23.24 0,-14.39 C0,-6.25 5.35996,-0.8 5.49004,-0.659961 C5.62002,-0.52002 5.8,-0.42998 5.94004,-0.52002 C6.07998,-0.609961 6.07998,-0.77998 5.95,-0.97998 C5.82002,-1.17998 2.25996,-6.92002 2.25996,-13.01 C2.25996,-18.66 6.2,-27.9 6.2,-37 C6.2,-44.3 2.69004,-48.12 0.92002,-50"/>
</svg>