<?xml version="1.0" encoding="UTF-8" standalone="no"?>
<svg width="1000px" height="300px" viewBox="0 400 3040 900" xmlns="http://www.w3.org/2000/svg" xmlns:xlink="http://www.w3.org/1999/xlink" version="1.2" baseProfile="tiny">
 xmlns="http://www.w3.org/2000/svg" xmlns:xlink="http://www.w3.org/1999/xlink" version="1.2" baseProfile="tiny">
<title>exercises_scores (20)</title>
<desc>Generated by MuseScore 3.6.0</desc>
<polyline class="StaffLines" fill="none" stroke="#000000" stroke-width="2.75" stroke-linejoin="bevel" points="247.099,653.005 2764.63,653.005"/>
<polyline class="StaffLines" fill="none" stroke="#000000" stroke-width="2.75" stroke-linejoin="bevel" points="247.099,678.006 2764.63,678.006"/>
<polyline class="StaffLines" fill="none" stroke="#000000" stroke-width="2.75" stroke-linejoin="bevel" points="247.099,703.008 2764.63,703.008"/>
<polyline class="StaffLines" fill="none" stroke="#000000" stroke-width="2.75" stroke-linejoin="bevel" points="247.099,728.009 2764.63,728.009"/>
<polyline class="StaffLines" fill="none" stroke="#000000" stroke-width="2.75" stroke-linejoin="bevel" points="247.099,753.011 2764.63,753.011"/>
<polyline class="StaffLines" fill="none" stroke="#000000" stroke-width="2.75" stroke-linejoin="bevel" points="247.099,915.521 2764.63,915.521"/>
<polyline class="StaffLines" fill="none" stroke="#000000" stroke-width="2.75" stroke-linejoin="bevel" points="247.099,940.523 2764.63,940.523"/>
<polyline class="StaffLines" fill="none" stroke="#000000" stroke-width="2.75" stroke-linejoin="bevel" points="247.099,965.524 2764.63,965.524"/>
<polyline class="StaffLines" fill="none" stroke="#000000" stroke-width="2.75" stroke-linejoin="bevel" points="247.099,990.526 2764.63,990.526"/>
<polyline class="StaffLines" fill="none" stroke="#000000" stroke-width="2.75" stroke-linejoin="bevel" points="247.099,1015.53 2764.63,1015.53"/>
<path class="Text" d="M248.251,217.046 L245.971,217.046 L243.571,220.586 C239.191,217.406 236.971,216.566 232.831,216.566 C227.131,216.566 222.271,218.966 218.251,223.766 C214.411,228.326 212.611,233.366 212.611,239.546 C212.611,252.506 221.071,261.686 232.891,261.686 C242.491,261.686 248.611,256.046 249.991,245.966 L247.171,245.486 C245.551,254.426 240.991,258.866 233.611,258.866 C224.731,258.866 220.531,252.746 220.531,239.786 C220.531,232.946 221.431,228.446 223.471,224.846 C225.331,221.486 228.991,219.386 232.891,219.386 C237.091,219.386 240.811,221.606 243.091,225.446 C244.231,227.426 245.071,229.646 246.511,234.386 L249.151,234.386 L248.251,217.046 M275.741,230.708 C276.228,230.613 276.623,230.132 276.623,229.636 L276.623,229.634 L276.623,224.954 C276.623,224.665 276.44,224.283 276.215,224.102 C276.05,223.966 275.742,223.857 275.528,223.857 C275.465,223.857 275.365,223.867 275.303,223.88 L272.717,224.414 L272.717,212.606 L270.521,212.606 L270.521,224.87 L263.423,226.34 L263.423,215.102 L261.227,215.102 L261.227,226.796 L258.119,227.438 C257.636,227.54 257.244,228.024 257.243,228.518 L257.243,233.114 C257.244,233.401 257.424,233.783 257.645,233.966 C257.812,234.102 258.123,234.212 258.338,234.212 L258.341,234.212 C258.403,234.212 258.503,234.204 258.563,234.194 L261.227,233.654 L261.227,246.764 L258.119,247.406 C257.636,247.506 257.244,247.987 257.243,248.48 L257.243,253.082 C257.244,253.369 257.424,253.751 257.645,253.934 C257.812,254.07 258.123,254.18 258.338,254.18 L258.341,254.18 C258.345,254.18 258.35,254.18 258.353,254.18 C258.412,254.18 258.506,254.169 258.563,254.156 L261.227,253.616 L261.227,265.406 L263.423,265.406 L263.423,253.172 L270.521,251.732 L270.521,262.91 L272.717,262.91 L272.717,251.288 L275.741,250.676 C276.228,250.581 276.623,250.1 276.623,249.604 L276.623,249.602 L276.623,244.922 C276.623,244.633 276.44,244.251 276.215,244.07 C276.052,243.933 275.747,243.823 275.534,243.823 C275.47,243.823 275.366,243.834 275.303,243.848 L272.717,244.382 L272.717,231.326 L275.741,230.708 M263.423,246.308 L263.423,233.204 L270.521,231.77 L270.521,244.838 L263.423,246.308 M309.424,232.826 L298.744,233.486 L298.744,236.066 L301.204,236.066 C303.484,236.126 303.784,236.486 303.784,239.066 L303.784,253.406 L303.784,255.746 L303.784,256.226 C303.724,257.126 303.664,257.486 303.424,257.786 C303.004,258.326 301.864,258.566 299.284,258.626 L299.044,258.626 L299.044,260.786 L314.164,260.786 L314.164,258.626 L313.924,258.626 C309.964,258.506 309.424,258.206 309.424,255.986 L309.424,253.406 L309.424,244.886 C309.424,239.546 312.364,235.586 316.264,235.586 C319.684,235.586 321.424,238.046 321.424,242.906 L321.424,253.406 L321.424,256.286 C321.364,257.066 321.304,257.486 321.004,257.786 C320.644,258.326 319.444,258.566 316.864,258.626 L316.624,258.626 L316.624,260.786 L331.804,260.786 L331.804,258.626 L331.564,258.626 C327.604,258.506 327.064,258.206 327.064,256.046 L327.064,253.406 L327.064,245.426 C327.064,239.426 329.764,235.586 333.964,235.586 C337.384,235.586 339.064,238.166 339.064,243.566 L339.064,253.406 L339.064,256.226 C339.004,257.066 338.944,257.486 338.644,257.786 C338.284,258.326 337.084,258.566 334.504,258.626 L334.264,258.626 L334.264,260.786 L349.444,260.786 L349.444,258.626 L349.204,258.626 C345.244,258.506 344.704,258.206 344.704,255.986 L344.704,253.406 L344.704,242.366 C344.704,238.646 344.344,237.386 342.784,235.346 C341.044,233.126 338.584,231.926 335.704,231.926 C331.804,231.926 328.924,233.786 326.344,237.926 C325.324,234.326 322.084,231.926 318.064,231.926 C314.404,231.926 311.764,233.666 309.424,237.446 L309.424,232.826 M363.052,232.826 L351.772,233.486 L351.772,236.066 L354.832,236.066 C357.112,236.126 357.412,236.486 357.412,239.066 L357.412,253.406 L357.412,256.226 C357.352,257.126 357.292,257.486 357.052,257.786 C356.632,258.326 355.492,258.566 352.912,258.626 L352.492,258.626 L352.492,260.786 L368.032,260.786 L368.032,258.626 L367.612,258.626 C363.592,258.506 363.052,258.206 363.052,256.046 L363.052,253.406 L363.052,232.826 M360.232,217.886 C358.312,217.886 356.752,219.446 356.752,221.366 C356.752,223.286 358.312,224.846 360.172,224.846 C362.152,224.846 363.712,223.286 363.712,221.366 C363.712,219.446 362.152,217.886 360.232,217.886 M381.583,232.826 L371.203,233.486 L371.203,236.066 L373.363,236.066 C375.643,236.126 375.943,236.486 375.943,239.066 L375.943,253.406 L375.943,254.846 L375.943,256.226 C375.883,257.126 375.823,257.486 375.583,257.786 C375.163,258.326 374.023,258.566 371.443,258.626 L371.203,258.626 L371.203,260.786 L386.383,260.786 L386.383,258.626 L386.143,258.626 C382.123,258.506 381.583,258.206 381.583,256.046 L381.583,253.406 L381.583,247.166 C381.583,244.226 382.003,241.526 382.663,240.146 C383.923,237.446 386.623,235.586 389.203,235.586 C390.763,235.586 392.563,236.426 393.463,237.686 C394.363,239.006 394.783,240.806 394.783,243.686 L394.783,253.406 L394.783,256.226 C394.723,257.126 394.663,257.486 394.423,257.786 C394.003,258.326 392.803,258.566 390.223,258.626 L389.983,258.626 L389.983,260.786 L405.163,260.786 L405.163,258.626 L404.923,258.626 C400.963,258.506 400.423,258.206 400.423,256.046 L400.423,253.406 L400.423,243.986 C400.423,239.666 400.243,238.586 399.163,236.546 C397.663,233.666 394.663,231.926 391.063,231.926 C387.163,231.926 384.223,233.726 381.583,237.686 L381.583,232.826 M421.359,231.926 C413.979,231.926 408.279,238.466 408.279,246.866 C408.279,255.086 414.039,261.686 421.239,261.686 C428.439,261.686 434.199,255.086 434.199,246.806 C434.199,238.586 428.439,231.926 421.359,231.926 M421.359,234.506 C425.559,234.506 427.899,238.886 427.899,246.806 C427.899,254.786 425.559,259.106 421.239,259.106 C416.919,259.106 414.579,254.786 414.579,246.866 C414.579,238.706 416.859,234.506 421.359,234.506 M448.119,232.826 L437.499,233.486 L437.499,236.066 L439.959,236.066 C442.239,236.126 442.539,236.486 442.539,239.066 L442.539,253.406 L442.539,256.226 C442.479,257.126 442.419,257.486 442.179,257.786 C441.759,258.326 440.559,258.566 437.979,258.626 L437.739,258.626 L437.739,260.786 L453.759,260.786 L453.759,258.626 L452.679,258.626 C448.659,258.506 448.119,258.206 448.119,256.046 L448.119,253.406 L448.119,252.806 C448.179,242.726 451.779,235.046 456.459,234.806 C455.619,235.766 455.379,236.366 455.379,237.506 C455.379,239.426 456.759,240.806 458.679,240.806 C460.899,240.806 462.339,239.186 462.339,236.786 C462.339,233.846 460.299,231.926 457.119,231.926 C453.339,231.926 450.099,234.926 448.119,240.266 L448.119,232.826 "/>
<polyline class="BarLine" fill="none" stroke="#000000" stroke-width="4.50" stroke-linejoin="bevel" points="249.349,914.146 249.349,1016.9"/>
<polyline class="BarLine" fill="none" stroke="#000000" stroke-width="4.50" stroke-linejoin="bevel" points="1042.88,914.146 1042.88,1016.9"/>
<polyline class="BarLine" fill="none" stroke="#000000" stroke-width="4.50" stroke-linejoin="bevel" points="1609.22,914.146 1609.22,1016.9"/>
<polyline class="BarLine" fill="none" stroke="#000000" stroke-width="4.50" stroke-linejoin="bevel" points="2188.55,914.146 2188.55,1016.9"/>
<polyline class="BarLine" fill="none" stroke="#000000" stroke-width="4.50" stroke-linejoin="bevel" points="2734.88,914.146 2734.88,1016.9"/>
<polyline class="BarLine" fill="none" stroke="#000000" stroke-width="13.75" stroke-linejoin="bevel" points="2757.75,914.146 2757.75,1016.9"/>
<polyline class="BarLine" fill="none" stroke="#000000" stroke-width="4.50" stroke-linejoin="bevel" points="249.349,651.63 249.349,915.521"/>
<polyline class="BarLine" fill="none" stroke="#000000" stroke-width="4.50" stroke-linejoin="bevel" points="1042.88,651.63 1042.88,915.521"/>
<polyline class="BarLine" fill="none" stroke="#000000" stroke-width="4.50" stroke-linejoin="bevel" points="1609.22,651.63 1609.22,915.521"/>
<polyline class="BarLine" fill="none" stroke="#000000" stroke-width="4.50" stroke-linejoin="bevel" points="2188.55,651.63 2188.55,915.521"/>
<polyline class="BarLine" fill="none" stroke="#000000" stroke-width="4.50" stroke-linejoin="bevel" points="2734.88,651.63 2734.88,915.521"/>
<polyline class="BarLine" fill="none" stroke="#000000" stroke-width="13.75" stroke-linejoin="bevel" points="2757.75,651.63 2757.75,915.521"/>
<path class="Accidental" d="M487.053,967.425 C487.653,967.325 488.153,966.625 488.153,966.025 L488.153,960.125 C488.153,959.325 487.553,958.725 486.753,958.725 L486.553,958.725 L483.253,959.425 L483.253,944.525 L480.453,944.525 L480.453,960.025 L471.553,961.825 L471.553,947.725 L468.753,947.725 L468.753,962.425 L464.853,963.225 C464.253,963.325 463.753,964.025 463.753,964.625 L463.753,964.825 L463.753,970.625 L463.753,970.425 C463.753,971.225 464.353,971.825 465.153,971.825 L465.453,971.825 L468.753,971.125 L468.753,987.625 L464.853,988.425 C464.253,988.525 463.753,989.225 463.753,989.825 L463.753,995.625 C463.753,996.425 464.353,997.025 465.153,997.025 L465.453,997.025 L468.753,996.325 L468.753,1011.23 L471.553,1011.23 L471.553,995.725 L480.453,993.925 L480.453,1008.03 L483.253,1008.03 L483.253,993.325 L487.053,992.625 C487.653,992.525 488.153,991.825 488.153,991.225 L488.153,985.325 C488.153,984.525 487.553,983.925 486.753,983.925 L486.553,983.925 L483.253,984.625 L483.253,968.125 L487.053,967.425 M471.553,987.125 L471.553,970.525 L480.453,968.725 L480.453,985.225 L471.553,987.125 "/>
<path class="Accidental" d="M623.609,954.924 C624.209,954.824 624.709,954.124 624.709,953.524 L624.709,947.624 C624.709,946.824 624.109,946.224 623.309,946.224 L623.109,946.224 L619.809,946.924 L619.809,932.024 L617.009,932.024 L617.009,947.524 L608.109,949.324 L608.109,935.224 L605.309,935.224 L605.309,949.924 L601.409,950.724 C600.809,950.824 600.309,951.524 600.309,952.124 L600.309,952.324 L600.309,958.124 L600.309,957.924 C600.309,958.724 600.909,959.324 601.709,959.324 L602.009,959.324 L605.309,958.624 L605.309,975.124 L601.409,975.924 C600.809,976.024 600.309,976.724 600.309,977.324 L600.309,983.124 C600.309,983.924 600.909,984.524 601.709,984.524 L602.009,984.524 L605.309,983.824 L605.309,998.724 L608.109,998.724 L608.109,983.224 L617.009,981.424 L617.009,995.524 L619.809,995.524 L619.809,980.824 L623.609,980.124 C624.209,980.024 624.709,979.324 624.709,978.724 L624.709,972.824 C624.709,972.024 624.109,971.424 623.309,971.424 L623.109,971.424 L619.809,972.124 L619.809,955.624 L623.609,954.924 M608.109,974.624 L608.109,958.024 L617.009,956.224 L617.009,972.724 L608.109,974.624 "/>
<path class="Accidental" d="M896.72,929.923 C897.32,929.823 897.82,929.123 897.82,928.523 L897.82,922.623 C897.82,921.823 897.22,921.223 896.42,921.223 L896.22,921.223 L892.92,921.923 L892.92,907.023 L890.12,907.023 L890.12,922.523 L881.22,924.323 L881.22,910.223 L878.42,910.223 L878.42,924.923 L874.52,925.723 C873.92,925.823 873.42,926.523 873.42,927.123 L873.42,927.323 L873.42,933.123 L873.42,932.923 C873.42,933.723 874.02,934.323 874.82,934.323 L875.12,934.323 L878.42,933.623 L878.42,950.123 L874.52,950.923 C873.92,951.023 873.42,951.723 873.42,952.323 L873.42,958.123 C873.42,958.923 874.02,959.523 874.82,959.523 L875.12,959.523 L878.42,958.823 L878.42,973.723 L881.22,973.723 L881.22,958.223 L890.12,956.423 L890.12,970.523 L892.92,970.523 L892.92,955.823 L896.72,955.123 C897.32,955.023 897.82,954.323 897.82,953.723 L897.82,947.823 C897.82,947.023 897.22,946.423 896.42,946.423 L896.22,946.423 L892.92,947.123 L892.92,930.623 L896.72,929.923 M881.22,949.623 L881.22,933.023 L890.12,931.223 L890.12,947.723 L881.22,949.623 "/>
<path class="Accidental" d="M1090.18,917.422 C1090.78,917.322 1091.28,916.622 1091.28,916.022 L1091.28,910.122 C1091.28,909.322 1090.68,908.722 1089.88,908.722 L1089.68,908.722 L1086.38,909.422 L1086.38,894.522 L1083.58,894.522 L1083.58,910.022 L1074.68,911.822 L1074.68,897.722 L1071.88,897.722 L1071.88,912.422 L1067.98,913.222 C1067.38,913.322 1066.88,914.022 1066.88,914.622 L1066.88,914.822 L1066.88,920.622 L1066.88,920.422 C1066.88,921.222 1067.48,921.822 1068.28,921.822 L1068.58,921.822 L1071.88,921.122 L1071.88,937.622 L1067.98,938.422 C1067.38,938.522 1066.88,939.222 1066.88,939.822 L1066.88,945.622 C1066.88,946.422 1067.48,947.022 1068.28,947.022 L1068.58,947.022 L1071.88,946.322 L1071.88,961.222 L1074.68,961.222 L1074.68,945.722 L1083.58,943.922 L1083.58,958.022 L1086.38,958.022 L1086.38,943.322 L1090.18,942.622 C1090.78,942.522 1091.28,941.822 1091.28,941.222 L1091.28,935.322 C1091.28,934.522 1090.68,933.922 1089.88,933.922 L1089.68,933.922 L1086.38,934.622 L1086.38,918.122 L1090.18,917.422 M1074.68,937.122 L1074.68,920.522 L1083.58,918.722 L1083.58,935.222 L1074.68,937.122 "/>
<path class="Accidental" d="M1463.51,879.92 C1464.11,879.82 1464.61,879.12 1464.61,878.52 L1464.61,872.62 C1464.61,871.82 1464.01,871.22 1463.21,871.22 L1463.01,871.22 L1459.71,871.92 L1459.71,857.02 L1456.91,857.02 L1456.91,872.52 L1448.01,874.32 L1448.01,860.22 L1445.21,860.22 L1445.21,874.92 L1441.31,875.72 C1440.71,875.82 1440.21,876.52 1440.21,877.12 L1440.21,877.32 L1440.21,883.12 L1440.21,882.92 C1440.21,883.72 1440.81,884.32 1441.61,884.32 L1441.91,884.32 L1445.21,883.62 L1445.21,900.12 L1441.31,900.92 C1440.71,901.02 1440.21,901.72 1440.21,902.32 L1440.21,908.12 C1440.21,908.92 1440.81,909.52 1441.61,909.52 L1441.91,909.52 L1445.21,908.82 L1445.21,923.72 L1448.01,923.72 L1448.01,908.22 L1456.91,906.42 L1456.91,920.52 L1459.71,920.52 L1459.71,905.82 L1463.51,905.12 C1464.11,905.02 1464.61,904.32 1464.61,903.72 L1464.61,897.82 C1464.61,897.02 1464.01,896.42 1463.21,896.42 L1463.01,896.42 L1459.71,897.12 L1459.71,880.62 L1463.51,879.92 M1448.01,899.62 L1448.01,883.02 L1456.91,881.22 L1456.91,897.72 L1448.01,899.62 "/>
<path class="Accidental" d="M1907.78,917.422 C1908.38,917.322 1908.88,916.622 1908.88,916.022 L1908.88,910.122 C1908.88,909.322 1908.28,908.722 1907.48,908.722 L1907.28,908.722 L1903.98,909.422 L1903.98,894.522 L1901.18,894.522 L1901.18,910.022 L1892.28,911.822 L1892.28,897.722 L1889.48,897.722 L1889.48,912.422 L1885.58,913.222 C1884.98,913.322 1884.48,914.022 1884.48,914.622 L1884.48,914.822 L1884.48,920.622 L1884.48,920.422 C1884.48,921.222 1885.08,921.822 1885.88,921.822 L1886.18,921.822 L1889.48,921.122 L1889.48,937.622 L1885.58,938.422 C1884.98,938.522 1884.48,939.222 1884.48,939.822 L1884.48,945.622 C1884.48,946.422 1885.08,947.022 1885.88,947.022 L1886.18,947.022 L1889.48,946.322 L1889.48,961.222 L1892.28,961.222 L1892.28,945.722 L1901.18,943.922 L1901.18,958.022 L1903.98,958.022 L1903.98,943.322 L1907.78,942.622 C1908.38,942.522 1908.88,941.822 1908.88,941.222 L1908.88,935.322 C1908.88,934.522 1908.28,933.922 1907.48,933.922 L1907.28,933.922 L1903.98,934.622 L1903.98,918.122 L1907.78,917.422 M1892.28,937.122 L1892.28,920.522 L1901.18,918.722 L1901.18,935.222 L1892.28,937.122 "/>
<path class="Accidental" d="M2043.36,929.923 C2043.96,929.823 2044.46,929.123 2044.46,928.523 L2044.46,922.623 C2044.46,921.823 2043.86,921.223 2043.06,921.223 L2042.86,921.223 L2039.56,921.923 L2039.56,907.023 L2036.76,907.023 L2036.76,922.523 L2027.86,924.323 L2027.86,910.223 L2025.06,910.223 L2025.06,924.923 L2021.16,925.723 C2020.56,925.823 2020.06,926.523 2020.06,927.123 L2020.06,927.323 L2020.06,933.123 L2020.06,932.923 C2020.06,933.723 2020.66,934.323 2021.46,934.323 L2021.76,934.323 L2025.06,933.623 L2025.06,950.123 L2021.16,950.923 C2020.56,951.023 2020.06,951.723 2020.06,952.323 L2020.06,958.123 C2020.06,958.923 2020.66,959.523 2021.46,959.523 L2021.76,959.523 L2025.06,958.823 L2025.06,973.723 L2027.86,973.723 L2027.86,958.223 L2036.76,956.423 L2036.76,970.523 L2039.56,970.523 L2039.56,955.823 L2043.36,955.123 C2043.96,955.023 2044.46,954.323 2044.46,953.723 L2044.46,947.823 C2044.46,947.023 2043.86,946.423 2043.06,946.423 L2042.86,946.423 L2039.56,947.123 L2039.56,930.623 L2043.36,929.923 M2027.86,949.623 L2027.86,933.023 L2036.76,931.223 L2036.76,947.723 L2027.86,949.623 "/>
<path class="Accidental" d="M2357.43,954.924 C2358.03,954.824 2358.53,954.124 2358.53,953.524 L2358.53,947.624 C2358.53,946.824 2357.93,946.224 2357.13,946.224 L2356.93,946.224 L2353.63,946.924 L2353.63,932.024 L2350.83,932.024 L2350.83,947.524 L2341.93,949.324 L2341.93,935.224 L2339.13,935.224 L2339.13,949.924 L2335.23,950.724 C2334.63,950.824 2334.13,951.524 2334.13,952.124 L2334.13,952.324 L2334.13,958.124 L2334.13,957.924 C2334.13,958.724 2334.73,959.324 2335.53,959.324 L2335.83,959.324 L2339.13,958.624 L2339.13,975.124 L2335.23,975.924 C2334.63,976.024 2334.13,976.724 2334.13,977.324 L2334.13,983.124 C2334.13,983.924 2334.73,984.524 2335.53,984.524 L2335.83,984.524 L2339.13,983.824 L2339.13,998.724 L2341.93,998.724 L2341.93,983.224 L2350.83,981.424 L2350.83,995.524 L2353.63,995.524 L2353.63,980.824 L2357.43,980.124 C2358.03,980.024 2358.53,979.324 2358.53,978.724 L2358.53,972.824 C2358.53,972.024 2357.93,971.424 2357.13,971.424 L2356.93,971.424 L2353.63,972.124 L2353.63,955.624 L2357.43,954.924 M2341.93,974.624 L2341.93,958.024 L2350.83,956.224 L2350.83,972.724 L2341.93,974.624 "/>
<path class="Accidental" d="M2498.91,967.425 C2499.51,967.325 2500.01,966.625 2500.01,966.025 L2500.01,960.125 C2500.01,959.325 2499.41,958.725 2498.61,958.725 L2498.41,958.725 L2495.11,959.425 L2495.11,944.525 L2492.31,944.525 L2492.31,960.025 L2483.41,961.825 L2483.41,947.725 L2480.61,947.725 L2480.61,962.425 L2476.71,963.225 C2476.11,963.325 2475.61,964.025 2475.61,964.625 L2475.61,964.825 L2475.61,970.625 L2475.61,970.425 C2475.61,971.225 2476.21,971.825 2477.01,971.825 L2477.31,971.825 L2480.61,971.125 L2480.61,987.625 L2476.71,988.425 C2476.11,988.525 2475.61,989.225 2475.61,989.825 L2475.61,995.625 C2475.61,996.425 2476.21,997.025 2477.01,997.025 L2477.31,997.025 L2480.61,996.325 L2480.61,1011.23 L2483.41,1011.23 L2483.41,995.725 L2492.31,993.925 L2492.31,1008.03 L2495.11,1008.03 L2495.11,993.325 L2498.91,992.625 C2499.51,992.525 2500.01,991.825 2500.01,991.225 L2500.01,985.325 C2500.01,984.525 2499.41,983.925 2498.61,983.925 L2498.41,983.925 L2495.11,984.625 L2495.11,968.125 L2498.91,967.425 M2483.41,987.125 L2483.41,970.525 L2492.31,968.725 L2492.31,985.225 L2483.41,987.125 "/>
<path class="Accidental" d="M478.302,767.413 C478.902,767.313 479.402,766.613 479.402,766.013 L479.402,760.113 C479.402,759.313 478.802,758.713 478.002,758.713 L477.802,758.713 L474.502,759.413 L474.502,744.513 L471.702,744.513 L471.702,760.013 L462.802,761.813 L462.802,747.713 L460.002,747.713 L460.002,762.413 L456.102,763.213 C455.502,763.313 455.002,764.013 455.002,764.613 L455.002,764.813 L455.002,770.613 L455.002,770.413 C455.002,771.213 455.602,771.813 456.402,771.813 L456.702,771.813 L460.002,771.113 L460.002,787.613 L456.102,788.413 C455.502,788.513 455.002,789.213 455.002,789.813 L455.002,795.613 C455.002,796.413 455.602,797.013 456.402,797.013 L456.702,797.013 L460.002,796.313 L460.002,811.213 L462.802,811.213 L462.802,795.713 L471.702,793.913 L471.702,808.013 L474.502,808.013 L474.502,793.313 L478.302,792.613 C478.902,792.513 479.402,791.813 479.402,791.213 L479.402,785.313 C479.402,784.513 478.802,783.913 478.002,783.913 L477.802,783.913 L474.502,784.613 L474.502,768.113 L478.302,767.413 M462.802,787.113 L462.802,770.513 L471.702,768.713 L471.702,785.213 L462.802,787.113 "/>
<path class="Accidental" d="M623.609,754.912 C624.209,754.812 624.709,754.112 624.709,753.512 L624.709,747.612 C624.709,746.812 624.109,746.212 623.309,746.212 L623.109,746.212 L619.809,746.912 L619.809,732.012 L617.009,732.012 L617.009,747.512 L608.109,749.312 L608.109,735.212 L605.309,735.212 L605.309,749.912 L601.409,750.712 C600.809,750.812 600.309,751.512 600.309,752.112 L600.309,752.312 L600.309,758.112 L600.309,757.912 C600.309,758.712 600.909,759.312 601.709,759.312 L602.009,759.312 L605.309,758.612 L605.309,775.112 L601.409,775.912 C600.809,776.012 600.309,776.712 600.309,777.312 L600.309,783.112 C600.309,783.912 600.909,784.512 601.709,784.512 L602.009,784.512 L605.309,783.812 L605.309,798.712 L608.109,798.712 L608.109,783.212 L617.009,781.412 L617.009,795.512 L619.809,795.512 L619.809,780.812 L623.609,780.112 C624.209,780.012 624.709,779.312 624.709,778.712 L624.709,772.812 C624.709,772.012 624.109,771.412 623.309,771.412 L623.109,771.412 L619.809,772.112 L619.809,755.612 L623.609,754.912 M608.109,774.612 L608.109,758.012 L617.009,756.212 L617.009,772.712 L608.109,774.612 "/>
<path class="Accidental" d="M896.72,729.91 C897.32,729.81 897.82,729.11 897.82,728.51 L897.82,722.61 C897.82,721.81 897.22,721.21 896.42,721.21 L896.22,721.21 L892.92,721.91 L892.92,707.01 L890.12,707.01 L890.12,722.51 L881.22,724.31 L881.22,710.21 L878.42,710.21 L878.42,724.91 L874.52,725.71 C873.92,725.81 873.42,726.51 873.42,727.11 L873.42,727.31 L873.42,733.11 L873.42,732.91 C873.42,733.71 874.02,734.31 874.82,734.31 L875.12,734.31 L878.42,733.61 L878.42,750.11 L874.52,750.91 C873.92,751.01 873.42,751.71 873.42,752.31 L873.42,758.11 C873.42,758.91 874.02,759.51 874.82,759.51 L875.12,759.51 L878.42,758.81 L878.42,773.71 L881.22,773.71 L881.22,758.21 L890.12,756.41 L890.12,770.51 L892.92,770.51 L892.92,755.81 L896.72,755.11 C897.32,755.01 897.82,754.31 897.82,753.71 L897.82,747.81 C897.82,747.01 897.22,746.41 896.42,746.41 L896.22,746.41 L892.92,747.11 L892.92,730.61 L896.72,729.91 M881.22,749.61 L881.22,733.01 L890.12,731.21 L890.12,747.71 L881.22,749.61 "/>
<path class="Accidental" d="M1090.18,717.409 C1090.78,717.309 1091.28,716.609 1091.28,716.009 L1091.28,710.109 C1091.28,709.309 1090.68,708.709 1089.88,708.709 L1089.68,708.709 L1086.38,709.409 L1086.38,694.509 L1083.58,694.509 L1083.58,710.009 L1074.68,711.809 L1074.68,697.709 L1071.88,697.709 L1071.88,712.409 L1067.98,713.209 C1067.38,713.309 1066.88,714.009 1066.88,714.609 L1066.88,714.809 L1066.88,720.609 L1066.88,720.409 C1066.88,721.209 1067.48,721.809 1068.28,721.809 L1068.58,721.809 L1071.88,721.109 L1071.88,737.609 L1067.98,738.409 C1067.38,738.509 1066.88,739.209 1066.88,739.809 L1066.88,745.609 C1066.88,746.409 1067.48,747.009 1068.28,747.009 L1068.58,747.009 L1071.88,746.309 L1071.88,761.209 L1074.68,761.209 L1074.68,745.709 L1083.58,743.909 L1083.58,758.009 L1086.38,758.009 L1086.38,743.309 L1090.18,742.609 C1090.78,742.509 1091.28,741.809 1091.28,741.209 L1091.28,735.309 C1091.28,734.509 1090.68,733.909 1089.88,733.909 L1089.68,733.909 L1086.38,734.609 L1086.38,718.109 L1090.18,717.409 M1074.68,737.109 L1074.68,720.509 L1083.58,718.709 L1083.58,735.209 L1074.68,737.109 "/>
<path class="Accidental" d="M1472.26,679.907 C1472.86,679.807 1473.36,679.107 1473.36,678.507 L1473.36,672.607 C1473.36,671.807 1472.76,671.207 1471.96,671.207 L1471.76,671.207 L1468.46,671.907 L1468.46,657.007 L1465.66,657.007 L1465.66,672.507 L1456.76,674.307 L1456.76,660.207 L1453.96,660.207 L1453.96,674.907 L1450.06,675.707 C1449.46,675.807 1448.96,676.507 1448.96,677.107 L1448.96,677.307 L1448.96,683.107 L1448.96,682.907 C1448.96,683.707 1449.56,684.307 1450.36,684.307 L1450.66,684.307 L1453.96,683.607 L1453.96,700.107 L1450.06,700.907 C1449.46,701.007 1448.96,701.707 1448.96,702.307 L1448.96,708.107 C1448.96,708.907 1449.56,709.507 1450.36,709.507 L1450.66,709.507 L1453.96,708.807 L1453.96,723.707 L1456.76,723.707 L1456.76,708.207 L1465.66,706.407 L1465.66,720.507 L1468.46,720.507 L1468.46,705.807 L1472.26,705.107 C1472.86,705.007 1473.36,704.307 1473.36,703.707 L1473.36,697.807 C1473.36,697.007 1472.76,696.407 1471.96,696.407 L1471.76,696.407 L1468.46,697.107 L1468.46,680.607 L1472.26,679.907 M1456.76,699.607 L1456.76,683.007 L1465.66,681.207 L1465.66,697.707 L1456.76,699.607 "/>
<path class="Accidental" d="M1907.78,717.409 C1908.38,717.309 1908.88,716.609 1908.88,716.009 L1908.88,710.109 C1908.88,709.309 1908.28,708.709 1907.48,708.709 L1907.28,708.709 L1903.98,709.409 L1903.98,694.509 L1901.18,694.509 L1901.18,710.009 L1892.28,711.809 L1892.28,697.709 L1889.48,697.709 L1889.48,712.409 L1885.58,713.209 C1884.98,713.309 1884.48,714.009 1884.48,714.609 L1884.48,714.809 L1884.48,720.609 L1884.48,720.409 C1884.48,721.209 1885.08,721.809 1885.88,721.809 L1886.18,721.809 L1889.48,721.109 L1889.48,737.609 L1885.58,738.409 C1884.98,738.509 1884.48,739.209 1884.48,739.809 L1884.48,745.609 C1884.48,746.409 1885.08,747.009 1885.88,747.009 L1886.18,747.009 L1889.48,746.309 L1889.48,761.209 L1892.28,761.209 L1892.28,745.709 L1901.18,743.909 L1901.18,758.009 L1903.98,758.009 L1903.98,743.309 L1907.78,742.609 C1908.38,742.509 1908.88,741.809 1908.88,741.209 L1908.88,735.309 C1908.88,734.509 1908.28,733.909 1907.48,733.909 L1907.28,733.909 L1903.98,734.609 L1903.98,718.109 L1907.78,717.409 M1892.28,737.109 L1892.28,720.509 L1901.18,718.709 L1901.18,735.209 L1892.28,737.109 "/>
<path class="Accidental" d="M2043.36,729.91 C2043.96,729.81 2044.46,729.11 2044.46,728.51 L2044.46,722.61 C2044.46,721.81 2043.86,721.21 2043.06,721.21 L2042.86,721.21 L2039.56,721.91 L2039.56,707.01 L2036.76,707.01 L2036.76,722.51 L2027.86,724.31 L2027.86,710.21 L2025.06,710.21 L2025.06,724.91 L2021.16,725.71 C2020.56,725.81 2020.06,726.51 2020.06,727.11 L2020.06,727.31 L2020.06,733.11 L2020.06,732.91 C2020.06,733.71 2020.66,734.31 2021.46,734.31 L2021.76,734.31 L2025.06,733.61 L2025.06,750.11 L2021.16,750.91 C2020.56,751.01 2020.06,751.71 2020.06,752.31 L2020.06,758.11 C2020.06,758.91 2020.66,759.51 2021.46,759.51 L2021.76,759.51 L2025.06,758.81 L2025.06,773.71 L2027.86,773.71 L2027.86,758.21 L2036.76,756.41 L2036.76,770.51 L2039.56,770.51 L2039.56,755.81 L2043.36,755.11 C2043.96,755.01 2044.46,754.31 2044.46,753.71 L2044.46,747.81 C2044.46,747.01 2043.86,746.41 2043.06,746.41 L2042.86,746.41 L2039.56,747.11 L2039.56,730.61 L2043.36,729.91 M2027.86,749.61 L2027.86,733.01 L2036.76,731.21 L2036.76,747.71 L2027.86,749.61 "/>
<path class="Accidental" d="M2357.43,754.912 C2358.03,754.812 2358.53,754.112 2358.53,753.512 L2358.53,747.612 C2358.53,746.812 2357.93,746.212 2357.13,746.212 L2356.93,746.212 L2353.63,746.912 L2353.63,732.012 L2350.83,732.012 L2350.83,747.512 L2341.93,749.312 L2341.93,735.212 L2339.13,735.212 L2339.13,749.912 L2335.23,750.712 C2334.63,750.812 2334.13,751.512 2334.13,752.112 L2334.13,752.312 L2334.13,758.112 L2334.13,757.912 C2334.13,758.712 2334.73,759.312 2335.53,759.312 L2335.83,759.312 L2339.13,758.612 L2339.13,775.112 L2335.23,775.912 C2334.63,776.012 2334.13,776.712 2334.13,777.312 L2334.13,783.112 C2334.13,783.912 2334.73,784.512 2335.53,784.512 L2335.83,784.512 L2339.13,783.812 L2339.13,798.712 L2341.93,798.712 L2341.93,783.212 L2350.83,781.412 L2350.83,795.512 L2353.63,795.512 L2353.63,780.812 L2357.43,780.112 C2358.03,780.012 2358.53,779.312 2358.53,778.712 L2358.53,772.812 C2358.53,772.012 2357.93,771.412 2357.13,771.412 L2356.93,771.412 L2353.63,772.112 L2353.63,755.612 L2357.43,754.912 M2341.93,774.612 L2341.93,758.012 L2350.83,756.212 L2350.83,772.712 L2341.93,774.612 "/>
<path class="Accidental" d="M2490.16,767.413 C2490.76,767.313 2491.26,766.613 2491.26,766.013 L2491.26,760.113 C2491.26,759.313 2490.66,758.713 2489.86,758.713 L2489.66,758.713 L2486.36,759.413 L2486.36,744.513 L2483.56,744.513 L2483.56,760.013 L2474.66,761.813 L2474.66,747.713 L2471.86,747.713 L2471.86,762.413 L2467.96,763.213 C2467.36,763.313 2466.86,764.013 2466.86,764.613 L2466.86,764.813 L2466.86,770.613 L2466.86,770.413 C2466.86,771.213 2467.46,771.813 2468.26,771.813 L2468.56,771.813 L2471.86,771.113 L2471.86,787.613 L2467.96,788.413 C2467.36,788.513 2466.86,789.213 2466.86,789.813 L2466.86,795.613 C2466.86,796.413 2467.46,797.013 2468.26,797.013 L2468.56,797.013 L2471.86,796.313 L2471.86,811.213 L2474.66,811.213 L2474.66,795.713 L2483.56,793.913 L2483.56,808.013 L2486.36,808.013 L2486.36,793.313 L2490.16,792.613 C2490.76,792.513 2491.26,791.813 2491.26,791.213 L2491.26,785.313 C2491.26,784.513 2490.66,783.913 2489.86,783.913 L2489.66,783.913 L2486.36,784.613 L2486.36,768.113 L2490.16,767.413 M2474.66,787.113 L2474.66,770.513 L2483.56,768.713 L2483.56,785.213 L2474.66,787.113 "/>
<polyline class="LedgerLine" fill="none" stroke="#000000" stroke-width="4.00" stroke-linejoin="bevel" points="1470.86,890.52 1520.85,890.52"/>
<polyline class="LedgerLine" fill="none" stroke="#000000" stroke-width="4.00" stroke-linejoin="bevel" points="485.653,778.013 535.648,778.013"/>
<polyline class="LedgerLine" fill="none" stroke="#000000" stroke-width="4.00" stroke-linejoin="bevel" points="2497.51,778.013 2547.5,778.013"/>
<polyline class="Stem" fill="none" stroke="#000000" stroke-width="2.75" stroke-linejoin="bevel" points="525.522,974.665 525.522,896.77"/>
<polyline class="Stem" fill="none" stroke="#000000" stroke-width="2.75" stroke-linejoin="bevel" points="632.334,969.045 632.334,1043.65"/>
<polyline class="Stem" fill="none" stroke="#000000" stroke-width="2.75" stroke-linejoin="bevel" points="768.89,956.544 768.89,1034.28"/>
<polyline class="Stem" fill="none" stroke="#000000" stroke-width="2.75" stroke-linejoin="bevel" points="905.445,944.043 905.445,1024.9"/>
<polyline class="Stem" fill="none" stroke="#000000" stroke-width="2.75" stroke-linejoin="bevel" points="1098.9,931.542 1098.9,1015.53"/>
<polyline class="Stem" fill="none" stroke="#000000" stroke-width="2.75" stroke-linejoin="bevel" points="1226.26,919.042 1226.26,1003.03"/>
<polyline class="Stem" fill="none" stroke="#000000" stroke-width="2.75" stroke-linejoin="bevel" points="1353.62,906.541 1353.62,990.526"/>
<polyline class="Stem" fill="none" stroke="#000000" stroke-width="2.75" stroke-linejoin="bevel" points="1480.99,894.04 1480.99,978.025"/>
<polyline class="Stem" fill="none" stroke="#000000" stroke-width="2.75" stroke-linejoin="bevel" points="1645.35,906.541 1645.35,990.526"/>
<polyline class="Stem" fill="none" stroke="#000000" stroke-width="2.75" stroke-linejoin="bevel" points="1780.93,919.042 1780.93,1003.03"/>
<polyline class="Stem" fill="none" stroke="#000000" stroke-width="2.75" stroke-linejoin="bevel" points="1916.51,931.542 1916.51,1015.53"/>
<polyline class="Stem" fill="none" stroke="#000000" stroke-width="2.75" stroke-linejoin="bevel" points="2052.09,944.043 2052.09,1024.9"/>
<polyline class="Stem" fill="none" stroke="#000000" stroke-width="2.75" stroke-linejoin="bevel" points="2224.67,956.544 2224.67,1034.28"/>
<polyline class="Stem" fill="none" stroke="#000000" stroke-width="2.75" stroke-linejoin="bevel" points="2366.15,969.045 2366.15,1043.65"/>
<polyline class="Stem" fill="none" stroke="#000000" stroke-width="2.75" stroke-linejoin="bevel" points="2537.38,974.585 2537.38,896.77"/>
<polyline class="Stem" fill="none" stroke="#000000" stroke-width="2.75" stroke-linejoin="bevel" points="525.522,774.652 525.522,690.507"/>
<polyline class="Stem" fill="none" stroke="#000000" stroke-width="2.75" stroke-linejoin="bevel" points="662.078,762.152 662.078,678.006"/>
<polyline class="Stem" fill="none" stroke="#000000" stroke-width="2.75" stroke-linejoin="bevel" points="798.634,749.651 798.634,665.506"/>
<polyline class="Stem" fill="none" stroke="#000000" stroke-width="2.75" stroke-linejoin="bevel" points="935.19,737.15 935.19,653.005"/>
<polyline class="Stem" fill="none" stroke="#000000" stroke-width="2.75" stroke-linejoin="bevel" points="1128.65,724.649 1128.65,643.629"/>
<polyline class="Stem" fill="none" stroke="#000000" stroke-width="2.75" stroke-linejoin="bevel" points="1256.01,712.148 1256.01,634.254"/>
<polyline class="Stem" fill="none" stroke="#000000" stroke-width="2.75" stroke-linejoin="bevel" points="1353.62,706.528 1353.62,781.138"/>
<polyline class="Stem" fill="none" stroke="#000000" stroke-width="2.75" stroke-linejoin="bevel" points="1480.99,694.027 1480.99,771.762"/>
<polyline class="Stem" fill="none" stroke="#000000" stroke-width="2.75" stroke-linejoin="bevel" points="1645.35,706.528 1645.35,781.138"/>
<polyline class="Stem" fill="none" stroke="#000000" stroke-width="2.75" stroke-linejoin="bevel" points="1810.67,712.148 1810.67,634.254"/>
<polyline class="Stem" fill="none" stroke="#000000" stroke-width="2.75" stroke-linejoin="bevel" points="1946.25,724.649 1946.25,643.629"/>
<polyline class="Stem" fill="none" stroke="#000000" stroke-width="2.75" stroke-linejoin="bevel" points="2081.83,737.15 2081.83,653.005"/>
<polyline class="Stem" fill="none" stroke="#000000" stroke-width="2.75" stroke-linejoin="bevel" points="2254.42,749.651 2254.42,665.506"/>
<polyline class="Stem" fill="none" stroke="#000000" stroke-width="2.75" stroke-linejoin="bevel" points="2395.9,762.152 2395.9,678.006"/>
<polyline class="Stem" fill="none" stroke="#000000" stroke-width="2.75" stroke-linejoin="bevel" points="2537.38,774.572 2537.38,690.507"/>
<path class="Note" d="M525.903,969.825 C524.403,967.125 521.503,965.425 517.603,965.025 C517.003,964.925 516.503,964.925 515.903,964.925 C512.403,964.925 508.603,965.925 505.103,967.825 C498.503,971.425 494.403,977.325 494.403,982.425 C494.403,983.825 494.603,985.125 495.303,986.325 C496.803,989.025 499.803,990.725 503.703,991.125 C504.303,991.225 504.803,991.225 505.403,991.225 C508.903,991.225 512.603,990.225 516.103,988.325 C522.703,984.725 526.903,978.925 526.903,973.825 C526.903,972.425 526.603,971.025 525.903,969.825"/>
<path class="Note" d="M662.459,957.324 C660.959,954.624 658.059,952.924 654.159,952.524 C653.559,952.424 653.059,952.424 652.459,952.424 C648.959,952.424 645.159,953.424 641.659,955.324 C635.059,958.924 630.959,964.824 630.959,969.924 C630.959,971.324 631.159,972.624 631.859,973.824 C633.359,976.524 636.359,978.224 640.259,978.624 C640.859,978.724 641.359,978.724 641.959,978.724 C645.459,978.724 649.159,977.724 652.659,975.824 C659.259,972.224 663.459,966.424 663.459,961.324 C663.459,959.924 663.159,958.524 662.459,957.324"/>
<path class="Note" d="M799.015,944.824 C797.515,942.124 794.615,940.424 790.715,940.024 C790.115,939.924 789.615,939.924 789.015,939.924 C785.515,939.924 781.715,940.924 778.215,942.824 C771.615,946.424 767.515,952.324 767.515,957.424 C767.515,958.824 767.715,960.124 768.415,961.324 C769.915,964.024 772.915,965.724 776.815,966.124 C777.415,966.224 777.915,966.224 778.515,966.224 C782.015,966.224 785.715,965.224 789.215,963.324 C795.815,959.724 800.015,953.924 800.015,948.824 C800.015,947.424 799.715,946.024 799.015,944.824"/>
<path class="Note" d="M935.57,932.323 C934.07,929.623 931.17,927.923 927.27,927.523 C926.67,927.423 926.17,927.423 925.57,927.423 C922.07,927.423 918.27,928.423 914.77,930.323 C908.17,933.923 904.07,939.823 904.07,944.923 C904.07,946.323 904.27,947.623 904.97,948.823 C906.47,951.523 909.47,953.223 913.37,953.623 C913.97,953.723 914.47,953.723 915.07,953.723 C918.57,953.723 922.27,952.723 925.77,950.823 C932.37,947.223 936.57,941.423 936.57,936.323 C936.57,934.923 936.27,933.523 935.57,932.323"/>
<path class="Note" d="M1129.03,919.822 C1127.53,917.122 1124.63,915.422 1120.73,915.022 C1120.13,914.922 1119.63,914.922 1119.03,914.922 C1115.53,914.922 1111.73,915.922 1108.23,917.822 C1101.63,921.422 1097.53,927.322 1097.53,932.422 C1097.53,933.822 1097.73,935.122 1098.43,936.322 C1099.93,939.022 1102.93,940.722 1106.83,941.122 C1107.43,941.222 1107.93,941.222 1108.53,941.222 C1112.03,941.222 1115.73,940.222 1119.23,938.322 C1125.83,934.722 1130.03,928.922 1130.03,923.822 C1130.03,922.422 1129.73,921.022 1129.03,919.822"/>
<path class="Note" d="M1256.39,907.321 C1254.89,904.621 1251.99,902.921 1248.09,902.521 C1247.49,902.421 1246.99,902.421 1246.39,902.421 C1242.89,902.421 1239.09,903.421 1235.59,905.321 C1228.99,908.921 1224.89,914.821 1224.89,919.921 C1224.89,921.321 1225.09,922.621 1225.79,923.821 C1227.29,926.521 1230.29,928.221 1234.19,928.621 C1234.79,928.721 1235.29,928.721 1235.89,928.721 C1239.39,928.721 1243.09,927.721 1246.59,925.821 C1253.19,922.221 1257.39,916.421 1257.39,911.321 C1257.39,909.921 1257.09,908.521 1256.39,907.321"/>
<path class="Note" d="M1383.75,894.82 C1382.25,892.12 1379.35,890.42 1375.45,890.02 C1374.85,889.92 1374.35,889.92 1373.75,889.92 C1370.25,889.92 1366.45,890.92 1362.95,892.82 C1356.35,896.42 1352.25,902.32 1352.25,907.42 C1352.25,908.82 1352.45,910.12 1353.15,911.32 C1354.65,914.02 1357.65,915.72 1361.55,916.12 C1362.15,916.22 1362.65,916.22 1363.25,916.22 C1366.75,916.22 1370.45,915.22 1373.95,913.32 C1380.55,909.72 1384.75,903.92 1384.75,898.82 C1384.75,897.42 1384.45,896.02 1383.75,894.82"/>
<path class="Note" d="M1511.11,882.32 C1509.61,879.62 1506.71,877.92 1502.81,877.52 C1502.21,877.42 1501.71,877.42 1501.11,877.42 C1497.61,877.42 1493.81,878.42 1490.31,880.32 C1483.71,883.92 1479.61,889.82 1479.61,894.92 C1479.61,896.32 1479.81,897.62 1480.51,898.82 C1482.01,901.52 1485.01,903.22 1488.91,903.62 C1489.51,903.72 1490.01,903.72 1490.61,903.72 C1494.11,903.72 1497.81,902.72 1501.31,900.82 C1507.91,897.22 1512.11,891.42 1512.11,886.32 C1512.11,884.92 1511.81,883.52 1511.11,882.32"/>
<path class="Note" d="M1675.47,894.82 C1673.97,892.12 1671.07,890.42 1667.17,890.02 C1666.57,889.92 1666.07,889.92 1665.47,889.92 C1661.97,889.92 1658.17,890.92 1654.67,892.82 C1648.07,896.42 1643.97,902.32 1643.97,907.42 C1643.97,908.82 1644.17,910.12 1644.87,911.32 C1646.37,914.02 1649.37,915.72 1653.27,916.12 C1653.87,916.22 1654.37,916.22 1654.97,916.22 C1658.47,916.22 1662.17,915.22 1665.67,913.32 C1672.27,909.72 1676.47,903.92 1676.47,898.82 C1676.47,897.42 1676.17,896.02 1675.47,894.82"/>
<path class="Note" d="M1811.05,907.321 C1809.55,904.621 1806.65,902.921 1802.75,902.521 C1802.15,902.421 1801.65,902.421 1801.05,902.421 C1797.55,902.421 1793.75,903.421 1790.25,905.321 C1783.65,908.921 1779.55,914.821 1779.55,919.921 C1779.55,921.321 1779.75,922.621 1780.45,923.821 C1781.95,926.521 1784.95,928.221 1788.85,928.621 C1789.45,928.721 1789.95,928.721 1790.55,928.721 C1794.05,928.721 1797.75,927.721 1801.25,925.821 C1807.85,922.221 1812.05,916.421 1812.05,911.321 C1812.05,909.921 1811.75,908.521 1811.05,907.321"/>
<path class="Note" d="M1946.63,919.822 C1945.13,917.122 1942.23,915.422 1938.33,915.022 C1937.73,914.922 1937.23,914.922 1936.63,914.922 C1933.13,914.922 1929.33,915.922 1925.83,917.822 C1919.23,921.422 1915.13,927.322 1915.13,932.422 C1915.13,933.822 1915.33,935.122 1916.03,936.322 C1917.53,939.022 1920.53,940.722 1924.43,941.122 C1925.03,941.222 1925.53,941.222 1926.13,941.222 C1929.63,941.222 1933.33,940.222 1936.83,938.322 C1943.43,934.722 1947.63,928.922 1947.63,923.822 C1947.63,922.422 1947.33,921.022 1946.63,919.822"/>
<path class="Note" d="M2082.21,932.323 C2080.71,929.623 2077.81,927.923 2073.91,927.523 C2073.31,927.423 2072.81,927.423 2072.21,927.423 C2068.71,927.423 2064.91,928.423 2061.41,930.323 C2054.81,933.923 2050.71,939.823 2050.71,944.923 C2050.71,946.323 2050.91,947.623 2051.61,948.823 C2053.11,951.523 2056.11,953.223 2060.01,953.623 C2060.61,953.723 2061.11,953.723 2061.71,953.723 C2065.21,953.723 2068.91,952.723 2072.41,950.823 C2079.01,947.223 2083.21,941.423 2083.21,936.323 C2083.21,934.923 2082.91,933.523 2082.21,932.323"/>
<path class="Note" d="M2254.8,944.824 C2253.3,942.124 2250.4,940.424 2246.5,940.024 C2245.9,939.924 2245.4,939.924 2244.8,939.924 C2241.3,939.924 2237.5,940.924 2234,942.824 C2227.4,946.424 2223.3,952.324 2223.3,957.424 C2223.3,958.824 2223.5,960.124 2224.2,961.324 C2225.7,964.024 2228.7,965.724 2232.6,966.124 C2233.2,966.224 2233.7,966.224 2234.3,966.224 C2237.8,966.224 2241.5,965.224 2245,963.324 C2251.6,959.724 2255.8,953.924 2255.8,948.824 C2255.8,947.424 2255.5,946.024 2254.8,944.824"/>
<path class="Note" d="M2396.28,957.324 C2394.78,954.624 2391.88,952.924 2387.98,952.524 C2387.38,952.424 2386.88,952.424 2386.28,952.424 C2382.78,952.424 2378.98,953.424 2375.48,955.324 C2368.88,958.924 2364.78,964.824 2364.78,969.924 C2364.78,971.324 2364.98,972.624 2365.68,973.824 C2367.18,976.524 2370.18,978.224 2374.08,978.624 C2374.68,978.724 2375.18,978.724 2375.78,978.724 C2379.28,978.724 2382.98,977.724 2386.48,975.824 C2393.08,972.224 2397.28,966.424 2397.28,961.324 C2397.28,959.924 2396.98,958.524 2396.28,957.324"/>
<path class="Note" d="M2537.76,969.825 C2536.26,967.125 2533.36,965.425 2529.46,965.025 C2528.86,964.925 2528.36,964.925 2527.76,964.925 C2524.26,964.925 2520.46,965.925 2516.96,967.825 C2510.36,971.425 2506.26,977.225 2506.26,982.325 C2506.26,983.725 2506.66,985.125 2507.36,986.325 C2508.86,989.125 2511.66,990.725 2515.56,991.125 C2516.16,991.225 2516.66,991.225 2517.26,991.225 C2520.76,991.225 2524.56,990.225 2528.06,988.325 C2534.66,984.725 2538.76,978.825 2538.76,973.725 C2538.76,972.325 2538.46,971.025 2537.76,969.825 M2533.56,976.125 C2531.86,977.925 2528.66,980.225 2525.06,982.325 C2521.46,984.425 2517.76,986.125 2515.46,986.825 C2514.96,986.925 2514.36,987.025 2513.86,987.025 C2512.36,987.025 2511.06,986.325 2510.36,985.225 C2510.06,984.625 2509.86,984.025 2509.86,983.425 C2509.86,982.325 2510.36,981.225 2511.46,980.025 C2513.16,978.225 2516.36,975.825 2519.96,973.725 C2523.56,971.625 2527.26,969.925 2529.66,969.325 L2529.86,969.325 C2530.46,969.125 2530.96,969.025 2531.46,969.025 C2532.86,969.025 2533.96,969.625 2534.66,970.925 C2534.96,971.525 2535.16,972.025 2535.16,972.625 C2535.16,973.925 2534.46,975.225 2533.56,976.125"/>
<path class="Note" d="M525.903,769.813 C524.403,767.113 521.503,765.413 517.603,765.013 C517.003,764.913 516.503,764.913 515.903,764.913 C512.403,764.913 508.603,765.913 505.103,767.813 C498.503,771.413 494.403,777.313 494.403,782.413 C494.403,783.813 494.603,785.113 495.303,786.313 C496.803,789.013 499.803,790.713 503.703,791.113 C504.303,791.213 504.803,791.213 505.403,791.213 C508.903,791.213 512.603,790.213 516.103,788.313 C522.703,784.713 526.903,778.913 526.903,773.813 C526.903,772.413 526.603,771.013 525.903,769.813"/>
<path class="Note" d="M662.459,757.312 C660.959,754.612 658.059,752.912 654.159,752.512 C653.559,752.412 653.059,752.412 652.459,752.412 C648.959,752.412 645.159,753.412 641.659,755.312 C635.059,758.912 630.959,764.812 630.959,769.912 C630.959,771.312 631.159,772.612 631.859,773.812 C633.359,776.512 636.359,778.212 640.259,778.612 C640.859,778.712 641.359,778.712 641.959,778.712 C645.459,778.712 649.159,777.712 652.659,775.812 C659.259,772.212 663.459,766.412 663.459,761.312 C663.459,759.912 663.159,758.512 662.459,757.312"/>
<path class="Note" d="M799.015,744.811 C797.515,742.111 794.615,740.411 790.715,740.011 C790.115,739.911 789.615,739.911 789.015,739.911 C785.515,739.911 781.715,740.911 778.215,742.811 C771.615,746.411 767.515,752.311 767.515,757.411 C767.515,758.811 767.715,760.111 768.415,761.311 C769.915,764.011 772.915,765.711 776.815,766.111 C777.415,766.211 777.915,766.211 778.515,766.211 C782.015,766.211 785.715,765.211 789.215,763.311 C795.815,759.711 800.015,753.911 800.015,748.811 C800.015,747.411 799.715,746.011 799.015,744.811"/>
<path class="Note" d="M935.57,732.31 C934.07,729.61 931.17,727.91 927.27,727.51 C926.67,727.41 926.17,727.41 925.57,727.41 C922.07,727.41 918.27,728.41 914.77,730.31 C908.17,733.91 904.07,739.81 904.07,744.91 C904.07,746.31 904.27,747.61 904.97,748.81 C906.47,751.51 909.47,753.21 913.37,753.61 C913.97,753.71 914.47,753.71 915.07,753.71 C918.57,753.71 922.27,752.71 925.77,750.81 C932.37,747.21 936.57,741.41 936.57,736.31 C936.57,734.91 936.27,733.51 935.57,732.31"/>
<path class="Note" d="M1129.03,719.809 C1127.53,717.109 1124.63,715.409 1120.73,715.009 C1120.13,714.909 1119.63,714.909 1119.03,714.909 C1115.53,714.909 1111.73,715.909 1108.23,717.809 C1101.63,721.409 1097.53,727.309 1097.53,732.409 C1097.53,733.809 1097.73,735.109 1098.43,736.309 C1099.93,739.009 1102.93,740.709 1106.83,741.109 C1107.43,741.209 1107.93,741.209 1108.53,741.209 C1112.03,741.209 1115.73,740.209 1119.23,738.309 C1125.83,734.709 1130.03,728.909 1130.03,723.809 C1130.03,722.409 1129.73,721.009 1129.03,719.809"/>
<path class="Note" d="M1256.39,707.309 C1254.89,704.609 1251.99,702.909 1248.09,702.509 C1247.49,702.409 1246.99,702.409 1246.39,702.409 C1242.89,702.409 1239.09,703.409 1235.59,705.309 C1228.99,708.909 1224.89,714.809 1224.89,719.909 C1224.89,721.309 1225.09,722.609 1225.79,723.809 C1227.29,726.509 1230.29,728.209 1234.19,728.609 C1234.79,728.709 1235.29,728.709 1235.89,728.709 C1239.39,728.709 1243.09,727.709 1246.59,725.809 C1253.19,722.209 1257.39,716.409 1257.39,711.309 C1257.39,709.909 1257.09,708.509 1256.39,707.309"/>
<path class="Note" d="M1383.75,694.808 C1382.25,692.108 1379.35,690.408 1375.45,690.008 C1374.85,689.908 1374.35,689.908 1373.75,689.908 C1370.25,689.908 1366.45,690.908 1362.95,692.808 C1356.35,696.408 1352.25,702.308 1352.25,707.408 C1352.25,708.808 1352.45,710.108 1353.15,711.308 C1354.65,714.008 1357.65,715.708 1361.55,716.108 C1362.15,716.208 1362.65,716.208 1363.25,716.208 C1366.75,716.208 1370.45,715.208 1373.95,713.308 C1380.55,709.708 1384.75,703.908 1384.75,698.808 C1384.75,697.408 1384.45,696.008 1383.75,694.808"/>
<path class="Note" d="M1511.11,682.307 C1509.61,679.607 1506.71,677.907 1502.81,677.507 C1502.21,677.407 1501.71,677.407 1501.11,677.407 C1497.61,677.407 1493.81,678.407 1490.31,680.307 C1483.71,683.907 1479.61,689.807 1479.61,694.907 C1479.61,696.307 1479.81,697.607 1480.51,698.807 C1482.01,701.507 1485.01,703.207 1488.91,703.607 C1489.51,703.707 1490.01,703.707 1490.61,703.707 C1494.11,703.707 1497.81,702.707 1501.31,700.807 C1507.91,697.207 1512.11,691.407 1512.11,686.307 C1512.11,684.907 1511.81,683.507 1511.11,682.307"/>
<path class="Note" d="M1675.47,694.808 C1673.97,692.108 1671.07,690.408 1667.17,690.008 C1666.57,689.908 1666.07,689.908 1665.47,689.908 C1661.97,689.908 1658.17,690.908 1654.67,692.808 C1648.07,696.408 1643.97,702.308 1643.97,707.408 C1643.97,708.808 1644.17,710.108 1644.87,711.308 C1646.37,714.008 1649.37,715.708 1653.27,716.108 C1653.87,716.208 1654.37,716.208 1654.97,716.208 C1658.47,716.208 1662.17,715.208 1665.67,713.308 C1672.27,709.708 1676.47,703.908 1676.47,698.808 C1676.47,697.408 1676.17,696.008 1675.47,694.808"/>
<path class="Note" d="M1811.05,707.309 C1809.55,704.609 1806.65,702.909 1802.75,702.509 C1802.15,702.409 1801.65,702.409 1801.05,702.409 C1797.55,702.409 1793.75,703.409 1790.25,705.309 C1783.65,708.909 1779.55,714.809 1779.55,719.909 C1779.55,721.309 1779.75,722.609 1780.45,723.809 C1781.95,726.509 1784.95,728.209 1788.85,728.609 C1789.45,728.709 1789.95,728.709 1790.55,728.709 C1794.05,728.709 1797.75,727.709 1801.25,725.809 C1807.85,722.209 1812.05,716.409 1812.05,711.309 C1812.05,709.909 1811.75,708.509 1811.05,707.309"/>
<path class="Note" d="M1946.63,719.809 C1945.13,717.109 1942.23,715.409 1938.33,715.009 C1937.73,714.909 1937.23,714.909 1936.63,714.909 C1933.13,714.909 1929.33,715.909 1925.83,717.809 C1919.23,721.409 1915.13,727.309 1915.13,732.409 C1915.13,733.809 1915.33,735.109 1916.03,736.309 C1917.53,739.009 1920.53,740.709 1924.43,741.109 C1925.03,741.209 1925.53,741.209 1926.13,741.209 C1929.63,741.209 1933.33,740.209 1936.83,738.309 C1943.43,734.709 1947.63,728.909 1947.63,723.809 C1947.63,722.409 1947.33,721.009 1946.63,719.809"/>
<path class="Note" d="M2082.21,732.31 C2080.71,729.61 2077.81,727.91 2073.91,727.51 C2073.31,727.41 2072.81,727.41 2072.21,727.41 C2068.71,727.41 2064.91,728.41 2061.41,730.31 C2054.81,733.91 2050.71,739.81 2050.71,744.91 C2050.71,746.31 2050.91,747.61 2051.61,748.81 C2053.11,751.51 2056.11,753.21 2060.01,753.61 C2060.61,753.71 2061.11,753.71 2061.71,753.71 C2065.21,753.71 2068.91,752.71 2072.41,750.81 C2079.01,747.21 2083.21,741.41 2083.21,736.31 C2083.21,734.91 2082.91,733.51 2082.21,732.31"/>
<path class="Note" d="M2254.8,744.811 C2253.3,742.111 2250.4,740.411 2246.5,740.011 C2245.9,739.911 2245.4,739.911 2244.8,739.911 C2241.3,739.911 2237.5,740.911 2234,742.811 C2227.4,746.411 2223.3,752.311 2223.3,757.411 C2223.3,758.811 2223.5,760.111 2224.2,761.311 C2225.7,764.011 2228.7,765.711 2232.6,766.111 C2233.2,766.211 2233.7,766.211 2234.3,766.211 C2237.8,766.211 2241.5,765.211 2245,763.311 C2251.6,759.711 2255.8,753.911 2255.8,748.811 C2255.8,747.411 2255.5,746.011 2254.8,744.811"/>
<path class="Note" d="M2396.28,757.312 C2394.78,754.612 2391.88,752.912 2387.98,752.512 C2387.38,752.412 2386.88,752.412 2386.28,752.412 C2382.78,752.412 2378.98,753.412 2375.48,755.312 C2368.88,758.912 2364.78,764.812 2364.78,769.912 C2364.78,771.312 2364.98,772.612 2365.68,773.812 C2367.18,776.512 2370.18,778.212 2374.08,778.612 C2374.68,778.712 2375.18,778.712 2375.78,778.712 C2379.28,778.712 2382.98,777.712 2386.48,775.812 C2393.08,772.212 2397.28,766.412 2397.28,761.312 C2397.28,759.912 2396.98,758.512 2396.28,757.312"/>
<path class="Note" d="M2537.76,769.813 C2536.26,767.113 2533.36,765.413 2529.46,765.013 C2528.86,764.913 2528.36,764.913 2527.76,764.913 C2524.26,764.913 2520.46,765.913 2516.96,767.813 C2510.36,771.413 2506.26,777.213 2506.26,782.313 C2506.26,783.713 2506.66,785.113 2507.36,786.313 C2508.86,789.113 2511.66,790.713 2515.56,791.113 C2516.16,791.213 2516.66,791.213 2517.26,791.213 C2520.76,791.213 2524.56,790.213 2528.06,788.313 C2534.66,784.713 2538.76,778.813 2538.76,773.713 C2538.76,772.313 2538.46,771.013 2537.76,769.813 M2533.56,776.113 C2531.86,777.913 2528.66,780.213 2525.06,782.313 C2521.46,784.413 2517.76,786.113 2515.46,786.813 C2514.96,786.913 2514.36,787.013 2513.86,787.013 C2512.36,787.013 2511.06,786.313 2510.36,785.213 C2510.06,784.613 2509.86,784.013 2509.86,783.413 C2509.86,782.313 2510.36,781.213 2511.46,780.013 C2513.16,778.213 2516.36,775.813 2519.96,773.713 C2523.56,771.613 2527.26,769.913 2529.66,769.313 L2529.86,769.313 C2530.46,769.113 2530.96,769.013 2531.46,769.013 C2532.86,769.013 2533.96,769.613 2534.66,770.913 C2534.96,771.513 2535.16,772.013 2535.16,772.613 C2535.16,773.913 2534.46,775.213 2533.56,776.113"/>
<path class="Clef" d="M297,915.423 C289.4,915.423 283.3,919.823 283.2,919.823 C277.4,924.123 275.1,929.223 274.2,932.723 C273.7,934.523 273.5,936.323 273.5,938.023 C273.5,940.423 273.9,942.623 274.8,944.523 C276,947.223 278.3,949.123 281.3,950.123 C282.5,950.523 283.8,950.723 285.1,950.723 C287.3,950.723 289.6,950.123 291.5,949.023 C294.6,947.323 296.5,943.723 296.5,939.823 C296.5,936.323 294.7,933.123 291.7,931.223 C289.6,929.823 287.6,929.423 285.9,929.423 C284.7,929.423 283.6,929.623 282.7,929.923 C281.7,930.323 280,931.323 279.2,932.023 C279.5,930.123 280.7,927.223 281.8,925.623 C282.9,924.023 285.1,922.023 286.8,921.123 C289.3,919.723 292.5,919.123 296,919.123 C306.2,919.123 311.2,927.323 311.2,944.123 C311.2,953.423 307.7,962.323 304.7,968.223 C301.4,974.823 297,981.123 293.1,984.623 C282.7,994.123 272.9,998.623 272.8,998.623 C272.8,998.623 271.3,999.523 271.7,1001.02 C272,1002.02 272.9,1002.22 273.5,1002.22 C273.6,1002.22 273.9,1002.12 274,1002.12 C274.1,1002.12 285.5,997.423 294.6,990.323 C299.7,986.623 304.3,982.623 308.3,978.323 C311.9,974.423 315,970.223 317.5,966.023 C321.9,958.523 324.4,950.723 324.4,944.023 C324.4,935.723 322.2,928.823 318.1,923.923 C313.4,918.323 306.3,915.423 297,915.423 M328.4,928.123 C328.4,930.923 330.6,933.123 333.2,933.123 C335.8,933.123 338,930.923 338,928.123 C338,925.323 335.8,923.023 333.2,923.023 C330.6,923.023 328.4,925.323 328.4,928.123 M328.4,952.823 C328.4,955.623 330.6,957.923 333.2,957.923 C335.8,957.923 338,955.623 338,952.823 C338,950.023 335.8,947.723 333.2,947.723 C330.6,947.723 328.4,950.023 328.4,952.823"/>
<path class="Clef" d="M335,722.109 C333.8,716.709 331.1,712.809 330.3,711.809 C327.1,707.509 323.1,704.709 318.4,703.309 C316.1,702.609 314,702.409 312,702.409 C311.3,702.409 310.6,702.409 309.9,702.509 C308.9,696.509 307.8,690.609 306.9,685.209 C312.5,679.009 316.2,673.109 318.6,668.709 C322.2,662.009 323.6,657.309 323.7,657.109 C324.9,654.109 325.6,650.309 325.6,645.809 C325.6,643.109 325.3,640.209 324.9,637.209 C323.8,630.109 321.6,623.409 319.1,619.709 C317.8,617.809 316.6,616.709 315.4,616.709 C314.2,616.709 311.7,617.909 308.8,620.709 C306.5,622.909 303.2,626.809 300.6,632.809 C298.3,638.209 297.6,645.109 297.6,651.009 C297.6,652.809 297.7,654.509 297.8,656.109 C298,659.709 298.7,665.509 299.3,669.109 C299.3,669.209 299.6,670.709 300,673.309 L299.3,674.009 C298.3,675.009 297.1,676.109 295.7,677.509 C294.8,678.409 293.9,679.209 292.9,680.209 C284.4,688.409 271.6,700.809 271.6,719.909 C271.6,724.609 272.5,729.009 274.3,733.009 C275.9,736.609 278.2,739.909 281.1,742.809 C288.6,750.209 298.8,753.409 305.9,753.409 L306.5,753.409 C309.4,753.309 312.1,753.009 314.5,752.609 C316.3,762.209 317.5,769.309 317.5,774.609 C317.5,781.109 315.9,785.009 312,787.809 C309.6,789.509 306.7,790.609 303.6,790.709 L302.8,790.709 C301.3,790.709 298.8,790.309 297.3,789.909 C297.3,789.909 297,789.809 297,789.609 C297,789.409 297.4,789.409 297.4,789.409 C299.3,789.009 302.9,787.709 305.3,784.409 C306.4,782.909 307.1,780.609 307.1,778.109 C307.1,776.509 306.8,774.809 306.1,773.309 C305,770.909 302.4,767.909 296.8,767.509 L295.7,767.509 C293.6,767.509 291.8,768.009 290.1,769.009 C288.3,770.109 286.7,771.809 285.7,773.809 C284.6,775.809 284.1,778.009 284.1,780.209 C284.1,783.109 285,785.809 286.8,788.009 C289.8,791.609 294.5,793.909 299.9,794.509 C300.6,794.609 301.7,794.709 302.4,794.709 C306.8,794.709 311.2,793.509 314.8,791.309 C318.5,788.709 320.6,784.709 321.3,779.109 C321.5,777.809 321.5,776.409 321.5,774.909 C321.5,771.009 321,766.309 320,760.509 C319.6,758.409 319.2,755.409 318.5,751.609 C324.3,749.709 328.4,746.009 332.2,740.209 C334.5,736.209 335.6,732.109 335.6,727.809 C335.6,725.909 335.4,724.009 335,722.109 M304.8,644.209 C306.6,638.509 309.3,635.109 311.3,633.409 C313.1,631.909 314.7,631.209 315.6,631.209 C315.7,631.209 315.9,631.309 316,631.309 C316.3,631.409 316.7,631.909 317.1,632.609 C318,634.409 318.9,637.709 318.9,641.409 C318.9,643.309 318.7,645.309 318.1,647.109 C315.9,653.909 311.3,661.209 304.3,668.909 C304.1,667.809 303.9,666.809 303.8,665.809 C303.3,662.609 303,659.409 303,656.509 C303,652.009 303.6,647.909 304.8,644.209 M300.8,748.309 C296.2,747.109 291.7,744.609 287.9,741.109 C286.6,739.909 284.8,737.709 283.3,734.309 C282,731.309 281.3,728.209 281.3,724.809 L281.3,724.109 C281.4,719.409 282.7,714.609 285.2,709.809 C288.1,704.209 292.6,698.709 298.7,693.409 C300.2,692.109 301.6,690.809 302.9,689.509 C303.7,693.809 304.4,698.509 305.3,703.409 C301.4,704.709 296.7,707.709 293.6,713.409 C291.2,717.909 290.5,721.809 290.5,725.009 C290.5,726.509 290.7,727.909 290.9,729.009 C291.8,733.509 294.4,737.209 297.9,739.309 C298.7,739.809 302,741.509 304,741.509 C304.3,741.509 304.6,741.509 304.8,741.409 C305.1,741.309 305.4,741.109 305.5,740.809 C305.6,740.609 305.6,740.409 305.6,740.209 C305.6,739.409 304.8,738.809 303.5,738.009 C302.9,737.609 302.2,737.209 301.5,736.709 C298.9,734.709 297.4,731.609 297.4,728.209 C297.4,727.209 297.6,726.309 297.8,725.309 C298.3,723.309 300,720.509 301.5,719.109 C303.2,717.609 305.2,716.409 307.6,715.809 C309.6,727.009 311.7,738.109 313.3,746.509 C313.4,747.209 313.6,747.909 313.7,748.609 C311.7,749.009 309.7,749.209 307.8,749.209 C305.4,749.209 303.1,748.909 300.8,748.309 M326.5,738.109 C325.3,741.309 322.8,745.309 317.7,747.409 C317.6,747.009 317.6,746.509 317.5,746.109 C316,737.309 314.1,726.409 312.1,715.109 L313.1,715.109 C322.8,715.109 326.7,722.309 327.6,726.909 C327.8,727.809 327.9,729.009 327.9,730.309 C327.9,732.609 327.5,735.409 326.5,738.109"/>
<path class="TimeSig" d="M365.2,953.922 L382,953.922 L382,961.222 L373.9,961.222 C373.1,961.222 372.5,961.822 372.5,962.622 L372.5,964.522 C372.5,965.322 373.1,965.822 373.9,965.822 L403.6,965.822 C404.4,965.822 405,965.322 405,964.522 L405,962.622 C405,961.822 404.4,961.222 403.6,961.222 L394.8,961.222 L394.8,953.922 L403.6,953.922 C404.4,953.922 405,953.322 405,952.522 L405,950.722 C405,949.922 404.4,949.322 403.6,949.322 L394.8,949.322 L394.8,933.622 C394.8,933.122 394.4,932.622 394,932.422 L392.9,931.822 C392.7,931.722 392.4,931.722 392.2,931.722 C391.9,931.722 391.5,931.822 391.3,932.022 L382.4,940.222 C382.2,940.422 382,940.922 382,941.222 L382,949.322 L370.7,949.322 C370.7,949.322 381.6,937.522 393.2,922.022 C394,920.922 393.6,919.922 393.4,919.722 L391.3,917.522 C391.1,917.322 390.6,917.122 390.3,917.122 L375.7,917.122 C375,917.122 374.5,917.722 374.4,918.322 C374.4,918.322 373.9,925.522 371.3,933.522 C368.7,941.522 365.9,946.322 363.3,949.922 C363.3,949.922 362.8,950.922 363.1,951.622 C363.4,952.322 364.1,953.422 364.1,953.422 C364.1,953.422 364.4,953.922 365.2,953.922"/>
<path class="TimeSig" d="M365.2,1002.53 L382,1002.53 L382,1009.83 L373.9,1009.83 C373.1,1009.83 372.5,1010.43 372.5,1011.23 L372.5,1013.13 C372.5,1013.93 373.1,1014.43 373.9,1014.43 L403.6,1014.43 C404.4,1014.43 405,1013.93 405,1013.13 L405,1011.23 C405,1010.43 404.4,1009.83 403.6,1009.83 L394.8,1009.83 L394.8,1002.53 L403.6,1002.53 C404.4,1002.53 405,1001.93 405,1001.13 L405,999.327 C405,998.527 404.4,997.927 403.6,997.927 L394.8,997.927 L394.8,982.227 C394.8,981.727 394.4,981.227 394,981.027 L392.9,980.427 C392.7,980.327 392.4,980.327 392.2,980.327 C391.9,980.327 391.5,980.427 391.3,980.627 L382.4,988.827 C382.2,989.027 382,989.527 382,989.827 L382,997.927 L370.7,997.927 C370.7,997.927 381.6,986.127 393.2,970.627 C394,969.527 393.6,968.527 393.4,968.327 L391.3,966.127 C391.1,965.927 390.6,965.727 390.3,965.727 L375.7,965.727 C375,965.727 374.5,966.327 374.4,966.927 C374.4,966.927 373.9,974.127 371.3,982.127 C368.7,990.127 365.9,994.927 363.3,998.527 C363.3,998.527 362.8,999.527 363.1,1000.23 C363.4,1000.93 364.1,1002.03 364.1,1002.03 C364.1,1002.03 364.4,1002.53 365.2,1002.53"/>
<path class="TimeSig" d="M365.2,691.406 L382,691.406 L382,698.706 L373.9,698.706 C373.1,698.706 372.5,699.306 372.5,700.106 L372.5,702.006 C372.5,702.806 373.1,703.306 373.9,703.306 L403.6,703.306 C404.4,703.306 405,702.806 405,702.006 L405,700.106 C405,699.306 404.4,698.706 403.6,698.706 L394.8,698.706 L394.8,691.406 L403.6,691.406 C404.4,691.406 405,690.806 405,690.006 L405,688.206 C405,687.406 404.4,686.806 403.6,686.806 L394.8,686.806 L394.8,671.106 C394.8,670.606 394.4,670.106 394,669.906 L392.9,669.306 C392.7,669.206 392.4,669.206 392.2,669.206 C391.9,669.206 391.5,669.306 391.3,669.506 L382.4,677.706 C382.2,677.906 382,678.406 382,678.706 L382,686.806 L370.7,686.806 C370.7,686.806 381.6,675.006 393.2,659.506 C394,658.406 393.6,657.406 393.4,657.206 L391.3,655.006 C391.1,654.806 390.6,654.606 390.3,654.606 L375.7,654.606 C375,654.606 374.5,655.206 374.4,655.806 C374.4,655.806 373.9,663.006 371.3,671.006 C368.7,679.006 365.9,683.806 363.3,687.406 C363.3,687.406 362.8,688.406 363.1,689.106 C363.4,689.806 364.1,690.906 364.1,690.906 C364.1,690.906 364.4,691.406 365.2,691.406"/>
<path class="TimeSig" d="M365.2,740.01 L382,740.01 L382,747.31 L373.9,747.31 C373.1,747.31 372.5,747.91 372.5,748.71 L372.5,750.61 C372.5,751.41 373.1,751.91 373.9,751.91 L403.6,751.91 C404.4,751.91 405,751.41 405,750.61 L405,748.71 C405,747.91 404.4,747.31 403.6,747.31 L394.8,747.31 L394.8,740.01 L403.6,740.01 C404.4,740.01 405,739.41 405,738.61 L405,736.81 C405,736.01 404.4,735.41 403.6,735.41 L394.8,735.41 L394.8,719.71 C394.8,719.21 394.4,718.71 394,718.51 L392.9,717.91 C392.7,717.81 392.4,717.81 392.2,717.81 C391.9,717.81 391.5,717.91 391.3,718.11 L382.4,726.31 C382.2,726.51 382,727.01 382,727.31 L382,735.41 L370.7,735.41 C370.7,735.41 381.6,723.61 393.2,708.11 C394,707.01 393.6,706.01 393.4,705.81 L391.3,703.61 C391.1,703.41 390.6,703.21 390.3,703.21 L375.7,703.21 C375,703.21 374.5,703.81 374.4,704.41 C374.4,704.41 373.9,711.61 371.3,719.61 C368.7,727.61 365.9,732.41 363.3,736.01 C363.3,736.01 362.8,737.01 363.1,737.71 C363.4,738.41 364.1,739.51 364.1,739.51 C364.1,739.51 364.4,740.01 365.2,740.01"/>
<path class="Page" d="M233.756,4056.33 L231.776,4056.33 L231.326,4058.63 C230.741,4061.55 230.381,4061.82 227.591,4061.82 L217.511,4061.82 C220.616,4058.58 221.651,4057.64 224.531,4055.39 C228.626,4052.24 230.381,4050.66 231.416,4049.31 C232.856,4047.33 233.576,4045.35 233.576,4043.15 C233.576,4038.02 229.346,4034.37 223.451,4034.37 C217.736,4034.37 213.371,4038.02 213.371,4042.83 C213.371,4045.67 214.811,4047.6 216.926,4047.6 C218.591,4047.6 219.716,4046.48 219.716,4044.86 C219.716,4043.73 219.086,4042.7 218.141,4042.29 C216.476,4041.62 216.386,4041.53 216.386,4040.94 C216.386,4040.27 216.836,4039.23 217.466,4038.47 C218.591,4037.07 220.436,4036.31 222.551,4036.31 C226.286,4036.31 228.491,4038.6 228.491,4042.38 C228.491,4045.71 226.916,4048.73 223.181,4052.69 C219.851,4056.2 217.781,4058.4 217.016,4059.26 C215.396,4061.15 214.586,4062.18 212.606,4064.79 L212.606,4066.05 L232.901,4066.05 L233.756,4056.33 M248.827,4034.37 C242.527,4034.37 237.937,4041.21 237.937,4050.66 C237.937,4059.93 242.392,4066.73 248.467,4066.73 C254.767,4066.73 259.177,4060.16 259.177,4050.8 C259.177,4046.03 258.187,4042.07 256.297,4038.96 C254.542,4036.13 251.662,4034.37 248.827,4034.37 M248.512,4036.31 C249.997,4036.31 251.437,4037.3 252.517,4039.1 C253.732,4041.21 254.137,4043.78 254.137,4049.94 C254.137,4056.29 253.822,4059.26 252.922,4061.24 C251.887,4063.44 250.267,4064.79 248.557,4064.79 C247.027,4064.79 245.632,4063.8 244.552,4062 C243.292,4059.89 242.932,4057.1 242.932,4049.72 C242.932,4044.45 243.247,4041.84 244.147,4039.86 C245.182,4037.61 246.802,4036.31 248.512,4036.31"/>
<path class="Bracket" transform="matrix(3.62523,0,0,3.62523,214.469,1015.53)" d="M0.92002,-50 C2.69004,-51.88 6.2,-55.8 6.2,-63 C6.2,-72.1 2.25996,-81.32 2.25996,-86.97 C2.25996,-93.06 5.84004,-98.84 5.95,-99 C6.05996,-99.16 6.05,-99.39 5.94004,-99.46 C5.82998,-99.53 5.62002,-99.47 5.49004,-99.32 C5.35996,-99.17 0,-93.75 0,-85.6 C0,-76.75 3.5,-70.58 3.5,-59.07 C3.5,-56.89 2.55996,-53.36 0.1,-50.33 C-0.0799805,-50.17 -0.1,-49.89 0.0599609,-49.7 L0.0700195,-49.69 L0.1,-49.66 C2.55996,-46.63 3.5,-43.1 3.5,-40.92 C3.5,-29.4 0,-23.24 0,-14.39 C0,-6.25 5.35996,-0.8 5.49004,-0.659961 C5.62002,-0.52002 5.8,-0.42998 5.94004,-0.52002 C6.07998,-0.609961 6.07998,-0.77998 5.95,-0.97998 C5.82002,-1.17998 2.25996,-6.92002 2.25996,-13.01 C2.25996,-18.66 6.2,-27.9 6.2,-37 C6.2,-44.3 2.69004,-48.12 0.92002,-50"/>
</svg>