<?xml version="1.0" encoding="UTF-8" standalone="no"?>
<svg width="1000px" height="300px" viewBox="0 400 3040 900" xmlns="http://www.w3.org/2000/svg" xmlns:xlink="http://www.w3.org/1999/xlink" version="1.2" baseProfile="tiny">
 xmlns="http://www.w3.org/2000/svg" xmlns:xlink="http://www.w3.org/1999/xlink" version="1.2" baseProfile="tiny">
<title>exercises_scores (39)</title>
<desc>Generated by MuseScore 3.6.0</desc>
<polyline class="StaffLines" fill="none" stroke="#000000" stroke-width="2.75" stroke-linejoin="bevel" points="247.099,645.317 2764.63,645.317"/>
<polyline class="StaffLines" fill="none" stroke="#000000" stroke-width="2.75" stroke-linejoin="bevel" points="247.099,670.319 2764.63,670.319"/>
<polyline class="StaffLines" fill="none" stroke="#000000" stroke-width="2.75" stroke-linejoin="bevel" points="247.099,695.32 2764.63,695.32"/>
<polyline class="StaffLines" fill="none" stroke="#000000" stroke-width="2.75" stroke-linejoin="bevel" points="247.099,720.322 2764.63,720.322"/>
<polyline class="StaffLines" fill="none" stroke="#000000" stroke-width="2.75" stroke-linejoin="bevel" points="247.099,745.324 2764.63,745.324"/>
<polyline class="StaffLines" fill="none" stroke="#000000" stroke-width="2.75" stroke-linejoin="bevel" points="247.099,907.834 2764.63,907.834"/>
<polyline class="StaffLines" fill="none" stroke="#000000" stroke-width="2.75" stroke-linejoin="bevel" points="247.099,932.835 2764.63,932.835"/>
<polyline class="StaffLines" fill="none" stroke="#000000" stroke-width="2.75" stroke-linejoin="bevel" points="247.099,957.837 2764.63,957.837"/>
<polyline class="StaffLines" fill="none" stroke="#000000" stroke-width="2.75" stroke-linejoin="bevel" points="247.099,982.839 2764.63,982.839"/>
<polyline class="StaffLines" fill="none" stroke="#000000" stroke-width="2.75" stroke-linejoin="bevel" points="247.099,1007.84 2764.63,1007.84"/>
<path class="Text" d="M248.251,213.077 L245.971,213.077 L243.571,216.617 C239.191,213.437 236.971,212.597 232.831,212.597 C227.131,212.597 222.271,214.997 218.251,219.797 C214.411,224.357 212.611,229.397 212.611,235.577 C212.611,248.537 221.071,257.717 232.891,257.717 C242.491,257.717 248.611,252.077 249.991,241.997 L247.171,241.517 C245.551,250.457 240.991,254.897 233.611,254.897 C224.731,254.897 220.531,248.777 220.531,235.817 C220.531,228.977 221.431,224.477 223.471,220.877 C225.331,217.517 228.991,215.417 232.891,215.417 C237.091,215.417 240.811,217.637 243.091,221.477 C244.231,223.457 245.071,225.677 246.511,230.417 L249.151,230.417 L248.251,213.077 M281.895,212.597 L270.795,213.257 L270.795,215.837 L273.675,215.837 C275.955,215.897 276.255,216.257 276.255,218.837 L276.255,249.437 L276.255,250.877 L276.255,252.317 C276.195,253.157 276.135,253.517 275.895,253.817 C275.475,254.357 274.335,254.597 271.755,254.657 L271.515,254.657 L271.515,256.817 L286.695,256.817 L286.695,254.657 L286.455,254.657 C282.435,254.537 281.895,254.237 281.895,252.077 L281.895,249.437 L281.895,243.197 C281.895,240.257 282.315,237.557 282.975,236.177 C284.295,233.477 286.935,231.617 289.515,231.617 C291.075,231.617 292.875,232.517 293.715,233.717 C294.675,235.037 295.095,236.837 295.095,239.777 L295.095,249.437 L295.095,252.317 C295.035,253.157 294.975,253.517 294.735,253.817 C294.315,254.357 293.115,254.597 290.535,254.657 L290.295,254.657 L290.295,256.817 L305.475,256.817 L305.475,254.657 L305.235,254.657 C301.275,254.537 300.735,254.237 300.735,252.077 L300.735,249.437 L300.735,240.017 C300.735,235.697 300.555,234.617 299.475,232.577 C297.975,229.637 294.975,227.957 291.375,227.957 C287.475,227.957 284.595,229.697 281.895,233.717 L281.895,212.597 M333.672,237.497 C333.672,233.717 333.012,231.797 331.272,230.357 C329.292,228.737 326.352,227.957 322.512,227.957 C315.732,227.957 310.812,231.137 310.812,235.517 C310.812,237.737 312.192,239.177 314.292,239.177 C316.212,239.177 317.532,237.917 317.532,236.117 C317.532,235.337 317.232,234.497 316.632,233.657 C316.272,233.237 316.212,233.117 316.212,232.817 C316.212,231.617 318.612,230.537 321.492,230.537 C323.412,230.537 325.512,231.137 326.472,232.037 C327.612,232.997 328.032,234.437 328.032,237.137 L328.032,239.477 C321.792,240.557 319.812,241.037 316.872,242.177 C311.652,244.097 309.192,246.857 309.192,250.697 C309.192,255.017 312.552,257.717 317.892,257.717 C322.032,257.717 325.752,256.037 328.332,252.977 C329.292,256.037 330.792,257.237 333.612,257.237 C336.312,257.237 339.132,255.497 339.132,253.757 C339.132,253.337 338.892,253.037 338.532,253.037 C338.292,253.037 338.052,253.097 337.632,253.277 C336.792,253.637 336.432,253.697 335.952,253.697 C334.272,253.697 333.672,252.617 333.672,249.557 L333.672,237.497 M328.032,244.817 C328.032,248.417 327.852,249.257 326.832,250.817 C325.332,253.037 322.632,254.537 319.992,254.537 C317.232,254.537 315.252,252.557 315.252,249.857 C315.252,247.337 316.512,245.537 319.152,244.277 C321.012,243.437 323.352,242.837 328.032,242.057 L328.032,244.817 M351.791,228.857 L341.171,229.517 L341.171,232.097 L343.631,232.097 C345.911,232.157 346.211,232.517 346.211,235.097 L346.211,249.437 L346.211,252.257 C346.151,253.157 346.091,253.517 345.851,253.817 C345.431,254.357 344.231,254.597 341.651,254.657 L341.411,254.657 L341.411,256.817 L357.431,256.817 L357.431,254.657 L356.351,254.657 C352.331,254.537 351.791,254.237 351.791,252.077 L351.791,249.437 L351.791,248.837 C351.851,238.757 355.451,231.077 360.131,230.837 C359.291,231.797 359.051,232.397 359.051,233.537 C359.051,235.457 360.431,236.837 362.351,236.837 C364.571,236.837 366.011,235.217 366.011,232.817 C366.011,229.877 363.971,227.957 360.791,227.957 C357.011,227.957 353.771,230.957 351.791,236.297 L351.791,228.857 M379.612,228.857 L368.932,229.517 L368.932,232.097 L371.392,232.097 C373.672,232.157 373.972,232.517 373.972,235.097 L373.972,249.437 L373.972,251.777 L373.972,252.257 C373.912,253.157 373.852,253.517 373.612,253.817 C373.192,254.357 372.052,254.597 369.472,254.657 L369.232,254.657 L369.232,256.817 L384.352,256.817 L384.352,254.657 L384.112,254.657 C380.152,254.537 379.612,254.237 379.612,252.017 L379.612,249.437 L379.612,240.917 C379.612,235.577 382.552,231.617 386.452,231.617 C389.872,231.617 391.612,234.077 391.612,238.937 L391.612,249.437 L391.612,252.317 C391.552,253.097 391.492,253.517 391.192,253.817 C390.832,254.357 389.632,254.597 387.052,254.657 L386.812,254.657 L386.812,256.817 L401.992,256.817 L401.992,254.657 L401.752,254.657 C397.792,254.537 397.252,254.237 397.252,252.077 L397.252,249.437 L397.252,241.457 C397.252,235.457 399.952,231.617 404.152,231.617 C407.572,231.617 409.252,234.197 409.252,239.597 L409.252,249.437 L409.252,252.257 C409.192,253.097 409.132,253.517 408.832,253.817 C408.472,254.357 407.272,254.597 404.692,254.657 L404.452,254.657 L404.452,256.817 L419.632,256.817 L419.632,254.657 L419.392,254.657 C415.432,254.537 414.892,254.237 414.892,252.017 L414.892,249.437 L414.892,238.397 C414.892,234.677 414.532,233.417 412.972,231.377 C411.232,229.157 408.772,227.957 405.892,227.957 C401.992,227.957 399.112,229.817 396.532,233.957 C395.512,230.357 392.272,227.957 388.252,227.957 C384.592,227.957 381.952,229.697 379.612,233.477 L379.612,228.857 M436,227.957 C428.62,227.957 422.92,234.497 422.92,242.897 C422.92,251.117 428.68,257.717 435.88,257.717 C443.08,257.717 448.84,251.117 448.84,242.837 C448.84,234.617 443.08,227.957 436,227.957 M436,230.537 C440.2,230.537 442.54,234.917 442.54,242.837 C442.54,250.817 440.2,255.137 435.88,255.137 C431.56,255.137 429.22,250.817 429.22,242.897 C429.22,234.737 431.5,230.537 436,230.537 M462.88,228.857 L452.5,229.517 L452.5,232.097 L454.66,232.097 C456.94,232.157 457.24,232.517 457.24,235.097 L457.24,249.437 L457.24,250.877 L457.24,252.257 C457.18,253.157 457.12,253.517 456.88,253.817 C456.46,254.357 455.32,254.597 452.74,254.657 L452.5,254.657 L452.5,256.817 L467.68,256.817 L467.68,254.657 L467.44,254.657 C463.42,254.537 462.88,254.237 462.88,252.077 L462.88,249.437 L462.88,243.197 C462.88,240.257 463.3,237.557 463.96,236.177 C465.22,233.477 467.92,231.617 470.5,231.617 C472.06,231.617 473.86,232.457 474.76,233.717 C475.66,235.037 476.08,236.837 476.08,239.717 L476.08,249.437 L476.08,252.257 C476.02,253.157 475.96,253.517 475.72,253.817 C475.3,254.357 474.1,254.597 471.52,254.657 L471.28,254.657 L471.28,256.817 L486.46,256.817 L486.46,254.657 L486.22,254.657 C482.26,254.537 481.72,254.237 481.72,252.077 L481.72,249.437 L481.72,240.017 C481.72,235.697 481.54,234.617 480.46,232.577 C478.96,229.697 475.96,227.957 472.36,227.957 C468.46,227.957 465.52,229.757 462.88,233.717 L462.88,228.857 M499.896,228.857 L488.616,229.517 L488.616,232.097 L491.676,232.097 C493.956,232.157 494.256,232.517 494.256,235.097 L494.256,249.437 L494.256,252.257 C494.196,253.157 494.136,253.517 493.896,253.817 C493.476,254.357 492.336,254.597 489.756,254.657 L489.336,254.657 L489.336,256.817 L504.876,256.817 L504.876,254.657 L504.456,254.657 C500.436,254.537 499.896,254.237 499.896,252.077 L499.896,249.437 L499.896,228.857 M497.076,213.917 C495.156,213.917 493.596,215.477 493.596,217.397 C493.596,219.317 495.156,220.877 497.016,220.877 C498.996,220.877 500.556,219.317 500.556,217.397 C500.556,215.477 498.996,213.917 497.076,213.917 M529.647,247.997 C527.727,252.317 525.687,254.057 522.567,254.057 C517.767,254.057 514.767,249.677 514.767,242.657 C514.767,235.337 517.707,230.537 522.147,230.537 C523.947,230.537 525.507,231.377 525.507,232.337 C525.507,232.517 525.447,232.697 525.147,233.057 C524.187,234.197 523.947,234.797 523.947,235.817 C523.947,237.797 525.447,239.177 527.547,239.177 C529.707,239.177 531.207,237.497 531.207,235.097 C531.207,231.017 527.187,227.957 521.847,227.957 C514.047,227.957 508.467,234.317 508.467,243.317 C508.467,251.837 513.567,257.717 521.007,257.717 C526.347,257.717 529.407,255.257 531.987,248.897 L529.647,247.997 M561.783,228.857 L551.103,229.517 L551.103,232.097 L553.563,232.097 C555.843,232.157 556.143,232.517 556.143,235.097 L556.143,249.437 L556.143,251.777 L556.143,252.257 C556.083,253.157 556.023,253.517 555.783,253.817 C555.363,254.357 554.223,254.597 551.643,254.657 L551.403,254.657 L551.403,256.817 L566.523,256.817 L566.523,254.657 L566.283,254.657 C562.323,254.537 561.783,254.237 561.783,252.017 L561.783,249.437 L561.783,240.917 C561.783,235.577 564.723,231.617 568.623,231.617 C572.043,231.617 573.783,234.077 573.783,238.937 L573.783,249.437 L573.783,252.317 C573.723,253.097 573.663,253.517 573.363,253.817 C573.003,254.357 571.803,254.597 569.223,254.657 L568.983,254.657 L568.983,256.817 L584.163,256.817 L584.163,254.657 L583.923,254.657 C579.963,254.537 579.423,254.237 579.423,252.077 L579.423,249.437 L579.423,241.457 C579.423,235.457 582.123,231.617 586.323,231.617 C589.743,231.617 591.423,234.197 591.423,239.597 L591.423,249.437 L591.423,252.257 C591.363,253.097 591.303,253.517 591.003,253.817 C590.643,254.357 589.443,254.597 586.863,254.657 L586.623,254.657 L586.623,256.817 L601.803,256.817 L601.803,254.657 L601.563,254.657 C597.603,254.537 597.063,254.237 597.063,252.017 L597.063,249.437 L597.063,238.397 C597.063,234.677 596.703,233.417 595.143,231.377 C593.403,229.157 590.943,227.957 588.063,227.957 C584.163,227.957 581.283,229.817 578.703,233.957 C577.683,230.357 574.443,227.957 570.423,227.957 C566.763,227.957 564.123,229.697 561.783,233.477 L561.783,228.857 M615.412,228.857 L604.132,229.517 L604.132,232.097 L607.192,232.097 C609.472,232.157 609.772,232.517 609.772,235.097 L609.772,249.437 L609.772,252.257 C609.712,253.157 609.652,253.517 609.412,253.817 C608.992,254.357 607.852,254.597 605.272,254.657 L604.852,254.657 L604.852,256.817 L620.392,256.817 L620.392,254.657 L619.972,254.657 C615.952,254.537 615.412,254.237 615.412,252.077 L615.412,249.437 L615.412,228.857 M612.592,213.917 C610.672,213.917 609.112,215.477 609.112,217.397 C609.112,219.317 610.672,220.877 612.532,220.877 C614.512,220.877 616.072,219.317 616.072,217.397 C616.072,215.477 614.512,213.917 612.592,213.917 M633.942,228.857 L623.562,229.517 L623.562,232.097 L625.722,232.097 C628.002,232.157 628.302,232.517 628.302,235.097 L628.302,249.437 L628.302,250.877 L628.302,252.257 C628.242,253.157 628.182,253.517 627.942,253.817 C627.522,254.357 626.382,254.597 623.802,254.657 L623.562,254.657 L623.562,256.817 L638.742,256.817 L638.742,254.657 L638.502,254.657 C634.482,254.537 633.942,254.237 633.942,252.077 L633.942,249.437 L633.942,243.197 C633.942,240.257 634.362,237.557 635.022,236.177 C636.282,233.477 638.982,231.617 641.562,231.617 C643.122,231.617 644.922,232.457 645.822,233.717 C646.722,235.037 647.142,236.837 647.142,239.717 L647.142,249.437 L647.142,252.257 C647.082,253.157 647.022,253.517 646.782,253.817 C646.362,254.357 645.162,254.597 642.582,254.657 L642.342,254.657 L642.342,256.817 L657.522,256.817 L657.522,254.657 L657.282,254.657 C653.322,254.537 652.782,254.237 652.782,252.077 L652.782,249.437 L652.782,240.017 C652.782,235.697 652.602,234.617 651.522,232.577 C650.022,229.697 647.022,227.957 643.422,227.957 C639.522,227.957 636.582,229.757 633.942,233.717 L633.942,228.857 M673.718,227.957 C666.338,227.957 660.638,234.497 660.638,242.897 C660.638,251.117 666.398,257.717 673.598,257.717 C680.798,257.717 686.558,251.117 686.558,242.837 C686.558,234.617 680.798,227.957 673.718,227.957 M673.718,230.537 C677.918,230.537 680.258,234.917 680.258,242.837 C680.258,250.817 677.918,255.137 673.598,255.137 C669.278,255.137 666.938,250.817 666.938,242.897 C666.938,234.737 669.218,230.537 673.718,230.537 M700.478,228.857 L689.858,229.517 L689.858,232.097 L692.318,232.097 C694.598,232.157 694.898,232.517 694.898,235.097 L694.898,249.437 L694.898,252.257 C694.838,253.157 694.778,253.517 694.538,253.817 C694.118,254.357 692.918,254.597 690.338,254.657 L690.098,254.657 L690.098,256.817 L706.118,256.817 L706.118,254.657 L705.038,254.657 C701.018,254.537 700.478,254.237 700.478,252.077 L700.478,249.437 L700.478,248.837 C700.538,238.757 704.138,231.077 708.818,230.837 C707.978,231.797 707.738,232.397 707.738,233.537 C707.738,235.457 709.118,236.837 711.038,236.837 C713.258,236.837 714.698,235.217 714.698,232.817 C714.698,229.877 712.658,227.957 709.478,227.957 C705.698,227.957 702.458,230.957 700.478,236.297 L700.478,228.857 "/>
<polyline class="BarLine" fill="none" stroke="#000000" stroke-width="4.50" stroke-linejoin="bevel" points="249.349,906.459 249.349,1009.22"/>
<polyline class="BarLine" fill="none" stroke="#000000" stroke-width="4.50" stroke-linejoin="bevel" points="1024.63,906.459 1024.63,1009.22"/>
<polyline class="BarLine" fill="none" stroke="#000000" stroke-width="4.50" stroke-linejoin="bevel" points="1620.27,906.459 1620.27,1009.22"/>
<polyline class="BarLine" fill="none" stroke="#000000" stroke-width="4.50" stroke-linejoin="bevel" points="2205.4,906.459 2205.4,1009.22"/>
<polyline class="BarLine" fill="none" stroke="#000000" stroke-width="4.50" stroke-linejoin="bevel" points="2734.88,906.459 2734.88,1009.22"/>
<polyline class="BarLine" fill="none" stroke="#000000" stroke-width="13.75" stroke-linejoin="bevel" points="2757.75,906.459 2757.75,1009.22"/>
<polyline class="BarLine" fill="none" stroke="#000000" stroke-width="4.50" stroke-linejoin="bevel" points="249.349,643.942 249.349,907.834"/>
<polyline class="BarLine" fill="none" stroke="#000000" stroke-width="4.50" stroke-linejoin="bevel" points="1024.63,643.942 1024.63,907.834"/>
<polyline class="BarLine" fill="none" stroke="#000000" stroke-width="4.50" stroke-linejoin="bevel" points="1620.27,643.942 1620.27,907.834"/>
<polyline class="BarLine" fill="none" stroke="#000000" stroke-width="4.50" stroke-linejoin="bevel" points="2205.4,643.942 2205.4,907.834"/>
<polyline class="BarLine" fill="none" stroke="#000000" stroke-width="4.50" stroke-linejoin="bevel" points="2734.88,643.942 2734.88,907.834"/>
<polyline class="BarLine" fill="none" stroke="#000000" stroke-width="13.75" stroke-linejoin="bevel" points="2757.75,643.942 2757.75,907.834"/>
<path class="Accidental" d="M736.62,937.436 C736.02,933.536 733.62,929.836 728.52,929.836 C723.52,929.836 720.62,932.936 720.12,933.536 L720.52,901.436 C720.52,900.636 719.92,900.036 719.12,900.036 L717.92,900.036 C717.12,900.036 716.52,900.636 716.52,901.436 L717.02,961.536 C717.02,962.336 717.62,962.936 718.42,962.936 C718.62,962.936 719.02,962.836 719.22,962.736 C719.62,962.536 726.12,959.336 731.52,953.236 C735.32,948.936 736.82,944.036 736.82,939.936 C736.82,939.036 736.72,938.236 736.62,937.436 M729.72,941.336 C729.72,942.836 729.32,947.436 726.82,951.236 C725.12,953.836 721.72,956.536 719.82,958.036 L720.12,938.536 C720.32,937.636 721.82,934.736 725.82,934.736 C729.42,934.736 729.72,938.136 729.72,940.236 L729.72,941.336 "/>
<path class="Accidental" d="M1192.6,899.934 C1192,896.034 1189.6,892.334 1184.5,892.334 C1179.5,892.334 1176.6,895.434 1176.1,896.034 L1176.5,863.934 C1176.5,863.134 1175.9,862.534 1175.1,862.534 L1173.9,862.534 C1173.1,862.534 1172.5,863.134 1172.5,863.934 L1173,924.034 C1173,924.834 1173.6,925.434 1174.4,925.434 C1174.6,925.434 1175,925.334 1175.2,925.234 C1175.6,925.034 1182.1,921.834 1187.5,915.734 C1191.3,911.434 1192.8,906.534 1192.8,902.434 C1192.8,901.534 1192.7,900.734 1192.6,899.934 M1185.7,903.834 C1185.7,905.334 1185.3,909.934 1182.8,913.734 C1181.1,916.334 1177.7,919.034 1175.8,920.534 L1176.1,901.034 C1176.3,900.134 1177.8,897.234 1181.8,897.234 C1185.4,897.234 1185.7,900.634 1185.7,902.734 L1185.7,903.834 "/>
<path class="Accidental" d="M1785.6,899.934 C1785,896.034 1782.6,892.334 1777.5,892.334 C1772.5,892.334 1769.6,895.434 1769.1,896.034 L1769.5,863.934 C1769.5,863.134 1768.9,862.534 1768.1,862.534 L1766.9,862.534 C1766.1,862.534 1765.5,863.134 1765.5,863.934 L1766,924.034 C1766,924.834 1766.6,925.434 1767.4,925.434 C1767.6,925.434 1768,925.334 1768.2,925.234 C1768.6,925.034 1775.1,921.834 1780.5,915.734 C1784.3,911.434 1785.8,906.534 1785.8,902.434 C1785.8,901.534 1785.7,900.734 1785.6,899.934 M1778.7,903.834 C1778.7,905.334 1778.3,909.934 1775.8,913.734 C1774.1,916.334 1770.7,919.034 1768.8,920.534 L1769.1,901.034 C1769.3,900.134 1770.8,897.234 1774.8,897.234 C1778.4,897.234 1778.7,900.634 1778.7,902.734 L1778.7,903.834 "/>
<path class="Accidental" d="M2249.5,937.436 C2248.9,933.536 2246.5,929.836 2241.4,929.836 C2236.4,929.836 2233.5,932.936 2233,933.536 L2233.4,901.436 C2233.4,900.636 2232.8,900.036 2232,900.036 L2230.8,900.036 C2230,900.036 2229.4,900.636 2229.4,901.436 L2229.9,961.536 C2229.9,962.336 2230.5,962.936 2231.3,962.936 C2231.5,962.936 2231.9,962.836 2232.1,962.736 C2232.5,962.536 2239,959.336 2244.4,953.236 C2248.2,948.936 2249.7,944.036 2249.7,939.936 C2249.7,939.036 2249.6,938.236 2249.5,937.436 M2242.6,941.336 C2242.6,942.836 2242.2,947.436 2239.7,951.236 C2238,953.836 2234.6,956.536 2232.7,958.036 L2233,938.536 C2233.2,937.636 2234.7,934.736 2238.7,934.736 C2242.3,934.736 2242.6,938.136 2242.6,940.236 L2242.6,941.336 "/>
<path class="Accidental" d="M736.62,737.424 C736.02,733.524 733.62,729.824 728.52,729.824 C723.52,729.824 720.62,732.924 720.12,733.524 L720.52,701.424 C720.52,700.624 719.92,700.024 719.12,700.024 L717.92,700.024 C717.12,700.024 716.52,700.624 716.52,701.424 L717.02,761.524 C717.02,762.324 717.62,762.924 718.42,762.924 C718.62,762.924 719.02,762.824 719.22,762.724 C719.62,762.524 726.12,759.324 731.52,753.224 C735.32,748.924 736.82,744.024 736.82,739.924 C736.82,739.024 736.72,738.224 736.62,737.424 M729.72,741.324 C729.72,742.824 729.32,747.424 726.82,751.224 C725.12,753.824 721.72,756.524 719.82,758.024 L720.12,738.524 C720.32,737.624 721.82,734.724 725.82,734.724 C729.42,734.724 729.72,738.124 729.72,740.224 L729.72,741.324 "/>
<path class="Accidental" d="M1192.6,699.921 C1192,696.021 1189.6,692.321 1184.5,692.321 C1179.5,692.321 1176.6,695.421 1176.1,696.021 L1176.5,663.921 C1176.5,663.121 1175.9,662.521 1175.1,662.521 L1173.9,662.521 C1173.1,662.521 1172.5,663.121 1172.5,663.921 L1173,724.021 C1173,724.821 1173.6,725.421 1174.4,725.421 C1174.6,725.421 1175,725.321 1175.2,725.221 C1175.6,725.021 1182.1,721.821 1187.5,715.721 C1191.3,711.421 1192.8,706.521 1192.8,702.421 C1192.8,701.521 1192.7,700.721 1192.6,699.921 M1185.7,703.821 C1185.7,705.321 1185.3,709.921 1182.8,713.721 C1181.1,716.321 1177.7,719.021 1175.8,720.521 L1176.1,701.021 C1176.3,700.121 1177.8,697.221 1181.8,697.221 C1185.4,697.221 1185.7,700.621 1185.7,702.721 L1185.7,703.821 "/>
<path class="Accidental" d="M1785.6,699.921 C1785,696.021 1782.6,692.321 1777.5,692.321 C1772.5,692.321 1769.6,695.421 1769.1,696.021 L1769.5,663.921 C1769.5,663.121 1768.9,662.521 1768.1,662.521 L1766.9,662.521 C1766.1,662.521 1765.5,663.121 1765.5,663.921 L1766,724.021 C1766,724.821 1766.6,725.421 1767.4,725.421 C1767.6,725.421 1768,725.321 1768.2,725.221 C1768.6,725.021 1775.1,721.821 1780.5,715.721 C1784.3,711.421 1785.8,706.521 1785.8,702.421 C1785.8,701.521 1785.7,700.721 1785.6,699.921 M1778.7,703.821 C1778.7,705.321 1778.3,709.921 1775.8,713.721 C1774.1,716.321 1770.7,719.021 1768.8,720.521 L1769.1,701.021 C1769.3,700.121 1770.8,697.221 1774.8,697.221 C1778.4,697.221 1778.7,700.621 1778.7,702.721 L1778.7,703.821 "/>
<path class="Accidental" d="M2249.5,737.424 C2248.9,733.524 2246.5,729.824 2241.4,729.824 C2236.4,729.824 2233.5,732.924 2233,733.524 L2233.4,701.424 C2233.4,700.624 2232.8,700.024 2232,700.024 L2230.8,700.024 C2230,700.024 2229.4,700.624 2229.4,701.424 L2229.9,761.524 C2229.9,762.324 2230.5,762.924 2231.3,762.924 C2231.5,762.924 2231.9,762.824 2232.1,762.724 C2232.5,762.524 2239,759.324 2244.4,753.224 C2248.2,748.924 2249.7,744.024 2249.7,739.924 C2249.7,739.024 2249.6,738.224 2249.5,737.424 M2242.6,741.324 C2242.6,742.824 2242.2,747.424 2239.7,751.224 C2238,753.824 2234.6,756.524 2232.7,758.024 L2233,738.524 C2233.2,737.624 2234.7,734.724 2238.7,734.724 C2242.3,734.724 2242.6,738.124 2242.6,740.224 L2242.6,741.324 "/>
<polyline class="LedgerLine" fill="none" stroke="#000000" stroke-width="4.00" stroke-linejoin="bevel" points="1469.61,882.832 1519.6,882.832"/>
<polyline class="LedgerLine" fill="none" stroke="#000000" stroke-width="4.00" stroke-linejoin="bevel" points="455.002,770.325 504.998,770.325"/>
<polyline class="LedgerLine" fill="none" stroke="#000000" stroke-width="4.00" stroke-linejoin="bevel" points="2512.02,770.325 2562.02,770.325"/>
<polyline class="Stem" fill="none" stroke="#000000" stroke-width="2.75" stroke-linejoin="bevel" points="494.872,966.978 494.872,889.083"/>
<polyline class="Stem" fill="none" stroke="#000000" stroke-width="2.75" stroke-linejoin="bevel" points="604.786,961.357 604.786,1035.97"/>
<polyline class="Stem" fill="none" stroke="#000000" stroke-width="2.75" stroke-linejoin="bevel" points="744.443,948.856 744.443,1026.59"/>
<polyline class="Stem" fill="none" stroke="#000000" stroke-width="2.75" stroke-linejoin="bevel" points="884.101,936.356 884.101,1017.22"/>
<polyline class="Stem" fill="none" stroke="#000000" stroke-width="2.75" stroke-linejoin="bevel" points="1060.76,923.855 1060.76,1007.84"/>
<polyline class="Stem" fill="none" stroke="#000000" stroke-width="2.75" stroke-linejoin="bevel" points="1200.42,911.354 1200.42,995.339"/>
<polyline class="Stem" fill="none" stroke="#000000" stroke-width="2.75" stroke-linejoin="bevel" points="1340.08,898.853 1340.08,982.839"/>
<polyline class="Stem" fill="none" stroke="#000000" stroke-width="2.75" stroke-linejoin="bevel" points="1479.73,886.352 1479.73,970.338"/>
<polyline class="Stem" fill="none" stroke="#000000" stroke-width="2.75" stroke-linejoin="bevel" points="1656.39,898.853 1656.39,982.839"/>
<polyline class="Stem" fill="none" stroke="#000000" stroke-width="2.75" stroke-linejoin="bevel" points="1793.43,911.354 1793.43,995.339"/>
<polyline class="Stem" fill="none" stroke="#000000" stroke-width="2.75" stroke-linejoin="bevel" points="1930.46,923.855 1930.46,1007.84"/>
<polyline class="Stem" fill="none" stroke="#000000" stroke-width="2.75" stroke-linejoin="bevel" points="2067.49,936.356 2067.49,1017.22"/>
<polyline class="Stem" fill="none" stroke="#000000" stroke-width="2.75" stroke-linejoin="bevel" points="2257.32,948.856 2257.32,1026.59"/>
<polyline class="Stem" fill="none" stroke="#000000" stroke-width="2.75" stroke-linejoin="bevel" points="2389.74,961.357 2389.74,1035.97"/>
<polyline class="Stem" fill="none" stroke="#000000" stroke-width="2.75" stroke-linejoin="bevel" points="2551.89,966.898 2551.89,889.083"/>
<polyline class="Stem" fill="none" stroke="#000000" stroke-width="2.75" stroke-linejoin="bevel" points="494.872,766.965 494.872,682.82"/>
<polyline class="Stem" fill="none" stroke="#000000" stroke-width="2.75" stroke-linejoin="bevel" points="634.53,754.464 634.53,670.319"/>
<polyline class="Stem" fill="none" stroke="#000000" stroke-width="2.75" stroke-linejoin="bevel" points="774.187,741.963 774.187,657.818"/>
<polyline class="Stem" fill="none" stroke="#000000" stroke-width="2.75" stroke-linejoin="bevel" points="913.845,729.463 913.845,645.317"/>
<polyline class="Stem" fill="none" stroke="#000000" stroke-width="2.75" stroke-linejoin="bevel" points="1090.51,716.962 1090.51,635.942"/>
<polyline class="Stem" fill="none" stroke="#000000" stroke-width="2.75" stroke-linejoin="bevel" points="1230.16,704.461 1230.16,626.566"/>
<polyline class="Stem" fill="none" stroke="#000000" stroke-width="2.75" stroke-linejoin="bevel" points="1340.08,698.841 1340.08,773.45"/>
<polyline class="Stem" fill="none" stroke="#000000" stroke-width="2.75" stroke-linejoin="bevel" points="1479.73,686.34 1479.73,764.075"/>
<polyline class="Stem" fill="none" stroke="#000000" stroke-width="2.75" stroke-linejoin="bevel" points="1656.39,698.841 1656.39,773.45"/>
<polyline class="Stem" fill="none" stroke="#000000" stroke-width="2.75" stroke-linejoin="bevel" points="1823.17,704.461 1823.17,626.566"/>
<polyline class="Stem" fill="none" stroke="#000000" stroke-width="2.75" stroke-linejoin="bevel" points="1960.2,716.962 1960.2,635.942"/>
<polyline class="Stem" fill="none" stroke="#000000" stroke-width="2.75" stroke-linejoin="bevel" points="2097.24,729.463 2097.24,645.317"/>
<polyline class="Stem" fill="none" stroke="#000000" stroke-width="2.75" stroke-linejoin="bevel" points="2287.07,741.963 2287.07,657.818"/>
<polyline class="Stem" fill="none" stroke="#000000" stroke-width="2.75" stroke-linejoin="bevel" points="2419.48,754.464 2419.48,670.319"/>
<polyline class="Stem" fill="none" stroke="#000000" stroke-width="2.75" stroke-linejoin="bevel" points="2551.89,766.885 2551.89,682.82"/>
<path class="Note" d="M495.253,962.138 C493.753,959.438 490.853,957.738 486.953,957.338 C486.353,957.238 485.853,957.238 485.253,957.238 C481.753,957.238 477.953,958.238 474.453,960.138 C467.853,963.738 463.753,969.638 463.753,974.738 C463.753,976.138 463.953,977.438 464.653,978.638 C466.153,981.338 469.153,983.038 473.053,983.438 C473.653,983.538 474.153,983.538 474.753,983.538 C478.253,983.538 481.953,982.538 485.453,980.638 C492.053,977.038 496.253,971.238 496.253,966.138 C496.253,964.738 495.953,963.338 495.253,962.138"/>
<path class="Note" d="M634.911,949.637 C633.411,946.937 630.511,945.237 626.611,944.837 C626.011,944.737 625.511,944.737 624.911,944.737 C621.411,944.737 617.611,945.737 614.111,947.637 C607.511,951.237 603.411,957.137 603.411,962.237 C603.411,963.637 603.611,964.937 604.311,966.137 C605.811,968.837 608.811,970.537 612.711,970.937 C613.311,971.037 613.811,971.037 614.411,971.037 C617.911,971.037 621.611,970.037 625.111,968.137 C631.711,964.537 635.911,958.737 635.911,953.637 C635.911,952.237 635.611,950.837 634.911,949.637"/>
<path class="Note" d="M774.568,937.136 C773.068,934.436 770.168,932.736 766.268,932.336 C765.668,932.236 765.168,932.236 764.568,932.236 C761.068,932.236 757.268,933.236 753.768,935.136 C747.168,938.736 743.068,944.636 743.068,949.736 C743.068,951.136 743.268,952.436 743.968,953.636 C745.468,956.336 748.468,958.036 752.368,958.436 C752.968,958.536 753.468,958.536 754.068,958.536 C757.568,958.536 761.268,957.536 764.768,955.636 C771.368,952.036 775.568,946.236 775.568,941.136 C775.568,939.736 775.268,938.336 774.568,937.136"/>
<path class="Note" d="M914.226,924.635 C912.726,921.935 909.826,920.235 905.926,919.835 C905.326,919.735 904.826,919.735 904.226,919.735 C900.726,919.735 896.926,920.735 893.426,922.635 C886.826,926.235 882.726,932.135 882.726,937.235 C882.726,938.635 882.926,939.935 883.626,941.135 C885.126,943.835 888.126,945.535 892.026,945.935 C892.626,946.035 893.126,946.035 893.726,946.035 C897.226,946.035 900.926,945.035 904.426,943.135 C911.026,939.535 915.226,933.735 915.226,928.635 C915.226,927.235 914.926,925.835 914.226,924.635"/>
<path class="Note" d="M1090.89,912.135 C1089.39,909.435 1086.49,907.735 1082.59,907.335 C1081.99,907.235 1081.49,907.235 1080.89,907.235 C1077.39,907.235 1073.59,908.235 1070.09,910.135 C1063.49,913.735 1059.39,919.635 1059.39,924.735 C1059.39,926.135 1059.59,927.435 1060.29,928.635 C1061.79,931.335 1064.79,933.035 1068.69,933.435 C1069.29,933.535 1069.79,933.535 1070.39,933.535 C1073.89,933.535 1077.59,932.535 1081.09,930.635 C1087.69,927.035 1091.89,921.235 1091.89,916.135 C1091.89,914.735 1091.59,913.335 1090.89,912.135"/>
<path class="Note" d="M1230.54,899.634 C1229.04,896.934 1226.14,895.234 1222.24,894.834 C1221.64,894.734 1221.14,894.734 1220.54,894.734 C1217.04,894.734 1213.24,895.734 1209.74,897.634 C1203.14,901.234 1199.04,907.134 1199.04,912.234 C1199.04,913.634 1199.24,914.934 1199.94,916.134 C1201.44,918.834 1204.44,920.534 1208.34,920.934 C1208.94,921.034 1209.44,921.034 1210.04,921.034 C1213.54,921.034 1217.24,920.034 1220.74,918.134 C1227.34,914.534 1231.54,908.734 1231.54,903.634 C1231.54,902.234 1231.24,900.834 1230.54,899.634"/>
<path class="Note" d="M1370.2,887.133 C1368.7,884.433 1365.8,882.733 1361.9,882.333 C1361.3,882.233 1360.8,882.233 1360.2,882.233 C1356.7,882.233 1352.9,883.233 1349.4,885.133 C1342.8,888.733 1338.7,894.633 1338.7,899.733 C1338.7,901.133 1338.9,902.433 1339.6,903.633 C1341.1,906.333 1344.1,908.033 1348,908.433 C1348.6,908.533 1349.1,908.533 1349.7,908.533 C1353.2,908.533 1356.9,907.533 1360.4,905.633 C1367,902.033 1371.2,896.233 1371.2,891.133 C1371.2,889.733 1370.9,888.333 1370.2,887.133"/>
<path class="Note" d="M1509.86,874.632 C1508.36,871.932 1505.46,870.232 1501.56,869.832 C1500.96,869.732 1500.46,869.732 1499.86,869.732 C1496.36,869.732 1492.56,870.732 1489.06,872.632 C1482.46,876.232 1478.36,882.132 1478.36,887.232 C1478.36,888.632 1478.56,889.932 1479.26,891.132 C1480.76,893.832 1483.76,895.532 1487.66,895.932 C1488.26,896.032 1488.76,896.032 1489.36,896.032 C1492.86,896.032 1496.56,895.032 1500.06,893.132 C1506.66,889.532 1510.86,883.732 1510.86,878.632 C1510.86,877.232 1510.56,875.832 1509.86,874.632"/>
<path class="Note" d="M1686.52,887.133 C1685.02,884.433 1682.12,882.733 1678.22,882.333 C1677.62,882.233 1677.12,882.233 1676.52,882.233 C1673.02,882.233 1669.22,883.233 1665.72,885.133 C1659.12,888.733 1655.02,894.633 1655.02,899.733 C1655.02,901.133 1655.22,902.433 1655.92,903.633 C1657.42,906.333 1660.42,908.033 1664.32,908.433 C1664.92,908.533 1665.42,908.533 1666.02,908.533 C1669.52,908.533 1673.22,907.533 1676.72,905.633 C1683.32,902.033 1687.52,896.233 1687.52,891.133 C1687.52,889.733 1687.22,888.333 1686.52,887.133"/>
<path class="Note" d="M1823.55,899.634 C1822.05,896.934 1819.15,895.234 1815.25,894.834 C1814.65,894.734 1814.15,894.734 1813.55,894.734 C1810.05,894.734 1806.25,895.734 1802.75,897.634 C1796.15,901.234 1792.05,907.134 1792.05,912.234 C1792.05,913.634 1792.25,914.934 1792.95,916.134 C1794.45,918.834 1797.45,920.534 1801.35,920.934 C1801.95,921.034 1802.45,921.034 1803.05,921.034 C1806.55,921.034 1810.25,920.034 1813.75,918.134 C1820.35,914.534 1824.55,908.734 1824.55,903.634 C1824.55,902.234 1824.25,900.834 1823.55,899.634"/>
<path class="Note" d="M1960.58,912.135 C1959.08,909.435 1956.18,907.735 1952.28,907.335 C1951.68,907.235 1951.18,907.235 1950.58,907.235 C1947.08,907.235 1943.28,908.235 1939.78,910.135 C1933.18,913.735 1929.08,919.635 1929.08,924.735 C1929.08,926.135 1929.28,927.435 1929.98,928.635 C1931.48,931.335 1934.48,933.035 1938.38,933.435 C1938.98,933.535 1939.48,933.535 1940.08,933.535 C1943.58,933.535 1947.28,932.535 1950.78,930.635 C1957.38,927.035 1961.58,921.235 1961.58,916.135 C1961.58,914.735 1961.28,913.335 1960.58,912.135"/>
<path class="Note" d="M2097.62,924.635 C2096.12,921.935 2093.22,920.235 2089.32,919.835 C2088.72,919.735 2088.22,919.735 2087.62,919.735 C2084.12,919.735 2080.32,920.735 2076.82,922.635 C2070.22,926.235 2066.12,932.135 2066.12,937.235 C2066.12,938.635 2066.32,939.935 2067.02,941.135 C2068.52,943.835 2071.52,945.535 2075.42,945.935 C2076.02,946.035 2076.52,946.035 2077.12,946.035 C2080.62,946.035 2084.32,945.035 2087.82,943.135 C2094.42,939.535 2098.62,933.735 2098.62,928.635 C2098.62,927.235 2098.32,925.835 2097.62,924.635"/>
<path class="Note" d="M2287.45,937.136 C2285.95,934.436 2283.05,932.736 2279.15,932.336 C2278.55,932.236 2278.05,932.236 2277.45,932.236 C2273.95,932.236 2270.15,933.236 2266.65,935.136 C2260.05,938.736 2255.95,944.636 2255.95,949.736 C2255.95,951.136 2256.15,952.436 2256.85,953.636 C2258.35,956.336 2261.35,958.036 2265.25,958.436 C2265.85,958.536 2266.35,958.536 2266.95,958.536 C2270.45,958.536 2274.15,957.536 2277.65,955.636 C2284.25,952.036 2288.45,946.236 2288.45,941.136 C2288.45,939.736 2288.15,938.336 2287.45,937.136"/>
<path class="Note" d="M2419.86,949.637 C2418.36,946.937 2415.46,945.237 2411.56,944.837 C2410.96,944.737 2410.46,944.737 2409.86,944.737 C2406.36,944.737 2402.56,945.737 2399.06,947.637 C2392.46,951.237 2388.36,957.137 2388.36,962.237 C2388.36,963.637 2388.56,964.937 2389.26,966.137 C2390.76,968.837 2393.76,970.537 2397.66,970.937 C2398.26,971.037 2398.76,971.037 2399.36,971.037 C2402.86,971.037 2406.56,970.037 2410.06,968.137 C2416.66,964.537 2420.86,958.737 2420.86,953.637 C2420.86,952.237 2420.56,950.837 2419.86,949.637"/>
<path class="Note" d="M2552.27,962.138 C2550.77,959.438 2547.87,957.738 2543.97,957.338 C2543.37,957.238 2542.87,957.238 2542.27,957.238 C2538.77,957.238 2534.97,958.238 2531.47,960.138 C2524.87,963.738 2520.77,969.538 2520.77,974.638 C2520.77,976.038 2521.17,977.438 2521.87,978.638 C2523.37,981.438 2526.17,983.038 2530.07,983.438 C2530.67,983.538 2531.17,983.538 2531.77,983.538 C2535.27,983.538 2539.07,982.538 2542.57,980.638 C2549.17,977.038 2553.27,971.138 2553.27,966.038 C2553.27,964.638 2552.97,963.338 2552.27,962.138 M2548.07,968.438 C2546.37,970.238 2543.17,972.538 2539.57,974.638 C2535.97,976.738 2532.27,978.438 2529.97,979.138 C2529.47,979.238 2528.87,979.338 2528.37,979.338 C2526.87,979.338 2525.57,978.638 2524.87,977.538 C2524.57,976.938 2524.37,976.338 2524.37,975.738 C2524.37,974.638 2524.87,973.538 2525.97,972.338 C2527.67,970.538 2530.87,968.138 2534.47,966.038 C2538.07,963.938 2541.77,962.238 2544.17,961.638 L2544.37,961.638 C2544.97,961.438 2545.47,961.338 2545.97,961.338 C2547.37,961.338 2548.47,961.938 2549.17,963.238 C2549.47,963.838 2549.67,964.338 2549.67,964.938 C2549.67,966.238 2548.97,967.538 2548.07,968.438"/>
<path class="Note" d="M495.253,762.125 C493.753,759.425 490.853,757.725 486.953,757.325 C486.353,757.225 485.853,757.225 485.253,757.225 C481.753,757.225 477.953,758.225 474.453,760.125 C467.853,763.725 463.753,769.625 463.753,774.725 C463.753,776.125 463.953,777.425 464.653,778.625 C466.153,781.325 469.153,783.025 473.053,783.425 C473.653,783.525 474.153,783.525 474.753,783.525 C478.253,783.525 481.953,782.525 485.453,780.625 C492.053,777.025 496.253,771.225 496.253,766.125 C496.253,764.725 495.953,763.325 495.253,762.125"/>
<path class="Note" d="M634.911,749.624 C633.411,746.924 630.511,745.224 626.611,744.824 C626.011,744.724 625.511,744.724 624.911,744.724 C621.411,744.724 617.611,745.724 614.111,747.624 C607.511,751.224 603.411,757.124 603.411,762.224 C603.411,763.624 603.611,764.924 604.311,766.124 C605.811,768.824 608.811,770.524 612.711,770.924 C613.311,771.024 613.811,771.024 614.411,771.024 C617.911,771.024 621.611,770.024 625.111,768.124 C631.711,764.524 635.911,758.724 635.911,753.624 C635.911,752.224 635.611,750.824 634.911,749.624"/>
<path class="Note" d="M774.568,737.124 C773.068,734.424 770.168,732.724 766.268,732.324 C765.668,732.224 765.168,732.224 764.568,732.224 C761.068,732.224 757.268,733.224 753.768,735.124 C747.168,738.724 743.068,744.624 743.068,749.724 C743.068,751.124 743.268,752.424 743.968,753.624 C745.468,756.324 748.468,758.024 752.368,758.424 C752.968,758.524 753.468,758.524 754.068,758.524 C757.568,758.524 761.268,757.524 764.768,755.624 C771.368,752.024 775.568,746.224 775.568,741.124 C775.568,739.724 775.268,738.324 774.568,737.124"/>
<path class="Note" d="M914.226,724.623 C912.726,721.923 909.826,720.223 905.926,719.823 C905.326,719.723 904.826,719.723 904.226,719.723 C900.726,719.723 896.926,720.723 893.426,722.623 C886.826,726.223 882.726,732.123 882.726,737.223 C882.726,738.623 882.926,739.923 883.626,741.123 C885.126,743.823 888.126,745.523 892.026,745.923 C892.626,746.023 893.126,746.023 893.726,746.023 C897.226,746.023 900.926,745.023 904.426,743.123 C911.026,739.523 915.226,733.723 915.226,728.623 C915.226,727.223 914.926,725.823 914.226,724.623"/>
<path class="Note" d="M1090.89,712.122 C1089.39,709.422 1086.49,707.722 1082.59,707.322 C1081.99,707.222 1081.49,707.222 1080.89,707.222 C1077.39,707.222 1073.59,708.222 1070.09,710.122 C1063.49,713.722 1059.39,719.622 1059.39,724.722 C1059.39,726.122 1059.59,727.422 1060.29,728.622 C1061.79,731.322 1064.79,733.022 1068.69,733.422 C1069.29,733.522 1069.79,733.522 1070.39,733.522 C1073.89,733.522 1077.59,732.522 1081.09,730.622 C1087.69,727.022 1091.89,721.222 1091.89,716.122 C1091.89,714.722 1091.59,713.322 1090.89,712.122"/>
<path class="Note" d="M1230.54,699.621 C1229.04,696.921 1226.14,695.221 1222.24,694.821 C1221.64,694.721 1221.14,694.721 1220.54,694.721 C1217.04,694.721 1213.24,695.721 1209.74,697.621 C1203.14,701.221 1199.04,707.121 1199.04,712.221 C1199.04,713.621 1199.24,714.921 1199.94,716.121 C1201.44,718.821 1204.44,720.521 1208.34,720.921 C1208.94,721.021 1209.44,721.021 1210.04,721.021 C1213.54,721.021 1217.24,720.021 1220.74,718.121 C1227.34,714.521 1231.54,708.721 1231.54,703.621 C1231.54,702.221 1231.24,700.821 1230.54,699.621"/>
<path class="Note" d="M1370.2,687.12 C1368.7,684.42 1365.8,682.72 1361.9,682.32 C1361.3,682.22 1360.8,682.22 1360.2,682.22 C1356.7,682.22 1352.9,683.22 1349.4,685.12 C1342.8,688.72 1338.7,694.62 1338.7,699.72 C1338.7,701.12 1338.9,702.42 1339.6,703.62 C1341.1,706.32 1344.1,708.02 1348,708.42 C1348.6,708.52 1349.1,708.52 1349.7,708.52 C1353.2,708.52 1356.9,707.52 1360.4,705.62 C1367,702.02 1371.2,696.22 1371.2,691.12 C1371.2,689.72 1370.9,688.32 1370.2,687.12"/>
<path class="Note" d="M1509.86,674.62 C1508.36,671.92 1505.46,670.22 1501.56,669.82 C1500.96,669.72 1500.46,669.72 1499.86,669.72 C1496.36,669.72 1492.56,670.72 1489.06,672.62 C1482.46,676.22 1478.36,682.12 1478.36,687.22 C1478.36,688.62 1478.56,689.92 1479.26,691.12 C1480.76,693.82 1483.76,695.52 1487.66,695.92 C1488.26,696.02 1488.76,696.02 1489.36,696.02 C1492.86,696.02 1496.56,695.02 1500.06,693.12 C1506.66,689.52 1510.86,683.72 1510.86,678.62 C1510.86,677.22 1510.56,675.82 1509.86,674.62"/>
<path class="Note" d="M1686.52,687.12 C1685.02,684.42 1682.12,682.72 1678.22,682.32 C1677.62,682.22 1677.12,682.22 1676.52,682.22 C1673.02,682.22 1669.22,683.22 1665.72,685.12 C1659.12,688.72 1655.02,694.62 1655.02,699.72 C1655.02,701.12 1655.22,702.42 1655.92,703.62 C1657.42,706.32 1660.42,708.02 1664.32,708.42 C1664.92,708.52 1665.42,708.52 1666.02,708.52 C1669.52,708.52 1673.22,707.52 1676.72,705.62 C1683.32,702.02 1687.52,696.22 1687.52,691.12 C1687.52,689.72 1687.22,688.32 1686.52,687.12"/>
<path class="Note" d="M1823.55,699.621 C1822.05,696.921 1819.15,695.221 1815.25,694.821 C1814.65,694.721 1814.15,694.721 1813.55,694.721 C1810.05,694.721 1806.25,695.721 1802.75,697.621 C1796.15,701.221 1792.05,707.121 1792.05,712.221 C1792.05,713.621 1792.25,714.921 1792.95,716.121 C1794.45,718.821 1797.45,720.521 1801.35,720.921 C1801.95,721.021 1802.45,721.021 1803.05,721.021 C1806.55,721.021 1810.25,720.021 1813.75,718.121 C1820.35,714.521 1824.55,708.721 1824.55,703.621 C1824.55,702.221 1824.25,700.821 1823.55,699.621"/>
<path class="Note" d="M1960.58,712.122 C1959.08,709.422 1956.18,707.722 1952.28,707.322 C1951.68,707.222 1951.18,707.222 1950.58,707.222 C1947.08,707.222 1943.28,708.222 1939.78,710.122 C1933.18,713.722 1929.08,719.622 1929.08,724.722 C1929.08,726.122 1929.28,727.422 1929.98,728.622 C1931.48,731.322 1934.48,733.022 1938.38,733.422 C1938.98,733.522 1939.48,733.522 1940.08,733.522 C1943.58,733.522 1947.28,732.522 1950.78,730.622 C1957.38,727.022 1961.58,721.222 1961.58,716.122 C1961.58,714.722 1961.28,713.322 1960.58,712.122"/>
<path class="Note" d="M2097.62,724.623 C2096.12,721.923 2093.22,720.223 2089.32,719.823 C2088.72,719.723 2088.22,719.723 2087.62,719.723 C2084.12,719.723 2080.32,720.723 2076.82,722.623 C2070.22,726.223 2066.12,732.123 2066.12,737.223 C2066.12,738.623 2066.32,739.923 2067.02,741.123 C2068.52,743.823 2071.52,745.523 2075.42,745.923 C2076.02,746.023 2076.52,746.023 2077.12,746.023 C2080.62,746.023 2084.32,745.023 2087.82,743.123 C2094.42,739.523 2098.62,733.723 2098.62,728.623 C2098.62,727.223 2098.32,725.823 2097.62,724.623"/>
<path class="Note" d="M2287.45,737.124 C2285.95,734.424 2283.05,732.724 2279.15,732.324 C2278.55,732.224 2278.05,732.224 2277.45,732.224 C2273.95,732.224 2270.15,733.224 2266.65,735.124 C2260.05,738.724 2255.95,744.624 2255.95,749.724 C2255.95,751.124 2256.15,752.424 2256.85,753.624 C2258.35,756.324 2261.35,758.024 2265.25,758.424 C2265.85,758.524 2266.35,758.524 2266.95,758.524 C2270.45,758.524 2274.15,757.524 2277.65,755.624 C2284.25,752.024 2288.45,746.224 2288.45,741.124 C2288.45,739.724 2288.15,738.324 2287.45,737.124"/>
<path class="Note" d="M2419.86,749.624 C2418.36,746.924 2415.46,745.224 2411.56,744.824 C2410.96,744.724 2410.46,744.724 2409.86,744.724 C2406.36,744.724 2402.56,745.724 2399.06,747.624 C2392.46,751.224 2388.36,757.124 2388.36,762.224 C2388.36,763.624 2388.56,764.924 2389.26,766.124 C2390.76,768.824 2393.76,770.524 2397.66,770.924 C2398.26,771.024 2398.76,771.024 2399.36,771.024 C2402.86,771.024 2406.56,770.024 2410.06,768.124 C2416.66,764.524 2420.86,758.724 2420.86,753.624 C2420.86,752.224 2420.56,750.824 2419.86,749.624"/>
<path class="Note" d="M2552.27,762.125 C2550.77,759.425 2547.87,757.725 2543.97,757.325 C2543.37,757.225 2542.87,757.225 2542.27,757.225 C2538.77,757.225 2534.97,758.225 2531.47,760.125 C2524.87,763.725 2520.77,769.525 2520.77,774.625 C2520.77,776.025 2521.17,777.425 2521.87,778.625 C2523.37,781.425 2526.17,783.025 2530.07,783.425 C2530.67,783.525 2531.17,783.525 2531.77,783.525 C2535.27,783.525 2539.07,782.525 2542.57,780.625 C2549.17,777.025 2553.27,771.125 2553.27,766.025 C2553.27,764.625 2552.97,763.325 2552.27,762.125 M2548.07,768.425 C2546.37,770.225 2543.17,772.525 2539.57,774.625 C2535.97,776.725 2532.27,778.425 2529.97,779.125 C2529.47,779.225 2528.87,779.325 2528.37,779.325 C2526.87,779.325 2525.57,778.625 2524.87,777.525 C2524.57,776.925 2524.37,776.325 2524.37,775.725 C2524.37,774.625 2524.87,773.525 2525.97,772.325 C2527.67,770.525 2530.87,768.125 2534.47,766.025 C2538.07,763.925 2541.77,762.225 2544.17,761.625 L2544.37,761.625 C2544.97,761.425 2545.47,761.325 2545.97,761.325 C2547.37,761.325 2548.47,761.925 2549.17,763.225 C2549.47,763.825 2549.67,764.325 2549.67,764.925 C2549.67,766.225 2548.97,767.525 2548.07,768.425"/>
<path class="Clef" d="M297,907.735 C289.4,907.735 283.3,912.135 283.2,912.135 C277.4,916.435 275.1,921.535 274.2,925.035 C273.7,926.835 273.5,928.635 273.5,930.335 C273.5,932.735 273.9,934.935 274.8,936.835 C276,939.535 278.3,941.435 281.3,942.435 C282.5,942.835 283.8,943.035 285.1,943.035 C287.3,943.035 289.6,942.435 291.5,941.335 C294.6,939.635 296.5,936.035 296.5,932.135 C296.5,928.635 294.7,925.435 291.7,923.535 C289.6,922.135 287.6,921.735 285.9,921.735 C284.7,921.735 283.6,921.935 282.7,922.235 C281.7,922.635 280,923.635 279.2,924.335 C279.5,922.435 280.7,919.535 281.8,917.935 C282.9,916.335 285.1,914.335 286.8,913.435 C289.3,912.035 292.5,911.435 296,911.435 C306.2,911.435 311.2,919.635 311.2,936.435 C311.2,945.735 307.7,954.635 304.7,960.535 C301.4,967.135 297,973.435 293.1,976.935 C282.7,986.435 272.9,990.935 272.8,990.935 C272.8,990.935 271.3,991.835 271.7,993.335 C272,994.335 272.9,994.535 273.5,994.535 C273.6,994.535 273.9,994.435 274,994.435 C274.1,994.435 285.5,989.735 294.6,982.635 C299.7,978.935 304.3,974.935 308.3,970.635 C311.9,966.735 315,962.535 317.5,958.335 C321.9,950.835 324.4,943.035 324.4,936.335 C324.4,928.035 322.2,921.135 318.1,916.235 C313.4,910.635 306.3,907.735 297,907.735 M328.4,920.435 C328.4,923.235 330.6,925.435 333.2,925.435 C335.8,925.435 338,923.235 338,920.435 C338,917.635 335.8,915.335 333.2,915.335 C330.6,915.335 328.4,917.635 328.4,920.435 M328.4,945.135 C328.4,947.935 330.6,950.235 333.2,950.235 C335.8,950.235 338,947.935 338,945.135 C338,942.335 335.8,940.035 333.2,940.035 C330.6,940.035 328.4,942.335 328.4,945.135"/>
<path class="Clef" d="M335,714.422 C333.8,709.022 331.1,705.122 330.3,704.122 C327.1,699.822 323.1,697.022 318.4,695.622 C316.1,694.922 314,694.722 312,694.722 C311.3,694.722 310.6,694.722 309.9,694.822 C308.9,688.822 307.8,682.922 306.9,677.522 C312.5,671.322 316.2,665.422 318.6,661.022 C322.2,654.322 323.6,649.622 323.7,649.422 C324.9,646.422 325.6,642.622 325.6,638.122 C325.6,635.422 325.3,632.522 324.9,629.522 C323.8,622.422 321.6,615.722 319.1,612.022 C317.8,610.122 316.6,609.022 315.4,609.022 C314.2,609.022 311.7,610.222 308.8,613.022 C306.5,615.222 303.2,619.122 300.6,625.122 C298.3,630.522 297.6,637.422 297.6,643.322 C297.6,645.122 297.7,646.822 297.8,648.422 C298,652.022 298.7,657.822 299.3,661.422 C299.3,661.522 299.6,663.022 300,665.622 L299.3,666.322 C298.3,667.322 297.1,668.422 295.7,669.822 C294.8,670.722 293.9,671.522 292.9,672.522 C284.4,680.722 271.6,693.122 271.6,712.222 C271.6,716.922 272.5,721.322 274.3,725.322 C275.9,728.922 278.2,732.222 281.1,735.122 C288.6,742.522 298.8,745.722 305.9,745.722 L306.5,745.722 C309.4,745.622 312.1,745.322 314.5,744.922 C316.3,754.522 317.5,761.622 317.5,766.922 C317.5,773.422 315.9,777.322 312,780.122 C309.6,781.822 306.7,782.922 303.6,783.022 L302.8,783.022 C301.3,783.022 298.8,782.622 297.3,782.222 C297.3,782.222 297,782.122 297,781.922 C297,781.722 297.4,781.722 297.4,781.722 C299.3,781.322 302.9,780.022 305.3,776.722 C306.4,775.222 307.1,772.922 307.1,770.422 C307.1,768.822 306.8,767.122 306.1,765.622 C305,763.222 302.4,760.222 296.8,759.822 L295.7,759.822 C293.6,759.822 291.8,760.322 290.1,761.322 C288.3,762.422 286.7,764.122 285.7,766.122 C284.6,768.122 284.1,770.322 284.1,772.522 C284.1,775.422 285,778.122 286.8,780.322 C289.8,783.922 294.5,786.222 299.9,786.822 C300.6,786.922 301.7,787.022 302.4,787.022 C306.8,787.022 311.2,785.822 314.8,783.622 C318.5,781.022 320.6,777.022 321.3,771.422 C321.5,770.122 321.5,768.722 321.5,767.222 C321.5,763.322 321,758.622 320,752.822 C319.6,750.722 319.2,747.722 318.5,743.922 C324.3,742.022 328.4,738.322 332.2,732.522 C334.5,728.522 335.6,724.422 335.6,720.122 C335.6,718.222 335.4,716.322 335,714.422 M304.8,636.522 C306.6,630.822 309.3,627.422 311.3,625.722 C313.1,624.222 314.7,623.522 315.6,623.522 C315.7,623.522 315.9,623.622 316,623.622 C316.3,623.722 316.7,624.222 317.1,624.922 C318,626.722 318.9,630.022 318.9,633.722 C318.9,635.622 318.7,637.622 318.1,639.422 C315.9,646.222 311.3,653.522 304.3,661.222 C304.1,660.122 303.9,659.122 303.8,658.122 C303.3,654.922 303,651.722 303,648.822 C303,644.322 303.6,640.222 304.8,636.522 M300.8,740.622 C296.2,739.422 291.7,736.922 287.9,733.422 C286.6,732.222 284.8,730.022 283.3,726.622 C282,723.622 281.3,720.522 281.3,717.122 L281.3,716.422 C281.4,711.722 282.7,706.922 285.2,702.122 C288.1,696.522 292.6,691.022 298.7,685.722 C300.2,684.422 301.6,683.122 302.9,681.822 C303.7,686.122 304.4,690.822 305.3,695.722 C301.4,697.022 296.7,700.022 293.6,705.722 C291.2,710.222 290.5,714.122 290.5,717.322 C290.5,718.822 290.7,720.222 290.9,721.322 C291.8,725.822 294.4,729.522 297.9,731.622 C298.7,732.122 302,733.822 304,733.822 C304.3,733.822 304.6,733.822 304.8,733.722 C305.1,733.622 305.4,733.422 305.5,733.122 C305.6,732.922 305.6,732.722 305.6,732.522 C305.6,731.722 304.8,731.122 303.5,730.322 C302.9,729.922 302.2,729.522 301.5,729.022 C298.9,727.022 297.4,723.922 297.4,720.522 C297.4,719.522 297.6,718.622 297.8,717.622 C298.3,715.622 300,712.822 301.5,711.422 C303.2,709.922 305.2,708.722 307.6,708.122 C309.6,719.322 311.7,730.422 313.3,738.822 C313.4,739.522 313.6,740.222 313.7,740.922 C311.7,741.322 309.7,741.522 307.8,741.522 C305.4,741.522 303.1,741.222 300.8,740.622 M326.5,730.422 C325.3,733.622 322.8,737.622 317.7,739.722 C317.6,739.322 317.6,738.822 317.5,738.422 C316,729.622 314.1,718.722 312.1,707.422 L313.1,707.422 C322.8,707.422 326.7,714.622 327.6,719.222 C327.8,720.122 327.9,721.322 327.9,722.622 C327.9,724.922 327.5,727.722 326.5,730.422"/>
<path class="TimeSig" d="M365.2,946.235 L382,946.235 L382,953.535 L373.9,953.535 C373.1,953.535 372.5,954.135 372.5,954.935 L372.5,956.835 C372.5,957.635 373.1,958.135 373.9,958.135 L403.6,958.135 C404.4,958.135 405,957.635 405,956.835 L405,954.935 C405,954.135 404.4,953.535 403.6,953.535 L394.8,953.535 L394.8,946.235 L403.6,946.235 C404.4,946.235 405,945.635 405,944.835 L405,943.035 C405,942.235 404.4,941.635 403.6,941.635 L394.8,941.635 L394.8,925.935 C394.8,925.435 394.4,924.935 394,924.735 L392.9,924.135 C392.7,924.035 392.4,924.035 392.2,924.035 C391.9,924.035 391.5,924.135 391.3,924.335 L382.4,932.535 C382.2,932.735 382,933.235 382,933.535 L382,941.635 L370.7,941.635 C370.7,941.635 381.6,929.835 393.2,914.335 C394,913.235 393.6,912.235 393.4,912.035 L391.3,909.835 C391.1,909.635 390.6,909.435 390.3,909.435 L375.7,909.435 C375,909.435 374.5,910.035 374.4,910.635 C374.4,910.635 373.9,917.835 371.3,925.835 C368.7,933.835 365.9,938.635 363.3,942.235 C363.3,942.235 362.8,943.235 363.1,943.935 C363.4,944.635 364.1,945.735 364.1,945.735 C364.1,945.735 364.4,946.235 365.2,946.235"/>
<path class="TimeSig" d="M365.2,994.839 L382,994.839 L382,1002.14 L373.9,1002.14 C373.1,1002.14 372.5,1002.74 372.5,1003.54 L372.5,1005.44 C372.5,1006.24 373.1,1006.74 373.9,1006.74 L403.6,1006.74 C404.4,1006.74 405,1006.24 405,1005.44 L405,1003.54 C405,1002.74 404.4,1002.14 403.6,1002.14 L394.8,1002.14 L394.8,994.839 L403.6,994.839 C404.4,994.839 405,994.239 405,993.439 L405,991.639 C405,990.839 404.4,990.239 403.6,990.239 L394.8,990.239 L394.8,974.539 C394.8,974.039 394.4,973.539 394,973.339 L392.9,972.739 C392.7,972.639 392.4,972.639 392.2,972.639 C391.9,972.639 391.5,972.739 391.3,972.939 L382.4,981.139 C382.2,981.339 382,981.839 382,982.139 L382,990.239 L370.7,990.239 C370.7,990.239 381.6,978.439 393.2,962.939 C394,961.839 393.6,960.839 393.4,960.639 L391.3,958.439 C391.1,958.239 390.6,958.039 390.3,958.039 L375.7,958.039 C375,958.039 374.5,958.639 374.4,959.239 C374.4,959.239 373.9,966.439 371.3,974.439 C368.7,982.439 365.9,987.239 363.3,990.839 C363.3,990.839 362.8,991.839 363.1,992.539 C363.4,993.239 364.1,994.339 364.1,994.339 C364.1,994.339 364.4,994.839 365.2,994.839"/>
<path class="TimeSig" d="M365.2,683.718 L382,683.718 L382,691.018 L373.9,691.018 C373.1,691.018 372.5,691.618 372.5,692.418 L372.5,694.318 C372.5,695.118 373.1,695.618 373.9,695.618 L403.6,695.618 C404.4,695.618 405,695.118 405,694.318 L405,692.418 C405,691.618 404.4,691.018 403.6,691.018 L394.8,691.018 L394.8,683.718 L403.6,683.718 C404.4,683.718 405,683.118 405,682.318 L405,680.518 C405,679.718 404.4,679.118 403.6,679.118 L394.8,679.118 L394.8,663.418 C394.8,662.918 394.4,662.418 394,662.218 L392.9,661.618 C392.7,661.518 392.4,661.518 392.2,661.518 C391.9,661.518 391.5,661.618 391.3,661.818 L382.4,670.018 C382.2,670.218 382,670.718 382,671.018 L382,679.118 L370.7,679.118 C370.7,679.118 381.6,667.318 393.2,651.818 C394,650.718 393.6,649.718 393.4,649.518 L391.3,647.318 C391.1,647.118 390.6,646.918 390.3,646.918 L375.7,646.918 C375,646.918 374.5,647.518 374.4,648.118 C374.4,648.118 373.9,655.318 371.3,663.318 C368.7,671.318 365.9,676.118 363.3,679.718 C363.3,679.718 362.8,680.718 363.1,681.418 C363.4,682.118 364.1,683.218 364.1,683.218 C364.1,683.218 364.4,683.718 365.2,683.718"/>
<path class="TimeSig" d="M365.2,732.323 L382,732.323 L382,739.623 L373.9,739.623 C373.1,739.623 372.5,740.223 372.5,741.023 L372.5,742.923 C372.5,743.723 373.1,744.223 373.9,744.223 L403.6,744.223 C404.4,744.223 405,743.723 405,742.923 L405,741.023 C405,740.223 404.4,739.623 403.6,739.623 L394.8,739.623 L394.8,732.323 L403.6,732.323 C404.4,732.323 405,731.723 405,730.923 L405,729.123 C405,728.323 404.4,727.723 403.6,727.723 L394.8,727.723 L394.8,712.023 C394.8,711.523 394.4,711.023 394,710.823 L392.9,710.223 C392.7,710.123 392.4,710.123 392.2,710.123 C391.9,710.123 391.5,710.223 391.3,710.423 L382.4,718.623 C382.2,718.823 382,719.323 382,719.623 L382,727.723 L370.7,727.723 C370.7,727.723 381.6,715.923 393.2,700.423 C394,699.323 393.6,698.323 393.4,698.123 L391.3,695.923 C391.1,695.723 390.6,695.523 390.3,695.523 L375.7,695.523 C375,695.523 374.5,696.123 374.4,696.723 C374.4,696.723 373.9,703.923 371.3,711.923 C368.7,719.923 365.9,724.723 363.3,728.323 C363.3,728.323 362.8,729.323 363.1,730.023 C363.4,730.723 364.1,731.823 364.1,731.823 C364.1,731.823 364.4,732.323 365.2,732.323"/>
<path class="Page" d="M226.289,4049.49 C230.384,4048.01 232.274,4045.71 232.274,4042.11 C232.274,4037.39 228.674,4034.37 223.094,4034.37 C217.829,4034.37 213.824,4037.48 213.824,4041.57 C213.824,4043.42 215.039,4044.72 216.794,4044.72 C218.369,4044.72 219.449,4043.64 219.449,4042.02 C219.449,4041.03 219.089,4040.45 218.054,4039.73 C217.604,4039.41 217.469,4039.23 217.469,4038.92 C217.469,4037.66 220.079,4036.31 222.644,4036.31 C225.884,4036.31 227.594,4038.33 227.594,4042.16 C227.594,4046.34 225.884,4048.55 222.689,4048.55 C222.284,4048.55 221.519,4048.5 220.844,4048.46 C220.484,4048.41 220.124,4048.41 219.854,4048.41 C218.909,4048.41 218.414,4048.82 218.414,4049.63 C218.414,4050.39 218.864,4050.75 219.854,4050.75 C220.124,4050.75 220.484,4050.75 220.889,4050.71 C221.789,4050.66 222.509,4050.66 223.004,4050.66 C226.334,4050.66 228.134,4053.05 228.134,4057.5 C228.134,4062.18 225.884,4064.79 221.834,4064.79 C218.999,4064.79 215.939,4063.26 215.939,4061.87 C215.939,4061.46 216.029,4061.37 216.884,4060.88 C218.144,4060.11 218.639,4059.35 218.639,4058.22 C218.639,4056.6 217.424,4055.39 215.804,4055.39 C213.869,4055.39 212.609,4056.96 212.609,4059.35 C212.609,4063.71 216.614,4066.73 222.374,4066.73 C228.899,4066.73 233.129,4063.13 233.129,4057.59 C233.129,4053.36 230.969,4050.8 226.289,4049.49 M253.914,4050.44 C253.374,4055.7 253.104,4057.28 252.294,4059.53 C251.124,4062.86 248.694,4064.79 245.634,4064.79 C244.149,4064.79 243.159,4064.34 243.159,4063.67 C243.159,4063.49 243.249,4063.26 243.429,4062.9 C243.924,4061.87 244.014,4061.55 244.014,4060.92 C244.014,4059.39 242.889,4058.27 241.359,4058.27 C239.649,4058.27 238.299,4059.71 238.299,4061.51 C238.299,4064.48 241.449,4066.73 245.589,4066.73 C249.684,4066.73 253.194,4064.88 255.399,4061.55 C257.604,4058.22 258.819,4053.9 258.819,4049.22 C258.819,4040.18 254.544,4034.37 247.794,4034.37 C241.989,4034.37 237.489,4039.14 237.489,4045.22 C237.489,4050.62 241.224,4054.53 246.399,4054.53 C249.594,4054.53 251.484,4053.5 253.914,4050.44 M247.974,4036.31 C251.304,4036.31 253.509,4039.59 253.509,4044.68 C253.509,4046.52 253.149,4048.19 252.474,4049.22 C251.439,4050.84 249.684,4051.83 247.749,4051.83 C244.329,4051.83 242.394,4049.18 242.394,4044.41 C242.394,4042.25 242.889,4040.13 243.744,4038.74 C244.779,4037.03 245.994,4036.31 247.974,4036.31"/>
<path class="Bracket" transform="matrix(3.62523,0,0,3.62523,214.469,1007.84)" d="M0.92002,-50 C2.69004,-51.88 6.2,-55.8 6.2,-63 C6.2,-72.1 2.25996,-81.32 2.25996,-86.97 C2.25996,-93.06 5.84004,-98.84 5.95,-99 C6.05996,-99.16 6.05,-99.39 5.94004,-99.46 C5.82998,-99.53 5.62002,-99.47 5.49004,-99.32 C5.35996,-99.17 0,-93.75 0,-85.6 C0,-76.75 3.5,-70.58 3.5,-59.07 C3.5,-56.89 2.55996,-53.36 0.1,-50.33 C-0.0799805,-50.17 -0.1,-49.89 0.0599609,-49.7 L0.0700195,-49.69 L0.1,-49.66 C2.55996,-46.63 3.5,-43.1 3.5,-40.92 C3.5,-29.4 0,-23.24 0,-14.39 C0,-6.25 5.35996,-0.8 5.49004,-0.659961 C5.62002,-0.52002 5.8,-0.42998 5.94004,-0.52002 C6.07998,-0.609961 6.07998,-0.77998 5.95,-0.97998 C5.82002,-1.17998 2.25996,-6.92002 2.25996,-13.01 C2.25996,-18.66 6.2,-27.9 6.2,-37 C6.2,-44.3 2.69004,-48.12 0.92002,-50"/>
</svg>