<?xml version="1.0" encoding="UTF-8" standalone="no"?>
<svg width="1000px" height="220px" viewBox="150 600 2700 500" xmlns="http://www.w3.org/2000/svg" xmlns:xlink="http://www.w3.org/1999/xlink" version="1.2" baseProfile="tiny">
 xmlns="http://www.w3.org/2000/svg" xmlns:xlink="http://www.w3.org/1999/xlink" version="1.2" baseProfile="tiny">
<title>exercises_scores (3)</title>
<desc>Generated by MuseScore 3.6.0</desc>
<polyline class="StaffLines" fill="none" stroke="#000000" stroke-width="2.75" stroke-linejoin="bevel" points="247.099,656.536 2764.63,656.536"/>
<polyline class="StaffLines" fill="none" stroke="#000000" stroke-width="2.75" stroke-linejoin="bevel" points="247.099,681.538 2764.63,681.538"/>
<polyline class="StaffLines" fill="none" stroke="#000000" stroke-width="2.75" stroke-linejoin="bevel" points="247.099,706.539 2764.63,706.539"/>
<polyline class="StaffLines" fill="none" stroke="#000000" stroke-width="2.75" stroke-linejoin="bevel" points="247.099,731.541 2764.63,731.541"/>
<polyline class="StaffLines" fill="none" stroke="#000000" stroke-width="2.75" stroke-linejoin="bevel" points="247.099,756.542 2764.63,756.542"/>
<polyline class="StaffLines" fill="none" stroke="#000000" stroke-width="2.75" stroke-linejoin="bevel" points="247.099,919.053 2764.63,919.053"/>
<polyline class="StaffLines" fill="none" stroke="#000000" stroke-width="2.75" stroke-linejoin="bevel" points="247.099,944.054 2764.63,944.054"/>
<polyline class="StaffLines" fill="none" stroke="#000000" stroke-width="2.75" stroke-linejoin="bevel" points="247.099,969.056 2764.63,969.056"/>
<polyline class="StaffLines" fill="none" stroke="#000000" stroke-width="2.75" stroke-linejoin="bevel" points="247.099,994.057 2764.63,994.057"/>
<polyline class="StaffLines" fill="none" stroke="#000000" stroke-width="2.75" stroke-linejoin="bevel" points="247.099,1019.06 2764.63,1019.06"/>
<path class="Text" d="M242.312,213.137 L240.092,213.137 L237.692,216.737 C234.812,214.037 231.032,212.597 226.772,212.597 C218.852,212.597 213.632,217.577 213.632,225.137 C213.632,231.677 216.872,234.917 225.692,237.197 L231.392,238.637 C235.832,239.777 236.252,239.897 237.512,240.857 C239.312,242.237 240.272,244.217 240.272,246.557 C240.272,248.957 239.372,250.937 237.572,252.617 C235.592,254.297 233.612,254.957 230.312,254.957 C225.872,254.957 222.692,253.577 219.872,250.457 C217.352,247.697 216.092,244.817 215.192,240.197 L212.612,240.197 L212.852,257.297 L215.192,257.297 L217.892,253.217 C221.912,256.517 225.212,257.717 230.492,257.717 C239.312,257.717 244.952,252.557 244.952,244.517 C244.952,240.737 243.752,237.617 241.352,235.337 C239.732,233.777 237.392,232.757 232.592,231.557 L226.172,229.937 C220.832,228.557 218.312,226.217 218.312,222.557 C218.312,218.357 221.732,215.477 226.832,215.477 C231.032,215.477 234.452,217.277 236.852,220.697 C238.592,223.157 239.732,225.677 240.452,228.737 L243.032,228.737 L242.312,213.137 M271.162,247.997 C269.242,252.317 267.202,254.057 264.082,254.057 C259.282,254.057 256.282,249.677 256.282,242.657 C256.282,235.337 259.222,230.537 263.662,230.537 C265.462,230.537 267.022,231.377 267.022,232.337 C267.022,232.517 266.962,232.697 266.662,233.057 C265.702,234.197 265.462,234.797 265.462,235.817 C265.462,237.797 266.962,239.177 269.062,239.177 C271.222,239.177 272.722,237.497 272.722,235.097 C272.722,231.017 268.702,227.957 263.362,227.957 C255.562,227.957 249.982,234.317 249.982,243.317 C249.982,251.837 255.082,257.717 262.522,257.717 C267.862,257.717 270.922,255.257 273.502,248.897 L271.162,247.997 M301.75,237.497 C301.75,233.717 301.09,231.797 299.35,230.357 C297.37,228.737 294.43,227.957 290.59,227.957 C283.81,227.957 278.89,231.137 278.89,235.517 C278.89,237.737 280.27,239.177 282.37,239.177 C284.29,239.177 285.61,237.917 285.61,236.117 C285.61,235.337 285.31,234.497 284.71,233.657 C284.35,233.237 284.29,233.117 284.29,232.817 C284.29,231.617 286.69,230.537 289.57,230.537 C291.49,230.537 293.59,231.137 294.55,232.037 C295.69,232.997 296.11,234.437 296.11,237.137 L296.11,239.477 C289.87,240.557 287.89,241.037 284.95,242.177 C279.73,244.097 277.27,246.857 277.27,250.697 C277.27,255.017 280.63,257.717 285.97,257.717 C290.11,257.717 293.83,256.037 296.41,252.977 C297.37,256.037 298.87,257.237 301.69,257.237 C304.39,257.237 307.21,255.497 307.21,253.757 C307.21,253.337 306.97,253.037 306.61,253.037 C306.37,253.037 306.13,253.097 305.71,253.277 C304.87,253.637 304.51,253.697 304.03,253.697 C302.35,253.697 301.75,252.617 301.75,249.557 L301.75,237.497 M296.11,244.817 C296.11,248.417 295.93,249.257 294.91,250.817 C293.41,253.037 290.71,254.537 288.07,254.537 C285.31,254.537 283.33,252.557 283.33,249.857 C283.33,247.337 284.59,245.537 287.23,244.277 C289.09,243.437 291.43,242.837 296.11,242.057 L296.11,244.817 M320.229,212.597 L309.129,213.257 L309.129,215.837 L312.069,215.837 C314.289,215.897 314.589,216.257 314.589,218.837 L314.589,249.437 L314.589,252.257 C314.529,253.157 314.469,253.517 314.229,253.817 C313.809,254.357 312.669,254.597 310.089,254.657 L309.669,254.657 L309.669,256.817 L325.209,256.817 L325.209,254.657 L324.789,254.657 C320.769,254.537 320.229,254.237 320.229,252.077 L320.229,249.437 L320.229,212.597 M354.78,243.317 C354.84,234.317 349.74,227.957 342.42,227.957 C334.74,227.957 328.98,234.617 328.98,243.617 C328.98,252.077 334.44,257.717 342.54,257.717 C348.3,257.717 352.32,254.897 354.78,249.197 L352.68,248.057 C350.22,252.677 347.7,254.477 343.68,254.477 C340.62,254.477 338.4,253.217 336.84,250.517 C335.76,248.717 335.28,246.617 335.34,243.317 L354.78,243.317 M335.4,240.737 C335.4,238.877 335.64,237.557 336.24,235.877 C337.5,232.277 339.42,230.537 342.36,230.537 C345.96,230.537 348.36,233.717 348.36,238.577 C348.36,240.257 347.82,240.737 345.9,240.737 L335.4,240.737 M366.601,250.157 C364.501,250.157 362.821,251.837 362.821,253.877 C362.821,255.977 364.501,257.657 366.541,257.657 C368.641,257.657 370.321,255.977 370.321,253.877 C370.321,251.837 368.641,250.157 366.601,250.157 M366.601,228.437 C364.501,228.437 362.821,230.117 362.821,232.217 C362.821,234.257 364.501,235.937 366.541,235.937 C368.641,235.937 370.321,234.257 370.321,232.157 C370.321,230.117 368.641,228.437 366.601,228.437 M392.745,256.817 L412.905,256.817 C418.245,256.817 422.325,255.977 425.505,254.177 C431.565,250.757 434.925,243.917 434.925,234.917 C434.925,226.637 431.925,220.157 426.405,216.557 C423.105,214.457 418.665,213.497 411.825,213.497 L392.745,213.497 L392.745,216.317 L393.885,216.317 C397.245,216.377 398.385,216.557 398.865,217.157 C399.225,217.697 399.225,217.817 399.225,220.877 L399.225,249.437 C399.225,252.497 399.225,252.617 398.865,253.157 C398.385,253.757 397.245,253.937 393.885,253.997 L392.745,253.997 L392.745,256.817 M409.365,253.997 C406.305,253.997 405.945,253.637 405.945,250.697 L405.945,219.677 C405.945,216.737 406.365,216.317 409.365,216.317 L412.485,216.317 C422.745,216.317 427.005,221.897 427.005,235.157 C427.005,248.597 423.165,253.997 413.445,253.997 L409.365,253.997 M466.408,228.857 L455.728,229.517 L455.728,232.097 L458.188,232.097 C460.468,232.157 460.768,232.517 460.768,235.097 L460.768,249.437 L460.768,251.777 L460.768,252.257 C460.708,253.157 460.648,253.517 460.408,253.817 C459.988,254.357 458.848,254.597 456.268,254.657 L456.028,254.657 L456.028,256.817 L471.148,256.817 L471.148,254.657 L470.908,254.657 C466.948,254.537 466.408,254.237 466.408,252.017 L466.408,249.437 L466.408,240.917 C466.408,235.577 469.348,231.617 473.248,231.617 C476.668,231.617 478.408,234.077 478.408,238.937 L478.408,249.437 L478.408,252.317 C478.348,253.097 478.288,253.517 477.988,253.817 C477.628,254.357 476.428,254.597 473.848,254.657 L473.608,254.657 L473.608,256.817 L488.788,256.817 L488.788,254.657 L488.548,254.657 C484.588,254.537 484.048,254.237 484.048,252.077 L484.048,249.437 L484.048,241.457 C484.048,235.457 486.748,231.617 490.948,231.617 C494.368,231.617 496.048,234.197 496.048,239.597 L496.048,249.437 L496.048,252.257 C495.988,253.097 495.928,253.517 495.628,253.817 C495.268,254.357 494.068,254.597 491.488,254.657 L491.248,254.657 L491.248,256.817 L506.428,256.817 L506.428,254.657 L506.188,254.657 C502.228,254.537 501.688,254.237 501.688,252.017 L501.688,249.437 L501.688,238.397 C501.688,234.677 501.328,233.417 499.768,231.377 C498.028,229.157 495.568,227.957 492.688,227.957 C488.788,227.957 485.908,229.817 483.328,233.957 C482.308,230.357 479.068,227.957 475.048,227.957 C471.388,227.957 468.748,229.697 466.408,233.477 L466.408,228.857 M534.797,237.497 C534.797,233.717 534.137,231.797 532.397,230.357 C530.417,228.737 527.477,227.957 523.637,227.957 C516.857,227.957 511.937,231.137 511.937,235.517 C511.937,237.737 513.317,239.177 515.417,239.177 C517.337,239.177 518.657,237.917 518.657,236.117 C518.657,235.337 518.357,234.497 517.757,233.657 C517.397,233.237 517.337,233.117 517.337,232.817 C517.337,231.617 519.737,230.537 522.617,230.537 C524.537,230.537 526.637,231.137 527.597,232.037 C528.737,232.997 529.157,234.437 529.157,237.137 L529.157,239.477 C522.917,240.557 520.937,241.037 517.997,242.177 C512.777,244.097 510.317,246.857 510.317,250.697 C510.317,255.017 513.677,257.717 519.017,257.717 C523.157,257.717 526.877,256.037 529.457,252.977 C530.417,256.037 531.917,257.237 534.737,257.237 C537.437,257.237 540.257,255.497 540.257,253.757 C540.257,253.337 540.017,253.037 539.657,253.037 C539.417,253.037 539.177,253.097 538.757,253.277 C537.917,253.637 537.557,253.697 537.077,253.697 C535.397,253.697 534.797,252.617 534.797,249.557 L534.797,237.497 M529.157,244.817 C529.157,248.417 528.977,249.257 527.957,250.817 C526.457,253.037 523.757,254.537 521.117,254.537 C518.357,254.537 516.377,252.557 516.377,249.857 C516.377,247.337 517.637,245.537 520.277,244.277 C522.137,243.437 524.477,242.837 529.157,242.057 L529.157,244.817 M551.722,228.857 L540.022,229.517 L540.022,232.097 L543.502,232.097 C545.782,232.157 546.082,232.517 546.082,235.097 L546.082,255.437 C546.082,260.297 545.782,262.577 544.942,264.317 C544.342,265.517 542.962,266.417 541.642,266.417 C540.802,266.417 540.142,266.057 540.142,265.637 C540.142,265.397 540.202,265.277 540.442,264.677 C540.742,264.077 540.862,263.657 540.862,263.237 C540.862,261.737 539.422,260.417 537.742,260.417 C535.822,260.417 534.382,261.917 534.382,264.017 C534.382,266.957 537.082,268.937 541.102,268.937 C544.462,268.937 547.522,267.497 549.262,265.037 C551.122,262.397 551.722,259.337 551.722,252.557 L551.722,228.857 M548.902,213.917 C546.982,213.917 545.422,215.477 545.422,217.397 C545.422,219.317 546.982,220.877 548.842,220.877 C550.822,220.877 552.382,219.317 552.382,217.397 C552.382,215.477 550.822,213.917 548.902,213.917 M572.172,227.957 C564.792,227.957 559.092,234.497 559.092,242.897 C559.092,251.117 564.852,257.717 572.052,257.717 C579.252,257.717 585.012,251.117 585.012,242.837 C585.012,234.617 579.252,227.957 572.172,227.957 M572.172,230.537 C576.372,230.537 578.712,234.917 578.712,242.837 C578.712,250.817 576.372,255.137 572.052,255.137 C567.732,255.137 565.392,250.817 565.392,242.897 C565.392,234.737 567.672,230.537 572.172,230.537 M598.932,228.857 L588.312,229.517 L588.312,232.097 L590.772,232.097 C593.052,232.157 593.352,232.517 593.352,235.097 L593.352,249.437 L593.352,252.257 C593.292,253.157 593.232,253.517 592.992,253.817 C592.572,254.357 591.372,254.597 588.792,254.657 L588.552,254.657 L588.552,256.817 L604.572,256.817 L604.572,254.657 L603.492,254.657 C599.472,254.537 598.932,254.237 598.932,252.077 L598.932,249.437 L598.932,248.837 C598.992,238.757 602.592,231.077 607.272,230.837 C606.432,231.797 606.192,232.397 606.192,233.537 C606.192,235.457 607.572,236.837 609.492,236.837 C611.712,236.837 613.152,235.217 613.152,232.817 C613.152,229.877 611.112,227.957 607.932,227.957 C604.152,227.957 600.912,230.957 598.932,236.297 L598.932,228.857 "/>
<polyline class="BarLine" fill="none" stroke="#000000" stroke-width="4.50" stroke-linejoin="bevel" points="249.349,917.677 249.349,1020.43"/>
<polyline class="BarLine" fill="none" stroke="#000000" stroke-width="4.50" stroke-linejoin="bevel" points="1008.83,917.677 1008.83,1020.43"/>
<polyline class="BarLine" fill="none" stroke="#000000" stroke-width="4.50" stroke-linejoin="bevel" points="1628.92,917.677 1628.92,1020.43"/>
<polyline class="BarLine" fill="none" stroke="#000000" stroke-width="4.50" stroke-linejoin="bevel" points="2213.27,917.677 2213.27,1020.43"/>
<polyline class="BarLine" fill="none" stroke="#000000" stroke-width="4.50" stroke-linejoin="bevel" points="2734.88,917.677 2734.88,1020.43"/>
<polyline class="BarLine" fill="none" stroke="#000000" stroke-width="13.75" stroke-linejoin="bevel" points="2757.75,917.677 2757.75,1020.43"/>
<polyline class="BarLine" fill="none" stroke="#000000" stroke-width="4.50" stroke-linejoin="bevel" points="249.349,655.161 249.349,919.053"/>
<polyline class="BarLine" fill="none" stroke="#000000" stroke-width="4.50" stroke-linejoin="bevel" points="1008.83,655.161 1008.83,919.053"/>
<polyline class="BarLine" fill="none" stroke="#000000" stroke-width="4.50" stroke-linejoin="bevel" points="1628.92,655.161 1628.92,919.053"/>
<polyline class="BarLine" fill="none" stroke="#000000" stroke-width="4.50" stroke-linejoin="bevel" points="2213.27,655.161 2213.27,919.053"/>
<polyline class="BarLine" fill="none" stroke="#000000" stroke-width="4.50" stroke-linejoin="bevel" points="2734.88,655.161 2734.88,919.053"/>
<polyline class="BarLine" fill="none" stroke="#000000" stroke-width="13.75" stroke-linejoin="bevel" points="2757.75,655.161 2757.75,919.053"/>
<path class="Accidental" d="M723.442,933.454 C724.042,933.354 724.542,932.654 724.542,932.054 L724.542,926.154 C724.542,925.354 723.942,924.754 723.142,924.754 L722.942,924.754 L719.642,925.454 L719.642,910.554 L716.842,910.554 L716.842,926.054 L707.942,927.854 L707.942,913.754 L705.142,913.754 L705.142,928.454 L701.242,929.254 C700.642,929.354 700.142,930.054 700.142,930.654 L700.142,930.854 L700.142,936.654 L700.142,936.454 C700.142,937.254 700.742,937.854 701.542,937.854 L701.842,937.854 L705.142,937.154 L705.142,953.654 L701.242,954.454 C700.642,954.554 700.142,955.254 700.142,955.854 L700.142,961.654 C700.142,962.454 700.742,963.054 701.542,963.054 L701.842,963.054 L705.142,962.354 L705.142,977.254 L707.942,977.254 L707.942,961.754 L716.842,959.954 L716.842,974.054 L719.642,974.054 L719.642,959.354 L723.442,958.654 C724.042,958.554 724.542,957.854 724.542,957.254 L724.542,951.354 C724.542,950.554 723.942,949.954 723.142,949.954 L722.942,949.954 L719.642,950.654 L719.642,934.154 L723.442,933.454 M707.942,953.154 L707.942,936.554 L716.842,934.754 L716.842,951.254 L707.942,953.154 "/>
<path class="Accidental" d="M1319.03,883.451 C1319.63,883.351 1320.13,882.651 1320.13,882.051 L1320.13,876.151 C1320.13,875.351 1319.53,874.751 1318.73,874.751 L1318.53,874.751 L1315.23,875.451 L1315.23,860.551 L1312.43,860.551 L1312.43,876.051 L1303.53,877.851 L1303.53,863.751 L1300.73,863.751 L1300.73,878.451 L1296.83,879.251 C1296.23,879.351 1295.73,880.051 1295.73,880.651 L1295.73,880.851 L1295.73,886.651 L1295.73,886.451 C1295.73,887.251 1296.33,887.851 1297.13,887.851 L1297.43,887.851 L1300.73,887.151 L1300.73,903.651 L1296.83,904.451 C1296.23,904.551 1295.73,905.251 1295.73,905.851 L1295.73,911.651 C1295.73,912.451 1296.33,913.051 1297.13,913.051 L1297.43,913.051 L1300.73,912.351 L1300.73,927.251 L1303.53,927.251 L1303.53,911.751 L1312.43,909.951 L1312.43,924.051 L1315.23,924.051 L1315.23,909.351 L1319.03,908.651 C1319.63,908.551 1320.13,907.851 1320.13,907.251 L1320.13,901.351 C1320.13,900.551 1319.53,899.951 1318.73,899.951 L1318.53,899.951 L1315.23,900.651 L1315.23,884.151 L1319.03,883.451 M1303.53,903.151 L1303.53,886.551 L1312.43,884.751 L1312.43,901.251 L1303.53,903.151 "/>
<path class="Accidental" d="M1676.22,883.451 C1676.82,883.351 1677.32,882.651 1677.32,882.051 L1677.32,876.151 C1677.32,875.351 1676.72,874.751 1675.92,874.751 L1675.72,874.751 L1672.42,875.451 L1672.42,860.551 L1669.62,860.551 L1669.62,876.051 L1660.72,877.851 L1660.72,863.751 L1657.92,863.751 L1657.92,878.451 L1654.02,879.251 C1653.42,879.351 1652.92,880.051 1652.92,880.651 L1652.92,880.851 L1652.92,886.651 L1652.92,886.451 C1652.92,887.251 1653.52,887.851 1654.32,887.851 L1654.62,887.851 L1657.92,887.151 L1657.92,903.651 L1654.02,904.451 C1653.42,904.551 1652.92,905.251 1652.92,905.851 L1652.92,911.651 C1652.92,912.451 1653.52,913.051 1654.32,913.051 L1654.62,913.051 L1657.92,912.351 L1657.92,927.251 L1660.72,927.251 L1660.72,911.751 L1669.62,909.951 L1669.62,924.051 L1672.42,924.051 L1672.42,909.351 L1676.22,908.651 C1676.82,908.551 1677.32,907.851 1677.32,907.251 L1677.32,901.351 C1677.32,900.551 1676.72,899.951 1675.92,899.951 L1675.72,899.951 L1672.42,900.651 L1672.42,884.151 L1676.22,883.451 M1660.72,903.151 L1660.72,886.551 L1669.62,884.751 L1669.62,901.251 L1660.72,903.151 "/>
<path class="Accidental" d="M2260.57,933.454 C2261.17,933.354 2261.67,932.654 2261.67,932.054 L2261.67,926.154 C2261.67,925.354 2261.07,924.754 2260.27,924.754 L2260.07,924.754 L2256.77,925.454 L2256.77,910.554 L2253.97,910.554 L2253.97,926.054 L2245.07,927.854 L2245.07,913.754 L2242.27,913.754 L2242.27,928.454 L2238.37,929.254 C2237.77,929.354 2237.27,930.054 2237.27,930.654 L2237.27,930.854 L2237.27,936.654 L2237.27,936.454 C2237.27,937.254 2237.87,937.854 2238.67,937.854 L2238.97,937.854 L2242.27,937.154 L2242.27,953.654 L2238.37,954.454 C2237.77,954.554 2237.27,955.254 2237.27,955.854 L2237.27,961.654 C2237.27,962.454 2237.87,963.054 2238.67,963.054 L2238.97,963.054 L2242.27,962.354 L2242.27,977.254 L2245.07,977.254 L2245.07,961.754 L2253.97,959.954 L2253.97,974.054 L2256.77,974.054 L2256.77,959.354 L2260.57,958.654 C2261.17,958.554 2261.67,957.854 2261.67,957.254 L2261.67,951.354 C2261.67,950.554 2261.07,949.954 2260.27,949.954 L2260.07,949.954 L2256.77,950.654 L2256.77,934.154 L2260.57,933.454 M2245.07,953.154 L2245.07,936.554 L2253.97,934.754 L2253.97,951.254 L2245.07,953.154 "/>
<path class="Accidental" d="M723.442,733.442 C724.042,733.342 724.542,732.642 724.542,732.042 L724.542,726.142 C724.542,725.342 723.942,724.742 723.142,724.742 L722.942,724.742 L719.642,725.442 L719.642,710.542 L716.842,710.542 L716.842,726.042 L707.942,727.842 L707.942,713.742 L705.142,713.742 L705.142,728.442 L701.242,729.242 C700.642,729.342 700.142,730.042 700.142,730.642 L700.142,730.842 L700.142,736.642 L700.142,736.442 C700.142,737.242 700.742,737.842 701.542,737.842 L701.842,737.842 L705.142,737.142 L705.142,753.642 L701.242,754.442 C700.642,754.542 700.142,755.242 700.142,755.842 L700.142,761.642 C700.142,762.442 700.742,763.042 701.542,763.042 L701.842,763.042 L705.142,762.342 L705.142,777.242 L707.942,777.242 L707.942,761.742 L716.842,759.942 L716.842,774.042 L719.642,774.042 L719.642,759.342 L723.442,758.642 C724.042,758.542 724.542,757.842 724.542,757.242 L724.542,751.342 C724.542,750.542 723.942,749.942 723.142,749.942 L722.942,749.942 L719.642,750.642 L719.642,734.142 L723.442,733.442 M707.942,753.142 L707.942,736.542 L716.842,734.742 L716.842,751.242 L707.942,753.142 "/>
<path class="Accidental" d="M1327.78,683.438 C1328.38,683.338 1328.88,682.638 1328.88,682.038 L1328.88,676.138 C1328.88,675.338 1328.28,674.738 1327.48,674.738 L1327.28,674.738 L1323.98,675.438 L1323.98,660.538 L1321.18,660.538 L1321.18,676.038 L1312.28,677.838 L1312.28,663.738 L1309.48,663.738 L1309.48,678.438 L1305.58,679.238 C1304.98,679.338 1304.48,680.038 1304.48,680.638 L1304.48,680.838 L1304.48,686.638 L1304.48,686.438 C1304.48,687.238 1305.08,687.838 1305.88,687.838 L1306.18,687.838 L1309.48,687.138 L1309.48,703.638 L1305.58,704.438 C1304.98,704.538 1304.48,705.238 1304.48,705.838 L1304.48,711.638 C1304.48,712.438 1305.08,713.038 1305.88,713.038 L1306.18,713.038 L1309.48,712.338 L1309.48,727.238 L1312.28,727.238 L1312.28,711.738 L1321.18,709.938 L1321.18,724.038 L1323.98,724.038 L1323.98,709.338 L1327.78,708.638 C1328.38,708.538 1328.88,707.838 1328.88,707.238 L1328.88,701.338 C1328.88,700.538 1328.28,699.938 1327.48,699.938 L1327.28,699.938 L1323.98,700.638 L1323.98,684.138 L1327.78,683.438 M1312.28,703.138 L1312.28,686.538 L1321.18,684.738 L1321.18,701.238 L1312.28,703.138 "/>
<path class="Accidental" d="M1684.97,683.438 C1685.57,683.338 1686.07,682.638 1686.07,682.038 L1686.07,676.138 C1686.07,675.338 1685.47,674.738 1684.67,674.738 L1684.47,674.738 L1681.17,675.438 L1681.17,660.538 L1678.37,660.538 L1678.37,676.038 L1669.47,677.838 L1669.47,663.738 L1666.67,663.738 L1666.67,678.438 L1662.77,679.238 C1662.17,679.338 1661.67,680.038 1661.67,680.638 L1661.67,680.838 L1661.67,686.638 L1661.67,686.438 C1661.67,687.238 1662.27,687.838 1663.07,687.838 L1663.37,687.838 L1666.67,687.138 L1666.67,703.638 L1662.77,704.438 C1662.17,704.538 1661.67,705.238 1661.67,705.838 L1661.67,711.638 C1661.67,712.438 1662.27,713.038 1663.07,713.038 L1663.37,713.038 L1666.67,712.338 L1666.67,727.238 L1669.47,727.238 L1669.47,711.738 L1678.37,709.938 L1678.37,724.038 L1681.17,724.038 L1681.17,709.338 L1684.97,708.638 C1685.57,708.538 1686.07,707.838 1686.07,707.238 L1686.07,701.338 C1686.07,700.538 1685.47,699.938 1684.67,699.938 L1684.47,699.938 L1681.17,700.638 L1681.17,684.138 L1684.97,683.438 M1669.47,703.138 L1669.47,686.538 L1678.37,684.738 L1678.37,701.238 L1669.47,703.138 "/>
<path class="Accidental" d="M2260.57,733.442 C2261.17,733.342 2261.67,732.642 2261.67,732.042 L2261.67,726.142 C2261.67,725.342 2261.07,724.742 2260.27,724.742 L2260.07,724.742 L2256.77,725.442 L2256.77,710.542 L2253.97,710.542 L2253.97,726.042 L2245.07,727.842 L2245.07,713.742 L2242.27,713.742 L2242.27,728.442 L2238.37,729.242 C2237.77,729.342 2237.27,730.042 2237.27,730.642 L2237.27,730.842 L2237.27,736.642 L2237.27,736.442 C2237.27,737.242 2237.87,737.842 2238.67,737.842 L2238.97,737.842 L2242.27,737.142 L2242.27,753.642 L2238.37,754.442 C2237.77,754.542 2237.27,755.242 2237.27,755.842 L2237.27,761.642 C2237.27,762.442 2237.87,763.042 2238.67,763.042 L2238.97,763.042 L2242.27,762.342 L2242.27,777.242 L2245.07,777.242 L2245.07,761.742 L2253.97,759.942 L2253.97,774.042 L2256.77,774.042 L2256.77,759.342 L2260.57,758.642 C2261.17,758.542 2261.67,757.842 2261.67,757.242 L2261.67,751.342 C2261.67,750.542 2261.07,749.942 2260.27,749.942 L2260.07,749.942 L2256.77,750.642 L2256.77,734.142 L2260.57,733.442 M2245.07,753.142 L2245.07,736.542 L2253.97,734.742 L2253.97,751.242 L2245.07,753.142 "/>
<polyline class="LedgerLine" fill="none" stroke="#000000" stroke-width="4.00" stroke-linejoin="bevel" points="1326.38,894.051 1376.37,894.051"/>
<polyline class="LedgerLine" fill="none" stroke="#000000" stroke-width="4.00" stroke-linejoin="bevel" points="1472.15,894.051 1522.14,894.051"/>
<polyline class="LedgerLine" fill="none" stroke="#000000" stroke-width="4.00" stroke-linejoin="bevel" points="1683.57,894.051 1733.56,894.051"/>
<polyline class="Stem" fill="none" stroke="#000000" stroke-width="2.75" stroke-linejoin="bevel" points="456.377,972.576 456.377,1047.19"/>
<polyline class="Stem" fill="none" stroke="#000000" stroke-width="2.75" stroke-linejoin="bevel" points="594.272,960.075 594.272,1037.81"/>
<polyline class="Stem" fill="none" stroke="#000000" stroke-width="2.75" stroke-linejoin="bevel" points="732.168,947.574 732.168,1028.43"/>
<polyline class="Stem" fill="none" stroke="#000000" stroke-width="2.75" stroke-linejoin="bevel" points="870.063,935.074 870.063,1019.06"/>
<polyline class="Stem" fill="none" stroke="#000000" stroke-width="2.75" stroke-linejoin="bevel" points="1044.96,922.573 1044.96,1006.56"/>
<polyline class="Stem" fill="none" stroke="#000000" stroke-width="2.75" stroke-linejoin="bevel" points="1190.73,910.072 1190.73,994.057"/>
<polyline class="Stem" fill="none" stroke="#000000" stroke-width="2.75" stroke-linejoin="bevel" points="1336.5,897.571 1336.5,981.556"/>
<polyline class="Stem" fill="none" stroke="#000000" stroke-width="2.75" stroke-linejoin="bevel" points="1482.27,885.07 1482.27,969.056"/>
<polyline class="Stem" fill="none" stroke="#000000" stroke-width="2.75" stroke-linejoin="bevel" points="1693.69,897.571 1693.69,981.556"/>
<polyline class="Stem" fill="none" stroke="#000000" stroke-width="2.75" stroke-linejoin="bevel" points="1823.37,910.072 1823.37,994.057"/>
<polyline class="Stem" fill="none" stroke="#000000" stroke-width="2.75" stroke-linejoin="bevel" points="1953.04,922.573 1953.04,1006.56"/>
<polyline class="Stem" fill="none" stroke="#000000" stroke-width="2.75" stroke-linejoin="bevel" points="2082.72,935.074 2082.72,1019.06"/>
<polyline class="Stem" fill="none" stroke="#000000" stroke-width="2.75" stroke-linejoin="bevel" points="2269.3,947.574 2269.3,1028.43"/>
<polyline class="Stem" fill="none" stroke="#000000" stroke-width="2.75" stroke-linejoin="bevel" points="2398.38,960.075 2398.38,1037.81"/>
<polyline class="Stem" fill="none" stroke="#000000" stroke-width="2.75" stroke-linejoin="bevel" points="2527.47,972.496 2527.47,1047.19"/>
<polyline class="Stem" fill="none" stroke="#000000" stroke-width="2.75" stroke-linejoin="bevel" points="486.121,765.683 486.121,681.538"/>
<polyline class="Stem" fill="none" stroke="#000000" stroke-width="2.75" stroke-linejoin="bevel" points="624.017,753.182 624.017,669.037"/>
<polyline class="Stem" fill="none" stroke="#000000" stroke-width="2.75" stroke-linejoin="bevel" points="761.912,740.681 761.912,656.536"/>
<polyline class="Stem" fill="none" stroke="#000000" stroke-width="2.75" stroke-linejoin="bevel" points="899.807,728.181 899.807,647.16"/>
<polyline class="Stem" fill="none" stroke="#000000" stroke-width="2.75" stroke-linejoin="bevel" points="1074.7,715.68 1074.7,637.785"/>
<polyline class="Stem" fill="none" stroke="#000000" stroke-width="2.75" stroke-linejoin="bevel" points="1190.73,710.059 1190.73,784.669"/>
<polyline class="Stem" fill="none" stroke="#000000" stroke-width="2.75" stroke-linejoin="bevel" points="1336.5,697.559 1336.5,775.293"/>
<polyline class="Stem" fill="none" stroke="#000000" stroke-width="2.75" stroke-linejoin="bevel" points="1482.27,685.058 1482.27,765.918"/>
<polyline class="Stem" fill="none" stroke="#000000" stroke-width="2.75" stroke-linejoin="bevel" points="1693.69,697.559 1693.69,775.293"/>
<polyline class="Stem" fill="none" stroke="#000000" stroke-width="2.75" stroke-linejoin="bevel" points="1823.37,710.059 1823.37,784.669"/>
<polyline class="Stem" fill="none" stroke="#000000" stroke-width="2.75" stroke-linejoin="bevel" points="1982.79,715.68 1982.79,637.785"/>
<polyline class="Stem" fill="none" stroke="#000000" stroke-width="2.75" stroke-linejoin="bevel" points="2112.46,728.181 2112.46,647.16"/>
<polyline class="Stem" fill="none" stroke="#000000" stroke-width="2.75" stroke-linejoin="bevel" points="2299.04,740.681 2299.04,656.536"/>
<polyline class="Stem" fill="none" stroke="#000000" stroke-width="2.75" stroke-linejoin="bevel" points="2428.13,753.182 2428.13,669.037"/>
<polyline class="Stem" fill="none" stroke="#000000" stroke-width="2.75" stroke-linejoin="bevel" points="2557.21,765.603 2557.21,681.538"/>
<path class="Note" d="M486.502,960.856 C485.002,958.156 482.102,956.456 478.202,956.056 C477.602,955.956 477.102,955.956 476.502,955.956 C473.002,955.956 469.202,956.956 465.702,958.856 C459.102,962.456 455.002,968.356 455.002,973.456 C455.002,974.856 455.202,976.156 455.902,977.356 C457.402,980.056 460.402,981.756 464.302,982.156 C464.902,982.256 465.402,982.256 466.002,982.256 C469.502,982.256 473.202,981.256 476.702,979.356 C483.302,975.756 487.502,969.956 487.502,964.856 C487.502,963.456 487.202,962.056 486.502,960.856"/>
<path class="Note" d="M624.397,948.355 C622.897,945.655 619.997,943.955 616.097,943.555 C615.497,943.455 614.997,943.455 614.397,943.455 C610.897,943.455 607.097,944.455 603.597,946.355 C596.997,949.955 592.897,955.855 592.897,960.955 C592.897,962.355 593.097,963.655 593.797,964.855 C595.297,967.555 598.297,969.255 602.197,969.655 C602.797,969.755 603.297,969.755 603.897,969.755 C607.397,969.755 611.097,968.755 614.597,966.855 C621.197,963.255 625.397,957.455 625.397,952.355 C625.397,950.955 625.097,949.555 624.397,948.355"/>
<path class="Note" d="M762.292,935.854 C760.792,933.154 757.892,931.454 753.992,931.054 C753.392,930.954 752.892,930.954 752.292,930.954 C748.792,930.954 744.992,931.954 741.492,933.854 C734.892,937.454 730.792,943.354 730.792,948.454 C730.792,949.854 730.992,951.154 731.692,952.354 C733.192,955.054 736.192,956.754 740.092,957.154 C740.692,957.254 741.192,957.254 741.792,957.254 C745.292,957.254 748.992,956.254 752.492,954.354 C759.092,950.754 763.292,944.954 763.292,939.854 C763.292,938.454 762.992,937.054 762.292,935.854"/>
<path class="Note" d="M900.188,923.353 C898.688,920.653 895.788,918.953 891.888,918.553 C891.288,918.453 890.788,918.453 890.188,918.453 C886.688,918.453 882.888,919.453 879.388,921.353 C872.788,924.953 868.688,930.853 868.688,935.953 C868.688,937.353 868.888,938.653 869.588,939.853 C871.088,942.553 874.088,944.253 877.988,944.653 C878.588,944.753 879.088,944.753 879.688,944.753 C883.188,944.753 886.888,943.753 890.388,941.853 C896.988,938.253 901.188,932.453 901.188,927.353 C901.188,925.953 900.888,924.553 900.188,923.353"/>
<path class="Note" d="M1075.08,910.853 C1073.58,908.153 1070.68,906.453 1066.78,906.053 C1066.18,905.953 1065.68,905.953 1065.08,905.953 C1061.58,905.953 1057.78,906.953 1054.28,908.853 C1047.68,912.453 1043.58,918.353 1043.58,923.453 C1043.58,924.853 1043.78,926.153 1044.48,927.353 C1045.98,930.053 1048.98,931.753 1052.88,932.153 C1053.48,932.253 1053.98,932.253 1054.58,932.253 C1058.08,932.253 1061.78,931.253 1065.28,929.353 C1071.88,925.753 1076.08,919.953 1076.08,914.853 C1076.08,913.453 1075.78,912.053 1075.08,910.853"/>
<path class="Note" d="M1220.86,898.352 C1219.36,895.652 1216.46,893.952 1212.56,893.552 C1211.96,893.452 1211.46,893.452 1210.86,893.452 C1207.36,893.452 1203.56,894.452 1200.06,896.352 C1193.46,899.952 1189.36,905.852 1189.36,910.952 C1189.36,912.352 1189.56,913.652 1190.26,914.852 C1191.76,917.552 1194.76,919.252 1198.66,919.652 C1199.26,919.752 1199.76,919.752 1200.36,919.752 C1203.86,919.752 1207.56,918.752 1211.06,916.852 C1217.66,913.252 1221.86,907.452 1221.86,902.352 C1221.86,900.952 1221.56,899.552 1220.86,898.352"/>
<path class="Note" d="M1366.63,885.851 C1365.13,883.151 1362.23,881.451 1358.33,881.051 C1357.73,880.951 1357.23,880.951 1356.63,880.951 C1353.13,880.951 1349.33,881.951 1345.83,883.851 C1339.23,887.451 1335.13,893.351 1335.13,898.451 C1335.13,899.851 1335.33,901.151 1336.03,902.351 C1337.53,905.051 1340.53,906.751 1344.43,907.151 C1345.03,907.251 1345.53,907.251 1346.13,907.251 C1349.63,907.251 1353.33,906.251 1356.83,904.351 C1363.43,900.751 1367.63,894.951 1367.63,889.851 C1367.63,888.451 1367.33,887.051 1366.63,885.851"/>
<path class="Note" d="M1512.4,873.35 C1510.9,870.65 1508,868.95 1504.1,868.55 C1503.5,868.45 1503,868.45 1502.4,868.45 C1498.9,868.45 1495.1,869.45 1491.6,871.35 C1485,874.95 1480.9,880.85 1480.9,885.95 C1480.9,887.35 1481.1,888.65 1481.8,889.85 C1483.3,892.55 1486.3,894.25 1490.2,894.65 C1490.8,894.75 1491.3,894.75 1491.9,894.75 C1495.4,894.75 1499.1,893.75 1502.6,891.85 C1509.2,888.25 1513.4,882.45 1513.4,877.35 C1513.4,875.95 1513.1,874.55 1512.4,873.35"/>
<path class="Note" d="M1723.82,885.851 C1722.32,883.151 1719.42,881.451 1715.52,881.051 C1714.92,880.951 1714.42,880.951 1713.82,880.951 C1710.32,880.951 1706.52,881.951 1703.02,883.851 C1696.42,887.451 1692.32,893.351 1692.32,898.451 C1692.32,899.851 1692.52,901.151 1693.22,902.351 C1694.72,905.051 1697.72,906.751 1701.62,907.151 C1702.22,907.251 1702.72,907.251 1703.32,907.251 C1706.82,907.251 1710.52,906.251 1714.02,904.351 C1720.62,900.751 1724.82,894.951 1724.82,889.851 C1724.82,888.451 1724.52,887.051 1723.82,885.851"/>
<path class="Note" d="M1853.49,898.352 C1851.99,895.652 1849.09,893.952 1845.19,893.552 C1844.59,893.452 1844.09,893.452 1843.49,893.452 C1839.99,893.452 1836.19,894.452 1832.69,896.352 C1826.09,899.952 1821.99,905.852 1821.99,910.952 C1821.99,912.352 1822.19,913.652 1822.89,914.852 C1824.39,917.552 1827.39,919.252 1831.29,919.652 C1831.89,919.752 1832.39,919.752 1832.99,919.752 C1836.49,919.752 1840.19,918.752 1843.69,916.852 C1850.29,913.252 1854.49,907.452 1854.49,902.352 C1854.49,900.952 1854.19,899.552 1853.49,898.352"/>
<path class="Note" d="M1983.17,910.853 C1981.67,908.153 1978.77,906.453 1974.87,906.053 C1974.27,905.953 1973.77,905.953 1973.17,905.953 C1969.67,905.953 1965.87,906.953 1962.37,908.853 C1955.77,912.453 1951.67,918.353 1951.67,923.453 C1951.67,924.853 1951.87,926.153 1952.57,927.353 C1954.07,930.053 1957.07,931.753 1960.97,932.153 C1961.57,932.253 1962.07,932.253 1962.67,932.253 C1966.17,932.253 1969.87,931.253 1973.37,929.353 C1979.97,925.753 1984.17,919.953 1984.17,914.853 C1984.17,913.453 1983.87,912.053 1983.17,910.853"/>
<path class="Note" d="M2112.84,923.353 C2111.34,920.653 2108.44,918.953 2104.54,918.553 C2103.94,918.453 2103.44,918.453 2102.84,918.453 C2099.34,918.453 2095.54,919.453 2092.04,921.353 C2085.44,924.953 2081.34,930.853 2081.34,935.953 C2081.34,937.353 2081.54,938.653 2082.24,939.853 C2083.74,942.553 2086.74,944.253 2090.64,944.653 C2091.24,944.753 2091.74,944.753 2092.34,944.753 C2095.84,944.753 2099.54,943.753 2103.04,941.853 C2109.64,938.253 2113.84,932.453 2113.84,927.353 C2113.84,925.953 2113.54,924.553 2112.84,923.353"/>
<path class="Note" d="M2299.42,935.854 C2297.92,933.154 2295.02,931.454 2291.12,931.054 C2290.52,930.954 2290.02,930.954 2289.42,930.954 C2285.92,930.954 2282.12,931.954 2278.62,933.854 C2272.02,937.454 2267.92,943.354 2267.92,948.454 C2267.92,949.854 2268.12,951.154 2268.82,952.354 C2270.32,955.054 2273.32,956.754 2277.22,957.154 C2277.82,957.254 2278.32,957.254 2278.92,957.254 C2282.42,957.254 2286.12,956.254 2289.62,954.354 C2296.22,950.754 2300.42,944.954 2300.42,939.854 C2300.42,938.454 2300.12,937.054 2299.42,935.854"/>
<path class="Note" d="M2428.51,948.355 C2427.01,945.655 2424.11,943.955 2420.21,943.555 C2419.61,943.455 2419.11,943.455 2418.51,943.455 C2415.01,943.455 2411.21,944.455 2407.71,946.355 C2401.11,949.955 2397.01,955.855 2397.01,960.955 C2397.01,962.355 2397.21,963.655 2397.91,964.855 C2399.41,967.555 2402.41,969.255 2406.31,969.655 C2406.91,969.755 2407.41,969.755 2408.01,969.755 C2411.51,969.755 2415.21,968.755 2418.71,966.855 C2425.31,963.255 2429.51,957.455 2429.51,952.355 C2429.51,950.955 2429.21,949.555 2428.51,948.355"/>
<path class="Note" d="M2557.59,960.856 C2556.09,958.156 2553.19,956.456 2549.29,956.056 C2548.69,955.956 2548.19,955.956 2547.59,955.956 C2544.09,955.956 2540.29,956.956 2536.79,958.856 C2530.19,962.456 2526.09,968.256 2526.09,973.356 C2526.09,974.756 2526.49,976.156 2527.19,977.356 C2528.69,980.156 2531.49,981.756 2535.39,982.156 C2535.99,982.256 2536.49,982.256 2537.09,982.256 C2540.59,982.256 2544.39,981.256 2547.89,979.356 C2554.49,975.756 2558.59,969.856 2558.59,964.756 C2558.59,963.356 2558.29,962.056 2557.59,960.856 M2553.39,967.156 C2551.69,968.956 2548.49,971.256 2544.89,973.356 C2541.29,975.456 2537.59,977.156 2535.29,977.856 C2534.79,977.956 2534.19,978.056 2533.69,978.056 C2532.19,978.056 2530.89,977.356 2530.19,976.256 C2529.89,975.656 2529.69,975.056 2529.69,974.456 C2529.69,973.356 2530.19,972.256 2531.29,971.056 C2532.99,969.256 2536.19,966.856 2539.79,964.756 C2543.39,962.656 2547.09,960.956 2549.49,960.356 L2549.69,960.356 C2550.29,960.156 2550.79,960.056 2551.29,960.056 C2552.69,960.056 2553.79,960.656 2554.49,961.956 C2554.79,962.556 2554.99,963.056 2554.99,963.656 C2554.99,964.956 2554.29,966.256 2553.39,967.156"/>
<path class="Note" d="M486.502,760.843 C485.002,758.143 482.102,756.443 478.202,756.043 C477.602,755.943 477.102,755.943 476.502,755.943 C473.002,755.943 469.202,756.943 465.702,758.843 C459.102,762.443 455.002,768.343 455.002,773.443 C455.002,774.843 455.202,776.143 455.902,777.343 C457.402,780.043 460.402,781.743 464.302,782.143 C464.902,782.243 465.402,782.243 466.002,782.243 C469.502,782.243 473.202,781.243 476.702,779.343 C483.302,775.743 487.502,769.943 487.502,764.843 C487.502,763.443 487.202,762.043 486.502,760.843"/>
<path class="Note" d="M624.397,748.342 C622.897,745.642 619.997,743.942 616.097,743.542 C615.497,743.442 614.997,743.442 614.397,743.442 C610.897,743.442 607.097,744.442 603.597,746.342 C596.997,749.942 592.897,755.842 592.897,760.942 C592.897,762.342 593.097,763.642 593.797,764.842 C595.297,767.542 598.297,769.242 602.197,769.642 C602.797,769.742 603.297,769.742 603.897,769.742 C607.397,769.742 611.097,768.742 614.597,766.842 C621.197,763.242 625.397,757.442 625.397,752.342 C625.397,750.942 625.097,749.542 624.397,748.342"/>
<path class="Note" d="M762.292,735.842 C760.792,733.142 757.892,731.442 753.992,731.042 C753.392,730.942 752.892,730.942 752.292,730.942 C748.792,730.942 744.992,731.942 741.492,733.842 C734.892,737.442 730.792,743.342 730.792,748.442 C730.792,749.842 730.992,751.142 731.692,752.342 C733.192,755.042 736.192,756.742 740.092,757.142 C740.692,757.242 741.192,757.242 741.792,757.242 C745.292,757.242 748.992,756.242 752.492,754.342 C759.092,750.742 763.292,744.942 763.292,739.842 C763.292,738.442 762.992,737.042 762.292,735.842"/>
<path class="Note" d="M900.188,723.341 C898.688,720.641 895.788,718.941 891.888,718.541 C891.288,718.441 890.788,718.441 890.188,718.441 C886.688,718.441 882.888,719.441 879.388,721.341 C872.788,724.941 868.688,730.841 868.688,735.941 C868.688,737.341 868.888,738.641 869.588,739.841 C871.088,742.541 874.088,744.241 877.988,744.641 C878.588,744.741 879.088,744.741 879.688,744.741 C883.188,744.741 886.888,743.741 890.388,741.841 C896.988,738.241 901.188,732.441 901.188,727.341 C901.188,725.941 900.888,724.541 900.188,723.341"/>
<path class="Note" d="M1075.08,710.84 C1073.58,708.14 1070.68,706.44 1066.78,706.04 C1066.18,705.94 1065.68,705.94 1065.08,705.94 C1061.58,705.94 1057.78,706.94 1054.28,708.84 C1047.68,712.44 1043.58,718.34 1043.58,723.44 C1043.58,724.84 1043.78,726.14 1044.48,727.34 C1045.98,730.04 1048.98,731.74 1052.88,732.14 C1053.48,732.24 1053.98,732.24 1054.58,732.24 C1058.08,732.24 1061.78,731.24 1065.28,729.34 C1071.88,725.74 1076.08,719.94 1076.08,714.84 C1076.08,713.44 1075.78,712.04 1075.08,710.84"/>
<path class="Note" d="M1220.86,698.339 C1219.36,695.639 1216.46,693.939 1212.56,693.539 C1211.96,693.439 1211.46,693.439 1210.86,693.439 C1207.36,693.439 1203.56,694.439 1200.06,696.339 C1193.46,699.939 1189.36,705.839 1189.36,710.939 C1189.36,712.339 1189.56,713.639 1190.26,714.839 C1191.76,717.539 1194.76,719.239 1198.66,719.639 C1199.26,719.739 1199.76,719.739 1200.36,719.739 C1203.86,719.739 1207.56,718.739 1211.06,716.839 C1217.66,713.239 1221.86,707.439 1221.86,702.339 C1221.86,700.939 1221.56,699.539 1220.86,698.339"/>
<path class="Note" d="M1366.63,685.838 C1365.13,683.138 1362.23,681.438 1358.33,681.038 C1357.73,680.938 1357.23,680.938 1356.63,680.938 C1353.13,680.938 1349.33,681.938 1345.83,683.838 C1339.23,687.438 1335.13,693.338 1335.13,698.438 C1335.13,699.838 1335.33,701.138 1336.03,702.338 C1337.53,705.038 1340.53,706.738 1344.43,707.138 C1345.03,707.238 1345.53,707.238 1346.13,707.238 C1349.63,707.238 1353.33,706.238 1356.83,704.338 C1363.43,700.738 1367.63,694.938 1367.63,689.838 C1367.63,688.438 1367.33,687.038 1366.63,685.838"/>
<path class="Note" d="M1512.4,673.338 C1510.9,670.638 1508,668.938 1504.1,668.538 C1503.5,668.438 1503,668.438 1502.4,668.438 C1498.9,668.438 1495.1,669.438 1491.6,671.338 C1485,674.938 1480.9,680.838 1480.9,685.938 C1480.9,687.338 1481.1,688.638 1481.8,689.838 C1483.3,692.538 1486.3,694.238 1490.2,694.638 C1490.8,694.738 1491.3,694.738 1491.9,694.738 C1495.4,694.738 1499.1,693.738 1502.6,691.838 C1509.2,688.238 1513.4,682.438 1513.4,677.338 C1513.4,675.938 1513.1,674.538 1512.4,673.338"/>
<path class="Note" d="M1723.82,685.838 C1722.32,683.138 1719.42,681.438 1715.52,681.038 C1714.92,680.938 1714.42,680.938 1713.82,680.938 C1710.32,680.938 1706.52,681.938 1703.02,683.838 C1696.42,687.438 1692.32,693.338 1692.32,698.438 C1692.32,699.838 1692.52,701.138 1693.22,702.338 C1694.72,705.038 1697.72,706.738 1701.62,707.138 C1702.22,707.238 1702.72,707.238 1703.32,707.238 C1706.82,707.238 1710.52,706.238 1714.02,704.338 C1720.62,700.738 1724.82,694.938 1724.82,689.838 C1724.82,688.438 1724.52,687.038 1723.82,685.838"/>
<path class="Note" d="M1853.49,698.339 C1851.99,695.639 1849.09,693.939 1845.19,693.539 C1844.59,693.439 1844.09,693.439 1843.49,693.439 C1839.99,693.439 1836.19,694.439 1832.69,696.339 C1826.09,699.939 1821.99,705.839 1821.99,710.939 C1821.99,712.339 1822.19,713.639 1822.89,714.839 C1824.39,717.539 1827.39,719.239 1831.29,719.639 C1831.89,719.739 1832.39,719.739 1832.99,719.739 C1836.49,719.739 1840.19,718.739 1843.69,716.839 C1850.29,713.239 1854.49,707.439 1854.49,702.339 C1854.49,700.939 1854.19,699.539 1853.49,698.339"/>
<path class="Note" d="M1983.17,710.84 C1981.67,708.14 1978.77,706.44 1974.87,706.04 C1974.27,705.94 1973.77,705.94 1973.17,705.94 C1969.67,705.94 1965.87,706.94 1962.37,708.84 C1955.77,712.44 1951.67,718.34 1951.67,723.44 C1951.67,724.84 1951.87,726.14 1952.57,727.34 C1954.07,730.04 1957.07,731.74 1960.97,732.14 C1961.57,732.24 1962.07,732.24 1962.67,732.24 C1966.17,732.24 1969.87,731.24 1973.37,729.34 C1979.97,725.74 1984.17,719.94 1984.17,714.84 C1984.17,713.44 1983.87,712.04 1983.17,710.84"/>
<path class="Note" d="M2112.84,723.341 C2111.34,720.641 2108.44,718.941 2104.54,718.541 C2103.94,718.441 2103.44,718.441 2102.84,718.441 C2099.34,718.441 2095.54,719.441 2092.04,721.341 C2085.44,724.941 2081.34,730.841 2081.34,735.941 C2081.34,737.341 2081.54,738.641 2082.24,739.841 C2083.74,742.541 2086.74,744.241 2090.64,744.641 C2091.24,744.741 2091.74,744.741 2092.34,744.741 C2095.84,744.741 2099.54,743.741 2103.04,741.841 C2109.64,738.241 2113.84,732.441 2113.84,727.341 C2113.84,725.941 2113.54,724.541 2112.84,723.341"/>
<path class="Note" d="M2299.42,735.842 C2297.92,733.142 2295.02,731.442 2291.12,731.042 C2290.52,730.942 2290.02,730.942 2289.42,730.942 C2285.92,730.942 2282.12,731.942 2278.62,733.842 C2272.02,737.442 2267.92,743.342 2267.92,748.442 C2267.92,749.842 2268.12,751.142 2268.82,752.342 C2270.32,755.042 2273.32,756.742 2277.22,757.142 C2277.82,757.242 2278.32,757.242 2278.92,757.242 C2282.42,757.242 2286.12,756.242 2289.62,754.342 C2296.22,750.742 2300.42,744.942 2300.42,739.842 C2300.42,738.442 2300.12,737.042 2299.42,735.842"/>
<path class="Note" d="M2428.51,748.342 C2427.01,745.642 2424.11,743.942 2420.21,743.542 C2419.61,743.442 2419.11,743.442 2418.51,743.442 C2415.01,743.442 2411.21,744.442 2407.71,746.342 C2401.11,749.942 2397.01,755.842 2397.01,760.942 C2397.01,762.342 2397.21,763.642 2397.91,764.842 C2399.41,767.542 2402.41,769.242 2406.31,769.642 C2406.91,769.742 2407.41,769.742 2408.01,769.742 C2411.51,769.742 2415.21,768.742 2418.71,766.842 C2425.31,763.242 2429.51,757.442 2429.51,752.342 C2429.51,750.942 2429.21,749.542 2428.51,748.342"/>
<path class="Note" d="M2557.59,760.843 C2556.09,758.143 2553.19,756.443 2549.29,756.043 C2548.69,755.943 2548.19,755.943 2547.59,755.943 C2544.09,755.943 2540.29,756.943 2536.79,758.843 C2530.19,762.443 2526.09,768.243 2526.09,773.343 C2526.09,774.743 2526.49,776.143 2527.19,777.343 C2528.69,780.143 2531.49,781.743 2535.39,782.143 C2535.99,782.243 2536.49,782.243 2537.09,782.243 C2540.59,782.243 2544.39,781.243 2547.89,779.343 C2554.49,775.743 2558.59,769.843 2558.59,764.743 C2558.59,763.343 2558.29,762.043 2557.59,760.843 M2553.39,767.143 C2551.69,768.943 2548.49,771.243 2544.89,773.343 C2541.29,775.443 2537.59,777.143 2535.29,777.843 C2534.79,777.943 2534.19,778.043 2533.69,778.043 C2532.19,778.043 2530.89,777.343 2530.19,776.243 C2529.89,775.643 2529.69,775.043 2529.69,774.443 C2529.69,773.343 2530.19,772.243 2531.29,771.043 C2532.99,769.243 2536.19,766.843 2539.79,764.743 C2543.39,762.643 2547.09,760.943 2549.49,760.343 L2549.69,760.343 C2550.29,760.143 2550.79,760.043 2551.29,760.043 C2552.69,760.043 2553.79,760.643 2554.49,761.943 C2554.79,762.543 2554.99,763.043 2554.99,763.643 C2554.99,764.943 2554.29,766.243 2553.39,767.143"/>
<path class="Clef" d="M297,918.954 C289.4,918.954 283.3,923.354 283.2,923.354 C277.4,927.654 275.1,932.754 274.2,936.254 C273.7,938.054 273.5,939.854 273.5,941.554 C273.5,943.954 273.9,946.154 274.8,948.054 C276,950.754 278.3,952.654 281.3,953.654 C282.5,954.054 283.8,954.254 285.1,954.254 C287.3,954.254 289.6,953.654 291.5,952.554 C294.6,950.854 296.5,947.254 296.5,943.354 C296.5,939.854 294.7,936.654 291.7,934.754 C289.6,933.354 287.6,932.954 285.9,932.954 C284.7,932.954 283.6,933.154 282.7,933.454 C281.7,933.854 280,934.854 279.2,935.554 C279.5,933.654 280.7,930.754 281.8,929.154 C282.9,927.554 285.1,925.554 286.8,924.654 C289.3,923.254 292.5,922.654 296,922.654 C306.2,922.654 311.2,930.854 311.2,947.654 C311.2,956.954 307.7,965.854 304.7,971.754 C301.4,978.354 297,984.654 293.1,988.154 C282.7,997.654 272.9,1002.15 272.8,1002.15 C272.8,1002.15 271.3,1003.05 271.7,1004.55 C272,1005.55 272.9,1005.75 273.5,1005.75 C273.6,1005.75 273.9,1005.65 274,1005.65 C274.1,1005.65 285.5,1000.95 294.6,993.854 C299.7,990.154 304.3,986.154 308.3,981.854 C311.9,977.954 315,973.754 317.5,969.554 C321.9,962.054 324.4,954.254 324.4,947.554 C324.4,939.254 322.2,932.354 318.1,927.454 C313.4,921.854 306.3,918.954 297,918.954 M328.4,931.654 C328.4,934.454 330.6,936.654 333.2,936.654 C335.8,936.654 338,934.454 338,931.654 C338,928.854 335.8,926.554 333.2,926.554 C330.6,926.554 328.4,928.854 328.4,931.654 M328.4,956.354 C328.4,959.154 330.6,961.454 333.2,961.454 C335.8,961.454 338,959.154 338,956.354 C338,953.554 335.8,951.254 333.2,951.254 C330.6,951.254 328.4,953.554 328.4,956.354"/>
<path class="Clef" d="M335,725.641 C333.8,720.241 331.1,716.341 330.3,715.341 C327.1,711.041 323.1,708.241 318.4,706.841 C316.1,706.141 314,705.941 312,705.941 C311.3,705.941 310.6,705.941 309.9,706.041 C308.9,700.041 307.8,694.141 306.9,688.741 C312.5,682.541 316.2,676.641 318.6,672.241 C322.2,665.541 323.6,660.841 323.7,660.641 C324.9,657.641 325.6,653.841 325.6,649.341 C325.6,646.641 325.3,643.741 324.9,640.741 C323.8,633.641 321.6,626.941 319.1,623.241 C317.8,621.341 316.6,620.241 315.4,620.241 C314.2,620.241 311.7,621.441 308.8,624.241 C306.5,626.441 303.2,630.341 300.6,636.341 C298.3,641.741 297.6,648.641 297.6,654.541 C297.6,656.341 297.7,658.041 297.8,659.641 C298,663.241 298.7,669.041 299.3,672.641 C299.3,672.741 299.6,674.241 300,676.841 L299.3,677.541 C298.3,678.541 297.1,679.641 295.7,681.041 C294.8,681.941 293.9,682.741 292.9,683.741 C284.4,691.941 271.6,704.341 271.6,723.441 C271.6,728.141 272.5,732.541 274.3,736.541 C275.9,740.141 278.2,743.441 281.1,746.341 C288.6,753.741 298.8,756.941 305.9,756.941 L306.5,756.941 C309.4,756.841 312.1,756.541 314.5,756.141 C316.3,765.741 317.5,772.841 317.5,778.141 C317.5,784.641 315.9,788.541 312,791.341 C309.6,793.041 306.7,794.141 303.6,794.241 L302.8,794.241 C301.3,794.241 298.8,793.841 297.3,793.441 C297.3,793.441 297,793.341 297,793.141 C297,792.941 297.4,792.941 297.4,792.941 C299.3,792.541 302.9,791.241 305.3,787.941 C306.4,786.441 307.1,784.141 307.1,781.641 C307.1,780.041 306.8,778.341 306.1,776.841 C305,774.441 302.4,771.441 296.8,771.041 L295.7,771.041 C293.6,771.041 291.8,771.541 290.1,772.541 C288.3,773.641 286.7,775.341 285.7,777.341 C284.6,779.341 284.1,781.541 284.1,783.741 C284.1,786.641 285,789.341 286.8,791.541 C289.8,795.141 294.5,797.441 299.9,798.041 C300.6,798.141 301.7,798.241 302.4,798.241 C306.8,798.241 311.2,797.041 314.8,794.841 C318.5,792.241 320.6,788.241 321.3,782.641 C321.5,781.341 321.5,779.941 321.5,778.441 C321.5,774.541 321,769.841 320,764.041 C319.6,761.941 319.2,758.941 318.5,755.141 C324.3,753.241 328.4,749.541 332.2,743.741 C334.5,739.741 335.6,735.641 335.6,731.341 C335.6,729.441 335.4,727.541 335,725.641 M304.8,647.741 C306.6,642.041 309.3,638.641 311.3,636.941 C313.1,635.441 314.7,634.741 315.6,634.741 C315.7,634.741 315.9,634.841 316,634.841 C316.3,634.941 316.7,635.441 317.1,636.141 C318,637.941 318.9,641.241 318.9,644.941 C318.9,646.841 318.7,648.841 318.1,650.641 C315.9,657.441 311.3,664.741 304.3,672.441 C304.1,671.341 303.9,670.341 303.8,669.341 C303.3,666.141 303,662.941 303,660.041 C303,655.541 303.6,651.441 304.8,647.741 M300.8,751.841 C296.2,750.641 291.7,748.141 287.9,744.641 C286.6,743.441 284.8,741.241 283.3,737.841 C282,734.841 281.3,731.741 281.3,728.341 L281.3,727.641 C281.4,722.941 282.7,718.141 285.2,713.341 C288.1,707.741 292.6,702.241 298.7,696.941 C300.2,695.641 301.6,694.341 302.9,693.041 C303.7,697.341 304.4,702.041 305.3,706.941 C301.4,708.241 296.7,711.241 293.6,716.941 C291.2,721.441 290.5,725.341 290.5,728.541 C290.5,730.041 290.7,731.441 290.9,732.541 C291.8,737.041 294.4,740.741 297.9,742.841 C298.7,743.341 302,745.041 304,745.041 C304.3,745.041 304.6,745.041 304.8,744.941 C305.1,744.841 305.4,744.641 305.5,744.341 C305.6,744.141 305.6,743.941 305.6,743.741 C305.6,742.941 304.8,742.341 303.5,741.541 C302.9,741.141 302.2,740.741 301.5,740.241 C298.9,738.241 297.4,735.141 297.4,731.741 C297.4,730.741 297.6,729.841 297.8,728.841 C298.3,726.841 300,724.041 301.5,722.641 C303.2,721.141 305.2,719.941 307.6,719.341 C309.6,730.541 311.7,741.641 313.3,750.041 C313.4,750.741 313.6,751.441 313.7,752.141 C311.7,752.541 309.7,752.741 307.8,752.741 C305.4,752.741 303.1,752.441 300.8,751.841 M326.5,741.641 C325.3,744.841 322.8,748.841 317.7,750.941 C317.6,750.541 317.6,750.041 317.5,749.641 C316,740.841 314.1,729.941 312.1,718.641 L313.1,718.641 C322.8,718.641 326.7,725.841 327.6,730.441 C327.8,731.341 327.9,732.541 327.9,733.841 C327.9,736.141 327.5,738.941 326.5,741.641"/>
<path class="TimeSig" d="M365.2,957.453 L382,957.453 L382,964.753 L373.9,964.753 C373.1,964.753 372.5,965.353 372.5,966.153 L372.5,968.053 C372.5,968.853 373.1,969.353 373.9,969.353 L403.6,969.353 C404.4,969.353 405,968.853 405,968.053 L405,966.153 C405,965.353 404.4,964.753 403.6,964.753 L394.8,964.753 L394.8,957.453 L403.6,957.453 C404.4,957.453 405,956.853 405,956.053 L405,954.253 C405,953.453 404.4,952.853 403.6,952.853 L394.8,952.853 L394.8,937.153 C394.8,936.653 394.4,936.153 394,935.953 L392.9,935.353 C392.7,935.253 392.4,935.253 392.2,935.253 C391.9,935.253 391.5,935.353 391.3,935.553 L382.4,943.753 C382.2,943.953 382,944.453 382,944.753 L382,952.853 L370.7,952.853 C370.7,952.853 381.6,941.053 393.2,925.553 C394,924.453 393.6,923.453 393.4,923.253 L391.3,921.053 C391.1,920.853 390.6,920.653 390.3,920.653 L375.7,920.653 C375,920.653 374.5,921.253 374.4,921.853 C374.4,921.853 373.9,929.053 371.3,937.053 C368.7,945.053 365.9,949.853 363.3,953.453 C363.3,953.453 362.8,954.453 363.1,955.153 C363.4,955.853 364.1,956.953 364.1,956.953 C364.1,956.953 364.4,957.453 365.2,957.453"/>
<path class="TimeSig" d="M365.2,1006.06 L382,1006.06 L382,1013.36 L373.9,1013.36 C373.1,1013.36 372.5,1013.96 372.5,1014.76 L372.5,1016.66 C372.5,1017.46 373.1,1017.96 373.9,1017.96 L403.6,1017.96 C404.4,1017.96 405,1017.46 405,1016.66 L405,1014.76 C405,1013.96 404.4,1013.36 403.6,1013.36 L394.8,1013.36 L394.8,1006.06 L403.6,1006.06 C404.4,1006.06 405,1005.46 405,1004.66 L405,1002.86 C405,1002.06 404.4,1001.46 403.6,1001.46 L394.8,1001.46 L394.8,985.758 C394.8,985.258 394.4,984.758 394,984.558 L392.9,983.958 C392.7,983.858 392.4,983.858 392.2,983.858 C391.9,983.858 391.5,983.958 391.3,984.158 L382.4,992.358 C382.2,992.558 382,993.058 382,993.358 L382,1001.46 L370.7,1001.46 C370.7,1001.46 381.6,989.658 393.2,974.158 C394,973.058 393.6,972.058 393.4,971.858 L391.3,969.658 C391.1,969.458 390.6,969.258 390.3,969.258 L375.7,969.258 C375,969.258 374.5,969.858 374.4,970.458 C374.4,970.458 373.9,977.658 371.3,985.658 C368.7,993.658 365.9,998.458 363.3,1002.06 C363.3,1002.06 362.8,1003.06 363.1,1003.76 C363.4,1004.46 364.1,1005.56 364.1,1005.56 C364.1,1005.56 364.4,1006.06 365.2,1006.06"/>
<path class="TimeSig" d="M365.2,694.937 L382,694.937 L382,702.237 L373.9,702.237 C373.1,702.237 372.5,702.837 372.5,703.637 L372.5,705.537 C372.5,706.337 373.1,706.837 373.9,706.837 L403.6,706.837 C404.4,706.837 405,706.337 405,705.537 L405,703.637 C405,702.837 404.4,702.237 403.6,702.237 L394.8,702.237 L394.8,694.937 L403.6,694.937 C404.4,694.937 405,694.337 405,693.537 L405,691.737 C405,690.937 404.4,690.337 403.6,690.337 L394.8,690.337 L394.8,674.637 C394.8,674.137 394.4,673.637 394,673.437 L392.9,672.837 C392.7,672.737 392.4,672.737 392.2,672.737 C391.9,672.737 391.5,672.837 391.3,673.037 L382.4,681.237 C382.2,681.437 382,681.937 382,682.237 L382,690.337 L370.7,690.337 C370.7,690.337 381.6,678.537 393.2,663.037 C394,661.937 393.6,660.937 393.4,660.737 L391.3,658.537 C391.1,658.337 390.6,658.137 390.3,658.137 L375.7,658.137 C375,658.137 374.5,658.737 374.4,659.337 C374.4,659.337 373.9,666.537 371.3,674.537 C368.7,682.537 365.9,687.337 363.3,690.937 C363.3,690.937 362.8,691.937 363.1,692.637 C363.4,693.337 364.1,694.437 364.1,694.437 C364.1,694.437 364.4,694.937 365.2,694.937"/>
<path class="TimeSig" d="M365.2,743.541 L382,743.541 L382,750.841 L373.9,750.841 C373.1,750.841 372.5,751.441 372.5,752.241 L372.5,754.141 C372.5,754.941 373.1,755.441 373.9,755.441 L403.6,755.441 C404.4,755.441 405,754.941 405,754.141 L405,752.241 C405,751.441 404.4,750.841 403.6,750.841 L394.8,750.841 L394.8,743.541 L403.6,743.541 C404.4,743.541 405,742.941 405,742.141 L405,740.341 C405,739.541 404.4,738.941 403.6,738.941 L394.8,738.941 L394.8,723.241 C394.8,722.741 394.4,722.241 394,722.041 L392.9,721.441 C392.7,721.341 392.4,721.341 392.2,721.341 C391.9,721.341 391.5,721.441 391.3,721.641 L382.4,729.841 C382.2,730.041 382,730.541 382,730.841 L382,738.941 L370.7,738.941 C370.7,738.941 381.6,727.141 393.2,711.641 C394,710.541 393.6,709.541 393.4,709.341 L391.3,707.141 C391.1,706.941 390.6,706.741 390.3,706.741 L375.7,706.741 C375,706.741 374.5,707.341 374.4,707.941 C374.4,707.941 373.9,715.141 371.3,723.141 C368.7,731.141 365.9,735.941 363.3,739.541 C363.3,739.541 362.8,740.541 363.1,741.241 C363.4,741.941 364.1,743.041 364.1,743.041 C364.1,743.041 364.4,743.541 365.2,743.541"/>
<path class="Page" d="M226.289,4049.49 C230.384,4048.01 232.274,4045.71 232.274,4042.11 C232.274,4037.39 228.674,4034.37 223.094,4034.37 C217.829,4034.37 213.824,4037.48 213.824,4041.57 C213.824,4043.42 215.039,4044.72 216.794,4044.72 C218.369,4044.72 219.449,4043.64 219.449,4042.02 C219.449,4041.03 219.089,4040.45 218.054,4039.73 C217.604,4039.41 217.469,4039.23 217.469,4038.92 C217.469,4037.66 220.079,4036.31 222.644,4036.31 C225.884,4036.31 227.594,4038.33 227.594,4042.16 C227.594,4046.34 225.884,4048.55 222.689,4048.55 C222.284,4048.55 221.519,4048.5 220.844,4048.46 C220.484,4048.41 220.124,4048.41 219.854,4048.41 C218.909,4048.41 218.414,4048.82 218.414,4049.63 C218.414,4050.39 218.864,4050.75 219.854,4050.75 C220.124,4050.75 220.484,4050.75 220.889,4050.71 C221.789,4050.66 222.509,4050.66 223.004,4050.66 C226.334,4050.66 228.134,4053.05 228.134,4057.5 C228.134,4062.18 225.884,4064.79 221.834,4064.79 C218.999,4064.79 215.939,4063.26 215.939,4061.87 C215.939,4061.46 216.029,4061.37 216.884,4060.88 C218.144,4060.11 218.639,4059.35 218.639,4058.22 C218.639,4056.6 217.424,4055.39 215.804,4055.39 C213.869,4055.39 212.609,4056.96 212.609,4059.35 C212.609,4063.71 216.614,4066.73 222.374,4066.73 C228.899,4066.73 233.129,4063.13 233.129,4057.59 C233.129,4053.36 230.969,4050.8 226.289,4049.49"/>
<path class="Bracket" transform="matrix(3.62523,0,0,3.62523,214.469,1019.06)" d="M0.92002,-50 C2.69004,-51.88 6.2,-55.8 6.2,-63 C6.2,-72.1 2.25996,-81.32 2.25996,-86.97 C2.25996,-93.06 5.84004,-98.84 5.95,-99 C6.05996,-99.16 6.05,-99.39 5.94004,-99.46 C5.82998,-99.53 5.62002,-99.47 5.49004,-99.32 C5.35996,-99.17 0,-93.75 0,-85.6 C0,-76.75 3.5,-70.58 3.5,-59.07 C3.5,-56.89 2.55996,-53.36 0.1,-50.33 C-0.0799805,-50.17 -0.1,-49.89 0.0599609,-49.7 L0.0700195,-49.69 L0.1,-49.66 C2.55996,-46.63 3.5,-43.1 3.5,-40.92 C3.5,-29.4 0,-23.24 0,-14.39 C0,-6.25 5.35996,-0.8 5.49004,-0.659961 C5.62002,-0.52002 5.8,-0.42998 5.94004,-0.52002 C6.07998,-0.609961 6.07998,-0.77998 5.95,-0.97998 C5.82002,-1.17998 2.25996,-6.92002 2.25996,-13.01 C2.25996,-18.66 6.2,-27.9 6.2,-37 C6.2,-44.3 2.69004,-48.12 0.92002,-50"/>
</svg>