<?xml version="1.0" encoding="UTF-8" standalone="no"?>
<svg width="1000px" height="220px" viewBox="150 600 2700 500" xmlns="http://www.w3.org/2000/svg" xmlns:xlink="http://www.w3.org/1999/xlink" version="1.2" baseProfile="tiny">
 xmlns="http://www.w3.org/2000/svg" xmlns:xlink="http://www.w3.org/1999/xlink" version="1.2" baseProfile="tiny">
<title>exercises_scores (21)</title>
<desc>Generated by MuseScore 3.6.0</desc>
<polyline class="StaffLines" fill="none" stroke="#000000" stroke-width="2.75" stroke-linejoin="bevel" points="247.099,653.005 2764.63,653.005"/>
<polyline class="StaffLines" fill="none" stroke="#000000" stroke-width="2.75" stroke-linejoin="bevel" points="247.099,678.006 2764.63,678.006"/>
<polyline class="StaffLines" fill="none" stroke="#000000" stroke-width="2.75" stroke-linejoin="bevel" points="247.099,703.008 2764.63,703.008"/>
<polyline class="StaffLines" fill="none" stroke="#000000" stroke-width="2.75" stroke-linejoin="bevel" points="247.099,728.009 2764.63,728.009"/>
<polyline class="StaffLines" fill="none" stroke="#000000" stroke-width="2.75" stroke-linejoin="bevel" points="247.099,753.011 2764.63,753.011"/>
<polyline class="StaffLines" fill="none" stroke="#000000" stroke-width="2.75" stroke-linejoin="bevel" points="247.099,915.521 2764.63,915.521"/>
<polyline class="StaffLines" fill="none" stroke="#000000" stroke-width="2.75" stroke-linejoin="bevel" points="247.099,940.523 2764.63,940.523"/>
<polyline class="StaffLines" fill="none" stroke="#000000" stroke-width="2.75" stroke-linejoin="bevel" points="247.099,965.524 2764.63,965.524"/>
<polyline class="StaffLines" fill="none" stroke="#000000" stroke-width="2.75" stroke-linejoin="bevel" points="247.099,990.526 2764.63,990.526"/>
<polyline class="StaffLines" fill="none" stroke="#000000" stroke-width="2.75" stroke-linejoin="bevel" points="247.099,1015.53 2764.63,1015.53"/>
<path class="Text" d="M249.083,217.046 L246.803,217.046 L244.463,220.646 C240.563,217.586 237.923,216.566 233.543,216.566 C228.803,216.566 225.083,217.886 221.303,220.946 C215.363,225.746 212.603,231.806 212.603,239.906 C212.603,246.026 214.343,251.126 217.883,255.026 C221.603,259.226 227.123,261.686 232.883,261.686 C237.923,261.686 241.463,260.126 245.363,256.226 L247.583,261.626 L250.103,261.626 L250.103,248.426 C250.103,245.366 250.103,245.246 250.463,244.706 C251.003,244.046 252.083,243.866 255.503,243.866 L256.403,243.866 L256.403,241.046 L237.323,241.046 L237.323,243.866 L238.463,243.866 C243.503,243.866 243.923,244.166 243.923,247.526 C243.923,250.106 243.503,252.446 242.723,253.886 C241.223,256.826 237.383,258.866 233.483,258.866 C229.583,258.866 225.743,256.886 223.703,253.886 C221.483,250.526 220.523,246.326 220.523,239.906 C220.523,226.526 224.963,219.386 233.303,219.386 C240.143,219.386 244.883,224.306 247.343,233.906 L249.923,233.906 L249.083,217.046 M279.273,230.708 C279.76,230.613 280.155,230.132 280.155,229.636 L280.155,229.634 L280.155,224.954 C280.154,224.665 279.971,224.283 279.747,224.102 C279.581,223.966 279.273,223.857 279.059,223.857 C278.996,223.857 278.896,223.867 278.835,223.88 L276.249,224.414 L276.249,212.606 L274.053,212.606 L274.053,224.87 L266.955,226.34 L266.955,215.102 L264.759,215.102 L264.759,226.796 L261.651,227.438 C261.167,227.54 260.775,228.024 260.775,228.518 L260.775,233.114 C260.775,233.401 260.955,233.783 261.177,233.966 C261.344,234.102 261.654,234.212 261.869,234.212 L261.873,234.212 C261.934,234.212 262.034,234.204 262.095,234.194 L264.759,233.654 L264.759,246.764 L261.651,247.406 C261.168,247.506 260.775,247.987 260.775,248.48 L260.775,253.082 C260.775,253.369 260.955,253.751 261.177,253.934 C261.344,254.07 261.654,254.18 261.869,254.18 L261.873,254.18 C261.876,254.18 261.881,254.18 261.884,254.18 C261.943,254.18 262.037,254.169 262.095,254.156 L264.759,253.616 L264.759,265.406 L266.955,265.406 L266.955,253.172 L274.053,251.732 L274.053,262.91 L276.249,262.91 L276.249,251.288 L279.273,250.676 C279.76,250.581 280.155,250.1 280.155,249.604 L280.155,249.602 L280.155,244.922 C280.154,244.633 279.971,244.251 279.747,244.07 C279.583,243.933 279.278,243.823 279.065,243.823 C279.001,243.823 278.898,243.834 278.835,243.848 L276.249,244.382 L276.249,231.326 L279.273,230.708 M266.955,246.308 L266.955,233.204 L274.053,231.77 L274.053,244.838 L266.955,246.308 M312.955,232.826 L302.275,233.486 L302.275,236.066 L304.735,236.066 C307.015,236.126 307.315,236.486 307.315,239.066 L307.315,253.406 L307.315,255.746 L307.315,256.226 C307.255,257.126 307.195,257.486 306.955,257.786 C306.535,258.326 305.395,258.566 302.815,258.626 L302.575,258.626 L302.575,260.786 L317.695,260.786 L317.695,258.626 L317.455,258.626 C313.495,258.506 312.955,258.206 312.955,255.986 L312.955,253.406 L312.955,244.886 C312.955,239.546 315.895,235.586 319.795,235.586 C323.215,235.586 324.955,238.046 324.955,242.906 L324.955,253.406 L324.955,256.286 C324.895,257.066 324.835,257.486 324.535,257.786 C324.175,258.326 322.975,258.566 320.395,258.626 L320.155,258.626 L320.155,260.786 L335.335,260.786 L335.335,258.626 L335.095,258.626 C331.135,258.506 330.595,258.206 330.595,256.046 L330.595,253.406 L330.595,245.426 C330.595,239.426 333.295,235.586 337.495,235.586 C340.915,235.586 342.595,238.166 342.595,243.566 L342.595,253.406 L342.595,256.226 C342.535,257.066 342.475,257.486 342.175,257.786 C341.815,258.326 340.615,258.566 338.035,258.626 L337.795,258.626 L337.795,260.786 L352.975,260.786 L352.975,258.626 L352.735,258.626 C348.775,258.506 348.235,258.206 348.235,255.986 L348.235,253.406 L348.235,242.366 C348.235,238.646 347.875,237.386 346.315,235.346 C344.575,233.126 342.115,231.926 339.235,231.926 C335.335,231.926 332.455,233.786 329.875,237.926 C328.855,234.326 325.615,231.926 321.595,231.926 C317.935,231.926 315.295,233.666 312.955,237.446 L312.955,232.826 M366.583,232.826 L355.303,233.486 L355.303,236.066 L358.363,236.066 C360.643,236.126 360.943,236.486 360.943,239.066 L360.943,253.406 L360.943,256.226 C360.883,257.126 360.823,257.486 360.583,257.786 C360.163,258.326 359.023,258.566 356.443,258.626 L356.023,258.626 L356.023,260.786 L371.563,260.786 L371.563,258.626 L371.143,258.626 C367.123,258.506 366.583,258.206 366.583,256.046 L366.583,253.406 L366.583,232.826 M363.763,217.886 C361.843,217.886 360.283,219.446 360.283,221.366 C360.283,223.286 361.843,224.846 363.703,224.846 C365.683,224.846 367.243,223.286 367.243,221.366 C367.243,219.446 365.683,217.886 363.763,217.886 M385.114,232.826 L374.734,233.486 L374.734,236.066 L376.894,236.066 C379.174,236.126 379.474,236.486 379.474,239.066 L379.474,253.406 L379.474,254.846 L379.474,256.226 C379.414,257.126 379.354,257.486 379.114,257.786 C378.694,258.326 377.554,258.566 374.974,258.626 L374.734,258.626 L374.734,260.786 L389.914,260.786 L389.914,258.626 L389.674,258.626 C385.654,258.506 385.114,258.206 385.114,256.046 L385.114,253.406 L385.114,247.166 C385.114,244.226 385.534,241.526 386.194,240.146 C387.454,237.446 390.154,235.586 392.734,235.586 C394.294,235.586 396.094,236.426 396.994,237.686 C397.894,239.006 398.314,240.806 398.314,243.686 L398.314,253.406 L398.314,256.226 C398.254,257.126 398.194,257.486 397.954,257.786 C397.534,258.326 396.334,258.566 393.754,258.626 L393.514,258.626 L393.514,260.786 L408.694,260.786 L408.694,258.626 L408.454,258.626 C404.494,258.506 403.954,258.206 403.954,256.046 L403.954,253.406 L403.954,243.986 C403.954,239.666 403.774,238.586 402.694,236.546 C401.194,233.666 398.194,231.926 394.594,231.926 C390.694,231.926 387.754,233.726 385.114,237.686 L385.114,232.826 M424.89,231.926 C417.51,231.926 411.81,238.466 411.81,246.866 C411.81,255.086 417.57,261.686 424.77,261.686 C431.97,261.686 437.73,255.086 437.73,246.806 C437.73,238.586 431.97,231.926 424.89,231.926 M424.89,234.506 C429.09,234.506 431.43,238.886 431.43,246.806 C431.43,254.786 429.09,259.106 424.77,259.106 C420.45,259.106 418.11,254.786 418.11,246.866 C418.11,238.706 420.39,234.506 424.89,234.506 M451.65,232.826 L441.03,233.486 L441.03,236.066 L443.49,236.066 C445.77,236.126 446.07,236.486 446.07,239.066 L446.07,253.406 L446.07,256.226 C446.01,257.126 445.95,257.486 445.71,257.786 C445.29,258.326 444.09,258.566 441.51,258.626 L441.27,258.626 L441.27,260.786 L457.29,260.786 L457.29,258.626 L456.21,258.626 C452.19,258.506 451.65,258.206 451.65,256.046 L451.65,253.406 L451.65,252.806 C451.71,242.726 455.31,235.046 459.99,234.806 C459.15,235.766 458.91,236.366 458.91,237.506 C458.91,239.426 460.29,240.806 462.21,240.806 C464.43,240.806 465.87,239.186 465.87,236.786 C465.87,233.846 463.83,231.926 460.65,231.926 C456.87,231.926 453.63,234.926 451.65,240.266 L451.65,232.826 "/>
<polyline class="BarLine" fill="none" stroke="#000000" stroke-width="4.50" stroke-linejoin="bevel" points="249.349,914.146 249.349,1016.9"/>
<polyline class="BarLine" fill="none" stroke="#000000" stroke-width="4.50" stroke-linejoin="bevel" points="1001.42,914.146 1001.42,1016.9"/>
<polyline class="BarLine" fill="none" stroke="#000000" stroke-width="4.50" stroke-linejoin="bevel" points="1619.89,914.146 1619.89,1016.9"/>
<polyline class="BarLine" fill="none" stroke="#000000" stroke-width="4.50" stroke-linejoin="bevel" points="2238.36,914.146 2238.36,1016.9"/>
<polyline class="BarLine" fill="none" stroke="#000000" stroke-width="4.50" stroke-linejoin="bevel" points="2734.88,914.146 2734.88,1016.9"/>
<polyline class="BarLine" fill="none" stroke="#000000" stroke-width="13.75" stroke-linejoin="bevel" points="2757.75,914.146 2757.75,1016.9"/>
<polyline class="BarLine" fill="none" stroke="#000000" stroke-width="4.50" stroke-linejoin="bevel" points="249.349,651.63 249.349,915.521"/>
<polyline class="BarLine" fill="none" stroke="#000000" stroke-width="4.50" stroke-linejoin="bevel" points="1001.42,651.63 1001.42,915.521"/>
<polyline class="BarLine" fill="none" stroke="#000000" stroke-width="4.50" stroke-linejoin="bevel" points="1619.89,651.63 1619.89,915.521"/>
<polyline class="BarLine" fill="none" stroke="#000000" stroke-width="4.50" stroke-linejoin="bevel" points="2238.36,651.63 2238.36,915.521"/>
<polyline class="BarLine" fill="none" stroke="#000000" stroke-width="4.50" stroke-linejoin="bevel" points="2734.88,651.63 2734.88,915.521"/>
<polyline class="BarLine" fill="none" stroke="#000000" stroke-width="13.75" stroke-linejoin="bevel" points="2757.75,651.63 2757.75,915.521"/>
<path class="Accidental" d="M478.302,917.422 C478.902,917.322 479.402,916.622 479.402,916.022 L479.402,910.122 C479.402,909.322 478.802,908.722 478.002,908.722 L477.802,908.722 L474.502,909.422 L474.502,894.522 L471.702,894.522 L471.702,910.022 L462.802,911.822 L462.802,897.722 L460.002,897.722 L460.002,912.422 L456.102,913.222 C455.502,913.322 455.002,914.022 455.002,914.622 L455.002,914.822 L455.002,920.622 L455.002,920.422 C455.002,921.222 455.602,921.822 456.402,921.822 L456.702,921.822 L460.002,921.122 L460.002,937.622 L456.102,938.422 C455.502,938.522 455.002,939.222 455.002,939.822 L455.002,945.622 C455.002,946.422 455.602,947.022 456.402,947.022 L456.702,947.022 L460.002,946.322 L460.002,961.222 L462.802,961.222 L462.802,945.722 L471.702,943.922 L471.702,958.022 L474.502,958.022 L474.502,943.322 L478.302,942.622 C478.902,942.522 479.402,941.822 479.402,941.222 L479.402,935.322 C479.402,934.522 478.802,933.922 478.002,933.922 L477.802,933.922 L474.502,934.622 L474.502,918.122 L478.302,917.422 M462.802,937.122 L462.802,920.522 L471.702,918.722 L471.702,935.222 L462.802,937.122 "/>
<path class="Accidental" d="M606.681,904.921 C607.281,904.821 607.781,904.121 607.781,903.521 L607.781,897.621 C607.781,896.821 607.181,896.221 606.381,896.221 L606.181,896.221 L602.881,896.921 L602.881,882.021 L600.081,882.021 L600.081,897.521 L591.181,899.321 L591.181,885.221 L588.381,885.221 L588.381,899.921 L584.481,900.721 C583.881,900.821 583.381,901.521 583.381,902.121 L583.381,902.321 L583.381,908.121 L583.381,907.921 C583.381,908.721 583.981,909.321 584.781,909.321 L585.081,909.321 L588.381,908.621 L588.381,925.121 L584.481,925.921 C583.881,926.021 583.381,926.721 583.381,927.321 L583.381,933.121 C583.381,933.921 583.981,934.521 584.781,934.521 L585.081,934.521 L588.381,933.821 L588.381,948.721 L591.181,948.721 L591.181,933.221 L600.081,931.421 L600.081,945.521 L602.881,945.521 L602.881,930.821 L606.681,930.121 C607.281,930.021 607.781,929.321 607.781,928.721 L607.781,922.821 C607.781,922.021 607.181,921.421 606.381,921.421 L606.181,921.421 L602.881,922.121 L602.881,905.621 L606.681,904.921 M591.181,924.621 L591.181,908.021 L600.081,906.221 L600.081,922.721 L591.181,924.621 "/>
<path class="Accidental" d="M854.687,879.92 C855.287,879.82 855.787,879.12 855.787,878.52 L855.787,872.62 C855.787,871.82 855.187,871.22 854.387,871.22 L854.187,871.22 L850.887,871.92 L850.887,857.02 L848.087,857.02 L848.087,872.52 L839.187,874.32 L839.187,860.22 L836.387,860.22 L836.387,874.92 L832.487,875.72 C831.887,875.82 831.387,876.52 831.387,877.12 L831.387,877.32 L831.387,883.12 L831.387,882.92 C831.387,883.72 831.987,884.32 832.787,884.32 L833.087,884.32 L836.387,883.62 L836.387,900.12 L832.487,900.92 C831.887,901.02 831.387,901.72 831.387,902.32 L831.387,908.12 C831.387,908.92 831.987,909.52 832.787,909.52 L833.087,909.52 L836.387,908.82 L836.387,923.72 L839.187,923.72 L839.187,908.22 L848.087,906.42 L848.087,920.52 L850.887,920.52 L850.887,905.82 L854.687,905.12 C855.287,905.02 855.787,904.32 855.787,903.72 L855.787,897.82 C855.787,897.02 855.187,896.42 854.387,896.42 L854.187,896.42 L850.887,897.12 L850.887,880.62 L854.687,879.92 M839.187,899.62 L839.187,883.02 L848.087,881.22 L848.087,897.72 L839.187,899.62 "/>
<path class="Accidental" d="M1048.72,867.419 C1049.32,867.319 1049.82,866.619 1049.82,866.019 L1049.82,860.119 C1049.82,859.319 1049.22,858.719 1048.42,858.719 L1048.22,858.719 L1044.92,859.419 L1044.92,844.519 L1042.12,844.519 L1042.12,860.019 L1033.22,861.819 L1033.22,847.719 L1030.42,847.719 L1030.42,862.419 L1026.52,863.219 C1025.92,863.319 1025.42,864.019 1025.42,864.619 L1025.42,864.819 L1025.42,870.619 L1025.42,870.419 C1025.42,871.219 1026.02,871.819 1026.82,871.819 L1027.12,871.819 L1030.42,871.119 L1030.42,887.619 L1026.52,888.419 C1025.92,888.519 1025.42,889.219 1025.42,889.819 L1025.42,895.619 C1025.42,896.419 1026.02,897.019 1026.82,897.019 L1027.12,897.019 L1030.42,896.319 L1030.42,911.219 L1033.22,911.219 L1033.22,895.719 L1042.12,893.919 L1042.12,908.019 L1044.92,908.019 L1044.92,893.319 L1048.72,892.619 C1049.32,892.519 1049.82,891.819 1049.82,891.219 L1049.82,885.319 C1049.82,884.519 1049.22,883.919 1048.42,883.919 L1048.22,883.919 L1044.92,884.619 L1044.92,868.119 L1048.72,867.419 M1033.22,887.119 L1033.22,870.519 L1042.12,868.719 L1042.12,885.219 L1033.22,887.119 "/>
<path class="Accidental" d="M1325.13,842.417 C1325.73,842.317 1326.23,841.617 1326.23,841.017 L1326.23,835.117 C1326.23,834.317 1325.63,833.717 1324.83,833.717 L1324.63,833.717 L1321.33,834.417 L1321.33,819.517 L1318.53,819.517 L1318.53,835.017 L1309.63,836.817 L1309.63,822.717 L1306.83,822.717 L1306.83,837.417 L1302.93,838.217 C1302.33,838.317 1301.83,839.017 1301.83,839.617 L1301.83,839.817 L1301.83,845.617 L1301.83,845.417 C1301.83,846.217 1302.43,846.817 1303.23,846.817 L1303.53,846.817 L1306.83,846.117 L1306.83,862.617 L1302.93,863.417 C1302.33,863.517 1301.83,864.217 1301.83,864.817 L1301.83,870.617 C1301.83,871.417 1302.43,872.017 1303.23,872.017 L1303.53,872.017 L1306.83,871.317 L1306.83,886.217 L1309.63,886.217 L1309.63,870.717 L1318.53,868.917 L1318.53,883.017 L1321.33,883.017 L1321.33,868.317 L1325.13,867.617 C1325.73,867.517 1326.23,866.817 1326.23,866.217 L1326.23,860.317 C1326.23,859.517 1325.63,858.917 1324.83,858.917 L1324.63,858.917 L1321.33,859.617 L1321.33,843.117 L1325.13,842.417 M1309.63,862.117 L1309.63,845.517 L1318.53,843.717 L1318.53,860.217 L1309.63,862.117 "/>
<path class="Accidental" d="M1463.33,829.917 C1463.93,829.817 1464.43,829.117 1464.43,828.517 L1464.43,822.617 C1464.43,821.817 1463.83,821.217 1463.03,821.217 L1462.83,821.217 L1459.53,821.917 L1459.53,807.017 L1456.73,807.017 L1456.73,822.517 L1447.83,824.317 L1447.83,810.217 L1445.03,810.217 L1445.03,824.917 L1441.13,825.717 C1440.53,825.817 1440.03,826.517 1440.03,827.117 L1440.03,827.317 L1440.03,833.117 L1440.03,832.917 C1440.03,833.717 1440.63,834.317 1441.43,834.317 L1441.73,834.317 L1445.03,833.617 L1445.03,850.117 L1441.13,850.917 C1440.53,851.017 1440.03,851.717 1440.03,852.317 L1440.03,858.117 C1440.03,858.917 1440.63,859.517 1441.43,859.517 L1441.73,859.517 L1445.03,858.817 L1445.03,873.717 L1447.83,873.717 L1447.83,858.217 L1456.73,856.417 L1456.73,870.517 L1459.53,870.517 L1459.53,855.817 L1463.33,855.117 C1463.93,855.017 1464.43,854.317 1464.43,853.717 L1464.43,847.817 C1464.43,847.017 1463.83,846.417 1463.03,846.417 L1462.83,846.417 L1459.53,847.117 L1459.53,830.617 L1463.33,829.917 M1447.83,849.617 L1447.83,833.017 L1456.73,831.217 L1456.73,847.717 L1447.83,849.617 "/>
<path class="Accidental" d="M1667.19,842.417 C1667.79,842.317 1668.29,841.617 1668.29,841.017 L1668.29,835.117 C1668.29,834.317 1667.69,833.717 1666.89,833.717 L1666.69,833.717 L1663.39,834.417 L1663.39,819.517 L1660.59,819.517 L1660.59,835.017 L1651.69,836.817 L1651.69,822.717 L1648.89,822.717 L1648.89,837.417 L1644.99,838.217 C1644.39,838.317 1643.89,839.017 1643.89,839.617 L1643.89,839.817 L1643.89,845.617 L1643.89,845.417 C1643.89,846.217 1644.49,846.817 1645.29,846.817 L1645.59,846.817 L1648.89,846.117 L1648.89,862.617 L1644.99,863.417 C1644.39,863.517 1643.89,864.217 1643.89,864.817 L1643.89,870.617 C1643.89,871.417 1644.49,872.017 1645.29,872.017 L1645.59,872.017 L1648.89,871.317 L1648.89,886.217 L1651.69,886.217 L1651.69,870.717 L1660.59,868.917 L1660.59,883.017 L1663.39,883.017 L1663.39,868.317 L1667.19,867.617 C1667.79,867.517 1668.29,866.817 1668.29,866.217 L1668.29,860.317 C1668.29,859.517 1667.69,858.917 1666.89,858.917 L1666.69,858.917 L1663.39,859.617 L1663.39,843.117 L1667.19,842.417 M1651.69,862.117 L1651.69,845.517 L1660.59,843.717 L1660.59,860.217 L1651.69,862.117 "/>
<path class="Accidental" d="M1943.6,867.419 C1944.2,867.319 1944.7,866.619 1944.7,866.019 L1944.7,860.119 C1944.7,859.319 1944.1,858.719 1943.3,858.719 L1943.1,858.719 L1939.8,859.419 L1939.8,844.519 L1937,844.519 L1937,860.019 L1928.1,861.819 L1928.1,847.719 L1925.3,847.719 L1925.3,862.419 L1921.4,863.219 C1920.8,863.319 1920.3,864.019 1920.3,864.619 L1920.3,864.819 L1920.3,870.619 L1920.3,870.419 C1920.3,871.219 1920.9,871.819 1921.7,871.819 L1922,871.819 L1925.3,871.119 L1925.3,887.619 L1921.4,888.419 C1920.8,888.519 1920.3,889.219 1920.3,889.819 L1920.3,895.619 C1920.3,896.419 1920.9,897.019 1921.7,897.019 L1922,897.019 L1925.3,896.319 L1925.3,911.219 L1928.1,911.219 L1928.1,895.719 L1937,893.919 L1937,908.019 L1939.8,908.019 L1939.8,893.319 L1943.6,892.619 C1944.2,892.519 1944.7,891.819 1944.7,891.219 L1944.7,885.319 C1944.7,884.519 1944.1,883.919 1943.3,883.919 L1943.1,883.919 L1939.8,884.619 L1939.8,868.119 L1943.6,867.419 M1928.1,887.119 L1928.1,870.519 L1937,868.719 L1937,885.219 L1928.1,887.119 "/>
<path class="Accidental" d="M2081.8,879.92 C2082.4,879.82 2082.9,879.12 2082.9,878.52 L2082.9,872.62 C2082.9,871.82 2082.3,871.22 2081.5,871.22 L2081.3,871.22 L2078,871.92 L2078,857.02 L2075.2,857.02 L2075.2,872.52 L2066.3,874.32 L2066.3,860.22 L2063.5,860.22 L2063.5,874.92 L2059.6,875.72 C2059,875.82 2058.5,876.52 2058.5,877.12 L2058.5,877.32 L2058.5,883.12 L2058.5,882.92 C2058.5,883.72 2059.1,884.32 2059.9,884.32 L2060.2,884.32 L2063.5,883.62 L2063.5,900.12 L2059.6,900.92 C2059,901.02 2058.5,901.72 2058.5,902.32 L2058.5,908.12 C2058.5,908.92 2059.1,909.52 2059.9,909.52 L2060.2,909.52 L2063.5,908.82 L2063.5,923.72 L2066.3,923.72 L2066.3,908.22 L2075.2,906.42 L2075.2,920.52 L2078,920.52 L2078,905.82 L2081.8,905.12 C2082.4,905.02 2082.9,904.32 2082.9,903.72 L2082.9,897.82 C2082.9,897.02 2082.3,896.42 2081.5,896.42 L2081.3,896.42 L2078,897.12 L2078,880.62 L2081.8,879.92 M2066.3,899.62 L2066.3,883.02 L2075.2,881.22 L2075.2,897.72 L2066.3,899.62 "/>
<path class="Accidental" d="M2393.4,904.921 C2394,904.821 2394.5,904.121 2394.5,903.521 L2394.5,897.621 C2394.5,896.821 2393.9,896.221 2393.1,896.221 L2392.9,896.221 L2389.6,896.921 L2389.6,882.021 L2386.8,882.021 L2386.8,897.521 L2377.9,899.321 L2377.9,885.221 L2375.1,885.221 L2375.1,899.921 L2371.2,900.721 C2370.6,900.821 2370.1,901.521 2370.1,902.121 L2370.1,902.321 L2370.1,908.121 L2370.1,907.921 C2370.1,908.721 2370.7,909.321 2371.5,909.321 L2371.8,909.321 L2375.1,908.621 L2375.1,925.121 L2371.2,925.921 C2370.6,926.021 2370.1,926.721 2370.1,927.321 L2370.1,933.121 C2370.1,933.921 2370.7,934.521 2371.5,934.521 L2371.8,934.521 L2375.1,933.821 L2375.1,948.721 L2377.9,948.721 L2377.9,933.221 L2386.8,931.421 L2386.8,945.521 L2389.6,945.521 L2389.6,930.821 L2393.4,930.121 C2394,930.021 2394.5,929.321 2394.5,928.721 L2394.5,922.821 C2394.5,922.021 2393.9,921.421 2393.1,921.421 L2392.9,921.421 L2389.6,922.121 L2389.6,905.621 L2393.4,904.921 M2377.9,924.621 L2377.9,908.021 L2386.8,906.221 L2386.8,922.721 L2377.9,924.621 "/>
<path class="Accidental" d="M2521.05,917.422 C2521.65,917.322 2522.15,916.622 2522.15,916.022 L2522.15,910.122 C2522.15,909.322 2521.55,908.722 2520.75,908.722 L2520.55,908.722 L2517.25,909.422 L2517.25,894.522 L2514.45,894.522 L2514.45,910.022 L2505.55,911.822 L2505.55,897.722 L2502.75,897.722 L2502.75,912.422 L2498.85,913.222 C2498.25,913.322 2497.75,914.022 2497.75,914.622 L2497.75,914.822 L2497.75,920.622 L2497.75,920.422 C2497.75,921.222 2498.35,921.822 2499.15,921.822 L2499.45,921.822 L2502.75,921.122 L2502.75,937.622 L2498.85,938.422 C2498.25,938.522 2497.75,939.222 2497.75,939.822 L2497.75,945.622 C2497.75,946.422 2498.35,947.022 2499.15,947.022 L2499.45,947.022 L2502.75,946.322 L2502.75,961.222 L2505.55,961.222 L2505.55,945.722 L2514.45,943.922 L2514.45,958.022 L2517.25,958.022 L2517.25,943.322 L2521.05,942.622 C2521.65,942.522 2522.15,941.822 2522.15,941.222 L2522.15,935.322 C2522.15,934.522 2521.55,933.922 2520.75,933.922 L2520.55,933.922 L2517.25,934.622 L2517.25,918.122 L2521.05,917.422 M2505.55,937.122 L2505.55,920.522 L2514.45,918.722 L2514.45,935.222 L2505.55,937.122 "/>
<path class="Accidental" d="M478.302,717.409 C478.902,717.309 479.402,716.609 479.402,716.009 L479.402,710.109 C479.402,709.309 478.802,708.709 478.002,708.709 L477.802,708.709 L474.502,709.409 L474.502,694.509 L471.702,694.509 L471.702,710.009 L462.802,711.809 L462.802,697.709 L460.002,697.709 L460.002,712.409 L456.102,713.209 C455.502,713.309 455.002,714.009 455.002,714.609 L455.002,714.809 L455.002,720.609 L455.002,720.409 C455.002,721.209 455.602,721.809 456.402,721.809 L456.702,721.809 L460.002,721.109 L460.002,737.609 L456.102,738.409 C455.502,738.509 455.002,739.209 455.002,739.809 L455.002,745.609 C455.002,746.409 455.602,747.009 456.402,747.009 L456.702,747.009 L460.002,746.309 L460.002,761.209 L462.802,761.209 L462.802,745.709 L471.702,743.909 L471.702,758.009 L474.502,758.009 L474.502,743.309 L478.302,742.609 C478.902,742.509 479.402,741.809 479.402,741.209 L479.402,735.309 C479.402,734.509 478.802,733.909 478.002,733.909 L477.802,733.909 L474.502,734.609 L474.502,718.109 L478.302,717.409 M462.802,737.109 L462.802,720.509 L471.702,718.709 L471.702,735.209 L462.802,737.109 "/>
<path class="Accidental" d="M606.681,704.909 C607.281,704.809 607.781,704.109 607.781,703.509 L607.781,697.609 C607.781,696.809 607.181,696.209 606.381,696.209 L606.181,696.209 L602.881,696.909 L602.881,682.009 L600.081,682.009 L600.081,697.509 L591.181,699.309 L591.181,685.209 L588.381,685.209 L588.381,699.909 L584.481,700.709 C583.881,700.809 583.381,701.509 583.381,702.109 L583.381,702.309 L583.381,708.109 L583.381,707.909 C583.381,708.709 583.981,709.309 584.781,709.309 L585.081,709.309 L588.381,708.609 L588.381,725.109 L584.481,725.909 C583.881,726.009 583.381,726.709 583.381,727.309 L583.381,733.109 C583.381,733.909 583.981,734.509 584.781,734.509 L585.081,734.509 L588.381,733.809 L588.381,748.709 L591.181,748.709 L591.181,733.209 L600.081,731.409 L600.081,745.509 L602.881,745.509 L602.881,730.809 L606.681,730.109 C607.281,730.009 607.781,729.309 607.781,728.709 L607.781,722.809 C607.781,722.009 607.181,721.409 606.381,721.409 L606.181,721.409 L602.881,722.109 L602.881,705.609 L606.681,704.909 M591.181,724.609 L591.181,708.009 L600.081,706.209 L600.081,722.709 L591.181,724.609 "/>
<path class="Accidental" d="M863.438,679.907 C864.038,679.807 864.538,679.107 864.538,678.507 L864.538,672.607 C864.538,671.807 863.938,671.207 863.138,671.207 L862.938,671.207 L859.638,671.907 L859.638,657.007 L856.838,657.007 L856.838,672.507 L847.938,674.307 L847.938,660.207 L845.138,660.207 L845.138,674.907 L841.238,675.707 C840.638,675.807 840.138,676.507 840.138,677.107 L840.138,677.307 L840.138,683.107 L840.138,682.907 C840.138,683.707 840.738,684.307 841.538,684.307 L841.838,684.307 L845.138,683.607 L845.138,700.107 L841.238,700.907 C840.638,701.007 840.138,701.707 840.138,702.307 L840.138,708.107 C840.138,708.907 840.738,709.507 841.538,709.507 L841.838,709.507 L845.138,708.807 L845.138,723.707 L847.938,723.707 L847.938,708.207 L856.838,706.407 L856.838,720.507 L859.638,720.507 L859.638,705.807 L863.438,705.107 C864.038,705.007 864.538,704.307 864.538,703.707 L864.538,697.807 C864.538,697.007 863.938,696.407 863.138,696.407 L862.938,696.407 L859.638,697.107 L859.638,680.607 L863.438,679.907 M847.938,699.607 L847.938,683.007 L856.838,681.207 L856.838,697.707 L847.938,699.607 "/>
<path class="Accidental" d="M1057.47,667.406 C1058.07,667.306 1058.57,666.606 1058.57,666.006 L1058.57,660.106 C1058.57,659.306 1057.97,658.706 1057.17,658.706 L1056.97,658.706 L1053.67,659.406 L1053.67,644.506 L1050.87,644.506 L1050.87,660.006 L1041.97,661.806 L1041.97,647.706 L1039.17,647.706 L1039.17,662.406 L1035.27,663.206 C1034.67,663.306 1034.17,664.006 1034.17,664.606 L1034.17,664.806 L1034.17,670.606 L1034.17,670.406 C1034.17,671.206 1034.77,671.806 1035.57,671.806 L1035.87,671.806 L1039.17,671.106 L1039.17,687.606 L1035.27,688.406 C1034.67,688.506 1034.17,689.206 1034.17,689.806 L1034.17,695.606 C1034.17,696.406 1034.77,697.006 1035.57,697.006 L1035.87,697.006 L1039.17,696.306 L1039.17,711.206 L1041.97,711.206 L1041.97,695.706 L1050.87,693.906 L1050.87,708.006 L1053.67,708.006 L1053.67,693.306 L1057.47,692.606 C1058.07,692.506 1058.57,691.806 1058.57,691.206 L1058.57,685.306 C1058.57,684.506 1057.97,683.906 1057.17,683.906 L1056.97,683.906 L1053.67,684.606 L1053.67,668.106 L1057.47,667.406 M1041.97,687.106 L1041.97,670.506 L1050.87,668.706 L1050.87,685.206 L1041.97,687.106 "/>
<path class="Accidental" d="M1333.88,642.405 C1334.48,642.305 1334.98,641.605 1334.98,641.005 L1334.98,635.105 C1334.98,634.305 1334.38,633.705 1333.58,633.705 L1333.38,633.705 L1330.08,634.405 L1330.08,619.505 L1327.28,619.505 L1327.28,635.005 L1318.38,636.805 L1318.38,622.705 L1315.58,622.705 L1315.58,637.405 L1311.68,638.205 C1311.08,638.305 1310.58,639.005 1310.58,639.605 L1310.58,639.805 L1310.58,645.605 L1310.58,645.405 C1310.58,646.205 1311.18,646.805 1311.98,646.805 L1312.28,646.805 L1315.58,646.105 L1315.58,662.605 L1311.68,663.405 C1311.08,663.505 1310.58,664.205 1310.58,664.805 L1310.58,670.605 C1310.58,671.405 1311.18,672.005 1311.98,672.005 L1312.28,672.005 L1315.58,671.305 L1315.58,686.205 L1318.38,686.205 L1318.38,670.705 L1327.28,668.905 L1327.28,683.005 L1330.08,683.005 L1330.08,668.305 L1333.88,667.605 C1334.48,667.505 1334.98,666.805 1334.98,666.205 L1334.98,660.305 C1334.98,659.505 1334.38,658.905 1333.58,658.905 L1333.38,658.905 L1330.08,659.605 L1330.08,643.105 L1333.88,642.405 M1318.38,662.105 L1318.38,645.505 L1327.28,643.705 L1327.28,660.205 L1318.38,662.105 "/>
<path class="Accidental" d="M1472.08,629.904 C1472.68,629.804 1473.18,629.104 1473.18,628.504 L1473.18,622.604 C1473.18,621.804 1472.58,621.204 1471.78,621.204 L1471.58,621.204 L1468.28,621.904 L1468.28,607.004 L1465.48,607.004 L1465.48,622.504 L1456.58,624.304 L1456.58,610.204 L1453.78,610.204 L1453.78,624.904 L1449.88,625.704 C1449.28,625.804 1448.78,626.504 1448.78,627.104 L1448.78,627.304 L1448.78,633.104 L1448.78,632.904 C1448.78,633.704 1449.38,634.304 1450.18,634.304 L1450.48,634.304 L1453.78,633.604 L1453.78,650.104 L1449.88,650.904 C1449.28,651.004 1448.78,651.704 1448.78,652.304 L1448.78,658.104 C1448.78,658.904 1449.38,659.504 1450.18,659.504 L1450.48,659.504 L1453.78,658.804 L1453.78,673.704 L1456.58,673.704 L1456.58,658.204 L1465.48,656.404 L1465.48,670.504 L1468.28,670.504 L1468.28,655.804 L1472.08,655.104 C1472.68,655.004 1473.18,654.304 1473.18,653.704 L1473.18,647.804 C1473.18,647.004 1472.58,646.404 1471.78,646.404 L1471.58,646.404 L1468.28,647.104 L1468.28,630.604 L1472.08,629.904 M1456.58,649.604 L1456.58,633.004 L1465.48,631.204 L1465.48,647.704 L1456.58,649.604 "/>
<path class="Accidental" d="M1675.94,642.405 C1676.54,642.305 1677.04,641.605 1677.04,641.005 L1677.04,635.105 C1677.04,634.305 1676.44,633.705 1675.64,633.705 L1675.44,633.705 L1672.14,634.405 L1672.14,619.505 L1669.34,619.505 L1669.34,635.005 L1660.44,636.805 L1660.44,622.705 L1657.64,622.705 L1657.64,637.405 L1653.74,638.205 C1653.14,638.305 1652.64,639.005 1652.64,639.605 L1652.64,639.805 L1652.64,645.605 L1652.64,645.405 C1652.64,646.205 1653.24,646.805 1654.04,646.805 L1654.34,646.805 L1657.64,646.105 L1657.64,662.605 L1653.74,663.405 C1653.14,663.505 1652.64,664.205 1652.64,664.805 L1652.64,670.605 C1652.64,671.405 1653.24,672.005 1654.04,672.005 L1654.34,672.005 L1657.64,671.305 L1657.64,686.205 L1660.44,686.205 L1660.44,670.705 L1669.34,668.905 L1669.34,683.005 L1672.14,683.005 L1672.14,668.305 L1675.94,667.605 C1676.54,667.505 1677.04,666.805 1677.04,666.205 L1677.04,660.305 C1677.04,659.505 1676.44,658.905 1675.64,658.905 L1675.44,658.905 L1672.14,659.605 L1672.14,643.105 L1675.94,642.405 M1660.44,662.105 L1660.44,645.505 L1669.34,643.705 L1669.34,660.205 L1660.44,662.105 "/>
<path class="Accidental" d="M1952.35,667.406 C1952.95,667.306 1953.45,666.606 1953.45,666.006 L1953.45,660.106 C1953.45,659.306 1952.85,658.706 1952.05,658.706 L1951.85,658.706 L1948.55,659.406 L1948.55,644.506 L1945.75,644.506 L1945.75,660.006 L1936.85,661.806 L1936.85,647.706 L1934.05,647.706 L1934.05,662.406 L1930.15,663.206 C1929.55,663.306 1929.05,664.006 1929.05,664.606 L1929.05,664.806 L1929.05,670.606 L1929.05,670.406 C1929.05,671.206 1929.65,671.806 1930.45,671.806 L1930.75,671.806 L1934.05,671.106 L1934.05,687.606 L1930.15,688.406 C1929.55,688.506 1929.05,689.206 1929.05,689.806 L1929.05,695.606 C1929.05,696.406 1929.65,697.006 1930.45,697.006 L1930.75,697.006 L1934.05,696.306 L1934.05,711.206 L1936.85,711.206 L1936.85,695.706 L1945.75,693.906 L1945.75,708.006 L1948.55,708.006 L1948.55,693.306 L1952.35,692.606 C1952.95,692.506 1953.45,691.806 1953.45,691.206 L1953.45,685.306 C1953.45,684.506 1952.85,683.906 1952.05,683.906 L1951.85,683.906 L1948.55,684.606 L1948.55,668.106 L1952.35,667.406 M1936.85,687.106 L1936.85,670.506 L1945.75,668.706 L1945.75,685.206 L1936.85,687.106 "/>
<path class="Accidental" d="M2090.55,679.907 C2091.15,679.807 2091.65,679.107 2091.65,678.507 L2091.65,672.607 C2091.65,671.807 2091.05,671.207 2090.25,671.207 L2090.05,671.207 L2086.75,671.907 L2086.75,657.007 L2083.95,657.007 L2083.95,672.507 L2075.05,674.307 L2075.05,660.207 L2072.25,660.207 L2072.25,674.907 L2068.35,675.707 C2067.75,675.807 2067.25,676.507 2067.25,677.107 L2067.25,677.307 L2067.25,683.107 L2067.25,682.907 C2067.25,683.707 2067.85,684.307 2068.65,684.307 L2068.95,684.307 L2072.25,683.607 L2072.25,700.107 L2068.35,700.907 C2067.75,701.007 2067.25,701.707 2067.25,702.307 L2067.25,708.107 C2067.25,708.907 2067.85,709.507 2068.65,709.507 L2068.95,709.507 L2072.25,708.807 L2072.25,723.707 L2075.05,723.707 L2075.05,708.207 L2083.95,706.407 L2083.95,720.507 L2086.75,720.507 L2086.75,705.807 L2090.55,705.107 C2091.15,705.007 2091.65,704.307 2091.65,703.707 L2091.65,697.807 C2091.65,697.007 2091.05,696.407 2090.25,696.407 L2090.05,696.407 L2086.75,697.107 L2086.75,680.607 L2090.55,679.907 M2075.05,699.607 L2075.05,683.007 L2083.95,681.207 L2083.95,697.707 L2075.05,699.607 "/>
<path class="Accidental" d="M2393.4,704.909 C2394,704.809 2394.5,704.109 2394.5,703.509 L2394.5,697.609 C2394.5,696.809 2393.9,696.209 2393.1,696.209 L2392.9,696.209 L2389.6,696.909 L2389.6,682.009 L2386.8,682.009 L2386.8,697.509 L2377.9,699.309 L2377.9,685.209 L2375.1,685.209 L2375.1,699.909 L2371.2,700.709 C2370.6,700.809 2370.1,701.509 2370.1,702.109 L2370.1,702.309 L2370.1,708.109 L2370.1,707.909 C2370.1,708.709 2370.7,709.309 2371.5,709.309 L2371.8,709.309 L2375.1,708.609 L2375.1,725.109 L2371.2,725.909 C2370.6,726.009 2370.1,726.709 2370.1,727.309 L2370.1,733.109 C2370.1,733.909 2370.7,734.509 2371.5,734.509 L2371.8,734.509 L2375.1,733.809 L2375.1,748.709 L2377.9,748.709 L2377.9,733.209 L2386.8,731.409 L2386.8,745.509 L2389.6,745.509 L2389.6,730.809 L2393.4,730.109 C2394,730.009 2394.5,729.309 2394.5,728.709 L2394.5,722.809 C2394.5,722.009 2393.9,721.409 2393.1,721.409 L2392.9,721.409 L2389.6,722.109 L2389.6,705.609 L2393.4,704.909 M2377.9,724.609 L2377.9,708.009 L2386.8,706.209 L2386.8,722.709 L2377.9,724.609 "/>
<path class="Accidental" d="M2521.05,717.409 C2521.65,717.309 2522.15,716.609 2522.15,716.009 L2522.15,710.109 C2522.15,709.309 2521.55,708.709 2520.75,708.709 L2520.55,708.709 L2517.25,709.409 L2517.25,694.509 L2514.45,694.509 L2514.45,710.009 L2505.55,711.809 L2505.55,697.709 L2502.75,697.709 L2502.75,712.409 L2498.85,713.209 C2498.25,713.309 2497.75,714.009 2497.75,714.609 L2497.75,714.809 L2497.75,720.609 L2497.75,720.409 C2497.75,721.209 2498.35,721.809 2499.15,721.809 L2499.45,721.809 L2502.75,721.109 L2502.75,737.609 L2498.85,738.409 C2498.25,738.509 2497.75,739.209 2497.75,739.809 L2497.75,745.609 C2497.75,746.409 2498.35,747.009 2499.15,747.009 L2499.45,747.009 L2502.75,746.309 L2502.75,761.209 L2505.55,761.209 L2505.55,745.709 L2514.45,743.909 L2514.45,758.009 L2517.25,758.009 L2517.25,743.309 L2521.05,742.609 C2521.65,742.509 2522.15,741.809 2522.15,741.209 L2522.15,735.309 C2522.15,734.509 2521.55,733.909 2520.75,733.909 L2520.55,733.909 L2517.25,734.609 L2517.25,718.109 L2521.05,717.409 M2505.55,737.109 L2505.55,720.509 L2514.45,718.709 L2514.45,735.209 L2505.55,737.109 "/>
<polyline class="LedgerLine" fill="none" stroke="#000000" stroke-width="4.00" stroke-linejoin="bevel" points="862.038,890.52 912.033,890.52"/>
<polyline class="LedgerLine" fill="none" stroke="#000000" stroke-width="4.00" stroke-linejoin="bevel" points="1056.07,890.52 1106.06,890.52"/>
<polyline class="LedgerLine" fill="none" stroke="#000000" stroke-width="4.00" stroke-linejoin="bevel" points="1194.27,890.52 1244.27,890.52"/>
<polyline class="LedgerLine" fill="none" stroke="#000000" stroke-width="4.00" stroke-linejoin="bevel" points="1194.27,865.518 1244.27,865.518"/>
<polyline class="LedgerLine" fill="none" stroke="#000000" stroke-width="4.00" stroke-linejoin="bevel" points="1332.48,890.52 1382.47,890.52"/>
<polyline class="LedgerLine" fill="none" stroke="#000000" stroke-width="4.00" stroke-linejoin="bevel" points="1332.48,865.518 1382.47,865.518"/>
<polyline class="LedgerLine" fill="none" stroke="#000000" stroke-width="4.00" stroke-linejoin="bevel" points="1470.68,890.52 1520.68,890.52"/>
<polyline class="LedgerLine" fill="none" stroke="#000000" stroke-width="4.00" stroke-linejoin="bevel" points="1470.68,865.518 1520.68,865.518"/>
<polyline class="LedgerLine" fill="none" stroke="#000000" stroke-width="4.00" stroke-linejoin="bevel" points="1470.68,840.517 1520.68,840.517"/>
<polyline class="LedgerLine" fill="none" stroke="#000000" stroke-width="4.00" stroke-linejoin="bevel" points="1674.54,890.52 1724.53,890.52"/>
<polyline class="LedgerLine" fill="none" stroke="#000000" stroke-width="4.00" stroke-linejoin="bevel" points="1674.54,865.518 1724.53,865.518"/>
<polyline class="LedgerLine" fill="none" stroke="#000000" stroke-width="4.00" stroke-linejoin="bevel" points="1812.74,890.52 1862.74,890.52"/>
<polyline class="LedgerLine" fill="none" stroke="#000000" stroke-width="4.00" stroke-linejoin="bevel" points="1812.74,865.518 1862.74,865.518"/>
<polyline class="LedgerLine" fill="none" stroke="#000000" stroke-width="4.00" stroke-linejoin="bevel" points="1950.95,890.52 2000.94,890.52"/>
<polyline class="LedgerLine" fill="none" stroke="#000000" stroke-width="4.00" stroke-linejoin="bevel" points="2089.15,890.52 2139.15,890.52"/>
<polyline class="Stem" fill="none" stroke="#000000" stroke-width="2.75" stroke-linejoin="bevel" points="487.028,931.542 487.028,1015.53"/>
<polyline class="Stem" fill="none" stroke="#000000" stroke-width="2.75" stroke-linejoin="bevel" points="615.406,919.042 615.406,1003.03"/>
<polyline class="Stem" fill="none" stroke="#000000" stroke-width="2.75" stroke-linejoin="bevel" points="743.785,906.541 743.785,990.526"/>
<polyline class="Stem" fill="none" stroke="#000000" stroke-width="2.75" stroke-linejoin="bevel" points="872.163,894.04 872.163,978.025"/>
<polyline class="Stem" fill="none" stroke="#000000" stroke-width="2.75" stroke-linejoin="bevel" points="1066.19,881.539 1066.19,965.524"/>
<polyline class="Stem" fill="none" stroke="#000000" stroke-width="2.75" stroke-linejoin="bevel" points="1204.4,869.038 1204.4,965.524"/>
<polyline class="Stem" fill="none" stroke="#000000" stroke-width="2.75" stroke-linejoin="bevel" points="1342.6,856.538 1342.6,965.524"/>
<polyline class="Stem" fill="none" stroke="#000000" stroke-width="2.75" stroke-linejoin="bevel" points="1480.81,844.037 1480.81,965.524"/>
<polyline class="Stem" fill="none" stroke="#000000" stroke-width="2.75" stroke-linejoin="bevel" points="1684.66,856.538 1684.66,965.524"/>
<polyline class="Stem" fill="none" stroke="#000000" stroke-width="2.75" stroke-linejoin="bevel" points="1822.87,869.038 1822.87,965.524"/>
<polyline class="Stem" fill="none" stroke="#000000" stroke-width="2.75" stroke-linejoin="bevel" points="1961.07,881.539 1961.07,965.524"/>
<polyline class="Stem" fill="none" stroke="#000000" stroke-width="2.75" stroke-linejoin="bevel" points="2099.28,894.04 2099.28,978.025"/>
<polyline class="Stem" fill="none" stroke="#000000" stroke-width="2.75" stroke-linejoin="bevel" points="2274.48,906.541 2274.48,990.526"/>
<polyline class="Stem" fill="none" stroke="#000000" stroke-width="2.75" stroke-linejoin="bevel" points="2402.13,919.042 2402.13,1003.03"/>
<polyline class="Stem" fill="none" stroke="#000000" stroke-width="2.75" stroke-linejoin="bevel" points="2529.77,931.462 2529.77,1015.53"/>
<polyline class="Stem" fill="none" stroke="#000000" stroke-width="2.75" stroke-linejoin="bevel" points="516.772,724.649 516.772,643.629"/>
<polyline class="Stem" fill="none" stroke="#000000" stroke-width="2.75" stroke-linejoin="bevel" points="645.15,712.148 645.15,634.254"/>
<polyline class="Stem" fill="none" stroke="#000000" stroke-width="2.75" stroke-linejoin="bevel" points="743.785,706.528 743.785,781.138"/>
<polyline class="Stem" fill="none" stroke="#000000" stroke-width="2.75" stroke-linejoin="bevel" points="872.163,694.027 872.163,771.762"/>
<polyline class="Stem" fill="none" stroke="#000000" stroke-width="2.75" stroke-linejoin="bevel" points="1066.19,681.527 1066.19,762.387"/>
<polyline class="Stem" fill="none" stroke="#000000" stroke-width="2.75" stroke-linejoin="bevel" points="1204.4,669.026 1204.4,753.011"/>
<polyline class="Stem" fill="none" stroke="#000000" stroke-width="2.75" stroke-linejoin="bevel" points="1342.6,656.525 1342.6,740.51"/>
<polyline class="Stem" fill="none" stroke="#000000" stroke-width="2.75" stroke-linejoin="bevel" points="1480.81,644.024 1480.81,728.009"/>
<polyline class="Stem" fill="none" stroke="#000000" stroke-width="2.75" stroke-linejoin="bevel" points="1684.66,656.525 1684.66,740.51"/>
<polyline class="Stem" fill="none" stroke="#000000" stroke-width="2.75" stroke-linejoin="bevel" points="1822.87,669.026 1822.87,753.011"/>
<polyline class="Stem" fill="none" stroke="#000000" stroke-width="2.75" stroke-linejoin="bevel" points="1961.07,681.527 1961.07,762.387"/>
<polyline class="Stem" fill="none" stroke="#000000" stroke-width="2.75" stroke-linejoin="bevel" points="2099.28,694.027 2099.28,771.762"/>
<polyline class="Stem" fill="none" stroke="#000000" stroke-width="2.75" stroke-linejoin="bevel" points="2274.48,706.528 2274.48,781.138"/>
<polyline class="Stem" fill="none" stroke="#000000" stroke-width="2.75" stroke-linejoin="bevel" points="2431.87,712.148 2431.87,634.254"/>
<polyline class="Stem" fill="none" stroke="#000000" stroke-width="2.75" stroke-linejoin="bevel" points="2559.52,724.569 2559.52,643.629"/>
<path class="Note" d="M517.153,919.822 C515.653,917.122 512.753,915.422 508.853,915.022 C508.253,914.922 507.753,914.922 507.153,914.922 C503.653,914.922 499.853,915.922 496.353,917.822 C489.753,921.422 485.653,927.322 485.653,932.422 C485.653,933.822 485.853,935.122 486.553,936.322 C488.053,939.022 491.053,940.722 494.953,941.122 C495.553,941.222 496.053,941.222 496.653,941.222 C500.153,941.222 503.853,940.222 507.353,938.322 C513.953,934.722 518.153,928.922 518.153,923.822 C518.153,922.422 517.853,921.022 517.153,919.822"/>
<path class="Note" d="M645.531,907.321 C644.031,904.621 641.131,902.921 637.231,902.521 C636.631,902.421 636.131,902.421 635.531,902.421 C632.031,902.421 628.231,903.421 624.731,905.321 C618.131,908.921 614.031,914.821 614.031,919.921 C614.031,921.321 614.231,922.621 614.931,923.821 C616.431,926.521 619.431,928.221 623.331,928.621 C623.931,928.721 624.431,928.721 625.031,928.721 C628.531,928.721 632.231,927.721 635.731,925.821 C642.331,922.221 646.531,916.421 646.531,911.321 C646.531,909.921 646.231,908.521 645.531,907.321"/>
<path class="Note" d="M773.91,894.82 C772.41,892.12 769.51,890.42 765.61,890.02 C765.01,889.92 764.51,889.92 763.91,889.92 C760.41,889.92 756.61,890.92 753.11,892.82 C746.51,896.42 742.41,902.32 742.41,907.42 C742.41,908.82 742.61,910.12 743.31,911.32 C744.81,914.02 747.81,915.72 751.71,916.12 C752.31,916.22 752.81,916.22 753.41,916.22 C756.91,916.22 760.61,915.22 764.11,913.32 C770.71,909.72 774.91,903.92 774.91,898.82 C774.91,897.42 774.61,896.02 773.91,894.82"/>
<path class="Note" d="M902.288,882.32 C900.788,879.62 897.888,877.92 893.988,877.52 C893.388,877.42 892.888,877.42 892.288,877.42 C888.788,877.42 884.988,878.42 881.488,880.32 C874.888,883.92 870.788,889.82 870.788,894.92 C870.788,896.32 870.988,897.62 871.688,898.82 C873.188,901.52 876.188,903.22 880.088,903.62 C880.688,903.72 881.188,903.72 881.788,903.72 C885.288,903.72 888.988,902.72 892.488,900.82 C899.088,897.22 903.288,891.42 903.288,886.32 C903.288,884.92 902.988,883.52 902.288,882.32"/>
<path class="Note" d="M1096.32,869.819 C1094.82,867.119 1091.92,865.419 1088.02,865.019 C1087.42,864.919 1086.92,864.919 1086.32,864.919 C1082.82,864.919 1079.02,865.919 1075.52,867.819 C1068.92,871.419 1064.82,877.319 1064.82,882.419 C1064.82,883.819 1065.02,885.119 1065.72,886.319 C1067.22,889.019 1070.22,890.719 1074.12,891.119 C1074.72,891.219 1075.22,891.219 1075.82,891.219 C1079.32,891.219 1083.02,890.219 1086.52,888.319 C1093.12,884.719 1097.32,878.919 1097.32,873.819 C1097.32,872.419 1097.02,871.019 1096.32,869.819"/>
<path class="Note" d="M1234.52,857.318 C1233.02,854.618 1230.12,852.918 1226.22,852.518 C1225.62,852.418 1225.12,852.418 1224.52,852.418 C1221.02,852.418 1217.22,853.418 1213.72,855.318 C1207.12,858.918 1203.02,864.818 1203.02,869.918 C1203.02,871.318 1203.22,872.618 1203.92,873.818 C1205.42,876.518 1208.42,878.218 1212.32,878.618 C1212.92,878.718 1213.42,878.718 1214.02,878.718 C1217.52,878.718 1221.22,877.718 1224.72,875.818 C1231.32,872.218 1235.52,866.418 1235.52,861.318 C1235.52,859.918 1235.22,858.518 1234.52,857.318"/>
<path class="Note" d="M1372.73,844.817 C1371.23,842.117 1368.33,840.417 1364.43,840.017 C1363.83,839.917 1363.33,839.917 1362.73,839.917 C1359.23,839.917 1355.43,840.917 1351.93,842.817 C1345.33,846.417 1341.23,852.317 1341.23,857.417 C1341.23,858.817 1341.43,860.117 1342.13,861.317 C1343.63,864.017 1346.63,865.717 1350.53,866.117 C1351.13,866.217 1351.63,866.217 1352.23,866.217 C1355.73,866.217 1359.43,865.217 1362.93,863.317 C1369.53,859.717 1373.73,853.917 1373.73,848.817 C1373.73,847.417 1373.43,846.017 1372.73,844.817"/>
<path class="Note" d="M1510.93,832.317 C1509.43,829.617 1506.53,827.917 1502.63,827.517 C1502.03,827.417 1501.53,827.417 1500.93,827.417 C1497.43,827.417 1493.63,828.417 1490.13,830.317 C1483.53,833.917 1479.43,839.817 1479.43,844.917 C1479.43,846.317 1479.63,847.617 1480.33,848.817 C1481.83,851.517 1484.83,853.217 1488.73,853.617 C1489.33,853.717 1489.83,853.717 1490.43,853.717 C1493.93,853.717 1497.63,852.717 1501.13,850.817 C1507.73,847.217 1511.93,841.417 1511.93,836.317 C1511.93,834.917 1511.63,833.517 1510.93,832.317"/>
<path class="Note" d="M1714.79,844.817 C1713.29,842.117 1710.39,840.417 1706.49,840.017 C1705.89,839.917 1705.39,839.917 1704.79,839.917 C1701.29,839.917 1697.49,840.917 1693.99,842.817 C1687.39,846.417 1683.29,852.317 1683.29,857.417 C1683.29,858.817 1683.49,860.117 1684.19,861.317 C1685.69,864.017 1688.69,865.717 1692.59,866.117 C1693.19,866.217 1693.69,866.217 1694.29,866.217 C1697.79,866.217 1701.49,865.217 1704.99,863.317 C1711.59,859.717 1715.79,853.917 1715.79,848.817 C1715.79,847.417 1715.49,846.017 1714.79,844.817"/>
<path class="Note" d="M1852.99,857.318 C1851.49,854.618 1848.59,852.918 1844.69,852.518 C1844.09,852.418 1843.59,852.418 1842.99,852.418 C1839.49,852.418 1835.69,853.418 1832.19,855.318 C1825.59,858.918 1821.49,864.818 1821.49,869.918 C1821.49,871.318 1821.69,872.618 1822.39,873.818 C1823.89,876.518 1826.89,878.218 1830.79,878.618 C1831.39,878.718 1831.89,878.718 1832.49,878.718 C1835.99,878.718 1839.69,877.718 1843.19,875.818 C1849.79,872.218 1853.99,866.418 1853.99,861.318 C1853.99,859.918 1853.69,858.518 1852.99,857.318"/>
<path class="Note" d="M1991.2,869.819 C1989.7,867.119 1986.8,865.419 1982.9,865.019 C1982.3,864.919 1981.8,864.919 1981.2,864.919 C1977.7,864.919 1973.9,865.919 1970.4,867.819 C1963.8,871.419 1959.7,877.319 1959.7,882.419 C1959.7,883.819 1959.9,885.119 1960.6,886.319 C1962.1,889.019 1965.1,890.719 1969,891.119 C1969.6,891.219 1970.1,891.219 1970.7,891.219 C1974.2,891.219 1977.9,890.219 1981.4,888.319 C1988,884.719 1992.2,878.919 1992.2,873.819 C1992.2,872.419 1991.9,871.019 1991.2,869.819"/>
<path class="Note" d="M2129.4,882.32 C2127.9,879.62 2125,877.92 2121.1,877.52 C2120.5,877.42 2120,877.42 2119.4,877.42 C2115.9,877.42 2112.1,878.42 2108.6,880.32 C2102,883.92 2097.9,889.82 2097.9,894.92 C2097.9,896.32 2098.1,897.62 2098.8,898.82 C2100.3,901.52 2103.3,903.22 2107.2,903.62 C2107.8,903.72 2108.3,903.72 2108.9,903.72 C2112.4,903.72 2116.1,902.72 2119.6,900.82 C2126.2,897.22 2130.4,891.42 2130.4,886.32 C2130.4,884.92 2130.1,883.52 2129.4,882.32"/>
<path class="Note" d="M2304.61,894.82 C2303.11,892.12 2300.21,890.42 2296.31,890.02 C2295.71,889.92 2295.21,889.92 2294.61,889.92 C2291.11,889.92 2287.31,890.92 2283.81,892.82 C2277.21,896.42 2273.11,902.32 2273.11,907.42 C2273.11,908.82 2273.31,910.12 2274.01,911.32 C2275.51,914.02 2278.51,915.72 2282.41,916.12 C2283.01,916.22 2283.51,916.22 2284.11,916.22 C2287.61,916.22 2291.31,915.22 2294.81,913.32 C2301.41,909.72 2305.61,903.92 2305.61,898.82 C2305.61,897.42 2305.31,896.02 2304.61,894.82"/>
<path class="Note" d="M2432.25,907.321 C2430.75,904.621 2427.85,902.921 2423.95,902.521 C2423.35,902.421 2422.85,902.421 2422.25,902.421 C2418.75,902.421 2414.95,903.421 2411.45,905.321 C2404.85,908.921 2400.75,914.821 2400.75,919.921 C2400.75,921.321 2400.95,922.621 2401.65,923.821 C2403.15,926.521 2406.15,928.221 2410.05,928.621 C2410.65,928.721 2411.15,928.721 2411.75,928.721 C2415.25,928.721 2418.95,927.721 2422.45,925.821 C2429.05,922.221 2433.25,916.421 2433.25,911.321 C2433.25,909.921 2432.95,908.521 2432.25,907.321"/>
<path class="Note" d="M2559.9,919.822 C2558.4,917.122 2555.5,915.422 2551.6,915.022 C2551,914.922 2550.5,914.922 2549.9,914.922 C2546.4,914.922 2542.6,915.922 2539.1,917.822 C2532.5,921.422 2528.4,927.222 2528.4,932.322 C2528.4,933.722 2528.8,935.122 2529.5,936.322 C2531,939.122 2533.8,940.722 2537.7,941.122 C2538.3,941.222 2538.8,941.222 2539.4,941.222 C2542.9,941.222 2546.7,940.222 2550.2,938.322 C2556.8,934.722 2560.9,928.822 2560.9,923.722 C2560.9,922.322 2560.6,921.022 2559.9,919.822 M2555.7,926.122 C2554,927.922 2550.8,930.222 2547.2,932.322 C2543.6,934.422 2539.9,936.122 2537.6,936.822 C2537.1,936.922 2536.5,937.022 2536,937.022 C2534.5,937.022 2533.2,936.322 2532.5,935.222 C2532.2,934.622 2532,934.022 2532,933.422 C2532,932.322 2532.5,931.222 2533.6,930.022 C2535.3,928.222 2538.5,925.822 2542.1,923.722 C2545.7,921.622 2549.4,919.922 2551.8,919.322 L2552,919.322 C2552.6,919.122 2553.1,919.022 2553.6,919.022 C2555,919.022 2556.1,919.622 2556.8,920.922 C2557.1,921.522 2557.3,922.022 2557.3,922.622 C2557.3,923.922 2556.6,925.222 2555.7,926.122"/>
<path class="Note" d="M517.153,719.809 C515.653,717.109 512.753,715.409 508.853,715.009 C508.253,714.909 507.753,714.909 507.153,714.909 C503.653,714.909 499.853,715.909 496.353,717.809 C489.753,721.409 485.653,727.309 485.653,732.409 C485.653,733.809 485.853,735.109 486.553,736.309 C488.053,739.009 491.053,740.709 494.953,741.109 C495.553,741.209 496.053,741.209 496.653,741.209 C500.153,741.209 503.853,740.209 507.353,738.309 C513.953,734.709 518.153,728.909 518.153,723.809 C518.153,722.409 517.853,721.009 517.153,719.809"/>
<path class="Note" d="M645.531,707.309 C644.031,704.609 641.131,702.909 637.231,702.509 C636.631,702.409 636.131,702.409 635.531,702.409 C632.031,702.409 628.231,703.409 624.731,705.309 C618.131,708.909 614.031,714.809 614.031,719.909 C614.031,721.309 614.231,722.609 614.931,723.809 C616.431,726.509 619.431,728.209 623.331,728.609 C623.931,728.709 624.431,728.709 625.031,728.709 C628.531,728.709 632.231,727.709 635.731,725.809 C642.331,722.209 646.531,716.409 646.531,711.309 C646.531,709.909 646.231,708.509 645.531,707.309"/>
<path class="Note" d="M773.91,694.808 C772.41,692.108 769.51,690.408 765.61,690.008 C765.01,689.908 764.51,689.908 763.91,689.908 C760.41,689.908 756.61,690.908 753.11,692.808 C746.51,696.408 742.41,702.308 742.41,707.408 C742.41,708.808 742.61,710.108 743.31,711.308 C744.81,714.008 747.81,715.708 751.71,716.108 C752.31,716.208 752.81,716.208 753.41,716.208 C756.91,716.208 760.61,715.208 764.11,713.308 C770.71,709.708 774.91,703.908 774.91,698.808 C774.91,697.408 774.61,696.008 773.91,694.808"/>
<path class="Note" d="M902.288,682.307 C900.788,679.607 897.888,677.907 893.988,677.507 C893.388,677.407 892.888,677.407 892.288,677.407 C888.788,677.407 884.988,678.407 881.488,680.307 C874.888,683.907 870.788,689.807 870.788,694.907 C870.788,696.307 870.988,697.607 871.688,698.807 C873.188,701.507 876.188,703.207 880.088,703.607 C880.688,703.707 881.188,703.707 881.788,703.707 C885.288,703.707 888.988,702.707 892.488,700.807 C899.088,697.207 903.288,691.407 903.288,686.307 C903.288,684.907 902.988,683.507 902.288,682.307"/>
<path class="Note" d="M1096.32,669.806 C1094.82,667.106 1091.92,665.406 1088.02,665.006 C1087.42,664.906 1086.92,664.906 1086.32,664.906 C1082.82,664.906 1079.02,665.906 1075.52,667.806 C1068.92,671.406 1064.82,677.306 1064.82,682.406 C1064.82,683.806 1065.02,685.106 1065.72,686.306 C1067.22,689.006 1070.22,690.706 1074.12,691.106 C1074.72,691.206 1075.22,691.206 1075.82,691.206 C1079.32,691.206 1083.02,690.206 1086.52,688.306 C1093.12,684.706 1097.32,678.906 1097.32,673.806 C1097.32,672.406 1097.02,671.006 1096.32,669.806"/>
<path class="Note" d="M1234.52,657.306 C1233.02,654.606 1230.12,652.906 1226.22,652.506 C1225.62,652.406 1225.12,652.406 1224.52,652.406 C1221.02,652.406 1217.22,653.406 1213.72,655.306 C1207.12,658.906 1203.02,664.806 1203.02,669.906 C1203.02,671.306 1203.22,672.606 1203.92,673.806 C1205.42,676.506 1208.42,678.206 1212.32,678.606 C1212.92,678.706 1213.42,678.706 1214.02,678.706 C1217.52,678.706 1221.22,677.706 1224.72,675.806 C1231.32,672.206 1235.52,666.406 1235.52,661.306 C1235.52,659.906 1235.22,658.506 1234.52,657.306"/>
<path class="Note" d="M1372.73,644.805 C1371.23,642.105 1368.33,640.405 1364.43,640.005 C1363.83,639.905 1363.33,639.905 1362.73,639.905 C1359.23,639.905 1355.43,640.905 1351.93,642.805 C1345.33,646.405 1341.23,652.305 1341.23,657.405 C1341.23,658.805 1341.43,660.105 1342.13,661.305 C1343.63,664.005 1346.63,665.705 1350.53,666.105 C1351.13,666.205 1351.63,666.205 1352.23,666.205 C1355.73,666.205 1359.43,665.205 1362.93,663.305 C1369.53,659.705 1373.73,653.905 1373.73,648.805 C1373.73,647.405 1373.43,646.005 1372.73,644.805"/>
<path class="Note" d="M1510.93,632.304 C1509.43,629.604 1506.53,627.904 1502.63,627.504 C1502.03,627.404 1501.53,627.404 1500.93,627.404 C1497.43,627.404 1493.63,628.404 1490.13,630.304 C1483.53,633.904 1479.43,639.804 1479.43,644.904 C1479.43,646.304 1479.63,647.604 1480.33,648.804 C1481.83,651.504 1484.83,653.204 1488.73,653.604 C1489.33,653.704 1489.83,653.704 1490.43,653.704 C1493.93,653.704 1497.63,652.704 1501.13,650.804 C1507.73,647.204 1511.93,641.404 1511.93,636.304 C1511.93,634.904 1511.63,633.504 1510.93,632.304"/>
<path class="Note" d="M1714.79,644.805 C1713.29,642.105 1710.39,640.405 1706.49,640.005 C1705.89,639.905 1705.39,639.905 1704.79,639.905 C1701.29,639.905 1697.49,640.905 1693.99,642.805 C1687.39,646.405 1683.29,652.305 1683.29,657.405 C1683.29,658.805 1683.49,660.105 1684.19,661.305 C1685.69,664.005 1688.69,665.705 1692.59,666.105 C1693.19,666.205 1693.69,666.205 1694.29,666.205 C1697.79,666.205 1701.49,665.205 1704.99,663.305 C1711.59,659.705 1715.79,653.905 1715.79,648.805 C1715.79,647.405 1715.49,646.005 1714.79,644.805"/>
<path class="Note" d="M1852.99,657.306 C1851.49,654.606 1848.59,652.906 1844.69,652.506 C1844.09,652.406 1843.59,652.406 1842.99,652.406 C1839.49,652.406 1835.69,653.406 1832.19,655.306 C1825.59,658.906 1821.49,664.806 1821.49,669.906 C1821.49,671.306 1821.69,672.606 1822.39,673.806 C1823.89,676.506 1826.89,678.206 1830.79,678.606 C1831.39,678.706 1831.89,678.706 1832.49,678.706 C1835.99,678.706 1839.69,677.706 1843.19,675.806 C1849.79,672.206 1853.99,666.406 1853.99,661.306 C1853.99,659.906 1853.69,658.506 1852.99,657.306"/>
<path class="Note" d="M1991.2,669.806 C1989.7,667.106 1986.8,665.406 1982.9,665.006 C1982.3,664.906 1981.8,664.906 1981.2,664.906 C1977.7,664.906 1973.9,665.906 1970.4,667.806 C1963.8,671.406 1959.7,677.306 1959.7,682.406 C1959.7,683.806 1959.9,685.106 1960.6,686.306 C1962.1,689.006 1965.1,690.706 1969,691.106 C1969.6,691.206 1970.1,691.206 1970.7,691.206 C1974.2,691.206 1977.9,690.206 1981.4,688.306 C1988,684.706 1992.2,678.906 1992.2,673.806 C1992.2,672.406 1991.9,671.006 1991.2,669.806"/>
<path class="Note" d="M2129.4,682.307 C2127.9,679.607 2125,677.907 2121.1,677.507 C2120.5,677.407 2120,677.407 2119.4,677.407 C2115.9,677.407 2112.1,678.407 2108.6,680.307 C2102,683.907 2097.9,689.807 2097.9,694.907 C2097.9,696.307 2098.1,697.607 2098.8,698.807 C2100.3,701.507 2103.3,703.207 2107.2,703.607 C2107.8,703.707 2108.3,703.707 2108.9,703.707 C2112.4,703.707 2116.1,702.707 2119.6,700.807 C2126.2,697.207 2130.4,691.407 2130.4,686.307 C2130.4,684.907 2130.1,683.507 2129.4,682.307"/>
<path class="Note" d="M2304.61,694.808 C2303.11,692.108 2300.21,690.408 2296.31,690.008 C2295.71,689.908 2295.21,689.908 2294.61,689.908 C2291.11,689.908 2287.31,690.908 2283.81,692.808 C2277.21,696.408 2273.11,702.308 2273.11,707.408 C2273.11,708.808 2273.31,710.108 2274.01,711.308 C2275.51,714.008 2278.51,715.708 2282.41,716.108 C2283.01,716.208 2283.51,716.208 2284.11,716.208 C2287.61,716.208 2291.31,715.208 2294.81,713.308 C2301.41,709.708 2305.61,703.908 2305.61,698.808 C2305.61,697.408 2305.31,696.008 2304.61,694.808"/>
<path class="Note" d="M2432.25,707.309 C2430.75,704.609 2427.85,702.909 2423.95,702.509 C2423.35,702.409 2422.85,702.409 2422.25,702.409 C2418.75,702.409 2414.95,703.409 2411.45,705.309 C2404.85,708.909 2400.75,714.809 2400.75,719.909 C2400.75,721.309 2400.95,722.609 2401.65,723.809 C2403.15,726.509 2406.15,728.209 2410.05,728.609 C2410.65,728.709 2411.15,728.709 2411.75,728.709 C2415.25,728.709 2418.95,727.709 2422.45,725.809 C2429.05,722.209 2433.25,716.409 2433.25,711.309 C2433.25,709.909 2432.95,708.509 2432.25,707.309"/>
<path class="Note" d="M2559.9,719.809 C2558.4,717.109 2555.5,715.409 2551.6,715.009 C2551,714.909 2550.5,714.909 2549.9,714.909 C2546.4,714.909 2542.6,715.909 2539.1,717.809 C2532.5,721.409 2528.4,727.209 2528.4,732.309 C2528.4,733.709 2528.8,735.109 2529.5,736.309 C2531,739.109 2533.8,740.709 2537.7,741.109 C2538.3,741.209 2538.8,741.209 2539.4,741.209 C2542.9,741.209 2546.7,740.209 2550.2,738.309 C2556.8,734.709 2560.9,728.809 2560.9,723.709 C2560.9,722.309 2560.6,721.009 2559.9,719.809 M2555.7,726.109 C2554,727.909 2550.8,730.209 2547.2,732.309 C2543.6,734.409 2539.9,736.109 2537.6,736.809 C2537.1,736.909 2536.5,737.009 2536,737.009 C2534.5,737.009 2533.2,736.309 2532.5,735.209 C2532.2,734.609 2532,734.009 2532,733.409 C2532,732.309 2532.5,731.209 2533.6,730.009 C2535.3,728.209 2538.5,725.809 2542.1,723.709 C2545.7,721.609 2549.4,719.909 2551.8,719.309 L2552,719.309 C2552.6,719.109 2553.1,719.009 2553.6,719.009 C2555,719.009 2556.1,719.609 2556.8,720.909 C2557.1,721.509 2557.3,722.009 2557.3,722.609 C2557.3,723.909 2556.6,725.209 2555.7,726.109"/>
<path class="Clef" d="M297,915.423 C289.4,915.423 283.3,919.823 283.2,919.823 C277.4,924.123 275.1,929.223 274.2,932.723 C273.7,934.523 273.5,936.323 273.5,938.023 C273.5,940.423 273.9,942.623 274.8,944.523 C276,947.223 278.3,949.123 281.3,950.123 C282.5,950.523 283.8,950.723 285.1,950.723 C287.3,950.723 289.6,950.123 291.5,949.023 C294.6,947.323 296.5,943.723 296.5,939.823 C296.5,936.323 294.7,933.123 291.7,931.223 C289.6,929.823 287.6,929.423 285.9,929.423 C284.7,929.423 283.6,929.623 282.7,929.923 C281.7,930.323 280,931.323 279.2,932.023 C279.5,930.123 280.7,927.223 281.8,925.623 C282.9,924.023 285.1,922.023 286.8,921.123 C289.3,919.723 292.5,919.123 296,919.123 C306.2,919.123 311.2,927.323 311.2,944.123 C311.2,953.423 307.7,962.323 304.7,968.223 C301.4,974.823 297,981.123 293.1,984.623 C282.7,994.123 272.9,998.623 272.8,998.623 C272.8,998.623 271.3,999.523 271.7,1001.02 C272,1002.02 272.9,1002.22 273.5,1002.22 C273.6,1002.22 273.9,1002.12 274,1002.12 C274.1,1002.12 285.5,997.423 294.6,990.323 C299.7,986.623 304.3,982.623 308.3,978.323 C311.9,974.423 315,970.223 317.5,966.023 C321.9,958.523 324.4,950.723 324.4,944.023 C324.4,935.723 322.2,928.823 318.1,923.923 C313.4,918.323 306.3,915.423 297,915.423 M328.4,928.123 C328.4,930.923 330.6,933.123 333.2,933.123 C335.8,933.123 338,930.923 338,928.123 C338,925.323 335.8,923.023 333.2,923.023 C330.6,923.023 328.4,925.323 328.4,928.123 M328.4,952.823 C328.4,955.623 330.6,957.923 333.2,957.923 C335.8,957.923 338,955.623 338,952.823 C338,950.023 335.8,947.723 333.2,947.723 C330.6,947.723 328.4,950.023 328.4,952.823"/>
<path class="Clef" d="M335,722.109 C333.8,716.709 331.1,712.809 330.3,711.809 C327.1,707.509 323.1,704.709 318.4,703.309 C316.1,702.609 314,702.409 312,702.409 C311.3,702.409 310.6,702.409 309.9,702.509 C308.9,696.509 307.8,690.609 306.9,685.209 C312.5,679.009 316.2,673.109 318.6,668.709 C322.2,662.009 323.6,657.309 323.7,657.109 C324.9,654.109 325.6,650.309 325.6,645.809 C325.6,643.109 325.3,640.209 324.9,637.209 C323.8,630.109 321.6,623.409 319.1,619.709 C317.8,617.809 316.6,616.709 315.4,616.709 C314.2,616.709 311.7,617.909 308.8,620.709 C306.5,622.909 303.2,626.809 300.6,632.809 C298.3,638.209 297.6,645.109 297.6,651.009 C297.6,652.809 297.7,654.509 297.8,656.109 C298,659.709 298.7,665.509 299.3,669.109 C299.3,669.209 299.6,670.709 300,673.309 L299.3,674.009 C298.3,675.009 297.1,676.109 295.7,677.509 C294.8,678.409 293.9,679.209 292.9,680.209 C284.4,688.409 271.6,700.809 271.6,719.909 C271.6,724.609 272.5,729.009 274.3,733.009 C275.9,736.609 278.2,739.909 281.1,742.809 C288.6,750.209 298.8,753.409 305.9,753.409 L306.5,753.409 C309.4,753.309 312.1,753.009 314.5,752.609 C316.3,762.209 317.5,769.309 317.5,774.609 C317.5,781.109 315.9,785.009 312,787.809 C309.6,789.509 306.7,790.609 303.6,790.709 L302.8,790.709 C301.3,790.709 298.8,790.309 297.3,789.909 C297.3,789.909 297,789.809 297,789.609 C297,789.409 297.4,789.409 297.4,789.409 C299.3,789.009 302.9,787.709 305.3,784.409 C306.4,782.909 307.1,780.609 307.1,778.109 C307.1,776.509 306.8,774.809 306.1,773.309 C305,770.909 302.4,767.909 296.8,767.509 L295.7,767.509 C293.6,767.509 291.8,768.009 290.1,769.009 C288.3,770.109 286.7,771.809 285.7,773.809 C284.6,775.809 284.1,778.009 284.1,780.209 C284.1,783.109 285,785.809 286.8,788.009 C289.8,791.609 294.5,793.909 299.9,794.509 C300.6,794.609 301.7,794.709 302.4,794.709 C306.8,794.709 311.2,793.509 314.8,791.309 C318.5,788.709 320.6,784.709 321.3,779.109 C321.5,777.809 321.5,776.409 321.5,774.909 C321.5,771.009 321,766.309 320,760.509 C319.6,758.409 319.2,755.409 318.5,751.609 C324.3,749.709 328.4,746.009 332.2,740.209 C334.5,736.209 335.6,732.109 335.6,727.809 C335.6,725.909 335.4,724.009 335,722.109 M304.8,644.209 C306.6,638.509 309.3,635.109 311.3,633.409 C313.1,631.909 314.7,631.209 315.6,631.209 C315.7,631.209 315.9,631.309 316,631.309 C316.3,631.409 316.7,631.909 317.1,632.609 C318,634.409 318.9,637.709 318.9,641.409 C318.9,643.309 318.7,645.309 318.1,647.109 C315.9,653.909 311.3,661.209 304.3,668.909 C304.1,667.809 303.9,666.809 303.8,665.809 C303.3,662.609 303,659.409 303,656.509 C303,652.009 303.6,647.909 304.8,644.209 M300.8,748.309 C296.2,747.109 291.7,744.609 287.9,741.109 C286.6,739.909 284.8,737.709 283.3,734.309 C282,731.309 281.3,728.209 281.3,724.809 L281.3,724.109 C281.4,719.409 282.7,714.609 285.2,709.809 C288.1,704.209 292.6,698.709 298.7,693.409 C300.2,692.109 301.6,690.809 302.9,689.509 C303.7,693.809 304.4,698.509 305.3,703.409 C301.4,704.709 296.7,707.709 293.6,713.409 C291.2,717.909 290.5,721.809 290.5,725.009 C290.5,726.509 290.7,727.909 290.9,729.009 C291.8,733.509 294.4,737.209 297.9,739.309 C298.7,739.809 302,741.509 304,741.509 C304.3,741.509 304.6,741.509 304.8,741.409 C305.1,741.309 305.4,741.109 305.5,740.809 C305.6,740.609 305.6,740.409 305.6,740.209 C305.6,739.409 304.8,738.809 303.5,738.009 C302.9,737.609 302.2,737.209 301.5,736.709 C298.9,734.709 297.4,731.609 297.4,728.209 C297.4,727.209 297.6,726.309 297.8,725.309 C298.3,723.309 300,720.509 301.5,719.109 C303.2,717.609 305.2,716.409 307.6,715.809 C309.6,727.009 311.7,738.109 313.3,746.509 C313.4,747.209 313.6,747.909 313.7,748.609 C311.7,749.009 309.7,749.209 307.8,749.209 C305.4,749.209 303.1,748.909 300.8,748.309 M326.5,738.109 C325.3,741.309 322.8,745.309 317.7,747.409 C317.6,747.009 317.6,746.509 317.5,746.109 C316,737.309 314.1,726.409 312.1,715.109 L313.1,715.109 C322.8,715.109 326.7,722.309 327.6,726.909 C327.8,727.809 327.9,729.009 327.9,730.309 C327.9,732.609 327.5,735.409 326.5,738.109"/>
<path class="TimeSig" d="M365.2,953.922 L382,953.922 L382,961.222 L373.9,961.222 C373.1,961.222 372.5,961.822 372.5,962.622 L372.5,964.522 C372.5,965.322 373.1,965.822 373.9,965.822 L403.6,965.822 C404.4,965.822 405,965.322 405,964.522 L405,962.622 C405,961.822 404.4,961.222 403.6,961.222 L394.8,961.222 L394.8,953.922 L403.6,953.922 C404.4,953.922 405,953.322 405,952.522 L405,950.722 C405,949.922 404.4,949.322 403.6,949.322 L394.8,949.322 L394.8,933.622 C394.8,933.122 394.4,932.622 394,932.422 L392.9,931.822 C392.7,931.722 392.4,931.722 392.2,931.722 C391.9,931.722 391.5,931.822 391.3,932.022 L382.4,940.222 C382.2,940.422 382,940.922 382,941.222 L382,949.322 L370.7,949.322 C370.7,949.322 381.6,937.522 393.2,922.022 C394,920.922 393.6,919.922 393.4,919.722 L391.3,917.522 C391.1,917.322 390.6,917.122 390.3,917.122 L375.7,917.122 C375,917.122 374.5,917.722 374.4,918.322 C374.4,918.322 373.9,925.522 371.3,933.522 C368.7,941.522 365.9,946.322 363.3,949.922 C363.3,949.922 362.8,950.922 363.1,951.622 C363.4,952.322 364.1,953.422 364.1,953.422 C364.1,953.422 364.4,953.922 365.2,953.922"/>
<path class="TimeSig" d="M365.2,1002.53 L382,1002.53 L382,1009.83 L373.9,1009.83 C373.1,1009.83 372.5,1010.43 372.5,1011.23 L372.5,1013.13 C372.5,1013.93 373.1,1014.43 373.9,1014.43 L403.6,1014.43 C404.4,1014.43 405,1013.93 405,1013.13 L405,1011.23 C405,1010.43 404.4,1009.83 403.6,1009.83 L394.8,1009.83 L394.8,1002.53 L403.6,1002.53 C404.4,1002.53 405,1001.93 405,1001.13 L405,999.327 C405,998.527 404.4,997.927 403.6,997.927 L394.8,997.927 L394.8,982.227 C394.8,981.727 394.4,981.227 394,981.027 L392.9,980.427 C392.7,980.327 392.4,980.327 392.2,980.327 C391.9,980.327 391.5,980.427 391.3,980.627 L382.4,988.827 C382.2,989.027 382,989.527 382,989.827 L382,997.927 L370.7,997.927 C370.7,997.927 381.6,986.127 393.2,970.627 C394,969.527 393.6,968.527 393.4,968.327 L391.3,966.127 C391.1,965.927 390.6,965.727 390.3,965.727 L375.7,965.727 C375,965.727 374.5,966.327 374.4,966.927 C374.4,966.927 373.9,974.127 371.3,982.127 C368.7,990.127 365.9,994.927 363.3,998.527 C363.3,998.527 362.8,999.527 363.1,1000.23 C363.4,1000.93 364.1,1002.03 364.1,1002.03 C364.1,1002.03 364.4,1002.53 365.2,1002.53"/>
<path class="TimeSig" d="M365.2,691.406 L382,691.406 L382,698.706 L373.9,698.706 C373.1,698.706 372.5,699.306 372.5,700.106 L372.5,702.006 C372.5,702.806 373.1,703.306 373.9,703.306 L403.6,703.306 C404.4,703.306 405,702.806 405,702.006 L405,700.106 C405,699.306 404.4,698.706 403.6,698.706 L394.8,698.706 L394.8,691.406 L403.6,691.406 C404.4,691.406 405,690.806 405,690.006 L405,688.206 C405,687.406 404.4,686.806 403.6,686.806 L394.8,686.806 L394.8,671.106 C394.8,670.606 394.4,670.106 394,669.906 L392.9,669.306 C392.7,669.206 392.4,669.206 392.2,669.206 C391.9,669.206 391.5,669.306 391.3,669.506 L382.4,677.706 C382.2,677.906 382,678.406 382,678.706 L382,686.806 L370.7,686.806 C370.7,686.806 381.6,675.006 393.2,659.506 C394,658.406 393.6,657.406 393.4,657.206 L391.3,655.006 C391.1,654.806 390.6,654.606 390.3,654.606 L375.7,654.606 C375,654.606 374.5,655.206 374.4,655.806 C374.4,655.806 373.9,663.006 371.3,671.006 C368.7,679.006 365.9,683.806 363.3,687.406 C363.3,687.406 362.8,688.406 363.1,689.106 C363.4,689.806 364.1,690.906 364.1,690.906 C364.1,690.906 364.4,691.406 365.2,691.406"/>
<path class="TimeSig" d="M365.2,740.01 L382,740.01 L382,747.31 L373.9,747.31 C373.1,747.31 372.5,747.91 372.5,748.71 L372.5,750.61 C372.5,751.41 373.1,751.91 373.9,751.91 L403.6,751.91 C404.4,751.91 405,751.41 405,750.61 L405,748.71 C405,747.91 404.4,747.31 403.6,747.31 L394.8,747.31 L394.8,740.01 L403.6,740.01 C404.4,740.01 405,739.41 405,738.61 L405,736.81 C405,736.01 404.4,735.41 403.6,735.41 L394.8,735.41 L394.8,719.71 C394.8,719.21 394.4,718.71 394,718.51 L392.9,717.91 C392.7,717.81 392.4,717.81 392.2,717.81 C391.9,717.81 391.5,717.91 391.3,718.11 L382.4,726.31 C382.2,726.51 382,727.01 382,727.31 L382,735.41 L370.7,735.41 C370.7,735.41 381.6,723.61 393.2,708.11 C394,707.01 393.6,706.01 393.4,705.81 L391.3,703.61 C391.1,703.41 390.6,703.21 390.3,703.21 L375.7,703.21 C375,703.21 374.5,703.81 374.4,704.41 C374.4,704.41 373.9,711.61 371.3,719.61 C368.7,727.61 365.9,732.41 363.3,736.01 C363.3,736.01 362.8,737.01 363.1,737.71 C363.4,738.41 364.1,739.51 364.1,739.51 C364.1,739.51 364.4,740.01 365.2,740.01"/>
<path class="Page" d="M233.756,4057 L231.776,4057 L231.326,4059.3 C230.741,4062.22 230.381,4062.49 227.591,4062.49 L217.511,4062.49 C220.616,4059.25 221.651,4058.31 224.531,4056.06 C228.626,4052.91 230.381,4051.33 231.416,4049.98 C232.856,4048 233.576,4046.02 233.576,4043.82 C233.576,4038.69 229.346,4035.04 223.451,4035.04 C217.736,4035.04 213.371,4038.69 213.371,4043.5 C213.371,4046.34 214.811,4048.27 216.926,4048.27 C218.591,4048.27 219.716,4047.15 219.716,4045.53 C219.716,4044.4 219.086,4043.37 218.141,4042.96 C216.476,4042.29 216.386,4042.2 216.386,4041.61 C216.386,4040.94 216.836,4039.9 217.466,4039.14 C218.591,4037.74 220.436,4036.98 222.551,4036.98 C226.286,4036.98 228.491,4039.27 228.491,4043.05 C228.491,4046.38 226.916,4049.4 223.181,4053.36 C219.851,4056.87 217.781,4059.07 217.016,4059.93 C215.396,4061.82 214.586,4062.85 212.606,4065.46 L212.606,4066.72 L232.901,4066.72 L233.756,4057 M250.537,4035.04 C249.007,4036.89 244.867,4038.28 240.727,4038.37 L240.727,4040.31 L244.687,4040.31 C247.297,4040.35 247.567,4040.62 247.477,4043.14 L247.477,4061.19 C247.477,4063.48 247.477,4063.57 247.207,4063.98 C246.847,4064.43 245.992,4064.61 243.472,4064.61 L240.547,4064.61 L240.547,4066.72 L258.367,4066.72 L258.367,4064.61 L255.892,4064.61 C253.372,4064.61 252.517,4064.43 252.157,4063.98 C251.842,4063.57 251.842,4063.53 251.842,4061.19 L251.842,4042.6 C251.842,4040.08 251.932,4037.97 252.157,4035.04 L250.537,4035.04 "/>
<path class="Bracket" transform="matrix(3.62523,0,0,3.62523,214.469,1015.53)" d="M0.92002,-50 C2.69004,-51.88 6.2,-55.8 6.2,-63 C6.2,-72.1 2.25996,-81.32 2.25996,-86.97 C2.25996,-93.06 5.84004,-98.84 5.95,-99 C6.05996,-99.16 6.05,-99.39 5.94004,-99.46 C5.82998,-99.53 5.62002,-99.47 5.49004,-99.32 C5.35996,-99.17 0,-93.75 0,-85.6 C0,-76.75 3.5,-70.58 3.5,-59.07 C3.5,-56.89 2.55996,-53.36 0.1,-50.33 C-0.0799805,-50.17 -0.1,-49.89 0.0599609,-49.7 L0.0700195,-49.69 L0.1,-49.66 C2.55996,-46.63 3.5,-43.1 3.5,-40.92 C3.5,-29.4 0,-23.24 0,-14.39 C0,-6.25 5.35996,-0.8 5.49004,-0.659961 C5.62002,-0.52002 5.8,-0.42998 5.94004,-0.52002 C6.07998,-0.609961 6.07998,-0.77998 5.95,-0.97998 C5.82002,-1.17998 2.25996,-6.92002 2.25996,-13.01 C2.25996,-18.66 6.2,-27.9 6.2,-37 C6.2,-44.3 2.69004,-48.12 0.92002,-50"/>
</svg>